<?xml version="1.0" encoding="UTF-8" standalone="no"?>
<!DOCTYPE svg PUBLIC "-//W3C//DTD SVG 1.1//EN"
 "http://www.w3.org/Graphics/SVG/1.1/DTD/svg11.dtd">
<!-- Generated by graphviz version 6.0.1 (20220911.1526)
 -->
<!-- Title: src/adios/AdiosWrapper.h Pages: 1 -->
<svg width="549pt" height="192pt"
 viewBox="0.00 0.00 548.70 192.00" xmlns="http://www.w3.org/2000/svg" xmlns:xlink="http://www.w3.org/1999/xlink">
<g id="graph0" class="graph" transform="scale(1 1) rotate(0) translate(4 188)">
<title>src/adios/AdiosWrapper.h</title>
<!-- Node1 -->
<g id="node1" class="node">
<title>Node1</title>
<g id="a_node1"><a xlink:title=" ">
<polygon fill="#999999" stroke="#666666" points="281.2,-184 153.2,-184 153.2,-165 281.2,-165 281.2,-184"/>
<text text-anchor="middle" x="217.2" y="-172" font-family="Helvetica,sans-Serif" font-size="10.00">src/adios/AdiosWrapper.h</text>
</a>
</g>
</g>
<!-- Node2 -->
<g id="node2" class="node">
<title>Node2</title>
<g id="a_node2"><a xlink:href="Ioss__PropertyManager_8h.html" target="_top" xlink:title=" ">
<polygon fill="white" stroke="#666666" points="225.2,-129 103.2,-129 103.2,-110 225.2,-110 225.2,-129"/>
<text text-anchor="middle" x="164.2" y="-117" font-family="Helvetica,sans-Serif" font-size="10.00">Ioss_PropertyManager.h</text>
</a>
</g>
</g>
<!-- Node1&#45;&gt;Node2 -->
<g id="edge1" class="edge">
<title>Node1&#45;&gt;Node2</title>
<path fill="none" stroke="#63b8ff" d="M208.45,-164.75C200.74,-157.03 189.3,-145.6 179.99,-136.28"/>
<polygon fill="#63b8ff" stroke="#63b8ff" points="182.34,-133.69 172.79,-129.09 177.39,-138.64 182.34,-133.69"/>
</g>
<!-- Node7 -->
<g id="node7" class="node">
<title>Node7</title>
<g id="a_node7"><a xlink:title=" ">
<polygon fill="#e0e0e0" stroke="#999999" points="60.7,-19 19.7,-19 19.7,0 60.7,0 60.7,-19"/>
<text text-anchor="middle" x="40.2" y="-7" font-family="Helvetica,sans-Serif" font-size="10.00">string</text>
</a>
</g>
</g>
<!-- Node1&#45;&gt;Node7 -->
<g id="edge19" class="edge">
<title>Node1&#45;&gt;Node7</title>
<path fill="none" stroke="#63b8ff" d="M157.63,-164.98C105.81,-153.96 34.3,-129.14 3.2,-74 -6.12,-57.46 7.89,-38.7 21.27,-25.88"/>
<polygon fill="#63b8ff" stroke="#63b8ff" points="23.75,-28.35 28.89,-19.08 19.09,-23.13 23.75,-28.35"/>
</g>
<!-- Node13 -->
<g id="node13" class="node">
<title>Node13</title>
<g id="a_node13"><a xlink:title=" ">
<polygon fill="#e0e0e0" stroke="#999999" points="296.7,-129 243.7,-129 243.7,-110 296.7,-110 296.7,-129"/>
<text text-anchor="middle" x="270.2" y="-117" font-family="Helvetica,sans-Serif" font-size="10.00">adios2.h</text>
</a>
</g>
</g>
<!-- Node1&#45;&gt;Node13 -->
<g id="edge18" class="edge">
<title>Node1&#45;&gt;Node13</title>
<path fill="none" stroke="#63b8ff" d="M225.96,-164.75C233.67,-157.03 245.11,-145.6 254.42,-136.28"/>
<polygon fill="#63b8ff" stroke="#63b8ff" points="257.02,-138.64 261.62,-129.09 252.07,-133.69 257.02,-138.64"/>
</g>
<!-- Node14 -->
<g id="node14" class="node">
<title>Node14</title>
<g id="a_node14"><a xlink:title=" ">
<polygon fill="#e0e0e0" stroke="#999999" points="437.2,-129 315.2,-129 315.2,-110 437.2,-110 437.2,-129"/>
<text text-anchor="middle" x="376.2" y="-117" font-family="Helvetica,sans-Serif" font-size="10.00">adios/AdiosWrapper.hpp</text>
</a>
</g>
</g>
<!-- Node1&#45;&gt;Node14 -->
<g id="edge20" class="edge">
<title>Node1&#45;&gt;Node14</title>
<path fill="none" stroke="#63b8ff" d="M242.75,-164.98C269.33,-156.13 311.14,-142.19 340.88,-132.28"/>
<polygon fill="#63b8ff" stroke="#63b8ff" points="342.08,-135.56 350.46,-129.08 339.86,-128.92 342.08,-135.56"/>
</g>
<!-- Node3 -->
<g id="node3" class="node">
<title>Node3</title>
<g id="a_node3"><a xlink:href="Ioss__CodeTypes_8h.html" target="_top" xlink:title=" ">
<polygon fill="white" stroke="#666666" points="360.2,-74 262.2,-74 262.2,-55 360.2,-55 360.2,-74"/>
<text text-anchor="middle" x="311.2" y="-62" font-family="Helvetica,sans-Serif" font-size="10.00">Ioss_CodeTypes.h</text>
</a>
</g>
</g>
<!-- Node2&#45;&gt;Node3 -->
<g id="edge2" class="edge">
<title>Node2&#45;&gt;Node3</title>
<path fill="none" stroke="#63b8ff" d="M187.82,-109.98C212.11,-101.23 250.15,-87.51 277.58,-77.62"/>
<polygon fill="#63b8ff" stroke="#63b8ff" points="278.94,-80.85 287.16,-74.17 276.56,-74.27 278.94,-80.85"/>
</g>
<!-- Node5 -->
<g id="node5" class="node">
<title>Node5</title>
<g id="a_node5"><a xlink:title=" ">
<polygon fill="#e0e0e0" stroke="#999999" points="540.7,-19 491.7,-19 491.7,0 540.7,0 540.7,-19"/>
<text text-anchor="middle" x="516.2" y="-7" font-family="Helvetica,sans-Serif" font-size="10.00">cstddef</text>
</a>
</g>
</g>
<!-- Node2&#45;&gt;Node5 -->
<g id="edge14" class="edge">
<title>Node2&#45;&gt;Node5</title>
<path fill="none" stroke="#63b8ff" d="M216.76,-109.99C258.61,-102.53 318.41,-90.31 369.2,-74 412.96,-59.95 461.5,-37.56 490.41,-23.47"/>
<polygon fill="#63b8ff" stroke="#63b8ff" points="491.99,-26.59 499.42,-19.03 488.9,-20.31 491.99,-26.59"/>
</g>
<!-- Node2&#45;&gt;Node7 -->
<g id="edge15" class="edge">
<title>Node2&#45;&gt;Node7</title>
<path fill="none" stroke="#63b8ff" d="M110.85,-109.94C71.72,-102.44 23.37,-90.21 11.2,-74 0.36,-59.55 11.98,-40.4 23.57,-26.92"/>
<polygon fill="#63b8ff" stroke="#63b8ff" points="26.36,-29.07 30.59,-19.35 21.23,-24.31 26.36,-29.07"/>
</g>
<!-- Node8 -->
<g id="node8" class="node">
<title>Node8</title>
<g id="a_node8"><a xlink:title=" ">
<polygon fill="#e0e0e0" stroke="#999999" points="147.2,-19 103.2,-19 103.2,0 147.2,0 147.2,-19"/>
<text text-anchor="middle" x="125.2" y="-7" font-family="Helvetica,sans-Serif" font-size="10.00">vector</text>
</a>
</g>
</g>
<!-- Node2&#45;&gt;Node8 -->
<g id="edge17" class="edge">
<title>Node2&#45;&gt;Node8</title>
<path fill="none" stroke="#63b8ff" d="M179.88,-109.97C199.31,-98.23 228.34,-76.14 215.2,-55 208.49,-44.18 180.11,-31.21 157,-22.08"/>
<polygon fill="#63b8ff" stroke="#63b8ff" points="158.08,-18.74 147.49,-18.41 155.56,-25.28 158.08,-18.74"/>
</g>
<!-- Node11 -->
<g id="node11" class="node">
<title>Node11</title>
<g id="a_node11"><a xlink:href="Ioss__Property_8h.html" target="_top" xlink:title=" ">
<polygon fill="white" stroke="#666666" points="206.2,-74 122.2,-74 122.2,-55 206.2,-55 206.2,-74"/>
<text text-anchor="middle" x="164.2" y="-62" font-family="Helvetica,sans-Serif" font-size="10.00">Ioss_Property.h</text>
</a>
</g>
</g>
<!-- Node2&#45;&gt;Node11 -->
<g id="edge10" class="edge">
<title>Node2&#45;&gt;Node11</title>
<path fill="none" stroke="#63b8ff" d="M164.2,-109.75C164.2,-102.8 164.2,-92.85 164.2,-84.13"/>
<polygon fill="#63b8ff" stroke="#63b8ff" points="167.7,-84.09 164.2,-74.09 160.7,-84.09 167.7,-84.09"/>
</g>
<!-- Node12 -->
<g id="node12" class="node">
<title>Node12</title>
<g id="a_node12"><a xlink:title=" ">
<polygon fill="#e0e0e0" stroke="#999999" points="103.7,-74 20.7,-74 20.7,-55 103.7,-55 103.7,-74"/>
<text text-anchor="middle" x="62.2" y="-62" font-family="Helvetica,sans-Serif" font-size="10.00">unordered_map</text>
</a>
</g>
</g>
<!-- Node2&#45;&gt;Node12 -->
<g id="edge16" class="edge">
<title>Node2&#45;&gt;Node12</title>
<path fill="none" stroke="#63b8ff" d="M147.82,-109.98C131.63,-101.57 106.64,-88.59 87.82,-78.81"/>
<polygon fill="#63b8ff" stroke="#63b8ff" points="89.38,-75.68 78.89,-74.17 86.15,-81.89 89.38,-75.68"/>
</g>
<!-- Node4 -->
<g id="node4" class="node">
<title>Node4</title>
<g id="a_node4"><a xlink:title=" ">
<polygon fill="#e0e0e0" stroke="#999999" points="473.2,-19 435.2,-19 435.2,0 473.2,0 473.2,-19"/>
<text text-anchor="middle" x="454.2" y="-7" font-family="Helvetica,sans-Serif" font-size="10.00">array</text>
</a>
</g>
</g>
<!-- Node3&#45;&gt;Node4 -->
<g id="edge3" class="edge">
<title>Node3&#45;&gt;Node4</title>
<path fill="none" stroke="#63b8ff" d="M334.18,-54.98C358.96,-45.8 398.47,-31.16 425.33,-21.2"/>
<polygon fill="#63b8ff" stroke="#63b8ff" points="426.79,-24.39 434.95,-17.63 424.36,-17.83 426.79,-24.39"/>
</g>
<!-- Node3&#45;&gt;Node5 -->
<g id="edge4" class="edge">
<title>Node3&#45;&gt;Node5</title>
<path fill="none" stroke="#63b8ff" d="M344.14,-54.98C381.86,-45.23 443.36,-29.33 481.71,-19.42"/>
<polygon fill="#63b8ff" stroke="#63b8ff" points="482.6,-22.8 491.41,-16.91 480.85,-16.03 482.6,-22.8"/>
</g>
<!-- Node6 -->
<g id="node6" class="node">
<title>Node6</title>
<g id="a_node6"><a xlink:title=" ">
<polygon fill="#e0e0e0" stroke="#999999" points="211.2,-19 165.2,-19 165.2,0 211.2,0 211.2,-19"/>
<text text-anchor="middle" x="188.2" y="-7" font-family="Helvetica,sans-Serif" font-size="10.00">cstdint</text>
</a>
</g>
</g>
<!-- Node3&#45;&gt;Node6 -->
<g id="edge5" class="edge">
<title>Node3&#45;&gt;Node6</title>
<path fill="none" stroke="#63b8ff" d="M291.44,-54.98C271.48,-46.38 240.4,-32.99 217.56,-23.15"/>
<polygon fill="#63b8ff" stroke="#63b8ff" points="218.9,-19.91 208.33,-19.17 216.13,-26.34 218.9,-19.91"/>
</g>
<!-- Node3&#45;&gt;Node7 -->
<g id="edge6" class="edge">
<title>Node3&#45;&gt;Node7</title>
<path fill="none" stroke="#63b8ff" d="M267.66,-54.98C212.58,-44.21 119.11,-25.93 70.93,-16.51"/>
<polygon fill="#63b8ff" stroke="#63b8ff" points="71.3,-13.02 60.82,-14.53 69.96,-19.89 71.3,-13.02"/>
</g>
<!-- Node3&#45;&gt;Node8 -->
<g id="edge7" class="edge">
<title>Node3&#45;&gt;Node8</title>
<path fill="none" stroke="#63b8ff" d="M281.32,-54.98C247.3,-45.29 191.94,-29.52 157.1,-19.59"/>
<polygon fill="#63b8ff" stroke="#63b8ff" points="158,-16.21 147.43,-16.83 156.09,-22.94 158,-16.21"/>
</g>
<!-- Node9 -->
<g id="node9" class="node">
<title>Node9</title>
<g id="a_node9"><a xlink:title=" ">
<polygon fill="#e0e0e0" stroke="#999999" points="345.2,-19 229.2,-19 229.2,0 345.2,0 345.2,-19"/>
<text text-anchor="middle" x="287.2" y="-7" font-family="Helvetica,sans-Serif" font-size="10.00">SEACASIoss_config.h</text>
</a>
</g>
</g>
<!-- Node3&#45;&gt;Node9 -->
<g id="edge8" class="edge">
<title>Node3&#45;&gt;Node9</title>
<path fill="none" stroke="#63b8ff" d="M307.24,-54.75C303.99,-47.57 299.29,-37.18 295.25,-28.27"/>
<polygon fill="#63b8ff" stroke="#63b8ff" points="298.41,-26.75 291.09,-19.09 292.03,-29.64 298.41,-26.75"/>
</g>
<!-- Node10 -->
<g id="node10" class="node">
<title>Node10</title>
<g id="a_node10"><a xlink:title=" ">
<polygon fill="#e0e0e0" stroke="#999999" points="416.7,-19 363.7,-19 363.7,0 416.7,0 416.7,-19"/>
<text text-anchor="middle" x="390.2" y="-7" font-family="Helvetica,sans-Serif" font-size="10.00">complex</text>
</a>
</g>
</g>
<!-- Node3&#45;&gt;Node10 -->
<g id="edge9" class="edge">
<title>Node3&#45;&gt;Node10</title>
<path fill="none" stroke="#63b8ff" d="M323.9,-54.98C336.03,-46.84 354.56,-34.41 368.95,-24.76"/>
<polygon fill="#63b8ff" stroke="#63b8ff" points="370.93,-27.65 377.28,-19.17 367.03,-21.84 370.93,-27.65"/>
</g>
<!-- Node11&#45;&gt;Node6 -->
<g id="edge11" class="edge">
<title>Node11&#45;&gt;Node6</title>
<path fill="none" stroke="#63b8ff" d="M168.17,-54.75C171.42,-47.57 176.12,-37.18 180.16,-28.27"/>
<polygon fill="#63b8ff" stroke="#63b8ff" points="183.38,-29.64 184.32,-19.09 177,-26.75 183.38,-29.64"/>
</g>
<!-- Node11&#45;&gt;Node7 -->
<g id="edge12" class="edge">
<title>Node11&#45;&gt;Node7</title>
<path fill="none" stroke="#63b8ff" d="M144.28,-54.98C124.15,-46.38 92.83,-32.99 69.8,-23.15"/>
<polygon fill="#63b8ff" stroke="#63b8ff" points="71.06,-19.88 60.49,-19.17 68.31,-26.32 71.06,-19.88"/>
</g>
<!-- Node11&#45;&gt;Node8 -->
<g id="edge13" class="edge">
<title>Node11&#45;&gt;Node8</title>
<path fill="none" stroke="#63b8ff" d="M157.76,-54.75C152.31,-47.34 144.34,-36.5 137.65,-27.41"/>
<polygon fill="#63b8ff" stroke="#63b8ff" points="140.27,-25.07 131.52,-19.09 134.63,-29.22 140.27,-25.07"/>
</g>
</g>
</svg>
