<?xml version="1.0" encoding="UTF-8" standalone="no"?>
<!DOCTYPE svg PUBLIC "-//W3C//DTD SVG 1.1//EN"
 "http://www.w3.org/Graphics/SVG/1.1/DTD/svg11.dtd">
<!-- Generated by graphviz version 13.1.2 (20250808.2320)
 -->
<!-- Title: src/adios/AdiosWrapper.C Pages: 1 -->
<!--zoomable 359 -->

<svg id="main" version="1.1" xmlns="http://www.w3.org/2000/svg" xmlns:xlink="http://www.w3.org/1999/xlink" xml:space="preserve" onload="init(evt)">

<style type="text/css"><![CDATA[
.node, .edge {opacity: 0.7;}
.node.selected, .edge.selected {opacity: 1;}
.edge:hover path { stroke: red; }
.edge:hover polygon { stroke: red; fill: red; }
]]></style>

<defs>
  <circle id="rim" cx="0" cy="0" r="7"/>
  <circle id="rim2" cx="0" cy="0" r="3.5"/>
  <g id="zoomPlus">
    <use xlink:href="#rim" fill="#404040"><set attributeName="fill" to="#808080" begin="zoomplus.mouseover" end="zoomplus.mouseout"/></use>
    <path d="M-4,0h8M0,-4v8" fill="none" stroke="white" stroke-width="1.5" pointer-events="none"/>
  </g>
  <g id="zoomMin">
    <use xlink:href="#rim" fill="#404040"><set attributeName="fill" to="#808080" begin="zoomminus.mouseover" end="zoomminus.mouseout"/></use>
    <path d="M-4,0h8" fill="none" stroke="white" stroke-width="1.5" pointer-events="none"/>
  </g>
  <g id="arrowUp" transform="translate(30 24)">
    <use xlink:href="#rim"/>
    <path pointer-events="none" fill="none" stroke="white" stroke-width="1.5" d="M0,-3.0v7 M-2.5,-0.5L0,-3.0L2.5,-0.5"/>
  </g>
  <g id="arrowRight" transform="rotate(90) translate(36 -43)">
    <use xlink:href="#rim"/>
    <path pointer-events="none" fill="none" stroke="white" stroke-width="1.5" d="M0,-3.0v7 M-2.5,-0.5L0,-3.0L2.5,-0.5"/>
  </g>
  <g id="arrowDown" transform="rotate(180) translate(-30 -48)">
    <use xlink:href="#rim"/>
    <path pointer-events="none" fill="none" stroke="white" stroke-width="1.5" d="M0,-3.0v7 M-2.5,-0.5L0,-3.0L2.5,-0.5"/>
  </g>
  <g id="arrowLeft" transform="rotate(270) translate(-36 17)">
    <use xlink:href="#rim"/>
    <path pointer-events="none" fill="none" stroke="white" stroke-width="1.5" d="M0,-3.0v7 M-2.5,-0.5L0,-3.0L2.5,-0.5"/>
  </g>
  <g id="resetDef">
    <use xlink:href="#rim2" fill="#404040"><set attributeName="fill" to="#808080" begin="reset.mouseover" end="reset.mouseout"/></use>
  </g>
</defs>
<script type="application/ecmascript">
var viewWidth = 1319;
var viewHeight = 359;
var sectionId = 'dynsection-0';
</script>
<script type="application/ecmascript" xlink:href="svg.min.js"/>
<svg id="graph" class="graph">
<g id="viewport">
<title>src/adios/AdiosWrapper.C</title>
<!-- Node1 -->
<g id="Node000001" class="node">
<title>Node1</title>
<g id="a_Node000001"><a xlink:title=" ">
<polygon fill="#999999" stroke="#666666" points="999.95,-350.75 870.7,-350.75 870.7,-331.5 999.95,-331.5 999.95,-350.75"/>
<text xml:space="preserve" text-anchor="middle" x="935.32" y="-337.25" font-family="Helvetica,sans-Serif" font-size="10.00">src/adios/AdiosWrapper.C</text>
</a>
</g>
</g>
<!-- Node2 -->
<g id="Node000002" class="node">
<title>Node2</title>
<g id="a_Node000002"><a xlink:href="AdiosWrapper_8h.html" target="_top" xlink:title=" ">
<polygon fill="white" stroke="#666666" points="615.57,-295.5 505.07,-295.5 505.07,-276.25 615.57,-276.25 615.57,-295.5"/>
<text xml:space="preserve" text-anchor="middle" x="560.32" y="-282" font-family="Helvetica,sans-Serif" font-size="10.00">adios/AdiosWrapper.h</text>
</a>
</g>
</g>
<!-- Node1&#45;&gt;Node2 -->
<g id="edge1_Node000001_Node000002" class="edge">
<title>Node1&#45;&gt;Node2</title>
<g id="a_edge1_Node000001_Node000002"><a xlink:title=" ">
<path fill="none" stroke="#63b8ff" d="M871.28,-331.03C803.21,-321.37 696.07,-306.15 627.01,-296.34"/>
<polygon fill="#63b8ff" stroke="#63b8ff" points="627.73,-292.91 617.34,-294.97 626.75,-299.84 627.73,-292.91"/>
</a>
</g>
</g>
<!-- Node24 -->
<g id="Node000024" class="node">
<title>Node24</title>
<g id="a_Node000024"><a xlink:title=" ">
<polygon fill="#e0e0e0" stroke="#999999" points="1103.2,-19.25 1047.45,-19.25 1047.45,0 1103.2,0 1103.2,-19.25"/>
<text xml:space="preserve" text-anchor="middle" x="1075.32" y="-5.75" font-family="Helvetica,sans-Serif" font-size="10.00">algorithm</text>
</a>
</g>
</g>
<!-- Node1&#45;&gt;Node24 -->
<g id="edge62_Node000001_Node000024" class="edge">
<title>Node1&#45;&gt;Node24</title>
<g id="a_edge62_Node000001_Node000024"><a xlink:title=" ">
<path fill="none" stroke="#63b8ff" d="M1000.39,-334.79C1108,-324.14 1311.32,-295.57 1311.32,-231.62 1311.32,-231.62 1311.32,-231.62 1311.32,-119.12 1311.32,-33.62 1181.85,-15.25 1114.7,-11.48"/>
<polygon fill="#63b8ff" stroke="#63b8ff" points="1114.98,-7.99 1104.83,-11.02 1114.66,-14.98 1114.98,-7.99"/>
</a>
</g>
</g>
<!-- Node3 -->
<g id="Node000003" class="node">
<title>Node3</title>
<g id="a_Node000003"><a xlink:title=" ">
<polygon fill="#e0e0e0" stroke="#999999" points="818.57,-240.25 744.07,-240.25 744.07,-221 818.57,-221 818.57,-240.25"/>
<text xml:space="preserve" text-anchor="middle" x="781.32" y="-226.75" font-family="Helvetica,sans-Serif" font-size="10.00">ioad_export.h</text>
</a>
</g>
</g>
<!-- Node2&#45;&gt;Node3 -->
<g id="edge2_Node000002_Node000003" class="edge">
<title>Node2&#45;&gt;Node3</title>
<g id="a_edge2_Node000002_Node000003"><a xlink:title=" ">
<path fill="none" stroke="#63b8ff" d="M598.06,-275.78C635.25,-266.82 692.22,-253.09 732.77,-243.32"/>
<polygon fill="#63b8ff" stroke="#63b8ff" points="733.36,-246.78 742.26,-241.04 731.72,-239.98 733.36,-246.78"/>
</a>
</g>
</g>
<!-- Node4 -->
<g id="Node000004" class="node">
<title>Node4</title>
<g id="a_Node000004"><a xlink:href="Ioss__CodeTypes_8h.html" target="_top" xlink:title=" ">
<polygon fill="white" stroke="#666666" points="146.2,-129.75 48.45,-129.75 48.45,-110.5 146.2,-110.5 146.2,-129.75"/>
<text xml:space="preserve" text-anchor="middle" x="97.32" y="-116.25" font-family="Helvetica,sans-Serif" font-size="10.00">Ioss_CodeTypes.h</text>
</a>
</g>
</g>
<!-- Node2&#45;&gt;Node4 -->
<g id="edge3_Node000002_Node000004" class="edge">
<title>Node2&#45;&gt;Node4</title>
<g id="a_edge3_Node000002_Node000004"><a xlink:title=" ">
<path fill="none" stroke="#63b8ff" d="M504.83,-284.95C408.44,-284.08 215.12,-277.56 160.32,-240.25 125.94,-216.84 108.93,-168.5 101.74,-141.14"/>
<polygon fill="#63b8ff" stroke="#63b8ff" points="105.21,-140.58 99.46,-131.68 98.4,-142.22 105.21,-140.58"/>
</a>
</g>
</g>
<!-- Node8 -->
<g id="Node000008" class="node">
<title>Node8</title>
<g id="a_Node000008"><a xlink:title=" ">
<polygon fill="#e0e0e0" stroke="#999999" points="257.32,-74.5 217.32,-74.5 217.32,-55.25 257.32,-55.25 257.32,-74.5"/>
<text xml:space="preserve" text-anchor="middle" x="237.32" y="-61" font-family="Helvetica,sans-Serif" font-size="10.00">string</text>
</a>
</g>
</g>
<!-- Node2&#45;&gt;Node8 -->
<g id="edge60_Node000002_Node000008" class="edge">
<title>Node2&#45;&gt;Node8</title>
<g id="a_edge60_Node000002_Node000008"><a xlink:title=" ">
<path fill="none" stroke="#63b8ff" d="M504.65,-280.41C439.34,-272.27 331.8,-249.35 267.32,-185 240.86,-158.59 236.57,-112.48 236.5,-86.05"/>
<polygon fill="#63b8ff" stroke="#63b8ff" points="239.99,-86.4 236.69,-76.33 232.99,-86.26 239.99,-86.4"/>
</a>
</g>
</g>
<!-- Node12 -->
<g id="Node000012" class="node">
<title>Node12</title>
<g id="a_Node000012"><a xlink:href="Ioss__PropertyManager_8h.html" target="_top" xlink:title=" ">
<polygon fill="white" stroke="#666666" points="516.2,-240.25 394.45,-240.25 394.45,-221 516.2,-221 516.2,-240.25"/>
<text xml:space="preserve" text-anchor="middle" x="455.32" y="-226.75" font-family="Helvetica,sans-Serif" font-size="10.00">Ioss_PropertyManager.h</text>
</a>
</g>
</g>
<!-- Node2&#45;&gt;Node12 -->
<g id="edge11_Node000002_Node000012" class="edge">
<title>Node2&#45;&gt;Node12</title>
<g id="a_edge11_Node000002_Node000012"><a xlink:title=" ">
<path fill="none" stroke="#63b8ff" d="M542.51,-275.84C526.29,-267.62 502.09,-255.34 483.29,-245.81"/>
<polygon fill="#63b8ff" stroke="#63b8ff" points="485.07,-242.79 474.57,-241.39 481.91,-249.03 485.07,-242.79"/>
</a>
</g>
</g>
<!-- Node36 -->
<g id="Node000036" class="node">
<title>Node36</title>
<g id="a_Node000036"><a xlink:title=" ">
<polygon fill="#e0e0e0" stroke="#999999" points="586.7,-240.25 533.95,-240.25 533.95,-221 586.7,-221 586.7,-240.25"/>
<text xml:space="preserve" text-anchor="middle" x="560.32" y="-226.75" font-family="Helvetica,sans-Serif" font-size="10.00">adios2.h</text>
</a>
</g>
</g>
<!-- Node2&#45;&gt;Node36 -->
<g id="edge59_Node000002_Node000036" class="edge">
<title>Node2&#45;&gt;Node36</title>
<g id="a_edge59_Node000002_Node000036"><a xlink:title=" ">
<path fill="none" stroke="#63b8ff" d="M560.32,-276.08C560.32,-269.57 560.32,-260.42 560.32,-252.12"/>
<polygon fill="#63b8ff" stroke="#63b8ff" points="563.82,-252.12 560.32,-242.12 556.82,-252.12 563.82,-252.12"/>
</a>
</g>
</g>
<!-- Node37 -->
<g id="Node000037" class="node">
<title>Node37</title>
<g id="a_Node000037"><a xlink:title=" ">
<polygon fill="#e0e0e0" stroke="#999999" points="725.82,-240.25 604.82,-240.25 604.82,-221 725.82,-221 725.82,-240.25"/>
<text xml:space="preserve" text-anchor="middle" x="665.32" y="-226.75" font-family="Helvetica,sans-Serif" font-size="10.00">adios/AdiosWrapper.hpp</text>
</a>
</g>
</g>
<!-- Node2&#45;&gt;Node37 -->
<g id="edge61_Node000002_Node000037" class="edge">
<title>Node2&#45;&gt;Node37</title>
<g id="a_edge61_Node000002_Node000037"><a xlink:title=" ">
<path fill="none" stroke="#63b8ff" d="M578.13,-275.84C594.35,-267.62 618.56,-255.34 637.35,-245.81"/>
<polygon fill="#63b8ff" stroke="#63b8ff" points="638.74,-249.03 646.07,-241.39 635.57,-242.79 638.74,-249.03"/>
</a>
</g>
</g>
<!-- Node5 -->
<g id="Node000005" class="node">
<title>Node5</title>
<g id="a_Node000005"><a xlink:title=" ">
<polygon fill="#e0e0e0" stroke="#999999" points="125.2,-19.25 87.45,-19.25 87.45,0 125.2,0 125.2,-19.25"/>
<text xml:space="preserve" text-anchor="middle" x="106.32" y="-5.75" font-family="Helvetica,sans-Serif" font-size="10.00">array</text>
</a>
</g>
</g>
<!-- Node4&#45;&gt;Node5 -->
<g id="edge4_Node000004_Node000005" class="edge">
<title>Node4&#45;&gt;Node5</title>
<g id="a_edge4_Node000004_Node000005"><a xlink:title=" ">
<path fill="none" stroke="#63b8ff" d="M60.97,-110.07C28.04,-99.99 -12.89,-81.56 4.32,-55.25 20.14,-31.06 52.28,-19.9 76.28,-14.81"/>
<polygon fill="#63b8ff" stroke="#63b8ff" points="76.61,-18.31 85.81,-13.04 75.34,-11.42 76.61,-18.31"/>
</a>
</g>
</g>
<!-- Node6 -->
<g id="Node000006" class="node">
<title>Node6</title>
<g id="a_Node000006"><a xlink:title=" ">
<polygon fill="#e0e0e0" stroke="#999999" points="1029.45,-19.25 981.2,-19.25 981.2,0 1029.45,0 1029.45,-19.25"/>
<text xml:space="preserve" text-anchor="middle" x="1005.32" y="-5.75" font-family="Helvetica,sans-Serif" font-size="10.00">cstddef</text>
</a>
</g>
</g>
<!-- Node4&#45;&gt;Node6 -->
<g id="edge5_Node000004_Node000006" class="edge">
<title>Node4&#45;&gt;Node6</title>
<g id="a_edge5_Node000004_Node000006"><a xlink:title=" ">
<path fill="none" stroke="#63b8ff" d="M113,-110.04C143.3,-92.49 207.02,-55.63 208.32,-55.25 363.3,-9.7 773.38,-33 934.32,-19.25 945.8,-18.27 958.28,-16.87 969.53,-15.48"/>
<polygon fill="#63b8ff" stroke="#63b8ff" points="969.74,-18.98 979.22,-14.24 968.86,-12.03 969.74,-18.98"/>
</a>
</g>
</g>
<!-- Node7 -->
<g id="Node000007" class="node">
<title>Node7</title>
<g id="a_Node000007"><a xlink:title=" ">
<polygon fill="#e0e0e0" stroke="#999999" points="392.95,-19.25 347.7,-19.25 347.7,0 392.95,0 392.95,-19.25"/>
<text xml:space="preserve" text-anchor="middle" x="370.32" y="-5.75" font-family="Helvetica,sans-Serif" font-size="10.00">cstdint</text>
</a>
</g>
</g>
<!-- Node4&#45;&gt;Node7 -->
<g id="edge6_Node000004_Node000007" class="edge">
<title>Node4&#45;&gt;Node7</title>
<g id="a_edge6_Node000004_Node000007"><a xlink:title=" ">
<path fill="none" stroke="#63b8ff" d="M105.5,-110.17C118.76,-96.22 146.4,-69.42 175.32,-55.25 227.86,-29.51 295.7,-18.32 335.95,-13.68"/>
<polygon fill="#63b8ff" stroke="#63b8ff" points="336.19,-17.17 345.76,-12.63 335.44,-10.21 336.19,-17.17"/>
</a>
</g>
</g>
<!-- Node4&#45;&gt;Node8 -->
<g id="edge7_Node000004_Node000008" class="edge">
<title>Node4&#45;&gt;Node8</title>
<g id="a_edge7_Node000004_Node000008"><a xlink:title=" ">
<path fill="none" stroke="#63b8ff" d="M121.07,-110.09C144.58,-101.15 180.7,-87.41 206.43,-77.62"/>
<polygon fill="#63b8ff" stroke="#63b8ff" points="207.58,-80.93 215.68,-74.11 205.09,-74.39 207.58,-80.93"/>
</a>
</g>
</g>
<!-- Node9 -->
<g id="Node000009" class="node">
<title>Node9</title>
<g id="a_Node000009"><a xlink:title=" ">
<polygon fill="#e0e0e0" stroke="#999999" points="356.82,-74.5 313.82,-74.5 313.82,-55.25 356.82,-55.25 356.82,-74.5"/>
<text xml:space="preserve" text-anchor="middle" x="335.32" y="-61" font-family="Helvetica,sans-Serif" font-size="10.00">vector</text>
</a>
</g>
</g>
<!-- Node4&#45;&gt;Node9 -->
<g id="edge8_Node000004_Node000009" class="edge">
<title>Node4&#45;&gt;Node9</title>
<g id="a_edge8_Node000004_Node000009"><a xlink:title=" ">
<path fill="none" stroke="#63b8ff" d="M137.96,-110.03C184.32,-99.66 259.24,-82.9 302.2,-73.29"/>
<polygon fill="#63b8ff" stroke="#63b8ff" points="302.95,-76.7 311.94,-71.11 301.42,-69.87 302.95,-76.7"/>
</a>
</g>
</g>
<!-- Node10 -->
<g id="Node000010" class="node">
<title>Node10</title>
<g id="a_Node000010"><a xlink:title=" ">
<polygon fill="#e0e0e0" stroke="#999999" points="53.32,-74.5 13.32,-74.5 13.32,-55.25 53.32,-55.25 53.32,-74.5"/>
<text xml:space="preserve" text-anchor="middle" x="33.32" y="-61" font-family="Helvetica,sans-Serif" font-size="10.00">mpi.h</text>
</a>
</g>
</g>
<!-- Node4&#45;&gt;Node10 -->
<g id="edge9_Node000004_Node000010" class="edge">
<title>Node4&#45;&gt;Node10</title>
<g id="a_edge9_Node000004_Node000010"><a xlink:title=" ">
<path fill="none" stroke="#63b8ff" d="M86.46,-110.09C77.21,-102.4 63.7,-91.15 52.61,-81.93"/>
<polygon fill="#63b8ff" stroke="#63b8ff" points="55.11,-79.45 45.18,-75.74 50.63,-84.83 55.11,-79.45"/>
</a>
</g>
</g>
<!-- Node11 -->
<g id="Node000011" class="node">
<title>Node11</title>
<g id="a_Node000011"><a xlink:title=" ">
<polygon fill="#e0e0e0" stroke="#999999" points="123.7,-74.5 70.95,-74.5 70.95,-55.25 123.7,-55.25 123.7,-74.5"/>
<text xml:space="preserve" text-anchor="middle" x="97.32" y="-61" font-family="Helvetica,sans-Serif" font-size="10.00">complex</text>
</a>
</g>
</g>
<!-- Node4&#45;&gt;Node11 -->
<g id="edge10_Node000004_Node000011" class="edge">
<title>Node4&#45;&gt;Node11</title>
<g id="a_edge10_Node000004_Node000011"><a xlink:title=" ">
<path fill="none" stroke="#63b8ff" d="M97.32,-110.33C97.32,-103.82 97.32,-94.67 97.32,-86.37"/>
<polygon fill="#63b8ff" stroke="#63b8ff" points="100.82,-86.37 97.32,-76.37 93.82,-86.37 100.82,-86.37"/>
</a>
</g>
</g>
<!-- Node12&#45;&gt;Node4 -->
<g id="edge12_Node000012_Node000004" class="edge">
<title>Node12&#45;&gt;Node4</title>
<g id="a_edge12_Node000012_Node000004"><a xlink:title=" ">
<path fill="none" stroke="#63b8ff" d="M394.07,-225.75C340.85,-220.81 262.44,-209.72 198.32,-185 167.99,-173.31 136.95,-152 117.43,-137.23"/>
<polygon fill="#63b8ff" stroke="#63b8ff" points="119.59,-134.47 109.54,-131.11 115.3,-140 119.59,-134.47"/>
</a>
</g>
</g>
<!-- Node12&#45;&gt;Node6 -->
<g id="edge20_Node000012_Node000006" class="edge">
<title>Node12&#45;&gt;Node6</title>
<g id="a_edge20_Node000012_Node000006"><a xlink:title=" ">
<path fill="none" stroke="#63b8ff" d="M516.4,-222.08C519.42,-221.71 522.4,-221.35 525.32,-221 685.69,-201.66 1157.43,-214.9 1237.32,-74.5 1295.64,27.99 1381.93,-92.93 1040.78,-19.64"/>
<polygon fill="#63b8ff" stroke="#63b8ff" points="1041.77,-16.27 1031.26,-17.56 1040.28,-23.11 1041.77,-16.27"/>
</a>
</g>
</g>
<!-- Node12&#45;&gt;Node8 -->
<g id="edge22_Node000012_Node000008" class="edge">
<title>Node12&#45;&gt;Node8</title>
<g id="a_edge22_Node000012_Node000008"><a xlink:title=" ">
<path fill="none" stroke="#63b8ff" d="M394.29,-224.76C360.24,-219.42 318.7,-208.26 288.32,-185 256.71,-160.8 244.43,-113.13 239.86,-86"/>
<polygon fill="#63b8ff" stroke="#63b8ff" points="243.36,-85.72 238.45,-76.33 236.43,-86.74 243.36,-85.72"/>
</a>
</g>
</g>
<!-- Node12&#45;&gt;Node9 -->
<g id="edge23_Node000012_Node000009" class="edge">
<title>Node12&#45;&gt;Node9</title>
<g id="a_edge23_Node000012_Node000009"><a xlink:title=" ">
<path fill="none" stroke="#63b8ff" d="M464.24,-220.7C484.2,-199.64 528.64,-145.99 501.32,-110.5 465.27,-63.66 429.71,-88.08 368.2,-74.92"/>
<polygon fill="#63b8ff" stroke="#63b8ff" points="369.28,-71.58 358.73,-72.6 367.61,-78.38 369.28,-71.58"/>
</a>
</g>
</g>
<!-- Node13 -->
<g id="Node000013" class="node">
<title>Node13</title>
<g id="a_Node000013"><a xlink:href="Ioss__Property_8h.html" target="_top" xlink:title=" ">
<polygon fill="white" stroke="#666666" points="381.07,-185 297.57,-185 297.57,-165.75 381.07,-165.75 381.07,-185"/>
<text xml:space="preserve" text-anchor="middle" x="339.32" y="-171.5" font-family="Helvetica,sans-Serif" font-size="10.00">Ioss_Property.h</text>
</a>
</g>
</g>
<!-- Node12&#45;&gt;Node13 -->
<g id="edge13_Node000012_Node000013" class="edge">
<title>Node12&#45;&gt;Node13</title>
<g id="a_edge13_Node000012_Node000013"><a xlink:title=" ">
<path fill="none" stroke="#63b8ff" d="M435.64,-220.59C417.48,-212.25 390.24,-199.75 369.35,-190.16"/>
<polygon fill="#63b8ff" stroke="#63b8ff" points="371.02,-187.08 360.47,-186.08 368.1,-193.44 371.02,-187.08"/>
</a>
</g>
</g>
<!-- Node14 -->
<g id="Node000014" class="node">
<title>Node14</title>
<g id="a_Node000014"><a xlink:title=" ">
<polygon fill="#e0e0e0" stroke="#999999" points="492.57,-129.75 418.07,-129.75 418.07,-110.5 492.57,-110.5 492.57,-129.75"/>
<text xml:space="preserve" text-anchor="middle" x="455.32" y="-116.25" font-family="Helvetica,sans-Serif" font-size="10.00">ioss_export.h</text>
</a>
</g>
</g>
<!-- Node12&#45;&gt;Node14 -->
<g id="edge24_Node000012_Node000014" class="edge">
<title>Node12&#45;&gt;Node14</title>
<g id="a_edge24_Node000012_Node000014"><a xlink:title=" ">
<path fill="none" stroke="#63b8ff" d="M455.32,-220.75C455.32,-203.5 455.32,-165.08 455.32,-141.31"/>
<polygon fill="#63b8ff" stroke="#63b8ff" points="458.82,-141.64 455.32,-131.64 451.82,-141.64 458.82,-141.64"/>
</a>
</g>
</g>
<!-- Node16 -->
<g id="Node000016" class="node">
<title>Node16</title>
<g id="a_Node000016"><a xlink:title=" ">
<polygon fill="#e0e0e0" stroke="#999999" points="596.45,-185 548.2,-185 548.2,-165.75 596.45,-165.75 596.45,-185"/>
<text xml:space="preserve" text-anchor="middle" x="572.32" y="-171.5" font-family="Helvetica,sans-Serif" font-size="10.00">stdint.h</text>
</a>
</g>
</g>
<!-- Node12&#45;&gt;Node16 -->
<g id="edge21_Node000012_Node000016" class="edge">
<title>Node12&#45;&gt;Node16</title>
<g id="a_edge21_Node000012_Node000016"><a xlink:title=" ">
<path fill="none" stroke="#63b8ff" d="M475.17,-220.59C493.49,-212.25 520.97,-199.75 542.03,-190.16"/>
<polygon fill="#63b8ff" stroke="#63b8ff" points="543.35,-193.41 551,-186.08 540.45,-187.04 543.35,-193.41"/>
</a>
</g>
</g>
<!-- Node17 -->
<g id="Node000017" class="node">
<title>Node17</title>
<g id="a_Node000017"><a xlink:href="robin__map_8h.html" target="_top" xlink:title=" ">
<polygon fill="white" stroke="#666666" points="820.95,-185 751.7,-185 751.7,-165.75 820.95,-165.75 820.95,-185"/>
<text xml:space="preserve" text-anchor="middle" x="786.32" y="-171.5" font-family="Helvetica,sans-Serif" font-size="10.00">robin_map.h</text>
</a>
</g>
</g>
<!-- Node12&#45;&gt;Node17 -->
<g id="edge25_Node000012_Node000017" class="edge">
<title>Node12&#45;&gt;Node17</title>
<g id="a_edge25_Node000012_Node000017"><a xlink:title=" ">
<path fill="none" stroke="#63b8ff" d="M511.85,-220.53C576.24,-210.17 680.26,-193.44 740.04,-183.82"/>
<polygon fill="#63b8ff" stroke="#63b8ff" points="740.57,-187.28 749.89,-182.24 739.46,-180.37 740.57,-187.28"/>
</a>
</g>
</g>
<!-- Node13&#45;&gt;Node4 -->
<g id="edge14_Node000013_Node000004" class="edge">
<title>Node13&#45;&gt;Node4</title>
<g id="a_edge14_Node000013_Node000004"><a xlink:title=" ">
<path fill="none" stroke="#63b8ff" d="M297.99,-165.28C257.01,-156.26 194.08,-142.42 149.64,-132.64"/>
<polygon fill="#63b8ff" stroke="#63b8ff" points="150.47,-129.24 139.95,-130.51 148.97,-136.07 150.47,-129.24"/>
</a>
</g>
</g>
<!-- Node13&#45;&gt;Node7 -->
<g id="edge16_Node000013_Node000007" class="edge">
<title>Node13&#45;&gt;Node7</title>
<g id="a_edge16_Node000013_Node000007"><a xlink:title=" ">
<path fill="none" stroke="#63b8ff" d="M330.39,-165.38C322.68,-156.97 312.07,-143.64 307.32,-129.75 296.61,-98.41 289.89,-84.56 305.32,-55.25 312.2,-42.19 324.81,-32.22 337.11,-25.05"/>
<polygon fill="#63b8ff" stroke="#63b8ff" points="338.7,-28.16 345.89,-20.38 335.42,-21.98 338.7,-28.16"/>
</a>
</g>
</g>
<!-- Node13&#45;&gt;Node8 -->
<g id="edge17_Node000013_Node000008" class="edge">
<title>Node13&#45;&gt;Node8</title>
<g id="a_edge17_Node000013_Node000008"><a xlink:title=" ">
<path fill="none" stroke="#63b8ff" d="M322.01,-165.35C307.93,-157.38 288.18,-144.71 274.32,-129.75 262.07,-116.53 252.12,-98.56 245.63,-85.05"/>
<polygon fill="#63b8ff" stroke="#63b8ff" points="248.99,-83.97 241.65,-76.32 242.62,-86.87 248.99,-83.97"/>
</a>
</g>
</g>
<!-- Node13&#45;&gt;Node9 -->
<g id="edge19_Node000013_Node000009" class="edge">
<title>Node13&#45;&gt;Node9</title>
<g id="a_edge19_Node000013_Node000009"><a xlink:title=" ">
<path fill="none" stroke="#63b8ff" d="M348.87,-165.59C360.74,-153.56 378.59,-131.08 371.32,-110.5 367.7,-100.25 360.61,-90.62 353.68,-82.95"/>
<polygon fill="#63b8ff" stroke="#63b8ff" points="356.38,-80.7 346.88,-76 351.38,-85.6 356.38,-80.7"/>
</a>
</g>
</g>
<!-- Node13&#45;&gt;Node14 -->
<g id="edge15_Node000013_Node000014" class="edge">
<title>Node13&#45;&gt;Node14</title>
<g id="a_edge15_Node000013_Node000014"><a xlink:title=" ">
<path fill="none" stroke="#63b8ff" d="M359,-165.34C377.16,-157 404.4,-144.5 425.29,-134.91"/>
<polygon fill="#63b8ff" stroke="#63b8ff" points="426.54,-138.19 434.17,-130.83 423.62,-131.83 426.54,-138.19"/>
</a>
</g>
</g>
<!-- Node15 -->
<g id="Node000015" class="node">
<title>Node15</title>
<g id="a_Node000015"><a xlink:title=" ">
<polygon fill="#e0e0e0" stroke="#999999" points="361.95,-129.75 316.7,-129.75 316.7,-110.5 361.95,-110.5 361.95,-129.75"/>
<text xml:space="preserve" text-anchor="middle" x="339.32" y="-116.25" font-family="Helvetica,sans-Serif" font-size="10.00">variant</text>
</a>
</g>
</g>
<!-- Node13&#45;&gt;Node15 -->
<g id="edge18_Node000013_Node000015" class="edge">
<title>Node13&#45;&gt;Node15</title>
<g id="a_edge18_Node000013_Node000015"><a xlink:title=" ">
<path fill="none" stroke="#63b8ff" d="M339.32,-165.58C339.32,-159.07 339.32,-149.92 339.32,-141.62"/>
<polygon fill="#63b8ff" stroke="#63b8ff" points="342.82,-141.62 339.32,-131.62 335.82,-141.62 342.82,-141.62"/>
</a>
</g>
</g>
<!-- Node17&#45;&gt;Node6 -->
<g id="edge26_Node000017_Node000006" class="edge">
<title>Node17&#45;&gt;Node6</title>
<g id="a_edge26_Node000017_Node000006"><a xlink:title=" ">
<path fill="none" stroke="#63b8ff" d="M821.24,-171.81C914.91,-164.12 1167.98,-137.75 1216.32,-74.5 1250.49,-29.78 1243.86,-65.49 1040.88,-19.72"/>
<polygon fill="#63b8ff" stroke="#63b8ff" points="1041.8,-16.34 1031.27,-17.52 1040.23,-23.16 1041.8,-16.34"/>
</a>
</g>
</g>
<!-- Node18 -->
<g id="Node000018" class="node">
<title>Node18</title>
<g id="a_Node000018"><a xlink:title=" ">
<polygon fill="#e0e0e0" stroke="#999999" points="687.32,-129.75 629.32,-129.75 629.32,-110.5 687.32,-110.5 687.32,-129.75"/>
<text xml:space="preserve" text-anchor="middle" x="658.32" y="-116.25" font-family="Helvetica,sans-Serif" font-size="10.00">functional</text>
</a>
</g>
</g>
<!-- Node17&#45;&gt;Node18 -->
<g id="edge27_Node000017_Node000018" class="edge">
<title>Node17&#45;&gt;Node18</title>
<g id="a_edge27_Node000017_Node000018"><a xlink:title=" ">
<path fill="none" stroke="#63b8ff" d="M764.61,-165.34C744.29,-156.89 713.67,-144.15 690.51,-134.52"/>
<polygon fill="#63b8ff" stroke="#63b8ff" points="692.12,-131.39 681.54,-130.78 689.43,-137.86 692.12,-131.39"/>
</a>
</g>
</g>
<!-- Node19 -->
<g id="Node000019" class="node">
<title>Node19</title>
<g id="a_Node000019"><a xlink:title=" ">
<polygon fill="#e0e0e0" stroke="#999999" points="777.45,-129.75 705.2,-129.75 705.2,-110.5 777.45,-110.5 777.45,-129.75"/>
<text xml:space="preserve" text-anchor="middle" x="741.32" y="-116.25" font-family="Helvetica,sans-Serif" font-size="10.00">initializer_list</text>
</a>
</g>
</g>
<!-- Node17&#45;&gt;Node19 -->
<g id="edge28_Node000017_Node000019" class="edge">
<title>Node17&#45;&gt;Node19</title>
<g id="a_edge28_Node000017_Node000019"><a xlink:title=" ">
<path fill="none" stroke="#63b8ff" d="M778.89,-165.58C772.74,-158.3 763.81,-147.73 756.19,-138.73"/>
<polygon fill="#63b8ff" stroke="#63b8ff" points="759.02,-136.64 749.89,-131.27 753.67,-141.16 759.02,-136.64"/>
</a>
</g>
</g>
<!-- Node20 -->
<g id="Node000020" class="node">
<title>Node20</title>
<g id="a_Node000020"><a xlink:title=" ">
<polygon fill="#e0e0e0" stroke="#999999" points="425.95,-74.5 374.7,-74.5 374.7,-55.25 425.95,-55.25 425.95,-74.5"/>
<text xml:space="preserve" text-anchor="middle" x="400.32" y="-61" font-family="Helvetica,sans-Serif" font-size="10.00">memory</text>
</a>
</g>
</g>
<!-- Node17&#45;&gt;Node20 -->
<g id="edge29_Node000017_Node000020" class="edge">
<title>Node17&#45;&gt;Node20</title>
<g id="a_edge29_Node000017_Node000020"><a xlink:title=" ">
<path fill="none" stroke="#63b8ff" d="M751.61,-165.26C717.99,-156.38 665.59,-142.4 620.32,-129.75 555.8,-111.71 480.94,-89.76 437.28,-76.85"/>
<polygon fill="#63b8ff" stroke="#63b8ff" points="438.38,-73.53 427.8,-74.04 436.4,-80.24 438.38,-73.53"/>
</a>
</g>
</g>
<!-- Node21 -->
<g id="Node000021" class="node">
<title>Node21</title>
<g id="a_Node000021"><a xlink:title=" ">
<polygon fill="#e0e0e0" stroke="#999999" points="1149.2,-74.5 1087.45,-74.5 1087.45,-55.25 1149.2,-55.25 1149.2,-74.5"/>
<text xml:space="preserve" text-anchor="middle" x="1118.32" y="-61" font-family="Helvetica,sans-Serif" font-size="10.00">type_traits</text>
</a>
</g>
</g>
<!-- Node17&#45;&gt;Node21 -->
<g id="edge30_Node000017_Node000021" class="edge">
<title>Node17&#45;&gt;Node21</title>
<g id="a_edge30_Node000017_Node000021"><a xlink:title=" ">
<path fill="none" stroke="#63b8ff" d="M814.06,-165.31C873.25,-145.96 1012.09,-100.59 1079.81,-78.46"/>
<polygon fill="#63b8ff" stroke="#63b8ff" points="1080.57,-81.89 1088.99,-75.46 1078.4,-75.24 1080.57,-81.89"/>
</a>
</g>
</g>
<!-- Node22 -->
<g id="Node000022" class="node">
<title>Node22</title>
<g id="a_Node000022"><a xlink:title=" ">
<polygon fill="#e0e0e0" stroke="#999999" points="1206.95,-74.5 1167.7,-74.5 1167.7,-55.25 1206.95,-55.25 1206.95,-74.5"/>
<text xml:space="preserve" text-anchor="middle" x="1187.32" y="-61" font-family="Helvetica,sans-Serif" font-size="10.00">utility</text>
</a>
</g>
</g>
<!-- Node17&#45;&gt;Node22 -->
<g id="edge31_Node000017_Node000022" class="edge">
<title>Node17&#45;&gt;Node22</title>
<g id="a_edge31_Node000017_Node000022"><a xlink:title=" ">
<path fill="none" stroke="#63b8ff" d="M821.26,-166.12C857.6,-157.44 916.09,-143.2 966.32,-129.75 1048.66,-107.7 1071.31,-100.05 1156.38,-75.06"/>
<polygon fill="#63b8ff" stroke="#63b8ff" points="1157.3,-78.44 1165.91,-72.26 1155.33,-71.72 1157.3,-78.44"/>
</a>
</g>
</g>
<!-- Node23 -->
<g id="Node000023" class="node">
<title>Node23</title>
<g id="a_Node000023"><a xlink:href="robin__hash_8h.html" target="_top" xlink:title=" ">
<polygon fill="white" stroke="#666666" points="867.07,-129.75 795.57,-129.75 795.57,-110.5 867.07,-110.5 867.07,-129.75"/>
<text xml:space="preserve" text-anchor="middle" x="831.32" y="-116.25" font-family="Helvetica,sans-Serif" font-size="10.00">robin_hash.h</text>
</a>
</g>
</g>
<!-- Node17&#45;&gt;Node23 -->
<g id="edge32_Node000017_Node000023" class="edge">
<title>Node17&#45;&gt;Node23</title>
<g id="a_edge32_Node000017_Node000023"><a xlink:title=" ">
<path fill="none" stroke="#63b8ff" d="M793.75,-165.58C799.9,-158.3 808.83,-147.73 816.45,-138.73"/>
<polygon fill="#63b8ff" stroke="#63b8ff" points="818.97,-141.16 822.75,-131.27 813.62,-136.64 818.97,-141.16"/>
</a>
</g>
</g>
<!-- Node23&#45;&gt;Node6 -->
<g id="edge36_Node000023_Node000006" class="edge">
<title>Node23&#45;&gt;Node6</title>
<g id="a_edge36_Node000023_Node000006"><a xlink:title=" ">
<path fill="none" stroke="#63b8ff" d="M867.54,-114.7C912.55,-108.4 985.51,-95.24 1002.32,-74.5 1012.06,-62.48 1012.09,-44.62 1010.09,-30.84"/>
<polygon fill="#63b8ff" stroke="#63b8ff" points="1013.54,-30.25 1008.19,-21.1 1006.67,-31.59 1013.54,-30.25"/>
</a>
</g>
</g>
<!-- Node23&#45;&gt;Node7 -->
<g id="edge37_Node000023_Node000007" class="edge">
<title>Node23&#45;&gt;Node7</title>
<g id="a_edge37_Node000023_Node000007"><a xlink:title=" ">
<path fill="none" stroke="#63b8ff" d="M795.5,-112.01C792.4,-111.47 789.31,-110.96 786.32,-110.5 647.91,-89.31 605.57,-120.51 473.32,-74.5 456.64,-68.7 417.55,-43.04 392.61,-26.06"/>
<polygon fill="#63b8ff" stroke="#63b8ff" points="394.67,-23.23 384.45,-20.47 390.72,-29.01 394.67,-23.23"/>
</a>
</g>
</g>
<!-- Node23&#45;&gt;Node9 -->
<g id="edge47_Node000023_Node000009" class="edge">
<title>Node23&#45;&gt;Node9</title>
<g id="a_edge47_Node000023_Node000009"><a xlink:title=" ">
<path fill="none" stroke="#63b8ff" d="M795.51,-111.91C792.41,-111.39 789.31,-110.91 786.32,-110.5 603.93,-85.29 552.01,-107.69 368.3,-74.72"/>
<polygon fill="#63b8ff" stroke="#63b8ff" points="369.11,-71.31 358.65,-72.96 367.85,-78.2 369.11,-71.31"/>
</a>
</g>
</g>
<!-- Node23&#45;&gt;Node20 -->
<g id="edge41_Node000023_Node000020" class="edge">
<title>Node23&#45;&gt;Node20</title>
<g id="a_edge41_Node000023_Node000020"><a xlink:title=" ">
<path fill="none" stroke="#63b8ff" d="M795.51,-111.97C792.4,-111.44 789.31,-110.94 786.32,-110.5 633.37,-87.93 593,-98.83 440.32,-74.5 439.31,-74.34 438.28,-74.17 437.25,-73.99"/>
<polygon fill="#63b8ff" stroke="#63b8ff" points="438.03,-70.58 427.55,-72.14 436.72,-77.45 438.03,-70.58"/>
</a>
</g>
</g>
<!-- Node23&#45;&gt;Node21 -->
<g id="edge45_Node000023_Node000021" class="edge">
<title>Node23&#45;&gt;Node21</title>
<g id="a_edge45_Node000023_Node000021"><a xlink:title=" ">
<path fill="none" stroke="#63b8ff" d="M867.42,-112.55C914.72,-103.92 1000.26,-88.24 1073.32,-74.5 1074.31,-74.31 1075.32,-74.12 1076.33,-73.93"/>
<polygon fill="#63b8ff" stroke="#63b8ff" points="1076.68,-77.43 1085.85,-72.12 1075.38,-70.55 1076.68,-77.43"/>
</a>
</g>
</g>
<!-- Node23&#45;&gt;Node22 -->
<g id="edge46_Node000023_Node000022" class="edge">
<title>Node23&#45;&gt;Node22</title>
<g id="a_edge46_Node000023_Node000022"><a xlink:title=" ">
<path fill="none" stroke="#63b8ff" d="M867.44,-116.02C926.1,-110.59 1045.82,-97.88 1156.44,-74.58"/>
<polygon fill="#63b8ff" stroke="#63b8ff" points="1156.93,-78.06 1165.98,-72.54 1155.46,-71.21 1156.93,-78.06"/>
</a>
</g>
</g>
<!-- Node23&#45;&gt;Node24 -->
<g id="edge33_Node000023_Node000024" class="edge">
<title>Node23&#45;&gt;Node24</title>
<g id="a_edge33_Node000023_Node000024"><a xlink:title=" ">
<path fill="none" stroke="#63b8ff" d="M867.24,-117.23C907.22,-113.69 972.49,-103.56 1020.32,-74.5 1038.84,-63.25 1054.33,-43.65 1064.11,-29.12"/>
<polygon fill="#63b8ff" stroke="#63b8ff" points="1066.92,-31.21 1069.36,-20.9 1061.03,-27.44 1066.92,-31.21"/>
</a>
</g>
</g>
<!-- Node25 -->
<g id="Node000025" class="node">
<title>Node25</title>
<g id="a_Node000025"><a xlink:title=" ">
<polygon fill="#e0e0e0" stroke="#999999" points="803.45,-74.5 755.2,-74.5 755.2,-55.25 803.45,-55.25 803.45,-74.5"/>
<text xml:space="preserve" text-anchor="middle" x="779.32" y="-61" font-family="Helvetica,sans-Serif" font-size="10.00">cassert</text>
</a>
</g>
</g>
<!-- Node23&#45;&gt;Node25 -->
<g id="edge34_Node000023_Node000025" class="edge">
<title>Node23&#45;&gt;Node25</title>
<g id="a_edge34_Node000023_Node000025"><a xlink:title=" ">
<path fill="none" stroke="#63b8ff" d="M822.73,-110.33C815.48,-102.9 804.87,-92.04 795.96,-82.91"/>
<polygon fill="#63b8ff" stroke="#63b8ff" points="798.64,-80.65 789.15,-75.94 793.63,-85.54 798.64,-80.65"/>
</a>
</g>
</g>
<!-- Node26 -->
<g id="Node000026" class="node">
<title>Node26</title>
<g id="a_Node000026"><a xlink:title=" ">
<polygon fill="#e0e0e0" stroke="#999999" points="792.82,-19.25 749.82,-19.25 749.82,0 792.82,0 792.82,-19.25"/>
<text xml:space="preserve" text-anchor="middle" x="771.32" y="-5.75" font-family="Helvetica,sans-Serif" font-size="10.00">cmath</text>
</a>
</g>
</g>
<!-- Node23&#45;&gt;Node26 -->
<g id="edge35_Node000023_Node000026" class="edge">
<title>Node23&#45;&gt;Node26</title>
<g id="a_edge35_Node000023_Node000026"><a xlink:title=" ">
<path fill="none" stroke="#63b8ff" d="M830.01,-110.37C827.82,-97.58 822.6,-73.36 812.32,-55.25 806.51,-45.01 797.95,-35.2 790.15,-27.39"/>
<polygon fill="#63b8ff" stroke="#63b8ff" points="792.61,-24.91 782.95,-20.56 787.79,-29.99 792.61,-24.91"/>
</a>
</g>
</g>
<!-- Node27 -->
<g id="Node000027" class="node">
<title>Node27</title>
<g id="a_Node000027"><a xlink:title=" ">
<polygon fill="#e0e0e0" stroke="#999999" points="993.32,-74.5 935.32,-74.5 935.32,-55.25 993.32,-55.25 993.32,-74.5"/>
<text xml:space="preserve" text-anchor="middle" x="964.32" y="-61" font-family="Helvetica,sans-Serif" font-size="10.00">exception</text>
</a>
</g>
</g>
<!-- Node23&#45;&gt;Node27 -->
<g id="edge38_Node000023_Node000027" class="edge">
<title>Node23&#45;&gt;Node27</title>
<g id="a_edge38_Node000023_Node000027"><a xlink:title=" ">
<path fill="none" stroke="#63b8ff" d="M853.88,-110.09C875.09,-101.6 907.09,-88.79 931.2,-79.14"/>
<polygon fill="#63b8ff" stroke="#63b8ff" points="932.26,-82.48 940.24,-75.52 929.66,-75.98 932.26,-82.48"/>
</a>
</g>
</g>
<!-- Node28 -->
<g id="Node000028" class="node">
<title>Node28</title>
<g id="a_Node000028"><a xlink:title=" ">
<polygon fill="#e0e0e0" stroke="#999999" points="864.32,-19.25 818.32,-19.25 818.32,0 864.32,0 864.32,-19.25"/>
<text xml:space="preserve" text-anchor="middle" x="841.32" y="-5.75" font-family="Helvetica,sans-Serif" font-size="10.00">iterator</text>
</a>
</g>
</g>
<!-- Node23&#45;&gt;Node28 -->
<g id="edge39_Node000023_Node000028" class="edge">
<title>Node23&#45;&gt;Node28</title>
<g id="a_edge39_Node000023_Node000028"><a xlink:title=" ">
<path fill="none" stroke="#63b8ff" d="M835.05,-110.09C838.5,-101.21 843.38,-87.18 845.32,-74.5 847.57,-59.84 846.38,-43.1 844.73,-30.43"/>
<polygon fill="#63b8ff" stroke="#63b8ff" points="848.24,-30.21 843.27,-20.85 841.32,-31.27 848.24,-30.21"/>
</a>
</g>
</g>
<!-- Node29 -->
<g id="Node000029" class="node">
<title>Node29</title>
<g id="a_Node000029"><a xlink:title=" ">
<polygon fill="#e0e0e0" stroke="#999999" points="924.95,-19.25 885.7,-19.25 885.7,0 924.95,0 924.95,-19.25"/>
<text xml:space="preserve" text-anchor="middle" x="905.32" y="-5.75" font-family="Helvetica,sans-Serif" font-size="10.00">limits</text>
</a>
</g>
</g>
<!-- Node23&#45;&gt;Node29 -->
<g id="edge40_Node000023_Node000029" class="edge">
<title>Node23&#45;&gt;Node29</title>
<g id="a_edge40_Node000023_Node000029"><a xlink:title=" ">
<path fill="none" stroke="#63b8ff" d="M837.38,-110.25C849.46,-92.52 876.8,-52.44 892.87,-28.88"/>
<polygon fill="#63b8ff" stroke="#63b8ff" points="895.59,-31.11 898.33,-20.88 889.8,-27.17 895.59,-31.11"/>
</a>
</g>
</g>
<!-- Node30 -->
<g id="Node000030" class="node">
<title>Node30</title>
<g id="a_Node000030"><a xlink:title=" ">
<polygon fill="#e0e0e0" stroke="#999999" points="516.32,-74.5 482.32,-74.5 482.32,-55.25 516.32,-55.25 516.32,-74.5"/>
<text xml:space="preserve" text-anchor="middle" x="499.32" y="-61" font-family="Helvetica,sans-Serif" font-size="10.00">new</text>
</a>
</g>
</g>
<!-- Node23&#45;&gt;Node30 -->
<g id="edge42_Node000023_Node000030" class="edge">
<title>Node23&#45;&gt;Node30</title>
<g id="a_edge42_Node000023_Node000030"><a xlink:title=" ">
<path fill="none" stroke="#63b8ff" d="M795.49,-112.09C792.39,-111.53 789.3,-111 786.32,-110.5 672.97,-91.68 642.8,-97.95 530.32,-74.5 529.34,-74.3 528.34,-74.08 527.34,-73.85"/>
<polygon fill="#63b8ff" stroke="#63b8ff" points="528.62,-70.56 518.07,-71.49 526.9,-77.35 528.62,-70.56"/>
</a>
</g>
</g>
<!-- Node31 -->
<g id="Node000031" class="node">
<title>Node31</title>
<g id="a_Node000031"><a xlink:title=" ">
<polygon fill="#e0e0e0" stroke="#999999" points="575.7,-19.25 516.95,-19.25 516.95,0 575.7,0 575.7,-19.25"/>
<text xml:space="preserve" text-anchor="middle" x="546.32" y="-5.75" font-family="Helvetica,sans-Serif" font-size="10.00">stdexcept</text>
</a>
</g>
</g>
<!-- Node23&#45;&gt;Node31 -->
<g id="edge43_Node000023_Node000031" class="edge">
<title>Node23&#45;&gt;Node31</title>
<g id="a_edge43_Node000023_Node000031"><a xlink:title=" ">
<path fill="none" stroke="#63b8ff" d="M795.48,-112.16C792.38,-111.59 789.3,-111.03 786.32,-110.5 737.11,-101.8 601.61,-107.77 564.32,-74.5 552.09,-63.58 547.89,-45.07 546.58,-30.77"/>
<polygon fill="#63b8ff" stroke="#63b8ff" points="550.09,-30.92 546.11,-21.1 543.1,-31.26 550.09,-30.92"/>
</a>
</g>
</g>
<!-- Node32 -->
<g id="Node000032" class="node">
<title>Node32</title>
<g id="a_Node000032"><a xlink:title=" ">
<polygon fill="#e0e0e0" stroke="#999999" points="609.82,-74.5 572.82,-74.5 572.82,-55.25 609.82,-55.25 609.82,-74.5"/>
<text xml:space="preserve" text-anchor="middle" x="591.32" y="-61" font-family="Helvetica,sans-Serif" font-size="10.00">tuple</text>
</a>
</g>
</g>
<!-- Node23&#45;&gt;Node32 -->
<g id="edge44_Node000023_Node000032" class="edge">
<title>Node23&#45;&gt;Node32</title>
<g id="a_edge44_Node000023_Node000032"><a xlink:title=" ">
<path fill="none" stroke="#63b8ff" d="M795.45,-111.99C748.21,-102.52 666.64,-85.94 621.22,-74.75"/>
<polygon fill="#63b8ff" stroke="#63b8ff" points="622.25,-71.4 611.7,-72.33 620.53,-78.18 622.25,-71.4"/>
</a>
</g>
</g>
<!-- Node33 -->
<g id="Node000033" class="node">
<title>Node33</title>
<g id="a_Node000033"><a xlink:href="robin__growth__policy_8h.html" target="_top" xlink:title=" ">
<polygon fill="white" stroke="#666666" points="736.82,-74.5 627.82,-74.5 627.82,-55.25 736.82,-55.25 736.82,-74.5"/>
<text xml:space="preserve" text-anchor="middle" x="682.32" y="-61" font-family="Helvetica,sans-Serif" font-size="10.00">robin_growth_policy.h</text>
</a>
</g>
</g>
<!-- Node23&#45;&gt;Node33 -->
<g id="edge48_Node000023_Node000033" class="edge">
<title>Node23&#45;&gt;Node33</title>
<g id="a_edge48_Node000023_Node000033"><a xlink:title=" ">
<path fill="none" stroke="#63b8ff" d="M806.04,-110.09C781.96,-101.49 745.46,-88.44 718.34,-78.75"/>
<polygon fill="#63b8ff" stroke="#63b8ff" points="719.74,-75.53 709.15,-75.46 717.38,-82.12 719.74,-75.53"/>
</a>
</g>
</g>
<!-- Node33&#45;&gt;Node5 -->
<g id="edge50_Node000033_Node000005" class="edge">
<title>Node33&#45;&gt;Node5</title>
<g id="a_edge50_Node000033_Node000005"><a xlink:title=" ">
<path fill="none" stroke="#63b8ff" d="M627.37,-56.19C624.65,-55.86 621.95,-55.54 619.32,-55.25 436.36,-34.78 215.8,-18.37 136.52,-12.73"/>
<polygon fill="#63b8ff" stroke="#63b8ff" points="137.18,-9.27 126.96,-12.05 136.69,-16.25 137.18,-9.27"/>
</a>
</g>
</g>
<!-- Node33&#45;&gt;Node6 -->
<g id="edge53_Node000033_Node000006" class="edge">
<title>Node33&#45;&gt;Node6</title>
<g id="a_edge53_Node000033_Node000006"><a xlink:title=" ">
<path fill="none" stroke="#63b8ff" d="M737.11,-54.84C803.49,-43.9 913.39,-25.78 969.68,-16.5"/>
<polygon fill="#63b8ff" stroke="#63b8ff" points="970.05,-19.99 979.35,-14.91 968.91,-13.08 970.05,-19.99"/>
</a>
</g>
</g>
<!-- Node33&#45;&gt;Node7 -->
<g id="edge54_Node000033_Node000007" class="edge">
<title>Node33&#45;&gt;Node7</title>
<g id="a_edge54_Node000033_Node000007"><a xlink:title=" ">
<path fill="none" stroke="#63b8ff" d="M629.04,-54.78C564.67,-43.79 458.29,-25.64 404.18,-16.4"/>
<polygon fill="#63b8ff" stroke="#63b8ff" points="405.09,-13.01 394.65,-14.78 403.92,-19.91 405.09,-13.01"/>
</a>
</g>
</g>
<!-- Node33&#45;&gt;Node24 -->
<g id="edge49_Node000033_Node000024" class="edge">
<title>Node33&#45;&gt;Node24</title>
<g id="a_edge49_Node000033_Node000024"><a xlink:title=" ">
<path fill="none" stroke="#63b8ff" d="M737.13,-56.45C740.24,-56.04 743.32,-55.64 746.32,-55.25 872.46,-38.98 907.67,-41.94 1036.05,-19.48"/>
<polygon fill="#63b8ff" stroke="#63b8ff" points="1036.37,-22.98 1045.61,-17.79 1035.16,-16.09 1036.37,-22.98"/>
</a>
</g>
</g>
<!-- Node33&#45;&gt;Node26 -->
<g id="edge52_Node000033_Node000026" class="edge">
<title>Node33&#45;&gt;Node26</title>
<g id="a_edge52_Node000033_Node000026"><a xlink:title=" ">
<path fill="none" stroke="#63b8ff" d="M697.42,-54.84C710.84,-46.81 730.73,-34.91 746.49,-25.48"/>
<polygon fill="#63b8ff" stroke="#63b8ff" points="748.07,-28.62 754.85,-20.48 744.47,-22.61 748.07,-28.62"/>
</a>
</g>
</g>
<!-- Node33&#45;&gt;Node28 -->
<g id="edge55_Node000033_Node000028" class="edge">
<title>Node33&#45;&gt;Node28</title>
<g id="a_edge55_Node000033_Node000028"><a xlink:title=" ">
<path fill="none" stroke="#63b8ff" d="M709.29,-54.84C736.32,-45.79 778,-31.83 807.29,-22.02"/>
<polygon fill="#63b8ff" stroke="#63b8ff" points="808.04,-25.46 816.41,-18.97 805.82,-18.82 808.04,-25.46"/>
</a>
</g>
</g>
<!-- Node33&#45;&gt;Node29 -->
<g id="edge56_Node000033_Node000029" class="edge">
<title>Node33&#45;&gt;Node29</title>
<g id="a_edge56_Node000033_Node000029"><a xlink:title=" ">
<path fill="none" stroke="#63b8ff" d="M723.03,-54.78C761.76,-46.03 821.64,-32.25 873.32,-19.25 873.69,-19.16 874.06,-19.06 874.43,-18.97"/>
<polygon fill="#63b8ff" stroke="#63b8ff" points="875.12,-22.41 883.91,-16.49 873.35,-15.63 875.12,-22.41"/>
</a>
</g>
</g>
<!-- Node33&#45;&gt;Node31 -->
<g id="edge58_Node000033_Node000031" class="edge">
<title>Node33&#45;&gt;Node31</title>
<g id="a_edge58_Node000033_Node000031"><a xlink:title=" ">
<path fill="none" stroke="#63b8ff" d="M659.25,-54.84C637.56,-46.35 604.84,-33.54 580.19,-23.89"/>
<polygon fill="#63b8ff" stroke="#63b8ff" points="581.5,-20.64 570.91,-20.25 578.95,-27.16 581.5,-20.64"/>
</a>
</g>
</g>
<!-- Node34 -->
<g id="Node000034" class="node">
<title>Node34</title>
<g id="a_Node000034"><a xlink:title=" ">
<polygon fill="#e0e0e0" stroke="#999999" points="665.57,-19.25 621.07,-19.25 621.07,0 665.57,0 665.57,-19.25"/>
<text xml:space="preserve" text-anchor="middle" x="643.32" y="-5.75" font-family="Helvetica,sans-Serif" font-size="10.00">climits</text>
</a>
</g>
</g>
<!-- Node33&#45;&gt;Node34 -->
<g id="edge51_Node000033_Node000034" class="edge">
<title>Node33&#45;&gt;Node34</title>
<g id="a_edge51_Node000033_Node000034"><a xlink:title=" ">
<path fill="none" stroke="#63b8ff" d="M675.88,-55.08C670.66,-47.96 663.13,-37.68 656.63,-28.8"/>
<polygon fill="#63b8ff" stroke="#63b8ff" points="659.53,-26.83 650.79,-20.83 653.88,-30.97 659.53,-26.83"/>
</a>
</g>
</g>
<!-- Node35 -->
<g id="Node000035" class="node">
<title>Node35</title>
<g id="a_Node000035"><a xlink:title=" ">
<polygon fill="#e0e0e0" stroke="#999999" points="718.7,-19.25 683.95,-19.25 683.95,0 718.7,0 718.7,-19.25"/>
<text xml:space="preserve" text-anchor="middle" x="701.32" y="-5.75" font-family="Helvetica,sans-Serif" font-size="10.00">ratio</text>
</a>
</g>
</g>
<!-- Node33&#45;&gt;Node35 -->
<g id="edge57_Node000033_Node000035" class="edge">
<title>Node33&#45;&gt;Node35</title>
<g id="a_edge57_Node000033_Node000035"><a xlink:title=" ">
<path fill="none" stroke="#63b8ff" d="M685.46,-55.08C687.86,-48.34 691.28,-38.77 694.32,-30.24"/>
<polygon fill="#63b8ff" stroke="#63b8ff" points="697.54,-31.63 697.61,-21.03 690.95,-29.28 697.54,-31.63"/>
</a>
</g>
</g>
</g>
</svg>

<g id="navigator" transform="translate(0 0)" fill="#404254">
  <rect fill="#f2f5e9" fill-opacity="0.5" stroke="#606060" stroke-width=".5" x="0" y="0" width="60" height="60"/>
  <use id="zoomplus" xlink:href="#zoomPlus" x="17" y="9" onmousedown="handleZoom(evt,'in')"/>
  <use id="zoomminus" xlink:href="#zoomMin" x="42" y="9" onmousedown="handleZoom(evt,'out')"/>
  <use id="reset" xlink:href="#resetDef" x="30" y="36" onmousedown="handleReset()"/>
   <use id="arrowup" xlink:href="#arrowUp" x="0" y="0" onmousedown="handlePan(0,-1)"/>
  <use id="arrowright" xlink:href="#arrowRight" x="0" y="0" onmousedown="handlePan(1,0)"/>
  <use id="arrowdown" xlink:href="#arrowDown" x="0" y="0" onmousedown="handlePan(0,1)"/>
  <use id="arrowleft" xlink:href="#arrowLeft" x="0" y="0" onmousedown="handlePan(-1,0)"/>
</g>
<svg viewBox="0 0 15 15" width="100%" height="30px" preserveAspectRatio="xMaxYMin meet">
 <g id="arrow_out" transform="scale(0.3 0.3)">
  <a xlink:href="AdiosWrapper_8C__incl_org.svg" target="_base">
   <rect id="button" ry="5" rx="5" y="6" x="6" height="38" width="38"
        fill="#f2f5e9" fill-opacity="0.5" stroke="#606060" stroke-width="1.0"/>
   <path id="arrow"
     d="M 11.500037,31.436501 C 11.940474,20.09759 22.043105,11.32322 32.158766,21.979434 L 37.068811,17.246167 C 37.068811,17.246167 37.088388,32 37.088388,32 L 22.160133,31.978069 C 22.160133,31.978069 26.997745,27.140456 26.997745,27.140456 C 18.528582,18.264221 13.291696,25.230495 11.500037,31.436501 z"
     style="fill:#404040;"/>
  </a>
 </g>
</svg>

<style type='text/css'>
<![CDATA[
[data-mouse-over-selected='false'] { opacity: 0.7; }
[data-mouse-over-selected='true']  { opacity: 1.0; }
]]>
</style>
<script type="application/ecmascript"><![CDATA[
document.addEventListener('DOMContentLoaded', (event) => {
  highlightEdges();
  highlightAdjacentNodes();
});
]]></script>
</svg>
