<?xml version="1.0" encoding="UTF-8" standalone="no"?>
<!DOCTYPE svg PUBLIC "-//W3C//DTD SVG 1.1//EN"
 "http://www.w3.org/Graphics/SVG/1.1/DTD/svg11.dtd">
<!-- Generated by graphviz version 2.47.1 (20210417.1919)
 -->
<!-- Title: src/visualization/cgns/CatalystCGNSMeshBase.h Pages: 1 -->
<svg width="784pt" height="307pt"
 viewBox="0.00 0.00 783.50 307.00" xmlns="http://www.w3.org/2000/svg" xmlns:xlink="http://www.w3.org/1999/xlink">
<g id="graph0" class="graph" transform="scale(1 1) rotate(0) translate(4 303)">
<title>src/visualization/cgns/CatalystCGNSMeshBase.h</title>
<polygon fill="white" stroke="transparent" points="-4,4 -4,-303 779.5,-303 779.5,4 -4,4"/>
<!-- Node1 -->
<g id="node1" class="node">
<title>Node1</title>
<g id="a_node1"><a xlink:title=" ">
<polygon fill="#bfbfbf" stroke="black" points="67,-268.5 67,-298.5 207,-298.5 207,-268.5 67,-268.5"/>
<text text-anchor="start" x="75" y="-286.5" font-family="Helvetica,sans-Serif" font-size="10.00">src/visualization/cgns</text>
<text text-anchor="middle" x="137" y="-275.5" font-family="Helvetica,sans-Serif" font-size="10.00">/CatalystCGNSMeshBase.h</text>
</a>
</g>
</g>
<!-- Node2 -->
<g id="node2" class="node">
<title>Node2</title>
<g id="a_node2"><a xlink:href="CatalystCGNSMesh_8h.html" target="_top" xlink:title=" ">
<polygon fill="white" stroke="black" points="0,-67.5 0,-97.5 142,-97.5 142,-67.5 0,-67.5"/>
<text text-anchor="start" x="8" y="-85.5" font-family="Helvetica,sans-Serif" font-size="10.00">src/visualization/catalyst</text>
<text text-anchor="middle" x="71" y="-74.5" font-family="Helvetica,sans-Serif" font-size="10.00">/cgns/CatalystCGNSMesh.h</text>
</a>
</g>
</g>
<!-- Node1&#45;&gt;Node2 -->
<g id="edge1" class="edge">
<title>Node1&#45;&gt;Node2</title>
<path fill="none" stroke="midnightblue" d="M129.05,-258.53C115.16,-216.65 86.89,-131.4 75.7,-97.68"/>
<polygon fill="midnightblue" stroke="midnightblue" points="125.78,-259.8 132.25,-268.19 132.43,-257.6 125.78,-259.8"/>
</g>
<!-- Node3 -->
<g id="node3" class="node">
<title>Node3</title>
<g id="a_node3"><a xlink:href="CatalystManagerBase_8h.html" target="_top" xlink:title=" ">
<polygon fill="white" stroke="black" points="141.5,-201.5 141.5,-231.5 266.5,-231.5 266.5,-201.5 141.5,-201.5"/>
<text text-anchor="start" x="149.5" y="-219.5" font-family="Helvetica,sans-Serif" font-size="10.00">src/visualization/utils</text>
<text text-anchor="middle" x="204" y="-208.5" font-family="Helvetica,sans-Serif" font-size="10.00">/CatalystManagerBase.h</text>
</a>
</g>
</g>
<!-- Node1&#45;&gt;Node3 -->
<g id="edge2" class="edge">
<title>Node1&#45;&gt;Node3</title>
<path fill="none" stroke="midnightblue" d="M158.84,-261.31C168.89,-251.56 180.54,-240.26 189.49,-231.58"/>
<polygon fill="midnightblue" stroke="midnightblue" points="156.28,-258.92 151.54,-268.4 161.15,-263.94 156.28,-258.92"/>
</g>
<!-- Node4 -->
<g id="node4" class="node">
<title>Node4</title>
<g id="a_node4"><a xlink:href="CatalystManager_8h.html" target="_top" xlink:title=" ">
<polygon fill="white" stroke="black" points="133,-134.5 133,-164.5 275,-164.5 275,-134.5 133,-134.5"/>
<text text-anchor="start" x="141" y="-152.5" font-family="Helvetica,sans-Serif" font-size="10.00">src/visualization/catalyst</text>
<text text-anchor="middle" x="204" y="-141.5" font-family="Helvetica,sans-Serif" font-size="10.00">/manager/CatalystManager.h</text>
</a>
</g>
</g>
<!-- Node3&#45;&gt;Node4 -->
<g id="edge3" class="edge">
<title>Node3&#45;&gt;Node4</title>
<path fill="none" stroke="midnightblue" d="M204,-191.11C204,-182.15 204,-172.32 204,-164.58"/>
<polygon fill="midnightblue" stroke="midnightblue" points="200.5,-191.4 204,-201.4 207.5,-191.4 200.5,-191.4"/>
</g>
<!-- Node6 -->
<g id="node6" class="node">
<title>Node6</title>
<g id="a_node6"><a xlink:href="Iovs__Utils_8h.html" target="_top" xlink:title=" ">
<polygon fill="white" stroke="black" points="423,-134.5 423,-164.5 531,-164.5 531,-134.5 423,-134.5"/>
<text text-anchor="start" x="431" y="-152.5" font-family="Helvetica,sans-Serif" font-size="10.00">src/visualization/utils</text>
<text text-anchor="middle" x="477" y="-141.5" font-family="Helvetica,sans-Serif" font-size="10.00">/Iovs_Utils.h</text>
</a>
</g>
</g>
<!-- Node3&#45;&gt;Node6 -->
<g id="edge6" class="edge">
<title>Node3&#45;&gt;Node6</title>
<path fill="none" stroke="midnightblue" d="M272.89,-199.1C319.36,-188.03 379.82,-173.64 422.84,-163.39"/>
<polygon fill="midnightblue" stroke="midnightblue" points="271.82,-195.75 262.9,-201.48 273.44,-202.56 271.82,-195.75"/>
</g>
<!-- Node4&#45;&gt;Node2 -->
<g id="edge4" class="edge">
<title>Node4&#45;&gt;Node2</title>
<path fill="none" stroke="midnightblue" d="M166.13,-129.99C145.05,-119.69 119.22,-107.07 99.8,-97.58"/>
<polygon fill="midnightblue" stroke="midnightblue" points="164.62,-133.15 175.14,-134.4 167.69,-126.86 164.62,-133.15"/>
</g>
<!-- Node5 -->
<g id="node5" class="node">
<title>Node5</title>
<g id="a_node5"><a xlink:href="CatalystExodusMesh_8h.html" target="_top" xlink:title=" ">
<polygon fill="white" stroke="black" points="160,-67.5 160,-97.5 316,-97.5 316,-67.5 160,-67.5"/>
<text text-anchor="start" x="168" y="-85.5" font-family="Helvetica,sans-Serif" font-size="10.00">src/visualization/catalyst</text>
<text text-anchor="middle" x="238" y="-74.5" font-family="Helvetica,sans-Serif" font-size="10.00">/exodus/CatalystExodusMesh.h</text>
</a>
</g>
</g>
<!-- Node4&#45;&gt;Node5 -->
<g id="edge5" class="edge">
<title>Node4&#45;&gt;Node5</title>
<path fill="none" stroke="midnightblue" d="M216.14,-125.28C220.99,-116.02 226.41,-105.66 230.64,-97.58"/>
<polygon fill="midnightblue" stroke="midnightblue" points="212.91,-123.91 211.38,-134.4 219.11,-127.16 212.91,-123.91"/>
</g>
<!-- Node7 -->
<g id="node7" class="node">
<title>Node7</title>
<g id="a_node7"><a xlink:href="Iovs__cgns__DatabaseIO_8h.html" target="_top" xlink:title=" ">
<polygon fill="white" stroke="black" points="334.5,-67.5 334.5,-97.5 465.5,-97.5 465.5,-67.5 334.5,-67.5"/>
<text text-anchor="start" x="342.5" y="-85.5" font-family="Helvetica,sans-Serif" font-size="10.00">src/visualization/cgns</text>
<text text-anchor="middle" x="400" y="-74.5" font-family="Helvetica,sans-Serif" font-size="10.00">/Iovs_cgns_DatabaseIO.h</text>
</a>
</g>
</g>
<!-- Node6&#45;&gt;Node7 -->
<g id="edge7" class="edge">
<title>Node6&#45;&gt;Node7</title>
<path fill="none" stroke="midnightblue" d="M452.58,-127.88C440.88,-118.01 427.16,-106.43 416.68,-97.58"/>
<polygon fill="midnightblue" stroke="midnightblue" points="450.39,-130.62 460.29,-134.4 454.91,-125.27 450.39,-130.62"/>
</g>
<!-- Node10 -->
<g id="node10" class="node">
<title>Node10</title>
<g id="a_node10"><a xlink:href="Iovs__exodus__DatabaseIO_8h.html" target="_top" xlink:title=" ">
<polygon fill="white" stroke="black" points="483.5,-67.5 483.5,-97.5 624.5,-97.5 624.5,-67.5 483.5,-67.5"/>
<text text-anchor="start" x="491.5" y="-85.5" font-family="Helvetica,sans-Serif" font-size="10.00">src/visualization/exodus</text>
<text text-anchor="middle" x="554" y="-74.5" font-family="Helvetica,sans-Serif" font-size="10.00">/Iovs_exodus_DatabaseIO.h</text>
</a>
</g>
</g>
<!-- Node6&#45;&gt;Node10 -->
<g id="edge10" class="edge">
<title>Node6&#45;&gt;Node10</title>
<path fill="none" stroke="midnightblue" d="M501.42,-127.88C513.12,-118.01 526.84,-106.43 537.32,-97.58"/>
<polygon fill="midnightblue" stroke="midnightblue" points="499.09,-125.27 493.71,-134.4 503.61,-130.62 499.09,-125.27"/>
</g>
<!-- Node13 -->
<g id="node13" class="node">
<title>Node13</title>
<g id="a_node13"><a xlink:href="Iovs__Utils_8C.html" target="_top" xlink:title=" ">
<polygon fill="white" stroke="black" points="643,-67.5 643,-97.5 751,-97.5 751,-67.5 643,-67.5"/>
<text text-anchor="start" x="651" y="-85.5" font-family="Helvetica,sans-Serif" font-size="10.00">src/visualization/utils</text>
<text text-anchor="middle" x="697" y="-74.5" font-family="Helvetica,sans-Serif" font-size="10.00">/Iovs_Utils.C</text>
</a>
</g>
</g>
<!-- Node6&#45;&gt;Node13 -->
<g id="edge13" class="edge">
<title>Node6&#45;&gt;Node13</title>
<path fill="none" stroke="midnightblue" d="M534.27,-131.58C570,-121.02 615.46,-107.59 649.24,-97.61"/>
<polygon fill="midnightblue" stroke="midnightblue" points="533.06,-128.29 524.47,-134.48 535.05,-135 533.06,-128.29"/>
</g>
<!-- Node8 -->
<g id="node8" class="node">
<title>Node8</title>
<g id="a_node8"><a xlink:href="Iovs__cgns__DatabaseIO_8C.html" target="_top" xlink:title=" ">
<polygon fill="white" stroke="black" points="188.5,-0.5 188.5,-30.5 321.5,-30.5 321.5,-0.5 188.5,-0.5"/>
<text text-anchor="start" x="196.5" y="-18.5" font-family="Helvetica,sans-Serif" font-size="10.00">src/visualization/cgns</text>
<text text-anchor="middle" x="255" y="-7.5" font-family="Helvetica,sans-Serif" font-size="10.00">/Iovs_cgns_DatabaseIO.C</text>
</a>
</g>
</g>
<!-- Node7&#45;&gt;Node8 -->
<g id="edge8" class="edge">
<title>Node7&#45;&gt;Node8</title>
<path fill="none" stroke="midnightblue" d="M359.33,-63.27C336.24,-52.92 307.76,-40.15 286.4,-30.58"/>
<polygon fill="midnightblue" stroke="midnightblue" points="357.98,-66.5 368.54,-67.4 360.84,-60.11 357.98,-66.5"/>
</g>
<!-- Node9 -->
<g id="node9" class="node">
<title>Node9</title>
<g id="a_node9"><a xlink:href="Iovs__cgns__IOFactory_8C.html" target="_top" xlink:title=" ">
<polygon fill="white" stroke="black" points="340,-0.5 340,-30.5 462,-30.5 462,-0.5 340,-0.5"/>
<text text-anchor="start" x="348" y="-18.5" font-family="Helvetica,sans-Serif" font-size="10.00">src/visualization/cgns</text>
<text text-anchor="middle" x="401" y="-7.5" font-family="Helvetica,sans-Serif" font-size="10.00">/Iovs_cgns_IOFactory.C</text>
</a>
</g>
</g>
<!-- Node7&#45;&gt;Node9 -->
<g id="edge9" class="edge">
<title>Node7&#45;&gt;Node9</title>
<path fill="none" stroke="midnightblue" d="M400.38,-57.11C400.51,-48.15 400.66,-38.32 400.78,-30.58"/>
<polygon fill="midnightblue" stroke="midnightblue" points="396.87,-57.34 400.22,-67.4 403.87,-57.45 396.87,-57.34"/>
</g>
<!-- Node11 -->
<g id="node11" class="node">
<title>Node11</title>
<g id="a_node11"><a xlink:href="Iovs__exodus__DatabaseIO_8C.html" target="_top" xlink:title=" ">
<polygon fill="white" stroke="black" points="481.5,-0.5 481.5,-30.5 624.5,-30.5 624.5,-0.5 481.5,-0.5"/>
<text text-anchor="start" x="489.5" y="-18.5" font-family="Helvetica,sans-Serif" font-size="10.00">src/visualization/exodus</text>
<text text-anchor="middle" x="553" y="-7.5" font-family="Helvetica,sans-Serif" font-size="10.00">/Iovs_exodus_DatabaseIO.C</text>
</a>
</g>
</g>
<!-- Node10&#45;&gt;Node11 -->
<g id="edge11" class="edge">
<title>Node10&#45;&gt;Node11</title>
<path fill="none" stroke="midnightblue" d="M553.62,-57.11C553.49,-48.15 553.34,-38.32 553.22,-30.58"/>
<polygon fill="midnightblue" stroke="midnightblue" points="550.13,-57.45 553.78,-67.4 557.13,-57.34 550.13,-57.45"/>
</g>
<!-- Node12 -->
<g id="node12" class="node">
<title>Node12</title>
<g id="a_node12"><a xlink:href="Iovs__exodus__IOFactory_8C.html" target="_top" xlink:title=" ">
<polygon fill="white" stroke="black" points="642.5,-0.5 642.5,-30.5 775.5,-30.5 775.5,-0.5 642.5,-0.5"/>
<text text-anchor="start" x="650.5" y="-18.5" font-family="Helvetica,sans-Serif" font-size="10.00">src/visualization/exodus</text>
<text text-anchor="middle" x="709" y="-7.5" font-family="Helvetica,sans-Serif" font-size="10.00">/Iovs_exodus_IOFactory.C</text>
</a>
</g>
</g>
<!-- Node10&#45;&gt;Node12 -->
<g id="edge12" class="edge">
<title>Node10&#45;&gt;Node12</title>
<path fill="none" stroke="midnightblue" d="M597.15,-63.41C621.89,-53.03 652.5,-40.2 675.43,-30.58"/>
<polygon fill="midnightblue" stroke="midnightblue" points="595.5,-60.3 587.63,-67.4 598.21,-66.76 595.5,-60.3"/>
</g>
</g>
</svg>
