<?xml version="1.0" encoding="UTF-8" standalone="no"?>
<!DOCTYPE svg PUBLIC "-//W3C//DTD SVG 1.1//EN"
 "http://www.w3.org/Graphics/SVG/1.1/DTD/svg11.dtd">
<!-- Generated by graphviz version 2.50.0 (20211204.2007)
 -->
<!-- Title: src/visualization/cgns/CatalystCGNSMeshBase.h Pages: 1 -->
<svg width="763pt" height="240pt"
 viewBox="0.00 0.00 763.00 240.00" xmlns="http://www.w3.org/2000/svg" xmlns:xlink="http://www.w3.org/1999/xlink">
<g id="graph0" class="graph" transform="scale(1 1) rotate(0) translate(4 236)">
<title>src/visualization/cgns/CatalystCGNSMeshBase.h</title>
<polygon fill="white" stroke="transparent" points="-4,4 -4,-236 759,-236 759,4 -4,4"/>
<!-- Node1 -->
<g id="node1" class="node">
<title>Node1</title>
<g id="a_node1"><a xlink:title=" ">
<polygon fill="#bfbfbf" stroke="black" points="67,-201.5 67,-231.5 207,-231.5 207,-201.5 67,-201.5"/>
<text text-anchor="start" x="75" y="-219.5" font-family="Helvetica,sans-Serif" font-size="10.00">src/visualization/cgns</text>
<text text-anchor="middle" x="137" y="-208.5" font-family="Helvetica,sans-Serif" font-size="10.00">/CatalystCGNSMeshBase.h</text>
</a>
</g>
</g>
<!-- Node2 -->
<g id="node2" class="node">
<title>Node2</title>
<g id="a_node2"><a xlink:href="CatalystCGNSMesh_8h.html" target="_top" xlink:title=" ">
<polygon fill="white" stroke="black" points="0,-0.5 0,-30.5 142,-30.5 142,-0.5 0,-0.5"/>
<text text-anchor="start" x="8" y="-18.5" font-family="Helvetica,sans-Serif" font-size="10.00">src/visualization/catalyst</text>
<text text-anchor="middle" x="71" y="-7.5" font-family="Helvetica,sans-Serif" font-size="10.00">/cgns/CatalystCGNSMesh.h</text>
</a>
</g>
</g>
<!-- Node1&#45;&gt;Node2 -->
<g id="edge1" class="edge">
<title>Node1&#45;&gt;Node2</title>
<path fill="none" stroke="midnightblue" d="M129.05,-191.53C115.16,-149.65 86.89,-64.4 75.7,-30.68"/>
<polygon fill="midnightblue" stroke="midnightblue" points="125.78,-192.8 132.25,-201.19 132.43,-190.6 125.78,-192.8"/>
</g>
<!-- Node3 -->
<g id="node3" class="node">
<title>Node3</title>
<g id="a_node3"><a xlink:href="CatalystManagerBase_8h.html" target="_top" xlink:title=" ">
<polygon fill="white" stroke="black" points="141.5,-134.5 141.5,-164.5 266.5,-164.5 266.5,-134.5 141.5,-134.5"/>
<text text-anchor="start" x="149.5" y="-152.5" font-family="Helvetica,sans-Serif" font-size="10.00">src/visualization/utils</text>
<text text-anchor="middle" x="204" y="-141.5" font-family="Helvetica,sans-Serif" font-size="10.00">/CatalystManagerBase.h</text>
</a>
</g>
</g>
<!-- Node1&#45;&gt;Node3 -->
<g id="edge2" class="edge">
<title>Node1&#45;&gt;Node3</title>
<path fill="none" stroke="midnightblue" d="M158.84,-194.31C168.89,-184.56 180.54,-173.26 189.49,-164.58"/>
<polygon fill="midnightblue" stroke="midnightblue" points="156.28,-191.92 151.54,-201.4 161.15,-196.94 156.28,-191.92"/>
</g>
<!-- Node4 -->
<g id="node4" class="node">
<title>Node4</title>
<g id="a_node4"><a xlink:href="CatalystManager_8h.html" target="_top" xlink:title=" ">
<polygon fill="white" stroke="black" points="133,-67.5 133,-97.5 275,-97.5 275,-67.5 133,-67.5"/>
<text text-anchor="start" x="141" y="-85.5" font-family="Helvetica,sans-Serif" font-size="10.00">src/visualization/catalyst</text>
<text text-anchor="middle" x="204" y="-74.5" font-family="Helvetica,sans-Serif" font-size="10.00">/manager/CatalystManager.h</text>
</a>
</g>
</g>
<!-- Node3&#45;&gt;Node4 -->
<g id="edge3" class="edge">
<title>Node3&#45;&gt;Node4</title>
<path fill="none" stroke="midnightblue" d="M204,-124.11C204,-115.15 204,-105.32 204,-97.58"/>
<polygon fill="midnightblue" stroke="midnightblue" points="200.5,-124.4 204,-134.4 207.5,-124.4 200.5,-124.4"/>
</g>
<!-- Node6 -->
<g id="node6" class="node">
<title>Node6</title>
<g id="a_node6"><a xlink:href="Iovs__Utils_8h.html" target="_top" xlink:title=" ">
<polygon fill="white" stroke="black" points="425,-67.5 425,-97.5 533,-97.5 533,-67.5 425,-67.5"/>
<text text-anchor="start" x="433" y="-85.5" font-family="Helvetica,sans-Serif" font-size="10.00">src/visualization/utils</text>
<text text-anchor="middle" x="479" y="-74.5" font-family="Helvetica,sans-Serif" font-size="10.00">/Iovs_Utils.h</text>
</a>
</g>
</g>
<!-- Node3&#45;&gt;Node6 -->
<g id="edge6" class="edge">
<title>Node3&#45;&gt;Node6</title>
<path fill="none" stroke="midnightblue" d="M273.14,-132.16C320.14,-121.05 381.45,-106.56 424.9,-96.29"/>
<polygon fill="midnightblue" stroke="midnightblue" points="272.26,-128.77 263.33,-134.48 273.87,-135.58 272.26,-128.77"/>
</g>
<!-- Node4&#45;&gt;Node2 -->
<g id="edge4" class="edge">
<title>Node4&#45;&gt;Node2</title>
<path fill="none" stroke="midnightblue" d="M166.13,-62.99C145.05,-52.69 119.22,-40.07 99.8,-30.58"/>
<polygon fill="midnightblue" stroke="midnightblue" points="164.62,-66.15 175.14,-67.4 167.69,-59.86 164.62,-66.15"/>
</g>
<!-- Node5 -->
<g id="node5" class="node">
<title>Node5</title>
<g id="a_node5"><a xlink:href="CatalystExodusMesh_8h.html" target="_top" xlink:title=" ">
<polygon fill="white" stroke="black" points="160,-0.5 160,-30.5 316,-30.5 316,-0.5 160,-0.5"/>
<text text-anchor="start" x="168" y="-18.5" font-family="Helvetica,sans-Serif" font-size="10.00">src/visualization/catalyst</text>
<text text-anchor="middle" x="238" y="-7.5" font-family="Helvetica,sans-Serif" font-size="10.00">/exodus/CatalystExodusMesh.h</text>
</a>
</g>
</g>
<!-- Node4&#45;&gt;Node5 -->
<g id="edge5" class="edge">
<title>Node4&#45;&gt;Node5</title>
<path fill="none" stroke="midnightblue" d="M216.14,-58.28C220.99,-49.02 226.41,-38.66 230.64,-30.58"/>
<polygon fill="midnightblue" stroke="midnightblue" points="212.91,-56.91 211.38,-67.4 219.11,-60.16 212.91,-56.91"/>
</g>
<!-- Node7 -->
<g id="node7" class="node">
<title>Node7</title>
<g id="a_node7"><a xlink:href="Iovs__cgns__DatabaseIO_8C.html" target="_top" xlink:title=" ">
<polygon fill="white" stroke="black" points="334.5,-0.5 334.5,-30.5 467.5,-30.5 467.5,-0.5 334.5,-0.5"/>
<text text-anchor="start" x="342.5" y="-18.5" font-family="Helvetica,sans-Serif" font-size="10.00">src/visualization/cgns</text>
<text text-anchor="middle" x="401" y="-7.5" font-family="Helvetica,sans-Serif" font-size="10.00">/Iovs_cgns_DatabaseIO.C</text>
</a>
</g>
</g>
<!-- Node6&#45;&gt;Node7 -->
<g id="edge7" class="edge">
<title>Node6&#45;&gt;Node7</title>
<path fill="none" stroke="midnightblue" d="M454.26,-60.88C442.41,-51.01 428.52,-39.43 417.89,-30.58"/>
<polygon fill="midnightblue" stroke="midnightblue" points="452.15,-63.68 462.08,-67.4 456.63,-58.31 452.15,-63.68"/>
</g>
<!-- Node8 -->
<g id="node8" class="node">
<title>Node8</title>
<g id="a_node8"><a xlink:href="Iovs__exodus__DatabaseIO_8C.html" target="_top" xlink:title=" ">
<polygon fill="white" stroke="black" points="485.5,-0.5 485.5,-30.5 628.5,-30.5 628.5,-0.5 485.5,-0.5"/>
<text text-anchor="start" x="493.5" y="-18.5" font-family="Helvetica,sans-Serif" font-size="10.00">src/visualization/exodus</text>
<text text-anchor="middle" x="557" y="-7.5" font-family="Helvetica,sans-Serif" font-size="10.00">/Iovs_exodus_DatabaseIO.C</text>
</a>
</g>
</g>
<!-- Node6&#45;&gt;Node8 -->
<g id="edge8" class="edge">
<title>Node6&#45;&gt;Node8</title>
<path fill="none" stroke="midnightblue" d="M503.74,-60.88C515.59,-51.01 529.48,-39.43 540.11,-30.58"/>
<polygon fill="midnightblue" stroke="midnightblue" points="501.37,-58.31 495.92,-67.4 505.85,-63.68 501.37,-58.31"/>
</g>
<!-- Node9 -->
<g id="node9" class="node">
<title>Node9</title>
<g id="a_node9"><a xlink:href="Iovs__Utils_8C.html" target="_top" xlink:title=" ">
<polygon fill="white" stroke="black" points="647,-0.5 647,-30.5 755,-30.5 755,-0.5 647,-0.5"/>
<text text-anchor="start" x="655" y="-18.5" font-family="Helvetica,sans-Serif" font-size="10.00">src/visualization/utils</text>
<text text-anchor="middle" x="701" y="-7.5" font-family="Helvetica,sans-Serif" font-size="10.00">/Iovs_Utils.C</text>
</a>
</g>
</g>
<!-- Node6&#45;&gt;Node9 -->
<g id="edge9" class="edge">
<title>Node6&#45;&gt;Node9</title>
<path fill="none" stroke="midnightblue" d="M536.79,-64.58C572.85,-54.02 618.72,-40.59 652.81,-30.61"/>
<polygon fill="midnightblue" stroke="midnightblue" points="535.51,-61.31 526.9,-67.48 537.48,-68.02 535.51,-61.31"/>
</g>
</g>
</svg>
