<?xml version="1.0" encoding="UTF-8" standalone="no"?>
<!DOCTYPE svg PUBLIC "-//W3C//DTD SVG 1.1//EN"
 "http://www.w3.org/Graphics/SVG/1.1/DTD/svg11.dtd">
<!-- Generated by graphviz version 7.0.0 (20221023.0053)
 -->
<!-- Title: src/visualization/cgns/CatalystCGNSMeshBase.h Pages: 1 -->
<svg width="763pt" height="236pt"
 viewBox="0.00 0.00 763.00 236.00" xmlns="http://www.w3.org/2000/svg" xmlns:xlink="http://www.w3.org/1999/xlink">
<g id="graph0" class="graph" transform="scale(1 1) rotate(0) translate(4 232)">
<title>src/visualization/cgns/CatalystCGNSMeshBase.h</title>
<!-- Node1 -->
<g id="node1" class="node">
<title>Node1</title>
<g id="a_node1"><a xlink:title=" ">
<polygon fill="#999999" stroke="#666666" points="207,-228 67,-228 67,-198 207,-198 207,-228"/>
<text text-anchor="start" x="75" y="-216" font-family="Helvetica,sans-Serif" font-size="10.00">src/visualization/cgns</text>
<text text-anchor="middle" x="137" y="-205" font-family="Helvetica,sans-Serif" font-size="10.00">/CatalystCGNSMeshBase.h</text>
</a>
</g>
</g>
<!-- Node2 -->
<g id="node2" class="node">
<title>Node2</title>
<g id="a_node2"><a xlink:href="CatalystCGNSMesh_8h.html" target="_top" xlink:title=" ">
<polygon fill="white" stroke="#666666" points="142,-30 0,-30 0,0 142,0 142,-30"/>
<text text-anchor="start" x="8" y="-18" font-family="Helvetica,sans-Serif" font-size="10.00">src/visualization/catalyst</text>
<text text-anchor="middle" x="71" y="-7" font-family="Helvetica,sans-Serif" font-size="10.00">/cgns/CatalystCGNSMesh.h</text>
</a>
</g>
</g>
<!-- Node1&#45;&gt;Node2 -->
<g id="edge1" class="edge">
<title>Node1&#45;&gt;Node2</title>
<path fill="none" stroke="#63b8ff" d="M128.5,-186.76C114.49,-145.16 87,-63.51 75.86,-30.43"/>
<polygon fill="#63b8ff" stroke="#63b8ff" points="125.16,-187.79 131.66,-196.15 131.79,-185.56 125.16,-187.79"/>
</g>
<!-- Node3 -->
<g id="node3" class="node">
<title>Node3</title>
<g id="a_node3"><a xlink:href="CatalystManagerBase_8h.html" target="_top" xlink:title=" ">
<polygon fill="white" stroke="#666666" points="266.5,-162 141.5,-162 141.5,-132 266.5,-132 266.5,-162"/>
<text text-anchor="start" x="149.5" y="-150" font-family="Helvetica,sans-Serif" font-size="10.00">src/visualization/utils</text>
<text text-anchor="middle" x="204" y="-139" font-family="Helvetica,sans-Serif" font-size="10.00">/CatalystManagerBase.h</text>
</a>
</g>
</g>
<!-- Node1&#45;&gt;Node3 -->
<g id="edge2" class="edge">
<title>Node1&#45;&gt;Node3</title>
<path fill="none" stroke="#63b8ff" d="M159.94,-190.09C169.61,-180.85 180.59,-170.36 189.17,-162.16"/>
<polygon fill="#63b8ff" stroke="#63b8ff" points="157.78,-187.31 152.96,-196.75 162.61,-192.37 157.78,-187.31"/>
</g>
<!-- Node4 -->
<g id="node4" class="node">
<title>Node4</title>
<g id="a_node4"><a xlink:href="CatalystManager_8h.html" target="_top" xlink:title=" ">
<polygon fill="white" stroke="#666666" points="275,-96 133,-96 133,-66 275,-66 275,-96"/>
<text text-anchor="start" x="141" y="-84" font-family="Helvetica,sans-Serif" font-size="10.00">src/visualization/catalyst</text>
<text text-anchor="middle" x="204" y="-73" font-family="Helvetica,sans-Serif" font-size="10.00">/manager/CatalystManager.h</text>
</a>
</g>
</g>
<!-- Node3&#45;&gt;Node4 -->
<g id="edge3" class="edge">
<title>Node3&#45;&gt;Node4</title>
<path fill="none" stroke="#63b8ff" d="M204,-120.39C204,-112.13 204,-103.28 204,-96.16"/>
<polygon fill="#63b8ff" stroke="#63b8ff" points="200.5,-120.28 204,-130.28 207.5,-120.28 200.5,-120.28"/>
</g>
<!-- Node6 -->
<g id="node6" class="node">
<title>Node6</title>
<g id="a_node6"><a xlink:href="Iovs__Utils_8h.html" target="_top" xlink:title=" ">
<polygon fill="white" stroke="#666666" points="533,-96 425,-96 425,-66 533,-66 533,-96"/>
<text text-anchor="start" x="433" y="-84" font-family="Helvetica,sans-Serif" font-size="10.00">src/visualization/utils</text>
<text text-anchor="middle" x="479" y="-73" font-family="Helvetica,sans-Serif" font-size="10.00">/Iovs_Utils.h</text>
</a>
</g>
</g>
<!-- Node3&#45;&gt;Node6 -->
<g id="edge6" class="edge">
<title>Node3&#45;&gt;Node6</title>
<path fill="none" stroke="#63b8ff" d="M277.24,-128.95C323.56,-118.17 382.43,-104.47 424.61,-94.66"/>
<polygon fill="#63b8ff" stroke="#63b8ff" points="276.48,-125.54 267.53,-131.21 278.07,-132.36 276.48,-125.54"/>
</g>
<!-- Node4&#45;&gt;Node2 -->
<g id="edge4" class="edge">
<title>Node4&#45;&gt;Node2</title>
<path fill="none" stroke="#63b8ff" d="M163.94,-60.72C143.63,-50.95 119.38,-39.28 100.75,-30.31"/>
<polygon fill="#63b8ff" stroke="#63b8ff" points="162.26,-63.8 172.79,-64.98 165.3,-57.49 162.26,-63.8"/>
</g>
<!-- Node5 -->
<g id="node5" class="node">
<title>Node5</title>
<g id="a_node5"><a xlink:href="CatalystExodusMesh_8h.html" target="_top" xlink:title=" ">
<polygon fill="white" stroke="#666666" points="316,-30 160,-30 160,0 316,0 316,-30"/>
<text text-anchor="start" x="168" y="-18" font-family="Helvetica,sans-Serif" font-size="10.00">src/visualization/catalyst</text>
<text text-anchor="middle" x="238" y="-7" font-family="Helvetica,sans-Serif" font-size="10.00">/exodus/CatalystExodusMesh.h</text>
</a>
</g>
</g>
<!-- Node4&#45;&gt;Node5 -->
<g id="edge5" class="edge">
<title>Node4&#45;&gt;Node5</title>
<path fill="none" stroke="#63b8ff" d="M216.84,-55.83C221.44,-47.17 226.47,-37.7 230.48,-30.16"/>
<polygon fill="#63b8ff" stroke="#63b8ff" points="213.86,-53.99 212.26,-64.46 220.04,-57.27 213.86,-53.99"/>
</g>
<!-- Node7 -->
<g id="node7" class="node">
<title>Node7</title>
<g id="a_node7"><a xlink:href="Iovs__cgns__DatabaseIO_8C.html" target="_top" xlink:title=" ">
<polygon fill="white" stroke="#666666" points="467.5,-30 334.5,-30 334.5,0 467.5,0 467.5,-30"/>
<text text-anchor="start" x="342.5" y="-18" font-family="Helvetica,sans-Serif" font-size="10.00">src/visualization/cgns</text>
<text text-anchor="middle" x="401" y="-7" font-family="Helvetica,sans-Serif" font-size="10.00">/Iovs_cgns_DatabaseIO.C</text>
</a>
</g>
</g>
<!-- Node6&#45;&gt;Node7 -->
<g id="edge7" class="edge">
<title>Node6&#45;&gt;Node7</title>
<path fill="none" stroke="#63b8ff" d="M453.04,-58.7C441.7,-49.4 428.7,-38.73 418.53,-30.39"/>
<polygon fill="#63b8ff" stroke="#63b8ff" points="450.57,-61.2 460.52,-64.84 455.01,-55.79 450.57,-61.2"/>
</g>
<!-- Node8 -->
<g id="node8" class="node">
<title>Node8</title>
<g id="a_node8"><a xlink:href="Iovs__exodus__DatabaseIO_8C.html" target="_top" xlink:title=" ">
<polygon fill="white" stroke="#666666" points="628.5,-30 485.5,-30 485.5,0 628.5,0 628.5,-30"/>
<text text-anchor="start" x="493.5" y="-18" font-family="Helvetica,sans-Serif" font-size="10.00">src/visualization/exodus</text>
<text text-anchor="middle" x="557" y="-7" font-family="Helvetica,sans-Serif" font-size="10.00">/Iovs_exodus_DatabaseIO.C</text>
</a>
</g>
</g>
<!-- Node6&#45;&gt;Node8 -->
<g id="edge8" class="edge">
<title>Node6&#45;&gt;Node8</title>
<path fill="none" stroke="#63b8ff" d="M504.96,-58.7C516.3,-49.4 529.3,-38.73 539.47,-30.39"/>
<polygon fill="#63b8ff" stroke="#63b8ff" points="502.99,-55.79 497.48,-64.84 507.43,-61.2 502.99,-55.79"/>
</g>
<!-- Node9 -->
<g id="node9" class="node">
<title>Node9</title>
<g id="a_node9"><a xlink:href="Iovs__Utils_8C.html" target="_top" xlink:title=" ">
<polygon fill="white" stroke="#666666" points="755,-30 647,-30 647,0 755,0 755,-30"/>
<text text-anchor="start" x="655" y="-18" font-family="Helvetica,sans-Serif" font-size="10.00">src/visualization/utils</text>
<text text-anchor="middle" x="701" y="-7" font-family="Helvetica,sans-Serif" font-size="10.00">/Iovs_Utils.C</text>
</a>
</g>
</g>
<!-- Node6&#45;&gt;Node9 -->
<g id="edge9" class="edge">
<title>Node6&#45;&gt;Node9</title>
<path fill="none" stroke="#63b8ff" d="M540.12,-62.38C575.02,-52.32 618.23,-39.86 651.08,-30.39"/>
<polygon fill="#63b8ff" stroke="#63b8ff" points="539.19,-59 530.55,-65.14 541.13,-65.73 539.19,-59"/>
</g>
</g>
</svg>
