<?xml version="1.0" encoding="UTF-8" standalone="no"?>
<!DOCTYPE svg PUBLIC "-//W3C//DTD SVG 1.1//EN"
 "http://www.w3.org/Graphics/SVG/1.1/DTD/svg11.dtd">
<!-- Generated by graphviz version 8.0.5 (20230430.1635)
 -->
<!-- Title: src/visualization/catalyst/cgns/CatalystCGNSMesh.h Pages: 1 -->
<!--zoomable 293 -->

<svg id="main" version="1.1" xmlns="http://www.w3.org/2000/svg" xmlns:xlink="http://www.w3.org/1999/xlink" xml:space="preserve" onload="init(evt)">
<style type="text/css"><![CDATA[
.node, .edge {opacity: 0.7;}
.node.selected, .edge.selected {opacity: 1;}
.edge:hover path { stroke: red; }
.edge:hover polygon { stroke: red; fill: red; }
]]></style>

<defs>
  <circle id="rim" cx="0" cy="0" r="7"/>
  <circle id="rim2" cx="0" cy="0" r="3.5"/>
  <g id="zoomPlus">
    <use xlink:href="#rim" fill="#404040"><set attributeName="fill" to="#808080" begin="zoomplus.mouseover" end="zoomplus.mouseout"/></use>
    <path d="M-4,0h8M0,-4v8" fill="none" stroke="white" stroke-width="1.5" pointer-events="none"/>
  </g>
  <g id="zoomMin">
    <use xlink:href="#rim" fill="#404040"><set attributeName="fill" to="#808080" begin="zoomminus.mouseover" end="zoomminus.mouseout"/></use>
    <path d="M-4,0h8" fill="none" stroke="white" stroke-width="1.5" pointer-events="none"/>
  </g>
  <g id="arrowUp" transform="translate(30 24)">
    <use xlink:href="#rim"/>
    <path pointer-events="none" fill="none" stroke="white" stroke-width="1.5" d="M0,-3.0v7 M-2.5,-0.5L0,-3.0L2.5,-0.5"/>
  </g>
  <g id="arrowRight" transform="rotate(90) translate(36 -43)">
    <use xlink:href="#rim"/>
    <path pointer-events="none" fill="none" stroke="white" stroke-width="1.5" d="M0,-3.0v7 M-2.5,-0.5L0,-3.0L2.5,-0.5"/>
  </g>
  <g id="arrowDown" transform="rotate(180) translate(-30 -48)">
    <use xlink:href="#rim"/>
    <path pointer-events="none" fill="none" stroke="white" stroke-width="1.5" d="M0,-3.0v7 M-2.5,-0.5L0,-3.0L2.5,-0.5"/>
  </g>
  <g id="arrowLeft" transform="rotate(270) translate(-36 17)">
    <use xlink:href="#rim"/>
    <path pointer-events="none" fill="none" stroke="white" stroke-width="1.5" d="M0,-3.0v7 M-2.5,-0.5L0,-3.0L2.5,-0.5"/>
  </g>
  <g id="resetDef">
    <use xlink:href="#rim2" fill="#404040"><set attributeName="fill" to="#808080" begin="reset.mouseover" end="reset.mouseout"/></use>
  </g>
</defs>
<script type="application/ecmascript">
var viewWidth = 907;
var viewHeight = 293;
var sectionId = 'dynsection-0';
</script>
<script type="application/ecmascript" xlink:href="svg.min.js"/>
<svg id="graph" class="graph">
<g id="viewport">
<title>src/visualization/catalyst/cgns/CatalystCGNSMesh.h</title>
<!-- Node1 -->
<g id="Node000001" class="node">
<title>Node1</title>
<g id="a_Node000001"><a xlink:title=" ">
<polygon fill="#999999" stroke="#666666" points="669,-285.25 527.75,-285.25 527.75,-254.75 669,-254.75 669,-285.25"/>
<text text-anchor="start" x="535.75" y="-271.75" font-family="Helvetica,sans-Serif" font-size="10.00">src/visualization/catalyst</text>
<text text-anchor="middle" x="598.38" y="-260.5" font-family="Helvetica,sans-Serif" font-size="10.00">/cgns/CatalystCGNSMesh.h</text>
</a>
</g>
</g>
<!-- Node2 -->
<g id="Node000002" class="node">
<title>Node2</title>
<g id="a_Node000002"><a xlink:title=" ">
<polygon fill="#e0e0e0" stroke="#999999" points="34.75,-146.62 0,-146.62 0,-127.38 34.75,-127.38 34.75,-146.62"/>
<text text-anchor="middle" x="17.38" y="-133.12" font-family="Helvetica,sans-Serif" font-size="10.00">map</text>
</a>
</g>
</g>
<!-- Node1&#45;&gt;Node2 -->
<g id="edge1_Node000001_Node000002" class="edge">
<title>Node1&#45;&gt;Node2</title>
<g id="a_edge1_Node000001_Node000002"><a xlink:title=" ">
<path fill="none" stroke="#63b8ff" d="M527.47,-266.25C446.22,-261.7 309.67,-249.76 196.38,-218.75 138.86,-203.01 76.38,-171.08 42.57,-152.44"/>
<polygon fill="#63b8ff" stroke="#63b8ff" points="44.47,-148.93 34.03,-147.11 41.05,-155.04 44.47,-148.93"/>
</a>
</g>
</g>
<!-- Node3 -->
<g id="Node000003" class="node">
<title>Node3</title>
<g id="a_Node000003"><a xlink:title=" ">
<polygon fill="#e0e0e0" stroke="#999999" points="566.88,-19.25 523.88,-19.25 523.88,0 566.88,0 566.88,-19.25"/>
<text text-anchor="middle" x="545.38" y="-5.75" font-family="Helvetica,sans-Serif" font-size="10.00">vector</text>
</a>
</g>
</g>
<!-- Node1&#45;&gt;Node3 -->
<g id="edge2_Node000001_Node000003" class="edge">
<title>Node1&#45;&gt;Node3</title>
<g id="a_edge2_Node000001_Node000003"><a xlink:title=" ">
<path fill="none" stroke="#63b8ff" d="M601.61,-254.42C608.79,-218.62 623.16,-124.24 592.38,-55.25 587.23,-43.73 577.58,-33.73 568.35,-26.14"/>
<polygon fill="#63b8ff" stroke="#63b8ff" points="570.87,-22.9 560.79,-19.63 566.63,-28.47 570.87,-22.9"/>
</a>
</g>
</g>
<!-- Node4 -->
<g id="Node000004" class="node">
<title>Node4</title>
<g id="a_Node000004"><a xlink:href="CatalystManager_8h.html" target="_top" xlink:title=" ">
<polygon fill="white" stroke="#666666" points="347,-218.75 205.75,-218.75 205.75,-188.25 347,-188.25 347,-218.75"/>
<text text-anchor="start" x="213.75" y="-205.25" font-family="Helvetica,sans-Serif" font-size="10.00">visualization/catalyst</text>
<text text-anchor="middle" x="276.38" y="-194" font-family="Helvetica,sans-Serif" font-size="10.00">/manager/CatalystManager.h</text>
</a>
</g>
</g>
<!-- Node1&#45;&gt;Node4 -->
<g id="edge3_Node000001_Node000004" class="edge">
<title>Node1&#45;&gt;Node4</title>
<g id="a_edge3_Node000001_Node000004"><a xlink:title=" ">
<path fill="none" stroke="#63b8ff" d="M527.31,-254.77C477.24,-244.73 410.07,-231.28 357.83,-220.82"/>
<polygon fill="#63b8ff" stroke="#63b8ff" points="358.75,-217.23 348.26,-218.7 357.37,-224.09 358.75,-217.23"/>
</a>
</g>
</g>
<!-- Node9 -->
<g id="Node000009" class="node">
<title>Node9</title>
<g id="a_Node000009"><a xlink:href="CatalystCGNSMeshBase_8h.html" target="_top" xlink:title=" ">
<polygon fill="white" stroke="#666666" points="566.25,-85.75 426.5,-85.75 426.5,-55.25 566.25,-55.25 566.25,-85.75"/>
<text text-anchor="start" x="434.5" y="-72.25" font-family="Helvetica,sans-Serif" font-size="10.00">visualization/cgns</text>
<text text-anchor="middle" x="496.38" y="-61" font-family="Helvetica,sans-Serif" font-size="10.00">/CatalystCGNSMeshBase.h</text>
</a>
</g>
</g>
<!-- Node1&#45;&gt;Node9 -->
<g id="edge21_Node000001_Node000009" class="edge">
<title>Node1&#45;&gt;Node9</title>
<g id="a_edge21_Node000001_Node000009"><a xlink:title=" ">
<path fill="none" stroke="#63b8ff" d="M590.87,-254.48C573.49,-220.81 530.27,-137.13 508.84,-95.63"/>
<polygon fill="#63b8ff" stroke="#63b8ff" points="511.58,-94.32 503.89,-87.04 505.37,-97.54 511.58,-94.32"/>
</a>
</g>
</g>
<!-- Node14 -->
<g id="Node000014" class="node">
<title>Node14</title>
<g id="a_Node000014"><a xlink:title=" ">
<polygon fill="#e0e0e0" stroke="#999999" points="824.25,-213.12 660.5,-213.12 660.5,-193.88 824.25,-193.88 824.25,-213.12"/>
<text text-anchor="middle" x="742.38" y="-199.62" font-family="Helvetica,sans-Serif" font-size="10.00">vtkPartitionedDataSetCollection.h</text>
</a>
</g>
</g>
<!-- Node1&#45;&gt;Node14 -->
<g id="edge22_Node000001_Node000014" class="edge">
<title>Node1&#45;&gt;Node14</title>
<g id="a_edge22_Node000001_Node000014"><a xlink:title=" ">
<path fill="none" stroke="#63b8ff" d="M631.05,-254.36C655.48,-243.42 688.63,-228.57 712.39,-217.93"/>
<polygon fill="#63b8ff" stroke="#63b8ff" points="713.56,-220.79 721.26,-213.51 710.7,-214.4 713.56,-220.79"/>
</a>
</g>
</g>
<!-- Node15 -->
<g id="Node000015" class="node">
<title>Node15</title>
<g id="a_Node000015"><a xlink:title=" ">
<polygon fill="#e0e0e0" stroke="#999999" points="898.62,-213.12 842.12,-213.12 842.12,-193.88 898.62,-193.88 898.62,-213.12"/>
<text text-anchor="middle" x="870.38" y="-199.62" font-family="Helvetica,sans-Serif" font-size="10.00">vtkNew.h</text>
</a>
</g>
</g>
<!-- Node1&#45;&gt;Node15 -->
<g id="edge23_Node000001_Node000015" class="edge">
<title>Node1&#45;&gt;Node15</title>
<g id="a_edge23_Node000001_Node000015"><a xlink:title=" ">
<path fill="none" stroke="#63b8ff" d="M669.28,-256.84C716.3,-248.05 779.09,-234.9 833.38,-218.75 835.1,-218.24 836.86,-217.68 838.62,-217.09"/>
<polygon fill="#63b8ff" stroke="#63b8ff" points="839.42,-220.17 847.66,-213.52 837.06,-213.58 839.42,-220.17"/>
</a>
</g>
</g>
<!-- Node4&#45;&gt;Node2 -->
<g id="edge5_Node000004_Node000002" class="edge">
<title>Node4&#45;&gt;Node2</title>
<g id="a_edge5_Node000004_Node000002"><a xlink:title=" ">
<path fill="none" stroke="#63b8ff" d="M205.28,-192.64C158.34,-184.82 96.01,-171.88 43.38,-152.25 42.9,-152.07 42.43,-151.89 41.96,-151.7"/>
<polygon fill="#63b8ff" stroke="#63b8ff" points="43.68,-148.17 33.15,-147.05 40.69,-154.5 43.68,-148.17"/>
</a>
</g>
</g>
<!-- Node5 -->
<g id="Node000005" class="node">
<title>Node5</title>
<g id="a_Node000005"><a xlink:title=" ">
<polygon fill="#e0e0e0" stroke="#999999" points="286.62,-146.62 164.12,-146.62 164.12,-127.38 286.62,-127.38 286.62,-146.62"/>
<text text-anchor="middle" x="225.38" y="-133.12" font-family="Helvetica,sans-Serif" font-size="10.00">vtkCPDataDescription.h</text>
</a>
</g>
</g>
<!-- Node4&#45;&gt;Node5 -->
<g id="edge4_Node000004_Node000005" class="edge">
<title>Node4&#45;&gt;Node5</title>
<g id="a_edge4_Node000004_Node000005"><a xlink:title=" ">
<path fill="none" stroke="#63b8ff" d="M264.8,-187.86C257.15,-178.19 247.09,-165.46 239.04,-155.29"/>
<polygon fill="#63b8ff" stroke="#63b8ff" points="241.3,-153.5 232.35,-147.82 235.81,-157.84 241.3,-153.5"/>
</a>
</g>
</g>
<!-- Node6 -->
<g id="Node000006" class="node">
<title>Node6</title>
<g id="a_Node000006"><a xlink:title=" ">
<polygon fill="#e0e0e0" stroke="#999999" points="347.88,-146.62 304.88,-146.62 304.88,-127.38 347.88,-127.38 347.88,-146.62"/>
<text text-anchor="middle" x="326.38" y="-133.12" font-family="Helvetica,sans-Serif" font-size="10.00">time.h</text>
</a>
</g>
</g>
<!-- Node4&#45;&gt;Node6 -->
<g id="edge6_Node000004_Node000006" class="edge">
<title>Node4&#45;&gt;Node6</title>
<g id="a_edge6_Node000004_Node000006"><a xlink:title=" ">
<path fill="none" stroke="#63b8ff" d="M287.72,-187.86C295.22,-178.19 305.09,-165.46 312.97,-155.29"/>
<polygon fill="#63b8ff" stroke="#63b8ff" points="316.18,-157.87 319.54,-147.82 310.64,-153.58 316.18,-157.87"/>
</a>
</g>
</g>
<!-- Node7 -->
<g id="Node000007" class="node">
<title>Node7</title>
<g id="a_Node000007"><a xlink:href="CatalystManagerBase_8h.html" target="_top" xlink:title=" ">
<polygon fill="white" stroke="#666666" points="490.38,-152.25 366.38,-152.25 366.38,-121.75 490.38,-121.75 490.38,-152.25"/>
<text text-anchor="start" x="374.38" y="-138.75" font-family="Helvetica,sans-Serif" font-size="10.00">visualization/utils</text>
<text text-anchor="middle" x="428.38" y="-127.5" font-family="Helvetica,sans-Serif" font-size="10.00">/CatalystManagerBase.h</text>
</a>
</g>
</g>
<!-- Node4&#45;&gt;Node7 -->
<g id="edge7_Node000004_Node000007" class="edge">
<title>Node4&#45;&gt;Node7</title>
<g id="a_edge7_Node000004_Node000007"><a xlink:title=" ">
<path fill="none" stroke="#63b8ff" d="M310.87,-187.86C332.46,-178.7 360.5,-166.8 383.77,-156.93"/>
<polygon fill="#63b8ff" stroke="#63b8ff" points="384.92,-159.82 392.76,-152.69 382.18,-153.37 384.92,-159.82"/>
</a>
</g>
</g>
<!-- Node13 -->
<g id="Node000013" class="node">
<title>Node13</title>
<g id="a_Node000013"><a xlink:title=" ">
<polygon fill="#e0e0e0" stroke="#999999" points="146.38,-146.62 52.37,-146.62 52.37,-127.38 146.38,-127.38 146.38,-146.62"/>
<text text-anchor="middle" x="99.38" y="-133.12" font-family="Helvetica,sans-Serif" font-size="10.00">vtkSmartPointer.h</text>
</a>
</g>
</g>
<!-- Node4&#45;&gt;Node13 -->
<g id="edge20_Node000004_Node000013" class="edge">
<title>Node4&#45;&gt;Node13</title>
<g id="a_edge20_Node000004_Node000013"><a xlink:title=" ">
<path fill="none" stroke="#63b8ff" d="M236.21,-187.86C205.6,-176.71 163.85,-161.5 134.55,-150.82"/>
<polygon fill="#63b8ff" stroke="#63b8ff" points="135.95,-147.24 125.36,-147.1 133.56,-153.82 135.95,-147.24"/>
</a>
</g>
</g>
<!-- Node7&#45;&gt;Node3 -->
<g id="edge19_Node000007_Node000003" class="edge">
<title>Node7&#45;&gt;Node3</title>
<g id="a_edge19_Node000007_Node000003"><a xlink:title=" ">
<path fill="none" stroke="#63b8ff" d="M490.56,-131.26C521.39,-125.39 556.08,-112.74 575.38,-85.75 588.19,-67.82 574.02,-43.64 561.13,-27.61"/>
<polygon fill="#63b8ff" stroke="#63b8ff" points="563.46,-25.94 554.29,-20.64 558.14,-30.5 563.46,-25.94"/>
</a>
</g>
</g>
<!-- Node8 -->
<g id="Node000008" class="node">
<title>Node8</title>
<g id="a_Node000008"><a xlink:title=" ">
<polygon fill="#e0e0e0" stroke="#999999" points="265.62,-19.25 191.12,-19.25 191.12,0 265.62,0 265.62,-19.25"/>
<text text-anchor="middle" x="228.38" y="-5.75" font-family="Helvetica,sans-Serif" font-size="10.00">iovs_export.h</text>
</a>
</g>
</g>
<!-- Node7&#45;&gt;Node8 -->
<g id="edge8_Node000007_Node000008" class="edge">
<title>Node7&#45;&gt;Node8</title>
<g id="a_edge8_Node000007_Node000008"><a xlink:title=" ">
<path fill="none" stroke="#63b8ff" d="M365.95,-123.55C362.71,-122.93 359.51,-122.33 356.38,-121.75 310.03,-113.17 177.74,-121.79 147.38,-85.75 138.64,-75.38 140.48,-66.92 147.38,-55.25 155.87,-40.87 170.83,-30.81 185.6,-23.93"/>
<polygon fill="#63b8ff" stroke="#63b8ff" points="186.86,-26.78 194.71,-19.67 184.14,-20.33 186.86,-26.78"/>
</a>
</g>
</g>
<!-- Node7&#45;&gt;Node9 -->
<g id="edge9_Node000007_Node000009" class="edge">
<title>Node7&#45;&gt;Node9</title>
<g id="a_edge9_Node000007_Node000009"><a xlink:title=" ">
<path fill="none" stroke="#63b8ff" d="M443.81,-121.36C452.5,-113.12 463.53,-102.65 473.24,-93.44"/>
<polygon fill="#63b8ff" stroke="#63b8ff" points="475.16,-96.5 480.01,-87.08 470.34,-91.42 475.16,-96.5"/>
</a>
</g>
</g>
<!-- Node10 -->
<g id="Node000010" class="node">
<title>Node10</title>
<g id="a_Node000010"><a xlink:title=" ">
<polygon fill="#e0e0e0" stroke="#999999" points="348.38,-19.25 308.38,-19.25 308.38,0 348.38,0 348.38,-19.25"/>
<text text-anchor="middle" x="328.38" y="-5.75" font-family="Helvetica,sans-Serif" font-size="10.00">string</text>
</a>
</g>
</g>
<!-- Node7&#45;&gt;Node10 -->
<g id="edge18_Node000007_Node000010" class="edge">
<title>Node7&#45;&gt;Node10</title>
<g id="a_edge18_Node000007_Node000010"><a xlink:title=" ">
<path fill="none" stroke="#63b8ff" d="M392.37,-121.25C376.4,-113.01 358.71,-101.24 347.38,-85.75 335.47,-69.48 331,-46.53 329.33,-30.28"/>
<polygon fill="#63b8ff" stroke="#63b8ff" points="332.75,-30.11 328.52,-20.39 325.77,-30.62 332.75,-30.11"/>
</a>
</g>
</g>
<!-- Node11 -->
<g id="Node000011" class="node">
<title>Node11</title>
<g id="a_Node000011"><a xlink:href="CatalystExodusMeshBase_8h.html" target="_top" xlink:title=" ">
<polygon fill="white" stroke="#666666" points="300.12,-85.75 156.62,-85.75 156.62,-55.25 300.12,-55.25 300.12,-85.75"/>
<text text-anchor="start" x="164.62" y="-72.25" font-family="Helvetica,sans-Serif" font-size="10.00">visualization/exodus</text>
<text text-anchor="middle" x="228.38" y="-61" font-family="Helvetica,sans-Serif" font-size="10.00">/CatalystExodusMeshBase.h</text>
</a>
</g>
</g>
<!-- Node7&#45;&gt;Node11 -->
<g id="edge13_Node000007_Node000011" class="edge">
<title>Node7&#45;&gt;Node11</title>
<g id="a_edge13_Node000007_Node000011"><a xlink:title=" ">
<path fill="none" stroke="#63b8ff" d="M382.74,-121.28C353.43,-111.83 315.16,-99.49 284.06,-89.46"/>
<polygon fill="#63b8ff" stroke="#63b8ff" points="285.4,-85.89 274.81,-86.15 283.26,-92.55 285.4,-85.89"/>
</a>
</g>
</g>
<!-- Node12 -->
<g id="Node000012" class="node">
<title>Node12</title>
<g id="a_Node000012"><a xlink:title=" ">
<polygon fill="#e0e0e0" stroke="#999999" points="408,-80.12 356.75,-80.12 356.75,-60.88 408,-60.88 408,-80.12"/>
<text text-anchor="middle" x="382.38" y="-66.62" font-family="Helvetica,sans-Serif" font-size="10.00">memory</text>
</a>
</g>
</g>
<!-- Node7&#45;&gt;Node12 -->
<g id="edge17_Node000007_Node000012" class="edge">
<title>Node7&#45;&gt;Node12</title>
<g id="a_edge17_Node000007_Node000012"><a xlink:title=" ">
<path fill="none" stroke="#63b8ff" d="M417.94,-121.36C411.11,-111.79 402.15,-99.22 394.93,-89.1"/>
<polygon fill="#63b8ff" stroke="#63b8ff" points="397.32,-87.43 388.67,-81.32 391.62,-91.5 397.32,-87.43"/>
</a>
</g>
</g>
<!-- Node9&#45;&gt;Node3 -->
<g id="edge12_Node000009_Node000003" class="edge">
<title>Node9&#45;&gt;Node3</title>
<g id="a_edge12_Node000009_Node000003"><a xlink:title=" ">
<path fill="none" stroke="#63b8ff" d="M508.49,-54.95C515.3,-46.76 523.85,-36.48 531.01,-27.89"/>
<polygon fill="#63b8ff" stroke="#63b8ff" points="534.11,-30.63 537.82,-20.7 528.73,-26.15 534.11,-30.63"/>
</a>
</g>
</g>
<!-- Node9&#45;&gt;Node8 -->
<g id="edge10_Node000009_Node000008" class="edge">
<title>Node9&#45;&gt;Node8</title>
<g id="a_edge10_Node000009_Node000008"><a xlink:title=" ">
<path fill="none" stroke="#63b8ff" d="M429.44,-54.8C381.95,-44.36 319.31,-30.6 276.65,-21.23"/>
<polygon fill="#63b8ff" stroke="#63b8ff" points="277.5,-17.61 266.99,-18.89 276,-24.45 277.5,-17.61"/>
</a>
</g>
</g>
<!-- Node9&#45;&gt;Node10 -->
<g id="edge11_Node000009_Node000010" class="edge">
<title>Node9&#45;&gt;Node10</title>
<g id="a_edge11_Node000009_Node000010"><a xlink:title=" ">
<path fill="none" stroke="#63b8ff" d="M454.41,-54.8C424.69,-44.38 385.5,-30.64 358.76,-21.27"/>
<polygon fill="#63b8ff" stroke="#63b8ff" points="360.07,-17.67 349.48,-17.67 357.76,-24.28 360.07,-17.67"/>
</a>
</g>
</g>
<!-- Node11&#45;&gt;Node3 -->
<g id="edge16_Node000011_Node000003" class="edge">
<title>Node11&#45;&gt;Node3</title>
<g id="a_edge16_Node000011_Node000003"><a xlink:title=" ">
<path fill="none" stroke="#63b8ff" d="M300.31,-56.14C366.91,-43.77 462.93,-25.94 512.7,-16.69"/>
<polygon fill="#63b8ff" stroke="#63b8ff" points="513.25,-19.96 522.45,-14.7 511.98,-13.08 513.25,-19.96"/>
</a>
</g>
</g>
<!-- Node11&#45;&gt;Node8 -->
<g id="edge14_Node000011_Node000008" class="edge">
<title>Node11&#45;&gt;Node8</title>
<g id="a_edge14_Node000011_Node000008"><a xlink:title=" ">
<path fill="none" stroke="#63b8ff" d="M228.38,-54.95C228.38,-47.62 228.38,-38.62 228.38,-30.66"/>
<polygon fill="#63b8ff" stroke="#63b8ff" points="231.88,-30.7 228.38,-20.7 224.88,-30.7 231.88,-30.7"/>
</a>
</g>
</g>
<!-- Node11&#45;&gt;Node10 -->
<g id="edge15_Node000011_Node000010" class="edge">
<title>Node11&#45;&gt;Node10</title>
<g id="a_edge15_Node000011_Node000010"><a xlink:title=" ">
<path fill="none" stroke="#63b8ff" d="M253.35,-54.8C268.73,-45.74 288.36,-34.19 303.68,-25.16"/>
<polygon fill="#63b8ff" stroke="#63b8ff" points="305.2,-27.74 312.04,-19.65 301.65,-21.71 305.2,-27.74"/>
</a>
</g>
</g>
</g>
</svg>

<g id="navigator" transform="translate(0 0)" fill="#404254">
  <rect fill="#f2f5e9" fill-opacity="0.5" stroke="#606060" stroke-width=".5" x="0" y="0" width="60" height="60"/>
  <use id="zoomplus" xlink:href="#zoomPlus" x="17" y="9" onmousedown="handleZoom(evt,'in')"/>
  <use id="zoomminus" xlink:href="#zoomMin" x="42" y="9" onmousedown="handleZoom(evt,'out')"/>
  <use id="reset" xlink:href="#resetDef" x="30" y="36" onmousedown="handleReset()"/>
   <use id="arrowup" xlink:href="#arrowUp" x="0" y="0" onmousedown="handlePan(0,-1)"/>
  <use id="arrowright" xlink:href="#arrowRight" x="0" y="0" onmousedown="handlePan(1,0)"/>
  <use id="arrowdown" xlink:href="#arrowDown" x="0" y="0" onmousedown="handlePan(0,1)"/>
  <use id="arrowleft" xlink:href="#arrowLeft" x="0" y="0" onmousedown="handlePan(-1,0)"/>
</g>
<svg viewBox="0 0 15 15" width="100%" height="30px" preserveAspectRatio="xMaxYMin meet">
 <g id="arrow_out" transform="scale(0.3 0.3)">
  <a xlink:href="CatalystCGNSMesh_8h__incl_org.svg" target="_base">
   <rect id="button" ry="5" rx="5" y="6" x="6" height="38" width="38"
        fill="#f2f5e9" fill-opacity="0.5" stroke="#606060" stroke-width="1.0"/>
   <path id="arrow"
     d="M 11.500037,31.436501 C 11.940474,20.09759 22.043105,11.32322 32.158766,21.979434 L 37.068811,17.246167 C 37.068811,17.246167 37.088388,32 37.088388,32 L 22.160133,31.978069 C 22.160133,31.978069 26.997745,27.140456 26.997745,27.140456 C 18.528582,18.264221 13.291696,25.230495 11.500037,31.436501 z"
     style="fill:#404040;"/>
  </a>
 </g>
</svg>

<style type='text/css'>
<![CDATA[
[data-mouse-over-selected='false'] { opacity: 0.7; }
[data-mouse-over-selected='true']  { opacity: 1.0; }
]]>
</style>
<script type="application/ecmascript"><![CDATA[
document.addEventListener('DOMContentLoaded', (event) => {
  highlightEdges();
  highlightAdjacentNodes();
});
]]></script>
</svg>
