<?xml version="1.0" encoding="UTF-8" standalone="no"?>
<!DOCTYPE svg PUBLIC "-//W3C//DTD SVG 1.1//EN"
 "http://www.w3.org/Graphics/SVG/1.1/DTD/svg11.dtd">
<!-- Generated by graphviz version 2.47.3 (20210619.1520)
 -->
<!-- Title: src/visualization/catalyst/exodus/CatalystExodusMesh.h Pages: 1 -->
<!--zoomable 296 -->
<svg id="main" version="1.1" xmlns="http://www.w3.org/2000/svg" xmlns:xlink="http://www.w3.org/1999/xlink" xml:space="preserve" onload="init(evt)">
<style type="text/css"><![CDATA[
.edge:hover path { stroke: red; }
.edge:hover polygon { stroke: red; fill: red; }
]]></style>
<script type="text/javascript"><![CDATA[
var edges = document.getElementsByTagName('g');
if (edges && edges.length) {
  for (var i=0;i<edges.length;i++) {
    if (edges[i].id.substr(0,4)=='edge') {
      edges[i].setAttribute('class','edge');
    }
  }
}
]]></script>
        <defs>
                <circle id="rim" cx="0" cy="0" r="7"/>
                <circle id="rim2" cx="0" cy="0" r="3.5"/>
                <g id="zoomPlus">
                        <use xlink:href="#rim" fill="#404040">
                                <set attributeName="fill" to="#808080" begin="zoomplus.mouseover" end="zoomplus.mouseout"/>
                        </use>
                        <path d="M-4,0h8M0,-4v8" fill="none" stroke="white" stroke-width="1.5" pointer-events="none"/>
                </g>
                <g id="zoomMin">
                        <use xlink:href="#rim" fill="#404040">
                                <set attributeName="fill" to="#808080" begin="zoomminus.mouseover" end="zoomminus.mouseout"/>
                        </use>
                        <path d="M-4,0h8" fill="none" stroke="white" stroke-width="1.5" pointer-events="none"/>
                </g>
                <g id="dirArrow">
                        <path fill="none" stroke="white" stroke-width="1.5" d="M0,-3.0v7 M-2.5,-0.5L0,-3.0L2.5,-0.5"/>
                </g>
               <g id="resetDef">
                       <use xlink:href="#rim2" fill="#404040">
                               <set attributeName="fill" to="#808080" begin="reset.mouseover" end="reset.mouseout"/>
                       </use>
               </g>
        </defs>

<script type="text/javascript">
var viewWidth = 533;
var viewHeight = 296;
var sectionId = 'dynsection-0';
</script>
<script xlink:href="svgpan.js"/>
<svg id="graph" class="graph">
<g id="viewport">
<title>src/visualization/catalyst/exodus/CatalystExodusMesh.h</title>
<polygon fill="white" stroke="transparent" points="-4,4 -4,-292 529.18,-292 529.18,4 -4,4"/>
<!-- Node1 -->
<g id="node1" class="node">
<title>Node1</title>
<g id="a_node1"><a xlink:title=" ">
<polygon fill="#bfbfbf" stroke="black" points="37.28,-257.5 37.28,-287.5 193.28,-287.5 193.28,-257.5 37.28,-257.5"/>
<text text-anchor="start" x="45.28" y="-275.5" font-family="Helvetica,sans-Serif" font-size="10.00">src/visualization/catalyst</text>
<text text-anchor="middle" x="115.28" y="-264.5" font-family="Helvetica,sans-Serif" font-size="10.00">/exodus/CatalystExodusMesh.h</text>
</a>
</g>
</g>
<!-- Node2 -->
<g id="node2" class="node">
<title>Node2</title>
<g id="a_node2"><a xlink:title=" ">
<polygon fill="white" stroke="#bfbfbf" points="13.78,-129 13.78,-148 48.78,-148 48.78,-129 13.78,-129"/>
<text text-anchor="middle" x="31.28" y="-136" font-family="Helvetica,sans-Serif" font-size="10.00">map</text>
</a>
</g>
</g>
<!-- Node1&#45;&gt;Node2 -->
<g id="edge1" class="edge">
<title>Node1&#45;&gt;Node2</title>
<path fill="none" stroke="midnightblue" d="M106.29,-257.37C90.76,-232.97 58.97,-183 42.2,-156.65"/>
<polygon fill="midnightblue" stroke="midnightblue" points="45.08,-154.65 36.76,-148.1 39.17,-158.41 45.08,-154.65"/>
</g>
<!-- Node3 -->
<g id="node3" class="node">
<title>Node3</title>
<g id="a_node3"><a xlink:title=" ">
<polygon fill="white" stroke="#bfbfbf" points="297.28,-0.5 297.28,-19.5 341.28,-19.5 341.28,-0.5 297.28,-0.5"/>
<text text-anchor="middle" x="319.28" y="-7.5" font-family="Helvetica,sans-Serif" font-size="10.00">vector</text>
</a>
</g>
</g>
<!-- Node1&#45;&gt;Node3 -->
<g id="edge2" class="edge">
<title>Node1&#45;&gt;Node3</title>
<path fill="none" stroke="midnightblue" d="M193.51,-260.11C299.35,-242.88 479.35,-206.54 517.28,-154 550.18,-108.43 463.54,-60.08 457.28,-56 424.57,-34.67 380.9,-22.67 351.52,-16.53"/>
<polygon fill="midnightblue" stroke="midnightblue" points="351.87,-13.03 341.39,-14.52 350.51,-19.9 351.87,-13.03"/>
</g>
<!-- Node4 -->
<g id="node4" class="node">
<title>Node4</title>
<g id="a_node4"><a xlink:href="CatalystManager_8h.html" target="_top" xlink:title=" ">
<polygon fill="white" stroke="black" points="164.28,-190.5 164.28,-220.5 306.28,-220.5 306.28,-190.5 164.28,-190.5"/>
<text text-anchor="start" x="172.28" y="-208.5" font-family="Helvetica,sans-Serif" font-size="10.00">visualization/catalyst</text>
<text text-anchor="middle" x="235.28" y="-197.5" font-family="Helvetica,sans-Serif" font-size="10.00">/manager/CatalystManager.h</text>
</a>
</g>
</g>
<!-- Node1&#45;&gt;Node4 -->
<g id="edge3" class="edge">
<title>Node1&#45;&gt;Node4</title>
<path fill="none" stroke="midnightblue" d="M141.32,-257.4C158.62,-248.03 181.53,-235.62 200.4,-225.39"/>
<polygon fill="midnightblue" stroke="midnightblue" points="202.17,-228.42 209.3,-220.58 198.84,-222.26 202.17,-228.42"/>
</g>
<!-- Node10 -->
<g id="node10" class="node">
<title>Node10</title>
<g id="a_node10"><a xlink:href="CatalystExodusMeshBase_8h.html" target="_top" xlink:title=" ">
<polygon fill="white" stroke="black" points="0.28,-56.5 0.28,-86.5 144.28,-86.5 144.28,-56.5 0.28,-56.5"/>
<text text-anchor="start" x="8.28" y="-74.5" font-family="Helvetica,sans-Serif" font-size="10.00">visualization/exodus</text>
<text text-anchor="middle" x="72.28" y="-63.5" font-family="Helvetica,sans-Serif" font-size="10.00">/CatalystExodusMeshBase.h</text>
</a>
</g>
</g>
<!-- Node1&#45;&gt;Node10 -->
<g id="edge18" class="edge">
<title>Node1&#45;&gt;Node10</title>
<path fill="none" stroke="midnightblue" d="M94.07,-257.5C66.88,-238.07 21.24,-200.09 4.28,-154 -0.47,-141.07 -1.91,-135.31 4.28,-123 10.66,-110.33 21.87,-100.04 33.38,-92.14"/>
<polygon fill="midnightblue" stroke="midnightblue" points="35.6,-94.87 42.17,-86.56 31.85,-88.97 35.6,-94.87"/>
</g>
<!-- Node4&#45;&gt;Node2 -->
<g id="edge5" class="edge">
<title>Node4&#45;&gt;Node2</title>
<path fill="none" stroke="midnightblue" d="M173.99,-190.47C139.4,-181.7 95.74,-169.2 58.28,-154 57.25,-153.58 56.2,-153.13 55.15,-152.66"/>
<polygon fill="midnightblue" stroke="midnightblue" points="56.38,-149.36 45.86,-148.07 53.27,-155.64 56.38,-149.36"/>
</g>
<!-- Node5 -->
<g id="node5" class="node">
<title>Node5</title>
<g id="a_node5"><a xlink:title=" ">
<polygon fill="white" stroke="#bfbfbf" points="66.78,-129 66.78,-148 189.78,-148 189.78,-129 66.78,-129"/>
<text text-anchor="middle" x="128.28" y="-136" font-family="Helvetica,sans-Serif" font-size="10.00">vtkCPDataDescription.h</text>
</a>
</g>
</g>
<!-- Node4&#45;&gt;Node5 -->
<g id="edge4" class="edge">
<title>Node4&#45;&gt;Node5</title>
<path fill="none" stroke="midnightblue" d="M212.07,-190.4C193.96,-179.39 168.94,-164.2 150.97,-153.28"/>
<polygon fill="midnightblue" stroke="midnightblue" points="152.65,-150.21 142.29,-148.01 149.02,-156.19 152.65,-150.21"/>
</g>
<!-- Node6 -->
<g id="node6" class="node">
<title>Node6</title>
<g id="a_node6"><a xlink:title=" ">
<polygon fill="white" stroke="#bfbfbf" points="464.28,-129 464.28,-148 508.28,-148 508.28,-129 464.28,-129"/>
<text text-anchor="middle" x="486.28" y="-136" font-family="Helvetica,sans-Serif" font-size="10.00">time.h</text>
</a>
</g>
</g>
<!-- Node4&#45;&gt;Node6 -->
<g id="edge6" class="edge">
<title>Node4&#45;&gt;Node6</title>
<path fill="none" stroke="midnightblue" d="M306.7,-192.09C350.27,-183.54 406.74,-170.71 455.28,-154 456.91,-153.44 458.56,-152.82 460.21,-152.17"/>
<polygon fill="midnightblue" stroke="midnightblue" points="461.72,-155.33 469.5,-148.14 458.93,-148.91 461.72,-155.33"/>
</g>
<!-- Node7 -->
<g id="node7" class="node">
<title>Node7</title>
<g id="a_node7"><a xlink:href="CatalystManagerBase_8h.html" target="_top" xlink:title=" ">
<polygon fill="white" stroke="black" points="207.78,-123.5 207.78,-153.5 332.78,-153.5 332.78,-123.5 207.78,-123.5"/>
<text text-anchor="start" x="215.78" y="-141.5" font-family="Helvetica,sans-Serif" font-size="10.00">visualization/utils</text>
<text text-anchor="middle" x="270.28" y="-130.5" font-family="Helvetica,sans-Serif" font-size="10.00">/CatalystManagerBase.h</text>
</a>
</g>
</g>
<!-- Node4&#45;&gt;Node7 -->
<g id="edge7" class="edge">
<title>Node4&#45;&gt;Node7</title>
<path fill="none" stroke="midnightblue" d="M242.88,-190.4C247.28,-182.22 252.93,-171.73 257.96,-162.39"/>
<polygon fill="midnightblue" stroke="midnightblue" points="261.05,-164.04 262.7,-153.58 254.88,-160.72 261.05,-164.04"/>
</g>
<!-- Node12 -->
<g id="node12" class="node">
<title>Node12</title>
<g id="a_node12"><a xlink:title=" ">
<polygon fill="white" stroke="#bfbfbf" points="350.78,-129 350.78,-148 445.78,-148 445.78,-129 350.78,-129"/>
<text text-anchor="middle" x="398.28" y="-136" font-family="Helvetica,sans-Serif" font-size="10.00">vtkSmartPointer.h</text>
</a>
</g>
</g>
<!-- Node4&#45;&gt;Node12 -->
<g id="edge17" class="edge">
<title>Node4&#45;&gt;Node12</title>
<path fill="none" stroke="midnightblue" d="M270.65,-190.4C299.51,-178.89 339.86,-162.8 367.42,-151.81"/>
<polygon fill="midnightblue" stroke="midnightblue" points="368.96,-154.96 376.95,-148.01 366.37,-148.46 368.96,-154.96"/>
</g>
<!-- Node7&#45;&gt;Node3 -->
<g id="edge16" class="edge">
<title>Node7&#45;&gt;Node3</title>
<path fill="none" stroke="midnightblue" d="M307.6,-123.36C323.44,-115.28 340.29,-103.42 349.28,-87 359.98,-67.47 346.29,-43.33 334.09,-27.56"/>
<polygon fill="midnightblue" stroke="midnightblue" points="336.7,-25.23 327.63,-19.75 331.3,-29.69 336.7,-25.23"/>
</g>
<!-- Node8 -->
<g id="node8" class="node">
<title>Node8</title>
<g id="a_node8"><a xlink:href="CatalystCGNSMeshBase_8h.html" target="_top" xlink:title=" ">
<polygon fill="white" stroke="black" points="200.28,-56.5 200.28,-86.5 340.28,-86.5 340.28,-56.5 200.28,-56.5"/>
<text text-anchor="start" x="208.28" y="-74.5" font-family="Helvetica,sans-Serif" font-size="10.00">visualization/cgns</text>
<text text-anchor="middle" x="270.28" y="-63.5" font-family="Helvetica,sans-Serif" font-size="10.00">/CatalystCGNSMeshBase.h</text>
</a>
</g>
</g>
<!-- Node7&#45;&gt;Node8 -->
<g id="edge8" class="edge">
<title>Node7&#45;&gt;Node8</title>
<path fill="none" stroke="midnightblue" d="M270.28,-123.4C270.28,-115.64 270.28,-105.81 270.28,-96.86"/>
<polygon fill="midnightblue" stroke="midnightblue" points="273.78,-96.58 270.28,-86.58 266.78,-96.58 273.78,-96.58"/>
</g>
<!-- Node9 -->
<g id="node9" class="node">
<title>Node9</title>
<g id="a_node9"><a xlink:title=" ">
<polygon fill="white" stroke="#bfbfbf" points="151.78,-0.5 151.78,-19.5 192.78,-19.5 192.78,-0.5 151.78,-0.5"/>
<text text-anchor="middle" x="172.28" y="-7.5" font-family="Helvetica,sans-Serif" font-size="10.00">string</text>
</a>
</g>
</g>
<!-- Node7&#45;&gt;Node9 -->
<g id="edge15" class="edge">
<title>Node7&#45;&gt;Node9</title>
<path fill="none" stroke="midnightblue" d="M236.74,-123.31C220.76,-114.95 202.69,-102.86 191.28,-87 179.15,-70.13 174.74,-46.34 173.14,-29.89"/>
<polygon fill="midnightblue" stroke="midnightblue" points="176.63,-29.57 172.43,-19.84 169.65,-30.07 176.63,-29.57"/>
</g>
<!-- Node7&#45;&gt;Node10 -->
<g id="edge11" class="edge">
<title>Node7&#45;&gt;Node10</title>
<path fill="none" stroke="midnightblue" d="M227.32,-123.4C197.22,-113.52 156.82,-100.25 124.81,-89.74"/>
<polygon fill="midnightblue" stroke="midnightblue" points="125.76,-86.37 115.16,-86.58 123.57,-93.02 125.76,-86.37"/>
</g>
<!-- Node11 -->
<g id="node11" class="node">
<title>Node11</title>
<g id="a_node11"><a xlink:title=" ">
<polygon fill="white" stroke="#bfbfbf" points="396.28,-62 396.28,-81 448.28,-81 448.28,-62 396.28,-62"/>
<text text-anchor="middle" x="422.28" y="-69" font-family="Helvetica,sans-Serif" font-size="10.00">memory</text>
</a>
</g>
</g>
<!-- Node7&#45;&gt;Node11 -->
<g id="edge14" class="edge">
<title>Node7&#45;&gt;Node11</title>
<path fill="none" stroke="midnightblue" d="M303.27,-123.4C330.05,-111.94 367.47,-95.94 393.17,-84.95"/>
<polygon fill="midnightblue" stroke="midnightblue" points="394.57,-88.16 402.39,-81.01 391.82,-81.72 394.57,-88.16"/>
</g>
<!-- Node8&#45;&gt;Node3 -->
<g id="edge10" class="edge">
<title>Node8&#45;&gt;Node3</title>
<path fill="none" stroke="midnightblue" d="M281.9,-56.4C289.02,-47.75 298.17,-36.64 305.63,-27.58"/>
<polygon fill="midnightblue" stroke="midnightblue" points="308.5,-29.6 312.15,-19.66 303.1,-25.15 308.5,-29.6"/>
</g>
<!-- Node8&#45;&gt;Node9 -->
<g id="edge9" class="edge">
<title>Node8&#45;&gt;Node9</title>
<path fill="none" stroke="midnightblue" d="M247.06,-56.4C231.5,-46.95 211.09,-34.56 195.52,-25.11"/>
<polygon fill="midnightblue" stroke="midnightblue" points="196.91,-21.86 186.54,-19.66 193.28,-27.84 196.91,-21.86"/>
</g>
<!-- Node10&#45;&gt;Node3 -->
<g id="edge13" class="edge">
<title>Node10&#45;&gt;Node3</title>
<path fill="none" stroke="midnightblue" d="M130.51,-56.47C179.47,-44.68 247.65,-28.26 287.26,-18.71"/>
<polygon fill="midnightblue" stroke="midnightblue" points="288.26,-22.07 297.16,-16.33 286.62,-15.27 288.26,-22.07"/>
</g>
<!-- Node10&#45;&gt;Node9 -->
<g id="edge12" class="edge">
<title>Node10&#45;&gt;Node9</title>
<path fill="none" stroke="midnightblue" d="M95.98,-56.4C112.01,-46.86 133.08,-34.32 149.02,-24.84"/>
<polygon fill="midnightblue" stroke="midnightblue" points="150.93,-27.78 157.73,-19.66 147.35,-21.76 150.93,-27.78"/>
</g>
</g>
</svg>
        <g id="navigator" transform="translate(0 0)" fill="#404254">
                <rect fill="#f2f5e9" fill-opacity="0.5" stroke="#606060" stroke-width=".5" x="0" y="0" width="60" height="60"/>
                <use id="zoomplus" xlink:href="#zoomPlus" x="17" y="9" onmousedown="handleZoom(evt,'in')"/>
                <use id="zoomminus" xlink:href="#zoomMin" x="42" y="9" onmousedown="handleZoom(evt,'out')"/>
                <use id="reset" xlink:href="#resetDef" x="30" y="36" onmousedown="handleReset()"/>
                <g id="arrowUp" xlink:href="#dirArrow" transform="translate(30 24)" onmousedown="handlePan(0,-1)">
                  <use xlink:href="#rim" fill="#404040">
                        <set attributeName="fill" to="#808080" begin="arrowUp.mouseover" end="arrowUp.mouseout"/>
                  </use>
                  <path fill="none" stroke="white" stroke-width="1.5" d="M0,-3.0v7 M-2.5,-0.5L0,-3.0L2.5,-0.5"/>
                </g>
                <g id="arrowRight" xlink:href="#dirArrow" transform="rotate(90) translate(36 -43)" onmousedown="handlePan(1,0)">
                  <use xlink:href="#rim" fill="#404040">
                        <set attributeName="fill" to="#808080" begin="arrowRight.mouseover" end="arrowRight.mouseout"/>
                  </use>
                  <path fill="none" stroke="white" stroke-width="1.5" d="M0,-3.0v7 M-2.5,-0.5L0,-3.0L2.5,-0.5"/>
                </g>
                <g id="arrowDown" xlink:href="#dirArrow" transform="rotate(180) translate(-30 -48)" onmousedown="handlePan(0,1)">
                  <use xlink:href="#rim" fill="#404040">
                        <set attributeName="fill" to="#808080" begin="arrowDown.mouseover" end="arrowDown.mouseout"/>
                  </use>
                  <path fill="none" stroke="white" stroke-width="1.5" d="M0,-3.0v7 M-2.5,-0.5L0,-3.0L2.5,-0.5"/>
                </g>
                <g id="arrowLeft" xlink:href="#dirArrow" transform="rotate(270) translate(-36 17)" onmousedown="handlePan(-1,0)">
                  <use xlink:href="#rim" fill="#404040">
                        <set attributeName="fill" to="#808080" begin="arrowLeft.mouseover" end="arrowLeft.mouseout"/>
                  </use>
                  <path fill="none" stroke="white" stroke-width="1.5" d="M0,-3.0v7 M-2.5,-0.5L0,-3.0L2.5,-0.5"/>
                </g>
        </g>
        <svg viewBox="0 0 15 15" width="100%" height="30px" preserveAspectRatio="xMaxYMin meet">
         <g id="arrow_out" transform="scale(0.3 0.3)">
          <a xlink:href="CatalystExodusMesh_8h__incl_org.svg" target="_base">
           <rect id="button" ry="5" rx="5" y="6" x="6" height="38" width="38"
                fill="#f2f5e9" fill-opacity="0.5" stroke="#606060" stroke-width="1.0"/>
           <path id="arrow"
             d="M 11.500037,31.436501 C 11.940474,20.09759 22.043105,11.32322 32.158766,21.979434 L 37.068811,17.246167 C 37.068811,17.246167 37.088388,32 37.088388,32 L 22.160133,31.978069 C 22.160133,31.978069 26.997745,27.140456 26.997745,27.140456 C 18.528582,18.264221 13.291696,25.230495 11.500037,31.436501 z"
             style="fill:#404040;"/>
          </a>
         </g>
        </svg>
</svg>
