<?xml version="1.0" encoding="UTF-8" standalone="no"?>
<!DOCTYPE svg PUBLIC "-//W3C//DTD SVG 1.1//EN"
 "http://www.w3.org/Graphics/SVG/1.1/DTD/svg11.dtd">
<!-- Generated by graphviz version 2.47.1 (20210417.1919)
 -->
<!-- Title: detail::arg_formatter&lt; OutputIt, Char &gt; Pages: 1 -->
<svg width="954pt" height="236pt"
 viewBox="0.00 0.00 954.00 235.50" xmlns="http://www.w3.org/2000/svg" xmlns:xlink="http://www.w3.org/1999/xlink">
<g id="graph0" class="graph" transform="scale(1 1) rotate(0) translate(4 231.5)">
<title>detail::arg_formatter&lt; OutputIt, Char &gt;</title>
<polygon fill="white" stroke="transparent" points="-4,4 -4,-231.5 950,-231.5 950,4 -4,4"/>
<!-- Node1 -->
<g id="node1" class="node">
<title>Node1</title>
<g id="a_node1"><a xlink:title=" ">
<polygon fill="#bfbfbf" stroke="black" points="842,-56.5 842,-86.5 946,-86.5 946,-56.5 842,-56.5"/>
<text text-anchor="start" x="850" y="-74.5" font-family="Helvetica,sans-Serif" font-size="10.00">detail::arg_formatter</text>
<text text-anchor="middle" x="894" y="-63.5" font-family="Helvetica,sans-Serif" font-size="10.00">&lt; OutputIt, Char &gt;</text>
</a>
</g>
</g>
<!-- Node2 -->
<g id="node2" class="node">
<title>Node2</title>
<g id="a_node2"><a xlink:href="classdetail_1_1arg__formatter__base.html" target="_top" xlink:title=" ">
<polygon fill="white" stroke="black" points="638,-51 638,-92 754,-92 754,-51 638,-51"/>
<text text-anchor="start" x="646" y="-80" font-family="Helvetica,sans-Serif" font-size="10.00">detail::arg_formatter</text>
<text text-anchor="start" x="646" y="-69" font-family="Helvetica,sans-Serif" font-size="10.00">_base&lt; OutputIt, Char,</text>
<text text-anchor="middle" x="696" y="-58" font-family="Helvetica,sans-Serif" font-size="10.00"> ErrorHandler &gt;</text>
</a>
</g>
</g>
<!-- Node2&#45;&gt;Node1 -->
<g id="edge1" class="edge">
<title>Node2&#45;&gt;Node1</title>
<path fill="none" stroke="midnightblue" d="M764.49,-71.5C789.8,-71.5 818.12,-71.5 841.72,-71.5"/>
<polygon fill="midnightblue" stroke="midnightblue" points="764.22,-68 754.22,-71.5 764.22,-75 764.22,-68"/>
</g>
<!-- Node3 -->
<g id="node3" class="node">
<title>Node3</title>
<g id="a_node3"><a xlink:href="classdetail_1_1locale__ref.html" target="_top" xlink:title=" ">
<polygon fill="white" stroke="black" points="462,-100 462,-119 550,-119 550,-100 462,-100"/>
<text text-anchor="middle" x="506" y="-107" font-family="Helvetica,sans-Serif" font-size="10.00">detail::locale_ref</text>
</a>
</g>
</g>
<!-- Node3&#45;&gt;Node2 -->
<g id="edge2" class="edge">
<title>Node3&#45;&gt;Node2</title>
<path fill="none" stroke="#9a32cd" stroke-dasharray="5,2" d="M560.21,-98.74C584.43,-93.85 613.13,-88.05 637.81,-83.06"/>
<polygon fill="#9a32cd" stroke="#9a32cd" points="559.24,-95.37 550.13,-100.78 560.63,-102.23 559.24,-95.37"/>
<text text-anchor="middle" x="602.5" y="-95.5" font-family="Helvetica,sans-Serif" font-size="10.00"> locale_</text>
</g>
<!-- Node5 -->
<g id="node5" class="node">
<title>Node5</title>
<g id="a_node5"><a xlink:href="classbasic__format__context.html" target="_top" xlink:title=" ">
<polygon fill="white" stroke="black" points="641,-111.5 641,-141.5 751,-141.5 751,-111.5 641,-111.5"/>
<text text-anchor="start" x="649" y="-129.5" font-family="Helvetica,sans-Serif" font-size="10.00">basic_format_context</text>
<text text-anchor="middle" x="696" y="-118.5" font-family="Helvetica,sans-Serif" font-size="10.00">&lt; OutputIt, Char &gt;</text>
</a>
</g>
</g>
<!-- Node3&#45;&gt;Node5 -->
<g id="edge5" class="edge">
<title>Node3&#45;&gt;Node5</title>
<path fill="none" stroke="#9a32cd" stroke-dasharray="5,2" d="M560.26,-114.32C585.51,-116.6 615.62,-119.32 640.96,-121.61"/>
<polygon fill="#9a32cd" stroke="#9a32cd" points="560.41,-110.82 550.13,-113.4 559.78,-117.79 560.41,-110.82"/>
<text text-anchor="middle" x="602.5" y="-122.5" font-family="Helvetica,sans-Serif" font-size="10.00"> loc_</text>
</g>
<!-- Node4 -->
<g id="node4" class="node">
<title>Node4</title>
<g id="a_node4"><a xlink:href="structbasic__format__specs.html" target="_top" xlink:title=" ">
<polygon fill="white" stroke="black" points="454,-43.5 454,-73.5 558,-73.5 558,-43.5 454,-43.5"/>
<text text-anchor="start" x="462" y="-61.5" font-family="Helvetica,sans-Serif" font-size="10.00">basic_format_specs</text>
<text text-anchor="middle" x="506" y="-50.5" font-family="Helvetica,sans-Serif" font-size="10.00">&lt; Char &gt;</text>
</a>
</g>
</g>
<!-- Node4&#45;&gt;Node2 -->
<g id="edge3" class="edge">
<title>Node4&#45;&gt;Node2</title>
<path fill="none" stroke="#9a32cd" stroke-dasharray="5,2" d="M568.48,-57.37C585.22,-57.52 603.32,-58.1 620,-59.5 625.78,-59.99 631.79,-60.66 637.78,-61.44"/>
<polygon fill="#9a32cd" stroke="#9a32cd" points="568.28,-53.87 558.26,-57.33 568.25,-60.87 568.28,-53.87"/>
<text text-anchor="middle" x="602.5" y="-62.5" font-family="Helvetica,sans-Serif" font-size="10.00"> specs_</text>
</g>
<!-- Node5&#45;&gt;Node1 -->
<g id="edge4" class="edge">
<title>Node5&#45;&gt;Node1</title>
<path fill="none" stroke="#9a32cd" stroke-dasharray="5,2" d="M760.45,-108.69C786.8,-101.3 816.98,-92.83 841.87,-85.85"/>
<polygon fill="#9a32cd" stroke="#9a32cd" points="759.24,-105.4 750.56,-111.47 761.13,-112.14 759.24,-105.4"/>
<text text-anchor="middle" x="798" y="-106.5" font-family="Helvetica,sans-Serif" font-size="10.00"> ctx_</text>
</g>
<!-- Node6 -->
<g id="node6" class="node">
<title>Node6</title>
<g id="a_node6"><a xlink:href="classbasic__format__args.html" target="_top" xlink:title=" ">
<polygon fill="white" stroke="black" points="445,-145.5 445,-175.5 567,-175.5 567,-145.5 445,-145.5"/>
<text text-anchor="start" x="453" y="-163.5" font-family="Helvetica,sans-Serif" font-size="10.00">basic_format_args&lt;</text>
<text text-anchor="middle" x="506" y="-152.5" font-family="Helvetica,sans-Serif" font-size="10.00"> basic_format_context &gt;</text>
</a>
</g>
</g>
<!-- Node6&#45;&gt;Node5 -->
<g id="edge6" class="edge">
<title>Node6&#45;&gt;Node5</title>
<path fill="none" stroke="#9a32cd" stroke-dasharray="5,2" d="M576.91,-147.86C598.08,-144.03 621.01,-139.88 640.97,-136.27"/>
<polygon fill="#9a32cd" stroke="#9a32cd" points="576.22,-144.42 567,-149.65 577.46,-151.31 576.22,-144.42"/>
<text text-anchor="middle" x="602.5" y="-148.5" font-family="Helvetica,sans-Serif" font-size="10.00"> args_</text>
</g>
<!-- Node7 -->
<g id="node7" class="node">
<title>Node7</title>
<g id="a_node7"><a xlink:href="classbasic__format__arg.html" target="_top" xlink:title=" ">
<polygon fill="white" stroke="black" points="228,-170 228,-189 372,-189 372,-170 228,-170"/>
<text text-anchor="middle" x="300" y="-177" font-family="Helvetica,sans-Serif" font-size="10.00">basic_format_arg&lt; Context &gt;</text>
</a>
</g>
</g>
<!-- Node7&#45;&gt;Node6 -->
<g id="edge7" class="edge">
<title>Node7&#45;&gt;Node6</title>
<path fill="none" stroke="#9a32cd" stroke-dasharray="5,2" d="M382.19,-171.94C403.04,-170 425.1,-167.94 444.69,-166.12"/>
<polygon fill="#9a32cd" stroke="#9a32cd" points="381.7,-168.47 372.06,-172.88 382.34,-175.44 381.7,-168.47"/>
<text text-anchor="middle" x="408.5" y="-173.5" font-family="Helvetica,sans-Serif" font-size="10.00"> args_</text>
</g>
<!-- Node8 -->
<g id="node8" class="node">
<title>Node8</title>
<g id="a_node8"><a xlink:href="classdetail_1_1value.html" target="_top" xlink:title=" ">
<polygon fill="white" stroke="black" points="249.5,-120.5 249.5,-150.5 350.5,-150.5 350.5,-120.5 249.5,-120.5"/>
<text text-anchor="start" x="257.5" y="-138.5" font-family="Helvetica,sans-Serif" font-size="10.00">detail::value&lt; basic</text>
<text text-anchor="middle" x="300" y="-127.5" font-family="Helvetica,sans-Serif" font-size="10.00">_format_context &gt;</text>
</a>
</g>
</g>
<!-- Node8&#45;&gt;Node6 -->
<g id="edge8" class="edge">
<title>Node8&#45;&gt;Node6</title>
<path fill="none" stroke="#9a32cd" stroke-dasharray="5,2" d="M360.57,-142.8C387.12,-146.05 418.33,-149.88 444.93,-153.14"/>
<polygon fill="#9a32cd" stroke="#9a32cd" points="360.99,-139.33 350.64,-141.58 360.14,-146.27 360.99,-139.33"/>
<text text-anchor="middle" x="408.5" y="-152.5" font-family="Helvetica,sans-Serif" font-size="10.00"> values_</text>
</g>
<!-- Node9 -->
<g id="node9" class="node">
<title>Node9</title>
<g id="a_node9"><a xlink:href="structdetail_1_1int128__t.html" target="_top" xlink:title=" ">
<polygon fill="white" stroke="black" points="24,-208 24,-227 104,-227 104,-208 24,-208"/>
<text text-anchor="middle" x="64" y="-215" font-family="Helvetica,sans-Serif" font-size="10.00">detail::int128_t</text>
</a>
</g>
</g>
<!-- Node9&#45;&gt;Node8 -->
<g id="edge9" class="edge">
<title>Node9&#45;&gt;Node8</title>
<path fill="none" stroke="#9a32cd" stroke-dasharray="5,2" d="M114.07,-210.86C143.38,-205.34 180.52,-195.54 210,-178.5 219.8,-172.84 218.43,-166.53 228,-160.5 234.52,-156.39 241.81,-152.85 249.17,-149.83"/>
<polygon fill="#9a32cd" stroke="#9a32cd" points="113.29,-207.44 104.06,-212.64 114.51,-214.33 113.29,-207.44"/>
<text text-anchor="middle" x="178" y="-205.5" font-family="Helvetica,sans-Serif" font-size="10.00"> int128_value</text>
</g>
<!-- Node10 -->
<g id="node10" class="node">
<title>Node10</title>
<g id="a_node10"><a xlink:href="structdetail_1_1uint128__t.html" target="_top" xlink:title=" ">
<polygon fill="white" stroke="black" points="21,-170 21,-189 107,-189 107,-170 21,-170"/>
<text text-anchor="middle" x="64" y="-177" font-family="Helvetica,sans-Serif" font-size="10.00">detail::uint128_t</text>
</a>
</g>
</g>
<!-- Node10&#45;&gt;Node8 -->
<g id="edge10" class="edge">
<title>Node10&#45;&gt;Node8</title>
<path fill="none" stroke="#9a32cd" stroke-dasharray="5,2" d="M117.05,-169.71C156.45,-162.3 210.24,-152.19 249.11,-144.88"/>
<polygon fill="#9a32cd" stroke="#9a32cd" points="116.29,-166.3 107.1,-171.58 117.58,-173.17 116.29,-166.3"/>
<text text-anchor="middle" x="178" y="-166.5" font-family="Helvetica,sans-Serif" font-size="10.00"> uint128_value</text>
</g>
<!-- Node11 -->
<g id="node11" class="node">
<title>Node11</title>
<g id="a_node11"><a xlink:href="structdetail_1_1custom__value.html" target="_top" xlink:title=" ">
<polygon fill="white" stroke="black" points="0,-120.5 0,-150.5 128,-150.5 128,-120.5 0,-120.5"/>
<text text-anchor="start" x="8" y="-138.5" font-family="Helvetica,sans-Serif" font-size="10.00">detail::custom_value</text>
<text text-anchor="middle" x="64" y="-127.5" font-family="Helvetica,sans-Serif" font-size="10.00">&lt; basic_format_context &gt;</text>
</a>
</g>
</g>
<!-- Node11&#45;&gt;Node8 -->
<g id="edge11" class="edge">
<title>Node11&#45;&gt;Node8</title>
<path fill="none" stroke="#9a32cd" stroke-dasharray="5,2" d="M138.02,-135.5C174.18,-135.5 216.88,-135.5 249.22,-135.5"/>
<polygon fill="#9a32cd" stroke="#9a32cd" points="138.02,-132 128.02,-135.5 138.02,-139 138.02,-132"/>
<text text-anchor="middle" x="178" y="-138.5" font-family="Helvetica,sans-Serif" font-size="10.00"> custom</text>
</g>
<!-- Node12 -->
<g id="node12" class="node">
<title>Node12</title>
<g id="a_node12"><a xlink:href="structdetail_1_1string__value.html" target="_top" xlink:title=" ">
<polygon fill="white" stroke="black" points="15,-71.5 15,-101.5 113,-101.5 113,-71.5 15,-71.5"/>
<text text-anchor="start" x="23" y="-89.5" font-family="Helvetica,sans-Serif" font-size="10.00">detail::string_value</text>
<text text-anchor="middle" x="64" y="-78.5" font-family="Helvetica,sans-Serif" font-size="10.00">&lt; char_type &gt;</text>
</a>
</g>
</g>
<!-- Node12&#45;&gt;Node8 -->
<g id="edge12" class="edge">
<title>Node12&#45;&gt;Node8</title>
<path fill="none" stroke="#9a32cd" stroke-dasharray="5,2" d="M123.29,-98.71C162.04,-106.82 212.39,-117.36 249.25,-125.08"/>
<polygon fill="#9a32cd" stroke="#9a32cd" points="123.71,-95.22 113.2,-96.59 122.27,-102.07 123.71,-95.22"/>
<text text-anchor="middle" x="178" y="-119.5" font-family="Helvetica,sans-Serif" font-size="10.00"> string</text>
</g>
<!-- Node13 -->
<g id="node13" class="node">
<title>Node13</title>
<g id="a_node13"><a xlink:href="structdetail_1_1named__arg__value.html" target="_top" xlink:title=" ">
<polygon fill="white" stroke="black" points="3,-22.5 3,-52.5 125,-52.5 125,-22.5 3,-22.5"/>
<text text-anchor="start" x="11" y="-40.5" font-family="Helvetica,sans-Serif" font-size="10.00">detail::named_arg_value</text>
<text text-anchor="middle" x="64" y="-29.5" font-family="Helvetica,sans-Serif" font-size="10.00">&lt; char_type &gt;</text>
</a>
</g>
</g>
<!-- Node13&#45;&gt;Node8 -->
<g id="edge13" class="edge">
<title>Node13&#45;&gt;Node8</title>
<path fill="none" stroke="#9a32cd" stroke-dasharray="5,2" d="M122.99,-55.71C149.82,-64.69 181.91,-76.22 210,-88.5 231.78,-98.02 255.53,-110.69 273.02,-120.47"/>
<polygon fill="#9a32cd" stroke="#9a32cd" points="123.95,-52.34 113.36,-52.52 121.75,-58.99 123.95,-52.34"/>
<text text-anchor="middle" x="178" y="-91.5" font-family="Helvetica,sans-Serif" font-size="10.00"> named_args</text>
</g>
<!-- Node14 -->
<g id="node14" class="node">
<title>Node14</title>
<g id="a_node14"><a xlink:href="classbasic__format__parse__context.html" target="_top" xlink:title=" ">
<polygon fill="white" stroke="black" points="638.5,-0.5 638.5,-30.5 753.5,-30.5 753.5,-0.5 638.5,-0.5"/>
<text text-anchor="start" x="646.5" y="-18.5" font-family="Helvetica,sans-Serif" font-size="10.00">basic_format_parse</text>
<text text-anchor="middle" x="696" y="-7.5" font-family="Helvetica,sans-Serif" font-size="10.00">_context&lt; char_type &gt;</text>
</a>
</g>
</g>
<!-- Node14&#45;&gt;Node1 -->
<g id="edge14" class="edge">
<title>Node14&#45;&gt;Node1</title>
<path fill="none" stroke="#9a32cd" stroke-dasharray="5,2" d="M759.47,-33.35C785.99,-40.93 816.52,-49.65 841.69,-56.84"/>
<polygon fill="#9a32cd" stroke="#9a32cd" points="760.1,-29.89 749.52,-30.51 758.18,-36.62 760.1,-29.89"/>
<text text-anchor="middle" x="798" y="-52.5" font-family="Helvetica,sans-Serif" font-size="10.00"> parse_ctx_</text>
</g>
<!-- Node15 -->
<g id="node15" class="node">
<title>Node15</title>
<g id="a_node15"><a xlink:href="structdetail_1_1error__handler.html" target="_top" xlink:title=" ">
<polygon fill="white" stroke="black" points="455,-5 455,-24 557,-24 557,-5 455,-5"/>
<text text-anchor="middle" x="506" y="-12" font-family="Helvetica,sans-Serif" font-size="10.00">detail::error_handler</text>
</a>
</g>
</g>
<!-- Node15&#45;&gt;Node14 -->
<g id="edge15" class="edge">
<title>Node15&#45;&gt;Node14</title>
<path fill="none" stroke="#8b1a1a" d="M567.56,-14.82C590.22,-14.94 615.86,-15.08 638.17,-15.2"/>
<polygon fill="#8b1a1a" stroke="#8b1a1a" points="567.4,-11.32 557.38,-14.77 567.36,-18.32 567.4,-11.32"/>
</g>
</g>
</svg>
