<?xml version="1.0" encoding="UTF-8" standalone="no"?>
<!DOCTYPE svg PUBLIC "-//W3C//DTD SVG 1.1//EN"
 "http://www.w3.org/Graphics/SVG/1.1/DTD/svg11.dtd">
<!-- Generated by graphviz version 12.1.0 (20240811.2233)
 -->
<!-- Title: Ioss::DynamicTopologyFileControl Pages: 1 -->
<svg width="1475pt" height="389pt"
 viewBox="0.00 0.00 1475.00 389.25" xmlns="http://www.w3.org/2000/svg" xmlns:xlink="http://www.w3.org/1999/xlink">
<g id="graph0" class="graph" transform="scale(1 1) rotate(0) translate(4 385.25)">
<title>Ioss::DynamicTopologyFileControl</title>
<!-- Node1 -->
<g id="Node000001" class="node">
<title>Node1</title>
<g id="a_Node000001"><a xlink:title=" ">
<polygon fill="#999999" stroke="#666666" points="1277.75,-262.88 1143.25,-262.88 1143.25,-232.38 1277.75,-232.38 1277.75,-262.88"/>
<text text-anchor="start" x="1151.25" y="-249.38" font-family="Helvetica,sans-Serif" font-size="10.00">Ioss::DynamicTopologyFile</text>
<text text-anchor="middle" x="1210.5" y="-238.12" font-family="Helvetica,sans-Serif" font-size="10.00">Control</text>
</a>
</g>
</g>
<!-- Node2 -->
<g id="Node000002" class="node">
<title>Node2</title>
<g id="a_Node000002"><a xlink:href="classIoss_1_1Region.html" target="_top" xlink:title="A grouping entity that contains other grouping entities.">
<polygon fill="white" stroke="#666666" points="985.88,-283.25 914.38,-283.25 914.38,-264 985.88,-264 985.88,-283.25"/>
<text text-anchor="middle" x="950.12" y="-269.75" font-family="Helvetica,sans-Serif" font-size="10.00">Ioss::Region</text>
</a>
</g>
</g>
<!-- Node2&#45;&gt;Node1 -->
<g id="edge1_Node000001_Node000002" class="edge">
<title>Node2&#45;&gt;Node1</title>
<g id="a_edge1_Node000001_Node000002"><a xlink:title=" ">
<path fill="none" stroke="#9a32cd" stroke-dasharray="5,2" d="M997.65,-268.94C1038.13,-264.87 1097.29,-258.92 1142.8,-254.34"/>
<polygon fill="#9a32cd" stroke="#9a32cd" points="997.34,-265.46 987.75,-269.94 998.05,-272.42 997.34,-265.46"/>
</a>
</g>
<text text-anchor="middle" x="1075.62" y="-267.69" font-family="Helvetica,sans-Serif" font-size="10.00" fill="grey"> m_region</text>
</g>
<!-- Node15 -->
<g id="Node000015" class="node">
<title>Node15</title>
<g id="a_Node000015"><a xlink:href="classIoss_1_1DatabaseIO.html" target="_top" xlink:title="An input or output Database.">
<polygon fill="white" stroke="#666666" points="1257.12,-129.25 1163.88,-129.25 1163.88,-110 1257.12,-110 1257.12,-129.25"/>
<text text-anchor="middle" x="1210.5" y="-115.75" font-family="Helvetica,sans-Serif" font-size="10.00">Ioss::DatabaseIO</text>
</a>
</g>
</g>
<!-- Node2&#45;&gt;Node15 -->
<g id="edge23_Node000015_Node000002" class="edge">
<title>Node2&#45;&gt;Node15</title>
<g id="a_edge23_Node000015_Node000002"><a xlink:title=" ">
<path fill="none" stroke="#9a32cd" stroke-dasharray="5,2" d="M967.39,-255.38C981.67,-240.19 1003.6,-218.8 1026,-204.38 1066.23,-178.46 1083.1,-185.28 1125.25,-162.62 1133.72,-158.07 1134.87,-155.34 1143.25,-150.62 1156.97,-142.9 1172.94,-135.38 1185.77,-129.69"/>
<polygon fill="#9a32cd" stroke="#9a32cd" points="965.14,-252.66 960.94,-262.39 970.29,-257.4 965.14,-252.66"/>
</a>
</g>
<text text-anchor="middle" x="1075.62" y="-206.12" font-family="Helvetica,sans-Serif" font-size="10.00" fill="grey"> region_</text>
</g>
<!-- Node3 -->
<g id="Node000003" class="node">
<title>Node3</title>
<g id="a_Node000003"><a xlink:href="classIoss_1_1GroupingEntity.html" target="_top" xlink:title="Base class for all &#39;grouping&#39; entities. The following derived classes are typical:">
<polygon fill="white" stroke="#666666" points="1467,-245.25 1361.75,-245.25 1361.75,-226 1467,-226 1467,-245.25"/>
<text text-anchor="middle" x="1414.38" y="-231.75" font-family="Helvetica,sans-Serif" font-size="10.00">Ioss::GroupingEntity</text>
</a>
</g>
</g>
<!-- Node3&#45;&gt;Node2 -->
<g id="edge2_Node000002_Node000003" class="edge">
<title>Node3&#45;&gt;Node2</title>
<g id="a_edge2_Node000002_Node000003"><a xlink:title=" ">
<path fill="none" stroke="#63b8ff" d="M1371.41,-249.02C1344.85,-256.93 1309.62,-266.4 1277.75,-271.62 1167.25,-289.74 1137.82,-287.58 1026,-281.62 1012.95,-280.93 998.66,-279.56 986.11,-278.14"/>
<polygon fill="#63b8ff" stroke="#63b8ff" points="1372.23,-252.43 1380.79,-246.18 1370.2,-245.73 1372.23,-252.43"/>
</a>
</g>
</g>
<!-- Node4 -->
<g id="Node000004" class="node">
<title>Node4</title>
<g id="a_Node000004"><a xlink:href="classIoss_1_1PropertyManager.html" target="_top" xlink:title="A collection of Ioss::Property objects.">
<polygon fill="white" stroke="#666666" points="1007.62,-182.25 892.62,-182.25 892.62,-163 1007.62,-163 1007.62,-182.25"/>
<text text-anchor="middle" x="950.12" y="-168.75" font-family="Helvetica,sans-Serif" font-size="10.00">Ioss::PropertyManager</text>
</a>
</g>
</g>
<!-- Node4&#45;&gt;Node1 -->
<g id="edge24_Node000001_Node000004" class="edge">
<title>Node4&#45;&gt;Node1</title>
<g id="a_edge24_Node000001_Node000004"><a xlink:title=" ">
<path fill="none" stroke="#9a32cd" stroke-dasharray="5,2" d="M973.17,-188.94C987.52,-198.76 1007.03,-210.66 1026,-217.62 1063.43,-231.36 1107.45,-238.82 1142.99,-242.87"/>
<polygon fill="#9a32cd" stroke="#9a32cd" points="975.56,-186.34 965.37,-183.44 971.53,-192.06 975.56,-186.34"/>
</a>
</g>
<text text-anchor="middle" x="1075.62" y="-242.23" font-family="Helvetica,sans-Serif" font-size="10.00" fill="grey"> m_properties</text>
</g>
<!-- Node4&#45;&gt;Node3 -->
<g id="edge3_Node000003_Node000004" class="edge">
<title>Node4&#45;&gt;Node3</title>
<g id="a_edge3_Node000003_Node000004"><a xlink:title=" ">
<path fill="none" stroke="#9a32cd" stroke-dasharray="5,2" d="M1019.2,-176.72C1051.42,-179.01 1090.39,-182.29 1125.25,-186.62 1193.46,-195.11 1209.99,-200.85 1277.75,-212.38 1305.42,-217.08 1336.26,-222.37 1361.54,-226.71"/>
<polygon fill="#9a32cd" stroke="#9a32cd" points="1019.84,-173.26 1009.62,-176.06 1019.35,-180.24 1019.84,-173.26"/>
</a>
</g>
<text text-anchor="middle" x="1210.5" y="-214.12" font-family="Helvetica,sans-Serif" font-size="10.00" fill="grey"> properties</text>
</g>
<!-- Node4&#45;&gt;Node15 -->
<g id="edge19_Node000015_Node000004" class="edge">
<title>Node4&#45;&gt;Node15</title>
<g id="a_edge19_Node000015_Node000004"><a xlink:title=" ">
<path fill="none" stroke="#9a32cd" stroke-dasharray="5,2" d="M987.71,-158.86C999.78,-154.71 1013.34,-150.44 1026,-147.38 1072.19,-136.19 1126.07,-128.68 1163.44,-124.32"/>
<polygon fill="#9a32cd" stroke="#9a32cd" points="986.82,-155.46 978.56,-162.1 989.15,-162.06 986.82,-155.46"/>
</a>
</g>
<text text-anchor="middle" x="1075.62" y="-149.12" font-family="Helvetica,sans-Serif" font-size="10.00" fill="grey"> properties</text>
</g>
<!-- Node5 -->
<g id="Node000005" class="node">
<title>Node5</title>
<g id="a_Node000005"><a xlink:href="classtsl_1_1robin__map.html" target="_top" xlink:title=" ">
<polygon fill="white" stroke="#666666" points="797,-195.88 697,-195.88 697,-165.38 797,-165.38 797,-195.88"/>
<text text-anchor="start" x="705" y="-182.38" font-family="Helvetica,sans-Serif" font-size="10.00">tsl::robin_map&lt; std</text>
<text text-anchor="middle" x="747" y="-171.12" font-family="Helvetica,sans-Serif" font-size="10.00">::string, Property &gt;</text>
</a>
</g>
</g>
<!-- Node5&#45;&gt;Node4 -->
<g id="edge4_Node000004_Node000005" class="edge">
<title>Node5&#45;&gt;Node4</title>
<g id="a_edge4_Node000004_Node000005"><a xlink:title=" ">
<path fill="none" stroke="#9a32cd" stroke-dasharray="5,2" d="M808.92,-178.2C835.44,-177.15 866.35,-175.92 892.38,-174.88"/>
<polygon fill="#9a32cd" stroke="#9a32cd" points="808.82,-174.7 798.97,-178.6 809.1,-181.7 808.82,-174.7"/>
</a>
</g>
<text text-anchor="middle" x="844.62" y="-179.56" font-family="Helvetica,sans-Serif" font-size="10.00" fill="grey"> m_properties</text>
</g>
<!-- Node6 -->
<g id="Node000006" class="node">
<title>Node6</title>
<g id="a_Node000006"><a xlink:href="classtsl_1_1detail__robin__hash_1_1robin__hash.html" target="_top" xlink:title=" ">
<polygon fill="white" stroke="#666666" points="636.25,-247.25 428.25,-247.25 428.25,-138 636.25,-138 636.25,-247.25"/>
<text text-anchor="start" x="436.25" y="-233.75" font-family="Helvetica,sans-Serif" font-size="10.00">tsl::detail_robin_hash</text>
<text text-anchor="start" x="436.25" y="-222.5" font-family="Helvetica,sans-Serif" font-size="10.00">::robin_hash&lt; std::pair</text>
<text text-anchor="start" x="436.25" y="-211.25" font-family="Helvetica,sans-Serif" font-size="10.00">&lt; std::string, Property</text>
<text text-anchor="start" x="436.25" y="-200" font-family="Helvetica,sans-Serif" font-size="10.00"> &gt;, KeySelect, ValueSelect,</text>
<text text-anchor="start" x="436.25" y="-188.75" font-family="Helvetica,sans-Serif" font-size="10.00"> std::hash&lt; std::string &gt;,</text>
<text text-anchor="start" x="436.25" y="-177.5" font-family="Helvetica,sans-Serif" font-size="10.00"> std::equal_to&lt; std::string</text>
<text text-anchor="start" x="436.25" y="-166.25" font-family="Helvetica,sans-Serif" font-size="10.00"> &gt;, std::allocator&lt; std::pair</text>
<text text-anchor="start" x="436.25" y="-155" font-family="Helvetica,sans-Serif" font-size="10.00">&lt; std::string, Property &gt; &gt;, false,</text>
<text text-anchor="middle" x="532.25" y="-143.75" font-family="Helvetica,sans-Serif" font-size="10.00"> tsl::rh::power_of_two_growth_policy&lt; 2 &gt; &gt;</text>
</a>
</g>
</g>
<!-- Node6&#45;&gt;Node5 -->
<g id="edge5_Node000005_Node000006" class="edge">
<title>Node6&#45;&gt;Node5</title>
<g id="a_edge5_Node000005_Node000006"><a xlink:title=" ">
<path fill="none" stroke="#9a32cd" stroke-dasharray="5,2" d="M647.81,-186.16C664.96,-185.2 681.83,-184.24 696.62,-183.41"/>
<polygon fill="#9a32cd" stroke="#9a32cd" points="647.81,-182.66 638.02,-186.72 648.2,-189.65 647.81,-182.66"/>
</a>
</g>
<text text-anchor="middle" x="666.62" y="-187.3" font-family="Helvetica,sans-Serif" font-size="10.00" fill="grey"> m_ht</text>
</g>
<!-- Node7 -->
<g id="Node000007" class="node">
<title>Node7</title>
<g id="a_Node000007"><a xlink:title=" ">
<polygon fill="white" stroke="#666666" points="332.62,-358.25 214.62,-358.25 214.62,-339 332.62,-339 332.62,-358.25"/>
<text text-anchor="middle" x="273.62" y="-344.75" font-family="Helvetica,sans-Serif" font-size="10.00">std::hash&lt; std::string &gt;</text>
</a>
</g>
</g>
<!-- Node7&#45;&gt;Node6 -->
<g id="edge6_Node000006_Node000007" class="edge">
<title>Node7&#45;&gt;Node6</title>
<g id="a_edge6_Node000006_Node000007"><a xlink:title=" ">
<path fill="none" stroke="#8b1a1a" d="M325.01,-334.76C330.6,-332.63 336.12,-330.25 341.25,-327.62 384.21,-305.62 388.95,-290.64 428.25,-262.62 435.12,-257.73 442.28,-252.7 449.49,-247.7"/>
<polygon fill="#8b1a1a" stroke="#8b1a1a" points="323.95,-331.42 315.68,-338.04 326.28,-338.02 323.95,-331.42"/>
</a>
</g>
</g>
<!-- Node14 -->
<g id="Node000014" class="node">
<title>Node14</title>
<g id="a_Node000014"><a xlink:href="classtsl_1_1detail__robin__hash_1_1robin__hash.html" target="_top" xlink:title=" ">
<polygon fill="white" stroke="#666666" points="636.25,-381.25 428.25,-381.25 428.25,-272 636.25,-272 636.25,-381.25"/>
<text text-anchor="start" x="436.25" y="-367.75" font-family="Helvetica,sans-Serif" font-size="10.00">tsl::detail_robin_hash</text>
<text text-anchor="start" x="436.25" y="-356.5" font-family="Helvetica,sans-Serif" font-size="10.00">::robin_hash&lt; std::pair</text>
<text text-anchor="start" x="436.25" y="-345.25" font-family="Helvetica,sans-Serif" font-size="10.00">&lt; std::string, Field &gt;,</text>
<text text-anchor="start" x="436.25" y="-334" font-family="Helvetica,sans-Serif" font-size="10.00"> KeySelect, ValueSelect,</text>
<text text-anchor="start" x="436.25" y="-322.75" font-family="Helvetica,sans-Serif" font-size="10.00"> std::hash&lt; std::string &gt;,</text>
<text text-anchor="start" x="436.25" y="-311.5" font-family="Helvetica,sans-Serif" font-size="10.00"> std::equal_to&lt; std::string</text>
<text text-anchor="start" x="436.25" y="-300.25" font-family="Helvetica,sans-Serif" font-size="10.00"> &gt;, std::allocator&lt; std::pair</text>
<text text-anchor="start" x="436.25" y="-289" font-family="Helvetica,sans-Serif" font-size="10.00">&lt; std::string, Field &gt; &gt;, false,</text>
<text text-anchor="middle" x="532.25" y="-277.75" font-family="Helvetica,sans-Serif" font-size="10.00"> tsl::rh::power_of_two_growth_policy&lt; 2 &gt; &gt;</text>
</a>
</g>
</g>
<!-- Node7&#45;&gt;Node14 -->
<g id="edge14_Node000014_Node000007" class="edge">
<title>Node7&#45;&gt;Node14</title>
<g id="a_edge14_Node000014_Node000007"><a xlink:title=" ">
<path fill="none" stroke="#8b1a1a" d="M344.24,-343.11C365.44,-341.39 388.8,-339.47 410.25,-337.62 416.03,-337.13 421.96,-336.61 427.95,-336.08"/>
<polygon fill="#8b1a1a" stroke="#8b1a1a" points="344.24,-339.6 334.56,-343.89 344.81,-346.58 344.24,-339.6"/>
</a>
</g>
</g>
<!-- Node8 -->
<g id="Node000008" class="node">
<title>Node8</title>
<g id="a_Node000008"><a xlink:title=" ">
<polygon fill="white" stroke="#666666" points="321,-318.88 226.25,-318.88 226.25,-288.38 321,-288.38 321,-318.88"/>
<text text-anchor="start" x="234.25" y="-305.38" font-family="Helvetica,sans-Serif" font-size="10.00">std::equal_to&lt; std</text>
<text text-anchor="middle" x="273.62" y="-294.12" font-family="Helvetica,sans-Serif" font-size="10.00">::string &gt;</text>
</a>
</g>
</g>
<!-- Node8&#45;&gt;Node6 -->
<g id="edge7_Node000006_Node000008" class="edge">
<title>Node8&#45;&gt;Node6</title>
<g id="a_edge7_Node000006_Node000008"><a xlink:title=" ">
<path fill="none" stroke="#8b1a1a" d="M321.35,-283.42C351.14,-270.53 390.95,-253.31 427.9,-237.33"/>
<polygon fill="#8b1a1a" stroke="#8b1a1a" points="320.03,-280.17 312.24,-287.36 322.81,-286.6 320.03,-280.17"/>
</a>
</g>
</g>
<!-- Node8&#45;&gt;Node14 -->
<g id="edge15_Node000014_Node000008" class="edge">
<title>Node8&#45;&gt;Node14</title>
<g id="a_edge15_Node000014_Node000008"><a xlink:title=" ">
<path fill="none" stroke="#8b1a1a" d="M332.63,-308.82C360.77,-311.35 395.44,-314.45 427.89,-317.36"/>
<polygon fill="#8b1a1a" stroke="#8b1a1a" points="333.18,-305.36 322.9,-307.95 332.55,-312.33 333.18,-305.36"/>
</a>
</g>
</g>
<!-- Node9 -->
<g id="Node000009" class="node">
<title>Node9</title>
<g id="a_Node000009"><a xlink:href="classtsl_1_1rh_1_1power__of__two__growth__policy.html" target="_top" xlink:title=" ">
<polygon fill="white" stroke="#666666" points="327.38,-264.88 219.88,-264.88 219.88,-234.38 327.38,-234.38 327.38,-264.88"/>
<text text-anchor="start" x="227.88" y="-251.38" font-family="Helvetica,sans-Serif" font-size="10.00">tsl::rh::power_of_two</text>
<text text-anchor="middle" x="273.62" y="-240.12" font-family="Helvetica,sans-Serif" font-size="10.00">_growth_policy&lt; 2 &gt;</text>
</a>
</g>
</g>
<!-- Node9&#45;&gt;Node6 -->
<g id="edge8_Node000006_Node000009" class="edge">
<title>Node9&#45;&gt;Node6</title>
<g id="a_edge8_Node000006_Node000009"><a xlink:title=" ">
<path fill="none" stroke="#8b1a1a" d="M315.3,-228.85C336.67,-217.95 358.6,-206.81 359.25,-206.62 381.02,-200.47 404.9,-196.73 427.77,-194.51"/>
<polygon fill="#8b1a1a" stroke="#8b1a1a" points="313.94,-225.61 306.63,-233.28 317.12,-231.85 313.94,-225.61"/>
</a>
</g>
</g>
<!-- Node9&#45;&gt;Node14 -->
<g id="edge16_Node000014_Node000009" class="edge">
<title>Node9&#45;&gt;Node14</title>
<g id="a_edge16_Node000014_Node000009"><a xlink:title=" ">
<path fill="none" stroke="#8b1a1a" d="M337.77,-268.57C364.94,-276.72 397.41,-286.47 427.93,-295.62"/>
<polygon fill="#8b1a1a" stroke="#8b1a1a" points="338.9,-265.26 328.32,-265.73 336.89,-271.96 338.9,-265.26"/>
</a>
</g>
</g>
<!-- Node10 -->
<g id="Node000010" class="node">
<title>Node10</title>
<g id="a_Node000010"><a xlink:href="classtsl_1_1detail__robin__hash_1_1bucket__entry.html" target="_top" xlink:title=" ">
<polygon fill="white" stroke="#666666" points="341.25,-206.5 206,-206.5 206,-164.75 341.25,-164.75 341.25,-206.5"/>
<text text-anchor="start" x="214" y="-193" font-family="Helvetica,sans-Serif" font-size="10.00">tsl::detail_robin_hash</text>
<text text-anchor="start" x="214" y="-181.75" font-family="Helvetica,sans-Serif" font-size="10.00">::bucket_entry&lt; ValueType,</text>
<text text-anchor="middle" x="273.62" y="-170.5" font-family="Helvetica,sans-Serif" font-size="10.00"> StoreHash &gt;</text>
</a>
</g>
</g>
<!-- Node10&#45;&gt;Node6 -->
<g id="edge9_Node000006_Node000010" class="edge">
<title>Node10&#45;&gt;Node6</title>
<g id="a_edge9_Node000006_Node000010"><a xlink:title=" ">
<path fill="none" stroke="#9a32cd" stroke-dasharray="5,2" d="M352.62,-168.17C354.85,-167.87 357.06,-167.61 359.25,-167.38 381.61,-164.99 405.52,-166.13 428.19,-168.95"/>
<polygon fill="#9a32cd" stroke="#9a32cd" points="352.26,-164.68 342.89,-169.63 353.3,-171.61 352.26,-164.68"/>
</a>
</g>
<text text-anchor="middle" x="384.75" y="-169.12" font-family="Helvetica,sans-Serif" font-size="10.00" fill="grey"> m_buckets</text>
</g>
<!-- Node10&#45;&gt;Node14 -->
<g id="edge17_Node000014_Node000010" class="edge">
<title>Node10&#45;&gt;Node14</title>
<g id="a_edge17_Node000014_Node000010"><a xlink:title=" ">
<path fill="none" stroke="#9a32cd" stroke-dasharray="5,2" d="M323.25,-212.34C353.72,-229.08 394.1,-251.27 431.18,-271.64"/>
<polygon fill="#9a32cd" stroke="#9a32cd" points="325.1,-209.36 314.65,-207.62 321.73,-215.5 325.1,-209.36"/>
</a>
</g>
<text text-anchor="middle" x="384.75" y="-257.88" font-family="Helvetica,sans-Serif" font-size="10.00" fill="grey"> m_buckets</text>
</g>
<!-- Node11 -->
<g id="Node000011" class="node">
<title>Node11</title>
<g id="a_Node000011"><a xlink:href="classtsl_1_1detail__robin__hash_1_1bucket__entry__hash.html" target="_top" xlink:title=" ">
<polygon fill="white" stroke="#666666" points="169,-200.88 0,-200.88 0,-170.38 169,-170.38 169,-200.88"/>
<text text-anchor="start" x="8" y="-187.38" font-family="Helvetica,sans-Serif" font-size="10.00">tsl::detail_robin_hash</text>
<text text-anchor="middle" x="84.5" y="-176.12" font-family="Helvetica,sans-Serif" font-size="10.00">::bucket_entry_hash&lt; StoreHash &gt;</text>
</a>
</g>
</g>
<!-- Node11&#45;&gt;Node10 -->
<g id="edge10_Node000010_Node000011" class="edge">
<title>Node11&#45;&gt;Node10</title>
<g id="a_edge10_Node000010_Node000011"><a xlink:title=" ">
<path fill="none" stroke="#63b8ff" d="M180.91,-185.62C189.3,-185.62 197.66,-185.62 205.74,-185.62"/>
<polygon fill="#63b8ff" stroke="#63b8ff" points="181,-182.13 171,-185.63 181,-189.13 181,-182.13"/>
</a>
</g>
</g>
<!-- Node12 -->
<g id="Node000012" class="node">
<title>Node12</title>
<g id="a_Node000012"><a xlink:href="classIoss_1_1FieldManager.html" target="_top" xlink:title="A collection of Ioss::Field objects.">
<polygon fill="white" stroke="#666666" points="1125.25,-347.25 1026,-347.25 1026,-328 1125.25,-328 1125.25,-347.25"/>
<text text-anchor="middle" x="1075.62" y="-333.75" font-family="Helvetica,sans-Serif" font-size="10.00">Ioss::FieldManager</text>
</a>
</g>
</g>
<!-- Node12&#45;&gt;Node3 -->
<g id="edge11_Node000003_Node000012" class="edge">
<title>Node12&#45;&gt;Node3</title>
<g id="a_edge11_Node000003_Node000012"><a xlink:title=" ">
<path fill="none" stroke="#9a32cd" stroke-dasharray="5,2" d="M1136.84,-344.4C1193.34,-348.04 1278.66,-346.35 1343.75,-313.62 1374.4,-298.22 1397.74,-263.04 1407.86,-245.69"/>
<polygon fill="#9a32cd" stroke="#9a32cd" points="1137.33,-340.93 1127.1,-343.69 1136.82,-347.91 1137.33,-340.93"/>
</a>
</g>
<text text-anchor="middle" x="1210.5" y="-347.5" font-family="Helvetica,sans-Serif" font-size="10.00" fill="grey"> fields</text>
</g>
<!-- Node13 -->
<g id="Node000013" class="node">
<title>Node13</title>
<g id="a_Node000013"><a xlink:href="classtsl_1_1robin__map.html" target="_top" xlink:title=" ">
<polygon fill="white" stroke="#666666" points="797,-342.88 697,-342.88 697,-312.38 797,-312.38 797,-342.88"/>
<text text-anchor="start" x="705" y="-329.38" font-family="Helvetica,sans-Serif" font-size="10.00">tsl::robin_map&lt; std</text>
<text text-anchor="middle" x="747" y="-318.12" font-family="Helvetica,sans-Serif" font-size="10.00">::string, Field &gt;</text>
</a>
</g>
</g>
<!-- Node13&#45;&gt;Node12 -->
<g id="edge12_Node000012_Node000013" class="edge">
<title>Node13&#45;&gt;Node12</title>
<g id="a_edge12_Node000012_Node000013"><a xlink:title=" ">
<path fill="none" stroke="#9a32cd" stroke-dasharray="5,2" d="M808.52,-329.48C871.07,-331.39 967.52,-334.35 1025.51,-336.12"/>
<polygon fill="#9a32cd" stroke="#9a32cd" points="808.87,-325.99 798.77,-329.18 808.65,-332.98 808.87,-325.99"/>
</a>
</g>
<text text-anchor="middle" x="844.62" y="-333.1" font-family="Helvetica,sans-Serif" font-size="10.00" fill="grey"> fields</text>
</g>
<!-- Node14&#45;&gt;Node13 -->
<g id="edge13_Node000013_Node000014" class="edge">
<title>Node14&#45;&gt;Node13</title>
<g id="a_edge13_Node000013_Node000014"><a xlink:title=" ">
<path fill="none" stroke="#9a32cd" stroke-dasharray="5,2" d="M647.81,-327.16C664.96,-327.24 681.83,-327.32 696.62,-327.39"/>
<polygon fill="#9a32cd" stroke="#9a32cd" points="648.04,-323.66 638.02,-327.12 648.01,-330.66 648.04,-323.66"/>
</a>
</g>
<text text-anchor="middle" x="666.62" y="-329.05" font-family="Helvetica,sans-Serif" font-size="10.00" fill="grey"> m_ht</text>
</g>
<!-- Node15&#45;&gt;Node3 -->
<g id="edge18_Node000003_Node000015" class="edge">
<title>Node15&#45;&gt;Node3</title>
<g id="a_edge18_Node000003_Node000015"><a xlink:title=" ">
<path fill="none" stroke="#9a32cd" stroke-dasharray="5,2" d="M1268.89,-122.97C1293.41,-126.52 1321.46,-133.56 1343.75,-147.38 1375.6,-167.11 1398.84,-206.89 1408.47,-225.54"/>
<polygon fill="#9a32cd" stroke="#9a32cd" points="1269.41,-119.51 1259.05,-121.72 1268.53,-126.45 1269.41,-119.51"/>
</a>
</g>
<text text-anchor="middle" x="1319.75" y="-149.12" font-family="Helvetica,sans-Serif" font-size="10.00" fill="grey"> database_</text>
</g>
<!-- Node16 -->
<g id="Node000016" class="node">
<title>Node16</title>
<g id="a_Node000016"><a xlink:href="classIoss_1_1ElementTopology.html" target="_top" xlink:title="Represents an element topology.">
<polygon fill="white" stroke="#666666" points="1008,-86.25 892.25,-86.25 892.25,-67 1008,-67 1008,-86.25"/>
<text text-anchor="middle" x="950.12" y="-72.75" font-family="Helvetica,sans-Serif" font-size="10.00">Ioss::ElementTopology</text>
</a>
</g>
</g>
<!-- Node16&#45;&gt;Node15 -->
<g id="edge20_Node000015_Node000016" class="edge">
<title>Node16&#45;&gt;Node15</title>
<g id="a_edge20_Node000015_Node000016"><a xlink:title=" ">
<path fill="none" stroke="#9a32cd" stroke-dasharray="5,2" d="M1019.4,-82.53C1051.66,-85.89 1090.61,-90.77 1125.25,-97.38 1142.04,-100.58 1160.43,-105.29 1175.72,-109.55"/>
<polygon fill="#9a32cd" stroke="#9a32cd" points="1020.1,-79.09 1009.79,-81.56 1019.39,-86.05 1020.1,-79.09"/>
</a>
</g>
<text text-anchor="middle" x="1075.62" y="-99.12" font-family="Helvetica,sans-Serif" font-size="10.00" fill="grey"> commonSideTopology</text>
</g>
<!-- Node17 -->
<g id="Node000017" class="node">
<title>Node17</title>
<g id="a_Node000017"><a xlink:href="classIoss_1_1Map.html" target="_top" xlink:title=" ">
<polygon fill="white" stroke="#666666" points="979.88,-19.25 920.38,-19.25 920.38,0 979.88,0 979.88,-19.25"/>
<text text-anchor="middle" x="950.12" y="-5.75" font-family="Helvetica,sans-Serif" font-size="10.00">Ioss::Map</text>
</a>
</g>
</g>
<!-- Node17&#45;&gt;Node15 -->
<g id="edge21_Node000015_Node000017" class="edge">
<title>Node17&#45;&gt;Node15</title>
<g id="a_edge21_Node000015_Node000017"><a xlink:title=" ">
<path fill="none" stroke="#9a32cd" stroke-dasharray="5,2" d="M991.48,-8.29C1028.23,-8.69 1083.03,-13.38 1125.25,-34.62 1160.89,-52.56 1190.46,-91.4 1203.02,-109.71"/>
<polygon fill="#9a32cd" stroke="#9a32cd" points="991.73,-4.79 981.74,-8.3 991.74,-11.79 991.73,-4.79"/>
</a>
</g>
<text text-anchor="middle" x="1075.62" y="-70.12" font-family="Helvetica,sans-Serif" font-size="10.00" fill="grey"> edgeMap</text>
<text text-anchor="middle" x="1075.62" y="-58.88" font-family="Helvetica,sans-Serif" font-size="10.00" fill="grey">elemMap</text>
<text text-anchor="middle" x="1075.62" y="-47.62" font-family="Helvetica,sans-Serif" font-size="10.00" fill="grey">faceMap</text>
<text text-anchor="middle" x="1075.62" y="-36.38" font-family="Helvetica,sans-Serif" font-size="10.00" fill="grey">nodeMap</text>
</g>
<!-- Node18 -->
<g id="Node000018" class="node">
<title>Node18</title>
<g id="a_Node000018"><a xlink:href="classIoss_1_1ParallelUtils.html" target="_top" xlink:title=" ">
<polygon fill="white" stroke="#666666" points="996.75,-123.25 903.5,-123.25 903.5,-104 996.75,-104 996.75,-123.25"/>
<text text-anchor="middle" x="950.12" y="-109.75" font-family="Helvetica,sans-Serif" font-size="10.00">Ioss::ParallelUtils</text>
</a>
</g>
</g>
<!-- Node18&#45;&gt;Node15 -->
<g id="edge22_Node000015_Node000018" class="edge">
<title>Node18&#45;&gt;Node15</title>
<g id="a_edge22_Node000015_Node000018"><a xlink:title=" ">
<path fill="none" stroke="#9a32cd" stroke-dasharray="5,2" d="M1008.41,-113.41C1014.35,-113.4 1020.3,-113.38 1026,-113.38 1070.11,-113.3 1081.17,-111.74 1125.25,-113.38 1137.71,-113.84 1151.18,-114.68 1163.62,-115.6"/>
<polygon fill="#9a32cd" stroke="#9a32cd" points="1008.56,-109.91 998.57,-113.44 1008.58,-116.91 1008.56,-109.91"/>
</a>
</g>
<text text-anchor="middle" x="1075.62" y="-115.12" font-family="Helvetica,sans-Serif" font-size="10.00" fill="grey"> util_</text>
</g>
</g>
</svg>
