<?xml version="1.0" encoding="UTF-8" standalone="no"?>
<!DOCTYPE svg PUBLIC "-//W3C//DTD SVG 1.1//EN"
 "http://www.w3.org/Graphics/SVG/1.1/DTD/svg11.dtd">
<!-- Generated by graphviz version 3.0.0 (20220226.1711)
 -->
<!-- Title: tsl::rh::power_of_two_growth_policy&lt; GrowthFactor &gt; Pages: 1 -->
<svg width="392pt" height="188pt"
 viewBox="0.00 0.00 392.00 187.50" xmlns="http://www.w3.org/2000/svg" xmlns:xlink="http://www.w3.org/1999/xlink">
<g id="graph0" class="graph" transform="scale(1 1) rotate(0) translate(4 183.5)">
<title>tsl::rh::power_of_two_growth_policy&lt; GrowthFactor &gt;</title>
<polygon fill="white" stroke="transparent" points="-4,4 -4,-183.5 388,-183.5 388,4 -4,4"/>
<!-- Node1 -->
<g id="node1" class="node">
<title>Node1</title>
<g id="a_node1"><a xlink:title=" ">
<polygon fill="#bfbfbf" stroke="black" points="0,-71.5 0,-101.5 159,-101.5 159,-71.5 0,-71.5"/>
<text text-anchor="start" x="8" y="-89.5" font-family="Helvetica,sans-Serif" font-size="10.00">tsl::rh::power_of_two</text>
<text text-anchor="middle" x="79.5" y="-78.5" font-family="Helvetica,sans-Serif" font-size="10.00">_growth_policy&lt; GrowthFactor &gt;</text>
</a>
</g>
</g>
<!-- Node2 -->
<g id="node2" class="node">
<title>Node2</title>
<g id="a_node2"><a xlink:href="classtsl_1_1detail__robin__hash_1_1robin__hash.html" target="_top" xlink:title=" ">
<polygon fill="white" stroke="black" points="195,-94 195,-179 384,-179 384,-94 195,-94"/>
<text text-anchor="start" x="203" y="-167" font-family="Helvetica,sans-Serif" font-size="10.00">tsl::detail_robin_hash</text>
<text text-anchor="start" x="203" y="-156" font-family="Helvetica,sans-Serif" font-size="10.00">::robin_hash&lt; std::pair</text>
<text text-anchor="start" x="203" y="-145" font-family="Helvetica,sans-Serif" font-size="10.00">&lt; Key, T &gt;, KeySelect, ValueSelect,</text>
<text text-anchor="start" x="203" y="-134" font-family="Helvetica,sans-Serif" font-size="10.00"> std::hash&lt; Key &gt;, std::equal</text>
<text text-anchor="start" x="203" y="-123" font-family="Helvetica,sans-Serif" font-size="10.00">_to&lt; Key &gt;, std::allocator&lt; std</text>
<text text-anchor="start" x="203" y="-112" font-family="Helvetica,sans-Serif" font-size="10.00">::pair&lt; Key, T &gt; &gt;, false, tsl::</text>
<text text-anchor="middle" x="289.5" y="-101" font-family="Helvetica,sans-Serif" font-size="10.00">rh::power_of_two_growth_policy&lt; 2 &gt; &gt;</text>
</a>
</g>
</g>
<!-- Node1&#45;&gt;Node2 -->
<g id="edge1" class="edge">
<title>Node1&#45;&gt;Node2</title>
<path fill="none" stroke="#8b1a1a" d="M152.69,-103.85C166.33,-107.13 180.79,-110.61 194.98,-114.02"/>
<polygon fill="#8b1a1a" stroke="#8b1a1a" points="153.45,-100.44 142.91,-101.5 151.81,-107.24 153.45,-100.44"/>
</g>
<!-- Node3 -->
<g id="node3" class="node">
<title>Node3</title>
<g id="a_node3"><a xlink:href="classtsl_1_1detail__robin__hash_1_1robin__hash.html" target="_top" xlink:title=" ">
<polygon fill="white" stroke="black" points="211,-0.5 211,-74.5 368,-74.5 368,-0.5 211,-0.5"/>
<text text-anchor="start" x="219" y="-62.5" font-family="Helvetica,sans-Serif" font-size="10.00">tsl::detail_robin_hash</text>
<text text-anchor="start" x="219" y="-51.5" font-family="Helvetica,sans-Serif" font-size="10.00">::robin_hash&lt; Key, KeySelect,</text>
<text text-anchor="start" x="219" y="-40.5" font-family="Helvetica,sans-Serif" font-size="10.00"> void, std::hash&lt; Key &gt;, std</text>
<text text-anchor="start" x="219" y="-29.5" font-family="Helvetica,sans-Serif" font-size="10.00">::equal_to&lt; Key &gt;, std::allocator</text>
<text text-anchor="start" x="219" y="-18.5" font-family="Helvetica,sans-Serif" font-size="10.00">&lt; Key &gt;, false, tsl::rh::power_of</text>
<text text-anchor="middle" x="289.5" y="-7.5" font-family="Helvetica,sans-Serif" font-size="10.00">_two_growth_policy&lt; 2 &gt; &gt;</text>
</a>
</g>
</g>
<!-- Node1&#45;&gt;Node3 -->
<g id="edge2" class="edge">
<title>Node1&#45;&gt;Node3</title>
<path fill="none" stroke="#8b1a1a" d="M154.09,-69.16C172.49,-64.83 192.28,-60.17 210.87,-55.79"/>
<polygon fill="#8b1a1a" stroke="#8b1a1a" points="153.25,-65.77 144.32,-71.47 154.86,-72.58 153.25,-65.77"/>
</g>
</g>
</svg>
