<?xml version="1.0" encoding="UTF-8" standalone="no"?>
<!DOCTYPE svg PUBLIC "-//W3C//DTD SVG 1.1//EN"
 "http://www.w3.org/Graphics/SVG/1.1/DTD/svg11.dtd">
<!-- Generated by graphviz version 2.47.3 (20210619.1520)
 -->
<!-- Title: dynamic_specs_handler&lt; ParseContext &gt; Pages: 1 -->
<svg width="286pt" height="185pt"
 viewBox="0.00 0.00 286.00 185.00" xmlns="http://www.w3.org/2000/svg" xmlns:xlink="http://www.w3.org/1999/xlink">
<g id="graph0" class="graph" transform="scale(1 1) rotate(0) translate(4 181)">
<title>dynamic_specs_handler&lt; ParseContext &gt;</title>
<polygon fill="white" stroke="transparent" points="-4,4 -4,-181 282,-181 282,4 -4,4"/>
<!-- Node1 -->
<g id="node1" class="node">
<title>Node1</title>
<g id="a_node1"><a xlink:title=" ">
<polygon fill="#bfbfbf" stroke="black" points="55,-0.5 55,-30.5 177,-30.5 177,-0.5 55,-0.5"/>
<text text-anchor="start" x="63" y="-18.5" font-family="Helvetica,sans-Serif" font-size="10.00">dynamic_specs_handler</text>
<text text-anchor="middle" x="116" y="-7.5" font-family="Helvetica,sans-Serif" font-size="10.00">&lt; ParseContext &gt;</text>
</a>
</g>
</g>
<!-- Node2 -->
<g id="node2" class="node">
<title>Node2</title>
<g id="a_node2"><a xlink:href="classspecs__setter.html" target="_top" xlink:title=" ">
<polygon fill="white" stroke="black" points="0,-78.5 0,-108.5 142,-108.5 142,-78.5 0,-78.5"/>
<text text-anchor="start" x="8" y="-96.5" font-family="Helvetica,sans-Serif" font-size="10.00">specs_setter&lt; ParseContext</text>
<text text-anchor="middle" x="71" y="-85.5" font-family="Helvetica,sans-Serif" font-size="10.00">::char_type &gt;</text>
</a>
</g>
</g>
<!-- Node2&#45;&gt;Node1 -->
<g id="edge1" class="edge">
<title>Node2&#45;&gt;Node1</title>
<path fill="none" stroke="midnightblue" d="M84.57,-69.57C92.06,-56.94 101.11,-41.65 107.57,-30.73"/>
<polygon fill="midnightblue" stroke="midnightblue" points="81.55,-67.82 79.46,-78.2 87.57,-71.38 81.55,-67.82"/>
</g>
<!-- Node3 -->
<g id="node3" class="node">
<title>Node3</title>
<g id="a_node3"><a xlink:href="structdynamic__format__specs.html" target="_top" xlink:title=" ">
<polygon fill="white" stroke="black" points="160,-78.5 160,-108.5 278,-108.5 278,-78.5 160,-78.5"/>
<text text-anchor="start" x="168" y="-96.5" font-family="Helvetica,sans-Serif" font-size="10.00">dynamic_format_specs</text>
<text text-anchor="middle" x="219" y="-85.5" font-family="Helvetica,sans-Serif" font-size="10.00">&lt; char_type &gt;</text>
</a>
</g>
</g>
<!-- Node3&#45;&gt;Node1 -->
<g id="edge2" class="edge">
<title>Node3&#45;&gt;Node1</title>
<path fill="none" stroke="#9a32cd" stroke-dasharray="5,2" d="M191.37,-72.11C173.65,-59.04 151.09,-42.39 135.29,-30.73"/>
<polygon fill="#9a32cd" stroke="#9a32cd" points="189.5,-75.08 199.63,-78.2 193.66,-69.45 189.5,-75.08"/>
<text text-anchor="middle" x="190.5" y="-52" font-family="Helvetica,sans-Serif" font-size="10.00"> specs_</text>
</g>
<!-- Node4 -->
<g id="node4" class="node">
<title>Node4</title>
<g id="a_node4"><a xlink:href="structbasic__format__specs.html" target="_top" xlink:title=" ">
<polygon fill="white" stroke="black" points="167,-146.5 167,-176.5 271,-176.5 271,-146.5 167,-146.5"/>
<text text-anchor="start" x="175" y="-164.5" font-family="Helvetica,sans-Serif" font-size="10.00">basic_format_specs</text>
<text text-anchor="middle" x="219" y="-153.5" font-family="Helvetica,sans-Serif" font-size="10.00">&lt; Char &gt;</text>
</a>
</g>
</g>
<!-- Node4&#45;&gt;Node3 -->
<g id="edge3" class="edge">
<title>Node4&#45;&gt;Node3</title>
<path fill="none" stroke="midnightblue" d="M219,-136.03C219,-126.86 219,-116.74 219,-108.79"/>
<polygon fill="midnightblue" stroke="midnightblue" points="215.5,-136.18 219,-146.18 222.5,-136.18 215.5,-136.18"/>
</g>
</g>
</svg>
