<?xml version="1.0" encoding="UTF-8" standalone="no"?>
<!DOCTYPE svg PUBLIC "-//W3C//DTD SVG 1.1//EN"
 "http://www.w3.org/Graphics/SVG/1.1/DTD/svg11.dtd">
<!-- Generated by graphviz version 2.50.0 (20211204.2007)
 -->
<!-- Title: Iopg::DatabaseIO Pages: 1 -->
<!--zoomable 266 -->
<svg id="main" version="1.1" xmlns="http://www.w3.org/2000/svg" xmlns:xlink="http://www.w3.org/1999/xlink" xml:space="preserve" onload="init(evt)">
<style type="text/css"><![CDATA[
.edge:hover path { stroke: red; }
.edge:hover polygon { stroke: red; fill: red; }
]]></style>
<script type="text/javascript"><![CDATA[
var edges = document.getElementsByTagName('g');
if (edges && edges.length) {
  for (var i=0;i<edges.length;i++) {
    if (edges[i].id.substr(0,4)=='edge') {
      edges[i].setAttribute('class','edge');
    }
  }
}
]]></script>
        <defs>
                <circle id="rim" cx="0" cy="0" r="7"/>
                <circle id="rim2" cx="0" cy="0" r="3.5"/>
                <g id="zoomPlus">
                        <use xlink:href="#rim" fill="#404040">
                                <set attributeName="fill" to="#808080" begin="zoomplus.mouseover" end="zoomplus.mouseout"/>
                        </use>
                        <path d="M-4,0h8M0,-4v8" fill="none" stroke="white" stroke-width="1.5" pointer-events="none"/>
                </g>
                <g id="zoomMin">
                        <use xlink:href="#rim" fill="#404040">
                                <set attributeName="fill" to="#808080" begin="zoomminus.mouseover" end="zoomminus.mouseout"/>
                        </use>
                        <path d="M-4,0h8" fill="none" stroke="white" stroke-width="1.5" pointer-events="none"/>
                </g>
                <g id="dirArrow">
                        <path fill="none" stroke="white" stroke-width="1.5" d="M0,-3.0v7 M-2.5,-0.5L0,-3.0L2.5,-0.5"/>
                </g>
               <g id="resetDef">
                       <use xlink:href="#rim2" fill="#404040">
                               <set attributeName="fill" to="#808080" begin="reset.mouseover" end="reset.mouseout"/>
                       </use>
               </g>
        </defs>

<script type="text/javascript">
var viewWidth = 1702;
var viewHeight = 266;
var sectionId = 'dynsection-1';
</script>
<script xlink:href="svgpan.js"/>
<svg id="graph" class="graph">
<g id="viewport">
<title>Iopg::DatabaseIO</title>
<polygon fill="white" stroke="transparent" points="-4,4 -4,-261.5 1698,-261.5 1698,4 -4,4"/>
<!-- Node1 -->
<g id="node1" class="node">
<title>Node1</title>
<g id="a_node1"><a xlink:title=" ">
<polygon fill="#bfbfbf" stroke="black" points="1485,-118 1485,-137 1579,-137 1579,-118 1485,-118"/>
<text text-anchor="middle" x="1532" y="-125" font-family="Helvetica,sans-Serif" font-size="10.00">Iopg::DatabaseIO</text>
</a>
</g>
</g>
<!-- Node2 -->
<g id="node2" class="node">
<title>Node2</title>
<g id="a_node2"><a xlink:href="classIoss_1_1DatabaseIO.html" target="_top" xlink:title="An input or output Database.">
<polygon fill="white" stroke="black" points="1297,-132 1297,-151 1391,-151 1391,-132 1297,-132"/>
<text text-anchor="middle" x="1344" y="-139" font-family="Helvetica,sans-Serif" font-size="10.00">Ioss::DatabaseIO</text>
</a>
</g>
</g>
<!-- Node2&#45;&gt;Node1 -->
<g id="edge1" class="edge">
<title>Node2&#45;&gt;Node1</title>
<path fill="none" stroke="midnightblue" d="M1401.78,-137.23C1428.39,-135.22 1459.69,-132.87 1484.81,-130.98"/>
<polygon fill="midnightblue" stroke="midnightblue" points="1401.16,-133.76 1391.46,-138 1401.69,-140.74 1401.16,-133.76"/>
</g>
<!-- Node16 -->
<g id="node16" class="node">
<title>Node16</title>
<g id="a_node16"><a xlink:href="classIoss_1_1GroupingEntity.html" target="_top" xlink:title="Base class for all &#39;grouping&#39; entities. The following derived classes are typical:">
<polygon fill="white" stroke="black" points="1479,-75 1479,-94 1585,-94 1585,-75 1479,-75"/>
<text text-anchor="middle" x="1532" y="-82" font-family="Helvetica,sans-Serif" font-size="10.00">Ioss::GroupingEntity</text>
</a>
</g>
</g>
<!-- Node2&#45;&gt;Node16 -->
<g id="edge18" class="edge">
<title>Node2&#45;&gt;Node16</title>
<path fill="none" stroke="#9a32cd" stroke-dasharray="5,2" d="M1381.48,-128.59C1391.35,-125.2 1402.06,-121.62 1412,-118.5 1439.98,-109.71 1471.95,-100.62 1495.71,-94.06"/>
<polygon fill="#9a32cd" stroke="#9a32cd" points="1380.26,-125.31 1371.95,-131.89 1382.55,-131.92 1380.26,-125.31"/>
<text text-anchor="middle" x="1436.5" y="-121.5" font-family="Helvetica,sans-Serif" font-size="10.00"> database_</text>
</g>
<!-- Node3 -->
<g id="node3" class="node">
<title>Node3</title>
<g id="a_node3"><a xlink:href="classIoss_1_1PropertyManager.html" target="_top" xlink:title="A collection of Ioss::Property objects.">
<polygon fill="white" stroke="black" points="1042,-80 1042,-99 1158,-99 1158,-80 1042,-80"/>
<text text-anchor="middle" x="1100" y="-87" font-family="Helvetica,sans-Serif" font-size="10.00">Ioss::PropertyManager</text>
</a>
</g>
</g>
<!-- Node3&#45;&gt;Node2 -->
<g id="edge2" class="edge">
<title>Node3&#45;&gt;Node2</title>
<path fill="none" stroke="#9a32cd" stroke-dasharray="5,2" d="M1156.59,-101.08C1191,-108.29 1236.09,-117.81 1276,-126.5 1284.04,-128.25 1292.61,-130.15 1300.84,-131.98"/>
<polygon fill="#9a32cd" stroke="#9a32cd" points="1157.23,-97.63 1146.72,-99.01 1155.79,-104.49 1157.23,-97.63"/>
<text text-anchor="middle" x="1226" y="-129.5" font-family="Helvetica,sans-Serif" font-size="10.00"> properties</text>
</g>
<!-- Node3&#45;&gt;Node16 -->
<g id="edge16" class="edge">
<title>Node3&#45;&gt;Node16</title>
<path fill="none" stroke="#9a32cd" stroke-dasharray="5,2" d="M1168.26,-88.72C1254.1,-87.72 1400.78,-86.01 1478.72,-85.11"/>
<polygon fill="#9a32cd" stroke="#9a32cd" points="1168.06,-85.22 1158.1,-88.84 1168.14,-92.22 1168.06,-85.22"/>
<text text-anchor="middle" x="1344" y="-90.5" font-family="Helvetica,sans-Serif" font-size="10.00"> properties</text>
</g>
<!-- Node4 -->
<g id="node4" class="node">
<title>Node4</title>
<g id="a_node4"><a xlink:href="classIoss_1_1ElementTopology.html" target="_top" xlink:title="Represents an element topology.">
<polygon fill="white" stroke="black" points="1042,-199 1042,-218 1158,-218 1158,-199 1042,-199"/>
<text text-anchor="middle" x="1100" y="-206" font-family="Helvetica,sans-Serif" font-size="10.00">Ioss::ElementTopology</text>
</a>
</g>
</g>
<!-- Node4&#45;&gt;Node2 -->
<g id="edge3" class="edge">
<title>Node4&#45;&gt;Node2</title>
<path fill="none" stroke="#9a32cd" stroke-dasharray="5,2" d="M1168.25,-207.33C1201.54,-204.95 1241.83,-199.3 1276,-186.5 1297.78,-178.34 1319.49,-161.84 1332.06,-151.25"/>
<polygon fill="#9a32cd" stroke="#9a32cd" points="1167.91,-203.84 1158.15,-207.97 1168.36,-210.83 1167.91,-203.84"/>
<text text-anchor="middle" x="1226" y="-209.5" font-family="Helvetica,sans-Serif" font-size="10.00"> commonSideTopology</text>
</g>
<!-- Node5 -->
<g id="node5" class="node">
<title>Node5</title>
<g id="a_node5"><a xlink:href="classIoss_1_1Map.html" target="_top" xlink:title=" ">
<polygon fill="white" stroke="black" points="1070,-132 1070,-151 1130,-151 1130,-132 1070,-132"/>
<text text-anchor="middle" x="1100" y="-139" font-family="Helvetica,sans-Serif" font-size="10.00">Ioss::Map</text>
</a>
</g>
</g>
<!-- Node5&#45;&gt;Node2 -->
<g id="edge4" class="edge">
<title>Node5&#45;&gt;Node2</title>
<path fill="none" stroke="#9a32cd" stroke-dasharray="5,2" d="M1140.22,-141.5C1182.98,-141.5 1251.37,-141.5 1296.73,-141.5"/>
<polygon fill="#9a32cd" stroke="#9a32cd" points="1140.19,-138 1130.19,-141.5 1140.19,-145 1140.19,-138"/>
<text text-anchor="middle" x="1226" y="-177.5" font-family="Helvetica,sans-Serif" font-size="10.00"> edgeMap</text>
<text text-anchor="middle" x="1226" y="-166.5" font-family="Helvetica,sans-Serif" font-size="10.00">elemMap</text>
<text text-anchor="middle" x="1226" y="-155.5" font-family="Helvetica,sans-Serif" font-size="10.00">faceMap</text>
<text text-anchor="middle" x="1226" y="-144.5" font-family="Helvetica,sans-Serif" font-size="10.00">nodeMap</text>
</g>
<!-- Node6 -->
<g id="node6" class="node">
<title>Node6</title>
<g id="a_node6"><a xlink:href="classtsl_1_1bhopscotch__map.html" target="_top" xlink:title=" ">
<polygon fill="white" stroke="black" points="850,-126.5 850,-156.5 957,-156.5 957,-126.5 850,-126.5"/>
<text text-anchor="start" x="858" y="-144.5" font-family="Helvetica,sans-Serif" font-size="10.00">tsl::bhopscotch_map</text>
<text text-anchor="middle" x="903.5" y="-133.5" font-family="Helvetica,sans-Serif" font-size="10.00">&lt; int64_t, int64_t &gt;</text>
</a>
</g>
</g>
<!-- Node6&#45;&gt;Node5 -->
<g id="edge5" class="edge">
<title>Node6&#45;&gt;Node5</title>
<path fill="none" stroke="#9a32cd" stroke-dasharray="5,2" d="M967.58,-141.5C1001.98,-141.5 1042.92,-141.5 1069.86,-141.5"/>
<polygon fill="#9a32cd" stroke="#9a32cd" points="967.13,-138 957.13,-141.5 967.13,-145 967.13,-138"/>
<text text-anchor="middle" x="999.5" y="-144.5" font-family="Helvetica,sans-Serif" font-size="10.00"> m_reverse</text>
</g>
<!-- Node7 -->
<g id="node7" class="node">
<title>Node7</title>
<g id="a_node7"><a xlink:href="classtsl_1_1detail__hopscotch__hash_1_1hopscotch__hash.html" target="_top" xlink:title=" ">
<polygon fill="white" stroke="black" points="624,-77 624,-206 789,-206 789,-77 624,-77"/>
<text text-anchor="start" x="632" y="-194" font-family="Helvetica,sans-Serif" font-size="10.00">tsl::detail_hopscotch</text>
<text text-anchor="start" x="632" y="-183" font-family="Helvetica,sans-Serif" font-size="10.00">_hash::hopscotch_hash</text>
<text text-anchor="start" x="632" y="-172" font-family="Helvetica,sans-Serif" font-size="10.00">&lt; std::pair&lt; const int64</text>
<text text-anchor="start" x="632" y="-161" font-family="Helvetica,sans-Serif" font-size="10.00">_t, int64_t &gt;, KeySelect,</text>
<text text-anchor="start" x="632" y="-150" font-family="Helvetica,sans-Serif" font-size="10.00"> ValueSelect, std::hash&lt;</text>
<text text-anchor="start" x="632" y="-139" font-family="Helvetica,sans-Serif" font-size="10.00"> int64_t &gt;, std::equal_to</text>
<text text-anchor="start" x="632" y="-128" font-family="Helvetica,sans-Serif" font-size="10.00">&lt; int64_t &gt;, std::allocator</text>
<text text-anchor="start" x="632" y="-117" font-family="Helvetica,sans-Serif" font-size="10.00">&lt; std::pair&lt; const int64_t,</text>
<text text-anchor="start" x="632" y="-106" font-family="Helvetica,sans-Serif" font-size="10.00"> int64_t &gt; &gt;, 62, false, tsl</text>
<text text-anchor="start" x="632" y="-95" font-family="Helvetica,sans-Serif" font-size="10.00">::hh::power_of_two_growth_policy</text>
<text text-anchor="middle" x="706.5" y="-84" font-family="Helvetica,sans-Serif" font-size="10.00">&lt; 2 &gt;, overflow_container_type &gt;</text>
</a>
</g>
</g>
<!-- Node7&#45;&gt;Node6 -->
<g id="edge6" class="edge">
<title>Node7&#45;&gt;Node6</title>
<path fill="none" stroke="#9a32cd" stroke-dasharray="5,2" d="M799.25,-141.5C816.62,-141.5 834.23,-141.5 849.87,-141.5"/>
<polygon fill="#9a32cd" stroke="#9a32cd" points="799.07,-138 789.07,-141.5 799.07,-145 799.07,-138"/>
<text text-anchor="middle" x="819.5" y="-144.5" font-family="Helvetica,sans-Serif" font-size="10.00"> m_ht</text>
</g>
<!-- Node8 -->
<g id="node8" class="node">
<title>Node8</title>
<g id="a_node8"><a xlink:title=" ">
<polygon fill="white" stroke="black" points="404.5,-192 404.5,-211 508.5,-211 508.5,-192 404.5,-192"/>
<text text-anchor="middle" x="456.5" y="-199" font-family="Helvetica,sans-Serif" font-size="10.00">std::hash&lt; int64_t &gt;</text>
</a>
</g>
</g>
<!-- Node8&#45;&gt;Node7 -->
<g id="edge7" class="edge">
<title>Node8&#45;&gt;Node7</title>
<path fill="none" stroke="#8b1a1a" d="M508.62,-189.65C537.28,-182.95 573.65,-174.37 606,-166.5 611.8,-165.09 617.78,-163.62 623.8,-162.13"/>
<polygon fill="#8b1a1a" stroke="#8b1a1a" points="507.77,-186.25 498.83,-191.93 509.36,-193.07 507.77,-186.25"/>
</g>
<!-- Node9 -->
<g id="node9" class="node">
<title>Node9</title>
<g id="a_node9"><a xlink:title=" ">
<polygon fill="white" stroke="black" points="396.5,-154 396.5,-173 516.5,-173 516.5,-154 396.5,-154"/>
<text text-anchor="middle" x="456.5" y="-161" font-family="Helvetica,sans-Serif" font-size="10.00">std::equal_to&lt; int64_t &gt;</text>
</a>
</g>
</g>
<!-- Node9&#45;&gt;Node7 -->
<g id="edge8" class="edge">
<title>Node9&#45;&gt;Node7</title>
<path fill="none" stroke="#8b1a1a" d="M526.6,-157.37C556.79,-154.69 592.41,-151.53 623.89,-148.74"/>
<polygon fill="#8b1a1a" stroke="#8b1a1a" points="526.24,-153.89 516.59,-158.26 526.86,-160.86 526.24,-153.89"/>
</g>
<!-- Node10 -->
<g id="node10" class="node">
<title>Node10</title>
<g id="a_node10"><a xlink:href="classtsl_1_1hh_1_1power__of__two__growth__policy.html" target="_top" xlink:title=" ">
<polygon fill="white" stroke="black" points="401.5,-104.5 401.5,-134.5 511.5,-134.5 511.5,-104.5 401.5,-104.5"/>
<text text-anchor="start" x="409.5" y="-122.5" font-family="Helvetica,sans-Serif" font-size="10.00">tsl::hh::power_of_two</text>
<text text-anchor="middle" x="456.5" y="-111.5" font-family="Helvetica,sans-Serif" font-size="10.00">_growth_policy&lt; 2 &gt;</text>
</a>
</g>
</g>
<!-- Node10&#45;&gt;Node7 -->
<g id="edge9" class="edge">
<title>Node10&#45;&gt;Node7</title>
<path fill="none" stroke="#8b1a1a" d="M521.89,-125.21C552.96,-127.97 590.59,-131.31 623.67,-134.24"/>
<polygon fill="#8b1a1a" stroke="#8b1a1a" points="521.89,-121.7 511.62,-124.3 521.27,-128.67 521.89,-121.7"/>
</g>
<!-- Node11 -->
<g id="node11" class="node">
<title>Node11</title>
<g id="a_node11"><a xlink:href="classtsl_1_1detail__hopscotch__hash_1_1hopscotch__bucket.html" target="_top" xlink:title=" ">
<polygon fill="white" stroke="black" points="377,-33.5 377,-85.5 536,-85.5 536,-33.5 377,-33.5"/>
<text text-anchor="start" x="385" y="-73.5" font-family="Helvetica,sans-Serif" font-size="10.00">tsl::detail_hopscotch</text>
<text text-anchor="start" x="385" y="-62.5" font-family="Helvetica,sans-Serif" font-size="10.00">_hash::hopscotch_bucket</text>
<text text-anchor="start" x="385" y="-51.5" font-family="Helvetica,sans-Serif" font-size="10.00">&lt; ValueType, NeighborhoodSize,</text>
<text text-anchor="middle" x="456.5" y="-40.5" font-family="Helvetica,sans-Serif" font-size="10.00"> StoreHash &gt;</text>
</a>
</g>
</g>
<!-- Node11&#45;&gt;Node7 -->
<g id="edge10" class="edge">
<title>Node11&#45;&gt;Node7</title>
<path fill="none" stroke="#9a32cd" stroke-dasharray="5,2" d="M545.93,-88.74C571.34,-97.14 598.93,-106.26 623.91,-114.52"/>
<polygon fill="#9a32cd" stroke="#9a32cd" points="546.9,-85.37 536.31,-85.56 544.71,-92.02 546.9,-85.37"/>
<text text-anchor="middle" x="580" y="-111.5" font-family="Helvetica,sans-Serif" font-size="10.00"> m_buckets</text>
</g>
<!-- Node12 -->
<g id="node12" class="node">
<title>Node12</title>
<g id="a_node12"><a xlink:href="classtsl_1_1detail__hopscotch__hash_1_1hopscotch__bucket__hash.html" target="_top" xlink:title=" ">
<polygon fill="white" stroke="black" points="56,-72 56,-113 184,-113 184,-72 56,-72"/>
<text text-anchor="start" x="64" y="-101" font-family="Helvetica,sans-Serif" font-size="10.00">tsl::detail_hopscotch</text>
<text text-anchor="start" x="64" y="-90" font-family="Helvetica,sans-Serif" font-size="10.00">_hash::hopscotch_bucket</text>
<text text-anchor="middle" x="120" y="-79" font-family="Helvetica,sans-Serif" font-size="10.00">_hash&lt; StoreHash &gt;</text>
</a>
</g>
</g>
<!-- Node12&#45;&gt;Node11 -->
<g id="edge11" class="edge">
<title>Node12&#45;&gt;Node11</title>
<path fill="none" stroke="midnightblue" d="M194.5,-85.25C248.46,-79.92 321.67,-72.7 376.82,-67.26"/>
<polygon fill="midnightblue" stroke="midnightblue" points="193.92,-81.79 184.31,-86.25 194.61,-88.76 193.92,-81.79"/>
</g>
<!-- Node13 -->
<g id="node13" class="node">
<title>Node13</title>
<g id="a_node13"><a xlink:href="classtsl_1_1detail__hopscotch__hash_1_1smallest__type__for__min__bits.html" target="_top" xlink:title=" ">
<polygon fill="white" stroke="black" points="0,-0.5 0,-52.5 240,-52.5 240,-0.5 0,-0.5"/>
<text text-anchor="start" x="8" y="-40.5" font-family="Helvetica,sans-Serif" font-size="10.00">tsl::detail_hopscotch</text>
<text text-anchor="start" x="8" y="-29.5" font-family="Helvetica,sans-Serif" font-size="10.00">_hash::smallest_type</text>
<text text-anchor="start" x="8" y="-18.5" font-family="Helvetica,sans-Serif" font-size="10.00">_for_min_bits&lt; NeighborhoodSize</text>
<text text-anchor="middle" x="120" y="-7.5" font-family="Helvetica,sans-Serif" font-size="10.00">+NB_RESERVED_BITS_IN_NEIGHBORHOOD &gt;</text>
</a>
</g>
</g>
<!-- Node13&#45;&gt;Node11 -->
<g id="edge12" class="edge">
<title>Node13&#45;&gt;Node11</title>
<path fill="none" stroke="#9a32cd" stroke-dasharray="5,2" d="M250.53,-39.28C293.2,-43.49 339.32,-48.04 376.99,-51.75"/>
<polygon fill="#9a32cd" stroke="#9a32cd" points="250.64,-35.77 240.35,-38.27 249.95,-42.74 250.64,-35.77"/>
<text text-anchor="middle" x="308.5" y="-53.5" font-family="Helvetica,sans-Serif" font-size="10.00"> m_neighborhood_infos</text>
</g>
<!-- Node14 -->
<g id="node14" class="node">
<title>Node14</title>
<g id="a_node14"><a xlink:href="classIoss_1_1ParallelUtils.html" target="_top" xlink:title=" ">
<polygon fill="white" stroke="black" points="1053,-237 1053,-256 1147,-256 1147,-237 1053,-237"/>
<text text-anchor="middle" x="1100" y="-244" font-family="Helvetica,sans-Serif" font-size="10.00">Ioss::ParallelUtils</text>
</a>
</g>
</g>
<!-- Node14&#45;&gt;Node2 -->
<g id="edge13" class="edge">
<title>Node14&#45;&gt;Node2</title>
<path fill="none" stroke="#9a32cd" stroke-dasharray="5,2" d="M1157.67,-248.51C1193.63,-247.43 1240,-241.53 1276,-221.5 1306.24,-204.68 1328.65,-168.42 1338.08,-151.1"/>
<polygon fill="#9a32cd" stroke="#9a32cd" points="1157.28,-245.01 1147.34,-248.7 1157.4,-252.01 1157.28,-245.01"/>
<text text-anchor="middle" x="1226" y="-249.5" font-family="Helvetica,sans-Serif" font-size="10.00"> util_</text>
</g>
<!-- Node15 -->
<g id="node15" class="node">
<title>Node15</title>
<g id="a_node15"><a xlink:href="classIoss_1_1Region.html" target="_top" xlink:title="A grouping entity that contains other grouping entities.">
<polygon fill="white" stroke="black" points="1622,-122 1622,-141 1694,-141 1694,-122 1622,-122"/>
<text text-anchor="middle" x="1658" y="-129" font-family="Helvetica,sans-Serif" font-size="10.00">Ioss::Region</text>
</a>
</g>
</g>
<!-- Node15&#45;&gt;Node2 -->
<g id="edge14" class="edge">
<title>Node15&#45;&gt;Node2</title>
<path fill="none" stroke="#9a32cd" stroke-dasharray="5,2" d="M1611.61,-142.31C1602.83,-144.02 1593.66,-145.54 1585,-146.5 1565.92,-148.62 1450.98,-150.53 1412,-148.5 1405.23,-148.15 1398.08,-147.59 1391.08,-146.95"/>
<polygon fill="#9a32cd" stroke="#9a32cd" points="1612.6,-145.68 1621.69,-140.25 1611.19,-138.83 1612.6,-145.68"/>
<text text-anchor="middle" x="1532" y="-152.5" font-family="Helvetica,sans-Serif" font-size="10.00"> region_</text>
</g>
<!-- Node16&#45;&gt;Node15 -->
<g id="edge15" class="edge">
<title>Node16&#45;&gt;Node15</title>
<path fill="none" stroke="midnightblue" d="M1567.6,-97.62C1587.88,-105.3 1613.06,-114.84 1631.52,-121.84"/>
<polygon fill="midnightblue" stroke="midnightblue" points="1568.68,-94.28 1558.09,-94.01 1566.2,-100.83 1568.68,-94.28"/>
</g>
<!-- Node17 -->
<g id="node17" class="node">
<title>Node17</title>
<g id="a_node17"><a xlink:href="classIoss_1_1FieldManager.html" target="_top" xlink:title="A collection of Ioss::Field objects.">
<polygon fill="white" stroke="black" points="1294,-19 1294,-38 1394,-38 1394,-19 1294,-19"/>
<text text-anchor="middle" x="1344" y="-26" font-family="Helvetica,sans-Serif" font-size="10.00">Ioss::FieldManager</text>
</a>
</g>
</g>
<!-- Node17&#45;&gt;Node16 -->
<g id="edge17" class="edge">
<title>Node17&#45;&gt;Node16</title>
<path fill="none" stroke="#9a32cd" stroke-dasharray="5,2" d="M1404.09,-35.86C1422.59,-39.05 1442.9,-43.47 1461,-49.5 1480.47,-55.98 1501.32,-66.99 1515.16,-74.94"/>
<polygon fill="#9a32cd" stroke="#9a32cd" points="1404.46,-32.38 1394.03,-34.22 1403.33,-39.29 1404.46,-32.38"/>
<text text-anchor="middle" x="1436.5" y="-52.5" font-family="Helvetica,sans-Serif" font-size="10.00"> fields</text>
</g>
</g>
</svg>
        <g id="navigator" transform="translate(0 0)" fill="#404254">
                <rect fill="#f2f5e9" fill-opacity="0.5" stroke="#606060" stroke-width=".5" x="0" y="0" width="60" height="60"/>
                <use id="zoomplus" xlink:href="#zoomPlus" x="17" y="9" onmousedown="handleZoom(evt,'in')"/>
                <use id="zoomminus" xlink:href="#zoomMin" x="42" y="9" onmousedown="handleZoom(evt,'out')"/>
                <use id="reset" xlink:href="#resetDef" x="30" y="36" onmousedown="handleReset()"/>
                <g id="arrowUp" xlink:href="#dirArrow" transform="translate(30 24)" onmousedown="handlePan(0,-1)">
                  <use xlink:href="#rim" fill="#404040">
                        <set attributeName="fill" to="#808080" begin="arrowUp.mouseover" end="arrowUp.mouseout"/>
                  </use>
                  <path fill="none" stroke="white" stroke-width="1.5" d="M0,-3.0v7 M-2.5,-0.5L0,-3.0L2.5,-0.5"/>
                </g>
                <g id="arrowRight" xlink:href="#dirArrow" transform="rotate(90) translate(36 -43)" onmousedown="handlePan(1,0)">
                  <use xlink:href="#rim" fill="#404040">
                        <set attributeName="fill" to="#808080" begin="arrowRight.mouseover" end="arrowRight.mouseout"/>
                  </use>
                  <path fill="none" stroke="white" stroke-width="1.5" d="M0,-3.0v7 M-2.5,-0.5L0,-3.0L2.5,-0.5"/>
                </g>
                <g id="arrowDown" xlink:href="#dirArrow" transform="rotate(180) translate(-30 -48)" onmousedown="handlePan(0,1)">
                  <use xlink:href="#rim" fill="#404040">
                        <set attributeName="fill" to="#808080" begin="arrowDown.mouseover" end="arrowDown.mouseout"/>
                  </use>
                  <path fill="none" stroke="white" stroke-width="1.5" d="M0,-3.0v7 M-2.5,-0.5L0,-3.0L2.5,-0.5"/>
                </g>
                <g id="arrowLeft" xlink:href="#dirArrow" transform="rotate(270) translate(-36 17)" onmousedown="handlePan(-1,0)">
                  <use xlink:href="#rim" fill="#404040">
                        <set attributeName="fill" to="#808080" begin="arrowLeft.mouseover" end="arrowLeft.mouseout"/>
                  </use>
                  <path fill="none" stroke="white" stroke-width="1.5" d="M0,-3.0v7 M-2.5,-0.5L0,-3.0L2.5,-0.5"/>
                </g>
        </g>
        <svg viewBox="0 0 15 15" width="100%" height="30px" preserveAspectRatio="xMaxYMin meet">
         <g id="arrow_out" transform="scale(0.3 0.3)">
          <a xlink:href="classIopg_1_1DatabaseIO__coll__graph_org.svg" target="_base">
           <rect id="button" ry="5" rx="5" y="6" x="6" height="38" width="38"
                fill="#f2f5e9" fill-opacity="0.5" stroke="#606060" stroke-width="1.0"/>
           <path id="arrow"
             d="M 11.500037,31.436501 C 11.940474,20.09759 22.043105,11.32322 32.158766,21.979434 L 37.068811,17.246167 C 37.068811,17.246167 37.088388,32 37.088388,32 L 22.160133,31.978069 C 22.160133,31.978069 26.997745,27.140456 26.997745,27.140456 C 18.528582,18.264221 13.291696,25.230495 11.500037,31.436501 z"
             style="fill:#404040;"/>
          </a>
         </g>
        </svg>
</svg>
