<?xml version="1.0" encoding="UTF-8" standalone="no"?>
<!DOCTYPE svg PUBLIC "-//W3C//DTD SVG 1.1//EN"
 "http://www.w3.org/Graphics/SVG/1.1/DTD/svg11.dtd">
<!-- Generated by graphviz version 8.0.5 (20230430.1635)
 -->
<!-- Title: Ioss::SideBlock Pages: 1 -->
<svg width="1686pt" height="395pt"
 viewBox="0.00 0.00 1686.25 394.88" xmlns="http://www.w3.org/2000/svg" xmlns:xlink="http://www.w3.org/1999/xlink">
<g id="graph0" class="graph" transform="scale(1 1) rotate(0) translate(4 390.88)">
<title>Ioss::SideBlock</title>
<!-- Node1 -->
<g id="Node000001" class="node">
<title>Node1</title>
<g id="a_Node000001"><a xlink:title="A collection of element sides having the same topology.">
<polygon fill="#999999" stroke="#666666" points="1674.12,-321.25 1589.12,-321.25 1589.12,-302 1674.12,-302 1674.12,-321.25"/>
<text text-anchor="middle" x="1631.62" y="-307.75" font-family="Helvetica,sans-Serif" font-size="10.00">Ioss::SideBlock</text>
</a>
</g>
</g>
<!-- Node2 -->
<g id="Node000002" class="node">
<title>Node2</title>
<g id="a_Node000002"><a xlink:href="classIoss_1_1EntityBlock.html" target="_top" xlink:title="Base class for all &#39;block&#39;&#45;type grouping entities, which means all members of the block are similar o...">
<polygon fill="white" stroke="#666666" points="1485,-314.25 1394,-314.25 1394,-295 1485,-295 1485,-314.25"/>
<text text-anchor="middle" x="1439.5" y="-300.75" font-family="Helvetica,sans-Serif" font-size="10.00">Ioss::EntityBlock</text>
</a>
</g>
</g>
<!-- Node2&#45;&gt;Node1 -->
<g id="edge1_Node000001_Node000002" class="edge">
<title>Node2&#45;&gt;Node1</title>
<g id="a_edge1_Node000001_Node000002"><a xlink:title=" ">
<path fill="none" stroke="#63b8ff" d="M1495.83,-309.96C1499.61,-310.22 1503.36,-310.45 1507,-310.62 1534.23,-311.96 1564.86,-312.22 1588.83,-312.14"/>
<polygon fill="#63b8ff" stroke="#63b8ff" points="1496.41,-306.42 1486.18,-309.16 1495.89,-313.4 1496.41,-306.42"/>
</a>
</g>
</g>
<!-- Node2&#45;&gt;Node1 -->
<g id="edge33_Node000001_Node000002" class="edge">
<title>Node2&#45;&gt;Node1</title>
<g id="a_edge33_Node000001_Node000002"><a xlink:title=" ">
<path fill="none" stroke="#9a32cd" stroke-dasharray="5,2" d="M1496.24,-297.42C1518.32,-295.61 1543.9,-294.82 1567,-297.38 1575.1,-298.27 1583.68,-299.79 1591.82,-301.51"/>
<polygon fill="#9a32cd" stroke="#9a32cd" points="1496.02,-294.01 1486.38,-298.41 1496.66,-300.98 1496.02,-294.01"/>
</a>
</g>
<text text-anchor="middle" x="1537" y="-299.38" font-family="Helvetica,sans-Serif" font-size="10.00" fill="grey"> parentBlock_</text>
</g>
<!-- Node3 -->
<g id="Node000003" class="node">
<title>Node3</title>
<g id="a_Node000003"><a xlink:href="classIoss_1_1GroupingEntity.html" target="_top" xlink:title="Base class for all &#39;grouping&#39; entities. The following derived classes are typical:">
<polygon fill="white" stroke="#666666" points="1303,-136.25 1197.75,-136.25 1197.75,-117 1303,-117 1303,-136.25"/>
<text text-anchor="middle" x="1250.38" y="-122.75" font-family="Helvetica,sans-Serif" font-size="10.00">Ioss::GroupingEntity</text>
</a>
</g>
</g>
<!-- Node3&#45;&gt;Node2 -->
<g id="edge2_Node000002_Node000003" class="edge">
<title>Node3&#45;&gt;Node2</title>
<g id="a_edge2_Node000002_Node000003"><a xlink:title=" ">
<path fill="none" stroke="#63b8ff" d="M1264.26,-145C1286.82,-176.14 1336.23,-239.86 1390,-280.62 1397.19,-286.07 1405.8,-290.81 1413.77,-294.6"/>
<polygon fill="#63b8ff" stroke="#63b8ff" points="1266.81,-143.55 1258.15,-137.45 1261.11,-147.62 1266.81,-143.55"/>
</a>
</g>
</g>
<!-- Node21 -->
<g id="Node000021" class="node">
<title>Node21</title>
<g id="a_Node000021"><a xlink:href="classIoss_1_1Region.html" target="_top" xlink:title="A grouping entity that contains other grouping entities.">
<polygon fill="white" stroke="#666666" points="1475.25,-118.25 1403.75,-118.25 1403.75,-99 1475.25,-99 1475.25,-118.25"/>
<text text-anchor="middle" x="1439.5" y="-104.75" font-family="Helvetica,sans-Serif" font-size="10.00">Ioss::Region</text>
</a>
</g>
</g>
<!-- Node3&#45;&gt;Node21 -->
<g id="edge27_Node000021_Node000003" class="edge">
<title>Node3&#45;&gt;Node21</title>
<g id="a_edge27_Node000021_Node000003"><a xlink:title=" ">
<path fill="none" stroke="#63b8ff" d="M1314.23,-120.58C1344,-117.72 1378.44,-114.4 1403.5,-111.99"/>
<polygon fill="#63b8ff" stroke="#63b8ff" points="1314.12,-117.17 1304.5,-121.61 1314.79,-124.14 1314.12,-117.17"/>
</a>
</g>
</g>
<!-- Node22 -->
<g id="Node000022" class="node">
<title>Node22</title>
<g id="a_Node000022"><a xlink:href="classIoss_1_1SideSet.html" target="_top" xlink:title="A collection of element sides.">
<polygon fill="white" stroke="#666666" points="1477.12,-229.25 1401.88,-229.25 1401.88,-210 1477.12,-210 1477.12,-229.25"/>
<text text-anchor="middle" x="1439.5" y="-215.75" font-family="Helvetica,sans-Serif" font-size="10.00">Ioss::SideSet</text>
</a>
</g>
</g>
<!-- Node3&#45;&gt;Node22 -->
<g id="edge31_Node000022_Node000003" class="edge">
<title>Node3&#45;&gt;Node22</title>
<g id="a_edge31_Node000022_Node000003"><a xlink:title=" ">
<path fill="none" stroke="#63b8ff" d="M1279.62,-141.71C1304.1,-154.82 1340.45,-174.36 1372,-191.62 1380.03,-196.02 1381.69,-197.8 1390,-201.62 1396.12,-204.44 1402.82,-207.15 1409.23,-209.58"/>
<polygon fill="#63b8ff" stroke="#63b8ff" points="1281.69,-138.32 1271.22,-136.68 1278.39,-144.49 1281.69,-138.32"/>
</a>
</g>
</g>
<!-- Node4 -->
<g id="Node000004" class="node">
<title>Node4</title>
<g id="a_Node000004"><a xlink:href="classIoss_1_1PropertyManager.html" target="_top" xlink:title="A collection of Ioss::Property objects.">
<polygon fill="white" stroke="#666666" points="1056,-64.25 941,-64.25 941,-45 1056,-45 1056,-64.25"/>
<text text-anchor="middle" x="998.5" y="-50.75" font-family="Helvetica,sans-Serif" font-size="10.00">Ioss::PropertyManager</text>
</a>
</g>
</g>
<!-- Node4&#45;&gt;Node3 -->
<g id="edge3_Node000003_Node000004" class="edge">
<title>Node4&#45;&gt;Node3</title>
<g id="a_edge3_Node000003_Node000004"><a xlink:title=" ">
<path fill="none" stroke="#9a32cd" stroke-dasharray="5,2" d="M1044.78,-67.67C1093.62,-81.74 1170.3,-103.84 1214.6,-116.61"/>
<polygon fill="#9a32cd" stroke="#9a32cd" points="1046.09,-64.12 1035.51,-64.71 1044.15,-70.84 1046.09,-64.12"/>
</a>
</g>
<text text-anchor="middle" x="1124.25" y="-105.38" font-family="Helvetica,sans-Serif" font-size="10.00" fill="grey"> properties</text>
</g>
<!-- Node16 -->
<g id="Node000016" class="node">
<title>Node16</title>
<g id="a_Node000016"><a xlink:href="classIoss_1_1DatabaseIO.html" target="_top" xlink:title="An input or output Database.">
<polygon fill="white" stroke="#666666" points="1678.25,-130.25 1585,-130.25 1585,-111 1678.25,-111 1678.25,-130.25"/>
<text text-anchor="middle" x="1631.62" y="-116.75" font-family="Helvetica,sans-Serif" font-size="10.00">Ioss::DatabaseIO</text>
</a>
</g>
</g>
<!-- Node4&#45;&gt;Node16 -->
<g id="edge21_Node000016_Node000004" class="edge">
<title>Node4&#45;&gt;Node16</title>
<g id="a_edge21_Node000016_Node000004"><a xlink:title=" ">
<path fill="none" stroke="#9a32cd" stroke-dasharray="5,2" d="M1067.32,-54.72C1161.9,-55.27 1338.71,-57.83 1489,-68.62 1523.81,-71.13 1534.27,-65.51 1567,-77.62 1587.25,-85.12 1607.35,-100.35 1619.38,-110.52"/>
<polygon fill="#9a32cd" stroke="#9a32cd" points="1067.5,-51.21 1057.48,-54.66 1067.46,-58.21 1067.5,-51.21"/>
</a>
</g>
<text text-anchor="middle" x="1349.12" y="-64.38" font-family="Helvetica,sans-Serif" font-size="10.00" fill="grey"> properties</text>
</g>
<!-- Node5 -->
<g id="Node000005" class="node">
<title>Node5</title>
<g id="a_Node000005"><a xlink:href="classtsl_1_1robin__map.html" target="_top" xlink:title=" ">
<polygon fill="white" stroke="#666666" points="845.75,-69.88 745.75,-69.88 745.75,-39.38 845.75,-39.38 845.75,-69.88"/>
<text text-anchor="start" x="753.75" y="-56.38" font-family="Helvetica,sans-Serif" font-size="10.00">tsl::robin_map&lt; std</text>
<text text-anchor="middle" x="795.75" y="-45.12" font-family="Helvetica,sans-Serif" font-size="10.00">::string, Property &gt;</text>
</a>
</g>
</g>
<!-- Node5&#45;&gt;Node4 -->
<g id="edge4_Node000004_Node000005" class="edge">
<title>Node5&#45;&gt;Node4</title>
<g id="a_edge4_Node000004_Node000005"><a xlink:title=" ">
<path fill="none" stroke="#9a32cd" stroke-dasharray="5,2" d="M856.8,-54.62C883.32,-54.62 914.34,-54.62 940.5,-54.62"/>
<polygon fill="#9a32cd" stroke="#9a32cd" points="857.12,-51.13 847.12,-54.62 857.12,-58.13 857.12,-51.13"/>
</a>
</g>
<text text-anchor="middle" x="893.38" y="-56.38" font-family="Helvetica,sans-Serif" font-size="10.00" fill="grey"> m_properties</text>
</g>
<!-- Node6 -->
<g id="Node000006" class="node">
<title>Node6</title>
<g id="a_Node000006"><a xlink:href="classtsl_1_1detail__robin__hash_1_1robin__hash.html" target="_top" xlink:title=" ">
<polygon fill="white" stroke="#666666" points="685,-109.25 477,-109.25 477,0 685,0 685,-109.25"/>
<text text-anchor="start" x="485" y="-95.75" font-family="Helvetica,sans-Serif" font-size="10.00">tsl::detail_robin_hash</text>
<text text-anchor="start" x="485" y="-84.5" font-family="Helvetica,sans-Serif" font-size="10.00">::robin_hash&lt; std::pair</text>
<text text-anchor="start" x="485" y="-73.25" font-family="Helvetica,sans-Serif" font-size="10.00">&lt; std::string, Property</text>
<text text-anchor="start" x="485" y="-62" font-family="Helvetica,sans-Serif" font-size="10.00"> &gt;, KeySelect, ValueSelect,</text>
<text text-anchor="start" x="485" y="-50.75" font-family="Helvetica,sans-Serif" font-size="10.00"> std::hash&lt; std::string &gt;,</text>
<text text-anchor="start" x="485" y="-39.5" font-family="Helvetica,sans-Serif" font-size="10.00"> std::equal_to&lt; std::string</text>
<text text-anchor="start" x="485" y="-28.25" font-family="Helvetica,sans-Serif" font-size="10.00"> &gt;, std::allocator&lt; std::pair</text>
<text text-anchor="start" x="485" y="-17" font-family="Helvetica,sans-Serif" font-size="10.00">&lt; std::string, Property &gt; &gt;, false,</text>
<text text-anchor="middle" x="581" y="-5.75" font-family="Helvetica,sans-Serif" font-size="10.00"> tsl::rh::power_of_two_growth_policy&lt; 2 &gt; &gt;</text>
</a>
</g>
</g>
<!-- Node6&#45;&gt;Node5 -->
<g id="edge5_Node000005_Node000006" class="edge">
<title>Node6&#45;&gt;Node5</title>
<g id="a_edge5_Node000005_Node000006"><a xlink:title=" ">
<path fill="none" stroke="#9a32cd" stroke-dasharray="5,2" d="M696.07,-54.62C713.39,-54.62 730.44,-54.62 745.37,-54.62"/>
<polygon fill="#9a32cd" stroke="#9a32cd" points="696.26,-51.13 686.26,-54.62 696.26,-58.13 696.26,-51.13"/>
</a>
</g>
<text text-anchor="middle" x="715.38" y="-56.38" font-family="Helvetica,sans-Serif" font-size="10.00" fill="grey"> m_ht</text>
</g>
<!-- Node7 -->
<g id="Node000007" class="node">
<title>Node7</title>
<g id="a_Node000007"><a xlink:title=" ">
<polygon fill="white" stroke="#666666" points="344.25,-105.25 226.25,-105.25 226.25,-86 344.25,-86 344.25,-105.25"/>
<text text-anchor="middle" x="285.25" y="-91.75" font-family="Helvetica,sans-Serif" font-size="10.00">std::hash&lt; std::string &gt;</text>
</a>
</g>
</g>
<!-- Node7&#45;&gt;Node6 -->
<g id="edge6_Node000006_Node000007" class="edge">
<title>Node7&#45;&gt;Node6</title>
<g id="a_edge6_Node000006_Node000007"><a xlink:title=" ">
<path fill="none" stroke="#8b1a1a" d="M341.89,-82.33C349.62,-79.8 357.36,-76.91 364.5,-73.62 373.24,-69.61 373.35,-64.57 382.5,-61.62 412.22,-52.05 445.76,-48.4 476.66,-47.67"/>
<polygon fill="#8b1a1a" stroke="#8b1a1a" points="340.94,-79.26 332.4,-85.53 342.98,-85.96 340.94,-79.26"/>
</a>
</g>
</g>
<!-- Node15 -->
<g id="Node000015" class="node">
<title>Node15</title>
<g id="a_Node000015"><a xlink:href="classtsl_1_1detail__robin__hash_1_1robin__hash.html" target="_top" xlink:title=" ">
<polygon fill="white" stroke="#666666" points="685,-236.25 477,-236.25 477,-127 685,-127 685,-236.25"/>
<text text-anchor="start" x="485" y="-222.75" font-family="Helvetica,sans-Serif" font-size="10.00">tsl::detail_robin_hash</text>
<text text-anchor="start" x="485" y="-211.5" font-family="Helvetica,sans-Serif" font-size="10.00">::robin_hash&lt; std::pair</text>
<text text-anchor="start" x="485" y="-200.25" font-family="Helvetica,sans-Serif" font-size="10.00">&lt; std::string, Field &gt;,</text>
<text text-anchor="start" x="485" y="-189" font-family="Helvetica,sans-Serif" font-size="10.00"> KeySelect, ValueSelect,</text>
<text text-anchor="start" x="485" y="-177.75" font-family="Helvetica,sans-Serif" font-size="10.00"> std::hash&lt; std::string &gt;,</text>
<text text-anchor="start" x="485" y="-166.5" font-family="Helvetica,sans-Serif" font-size="10.00"> std::equal_to&lt; std::string</text>
<text text-anchor="start" x="485" y="-155.25" font-family="Helvetica,sans-Serif" font-size="10.00"> &gt;, std::allocator&lt; std::pair</text>
<text text-anchor="start" x="485" y="-144" font-family="Helvetica,sans-Serif" font-size="10.00">&lt; std::string, Field &gt; &gt;, false,</text>
<text text-anchor="middle" x="581" y="-132.75" font-family="Helvetica,sans-Serif" font-size="10.00"> tsl::rh::power_of_two_growth_policy&lt; 2 &gt; &gt;</text>
</a>
</g>
</g>
<!-- Node7&#45;&gt;Node15 -->
<g id="edge15_Node000015_Node000007" class="edge">
<title>Node7&#45;&gt;Node15</title>
<g id="a_edge15_Node000015_Node000007"><a xlink:title=" ">
<path fill="none" stroke="#8b1a1a" d="M331.28,-109.45C342.55,-113.82 354.32,-119.22 364.5,-125.62 373.81,-131.48 372.72,-137.58 382.5,-142.62 411.31,-157.48 445.17,-166.69 476.64,-172.39"/>
<polygon fill="#8b1a1a" stroke="#8b1a1a" points="332.73,-105.89 322.13,-105.72 330.31,-112.46 332.73,-105.89"/>
</a>
</g>
</g>
<!-- Node8 -->
<g id="Node000008" class="node">
<title>Node8</title>
<g id="a_Node000008"><a xlink:title=" ">
<polygon fill="white" stroke="#666666" points="332.62,-218.88 237.88,-218.88 237.88,-188.38 332.62,-188.38 332.62,-218.88"/>
<text text-anchor="start" x="245.88" y="-205.38" font-family="Helvetica,sans-Serif" font-size="10.00">std::equal_to&lt; std</text>
<text text-anchor="middle" x="285.25" y="-194.12" font-family="Helvetica,sans-Serif" font-size="10.00">::string &gt;</text>
</a>
</g>
</g>
<!-- Node8&#45;&gt;Node6 -->
<g id="edge7_Node000006_Node000008" class="edge">
<title>Node8&#45;&gt;Node6</title>
<g id="a_edge7_Node000006_Node000008"><a xlink:title=" ">
<path fill="none" stroke="#8b1a1a" d="M342.77,-189.32C350.87,-185.3 358.48,-180.17 364.5,-173.62 383.92,-152.51 362.19,-131.9 382.5,-111.62 389.98,-104.16 432.85,-91.39 476.75,-79.83"/>
<polygon fill="#8b1a1a" stroke="#8b1a1a" points="341.51,-186.49 333.73,-193.69 344.3,-192.91 341.51,-186.49"/>
</a>
</g>
</g>
<!-- Node8&#45;&gt;Node15 -->
<g id="edge16_Node000015_Node000008" class="edge">
<title>Node8&#45;&gt;Node15</title>
<g id="a_edge16_Node000015_Node000008"><a xlink:title=" ">
<path fill="none" stroke="#8b1a1a" d="M343.4,-200.38C377.07,-198.36 420.47,-195.6 459,-192.62 464.78,-192.18 470.72,-191.7 476.71,-191.2"/>
<polygon fill="#8b1a1a" stroke="#8b1a1a" points="343.61,-196.92 333.83,-201 344.02,-203.9 343.61,-196.92"/>
</a>
</g>
</g>
<!-- Node9 -->
<g id="Node000009" class="node">
<title>Node9</title>
<g id="a_Node000009"><a xlink:href="classtsl_1_1rh_1_1power__of__two__growth__policy.html" target="_top" xlink:title=" ">
<polygon fill="white" stroke="#666666" points="364.5,-164.88 206,-164.88 206,-134.38 364.5,-134.38 364.5,-164.88"/>
<text text-anchor="start" x="214" y="-151.38" font-family="Helvetica,sans-Serif" font-size="10.00">tsl::rh::power_of_two</text>
<text text-anchor="middle" x="285.25" y="-140.12" font-family="Helvetica,sans-Serif" font-size="10.00">_growth_policy&lt; GrowthFactor &gt;</text>
</a>
</g>
</g>
<!-- Node9&#45;&gt;Node6 -->
<g id="edge8_Node000006_Node000009" class="edge">
<title>Node9&#45;&gt;Node6</title>
<g id="a_edge8_Node000006_Node000009"><a xlink:title=" ">
<path fill="none" stroke="#8b1a1a" d="M342.95,-129.07C350.63,-124.95 358.07,-120.15 364.5,-114.62 375.72,-104.98 370.13,-94.73 382.5,-86.62 398.55,-76.11 437.54,-68.71 476.68,-63.69"/>
<polygon fill="#8b1a1a" stroke="#8b1a1a" points="341.54,-126.36 334.14,-133.94 344.65,-132.63 341.54,-126.36"/>
</a>
</g>
</g>
<!-- Node9&#45;&gt;Node15 -->
<g id="edge17_Node000015_Node000009" class="edge">
<title>Node9&#45;&gt;Node15</title>
<g id="a_edge17_Node000015_Node000009"><a xlink:title=" ">
<path fill="none" stroke="#8b1a1a" d="M375.71,-166.71C377.99,-167.03 380.26,-167.34 382.5,-167.62 412.93,-171.54 446.15,-174.42 476.51,-176.52"/>
<polygon fill="#8b1a1a" stroke="#8b1a1a" points="376.33,-163.11 365.92,-165.09 375.3,-170.04 376.33,-163.11"/>
</a>
</g>
</g>
<!-- Node10 -->
<g id="Node000010" class="node">
<title>Node10</title>
<g id="a_Node000010"><a xlink:href="classtsl_1_1detail__robin__hash_1_1bucket__entry.html" target="_top" xlink:title=" ">
<polygon fill="white" stroke="#666666" points="352.88,-64.5 217.62,-64.5 217.62,-22.75 352.88,-22.75 352.88,-64.5"/>
<text text-anchor="start" x="225.62" y="-51" font-family="Helvetica,sans-Serif" font-size="10.00">tsl::detail_robin_hash</text>
<text text-anchor="start" x="225.62" y="-39.75" font-family="Helvetica,sans-Serif" font-size="10.00">::bucket_entry&lt; ValueType,</text>
<text text-anchor="middle" x="285.25" y="-28.5" font-family="Helvetica,sans-Serif" font-size="10.00"> StoreHash &gt;</text>
</a>
</g>
</g>
<!-- Node10&#45;&gt;Node6 -->
<g id="edge9_Node000006_Node000010" class="edge">
<title>Node10&#45;&gt;Node6</title>
<g id="a_edge9_Node000006_Node000010"><a xlink:title=" ">
<path fill="none" stroke="#9a32cd" stroke-dasharray="5,2" d="M363.82,-24.99C370.11,-23.94 376.4,-23.04 382.5,-22.38 416.3,-18.69 425.29,-17.96 459,-22.38 464.82,-23.14 470.76,-24.1 476.73,-25.21"/>
<polygon fill="#9a32cd" stroke="#9a32cd" points="363.48,-21.67 354.25,-26.88 364.72,-28.56 363.48,-21.67"/>
</a>
</g>
<text text-anchor="middle" x="420.75" y="-24.38" font-family="Helvetica,sans-Serif" font-size="10.00" fill="grey"> m_buckets</text>
</g>
<!-- Node10&#45;&gt;Node15 -->
<g id="edge18_Node000015_Node000010" class="edge">
<title>Node10&#45;&gt;Node15</title>
<g id="a_edge18_Node000015_Node000010"><a xlink:title=" ">
<path fill="none" stroke="#9a32cd" stroke-dasharray="5,2" d="M347.47,-69.07C353.25,-71.58 359,-74.13 364.5,-76.62 401.35,-93.36 441.3,-112.53 476.68,-129.88"/>
<polygon fill="#9a32cd" stroke="#9a32cd" points="349.34,-65.63 338.77,-64.89 346.57,-72.06 349.34,-65.63"/>
</a>
</g>
<text text-anchor="middle" x="420.75" y="-121.38" font-family="Helvetica,sans-Serif" font-size="10.00" fill="grey"> m_buckets</text>
</g>
<!-- Node11 -->
<g id="Node000011" class="node">
<title>Node11</title>
<g id="a_Node000011"><a xlink:href="classtsl_1_1detail__robin__hash_1_1bucket__entry__hash.html" target="_top" xlink:title=" ">
<polygon fill="white" stroke="#666666" points="169,-58.88 0,-58.88 0,-28.38 169,-28.38 169,-58.88"/>
<text text-anchor="start" x="8" y="-45.38" font-family="Helvetica,sans-Serif" font-size="10.00">tsl::detail_robin_hash</text>
<text text-anchor="middle" x="84.5" y="-34.12" font-family="Helvetica,sans-Serif" font-size="10.00">::bucket_entry_hash&lt; StoreHash &gt;</text>
</a>
</g>
</g>
<!-- Node11&#45;&gt;Node10 -->
<g id="edge10_Node000010_Node000011" class="edge">
<title>Node11&#45;&gt;Node10</title>
<g id="a_edge10_Node000010_Node000011"><a xlink:title=" ">
<path fill="none" stroke="#63b8ff" d="M180.44,-43.62C192.93,-43.62 205.52,-43.62 217.41,-43.62"/>
<polygon fill="#63b8ff" stroke="#63b8ff" points="180.5,-40.13 170.5,-43.62 180.5,-47.13 180.5,-40.13"/>
</a>
</g>
</g>
<!-- Node12 -->
<g id="Node000012" class="node">
<title>Node12</title>
<g id="a_Node000012"><a xlink:title=" ">
<polygon fill="white" stroke="#666666" points="306.38,-306.25 264.12,-306.25 264.12,-287 306.38,-287 306.38,-306.25"/>
<text text-anchor="middle" x="285.25" y="-292.75" font-family="Helvetica,sans-Serif" font-size="10.00">size_t</text>
</a>
</g>
</g>
<!-- Node12&#45;&gt;Node2 -->
<g id="edge29_Node000002_Node000012" class="edge">
<title>Node12&#45;&gt;Node2</title>
<g id="a_edge29_Node000002_Node000012"><a xlink:title=" ">
<path fill="none" stroke="#9a32cd" stroke-dasharray="5,2" d="M316.76,-310.54C369.34,-333.21 480.94,-375.62 580,-375.62 580,-375.62 580,-375.62 1251.38,-375.62 1259.87,-375.62 1364.52,-334.22 1413.51,-314.65"/>
<polygon fill="#9a32cd" stroke="#9a32cd" points="318.32,-306.96 307.75,-306.15 315.51,-313.37 318.32,-306.96"/>
</a>
</g>
<text text-anchor="middle" x="893.38" y="-377.38" font-family="Helvetica,sans-Serif" font-size="10.00" fill="grey"> idOffset</text>
</g>
<!-- Node12&#45;&gt;Node6 -->
<g id="edge11_Node000006_Node000012" class="edge">
<title>Node12&#45;&gt;Node6</title>
<g id="a_edge11_Node000006_Node000012"><a xlink:title=" ">
<path fill="none" stroke="#9a32cd" stroke-dasharray="5,2" d="M306.18,-279.55C322.14,-265.75 345.01,-245.72 364.5,-227.62 370.91,-221.68 470.1,-123 477,-117.62 480.47,-114.92 484.07,-112.24 487.75,-109.59"/>
<polygon fill="#9a32cd" stroke="#9a32cd" points="304.38,-277.34 299.08,-286.52 308.94,-282.65 304.38,-277.34"/>
</a>
</g>
<text text-anchor="middle" x="420.75" y="-234.88" font-family="Helvetica,sans-Serif" font-size="10.00" fill="grey"> m_bucket_count</text>
<text text-anchor="middle" x="420.75" y="-223.62" font-family="Helvetica,sans-Serif" font-size="10.00" fill="grey">m_load_threshold</text>
<text text-anchor="middle" x="420.75" y="-212.38" font-family="Helvetica,sans-Serif" font-size="10.00" fill="grey">m_nb_elements</text>
</g>
<!-- Node12&#45;&gt;Node15 -->
<g id="edge19_Node000015_Node000012" class="edge">
<title>Node12&#45;&gt;Node15</title>
<g id="a_edge19_Node000015_Node000012"><a xlink:title=" ">
<path fill="none" stroke="#9a32cd" stroke-dasharray="5,2" d="M317.49,-297.47C353.08,-297.36 412.34,-293.86 459,-274.62 481.17,-265.49 502.78,-251.19 521.47,-236.52"/>
<polygon fill="#9a32cd" stroke="#9a32cd" points="317.83,-293.97 307.81,-297.41 317.79,-300.97 317.83,-293.97"/>
</a>
</g>
<text text-anchor="middle" x="420.75" y="-317.88" font-family="Helvetica,sans-Serif" font-size="10.00" fill="grey"> m_bucket_count</text>
<text text-anchor="middle" x="420.75" y="-306.62" font-family="Helvetica,sans-Serif" font-size="10.00" fill="grey">m_load_threshold</text>
<text text-anchor="middle" x="420.75" y="-295.38" font-family="Helvetica,sans-Serif" font-size="10.00" fill="grey">m_nb_elements</text>
</g>
<!-- Node13 -->
<g id="Node000013" class="node">
<title>Node13</title>
<g id="a_Node000013"><a xlink:href="classIoss_1_1FieldManager.html" target="_top" xlink:title="A collection of Ioss::Field objects.">
<polygon fill="white" stroke="#666666" points="1048.12,-151.25 948.88,-151.25 948.88,-132 1048.12,-132 1048.12,-151.25"/>
<text text-anchor="middle" x="998.5" y="-137.75" font-family="Helvetica,sans-Serif" font-size="10.00">Ioss::FieldManager</text>
</a>
</g>
</g>
<!-- Node13&#45;&gt;Node3 -->
<g id="edge12_Node000003_Node000013" class="edge">
<title>Node13&#45;&gt;Node3</title>
<g id="a_edge12_Node000003_Node000013"><a xlink:title=" ">
<path fill="none" stroke="#9a32cd" stroke-dasharray="5,2" d="M1059.5,-138.02C1101.57,-135.5 1157.23,-132.16 1197.41,-129.74"/>
<polygon fill="#9a32cd" stroke="#9a32cd" points="1059.34,-134.59 1049.57,-138.68 1059.76,-141.57 1059.34,-134.59"/>
</a>
</g>
<text text-anchor="middle" x="1124.25" y="-139.38" font-family="Helvetica,sans-Serif" font-size="10.00" fill="grey"> fields</text>
</g>
<!-- Node14 -->
<g id="Node000014" class="node">
<title>Node14</title>
<g id="a_Node000014"><a xlink:href="classtsl_1_1robin__map.html" target="_top" xlink:title=" ">
<polygon fill="white" stroke="#666666" points="845.75,-185.88 745.75,-185.88 745.75,-155.38 845.75,-155.38 845.75,-185.88"/>
<text text-anchor="start" x="753.75" y="-172.38" font-family="Helvetica,sans-Serif" font-size="10.00">tsl::robin_map&lt; std</text>
<text text-anchor="middle" x="795.75" y="-161.12" font-family="Helvetica,sans-Serif" font-size="10.00">::string, Field &gt;</text>
</a>
</g>
</g>
<!-- Node14&#45;&gt;Node13 -->
<g id="edge13_Node000013_Node000014" class="edge">
<title>Node14&#45;&gt;Node13</title>
<g id="a_edge13_Node000013_Node000014"><a xlink:title=" ">
<path fill="none" stroke="#9a32cd" stroke-dasharray="5,2" d="M856.66,-161.97C886.03,-157.73 920.95,-152.68 948.67,-148.68"/>
<polygon fill="#9a32cd" stroke="#9a32cd" points="856.51,-158.6 847.12,-163.49 857.51,-165.53 856.51,-158.6"/>
</a>
</g>
<text text-anchor="middle" x="893.38" y="-162.38" font-family="Helvetica,sans-Serif" font-size="10.00" fill="grey"> fields</text>
</g>
<!-- Node15&#45;&gt;Node14 -->
<g id="edge14_Node000014_Node000015" class="edge">
<title>Node15&#45;&gt;Node14</title>
<g id="a_edge14_Node000014_Node000015"><a xlink:title=" ">
<path fill="none" stroke="#9a32cd" stroke-dasharray="5,2" d="M696.07,-175.73C713.39,-174.83 730.44,-173.95 745.37,-173.18"/>
<polygon fill="#9a32cd" stroke="#9a32cd" points="696.06,-172.27 686.26,-176.29 696.43,-179.27 696.06,-172.27"/>
</a>
</g>
<text text-anchor="middle" x="715.38" y="-177.38" font-family="Helvetica,sans-Serif" font-size="10.00" fill="grey"> m_ht</text>
</g>
<!-- Node16&#45;&gt;Node3 -->
<g id="edge20_Node000003_Node000016" class="edge">
<title>Node16&#45;&gt;Node3</title>
<g id="a_edge20_Node000003_Node000016"><a xlink:title=" ">
<path fill="none" stroke="#9a32cd" stroke-dasharray="5,2" d="M1592.61,-106.93C1584.21,-104.06 1575.34,-101.14 1567,-98.62 1491.21,-75.72 1468.07,-65.18 1390,-78.38 1347.03,-85.64 1299.62,-104.73 1272.86,-116.6"/>
<polygon fill="#9a32cd" stroke="#9a32cd" points="1591.31,-110.53 1601.91,-110.51 1593.61,-103.92 1591.31,-110.53"/>
</a>
</g>
<text text-anchor="middle" x="1439.5" y="-80.38" font-family="Helvetica,sans-Serif" font-size="10.00" fill="grey"> database_</text>
</g>
<!-- Node17 -->
<g id="Node000017" class="node">
<title>Node17</title>
<g id="a_Node000017"><a xlink:href="classIoss_1_1ElementTopology.html" target="_top" xlink:title="Represents an element topology.">
<polygon fill="white" stroke="#666666" points="1308.25,-314.25 1192.5,-314.25 1192.5,-295 1308.25,-295 1308.25,-314.25"/>
<text text-anchor="middle" x="1250.38" y="-300.75" font-family="Helvetica,sans-Serif" font-size="10.00">Ioss::ElementTopology</text>
</a>
</g>
</g>
<!-- Node17&#45;&gt;Node1 -->
<g id="edge32_Node000001_Node000017" class="edge">
<title>Node17&#45;&gt;Node1</title>
<g id="a_edge32_Node000001_Node000017"><a xlink:title=" ">
<path fill="none" stroke="#9a32cd" stroke-dasharray="5,2" d="M1307.35,-316.69C1313.7,-317.81 1320.1,-318.82 1326.25,-319.62 1432.38,-333.52 1460.59,-337.19 1567,-325.62 1574.87,-324.77 1583.19,-323.33 1591.13,-321.7"/>
<polygon fill="#9a32cd" stroke="#9a32cd" points="1308.22,-313.11 1297.75,-314.74 1306.94,-319.99 1308.22,-313.11"/>
</a>
</g>
<text text-anchor="middle" x="1439.5" y="-334.38" font-family="Helvetica,sans-Serif" font-size="10.00" fill="grey"> parentTopology_</text>
</g>
<!-- Node17&#45;&gt;Node2 -->
<g id="edge28_Node000002_Node000017" class="edge">
<title>Node17&#45;&gt;Node2</title>
<g id="a_edge28_Node000002_Node000017"><a xlink:title=" ">
<path fill="none" stroke="#9a32cd" stroke-dasharray="5,2" d="M1319.31,-304.62C1344.03,-304.62 1371.32,-304.62 1393.55,-304.62"/>
<polygon fill="#9a32cd" stroke="#9a32cd" points="1319.54,-301.13 1309.54,-304.62 1319.54,-308.13 1319.54,-301.13"/>
</a>
</g>
<text text-anchor="middle" x="1349.12" y="-306.38" font-family="Helvetica,sans-Serif" font-size="10.00" fill="grey"> topology_</text>
</g>
<!-- Node17&#45;&gt;Node16 -->
<g id="edge22_Node000016_Node000017" class="edge">
<title>Node17&#45;&gt;Node16</title>
<g id="a_edge22_Node000016_Node000017"><a xlink:title=" ">
<path fill="none" stroke="#9a32cd" stroke-dasharray="5,2" d="M1303.74,-292.07C1329.6,-286.16 1361.33,-279.34 1390,-274.38 1429.08,-267.61 1534.8,-274.77 1567,-251.62 1609.09,-221.37 1624.57,-155.57 1629.07,-130.55"/>
<polygon fill="#9a32cd" stroke="#9a32cd" points="1303,-288.88 1294.05,-294.54 1304.58,-295.7 1303,-288.88"/>
</a>
</g>
<text text-anchor="middle" x="1439.5" y="-276.38" font-family="Helvetica,sans-Serif" font-size="10.00" fill="grey"> commonSideTopology</text>
</g>
<!-- Node18 -->
<g id="Node000018" class="node">
<title>Node18</title>
<g id="a_Node000018"><a xlink:href="classstd_1_1basic__string.html" target="_top" xlink:title=" ">
<polygon fill="white" stroke="#666666" points="1052.62,-319.88 944.38,-319.88 944.38,-289.38 1052.62,-289.38 1052.62,-319.88"/>
<text text-anchor="start" x="952.38" y="-306.38" font-family="Helvetica,sans-Serif" font-size="10.00">std::basic_string&lt;</text>
<text text-anchor="middle" x="998.5" y="-295.12" font-family="Helvetica,sans-Serif" font-size="10.00"> Elem, Traits, Alloc &gt;</text>
</a>
</g>
</g>
<!-- Node18&#45;&gt;Node17 -->
<g id="edge23_Node000017_Node000018" class="edge">
<title>Node18&#45;&gt;Node17</title>
<g id="a_edge23_Node000017_Node000018"><a xlink:title=" ">
<path fill="none" stroke="#9a32cd" stroke-dasharray="5,2" d="M1064,-304.62C1103.71,-304.62 1154.15,-304.62 1192.38,-304.62"/>
<polygon fill="#9a32cd" stroke="#9a32cd" points="1064.1,-301.13 1054.1,-304.62 1064.1,-308.13 1064.1,-301.13"/>
</a>
</g>
<text text-anchor="middle" x="1124.25" y="-317.62" font-family="Helvetica,sans-Serif" font-size="10.00" fill="grey"> masterElementName_</text>
<text text-anchor="middle" x="1124.25" y="-306.38" font-family="Helvetica,sans-Serif" font-size="10.00" fill="grey">name_</text>
</g>
<!-- Node19 -->
<g id="Node000019" class="node">
<title>Node19</title>
<g id="a_Node000019"><a xlink:href="classIoss_1_1Map.html" target="_top" xlink:title=" ">
<polygon fill="white" stroke="#666666" points="1469.25,-155.25 1409.75,-155.25 1409.75,-136 1469.25,-136 1469.25,-155.25"/>
<text text-anchor="middle" x="1439.5" y="-141.75" font-family="Helvetica,sans-Serif" font-size="10.00">Ioss::Map</text>
</a>
</g>
</g>
<!-- Node19&#45;&gt;Node16 -->
<g id="edge24_Node000016_Node000019" class="edge">
<title>Node19&#45;&gt;Node16</title>
<g id="a_edge24_Node000016_Node000019"><a xlink:title=" ">
<path fill="none" stroke="#9a32cd" stroke-dasharray="5,2" d="M1480.04,-140.43C1510.55,-136.41 1552.81,-130.86 1584.8,-126.65"/>
<polygon fill="#9a32cd" stroke="#9a32cd" points="1479.83,-137.05 1470.38,-141.83 1480.75,-143.99 1479.83,-137.05"/>
</a>
</g>
<text text-anchor="middle" x="1537" y="-173.12" font-family="Helvetica,sans-Serif" font-size="10.00" fill="grey"> edgeMap</text>
<text text-anchor="middle" x="1537" y="-161.88" font-family="Helvetica,sans-Serif" font-size="10.00" fill="grey">elemMap</text>
<text text-anchor="middle" x="1537" y="-150.62" font-family="Helvetica,sans-Serif" font-size="10.00" fill="grey">faceMap</text>
<text text-anchor="middle" x="1537" y="-139.38" font-family="Helvetica,sans-Serif" font-size="10.00" fill="grey">nodeMap</text>
</g>
<!-- Node20 -->
<g id="Node000020" class="node">
<title>Node20</title>
<g id="a_Node000020"><a xlink:href="classIoss_1_1ParallelUtils.html" target="_top" xlink:title=" ">
<polygon fill="white" stroke="#666666" points="1486.12,-192.25 1392.88,-192.25 1392.88,-173 1486.12,-173 1486.12,-192.25"/>
<text text-anchor="middle" x="1439.5" y="-178.75" font-family="Helvetica,sans-Serif" font-size="10.00">Ioss::ParallelUtils</text>
</a>
</g>
</g>
<!-- Node20&#45;&gt;Node16 -->
<g id="edge25_Node000016_Node000020" class="edge">
<title>Node20&#45;&gt;Node16</title>
<g id="a_edge25_Node000016_Node000020"><a xlink:title=" ">
<path fill="none" stroke="#9a32cd" stroke-dasharray="5,2" d="M1497.09,-192.33C1519.61,-193.86 1545.27,-192.56 1567,-183.62 1593.16,-172.86 1614.28,-145.56 1624.31,-130.68"/>
<polygon fill="#9a32cd" stroke="#9a32cd" points="1497.6,-188.77 1487.33,-191.38 1496.98,-195.75 1497.6,-188.77"/>
</a>
</g>
<text text-anchor="middle" x="1537" y="-195.38" font-family="Helvetica,sans-Serif" font-size="10.00" fill="grey"> util_</text>
</g>
<!-- Node21&#45;&gt;Node16 -->
<g id="edge26_Node000016_Node000021" class="edge">
<title>Node21&#45;&gt;Node16</title>
<g id="a_edge26_Node000016_Node000021"><a xlink:title=" ">
<path fill="none" stroke="#9a32cd" stroke-dasharray="5,2" d="M1486.49,-103.59C1510.56,-101.84 1540.46,-101.04 1567,-104.38 1577.07,-105.64 1587.82,-107.99 1597.58,-110.52"/>
<polygon fill="#9a32cd" stroke="#9a32cd" points="1486.22,-100.18 1476.54,-104.48 1486.79,-107.16 1486.22,-100.18"/>
</a>
</g>
<text text-anchor="middle" x="1537" y="-106.38" font-family="Helvetica,sans-Serif" font-size="10.00" fill="grey"> region_</text>
</g>
<!-- Node22&#45;&gt;Node1 -->
<g id="edge30_Node000001_Node000022" class="edge">
<title>Node22&#45;&gt;Node1</title>
<g id="a_edge30_Node000001_Node000022"><a xlink:title=" ">
<path fill="none" stroke="#9a32cd" stroke-dasharray="5,2" d="M1470.95,-234.36C1509.92,-253.22 1576.39,-285.38 1609.94,-301.62"/>
<polygon fill="#9a32cd" stroke="#9a32cd" points="1472.73,-230.85 1462.21,-229.65 1469.69,-237.15 1472.73,-230.85"/>
</a>
</g>
<text text-anchor="middle" x="1537" y="-281.38" font-family="Helvetica,sans-Serif" font-size="10.00" fill="grey"> owner_</text>
</g>
</g>
</svg>
