<?xml version="1.0" encoding="UTF-8" standalone="no"?>
<!DOCTYPE svg PUBLIC "-//W3C//DTD SVG 1.1//EN"
 "http://www.w3.org/Graphics/SVG/1.1/DTD/svg11.dtd">
<!-- Generated by graphviz version 10.0.1 (20240210.2158)
 -->
<!-- Title: Iohb::DatabaseIO Pages: 1 -->
<svg width="1623pt" height="360pt"
 viewBox="0.00 0.00 1623.25 359.60" xmlns="http://www.w3.org/2000/svg" xmlns:xlink="http://www.w3.org/1999/xlink">
<g id="graph0" class="graph" transform="scale(1 1) rotate(0) translate(4 355.6)">
<title>Iohb::DatabaseIO</title>
<!-- Node1 -->
<g id="Node000001" class="node">
<title>Node1</title>
<g id="a_Node000001"><a xlink:title=" ">
<polygon fill="#999999" stroke="#666666" points="1500.75,-79.6 1407.5,-79.6 1407.5,-60.35 1500.75,-60.35 1500.75,-79.6"/>
<text text-anchor="middle" x="1454.12" y="-66.1" font-family="Helvetica,sans-Serif" font-size="10.00">Iohb::DatabaseIO</text>
</a>
</g>
</g>
<!-- Node2 -->
<g id="Node000002" class="node">
<title>Node2</title>
<g id="a_Node000002"><a xlink:href="classIoss_1_1DatabaseIO.html" target="_top" xlink:title="An input or output Database.">
<polygon fill="white" stroke="#666666" points="1314.5,-126.6 1221.25,-126.6 1221.25,-107.35 1314.5,-107.35 1314.5,-126.6"/>
<text text-anchor="middle" x="1267.88" y="-113.1" font-family="Helvetica,sans-Serif" font-size="10.00">Ioss::DatabaseIO</text>
</a>
</g>
</g>
<!-- Node2&#45;&gt;Node1 -->
<g id="edge1_Node000001_Node000002" class="edge">
<title>Node2&#45;&gt;Node1</title>
<g id="a_edge1_Node000001_Node000002"><a xlink:title=" ">
<path fill="none" stroke="#63b8ff" d="M1319.39,-104.09C1349.1,-96.51 1386.11,-87.07 1413.66,-80.04"/>
<polygon fill="#63b8ff" stroke="#63b8ff" points="1318.69,-100.65 1309.87,-106.52 1320.42,-107.44 1318.69,-100.65"/>
</a>
</g>
</g>
<!-- Node17 -->
<g id="Node000017" class="node">
<title>Node17</title>
<g id="a_Node000017"><a xlink:href="classIoss_1_1GroupingEntity.html" target="_top" xlink:title="Base class for all &#39;grouping&#39; entities. The following derived classes are typical:">
<polygon fill="white" stroke="#666666" points="1506.75,-176.6 1401.5,-176.6 1401.5,-157.35 1506.75,-157.35 1506.75,-176.6"/>
<text text-anchor="middle" x="1454.12" y="-163.1" font-family="Helvetica,sans-Serif" font-size="10.00">Ioss::GroupingEntity</text>
</a>
</g>
</g>
<!-- Node2&#45;&gt;Node17 -->
<g id="edge26_Node000017_Node000002" class="edge">
<title>Node2&#45;&gt;Node17</title>
<g id="a_edge26_Node000017_Node000002"><a xlink:title=" ">
<path fill="none" stroke="#9a32cd" stroke-dasharray="5,2" d="M1317.11,-130.06C1347.98,-138.44 1387.44,-149.15 1415.89,-156.87"/>
<polygon fill="#9a32cd" stroke="#9a32cd" points="1318.19,-126.73 1307.62,-127.49 1316.36,-133.48 1318.19,-126.73"/>
</a>
</g>
<text text-anchor="middle" x="1359.5" y="-148.72" font-family="Helvetica,sans-Serif" font-size="10.00" fill="grey"> database_</text>
</g>
<!-- Node3 -->
<g id="Node000003" class="node">
<title>Node3</title>
<g id="a_Node000003"><a xlink:href="classIoss_1_1PropertyManager.html" target="_top" xlink:title="A collection of Ioss::Property objects.">
<polygon fill="white" stroke="#666666" points="1082.62,-164.6 967.62,-164.6 967.62,-145.35 1082.62,-145.35 1082.62,-164.6"/>
<text text-anchor="middle" x="1025.12" y="-151.1" font-family="Helvetica,sans-Serif" font-size="10.00">Ioss::PropertyManager</text>
</a>
</g>
</g>
<!-- Node3&#45;&gt;Node2 -->
<g id="edge2_Node000002_Node000003" class="edge">
<title>Node3&#45;&gt;Node2</title>
<g id="a_edge2_Node000002_Node000003"><a xlink:title=" ">
<path fill="none" stroke="#9a32cd" stroke-dasharray="5,2" d="M1094.14,-145.3C1126.34,-140.6 1165.31,-134.73 1200.25,-128.97 1206.98,-127.87 1214.07,-126.64 1221.03,-125.42"/>
<polygon fill="#9a32cd" stroke="#9a32cd" points="1093.94,-141.79 1084.55,-146.7 1094.95,-148.72 1093.94,-141.79"/>
</a>
</g>
<text text-anchor="middle" x="1150.62" y="-145.72" font-family="Helvetica,sans-Serif" font-size="10.00" fill="grey"> properties</text>
</g>
<!-- Node3&#45;&gt;Node17 -->
<g id="edge17_Node000017_Node000003" class="edge">
<title>Node3&#45;&gt;Node17</title>
<g id="a_edge17_Node000017_Node000003"><a xlink:title=" ">
<path fill="none" stroke="#9a32cd" stroke-dasharray="5,2" d="M1094.32,-158.7C1096.57,-158.8 1098.8,-158.89 1101,-158.97 1207.63,-163.03 1332.5,-165.27 1401.2,-166.29"/>
<polygon fill="#9a32cd" stroke="#9a32cd" points="1094.6,-155.21 1084.45,-158.26 1094.29,-162.21 1094.6,-155.21"/>
</a>
</g>
<text text-anchor="middle" x="1267.88" y="-165.72" font-family="Helvetica,sans-Serif" font-size="10.00" fill="grey"> properties</text>
</g>
<!-- Node4 -->
<g id="Node000004" class="node">
<title>Node4</title>
<g id="a_Node000004"><a xlink:href="classtsl_1_1robin__map.html" target="_top" xlink:title=" ">
<polygon fill="white" stroke="#666666" points="826.62,-170.22 726.62,-170.22 726.62,-139.72 826.62,-139.72 826.62,-170.22"/>
<text text-anchor="start" x="734.62" y="-156.72" font-family="Helvetica,sans-Serif" font-size="10.00">tsl::robin_map&lt; std</text>
<text text-anchor="middle" x="776.62" y="-145.47" font-family="Helvetica,sans-Serif" font-size="10.00">::string, Property &gt;</text>
</a>
</g>
</g>
<!-- Node4&#45;&gt;Node3 -->
<g id="edge3_Node000003_Node000004" class="edge">
<title>Node4&#45;&gt;Node3</title>
<g id="a_edge3_Node000003_Node000004"><a xlink:title=" ">
<path fill="none" stroke="#9a32cd" stroke-dasharray="5,2" d="M838.21,-154.97C877.56,-154.97 928.53,-154.97 967.15,-154.97"/>
<polygon fill="#9a32cd" stroke="#9a32cd" points="838.43,-151.47 828.43,-154.97 838.43,-158.47 838.43,-151.47"/>
</a>
</g>
<text text-anchor="middle" x="899" y="-156.72" font-family="Helvetica,sans-Serif" font-size="10.00" fill="grey"> m_properties</text>
</g>
<!-- Node5 -->
<g id="Node000005" class="node">
<title>Node5</title>
<g id="a_Node000005"><a xlink:href="classtsl_1_1detail__robin__hash_1_1robin__hash.html" target="_top" xlink:title=" ">
<polygon fill="white" stroke="#666666" points="661.75,-200.6 453.75,-200.6 453.75,-91.35 661.75,-91.35 661.75,-200.6"/>
<text text-anchor="start" x="461.75" y="-187.1" font-family="Helvetica,sans-Serif" font-size="10.00">tsl::detail_robin_hash</text>
<text text-anchor="start" x="461.75" y="-175.85" font-family="Helvetica,sans-Serif" font-size="10.00">::robin_hash&lt; std::pair</text>
<text text-anchor="start" x="461.75" y="-164.6" font-family="Helvetica,sans-Serif" font-size="10.00">&lt; std::string, Property</text>
<text text-anchor="start" x="461.75" y="-153.35" font-family="Helvetica,sans-Serif" font-size="10.00"> &gt;, KeySelect, ValueSelect,</text>
<text text-anchor="start" x="461.75" y="-142.1" font-family="Helvetica,sans-Serif" font-size="10.00"> std::hash&lt; std::string &gt;,</text>
<text text-anchor="start" x="461.75" y="-130.85" font-family="Helvetica,sans-Serif" font-size="10.00"> std::equal_to&lt; std::string</text>
<text text-anchor="start" x="461.75" y="-119.6" font-family="Helvetica,sans-Serif" font-size="10.00"> &gt;, std::allocator&lt; std::pair</text>
<text text-anchor="start" x="461.75" y="-108.35" font-family="Helvetica,sans-Serif" font-size="10.00">&lt; std::string, Property &gt; &gt;, false,</text>
<text text-anchor="middle" x="557.75" y="-97.1" font-family="Helvetica,sans-Serif" font-size="10.00"> tsl::rh::power_of_two_growth_policy&lt; 2 &gt; &gt;</text>
</a>
</g>
</g>
<!-- Node5&#45;&gt;Node4 -->
<g id="edge4_Node000004_Node000005" class="edge">
<title>Node5&#45;&gt;Node4</title>
<g id="a_edge4_Node000004_Node000005"><a xlink:title=" ">
<path fill="none" stroke="#9a32cd" stroke-dasharray="5,2" d="M673.38,-150.73C691.98,-151.5 710.34,-152.26 726.25,-152.92"/>
<polygon fill="#9a32cd" stroke="#9a32cd" points="673.75,-147.24 663.62,-150.33 673.46,-154.24 673.75,-147.24"/>
</a>
</g>
<text text-anchor="middle" x="692.12" y="-152.72" font-family="Helvetica,sans-Serif" font-size="10.00" fill="grey"> m_ht</text>
</g>
<!-- Node6 -->
<g id="Node000006" class="node">
<title>Node6</title>
<g id="a_Node000006"><a xlink:title=" ">
<polygon fill="white" stroke="#666666" points="332.62,-351.6 214.62,-351.6 214.62,-332.35 332.62,-332.35 332.62,-351.6"/>
<text text-anchor="middle" x="273.62" y="-338.1" font-family="Helvetica,sans-Serif" font-size="10.00">std::hash&lt; std::string &gt;</text>
</a>
</g>
</g>
<!-- Node6&#45;&gt;Node5 -->
<g id="edge5_Node000005_Node000006" class="edge">
<title>Node6&#45;&gt;Node5</title>
<g id="a_edge5_Node000005_Node000006"><a xlink:title=" ">
<path fill="none" stroke="#8b1a1a" d="M326.81,-328.64C362.02,-317.16 407.11,-297.22 435.75,-264.97 452.27,-246.37 438.42,-231.56 453.75,-211.97 456.76,-208.13 460.06,-204.44 463.58,-200.91"/>
<polygon fill="#8b1a1a" stroke="#8b1a1a" points="326.18,-325.17 317.68,-331.49 328.27,-331.86 326.18,-325.17"/>
</a>
</g>
</g>
<!-- Node20 -->
<g id="Node000020" class="node">
<title>Node20</title>
<g id="a_Node000020"><a xlink:href="classtsl_1_1detail__robin__hash_1_1robin__hash.html" target="_top" xlink:title=" ">
<polygon fill="white" stroke="#666666" points="661.75,-330.6 453.75,-330.6 453.75,-221.35 661.75,-221.35 661.75,-330.6"/>
<text text-anchor="start" x="461.75" y="-317.1" font-family="Helvetica,sans-Serif" font-size="10.00">tsl::detail_robin_hash</text>
<text text-anchor="start" x="461.75" y="-305.85" font-family="Helvetica,sans-Serif" font-size="10.00">::robin_hash&lt; std::pair</text>
<text text-anchor="start" x="461.75" y="-294.6" font-family="Helvetica,sans-Serif" font-size="10.00">&lt; std::string, Field &gt;,</text>
<text text-anchor="start" x="461.75" y="-283.35" font-family="Helvetica,sans-Serif" font-size="10.00"> KeySelect, ValueSelect,</text>
<text text-anchor="start" x="461.75" y="-272.1" font-family="Helvetica,sans-Serif" font-size="10.00"> std::hash&lt; std::string &gt;,</text>
<text text-anchor="start" x="461.75" y="-260.85" font-family="Helvetica,sans-Serif" font-size="10.00"> std::equal_to&lt; std::string</text>
<text text-anchor="start" x="461.75" y="-249.6" font-family="Helvetica,sans-Serif" font-size="10.00"> &gt;, std::allocator&lt; std::pair</text>
<text text-anchor="start" x="461.75" y="-238.35" font-family="Helvetica,sans-Serif" font-size="10.00">&lt; std::string, Field &gt; &gt;, false,</text>
<text text-anchor="middle" x="557.75" y="-227.1" font-family="Helvetica,sans-Serif" font-size="10.00"> tsl::rh::power_of_two_growth_policy&lt; 2 &gt; &gt;</text>
</a>
</g>
</g>
<!-- Node6&#45;&gt;Node20 -->
<g id="edge21_Node000020_Node000006" class="edge">
<title>Node6&#45;&gt;Node20</title>
<g id="a_edge21_Node000020_Node000006"><a xlink:title=" ">
<path fill="none" stroke="#8b1a1a" d="M344.1,-348.82C372.86,-349.79 406.32,-348.48 435.75,-340.97 445.57,-338.47 455.47,-335.01 465.14,-330.97"/>
<polygon fill="#8b1a1a" stroke="#8b1a1a" points="344.57,-345.34 334.42,-348.39 344.25,-352.33 344.57,-345.34"/>
</a>
</g>
</g>
<!-- Node7 -->
<g id="Node000007" class="node">
<title>Node7</title>
<g id="a_Node000007"><a xlink:title=" ">
<polygon fill="white" stroke="#666666" points="321,-296.22 226.25,-296.22 226.25,-265.72 321,-265.72 321,-296.22"/>
<text text-anchor="start" x="234.25" y="-282.72" font-family="Helvetica,sans-Serif" font-size="10.00">std::equal_to&lt; std</text>
<text text-anchor="middle" x="273.62" y="-271.47" font-family="Helvetica,sans-Serif" font-size="10.00">::string &gt;</text>
</a>
</g>
</g>
<!-- Node7&#45;&gt;Node5 -->
<g id="edge6_Node000005_Node000007" class="edge">
<title>Node7&#45;&gt;Node5</title>
<g id="a_edge6_Node000005_Node000007"><a xlink:title=" ">
<path fill="none" stroke="#8b1a1a" d="M305.17,-258.38C317.59,-248.04 331.32,-234.97 341.25,-220.97 353.24,-204.08 342.98,-190.8 359.25,-177.97 374.42,-166.01 413.71,-158.4 453.28,-153.62"/>
<polygon fill="#8b1a1a" stroke="#8b1a1a" points="303.21,-255.46 297.61,-264.46 307.6,-260.92 303.21,-255.46"/>
</a>
</g>
</g>
<!-- Node7&#45;&gt;Node20 -->
<g id="edge22_Node000020_Node000007" class="edge">
<title>Node7&#45;&gt;Node20</title>
<g id="a_edge22_Node000020_Node000007"><a xlink:title=" ">
<path fill="none" stroke="#8b1a1a" d="M332.33,-288.71C341.33,-289.65 350.53,-290.46 359.25,-290.97 393.19,-292.97 401.81,-293.07 435.75,-290.97 441.56,-290.61 447.52,-290.16 453.53,-289.63"/>
<polygon fill="#8b1a1a" stroke="#8b1a1a" points="332.93,-285.25 322.6,-287.63 332.15,-292.21 332.93,-285.25"/>
</a>
</g>
</g>
<!-- Node8 -->
<g id="Node000008" class="node">
<title>Node8</title>
<g id="a_Node000008"><a xlink:href="classtsl_1_1rh_1_1power__of__two__growth__policy.html" target="_top" xlink:title=" ">
<polygon fill="white" stroke="#666666" points="327.38,-212.22 219.88,-212.22 219.88,-181.72 327.38,-181.72 327.38,-212.22"/>
<text text-anchor="start" x="227.88" y="-198.72" font-family="Helvetica,sans-Serif" font-size="10.00">tsl::rh::power_of_two</text>
<text text-anchor="middle" x="273.62" y="-187.47" font-family="Helvetica,sans-Serif" font-size="10.00">_growth_policy&lt; 2 &gt;</text>
</a>
</g>
</g>
<!-- Node8&#45;&gt;Node5 -->
<g id="edge7_Node000005_Node000008" class="edge">
<title>Node8&#45;&gt;Node5</title>
<g id="a_edge7_Node000005_Node000008"><a xlink:title=" ">
<path fill="none" stroke="#8b1a1a" d="M307.76,-175.38C322.83,-166.73 341.3,-157.7 359.25,-152.97 389.28,-145.07 422.76,-141.88 453.49,-141.05"/>
<polygon fill="#8b1a1a" stroke="#8b1a1a" points="306,-172.35 299.2,-180.48 309.59,-178.36 306,-172.35"/>
</a>
</g>
</g>
<!-- Node8&#45;&gt;Node20 -->
<g id="edge23_Node000020_Node000008" class="edge">
<title>Node8&#45;&gt;Node20</title>
<g id="a_edge23_Node000020_Node000008"><a xlink:title=" ">
<path fill="none" stroke="#8b1a1a" d="M299.38,-220.1C319.27,-238.11 346,-260.87 359.25,-265.97 388.65,-277.29 422.34,-281.77 453.48,-282.88"/>
<polygon fill="#8b1a1a" stroke="#8b1a1a" points="301.92,-217.68 292.18,-213.52 297.2,-222.85 301.92,-217.68"/>
</a>
</g>
</g>
<!-- Node9 -->
<g id="Node000009" class="node">
<title>Node9</title>
<g id="a_Node000009"><a xlink:href="classtsl_1_1detail__robin__hash_1_1bucket__entry.html" target="_top" xlink:title=" ">
<polygon fill="white" stroke="#666666" points="341.25,-148.85 206,-148.85 206,-107.1 341.25,-107.1 341.25,-148.85"/>
<text text-anchor="start" x="214" y="-135.35" font-family="Helvetica,sans-Serif" font-size="10.00">tsl::detail_robin_hash</text>
<text text-anchor="start" x="214" y="-124.1" font-family="Helvetica,sans-Serif" font-size="10.00">::bucket_entry&lt; ValueType,</text>
<text text-anchor="middle" x="273.62" y="-112.85" font-family="Helvetica,sans-Serif" font-size="10.00"> StoreHash &gt;</text>
</a>
</g>
</g>
<!-- Node9&#45;&gt;Node5 -->
<g id="edge8_Node000005_Node000009" class="edge">
<title>Node9&#45;&gt;Node5</title>
<g id="a_edge8_Node000005_Node000009"><a xlink:title=" ">
<path fill="none" stroke="#9a32cd" stroke-dasharray="5,2" d="M352.66,-114.34C354.88,-114.11 357.08,-113.9 359.25,-113.72 393.13,-110.89 402.04,-109.31 435.75,-113.72 441.57,-114.49 447.51,-115.45 453.48,-116.55"/>
<polygon fill="#9a32cd" stroke="#9a32cd" points="352.5,-110.84 342.98,-115.48 353.32,-117.79 352.5,-110.84"/>
</a>
</g>
<text text-anchor="middle" x="397.5" y="-114.72" font-family="Helvetica,sans-Serif" font-size="10.00" fill="grey"> m_buckets</text>
</g>
<!-- Node9&#45;&gt;Node20 -->
<g id="edge24_Node000020_Node000009" class="edge">
<title>Node9&#45;&gt;Node20</title>
<g id="a_edge24_Node000020_Node000009"><a xlink:title=" ">
<path fill="none" stroke="#9a32cd" stroke-dasharray="5,2" d="M324.88,-156.19C330.99,-161.18 336.68,-166.79 341.25,-172.97 357.54,-195.02 339.13,-213.35 359.25,-231.97 363.16,-235.59 407.67,-245.65 453.44,-255.24"/>
<polygon fill="#9a32cd" stroke="#9a32cd" points="327.01,-153.42 316.91,-150.23 322.82,-159.02 327.01,-153.42"/>
</a>
</g>
<text text-anchor="middle" x="397.5" y="-251.72" font-family="Helvetica,sans-Serif" font-size="10.00" fill="grey"> m_buckets</text>
</g>
<!-- Node10 -->
<g id="Node000010" class="node">
<title>Node10</title>
<g id="a_Node000010"><a xlink:href="classtsl_1_1detail__robin__hash_1_1bucket__entry__hash.html" target="_top" xlink:title=" ">
<polygon fill="white" stroke="#666666" points="169,-143.22 0,-143.22 0,-112.72 169,-112.72 169,-143.22"/>
<text text-anchor="start" x="8" y="-129.72" font-family="Helvetica,sans-Serif" font-size="10.00">tsl::detail_robin_hash</text>
<text text-anchor="middle" x="84.5" y="-118.47" font-family="Helvetica,sans-Serif" font-size="10.00">::bucket_entry_hash&lt; StoreHash &gt;</text>
</a>
</g>
</g>
<!-- Node10&#45;&gt;Node9 -->
<g id="edge9_Node000009_Node000010" class="edge">
<title>Node10&#45;&gt;Node9</title>
<g id="a_edge9_Node000009_Node000010"><a xlink:title=" ">
<path fill="none" stroke="#63b8ff" d="M180.91,-127.97C189.3,-127.97 197.66,-127.97 205.74,-127.97"/>
<polygon fill="#63b8ff" stroke="#63b8ff" points="181,-124.47 171,-127.97 181,-131.47 181,-124.47"/>
</a>
</g>
</g>
<!-- Node11 -->
<g id="Node000011" class="node">
<title>Node11</title>
<g id="a_Node000011"><a xlink:title=" ">
<polygon fill="white" stroke="#666666" points="294.75,-84.6 252.5,-84.6 252.5,-65.35 294.75,-65.35 294.75,-84.6"/>
<text text-anchor="middle" x="273.62" y="-71.1" font-family="Helvetica,sans-Serif" font-size="10.00">size_t</text>
</a>
</g>
</g>
<!-- Node11&#45;&gt;Node5 -->
<g id="edge10_Node000005_Node000011" class="edge">
<title>Node11&#45;&gt;Node5</title>
<g id="a_edge10_Node000005_Node000011"><a xlink:title=" ">
<path fill="none" stroke="#9a32cd" stroke-dasharray="5,2" d="M306.39,-69.51C339.39,-65.01 392.18,-61.13 435.75,-73.22 450.39,-77.29 465.04,-83.65 478.83,-90.96"/>
<polygon fill="#9a32cd" stroke="#9a32cd" points="306.07,-66.02 296.69,-70.94 307.09,-72.94 306.07,-66.02"/>
</a>
</g>
<text text-anchor="middle" x="397.5" y="-98.22" font-family="Helvetica,sans-Serif" font-size="10.00" fill="grey"> m_bucket_count</text>
<text text-anchor="middle" x="397.5" y="-86.97" font-family="Helvetica,sans-Serif" font-size="10.00" fill="grey">m_load_threshold</text>
<text text-anchor="middle" x="397.5" y="-75.72" font-family="Helvetica,sans-Serif" font-size="10.00" fill="grey">m_nb_elements</text>
</g>
<!-- Node11&#45;&gt;Node20 -->
<g id="edge25_Node000020_Node000011" class="edge">
<title>Node11&#45;&gt;Node20</title>
<g id="a_edge25_Node000020_Node000011"><a xlink:title=" ">
<path fill="none" stroke="#9a32cd" stroke-dasharray="5,2" d="M306.03,-80.98C318,-84.45 331.17,-89.8 341.25,-97.97 353.33,-107.77 349.25,-116.07 359.25,-127.97 388.18,-162.41 401.83,-164.69 435.75,-194.22 443.77,-201.2 445.25,-203.59 453.75,-209.97 458.59,-213.61 463.63,-217.25 468.76,-220.86"/>
<polygon fill="#9a32cd" stroke="#9a32cd" points="307.09,-77.64 296.54,-78.58 305.38,-84.43 307.09,-77.64"/>
</a>
</g>
<text text-anchor="middle" x="397.5" y="-218.22" font-family="Helvetica,sans-Serif" font-size="10.00" fill="grey"> m_bucket_count</text>
<text text-anchor="middle" x="397.5" y="-206.97" font-family="Helvetica,sans-Serif" font-size="10.00" fill="grey">m_load_threshold</text>
<text text-anchor="middle" x="397.5" y="-195.72" font-family="Helvetica,sans-Serif" font-size="10.00" fill="grey">m_nb_elements</text>
</g>
<!-- Node12 -->
<g id="Node000012" class="node">
<title>Node12</title>
<g id="a_Node000012"><a xlink:href="classIoss_1_1ElementTopology.html" target="_top" xlink:title="Represents an element topology.">
<polygon fill="white" stroke="#666666" points="1083,-121.6 967.25,-121.6 967.25,-102.35 1083,-102.35 1083,-121.6"/>
<text text-anchor="middle" x="1025.12" y="-108.1" font-family="Helvetica,sans-Serif" font-size="10.00">Ioss::ElementTopology</text>
</a>
</g>
</g>
<!-- Node12&#45;&gt;Node2 -->
<g id="edge11_Node000002_Node000012" class="edge">
<title>Node12&#45;&gt;Node2</title>
<g id="a_edge11_Node000002_Node000012"><a xlink:title=" ">
<path fill="none" stroke="#9a32cd" stroke-dasharray="5,2" d="M1094.87,-113.4C1135.24,-114.24 1185.18,-115.28 1220.83,-116.02"/>
<polygon fill="#9a32cd" stroke="#9a32cd" points="1095.07,-109.9 1085,-113.2 1094.92,-116.9 1095.07,-109.9"/>
</a>
</g>
<text text-anchor="middle" x="1150.62" y="-116.72" font-family="Helvetica,sans-Serif" font-size="10.00" fill="grey"> commonSideTopology</text>
</g>
<!-- Node13 -->
<g id="Node000013" class="node">
<title>Node13</title>
<g id="a_Node000013"><a xlink:href="classstd_1_1basic__string.html" target="_top" xlink:title=" ">
<polygon fill="white" stroke="#666666" points="830.75,-121.22 722.5,-121.22 722.5,-90.72 830.75,-90.72 830.75,-121.22"/>
<text text-anchor="start" x="730.5" y="-107.72" font-family="Helvetica,sans-Serif" font-size="10.00">std::basic_string&lt;</text>
<text text-anchor="middle" x="776.62" y="-96.47" font-family="Helvetica,sans-Serif" font-size="10.00"> Elem, Traits, Alloc &gt;</text>
</a>
</g>
</g>
<!-- Node13&#45;&gt;Node12 -->
<g id="edge12_Node000012_Node000013" class="edge">
<title>Node13&#45;&gt;Node12</title>
<g id="a_edge12_Node000012_Node000013"><a xlink:title=" ">
<path fill="none" stroke="#9a32cd" stroke-dasharray="5,2" d="M842.25,-107.55C880.91,-108.49 929.61,-109.67 966.88,-110.58"/>
<polygon fill="#9a32cd" stroke="#9a32cd" points="842.71,-104.06 832.62,-107.31 842.54,-111.05 842.71,-104.06"/>
</a>
</g>
<text text-anchor="middle" x="899" y="-122.97" font-family="Helvetica,sans-Serif" font-size="10.00" fill="grey"> masterElementName_</text>
<text text-anchor="middle" x="899" y="-111.72" font-family="Helvetica,sans-Serif" font-size="10.00" fill="grey">name_</text>
</g>
<!-- Node14 -->
<g id="Node000014" class="node">
<title>Node14</title>
<g id="a_Node000014"><a xlink:href="classIoss_1_1Map.html" target="_top" xlink:title=" ">
<polygon fill="white" stroke="#666666" points="1054.88,-58.6 995.38,-58.6 995.38,-39.35 1054.88,-39.35 1054.88,-58.6"/>
<text text-anchor="middle" x="1025.12" y="-45.1" font-family="Helvetica,sans-Serif" font-size="10.00">Ioss::Map</text>
</a>
</g>
</g>
<!-- Node14&#45;&gt;Node2 -->
<g id="edge13_Node000002_Node000014" class="edge">
<title>Node14&#45;&gt;Node2</title>
<g id="a_edge13_Node000002_Node000014"><a xlink:title=" ">
<path fill="none" stroke="#9a32cd" stroke-dasharray="5,2" d="M1066.68,-42.99C1104.01,-39.57 1159.61,-39.92 1200.25,-63.97 1212.66,-71.32 1207.57,-81.28 1218.25,-90.97 1225.34,-97.41 1234.31,-102.78 1242.61,-106.94"/>
<polygon fill="#9a32cd" stroke="#9a32cd" points="1066.32,-39.51 1056.74,-44.05 1067.06,-46.47 1066.32,-39.51"/>
</a>
</g>
<text text-anchor="middle" x="1150.62" y="-99.47" font-family="Helvetica,sans-Serif" font-size="10.00" fill="grey"> edgeMap</text>
<text text-anchor="middle" x="1150.62" y="-88.22" font-family="Helvetica,sans-Serif" font-size="10.00" fill="grey">elemMap</text>
<text text-anchor="middle" x="1150.62" y="-76.97" font-family="Helvetica,sans-Serif" font-size="10.00" fill="grey">faceMap</text>
<text text-anchor="middle" x="1150.62" y="-65.72" font-family="Helvetica,sans-Serif" font-size="10.00" fill="grey">nodeMap</text>
</g>
<!-- Node15 -->
<g id="Node000015" class="node">
<title>Node15</title>
<g id="a_Node000015"><a xlink:href="classIoss_1_1ParallelUtils.html" target="_top" xlink:title=" ">
<polygon fill="white" stroke="#666666" points="1071.75,-21.6 978.5,-21.6 978.5,-2.35 1071.75,-2.35 1071.75,-21.6"/>
<text text-anchor="middle" x="1025.12" y="-8.1" font-family="Helvetica,sans-Serif" font-size="10.00">Ioss::ParallelUtils</text>
</a>
</g>
</g>
<!-- Node15&#45;&gt;Node2 -->
<g id="edge14_Node000002_Node000015" class="edge">
<title>Node15&#45;&gt;Node2</title>
<g id="a_edge14_Node000002_Node000015"><a xlink:title=" ">
<path fill="none" stroke="#9a32cd" stroke-dasharray="5,2" d="M1083.39,-1.39C1120.72,2.12 1168.26,-0.26 1200.25,-26.72 1223.1,-45.62 1199.68,-67.85 1218.25,-90.97 1223.7,-97.77 1231.42,-103.02 1239.11,-106.96"/>
<polygon fill="#9a32cd" stroke="#9a32cd" points="1083.21,2.12 1073.66,-2.48 1083.99,-4.84 1083.21,2.12"/>
</a>
</g>
<text text-anchor="middle" x="1150.62" y="-28.72" font-family="Helvetica,sans-Serif" font-size="10.00" fill="grey"> util_</text>
</g>
<!-- Node16 -->
<g id="Node000016" class="node">
<title>Node16</title>
<g id="a_Node000016"><a xlink:href="classIoss_1_1Region.html" target="_top" xlink:title="A grouping entity that contains other grouping entities.">
<polygon fill="white" stroke="#666666" points="1615.25,-139.6 1543.75,-139.6 1543.75,-120.35 1615.25,-120.35 1615.25,-139.6"/>
<text text-anchor="middle" x="1579.5" y="-126.1" font-family="Helvetica,sans-Serif" font-size="10.00">Ioss::Region</text>
</a>
</g>
</g>
<!-- Node16&#45;&gt;Node2 -->
<g id="edge15_Node000002_Node000016" class="edge">
<title>Node16&#45;&gt;Node2</title>
<g id="a_edge15_Node000002_Node000016"><a xlink:title=" ">
<path fill="none" stroke="#9a32cd" stroke-dasharray="5,2" d="M1532.16,-128.03C1473.58,-125.57 1373.33,-121.36 1314.89,-118.91"/>
<polygon fill="#9a32cd" stroke="#9a32cd" points="1531.65,-131.51 1541.79,-128.43 1531.94,-124.52 1531.65,-131.51"/>
</a>
</g>
<text text-anchor="middle" x="1454.12" y="-127.72" font-family="Helvetica,sans-Serif" font-size="10.00" fill="grey"> region_</text>
</g>
<!-- Node17&#45;&gt;Node16 -->
<g id="edge16_Node000016_Node000017" class="edge">
<title>Node17&#45;&gt;Node16</title>
<g id="a_edge16_Node000016_Node000017"><a xlink:title=" ">
<path fill="none" stroke="#63b8ff" d="M1499.85,-153.56C1514.69,-149.11 1530.96,-144.23 1544.83,-140.07"/>
<polygon fill="#63b8ff" stroke="#63b8ff" points="1498.86,-150.2 1490.29,-156.43 1500.87,-156.91 1498.86,-150.2"/>
</a>
</g>
</g>
<!-- Node18 -->
<g id="Node000018" class="node">
<title>Node18</title>
<g id="a_Node000018"><a xlink:href="classIoss_1_1FieldManager.html" target="_top" xlink:title="A collection of Ioss::Field objects.">
<polygon fill="white" stroke="#666666" points="1200.25,-261.6 1101,-261.6 1101,-242.35 1200.25,-242.35 1200.25,-261.6"/>
<text text-anchor="middle" x="1150.62" y="-248.1" font-family="Helvetica,sans-Serif" font-size="10.00">Ioss::FieldManager</text>
</a>
</g>
</g>
<!-- Node18&#45;&gt;Node17 -->
<g id="edge18_Node000017_Node000018" class="edge">
<title>Node18&#45;&gt;Node17</title>
<g id="a_edge18_Node000017_Node000018"><a xlink:title=" ">
<path fill="none" stroke="#9a32cd" stroke-dasharray="5,2" d="M1204.96,-239.15C1252.16,-227.51 1322.78,-209.4 1383.5,-190.97 1397.45,-186.74 1412.78,-181.52 1425.5,-177.03"/>
<polygon fill="#9a32cd" stroke="#9a32cd" points="1204.13,-235.75 1195.25,-241.53 1205.79,-242.54 1204.13,-235.75"/>
</a>
</g>
<text text-anchor="middle" x="1267.88" y="-236.72" font-family="Helvetica,sans-Serif" font-size="10.00" fill="grey"> fields</text>
</g>
<!-- Node19 -->
<g id="Node000019" class="node">
<title>Node19</title>
<g id="a_Node000019"><a xlink:href="classtsl_1_1robin__map.html" target="_top" xlink:title=" ">
<polygon fill="white" stroke="#666666" points="826.62,-283.22 726.62,-283.22 726.62,-252.72 826.62,-252.72 826.62,-283.22"/>
<text text-anchor="start" x="734.62" y="-269.72" font-family="Helvetica,sans-Serif" font-size="10.00">tsl::robin_map&lt; std</text>
<text text-anchor="middle" x="776.62" y="-258.47" font-family="Helvetica,sans-Serif" font-size="10.00">::string, Field &gt;</text>
</a>
</g>
</g>
<!-- Node19&#45;&gt;Node18 -->
<g id="edge19_Node000018_Node000019" class="edge">
<title>Node19&#45;&gt;Node18</title>
<g id="a_edge19_Node000018_Node000019"><a xlink:title=" ">
<path fill="none" stroke="#9a32cd" stroke-dasharray="5,2" d="M838.34,-265.36C911.53,-262.21 1033.1,-256.99 1100.61,-254.08"/>
<polygon fill="#9a32cd" stroke="#9a32cd" points="838.38,-261.86 828.54,-265.78 838.68,-268.85 838.38,-261.86"/>
</a>
</g>
<text text-anchor="middle" x="899" y="-265.72" font-family="Helvetica,sans-Serif" font-size="10.00" fill="grey"> fields</text>
</g>
<!-- Node20&#45;&gt;Node19 -->
<g id="edge20_Node000019_Node000020" class="edge">
<title>Node20&#45;&gt;Node19</title>
<g id="a_edge20_Node000019_Node000020"><a xlink:title=" ">
<path fill="none" stroke="#9a32cd" stroke-dasharray="5,2" d="M673.38,-271.74C691.98,-271.06 710.34,-270.38 726.25,-269.79"/>
<polygon fill="#9a32cd" stroke="#9a32cd" points="673.48,-268.24 663.62,-272.1 673.74,-275.23 673.48,-268.24"/>
</a>
</g>
<text text-anchor="middle" x="692.12" y="-272.72" font-family="Helvetica,sans-Serif" font-size="10.00" fill="grey"> m_ht</text>
</g>
<!-- Node21 -->
<g id="Node000021" class="node">
<title>Node21</title>
<g id="a_Node000021"><a xlink:href="classstd_1_1basic__ostream.html" target="_top" xlink:title=" ">
<polygon fill="white" stroke="#666666" points="1317.5,-82.22 1218.25,-82.22 1218.25,-51.72 1317.5,-51.72 1317.5,-82.22"/>
<text text-anchor="start" x="1226.25" y="-68.72" font-family="Helvetica,sans-Serif" font-size="10.00">std::basic_ostream</text>
<text text-anchor="middle" x="1267.88" y="-57.47" font-family="Helvetica,sans-Serif" font-size="10.00">&lt; charT, traits &gt;</text>
</a>
</g>
</g>
<!-- Node21&#45;&gt;Node1 -->
<g id="edge27_Node000001_Node000021" class="edge">
<title>Node21&#45;&gt;Node1</title>
<g id="a_edge27_Node000001_Node000021"><a xlink:title=" ">
<path fill="none" stroke="#9a32cd" stroke-dasharray="5,2" d="M1329.2,-67.08C1346.72,-67.19 1365.87,-67.38 1383.5,-67.72 1391.12,-67.87 1399.2,-68.08 1407.06,-68.32"/>
<polygon fill="#9a32cd" stroke="#9a32cd" points="1329.5,-63.58 1319.48,-67.02 1329.46,-70.58 1329.5,-63.58"/>
</a>
</g>
<text text-anchor="middle" x="1359.5" y="-69.72" font-family="Helvetica,sans-Serif" font-size="10.00" fill="grey"> logStream</text>
</g>
</g>
</svg>
