<?xml version="1.0" encoding="UTF-8" standalone="no"?>
<!DOCTYPE svg PUBLIC "-//W3C//DTD SVG 1.1//EN"
 "http://www.w3.org/Graphics/SVG/1.1/DTD/svg11.dtd">
<!-- Generated by graphviz version 7.0.2 (20221119.0110)
 -->
<!-- Title: tsl::detail_hopscotch_hash::hopscotch_hash&lt; ValueType, KeySelect, ValueSelect, Hash, KeyEqual, Allocator, NeighborhoodSize, StoreHash, GrowthPolicy, OverflowContainer &gt; Pages: 1 -->
<!--zoomable 209 -->
<svg id="main" version="1.1" xmlns="http://www.w3.org/2000/svg" xmlns:xlink="http://www.w3.org/1999/xlink" xml:space="preserve" onload="init(evt)">
<style type="text/css"><![CDATA[
.edge:hover path { stroke: red; }
.edge:hover polygon { stroke: red; fill: red; }
]]></style>
<script type="text/javascript"><![CDATA[
var edges = document.getElementsByTagName('g');
if (edges && edges.length) {
  for (var i=0;i<edges.length;i++) {
    if (edges[i].id.substr(0,4)=='edge') {
      edges[i].setAttribute('class','edge');
    }
  }
}
]]></script>
        <defs>
                <circle id="rim" cx="0" cy="0" r="7"/>
                <circle id="rim2" cx="0" cy="0" r="3.5"/>
                <g id="zoomPlus">
                        <use xlink:href="#rim" fill="#404040">
                                <set attributeName="fill" to="#808080" begin="zoomplus.mouseover" end="zoomplus.mouseout"/>
                        </use>
                        <path d="M-4,0h8M0,-4v8" fill="none" stroke="white" stroke-width="1.5" pointer-events="none"/>
                </g>
                <g id="zoomMin">
                        <use xlink:href="#rim" fill="#404040">
                                <set attributeName="fill" to="#808080" begin="zoomminus.mouseover" end="zoomminus.mouseout"/>
                        </use>
                        <path d="M-4,0h8" fill="none" stroke="white" stroke-width="1.5" pointer-events="none"/>
                </g>
                <g id="dirArrow">
                        <path fill="none" stroke="white" stroke-width="1.5" d="M0,-3.0v7 M-2.5,-0.5L0,-3.0L2.5,-0.5"/>
                </g>
               <g id="resetDef">
                       <use xlink:href="#rim2" fill="#404040">
                               <set attributeName="fill" to="#808080" begin="reset.mouseover" end="reset.mouseout"/>
                       </use>
               </g>
        </defs>

<script type="text/javascript">
var viewWidth = 909;
var viewHeight = 209;
var sectionId = 'dynsection-1';
</script>
<script xlink:href="svgpan.js"/>
<svg id="graph" class="graph">
<g id="viewport">
<title>tsl::detail_hopscotch_hash::hopscotch_hash&lt; ValueType, KeySelect, ValueSelect, Hash, KeyEqual, Allocator, NeighborhoodSize, StoreHash, GrowthPolicy, OverflowContainer &gt;</title>
<!-- Node1 -->
<g id="node1" class="node">
<title>Node1</title>
<g id="a_node1"><a xlink:title=" ">
<polygon fill="#999999" stroke="#666666" points="901,-154.5 676,-154.5 676,-80.5 901,-80.5 901,-154.5"/>
<text text-anchor="start" x="684" y="-142.5" font-family="Helvetica,sans-Serif" font-size="10.00">tsl::detail_hopscotch</text>
<text text-anchor="start" x="684" y="-131.5" font-family="Helvetica,sans-Serif" font-size="10.00">_hash::hopscotch_hash</text>
<text text-anchor="start" x="684" y="-120.5" font-family="Helvetica,sans-Serif" font-size="10.00">&lt; ValueType, KeySelect,</text>
<text text-anchor="start" x="684" y="-109.5" font-family="Helvetica,sans-Serif" font-size="10.00"> ValueSelect, Hash, KeyEqual,</text>
<text text-anchor="start" x="684" y="-98.5" font-family="Helvetica,sans-Serif" font-size="10.00"> Allocator, NeighborhoodSize,</text>
<text text-anchor="middle" x="788.5" y="-87.5" font-family="Helvetica,sans-Serif" font-size="10.00"> StoreHash, GrowthPolicy, OverflowContainer &gt;</text>
</a>
</g>
</g>
<!-- Node2 -->
<g id="node2" class="node">
<title>Node2</title>
<g id="a_node2"><a xlink:title=" ">
<polygon fill="white" stroke="#666666" points="476.5,-201 436.5,-201 436.5,-182 476.5,-182 476.5,-201"/>
<text text-anchor="middle" x="456.5" y="-189" font-family="Helvetica,sans-Serif" font-size="10.00">Hash</text>
</a>
</g>
</g>
<!-- Node2&#45;&gt;Node1 -->
<g id="edge1" class="edge">
<title>Node2&#45;&gt;Node1</title>
<path fill="none" stroke="#8b1a1a" d="M488.13,-185.98C527.56,-178.74 598.13,-165.32 658,-151.5 663.78,-150.17 669.69,-148.76 675.65,-147.31"/>
<polygon fill="#8b1a1a" stroke="#8b1a1a" points="487.64,-182.51 478.43,-187.75 488.89,-189.4 487.64,-182.51"/>
</g>
<!-- Node3 -->
<g id="node3" class="node">
<title>Node3</title>
<g id="a_node3"><a xlink:title=" ">
<polygon fill="white" stroke="#666666" points="486,-164 427,-164 427,-145 486,-145 486,-164"/>
<text text-anchor="middle" x="456.5" y="-152" font-family="Helvetica,sans-Serif" font-size="10.00">KeyEqual</text>
</a>
</g>
</g>
<!-- Node3&#45;&gt;Node1 -->
<g id="edge2" class="edge">
<title>Node3&#45;&gt;Node1</title>
<path fill="none" stroke="#8b1a1a" d="M497.85,-149.98C541.84,-145.04 614.17,-136.93 675.54,-130.05"/>
<polygon fill="#8b1a1a" stroke="#8b1a1a" points="497.55,-146.49 488,-151.08 498.33,-153.44 497.55,-146.49"/>
</g>
<!-- Node4 -->
<g id="node4" class="node">
<title>Node4</title>
<g id="a_node4"><a xlink:title=" ">
<polygon fill="white" stroke="#666666" points="494,-127 419,-127 419,-108 494,-108 494,-127"/>
<text text-anchor="middle" x="456.5" y="-115" font-family="Helvetica,sans-Serif" font-size="10.00">GrowthPolicy</text>
</a>
</g>
</g>
<!-- Node4&#45;&gt;Node1 -->
<g id="edge3" class="edge">
<title>Node4&#45;&gt;Node1</title>
<path fill="none" stroke="#8b1a1a" d="M505.74,-117.5C550.22,-117.5 617.91,-117.5 675.8,-117.5"/>
<polygon fill="#8b1a1a" stroke="#8b1a1a" points="505.91,-114 495.91,-117.5 505.91,-121 505.91,-114"/>
</g>
<!-- Node5 -->
<g id="node5" class="node">
<title>Node5</title>
<g id="a_node5"><a xlink:href="classtsl_1_1detail__hopscotch__hash_1_1hopscotch__bucket.html" target="_top" xlink:title=" ">
<polygon fill="white" stroke="#666666" points="536,-89.5 377,-89.5 377,-37.5 536,-37.5 536,-89.5"/>
<text text-anchor="start" x="385" y="-77.5" font-family="Helvetica,sans-Serif" font-size="10.00">tsl::detail_hopscotch</text>
<text text-anchor="start" x="385" y="-66.5" font-family="Helvetica,sans-Serif" font-size="10.00">_hash::hopscotch_bucket</text>
<text text-anchor="start" x="385" y="-55.5" font-family="Helvetica,sans-Serif" font-size="10.00">&lt; ValueType, NeighborhoodSize,</text>
<text text-anchor="middle" x="456.5" y="-44.5" font-family="Helvetica,sans-Serif" font-size="10.00"> StoreHash &gt;</text>
</a>
</g>
</g>
<!-- Node5&#45;&gt;Node1 -->
<g id="edge4" class="edge">
<title>Node5&#45;&gt;Node1</title>
<path fill="none" stroke="#9a32cd" stroke-dasharray="5,2" d="M547.36,-78.2C586.97,-84.69 633.93,-92.37 675.77,-99.22"/>
<polygon fill="#9a32cd" stroke="#9a32cd" points="548.05,-74.77 537.62,-76.61 546.92,-81.68 548.05,-74.77"/>
<text text-anchor="middle" x="606" y="-97.5" font-family="Helvetica,sans-Serif" font-size="10.00"> m_buckets</text>
</g>
<!-- Node6 -->
<g id="node6" class="node">
<title>Node6</title>
<g id="a_node6"><a xlink:href="classtsl_1_1detail__hopscotch__hash_1_1hopscotch__bucket__hash.html" target="_top" xlink:title=" ">
<polygon fill="white" stroke="#666666" points="184,-116 56,-116 56,-75 184,-75 184,-116"/>
<text text-anchor="start" x="64" y="-104" font-family="Helvetica,sans-Serif" font-size="10.00">tsl::detail_hopscotch</text>
<text text-anchor="start" x="64" y="-93" font-family="Helvetica,sans-Serif" font-size="10.00">_hash::hopscotch_bucket</text>
<text text-anchor="middle" x="120" y="-82" font-family="Helvetica,sans-Serif" font-size="10.00">_hash&lt; StoreHash &gt;</text>
</a>
</g>
</g>
<!-- Node6&#45;&gt;Node5 -->
<g id="edge5" class="edge">
<title>Node6&#45;&gt;Node5</title>
<path fill="none" stroke="#63b8ff" d="M195.49,-88.37C249.26,-83.23 321.74,-76.3 376.52,-71.06"/>
<polygon fill="#63b8ff" stroke="#63b8ff" points="195.44,-84.86 185.82,-89.3 196.1,-91.83 195.44,-84.86"/>
</g>
<!-- Node7 -->
<g id="node7" class="node">
<title>Node7</title>
<g id="a_node7"><a xlink:href="classtsl_1_1detail__hopscotch__hash_1_1smallest__type__for__min__bits.html" target="_top" xlink:title=" ">
<polygon fill="white" stroke="#666666" points="240,-56.5 0,-56.5 0,-4.5 240,-4.5 240,-56.5"/>
<text text-anchor="start" x="8" y="-44.5" font-family="Helvetica,sans-Serif" font-size="10.00">tsl::detail_hopscotch</text>
<text text-anchor="start" x="8" y="-33.5" font-family="Helvetica,sans-Serif" font-size="10.00">_hash::smallest_type</text>
<text text-anchor="start" x="8" y="-22.5" font-family="Helvetica,sans-Serif" font-size="10.00">_for_min_bits&lt; NeighborhoodSize</text>
<text text-anchor="middle" x="120" y="-11.5" font-family="Helvetica,sans-Serif" font-size="10.00">+NB_RESERVED_BITS_IN_NEIGHBORHOOD &gt;</text>
</a>
</g>
</g>
<!-- Node7&#45;&gt;Node5 -->
<g id="edge6" class="edge">
<title>Node7&#45;&gt;Node5</title>
<path fill="none" stroke="#9a32cd" stroke-dasharray="5,2" d="M251.59,-43.38C293.87,-47.55 339.43,-52.05 376.73,-55.73"/>
<polygon fill="#9a32cd" stroke="#9a32cd" points="252.15,-39.92 241.85,-42.42 251.46,-46.89 252.15,-39.92"/>
<text text-anchor="middle" x="308.5" y="-56.5" font-family="Helvetica,sans-Serif" font-size="10.00"> m_neighborhood_infos</text>
</g>
<!-- Node8 -->
<g id="node8" class="node">
<title>Node8</title>
<g id="a_node8"><a xlink:title=" ">
<polygon fill="white" stroke="#666666" points="478,-19 435,-19 435,0 478,0 478,-19"/>
<text text-anchor="middle" x="456.5" y="-7" font-family="Helvetica,sans-Serif" font-size="10.00">size_t</text>
</a>
</g>
</g>
<!-- Node8&#45;&gt;Node1 -->
<g id="edge7" class="edge">
<title>Node8&#45;&gt;Node1</title>
<path fill="none" stroke="#9a32cd" stroke-dasharray="5,2" d="M489.82,-5.41C530.43,-1.54 601.63,1 658,-19.5 693.24,-32.32 726.82,-58.27 750.95,-80.25"/>
<polygon fill="#9a32cd" stroke="#9a32cd" points="489.58,-1.92 480,-6.45 490.31,-8.88 489.58,-1.92"/>
<text text-anchor="start" x="554" y="-66.5" font-family="Helvetica,sans-Serif" font-size="10.00"> m_max_load_threshold</text>
<text text-anchor="middle" x="606" y="-55.5" font-family="Helvetica,sans-Serif" font-size="10.00">_rehash</text>
<text text-anchor="start" x="554" y="-44.5" font-family="Helvetica,sans-Serif" font-size="10.00">m_min_load_threshold</text>
<text text-anchor="middle" x="606" y="-33.5" font-family="Helvetica,sans-Serif" font-size="10.00">_rehash</text>
<text text-anchor="middle" x="606" y="-22.5" font-family="Helvetica,sans-Serif" font-size="10.00">m_nb_elements</text>
</g>
</g>
</svg>
        <g id="navigator" transform="translate(0 0)" fill="#404254">
                <rect fill="#f2f5e9" fill-opacity="0.5" stroke="#606060" stroke-width=".5" x="0" y="0" width="60" height="60"/>
                <use id="zoomplus" xlink:href="#zoomPlus" x="17" y="9" onmousedown="handleZoom(evt,'in')"/>
                <use id="zoomminus" xlink:href="#zoomMin" x="42" y="9" onmousedown="handleZoom(evt,'out')"/>
                <use id="reset" xlink:href="#resetDef" x="30" y="36" onmousedown="handleReset()"/>
                <g id="arrowUp" xlink:href="#dirArrow" transform="translate(30 24)" onmousedown="handlePan(0,-1)">
                  <use xlink:href="#rim" fill="#404040">
                        <set attributeName="fill" to="#808080" begin="arrowUp.mouseover" end="arrowUp.mouseout"/>
                  </use>
                  <path fill="none" stroke="white" stroke-width="1.5" d="M0,-3.0v7 M-2.5,-0.5L0,-3.0L2.5,-0.5"/>
                </g>
                <g id="arrowRight" xlink:href="#dirArrow" transform="rotate(90) translate(36 -43)" onmousedown="handlePan(1,0)">
                  <use xlink:href="#rim" fill="#404040">
                        <set attributeName="fill" to="#808080" begin="arrowRight.mouseover" end="arrowRight.mouseout"/>
                  </use>
                  <path fill="none" stroke="white" stroke-width="1.5" d="M0,-3.0v7 M-2.5,-0.5L0,-3.0L2.5,-0.5"/>
                </g>
                <g id="arrowDown" xlink:href="#dirArrow" transform="rotate(180) translate(-30 -48)" onmousedown="handlePan(0,1)">
                  <use xlink:href="#rim" fill="#404040">
                        <set attributeName="fill" to="#808080" begin="arrowDown.mouseover" end="arrowDown.mouseout"/>
                  </use>
                  <path fill="none" stroke="white" stroke-width="1.5" d="M0,-3.0v7 M-2.5,-0.5L0,-3.0L2.5,-0.5"/>
                </g>
                <g id="arrowLeft" xlink:href="#dirArrow" transform="rotate(270) translate(-36 17)" onmousedown="handlePan(-1,0)">
                  <use xlink:href="#rim" fill="#404040">
                        <set attributeName="fill" to="#808080" begin="arrowLeft.mouseover" end="arrowLeft.mouseout"/>
                  </use>
                  <path fill="none" stroke="white" stroke-width="1.5" d="M0,-3.0v7 M-2.5,-0.5L0,-3.0L2.5,-0.5"/>
                </g>
        </g>
        <svg viewBox="0 0 15 15" width="100%" height="30px" preserveAspectRatio="xMaxYMin meet">
         <g id="arrow_out" transform="scale(0.3 0.3)">
          <a xlink:href="classtsl_1_1detail__hopscotch__hash_1_1hopscotch__hash__coll__graph_org.svg" target="_base">
           <rect id="button" ry="5" rx="5" y="6" x="6" height="38" width="38"
                fill="#f2f5e9" fill-opacity="0.5" stroke="#606060" stroke-width="1.0"/>
           <path id="arrow"
             d="M 11.500037,31.436501 C 11.940474,20.09759 22.043105,11.32322 32.158766,21.979434 L 37.068811,17.246167 C 37.068811,17.246167 37.088388,32 37.088388,32 L 22.160133,31.978069 C 22.160133,31.978069 26.997745,27.140456 26.997745,27.140456 C 18.528582,18.264221 13.291696,25.230495 11.500037,31.436501 z"
             style="fill:#404040;"/>
          </a>
         </g>
        </svg>
</svg>
