<?xml version="1.0" encoding="UTF-8" standalone="no"?>
<!DOCTYPE svg PUBLIC "-//W3C//DTD SVG 1.1//EN"
 "http://www.w3.org/Graphics/SVG/1.1/DTD/svg11.dtd">
<!-- Generated by graphviz version 3.0.0 (20220226.1711)
 -->
<!-- Title: Ioss::SideBlock Pages: 1 -->
<svg width="1371pt" height="491pt"
 viewBox="0.00 0.00 1371.00 490.50" xmlns="http://www.w3.org/2000/svg" xmlns:xlink="http://www.w3.org/1999/xlink">
<g id="graph0" class="graph" transform="scale(1 1) rotate(0) translate(4 486.5)">
<title>Ioss::SideBlock</title>
<polygon fill="white" stroke="transparent" points="-4,4 -4,-486.5 1367,-486.5 1367,4 -4,4"/>
<!-- Node1 -->
<g id="node1" class="node">
<title>Node1</title>
<g id="a_node1"><a xlink:title="A collection of element sides having the same topology.">
<polygon fill="#bfbfbf" stroke="black" points="1273,-439 1273,-458 1359,-458 1359,-439 1273,-439"/>
<text text-anchor="middle" x="1316" y="-446" font-family="Helvetica,sans-Serif" font-size="10.00">Ioss::SideBlock</text>
</a>
</g>
</g>
<!-- Node2 -->
<g id="node2" class="node">
<title>Node2</title>
<g id="a_node2"><a xlink:href="classIoss_1_1EntityBlock.html" target="_top" xlink:title="Base class for all &#39;block&#39;&#45;type grouping entities, which means all members of the block are similar o...">
<polygon fill="white" stroke="black" points="1076,-437 1076,-456 1168,-456 1168,-437 1076,-437"/>
<text text-anchor="middle" x="1122" y="-444" font-family="Helvetica,sans-Serif" font-size="10.00">Ioss::EntityBlock</text>
</a>
</g>
</g>
<!-- Node2&#45;&gt;Node1 -->
<g id="edge1" class="edge">
<title>Node2&#45;&gt;Node1</title>
<path fill="none" stroke="midnightblue" d="M1178.11,-446.12C1200.7,-446.07 1227.11,-446.13 1251,-446.5 1258,-446.61 1265.43,-446.79 1272.66,-446.99"/>
<polygon fill="midnightblue" stroke="midnightblue" points="1178.01,-442.62 1168.02,-446.16 1178.03,-449.62 1178.01,-442.62"/>
</g>
<!-- Node2&#45;&gt;Node1 -->
<g id="edge24" class="edge">
<title>Node2&#45;&gt;Node1</title>
<path fill="none" stroke="#9a32cd" stroke-dasharray="5,2" d="M1178.37,-447.08C1208.48,-447.39 1245.14,-447.77 1272.9,-448.06"/>
<polygon fill="#9a32cd" stroke="#9a32cd" points="1178.05,-443.57 1168.02,-446.97 1177.98,-450.57 1178.05,-443.57"/>
<text text-anchor="middle" x="1220.5" y="-450.5" font-family="Helvetica,sans-Serif" font-size="10.00"> parentBlock_</text>
</g>
<!-- Node3 -->
<g id="node3" class="node">
<title>Node3</title>
<g id="a_node3"><a xlink:href="classIoss_1_1GroupingEntity.html" target="_top" xlink:title="Base class for all &#39;grouping&#39; entities. The following derived classes are typical:">
<polygon fill="white" stroke="black" points="876,-314 876,-333 982,-333 982,-314 876,-314"/>
<text text-anchor="middle" x="929" y="-321" font-family="Helvetica,sans-Serif" font-size="10.00">Ioss::GroupingEntity</text>
</a>
</g>
</g>
<!-- Node3&#45;&gt;Node2 -->
<g id="edge2" class="edge">
<title>Node3&#45;&gt;Node2</title>
<path fill="none" stroke="midnightblue" d="M950.79,-339.51C977.87,-360.02 1027.09,-396.06 1072,-422.5 1080.82,-427.69 1090.91,-432.77 1099.64,-436.92"/>
<polygon fill="midnightblue" stroke="midnightblue" points="952.56,-336.46 942.49,-333.19 948.32,-342.03 952.56,-336.46"/>
</g>
<!-- Node18 -->
<g id="node18" class="node">
<title>Node18</title>
<g id="a_node18"><a xlink:href="classIoss_1_1Region.html" target="_top" xlink:title="A grouping entity that contains other grouping entities.">
<polygon fill="white" stroke="black" points="1086,-314 1086,-333 1158,-333 1158,-314 1086,-314"/>
<text text-anchor="middle" x="1122" y="-321" font-family="Helvetica,sans-Serif" font-size="10.00">Ioss::Region</text>
</a>
</g>
</g>
<!-- Node3&#45;&gt;Node18 -->
<g id="edge19" class="edge">
<title>Node3&#45;&gt;Node18</title>
<path fill="none" stroke="midnightblue" d="M992.47,-323.5C1023.43,-323.5 1059.68,-323.5 1085.77,-323.5"/>
<polygon fill="midnightblue" stroke="midnightblue" points="992.19,-320 982.19,-323.5 992.19,-327 992.19,-320"/>
</g>
<!-- Node19 -->
<g id="node19" class="node">
<title>Node19</title>
<g id="a_node19"><a xlink:href="classIoss_1_1SideSet.html" target="_top" xlink:title="A collection of element sides.">
<polygon fill="white" stroke="black" points="1084,-352 1084,-371 1160,-371 1160,-352 1084,-352"/>
<text text-anchor="middle" x="1122" y="-359" font-family="Helvetica,sans-Serif" font-size="10.00">Ioss::SideSet</text>
</a>
</g>
</g>
<!-- Node3&#45;&gt;Node19 -->
<g id="edge22" class="edge">
<title>Node3&#45;&gt;Node19</title>
<path fill="none" stroke="midnightblue" d="M988.08,-335.05C1019.26,-341.26 1056.76,-348.72 1083.97,-354.13"/>
<polygon fill="midnightblue" stroke="midnightblue" points="988.69,-331.61 978.2,-333.09 987.32,-338.47 988.69,-331.61"/>
</g>
<!-- Node4 -->
<g id="node4" class="node">
<title>Node4</title>
<g id="a_node4"><a xlink:href="classIoss_1_1PropertyManager.html" target="_top" xlink:title="A collection of Ioss::Property objects.">
<polygon fill="white" stroke="black" points="648.5,-250 648.5,-269 764.5,-269 764.5,-250 648.5,-250"/>
<text text-anchor="middle" x="706.5" y="-257" font-family="Helvetica,sans-Serif" font-size="10.00">Ioss::PropertyManager</text>
</a>
</g>
</g>
<!-- Node4&#45;&gt;Node3 -->
<g id="edge3" class="edge">
<title>Node4&#45;&gt;Node3</title>
<path fill="none" stroke="#9a32cd" stroke-dasharray="5,2" d="M750.26,-271.91C792.62,-284.21 856.59,-302.77 895.12,-313.96"/>
<polygon fill="#9a32cd" stroke="#9a32cd" points="751.09,-268.51 740.51,-269.08 749.14,-275.23 751.09,-268.51"/>
<text text-anchor="middle" x="830" y="-304.5" font-family="Helvetica,sans-Serif" font-size="10.00"> properties</text>
</g>
<!-- Node6 -->
<g id="node6" class="node">
<title>Node6</title>
<g id="a_node6"><a xlink:href="classIoss_1_1DatabaseIO.html" target="_top" xlink:title="An input or output Database.">
<polygon fill="white" stroke="black" points="1269,-252 1269,-271 1363,-271 1363,-252 1269,-252"/>
<text text-anchor="middle" x="1316" y="-259" font-family="Helvetica,sans-Serif" font-size="10.00">Ioss::DatabaseIO</text>
</a>
</g>
</g>
<!-- Node4&#45;&gt;Node6 -->
<g id="edge6" class="edge">
<title>Node4&#45;&gt;Node6</title>
<path fill="none" stroke="#9a32cd" stroke-dasharray="5,2" d="M757.37,-247.77C842.66,-229.36 1021.88,-197.91 1172,-219.5 1214.64,-225.63 1262.31,-241.55 1290.42,-251.94"/>
<polygon fill="#9a32cd" stroke="#9a32cd" points="756.46,-244.38 747.44,-249.94 757.96,-251.22 756.46,-244.38"/>
<text text-anchor="middle" x="1029.5" y="-217.5" font-family="Helvetica,sans-Serif" font-size="10.00"> properties</text>
</g>
<!-- Node5 -->
<g id="node5" class="node">
<title>Node5</title>
<g id="a_node5"><a xlink:href="classIoss_1_1FieldManager.html" target="_top" xlink:title="A collection of Ioss::Field objects.">
<polygon fill="white" stroke="black" points="656.5,-314 656.5,-333 756.5,-333 756.5,-314 656.5,-314"/>
<text text-anchor="middle" x="706.5" y="-321" font-family="Helvetica,sans-Serif" font-size="10.00">Ioss::FieldManager</text>
</a>
</g>
</g>
<!-- Node5&#45;&gt;Node3 -->
<g id="edge4" class="edge">
<title>Node5&#45;&gt;Node3</title>
<path fill="none" stroke="#9a32cd" stroke-dasharray="5,2" d="M766.97,-323.5C800.96,-323.5 843.18,-323.5 875.87,-323.5"/>
<polygon fill="#9a32cd" stroke="#9a32cd" points="766.71,-320 756.71,-323.5 766.71,-327 766.71,-320"/>
<text text-anchor="middle" x="830" y="-326.5" font-family="Helvetica,sans-Serif" font-size="10.00"> fields</text>
</g>
<!-- Node6&#45;&gt;Node3 -->
<g id="edge5" class="edge">
<title>Node6&#45;&gt;Node3</title>
<path fill="none" stroke="#9a32cd" stroke-dasharray="5,2" d="M1258.55,-267.68C1209.18,-273.39 1135.63,-282.61 1072,-293.5 1037.73,-299.37 999.14,-307.63 970.85,-313.99"/>
<polygon fill="#9a32cd" stroke="#9a32cd" points="1259.17,-271.13 1268.71,-266.52 1258.37,-264.18 1259.17,-271.13"/>
<text text-anchor="middle" x="1122" y="-296.5" font-family="Helvetica,sans-Serif" font-size="10.00"> database_</text>
</g>
<!-- Node7 -->
<g id="node7" class="node">
<title>Node7</title>
<g id="a_node7"><a xlink:href="classIoss_1_1ElementTopology.html" target="_top" xlink:title="Represents an element topology.">
<polygon fill="white" stroke="black" points="871,-437 871,-456 987,-456 987,-437 871,-437"/>
<text text-anchor="middle" x="929" y="-444" font-family="Helvetica,sans-Serif" font-size="10.00">Ioss::ElementTopology</text>
</a>
</g>
</g>
<!-- Node7&#45;&gt;Node1 -->
<g id="edge23" class="edge">
<title>Node7&#45;&gt;Node1</title>
<path fill="none" stroke="#9a32cd" stroke-dasharray="5,2" d="M982.17,-457.89C989.8,-459.28 997.58,-460.54 1005,-461.5 1113.43,-475.51 1142.54,-476.31 1251,-462.5 1259.35,-461.44 1268.22,-459.82 1276.61,-458.05"/>
<polygon fill="#9a32cd" stroke="#9a32cd" points="982.75,-454.44 972.27,-456.01 981.44,-461.32 982.75,-454.44"/>
<text text-anchor="middle" x="1122" y="-474.5" font-family="Helvetica,sans-Serif" font-size="10.00"> parentTopology_</text>
</g>
<!-- Node7&#45;&gt;Node2 -->
<g id="edge20" class="edge">
<title>Node7&#45;&gt;Node2</title>
<path fill="none" stroke="#9a32cd" stroke-dasharray="5,2" d="M997.22,-446.5C1023.23,-446.5 1052.31,-446.5 1075.75,-446.5"/>
<polygon fill="#9a32cd" stroke="#9a32cd" points="997.05,-443 987.05,-446.5 997.05,-450 997.05,-443"/>
<text text-anchor="middle" x="1029.5" y="-449.5" font-family="Helvetica,sans-Serif" font-size="10.00"> topology_</text>
</g>
<!-- Node7&#45;&gt;Node6 -->
<g id="edge7" class="edge">
<title>Node7&#45;&gt;Node6</title>
<path fill="none" stroke="#9a32cd" stroke-dasharray="5,2" d="M980.83,-434.72C1007.82,-428.74 1041.6,-421.66 1072,-416.5 1111.54,-409.79 1218.44,-416.92 1251,-393.5 1293.59,-362.86 1309.08,-296.06 1313.5,-271.13"/>
<polygon fill="#9a32cd" stroke="#9a32cd" points="979.84,-431.36 970.85,-436.96 981.37,-438.19 979.84,-431.36"/>
<text text-anchor="middle" x="1122" y="-419.5" font-family="Helvetica,sans-Serif" font-size="10.00"> commonSideTopology</text>
</g>
<!-- Node8 -->
<g id="node8" class="node">
<title>Node8</title>
<g id="a_node8"><a xlink:href="classIoss_1_1Map.html" target="_top" xlink:title=" ">
<polygon fill="white" stroke="black" points="1092,-132 1092,-151 1152,-151 1152,-132 1092,-132"/>
<text text-anchor="middle" x="1122" y="-139" font-family="Helvetica,sans-Serif" font-size="10.00">Ioss::Map</text>
</a>
</g>
</g>
<!-- Node8&#45;&gt;Node6 -->
<g id="edge8" class="edge">
<title>Node8&#45;&gt;Node6</title>
<path fill="none" stroke="#9a32cd" stroke-dasharray="5,2" d="M1162.07,-131.96C1188.97,-127.63 1224.51,-126.53 1251,-142.5 1291.98,-167.21 1308.29,-228.1 1313.22,-251.82"/>
<polygon fill="#9a32cd" stroke="#9a32cd" points="1161.43,-128.52 1152.22,-133.75 1162.68,-135.41 1161.43,-128.52"/>
<text text-anchor="middle" x="1220.5" y="-178.5" font-family="Helvetica,sans-Serif" font-size="10.00"> edgeMap</text>
<text text-anchor="middle" x="1220.5" y="-167.5" font-family="Helvetica,sans-Serif" font-size="10.00">elemMap</text>
<text text-anchor="middle" x="1220.5" y="-156.5" font-family="Helvetica,sans-Serif" font-size="10.00">faceMap</text>
<text text-anchor="middle" x="1220.5" y="-145.5" font-family="Helvetica,sans-Serif" font-size="10.00">nodeMap</text>
</g>
<!-- Node9 -->
<g id="node9" class="node">
<title>Node9</title>
<g id="a_node9"><a xlink:href="classtsl_1_1bhopscotch__map.html" target="_top" xlink:title=" ">
<polygon fill="white" stroke="black" points="875.5,-126.5 875.5,-156.5 982.5,-156.5 982.5,-126.5 875.5,-126.5"/>
<text text-anchor="start" x="883.5" y="-144.5" font-family="Helvetica,sans-Serif" font-size="10.00">tsl::bhopscotch_map</text>
<text text-anchor="middle" x="929" y="-133.5" font-family="Helvetica,sans-Serif" font-size="10.00">&lt; int64_t, int64_t &gt;</text>
</a>
</g>
</g>
<!-- Node9&#45;&gt;Node8 -->
<g id="edge9" class="edge">
<title>Node9&#45;&gt;Node8</title>
<path fill="none" stroke="#9a32cd" stroke-dasharray="5,2" d="M992.84,-141.5C1026.22,-141.5 1065.65,-141.5 1091.88,-141.5"/>
<polygon fill="#9a32cd" stroke="#9a32cd" points="992.7,-138 982.7,-141.5 992.7,-145 992.7,-138"/>
<text text-anchor="middle" x="1029.5" y="-144.5" font-family="Helvetica,sans-Serif" font-size="10.00"> m_reverse</text>
</g>
<!-- Node10 -->
<g id="node10" class="node">
<title>Node10</title>
<g id="a_node10"><a xlink:href="classtsl_1_1detail__hopscotch__hash_1_1hopscotch__hash.html" target="_top" xlink:title=" ">
<polygon fill="white" stroke="black" points="624,-77 624,-206 789,-206 789,-77 624,-77"/>
<text text-anchor="start" x="632" y="-194" font-family="Helvetica,sans-Serif" font-size="10.00">tsl::detail_hopscotch</text>
<text text-anchor="start" x="632" y="-183" font-family="Helvetica,sans-Serif" font-size="10.00">_hash::hopscotch_hash</text>
<text text-anchor="start" x="632" y="-172" font-family="Helvetica,sans-Serif" font-size="10.00">&lt; std::pair&lt; const int64</text>
<text text-anchor="start" x="632" y="-161" font-family="Helvetica,sans-Serif" font-size="10.00">_t, int64_t &gt;, KeySelect,</text>
<text text-anchor="start" x="632" y="-150" font-family="Helvetica,sans-Serif" font-size="10.00"> ValueSelect, std::hash&lt;</text>
<text text-anchor="start" x="632" y="-139" font-family="Helvetica,sans-Serif" font-size="10.00"> int64_t &gt;, std::equal_to</text>
<text text-anchor="start" x="632" y="-128" font-family="Helvetica,sans-Serif" font-size="10.00">&lt; int64_t &gt;, std::allocator</text>
<text text-anchor="start" x="632" y="-117" font-family="Helvetica,sans-Serif" font-size="10.00">&lt; std::pair&lt; const int64_t,</text>
<text text-anchor="start" x="632" y="-106" font-family="Helvetica,sans-Serif" font-size="10.00"> int64_t &gt; &gt;, 62, false, tsl</text>
<text text-anchor="start" x="632" y="-95" font-family="Helvetica,sans-Serif" font-size="10.00">::hh::power_of_two_growth_policy</text>
<text text-anchor="middle" x="706.5" y="-84" font-family="Helvetica,sans-Serif" font-size="10.00">&lt; 2 &gt;, overflow_container_type &gt;</text>
</a>
</g>
</g>
<!-- Node10&#45;&gt;Node9 -->
<g id="edge10" class="edge">
<title>Node10&#45;&gt;Node9</title>
<path fill="none" stroke="#9a32cd" stroke-dasharray="5,2" d="M799.52,-141.5C825.42,-141.5 852.7,-141.5 875.42,-141.5"/>
<polygon fill="#9a32cd" stroke="#9a32cd" points="799.29,-138 789.29,-141.5 799.29,-145 799.29,-138"/>
<text text-anchor="middle" x="830" y="-144.5" font-family="Helvetica,sans-Serif" font-size="10.00"> m_ht</text>
</g>
<!-- Node11 -->
<g id="node11" class="node">
<title>Node11</title>
<g id="a_node11"><a xlink:title=" ">
<polygon fill="white" stroke="black" points="404.5,-192 404.5,-211 508.5,-211 508.5,-192 404.5,-192"/>
<text text-anchor="middle" x="456.5" y="-199" font-family="Helvetica,sans-Serif" font-size="10.00">std::hash&lt; int64_t &gt;</text>
</a>
</g>
</g>
<!-- Node11&#45;&gt;Node10 -->
<g id="edge11" class="edge">
<title>Node11&#45;&gt;Node10</title>
<path fill="none" stroke="#8b1a1a" d="M508.62,-189.65C537.28,-182.95 573.65,-174.37 606,-166.5 611.8,-165.09 617.78,-163.62 623.8,-162.13"/>
<polygon fill="#8b1a1a" stroke="#8b1a1a" points="507.77,-186.25 498.83,-191.93 509.36,-193.07 507.77,-186.25"/>
</g>
<!-- Node12 -->
<g id="node12" class="node">
<title>Node12</title>
<g id="a_node12"><a xlink:title=" ">
<polygon fill="white" stroke="black" points="396.5,-154 396.5,-173 516.5,-173 516.5,-154 396.5,-154"/>
<text text-anchor="middle" x="456.5" y="-161" font-family="Helvetica,sans-Serif" font-size="10.00">std::equal_to&lt; int64_t &gt;</text>
</a>
</g>
</g>
<!-- Node12&#45;&gt;Node10 -->
<g id="edge12" class="edge">
<title>Node12&#45;&gt;Node10</title>
<path fill="none" stroke="#8b1a1a" d="M526.6,-157.37C556.79,-154.69 592.41,-151.53 623.89,-148.74"/>
<polygon fill="#8b1a1a" stroke="#8b1a1a" points="526.24,-153.89 516.59,-158.26 526.86,-160.86 526.24,-153.89"/>
</g>
<!-- Node13 -->
<g id="node13" class="node">
<title>Node13</title>
<g id="a_node13"><a xlink:href="classtsl_1_1hh_1_1power__of__two__growth__policy.html" target="_top" xlink:title=" ">
<polygon fill="white" stroke="black" points="401.5,-104.5 401.5,-134.5 511.5,-134.5 511.5,-104.5 401.5,-104.5"/>
<text text-anchor="start" x="409.5" y="-122.5" font-family="Helvetica,sans-Serif" font-size="10.00">tsl::hh::power_of_two</text>
<text text-anchor="middle" x="456.5" y="-111.5" font-family="Helvetica,sans-Serif" font-size="10.00">_growth_policy&lt; 2 &gt;</text>
</a>
</g>
</g>
<!-- Node13&#45;&gt;Node10 -->
<g id="edge13" class="edge">
<title>Node13&#45;&gt;Node10</title>
<path fill="none" stroke="#8b1a1a" d="M521.89,-125.21C552.96,-127.97 590.59,-131.31 623.67,-134.24"/>
<polygon fill="#8b1a1a" stroke="#8b1a1a" points="521.89,-121.7 511.62,-124.3 521.27,-128.67 521.89,-121.7"/>
</g>
<!-- Node14 -->
<g id="node14" class="node">
<title>Node14</title>
<g id="a_node14"><a xlink:href="classtsl_1_1detail__hopscotch__hash_1_1hopscotch__bucket.html" target="_top" xlink:title=" ">
<polygon fill="white" stroke="black" points="377,-33.5 377,-85.5 536,-85.5 536,-33.5 377,-33.5"/>
<text text-anchor="start" x="385" y="-73.5" font-family="Helvetica,sans-Serif" font-size="10.00">tsl::detail_hopscotch</text>
<text text-anchor="start" x="385" y="-62.5" font-family="Helvetica,sans-Serif" font-size="10.00">_hash::hopscotch_bucket</text>
<text text-anchor="start" x="385" y="-51.5" font-family="Helvetica,sans-Serif" font-size="10.00">&lt; ValueType, NeighborhoodSize,</text>
<text text-anchor="middle" x="456.5" y="-40.5" font-family="Helvetica,sans-Serif" font-size="10.00"> StoreHash &gt;</text>
</a>
</g>
</g>
<!-- Node14&#45;&gt;Node10 -->
<g id="edge14" class="edge">
<title>Node14&#45;&gt;Node10</title>
<path fill="none" stroke="#9a32cd" stroke-dasharray="5,2" d="M545.93,-88.74C571.34,-97.14 598.93,-106.26 623.91,-114.52"/>
<polygon fill="#9a32cd" stroke="#9a32cd" points="546.9,-85.37 536.31,-85.56 544.71,-92.02 546.9,-85.37"/>
<text text-anchor="middle" x="580" y="-111.5" font-family="Helvetica,sans-Serif" font-size="10.00"> m_buckets</text>
</g>
<!-- Node15 -->
<g id="node15" class="node">
<title>Node15</title>
<g id="a_node15"><a xlink:href="classtsl_1_1detail__hopscotch__hash_1_1hopscotch__bucket__hash.html" target="_top" xlink:title=" ">
<polygon fill="white" stroke="black" points="56,-72 56,-113 184,-113 184,-72 56,-72"/>
<text text-anchor="start" x="64" y="-101" font-family="Helvetica,sans-Serif" font-size="10.00">tsl::detail_hopscotch</text>
<text text-anchor="start" x="64" y="-90" font-family="Helvetica,sans-Serif" font-size="10.00">_hash::hopscotch_bucket</text>
<text text-anchor="middle" x="120" y="-79" font-family="Helvetica,sans-Serif" font-size="10.00">_hash&lt; StoreHash &gt;</text>
</a>
</g>
</g>
<!-- Node15&#45;&gt;Node14 -->
<g id="edge15" class="edge">
<title>Node15&#45;&gt;Node14</title>
<path fill="none" stroke="midnightblue" d="M194.5,-85.25C248.46,-79.92 321.67,-72.7 376.82,-67.26"/>
<polygon fill="midnightblue" stroke="midnightblue" points="193.92,-81.79 184.31,-86.25 194.61,-88.76 193.92,-81.79"/>
</g>
<!-- Node16 -->
<g id="node16" class="node">
<title>Node16</title>
<g id="a_node16"><a xlink:href="classtsl_1_1detail__hopscotch__hash_1_1smallest__type__for__min__bits.html" target="_top" xlink:title=" ">
<polygon fill="white" stroke="black" points="0,-0.5 0,-52.5 240,-52.5 240,-0.5 0,-0.5"/>
<text text-anchor="start" x="8" y="-40.5" font-family="Helvetica,sans-Serif" font-size="10.00">tsl::detail_hopscotch</text>
<text text-anchor="start" x="8" y="-29.5" font-family="Helvetica,sans-Serif" font-size="10.00">_hash::smallest_type</text>
<text text-anchor="start" x="8" y="-18.5" font-family="Helvetica,sans-Serif" font-size="10.00">_for_min_bits&lt; NeighborhoodSize</text>
<text text-anchor="middle" x="120" y="-7.5" font-family="Helvetica,sans-Serif" font-size="10.00">+NB_RESERVED_BITS_IN_NEIGHBORHOOD &gt;</text>
</a>
</g>
</g>
<!-- Node16&#45;&gt;Node14 -->
<g id="edge16" class="edge">
<title>Node16&#45;&gt;Node14</title>
<path fill="none" stroke="#9a32cd" stroke-dasharray="5,2" d="M250.53,-39.28C293.2,-43.49 339.32,-48.04 376.99,-51.75"/>
<polygon fill="#9a32cd" stroke="#9a32cd" points="250.64,-35.77 240.35,-38.27 249.95,-42.74 250.64,-35.77"/>
<text text-anchor="middle" x="308.5" y="-53.5" font-family="Helvetica,sans-Serif" font-size="10.00"> m_neighborhood_infos</text>
</g>
<!-- Node17 -->
<g id="node17" class="node">
<title>Node17</title>
<g id="a_node17"><a xlink:href="classIoss_1_1ParallelUtils.html" target="_top" xlink:title=" ">
<polygon fill="white" stroke="black" points="1075,-229 1075,-248 1169,-248 1169,-229 1075,-229"/>
<text text-anchor="middle" x="1122" y="-236" font-family="Helvetica,sans-Serif" font-size="10.00">Ioss::ParallelUtils</text>
</a>
</g>
</g>
<!-- Node17&#45;&gt;Node6 -->
<g id="edge17" class="edge">
<title>Node17&#45;&gt;Node6</title>
<path fill="none" stroke="#9a32cd" stroke-dasharray="5,2" d="M1179.68,-245.29C1208.13,-248.7 1242.14,-252.77 1268.95,-255.98"/>
<polygon fill="#9a32cd" stroke="#9a32cd" points="1179.82,-241.78 1169.48,-244.07 1178.99,-248.73 1179.82,-241.78"/>
<text text-anchor="middle" x="1220.5" y="-256.5" font-family="Helvetica,sans-Serif" font-size="10.00"> util_</text>
</g>
<!-- Node18&#45;&gt;Node6 -->
<g id="edge18" class="edge">
<title>Node18&#45;&gt;Node6</title>
<path fill="none" stroke="#9a32cd" stroke-dasharray="5,2" d="M1168.02,-318.42C1193.02,-314.69 1224.35,-308.49 1251,-298.5 1269.51,-291.56 1288.91,-279.58 1301.43,-271.14"/>
<polygon fill="#9a32cd" stroke="#9a32cd" points="1167.49,-314.96 1158.08,-319.83 1168.47,-321.89 1167.49,-314.96"/>
<text text-anchor="middle" x="1220.5" y="-316.5" font-family="Helvetica,sans-Serif" font-size="10.00"> region_</text>
</g>
<!-- Node19&#45;&gt;Node1 -->
<g id="edge21" class="edge">
<title>Node19&#45;&gt;Node1</title>
<path fill="none" stroke="#9a32cd" stroke-dasharray="5,2" d="M1153.63,-375.38C1192.89,-393.17 1259.93,-423.55 1293.92,-438.95"/>
<polygon fill="#9a32cd" stroke="#9a32cd" points="1154.83,-372.08 1144.28,-371.14 1151.94,-378.46 1154.83,-372.08"/>
<text text-anchor="middle" x="1220.5" y="-420.5" font-family="Helvetica,sans-Serif" font-size="10.00"> owner_</text>
</g>
</g>
</svg>
