<?xml version="1.0" encoding="UTF-8" standalone="no"?>
<!DOCTYPE svg PUBLIC "-//W3C//DTD SVG 1.1//EN"
 "http://www.w3.org/Graphics/SVG/1.1/DTD/svg11.dtd">
<!-- Generated by graphviz version 8.0.5 (20230430.1635)
 -->
<!-- Title: Ionull::DatabaseIO Pages: 1 -->
<svg width="1641pt" height="352pt"
 viewBox="0.00 0.00 1640.50 351.88" xmlns="http://www.w3.org/2000/svg" xmlns:xlink="http://www.w3.org/1999/xlink">
<g id="graph0" class="graph" transform="scale(1 1) rotate(0) translate(4 347.88)">
<title>Ionull::DatabaseIO</title>
<!-- Node1 -->
<g id="Node000001" class="node">
<title>Node1</title>
<g id="a_Node000001"><a xlink:title=" ">
<polygon fill="#999999" stroke="#666666" points="1520.25,-133.88 1422.5,-133.88 1422.5,-114.62 1520.25,-114.62 1520.25,-133.88"/>
<text text-anchor="middle" x="1471.38" y="-120.38" font-family="Helvetica,sans-Serif" font-size="10.00">Ionull::DatabaseIO</text>
</a>
</g>
</g>
<!-- Node2 -->
<g id="Node000002" class="node">
<title>Node2</title>
<g id="a_Node000002"><a xlink:href="classIoss_1_1DatabaseIO.html" target="_top" xlink:title="An input or output Database.">
<polygon fill="white" stroke="#666666" points="1334.75,-96.88 1241.5,-96.88 1241.5,-77.62 1334.75,-77.62 1334.75,-96.88"/>
<text text-anchor="middle" x="1288.12" y="-83.38" font-family="Helvetica,sans-Serif" font-size="10.00">Ioss::DatabaseIO</text>
</a>
</g>
</g>
<!-- Node2&#45;&gt;Node1 -->
<g id="edge1_Node000001_Node000002" class="edge">
<title>Node2&#45;&gt;Node1</title>
<g id="a_edge1_Node000001_Node000002"><a xlink:title=" ">
<path fill="none" stroke="#63b8ff" d="M1345.48,-98.75C1370.04,-103.77 1398.55,-109.59 1422.12,-114.4"/>
<polygon fill="#63b8ff" stroke="#63b8ff" points="1346.36,-95.16 1335.86,-96.59 1344.96,-102.02 1346.36,-95.16"/>
</a>
</g>
</g>
<!-- Node17 -->
<g id="Node000017" class="node">
<title>Node17</title>
<g id="a_Node000017"><a xlink:href="classIoss_1_1GroupingEntity.html" target="_top" xlink:title="Base class for all &#39;grouping&#39; entities. The following derived classes are typical:">
<polygon fill="white" stroke="#666666" points="1524,-180.88 1418.75,-180.88 1418.75,-161.62 1524,-161.62 1524,-180.88"/>
<text text-anchor="middle" x="1471.38" y="-167.38" font-family="Helvetica,sans-Serif" font-size="10.00">Ioss::GroupingEntity</text>
</a>
</g>
</g>
<!-- Node2&#45;&gt;Node17 -->
<g id="edge26_Node000017_Node000002" class="edge">
<title>Node2&#45;&gt;Node17</title>
<g id="a_edge26_Node000017_Node000002"><a xlink:title=" ">
<path fill="none" stroke="#9a32cd" stroke-dasharray="5,2" d="M1318.26,-102.29C1329.04,-107.75 1341.4,-113.89 1352.75,-119.25 1385.05,-134.5 1422.93,-151 1446.79,-161.23"/>
<polygon fill="#9a32cd" stroke="#9a32cd" points="1319.99,-98.73 1309.49,-97.31 1316.81,-104.97 1319.99,-98.73"/>
</a>
</g>
<text text-anchor="middle" x="1376.75" y="-142" font-family="Helvetica,sans-Serif" font-size="10.00" fill="grey"> database_</text>
</g>
<!-- Node3 -->
<g id="Node000003" class="node">
<title>Node3</title>
<g id="a_Node000003"><a xlink:href="classIoss_1_1PropertyManager.html" target="_top" xlink:title="A collection of Ioss::Property objects.">
<polygon fill="white" stroke="#666666" points="1105.88,-164.88 990.88,-164.88 990.88,-145.62 1105.88,-145.62 1105.88,-164.88"/>
<text text-anchor="middle" x="1048.38" y="-151.38" font-family="Helvetica,sans-Serif" font-size="10.00">Ioss::PropertyManager</text>
</a>
</g>
</g>
<!-- Node3&#45;&gt;Node2 -->
<g id="edge2_Node000002_Node000003" class="edge">
<title>Node3&#45;&gt;Node2</title>
<g id="a_edge2_Node000002_Node000003"><a xlink:title=" ">
<path fill="none" stroke="#9a32cd" stroke-dasharray="5,2" d="M1116.97,-154.5C1150.05,-152.21 1189.89,-146.51 1223.5,-133.25 1244.55,-124.94 1265.05,-108.07 1276.87,-97.23"/>
<polygon fill="#9a32cd" stroke="#9a32cd" points="1116.8,-151.07 1107.02,-155.16 1117.21,-158.05 1116.8,-151.07"/>
</a>
</g>
<text text-anchor="middle" x="1173.88" y="-156" font-family="Helvetica,sans-Serif" font-size="10.00" fill="grey"> properties</text>
</g>
<!-- Node3&#45;&gt;Node17 -->
<g id="edge17_Node000017_Node000003" class="edge">
<title>Node3&#45;&gt;Node17</title>
<g id="a_edge17_Node000017_Node000003"><a xlink:title=" ">
<path fill="none" stroke="#9a32cd" stroke-dasharray="5,2" d="M1116.96,-166.55C1119.41,-166.81 1121.85,-167.05 1124.25,-167.25 1228.29,-176.14 1350.54,-174.8 1418.36,-173.03"/>
<polygon fill="#9a32cd" stroke="#9a32cd" points="1117.44,-162.96 1107.09,-165.24 1116.6,-169.91 1117.44,-162.96"/>
</a>
</g>
<text text-anchor="middle" x="1288.12" y="-177" font-family="Helvetica,sans-Serif" font-size="10.00" fill="grey"> properties</text>
</g>
<!-- Node4 -->
<g id="Node000004" class="node">
<title>Node4</title>
<g id="a_Node000004"><a xlink:href="classtsl_1_1robin__map.html" target="_top" xlink:title=" ">
<polygon fill="white" stroke="#666666" points="849.88,-155.5 749.88,-155.5 749.88,-125 849.88,-125 849.88,-155.5"/>
<text text-anchor="start" x="757.88" y="-142" font-family="Helvetica,sans-Serif" font-size="10.00">tsl::robin_map&lt; std</text>
<text text-anchor="middle" x="799.88" y="-130.75" font-family="Helvetica,sans-Serif" font-size="10.00">::string, Property &gt;</text>
</a>
</g>
</g>
<!-- Node4&#45;&gt;Node3 -->
<g id="edge3_Node000003_Node000004" class="edge">
<title>Node4&#45;&gt;Node3</title>
<g id="a_edge3_Node000003_Node000004"><a xlink:title=" ">
<path fill="none" stroke="#9a32cd" stroke-dasharray="5,2" d="M860.95,-143.91C900.37,-146.3 951.62,-149.42 990.4,-151.78"/>
<polygon fill="#9a32cd" stroke="#9a32cd" points="861.36,-140.36 851.17,-143.25 860.93,-147.35 861.36,-140.36"/>
</a>
</g>
<text text-anchor="middle" x="922.25" y="-153" font-family="Helvetica,sans-Serif" font-size="10.00" fill="grey"> m_properties</text>
</g>
<!-- Node5 -->
<g id="Node000005" class="node">
<title>Node5</title>
<g id="a_Node000005"><a xlink:href="classtsl_1_1detail__robin__hash_1_1robin__hash.html" target="_top" xlink:title=" ">
<polygon fill="white" stroke="#666666" points="685,-192.88 477,-192.88 477,-83.62 685,-83.62 685,-192.88"/>
<text text-anchor="start" x="485" y="-179.38" font-family="Helvetica,sans-Serif" font-size="10.00">tsl::detail_robin_hash</text>
<text text-anchor="start" x="485" y="-168.12" font-family="Helvetica,sans-Serif" font-size="10.00">::robin_hash&lt; std::pair</text>
<text text-anchor="start" x="485" y="-156.88" font-family="Helvetica,sans-Serif" font-size="10.00">&lt; std::string, Property</text>
<text text-anchor="start" x="485" y="-145.62" font-family="Helvetica,sans-Serif" font-size="10.00"> &gt;, KeySelect, ValueSelect,</text>
<text text-anchor="start" x="485" y="-134.38" font-family="Helvetica,sans-Serif" font-size="10.00"> std::hash&lt; std::string &gt;,</text>
<text text-anchor="start" x="485" y="-123.12" font-family="Helvetica,sans-Serif" font-size="10.00"> std::equal_to&lt; std::string</text>
<text text-anchor="start" x="485" y="-111.88" font-family="Helvetica,sans-Serif" font-size="10.00"> &gt;, std::allocator&lt; std::pair</text>
<text text-anchor="start" x="485" y="-100.62" font-family="Helvetica,sans-Serif" font-size="10.00">&lt; std::string, Property &gt; &gt;, false,</text>
<text text-anchor="middle" x="581" y="-89.38" font-family="Helvetica,sans-Serif" font-size="10.00"> tsl::rh::power_of_two_growth_policy&lt; 2 &gt; &gt;</text>
</a>
</g>
</g>
<!-- Node5&#45;&gt;Node4 -->
<g id="edge4_Node000004_Node000005" class="edge">
<title>Node5&#45;&gt;Node4</title>
<g id="a_edge4_Node000004_Node000005"><a xlink:title=" ">
<path fill="none" stroke="#9a32cd" stroke-dasharray="5,2" d="M696.11,-139.3C714.89,-139.48 733.44,-139.65 749.5,-139.79"/>
<polygon fill="#9a32cd" stroke="#9a32cd" points="696.39,-135.8 686.36,-139.2 696.32,-142.8 696.39,-135.8"/>
</a>
</g>
<text text-anchor="middle" x="715.38" y="-142" font-family="Helvetica,sans-Serif" font-size="10.00" fill="grey"> m_ht</text>
</g>
<!-- Node6 -->
<g id="Node000006" class="node">
<title>Node6</title>
<g id="a_Node000006"><a xlink:title=" ">
<polygon fill="white" stroke="#666666" points="344.25,-343.88 226.25,-343.88 226.25,-324.62 344.25,-324.62 344.25,-343.88"/>
<text text-anchor="middle" x="285.25" y="-330.38" font-family="Helvetica,sans-Serif" font-size="10.00">std::hash&lt; std::string &gt;</text>
</a>
</g>
</g>
<!-- Node6&#45;&gt;Node5 -->
<g id="edge5_Node000005_Node000006" class="edge">
<title>Node6&#45;&gt;Node5</title>
<g id="a_edge5_Node000005_Node000006"><a xlink:title=" ">
<path fill="none" stroke="#8b1a1a" d="M344.16,-321.26C381.58,-310.1 428.76,-290.4 459,-257.25 475.76,-238.87 461.67,-223.84 477,-204.25 480.01,-200.4 483.31,-196.72 486.83,-193.19"/>
<polygon fill="#8b1a1a" stroke="#8b1a1a" points="343.55,-318.08 334.89,-324.19 345.47,-324.82 343.55,-318.08"/>
</a>
</g>
</g>
<!-- Node20 -->
<g id="Node000020" class="node">
<title>Node20</title>
<g id="a_Node000020"><a xlink:href="classtsl_1_1detail__robin__hash_1_1robin__hash.html" target="_top" xlink:title=" ">
<polygon fill="white" stroke="#666666" points="685,-322.88 477,-322.88 477,-213.62 685,-213.62 685,-322.88"/>
<text text-anchor="start" x="485" y="-309.38" font-family="Helvetica,sans-Serif" font-size="10.00">tsl::detail_robin_hash</text>
<text text-anchor="start" x="485" y="-298.12" font-family="Helvetica,sans-Serif" font-size="10.00">::robin_hash&lt; std::pair</text>
<text text-anchor="start" x="485" y="-286.88" font-family="Helvetica,sans-Serif" font-size="10.00">&lt; std::string, Field &gt;,</text>
<text text-anchor="start" x="485" y="-275.62" font-family="Helvetica,sans-Serif" font-size="10.00"> KeySelect, ValueSelect,</text>
<text text-anchor="start" x="485" y="-264.38" font-family="Helvetica,sans-Serif" font-size="10.00"> std::hash&lt; std::string &gt;,</text>
<text text-anchor="start" x="485" y="-253.12" font-family="Helvetica,sans-Serif" font-size="10.00"> std::equal_to&lt; std::string</text>
<text text-anchor="start" x="485" y="-241.88" font-family="Helvetica,sans-Serif" font-size="10.00"> &gt;, std::allocator&lt; std::pair</text>
<text text-anchor="start" x="485" y="-230.62" font-family="Helvetica,sans-Serif" font-size="10.00">&lt; std::string, Field &gt; &gt;, false,</text>
<text text-anchor="middle" x="581" y="-219.38" font-family="Helvetica,sans-Serif" font-size="10.00"> tsl::rh::power_of_two_growth_policy&lt; 2 &gt; &gt;</text>
</a>
</g>
</g>
<!-- Node6&#45;&gt;Node20 -->
<g id="edge21_Node000020_Node000006" class="edge">
<title>Node6&#45;&gt;Node20</title>
<g id="a_edge21_Node000020_Node000006"><a xlink:title=" ">
<path fill="none" stroke="#8b1a1a" d="M355.32,-341.42C387.32,-342.83 425.58,-341.76 459,-333.25 468.82,-330.75 478.72,-327.29 488.39,-323.25"/>
<polygon fill="#8b1a1a" stroke="#8b1a1a" points="355.9,-337.89 345.72,-340.86 355.52,-344.88 355.9,-337.89"/>
</a>
</g>
</g>
<!-- Node7 -->
<g id="Node000007" class="node">
<title>Node7</title>
<g id="a_Node000007"><a xlink:title=" ">
<polygon fill="white" stroke="#666666" points="332.62,-288.5 237.88,-288.5 237.88,-258 332.62,-258 332.62,-288.5"/>
<text text-anchor="start" x="245.88" y="-275" font-family="Helvetica,sans-Serif" font-size="10.00">std::equal_to&lt; std</text>
<text text-anchor="middle" x="285.25" y="-263.75" font-family="Helvetica,sans-Serif" font-size="10.00">::string &gt;</text>
</a>
</g>
</g>
<!-- Node7&#45;&gt;Node5 -->
<g id="edge6_Node000005_Node000007" class="edge">
<title>Node7&#45;&gt;Node5</title>
<g id="a_edge6_Node000005_Node000007"><a xlink:title=" ">
<path fill="none" stroke="#8b1a1a" d="M321.97,-251.79C336.66,-241.57 352.9,-228.3 364.5,-213.25 377.15,-196.84 366.23,-183.07 382.5,-170.25 397.67,-158.29 436.96,-150.68 476.53,-145.9"/>
<polygon fill="#8b1a1a" stroke="#8b1a1a" points="320.45,-249.27 314.09,-257.74 324.34,-255.08 320.45,-249.27"/>
</a>
</g>
</g>
<!-- Node7&#45;&gt;Node20 -->
<g id="edge22_Node000020_Node000007" class="edge">
<title>Node7&#45;&gt;Node20</title>
<g id="a_edge22_Node000020_Node000007"><a xlink:title=" ">
<path fill="none" stroke="#8b1a1a" d="M343.29,-280.16C356.16,-281.45 369.79,-282.59 382.5,-283.25 416.45,-285.01 425.06,-285.35 459,-283.25 464.81,-282.89 470.77,-282.44 476.78,-281.91"/>
<polygon fill="#8b1a1a" stroke="#8b1a1a" points="343.99,-276.61 333.68,-279.06 343.27,-283.57 343.99,-276.61"/>
</a>
</g>
</g>
<!-- Node8 -->
<g id="Node000008" class="node">
<title>Node8</title>
<g id="a_Node000008"><a xlink:href="classtsl_1_1rh_1_1power__of__two__growth__policy.html" target="_top" xlink:title=" ">
<polygon fill="white" stroke="#666666" points="364.5,-204.5 206,-204.5 206,-174 364.5,-174 364.5,-204.5"/>
<text text-anchor="start" x="214" y="-191" font-family="Helvetica,sans-Serif" font-size="10.00">tsl::rh::power_of_two</text>
<text text-anchor="middle" x="285.25" y="-179.75" font-family="Helvetica,sans-Serif" font-size="10.00">_growth_policy&lt; GrowthFactor &gt;</text>
</a>
</g>
</g>
<!-- Node8&#45;&gt;Node5 -->
<g id="edge7_Node000005_Node000008" class="edge">
<title>Node8&#45;&gt;Node5</title>
<g id="a_edge7_Node000005_Node000008"><a xlink:title=" ">
<path fill="none" stroke="#8b1a1a" d="M322.31,-168.66C339.89,-159.72 361.68,-150.17 382.5,-145.25 412.63,-138.13 446.07,-135.16 476.73,-134.3"/>
<polygon fill="#8b1a1a" stroke="#8b1a1a" points="321.25,-165.8 314.02,-173.54 324.5,-172 321.25,-165.8"/>
</a>
</g>
</g>
<!-- Node8&#45;&gt;Node20 -->
<g id="edge23_Node000020_Node000008" class="edge">
<title>Node8&#45;&gt;Node20</title>
<g id="a_edge23_Node000020_Node000008"><a xlink:title=" ">
<path fill="none" stroke="#8b1a1a" d="M313.46,-211.42C336.37,-229.58 367.7,-253.08 382.5,-258.25 412.07,-268.59 445.66,-272.83 476.64,-274"/>
<polygon fill="#8b1a1a" stroke="#8b1a1a" points="316.14,-208.29 306.15,-204.78 311.77,-213.75 316.14,-208.29"/>
</a>
</g>
</g>
<!-- Node9 -->
<g id="Node000009" class="node">
<title>Node9</title>
<g id="a_Node000009"><a xlink:href="classtsl_1_1detail__robin__hash_1_1bucket__entry.html" target="_top" xlink:title=" ">
<polygon fill="white" stroke="#666666" points="352.88,-141.12 217.62,-141.12 217.62,-99.38 352.88,-99.38 352.88,-141.12"/>
<text text-anchor="start" x="225.62" y="-127.62" font-family="Helvetica,sans-Serif" font-size="10.00">tsl::detail_robin_hash</text>
<text text-anchor="start" x="225.62" y="-116.38" font-family="Helvetica,sans-Serif" font-size="10.00">::bucket_entry&lt; ValueType,</text>
<text text-anchor="middle" x="285.25" y="-105.12" font-family="Helvetica,sans-Serif" font-size="10.00"> StoreHash &gt;</text>
</a>
</g>
</g>
<!-- Node9&#45;&gt;Node5 -->
<g id="edge8_Node000005_Node000009" class="edge">
<title>Node9&#45;&gt;Node5</title>
<g id="a_edge8_Node000005_Node000009"><a xlink:title=" ">
<path fill="none" stroke="#9a32cd" stroke-dasharray="5,2" d="M363.79,-107.77C370.1,-107.06 376.4,-106.45 382.5,-106 416.41,-103.5 425.29,-101.58 459,-106 464.82,-106.76 470.76,-107.72 476.73,-108.83"/>
<polygon fill="#9a32cd" stroke="#9a32cd" points="363.67,-104.38 354.16,-109.05 364.51,-111.33 363.67,-104.38"/>
</a>
</g>
<text text-anchor="middle" x="420.75" y="-108" font-family="Helvetica,sans-Serif" font-size="10.00" fill="grey"> m_buckets</text>
</g>
<!-- Node9&#45;&gt;Node20 -->
<g id="edge24_Node000020_Node000009" class="edge">
<title>Node9&#45;&gt;Node20</title>
<g id="a_edge24_Node000020_Node000009"><a xlink:title=" ">
<path fill="none" stroke="#9a32cd" stroke-dasharray="5,2" d="M344.87,-147.14C352.2,-152.36 359.03,-158.38 364.5,-165.25 381.58,-186.7 362.38,-205.62 382.5,-224.25 386.41,-227.87 430.92,-237.93 476.69,-247.52"/>
<polygon fill="#9a32cd" stroke="#9a32cd" points="347.37,-143.94 337.09,-141.39 343.54,-149.8 347.37,-143.94"/>
</a>
</g>
<text text-anchor="middle" x="420.75" y="-244" font-family="Helvetica,sans-Serif" font-size="10.00" fill="grey"> m_buckets</text>
</g>
<!-- Node10 -->
<g id="Node000010" class="node">
<title>Node10</title>
<g id="a_Node000010"><a xlink:href="classtsl_1_1detail__robin__hash_1_1bucket__entry__hash.html" target="_top" xlink:title=" ">
<polygon fill="white" stroke="#666666" points="169,-135.5 0,-135.5 0,-105 169,-105 169,-135.5"/>
<text text-anchor="start" x="8" y="-122" font-family="Helvetica,sans-Serif" font-size="10.00">tsl::detail_robin_hash</text>
<text text-anchor="middle" x="84.5" y="-110.75" font-family="Helvetica,sans-Serif" font-size="10.00">::bucket_entry_hash&lt; StoreHash &gt;</text>
</a>
</g>
</g>
<!-- Node10&#45;&gt;Node9 -->
<g id="edge9_Node000009_Node000010" class="edge">
<title>Node10&#45;&gt;Node9</title>
<g id="a_edge9_Node000009_Node000010"><a xlink:title=" ">
<path fill="none" stroke="#63b8ff" d="M180.44,-120.25C192.93,-120.25 205.52,-120.25 217.41,-120.25"/>
<polygon fill="#63b8ff" stroke="#63b8ff" points="180.5,-116.75 170.5,-120.25 180.5,-123.75 180.5,-116.75"/>
</a>
</g>
</g>
<!-- Node11 -->
<g id="Node000011" class="node">
<title>Node11</title>
<g id="a_Node000011"><a xlink:title=" ">
<polygon fill="white" stroke="#666666" points="306.38,-76.88 264.12,-76.88 264.12,-57.62 306.38,-57.62 306.38,-76.88"/>
<text text-anchor="middle" x="285.25" y="-63.38" font-family="Helvetica,sans-Serif" font-size="10.00">size_t</text>
</a>
</g>
</g>
<!-- Node11&#45;&gt;Node5 -->
<g id="edge10_Node000005_Node000011" class="edge">
<title>Node11&#45;&gt;Node5</title>
<g id="a_edge10_Node000005_Node000011"><a xlink:title=" ">
<path fill="none" stroke="#9a32cd" stroke-dasharray="5,2" d="M317.18,-62.2C352.26,-57.58 410.85,-53.3 459,-66.5 473.13,-70.37 487.29,-76.37 500.68,-83.29"/>
<polygon fill="#9a32cd" stroke="#9a32cd" points="317.07,-58.82 307.66,-63.68 318.05,-65.75 317.07,-58.82"/>
</a>
</g>
<text text-anchor="middle" x="420.75" y="-91.5" font-family="Helvetica,sans-Serif" font-size="10.00" fill="grey"> m_bucket_count</text>
<text text-anchor="middle" x="420.75" y="-80.25" font-family="Helvetica,sans-Serif" font-size="10.00" fill="grey">m_load_threshold</text>
<text text-anchor="middle" x="420.75" y="-69" font-family="Helvetica,sans-Serif" font-size="10.00" fill="grey">m_nb_elements</text>
</g>
<!-- Node11&#45;&gt;Node20 -->
<g id="edge25_Node000020_Node000011" class="edge">
<title>Node11&#45;&gt;Node20</title>
<g id="a_edge25_Node000020_Node000011"><a xlink:title=" ">
<path fill="none" stroke="#9a32cd" stroke-dasharray="5,2" d="M317.45,-70.89C332.89,-73.99 351.05,-79.7 364.5,-90.25 377.03,-100.08 372.29,-109.02 382.5,-121.25 411.13,-155.56 425.18,-157.29 459,-186.5 467.04,-193.45 468.5,-195.86 477,-202.25 481.84,-205.89 486.88,-209.53 492.01,-213.14"/>
<polygon fill="#9a32cd" stroke="#9a32cd" points="318.24,-67.31 307.79,-69.07 317.06,-74.21 318.24,-67.31"/>
</a>
</g>
<text text-anchor="middle" x="420.75" y="-211.5" font-family="Helvetica,sans-Serif" font-size="10.00" fill="grey"> m_bucket_count</text>
<text text-anchor="middle" x="420.75" y="-200.25" font-family="Helvetica,sans-Serif" font-size="10.00" fill="grey">m_load_threshold</text>
<text text-anchor="middle" x="420.75" y="-189" font-family="Helvetica,sans-Serif" font-size="10.00" fill="grey">m_nb_elements</text>
</g>
<!-- Node12 -->
<g id="Node000012" class="node">
<title>Node12</title>
<g id="a_Node000012"><a xlink:href="classIoss_1_1ElementTopology.html" target="_top" xlink:title="Represents an element topology.">
<polygon fill="white" stroke="#666666" points="1106.25,-24.88 990.5,-24.88 990.5,-5.62 1106.25,-5.62 1106.25,-24.88"/>
<text text-anchor="middle" x="1048.38" y="-11.38" font-family="Helvetica,sans-Serif" font-size="10.00">Ioss::ElementTopology</text>
</a>
</g>
</g>
<!-- Node12&#45;&gt;Node2 -->
<g id="edge11_Node000002_Node000012" class="edge">
<title>Node12&#45;&gt;Node2</title>
<g id="a_edge11_Node000002_Node000012"><a xlink:title=" ">
<path fill="none" stroke="#9a32cd" stroke-dasharray="5,2" d="M1117.55,-20.26C1150.44,-24.33 1189.95,-31.69 1223.5,-45 1243.22,-52.82 1263.14,-67.37 1275.31,-77.18"/>
<polygon fill="#9a32cd" stroke="#9a32cd" points="1118,-16.68 1107.67,-19 1117.2,-23.63 1118,-16.68"/>
</a>
</g>
<text text-anchor="middle" x="1173.88" y="-47" font-family="Helvetica,sans-Serif" font-size="10.00" fill="grey"> commonSideTopology</text>
</g>
<!-- Node13 -->
<g id="Node000013" class="node">
<title>Node13</title>
<g id="a_Node000013"><a xlink:href="classstd_1_1basic__string.html" target="_top" xlink:title=" ">
<polygon fill="white" stroke="#666666" points="854,-30.5 745.75,-30.5 745.75,0 854,0 854,-30.5"/>
<text text-anchor="start" x="753.75" y="-17" font-family="Helvetica,sans-Serif" font-size="10.00">std::basic_string&lt;</text>
<text text-anchor="middle" x="799.88" y="-5.75" font-family="Helvetica,sans-Serif" font-size="10.00"> Elem, Traits, Alloc &gt;</text>
</a>
</g>
</g>
<!-- Node13&#45;&gt;Node12 -->
<g id="edge12_Node000012_Node000013" class="edge">
<title>Node13&#45;&gt;Node12</title>
<g id="a_edge12_Node000012_Node000013"><a xlink:title=" ">
<path fill="none" stroke="#9a32cd" stroke-dasharray="5,2" d="M865,-15.25C903.74,-15.25 952.7,-15.25 990.13,-15.25"/>
<polygon fill="#9a32cd" stroke="#9a32cd" points="865.36,-11.75 855.36,-15.25 865.36,-18.75 865.36,-11.75"/>
</a>
</g>
<text text-anchor="middle" x="922.25" y="-28.25" font-family="Helvetica,sans-Serif" font-size="10.00" fill="grey"> masterElementName_</text>
<text text-anchor="middle" x="922.25" y="-17" font-family="Helvetica,sans-Serif" font-size="10.00" fill="grey">name_</text>
</g>
<!-- Node14 -->
<g id="Node000014" class="node">
<title>Node14</title>
<g id="a_Node000014"><a xlink:href="classIoss_1_1Map.html" target="_top" xlink:title=" ">
<polygon fill="white" stroke="#666666" points="1078.12,-98.88 1018.62,-98.88 1018.62,-79.62 1078.12,-79.62 1078.12,-98.88"/>
<text text-anchor="middle" x="1048.38" y="-85.38" font-family="Helvetica,sans-Serif" font-size="10.00">Ioss::Map</text>
</a>
</g>
</g>
<!-- Node14&#45;&gt;Node2 -->
<g id="edge13_Node000002_Node000014" class="edge">
<title>Node14&#45;&gt;Node2</title>
<g id="a_edge13_Node000002_Node000014"><a xlink:title=" ">
<path fill="none" stroke="#9a32cd" stroke-dasharray="5,2" d="M1089.4,-88.66C1100.67,-88.51 1112.94,-88.36 1124.25,-88.25 1163.7,-87.87 1208.52,-87.6 1241.14,-87.44"/>
<polygon fill="#9a32cd" stroke="#9a32cd" points="1089.48,-85.17 1079.53,-88.81 1089.58,-92.17 1089.48,-85.17"/>
</a>
</g>
<text text-anchor="middle" x="1173.88" y="-123.75" font-family="Helvetica,sans-Serif" font-size="10.00" fill="grey"> edgeMap</text>
<text text-anchor="middle" x="1173.88" y="-112.5" font-family="Helvetica,sans-Serif" font-size="10.00" fill="grey">elemMap</text>
<text text-anchor="middle" x="1173.88" y="-101.25" font-family="Helvetica,sans-Serif" font-size="10.00" fill="grey">faceMap</text>
<text text-anchor="middle" x="1173.88" y="-90" font-family="Helvetica,sans-Serif" font-size="10.00" fill="grey">nodeMap</text>
</g>
<!-- Node15 -->
<g id="Node000015" class="node">
<title>Node15</title>
<g id="a_Node000015"><a xlink:href="classIoss_1_1ParallelUtils.html" target="_top" xlink:title=" ">
<polygon fill="white" stroke="#666666" points="1095,-61.88 1001.75,-61.88 1001.75,-42.62 1095,-42.62 1095,-61.88"/>
<text text-anchor="middle" x="1048.38" y="-48.38" font-family="Helvetica,sans-Serif" font-size="10.00">Ioss::ParallelUtils</text>
</a>
</g>
</g>
<!-- Node15&#45;&gt;Node2 -->
<g id="edge14_Node000002_Node000015" class="edge">
<title>Node15&#45;&gt;Node2</title>
<g id="a_edge14_Node000002_Node000015"><a xlink:title=" ">
<path fill="none" stroke="#9a32cd" stroke-dasharray="5,2" d="M1106.1,-57.54C1140.24,-61.08 1184.51,-66.33 1223.5,-73 1230.42,-74.18 1237.72,-75.63 1244.81,-77.14"/>
<polygon fill="#9a32cd" stroke="#9a32cd" points="1106.69,-53.98 1096.39,-56.44 1105.98,-60.94 1106.69,-53.98"/>
</a>
</g>
<text text-anchor="middle" x="1173.88" y="-75" font-family="Helvetica,sans-Serif" font-size="10.00" fill="grey"> util_</text>
</g>
<!-- Node16 -->
<g id="Node000016" class="node">
<title>Node16</title>
<g id="a_Node000016"><a xlink:href="classIoss_1_1Region.html" target="_top" xlink:title="A grouping entity that contains other grouping entities.">
<polygon fill="white" stroke="#666666" points="1632.5,-106.88 1561,-106.88 1561,-87.62 1632.5,-87.62 1632.5,-106.88"/>
<text text-anchor="middle" x="1596.75" y="-93.38" font-family="Helvetica,sans-Serif" font-size="10.00">Ioss::Region</text>
</a>
</g>
</g>
<!-- Node16&#45;&gt;Node2 -->
<g id="edge15_Node000002_Node000016" class="edge">
<title>Node16&#45;&gt;Node2</title>
<g id="a_edge15_Node000002_Node000016"><a xlink:title=" ">
<path fill="none" stroke="#9a32cd" stroke-dasharray="5,2" d="M1550.02,-95.07C1541.37,-94.68 1532.41,-94.31 1524,-94 1458.37,-91.57 1382.39,-89.53 1335.04,-88.35"/>
<polygon fill="#9a32cd" stroke="#9a32cd" points="1549.57,-98.59 1559.72,-95.55 1549.89,-91.6 1549.57,-98.59"/>
</a>
</g>
<text text-anchor="middle" x="1471.38" y="-96" font-family="Helvetica,sans-Serif" font-size="10.00" fill="grey"> region_</text>
</g>
<!-- Node17&#45;&gt;Node16 -->
<g id="edge16_Node000016_Node000017" class="edge">
<title>Node17&#45;&gt;Node16</title>
<g id="a_edge16_Node000016_Node000017"><a xlink:title=" ">
<path fill="none" stroke="#63b8ff" d="M1501.14,-156.13C1508.64,-152.06 1516.68,-147.58 1524,-143.25 1544,-131.44 1566.46,-116.81 1580.83,-107.27"/>
<polygon fill="#63b8ff" stroke="#63b8ff" points="1499.84,-153.39 1492.68,-161.21 1503.15,-159.56 1499.84,-153.39"/>
</a>
</g>
</g>
<!-- Node18 -->
<g id="Node000018" class="node">
<title>Node18</title>
<g id="a_Node000018"><a xlink:href="classIoss_1_1FieldManager.html" target="_top" xlink:title="A collection of Ioss::Field objects.">
<polygon fill="white" stroke="#666666" points="1223.5,-267.88 1124.25,-267.88 1124.25,-248.62 1223.5,-248.62 1223.5,-267.88"/>
<text text-anchor="middle" x="1173.88" y="-254.38" font-family="Helvetica,sans-Serif" font-size="10.00">Ioss::FieldManager</text>
</a>
</g>
</g>
<!-- Node18&#45;&gt;Node17 -->
<g id="edge18_Node000017_Node000018" class="edge">
<title>Node18&#45;&gt;Node17</title>
<g id="a_edge18_Node000017_Node000018"><a xlink:title=" ">
<path fill="none" stroke="#9a32cd" stroke-dasharray="5,2" d="M1224.41,-245.35C1270.35,-233.17 1340.48,-214.03 1400.75,-195.25 1414.54,-190.95 1429.73,-185.77 1442.38,-181.33"/>
<polygon fill="#9a32cd" stroke="#9a32cd" points="1223.63,-242.2 1214.85,-248.14 1225.41,-248.97 1223.63,-242.2"/>
</a>
</g>
<text text-anchor="middle" x="1288.12" y="-242" font-family="Helvetica,sans-Serif" font-size="10.00" fill="grey"> fields</text>
</g>
<!-- Node19 -->
<g id="Node000019" class="node">
<title>Node19</title>
<g id="a_Node000019"><a xlink:href="classtsl_1_1robin__map.html" target="_top" xlink:title=" ">
<polygon fill="white" stroke="#666666" points="849.88,-281.5 749.88,-281.5 749.88,-251 849.88,-251 849.88,-281.5"/>
<text text-anchor="start" x="757.88" y="-268" font-family="Helvetica,sans-Serif" font-size="10.00">tsl::robin_map&lt; std</text>
<text text-anchor="middle" x="799.88" y="-256.75" font-family="Helvetica,sans-Serif" font-size="10.00">::string, Field &gt;</text>
</a>
</g>
</g>
<!-- Node19&#45;&gt;Node18 -->
<g id="edge19_Node000018_Node000019" class="edge">
<title>Node19&#45;&gt;Node18</title>
<g id="a_edge19_Node000018_Node000019"><a xlink:title=" ">
<path fill="none" stroke="#9a32cd" stroke-dasharray="5,2" d="M861.14,-264.95C934.28,-263.38 1056.21,-260.76 1123.86,-259.3"/>
<polygon fill="#9a32cd" stroke="#9a32cd" points="861.2,-261.47 851.27,-265.19 861.35,-268.47 861.2,-261.47"/>
</a>
</g>
<text text-anchor="middle" x="922.25" y="-266" font-family="Helvetica,sans-Serif" font-size="10.00" fill="grey"> fields</text>
</g>
<!-- Node20&#45;&gt;Node19 -->
<g id="edge20_Node000019_Node000020" class="edge">
<title>Node20&#45;&gt;Node19</title>
<g id="a_edge20_Node000019_Node000020"><a xlink:title=" ">
<path fill="none" stroke="#9a32cd" stroke-dasharray="5,2" d="M696.11,-267.2C714.89,-267.02 733.44,-266.85 749.5,-266.71"/>
<polygon fill="#9a32cd" stroke="#9a32cd" points="696.32,-263.7 686.36,-267.3 696.39,-270.7 696.32,-263.7"/>
</a>
</g>
<text text-anchor="middle" x="715.38" y="-268" font-family="Helvetica,sans-Serif" font-size="10.00" fill="grey"> m_ht</text>
</g>
</g>
</svg>
