<?xml version="1.0" encoding="UTF-8" standalone="no"?>
<!DOCTYPE svg PUBLIC "-//W3C//DTD SVG 1.1//EN"
 "http://www.w3.org/Graphics/SVG/1.1/DTD/svg11.dtd">
<!-- Generated by graphviz version 6.0.2 (20221011.1828)
 -->
<!-- Title: Iogn::DatabaseIO Pages: 1 -->
<!--zoomable 598 -->
<svg id="main" version="1.1" xmlns="http://www.w3.org/2000/svg" xmlns:xlink="http://www.w3.org/1999/xlink" xml:space="preserve" onload="init(evt)">
<style type="text/css"><![CDATA[
.edge:hover path { stroke: red; }
.edge:hover polygon { stroke: red; fill: red; }
]]></style>
<script type="text/javascript"><![CDATA[
var edges = document.getElementsByTagName('g');
if (edges && edges.length) {
  for (var i=0;i<edges.length;i++) {
    if (edges[i].id.substr(0,4)=='edge') {
      edges[i].setAttribute('class','edge');
    }
  }
}
]]></script>
        <defs>
                <circle id="rim" cx="0" cy="0" r="7"/>
                <circle id="rim2" cx="0" cy="0" r="3.5"/>
                <g id="zoomPlus">
                        <use xlink:href="#rim" fill="#404040">
                                <set attributeName="fill" to="#808080" begin="zoomplus.mouseover" end="zoomplus.mouseout"/>
                        </use>
                        <path d="M-4,0h8M0,-4v8" fill="none" stroke="white" stroke-width="1.5" pointer-events="none"/>
                </g>
                <g id="zoomMin">
                        <use xlink:href="#rim" fill="#404040">
                                <set attributeName="fill" to="#808080" begin="zoomminus.mouseover" end="zoomminus.mouseout"/>
                        </use>
                        <path d="M-4,0h8" fill="none" stroke="white" stroke-width="1.5" pointer-events="none"/>
                </g>
                <g id="dirArrow">
                        <path fill="none" stroke="white" stroke-width="1.5" d="M0,-3.0v7 M-2.5,-0.5L0,-3.0L2.5,-0.5"/>
                </g>
               <g id="resetDef">
                       <use xlink:href="#rim2" fill="#404040">
                               <set attributeName="fill" to="#808080" begin="reset.mouseover" end="reset.mouseout"/>
                       </use>
               </g>
        </defs>

<script type="text/javascript">
var viewWidth = 1897;
var viewHeight = 598;
var sectionId = 'dynsection-1';
</script>
<script xlink:href="svgpan.js"/>
<svg id="graph" class="graph">
<g id="viewport">
<title>Iogn::DatabaseIO</title>
<!-- Node1 -->
<g id="node1" class="node">
<title>Node1</title>
<g id="a_node1"><a xlink:title=" ">
<polygon fill="#999999" stroke="#666666" points="1774,-301.5 1680,-301.5 1680,-282.5 1774,-282.5 1774,-301.5"/>
<text text-anchor="middle" x="1727" y="-289.5" font-family="Helvetica,sans-Serif" font-size="10.00">Iogn::DatabaseIO</text>
</a>
</g>
</g>
<!-- Node2 -->
<g id="node2" class="node">
<title>Node2</title>
<g id="a_node2"><a xlink:href="classIoss_1_1DatabaseIO.html" target="_top" xlink:title="An input or output Database.">
<polygon fill="white" stroke="#666666" points="1546,-349.5 1452,-349.5 1452,-330.5 1546,-330.5 1546,-349.5"/>
<text text-anchor="middle" x="1499" y="-337.5" font-family="Helvetica,sans-Serif" font-size="10.00">Ioss::DatabaseIO</text>
</a>
</g>
</g>
<!-- Node2&#45;&gt;Node1 -->
<g id="edge1" class="edge">
<title>Node2&#45;&gt;Node1</title>
<path fill="none" stroke="#63b8ff" d="M1554.98,-328.32C1593.71,-320.1 1644.91,-309.22 1681.16,-301.52"/>
<polygon fill="#63b8ff" stroke="#63b8ff" points="1553.98,-324.96 1544.92,-330.46 1555.43,-331.81 1553.98,-324.96"/>
</g>
<!-- Node25 -->
<g id="node25" class="node">
<title>Node25</title>
<g id="a_node25"><a xlink:href="classIoss_1_1GroupingEntity.html" target="_top" xlink:title="Base class for all &#39;grouping&#39; entities. The following derived classes are typical:">
<polygon fill="white" stroke="#666666" points="1780,-399.5 1674,-399.5 1674,-380.5 1780,-380.5 1780,-399.5"/>
<text text-anchor="middle" x="1727" y="-387.5" font-family="Helvetica,sans-Serif" font-size="10.00">Ioss::GroupingEntity</text>
</a>
</g>
</g>
<!-- Node2&#45;&gt;Node25 -->
<g id="edge35" class="edge">
<title>Node2&#45;&gt;Node25</title>
<path fill="none" stroke="#9a32cd" stroke-dasharray="5,2" d="M1553.02,-351.73C1592.52,-360.47 1645.79,-372.26 1682.74,-380.43"/>
<polygon fill="#9a32cd" stroke="#9a32cd" points="1553.56,-348.27 1543.04,-349.52 1552.05,-355.1 1553.56,-348.27"/>
<text text-anchor="middle" x="1614" y="-376" font-family="Helvetica,sans-Serif" font-size="10.00"> database_</text>
</g>
<!-- Node3 -->
<g id="node3" class="node">
<title>Node3</title>
<g id="a_node3"><a xlink:href="classIoss_1_1PropertyManager.html" target="_top" xlink:title="A collection of Ioss::Property objects.">
<polygon fill="white" stroke="#666666" points="1308,-409.5 1192,-409.5 1192,-390.5 1308,-390.5 1308,-409.5"/>
<text text-anchor="middle" x="1250" y="-397.5" font-family="Helvetica,sans-Serif" font-size="10.00">Ioss::PropertyManager</text>
</a>
</g>
</g>
<!-- Node3&#45;&gt;Node2 -->
<g id="edge2" class="edge">
<title>Node3&#45;&gt;Node2</title>
<path fill="none" stroke="#9a32cd" stroke-dasharray="5,2" d="M1286.65,-387.14C1299.01,-382.94 1313.03,-378.47 1326,-375 1368.1,-363.74 1416.83,-354.14 1451.65,-347.86"/>
<polygon fill="#9a32cd" stroke="#9a32cd" points="1285.45,-383.85 1277.14,-390.42 1287.74,-390.46 1285.45,-383.85"/>
<text text-anchor="middle" x="1376" y="-378" font-family="Helvetica,sans-Serif" font-size="10.00"> properties</text>
</g>
<!-- Node3&#45;&gt;Node25 -->
<g id="edge26" class="edge">
<title>Node3&#45;&gt;Node25</title>
<path fill="none" stroke="#9a32cd" stroke-dasharray="5,2" d="M1318.44,-398.58C1414.19,-396.56 1587.46,-392.92 1673.95,-391.1"/>
<polygon fill="#9a32cd" stroke="#9a32cd" points="1318.22,-395.08 1308.3,-398.79 1318.37,-402.08 1318.22,-395.08"/>
<text text-anchor="middle" x="1499" y="-398" font-family="Helvetica,sans-Serif" font-size="10.00"> properties</text>
</g>
<!-- Node4 -->
<g id="node4" class="node">
<title>Node4</title>
<g id="a_node4"><a xlink:href="classtsl_1_1robin__map.html" target="_top" xlink:title=" ">
<polygon fill="white" stroke="#666666" points="1051,-415 950,-415 950,-385 1051,-385 1051,-415"/>
<text text-anchor="start" x="958" y="-403" font-family="Helvetica,sans-Serif" font-size="10.00">tsl::robin_map&lt; std</text>
<text text-anchor="middle" x="1000.5" y="-392" font-family="Helvetica,sans-Serif" font-size="10.00">::string, Property &gt;</text>
</a>
</g>
</g>
<!-- Node4&#45;&gt;Node3 -->
<g id="edge3" class="edge">
<title>Node4&#45;&gt;Node3</title>
<path fill="none" stroke="#9a32cd" stroke-dasharray="5,2" d="M1061.36,-400C1101.05,-400 1152.82,-400 1191.93,-400"/>
<polygon fill="#9a32cd" stroke="#9a32cd" points="1061.29,-396.5 1051.29,-400 1061.29,-403.5 1061.29,-396.5"/>
<text text-anchor="middle" x="1123.5" y="-403" font-family="Helvetica,sans-Serif" font-size="10.00"> m_properties</text>
</g>
<!-- Node5 -->
<g id="node5" class="node">
<title>Node5</title>
<g id="a_node5"><a xlink:href="classtsl_1_1detail__robin__hash_1_1robin__hash.html" target="_top" xlink:title=" ">
<polygon fill="white" stroke="#666666" points="885,-453.5 676,-453.5 676,-346.5 885,-346.5 885,-453.5"/>
<text text-anchor="start" x="684" y="-441.5" font-family="Helvetica,sans-Serif" font-size="10.00">tsl::detail_robin_hash</text>
<text text-anchor="start" x="684" y="-430.5" font-family="Helvetica,sans-Serif" font-size="10.00">::robin_hash&lt; std::pair</text>
<text text-anchor="start" x="684" y="-419.5" font-family="Helvetica,sans-Serif" font-size="10.00">&lt; std::string, Property</text>
<text text-anchor="start" x="684" y="-408.5" font-family="Helvetica,sans-Serif" font-size="10.00"> &gt;, KeySelect, ValueSelect,</text>
<text text-anchor="start" x="684" y="-397.5" font-family="Helvetica,sans-Serif" font-size="10.00"> std::hash&lt; std::string &gt;,</text>
<text text-anchor="start" x="684" y="-386.5" font-family="Helvetica,sans-Serif" font-size="10.00"> std::equal_to&lt; std::string</text>
<text text-anchor="start" x="684" y="-375.5" font-family="Helvetica,sans-Serif" font-size="10.00"> &gt;, std::allocator&lt; std::pair</text>
<text text-anchor="start" x="684" y="-364.5" font-family="Helvetica,sans-Serif" font-size="10.00">&lt; std::string, Property &gt; &gt;, false,</text>
<text text-anchor="middle" x="780.5" y="-353.5" font-family="Helvetica,sans-Serif" font-size="10.00"> tsl::rh::power_of_two_growth_policy&lt; 2 &gt; &gt;</text>
</a>
</g>
</g>
<!-- Node5&#45;&gt;Node4 -->
<g id="edge4" class="edge">
<title>Node5&#45;&gt;Node4</title>
<path fill="none" stroke="#9a32cd" stroke-dasharray="5,2" d="M895.16,-400C914.44,-400 933.52,-400 949.99,-400"/>
<polygon fill="#9a32cd" stroke="#9a32cd" points="895.07,-396.5 885.07,-400 895.07,-403.5 895.07,-396.5"/>
<text text-anchor="middle" x="915.5" y="-403" font-family="Helvetica,sans-Serif" font-size="10.00"> m_ht</text>
</g>
<!-- Node6 -->
<g id="node6" class="node">
<title>Node6</title>
<g id="a_node6"><a xlink:title=" ">
<polygon fill="white" stroke="#666666" points="516,-589.5 397,-589.5 397,-570.5 516,-570.5 516,-589.5"/>
<text text-anchor="middle" x="456.5" y="-577.5" font-family="Helvetica,sans-Serif" font-size="10.00">std::hash&lt; std::string &gt;</text>
</a>
</g>
</g>
<!-- Node6&#45;&gt;Node5 -->
<g id="edge5" class="edge">
<title>Node6&#45;&gt;Node5</title>
<path fill="none" stroke="#8b1a1a" d="M526.18,-578.96C569.4,-574.67 623.35,-562.09 658,-528 679.37,-506.98 657.93,-486.92 676,-463 678.41,-459.81 681.03,-456.75 683.82,-453.81"/>
<polygon fill="#8b1a1a" stroke="#8b1a1a" points="525.67,-575.49 516.01,-579.84 526.28,-582.47 525.67,-575.49"/>
</g>
<!-- Node28 -->
<g id="node28" class="node">
<title>Node28</title>
<g id="a_node28"><a xlink:href="classtsl_1_1detail__robin__hash_1_1robin__hash.html" target="_top" xlink:title=" ">
<polygon fill="white" stroke="#666666" points="885,-578.5 676,-578.5 676,-471.5 885,-471.5 885,-578.5"/>
<text text-anchor="start" x="684" y="-566.5" font-family="Helvetica,sans-Serif" font-size="10.00">tsl::detail_robin_hash</text>
<text text-anchor="start" x="684" y="-555.5" font-family="Helvetica,sans-Serif" font-size="10.00">::robin_hash&lt; std::pair</text>
<text text-anchor="start" x="684" y="-544.5" font-family="Helvetica,sans-Serif" font-size="10.00">&lt; std::string, Field &gt;,</text>
<text text-anchor="start" x="684" y="-533.5" font-family="Helvetica,sans-Serif" font-size="10.00"> KeySelect, ValueSelect,</text>
<text text-anchor="start" x="684" y="-522.5" font-family="Helvetica,sans-Serif" font-size="10.00"> std::hash&lt; std::string &gt;,</text>
<text text-anchor="start" x="684" y="-511.5" font-family="Helvetica,sans-Serif" font-size="10.00"> std::equal_to&lt; std::string</text>
<text text-anchor="start" x="684" y="-500.5" font-family="Helvetica,sans-Serif" font-size="10.00"> &gt;, std::allocator&lt; std::pair</text>
<text text-anchor="start" x="684" y="-489.5" font-family="Helvetica,sans-Serif" font-size="10.00">&lt; std::string, Field &gt; &gt;, false,</text>
<text text-anchor="middle" x="780.5" y="-478.5" font-family="Helvetica,sans-Serif" font-size="10.00"> tsl::rh::power_of_two_growth_policy&lt; 2 &gt; &gt;</text>
</a>
</g>
</g>
<!-- Node6&#45;&gt;Node28 -->
<g id="edge30" class="edge">
<title>Node6&#45;&gt;Node28</title>
<path fill="none" stroke="#8b1a1a" d="M526.3,-586.58C565.35,-588.6 614.89,-588.26 658,-579 663.87,-577.74 669.8,-576.18 675.71,-574.39"/>
<polygon fill="#8b1a1a" stroke="#8b1a1a" points="526.28,-583.08 516.09,-585.99 525.87,-590.06 526.28,-583.08"/>
</g>
<!-- Node7 -->
<g id="node7" class="node">
<title>Node7</title>
<g id="a_node7"><a xlink:title=" ">
<polygon fill="white" stroke="#666666" points="504,-417 409,-417 409,-387 504,-387 504,-417"/>
<text text-anchor="start" x="417" y="-405" font-family="Helvetica,sans-Serif" font-size="10.00">std::equal_to&lt; std</text>
<text text-anchor="middle" x="456.5" y="-394" font-family="Helvetica,sans-Serif" font-size="10.00">::string &gt;</text>
</a>
</g>
</g>
<!-- Node7&#45;&gt;Node5 -->
<g id="edge6" class="edge">
<title>Node7&#45;&gt;Node5</title>
<path fill="none" stroke="#8b1a1a" d="M514.39,-401.65C558.97,-401.37 622.21,-400.98 675.74,-400.64"/>
<polygon fill="#8b1a1a" stroke="#8b1a1a" points="514.3,-398.15 504.32,-401.71 514.34,-405.15 514.3,-398.15"/>
</g>
<!-- Node7&#45;&gt;Node28 -->
<g id="edge31" class="edge">
<title>Node7&#45;&gt;Node28</title>
<path fill="none" stroke="#8b1a1a" d="M514.41,-407.84C565,-413.86 634.5,-424.43 658,-439 669.33,-446.02 666.1,-454.07 676,-463 679.19,-465.87 682.53,-468.69 685.98,-471.43"/>
<polygon fill="#8b1a1a" stroke="#8b1a1a" points="514.58,-404.34 504.24,-406.66 513.77,-411.29 514.58,-404.34"/>
</g>
<!-- Node8 -->
<g id="node8" class="node">
<title>Node8</title>
<g id="a_node8"><a xlink:href="classtsl_1_1rh_1_1power__of__two__growth__policy.html" target="_top" xlink:title=" ">
<polygon fill="white" stroke="#666666" points="536,-542 377,-542 377,-512 536,-512 536,-542"/>
<text text-anchor="start" x="385" y="-530" font-family="Helvetica,sans-Serif" font-size="10.00">tsl::rh::power_of_two</text>
<text text-anchor="middle" x="456.5" y="-519" font-family="Helvetica,sans-Serif" font-size="10.00">_growth_policy&lt; GrowthFactor &gt;</text>
</a>
</g>
</g>
<!-- Node8&#45;&gt;Node5 -->
<g id="edge7" class="edge">
<title>Node8&#45;&gt;Node5</title>
<path fill="none" stroke="#8b1a1a" d="M546.39,-525.37C591.41,-522.88 640.24,-517.1 658,-504 674.01,-492.18 662.89,-477.98 676,-463 678.77,-459.83 681.74,-456.78 684.86,-453.83"/>
<polygon fill="#8b1a1a" stroke="#8b1a1a" points="546.06,-521.88 536.25,-525.88 546.42,-528.87 546.06,-521.88"/>
</g>
<!-- Node8&#45;&gt;Node28 -->
<g id="edge32" class="edge">
<title>Node8&#45;&gt;Node28</title>
<path fill="none" stroke="#8b1a1a" d="M546.31,-528.91C548.9,-528.94 551.47,-528.97 554,-529 600.22,-529.48 611.78,-529.76 658,-529 663.8,-528.9 669.76,-528.78 675.77,-528.64"/>
<polygon fill="#8b1a1a" stroke="#8b1a1a" points="546.28,-525.41 536.23,-528.77 546.18,-532.41 546.28,-525.41"/>
</g>
<!-- Node9 -->
<g id="node9" class="node">
<title>Node9</title>
<g id="a_node9"><a xlink:href="classtsl_1_1detail__robin__hash_1_1bucket__entry.html" target="_top" xlink:title=" ">
<polygon fill="white" stroke="#666666" points="524.5,-485.5 388.5,-485.5 388.5,-444.5 524.5,-444.5 524.5,-485.5"/>
<text text-anchor="start" x="396.5" y="-473.5" font-family="Helvetica,sans-Serif" font-size="10.00">tsl::detail_robin_hash</text>
<text text-anchor="start" x="396.5" y="-462.5" font-family="Helvetica,sans-Serif" font-size="10.00">::bucket_entry&lt; ValueType,</text>
<text text-anchor="middle" x="456.5" y="-451.5" font-family="Helvetica,sans-Serif" font-size="10.00"> StoreHash &gt;</text>
</a>
</g>
</g>
<!-- Node9&#45;&gt;Node5 -->
<g id="edge8" class="edge">
<title>Node9&#45;&gt;Node5</title>
<path fill="none" stroke="#9a32cd" stroke-dasharray="5,2" d="M534.56,-449.44C576.83,-440.91 629.83,-430.21 675.7,-420.95"/>
<polygon fill="#9a32cd" stroke="#9a32cd" points="533.72,-446.04 524.61,-451.45 535.1,-452.9 533.72,-446.04"/>
<text text-anchor="middle" x="606" y="-446" font-family="Helvetica,sans-Serif" font-size="10.00"> m_buckets</text>
</g>
<!-- Node9&#45;&gt;Node28 -->
<g id="edge33" class="edge">
<title>Node9&#45;&gt;Node28</title>
<path fill="none" stroke="#9a32cd" stroke-dasharray="5,2" d="M534.56,-479.36C576.83,-487.24 629.83,-497.11 675.7,-505.66"/>
<polygon fill="#9a32cd" stroke="#9a32cd" points="535.08,-475.9 524.61,-477.5 533.8,-482.78 535.08,-475.9"/>
<text text-anchor="middle" x="606" y="-505" font-family="Helvetica,sans-Serif" font-size="10.00"> m_buckets</text>
</g>
<!-- Node10 -->
<g id="node10" class="node">
<title>Node10</title>
<g id="a_node10"><a xlink:href="classtsl_1_1detail__robin__hash_1_1bucket__entry__hash.html" target="_top" xlink:title=" ">
<polygon fill="white" stroke="#666666" points="205,-480 35,-480 35,-450 205,-450 205,-480"/>
<text text-anchor="start" x="43" y="-468" font-family="Helvetica,sans-Serif" font-size="10.00">tsl::detail_robin_hash</text>
<text text-anchor="middle" x="120" y="-457" font-family="Helvetica,sans-Serif" font-size="10.00">::bucket_entry_hash&lt; StoreHash &gt;</text>
</a>
</g>
</g>
<!-- Node10&#45;&gt;Node9 -->
<g id="edge9" class="edge">
<title>Node10&#45;&gt;Node9</title>
<path fill="none" stroke="#63b8ff" d="M215.53,-465C270.57,-465 338.66,-465 388.23,-465"/>
<polygon fill="#63b8ff" stroke="#63b8ff" points="215.41,-461.5 205.41,-465 215.41,-468.5 215.41,-461.5"/>
</g>
<!-- Node11 -->
<g id="node11" class="node">
<title>Node11</title>
<g id="a_node11"><a xlink:title=" ">
<polygon fill="white" stroke="#666666" points="478,-305.5 435,-305.5 435,-286.5 478,-286.5 478,-305.5"/>
<text text-anchor="middle" x="456.5" y="-293.5" font-family="Helvetica,sans-Serif" font-size="10.00">size_t</text>
</a>
</g>
</g>
<!-- Node11&#45;&gt;Node5 -->
<g id="edge10" class="edge">
<title>Node11&#45;&gt;Node5</title>
<path fill="none" stroke="#9a32cd" stroke-dasharray="5,2" d="M488.26,-289.83C528.64,-283.12 601.05,-275.95 658,-297 685.75,-307.26 711.53,-326.94 732.14,-346.37"/>
<polygon fill="#9a32cd" stroke="#9a32cd" points="487.48,-286.41 478.24,-291.59 488.69,-293.3 487.48,-286.41"/>
<text text-anchor="middle" x="606" y="-322" font-family="Helvetica,sans-Serif" font-size="10.00"> m_bucket_count</text>
<text text-anchor="middle" x="606" y="-311" font-family="Helvetica,sans-Serif" font-size="10.00">m_load_threshold</text>
<text text-anchor="middle" x="606" y="-300" font-family="Helvetica,sans-Serif" font-size="10.00">m_nb_elements</text>
</g>
<!-- Node16 -->
<g id="node16" class="node">
<title>Node16</title>
<g id="a_node16"><a xlink:href="classtsl_1_1detail__hopscotch__hash_1_1hopscotch__hash.html" target="_top" xlink:title=" ">
<polygon fill="white" stroke="#666666" points="863,-237.5 698,-237.5 698,-108.5 863,-108.5 863,-237.5"/>
<text text-anchor="start" x="706" y="-225.5" font-family="Helvetica,sans-Serif" font-size="10.00">tsl::detail_hopscotch</text>
<text text-anchor="start" x="706" y="-214.5" font-family="Helvetica,sans-Serif" font-size="10.00">_hash::hopscotch_hash</text>
<text text-anchor="start" x="706" y="-203.5" font-family="Helvetica,sans-Serif" font-size="10.00">&lt; std::pair&lt; const int64</text>
<text text-anchor="start" x="706" y="-192.5" font-family="Helvetica,sans-Serif" font-size="10.00">_t, int64_t &gt;, KeySelect,</text>
<text text-anchor="start" x="706" y="-181.5" font-family="Helvetica,sans-Serif" font-size="10.00"> ValueSelect, std::hash&lt;</text>
<text text-anchor="start" x="706" y="-170.5" font-family="Helvetica,sans-Serif" font-size="10.00"> int64_t &gt;, std::equal_to</text>
<text text-anchor="start" x="706" y="-159.5" font-family="Helvetica,sans-Serif" font-size="10.00">&lt; int64_t &gt;, std::allocator</text>
<text text-anchor="start" x="706" y="-148.5" font-family="Helvetica,sans-Serif" font-size="10.00">&lt; std::pair&lt; const int64_t,</text>
<text text-anchor="start" x="706" y="-137.5" font-family="Helvetica,sans-Serif" font-size="10.00"> int64_t &gt; &gt;, 62, false, tsl</text>
<text text-anchor="start" x="706" y="-126.5" font-family="Helvetica,sans-Serif" font-size="10.00">::hh::power_of_two_growth_policy</text>
<text text-anchor="middle" x="780.5" y="-115.5" font-family="Helvetica,sans-Serif" font-size="10.00">&lt; 2 &gt;, overflow_container_type &gt;</text>
</a>
</g>
</g>
<!-- Node11&#45;&gt;Node16 -->
<g id="edge22" class="edge">
<title>Node11&#45;&gt;Node16</title>
<path fill="none" stroke="#9a32cd" stroke-dasharray="5,2" d="M475.13,-279.52C493.46,-263.28 523.68,-238.92 554,-225 579.47,-213.31 644.14,-198.92 697.73,-188.24"/>
<polygon fill="#9a32cd" stroke="#9a32cd" points="472.65,-277.05 467.58,-286.35 477.35,-282.24 472.65,-277.05"/>
<text text-anchor="start" x="554" y="-272" font-family="Helvetica,sans-Serif" font-size="10.00"> m_max_load_threshold</text>
<text text-anchor="middle" x="606" y="-261" font-family="Helvetica,sans-Serif" font-size="10.00">_rehash</text>
<text text-anchor="start" x="554" y="-250" font-family="Helvetica,sans-Serif" font-size="10.00">m_min_load_threshold</text>
<text text-anchor="middle" x="606" y="-239" font-family="Helvetica,sans-Serif" font-size="10.00">_rehash</text>
<text text-anchor="middle" x="606" y="-228" font-family="Helvetica,sans-Serif" font-size="10.00">m_nb_elements</text>
</g>
<!-- Node11&#45;&gt;Node28 -->
<g id="edge34" class="edge">
<title>Node11&#45;&gt;Node28</title>
<path fill="none" stroke="#9a32cd" stroke-dasharray="5,2" d="M487.7,-307.19C542.28,-327.53 652.22,-369.1 658,-376 683.36,-406.26 653.14,-430.81 676,-463 678.06,-465.9 680.31,-468.69 682.7,-471.38"/>
<polygon fill="#9a32cd" stroke="#9a32cd" points="488.79,-303.86 478.2,-303.65 486.35,-310.42 488.79,-303.86"/>
<text text-anchor="middle" x="606" y="-401" font-family="Helvetica,sans-Serif" font-size="10.00"> m_bucket_count</text>
<text text-anchor="middle" x="606" y="-390" font-family="Helvetica,sans-Serif" font-size="10.00">m_load_threshold</text>
<text text-anchor="middle" x="606" y="-379" font-family="Helvetica,sans-Serif" font-size="10.00">m_nb_elements</text>
</g>
<!-- Node12 -->
<g id="node12" class="node">
<title>Node12</title>
<g id="a_node12"><a xlink:href="classIoss_1_1ElementTopology.html" target="_top" xlink:title="Represents an element topology.">
<polygon fill="white" stroke="#666666" points="1308,-349.5 1192,-349.5 1192,-330.5 1308,-330.5 1308,-349.5"/>
<text text-anchor="middle" x="1250" y="-337.5" font-family="Helvetica,sans-Serif" font-size="10.00">Ioss::ElementTopology</text>
</a>
</g>
</g>
<!-- Node12&#45;&gt;Node2 -->
<g id="edge11" class="edge">
<title>Node12&#45;&gt;Node2</title>
<path fill="none" stroke="#9a32cd" stroke-dasharray="5,2" d="M1318.51,-340C1360.81,-340 1414.24,-340 1451.76,-340"/>
<polygon fill="#9a32cd" stroke="#9a32cd" points="1318.29,-336.5 1308.29,-340 1318.29,-343.5 1318.29,-336.5"/>
<text text-anchor="middle" x="1376" y="-343" font-family="Helvetica,sans-Serif" font-size="10.00"> commonSideTopology</text>
</g>
<!-- Node13 -->
<g id="node13" class="node">
<title>Node13</title>
<g id="a_node13"><a xlink:href="classstd_1_1basic__string.html" target="_top" xlink:title=" ">
<polygon fill="white" stroke="#666666" points="1055,-355 946,-355 946,-325 1055,-325 1055,-355"/>
<text text-anchor="start" x="954" y="-343" font-family="Helvetica,sans-Serif" font-size="10.00">std::basic_string&lt;</text>
<text text-anchor="middle" x="1000.5" y="-332" font-family="Helvetica,sans-Serif" font-size="10.00"> Elem, Traits, Alloc &gt;</text>
</a>
</g>
</g>
<!-- Node13&#45;&gt;Node12 -->
<g id="edge12" class="edge">
<title>Node13&#45;&gt;Node12</title>
<path fill="none" stroke="#9a32cd" stroke-dasharray="5,2" d="M1065.42,-340C1104.54,-340 1154.17,-340 1191.96,-340"/>
<polygon fill="#9a32cd" stroke="#9a32cd" points="1065.2,-336.5 1055.2,-340 1065.2,-343.5 1065.2,-336.5"/>
<text text-anchor="middle" x="1123.5" y="-354" font-family="Helvetica,sans-Serif" font-size="10.00"> masterElementName_</text>
<text text-anchor="middle" x="1123.5" y="-343" font-family="Helvetica,sans-Serif" font-size="10.00">name_</text>
</g>
<!-- Node14 -->
<g id="node14" class="node">
<title>Node14</title>
<g id="a_node14"><a xlink:href="classIoss_1_1Map.html" target="_top" xlink:title=" ">
<polygon fill="white" stroke="#666666" points="1280,-282.5 1220,-282.5 1220,-263.5 1280,-263.5 1280,-282.5"/>
<text text-anchor="middle" x="1250" y="-270.5" font-family="Helvetica,sans-Serif" font-size="10.00">Ioss::Map</text>
</a>
</g>
</g>
<!-- Node14&#45;&gt;Node2 -->
<g id="edge13" class="edge">
<title>Node14&#45;&gt;Node2</title>
<path fill="none" stroke="#9a32cd" stroke-dasharray="5,2" d="M1290.37,-270.29C1327.13,-269.33 1382.69,-272.01 1426,-292 1435.99,-296.61 1435.17,-302.44 1444,-309 1454.93,-317.12 1468.19,-324.76 1478.83,-330.42"/>
<polygon fill="#9a32cd" stroke="#9a32cd" points="1289.92,-266.8 1280.06,-270.66 1290.18,-273.8 1289.92,-266.8"/>
<text text-anchor="middle" x="1376" y="-328" font-family="Helvetica,sans-Serif" font-size="10.00"> edgeMap</text>
<text text-anchor="middle" x="1376" y="-317" font-family="Helvetica,sans-Serif" font-size="10.00">elemMap</text>
<text text-anchor="middle" x="1376" y="-306" font-family="Helvetica,sans-Serif" font-size="10.00">faceMap</text>
<text text-anchor="middle" x="1376" y="-295" font-family="Helvetica,sans-Serif" font-size="10.00">nodeMap</text>
</g>
<!-- Node15 -->
<g id="node15" class="node">
<title>Node15</title>
<g id="a_node15"><a xlink:href="classtsl_1_1bhopscotch__map.html" target="_top" xlink:title=" ">
<polygon fill="white" stroke="#666666" points="1054,-254 947,-254 947,-224 1054,-224 1054,-254"/>
<text text-anchor="start" x="955" y="-242" font-family="Helvetica,sans-Serif" font-size="10.00">tsl::bhopscotch_map</text>
<text text-anchor="middle" x="1000.5" y="-231" font-family="Helvetica,sans-Serif" font-size="10.00">&lt; int64_t, int64_t &gt;</text>
</a>
</g>
</g>
<!-- Node15&#45;&gt;Node14 -->
<g id="edge14" class="edge">
<title>Node15&#45;&gt;Node14</title>
<path fill="none" stroke="#9a32cd" stroke-dasharray="5,2" d="M1064.35,-247.63C1114.28,-254.49 1181.84,-263.77 1219.86,-269"/>
<polygon fill="#9a32cd" stroke="#9a32cd" points="1064.67,-244.15 1054.29,-246.25 1063.72,-251.08 1064.67,-244.15"/>
<text text-anchor="middle" x="1123.5" y="-266" font-family="Helvetica,sans-Serif" font-size="10.00"> m_reverse</text>
</g>
<!-- Node16&#45;&gt;Node15 -->
<g id="edge15" class="edge">
<title>Node16&#45;&gt;Node15</title>
<path fill="none" stroke="#9a32cd" stroke-dasharray="5,2" d="M872.94,-200.68C899.31,-208.67 927.1,-217.08 949.89,-223.98"/>
<polygon fill="#9a32cd" stroke="#9a32cd" points="873.88,-197.31 863.3,-197.76 871.85,-204.01 873.88,-197.31"/>
<text text-anchor="middle" x="915.5" y="-219" font-family="Helvetica,sans-Serif" font-size="10.00"> m_ht</text>
</g>
<!-- Node17 -->
<g id="node17" class="node">
<title>Node17</title>
<g id="a_node17"><a xlink:title=" ">
<polygon fill="white" stroke="#666666" points="508.5,-206.5 404.5,-206.5 404.5,-187.5 508.5,-187.5 508.5,-206.5"/>
<text text-anchor="middle" x="456.5" y="-194.5" font-family="Helvetica,sans-Serif" font-size="10.00">std::hash&lt; int64_t &gt;</text>
</a>
</g>
</g>
<!-- Node17&#45;&gt;Node16 -->
<g id="edge16" class="edge">
<title>Node17&#45;&gt;Node16</title>
<path fill="none" stroke="#8b1a1a" d="M518.7,-192.44C569.52,-188.65 642.24,-183.23 697.99,-179.08"/>
<polygon fill="#8b1a1a" stroke="#8b1a1a" points="518.23,-188.96 508.52,-193.2 518.75,-195.94 518.23,-188.96"/>
</g>
<!-- Node18 -->
<g id="node18" class="node">
<title>Node18</title>
<g id="a_node18"><a xlink:title=" ">
<polygon fill="white" stroke="#666666" points="516.5,-169.5 396.5,-169.5 396.5,-150.5 516.5,-150.5 516.5,-169.5"/>
<text text-anchor="middle" x="456.5" y="-157.5" font-family="Helvetica,sans-Serif" font-size="10.00">std::equal_to&lt; int64_t &gt;</text>
</a>
</g>
</g>
<!-- Node18&#45;&gt;Node16 -->
<g id="edge17" class="edge">
<title>Node18&#45;&gt;Node16</title>
<path fill="none" stroke="#8b1a1a" d="M526.67,-162.79C576.85,-164.82 644.91,-167.57 697.78,-169.7"/>
<polygon fill="#8b1a1a" stroke="#8b1a1a" points="526.69,-159.29 516.56,-162.38 526.41,-166.29 526.69,-159.29"/>
</g>
<!-- Node19 -->
<g id="node19" class="node">
<title>Node19</title>
<g id="a_node19"><a xlink:href="classtsl_1_1hh_1_1power__of__two__growth__policy.html" target="_top" xlink:title=" ">
<polygon fill="white" stroke="#666666" points="511.5,-132 401.5,-132 401.5,-102 511.5,-102 511.5,-132"/>
<text text-anchor="start" x="409.5" y="-120" font-family="Helvetica,sans-Serif" font-size="10.00">tsl::hh::power_of_two</text>
<text text-anchor="middle" x="456.5" y="-109" font-family="Helvetica,sans-Serif" font-size="10.00">_growth_policy&lt; 2 &gt;</text>
</a>
</g>
</g>
<!-- Node19&#45;&gt;Node16 -->
<g id="edge18" class="edge">
<title>Node19&#45;&gt;Node16</title>
<path fill="none" stroke="#8b1a1a" d="M521.91,-128.2C572.49,-137 643.23,-149.3 697.79,-158.79"/>
<polygon fill="#8b1a1a" stroke="#8b1a1a" points="522.21,-124.7 511.76,-126.44 521.01,-131.6 522.21,-124.7"/>
</g>
<!-- Node20 -->
<g id="node20" class="node">
<title>Node20</title>
<g id="a_node20"><a xlink:href="classtsl_1_1detail__hopscotch__hash_1_1hopscotch__bucket.html" target="_top" xlink:title=" ">
<polygon fill="white" stroke="#666666" points="536,-84 377,-84 377,-32 536,-32 536,-84"/>
<text text-anchor="start" x="385" y="-72" font-family="Helvetica,sans-Serif" font-size="10.00">tsl::detail_hopscotch</text>
<text text-anchor="start" x="385" y="-61" font-family="Helvetica,sans-Serif" font-size="10.00">_hash::hopscotch_bucket</text>
<text text-anchor="start" x="385" y="-50" font-family="Helvetica,sans-Serif" font-size="10.00">&lt; ValueType, NeighborhoodSize,</text>
<text text-anchor="middle" x="456.5" y="-39" font-family="Helvetica,sans-Serif" font-size="10.00"> StoreHash &gt;</text>
</a>
</g>
</g>
<!-- Node20&#45;&gt;Node16 -->
<g id="edge19" class="edge">
<title>Node20&#45;&gt;Node16</title>
<path fill="none" stroke="#9a32cd" stroke-dasharray="5,2" d="M545.95,-83.71C581.09,-94.46 621.72,-107.57 658,-121 671.02,-125.82 684.67,-131.26 697.93,-136.77"/>
<polygon fill="#9a32cd" stroke="#9a32cd" points="546.78,-80.3 536.19,-80.74 544.74,-87 546.78,-80.3"/>
<text text-anchor="middle" x="606" y="-124" font-family="Helvetica,sans-Serif" font-size="10.00"> m_buckets</text>
</g>
<!-- Node21 -->
<g id="node21" class="node">
<title>Node21</title>
<g id="a_node21"><a xlink:href="classtsl_1_1detail__hopscotch__hash_1_1hopscotch__bucket__hash.html" target="_top" xlink:title=" ">
<polygon fill="white" stroke="#666666" points="184,-111.5 56,-111.5 56,-70.5 184,-70.5 184,-111.5"/>
<text text-anchor="start" x="64" y="-99.5" font-family="Helvetica,sans-Serif" font-size="10.00">tsl::detail_hopscotch</text>
<text text-anchor="start" x="64" y="-88.5" font-family="Helvetica,sans-Serif" font-size="10.00">_hash::hopscotch_bucket</text>
<text text-anchor="middle" x="120" y="-77.5" font-family="Helvetica,sans-Serif" font-size="10.00">_hash&lt; StoreHash &gt;</text>
</a>
</g>
</g>
<!-- Node21&#45;&gt;Node20 -->
<g id="edge20" class="edge">
<title>Node21&#45;&gt;Node20</title>
<path fill="none" stroke="#63b8ff" d="M194.5,-83.75C248.46,-78.42 321.67,-71.2 376.82,-65.76"/>
<polygon fill="#63b8ff" stroke="#63b8ff" points="193.92,-80.29 184.31,-84.75 194.61,-87.26 193.92,-80.29"/>
</g>
<!-- Node22 -->
<g id="node22" class="node">
<title>Node22</title>
<g id="a_node22"><a xlink:href="classtsl_1_1detail__hopscotch__hash_1_1smallest__type__for__min__bits.html" target="_top" xlink:title=" ">
<polygon fill="white" stroke="#666666" points="240,-52 0,-52 0,0 240,0 240,-52"/>
<text text-anchor="start" x="8" y="-40" font-family="Helvetica,sans-Serif" font-size="10.00">tsl::detail_hopscotch</text>
<text text-anchor="start" x="8" y="-29" font-family="Helvetica,sans-Serif" font-size="10.00">_hash::smallest_type</text>
<text text-anchor="start" x="8" y="-18" font-family="Helvetica,sans-Serif" font-size="10.00">_for_min_bits&lt; NeighborhoodSize</text>
<text text-anchor="middle" x="120" y="-7" font-family="Helvetica,sans-Serif" font-size="10.00">+NB_RESERVED_BITS_IN_NEIGHBORHOOD &gt;</text>
</a>
</g>
</g>
<!-- Node22&#45;&gt;Node20 -->
<g id="edge21" class="edge">
<title>Node22&#45;&gt;Node20</title>
<path fill="none" stroke="#9a32cd" stroke-dasharray="5,2" d="M250.53,-38.39C293.2,-42.47 339.32,-46.89 376.99,-50.49"/>
<polygon fill="#9a32cd" stroke="#9a32cd" points="250.63,-34.89 240.35,-37.42 249.97,-41.85 250.63,-34.89"/>
<text text-anchor="middle" x="308.5" y="-52" font-family="Helvetica,sans-Serif" font-size="10.00"> m_neighborhood_infos</text>
</g>
<!-- Node23 -->
<g id="node23" class="node">
<title>Node23</title>
<g id="a_node23"><a xlink:href="classIoss_1_1ParallelUtils.html" target="_top" xlink:title=" ">
<polygon fill="white" stroke="#666666" points="1297,-245.5 1203,-245.5 1203,-226.5 1297,-226.5 1297,-245.5"/>
<text text-anchor="middle" x="1250" y="-233.5" font-family="Helvetica,sans-Serif" font-size="10.00">Ioss::ParallelUtils</text>
</a>
</g>
</g>
<!-- Node23&#45;&gt;Node2 -->
<g id="edge23" class="edge">
<title>Node23&#45;&gt;Node2</title>
<path fill="none" stroke="#9a32cd" stroke-dasharray="5,2" d="M1307.31,-227.95C1344.85,-225.77 1393.14,-229.51 1426,-256 1445.37,-271.62 1428.19,-289.79 1444,-309 1451.69,-318.35 1462.99,-325.45 1473.27,-330.48"/>
<polygon fill="#9a32cd" stroke="#9a32cd" points="1306.74,-224.48 1297.03,-228.71 1307.26,-231.46 1306.74,-224.48"/>
<text text-anchor="middle" x="1376" y="-259" font-family="Helvetica,sans-Serif" font-size="10.00"> util_</text>
</g>
<!-- Node24 -->
<g id="node24" class="node">
<title>Node24</title>
<g id="a_node24"><a xlink:href="classIoss_1_1Region.html" target="_top" xlink:title="A grouping entity that contains other grouping entities.">
<polygon fill="white" stroke="#666666" points="1889,-362.5 1817,-362.5 1817,-343.5 1889,-343.5 1889,-362.5"/>
<text text-anchor="middle" x="1853" y="-350.5" font-family="Helvetica,sans-Serif" font-size="10.00">Ioss::Region</text>
</a>
</g>
</g>
<!-- Node24&#45;&gt;Node2 -->
<g id="edge24" class="edge">
<title>Node24&#45;&gt;Node2</title>
<path fill="none" stroke="#9a32cd" stroke-dasharray="5,2" d="M1806.57,-351.32C1739.25,-348.84 1613.68,-344.2 1546.02,-341.7"/>
<polygon fill="#9a32cd" stroke="#9a32cd" points="1806.74,-354.83 1816.86,-351.7 1806.99,-347.84 1806.74,-354.83"/>
<text text-anchor="middle" x="1727" y="-353" font-family="Helvetica,sans-Serif" font-size="10.00"> region_</text>
</g>
<!-- Node25&#45;&gt;Node24 -->
<g id="edge25" class="edge">
<title>Node25&#45;&gt;Node24</title>
<path fill="none" stroke="#63b8ff" d="M1769.77,-377.54C1786.08,-372.67 1804.49,-367.18 1819.74,-362.62"/>
<polygon fill="#63b8ff" stroke="#63b8ff" points="1768.51,-374.26 1759.93,-380.47 1770.52,-380.97 1768.51,-374.26"/>
</g>
<!-- Node26 -->
<g id="node26" class="node">
<title>Node26</title>
<g id="a_node26"><a xlink:href="classIoss_1_1FieldManager.html" target="_top" xlink:title="A collection of Ioss::Field objects.">
<polygon fill="white" stroke="#666666" points="1426,-466.5 1326,-466.5 1326,-447.5 1426,-447.5 1426,-466.5"/>
<text text-anchor="middle" x="1376" y="-454.5" font-family="Helvetica,sans-Serif" font-size="10.00">Ioss::FieldManager</text>
</a>
</g>
</g>
<!-- Node26&#45;&gt;Node25 -->
<g id="edge27" class="edge">
<title>Node26&#45;&gt;Node25</title>
<path fill="none" stroke="#9a32cd" stroke-dasharray="5,2" d="M1436.41,-450.94C1493.3,-444.41 1581.3,-432.41 1656,-414 1671.47,-410.19 1688.37,-404.44 1701.7,-399.52"/>
<polygon fill="#9a32cd" stroke="#9a32cd" points="1435.7,-447.5 1426.15,-452.09 1436.48,-454.45 1435.7,-447.5"/>
<text text-anchor="middle" x="1499" y="-453" font-family="Helvetica,sans-Serif" font-size="10.00"> fields</text>
</g>
<!-- Node27 -->
<g id="node27" class="node">
<title>Node27</title>
<g id="a_node27"><a xlink:href="classtsl_1_1robin__map.html" target="_top" xlink:title=" ">
<polygon fill="white" stroke="#666666" points="1051,-501 950,-501 950,-471 1051,-471 1051,-501"/>
<text text-anchor="start" x="958" y="-489" font-family="Helvetica,sans-Serif" font-size="10.00">tsl::robin_map&lt; std</text>
<text text-anchor="middle" x="1000.5" y="-478" font-family="Helvetica,sans-Serif" font-size="10.00">::string, Field &gt;</text>
</a>
</g>
</g>
<!-- Node27&#45;&gt;Node26 -->
<g id="edge28" class="edge">
<title>Node27&#45;&gt;Node26</title>
<path fill="none" stroke="#9a32cd" stroke-dasharray="5,2" d="M1061.1,-481.37C1134.44,-475.68 1257.58,-466.12 1325.79,-460.82"/>
<polygon fill="#9a32cd" stroke="#9a32cd" points="1060.8,-477.89 1051.1,-482.15 1061.34,-484.86 1060.8,-477.89"/>
<text text-anchor="middle" x="1123.5" y="-483" font-family="Helvetica,sans-Serif" font-size="10.00"> fields</text>
</g>
<!-- Node28&#45;&gt;Node27 -->
<g id="edge29" class="edge">
<title>Node28&#45;&gt;Node27</title>
<path fill="none" stroke="#9a32cd" stroke-dasharray="5,2" d="M895.16,-504.67C914.44,-501.22 933.52,-497.8 949.99,-494.86"/>
<polygon fill="#9a32cd" stroke="#9a32cd" points="894.3,-501.26 885.07,-506.47 895.53,-508.16 894.3,-501.26"/>
<text text-anchor="middle" x="915.5" y="-506" font-family="Helvetica,sans-Serif" font-size="10.00"> m_ht</text>
</g>
<!-- Node29 -->
<g id="node29" class="node">
<title>Node29</title>
<g id="a_node29"><a xlink:href="classIogn_1_1GeneratedMesh.html" target="_top" xlink:title=" ">
<polygon fill="white" stroke="#666666" points="1554,-299.5 1444,-299.5 1444,-280.5 1554,-280.5 1554,-299.5"/>
<text text-anchor="middle" x="1499" y="-287.5" font-family="Helvetica,sans-Serif" font-size="10.00">Iogn::GeneratedMesh</text>
</a>
</g>
</g>
<!-- Node29&#45;&gt;Node1 -->
<g id="edge36" class="edge">
<title>Node29&#45;&gt;Node1</title>
<path fill="none" stroke="#9a32cd" stroke-dasharray="5,2" d="M1564.27,-290.3C1592.42,-290.46 1625.85,-290.69 1656,-291 1663.66,-291.08 1671.78,-291.18 1679.69,-291.29"/>
<polygon fill="#9a32cd" stroke="#9a32cd" points="1564.17,-286.8 1554.15,-290.24 1564.13,-293.8 1564.17,-286.8"/>
<text text-anchor="middle" x="1614" y="-294" font-family="Helvetica,sans-Serif" font-size="10.00"> m_generatedMesh</text>
</g>
</g>
</svg>
        <g id="navigator" transform="translate(0 0)" fill="#404254">
                <rect fill="#f2f5e9" fill-opacity="0.5" stroke="#606060" stroke-width=".5" x="0" y="0" width="60" height="60"/>
                <use id="zoomplus" xlink:href="#zoomPlus" x="17" y="9" onmousedown="handleZoom(evt,'in')"/>
                <use id="zoomminus" xlink:href="#zoomMin" x="42" y="9" onmousedown="handleZoom(evt,'out')"/>
                <use id="reset" xlink:href="#resetDef" x="30" y="36" onmousedown="handleReset()"/>
                <g id="arrowUp" xlink:href="#dirArrow" transform="translate(30 24)" onmousedown="handlePan(0,-1)">
                  <use xlink:href="#rim" fill="#404040">
                        <set attributeName="fill" to="#808080" begin="arrowUp.mouseover" end="arrowUp.mouseout"/>
                  </use>
                  <path fill="none" stroke="white" stroke-width="1.5" d="M0,-3.0v7 M-2.5,-0.5L0,-3.0L2.5,-0.5"/>
                </g>
                <g id="arrowRight" xlink:href="#dirArrow" transform="rotate(90) translate(36 -43)" onmousedown="handlePan(1,0)">
                  <use xlink:href="#rim" fill="#404040">
                        <set attributeName="fill" to="#808080" begin="arrowRight.mouseover" end="arrowRight.mouseout"/>
                  </use>
                  <path fill="none" stroke="white" stroke-width="1.5" d="M0,-3.0v7 M-2.5,-0.5L0,-3.0L2.5,-0.5"/>
                </g>
                <g id="arrowDown" xlink:href="#dirArrow" transform="rotate(180) translate(-30 -48)" onmousedown="handlePan(0,1)">
                  <use xlink:href="#rim" fill="#404040">
                        <set attributeName="fill" to="#808080" begin="arrowDown.mouseover" end="arrowDown.mouseout"/>
                  </use>
                  <path fill="none" stroke="white" stroke-width="1.5" d="M0,-3.0v7 M-2.5,-0.5L0,-3.0L2.5,-0.5"/>
                </g>
                <g id="arrowLeft" xlink:href="#dirArrow" transform="rotate(270) translate(-36 17)" onmousedown="handlePan(-1,0)">
                  <use xlink:href="#rim" fill="#404040">
                        <set attributeName="fill" to="#808080" begin="arrowLeft.mouseover" end="arrowLeft.mouseout"/>
                  </use>
                  <path fill="none" stroke="white" stroke-width="1.5" d="M0,-3.0v7 M-2.5,-0.5L0,-3.0L2.5,-0.5"/>
                </g>
        </g>
        <svg viewBox="0 0 15 15" width="100%" height="30px" preserveAspectRatio="xMaxYMin meet">
         <g id="arrow_out" transform="scale(0.3 0.3)">
          <a xlink:href="classIogn_1_1DatabaseIO__coll__graph_org.svg" target="_base">
           <rect id="button" ry="5" rx="5" y="6" x="6" height="38" width="38"
                fill="#f2f5e9" fill-opacity="0.5" stroke="#606060" stroke-width="1.0"/>
           <path id="arrow"
             d="M 11.500037,31.436501 C 11.940474,20.09759 22.043105,11.32322 32.158766,21.979434 L 37.068811,17.246167 C 37.068811,17.246167 37.088388,32 37.088388,32 L 22.160133,31.978069 C 22.160133,31.978069 26.997745,27.140456 26.997745,27.140456 C 18.528582,18.264221 13.291696,25.230495 11.500037,31.436501 z"
             style="fill:#404040;"/>
          </a>
         </g>
        </svg>
</svg>
