<?xml version="1.0" encoding="UTF-8" standalone="no"?>
<!DOCTYPE svg PUBLIC "-//W3C//DTD SVG 1.1//EN"
 "http://www.w3.org/Graphics/SVG/1.1/DTD/svg11.dtd">
<!-- Generated by graphviz version 3.0.0 (20220226.1711)
 -->
<!-- Title: Iovs_cgns::DatabaseIO Pages: 1 -->
<svg width="1716pt" height="266pt"
 viewBox="0.00 0.00 1716.00 265.50" xmlns="http://www.w3.org/2000/svg" xmlns:xlink="http://www.w3.org/1999/xlink">
<g id="graph0" class="graph" transform="scale(1 1) rotate(0) translate(4 261.5)">
<title>Iovs_cgns::DatabaseIO</title>
<polygon fill="white" stroke="transparent" points="-4,4 -4,-261.5 1712,-261.5 1712,4 -4,4"/>
<!-- Node1 -->
<g id="node1" class="node">
<title>Node1</title>
<g id="a_node1"><a xlink:title=" ">
<polygon fill="#bfbfbf" stroke="black" points="1479,-118 1479,-137 1599,-137 1599,-118 1479,-118"/>
<text text-anchor="middle" x="1539" y="-125" font-family="Helvetica,sans-Serif" font-size="10.00">Iovs_cgns::DatabaseIO</text>
</a>
</g>
</g>
<!-- Node2 -->
<g id="node2" class="node">
<title>Node2</title>
<g id="a_node2"><a xlink:href="classIoss_1_1DatabaseIO.html" target="_top" xlink:title="An input or output Database.">
<polygon fill="white" stroke="black" points="1297,-132 1297,-151 1391,-151 1391,-132 1297,-132"/>
<text text-anchor="middle" x="1344" y="-139" font-family="Helvetica,sans-Serif" font-size="10.00">Ioss::DatabaseIO</text>
</a>
</g>
</g>
<!-- Node2&#45;&gt;Node1 -->
<g id="edge1" class="edge">
<title>Node2&#45;&gt;Node1</title>
<path fill="none" stroke="midnightblue" d="M1401.4,-137.41C1425.78,-135.64 1454.31,-133.57 1478.98,-131.78"/>
<polygon fill="midnightblue" stroke="midnightblue" points="1400.95,-133.93 1391.23,-138.15 1401.46,-140.91 1400.95,-133.93"/>
</g>
<!-- Node16 -->
<g id="node16" class="node">
<title>Node16</title>
<g id="a_node16"><a xlink:href="classIoss_1_1GroupingEntity.html" target="_top" xlink:title="Base class for all &#39;grouping&#39; entities. The following derived classes are typical:">
<polygon fill="white" stroke="black" points="1486,-75 1486,-94 1592,-94 1592,-75 1486,-75"/>
<text text-anchor="middle" x="1539" y="-82" font-family="Helvetica,sans-Serif" font-size="10.00">Ioss::GroupingEntity</text>
</a>
</g>
</g>
<!-- Node2&#45;&gt;Node16 -->
<g id="edge18" class="edge">
<title>Node2&#45;&gt;Node16</title>
<path fill="none" stroke="#9a32cd" stroke-dasharray="5,2" d="M1381.19,-128.58C1391.13,-125.17 1401.95,-121.58 1412,-118.5 1441.36,-109.51 1474.94,-100.51 1500.04,-94.03"/>
<polygon fill="#9a32cd" stroke="#9a32cd" points="1379.9,-125.32 1371.6,-131.91 1382.2,-131.94 1379.9,-125.32"/>
<text text-anchor="middle" x="1436.5" y="-121.5" font-family="Helvetica,sans-Serif" font-size="10.00"> database_</text>
</g>
<!-- Node3 -->
<g id="node3" class="node">
<title>Node3</title>
<g id="a_node3"><a xlink:href="classIoss_1_1PropertyManager.html" target="_top" xlink:title="A collection of Ioss::Property objects.">
<polygon fill="white" stroke="black" points="1042,-80 1042,-99 1158,-99 1158,-80 1042,-80"/>
<text text-anchor="middle" x="1100" y="-87" font-family="Helvetica,sans-Serif" font-size="10.00">Ioss::PropertyManager</text>
</a>
</g>
</g>
<!-- Node3&#45;&gt;Node2 -->
<g id="edge2" class="edge">
<title>Node3&#45;&gt;Node2</title>
<path fill="none" stroke="#9a32cd" stroke-dasharray="5,2" d="M1156.59,-101.08C1191,-108.29 1236.09,-117.81 1276,-126.5 1284.04,-128.25 1292.61,-130.15 1300.84,-131.98"/>
<polygon fill="#9a32cd" stroke="#9a32cd" points="1157.23,-97.63 1146.72,-99.01 1155.79,-104.49 1157.23,-97.63"/>
<text text-anchor="middle" x="1226" y="-129.5" font-family="Helvetica,sans-Serif" font-size="10.00"> properties</text>
</g>
<!-- Node3&#45;&gt;Node16 -->
<g id="edge16" class="edge">
<title>Node3&#45;&gt;Node16</title>
<path fill="none" stroke="#9a32cd" stroke-dasharray="5,2" d="M1168.21,-88.73C1255.69,-87.73 1406.7,-86 1485.97,-85.1"/>
<polygon fill="#9a32cd" stroke="#9a32cd" points="1168.09,-85.23 1158.13,-88.85 1168.17,-92.23 1168.09,-85.23"/>
<text text-anchor="middle" x="1344" y="-90.5" font-family="Helvetica,sans-Serif" font-size="10.00"> properties</text>
</g>
<!-- Node4 -->
<g id="node4" class="node">
<title>Node4</title>
<g id="a_node4"><a xlink:href="classIoss_1_1ElementTopology.html" target="_top" xlink:title="Represents an element topology.">
<polygon fill="white" stroke="black" points="1042,-199 1042,-218 1158,-218 1158,-199 1042,-199"/>
<text text-anchor="middle" x="1100" y="-206" font-family="Helvetica,sans-Serif" font-size="10.00">Ioss::ElementTopology</text>
</a>
</g>
</g>
<!-- Node4&#45;&gt;Node2 -->
<g id="edge3" class="edge">
<title>Node4&#45;&gt;Node2</title>
<path fill="none" stroke="#9a32cd" stroke-dasharray="5,2" d="M1168.25,-207.33C1201.54,-204.95 1241.83,-199.3 1276,-186.5 1297.78,-178.34 1319.49,-161.84 1332.06,-151.25"/>
<polygon fill="#9a32cd" stroke="#9a32cd" points="1167.91,-203.84 1158.15,-207.97 1168.36,-210.83 1167.91,-203.84"/>
<text text-anchor="middle" x="1226" y="-209.5" font-family="Helvetica,sans-Serif" font-size="10.00"> commonSideTopology</text>
</g>
<!-- Node5 -->
<g id="node5" class="node">
<title>Node5</title>
<g id="a_node5"><a xlink:href="classIoss_1_1Map.html" target="_top" xlink:title=" ">
<polygon fill="white" stroke="black" points="1070,-132 1070,-151 1130,-151 1130,-132 1070,-132"/>
<text text-anchor="middle" x="1100" y="-139" font-family="Helvetica,sans-Serif" font-size="10.00">Ioss::Map</text>
</a>
</g>
</g>
<!-- Node5&#45;&gt;Node2 -->
<g id="edge4" class="edge">
<title>Node5&#45;&gt;Node2</title>
<path fill="none" stroke="#9a32cd" stroke-dasharray="5,2" d="M1140.22,-141.5C1182.98,-141.5 1251.37,-141.5 1296.73,-141.5"/>
<polygon fill="#9a32cd" stroke="#9a32cd" points="1140.19,-138 1130.19,-141.5 1140.19,-145 1140.19,-138"/>
<text text-anchor="middle" x="1226" y="-177.5" font-family="Helvetica,sans-Serif" font-size="10.00"> edgeMap</text>
<text text-anchor="middle" x="1226" y="-166.5" font-family="Helvetica,sans-Serif" font-size="10.00">elemMap</text>
<text text-anchor="middle" x="1226" y="-155.5" font-family="Helvetica,sans-Serif" font-size="10.00">faceMap</text>
<text text-anchor="middle" x="1226" y="-144.5" font-family="Helvetica,sans-Serif" font-size="10.00">nodeMap</text>
</g>
<!-- Node6 -->
<g id="node6" class="node">
<title>Node6</title>
<g id="a_node6"><a xlink:href="classtsl_1_1bhopscotch__map.html" target="_top" xlink:title=" ">
<polygon fill="white" stroke="black" points="850,-126.5 850,-156.5 957,-156.5 957,-126.5 850,-126.5"/>
<text text-anchor="start" x="858" y="-144.5" font-family="Helvetica,sans-Serif" font-size="10.00">tsl::bhopscotch_map</text>
<text text-anchor="middle" x="903.5" y="-133.5" font-family="Helvetica,sans-Serif" font-size="10.00">&lt; int64_t, int64_t &gt;</text>
</a>
</g>
</g>
<!-- Node6&#45;&gt;Node5 -->
<g id="edge5" class="edge">
<title>Node6&#45;&gt;Node5</title>
<path fill="none" stroke="#9a32cd" stroke-dasharray="5,2" d="M967.58,-141.5C1001.98,-141.5 1042.92,-141.5 1069.86,-141.5"/>
<polygon fill="#9a32cd" stroke="#9a32cd" points="967.13,-138 957.13,-141.5 967.13,-145 967.13,-138"/>
<text text-anchor="middle" x="999.5" y="-144.5" font-family="Helvetica,sans-Serif" font-size="10.00"> m_reverse</text>
</g>
<!-- Node7 -->
<g id="node7" class="node">
<title>Node7</title>
<g id="a_node7"><a xlink:href="classtsl_1_1detail__hopscotch__hash_1_1hopscotch__hash.html" target="_top" xlink:title=" ">
<polygon fill="white" stroke="black" points="624,-77 624,-206 789,-206 789,-77 624,-77"/>
<text text-anchor="start" x="632" y="-194" font-family="Helvetica,sans-Serif" font-size="10.00">tsl::detail_hopscotch</text>
<text text-anchor="start" x="632" y="-183" font-family="Helvetica,sans-Serif" font-size="10.00">_hash::hopscotch_hash</text>
<text text-anchor="start" x="632" y="-172" font-family="Helvetica,sans-Serif" font-size="10.00">&lt; std::pair&lt; const int64</text>
<text text-anchor="start" x="632" y="-161" font-family="Helvetica,sans-Serif" font-size="10.00">_t, int64_t &gt;, KeySelect,</text>
<text text-anchor="start" x="632" y="-150" font-family="Helvetica,sans-Serif" font-size="10.00"> ValueSelect, std::hash&lt;</text>
<text text-anchor="start" x="632" y="-139" font-family="Helvetica,sans-Serif" font-size="10.00"> int64_t &gt;, std::equal_to</text>
<text text-anchor="start" x="632" y="-128" font-family="Helvetica,sans-Serif" font-size="10.00">&lt; int64_t &gt;, std::allocator</text>
<text text-anchor="start" x="632" y="-117" font-family="Helvetica,sans-Serif" font-size="10.00">&lt; std::pair&lt; const int64_t,</text>
<text text-anchor="start" x="632" y="-106" font-family="Helvetica,sans-Serif" font-size="10.00"> int64_t &gt; &gt;, 62, false, tsl</text>
<text text-anchor="start" x="632" y="-95" font-family="Helvetica,sans-Serif" font-size="10.00">::hh::power_of_two_growth_policy</text>
<text text-anchor="middle" x="706.5" y="-84" font-family="Helvetica,sans-Serif" font-size="10.00">&lt; 2 &gt;, overflow_container_type &gt;</text>
</a>
</g>
</g>
<!-- Node7&#45;&gt;Node6 -->
<g id="edge6" class="edge">
<title>Node7&#45;&gt;Node6</title>
<path fill="none" stroke="#9a32cd" stroke-dasharray="5,2" d="M799.25,-141.5C816.62,-141.5 834.23,-141.5 849.87,-141.5"/>
<polygon fill="#9a32cd" stroke="#9a32cd" points="799.07,-138 789.07,-141.5 799.07,-145 799.07,-138"/>
<text text-anchor="middle" x="819.5" y="-144.5" font-family="Helvetica,sans-Serif" font-size="10.00"> m_ht</text>
</g>
<!-- Node8 -->
<g id="node8" class="node">
<title>Node8</title>
<g id="a_node8"><a xlink:title=" ">
<polygon fill="white" stroke="black" points="404.5,-192 404.5,-211 508.5,-211 508.5,-192 404.5,-192"/>
<text text-anchor="middle" x="456.5" y="-199" font-family="Helvetica,sans-Serif" font-size="10.00">std::hash&lt; int64_t &gt;</text>
</a>
</g>
</g>
<!-- Node8&#45;&gt;Node7 -->
<g id="edge7" class="edge">
<title>Node8&#45;&gt;Node7</title>
<path fill="none" stroke="#8b1a1a" d="M508.62,-189.65C537.28,-182.95 573.65,-174.37 606,-166.5 611.8,-165.09 617.78,-163.62 623.8,-162.13"/>
<polygon fill="#8b1a1a" stroke="#8b1a1a" points="507.77,-186.25 498.83,-191.93 509.36,-193.07 507.77,-186.25"/>
</g>
<!-- Node9 -->
<g id="node9" class="node">
<title>Node9</title>
<g id="a_node9"><a xlink:title=" ">
<polygon fill="white" stroke="black" points="396.5,-154 396.5,-173 516.5,-173 516.5,-154 396.5,-154"/>
<text text-anchor="middle" x="456.5" y="-161" font-family="Helvetica,sans-Serif" font-size="10.00">std::equal_to&lt; int64_t &gt;</text>
</a>
</g>
</g>
<!-- Node9&#45;&gt;Node7 -->
<g id="edge8" class="edge">
<title>Node9&#45;&gt;Node7</title>
<path fill="none" stroke="#8b1a1a" d="M526.6,-157.37C556.79,-154.69 592.41,-151.53 623.89,-148.74"/>
<polygon fill="#8b1a1a" stroke="#8b1a1a" points="526.24,-153.89 516.59,-158.26 526.86,-160.86 526.24,-153.89"/>
</g>
<!-- Node10 -->
<g id="node10" class="node">
<title>Node10</title>
<g id="a_node10"><a xlink:href="classtsl_1_1hh_1_1power__of__two__growth__policy.html" target="_top" xlink:title=" ">
<polygon fill="white" stroke="black" points="401.5,-104.5 401.5,-134.5 511.5,-134.5 511.5,-104.5 401.5,-104.5"/>
<text text-anchor="start" x="409.5" y="-122.5" font-family="Helvetica,sans-Serif" font-size="10.00">tsl::hh::power_of_two</text>
<text text-anchor="middle" x="456.5" y="-111.5" font-family="Helvetica,sans-Serif" font-size="10.00">_growth_policy&lt; 2 &gt;</text>
</a>
</g>
</g>
<!-- Node10&#45;&gt;Node7 -->
<g id="edge9" class="edge">
<title>Node10&#45;&gt;Node7</title>
<path fill="none" stroke="#8b1a1a" d="M521.89,-125.21C552.96,-127.97 590.59,-131.31 623.67,-134.24"/>
<polygon fill="#8b1a1a" stroke="#8b1a1a" points="521.89,-121.7 511.62,-124.3 521.27,-128.67 521.89,-121.7"/>
</g>
<!-- Node11 -->
<g id="node11" class="node">
<title>Node11</title>
<g id="a_node11"><a xlink:href="classtsl_1_1detail__hopscotch__hash_1_1hopscotch__bucket.html" target="_top" xlink:title=" ">
<polygon fill="white" stroke="black" points="377,-33.5 377,-85.5 536,-85.5 536,-33.5 377,-33.5"/>
<text text-anchor="start" x="385" y="-73.5" font-family="Helvetica,sans-Serif" font-size="10.00">tsl::detail_hopscotch</text>
<text text-anchor="start" x="385" y="-62.5" font-family="Helvetica,sans-Serif" font-size="10.00">_hash::hopscotch_bucket</text>
<text text-anchor="start" x="385" y="-51.5" font-family="Helvetica,sans-Serif" font-size="10.00">&lt; ValueType, NeighborhoodSize,</text>
<text text-anchor="middle" x="456.5" y="-40.5" font-family="Helvetica,sans-Serif" font-size="10.00"> StoreHash &gt;</text>
</a>
</g>
</g>
<!-- Node11&#45;&gt;Node7 -->
<g id="edge10" class="edge">
<title>Node11&#45;&gt;Node7</title>
<path fill="none" stroke="#9a32cd" stroke-dasharray="5,2" d="M545.93,-88.74C571.34,-97.14 598.93,-106.26 623.91,-114.52"/>
<polygon fill="#9a32cd" stroke="#9a32cd" points="546.9,-85.37 536.31,-85.56 544.71,-92.02 546.9,-85.37"/>
<text text-anchor="middle" x="580" y="-111.5" font-family="Helvetica,sans-Serif" font-size="10.00"> m_buckets</text>
</g>
<!-- Node12 -->
<g id="node12" class="node">
<title>Node12</title>
<g id="a_node12"><a xlink:href="classtsl_1_1detail__hopscotch__hash_1_1hopscotch__bucket__hash.html" target="_top" xlink:title=" ">
<polygon fill="white" stroke="black" points="56,-72 56,-113 184,-113 184,-72 56,-72"/>
<text text-anchor="start" x="64" y="-101" font-family="Helvetica,sans-Serif" font-size="10.00">tsl::detail_hopscotch</text>
<text text-anchor="start" x="64" y="-90" font-family="Helvetica,sans-Serif" font-size="10.00">_hash::hopscotch_bucket</text>
<text text-anchor="middle" x="120" y="-79" font-family="Helvetica,sans-Serif" font-size="10.00">_hash&lt; StoreHash &gt;</text>
</a>
</g>
</g>
<!-- Node12&#45;&gt;Node11 -->
<g id="edge11" class="edge">
<title>Node12&#45;&gt;Node11</title>
<path fill="none" stroke="midnightblue" d="M194.5,-85.25C248.46,-79.92 321.67,-72.7 376.82,-67.26"/>
<polygon fill="midnightblue" stroke="midnightblue" points="193.92,-81.79 184.31,-86.25 194.61,-88.76 193.92,-81.79"/>
</g>
<!-- Node13 -->
<g id="node13" class="node">
<title>Node13</title>
<g id="a_node13"><a xlink:href="classtsl_1_1detail__hopscotch__hash_1_1smallest__type__for__min__bits.html" target="_top" xlink:title=" ">
<polygon fill="white" stroke="black" points="0,-0.5 0,-52.5 240,-52.5 240,-0.5 0,-0.5"/>
<text text-anchor="start" x="8" y="-40.5" font-family="Helvetica,sans-Serif" font-size="10.00">tsl::detail_hopscotch</text>
<text text-anchor="start" x="8" y="-29.5" font-family="Helvetica,sans-Serif" font-size="10.00">_hash::smallest_type</text>
<text text-anchor="start" x="8" y="-18.5" font-family="Helvetica,sans-Serif" font-size="10.00">_for_min_bits&lt; NeighborhoodSize</text>
<text text-anchor="middle" x="120" y="-7.5" font-family="Helvetica,sans-Serif" font-size="10.00">+NB_RESERVED_BITS_IN_NEIGHBORHOOD &gt;</text>
</a>
</g>
</g>
<!-- Node13&#45;&gt;Node11 -->
<g id="edge12" class="edge">
<title>Node13&#45;&gt;Node11</title>
<path fill="none" stroke="#9a32cd" stroke-dasharray="5,2" d="M250.53,-39.28C293.2,-43.49 339.32,-48.04 376.99,-51.75"/>
<polygon fill="#9a32cd" stroke="#9a32cd" points="250.64,-35.77 240.35,-38.27 249.95,-42.74 250.64,-35.77"/>
<text text-anchor="middle" x="308.5" y="-53.5" font-family="Helvetica,sans-Serif" font-size="10.00"> m_neighborhood_infos</text>
</g>
<!-- Node14 -->
<g id="node14" class="node">
<title>Node14</title>
<g id="a_node14"><a xlink:href="classIoss_1_1ParallelUtils.html" target="_top" xlink:title=" ">
<polygon fill="white" stroke="black" points="1053,-237 1053,-256 1147,-256 1147,-237 1053,-237"/>
<text text-anchor="middle" x="1100" y="-244" font-family="Helvetica,sans-Serif" font-size="10.00">Ioss::ParallelUtils</text>
</a>
</g>
</g>
<!-- Node14&#45;&gt;Node2 -->
<g id="edge13" class="edge">
<title>Node14&#45;&gt;Node2</title>
<path fill="none" stroke="#9a32cd" stroke-dasharray="5,2" d="M1157.67,-248.51C1193.63,-247.43 1240,-241.53 1276,-221.5 1306.24,-204.68 1328.65,-168.42 1338.08,-151.1"/>
<polygon fill="#9a32cd" stroke="#9a32cd" points="1157.28,-245.01 1147.34,-248.7 1157.4,-252.01 1157.28,-245.01"/>
<text text-anchor="middle" x="1226" y="-249.5" font-family="Helvetica,sans-Serif" font-size="10.00"> util_</text>
</g>
<!-- Node15 -->
<g id="node15" class="node">
<title>Node15</title>
<g id="a_node15"><a xlink:href="classIoss_1_1Region.html" target="_top" xlink:title="A grouping entity that contains other grouping entities.">
<polygon fill="white" stroke="black" points="1636,-122 1636,-141 1708,-141 1708,-122 1636,-122"/>
<text text-anchor="middle" x="1672" y="-129" font-family="Helvetica,sans-Serif" font-size="10.00">Ioss::Region</text>
</a>
</g>
</g>
<!-- Node15&#45;&gt;Node2 -->
<g id="edge14" class="edge">
<title>Node15&#45;&gt;Node2</title>
<path fill="none" stroke="#9a32cd" stroke-dasharray="5,2" d="M1625.61,-142.27C1616.83,-143.98 1607.66,-145.51 1599,-146.5 1572.98,-149.47 1456.4,-152.14 1412,-149.5 1405.22,-149.1 1398.07,-148.47 1391.07,-147.73"/>
<polygon fill="#9a32cd" stroke="#9a32cd" points="1626.59,-145.64 1635.69,-140.21 1625.19,-138.79 1626.59,-145.64"/>
<text text-anchor="middle" x="1539" y="-154.5" font-family="Helvetica,sans-Serif" font-size="10.00"> region_</text>
</g>
<!-- Node16&#45;&gt;Node15 -->
<g id="edge15" class="edge">
<title>Node16&#45;&gt;Node15</title>
<path fill="none" stroke="midnightblue" d="M1575.97,-97.41C1597.5,-105.13 1624.4,-114.78 1644.08,-121.84"/>
<polygon fill="midnightblue" stroke="midnightblue" points="1577.1,-94.09 1566.51,-94.01 1574.74,-100.68 1577.1,-94.09"/>
</g>
<!-- Node17 -->
<g id="node17" class="node">
<title>Node17</title>
<g id="a_node17"><a xlink:href="classIoss_1_1FieldManager.html" target="_top" xlink:title="A collection of Ioss::Field objects.">
<polygon fill="white" stroke="black" points="1294,-19 1294,-38 1394,-38 1394,-19 1294,-19"/>
<text text-anchor="middle" x="1344" y="-26" font-family="Helvetica,sans-Serif" font-size="10.00">Ioss::FieldManager</text>
</a>
</g>
</g>
<!-- Node17&#45;&gt;Node16 -->
<g id="edge17" class="edge">
<title>Node17&#45;&gt;Node16</title>
<path fill="none" stroke="#9a32cd" stroke-dasharray="5,2" d="M1404.21,-36.31C1422.64,-39.52 1442.87,-43.83 1461,-49.5 1482.02,-56.07 1504.85,-66.96 1520.14,-74.85"/>
<polygon fill="#9a32cd" stroke="#9a32cd" points="1404.62,-32.84 1394.19,-34.65 1403.48,-39.74 1404.62,-32.84"/>
<text text-anchor="middle" x="1436.5" y="-52.5" font-family="Helvetica,sans-Serif" font-size="10.00"> fields</text>
</g>
</g>
</svg>
