<?xml version="1.0" encoding="UTF-8" standalone="no"?>
<!DOCTYPE svg PUBLIC "-//W3C//DTD SVG 1.1//EN"
 "http://www.w3.org/Graphics/SVG/1.1/DTD/svg11.dtd">
<!-- Generated by graphviz version 3.0.0 (20220226.1711)
 -->
<!-- Title: Ioss::DatabaseIO Pages: 1 -->
<svg width="1702pt" height="362pt"
 viewBox="0.00 0.00 1702.00 361.50" xmlns="http://www.w3.org/2000/svg" xmlns:xlink="http://www.w3.org/1999/xlink">
<g id="graph0" class="graph" transform="scale(1 1) rotate(0) translate(4 357.5)">
<title>Ioss::DatabaseIO</title>
<polygon fill="white" stroke="transparent" points="-4,4 -4,-357.5 1698,-357.5 1698,4 -4,4"/>
<!-- Node1 -->
<g id="node1" class="node">
<title>Node1</title>
<g id="a_node1"><a xlink:title="An input or output Database.">
<polygon fill="#bfbfbf" stroke="black" points="1297,-236 1297,-255 1391,-255 1391,-236 1297,-236"/>
<text text-anchor="middle" x="1344" y="-243" font-family="Helvetica,sans-Serif" font-size="10.00">Ioss::DatabaseIO</text>
</a>
</g>
</g>
<!-- Node15 -->
<g id="node15" class="node">
<title>Node15</title>
<g id="a_node15"><a xlink:href="classIoss_1_1GroupingEntity.html" target="_top" xlink:title="Base class for all &#39;grouping&#39; entities. The following derived classes are typical:">
<polygon fill="white" stroke="black" points="1479,-285 1479,-304 1585,-304 1585,-285 1479,-285"/>
<text text-anchor="middle" x="1532" y="-292" font-family="Helvetica,sans-Serif" font-size="10.00">Ioss::GroupingEntity</text>
</a>
</g>
</g>
<!-- Node1&#45;&gt;Node15 -->
<g id="edge17" class="edge">
<title>Node1&#45;&gt;Node15</title>
<path fill="none" stroke="#9a32cd" stroke-dasharray="5,2" d="M1391.31,-257.7C1423.3,-266.13 1465.24,-277.18 1494.79,-284.96"/>
<polygon fill="#9a32cd" stroke="#9a32cd" points="1391.87,-254.23 1381.3,-255.06 1390.08,-261 1391.87,-254.23"/>
<text text-anchor="middle" x="1436.5" y="-278.5" font-family="Helvetica,sans-Serif" font-size="10.00"> database_</text>
</g>
<!-- Node2 -->
<g id="node2" class="node">
<title>Node2</title>
<g id="a_node2"><a xlink:href="classIoss_1_1PropertyManager.html" target="_top" xlink:title="A collection of Ioss::Property objects.">
<polygon fill="white" stroke="black" points="1042,-285 1042,-304 1158,-304 1158,-285 1042,-285"/>
<text text-anchor="middle" x="1100" y="-292" font-family="Helvetica,sans-Serif" font-size="10.00">Ioss::PropertyManager</text>
</a>
</g>
</g>
<!-- Node2&#45;&gt;Node1 -->
<g id="edge1" class="edge">
<title>Node2&#45;&gt;Node1</title>
<path fill="none" stroke="#9a32cd" stroke-dasharray="5,2" d="M1157.81,-283C1200.08,-274.44 1257.05,-262.9 1296.6,-254.9"/>
<polygon fill="#9a32cd" stroke="#9a32cd" points="1157.05,-279.58 1147.95,-284.99 1158.44,-286.44 1157.05,-279.58"/>
<text text-anchor="middle" x="1226" y="-281.5" font-family="Helvetica,sans-Serif" font-size="10.00"> properties</text>
</g>
<!-- Node2&#45;&gt;Node15 -->
<g id="edge15" class="edge">
<title>Node2&#45;&gt;Node15</title>
<path fill="none" stroke="#9a32cd" stroke-dasharray="5,2" d="M1168.26,-294.5C1254.1,-294.5 1400.78,-294.5 1478.72,-294.5"/>
<polygon fill="#9a32cd" stroke="#9a32cd" points="1168.1,-291 1158.1,-294.5 1168.1,-298 1168.1,-291"/>
<text text-anchor="middle" x="1344" y="-297.5" font-family="Helvetica,sans-Serif" font-size="10.00"> properties</text>
</g>
<!-- Node3 -->
<g id="node3" class="node">
<title>Node3</title>
<g id="a_node3"><a xlink:href="classIoss_1_1ElementTopology.html" target="_top" xlink:title="Represents an element topology.">
<polygon fill="white" stroke="black" points="1042,-198 1042,-217 1158,-217 1158,-198 1042,-198"/>
<text text-anchor="middle" x="1100" y="-205" font-family="Helvetica,sans-Serif" font-size="10.00">Ioss::ElementTopology</text>
</a>
</g>
</g>
<!-- Node3&#45;&gt;Node1 -->
<g id="edge2" class="edge">
<title>Node3&#45;&gt;Node1</title>
<path fill="none" stroke="#9a32cd" stroke-dasharray="5,2" d="M1168.65,-214.96C1201.21,-218.91 1240.74,-224.25 1276,-230.5 1284.8,-232.06 1294.2,-233.99 1303.08,-235.95"/>
<polygon fill="#9a32cd" stroke="#9a32cd" points="1168.68,-211.44 1158.34,-213.72 1167.85,-218.39 1168.68,-211.44"/>
<text text-anchor="middle" x="1226" y="-233.5" font-family="Helvetica,sans-Serif" font-size="10.00"> commonSideTopology</text>
</g>
<!-- Node4 -->
<g id="node4" class="node">
<title>Node4</title>
<g id="a_node4"><a xlink:href="classIoss_1_1Map.html" target="_top" xlink:title=" ">
<polygon fill="white" stroke="black" points="1070,-132 1070,-151 1130,-151 1130,-132 1070,-132"/>
<text text-anchor="middle" x="1100" y="-139" font-family="Helvetica,sans-Serif" font-size="10.00">Ioss::Map</text>
</a>
</g>
</g>
<!-- Node4&#45;&gt;Node1 -->
<g id="edge3" class="edge">
<title>Node4&#45;&gt;Node1</title>
<path fill="none" stroke="#9a32cd" stroke-dasharray="5,2" d="M1140.65,-139.7C1177.85,-139.73 1233.9,-144.27 1276,-167.5 1305.7,-183.89 1328.22,-218.92 1337.86,-235.89"/>
<polygon fill="#9a32cd" stroke="#9a32cd" points="1140.18,-136.21 1130.22,-139.82 1140.26,-143.21 1140.18,-136.21"/>
<text text-anchor="middle" x="1226" y="-203.5" font-family="Helvetica,sans-Serif" font-size="10.00"> edgeMap</text>
<text text-anchor="middle" x="1226" y="-192.5" font-family="Helvetica,sans-Serif" font-size="10.00">elemMap</text>
<text text-anchor="middle" x="1226" y="-181.5" font-family="Helvetica,sans-Serif" font-size="10.00">faceMap</text>
<text text-anchor="middle" x="1226" y="-170.5" font-family="Helvetica,sans-Serif" font-size="10.00">nodeMap</text>
</g>
<!-- Node5 -->
<g id="node5" class="node">
<title>Node5</title>
<g id="a_node5"><a xlink:href="classtsl_1_1bhopscotch__map.html" target="_top" xlink:title=" ">
<polygon fill="white" stroke="black" points="850,-126.5 850,-156.5 957,-156.5 957,-126.5 850,-126.5"/>
<text text-anchor="start" x="858" y="-144.5" font-family="Helvetica,sans-Serif" font-size="10.00">tsl::bhopscotch_map</text>
<text text-anchor="middle" x="903.5" y="-133.5" font-family="Helvetica,sans-Serif" font-size="10.00">&lt; int64_t, int64_t &gt;</text>
</a>
</g>
</g>
<!-- Node5&#45;&gt;Node4 -->
<g id="edge4" class="edge">
<title>Node5&#45;&gt;Node4</title>
<path fill="none" stroke="#9a32cd" stroke-dasharray="5,2" d="M967.58,-141.5C1001.98,-141.5 1042.92,-141.5 1069.86,-141.5"/>
<polygon fill="#9a32cd" stroke="#9a32cd" points="967.13,-138 957.13,-141.5 967.13,-145 967.13,-138"/>
<text text-anchor="middle" x="999.5" y="-144.5" font-family="Helvetica,sans-Serif" font-size="10.00"> m_reverse</text>
</g>
<!-- Node6 -->
<g id="node6" class="node">
<title>Node6</title>
<g id="a_node6"><a xlink:href="classtsl_1_1detail__hopscotch__hash_1_1hopscotch__hash.html" target="_top" xlink:title=" ">
<polygon fill="white" stroke="black" points="624,-77 624,-206 789,-206 789,-77 624,-77"/>
<text text-anchor="start" x="632" y="-194" font-family="Helvetica,sans-Serif" font-size="10.00">tsl::detail_hopscotch</text>
<text text-anchor="start" x="632" y="-183" font-family="Helvetica,sans-Serif" font-size="10.00">_hash::hopscotch_hash</text>
<text text-anchor="start" x="632" y="-172" font-family="Helvetica,sans-Serif" font-size="10.00">&lt; std::pair&lt; const int64</text>
<text text-anchor="start" x="632" y="-161" font-family="Helvetica,sans-Serif" font-size="10.00">_t, int64_t &gt;, KeySelect,</text>
<text text-anchor="start" x="632" y="-150" font-family="Helvetica,sans-Serif" font-size="10.00"> ValueSelect, std::hash&lt;</text>
<text text-anchor="start" x="632" y="-139" font-family="Helvetica,sans-Serif" font-size="10.00"> int64_t &gt;, std::equal_to</text>
<text text-anchor="start" x="632" y="-128" font-family="Helvetica,sans-Serif" font-size="10.00">&lt; int64_t &gt;, std::allocator</text>
<text text-anchor="start" x="632" y="-117" font-family="Helvetica,sans-Serif" font-size="10.00">&lt; std::pair&lt; const int64_t,</text>
<text text-anchor="start" x="632" y="-106" font-family="Helvetica,sans-Serif" font-size="10.00"> int64_t &gt; &gt;, 62, false, tsl</text>
<text text-anchor="start" x="632" y="-95" font-family="Helvetica,sans-Serif" font-size="10.00">::hh::power_of_two_growth_policy</text>
<text text-anchor="middle" x="706.5" y="-84" font-family="Helvetica,sans-Serif" font-size="10.00">&lt; 2 &gt;, overflow_container_type &gt;</text>
</a>
</g>
</g>
<!-- Node6&#45;&gt;Node5 -->
<g id="edge5" class="edge">
<title>Node6&#45;&gt;Node5</title>
<path fill="none" stroke="#9a32cd" stroke-dasharray="5,2" d="M799.25,-141.5C816.62,-141.5 834.23,-141.5 849.87,-141.5"/>
<polygon fill="#9a32cd" stroke="#9a32cd" points="799.07,-138 789.07,-141.5 799.07,-145 799.07,-138"/>
<text text-anchor="middle" x="819.5" y="-144.5" font-family="Helvetica,sans-Serif" font-size="10.00"> m_ht</text>
</g>
<!-- Node7 -->
<g id="node7" class="node">
<title>Node7</title>
<g id="a_node7"><a xlink:title=" ">
<polygon fill="white" stroke="black" points="404.5,-192 404.5,-211 508.5,-211 508.5,-192 404.5,-192"/>
<text text-anchor="middle" x="456.5" y="-199" font-family="Helvetica,sans-Serif" font-size="10.00">std::hash&lt; int64_t &gt;</text>
</a>
</g>
</g>
<!-- Node7&#45;&gt;Node6 -->
<g id="edge6" class="edge">
<title>Node7&#45;&gt;Node6</title>
<path fill="none" stroke="#8b1a1a" d="M508.62,-189.65C537.28,-182.95 573.65,-174.37 606,-166.5 611.8,-165.09 617.78,-163.62 623.8,-162.13"/>
<polygon fill="#8b1a1a" stroke="#8b1a1a" points="507.77,-186.25 498.83,-191.93 509.36,-193.07 507.77,-186.25"/>
</g>
<!-- Node8 -->
<g id="node8" class="node">
<title>Node8</title>
<g id="a_node8"><a xlink:title=" ">
<polygon fill="white" stroke="black" points="396.5,-154 396.5,-173 516.5,-173 516.5,-154 396.5,-154"/>
<text text-anchor="middle" x="456.5" y="-161" font-family="Helvetica,sans-Serif" font-size="10.00">std::equal_to&lt; int64_t &gt;</text>
</a>
</g>
</g>
<!-- Node8&#45;&gt;Node6 -->
<g id="edge7" class="edge">
<title>Node8&#45;&gt;Node6</title>
<path fill="none" stroke="#8b1a1a" d="M526.6,-157.37C556.79,-154.69 592.41,-151.53 623.89,-148.74"/>
<polygon fill="#8b1a1a" stroke="#8b1a1a" points="526.24,-153.89 516.59,-158.26 526.86,-160.86 526.24,-153.89"/>
</g>
<!-- Node9 -->
<g id="node9" class="node">
<title>Node9</title>
<g id="a_node9"><a xlink:href="classtsl_1_1hh_1_1power__of__two__growth__policy.html" target="_top" xlink:title=" ">
<polygon fill="white" stroke="black" points="401.5,-104.5 401.5,-134.5 511.5,-134.5 511.5,-104.5 401.5,-104.5"/>
<text text-anchor="start" x="409.5" y="-122.5" font-family="Helvetica,sans-Serif" font-size="10.00">tsl::hh::power_of_two</text>
<text text-anchor="middle" x="456.5" y="-111.5" font-family="Helvetica,sans-Serif" font-size="10.00">_growth_policy&lt; 2 &gt;</text>
</a>
</g>
</g>
<!-- Node9&#45;&gt;Node6 -->
<g id="edge8" class="edge">
<title>Node9&#45;&gt;Node6</title>
<path fill="none" stroke="#8b1a1a" d="M521.89,-125.21C552.96,-127.97 590.59,-131.31 623.67,-134.24"/>
<polygon fill="#8b1a1a" stroke="#8b1a1a" points="521.89,-121.7 511.62,-124.3 521.27,-128.67 521.89,-121.7"/>
</g>
<!-- Node10 -->
<g id="node10" class="node">
<title>Node10</title>
<g id="a_node10"><a xlink:href="classtsl_1_1detail__hopscotch__hash_1_1hopscotch__bucket.html" target="_top" xlink:title=" ">
<polygon fill="white" stroke="black" points="377,-33.5 377,-85.5 536,-85.5 536,-33.5 377,-33.5"/>
<text text-anchor="start" x="385" y="-73.5" font-family="Helvetica,sans-Serif" font-size="10.00">tsl::detail_hopscotch</text>
<text text-anchor="start" x="385" y="-62.5" font-family="Helvetica,sans-Serif" font-size="10.00">_hash::hopscotch_bucket</text>
<text text-anchor="start" x="385" y="-51.5" font-family="Helvetica,sans-Serif" font-size="10.00">&lt; ValueType, NeighborhoodSize,</text>
<text text-anchor="middle" x="456.5" y="-40.5" font-family="Helvetica,sans-Serif" font-size="10.00"> StoreHash &gt;</text>
</a>
</g>
</g>
<!-- Node10&#45;&gt;Node6 -->
<g id="edge9" class="edge">
<title>Node10&#45;&gt;Node6</title>
<path fill="none" stroke="#9a32cd" stroke-dasharray="5,2" d="M545.93,-88.74C571.34,-97.14 598.93,-106.26 623.91,-114.52"/>
<polygon fill="#9a32cd" stroke="#9a32cd" points="546.9,-85.37 536.31,-85.56 544.71,-92.02 546.9,-85.37"/>
<text text-anchor="middle" x="580" y="-111.5" font-family="Helvetica,sans-Serif" font-size="10.00"> m_buckets</text>
</g>
<!-- Node11 -->
<g id="node11" class="node">
<title>Node11</title>
<g id="a_node11"><a xlink:href="classtsl_1_1detail__hopscotch__hash_1_1hopscotch__bucket__hash.html" target="_top" xlink:title=" ">
<polygon fill="white" stroke="black" points="56,-72 56,-113 184,-113 184,-72 56,-72"/>
<text text-anchor="start" x="64" y="-101" font-family="Helvetica,sans-Serif" font-size="10.00">tsl::detail_hopscotch</text>
<text text-anchor="start" x="64" y="-90" font-family="Helvetica,sans-Serif" font-size="10.00">_hash::hopscotch_bucket</text>
<text text-anchor="middle" x="120" y="-79" font-family="Helvetica,sans-Serif" font-size="10.00">_hash&lt; StoreHash &gt;</text>
</a>
</g>
</g>
<!-- Node11&#45;&gt;Node10 -->
<g id="edge10" class="edge">
<title>Node11&#45;&gt;Node10</title>
<path fill="none" stroke="midnightblue" d="M194.5,-85.25C248.46,-79.92 321.67,-72.7 376.82,-67.26"/>
<polygon fill="midnightblue" stroke="midnightblue" points="193.92,-81.79 184.31,-86.25 194.61,-88.76 193.92,-81.79"/>
</g>
<!-- Node12 -->
<g id="node12" class="node">
<title>Node12</title>
<g id="a_node12"><a xlink:href="classtsl_1_1detail__hopscotch__hash_1_1smallest__type__for__min__bits.html" target="_top" xlink:title=" ">
<polygon fill="white" stroke="black" points="0,-0.5 0,-52.5 240,-52.5 240,-0.5 0,-0.5"/>
<text text-anchor="start" x="8" y="-40.5" font-family="Helvetica,sans-Serif" font-size="10.00">tsl::detail_hopscotch</text>
<text text-anchor="start" x="8" y="-29.5" font-family="Helvetica,sans-Serif" font-size="10.00">_hash::smallest_type</text>
<text text-anchor="start" x="8" y="-18.5" font-family="Helvetica,sans-Serif" font-size="10.00">_for_min_bits&lt; NeighborhoodSize</text>
<text text-anchor="middle" x="120" y="-7.5" font-family="Helvetica,sans-Serif" font-size="10.00">+NB_RESERVED_BITS_IN_NEIGHBORHOOD &gt;</text>
</a>
</g>
</g>
<!-- Node12&#45;&gt;Node10 -->
<g id="edge11" class="edge">
<title>Node12&#45;&gt;Node10</title>
<path fill="none" stroke="#9a32cd" stroke-dasharray="5,2" d="M250.53,-39.28C293.2,-43.49 339.32,-48.04 376.99,-51.75"/>
<polygon fill="#9a32cd" stroke="#9a32cd" points="250.64,-35.77 240.35,-38.27 249.95,-42.74 250.64,-35.77"/>
<text text-anchor="middle" x="308.5" y="-53.5" font-family="Helvetica,sans-Serif" font-size="10.00"> m_neighborhood_infos</text>
</g>
<!-- Node13 -->
<g id="node13" class="node">
<title>Node13</title>
<g id="a_node13"><a xlink:href="classIoss_1_1ParallelUtils.html" target="_top" xlink:title=" ">
<polygon fill="white" stroke="black" points="1053,-236 1053,-255 1147,-255 1147,-236 1053,-236"/>
<text text-anchor="middle" x="1100" y="-243" font-family="Helvetica,sans-Serif" font-size="10.00">Ioss::ParallelUtils</text>
</a>
</g>
</g>
<!-- Node13&#45;&gt;Node1 -->
<g id="edge12" class="edge">
<title>Node13&#45;&gt;Node1</title>
<path fill="none" stroke="#9a32cd" stroke-dasharray="5,2" d="M1157.24,-245.5C1199.59,-245.5 1256.95,-245.5 1296.67,-245.5"/>
<polygon fill="#9a32cd" stroke="#9a32cd" points="1157.09,-242 1147.09,-245.5 1157.09,-249 1157.09,-242"/>
<text text-anchor="middle" x="1226" y="-248.5" font-family="Helvetica,sans-Serif" font-size="10.00"> util_</text>
</g>
<!-- Node14 -->
<g id="node14" class="node">
<title>Node14</title>
<g id="a_node14"><a xlink:href="classIoss_1_1Region.html" target="_top" xlink:title="A grouping entity that contains other grouping entities.">
<polygon fill="white" stroke="black" points="1622,-248 1622,-267 1694,-267 1694,-248 1622,-248"/>
<text text-anchor="middle" x="1658" y="-255" font-family="Helvetica,sans-Serif" font-size="10.00">Ioss::Region</text>
</a>
</g>
</g>
<!-- Node14&#45;&gt;Node1 -->
<g id="edge13" class="edge">
<title>Node14&#45;&gt;Node1</title>
<path fill="none" stroke="#9a32cd" stroke-dasharray="5,2" d="M1611.78,-255.76C1552.86,-253.49 1450.36,-249.55 1391.04,-247.27"/>
<polygon fill="#9a32cd" stroke="#9a32cd" points="1611.78,-259.26 1621.91,-256.15 1612.05,-252.27 1611.78,-259.26"/>
<text text-anchor="middle" x="1532" y="-257.5" font-family="Helvetica,sans-Serif" font-size="10.00"> region_</text>
</g>
<!-- Node15&#45;&gt;Node14 -->
<g id="edge14" class="edge">
<title>Node15&#45;&gt;Node14</title>
<path fill="none" stroke="midnightblue" d="M1574.77,-282.04C1591.08,-277.17 1609.49,-271.68 1624.74,-267.12"/>
<polygon fill="midnightblue" stroke="midnightblue" points="1573.51,-278.76 1564.93,-284.97 1575.52,-285.47 1573.51,-278.76"/>
</g>
<!-- Node16 -->
<g id="node16" class="node">
<title>Node16</title>
<g id="a_node16"><a xlink:href="classIoss_1_1FieldManager.html" target="_top" xlink:title="A collection of Ioss::Field objects.">
<polygon fill="white" stroke="black" points="1294,-334 1294,-353 1394,-353 1394,-334 1294,-334"/>
<text text-anchor="middle" x="1344" y="-341" font-family="Helvetica,sans-Serif" font-size="10.00">Ioss::FieldManager</text>
</a>
</g>
</g>
<!-- Node16&#45;&gt;Node15 -->
<g id="edge16" class="edge">
<title>Node16&#45;&gt;Node15</title>
<path fill="none" stroke="#9a32cd" stroke-dasharray="5,2" d="M1404.11,-332.17C1422.45,-328.28 1442.66,-323.6 1461,-318.5 1475.98,-314.33 1492.43,-308.74 1505.63,-304.01"/>
<polygon fill="#9a32cd" stroke="#9a32cd" points="1403.21,-328.78 1394.13,-334.25 1404.64,-335.63 1403.21,-328.78"/>
<text text-anchor="middle" x="1436.5" y="-332.5" font-family="Helvetica,sans-Serif" font-size="10.00"> fields</text>
</g>
</g>
</svg>
