<?xml version="1.0" encoding="UTF-8" standalone="no"?>
<!DOCTYPE svg PUBLIC "-//W3C//DTD SVG 1.1//EN"
 "http://www.w3.org/Graphics/SVG/1.1/DTD/svg11.dtd">
<!-- Generated by graphviz version 11.0.0 (20240428.1522)
 -->
<!-- Title: Ioss::DatabaseIO Pages: 1 -->
<!--zoomable 332 -->

<svg id="main" version="1.1" xmlns="http://www.w3.org/2000/svg" xmlns:xlink="http://www.w3.org/1999/xlink" xml:space="preserve" onload="init(evt)">
<style type="text/css"><![CDATA[
.node, .edge {opacity: 0.7;}
.node.selected, .edge.selected {opacity: 1;}
.edge:hover path { stroke: red; }
.edge:hover polygon { stroke: red; fill: red; }
]]></style>

<defs>
  <circle id="rim" cx="0" cy="0" r="7"/>
  <circle id="rim2" cx="0" cy="0" r="3.5"/>
  <g id="zoomPlus">
    <use xlink:href="#rim" fill="#404040"><set attributeName="fill" to="#808080" begin="zoomplus.mouseover" end="zoomplus.mouseout"/></use>
    <path d="M-4,0h8M0,-4v8" fill="none" stroke="white" stroke-width="1.5" pointer-events="none"/>
  </g>
  <g id="zoomMin">
    <use xlink:href="#rim" fill="#404040"><set attributeName="fill" to="#808080" begin="zoomminus.mouseover" end="zoomminus.mouseout"/></use>
    <path d="M-4,0h8" fill="none" stroke="white" stroke-width="1.5" pointer-events="none"/>
  </g>
  <g id="arrowUp" transform="translate(30 24)">
    <use xlink:href="#rim"/>
    <path pointer-events="none" fill="none" stroke="white" stroke-width="1.5" d="M0,-3.0v7 M-2.5,-0.5L0,-3.0L2.5,-0.5"/>
  </g>
  <g id="arrowRight" transform="rotate(90) translate(36 -43)">
    <use xlink:href="#rim"/>
    <path pointer-events="none" fill="none" stroke="white" stroke-width="1.5" d="M0,-3.0v7 M-2.5,-0.5L0,-3.0L2.5,-0.5"/>
  </g>
  <g id="arrowDown" transform="rotate(180) translate(-30 -48)">
    <use xlink:href="#rim"/>
    <path pointer-events="none" fill="none" stroke="white" stroke-width="1.5" d="M0,-3.0v7 M-2.5,-0.5L0,-3.0L2.5,-0.5"/>
  </g>
  <g id="arrowLeft" transform="rotate(270) translate(-36 17)">
    <use xlink:href="#rim"/>
    <path pointer-events="none" fill="none" stroke="white" stroke-width="1.5" d="M0,-3.0v7 M-2.5,-0.5L0,-3.0L2.5,-0.5"/>
  </g>
  <g id="resetDef">
    <use xlink:href="#rim2" fill="#404040"><set attributeName="fill" to="#808080" begin="reset.mouseover" end="reset.mouseout"/></use>
  </g>
</defs>
<script type="application/ecmascript">
var viewWidth = 1541;
var viewHeight = 332;
var sectionId = 'dynsection-1';
</script>
<script type="application/ecmascript" xlink:href="svg.min.js"/>
<svg id="graph" class="graph">
<g id="viewport">
<title>Ioss::DatabaseIO</title>
<!-- Node1 -->
<g id="Node000001" class="node">
<title>Node1</title>
<g id="a_Node000001"><a xlink:title="An input or output Database.">
<polygon fill="#999999" stroke="#666666" points="1235.5,-123.25 1142.25,-123.25 1142.25,-104 1235.5,-104 1235.5,-123.25"/>
<text text-anchor="middle" x="1188.88" y="-109.75" font-family="Helvetica,sans-Serif" font-size="10.00">Ioss::DatabaseIO</text>
</a>
</g>
</g>
<!-- Node14 -->
<g id="Node000014" class="node">
<title>Node14</title>
<g id="a_Node000014"><a xlink:href="classIoss_1_1GroupingEntity.html" target="_top" xlink:title="Base class for all &#39;grouping&#39; entities. The following derived classes are typical:">
<polygon fill="white" stroke="#666666" points="1424.75,-172.25 1319.5,-172.25 1319.5,-153 1424.75,-153 1424.75,-172.25"/>
<text text-anchor="middle" x="1372.12" y="-158.75" font-family="Helvetica,sans-Serif" font-size="10.00">Ioss::GroupingEntity</text>
</a>
</g>
</g>
<!-- Node1&#45;&gt;Node14 -->
<g id="edge22_Node000014_Node000001" class="edge">
<title>Node1&#45;&gt;Node14</title>
<g id="a_edge22_Node000014_Node000001"><a xlink:title=" ">
<path fill="none" stroke="#9a32cd" stroke-dasharray="5,2" d="M1238.05,-126.65C1268.04,-134.76 1306.04,-145.03 1333.75,-152.52"/>
<polygon fill="#9a32cd" stroke="#9a32cd" points="1239.02,-123.29 1228.45,-124.05 1237.19,-130.04 1239.02,-123.29"/>
</a>
</g>
<text text-anchor="middle" x="1277.5" y="-144.38" font-family="Helvetica,sans-Serif" font-size="10.00" fill="grey"> database_</text>
</g>
<!-- Node2 -->
<g id="Node000002" class="node">
<title>Node2</title>
<g id="a_Node000002"><a xlink:href="classIoss_1_1PropertyManager.html" target="_top" xlink:title="A collection of Ioss::Property objects.">
<polygon fill="white" stroke="#666666" points="1006.62,-159.25 891.62,-159.25 891.62,-140 1006.62,-140 1006.62,-159.25"/>
<text text-anchor="middle" x="949.12" y="-145.75" font-family="Helvetica,sans-Serif" font-size="10.00">Ioss::PropertyManager</text>
</a>
</g>
</g>
<!-- Node2&#45;&gt;Node1 -->
<g id="edge1_Node000001_Node000002" class="edge">
<title>Node2&#45;&gt;Node1</title>
<g id="a_edge1_Node000001_Node000002"><a xlink:title=" ">
<path fill="none" stroke="#9a32cd" stroke-dasharray="5,2" d="M1018.13,-140.32C1050.33,-135.8 1089.31,-130.15 1124.25,-124.62 1130.01,-123.71 1136.05,-122.72 1142.03,-121.71"/>
<polygon fill="#9a32cd" stroke="#9a32cd" points="1017.96,-136.81 1008.54,-141.66 1018.93,-143.74 1017.96,-136.81"/>
</a>
</g>
<text text-anchor="middle" x="1074.62" y="-141.38" font-family="Helvetica,sans-Serif" font-size="10.00" fill="grey"> properties</text>
</g>
<!-- Node2&#45;&gt;Node14 -->
<g id="edge14_Node000014_Node000002" class="edge">
<title>Node2&#45;&gt;Node14</title>
<g id="a_edge14_Node000014_Node000002"><a xlink:title=" ">
<path fill="none" stroke="#9a32cd" stroke-dasharray="5,2" d="M1018.32,-154.3C1020.57,-154.42 1022.8,-154.53 1025,-154.62 1129.33,-159.31 1251.48,-161.32 1319.21,-162.13"/>
<polygon fill="#9a32cd" stroke="#9a32cd" points="1018.62,-150.82 1008.45,-153.76 1018.24,-157.81 1018.62,-150.82"/>
</a>
</g>
<text text-anchor="middle" x="1188.88" y="-162.38" font-family="Helvetica,sans-Serif" font-size="10.00" fill="grey"> properties</text>
</g>
<!-- Node3 -->
<g id="Node000003" class="node">
<title>Node3</title>
<g id="a_Node000003"><a xlink:href="classtsl_1_1robin__map.html" target="_top" xlink:title=" ">
<polygon fill="white" stroke="#666666" points="796,-163.88 696,-163.88 696,-133.38 796,-133.38 796,-163.88"/>
<text text-anchor="start" x="704" y="-150.38" font-family="Helvetica,sans-Serif" font-size="10.00">tsl::robin_map&lt; std</text>
<text text-anchor="middle" x="746" y="-139.12" font-family="Helvetica,sans-Serif" font-size="10.00">::string, Property &gt;</text>
</a>
</g>
</g>
<!-- Node3&#45;&gt;Node2 -->
<g id="edge2_Node000002_Node000003" class="edge">
<title>Node3&#45;&gt;Node2</title>
<g id="a_edge2_Node000002_Node000003"><a xlink:title=" ">
<path fill="none" stroke="#9a32cd" stroke-dasharray="5,2" d="M807.92,-148.93C834.44,-149.06 865.35,-149.21 891.38,-149.34"/>
<polygon fill="#9a32cd" stroke="#9a32cd" points="807.99,-145.43 797.97,-148.88 807.95,-152.43 807.99,-145.43"/>
</a>
</g>
<text text-anchor="middle" x="843.62" y="-150.38" font-family="Helvetica,sans-Serif" font-size="10.00" fill="grey"> m_properties</text>
</g>
<!-- Node4 -->
<g id="Node000004" class="node">
<title>Node4</title>
<g id="a_Node000004"><a xlink:href="classtsl_1_1detail__robin__hash_1_1robin__hash.html" target="_top" xlink:title=" ">
<polygon fill="white" stroke="#666666" points="635.25,-197.25 427.25,-197.25 427.25,-88 635.25,-88 635.25,-197.25"/>
<text text-anchor="start" x="435.25" y="-183.75" font-family="Helvetica,sans-Serif" font-size="10.00">tsl::detail_robin_hash</text>
<text text-anchor="start" x="435.25" y="-172.5" font-family="Helvetica,sans-Serif" font-size="10.00">::robin_hash&lt; std::pair</text>
<text text-anchor="start" x="435.25" y="-161.25" font-family="Helvetica,sans-Serif" font-size="10.00">&lt; std::string, Property</text>
<text text-anchor="start" x="435.25" y="-150" font-family="Helvetica,sans-Serif" font-size="10.00"> &gt;, KeySelect, ValueSelect,</text>
<text text-anchor="start" x="435.25" y="-138.75" font-family="Helvetica,sans-Serif" font-size="10.00"> std::hash&lt; std::string &gt;,</text>
<text text-anchor="start" x="435.25" y="-127.5" font-family="Helvetica,sans-Serif" font-size="10.00"> std::equal_to&lt; std::string</text>
<text text-anchor="start" x="435.25" y="-116.25" font-family="Helvetica,sans-Serif" font-size="10.00"> &gt;, std::allocator&lt; std::pair</text>
<text text-anchor="start" x="435.25" y="-105" font-family="Helvetica,sans-Serif" font-size="10.00">&lt; std::string, Property &gt; &gt;, false,</text>
<text text-anchor="middle" x="531.25" y="-93.75" font-family="Helvetica,sans-Serif" font-size="10.00"> tsl::rh::power_of_two_growth_policy&lt; 2 &gt; &gt;</text>
</a>
</g>
</g>
<!-- Node4&#45;&gt;Node3 -->
<g id="edge3_Node000003_Node000004" class="edge">
<title>Node4&#45;&gt;Node3</title>
<g id="a_edge3_Node000003_Node000004"><a xlink:title=" ">
<path fill="none" stroke="#9a32cd" stroke-dasharray="5,2" d="M646.81,-145.86C663.96,-146.34 680.83,-146.82 695.62,-147.23"/>
<polygon fill="#9a32cd" stroke="#9a32cd" points="647.12,-142.36 637.02,-145.58 646.92,-149.36 647.12,-142.36"/>
</a>
</g>
<text text-anchor="middle" x="665.62" y="-149.38" font-family="Helvetica,sans-Serif" font-size="10.00" fill="grey"> m_ht</text>
</g>
<!-- Node5 -->
<g id="Node000005" class="node">
<title>Node5</title>
<g id="a_Node000005"><a xlink:title=" ">
<polygon fill="white" stroke="#666666" points="331.62,-309.25 213.62,-309.25 213.62,-290 331.62,-290 331.62,-309.25"/>
<text text-anchor="middle" x="272.62" y="-295.75" font-family="Helvetica,sans-Serif" font-size="10.00">std::hash&lt; std::string &gt;</text>
</a>
</g>
</g>
<!-- Node5&#45;&gt;Node4 -->
<g id="edge4_Node000004_Node000005" class="edge">
<title>Node5&#45;&gt;Node4</title>
<g id="a_edge4_Node000004_Node000005"><a xlink:title=" ">
<path fill="none" stroke="#8b1a1a" d="M343.43,-298.3C366.93,-294.48 391.63,-286.28 409.25,-269.62 430.73,-249.33 409.41,-229.18 427.25,-205.62 429.4,-202.78 431.72,-200.04 434.18,-197.4"/>
<polygon fill="#8b1a1a" stroke="#8b1a1a" points="342.96,-294.83 333.52,-299.63 343.9,-301.76 342.96,-294.83"/>
</a>
</g>
</g>
<!-- Node17 -->
<g id="Node000017" class="node">
<title>Node17</title>
<g id="a_Node000017"><a xlink:href="classtsl_1_1detail__robin__hash_1_1robin__hash.html" target="_top" xlink:title=" ">
<polygon fill="white" stroke="#666666" points="635.25,-324.25 427.25,-324.25 427.25,-215 635.25,-215 635.25,-324.25"/>
<text text-anchor="start" x="435.25" y="-310.75" font-family="Helvetica,sans-Serif" font-size="10.00">tsl::detail_robin_hash</text>
<text text-anchor="start" x="435.25" y="-299.5" font-family="Helvetica,sans-Serif" font-size="10.00">::robin_hash&lt; std::pair</text>
<text text-anchor="start" x="435.25" y="-288.25" font-family="Helvetica,sans-Serif" font-size="10.00">&lt; std::string, Field &gt;,</text>
<text text-anchor="start" x="435.25" y="-277" font-family="Helvetica,sans-Serif" font-size="10.00"> KeySelect, ValueSelect,</text>
<text text-anchor="start" x="435.25" y="-265.75" font-family="Helvetica,sans-Serif" font-size="10.00"> std::hash&lt; std::string &gt;,</text>
<text text-anchor="start" x="435.25" y="-254.5" font-family="Helvetica,sans-Serif" font-size="10.00"> std::equal_to&lt; std::string</text>
<text text-anchor="start" x="435.25" y="-243.25" font-family="Helvetica,sans-Serif" font-size="10.00"> &gt;, std::allocator&lt; std::pair</text>
<text text-anchor="start" x="435.25" y="-232" font-family="Helvetica,sans-Serif" font-size="10.00">&lt; std::string, Field &gt; &gt;, false,</text>
<text text-anchor="middle" x="531.25" y="-220.75" font-family="Helvetica,sans-Serif" font-size="10.00"> tsl::rh::power_of_two_growth_policy&lt; 2 &gt; &gt;</text>
</a>
</g>
</g>
<!-- Node5&#45;&gt;Node17 -->
<g id="edge18_Node000017_Node000005" class="edge">
<title>Node5&#45;&gt;Node17</title>
<g id="a_edge18_Node000017_Node000005"><a xlink:title=" ">
<path fill="none" stroke="#8b1a1a" d="M343.09,-297.86C364.37,-296.83 387.82,-295.2 409.25,-292.62 414.98,-291.94 420.85,-291.14 426.76,-290.26"/>
<polygon fill="#8b1a1a" stroke="#8b1a1a" points="343.2,-294.35 333.36,-298.29 343.51,-301.35 343.2,-294.35"/>
</a>
</g>
</g>
<!-- Node6 -->
<g id="Node000006" class="node">
<title>Node6</title>
<g id="a_Node000006"><a xlink:title=" ">
<polygon fill="white" stroke="#666666" points="320,-155.88 225.25,-155.88 225.25,-125.38 320,-125.38 320,-155.88"/>
<text text-anchor="start" x="233.25" y="-142.38" font-family="Helvetica,sans-Serif" font-size="10.00">std::equal_to&lt; std</text>
<text text-anchor="middle" x="272.62" y="-131.12" font-family="Helvetica,sans-Serif" font-size="10.00">::string &gt;</text>
</a>
</g>
</g>
<!-- Node6&#45;&gt;Node4 -->
<g id="edge5_Node000004_Node000006" class="edge">
<title>Node6&#45;&gt;Node4</title>
<g id="a_edge5_Node000004_Node000006"><a xlink:title=" ">
<path fill="none" stroke="#8b1a1a" d="M331.8,-141.04C355.79,-141.22 383.86,-141.43 409.25,-141.62 415.03,-141.67 420.96,-141.72 426.95,-141.77"/>
<polygon fill="#8b1a1a" stroke="#8b1a1a" points="331.93,-137.54 321.9,-140.97 331.87,-144.54 331.93,-137.54"/>
</a>
</g>
</g>
<!-- Node6&#45;&gt;Node17 -->
<g id="edge19_Node000017_Node000006" class="edge">
<title>Node6&#45;&gt;Node17</title>
<g id="a_edge19_Node000017_Node000006"><a xlink:title=" ">
<path fill="none" stroke="#8b1a1a" d="M327.17,-161.44C331.74,-163.95 336.17,-166.68 340.25,-169.62 349.95,-176.61 348.63,-182.52 358.25,-189.62 379.04,-204.99 403.25,-218.46 426.83,-229.75"/>
<polygon fill="#8b1a1a" stroke="#8b1a1a" points="328.88,-158.39 318.38,-156.98 325.71,-164.63 328.88,-158.39"/>
</a>
</g>
</g>
<!-- Node7 -->
<g id="Node000007" class="node">
<title>Node7</title>
<g id="a_Node000007"><a xlink:href="classtsl_1_1rh_1_1power__of__two__growth__policy.html" target="_top" xlink:title=" ">
<polygon fill="white" stroke="#666666" points="326.38,-208.88 218.88,-208.88 218.88,-178.38 326.38,-178.38 326.38,-208.88"/>
<text text-anchor="start" x="226.88" y="-195.38" font-family="Helvetica,sans-Serif" font-size="10.00">tsl::rh::power_of_two</text>
<text text-anchor="middle" x="272.62" y="-184.12" font-family="Helvetica,sans-Serif" font-size="10.00">_growth_policy&lt; 2 &gt;</text>
</a>
</g>
</g>
<!-- Node7&#45;&gt;Node4 -->
<g id="edge6_Node000004_Node000007" class="edge">
<title>Node7&#45;&gt;Node4</title>
<g id="a_edge6_Node000004_Node000007"><a xlink:title=" ">
<path fill="none" stroke="#8b1a1a" d="M324.72,-174.26C335.66,-170.63 347.25,-167.19 358.25,-164.62 380.24,-159.51 404.11,-155.5 426.87,-152.39"/>
<polygon fill="#8b1a1a" stroke="#8b1a1a" points="323.79,-170.87 315.46,-177.42 326.05,-177.5 323.79,-170.87"/>
</a>
</g>
</g>
<!-- Node7&#45;&gt;Node17 -->
<g id="edge20_Node000017_Node000007" class="edge">
<title>Node7&#45;&gt;Node17</title>
<g id="a_edge20_Node000017_Node000007"><a xlink:title=" ">
<path fill="none" stroke="#8b1a1a" d="M337.63,-212.58C364.59,-220.57 396.66,-230.06 426.82,-238.99"/>
<polygon fill="#8b1a1a" stroke="#8b1a1a" points="338.83,-209.29 328.25,-209.8 336.84,-216 338.83,-209.29"/>
</a>
</g>
</g>
<!-- Node8 -->
<g id="Node000008" class="node">
<title>Node8</title>
<g id="a_Node000008"><a xlink:href="classtsl_1_1detail__robin__hash_1_1bucket__entry.html" target="_top" xlink:title=" ">
<polygon fill="white" stroke="#666666" points="340.25,-270.5 205,-270.5 205,-228.75 340.25,-228.75 340.25,-270.5"/>
<text text-anchor="start" x="213" y="-257" font-family="Helvetica,sans-Serif" font-size="10.00">tsl::detail_robin_hash</text>
<text text-anchor="start" x="213" y="-245.75" font-family="Helvetica,sans-Serif" font-size="10.00">::bucket_entry&lt; ValueType,</text>
<text text-anchor="middle" x="272.62" y="-234.5" font-family="Helvetica,sans-Serif" font-size="10.00"> StoreHash &gt;</text>
</a>
</g>
</g>
<!-- Node8&#45;&gt;Node4 -->
<g id="edge7_Node000004_Node000008" class="edge">
<title>Node8&#45;&gt;Node4</title>
<g id="a_edge7_Node000004_Node000008"><a xlink:title=" ">
<path fill="none" stroke="#9a32cd" stroke-dasharray="5,2" d="M335.97,-221.62C337.46,-220.34 338.89,-219.01 340.25,-217.62 353.7,-203.93 343.24,-190.34 358.25,-178.38 369.82,-169.16 397.31,-161.79 427.01,-156.2"/>
<polygon fill="#9a32cd" stroke="#9a32cd" points="334,-218.72 328.09,-227.52 338.2,-224.33 334,-218.72"/>
</a>
</g>
<text text-anchor="middle" x="383.75" y="-179.38" font-family="Helvetica,sans-Serif" font-size="10.00" fill="grey"> m_buckets</text>
</g>
<!-- Node8&#45;&gt;Node17 -->
<g id="edge21_Node000017_Node000008" class="edge">
<title>Node8&#45;&gt;Node17</title>
<g id="a_edge21_Node000017_Node000008"><a xlink:title=" ">
<path fill="none" stroke="#9a32cd" stroke-dasharray="5,2" d="M351.79,-254.29C370.62,-255.52 390.66,-256.91 409.25,-258.38 415.03,-258.83 420.97,-259.32 426.96,-259.82"/>
<polygon fill="#9a32cd" stroke="#9a32cd" points="352.28,-250.81 342.08,-253.66 351.83,-257.8 352.28,-250.81"/>
</a>
</g>
<text text-anchor="middle" x="383.75" y="-259.38" font-family="Helvetica,sans-Serif" font-size="10.00" fill="grey"> m_buckets</text>
</g>
<!-- Node9 -->
<g id="Node000009" class="node">
<title>Node9</title>
<g id="a_Node000009"><a xlink:href="classtsl_1_1detail__robin__hash_1_1bucket__entry__hash.html" target="_top" xlink:title=" ">
<polygon fill="white" stroke="#666666" points="169,-264.88 0,-264.88 0,-234.38 169,-234.38 169,-264.88"/>
<text text-anchor="start" x="8" y="-251.38" font-family="Helvetica,sans-Serif" font-size="10.00">tsl::detail_robin_hash</text>
<text text-anchor="middle" x="84.5" y="-240.12" font-family="Helvetica,sans-Serif" font-size="10.00">::bucket_entry_hash&lt; StoreHash &gt;</text>
</a>
</g>
</g>
<!-- Node9&#45;&gt;Node8 -->
<g id="edge8_Node000008_Node000009" class="edge">
<title>Node9&#45;&gt;Node8</title>
<g id="a_edge8_Node000008_Node000009"><a xlink:title=" ">
<path fill="none" stroke="#63b8ff" d="M180.75,-249.62C188.85,-249.62 196.93,-249.62 204.74,-249.62"/>
<polygon fill="#63b8ff" stroke="#63b8ff" points="180.82,-246.13 170.82,-249.63 180.82,-253.13 180.82,-246.13"/>
</a>
</g>
</g>
<!-- Node10 -->
<g id="Node000010" class="node">
<title>Node10</title>
<g id="a_Node000010"><a xlink:href="classIoss_1_1ElementTopology.html" target="_top" xlink:title="Represents an element topology.">
<polygon fill="white" stroke="#666666" points="1007,-85.25 891.25,-85.25 891.25,-66 1007,-66 1007,-85.25"/>
<text text-anchor="middle" x="949.12" y="-71.75" font-family="Helvetica,sans-Serif" font-size="10.00">Ioss::ElementTopology</text>
</a>
</g>
</g>
<!-- Node10&#45;&gt;Node1 -->
<g id="edge9_Node000001_Node000010" class="edge">
<title>Node10&#45;&gt;Node1</title>
<g id="a_edge9_Node000001_Node000010"><a xlink:title=" ">
<path fill="none" stroke="#9a32cd" stroke-dasharray="5,2" d="M1018.32,-82.85C1050.57,-86.7 1089.52,-91.96 1124.25,-98.38 1132.18,-99.84 1140.61,-101.66 1148.64,-103.54"/>
<polygon fill="#9a32cd" stroke="#9a32cd" points="1019.06,-79.41 1008.72,-81.72 1018.25,-86.36 1019.06,-79.41"/>
</a>
</g>
<text text-anchor="middle" x="1074.62" y="-100.38" font-family="Helvetica,sans-Serif" font-size="10.00" fill="grey"> commonSideTopology</text>
</g>
<!-- Node11 -->
<g id="Node000011" class="node">
<title>Node11</title>
<g id="a_Node000011"><a xlink:href="classIoss_1_1Map.html" target="_top" xlink:title=" ">
<polygon fill="white" stroke="#666666" points="978.88,-19.25 919.38,-19.25 919.38,0 978.88,0 978.88,-19.25"/>
<text text-anchor="middle" x="949.12" y="-5.75" font-family="Helvetica,sans-Serif" font-size="10.00">Ioss::Map</text>
</a>
</g>
</g>
<!-- Node11&#45;&gt;Node1 -->
<g id="edge10_Node000001_Node000011" class="edge">
<title>Node11&#45;&gt;Node1</title>
<g id="a_edge10_Node000001_Node000011"><a xlink:title=" ">
<path fill="none" stroke="#9a32cd" stroke-dasharray="5,2" d="M990.68,-7.63C1027.78,-7.59 1083.02,-12.16 1124.25,-35.62 1152.96,-51.96 1173.95,-86.69 1182.98,-103.75"/>
<polygon fill="#9a32cd" stroke="#9a32cd" points="990.77,-4.13 980.82,-7.77 990.87,-11.13 990.77,-4.13"/>
</a>
</g>
<text text-anchor="middle" x="1074.62" y="-71.12" font-family="Helvetica,sans-Serif" font-size="10.00" fill="grey"> edgeMap</text>
<text text-anchor="middle" x="1074.62" y="-59.88" font-family="Helvetica,sans-Serif" font-size="10.00" fill="grey">elemMap</text>
<text text-anchor="middle" x="1074.62" y="-48.62" font-family="Helvetica,sans-Serif" font-size="10.00" fill="grey">faceMap</text>
<text text-anchor="middle" x="1074.62" y="-37.38" font-family="Helvetica,sans-Serif" font-size="10.00" fill="grey">nodeMap</text>
</g>
<!-- Node12 -->
<g id="Node000012" class="node">
<title>Node12</title>
<g id="a_Node000012"><a xlink:href="classIoss_1_1ParallelUtils.html" target="_top" xlink:title=" ">
<polygon fill="white" stroke="#666666" points="995.75,-122.25 902.5,-122.25 902.5,-103 995.75,-103 995.75,-122.25"/>
<text text-anchor="middle" x="949.12" y="-108.75" font-family="Helvetica,sans-Serif" font-size="10.00">Ioss::ParallelUtils</text>
</a>
</g>
</g>
<!-- Node12&#45;&gt;Node1 -->
<g id="edge11_Node000001_Node000012" class="edge">
<title>Node12&#45;&gt;Node1</title>
<g id="a_edge11_Node000001_Node000012"><a xlink:title=" ">
<path fill="none" stroke="#9a32cd" stroke-dasharray="5,2" d="M1007.75,-112.87C1048.93,-113.04 1103.61,-113.27 1141.88,-113.43"/>
<polygon fill="#9a32cd" stroke="#9a32cd" points="1007.78,-109.37 997.76,-112.83 1007.75,-116.37 1007.78,-109.37"/>
</a>
</g>
<text text-anchor="middle" x="1074.62" y="-115.38" font-family="Helvetica,sans-Serif" font-size="10.00" fill="grey"> util_</text>
</g>
<!-- Node13 -->
<g id="Node000013" class="node">
<title>Node13</title>
<g id="a_Node000013"><a xlink:href="classIoss_1_1Region.html" target="_top" xlink:title="A grouping entity that contains other grouping entities.">
<polygon fill="white" stroke="#666666" points="1533.25,-139.25 1461.75,-139.25 1461.75,-120 1533.25,-120 1533.25,-139.25"/>
<text text-anchor="middle" x="1497.5" y="-125.75" font-family="Helvetica,sans-Serif" font-size="10.00">Ioss::Region</text>
</a>
</g>
</g>
<!-- Node13&#45;&gt;Node1 -->
<g id="edge12_Node000001_Node000013" class="edge">
<title>Node13&#45;&gt;Node1</title>
<g id="a_edge12_Node000001_Node000013"><a xlink:title=" ">
<path fill="none" stroke="#9a32cd" stroke-dasharray="5,2" d="M1449.89,-127.19C1391.88,-124.17 1293.45,-119.03 1235.78,-116.02"/>
<polygon fill="#9a32cd" stroke="#9a32cd" points="1449.59,-130.68 1459.76,-127.71 1449.96,-123.69 1449.59,-130.68"/>
</a>
</g>
<text text-anchor="middle" x="1372.12" y="-128.38" font-family="Helvetica,sans-Serif" font-size="10.00" fill="grey"> region_</text>
</g>
<!-- Node14&#45;&gt;Node13 -->
<g id="edge13_Node000013_Node000014" class="edge">
<title>Node14&#45;&gt;Node13</title>
<g id="a_edge13_Node000013_Node000014"><a xlink:title=" ">
<path fill="none" stroke="#63b8ff" d="M1421.73,-149.62C1435.04,-146.07 1449.19,-142.28 1461.57,-138.97"/>
<polygon fill="#63b8ff" stroke="#63b8ff" points="1421.03,-146.19 1412.27,-152.15 1422.84,-152.95 1421.03,-146.19"/>
</a>
</g>
</g>
<!-- Node15 -->
<g id="Node000015" class="node">
<title>Node15</title>
<g id="a_Node000015"><a xlink:href="classIoss_1_1FieldManager.html" target="_top" xlink:title="A collection of Ioss::Field objects.">
<polygon fill="white" stroke="#666666" points="1124.25,-264.25 1025,-264.25 1025,-245 1124.25,-245 1124.25,-264.25"/>
<text text-anchor="middle" x="1074.62" y="-250.75" font-family="Helvetica,sans-Serif" font-size="10.00">Ioss::FieldManager</text>
</a>
</g>
</g>
<!-- Node15&#45;&gt;Node14 -->
<g id="edge15_Node000014_Node000015" class="edge">
<title>Node15&#45;&gt;Node14</title>
<g id="a_edge15_Node000014_Node000015"><a xlink:title=" ">
<path fill="none" stroke="#9a32cd" stroke-dasharray="5,2" d="M1121.63,-241.35C1167.39,-228.02 1239.52,-206.63 1301.5,-186.62 1315.13,-182.23 1330.16,-177.08 1342.75,-172.69"/>
<polygon fill="#9a32cd" stroke="#9a32cd" points="1120.66,-237.99 1112.04,-244.14 1122.62,-244.71 1120.66,-237.99"/>
</a>
</g>
<text text-anchor="middle" x="1188.88" y="-236.38" font-family="Helvetica,sans-Serif" font-size="10.00" fill="grey"> fields</text>
</g>
<!-- Node16 -->
<g id="Node000016" class="node">
<title>Node16</title>
<g id="a_Node000016"><a xlink:href="classtsl_1_1robin__map.html" target="_top" xlink:title=" ">
<polygon fill="white" stroke="#666666" points="796,-283.88 696,-283.88 696,-253.38 796,-253.38 796,-283.88"/>
<text text-anchor="start" x="704" y="-270.38" font-family="Helvetica,sans-Serif" font-size="10.00">tsl::robin_map&lt; std</text>
<text text-anchor="middle" x="746" y="-259.12" font-family="Helvetica,sans-Serif" font-size="10.00">::string, Field &gt;</text>
</a>
</g>
</g>
<!-- Node16&#45;&gt;Node15 -->
<g id="edge16_Node000015_Node000016" class="edge">
<title>Node16&#45;&gt;Node15</title>
<g id="a_edge16_Node000015_Node000016"><a xlink:title=" ">
<path fill="none" stroke="#9a32cd" stroke-dasharray="5,2" d="M807.52,-266.03C870.07,-263.35 966.52,-259.22 1024.51,-256.73"/>
<polygon fill="#9a32cd" stroke="#9a32cd" points="807.61,-262.52 797.76,-266.45 807.91,-269.52 807.61,-262.52"/>
</a>
</g>
<text text-anchor="middle" x="843.62" y="-266.38" font-family="Helvetica,sans-Serif" font-size="10.00" fill="grey"> fields</text>
</g>
<!-- Node17&#45;&gt;Node16 -->
<g id="edge17_Node000016_Node000017" class="edge">
<title>Node17&#45;&gt;Node16</title>
<g id="a_edge17_Node000016_Node000017"><a xlink:title=" ">
<path fill="none" stroke="#9a32cd" stroke-dasharray="5,2" d="M646.81,-269.09C663.96,-269.01 680.83,-268.93 695.62,-268.86"/>
<polygon fill="#9a32cd" stroke="#9a32cd" points="647.01,-265.59 637.02,-269.13 647.04,-272.59 647.01,-265.59"/>
</a>
</g>
<text text-anchor="middle" x="665.62" y="-270.38" font-family="Helvetica,sans-Serif" font-size="10.00" fill="grey"> m_ht</text>
</g>
</g>
</svg>

<g id="navigator" transform="translate(0 0)" fill="#404254">
  <rect fill="#f2f5e9" fill-opacity="0.5" stroke="#606060" stroke-width=".5" x="0" y="0" width="60" height="60"/>
  <use id="zoomplus" xlink:href="#zoomPlus" x="17" y="9" onmousedown="handleZoom(evt,'in')"/>
  <use id="zoomminus" xlink:href="#zoomMin" x="42" y="9" onmousedown="handleZoom(evt,'out')"/>
  <use id="reset" xlink:href="#resetDef" x="30" y="36" onmousedown="handleReset()"/>
   <use id="arrowup" xlink:href="#arrowUp" x="0" y="0" onmousedown="handlePan(0,-1)"/>
  <use id="arrowright" xlink:href="#arrowRight" x="0" y="0" onmousedown="handlePan(1,0)"/>
  <use id="arrowdown" xlink:href="#arrowDown" x="0" y="0" onmousedown="handlePan(0,1)"/>
  <use id="arrowleft" xlink:href="#arrowLeft" x="0" y="0" onmousedown="handlePan(-1,0)"/>
</g>
<svg viewBox="0 0 15 15" width="100%" height="30px" preserveAspectRatio="xMaxYMin meet">
 <g id="arrow_out" transform="scale(0.3 0.3)">
  <a xlink:href="classIoss_1_1DatabaseIO__coll__graph_org.svg" target="_base">
   <rect id="button" ry="5" rx="5" y="6" x="6" height="38" width="38"
        fill="#f2f5e9" fill-opacity="0.5" stroke="#606060" stroke-width="1.0"/>
   <path id="arrow"
     d="M 11.500037,31.436501 C 11.940474,20.09759 22.043105,11.32322 32.158766,21.979434 L 37.068811,17.246167 C 37.068811,17.246167 37.088388,32 37.088388,32 L 22.160133,31.978069 C 22.160133,31.978069 26.997745,27.140456 26.997745,27.140456 C 18.528582,18.264221 13.291696,25.230495 11.500037,31.436501 z"
     style="fill:#404040;"/>
  </a>
 </g>
</svg>

<style type='text/css'>
<![CDATA[
[data-mouse-over-selected='false'] { opacity: 0.7; }
[data-mouse-over-selected='true']  { opacity: 1.0; }
]]>
</style>
<script type="application/ecmascript"><![CDATA[
document.addEventListener('DOMContentLoaded', (event) => {
  highlightEdges();
  highlightAdjacentNodes();
});
]]></script>
</svg>
