<?xml version="1.0" encoding="UTF-8" standalone="no"?>
<!DOCTYPE svg PUBLIC "-//W3C//DTD SVG 1.1//EN"
 "http://www.w3.org/Graphics/SVG/1.1/DTD/svg11.dtd">
<!-- Generated by graphviz version 8.0.5 (20230430.1635)
 -->
<!-- Title: Ioss::glob::StateStar&lt; charT &gt; Pages: 1 -->
<svg width="123pt" height="184pt"
 viewBox="0.00 0.00 123.25 183.75" xmlns="http://www.w3.org/2000/svg" xmlns:xlink="http://www.w3.org/1999/xlink">
<g id="graph0" class="graph" transform="scale(1 1) rotate(0) translate(4 179.75)">
<title>Ioss::glob::StateStar&lt; charT &gt;</title>
<!-- Node1 -->
<g id="Node000001" class="node">
<title>Node1</title>
<g id="a_Node000001"><a xlink:title=" ">
<polygon fill="#999999" stroke="#666666" points="106,-30.5 0,-30.5 0,0 106,0 106,-30.5"/>
<text text-anchor="start" x="8" y="-17" font-family="Helvetica,sans-Serif" font-size="10.00">Ioss::glob::StateStar</text>
<text text-anchor="middle" x="53" y="-5.75" font-family="Helvetica,sans-Serif" font-size="10.00">&lt; charT &gt;</text>
</a>
</g>
</g>
<!-- Node2 -->
<g id="Node000002" class="node">
<title>Node2</title>
<g id="a_Node000002"><a xlink:href="classIoss_1_1glob_1_1State.html" target="_top" xlink:title=" ">
<polygon fill="white" stroke="#666666" points="100,-98 6,-98 6,-67.5 100,-67.5 100,-98"/>
<text text-anchor="start" x="14" y="-84.5" font-family="Helvetica,sans-Serif" font-size="10.00">Ioss::glob::State&lt;</text>
<text text-anchor="middle" x="53" y="-73.25" font-family="Helvetica,sans-Serif" font-size="10.00"> charT &gt;</text>
</a>
</g>
</g>
<!-- Node2&#45;&gt;Node1 -->
<g id="edge1_Node000001_Node000002" class="edge">
<title>Node2&#45;&gt;Node1</title>
<g id="a_edge1_Node000001_Node000002"><a xlink:title=" ">
<path fill="none" stroke="#63b8ff" d="M53,-56.42C53,-47.72 53,-38.29 53,-30.75"/>
<polygon fill="#63b8ff" stroke="#63b8ff" points="49.5,-56.21 53,-66.21 56.5,-56.21 49.5,-56.21"/>
</a>
</g>
</g>
<!-- Node3 -->
<g id="Node000003" class="node">
<title>Node3</title>
<g id="a_Node000003"><a xlink:href="classstd_1_1basic__string.html" target="_top" xlink:title=" ">
<polygon fill="white" stroke="#666666" points="100,-175.75 6,-175.75 6,-145.25 100,-145.25 100,-175.75"/>
<text text-anchor="start" x="14" y="-162.25" font-family="Helvetica,sans-Serif" font-size="10.00">std::basic_string&lt;</text>
<text text-anchor="middle" x="53" y="-151" font-family="Helvetica,sans-Serif" font-size="10.00"> charT &gt;</text>
</a>
</g>
</g>
<!-- Node3&#45;&gt;Node2 -->
<g id="edge2_Node000002_Node000003" class="edge">
<title>Node3&#45;&gt;Node2</title>
<g id="a_edge2_Node000002_Node000003"><a xlink:title=" ">
<path fill="none" stroke="#9a32cd" stroke-dasharray="5,2" d="M53,-134.21C53,-122.28 53,-108.46 53,-98.31"/>
<polygon fill="#9a32cd" stroke="#9a32cd" points="49.5,-133.89 53,-143.89 56.5,-133.89 49.5,-133.89"/>
</a>
</g>
<text text-anchor="middle" x="84.12" y="-117.75" font-family="Helvetica,sans-Serif" font-size="10.00" fill="grey"> matched_str_</text>
</g>
</g>
</svg>
