<?xml version="1.0" encoding="UTF-8" standalone="no"?>
<!DOCTYPE svg PUBLIC "-//W3C//DTD SVG 1.1//EN"
 "http://www.w3.org/Graphics/SVG/1.1/DTD/svg11.dtd">
<!-- Generated by graphviz version 8.0.5 (20230430.1635)
 -->
<!-- Title: Ioss::DatabaseIO Pages: 1 -->
<svg width="1641pt" height="379pt"
 viewBox="0.00 0.00 1640.50 379.01" xmlns="http://www.w3.org/2000/svg" xmlns:xlink="http://www.w3.org/1999/xlink">
<g id="graph0" class="graph" transform="scale(1 1) rotate(0) translate(4 375.01)">
<title>Ioss::DatabaseIO</title>
<!-- Node1 -->
<g id="Node000001" class="node">
<title>Node1</title>
<g id="a_Node000001"><a xlink:title="An input or output Database.">
<polygon fill="#999999" stroke="#666666" points="1334.75,-122.25 1241.5,-122.25 1241.5,-103 1334.75,-103 1334.75,-122.25"/>
<text text-anchor="middle" x="1288.12" y="-108.75" font-family="Helvetica,sans-Serif" font-size="10.00">Ioss::DatabaseIO</text>
</a>
</g>
</g>
<!-- Node16 -->
<g id="Node000016" class="node">
<title>Node16</title>
<g id="a_Node000016"><a xlink:href="classIoss_1_1GroupingEntity.html" target="_top" xlink:title="Base class for all &#39;grouping&#39; entities. The following derived classes are typical:">
<polygon fill="white" stroke="#666666" points="1524,-171.25 1418.75,-171.25 1418.75,-152 1524,-152 1524,-171.25"/>
<text text-anchor="middle" x="1471.38" y="-157.75" font-family="Helvetica,sans-Serif" font-size="10.00">Ioss::GroupingEntity</text>
</a>
</g>
</g>
<!-- Node1&#45;&gt;Node16 -->
<g id="edge25_Node000016_Node000001" class="edge">
<title>Node1&#45;&gt;Node16</title>
<g id="a_edge25_Node000016_Node000001"><a xlink:title=" ">
<path fill="none" stroke="#9a32cd" stroke-dasharray="5,2" d="M1336.51,-125.44C1366.62,-133.58 1405.05,-143.96 1433,-151.52"/>
<polygon fill="#9a32cd" stroke="#9a32cd" points="1337.81,-121.89 1327.24,-122.66 1335.98,-128.65 1337.81,-121.89"/>
</a>
</g>
<text text-anchor="middle" x="1376.75" y="-142.38" font-family="Helvetica,sans-Serif" font-size="10.00" fill="grey"> database_</text>
</g>
<!-- Node2 -->
<g id="Node000002" class="node">
<title>Node2</title>
<g id="a_Node000002"><a xlink:href="classIoss_1_1PropertyManager.html" target="_top" xlink:title="A collection of Ioss::Property objects.">
<polygon fill="white" stroke="#666666" points="1105.88,-158.25 990.88,-158.25 990.88,-139 1105.88,-139 1105.88,-158.25"/>
<text text-anchor="middle" x="1048.38" y="-144.75" font-family="Helvetica,sans-Serif" font-size="10.00">Ioss::PropertyManager</text>
</a>
</g>
</g>
<!-- Node2&#45;&gt;Node1 -->
<g id="edge1_Node000001_Node000002" class="edge">
<title>Node2&#45;&gt;Node1</title>
<g id="a_edge1_Node000001_Node000002"><a xlink:title=" ">
<path fill="none" stroke="#9a32cd" stroke-dasharray="5,2" d="M1116.96,-139.38C1149.24,-134.85 1188.4,-129.18 1223.5,-123.62 1229.26,-122.71 1235.3,-121.72 1241.28,-120.71"/>
<polygon fill="#9a32cd" stroke="#9a32cd" points="1116.71,-136.02 1107.29,-140.87 1117.68,-142.95 1116.71,-136.02"/>
</a>
</g>
<text text-anchor="middle" x="1173.88" y="-139.38" font-family="Helvetica,sans-Serif" font-size="10.00" fill="grey"> properties</text>
</g>
<!-- Node2&#45;&gt;Node16 -->
<g id="edge16_Node000016_Node000002" class="edge">
<title>Node2&#45;&gt;Node16</title>
<g id="a_edge16_Node000016_Node000002"><a xlink:title=" ">
<path fill="none" stroke="#9a32cd" stroke-dasharray="5,2" d="M1117.01,-152.32C1119.45,-152.43 1121.87,-152.53 1124.25,-152.62 1228.61,-156.77 1350.75,-159.43 1418.46,-160.72"/>
<polygon fill="#9a32cd" stroke="#9a32cd" points="1117.34,-148.79 1107.19,-151.82 1117.02,-155.78 1117.34,-148.79"/>
</a>
</g>
<text text-anchor="middle" x="1288.12" y="-160.38" font-family="Helvetica,sans-Serif" font-size="10.00" fill="grey"> properties</text>
</g>
<!-- Node3 -->
<g id="Node000003" class="node">
<title>Node3</title>
<g id="a_Node000003"><a xlink:href="classtsl_1_1robin__map.html" target="_top" xlink:title=" ">
<polygon fill="white" stroke="#666666" points="849.88,-157.88 749.88,-157.88 749.88,-127.38 849.88,-127.38 849.88,-157.88"/>
<text text-anchor="start" x="757.88" y="-144.38" font-family="Helvetica,sans-Serif" font-size="10.00">tsl::robin_map&lt; std</text>
<text text-anchor="middle" x="799.88" y="-133.12" font-family="Helvetica,sans-Serif" font-size="10.00">::string, Property &gt;</text>
</a>
</g>
</g>
<!-- Node3&#45;&gt;Node2 -->
<g id="edge2_Node000002_Node000003" class="edge">
<title>Node3&#45;&gt;Node2</title>
<g id="a_edge2_Node000002_Node000003"><a xlink:title=" ">
<path fill="none" stroke="#9a32cd" stroke-dasharray="5,2" d="M860.95,-144.09C900.37,-145.05 951.62,-146.29 990.4,-147.24"/>
<polygon fill="#9a32cd" stroke="#9a32cd" points="861.25,-140.57 851.17,-143.82 861.08,-147.57 861.25,-140.57"/>
</a>
</g>
<text text-anchor="middle" x="922.25" y="-148.38" font-family="Helvetica,sans-Serif" font-size="10.00" fill="grey"> m_properties</text>
</g>
<!-- Node4 -->
<g id="Node000004" class="node">
<title>Node4</title>
<g id="a_Node000004"><a xlink:href="classtsl_1_1detail__robin__hash_1_1robin__hash.html" target="_top" xlink:title=" ">
<polygon fill="white" stroke="#666666" points="685,-195.25 477,-195.25 477,-86 685,-86 685,-195.25"/>
<text text-anchor="start" x="485" y="-181.75" font-family="Helvetica,sans-Serif" font-size="10.00">tsl::detail_robin_hash</text>
<text text-anchor="start" x="485" y="-170.5" font-family="Helvetica,sans-Serif" font-size="10.00">::robin_hash&lt; std::pair</text>
<text text-anchor="start" x="485" y="-159.25" font-family="Helvetica,sans-Serif" font-size="10.00">&lt; std::string, Property</text>
<text text-anchor="start" x="485" y="-148" font-family="Helvetica,sans-Serif" font-size="10.00"> &gt;, KeySelect, ValueSelect,</text>
<text text-anchor="start" x="485" y="-136.75" font-family="Helvetica,sans-Serif" font-size="10.00"> std::hash&lt; std::string &gt;,</text>
<text text-anchor="start" x="485" y="-125.5" font-family="Helvetica,sans-Serif" font-size="10.00"> std::equal_to&lt; std::string</text>
<text text-anchor="start" x="485" y="-114.25" font-family="Helvetica,sans-Serif" font-size="10.00"> &gt;, std::allocator&lt; std::pair</text>
<text text-anchor="start" x="485" y="-103" font-family="Helvetica,sans-Serif" font-size="10.00">&lt; std::string, Property &gt; &gt;, false,</text>
<text text-anchor="middle" x="581" y="-91.75" font-family="Helvetica,sans-Serif" font-size="10.00"> tsl::rh::power_of_two_growth_policy&lt; 2 &gt; &gt;</text>
</a>
</g>
</g>
<!-- Node4&#45;&gt;Node3 -->
<g id="edge3_Node000003_Node000004" class="edge">
<title>Node4&#45;&gt;Node3</title>
<g id="a_edge3_Node000003_Node000004"><a xlink:title=" ">
<path fill="none" stroke="#9a32cd" stroke-dasharray="5,2" d="M696.11,-141.68C714.89,-141.85 733.44,-142.02 749.5,-142.17"/>
<polygon fill="#9a32cd" stroke="#9a32cd" points="696.39,-138.17 686.36,-141.58 696.32,-145.17 696.39,-138.17"/>
</a>
</g>
<text text-anchor="middle" x="715.38" y="-143.38" font-family="Helvetica,sans-Serif" font-size="10.00" fill="grey"> m_ht</text>
</g>
<!-- Node5 -->
<g id="Node000005" class="node">
<title>Node5</title>
<g id="a_Node000005"><a xlink:title=" ">
<polygon fill="white" stroke="#666666" points="344.25,-370.25 226.25,-370.25 226.25,-351 344.25,-351 344.25,-370.25"/>
<text text-anchor="middle" x="285.25" y="-356.75" font-family="Helvetica,sans-Serif" font-size="10.00">std::hash&lt; std::string &gt;</text>
</a>
</g>
</g>
<!-- Node5&#45;&gt;Node4 -->
<g id="edge4_Node000004_Node000005" class="edge">
<title>Node5&#45;&gt;Node4</title>
<g id="a_edge4_Node000004_Node000005"><a xlink:title=" ">
<path fill="none" stroke="#8b1a1a" d="M354.89,-354.26C391.03,-347.28 433.1,-332.76 459,-302.62 487.3,-269.71 452.74,-242.62 477,-206.62 479.61,-202.75 482.54,-199.05 485.7,-195.54"/>
<polygon fill="#8b1a1a" stroke="#8b1a1a" points="354.62,-350.93 345.38,-356.12 355.84,-357.83 354.62,-350.93"/>
</a>
</g>
</g>
<!-- Node19 -->
<g id="Node000019" class="node">
<title>Node19</title>
<g id="a_Node000019"><a xlink:href="classtsl_1_1detail__robin__hash_1_1robin__hash.html" target="_top" xlink:title=" ">
<polygon fill="white" stroke="#666666" points="685,-325.25 477,-325.25 477,-216 685,-216 685,-325.25"/>
<text text-anchor="start" x="485" y="-311.75" font-family="Helvetica,sans-Serif" font-size="10.00">tsl::detail_robin_hash</text>
<text text-anchor="start" x="485" y="-300.5" font-family="Helvetica,sans-Serif" font-size="10.00">::robin_hash&lt; std::pair</text>
<text text-anchor="start" x="485" y="-289.25" font-family="Helvetica,sans-Serif" font-size="10.00">&lt; std::string, Field &gt;,</text>
<text text-anchor="start" x="485" y="-278" font-family="Helvetica,sans-Serif" font-size="10.00"> KeySelect, ValueSelect,</text>
<text text-anchor="start" x="485" y="-266.75" font-family="Helvetica,sans-Serif" font-size="10.00"> std::hash&lt; std::string &gt;,</text>
<text text-anchor="start" x="485" y="-255.5" font-family="Helvetica,sans-Serif" font-size="10.00"> std::equal_to&lt; std::string</text>
<text text-anchor="start" x="485" y="-244.25" font-family="Helvetica,sans-Serif" font-size="10.00"> &gt;, std::allocator&lt; std::pair</text>
<text text-anchor="start" x="485" y="-233" font-family="Helvetica,sans-Serif" font-size="10.00">&lt; std::string, Field &gt; &gt;, false,</text>
<text text-anchor="middle" x="581" y="-221.75" font-family="Helvetica,sans-Serif" font-size="10.00"> tsl::rh::power_of_two_growth_policy&lt; 2 &gt; &gt;</text>
</a>
</g>
</g>
<!-- Node5&#45;&gt;Node19 -->
<g id="edge20_Node000019_Node000005" class="edge">
<title>Node5&#45;&gt;Node19</title>
<g id="a_edge20_Node000019_Node000005"><a xlink:title=" ">
<path fill="none" stroke="#8b1a1a" d="M355.19,-369.88C387.48,-371.8 426,-370.56 459,-359.62 480.91,-352.37 502.13,-339.49 520.52,-325.75"/>
<polygon fill="#8b1a1a" stroke="#8b1a1a" points="355.72,-366.34 345.5,-369.12 355.22,-373.32 355.72,-366.34"/>
</a>
</g>
</g>
<!-- Node6 -->
<g id="Node000006" class="node">
<title>Node6</title>
<g id="a_Node000006"><a xlink:title=" ">
<polygon fill="white" stroke="#666666" points="332.62,-326.88 237.88,-326.88 237.88,-296.38 332.62,-296.38 332.62,-326.88"/>
<text text-anchor="start" x="245.88" y="-313.38" font-family="Helvetica,sans-Serif" font-size="10.00">std::equal_to&lt; std</text>
<text text-anchor="middle" x="285.25" y="-302.12" font-family="Helvetica,sans-Serif" font-size="10.00">::string &gt;</text>
</a>
</g>
</g>
<!-- Node6&#45;&gt;Node4 -->
<g id="edge5_Node000004_Node000006" class="edge">
<title>Node6&#45;&gt;Node4</title>
<g id="a_edge5_Node000004_Node000006"><a xlink:title=" ">
<path fill="none" stroke="#8b1a1a" d="M342.41,-294.36C350.76,-289.72 358.54,-283.91 364.5,-276.62 387.58,-248.42 357.45,-223.09 382.5,-196.62 389.76,-188.96 432.61,-176.39 476.56,-165.1"/>
<polygon fill="#8b1a1a" stroke="#8b1a1a" points="341.22,-291.54 333.81,-299.11 344.33,-297.81 341.22,-291.54"/>
</a>
</g>
</g>
<!-- Node6&#45;&gt;Node19 -->
<g id="edge21_Node000019_Node000006" class="edge">
<title>Node6&#45;&gt;Node19</title>
<g id="a_edge21_Node000019_Node000006"><a xlink:title=" ">
<path fill="none" stroke="#8b1a1a" d="M343.68,-311.59C377.44,-310.84 420.85,-308.6 459,-302.62 464.8,-301.72 470.72,-300.65 476.67,-299.45"/>
<polygon fill="#8b1a1a" stroke="#8b1a1a" points="344.01,-308.11 334.08,-311.79 344.14,-315.11 344.01,-308.11"/>
</a>
</g>
</g>
<!-- Node7 -->
<g id="Node000007" class="node">
<title>Node7</title>
<g id="a_Node000007"><a xlink:href="classtsl_1_1rh_1_1power__of__two__growth__policy.html" target="_top" xlink:title=" ">
<polygon fill="white" stroke="#666666" points="364.5,-206.88 206,-206.88 206,-176.38 364.5,-176.38 364.5,-206.88"/>
<text text-anchor="start" x="214" y="-193.38" font-family="Helvetica,sans-Serif" font-size="10.00">tsl::rh::power_of_two</text>
<text text-anchor="middle" x="285.25" y="-182.12" font-family="Helvetica,sans-Serif" font-size="10.00">_growth_policy&lt; GrowthFactor &gt;</text>
</a>
</g>
</g>
<!-- Node7&#45;&gt;Node4 -->
<g id="edge6_Node000004_Node000007" class="edge">
<title>Node7&#45;&gt;Node4</title>
<g id="a_edge6_Node000004_Node000007"><a xlink:title=" ">
<path fill="none" stroke="#8b1a1a" d="M306.81,-168.1C324.68,-149.58 352.38,-125.19 382.5,-114.62 412.2,-104.21 445.74,-104.48 476.64,-109.16"/>
<polygon fill="#8b1a1a" stroke="#8b1a1a" points="304.59,-165.43 300.32,-175.13 309.7,-170.21 304.59,-165.43"/>
</a>
</g>
</g>
<!-- Node7&#45;&gt;Node19 -->
<g id="edge22_Node000019_Node000007" class="edge">
<title>Node7&#45;&gt;Node19</title>
<g id="a_edge22_Node000019_Node000007"><a xlink:title=" ">
<path fill="none" stroke="#8b1a1a" d="M334.45,-211.2C349.67,-216.96 366.65,-222.96 382.5,-227.62 412.71,-236.51 446.02,-244.46 476.53,-251.02"/>
<polygon fill="#8b1a1a" stroke="#8b1a1a" points="335.82,-207.59 325.23,-207.27 333.31,-214.12 335.82,-207.59"/>
</a>
</g>
</g>
<!-- Node8 -->
<g id="Node000008" class="node">
<title>Node8</title>
<g id="a_Node000008"><a xlink:href="classtsl_1_1detail__robin__hash_1_1bucket__entry.html" target="_top" xlink:title=" ">
<polygon fill="white" stroke="#666666" points="352.88,-113.5 217.62,-113.5 217.62,-71.75 352.88,-71.75 352.88,-113.5"/>
<text text-anchor="start" x="225.62" y="-100" font-family="Helvetica,sans-Serif" font-size="10.00">tsl::detail_robin_hash</text>
<text text-anchor="start" x="225.62" y="-88.75" font-family="Helvetica,sans-Serif" font-size="10.00">::bucket_entry&lt; ValueType,</text>
<text text-anchor="middle" x="285.25" y="-77.5" font-family="Helvetica,sans-Serif" font-size="10.00"> StoreHash &gt;</text>
</a>
</g>
</g>
<!-- Node8&#45;&gt;Node4 -->
<g id="edge7_Node000004_Node000008" class="edge">
<title>Node8&#45;&gt;Node4</title>
<g id="a_edge7_Node000004_Node000008"><a xlink:title=" ">
<path fill="none" stroke="#9a32cd" stroke-dasharray="5,2" d="M363.93,-73.57C393.97,-69.13 428.42,-67.65 459,-75.38 469.07,-77.92 479.21,-81.48 489.1,-85.64"/>
<polygon fill="#9a32cd" stroke="#9a32cd" points="363.39,-70.27 354.08,-75.33 364.51,-77.18 363.39,-70.27"/>
</a>
</g>
<text text-anchor="middle" x="420.75" y="-76.38" font-family="Helvetica,sans-Serif" font-size="10.00" fill="grey"> m_buckets</text>
</g>
<!-- Node8&#45;&gt;Node19 -->
<g id="edge23_Node000019_Node000008" class="edge">
<title>Node8&#45;&gt;Node19</title>
<g id="a_edge23_Node000019_Node000008"><a xlink:title=" ">
<path fill="none" stroke="#9a32cd" stroke-dasharray="5,2" d="M316.75,-121.11C335,-137.34 359.13,-157.41 382.5,-172.62 399.98,-184.01 438.38,-203.46 476.72,-222.05"/>
<polygon fill="#9a32cd" stroke="#9a32cd" points="319.57,-119.05 309.8,-114.96 314.89,-124.25 319.57,-119.05"/>
</a>
</g>
<text text-anchor="middle" x="420.75" y="-212.38" font-family="Helvetica,sans-Serif" font-size="10.00" fill="grey"> m_buckets</text>
</g>
<!-- Node9 -->
<g id="Node000009" class="node">
<title>Node9</title>
<g id="a_Node000009"><a xlink:href="classtsl_1_1detail__robin__hash_1_1bucket__entry__hash.html" target="_top" xlink:title=" ">
<polygon fill="white" stroke="#666666" points="169,-107.88 0,-107.88 0,-77.38 169,-77.38 169,-107.88"/>
<text text-anchor="start" x="8" y="-94.38" font-family="Helvetica,sans-Serif" font-size="10.00">tsl::detail_robin_hash</text>
<text text-anchor="middle" x="84.5" y="-83.12" font-family="Helvetica,sans-Serif" font-size="10.00">::bucket_entry_hash&lt; StoreHash &gt;</text>
</a>
</g>
</g>
<!-- Node9&#45;&gt;Node8 -->
<g id="edge8_Node000008_Node000009" class="edge">
<title>Node9&#45;&gt;Node8</title>
<g id="a_edge8_Node000008_Node000009"><a xlink:title=" ">
<path fill="none" stroke="#63b8ff" d="M180.44,-92.62C192.93,-92.62 205.52,-92.62 217.41,-92.62"/>
<polygon fill="#63b8ff" stroke="#63b8ff" points="180.5,-89.13 170.5,-92.62 180.5,-96.13 180.5,-89.13"/>
</a>
</g>
</g>
<!-- Node10 -->
<g id="Node000010" class="node">
<title>Node10</title>
<g id="a_Node000010"><a xlink:title=" ">
<polygon fill="white" stroke="#666666" points="306.38,-267.25 264.12,-267.25 264.12,-248 306.38,-248 306.38,-267.25"/>
<text text-anchor="middle" x="285.25" y="-253.75" font-family="Helvetica,sans-Serif" font-size="10.00">size_t</text>
</a>
</g>
</g>
<!-- Node10&#45;&gt;Node4 -->
<g id="edge9_Node000004_Node000010" class="edge">
<title>Node10&#45;&gt;Node4</title>
<g id="a_edge9_Node000004_Node000010"><a xlink:title=" ">
<path fill="none" stroke="#9a32cd" stroke-dasharray="5,2" d="M317.08,-248.16C333.52,-241.58 352.73,-231.15 364.5,-215.62 386.72,-186.33 353.81,-157.87 382.5,-134.88 408.6,-113.96 443.46,-109.81 476.63,-112.68"/>
<polygon fill="#9a32cd" stroke="#9a32cd" points="315.96,-245.21 307.79,-251.95 318.38,-251.78 315.96,-245.21"/>
</a>
</g>
<text text-anchor="middle" x="420.75" y="-158.88" font-family="Helvetica,sans-Serif" font-size="10.00" fill="grey"> m_bucket_count</text>
<text text-anchor="middle" x="420.75" y="-147.62" font-family="Helvetica,sans-Serif" font-size="10.00" fill="grey">m_load_threshold</text>
<text text-anchor="middle" x="420.75" y="-136.38" font-family="Helvetica,sans-Serif" font-size="10.00" fill="grey">m_nb_elements</text>
</g>
<!-- Node10&#45;&gt;Node19 -->
<g id="edge24_Node000019_Node000010" class="edge">
<title>Node10&#45;&gt;Node19</title>
<g id="a_edge24_Node000019_Node000010"><a xlink:title=" ">
<path fill="none" stroke="#9a32cd" stroke-dasharray="5,2" d="M317.21,-259C354.93,-260.66 420.6,-263.57 476.85,-266.06"/>
<polygon fill="#9a32cd" stroke="#9a32cd" points="317.59,-255.46 307.44,-258.52 317.28,-262.46 317.59,-255.46"/>
</a>
</g>
<text text-anchor="middle" x="420.75" y="-288.88" font-family="Helvetica,sans-Serif" font-size="10.00" fill="grey"> m_bucket_count</text>
<text text-anchor="middle" x="420.75" y="-277.62" font-family="Helvetica,sans-Serif" font-size="10.00" fill="grey">m_load_threshold</text>
<text text-anchor="middle" x="420.75" y="-266.38" font-family="Helvetica,sans-Serif" font-size="10.00" fill="grey">m_nb_elements</text>
</g>
<!-- Node11 -->
<g id="Node000011" class="node">
<title>Node11</title>
<g id="a_Node000011"><a xlink:href="classIoss_1_1ElementTopology.html" target="_top" xlink:title="Represents an element topology.">
<polygon fill="white" stroke="#666666" points="1106.25,-84.25 990.5,-84.25 990.5,-65 1106.25,-65 1106.25,-84.25"/>
<text text-anchor="middle" x="1048.38" y="-70.75" font-family="Helvetica,sans-Serif" font-size="10.00">Ioss::ElementTopology</text>
</a>
</g>
</g>
<!-- Node11&#45;&gt;Node1 -->
<g id="edge10_Node000001_Node000011" class="edge">
<title>Node11&#45;&gt;Node1</title>
<g id="a_edge10_Node000001_Node000011"><a xlink:title=" ">
<path fill="none" stroke="#9a32cd" stroke-dasharray="5,2" d="M1117.2,-81.09C1149.54,-84.69 1188.67,-89.78 1223.5,-96.38 1232.46,-98.07 1242.04,-100.3 1250.96,-102.55"/>
<polygon fill="#9a32cd" stroke="#9a32cd" points="1117.83,-77.53 1107.51,-79.93 1117.08,-84.49 1117.83,-77.53"/>
</a>
</g>
<text text-anchor="middle" x="1173.88" y="-97.38" font-family="Helvetica,sans-Serif" font-size="10.00" fill="grey"> commonSideTopology</text>
</g>
<!-- Node12 -->
<g id="Node000012" class="node">
<title>Node12</title>
<g id="a_Node000012"><a xlink:href="classstd_1_1basic__string.html" target="_top" xlink:title=" ">
<polygon fill="white" stroke="#666666" points="854,-89.88 745.75,-89.88 745.75,-59.38 854,-59.38 854,-89.88"/>
<text text-anchor="start" x="753.75" y="-76.38" font-family="Helvetica,sans-Serif" font-size="10.00">std::basic_string&lt;</text>
<text text-anchor="middle" x="799.88" y="-65.12" font-family="Helvetica,sans-Serif" font-size="10.00"> Elem, Traits, Alloc &gt;</text>
</a>
</g>
</g>
<!-- Node12&#45;&gt;Node11 -->
<g id="edge11_Node000011_Node000012" class="edge">
<title>Node12&#45;&gt;Node11</title>
<g id="a_edge11_Node000011_Node000012"><a xlink:title=" ">
<path fill="none" stroke="#9a32cd" stroke-dasharray="5,2" d="M865,-74.62C903.74,-74.62 952.7,-74.62 990.13,-74.62"/>
<polygon fill="#9a32cd" stroke="#9a32cd" points="865.36,-71.13 855.36,-74.62 865.36,-78.13 865.36,-71.13"/>
</a>
</g>
<text text-anchor="middle" x="922.25" y="-87.62" font-family="Helvetica,sans-Serif" font-size="10.00" fill="grey"> masterElementName_</text>
<text text-anchor="middle" x="922.25" y="-76.38" font-family="Helvetica,sans-Serif" font-size="10.00" fill="grey">name_</text>
</g>
<!-- Node13 -->
<g id="Node000013" class="node">
<title>Node13</title>
<g id="a_Node000013"><a xlink:href="classIoss_1_1Map.html" target="_top" xlink:title=" ">
<polygon fill="white" stroke="#666666" points="1078.12,-19.25 1018.62,-19.25 1018.62,0 1078.12,0 1078.12,-19.25"/>
<text text-anchor="middle" x="1048.38" y="-5.75" font-family="Helvetica,sans-Serif" font-size="10.00">Ioss::Map</text>
</a>
</g>
</g>
<!-- Node13&#45;&gt;Node1 -->
<g id="edge12_Node000001_Node000013" class="edge">
<title>Node13&#45;&gt;Node1</title>
<g id="a_edge12_Node000001_Node000013"><a xlink:title=" ">
<path fill="none" stroke="#9a32cd" stroke-dasharray="5,2" d="M1089.47,-6.68C1126.59,-5.78 1182.14,-9.21 1223.5,-32.62 1252.84,-49.24 1273.68,-85.26 1282.47,-102.73"/>
<polygon fill="#9a32cd" stroke="#9a32cd" points="1089.44,-3.22 1079.57,-7.08 1089.69,-10.21 1089.44,-3.22"/>
</a>
</g>
<text text-anchor="middle" x="1173.88" y="-68.12" font-family="Helvetica,sans-Serif" font-size="10.00" fill="grey"> edgeMap</text>
<text text-anchor="middle" x="1173.88" y="-56.88" font-family="Helvetica,sans-Serif" font-size="10.00" fill="grey">elemMap</text>
<text text-anchor="middle" x="1173.88" y="-45.62" font-family="Helvetica,sans-Serif" font-size="10.00" fill="grey">faceMap</text>
<text text-anchor="middle" x="1173.88" y="-34.38" font-family="Helvetica,sans-Serif" font-size="10.00" fill="grey">nodeMap</text>
</g>
<!-- Node14 -->
<g id="Node000014" class="node">
<title>Node14</title>
<g id="a_Node000014"><a xlink:href="classIoss_1_1ParallelUtils.html" target="_top" xlink:title=" ">
<polygon fill="white" stroke="#666666" points="1095,-121.25 1001.75,-121.25 1001.75,-102 1095,-102 1095,-121.25"/>
<text text-anchor="middle" x="1048.38" y="-107.75" font-family="Helvetica,sans-Serif" font-size="10.00">Ioss::ParallelUtils</text>
</a>
</g>
</g>
<!-- Node14&#45;&gt;Node1 -->
<g id="edge13_Node000001_Node000014" class="edge">
<title>Node14&#45;&gt;Node1</title>
<g id="a_edge13_Node000001_Node000014"><a xlink:title=" ">
<path fill="none" stroke="#9a32cd" stroke-dasharray="5,2" d="M1106.47,-111.87C1147.72,-112.04 1202.7,-112.27 1241.13,-112.43"/>
<polygon fill="#9a32cd" stroke="#9a32cd" points="1106.51,-108.36 1096.5,-111.82 1106.48,-115.36 1106.51,-108.36"/>
</a>
</g>
<text text-anchor="middle" x="1173.88" y="-113.38" font-family="Helvetica,sans-Serif" font-size="10.00" fill="grey"> util_</text>
</g>
<!-- Node15 -->
<g id="Node000015" class="node">
<title>Node15</title>
<g id="a_Node000015"><a xlink:href="classIoss_1_1Region.html" target="_top" xlink:title="A grouping entity that contains other grouping entities.">
<polygon fill="white" stroke="#666666" points="1632.5,-134.25 1561,-134.25 1561,-115 1632.5,-115 1632.5,-134.25"/>
<text text-anchor="middle" x="1596.75" y="-120.75" font-family="Helvetica,sans-Serif" font-size="10.00">Ioss::Region</text>
</a>
</g>
</g>
<!-- Node15&#45;&gt;Node1 -->
<g id="edge14_Node000001_Node000015" class="edge">
<title>Node15&#45;&gt;Node1</title>
<g id="a_edge14_Node000001_Node000015"><a xlink:title=" ">
<path fill="none" stroke="#9a32cd" stroke-dasharray="5,2" d="M1549.86,-122.83C1491.95,-120.56 1392.94,-116.69 1335.03,-114.42"/>
<polygon fill="#9a32cd" stroke="#9a32cd" points="1549.39,-126.35 1559.52,-123.25 1549.67,-119.36 1549.39,-126.35"/>
</a>
</g>
<text text-anchor="middle" x="1471.38" y="-123.38" font-family="Helvetica,sans-Serif" font-size="10.00" fill="grey"> region_</text>
</g>
<!-- Node16&#45;&gt;Node15 -->
<g id="edge15_Node000015_Node000016" class="edge">
<title>Node16&#45;&gt;Node15</title>
<g id="a_edge15_Node000015_Node000016"><a xlink:title=" ">
<path fill="none" stroke="#63b8ff" d="M1516.23,-148.47C1531.31,-143.95 1547.94,-138.96 1562.08,-134.72"/>
<polygon fill="#63b8ff" stroke="#63b8ff" points="1515.66,-145.29 1507.09,-151.51 1517.67,-151.99 1515.66,-145.29"/>
</a>
</g>
</g>
<!-- Node17 -->
<g id="Node000017" class="node">
<title>Node17</title>
<g id="a_Node000017"><a xlink:href="classIoss_1_1FieldManager.html" target="_top" xlink:title="A collection of Ioss::Field objects.">
<polygon fill="white" stroke="#666666" points="1223.5,-263.25 1124.25,-263.25 1124.25,-244 1223.5,-244 1223.5,-263.25"/>
<text text-anchor="middle" x="1173.88" y="-249.75" font-family="Helvetica,sans-Serif" font-size="10.00">Ioss::FieldManager</text>
</a>
</g>
</g>
<!-- Node17&#45;&gt;Node16 -->
<g id="edge17_Node000016_Node000017" class="edge">
<title>Node17&#45;&gt;Node16</title>
<g id="a_edge17_Node000016_Node000017"><a xlink:title=" ">
<path fill="none" stroke="#9a32cd" stroke-dasharray="5,2" d="M1220.3,-240.52C1266.02,-227.2 1338.51,-205.71 1400.75,-185.62 1414.38,-181.23 1429.41,-176.08 1442,-171.69"/>
<polygon fill="#9a32cd" stroke="#9a32cd" points="1219.46,-237.41 1210.83,-243.57 1221.41,-244.13 1219.46,-237.41"/>
</a>
</g>
<text text-anchor="middle" x="1288.12" y="-235.38" font-family="Helvetica,sans-Serif" font-size="10.00" fill="grey"> fields</text>
</g>
<!-- Node18 -->
<g id="Node000018" class="node">
<title>Node18</title>
<g id="a_Node000018"><a xlink:href="classtsl_1_1robin__map.html" target="_top" xlink:title=" ">
<polygon fill="white" stroke="#666666" points="849.88,-283.88 749.88,-283.88 749.88,-253.38 849.88,-253.38 849.88,-283.88"/>
<text text-anchor="start" x="757.88" y="-270.38" font-family="Helvetica,sans-Serif" font-size="10.00">tsl::robin_map&lt; std</text>
<text text-anchor="middle" x="799.88" y="-259.12" font-family="Helvetica,sans-Serif" font-size="10.00">::string, Field &gt;</text>
</a>
</g>
</g>
<!-- Node18&#45;&gt;Node17 -->
<g id="edge18_Node000017_Node000018" class="edge">
<title>Node18&#45;&gt;Node17</title>
<g id="a_edge18_Node000017_Node000018"><a xlink:title=" ">
<path fill="none" stroke="#9a32cd" stroke-dasharray="5,2" d="M861.14,-266.2C934.28,-263.25 1056.21,-258.33 1123.86,-255.6"/>
<polygon fill="#9a32cd" stroke="#9a32cd" points="861.12,-262.73 851.27,-266.63 861.41,-269.73 861.12,-262.73"/>
</a>
</g>
<text text-anchor="middle" x="922.25" y="-267.38" font-family="Helvetica,sans-Serif" font-size="10.00" fill="grey"> fields</text>
</g>
<!-- Node19&#45;&gt;Node18 -->
<g id="edge19_Node000018_Node000019" class="edge">
<title>Node19&#45;&gt;Node18</title>
<g id="a_edge19_Node000018_Node000019"><a xlink:title=" ">
<path fill="none" stroke="#9a32cd" stroke-dasharray="5,2" d="M696.11,-269.57C714.89,-269.4 733.44,-269.23 749.5,-269.08"/>
<polygon fill="#9a32cd" stroke="#9a32cd" points="696.32,-266.08 686.36,-269.67 696.39,-273.08 696.32,-266.08"/>
</a>
</g>
<text text-anchor="middle" x="715.38" y="-270.38" font-family="Helvetica,sans-Serif" font-size="10.00" fill="grey"> m_ht</text>
</g>
</g>
</svg>
