<?xml version="1.0" encoding="UTF-8" standalone="no"?>
<!DOCTYPE svg PUBLIC "-//W3C//DTD SVG 1.1//EN"
 "http://www.w3.org/Graphics/SVG/1.1/DTD/svg11.dtd">
<!-- Generated by graphviz version 7.0.2 (20221119.0110)
 -->
<!-- Title: Ioss::GroupingEntity Pages: 1 -->
<svg width="1961pt" height="559pt"
 viewBox="0.00 0.00 1961.00 558.50" xmlns="http://www.w3.org/2000/svg" xmlns:xlink="http://www.w3.org/1999/xlink">
<g id="graph0" class="graph" transform="scale(1 1) rotate(0) translate(4 554.5)">
<title>Ioss::GroupingEntity</title>
<!-- Node1 -->
<g id="node1" class="node">
<title>Node1</title>
<g id="a_node1"><a xlink:title="Base class for all &#39;grouping&#39; entities. The following derived classes are typical:">
<polygon fill="#999999" stroke="#666666" points="1468.5,-395.5 1362.5,-395.5 1362.5,-376.5 1468.5,-376.5 1468.5,-395.5"/>
<text text-anchor="middle" x="1415.5" y="-383.5" font-family="Helvetica,sans-Serif" font-size="10.00">Ioss::GroupingEntity</text>
</a>
</g>
</g>
<!-- Node27 -->
<g id="node27" class="node">
<title>Node27</title>
<g id="a_node27"><a xlink:href="classIoss_1_1Region.html" target="_top" xlink:title="A grouping entity that contains other grouping entities.">
<polygon fill="white" stroke="#666666" points="1701,-407.5 1629,-407.5 1629,-388.5 1701,-388.5 1701,-407.5"/>
<text text-anchor="middle" x="1665" y="-395.5" font-family="Helvetica,sans-Serif" font-size="10.00">Ioss::Region</text>
</a>
</g>
</g>
<!-- Node1&#45;&gt;Node27 -->
<g id="edge34" class="edge">
<title>Node1&#45;&gt;Node27</title>
<path fill="none" stroke="#63b8ff" d="M1480.34,-389.1C1527.58,-391.39 1590.17,-394.42 1628.73,-396.29"/>
<polygon fill="#63b8ff" stroke="#63b8ff" points="1480.66,-385.61 1470.5,-388.62 1480.32,-392.6 1480.66,-385.61"/>
</g>
<!-- Node2 -->
<g id="node2" class="node">
<title>Node2</title>
<g id="a_node2"><a xlink:href="classIoss_1_1PropertyManager.html" target="_top" xlink:title="A collection of Ioss::Property objects.">
<polygon fill="white" stroke="#666666" points="1254.5,-354.5 1138.5,-354.5 1138.5,-335.5 1254.5,-335.5 1254.5,-354.5"/>
<text text-anchor="middle" x="1196.5" y="-342.5" font-family="Helvetica,sans-Serif" font-size="10.00">Ioss::PropertyManager</text>
</a>
</g>
</g>
<!-- Node2&#45;&gt;Node1 -->
<g id="edge1" class="edge">
<title>Node2&#45;&gt;Node1</title>
<path fill="none" stroke="#9a32cd" stroke-dasharray="5,2" d="M1261.37,-357.07C1293.48,-363.13 1331.89,-370.39 1362.21,-376.12"/>
<polygon fill="#9a32cd" stroke="#9a32cd" points="1262.27,-353.68 1251.79,-355.26 1260.97,-360.55 1262.27,-353.68"/>
<text text-anchor="middle" x="1320" y="-374" font-family="Helvetica,sans-Serif" font-size="10.00"> properties</text>
</g>
<!-- Node14 -->
<g id="node14" class="node">
<title>Node14</title>
<g id="a_node14"><a xlink:href="classIoss_1_1DatabaseIO.html" target="_top" xlink:title="An input or output Database.">
<polygon fill="white" stroke="#666666" points="1953,-306.5 1859,-306.5 1859,-287.5 1953,-287.5 1953,-306.5"/>
<text text-anchor="middle" x="1906" y="-294.5" font-family="Helvetica,sans-Serif" font-size="10.00">Ioss::DatabaseIO</text>
</a>
</g>
</g>
<!-- Node2&#45;&gt;Node14 -->
<g id="edge19" class="edge">
<title>Node2&#45;&gt;Node14</title>
<path fill="none" stroke="#9a32cd" stroke-dasharray="5,2" d="M1266.02,-340.35C1409.22,-330.64 1736.99,-308.4 1858.53,-300.15"/>
<polygon fill="#9a32cd" stroke="#9a32cd" points="1266.05,-336.84 1256.31,-341.01 1266.52,-343.83 1266.05,-336.84"/>
<text text-anchor="middle" x="1538.5" y="-327" font-family="Helvetica,sans-Serif" font-size="10.00"> properties</text>
</g>
<!-- Node3 -->
<g id="node3" class="node">
<title>Node3</title>
<g id="a_node3"><a xlink:href="classtsl_1_1robin__map.html" target="_top" xlink:title=" ">
<polygon fill="white" stroke="#666666" points="989,-360 888,-360 888,-330 989,-330 989,-360"/>
<text text-anchor="start" x="896" y="-348" font-family="Helvetica,sans-Serif" font-size="10.00">tsl::robin_map&lt; std</text>
<text text-anchor="middle" x="938.5" y="-337" font-family="Helvetica,sans-Serif" font-size="10.00">::string, Property &gt;</text>
</a>
</g>
</g>
<!-- Node3&#45;&gt;Node2 -->
<g id="edge2" class="edge">
<title>Node3&#45;&gt;Node2</title>
<path fill="none" stroke="#9a32cd" stroke-dasharray="5,2" d="M1000.85,-345C1042.52,-345 1097.25,-345 1138.06,-345"/>
<polygon fill="#9a32cd" stroke="#9a32cd" points="1000.98,-341.5 990.98,-345 1000.98,-348.5 1000.98,-341.5"/>
<text text-anchor="middle" x="1066" y="-348" font-family="Helvetica,sans-Serif" font-size="10.00"> m_properties</text>
</g>
<!-- Node4 -->
<g id="node4" class="node">
<title>Node4</title>
<g id="a_node4"><a xlink:href="classtsl_1_1detail__robin__hash_1_1robin__hash.html" target="_top" xlink:title=" ">
<polygon fill="white" stroke="#666666" points="703.5,-398.5 494.5,-398.5 494.5,-291.5 703.5,-291.5 703.5,-398.5"/>
<text text-anchor="start" x="502.5" y="-386.5" font-family="Helvetica,sans-Serif" font-size="10.00">tsl::detail_robin_hash</text>
<text text-anchor="start" x="502.5" y="-375.5" font-family="Helvetica,sans-Serif" font-size="10.00">::robin_hash&lt; std::pair</text>
<text text-anchor="start" x="502.5" y="-364.5" font-family="Helvetica,sans-Serif" font-size="10.00">&lt; std::string, Property</text>
<text text-anchor="start" x="502.5" y="-353.5" font-family="Helvetica,sans-Serif" font-size="10.00"> &gt;, KeySelect, ValueSelect,</text>
<text text-anchor="start" x="502.5" y="-342.5" font-family="Helvetica,sans-Serif" font-size="10.00"> std::hash&lt; std::string &gt;,</text>
<text text-anchor="start" x="502.5" y="-331.5" font-family="Helvetica,sans-Serif" font-size="10.00"> std::equal_to&lt; std::string</text>
<text text-anchor="start" x="502.5" y="-320.5" font-family="Helvetica,sans-Serif" font-size="10.00"> &gt;, std::allocator&lt; std::pair</text>
<text text-anchor="start" x="502.5" y="-309.5" font-family="Helvetica,sans-Serif" font-size="10.00">&lt; std::string, Property &gt; &gt;, false,</text>
<text text-anchor="middle" x="599" y="-298.5" font-family="Helvetica,sans-Serif" font-size="10.00"> tsl::rh::power_of_two_growth_policy&lt; 2 &gt; &gt;</text>
</a>
</g>
</g>
<!-- Node4&#45;&gt;Node3 -->
<g id="edge3" class="edge">
<title>Node4&#45;&gt;Node3</title>
<path fill="none" stroke="#9a32cd" stroke-dasharray="5,2" d="M714.82,-345C773.74,-345 842.47,-345 887.82,-345"/>
<polygon fill="#9a32cd" stroke="#9a32cd" points="715.07,-341.5 705.07,-345 715.07,-348.5 715.07,-341.5"/>
<text text-anchor="middle" x="789" y="-348" font-family="Helvetica,sans-Serif" font-size="10.00"> m_ht</text>
</g>
<!-- Node5 -->
<g id="node5" class="node">
<title>Node5</title>
<g id="a_node5"><a xlink:title=" ">
<polygon fill="white" stroke="#666666" points="346,-550.5 227,-550.5 227,-531.5 346,-531.5 346,-550.5"/>
<text text-anchor="middle" x="286.5" y="-538.5" font-family="Helvetica,sans-Serif" font-size="10.00">std::hash&lt; std::string &gt;</text>
</a>
</g>
</g>
<!-- Node5&#45;&gt;Node4 -->
<g id="edge4" class="edge">
<title>Node5&#45;&gt;Node4</title>
<path fill="none" stroke="#8b1a1a" d="M357.45,-539.73C393.15,-535.35 434.52,-523.9 461,-496 488.48,-467.05 455.07,-439.95 479,-408 483.41,-402.11 488.54,-396.71 494.15,-391.78"/>
<polygon fill="#8b1a1a" stroke="#8b1a1a" points="357.18,-536.24 347.59,-540.76 357.9,-543.2 357.18,-536.24"/>
</g>
<!-- Node13 -->
<g id="node13" class="node">
<title>Node13</title>
<g id="a_node13"><a xlink:href="classtsl_1_1detail__robin__hash_1_1robin__hash.html" target="_top" xlink:title=" ">
<polygon fill="white" stroke="#666666" points="703.5,-523.5 494.5,-523.5 494.5,-416.5 703.5,-416.5 703.5,-523.5"/>
<text text-anchor="start" x="502.5" y="-511.5" font-family="Helvetica,sans-Serif" font-size="10.00">tsl::detail_robin_hash</text>
<text text-anchor="start" x="502.5" y="-500.5" font-family="Helvetica,sans-Serif" font-size="10.00">::robin_hash&lt; std::pair</text>
<text text-anchor="start" x="502.5" y="-489.5" font-family="Helvetica,sans-Serif" font-size="10.00">&lt; std::string, Field &gt;,</text>
<text text-anchor="start" x="502.5" y="-478.5" font-family="Helvetica,sans-Serif" font-size="10.00"> KeySelect, ValueSelect,</text>
<text text-anchor="start" x="502.5" y="-467.5" font-family="Helvetica,sans-Serif" font-size="10.00"> std::hash&lt; std::string &gt;,</text>
<text text-anchor="start" x="502.5" y="-456.5" font-family="Helvetica,sans-Serif" font-size="10.00"> std::equal_to&lt; std::string</text>
<text text-anchor="start" x="502.5" y="-445.5" font-family="Helvetica,sans-Serif" font-size="10.00"> &gt;, std::allocator&lt; std::pair</text>
<text text-anchor="start" x="502.5" y="-434.5" font-family="Helvetica,sans-Serif" font-size="10.00">&lt; std::string, Field &gt; &gt;, false,</text>
<text text-anchor="middle" x="599" y="-423.5" font-family="Helvetica,sans-Serif" font-size="10.00"> tsl::rh::power_of_two_growth_policy&lt; 2 &gt; &gt;</text>
</a>
</g>
</g>
<!-- Node5&#45;&gt;Node13 -->
<g id="edge13" class="edge">
<title>Node5&#45;&gt;Node13</title>
<path fill="none" stroke="#8b1a1a" d="M357.63,-547.92C389.58,-549.22 427.64,-548.13 461,-540 476.31,-536.27 491.84,-530.54 506.68,-523.93"/>
<polygon fill="#8b1a1a" stroke="#8b1a1a" points="357.83,-544.43 347.67,-547.42 357.48,-551.42 357.83,-544.43"/>
</g>
<!-- Node6 -->
<g id="node6" class="node">
<title>Node6</title>
<g id="a_node6"><a xlink:title=" ">
<polygon fill="white" stroke="#666666" points="334,-335 239,-335 239,-305 334,-305 334,-335"/>
<text text-anchor="start" x="247" y="-323" font-family="Helvetica,sans-Serif" font-size="10.00">std::equal_to&lt; std</text>
<text text-anchor="middle" x="286.5" y="-312" font-family="Helvetica,sans-Serif" font-size="10.00">::string &gt;</text>
</a>
</g>
</g>
<!-- Node6&#45;&gt;Node4 -->
<g id="edge5" class="edge">
<title>Node6&#45;&gt;Node4</title>
<path fill="none" stroke="#8b1a1a" d="M345.54,-319.3C358.21,-319.18 371.56,-319.06 384,-319 418.22,-318.82 426.93,-315.8 461,-319 471.85,-320.02 483.11,-321.48 494.32,-323.21"/>
<polygon fill="#8b1a1a" stroke="#8b1a1a" points="345.6,-315.8 335.64,-319.4 345.68,-322.8 345.6,-315.8"/>
</g>
<!-- Node6&#45;&gt;Node13 -->
<g id="edge14" class="edge">
<title>Node6&#45;&gt;Node13</title>
<path fill="none" stroke="#8b1a1a" d="M343.72,-341.02C352.12,-346.17 359.96,-352.44 366,-360 386.32,-385.44 360.21,-408.78 384,-431 400.45,-446.37 448.01,-455.88 494.13,-461.66"/>
<polygon fill="#8b1a1a" stroke="#8b1a1a" points="345.47,-337.99 335.02,-336.21 342.08,-344.11 345.47,-337.99"/>
</g>
<!-- Node7 -->
<g id="node7" class="node">
<title>Node7</title>
<g id="a_node7"><a xlink:href="classtsl_1_1rh_1_1power__of__two__growth__policy.html" target="_top" xlink:title=" ">
<polygon fill="white" stroke="#666666" points="366,-399 207,-399 207,-369 366,-369 366,-399"/>
<text text-anchor="start" x="215" y="-387" font-family="Helvetica,sans-Serif" font-size="10.00">tsl::rh::power_of_two</text>
<text text-anchor="middle" x="286.5" y="-376" font-family="Helvetica,sans-Serif" font-size="10.00">_growth_policy&lt; GrowthFactor &gt;</text>
</a>
</g>
</g>
<!-- Node7&#45;&gt;Node4 -->
<g id="edge6" class="edge">
<title>Node7&#45;&gt;Node4</title>
<path fill="none" stroke="#8b1a1a" d="M326.32,-363.81C343.5,-355.97 364.26,-347.93 384,-344 419.44,-336.95 458.83,-335.4 494.06,-336.19"/>
<polygon fill="#8b1a1a" stroke="#8b1a1a" points="325.03,-360.55 317.49,-367.99 328.03,-366.88 325.03,-360.55"/>
</g>
<!-- Node7&#45;&gt;Node13 -->
<g id="edge15" class="edge">
<title>Node7&#45;&gt;Node13</title>
<path fill="none" stroke="#8b1a1a" d="M315.87,-406.46C341.47,-426.51 376.27,-453.15 384,-456 418.5,-468.72 458.22,-473.71 494.01,-475.04"/>
<polygon fill="#8b1a1a" stroke="#8b1a1a" points="318.13,-403.79 308.11,-400.36 313.81,-409.29 318.13,-403.79"/>
</g>
<!-- Node8 -->
<g id="node8" class="node">
<title>Node8</title>
<g id="a_node8"><a xlink:href="classtsl_1_1detail__robin__hash_1_1bucket__entry.html" target="_top" xlink:title=" ">
<polygon fill="white" stroke="#666666" points="354.5,-495.5 218.5,-495.5 218.5,-454.5 354.5,-454.5 354.5,-495.5"/>
<text text-anchor="start" x="226.5" y="-483.5" font-family="Helvetica,sans-Serif" font-size="10.00">tsl::detail_robin_hash</text>
<text text-anchor="start" x="226.5" y="-472.5" font-family="Helvetica,sans-Serif" font-size="10.00">::bucket_entry&lt; ValueType,</text>
<text text-anchor="middle" x="286.5" y="-461.5" font-family="Helvetica,sans-Serif" font-size="10.00"> StoreHash &gt;</text>
</a>
</g>
</g>
<!-- Node8&#45;&gt;Node4 -->
<g id="edge7" class="edge">
<title>Node8&#45;&gt;Node4</title>
<path fill="none" stroke="#9a32cd" stroke-dasharray="5,2" d="M327.03,-447.42C340.73,-436.38 355.32,-422.77 366,-408 378.38,-390.88 367,-376.54 384,-364 401.75,-350.91 448.76,-345.86 494.21,-344.21"/>
<polygon fill="#9a32cd" stroke="#9a32cd" points="325.14,-444.45 319.4,-453.36 329.44,-449.98 325.14,-444.45"/>
<text text-anchor="middle" x="422.5" y="-367" font-family="Helvetica,sans-Serif" font-size="10.00"> m_buckets</text>
</g>
<!-- Node8&#45;&gt;Node13 -->
<g id="edge16" class="edge">
<title>Node8&#45;&gt;Node13</title>
<path fill="none" stroke="#9a32cd" stroke-dasharray="5,2" d="M366.41,-480.31C372.36,-480.59 378.27,-480.82 384,-481 418.21,-482.06 426.81,-482.37 461,-481 471.73,-480.57 482.92,-479.95 494.08,-479.22"/>
<polygon fill="#9a32cd" stroke="#9a32cd" points="366.64,-476.82 356.48,-479.81 366.29,-483.81 366.64,-476.82"/>
<text text-anchor="middle" x="422.5" y="-484" font-family="Helvetica,sans-Serif" font-size="10.00"> m_buckets</text>
</g>
<!-- Node9 -->
<g id="node9" class="node">
<title>Node9</title>
<g id="a_node9"><a xlink:href="classtsl_1_1detail__robin__hash_1_1bucket__entry__hash.html" target="_top" xlink:title=" ">
<polygon fill="white" stroke="#666666" points="170,-490 0,-490 0,-460 170,-460 170,-490"/>
<text text-anchor="start" x="8" y="-478" font-family="Helvetica,sans-Serif" font-size="10.00">tsl::detail_robin_hash</text>
<text text-anchor="middle" x="85" y="-467" font-family="Helvetica,sans-Serif" font-size="10.00">::bucket_entry_hash&lt; StoreHash &gt;</text>
</a>
</g>
</g>
<!-- Node9&#45;&gt;Node8 -->
<g id="edge8" class="edge">
<title>Node9&#45;&gt;Node8</title>
<path fill="none" stroke="#63b8ff" d="M181.6,-475C193.94,-475 206.36,-475 218.11,-475"/>
<polygon fill="#63b8ff" stroke="#63b8ff" points="181.83,-471.5 171.83,-475 181.83,-478.5 181.83,-471.5"/>
</g>
<!-- Node10 -->
<g id="node10" class="node">
<title>Node10</title>
<g id="a_node10"><a xlink:title=" ">
<polygon fill="white" stroke="#666666" points="308,-266.5 265,-266.5 265,-247.5 308,-247.5 308,-266.5"/>
<text text-anchor="middle" x="286.5" y="-254.5" font-family="Helvetica,sans-Serif" font-size="10.00">size_t</text>
</a>
</g>
</g>
<!-- Node10&#45;&gt;Node4 -->
<g id="edge9" class="edge">
<title>Node10&#45;&gt;Node4</title>
<path fill="none" stroke="#9a32cd" stroke-dasharray="5,2" d="M319.55,-258.27C354.84,-260.35 412.96,-265.8 461,-280 471.98,-283.25 483.19,-287.27 494.22,-291.7"/>
<polygon fill="#9a32cd" stroke="#9a32cd" points="320.18,-254.8 310.01,-257.77 319.81,-261.79 320.18,-254.8"/>
<text text-anchor="middle" x="422.5" y="-305" font-family="Helvetica,sans-Serif" font-size="10.00"> m_bucket_count</text>
<text text-anchor="middle" x="422.5" y="-294" font-family="Helvetica,sans-Serif" font-size="10.00">m_load_threshold</text>
<text text-anchor="middle" x="422.5" y="-283" font-family="Helvetica,sans-Serif" font-size="10.00">m_nb_elements</text>
</g>
<!-- Node10&#45;&gt;Node13 -->
<g id="edge17" class="edge">
<title>Node10&#45;&gt;Node13</title>
<path fill="none" stroke="#9a32cd" stroke-dasharray="5,2" d="M319.16,-265.54C335.45,-271.51 354.3,-281.14 366,-296 388.27,-324.3 358.77,-349.31 384,-375 408.7,-400.15 429.28,-378.62 461,-394 470.12,-398.42 470.47,-402.53 479,-408 483.9,-411.15 488.98,-414.27 494.15,-417.34"/>
<polygon fill="#9a32cd" stroke="#9a32cd" points="320.43,-262.28 309.84,-262.45 318.23,-268.92 320.43,-262.28"/>
<text text-anchor="middle" x="422.5" y="-419" font-family="Helvetica,sans-Serif" font-size="10.00"> m_bucket_count</text>
<text text-anchor="middle" x="422.5" y="-408" font-family="Helvetica,sans-Serif" font-size="10.00">m_load_threshold</text>
<text text-anchor="middle" x="422.5" y="-397" font-family="Helvetica,sans-Serif" font-size="10.00">m_nb_elements</text>
</g>
<!-- Node19 -->
<g id="node19" class="node">
<title>Node19</title>
<g id="a_node19"><a xlink:href="classtsl_1_1detail__hopscotch__hash_1_1hopscotch__hash.html" target="_top" xlink:title=" ">
<polygon fill="white" stroke="#666666" points="1279,-161.5 1114,-161.5 1114,-32.5 1279,-32.5 1279,-161.5"/>
<text text-anchor="start" x="1122" y="-149.5" font-family="Helvetica,sans-Serif" font-size="10.00">tsl::detail_hopscotch</text>
<text text-anchor="start" x="1122" y="-138.5" font-family="Helvetica,sans-Serif" font-size="10.00">_hash::hopscotch_hash</text>
<text text-anchor="start" x="1122" y="-127.5" font-family="Helvetica,sans-Serif" font-size="10.00">&lt; std::pair&lt; const int64</text>
<text text-anchor="start" x="1122" y="-116.5" font-family="Helvetica,sans-Serif" font-size="10.00">_t, int64_t &gt;, KeySelect,</text>
<text text-anchor="start" x="1122" y="-105.5" font-family="Helvetica,sans-Serif" font-size="10.00"> ValueSelect, std::hash&lt;</text>
<text text-anchor="start" x="1122" y="-94.5" font-family="Helvetica,sans-Serif" font-size="10.00"> int64_t &gt;, std::equal_to</text>
<text text-anchor="start" x="1122" y="-83.5" font-family="Helvetica,sans-Serif" font-size="10.00">&lt; int64_t &gt;, std::allocator</text>
<text text-anchor="start" x="1122" y="-72.5" font-family="Helvetica,sans-Serif" font-size="10.00">&lt; std::pair&lt; const int64_t,</text>
<text text-anchor="start" x="1122" y="-61.5" font-family="Helvetica,sans-Serif" font-size="10.00"> int64_t &gt; &gt;, 62, false, tsl</text>
<text text-anchor="start" x="1122" y="-50.5" font-family="Helvetica,sans-Serif" font-size="10.00">::hh::power_of_two_growth_policy</text>
<text text-anchor="middle" x="1196.5" y="-39.5" font-family="Helvetica,sans-Serif" font-size="10.00">&lt; 2 &gt;, overflow_container_type &gt;</text>
</a>
</g>
</g>
<!-- Node10&#45;&gt;Node19 -->
<g id="edge31" class="edge">
<title>Node10&#45;&gt;Node19</title>
<path fill="none" stroke="#9a32cd" stroke-dasharray="5,2" d="M309.66,-240.7C343.95,-216.47 412.85,-171.7 479,-152 589.23,-119.17 622.27,-139.96 737,-132 896.47,-120.93 936.87,-125.25 1096,-110 1101.72,-109.45 1107.62,-108.83 1113.56,-108.16"/>
<polygon fill="#9a32cd" stroke="#9a32cd" points="307.87,-237.68 301.78,-246.35 311.94,-243.37 307.87,-237.68"/>
<text text-anchor="start" x="737" y="-179" font-family="Helvetica,sans-Serif" font-size="10.00"> m_max_load_threshold</text>
<text text-anchor="middle" x="789" y="-168" font-family="Helvetica,sans-Serif" font-size="10.00">_rehash</text>
<text text-anchor="start" x="737" y="-157" font-family="Helvetica,sans-Serif" font-size="10.00">m_min_load_threshold</text>
<text text-anchor="middle" x="789" y="-146" font-family="Helvetica,sans-Serif" font-size="10.00">_rehash</text>
<text text-anchor="middle" x="789" y="-135" font-family="Helvetica,sans-Serif" font-size="10.00">m_nb_elements</text>
</g>
<!-- Node11 -->
<g id="node11" class="node">
<title>Node11</title>
<g id="a_node11"><a xlink:href="classIoss_1_1FieldManager.html" target="_top" xlink:title="A collection of Ioss::Field objects.">
<polygon fill="white" stroke="#666666" points="1246.5,-413.5 1146.5,-413.5 1146.5,-394.5 1246.5,-394.5 1246.5,-413.5"/>
<text text-anchor="middle" x="1196.5" y="-401.5" font-family="Helvetica,sans-Serif" font-size="10.00">Ioss::FieldManager</text>
</a>
</g>
</g>
<!-- Node11&#45;&gt;Node1 -->
<g id="edge10" class="edge">
<title>Node11&#45;&gt;Node1</title>
<path fill="none" stroke="#9a32cd" stroke-dasharray="5,2" d="M1257.98,-398.98C1290.68,-396.27 1330.67,-392.95 1362.05,-390.35"/>
<polygon fill="#9a32cd" stroke="#9a32cd" points="1257.93,-395.48 1248.25,-399.79 1258.5,-402.45 1257.93,-395.48"/>
<text text-anchor="middle" x="1320" y="-398" font-family="Helvetica,sans-Serif" font-size="10.00"> fields</text>
</g>
<!-- Node12 -->
<g id="node12" class="node">
<title>Node12</title>
<g id="a_node12"><a xlink:href="classtsl_1_1robin__map.html" target="_top" xlink:title=" ">
<polygon fill="white" stroke="#666666" points="989,-446 888,-446 888,-416 989,-416 989,-446"/>
<text text-anchor="start" x="896" y="-434" font-family="Helvetica,sans-Serif" font-size="10.00">tsl::robin_map&lt; std</text>
<text text-anchor="middle" x="938.5" y="-423" font-family="Helvetica,sans-Serif" font-size="10.00">::string, Field &gt;</text>
</a>
</g>
</g>
<!-- Node12&#45;&gt;Node11 -->
<g id="edge11" class="edge">
<title>Node12&#45;&gt;Node11</title>
<path fill="none" stroke="#9a32cd" stroke-dasharray="5,2" d="M1000.72,-424.54C1045.2,-419.85 1104.63,-413.58 1146.09,-409.21"/>
<polygon fill="#9a32cd" stroke="#9a32cd" points="1000.55,-421.04 990.97,-425.57 1001.28,-428 1000.55,-421.04"/>
<text text-anchor="middle" x="1066" y="-423" font-family="Helvetica,sans-Serif" font-size="10.00"> fields</text>
</g>
<!-- Node13&#45;&gt;Node12 -->
<g id="edge12" class="edge">
<title>Node13&#45;&gt;Node12</title>
<path fill="none" stroke="#9a32cd" stroke-dasharray="5,2" d="M714.82,-456.73C773.74,-449.92 842.47,-441.98 887.82,-436.74"/>
<polygon fill="#9a32cd" stroke="#9a32cd" points="714.59,-453.24 705.06,-457.86 715.39,-460.19 714.59,-453.24"/>
<text text-anchor="middle" x="789" y="-456" font-family="Helvetica,sans-Serif" font-size="10.00"> m_ht</text>
</g>
<!-- Node14&#45;&gt;Node1 -->
<g id="edge18" class="edge">
<title>Node14&#45;&gt;Node1</title>
<path fill="none" stroke="#9a32cd" stroke-dasharray="5,2" d="M1877.71,-312.01C1866.61,-317.51 1853.48,-323.3 1841,-327 1772.25,-347.38 1566.38,-370.52 1468.84,-380.71"/>
<polygon fill="#9a32cd" stroke="#9a32cd" points="1879,-315.28 1886.29,-307.58 1875.79,-309.05 1879,-315.28"/>
<text text-anchor="middle" x="1665" y="-368" font-family="Helvetica,sans-Serif" font-size="10.00"> database_</text>
</g>
<!-- Node15 -->
<g id="node15" class="node">
<title>Node15</title>
<g id="a_node15"><a xlink:href="classIoss_1_1ElementTopology.html" target="_top" xlink:title="Represents an element topology.">
<polygon fill="white" stroke="#666666" points="1723,-284.5 1607,-284.5 1607,-265.5 1723,-265.5 1723,-284.5"/>
<text text-anchor="middle" x="1665" y="-272.5" font-family="Helvetica,sans-Serif" font-size="10.00">Ioss::ElementTopology</text>
</a>
</g>
</g>
<!-- Node15&#45;&gt;Node14 -->
<g id="edge20" class="edge">
<title>Node15&#45;&gt;Node14</title>
<path fill="none" stroke="#9a32cd" stroke-dasharray="5,2" d="M1734.37,-279.04C1766.74,-281.21 1805.91,-284.23 1841,-288 1846.69,-288.61 1852.65,-289.34 1858.55,-290.1"/>
<polygon fill="#9a32cd" stroke="#9a32cd" points="1734.95,-275.57 1724.74,-278.4 1734.49,-282.55 1734.95,-275.57"/>
<text text-anchor="middle" x="1791" y="-291" font-family="Helvetica,sans-Serif" font-size="10.00"> commonSideTopology</text>
</g>
<!-- Node16 -->
<g id="node16" class="node">
<title>Node16</title>
<g id="a_node16"><a xlink:href="classstd_1_1basic__string.html" target="_top" xlink:title=" ">
<polygon fill="white" stroke="#666666" points="1470,-283 1361,-283 1361,-253 1470,-253 1470,-283"/>
<text text-anchor="start" x="1369" y="-271" font-family="Helvetica,sans-Serif" font-size="10.00">std::basic_string&lt;</text>
<text text-anchor="middle" x="1415.5" y="-260" font-family="Helvetica,sans-Serif" font-size="10.00"> Elem, Traits, Alloc &gt;</text>
</a>
</g>
</g>
<!-- Node16&#45;&gt;Node15 -->
<g id="edge21" class="edge">
<title>Node16&#45;&gt;Node15</title>
<path fill="none" stroke="#9a32cd" stroke-dasharray="5,2" d="M1481.26,-267.24C1513.64,-267.15 1553.4,-267.48 1589,-269 1594.74,-269.25 1600.73,-269.58 1606.7,-269.98"/>
<polygon fill="#9a32cd" stroke="#9a32cd" points="1481.64,-263.74 1471.65,-267.28 1481.67,-270.74 1481.64,-263.74"/>
<text text-anchor="middle" x="1538.5" y="-283" font-family="Helvetica,sans-Serif" font-size="10.00"> masterElementName_</text>
<text text-anchor="middle" x="1538.5" y="-272" font-family="Helvetica,sans-Serif" font-size="10.00">name_</text>
</g>
<!-- Node17 -->
<g id="node17" class="node">
<title>Node17</title>
<g id="a_node17"><a xlink:href="classIoss_1_1Map.html" target="_top" xlink:title=" ">
<polygon fill="white" stroke="#666666" points="1695,-172.5 1635,-172.5 1635,-153.5 1695,-153.5 1695,-172.5"/>
<text text-anchor="middle" x="1665" y="-160.5" font-family="Helvetica,sans-Serif" font-size="10.00">Ioss::Map</text>
</a>
</g>
</g>
<!-- Node17&#45;&gt;Node14 -->
<g id="edge22" class="edge">
<title>Node17&#45;&gt;Node14</title>
<path fill="none" stroke="#9a32cd" stroke-dasharray="5,2" d="M1706.42,-161.45C1744.29,-161.94 1800.92,-167.83 1841,-195 1875.26,-218.22 1894.81,-266.54 1901.91,-287.24"/>
<polygon fill="#9a32cd" stroke="#9a32cd" points="1706.82,-157.95 1696.82,-161.46 1706.83,-164.95 1706.82,-157.95"/>
<text text-anchor="middle" x="1791" y="-231" font-family="Helvetica,sans-Serif" font-size="10.00"> edgeMap</text>
<text text-anchor="middle" x="1791" y="-220" font-family="Helvetica,sans-Serif" font-size="10.00">elemMap</text>
<text text-anchor="middle" x="1791" y="-209" font-family="Helvetica,sans-Serif" font-size="10.00">faceMap</text>
<text text-anchor="middle" x="1791" y="-198" font-family="Helvetica,sans-Serif" font-size="10.00">nodeMap</text>
</g>
<!-- Node18 -->
<g id="node18" class="node">
<title>Node18</title>
<g id="a_node18"><a xlink:href="classtsl_1_1bhopscotch__map.html" target="_top" xlink:title=" ">
<polygon fill="white" stroke="#666666" points="1469,-125 1362,-125 1362,-95 1469,-95 1469,-125"/>
<text text-anchor="start" x="1370" y="-113" font-family="Helvetica,sans-Serif" font-size="10.00">tsl::bhopscotch_map</text>
<text text-anchor="middle" x="1415.5" y="-102" font-family="Helvetica,sans-Serif" font-size="10.00">&lt; int64_t, int64_t &gt;</text>
</a>
</g>
</g>
<!-- Node18&#45;&gt;Node17 -->
<g id="edge23" class="edge">
<title>Node18&#45;&gt;Node17</title>
<path fill="none" stroke="#9a32cd" stroke-dasharray="5,2" d="M1480.25,-123.65C1529.95,-134.29 1596.67,-148.58 1634.52,-156.69"/>
<polygon fill="#9a32cd" stroke="#9a32cd" points="1481.28,-120.29 1470.77,-121.62 1479.82,-127.14 1481.28,-120.29"/>
<text text-anchor="middle" x="1538.5" y="-149" font-family="Helvetica,sans-Serif" font-size="10.00"> m_reverse</text>
</g>
<!-- Node19&#45;&gt;Node18 -->
<g id="edge24" class="edge">
<title>Node19&#45;&gt;Node18</title>
<path fill="none" stroke="#9a32cd" stroke-dasharray="5,2" d="M1290.68,-102.58C1314.99,-104.04 1340.35,-105.56 1361.74,-106.84"/>
<polygon fill="#9a32cd" stroke="#9a32cd" points="1290.93,-99.09 1280.74,-101.99 1290.51,-106.08 1290.93,-99.09"/>
<text text-anchor="middle" x="1320" y="-109" font-family="Helvetica,sans-Serif" font-size="10.00"> m_ht</text>
</g>
<!-- Node20 -->
<g id="node20" class="node">
<title>Node20</title>
<g id="a_node20"><a xlink:title=" ">
<polygon fill="white" stroke="#666666" points="990.5,-104.5 886.5,-104.5 886.5,-85.5 990.5,-85.5 990.5,-104.5"/>
<text text-anchor="middle" x="938.5" y="-92.5" font-family="Helvetica,sans-Serif" font-size="10.00">std::hash&lt; int64_t &gt;</text>
</a>
</g>
</g>
<!-- Node20&#45;&gt;Node19 -->
<g id="edge25" class="edge">
<title>Node20&#45;&gt;Node19</title>
<path fill="none" stroke="#8b1a1a" d="M1002.49,-95.49C1036,-95.75 1077.6,-96.08 1113.6,-96.36"/>
<polygon fill="#8b1a1a" stroke="#8b1a1a" points="1002.54,-91.99 992.51,-95.41 1002.48,-98.99 1002.54,-91.99"/>
</g>
<!-- Node21 -->
<g id="node21" class="node">
<title>Node21</title>
<g id="a_node21"><a xlink:title=" ">
<polygon fill="white" stroke="#666666" points="998.5,-67.5 878.5,-67.5 878.5,-48.5 998.5,-48.5 998.5,-67.5"/>
<text text-anchor="middle" x="938.5" y="-55.5" font-family="Helvetica,sans-Serif" font-size="10.00">std::equal_to&lt; int64_t &gt;</text>
</a>
</g>
</g>
<!-- Node21&#45;&gt;Node19 -->
<g id="edge26" class="edge">
<title>Node21&#45;&gt;Node19</title>
<path fill="none" stroke="#8b1a1a" d="M1009.96,-68.73C1042.07,-73.63 1080.29,-79.45 1113.66,-84.53"/>
<polygon fill="#8b1a1a" stroke="#8b1a1a" points="1010.78,-65.32 1000.37,-67.27 1009.73,-72.24 1010.78,-65.32"/>
</g>
<!-- Node22 -->
<g id="node22" class="node">
<title>Node22</title>
<g id="a_node22"><a xlink:href="classtsl_1_1hh_1_1power__of__two__growth__policy.html" target="_top" xlink:title=" ">
<polygon fill="white" stroke="#666666" points="993.5,-30 883.5,-30 883.5,0 993.5,0 993.5,-30"/>
<text text-anchor="start" x="891.5" y="-18" font-family="Helvetica,sans-Serif" font-size="10.00">tsl::hh::power_of_two</text>
<text text-anchor="middle" x="938.5" y="-7" font-family="Helvetica,sans-Serif" font-size="10.00">_growth_policy&lt; 2 &gt;</text>
</a>
</g>
</g>
<!-- Node22&#45;&gt;Node19 -->
<g id="edge27" class="edge">
<title>Node22&#45;&gt;Node19</title>
<path fill="none" stroke="#8b1a1a" d="M1001.41,-33.81C1007.02,-35.55 1012.62,-37.3 1018,-39 1049.37,-48.92 1083.77,-60.09 1113.87,-69.96"/>
<polygon fill="#8b1a1a" stroke="#8b1a1a" points="1002.67,-30.53 992.08,-30.93 1000.61,-37.22 1002.67,-30.53"/>
</g>
<!-- Node23 -->
<g id="node23" class="node">
<title>Node23</title>
<g id="a_node23"><a xlink:href="classtsl_1_1detail__hopscotch__hash_1_1hopscotch__bucket.html" target="_top" xlink:title=" ">
<polygon fill="white" stroke="#666666" points="1018,-229 859,-229 859,-177 1018,-177 1018,-229"/>
<text text-anchor="start" x="867" y="-217" font-family="Helvetica,sans-Serif" font-size="10.00">tsl::detail_hopscotch</text>
<text text-anchor="start" x="867" y="-206" font-family="Helvetica,sans-Serif" font-size="10.00">_hash::hopscotch_bucket</text>
<text text-anchor="start" x="867" y="-195" font-family="Helvetica,sans-Serif" font-size="10.00">&lt; ValueType, NeighborhoodSize,</text>
<text text-anchor="middle" x="938.5" y="-184" font-family="Helvetica,sans-Serif" font-size="10.00"> StoreHash &gt;</text>
</a>
</g>
</g>
<!-- Node23&#45;&gt;Node19 -->
<g id="edge28" class="edge">
<title>Node23&#45;&gt;Node19</title>
<path fill="none" stroke="#9a32cd" stroke-dasharray="5,2" d="M1028.97,-173.11C1051.08,-165.14 1074.57,-156.18 1096,-147 1101.78,-144.53 1107.69,-141.87 1113.61,-139.13"/>
<polygon fill="#9a32cd" stroke="#9a32cd" points="1027.91,-169.77 1019.66,-176.43 1030.26,-176.36 1027.91,-169.77"/>
<text text-anchor="middle" x="1066" y="-174" font-family="Helvetica,sans-Serif" font-size="10.00"> m_buckets</text>
</g>
<!-- Node24 -->
<g id="node24" class="node">
<title>Node24</title>
<g id="a_node24"><a xlink:href="classtsl_1_1detail__hopscotch__hash_1_1hopscotch__bucket__hash.html" target="_top" xlink:title=" ">
<polygon fill="white" stroke="#666666" points="663,-202.5 535,-202.5 535,-161.5 663,-161.5 663,-202.5"/>
<text text-anchor="start" x="543" y="-190.5" font-family="Helvetica,sans-Serif" font-size="10.00">tsl::detail_hopscotch</text>
<text text-anchor="start" x="543" y="-179.5" font-family="Helvetica,sans-Serif" font-size="10.00">_hash::hopscotch_bucket</text>
<text text-anchor="middle" x="599" y="-168.5" font-family="Helvetica,sans-Serif" font-size="10.00">_hash&lt; StoreHash &gt;</text>
</a>
</g>
</g>
<!-- Node24&#45;&gt;Node23 -->
<g id="edge29" class="edge">
<title>Node24&#45;&gt;Node23</title>
<path fill="none" stroke="#63b8ff" d="M674.81,-186.65C729.34,-190.05 803.08,-194.64 858.55,-198.09"/>
<polygon fill="#63b8ff" stroke="#63b8ff" points="675.19,-183.17 664.99,-186.04 674.76,-190.16 675.19,-183.17"/>
</g>
<!-- Node25 -->
<g id="node25" class="node">
<title>Node25</title>
<g id="a_node25"><a xlink:href="classtsl_1_1detail__hopscotch__hash_1_1smallest__type__for__min__bits.html" target="_top" xlink:title=" ">
<polygon fill="white" stroke="#666666" points="719,-273 479,-273 479,-221 719,-221 719,-273"/>
<text text-anchor="start" x="487" y="-261" font-family="Helvetica,sans-Serif" font-size="10.00">tsl::detail_hopscotch</text>
<text text-anchor="start" x="487" y="-250" font-family="Helvetica,sans-Serif" font-size="10.00">_hash::smallest_type</text>
<text text-anchor="start" x="487" y="-239" font-family="Helvetica,sans-Serif" font-size="10.00">_for_min_bits&lt; NeighborhoodSize</text>
<text text-anchor="middle" x="599" y="-228" font-family="Helvetica,sans-Serif" font-size="10.00">+NB_RESERVED_BITS_IN_NEIGHBORHOOD &gt;</text>
</a>
</g>
</g>
<!-- Node25&#45;&gt;Node23 -->
<g id="edge30" class="edge">
<title>Node25&#45;&gt;Node23</title>
<path fill="none" stroke="#9a32cd" stroke-dasharray="5,2" d="M730.65,-229.97C773.83,-224.34 820.52,-218.25 858.6,-213.29"/>
<polygon fill="#9a32cd" stroke="#9a32cd" points="730.43,-226.47 720.97,-231.23 731.33,-233.41 730.43,-226.47"/>
<text text-anchor="middle" x="789" y="-231" font-family="Helvetica,sans-Serif" font-size="10.00"> m_neighborhood_infos</text>
</g>
<!-- Node26 -->
<g id="node26" class="node">
<title>Node26</title>
<g id="a_node26"><a xlink:href="classIoss_1_1ParallelUtils.html" target="_top" xlink:title=" ">
<polygon fill="white" stroke="#666666" points="1712,-247.5 1618,-247.5 1618,-228.5 1712,-228.5 1712,-247.5"/>
<text text-anchor="middle" x="1665" y="-235.5" font-family="Helvetica,sans-Serif" font-size="10.00">Ioss::ParallelUtils</text>
</a>
</g>
</g>
<!-- Node26&#45;&gt;Node14 -->
<g id="edge32" class="edge">
<title>Node26&#45;&gt;Node14</title>
<path fill="none" stroke="#9a32cd" stroke-dasharray="5,2" d="M1723.61,-241.77C1758.27,-245.21 1802.92,-251.73 1841,-264 1858.37,-269.6 1876.75,-279.54 1889.33,-287.06"/>
<polygon fill="#9a32cd" stroke="#9a32cd" points="1724.05,-238.3 1713.77,-240.86 1723.4,-245.27 1724.05,-238.3"/>
<text text-anchor="middle" x="1791" y="-267" font-family="Helvetica,sans-Serif" font-size="10.00"> util_</text>
</g>
<!-- Node27&#45;&gt;Node14 -->
<g id="edge33" class="edge">
<title>Node27&#45;&gt;Node14</title>
<path fill="none" stroke="#9a32cd" stroke-dasharray="5,2" d="M1712.64,-400.16C1749.64,-399.88 1801.53,-394.89 1841,-373 1869.36,-357.27 1890.58,-323.66 1899.85,-306.91"/>
<polygon fill="#9a32cd" stroke="#9a32cd" points="1712.72,-396.66 1702.7,-400.11 1712.68,-403.66 1712.72,-396.66"/>
<text text-anchor="middle" x="1791" y="-401" font-family="Helvetica,sans-Serif" font-size="10.00"> region_</text>
</g>
</g>
</svg>
