<?xml version="1.0" encoding="UTF-8" standalone="no"?>
<!DOCTYPE svg PUBLIC "-//W3C//DTD SVG 1.1//EN"
 "http://www.w3.org/Graphics/SVG/1.1/DTD/svg11.dtd">
<!-- Generated by graphviz version 12.1.0 (20240811.2233)
 -->
<!-- Title: Ioss::EdgeSet Pages: 1 -->
<!--zoomable 318 -->

<svg id="main" version="1.1" xmlns="http://www.w3.org/2000/svg" xmlns:xlink="http://www.w3.org/1999/xlink" xml:space="preserve" onload="init(evt)">

<style type="text/css"><![CDATA[
.node, .edge {opacity: 0.7;}
.node.selected, .edge.selected {opacity: 1;}
.edge:hover path { stroke: red; }
.edge:hover polygon { stroke: red; fill: red; }
]]></style>

<defs>
  <circle id="rim" cx="0" cy="0" r="7"/>
  <circle id="rim2" cx="0" cy="0" r="3.5"/>
  <g id="zoomPlus">
    <use xlink:href="#rim" fill="#404040"><set attributeName="fill" to="#808080" begin="zoomplus.mouseover" end="zoomplus.mouseout"/></use>
    <path d="M-4,0h8M0,-4v8" fill="none" stroke="white" stroke-width="1.5" pointer-events="none"/>
  </g>
  <g id="zoomMin">
    <use xlink:href="#rim" fill="#404040"><set attributeName="fill" to="#808080" begin="zoomminus.mouseover" end="zoomminus.mouseout"/></use>
    <path d="M-4,0h8" fill="none" stroke="white" stroke-width="1.5" pointer-events="none"/>
  </g>
  <g id="arrowUp" transform="translate(30 24)">
    <use xlink:href="#rim"/>
    <path pointer-events="none" fill="none" stroke="white" stroke-width="1.5" d="M0,-3.0v7 M-2.5,-0.5L0,-3.0L2.5,-0.5"/>
  </g>
  <g id="arrowRight" transform="rotate(90) translate(36 -43)">
    <use xlink:href="#rim"/>
    <path pointer-events="none" fill="none" stroke="white" stroke-width="1.5" d="M0,-3.0v7 M-2.5,-0.5L0,-3.0L2.5,-0.5"/>
  </g>
  <g id="arrowDown" transform="rotate(180) translate(-30 -48)">
    <use xlink:href="#rim"/>
    <path pointer-events="none" fill="none" stroke="white" stroke-width="1.5" d="M0,-3.0v7 M-2.5,-0.5L0,-3.0L2.5,-0.5"/>
  </g>
  <g id="arrowLeft" transform="rotate(270) translate(-36 17)">
    <use xlink:href="#rim"/>
    <path pointer-events="none" fill="none" stroke="white" stroke-width="1.5" d="M0,-3.0v7 M-2.5,-0.5L0,-3.0L2.5,-0.5"/>
  </g>
  <g id="resetDef">
    <use xlink:href="#rim2" fill="#404040"><set attributeName="fill" to="#808080" begin="reset.mouseover" end="reset.mouseout"/></use>
  </g>
</defs>
<script type="application/ecmascript">
var viewWidth = 1628;
var viewHeight = 318;
var sectionId = 'dynsection-1';
</script>
<script type="application/ecmascript" xlink:href="svg.min.js"/>
<svg id="graph" class="graph">
<g id="viewport">
<title>Ioss::EdgeSet</title>
<!-- Node1 -->
<g id="Node000001" class="node">
<title>Node1</title>
<g id="a_Node000001"><a xlink:title="A collection of element edges.">
<polygon fill="#999999" stroke="#666666" points="1612.5,-226.25 1534.25,-226.25 1534.25,-207 1612.5,-207 1612.5,-226.25"/>
<text text-anchor="middle" x="1573.38" y="-212.75" font-family="Helvetica,sans-Serif" font-size="10.00">Ioss::EdgeSet</text>
</a>
</g>
</g>
<!-- Node2 -->
<g id="Node000002" class="node">
<title>Node2</title>
<g id="a_Node000002"><a xlink:href="classIoss_1_1EntitySet.html" target="_top" xlink:title="Base class for all &#39;set&#39;&#45;type grouping entities, which means that members of the set are not necessar...">
<polygon fill="white" stroke="#666666" points="1374.5,-226.25 1293.25,-226.25 1293.25,-207 1374.5,-207 1374.5,-226.25"/>
<text text-anchor="middle" x="1333.88" y="-212.75" font-family="Helvetica,sans-Serif" font-size="10.00">Ioss::EntitySet</text>
</a>
</g>
</g>
<!-- Node2&#45;&gt;Node1 -->
<g id="edge1_Node000001_Node000002" class="edge">
<title>Node2&#45;&gt;Node1</title>
<g id="a_edge1_Node000001_Node000002"><a xlink:title=" ">
<path fill="none" stroke="#63b8ff" d="M1386.3,-216.62C1430.63,-216.62 1493.64,-216.62 1533.77,-216.62"/>
<polygon fill="#63b8ff" stroke="#63b8ff" points="1386.41,-213.13 1376.41,-216.63 1386.41,-220.13 1386.41,-213.13"/>
</a>
</g>
</g>
<!-- Node3 -->
<g id="Node000003" class="node">
<title>Node3</title>
<g id="a_Node000003"><a xlink:href="classIoss_1_1GroupingEntity.html" target="_top" xlink:title="Base class for all &#39;grouping&#39; entities. The following derived classes are typical:">
<polygon fill="white" stroke="#666666" points="1194.25,-187.25 1089,-187.25 1089,-168 1194.25,-168 1194.25,-187.25"/>
<text text-anchor="middle" x="1141.62" y="-173.75" font-family="Helvetica,sans-Serif" font-size="10.00">Ioss::GroupingEntity</text>
</a>
</g>
</g>
<!-- Node3&#45;&gt;Node2 -->
<g id="edge2_Node000002_Node000003" class="edge">
<title>Node3&#45;&gt;Node2</title>
<g id="a_edge2_Node000002_Node000003"><a xlink:title=" ">
<path fill="none" stroke="#63b8ff" d="M1202.63,-189.93C1232.12,-195.97 1266.84,-203.09 1293.01,-208.45"/>
<polygon fill="#63b8ff" stroke="#63b8ff" points="1203.6,-186.55 1193.1,-187.97 1202.2,-193.41 1203.6,-186.55"/>
</a>
</g>
</g>
<!-- Node19 -->
<g id="Node000019" class="node">
<title>Node19</title>
<g id="a_Node000019"><a xlink:href="classIoss_1_1Region.html" target="_top" xlink:title="A grouping entity that contains other grouping entities.">
<polygon fill="white" stroke="#666666" points="1369.62,-56.25 1298.12,-56.25 1298.12,-37 1369.62,-37 1369.62,-56.25"/>
<text text-anchor="middle" x="1333.88" y="-42.75" font-family="Helvetica,sans-Serif" font-size="10.00">Ioss::Region</text>
</a>
</g>
</g>
<!-- Node3&#45;&gt;Node19 -->
<g id="edge24_Node000019_Node000003" class="edge">
<title>Node3&#45;&gt;Node19</title>
<g id="a_edge24_Node000019_Node000003"><a xlink:title=" ">
<path fill="none" stroke="#63b8ff" d="M1159.36,-159.5C1183.1,-134.79 1228.92,-90.63 1276,-64.62 1282.71,-60.92 1290.29,-57.85 1297.68,-55.36"/>
<polygon fill="#63b8ff" stroke="#63b8ff" points="1157.02,-156.89 1152.69,-166.56 1162.11,-161.69 1157.02,-156.89"/>
</a>
</g>
</g>
<!-- Node4 -->
<g id="Node000004" class="node">
<title>Node4</title>
<g id="a_Node000004"><a xlink:href="classIoss_1_1PropertyManager.html" target="_top" xlink:title="A collection of Ioss::Property objects.">
<polygon fill="white" stroke="#666666" points="1007.25,-264.25 892.25,-264.25 892.25,-245 1007.25,-245 1007.25,-264.25"/>
<text text-anchor="middle" x="949.75" y="-250.75" font-family="Helvetica,sans-Serif" font-size="10.00">Ioss::PropertyManager</text>
</a>
</g>
</g>
<!-- Node4&#45;&gt;Node3 -->
<g id="edge3_Node000003_Node000004" class="edge">
<title>Node4&#45;&gt;Node3</title>
<g id="a_edge3_Node000003_Node000004"><a xlink:title=" ">
<path fill="none" stroke="#9a32cd" stroke-dasharray="5,2" d="M986.09,-240.29C1023.83,-224.99 1082.67,-201.13 1115.8,-187.69"/>
<polygon fill="#9a32cd" stroke="#9a32cd" points="984.93,-236.99 976.98,-243.99 987.56,-243.48 984.93,-236.99"/>
</a>
</g>
<text text-anchor="middle" x="1048.12" y="-224.77" font-family="Helvetica,sans-Serif" font-size="10.00" fill="grey"> properties</text>
</g>
<!-- Node15 -->
<g id="Node000015" class="node">
<title>Node15</title>
<g id="a_Node000015"><a xlink:href="classIoss_1_1DatabaseIO.html" target="_top" xlink:title="An input or output Database.">
<polygon fill="white" stroke="#666666" points="1620,-110.25 1526.75,-110.25 1526.75,-91 1620,-91 1620,-110.25"/>
<text text-anchor="middle" x="1573.38" y="-96.75" font-family="Helvetica,sans-Serif" font-size="10.00">Ioss::DatabaseIO</text>
</a>
</g>
</g>
<!-- Node4&#45;&gt;Node15 -->
<g id="edge19_Node000015_Node000004" class="edge">
<title>Node4&#45;&gt;Node15</title>
<g id="a_edge19_Node000015_Node000004"><a xlink:title=" ">
<path fill="none" stroke="#9a32cd" stroke-dasharray="5,2" d="M1019.02,-259.19C1106.55,-263.35 1262.48,-265 1391.75,-235.62 1446.89,-223.09 1464.29,-220.57 1508.75,-185.62 1536.14,-164.1 1557.77,-128.03 1567.21,-110.62"/>
<polygon fill="#9a32cd" stroke="#9a32cd" points="1019.32,-255.71 1009.16,-258.7 1018.97,-262.7 1019.32,-255.71"/>
</a>
</g>
<text text-anchor="middle" x="1235.12" y="-260.39" font-family="Helvetica,sans-Serif" font-size="10.00" fill="grey"> properties</text>
</g>
<!-- Node5 -->
<g id="Node000005" class="node">
<title>Node5</title>
<g id="a_Node000005"><a xlink:href="classtsl_1_1robin__map.html" target="_top" xlink:title=" ">
<polygon fill="white" stroke="#666666" points="797,-269.88 697,-269.88 697,-239.38 797,-239.38 797,-269.88"/>
<text text-anchor="start" x="705" y="-256.38" font-family="Helvetica,sans-Serif" font-size="10.00">tsl::robin_map&lt; std</text>
<text text-anchor="middle" x="747" y="-245.12" font-family="Helvetica,sans-Serif" font-size="10.00">::string, Property &gt;</text>
</a>
</g>
</g>
<!-- Node5&#45;&gt;Node4 -->
<g id="edge4_Node000004_Node000005" class="edge">
<title>Node5&#45;&gt;Node4</title>
<g id="a_edge4_Node000004_Node000005"><a xlink:title=" ">
<path fill="none" stroke="#9a32cd" stroke-dasharray="5,2" d="M808.75,-254.62C835.12,-254.62 865.82,-254.62 891.75,-254.62"/>
<polygon fill="#9a32cd" stroke="#9a32cd" points="808.88,-251.13 798.88,-254.63 808.88,-258.13 808.88,-251.13"/>
</a>
</g>
<text text-anchor="middle" x="844.62" y="-256.38" font-family="Helvetica,sans-Serif" font-size="10.00" fill="grey"> m_properties</text>
</g>
<!-- Node6 -->
<g id="Node000006" class="node">
<title>Node6</title>
<g id="a_Node000006"><a xlink:href="classtsl_1_1detail__robin__hash_1_1robin__hash.html" target="_top" xlink:title=" ">
<polygon fill="white" stroke="#666666" points="636.25,-310.25 428.25,-310.25 428.25,-201 636.25,-201 636.25,-310.25"/>
<text text-anchor="start" x="436.25" y="-296.75" font-family="Helvetica,sans-Serif" font-size="10.00">tsl::detail_robin_hash</text>
<text text-anchor="start" x="436.25" y="-285.5" font-family="Helvetica,sans-Serif" font-size="10.00">::robin_hash&lt; std::pair</text>
<text text-anchor="start" x="436.25" y="-274.25" font-family="Helvetica,sans-Serif" font-size="10.00">&lt; std::string, Property</text>
<text text-anchor="start" x="436.25" y="-263" font-family="Helvetica,sans-Serif" font-size="10.00"> &gt;, KeySelect, ValueSelect,</text>
<text text-anchor="start" x="436.25" y="-251.75" font-family="Helvetica,sans-Serif" font-size="10.00"> std::hash&lt; std::string &gt;,</text>
<text text-anchor="start" x="436.25" y="-240.5" font-family="Helvetica,sans-Serif" font-size="10.00"> std::equal_to&lt; std::string</text>
<text text-anchor="start" x="436.25" y="-229.25" font-family="Helvetica,sans-Serif" font-size="10.00"> &gt;, std::allocator&lt; std::pair</text>
<text text-anchor="start" x="436.25" y="-218" font-family="Helvetica,sans-Serif" font-size="10.00">&lt; std::string, Property &gt; &gt;, false,</text>
<text text-anchor="middle" x="532.25" y="-206.75" font-family="Helvetica,sans-Serif" font-size="10.00"> tsl::rh::power_of_two_growth_policy&lt; 2 &gt; &gt;</text>
</a>
</g>
</g>
<!-- Node6&#45;&gt;Node5 -->
<g id="edge5_Node000005_Node000006" class="edge">
<title>Node6&#45;&gt;Node5</title>
<g id="a_edge5_Node000005_Node000006"><a xlink:title=" ">
<path fill="none" stroke="#9a32cd" stroke-dasharray="5,2" d="M647.81,-255.09C664.96,-255.01 681.83,-254.93 696.62,-254.86"/>
<polygon fill="#9a32cd" stroke="#9a32cd" points="648.01,-251.59 638.02,-255.13 648.04,-258.59 648.01,-251.59"/>
</a>
</g>
<text text-anchor="middle" x="666.62" y="-256.79" font-family="Helvetica,sans-Serif" font-size="10.00" fill="grey"> m_ht</text>
</g>
<!-- Node7 -->
<g id="Node000007" class="node">
<title>Node7</title>
<g id="a_Node000007"><a xlink:title=" ">
<polygon fill="white" stroke="#666666" points="332.62,-298.25 214.62,-298.25 214.62,-279 332.62,-279 332.62,-298.25"/>
<text text-anchor="middle" x="273.62" y="-284.75" font-family="Helvetica,sans-Serif" font-size="10.00">std::hash&lt; std::string &gt;</text>
</a>
</g>
</g>
<!-- Node7&#45;&gt;Node6 -->
<g id="edge6_Node000006_Node000007" class="edge">
<title>Node7&#45;&gt;Node6</title>
<g id="a_edge6_Node000006_Node000007"><a xlink:title=" ">
<path fill="none" stroke="#8b1a1a" d="M344.17,-291.45C365.46,-291.42 388.88,-290.48 410.25,-287.62 416.07,-286.85 422,-285.88 427.96,-284.77"/>
<polygon fill="#8b1a1a" stroke="#8b1a1a" points="344.46,-287.96 334.44,-291.4 344.42,-294.96 344.46,-287.96"/>
</a>
</g>
</g>
<!-- Node14 -->
<g id="Node000014" class="node">
<title>Node14</title>
<g id="a_Node000014"><a xlink:href="classtsl_1_1detail__robin__hash_1_1robin__hash.html" target="_top" xlink:title=" ">
<polygon fill="white" stroke="#666666" points="636.25,-183.25 428.25,-183.25 428.25,-74 636.25,-74 636.25,-183.25"/>
<text text-anchor="start" x="436.25" y="-169.75" font-family="Helvetica,sans-Serif" font-size="10.00">tsl::detail_robin_hash</text>
<text text-anchor="start" x="436.25" y="-158.5" font-family="Helvetica,sans-Serif" font-size="10.00">::robin_hash&lt; std::pair</text>
<text text-anchor="start" x="436.25" y="-147.25" font-family="Helvetica,sans-Serif" font-size="10.00">&lt; std::string, Field &gt;,</text>
<text text-anchor="start" x="436.25" y="-136" font-family="Helvetica,sans-Serif" font-size="10.00"> KeySelect, ValueSelect,</text>
<text text-anchor="start" x="436.25" y="-124.75" font-family="Helvetica,sans-Serif" font-size="10.00"> std::hash&lt; std::string &gt;,</text>
<text text-anchor="start" x="436.25" y="-113.5" font-family="Helvetica,sans-Serif" font-size="10.00"> std::equal_to&lt; std::string</text>
<text text-anchor="start" x="436.25" y="-102.25" font-family="Helvetica,sans-Serif" font-size="10.00"> &gt;, std::allocator&lt; std::pair</text>
<text text-anchor="start" x="436.25" y="-91" font-family="Helvetica,sans-Serif" font-size="10.00">&lt; std::string, Field &gt; &gt;, false,</text>
<text text-anchor="middle" x="532.25" y="-79.75" font-family="Helvetica,sans-Serif" font-size="10.00"> tsl::rh::power_of_two_growth_policy&lt; 2 &gt; &gt;</text>
</a>
</g>
</g>
<!-- Node7&#45;&gt;Node14 -->
<g id="edge14_Node000014_Node000007" class="edge">
<title>Node7&#45;&gt;Node14</title>
<g id="a_edge14_Node000014_Node000007"><a xlink:title=" ">
<path fill="none" stroke="#8b1a1a" d="M344.52,-289.2C368.03,-285.94 392.72,-278.22 410.25,-261.62 433.58,-239.55 409.15,-217.45 428.25,-191.62 430.37,-188.76 432.66,-186 435.09,-183.34"/>
<polygon fill="#8b1a1a" stroke="#8b1a1a" points="344.17,-285.72 334.62,-290.3 344.94,-292.68 344.17,-285.72"/>
</a>
</g>
</g>
<!-- Node8 -->
<g id="Node000008" class="node">
<title>Node8</title>
<g id="a_Node000008"><a xlink:title=" ">
<polygon fill="white" stroke="#666666" points="321,-137.88 226.25,-137.88 226.25,-107.38 321,-107.38 321,-137.88"/>
<text text-anchor="start" x="234.25" y="-124.38" font-family="Helvetica,sans-Serif" font-size="10.00">std::equal_to&lt; std</text>
<text text-anchor="middle" x="273.62" y="-113.12" font-family="Helvetica,sans-Serif" font-size="10.00">::string &gt;</text>
</a>
</g>
</g>
<!-- Node8&#45;&gt;Node6 -->
<g id="edge7_Node000006_Node000008" class="edge">
<title>Node8&#45;&gt;Node6</title>
<g id="a_edge7_Node000006_Node000008"><a xlink:title=" ">
<path fill="none" stroke="#8b1a1a" d="M323.58,-143.66C329.8,-147.24 335.86,-151.24 341.25,-155.62 351.32,-163.82 349.03,-170.63 359.25,-178.62 371.62,-188.3 398.9,-201.55 428.17,-214.33"/>
<polygon fill="#8b1a1a" stroke="#8b1a1a" points="325.54,-140.74 315.08,-139.09 322.23,-146.91 325.54,-140.74"/>
</a>
</g>
</g>
<!-- Node8&#45;&gt;Node14 -->
<g id="edge15_Node000014_Node000008" class="edge">
<title>Node8&#45;&gt;Node14</title>
<g id="a_edge15_Node000014_Node000008"><a xlink:title=" ">
<path fill="none" stroke="#8b1a1a" d="M332.81,-121.99C356.79,-121.9 384.86,-122 410.25,-122.62 416.03,-122.77 421.97,-122.95 427.96,-123.16"/>
<polygon fill="#8b1a1a" stroke="#8b1a1a" points="332.89,-118.49 322.91,-122.05 332.93,-125.49 332.89,-118.49"/>
</a>
</g>
</g>
<!-- Node9 -->
<g id="Node000009" class="node">
<title>Node9</title>
<g id="a_Node000009"><a xlink:href="classtsl_1_1rh_1_1power__of__two__growth__policy.html" target="_top" xlink:title=" ">
<polygon fill="white" stroke="#666666" points="327.38,-194.88 219.88,-194.88 219.88,-164.38 327.38,-164.38 327.38,-194.88"/>
<text text-anchor="start" x="227.88" y="-181.38" font-family="Helvetica,sans-Serif" font-size="10.00">tsl::rh::power_of_two</text>
<text text-anchor="middle" x="273.62" y="-170.12" font-family="Helvetica,sans-Serif" font-size="10.00">_growth_policy&lt; 2 &gt;</text>
</a>
</g>
</g>
<!-- Node9&#45;&gt;Node6 -->
<g id="edge8_Node000006_Node000009" class="edge">
<title>Node9&#45;&gt;Node6</title>
<g id="a_edge8_Node000006_Node000009"><a xlink:title=" ">
<path fill="none" stroke="#8b1a1a" d="M338.63,-198.58C365.59,-206.57 397.66,-216.06 427.82,-224.99"/>
<polygon fill="#8b1a1a" stroke="#8b1a1a" points="339.83,-195.29 329.25,-195.8 337.84,-202 339.83,-195.29"/>
</a>
</g>
</g>
<!-- Node9&#45;&gt;Node14 -->
<g id="edge16_Node000014_Node000009" class="edge">
<title>Node9&#45;&gt;Node14</title>
<g id="a_edge16_Node000014_Node000009"><a xlink:title=" ">
<path fill="none" stroke="#8b1a1a" d="M320.73,-159.8C333.05,-155.16 346.49,-150.69 359.25,-147.62 381.3,-142.33 405.31,-138.5 428.2,-135.74"/>
<polygon fill="#8b1a1a" stroke="#8b1a1a" points="319.7,-156.44 311.65,-163.33 322.23,-162.97 319.7,-156.44"/>
</a>
</g>
</g>
<!-- Node10 -->
<g id="Node000010" class="node">
<title>Node10</title>
<g id="a_Node000010"><a xlink:href="classtsl_1_1detail__robin__hash_1_1bucket__entry.html" target="_top" xlink:title=" ">
<polygon fill="white" stroke="#666666" points="341.25,-258.5 206,-258.5 206,-216.75 341.25,-216.75 341.25,-258.5"/>
<text text-anchor="start" x="214" y="-245" font-family="Helvetica,sans-Serif" font-size="10.00">tsl::detail_robin_hash</text>
<text text-anchor="start" x="214" y="-233.75" font-family="Helvetica,sans-Serif" font-size="10.00">::bucket_entry&lt; ValueType,</text>
<text text-anchor="middle" x="273.62" y="-222.5" font-family="Helvetica,sans-Serif" font-size="10.00"> StoreHash &gt;</text>
</a>
</g>
</g>
<!-- Node10&#45;&gt;Node6 -->
<g id="edge9_Node000006_Node000010" class="edge">
<title>Node10&#45;&gt;Node6</title>
<g id="a_edge9_Node000006_Node000010"><a xlink:title=" ">
<path fill="none" stroke="#9a32cd" stroke-dasharray="5,2" d="M353.05,-243.13C376.62,-244.78 402.84,-246.62 427.77,-248.37"/>
<polygon fill="#9a32cd" stroke="#9a32cd" points="353.45,-239.65 343.22,-242.44 352.96,-246.63 353.45,-239.65"/>
</a>
</g>
<text text-anchor="middle" x="384.75" y="-248.38" font-family="Helvetica,sans-Serif" font-size="10.00" fill="grey"> m_buckets</text>
</g>
<!-- Node10&#45;&gt;Node14 -->
<g id="edge17_Node000014_Node000010" class="edge">
<title>Node10&#45;&gt;Node14</title>
<g id="a_edge17_Node000014_Node000010"><a xlink:title=" ">
<path fill="none" stroke="#9a32cd" stroke-dasharray="5,2" d="M335.03,-211.97C362.74,-200.2 396.38,-185.91 427.93,-172.51"/>
<polygon fill="#9a32cd" stroke="#9a32cd" points="333.94,-208.63 326.11,-215.76 336.68,-215.07 333.94,-208.63"/>
</a>
</g>
<text text-anchor="middle" x="384.75" y="-201.01" font-family="Helvetica,sans-Serif" font-size="10.00" fill="grey"> m_buckets</text>
</g>
<!-- Node11 -->
<g id="Node000011" class="node">
<title>Node11</title>
<g id="a_Node000011"><a xlink:href="classtsl_1_1detail__robin__hash_1_1bucket__entry__hash.html" target="_top" xlink:title=" ">
<polygon fill="white" stroke="#666666" points="169,-252.88 0,-252.88 0,-222.38 169,-222.38 169,-252.88"/>
<text text-anchor="start" x="8" y="-239.38" font-family="Helvetica,sans-Serif" font-size="10.00">tsl::detail_robin_hash</text>
<text text-anchor="middle" x="84.5" y="-228.12" font-family="Helvetica,sans-Serif" font-size="10.00">::bucket_entry_hash&lt; StoreHash &gt;</text>
</a>
</g>
</g>
<!-- Node11&#45;&gt;Node10 -->
<g id="edge10_Node000010_Node000011" class="edge">
<title>Node11&#45;&gt;Node10</title>
<g id="a_edge10_Node000010_Node000011"><a xlink:title=" ">
<path fill="none" stroke="#63b8ff" d="M180.91,-237.62C189.3,-237.62 197.66,-237.62 205.74,-237.62"/>
<polygon fill="#63b8ff" stroke="#63b8ff" points="181,-234.13 171,-237.63 181,-241.13 181,-234.13"/>
</a>
</g>
</g>
<!-- Node12 -->
<g id="Node000012" class="node">
<title>Node12</title>
<g id="a_Node000012"><a xlink:href="classIoss_1_1FieldManager.html" target="_top" xlink:title="A collection of Ioss::Field objects.">
<polygon fill="white" stroke="#666666" points="999.38,-184.25 900.12,-184.25 900.12,-165 999.38,-165 999.38,-184.25"/>
<text text-anchor="middle" x="949.75" y="-170.75" font-family="Helvetica,sans-Serif" font-size="10.00">Ioss::FieldManager</text>
</a>
</g>
</g>
<!-- Node12&#45;&gt;Node3 -->
<g id="edge11_Node000003_Node000012" class="edge">
<title>Node12&#45;&gt;Node3</title>
<g id="a_edge11_Node000003_Node000012"><a xlink:title=" ">
<path fill="none" stroke="#9a32cd" stroke-dasharray="5,2" d="M1010.83,-175.57C1035.8,-175.97 1064.51,-176.42 1088.57,-176.8"/>
<polygon fill="#9a32cd" stroke="#9a32cd" points="1011.21,-172.08 1001.16,-175.42 1011.1,-179.08 1011.21,-172.08"/>
</a>
</g>
<text text-anchor="middle" x="1048.12" y="-178.23" font-family="Helvetica,sans-Serif" font-size="10.00" fill="grey"> fields</text>
</g>
<!-- Node13 -->
<g id="Node000013" class="node">
<title>Node13</title>
<g id="a_Node000013"><a xlink:href="classtsl_1_1robin__map.html" target="_top" xlink:title=" ">
<polygon fill="white" stroke="#666666" points="797,-180.88 697,-180.88 697,-150.38 797,-150.38 797,-180.88"/>
<text text-anchor="start" x="705" y="-167.38" font-family="Helvetica,sans-Serif" font-size="10.00">tsl::robin_map&lt; std</text>
<text text-anchor="middle" x="747" y="-156.12" font-family="Helvetica,sans-Serif" font-size="10.00">::string, Field &gt;</text>
</a>
</g>
</g>
<!-- Node13&#45;&gt;Node12 -->
<g id="edge12_Node000012_Node000013" class="edge">
<title>Node13&#45;&gt;Node12</title>
<g id="a_edge12_Node000012_Node000013"><a xlink:title=" ">
<path fill="none" stroke="#9a32cd" stroke-dasharray="5,2" d="M808.69,-168.35C837.89,-169.66 872.44,-171.2 899.92,-172.44"/>
<polygon fill="#9a32cd" stroke="#9a32cd" points="809.02,-164.86 798.88,-167.91 808.71,-171.85 809.02,-164.86"/>
</a>
</g>
<text text-anchor="middle" x="844.62" y="-172.95" font-family="Helvetica,sans-Serif" font-size="10.00" fill="grey"> fields</text>
</g>
<!-- Node14&#45;&gt;Node13 -->
<g id="edge13_Node000013_Node000014" class="edge">
<title>Node14&#45;&gt;Node13</title>
<g id="a_edge13_Node000013_Node000014"><a xlink:title=" ">
<path fill="none" stroke="#9a32cd" stroke-dasharray="5,2" d="M647.81,-148.55C664.96,-151.53 681.83,-154.47 696.62,-157.04"/>
<polygon fill="#9a32cd" stroke="#9a32cd" points="648.45,-145.11 638,-146.84 647.25,-152 648.45,-145.11"/>
</a>
</g>
<text text-anchor="middle" x="666.62" y="-155.41" font-family="Helvetica,sans-Serif" font-size="10.00" fill="grey"> m_ht</text>
</g>
<!-- Node15&#45;&gt;Node3 -->
<g id="edge18_Node000003_Node000015" class="edge">
<title>Node15&#45;&gt;Node3</title>
<g id="a_edge18_Node000003_Node000015"><a xlink:title=" ">
<path fill="none" stroke="#9a32cd" stroke-dasharray="5,2" d="M1559.53,-119.52C1548.14,-134.5 1530.04,-154.39 1508.75,-163.62 1453.82,-187.45 1281.7,-183.81 1194.44,-180.21"/>
<polygon fill="#9a32cd" stroke="#9a32cd" points="1562.1,-121.93 1565.12,-111.78 1556.43,-117.83 1562.1,-121.93"/>
</a>
</g>
<text text-anchor="middle" x="1333.88" y="-184.58" font-family="Helvetica,sans-Serif" font-size="10.00" fill="grey"> database_</text>
</g>
<!-- Node16 -->
<g id="Node000016" class="node">
<title>Node16</title>
<g id="a_Node000016"><a xlink:href="classIoss_1_1ElementTopology.html" target="_top" xlink:title="Represents an element topology.">
<polygon fill="white" stroke="#666666" points="1391.75,-19.25 1276,-19.25 1276,0 1391.75,0 1391.75,-19.25"/>
<text text-anchor="middle" x="1333.88" y="-5.75" font-family="Helvetica,sans-Serif" font-size="10.00">Ioss::ElementTopology</text>
</a>
</g>
</g>
<!-- Node16&#45;&gt;Node15 -->
<g id="edge20_Node000015_Node000016" class="edge">
<title>Node16&#45;&gt;Node15</title>
<g id="a_edge20_Node000015_Node000016"><a xlink:title=" ">
<path fill="none" stroke="#9a32cd" stroke-dasharray="5,2" d="M1403.69,-7.98C1437.02,-9.76 1476.67,-15.86 1508.75,-32.38 1535.25,-46.01 1556.53,-75.3 1566.4,-90.7"/>
<polygon fill="#9a32cd" stroke="#9a32cd" points="1403.83,-4.48 1393.7,-7.57 1403.55,-11.47 1403.83,-4.48"/>
</a>
</g>
<text text-anchor="middle" x="1459.25" y="-34.12" font-family="Helvetica,sans-Serif" font-size="10.00" fill="grey"> commonSideTopology</text>
</g>
<!-- Node17 -->
<g id="Node000017" class="node">
<title>Node17</title>
<g id="a_Node000017"><a xlink:href="classIoss_1_1Map.html" target="_top" xlink:title=" ">
<polygon fill="white" stroke="#666666" points="1363.62,-130.25 1304.12,-130.25 1304.12,-111 1363.62,-111 1363.62,-130.25"/>
<text text-anchor="middle" x="1333.88" y="-116.75" font-family="Helvetica,sans-Serif" font-size="10.00">Ioss::Map</text>
</a>
</g>
</g>
<!-- Node17&#45;&gt;Node15 -->
<g id="edge21_Node000015_Node000017" class="edge">
<title>Node17&#45;&gt;Node15</title>
<g id="a_edge21_Node000015_Node000017"><a xlink:title=" ">
<path fill="none" stroke="#9a32cd" stroke-dasharray="5,2" d="M1375.41,-117.21C1417.27,-113.69 1482.49,-108.19 1526.28,-104.51"/>
<polygon fill="#9a32cd" stroke="#9a32cd" points="1375.18,-113.72 1365.51,-118.05 1375.76,-120.69 1375.18,-113.72"/>
</a>
</g>
<text text-anchor="middle" x="1459.25" y="-149.66" font-family="Helvetica,sans-Serif" font-size="10.00" fill="grey"> edgeMap</text>
<text text-anchor="middle" x="1459.25" y="-138.41" font-family="Helvetica,sans-Serif" font-size="10.00" fill="grey">elemMap</text>
<text text-anchor="middle" x="1459.25" y="-127.16" font-family="Helvetica,sans-Serif" font-size="10.00" fill="grey">faceMap</text>
<text text-anchor="middle" x="1459.25" y="-115.91" font-family="Helvetica,sans-Serif" font-size="10.00" fill="grey">nodeMap</text>
</g>
<!-- Node18 -->
<g id="Node000018" class="node">
<title>Node18</title>
<g id="a_Node000018"><a xlink:href="classIoss_1_1ParallelUtils.html" target="_top" xlink:title=" ">
<polygon fill="white" stroke="#666666" points="1380.5,-93.25 1287.25,-93.25 1287.25,-74 1380.5,-74 1380.5,-93.25"/>
<text text-anchor="middle" x="1333.88" y="-79.75" font-family="Helvetica,sans-Serif" font-size="10.00">Ioss::ParallelUtils</text>
</a>
</g>
</g>
<!-- Node18&#45;&gt;Node15 -->
<g id="edge22_Node000015_Node000018" class="edge">
<title>Node18&#45;&gt;Node15</title>
<g id="a_edge22_Node000015_Node000018"><a xlink:title=" ">
<path fill="none" stroke="#9a32cd" stroke-dasharray="5,2" d="M1391.98,-80.36C1426.02,-79.28 1470.01,-79.42 1508.75,-84.38 1518.81,-85.66 1529.57,-88.02 1539.32,-90.54"/>
<polygon fill="#9a32cd" stroke="#9a32cd" points="1392.22,-76.85 1382.35,-80.71 1392.47,-83.84 1392.22,-76.85"/>
</a>
</g>
<text text-anchor="middle" x="1459.25" y="-86.12" font-family="Helvetica,sans-Serif" font-size="10.00" fill="grey"> util_</text>
</g>
<!-- Node19&#45;&gt;Node15 -->
<g id="edge23_Node000015_Node000019" class="edge">
<title>Node19&#45;&gt;Node15</title>
<g id="a_edge23_Node000015_Node000019"><a xlink:title=" ">
<path fill="none" stroke="#9a32cd" stroke-dasharray="5,2" d="M1381.55,-46.19C1417.18,-47.09 1467.08,-51.04 1508.75,-64.38 1527.4,-70.34 1546.63,-82.25 1559,-90.79"/>
<polygon fill="#9a32cd" stroke="#9a32cd" points="1381.62,-42.69 1371.56,-46.02 1381.5,-49.69 1381.62,-42.69"/>
</a>
</g>
<text text-anchor="middle" x="1459.25" y="-66.12" font-family="Helvetica,sans-Serif" font-size="10.00" fill="grey"> region_</text>
</g>
</g>
</svg>

<g id="navigator" transform="translate(0 0)" fill="#404254">
  <rect fill="#f2f5e9" fill-opacity="0.5" stroke="#606060" stroke-width=".5" x="0" y="0" width="60" height="60"/>
  <use id="zoomplus" xlink:href="#zoomPlus" x="17" y="9" onmousedown="handleZoom(evt,'in')"/>
  <use id="zoomminus" xlink:href="#zoomMin" x="42" y="9" onmousedown="handleZoom(evt,'out')"/>
  <use id="reset" xlink:href="#resetDef" x="30" y="36" onmousedown="handleReset()"/>
   <use id="arrowup" xlink:href="#arrowUp" x="0" y="0" onmousedown="handlePan(0,-1)"/>
  <use id="arrowright" xlink:href="#arrowRight" x="0" y="0" onmousedown="handlePan(1,0)"/>
  <use id="arrowdown" xlink:href="#arrowDown" x="0" y="0" onmousedown="handlePan(0,1)"/>
  <use id="arrowleft" xlink:href="#arrowLeft" x="0" y="0" onmousedown="handlePan(-1,0)"/>
</g>
<svg viewBox="0 0 15 15" width="100%" height="30px" preserveAspectRatio="xMaxYMin meet">
 <g id="arrow_out" transform="scale(0.3 0.3)">
  <a xlink:href="classIoss_1_1EdgeSet__coll__graph_org.svg" target="_base">
   <rect id="button" ry="5" rx="5" y="6" x="6" height="38" width="38"
        fill="#f2f5e9" fill-opacity="0.5" stroke="#606060" stroke-width="1.0"/>
   <path id="arrow"
     d="M 11.500037,31.436501 C 11.940474,20.09759 22.043105,11.32322 32.158766,21.979434 L 37.068811,17.246167 C 37.068811,17.246167 37.088388,32 37.088388,32 L 22.160133,31.978069 C 22.160133,31.978069 26.997745,27.140456 26.997745,27.140456 C 18.528582,18.264221 13.291696,25.230495 11.500037,31.436501 z"
     style="fill:#404040;"/>
  </a>
 </g>
</svg>

<style type='text/css'>
<![CDATA[
[data-mouse-over-selected='false'] { opacity: 0.7; }
[data-mouse-over-selected='true']  { opacity: 1.0; }
]]>
</style>
<script type="application/ecmascript"><![CDATA[
document.addEventListener('DOMContentLoaded', (event) => {
  highlightEdges();
  highlightAdjacentNodes();
});
]]></script>
</svg>
