<?xml version="1.0" encoding="UTF-8" standalone="no"?>
<!DOCTYPE svg PUBLIC "-//W3C//DTD SVG 1.1//EN"
 "http://www.w3.org/Graphics/SVG/1.1/DTD/svg11.dtd">
<!-- Generated by graphviz version 3.0.0 (20220226.1711)
 -->
<!-- Title: Iocatalyst::DatabaseIO::ImplementationT Pages: 1 -->
<svg width="1362pt" height="225pt"
 viewBox="0.00 0.00 1362.00 225.00" xmlns="http://www.w3.org/2000/svg" xmlns:xlink="http://www.w3.org/1999/xlink">
<g id="graph0" class="graph" transform="scale(1 1) rotate(0) translate(4 221)">
<title>Iocatalyst::DatabaseIO::ImplementationT</title>
<polygon fill="white" stroke="transparent" points="-4,4 -4,-221 1358,-221 1358,4 -4,4"/>
<!-- Node1 -->
<g id="node1" class="node">
<title>Node1</title>
<g id="a_node1"><a xlink:title=" ">
<polygon fill="#bfbfbf" stroke="black" points="1236,-110 1236,-140 1354,-140 1354,-110 1236,-110"/>
<text text-anchor="start" x="1244" y="-128" font-family="Helvetica,sans-Serif" font-size="10.00">Iocatalyst::DatabaseIO</text>
<text text-anchor="middle" x="1295" y="-117" font-family="Helvetica,sans-Serif" font-size="10.00">::ImplementationT</text>
</a>
</g>
</g>
<!-- Node2 -->
<g id="node2" class="node">
<title>Node2</title>
<g id="a_node2"><a xlink:href="classIoss_1_1Map.html" target="_top" xlink:title=" ">
<polygon fill="white" stroke="black" points="1094,-115.5 1094,-134.5 1154,-134.5 1154,-115.5 1094,-115.5"/>
<text text-anchor="middle" x="1124" y="-122.5" font-family="Helvetica,sans-Serif" font-size="10.00">Ioss::Map</text>
</a>
</g>
</g>
<!-- Node2&#45;&gt;Node1 -->
<g id="edge1" class="edge">
<title>Node2&#45;&gt;Node1</title>
<path fill="none" stroke="#9a32cd" stroke-dasharray="5,2" d="M1164.34,-125C1185.62,-125 1212.32,-125 1235.96,-125"/>
<polygon fill="#9a32cd" stroke="#9a32cd" points="1164.05,-121.5 1154.05,-125 1164.05,-128.5 1164.05,-121.5"/>
<text text-anchor="middle" x="1195" y="-128" font-family="Helvetica,sans-Serif" font-size="10.00"> NodeMap</text>
</g>
<!-- Node3 -->
<g id="node3" class="node">
<title>Node3</title>
<g id="a_node3"><a xlink:href="classtsl_1_1bhopscotch__map.html" target="_top" xlink:title=" ">
<polygon fill="white" stroke="black" points="902,-110 902,-140 1009,-140 1009,-110 902,-110"/>
<text text-anchor="start" x="910" y="-128" font-family="Helvetica,sans-Serif" font-size="10.00">tsl::bhopscotch_map</text>
<text text-anchor="middle" x="955.5" y="-117" font-family="Helvetica,sans-Serif" font-size="10.00">&lt; int64_t, int64_t &gt;</text>
</a>
</g>
</g>
<!-- Node3&#45;&gt;Node2 -->
<g id="edge2" class="edge">
<title>Node3&#45;&gt;Node2</title>
<path fill="none" stroke="#9a32cd" stroke-dasharray="5,2" d="M1019.23,-125C1044.88,-125 1073.3,-125 1093.9,-125"/>
<polygon fill="#9a32cd" stroke="#9a32cd" points="1019.18,-121.5 1009.18,-125 1019.18,-128.5 1019.18,-121.5"/>
<text text-anchor="middle" x="1051.5" y="-128" font-family="Helvetica,sans-Serif" font-size="10.00"> m_reverse</text>
</g>
<!-- Node4 -->
<g id="node4" class="node">
<title>Node4</title>
<g id="a_node4"><a xlink:href="classtsl_1_1detail__hopscotch__hash_1_1hopscotch__hash.html" target="_top" xlink:title=" ">
<polygon fill="white" stroke="black" points="676,-60.5 676,-189.5 841,-189.5 841,-60.5 676,-60.5"/>
<text text-anchor="start" x="684" y="-177.5" font-family="Helvetica,sans-Serif" font-size="10.00">tsl::detail_hopscotch</text>
<text text-anchor="start" x="684" y="-166.5" font-family="Helvetica,sans-Serif" font-size="10.00">_hash::hopscotch_hash</text>
<text text-anchor="start" x="684" y="-155.5" font-family="Helvetica,sans-Serif" font-size="10.00">&lt; std::pair&lt; const int64</text>
<text text-anchor="start" x="684" y="-144.5" font-family="Helvetica,sans-Serif" font-size="10.00">_t, int64_t &gt;, KeySelect,</text>
<text text-anchor="start" x="684" y="-133.5" font-family="Helvetica,sans-Serif" font-size="10.00"> ValueSelect, std::hash&lt;</text>
<text text-anchor="start" x="684" y="-122.5" font-family="Helvetica,sans-Serif" font-size="10.00"> int64_t &gt;, std::equal_to</text>
<text text-anchor="start" x="684" y="-111.5" font-family="Helvetica,sans-Serif" font-size="10.00">&lt; int64_t &gt;, std::allocator</text>
<text text-anchor="start" x="684" y="-100.5" font-family="Helvetica,sans-Serif" font-size="10.00">&lt; std::pair&lt; const int64_t,</text>
<text text-anchor="start" x="684" y="-89.5" font-family="Helvetica,sans-Serif" font-size="10.00"> int64_t &gt; &gt;, 62, false, tsl</text>
<text text-anchor="start" x="684" y="-78.5" font-family="Helvetica,sans-Serif" font-size="10.00">::hh::power_of_two_growth_policy</text>
<text text-anchor="middle" x="758.5" y="-67.5" font-family="Helvetica,sans-Serif" font-size="10.00">&lt; 2 &gt;, overflow_container_type &gt;</text>
</a>
</g>
</g>
<!-- Node4&#45;&gt;Node3 -->
<g id="edge3" class="edge">
<title>Node4&#45;&gt;Node3</title>
<path fill="none" stroke="#9a32cd" stroke-dasharray="5,2" d="M851.25,-125C868.62,-125 886.23,-125 901.87,-125"/>
<polygon fill="#9a32cd" stroke="#9a32cd" points="851.07,-121.5 841.07,-125 851.07,-128.5 851.07,-121.5"/>
<text text-anchor="middle" x="871.5" y="-128" font-family="Helvetica,sans-Serif" font-size="10.00"> m_ht</text>
</g>
<!-- Node5 -->
<g id="node5" class="node">
<title>Node5</title>
<g id="a_node5"><a xlink:title=" ">
<polygon fill="white" stroke="black" points="404.5,-197.5 404.5,-216.5 508.5,-216.5 508.5,-197.5 404.5,-197.5"/>
<text text-anchor="middle" x="456.5" y="-204.5" font-family="Helvetica,sans-Serif" font-size="10.00">std::hash&lt; int64_t &gt;</text>
</a>
</g>
</g>
<!-- Node5&#45;&gt;Node4 -->
<g id="edge4" class="edge">
<title>Node5&#45;&gt;Node4</title>
<path fill="none" stroke="#8b1a1a" d="M516.45,-195.45C556.66,-187.09 610.94,-174.86 658,-161 663.82,-159.29 669.78,-157.42 675.77,-155.46"/>
<polygon fill="#8b1a1a" stroke="#8b1a1a" points="515.64,-192.04 506.55,-197.49 517.05,-198.9 515.64,-192.04"/>
</g>
<!-- Node6 -->
<g id="node6" class="node">
<title>Node6</title>
<g id="a_node6"><a xlink:title=" ">
<polygon fill="white" stroke="black" points="396.5,-159.5 396.5,-178.5 516.5,-178.5 516.5,-159.5 396.5,-159.5"/>
<text text-anchor="middle" x="456.5" y="-166.5" font-family="Helvetica,sans-Serif" font-size="10.00">std::equal_to&lt; int64_t &gt;</text>
</a>
</g>
</g>
<!-- Node6&#45;&gt;Node4 -->
<g id="edge5" class="edge">
<title>Node6&#45;&gt;Node4</title>
<path fill="none" stroke="#8b1a1a" d="M526.9,-158.82C571.37,-152.3 629.27,-143.81 675.92,-136.96"/>
<polygon fill="#8b1a1a" stroke="#8b1a1a" points="526.16,-155.39 516.77,-160.31 527.17,-162.32 526.16,-155.39"/>
</g>
<!-- Node7 -->
<g id="node7" class="node">
<title>Node7</title>
<g id="a_node7"><a xlink:href="classtsl_1_1hh_1_1power__of__two__growth__policy.html" target="_top" xlink:title=" ">
<polygon fill="white" stroke="black" points="401.5,-110 401.5,-140 511.5,-140 511.5,-110 401.5,-110"/>
<text text-anchor="start" x="409.5" y="-128" font-family="Helvetica,sans-Serif" font-size="10.00">tsl::hh::power_of_two</text>
<text text-anchor="middle" x="456.5" y="-117" font-family="Helvetica,sans-Serif" font-size="10.00">_growth_policy&lt; 2 &gt;</text>
</a>
</g>
</g>
<!-- Node7&#45;&gt;Node4 -->
<g id="edge6" class="edge">
<title>Node7&#45;&gt;Node4</title>
<path fill="none" stroke="#8b1a1a" d="M522.05,-125C567.07,-125 627.5,-125 675.86,-125"/>
<polygon fill="#8b1a1a" stroke="#8b1a1a" points="521.83,-121.5 511.83,-125 521.83,-128.5 521.83,-121.5"/>
</g>
<!-- Node8 -->
<g id="node8" class="node">
<title>Node8</title>
<g id="a_node8"><a xlink:href="classtsl_1_1detail__hopscotch__hash_1_1hopscotch__bucket.html" target="_top" xlink:title=" ">
<polygon fill="white" stroke="black" points="377,-39 377,-91 536,-91 536,-39 377,-39"/>
<text text-anchor="start" x="385" y="-79" font-family="Helvetica,sans-Serif" font-size="10.00">tsl::detail_hopscotch</text>
<text text-anchor="start" x="385" y="-68" font-family="Helvetica,sans-Serif" font-size="10.00">_hash::hopscotch_bucket</text>
<text text-anchor="start" x="385" y="-57" font-family="Helvetica,sans-Serif" font-size="10.00">&lt; ValueType, NeighborhoodSize,</text>
<text text-anchor="middle" x="456.5" y="-46" font-family="Helvetica,sans-Serif" font-size="10.00"> StoreHash &gt;</text>
</a>
</g>
</g>
<!-- Node8&#45;&gt;Node4 -->
<g id="edge7" class="edge">
<title>Node8&#45;&gt;Node4</title>
<path fill="none" stroke="#9a32cd" stroke-dasharray="5,2" d="M546.31,-82.76C587.32,-90.96 635.7,-100.64 675.81,-108.66"/>
<polygon fill="#9a32cd" stroke="#9a32cd" points="546.81,-79.29 536.32,-80.76 545.44,-86.16 546.81,-79.29"/>
<text text-anchor="middle" x="606" y="-106" font-family="Helvetica,sans-Serif" font-size="10.00"> m_buckets</text>
</g>
<!-- Node9 -->
<g id="node9" class="node">
<title>Node9</title>
<g id="a_node9"><a xlink:href="classtsl_1_1detail__hopscotch__hash_1_1hopscotch__bucket__hash.html" target="_top" xlink:title=" ">
<polygon fill="white" stroke="black" points="56,-77.5 56,-118.5 184,-118.5 184,-77.5 56,-77.5"/>
<text text-anchor="start" x="64" y="-106.5" font-family="Helvetica,sans-Serif" font-size="10.00">tsl::detail_hopscotch</text>
<text text-anchor="start" x="64" y="-95.5" font-family="Helvetica,sans-Serif" font-size="10.00">_hash::hopscotch_bucket</text>
<text text-anchor="middle" x="120" y="-84.5" font-family="Helvetica,sans-Serif" font-size="10.00">_hash&lt; StoreHash &gt;</text>
</a>
</g>
</g>
<!-- Node9&#45;&gt;Node8 -->
<g id="edge8" class="edge">
<title>Node9&#45;&gt;Node8</title>
<path fill="none" stroke="midnightblue" d="M194.5,-90.75C248.46,-85.42 321.67,-78.2 376.82,-72.76"/>
<polygon fill="midnightblue" stroke="midnightblue" points="193.92,-87.29 184.31,-91.75 194.61,-94.26 193.92,-87.29"/>
</g>
<!-- Node10 -->
<g id="node10" class="node">
<title>Node10</title>
<g id="a_node10"><a xlink:href="classtsl_1_1detail__hopscotch__hash_1_1smallest__type__for__min__bits.html" target="_top" xlink:title=" ">
<polygon fill="white" stroke="black" points="0,-6 0,-58 240,-58 240,-6 0,-6"/>
<text text-anchor="start" x="8" y="-46" font-family="Helvetica,sans-Serif" font-size="10.00">tsl::detail_hopscotch</text>
<text text-anchor="start" x="8" y="-35" font-family="Helvetica,sans-Serif" font-size="10.00">_hash::smallest_type</text>
<text text-anchor="start" x="8" y="-24" font-family="Helvetica,sans-Serif" font-size="10.00">_for_min_bits&lt; NeighborhoodSize</text>
<text text-anchor="middle" x="120" y="-13" font-family="Helvetica,sans-Serif" font-size="10.00">+NB_RESERVED_BITS_IN_NEIGHBORHOOD &gt;</text>
</a>
</g>
</g>
<!-- Node10&#45;&gt;Node8 -->
<g id="edge9" class="edge">
<title>Node10&#45;&gt;Node8</title>
<path fill="none" stroke="#9a32cd" stroke-dasharray="5,2" d="M250.53,-44.78C293.2,-48.99 339.32,-53.54 376.99,-57.25"/>
<polygon fill="#9a32cd" stroke="#9a32cd" points="250.64,-41.27 240.35,-43.77 249.95,-48.24 250.64,-41.27"/>
<text text-anchor="middle" x="308.5" y="-58" font-family="Helvetica,sans-Serif" font-size="10.00"> m_neighborhood_infos</text>
</g>
<!-- Node11 -->
<g id="node11" class="node">
<title>Node11</title>
<g id="a_node11"><a xlink:title=" ">
<polygon fill="white" stroke="black" points="435,-0.5 435,-19.5 478,-19.5 478,-0.5 435,-0.5"/>
<text text-anchor="middle" x="456.5" y="-7.5" font-family="Helvetica,sans-Serif" font-size="10.00">size_t</text>
</a>
</g>
</g>
<!-- Node11&#45;&gt;Node4 -->
<g id="edge10" class="edge">
<title>Node11&#45;&gt;Node4</title>
<path fill="none" stroke="#9a32cd" stroke-dasharray="5,2" d="M488.12,-5.91C528.91,-1.84 602.4,0.58 658,-25 676.02,-33.29 692.6,-46.35 706.84,-60.32"/>
<polygon fill="#9a32cd" stroke="#9a32cd" points="487.56,-2.45 478,-7.02 488.32,-9.41 487.56,-2.45"/>
<text text-anchor="start" x="554" y="-72" font-family="Helvetica,sans-Serif" font-size="10.00"> m_max_load_threshold</text>
<text text-anchor="middle" x="606" y="-61" font-family="Helvetica,sans-Serif" font-size="10.00">_rehash</text>
<text text-anchor="start" x="554" y="-50" font-family="Helvetica,sans-Serif" font-size="10.00">m_min_load_threshold</text>
<text text-anchor="middle" x="606" y="-39" font-family="Helvetica,sans-Serif" font-size="10.00">_rehash</text>
<text text-anchor="middle" x="606" y="-28" font-family="Helvetica,sans-Serif" font-size="10.00">m_nb_elements</text>
</g>
</g>
</svg>
