<?xml version="1.0" encoding="UTF-8" standalone="no"?>
<!DOCTYPE svg PUBLIC "-//W3C//DTD SVG 1.1//EN"
 "http://www.w3.org/Graphics/SVG/1.1/DTD/svg11.dtd">
<!-- Generated by graphviz version 8.1.0 (20230707.0739)
 -->
<!-- Title: tsl::detail_robin_hash::robin_hash&lt; ValueType, KeySelect, ValueSelect, Hash, KeyEqual, Allocator, StoreHash, GrowthPolicy &gt; Pages: 1 -->
<!--zoomable 199 -->

<svg id="main" version="1.1" xmlns="http://www.w3.org/2000/svg" xmlns:xlink="http://www.w3.org/1999/xlink" xml:space="preserve" onload="init(evt)">
<style type="text/css"><![CDATA[
.node, .edge {opacity: 0.7;}
.node.selected, .edge.selected {opacity: 1;}
.edge:hover path { stroke: red; }
.edge:hover polygon { stroke: red; fill: red; }
]]></style>

<defs>
  <circle id="rim" cx="0" cy="0" r="7"/>
  <circle id="rim2" cx="0" cy="0" r="3.5"/>
  <g id="zoomPlus">
    <use xlink:href="#rim" fill="#404040"><set attributeName="fill" to="#808080" begin="zoomplus.mouseover" end="zoomplus.mouseout"/></use>
    <path d="M-4,0h8M0,-4v8" fill="none" stroke="white" stroke-width="1.5" pointer-events="none"/>
  </g>
  <g id="zoomMin">
    <use xlink:href="#rim" fill="#404040"><set attributeName="fill" to="#808080" begin="zoomminus.mouseover" end="zoomminus.mouseout"/></use>
    <path d="M-4,0h8" fill="none" stroke="white" stroke-width="1.5" pointer-events="none"/>
  </g>
  <g id="arrowUp" transform="translate(30 24)">
    <use xlink:href="#rim"/>
    <path pointer-events="none" fill="none" stroke="white" stroke-width="1.5" d="M0,-3.0v7 M-2.5,-0.5L0,-3.0L2.5,-0.5"/>
  </g>
  <g id="arrowRight" transform="rotate(90) translate(36 -43)">
    <use xlink:href="#rim"/>
    <path pointer-events="none" fill="none" stroke="white" stroke-width="1.5" d="M0,-3.0v7 M-2.5,-0.5L0,-3.0L2.5,-0.5"/>
  </g>
  <g id="arrowDown" transform="rotate(180) translate(-30 -48)">
    <use xlink:href="#rim"/>
    <path pointer-events="none" fill="none" stroke="white" stroke-width="1.5" d="M0,-3.0v7 M-2.5,-0.5L0,-3.0L2.5,-0.5"/>
  </g>
  <g id="arrowLeft" transform="rotate(270) translate(-36 17)">
    <use xlink:href="#rim"/>
    <path pointer-events="none" fill="none" stroke="white" stroke-width="1.5" d="M0,-3.0v7 M-2.5,-0.5L0,-3.0L2.5,-0.5"/>
  </g>
  <g id="resetDef">
    <use xlink:href="#rim2" fill="#404040"><set attributeName="fill" to="#808080" begin="reset.mouseover" end="reset.mouseout"/></use>
  </g>
</defs>
<script type="application/ecmascript">
var viewWidth = 601;
var viewHeight = 199;
var sectionId = 'dynsection-1';
</script>
<script type="application/ecmascript" xlink:href="svg.min.js"/>
<svg id="graph" class="graph">
<g id="viewport">
<title>tsl::detail_robin_hash::robin_hash&lt; ValueType, KeySelect, ValueSelect, Hash, KeyEqual, Allocator, StoreHash, GrowthPolicy &gt;</title>
<!-- Node1 -->
<g id="Node000001" class="node">
<title>Node1</title>
<g id="a_Node000001"><a xlink:title=" ">
<polygon fill="#999999" stroke="#666666" points="592.75,-139.75 453.75,-139.75 453.75,-75.5 592.75,-75.5 592.75,-139.75"/>
<text text-anchor="start" x="461.75" y="-126.25" font-family="Helvetica,sans-Serif" font-size="10.00">tsl::detail_robin_hash</text>
<text text-anchor="start" x="461.75" y="-115" font-family="Helvetica,sans-Serif" font-size="10.00">::robin_hash&lt; ValueType,</text>
<text text-anchor="start" x="461.75" y="-103.75" font-family="Helvetica,sans-Serif" font-size="10.00"> KeySelect, ValueSelect,</text>
<text text-anchor="start" x="461.75" y="-92.5" font-family="Helvetica,sans-Serif" font-size="10.00"> Hash, KeyEqual, Allocator,</text>
<text text-anchor="middle" x="523.25" y="-81.25" font-family="Helvetica,sans-Serif" font-size="10.00"> StoreHash, GrowthPolicy &gt;</text>
</a>
</g>
</g>
<!-- Node2 -->
<g id="Node000002" class="node">
<title>Node2</title>
<g id="a_Node000002"><a xlink:title=" ">
<polygon fill="white" stroke="#666666" points="293.25,-191.25 254,-191.25 254,-172 293.25,-172 293.25,-191.25"/>
<text text-anchor="middle" x="273.62" y="-177.75" font-family="Helvetica,sans-Serif" font-size="10.00">Hash</text>
</a>
</g>
</g>
<!-- Node2&#45;&gt;Node1 -->
<g id="edge1_Node000001_Node000002" class="edge">
<title>Node2&#45;&gt;Node1</title>
<g id="a_edge1_Node000001_Node000002"><a xlink:title=" ">
<path fill="none" stroke="#8b1a1a" d="M304.26,-175.16C336.8,-167.82 390.46,-154.97 435.75,-140.62 441.57,-138.78 447.57,-136.76 453.57,-134.65"/>
<polygon fill="#8b1a1a" stroke="#8b1a1a" points="303.67,-171.93 294.68,-177.53 305.2,-178.76 303.67,-171.93"/>
</a>
</g>
</g>
<!-- Node3 -->
<g id="Node000003" class="node">
<title>Node3</title>
<g id="a_Node000003"><a xlink:title=" ">
<polygon fill="white" stroke="#666666" points="302.62,-154.25 244.62,-154.25 244.62,-135 302.62,-135 302.62,-154.25"/>
<text text-anchor="middle" x="273.62" y="-140.75" font-family="Helvetica,sans-Serif" font-size="10.00">KeyEqual</text>
</a>
</g>
</g>
<!-- Node3&#45;&gt;Node1 -->
<g id="edge2_Node000001_Node000003" class="edge">
<title>Node3&#45;&gt;Node1</title>
<g id="a_edge2_Node000001_Node000003"><a xlink:title=" ">
<path fill="none" stroke="#8b1a1a" d="M313.77,-139.25C346.41,-134.71 394.14,-127.96 435.75,-121.62 441.46,-120.75 447.39,-119.83 453.33,-118.9"/>
<polygon fill="#8b1a1a" stroke="#8b1a1a" points="313.31,-135.91 303.88,-140.75 314.27,-142.85 313.31,-135.91"/>
</a>
</g>
</g>
<!-- Node4 -->
<g id="Node000004" class="node">
<title>Node4</title>
<g id="a_Node000004"><a xlink:title=" ">
<polygon fill="white" stroke="#666666" points="310.88,-117.25 236.38,-117.25 236.38,-98 310.88,-98 310.88,-117.25"/>
<text text-anchor="middle" x="273.62" y="-103.75" font-family="Helvetica,sans-Serif" font-size="10.00">GrowthPolicy</text>
</a>
</g>
</g>
<!-- Node4&#45;&gt;Node1 -->
<g id="edge3_Node000001_Node000004" class="edge">
<title>Node4&#45;&gt;Node1</title>
<g id="a_edge3_Node000001_Node000004"><a xlink:title=" ">
<path fill="none" stroke="#8b1a1a" d="M321.74,-107.62C359.06,-107.62 411.73,-107.62 453.71,-107.62"/>
<polygon fill="#8b1a1a" stroke="#8b1a1a" points="322.16,-104.13 312.16,-107.62 322.16,-111.13 322.16,-104.13"/>
</a>
</g>
</g>
<!-- Node5 -->
<g id="Node000005" class="node">
<title>Node5</title>
<g id="a_Node000005"><a xlink:href="classtsl_1_1detail__robin__hash_1_1bucket__entry.html" target="_top" xlink:title=" ">
<polygon fill="white" stroke="#666666" points="341.25,-79.5 206,-79.5 206,-37.75 341.25,-37.75 341.25,-79.5"/>
<text text-anchor="start" x="214" y="-66" font-family="Helvetica,sans-Serif" font-size="10.00">tsl::detail_robin_hash</text>
<text text-anchor="start" x="214" y="-54.75" font-family="Helvetica,sans-Serif" font-size="10.00">::bucket_entry&lt; ValueType,</text>
<text text-anchor="middle" x="273.62" y="-43.5" font-family="Helvetica,sans-Serif" font-size="10.00"> StoreHash &gt;</text>
</a>
</g>
</g>
<!-- Node5&#45;&gt;Node1 -->
<g id="edge4_Node000001_Node000005" class="edge">
<title>Node5&#45;&gt;Node1</title>
<g id="a_edge4_Node000001_Node000005"><a xlink:title=" ">
<path fill="none" stroke="#9a32cd" stroke-dasharray="5,2" d="M352.42,-74.02C384.8,-80.43 422.09,-87.81 453.46,-94.01"/>
<polygon fill="#9a32cd" stroke="#9a32cd" points="353.13,-70.39 342.64,-71.89 351.77,-77.26 353.13,-70.39"/>
</a>
</g>
<text text-anchor="middle" x="397.5" y="-91.38" font-family="Helvetica,sans-Serif" font-size="10.00" fill="grey"> m_buckets</text>
</g>
<!-- Node6 -->
<g id="Node000006" class="node">
<title>Node6</title>
<g id="a_Node000006"><a xlink:href="classtsl_1_1detail__robin__hash_1_1bucket__entry__hash.html" target="_top" xlink:title=" ">
<polygon fill="white" stroke="#666666" points="169,-73.88 0,-73.88 0,-43.38 169,-43.38 169,-73.88"/>
<text text-anchor="start" x="8" y="-60.38" font-family="Helvetica,sans-Serif" font-size="10.00">tsl::detail_robin_hash</text>
<text text-anchor="middle" x="84.5" y="-49.12" font-family="Helvetica,sans-Serif" font-size="10.00">::bucket_entry_hash&lt; StoreHash &gt;</text>
</a>
</g>
</g>
<!-- Node6&#45;&gt;Node5 -->
<g id="edge5_Node000005_Node000006" class="edge">
<title>Node6&#45;&gt;Node5</title>
<g id="a_edge5_Node000005_Node000006"><a xlink:title=" ">
<path fill="none" stroke="#63b8ff" d="M180.34,-58.62C188.91,-58.62 197.48,-58.62 205.74,-58.62"/>
<polygon fill="#63b8ff" stroke="#63b8ff" points="180.48,-55.13 170.48,-58.62 180.48,-62.13 180.48,-55.13"/>
</a>
</g>
</g>
<!-- Node7 -->
<g id="Node000007" class="node">
<title>Node7</title>
<g id="a_Node000007"><a xlink:title=" ">
<polygon fill="white" stroke="#666666" points="294.75,-19.25 252.5,-19.25 252.5,0 294.75,0 294.75,-19.25"/>
<text text-anchor="middle" x="273.62" y="-5.75" font-family="Helvetica,sans-Serif" font-size="10.00">size_t</text>
</a>
</g>
</g>
<!-- Node7&#45;&gt;Node1 -->
<g id="edge6_Node000001_Node000007" class="edge">
<title>Node7&#45;&gt;Node1</title>
<g id="a_edge6_Node000001_Node000007"><a xlink:title=" ">
<path fill="none" stroke="#9a32cd" stroke-dasharray="5,2" d="M306.12,-10.52C339.64,-12.5 393.53,-18.71 435.75,-37.88 455.6,-46.88 474.78,-61.53 490.01,-75.08"/>
<polygon fill="#9a32cd" stroke="#9a32cd" points="306.33,-6.97 296.17,-9.98 305.99,-13.96 306.33,-6.97"/>
</a>
</g>
<text text-anchor="middle" x="397.5" y="-62.88" font-family="Helvetica,sans-Serif" font-size="10.00" fill="grey"> m_bucket_count</text>
<text text-anchor="middle" x="397.5" y="-51.62" font-family="Helvetica,sans-Serif" font-size="10.00" fill="grey">m_load_threshold</text>
<text text-anchor="middle" x="397.5" y="-40.38" font-family="Helvetica,sans-Serif" font-size="10.00" fill="grey">m_nb_elements</text>
</g>
</g>
</svg>

<g id="navigator" transform="translate(0 0)" fill="#404254">
  <rect fill="#f2f5e9" fill-opacity="0.5" stroke="#606060" stroke-width=".5" x="0" y="0" width="60" height="60"/>
  <use id="zoomplus" xlink:href="#zoomPlus" x="17" y="9" onmousedown="handleZoom(evt,'in')"/>
  <use id="zoomminus" xlink:href="#zoomMin" x="42" y="9" onmousedown="handleZoom(evt,'out')"/>
  <use id="reset" xlink:href="#resetDef" x="30" y="36" onmousedown="handleReset()"/>
   <use id="arrowup" xlink:href="#arrowUp" x="0" y="0" onmousedown="handlePan(0,-1)"/>
  <use id="arrowright" xlink:href="#arrowRight" x="0" y="0" onmousedown="handlePan(1,0)"/>
  <use id="arrowdown" xlink:href="#arrowDown" x="0" y="0" onmousedown="handlePan(0,1)"/>
  <use id="arrowleft" xlink:href="#arrowLeft" x="0" y="0" onmousedown="handlePan(-1,0)"/>
</g>
<svg viewBox="0 0 15 15" width="100%" height="30px" preserveAspectRatio="xMaxYMin meet">
 <g id="arrow_out" transform="scale(0.3 0.3)">
  <a xlink:href="classtsl_1_1detail__robin__hash_1_1robin__hash__coll__graph_org.svg" target="_base">
   <rect id="button" ry="5" rx="5" y="6" x="6" height="38" width="38"
        fill="#f2f5e9" fill-opacity="0.5" stroke="#606060" stroke-width="1.0"/>
   <path id="arrow"
     d="M 11.500037,31.436501 C 11.940474,20.09759 22.043105,11.32322 32.158766,21.979434 L 37.068811,17.246167 C 37.068811,17.246167 37.088388,32 37.088388,32 L 22.160133,31.978069 C 22.160133,31.978069 26.997745,27.140456 26.997745,27.140456 C 18.528582,18.264221 13.291696,25.230495 11.500037,31.436501 z"
     style="fill:#404040;"/>
  </a>
 </g>
</svg>

<style type='text/css'>
<![CDATA[
[data-mouse-over-selected='false'] { opacity: 0.7; }
[data-mouse-over-selected='true']  { opacity: 1.0; }
]]>
</style>
<script type="application/ecmascript"><![CDATA[
document.addEventListener('DOMContentLoaded', (event) => {
  highlightEdges();
  highlightAdjacentNodes();
});
]]></script>
</svg>
