<?xml version="1.0" encoding="UTF-8" standalone="no"?>
<!DOCTYPE svg PUBLIC "-//W3C//DTD SVG 1.1//EN"
 "http://www.w3.org/Graphics/SVG/1.1/DTD/svg11.dtd">
<!-- Generated by graphviz version 9.0.0 (20230911.1827)
 -->
<!-- Title: IossApplication Pages: 1 -->
<svg width="1271pt" height="222pt"
 viewBox="0.00 0.00 1271.25 222.25" xmlns="http://www.w3.org/2000/svg" xmlns:xlink="http://www.w3.org/1999/xlink">
<g id="graph0" class="graph" transform="scale(1 1) rotate(0) translate(4 218.25)">
<title>IossApplication</title>
<!-- Node1 -->
<g id="Node000001" class="node">
<title>Node1</title>
<g id="a_Node000001"><a xlink:title=" ">
<polygon fill="#999999" stroke="#666666" points="1263.25,-144.25 1180.5,-144.25 1180.5,-125 1263.25,-125 1263.25,-144.25"/>
<text text-anchor="middle" x="1221.88" y="-130.75" font-family="Helvetica,sans-Serif" font-size="10.00">IossApplication</text>
</a>
</g>
</g>
<!-- Node2 -->
<g id="Node000002" class="node">
<title>Node2</title>
<g id="a_Node000002"><a xlink:href="classstd_1_1basic__string.html" target="_top" xlink:title=" ">
<polygon fill="white" stroke="#666666" points="1052.62,-170.88 944.38,-170.88 944.38,-140.38 1052.62,-140.38 1052.62,-170.88"/>
<text text-anchor="start" x="952.38" y="-157.38" font-family="Helvetica,sans-Serif" font-size="10.00">std::basic_string&lt;</text>
<text text-anchor="middle" x="998.5" y="-146.12" font-family="Helvetica,sans-Serif" font-size="10.00"> Elem, Traits, Alloc &gt;</text>
</a>
</g>
</g>
<!-- Node2&#45;&gt;Node1 -->
<g id="edge1_Node000001_Node000002" class="edge">
<title>Node2&#45;&gt;Node1</title>
<g id="a_edge1_Node000001_Node000002"><a xlink:title=" ">
<path fill="none" stroke="#9a32cd" stroke-dasharray="5,2" d="M1064.42,-149.47C1101.9,-145.91 1147.88,-141.55 1180.26,-138.48"/>
<polygon fill="#9a32cd" stroke="#9a32cd" points="1064.22,-145.97 1054.6,-150.4 1064.88,-152.94 1064.22,-145.97"/>
</a>
</g>
<text text-anchor="middle" x="1118.25" y="-149.38" font-family="Helvetica,sans-Serif" font-size="10.00" fill="grey"> applicationName</text>
</g>
<!-- Node3 -->
<g id="Node000003" class="node">
<title>Node3</title>
<g id="a_Node000003"><a xlink:href="classIoss_1_1PropertyManager.html" target="_top" xlink:title="A collection of Ioss::Property objects.">
<polygon fill="white" stroke="#666666" points="1056,-122.25 941,-122.25 941,-103 1056,-103 1056,-122.25"/>
<text text-anchor="middle" x="998.5" y="-108.75" font-family="Helvetica,sans-Serif" font-size="10.00">Ioss::PropertyManager</text>
</a>
</g>
</g>
<!-- Node3&#45;&gt;Node1 -->
<g id="edge2_Node000001_Node000003" class="edge">
<title>Node3&#45;&gt;Node1</title>
<g id="a_edge2_Node000001_Node000003"><a xlink:title=" ">
<path fill="none" stroke="#9a32cd" stroke-dasharray="5,2" d="M1067.57,-115.98C1096.86,-117.82 1131.43,-120.54 1162.5,-124.38 1168.22,-125.08 1174.23,-125.97 1180.13,-126.93"/>
<polygon fill="#9a32cd" stroke="#9a32cd" points="1067.92,-112.5 1057.73,-115.38 1067.5,-119.48 1067.92,-112.5"/>
</a>
</g>
<text text-anchor="middle" x="1118.25" y="-125.38" font-family="Helvetica,sans-Serif" font-size="10.00" fill="grey"> additionalProperties</text>
</g>
<!-- Node4 -->
<g id="Node000004" class="node">
<title>Node4</title>
<g id="a_Node000004"><a xlink:href="classtsl_1_1robin__map.html" target="_top" xlink:title=" ">
<polygon fill="white" stroke="#666666" points="845.75,-127.88 745.75,-127.88 745.75,-97.38 845.75,-97.38 845.75,-127.88"/>
<text text-anchor="start" x="753.75" y="-114.38" font-family="Helvetica,sans-Serif" font-size="10.00">tsl::robin_map&lt; std</text>
<text text-anchor="middle" x="795.75" y="-103.12" font-family="Helvetica,sans-Serif" font-size="10.00">::string, Property &gt;</text>
</a>
</g>
</g>
<!-- Node4&#45;&gt;Node3 -->
<g id="edge3_Node000003_Node000004" class="edge">
<title>Node4&#45;&gt;Node3</title>
<g id="a_edge3_Node000003_Node000004"><a xlink:title=" ">
<path fill="none" stroke="#9a32cd" stroke-dasharray="5,2" d="M857.5,-112.62C883.87,-112.62 914.57,-112.62 940.5,-112.62"/>
<polygon fill="#9a32cd" stroke="#9a32cd" points="857.63,-109.13 847.63,-112.63 857.63,-116.13 857.63,-109.13"/>
</a>
</g>
<text text-anchor="middle" x="893.38" y="-114.38" font-family="Helvetica,sans-Serif" font-size="10.00" fill="grey"> m_properties</text>
</g>
<!-- Node5 -->
<g id="Node000005" class="node">
<title>Node5</title>
<g id="a_Node000005"><a xlink:href="classtsl_1_1detail__robin__hash_1_1robin__hash.html" target="_top" xlink:title=" ">
<polygon fill="white" stroke="#666666" points="685,-167.25 477,-167.25 477,-58 685,-58 685,-167.25"/>
<text text-anchor="start" x="485" y="-153.75" font-family="Helvetica,sans-Serif" font-size="10.00">tsl::detail_robin_hash</text>
<text text-anchor="start" x="485" y="-142.5" font-family="Helvetica,sans-Serif" font-size="10.00">::robin_hash&lt; std::pair</text>
<text text-anchor="start" x="485" y="-131.25" font-family="Helvetica,sans-Serif" font-size="10.00">&lt; std::string, Property</text>
<text text-anchor="start" x="485" y="-120" font-family="Helvetica,sans-Serif" font-size="10.00"> &gt;, KeySelect, ValueSelect,</text>
<text text-anchor="start" x="485" y="-108.75" font-family="Helvetica,sans-Serif" font-size="10.00"> std::hash&lt; std::string &gt;,</text>
<text text-anchor="start" x="485" y="-97.5" font-family="Helvetica,sans-Serif" font-size="10.00"> std::equal_to&lt; std::string</text>
<text text-anchor="start" x="485" y="-86.25" font-family="Helvetica,sans-Serif" font-size="10.00"> &gt;, std::allocator&lt; std::pair</text>
<text text-anchor="start" x="485" y="-75" font-family="Helvetica,sans-Serif" font-size="10.00">&lt; std::string, Property &gt; &gt;, false,</text>
<text text-anchor="middle" x="581" y="-63.75" font-family="Helvetica,sans-Serif" font-size="10.00"> tsl::rh::power_of_two_growth_policy&lt; 2 &gt; &gt;</text>
</a>
</g>
</g>
<!-- Node5&#45;&gt;Node4 -->
<g id="edge4_Node000004_Node000005" class="edge">
<title>Node5&#45;&gt;Node4</title>
<g id="a_edge4_Node000004_Node000005"><a xlink:title=" ">
<path fill="none" stroke="#9a32cd" stroke-dasharray="5,2" d="M696.56,-112.62C713.71,-112.62 730.58,-112.62 745.37,-112.62"/>
<polygon fill="#9a32cd" stroke="#9a32cd" points="696.77,-109.13 686.77,-112.63 696.77,-116.13 696.77,-109.13"/>
</a>
</g>
<text text-anchor="middle" x="715.38" y="-114.38" font-family="Helvetica,sans-Serif" font-size="10.00" fill="grey"> m_ht</text>
</g>
<!-- Node6 -->
<g id="Node000006" class="node">
<title>Node6</title>
<g id="a_Node000006"><a xlink:title=" ">
<polygon fill="white" stroke="#666666" points="344.25,-214.25 226.25,-214.25 226.25,-195 344.25,-195 344.25,-214.25"/>
<text text-anchor="middle" x="285.25" y="-200.75" font-family="Helvetica,sans-Serif" font-size="10.00">std::hash&lt; std::string &gt;</text>
</a>
</g>
</g>
<!-- Node6&#45;&gt;Node5 -->
<g id="edge5_Node000005_Node000006" class="edge">
<title>Node6&#45;&gt;Node5</title>
<g id="a_edge5_Node000005_Node000006"><a xlink:title=" ">
<path fill="none" stroke="#8b1a1a" d="M341.8,-191.78C349.46,-189.82 357.19,-187.75 364.5,-185.62 401.39,-174.92 441.36,-161.81 476.73,-149.67"/>
<polygon fill="#8b1a1a" stroke="#8b1a1a" points="341.03,-188.36 332.18,-194.18 342.73,-195.16 341.03,-188.36"/>
</a>
</g>
</g>
<!-- Node7 -->
<g id="Node000007" class="node">
<title>Node7</title>
<g id="a_Node000007"><a xlink:title=" ">
<polygon fill="white" stroke="#666666" points="332.62,-176.88 237.88,-176.88 237.88,-146.38 332.62,-146.38 332.62,-176.88"/>
<text text-anchor="start" x="245.88" y="-163.38" font-family="Helvetica,sans-Serif" font-size="10.00">std::equal_to&lt; std</text>
<text text-anchor="middle" x="285.25" y="-152.12" font-family="Helvetica,sans-Serif" font-size="10.00">::string &gt;</text>
</a>
</g>
</g>
<!-- Node7&#45;&gt;Node5 -->
<g id="edge6_Node000005_Node000007" class="edge">
<title>Node7&#45;&gt;Node5</title>
<g id="a_edge6_Node000005_Node000007"><a xlink:title=" ">
<path fill="none" stroke="#8b1a1a" d="M344.4,-151.92C382.12,-145.63 432.32,-137.26 476.68,-129.86"/>
<polygon fill="#8b1a1a" stroke="#8b1a1a" points="343.9,-148.46 334.61,-153.56 345.05,-155.36 343.9,-148.46"/>
</a>
</g>
</g>
<!-- Node8 -->
<g id="Node000008" class="node">
<title>Node8</title>
<g id="a_Node000008"><a xlink:href="classtsl_1_1rh_1_1power__of__two__growth__policy.html" target="_top" xlink:title=" ">
<polygon fill="white" stroke="#666666" points="364.5,-127.88 206,-127.88 206,-97.38 364.5,-97.38 364.5,-127.88"/>
<text text-anchor="start" x="214" y="-114.38" font-family="Helvetica,sans-Serif" font-size="10.00">tsl::rh::power_of_two</text>
<text text-anchor="middle" x="285.25" y="-103.12" font-family="Helvetica,sans-Serif" font-size="10.00">_growth_policy&lt; GrowthFactor &gt;</text>
</a>
</g>
</g>
<!-- Node8&#45;&gt;Node5 -->
<g id="edge7_Node000005_Node000008" class="edge">
<title>Node8&#45;&gt;Node5</title>
<g id="a_edge7_Node000005_Node000008"><a xlink:title=" ">
<path fill="none" stroke="#8b1a1a" d="M376.45,-112.62C408.16,-112.62 444.03,-112.62 476.73,-112.62"/>
<polygon fill="#8b1a1a" stroke="#8b1a1a" points="376.48,-109.13 366.48,-112.63 376.48,-116.13 376.48,-109.13"/>
</a>
</g>
</g>
<!-- Node9 -->
<g id="Node000009" class="node">
<title>Node9</title>
<g id="a_Node000009"><a xlink:href="classtsl_1_1detail__robin__hash_1_1bucket__entry.html" target="_top" xlink:title=" ">
<polygon fill="white" stroke="#666666" points="352.88,-79.5 217.62,-79.5 217.62,-37.75 352.88,-37.75 352.88,-79.5"/>
<text text-anchor="start" x="225.62" y="-66" font-family="Helvetica,sans-Serif" font-size="10.00">tsl::detail_robin_hash</text>
<text text-anchor="start" x="225.62" y="-54.75" font-family="Helvetica,sans-Serif" font-size="10.00">::bucket_entry&lt; ValueType,</text>
<text text-anchor="middle" x="285.25" y="-43.5" font-family="Helvetica,sans-Serif" font-size="10.00"> StoreHash &gt;</text>
</a>
</g>
</g>
<!-- Node9&#45;&gt;Node5 -->
<g id="edge8_Node000005_Node000009" class="edge">
<title>Node9&#45;&gt;Node5</title>
<g id="a_edge8_Node000005_Node000009"><a xlink:title=" ">
<path fill="none" stroke="#9a32cd" stroke-dasharray="5,2" d="M364.22,-72.96C398.69,-79.29 439.7,-86.83 476.67,-93.63"/>
<polygon fill="#9a32cd" stroke="#9a32cd" points="365.23,-69.59 354.76,-71.22 363.96,-76.47 365.23,-69.59"/>
</a>
</g>
<text text-anchor="middle" x="420.75" y="-90.38" font-family="Helvetica,sans-Serif" font-size="10.00" fill="grey"> m_buckets</text>
</g>
<!-- Node10 -->
<g id="Node000010" class="node">
<title>Node10</title>
<g id="a_Node000010"><a xlink:href="classtsl_1_1detail__robin__hash_1_1bucket__entry__hash.html" target="_top" xlink:title=" ">
<polygon fill="white" stroke="#666666" points="169,-73.88 0,-73.88 0,-43.38 169,-43.38 169,-73.88"/>
<text text-anchor="start" x="8" y="-60.38" font-family="Helvetica,sans-Serif" font-size="10.00">tsl::detail_robin_hash</text>
<text text-anchor="middle" x="84.5" y="-49.12" font-family="Helvetica,sans-Serif" font-size="10.00">::bucket_entry_hash&lt; StoreHash &gt;</text>
</a>
</g>
</g>
<!-- Node10&#45;&gt;Node9 -->
<g id="edge9_Node000009_Node000010" class="edge">
<title>Node10&#45;&gt;Node9</title>
<g id="a_edge9_Node000009_Node000010"><a xlink:title=" ">
<path fill="none" stroke="#63b8ff" d="M180.82,-58.62C193.19,-58.62 205.64,-58.62 217.41,-58.62"/>
<polygon fill="#63b8ff" stroke="#63b8ff" points="181.01,-55.13 171.01,-58.63 181.01,-62.13 181.01,-55.13"/>
</a>
</g>
</g>
<!-- Node11 -->
<g id="Node000011" class="node">
<title>Node11</title>
<g id="a_Node000011"><a xlink:title=" ">
<polygon fill="white" stroke="#666666" points="306.38,-19.25 264.12,-19.25 264.12,0 306.38,0 306.38,-19.25"/>
<text text-anchor="middle" x="285.25" y="-5.75" font-family="Helvetica,sans-Serif" font-size="10.00">size_t</text>
</a>
</g>
</g>
<!-- Node11&#45;&gt;Node5 -->
<g id="edge10_Node000005_Node000011" class="edge">
<title>Node11&#45;&gt;Node5</title>
<g id="a_edge10_Node000005_Node000011"><a xlink:title=" ">
<path fill="none" stroke="#9a32cd" stroke-dasharray="5,2" d="M317.89,-11.67C353.24,-14.75 411.72,-22.22 459,-39.88 471.86,-44.68 484.88,-50.86 497.38,-57.59"/>
<polygon fill="#9a32cd" stroke="#9a32cd" points="318.59,-8.22 308.34,-10.91 318.03,-15.19 318.59,-8.22"/>
</a>
</g>
<text text-anchor="middle" x="420.75" y="-64.88" font-family="Helvetica,sans-Serif" font-size="10.00" fill="grey"> m_bucket_count</text>
<text text-anchor="middle" x="420.75" y="-53.62" font-family="Helvetica,sans-Serif" font-size="10.00" fill="grey">m_load_threshold</text>
<text text-anchor="middle" x="420.75" y="-42.38" font-family="Helvetica,sans-Serif" font-size="10.00" fill="grey">m_nb_elements</text>
</g>
</g>
</svg>
