<?xml version="1.0" encoding="UTF-8" standalone="no"?>
<!DOCTYPE svg PUBLIC "-//W3C//DTD SVG 1.1//EN"
 "http://www.w3.org/Graphics/SVG/1.1/DTD/svg11.dtd">
<!-- Generated by graphviz version 11.0.0 (20240428.1522)
 -->
<!-- Title: Ioss::FaceBlock Pages: 1 -->
<svg width="1565pt" height="319pt"
 viewBox="0.00 0.00 1564.50 318.88" xmlns="http://www.w3.org/2000/svg" xmlns:xlink="http://www.w3.org/1999/xlink">
<g id="graph0" class="graph" transform="scale(1 1) rotate(0) translate(4 314.88)">
<title>Ioss::FaceBlock</title>
<!-- Node1 -->
<g id="Node000001" class="node">
<title>Node1</title>
<g id="a_Node000001"><a xlink:title="A collection of element faces with the same topology.">
<polygon fill="#999999" stroke="#666666" points="1553.5,-263.25 1466.25,-263.25 1466.25,-244 1553.5,-244 1553.5,-263.25"/>
<text text-anchor="middle" x="1509.88" y="-249.75" font-family="Helvetica,sans-Serif" font-size="10.00">Ioss::FaceBlock</text>
</a>
</g>
</g>
<!-- Node2 -->
<g id="Node000002" class="node">
<title>Node2</title>
<g id="a_Node000002"><a xlink:href="classIoss_1_1EntityBlock.html" target="_top" xlink:title="Base class for all &#39;block&#39;&#45;type grouping entities, which means all members of the block are similar o...">
<polygon fill="white" stroke="#666666" points="1380.5,-263.25 1289.5,-263.25 1289.5,-244 1380.5,-244 1380.5,-263.25"/>
<text text-anchor="middle" x="1335" y="-249.75" font-family="Helvetica,sans-Serif" font-size="10.00">Ioss::EntityBlock</text>
</a>
</g>
</g>
<!-- Node2&#45;&gt;Node1 -->
<g id="edge1_Node000001_Node000002" class="edge">
<title>Node2&#45;&gt;Node1</title>
<g id="a_edge1_Node000001_Node000002"><a xlink:title=" ">
<path fill="none" stroke="#63b8ff" d="M1392.38,-253.62C1416.29,-253.62 1443.7,-253.62 1465.92,-253.62"/>
<polygon fill="#63b8ff" stroke="#63b8ff" points="1392.48,-250.13 1382.48,-253.63 1392.48,-257.13 1392.48,-250.13"/>
</a>
</g>
</g>
<!-- Node3 -->
<g id="Node000003" class="node">
<title>Node3</title>
<g id="a_Node000003"><a xlink:href="classIoss_1_1GroupingEntity.html" target="_top" xlink:title="Base class for all &#39;grouping&#39; entities. The following derived classes are typical:">
<polygon fill="white" stroke="#666666" points="1198.5,-191.25 1093.25,-191.25 1093.25,-172 1198.5,-172 1198.5,-191.25"/>
<text text-anchor="middle" x="1145.88" y="-177.75" font-family="Helvetica,sans-Serif" font-size="10.00">Ioss::GroupingEntity</text>
</a>
</g>
</g>
<!-- Node3&#45;&gt;Node2 -->
<g id="edge2_Node000002_Node000003" class="edge">
<title>Node3&#45;&gt;Node2</title>
<g id="a_edge2_Node000002_Node000003"><a xlink:title=" ">
<path fill="none" stroke="#63b8ff" d="M1182.84,-195.82C1210.79,-206.8 1250.55,-222.33 1285.5,-235.62 1292.3,-238.21 1299.65,-240.96 1306.53,-243.52"/>
<polygon fill="#63b8ff" stroke="#63b8ff" points="1184.37,-192.66 1173.79,-192.25 1181.81,-199.17 1184.37,-192.66"/>
</a>
</g>
</g>
<!-- Node19 -->
<g id="Node000019" class="node">
<title>Node19</title>
<g id="a_Node000019"><a xlink:href="classIoss_1_1Region.html" target="_top" xlink:title="A grouping entity that contains other grouping entities.">
<polygon fill="white" stroke="#666666" points="1370.75,-226.25 1299.25,-226.25 1299.25,-207 1370.75,-207 1370.75,-226.25"/>
<text text-anchor="middle" x="1335" y="-212.75" font-family="Helvetica,sans-Serif" font-size="10.00">Ioss::Region</text>
</a>
</g>
</g>
<!-- Node3&#45;&gt;Node19 -->
<g id="edge24_Node000019_Node000003" class="edge">
<title>Node3&#45;&gt;Node19</title>
<g id="a_edge24_Node000019_Node000003"><a xlink:title=" ">
<path fill="none" stroke="#63b8ff" d="M1210.12,-193.45C1239.8,-199.01 1274.05,-205.41 1299,-210.08"/>
<polygon fill="#63b8ff" stroke="#63b8ff" points="1210.96,-190.05 1200.49,-191.65 1209.67,-196.93 1210.96,-190.05"/>
</a>
</g>
</g>
<!-- Node4 -->
<g id="Node000004" class="node">
<title>Node4</title>
<g id="a_Node000004"><a xlink:href="classIoss_1_1PropertyManager.html" target="_top" xlink:title="A collection of Ioss::Property objects.">
<polygon fill="white" stroke="#666666" points="1006.25,-64.25 891.25,-64.25 891.25,-45 1006.25,-45 1006.25,-64.25"/>
<text text-anchor="middle" x="948.75" y="-50.75" font-family="Helvetica,sans-Serif" font-size="10.00">Ioss::PropertyManager</text>
</a>
</g>
</g>
<!-- Node4&#45;&gt;Node3 -->
<g id="edge3_Node000003_Node000004" class="edge">
<title>Node4&#45;&gt;Node3</title>
<g id="a_edge3_Node000003_Node000004"><a xlink:title=" ">
<path fill="none" stroke="#9a32cd" stroke-dasharray="5,2" d="M974.54,-70.76C1015.38,-97.34 1095.64,-149.58 1129.36,-171.53"/>
<polygon fill="#9a32cd" stroke="#9a32cd" points="976.62,-67.94 966.33,-65.42 972.8,-73.8 976.62,-67.94"/>
</a>
</g>
<text text-anchor="middle" x="1047.12" y="-130.38" font-family="Helvetica,sans-Serif" font-size="10.00" fill="grey"> properties</text>
</g>
<!-- Node15 -->
<g id="Node000015" class="node">
<title>Node15</title>
<g id="a_Node000015"><a xlink:href="classIoss_1_1DatabaseIO.html" target="_top" xlink:title="An input or output Database.">
<polygon fill="white" stroke="#666666" points="1556.5,-160.25 1463.25,-160.25 1463.25,-141 1556.5,-141 1556.5,-160.25"/>
<text text-anchor="middle" x="1509.88" y="-146.75" font-family="Helvetica,sans-Serif" font-size="10.00">Ioss::DatabaseIO</text>
</a>
</g>
</g>
<!-- Node4&#45;&gt;Node15 -->
<g id="edge19_Node000015_Node000004" class="edge">
<title>Node4&#45;&gt;Node15</title>
<g id="a_edge19_Node000015_Node000004"><a xlink:title=" ">
<path fill="none" stroke="#9a32cd" stroke-dasharray="5,2" d="M1017.93,-55.7C1103.69,-57.61 1255.37,-62.77 1384.5,-76.62 1411.71,-79.54 1420.93,-74.09 1445.25,-86.62 1470.6,-99.68 1492.06,-126.52 1502.35,-140.95"/>
<polygon fill="#9a32cd" stroke="#9a32cd" points="1018.12,-52.21 1008.05,-55.49 1017.97,-59.21 1018.12,-52.21"/>
</a>
</g>
<text text-anchor="middle" x="1244.62" y="-67.38" font-family="Helvetica,sans-Serif" font-size="10.00" fill="grey"> properties</text>
</g>
<!-- Node5 -->
<g id="Node000005" class="node">
<title>Node5</title>
<g id="a_Node000005"><a xlink:href="classtsl_1_1robin__map.html" target="_top" xlink:title=" ">
<polygon fill="white" stroke="#666666" points="796,-69.88 696,-69.88 696,-39.38 796,-39.38 796,-69.88"/>
<text text-anchor="start" x="704" y="-56.38" font-family="Helvetica,sans-Serif" font-size="10.00">tsl::robin_map&lt; std</text>
<text text-anchor="middle" x="746" y="-45.12" font-family="Helvetica,sans-Serif" font-size="10.00">::string, Property &gt;</text>
</a>
</g>
</g>
<!-- Node5&#45;&gt;Node4 -->
<g id="edge4_Node000004_Node000005" class="edge">
<title>Node5&#45;&gt;Node4</title>
<g id="a_edge4_Node000004_Node000005"><a xlink:title=" ">
<path fill="none" stroke="#9a32cd" stroke-dasharray="5,2" d="M807.75,-54.62C834.12,-54.62 864.82,-54.62 890.75,-54.62"/>
<polygon fill="#9a32cd" stroke="#9a32cd" points="807.88,-51.13 797.88,-54.63 807.88,-58.13 807.88,-51.13"/>
</a>
</g>
<text text-anchor="middle" x="843.62" y="-56.38" font-family="Helvetica,sans-Serif" font-size="10.00" fill="grey"> m_properties</text>
</g>
<!-- Node6 -->
<g id="Node000006" class="node">
<title>Node6</title>
<g id="a_Node000006"><a xlink:href="classtsl_1_1detail__robin__hash_1_1robin__hash.html" target="_top" xlink:title=" ">
<polygon fill="white" stroke="#666666" points="635.25,-109.25 427.25,-109.25 427.25,0 635.25,0 635.25,-109.25"/>
<text text-anchor="start" x="435.25" y="-95.75" font-family="Helvetica,sans-Serif" font-size="10.00">tsl::detail_robin_hash</text>
<text text-anchor="start" x="435.25" y="-84.5" font-family="Helvetica,sans-Serif" font-size="10.00">::robin_hash&lt; std::pair</text>
<text text-anchor="start" x="435.25" y="-73.25" font-family="Helvetica,sans-Serif" font-size="10.00">&lt; std::string, Property</text>
<text text-anchor="start" x="435.25" y="-62" font-family="Helvetica,sans-Serif" font-size="10.00"> &gt;, KeySelect, ValueSelect,</text>
<text text-anchor="start" x="435.25" y="-50.75" font-family="Helvetica,sans-Serif" font-size="10.00"> std::hash&lt; std::string &gt;,</text>
<text text-anchor="start" x="435.25" y="-39.5" font-family="Helvetica,sans-Serif" font-size="10.00"> std::equal_to&lt; std::string</text>
<text text-anchor="start" x="435.25" y="-28.25" font-family="Helvetica,sans-Serif" font-size="10.00"> &gt;, std::allocator&lt; std::pair</text>
<text text-anchor="start" x="435.25" y="-17" font-family="Helvetica,sans-Serif" font-size="10.00">&lt; std::string, Property &gt; &gt;, false,</text>
<text text-anchor="middle" x="531.25" y="-5.75" font-family="Helvetica,sans-Serif" font-size="10.00"> tsl::rh::power_of_two_growth_policy&lt; 2 &gt; &gt;</text>
</a>
</g>
</g>
<!-- Node6&#45;&gt;Node5 -->
<g id="edge5_Node000005_Node000006" class="edge">
<title>Node6&#45;&gt;Node5</title>
<g id="a_edge5_Node000005_Node000006"><a xlink:title=" ">
<path fill="none" stroke="#9a32cd" stroke-dasharray="5,2" d="M646.81,-54.62C663.96,-54.62 680.83,-54.62 695.62,-54.62"/>
<polygon fill="#9a32cd" stroke="#9a32cd" points="647.02,-51.13 637.02,-54.63 647.02,-58.13 647.02,-51.13"/>
</a>
</g>
<text text-anchor="middle" x="665.62" y="-56.38" font-family="Helvetica,sans-Serif" font-size="10.00" fill="grey"> m_ht</text>
</g>
<!-- Node7 -->
<g id="Node000007" class="node">
<title>Node7</title>
<g id="a_Node000007"><a xlink:title=" ">
<polygon fill="white" stroke="#666666" points="331.62,-208.25 213.62,-208.25 213.62,-189 331.62,-189 331.62,-208.25"/>
<text text-anchor="middle" x="272.62" y="-194.75" font-family="Helvetica,sans-Serif" font-size="10.00">std::hash&lt; std::string &gt;</text>
</a>
</g>
</g>
<!-- Node7&#45;&gt;Node6 -->
<g id="edge6_Node000006_Node000007" class="edge">
<title>Node7&#45;&gt;Node6</title>
<g id="a_edge6_Node000006_Node000007"><a xlink:title=" ">
<path fill="none" stroke="#8b1a1a" d="M343.16,-197.23C366.52,-193.51 391.19,-185.59 409.25,-169.62 427.57,-153.42 411.92,-136.68 427.25,-117.62 429.48,-114.85 431.88,-112.16 434.39,-109.57"/>
<polygon fill="#8b1a1a" stroke="#8b1a1a" points="342.79,-193.74 333.33,-198.53 343.71,-200.68 342.79,-193.74"/>
</a>
</g>
</g>
<!-- Node14 -->
<g id="Node000014" class="node">
<title>Node14</title>
<g id="a_Node000014"><a xlink:href="classtsl_1_1detail__robin__hash_1_1robin__hash.html" target="_top" xlink:title=" ">
<polygon fill="white" stroke="#666666" points="635.25,-236.25 427.25,-236.25 427.25,-127 635.25,-127 635.25,-236.25"/>
<text text-anchor="start" x="435.25" y="-222.75" font-family="Helvetica,sans-Serif" font-size="10.00">tsl::detail_robin_hash</text>
<text text-anchor="start" x="435.25" y="-211.5" font-family="Helvetica,sans-Serif" font-size="10.00">::robin_hash&lt; std::pair</text>
<text text-anchor="start" x="435.25" y="-200.25" font-family="Helvetica,sans-Serif" font-size="10.00">&lt; std::string, Field &gt;,</text>
<text text-anchor="start" x="435.25" y="-189" font-family="Helvetica,sans-Serif" font-size="10.00"> KeySelect, ValueSelect,</text>
<text text-anchor="start" x="435.25" y="-177.75" font-family="Helvetica,sans-Serif" font-size="10.00"> std::hash&lt; std::string &gt;,</text>
<text text-anchor="start" x="435.25" y="-166.5" font-family="Helvetica,sans-Serif" font-size="10.00"> std::equal_to&lt; std::string</text>
<text text-anchor="start" x="435.25" y="-155.25" font-family="Helvetica,sans-Serif" font-size="10.00"> &gt;, std::allocator&lt; std::pair</text>
<text text-anchor="start" x="435.25" y="-144" font-family="Helvetica,sans-Serif" font-size="10.00">&lt; std::string, Field &gt; &gt;, false,</text>
<text text-anchor="middle" x="531.25" y="-132.75" font-family="Helvetica,sans-Serif" font-size="10.00"> tsl::rh::power_of_two_growth_policy&lt; 2 &gt; &gt;</text>
</a>
</g>
</g>
<!-- Node7&#45;&gt;Node14 -->
<g id="edge14_Node000014_Node000007" class="edge">
<title>Node7&#45;&gt;Node14</title>
<g id="a_edge14_Node000014_Node000007"><a xlink:title=" ">
<path fill="none" stroke="#8b1a1a" d="M343.56,-196.15C364.68,-195.24 387.92,-194.07 409.25,-192.62 415.04,-192.23 420.98,-191.8 426.97,-191.34"/>
<polygon fill="#8b1a1a" stroke="#8b1a1a" points="343.43,-192.66 333.58,-196.57 343.72,-199.65 343.43,-192.66"/>
</a>
</g>
</g>
<!-- Node8 -->
<g id="Node000008" class="node">
<title>Node8</title>
<g id="a_Node000008"><a xlink:title=" ">
<polygon fill="white" stroke="#666666" points="320,-54.88 225.25,-54.88 225.25,-24.38 320,-24.38 320,-54.88"/>
<text text-anchor="start" x="233.25" y="-41.38" font-family="Helvetica,sans-Serif" font-size="10.00">std::equal_to&lt; std</text>
<text text-anchor="middle" x="272.62" y="-30.12" font-family="Helvetica,sans-Serif" font-size="10.00">::string &gt;</text>
</a>
</g>
</g>
<!-- Node8&#45;&gt;Node6 -->
<g id="edge7_Node000006_Node000008" class="edge">
<title>Node8&#45;&gt;Node6</title>
<g id="a_edge7_Node000006_Node000008"><a xlink:title=" ">
<path fill="none" stroke="#8b1a1a" d="M331.85,-39.31C355.84,-39.48 383.9,-40.08 409.25,-41.62 415.05,-41.98 421,-42.41 427,-42.89"/>
<polygon fill="#8b1a1a" stroke="#8b1a1a" points="331.96,-35.81 321.94,-39.26 331.92,-42.81 331.96,-35.81"/>
</a>
</g>
</g>
<!-- Node8&#45;&gt;Node14 -->
<g id="edge15_Node000014_Node000008" class="edge">
<title>Node8&#45;&gt;Node14</title>
<g id="a_edge15_Node000014_Node000008"><a xlink:title=" ">
<path fill="none" stroke="#8b1a1a" d="M331.85,-40.19C358.22,-43.29 388.13,-51.17 409.25,-69.62 426.72,-84.89 412.54,-100.69 427.25,-118.62 429.51,-121.38 431.92,-124.05 434.46,-126.63"/>
<polygon fill="#8b1a1a" stroke="#8b1a1a" points="332.21,-36.71 321.92,-39.25 331.55,-43.68 332.21,-36.71"/>
</a>
</g>
</g>
<!-- Node9 -->
<g id="Node000009" class="node">
<title>Node9</title>
<g id="a_Node000009"><a xlink:href="classtsl_1_1rh_1_1power__of__two__growth__policy.html" target="_top" xlink:title=" ">
<polygon fill="white" stroke="#666666" points="326.38,-107.88 218.88,-107.88 218.88,-77.38 326.38,-77.38 326.38,-107.88"/>
<text text-anchor="start" x="226.88" y="-94.38" font-family="Helvetica,sans-Serif" font-size="10.00">tsl::rh::power_of_two</text>
<text text-anchor="middle" x="272.62" y="-83.12" font-family="Helvetica,sans-Serif" font-size="10.00">_growth_policy&lt; 2 &gt;</text>
</a>
</g>
</g>
<!-- Node9&#45;&gt;Node6 -->
<g id="edge8_Node000006_Node000009" class="edge">
<title>Node9&#45;&gt;Node6</title>
<g id="a_edge8_Node000006_Node000009"><a xlink:title=" ">
<path fill="none" stroke="#8b1a1a" d="M337.99,-83.09C364.88,-79.11 396.79,-74.39 426.82,-69.94"/>
<polygon fill="#8b1a1a" stroke="#8b1a1a" points="337.67,-79.6 328.3,-84.53 338.7,-86.53 337.67,-79.6"/>
</a>
</g>
</g>
<!-- Node9&#45;&gt;Node14 -->
<g id="edge16_Node000014_Node000009" class="edge">
<title>Node9&#45;&gt;Node14</title>
<g id="a_edge16_Node000014_Node000009"><a xlink:title=" ">
<path fill="none" stroke="#8b1a1a" d="M337.96,-95.89C360.92,-98.42 386.67,-102.86 409.25,-110.62 416.79,-113.22 428.4,-119.13 441.49,-126.5"/>
<polygon fill="#8b1a1a" stroke="#8b1a1a" points="338.39,-92.41 328.09,-94.91 337.7,-99.38 338.39,-92.41"/>
</a>
</g>
</g>
<!-- Node10 -->
<g id="Node000010" class="node">
<title>Node10</title>
<g id="a_Node000010"><a xlink:href="classtsl_1_1detail__robin__hash_1_1bucket__entry.html" target="_top" xlink:title=" ">
<polygon fill="white" stroke="#666666" points="340.25,-169.5 205,-169.5 205,-127.75 340.25,-127.75 340.25,-169.5"/>
<text text-anchor="start" x="213" y="-156" font-family="Helvetica,sans-Serif" font-size="10.00">tsl::detail_robin_hash</text>
<text text-anchor="start" x="213" y="-144.75" font-family="Helvetica,sans-Serif" font-size="10.00">::bucket_entry&lt; ValueType,</text>
<text text-anchor="middle" x="272.62" y="-133.5" font-family="Helvetica,sans-Serif" font-size="10.00"> StoreHash &gt;</text>
</a>
</g>
</g>
<!-- Node10&#45;&gt;Node6 -->
<g id="edge9_Node000006_Node000010" class="edge">
<title>Node10&#45;&gt;Node6</title>
<g id="a_edge9_Node000006_Node000010"><a xlink:title=" ">
<path fill="none" stroke="#9a32cd" stroke-dasharray="5,2" d="M347.28,-123.66C367.42,-116.67 389.22,-108.98 409.25,-101.62 415.07,-99.49 421.03,-97.27 427.04,-95.01"/>
<polygon fill="#9a32cd" stroke="#9a32cd" points="346.33,-120.28 338.02,-126.85 348.62,-126.89 346.33,-120.28"/>
</a>
</g>
<text text-anchor="middle" x="383.75" y="-120.38" font-family="Helvetica,sans-Serif" font-size="10.00" fill="grey"> m_buckets</text>
</g>
<!-- Node10&#45;&gt;Node14 -->
<g id="edge17_Node000014_Node000010" class="edge">
<title>Node10&#45;&gt;Node14</title>
<g id="a_edge17_Node000014_Node000010"><a xlink:title=" ">
<path fill="none" stroke="#9a32cd" stroke-dasharray="5,2" d="M351.93,-152.67C370.74,-154.08 390.75,-155.94 409.25,-158.38 414.98,-159.13 420.84,-159.98 426.75,-160.9"/>
<polygon fill="#9a32cd" stroke="#9a32cd" points="352.43,-149.2 342.21,-151.98 351.93,-156.18 352.43,-149.2"/>
</a>
</g>
<text text-anchor="middle" x="383.75" y="-159.38" font-family="Helvetica,sans-Serif" font-size="10.00" fill="grey"> m_buckets</text>
</g>
<!-- Node11 -->
<g id="Node000011" class="node">
<title>Node11</title>
<g id="a_Node000011"><a xlink:href="classtsl_1_1detail__robin__hash_1_1bucket__entry__hash.html" target="_top" xlink:title=" ">
<polygon fill="white" stroke="#666666" points="169,-163.88 0,-163.88 0,-133.38 169,-133.38 169,-163.88"/>
<text text-anchor="start" x="8" y="-150.38" font-family="Helvetica,sans-Serif" font-size="10.00">tsl::detail_robin_hash</text>
<text text-anchor="middle" x="84.5" y="-139.12" font-family="Helvetica,sans-Serif" font-size="10.00">::bucket_entry_hash&lt; StoreHash &gt;</text>
</a>
</g>
</g>
<!-- Node11&#45;&gt;Node10 -->
<g id="edge10_Node000010_Node000011" class="edge">
<title>Node11&#45;&gt;Node10</title>
<g id="a_edge10_Node000010_Node000011"><a xlink:title=" ">
<path fill="none" stroke="#63b8ff" d="M180.75,-148.62C188.85,-148.62 196.93,-148.62 204.74,-148.62"/>
<polygon fill="#63b8ff" stroke="#63b8ff" points="180.82,-145.13 170.82,-148.63 180.82,-152.13 180.82,-145.13"/>
</a>
</g>
</g>
<!-- Node12 -->
<g id="Node000012" class="node">
<title>Node12</title>
<g id="a_Node000012"><a xlink:href="classIoss_1_1FieldManager.html" target="_top" xlink:title="A collection of Ioss::Field objects.">
<polygon fill="white" stroke="#666666" points="998.38,-191.25 899.12,-191.25 899.12,-172 998.38,-172 998.38,-191.25"/>
<text text-anchor="middle" x="948.75" y="-177.75" font-family="Helvetica,sans-Serif" font-size="10.00">Ioss::FieldManager</text>
</a>
</g>
</g>
<!-- Node12&#45;&gt;Node3 -->
<g id="edge11_Node000003_Node000012" class="edge">
<title>Node12&#45;&gt;Node3</title>
<g id="a_edge11_Node000003_Node000012"><a xlink:title=" ">
<path fill="none" stroke="#9a32cd" stroke-dasharray="5,2" d="M1010.17,-181.62C1036.62,-181.62 1067.36,-181.62 1092.79,-181.62"/>
<polygon fill="#9a32cd" stroke="#9a32cd" points="1010.25,-178.13 1000.25,-181.63 1010.25,-185.13 1010.25,-178.13"/>
</a>
</g>
<text text-anchor="middle" x="1047.12" y="-183.38" font-family="Helvetica,sans-Serif" font-size="10.00" fill="grey"> fields</text>
</g>
<!-- Node13 -->
<g id="Node000013" class="node">
<title>Node13</title>
<g id="a_Node000013"><a xlink:href="classtsl_1_1robin__map.html" target="_top" xlink:title=" ">
<polygon fill="white" stroke="#666666" points="796,-196.88 696,-196.88 696,-166.38 796,-166.38 796,-196.88"/>
<text text-anchor="start" x="704" y="-183.38" font-family="Helvetica,sans-Serif" font-size="10.00">tsl::robin_map&lt; std</text>
<text text-anchor="middle" x="746" y="-172.12" font-family="Helvetica,sans-Serif" font-size="10.00">::string, Field &gt;</text>
</a>
</g>
</g>
<!-- Node13&#45;&gt;Node12 -->
<g id="edge12_Node000012_Node000013" class="edge">
<title>Node13&#45;&gt;Node12</title>
<g id="a_edge12_Node000012_Node000013"><a xlink:title=" ">
<path fill="none" stroke="#9a32cd" stroke-dasharray="5,2" d="M807.69,-181.62C836.89,-181.62 871.44,-181.62 898.92,-181.62"/>
<polygon fill="#9a32cd" stroke="#9a32cd" points="807.88,-178.13 797.88,-181.63 807.88,-185.13 807.88,-178.13"/>
</a>
</g>
<text text-anchor="middle" x="843.62" y="-183.38" font-family="Helvetica,sans-Serif" font-size="10.00" fill="grey"> fields</text>
</g>
<!-- Node14&#45;&gt;Node13 -->
<g id="edge13_Node000013_Node000014" class="edge">
<title>Node14&#45;&gt;Node13</title>
<g id="a_edge13_Node000013_Node000014"><a xlink:title=" ">
<path fill="none" stroke="#9a32cd" stroke-dasharray="5,2" d="M646.81,-181.62C663.96,-181.62 680.83,-181.62 695.62,-181.62"/>
<polygon fill="#9a32cd" stroke="#9a32cd" points="647.02,-178.13 637.02,-181.63 647.02,-185.13 647.02,-178.13"/>
</a>
</g>
<text text-anchor="middle" x="665.62" y="-183.38" font-family="Helvetica,sans-Serif" font-size="10.00" fill="grey"> m_ht</text>
</g>
<!-- Node15&#45;&gt;Node3 -->
<g id="edge18_Node000003_Node000015" class="edge">
<title>Node15&#45;&gt;Node3</title>
<g id="a_edge18_Node000003_Node000015"><a xlink:title=" ">
<path fill="none" stroke="#9a32cd" stroke-dasharray="5,2" d="M1487.35,-133.89C1475.48,-125.33 1460.15,-115.32 1445.25,-108.62 1380.16,-79.37 1353.97,-72.24 1285.5,-92.38 1231.95,-108.12 1179.55,-151.66 1157.62,-171.52"/>
<polygon fill="#9a32cd" stroke="#9a32cd" points="1485.1,-136.58 1495.21,-139.74 1489.28,-130.96 1485.1,-136.58"/>
</a>
</g>
<text text-anchor="middle" x="1335" y="-93.38" font-family="Helvetica,sans-Serif" font-size="10.00" fill="grey"> database_</text>
</g>
<!-- Node16 -->
<g id="Node000016" class="node">
<title>Node16</title>
<g id="a_Node000016"><a xlink:href="classIoss_1_1ElementTopology.html" target="_top" xlink:title="Represents an element topology.">
<polygon fill="white" stroke="#666666" points="1203.75,-291.25 1088,-291.25 1088,-272 1203.75,-272 1203.75,-291.25"/>
<text text-anchor="middle" x="1145.88" y="-277.75" font-family="Helvetica,sans-Serif" font-size="10.00">Ioss::ElementTopology</text>
</a>
</g>
</g>
<!-- Node16&#45;&gt;Node2 -->
<g id="edge25_Node000002_Node000016" class="edge">
<title>Node16&#45;&gt;Node2</title>
<g id="a_edge25_Node000002_Node000016"><a xlink:title=" ">
<path fill="none" stroke="#9a32cd" stroke-dasharray="5,2" d="M1215.14,-271.41C1239.77,-267.72 1266.92,-263.66 1289.05,-260.35"/>
<polygon fill="#9a32cd" stroke="#9a32cd" points="1214.9,-267.91 1205.53,-272.85 1215.94,-274.83 1214.9,-267.91"/>
</a>
</g>
<text text-anchor="middle" x="1244.62" y="-271.38" font-family="Helvetica,sans-Serif" font-size="10.00" fill="grey"> topology_</text>
</g>
<!-- Node16&#45;&gt;Node15 -->
<g id="edge20_Node000015_Node000016" class="edge">
<title>Node16&#45;&gt;Node15</title>
<g id="a_edge20_Node000015_Node000016"><a xlink:title=" ">
<path fill="none" stroke="#9a32cd" stroke-dasharray="5,2" d="M1204.19,-293.61C1269.24,-303.76 1375.36,-309.47 1445.25,-257.62 1454.19,-250.99 1489.94,-185.75 1503.56,-160.52"/>
<polygon fill="#9a32cd" stroke="#9a32cd" points="1204.87,-290.17 1194.43,-291.99 1203.72,-297.08 1204.87,-290.17"/>
</a>
</g>
<text text-anchor="middle" x="1335" y="-301.38" font-family="Helvetica,sans-Serif" font-size="10.00" fill="grey"> commonSideTopology</text>
</g>
<!-- Node17 -->
<g id="Node000017" class="node">
<title>Node17</title>
<g id="a_Node000017"><a xlink:href="classIoss_1_1Map.html" target="_top" xlink:title=" ">
<polygon fill="white" stroke="#666666" points="1364.75,-132.25 1305.25,-132.25 1305.25,-113 1364.75,-113 1364.75,-132.25"/>
<text text-anchor="middle" x="1335" y="-118.75" font-family="Helvetica,sans-Serif" font-size="10.00">Ioss::Map</text>
</a>
</g>
</g>
<!-- Node17&#45;&gt;Node15 -->
<g id="edge21_Node000015_Node000017" class="edge">
<title>Node17&#45;&gt;Node15</title>
<g id="a_edge21_Node000015_Node000017"><a xlink:title=" ">
<path fill="none" stroke="#9a32cd" stroke-dasharray="5,2" d="M1376.51,-115.37C1397.33,-113 1422.94,-112.18 1445.25,-117.62 1463.38,-122.05 1482.11,-132.62 1494.51,-140.61"/>
<polygon fill="#9a32cd" stroke="#9a32cd" points="1376.14,-111.89 1366.68,-116.67 1377.06,-118.83 1376.14,-111.89"/>
</a>
</g>
<text text-anchor="middle" x="1423.88" y="-153.12" font-family="Helvetica,sans-Serif" font-size="10.00" fill="grey"> edgeMap</text>
<text text-anchor="middle" x="1423.88" y="-141.88" font-family="Helvetica,sans-Serif" font-size="10.00" fill="grey">elemMap</text>
<text text-anchor="middle" x="1423.88" y="-130.62" font-family="Helvetica,sans-Serif" font-size="10.00" fill="grey">faceMap</text>
<text text-anchor="middle" x="1423.88" y="-119.38" font-family="Helvetica,sans-Serif" font-size="10.00" fill="grey">nodeMap</text>
</g>
<!-- Node18 -->
<g id="Node000018" class="node">
<title>Node18</title>
<g id="a_Node000018"><a xlink:href="classIoss_1_1ParallelUtils.html" target="_top" xlink:title=" ">
<polygon fill="white" stroke="#666666" points="1381.62,-189.25 1288.38,-189.25 1288.38,-170 1381.62,-170 1381.62,-189.25"/>
<text text-anchor="middle" x="1335" y="-175.75" font-family="Helvetica,sans-Serif" font-size="10.00">Ioss::ParallelUtils</text>
</a>
</g>
</g>
<!-- Node18&#45;&gt;Node15 -->
<g id="edge22_Node000015_Node000018" class="edge">
<title>Node18&#45;&gt;Node15</title>
<g id="a_edge22_Node000015_Node000018"><a xlink:title=" ">
<path fill="none" stroke="#9a32cd" stroke-dasharray="5,2" d="M1393.34,-171.06C1410.09,-168.46 1428.42,-165.52 1445.25,-162.62 1451.01,-161.63 1457.06,-160.55 1463.03,-159.45"/>
<polygon fill="#9a32cd" stroke="#9a32cd" points="1392.88,-167.59 1383.53,-172.57 1393.95,-174.5 1392.88,-167.59"/>
</a>
</g>
<text text-anchor="middle" x="1423.88" y="-170.38" font-family="Helvetica,sans-Serif" font-size="10.00" fill="grey"> util_</text>
</g>
<!-- Node19&#45;&gt;Node15 -->
<g id="edge23_Node000015_Node000019" class="edge">
<title>Node19&#45;&gt;Node15</title>
<g id="a_edge23_Node000015_Node000019"><a xlink:title=" ">
<path fill="none" stroke="#9a32cd" stroke-dasharray="5,2" d="M1381.91,-204.8C1401.69,-199.19 1424.9,-191.89 1445.25,-183.62 1461.5,-177.02 1479.16,-167.68 1491.73,-160.62"/>
<polygon fill="#9a32cd" stroke="#9a32cd" points="1381.17,-201.38 1372.47,-207.42 1383.04,-208.12 1381.17,-201.38"/>
</a>
</g>
<text text-anchor="middle" x="1423.88" y="-199.38" font-family="Helvetica,sans-Serif" font-size="10.00" fill="grey"> region_</text>
</g>
</g>
</svg>
