<?xml version="1.0" encoding="UTF-8" standalone="no"?>
<!DOCTYPE svg PUBLIC "-//W3C//DTD SVG 1.1//EN"
 "http://www.w3.org/Graphics/SVG/1.1/DTD/svg11.dtd">
<!-- Generated by graphviz version 12.2.1 (20241206.2353)
 -->
<!-- Title: Ioexnl::DatabaseIO Pages: 1 -->
<!--zoomable 305 -->

<svg id="main" version="1.1" xmlns="http://www.w3.org/2000/svg" xmlns:xlink="http://www.w3.org/1999/xlink" xml:space="preserve" onload="init(evt)">

<style type="text/css"><![CDATA[
.node, .edge {opacity: 0.7;}
.node.selected, .edge.selected {opacity: 1;}
.edge:hover path { stroke: red; }
.edge:hover polygon { stroke: red; fill: red; }
]]></style>

<defs>
  <circle id="rim" cx="0" cy="0" r="7"/>
  <circle id="rim2" cx="0" cy="0" r="3.5"/>
  <g id="zoomPlus">
    <use xlink:href="#rim" fill="#404040"><set attributeName="fill" to="#808080" begin="zoomplus.mouseover" end="zoomplus.mouseout"/></use>
    <path d="M-4,0h8M0,-4v8" fill="none" stroke="white" stroke-width="1.5" pointer-events="none"/>
  </g>
  <g id="zoomMin">
    <use xlink:href="#rim" fill="#404040"><set attributeName="fill" to="#808080" begin="zoomminus.mouseover" end="zoomminus.mouseout"/></use>
    <path d="M-4,0h8" fill="none" stroke="white" stroke-width="1.5" pointer-events="none"/>
  </g>
  <g id="arrowUp" transform="translate(30 24)">
    <use xlink:href="#rim"/>
    <path pointer-events="none" fill="none" stroke="white" stroke-width="1.5" d="M0,-3.0v7 M-2.5,-0.5L0,-3.0L2.5,-0.5"/>
  </g>
  <g id="arrowRight" transform="rotate(90) translate(36 -43)">
    <use xlink:href="#rim"/>
    <path pointer-events="none" fill="none" stroke="white" stroke-width="1.5" d="M0,-3.0v7 M-2.5,-0.5L0,-3.0L2.5,-0.5"/>
  </g>
  <g id="arrowDown" transform="rotate(180) translate(-30 -48)">
    <use xlink:href="#rim"/>
    <path pointer-events="none" fill="none" stroke="white" stroke-width="1.5" d="M0,-3.0v7 M-2.5,-0.5L0,-3.0L2.5,-0.5"/>
  </g>
  <g id="arrowLeft" transform="rotate(270) translate(-36 17)">
    <use xlink:href="#rim"/>
    <path pointer-events="none" fill="none" stroke="white" stroke-width="1.5" d="M0,-3.0v7 M-2.5,-0.5L0,-3.0L2.5,-0.5"/>
  </g>
  <g id="resetDef">
    <use xlink:href="#rim2" fill="#404040"><set attributeName="fill" to="#808080" begin="reset.mouseover" end="reset.mouseout"/></use>
  </g>
</defs>
<script type="application/ecmascript">
var viewWidth = 919;
var viewHeight = 305;
var sectionId = 'dynsection-1';
</script>
<script type="application/ecmascript" xlink:href="svg.min.js"/>
<svg id="graph" class="graph">
<g id="viewport">
<title>Ioexnl::DatabaseIO</title>
<!-- Node1 -->
<g id="Node000001" class="node">
<title>Node1</title>
<g id="a_Node000001"><a xlink:title=" ">
<polygon fill="#999999" stroke="#666666" points="910.5,-203.38 809.75,-203.38 809.75,-184.12 910.5,-184.12 910.5,-203.38"/>
<text text-anchor="middle" x="860.12" y="-189.88" font-family="Helvetica,sans-Serif" font-size="10.00">Ioexnl::DatabaseIO</text>
</a>
</g>
</g>
<!-- Node2 -->
<g id="Node000002" class="node">
<title>Node2</title>
<g id="a_Node000002"><a xlink:href="classIoexnl_1_1BaseDatabaseIO.html" target="_top" xlink:title=" ">
<polygon fill="white" stroke="#666666" points="772.75,-203.38 649.5,-203.38 649.5,-184.12 772.75,-184.12 772.75,-203.38"/>
<text text-anchor="middle" x="711.12" y="-189.88" font-family="Helvetica,sans-Serif" font-size="10.00">Ioexnl::BaseDatabaseIO</text>
</a>
</g>
</g>
<!-- Node2&#45;&gt;Node1 -->
<g id="edge1_Node000001_Node000002" class="edge">
<title>Node2&#45;&gt;Node1</title>
<g id="a_edge1_Node000001_Node000002"><a xlink:title=" ">
<path fill="none" stroke="#63b8ff" d="M784.67,-193.75C793.13,-193.75 801.61,-193.75 809.65,-193.75"/>
<polygon fill="#63b8ff" stroke="#63b8ff" points="784.7,-190.25 774.7,-193.75 784.7,-197.25 784.7,-190.25"/>
</a>
</g>
</g>
<!-- Node3 -->
<g id="Node000003" class="node">
<title>Node3</title>
<g id="a_Node000003"><a xlink:href="classIoss_1_1DatabaseIO.html" target="_top" xlink:title="An input or output Database.">
<polygon fill="white" stroke="#666666" points="559.5,-166.38 466.25,-166.38 466.25,-147.12 559.5,-147.12 559.5,-166.38"/>
<text text-anchor="middle" x="512.88" y="-152.88" font-family="Helvetica,sans-Serif" font-size="10.00">Ioss::DatabaseIO</text>
</a>
</g>
</g>
<!-- Node3&#45;&gt;Node2 -->
<g id="edge2_Node000002_Node000003" class="edge">
<title>Node3&#45;&gt;Node2</title>
<g id="a_edge2_Node000002_Node000003"><a xlink:title=" ">
<path fill="none" stroke="#63b8ff" d="M571.13,-167.55C598.17,-172.64 630.24,-178.69 656.76,-183.69"/>
<polygon fill="#63b8ff" stroke="#63b8ff" points="571.85,-164.12 561.37,-165.71 570.55,-171 571.85,-164.12"/>
</a>
</g>
</g>
<!-- Node10 -->
<g id="Node000010" class="node">
<title>Node10</title>
<g id="a_Node000010"><a xlink:href="classIoss_1_1GroupingEntity.html" target="_top" xlink:title="Base class for all &#39;grouping&#39; entities. The following derived classes are typical:">
<polygon fill="white" stroke="#666666" points="763.75,-103.38 658.5,-103.38 658.5,-84.12 763.75,-84.12 763.75,-103.38"/>
<text text-anchor="middle" x="711.12" y="-89.88" font-family="Helvetica,sans-Serif" font-size="10.00">Ioss::GroupingEntity</text>
</a>
</g>
</g>
<!-- Node3&#45;&gt;Node10 -->
<g id="edge13_Node000010_Node000003" class="edge">
<title>Node3&#45;&gt;Node10</title>
<g id="a_edge13_Node000010_Node000003"><a xlink:title=" ">
<path fill="none" stroke="#9a32cd" stroke-dasharray="5,2" d="M537.19,-140.27C549.54,-132.27 565.27,-123.18 580.5,-117.5 605.26,-108.27 634.06,-102.53 658.22,-99.02"/>
<polygon fill="#9a32cd" stroke="#9a32cd" points="535.31,-137.32 528.96,-145.79 539.21,-143.13 535.31,-137.32"/>
</a>
</g>
<text text-anchor="start" x="583.5" y="-122.25" font-family="Helvetica,sans-Serif" font-size="10.00" fill="grey">database_</text>
</g>
<!-- Node4 -->
<g id="Node000004" class="node">
<title>Node4</title>
<g id="a_Node000004"><a xlink:href="classIoss_1_1PropertyManager.html" target="_top" xlink:title="A collection of Ioss::Property objects.">
<polygon fill="white" stroke="#666666" points="324.88,-119.38 209.88,-119.38 209.88,-100.12 324.88,-100.12 324.88,-119.38"/>
<text text-anchor="middle" x="267.38" y="-105.88" font-family="Helvetica,sans-Serif" font-size="10.00">Ioss::PropertyManager</text>
</a>
</g>
</g>
<!-- Node4&#45;&gt;Node3 -->
<g id="edge3_Node000003_Node000004" class="edge">
<title>Node4&#45;&gt;Node3</title>
<g id="a_edge3_Node000003_Node000004"><a xlink:title=" ">
<path fill="none" stroke="#9a32cd" stroke-dasharray="5,2" d="M336.74,-117.04C369.76,-121.24 409.82,-127.33 445.25,-135.5 458.15,-138.47 472.14,-142.77 483.96,-146.72"/>
<polygon fill="#9a32cd" stroke="#9a32cd" points="337.23,-113.58 326.87,-115.82 336.37,-120.53 337.23,-113.58"/>
</a>
</g>
<text text-anchor="start" x="372.88" y="-140.25" font-family="Helvetica,sans-Serif" font-size="10.00" fill="grey">properties</text>
</g>
<!-- Node4&#45;&gt;Node10 -->
<g id="edge10_Node000010_Node000004" class="edge">
<title>Node4&#45;&gt;Node10</title>
<g id="a_edge10_Node000010_Node000004"><a xlink:title=" ">
<path fill="none" stroke="#9a32cd" stroke-dasharray="5,2" d="M336.51,-107.28C425.25,-104.07 578.44,-98.52 658.3,-95.63"/>
<polygon fill="#9a32cd" stroke="#9a32cd" points="336.6,-103.78 326.73,-107.64 336.85,-110.77 336.6,-103.78"/>
</a>
</g>
<text text-anchor="start" x="491.5" y="-107.3" font-family="Helvetica,sans-Serif" font-size="10.00" fill="grey">properties</text>
</g>
<!-- Node5 -->
<g id="Node000005" class="node">
<title>Node5</title>
<g id="a_Node000005"><a xlink:href="classtsl_1_1robin__map.html" target="_top" xlink:title=" ">
<polygon fill="white" stroke="#666666" points="111.25,-147.5 0,-147.5 0,-72 111.25,-72 111.25,-147.5"/>
<text text-anchor="start" x="8" y="-134" font-family="Helvetica,sans-Serif" font-size="10.00">tsl::robin_map&lt; Key,</text>
<text text-anchor="start" x="8" y="-122.75" font-family="Helvetica,sans-Serif" font-size="10.00"> T, Hash, KeyEqual,</text>
<text text-anchor="start" x="8" y="-111.5" font-family="Helvetica,sans-Serif" font-size="10.00"> Allocator, StoreHash,</text>
<text text-anchor="start" x="8" y="-100.25" font-family="Helvetica,sans-Serif" font-size="10.00"> tsl::rh::prime_growth</text>
<text text-anchor="start" x="8" y="-89" font-family="Helvetica,sans-Serif" font-size="10.00">_policy &gt;&lt; std::string,</text>
<text text-anchor="middle" x="55.62" y="-77.75" font-family="Helvetica,sans-Serif" font-size="10.00"> Property &gt;</text>
</a>
</g>
</g>
<!-- Node5&#45;&gt;Node4 -->
<g id="edge4_Node000004_Node000005" class="edge">
<title>Node5&#45;&gt;Node4</title>
<g id="a_edge4_Node000004_Node000005"><a xlink:title=" ">
<path fill="none" stroke="#9a32cd" stroke-dasharray="5,2" d="M122.96,-109.75C150.75,-109.75 182.74,-109.75 209.44,-109.75"/>
<polygon fill="#9a32cd" stroke="#9a32cd" points="123.25,-106.25 113.25,-109.75 123.25,-113.25 123.25,-106.25"/>
</a>
</g>
<text text-anchor="start" x="132.25" y="-114.5" font-family="Helvetica,sans-Serif" font-size="10.00" fill="grey">m_properties</text>
</g>
<!-- Node6 -->
<g id="Node000006" class="node">
<title>Node6</title>
<g id="a_Node000006"><a xlink:href="classIoss_1_1ElementTopology.html" target="_top" xlink:title="Represents an element topology.">
<polygon fill="white" stroke="#666666" points="325.25,-166.38 209.5,-166.38 209.5,-147.12 325.25,-147.12 325.25,-166.38"/>
<text text-anchor="middle" x="267.38" y="-152.88" font-family="Helvetica,sans-Serif" font-size="10.00">Ioss::ElementTopology</text>
</a>
</g>
</g>
<!-- Node6&#45;&gt;Node3 -->
<g id="edge5_Node000003_Node000006" class="edge">
<title>Node6&#45;&gt;Node3</title>
<g id="a_edge5_Node000003_Node000006"><a xlink:title=" ">
<path fill="none" stroke="#9a32cd" stroke-dasharray="5,2" d="M336.83,-156.75C378.16,-156.75 429.71,-156.75 466.13,-156.75"/>
<polygon fill="#9a32cd" stroke="#9a32cd" points="336.98,-153.25 326.98,-156.75 336.98,-160.25 336.98,-153.25"/>
</a>
</g>
<text text-anchor="start" x="346.25" y="-161.5" font-family="Helvetica,sans-Serif" font-size="10.00" fill="grey">commonSideTopology</text>
</g>
<!-- Node7 -->
<g id="Node000007" class="node">
<title>Node7</title>
<g id="a_Node000007"><a xlink:href="classIoss_1_1Map.html" target="_top" xlink:title=" ">
<polygon fill="white" stroke="#666666" points="297.12,-246.38 237.62,-246.38 237.62,-227.12 297.12,-227.12 297.12,-246.38"/>
<text text-anchor="middle" x="267.38" y="-232.88" font-family="Helvetica,sans-Serif" font-size="10.00">Ioss::Map</text>
</a>
</g>
</g>
<!-- Node7&#45;&gt;Node3 -->
<g id="edge6_Node000003_Node000007" class="edge">
<title>Node7&#45;&gt;Node3</title>
<g id="a_edge6_Node000003_Node000007"><a xlink:title=" ">
<path fill="none" stroke="#9a32cd" stroke-dasharray="5,2" d="M308.85,-236.82C345.83,-235.52 401.27,-230.05 445.25,-210.75 468.97,-200.34 491.23,-179.13 503.05,-166.62"/>
<polygon fill="#9a32cd" stroke="#9a32cd" points="308.95,-233.32 299.05,-237.07 309.13,-240.32 308.95,-233.32"/>
</a>
</g>
<text text-anchor="start" x="374.38" y="-284.69" font-family="Helvetica,sans-Serif" font-size="10.00" fill="grey">edgeMap</text>
<text text-anchor="start" x="374.38" y="-269.44" font-family="Helvetica,sans-Serif" font-size="10.00" fill="grey">elemMap</text>
<text text-anchor="start" x="374.38" y="-254.19" font-family="Helvetica,sans-Serif" font-size="10.00" fill="grey">faceMap</text>
<text text-anchor="start" x="374.38" y="-238.94" font-family="Helvetica,sans-Serif" font-size="10.00" fill="grey">nodeMap</text>
</g>
<!-- Node8 -->
<g id="Node000008" class="node">
<title>Node8</title>
<g id="a_Node000008"><a xlink:href="classIoss_1_1ParallelUtils.html" target="_top" xlink:title=" ">
<polygon fill="white" stroke="#666666" points="314,-206.38 220.75,-206.38 220.75,-187.12 314,-187.12 314,-206.38"/>
<text text-anchor="middle" x="267.38" y="-192.88" font-family="Helvetica,sans-Serif" font-size="10.00">Ioss::ParallelUtils</text>
</a>
</g>
</g>
<!-- Node8&#45;&gt;Node3 -->
<g id="edge7_Node000003_Node000008" class="edge">
<title>Node8&#45;&gt;Node3</title>
<g id="a_edge7_Node000003_Node000008"><a xlink:title=" ">
<path fill="none" stroke="#9a32cd" stroke-dasharray="5,2" d="M325.83,-191.66C360.59,-188.07 405.69,-182.51 445.25,-174.75 456.07,-172.63 467.71,-169.71 478.2,-166.83"/>
<polygon fill="#9a32cd" stroke="#9a32cd" points="325.57,-188.17 315.97,-192.65 326.27,-195.13 325.57,-188.17"/>
</a>
</g>
<text text-anchor="start" x="385.25" y="-194.35" font-family="Helvetica,sans-Serif" font-size="10.00" fill="grey">util_</text>
</g>
<!-- Node9 -->
<g id="Node000009" class="node">
<title>Node9</title>
<g id="a_Node000009"><a xlink:href="classIoss_1_1Region.html" target="_top" xlink:title="A grouping entity that contains other grouping entities.">
<polygon fill="white" stroke="#666666" points="895.88,-141.38 824.38,-141.38 824.38,-122.12 895.88,-122.12 895.88,-141.38"/>
<text text-anchor="middle" x="860.12" y="-127.88" font-family="Helvetica,sans-Serif" font-size="10.00">Ioss::Region</text>
</a>
</g>
</g>
<!-- Node9&#45;&gt;Node3 -->
<g id="edge8_Node000003_Node000009" class="edge">
<title>Node9&#45;&gt;Node3</title>
<g id="a_edge8_Node000003_Node000009"><a xlink:title=" ">
<path fill="none" stroke="#9a32cd" stroke-dasharray="5,2" d="M812.77,-135.11C746.56,-139.9 625.65,-148.66 559.72,-153.43"/>
<polygon fill="#9a32cd" stroke="#9a32cd" points="812.85,-138.61 822.57,-134.4 812.34,-131.63 812.85,-138.61"/>
</a>
</g>
<text text-anchor="start" x="695.38" y="-151.49" font-family="Helvetica,sans-Serif" font-size="10.00" fill="grey">region_</text>
</g>
<!-- Node10&#45;&gt;Node9 -->
<g id="edge9_Node000009_Node000010" class="edge">
<title>Node10&#45;&gt;Node9</title>
<g id="a_edge9_Node000009_Node000010"><a xlink:title=" ">
<path fill="none" stroke="#63b8ff" d="M762.11,-106.67C782.44,-111.93 805.45,-117.87 823.96,-122.66"/>
<polygon fill="#63b8ff" stroke="#63b8ff" points="763.16,-103.33 752.6,-104.21 761.4,-110.1 763.16,-103.33"/>
</a>
</g>
</g>
<!-- Node11 -->
<g id="Node000011" class="node">
<title>Node11</title>
<g id="a_Node000011"><a xlink:href="classIoss_1_1FieldManager.html" target="_top" xlink:title="A collection of Ioss::Field objects.">
<polygon fill="white" stroke="#666666" points="562.5,-47.38 463.25,-47.38 463.25,-28.12 562.5,-28.12 562.5,-47.38"/>
<text text-anchor="middle" x="512.88" y="-33.88" font-family="Helvetica,sans-Serif" font-size="10.00">Ioss::FieldManager</text>
</a>
</g>
</g>
<!-- Node11&#45;&gt;Node10 -->
<g id="edge11_Node000010_Node000011" class="edge">
<title>Node11&#45;&gt;Node10</title>
<g id="a_edge11_Node000010_Node000011"><a xlink:title=" ">
<path fill="none" stroke="#9a32cd" stroke-dasharray="5,2" d="M574.15,-41.12C592.83,-43.28 613.29,-46.79 631.5,-52.5 654.89,-59.84 679.55,-73.97 694.89,-83.63"/>
<polygon fill="#9a32cd" stroke="#9a32cd" points="574.59,-37.65 564.29,-40.11 573.87,-44.61 574.59,-37.65"/>
</a>
</g>
<text text-anchor="start" x="594.38" y="-57.25" font-family="Helvetica,sans-Serif" font-size="10.00" fill="grey">fields</text>
</g>
<!-- Node12 -->
<g id="Node000012" class="node">
<title>Node12</title>
<g id="a_Node000012"><a xlink:href="classtsl_1_1robin__map.html" target="_top" xlink:title=" ">
<polygon fill="white" stroke="#666666" points="323,-75.5 211.75,-75.5 211.75,0 323,0 323,-75.5"/>
<text text-anchor="start" x="219.75" y="-62" font-family="Helvetica,sans-Serif" font-size="10.00">tsl::robin_map&lt; Key,</text>
<text text-anchor="start" x="219.75" y="-50.75" font-family="Helvetica,sans-Serif" font-size="10.00"> T, Hash, KeyEqual,</text>
<text text-anchor="start" x="219.75" y="-39.5" font-family="Helvetica,sans-Serif" font-size="10.00"> Allocator, StoreHash,</text>
<text text-anchor="start" x="219.75" y="-28.25" font-family="Helvetica,sans-Serif" font-size="10.00"> tsl::rh::prime_growth</text>
<text text-anchor="start" x="219.75" y="-17" font-family="Helvetica,sans-Serif" font-size="10.00">_policy &gt;&lt; std::string,</text>
<text text-anchor="middle" x="267.38" y="-5.75" font-family="Helvetica,sans-Serif" font-size="10.00"> Field &gt;</text>
</a>
</g>
</g>
<!-- Node12&#45;&gt;Node11 -->
<g id="edge12_Node000011_Node000012" class="edge">
<title>Node12&#45;&gt;Node11</title>
<g id="a_edge12_Node000011_Node000012"><a xlink:title=" ">
<path fill="none" stroke="#9a32cd" stroke-dasharray="5,2" d="M334.72,-37.75C375.2,-37.75 426.07,-37.75 462.91,-37.75"/>
<polygon fill="#9a32cd" stroke="#9a32cd" points="334.84,-34.25 324.84,-37.75 334.84,-41.25 334.84,-34.25"/>
</a>
</g>
<text text-anchor="start" x="382.62" y="-42.5" font-family="Helvetica,sans-Serif" font-size="10.00" fill="grey">fields</text>
</g>
</g>
</svg>

<g id="navigator" transform="translate(0 0)" fill="#404254">
  <rect fill="#f2f5e9" fill-opacity="0.5" stroke="#606060" stroke-width=".5" x="0" y="0" width="60" height="60"/>
  <use id="zoomplus" xlink:href="#zoomPlus" x="17" y="9" onmousedown="handleZoom(evt,'in')"/>
  <use id="zoomminus" xlink:href="#zoomMin" x="42" y="9" onmousedown="handleZoom(evt,'out')"/>
  <use id="reset" xlink:href="#resetDef" x="30" y="36" onmousedown="handleReset()"/>
   <use id="arrowup" xlink:href="#arrowUp" x="0" y="0" onmousedown="handlePan(0,-1)"/>
  <use id="arrowright" xlink:href="#arrowRight" x="0" y="0" onmousedown="handlePan(1,0)"/>
  <use id="arrowdown" xlink:href="#arrowDown" x="0" y="0" onmousedown="handlePan(0,1)"/>
  <use id="arrowleft" xlink:href="#arrowLeft" x="0" y="0" onmousedown="handlePan(-1,0)"/>
</g>
<svg viewBox="0 0 15 15" width="100%" height="30px" preserveAspectRatio="xMaxYMin meet">
 <g id="arrow_out" transform="scale(0.3 0.3)">
  <a xlink:href="classIoexnl_1_1DatabaseIO__coll__graph_org.svg" target="_base">
   <rect id="button" ry="5" rx="5" y="6" x="6" height="38" width="38"
        fill="#f2f5e9" fill-opacity="0.5" stroke="#606060" stroke-width="1.0"/>
   <path id="arrow"
     d="M 11.500037,31.436501 C 11.940474,20.09759 22.043105,11.32322 32.158766,21.979434 L 37.068811,17.246167 C 37.068811,17.246167 37.088388,32 37.088388,32 L 22.160133,31.978069 C 22.160133,31.978069 26.997745,27.140456 26.997745,27.140456 C 18.528582,18.264221 13.291696,25.230495 11.500037,31.436501 z"
     style="fill:#404040;"/>
  </a>
 </g>
</svg>

<style type='text/css'>
<![CDATA[
[data-mouse-over-selected='false'] { opacity: 0.7; }
[data-mouse-over-selected='true']  { opacity: 1.0; }
]]>
</style>
<script type="application/ecmascript"><![CDATA[
document.addEventListener('DOMContentLoaded', (event) => {
  highlightEdges();
  highlightAdjacentNodes();
});
]]></script>
</svg>
