<?xml version="1.0" encoding="UTF-8" standalone="no"?>
<!DOCTYPE svg PUBLIC "-//W3C//DTD SVG 1.1//EN"
 "http://www.w3.org/Graphics/SVG/1.1/DTD/svg11.dtd">
<!-- Generated by graphviz version 12.1.2 (20240928.0832)
 -->
<!-- Title: Ioss::ComposedVariableType Pages: 1 -->
<svg width="152pt" height="105pt"
 viewBox="0.00 0.00 151.50 105.00" xmlns="http://www.w3.org/2000/svg" xmlns:xlink="http://www.w3.org/1999/xlink">
<g id="graph0" class="graph" transform="scale(1 1) rotate(0) translate(4 101)">
<title>Ioss::ComposedVariableType</title>
<!-- Node1 -->
<g id="Node000001" class="node">
<title>Node1</title>
<g id="a_Node000001"><a xlink:title=" ">
<polygon fill="#999999" stroke="#666666" points="143.5,-19.25 0,-19.25 0,0 143.5,0 143.5,-19.25"/>
<text text-anchor="middle" x="71.75" y="-5.75" font-family="Helvetica,sans-Serif" font-size="10.00">Ioss::ComposedVariableType</text>
</a>
</g>
</g>
<!-- Node2 -->
<g id="Node000002" class="node">
<title>Node2</title>
<g id="a_Node000002"><a xlink:href="classIoss_1_1VariableType.html" target="_top" xlink:title="A generic variable type.">
<polygon fill="white" stroke="#666666" points="119.88,-97 23.62,-97 23.62,-77.75 119.88,-77.75 119.88,-97"/>
<text text-anchor="middle" x="71.75" y="-83.5" font-family="Helvetica,sans-Serif" font-size="10.00">Ioss::VariableType</text>
</a>
</g>
</g>
<!-- Node2&#45;&gt;Node1 -->
<g id="edge1_Node000001_Node000002" class="edge">
<title>Node2&#45;&gt;Node1</title>
<g id="a_edge1_Node000001_Node000002"><a xlink:title=" ">
<path fill="none" stroke="#63b8ff" d="M70.06,-66.03C69.94,-63.91 69.83,-61.79 69.75,-59.75 69.38,-49.76 69.38,-47.24 69.75,-37.25 69.97,-31.32 70.47,-24.66 70.92,-19.49"/>
<polygon fill="#63b8ff" stroke="#63b8ff" points="66.57,-66.29 70.8,-76 73.55,-65.77 66.57,-66.29"/>
</a>
</g>
</g>
<!-- Node2&#45;&gt;Node1 -->
<g id="edge2_Node000001_Node000002" class="edge">
<title>Node2&#45;&gt;Node1</title>
<g id="a_edge2_Node000001_Node000002"><a xlink:title=" ">
<path fill="none" stroke="#9a32cd" stroke-dasharray="5,2" d="M71.75,-66.1C71.75,-50.95 71.75,-30.98 71.75,-19.6"/>
<polygon fill="#9a32cd" stroke="#9a32cd" points="68.25,-65.87 71.75,-75.87 75.25,-65.87 68.25,-65.87"/>
</a>
</g>
<text text-anchor="middle" x="104.75" y="-50.25" font-family="Helvetica,sans-Serif" font-size="10.00" fill="grey"> baseType</text>
<text text-anchor="middle" x="104.75" y="-39" font-family="Helvetica,sans-Serif" font-size="10.00" fill="grey">secondaryType</text>
</g>
</g>
</svg>
