<?xml version="1.0" encoding="UTF-8" standalone="no"?>
<!DOCTYPE svg PUBLIC "-//W3C//DTD SVG 1.1//EN"
 "http://www.w3.org/Graphics/SVG/1.1/DTD/svg11.dtd">
<!-- Generated by graphviz version 3.0.0 (20220226.1711)
 -->
<!-- Title: Iohb::DatabaseIO Pages: 1 -->
<!--zoomable 299 -->
<svg id="main" version="1.1" xmlns="http://www.w3.org/2000/svg" xmlns:xlink="http://www.w3.org/1999/xlink" xml:space="preserve" onload="init(evt)">
<style type="text/css"><![CDATA[
.edge:hover path { stroke: red; }
.edge:hover polygon { stroke: red; fill: red; }
]]></style>
<script type="text/javascript"><![CDATA[
var edges = document.getElementsByTagName('g');
if (edges && edges.length) {
  for (var i=0;i<edges.length;i++) {
    if (edges[i].id.substr(0,4)=='edge') {
      edges[i].setAttribute('class','edge');
    }
  }
}
]]></script>
        <defs>
                <circle id="rim" cx="0" cy="0" r="7"/>
                <circle id="rim2" cx="0" cy="0" r="3.5"/>
                <g id="zoomPlus">
                        <use xlink:href="#rim" fill="#404040">
                                <set attributeName="fill" to="#808080" begin="zoomplus.mouseover" end="zoomplus.mouseout"/>
                        </use>
                        <path d="M-4,0h8M0,-4v8" fill="none" stroke="white" stroke-width="1.5" pointer-events="none"/>
                </g>
                <g id="zoomMin">
                        <use xlink:href="#rim" fill="#404040">
                                <set attributeName="fill" to="#808080" begin="zoomminus.mouseover" end="zoomminus.mouseout"/>
                        </use>
                        <path d="M-4,0h8" fill="none" stroke="white" stroke-width="1.5" pointer-events="none"/>
                </g>
                <g id="dirArrow">
                        <path fill="none" stroke="white" stroke-width="1.5" d="M0,-3.0v7 M-2.5,-0.5L0,-3.0L2.5,-0.5"/>
                </g>
               <g id="resetDef">
                       <use xlink:href="#rim2" fill="#404040">
                               <set attributeName="fill" to="#808080" begin="reset.mouseover" end="reset.mouseout"/>
                       </use>
               </g>
        </defs>

<script type="text/javascript">
var viewWidth = 1754;
var viewHeight = 299;
var sectionId = 'dynsection-1';
</script>
<script xlink:href="svgpan.js"/>
<svg id="graph" class="graph">
<g id="viewport">
<title>Iohb::DatabaseIO</title>
<polygon fill="white" stroke="transparent" points="-4,4 -4,-295 1750,-295 1750,4 -4,4"/>
<!-- Node1 -->
<g id="node1" class="node">
<title>Node1</title>
<g id="a_node1"><a xlink:title=" ">
<polygon fill="#bfbfbf" stroke="black" points="1537,-133.5 1537,-152.5 1631,-152.5 1631,-133.5 1537,-133.5"/>
<text text-anchor="middle" x="1584" y="-140.5" font-family="Helvetica,sans-Serif" font-size="10.00">Iohb::DatabaseIO</text>
</a>
</g>
</g>
<!-- Node2 -->
<g id="node2" class="node">
<title>Node2</title>
<g id="a_node2"><a xlink:href="classIoss_1_1DatabaseIO.html" target="_top" xlink:title="An input or output Database.">
<polygon fill="white" stroke="black" points="1349,-182.5 1349,-201.5 1443,-201.5 1443,-182.5 1349,-182.5"/>
<text text-anchor="middle" x="1396" y="-189.5" font-family="Helvetica,sans-Serif" font-size="10.00">Ioss::DatabaseIO</text>
</a>
</g>
</g>
<!-- Node2&#45;&gt;Node1 -->
<g id="edge1" class="edge">
<title>Node2&#45;&gt;Node1</title>
<path fill="none" stroke="midnightblue" d="M1443.31,-179.8C1475.3,-171.37 1517.24,-160.32 1546.79,-152.54"/>
<polygon fill="midnightblue" stroke="midnightblue" points="1442.08,-176.5 1433.3,-182.44 1443.87,-183.27 1442.08,-176.5"/>
</g>
<!-- Node17 -->
<g id="node17" class="node">
<title>Node17</title>
<g id="a_node17"><a xlink:href="classIoss_1_1GroupingEntity.html" target="_top" xlink:title="Base class for all &#39;grouping&#39; entities. The following derived classes are typical:">
<polygon fill="white" stroke="black" points="1531,-234.5 1531,-253.5 1637,-253.5 1637,-234.5 1531,-234.5"/>
<text text-anchor="middle" x="1584" y="-241.5" font-family="Helvetica,sans-Serif" font-size="10.00">Ioss::GroupingEntity</text>
</a>
</g>
</g>
<!-- Node2&#45;&gt;Node17 -->
<g id="edge19" class="edge">
<title>Node2&#45;&gt;Node17</title>
<path fill="none" stroke="#9a32cd" stroke-dasharray="5,2" d="M1440.95,-204.29C1473.93,-213.51 1518.44,-225.95 1548.79,-234.43"/>
<polygon fill="#9a32cd" stroke="#9a32cd" points="1441.69,-200.86 1431.12,-201.54 1439.8,-207.6 1441.69,-200.86"/>
<text text-anchor="middle" x="1488.5" y="-228" font-family="Helvetica,sans-Serif" font-size="10.00"> database_</text>
</g>
<!-- Node3 -->
<g id="node3" class="node">
<title>Node3</title>
<g id="a_node3"><a xlink:href="classIoss_1_1PropertyManager.html" target="_top" xlink:title="A collection of Ioss::Property objects.">
<polygon fill="white" stroke="black" points="1094,-261.5 1094,-280.5 1210,-280.5 1210,-261.5 1094,-261.5"/>
<text text-anchor="middle" x="1152" y="-268.5" font-family="Helvetica,sans-Serif" font-size="10.00">Ioss::PropertyManager</text>
</a>
</g>
</g>
<!-- Node3&#45;&gt;Node2 -->
<g id="edge2" class="edge">
<title>Node3&#45;&gt;Node2</title>
<path fill="none" stroke="#9a32cd" stroke-dasharray="5,2" d="M1220.32,-264.31C1253.63,-259.42 1293.91,-251.08 1328,-237 1349.24,-228.23 1370.76,-212.23 1383.49,-201.86"/>
<polygon fill="#9a32cd" stroke="#9a32cd" points="1219.64,-260.87 1210.22,-265.72 1220.61,-267.8 1219.64,-260.87"/>
<text text-anchor="middle" x="1278" y="-265" font-family="Helvetica,sans-Serif" font-size="10.00"> properties</text>
</g>
<!-- Node3&#45;&gt;Node17 -->
<g id="edge17" class="edge">
<title>Node3&#45;&gt;Node17</title>
<path fill="none" stroke="#9a32cd" stroke-dasharray="5,2" d="M1220.52,-277.06C1293.45,-281.95 1412.67,-285.11 1513,-265 1527.18,-262.16 1542.61,-257.68 1555.37,-253.59"/>
<polygon fill="#9a32cd" stroke="#9a32cd" points="1220.33,-273.54 1210.11,-276.33 1219.84,-280.52 1220.33,-273.54"/>
<text text-anchor="middle" x="1396" y="-283" font-family="Helvetica,sans-Serif" font-size="10.00"> properties</text>
</g>
<!-- Node4 -->
<g id="node4" class="node">
<title>Node4</title>
<g id="a_node4"><a xlink:href="classIoss_1_1ElementTopology.html" target="_top" xlink:title="Represents an element topology.">
<polygon fill="white" stroke="black" points="1094,-182.5 1094,-201.5 1210,-201.5 1210,-182.5 1094,-182.5"/>
<text text-anchor="middle" x="1152" y="-189.5" font-family="Helvetica,sans-Serif" font-size="10.00">Ioss::ElementTopology</text>
</a>
</g>
</g>
<!-- Node4&#45;&gt;Node2 -->
<g id="edge3" class="edge">
<title>Node4&#45;&gt;Node2</title>
<path fill="none" stroke="#9a32cd" stroke-dasharray="5,2" d="M1220.22,-192C1261.18,-192 1312.47,-192 1348.87,-192"/>
<polygon fill="#9a32cd" stroke="#9a32cd" points="1220.04,-188.5 1210.04,-192 1220.04,-195.5 1220.04,-188.5"/>
<text text-anchor="middle" x="1278" y="-195" font-family="Helvetica,sans-Serif" font-size="10.00"> commonSideTopology</text>
</g>
<!-- Node5 -->
<g id="node5" class="node">
<title>Node5</title>
<g id="a_node5"><a xlink:href="classIoss_1_1Map.html" target="_top" xlink:title=" ">
<polygon fill="white" stroke="black" points="1122,-115.5 1122,-134.5 1182,-134.5 1182,-115.5 1122,-115.5"/>
<text text-anchor="middle" x="1152" y="-122.5" font-family="Helvetica,sans-Serif" font-size="10.00">Ioss::Map</text>
</a>
</g>
</g>
<!-- Node5&#45;&gt;Node2 -->
<g id="edge4" class="edge">
<title>Node5&#45;&gt;Node2</title>
<path fill="none" stroke="#9a32cd" stroke-dasharray="5,2" d="M1192.43,-121.51C1229.47,-119.96 1285.41,-122.2 1328,-144 1338.65,-149.45 1336.69,-156.49 1346,-164 1354.85,-171.13 1365.74,-177.55 1375,-182.44"/>
<polygon fill="#9a32cd" stroke="#9a32cd" points="1191.85,-118.03 1182.05,-122.06 1192.22,-125.02 1191.85,-118.03"/>
<text text-anchor="middle" x="1278" y="-180" font-family="Helvetica,sans-Serif" font-size="10.00"> edgeMap</text>
<text text-anchor="middle" x="1278" y="-169" font-family="Helvetica,sans-Serif" font-size="10.00">elemMap</text>
<text text-anchor="middle" x="1278" y="-158" font-family="Helvetica,sans-Serif" font-size="10.00">faceMap</text>
<text text-anchor="middle" x="1278" y="-147" font-family="Helvetica,sans-Serif" font-size="10.00">nodeMap</text>
</g>
<!-- Node6 -->
<g id="node6" class="node">
<title>Node6</title>
<g id="a_node6"><a xlink:href="classtsl_1_1bhopscotch__map.html" target="_top" xlink:title=" ">
<polygon fill="white" stroke="black" points="902,-110 902,-140 1009,-140 1009,-110 902,-110"/>
<text text-anchor="start" x="910" y="-128" font-family="Helvetica,sans-Serif" font-size="10.00">tsl::bhopscotch_map</text>
<text text-anchor="middle" x="955.5" y="-117" font-family="Helvetica,sans-Serif" font-size="10.00">&lt; int64_t, int64_t &gt;</text>
</a>
</g>
</g>
<!-- Node6&#45;&gt;Node5 -->
<g id="edge5" class="edge">
<title>Node6&#45;&gt;Node5</title>
<path fill="none" stroke="#9a32cd" stroke-dasharray="5,2" d="M1019.58,-125C1053.98,-125 1094.92,-125 1121.86,-125"/>
<polygon fill="#9a32cd" stroke="#9a32cd" points="1019.13,-121.5 1009.13,-125 1019.13,-128.5 1019.13,-121.5"/>
<text text-anchor="middle" x="1051.5" y="-128" font-family="Helvetica,sans-Serif" font-size="10.00"> m_reverse</text>
</g>
<!-- Node7 -->
<g id="node7" class="node">
<title>Node7</title>
<g id="a_node7"><a xlink:href="classtsl_1_1detail__hopscotch__hash_1_1hopscotch__hash.html" target="_top" xlink:title=" ">
<polygon fill="white" stroke="black" points="676,-60.5 676,-189.5 841,-189.5 841,-60.5 676,-60.5"/>
<text text-anchor="start" x="684" y="-177.5" font-family="Helvetica,sans-Serif" font-size="10.00">tsl::detail_hopscotch</text>
<text text-anchor="start" x="684" y="-166.5" font-family="Helvetica,sans-Serif" font-size="10.00">_hash::hopscotch_hash</text>
<text text-anchor="start" x="684" y="-155.5" font-family="Helvetica,sans-Serif" font-size="10.00">&lt; std::pair&lt; const int64</text>
<text text-anchor="start" x="684" y="-144.5" font-family="Helvetica,sans-Serif" font-size="10.00">_t, int64_t &gt;, KeySelect,</text>
<text text-anchor="start" x="684" y="-133.5" font-family="Helvetica,sans-Serif" font-size="10.00"> ValueSelect, std::hash&lt;</text>
<text text-anchor="start" x="684" y="-122.5" font-family="Helvetica,sans-Serif" font-size="10.00"> int64_t &gt;, std::equal_to</text>
<text text-anchor="start" x="684" y="-111.5" font-family="Helvetica,sans-Serif" font-size="10.00">&lt; int64_t &gt;, std::allocator</text>
<text text-anchor="start" x="684" y="-100.5" font-family="Helvetica,sans-Serif" font-size="10.00">&lt; std::pair&lt; const int64_t,</text>
<text text-anchor="start" x="684" y="-89.5" font-family="Helvetica,sans-Serif" font-size="10.00"> int64_t &gt; &gt;, 62, false, tsl</text>
<text text-anchor="start" x="684" y="-78.5" font-family="Helvetica,sans-Serif" font-size="10.00">::hh::power_of_two_growth_policy</text>
<text text-anchor="middle" x="758.5" y="-67.5" font-family="Helvetica,sans-Serif" font-size="10.00">&lt; 2 &gt;, overflow_container_type &gt;</text>
</a>
</g>
</g>
<!-- Node7&#45;&gt;Node6 -->
<g id="edge6" class="edge">
<title>Node7&#45;&gt;Node6</title>
<path fill="none" stroke="#9a32cd" stroke-dasharray="5,2" d="M851.25,-125C868.62,-125 886.23,-125 901.87,-125"/>
<polygon fill="#9a32cd" stroke="#9a32cd" points="851.07,-121.5 841.07,-125 851.07,-128.5 851.07,-121.5"/>
<text text-anchor="middle" x="871.5" y="-128" font-family="Helvetica,sans-Serif" font-size="10.00"> m_ht</text>
</g>
<!-- Node8 -->
<g id="node8" class="node">
<title>Node8</title>
<g id="a_node8"><a xlink:title=" ">
<polygon fill="white" stroke="black" points="404.5,-197.5 404.5,-216.5 508.5,-216.5 508.5,-197.5 404.5,-197.5"/>
<text text-anchor="middle" x="456.5" y="-204.5" font-family="Helvetica,sans-Serif" font-size="10.00">std::hash&lt; int64_t &gt;</text>
</a>
</g>
</g>
<!-- Node8&#45;&gt;Node7 -->
<g id="edge7" class="edge">
<title>Node8&#45;&gt;Node7</title>
<path fill="none" stroke="#8b1a1a" d="M518.54,-195.53C558.55,-187.47 611.81,-175.7 658,-162 663.83,-160.27 669.81,-158.37 675.81,-156.38"/>
<polygon fill="#8b1a1a" stroke="#8b1a1a" points="517.79,-192.12 508.67,-197.5 519.16,-198.98 517.79,-192.12"/>
</g>
<!-- Node9 -->
<g id="node9" class="node">
<title>Node9</title>
<g id="a_node9"><a xlink:title=" ">
<polygon fill="white" stroke="black" points="396.5,-159.5 396.5,-178.5 516.5,-178.5 516.5,-159.5 396.5,-159.5"/>
<text text-anchor="middle" x="456.5" y="-166.5" font-family="Helvetica,sans-Serif" font-size="10.00">std::equal_to&lt; int64_t &gt;</text>
</a>
</g>
</g>
<!-- Node9&#45;&gt;Node7 -->
<g id="edge8" class="edge">
<title>Node9&#45;&gt;Node7</title>
<path fill="none" stroke="#8b1a1a" d="M526.9,-158.82C571.37,-152.3 629.27,-143.81 675.92,-136.96"/>
<polygon fill="#8b1a1a" stroke="#8b1a1a" points="526.16,-155.39 516.77,-160.31 527.17,-162.32 526.16,-155.39"/>
</g>
<!-- Node10 -->
<g id="node10" class="node">
<title>Node10</title>
<g id="a_node10"><a xlink:href="classtsl_1_1hh_1_1power__of__two__growth__policy.html" target="_top" xlink:title=" ">
<polygon fill="white" stroke="black" points="401.5,-110 401.5,-140 511.5,-140 511.5,-110 401.5,-110"/>
<text text-anchor="start" x="409.5" y="-128" font-family="Helvetica,sans-Serif" font-size="10.00">tsl::hh::power_of_two</text>
<text text-anchor="middle" x="456.5" y="-117" font-family="Helvetica,sans-Serif" font-size="10.00">_growth_policy&lt; 2 &gt;</text>
</a>
</g>
</g>
<!-- Node10&#45;&gt;Node7 -->
<g id="edge9" class="edge">
<title>Node10&#45;&gt;Node7</title>
<path fill="none" stroke="#8b1a1a" d="M522.05,-125C567.07,-125 627.5,-125 675.86,-125"/>
<polygon fill="#8b1a1a" stroke="#8b1a1a" points="521.83,-121.5 511.83,-125 521.83,-128.5 521.83,-121.5"/>
</g>
<!-- Node11 -->
<g id="node11" class="node">
<title>Node11</title>
<g id="a_node11"><a xlink:href="classtsl_1_1detail__hopscotch__hash_1_1hopscotch__bucket.html" target="_top" xlink:title=" ">
<polygon fill="white" stroke="black" points="377,-39 377,-91 536,-91 536,-39 377,-39"/>
<text text-anchor="start" x="385" y="-79" font-family="Helvetica,sans-Serif" font-size="10.00">tsl::detail_hopscotch</text>
<text text-anchor="start" x="385" y="-68" font-family="Helvetica,sans-Serif" font-size="10.00">_hash::hopscotch_bucket</text>
<text text-anchor="start" x="385" y="-57" font-family="Helvetica,sans-Serif" font-size="10.00">&lt; ValueType, NeighborhoodSize,</text>
<text text-anchor="middle" x="456.5" y="-46" font-family="Helvetica,sans-Serif" font-size="10.00"> StoreHash &gt;</text>
</a>
</g>
</g>
<!-- Node11&#45;&gt;Node7 -->
<g id="edge10" class="edge">
<title>Node11&#45;&gt;Node7</title>
<path fill="none" stroke="#9a32cd" stroke-dasharray="5,2" d="M546.31,-82.76C587.32,-90.96 635.7,-100.64 675.81,-108.66"/>
<polygon fill="#9a32cd" stroke="#9a32cd" points="546.81,-79.29 536.32,-80.76 545.44,-86.16 546.81,-79.29"/>
<text text-anchor="middle" x="606" y="-107" font-family="Helvetica,sans-Serif" font-size="10.00"> m_buckets</text>
</g>
<!-- Node12 -->
<g id="node12" class="node">
<title>Node12</title>
<g id="a_node12"><a xlink:href="classtsl_1_1detail__hopscotch__hash_1_1hopscotch__bucket__hash.html" target="_top" xlink:title=" ">
<polygon fill="white" stroke="black" points="56,-77.5 56,-118.5 184,-118.5 184,-77.5 56,-77.5"/>
<text text-anchor="start" x="64" y="-106.5" font-family="Helvetica,sans-Serif" font-size="10.00">tsl::detail_hopscotch</text>
<text text-anchor="start" x="64" y="-95.5" font-family="Helvetica,sans-Serif" font-size="10.00">_hash::hopscotch_bucket</text>
<text text-anchor="middle" x="120" y="-84.5" font-family="Helvetica,sans-Serif" font-size="10.00">_hash&lt; StoreHash &gt;</text>
</a>
</g>
</g>
<!-- Node12&#45;&gt;Node11 -->
<g id="edge11" class="edge">
<title>Node12&#45;&gt;Node11</title>
<path fill="none" stroke="midnightblue" d="M194.5,-90.75C248.46,-85.42 321.67,-78.2 376.82,-72.76"/>
<polygon fill="midnightblue" stroke="midnightblue" points="193.92,-87.29 184.31,-91.75 194.61,-94.26 193.92,-87.29"/>
</g>
<!-- Node13 -->
<g id="node13" class="node">
<title>Node13</title>
<g id="a_node13"><a xlink:href="classtsl_1_1detail__hopscotch__hash_1_1smallest__type__for__min__bits.html" target="_top" xlink:title=" ">
<polygon fill="white" stroke="black" points="0,-6 0,-58 240,-58 240,-6 0,-6"/>
<text text-anchor="start" x="8" y="-46" font-family="Helvetica,sans-Serif" font-size="10.00">tsl::detail_hopscotch</text>
<text text-anchor="start" x="8" y="-35" font-family="Helvetica,sans-Serif" font-size="10.00">_hash::smallest_type</text>
<text text-anchor="start" x="8" y="-24" font-family="Helvetica,sans-Serif" font-size="10.00">_for_min_bits&lt; NeighborhoodSize</text>
<text text-anchor="middle" x="120" y="-13" font-family="Helvetica,sans-Serif" font-size="10.00">+NB_RESERVED_BITS_IN_NEIGHBORHOOD &gt;</text>
</a>
</g>
</g>
<!-- Node13&#45;&gt;Node11 -->
<g id="edge12" class="edge">
<title>Node13&#45;&gt;Node11</title>
<path fill="none" stroke="#9a32cd" stroke-dasharray="5,2" d="M250.53,-44.78C293.2,-48.99 339.32,-53.54 376.99,-57.25"/>
<polygon fill="#9a32cd" stroke="#9a32cd" points="250.64,-41.27 240.35,-43.77 249.95,-48.24 250.64,-41.27"/>
<text text-anchor="middle" x="308.5" y="-59" font-family="Helvetica,sans-Serif" font-size="10.00"> m_neighborhood_infos</text>
</g>
<!-- Node14 -->
<g id="node14" class="node">
<title>Node14</title>
<g id="a_node14"><a xlink:title=" ">
<polygon fill="white" stroke="black" points="435,-0.5 435,-19.5 478,-19.5 478,-0.5 435,-0.5"/>
<text text-anchor="middle" x="456.5" y="-7.5" font-family="Helvetica,sans-Serif" font-size="10.00">size_t</text>
</a>
</g>
</g>
<!-- Node14&#45;&gt;Node7 -->
<g id="edge13" class="edge">
<title>Node14&#45;&gt;Node7</title>
<path fill="none" stroke="#9a32cd" stroke-dasharray="5,2" d="M488.43,-6.11C529.28,-2.36 602.53,-0.47 658,-26 675.6,-34.1 691.86,-46.71 705.92,-60.26"/>
<polygon fill="#9a32cd" stroke="#9a32cd" points="487.89,-2.65 478.29,-7.15 488.6,-9.61 487.89,-2.65"/>
<text text-anchor="start" x="554" y="-73" font-family="Helvetica,sans-Serif" font-size="10.00"> m_max_load_threshold</text>
<text text-anchor="middle" x="606" y="-62" font-family="Helvetica,sans-Serif" font-size="10.00">_rehash</text>
<text text-anchor="start" x="554" y="-51" font-family="Helvetica,sans-Serif" font-size="10.00">m_min_load_threshold</text>
<text text-anchor="middle" x="606" y="-40" font-family="Helvetica,sans-Serif" font-size="10.00">_rehash</text>
<text text-anchor="middle" x="606" y="-29" font-family="Helvetica,sans-Serif" font-size="10.00">m_nb_elements</text>
</g>
<!-- Node15 -->
<g id="node15" class="node">
<title>Node15</title>
<g id="a_node15"><a xlink:href="classIoss_1_1ParallelUtils.html" target="_top" xlink:title=" ">
<polygon fill="white" stroke="black" points="1105,-220.5 1105,-239.5 1199,-239.5 1199,-220.5 1105,-220.5"/>
<text text-anchor="middle" x="1152" y="-227.5" font-family="Helvetica,sans-Serif" font-size="10.00">Ioss::ParallelUtils</text>
</a>
</g>
</g>
<!-- Node15&#45;&gt;Node2 -->
<g id="edge14" class="edge">
<title>Node15&#45;&gt;Node2</title>
<path fill="none" stroke="#9a32cd" stroke-dasharray="5,2" d="M1209.55,-223.87C1243.92,-219.82 1288.62,-213.98 1328,-207 1336.8,-205.44 1346.2,-203.51 1355.08,-201.55"/>
<polygon fill="#9a32cd" stroke="#9a32cd" points="1208.76,-220.44 1199.23,-225.07 1209.57,-227.39 1208.76,-220.44"/>
<text text-anchor="middle" x="1278" y="-225" font-family="Helvetica,sans-Serif" font-size="10.00"> util_</text>
</g>
<!-- Node16 -->
<g id="node16" class="node">
<title>Node16</title>
<g id="a_node16"><a xlink:href="classIoss_1_1Region.html" target="_top" xlink:title="A grouping entity that contains other grouping entities.">
<polygon fill="white" stroke="black" points="1674,-193.5 1674,-212.5 1746,-212.5 1746,-193.5 1674,-193.5"/>
<text text-anchor="middle" x="1710" y="-200.5" font-family="Helvetica,sans-Serif" font-size="10.00">Ioss::Region</text>
</a>
</g>
</g>
<!-- Node16&#45;&gt;Node2 -->
<g id="edge15" class="edge">
<title>Node16&#45;&gt;Node2</title>
<path fill="none" stroke="#9a32cd" stroke-dasharray="5,2" d="M1663.78,-201.41C1604.86,-199.33 1502.36,-195.71 1443.04,-193.62"/>
<polygon fill="#9a32cd" stroke="#9a32cd" points="1663.79,-204.91 1673.91,-201.76 1664.04,-197.91 1663.79,-204.91"/>
<text text-anchor="middle" x="1584" y="-204" font-family="Helvetica,sans-Serif" font-size="10.00"> region_</text>
</g>
<!-- Node17&#45;&gt;Node16 -->
<g id="edge16" class="edge">
<title>Node17&#45;&gt;Node16</title>
<path fill="none" stroke="midnightblue" d="M1623.26,-231.35C1641.53,-225.31 1663.06,-218.19 1679.97,-212.6"/>
<polygon fill="midnightblue" stroke="midnightblue" points="1622.16,-228.03 1613.76,-234.49 1624.35,-234.67 1622.16,-228.03"/>
</g>
<!-- Node18 -->
<g id="node18" class="node">
<title>Node18</title>
<g id="a_node18"><a xlink:href="classIoss_1_1FieldManager.html" target="_top" xlink:title="A collection of Ioss::Field objects.">
<polygon fill="white" stroke="black" points="1346,-243.5 1346,-262.5 1446,-262.5 1446,-243.5 1346,-243.5"/>
<text text-anchor="middle" x="1396" y="-250.5" font-family="Helvetica,sans-Serif" font-size="10.00">Ioss::FieldManager</text>
</a>
</g>
</g>
<!-- Node18&#45;&gt;Node17 -->
<g id="edge18" class="edge">
<title>Node18&#45;&gt;Node17</title>
<path fill="none" stroke="#9a32cd" stroke-dasharray="5,2" d="M1456.38,-250.13C1480.3,-248.97 1507.66,-247.65 1530.81,-246.53"/>
<polygon fill="#9a32cd" stroke="#9a32cd" points="1456.18,-246.63 1446.36,-250.61 1456.51,-253.62 1456.18,-246.63"/>
<text text-anchor="middle" x="1488.5" y="-253" font-family="Helvetica,sans-Serif" font-size="10.00"> fields</text>
</g>
<!-- Node19 -->
<g id="node19" class="node">
<title>Node19</title>
<g id="a_node19"><a xlink:href="classstd_1_1basic__ostream.html" target="_top" xlink:title=" ">
<polygon fill="white" stroke="black" points="1346,-125 1346,-155 1446,-155 1446,-125 1346,-125"/>
<text text-anchor="start" x="1354" y="-143" font-family="Helvetica,sans-Serif" font-size="10.00">std::basic_ostream</text>
<text text-anchor="middle" x="1396" y="-132" font-family="Helvetica,sans-Serif" font-size="10.00">&lt; charT, traits &gt;</text>
</a>
</g>
</g>
<!-- Node19&#45;&gt;Node1 -->
<g id="edge20" class="edge">
<title>Node19&#45;&gt;Node1</title>
<path fill="none" stroke="#9a32cd" stroke-dasharray="5,2" d="M1456.29,-140.28C1474.48,-140.43 1494.57,-140.66 1513,-141 1520.66,-141.14 1528.79,-141.34 1536.69,-141.55"/>
<polygon fill="#9a32cd" stroke="#9a32cd" points="1456.13,-136.78 1446.11,-140.21 1456.08,-143.78 1456.13,-136.78"/>
<text text-anchor="middle" x="1488.5" y="-144" font-family="Helvetica,sans-Serif" font-size="10.00"> logStream</text>
</g>
</g>
</svg>
        <g id="navigator" transform="translate(0 0)" fill="#404254">
                <rect fill="#f2f5e9" fill-opacity="0.5" stroke="#606060" stroke-width=".5" x="0" y="0" width="60" height="60"/>
                <use id="zoomplus" xlink:href="#zoomPlus" x="17" y="9" onmousedown="handleZoom(evt,'in')"/>
                <use id="zoomminus" xlink:href="#zoomMin" x="42" y="9" onmousedown="handleZoom(evt,'out')"/>
                <use id="reset" xlink:href="#resetDef" x="30" y="36" onmousedown="handleReset()"/>
                <g id="arrowUp" xlink:href="#dirArrow" transform="translate(30 24)" onmousedown="handlePan(0,-1)">
                  <use xlink:href="#rim" fill="#404040">
                        <set attributeName="fill" to="#808080" begin="arrowUp.mouseover" end="arrowUp.mouseout"/>
                  </use>
                  <path fill="none" stroke="white" stroke-width="1.5" d="M0,-3.0v7 M-2.5,-0.5L0,-3.0L2.5,-0.5"/>
                </g>
                <g id="arrowRight" xlink:href="#dirArrow" transform="rotate(90) translate(36 -43)" onmousedown="handlePan(1,0)">
                  <use xlink:href="#rim" fill="#404040">
                        <set attributeName="fill" to="#808080" begin="arrowRight.mouseover" end="arrowRight.mouseout"/>
                  </use>
                  <path fill="none" stroke="white" stroke-width="1.5" d="M0,-3.0v7 M-2.5,-0.5L0,-3.0L2.5,-0.5"/>
                </g>
                <g id="arrowDown" xlink:href="#dirArrow" transform="rotate(180) translate(-30 -48)" onmousedown="handlePan(0,1)">
                  <use xlink:href="#rim" fill="#404040">
                        <set attributeName="fill" to="#808080" begin="arrowDown.mouseover" end="arrowDown.mouseout"/>
                  </use>
                  <path fill="none" stroke="white" stroke-width="1.5" d="M0,-3.0v7 M-2.5,-0.5L0,-3.0L2.5,-0.5"/>
                </g>
                <g id="arrowLeft" xlink:href="#dirArrow" transform="rotate(270) translate(-36 17)" onmousedown="handlePan(-1,0)">
                  <use xlink:href="#rim" fill="#404040">
                        <set attributeName="fill" to="#808080" begin="arrowLeft.mouseover" end="arrowLeft.mouseout"/>
                  </use>
                  <path fill="none" stroke="white" stroke-width="1.5" d="M0,-3.0v7 M-2.5,-0.5L0,-3.0L2.5,-0.5"/>
                </g>
        </g>
        <svg viewBox="0 0 15 15" width="100%" height="30px" preserveAspectRatio="xMaxYMin meet">
         <g id="arrow_out" transform="scale(0.3 0.3)">
          <a xlink:href="classIohb_1_1DatabaseIO__coll__graph_org.svg" target="_base">
           <rect id="button" ry="5" rx="5" y="6" x="6" height="38" width="38"
                fill="#f2f5e9" fill-opacity="0.5" stroke="#606060" stroke-width="1.0"/>
           <path id="arrow"
             d="M 11.500037,31.436501 C 11.940474,20.09759 22.043105,11.32322 32.158766,21.979434 L 37.068811,17.246167 C 37.068811,17.246167 37.088388,32 37.088388,32 L 22.160133,31.978069 C 22.160133,31.978069 26.997745,27.140456 26.997745,27.140456 C 18.528582,18.264221 13.291696,25.230495 11.500037,31.436501 z"
             style="fill:#404040;"/>
          </a>
         </g>
        </svg>
</svg>
