<?xml version="1.0" encoding="UTF-8" standalone="no"?>
<!DOCTYPE svg PUBLIC "-//W3C//DTD SVG 1.1//EN"
 "http://www.w3.org/Graphics/SVG/1.1/DTD/svg11.dtd">
<!-- Generated by graphviz version 2.50.0 (20211204.2007)
 -->
<!-- Title: Ioss::DatabaseIO Pages: 1 -->
<svg width="399pt" height="446pt"
 viewBox="0.00 0.00 399.00 446.00" xmlns="http://www.w3.org/2000/svg" xmlns:xlink="http://www.w3.org/1999/xlink">
<g id="graph0" class="graph" transform="scale(1 1) rotate(0) translate(4 442)">
<title>Ioss::DatabaseIO</title>
<polygon fill="white" stroke="transparent" points="-4,4 -4,-442 395,-442 395,4 -4,4"/>
<!-- Node1 -->
<g id="node1" class="node">
<title>Node1</title>
<g id="a_node1"><a xlink:title="An input or output Database.">
<polygon fill="#bfbfbf" stroke="black" points="0,-209.5 0,-228.5 94,-228.5 94,-209.5 0,-209.5"/>
<text text-anchor="middle" x="47" y="-216.5" font-family="Helvetica,sans-Serif" font-size="10.00">Ioss::DatabaseIO</text>
</a>
</g>
</g>
<!-- Node2 -->
<g id="node2" class="node">
<title>Node2</title>
<g id="a_node2"><a xlink:href="classIoad_1_1DatabaseIO.html" target="_top" xlink:title=" ">
<polygon fill="white" stroke="black" points="148.5,-418.5 148.5,-437.5 242.5,-437.5 242.5,-418.5 148.5,-418.5"/>
<text text-anchor="middle" x="195.5" y="-425.5" font-family="Helvetica,sans-Serif" font-size="10.00">Ioad::DatabaseIO</text>
</a>
</g>
</g>
<!-- Node1&#45;&gt;Node2 -->
<g id="edge1" class="edge">
<title>Node1&#45;&gt;Node2</title>
<path fill="none" stroke="midnightblue" d="M50.84,-238.44C57.48,-276.82 77.62,-362.6 130,-409 135.24,-413.64 141.57,-417.16 148.19,-419.81"/>
<polygon fill="midnightblue" stroke="midnightblue" points="54.29,-237.87 49.25,-228.55 47.38,-238.98 54.29,-237.87"/>
</g>
<!-- Node3 -->
<g id="node3" class="node">
<title>Node3</title>
<g id="a_node3"><a xlink:href="classIocatalyst_1_1DatabaseIO.html" target="_top" xlink:title=" ">
<polygon fill="white" stroke="black" points="136.5,-380.5 136.5,-399.5 254.5,-399.5 254.5,-380.5 136.5,-380.5"/>
<text text-anchor="middle" x="195.5" y="-387.5" font-family="Helvetica,sans-Serif" font-size="10.00">Iocatalyst::DatabaseIO</text>
</a>
</g>
</g>
<!-- Node1&#45;&gt;Node3 -->
<g id="edge2" class="edge">
<title>Node1&#45;&gt;Node3</title>
<path fill="none" stroke="midnightblue" d="M53.19,-238.54C62.8,-270.95 86.48,-335.71 130,-371 134.81,-374.9 140.39,-377.99 146.21,-380.46"/>
<polygon fill="midnightblue" stroke="midnightblue" points="56.55,-237.56 50.46,-228.88 49.81,-239.46 56.55,-237.56"/>
</g>
<!-- Node4 -->
<g id="node4" class="node">
<title>Node4</title>
<g id="a_node4"><a xlink:href="classIocgns_1_1DatabaseIO.html" target="_top" xlink:title=" ">
<polygon fill="white" stroke="black" points="143.5,-342.5 143.5,-361.5 247.5,-361.5 247.5,-342.5 143.5,-342.5"/>
<text text-anchor="middle" x="195.5" y="-349.5" font-family="Helvetica,sans-Serif" font-size="10.00">Iocgns::DatabaseIO</text>
</a>
</g>
</g>
<!-- Node1&#45;&gt;Node4 -->
<g id="edge3" class="edge">
<title>Node1&#45;&gt;Node4</title>
<path fill="none" stroke="midnightblue" d="M56.62,-237.88C69.17,-263.27 94.87,-308.09 130,-333 135.43,-336.85 141.64,-339.93 148.01,-342.38"/>
<polygon fill="midnightblue" stroke="midnightblue" points="59.66,-236.12 52.19,-228.6 53.34,-239.13 59.66,-236.12"/>
</g>
<!-- Node5 -->
<g id="node5" class="node">
<title>Node5</title>
<g id="a_node5"><a xlink:href="classIoex_1_1BaseDatabaseIO.html" target="_top" xlink:title=" ">
<polygon fill="white" stroke="black" points="137.5,-304.5 137.5,-323.5 253.5,-323.5 253.5,-304.5 137.5,-304.5"/>
<text text-anchor="middle" x="195.5" y="-311.5" font-family="Helvetica,sans-Serif" font-size="10.00">Ioex::BaseDatabaseIO</text>
</a>
</g>
</g>
<!-- Node1&#45;&gt;Node5 -->
<g id="edge4" class="edge">
<title>Node1&#45;&gt;Node5</title>
<path fill="none" stroke="midnightblue" d="M62.36,-236.34C77.5,-253.57 102.88,-279.58 130,-295 136.7,-298.81 144.23,-301.92 151.72,-304.43"/>
<polygon fill="midnightblue" stroke="midnightblue" points="64.95,-233.99 55.78,-228.68 59.63,-238.55 64.95,-233.99"/>
</g>
<!-- Node7 -->
<g id="node7" class="node">
<title>Node7</title>
<g id="a_node7"><a xlink:href="classIofaodel_1_1DatabaseIO.html" target="_top" xlink:title=" ">
<polygon fill="white" stroke="black" points="140.5,-266.5 140.5,-285.5 250.5,-285.5 250.5,-266.5 140.5,-266.5"/>
<text text-anchor="middle" x="195.5" y="-273.5" font-family="Helvetica,sans-Serif" font-size="10.00">Iofaodel::DatabaseIO</text>
</a>
</g>
</g>
<!-- Node1&#45;&gt;Node7 -->
<g id="edge6" class="edge">
<title>Node1&#45;&gt;Node7</title>
<path fill="none" stroke="midnightblue" d="M75.69,-233.08C91.39,-240.74 111.52,-250.04 130,-257 139.18,-260.46 149.28,-263.69 158.7,-266.48"/>
<polygon fill="midnightblue" stroke="midnightblue" points="77.07,-229.85 66.55,-228.56 73.97,-236.13 77.07,-229.85"/>
</g>
<!-- Node8 -->
<g id="node8" class="node">
<title>Node8</title>
<g id="a_node8"><a xlink:href="classIogn_1_1DatabaseIO.html" target="_top" xlink:title=" ">
<polygon fill="white" stroke="black" points="148.5,-228.5 148.5,-247.5 242.5,-247.5 242.5,-228.5 148.5,-228.5"/>
<text text-anchor="middle" x="195.5" y="-235.5" font-family="Helvetica,sans-Serif" font-size="10.00">Iogn::DatabaseIO</text>
</a>
</g>
</g>
<!-- Node1&#45;&gt;Node8 -->
<g id="edge7" class="edge">
<title>Node1&#45;&gt;Node8</title>
<path fill="none" stroke="midnightblue" d="M104.28,-226.3C118.88,-228.19 134.44,-230.21 148.45,-232.03"/>
<polygon fill="midnightblue" stroke="midnightblue" points="104.72,-222.83 94.35,-225.01 103.82,-229.77 104.72,-222.83"/>
</g>
<!-- Node9 -->
<g id="node9" class="node">
<title>Node9</title>
<g id="a_node9"><a xlink:href="classIogs_1_1DatabaseIO.html" target="_top" xlink:title=" ">
<polygon fill="white" stroke="black" points="148.5,-190.5 148.5,-209.5 242.5,-209.5 242.5,-190.5 148.5,-190.5"/>
<text text-anchor="middle" x="195.5" y="-197.5" font-family="Helvetica,sans-Serif" font-size="10.00">Iogs::DatabaseIO</text>
</a>
</g>
</g>
<!-- Node1&#45;&gt;Node9 -->
<g id="edge8" class="edge">
<title>Node1&#45;&gt;Node9</title>
<path fill="none" stroke="midnightblue" d="M104.28,-211.7C118.88,-209.81 134.44,-207.79 148.45,-205.97"/>
<polygon fill="midnightblue" stroke="midnightblue" points="103.82,-208.23 94.35,-212.99 104.72,-215.17 103.82,-208.23"/>
</g>
<!-- Node10 -->
<g id="node10" class="node">
<title>Node10</title>
<g id="a_node10"><a xlink:href="classIohb_1_1DatabaseIO.html" target="_top" xlink:title=" ">
<polygon fill="white" stroke="black" points="148.5,-152.5 148.5,-171.5 242.5,-171.5 242.5,-152.5 148.5,-152.5"/>
<text text-anchor="middle" x="195.5" y="-159.5" font-family="Helvetica,sans-Serif" font-size="10.00">Iohb::DatabaseIO</text>
</a>
</g>
</g>
<!-- Node1&#45;&gt;Node10 -->
<g id="edge9" class="edge">
<title>Node1&#45;&gt;Node10</title>
<path fill="none" stroke="midnightblue" d="M75.69,-204.92C91.39,-197.26 111.52,-187.96 130,-181 139.18,-177.54 149.28,-174.31 158.7,-171.52"/>
<polygon fill="midnightblue" stroke="midnightblue" points="73.97,-201.87 66.55,-209.44 77.07,-208.15 73.97,-201.87"/>
</g>
<!-- Node11 -->
<g id="node11" class="node">
<title>Node11</title>
<g id="a_node11"><a xlink:href="classIopg_1_1DatabaseIO.html" target="_top" xlink:title=" ">
<polygon fill="white" stroke="black" points="148.5,-114.5 148.5,-133.5 242.5,-133.5 242.5,-114.5 148.5,-114.5"/>
<text text-anchor="middle" x="195.5" y="-121.5" font-family="Helvetica,sans-Serif" font-size="10.00">Iopg::DatabaseIO</text>
</a>
</g>
</g>
<!-- Node1&#45;&gt;Node11 -->
<g id="edge10" class="edge">
<title>Node1&#45;&gt;Node11</title>
<path fill="none" stroke="midnightblue" d="M62.36,-201.66C77.5,-184.43 102.88,-158.42 130,-143 136.7,-139.19 144.23,-136.08 151.72,-133.57"/>
<polygon fill="midnightblue" stroke="midnightblue" points="59.63,-199.45 55.78,-209.32 64.95,-204.01 59.63,-199.45"/>
</g>
<!-- Node12 -->
<g id="node12" class="node">
<title>Node12</title>
<g id="a_node12"><a xlink:href="classIotm_1_1DatabaseIO.html" target="_top" xlink:title=" ">
<polygon fill="white" stroke="black" points="148,-76.5 148,-95.5 243,-95.5 243,-76.5 148,-76.5"/>
<text text-anchor="middle" x="195.5" y="-83.5" font-family="Helvetica,sans-Serif" font-size="10.00">Iotm::DatabaseIO</text>
</a>
</g>
</g>
<!-- Node1&#45;&gt;Node12 -->
<g id="edge11" class="edge">
<title>Node1&#45;&gt;Node12</title>
<path fill="none" stroke="midnightblue" d="M56.62,-200.12C69.17,-174.73 94.87,-129.91 130,-105 135.43,-101.15 141.64,-98.07 148.01,-95.62"/>
<polygon fill="midnightblue" stroke="midnightblue" points="53.34,-198.87 52.19,-209.4 59.66,-201.88 53.34,-198.87"/>
</g>
<!-- Node13 -->
<g id="node13" class="node">
<title>Node13</title>
<g id="a_node13"><a xlink:href="classIovs__cgns_1_1DatabaseIO.html" target="_top" xlink:title=" ">
<polygon fill="white" stroke="black" points="135.5,-38.5 135.5,-57.5 255.5,-57.5 255.5,-38.5 135.5,-38.5"/>
<text text-anchor="middle" x="195.5" y="-45.5" font-family="Helvetica,sans-Serif" font-size="10.00">Iovs_cgns::DatabaseIO</text>
</a>
</g>
</g>
<!-- Node1&#45;&gt;Node13 -->
<g id="edge12" class="edge">
<title>Node1&#45;&gt;Node13</title>
<path fill="none" stroke="midnightblue" d="M53.19,-199.46C62.8,-167.05 86.48,-102.29 130,-67 134.81,-63.1 140.39,-60.01 146.21,-57.54"/>
<polygon fill="midnightblue" stroke="midnightblue" points="49.81,-198.54 50.46,-209.12 56.55,-200.44 49.81,-198.54"/>
</g>
<!-- Node14 -->
<g id="node14" class="node">
<title>Node14</title>
<g id="a_node14"><a xlink:href="classIovs__exodus_1_1DatabaseIO.html" target="_top" xlink:title=" ">
<polygon fill="white" stroke="black" points="130,-0.5 130,-19.5 261,-19.5 261,-0.5 130,-0.5"/>
<text text-anchor="middle" x="195.5" y="-7.5" font-family="Helvetica,sans-Serif" font-size="10.00">Iovs_exodus::DatabaseIO</text>
</a>
</g>
</g>
<!-- Node1&#45;&gt;Node14 -->
<g id="edge13" class="edge">
<title>Node1&#45;&gt;Node14</title>
<path fill="none" stroke="midnightblue" d="M50.84,-199.56C57.48,-161.18 77.62,-75.4 130,-29 134.37,-25.13 139.49,-22.05 144.91,-19.59"/>
<polygon fill="midnightblue" stroke="midnightblue" points="47.38,-199.02 49.25,-209.45 54.29,-200.13 47.38,-199.02"/>
</g>
<!-- Node6 -->
<g id="node6" class="node">
<title>Node6</title>
<g id="a_node6"><a xlink:href="classIoex_1_1DatabaseIO.html" target="_top" xlink:title=" ">
<polygon fill="white" stroke="black" points="297,-304.5 297,-323.5 391,-323.5 391,-304.5 297,-304.5"/>
<text text-anchor="middle" x="344" y="-311.5" font-family="Helvetica,sans-Serif" font-size="10.00">Ioex::DatabaseIO</text>
</a>
</g>
</g>
<!-- Node5&#45;&gt;Node6 -->
<g id="edge5" class="edge">
<title>Node5&#45;&gt;Node6</title>
<path fill="none" stroke="midnightblue" d="M263.73,-314C274.89,-314 286.24,-314 296.73,-314"/>
<polygon fill="midnightblue" stroke="midnightblue" points="263.56,-310.5 253.56,-314 263.56,-317.5 263.56,-310.5"/>
</g>
</g>
</svg>
