<?xml version="1.0" encoding="UTF-8" standalone="no"?>
<!DOCTYPE svg PUBLIC "-//W3C//DTD SVG 1.1//EN"
 "http://www.w3.org/Graphics/SVG/1.1/DTD/svg11.dtd">
<!-- Generated by graphviz version 7.1.0 (20230121.1956)
 -->
<!-- Title: Ioad::AdiosWrapper Pages: 1 -->
<svg width="271pt" height="82pt"
 viewBox="0.00 0.00 271.00 82.00" xmlns="http://www.w3.org/2000/svg" xmlns:xlink="http://www.w3.org/1999/xlink">
<g id="graph0" class="graph" transform="scale(1 1) rotate(0) translate(4 78)">
<title>Ioad::AdiosWrapper</title>
<!-- Node1 -->
<g id="node1" class="node">
<title>Node1</title>
<g id="a_node1"><a xlink:title=" ">
<polygon fill="#999999" stroke="#666666" points="183.5,-19 81.5,-19 81.5,0 183.5,0 183.5,-19"/>
<text text-anchor="middle" x="132.5" y="-7" font-family="Helvetica,sans-Serif" font-size="10.00">Ioad::AdiosWrapper</text>
</a>
</g>
</g>
<!-- Node2 -->
<g id="node2" class="node">
<title>Node2</title>
<g id="a_node2"><a xlink:title=" ">
<polygon fill="white" stroke="#666666" points="83,-74 0,-74 0,-55 83,-55 83,-74"/>
<text text-anchor="middle" x="41.5" y="-62" font-family="Helvetica,sans-Serif" font-size="10.00">adios2::ADIOS</text>
</a>
</g>
</g>
<!-- Node2&#45;&gt;Node1 -->
<g id="edge1" class="edge">
<title>Node2&#45;&gt;Node1</title>
<path fill="none" stroke="#8b1a1a" d="M66.86,-48.73C83.07,-39.29 103.56,-27.36 117.29,-19.36"/>
<polygon fill="#8b1a1a" stroke="#8b1a1a" points="65.12,-45.69 58.24,-53.75 68.65,-51.74 65.12,-45.69"/>
</g>
<!-- Node3 -->
<g id="node3" class="node">
<title>Node3</title>
<g id="a_node3"><a xlink:title=" ">
<polygon fill="white" stroke="#666666" points="163.5,-74 101.5,-74 101.5,-55 163.5,-55 163.5,-74"/>
<text text-anchor="middle" x="132.5" y="-62" font-family="Helvetica,sans-Serif" font-size="10.00">adios2::IO</text>
</a>
</g>
</g>
<!-- Node3&#45;&gt;Node1 -->
<g id="edge2" class="edge">
<title>Node3&#45;&gt;Node1</title>
<path fill="none" stroke="#8b1a1a" d="M132.5,-43.35C132.5,-35.1 132.5,-25.97 132.5,-19.44"/>
<polygon fill="#8b1a1a" stroke="#8b1a1a" points="129,-43.23 132.5,-53.23 136,-43.23 129,-43.23"/>
</g>
<!-- Node4 -->
<g id="node4" class="node">
<title>Node4</title>
<g id="a_node4"><a xlink:title=" ">
<polygon fill="white" stroke="#666666" points="263,-74 182,-74 182,-55 263,-55 263,-74"/>
<text text-anchor="middle" x="222.5" y="-62" font-family="Helvetica,sans-Serif" font-size="10.00">adios2::Engine</text>
</a>
</g>
</g>
<!-- Node4&#45;&gt;Node1 -->
<g id="edge3" class="edge">
<title>Node4&#45;&gt;Node1</title>
<path fill="none" stroke="#8b1a1a" d="M197.42,-48.73C181.39,-39.29 161.13,-27.36 147.54,-19.36"/>
<polygon fill="#8b1a1a" stroke="#8b1a1a" points="195.54,-51.68 205.93,-53.74 199.09,-45.65 195.54,-51.68"/>
</g>
</g>
</svg>
