<?xml version="1.0" encoding="UTF-8" standalone="no"?>
<!DOCTYPE svg PUBLIC "-//W3C//DTD SVG 1.1//EN"
 "http://www.w3.org/Graphics/SVG/1.1/DTD/svg11.dtd">
<!-- Generated by graphviz version 6.0.1 (20220911.1526)
 -->
<!-- Title: Iovs_exodus::CatalystExodusMesh Pages: 1 -->
<svg width="713pt" height="124pt"
 viewBox="0.00 0.00 713.00 124.00" xmlns="http://www.w3.org/2000/svg" xmlns:xlink="http://www.w3.org/1999/xlink">
<g id="graph0" class="graph" transform="scale(1 1) rotate(0) translate(4 120)">
<title>Iovs_exodus::CatalystExodusMesh</title>
<!-- Node1 -->
<g id="node1" class="node">
<title>Node1</title>
<g id="a_node1"><a xlink:title=" ">
<polygon fill="#999999" stroke="#666666" points="705,-67.5 533,-67.5 533,-48.5 705,-48.5 705,-67.5"/>
<text text-anchor="middle" x="619" y="-55.5" font-family="Helvetica,sans-Serif" font-size="10.00">Iovs_exodus::CatalystExodusMesh</text>
</a>
</g>
</g>
<!-- Node2 -->
<g id="node2" class="node">
<title>Node2</title>
<g id="a_node2"><a xlink:href="classIovs__exodus_1_1CatalystExodusMeshBase.html" target="_top" xlink:title=" ">
<polygon fill="white" stroke="#666666" points="408,-116 260,-116 260,-86 408,-86 408,-116"/>
<text text-anchor="start" x="268" y="-104" font-family="Helvetica,sans-Serif" font-size="10.00">Iovs_exodus::CatalystExodus</text>
<text text-anchor="middle" x="334" y="-93" font-family="Helvetica,sans-Serif" font-size="10.00">MeshBase</text>
</a>
</g>
</g>
<!-- Node2&#45;&gt;Node1 -->
<g id="edge1" class="edge">
<title>Node2&#45;&gt;Node1</title>
<path fill="none" stroke="#63b8ff" d="M418.3,-88.34C462.07,-81.69 514.84,-73.67 555.14,-67.55"/>
<polygon fill="#63b8ff" stroke="#63b8ff" points="417.61,-84.91 408.25,-89.87 418.66,-91.83 417.61,-84.91"/>
</g>
<!-- Node3 -->
<g id="node3" class="node">
<title>Node3</title>
<g id="a_node3"><a xlink:href="classIovs_1_1CatalystManager.html" target="_top" xlink:title=" ">
<polygon fill="white" stroke="#666666" points="392,-67.5 276,-67.5 276,-48.5 392,-48.5 392,-67.5"/>
<text text-anchor="middle" x="334" y="-55.5" font-family="Helvetica,sans-Serif" font-size="10.00">Iovs::CatalystManager</text>
</a>
</g>
</g>
<!-- Node3&#45;&gt;Node1 -->
<g id="edge2" class="edge">
<title>Node3&#45;&gt;Node1</title>
<path fill="none" stroke="#9a32cd" stroke-dasharray="5,2" d="M402.48,-58C441.57,-58 491.14,-58 532.89,-58"/>
<polygon fill="#9a32cd" stroke="#9a32cd" points="402.27,-54.5 392.27,-58 402.27,-61.5 402.27,-54.5"/>
<text text-anchor="middle" x="470.5" y="-61" font-family="Helvetica,sans-Serif" font-size="10.00"> catManager</text>
</g>
<!-- Node4 -->
<g id="node4" class="node">
<title>Node4</title>
<g id="a_node4"><a xlink:href="classIovs_1_1CatalystManagerBase.html" target="_top" xlink:title=" ">
<polygon fill="white" stroke="#666666" points="138,-67.5 0,-67.5 0,-48.5 138,-48.5 138,-67.5"/>
<text text-anchor="middle" x="69" y="-55.5" font-family="Helvetica,sans-Serif" font-size="10.00">Iovs::CatalystManagerBase</text>
</a>
</g>
</g>
<!-- Node4&#45;&gt;Node3 -->
<g id="edge3" class="edge">
<title>Node4&#45;&gt;Node3</title>
<path fill="none" stroke="#63b8ff" d="M148.3,-58C189.27,-58 238.54,-58 275.88,-58"/>
<polygon fill="#63b8ff" stroke="#63b8ff" points="148.07,-54.5 138.07,-58 148.07,-61.5 148.07,-54.5"/>
</g>
<!-- Node5 -->
<g id="node5" class="node">
<title>Node5</title>
<g id="a_node5"><a xlink:href="structIovs_1_1CatalystManager_1_1CatalystPipelineInfo.html" target="_top" xlink:title=" ">
<polygon fill="white" stroke="#666666" points="392,-30 276,-30 276,0 392,0 392,-30"/>
<text text-anchor="start" x="284" y="-18" font-family="Helvetica,sans-Serif" font-size="10.00">Iovs::CatalystManager</text>
<text text-anchor="middle" x="334" y="-7" font-family="Helvetica,sans-Serif" font-size="10.00">::CatalystPipelineInfo</text>
</a>
</g>
</g>
<!-- Node5&#45;&gt;Node1 -->
<g id="edge4" class="edge">
<title>Node5&#45;&gt;Node1</title>
<path fill="none" stroke="#9a32cd" stroke-dasharray="5,2" d="M402.24,-25.22C448.68,-32.27 510.01,-41.59 555.41,-48.49"/>
<polygon fill="#9a32cd" stroke="#9a32cd" points="402.68,-21.74 392.27,-23.7 401.63,-28.66 402.68,-21.74"/>
<text text-anchor="middle" x="470.5" y="-44" font-family="Helvetica,sans-Serif" font-size="10.00"> catalystPipelineInfo</text>
</g>
<!-- Node6 -->
<g id="node6" class="node">
<title>Node6</title>
<g id="a_node6"><a xlink:href="classstd_1_1basic__string.html" target="_top" xlink:title=" ">
<polygon fill="white" stroke="#666666" points="123.5,-30 14.5,-30 14.5,0 123.5,0 123.5,-30"/>
<text text-anchor="start" x="22.5" y="-18" font-family="Helvetica,sans-Serif" font-size="10.00">std::basic_string&lt;</text>
<text text-anchor="middle" x="69" y="-7" font-family="Helvetica,sans-Serif" font-size="10.00"> Elem, Traits, Alloc &gt;</text>
</a>
</g>
</g>
<!-- Node6&#45;&gt;Node5 -->
<g id="edge5" class="edge">
<title>Node6&#45;&gt;Node5</title>
<path fill="none" stroke="#9a32cd" stroke-dasharray="5,2" d="M133.69,-15C177.07,-15 233.99,-15 275.89,-15"/>
<polygon fill="#9a32cd" stroke="#9a32cd" points="133.54,-11.5 123.54,-15 133.54,-18.5 133.54,-11.5"/>
<text text-anchor="middle" x="199" y="-18" font-family="Helvetica,sans-Serif" font-size="10.00"> catalystInputName</text>
</g>
</g>
</svg>
