<?xml version="1.0" encoding="UTF-8" standalone="no"?>
<!DOCTYPE svg PUBLIC "-//W3C//DTD SVG 1.1//EN"
 "http://www.w3.org/Graphics/SVG/1.1/DTD/svg11.dtd">
<!-- Generated by graphviz version 2.49.3 (20211023.0002)
 -->
<!-- Title: Iotm::text_mesh::TextMeshParser&lt; EntityId, TopologyMapping &gt; Pages: 1 -->
<svg width="296pt" height="117pt"
 viewBox="0.00 0.00 295.50 117.00" xmlns="http://www.w3.org/2000/svg" xmlns:xlink="http://www.w3.org/1999/xlink">
<g id="graph0" class="graph" transform="scale(1 1) rotate(0) translate(4 113)">
<title>Iotm::text_mesh::TextMeshParser&lt; EntityId, TopologyMapping &gt;</title>
<polygon fill="white" stroke="transparent" points="-4,4 -4,-113 291.5,-113 291.5,4 -4,4"/>
<!-- Node1 -->
<g id="node1" class="node">
<title>Node1</title>
<g id="a_node1"><a xlink:title=" ">
<polygon fill="#bfbfbf" stroke="black" points="54,-0.5 54,-30.5 234,-30.5 234,-0.5 54,-0.5"/>
<text text-anchor="start" x="62" y="-18.5" font-family="Helvetica,sans-Serif" font-size="10.00">Iotm::text_mesh::TextMesh</text>
<text text-anchor="middle" x="144" y="-7.5" font-family="Helvetica,sans-Serif" font-size="10.00">Parser&lt; EntityId, TopologyMapping &gt;</text>
</a>
</g>
</g>
<!-- Node2 -->
<g id="node2" class="node">
<title>Node2</title>
<g id="a_node2"><a xlink:href="classIotm_1_1text__mesh_1_1TextMeshLexer.html" target="_top" xlink:title=" ">
<polygon fill="white" stroke="black" points="0,-78.5 0,-108.5 136,-108.5 136,-78.5 0,-78.5"/>
<text text-anchor="start" x="8" y="-96.5" font-family="Helvetica,sans-Serif" font-size="10.00">Iotm::text_mesh::TextMesh</text>
<text text-anchor="middle" x="68" y="-85.5" font-family="Helvetica,sans-Serif" font-size="10.00">Lexer</text>
</a>
</g>
</g>
<!-- Node2&#45;&gt;Node1 -->
<g id="edge1" class="edge">
<title>Node2&#45;&gt;Node1</title>
<path fill="none" stroke="#9a32cd" stroke-dasharray="5,2" d="M89.47,-71.03C102.37,-58.13 118.43,-42.07 129.77,-30.73"/>
<polygon fill="#9a32cd" stroke="#9a32cd" points="86.89,-68.66 82.3,-78.2 91.84,-73.61 86.89,-68.66"/>
<text text-anchor="middle" x="130.5" y="-52" font-family="Helvetica,sans-Serif" font-size="10.00"> m_lexer</text>
</g>
<!-- Node3 -->
<g id="node3" class="node">
<title>Node3</title>
<g id="a_node3"><a xlink:href="classIotm_1_1text__mesh_1_1TopologyMapping.html" target="_top" xlink:title=" ">
<polygon fill="white" stroke="black" points="154.5,-78.5 154.5,-108.5 287.5,-108.5 287.5,-78.5 154.5,-78.5"/>
<text text-anchor="start" x="162.5" y="-96.5" font-family="Helvetica,sans-Serif" font-size="10.00">Iotm::text_mesh::Topology</text>
<text text-anchor="middle" x="221" y="-85.5" font-family="Helvetica,sans-Serif" font-size="10.00">Mapping&lt; T &gt;</text>
</a>
</g>
</g>
<!-- Node3&#45;&gt;Node1 -->
<g id="edge2" class="edge">
<title>Node3&#45;&gt;Node1</title>
<path fill="none" stroke="#9a32cd" stroke-dasharray="5,2" d="M199.25,-71.03C186.18,-58.13 169.91,-42.07 158.42,-30.73"/>
<polygon fill="#9a32cd" stroke="#9a32cd" points="196.94,-73.67 206.52,-78.2 201.86,-68.69 196.94,-73.67"/>
<text text-anchor="middle" x="233.5" y="-52" font-family="Helvetica,sans-Serif" font-size="10.00"> m_topologyMapping</text>
</g>
</g>
</svg>
