<?xml version="1.0" encoding="UTF-8" standalone="no"?>
<!DOCTYPE svg PUBLIC "-//W3C//DTD SVG 1.1//EN"
 "http://www.w3.org/Graphics/SVG/1.1/DTD/svg11.dtd">
<!-- Generated by graphviz version 7.0.0 (20221023.0053)
 -->
<!-- Title: Ioss::St_Pyramid18 Pages: 1 -->
<svg width="141pt" height="216pt"
 viewBox="0.00 0.00 141.00 216.00" xmlns="http://www.w3.org/2000/svg" xmlns:xlink="http://www.w3.org/1999/xlink">
<g id="graph0" class="graph" transform="scale(1 1) rotate(0) translate(4 212)">
<title>Ioss::St_Pyramid18</title>
<!-- Node1 -->
<g id="node1" class="node">
<title>Node1</title>
<g id="a_node1"><a xlink:title=" ">
<polygon fill="#999999" stroke="#666666" points="118,-19 15,-19 15,0 118,0 118,-19"/>
<text text-anchor="middle" x="66.5" y="-7" font-family="Helvetica,sans-Serif" font-size="10.00">Ioss::St_Pyramid18</text>
</a>
</g>
</g>
<!-- Node2 -->
<g id="node2" class="node">
<title>Node2</title>
<g id="a_node2"><a xlink:href="classIoss_1_1ElementVariableType.html" target="_top" xlink:title=" ">
<polygon fill="white" stroke="#666666" points="133,-75 0,-75 0,-56 133,-56 133,-75"/>
<text text-anchor="middle" x="66.5" y="-63" font-family="Helvetica,sans-Serif" font-size="10.00">Ioss::ElementVariableType</text>
</a>
</g>
</g>
<!-- Node2&#45;&gt;Node1 -->
<g id="edge1" class="edge">
<title>Node2&#45;&gt;Node1</title>
<path fill="none" stroke="#63b8ff" d="M66.5,-44.11C66.5,-35.52 66.5,-25.97 66.5,-19.25"/>
<polygon fill="#63b8ff" stroke="#63b8ff" points="63,-44.07 66.5,-54.07 70,-44.07 63,-44.07"/>
</g>
<!-- Node3 -->
<g id="node3" class="node">
<title>Node3</title>
<g id="a_node3"><a xlink:href="classIoss_1_1VariableType.html" target="_top" xlink:title="A generic variable type.">
<polygon fill="white" stroke="#666666" points="115,-131 18,-131 18,-112 115,-112 115,-131"/>
<text text-anchor="middle" x="66.5" y="-119" font-family="Helvetica,sans-Serif" font-size="10.00">Ioss::VariableType</text>
</a>
</g>
</g>
<!-- Node3&#45;&gt;Node2 -->
<g id="edge2" class="edge">
<title>Node3&#45;&gt;Node2</title>
<path fill="none" stroke="#63b8ff" d="M66.5,-100.11C66.5,-91.52 66.5,-81.97 66.5,-75.25"/>
<polygon fill="#63b8ff" stroke="#63b8ff" points="63,-100.07 66.5,-110.07 70,-100.07 63,-100.07"/>
</g>
<!-- Node4 -->
<g id="node4" class="node">
<title>Node4</title>
<g id="a_node4"><a xlink:href="classstd_1_1basic__string.html" target="_top" xlink:title=" ">
<polygon fill="white" stroke="#666666" points="121,-208 12,-208 12,-178 121,-178 121,-208"/>
<text text-anchor="start" x="20" y="-196" font-family="Helvetica,sans-Serif" font-size="10.00">std::basic_string&lt;</text>
<text text-anchor="middle" x="66.5" y="-185" font-family="Helvetica,sans-Serif" font-size="10.00"> Elem, Traits, Alloc &gt;</text>
</a>
</g>
</g>
<!-- Node4&#45;&gt;Node3 -->
<g id="edge3" class="edge">
<title>Node4&#45;&gt;Node3</title>
<path fill="none" stroke="#9a32cd" stroke-dasharray="5,2" d="M66.5,-166.46C66.5,-154.07 66.5,-139.99 66.5,-131.18"/>
<polygon fill="#9a32cd" stroke="#9a32cd" points="63,-166.09 66.5,-176.09 70,-166.09 63,-166.09"/>
<text text-anchor="middle" x="83" y="-152" font-family="Helvetica,sans-Serif" font-size="10.00"> name_</text>
</g>
</g>
</svg>
