<?xml version="1.0" encoding="UTF-8" standalone="no"?>
<!DOCTYPE svg PUBLIC "-//W3C//DTD SVG 1.1//EN"
 "http://www.w3.org/Graphics/SVG/1.1/DTD/svg11.dtd">
<!-- Generated by graphviz version 5.0.1 (20220820.1526)
 -->
<!-- Title: Iohb::DatabaseIO Pages: 1 -->
<!--zoomable 296 -->
<svg id="main" version="1.1" xmlns="http://www.w3.org/2000/svg" xmlns:xlink="http://www.w3.org/1999/xlink" xml:space="preserve" onload="init(evt)">
<style type="text/css"><![CDATA[
.edge:hover path { stroke: red; }
.edge:hover polygon { stroke: red; fill: red; }
]]></style>
<script type="text/javascript"><![CDATA[
var edges = document.getElementsByTagName('g');
if (edges && edges.length) {
  for (var i=0;i<edges.length;i++) {
    if (edges[i].id.substr(0,4)=='edge') {
      edges[i].setAttribute('class','edge');
    }
  }
}
]]></script>
        <defs>
                <circle id="rim" cx="0" cy="0" r="7"/>
                <circle id="rim2" cx="0" cy="0" r="3.5"/>
                <g id="zoomPlus">
                        <use xlink:href="#rim" fill="#404040">
                                <set attributeName="fill" to="#808080" begin="zoomplus.mouseover" end="zoomplus.mouseout"/>
                        </use>
                        <path d="M-4,0h8M0,-4v8" fill="none" stroke="white" stroke-width="1.5" pointer-events="none"/>
                </g>
                <g id="zoomMin">
                        <use xlink:href="#rim" fill="#404040">
                                <set attributeName="fill" to="#808080" begin="zoomminus.mouseover" end="zoomminus.mouseout"/>
                        </use>
                        <path d="M-4,0h8" fill="none" stroke="white" stroke-width="1.5" pointer-events="none"/>
                </g>
                <g id="dirArrow">
                        <path fill="none" stroke="white" stroke-width="1.5" d="M0,-3.0v7 M-2.5,-0.5L0,-3.0L2.5,-0.5"/>
                </g>
               <g id="resetDef">
                       <use xlink:href="#rim2" fill="#404040">
                               <set attributeName="fill" to="#808080" begin="reset.mouseover" end="reset.mouseout"/>
                       </use>
               </g>
        </defs>

<script type="text/javascript">
var viewWidth = 1808;
var viewHeight = 296;
var sectionId = 'dynsection-1';
</script>
<script xlink:href="svgpan.js"/>
<svg id="graph" class="graph">
<g id="viewport">
<title>Iohb::DatabaseIO</title>
<!-- Node1 -->
<g id="node1" class="node">
<title>Node1</title>
<g id="a_node1"><a xlink:title=" ">
<polygon fill="#999999" stroke="#666666" points="1685,-149 1591,-149 1591,-130 1685,-130 1685,-149"/>
<text text-anchor="middle" x="1638" y="-137" font-family="Helvetica,sans-Serif" font-size="10.00">Iohb::DatabaseIO</text>
</a>
</g>
</g>
<!-- Node2 -->
<g id="node2" class="node">
<title>Node2</title>
<g id="a_node2"><a xlink:href="classIoss_1_1DatabaseIO.html" target="_top" xlink:title="An input or output Database.">
<polygon fill="white" stroke="#666666" points="1497,-199 1403,-199 1403,-180 1497,-180 1497,-199"/>
<text text-anchor="middle" x="1450" y="-187" font-family="Helvetica,sans-Serif" font-size="10.00">Ioss::DatabaseIO</text>
</a>
</g>
</g>
<!-- Node2&#45;&gt;Node1 -->
<g id="edge1" class="edge">
<title>Node2&#45;&gt;Node1</title>
<path fill="none" stroke="#63b8ff" d="M1496.1,-177.38C1528.45,-168.68 1571.44,-157.12 1601.39,-149.07"/>
<polygon fill="#63b8ff" stroke="#63b8ff" points="1495.17,-174 1486.42,-179.98 1496.99,-180.76 1495.17,-174"/>
</g>
<!-- Node18 -->
<g id="node18" class="node">
<title>Node18</title>
<g id="a_node18"><a xlink:href="classIoss_1_1GroupingEntity.html" target="_top" xlink:title="Base class for all &#39;grouping&#39; entities. The following derived classes are typical:">
<polygon fill="white" stroke="#666666" points="1691,-250 1585,-250 1585,-231 1691,-231 1691,-250"/>
<text text-anchor="middle" x="1638" y="-238" font-family="Helvetica,sans-Serif" font-size="10.00">Ioss::GroupingEntity</text>
</a>
</g>
</g>
<!-- Node2&#45;&gt;Node18 -->
<g id="edge20" class="edge">
<title>Node2&#45;&gt;Node18</title>
<path fill="none" stroke="#9a32cd" stroke-dasharray="5,2" d="M1495.75,-201.77C1528.42,-210.73 1572.08,-222.7 1602.17,-230.95"/>
<polygon fill="#9a32cd" stroke="#9a32cd" points="1496.55,-198.36 1485.99,-199.09 1494.7,-205.11 1496.55,-198.36"/>
<text text-anchor="middle" x="1542.5" y="-224.5" font-family="Helvetica,sans-Serif" font-size="10.00"> database_</text>
</g>
<!-- Node3 -->
<g id="node3" class="node">
<title>Node3</title>
<g id="a_node3"><a xlink:href="classIoss_1_1PropertyManager.html" target="_top" xlink:title="A collection of Ioss::Property objects.">
<polygon fill="white" stroke="#666666" points="1264,-275 1148,-275 1148,-256 1264,-256 1264,-275"/>
<text text-anchor="middle" x="1206" y="-263" font-family="Helvetica,sans-Serif" font-size="10.00">Ioss::PropertyManager</text>
</a>
</g>
</g>
<!-- Node3&#45;&gt;Node2 -->
<g id="edge2" class="edge">
<title>Node3&#45;&gt;Node2</title>
<path fill="none" stroke="#9a32cd" stroke-dasharray="5,2" d="M1274.14,-258.35C1307.4,-253.34 1347.69,-245.04 1382,-231.5 1402.69,-223.34 1424.02,-208.68 1436.9,-199.03"/>
<polygon fill="#9a32cd" stroke="#9a32cd" points="1273.45,-254.91 1264.05,-259.8 1274.45,-261.84 1273.45,-254.91"/>
<text text-anchor="middle" x="1332" y="-259.5" font-family="Helvetica,sans-Serif" font-size="10.00"> properties</text>
</g>
<!-- Node3&#45;&gt;Node18 -->
<g id="edge18" class="edge">
<title>Node3&#45;&gt;Node18</title>
<path fill="none" stroke="#9a32cd" stroke-dasharray="5,2" d="M1274.52,-272.16C1347.45,-277.63 1466.68,-281.6 1567,-261.5 1581.18,-258.66 1596.61,-254.18 1609.37,-250.09"/>
<polygon fill="#9a32cd" stroke="#9a32cd" points="1274.35,-268.63 1264.11,-271.34 1273.8,-275.61 1274.35,-268.63"/>
<text text-anchor="middle" x="1450" y="-279.5" font-family="Helvetica,sans-Serif" font-size="10.00"> properties</text>
</g>
<!-- Node4 -->
<g id="node4" class="node">
<title>Node4</title>
<g id="a_node4"><a xlink:href="classIoss_1_1ElementTopology.html" target="_top" xlink:title="Represents an element topology.">
<polygon fill="white" stroke="#666666" points="1264,-197 1148,-197 1148,-178 1264,-178 1264,-197"/>
<text text-anchor="middle" x="1206" y="-185" font-family="Helvetica,sans-Serif" font-size="10.00">Ioss::ElementTopology</text>
</a>
</g>
</g>
<!-- Node4&#45;&gt;Node2 -->
<g id="edge3" class="edge">
<title>Node4&#45;&gt;Node2</title>
<path fill="none" stroke="#9a32cd" stroke-dasharray="5,2" d="M1274.22,-188.06C1315.18,-188.39 1366.47,-188.82 1402.87,-189.12"/>
<polygon fill="#9a32cd" stroke="#9a32cd" points="1274.07,-184.55 1264.04,-187.97 1274.01,-191.55 1274.07,-184.55"/>
<text text-anchor="middle" x="1332" y="-192.5" font-family="Helvetica,sans-Serif" font-size="10.00"> commonSideTopology</text>
</g>
<!-- Node5 -->
<g id="node5" class="node">
<title>Node5</title>
<g id="a_node5"><a xlink:href="classstd_1_1basic__string.html" target="_top" xlink:title=" ">
<polygon fill="white" stroke="#666666" points="1011,-202.5 902,-202.5 902,-172.5 1011,-172.5 1011,-202.5"/>
<text text-anchor="start" x="910" y="-190.5" font-family="Helvetica,sans-Serif" font-size="10.00">std::basic_string&lt;</text>
<text text-anchor="middle" x="956.5" y="-179.5" font-family="Helvetica,sans-Serif" font-size="10.00"> Elem, Traits, Alloc &gt;</text>
</a>
</g>
</g>
<!-- Node5&#45;&gt;Node4 -->
<g id="edge4" class="edge">
<title>Node5&#45;&gt;Node4</title>
<path fill="none" stroke="#9a32cd" stroke-dasharray="5,2" d="M1021.42,-187.5C1060.54,-187.5 1110.17,-187.5 1147.96,-187.5"/>
<polygon fill="#9a32cd" stroke="#9a32cd" points="1021.2,-184 1011.2,-187.5 1021.2,-191 1021.2,-184"/>
<text text-anchor="middle" x="1079.5" y="-201.5" font-family="Helvetica,sans-Serif" font-size="10.00"> masterElementName_</text>
<text text-anchor="middle" x="1079.5" y="-190.5" font-family="Helvetica,sans-Serif" font-size="10.00">name_</text>
</g>
<!-- Node6 -->
<g id="node6" class="node">
<title>Node6</title>
<g id="a_node6"><a xlink:href="classIoss_1_1Map.html" target="_top" xlink:title=" ">
<polygon fill="white" stroke="#666666" points="1236,-132 1176,-132 1176,-113 1236,-113 1236,-132"/>
<text text-anchor="middle" x="1206" y="-120" font-family="Helvetica,sans-Serif" font-size="10.00">Ioss::Map</text>
</a>
</g>
</g>
<!-- Node6&#45;&gt;Node2 -->
<g id="edge5" class="edge">
<title>Node6&#45;&gt;Node2</title>
<path fill="none" stroke="#9a32cd" stroke-dasharray="5,2" d="M1246.42,-118.73C1283.44,-116.94 1339.38,-118.84 1382,-140.5 1392.66,-145.92 1390.75,-152.92 1400,-160.5 1409.02,-167.89 1420.14,-174.63 1429.5,-179.75"/>
<polygon fill="#9a32cd" stroke="#9a32cd" points="1245.81,-115.26 1236.03,-119.35 1246.23,-122.25 1245.81,-115.26"/>
<text text-anchor="middle" x="1332" y="-176.5" font-family="Helvetica,sans-Serif" font-size="10.00"> edgeMap</text>
<text text-anchor="middle" x="1332" y="-165.5" font-family="Helvetica,sans-Serif" font-size="10.00">elemMap</text>
<text text-anchor="middle" x="1332" y="-154.5" font-family="Helvetica,sans-Serif" font-size="10.00">faceMap</text>
<text text-anchor="middle" x="1332" y="-143.5" font-family="Helvetica,sans-Serif" font-size="10.00">nodeMap</text>
</g>
<!-- Node7 -->
<g id="node7" class="node">
<title>Node7</title>
<g id="a_node7"><a xlink:href="classtsl_1_1bhopscotch__map.html" target="_top" xlink:title=" ">
<polygon fill="white" stroke="#666666" points="1010,-137.5 903,-137.5 903,-107.5 1010,-107.5 1010,-137.5"/>
<text text-anchor="start" x="911" y="-125.5" font-family="Helvetica,sans-Serif" font-size="10.00">tsl::bhopscotch_map</text>
<text text-anchor="middle" x="956.5" y="-114.5" font-family="Helvetica,sans-Serif" font-size="10.00">&lt; int64_t, int64_t &gt;</text>
</a>
</g>
</g>
<!-- Node7&#45;&gt;Node6 -->
<g id="edge6" class="edge">
<title>Node7&#45;&gt;Node6</title>
<path fill="none" stroke="#9a32cd" stroke-dasharray="5,2" d="M1020.35,-122.5C1070.28,-122.5 1137.84,-122.5 1175.86,-122.5"/>
<polygon fill="#9a32cd" stroke="#9a32cd" points="1020.29,-119 1010.29,-122.5 1020.29,-126 1020.29,-119"/>
<text text-anchor="middle" x="1079.5" y="-125.5" font-family="Helvetica,sans-Serif" font-size="10.00"> m_reverse</text>
</g>
<!-- Node8 -->
<g id="node8" class="node">
<title>Node8</title>
<g id="a_node8"><a xlink:href="classtsl_1_1detail__hopscotch__hash_1_1hopscotch__hash.html" target="_top" xlink:title=" ">
<polygon fill="white" stroke="#666666" points="841,-187 676,-187 676,-58 841,-58 841,-187"/>
<text text-anchor="start" x="684" y="-175" font-family="Helvetica,sans-Serif" font-size="10.00">tsl::detail_hopscotch</text>
<text text-anchor="start" x="684" y="-164" font-family="Helvetica,sans-Serif" font-size="10.00">_hash::hopscotch_hash</text>
<text text-anchor="start" x="684" y="-153" font-family="Helvetica,sans-Serif" font-size="10.00">&lt; std::pair&lt; const int64</text>
<text text-anchor="start" x="684" y="-142" font-family="Helvetica,sans-Serif" font-size="10.00">_t, int64_t &gt;, KeySelect,</text>
<text text-anchor="start" x="684" y="-131" font-family="Helvetica,sans-Serif" font-size="10.00"> ValueSelect, std::hash&lt;</text>
<text text-anchor="start" x="684" y="-120" font-family="Helvetica,sans-Serif" font-size="10.00"> int64_t &gt;, std::equal_to</text>
<text text-anchor="start" x="684" y="-109" font-family="Helvetica,sans-Serif" font-size="10.00">&lt; int64_t &gt;, std::allocator</text>
<text text-anchor="start" x="684" y="-98" font-family="Helvetica,sans-Serif" font-size="10.00">&lt; std::pair&lt; const int64_t,</text>
<text text-anchor="start" x="684" y="-87" font-family="Helvetica,sans-Serif" font-size="10.00"> int64_t &gt; &gt;, 62, false, tsl</text>
<text text-anchor="start" x="684" y="-76" font-family="Helvetica,sans-Serif" font-size="10.00">::hh::power_of_two_growth_policy</text>
<text text-anchor="middle" x="758.5" y="-65" font-family="Helvetica,sans-Serif" font-size="10.00">&lt; 2 &gt;, overflow_container_type &gt;</text>
</a>
</g>
</g>
<!-- Node8&#45;&gt;Node7 -->
<g id="edge7" class="edge">
<title>Node8&#45;&gt;Node7</title>
<path fill="none" stroke="#9a32cd" stroke-dasharray="5,2" d="M851.5,-122.5C869.08,-122.5 886.91,-122.5 902.73,-122.5"/>
<polygon fill="#9a32cd" stroke="#9a32cd" points="851.2,-119 841.2,-122.5 851.2,-126 851.2,-119"/>
<text text-anchor="middle" x="871.5" y="-125.5" font-family="Helvetica,sans-Serif" font-size="10.00"> m_ht</text>
</g>
<!-- Node9 -->
<g id="node9" class="node">
<title>Node9</title>
<g id="a_node9"><a xlink:title=" ">
<polygon fill="white" stroke="#666666" points="508.5,-212 404.5,-212 404.5,-193 508.5,-193 508.5,-212"/>
<text text-anchor="middle" x="456.5" y="-200" font-family="Helvetica,sans-Serif" font-size="10.00">std::hash&lt; int64_t &gt;</text>
</a>
</g>
</g>
<!-- Node9&#45;&gt;Node8 -->
<g id="edge8" class="edge">
<title>Node9&#45;&gt;Node8</title>
<path fill="none" stroke="#8b1a1a" d="M518.56,-191.79C558.58,-184.18 611.84,-172.96 658,-159.5 663.84,-157.8 669.83,-155.92 675.83,-153.94"/>
<polygon fill="#8b1a1a" stroke="#8b1a1a" points="517.87,-188.35 508.69,-193.64 519.16,-195.23 517.87,-188.35"/>
</g>
<!-- Node10 -->
<g id="node10" class="node">
<title>Node10</title>
<g id="a_node10"><a xlink:title=" ">
<polygon fill="white" stroke="#666666" points="516.5,-175 396.5,-175 396.5,-156 516.5,-156 516.5,-175"/>
<text text-anchor="middle" x="456.5" y="-163" font-family="Helvetica,sans-Serif" font-size="10.00">std::equal_to&lt; int64_t &gt;</text>
</a>
</g>
</g>
<!-- Node10&#45;&gt;Node8 -->
<g id="edge9" class="edge">
<title>Node10&#45;&gt;Node8</title>
<path fill="none" stroke="#8b1a1a" d="M526.9,-155.55C571.37,-149.18 629.27,-140.88 675.92,-134.19"/>
<polygon fill="#8b1a1a" stroke="#8b1a1a" points="526.17,-152.12 516.77,-157 527.17,-159.05 526.17,-152.12"/>
</g>
<!-- Node11 -->
<g id="node11" class="node">
<title>Node11</title>
<g id="a_node11"><a xlink:href="classtsl_1_1hh_1_1power__of__two__growth__policy.html" target="_top" xlink:title=" ">
<polygon fill="white" stroke="#666666" points="511.5,-137.5 401.5,-137.5 401.5,-107.5 511.5,-107.5 511.5,-137.5"/>
<text text-anchor="start" x="409.5" y="-125.5" font-family="Helvetica,sans-Serif" font-size="10.00">tsl::hh::power_of_two</text>
<text text-anchor="middle" x="456.5" y="-114.5" font-family="Helvetica,sans-Serif" font-size="10.00">_growth_policy&lt; 2 &gt;</text>
</a>
</g>
</g>
<!-- Node11&#45;&gt;Node8 -->
<g id="edge10" class="edge">
<title>Node11&#45;&gt;Node8</title>
<path fill="none" stroke="#8b1a1a" d="M522.05,-122.5C567.07,-122.5 627.5,-122.5 675.86,-122.5"/>
<polygon fill="#8b1a1a" stroke="#8b1a1a" points="521.83,-119 511.83,-122.5 521.83,-126 521.83,-119"/>
</g>
<!-- Node12 -->
<g id="node12" class="node">
<title>Node12</title>
<g id="a_node12"><a xlink:href="classtsl_1_1detail__hopscotch__hash_1_1hopscotch__bucket.html" target="_top" xlink:title=" ">
<polygon fill="white" stroke="#666666" points="536,-89.5 377,-89.5 377,-37.5 536,-37.5 536,-89.5"/>
<text text-anchor="start" x="385" y="-77.5" font-family="Helvetica,sans-Serif" font-size="10.00">tsl::detail_hopscotch</text>
<text text-anchor="start" x="385" y="-66.5" font-family="Helvetica,sans-Serif" font-size="10.00">_hash::hopscotch_bucket</text>
<text text-anchor="start" x="385" y="-55.5" font-family="Helvetica,sans-Serif" font-size="10.00">&lt; ValueType, NeighborhoodSize,</text>
<text text-anchor="middle" x="456.5" y="-44.5" font-family="Helvetica,sans-Serif" font-size="10.00"> StoreHash &gt;</text>
</a>
</g>
</g>
<!-- Node12&#45;&gt;Node8 -->
<g id="edge11" class="edge">
<title>Node12&#45;&gt;Node8</title>
<path fill="none" stroke="#9a32cd" stroke-dasharray="5,2" d="M546.31,-80.97C587.32,-89.03 635.7,-98.55 675.81,-106.43"/>
<polygon fill="#9a32cd" stroke="#9a32cd" points="546.81,-77.5 536.32,-79 545.46,-84.37 546.81,-77.5"/>
<text text-anchor="middle" x="606" y="-105.5" font-family="Helvetica,sans-Serif" font-size="10.00"> m_buckets</text>
</g>
<!-- Node13 -->
<g id="node13" class="node">
<title>Node13</title>
<g id="a_node13"><a xlink:href="classtsl_1_1detail__hopscotch__hash_1_1hopscotch__bucket__hash.html" target="_top" xlink:title=" ">
<polygon fill="white" stroke="#666666" points="184,-116 56,-116 56,-75 184,-75 184,-116"/>
<text text-anchor="start" x="64" y="-104" font-family="Helvetica,sans-Serif" font-size="10.00">tsl::detail_hopscotch</text>
<text text-anchor="start" x="64" y="-93" font-family="Helvetica,sans-Serif" font-size="10.00">_hash::hopscotch_bucket</text>
<text text-anchor="middle" x="120" y="-82" font-family="Helvetica,sans-Serif" font-size="10.00">_hash&lt; StoreHash &gt;</text>
</a>
</g>
</g>
<!-- Node13&#45;&gt;Node12 -->
<g id="edge12" class="edge">
<title>Node13&#45;&gt;Node12</title>
<path fill="none" stroke="#63b8ff" d="M194.5,-88.47C248.46,-83.31 321.67,-76.3 376.82,-71.03"/>
<polygon fill="#63b8ff" stroke="#63b8ff" points="193.93,-85.01 184.31,-89.44 194.6,-91.98 193.93,-85.01"/>
</g>
<!-- Node14 -->
<g id="node14" class="node">
<title>Node14</title>
<g id="a_node14"><a xlink:href="classtsl_1_1detail__hopscotch__hash_1_1smallest__type__for__min__bits.html" target="_top" xlink:title=" ">
<polygon fill="white" stroke="#666666" points="240,-56.5 0,-56.5 0,-4.5 240,-4.5 240,-56.5"/>
<text text-anchor="start" x="8" y="-44.5" font-family="Helvetica,sans-Serif" font-size="10.00">tsl::detail_hopscotch</text>
<text text-anchor="start" x="8" y="-33.5" font-family="Helvetica,sans-Serif" font-size="10.00">_hash::smallest_type</text>
<text text-anchor="start" x="8" y="-22.5" font-family="Helvetica,sans-Serif" font-size="10.00">_for_min_bits&lt; NeighborhoodSize</text>
<text text-anchor="middle" x="120" y="-11.5" font-family="Helvetica,sans-Serif" font-size="10.00">+NB_RESERVED_BITS_IN_NEIGHBORHOOD &gt;</text>
</a>
</g>
</g>
<!-- Node14&#45;&gt;Node12 -->
<g id="edge13" class="edge">
<title>Node14&#45;&gt;Node12</title>
<path fill="none" stroke="#9a32cd" stroke-dasharray="5,2" d="M250.53,-43.28C293.2,-47.49 339.32,-52.04 376.99,-55.75"/>
<polygon fill="#9a32cd" stroke="#9a32cd" points="250.64,-39.77 240.35,-42.27 249.95,-46.74 250.64,-39.77"/>
<text text-anchor="middle" x="308.5" y="-57.5" font-family="Helvetica,sans-Serif" font-size="10.00"> m_neighborhood_infos</text>
</g>
<!-- Node15 -->
<g id="node15" class="node">
<title>Node15</title>
<g id="a_node15"><a xlink:title=" ">
<polygon fill="white" stroke="#666666" points="478,-19 435,-19 435,0 478,0 478,-19"/>
<text text-anchor="middle" x="456.5" y="-7" font-family="Helvetica,sans-Serif" font-size="10.00">size_t</text>
</a>
</g>
</g>
<!-- Node15&#45;&gt;Node8 -->
<g id="edge14" class="edge">
<title>Node15&#45;&gt;Node8</title>
<path fill="none" stroke="#9a32cd" stroke-dasharray="5,2" d="M488.4,-5.46C529.22,-1.5 602.42,0.74 658,-24.5 675.33,-32.37 691.39,-44.63 705.32,-57.84"/>
<polygon fill="#9a32cd" stroke="#9a32cd" points="487.84,-2 478.27,-6.54 488.58,-8.96 487.84,-2"/>
<text text-anchor="start" x="554" y="-71.5" font-family="Helvetica,sans-Serif" font-size="10.00"> m_max_load_threshold</text>
<text text-anchor="middle" x="606" y="-60.5" font-family="Helvetica,sans-Serif" font-size="10.00">_rehash</text>
<text text-anchor="start" x="554" y="-49.5" font-family="Helvetica,sans-Serif" font-size="10.00">m_min_load_threshold</text>
<text text-anchor="middle" x="606" y="-38.5" font-family="Helvetica,sans-Serif" font-size="10.00">_rehash</text>
<text text-anchor="middle" x="606" y="-27.5" font-family="Helvetica,sans-Serif" font-size="10.00">m_nb_elements</text>
</g>
<!-- Node16 -->
<g id="node16" class="node">
<title>Node16</title>
<g id="a_node16"><a xlink:href="classIoss_1_1ParallelUtils.html" target="_top" xlink:title=" ">
<polygon fill="white" stroke="#666666" points="1253,-234 1159,-234 1159,-215 1253,-215 1253,-234"/>
<text text-anchor="middle" x="1206" y="-222" font-family="Helvetica,sans-Serif" font-size="10.00">Ioss::ParallelUtils</text>
</a>
</g>
</g>
<!-- Node16&#45;&gt;Node2 -->
<g id="edge15" class="edge">
<title>Node16&#45;&gt;Node2</title>
<path fill="none" stroke="#9a32cd" stroke-dasharray="5,2" d="M1263.49,-218.37C1297.83,-214.4 1342.54,-208.8 1382,-202.5 1388.79,-201.42 1395.94,-200.16 1402.94,-198.86"/>
<polygon fill="#9a32cd" stroke="#9a32cd" points="1262.71,-214.93 1253.18,-219.54 1263.51,-221.89 1262.71,-214.93"/>
<text text-anchor="middle" x="1332" y="-219.5" font-family="Helvetica,sans-Serif" font-size="10.00"> util_</text>
</g>
<!-- Node17 -->
<g id="node17" class="node">
<title>Node17</title>
<g id="a_node17"><a xlink:href="classIoss_1_1Region.html" target="_top" xlink:title="A grouping entity that contains other grouping entities.">
<polygon fill="white" stroke="#666666" points="1800,-209 1728,-209 1728,-190 1800,-190 1800,-209"/>
<text text-anchor="middle" x="1764" y="-197" font-family="Helvetica,sans-Serif" font-size="10.00">Ioss::Region</text>
</a>
</g>
</g>
<!-- Node17&#45;&gt;Node2 -->
<g id="edge16" class="edge">
<title>Node17&#45;&gt;Node2</title>
<path fill="none" stroke="#9a32cd" stroke-dasharray="5,2" d="M1717.78,-198.05C1658.86,-196.16 1556.36,-192.88 1497.04,-190.98"/>
<polygon fill="#9a32cd" stroke="#9a32cd" points="1717.8,-201.55 1727.91,-198.38 1718.02,-194.56 1717.8,-201.55"/>
<text text-anchor="middle" x="1638" y="-200.5" font-family="Helvetica,sans-Serif" font-size="10.00"> region_</text>
</g>
<!-- Node18&#45;&gt;Node17 -->
<g id="edge17" class="edge">
<title>Node18&#45;&gt;Node17</title>
<path fill="none" stroke="#63b8ff" d="M1677.26,-227.85C1695.53,-221.81 1717.06,-214.69 1733.97,-209.1"/>
<polygon fill="#63b8ff" stroke="#63b8ff" points="1676.16,-224.53 1667.76,-230.99 1678.35,-231.17 1676.16,-224.53"/>
</g>
<!-- Node19 -->
<g id="node19" class="node">
<title>Node19</title>
<g id="a_node19"><a xlink:href="classIoss_1_1FieldManager.html" target="_top" xlink:title="A collection of Ioss::Field objects.">
<polygon fill="white" stroke="#666666" points="1500,-259 1400,-259 1400,-240 1500,-240 1500,-259"/>
<text text-anchor="middle" x="1450" y="-247" font-family="Helvetica,sans-Serif" font-size="10.00">Ioss::FieldManager</text>
</a>
</g>
</g>
<!-- Node19&#45;&gt;Node18 -->
<g id="edge19" class="edge">
<title>Node19&#45;&gt;Node18</title>
<path fill="none" stroke="#9a32cd" stroke-dasharray="5,2" d="M1510.38,-246.63C1534.3,-245.47 1561.66,-244.15 1584.81,-243.03"/>
<polygon fill="#9a32cd" stroke="#9a32cd" points="1510.18,-243.13 1500.36,-247.11 1510.51,-250.12 1510.18,-243.13"/>
<text text-anchor="middle" x="1542.5" y="-249.5" font-family="Helvetica,sans-Serif" font-size="10.00"> fields</text>
</g>
<!-- Node20 -->
<g id="node20" class="node">
<title>Node20</title>
<g id="a_node20"><a xlink:href="classstd_1_1basic__ostream.html" target="_top" xlink:title=" ">
<polygon fill="white" stroke="#666666" points="1500,-151.5 1400,-151.5 1400,-121.5 1500,-121.5 1500,-151.5"/>
<text text-anchor="start" x="1408" y="-139.5" font-family="Helvetica,sans-Serif" font-size="10.00">std::basic_ostream</text>
<text text-anchor="middle" x="1450" y="-128.5" font-family="Helvetica,sans-Serif" font-size="10.00">&lt; charT, traits &gt;</text>
</a>
</g>
</g>
<!-- Node20&#45;&gt;Node1 -->
<g id="edge21" class="edge">
<title>Node20&#45;&gt;Node1</title>
<path fill="none" stroke="#9a32cd" stroke-dasharray="5,2" d="M1510.29,-136.78C1528.48,-136.93 1548.57,-137.16 1567,-137.5 1574.66,-137.64 1582.79,-137.84 1590.69,-138.05"/>
<polygon fill="#9a32cd" stroke="#9a32cd" points="1510.13,-133.28 1500.11,-136.71 1510.08,-140.28 1510.13,-133.28"/>
<text text-anchor="middle" x="1542.5" y="-140.5" font-family="Helvetica,sans-Serif" font-size="10.00"> logStream</text>
</g>
</g>
</svg>
        <g id="navigator" transform="translate(0 0)" fill="#404254">
                <rect fill="#f2f5e9" fill-opacity="0.5" stroke="#606060" stroke-width=".5" x="0" y="0" width="60" height="60"/>
                <use id="zoomplus" xlink:href="#zoomPlus" x="17" y="9" onmousedown="handleZoom(evt,'in')"/>
                <use id="zoomminus" xlink:href="#zoomMin" x="42" y="9" onmousedown="handleZoom(evt,'out')"/>
                <use id="reset" xlink:href="#resetDef" x="30" y="36" onmousedown="handleReset()"/>
                <g id="arrowUp" xlink:href="#dirArrow" transform="translate(30 24)" onmousedown="handlePan(0,-1)">
                  <use xlink:href="#rim" fill="#404040">
                        <set attributeName="fill" to="#808080" begin="arrowUp.mouseover" end="arrowUp.mouseout"/>
                  </use>
                  <path fill="none" stroke="white" stroke-width="1.5" d="M0,-3.0v7 M-2.5,-0.5L0,-3.0L2.5,-0.5"/>
                </g>
                <g id="arrowRight" xlink:href="#dirArrow" transform="rotate(90) translate(36 -43)" onmousedown="handlePan(1,0)">
                  <use xlink:href="#rim" fill="#404040">
                        <set attributeName="fill" to="#808080" begin="arrowRight.mouseover" end="arrowRight.mouseout"/>
                  </use>
                  <path fill="none" stroke="white" stroke-width="1.5" d="M0,-3.0v7 M-2.5,-0.5L0,-3.0L2.5,-0.5"/>
                </g>
                <g id="arrowDown" xlink:href="#dirArrow" transform="rotate(180) translate(-30 -48)" onmousedown="handlePan(0,1)">
                  <use xlink:href="#rim" fill="#404040">
                        <set attributeName="fill" to="#808080" begin="arrowDown.mouseover" end="arrowDown.mouseout"/>
                  </use>
                  <path fill="none" stroke="white" stroke-width="1.5" d="M0,-3.0v7 M-2.5,-0.5L0,-3.0L2.5,-0.5"/>
                </g>
                <g id="arrowLeft" xlink:href="#dirArrow" transform="rotate(270) translate(-36 17)" onmousedown="handlePan(-1,0)">
                  <use xlink:href="#rim" fill="#404040">
                        <set attributeName="fill" to="#808080" begin="arrowLeft.mouseover" end="arrowLeft.mouseout"/>
                  </use>
                  <path fill="none" stroke="white" stroke-width="1.5" d="M0,-3.0v7 M-2.5,-0.5L0,-3.0L2.5,-0.5"/>
                </g>
        </g>
        <svg viewBox="0 0 15 15" width="100%" height="30px" preserveAspectRatio="xMaxYMin meet">
         <g id="arrow_out" transform="scale(0.3 0.3)">
          <a xlink:href="classIohb_1_1DatabaseIO__coll__graph_org.svg" target="_base">
           <rect id="button" ry="5" rx="5" y="6" x="6" height="38" width="38"
                fill="#f2f5e9" fill-opacity="0.5" stroke="#606060" stroke-width="1.0"/>
           <path id="arrow"
             d="M 11.500037,31.436501 C 11.940474,20.09759 22.043105,11.32322 32.158766,21.979434 L 37.068811,17.246167 C 37.068811,17.246167 37.088388,32 37.088388,32 L 22.160133,31.978069 C 22.160133,31.978069 26.997745,27.140456 26.997745,27.140456 C 18.528582,18.264221 13.291696,25.230495 11.500037,31.436501 z"
             style="fill:#404040;"/>
          </a>
         </g>
        </svg>
</svg>
