<?xml version="1.0" encoding="UTF-8" standalone="no"?>
<!DOCTYPE svg PUBLIC "-//W3C//DTD SVG 1.1//EN"
 "http://www.w3.org/Graphics/SVG/1.1/DTD/svg11.dtd">
<!-- Generated by graphviz version 12.2.1 (20241206.2353)
 -->
<!-- Title: Iotm::text_mesh::TextMeshOptionParser&lt; EntityId, Topology &gt; Pages: 1 -->
<svg width="810pt" height="82pt"
 viewBox="0.00 0.00 809.50 81.50" xmlns="http://www.w3.org/2000/svg" xmlns:xlink="http://www.w3.org/1999/xlink">
<g id="graph0" class="graph" transform="scale(1 1) rotate(0) translate(4 77.5)">
<title>Iotm::text_mesh::TextMeshOptionParser&lt; EntityId, Topology &gt;</title>
<!-- Node1 -->
<g id="Node000001" class="node">
<title>Node1</title>
<g id="a_Node000001"><a xlink:title=" ">
<polygon fill="#999999" stroke="#666666" points="801.5,-63.75 665.5,-63.75 665.5,-22 801.5,-22 801.5,-63.75"/>
<text text-anchor="start" x="673.5" y="-50.25" font-family="Helvetica,sans-Serif" font-size="10.00">Iotm::text_mesh::TextMesh</text>
<text text-anchor="start" x="673.5" y="-39" font-family="Helvetica,sans-Serif" font-size="10.00">OptionParser&lt; EntityId,</text>
<text text-anchor="middle" x="733.5" y="-27.75" font-family="Helvetica,sans-Serif" font-size="10.00"> Topology &gt;</text>
</a>
</g>
</g>
<!-- Node2 -->
<g id="Node000002" class="node">
<title>Node2</title>
<g id="a_Node000002"><a xlink:href="structIotm_1_1text__mesh_1_1TextMeshData.html" target="_top" xlink:title=" ">
<polygon fill="white" stroke="#666666" points="591.25,-63.75 441,-63.75 441,-22 591.25,-22 591.25,-63.75"/>
<text text-anchor="start" x="449" y="-50.25" font-family="Helvetica,sans-Serif" font-size="10.00">Iotm::text_mesh::TextMesh</text>
<text text-anchor="start" x="449" y="-39" font-family="Helvetica,sans-Serif" font-size="10.00">Data&lt; EntityId, Iotm::Topology</text>
<text text-anchor="middle" x="516.12" y="-27.75" font-family="Helvetica,sans-Serif" font-size="10.00">MapEntry &gt;</text>
</a>
</g>
</g>
<!-- Node2&#45;&gt;Node1 -->
<g id="edge1_Node000001_Node000002" class="edge">
<title>Node2&#45;&gt;Node1</title>
<g id="a_edge1_Node000001_Node000002"><a xlink:title=" ">
<path fill="none" stroke="#9a32cd" stroke-dasharray="5,2" d="M602.93,-42.88C623.67,-42.88 645.54,-42.88 665.29,-42.88"/>
<polygon fill="#9a32cd" stroke="#9a32cd" points="603.06,-39.38 593.06,-42.88 603.06,-46.38 603.06,-39.38"/>
</a>
</g>
<text text-anchor="start" x="612.25" y="-47.62" font-family="Helvetica,sans-Serif" font-size="10.00" fill="grey">m_data</text>
</g>
<!-- Node3 -->
<g id="Node000003" class="node">
<title>Node3</title>
<g id="a_Node000003"><a xlink:href="classIotm_1_1text__mesh_1_1PartIdMapping.html" target="_top" xlink:title=" ">
<polygon fill="white" stroke="#666666" points="350.25,-73.5 194,-73.5 194,-54.25 350.25,-54.25 350.25,-73.5"/>
<text text-anchor="middle" x="272.12" y="-60" font-family="Helvetica,sans-Serif" font-size="10.00">Iotm::text_mesh::PartIdMapping</text>
</a>
</g>
</g>
<!-- Node3&#45;&gt;Node2 -->
<g id="edge2_Node000002_Node000003" class="edge">
<title>Node3&#45;&gt;Node2</title>
<g id="a_edge2_Node000002_Node000003"><a xlink:title=" ">
<path fill="none" stroke="#9a32cd" stroke-dasharray="5,2" d="M362.04,-56.16C387.95,-53.91 415.98,-51.48 440.88,-49.32"/>
<polygon fill="#9a32cd" stroke="#9a32cd" points="361.86,-52.66 352.2,-57.01 362.47,-59.64 361.86,-52.66"/>
</a>
</g>
<text text-anchor="start" x="386.62" y="-58.75" font-family="Helvetica,sans-Serif" font-size="10.00" fill="grey">partIds</text>
</g>
<!-- Node4 -->
<g id="Node000004" class="node">
<title>Node4</title>
<g id="a_Node000004"><a xlink:href="classIotm_1_1text__mesh_1_1Sidesets.html" target="_top" xlink:title=" ">
<polygon fill="white" stroke="#666666" points="362.25,-36.12 182,-36.12 182,-5.62 362.25,-5.62 362.25,-36.12"/>
<text text-anchor="start" x="190" y="-22.62" font-family="Helvetica,sans-Serif" font-size="10.00">Iotm::text_mesh::Sidesets</text>
<text text-anchor="middle" x="272.12" y="-11.38" font-family="Helvetica,sans-Serif" font-size="10.00">&lt; EntityId, Iotm::TopologyMapEntry &gt;</text>
</a>
</g>
</g>
<!-- Node4&#45;&gt;Node2 -->
<g id="edge3_Node000002_Node000004" class="edge">
<title>Node4&#45;&gt;Node2</title>
<g id="a_edge3_Node000002_Node000004"><a xlink:title=" ">
<path fill="none" stroke="#9a32cd" stroke-dasharray="5,2" d="M373.71,-25.57C390.2,-26.68 407.09,-28.02 423,-29.62 428.71,-30.2 434.6,-30.87 440.53,-31.6"/>
<polygon fill="#9a32cd" stroke="#9a32cd" points="374.1,-22.09 363.89,-24.94 373.65,-29.08 374.1,-22.09"/>
</a>
</g>
<text text-anchor="start" x="383.25" y="-34.38" font-family="Helvetica,sans-Serif" font-size="10.00" fill="grey">sidesets</text>
</g>
<!-- Node5 -->
<g id="Node000005" class="node">
<title>Node5</title>
<g id="a_Node000005"><a xlink:href="classIotm_1_1text__mesh_1_1EntityGroup.html" target="_top" xlink:title=" ">
<polygon fill="white" stroke="#666666" points="145,-41.75 0,-41.75 0,0 145,0 145,-41.75"/>
<text text-anchor="start" x="8" y="-28.25" font-family="Helvetica,sans-Serif" font-size="10.00">Iotm::text_mesh::EntityGroup</text>
<text text-anchor="start" x="8" y="-17" font-family="Helvetica,sans-Serif" font-size="10.00">&lt; SidesetData&lt; EntityId,</text>
<text text-anchor="middle" x="72.5" y="-5.75" font-family="Helvetica,sans-Serif" font-size="10.00"> Iotm::TopologyMapEntry &gt; &gt;</text>
</a>
</g>
</g>
<!-- Node5&#45;&gt;Node4 -->
<g id="edge4_Node000004_Node000005" class="edge">
<title>Node5&#45;&gt;Node4</title>
<g id="a_edge4_Node000004_Node000005"><a xlink:title=" ">
<path fill="none" stroke="#63b8ff" d="M156.9,-20.88C165.12,-20.88 173.48,-20.88 181.75,-20.88"/>
<polygon fill="#63b8ff" stroke="#63b8ff" points="156.92,-17.38 146.92,-20.88 156.92,-24.38 156.92,-17.38"/>
</a>
</g>
</g>
</g>
</svg>
