<?xml version="1.0" encoding="UTF-8" standalone="no"?>
<!DOCTYPE svg PUBLIC "-//W3C//DTD SVG 1.1//EN"
 "http://www.w3.org/Graphics/SVG/1.1/DTD/svg11.dtd">
<!-- Generated by graphviz version 11.0.0 (20240428.1522)
 -->
<!-- Title: Ioss::Region Pages: 1 -->
<svg width="1433pt" height="386pt"
 viewBox="0.00 0.00 1432.75 386.25" xmlns="http://www.w3.org/2000/svg" xmlns:xlink="http://www.w3.org/1999/xlink">
<g id="graph0" class="graph" transform="scale(1 1) rotate(0) translate(4 382.25)">
<title>Ioss::Region</title>
<!-- Node1 -->
<g id="Node000001" class="node">
<title>Node1</title>
<g id="a_Node000001"><a xlink:title="A grouping entity that contains other grouping entities.">
<polygon fill="#999999" stroke="#666666" points="984.88,-378.25 913.38,-378.25 913.38,-359 984.88,-359 984.88,-378.25"/>
<text text-anchor="middle" x="949.12" y="-364.75" font-family="Helvetica,sans-Serif" font-size="10.00">Ioss::Region</text>
</a>
</g>
</g>
<!-- Node14 -->
<g id="Node000014" class="node">
<title>Node14</title>
<g id="a_Node000014"><a xlink:href="classIoss_1_1DatabaseIO.html" target="_top" xlink:title="An input or output Database.">
<polygon fill="white" stroke="#666666" points="1235.5,-261.25 1142.25,-261.25 1142.25,-242 1235.5,-242 1235.5,-261.25"/>
<text text-anchor="middle" x="1188.88" y="-247.75" font-family="Helvetica,sans-Serif" font-size="10.00">Ioss::DatabaseIO</text>
</a>
</g>
</g>
<!-- Node1&#45;&gt;Node14 -->
<g id="edge22_Node000014_Node000001" class="edge">
<title>Node1&#45;&gt;Node14</title>
<g id="a_edge22_Node000014_Node000001"><a xlink:title=" ">
<path fill="none" stroke="#9a32cd" stroke-dasharray="5,2" d="M996.14,-359.65C1043.96,-350.06 1113.35,-335.36 1124.25,-328.62 1151.84,-311.59 1173.07,-278.36 1182.51,-261.68"/>
<polygon fill="#9a32cd" stroke="#9a32cd" points="995.71,-356.16 986.58,-361.55 997.07,-363.03 995.71,-356.16"/>
</a>
</g>
<text text-anchor="middle" x="1074.62" y="-354.38" font-family="Helvetica,sans-Serif" font-size="10.00" fill="grey"> region_</text>
</g>
<!-- Node2 -->
<g id="Node000002" class="node">
<title>Node2</title>
<g id="a_Node000002"><a xlink:href="classIoss_1_1GroupingEntity.html" target="_top" xlink:title="Base class for all &#39;grouping&#39; entities. The following derived classes are typical:">
<polygon fill="white" stroke="#666666" points="1424.75,-193.25 1319.5,-193.25 1319.5,-174 1424.75,-174 1424.75,-193.25"/>
<text text-anchor="middle" x="1372.12" y="-179.75" font-family="Helvetica,sans-Serif" font-size="10.00">Ioss::GroupingEntity</text>
</a>
</g>
</g>
<!-- Node2&#45;&gt;Node1 -->
<g id="edge1_Node000001_Node000002" class="edge">
<title>Node2&#45;&gt;Node1</title>
<g id="a_edge1_Node000001_Node000002"><a xlink:title=" ">
<path fill="none" stroke="#63b8ff" d="M1354.88,-201.81C1318.38,-241.13 1225.12,-333.1 1124.25,-365.62 1077.92,-380.56 1021,-377.9 985.12,-373.86"/>
<polygon fill="#63b8ff" stroke="#63b8ff" points="1357.36,-204.29 1361.52,-194.55 1352.19,-199.57 1357.36,-204.29"/>
</a>
</g>
</g>
<!-- Node3 -->
<g id="Node000003" class="node">
<title>Node3</title>
<g id="a_Node000003"><a xlink:href="classIoss_1_1PropertyManager.html" target="_top" xlink:title="A collection of Ioss::Property objects.">
<polygon fill="white" stroke="#666666" points="1006.62,-190.25 891.62,-190.25 891.62,-171 1006.62,-171 1006.62,-190.25"/>
<text text-anchor="middle" x="949.12" y="-176.75" font-family="Helvetica,sans-Serif" font-size="10.00">Ioss::PropertyManager</text>
</a>
</g>
</g>
<!-- Node3&#45;&gt;Node2 -->
<g id="edge2_Node000002_Node000003" class="edge">
<title>Node3&#45;&gt;Node2</title>
<g id="a_edge2_Node000002_Node000003"><a xlink:title=" ">
<path fill="none" stroke="#9a32cd" stroke-dasharray="5,2" d="M1018.27,-169.24C1020.54,-169.01 1022.79,-168.8 1025,-168.62 1129.18,-160.33 1251.38,-170.2 1319.16,-177.41"/>
<polygon fill="#9a32cd" stroke="#9a32cd" points="1017.87,-165.76 1008.34,-170.39 1018.68,-172.71 1017.87,-165.76"/>
</a>
</g>
<text text-anchor="middle" x="1188.88" y="-171.38" font-family="Helvetica,sans-Serif" font-size="10.00" fill="grey"> properties</text>
</g>
<!-- Node3&#45;&gt;Node14 -->
<g id="edge18_Node000014_Node000003" class="edge">
<title>Node3&#45;&gt;Node14</title>
<g id="a_edge18_Node000014_Node000003"><a xlink:title=" ">
<path fill="none" stroke="#9a32cd" stroke-dasharray="5,2" d="M1018.38,-173.63C1051.59,-172.88 1091.35,-176.03 1124.25,-190.38 1149.55,-201.41 1170.73,-227.21 1181.07,-241.55"/>
<polygon fill="#9a32cd" stroke="#9a32cd" points="1018.3,-170.13 1008.44,-173.99 1018.56,-177.13 1018.3,-170.13"/>
</a>
</g>
<text text-anchor="middle" x="1074.62" y="-191.38" font-family="Helvetica,sans-Serif" font-size="10.00" fill="grey"> properties</text>
</g>
<!-- Node4 -->
<g id="Node000004" class="node">
<title>Node4</title>
<g id="a_Node000004"><a xlink:href="classtsl_1_1robin__map.html" target="_top" xlink:title=" ">
<polygon fill="white" stroke="#666666" points="796,-195.88 696,-195.88 696,-165.38 796,-165.38 796,-195.88"/>
<text text-anchor="start" x="704" y="-182.38" font-family="Helvetica,sans-Serif" font-size="10.00">tsl::robin_map&lt; std</text>
<text text-anchor="middle" x="746" y="-171.12" font-family="Helvetica,sans-Serif" font-size="10.00">::string, Property &gt;</text>
</a>
</g>
</g>
<!-- Node4&#45;&gt;Node3 -->
<g id="edge3_Node000003_Node000004" class="edge">
<title>Node4&#45;&gt;Node3</title>
<g id="a_edge3_Node000003_Node000004"><a xlink:title=" ">
<path fill="none" stroke="#9a32cd" stroke-dasharray="5,2" d="M807.92,-180.62C834.44,-180.62 865.35,-180.62 891.38,-180.62"/>
<polygon fill="#9a32cd" stroke="#9a32cd" points="807.97,-177.13 797.97,-180.63 807.97,-184.13 807.97,-177.13"/>
</a>
</g>
<text text-anchor="middle" x="843.62" y="-182.38" font-family="Helvetica,sans-Serif" font-size="10.00" fill="grey"> m_properties</text>
</g>
<!-- Node5 -->
<g id="Node000005" class="node">
<title>Node5</title>
<g id="a_Node000005"><a xlink:href="classtsl_1_1detail__robin__hash_1_1robin__hash.html" target="_top" xlink:title=" ">
<polygon fill="white" stroke="#666666" points="635.25,-236.25 427.25,-236.25 427.25,-127 635.25,-127 635.25,-236.25"/>
<text text-anchor="start" x="435.25" y="-222.75" font-family="Helvetica,sans-Serif" font-size="10.00">tsl::detail_robin_hash</text>
<text text-anchor="start" x="435.25" y="-211.5" font-family="Helvetica,sans-Serif" font-size="10.00">::robin_hash&lt; std::pair</text>
<text text-anchor="start" x="435.25" y="-200.25" font-family="Helvetica,sans-Serif" font-size="10.00">&lt; std::string, Property</text>
<text text-anchor="start" x="435.25" y="-189" font-family="Helvetica,sans-Serif" font-size="10.00"> &gt;, KeySelect, ValueSelect,</text>
<text text-anchor="start" x="435.25" y="-177.75" font-family="Helvetica,sans-Serif" font-size="10.00"> std::hash&lt; std::string &gt;,</text>
<text text-anchor="start" x="435.25" y="-166.5" font-family="Helvetica,sans-Serif" font-size="10.00"> std::equal_to&lt; std::string</text>
<text text-anchor="start" x="435.25" y="-155.25" font-family="Helvetica,sans-Serif" font-size="10.00"> &gt;, std::allocator&lt; std::pair</text>
<text text-anchor="start" x="435.25" y="-144" font-family="Helvetica,sans-Serif" font-size="10.00">&lt; std::string, Property &gt; &gt;, false,</text>
<text text-anchor="middle" x="531.25" y="-132.75" font-family="Helvetica,sans-Serif" font-size="10.00"> tsl::rh::power_of_two_growth_policy&lt; 2 &gt; &gt;</text>
</a>
</g>
</g>
<!-- Node5&#45;&gt;Node4 -->
<g id="edge4_Node000004_Node000005" class="edge">
<title>Node5&#45;&gt;Node4</title>
<g id="a_edge4_Node000004_Node000005"><a xlink:title=" ">
<path fill="none" stroke="#9a32cd" stroke-dasharray="5,2" d="M646.81,-181.09C663.96,-181.01 680.83,-180.93 695.62,-180.86"/>
<polygon fill="#9a32cd" stroke="#9a32cd" points="647.01,-177.59 637.02,-181.13 647.04,-184.59 647.01,-177.59"/>
</a>
</g>
<text text-anchor="middle" x="665.62" y="-182.38" font-family="Helvetica,sans-Serif" font-size="10.00" fill="grey"> m_ht</text>
</g>
<!-- Node6 -->
<g id="Node000006" class="node">
<title>Node6</title>
<g id="a_Node000006"><a xlink:title=" ">
<polygon fill="white" stroke="#666666" points="331.62,-223.25 213.62,-223.25 213.62,-204 331.62,-204 331.62,-223.25"/>
<text text-anchor="middle" x="272.62" y="-209.75" font-family="Helvetica,sans-Serif" font-size="10.00">std::hash&lt; std::string &gt;</text>
</a>
</g>
</g>
<!-- Node6&#45;&gt;Node5 -->
<g id="edge5_Node000005_Node000006" class="edge">
<title>Node6&#45;&gt;Node5</title>
<g id="a_edge5_Node000005_Node000006"><a xlink:title=" ">
<path fill="none" stroke="#8b1a1a" d="M343.03,-204.97C368.83,-201.75 398.69,-198.03 426.88,-194.51"/>
<polygon fill="#8b1a1a" stroke="#8b1a1a" points="342.85,-201.47 333.36,-206.18 343.72,-208.41 342.85,-201.47"/>
</a>
</g>
</g>
<!-- Node13 -->
<g id="Node000013" class="node">
<title>Node13</title>
<g id="a_Node000013"><a xlink:href="classtsl_1_1detail__robin__hash_1_1robin__hash.html" target="_top" xlink:title=" ">
<polygon fill="white" stroke="#666666" points="635.25,-109.25 427.25,-109.25 427.25,0 635.25,0 635.25,-109.25"/>
<text text-anchor="start" x="435.25" y="-95.75" font-family="Helvetica,sans-Serif" font-size="10.00">tsl::detail_robin_hash</text>
<text text-anchor="start" x="435.25" y="-84.5" font-family="Helvetica,sans-Serif" font-size="10.00">::robin_hash&lt; std::pair</text>
<text text-anchor="start" x="435.25" y="-73.25" font-family="Helvetica,sans-Serif" font-size="10.00">&lt; std::string, Field &gt;,</text>
<text text-anchor="start" x="435.25" y="-62" font-family="Helvetica,sans-Serif" font-size="10.00"> KeySelect, ValueSelect,</text>
<text text-anchor="start" x="435.25" y="-50.75" font-family="Helvetica,sans-Serif" font-size="10.00"> std::hash&lt; std::string &gt;,</text>
<text text-anchor="start" x="435.25" y="-39.5" font-family="Helvetica,sans-Serif" font-size="10.00"> std::equal_to&lt; std::string</text>
<text text-anchor="start" x="435.25" y="-28.25" font-family="Helvetica,sans-Serif" font-size="10.00"> &gt;, std::allocator&lt; std::pair</text>
<text text-anchor="start" x="435.25" y="-17" font-family="Helvetica,sans-Serif" font-size="10.00">&lt; std::string, Field &gt; &gt;, false,</text>
<text text-anchor="middle" x="531.25" y="-5.75" font-family="Helvetica,sans-Serif" font-size="10.00"> tsl::rh::power_of_two_growth_policy&lt; 2 &gt; &gt;</text>
</a>
</g>
</g>
<!-- Node6&#45;&gt;Node13 -->
<g id="edge13_Node000013_Node000006" class="edge">
<title>Node6&#45;&gt;Node13</title>
<g id="a_edge13_Node000013_Node000006"><a xlink:title=" ">
<path fill="none" stroke="#8b1a1a" d="M334.51,-197.73C336.56,-196.18 338.49,-194.48 340.25,-192.62 362.35,-169.31 337,-146.71 358.25,-122.62 368.71,-110.77 396.59,-97.97 426.93,-86.71"/>
<polygon fill="#8b1a1a" stroke="#8b1a1a" points="332.88,-194.62 326.15,-202.81 336.51,-200.61 332.88,-194.62"/>
</a>
</g>
</g>
<!-- Node7 -->
<g id="Node000007" class="node">
<title>Node7</title>
<g id="a_Node000007"><a xlink:title=" ">
<polygon fill="white" stroke="#666666" points="320,-62.88 225.25,-62.88 225.25,-32.38 320,-32.38 320,-62.88"/>
<text text-anchor="start" x="233.25" y="-49.38" font-family="Helvetica,sans-Serif" font-size="10.00">std::equal_to&lt; std</text>
<text text-anchor="middle" x="272.62" y="-38.12" font-family="Helvetica,sans-Serif" font-size="10.00">::string &gt;</text>
</a>
</g>
</g>
<!-- Node7&#45;&gt;Node5 -->
<g id="edge6_Node000005_Node000007" class="edge">
<title>Node7&#45;&gt;Node5</title>
<g id="a_edge6_Node000005_Node000007"><a xlink:title=" ">
<path fill="none" stroke="#8b1a1a" d="M325.21,-69.05C330.62,-72.47 335.77,-76.32 340.25,-80.62 352.29,-92.2 345.73,-102.56 358.25,-113.62 369.92,-123.94 397.44,-136.2 427.12,-147.45"/>
<polygon fill="#8b1a1a" stroke="#8b1a1a" points="327.01,-66.05 316.6,-64.11 323.53,-72.12 327.01,-66.05"/>
</a>
</g>
</g>
<!-- Node7&#45;&gt;Node13 -->
<g id="edge14_Node000013_Node000007" class="edge">
<title>Node7&#45;&gt;Node13</title>
<g id="a_edge14_Node000013_Node000007"><a xlink:title=" ">
<path fill="none" stroke="#8b1a1a" d="M331.39,-43.76C340.38,-43.29 349.56,-42.88 358.25,-42.62 380.91,-41.96 386.61,-41.51 409.25,-42.62 415.05,-42.91 421,-43.28 427,-43.7"/>
<polygon fill="#8b1a1a" stroke="#8b1a1a" points="331.46,-40.25 321.67,-44.3 331.85,-47.24 331.46,-40.25"/>
</a>
</g>
</g>
<!-- Node8 -->
<g id="Node000008" class="node">
<title>Node8</title>
<g id="a_Node000008"><a xlink:href="classtsl_1_1rh_1_1power__of__two__growth__policy.html" target="_top" xlink:title=" ">
<polygon fill="white" stroke="#666666" points="326.38,-119.88 218.88,-119.88 218.88,-89.38 326.38,-89.38 326.38,-119.88"/>
<text text-anchor="start" x="226.88" y="-106.38" font-family="Helvetica,sans-Serif" font-size="10.00">tsl::rh::power_of_two</text>
<text text-anchor="middle" x="272.62" y="-95.12" font-family="Helvetica,sans-Serif" font-size="10.00">_growth_policy&lt; 2 &gt;</text>
</a>
</g>
</g>
<!-- Node8&#45;&gt;Node5 -->
<g id="edge7_Node000005_Node000008" class="edge">
<title>Node8&#45;&gt;Node5</title>
<g id="a_edge7_Node000005_Node000008"><a xlink:title=" ">
<path fill="none" stroke="#8b1a1a" d="M323.19,-124.37C334.63,-128.64 346.8,-132.97 358.25,-136.62 380.31,-143.66 404.2,-150.43 426.96,-156.5"/>
<polygon fill="#8b1a1a" stroke="#8b1a1a" points="324.51,-121.13 313.92,-120.85 322.03,-127.67 324.51,-121.13"/>
</a>
</g>
</g>
<!-- Node8&#45;&gt;Node13 -->
<g id="edge15_Node000013_Node000008" class="edge">
<title>Node8&#45;&gt;Node13</title>
<g id="a_edge15_Node000013_Node000008"><a xlink:title=" ">
<path fill="none" stroke="#8b1a1a" d="M314.84,-83.91C331.72,-75.79 349.35,-67.88 358.25,-65.62 380.15,-60.08 404.09,-56.85 426.97,-55.05"/>
<polygon fill="#8b1a1a" stroke="#8b1a1a" points="313.34,-80.75 305.88,-88.28 316.4,-87.04 313.34,-80.75"/>
</a>
</g>
</g>
<!-- Node9 -->
<g id="Node000009" class="node">
<title>Node9</title>
<g id="a_Node000009"><a xlink:href="classtsl_1_1detail__robin__hash_1_1bucket__entry.html" target="_top" xlink:title=" ">
<polygon fill="white" stroke="#666666" points="340.25,-183.5 205,-183.5 205,-141.75 340.25,-141.75 340.25,-183.5"/>
<text text-anchor="start" x="213" y="-170" font-family="Helvetica,sans-Serif" font-size="10.00">tsl::detail_robin_hash</text>
<text text-anchor="start" x="213" y="-158.75" font-family="Helvetica,sans-Serif" font-size="10.00">::bucket_entry&lt; ValueType,</text>
<text text-anchor="middle" x="272.62" y="-147.5" font-family="Helvetica,sans-Serif" font-size="10.00"> StoreHash &gt;</text>
</a>
</g>
</g>
<!-- Node9&#45;&gt;Node5 -->
<g id="edge8_Node000005_Node000009" class="edge">
<title>Node9&#45;&gt;Node5</title>
<g id="a_edge8_Node000005_Node000009"><a xlink:title=" ">
<path fill="none" stroke="#9a32cd" stroke-dasharray="5,2" d="M352.05,-168.43C375.62,-170.18 401.84,-172.12 426.77,-173.96"/>
<polygon fill="#9a32cd" stroke="#9a32cd" points="352.46,-164.95 342.22,-167.7 351.94,-171.93 352.46,-164.95"/>
</a>
</g>
<text text-anchor="middle" x="383.75" y="-173.38" font-family="Helvetica,sans-Serif" font-size="10.00" fill="grey"> m_buckets</text>
</g>
<!-- Node9&#45;&gt;Node13 -->
<g id="edge16_Node000013_Node000009" class="edge">
<title>Node9&#45;&gt;Node13</title>
<g id="a_edge16_Node000013_Node000009"><a xlink:title=" ">
<path fill="none" stroke="#9a32cd" stroke-dasharray="5,2" d="M334.15,-134.66C336.32,-132.76 338.37,-130.75 340.25,-128.62 355.7,-111.18 340.15,-94.06 358.25,-79.38 369.61,-70.16 397.06,-64.37 426.77,-60.74"/>
<polygon fill="#9a32cd" stroke="#9a32cd" points="332.28,-131.68 326.46,-140.53 336.53,-137.25 332.28,-131.68"/>
</a>
</g>
<text text-anchor="middle" x="383.75" y="-81.38" font-family="Helvetica,sans-Serif" font-size="10.00" fill="grey"> m_buckets</text>
</g>
<!-- Node10 -->
<g id="Node000010" class="node">
<title>Node10</title>
<g id="a_Node000010"><a xlink:href="classtsl_1_1detail__robin__hash_1_1bucket__entry__hash.html" target="_top" xlink:title=" ">
<polygon fill="white" stroke="#666666" points="169,-177.88 0,-177.88 0,-147.38 169,-147.38 169,-177.88"/>
<text text-anchor="start" x="8" y="-164.38" font-family="Helvetica,sans-Serif" font-size="10.00">tsl::detail_robin_hash</text>
<text text-anchor="middle" x="84.5" y="-153.12" font-family="Helvetica,sans-Serif" font-size="10.00">::bucket_entry_hash&lt; StoreHash &gt;</text>
</a>
</g>
</g>
<!-- Node10&#45;&gt;Node9 -->
<g id="edge9_Node000009_Node000010" class="edge">
<title>Node10&#45;&gt;Node9</title>
<g id="a_edge9_Node000009_Node000010"><a xlink:title=" ">
<path fill="none" stroke="#63b8ff" d="M180.75,-162.62C188.85,-162.62 196.93,-162.62 204.74,-162.62"/>
<polygon fill="#63b8ff" stroke="#63b8ff" points="180.82,-159.13 170.82,-162.63 180.82,-166.13 180.82,-159.13"/>
</a>
</g>
</g>
<!-- Node11 -->
<g id="Node000011" class="node">
<title>Node11</title>
<g id="a_Node000011"><a xlink:href="classIoss_1_1FieldManager.html" target="_top" xlink:title="A collection of Ioss::Field objects.">
<polygon fill="white" stroke="#666666" points="1124.25,-110.25 1025,-110.25 1025,-91 1124.25,-91 1124.25,-110.25"/>
<text text-anchor="middle" x="1074.62" y="-96.75" font-family="Helvetica,sans-Serif" font-size="10.00">Ioss::FieldManager</text>
</a>
</g>
</g>
<!-- Node11&#45;&gt;Node2 -->
<g id="edge10_Node000002_Node000011" class="edge">
<title>Node11&#45;&gt;Node2</title>
<g id="a_edge10_Node000002_Node000011"><a xlink:title=" ">
<path fill="none" stroke="#9a32cd" stroke-dasharray="5,2" d="M1135.86,-101.21C1182.96,-103.75 1249.03,-112 1301.5,-136.62 1323.15,-146.79 1345.64,-163.22 1359,-173.71"/>
<polygon fill="#9a32cd" stroke="#9a32cd" points="1136.28,-97.73 1126.13,-100.76 1135.96,-104.72 1136.28,-97.73"/>
</a>
</g>
<text text-anchor="middle" x="1188.88" y="-116.38" font-family="Helvetica,sans-Serif" font-size="10.00" fill="grey"> fields</text>
</g>
<!-- Node12 -->
<g id="Node000012" class="node">
<title>Node12</title>
<g id="a_Node000012"><a xlink:href="classtsl_1_1robin__map.html" target="_top" xlink:title=" ">
<polygon fill="white" stroke="#666666" points="796,-106.88 696,-106.88 696,-76.38 796,-76.38 796,-106.88"/>
<text text-anchor="start" x="704" y="-93.38" font-family="Helvetica,sans-Serif" font-size="10.00">tsl::robin_map&lt; std</text>
<text text-anchor="middle" x="746" y="-82.12" font-family="Helvetica,sans-Serif" font-size="10.00">::string, Field &gt;</text>
</a>
</g>
</g>
<!-- Node12&#45;&gt;Node11 -->
<g id="edge11_Node000011_Node000012" class="edge">
<title>Node12&#45;&gt;Node11</title>
<g id="a_edge11_Node000011_Node000012"><a xlink:title=" ">
<path fill="none" stroke="#9a32cd" stroke-dasharray="5,2" d="M807.52,-93.29C870.07,-95.02 966.52,-97.67 1024.51,-99.27"/>
<polygon fill="#9a32cd" stroke="#9a32cd" points="807.86,-89.8 797.77,-93.02 807.67,-96.8 807.86,-89.8"/>
</a>
</g>
<text text-anchor="middle" x="843.62" y="-97.38" font-family="Helvetica,sans-Serif" font-size="10.00" fill="grey"> fields</text>
</g>
<!-- Node13&#45;&gt;Node12 -->
<g id="edge12_Node000012_Node000013" class="edge">
<title>Node13&#45;&gt;Node12</title>
<g id="a_edge12_Node000012_Node000013"><a xlink:title=" ">
<path fill="none" stroke="#9a32cd" stroke-dasharray="5,2" d="M646.81,-74.55C663.96,-77.53 680.83,-80.47 695.62,-83.04"/>
<polygon fill="#9a32cd" stroke="#9a32cd" points="647.45,-71.11 637,-72.84 646.25,-78 647.45,-71.11"/>
</a>
</g>
<text text-anchor="middle" x="665.62" y="-82.38" font-family="Helvetica,sans-Serif" font-size="10.00" fill="grey"> m_ht</text>
</g>
<!-- Node14&#45;&gt;Node2 -->
<g id="edge17_Node000002_Node000014" class="edge">
<title>Node14&#45;&gt;Node2</title>
<g id="a_edge17_Node000002_Node000014"><a xlink:title=" ">
<path fill="none" stroke="#9a32cd" stroke-dasharray="5,2" d="M1227.32,-237.58C1262.19,-224.5 1313.3,-205.32 1344.27,-193.7"/>
<polygon fill="#9a32cd" stroke="#9a32cd" points="1226.17,-234.27 1218.04,-241.06 1228.63,-240.82 1226.17,-234.27"/>
</a>
</g>
<text text-anchor="middle" x="1277.5" y="-229.38" font-family="Helvetica,sans-Serif" font-size="10.00" fill="grey"> database_</text>
</g>
<!-- Node15 -->
<g id="Node000015" class="node">
<title>Node15</title>
<g id="a_Node000015"><a xlink:href="classIoss_1_1ElementTopology.html" target="_top" xlink:title="Represents an element topology.">
<polygon fill="white" stroke="#666666" points="1007,-293.25 891.25,-293.25 891.25,-274 1007,-274 1007,-293.25"/>
<text text-anchor="middle" x="949.12" y="-279.75" font-family="Helvetica,sans-Serif" font-size="10.00">Ioss::ElementTopology</text>
</a>
</g>
</g>
<!-- Node15&#45;&gt;Node14 -->
<g id="edge19_Node000014_Node000015" class="edge">
<title>Node15&#45;&gt;Node14</title>
<g id="a_edge19_Node000014_Node000015"><a xlink:title=" ">
<path fill="none" stroke="#9a32cd" stroke-dasharray="5,2" d="M1018.21,-276.95C1050.43,-273.5 1089.4,-268.91 1124.25,-263.62 1130.03,-262.75 1136.09,-261.73 1142.07,-260.67"/>
<polygon fill="#9a32cd" stroke="#9a32cd" points="1018.2,-273.44 1008.62,-277.97 1018.94,-280.4 1018.2,-273.44"/>
</a>
</g>
<text text-anchor="middle" x="1074.62" y="-277.38" font-family="Helvetica,sans-Serif" font-size="10.00" fill="grey"> commonSideTopology</text>
</g>
<!-- Node16 -->
<g id="Node000016" class="node">
<title>Node16</title>
<g id="a_Node000016"><a xlink:href="classIoss_1_1Map.html" target="_top" xlink:title=" ">
<polygon fill="white" stroke="#666666" points="978.88,-227.25 919.38,-227.25 919.38,-208 978.88,-208 978.88,-227.25"/>
<text text-anchor="middle" x="949.12" y="-213.75" font-family="Helvetica,sans-Serif" font-size="10.00">Ioss::Map</text>
</a>
</g>
</g>
<!-- Node16&#45;&gt;Node14 -->
<g id="edge20_Node000014_Node000016" class="edge">
<title>Node16&#45;&gt;Node14</title>
<g id="a_edge20_Node000014_Node000016"><a xlink:title=" ">
<path fill="none" stroke="#9a32cd" stroke-dasharray="5,2" d="M990.04,-210.75C1025.83,-206.02 1079.47,-202.55 1124.25,-214.62 1143.74,-219.88 1163.41,-232.74 1175.61,-241.82"/>
<polygon fill="#9a32cd" stroke="#9a32cd" points="989.98,-207.22 980.57,-212.09 990.96,-214.15 989.98,-207.22"/>
</a>
</g>
<text text-anchor="middle" x="1074.62" y="-250.12" font-family="Helvetica,sans-Serif" font-size="10.00" fill="grey"> edgeMap</text>
<text text-anchor="middle" x="1074.62" y="-238.88" font-family="Helvetica,sans-Serif" font-size="10.00" fill="grey">elemMap</text>
<text text-anchor="middle" x="1074.62" y="-227.62" font-family="Helvetica,sans-Serif" font-size="10.00" fill="grey">faceMap</text>
<text text-anchor="middle" x="1074.62" y="-216.38" font-family="Helvetica,sans-Serif" font-size="10.00" fill="grey">nodeMap</text>
</g>
<!-- Node17 -->
<g id="Node000017" class="node">
<title>Node17</title>
<g id="a_Node000017"><a xlink:href="classIoss_1_1ParallelUtils.html" target="_top" xlink:title=" ">
<polygon fill="white" stroke="#666666" points="995.75,-330.25 902.5,-330.25 902.5,-311 995.75,-311 995.75,-330.25"/>
<text text-anchor="middle" x="949.12" y="-316.75" font-family="Helvetica,sans-Serif" font-size="10.00">Ioss::ParallelUtils</text>
</a>
</g>
</g>
<!-- Node17&#45;&gt;Node14 -->
<g id="edge21_Node000014_Node000017" class="edge">
<title>Node17&#45;&gt;Node14</title>
<g id="a_edge21_Node000014_Node000017"><a xlink:title=" ">
<path fill="none" stroke="#9a32cd" stroke-dasharray="5,2" d="M1007.45,-316.26C1042.12,-312.28 1086.72,-304.76 1124.25,-290.62 1143.16,-283.5 1162.65,-270.58 1174.99,-261.57"/>
<polygon fill="#9a32cd" stroke="#9a32cd" points="1007.17,-312.77 997.6,-317.31 1007.92,-319.73 1007.17,-312.77"/>
</a>
</g>
<text text-anchor="middle" x="1074.62" y="-315.38" font-family="Helvetica,sans-Serif" font-size="10.00" fill="grey"> util_</text>
</g>
</g>
</svg>
