<?xml version="1.0" encoding="UTF-8" standalone="no"?>
<!DOCTYPE svg PUBLIC "-//W3C//DTD SVG 1.1//EN"
 "http://www.w3.org/Graphics/SVG/1.1/DTD/svg11.dtd">
<!-- Generated by graphviz version 12.2.1 (20241206.2353)
 -->
<!-- Title: Ioss::SerializeIO Pages: 1 -->
<svg width="890pt" height="298pt"
 viewBox="0.00 0.00 890.00 298.38" xmlns="http://www.w3.org/2000/svg" xmlns:xlink="http://www.w3.org/1999/xlink">
<g id="graph0" class="graph" transform="scale(1 1) rotate(0) translate(4 294.38)">
<title>Ioss::SerializeIO</title>
<!-- Node1 -->
<g id="Node000001" class="node">
<title>Node1</title>
<g id="a_Node000001"><a xlink:title="Class SerializeIO is a sentry class which performs serialization for mesh database I/O.">
<polygon fill="#999999" stroke="#666666" points="765.25,-144.25 676.5,-144.25 676.5,-125 765.25,-125 765.25,-144.25"/>
<text text-anchor="middle" x="720.88" y="-130.75" font-family="Helvetica,sans-Serif" font-size="10.00">Ioss::SerializeIO</text>
</a>
</g>
</g>
<!-- Node2 -->
<g id="Node000002" class="node">
<title>Node2</title>
<g id="a_Node000002"><a xlink:href="classIoss_1_1DatabaseIO.html" target="_top" xlink:title="An input or output Database.">
<polygon fill="white" stroke="#666666" points="559.5,-99.25 466.25,-99.25 466.25,-80 559.5,-80 559.5,-99.25"/>
<text text-anchor="middle" x="512.88" y="-85.75" font-family="Helvetica,sans-Serif" font-size="10.00">Ioss::DatabaseIO</text>
</a>
</g>
</g>
<!-- Node2&#45;&gt;Node1 -->
<g id="edge1_Node000001_Node000002" class="edge">
<title>Node2&#45;&gt;Node1</title>
<g id="a_edge1_Node000001_Node000002"><a xlink:title=" ">
<path fill="none" stroke="#9a32cd" stroke-dasharray="5,2" d="M570.8,-102.06C604.08,-109.33 645.45,-118.37 676.16,-125.08"/>
<polygon fill="#9a32cd" stroke="#9a32cd" points="571.84,-98.71 561.33,-99.99 570.35,-105.54 571.84,-98.71"/>
</a>
</g>
<text text-anchor="start" x="583.5" y="-123.53" font-family="Helvetica,sans-Serif" font-size="10.00" fill="grey">m_databaseIO</text>
</g>
<!-- Node9 -->
<g id="Node000009" class="node">
<title>Node9</title>
<g id="a_Node000009"><a xlink:href="classIoss_1_1GroupingEntity.html" target="_top" xlink:title="Base class for all &#39;grouping&#39; entities. The following derived classes are typical:">
<polygon fill="white" stroke="#666666" points="773.5,-201.25 668.25,-201.25 668.25,-182 773.5,-182 773.5,-201.25"/>
<text text-anchor="middle" x="720.88" y="-187.75" font-family="Helvetica,sans-Serif" font-size="10.00">Ioss::GroupingEntity</text>
</a>
</g>
</g>
<!-- Node2&#45;&gt;Node9 -->
<g id="edge12_Node000009_Node000002" class="edge">
<title>Node2&#45;&gt;Node9</title>
<g id="a_edge12_Node000009_Node000002"><a xlink:title=" ">
<path fill="none" stroke="#9a32cd" stroke-dasharray="5,2" d="M533.76,-106.94C546.49,-117.4 563.72,-130.45 580.5,-139.62 614.15,-158.03 655.66,-172.58 684.59,-181.55"/>
<polygon fill="#9a32cd" stroke="#9a32cd" points="536.04,-104.29 526.14,-100.52 531.53,-109.64 536.04,-104.29"/>
</a>
</g>
<text text-anchor="start" x="592.88" y="-173.77" font-family="Helvetica,sans-Serif" font-size="10.00" fill="grey">database_</text>
</g>
<!-- Node3 -->
<g id="Node000003" class="node">
<title>Node3</title>
<g id="a_Node000003"><a xlink:href="classIoss_1_1PropertyManager.html" target="_top" xlink:title="A collection of Ioss::Property objects.">
<polygon fill="white" stroke="#666666" points="324.88,-191.25 209.88,-191.25 209.88,-172 324.88,-172 324.88,-191.25"/>
<text text-anchor="middle" x="267.38" y="-177.75" font-family="Helvetica,sans-Serif" font-size="10.00">Ioss::PropertyManager</text>
</a>
</g>
</g>
<!-- Node3&#45;&gt;Node2 -->
<g id="edge2_Node000002_Node000003" class="edge">
<title>Node3&#45;&gt;Node2</title>
<g id="a_edge2_Node000002_Node000003"><a xlink:title=" ">
<path fill="none" stroke="#9a32cd" stroke-dasharray="5,2" d="M336.45,-175.09C377.89,-170.3 426.38,-163 445.25,-153.62 471.39,-140.64 494.04,-113.77 504.95,-99.32"/>
<polygon fill="#9a32cd" stroke="#9a32cd" points="336.31,-171.59 326.76,-176.18 337.08,-178.54 336.31,-171.59"/>
</a>
</g>
<text text-anchor="start" x="372.88" y="-179.02" font-family="Helvetica,sans-Serif" font-size="10.00" fill="grey">properties</text>
</g>
<!-- Node3&#45;&gt;Node9 -->
<g id="edge9_Node000009_Node000003" class="edge">
<title>Node3&#45;&gt;Node9</title>
<g id="a_edge9_Node000009_Node000003"><a xlink:title=" ">
<path fill="none" stroke="#9a32cd" stroke-dasharray="5,2" d="M336.52,-193.01C338.79,-193.24 341.04,-193.45 343.25,-193.62 458.95,-202.84 595.27,-198.31 667.99,-194.67"/>
<polygon fill="#9a32cd" stroke="#9a32cd" points="336.93,-189.54 326.59,-191.86 336.12,-196.49 336.93,-189.54"/>
</a>
</g>
<text text-anchor="start" x="491.5" y="-203.8" font-family="Helvetica,sans-Serif" font-size="10.00" fill="grey">properties</text>
</g>
<!-- Node4 -->
<g id="Node000004" class="node">
<title>Node4</title>
<g id="a_Node000004"><a xlink:href="classtsl_1_1robin__map.html" target="_top" xlink:title=" ">
<polygon fill="white" stroke="#666666" points="111.25,-219.38 0,-219.38 0,-143.88 111.25,-143.88 111.25,-219.38"/>
<text text-anchor="start" x="8" y="-205.88" font-family="Helvetica,sans-Serif" font-size="10.00">tsl::robin_map&lt; Key,</text>
<text text-anchor="start" x="8" y="-194.62" font-family="Helvetica,sans-Serif" font-size="10.00"> T, Hash, KeyEqual,</text>
<text text-anchor="start" x="8" y="-183.38" font-family="Helvetica,sans-Serif" font-size="10.00"> Allocator, StoreHash,</text>
<text text-anchor="start" x="8" y="-172.12" font-family="Helvetica,sans-Serif" font-size="10.00"> tsl::rh::prime_growth</text>
<text text-anchor="start" x="8" y="-160.88" font-family="Helvetica,sans-Serif" font-size="10.00">_policy &gt;&lt; std::string,</text>
<text text-anchor="middle" x="55.62" y="-149.62" font-family="Helvetica,sans-Serif" font-size="10.00"> Property &gt;</text>
</a>
</g>
</g>
<!-- Node4&#45;&gt;Node3 -->
<g id="edge3_Node000003_Node000004" class="edge">
<title>Node4&#45;&gt;Node3</title>
<g id="a_edge3_Node000003_Node000004"><a xlink:title=" ">
<path fill="none" stroke="#9a32cd" stroke-dasharray="5,2" d="M122.96,-181.62C150.75,-181.62 182.74,-181.62 209.44,-181.62"/>
<polygon fill="#9a32cd" stroke="#9a32cd" points="123.25,-178.13 113.25,-181.63 123.25,-185.13 123.25,-178.13"/>
</a>
</g>
<text text-anchor="start" x="132.25" y="-186.38" font-family="Helvetica,sans-Serif" font-size="10.00" fill="grey">m_properties</text>
</g>
<!-- Node5 -->
<g id="Node000005" class="node">
<title>Node5</title>
<g id="a_Node000005"><a xlink:href="classIoss_1_1ElementTopology.html" target="_top" xlink:title="Represents an element topology.">
<polygon fill="white" stroke="#666666" points="325.25,-19.25 209.5,-19.25 209.5,0 325.25,0 325.25,-19.25"/>
<text text-anchor="middle" x="267.38" y="-5.75" font-family="Helvetica,sans-Serif" font-size="10.00">Ioss::ElementTopology</text>
</a>
</g>
</g>
<!-- Node5&#45;&gt;Node2 -->
<g id="edge4_Node000002_Node000005" class="edge">
<title>Node5&#45;&gt;Node2</title>
<g id="a_edge4_Node000002_Node000005"><a xlink:title=" ">
<path fill="none" stroke="#9a32cd" stroke-dasharray="5,2" d="M336.75,-9.88C370.62,-12.2 411.4,-18.37 445.25,-33.38 469.61,-44.17 491.96,-66.71 503.56,-79.74"/>
<polygon fill="#9a32cd" stroke="#9a32cd" points="337.24,-6.4 327.06,-9.32 336.84,-13.39 337.24,-6.4"/>
</a>
</g>
<text text-anchor="start" x="346.25" y="-38.12" font-family="Helvetica,sans-Serif" font-size="10.00" fill="grey">commonSideTopology</text>
</g>
<!-- Node6 -->
<g id="Node000006" class="node">
<title>Node6</title>
<g id="a_Node000006"><a xlink:href="classIoss_1_1Map.html" target="_top" xlink:title=" ">
<polygon fill="white" stroke="#666666" points="297.12,-99.25 237.62,-99.25 237.62,-80 297.12,-80 297.12,-99.25"/>
<text text-anchor="middle" x="267.38" y="-85.75" font-family="Helvetica,sans-Serif" font-size="10.00">Ioss::Map</text>
</a>
</g>
</g>
<!-- Node6&#45;&gt;Node2 -->
<g id="edge5_Node000002_Node000006" class="edge">
<title>Node6&#45;&gt;Node2</title>
<g id="a_edge5_Node000002_Node000006"><a xlink:title=" ">
<path fill="none" stroke="#9a32cd" stroke-dasharray="5,2" d="M308.77,-89.62C352.07,-89.62 420.7,-89.62 466.01,-89.62"/>
<polygon fill="#9a32cd" stroke="#9a32cd" points="308.78,-86.13 298.78,-89.63 308.78,-93.13 308.78,-86.13"/>
</a>
</g>
<text text-anchor="start" x="374.38" y="-140.12" font-family="Helvetica,sans-Serif" font-size="10.00" fill="grey">edgeMap</text>
<text text-anchor="start" x="374.38" y="-124.88" font-family="Helvetica,sans-Serif" font-size="10.00" fill="grey">elemMap</text>
<text text-anchor="start" x="374.38" y="-109.62" font-family="Helvetica,sans-Serif" font-size="10.00" fill="grey">faceMap</text>
<text text-anchor="start" x="374.38" y="-94.38" font-family="Helvetica,sans-Serif" font-size="10.00" fill="grey">nodeMap</text>
</g>
<!-- Node7 -->
<g id="Node000007" class="node">
<title>Node7</title>
<g id="a_Node000007"><a xlink:href="classIoss_1_1ParallelUtils.html" target="_top" xlink:title=" ">
<polygon fill="white" stroke="#666666" points="314,-59.25 220.75,-59.25 220.75,-40 314,-40 314,-59.25"/>
<text text-anchor="middle" x="267.38" y="-45.75" font-family="Helvetica,sans-Serif" font-size="10.00">Ioss::ParallelUtils</text>
</a>
</g>
</g>
<!-- Node7&#45;&gt;Node2 -->
<g id="edge6_Node000002_Node000007" class="edge">
<title>Node7&#45;&gt;Node2</title>
<g id="a_edge6_Node000002_Node000007"><a xlink:title=" ">
<path fill="none" stroke="#9a32cd" stroke-dasharray="5,2" d="M325.61,-52.74C360.47,-55.36 405.75,-60.07 445.25,-68.38 458.44,-71.15 472.72,-75.51 484.66,-79.56"/>
<polygon fill="#9a32cd" stroke="#9a32cd" points="325.95,-49.25 315.72,-52.03 325.45,-56.23 325.95,-49.25"/>
</a>
</g>
<text text-anchor="start" x="385.25" y="-73.12" font-family="Helvetica,sans-Serif" font-size="10.00" fill="grey">util_</text>
</g>
<!-- Node8 -->
<g id="Node000008" class="node">
<title>Node8</title>
<g id="a_Node000008"><a xlink:href="classIoss_1_1Region.html" target="_top" xlink:title="A grouping entity that contains other grouping entities.">
<polygon fill="white" stroke="#666666" points="882,-111.25 810.5,-111.25 810.5,-92 882,-92 882,-111.25"/>
<text text-anchor="middle" x="846.25" y="-97.75" font-family="Helvetica,sans-Serif" font-size="10.00">Ioss::Region</text>
</a>
</g>
</g>
<!-- Node8&#45;&gt;Node2 -->
<g id="edge7_Node000002_Node000008" class="edge">
<title>Node8&#45;&gt;Node2</title>
<g id="a_edge7_Node000002_Node000008"><a xlink:title=" ">
<path fill="none" stroke="#9a32cd" stroke-dasharray="5,2" d="M798.94,-99.45C790.48,-99.07 781.72,-98.7 773.5,-98.38 698.69,-95.42 611.74,-92.62 559.84,-91.01"/>
<polygon fill="#9a32cd" stroke="#9a32cd" points="798.56,-102.93 808.71,-99.89 798.88,-95.94 798.56,-102.93"/>
</a>
</g>
<text text-anchor="start" x="705.12" y="-103.12" font-family="Helvetica,sans-Serif" font-size="10.00" fill="grey">region_</text>
</g>
<!-- Node9&#45;&gt;Node8 -->
<g id="edge8_Node000008_Node000009" class="edge">
<title>Node9&#45;&gt;Node8</title>
<g id="a_edge8_Node000008_Node000009"><a xlink:title=" ">
<path fill="none" stroke="#63b8ff" d="M744.83,-174.88C770.29,-156.31 810.54,-126.95 831.51,-111.65"/>
<polygon fill="#63b8ff" stroke="#63b8ff" points="742.79,-172.04 736.77,-180.76 746.91,-177.69 742.79,-172.04"/>
</a>
</g>
</g>
<!-- Node10 -->
<g id="Node000010" class="node">
<title>Node10</title>
<g id="a_Node000010"><a xlink:href="classIoss_1_1FieldManager.html" target="_top" xlink:title="A collection of Ioss::Field objects.">
<polygon fill="white" stroke="#666666" points="562.5,-262.25 463.25,-262.25 463.25,-243 562.5,-243 562.5,-262.25"/>
<text text-anchor="middle" x="512.88" y="-248.75" font-family="Helvetica,sans-Serif" font-size="10.00">Ioss::FieldManager</text>
</a>
</g>
</g>
<!-- Node10&#45;&gt;Node9 -->
<g id="edge10_Node000009_Node000010" class="edge">
<title>Node10&#45;&gt;Node9</title>
<g id="a_edge10_Node000009_Node000010"><a xlink:title=" ">
<path fill="none" stroke="#9a32cd" stroke-dasharray="5,2" d="M573.85,-241.47C597.87,-236.37 625.64,-229.65 650.25,-221.62 667.14,-216.12 685.58,-208.08 699.24,-201.7"/>
<polygon fill="#9a32cd" stroke="#9a32cd" points="573.31,-238.01 564.23,-243.47 574.73,-244.87 573.31,-238.01"/>
</a>
</g>
<text text-anchor="start" x="603.75" y="-244.06" font-family="Helvetica,sans-Serif" font-size="10.00" fill="grey">fields</text>
</g>
<!-- Node11 -->
<g id="Node000011" class="node">
<title>Node11</title>
<g id="a_Node000011"><a xlink:href="classtsl_1_1robin__map.html" target="_top" xlink:title=" ">
<polygon fill="white" stroke="#666666" points="323,-290.38 211.75,-290.38 211.75,-214.88 323,-214.88 323,-290.38"/>
<text text-anchor="start" x="219.75" y="-276.88" font-family="Helvetica,sans-Serif" font-size="10.00">tsl::robin_map&lt; Key,</text>
<text text-anchor="start" x="219.75" y="-265.62" font-family="Helvetica,sans-Serif" font-size="10.00"> T, Hash, KeyEqual,</text>
<text text-anchor="start" x="219.75" y="-254.38" font-family="Helvetica,sans-Serif" font-size="10.00"> Allocator, StoreHash,</text>
<text text-anchor="start" x="219.75" y="-243.12" font-family="Helvetica,sans-Serif" font-size="10.00"> tsl::rh::prime_growth</text>
<text text-anchor="start" x="219.75" y="-231.88" font-family="Helvetica,sans-Serif" font-size="10.00">_policy &gt;&lt; std::string,</text>
<text text-anchor="middle" x="267.38" y="-220.62" font-family="Helvetica,sans-Serif" font-size="10.00"> Field &gt;</text>
</a>
</g>
</g>
<!-- Node11&#45;&gt;Node10 -->
<g id="edge11_Node000010_Node000011" class="edge">
<title>Node11&#45;&gt;Node10</title>
<g id="a_edge11_Node000010_Node000011"><a xlink:title=" ">
<path fill="none" stroke="#9a32cd" stroke-dasharray="5,2" d="M334.72,-252.62C375.2,-252.62 426.07,-252.62 462.91,-252.62"/>
<polygon fill="#9a32cd" stroke="#9a32cd" points="334.84,-249.13 324.84,-252.63 334.84,-256.13 334.84,-249.13"/>
</a>
</g>
<text text-anchor="start" x="382.62" y="-257.38" font-family="Helvetica,sans-Serif" font-size="10.00" fill="grey">fields</text>
</g>
</g>
</svg>
