<?xml version="1.0" encoding="UTF-8" standalone="no"?>
<!DOCTYPE svg PUBLIC "-//W3C//DTD SVG 1.1//EN"
 "http://www.w3.org/Graphics/SVG/1.1/DTD/svg11.dtd">
<!-- Generated by graphviz version 2.49.3 (20211023.0002)
 -->
<!-- Title: src/unit_tests Pages: 1 -->
<svg width="134pt" height="311pt"
 viewBox="0.00 0.00 134.00 311.00" xmlns="http://www.w3.org/2000/svg" xmlns:xlink="http://www.w3.org/1999/xlink">
<g id="graph0" class="graph" transform="scale(1 1) rotate(0) translate(4 307)">
<title>src/unit_tests</title>
<polygon fill="white" stroke="transparent" points="-4,4 -4,-307 130,-307 130,4 -4,4"/>
<g id="clust1" class="cluster">
<title>clusterdir_68267d1309a1af8e8297ef4c3efbcdba</title>
<g id="a_clust1"><a xlink:href="dir_68267d1309a1af8e8297ef4c3efbcdba.html" target="_top" xlink:title="src">
<polygon fill="#ddddee" stroke="black" points="8,-8 8,-295 118,-295 118,-8 8,-8"/>
<text text-anchor="middle" x="63" y="-283" font-family="Helvetica,sans-Serif" font-size="10.00">src</text>
</a>
</g>
</g>
<!-- dir_93ef7a03ae011ca5032e526d863e8f9f -->
<g id="node1" class="node">
<title>dir_93ef7a03ae011ca5032e526d863e8f9f</title>
<g id="a_node1"><a xlink:href="dir_93ef7a03ae011ca5032e526d863e8f9f.html" target="_top" xlink:title="init">
<polygon fill="none" stroke="black" points="70,-196 16,-196 16,-160 70,-160 70,-196"/>
<text text-anchor="middle" x="43" y="-175.5" font-family="Helvetica,sans-Serif" font-size="10.00">init</text>
</a>
</g>
</g>
<!-- dir_b3cdc8b392a41de52e9504248ea8e7e8 -->
<g id="node2" class="node">
<title>dir_b3cdc8b392a41de52e9504248ea8e7e8</title>
<g id="a_node2"><a xlink:href="dir_b3cdc8b392a41de52e9504248ea8e7e8.html" target="_top" xlink:title="text_mesh">
<polygon fill="none" stroke="black" points="89.5,-124 26.5,-124 26.5,-88 89.5,-88 89.5,-124"/>
<text text-anchor="middle" x="58" y="-103.5" font-family="Helvetica,sans-Serif" font-size="10.00">text_mesh</text>
</a>
</g>
</g>
<!-- dir_93ef7a03ae011ca5032e526d863e8f9f&#45;&gt;dir_b3cdc8b392a41de52e9504248ea8e7e8 -->
<g id="edge4" class="edge">
<title>dir_93ef7a03ae011ca5032e526d863e8f9f&#45;&gt;dir_b3cdc8b392a41de52e9504248ea8e7e8</title>
<path fill="none" stroke="black" d="M46.71,-159.7C48.36,-151.98 50.35,-142.71 52.19,-134.11"/>
<polygon fill="black" stroke="black" points="55.66,-134.62 54.33,-124.1 48.82,-133.15 55.66,-134.62"/>
<g id="a_edge4&#45;headlabel"><a xlink:href="dir_000010_000015.html" target="_top" xlink:title="1">
<text text-anchor="middle" x="57.68" y="-136.23" font-family="Helvetica,sans-Serif" font-size="10.00">1</text>
</a>
</g>
</g>
<!-- dir_c036716aea57166be336d3e4612b3c04 -->
<g id="node3" class="node">
<title>dir_c036716aea57166be336d3e4612b3c04</title>
<g id="a_node3"><a xlink:href="dir_c036716aea57166be336d3e4612b3c04.html" target="_top" xlink:title="private_copy_fmt">
<polygon fill="white" stroke="red" points="109.5,-52 16.5,-52 16.5,-16 109.5,-16 109.5,-52"/>
<text text-anchor="middle" x="63" y="-31.5" font-family="Helvetica,sans-Serif" font-size="10.00">private_copy_fmt</text>
</a>
</g>
</g>
<!-- dir_b3cdc8b392a41de52e9504248ea8e7e8&#45;&gt;dir_c036716aea57166be336d3e4612b3c04 -->
<g id="edge5" class="edge">
<title>dir_b3cdc8b392a41de52e9504248ea8e7e8&#45;&gt;dir_c036716aea57166be336d3e4612b3c04</title>
<path fill="none" stroke="black" d="M59.24,-87.7C59.79,-79.98 60.45,-70.71 61.06,-62.11"/>
<polygon fill="black" stroke="black" points="64.56,-62.33 61.78,-52.1 57.57,-61.83 64.56,-62.33"/>
<g id="a_edge5&#45;headlabel"><a xlink:href="dir_000015_000013.html" target="_top" xlink:title="2">
<text text-anchor="middle" x="67.13" y="-63.62" font-family="Helvetica,sans-Serif" font-size="10.00">2</text>
</a>
</g>
</g>
<!-- dir_33cfd5db86fcb3abafc781b49053bebf -->
<g id="node4" class="node">
<title>dir_33cfd5db86fcb3abafc781b49053bebf</title>
<g id="a_node4"><a xlink:href="dir_33cfd5db86fcb3abafc781b49053bebf.html" target="_top" xlink:title="unit_tests">
<polygon fill="#eeeeff" stroke="black" points="109.5,-268 50.5,-268 50.5,-232 109.5,-232 109.5,-268"/>
<text text-anchor="middle" x="80" y="-247.5" font-family="Helvetica,sans-Serif" font-size="10.00">unit_tests</text>
</a>
</g>
</g>
<!-- dir_33cfd5db86fcb3abafc781b49053bebf&#45;&gt;dir_93ef7a03ae011ca5032e526d863e8f9f -->
<g id="edge1" class="edge">
<title>dir_33cfd5db86fcb3abafc781b49053bebf&#45;&gt;dir_93ef7a03ae011ca5032e526d863e8f9f</title>
<path fill="none" stroke="black" d="M70.85,-231.7C66.6,-223.64 61.44,-213.89 56.73,-204.98"/>
<polygon fill="black" stroke="black" points="59.81,-203.31 52.04,-196.1 53.62,-206.58 59.81,-203.31"/>
<g id="a_edge1&#45;headlabel"><a xlink:href="dir_000017_000010.html" target="_top" xlink:title="1">
<text text-anchor="middle" x="64" y="-202.66" font-family="Helvetica,sans-Serif" font-size="10.00">1</text>
</a>
</g>
</g>
<!-- dir_33cfd5db86fcb3abafc781b49053bebf&#45;&gt;dir_b3cdc8b392a41de52e9504248ea8e7e8 -->
<g id="edge2" class="edge">
<title>dir_33cfd5db86fcb3abafc781b49053bebf&#45;&gt;dir_b3cdc8b392a41de52e9504248ea8e7e8</title>
<path fill="none" stroke="black" d="M81.65,-231.75C82.95,-213.68 83.83,-184.56 79,-160 77.24,-151.07 74.04,-141.71 70.65,-133.38"/>
<polygon fill="black" stroke="black" points="73.85,-131.97 66.67,-124.18 67.42,-134.74 73.85,-131.97"/>
<g id="a_edge2&#45;headlabel"><a xlink:href="dir_000017_000015.html" target="_top" xlink:title="1">
<text text-anchor="middle" x="77.88" y="-131.64" font-family="Helvetica,sans-Serif" font-size="10.00">1</text>
</a>
</g>
</g>
<!-- dir_33cfd5db86fcb3abafc781b49053bebf&#45;&gt;dir_c036716aea57166be336d3e4612b3c04 -->
<g id="edge3" class="edge">
<title>dir_33cfd5db86fcb3abafc781b49053bebf&#45;&gt;dir_c036716aea57166be336d3e4612b3c04</title>
<path fill="none" stroke="black" d="M86.6,-231.66C97.02,-201.7 114.55,-138.58 99,-88 95.99,-78.22 90.49,-68.62 84.68,-60.33"/>
<polygon fill="black" stroke="black" points="87.41,-58.13 78.61,-52.23 81.81,-62.33 87.41,-58.13"/>
<g id="a_edge3&#45;headlabel"><a xlink:href="dir_000017_000013.html" target="_top" xlink:title="1">
<text text-anchor="middle" x="91.83" y="-56.8" font-family="Helvetica,sans-Serif" font-size="10.00">1</text>
</a>
</g>
</g>
</g>
</svg>
