<?xml version="1.0" encoding="UTF-8" standalone="no"?>
<!DOCTYPE svg PUBLIC "-//W3C//DTD SVG 1.1//EN"
 "http://www.w3.org/Graphics/SVG/1.1/DTD/svg11.dtd">
<!-- Generated by graphviz version 7.0.6 (20230106.0513)
 -->
<!-- Title: src/visualization/catalyst Pages: 1 -->
<svg width="456pt" height="196pt"
 viewBox="0.00 0.00 456.00 196.00" xmlns="http://www.w3.org/2000/svg" xmlns:xlink="http://www.w3.org/1999/xlink">
<g id="graph0" class="graph" transform="scale(1 1) rotate(0) translate(4 192)">
<title>src/visualization/catalyst</title>
<g id="clust1" class="cluster">
<title>clusterdir_b00de47ad7e2e13a637d9aa605dec95e</title>
<g id="a_clust1"><a xlink:href="dir_b00de47ad7e2e13a637d9aa605dec95e.html" target="_top" xlink:title="visualization">
<polygon fill="#edeff6" stroke="#7f7f7f" stroke-dasharray="5,2" points="8,-8 8,-180 440,-180 440,-8 8,-8"/>
<text text-anchor="middle" x="224" y="-168" font-family="Helvetica,sans-Serif" font-size="10.00">visualization</text>
</a>
</g>
</g>
<g id="clust2" class="cluster">
<title>clusterdir_c3c45e1f3135eb5f9667e971577f0620</title>
<g id="a_clust2"><a xlink:href="dir_c3c45e1f3135eb5f9667e971577f0620.html" target="_top">
<polygon fill="#edeff6" stroke="#404040" stroke-width="2" points="16,-63 16,-153 320,-153 320,-63 16,-63"/>
</a>
</g>
</g>
<!-- dir_44ddcfcd8d126daea8faa82ee802e03a -->
<g id="node1" class="node">
<title>dir_44ddcfcd8d126daea8faa82ee802e03a</title>
<g id="a_node1"><a xlink:href="dir_44ddcfcd8d126daea8faa82ee802e03a.html" target="_top" xlink:title="cgns">
<polygon fill="#a4b1d4" stroke="#404040" points="366,-90 328,-90 328,-71 366,-71 366,-90"/>
<text text-anchor="middle" x="347" y="-78" font-family="Helvetica,sans-Serif" font-size="10.00">cgns</text>
</a>
</g>
</g>
<!-- dir_41eed5bedcca2fdbdedfa33a60910a27 -->
<g id="node2" class="node">
<title>dir_41eed5bedcca2fdbdedfa33a60910a27</title>
<g id="a_node2"><a xlink:href="dir_41eed5bedcca2fdbdedfa33a60910a27.html" target="_top" xlink:title="utils">
<polygon fill="#a4b1d4" stroke="#404040" points="204.5,-35 169.5,-35 169.5,-16 204.5,-16 204.5,-35"/>
<text text-anchor="middle" x="187" y="-23" font-family="Helvetica,sans-Serif" font-size="10.00">utils</text>
</a>
</g>
</g>
<!-- dir_932149a0d3ac8bc564a6c12d318f16cf -->
<g id="node3" class="node">
<title>dir_932149a0d3ac8bc564a6c12d318f16cf</title>
<g id="a_node3"><a xlink:href="dir_932149a0d3ac8bc564a6c12d318f16cf.html" target="_top" xlink:title="exodus">
<polygon fill="#a4b1d4" stroke="#404040" points="432,-90 384,-90 384,-71 432,-71 432,-90"/>
<text text-anchor="middle" x="408" y="-78" font-family="Helvetica,sans-Serif" font-size="10.00">exodus</text>
</a>
</g>
</g>
<!-- dir_c3c45e1f3135eb5f9667e971577f0620 -->
<g id="node4" class="node">
<title>dir_c3c45e1f3135eb5f9667e971577f0620</title>
<text text-anchor="middle" x="286" y="-133" font-family="Helvetica,sans-Serif" font-size="10.00">catalyst</text>
</g>
<!-- dir_279bfbfcf4afb037c20484bf8e0a8e66 -->
<g id="node5" class="node">
<title>dir_279bfbfcf4afb037c20484bf8e0a8e66</title>
<g id="a_node5"><a xlink:href="dir_279bfbfcf4afb037c20484bf8e0a8e66.html" target="_top" xlink:title="cgns">
<polygon fill="#a4b1d4" stroke="#404040" points="176,-145 138,-145 138,-126 176,-126 176,-145"/>
<text text-anchor="middle" x="157" y="-133" font-family="Helvetica,sans-Serif" font-size="10.00">cgns</text>
</a>
</g>
</g>
<!-- dir_279bfbfcf4afb037c20484bf8e0a8e66&#45;&gt;dir_44ddcfcd8d126daea8faa82ee802e03a -->
<g id="edge1" class="edge">
<title>dir_279bfbfcf4afb037c20484bf8e0a8e66&#45;&gt;dir_44ddcfcd8d126daea8faa82ee802e03a</title>
<path fill="none" stroke="#63b8ff" d="M176.25,-128.54C179.18,-127.67 182.16,-126.8 185,-126 242.83,-109.74 261,-109.1 316.84,-92.15"/>
<polygon fill="#63b8ff" stroke="#63b8ff" points="317.76,-95.53 326.28,-89.23 315.69,-88.84 317.76,-95.53"/>
<g id="a_edge1&#45;headlabel"><a xlink:href="dir_000004_000005.html" target="_top" xlink:title="1">
<text text-anchor="middle" x="316.61" y="-96.35" font-family="Helvetica,sans-Serif" font-size="10.00" fill="#63b8ff">1</text>
</a>
</g>
</g>
<!-- dir_cf86dd9e88440952dcb4faf1a63e19a3 -->
<g id="node8" class="node">
<title>dir_cf86dd9e88440952dcb4faf1a63e19a3</title>
<g id="a_node8"><a xlink:href="dir_cf86dd9e88440952dcb4faf1a63e19a3.html" target="_top" xlink:title="manager">
<polygon fill="#a4b1d4" stroke="#404040" points="214,-90 160,-90 160,-71 214,-71 214,-90"/>
<text text-anchor="middle" x="187" y="-78" font-family="Helvetica,sans-Serif" font-size="10.00">manager</text>
</a>
</g>
</g>
<!-- dir_279bfbfcf4afb037c20484bf8e0a8e66&#45;&gt;dir_cf86dd9e88440952dcb4faf1a63e19a3 -->
<g id="edge2" class="edge">
<title>dir_279bfbfcf4afb037c20484bf8e0a8e66&#45;&gt;dir_cf86dd9e88440952dcb4faf1a63e19a3</title>
<path fill="none" stroke="#63b8ff" d="M161.95,-125.75C165.84,-118.88 171.39,-109.08 176.28,-100.45"/>
<polygon fill="#63b8ff" stroke="#63b8ff" points="179.31,-102.19 181.19,-91.76 173.22,-98.74 179.31,-102.19"/>
<g id="a_edge2&#45;headlabel"><a xlink:href="dir_000004_000017.html" target="_top" xlink:title="1">
<text text-anchor="middle" x="180.76" y="-102.9" font-family="Helvetica,sans-Serif" font-size="10.00" fill="#63b8ff">1</text>
</a>
</g>
</g>
<!-- dir_00f3bc6aebd0394b1cbccb9ae90c9e8e -->
<g id="node6" class="node">
<title>dir_00f3bc6aebd0394b1cbccb9ae90c9e8e</title>
<g id="a_node6"><a xlink:href="dir_00f3bc6aebd0394b1cbccb9ae90c9e8e.html" target="_top" xlink:title="exodus">
<polygon fill="#a4b1d4" stroke="#404040" points="242,-145 194,-145 194,-126 242,-126 242,-145"/>
<text text-anchor="middle" x="218" y="-133" font-family="Helvetica,sans-Serif" font-size="10.00">exodus</text>
</a>
</g>
</g>
<!-- dir_00f3bc6aebd0394b1cbccb9ae90c9e8e&#45;&gt;dir_932149a0d3ac8bc564a6c12d318f16cf -->
<g id="edge3" class="edge">
<title>dir_00f3bc6aebd0394b1cbccb9ae90c9e8e&#45;&gt;dir_932149a0d3ac8bc564a6c12d318f16cf</title>
<path fill="none" stroke="#63b8ff" d="M242.45,-127.68C275.51,-118.46 334.69,-101.95 372.61,-91.37"/>
<polygon fill="#63b8ff" stroke="#63b8ff" points="373.49,-94.76 382.19,-88.7 371.61,-88.02 373.49,-94.76"/>
<g id="a_edge3&#45;headlabel"><a xlink:href="dir_000007_000008.html" target="_top" xlink:title="1">
<text text-anchor="middle" x="372.25" y="-95.55" font-family="Helvetica,sans-Serif" font-size="10.00" fill="#63b8ff">1</text>
</a>
</g>
</g>
<!-- dir_00f3bc6aebd0394b1cbccb9ae90c9e8e&#45;&gt;dir_cf86dd9e88440952dcb4faf1a63e19a3 -->
<g id="edge4" class="edge">
<title>dir_00f3bc6aebd0394b1cbccb9ae90c9e8e&#45;&gt;dir_cf86dd9e88440952dcb4faf1a63e19a3</title>
<path fill="none" stroke="#63b8ff" d="M212.88,-125.75C208.82,-118.81 203.01,-108.86 197.91,-100.16"/>
<polygon fill="#63b8ff" stroke="#63b8ff" points="201.06,-98.61 192.99,-91.75 195.02,-102.15 201.06,-98.61"/>
<g id="a_edge4&#45;headlabel"><a xlink:href="dir_000007_000017.html" target="_top" xlink:title="1">
<text text-anchor="middle" x="204.57" y="-96.48" font-family="Helvetica,sans-Serif" font-size="10.00" fill="#63b8ff">1</text>
</a>
</g>
</g>
<!-- dir_10f1c31df37a3ea1290717472caf884f -->
<g id="node7" class="node">
<title>dir_10f1c31df37a3ea1290717472caf884f</title>
<g id="a_node7"><a xlink:href="dir_10f1c31df37a3ea1290717472caf884f.html" target="_top" xlink:title="ioss2catalyst">
<polygon fill="#a4b1d4" stroke="#404040" points="98,-90 24,-90 24,-71 98,-71 98,-90"/>
<text text-anchor="middle" x="61" y="-78" font-family="Helvetica,sans-Serif" font-size="10.00">ioss2catalyst</text>
</a>
</g>
</g>
<!-- dir_cf86dd9e88440952dcb4faf1a63e19a3&#45;&gt;dir_41eed5bedcca2fdbdedfa33a60910a27 -->
<g id="edge5" class="edge">
<title>dir_cf86dd9e88440952dcb4faf1a63e19a3&#45;&gt;dir_41eed5bedcca2fdbdedfa33a60910a27</title>
<path fill="none" stroke="#63b8ff" d="M187,-70.75C187,-64.27 187,-55.16 187,-46.9"/>
<polygon fill="#63b8ff" stroke="#63b8ff" points="190.5,-46.96 187,-36.96 183.5,-46.96 190.5,-46.96"/>
<g id="a_edge5&#45;headlabel"><a xlink:href="dir_000017_000028.html" target="_top" xlink:title="1">
<text text-anchor="middle" x="193.34" y="-46.54" font-family="Helvetica,sans-Serif" font-size="10.00" fill="#63b8ff">1</text>
</a>
</g>
</g>
<!-- dir_9e2aa0155c92f528c4db6406ef100278 -->
<g id="node9" class="node">
<title>dir_9e2aa0155c92f528c4db6406ef100278</title>
<g id="a_node9"><a xlink:href="dir_9e2aa0155c92f528c4db6406ef100278.html" target="_top" xlink:title="parser">
<polygon fill="#a4b1d4" stroke="#404040" points="120,-145 76,-145 76,-126 120,-126 120,-145"/>
<text text-anchor="middle" x="98" y="-133" font-family="Helvetica,sans-Serif" font-size="10.00">parser</text>
</a>
</g>
</g>
<!-- dir_92d1306f2ee72cb32792be8abb14a779 -->
<g id="node10" class="node">
<title>dir_92d1306f2ee72cb32792be8abb14a779</title>
<g id="a_node10"><a xlink:href="dir_92d1306f2ee72cb32792be8abb14a779.html" target="_top" xlink:title="test">
<polygon fill="#a4b1d4" stroke="#404040" points="57.5,-145 24.5,-145 24.5,-126 57.5,-126 57.5,-145"/>
<text text-anchor="middle" x="41" y="-133" font-family="Helvetica,sans-Serif" font-size="10.00">test</text>
</a>
</g>
</g>
<!-- dir_92d1306f2ee72cb32792be8abb14a779&#45;&gt;dir_10f1c31df37a3ea1290717472caf884f -->
<g id="edge6" class="edge">
<title>dir_92d1306f2ee72cb32792be8abb14a779&#45;&gt;dir_10f1c31df37a3ea1290717472caf884f</title>
<path fill="none" stroke="#63b8ff" d="M44.3,-125.75C46.83,-119.04 50.43,-109.52 53.63,-101.02"/>
<polygon fill="#63b8ff" stroke="#63b8ff" points="56.84,-102.45 57.09,-91.86 50.29,-99.98 56.84,-102.45"/>
<g id="a_edge6&#45;headlabel"><a xlink:href="dir_000022_000015.html" target="_top" xlink:title="1">
<text text-anchor="middle" x="58.76" y="-102.9" font-family="Helvetica,sans-Serif" font-size="10.00" fill="#63b8ff">1</text>
</a>
</g>
</g>
</g>
</svg>
