<?xml version="1.0" encoding="UTF-8" standalone="no"?>
<!DOCTYPE svg PUBLIC "-//W3C//DTD SVG 1.1//EN"
 "http://www.w3.org/Graphics/SVG/1.1/DTD/svg11.dtd">
<!-- Generated by graphviz version 2.48.0 (20210717.1556)
 -->
<!-- Title: src/adios Pages: 1 -->
<svg width="206pt" height="175pt"
 viewBox="0.00 0.00 206.00 175.00" xmlns="http://www.w3.org/2000/svg" xmlns:xlink="http://www.w3.org/1999/xlink">
<g id="graph0" class="graph" transform="scale(1 1) rotate(0) translate(4 171)">
<title>src/adios</title>
<polygon fill="white" stroke="transparent" points="-4,4 -4,-171 202,-171 202,4 -4,4"/>
<g id="clust1" class="cluster">
<title>clusterdir_68267d1309a1af8e8297ef4c3efbcdba</title>
<g id="a_clust1"><a xlink:href="dir_68267d1309a1af8e8297ef4c3efbcdba.html" target="_top" xlink:title="src">
<polygon fill="#ddddee" stroke="black" points="8,-8 8,-159 190,-159 190,-8 8,-8"/>
<text text-anchor="middle" x="99" y="-147" font-family="Helvetica,sans-Serif" font-size="10.00">src</text>
</a>
</g>
</g>
<g id="clust2" class="cluster">
<title>clusterdir_0848929091a9f16efa00791d442ff009</title>
<g id="a_clust2"><a xlink:href="dir_0848929091a9f16efa00791d442ff009.html" target="_top">
<polygon fill="#eeeeff" stroke="black" points="34,-80 34,-132 176,-132 176,-80 34,-80"/>
</a>
</g>
</g>
<!-- dir_c036716aea57166be336d3e4612b3c04 -->
<g id="node1" class="node">
<title>dir_c036716aea57166be336d3e4612b3c04</title>
<g id="a_node1"><a xlink:href="dir_c036716aea57166be336d3e4612b3c04.html" target="_top" xlink:title="private_copy_fmt">
<polygon fill="white" stroke="red" points="109.5,-52 16.5,-52 16.5,-16 109.5,-16 109.5,-52"/>
<text text-anchor="middle" x="63" y="-31.5" font-family="Helvetica,sans-Serif" font-size="10.00">private_copy_fmt</text>
</a>
</g>
</g>
<!-- dir_93ef7a03ae011ca5032e526d863e8f9f -->
<g id="node2" class="node">
<title>dir_93ef7a03ae011ca5032e526d863e8f9f</title>
<g id="a_node2"><a xlink:href="dir_93ef7a03ae011ca5032e526d863e8f9f.html" target="_top" xlink:title="init">
<polygon fill="none" stroke="black" points="182,-52 128,-52 128,-16 182,-16 182,-52"/>
<text text-anchor="middle" x="155" y="-31.5" font-family="Helvetica,sans-Serif" font-size="10.00">init</text>
</a>
</g>
</g>
<!-- dir_0848929091a9f16efa00791d442ff009 -->
<g id="node3" class="node">
<title>dir_0848929091a9f16efa00791d442ff009</title>
<text text-anchor="middle" x="69" y="-103.5" font-family="Helvetica,sans-Serif" font-size="10.00">adios</text>
</g>
<!-- dir_0848929091a9f16efa00791d442ff009&#45;&gt;dir_c036716aea57166be336d3e4612b3c04 -->
<g id="edge1" class="edge">
<title>dir_0848929091a9f16efa00791d442ff009&#45;&gt;dir_c036716aea57166be336d3e4612b3c04</title>
<path fill="none" stroke="black" d="M67.52,-87.7C66.86,-79.98 66.06,-70.71 65.32,-62.11"/>
<polygon fill="black" stroke="black" points="68.81,-61.77 64.47,-52.1 61.83,-62.37 68.81,-61.77"/>
<g id="a_edge1&#45;headlabel"><a xlink:href="dir_000001_000012.html" target="_top" xlink:title="1">
<text text-anchor="middle" x="71.94" y="-62.61" font-family="Helvetica,sans-Serif" font-size="10.00">1</text>
</a>
</g>
</g>
<!-- dir_4e4bf9d06b087c9d30af5808a3a7b2fd -->
<g id="node4" class="node">
<title>dir_4e4bf9d06b087c9d30af5808a3a7b2fd</title>
<g id="a_node4"><a xlink:href="dir_4e4bf9d06b087c9d30af5808a3a7b2fd.html" target="_top" xlink:title="utest">
<polygon fill="white" stroke="black" points="168,-124 114,-124 114,-88 168,-88 168,-124"/>
<text text-anchor="middle" x="141" y="-103.5" font-family="Helvetica,sans-Serif" font-size="10.00">utest</text>
</a>
</g>
</g>
<!-- dir_4e4bf9d06b087c9d30af5808a3a7b2fd&#45;&gt;dir_93ef7a03ae011ca5032e526d863e8f9f -->
<g id="edge2" class="edge">
<title>dir_4e4bf9d06b087c9d30af5808a3a7b2fd&#45;&gt;dir_93ef7a03ae011ca5032e526d863e8f9f</title>
<path fill="none" stroke="black" d="M144.46,-87.7C146,-79.98 147.86,-70.71 149.58,-62.11"/>
<polygon fill="black" stroke="black" points="153.05,-62.6 151.58,-52.1 146.19,-61.22 153.05,-62.6"/>
<g id="a_edge2&#45;headlabel"><a xlink:href="dir_000002_000009.html" target="_top" xlink:title="1">
<text text-anchor="middle" x="155.13" y="-64.18" font-family="Helvetica,sans-Serif" font-size="10.00">1</text>
</a>
</g>
</g>
</g>
</svg>
