<?xml version="1.0" encoding="UTF-8" standalone="no"?>
<!DOCTYPE svg PUBLIC "-//W3C//DTD SVG 1.1//EN"
 "http://www.w3.org/Graphics/SVG/1.1/DTD/svg11.dtd">
<!-- Generated by graphviz version 2.50.0 (20211204.2007)
 -->
<!-- Title: src/unit_tests Pages: 1 -->
<svg width="284pt" height="167pt"
 viewBox="0.00 0.00 284.00 167.00" xmlns="http://www.w3.org/2000/svg" xmlns:xlink="http://www.w3.org/1999/xlink">
<g id="graph0" class="graph" transform="scale(1 1) rotate(0) translate(4 163)">
<title>src/unit_tests</title>
<polygon fill="white" stroke="transparent" points="-4,4 -4,-163 280,-163 280,4 -4,4"/>
<g id="clust1" class="cluster">
<title>clusterdir_68267d1309a1af8e8297ef4c3efbcdba</title>
<g id="a_clust1"><a xlink:href="dir_68267d1309a1af8e8297ef4c3efbcdba.html" target="_top" xlink:title="src">
<polygon fill="#edeff6" stroke="#404040" stroke-dasharray="5,2" points="8,-8 8,-151 268,-151 268,-8 8,-8"/>
<text text-anchor="middle" x="138" y="-139" font-family="Helvetica,sans-Serif" font-size="10.00">src</text>
</a>
</g>
</g>
<!-- dir_93ef7a03ae011ca5032e526d863e8f9f -->
<g id="node1" class="node">
<title>dir_93ef7a03ae011ca5032e526d863e8f9f</title>
<g id="a_node1"><a xlink:href="dir_93ef7a03ae011ca5032e526d863e8f9f.html" target="_top" xlink:title="init">
<polygon fill="#a4b1d4" stroke="#404040" points="70,-52 16,-52 16,-16 70,-16 70,-52"/>
<text text-anchor="middle" x="43" y="-31.5" font-family="Helvetica,sans-Serif" font-size="10.00">init</text>
</a>
</g>
</g>
<!-- dir_b3cdc8b392a41de52e9504248ea8e7e8 -->
<g id="node2" class="node">
<title>dir_b3cdc8b392a41de52e9504248ea8e7e8</title>
<g id="a_node2"><a xlink:href="dir_b3cdc8b392a41de52e9504248ea8e7e8.html" target="_top" xlink:title="text_mesh">
<polygon fill="#a4b1d4" stroke="#404040" points="150,-52 88,-52 88,-16 150,-16 150,-52"/>
<text text-anchor="middle" x="119" y="-31.5" font-family="Helvetica,sans-Serif" font-size="10.00">text_mesh</text>
</a>
</g>
</g>
<!-- dir_c036716aea57166be336d3e4612b3c04 -->
<g id="node3" class="node">
<title>dir_c036716aea57166be336d3e4612b3c04</title>
<g id="a_node3"><a xlink:href="dir_c036716aea57166be336d3e4612b3c04.html" target="_top" xlink:title="private_copy_fmt">
<polygon fill="#a4b1d4" stroke="red" points="260,-52 168,-52 168,-16 260,-16 260,-52"/>
<text text-anchor="middle" x="214" y="-31.5" font-family="Helvetica,sans-Serif" font-size="10.00">private_copy_fmt</text>
</a>
</g>
</g>
<!-- dir_33cfd5db86fcb3abafc781b49053bebf -->
<g id="node4" class="node">
<title>dir_33cfd5db86fcb3abafc781b49053bebf</title>
<g id="a_node4"><a xlink:href="dir_33cfd5db86fcb3abafc781b49053bebf.html" target="_top" xlink:title="unit_tests">
<polygon fill="#edeff6" stroke="#404040" stroke-width="2" points="148.5,-124 89.5,-124 89.5,-88 148.5,-88 148.5,-124"/>
<text text-anchor="middle" x="119" y="-103.5" font-family="Helvetica,sans-Serif" font-size="10.00">unit_tests</text>
</a>
</g>
</g>
<!-- dir_33cfd5db86fcb3abafc781b49053bebf&#45;&gt;dir_93ef7a03ae011ca5032e526d863e8f9f -->
<g id="edge1" class="edge">
<title>dir_33cfd5db86fcb3abafc781b49053bebf&#45;&gt;dir_93ef7a03ae011ca5032e526d863e8f9f</title>
<path fill="none" stroke="black" d="M100.21,-87.7C90.83,-79.05 79.32,-68.45 69.09,-59.03"/>
<polygon fill="black" stroke="black" points="71.3,-56.3 61.57,-52.1 66.55,-61.45 71.3,-56.3"/>
<g id="a_edge1&#45;headlabel"><a xlink:href="dir_000028_000016.html" target="_top" xlink:title="1">
<text text-anchor="middle" x="75.86" y="-54.15" font-family="Helvetica,sans-Serif" font-size="10.00">1</text>
</a>
</g>
</g>
<!-- dir_33cfd5db86fcb3abafc781b49053bebf&#45;&gt;dir_b3cdc8b392a41de52e9504248ea8e7e8 -->
<g id="edge2" class="edge">
<title>dir_33cfd5db86fcb3abafc781b49053bebf&#45;&gt;dir_b3cdc8b392a41de52e9504248ea8e7e8</title>
<path fill="none" stroke="black" d="M119,-87.7C119,-79.98 119,-70.71 119,-62.11"/>
<polygon fill="black" stroke="black" points="122.5,-62.1 119,-52.1 115.5,-62.1 122.5,-62.1"/>
<g id="a_edge2&#45;headlabel"><a xlink:href="dir_000028_000026.html" target="_top" xlink:title="1">
<text text-anchor="middle" x="125.34" y="-63.2" font-family="Helvetica,sans-Serif" font-size="10.00">1</text>
</a>
</g>
</g>
<!-- dir_33cfd5db86fcb3abafc781b49053bebf&#45;&gt;dir_c036716aea57166be336d3e4612b3c04 -->
<g id="edge3" class="edge">
<title>dir_33cfd5db86fcb3abafc781b49053bebf&#45;&gt;dir_c036716aea57166be336d3e4612b3c04</title>
<path fill="none" stroke="black" d="M142.48,-87.7C154.56,-78.8 169.45,-67.82 182.52,-58.2"/>
<polygon fill="black" stroke="black" points="184.81,-60.85 190.79,-52.1 180.66,-55.22 184.81,-60.85"/>
<g id="a_edge3&#45;headlabel"><a xlink:href="dir_000028_000023.html" target="_top" xlink:title="1">
<text text-anchor="middle" x="183.6" y="-62.77" font-family="Helvetica,sans-Serif" font-size="10.00">1</text>
</a>
</g>
</g>
</g>
</svg>
