<?xml version="1.0" encoding="UTF-8" standalone="no"?>
<!DOCTYPE svg PUBLIC "-//W3C//DTD SVG 1.1//EN"
 "http://www.w3.org/Graphics/SVG/1.1/DTD/svg11.dtd">
<!-- Generated by graphviz version 2.49.3 (20211023.0002)
 -->
<!-- Title: src/init Pages: 1 -->
<svg width="506pt" height="167pt"
 viewBox="0.00 0.00 506.00 167.00" xmlns="http://www.w3.org/2000/svg" xmlns:xlink="http://www.w3.org/1999/xlink">
<g id="graph0" class="graph" transform="scale(1 1) rotate(0) translate(4 163)">
<title>src/init</title>
<polygon fill="white" stroke="transparent" points="-4,4 -4,-163 502,-163 502,4 -4,4"/>
<g id="clust1" class="cluster">
<title>clusterdir_68267d1309a1af8e8297ef4c3efbcdba</title>
<g id="a_clust1"><a xlink:href="dir_68267d1309a1af8e8297ef4c3efbcdba.html" target="_top" xlink:title="src">
<polygon fill="#ddddee" stroke="black" points="8,-8 8,-151 490,-151 490,-8 8,-8"/>
<text text-anchor="middle" x="249" y="-139" font-family="Helvetica,sans-Serif" font-size="10.00">src</text>
</a>
</g>
</g>
<!-- dir_5846fc54e97a18e854afcef0d32856ce -->
<g id="node1" class="node">
<title>dir_5846fc54e97a18e854afcef0d32856ce</title>
<g id="a_node1"><a xlink:href="dir_5846fc54e97a18e854afcef0d32856ce.html" target="_top" xlink:title="heartbeat">
<polygon fill="none" stroke="black" points="75.5,-52 16.5,-52 16.5,-16 75.5,-16 75.5,-52"/>
<text text-anchor="middle" x="46" y="-31.5" font-family="Helvetica,sans-Serif" font-size="10.00">heartbeat</text>
</a>
</g>
</g>
<!-- dir_b00de47ad7e2e13a637d9aa605dec95e -->
<g id="node2" class="node">
<title>dir_b00de47ad7e2e13a637d9aa605dec95e</title>
<g id="a_node2"><a xlink:href="dir_b00de47ad7e2e13a637d9aa605dec95e.html" target="_top" xlink:title="visualization">
<polygon fill="white" stroke="red" points="164.5,-52 93.5,-52 93.5,-16 164.5,-16 164.5,-52"/>
<text text-anchor="middle" x="129" y="-31.5" font-family="Helvetica,sans-Serif" font-size="10.00">visualization</text>
</a>
</g>
</g>
<!-- dir_b3cdc8b392a41de52e9504248ea8e7e8 -->
<g id="node3" class="node">
<title>dir_b3cdc8b392a41de52e9504248ea8e7e8</title>
<g id="a_node3"><a xlink:href="dir_b3cdc8b392a41de52e9504248ea8e7e8.html" target="_top" xlink:title="text_mesh">
<polygon fill="none" stroke="black" points="245.5,-52 182.5,-52 182.5,-16 245.5,-16 245.5,-52"/>
<text text-anchor="middle" x="214" y="-31.5" font-family="Helvetica,sans-Serif" font-size="10.00">text_mesh</text>
</a>
</g>
</g>
<!-- dir_c6b3506109318da869165b36926fcb30 -->
<g id="node4" class="node">
<title>dir_c6b3506109318da869165b36926fcb30</title>
<g id="a_node4"><a xlink:href="dir_c6b3506109318da869165b36926fcb30.html" target="_top" xlink:title="generated">
<polygon fill="none" stroke="black" points="326,-52 264,-52 264,-16 326,-16 326,-52"/>
<text text-anchor="middle" x="295" y="-31.5" font-family="Helvetica,sans-Serif" font-size="10.00">generated</text>
</a>
</g>
</g>
<!-- dir_d9748d221ba7faa83f7fa8169a1d5121 -->
<g id="node5" class="node">
<title>dir_d9748d221ba7faa83f7fa8169a1d5121</title>
<g id="a_node5"><a xlink:href="dir_d9748d221ba7faa83f7fa8169a1d5121.html" target="_top" xlink:title="gen_struc">
<polygon fill="none" stroke="black" points="404,-52 344,-52 344,-16 404,-16 404,-52"/>
<text text-anchor="middle" x="374" y="-31.5" font-family="Helvetica,sans-Serif" font-size="10.00">gen_struc</text>
</a>
</g>
</g>
<!-- dir_f1045338104a6f1bc5c5f037b0ca9be2 -->
<g id="node6" class="node">
<title>dir_f1045338104a6f1bc5c5f037b0ca9be2</title>
<g id="a_node6"><a xlink:href="dir_f1045338104a6f1bc5c5f037b0ca9be2.html" target="_top" xlink:title="transform">
<polygon fill="none" stroke="black" points="481.5,-52 422.5,-52 422.5,-16 481.5,-16 481.5,-52"/>
<text text-anchor="middle" x="452" y="-31.5" font-family="Helvetica,sans-Serif" font-size="10.00">transform</text>
</a>
</g>
</g>
<!-- dir_93ef7a03ae011ca5032e526d863e8f9f -->
<g id="node7" class="node">
<title>dir_93ef7a03ae011ca5032e526d863e8f9f</title>
<g id="a_node7"><a xlink:href="dir_93ef7a03ae011ca5032e526d863e8f9f.html" target="_top" xlink:title="init">
<polygon fill="#eeeeff" stroke="black" points="281,-124 227,-124 227,-88 281,-88 281,-124"/>
<text text-anchor="middle" x="254" y="-103.5" font-family="Helvetica,sans-Serif" font-size="10.00">init</text>
</a>
</g>
</g>
<!-- dir_93ef7a03ae011ca5032e526d863e8f9f&#45;&gt;dir_5846fc54e97a18e854afcef0d32856ce -->
<g id="edge1" class="edge">
<title>dir_93ef7a03ae011ca5032e526d863e8f9f&#45;&gt;dir_5846fc54e97a18e854afcef0d32856ce</title>
<path fill="none" stroke="black" d="M226.77,-97.44C193.11,-87.87 134.26,-70.4 85,-52 84.9,-51.96 84.81,-51.93 84.71,-51.89"/>
<polygon fill="black" stroke="black" points="86.26,-48.74 75.68,-48.33 83.69,-55.25 86.26,-48.74"/>
<g id="a_edge1&#45;headlabel"><a xlink:href="dir_000010_000009.html" target="_top" xlink:title="1">
<text text-anchor="middle" x="90.65" y="-44.92" font-family="Helvetica,sans-Serif" font-size="10.00">1</text>
</a>
</g>
</g>
<!-- dir_93ef7a03ae011ca5032e526d863e8f9f&#45;&gt;dir_b00de47ad7e2e13a637d9aa605dec95e -->
<g id="edge2" class="edge">
<title>dir_93ef7a03ae011ca5032e526d863e8f9f&#45;&gt;dir_b00de47ad7e2e13a637d9aa605dec95e</title>
<path fill="none" stroke="black" d="M226.88,-89.81C209.77,-80.23 187.39,-67.7 168.34,-57.03"/>
<polygon fill="black" stroke="black" points="170.02,-53.96 159.58,-52.13 166.6,-60.07 170.02,-53.96"/>
<g id="a_edge2&#45;headlabel"><a xlink:href="dir_000010_000019.html" target="_top" xlink:title="2">
<text text-anchor="middle" x="174.54" y="-50.74" font-family="Helvetica,sans-Serif" font-size="10.00">2</text>
</a>
</g>
</g>
<!-- dir_93ef7a03ae011ca5032e526d863e8f9f&#45;&gt;dir_b3cdc8b392a41de52e9504248ea8e7e8 -->
<g id="edge3" class="edge">
<title>dir_93ef7a03ae011ca5032e526d863e8f9f&#45;&gt;dir_b3cdc8b392a41de52e9504248ea8e7e8</title>
<path fill="none" stroke="black" d="M244.11,-87.7C239.51,-79.64 233.94,-69.89 228.85,-60.98"/>
<polygon fill="black" stroke="black" points="231.77,-59.05 223.77,-52.1 225.7,-62.52 231.77,-59.05"/>
<g id="a_edge3&#45;headlabel"><a xlink:href="dir_000010_000015.html" target="_top" xlink:title="1">
<text text-anchor="middle" x="236.02" y="-58.26" font-family="Helvetica,sans-Serif" font-size="10.00">1</text>
</a>
</g>
</g>
<!-- dir_93ef7a03ae011ca5032e526d863e8f9f&#45;&gt;dir_c6b3506109318da869165b36926fcb30 -->
<g id="edge4" class="edge">
<title>dir_93ef7a03ae011ca5032e526d863e8f9f&#45;&gt;dir_c6b3506109318da869165b36926fcb30</title>
<path fill="none" stroke="black" d="M264.13,-87.7C268.85,-79.64 274.56,-69.89 279.78,-60.98"/>
<polygon fill="black" stroke="black" points="282.95,-62.5 284.98,-52.1 276.91,-58.96 282.95,-62.5"/>
<g id="a_edge4&#45;headlabel"><a xlink:href="dir_000010_000008.html" target="_top" xlink:title="1">
<text text-anchor="middle" x="283.58" y="-64.54" font-family="Helvetica,sans-Serif" font-size="10.00">1</text>
</a>
</g>
</g>
<!-- dir_93ef7a03ae011ca5032e526d863e8f9f&#45;&gt;dir_d9748d221ba7faa83f7fa8169a1d5121 -->
<g id="edge5" class="edge">
<title>dir_93ef7a03ae011ca5032e526d863e8f9f&#45;&gt;dir_d9748d221ba7faa83f7fa8169a1d5121</title>
<path fill="none" stroke="black" d="M281.23,-89.12C297.36,-79.7 318.06,-67.63 335.81,-57.28"/>
<polygon fill="black" stroke="black" points="337.91,-60.11 344.78,-52.04 334.38,-54.06 337.91,-60.11"/>
<g id="a_edge5&#45;headlabel"><a xlink:href="dir_000010_000007.html" target="_top" xlink:title="1">
<text text-anchor="middle" x="336.23" y="-61.87" font-family="Helvetica,sans-Serif" font-size="10.00">1</text>
</a>
</g>
</g>
<!-- dir_93ef7a03ae011ca5032e526d863e8f9f&#45;&gt;dir_f1045338104a6f1bc5c5f037b0ca9be2 -->
<g id="edge6" class="edge">
<title>dir_93ef7a03ae011ca5032e526d863e8f9f&#45;&gt;dir_f1045338104a6f1bc5c5f037b0ca9be2</title>
<path fill="none" stroke="black" d="M281.27,-96.73C313.15,-86.87 367.36,-69.51 413,-52 413.09,-51.96 413.19,-51.93 413.28,-51.89"/>
<polygon fill="black" stroke="black" points="414.33,-55.24 422.3,-48.27 411.72,-48.75 414.33,-55.24"/>
<g id="a_edge6&#45;headlabel"><a xlink:href="dir_000010_000016.html" target="_top" xlink:title="1">
<text text-anchor="middle" x="412.05" y="-56.72" font-family="Helvetica,sans-Serif" font-size="10.00">1</text>
</a>
</g>
</g>
</g>
</svg>
