<?xml version="1.0" encoding="UTF-8" standalone="no"?>
<!DOCTYPE svg PUBLIC "-//W3C//DTD SVG 1.1//EN"
 "http://www.w3.org/Graphics/SVG/1.1/DTD/svg11.dtd">
<!-- Generated by graphviz version 3.0.0 (20220226.1711)
 -->
<!-- Title: src/visualization/catalyst Pages: 1 -->
<svg width="604pt" height="247pt"
 viewBox="0.00 0.00 604.00 247.00" xmlns="http://www.w3.org/2000/svg" xmlns:xlink="http://www.w3.org/1999/xlink">
<g id="graph0" class="graph" transform="scale(1 1) rotate(0) translate(4 243)">
<title>src/visualization/catalyst</title>
<polygon fill="white" stroke="transparent" points="-4,4 -4,-243 600,-243 600,4 -4,4"/>
<g id="clust1" class="cluster">
<title>clusterdir_b00de47ad7e2e13a637d9aa605dec95e</title>
<g id="a_clust1"><a xlink:href="dir_b00de47ad7e2e13a637d9aa605dec95e.html" target="_top" xlink:title="visualization">
<polygon fill="#edeff6" stroke="#7f7f7f" stroke-dasharray="5,2" points="8,-8 8,-231 588,-231 588,-8 8,-8"/>
<text text-anchor="middle" x="298" y="-219" font-family="Helvetica,sans-Serif" font-size="10.00">visualization</text>
</a>
</g>
</g>
<g id="clust2" class="cluster">
<title>clusterdir_c3c45e1f3135eb5f9667e971577f0620</title>
<g id="a_clust2"><a xlink:href="dir_c3c45e1f3135eb5f9667e971577f0620.html" target="_top">
<polygon fill="#edeff6" stroke="#404040" stroke-width="2" points="16,-80 16,-204 446,-204 446,-80 16,-80"/>
</a>
</g>
</g>
<!-- dir_44ddcfcd8d126daea8faa82ee802e03a -->
<g id="node1" class="node">
<title>dir_44ddcfcd8d126daea8faa82ee802e03a</title>
<g id="a_node1"><a xlink:href="dir_44ddcfcd8d126daea8faa82ee802e03a.html" target="_top" xlink:title="cgns">
<polygon fill="#a4b1d4" stroke="#404040" points="508,-124 454,-124 454,-88 508,-88 508,-124"/>
<text text-anchor="middle" x="481" y="-103.5" font-family="Helvetica,sans-Serif" font-size="10.00">cgns</text>
</a>
</g>
</g>
<!-- dir_41eed5bedcca2fdbdedfa33a60910a27 -->
<g id="node2" class="node">
<title>dir_41eed5bedcca2fdbdedfa33a60910a27</title>
<g id="a_node2"><a xlink:href="dir_41eed5bedcca2fdbdedfa33a60910a27.html" target="_top" xlink:title="utils">
<polygon fill="#a4b1d4" stroke="#404040" points="330,-52 276,-52 276,-16 330,-16 330,-52"/>
<text text-anchor="middle" x="303" y="-31.5" font-family="Helvetica,sans-Serif" font-size="10.00">utils</text>
</a>
</g>
</g>
<!-- dir_932149a0d3ac8bc564a6c12d318f16cf -->
<g id="node3" class="node">
<title>dir_932149a0d3ac8bc564a6c12d318f16cf</title>
<g id="a_node3"><a xlink:href="dir_932149a0d3ac8bc564a6c12d318f16cf.html" target="_top" xlink:title="exodus">
<polygon fill="#a4b1d4" stroke="#404040" points="580,-124 526,-124 526,-88 580,-88 580,-124"/>
<text text-anchor="middle" x="553" y="-103.5" font-family="Helvetica,sans-Serif" font-size="10.00">exodus</text>
</a>
</g>
</g>
<!-- dir_c3c45e1f3135eb5f9667e971577f0620 -->
<g id="node4" class="node">
<title>dir_c3c45e1f3135eb5f9667e971577f0620</title>
<text text-anchor="middle" x="411" y="-175.5" font-family="Helvetica,sans-Serif" font-size="10.00">catalyst</text>
</g>
<!-- dir_279bfbfcf4afb037c20484bf8e0a8e66 -->
<g id="node5" class="node">
<title>dir_279bfbfcf4afb037c20484bf8e0a8e66</title>
<g id="a_node5"><a xlink:href="dir_279bfbfcf4afb037c20484bf8e0a8e66.html" target="_top" xlink:title="cgns">
<polygon fill="#a4b1d4" stroke="#404040" points="294,-196 240,-196 240,-160 294,-160 294,-196"/>
<text text-anchor="middle" x="267" y="-175.5" font-family="Helvetica,sans-Serif" font-size="10.00">cgns</text>
</a>
</g>
</g>
<!-- dir_279bfbfcf4afb037c20484bf8e0a8e66&#45;&gt;dir_44ddcfcd8d126daea8faa82ee802e03a -->
<g id="edge1" class="edge">
<title>dir_279bfbfcf4afb037c20484bf8e0a8e66&#45;&gt;dir_44ddcfcd8d126daea8faa82ee802e03a</title>
<path fill="none" stroke="black" d="M294.28,-163.42C297.19,-162.19 300.13,-161.02 303,-160 363.3,-138.62 385.17,-147.4 444.38,-125.97"/>
<polygon fill="black" stroke="black" points="445.68,-129.22 453.8,-122.42 443.21,-122.67 445.68,-129.22"/>
<g id="a_edge1&#45;headlabel"><a xlink:href="dir_000004_000005.html" target="_top" xlink:title="1">
<text text-anchor="middle" x="443.31" y="-130.64" font-family="Helvetica,sans-Serif" font-size="10.00">1</text>
</a>
</g>
</g>
<!-- dir_cf86dd9e88440952dcb4faf1a63e19a3 -->
<g id="node9" class="node">
<title>dir_cf86dd9e88440952dcb4faf1a63e19a3</title>
<g id="a_node9"><a xlink:href="dir_cf86dd9e88440952dcb4faf1a63e19a3.html" target="_top" xlink:title="manager">
<polygon fill="#a4b1d4" stroke="#404040" points="330,-124 276,-124 276,-88 330,-88 330,-124"/>
<text text-anchor="middle" x="303" y="-103.5" font-family="Helvetica,sans-Serif" font-size="10.00">manager</text>
</a>
</g>
</g>
<!-- dir_279bfbfcf4afb037c20484bf8e0a8e66&#45;&gt;dir_cf86dd9e88440952dcb4faf1a63e19a3 -->
<g id="edge2" class="edge">
<title>dir_279bfbfcf4afb037c20484bf8e0a8e66&#45;&gt;dir_cf86dd9e88440952dcb4faf1a63e19a3</title>
<path fill="none" stroke="black" d="M275.9,-159.7C280,-151.73 284.95,-142.1 289.49,-133.26"/>
<polygon fill="black" stroke="black" points="292.74,-134.6 294.2,-124.1 286.52,-131.4 292.74,-134.6"/>
<g id="a_edge2&#45;headlabel"><a xlink:href="dir_000004_000018.html" target="_top" xlink:title="1">
<text text-anchor="middle" x="293.62" y="-136.59" font-family="Helvetica,sans-Serif" font-size="10.00">1</text>
</a>
</g>
</g>
<!-- dir_00f3bc6aebd0394b1cbccb9ae90c9e8e -->
<g id="node6" class="node">
<title>dir_00f3bc6aebd0394b1cbccb9ae90c9e8e</title>
<g id="a_node6"><a xlink:href="dir_00f3bc6aebd0394b1cbccb9ae90c9e8e.html" target="_top" xlink:title="exodus">
<polygon fill="#a4b1d4" stroke="#404040" points="366,-196 312,-196 312,-160 366,-160 366,-196"/>
<text text-anchor="middle" x="339" y="-175.5" font-family="Helvetica,sans-Serif" font-size="10.00">exodus</text>
</a>
</g>
</g>
<!-- dir_00f3bc6aebd0394b1cbccb9ae90c9e8e&#45;&gt;dir_932149a0d3ac8bc564a6c12d318f16cf -->
<g id="edge3" class="edge">
<title>dir_00f3bc6aebd0394b1cbccb9ae90c9e8e&#45;&gt;dir_932149a0d3ac8bc564a6c12d318f16cf</title>
<path fill="none" stroke="black" d="M366.29,-163.45C369.2,-162.2 372.14,-161.03 375,-160 433.4,-139.03 453.81,-145.32 516.19,-123.92"/>
<polygon fill="black" stroke="black" points="517.45,-127.18 525.71,-120.55 515.12,-120.58 517.45,-127.18"/>
<g id="a_edge3&#45;headlabel"><a xlink:href="dir_000007_000008.html" target="_top" xlink:title="1">
<text text-anchor="middle" x="515.01" y="-128.56" font-family="Helvetica,sans-Serif" font-size="10.00">1</text>
</a>
</g>
</g>
<!-- dir_00f3bc6aebd0394b1cbccb9ae90c9e8e&#45;&gt;dir_cf86dd9e88440952dcb4faf1a63e19a3 -->
<g id="edge4" class="edge">
<title>dir_00f3bc6aebd0394b1cbccb9ae90c9e8e&#45;&gt;dir_cf86dd9e88440952dcb4faf1a63e19a3</title>
<path fill="none" stroke="black" d="M330.1,-159.7C326,-151.73 321.05,-142.1 316.51,-133.26"/>
<polygon fill="black" stroke="black" points="319.48,-131.4 311.8,-124.1 313.26,-134.6 319.48,-131.4"/>
<g id="a_edge4&#45;headlabel"><a xlink:href="dir_000007_000018.html" target="_top" xlink:title="1">
<text text-anchor="middle" x="323.65" y="-130.79" font-family="Helvetica,sans-Serif" font-size="10.00">1</text>
</a>
</g>
</g>
<!-- dir_f96be6bc9a89528899aaaaabce64ea72 -->
<g id="node7" class="node">
<title>dir_f96be6bc9a89528899aaaaabce64ea72</title>
<g id="a_node7"><a xlink:href="dir_f96be6bc9a89528899aaaaabce64ea72.html" target="_top" xlink:title="include">
<polygon fill="#a4b1d4" stroke="#404040" points="222,-196 168,-196 168,-160 222,-160 222,-196"/>
<text text-anchor="middle" x="195" y="-175.5" font-family="Helvetica,sans-Serif" font-size="10.00">include</text>
</a>
</g>
</g>
<!-- dir_10f1c31df37a3ea1290717472caf884f -->
<g id="node8" class="node">
<title>dir_10f1c31df37a3ea1290717472caf884f</title>
<g id="a_node8"><a xlink:href="dir_10f1c31df37a3ea1290717472caf884f.html" target="_top" xlink:title="ioss2catalyst">
<polygon fill="#a4b1d4" stroke="#404040" points="98,-124 24,-124 24,-88 98,-88 98,-124"/>
<text text-anchor="middle" x="61" y="-103.5" font-family="Helvetica,sans-Serif" font-size="10.00">ioss2catalyst</text>
</a>
</g>
</g>
<!-- dir_cf86dd9e88440952dcb4faf1a63e19a3&#45;&gt;dir_41eed5bedcca2fdbdedfa33a60910a27 -->
<g id="edge5" class="edge">
<title>dir_cf86dd9e88440952dcb4faf1a63e19a3&#45;&gt;dir_41eed5bedcca2fdbdedfa33a60910a27</title>
<path fill="none" stroke="black" d="M303,-87.7C303,-79.98 303,-70.71 303,-62.11"/>
<polygon fill="black" stroke="black" points="306.5,-62.1 303,-52.1 299.5,-62.1 306.5,-62.1"/>
<g id="a_edge5&#45;headlabel"><a xlink:href="dir_000018_000029.html" target="_top" xlink:title="1">
<text text-anchor="middle" x="309.34" y="-63.2" font-family="Helvetica,sans-Serif" font-size="10.00">1</text>
</a>
</g>
</g>
<!-- dir_9e2aa0155c92f528c4db6406ef100278 -->
<g id="node10" class="node">
<title>dir_9e2aa0155c92f528c4db6406ef100278</title>
<g id="a_node10"><a xlink:href="dir_9e2aa0155c92f528c4db6406ef100278.html" target="_top" xlink:title="parser">
<polygon fill="#a4b1d4" stroke="#404040" points="150,-196 96,-196 96,-160 150,-160 150,-196"/>
<text text-anchor="middle" x="123" y="-175.5" font-family="Helvetica,sans-Serif" font-size="10.00">parser</text>
</a>
</g>
</g>
<!-- dir_92d1306f2ee72cb32792be8abb14a779 -->
<g id="node11" class="node">
<title>dir_92d1306f2ee72cb32792be8abb14a779</title>
<g id="a_node11"><a xlink:href="dir_92d1306f2ee72cb32792be8abb14a779.html" target="_top" xlink:title="test">
<polygon fill="#a4b1d4" stroke="#404040" points="78,-196 24,-196 24,-160 78,-160 78,-196"/>
<text text-anchor="middle" x="51" y="-175.5" font-family="Helvetica,sans-Serif" font-size="10.00">test</text>
</a>
</g>
</g>
<!-- dir_92d1306f2ee72cb32792be8abb14a779&#45;&gt;dir_10f1c31df37a3ea1290717472caf884f -->
<g id="edge6" class="edge">
<title>dir_92d1306f2ee72cb32792be8abb14a779&#45;&gt;dir_10f1c31df37a3ea1290717472caf884f</title>
<path fill="none" stroke="black" d="M53.47,-159.7C54.57,-151.98 55.9,-142.71 57.13,-134.11"/>
<polygon fill="black" stroke="black" points="60.61,-134.5 58.56,-124.1 53.68,-133.51 60.61,-134.5"/>
<g id="a_edge6&#45;headlabel"><a xlink:href="dir_000023_000016.html" target="_top" xlink:title="1">
<text text-anchor="middle" x="62.91" y="-135.96" font-family="Helvetica,sans-Serif" font-size="10.00">1</text>
</a>
</g>
</g>
</g>
</svg>
