<?xml version="1.0" encoding="UTF-8" standalone="no"?>
<!DOCTYPE svg PUBLIC "-//W3C//DTD SVG 1.1//EN"
 "http://www.w3.org/Graphics/SVG/1.1/DTD/svg11.dtd">
<!-- Generated by graphviz version 3.0.0 (20220226.1711)
 -->
<!-- Title: src Pages: 1 -->
<!--zoomable 220 -->
<svg id="main" version="1.1" xmlns="http://www.w3.org/2000/svg" xmlns:xlink="http://www.w3.org/1999/xlink" xml:space="preserve" onload="init(evt)">
<style type="text/css"><![CDATA[
.edge:hover path { stroke: red; }
.edge:hover polygon { stroke: red; fill: red; }
]]></style>
<script type="text/javascript"><![CDATA[
var edges = document.getElementsByTagName('g');
if (edges && edges.length) {
  for (var i=0;i<edges.length;i++) {
    if (edges[i].id.substr(0,4)=='edge') {
      edges[i].setAttribute('class','edge');
    }
  }
}
]]></script>
        <defs>
                <circle id="rim" cx="0" cy="0" r="7"/>
                <circle id="rim2" cx="0" cy="0" r="3.5"/>
                <g id="zoomPlus">
                        <use xlink:href="#rim" fill="#404040">
                                <set attributeName="fill" to="#808080" begin="zoomplus.mouseover" end="zoomplus.mouseout"/>
                        </use>
                        <path d="M-4,0h8M0,-4v8" fill="none" stroke="white" stroke-width="1.5" pointer-events="none"/>
                </g>
                <g id="zoomMin">
                        <use xlink:href="#rim" fill="#404040">
                                <set attributeName="fill" to="#808080" begin="zoomminus.mouseover" end="zoomminus.mouseout"/>
                        </use>
                        <path d="M-4,0h8" fill="none" stroke="white" stroke-width="1.5" pointer-events="none"/>
                </g>
                <g id="dirArrow">
                        <path fill="none" stroke="white" stroke-width="1.5" d="M0,-3.0v7 M-2.5,-0.5L0,-3.0L2.5,-0.5"/>
                </g>
               <g id="resetDef">
                       <use xlink:href="#rim2" fill="#404040">
                               <set attributeName="fill" to="#808080" begin="reset.mouseover" end="reset.mouseout"/>
                       </use>
               </g>
        </defs>

<script type="text/javascript">
var viewWidth = 604;
var viewHeight = 220;
var sectionId = 'dynsection-0';
</script>
<script xlink:href="svgpan.js"/>
<svg id="graph" class="graph">
<g id="viewport">
<title>src</title>
<polygon fill="white" stroke="transparent" points="-4,4 -4,-216 600,-216 600,4 -4,4"/>
<g id="clust1" class="cluster">
<title>clusterdir_68267d1309a1af8e8297ef4c3efbcdba</title>
<g id="a_clust1"><a xlink:href="dir_68267d1309a1af8e8297ef4c3efbcdba.html" target="_top">
<polygon fill="#edeff6" stroke="#404040" stroke-width="2" points="8,-8 8,-204 588,-204 588,-8 8,-8"/>
</a>
</g>
</g>
<!-- dir_68267d1309a1af8e8297ef4c3efbcdba -->
<g id="node1" class="node">
<title>dir_68267d1309a1af8e8297ef4c3efbcdba</title>
<text text-anchor="middle" x="553" y="-175.5" font-family="Helvetica,sans-Serif" font-size="10.00">src</text>
</g>
<!-- dir_0848929091a9f16efa00791d442ff009 -->
<g id="node2" class="node">
<title>dir_0848929091a9f16efa00791d442ff009</title>
<g id="a_node2"><a xlink:href="dir_0848929091a9f16efa00791d442ff009.html" target="_top" xlink:title="adios">
<polygon fill="#a4b1d4" stroke="#404040" points="286,-196 232,-196 232,-160 286,-160 286,-196"/>
<text text-anchor="middle" x="259" y="-175.5" font-family="Helvetica,sans-Serif" font-size="10.00">adios</text>
</a>
</g>
</g>
<!-- dir_93ef7a03ae011ca5032e526d863e8f9f -->
<g id="node10" class="node">
<title>dir_93ef7a03ae011ca5032e526d863e8f9f</title>
<g id="a_node10"><a xlink:href="dir_93ef7a03ae011ca5032e526d863e8f9f.html" target="_top" xlink:title="init">
<polygon fill="#a4b1d4" stroke="#404040" points="273,-124 219,-124 219,-88 273,-88 273,-124"/>
<text text-anchor="middle" x="246" y="-103.5" font-family="Helvetica,sans-Serif" font-size="10.00">init</text>
</a>
</g>
</g>
<!-- dir_0848929091a9f16efa00791d442ff009&#45;&gt;dir_93ef7a03ae011ca5032e526d863e8f9f -->
<g id="edge1" class="edge">
<title>dir_0848929091a9f16efa00791d442ff009&#45;&gt;dir_93ef7a03ae011ca5032e526d863e8f9f</title>
<path fill="none" stroke="black" d="M255.79,-159.7C254.35,-151.98 252.63,-142.71 251.04,-134.11"/>
<polygon fill="black" stroke="black" points="254.44,-133.3 249.18,-124.1 247.56,-134.58 254.44,-133.3"/>
<g id="a_edge1&#45;headlabel"><a xlink:href="dir_000000_000015.html" target="_top" xlink:title="1">
<text text-anchor="middle" x="257.89" y="-133.81" font-family="Helvetica,sans-Serif" font-size="10.00">1</text>
</a>
</g>
</g>
<!-- dir_af265b1534f12fcb75d0f59f114e3cf8 -->
<g id="node3" class="node">
<title>dir_af265b1534f12fcb75d0f59f114e3cf8</title>
<g id="a_node3"><a xlink:href="dir_af265b1534f12fcb75d0f59f114e3cf8.html" target="_top" xlink:title="catalyst">
<polygon fill="#a4b1d4" stroke="#404040" points="430,-196 376,-196 376,-160 430,-160 430,-196"/>
<text text-anchor="middle" x="403" y="-175.5" font-family="Helvetica,sans-Serif" font-size="10.00">catalyst</text>
</a>
</g>
</g>
<!-- dir_f371e9dd6e225bf8e20e121e59bab5bd -->
<g id="node4" class="node">
<title>dir_f371e9dd6e225bf8e20e121e59bab5bd</title>
<g id="a_node4"><a xlink:href="dir_f371e9dd6e225bf8e20e121e59bab5bd.html" target="_top" xlink:title="cgns">
<polygon fill="#a4b1d4" stroke="#404040" points="142,-124 88,-124 88,-88 142,-88 142,-124"/>
<text text-anchor="middle" x="115" y="-103.5" font-family="Helvetica,sans-Serif" font-size="10.00">cgns</text>
</a>
</g>
</g>
<!-- dir_e151c116100f0d05a91a56b2b7518180 -->
<g id="node5" class="node">
<title>dir_e151c116100f0d05a91a56b2b7518180</title>
<g id="a_node5"><a xlink:href="dir_e151c116100f0d05a91a56b2b7518180.html" target="_top" xlink:title="exodus">
<polygon fill="#a4b1d4" stroke="#404040" points="70,-124 16,-124 16,-88 70,-88 70,-124"/>
<text text-anchor="middle" x="43" y="-103.5" font-family="Helvetica,sans-Serif" font-size="10.00">exodus</text>
</a>
</g>
</g>
<!-- dir_597d0759dbb1de7f25512648fd041786 -->
<g id="node6" class="node">
<title>dir_597d0759dbb1de7f25512648fd041786</title>
<g id="a_node6"><a xlink:href="dir_597d0759dbb1de7f25512648fd041786.html" target="_top" xlink:title="faodel">
<polygon fill="#a4b1d4" stroke="#404040" points="358,-196 304,-196 304,-160 358,-160 358,-196"/>
<text text-anchor="middle" x="331" y="-175.5" font-family="Helvetica,sans-Serif" font-size="10.00">faodel</text>
</a>
</g>
</g>
<!-- dir_d9748d221ba7faa83f7fa8169a1d5121 -->
<g id="node7" class="node">
<title>dir_d9748d221ba7faa83f7fa8169a1d5121</title>
<g id="a_node7"><a xlink:href="dir_d9748d221ba7faa83f7fa8169a1d5121.html" target="_top" xlink:title="gen_struc">
<polygon fill="#a4b1d4" stroke="#404040" points="110.5,-52 51.5,-52 51.5,-16 110.5,-16 110.5,-52"/>
<text text-anchor="middle" x="81" y="-31.5" font-family="Helvetica,sans-Serif" font-size="10.00">gen_struc</text>
</a>
</g>
</g>
<!-- dir_c6b3506109318da869165b36926fcb30 -->
<g id="node8" class="node">
<title>dir_c6b3506109318da869165b36926fcb30</title>
<g id="a_node8"><a xlink:href="dir_c6b3506109318da869165b36926fcb30.html" target="_top" xlink:title="generated">
<polygon fill="#a4b1d4" stroke="#404040" points="187.5,-52 128.5,-52 128.5,-16 187.5,-16 187.5,-52"/>
<text text-anchor="middle" x="158" y="-31.5" font-family="Helvetica,sans-Serif" font-size="10.00">generated</text>
</a>
</g>
</g>
<!-- dir_5846fc54e97a18e854afcef0d32856ce -->
<g id="node9" class="node">
<title>dir_5846fc54e97a18e854afcef0d32856ce</title>
<g id="a_node9"><a xlink:href="dir_5846fc54e97a18e854afcef0d32856ce.html" target="_top" xlink:title="heartbeat">
<polygon fill="#a4b1d4" stroke="#404040" points="262.5,-52 205.5,-52 205.5,-16 262.5,-16 262.5,-52"/>
<text text-anchor="middle" x="234" y="-31.5" font-family="Helvetica,sans-Serif" font-size="10.00">heartbeat</text>
</a>
</g>
</g>
<!-- dir_93ef7a03ae011ca5032e526d863e8f9f&#45;&gt;dir_d9748d221ba7faa83f7fa8169a1d5121 -->
<g id="edge6" class="edge">
<title>dir_93ef7a03ae011ca5032e526d863e8f9f&#45;&gt;dir_d9748d221ba7faa83f7fa8169a1d5121</title>
<path fill="none" stroke="black" d="M218.92,-93.73C193.38,-83.07 154.03,-66.57 120,-52 119.91,-51.96 119.81,-51.92 119.72,-51.88"/>
<polygon fill="black" stroke="black" points="121.36,-48.78 110.79,-48.03 118.59,-55.21 121.36,-48.78"/>
<g id="a_edge6&#45;headlabel"><a xlink:href="dir_000015_000011.html" target="_top" xlink:title="1">
<text text-anchor="middle" x="125.79" y="-45.09" font-family="Helvetica,sans-Serif" font-size="10.00">1</text>
</a>
</g>
</g>
<!-- dir_93ef7a03ae011ca5032e526d863e8f9f&#45;&gt;dir_c6b3506109318da869165b36926fcb30 -->
<g id="edge5" class="edge">
<title>dir_93ef7a03ae011ca5032e526d863e8f9f&#45;&gt;dir_c6b3506109318da869165b36926fcb30</title>
<path fill="none" stroke="black" d="M224.25,-87.7C213.16,-78.88 199.53,-68.03 187.51,-58.47"/>
<polygon fill="black" stroke="black" points="189.51,-55.59 179.5,-52.1 185.15,-61.07 189.51,-55.59"/>
<g id="a_edge5&#45;headlabel"><a xlink:href="dir_000015_000012.html" target="_top" xlink:title="1">
<text text-anchor="middle" x="194.09" y="-53.11" font-family="Helvetica,sans-Serif" font-size="10.00">1</text>
</a>
</g>
</g>
<!-- dir_93ef7a03ae011ca5032e526d863e8f9f&#45;&gt;dir_5846fc54e97a18e854afcef0d32856ce -->
<g id="edge2" class="edge">
<title>dir_93ef7a03ae011ca5032e526d863e8f9f&#45;&gt;dir_5846fc54e97a18e854afcef0d32856ce</title>
<path fill="none" stroke="black" d="M243.03,-87.7C241.71,-79.98 240.12,-70.71 238.65,-62.11"/>
<polygon fill="black" stroke="black" points="242.07,-61.37 236.93,-52.1 235.17,-62.55 242.07,-61.37"/>
<g id="a_edge2&#45;headlabel"><a xlink:href="dir_000015_000013.html" target="_top" xlink:title="1">
<text text-anchor="middle" x="245.48" y="-61.93" font-family="Helvetica,sans-Serif" font-size="10.00">1</text>
</a>
</g>
</g>
<!-- dir_b3cdc8b392a41de52e9504248ea8e7e8 -->
<g id="node13" class="node">
<title>dir_b3cdc8b392a41de52e9504248ea8e7e8</title>
<g id="a_node13"><a xlink:href="dir_b3cdc8b392a41de52e9504248ea8e7e8.html" target="_top" xlink:title="text_mesh">
<polygon fill="#a4b1d4" stroke="#404040" points="509,-52 447,-52 447,-16 509,-16 509,-52"/>
<text text-anchor="middle" x="478" y="-31.5" font-family="Helvetica,sans-Serif" font-size="10.00">text_mesh</text>
</a>
</g>
</g>
<!-- dir_93ef7a03ae011ca5032e526d863e8f9f&#45;&gt;dir_b3cdc8b392a41de52e9504248ea8e7e8 -->
<g id="edge4" class="edge">
<title>dir_93ef7a03ae011ca5032e526d863e8f9f&#45;&gt;dir_b3cdc8b392a41de52e9504248ea8e7e8</title>
<path fill="none" stroke="black" d="M273.06,-98.73C308.72,-90.21 373.48,-73.86 436.95,-52.15"/>
<polygon fill="black" stroke="black" points="438.41,-55.35 446.71,-48.76 436.12,-48.73 438.41,-55.35"/>
<g id="a_edge4&#45;headlabel"><a xlink:href="dir_000015_000024.html" target="_top" xlink:title="1">
<text text-anchor="middle" x="435.94" y="-56.71" font-family="Helvetica,sans-Serif" font-size="10.00">1</text>
</a>
</g>
</g>
<!-- dir_f1045338104a6f1bc5c5f037b0ca9be2 -->
<g id="node14" class="node">
<title>dir_f1045338104a6f1bc5c5f037b0ca9be2</title>
<g id="a_node14"><a xlink:href="dir_f1045338104a6f1bc5c5f037b0ca9be2.html" target="_top" xlink:title="transform">
<polygon fill="#a4b1d4" stroke="#404040" points="339,-52 281,-52 281,-16 339,-16 339,-52"/>
<text text-anchor="middle" x="310" y="-31.5" font-family="Helvetica,sans-Serif" font-size="10.00">transform</text>
</a>
</g>
</g>
<!-- dir_93ef7a03ae011ca5032e526d863e8f9f&#45;&gt;dir_f1045338104a6f1bc5c5f037b0ca9be2 -->
<g id="edge7" class="edge">
<title>dir_93ef7a03ae011ca5032e526d863e8f9f&#45;&gt;dir_f1045338104a6f1bc5c5f037b0ca9be2</title>
<path fill="none" stroke="black" d="M261.82,-87.7C269.57,-79.22 279.04,-68.86 287.52,-59.58"/>
<polygon fill="black" stroke="black" points="290.2,-61.85 294.36,-52.1 285.03,-57.12 290.2,-61.85"/>
<g id="a_edge7&#45;headlabel"><a xlink:href="dir_000015_000025.html" target="_top" xlink:title="1">
<text text-anchor="middle" x="289.87" y="-63.92" font-family="Helvetica,sans-Serif" font-size="10.00">1</text>
</a>
</g>
</g>
<!-- dir_b00de47ad7e2e13a637d9aa605dec95e -->
<g id="node17" class="node">
<title>dir_b00de47ad7e2e13a637d9aa605dec95e</title>
<g id="a_node17"><a xlink:href="dir_b00de47ad7e2e13a637d9aa605dec95e.html" target="_top" xlink:title="visualization">
<polygon fill="#a4b1d4" stroke="#404040" points="428.5,-52 357.5,-52 357.5,-16 428.5,-16 428.5,-52"/>
<text text-anchor="middle" x="393" y="-31.5" font-family="Helvetica,sans-Serif" font-size="10.00">visualization</text>
</a>
</g>
</g>
<!-- dir_93ef7a03ae011ca5032e526d863e8f9f&#45;&gt;dir_b00de47ad7e2e13a637d9aa605dec95e -->
<g id="edge3" class="edge">
<title>dir_93ef7a03ae011ca5032e526d863e8f9f&#45;&gt;dir_b00de47ad7e2e13a637d9aa605dec95e</title>
<path fill="none" stroke="black" d="M273.31,-92C294.29,-82.01 323.72,-67.99 348.14,-56.36"/>
<polygon fill="black" stroke="black" points="349.71,-59.49 357.23,-52.03 346.7,-53.17 349.71,-59.49"/>
<g id="a_edge3&#45;headlabel"><a xlink:href="dir_000015_000030.html" target="_top" xlink:title="2">
<text text-anchor="middle" x="347.68" y="-61.1" font-family="Helvetica,sans-Serif" font-size="10.00">2</text>
</a>
</g>
</g>
<!-- dir_5eb159725f84c66aafd839904a4acdd0 -->
<g id="node11" class="node">
<title>dir_5eb159725f84c66aafd839904a4acdd0</title>
<g id="a_node11"><a xlink:href="dir_5eb159725f84c66aafd839904a4acdd0.html" target="_top" xlink:title="main">
<polygon fill="#a4b1d4" stroke="#404040" points="142,-196 88,-196 88,-160 142,-160 142,-196"/>
<text text-anchor="middle" x="115" y="-175.5" font-family="Helvetica,sans-Serif" font-size="10.00">main</text>
</a>
</g>
</g>
<!-- dir_5eb159725f84c66aafd839904a4acdd0&#45;&gt;dir_f371e9dd6e225bf8e20e121e59bab5bd -->
<g id="edge9" class="edge">
<title>dir_5eb159725f84c66aafd839904a4acdd0&#45;&gt;dir_f371e9dd6e225bf8e20e121e59bab5bd</title>
<path fill="none" stroke="black" d="M115,-159.7C115,-151.98 115,-142.71 115,-134.11"/>
<polygon fill="black" stroke="black" points="118.5,-134.1 115,-124.1 111.5,-134.1 118.5,-134.1"/>
<g id="a_edge9&#45;headlabel"><a xlink:href="dir_000017_000003.html" target="_top" xlink:title="4">
<text text-anchor="middle" x="121.34" y="-135.2" font-family="Helvetica,sans-Serif" font-size="10.00">4</text>
</a>
</g>
</g>
<!-- dir_5eb159725f84c66aafd839904a4acdd0&#45;&gt;dir_93ef7a03ae011ca5032e526d863e8f9f -->
<g id="edge8" class="edge">
<title>dir_5eb159725f84c66aafd839904a4acdd0&#45;&gt;dir_93ef7a03ae011ca5032e526d863e8f9f</title>
<path fill="none" stroke="black" d="M142.14,-162.5C161.82,-151.98 188.62,-137.66 210.06,-126.2"/>
<polygon fill="black" stroke="black" points="211.72,-129.29 218.89,-121.49 208.42,-123.11 211.72,-129.29"/>
<g id="a_edge8&#45;headlabel"><a xlink:href="dir_000017_000015.html" target="_top" xlink:title="11">
<text text-anchor="middle" x="209.89" y="-130.98" font-family="Helvetica,sans-Serif" font-size="10.00">11</text>
</a>
</g>
</g>
<!-- dir_be2047caa5b35c3f03db5004bfd43303 -->
<g id="node12" class="node">
<title>dir_be2047caa5b35c3f03db5004bfd43303</title>
<g id="a_node12"><a xlink:href="dir_be2047caa5b35c3f03db5004bfd43303.html" target="_top" xlink:title="pamgen">
<polygon fill="#a4b1d4" stroke="#404040" points="214,-196 160,-196 160,-160 214,-160 214,-196"/>
<text text-anchor="middle" x="187" y="-175.5" font-family="Helvetica,sans-Serif" font-size="10.00">pamgen</text>
</a>
</g>
</g>
<!-- dir_33cfd5db86fcb3abafc781b49053bebf -->
<g id="node15" class="node">
<title>dir_33cfd5db86fcb3abafc781b49053bebf</title>
<g id="a_node15"><a xlink:href="dir_33cfd5db86fcb3abafc781b49053bebf.html" target="_top" xlink:title="unit_tests">
<polygon fill="#a4b1d4" stroke="#404040" points="507.5,-196 448.5,-196 448.5,-160 507.5,-160 507.5,-196"/>
<text text-anchor="middle" x="478" y="-175.5" font-family="Helvetica,sans-Serif" font-size="10.00">unit_tests</text>
</a>
</g>
</g>
<!-- dir_33cfd5db86fcb3abafc781b49053bebf&#45;&gt;dir_93ef7a03ae011ca5032e526d863e8f9f -->
<g id="edge10" class="edge">
<title>dir_33cfd5db86fcb3abafc781b49053bebf&#45;&gt;dir_93ef7a03ae011ca5032e526d863e8f9f</title>
<path fill="none" stroke="black" d="M448.36,-163.56C445.23,-162.29 442.06,-161.08 439,-160 385.77,-141.2 322.36,-124.91 283.14,-115.52"/>
<polygon fill="black" stroke="black" points="283.76,-112.07 273.23,-113.17 282.15,-118.89 283.76,-112.07"/>
<g id="a_edge10&#45;headlabel"><a xlink:href="dir_000026_000015.html" target="_top" xlink:title="1">
<text text-anchor="middle" x="287.92" y="-107.64" font-family="Helvetica,sans-Serif" font-size="10.00">1</text>
</a>
</g>
</g>
<!-- dir_33cfd5db86fcb3abafc781b49053bebf&#45;&gt;dir_b3cdc8b392a41de52e9504248ea8e7e8 -->
<g id="edge11" class="edge">
<title>dir_33cfd5db86fcb3abafc781b49053bebf&#45;&gt;dir_b3cdc8b392a41de52e9504248ea8e7e8</title>
<path fill="none" stroke="black" d="M478,-159.87C478,-135.67 478,-91.21 478,-62.39"/>
<polygon fill="black" stroke="black" points="481.5,-62.19 478,-52.19 474.5,-62.19 481.5,-62.19"/>
<g id="a_edge11&#45;headlabel"><a xlink:href="dir_000026_000024.html" target="_top" xlink:title="4">
<text text-anchor="middle" x="484.34" y="-63.28" font-family="Helvetica,sans-Serif" font-size="10.00">4</text>
</a>
</g>
</g>
<!-- dir_20af8c6db4866732b8ca049c99f4ebff -->
<g id="node16" class="node">
<title>dir_20af8c6db4866732b8ca049c99f4ebff</title>
<g id="a_node16"><a xlink:href="dir_20af8c6db4866732b8ca049c99f4ebff.html" target="_top" xlink:title="utest">
<polygon fill="#a4b1d4" stroke="#404040" points="70,-196 16,-196 16,-160 70,-160 70,-196"/>
<text text-anchor="middle" x="43" y="-175.5" font-family="Helvetica,sans-Serif" font-size="10.00">utest</text>
</a>
</g>
</g>
<!-- dir_20af8c6db4866732b8ca049c99f4ebff&#45;&gt;dir_f371e9dd6e225bf8e20e121e59bab5bd -->
<g id="edge14" class="edge">
<title>dir_20af8c6db4866732b8ca049c99f4ebff&#45;&gt;dir_f371e9dd6e225bf8e20e121e59bab5bd</title>
<path fill="none" stroke="black" d="M60.8,-159.7C69.6,-151.14 80.38,-140.66 90,-131.3"/>
<polygon fill="black" stroke="black" points="92.68,-133.58 97.41,-124.1 87.8,-128.57 92.68,-133.58"/>
<g id="a_edge14&#45;headlabel"><a xlink:href="dir_000028_000003.html" target="_top" xlink:title="3">
<text text-anchor="middle" x="92.08" y="-135.63" font-family="Helvetica,sans-Serif" font-size="10.00">3</text>
</a>
</g>
</g>
<!-- dir_20af8c6db4866732b8ca049c99f4ebff&#45;&gt;dir_e151c116100f0d05a91a56b2b7518180 -->
<g id="edge13" class="edge">
<title>dir_20af8c6db4866732b8ca049c99f4ebff&#45;&gt;dir_e151c116100f0d05a91a56b2b7518180</title>
<path fill="none" stroke="black" d="M43,-159.7C43,-151.98 43,-142.71 43,-134.11"/>
<polygon fill="black" stroke="black" points="46.5,-134.1 43,-124.1 39.5,-134.1 46.5,-134.1"/>
<g id="a_edge13&#45;headlabel"><a xlink:href="dir_000028_000006.html" target="_top" xlink:title="2">
<text text-anchor="middle" x="49.34" y="-135.2" font-family="Helvetica,sans-Serif" font-size="10.00">2</text>
</a>
</g>
</g>
<!-- dir_20af8c6db4866732b8ca049c99f4ebff&#45;&gt;dir_93ef7a03ae011ca5032e526d863e8f9f -->
<g id="edge12" class="edge">
<title>dir_20af8c6db4866732b8ca049c99f4ebff&#45;&gt;dir_93ef7a03ae011ca5032e526d863e8f9f</title>
<path fill="none" stroke="black" d="M70.35,-163.62C73.25,-162.34 76.17,-161.11 79,-160 122.75,-142.82 174.52,-127.07 208.7,-117.28"/>
<polygon fill="black" stroke="black" points="210.05,-120.54 218.71,-114.44 208.14,-113.8 210.05,-120.54"/>
<g id="a_edge12&#45;headlabel"><a xlink:href="dir_000028_000015.html" target="_top" xlink:title="2">
<text text-anchor="middle" x="207.36" y="-121.75" font-family="Helvetica,sans-Serif" font-size="10.00">2</text>
</a>
</g>
</g>
</g>
</svg>
        <g id="navigator" transform="translate(0 0)" fill="#404254">
                <rect fill="#f2f5e9" fill-opacity="0.5" stroke="#606060" stroke-width=".5" x="0" y="0" width="60" height="60"/>
                <use id="zoomplus" xlink:href="#zoomPlus" x="17" y="9" onmousedown="handleZoom(evt,'in')"/>
                <use id="zoomminus" xlink:href="#zoomMin" x="42" y="9" onmousedown="handleZoom(evt,'out')"/>
                <use id="reset" xlink:href="#resetDef" x="30" y="36" onmousedown="handleReset()"/>
                <g id="arrowUp" xlink:href="#dirArrow" transform="translate(30 24)" onmousedown="handlePan(0,-1)">
                  <use xlink:href="#rim" fill="#404040">
                        <set attributeName="fill" to="#808080" begin="arrowUp.mouseover" end="arrowUp.mouseout"/>
                  </use>
                  <path fill="none" stroke="white" stroke-width="1.5" d="M0,-3.0v7 M-2.5,-0.5L0,-3.0L2.5,-0.5"/>
                </g>
                <g id="arrowRight" xlink:href="#dirArrow" transform="rotate(90) translate(36 -43)" onmousedown="handlePan(1,0)">
                  <use xlink:href="#rim" fill="#404040">
                        <set attributeName="fill" to="#808080" begin="arrowRight.mouseover" end="arrowRight.mouseout"/>
                  </use>
                  <path fill="none" stroke="white" stroke-width="1.5" d="M0,-3.0v7 M-2.5,-0.5L0,-3.0L2.5,-0.5"/>
                </g>
                <g id="arrowDown" xlink:href="#dirArrow" transform="rotate(180) translate(-30 -48)" onmousedown="handlePan(0,1)">
                  <use xlink:href="#rim" fill="#404040">
                        <set attributeName="fill" to="#808080" begin="arrowDown.mouseover" end="arrowDown.mouseout"/>
                  </use>
                  <path fill="none" stroke="white" stroke-width="1.5" d="M0,-3.0v7 M-2.5,-0.5L0,-3.0L2.5,-0.5"/>
                </g>
                <g id="arrowLeft" xlink:href="#dirArrow" transform="rotate(270) translate(-36 17)" onmousedown="handlePan(-1,0)">
                  <use xlink:href="#rim" fill="#404040">
                        <set attributeName="fill" to="#808080" begin="arrowLeft.mouseover" end="arrowLeft.mouseout"/>
                  </use>
                  <path fill="none" stroke="white" stroke-width="1.5" d="M0,-3.0v7 M-2.5,-0.5L0,-3.0L2.5,-0.5"/>
                </g>
        </g>
        <svg viewBox="0 0 15 15" width="100%" height="30px" preserveAspectRatio="xMaxYMin meet">
         <g id="arrow_out" transform="scale(0.3 0.3)">
          <a xlink:href="dir_68267d1309a1af8e8297ef4c3efbcdba_dep_org.svg" target="_base">
           <rect id="button" ry="5" rx="5" y="6" x="6" height="38" width="38"
                fill="#f2f5e9" fill-opacity="0.5" stroke="#606060" stroke-width="1.0"/>
           <path id="arrow"
             d="M 11.500037,31.436501 C 11.940474,20.09759 22.043105,11.32322 32.158766,21.979434 L 37.068811,17.246167 C 37.068811,17.246167 37.088388,32 37.088388,32 L 22.160133,31.978069 C 22.160133,31.978069 26.997745,27.140456 26.997745,27.140456 C 18.528582,18.264221 13.291696,25.230495 11.500037,31.436501 z"
             style="fill:#404040;"/>
          </a>
         </g>
        </svg>
</svg>
