<?xml version="1.0" encoding="UTF-8" standalone="no"?>
<!DOCTYPE svg PUBLIC "-//W3C//DTD SVG 1.1//EN"
 "http://www.w3.org/Graphics/SVG/1.1/DTD/svg11.dtd">
<!-- Generated by graphviz version 12.0.0 (20240704.0754)
 -->
<!-- Title: src Pages: 1 -->
<svg width="670pt" height="225pt"
 viewBox="0.00 0.00 670.00 225.00" xmlns="http://www.w3.org/2000/svg" xmlns:xlink="http://www.w3.org/1999/xlink">
<g id="graph0" class="graph" transform="scale(1 1) rotate(0) translate(4 221)">
<title>src</title>
<g id="clust1" class="cluster">
<title>clusterdir_68267d1309a1af8e8297ef4c3efbcdba</title>
<g id="a_clust1"><a xlink:href="dir_68267d1309a1af8e8297ef4c3efbcdba.html" target="_top">
<polygon fill="#edeff6" stroke="#404040" stroke-width="2" points="8,-8 8,-209 654,-209 654,-8 8,-8"/>
</a>
</g>
</g>
<!-- dir_68267d1309a1af8e8297ef4c3efbcdba -->
<g id="node1" class="node">
<title>dir_68267d1309a1af8e8297ef4c3efbcdba</title>
<text text-anchor="middle" x="51" y="-77" font-family="Helvetica,sans-Serif" font-size="10.00">src</text>
</g>
<!-- dir_b2470cdf236b10787c6012057be7848d -->
<g id="node6" class="node">
<title>dir_b2470cdf236b10787c6012057be7848d</title>
<g id="a_node6"><a xlink:href="dir_b2470cdf236b10787c6012057be7848d.html" target="_top" xlink:title="elements">
<polygon fill="#a4b1d4" stroke="#404040" points="584.88,-35.25 529.12,-35.25 529.12,-16 584.88,-16 584.88,-35.25"/>
<text text-anchor="middle" x="557" y="-21.75" font-family="Helvetica,sans-Serif" font-size="10.00">elements</text>
</a>
</g>
</g>
<!-- dir_68267d1309a1af8e8297ef4c3efbcdba&#45;&gt;dir_b2470cdf236b10787c6012057be7848d -->
<g id="edge1" class="edge">
<title>dir_68267d1309a1af8e8297ef4c3efbcdba&#45;&gt;dir_b2470cdf236b10787c6012057be7848d</title>
<g id="a_edge1"><a xlink:href="dir_000025_000007.html" target="_top">
<path fill="none" stroke="#63b8ff" d="M65.55,-73.98C68.63,-72.93 71.89,-71.94 75,-71.25 236.27,-35.41 434.08,-28.3 517.22,-26.93"/>
<polygon fill="#63b8ff" stroke="#63b8ff" points="517.17,-30.43 527.12,-26.79 517.07,-23.43 517.17,-30.43"/>
</a>
</g>
<g id="a_edge1&#45;headlabel"><a xlink:href="dir_000025_000007.html" target="_top" xlink:title="106">
<text text-anchor="middle" x="515.13" y="-29.42" font-family="Helvetica,sans-Serif" font-size="10.00" fill="#63b8ff">106</text>
</a>
</g>
</g>
<!-- dir_0848929091a9f16efa00791d442ff009 -->
<g id="node2" class="node">
<title>dir_0848929091a9f16efa00791d442ff009</title>
<g id="a_node2"><a xlink:href="dir_0848929091a9f16efa00791d442ff009.html" target="_top" xlink:title="adios">
<polygon fill="#a4b1d4" stroke="#404040" points="645.62,-145.75 606.38,-145.75 606.38,-126.5 645.62,-126.5 645.62,-145.75"/>
<text text-anchor="middle" x="626" y="-132.25" font-family="Helvetica,sans-Serif" font-size="10.00">adios</text>
</a>
</g>
</g>
<!-- dir_af265b1534f12fcb75d0f59f114e3cf8 -->
<g id="node3" class="node">
<title>dir_af265b1534f12fcb75d0f59f114e3cf8</title>
<g id="a_node3"><a xlink:href="dir_af265b1534f12fcb75d0f59f114e3cf8.html" target="_top" xlink:title="catalyst">
<polygon fill="#a4b1d4" stroke="#404040" points="66.25,-145.75 15.75,-145.75 15.75,-126.5 66.25,-126.5 66.25,-145.75"/>
<text text-anchor="middle" x="41" y="-132.25" font-family="Helvetica,sans-Serif" font-size="10.00">catalyst</text>
</a>
</g>
</g>
<!-- dir_ac9cd0583d385ca96a257b3a47e3fd98 -->
<g id="node4" class="node">
<title>dir_ac9cd0583d385ca96a257b3a47e3fd98</title>
<g id="a_node4"><a xlink:href="dir_ac9cd0583d385ca96a257b3a47e3fd98.html" target="_top" xlink:title="catalyst_tests">
<polygon fill="#a4b1d4" stroke="#404040" points="93.75,-201 16.25,-201 16.25,-181.75 93.75,-181.75 93.75,-201"/>
<text text-anchor="middle" x="55" y="-187.5" font-family="Helvetica,sans-Serif" font-size="10.00">catalyst_tests</text>
</a>
</g>
</g>
<!-- dir_ac9cd0583d385ca96a257b3a47e3fd98&#45;&gt;dir_af265b1534f12fcb75d0f59f114e3cf8 -->
<g id="edge3" class="edge">
<title>dir_ac9cd0583d385ca96a257b3a47e3fd98&#45;&gt;dir_af265b1534f12fcb75d0f59f114e3cf8</title>
<g id="a_edge3"><a xlink:href="dir_000003_000001.html" target="_top">
<path fill="none" stroke="#63b8ff" d="M52.69,-181.58C50.94,-174.92 48.46,-165.49 46.23,-157.03"/>
<polygon fill="#63b8ff" stroke="#63b8ff" points="49.67,-156.35 43.75,-147.57 42.9,-158.13 49.67,-156.35"/>
</a>
</g>
<g id="a_edge3&#45;headlabel"><a xlink:href="dir_000003_000001.html" target="_top" xlink:title="9">
<text text-anchor="middle" x="52.95" y="-153.77" font-family="Helvetica,sans-Serif" font-size="10.00" fill="#63b8ff">9</text>
</a>
</g>
</g>
<!-- dir_93ef7a03ae011ca5032e526d863e8f9f -->
<g id="node13" class="node">
<title>dir_93ef7a03ae011ca5032e526d863e8f9f</title>
<g id="a_node13"><a xlink:href="dir_93ef7a03ae011ca5032e526d863e8f9f.html" target="_top" xlink:title="init">
<polygon fill="#a4b1d4" stroke="#404040" points="356.4,-145.75 327.6,-145.75 327.6,-126.5 356.4,-126.5 356.4,-145.75"/>
<text text-anchor="middle" x="342" y="-132.25" font-family="Helvetica,sans-Serif" font-size="10.00">init</text>
</a>
</g>
</g>
<!-- dir_ac9cd0583d385ca96a257b3a47e3fd98&#45;&gt;dir_93ef7a03ae011ca5032e526d863e8f9f -->
<g id="edge2" class="edge">
<title>dir_ac9cd0583d385ca96a257b3a47e3fd98&#45;&gt;dir_93ef7a03ae011ca5032e526d863e8f9f</title>
<g id="a_edge2"><a xlink:href="dir_000003_000017.html" target="_top">
<path fill="none" stroke="#63b8ff" d="M94,-183.14C153.61,-172.08 265.76,-151.27 316.24,-141.91"/>
<polygon fill="#63b8ff" stroke="#63b8ff" points="316.72,-145.38 325.91,-140.11 315.44,-138.49 316.72,-145.38"/>
</a>
</g>
<g id="a_edge2&#45;headlabel"><a xlink:href="dir_000003_000017.html" target="_top" xlink:title="1">
<text text-anchor="middle" x="315.19" y="-144.67" font-family="Helvetica,sans-Serif" font-size="10.00" fill="#63b8ff">1</text>
</a>
</g>
</g>
<!-- dir_f371e9dd6e225bf8e20e121e59bab5bd -->
<g id="node5" class="node">
<title>dir_f371e9dd6e225bf8e20e121e59bab5bd</title>
<g id="a_node5"><a xlink:href="dir_f371e9dd6e225bf8e20e121e59bab5bd.html" target="_top" xlink:title="cgns">
<polygon fill="#a4b1d4" stroke="#404040" points="502.5,-145.75 465.5,-145.75 465.5,-126.5 502.5,-126.5 502.5,-145.75"/>
<text text-anchor="middle" x="484" y="-132.25" font-family="Helvetica,sans-Serif" font-size="10.00">cgns</text>
</a>
</g>
</g>
<!-- dir_f371e9dd6e225bf8e20e121e59bab5bd&#45;&gt;dir_b2470cdf236b10787c6012057be7848d -->
<g id="edge4" class="edge">
<title>dir_f371e9dd6e225bf8e20e121e59bab5bd&#45;&gt;dir_b2470cdf236b10787c6012057be7848d</title>
<g id="a_edge4"><a xlink:href="dir_000004_000007.html" target="_top">
<path fill="none" stroke="#63b8ff" d="M502.82,-129.09C537.16,-117.99 606.78,-95.06 610,-90.5 622.39,-72.96 602.4,-54.2 583.52,-41.58"/>
<polygon fill="#63b8ff" stroke="#63b8ff" points="585.55,-38.72 575.21,-36.38 581.84,-44.65 585.55,-38.72"/>
</a>
</g>
<g id="a_edge4&#45;headlabel"><a xlink:href="dir_000004_000007.html" target="_top" xlink:title="24">
<text text-anchor="middle" x="588.82" y="-33.54" font-family="Helvetica,sans-Serif" font-size="10.00" fill="#63b8ff">24</text>
</a>
</g>
</g>
<!-- dir_e151c116100f0d05a91a56b2b7518180 -->
<g id="node7" class="node">
<title>dir_e151c116100f0d05a91a56b2b7518180</title>
<g id="a_node7"><a xlink:href="dir_e151c116100f0d05a91a56b2b7518180.html" target="_top" xlink:title="exodus">
<polygon fill="#a4b1d4" stroke="#404040" points="567.75,-145.75 520.25,-145.75 520.25,-126.5 567.75,-126.5 567.75,-145.75"/>
<text text-anchor="middle" x="544" y="-132.25" font-family="Helvetica,sans-Serif" font-size="10.00">exodus</text>
</a>
</g>
</g>
<!-- dir_c7bcf3d282a3c2837f6a3ce1021981ee -->
<g id="node8" class="node">
<title>dir_c7bcf3d282a3c2837f6a3ce1021981ee</title>
<g id="a_node8"><a xlink:href="dir_c7bcf3d282a3c2837f6a3ce1021981ee.html" target="_top" xlink:title="exonull">
<polygon fill="#a4b1d4" stroke="#404040" points="158.38,-201 111.62,-201 111.62,-181.75 158.38,-181.75 158.38,-201"/>
<text text-anchor="middle" x="135" y="-187.5" font-family="Helvetica,sans-Serif" font-size="10.00">exonull</text>
</a>
</g>
</g>
<!-- dir_597d0759dbb1de7f25512648fd041786 -->
<g id="node9" class="node">
<title>dir_597d0759dbb1de7f25512648fd041786</title>
<g id="a_node9"><a xlink:href="dir_597d0759dbb1de7f25512648fd041786.html" target="_top" xlink:title="faodel">
<polygon fill="#a4b1d4" stroke="#404040" points="219.12,-201 176.88,-201 176.88,-181.75 219.12,-181.75 219.12,-201"/>
<text text-anchor="middle" x="198" y="-187.5" font-family="Helvetica,sans-Serif" font-size="10.00">faodel</text>
</a>
</g>
</g>
<!-- dir_d9748d221ba7faa83f7fa8169a1d5121 -->
<g id="node10" class="node">
<title>dir_d9748d221ba7faa83f7fa8169a1d5121</title>
<g id="a_node10"><a xlink:href="dir_d9748d221ba7faa83f7fa8169a1d5121.html" target="_top" xlink:title="gen_struc">
<polygon fill="#a4b1d4" stroke="#404040" points="586.38,-90.5 527.62,-90.5 527.62,-71.25 586.38,-71.25 586.38,-90.5"/>
<text text-anchor="middle" x="557" y="-77" font-family="Helvetica,sans-Serif" font-size="10.00">gen_struc</text>
</a>
</g>
</g>
<!-- dir_d9748d221ba7faa83f7fa8169a1d5121&#45;&gt;dir_b2470cdf236b10787c6012057be7848d -->
<g id="edge5" class="edge">
<title>dir_d9748d221ba7faa83f7fa8169a1d5121&#45;&gt;dir_b2470cdf236b10787c6012057be7848d</title>
<g id="a_edge5"><a xlink:href="dir_000014_000007.html" target="_top">
<path fill="none" stroke="#63b8ff" d="M557,-71.08C557,-64.57 557,-55.42 557,-47.12"/>
<polygon fill="#63b8ff" stroke="#63b8ff" points="560.5,-47.12 557,-37.12 553.5,-47.12 560.5,-47.12"/>
</a>
</g>
<g id="a_edge5&#45;headlabel"><a xlink:href="dir_000014_000007.html" target="_top" xlink:title="1">
<text text-anchor="middle" x="563.34" y="-45.33" font-family="Helvetica,sans-Serif" font-size="10.00" fill="#63b8ff">1</text>
</a>
</g>
</g>
<!-- dir_c6b3506109318da869165b36926fcb30 -->
<g id="node11" class="node">
<title>dir_c6b3506109318da869165b36926fcb30</title>
<g id="a_node11"><a xlink:href="dir_c6b3506109318da869165b36926fcb30.html" target="_top" xlink:title="generated">
<polygon fill="#a4b1d4" stroke="#404040" points="509.38,-90.5 450.62,-90.5 450.62,-71.25 509.38,-71.25 509.38,-90.5"/>
<text text-anchor="middle" x="480" y="-77" font-family="Helvetica,sans-Serif" font-size="10.00">generated</text>
</a>
</g>
</g>
<!-- dir_c6b3506109318da869165b36926fcb30&#45;&gt;dir_b2470cdf236b10787c6012057be7848d -->
<g id="edge6" class="edge">
<title>dir_c6b3506109318da869165b36926fcb30&#45;&gt;dir_b2470cdf236b10787c6012057be7848d</title>
<g id="a_edge6"><a xlink:href="dir_000015_000007.html" target="_top">
<path fill="none" stroke="#63b8ff" d="M493.06,-70.84C504.46,-62.96 521.23,-51.36 534.74,-42.02"/>
<polygon fill="#63b8ff" stroke="#63b8ff" points="536.4,-45.13 542.63,-36.56 532.41,-39.37 536.4,-45.13"/>
</a>
</g>
<g id="a_edge6&#45;headlabel"><a xlink:href="dir_000015_000007.html" target="_top" xlink:title="8">
<text text-anchor="middle" x="536.3" y="-44.77" font-family="Helvetica,sans-Serif" font-size="10.00" fill="#63b8ff">8</text>
</a>
</g>
</g>
<!-- dir_5846fc54e97a18e854afcef0d32856ce -->
<g id="node12" class="node">
<title>dir_5846fc54e97a18e854afcef0d32856ce</title>
<g id="a_node12"><a xlink:href="dir_5846fc54e97a18e854afcef0d32856ce.html" target="_top" xlink:title="heartbeat">
<polygon fill="#a4b1d4" stroke="#404040" points="308.25,-90.5 251.75,-90.5 251.75,-71.25 308.25,-71.25 308.25,-90.5"/>
<text text-anchor="middle" x="280" y="-77" font-family="Helvetica,sans-Serif" font-size="10.00">heartbeat</text>
</a>
</g>
</g>
<!-- dir_93ef7a03ae011ca5032e526d863e8f9f&#45;&gt;dir_d9748d221ba7faa83f7fa8169a1d5121 -->
<g id="edge12" class="edge">
<title>dir_93ef7a03ae011ca5032e526d863e8f9f&#45;&gt;dir_d9748d221ba7faa83f7fa8169a1d5121</title>
<g id="a_edge12"><a xlink:href="dir_000017_000014.html" target="_top">
<path fill="none" stroke="#63b8ff" d="M356.78,-131.46C389.28,-123.42 467.91,-103.94 516.4,-91.93"/>
<polygon fill="#63b8ff" stroke="#63b8ff" points="517.11,-95.36 525.97,-89.56 515.42,-88.57 517.11,-95.36"/>
</a>
</g>
<g id="a_edge12&#45;headlabel"><a xlink:href="dir_000017_000014.html" target="_top" xlink:title="1">
<text text-anchor="middle" x="515.77" y="-94.74" font-family="Helvetica,sans-Serif" font-size="10.00" fill="#63b8ff">1</text>
</a>
</g>
</g>
<!-- dir_93ef7a03ae011ca5032e526d863e8f9f&#45;&gt;dir_c6b3506109318da869165b36926fcb30 -->
<g id="edge11" class="edge">
<title>dir_93ef7a03ae011ca5032e526d863e8f9f&#45;&gt;dir_c6b3506109318da869165b36926fcb30</title>
<g id="a_edge11"><a xlink:href="dir_000017_000015.html" target="_top">
<path fill="none" stroke="#63b8ff" d="M356.77,-129.43C377.82,-121.3 417.08,-106.16 445.64,-95.13"/>
<polygon fill="#63b8ff" stroke="#63b8ff" points="446.9,-98.4 454.97,-91.53 444.38,-91.87 446.9,-98.4"/>
</a>
</g>
<g id="a_edge11&#45;headlabel"><a xlink:href="dir_000017_000015.html" target="_top" xlink:title="1">
<text text-anchor="middle" x="445.98" y="-97.92" font-family="Helvetica,sans-Serif" font-size="10.00" fill="#63b8ff">1</text>
</a>
</g>
</g>
<!-- dir_93ef7a03ae011ca5032e526d863e8f9f&#45;&gt;dir_5846fc54e97a18e854afcef0d32856ce -->
<g id="edge8" class="edge">
<title>dir_93ef7a03ae011ca5032e526d863e8f9f&#45;&gt;dir_5846fc54e97a18e854afcef0d32856ce</title>
<g id="a_edge8"><a xlink:href="dir_000017_000016.html" target="_top">
<path fill="none" stroke="#63b8ff" d="M331.48,-126.09C322.61,-118.47 309.69,-107.37 299.01,-98.2"/>
<polygon fill="#63b8ff" stroke="#63b8ff" points="301.38,-95.62 291.51,-91.76 296.82,-100.93 301.38,-95.62"/>
</a>
</g>
<g id="a_edge8&#45;headlabel"><a xlink:href="dir_000017_000016.html" target="_top" xlink:title="1">
<text text-anchor="middle" x="304.81" y="-90.95" font-family="Helvetica,sans-Serif" font-size="10.00" fill="#63b8ff">1</text>
</a>
</g>
</g>
<!-- dir_0ab50bcd8cd80e098352f9e5ffbba355 -->
<g id="node15" class="node">
<title>dir_0ab50bcd8cd80e098352f9e5ffbba355</title>
<g id="a_node15"><a xlink:href="dir_0ab50bcd8cd80e098352f9e5ffbba355.html" target="_top" xlink:title="null">
<polygon fill="#a4b1d4" stroke="#404040" points="357.5,-90.5 326.5,-90.5 326.5,-71.25 357.5,-71.25 357.5,-90.5"/>
<text text-anchor="middle" x="342" y="-77" font-family="Helvetica,sans-Serif" font-size="10.00">null</text>
</a>
</g>
</g>
<!-- dir_93ef7a03ae011ca5032e526d863e8f9f&#45;&gt;dir_0ab50bcd8cd80e098352f9e5ffbba355 -->
<g id="edge7" class="edge">
<title>dir_93ef7a03ae011ca5032e526d863e8f9f&#45;&gt;dir_0ab50bcd8cd80e098352f9e5ffbba355</title>
<g id="a_edge7"><a xlink:href="dir_000017_000021.html" target="_top">
<path fill="none" stroke="#63b8ff" d="M342,-126.33C342,-119.82 342,-110.67 342,-102.37"/>
<polygon fill="#63b8ff" stroke="#63b8ff" points="345.5,-102.37 342,-92.37 338.5,-102.37 345.5,-102.37"/>
</a>
</g>
<g id="a_edge7&#45;headlabel"><a xlink:href="dir_000017_000021.html" target="_top" xlink:title="1">
<text text-anchor="middle" x="348.34" y="-100.58" font-family="Helvetica,sans-Serif" font-size="10.00" fill="#63b8ff">1</text>
</a>
</g>
</g>
<!-- dir_b3cdc8b392a41de52e9504248ea8e7e8 -->
<g id="node17" class="node">
<title>dir_b3cdc8b392a41de52e9504248ea8e7e8</title>
<g id="a_node17"><a xlink:href="dir_b3cdc8b392a41de52e9504248ea8e7e8.html" target="_top" xlink:title="text_mesh">
<polygon fill="#a4b1d4" stroke="#404040" points="145.88,-90.5 84.12,-90.5 84.12,-71.25 145.88,-71.25 145.88,-90.5"/>
<text text-anchor="middle" x="115" y="-77" font-family="Helvetica,sans-Serif" font-size="10.00">text_mesh</text>
</a>
</g>
</g>
<!-- dir_93ef7a03ae011ca5032e526d863e8f9f&#45;&gt;dir_b3cdc8b392a41de52e9504248ea8e7e8 -->
<g id="edge10" class="edge">
<title>dir_93ef7a03ae011ca5032e526d863e8f9f&#45;&gt;dir_b3cdc8b392a41de52e9504248ea8e7e8</title>
<g id="a_edge10"><a xlink:href="dir_000017_000027.html" target="_top">
<path fill="none" stroke="#63b8ff" d="M327.11,-131.63C293.09,-123.65 208.64,-103.84 157.15,-91.76"/>
<polygon fill="#63b8ff" stroke="#63b8ff" points="158.08,-88.39 147.55,-89.51 156.48,-95.2 158.08,-88.39"/>
</a>
</g>
<g id="a_edge10&#45;headlabel"><a xlink:href="dir_000017_000027.html" target="_top" xlink:title="1">
<text text-anchor="middle" x="160.76" y="-82.22" font-family="Helvetica,sans-Serif" font-size="10.00" fill="#63b8ff">1</text>
</a>
</g>
</g>
<!-- dir_f1045338104a6f1bc5c5f037b0ca9be2 -->
<g id="node18" class="node">
<title>dir_f1045338104a6f1bc5c5f037b0ca9be2</title>
<g id="a_node18"><a xlink:href="dir_f1045338104a6f1bc5c5f037b0ca9be2.html" target="_top" xlink:title="transform">
<polygon fill="#a4b1d4" stroke="#404040" points="432.62,-90.5 375.38,-90.5 375.38,-71.25 432.62,-71.25 432.62,-90.5"/>
<text text-anchor="middle" x="404" y="-77" font-family="Helvetica,sans-Serif" font-size="10.00">transform</text>
</a>
</g>
</g>
<!-- dir_93ef7a03ae011ca5032e526d863e8f9f&#45;&gt;dir_f1045338104a6f1bc5c5f037b0ca9be2 -->
<g id="edge13" class="edge">
<title>dir_93ef7a03ae011ca5032e526d863e8f9f&#45;&gt;dir_f1045338104a6f1bc5c5f037b0ca9be2</title>
<g id="a_edge13"><a xlink:href="dir_000017_000028.html" target="_top">
<path fill="none" stroke="#63b8ff" d="M352.52,-126.09C361.39,-118.47 374.31,-107.37 384.99,-98.2"/>
<polygon fill="#63b8ff" stroke="#63b8ff" points="387.18,-100.93 392.49,-91.76 382.62,-95.62 387.18,-100.93"/>
</a>
</g>
<g id="a_edge13&#45;headlabel"><a xlink:href="dir_000017_000028.html" target="_top" xlink:title="1">
<text text-anchor="middle" x="387.46" y="-100.57" font-family="Helvetica,sans-Serif" font-size="10.00" fill="#63b8ff">1</text>
</a>
</g>
</g>
<!-- dir_b00de47ad7e2e13a637d9aa605dec95e -->
<g id="node21" class="node">
<title>dir_b00de47ad7e2e13a637d9aa605dec95e</title>
<g id="a_node21"><a xlink:href="dir_b00de47ad7e2e13a637d9aa605dec95e.html" target="_top" xlink:title="visualization">
<polygon fill="#a4b1d4" stroke="#404040" points="234,-90.5 164,-90.5 164,-71.25 234,-71.25 234,-90.5"/>
<text text-anchor="middle" x="199" y="-77" font-family="Helvetica,sans-Serif" font-size="10.00">visualization</text>
</a>
</g>
</g>
<!-- dir_93ef7a03ae011ca5032e526d863e8f9f&#45;&gt;dir_b00de47ad7e2e13a637d9aa605dec95e -->
<g id="edge9" class="edge">
<title>dir_93ef7a03ae011ca5032e526d863e8f9f&#45;&gt;dir_b00de47ad7e2e13a637d9aa605dec95e</title>
<g id="a_edge9"><a xlink:href="dir_000017_000032.html" target="_top">
<path fill="none" stroke="#63b8ff" d="M327.24,-129.63C305.37,-121.49 263.76,-105.99 233.86,-94.86"/>
<polygon fill="#63b8ff" stroke="#63b8ff" points="235.44,-91.71 224.85,-91.5 233,-98.27 235.44,-91.71"/>
</a>
</g>
<g id="a_edge9&#45;headlabel"><a xlink:href="dir_000017_000032.html" target="_top" xlink:title="2">
<text text-anchor="middle" x="238.38" y="-85.9" font-family="Helvetica,sans-Serif" font-size="10.00" fill="#63b8ff">2</text>
</a>
</g>
</g>
<!-- dir_5eb159725f84c66aafd839904a4acdd0 -->
<g id="node14" class="node">
<title>dir_5eb159725f84c66aafd839904a4acdd0</title>
<g id="a_node14"><a xlink:href="dir_5eb159725f84c66aafd839904a4acdd0.html" target="_top" xlink:title="main">
<polygon fill="#a4b1d4" stroke="#404040" points="483.5,-201 446.5,-201 446.5,-181.75 483.5,-181.75 483.5,-201"/>
<text text-anchor="middle" x="465" y="-187.5" font-family="Helvetica,sans-Serif" font-size="10.00">main</text>
</a>
</g>
</g>
<!-- dir_5eb159725f84c66aafd839904a4acdd0&#45;&gt;dir_f371e9dd6e225bf8e20e121e59bab5bd -->
<g id="edge17" class="edge">
<title>dir_5eb159725f84c66aafd839904a4acdd0&#45;&gt;dir_f371e9dd6e225bf8e20e121e59bab5bd</title>
<g id="a_edge17"><a xlink:href="dir_000019_000004.html" target="_top">
<path fill="none" stroke="#63b8ff" d="M468.14,-181.58C470.54,-174.84 473.96,-165.27 477,-156.74"/>
<polygon fill="#63b8ff" stroke="#63b8ff" points="480.22,-158.13 480.29,-147.53 473.63,-155.78 480.22,-158.13"/>
</a>
</g>
<g id="a_edge17&#45;headlabel"><a xlink:href="dir_000019_000004.html" target="_top" xlink:title="3">
<text text-anchor="middle" x="482.2" y="-157.17" font-family="Helvetica,sans-Serif" font-size="10.00" fill="#63b8ff">3</text>
</a>
</g>
</g>
<!-- dir_5eb159725f84c66aafd839904a4acdd0&#45;&gt;dir_b2470cdf236b10787c6012057be7848d -->
<g id="edge15" class="edge">
<title>dir_5eb159725f84c66aafd839904a4acdd0&#45;&gt;dir_b2470cdf236b10787c6012057be7848d</title>
<g id="a_edge15"><a xlink:href="dir_000019_000007.html" target="_top">
<path fill="none" stroke="#63b8ff" d="M460.26,-181.48C453.85,-168.09 444.56,-142.6 457,-126.5 495.75,-76.34 556.25,-140.66 595,-90.5 606.63,-75.45 592.27,-56.55 577.99,-43.23"/>
<polygon fill="#63b8ff" stroke="#63b8ff" points="580.34,-40.63 570.49,-36.73 575.75,-45.92 580.34,-40.63"/>
</a>
</g>
<g id="a_edge15&#45;headlabel"><a xlink:href="dir_000019_000007.html" target="_top" xlink:title="5">
<text text-anchor="middle" x="583.77" y="-35.98" font-family="Helvetica,sans-Serif" font-size="10.00" fill="#63b8ff">5</text>
</a>
</g>
</g>
<!-- dir_5eb159725f84c66aafd839904a4acdd0&#45;&gt;dir_e151c116100f0d05a91a56b2b7518180 -->
<g id="edge16" class="edge">
<title>dir_5eb159725f84c66aafd839904a4acdd0&#45;&gt;dir_e151c116100f0d05a91a56b2b7518180</title>
<g id="a_edge16"><a xlink:href="dir_000019_000008.html" target="_top">
<path fill="none" stroke="#63b8ff" d="M478.4,-181.34C490.09,-173.46 507.3,-161.86 521.16,-152.52"/>
<polygon fill="#63b8ff" stroke="#63b8ff" points="522.94,-155.54 529.28,-147.05 519.03,-149.74 522.94,-155.54"/>
</a>
</g>
<g id="a_edge16&#45;headlabel"><a xlink:href="dir_000019_000008.html" target="_top" xlink:title="2">
<text text-anchor="middle" x="522.8" y="-155.18" font-family="Helvetica,sans-Serif" font-size="10.00" fill="#63b8ff">2</text>
</a>
</g>
</g>
<!-- dir_5eb159725f84c66aafd839904a4acdd0&#45;&gt;dir_93ef7a03ae011ca5032e526d863e8f9f -->
<g id="edge14" class="edge">
<title>dir_5eb159725f84c66aafd839904a4acdd0&#45;&gt;dir_93ef7a03ae011ca5032e526d863e8f9f</title>
<g id="a_edge14"><a xlink:href="dir_000019_000017.html" target="_top">
<path fill="none" stroke="#63b8ff" d="M446.05,-182.17C424.86,-173 390.43,-158.09 367.04,-147.96"/>
<polygon fill="#63b8ff" stroke="#63b8ff" points="368.5,-144.78 357.93,-144.02 365.72,-151.21 368.5,-144.78"/>
</a>
</g>
<g id="a_edge14&#45;headlabel"><a xlink:href="dir_000019_000017.html" target="_top" xlink:title="11">
<text text-anchor="middle" x="371.53" y="-139.13" font-family="Helvetica,sans-Serif" font-size="10.00" fill="#63b8ff">11</text>
</a>
</g>
</g>
<!-- dir_be2047caa5b35c3f03db5004bfd43303 -->
<g id="node16" class="node">
<title>dir_be2047caa5b35c3f03db5004bfd43303</title>
<g id="a_node16"><a xlink:href="dir_be2047caa5b35c3f03db5004bfd43303.html" target="_top" xlink:title="pamgen">
<polygon fill="#a4b1d4" stroke="#404040" points="387.25,-201 336.75,-201 336.75,-181.75 387.25,-181.75 387.25,-201"/>
<text text-anchor="middle" x="362" y="-187.5" font-family="Helvetica,sans-Serif" font-size="10.00">pamgen</text>
</a>
</g>
</g>
<!-- dir_33cfd5db86fcb3abafc781b49053bebf -->
<g id="node19" class="node">
<title>dir_33cfd5db86fcb3abafc781b49053bebf</title>
<g id="a_node19"><a xlink:href="dir_33cfd5db86fcb3abafc781b49053bebf.html" target="_top" xlink:title="unit_tests">
<polygon fill="#a4b1d4" stroke="#404040" points="296.38,-201 237.62,-201 237.62,-181.75 296.38,-181.75 296.38,-201"/>
<text text-anchor="middle" x="267" y="-187.5" font-family="Helvetica,sans-Serif" font-size="10.00">unit_tests</text>
</a>
</g>
</g>
<!-- dir_33cfd5db86fcb3abafc781b49053bebf&#45;&gt;dir_b2470cdf236b10787c6012057be7848d -->
<g id="edge19" class="edge">
<title>dir_33cfd5db86fcb3abafc781b49053bebf&#45;&gt;dir_b2470cdf236b10787c6012057be7848d</title>
<g id="a_edge19"><a xlink:href="dir_000029_000007.html" target="_top">
<path fill="none" stroke="#63b8ff" d="M237.34,-181.95C166.36,-161.09 -5.11,-106.18 27,-71.25 60.04,-35.31 400.2,-28.3 517.5,-26.94"/>
<polygon fill="#63b8ff" stroke="#63b8ff" points="517.3,-30.45 527.26,-26.84 517.22,-23.45 517.3,-30.45"/>
</a>
</g>
<g id="a_edge19&#45;headlabel"><a xlink:href="dir_000029_000007.html" target="_top" xlink:title="2">
<text text-anchor="middle" x="515.25" y="-29.43" font-family="Helvetica,sans-Serif" font-size="10.00" fill="#63b8ff">2</text>
</a>
</g>
</g>
<!-- dir_33cfd5db86fcb3abafc781b49053bebf&#45;&gt;dir_93ef7a03ae011ca5032e526d863e8f9f -->
<g id="edge18" class="edge">
<title>dir_33cfd5db86fcb3abafc781b49053bebf&#45;&gt;dir_93ef7a03ae011ca5032e526d863e8f9f</title>
<g id="a_edge18"><a xlink:href="dir_000029_000017.html" target="_top">
<path fill="none" stroke="#63b8ff" d="M279.72,-181.34C290.71,-173.54 306.84,-162.09 319.93,-152.79"/>
<polygon fill="#63b8ff" stroke="#63b8ff" points="321.85,-155.72 327.98,-147.08 317.8,-150.01 321.85,-155.72"/>
</a>
</g>
<g id="a_edge18&#45;headlabel"><a xlink:href="dir_000029_000017.html" target="_top" xlink:title="3">
<text text-anchor="middle" x="321.8" y="-155.37" font-family="Helvetica,sans-Serif" font-size="10.00" fill="#63b8ff">3</text>
</a>
</g>
</g>
<!-- dir_33cfd5db86fcb3abafc781b49053bebf&#45;&gt;dir_b3cdc8b392a41de52e9504248ea8e7e8 -->
<g id="edge20" class="edge">
<title>dir_33cfd5db86fcb3abafc781b49053bebf&#45;&gt;dir_b3cdc8b392a41de52e9504248ea8e7e8</title>
<g id="a_edge20"><a xlink:href="dir_000029_000027.html" target="_top">
<path fill="none" stroke="#63b8ff" d="M254.3,-181.31C228.31,-162.76 168.78,-120.26 136.6,-97.29"/>
<polygon fill="#63b8ff" stroke="#63b8ff" points="138.96,-94.68 128.79,-91.72 134.89,-100.37 138.96,-94.68"/>
</a>
</g>
<g id="a_edge20&#45;headlabel"><a xlink:href="dir_000029_000027.html" target="_top" xlink:title="6">
<text text-anchor="middle" x="142.3" y="-89.7" font-family="Helvetica,sans-Serif" font-size="10.00" fill="#63b8ff">6</text>
</a>
</g>
</g>
<!-- dir_20af8c6db4866732b8ca049c99f4ebff -->
<g id="node20" class="node">
<title>dir_20af8c6db4866732b8ca049c99f4ebff</title>
<g id="a_node20"><a xlink:href="dir_20af8c6db4866732b8ca049c99f4ebff.html" target="_top" xlink:title="utest">
<polygon fill="#a4b1d4" stroke="#404040" points="562.88,-201 525.12,-201 525.12,-181.75 562.88,-181.75 562.88,-201"/>
<text text-anchor="middle" x="544" y="-187.5" font-family="Helvetica,sans-Serif" font-size="10.00">utest</text>
</a>
</g>
</g>
<!-- dir_20af8c6db4866732b8ca049c99f4ebff&#45;&gt;dir_0848929091a9f16efa00791d442ff009 -->
<g id="edge21" class="edge">
<title>dir_20af8c6db4866732b8ca049c99f4ebff&#45;&gt;dir_0848929091a9f16efa00791d442ff009</title>
<g id="a_edge21"><a xlink:href="dir_000030_000000.html" target="_top">
<path fill="none" stroke="#63b8ff" d="M557.91,-181.34C570.16,-173.39 588.25,-161.64 602.71,-152.25"/>
<polygon fill="#63b8ff" stroke="#63b8ff" points="604.27,-155.41 610.75,-147.03 600.46,-149.54 604.27,-155.41"/>
</a>
</g>
<g id="a_edge21&#45;headlabel"><a xlink:href="dir_000030_000000.html" target="_top" xlink:title="3">
<text text-anchor="middle" x="604.07" y="-155.05" font-family="Helvetica,sans-Serif" font-size="10.00" fill="#63b8ff">3</text>
</a>
</g>
</g>
<!-- dir_20af8c6db4866732b8ca049c99f4ebff&#45;&gt;dir_f371e9dd6e225bf8e20e121e59bab5bd -->
<g id="edge25" class="edge">
<title>dir_20af8c6db4866732b8ca049c99f4ebff&#45;&gt;dir_f371e9dd6e225bf8e20e121e59bab5bd</title>
<g id="a_edge25"><a xlink:href="dir_000030_000004.html" target="_top">
<path fill="none" stroke="#63b8ff" d="M533.82,-181.34C525.24,-173.72 512.73,-162.62 502.4,-153.45"/>
<polygon fill="#63b8ff" stroke="#63b8ff" points="504.96,-151.05 495.16,-147.03 500.32,-156.29 504.96,-151.05"/>
</a>
</g>
<g id="a_edge25&#45;headlabel"><a xlink:href="dir_000030_000004.html" target="_top" xlink:title="5">
<text text-anchor="middle" x="508.4" y="-146.43" font-family="Helvetica,sans-Serif" font-size="10.00" fill="#63b8ff">5</text>
</a>
</g>
</g>
<!-- dir_20af8c6db4866732b8ca049c99f4ebff&#45;&gt;dir_b2470cdf236b10787c6012057be7848d -->
<g id="edge23" class="edge">
<title>dir_20af8c6db4866732b8ca049c99f4ebff&#45;&gt;dir_b2470cdf236b10787c6012057be7848d</title>
<g id="a_edge23"><a xlink:href="dir_000030_000007.html" target="_top">
<path fill="none" stroke="#63b8ff" d="M551.64,-181.36C568.82,-160.87 609.5,-110.98 616,-90.5 618.59,-82.35 619.81,-78.91 616,-71.25 609.76,-58.71 598.13,-48.76 586.84,-41.46"/>
<polygon fill="#63b8ff" stroke="#63b8ff" points="588.83,-38.57 578.44,-36.5 585.27,-44.6 588.83,-38.57"/>
</a>
</g>
<g id="a_edge23&#45;headlabel"><a xlink:href="dir_000030_000007.html" target="_top" xlink:title="2">
<text text-anchor="middle" x="592.07" y="-33.31" font-family="Helvetica,sans-Serif" font-size="10.00" fill="#63b8ff">2</text>
</a>
</g>
</g>
<!-- dir_20af8c6db4866732b8ca049c99f4ebff&#45;&gt;dir_e151c116100f0d05a91a56b2b7518180 -->
<g id="edge24" class="edge">
<title>dir_20af8c6db4866732b8ca049c99f4ebff&#45;&gt;dir_e151c116100f0d05a91a56b2b7518180</title>
<g id="a_edge24"><a xlink:href="dir_000030_000008.html" target="_top">
<path fill="none" stroke="#63b8ff" d="M544,-181.58C544,-175.07 544,-165.92 544,-157.62"/>
<polygon fill="#63b8ff" stroke="#63b8ff" points="547.5,-157.62 544,-147.62 540.5,-157.62 547.5,-157.62"/>
</a>
</g>
<g id="a_edge24&#45;headlabel"><a xlink:href="dir_000030_000008.html" target="_top" xlink:title="2">
<text text-anchor="middle" x="550.34" y="-155.83" font-family="Helvetica,sans-Serif" font-size="10.00" fill="#63b8ff">2</text>
</a>
</g>
</g>
<!-- dir_20af8c6db4866732b8ca049c99f4ebff&#45;&gt;dir_93ef7a03ae011ca5032e526d863e8f9f -->
<g id="edge22" class="edge">
<title>dir_20af8c6db4866732b8ca049c99f4ebff&#45;&gt;dir_93ef7a03ae011ca5032e526d863e8f9f</title>
<g id="a_edge22"><a xlink:href="dir_000030_000017.html" target="_top">
<path fill="none" stroke="#63b8ff" d="M524.63,-185.27C488.05,-175.63 408.8,-154.74 367.78,-143.92"/>
<polygon fill="#63b8ff" stroke="#63b8ff" points="368.85,-140.58 358.29,-141.42 367.06,-147.35 368.85,-140.58"/>
</a>
</g>
<g id="a_edge22&#45;headlabel"><a xlink:href="dir_000030_000017.html" target="_top" xlink:title="4">
<text text-anchor="middle" x="371.58" y="-134.49" font-family="Helvetica,sans-Serif" font-size="10.00" fill="#63b8ff">4</text>
</a>
</g>
</g>
</g>
</svg>
