<?xml version="1.0" encoding="UTF-8" standalone="no"?>
<!DOCTYPE svg PUBLIC "-//W3C//DTD SVG 1.1//EN"
 "http://www.w3.org/Graphics/SVG/1.1/DTD/svg11.dtd">
<!-- Generated by graphviz version 2.50.0 (20211204.2007)
 -->
<!-- Title: src/unit_tests Pages: 1 -->
<svg width="174pt" height="167pt"
 viewBox="0.00 0.00 174.00 167.00" xmlns="http://www.w3.org/2000/svg" xmlns:xlink="http://www.w3.org/1999/xlink">
<g id="graph0" class="graph" transform="scale(1 1) rotate(0) translate(4 163)">
<title>src/unit_tests</title>
<polygon fill="white" stroke="transparent" points="-4,4 -4,-163 170,-163 170,4 -4,4"/>
<g id="clust1" class="cluster">
<title>clusterdir_68267d1309a1af8e8297ef4c3efbcdba</title>
<g id="a_clust1"><a xlink:href="dir_68267d1309a1af8e8297ef4c3efbcdba.html" target="_top" xlink:title="src">
<polygon fill="#edeff6" stroke="#404040" stroke-dasharray="5,2" points="8,-8 8,-151 158,-151 158,-8 8,-8"/>
<text text-anchor="middle" x="83" y="-139" font-family="Helvetica,sans-Serif" font-size="10.00">src</text>
</a>
</g>
</g>
<!-- dir_93ef7a03ae011ca5032e526d863e8f9f -->
<g id="node1" class="node">
<title>dir_93ef7a03ae011ca5032e526d863e8f9f</title>
<g id="a_node1"><a xlink:href="dir_93ef7a03ae011ca5032e526d863e8f9f.html" target="_top" xlink:title="init">
<polygon fill="#a4b1d4" stroke="#404040" points="70,-52 16,-52 16,-16 70,-16 70,-52"/>
<text text-anchor="middle" x="43" y="-31.5" font-family="Helvetica,sans-Serif" font-size="10.00">init</text>
</a>
</g>
</g>
<!-- dir_b3cdc8b392a41de52e9504248ea8e7e8 -->
<g id="node2" class="node">
<title>dir_b3cdc8b392a41de52e9504248ea8e7e8</title>
<g id="a_node2"><a xlink:href="dir_b3cdc8b392a41de52e9504248ea8e7e8.html" target="_top" xlink:title="text_mesh">
<polygon fill="#a4b1d4" stroke="#404040" points="150,-52 88,-52 88,-16 150,-16 150,-52"/>
<text text-anchor="middle" x="119" y="-31.5" font-family="Helvetica,sans-Serif" font-size="10.00">text_mesh</text>
</a>
</g>
</g>
<!-- dir_33cfd5db86fcb3abafc781b49053bebf -->
<g id="node3" class="node">
<title>dir_33cfd5db86fcb3abafc781b49053bebf</title>
<g id="a_node3"><a xlink:href="dir_33cfd5db86fcb3abafc781b49053bebf.html" target="_top" xlink:title="unit_tests">
<polygon fill="#edeff6" stroke="#404040" stroke-width="2" points="111.5,-124 52.5,-124 52.5,-88 111.5,-88 111.5,-124"/>
<text text-anchor="middle" x="82" y="-103.5" font-family="Helvetica,sans-Serif" font-size="10.00">unit_tests</text>
</a>
</g>
</g>
<!-- dir_33cfd5db86fcb3abafc781b49053bebf&#45;&gt;dir_93ef7a03ae011ca5032e526d863e8f9f -->
<g id="edge1" class="edge">
<title>dir_33cfd5db86fcb3abafc781b49053bebf&#45;&gt;dir_93ef7a03ae011ca5032e526d863e8f9f</title>
<path fill="none" stroke="black" d="M72.36,-87.7C67.87,-79.64 62.44,-69.89 57.48,-60.98"/>
<polygon fill="black" stroke="black" points="60.45,-59.14 52.53,-52.1 54.34,-62.54 60.45,-59.14"/>
<g id="a_edge1&#45;headlabel"><a xlink:href="dir_000026_000015.html" target="_top" xlink:title="1">
<text text-anchor="middle" x="64.68" y="-58.39" font-family="Helvetica,sans-Serif" font-size="10.00">1</text>
</a>
</g>
</g>
<!-- dir_33cfd5db86fcb3abafc781b49053bebf&#45;&gt;dir_b3cdc8b392a41de52e9504248ea8e7e8 -->
<g id="edge2" class="edge">
<title>dir_33cfd5db86fcb3abafc781b49053bebf&#45;&gt;dir_b3cdc8b392a41de52e9504248ea8e7e8</title>
<path fill="none" stroke="black" d="M91.15,-87.7C95.4,-79.64 100.56,-69.89 105.27,-60.98"/>
<polygon fill="black" stroke="black" points="108.38,-62.58 109.96,-52.1 102.19,-59.31 108.38,-62.58"/>
<g id="a_edge2&#45;headlabel"><a xlink:href="dir_000026_000024.html" target="_top" xlink:title="1">
<text text-anchor="middle" x="109.21" y="-64.59" font-family="Helvetica,sans-Serif" font-size="10.00">1</text>
</a>
</g>
</g>
</g>
</svg>
