<?xml version="1.0" encoding="UTF-8" standalone="no"?>
<!DOCTYPE svg PUBLIC "-//W3C//DTD SVG 1.1//EN"
 "http://www.w3.org/Graphics/SVG/1.1/DTD/svg11.dtd">
<!-- Generated by graphviz version 6.0.2 (20221011.1828)
 -->
<!-- Title: src/visualization Pages: 1 -->
<svg width="197pt" height="259pt"
 viewBox="0.00 0.00 197.00 259.00" xmlns="http://www.w3.org/2000/svg" xmlns:xlink="http://www.w3.org/1999/xlink">
<g id="graph0" class="graph" transform="scale(1 1) rotate(0) translate(4 255)">
<title>src/visualization</title>
<g id="clust1" class="cluster">
<title>clusterdir_68267d1309a1af8e8297ef4c3efbcdba</title>
<g id="a_clust1"><a xlink:href="dir_68267d1309a1af8e8297ef4c3efbcdba.html" target="_top" xlink:title="src">
<polygon fill="#edeff6" stroke="#404040" stroke-dasharray="5,2" points="8,-8 8,-243 181,-243 181,-8 8,-8"/>
<text text-anchor="middle" x="94.5" y="-231" font-family="Helvetica,sans-Serif" font-size="10.00">src</text>
</a>
</g>
</g>
<g id="clust2" class="cluster">
<title>clusterdir_b00de47ad7e2e13a637d9aa605dec95e</title>
<g id="a_clust2"><a xlink:href="dir_b00de47ad7e2e13a637d9aa605dec95e.html" target="_top">
<polygon fill="#edeff6" stroke="#404040" stroke-width="2" points="16,-16 16,-216 173,-216 173,-16 16,-16"/>
</a>
</g>
</g>
<!-- dir_b00de47ad7e2e13a637d9aa605dec95e -->
<g id="node1" class="node">
<title>dir_b00de47ad7e2e13a637d9aa605dec95e</title>
<text text-anchor="middle" x="129" y="-196" font-family="Helvetica,sans-Serif" font-size="10.00">visualization</text>
</g>
<!-- dir_c3c45e1f3135eb5f9667e971577f0620 -->
<g id="node2" class="node">
<title>dir_c3c45e1f3135eb5f9667e971577f0620</title>
<g id="a_node2"><a xlink:href="dir_c3c45e1f3135eb5f9667e971577f0620.html" target="_top" xlink:title="catalyst">
<polygon fill="#a4b1d4" stroke="#404040" points="75.5,-208 24.5,-208 24.5,-189 75.5,-189 75.5,-208"/>
<text text-anchor="middle" x="50" y="-196" font-family="Helvetica,sans-Serif" font-size="10.00">catalyst</text>
</a>
</g>
</g>
<!-- dir_44ddcfcd8d126daea8faa82ee802e03a -->
<g id="node3" class="node">
<title>dir_44ddcfcd8d126daea8faa82ee802e03a</title>
<g id="a_node3"><a xlink:href="dir_44ddcfcd8d126daea8faa82ee802e03a.html" target="_top" xlink:title="cgns">
<polygon fill="#a4b1d4" stroke="#404040" points="62,-153 24,-153 24,-134 62,-134 62,-153"/>
<text text-anchor="middle" x="43" y="-141" font-family="Helvetica,sans-Serif" font-size="10.00">cgns</text>
</a>
</g>
</g>
<!-- dir_c3c45e1f3135eb5f9667e971577f0620&#45;&gt;dir_44ddcfcd8d126daea8faa82ee802e03a -->
<g id="edge1" class="edge">
<title>dir_c3c45e1f3135eb5f9667e971577f0620&#45;&gt;dir_44ddcfcd8d126daea8faa82ee802e03a</title>
<path fill="none" stroke="#63b8ff" d="M48.84,-188.75C47.93,-181.8 46.61,-171.85 45.46,-163.13"/>
<polygon fill="#63b8ff" stroke="#63b8ff" points="48.91,-162.54 44.13,-153.09 41.97,-163.46 48.91,-162.54"/>
<g id="a_edge1&#45;headlabel"><a xlink:href="dir_000002_000005.html" target="_top" xlink:title="1">
<text text-anchor="middle" x="52.2" y="-163.24" font-family="Helvetica,sans-Serif" font-size="10.00" fill="#63b8ff">1</text>
</a>
</g>
</g>
<!-- dir_932149a0d3ac8bc564a6c12d318f16cf -->
<g id="node4" class="node">
<title>dir_932149a0d3ac8bc564a6c12d318f16cf</title>
<g id="a_node4"><a xlink:href="dir_932149a0d3ac8bc564a6c12d318f16cf.html" target="_top" xlink:title="exodus">
<polygon fill="#a4b1d4" stroke="#404040" points="80,-43 32,-43 32,-24 80,-24 80,-43"/>
<text text-anchor="middle" x="56" y="-31" font-family="Helvetica,sans-Serif" font-size="10.00">exodus</text>
</a>
</g>
</g>
<!-- dir_c3c45e1f3135eb5f9667e971577f0620&#45;&gt;dir_932149a0d3ac8bc564a6c12d318f16cf -->
<g id="edge2" class="edge">
<title>dir_c3c45e1f3135eb5f9667e971577f0620&#45;&gt;dir_932149a0d3ac8bc564a6c12d318f16cf</title>
<path fill="none" stroke="#63b8ff" d="M56.51,-188.81C62.61,-180.2 71.45,-166.39 76,-153 86.63,-121.72 91.9,-110.82 83,-79 80.24,-69.12 74.61,-59.25 69.21,-51.32"/>
<polygon fill="#63b8ff" stroke="#63b8ff" points="71.87,-49.04 63.15,-43.03 66.22,-53.17 71.87,-49.04"/>
<g id="a_edge2&#45;headlabel"><a xlink:href="dir_000002_000008.html" target="_top" xlink:title="1">
<text text-anchor="middle" x="76.29" y="-47.77" font-family="Helvetica,sans-Serif" font-size="10.00" fill="#63b8ff">1</text>
</a>
</g>
</g>
<!-- dir_41eed5bedcca2fdbdedfa33a60910a27 -->
<g id="node5" class="node">
<title>dir_41eed5bedcca2fdbdedfa33a60910a27</title>
<g id="a_node5"><a xlink:href="dir_41eed5bedcca2fdbdedfa33a60910a27.html" target="_top" xlink:title="utils">
<polygon fill="#a4b1d4" stroke="#404040" points="73.5,-98 38.5,-98 38.5,-79 73.5,-79 73.5,-98"/>
<text text-anchor="middle" x="56" y="-86" font-family="Helvetica,sans-Serif" font-size="10.00">utils</text>
</a>
</g>
</g>
<!-- dir_c3c45e1f3135eb5f9667e971577f0620&#45;&gt;dir_41eed5bedcca2fdbdedfa33a60910a27 -->
<g id="edge3" class="edge">
<title>dir_c3c45e1f3135eb5f9667e971577f0620&#45;&gt;dir_41eed5bedcca2fdbdedfa33a60910a27</title>
<path fill="none" stroke="#63b8ff" d="M55.58,-188.72C60.74,-180.03 68.05,-166.17 71,-153 74.44,-137.63 69.72,-120.22 64.69,-107.52"/>
<polygon fill="#63b8ff" stroke="#63b8ff" points="67.78,-105.86 60.56,-98.11 61.37,-108.68 67.78,-105.86"/>
<g id="a_edge3&#45;headlabel"><a xlink:href="dir_000002_000029.html" target="_top" xlink:title="1">
<text text-anchor="middle" x="71.83" y="-105.51" font-family="Helvetica,sans-Serif" font-size="10.00" fill="#63b8ff">1</text>
</a>
</g>
</g>
<!-- dir_44ddcfcd8d126daea8faa82ee802e03a&#45;&gt;dir_41eed5bedcca2fdbdedfa33a60910a27 -->
<g id="edge4" class="edge">
<title>dir_44ddcfcd8d126daea8faa82ee802e03a&#45;&gt;dir_41eed5bedcca2fdbdedfa33a60910a27</title>
<path fill="none" stroke="#63b8ff" d="M39.98,-133.75C40.2,-126.65 42.29,-116.4 45.14,-107.56"/>
<polygon fill="#63b8ff" stroke="#63b8ff" points="48.45,-108.68 48.76,-98.09 41.92,-106.18 48.45,-108.68"/>
<g id="a_edge4&#45;headlabel"><a xlink:href="dir_000005_000029.html" target="_top" xlink:title="1">
<text text-anchor="middle" x="49.82" y="-110.55" font-family="Helvetica,sans-Serif" font-size="10.00" fill="#63b8ff">1</text>
</a>
</g>
</g>
<!-- dir_932149a0d3ac8bc564a6c12d318f16cf&#45;&gt;dir_41eed5bedcca2fdbdedfa33a60910a27 -->
<g id="edge5" class="edge">
<title>dir_932149a0d3ac8bc564a6c12d318f16cf&#45;&gt;dir_41eed5bedcca2fdbdedfa33a60910a27</title>
<path fill="none" stroke="#63b8ff" d="M61.13,-43.09C62.64,-49.99 63.09,-59.93 62.49,-68.66"/>
<polygon fill="#63b8ff" stroke="#63b8ff" points="59,-68.38 61.17,-78.75 65.94,-69.29 59,-68.38"/>
<g id="a_edge5&#45;headlabel"><a xlink:href="dir_000008_000029.html" target="_top" xlink:title="1">
<text text-anchor="middle" x="56.65" y="-61.94" font-family="Helvetica,sans-Serif" font-size="10.00" fill="#63b8ff">1</text>
</a>
</g>
</g>
<!-- dir_41eed5bedcca2fdbdedfa33a60910a27&#45;&gt;dir_44ddcfcd8d126daea8faa82ee802e03a -->
<g id="edge6" class="edge">
<title>dir_41eed5bedcca2fdbdedfa33a60910a27&#45;&gt;dir_44ddcfcd8d126daea8faa82ee802e03a</title>
<path fill="none" stroke="#63b8ff" d="M59.02,-98.09C58.84,-105.14 56.77,-115.37 53.93,-124.24"/>
<polygon fill="#63b8ff" stroke="#63b8ff" points="50.6,-123.16 50.31,-133.75 57.14,-125.65 50.6,-123.16"/>
<g id="a_edge6&#45;headlabel"><a xlink:href="dir_000029_000005.html" target="_top" xlink:title="1">
<text text-anchor="middle" x="49.22" y="-116.29" font-family="Helvetica,sans-Serif" font-size="10.00" fill="#63b8ff">1</text>
</a>
</g>
</g>
<!-- dir_41eed5bedcca2fdbdedfa33a60910a27&#45;&gt;dir_932149a0d3ac8bc564a6c12d318f16cf -->
<g id="edge7" class="edge">
<title>dir_41eed5bedcca2fdbdedfa33a60910a27&#45;&gt;dir_932149a0d3ac8bc564a6c12d318f16cf</title>
<path fill="none" stroke="#63b8ff" d="M50.83,-78.75C49.34,-71.8 48.9,-61.85 49.52,-53.13"/>
<polygon fill="#63b8ff" stroke="#63b8ff" points="53.01,-53.47 50.87,-43.09 46.07,-52.53 53.01,-53.47"/>
<g id="a_edge7&#45;headlabel"><a xlink:href="dir_000029_000008.html" target="_top" xlink:title="1">
<text text-anchor="middle" x="55.34" y="-54.91" font-family="Helvetica,sans-Serif" font-size="10.00" fill="#63b8ff">1</text>
</a>
</g>
</g>
</g>
</svg>
