<?xml version="1.0" encoding="UTF-8" standalone="no"?>
<!DOCTYPE svg PUBLIC "-//W3C//DTD SVG 1.1//EN"
 "http://www.w3.org/Graphics/SVG/1.1/DTD/svg11.dtd">
<!-- Generated by graphviz version 12.2.1 (20241206.2353)
 -->
<!-- Title: src/hopscotch_map.h Pages: 1 -->
<!--zoomable 160 -->

<svg id="main" version="1.1" xmlns="http://www.w3.org/2000/svg" xmlns:xlink="http://www.w3.org/1999/xlink" xml:space="preserve" onload="init(evt)">

<style type="text/css"><![CDATA[
.node, .edge {opacity: 0.7;}
.node.selected, .edge.selected {opacity: 1;}
.edge:hover path { stroke: red; }
.edge:hover polygon { stroke: red; fill: red; }
]]></style>

<defs>
  <circle id="rim" cx="0" cy="0" r="7"/>
  <circle id="rim2" cx="0" cy="0" r="3.5"/>
  <g id="zoomPlus">
    <use xlink:href="#rim" fill="#404040"><set attributeName="fill" to="#808080" begin="zoomplus.mouseover" end="zoomplus.mouseout"/></use>
    <path d="M-4,0h8M0,-4v8" fill="none" stroke="white" stroke-width="1.5" pointer-events="none"/>
  </g>
  <g id="zoomMin">
    <use xlink:href="#rim" fill="#404040"><set attributeName="fill" to="#808080" begin="zoomminus.mouseover" end="zoomminus.mouseout"/></use>
    <path d="M-4,0h8" fill="none" stroke="white" stroke-width="1.5" pointer-events="none"/>
  </g>
  <g id="arrowUp" transform="translate(30 24)">
    <use xlink:href="#rim"/>
    <path pointer-events="none" fill="none" stroke="white" stroke-width="1.5" d="M0,-3.0v7 M-2.5,-0.5L0,-3.0L2.5,-0.5"/>
  </g>
  <g id="arrowRight" transform="rotate(90) translate(36 -43)">
    <use xlink:href="#rim"/>
    <path pointer-events="none" fill="none" stroke="white" stroke-width="1.5" d="M0,-3.0v7 M-2.5,-0.5L0,-3.0L2.5,-0.5"/>
  </g>
  <g id="arrowDown" transform="rotate(180) translate(-30 -48)">
    <use xlink:href="#rim"/>
    <path pointer-events="none" fill="none" stroke="white" stroke-width="1.5" d="M0,-3.0v7 M-2.5,-0.5L0,-3.0L2.5,-0.5"/>
  </g>
  <g id="arrowLeft" transform="rotate(270) translate(-36 17)">
    <use xlink:href="#rim"/>
    <path pointer-events="none" fill="none" stroke="white" stroke-width="1.5" d="M0,-3.0v7 M-2.5,-0.5L0,-3.0L2.5,-0.5"/>
  </g>
  <g id="resetDef">
    <use xlink:href="#rim2" fill="#404040"><set attributeName="fill" to="#808080" begin="reset.mouseover" end="reset.mouseout"/></use>
  </g>
</defs>
<script type="application/ecmascript">
var viewWidth = 1237;
var viewHeight = 160;
var sectionId = 'dynsection-1';
</script>
<script type="application/ecmascript" xlink:href="svg.min.js"/>
<svg id="graph" class="graph">
<g id="viewport">
<title>src/hopscotch_map.h</title>
<!-- Node1 -->
<g id="Node000001" class="node">
<title>Node1</title>
<g id="a_Node000001"><a xlink:title=" ">
<polygon fill="#999999" stroke="#666666" points="753.12,-152.25 643.38,-152.25 643.38,-133 753.12,-133 753.12,-152.25"/>
<text text-anchor="middle" x="698.25" y="-138.75" font-family="Helvetica,sans-Serif" font-size="10.00">src/hopscotch_map.h</text>
</a>
</g>
</g>
<!-- Node2 -->
<g id="Node000002" class="node">
<title>Node2</title>
<g id="a_Node000002"><a xlink:href="Ioex__Utils_8h.html" target="_top" xlink:title=" ">
<polygon fill="white" stroke="#666666" points="570,-91.38 450.5,-91.38 450.5,-72.12 570,-72.12 570,-91.38"/>
<text text-anchor="middle" x="510.25" y="-77.88" font-family="Helvetica,sans-Serif" font-size="10.00">src/exodus/Ioex_Utils.h</text>
</a>
</g>
</g>
<!-- Node1&#45;&gt;Node2 -->
<g id="edge1_Node000001_Node000002" class="edge">
<title>Node1&#45;&gt;Node2</title>
<g id="a_edge1_Node000001_Node000002"><a xlink:title=" ">
<path fill="none" stroke="#63b8ff" d="M658.76,-129.26C623.04,-118.07 571.28,-101.86 539.25,-91.83"/>
<polygon fill="#63b8ff" stroke="#63b8ff" points="657.25,-132.45 667.84,-132.1 659.35,-125.77 657.25,-132.45"/>
</a>
</g>
</g>
<!-- Node8 -->
<g id="Node000008" class="node">
<title>Node8</title>
<g id="a_Node000008"><a xlink:href="Ioexnl__Utils_8h.html" target="_top" xlink:title=" ">
<polygon fill="white" stroke="#666666" points="1006.5,-97 914,-97 914,-66.5 1006.5,-66.5 1006.5,-97"/>
<text text-anchor="start" x="922" y="-83.5" font-family="Helvetica,sans-Serif" font-size="10.00">src/exonull/Ioexnl</text>
<text text-anchor="middle" x="960.25" y="-72.25" font-family="Helvetica,sans-Serif" font-size="10.00">_Utils.h</text>
</a>
</g>
</g>
<!-- Node1&#45;&gt;Node8 -->
<g id="edge7_Node000001_Node000008" class="edge">
<title>Node1&#45;&gt;Node8</title>
<g id="a_edge7_Node000001_Node000008"><a xlink:title=" ">
<path fill="none" stroke="#63b8ff" d="M749.61,-130.08C797.27,-119.37 867.58,-103.57 913.65,-93.22"/>
<polygon fill="#63b8ff" stroke="#63b8ff" points="749.08,-126.62 740.09,-132.22 750.61,-133.45 749.08,-126.62"/>
</a>
</g>
</g>
<!-- Node3 -->
<g id="Node000003" class="node">
<title>Node3</title>
<g id="a_Node000003"><a xlink:href="Ioex__BaseDatabaseIO_8C.html" target="_top" xlink:title=" ">
<polygon fill="white" stroke="#666666" points="176.5,-24.88 0,-24.88 0,-5.63 176.5,-5.63 176.5,-24.88"/>
<text text-anchor="middle" x="88.25" y="-11.38" font-family="Helvetica,sans-Serif" font-size="10.00">src/exodus/Ioex_BaseDatabaseIO.C</text>
</a>
</g>
</g>
<!-- Node2&#45;&gt;Node3 -->
<g id="edge2_Node000002_Node000003" class="edge">
<title>Node2&#45;&gt;Node3</title>
<g id="a_edge2_Node000002_Node000003"><a xlink:title=" ">
<path fill="none" stroke="#63b8ff" d="M439.5,-69.94C357.72,-57.44 224.58,-37.09 147.85,-25.36"/>
<polygon fill="#63b8ff" stroke="#63b8ff" points="438.77,-73.37 449.19,-71.42 439.83,-66.45 438.77,-73.37"/>
</a>
</g>
</g>
<!-- Node4 -->
<g id="Node000004" class="node">
<title>Node4</title>
<g id="a_Node000004"><a xlink:href="Ioex__DatabaseIO_8C.html" target="_top" xlink:title=" ">
<polygon fill="white" stroke="#666666" points="348.25,-24.88 194.25,-24.88 194.25,-5.63 348.25,-5.63 348.25,-24.88"/>
<text text-anchor="middle" x="271.25" y="-11.38" font-family="Helvetica,sans-Serif" font-size="10.00">src/exodus/Ioex_DatabaseIO.C</text>
</a>
</g>
</g>
<!-- Node2&#45;&gt;Node4 -->
<g id="edge3_Node000002_Node000004" class="edge">
<title>Node2&#45;&gt;Node4</title>
<g id="a_edge3_Node000002_Node000004"><a xlink:title=" ">
<path fill="none" stroke="#63b8ff" d="M465.52,-68.68C418.88,-56.09 346.81,-36.64 304.81,-25.31"/>
<polygon fill="#63b8ff" stroke="#63b8ff" points="464.49,-72.02 475.05,-71.25 466.31,-65.27 464.49,-72.02"/>
</a>
</g>
</g>
<!-- Node5 -->
<g id="Node000005" class="node">
<title>Node5</title>
<g id="a_Node000005"><a xlink:href="Ioex__Internals_8C.html" target="_top" xlink:title=" ">
<polygon fill="white" stroke="#666666" points="505.75,-24.88 366.75,-24.88 366.75,-5.63 505.75,-5.63 505.75,-24.88"/>
<text text-anchor="middle" x="436.25" y="-11.38" font-family="Helvetica,sans-Serif" font-size="10.00">src/exodus/Ioex_Internals.C</text>
</a>
</g>
</g>
<!-- Node2&#45;&gt;Node5 -->
<g id="edge4_Node000002_Node000005" class="edge">
<title>Node2&#45;&gt;Node5</title>
<g id="a_edge4_Node000002_Node000005"><a xlink:title=" ">
<path fill="none" stroke="#63b8ff" d="M491.39,-64.31C477.1,-51.86 458.01,-35.22 446.45,-25.14"/>
<polygon fill="#63b8ff" stroke="#63b8ff" points="488.98,-66.85 498.82,-70.79 493.58,-61.58 488.98,-66.85"/>
</a>
</g>
</g>
<!-- Node6 -->
<g id="Node000006" class="node">
<title>Node6</title>
<g id="a_Node000006"><a xlink:href="Ioex__Utils_8C.html" target="_top" xlink:title=" ">
<polygon fill="white" stroke="#666666" points="645.12,-24.88 523.38,-24.88 523.38,-5.63 645.12,-5.63 645.12,-24.88"/>
<text text-anchor="middle" x="584.25" y="-11.38" font-family="Helvetica,sans-Serif" font-size="10.00">src/exodus/Ioex_Utils.C</text>
</a>
</g>
</g>
<!-- Node2&#45;&gt;Node6 -->
<g id="edge5_Node000002_Node000006" class="edge">
<title>Node2&#45;&gt;Node6</title>
<g id="a_edge5_Node000002_Node000006"><a xlink:title=" ">
<path fill="none" stroke="#63b8ff" d="M529.11,-64.31C543.4,-51.86 562.49,-35.22 574.05,-25.14"/>
<polygon fill="#63b8ff" stroke="#63b8ff" points="526.92,-61.58 521.68,-70.79 531.52,-66.85 526.92,-61.58"/>
</a>
</g>
</g>
<!-- Node7 -->
<g id="Node000007" class="node">
<title>Node7</title>
<g id="a_Node000007"><a xlink:href="io__modify_8C.html" target="_top" xlink:title=" ">
<polygon fill="white" stroke="#666666" points="771,-24.88 663.5,-24.88 663.5,-5.63 771,-5.63 771,-24.88"/>
<text text-anchor="middle" x="717.25" y="-11.38" font-family="Helvetica,sans-Serif" font-size="10.00">src/main/io_modify.C</text>
</a>
</g>
</g>
<!-- Node2&#45;&gt;Node7 -->
<g id="edge6_Node000002_Node000007" class="edge">
<title>Node2&#45;&gt;Node7</title>
<g id="a_edge6_Node000002_Node000007"><a xlink:title=" ">
<path fill="none" stroke="#63b8ff" d="M550.28,-68.28C590.71,-55.68 652.19,-36.52 688.18,-25.31"/>
<polygon fill="#63b8ff" stroke="#63b8ff" points="549.42,-64.88 540.91,-71.2 551.5,-71.56 549.42,-64.88"/>
</a>
</g>
</g>
<!-- Node9 -->
<g id="Node000009" class="node">
<title>Node9</title>
<g id="a_Node000009"><a xlink:href="Ioexnl__BaseDatabaseIO_8C.html" target="_top" xlink:title=" ">
<polygon fill="white" stroke="#666666" points="895.62,-30.5 788.88,-30.5 788.88,0 895.62,0 895.62,-30.5"/>
<text text-anchor="start" x="796.88" y="-17" font-family="Helvetica,sans-Serif" font-size="10.00">src/exonull/Ioexnl</text>
<text text-anchor="middle" x="842.25" y="-5.75" font-family="Helvetica,sans-Serif" font-size="10.00">_BaseDatabaseIO.C</text>
</a>
</g>
</g>
<!-- Node8&#45;&gt;Node9 -->
<g id="edge8_Node000008_Node000009" class="edge">
<title>Node8&#45;&gt;Node9</title>
<g id="a_edge8_Node000008_Node000009"><a xlink:title=" ">
<path fill="none" stroke="#63b8ff" d="M923.49,-60.66C905.83,-51 885.04,-39.64 868.92,-30.83"/>
<polygon fill="#63b8ff" stroke="#63b8ff" points="921.69,-63.66 932.15,-65.39 925.05,-57.52 921.69,-63.66"/>
</a>
</g>
</g>
<!-- Node10 -->
<g id="Node000010" class="node">
<title>Node10</title>
<g id="a_Node000010"><a xlink:href="Ioexnl__DatabaseIO_8C.html" target="_top" xlink:title=" ">
<polygon fill="white" stroke="#666666" points="1006.5,-30.5 914,-30.5 914,0 1006.5,0 1006.5,-30.5"/>
<text text-anchor="start" x="922" y="-17" font-family="Helvetica,sans-Serif" font-size="10.00">src/exonull/Ioexnl</text>
<text text-anchor="middle" x="960.25" y="-5.75" font-family="Helvetica,sans-Serif" font-size="10.00">_DatabaseIO.C</text>
</a>
</g>
</g>
<!-- Node8&#45;&gt;Node10 -->
<g id="edge9_Node000008_Node000010" class="edge">
<title>Node8&#45;&gt;Node10</title>
<g id="a_edge9_Node000008_Node000010"><a xlink:title=" ">
<path fill="none" stroke="#63b8ff" d="M960.25,-54.81C960.25,-46.64 960.25,-37.91 960.25,-30.83"/>
<polygon fill="#63b8ff" stroke="#63b8ff" points="956.75,-54.6 960.25,-64.6 963.75,-54.6 956.75,-54.6"/>
</a>
</g>
</g>
<!-- Node11 -->
<g id="Node000011" class="node">
<title>Node11</title>
<g id="a_Node000011"><a xlink:href="Ioexnl__Internals_8C.html" target="_top" xlink:title=" ">
<polygon fill="white" stroke="#666666" points="1117.5,-30.5 1025,-30.5 1025,0 1117.5,0 1117.5,-30.5"/>
<text text-anchor="start" x="1033" y="-17" font-family="Helvetica,sans-Serif" font-size="10.00">src/exonull/Ioexnl</text>
<text text-anchor="middle" x="1071.25" y="-5.75" font-family="Helvetica,sans-Serif" font-size="10.00">_Internals.C</text>
</a>
</g>
</g>
<!-- Node8&#45;&gt;Node11 -->
<g id="edge10_Node000008_Node000011" class="edge">
<title>Node8&#45;&gt;Node11</title>
<g id="a_edge10_Node000008_Node000011"><a xlink:title=" ">
<path fill="none" stroke="#63b8ff" d="M995.29,-60.39C1011.81,-50.79 1031.14,-39.56 1046.16,-30.83"/>
<polygon fill="#63b8ff" stroke="#63b8ff" points="993.63,-57.3 986.75,-65.35 997.15,-63.36 993.63,-57.3"/>
</a>
</g>
</g>
<!-- Node12 -->
<g id="Node000012" class="node">
<title>Node12</title>
<g id="a_Node000012"><a xlink:href="Ioexnl__Utils_8C.html" target="_top" xlink:title=" ">
<polygon fill="white" stroke="#666666" points="1228.5,-30.5 1136,-30.5 1136,0 1228.5,0 1228.5,-30.5"/>
<text text-anchor="start" x="1144" y="-17" font-family="Helvetica,sans-Serif" font-size="10.00">src/exonull/Ioexnl</text>
<text text-anchor="middle" x="1182.25" y="-5.75" font-family="Helvetica,sans-Serif" font-size="10.00">_Utils.C</text>
</a>
</g>
</g>
<!-- Node8&#45;&gt;Node12 -->
<g id="edge11_Node000008_Node000012" class="edge">
<title>Node8&#45;&gt;Node12</title>
<g id="a_edge11_Node000008_Node000012"><a xlink:title=" ">
<path fill="none" stroke="#63b8ff" d="M1017.82,-64.02C1054.52,-53.36 1101.45,-39.73 1135.77,-29.75"/>
<polygon fill="#63b8ff" stroke="#63b8ff" points="1016.87,-60.66 1008.24,-66.81 1018.82,-67.38 1016.87,-60.66"/>
</a>
</g>
</g>
</g>
</svg>

<g id="navigator" transform="translate(0 0)" fill="#404254">
  <rect fill="#f2f5e9" fill-opacity="0.5" stroke="#606060" stroke-width=".5" x="0" y="0" width="60" height="60"/>
  <use id="zoomplus" xlink:href="#zoomPlus" x="17" y="9" onmousedown="handleZoom(evt,'in')"/>
  <use id="zoomminus" xlink:href="#zoomMin" x="42" y="9" onmousedown="handleZoom(evt,'out')"/>
  <use id="reset" xlink:href="#resetDef" x="30" y="36" onmousedown="handleReset()"/>
   <use id="arrowup" xlink:href="#arrowUp" x="0" y="0" onmousedown="handlePan(0,-1)"/>
  <use id="arrowright" xlink:href="#arrowRight" x="0" y="0" onmousedown="handlePan(1,0)"/>
  <use id="arrowdown" xlink:href="#arrowDown" x="0" y="0" onmousedown="handlePan(0,1)"/>
  <use id="arrowleft" xlink:href="#arrowLeft" x="0" y="0" onmousedown="handlePan(-1,0)"/>
</g>
<svg viewBox="0 0 15 15" width="100%" height="30px" preserveAspectRatio="xMaxYMin meet">
 <g id="arrow_out" transform="scale(0.3 0.3)">
  <a xlink:href="hopscotch__map_8h__dep__incl_org.svg" target="_base">
   <rect id="button" ry="5" rx="5" y="6" x="6" height="38" width="38"
        fill="#f2f5e9" fill-opacity="0.5" stroke="#606060" stroke-width="1.0"/>
   <path id="arrow"
     d="M 11.500037,31.436501 C 11.940474,20.09759 22.043105,11.32322 32.158766,21.979434 L 37.068811,17.246167 C 37.068811,17.246167 37.088388,32 37.088388,32 L 22.160133,31.978069 C 22.160133,31.978069 26.997745,27.140456 26.997745,27.140456 C 18.528582,18.264221 13.291696,25.230495 11.500037,31.436501 z"
     style="fill:#404040;"/>
  </a>
 </g>
</svg>

<style type='text/css'>
<![CDATA[
[data-mouse-over-selected='false'] { opacity: 0.7; }
[data-mouse-over-selected='true']  { opacity: 1.0; }
]]>
</style>
<script type="application/ecmascript"><![CDATA[
document.addEventListener('DOMContentLoaded', (event) => {
  highlightEdges();
  highlightAdjacentNodes();
});
]]></script>
</svg>
