<?xml version="1.0" encoding="UTF-8" standalone="no"?>
<!DOCTYPE svg PUBLIC "-//W3C//DTD SVG 1.1//EN"
 "http://www.w3.org/Graphics/SVG/1.1/DTD/svg11.dtd">
<!-- Generated by graphviz version 2.49.3 (20211023.0002)
 -->
<!-- Title: src/hopscotch_map.h Pages: 1 -->
<svg width="810pt" height="140pt"
 viewBox="0.00 0.00 809.50 140.00" xmlns="http://www.w3.org/2000/svg" xmlns:xlink="http://www.w3.org/1999/xlink">
<g id="graph0" class="graph" transform="scale(1 1) rotate(0) translate(4 136)">
<title>src/hopscotch_map.h</title>
<polygon fill="white" stroke="transparent" points="-4,4 -4,-136 805.5,-136 805.5,4 -4,4"/>
<!-- Node1 -->
<g id="node1" class="node">
<title>Node1</title>
<g id="a_node1"><a xlink:title=" ">
<polygon fill="#bfbfbf" stroke="black" points="190.5,-112.5 190.5,-131.5 302.5,-131.5 302.5,-112.5 190.5,-112.5"/>
<text text-anchor="middle" x="246.5" y="-119.5" font-family="Helvetica,sans-Serif" font-size="10.00">src/hopscotch_map.h</text>
</a>
</g>
</g>
<!-- Node2 -->
<g id="node2" class="node">
<title>Node2</title>
<g id="a_node2"><a xlink:href="Ioss__Decomposition_8h.html" target="_top" xlink:title=" ">
<polygon fill="white" stroke="black" points="109,-56.5 109,-75.5 240,-75.5 240,-56.5 109,-56.5"/>
<text text-anchor="middle" x="174.5" y="-63.5" font-family="Helvetica,sans-Serif" font-size="10.00">src/Ioss_Decomposition.h</text>
</a>
</g>
</g>
<!-- Node1&#45;&gt;Node2 -->
<g id="edge1" class="edge">
<title>Node1&#45;&gt;Node2</title>
<path fill="none" stroke="midnightblue" d="M226.63,-106.1C213.68,-96.38 197.2,-84.03 186.28,-75.83"/>
<polygon fill="midnightblue" stroke="midnightblue" points="224.83,-109.12 234.93,-112.32 229.03,-103.52 224.83,-109.12"/>
</g>
<!-- Node4 -->
<g id="node4" class="node">
<title>Node4</title>
<g id="a_node4"><a xlink:href="Ioex__Utils_8h.html" target="_top" xlink:title=" ">
<polygon fill="white" stroke="black" points="365.5,-56.5 365.5,-75.5 485.5,-75.5 485.5,-56.5 365.5,-56.5"/>
<text text-anchor="middle" x="425.5" y="-63.5" font-family="Helvetica,sans-Serif" font-size="10.00">src/exodus/Ioex_Utils.h</text>
</a>
</g>
</g>
<!-- Node1&#45;&gt;Node4 -->
<g id="edge3" class="edge">
<title>Node1&#45;&gt;Node4</title>
<path fill="none" stroke="midnightblue" d="M284.83,-109.44C318.58,-99.26 366.95,-84.66 397.27,-75.52"/>
<polygon fill="midnightblue" stroke="midnightblue" points="283.43,-106.2 274.86,-112.44 285.45,-112.91 283.43,-106.2"/>
</g>
<!-- Node3 -->
<g id="node3" class="node">
<title>Node3</title>
<g id="a_node3"><a xlink:href="Ioss__Decomposition_8C.html" target="_top" xlink:title=" ">
<polygon fill="white" stroke="black" points="0,-0.5 0,-19.5 133,-19.5 133,-0.5 0,-0.5"/>
<text text-anchor="middle" x="66.5" y="-7.5" font-family="Helvetica,sans-Serif" font-size="10.00">src/Ioss_Decomposition.C</text>
</a>
</g>
</g>
<!-- Node2&#45;&gt;Node3 -->
<g id="edge2" class="edge">
<title>Node2&#45;&gt;Node3</title>
<path fill="none" stroke="midnightblue" d="M147.95,-51.73C127.95,-41.73 101.11,-28.31 83.81,-19.65"/>
<polygon fill="midnightblue" stroke="midnightblue" points="146.64,-54.98 157.15,-56.32 149.77,-48.72 146.64,-54.98"/>
</g>
<!-- Node5 -->
<g id="node5" class="node">
<title>Node5</title>
<g id="a_node5"><a xlink:href="Ioex__BaseDatabaseIO_8C.html" target="_top" xlink:title=" ">
<polygon fill="white" stroke="black" points="151.5,-0.5 151.5,-19.5 329.5,-19.5 329.5,-0.5 151.5,-0.5"/>
<text text-anchor="middle" x="240.5" y="-7.5" font-family="Helvetica,sans-Serif" font-size="10.00">src/exodus/Ioex_BaseDatabaseIO.C</text>
</a>
</g>
</g>
<!-- Node4&#45;&gt;Node5 -->
<g id="edge4" class="edge">
<title>Node4&#45;&gt;Node5</title>
<path fill="none" stroke="midnightblue" d="M386.33,-53.57C351.43,-43.38 301.15,-28.7 269.68,-19.52"/>
<polygon fill="midnightblue" stroke="midnightblue" points="385.61,-57 396.19,-56.44 387.57,-50.28 385.61,-57"/>
</g>
<!-- Node6 -->
<g id="node6" class="node">
<title>Node6</title>
<g id="a_node6"><a xlink:href="Ioex__DatabaseIO_8C.html" target="_top" xlink:title=" ">
<polygon fill="white" stroke="black" points="348,-0.5 348,-19.5 503,-19.5 503,-0.5 348,-0.5"/>
<text text-anchor="middle" x="425.5" y="-7.5" font-family="Helvetica,sans-Serif" font-size="10.00">src/exodus/Ioex_DatabaseIO.C</text>
</a>
</g>
</g>
<!-- Node4&#45;&gt;Node6 -->
<g id="edge5" class="edge">
<title>Node4&#45;&gt;Node6</title>
<path fill="none" stroke="midnightblue" d="M425.5,-45.8C425.5,-36.91 425.5,-26.78 425.5,-19.75"/>
<polygon fill="midnightblue" stroke="midnightblue" points="422,-46.08 425.5,-56.08 429,-46.08 422,-46.08"/>
</g>
<!-- Node7 -->
<g id="node7" class="node">
<title>Node7</title>
<g id="a_node7"><a xlink:href="Ioex__Internals_8C.html" target="_top" xlink:title=" ">
<polygon fill="white" stroke="black" points="521.5,-0.5 521.5,-19.5 661.5,-19.5 661.5,-0.5 521.5,-0.5"/>
<text text-anchor="middle" x="591.5" y="-7.5" font-family="Helvetica,sans-Serif" font-size="10.00">src/exodus/Ioex_Internals.C</text>
</a>
</g>
</g>
<!-- Node4&#45;&gt;Node7 -->
<g id="edge6" class="edge">
<title>Node4&#45;&gt;Node7</title>
<path fill="none" stroke="midnightblue" d="M461.45,-53.3C492.73,-43.13 537.32,-28.62 565.32,-19.52"/>
<polygon fill="midnightblue" stroke="midnightblue" points="460.23,-50.02 451.8,-56.44 462.4,-56.68 460.23,-50.02"/>
</g>
<!-- Node8 -->
<g id="node8" class="node">
<title>Node8</title>
<g id="a_node8"><a xlink:href="Ioex__Utils_8C.html" target="_top" xlink:title=" ">
<polygon fill="white" stroke="black" points="679.5,-0.5 679.5,-19.5 801.5,-19.5 801.5,-0.5 679.5,-0.5"/>
<text text-anchor="middle" x="740.5" y="-7.5" font-family="Helvetica,sans-Serif" font-size="10.00">src/exodus/Ioex_Utils.C</text>
</a>
</g>
</g>
<!-- Node4&#45;&gt;Node8 -->
<g id="edge7" class="edge">
<title>Node4&#45;&gt;Node8</title>
<path fill="none" stroke="midnightblue" d="M485.42,-54.73C544.95,-44.52 635.16,-29.06 690.82,-19.52"/>
<polygon fill="midnightblue" stroke="midnightblue" points="484.68,-51.3 475.41,-56.44 485.86,-58.2 484.68,-51.3"/>
</g>
</g>
</svg>
