<?xml version="1.0" encoding="UTF-8" standalone="no"?>
<!DOCTYPE svg PUBLIC "-//W3C//DTD SVG 1.1//EN"
 "http://www.w3.org/Graphics/SVG/1.1/DTD/svg11.dtd">
<!-- Generated by graphviz version 9.0.0 (20230911.1827)
 -->
<!-- Title: Graphical Class Hierarchy Pages: 1 -->
<svg width="369pt" height="137pt"
 viewBox="0.00 0.00 369.25 136.50" xmlns="http://www.w3.org/2000/svg" xmlns:xlink="http://www.w3.org/1999/xlink">
<g id="graph0" class="graph" transform="scale(1 1) rotate(0) translate(4 132.5)">
<title>Graphical Class Hierarchy</title>
<!-- Node0 -->
<g id="Node000000" class="node">
<title>Node0</title>
<g id="a_Node000000"><a xlink:href="classIotm_1_1text__mesh_1_1EntityGroup.html" target="_top" xlink:title=" ">
<polygon fill="white" stroke="#666666" points="145,-79.5 0,-79.5 0,-49 145,-49 145,-79.5"/>
<text text-anchor="start" x="8" y="-66" font-family="Helvetica,sans-Serif" font-size="10.00">Iotm::text_mesh::EntityGroup</text>
<text text-anchor="middle" x="72.5" y="-54.75" font-family="Helvetica,sans-Serif" font-size="10.00">&lt; GroupData &gt;</text>
</a>
</g>
</g>
<!-- Node1 -->
<g id="Node000001" class="node">
<title>Node1</title>
<g id="a_Node000001"><a xlink:href="classIotm_1_1text__mesh_1_1Nodesets.html" target="_top" xlink:title=" ">
<polygon fill="white" stroke="#666666" points="338.75,-128.5 203.5,-128.5 203.5,-98 338.75,-98 338.75,-128.5"/>
<text text-anchor="start" x="211.5" y="-115" font-family="Helvetica,sans-Serif" font-size="10.00">Iotm::text_mesh::Nodesets</text>
<text text-anchor="middle" x="271.12" y="-103.75" font-family="Helvetica,sans-Serif" font-size="10.00">&lt; int64_t &gt;</text>
</a>
</g>
</g>
<!-- Node0&#45;&gt;Node1 -->
<g id="edge285_Node000000_Node000001" class="edge">
<title>Node0&#45;&gt;Node1</title>
<g id="a_edge285_Node000000_Node000001"><a xlink:title=" ">
<path fill="none" stroke="#63b8ff" d="M147.57,-82.71C167.18,-87.6 188.16,-92.82 207.12,-97.55"/>
<polygon fill="#63b8ff" stroke="#63b8ff" points="148.54,-79.34 137.99,-80.32 146.85,-86.14 148.54,-79.34"/>
</a>
</g>
</g>
<!-- Node2 -->
<g id="Node000002" class="node">
<title>Node2</title>
<g id="a_Node000002"><a xlink:href="classIotm_1_1text__mesh_1_1Sidesets.html" target="_top" xlink:title=" ">
<polygon fill="white" stroke="#666666" points="359,-79.5 183.25,-79.5 183.25,-49 359,-49 359,-79.5"/>
<text text-anchor="start" x="191.25" y="-66" font-family="Helvetica,sans-Serif" font-size="10.00">Iotm::text_mesh::Sidesets</text>
<text text-anchor="middle" x="271.12" y="-54.75" font-family="Helvetica,sans-Serif" font-size="10.00">&lt; int64_t, Iotm::TopologyMapEntry &gt;</text>
</a>
</g>
</g>
<!-- Node0&#45;&gt;Node2 -->
<g id="edge286_Node000000_Node000002" class="edge">
<title>Node0&#45;&gt;Node2</title>
<g id="a_edge286_Node000000_Node000002"><a xlink:title=" ">
<path fill="none" stroke="#63b8ff" d="M156.59,-64.25C165.25,-64.25 174.08,-64.25 182.78,-64.25"/>
<polygon fill="#63b8ff" stroke="#63b8ff" points="156.83,-60.75 146.83,-64.25 156.83,-67.75 156.83,-60.75"/>
</a>
</g>
</g>
<!-- Node3 -->
<g id="Node000003" class="node">
<title>Node3</title>
<g id="a_Node000003"><a xlink:href="classIotm_1_1text__mesh_1_1Sidesets.html" target="_top" xlink:title=" ">
<polygon fill="white" stroke="#666666" points="361.25,-30.5 181,-30.5 181,0 361.25,0 361.25,-30.5"/>
<text text-anchor="start" x="189" y="-17" font-family="Helvetica,sans-Serif" font-size="10.00">Iotm::text_mesh::Sidesets</text>
<text text-anchor="middle" x="271.12" y="-5.75" font-family="Helvetica,sans-Serif" font-size="10.00">&lt; EntityId, Iotm::TopologyMapEntry &gt;</text>
</a>
</g>
</g>
<!-- Node0&#45;&gt;Node3 -->
<g id="edge287_Node000000_Node000003" class="edge">
<title>Node0&#45;&gt;Node3</title>
<g id="a_edge287_Node000000_Node000003"><a xlink:title=" ">
<path fill="none" stroke="#63b8ff" d="M147.57,-45.79C167.18,-40.9 188.16,-35.68 207.12,-30.95"/>
<polygon fill="#63b8ff" stroke="#63b8ff" points="146.85,-42.36 137.99,-48.18 148.54,-49.16 146.85,-42.36"/>
</a>
</g>
</g>
</g>
</svg>
