<?xml version="1.0" encoding="UTF-8" standalone="no"?>
<!DOCTYPE svg PUBLIC "-//W3C//DTD SVG 1.1//EN"
 "http://www.w3.org/Graphics/SVG/1.1/DTD/svg11.dtd">
<!-- Generated by graphviz version 8.1.0 (20230707.0739)
 -->
<!-- Title: Graphical Class Hierarchy Pages: 1 -->
<svg width="271pt" height="88pt"
 viewBox="0.00 0.00 271.00 87.50" xmlns="http://www.w3.org/2000/svg" xmlns:xlink="http://www.w3.org/1999/xlink">
<g id="graph0" class="graph" transform="scale(1 1) rotate(0) translate(4 83.5)">
<title>Graphical Class Hierarchy</title>
<!-- Node0 -->
<g id="Node000000" class="node">
<title>Node0</title>
<g id="a_Node000000"><a xlink:href="classIoss_1_1glob_1_1SetItem.html" target="_top" xlink:title=" ">
<polygon fill="white" stroke="#666666" points="99.25,-54.5 0,-54.5 0,-24 99.25,-24 99.25,-54.5"/>
<text text-anchor="start" x="8" y="-41" font-family="Helvetica,sans-Serif" font-size="10.00">Ioss::glob::SetItem</text>
<text text-anchor="middle" x="49.62" y="-29.75" font-family="Helvetica,sans-Serif" font-size="10.00">&lt; charT &gt;</text>
</a>
</g>
</g>
<!-- Node1 -->
<g id="Node000001" class="node">
<title>Node1</title>
<g id="a_Node000001"><a xlink:href="classIoss_1_1glob_1_1SetItemChar.html" target="_top" xlink:title=" ">
<polygon fill="white" stroke="#666666" points="259.25,-79.5 139,-79.5 139,-49 259.25,-49 259.25,-79.5"/>
<text text-anchor="start" x="147" y="-66" font-family="Helvetica,sans-Serif" font-size="10.00">Ioss::glob::SetItemChar</text>
<text text-anchor="middle" x="199.12" y="-54.75" font-family="Helvetica,sans-Serif" font-size="10.00">&lt; charT &gt;</text>
</a>
</g>
</g>
<!-- Node0&#45;&gt;Node1 -->
<g id="edge133_Node000000_Node000001" class="edge">
<title>Node0&#45;&gt;Node1</title>
<g id="a_edge133_Node000000_Node000001"><a xlink:title=" ">
<path fill="none" stroke="#63b8ff" d="M110.49,-49.4C119.8,-50.97 129.42,-52.6 138.72,-54.18"/>
<polygon fill="#63b8ff" stroke="#63b8ff" points="111.18,-45.8 100.74,-47.57 110.01,-52.7 111.18,-45.8"/>
</a>
</g>
</g>
<!-- Node2 -->
<g id="Node000002" class="node">
<title>Node2</title>
<g id="a_Node000002"><a xlink:href="classIoss_1_1glob_1_1SetItemRange.html" target="_top" xlink:title=" ">
<polygon fill="white" stroke="#666666" points="263,-30.5 135.25,-30.5 135.25,0 263,0 263,-30.5"/>
<text text-anchor="start" x="143.25" y="-17" font-family="Helvetica,sans-Serif" font-size="10.00">Ioss::glob::SetItemRange</text>
<text text-anchor="middle" x="199.12" y="-5.75" font-family="Helvetica,sans-Serif" font-size="10.00">&lt; charT &gt;</text>
</a>
</g>
</g>
<!-- Node0&#45;&gt;Node2 -->
<g id="edge134_Node000000_Node000002" class="edge">
<title>Node0&#45;&gt;Node2</title>
<g id="a_edge134_Node000000_Node000002"><a xlink:title=" ">
<path fill="none" stroke="#63b8ff" d="M110.48,-29.51C118.49,-28.21 126.73,-26.87 134.79,-25.55"/>
<polygon fill="#63b8ff" stroke="#63b8ff" points="110.05,-26.2 100.74,-31.26 111.17,-33.11 110.05,-26.2"/>
</a>
</g>
</g>
</g>
</svg>
