<?xml version="1.0" encoding="UTF-8" standalone="no"?>
<!DOCTYPE svg PUBLIC "-//W3C//DTD SVG 1.1//EN"
 "http://www.w3.org/Graphics/SVG/1.1/DTD/svg11.dtd">
<!-- Generated by graphviz version 7.0.0 (20221023.0053)
 -->
<!-- Title: Graphical Class Hierarchy Pages: 1 -->
<svg width="276pt" height="64pt"
 viewBox="0.00 0.00 276.00 64.00" xmlns="http://www.w3.org/2000/svg" xmlns:xlink="http://www.w3.org/1999/xlink">
<g id="graph0" class="graph" transform="scale(1 1) rotate(0) translate(4 60)">
<title>Graphical Class Hierarchy</title>
<!-- Node0 -->
<g id="node1" class="node">
<title>Node0</title>
<g id="a_node1"><a xlink:href="classIogn_1_1GeneratedMesh.html" target="_top" xlink:title=" ">
<polygon fill="white" stroke="#666666" points="110,-37 0,-37 0,-18 110,-18 110,-37"/>
<text text-anchor="middle" x="55" y="-25" font-family="Helvetica,sans-Serif" font-size="10.00">Iogn::GeneratedMesh</text>
</a>
</g>
</g>
<!-- Node1 -->
<g id="node2" class="node">
<title>Node1</title>
<g id="a_node2"><a xlink:href="classIogn_1_1DashSurfaceMesh.html" target="_top" xlink:title=" ">
<polygon fill="white" stroke="#666666" points="268,-56 146,-56 146,-37 268,-37 268,-56"/>
<text text-anchor="middle" x="207" y="-44" font-family="Helvetica,sans-Serif" font-size="10.00">Iogn::DashSurfaceMesh</text>
</a>
</g>
</g>
<!-- Node0&#45;&gt;Node1 -->
<g id="edge1" class="edge">
<title>Node0&#45;&gt;Node1</title>
<path fill="none" stroke="#63b8ff" d="M121.38,-35.78C129.42,-36.8 137.61,-37.84 145.57,-38.85"/>
<polygon fill="#63b8ff" stroke="#63b8ff" points="122.02,-32.33 111.65,-34.55 121.14,-39.28 122.02,-32.33"/>
</g>
<!-- Node2 -->
<g id="node3" class="node">
<title>Node2</title>
<g id="a_node3"><a xlink:href="classIogn_1_1ExodusMesh.html" target="_top" xlink:title=" ">
<polygon fill="white" stroke="#666666" points="256,-19 158,-19 158,0 256,0 256,-19"/>
<text text-anchor="middle" x="207" y="-7" font-family="Helvetica,sans-Serif" font-size="10.00">Iogn::ExodusMesh</text>
</a>
</g>
</g>
<!-- Node0&#45;&gt;Node2 -->
<g id="edge2" class="edge">
<title>Node0&#45;&gt;Node2</title>
<path fill="none" stroke="#63b8ff" d="M121.31,-19.66C133.6,-18.19 146.25,-16.67 157.89,-15.27"/>
<polygon fill="#63b8ff" stroke="#63b8ff" points="121.17,-16.15 111.66,-20.82 122,-23.1 121.17,-16.15"/>
</g>
</g>
</svg>
