<?xml version="1.0" encoding="UTF-8" standalone="no"?>
<!DOCTYPE svg PUBLIC "-//W3C//DTD SVG 1.1//EN"
 "http://www.w3.org/Graphics/SVG/1.1/DTD/svg11.dtd">
<!-- Generated by graphviz version 7.0.2 (20221119.0110)
 -->
<!-- Title: Graphical Class Hierarchy Pages: 1 -->
<svg width="240pt" height="249pt"
 viewBox="0.00 0.00 240.00 249.00" xmlns="http://www.w3.org/2000/svg" xmlns:xlink="http://www.w3.org/1999/xlink">
<g id="graph0" class="graph" transform="scale(1 1) rotate(0) translate(4 245)">
<title>Graphical Class Hierarchy</title>
<!-- Node0 -->
<g id="node1" class="node">
<title>Node0</title>
<g id="a_node1"><a xlink:href="classIoss_1_1Transform.html" target="_top" xlink:title=" ">
<polygon fill="white" stroke="#666666" points="86,-130 0,-130 0,-111 86,-111 86,-130"/>
<text text-anchor="middle" x="43" y="-118" font-family="Helvetica,sans-Serif" font-size="10.00">Ioss::Transform</text>
</a>
</g>
</g>
<!-- Node1 -->
<g id="node2" class="node">
<title>Node1</title>
<g id="a_node2"><a xlink:href="classIotr_1_1MinMax.html" target="_top" xlink:title=" ">
<polygon fill="white" stroke="#666666" points="212.5,-241 141.5,-241 141.5,-222 212.5,-222 212.5,-241"/>
<text text-anchor="middle" x="177" y="-229" font-family="Helvetica,sans-Serif" font-size="10.00">Iotr::MinMax</text>
</a>
</g>
</g>
<!-- Node0&#45;&gt;Node1 -->
<g id="edge1" class="edge">
<title>Node0&#45;&gt;Node1</title>
<path fill="none" stroke="#63b8ff" d="M55.82,-140.23C69.35,-161.22 93.36,-194.02 122,-213.5 127.8,-217.45 134.54,-220.59 141.25,-223.07"/>
<polygon fill="#63b8ff" stroke="#63b8ff" points="58.8,-138.39 50.54,-131.75 52.86,-142.09 58.8,-138.39"/>
</g>
<!-- Node2 -->
<g id="node3" class="node">
<title>Node2</title>
<g id="a_node3"><a xlink:href="classIotr_1_1Offset.html" target="_top" xlink:title=" ">
<polygon fill="white" stroke="#666666" points="209,-204 145,-204 145,-185 209,-185 209,-204"/>
<text text-anchor="middle" x="177" y="-192" font-family="Helvetica,sans-Serif" font-size="10.00">Iotr::Offset</text>
</a>
</g>
</g>
<!-- Node0&#45;&gt;Node2 -->
<g id="edge2" class="edge">
<title>Node0&#45;&gt;Node2</title>
<path fill="none" stroke="#63b8ff" d="M63.95,-137.41C79.09,-149.58 100.85,-165.7 122,-176.5 129.04,-180.1 136.95,-183.2 144.51,-185.77"/>
<polygon fill="#63b8ff" stroke="#63b8ff" points="66.55,-135.02 56.6,-131.38 62.11,-140.43 66.55,-135.02"/>
</g>
<!-- Node3 -->
<g id="node4" class="node">
<title>Node3</title>
<g id="a_node4"><a xlink:href="classIotr_1_1Offset3D.html" target="_top" xlink:title=" ">
<polygon fill="white" stroke="#666666" points="215.5,-167 138.5,-167 138.5,-148 215.5,-148 215.5,-167"/>
<text text-anchor="middle" x="177" y="-155" font-family="Helvetica,sans-Serif" font-size="10.00">Iotr::Offset3D</text>
</a>
</g>
</g>
<!-- Node0&#45;&gt;Node3 -->
<g id="edge3" class="edge">
<title>Node0&#45;&gt;Node3</title>
<path fill="none" stroke="#63b8ff" d="M90.43,-133.51C106.88,-138.13 125.13,-143.24 140.53,-147.56"/>
<polygon fill="#63b8ff" stroke="#63b8ff" points="91.4,-130.15 80.83,-130.82 89.52,-136.89 91.4,-130.15"/>
</g>
<!-- Node4 -->
<g id="node5" class="node">
<title>Node4</title>
<g id="a_node5"><a xlink:href="classIotr_1_1Scale.html" target="_top" xlink:title=" ">
<polygon fill="white" stroke="#666666" points="208,-130 146,-130 146,-111 208,-111 208,-130"/>
<text text-anchor="middle" x="177" y="-118" font-family="Helvetica,sans-Serif" font-size="10.00">Iotr::Scale</text>
</a>
</g>
</g>
<!-- Node0&#45;&gt;Node4 -->
<g id="edge4" class="edge">
<title>Node0&#45;&gt;Node4</title>
<path fill="none" stroke="#63b8ff" d="M97.62,-120.5C114.01,-120.5 131.45,-120.5 145.72,-120.5"/>
<polygon fill="#63b8ff" stroke="#63b8ff" points="98.01,-117 88.01,-120.5 98.01,-124 98.01,-117"/>
</g>
<!-- Node5 -->
<g id="node6" class="node">
<title>Node5</title>
<g id="a_node6"><a xlink:href="classIotr_1_1Scale3D.html" target="_top" xlink:title=" ">
<polygon fill="white" stroke="#666666" points="214,-93 140,-93 140,-74 214,-74 214,-93"/>
<text text-anchor="middle" x="177" y="-81" font-family="Helvetica,sans-Serif" font-size="10.00">Iotr::Scale3D</text>
</a>
</g>
</g>
<!-- Node0&#45;&gt;Node5 -->
<g id="edge5" class="edge">
<title>Node0&#45;&gt;Node5</title>
<path fill="none" stroke="#63b8ff" d="M90.43,-107.49C106.88,-102.87 125.13,-97.76 140.53,-93.44"/>
<polygon fill="#63b8ff" stroke="#63b8ff" points="89.52,-104.11 80.83,-110.18 91.4,-110.85 89.52,-104.11"/>
</g>
<!-- Node6 -->
<g id="node7" class="node">
<title>Node6</title>
<g id="a_node7"><a xlink:href="classIotr_1_1Tensor.html" target="_top" xlink:title=" ">
<polygon fill="white" stroke="#666666" points="210,-56 144,-56 144,-37 210,-37 210,-56"/>
<text text-anchor="middle" x="177" y="-44" font-family="Helvetica,sans-Serif" font-size="10.00">Iotr::Tensor</text>
</a>
</g>
</g>
<!-- Node0&#45;&gt;Node6 -->
<g id="edge6" class="edge">
<title>Node0&#45;&gt;Node6</title>
<path fill="none" stroke="#63b8ff" d="M64.74,-103.48C79.91,-91.65 101.34,-76.16 122,-65.5 128.8,-61.99 136.4,-58.88 143.69,-56.23"/>
<polygon fill="#63b8ff" stroke="#63b8ff" points="62.58,-100.72 56.94,-109.69 66.95,-106.2 62.58,-100.72"/>
</g>
<!-- Node7 -->
<g id="node8" class="node">
<title>Node7</title>
<g id="a_node8"><a xlink:href="classIotr_1_1VectorMagnitude.html" target="_top" xlink:title=" ">
<polygon fill="white" stroke="#666666" points="232,-19 122,-19 122,0 232,0 232,-19"/>
<text text-anchor="middle" x="177" y="-7" font-family="Helvetica,sans-Serif" font-size="10.00">Iotr::VectorMagnitude</text>
</a>
</g>
</g>
<!-- Node0&#45;&gt;Node7 -->
<g id="edge7" class="edge">
<title>Node0&#45;&gt;Node7</title>
<path fill="none" stroke="#63b8ff" d="M55.93,-101.07C69.55,-80.39 93.65,-48.02 122,-28.5 127.24,-24.89 133.23,-21.9 139.28,-19.44"/>
<polygon fill="#63b8ff" stroke="#63b8ff" points="53.04,-99.1 50.61,-109.41 58.94,-102.87 53.04,-99.1"/>
</g>
</g>
</svg>
