<?xml version="1.0" encoding="UTF-8" standalone="no"?>
<!DOCTYPE svg PUBLIC "-//W3C//DTD SVG 1.1//EN"
 "http://www.w3.org/Graphics/SVG/1.1/DTD/svg11.dtd">
<!-- Generated by graphviz version 12.1.2 (20240928.0832)
 -->
<!-- Title: Graphical Class Hierarchy Pages: 1 -->
<svg width="289pt" height="529pt"
 viewBox="0.00 0.00 289.00 528.50" xmlns="http://www.w3.org/2000/svg" xmlns:xlink="http://www.w3.org/1999/xlink">
<g id="graph0" class="graph" transform="scale(1 1) rotate(0) translate(4 524.5)">
<title>Graphical Class Hierarchy</title>
<!-- Node0 -->
<g id="Node000000" class="node">
<title>Node0</title>
<g id="a_Node000000"><a xlink:href="classIoss_1_1glob_1_1AstNode.html" target="_top" xlink:title=" ">
<polygon fill="white" stroke="#666666" points="103,-275.5 0,-275.5 0,-245 103,-245 103,-275.5"/>
<text text-anchor="start" x="8" y="-262" font-family="Helvetica,sans-Serif" font-size="10.00">Ioss::glob::AstNode</text>
<text text-anchor="middle" x="51.5" y="-250.75" font-family="Helvetica,sans-Serif" font-size="10.00">&lt; charT &gt;</text>
</a>
</g>
</g>
<!-- Node1 -->
<g id="Node000001" class="node">
<title>Node1</title>
<g id="a_Node000001"><a xlink:href="classIoss_1_1glob_1_1AnyNode.html" target="_top" xlink:title=" ">
<polygon fill="white" stroke="#666666" points="262.62,-520.5 157.38,-520.5 157.38,-490 262.62,-490 262.62,-520.5"/>
<text text-anchor="start" x="165.38" y="-507" font-family="Helvetica,sans-Serif" font-size="10.00">Ioss::glob::AnyNode</text>
<text text-anchor="middle" x="210" y="-495.75" font-family="Helvetica,sans-Serif" font-size="10.00">&lt; charT &gt;</text>
</a>
</g>
</g>
<!-- Node0&#45;&gt;Node1 -->
<g id="edge107_Node000000_Node000001" class="edge">
<title>Node0&#45;&gt;Node1</title>
<g id="a_edge107_Node000000_Node000001"><a xlink:title=" ">
<path fill="none" stroke="#63b8ff" d="M55.86,-287.37C62.96,-333.3 83.65,-426.62 139,-480.25 144.19,-485.28 150.46,-489.3 157.09,-492.52"/>
<polygon fill="#63b8ff" stroke="#63b8ff" points="59.33,-286.9 54.45,-277.49 52.4,-287.89 59.33,-286.9"/>
</a>
</g>
</g>
<!-- Node2 -->
<g id="Node000002" class="node">
<title>Node2</title>
<g id="a_Node000002"><a xlink:href="classIoss_1_1glob_1_1CharNode.html" target="_top" xlink:title=" ">
<polygon fill="white" stroke="#666666" points="264.5,-471.5 155.5,-471.5 155.5,-441 264.5,-441 264.5,-471.5"/>
<text text-anchor="start" x="163.5" y="-458" font-family="Helvetica,sans-Serif" font-size="10.00">Ioss::glob::CharNode</text>
<text text-anchor="middle" x="210" y="-446.75" font-family="Helvetica,sans-Serif" font-size="10.00">&lt; charT &gt;</text>
</a>
</g>
</g>
<!-- Node0&#45;&gt;Node2 -->
<g id="edge108_Node000000_Node000002" class="edge">
<title>Node0&#45;&gt;Node2</title>
<g id="a_edge108_Node000000_Node000002"><a xlink:title=" ">
<path fill="none" stroke="#63b8ff" d="M59.21,-286.87C69.93,-324.21 94.42,-391.93 139,-431.25 143.74,-435.43 149.23,-438.93 155.01,-441.85"/>
<polygon fill="#63b8ff" stroke="#63b8ff" points="62.62,-286.08 56.6,-277.36 55.87,-287.92 62.62,-286.08"/>
</a>
</g>
</g>
<!-- Node3 -->
<g id="Node000003" class="node">
<title>Node3</title>
<g id="a_Node000003"><a xlink:href="classIoss_1_1glob_1_1ConcatNode.html" target="_top" xlink:title=" ">
<polygon fill="white" stroke="#666666" points="269.75,-422.5 150.25,-422.5 150.25,-392 269.75,-392 269.75,-422.5"/>
<text text-anchor="start" x="158.25" y="-409" font-family="Helvetica,sans-Serif" font-size="10.00">Ioss::glob::ConcatNode</text>
<text text-anchor="middle" x="210" y="-397.75" font-family="Helvetica,sans-Serif" font-size="10.00">&lt; charT &gt;</text>
</a>
</g>
</g>
<!-- Node0&#45;&gt;Node3 -->
<g id="edge109_Node000000_Node000003" class="edge">
<title>Node0&#45;&gt;Node3</title>
<g id="a_edge109_Node000000_Node000003"><a xlink:title=" ">
<path fill="none" stroke="#63b8ff" d="M64.55,-285.69C78.77,-313.13 104.84,-356.36 139,-382.25 143.73,-385.84 149.02,-388.94 154.52,-391.62"/>
<polygon fill="#63b8ff" stroke="#63b8ff" points="67.82,-284.39 60.21,-277.02 61.56,-287.53 67.82,-284.39"/>
</a>
</g>
</g>
<!-- Node4 -->
<g id="Node000004" class="node">
<title>Node4</title>
<g id="a_Node000004"><a xlink:href="classIoss_1_1glob_1_1GlobNode.html" target="_top" xlink:title=" ">
<polygon fill="white" stroke="#666666" points="264.12,-373.5 155.88,-373.5 155.88,-343 264.12,-343 264.12,-373.5"/>
<text text-anchor="start" x="163.88" y="-360" font-family="Helvetica,sans-Serif" font-size="10.00">Ioss::glob::GlobNode</text>
<text text-anchor="middle" x="210" y="-348.75" font-family="Helvetica,sans-Serif" font-size="10.00">&lt; charT &gt;</text>
</a>
</g>
</g>
<!-- Node0&#45;&gt;Node4 -->
<g id="edge110_Node000000_Node000004" class="edge">
<title>Node0&#45;&gt;Node4</title>
<g id="a_edge110_Node000000_Node000004"><a xlink:title=" ">
<path fill="none" stroke="#63b8ff" d="M75.42,-283.59C91.92,-299.34 115.36,-319.65 139,-333.25 145.04,-336.72 151.65,-339.85 158.31,-342.61"/>
<polygon fill="#63b8ff" stroke="#63b8ff" points="78.15,-281.36 68.54,-276.89 73.26,-286.37 78.15,-281.36"/>
</a>
</g>
</g>
<!-- Node5 -->
<g id="Node000005" class="node">
<title>Node5</title>
<g id="a_Node000005"><a xlink:href="classIoss_1_1glob_1_1GroupNode.html" target="_top" xlink:title=" ">
<polygon fill="white" stroke="#666666" points="267.12,-324.5 152.88,-324.5 152.88,-294 267.12,-294 267.12,-324.5"/>
<text text-anchor="start" x="160.88" y="-311" font-family="Helvetica,sans-Serif" font-size="10.00">Ioss::glob::GroupNode</text>
<text text-anchor="middle" x="210" y="-299.75" font-family="Helvetica,sans-Serif" font-size="10.00">&lt; charT &gt;</text>
</a>
</g>
</g>
<!-- Node0&#45;&gt;Node5 -->
<g id="edge111_Node000000_Node000005" class="edge">
<title>Node0&#45;&gt;Node5</title>
<g id="a_edge111_Node000000_Node000005"><a xlink:title=" ">
<path fill="none" stroke="#63b8ff" d="M113.21,-279.26C128.27,-283.97 144.23,-288.97 158.72,-293.51"/>
<polygon fill="#63b8ff" stroke="#63b8ff" points="114.48,-275.99 103.89,-276.34 112.39,-282.67 114.48,-275.99"/>
</a>
</g>
</g>
<!-- Node6 -->
<g id="Node000006" class="node">
<title>Node6</title>
<g id="a_Node000006"><a xlink:href="classIoss_1_1glob_1_1NegativeSetNode.html" target="_top" xlink:title=" ">
<polygon fill="white" stroke="#666666" points="281,-275.5 139,-275.5 139,-245 281,-245 281,-275.5"/>
<text text-anchor="start" x="147" y="-262" font-family="Helvetica,sans-Serif" font-size="10.00">Ioss::glob::NegativeSetNode</text>
<text text-anchor="middle" x="210" y="-250.75" font-family="Helvetica,sans-Serif" font-size="10.00">&lt; charT &gt;</text>
</a>
</g>
</g>
<!-- Node0&#45;&gt;Node6 -->
<g id="edge112_Node000000_Node000006" class="edge">
<title>Node0&#45;&gt;Node6</title>
<g id="a_edge112_Node000000_Node000006"><a xlink:title=" ">
<path fill="none" stroke="#63b8ff" d="M114.62,-260.25C122.48,-260.25 130.56,-260.25 138.54,-260.25"/>
<polygon fill="#63b8ff" stroke="#63b8ff" points="114.82,-256.75 104.82,-260.25 114.82,-263.75 114.82,-256.75"/>
</a>
</g>
</g>
<!-- Node7 -->
<g id="Node000007" class="node">
<title>Node7</title>
<g id="a_Node000007"><a xlink:href="classIoss_1_1glob_1_1PositiveSetNode.html" target="_top" xlink:title=" ">
<polygon fill="white" stroke="#666666" points="279.12,-226.5 140.88,-226.5 140.88,-196 279.12,-196 279.12,-226.5"/>
<text text-anchor="start" x="148.88" y="-213" font-family="Helvetica,sans-Serif" font-size="10.00">Ioss::glob::PositiveSetNode</text>
<text text-anchor="middle" x="210" y="-201.75" font-family="Helvetica,sans-Serif" font-size="10.00">&lt; charT &gt;</text>
</a>
</g>
</g>
<!-- Node0&#45;&gt;Node7 -->
<g id="edge113_Node000000_Node000007" class="edge">
<title>Node0&#45;&gt;Node7</title>
<g id="a_edge113_Node000000_Node000007"><a xlink:title=" ">
<path fill="none" stroke="#63b8ff" d="M113.21,-241.24C128.27,-236.53 144.23,-231.53 158.72,-226.99"/>
<polygon fill="#63b8ff" stroke="#63b8ff" points="112.39,-237.83 103.89,-244.16 114.48,-244.51 112.39,-237.83"/>
</a>
</g>
</g>
<!-- Node8 -->
<g id="Node000008" class="node">
<title>Node8</title>
<g id="a_Node000008"><a xlink:href="classIoss_1_1glob_1_1RangeNode.html" target="_top" xlink:title=" ">
<polygon fill="white" stroke="#666666" points="268.25,-177.5 151.75,-177.5 151.75,-147 268.25,-147 268.25,-177.5"/>
<text text-anchor="start" x="159.75" y="-164" font-family="Helvetica,sans-Serif" font-size="10.00">Ioss::glob::RangeNode</text>
<text text-anchor="middle" x="210" y="-152.75" font-family="Helvetica,sans-Serif" font-size="10.00">&lt; charT &gt;</text>
</a>
</g>
</g>
<!-- Node0&#45;&gt;Node8 -->
<g id="edge114_Node000000_Node000008" class="edge">
<title>Node0&#45;&gt;Node8</title>
<g id="a_edge114_Node000000_Node000008"><a xlink:title=" ">
<path fill="none" stroke="#63b8ff" d="M75.42,-236.91C91.92,-221.16 115.36,-200.85 139,-187.25 145.04,-183.78 151.65,-180.65 158.31,-177.89"/>
<polygon fill="#63b8ff" stroke="#63b8ff" points="73.26,-234.13 68.54,-243.61 78.15,-239.14 73.26,-234.13"/>
</a>
</g>
</g>
<!-- Node9 -->
<g id="Node000009" class="node">
<title>Node9</title>
<g id="a_Node000009"><a xlink:href="classIoss_1_1glob_1_1SetItemsNode.html" target="_top" xlink:title=" ">
<polygon fill="white" stroke="#666666" points="273.88,-128.5 146.12,-128.5 146.12,-98 273.88,-98 273.88,-128.5"/>
<text text-anchor="start" x="154.12" y="-115" font-family="Helvetica,sans-Serif" font-size="10.00">Ioss::glob::SetItemsNode</text>
<text text-anchor="middle" x="210" y="-103.75" font-family="Helvetica,sans-Serif" font-size="10.00">&lt; charT &gt;</text>
</a>
</g>
</g>
<!-- Node0&#45;&gt;Node9 -->
<g id="edge115_Node000000_Node000009" class="edge">
<title>Node0&#45;&gt;Node9</title>
<g id="a_edge115_Node000000_Node000009"><a xlink:title=" ">
<path fill="none" stroke="#63b8ff" d="M64.55,-234.81C78.77,-207.37 104.84,-164.14 139,-138.25 143.73,-134.66 149.02,-131.56 154.52,-128.88"/>
<polygon fill="#63b8ff" stroke="#63b8ff" points="61.56,-232.97 60.21,-243.48 67.82,-236.11 61.56,-232.97"/>
</a>
</g>
</g>
<!-- Node10 -->
<g id="Node000010" class="node">
<title>Node10</title>
<g id="a_Node000010"><a xlink:href="classIoss_1_1glob_1_1StarNode.html" target="_top" xlink:title=" ">
<polygon fill="white" stroke="#666666" points="263,-79.5 157,-79.5 157,-49 263,-49 263,-79.5"/>
<text text-anchor="start" x="165" y="-66" font-family="Helvetica,sans-Serif" font-size="10.00">Ioss::glob::StarNode</text>
<text text-anchor="middle" x="210" y="-54.75" font-family="Helvetica,sans-Serif" font-size="10.00">&lt; charT &gt;</text>
</a>
</g>
</g>
<!-- Node0&#45;&gt;Node10 -->
<g id="edge116_Node000000_Node000010" class="edge">
<title>Node0&#45;&gt;Node10</title>
<g id="a_edge116_Node000000_Node000010"><a xlink:title=" ">
<path fill="none" stroke="#63b8ff" d="M59.21,-233.63C69.93,-196.29 94.42,-128.57 139,-89.25 144.23,-84.64 150.36,-80.86 156.79,-77.77"/>
<polygon fill="#63b8ff" stroke="#63b8ff" points="55.87,-232.58 56.6,-243.14 62.62,-234.42 55.87,-232.58"/>
</a>
</g>
</g>
<!-- Node11 -->
<g id="Node000011" class="node">
<title>Node11</title>
<g id="a_Node000011"><a xlink:href="classIoss_1_1glob_1_1UnionNode.html" target="_top" xlink:title=" ">
<polygon fill="white" stroke="#666666" points="266.75,-30.5 153.25,-30.5 153.25,0 266.75,0 266.75,-30.5"/>
<text text-anchor="start" x="161.25" y="-17" font-family="Helvetica,sans-Serif" font-size="10.00">Ioss::glob::UnionNode</text>
<text text-anchor="middle" x="210" y="-5.75" font-family="Helvetica,sans-Serif" font-size="10.00">&lt; charT &gt;</text>
</a>
</g>
</g>
<!-- Node0&#45;&gt;Node11 -->
<g id="edge117_Node000000_Node000011" class="edge">
<title>Node0&#45;&gt;Node11</title>
<g id="a_edge117_Node000000_Node000011"><a xlink:title=" ">
<path fill="none" stroke="#63b8ff" d="M55.86,-233.13C62.96,-187.2 83.65,-93.88 139,-40.25 143.08,-36.3 147.82,-32.97 152.88,-30.16"/>
<polygon fill="#63b8ff" stroke="#63b8ff" points="52.4,-232.61 54.45,-243.01 59.33,-233.6 52.4,-232.61"/>
</a>
</g>
</g>
</g>
</svg>
