<?xml version="1.0" encoding="UTF-8" standalone="no"?>
<!DOCTYPE svg PUBLIC "-//W3C//DTD SVG 1.1//EN"
 "http://www.w3.org/Graphics/SVG/1.1/DTD/svg11.dtd">
<!-- Generated by graphviz version 3.0.0 (20220226.1711)
 -->
<!-- Title: Graphical Class Hierarchy Pages: 1 -->
<svg width="283pt" height="247pt"
 viewBox="0.00 0.00 283.00 247.00" xmlns="http://www.w3.org/2000/svg" xmlns:xlink="http://www.w3.org/1999/xlink">
<g id="graph0" class="graph" transform="scale(1 1) rotate(0) translate(4 243)">
<title>Graphical Class Hierarchy</title>
<polygon fill="white" stroke="transparent" points="-4,4 -4,-243 279,-243 279,4 -4,4"/>
<!-- Node0 -->
<g id="node1" class="node">
<title>Node0</title>
<g id="a_node1"><a xlink:href="structdoctest_1_1detail_1_1types_1_1false__type.html" target="_top" xlink:title=" ">
<polygon fill="white" stroke="black" points="0,-98.5 0,-128.5 108,-128.5 108,-98.5 0,-98.5"/>
<text text-anchor="start" x="8" y="-116.5" font-family="Helvetica,sans-Serif" font-size="10.00">doctest::detail::types</text>
<text text-anchor="middle" x="54" y="-105.5" font-family="Helvetica,sans-Serif" font-size="10.00">::false_type</text>
</a>
</g>
</g>
<!-- Node1 -->
<g id="node2" class="node">
<title>Node1</title>
<g id="a_node2"><a xlink:href="structdoctest_1_1detail_1_1deferred__false.html" target="_top" xlink:title=" ">
<polygon fill="white" stroke="black" points="150,-208.5 150,-238.5 269,-238.5 269,-208.5 150,-208.5"/>
<text text-anchor="start" x="158" y="-226.5" font-family="Helvetica,sans-Serif" font-size="10.00">doctest::detail::deferred</text>
<text text-anchor="middle" x="209.5" y="-215.5" font-family="Helvetica,sans-Serif" font-size="10.00">_false&lt; T &gt;</text>
</a>
</g>
</g>
<!-- Node0&#45;&gt;Node1 -->
<g id="edge1" class="edge">
<title>Node0&#45;&gt;Node1</title>
<path fill="none" stroke="midnightblue" d="M74.06,-136.12C90.87,-154.91 116.86,-181.25 144,-198.5 149.88,-202.24 156.4,-205.56 162.98,-208.47"/>
<polygon fill="midnightblue" stroke="midnightblue" points="76.67,-133.79 67.44,-128.58 71.41,-138.41 76.67,-133.79"/>
</g>
<!-- Node2 -->
<g id="node3" class="node">
<title>Node2</title>
<g id="a_node3"><a xlink:href="structdoctest_1_1detail_1_1has__insertion__operator.html" target="_top" xlink:title=" ">
<polygon fill="white" stroke="black" points="157,-148 157,-189 262,-189 262,-148 157,-148"/>
<text text-anchor="start" x="165" y="-177" font-family="Helvetica,sans-Serif" font-size="10.00">doctest::detail::has</text>
<text text-anchor="start" x="165" y="-166" font-family="Helvetica,sans-Serif" font-size="10.00">_insertion_operator&lt;</text>
<text text-anchor="middle" x="209.5" y="-155" font-family="Helvetica,sans-Serif" font-size="10.00"> T, typename &gt;</text>
</a>
</g>
</g>
<!-- Node0&#45;&gt;Node2 -->
<g id="edge2" class="edge">
<title>Node0&#45;&gt;Node2</title>
<path fill="none" stroke="midnightblue" d="M106.74,-132.04C122.86,-137.81 140.63,-144.18 156.75,-149.96"/>
<polygon fill="midnightblue" stroke="midnightblue" points="107.54,-128.61 96.94,-128.53 105.18,-135.2 107.54,-128.61"/>
</g>
<!-- Node3 -->
<g id="node4" class="node">
<title>Node3</title>
<g id="a_node4"><a xlink:href="structdoctest_1_1detail_1_1types_1_1is__array.html" target="_top" xlink:title=" ">
<polygon fill="white" stroke="black" points="155.5,-98.5 155.5,-128.5 263.5,-128.5 263.5,-98.5 155.5,-98.5"/>
<text text-anchor="start" x="163.5" y="-116.5" font-family="Helvetica,sans-Serif" font-size="10.00">doctest::detail::types</text>
<text text-anchor="middle" x="209.5" y="-105.5" font-family="Helvetica,sans-Serif" font-size="10.00">::is_array&lt; T &gt;</text>
</a>
</g>
</g>
<!-- Node0&#45;&gt;Node3 -->
<g id="edge3" class="edge">
<title>Node0&#45;&gt;Node3</title>
<path fill="none" stroke="midnightblue" d="M118.42,-113.5C130.7,-113.5 143.44,-113.5 155.34,-113.5"/>
<polygon fill="midnightblue" stroke="midnightblue" points="118.26,-110 108.26,-113.5 118.26,-117 118.26,-110"/>
</g>
<!-- Node4 -->
<g id="node5" class="node">
<title>Node4</title>
<g id="a_node5"><a xlink:href="structdoctest_1_1detail_1_1types_1_1is__pointer.html" target="_top" xlink:title=" ">
<polygon fill="white" stroke="black" points="155.5,-49.5 155.5,-79.5 263.5,-79.5 263.5,-49.5 155.5,-49.5"/>
<text text-anchor="start" x="163.5" y="-67.5" font-family="Helvetica,sans-Serif" font-size="10.00">doctest::detail::types</text>
<text text-anchor="middle" x="209.5" y="-56.5" font-family="Helvetica,sans-Serif" font-size="10.00">::is_pointer&lt; T &gt;</text>
</a>
</g>
</g>
<!-- Node0&#45;&gt;Node4 -->
<g id="edge4" class="edge">
<title>Node0&#45;&gt;Node4</title>
<path fill="none" stroke="midnightblue" d="M112.2,-95.24C128.39,-90.07 145.82,-84.51 161.35,-79.55"/>
<polygon fill="midnightblue" stroke="midnightblue" points="110.77,-92.02 102.31,-98.4 112.9,-98.69 110.77,-92.02"/>
</g>
<!-- Node5 -->
<g id="node6" class="node">
<title>Node5</title>
<g id="a_node6"><a xlink:href="structdoctest_1_1detail_1_1types_1_1is__rvalue__reference.html" target="_top" xlink:title=" ">
<polygon fill="white" stroke="black" points="144,-0.5 144,-30.5 275,-30.5 275,-0.5 144,-0.5"/>
<text text-anchor="start" x="152" y="-18.5" font-family="Helvetica,sans-Serif" font-size="10.00">doctest::detail::types</text>
<text text-anchor="middle" x="209.5" y="-7.5" font-family="Helvetica,sans-Serif" font-size="10.00">::is_rvalue_reference&lt; T &gt;</text>
</a>
</g>
</g>
<!-- Node0&#45;&gt;Node5 -->
<g id="edge5" class="edge">
<title>Node0&#45;&gt;Node5</title>
<path fill="none" stroke="midnightblue" d="M77.57,-91.55C94.71,-75.77 119.45,-54.83 144,-40.5 150.22,-36.87 157.07,-33.56 163.91,-30.64"/>
<polygon fill="midnightblue" stroke="midnightblue" points="75.16,-89.01 70.25,-98.39 79.95,-94.12 75.16,-89.01"/>
</g>
</g>
</svg>
