<?xml version="1.0" encoding="UTF-8" standalone="no"?>
<!DOCTYPE svg PUBLIC "-//W3C//DTD SVG 1.1//EN"
 "http://www.w3.org/Graphics/SVG/1.1/DTD/svg11.dtd">
<!-- Generated by graphviz version 10.0.1 (20240210.2158)
 -->
<!-- Title: Graphical Class Hierarchy Pages: 1 -->
<svg width="387pt" height="158pt"
 viewBox="0.00 0.00 387.25 157.75" xmlns="http://www.w3.org/2000/svg" xmlns:xlink="http://www.w3.org/1999/xlink">
<g id="graph0" class="graph" transform="scale(1 1) rotate(0) translate(4 153.75)">
<title>Graphical Class Hierarchy</title>
<!-- Node0 -->
<g id="Node000000" class="node">
<title>Node0</title>
<g id="a_Node000000"><a xlink:href="classIotm_1_1text__mesh_1_1SideAdjacencyGraph.html" target="_top" xlink:title=" ">
<polygon fill="white" stroke="#666666" points="158.5,-90.12 0,-90.12 0,-59.62 158.5,-59.62 158.5,-90.12"/>
<text text-anchor="start" x="8" y="-76.62" font-family="Helvetica,sans-Serif" font-size="10.00">Iotm::text_mesh::SideAdjacency</text>
<text text-anchor="middle" x="79.25" y="-65.38" font-family="Helvetica,sans-Serif" font-size="10.00">Graph&lt; EntityId, Topology &gt;</text>
</a>
</g>
</g>
<!-- Node1 -->
<g id="Node000001" class="node">
<title>Node1</title>
<g id="a_Node000001"><a xlink:href="classIotm_1_1text__mesh_1_1SidesetSkinner.html" target="_top" xlink:title=" ">
<polygon fill="white" stroke="#666666" points="350,-149.75 223.75,-149.75 223.75,-108 350,-108 350,-149.75"/>
<text text-anchor="start" x="231.75" y="-136.25" font-family="Helvetica,sans-Serif" font-size="10.00">Iotm::text_mesh::Sideset</text>
<text text-anchor="start" x="231.75" y="-125" font-family="Helvetica,sans-Serif" font-size="10.00">Skinner&lt; EntityId, Iotm</text>
<text text-anchor="middle" x="286.88" y="-113.75" font-family="Helvetica,sans-Serif" font-size="10.00">::TopologyMapEntry &gt;</text>
</a>
</g>
</g>
<!-- Node0&#45;&gt;Node1 -->
<g id="edge281_Node000000_Node000001" class="edge">
<title>Node0&#45;&gt;Node1</title>
<g id="a_edge281_Node000000_Node000001"><a xlink:title=" ">
<path fill="none" stroke="#63b8ff" d="M150.98,-93.45C174.54,-99.64 200.59,-106.48 223.47,-112.49"/>
<polygon fill="#63b8ff" stroke="#63b8ff" points="152.03,-90.11 141.47,-90.95 150.25,-96.88 152.03,-90.11"/>
</a>
</g>
</g>
<!-- Node2 -->
<g id="Node000002" class="node">
<title>Node2</title>
<g id="a_Node000002"><a xlink:href="classIotm_1_1text__mesh_1_1SidesetSkinner.html" target="_top" xlink:title=" ">
<polygon fill="white" stroke="#666666" points="359.75,-90.12 214,-90.12 214,-59.62 359.75,-59.62 359.75,-90.12"/>
<text text-anchor="start" x="222" y="-76.62" font-family="Helvetica,sans-Serif" font-size="10.00">Iotm::text_mesh::Sideset</text>
<text text-anchor="middle" x="286.88" y="-65.38" font-family="Helvetica,sans-Serif" font-size="10.00">Skinner&lt; EntityId, Topology &gt;</text>
</a>
</g>
</g>
<!-- Node0&#45;&gt;Node2 -->
<g id="edge282_Node000000_Node000002" class="edge">
<title>Node0&#45;&gt;Node2</title>
<g id="a_edge282_Node000000_Node000002"><a xlink:title=" ">
<path fill="none" stroke="#63b8ff" d="M169.96,-74.88C184.59,-74.88 199.58,-74.88 213.71,-74.88"/>
<polygon fill="#63b8ff" stroke="#63b8ff" points="170.38,-71.38 160.38,-74.88 170.38,-78.38 170.38,-71.38"/>
</a>
</g>
</g>
<!-- Node3 -->
<g id="Node000003" class="node">
<title>Node3</title>
<g id="a_Node000003"><a xlink:href="classanonymous__namespace_02UnitTestIotmTextMeshFixture_8h_03_1_1TestTextMeshGraph_1_1TextMeshGraph.html" target="_top" xlink:title=" ">
<polygon fill="white" stroke="#666666" points="379.25,-41.75 194.5,-41.75 194.5,0 379.25,0 379.25,-41.75"/>
<text text-anchor="start" x="202.5" y="-28.25" font-family="Helvetica,sans-Serif" font-size="10.00">anonymous_namespace</text>
<text text-anchor="start" x="202.5" y="-17" font-family="Helvetica,sans-Serif" font-size="10.00">{UnitTestIotmTextMeshFixture.h}</text>
<text text-anchor="middle" x="286.88" y="-5.75" font-family="Helvetica,sans-Serif" font-size="10.00">::TestTextMeshGraph::TextMeshGraph</text>
</a>
</g>
</g>
<!-- Node0&#45;&gt;Node3 -->
<g id="edge283_Node000000_Node000003" class="edge">
<title>Node0&#45;&gt;Node3</title>
<g id="a_edge283_Node000000_Node000003"><a xlink:title=" ">
<path fill="none" stroke="#63b8ff" d="M151.11,-56.27C168.33,-51.74 186.88,-46.87 204.55,-42.23"/>
<polygon fill="#63b8ff" stroke="#63b8ff" points="150.25,-52.87 141.47,-58.8 152.03,-59.64 150.25,-52.87"/>
</a>
</g>
</g>
</g>
</svg>
