<?xml version="1.0" encoding="UTF-8" standalone="no"?>
<!DOCTYPE svg PUBLIC "-//W3C//DTD SVG 1.1//EN"
 "http://www.w3.org/Graphics/SVG/1.1/DTD/svg11.dtd">
<!-- Generated by graphviz version 13.1.2 (20250808.2320)
 -->
<!-- Title: Graphical Class Hierarchy Pages: 1 -->
<svg width="404pt" height="545pt"
 viewBox="0.00 0.00 404.00 545.00" xmlns="http://www.w3.org/2000/svg" xmlns:xlink="http://www.w3.org/1999/xlink">
<g id="graph0" class="graph" transform="scale(1 1) rotate(0) translate(4 541.25)">
<title>Graphical Class Hierarchy</title>
<!-- Node0 -->
<g id="Node000000" class="node">
<title>Node0</title>
<g id="a_Node000000"><a xlink:href="classIoss_1_1DatabaseIO.html" target="_top" xlink:title="An input or output Database.">
<polygon fill="white" stroke="#666666" points="93.25,-278.25 0,-278.25 0,-259 93.25,-259 93.25,-278.25"/>
<text xml:space="preserve" text-anchor="middle" x="46.62" y="-264.75" font-family="Helvetica,sans-Serif" font-size="10.00">Ioss::DatabaseIO</text>
</a>
</g>
</g>
<!-- Node1 -->
<g id="Node000001" class="node">
<title>Node1</title>
<g id="a_Node000001"><a xlink:href="classIoad_1_1DatabaseIO.html" target="_top" xlink:title=" ">
<polygon fill="white" stroke="#666666" points="240.88,-537.25 147.62,-537.25 147.62,-518 240.88,-518 240.88,-537.25"/>
<text xml:space="preserve" text-anchor="middle" x="194.25" y="-523.75" font-family="Helvetica,sans-Serif" font-size="10.00">Ioad::DatabaseIO</text>
</a>
</g>
</g>
<!-- Node0&#45;&gt;Node1 -->
<g id="edge32_Node000000_Node000001" class="edge">
<title>Node0&#45;&gt;Node1</title>
<g id="a_edge32_Node000000_Node000001"><a xlink:title=" ">
<path fill="none" stroke="#63b8ff" d="M48.47,-289.96C51.49,-336.75 65.4,-449.03 129.25,-509.62 134.36,-514.47 140.66,-518.03 147.31,-520.64"/>
<polygon fill="#63b8ff" stroke="#63b8ff" points="51.97,-289.91 47.95,-280.11 44.98,-290.28 51.97,-289.91"/>
</a>
</g>
</g>
<!-- Node2 -->
<g id="Node000002" class="node">
<title>Node2</title>
<g id="a_Node000002"><a xlink:href="classIocatalyst_1_1DatabaseIO.html" target="_top" xlink:title=" ">
<polygon fill="white" stroke="#666666" points="252.88,-500.25 135.62,-500.25 135.62,-481 252.88,-481 252.88,-500.25"/>
<text xml:space="preserve" text-anchor="middle" x="194.25" y="-486.75" font-family="Helvetica,sans-Serif" font-size="10.00">Iocatalyst::DatabaseIO</text>
</a>
</g>
</g>
<!-- Node0&#45;&gt;Node2 -->
<g id="edge33_Node000000_Node000002" class="edge">
<title>Node0&#45;&gt;Node2</title>
<g id="a_edge33_Node000000_Node000002"><a xlink:title=" ">
<path fill="none" stroke="#63b8ff" d="M49.95,-289.75C55.63,-331.11 74.09,-423.05 129.25,-472.62 132.77,-475.79 136.8,-478.4 141.1,-480.56"/>
<polygon fill="#63b8ff" stroke="#63b8ff" points="53.43,-289.42 48.73,-279.93 46.49,-290.28 53.43,-289.42"/>
</a>
</g>
</g>
<!-- Node3 -->
<g id="Node000003" class="node">
<title>Node3</title>
<g id="a_Node000003"><a xlink:href="classIocgns_1_1DatabaseIO.html" target="_top" xlink:title=" ">
<polygon fill="white" stroke="#666666" points="246.12,-463.25 142.38,-463.25 142.38,-444 246.12,-444 246.12,-463.25"/>
<text xml:space="preserve" text-anchor="middle" x="194.25" y="-449.75" font-family="Helvetica,sans-Serif" font-size="10.00">Iocgns::DatabaseIO</text>
</a>
</g>
</g>
<!-- Node0&#45;&gt;Node3 -->
<g id="edge34_Node000000_Node000003" class="edge">
<title>Node0&#45;&gt;Node3</title>
<g id="a_edge34_Node000000_Node000003"><a xlink:title=" ">
<path fill="none" stroke="#63b8ff" d="M52,-289.57C60.51,-325.03 82.7,-396.8 129.25,-435.62 133.06,-438.8 137.4,-441.42 141.98,-443.58"/>
<polygon fill="#63b8ff" stroke="#63b8ff" points="55.49,-289.12 49.88,-280.14 48.66,-290.66 55.49,-289.12"/>
</a>
</g>
</g>
<!-- Node4 -->
<g id="Node000004" class="node">
<title>Node4</title>
<g id="a_Node000004"><a xlink:href="classIoex_1_1BaseDatabaseIO.html" target="_top" xlink:title=" ">
<polygon fill="white" stroke="#666666" points="252.12,-426.25 136.38,-426.25 136.38,-407 252.12,-407 252.12,-426.25"/>
<text xml:space="preserve" text-anchor="middle" x="194.25" y="-412.75" font-family="Helvetica,sans-Serif" font-size="10.00">Ioex::BaseDatabaseIO</text>
</a>
</g>
</g>
<!-- Node0&#45;&gt;Node4 -->
<g id="edge35_Node000000_Node000004" class="edge">
<title>Node0&#45;&gt;Node4</title>
<g id="a_edge35_Node000000_Node000004"><a xlink:title=" ">
<path fill="none" stroke="#63b8ff" d="M54.91,-288.94C66.28,-317.71 90.99,-370.01 129.25,-398.62 133.5,-401.8 138.29,-404.42 143.29,-406.58"/>
<polygon fill="#63b8ff" stroke="#63b8ff" points="58.32,-288.04 51.51,-279.92 51.77,-290.51 58.32,-288.04"/>
</a>
</g>
</g>
<!-- Node6 -->
<g id="Node000006" class="node">
<title>Node6</title>
<g id="a_Node000006"><a xlink:href="classIoexnl_1_1BaseDatabaseIO.html" target="_top" xlink:title=" ">
<polygon fill="white" stroke="#666666" points="255.88,-389.25 132.62,-389.25 132.62,-370 255.88,-370 255.88,-389.25"/>
<text xml:space="preserve" text-anchor="middle" x="194.25" y="-375.75" font-family="Helvetica,sans-Serif" font-size="10.00">Ioexnl::BaseDatabaseIO</text>
</a>
</g>
</g>
<!-- Node0&#45;&gt;Node6 -->
<g id="edge37_Node000000_Node000006" class="edge">
<title>Node0&#45;&gt;Node6</title>
<g id="a_edge37_Node000000_Node000006"><a xlink:title=" ">
<path fill="none" stroke="#63b8ff" d="M59.84,-288.32C73.99,-309.51 99.24,-342.72 129.25,-361.62 134.23,-364.76 139.77,-367.37 145.44,-369.52"/>
<polygon fill="#63b8ff" stroke="#63b8ff" points="62.83,-286.51 54.47,-280.01 56.95,-290.3 62.83,-286.51"/>
</a>
</g>
</g>
<!-- Node8 -->
<g id="Node000008" class="node">
<title>Node8</title>
<g id="a_Node000008"><a xlink:href="classIofaodel_1_1DatabaseIO.html" target="_top" xlink:title=" ">
<polygon fill="white" stroke="#666666" points="248.75,-352.25 139.75,-352.25 139.75,-333 248.75,-333 248.75,-352.25"/>
<text xml:space="preserve" text-anchor="middle" x="194.25" y="-338.75" font-family="Helvetica,sans-Serif" font-size="10.00">Iofaodel::DatabaseIO</text>
</a>
</g>
</g>
<!-- Node0&#45;&gt;Node8 -->
<g id="edge39_Node000000_Node000008" class="edge">
<title>Node0&#45;&gt;Node8</title>
<g id="a_edge39_Node000000_Node000008"><a xlink:title=" ">
<path fill="none" stroke="#63b8ff" d="M68.47,-285.78C84.31,-298.08 107.08,-314.25 129.25,-324.62 135.73,-327.66 142.83,-330.28 149.86,-332.51"/>
<polygon fill="#63b8ff" stroke="#63b8ff" points="70.77,-283.13 60.76,-279.65 66.41,-288.61 70.77,-283.13"/>
</a>
</g>
</g>
<!-- Node9 -->
<g id="Node000009" class="node">
<title>Node9</title>
<g id="a_Node000009"><a xlink:href="classIogn_1_1DatabaseIO.html" target="_top" xlink:title=" ">
<polygon fill="white" stroke="#666666" points="240.88,-315.25 147.62,-315.25 147.62,-296 240.88,-296 240.88,-315.25"/>
<text xml:space="preserve" text-anchor="middle" x="194.25" y="-301.75" font-family="Helvetica,sans-Serif" font-size="10.00">Iogn::DatabaseIO</text>
</a>
</g>
</g>
<!-- Node0&#45;&gt;Node9 -->
<g id="edge40_Node000000_Node000009" class="edge">
<title>Node0&#45;&gt;Node9</title>
<g id="a_edge40_Node000000_Node000009"><a xlink:title=" ">
<path fill="none" stroke="#63b8ff" d="M98.36,-281.52C116.43,-286.11 136.49,-291.2 153.51,-295.53"/>
<polygon fill="#63b8ff" stroke="#63b8ff" points="99.44,-278.18 88.88,-279.11 97.71,-284.96 99.44,-278.18"/>
</a>
</g>
</g>
<!-- Node10 -->
<g id="Node000010" class="node">
<title>Node10</title>
<g id="a_Node000010"><a xlink:href="classIogs_1_1DatabaseIO.html" target="_top" xlink:title=" ">
<polygon fill="white" stroke="#666666" points="240.88,-278.25 147.62,-278.25 147.62,-259 240.88,-259 240.88,-278.25"/>
<text xml:space="preserve" text-anchor="middle" x="194.25" y="-264.75" font-family="Helvetica,sans-Serif" font-size="10.00">Iogs::DatabaseIO</text>
</a>
</g>
</g>
<!-- Node0&#45;&gt;Node10 -->
<g id="edge41_Node000000_Node000010" class="edge">
<title>Node0&#45;&gt;Node10</title>
<g id="a_edge41_Node000000_Node000010"><a xlink:title=" ">
<path fill="none" stroke="#63b8ff" d="M104.83,-268.62C118.98,-268.62 133.95,-268.62 147.47,-268.62"/>
<polygon fill="#63b8ff" stroke="#63b8ff" points="105.22,-265.13 95.22,-268.63 105.22,-272.13 105.22,-265.13"/>
</a>
</g>
</g>
<!-- Node11 -->
<g id="Node000011" class="node">
<title>Node11</title>
<g id="a_Node000011"><a xlink:href="classIohb_1_1DatabaseIO.html" target="_top" xlink:title=" ">
<polygon fill="white" stroke="#666666" points="240.88,-241.25 147.62,-241.25 147.62,-222 240.88,-222 240.88,-241.25"/>
<text xml:space="preserve" text-anchor="middle" x="194.25" y="-227.75" font-family="Helvetica,sans-Serif" font-size="10.00">Iohb::DatabaseIO</text>
</a>
</g>
</g>
<!-- Node0&#45;&gt;Node11 -->
<g id="edge42_Node000000_Node000011" class="edge">
<title>Node0&#45;&gt;Node11</title>
<g id="a_edge42_Node000000_Node000011"><a xlink:title=" ">
<path fill="none" stroke="#63b8ff" d="M98.36,-255.73C116.43,-251.14 136.49,-246.05 153.51,-241.72"/>
<polygon fill="#63b8ff" stroke="#63b8ff" points="97.71,-252.29 88.88,-258.14 99.44,-259.07 97.71,-252.29"/>
</a>
</g>
</g>
<!-- Node12 -->
<g id="Node000012" class="node">
<title>Node12</title>
<g id="a_Node000012"><a xlink:href="classIonull_1_1DatabaseIO.html" target="_top" xlink:title=" ">
<polygon fill="white" stroke="#666666" points="243.12,-204.25 145.38,-204.25 145.38,-185 243.12,-185 243.12,-204.25"/>
<text xml:space="preserve" text-anchor="middle" x="194.25" y="-190.75" font-family="Helvetica,sans-Serif" font-size="10.00">Ionull::DatabaseIO</text>
</a>
</g>
</g>
<!-- Node0&#45;&gt;Node12 -->
<g id="edge43_Node000000_Node000012" class="edge">
<title>Node0&#45;&gt;Node12</title>
<g id="a_edge43_Node000000_Node000012"><a xlink:title=" ">
<path fill="none" stroke="#63b8ff" d="M68.47,-251.47C84.31,-239.17 107.08,-223 129.25,-212.62 135.73,-209.59 142.83,-206.97 149.86,-204.74"/>
<polygon fill="#63b8ff" stroke="#63b8ff" points="66.41,-248.64 60.76,-257.6 70.77,-254.12 66.41,-248.64"/>
</a>
</g>
</g>
<!-- Node13 -->
<g id="Node000013" class="node">
<title>Node13</title>
<g id="a_Node000013"><a xlink:href="classIopg_1_1DatabaseIO.html" target="_top" xlink:title=" ">
<polygon fill="white" stroke="#666666" points="240.88,-167.25 147.62,-167.25 147.62,-148 240.88,-148 240.88,-167.25"/>
<text xml:space="preserve" text-anchor="middle" x="194.25" y="-153.75" font-family="Helvetica,sans-Serif" font-size="10.00">Iopg::DatabaseIO</text>
</a>
</g>
</g>
<!-- Node0&#45;&gt;Node13 -->
<g id="edge44_Node000000_Node000013" class="edge">
<title>Node0&#45;&gt;Node13</title>
<g id="a_edge44_Node000000_Node000013"><a xlink:title=" ">
<path fill="none" stroke="#63b8ff" d="M59.84,-248.93C73.99,-227.74 99.24,-194.53 129.25,-175.62 134.82,-172.12 141.08,-169.28 147.45,-166.99"/>
<polygon fill="#63b8ff" stroke="#63b8ff" points="56.95,-246.95 54.47,-257.24 62.83,-250.74 56.95,-246.95"/>
</a>
</g>
</g>
<!-- Node14 -->
<g id="Node000014" class="node">
<title>Node14</title>
<g id="a_Node000014"><a xlink:href="classIos3_1_1DatabaseIO.html" target="_top" xlink:title=" ">
<polygon fill="white" stroke="#666666" points="240.88,-130.25 147.62,-130.25 147.62,-111 240.88,-111 240.88,-130.25"/>
<text xml:space="preserve" text-anchor="middle" x="194.25" y="-116.75" font-family="Helvetica,sans-Serif" font-size="10.00">Ios3::DatabaseIO</text>
</a>
</g>
</g>
<!-- Node0&#45;&gt;Node14 -->
<g id="edge45_Node000000_Node000014" class="edge">
<title>Node0&#45;&gt;Node14</title>
<g id="a_edge45_Node000000_Node000014"><a xlink:title=" ">
<path fill="none" stroke="#63b8ff" d="M54.91,-248.31C66.28,-219.54 90.99,-167.24 129.25,-138.62 134.61,-134.62 140.83,-131.5 147.24,-129.08"/>
<polygon fill="#63b8ff" stroke="#63b8ff" points="51.77,-246.74 51.51,-257.33 58.32,-249.21 51.77,-246.74"/>
</a>
</g>
</g>
<!-- Node15 -->
<g id="Node000015" class="node">
<title>Node15</title>
<g id="a_Node000015"><a xlink:href="classIotm_1_1DatabaseIO.html" target="_top" xlink:title=" ">
<polygon fill="white" stroke="#666666" points="241.25,-93.25 147.25,-93.25 147.25,-74 241.25,-74 241.25,-93.25"/>
<text xml:space="preserve" text-anchor="middle" x="194.25" y="-79.75" font-family="Helvetica,sans-Serif" font-size="10.00">Iotm::DatabaseIO</text>
</a>
</g>
</g>
<!-- Node0&#45;&gt;Node15 -->
<g id="edge46_Node000000_Node000015" class="edge">
<title>Node0&#45;&gt;Node15</title>
<g id="a_edge46_Node000000_Node000015"><a xlink:title=" ">
<path fill="none" stroke="#63b8ff" d="M52,-247.68C60.51,-212.22 82.7,-140.45 129.25,-101.62 134.39,-97.34 140.49,-94.07 146.84,-91.58"/>
<polygon fill="#63b8ff" stroke="#63b8ff" points="48.66,-246.59 49.88,-257.11 55.49,-248.13 48.66,-246.59"/>
</a>
</g>
</g>
<!-- Node16 -->
<g id="Node000016" class="node">
<title>Node16</title>
<g id="a_Node000016"><a xlink:href="classIovs__cgns_1_1DatabaseIO.html" target="_top" xlink:title=" ">
<polygon fill="white" stroke="#666666" points="254,-56.25 134.5,-56.25 134.5,-37 254,-37 254,-56.25"/>
<text xml:space="preserve" text-anchor="middle" x="194.25" y="-42.75" font-family="Helvetica,sans-Serif" font-size="10.00">Iovs_cgns::DatabaseIO</text>
</a>
</g>
</g>
<!-- Node0&#45;&gt;Node16 -->
<g id="edge47_Node000000_Node000016" class="edge">
<title>Node0&#45;&gt;Node16</title>
<g id="a_edge47_Node000000_Node000016"><a xlink:title=" ">
<path fill="none" stroke="#63b8ff" d="M49.95,-247.5C55.63,-206.14 74.09,-114.2 129.25,-64.62 132.77,-61.46 136.8,-58.85 141.1,-56.69"/>
<polygon fill="#63b8ff" stroke="#63b8ff" points="46.49,-246.97 48.73,-257.32 53.43,-247.83 46.49,-246.97"/>
</a>
</g>
</g>
<!-- Node17 -->
<g id="Node000017" class="node">
<title>Node17</title>
<g id="a_Node000017"><a xlink:href="classIovs__exodus_1_1DatabaseIO.html" target="_top" xlink:title=" ">
<polygon fill="white" stroke="#666666" points="259.25,-19.25 129.25,-19.25 129.25,0 259.25,0 259.25,-19.25"/>
<text xml:space="preserve" text-anchor="middle" x="194.25" y="-5.75" font-family="Helvetica,sans-Serif" font-size="10.00">Iovs_exodus::DatabaseIO</text>
</a>
</g>
</g>
<!-- Node0&#45;&gt;Node17 -->
<g id="edge48_Node000000_Node000017" class="edge">
<title>Node0&#45;&gt;Node17</title>
<g id="a_edge48_Node000000_Node000017"><a xlink:title=" ">
<path fill="none" stroke="#63b8ff" d="M48.47,-247.29C51.49,-200.5 65.4,-88.22 129.25,-27.62 132.6,-24.45 136.46,-21.82 140.6,-19.66"/>
<polygon fill="#63b8ff" stroke="#63b8ff" points="44.98,-246.97 47.95,-257.14 51.97,-247.34 44.98,-246.97"/>
</a>
</g>
</g>
<!-- Node5 -->
<g id="Node000005" class="node">
<title>Node5</title>
<g id="a_Node000005"><a xlink:href="classIoex_1_1DatabaseIO.html" target="_top" xlink:title=" ">
<polygon fill="white" stroke="#666666" points="392.25,-426.25 299,-426.25 299,-407 392.25,-407 392.25,-426.25"/>
<text xml:space="preserve" text-anchor="middle" x="345.62" y="-412.75" font-family="Helvetica,sans-Serif" font-size="10.00">Ioex::DatabaseIO</text>
</a>
</g>
</g>
<!-- Node4&#45;&gt;Node5 -->
<g id="edge36_Node000004_Node000005" class="edge">
<title>Node4&#45;&gt;Node5</title>
<g id="a_edge36_Node000004_Node000005"><a xlink:title=" ">
<path fill="none" stroke="#63b8ff" d="M263.84,-416.62C275.69,-416.62 287.75,-416.62 298.81,-416.62"/>
<polygon fill="#63b8ff" stroke="#63b8ff" points="264.09,-413.13 254.09,-416.63 264.09,-420.13 264.09,-413.13"/>
</a>
</g>
</g>
<!-- Node7 -->
<g id="Node000007" class="node">
<title>Node7</title>
<g id="a_Node000007"><a xlink:href="classIoexnl_1_1DatabaseIO.html" target="_top" xlink:title=" ">
<polygon fill="white" stroke="#666666" points="396,-389.25 295.25,-389.25 295.25,-370 396,-370 396,-389.25"/>
<text xml:space="preserve" text-anchor="middle" x="345.62" y="-375.75" font-family="Helvetica,sans-Serif" font-size="10.00">Ioexnl::DatabaseIO</text>
</a>
</g>
</g>
<!-- Node6&#45;&gt;Node7 -->
<g id="edge38_Node000006_Node000007" class="edge">
<title>Node6&#45;&gt;Node7</title>
<g id="a_edge38_Node000006_Node000007"><a xlink:title=" ">
<path fill="none" stroke="#63b8ff" d="M267.32,-379.62C276.65,-379.62 286.03,-379.62 294.89,-379.62"/>
<polygon fill="#63b8ff" stroke="#63b8ff" points="267.52,-376.13 257.52,-379.63 267.52,-383.13 267.52,-376.13"/>
</a>
</g>
</g>
</g>
</svg>
