<?xml version="1.0" encoding="UTF-8" standalone="no"?>
<!DOCTYPE svg PUBLIC "-//W3C//DTD SVG 1.1//EN"
 "http://www.w3.org/Graphics/SVG/1.1/DTD/svg11.dtd">
<!-- Generated by graphviz version 8.0.5 (20230430.1635)
 -->
<!-- Title: Graphical Class Hierarchy Pages: 1 -->
<svg width="239pt" height="249pt"
 viewBox="0.00 0.00 238.75 249.25" xmlns="http://www.w3.org/2000/svg" xmlns:xlink="http://www.w3.org/1999/xlink">
<g id="graph0" class="graph" transform="scale(1 1) rotate(0) translate(4 245.25)">
<title>Graphical Class Hierarchy</title>
<!-- Node0 -->
<g id="Node000000" class="node">
<title>Node0</title>
<g id="a_Node000000"><a xlink:href="classIoss_1_1Transform.html" target="_top" xlink:title=" ">
<polygon fill="white" stroke="#666666" points="85,-130.25 0,-130.25 0,-111 85,-111 85,-130.25"/>
<text text-anchor="middle" x="42.5" y="-116.75" font-family="Helvetica,sans-Serif" font-size="10.00">Ioss::Transform</text>
</a>
</g>
</g>
<!-- Node1 -->
<g id="Node000001" class="node">
<title>Node1</title>
<g id="a_Node000001"><a xlink:href="classIotr_1_1MinMax.html" target="_top" xlink:title=" ">
<polygon fill="white" stroke="#666666" points="211.25,-241.25 140.5,-241.25 140.5,-222 211.25,-222 211.25,-241.25"/>
<text text-anchor="middle" x="175.88" y="-227.75" font-family="Helvetica,sans-Serif" font-size="10.00">Iotr::MinMax</text>
</a>
</g>
</g>
<!-- Node0&#45;&gt;Node1 -->
<g id="edge183_Node000000_Node000001" class="edge">
<title>Node0&#45;&gt;Node1</title>
<g id="a_edge183_Node000000_Node000001"><a xlink:title=" ">
<path fill="none" stroke="#63b8ff" d="M54.85,-139.78C68.2,-160.74 92.21,-193.96 121,-213.62 126.78,-217.57 133.5,-220.72 140.19,-223.2"/>
<polygon fill="#63b8ff" stroke="#63b8ff" points="57.41,-138.27 49.18,-131.59 51.46,-141.94 57.41,-138.27"/>
</a>
</g>
</g>
<!-- Node2 -->
<g id="Node000002" class="node">
<title>Node2</title>
<g id="a_Node000002"><a xlink:href="classIotr_1_1Offset.html" target="_top" xlink:title=" ">
<polygon fill="white" stroke="#666666" points="207.5,-204.25 144.25,-204.25 144.25,-185 207.5,-185 207.5,-204.25"/>
<text text-anchor="middle" x="175.88" y="-190.75" font-family="Helvetica,sans-Serif" font-size="10.00">Iotr::Offset</text>
</a>
</g>
</g>
<!-- Node0&#45;&gt;Node2 -->
<g id="edge184_Node000000_Node000002" class="edge">
<title>Node0&#45;&gt;Node2</title>
<g id="a_edge184_Node000000_Node000002"><a xlink:title=" ">
<path fill="none" stroke="#63b8ff" d="M63.3,-137.54C78.34,-149.71 99.96,-165.83 121,-176.62 128.19,-180.32 136.31,-183.49 144.01,-186.1"/>
<polygon fill="#63b8ff" stroke="#63b8ff" points="65.79,-134.22 55.85,-130.55 61.33,-139.62 65.79,-134.22"/>
</a>
</g>
</g>
<!-- Node3 -->
<g id="Node000003" class="node">
<title>Node3</title>
<g id="a_Node000003"><a xlink:href="classIotr_1_1Offset3D.html" target="_top" xlink:title=" ">
<polygon fill="white" stroke="#666666" points="213.88,-167.25 137.88,-167.25 137.88,-148 213.88,-148 213.88,-167.25"/>
<text text-anchor="middle" x="175.88" y="-153.75" font-family="Helvetica,sans-Serif" font-size="10.00">Iotr::Offset3D</text>
</a>
</g>
</g>
<!-- Node0&#45;&gt;Node3 -->
<g id="edge185_Node000000_Node000003" class="edge">
<title>Node0&#45;&gt;Node3</title>
<g id="a_edge185_Node000000_Node000003"><a xlink:title=" ">
<path fill="none" stroke="#63b8ff" d="M89.73,-133.65C105.91,-138.2 123.82,-143.25 139.02,-147.53"/>
<polygon fill="#63b8ff" stroke="#63b8ff" points="90.97,-130.08 80.4,-130.74 89.08,-136.82 90.97,-130.08"/>
</a>
</g>
</g>
<!-- Node4 -->
<g id="Node000004" class="node">
<title>Node4</title>
<g id="a_Node000004"><a xlink:href="classIotr_1_1Scale.html" target="_top" xlink:title=" ">
<polygon fill="white" stroke="#666666" points="206.38,-130.25 145.38,-130.25 145.38,-111 206.38,-111 206.38,-130.25"/>
<text text-anchor="middle" x="175.88" y="-116.75" font-family="Helvetica,sans-Serif" font-size="10.00">Iotr::Scale</text>
</a>
</g>
</g>
<!-- Node0&#45;&gt;Node4 -->
<g id="edge186_Node000000_Node000004" class="edge">
<title>Node0&#45;&gt;Node4</title>
<g id="a_edge186_Node000000_Node000004"><a xlink:title=" ">
<path fill="none" stroke="#63b8ff" d="M96.13,-120.62C112.75,-120.62 130.53,-120.62 144.98,-120.62"/>
<polygon fill="#63b8ff" stroke="#63b8ff" points="96.43,-117.13 86.43,-120.62 96.43,-124.13 96.43,-117.13"/>
</a>
</g>
</g>
<!-- Node5 -->
<g id="Node000005" class="node">
<title>Node5</title>
<g id="a_Node000005"><a xlink:href="classIotr_1_1Scale3D.html" target="_top" xlink:title=" ">
<polygon fill="white" stroke="#666666" points="212.75,-93.25 139,-93.25 139,-74 212.75,-74 212.75,-93.25"/>
<text text-anchor="middle" x="175.88" y="-79.75" font-family="Helvetica,sans-Serif" font-size="10.00">Iotr::Scale3D</text>
</a>
</g>
</g>
<!-- Node0&#45;&gt;Node5 -->
<g id="edge187_Node000000_Node000005" class="edge">
<title>Node0&#45;&gt;Node5</title>
<g id="a_edge187_Node000000_Node000005"><a xlink:title=" ">
<path fill="none" stroke="#63b8ff" d="M89.73,-107.6C105.91,-103.05 123.82,-98 139.02,-93.72"/>
<polygon fill="#63b8ff" stroke="#63b8ff" points="89.08,-104.43 80.4,-110.51 90.97,-111.17 89.08,-104.43"/>
</a>
</g>
</g>
<!-- Node6 -->
<g id="Node000006" class="node">
<title>Node6</title>
<g id="a_Node000006"><a xlink:href="classIotr_1_1Tensor.html" target="_top" xlink:title=" ">
<polygon fill="white" stroke="#666666" points="208.62,-56.25 143.12,-56.25 143.12,-37 208.62,-37 208.62,-56.25"/>
<text text-anchor="middle" x="175.88" y="-42.75" font-family="Helvetica,sans-Serif" font-size="10.00">Iotr::Tensor</text>
</a>
</g>
</g>
<!-- Node0&#45;&gt;Node6 -->
<g id="edge188_Node000000_Node000006" class="edge">
<title>Node0&#45;&gt;Node6</title>
<g id="a_edge188_Node000000_Node000006"><a xlink:title=" ">
<path fill="none" stroke="#63b8ff" d="M63.3,-103.71C78.34,-91.54 99.96,-75.42 121,-64.62 127.84,-61.11 135.52,-58.07 142.88,-55.54"/>
<polygon fill="#63b8ff" stroke="#63b8ff" points="61.33,-101.63 55.85,-110.7 65.79,-107.03 61.33,-101.63"/>
</a>
</g>
</g>
<!-- Node7 -->
<g id="Node000007" class="node">
<title>Node7</title>
<g id="a_Node000007"><a xlink:href="classIotr_1_1VectorMagnitude.html" target="_top" xlink:title=" ">
<polygon fill="white" stroke="#666666" points="230.75,-19.25 121,-19.25 121,0 230.75,0 230.75,-19.25"/>
<text text-anchor="middle" x="175.88" y="-5.75" font-family="Helvetica,sans-Serif" font-size="10.00">Iotr::VectorMagnitude</text>
</a>
</g>
</g>
<!-- Node0&#45;&gt;Node7 -->
<g id="edge189_Node000000_Node000007" class="edge">
<title>Node0&#45;&gt;Node7</title>
<g id="a_edge189_Node000000_Node000007"><a xlink:title=" ">
<path fill="none" stroke="#63b8ff" d="M54.85,-101.47C68.2,-80.51 92.21,-47.29 121,-27.62 125.56,-24.51 130.7,-21.9 135.96,-19.71"/>
<polygon fill="#63b8ff" stroke="#63b8ff" points="51.46,-99.31 49.18,-109.66 57.41,-102.98 51.46,-99.31"/>
</a>
</g>
</g>
</g>
</svg>
