<?xml version="1.0" encoding="UTF-8" standalone="no"?>
<!DOCTYPE svg PUBLIC "-//W3C//DTD SVG 1.1//EN"
 "http://www.w3.org/Graphics/SVG/1.1/DTD/svg11.dtd">
<!-- Generated by graphviz version 7.0.2 (20221119.0110)
 -->
<!-- Title: Graphical Class Hierarchy Pages: 1 -->
<svg width="388pt" height="157pt"
 viewBox="0.00 0.00 388.00 157.00" xmlns="http://www.w3.org/2000/svg" xmlns:xlink="http://www.w3.org/1999/xlink">
<g id="graph0" class="graph" transform="scale(1 1) rotate(0) translate(4 153)">
<title>Graphical Class Hierarchy</title>
<!-- Node0 -->
<g id="node1" class="node">
<title>Node0</title>
<g id="a_node1"><a xlink:href="classIotm_1_1text__mesh_1_1SideAdjacencyGraph.html" target="_top" xlink:title=" ">
<polygon fill="white" stroke="#666666" points="159,-89.5 0,-89.5 0,-59.5 159,-59.5 159,-89.5"/>
<text text-anchor="start" x="8" y="-77.5" font-family="Helvetica,sans-Serif" font-size="10.00">Iotm::text_mesh::SideAdjacency</text>
<text text-anchor="middle" x="79.5" y="-66.5" font-family="Helvetica,sans-Serif" font-size="10.00">Graph&lt; EntityId, Topology &gt;</text>
</a>
</g>
</g>
<!-- Node1 -->
<g id="node2" class="node">
<title>Node1</title>
<g id="a_node2"><a xlink:href="classIotm_1_1text__mesh_1_1SidesetSkinner.html" target="_top" xlink:title=" ">
<polygon fill="white" stroke="#666666" points="351,-149 224,-149 224,-108 351,-108 351,-149"/>
<text text-anchor="start" x="232" y="-137" font-family="Helvetica,sans-Serif" font-size="10.00">Iotm::text_mesh::Sideset</text>
<text text-anchor="start" x="232" y="-126" font-family="Helvetica,sans-Serif" font-size="10.00">Skinner&lt; EntityId, Iotm</text>
<text text-anchor="middle" x="287.5" y="-115" font-family="Helvetica,sans-Serif" font-size="10.00">::TopologyMapEntry &gt;</text>
</a>
</g>
</g>
<!-- Node0&#45;&gt;Node1 -->
<g id="edge1" class="edge">
<title>Node0&#45;&gt;Node1</title>
<path fill="none" stroke="#63b8ff" d="M150.55,-92.86C174.2,-99.06 200.43,-105.94 223.5,-111.99"/>
<polygon fill="#63b8ff" stroke="#63b8ff" points="151.56,-89.51 141,-90.36 149.78,-96.28 151.56,-89.51"/>
</g>
<!-- Node2 -->
<g id="node3" class="node">
<title>Node2</title>
<g id="a_node3"><a xlink:href="classIotm_1_1text__mesh_1_1SidesetSkinner.html" target="_top" xlink:title=" ">
<polygon fill="white" stroke="#666666" points="360.5,-89.5 214.5,-89.5 214.5,-59.5 360.5,-59.5 360.5,-89.5"/>
<text text-anchor="start" x="222.5" y="-77.5" font-family="Helvetica,sans-Serif" font-size="10.00">Iotm::text_mesh::Sideset</text>
<text text-anchor="middle" x="287.5" y="-66.5" font-family="Helvetica,sans-Serif" font-size="10.00">Skinner&lt; EntityId, Topology &gt;</text>
</a>
</g>
</g>
<!-- Node0&#45;&gt;Node2 -->
<g id="edge2" class="edge">
<title>Node0&#45;&gt;Node2</title>
<path fill="none" stroke="#63b8ff" d="M170.38,-74.5C185.03,-74.5 200.04,-74.5 214.21,-74.5"/>
<polygon fill="#63b8ff" stroke="#63b8ff" points="170.78,-71 160.78,-74.5 170.78,-78 170.78,-71"/>
</g>
<!-- Node3 -->
<g id="node4" class="node">
<title>Node3</title>
<g id="a_node4"><a xlink:href="classanonymous__namespace_02UnitTestIotmTextMeshFixture_8h_03_1_1TestTextMeshGraph_1_1TextMeshGraph.html" target="_top" xlink:title=" ">
<polygon fill="white" stroke="#666666" points="380,-41 195,-41 195,0 380,0 380,-41"/>
<text text-anchor="start" x="203" y="-29" font-family="Helvetica,sans-Serif" font-size="10.00">anonymous_namespace</text>
<text text-anchor="start" x="203" y="-18" font-family="Helvetica,sans-Serif" font-size="10.00">{UnitTestIotmTextMeshFixture.h}</text>
<text text-anchor="middle" x="287.5" y="-7" font-family="Helvetica,sans-Serif" font-size="10.00">::TestTextMeshGraph::TextMeshGraph</text>
</a>
</g>
</g>
<!-- Node0&#45;&gt;Node3 -->
<g id="edge3" class="edge">
<title>Node0&#45;&gt;Node3</title>
<path fill="none" stroke="#63b8ff" d="M150.56,-56.13C168.63,-51.4 188.21,-46.27 206.73,-41.41"/>
<polygon fill="#63b8ff" stroke="#63b8ff" points="149.78,-52.72 141,-58.64 151.56,-59.49 149.78,-52.72"/>
</g>
</g>
</svg>
