<?xml version="1.0" encoding="UTF-8" standalone="no"?>
<!DOCTYPE svg PUBLIC "-//W3C//DTD SVG 1.1//EN"
 "http://www.w3.org/Graphics/SVG/1.1/DTD/svg11.dtd">
<!-- Generated by graphviz version 6.0.1 (20220911.1526)
 -->
<!-- Title: src/catalyst/Iocatalyst_DatabaseIO.h Pages: 1 -->
<svg width="3905pt" height="533pt"
 viewBox="0.00 0.00 3904.94 533.00" xmlns="http://www.w3.org/2000/svg" xmlns:xlink="http://www.w3.org/1999/xlink">
<g id="graph0" class="graph" transform="scale(1 1) rotate(0) translate(4 529)">
<title>src/catalyst/Iocatalyst_DatabaseIO.h</title>
<!-- Node1 -->
<g id="node1" class="node">
<title>Node1</title>
<g id="a_node1"><a xlink:title=" ">
<polygon fill="#999999" stroke="#666666" points="474.5,-525 361.5,-525 361.5,-495 474.5,-495 474.5,-525"/>
<text text-anchor="start" x="369.5" y="-513" font-family="Helvetica,sans-Serif" font-size="10.00">src/catalyst/Iocatalyst</text>
<text text-anchor="middle" x="418" y="-502" font-family="Helvetica,sans-Serif" font-size="10.00">_DatabaseIO.h</text>
</a>
</g>
</g>
<!-- Node2 -->
<g id="node2" class="node">
<title>Node2</title>
<g id="a_node2"><a xlink:href="Ioss__EntitySet_8h.html" target="_top" xlink:title=" ">
<polygon fill="white" stroke="#666666" points="351.5,-459 262.5,-459 262.5,-440 351.5,-440 351.5,-459"/>
<text text-anchor="middle" x="307" y="-447" font-family="Helvetica,sans-Serif" font-size="10.00">Ioss_EntitySet.h</text>
</a>
</g>
</g>
<!-- Node1&#45;&gt;Node2 -->
<g id="edge1" class="edge">
<title>Node1&#45;&gt;Node2</title>
<path fill="none" stroke="#63b8ff" d="M391.41,-494.99C373.55,-485.58 350.16,-473.24 332.52,-463.95"/>
<polygon fill="#63b8ff" stroke="#63b8ff" points="333.87,-460.71 323.39,-459.14 330.61,-466.9 333.87,-460.71"/>
</g>
<!-- Node12 -->
<g id="node12" class="node">
<title>Node12</title>
<g id="a_node12"><a xlink:href="Ioss__DatabaseIO_8h.html" target="_top" xlink:title=" ">
<polygon fill="white" stroke="#666666" points="1645.5,-349 1544.5,-349 1544.5,-330 1645.5,-330 1645.5,-349"/>
<text text-anchor="middle" x="1595" y="-337" font-family="Helvetica,sans-Serif" font-size="10.00">Ioss_DatabaseIO.h</text>
</a>
</g>
</g>
<!-- Node1&#45;&gt;Node12 -->
<g id="edge183" class="edge">
<title>Node1&#45;&gt;Node12</title>
<path fill="none" stroke="#63b8ff" d="M449.91,-494.83C512.39,-467.86 655.86,-409.6 783,-385 926.77,-357.18 1370.73,-345.23 1533.97,-341.69"/>
<polygon fill="#63b8ff" stroke="#63b8ff" points="1534.38,-345.19 1544.31,-341.47 1534.23,-338.19 1534.38,-345.19"/>
</g>
<!-- Node14 -->
<g id="node14" class="node">
<title>Node14</title>
<g id="a_node14"><a xlink:href="Ioss__DBUsage_8h.html" target="_top" xlink:title=" ">
<polygon fill="white" stroke="#666666" points="538,-294 446,-294 446,-275 538,-275 538,-294"/>
<text text-anchor="middle" x="492" y="-282" font-family="Helvetica,sans-Serif" font-size="10.00">Ioss_DBUsage.h</text>
</a>
</g>
</g>
<!-- Node1&#45;&gt;Node14 -->
<g id="edge182" class="edge">
<title>Node1&#45;&gt;Node14</title>
<path fill="none" stroke="#63b8ff" d="M422.74,-494.68C435.68,-455.6 471.59,-347.15 485.95,-303.78"/>
<polygon fill="#63b8ff" stroke="#63b8ff" points="489.29,-304.82 489.11,-294.23 482.64,-302.62 489.29,-304.82"/>
</g>
<!-- Node23 -->
<g id="node23" class="node">
<title>Node23</title>
<g id="a_node23"><a xlink:title=" ">
<polygon fill="#e0e0e0" stroke="#999999" points="3482,-74 3430,-74 3430,-55 3482,-55 3482,-74"/>
<text text-anchor="middle" x="3456" y="-62" font-family="Helvetica,sans-Serif" font-size="10.00">memory</text>
</a>
</g>
</g>
<!-- Node1&#45;&gt;Node23 -->
<g id="edge185" class="edge">
<title>Node1&#45;&gt;Node23</title>
<path fill="none" stroke="#63b8ff" d="M474.76,-508.98C739.9,-508.65 1883.05,-504.51 2819,-459 2979.06,-451.22 3429.1,-521.55 3538,-404 3625.79,-309.23 3509.94,-136.89 3469.2,-82.45"/>
<polygon fill="#63b8ff" stroke="#63b8ff" points="3471.78,-80.06 3462.94,-74.23 3466.21,-84.3 3471.78,-80.06"/>
</g>
<!-- Node44 -->
<g id="node44" class="node">
<title>Node44</title>
<g id="a_node44"><a xlink:href="Ioss__Field_8h.html" target="_top" xlink:title=" ">
<polygon fill="white" stroke="#666666" points="630,-129 560,-129 560,-110 630,-110 630,-129"/>
<text text-anchor="middle" x="595" y="-117" font-family="Helvetica,sans-Serif" font-size="10.00">Ioss_Field.h</text>
</a>
</g>
</g>
<!-- Node1&#45;&gt;Node44 -->
<g id="edge184" class="edge">
<title>Node1&#45;&gt;Node44</title>
<path fill="none" stroke="#63b8ff" d="M361.19,-505.46C246.9,-496.78 0,-469.48 0,-395.5 0,-395.5 0,-395.5 0,-338.5 0,-221.51 410.66,-148.45 549.65,-127.07"/>
<polygon fill="#63b8ff" stroke="#63b8ff" points="550.2,-130.52 559.56,-125.56 549.15,-123.6 550.2,-130.52"/>
</g>
<!-- Node57 -->
<g id="node57" class="node">
<title>Node57</title>
<g id="a_node57"><a xlink:href="Ioss__Region_8h.html" target="_top" xlink:title=" ">
<polygon fill="white" stroke="#666666" points="2810,-459 2730,-459 2730,-440 2810,-440 2810,-459"/>
<text text-anchor="middle" x="2770" y="-447" font-family="Helvetica,sans-Serif" font-size="10.00">Ioss_Region.h</text>
</a>
</g>
</g>
<!-- Node1&#45;&gt;Node57 -->
<g id="edge156" class="edge">
<title>Node1&#45;&gt;Node57</title>
<path fill="none" stroke="#63b8ff" d="M474.68,-507.59C798.65,-499.53 2412.07,-459.4 2719.39,-451.76"/>
<polygon fill="#63b8ff" stroke="#63b8ff" points="2719.86,-455.25 2729.77,-451.5 2719.68,-448.25 2719.86,-455.25"/>
</g>
<!-- Node61 -->
<g id="node61" class="node">
<title>Node61</title>
<g id="a_node61"><a xlink:href="Ioss__SideSet_8h.html" target="_top" xlink:title=" ">
<polygon fill="white" stroke="#666666" points="1695.5,-459 1612.5,-459 1612.5,-440 1695.5,-440 1695.5,-459"/>
<text text-anchor="middle" x="1654" y="-447" font-family="Helvetica,sans-Serif" font-size="10.00">Ioss_SideSet.h</text>
</a>
</g>
</g>
<!-- Node1&#45;&gt;Node61 -->
<g id="edge174" class="edge">
<title>Node1&#45;&gt;Node61</title>
<path fill="none" stroke="#63b8ff" d="M474.73,-506.32C682.79,-496.47 1402.24,-462.42 1602.13,-452.96"/>
<polygon fill="#63b8ff" stroke="#63b8ff" points="1602.53,-456.44 1612.35,-452.47 1602.2,-449.45 1602.53,-456.44"/>
</g>
<!-- Node3 -->
<g id="node3" class="node">
<title>Node3</title>
<g id="a_node3"><a xlink:href="Ioss__GroupingEntity_8h.html" target="_top" xlink:title=" ">
<polygon fill="white" stroke="#666666" points="904,-404 792,-404 792,-385 904,-385 904,-404"/>
<text text-anchor="middle" x="848" y="-392" font-family="Helvetica,sans-Serif" font-size="10.00">Ioss_GroupingEntity.h</text>
</a>
</g>
</g>
<!-- Node2&#45;&gt;Node3 -->
<g id="edge2" class="edge">
<title>Node2&#45;&gt;Node3</title>
<path fill="none" stroke="#63b8ff" d="M351.73,-444.12C446.86,-434.8 669.67,-412.97 781.5,-402.01"/>
<polygon fill="#63b8ff" stroke="#63b8ff" points="782.03,-405.48 791.64,-401.02 781.35,-398.51 782.03,-405.48"/>
</g>
<!-- Node6 -->
<g id="node6" class="node">
<title>Node6</title>
<g id="a_node6"><a xlink:title=" ">
<polygon fill="#e0e0e0" stroke="#999999" points="1138.5,-19 1089.5,-19 1089.5,0 1138.5,0 1138.5,-19"/>
<text text-anchor="middle" x="1114" y="-7" font-family="Helvetica,sans-Serif" font-size="10.00">cstddef</text>
</a>
</g>
</g>
<!-- Node2&#45;&gt;Node6 -->
<g id="edge154" class="edge">
<title>Node2&#45;&gt;Node6</title>
<path fill="none" stroke="#63b8ff" d="M269.48,-439.92C223.61,-426.95 152,-397.57 152,-340.5 152,-340.5 152,-340.5 152,-228.5 152,-52.49 337.89,-100.19 508,-55 743.04,7.44 812.1,-44.07 1054,-19 1062.17,-18.15 1070.93,-17.03 1079.17,-15.88"/>
<polygon fill="#63b8ff" stroke="#63b8ff" points="1079.84,-19.32 1089.24,-14.43 1078.84,-12.4 1079.84,-19.32"/>
</g>
<!-- Node8 -->
<g id="node8" class="node">
<title>Node8</title>
<g id="a_node8"><a xlink:title=" ">
<polygon fill="#e0e0e0" stroke="#999999" points="381.5,-19 340.5,-19 340.5,0 381.5,0 381.5,-19"/>
<text text-anchor="middle" x="361" y="-7" font-family="Helvetica,sans-Serif" font-size="10.00">string</text>
</a>
</g>
</g>
<!-- Node2&#45;&gt;Node8 -->
<g id="edge155" class="edge">
<title>Node2&#45;&gt;Node8</title>
<path fill="none" stroke="#63b8ff" d="M262.43,-445.61C200.27,-440.72 91.81,-428.83 62,-404 38.82,-384.69 38,-370.67 38,-340.5 38,-340.5 38,-340.5 38,-118.5 38,-88.33 38.51,-73.94 62,-55 102.82,-22.09 262.07,-13.44 330.01,-11.23"/>
<polygon fill="#63b8ff" stroke="#63b8ff" points="330.21,-14.73 340.1,-10.93 330,-7.73 330.21,-14.73"/>
</g>
<!-- Node45 -->
<g id="node45" class="node">
<title>Node45</title>
<g id="a_node45"><a xlink:href="Ioss__Property_8h.html" target="_top" xlink:title=" ">
<polygon fill="white" stroke="#666666" points="2266,-184 2182,-184 2182,-165 2266,-165 2266,-184"/>
<text text-anchor="middle" x="2224" y="-172" font-family="Helvetica,sans-Serif" font-size="10.00">Ioss_Property.h</text>
</a>
</g>
</g>
<!-- Node2&#45;&gt;Node45 -->
<g id="edge153" class="edge">
<title>Node2&#45;&gt;Node45</title>
<path fill="none" stroke="#63b8ff" d="M351.78,-448.86C604.89,-450.51 1858,-453.2 2227,-349 2280.55,-333.88 2349.86,-326.17 2328,-275 2311.74,-236.93 2272.97,-206.47 2247.64,-189.71"/>
<polygon fill="#63b8ff" stroke="#63b8ff" points="2249.29,-186.61 2238.98,-184.16 2245.51,-192.5 2249.29,-186.61"/>
</g>
<!-- Node4 -->
<g id="node4" class="node">
<title>Node4</title>
<g id="a_node4"><a xlink:href="Ioss__CodeTypes_8h.html" target="_top" xlink:title=" ">
<polygon fill="white" stroke="#666666" points="1010,-74 912,-74 912,-55 1010,-55 1010,-74"/>
<text text-anchor="middle" x="961" y="-62" font-family="Helvetica,sans-Serif" font-size="10.00">Ioss_CodeTypes.h</text>
</a>
</g>
</g>
<!-- Node3&#45;&gt;Node4 -->
<g id="edge3" class="edge">
<title>Node3&#45;&gt;Node4</title>
<path fill="none" stroke="#63b8ff" d="M807.5,-384.97C762.33,-373.08 691.25,-346.76 658,-294 627.42,-245.47 629.87,-217.04 654,-165 669.92,-130.67 684.79,-126.19 719,-110 750.62,-95.04 840.83,-81 901.72,-72.84"/>
<polygon fill="#63b8ff" stroke="#63b8ff" points="902.52,-76.26 911.97,-71.48 901.6,-69.32 902.52,-76.26"/>
</g>
<!-- Node3&#45;&gt;Node6 -->
<g id="edge149" class="edge">
<title>Node3&#45;&gt;Node6</title>
<path fill="none" stroke="#63b8ff" d="M791.79,-392.93C696.22,-391.02 506.97,-382.94 451,-349 398.82,-317.36 389.34,-279.23 404,-220 433.45,-101.01 507.97,-91.46 625,-55 807.68,1.91 863.87,-40.43 1054,-19 1062.16,-18.08 1070.92,-16.93 1079.16,-15.78"/>
<polygon fill="#63b8ff" stroke="#63b8ff" points="1079.83,-19.22 1089.23,-14.33 1078.83,-12.29 1079.83,-19.22"/>
</g>
<!-- Node7 -->
<g id="node7" class="node">
<title>Node7</title>
<g id="a_node7"><a xlink:title=" ">
<polygon fill="#e0e0e0" stroke="#999999" points="3751,-19 3705,-19 3705,0 3751,0 3751,-19"/>
<text text-anchor="middle" x="3728" y="-7" font-family="Helvetica,sans-Serif" font-size="10.00">cstdint</text>
</a>
</g>
</g>
<!-- Node3&#45;&gt;Node7 -->
<g id="edge150" class="edge">
<title>Node3&#45;&gt;Node7</title>
<path fill="none" stroke="#63b8ff" d="M904.04,-392.89C1142.12,-390.14 2070.87,-377.74 2362,-349 2946.03,-291.35 3106.1,-311.11 3664,-129 3715.96,-112.04 3745.26,-120.5 3774,-74 3784.79,-56.55 3766.93,-37.63 3750.41,-25.03"/>
<polygon fill="#63b8ff" stroke="#63b8ff" points="3752.23,-22.02 3742.06,-19.05 3748.15,-27.72 3752.23,-22.02"/>
</g>
<!-- Node3&#45;&gt;Node8 -->
<g id="edge151" class="edge">
<title>Node3&#45;&gt;Node8</title>
<path fill="none" stroke="#63b8ff" d="M791.78,-392.86C691.24,-390.85 485.36,-382.64 423,-349 317.96,-292.34 291.96,-246.12 269,-129 262.67,-96.7 248.34,-82.78 266,-55 280.09,-32.84 308.44,-21.53 330.52,-15.87"/>
<polygon fill="#63b8ff" stroke="#63b8ff" points="331.49,-19.24 340.45,-13.59 329.92,-12.42 331.49,-19.24"/>
</g>
<!-- Node9 -->
<g id="node9" class="node">
<title>Node9</title>
<g id="a_node9"><a xlink:title=" ">
<polygon fill="#e0e0e0" stroke="#999999" points="1815,-19 1771,-19 1771,0 1815,0 1815,-19"/>
<text text-anchor="middle" x="1793" y="-7" font-family="Helvetica,sans-Serif" font-size="10.00">vector</text>
</a>
</g>
</g>
<!-- Node3&#45;&gt;Node9 -->
<g id="edge152" class="edge">
<title>Node3&#45;&gt;Node9</title>
<path fill="none" stroke="#63b8ff" d="M904,-393.22C1146.32,-391.81 2098.06,-384.05 2227,-349 2276.32,-335.59 2301.89,-337.94 2328,-294 2422.13,-135.55 2076.15,-58.4 2066,-55 1982.04,-26.89 1877.4,-16.19 1825.43,-12.4"/>
<polygon fill="#63b8ff" stroke="#63b8ff" points="1825.38,-8.89 1815.16,-11.69 1824.9,-15.87 1825.38,-8.89"/>
</g>
<!-- Node3&#45;&gt;Node12 -->
<g id="edge11" class="edge">
<title>Node3&#45;&gt;Node12</title>
<path fill="none" stroke="#63b8ff" d="M904.15,-389.52C1041.19,-379.79 1391.93,-354.91 1533.93,-344.83"/>
<polygon fill="#63b8ff" stroke="#63b8ff" points="1534.47,-348.3 1544.2,-344.1 1533.97,-341.32 1534.47,-348.3"/>
</g>
<!-- Node16 -->
<g id="node16" class="node">
<title>Node16</title>
<g id="a_node16"><a xlink:href="Ioss__EntityType_8h.html" target="_top" xlink:title=" ">
<polygon fill="white" stroke="#666666" points="2915.5,-184 2820.5,-184 2820.5,-165 2915.5,-165 2915.5,-184"/>
<text text-anchor="middle" x="2868" y="-172" font-family="Helvetica,sans-Serif" font-size="10.00">Ioss_EntityType.h</text>
</a>
</g>
</g>
<!-- Node3&#45;&gt;Node16 -->
<g id="edge127" class="edge">
<title>Node3&#45;&gt;Node16</title>
<path fill="none" stroke="#63b8ff" d="M904.04,-393.34C1156.78,-392.42 2184.33,-386.4 2323,-349 2439.17,-317.67 2446.8,-257.88 2561,-220 2566.88,-218.05 2722.85,-195.92 2810.15,-183.62"/>
<polygon fill="#63b8ff" stroke="#63b8ff" points="2810.77,-187.07 2820.19,-182.21 2809.8,-180.14 2810.77,-187.07"/>
</g>
<!-- Node3&#45;&gt;Node44 -->
<g id="edge128" class="edge">
<title>Node3&#45;&gt;Node44</title>
<path fill="none" stroke="#63b8ff" d="M791.79,-391.12C675.23,-384.64 418,-361.7 418,-285.5 418,-285.5 418,-285.5 418,-228.5 418,-166.91 497.06,-139.4 549.5,-127.94"/>
<polygon fill="#63b8ff" stroke="#63b8ff" points="550.52,-131.3 559.61,-125.85 549.11,-124.44 550.52,-131.3"/>
</g>
<!-- Node3&#45;&gt;Node45 -->
<g id="edge138" class="edge">
<title>Node3&#45;&gt;Node45</title>
<path fill="none" stroke="#63b8ff" d="M904,-393.87C1115.72,-394.5 1866.1,-389.81 2081,-294 2135.74,-269.6 2186.38,-218.15 2210.01,-191.81"/>
<polygon fill="#63b8ff" stroke="#63b8ff" points="2212.73,-194.02 2216.71,-184.2 2207.47,-189.39 2212.73,-194.02"/>
</g>
<!-- Node49 -->
<g id="node49" class="node">
<title>Node49</title>
<g id="a_node49"><a xlink:href="Ioss__PropertyManager_8h.html" target="_top" xlink:title=" ">
<polygon fill="white" stroke="#666666" points="904,-239 782,-239 782,-220 904,-220 904,-239"/>
<text text-anchor="middle" x="843" y="-227" font-family="Helvetica,sans-Serif" font-size="10.00">Ioss_PropertyManager.h</text>
</a>
</g>
</g>
<!-- Node3&#45;&gt;Node49 -->
<g id="edge139" class="edge">
<title>Node3&#45;&gt;Node49</title>
<path fill="none" stroke="#63b8ff" d="M847.73,-384.74C846.95,-359.31 844.67,-285.08 843.59,-249.69"/>
<polygon fill="#63b8ff" stroke="#63b8ff" points="847.08,-249.19 843.27,-239.31 840.08,-249.41 847.08,-249.19"/>
</g>
<!-- Node51 -->
<g id="node51" class="node">
<title>Node51</title>
<g id="a_node51"><a xlink:href="Ioss__State_8h.html" target="_top" xlink:title=" ">
<polygon fill="white" stroke="#666666" points="2319,-294 2247,-294 2247,-275 2319,-275 2319,-294"/>
<text text-anchor="middle" x="2283" y="-282" font-family="Helvetica,sans-Serif" font-size="10.00">Ioss_State.h</text>
</a>
</g>
</g>
<!-- Node3&#45;&gt;Node51 -->
<g id="edge140" class="edge">
<title>Node3&#45;&gt;Node51</title>
<path fill="none" stroke="#63b8ff" d="M904.03,-393.57C1143.15,-393.63 2071.69,-391.1 2195,-349 2223.54,-339.25 2250.8,-316.86 2267.22,-301.46"/>
<polygon fill="#63b8ff" stroke="#63b8ff" points="2270.02,-303.61 2274.77,-294.14 2265.15,-298.59 2270.02,-303.61"/>
</g>
<!-- Node54 -->
<g id="node54" class="node">
<title>Node54</title>
<g id="a_node54"><a xlink:href="Ioss__FieldManager_8h.html" target="_top" xlink:title=" ">
<polygon fill="white" stroke="#666666" points="773.5,-294 666.5,-294 666.5,-275 773.5,-275 773.5,-294"/>
<text text-anchor="middle" x="720" y="-282" font-family="Helvetica,sans-Serif" font-size="10.00">Ioss_FieldManager.h</text>
</a>
</g>
</g>
<!-- Node3&#45;&gt;Node54 -->
<g id="edge129" class="edge">
<title>Node3&#45;&gt;Node54</title>
<path fill="none" stroke="#63b8ff" d="M837.53,-384.66C815.76,-366.3 765.41,-323.81 738.21,-300.87"/>
<polygon fill="#63b8ff" stroke="#63b8ff" points="740.16,-297.93 730.26,-294.16 735.65,-303.28 740.16,-297.93"/>
</g>
<!-- Node55 -->
<g id="node55" class="node">
<title>Node55</title>
<g id="a_node55"><a xlink:href="Ioss__VariableType_8h.html" target="_top" xlink:title=" ">
<polygon fill="white" stroke="#666666" points="1930,-294 1826,-294 1826,-275 1930,-275 1930,-294"/>
<text text-anchor="middle" x="1878" y="-282" font-family="Helvetica,sans-Serif" font-size="10.00">Ioss_VariableType.h</text>
</a>
</g>
</g>
<!-- Node3&#45;&gt;Node55 -->
<g id="edge141" class="edge">
<title>Node3&#45;&gt;Node55</title>
<path fill="none" stroke="#63b8ff" d="M904.14,-392.03C1062.42,-387.62 1510.13,-373.31 1655,-349 1723.91,-337.44 1801.9,-312.36 1844.97,-297.41"/>
<polygon fill="#63b8ff" stroke="#63b8ff" points="1846.35,-300.63 1854.63,-294.02 1844.04,-294.03 1846.35,-300.63"/>
</g>
<!-- Node5 -->
<g id="node5" class="node">
<title>Node5</title>
<g id="a_node5"><a xlink:title=" ">
<polygon fill="#e0e0e0" stroke="#999999" points="1964,-19 1926,-19 1926,0 1964,0 1964,-19"/>
<text text-anchor="middle" x="1945" y="-7" font-family="Helvetica,sans-Serif" font-size="10.00">array</text>
</a>
</g>
</g>
<!-- Node4&#45;&gt;Node5 -->
<g id="edge4" class="edge">
<title>Node4&#45;&gt;Node5</title>
<path fill="none" stroke="#63b8ff" d="M1010.16,-61.29C1141.99,-55.28 1514.4,-37.86 1824,-19 1855.31,-17.09 1891.15,-14.53 1915.65,-12.72"/>
<polygon fill="#63b8ff" stroke="#63b8ff" points="1916.01,-16.2 1925.73,-11.96 1915.5,-9.22 1916.01,-16.2"/>
</g>
<!-- Node4&#45;&gt;Node6 -->
<g id="edge5" class="edge">
<title>Node4&#45;&gt;Node6</title>
<path fill="none" stroke="#63b8ff" d="M985.58,-54.98C1011.12,-46.14 1051.28,-32.23 1079.89,-22.32"/>
<polygon fill="#63b8ff" stroke="#63b8ff" points="1081.18,-25.57 1089.48,-18.99 1078.88,-18.96 1081.18,-25.57"/>
</g>
<!-- Node4&#45;&gt;Node7 -->
<g id="edge6" class="edge">
<title>Node4&#45;&gt;Node7</title>
<path fill="none" stroke="#63b8ff" d="M1010.19,-62.46C1087.89,-60.83 1243.79,-57.58 1376,-55 2239.54,-38.16 2455.46,-35.97 3319,-19 3458.52,-16.26 3624.81,-12.72 3694.59,-11.22"/>
<polygon fill="#63b8ff" stroke="#63b8ff" points="3695.02,-14.71 3704.94,-11 3694.87,-7.71 3695.02,-14.71"/>
</g>
<!-- Node4&#45;&gt;Node8 -->
<g id="edge7" class="edge">
<title>Node4&#45;&gt;Node8</title>
<path fill="none" stroke="#63b8ff" d="M911.9,-59.16C792.39,-48.61 489.06,-21.81 391.63,-13.21"/>
<polygon fill="#63b8ff" stroke="#63b8ff" points="391.83,-9.71 381.56,-12.32 391.22,-16.68 391.83,-9.71"/>
</g>
<!-- Node4&#45;&gt;Node9 -->
<g id="edge8" class="edge">
<title>Node4&#45;&gt;Node9</title>
<path fill="none" stroke="#63b8ff" d="M1010.25,-60.36C1164.07,-50.56 1632.93,-20.7 1760.6,-12.56"/>
<polygon fill="#63b8ff" stroke="#63b8ff" points="1761.12,-16.04 1770.88,-11.91 1760.68,-9.05 1761.12,-16.04"/>
</g>
<!-- Node10 -->
<g id="node10" class="node">
<title>Node10</title>
<g id="a_node10"><a xlink:title=" ">
<polygon fill="#e0e0e0" stroke="#999999" points="1045,-19 929,-19 929,0 1045,0 1045,-19"/>
<text text-anchor="middle" x="987" y="-7" font-family="Helvetica,sans-Serif" font-size="10.00">SEACASIoss_config.h</text>
</a>
</g>
</g>
<!-- Node4&#45;&gt;Node10 -->
<g id="edge9" class="edge">
<title>Node4&#45;&gt;Node10</title>
<path fill="none" stroke="#63b8ff" d="M965.29,-54.75C968.81,-47.57 973.91,-37.18 978.28,-28.27"/>
<polygon fill="#63b8ff" stroke="#63b8ff" points="981.52,-29.61 982.79,-19.09 975.24,-26.53 981.52,-29.61"/>
</g>
<!-- Node11 -->
<g id="node11" class="node">
<title>Node11</title>
<g id="a_node11"><a xlink:title=" ">
<polygon fill="#e0e0e0" stroke="#999999" points="910.5,-19 857.5,-19 857.5,0 910.5,0 910.5,-19"/>
<text text-anchor="middle" x="884" y="-7" font-family="Helvetica,sans-Serif" font-size="10.00">complex</text>
</a>
</g>
</g>
<!-- Node4&#45;&gt;Node11 -->
<g id="edge10" class="edge">
<title>Node4&#45;&gt;Node11</title>
<path fill="none" stroke="#63b8ff" d="M948.63,-54.98C936.91,-46.92 919.08,-34.65 905.11,-25.03"/>
<polygon fill="#63b8ff" stroke="#63b8ff" points="906.82,-21.96 896.6,-19.17 902.85,-27.72 906.82,-21.96"/>
</g>
<!-- Node12&#45;&gt;Node4 -->
<g id="edge13" class="edge">
<title>Node12&#45;&gt;Node4</title>
<path fill="none" stroke="#63b8ff" d="M1544.35,-337.13C1414.14,-333.23 1074.98,-320.62 1032,-294 960.81,-249.9 958.73,-210.85 941,-129 937.6,-113.31 943.78,-95.96 950.14,-83.36"/>
<polygon fill="#63b8ff" stroke="#63b8ff" points="953.32,-84.85 955.1,-74.4 947.19,-81.46 953.32,-84.85"/>
</g>
<!-- Node12&#45;&gt;Node6 -->
<g id="edge121" class="edge">
<title>Node12&#45;&gt;Node6</title>
<path fill="none" stroke="#63b8ff" d="M1544.31,-336.48C1459.93,-332.4 1294.89,-321.12 1244,-294 1145.33,-241.41 1141.88,-184.03 1122,-74 1119.31,-59.1 1117.22,-42.07 1115.85,-29.4"/>
<polygon fill="#63b8ff" stroke="#63b8ff" points="1119.3,-28.76 1114.8,-19.17 1112.34,-29.48 1119.3,-28.76"/>
</g>
<!-- Node12&#45;&gt;Node7 -->
<g id="edge122" class="edge">
<title>Node12&#45;&gt;Node7</title>
<path fill="none" stroke="#63b8ff" d="M1645.87,-336.41C1758.95,-331.39 2028.15,-317.33 2116,-294 2135.41,-288.85 2138.1,-281.78 2157,-275 2248.22,-242.27 2272.75,-237.86 2368,-220 2504.33,-194.44 2540.44,-201.74 2678,-184 2737.66,-176.31 2752.11,-170.63 2812,-165 3153.98,-132.85 3245.84,-189.27 3584,-129 3663.85,-114.77 3710.07,-139.42 3758,-74 3768.74,-59.34 3756.8,-40.22 3744.95,-26.81"/>
<polygon fill="#63b8ff" stroke="#63b8ff" points="3747.22,-24.12 3737.79,-19.29 3742.15,-28.94 3747.22,-24.12"/>
</g>
<!-- Node12&#45;&gt;Node8 -->
<g id="edge124" class="edge">
<title>Node12&#45;&gt;Node8</title>
<path fill="none" stroke="#63b8ff" d="M1544.48,-338.87C1403.58,-339.31 994.47,-336.51 658,-294 628.06,-290.22 419.86,-250.6 392,-239 327,-211.94 295.87,-197.1 278,-129 269.65,-97.19 261.11,-83.22 278,-55 289.39,-35.97 312.01,-24.62 330.76,-18.14"/>
<polygon fill="#63b8ff" stroke="#63b8ff" points="331.92,-21.45 340.41,-15.11 329.82,-14.77 331.92,-21.45"/>
</g>
<!-- Node12&#45;&gt;Node9 -->
<g id="edge126" class="edge">
<title>Node12&#45;&gt;Node9</title>
<path fill="none" stroke="#63b8ff" d="M1645.72,-337.51C1733.87,-334.95 1910.93,-325.89 1963,-294 1988.12,-278.61 1990.14,-266.76 2000,-239 2027.38,-161.94 2054.28,-115.26 1999,-55 1975.92,-29.84 1877,-17.71 1825.09,-12.99"/>
<polygon fill="#63b8ff" stroke="#63b8ff" points="1825.33,-9.5 1815.07,-12.12 1824.73,-16.47 1825.33,-9.5"/>
</g>
<!-- Node13 -->
<g id="node13" class="node">
<title>Node13</title>
<g id="a_node13"><a xlink:href="Ioss__BoundingBox_8h.html" target="_top" xlink:title=" ">
<polygon fill="white" stroke="#666666" points="1359.5,-294 1252.5,-294 1252.5,-275 1359.5,-275 1359.5,-294"/>
<text text-anchor="middle" x="1306" y="-282" font-family="Helvetica,sans-Serif" font-size="10.00">Ioss_BoundingBox.h</text>
</a>
</g>
</g>
<!-- Node12&#45;&gt;Node13 -->
<g id="edge12" class="edge">
<title>Node12&#45;&gt;Node13</title>
<path fill="none" stroke="#63b8ff" d="M1548.57,-329.98C1498.05,-320.72 1417.26,-305.9 1362.95,-295.94"/>
<polygon fill="#63b8ff" stroke="#63b8ff" points="1363.26,-292.44 1352.8,-294.08 1362,-299.33 1363.26,-292.44"/>
</g>
<!-- Node12&#45;&gt;Node14 -->
<g id="edge14" class="edge">
<title>Node12&#45;&gt;Node14</title>
<path fill="none" stroke="#63b8ff" d="M1544.41,-338.1C1393.33,-336.52 932.36,-328.97 552,-294 550.73,-293.88 549.45,-293.76 548.16,-293.63"/>
<polygon fill="#63b8ff" stroke="#63b8ff" points="548.46,-290.14 538.13,-292.5 547.68,-297.1 548.46,-290.14"/>
</g>
<!-- Node15 -->
<g id="node15" class="node">
<title>Node15</title>
<g id="a_node15"><a xlink:href="Ioss__DataSize_8h.html" target="_top" xlink:title=" ">
<polygon fill="white" stroke="#666666" points="1466.5,-294 1377.5,-294 1377.5,-275 1466.5,-275 1466.5,-294"/>
<text text-anchor="middle" x="1422" y="-282" font-family="Helvetica,sans-Serif" font-size="10.00">Ioss_DataSize.h</text>
</a>
</g>
</g>
<!-- Node12&#45;&gt;Node15 -->
<g id="edge15" class="edge">
<title>Node12&#45;&gt;Node15</title>
<path fill="none" stroke="#63b8ff" d="M1567.2,-329.98C1538.03,-321.05 1492,-306.94 1459.6,-297.02"/>
<polygon fill="#63b8ff" stroke="#63b8ff" points="1460.6,-293.66 1450.01,-294.08 1458.55,-300.36 1460.6,-293.66"/>
</g>
<!-- Node12&#45;&gt;Node16 -->
<g id="edge16" class="edge">
<title>Node12&#45;&gt;Node16</title>
<path fill="none" stroke="#63b8ff" d="M1645.73,-337.38C1744.69,-334.56 1970.17,-325 2157,-294 2222.61,-283.11 2381.51,-231.57 2447,-220 2604.91,-192.1 2646.76,-202.89 2806,-184 2807.3,-183.85 2808.62,-183.69 2809.96,-183.52"/>
<polygon fill="#63b8ff" stroke="#63b8ff" points="2810.81,-186.94 2820.29,-182.22 2809.94,-180 2810.81,-186.94"/>
</g>
<!-- Node17 -->
<g id="node17" class="node">
<title>Node17</title>
<g id="a_node17"><a xlink:href="Ioss__Map_8h.html" target="_top" xlink:title=" ">
<polygon fill="white" stroke="#666666" points="1799,-239 1731,-239 1731,-220 1799,-220 1799,-239"/>
<text text-anchor="middle" x="1765" y="-227" font-family="Helvetica,sans-Serif" font-size="10.00">Ioss_Map.h</text>
</a>
</g>
</g>
<!-- Node12&#45;&gt;Node17 -->
<g id="edge17" class="edge">
<title>Node12&#45;&gt;Node17</title>
<path fill="none" stroke="#63b8ff" d="M1645.9,-333.19C1694.51,-326.96 1762.69,-314.73 1779,-294 1789.22,-281.01 1783.17,-262.1 1776.11,-248.29"/>
<polygon fill="#63b8ff" stroke="#63b8ff" points="1778.99,-246.28 1771.02,-239.3 1772.9,-249.73 1778.99,-246.28"/>
</g>
<!-- Node22 -->
<g id="node22" class="node">
<title>Node22</title>
<g id="a_node22"><a xlink:title=" ">
<polygon fill="#e0e0e0" stroke="#999999" points="1989.5,-74 1954.5,-74 1954.5,-55 1989.5,-55 1989.5,-74"/>
<text text-anchor="middle" x="1972" y="-62" font-family="Helvetica,sans-Serif" font-size="10.00">map</text>
</a>
</g>
</g>
<!-- Node12&#45;&gt;Node22 -->
<g id="edge123" class="edge">
<title>Node12&#45;&gt;Node22</title>
<path fill="none" stroke="#63b8ff" d="M1645.59,-337.83C1729.66,-335.76 1893.41,-327.43 1939,-294 2001.12,-248.46 1990.6,-206.01 1992,-129 1992.15,-120.56 1993.77,-118.26 1992,-110 1990.03,-100.8 1986,-91.2 1982.07,-83.29"/>
<polygon fill="#63b8ff" stroke="#63b8ff" points="1985.09,-81.51 1977.32,-74.32 1978.91,-84.79 1985.09,-81.51"/>
</g>
<!-- Node25 -->
<g id="node25" class="node">
<title>Node25</title>
<g id="a_node25"><a xlink:title=" ">
<polygon fill="#e0e0e0" stroke="#999999" points="2430,-74 2390,-74 2390,-55 2430,-55 2430,-74"/>
<text text-anchor="middle" x="2410" y="-62" font-family="Helvetica,sans-Serif" font-size="10.00">utility</text>
</a>
</g>
</g>
<!-- Node12&#45;&gt;Node25 -->
<g id="edge125" class="edge">
<title>Node12&#45;&gt;Node25</title>
<path fill="none" stroke="#63b8ff" d="M1645.76,-336.42C1753.25,-331.59 2000.56,-318.16 2081,-294 2147.65,-273.98 2152.69,-241.12 2219,-220 2341.91,-180.86 2390.62,-239.64 2507,-184 2544.45,-166.09 2588.95,-143.18 2564,-110 2560.19,-104.93 2483.65,-84.5 2439.94,-73.17"/>
<polygon fill="#63b8ff" stroke="#63b8ff" points="2440.67,-69.74 2430.11,-70.63 2438.92,-76.52 2440.67,-69.74"/>
</g>
<!-- Node38 -->
<g id="node38" class="node">
<title>Node38</title>
<g id="a_node38"><a xlink:href="Ioss__ParallelUtils_8h.html" target="_top" xlink:title=" ">
<polygon fill="white" stroke="#666666" points="1585.5,-294 1484.5,-294 1484.5,-275 1585.5,-275 1585.5,-294"/>
<text text-anchor="middle" x="1535" y="-282" font-family="Helvetica,sans-Serif" font-size="10.00">Ioss_ParallelUtils.h</text>
</a>
</g>
</g>
<!-- Node12&#45;&gt;Node38 -->
<g id="edge61" class="edge">
<title>Node12&#45;&gt;Node38</title>
<path fill="none" stroke="#63b8ff" d="M1585.36,-329.98C1576.49,-322.15 1563.13,-310.34 1552.39,-300.86"/>
<polygon fill="#63b8ff" stroke="#63b8ff" points="1554.63,-298.17 1544.82,-294.17 1549.99,-303.41 1554.63,-298.17"/>
</g>
<!-- Node12&#45;&gt;Node49 -->
<g id="edge111" class="edge">
<title>Node12&#45;&gt;Node49</title>
<path fill="none" stroke="#63b8ff" d="M1544.43,-337.84C1413.47,-335.66 1065.87,-326.88 956,-294 920.72,-283.44 884.38,-260.44 862.74,-245.21"/>
<polygon fill="#63b8ff" stroke="#63b8ff" points="864.58,-242.22 854.42,-239.22 860.49,-247.9 864.58,-242.22"/>
</g>
<!-- Node12&#45;&gt;Node51 -->
<g id="edge118" class="edge">
<title>Node12&#45;&gt;Node51</title>
<path fill="none" stroke="#63b8ff" d="M1645.61,-336.67C1753.76,-332.39 2015.26,-320.04 2233,-294 2234.25,-293.85 2235.52,-293.69 2236.81,-293.52"/>
<polygon fill="#63b8ff" stroke="#63b8ff" points="2237.34,-296.98 2246.74,-292.1 2236.34,-290.05 2237.34,-296.98"/>
</g>
<!-- Node52 -->
<g id="node52" class="node">
<title>Node52</title>
<g id="a_node52"><a xlink:href="Ioss__SurfaceSplit_8h.html" target="_top" xlink:title=" ">
<polygon fill="white" stroke="#666666" points="1706,-294 1604,-294 1604,-275 1706,-275 1706,-294"/>
<text text-anchor="middle" x="1655" y="-282" font-family="Helvetica,sans-Serif" font-size="10.00">Ioss_SurfaceSplit.h</text>
</a>
</g>
</g>
<!-- Node12&#45;&gt;Node52 -->
<g id="edge119" class="edge">
<title>Node12&#45;&gt;Node52</title>
<path fill="none" stroke="#63b8ff" d="M1604.64,-329.98C1613.51,-322.15 1626.87,-310.34 1637.61,-300.86"/>
<polygon fill="#63b8ff" stroke="#63b8ff" points="1640.01,-303.41 1645.18,-294.17 1635.37,-298.17 1640.01,-303.41"/>
</g>
<!-- Node53 -->
<g id="node53" class="node">
<title>Node53</title>
<g id="a_node53"><a xlink:title=" ">
<polygon fill="#e0e0e0" stroke="#999999" points="1770,-294 1724,-294 1724,-275 1770,-275 1770,-294"/>
<text text-anchor="middle" x="1747" y="-282" font-family="Helvetica,sans-Serif" font-size="10.00">chrono</text>
</a>
</g>
</g>
<!-- Node12&#45;&gt;Node53 -->
<g id="edge120" class="edge">
<title>Node12&#45;&gt;Node53</title>
<path fill="none" stroke="#63b8ff" d="M1619.42,-329.98C1645.09,-321.03 1685.64,-306.9 1714.11,-296.97"/>
<polygon fill="#63b8ff" stroke="#63b8ff" points="1715.35,-300.24 1723.64,-293.65 1713.04,-293.63 1715.35,-300.24"/>
</g>
<!-- Node17&#45;&gt;Node4 -->
<g id="edge18" class="edge">
<title>Node17&#45;&gt;Node4</title>
<path fill="none" stroke="#63b8ff" d="M1730.79,-221.4C1727.82,-220.89 1724.86,-220.41 1722,-220 1546.63,-194.79 1496.52,-228.39 1325,-184 1304.77,-178.77 1301.92,-171.31 1282,-165 1204.22,-140.37 1179.69,-153.91 1102,-129 1079.72,-121.86 1022.42,-95.01 988.11,-78.59"/>
<polygon fill="#63b8ff" stroke="#63b8ff" points="989.21,-75.24 978.68,-74.07 986.18,-81.55 989.21,-75.24"/>
</g>
<!-- Node17&#45;&gt;Node6 -->
<g id="edge19" class="edge">
<title>Node17&#45;&gt;Node6</title>
<path fill="none" stroke="#63b8ff" d="M1730.63,-221.2C1624.23,-198.58 1307.07,-131.07 1302,-129 1235.05,-101.71 1165.39,-50.88 1132.85,-25.59"/>
<polygon fill="#63b8ff" stroke="#63b8ff" points="1134.72,-22.61 1124.69,-19.18 1130.39,-28.11 1134.72,-22.61"/>
</g>
<!-- Node17&#45;&gt;Node7 -->
<g id="edge20" class="edge">
<title>Node17&#45;&gt;Node7</title>
<path fill="none" stroke="#63b8ff" d="M1799.25,-224.43C1813.66,-222.84 1830.63,-221.13 1846,-220 2221.32,-192.35 2318.83,-232.78 2692,-184 2730.81,-178.93 2739.2,-170.16 2778,-165 3116.73,-119.98 3211.93,-200.86 3546,-129 3568.43,-124.18 3572.13,-116.95 3594,-110 3658.52,-89.49 3700.17,-127.23 3742,-74 3752.22,-61 3746.16,-42.09 3739.11,-28.29"/>
<polygon fill="#63b8ff" stroke="#63b8ff" points="3741.99,-26.28 3734.02,-19.3 3735.9,-29.73 3741.99,-26.28"/>
</g>
<!-- Node17&#45;&gt;Node8 -->
<g id="edge21" class="edge">
<title>Node17&#45;&gt;Node8</title>
<path fill="none" stroke="#63b8ff" d="M1730.79,-221.37C1727.83,-220.87 1724.86,-220.4 1722,-220 1527.67,-192.93 1475.33,-217.5 1282,-184 1249.81,-178.42 1242.96,-171.77 1211,-165 1110.21,-143.65 1083.75,-145.2 982,-129 830.4,-104.86 791.71,-103.21 641,-74 549.67,-56.3 442.68,-30.65 391.41,-18.06"/>
<polygon fill="#63b8ff" stroke="#63b8ff" points="392.18,-14.64 381.63,-15.65 390.5,-21.44 392.18,-14.64"/>
</g>
<!-- Node17&#45;&gt;Node9 -->
<g id="edge22" class="edge">
<title>Node17&#45;&gt;Node9</title>
<path fill="none" stroke="#63b8ff" d="M1767.58,-219.82C1772.55,-202.65 1783.38,-163.08 1788,-129 1792.73,-94.09 1793.37,-52.91 1793.28,-29.44"/>
<polygon fill="#63b8ff" stroke="#63b8ff" points="1796.77,-29.14 1793.18,-19.17 1789.77,-29.2 1796.77,-29.14"/>
</g>
<!-- Node18 -->
<g id="node18" class="node">
<title>Node18</title>
<g id="a_node18"><a xlink:href="bhopscotch__map_8h.html" target="_top" xlink:title=" ">
<polygon fill="white" stroke="#666666" points="2497.5,-184 2398.5,-184 2398.5,-165 2497.5,-165 2497.5,-184"/>
<text text-anchor="middle" x="2448" y="-172" font-family="Helvetica,sans-Serif" font-size="10.00">bhopscotch_map.h</text>
</a>
</g>
</g>
<!-- Node17&#45;&gt;Node18 -->
<g id="edge23" class="edge">
<title>Node17&#45;&gt;Node18</title>
<path fill="none" stroke="#63b8ff" d="M1799.27,-224.67C1813.69,-223.12 1830.65,-221.37 1846,-220 2044.45,-202.26 2280.16,-186.32 2388.34,-179.3"/>
<polygon fill="#63b8ff" stroke="#63b8ff" points="2388.65,-182.79 2398.4,-178.65 2388.2,-175.8 2388.65,-182.79"/>
</g>
<!-- Node18&#45;&gt;Node6 -->
<g id="edge25" class="edge">
<title>Node18&#45;&gt;Node6</title>
<path fill="none" stroke="#63b8ff" d="M2441.95,-164.71C2432.06,-150.98 2411.08,-124.53 2387,-110 2337.5,-80.13 2315.22,-96.59 2262,-74 2246.42,-67.39 2245.26,-59.7 2229,-55 2123.21,-24.45 1325.89,-13.06 1148.78,-10.9"/>
<polygon fill="#63b8ff" stroke="#63b8ff" points="1148.76,-7.4 1138.72,-10.78 1148.67,-14.4 1148.76,-7.4"/>
</g>
<!-- Node19 -->
<g id="node19" class="node">
<title>Node19</title>
<g id="a_node19"><a xlink:title=" ">
<polygon fill="#e0e0e0" stroke="#999999" points="2390,-19 2334,-19 2334,0 2390,0 2390,-19"/>
<text text-anchor="middle" x="2362" y="-7" font-family="Helvetica,sans-Serif" font-size="10.00">algorithm</text>
</a>
</g>
</g>
<!-- Node18&#45;&gt;Node19 -->
<g id="edge24" class="edge">
<title>Node18&#45;&gt;Node19</title>
<path fill="none" stroke="#63b8ff" d="M2469.44,-164.94C2494.92,-153.51 2531.97,-132.13 2515,-110 2477.48,-61.06 2425.22,-116.98 2381,-74 2369.02,-62.35 2364.52,-43.49 2362.86,-29.35"/>
<polygon fill="#63b8ff" stroke="#63b8ff" points="2366.34,-28.93 2362.06,-19.24 2359.36,-29.49 2366.34,-28.93"/>
</g>
<!-- Node20 -->
<g id="node20" class="node">
<title>Node20</title>
<g id="a_node20"><a xlink:title=" ">
<polygon fill="#e0e0e0" stroke="#999999" points="2219.5,-74 2160.5,-74 2160.5,-55 2219.5,-55 2219.5,-74"/>
<text text-anchor="middle" x="2190" y="-62" font-family="Helvetica,sans-Serif" font-size="10.00">functional</text>
</a>
</g>
</g>
<!-- Node18&#45;&gt;Node20 -->
<g id="edge26" class="edge">
<title>Node18&#45;&gt;Node20</title>
<path fill="none" stroke="#63b8ff" d="M2438.21,-164.79C2422.43,-151.18 2389.88,-124.88 2358,-110 2335.39,-99.45 2271.89,-83.96 2229.76,-74.32"/>
<polygon fill="#63b8ff" stroke="#63b8ff" points="2230.34,-70.86 2219.81,-72.06 2228.79,-77.68 2230.34,-70.86"/>
</g>
<!-- Node21 -->
<g id="node21" class="node">
<title>Node21</title>
<g id="a_node21"><a xlink:title=" ">
<polygon fill="#e0e0e0" stroke="#999999" points="2559.5,-74 2486.5,-74 2486.5,-55 2559.5,-55 2559.5,-74"/>
<text text-anchor="middle" x="2523" y="-62" font-family="Helvetica,sans-Serif" font-size="10.00">initializer_list</text>
</a>
</g>
</g>
<!-- Node18&#45;&gt;Node21 -->
<g id="edge27" class="edge">
<title>Node18&#45;&gt;Node21</title>
<path fill="none" stroke="#63b8ff" d="M2497.52,-167.58C2521.83,-161.9 2549.03,-150.77 2564,-129 2575.23,-112.67 2558.94,-93.5 2543.69,-80.54"/>
<polygon fill="#63b8ff" stroke="#63b8ff" points="2545.51,-77.51 2535.51,-74.02 2541.15,-82.99 2545.51,-77.51"/>
</g>
<!-- Node18&#45;&gt;Node22 -->
<g id="edge28" class="edge">
<title>Node18&#45;&gt;Node22</title>
<path fill="none" stroke="#63b8ff" d="M2417.98,-164.91C2372.4,-152.03 2282.9,-127.38 2206,-110 2131.85,-93.24 2043.52,-77.6 1999.62,-70.12"/>
<polygon fill="#63b8ff" stroke="#63b8ff" points="2000.14,-66.66 1989.7,-68.44 1998.97,-73.56 2000.14,-66.66"/>
</g>
<!-- Node18&#45;&gt;Node23 -->
<g id="edge29" class="edge">
<title>Node18&#45;&gt;Node23</title>
<path fill="none" stroke="#63b8ff" d="M2497.77,-169.32C2618.46,-159.18 2920.21,-133.73 2966,-129 3165.35,-108.39 3218.86,-110.25 3419.71,-74.05"/>
<polygon fill="#63b8ff" stroke="#63b8ff" points="3420.48,-77.47 3429.7,-72.24 3419.23,-70.58 3420.48,-77.47"/>
</g>
<!-- Node24 -->
<g id="node24" class="node">
<title>Node24</title>
<g id="a_node24"><a xlink:title=" ">
<polygon fill="#e0e0e0" stroke="#999999" points="2678,-74 2616,-74 2616,-55 2678,-55 2678,-74"/>
<text text-anchor="middle" x="2647" y="-62" font-family="Helvetica,sans-Serif" font-size="10.00">type_traits</text>
</a>
</g>
</g>
<!-- Node18&#45;&gt;Node24 -->
<g id="edge30" class="edge">
<title>Node18&#45;&gt;Node24</title>
<path fill="none" stroke="#63b8ff" d="M2486.83,-164.93C2513.93,-157.88 2550.25,-146.21 2579,-129 2600.32,-116.24 2620.57,-95.89 2633.34,-81.68"/>
<polygon fill="#63b8ff" stroke="#63b8ff" points="2635.99,-83.95 2639.94,-74.12 2630.72,-79.35 2635.99,-83.95"/>
</g>
<!-- Node18&#45;&gt;Node25 -->
<g id="edge31" class="edge">
<title>Node18&#45;&gt;Node25</title>
<path fill="none" stroke="#63b8ff" d="M2486.48,-165C2522.36,-155.21 2567.61,-136.93 2548,-110 2541.47,-101.03 2478.52,-83.32 2439.93,-73.15"/>
<polygon fill="#63b8ff" stroke="#63b8ff" points="2440.79,-69.76 2430.23,-70.62 2439.02,-76.53 2440.79,-69.76"/>
</g>
<!-- Node26 -->
<g id="node26" class="node">
<title>Node26</title>
<g id="a_node26"><a xlink:href="hopscotch__hash_8h.html" target="_top" xlink:title=" ">
<polygon fill="white" stroke="#666666" points="2924,-129 2828,-129 2828,-110 2924,-110 2924,-129"/>
<text text-anchor="middle" x="2876" y="-117" font-family="Helvetica,sans-Serif" font-size="10.00">hopscotch_hash.h</text>
</a>
</g>
</g>
<!-- Node18&#45;&gt;Node26 -->
<g id="edge32" class="edge">
<title>Node18&#45;&gt;Node26</title>
<path fill="none" stroke="#63b8ff" d="M2497.61,-166.86C2502.47,-166.22 2507.33,-165.6 2512,-165 2619.9,-151.24 2745.9,-136.03 2817.79,-127.43"/>
<polygon fill="#63b8ff" stroke="#63b8ff" points="2818.48,-130.87 2827.99,-126.21 2817.65,-123.92 2818.48,-130.87"/>
</g>
<!-- Node26&#45;&gt;Node6 -->
<g id="edge36" class="edge">
<title>Node26&#45;&gt;Node6</title>
<path fill="none" stroke="#63b8ff" d="M2835.98,-109.94C2803.91,-102.41 2758.13,-90.13 2720,-74 2704.41,-67.41 2703.29,-59.6 2687,-55 2610.53,-33.4 1373.5,-14.3 1148.85,-11"/>
<polygon fill="#63b8ff" stroke="#63b8ff" points="1148.69,-7.5 1138.64,-10.85 1148.58,-14.5 1148.69,-7.5"/>
</g>
<!-- Node26&#45;&gt;Node7 -->
<g id="edge37" class="edge">
<title>Node26&#45;&gt;Node7</title>
<path fill="none" stroke="#63b8ff" d="M2924.06,-111.85C2928.77,-111.22 2933.48,-110.59 2938,-110 3066.78,-93.18 3099.86,-95.15 3228,-74 3269.19,-67.2 3278.76,-61.49 3320,-55 3458.3,-33.23 3624.66,-18.66 3694.53,-13.07"/>
<polygon fill="#63b8ff" stroke="#63b8ff" points="3695.2,-16.52 3704.89,-12.25 3694.65,-9.55 3695.2,-16.52"/>
</g>
<!-- Node26&#45;&gt;Node9 -->
<g id="edge48" class="edge">
<title>Node26&#45;&gt;Node9</title>
<path fill="none" stroke="#63b8ff" d="M2854.03,-109.99C2831.39,-101.17 2795.12,-86.9 2764,-74 2744.32,-65.84 2740.76,-59.78 2720,-55 2545.93,-14.94 2095.34,-29.11 1917,-19 1885.9,-17.24 1850.44,-14.76 1825.43,-12.93"/>
<polygon fill="#63b8ff" stroke="#63b8ff" points="1825.62,-9.44 1815.39,-12.19 1825.11,-16.42 1825.62,-9.44"/>
</g>
<!-- Node26&#45;&gt;Node19 -->
<g id="edge33" class="edge">
<title>Node26&#45;&gt;Node19</title>
<path fill="none" stroke="#63b8ff" d="M2883.48,-109.99C2894.29,-96.65 2911.47,-70.72 2897,-55 2863.49,-18.59 2517.4,-11.96 2400.4,-10.76"/>
<polygon fill="#63b8ff" stroke="#63b8ff" points="2400.16,-7.26 2390.13,-10.67 2400.1,-14.26 2400.16,-7.26"/>
</g>
<!-- Node26&#45;&gt;Node20 -->
<g id="edge39" class="edge">
<title>Node26&#45;&gt;Node20</title>
<path fill="none" stroke="#63b8ff" d="M2827.76,-114.77C2698.84,-104.81 2348.03,-77.71 2229.64,-68.56"/>
<polygon fill="#63b8ff" stroke="#63b8ff" points="2229.8,-65.06 2219.56,-67.78 2229.26,-72.04 2229.8,-65.06"/>
</g>
<!-- Node26&#45;&gt;Node21 -->
<g id="edge40" class="edge">
<title>Node26&#45;&gt;Node21</title>
<path fill="none" stroke="#63b8ff" d="M2827.66,-111.24C2759.73,-101.04 2636.85,-82.59 2569.77,-72.52"/>
<polygon fill="#63b8ff" stroke="#63b8ff" points="2569.91,-69 2559.51,-70.98 2568.88,-75.93 2569.91,-69"/>
</g>
<!-- Node26&#45;&gt;Node23 -->
<g id="edge43" class="edge">
<title>Node26&#45;&gt;Node23</title>
<path fill="none" stroke="#63b8ff" d="M2924.17,-115.54C3035.44,-108.55 3308.66,-90.48 3419.79,-73.9"/>
<polygon fill="#63b8ff" stroke="#63b8ff" points="3420.38,-77.35 3429.72,-72.35 3419.3,-70.43 3420.38,-77.35"/>
</g>
<!-- Node26&#45;&gt;Node24 -->
<g id="edge46" class="edge">
<title>Node26&#45;&gt;Node24</title>
<path fill="none" stroke="#63b8ff" d="M2839.21,-109.98C2797.89,-100.42 2731.01,-84.94 2688.03,-75"/>
<polygon fill="#63b8ff" stroke="#63b8ff" points="2688.72,-71.56 2678.18,-72.72 2687.14,-78.38 2688.72,-71.56"/>
</g>
<!-- Node26&#45;&gt;Node25 -->
<g id="edge47" class="edge">
<title>Node26&#45;&gt;Node25</title>
<path fill="none" stroke="#63b8ff" d="M2827.88,-113.32C2753.03,-105.23 2604.18,-88.94 2478,-74 2465.7,-72.54 2452.15,-70.87 2440.41,-69.39"/>
<polygon fill="#63b8ff" stroke="#63b8ff" points="2440.59,-65.88 2430.22,-68.1 2439.71,-72.83 2440.59,-65.88"/>
</g>
<!-- Node27 -->
<g id="node27" class="node">
<title>Node27</title>
<g id="a_node27"><a xlink:title=" ">
<polygon fill="#e0e0e0" stroke="#999999" points="3411.5,-74 3362.5,-74 3362.5,-55 3411.5,-55 3411.5,-74"/>
<text text-anchor="middle" x="3387" y="-62" font-family="Helvetica,sans-Serif" font-size="10.00">cassert</text>
</a>
</g>
</g>
<!-- Node26&#45;&gt;Node27 -->
<g id="edge34" class="edge">
<title>Node26&#45;&gt;Node27</title>
<path fill="none" stroke="#63b8ff" d="M2924.18,-113.68C3004.28,-105.65 3169.91,-88.91 3310,-74 3323.82,-72.53 3339.04,-70.86 3352.27,-69.39"/>
<polygon fill="#63b8ff" stroke="#63b8ff" points="3352.83,-72.85 3362.38,-68.27 3352.06,-65.89 3352.83,-72.85"/>
</g>
<!-- Node28 -->
<g id="node28" class="node">
<title>Node28</title>
<g id="a_node28"><a xlink:title=" ">
<polygon fill="#e0e0e0" stroke="#999999" points="3310,-19 3266,-19 3266,0 3310,0 3310,-19"/>
<text text-anchor="middle" x="3288" y="-7" font-family="Helvetica,sans-Serif" font-size="10.00">cmath</text>
</a>
</g>
</g>
<!-- Node26&#45;&gt;Node28 -->
<g id="edge35" class="edge">
<title>Node26&#45;&gt;Node28</title>
<path fill="none" stroke="#63b8ff" d="M2924.12,-111.9C3013.3,-99.66 3195.42,-74.62 3197,-74 3225.67,-62.76 3254.02,-40.8 3271.26,-25.89"/>
<polygon fill="#63b8ff" stroke="#63b8ff" points="3273.63,-28.47 3278.79,-19.21 3268.99,-23.23 3273.63,-28.47"/>
</g>
<!-- Node29 -->
<g id="node29" class="node">
<title>Node29</title>
<g id="a_node29"><a xlink:title=" ">
<polygon fill="#e0e0e0" stroke="#999999" points="2831.5,-74 2772.5,-74 2772.5,-55 2831.5,-55 2831.5,-74"/>
<text text-anchor="middle" x="2802" y="-62" font-family="Helvetica,sans-Serif" font-size="10.00">exception</text>
</a>
</g>
</g>
<!-- Node26&#45;&gt;Node29 -->
<g id="edge38" class="edge">
<title>Node26&#45;&gt;Node29</title>
<path fill="none" stroke="#63b8ff" d="M2864.11,-109.98C2852.85,-101.92 2835.71,-89.65 2822.29,-80.03"/>
<polygon fill="#63b8ff" stroke="#63b8ff" points="2824.27,-77.15 2814.11,-74.17 2820.2,-82.84 2824.27,-77.15"/>
</g>
<!-- Node30 -->
<g id="node30" class="node">
<title>Node30</title>
<g id="a_node30"><a xlink:title=" ">
<polygon fill="#e0e0e0" stroke="#999999" points="3167.5,-19 3120.5,-19 3120.5,0 3167.5,0 3167.5,-19"/>
<text text-anchor="middle" x="3144" y="-7" font-family="Helvetica,sans-Serif" font-size="10.00">iterator</text>
</a>
</g>
</g>
<!-- Node26&#45;&gt;Node30 -->
<g id="edge41" class="edge">
<title>Node26&#45;&gt;Node30</title>
<path fill="none" stroke="#63b8ff" d="M2924,-111.73C3003.51,-100.41 3154.21,-78.43 3158,-74 3168.85,-61.31 3162.49,-42.09 3155.19,-28.12"/>
<polygon fill="#63b8ff" stroke="#63b8ff" points="3158.21,-26.35 3150.18,-19.43 3152.14,-29.85 3158.21,-26.35"/>
</g>
<!-- Node31 -->
<g id="node31" class="node">
<title>Node31</title>
<g id="a_node31"><a xlink:title=" ">
<polygon fill="#e0e0e0" stroke="#999999" points="2974,-19 2934,-19 2934,0 2974,0 2974,-19"/>
<text text-anchor="middle" x="2954" y="-7" font-family="Helvetica,sans-Serif" font-size="10.00">limits</text>
</a>
</g>
</g>
<!-- Node26&#45;&gt;Node31 -->
<g id="edge42" class="edge">
<title>Node26&#45;&gt;Node31</title>
<path fill="none" stroke="#63b8ff" d="M2890.17,-109.87C2902.23,-101.89 2919.25,-89.01 2930,-74 2939.65,-60.53 2945.94,-42.69 2949.65,-29.36"/>
<polygon fill="#63b8ff" stroke="#63b8ff" points="2953.11,-29.96 2952.18,-19.41 2946.32,-28.24 2953.11,-29.96"/>
</g>
<!-- Node32 -->
<g id="node32" class="node">
<title>Node32</title>
<g id="a_node32"><a xlink:title=" ">
<polygon fill="#e0e0e0" stroke="#999999" points="3247.5,-19 3188.5,-19 3188.5,0 3247.5,0 3247.5,-19"/>
<text text-anchor="middle" x="3218" y="-7" font-family="Helvetica,sans-Serif" font-size="10.00">stdexcept</text>
</a>
</g>
</g>
<!-- Node26&#45;&gt;Node32 -->
<g id="edge44" class="edge">
<title>Node26&#45;&gt;Node32</title>
<path fill="none" stroke="#63b8ff" d="M2924.16,-111.81C3007.13,-100.2 3168.73,-77.28 3174,-74 3191.21,-63.29 3203.43,-43.1 3210.56,-28.35"/>
<polygon fill="#63b8ff" stroke="#63b8ff" points="3213.77,-29.75 3214.68,-19.19 3207.39,-26.88 3213.77,-29.75"/>
</g>
<!-- Node33 -->
<g id="node33" class="node">
<title>Node33</title>
<g id="a_node33"><a xlink:title=" ">
<polygon fill="#e0e0e0" stroke="#999999" points="2888,-74 2850,-74 2850,-55 2888,-55 2888,-74"/>
<text text-anchor="middle" x="2869" y="-62" font-family="Helvetica,sans-Serif" font-size="10.00">tuple</text>
</a>
</g>
</g>
<!-- Node26&#45;&gt;Node33 -->
<g id="edge45" class="edge">
<title>Node26&#45;&gt;Node33</title>
<path fill="none" stroke="#63b8ff" d="M2874.84,-109.75C2873.93,-102.8 2872.61,-92.85 2871.46,-84.13"/>
<polygon fill="#63b8ff" stroke="#63b8ff" points="2874.91,-83.54 2870.13,-74.09 2867.97,-84.46 2874.91,-83.54"/>
</g>
<!-- Node34 -->
<g id="node34" class="node">
<title>Node34</title>
<g id="a_node34"><a xlink:href="hopscotch__growth__policy_8h.html" target="_top" xlink:title=" ">
<polygon fill="white" stroke="#666666" points="3116,-74 2982,-74 2982,-55 3116,-55 3116,-74"/>
<text text-anchor="middle" x="3049" y="-62" font-family="Helvetica,sans-Serif" font-size="10.00">hopscotch_growth_policy.h</text>
</a>
</g>
</g>
<!-- Node26&#45;&gt;Node34 -->
<g id="edge49" class="edge">
<title>Node26&#45;&gt;Node34</title>
<path fill="none" stroke="#63b8ff" d="M2903.8,-109.98C2932.97,-101.05 2979,-86.94 3011.4,-77.02"/>
<polygon fill="#63b8ff" stroke="#63b8ff" points="3012.45,-80.36 3020.99,-74.08 3010.4,-73.66 3012.45,-80.36"/>
</g>
<!-- Node34&#45;&gt;Node5 -->
<g id="edge51" class="edge">
<title>Node34&#45;&gt;Node5</title>
<path fill="none" stroke="#63b8ff" d="M2981.66,-59.6C2955.27,-58.11 2924.72,-56.42 2897,-55 2533.23,-36.33 2091.08,-16.86 1974.38,-11.78"/>
<polygon fill="#63b8ff" stroke="#63b8ff" points="1974.26,-8.27 1964.12,-11.33 1973.95,-15.26 1974.26,-8.27"/>
</g>
<!-- Node34&#45;&gt;Node6 -->
<g id="edge54" class="edge">
<title>Node34&#45;&gt;Node6</title>
<path fill="none" stroke="#63b8ff" d="M2981.68,-59.29C2955.28,-57.75 2924.73,-56.12 2897,-55 2192.47,-26.52 1330.56,-13.5 1148.69,-10.97"/>
<polygon fill="#63b8ff" stroke="#63b8ff" points="1148.68,-7.47 1138.64,-10.83 1148.59,-14.47 1148.68,-7.47"/>
</g>
<!-- Node34&#45;&gt;Node7 -->
<g id="edge55" class="edge">
<title>Node34&#45;&gt;Node7</title>
<path fill="none" stroke="#63b8ff" d="M3116.28,-58.25C3259.27,-47.09 3589,-21.35 3694.73,-13.1"/>
<polygon fill="#63b8ff" stroke="#63b8ff" points="3695.11,-16.58 3704.81,-12.31 3694.57,-9.6 3695.11,-16.58"/>
</g>
<!-- Node34&#45;&gt;Node19 -->
<g id="edge50" class="edge">
<title>Node34&#45;&gt;Node19</title>
<path fill="none" stroke="#63b8ff" d="M2981.88,-58.32C2839.76,-47.36 2512.36,-22.1 2400.38,-13.46"/>
<polygon fill="#63b8ff" stroke="#63b8ff" points="2400.46,-9.96 2390.22,-12.68 2399.93,-16.94 2400.46,-9.96"/>
</g>
<!-- Node34&#45;&gt;Node28 -->
<g id="edge53" class="edge">
<title>Node34&#45;&gt;Node28</title>
<path fill="none" stroke="#63b8ff" d="M3092.59,-54.93C3132.64,-46.88 3193.88,-34.15 3255.76,-19.2"/>
<polygon fill="#63b8ff" stroke="#63b8ff" points="3256.8,-22.55 3265.69,-16.78 3255.14,-15.75 3256.8,-22.55"/>
</g>
<!-- Node34&#45;&gt;Node30 -->
<g id="edge56" class="edge">
<title>Node34&#45;&gt;Node30</title>
<path fill="none" stroke="#63b8ff" d="M3064.26,-54.98C3079.13,-46.69 3101.98,-33.94 3119.42,-24.22"/>
<polygon fill="#63b8ff" stroke="#63b8ff" points="3121.43,-27.1 3128.46,-19.17 3118.02,-20.99 3121.43,-27.1"/>
</g>
<!-- Node34&#45;&gt;Node31 -->
<g id="edge57" class="edge">
<title>Node34&#45;&gt;Node31</title>
<path fill="none" stroke="#63b8ff" d="M3033.74,-54.98C3018.87,-46.69 2996.02,-33.94 2978.58,-24.22"/>
<polygon fill="#63b8ff" stroke="#63b8ff" points="2979.98,-20.99 2969.54,-19.17 2976.57,-27.1 2979.98,-20.99"/>
</g>
<!-- Node34&#45;&gt;Node32 -->
<g id="edge59" class="edge">
<title>Node34&#45;&gt;Node32</title>
<path fill="none" stroke="#63b8ff" d="M3076.15,-54.98C3104.53,-46.09 3149.23,-32.07 3180.86,-22.15"/>
<polygon fill="#63b8ff" stroke="#63b8ff" points="3182.14,-25.41 3190.63,-19.08 3180.05,-18.73 3182.14,-25.41"/>
</g>
<!-- Node35 -->
<g id="node35" class="node">
<title>Node35</title>
<g id="a_node35"><a xlink:title=" ">
<polygon fill="#e0e0e0" stroke="#999999" points="3096.5,-19 3051.5,-19 3051.5,0 3096.5,0 3096.5,-19"/>
<text text-anchor="middle" x="3074" y="-7" font-family="Helvetica,sans-Serif" font-size="10.00">climits</text>
</a>
</g>
</g>
<!-- Node34&#45;&gt;Node35 -->
<g id="edge52" class="edge">
<title>Node34&#45;&gt;Node35</title>
<path fill="none" stroke="#63b8ff" d="M3053.13,-54.75C3056.51,-47.57 3061.42,-37.18 3065.62,-28.27"/>
<polygon fill="#63b8ff" stroke="#63b8ff" points="3068.85,-29.63 3069.95,-19.09 3062.52,-26.64 3068.85,-29.63"/>
</g>
<!-- Node36 -->
<g id="node36" class="node">
<title>Node36</title>
<g id="a_node36"><a xlink:title=" ">
<polygon fill="#e0e0e0" stroke="#999999" points="3033.5,-19 2998.5,-19 2998.5,0 3033.5,0 3033.5,-19"/>
<text text-anchor="middle" x="3016" y="-7" font-family="Helvetica,sans-Serif" font-size="10.00">ratio</text>
</a>
</g>
</g>
<!-- Node34&#45;&gt;Node36 -->
<g id="edge58" class="edge">
<title>Node34&#45;&gt;Node36</title>
<path fill="none" stroke="#63b8ff" d="M3043.55,-54.75C3038.99,-47.42 3032.33,-36.73 3026.71,-27.7"/>
<polygon fill="#63b8ff" stroke="#63b8ff" points="3029.6,-25.73 3021.35,-19.09 3023.66,-29.43 3029.6,-25.73"/>
</g>
<!-- Node37 -->
<g id="node37" class="node">
<title>Node37</title>
<g id="a_node37"><a xlink:title=" ">
<polygon fill="#e0e0e0" stroke="#999999" points="2222,-19 2168,-19 2168,0 2222,0 2222,-19"/>
<text text-anchor="middle" x="2195" y="-7" font-family="Helvetica,sans-Serif" font-size="10.00">iostream</text>
</a>
</g>
</g>
<!-- Node34&#45;&gt;Node37 -->
<g id="edge60" class="edge">
<title>Node34&#45;&gt;Node37</title>
<path fill="none" stroke="#63b8ff" d="M2981.62,-59.45C2853.65,-51.73 2566.62,-34.32 2325,-19 2293.75,-17.02 2258.29,-14.69 2232.3,-12.98"/>
<polygon fill="#63b8ff" stroke="#63b8ff" points="2232.35,-9.47 2222.14,-12.31 2231.88,-16.46 2232.35,-9.47"/>
</g>
<!-- Node38&#45;&gt;Node4 -->
<g id="edge62" class="edge">
<title>Node38&#45;&gt;Node4</title>
<path fill="none" stroke="#63b8ff" d="M1484.37,-275.91C1359.24,-256.91 1042.47,-207.13 1000,-184 970.46,-167.91 960.44,-160.26 948,-129 942.16,-114.31 946.64,-96.63 951.87,-83.66"/>
<polygon fill="#63b8ff" stroke="#63b8ff" points="955.12,-84.96 956.05,-74.41 948.75,-82.08 955.12,-84.96"/>
</g>
<!-- Node38&#45;&gt;Node6 -->
<g id="edge108" class="edge">
<title>Node38&#45;&gt;Node6</title>
<path fill="none" stroke="#63b8ff" d="M1541.87,-274.83C1556.57,-255.17 1588.56,-205.8 1574,-165 1552.76,-105.51 1539.36,-85.42 1484,-55 1426.75,-23.55 1229.6,-14.03 1148.88,-11.41"/>
<polygon fill="#63b8ff" stroke="#63b8ff" points="1148.84,-7.9 1138.73,-11.09 1148.62,-14.9 1148.84,-7.9"/>
</g>
<!-- Node38&#45;&gt;Node8 -->
<g id="edge109" class="edge">
<title>Node38&#45;&gt;Node8</title>
<path fill="none" stroke="#63b8ff" d="M1484.19,-275.88C1481.42,-275.56 1478.68,-275.26 1476,-275 1164.62,-244.66 1080.53,-296.44 773,-239 619.37,-210.3 571.72,-211.54 439,-129 409.91,-110.91 403.45,-102.86 385,-74 376.07,-60.04 369.71,-42.25 365.79,-29.06"/>
<polygon fill="#63b8ff" stroke="#63b8ff" points="369.11,-27.94 363.07,-19.24 362.37,-29.81 369.11,-27.94"/>
</g>
<!-- Node38&#45;&gt;Node9 -->
<g id="edge110" class="edge">
<title>Node38&#45;&gt;Node9</title>
<path fill="none" stroke="#63b8ff" d="M1585.52,-276.11C1663.44,-264.59 1804.4,-243.23 1808,-239 1859.99,-177.85 1820.65,-71.04 1801.69,-28.61"/>
<polygon fill="#63b8ff" stroke="#63b8ff" points="1804.76,-26.89 1797.38,-19.28 1798.4,-29.83 1804.76,-26.89"/>
</g>
<!-- Node38&#45;&gt;Node27 -->
<g id="edge107" class="edge">
<title>Node38&#45;&gt;Node27</title>
<path fill="none" stroke="#63b8ff" d="M1585.72,-276.15C1588.86,-275.75 1591.97,-275.36 1595,-275 2228.96,-199.67 2392.14,-220.23 3024,-129 3145.16,-111.51 3288,-84.69 3352.42,-72.26"/>
<polygon fill="#63b8ff" stroke="#63b8ff" points="3353.28,-75.66 3362.43,-70.32 3351.95,-68.78 3353.28,-75.66"/>
</g>
<!-- Node39 -->
<g id="node39" class="node">
<title>Node39</title>
<g id="a_node39"><a xlink:href="Ioss__Utils_8h.html" target="_top" xlink:title=" ">
<polygon fill="white" stroke="#666666" points="1712.5,-239 1643.5,-239 1643.5,-220 1712.5,-220 1712.5,-239"/>
<text text-anchor="middle" x="1678" y="-227" font-family="Helvetica,sans-Serif" font-size="10.00">Ioss_Utils.h</text>
</a>
</g>
</g>
<!-- Node38&#45;&gt;Node39 -->
<g id="edge63" class="edge">
<title>Node38&#45;&gt;Node39</title>
<path fill="none" stroke="#63b8ff" d="M1557.98,-274.98C1581.5,-266.27 1618.29,-252.63 1644.94,-242.75"/>
<polygon fill="#63b8ff" stroke="#63b8ff" points="1646.45,-245.93 1654.61,-239.17 1644.01,-239.36 1646.45,-245.93"/>
</g>
<!-- Node39&#45;&gt;Node4 -->
<g id="edge64" class="edge">
<title>Node39&#45;&gt;Node4</title>
<path fill="none" stroke="#63b8ff" d="M1643.3,-224.98C1627.37,-223.4 1608.23,-221.54 1591,-220 1394.25,-202.4 1335.33,-246.69 1148,-184 1112.25,-172.04 1021.49,-108.83 981.01,-79.93"/>
<polygon fill="#63b8ff" stroke="#63b8ff" points="982.91,-76.98 972.74,-74 978.83,-82.67 982.91,-76.98"/>
</g>
<!-- Node39&#45;&gt;Node6 -->
<g id="edge100" class="edge">
<title>Node39&#45;&gt;Node6</title>
<path fill="none" stroke="#63b8ff" d="M1643.34,-225.1C1566.74,-217.43 1385.08,-198.34 1325,-184 1254.31,-167.13 1225.03,-177.62 1171,-129 1140.7,-101.73 1124.93,-54.84 1118.17,-28.98"/>
<polygon fill="#63b8ff" stroke="#63b8ff" points="1121.51,-27.9 1115.74,-19.01 1114.71,-29.55 1121.51,-27.9"/>
</g>
<!-- Node39&#45;&gt;Node7 -->
<g id="edge101" class="edge">
<title>Node39&#45;&gt;Node7</title>
<path fill="none" stroke="#63b8ff" d="M1712.51,-221.32C1715.71,-220.81 1718.91,-220.36 1722,-220 2125.41,-173.35 2235.51,-256.93 2635,-184 2661.27,-179.2 2665.76,-169.96 2692,-165 2995.49,-107.64 3079.02,-162.98 3386,-129 3422.18,-124.99 3681.74,-98.12 3709,-74 3721.51,-62.93 3725.94,-43.99 3727.44,-29.67"/>
<polygon fill="#63b8ff" stroke="#63b8ff" points="3730.95,-29.62 3728.1,-19.41 3723.96,-29.17 3730.95,-29.62"/>
</g>
<!-- Node39&#45;&gt;Node8 -->
<g id="edge105" class="edge">
<title>Node39&#45;&gt;Node8</title>
<path fill="none" stroke="#63b8ff" d="M1643.44,-226.41C1465.51,-215.52 657.01,-164.44 551,-129 481.24,-105.68 410.81,-52.1 378.8,-25.73"/>
<polygon fill="#63b8ff" stroke="#63b8ff" points="380.75,-22.79 370.83,-19.06 376.26,-28.16 380.75,-22.79"/>
</g>
<!-- Node39&#45;&gt;Node9 -->
<g id="edge106" class="edge">
<title>Node39&#45;&gt;Node9</title>
<path fill="none" stroke="#63b8ff" d="M1696.29,-219.86C1710.44,-212.28 1729.51,-199.98 1741,-184 1775.82,-135.59 1787.59,-63.69 1791.35,-29.67"/>
<polygon fill="#63b8ff" stroke="#63b8ff" points="1794.87,-29.61 1792.37,-19.32 1787.9,-28.93 1794.87,-29.61"/>
</g>
<!-- Node39&#45;&gt;Node16 -->
<g id="edge78" class="edge">
<title>Node39&#45;&gt;Node16</title>
<path fill="none" stroke="#63b8ff" d="M1712.51,-221.31C1715.71,-220.8 1718.91,-220.35 1722,-220 2150.61,-170.94 2260.98,-202.41 2692,-184 2731.33,-182.32 2775.59,-180.18 2809.89,-178.47"/>
<polygon fill="#63b8ff" stroke="#63b8ff" points="2810.39,-181.95 2820.2,-177.95 2810.04,-174.96 2810.39,-181.95"/>
</g>
<!-- Node39&#45;&gt;Node19 -->
<g id="edge97" class="edge">
<title>Node39&#45;&gt;Node19</title>
<path fill="none" stroke="#63b8ff" d="M1704.04,-220C1726.33,-212.18 1758.86,-199.48 1785,-184 1863.89,-137.27 1861.23,-89.95 1946,-55 1980.47,-40.79 2227.2,-20.75 2323.57,-13.37"/>
<polygon fill="#63b8ff" stroke="#63b8ff" points="2324.05,-16.85 2333.76,-12.6 2323.52,-9.87 2324.05,-16.85"/>
</g>
<!-- Node39&#45;&gt;Node27 -->
<g id="edge98" class="edge">
<title>Node39&#45;&gt;Node27</title>
<path fill="none" stroke="#63b8ff" d="M1712.51,-221.34C1715.71,-220.83 1718.91,-220.37 1722,-220 2068.81,-178.77 2167.02,-263.94 2507,-184 2527.34,-179.22 2529.76,-170.19 2550,-165 2730.62,-118.69 2783.75,-157.64 2968,-129 3005.82,-123.12 3014.3,-116.64 3052,-110 3176.87,-87.99 3209.53,-92.23 3335,-74 3340.6,-73.19 3346.53,-72.27 3352.31,-71.35"/>
<polygon fill="#63b8ff" stroke="#63b8ff" points="3353.12,-74.76 3362.43,-69.7 3352,-67.85 3353.12,-74.76"/>
</g>
<!-- Node39&#45;&gt;Node28 -->
<g id="edge99" class="edge">
<title>Node39&#45;&gt;Node28</title>
<path fill="none" stroke="#63b8ff" d="M1712.51,-221.33C1715.71,-220.82 1718.91,-220.36 1722,-220 2100.64,-175.72 2201.04,-233.78 2579,-184 2617.38,-178.95 2625.66,-170.37 2664,-165 2934.71,-127.06 3007.6,-169.08 3278,-129 3381.54,-113.65 3442.2,-156.2 3507,-74 3512.23,-67.37 3512.34,-61.54 3507,-55 3483.81,-26.62 3375.6,-15.9 3320.46,-12.22"/>
<polygon fill="#63b8ff" stroke="#63b8ff" points="3320.39,-8.71 3310.19,-11.58 3319.95,-15.7 3320.39,-8.71"/>
</g>
<!-- Node39&#45;&gt;Node32 -->
<g id="edge104" class="edge">
<title>Node39&#45;&gt;Node32</title>
<path fill="none" stroke="#63b8ff" d="M1712.51,-221.34C1715.71,-220.82 1718.91,-220.36 1722,-220 2084.29,-177.29 2185.82,-262.82 2542,-184 2563.6,-179.22 2566.48,-170.1 2588,-165 2800.49,-114.68 2860.79,-151.42 3078,-129 3262.2,-109.99 3369.01,-213.31 3491,-74 3496.56,-67.65 3496.5,-61.41 3491,-55 3458.48,-17.1 3323.47,-27.37 3257.71,-18.74"/>
<polygon fill="#63b8ff" stroke="#63b8ff" points="3258.19,-15.28 3247.77,-17.19 3257.11,-22.19 3258.19,-15.28"/>
</g>
<!-- Node39&#45;&gt;Node37 -->
<g id="edge103" class="edge">
<title>Node39&#45;&gt;Node37</title>
<path fill="none" stroke="#63b8ff" d="M1696.22,-219.97C1713.26,-211.68 1739.15,-198.28 1760,-184 1833.11,-133.94 1831.46,-91.92 1912,-55 1993.97,-17.42 2101.79,-10.75 2157.72,-10.06"/>
<polygon fill="#63b8ff" stroke="#63b8ff" points="2157.89,-13.56 2167.87,-9.99 2157.85,-6.56 2157.89,-13.56"/>
</g>
<!-- Node40 -->
<g id="node40" class="node">
<title>Node40</title>
<g id="a_node40"><a xlink:href="Ioss__ElementTopology_8h.html" target="_top" xlink:title=" ">
<polygon fill="white" stroke="#666666" points="1456,-184 1334,-184 1334,-165 1456,-165 1456,-184"/>
<text text-anchor="middle" x="1395" y="-172" font-family="Helvetica,sans-Serif" font-size="10.00">Ioss_ElementTopology.h</text>
</a>
</g>
</g>
<!-- Node39&#45;&gt;Node40 -->
<g id="edge65" class="edge">
<title>Node39&#45;&gt;Node40</title>
<path fill="none" stroke="#63b8ff" d="M1643.3,-222C1595.26,-213 1507.97,-196.66 1450.73,-185.94"/>
<polygon fill="#63b8ff" stroke="#63b8ff" points="1451.24,-182.47 1440.76,-184.07 1449.95,-189.35 1451.24,-182.47"/>
</g>
<!-- Node39&#45;&gt;Node44 -->
<g id="edge79" class="edge">
<title>Node39&#45;&gt;Node44</title>
<path fill="none" stroke="#63b8ff" d="M1643.49,-227.12C1537.16,-222.67 1215.66,-207.57 1114,-184 1091.65,-178.82 1088.31,-170.35 1066,-165 899.3,-125.06 852.64,-145.33 682,-129 668.4,-127.7 653.6,-126.26 640.13,-124.94"/>
<polygon fill="#63b8ff" stroke="#63b8ff" points="640.43,-121.46 630.13,-123.96 639.74,-128.42 640.43,-121.46"/>
</g>
<!-- Node39&#45;&gt;Node45 -->
<g id="edge84" class="edge">
<title>Node39&#45;&gt;Node45</title>
<path fill="none" stroke="#63b8ff" d="M1712.53,-221.48C1715.73,-220.94 1718.92,-220.43 1722,-220 1885.31,-197.05 2080.27,-183.77 2171.75,-178.36"/>
<polygon fill="#63b8ff" stroke="#63b8ff" points="2172.07,-181.85 2181.85,-177.77 2171.67,-174.86 2172.07,-181.85"/>
</g>
<!-- Node46 -->
<g id="node46" class="node">
<title>Node46</title>
<g id="a_node46"><a xlink:href="Ioss__Sort_8h.html" target="_top" xlink:title=" ">
<polygon fill="white" stroke="#666666" points="1731.5,-184 1664.5,-184 1664.5,-165 1731.5,-165 1731.5,-184"/>
<text text-anchor="middle" x="1698" y="-172" font-family="Helvetica,sans-Serif" font-size="10.00">Ioss_Sort.h</text>
</a>
</g>
</g>
<!-- Node39&#45;&gt;Node46 -->
<g id="edge88" class="edge">
<title>Node39&#45;&gt;Node46</title>
<path fill="none" stroke="#63b8ff" d="M1681.3,-219.75C1683.98,-212.65 1687.85,-202.4 1691.19,-193.56"/>
<polygon fill="#63b8ff" stroke="#63b8ff" points="1694.5,-194.68 1694.76,-184.09 1687.95,-192.21 1694.5,-194.68"/>
</g>
<!-- Node48 -->
<g id="node48" class="node">
<title>Node48</title>
<g id="a_node48"><a xlink:title=" ">
<polygon fill="#e0e0e0" stroke="#999999" points="1201.5,-184 1156.5,-184 1156.5,-165 1201.5,-165 1201.5,-184"/>
<text text-anchor="middle" x="1179" y="-172" font-family="Helvetica,sans-Serif" font-size="10.00">cstdlib</text>
</a>
</g>
</g>
<!-- Node39&#45;&gt;Node48 -->
<g id="edge102" class="edge">
<title>Node39&#45;&gt;Node48</title>
<path fill="none" stroke="#63b8ff" d="M1643.29,-225.09C1627.36,-223.54 1608.22,-221.67 1591,-220 1424.35,-203.86 1381.27,-210.8 1216,-184 1214.54,-183.76 1213.04,-183.5 1211.54,-183.22"/>
<polygon fill="#63b8ff" stroke="#63b8ff" points="1212.11,-179.77 1201.61,-181.18 1210.7,-186.62 1212.11,-179.77"/>
</g>
<!-- Node40&#45;&gt;Node4 -->
<g id="edge66" class="edge">
<title>Node40&#45;&gt;Node4</title>
<path fill="none" stroke="#63b8ff" d="M1344.87,-164.99C1299.27,-156.9 1230.24,-143.8 1171,-129 1108.7,-113.43 1037.37,-90.83 995.93,-77.21"/>
<polygon fill="#63b8ff" stroke="#63b8ff" points="996.91,-73.84 986.31,-74.03 994.71,-80.49 996.91,-73.84"/>
</g>
<!-- Node40&#45;&gt;Node8 -->
<g id="edge76" class="edge">
<title>Node40&#45;&gt;Node8</title>
<path fill="none" stroke="#63b8ff" d="M1337.99,-164.98C1278.93,-156.12 1183.98,-141.78 1102,-129 826.28,-86.02 493.2,-32 391.77,-15.51"/>
<polygon fill="#63b8ff" stroke="#63b8ff" points="392.05,-12.01 381.62,-13.86 390.93,-18.92 392.05,-12.01"/>
</g>
<!-- Node40&#45;&gt;Node9 -->
<g id="edge77" class="edge">
<title>Node40&#45;&gt;Node9</title>
<path fill="none" stroke="#63b8ff" d="M1418.04,-164.85C1437.73,-156.95 1466.36,-144.2 1489,-129 1529.49,-101.82 1526.5,-77.02 1570,-55 1632.61,-23.31 1715.78,-14.17 1760.78,-11.55"/>
<polygon fill="#63b8ff" stroke="#63b8ff" points="1761.03,-15.04 1770.84,-11.03 1760.67,-8.05 1761.03,-15.04"/>
</g>
<!-- Node40&#45;&gt;Node22 -->
<g id="edge74" class="edge">
<title>Node40&#45;&gt;Node22</title>
<path fill="none" stroke="#63b8ff" d="M1440.76,-164.94C1555.37,-143.48 1852.14,-87.93 1944.29,-70.69"/>
<polygon fill="#63b8ff" stroke="#63b8ff" points="1945.06,-74.1 1954.25,-68.82 1943.78,-67.22 1945.06,-74.1"/>
</g>
<!-- Node41 -->
<g id="node41" class="node">
<title>Node41</title>
<g id="a_node41"><a xlink:href="Ioss__ElementPermutation_8h.html" target="_top" xlink:title=" ">
<polygon fill="white" stroke="#666666" points="1479.5,-129 1342.5,-129 1342.5,-110 1479.5,-110 1479.5,-129"/>
<text text-anchor="middle" x="1411" y="-117" font-family="Helvetica,sans-Serif" font-size="10.00">Ioss_ElementPermutation.h</text>
</a>
</g>
</g>
<!-- Node40&#45;&gt;Node41 -->
<g id="edge67" class="edge">
<title>Node40&#45;&gt;Node41</title>
<path fill="none" stroke="#63b8ff" d="M1397.64,-164.75C1399.76,-157.72 1402.81,-147.62 1405.46,-138.84"/>
<polygon fill="#63b8ff" stroke="#63b8ff" points="1408.87,-139.67 1408.41,-129.09 1402.17,-137.65 1408.87,-139.67"/>
</g>
<!-- Node43 -->
<g id="node43" class="node">
<title>Node43</title>
<g id="a_node43"><a xlink:title=" ">
<polygon fill="#e0e0e0" stroke="#999999" points="1210,-129 1180,-129 1180,-110 1210,-110 1210,-129"/>
<text text-anchor="middle" x="1195" y="-117" font-family="Helvetica,sans-Serif" font-size="10.00">set</text>
</a>
</g>
</g>
<!-- Node40&#45;&gt;Node43 -->
<g id="edge75" class="edge">
<title>Node40&#45;&gt;Node43</title>
<path fill="none" stroke="#63b8ff" d="M1360.85,-164.94C1326.28,-156.2 1271.31,-142.08 1224,-129 1222.58,-128.61 1221.12,-128.2 1219.65,-127.78"/>
<polygon fill="#63b8ff" stroke="#63b8ff" points="1220.61,-124.41 1210.03,-125 1218.66,-131.14 1220.61,-124.41"/>
</g>
<!-- Node41&#45;&gt;Node4 -->
<g id="edge68" class="edge">
<title>Node41&#45;&gt;Node4</title>
<path fill="none" stroke="#63b8ff" d="M1342.16,-110.39C1254.12,-100.02 1103.14,-82.24 1020.07,-72.46"/>
<polygon fill="#63b8ff" stroke="#63b8ff" points="1020.38,-68.97 1010.04,-71.28 1019.57,-75.92 1020.38,-68.97"/>
</g>
<!-- Node41&#45;&gt;Node8 -->
<g id="edge72" class="edge">
<title>Node41&#45;&gt;Node8</title>
<path fill="none" stroke="#63b8ff" d="M1403.33,-109.91C1389.79,-95.45 1360.05,-66.68 1328,-55 1238.37,-22.33 547.07,-12.61 391.86,-10.83"/>
<polygon fill="#63b8ff" stroke="#63b8ff" points="391.67,-7.32 381.63,-10.71 391.59,-14.32 391.67,-7.32"/>
</g>
<!-- Node41&#45;&gt;Node9 -->
<g id="edge73" class="edge">
<title>Node41&#45;&gt;Node9</title>
<path fill="none" stroke="#63b8ff" d="M1424.17,-109.8C1445.75,-95.96 1490.42,-69.06 1532,-55 1611.51,-28.11 1710.39,-16.94 1760.55,-12.75"/>
<polygon fill="#63b8ff" stroke="#63b8ff" points="1761.08,-16.21 1770.77,-11.93 1760.53,-9.24 1761.08,-16.21"/>
</g>
<!-- Node41&#45;&gt;Node22 -->
<g id="edge71" class="edge">
<title>Node41&#45;&gt;Node22</title>
<path fill="none" stroke="#63b8ff" d="M1479.51,-112.03C1603.28,-100.33 1859.18,-76.16 1944,-68.15"/>
<polygon fill="#63b8ff" stroke="#63b8ff" points="1944.52,-71.61 1954.14,-67.19 1943.86,-64.64 1944.52,-71.61"/>
</g>
<!-- Node41&#45;&gt;Node31 -->
<g id="edge70" class="edge">
<title>Node41&#45;&gt;Node31</title>
<path fill="none" stroke="#63b8ff" d="M1479.89,-114.36C1589.8,-107.52 1811.56,-92.72 1999,-74 2067.18,-67.19 2083.75,-61.12 2152,-55 2452.15,-28.07 2817.05,-14.89 2923.5,-11.44"/>
<polygon fill="#63b8ff" stroke="#63b8ff" points="2923.94,-14.93 2933.82,-11.11 2923.71,-7.93 2923.94,-14.93"/>
</g>
<!-- Node42 -->
<g id="node42" class="node">
<title>Node42</title>
<g id="a_node42"><a xlink:title=" ">
<polygon fill="#e0e0e0" stroke="#999999" points="1437,-74 1385,-74 1385,-55 1437,-55 1437,-74"/>
<text text-anchor="middle" x="1411" y="-62" font-family="Helvetica,sans-Serif" font-size="10.00">assert.h</text>
</a>
</g>
</g>
<!-- Node41&#45;&gt;Node42 -->
<g id="edge69" class="edge">
<title>Node41&#45;&gt;Node42</title>
<path fill="none" stroke="#63b8ff" d="M1411,-109.75C1411,-102.8 1411,-92.85 1411,-84.13"/>
<polygon fill="#63b8ff" stroke="#63b8ff" points="1414.5,-84.09 1411,-74.09 1407.5,-84.09 1414.5,-84.09"/>
</g>
<!-- Node44&#45;&gt;Node4 -->
<g id="edge80" class="edge">
<title>Node44&#45;&gt;Node4</title>
<path fill="none" stroke="#63b8ff" d="M630.04,-112.28C634.73,-111.49 639.48,-110.71 644,-110 733.58,-95.95 837.75,-81.73 901.52,-73.27"/>
<polygon fill="#63b8ff" stroke="#63b8ff" points="902.33,-76.69 911.78,-71.91 901.41,-69.75 902.33,-76.69"/>
</g>
<!-- Node44&#45;&gt;Node6 -->
<g id="edge81" class="edge">
<title>Node44&#45;&gt;Node6</title>
<path fill="none" stroke="#63b8ff" d="M617.45,-109.99C654.09,-96.42 729.27,-69.89 795,-55 908.35,-29.32 938.91,-35.15 1054,-19 1062.2,-17.85 1071.04,-16.6 1079.34,-15.43"/>
<polygon fill="#63b8ff" stroke="#63b8ff" points="1080.07,-18.86 1089.48,-13.99 1079.09,-11.93 1080.07,-18.86"/>
</g>
<!-- Node44&#45;&gt;Node8 -->
<g id="edge82" class="edge">
<title>Node44&#45;&gt;Node8</title>
<path fill="none" stroke="#63b8ff" d="M576.25,-109.84C535.15,-90.88 437,-45.58 388.75,-23.31"/>
<polygon fill="#63b8ff" stroke="#63b8ff" points="390.06,-20.06 379.52,-19.05 387.13,-26.42 390.06,-20.06"/>
</g>
<!-- Node44&#45;&gt;Node9 -->
<g id="edge83" class="edge">
<title>Node44&#45;&gt;Node9</title>
<path fill="none" stroke="#63b8ff" d="M627.99,-109.96C684.06,-95.83 801.72,-67.89 903,-55 1236.36,-12.56 1644.78,-10.1 1760.87,-10.33"/>
<polygon fill="#63b8ff" stroke="#63b8ff" points="1760.86,-13.83 1770.87,-10.36 1760.88,-6.83 1760.86,-13.83"/>
</g>
<!-- Node45&#45;&gt;Node7 -->
<g id="edge85" class="edge">
<title>Node45&#45;&gt;Node7</title>
<path fill="none" stroke="#63b8ff" d="M2266.09,-171.27C2413.67,-163.39 2900.5,-136.93 2933,-129 2953.3,-124.05 2955.84,-115.48 2976,-110 3110.7,-73.38 3151.13,-101.4 3288,-74 3317.93,-68.01 3324.08,-61.05 3354,-55 3478.16,-29.91 3628.57,-17.31 3694.41,-12.67"/>
<polygon fill="#63b8ff" stroke="#63b8ff" points="3694.86,-16.14 3704.6,-11.96 3694.38,-9.16 3694.86,-16.14"/>
</g>
<!-- Node45&#45;&gt;Node8 -->
<g id="edge86" class="edge">
<title>Node45&#45;&gt;Node8</title>
<path fill="none" stroke="#63b8ff" d="M2181.77,-172.4C2028.36,-168.25 1500.88,-152.58 1334,-129 1191.6,-108.88 1161.22,-76.37 1019,-55 779.39,-19 486.29,-12.11 391.86,-10.8"/>
<polygon fill="#63b8ff" stroke="#63b8ff" points="391.64,-7.3 381.6,-10.67 391.55,-14.3 391.64,-7.3"/>
</g>
<!-- Node45&#45;&gt;Node9 -->
<g id="edge87" class="edge">
<title>Node45&#45;&gt;Node9</title>
<path fill="none" stroke="#63b8ff" d="M2212.04,-164.95C2194.39,-152.44 2160.17,-128.61 2130,-110 2087.49,-83.78 2078.96,-72.02 2032,-55 1960.77,-29.18 1871.91,-17.69 1825.18,-13.13"/>
<polygon fill="#63b8ff" stroke="#63b8ff" points="1825.33,-9.63 1815.05,-12.19 1824.68,-16.6 1825.33,-9.63"/>
</g>
<!-- Node46&#45;&gt;Node6 -->
<g id="edge95" class="edge">
<title>Node46&#45;&gt;Node6</title>
<path fill="none" stroke="#63b8ff" d="M1664.35,-171.97C1585.79,-167.99 1392.58,-155.72 1334,-129 1289.34,-108.63 1294.53,-79.52 1252,-55 1219.37,-36.19 1177.74,-24.16 1148.78,-17.42"/>
<polygon fill="#63b8ff" stroke="#63b8ff" points="1149.24,-13.94 1138.72,-15.17 1147.72,-20.77 1149.24,-13.94"/>
</g>
<!-- Node46&#45;&gt;Node9 -->
<g id="edge96" class="edge">
<title>Node46&#45;&gt;Node9</title>
<path fill="none" stroke="#63b8ff" d="M1697.54,-164.87C1696.87,-144.02 1697.75,-90.04 1722,-55 1731.78,-40.87 1747.65,-30.3 1761.91,-23.02"/>
<polygon fill="#63b8ff" stroke="#63b8ff" points="1763.44,-26.17 1770.97,-18.71 1760.43,-19.85 1763.44,-26.17"/>
</g>
<!-- Node47 -->
<g id="node47" class="node">
<title>Node47</title>
<g id="a_node47"><a xlink:href="pdqsort_8h.html" target="_top" xlink:title=" ">
<polygon fill="white" stroke="#666666" points="2505.5,-129 2448.5,-129 2448.5,-110 2505.5,-110 2505.5,-129"/>
<text text-anchor="middle" x="2477" y="-117" font-family="Helvetica,sans-Serif" font-size="10.00">pdqsort.h</text>
</a>
</g>
</g>
<!-- Node46&#45;&gt;Node47 -->
<g id="edge89" class="edge">
<title>Node46&#45;&gt;Node47</title>
<path fill="none" stroke="#63b8ff" d="M1731.72,-171.21C1858.11,-162.61 2303.32,-132.32 2438.07,-123.15"/>
<polygon fill="#63b8ff" stroke="#63b8ff" points="2438.58,-126.62 2448.32,-122.45 2438.11,-119.64 2438.58,-126.62"/>
</g>
<!-- Node47&#45;&gt;Node6 -->
<g id="edge91" class="edge">
<title>Node47&#45;&gt;Node6</title>
<path fill="none" stroke="#63b8ff" d="M2451.08,-109.96C2402.44,-94.09 2299.06,-61.09 2262,-55 2039.81,-18.47 1316.5,-11.76 1148.9,-10.69"/>
<polygon fill="#63b8ff" stroke="#63b8ff" points="1148.7,-7.19 1138.67,-10.62 1148.65,-14.19 1148.7,-7.19"/>
</g>
<!-- Node47&#45;&gt;Node19 -->
<g id="edge90" class="edge">
<title>Node47&#45;&gt;Node19</title>
<path fill="none" stroke="#63b8ff" d="M2448.27,-112.63C2413.99,-104.98 2359.83,-90.59 2348,-74 2338.4,-60.54 2344.37,-41.7 2351.23,-28.04"/>
<polygon fill="#63b8ff" stroke="#63b8ff" points="2354.37,-29.6 2356.18,-19.16 2348.25,-26.19 2354.37,-29.6"/>
</g>
<!-- Node47&#45;&gt;Node20 -->
<g id="edge92" class="edge">
<title>Node47&#45;&gt;Node20</title>
<path fill="none" stroke="#63b8ff" d="M2448.43,-113.22C2396.94,-103.71 2288.46,-83.68 2229.75,-72.84"/>
<polygon fill="#63b8ff" stroke="#63b8ff" points="2230.21,-69.37 2219.74,-70.99 2228.94,-76.25 2230.21,-69.37"/>
</g>
<!-- Node47&#45;&gt;Node25 -->
<g id="edge94" class="edge">
<title>Node47&#45;&gt;Node25</title>
<path fill="none" stroke="#63b8ff" d="M2466.24,-109.98C2456.23,-102.07 2441.11,-90.11 2429.07,-80.58"/>
<polygon fill="#63b8ff" stroke="#63b8ff" points="2430.97,-77.63 2420.96,-74.17 2426.63,-83.12 2430.97,-77.63"/>
</g>
<!-- Node47&#45;&gt;Node30 -->
<g id="edge93" class="edge">
<title>Node47&#45;&gt;Node30</title>
<path fill="none" stroke="#63b8ff" d="M2505.71,-117.44C2628.03,-112.78 3100.47,-93.6 3125,-74 3138.19,-63.46 3142.5,-44.13 3143.78,-29.56"/>
<polygon fill="#63b8ff" stroke="#63b8ff" points="3147.3,-29.3 3144.27,-19.15 3140.3,-28.98 3147.3,-29.3"/>
</g>
<!-- Node49&#45;&gt;Node4 -->
<g id="edge112" class="edge">
<title>Node49&#45;&gt;Node4</title>
<path fill="none" stroke="#63b8ff" d="M842.77,-220C842.64,-198.97 845.05,-143.77 872,-110 883.98,-94.99 902.34,-84.62 919.28,-77.7"/>
<polygon fill="#63b8ff" stroke="#63b8ff" points="920.92,-80.82 929.03,-74.01 918.44,-74.27 920.92,-80.82"/>
</g>
<!-- Node49&#45;&gt;Node6 -->
<g id="edge114" class="edge">
<title>Node49&#45;&gt;Node6</title>
<path fill="none" stroke="#63b8ff" d="M841.83,-219.83C840.38,-207.56 838.39,-184.46 841,-165 848.45,-109.38 854.74,-83.65 903,-55 918.01,-46.09 1023.11,-26.55 1079.09,-16.59"/>
<polygon fill="#63b8ff" stroke="#63b8ff" points="1080.03,-19.98 1089.27,-14.79 1078.81,-13.09 1080.03,-19.98"/>
</g>
<!-- Node49&#45;&gt;Node8 -->
<g id="edge115" class="edge">
<title>Node49&#45;&gt;Node8</title>
<path fill="none" stroke="#63b8ff" d="M835.64,-219.72C823.16,-205.5 796.32,-177.76 767,-165 649.12,-113.71 599.59,-176.16 480,-129 441.21,-113.7 433.02,-103.94 404,-74 390.58,-60.15 378.58,-41.65 370.69,-28.19"/>
<polygon fill="#63b8ff" stroke="#63b8ff" points="373.69,-26.38 365.71,-19.42 367.6,-29.84 373.69,-26.38"/>
</g>
<!-- Node49&#45;&gt;Node9 -->
<g id="edge117" class="edge">
<title>Node49&#45;&gt;Node9</title>
<path fill="none" stroke="#63b8ff" d="M904.14,-228.31C1039.99,-227.21 1363,-220.69 1465,-184 1557.95,-150.56 1557.33,-98.55 1646,-55 1683.57,-36.54 1730.34,-23.99 1760.9,-17.04"/>
<polygon fill="#63b8ff" stroke="#63b8ff" points="1761.98,-20.38 1770.99,-14.81 1760.48,-13.55 1761.98,-20.38"/>
</g>
<!-- Node49&#45;&gt;Node45 -->
<g id="edge113" class="edge">
<title>Node49&#45;&gt;Node45</title>
<path fill="none" stroke="#63b8ff" d="M904.12,-226.15C1135.62,-217.27 1956.35,-185.77 2171.86,-177.5"/>
<polygon fill="#63b8ff" stroke="#63b8ff" points="2172.1,-180.99 2181.95,-177.11 2171.83,-174 2172.1,-180.99"/>
</g>
<!-- Node50 -->
<g id="node50" class="node">
<title>Node50</title>
<g id="a_node50"><a xlink:title=" ">
<polygon fill="#e0e0e0" stroke="#999999" points="757.5,-184 674.5,-184 674.5,-165 757.5,-165 757.5,-184"/>
<text text-anchor="middle" x="716" y="-172" font-family="Helvetica,sans-Serif" font-size="10.00">unordered_map</text>
</a>
</g>
</g>
<!-- Node49&#45;&gt;Node50 -->
<g id="edge116" class="edge">
<title>Node49&#45;&gt;Node50</title>
<path fill="none" stroke="#63b8ff" d="M822.6,-219.98C801.98,-211.38 769.89,-197.99 746.31,-188.15"/>
<polygon fill="#63b8ff" stroke="#63b8ff" points="747.35,-184.79 736.78,-184.17 744.66,-191.25 747.35,-184.79"/>
</g>
<!-- Node54&#45;&gt;Node4 -->
<g id="edge130" class="edge">
<title>Node54&#45;&gt;Node4</title>
<path fill="none" stroke="#63b8ff" d="M710.25,-274.86C688.38,-254.43 639.36,-202.1 666,-165 694.4,-125.45 828.93,-92.29 906.15,-76.11"/>
<polygon fill="#63b8ff" stroke="#63b8ff" points="907.1,-79.49 916.19,-74.04 905.69,-72.63 907.1,-79.49"/>
</g>
<!-- Node54&#45;&gt;Node6 -->
<g id="edge133" class="edge">
<title>Node54&#45;&gt;Node6</title>
<path fill="none" stroke="#63b8ff" d="M698.96,-274.93C643.2,-251.01 499.37,-180.6 551,-110 574.81,-77.44 684.53,-63.34 724,-55 868.35,-24.5 907.61,-37.35 1054,-19 1062.15,-17.98 1070.9,-16.79 1079.14,-15.63"/>
<polygon fill="#63b8ff" stroke="#63b8ff" points="1079.81,-19.07 1089.21,-14.19 1078.82,-12.14 1079.81,-19.07"/>
</g>
<!-- Node54&#45;&gt;Node8 -->
<g id="edge135" class="edge">
<title>Node54&#45;&gt;Node8</title>
<path fill="none" stroke="#63b8ff" d="M666.26,-282.24C608.75,-279.25 515.84,-269.57 442,-239 364.95,-207.1 327.93,-203.27 290,-129 275.04,-99.71 274.07,-83.78 290,-55 298.73,-39.23 315.63,-28.31 330.75,-21.23"/>
<polygon fill="#63b8ff" stroke="#63b8ff" points="332.52,-24.28 340.33,-17.12 329.76,-17.84 332.52,-24.28"/>
</g>
<!-- Node54&#45;&gt;Node9 -->
<g id="edge137" class="edge">
<title>Node54&#45;&gt;Node9</title>
<path fill="none" stroke="#63b8ff" d="M773.67,-284.33C902.55,-284.7 1238.05,-275.98 1498,-184 1600.91,-147.59 1612.01,-108.79 1707,-55 1726.44,-43.99 1748.88,-32.42 1765.96,-23.83"/>
<polygon fill="#63b8ff" stroke="#63b8ff" points="1767.95,-26.75 1775.33,-19.15 1764.82,-20.49 1767.95,-26.75"/>
</g>
<!-- Node54&#45;&gt;Node20 -->
<g id="edge134" class="edge">
<title>Node54&#45;&gt;Node20</title>
<path fill="none" stroke="#63b8ff" d="M773.85,-283.87C902.66,-284.01 1238.44,-280.04 1515,-239 1617.26,-223.83 1640.8,-209.41 1741,-184 1892.63,-145.54 2072.36,-97.31 2150.47,-76.21"/>
<polygon fill="#63b8ff" stroke="#63b8ff" points="2151.63,-79.52 2160.37,-73.53 2149.8,-72.76 2151.63,-79.52"/>
</g>
<!-- Node54&#45;&gt;Node39 -->
<g id="edge132" class="edge">
<title>Node54&#45;&gt;Node39</title>
<path fill="none" stroke="#63b8ff" d="M773.61,-280.91C905.97,-274.44 1258.82,-256.86 1553,-239 1579.57,-237.39 1609.31,-235.37 1633.11,-233.71"/>
<polygon fill="#63b8ff" stroke="#63b8ff" points="1633.52,-237.19 1643.25,-233 1633.03,-230.21 1633.52,-237.19"/>
</g>
<!-- Node54&#45;&gt;Node44 -->
<g id="edge131" class="edge">
<title>Node54&#45;&gt;Node44</title>
<path fill="none" stroke="#63b8ff" d="M711.37,-274.94C694.85,-258.31 658.07,-220.07 632,-184 621.28,-169.17 610.96,-151.02 603.95,-137.93"/>
<polygon fill="#63b8ff" stroke="#63b8ff" points="607.03,-136.27 599.29,-129.05 600.84,-139.53 607.03,-136.27"/>
</g>
<!-- Node54&#45;&gt;Node50 -->
<g id="edge136" class="edge">
<title>Node54&#45;&gt;Node50</title>
<path fill="none" stroke="#63b8ff" d="M719.67,-274.66C719.02,-257.17 717.57,-217.8 716.7,-194.27"/>
<polygon fill="#63b8ff" stroke="#63b8ff" points="720.19,-194.02 716.32,-184.16 713.19,-194.28 720.19,-194.02"/>
</g>
<!-- Node55&#45;&gt;Node4 -->
<g id="edge142" class="edge">
<title>Node55&#45;&gt;Node4</title>
<path fill="none" stroke="#63b8ff" d="M1825.97,-278.16C1663.69,-261.32 1173.54,-208.96 1106,-184 1049.04,-162.95 998.01,-109.53 974.58,-82.19"/>
<polygon fill="#63b8ff" stroke="#63b8ff" points="977.07,-79.72 967.97,-74.3 971.71,-84.21 977.07,-79.72"/>
</g>
<!-- Node55&#45;&gt;Node8 -->
<g id="edge147" class="edge">
<title>Node55&#45;&gt;Node8</title>
<path fill="none" stroke="#63b8ff" d="M1825.89,-278.53C1810.77,-277.23 1794.24,-275.93 1779,-275 1555.71,-261.43 993.67,-275.66 773,-239 606.28,-211.3 544.96,-229.39 409,-129 385.3,-111.5 382.98,-101.34 372,-74 366.2,-59.55 363.45,-42.03 362.16,-29.06"/>
<polygon fill="#63b8ff" stroke="#63b8ff" points="365.64,-28.71 361.35,-19.03 358.66,-29.27 365.64,-28.71"/>
</g>
<!-- Node55&#45;&gt;Node9 -->
<g id="edge148" class="edge">
<title>Node55&#45;&gt;Node9</title>
<path fill="none" stroke="#63b8ff" d="M1885.58,-274.87C1892.77,-266.3 1903.42,-252.52 1910,-239 1924.73,-208.75 1932.87,-197.94 1926,-165 1920.55,-138.89 1917.52,-131.69 1902,-110 1876.88,-74.9 1837.61,-42.9 1813.7,-25.13"/>
<polygon fill="#63b8ff" stroke="#63b8ff" points="1815.49,-22.1 1805.35,-19.04 1811.37,-27.76 1815.49,-22.1"/>
</g>
<!-- Node55&#45;&gt;Node20 -->
<g id="edge145" class="edge">
<title>Node55&#45;&gt;Node20</title>
<path fill="none" stroke="#63b8ff" d="M1896.41,-274.99C1913.97,-266.61 1940.95,-253.06 1963,-239 2045.1,-186.67 2134.74,-112.6 2172.1,-80.88"/>
<polygon fill="#63b8ff" stroke="#63b8ff" points="2174.71,-83.26 2180.05,-74.11 2170.17,-77.93 2174.71,-83.26"/>
</g>
<!-- Node55&#45;&gt;Node22 -->
<g id="edge146" class="edge">
<title>Node55&#45;&gt;Node22</title>
<path fill="none" stroke="#63b8ff" d="M1896.25,-274.91C1910.7,-267.28 1930.47,-254.89 1943,-239 1979.78,-192.35 1981.98,-169.27 1978,-110 1977.43,-101.54 1976.26,-92.24 1975.11,-84.34"/>
<polygon fill="#63b8ff" stroke="#63b8ff" points="1978.55,-83.67 1973.55,-74.33 1971.63,-84.75 1978.55,-83.67"/>
</g>
<!-- Node55&#45;&gt;Node39 -->
<g id="edge143" class="edge">
<title>Node55&#45;&gt;Node39</title>
<path fill="none" stroke="#63b8ff" d="M1845.87,-274.98C1811.85,-265.97 1758,-251.7 1720.5,-241.76"/>
<polygon fill="#63b8ff" stroke="#63b8ff" points="1720.95,-238.26 1710.39,-239.08 1719.16,-245.03 1720.95,-238.26"/>
</g>
<!-- Node56 -->
<g id="node56" class="node">
<title>Node56</title>
<g id="a_node56"><a xlink:title=" ">
<polygon fill="#e0e0e0" stroke="#999999" points="1901,-239 1855,-239 1855,-220 1901,-220 1901,-239"/>
<text text-anchor="middle" x="1878" y="-227" font-family="Helvetica,sans-Serif" font-size="10.00">cstring</text>
</a>
</g>
</g>
<!-- Node55&#45;&gt;Node56 -->
<g id="edge144" class="edge">
<title>Node55&#45;&gt;Node56</title>
<path fill="none" stroke="#63b8ff" d="M1878,-274.75C1878,-267.8 1878,-257.85 1878,-249.13"/>
<polygon fill="#63b8ff" stroke="#63b8ff" points="1881.5,-249.09 1878,-239.09 1874.5,-249.09 1881.5,-249.09"/>
</g>
<!-- Node57&#45;&gt;Node3 -->
<g id="edge162" class="edge">
<title>Node57&#45;&gt;Node3</title>
<path fill="none" stroke="#63b8ff" d="M2729.92,-448.07C2494.38,-445.44 1287.9,-430.84 918,-404 916.73,-403.91 915.45,-403.81 914.15,-403.7"/>
<polygon fill="#63b8ff" stroke="#63b8ff" points="914.39,-400.21 904.12,-402.8 913.76,-407.18 914.39,-400.21"/>
</g>
<!-- Node57&#45;&gt;Node6 -->
<g id="edge166" class="edge">
<title>Node57&#45;&gt;Node6</title>
<path fill="none" stroke="#63b8ff" d="M2729.9,-448.31C2461.11,-446.75 932,-433.8 932,-340.5 932,-340.5 932,-340.5 932,-283.5 932,-163.01 1370.7,-259.01 1465,-184 1485.87,-167.4 1483.55,-155.11 1489,-129 1496.77,-91.76 1479.01,-73.91 1446,-55 1395.86,-26.28 1223.5,-15.33 1148.89,-11.87"/>
<polygon fill="#63b8ff" stroke="#63b8ff" points="1148.76,-8.36 1138.62,-11.41 1148.45,-15.36 1148.76,-8.36"/>
</g>
<!-- Node57&#45;&gt;Node7 -->
<g id="edge167" class="edge">
<title>Node57&#45;&gt;Node7</title>
<path fill="none" stroke="#63b8ff" d="M2810.13,-448.11C2947.49,-446.49 3397.97,-438.6 3538,-404 3747.44,-352.25 3856.57,-286.47 3894,-74 3895.47,-65.68 3899.14,-61.7 3894,-55 3877.98,-34.11 3805.18,-20.88 3761.48,-14.67"/>
<polygon fill="#63b8ff" stroke="#63b8ff" points="3761.7,-11.17 3751.32,-13.28 3760.75,-18.1 3761.7,-11.17"/>
</g>
<!-- Node57&#45;&gt;Node8 -->
<g id="edge171" class="edge">
<title>Node57&#45;&gt;Node8</title>
<path fill="none" stroke="#63b8ff" d="M2729.83,-448.23C2484.08,-446.51 1181.11,-436 783,-404 469.81,-378.83 114,-489.7 114,-175.5 114,-175.5 114,-175.5 114,-118.5 114,-25.18 263.85,-11.71 330.12,-10.32"/>
<polygon fill="#63b8ff" stroke="#63b8ff" points="330.41,-13.81 340.37,-10.19 330.32,-6.82 330.41,-13.81"/>
</g>
<!-- Node57&#45;&gt;Node9 -->
<g id="edge173" class="edge">
<title>Node57&#45;&gt;Node9</title>
<path fill="none" stroke="#63b8ff" d="M2810.17,-448.61C2880.84,-446.48 3020,-430.8 3020,-340.5 3020,-340.5 3020,-340.5 3020,-228.5 3020,-185.16 2984.33,-185.23 2946,-165 2928.76,-155.9 2625.23,-80.92 2607,-74 2589.35,-67.3 2587.25,-59.84 2569,-55 2428.75,-17.78 2061.83,-27.96 1917,-19 1885.91,-17.08 1850.44,-14.62 1825.43,-12.84"/>
<polygon fill="#63b8ff" stroke="#63b8ff" points="1825.62,-9.35 1815.4,-12.12 1825.12,-16.33 1825.62,-9.35"/>
</g>
<!-- Node57&#45;&gt;Node12 -->
<g id="edge160" class="edge">
<title>Node57&#45;&gt;Node12</title>
<path fill="none" stroke="#63b8ff" d="M2729.89,-444.81C2555.86,-428.82 1865.43,-365.36 1655.72,-346.08"/>
<polygon fill="#63b8ff" stroke="#63b8ff" points="1655.8,-342.57 1645.52,-345.14 1655.16,-349.54 1655.8,-342.57"/>
</g>
<!-- Node57&#45;&gt;Node16 -->
<g id="edge161" class="edge">
<title>Node57&#45;&gt;Node16</title>
<path fill="none" stroke="#63b8ff" d="M2810.1,-448.62C2844.62,-446.32 2892.61,-436.87 2917,-404 2965.9,-338.11 2906.95,-233.71 2880.04,-192.78"/>
<polygon fill="#63b8ff" stroke="#63b8ff" points="2882.9,-190.75 2874.4,-184.41 2877.09,-194.66 2882.9,-190.75"/>
</g>
<!-- Node57&#45;&gt;Node20 -->
<g id="edge168" class="edge">
<title>Node57&#45;&gt;Node20</title>
<path fill="none" stroke="#63b8ff" d="M2747.07,-439.95C2726.34,-431.83 2695.29,-418.72 2670,-404 2515.35,-313.99 2493.52,-266.28 2346,-165 2299.68,-133.2 2243.83,-98.41 2213.1,-79.55"/>
<polygon fill="#63b8ff" stroke="#63b8ff" points="2214.76,-76.47 2204.41,-74.24 2211.11,-82.44 2214.76,-76.47"/>
</g>
<!-- Node57&#45;&gt;Node22 -->
<g id="edge170" class="edge">
<title>Node57&#45;&gt;Node22</title>
<path fill="none" stroke="#63b8ff" d="M2748.57,-439.88C2728.06,-431.42 2696.44,-417.81 2670,-404 2488.13,-308.99 2461.45,-250.67 2275,-165 2177.37,-120.14 2053.64,-86.11 1999.48,-72.28"/>
<polygon fill="#63b8ff" stroke="#63b8ff" points="2000.16,-68.84 1989.61,-69.78 1998.44,-75.62 2000.16,-68.84"/>
</g>
<!-- Node57&#45;&gt;Node25 -->
<g id="edge172" class="edge">
<title>Node57&#45;&gt;Node25</title>
<path fill="none" stroke="#63b8ff" d="M2810.27,-448.56C2847.65,-446.39 2902.3,-437.17 2935,-404 2990.67,-347.54 2938.89,-179.19 2925,-165 2891.12,-130.38 2757.62,-137.91 2710,-129 2591.33,-106.81 2561.7,-100.87 2444,-74 2442.73,-73.71 2441.44,-73.41 2440.13,-73.1"/>
<polygon fill="#63b8ff" stroke="#63b8ff" points="2440.65,-69.63 2430.1,-70.67 2439,-76.43 2440.65,-69.63"/>
</g>
<!-- Node57&#45;&gt;Node45 -->
<g id="edge164" class="edge">
<title>Node57&#45;&gt;Node45</title>
<path fill="none" stroke="#63b8ff" d="M2803.73,-439.96C2837.13,-429.82 2880.78,-410.94 2862,-385 2791.04,-287.01 2415.76,-210.2 2276.27,-184.64"/>
<polygon fill="#63b8ff" stroke="#63b8ff" points="2276.71,-181.16 2266.25,-182.82 2275.46,-188.05 2276.71,-181.16"/>
</g>
<!-- Node57&#45;&gt;Node51 -->
<g id="edge165" class="edge">
<title>Node57&#45;&gt;Node51</title>
<path fill="none" stroke="#63b8ff" d="M2794.81,-439.99C2823.69,-428.78 2865.12,-407.79 2846,-385 2779.91,-306.21 2451.96,-289.78 2329.35,-286.38"/>
<polygon fill="#63b8ff" stroke="#63b8ff" points="2329.25,-282.88 2319.17,-286.11 2329.07,-289.87 2329.25,-282.88"/>
</g>
<!-- Node58 -->
<g id="node58" class="node">
<title>Node58</title>
<g id="a_node58"><a xlink:href="Ioss__CoordinateFrame_8h.html" target="_top" xlink:title=" ">
<polygon fill="white" stroke="#666666" points="3700,-74 3576,-74 3576,-55 3700,-55 3700,-74"/>
<text text-anchor="middle" x="3638" y="-62" font-family="Helvetica,sans-Serif" font-size="10.00">Ioss_CoordinateFrame.h</text>
</a>
</g>
</g>
<!-- Node57&#45;&gt;Node58 -->
<g id="edge157" class="edge">
<title>Node57&#45;&gt;Node58</title>
<path fill="none" stroke="#63b8ff" d="M2810.2,-447.83C2982.03,-444.45 3646,-425.88 3646,-340.5 3646,-340.5 3646,-340.5 3646,-173.5 3646,-142.1 3642.6,-105.71 3640.23,-84.2"/>
<polygon fill="#63b8ff" stroke="#63b8ff" points="3643.69,-83.7 3639.08,-74.16 3636.74,-84.5 3643.69,-83.7"/>
</g>
<!-- Node59 -->
<g id="node59" class="node">
<title>Node59</title>
<g id="a_node59"><a xlink:href="Ioss__MeshType_8h.html" target="_top" xlink:title=" ">
<polygon fill="white" stroke="#666666" points="2773,-404 2679,-404 2679,-385 2773,-385 2773,-404"/>
<text text-anchor="middle" x="2726" y="-392" font-family="Helvetica,sans-Serif" font-size="10.00">Ioss_MeshType.h</text>
</a>
</g>
</g>
<!-- Node57&#45;&gt;Node59 -->
<g id="edge163" class="edge">
<title>Node57&#45;&gt;Node59</title>
<path fill="none" stroke="#63b8ff" d="M2762.73,-439.75C2756.46,-432.18 2747.21,-421.05 2739.57,-411.84"/>
<polygon fill="#63b8ff" stroke="#63b8ff" points="2742.21,-409.55 2733.13,-404.09 2736.83,-414.02 2742.21,-409.55"/>
</g>
<!-- Node60 -->
<g id="node60" class="node">
<title>Node60</title>
<g id="a_node60"><a xlink:title=" ">
<polygon fill="#e0e0e0" stroke="#999999" points="2836.5,-404 2791.5,-404 2791.5,-385 2836.5,-385 2836.5,-404"/>
<text text-anchor="middle" x="2814" y="-392" font-family="Helvetica,sans-Serif" font-size="10.00">iosfwd</text>
</a>
</g>
</g>
<!-- Node57&#45;&gt;Node60 -->
<g id="edge169" class="edge">
<title>Node57&#45;&gt;Node60</title>
<path fill="none" stroke="#63b8ff" d="M2777.27,-439.75C2783.54,-432.18 2792.79,-421.05 2800.43,-411.84"/>
<polygon fill="#63b8ff" stroke="#63b8ff" points="2803.17,-414.02 2806.87,-404.09 2797.79,-409.55 2803.17,-414.02"/>
</g>
<!-- Node58&#45;&gt;Node7 -->
<g id="edge158" class="edge">
<title>Node58&#45;&gt;Node7</title>
<path fill="none" stroke="#63b8ff" d="M3652.46,-54.98C3666.42,-46.77 3687.79,-34.18 3704.25,-24.49"/>
<polygon fill="#63b8ff" stroke="#63b8ff" points="3706.44,-27.26 3713.28,-19.17 3702.88,-21.23 3706.44,-27.26"/>
</g>
<!-- Node58&#45;&gt;Node9 -->
<g id="edge159" class="edge">
<title>Node58&#45;&gt;Node9</title>
<path fill="none" stroke="#63b8ff" d="M3575.8,-59.42C3549.62,-57.83 3518.84,-56.12 3491,-55 2791.83,-26.8 2616.01,-50.94 1917,-19 1885.88,-17.58 1850.42,-15.06 1825.42,-13.13"/>
<polygon fill="#63b8ff" stroke="#63b8ff" points="1825.63,-9.63 1815.38,-12.34 1825.08,-16.61 1825.63,-9.63"/>
</g>
<!-- Node61&#45;&gt;Node3 -->
<g id="edge176" class="edge">
<title>Node61&#45;&gt;Node3</title>
<path fill="none" stroke="#63b8ff" d="M1612.43,-446.87C1500.24,-442.27 1181.9,-427.98 918,-404 916.73,-403.88 915.45,-403.76 914.16,-403.64"/>
<polygon fill="#63b8ff" stroke="#63b8ff" points="914.44,-400.15 904.13,-402.62 913.73,-407.11 914.44,-400.15"/>
</g>
<!-- Node61&#45;&gt;Node6 -->
<g id="edge178" class="edge">
<title>Node61&#45;&gt;Node6</title>
<path fill="none" stroke="#63b8ff" d="M1612.31,-447.67C1408.34,-443.25 521.35,-420.07 423,-349 356.6,-301.02 378.38,-239.71 412,-165 423.99,-138.36 426.14,-129.39 448,-110 468.59,-91.73 532.44,-62.25 559,-55 771.8,3.05 834.67,-42.48 1054,-19 1062.16,-18.13 1070.93,-16.99 1079.17,-15.84"/>
<polygon fill="#63b8ff" stroke="#63b8ff" points="1079.83,-19.28 1089.23,-14.4 1078.84,-12.36 1079.83,-19.28"/>
</g>
<!-- Node61&#45;&gt;Node7 -->
<g id="edge179" class="edge">
<title>Node61&#45;&gt;Node7</title>
<path fill="none" stroke="#63b8ff" d="M1695.61,-448.56C1820.71,-448.25 2204.23,-443.89 2519,-404 2975.63,-346.13 3088.68,-311.33 3531,-184 3650.79,-149.52 3732.3,-185.01 3789,-74 3799.36,-53.72 3777.01,-35.54 3756.51,-23.89"/>
<polygon fill="#63b8ff" stroke="#63b8ff" points="3758.11,-20.77 3747.64,-19.15 3754.82,-26.95 3758.11,-20.77"/>
</g>
<!-- Node61&#45;&gt;Node8 -->
<g id="edge180" class="edge">
<title>Node61&#45;&gt;Node8</title>
<path fill="none" stroke="#63b8ff" d="M1612.2,-447.89C1362.24,-443.95 76,-419.83 76,-340.5 76,-340.5 76,-340.5 76,-118.5 76,-88.33 76.71,-74.19 100,-55 134.72,-26.39 268.94,-15.52 330.2,-11.98"/>
<polygon fill="#63b8ff" stroke="#63b8ff" points="330.62,-15.46 340.41,-11.42 330.23,-8.47 330.62,-15.46"/>
</g>
<!-- Node61&#45;&gt;Node9 -->
<g id="edge181" class="edge">
<title>Node61&#45;&gt;Node9</title>
<path fill="none" stroke="#63b8ff" d="M1695.8,-448.33C1839.96,-447.42 2315.62,-441.58 2463,-404 2683.37,-347.8 2803.58,-376.3 2925,-184 2963.96,-122.3 3029.39,-181.55 2674,-110 2587.17,-92.52 2562.14,-101.65 2478,-74 2459.68,-67.98 2457.63,-59.98 2439,-55 2438.06,-54.75 1956.09,-21.68 1825.37,-12.72"/>
<polygon fill="#63b8ff" stroke="#63b8ff" points="1825.42,-9.21 1815.2,-12.02 1824.94,-16.2 1825.42,-9.21"/>
</g>
<!-- Node61&#45;&gt;Node16 -->
<g id="edge175" class="edge">
<title>Node61&#45;&gt;Node16</title>
<path fill="none" stroke="#63b8ff" d="M1695.89,-448.67C1835.96,-448.82 2286.93,-445.95 2425,-404 2533.08,-371.16 2543.55,-326.68 2644,-275 2711.4,-240.32 2793.45,-205.73 2837.14,-187.89"/>
<polygon fill="#63b8ff" stroke="#63b8ff" points="2838.68,-191.05 2846.62,-184.04 2836.04,-184.56 2838.68,-191.05"/>
</g>
<!-- Node61&#45;&gt;Node45 -->
<g id="edge177" class="edge">
<title>Node61&#45;&gt;Node45</title>
<path fill="none" stroke="#63b8ff" d="M1695.57,-448.13C1843.34,-446.51 2337.65,-438.55 2399,-404 2431.21,-385.86 2448.01,-365.3 2437,-330 2428.15,-301.64 2420.91,-295.07 2399,-275 2355.12,-234.8 2292.18,-204.06 2254.96,-187.97"/>
<polygon fill="#63b8ff" stroke="#63b8ff" points="2256.2,-184.7 2245.63,-184.02 2253.47,-191.14 2256.2,-184.7"/>
</g>
</g>
</svg>
