<?xml version="1.0" encoding="UTF-8" standalone="no"?>
<!DOCTYPE svg PUBLIC "-//W3C//DTD SVG 1.1//EN"
 "http://www.w3.org/Graphics/SVG/1.1/DTD/svg11.dtd">
<!-- Generated by graphviz version 9.0.0 (20230911.1827)
 -->
<!-- Title: src/catalyst_tests/Iocatalyst_BlockMesh.C Pages: 1 -->
<!--zoomable 326 -->

<svg id="main" version="1.1" xmlns="http://www.w3.org/2000/svg" xmlns:xlink="http://www.w3.org/1999/xlink" xml:space="preserve" onload="init(evt)">
<style type="text/css"><![CDATA[
.node, .edge {opacity: 0.7;}
.node.selected, .edge.selected {opacity: 1;}
.edge:hover path { stroke: red; }
.edge:hover polygon { stroke: red; fill: red; }
]]></style>

<defs>
  <circle id="rim" cx="0" cy="0" r="7"/>
  <circle id="rim2" cx="0" cy="0" r="3.5"/>
  <g id="zoomPlus">
    <use xlink:href="#rim" fill="#404040"><set attributeName="fill" to="#808080" begin="zoomplus.mouseover" end="zoomplus.mouseout"/></use>
    <path d="M-4,0h8M0,-4v8" fill="none" stroke="white" stroke-width="1.5" pointer-events="none"/>
  </g>
  <g id="zoomMin">
    <use xlink:href="#rim" fill="#404040"><set attributeName="fill" to="#808080" begin="zoomminus.mouseover" end="zoomminus.mouseout"/></use>
    <path d="M-4,0h8" fill="none" stroke="white" stroke-width="1.5" pointer-events="none"/>
  </g>
  <g id="arrowUp" transform="translate(30 24)">
    <use xlink:href="#rim"/>
    <path pointer-events="none" fill="none" stroke="white" stroke-width="1.5" d="M0,-3.0v7 M-2.5,-0.5L0,-3.0L2.5,-0.5"/>
  </g>
  <g id="arrowRight" transform="rotate(90) translate(36 -43)">
    <use xlink:href="#rim"/>
    <path pointer-events="none" fill="none" stroke="white" stroke-width="1.5" d="M0,-3.0v7 M-2.5,-0.5L0,-3.0L2.5,-0.5"/>
  </g>
  <g id="arrowDown" transform="rotate(180) translate(-30 -48)">
    <use xlink:href="#rim"/>
    <path pointer-events="none" fill="none" stroke="white" stroke-width="1.5" d="M0,-3.0v7 M-2.5,-0.5L0,-3.0L2.5,-0.5"/>
  </g>
  <g id="arrowLeft" transform="rotate(270) translate(-36 17)">
    <use xlink:href="#rim"/>
    <path pointer-events="none" fill="none" stroke="white" stroke-width="1.5" d="M0,-3.0v7 M-2.5,-0.5L0,-3.0L2.5,-0.5"/>
  </g>
  <g id="resetDef">
    <use xlink:href="#rim2" fill="#404040"><set attributeName="fill" to="#808080" begin="reset.mouseover" end="reset.mouseout"/></use>
  </g>
</defs>
<script type="application/ecmascript">
var viewWidth = 1443;
var viewHeight = 326;
var sectionId = 'dynsection-0';
</script>
<script type="application/ecmascript" xlink:href="svg.min.js"/>
<svg id="graph" class="graph">
<g id="viewport">
<title>src/catalyst_tests/Iocatalyst_BlockMesh.C</title>
<!-- Node1 -->
<g id="Node000001" class="node">
<title>Node1</title>
<g id="a_Node000001"><a xlink:title=" ">
<polygon fill="#999999" stroke="#666666" points="513,-318 386.75,-318 386.75,-287.5 513,-287.5 513,-318"/>
<text text-anchor="start" x="394.75" y="-304.5" font-family="Helvetica,sans-Serif" font-size="10.00">src/catalyst_tests</text>
<text text-anchor="middle" x="449.88" y="-293.25" font-family="Helvetica,sans-Serif" font-size="10.00">/Iocatalyst_BlockMesh.C</text>
</a>
</g>
</g>
<!-- Node2 -->
<g id="Node000002" class="node">
<title>Node2</title>
<g id="a_Node000002"><a xlink:href="Ioss__Utils_8h.html" target="_top" xlink:title=" ">
<polygon fill="white" stroke="#666666" points="821.12,-251.5 752.62,-251.5 752.62,-232.25 821.12,-232.25 821.12,-251.5"/>
<text text-anchor="middle" x="786.88" y="-238" font-family="Helvetica,sans-Serif" font-size="10.00">Ioss_Utils.h</text>
</a>
</g>
</g>
<!-- Node1&#45;&gt;Node2 -->
<g id="edge1_Node000001_Node000002" class="edge">
<title>Node1&#45;&gt;Node2</title>
<g id="a_edge1_Node000001_Node000002"><a xlink:title=" ">
<path fill="none" stroke="#63b8ff" d="M513.26,-290.68C579.58,-279.09 682.06,-261.19 740.97,-250.89"/>
<polygon fill="#63b8ff" stroke="#63b8ff" points="741.41,-254.37 750.65,-249.2 740.2,-247.48 741.41,-254.37"/>
</a>
</g>
</g>
<!-- Node34 -->
<g id="Node000034" class="node">
<title>Node34</title>
<g id="a_Node000034"><a xlink:href="Iocatalyst__BlockMesh_8h.html" target="_top" xlink:title=" ">
<polygon fill="white" stroke="#666666" points="447.5,-85.75 324.25,-85.75 324.25,-55.25 447.5,-55.25 447.5,-85.75"/>
<text text-anchor="start" x="332.25" y="-72.25" font-family="Helvetica,sans-Serif" font-size="10.00">catalyst_tests/Iocatalyst</text>
<text text-anchor="middle" x="385.88" y="-61" font-family="Helvetica,sans-Serif" font-size="10.00">_BlockMesh.h</text>
</a>
</g>
</g>
<!-- Node1&#45;&gt;Node34 -->
<g id="edge60_Node000001_Node000034" class="edge">
<title>Node1&#45;&gt;Node34</title>
<g id="a_edge60_Node000001_Node000034"><a xlink:title=" ">
<path fill="none" stroke="#63b8ff" d="M386.28,-288.72C315.02,-270.12 204.32,-228.06 164.88,-141 161.34,-133.21 159.54,-128.44 164.88,-121.75 183.26,-98.72 255.77,-85.44 312.78,-78.38"/>
<polygon fill="#63b8ff" stroke="#63b8ff" points="312.94,-81.89 322.46,-77.23 312.11,-74.94 312.94,-81.89"/>
</a>
</g>
</g>
<!-- Node3 -->
<g id="Node000003" class="node">
<title>Node3</title>
<g id="a_Node000003"><a xlink:href="Ioss__CodeTypes_8h.html" target="_top" xlink:title=" ">
<polygon fill="white" stroke="#666666" points="715.75,-80.12 618,-80.12 618,-60.88 715.75,-60.88 715.75,-80.12"/>
<text text-anchor="middle" x="666.88" y="-66.62" font-family="Helvetica,sans-Serif" font-size="10.00">Ioss_CodeTypes.h</text>
</a>
</g>
</g>
<!-- Node2&#45;&gt;Node3 -->
<g id="edge2_Node000002_Node000003" class="edge">
<title>Node2&#45;&gt;Node3</title>
<g id="a_edge2_Node000002_Node000003"><a xlink:title=" ">
<path fill="none" stroke="#63b8ff" d="M752.36,-237.72C703.41,-232.44 617.65,-220 598.88,-196.25 570.99,-160.98 617.29,-112.69 646.27,-87.8"/>
<polygon fill="#63b8ff" stroke="#63b8ff" points="648.33,-90.64 653.79,-81.56 643.86,-85.26 648.33,-90.64"/>
</a>
</g>
</g>
<!-- Node5 -->
<g id="Node000005" class="node">
<title>Node5</title>
<g id="a_Node000005"><a xlink:title=" ">
<polygon fill="#e0e0e0" stroke="#999999" points="320,-19.25 271.75,-19.25 271.75,0 320,0 320,-19.25"/>
<text text-anchor="middle" x="295.88" y="-5.75" font-family="Helvetica,sans-Serif" font-size="10.00">cstddef</text>
</a>
</g>
</g>
<!-- Node2&#45;&gt;Node5 -->
<g id="edge52_Node000002_Node000005" class="edge">
<title>Node2&#45;&gt;Node5</title>
<g id="a_edge52_Node000002_Node000005"><a xlink:title=" ">
<path fill="none" stroke="#63b8ff" d="M752.18,-235.57C648.83,-218.97 346.96,-164.4 293.88,-85.75 282.94,-69.55 285.49,-46.58 289.48,-30.32"/>
<polygon fill="#63b8ff" stroke="#63b8ff" points="292.8,-31.44 292.2,-20.86 286.08,-29.5 292.8,-31.44"/>
</a>
</g>
</g>
<!-- Node6 -->
<g id="Node000006" class="node">
<title>Node6</title>
<g id="a_Node000006"><a xlink:title=" ">
<polygon fill="#e0e0e0" stroke="#999999" points="1434.5,-19.25 1389.25,-19.25 1389.25,0 1434.5,0 1434.5,-19.25"/>
<text text-anchor="middle" x="1411.88" y="-5.75" font-family="Helvetica,sans-Serif" font-size="10.00">cstdint</text>
</a>
</g>
</g>
<!-- Node2&#45;&gt;Node6 -->
<g id="edge53_Node000002_Node000006" class="edge">
<title>Node2&#45;&gt;Node6</title>
<g id="a_edge53_Node000002_Node000006"><a xlink:title=" ">
<path fill="none" stroke="#63b8ff" d="M821.29,-240.69C921.31,-239.7 1210.31,-233.61 1295.88,-196.25 1364.68,-166.21 1396.37,-71.98 1407.26,-30.53"/>
<polygon fill="#63b8ff" stroke="#63b8ff" points="1410.62,-31.51 1409.62,-20.96 1403.82,-29.83 1410.62,-31.51"/>
</a>
</g>
</g>
<!-- Node7 -->
<g id="Node000007" class="node">
<title>Node7</title>
<g id="a_Node000007"><a xlink:title=" ">
<polygon fill="#e0e0e0" stroke="#999999" points="1104.88,-19.25 1064.88,-19.25 1064.88,0 1104.88,0 1104.88,-19.25"/>
<text text-anchor="middle" x="1084.88" y="-5.75" font-family="Helvetica,sans-Serif" font-size="10.00">string</text>
</a>
</g>
</g>
<!-- Node2&#45;&gt;Node7 -->
<g id="edge57_Node000002_Node000007" class="edge">
<title>Node2&#45;&gt;Node7</title>
<g id="a_edge57_Node000002_Node000007"><a xlink:title=" ">
<path fill="none" stroke="#63b8ff" d="M821.52,-239.8C916.15,-236.53 1177.35,-225.07 1257.88,-196.25 1299.25,-181.44 1319.23,-179.8 1339.88,-141 1350.22,-121.55 1358.58,-82.91 1332.88,-55.25 1304.04,-24.22 1176.91,-14.6 1116.7,-11.76"/>
<polygon fill="#63b8ff" stroke="#63b8ff" points="1116.92,-8.26 1106.78,-11.32 1116.62,-15.25 1116.92,-8.26"/>
</a>
</g>
</g>
<!-- Node8 -->
<g id="Node000008" class="node">
<title>Node8</title>
<g id="a_Node000008"><a xlink:title=" ">
<polygon fill="#e0e0e0" stroke="#999999" points="578.38,-19.25 535.38,-19.25 535.38,0 578.38,0 578.38,-19.25"/>
<text text-anchor="middle" x="556.88" y="-5.75" font-family="Helvetica,sans-Serif" font-size="10.00">vector</text>
</a>
</g>
</g>
<!-- Node2&#45;&gt;Node8 -->
<g id="edge58_Node000002_Node000008" class="edge">
<title>Node2&#45;&gt;Node8</title>
<g id="a_edge58_Node000002_Node000008"><a xlink:title=" ">
<path fill="none" stroke="#63b8ff" d="M752.45,-237.59C701.41,-232.03 609.18,-219.07 585.88,-196.25 540.85,-152.17 547.26,-68.93 553.12,-30.72"/>
<polygon fill="#63b8ff" stroke="#63b8ff" points="556.53,-31.55 554.76,-21.1 549.63,-30.37 556.53,-31.55"/>
</a>
</g>
</g>
<!-- Node11 -->
<g id="Node000011" class="node">
<title>Node11</title>
<g id="a_Node000011"><a xlink:href="Ioss__ElementTopology_8h.html" target="_top" xlink:title=" ">
<polygon fill="white" stroke="#666666" points="1190.75,-196.25 1069,-196.25 1069,-177 1190.75,-177 1190.75,-196.25"/>
<text text-anchor="middle" x="1129.88" y="-182.75" font-family="Helvetica,sans-Serif" font-size="10.00">Ioss_ElementTopology.h</text>
</a>
</g>
</g>
<!-- Node2&#45;&gt;Node11 -->
<g id="edge10_Node000002_Node000011" class="edge">
<title>Node2&#45;&gt;Node11</title>
<g id="a_edge10_Node000002_Node000011"><a xlink:title=" ">
<path fill="none" stroke="#63b8ff" d="M821.33,-235.53C876.89,-226.9 987.34,-209.75 1059.9,-198.49"/>
<polygon fill="#63b8ff" stroke="#63b8ff" points="1060.37,-201.96 1069.71,-196.97 1059.29,-195.04 1060.37,-201.96"/>
</a>
</g>
</g>
<!-- Node17 -->
<g id="Node000017" class="node">
<title>Node17</title>
<g id="a_Node000017"><a xlink:title=" ">
<polygon fill="#e0e0e0" stroke="#999999" points="1206.12,-80.12 1131.62,-80.12 1131.62,-60.88 1206.12,-60.88 1206.12,-80.12"/>
<text text-anchor="middle" x="1168.88" y="-66.62" font-family="Helvetica,sans-Serif" font-size="10.00">ioss_export.h</text>
</a>
</g>
</g>
<!-- Node2&#45;&gt;Node17 -->
<g id="edge59_Node000002_Node000017" class="edge">
<title>Node2&#45;&gt;Node17</title>
<g id="a_edge59_Node000002_Node000017"><a xlink:title=" ">
<path fill="none" stroke="#63b8ff" d="M821.32,-239.74C915.98,-236.26 1174.73,-224.26 1199.88,-196.25 1226.86,-166.2 1200.2,-116.29 1182.25,-89.62"/>
<polygon fill="#63b8ff" stroke="#63b8ff" points="1185.2,-87.73 1176.59,-81.57 1179.48,-91.76 1185.2,-87.73"/>
</a>
</g>
</g>
<!-- Node19 -->
<g id="Node000019" class="node">
<title>Node19</title>
<g id="a_Node000019"><a xlink:href="Ioss__EntityType_8h.html" target="_top" xlink:title=" ">
<polygon fill="white" stroke="#666666" points="712.25,-196.25 617.5,-196.25 617.5,-177 712.25,-177 712.25,-196.25"/>
<text text-anchor="middle" x="664.88" y="-182.75" font-family="Helvetica,sans-Serif" font-size="10.00">Ioss_EntityType.h</text>
</a>
</g>
</g>
<!-- Node2&#45;&gt;Node19 -->
<g id="edge26_Node000002_Node000019" class="edge">
<title>Node2&#45;&gt;Node19</title>
<g id="a_edge26_Node000002_Node000019"><a xlink:title=" ">
<path fill="none" stroke="#63b8ff" d="M766.18,-231.84C746.99,-223.47 718.16,-210.88 696.16,-201.28"/>
<polygon fill="#63b8ff" stroke="#63b8ff" points="697.62,-198.1 687.06,-197.31 694.82,-204.52 697.62,-198.1"/>
</a>
</g>
</g>
<!-- Node20 -->
<g id="Node000020" class="node">
<title>Node20</title>
<g id="a_Node000020"><a xlink:href="Ioss__Field_8h.html" target="_top" xlink:title=" ">
<polygon fill="white" stroke="#666666" points="764.5,-141 695.25,-141 695.25,-121.75 764.5,-121.75 764.5,-141"/>
<text text-anchor="middle" x="729.88" y="-127.5" font-family="Helvetica,sans-Serif" font-size="10.00">Ioss_Field.h</text>
</a>
</g>
</g>
<!-- Node2&#45;&gt;Node20 -->
<g id="edge27_Node000002_Node000020" class="edge">
<title>Node2&#45;&gt;Node20</title>
<g id="a_edge27_Node000002_Node000020"><a xlink:title=" ">
<path fill="none" stroke="#63b8ff" d="M752.23,-237.2C705.56,-231.45 626.32,-218.61 608.88,-196.25 585.13,-165.82 640.27,-148.29 683.72,-139.54"/>
<polygon fill="#63b8ff" stroke="#63b8ff" points="684.37,-142.98 693.54,-137.68 683.07,-136.1 684.37,-142.98"/>
</a>
</g>
</g>
<!-- Node21 -->
<g id="Node000021" class="node">
<title>Node21</title>
<g id="a_Node000021"><a xlink:href="Ioss__Property_8h.html" target="_top" xlink:title=" ">
<polygon fill="white" stroke="#666666" points="1330.62,-141 1247.12,-141 1247.12,-121.75 1330.62,-121.75 1330.62,-141"/>
<text text-anchor="middle" x="1288.88" y="-127.5" font-family="Helvetica,sans-Serif" font-size="10.00">Ioss_Property.h</text>
</a>
</g>
</g>
<!-- Node2&#45;&gt;Node21 -->
<g id="edge34_Node000002_Node000021" class="edge">
<title>Node2&#45;&gt;Node21</title>
<g id="a_edge34_Node000002_Node000021"><a xlink:title=" ">
<path fill="none" stroke="#63b8ff" d="M821.44,-240.65C913.26,-239.55 1161.18,-233.15 1232.88,-196.25 1252.5,-186.15 1268.32,-166.02 1278.08,-151.05"/>
<polygon fill="#63b8ff" stroke="#63b8ff" points="1281.04,-152.92 1283.28,-142.56 1275.07,-149.26 1281.04,-152.92"/>
</a>
</g>
</g>
<!-- Node23 -->
<g id="Node000023" class="node">
<title>Node23</title>
<g id="a_Node000023"><a xlink:href="Ioss__Sort_8h.html" target="_top" xlink:title=" ">
<polygon fill="white" stroke="#666666" points="240,-141 173.75,-141 173.75,-121.75 240,-121.75 240,-141"/>
<text text-anchor="middle" x="206.88" y="-127.5" font-family="Helvetica,sans-Serif" font-size="10.00">Ioss_Sort.h</text>
</a>
</g>
</g>
<!-- Node2&#45;&gt;Node23 -->
<g id="edge40_Node000002_Node000023" class="edge">
<title>Node2&#45;&gt;Node23</title>
<g id="a_edge40_Node000002_Node000023"><a xlink:title=" ">
<path fill="none" stroke="#63b8ff" d="M752.43,-239.64C641.36,-235.43 297.28,-220.53 253.88,-196.25 236.07,-186.29 223.12,-166.45 215.38,-151.51"/>
<polygon fill="#63b8ff" stroke="#63b8ff" points="218.61,-150.16 211.14,-142.65 212.3,-153.18 218.61,-150.16"/>
</a>
</g>
</g>
<!-- Node25 -->
<g id="Node000025" class="node">
<title>Node25</title>
<g id="a_Node000025"><a xlink:title=" ">
<polygon fill="#e0e0e0" stroke="#999999" points="55.75,-19.25 0,-19.25 0,0 55.75,0 55.75,-19.25"/>
<text text-anchor="middle" x="27.88" y="-5.75" font-family="Helvetica,sans-Serif" font-size="10.00">algorithm</text>
</a>
</g>
</g>
<!-- Node2&#45;&gt;Node25 -->
<g id="edge49_Node000002_Node000025" class="edge">
<title>Node2&#45;&gt;Node25</title>
<g id="a_edge49_Node000002_Node000025"><a xlink:title=" ">
<path fill="none" stroke="#63b8ff" d="M752.19,-240.94C645.42,-240.68 323.16,-236.51 227.88,-196.25 141.14,-159.6 68.52,-67.95 40.39,-28.81"/>
<polygon fill="#63b8ff" stroke="#63b8ff" points="43.28,-26.85 34.66,-20.69 37.56,-30.88 43.28,-26.85"/>
</a>
</g>
</g>
<!-- Node29 -->
<g id="Node000029" class="node">
<title>Node29</title>
<g id="a_Node000029"><a xlink:title=" ">
<polygon fill="#e0e0e0" stroke="#999999" points="779,-196.25 730.75,-196.25 730.75,-177 779,-177 779,-196.25"/>
<text text-anchor="middle" x="754.88" y="-182.75" font-family="Helvetica,sans-Serif" font-size="10.00">cassert</text>
</a>
</g>
</g>
<!-- Node2&#45;&gt;Node29 -->
<g id="edge50_Node000002_Node000029" class="edge">
<title>Node2&#45;&gt;Node29</title>
<g id="a_edge50_Node000002_Node000029"><a xlink:title=" ">
<path fill="none" stroke="#63b8ff" d="M781.59,-232.08C777.4,-225.11 771.4,-215.12 766.14,-206.37"/>
<polygon fill="#63b8ff" stroke="#63b8ff" points="769.2,-204.68 761.05,-197.91 763.2,-208.28 769.2,-204.68"/>
</a>
</g>
</g>
<!-- Node30 -->
<g id="Node000030" class="node">
<title>Node30</title>
<g id="a_Node000030"><a xlink:title=" ">
<polygon fill="#e0e0e0" stroke="#999999" points="840.38,-196.25 797.38,-196.25 797.38,-177 840.38,-177 840.38,-196.25"/>
<text text-anchor="middle" x="818.88" y="-182.75" font-family="Helvetica,sans-Serif" font-size="10.00">cmath</text>
</a>
</g>
</g>
<!-- Node2&#45;&gt;Node30 -->
<g id="edge51_Node000002_Node000030" class="edge">
<title>Node2&#45;&gt;Node30</title>
<g id="a_edge51_Node000002_Node000030"><a xlink:title=" ">
<path fill="none" stroke="#63b8ff" d="M792.16,-232.08C796.35,-225.11 802.35,-215.12 807.61,-206.37"/>
<polygon fill="#63b8ff" stroke="#63b8ff" points="810.55,-208.28 812.7,-197.91 804.55,-204.68 810.55,-208.28"/>
</a>
</g>
</g>
<!-- Node31 -->
<g id="Node000031" class="node">
<title>Node31</title>
<g id="a_Node000031"><a xlink:title=" ">
<polygon fill="#e0e0e0" stroke="#999999" points="903.12,-196.25 858.62,-196.25 858.62,-177 903.12,-177 903.12,-196.25"/>
<text text-anchor="middle" x="880.88" y="-182.75" font-family="Helvetica,sans-Serif" font-size="10.00">cstdlib</text>
</a>
</g>
</g>
<!-- Node2&#45;&gt;Node31 -->
<g id="edge54_Node000002_Node000031" class="edge">
<title>Node2&#45;&gt;Node31</title>
<g id="a_edge54_Node000002_Node000031"><a xlink:title=" ">
<path fill="none" stroke="#63b8ff" d="M802.82,-231.84C817.14,-223.73 838.41,-211.68 855.13,-202.21"/>
<polygon fill="#63b8ff" stroke="#63b8ff" points="856.56,-205.42 863.53,-197.45 853.11,-199.33 856.56,-205.42"/>
</a>
</g>
</g>
<!-- Node32 -->
<g id="Node000032" class="node">
<title>Node32</title>
<g id="a_Node000032"><a xlink:title=" ">
<polygon fill="#e0e0e0" stroke="#999999" points="974.62,-196.25 921.12,-196.25 921.12,-177 974.62,-177 974.62,-196.25"/>
<text text-anchor="middle" x="947.88" y="-182.75" font-family="Helvetica,sans-Serif" font-size="10.00">iostream</text>
</a>
</g>
</g>
<!-- Node2&#45;&gt;Node32 -->
<g id="edge55_Node000002_Node000032" class="edge">
<title>Node2&#45;&gt;Node32</title>
<g id="a_edge55_Node000002_Node000032"><a xlink:title=" ">
<path fill="none" stroke="#63b8ff" d="M814.19,-231.84C840.52,-223.13 880.59,-209.88 910,-200.15"/>
<polygon fill="#63b8ff" stroke="#63b8ff" points="910.87,-203.55 919.26,-197.09 908.67,-196.91 910.87,-203.55"/>
</a>
</g>
</g>
<!-- Node33 -->
<g id="Node000033" class="node">
<title>Node33</title>
<g id="a_Node000033"><a xlink:title=" ">
<polygon fill="#e0e0e0" stroke="#999999" points="1051.25,-196.25 992.5,-196.25 992.5,-177 1051.25,-177 1051.25,-196.25"/>
<text text-anchor="middle" x="1021.88" y="-182.75" font-family="Helvetica,sans-Serif" font-size="10.00">stdexcept</text>
</a>
</g>
</g>
<!-- Node2&#45;&gt;Node33 -->
<g id="edge56_Node000002_Node000033" class="edge">
<title>Node2&#45;&gt;Node33</title>
<g id="a_edge56_Node000002_Node000033"><a xlink:title=" ">
<path fill="none" stroke="#63b8ff" d="M821.4,-233.06C858.5,-224.66 919.52,-210.84 980.94,-196.91"/>
<polygon fill="#63b8ff" stroke="#63b8ff" points="981.55,-200.37 990.53,-194.74 980,-193.54 981.55,-200.37"/>
</a>
</g>
</g>
<!-- Node4 -->
<g id="Node000004" class="node">
<title>Node4</title>
<g id="a_Node000004"><a xlink:title=" ">
<polygon fill="#e0e0e0" stroke="#999999" points="498.75,-19.25 461,-19.25 461,0 498.75,0 498.75,-19.25"/>
<text text-anchor="middle" x="479.88" y="-5.75" font-family="Helvetica,sans-Serif" font-size="10.00">array</text>
</a>
</g>
</g>
<!-- Node3&#45;&gt;Node4 -->
<g id="edge3_Node000003_Node000004" class="edge">
<title>Node3&#45;&gt;Node4</title>
<g id="a_edge3_Node000003_Node000004"><a xlink:title=" ">
<path fill="none" stroke="#63b8ff" d="M638.07,-60.43C603.21,-49.46 544.84,-31.08 509.59,-19.98"/>
<polygon fill="#63b8ff" stroke="#63b8ff" points="511.05,-16.77 500.46,-17.11 508.94,-23.45 511.05,-16.77"/>
</a>
</g>
</g>
<!-- Node3&#45;&gt;Node5 -->
<g id="edge4_Node000003_Node000005" class="edge">
<title>Node3&#45;&gt;Node5</title>
<g id="a_edge4_Node000003_Node000005"><a xlink:title=" ">
<path fill="none" stroke="#63b8ff" d="M617.61,-63.87C553.73,-56.2 438.7,-41.11 331.35,-19.57"/>
<polygon fill="#63b8ff" stroke="#63b8ff" points="332.29,-16.19 321.8,-17.63 330.9,-23.05 332.29,-16.19"/>
</a>
</g>
</g>
<!-- Node3&#45;&gt;Node6 -->
<g id="edge5_Node000003_Node000006" class="edge">
<title>Node3&#45;&gt;Node6</title>
<g id="a_edge5_Node000003_Node000006"><a xlink:title=" ">
<path fill="none" stroke="#63b8ff" d="M716.11,-61.43C731.09,-59.18 747.63,-56.9 762.88,-55.25 997.07,-29.86 1280.47,-16.22 1377.43,-12.04"/>
<polygon fill="#63b8ff" stroke="#63b8ff" points="1377.47,-15.54 1387.31,-11.62 1377.17,-8.55 1377.47,-15.54"/>
</a>
</g>
</g>
<!-- Node3&#45;&gt;Node7 -->
<g id="edge6_Node000003_Node000007" class="edge">
<title>Node3&#45;&gt;Node7</title>
<g id="a_edge6_Node000003_Node000007"><a xlink:title=" ">
<path fill="none" stroke="#63b8ff" d="M704.4,-60.38C712.75,-58.53 721.59,-56.7 729.88,-55.25 848.61,-34.41 991.33,-19.52 1053.44,-13.54"/>
<polygon fill="#63b8ff" stroke="#63b8ff" points="1053.63,-17.04 1063.25,-12.6 1052.96,-10.07 1053.63,-17.04"/>
</a>
</g>
</g>
<!-- Node3&#45;&gt;Node8 -->
<g id="edge7_Node000003_Node000008" class="edge">
<title>Node3&#45;&gt;Node8</title>
<g id="a_edge7_Node000003_Node000008"><a xlink:title=" ">
<path fill="none" stroke="#63b8ff" d="M650.17,-60.56C632.56,-51.13 604.56,-36.15 583.83,-25.05"/>
<polygon fill="#63b8ff" stroke="#63b8ff" points="585.54,-22 575.07,-20.37 582.24,-28.17 585.54,-22"/>
</a>
</g>
</g>
<!-- Node9 -->
<g id="Node000009" class="node">
<title>Node9</title>
<g id="a_Node000009"><a xlink:title=" ">
<polygon fill="#e0e0e0" stroke="#999999" points="720.75,-19.25 605,-19.25 605,0 720.75,0 720.75,-19.25"/>
<text text-anchor="middle" x="662.88" y="-5.75" font-family="Helvetica,sans-Serif" font-size="10.00">SEACASIoss_config.h</text>
</a>
</g>
</g>
<!-- Node3&#45;&gt;Node9 -->
<g id="edge8_Node000003_Node000009" class="edge">
<title>Node3&#45;&gt;Node9</title>
<g id="a_edge8_Node000003_Node000009"><a xlink:title=" ">
<path fill="none" stroke="#63b8ff" d="M666.27,-60.56C665.73,-52.69 664.94,-40.95 664.25,-30.82"/>
<polygon fill="#63b8ff" stroke="#63b8ff" points="667.76,-30.9 663.59,-21.16 660.78,-31.38 667.76,-30.9"/>
</a>
</g>
</g>
<!-- Node10 -->
<g id="Node000010" class="node">
<title>Node10</title>
<g id="a_Node000010"><a xlink:title=" ">
<polygon fill="#e0e0e0" stroke="#999999" points="791.25,-19.25 738.5,-19.25 738.5,0 791.25,0 791.25,-19.25"/>
<text text-anchor="middle" x="764.88" y="-5.75" font-family="Helvetica,sans-Serif" font-size="10.00">complex</text>
</a>
</g>
</g>
<!-- Node3&#45;&gt;Node10 -->
<g id="edge9_Node000003_Node000010" class="edge">
<title>Node3&#45;&gt;Node10</title>
<g id="a_edge9_Node000003_Node000010"><a xlink:title=" ">
<path fill="none" stroke="#63b8ff" d="M681.76,-60.56C697.23,-51.26 721.7,-36.56 740.1,-25.51"/>
<polygon fill="#63b8ff" stroke="#63b8ff" points="741.78,-28.58 748.55,-20.43 738.18,-22.58 741.78,-28.58"/>
</a>
</g>
</g>
<!-- Node11&#45;&gt;Node3 -->
<g id="edge11_Node000011_Node000003" class="edge">
<title>Node11&#45;&gt;Node3</title>
<g id="a_edge11_Node000011_Node000003"><a xlink:title=" ">
<path fill="none" stroke="#63b8ff" d="M1068.8,-178C1065.78,-177.66 1062.8,-177.32 1059.88,-177 976.88,-167.89 749.74,-194.79 685.88,-141 671.68,-129.05 667.56,-107.61 666.6,-91.69"/>
<polygon fill="#63b8ff" stroke="#63b8ff" points="670.1,-91.84 666.41,-81.91 663.1,-91.98 670.1,-91.84"/>
</a>
</g>
</g>
<!-- Node11&#45;&gt;Node7 -->
<g id="edge23_Node000011_Node000007" class="edge">
<title>Node11&#45;&gt;Node7</title>
<g id="a_edge23_Node000011_Node000007"><a xlink:title=" ">
<path fill="none" stroke="#63b8ff" d="M1126.22,-176.5C1122.74,-167.56 1117.49,-153.49 1113.88,-141 1102.74,-102.51 1093.42,-56.58 1088.55,-30.79"/>
<polygon fill="#63b8ff" stroke="#63b8ff" points="1092.01,-30.26 1086.74,-21.06 1085.12,-31.53 1092.01,-30.26"/>
</a>
</g>
</g>
<!-- Node11&#45;&gt;Node8 -->
<g id="edge24_Node000011_Node000008" class="edge">
<title>Node11&#45;&gt;Node8</title>
<g id="a_edge24_Node000011_Node000008"><a xlink:title=" ">
<path fill="none" stroke="#63b8ff" d="M1068.8,-177.99C1065.79,-177.65 1062.8,-177.31 1059.88,-177 886.36,-158.33 834.6,-195.69 668.88,-141 623.94,-126.17 606.47,-123.45 577.88,-85.75 565.74,-69.74 560.61,-47.06 558.45,-30.82"/>
<polygon fill="#63b8ff" stroke="#63b8ff" points="561.94,-30.51 557.43,-20.92 554.98,-31.23 561.94,-30.51"/>
</a>
</g>
</g>
<!-- Node12 -->
<g id="Node000012" class="node">
<title>Node12</title>
<g id="a_Node000012"><a xlink:href="Ioss__ElementPermutation_8h.html" target="_top" xlink:title=" ">
<polygon fill="white" stroke="#666666" points="1023.25,-141 886.5,-141 886.5,-121.75 1023.25,-121.75 1023.25,-141"/>
<text text-anchor="middle" x="954.88" y="-127.5" font-family="Helvetica,sans-Serif" font-size="10.00">Ioss_ElementPermutation.h</text>
</a>
</g>
</g>
<!-- Node11&#45;&gt;Node12 -->
<g id="edge12_Node000011_Node000012" class="edge">
<title>Node11&#45;&gt;Node12</title>
<g id="a_edge12_Node000011_Node000012"><a xlink:title=" ">
<path fill="none" stroke="#63b8ff" d="M1100.19,-176.59C1071.4,-167.83 1027.51,-154.48 995.49,-144.73"/>
<polygon fill="#63b8ff" stroke="#63b8ff" points="996.74,-141.46 986.15,-141.89 994.7,-148.15 996.74,-141.46"/>
</a>
</g>
</g>
<!-- Node15 -->
<g id="Node000015" class="node">
<title>Node15</title>
<g id="a_Node000015"><a xlink:title=" ">
<polygon fill="#e0e0e0" stroke="#999999" points="873.25,-80.12 838.5,-80.12 838.5,-60.88 873.25,-60.88 873.25,-80.12"/>
<text text-anchor="middle" x="855.88" y="-66.62" font-family="Helvetica,sans-Serif" font-size="10.00">map</text>
</a>
</g>
</g>
<!-- Node11&#45;&gt;Node15 -->
<g id="edge21_Node000011_Node000015" class="edge">
<title>Node11&#45;&gt;Node15</title>
<g id="a_edge21_Node000011_Node000015"><a xlink:title=" ">
<path fill="none" stroke="#63b8ff" d="M1068.78,-178.15C998.86,-169.09 892.1,-153.47 877.88,-141 863.76,-128.62 858.61,-107.25 856.78,-91.47"/>
<polygon fill="#63b8ff" stroke="#63b8ff" points="860.3,-91.5 856.04,-81.8 853.32,-92.04 860.3,-91.5"/>
</a>
</g>
</g>
<!-- Node11&#45;&gt;Node17 -->
<g id="edge25_Node000011_Node000017" class="edge">
<title>Node11&#45;&gt;Node17</title>
<g id="a_edge25_Node000011_Node000017"><a xlink:title=" ">
<path fill="none" stroke="#63b8ff" d="M1138.6,-176.56C1146.16,-168.09 1156.69,-154.73 1161.88,-141 1167.85,-125.19 1169.39,-106 1169.56,-91.8"/>
<polygon fill="#63b8ff" stroke="#63b8ff" points="1173.06,-91.86 1169.43,-81.9 1166.06,-91.95 1173.06,-91.86"/>
</a>
</g>
</g>
<!-- Node18 -->
<g id="Node000018" class="node">
<title>Node18</title>
<g id="a_Node000018"><a xlink:title=" ">
<polygon fill="#e0e0e0" stroke="#999999" points="1152.62,-141 1123.12,-141 1123.12,-121.75 1152.62,-121.75 1152.62,-141"/>
<text text-anchor="middle" x="1137.88" y="-127.5" font-family="Helvetica,sans-Serif" font-size="10.00">set</text>
</a>
</g>
</g>
<!-- Node11&#45;&gt;Node18 -->
<g id="edge22_Node000011_Node000018" class="edge">
<title>Node11&#45;&gt;Node18</title>
<g id="a_edge22_Node000011_Node000018"><a xlink:title=" ">
<path fill="none" stroke="#63b8ff" d="M1131.2,-176.83C1132.19,-170.24 1133.58,-160.96 1134.84,-152.57"/>
<polygon fill="#63b8ff" stroke="#63b8ff" points="1138.28,-153.26 1136.3,-142.86 1131.35,-152.22 1138.28,-153.26"/>
</a>
</g>
</g>
<!-- Node12&#45;&gt;Node3 -->
<g id="edge13_Node000012_Node000003" class="edge">
<title>Node12&#45;&gt;Node3</title>
<g id="a_edge13_Node000012_Node000003"><a xlink:title=" ">
<path fill="none" stroke="#63b8ff" d="M910.51,-121.3C859.98,-110.98 777.35,-94.08 722.55,-82.88"/>
<polygon fill="#63b8ff" stroke="#63b8ff" points="723.28,-79.46 712.78,-80.88 721.87,-86.32 723.28,-79.46"/>
</a>
</g>
</g>
<!-- Node12&#45;&gt;Node7 -->
<g id="edge18_Node000012_Node000007" class="edge">
<title>Node12&#45;&gt;Node7</title>
<g id="a_edge18_Node000012_Node000007"><a xlink:title=" ">
<path fill="none" stroke="#63b8ff" d="M985.22,-121.31C1004.77,-114.21 1029.66,-102.68 1046.88,-85.75 1062.64,-70.25 1073.04,-46.83 1078.92,-30.27"/>
<polygon fill="#63b8ff" stroke="#63b8ff" points="1082.14,-31.66 1081.93,-21.07 1075.49,-29.48 1082.14,-31.66"/>
</a>
</g>
</g>
<!-- Node12&#45;&gt;Node8 -->
<g id="edge19_Node000012_Node000008" class="edge">
<title>Node12&#45;&gt;Node8</title>
<g id="a_edge19_Node000012_Node000008"><a xlink:title=" ">
<path fill="none" stroke="#63b8ff" d="M947.58,-121.52C932.49,-103.42 897.91,-63.24 881.88,-55.25 767.22,1.91 722.11,-41.11 595.88,-19.25 593.86,-18.9 591.79,-18.52 589.71,-18.11"/>
<polygon fill="#63b8ff" stroke="#63b8ff" points="590.65,-14.74 580.15,-16.13 589.23,-21.59 590.65,-14.74"/>
</a>
</g>
</g>
<!-- Node13 -->
<g id="Node000013" class="node">
<title>Node13</title>
<g id="a_Node000013"><a xlink:title=" ">
<polygon fill="#e0e0e0" stroke="#999999" points="980.5,-80.12 929.25,-80.12 929.25,-60.88 980.5,-60.88 980.5,-80.12"/>
<text text-anchor="middle" x="954.88" y="-66.62" font-family="Helvetica,sans-Serif" font-size="10.00">assert.h</text>
</a>
</g>
</g>
<!-- Node12&#45;&gt;Node13 -->
<g id="edge14_Node000012_Node000013" class="edge">
<title>Node12&#45;&gt;Node13</title>
<g id="a_edge14_Node000012_Node000013"><a xlink:title=" ">
<path fill="none" stroke="#63b8ff" d="M954.88,-121.43C954.88,-113.65 954.88,-102.08 954.88,-92.03"/>
<polygon fill="#63b8ff" stroke="#63b8ff" points="958.38,-92.04 954.88,-82.04 951.38,-92.04 958.38,-92.04"/>
</a>
</g>
</g>
<!-- Node14 -->
<g id="Node000014" class="node">
<title>Node14</title>
<g id="a_Node000014"><a xlink:title=" ">
<polygon fill="#e0e0e0" stroke="#999999" points="1037.5,-80.12 998.25,-80.12 998.25,-60.88 1037.5,-60.88 1037.5,-80.12"/>
<text text-anchor="middle" x="1017.88" y="-66.62" font-family="Helvetica,sans-Serif" font-size="10.00">limits</text>
</a>
</g>
</g>
<!-- Node12&#45;&gt;Node14 -->
<g id="edge15_Node000012_Node000014" class="edge">
<title>Node12&#45;&gt;Node14</title>
<g id="a_edge15_Node000012_Node000014"><a xlink:title=" ">
<path fill="none" stroke="#63b8ff" d="M964.44,-121.43C973.88,-112.62 988.53,-98.93 1000.1,-88.11"/>
<polygon fill="#63b8ff" stroke="#63b8ff" points="1002.19,-90.94 1007.11,-81.56 997.41,-85.83 1002.19,-90.94"/>
</a>
</g>
</g>
<!-- Node12&#45;&gt;Node15 -->
<g id="edge16_Node000012_Node000015" class="edge">
<title>Node12&#45;&gt;Node15</title>
<g id="a_edge16_Node000012_Node000015"><a xlink:title=" ">
<path fill="none" stroke="#63b8ff" d="M939.84,-121.43C924.21,-112.14 899.49,-97.44 880.91,-86.39"/>
<polygon fill="#63b8ff" stroke="#63b8ff" points="882.74,-83.4 872.35,-81.3 879.16,-89.42 882.74,-83.4"/>
</a>
</g>
</g>
<!-- Node16 -->
<g id="Node000016" class="node">
<title>Node16</title>
<g id="a_Node000016"><a xlink:title=" ">
<polygon fill="#e0e0e0" stroke="#999999" points="820,-80.12 771.75,-80.12 771.75,-60.88 820,-60.88 820,-80.12"/>
<text text-anchor="middle" x="795.88" y="-66.62" font-family="Helvetica,sans-Serif" font-size="10.00">stdint.h</text>
</a>
</g>
</g>
<!-- Node12&#45;&gt;Node16 -->
<g id="edge17_Node000012_Node000016" class="edge">
<title>Node12&#45;&gt;Node16</title>
<g id="a_edge17_Node000012_Node000016"><a xlink:title=" ">
<path fill="none" stroke="#63b8ff" d="M928.39,-121.38C902.98,-112.65 863.61,-98.83 829.88,-85.75 829.09,-85.45 828.3,-85.14 827.5,-84.82"/>
<polygon fill="#63b8ff" stroke="#63b8ff" points="829.01,-81.66 818.43,-81.14 826.38,-88.14 829.01,-81.66"/>
</a>
</g>
</g>
<!-- Node12&#45;&gt;Node17 -->
<g id="edge20_Node000012_Node000017" class="edge">
<title>Node12&#45;&gt;Node17</title>
<g id="a_edge20_Node000012_Node000017"><a xlink:title=" ">
<path fill="none" stroke="#63b8ff" d="M987.84,-121.3C1024.6,-111.19 1084.22,-94.79 1124.93,-83.59"/>
<polygon fill="#63b8ff" stroke="#63b8ff" points="1125.7,-87.01 1134.41,-80.98 1123.84,-80.26 1125.7,-87.01"/>
</a>
</g>
</g>
<!-- Node20&#45;&gt;Node3 -->
<g id="edge28_Node000020_Node000003" class="edge">
<title>Node20&#45;&gt;Node3</title>
<g id="a_edge28_Node000020_Node000003"><a xlink:title=" ">
<path fill="none" stroke="#63b8ff" d="M720.31,-121.43C710.87,-112.62 696.22,-98.93 684.65,-88.11"/>
<polygon fill="#63b8ff" stroke="#63b8ff" points="687.34,-85.83 677.64,-81.56 682.56,-90.94 687.34,-85.83"/>
</a>
</g>
</g>
<!-- Node20&#45;&gt;Node5 -->
<g id="edge29_Node000020_Node000005" class="edge">
<title>Node20&#45;&gt;Node5</title>
<g id="a_edge29_Node000020_Node000005"><a xlink:title=" ">
<path fill="none" stroke="#63b8ff" d="M694.92,-128.88C600.12,-124.51 343.36,-110.49 314.88,-85.75 299.42,-72.33 295.62,-48.32 295.09,-31.06"/>
<polygon fill="#63b8ff" stroke="#63b8ff" points="298.59,-31.22 295.15,-21.2 291.59,-31.18 298.59,-31.22"/>
</a>
</g>
</g>
<!-- Node20&#45;&gt;Node7 -->
<g id="edge31_Node000020_Node000007" class="edge">
<title>Node20&#45;&gt;Node7</title>
<g id="a_edge31_Node000020_Node000007"><a xlink:title=" ">
<path fill="none" stroke="#63b8ff" d="M730.98,-121.48C733.48,-105.4 741.17,-71.66 762.88,-55.25 808.2,-20.99 981.42,-13.02 1053.32,-11.17"/>
<polygon fill="#63b8ff" stroke="#63b8ff" points="1053.3,-14.67 1063.22,-10.95 1053.14,-7.68 1053.3,-14.67"/>
</a>
</g>
</g>
<!-- Node20&#45;&gt;Node8 -->
<g id="edge32_Node000020_Node000008" class="edge">
<title>Node20&#45;&gt;Node8</title>
<g id="a_edge32_Node000020_Node000008"><a xlink:title=" ">
<path fill="none" stroke="#63b8ff" d="M694.75,-123.43C668.97,-116.99 634.18,-105.36 608.88,-85.75 589.52,-70.75 574.6,-46.52 565.8,-29.65"/>
<polygon fill="#63b8ff" stroke="#63b8ff" points="568.95,-28.12 561.38,-20.71 562.67,-31.22 568.95,-28.12"/>
</a>
</g>
</g>
<!-- Node20&#45;&gt;Node16 -->
<g id="edge30_Node000020_Node000016" class="edge">
<title>Node20&#45;&gt;Node16</title>
<g id="a_edge30_Node000020_Node000016"><a xlink:title=" ">
<path fill="none" stroke="#63b8ff" d="M739.9,-121.43C749.78,-112.62 765.13,-98.93 777.26,-88.11"/>
<polygon fill="#63b8ff" stroke="#63b8ff" points="779.49,-90.8 784.63,-81.53 774.83,-85.58 779.49,-90.8"/>
</a>
</g>
</g>
<!-- Node20&#45;&gt;Node17 -->
<g id="edge33_Node000020_Node000017" class="edge">
<title>Node20&#45;&gt;Node17</title>
<g id="a_edge33_Node000020_Node000017"><a xlink:title=" ">
<path fill="none" stroke="#63b8ff" d="M764.69,-125.71C842.5,-115.27 1030.67,-90.03 1120.1,-78.04"/>
<polygon fill="#63b8ff" stroke="#63b8ff" points="1120.33,-81.54 1129.77,-76.74 1119.4,-74.6 1120.33,-81.54"/>
</a>
</g>
</g>
<!-- Node21&#45;&gt;Node6 -->
<g id="edge36_Node000021_Node000006" class="edge">
<title>Node21&#45;&gt;Node6</title>
<g id="a_edge36_Node000021_Node000006"><a xlink:title=" ">
<path fill="none" stroke="#63b8ff" d="M1303.21,-121.37C1316.09,-112.95 1335.18,-99.62 1349.88,-85.75 1368.64,-68.05 1387.06,-44.76 1398.88,-28.83"/>
<polygon fill="#63b8ff" stroke="#63b8ff" points="1401.69,-30.93 1404.74,-20.79 1396.03,-26.81 1401.69,-30.93"/>
</a>
</g>
</g>
<!-- Node21&#45;&gt;Node7 -->
<g id="edge37_Node000021_Node000007" class="edge">
<title>Node21&#45;&gt;Node7</title>
<g id="a_edge37_Node000021_Node000007"><a xlink:title=" ">
<path fill="none" stroke="#63b8ff" d="M1297.28,-121.56C1310.63,-106.48 1333.54,-75.43 1316.88,-55.25 1291.82,-24.91 1174.02,-14.98 1116.55,-11.91"/>
<polygon fill="#63b8ff" stroke="#63b8ff" points="1116.94,-8.43 1106.78,-11.43 1116.59,-15.42 1116.94,-8.43"/>
</a>
</g>
</g>
<!-- Node21&#45;&gt;Node8 -->
<g id="edge39_Node000021_Node000008" class="edge">
<title>Node21&#45;&gt;Node8</title>
<g id="a_edge39_Node000021_Node000008"><a xlink:title=" ">
<path fill="none" stroke="#63b8ff" d="M1281.51,-121.43C1266.27,-103.17 1231.3,-62.69 1214.88,-55.25 1089.37,1.63 732.36,-38.19 595.88,-19.25 593.85,-18.97 591.78,-18.64 589.69,-18.27"/>
<polygon fill="#63b8ff" stroke="#63b8ff" points="590.6,-14.89 580.11,-16.37 589.24,-21.75 590.6,-14.89"/>
</a>
</g>
</g>
<!-- Node21&#45;&gt;Node17 -->
<g id="edge35_Node000021_Node000017" class="edge">
<title>Node21&#45;&gt;Node17</title>
<g id="a_edge35_Node000021_Node000017"><a xlink:title=" ">
<path fill="none" stroke="#63b8ff" d="M1270.39,-121.3C1250.86,-111.73 1219.84,-96.5 1197.22,-85.41"/>
<polygon fill="#63b8ff" stroke="#63b8ff" points="1199.06,-82.41 1188.54,-81.15 1195.98,-88.7 1199.06,-82.41"/>
</a>
</g>
</g>
<!-- Node22 -->
<g id="Node000022" class="node">
<title>Node22</title>
<g id="a_Node000022"><a xlink:title=" ">
<polygon fill="#e0e0e0" stroke="#999999" points="1307.5,-80.12 1262.25,-80.12 1262.25,-60.88 1307.5,-60.88 1307.5,-80.12"/>
<text text-anchor="middle" x="1284.88" y="-66.62" font-family="Helvetica,sans-Serif" font-size="10.00">variant</text>
</a>
</g>
</g>
<!-- Node21&#45;&gt;Node22 -->
<g id="edge38_Node000021_Node000022" class="edge">
<title>Node21&#45;&gt;Node22</title>
<g id="a_edge38_Node000021_Node000022"><a xlink:title=" ">
<path fill="none" stroke="#63b8ff" d="M1288.27,-121.43C1287.73,-113.57 1286.94,-101.82 1286.25,-91.7"/>
<polygon fill="#63b8ff" stroke="#63b8ff" points="1289.76,-91.78 1285.59,-82.04 1282.78,-92.25 1289.76,-91.78"/>
</a>
</g>
</g>
<!-- Node23&#45;&gt;Node5 -->
<g id="edge47_Node000023_Node000005" class="edge">
<title>Node23&#45;&gt;Node5</title>
<g id="a_edge47_Node000023_Node000005"><a xlink:title=" ">
<path fill="none" stroke="#63b8ff" d="M209.94,-121.39C215.28,-106.59 227.3,-76.62 243.88,-55.25 252.27,-44.42 263.64,-34.3 273.61,-26.45"/>
<polygon fill="#63b8ff" stroke="#63b8ff" points="275.51,-29.39 281.38,-20.57 271.29,-23.81 275.51,-29.39"/>
</a>
</g>
</g>
<!-- Node23&#45;&gt;Node8 -->
<g id="edge48_Node000023_Node000008" class="edge">
<title>Node23&#45;&gt;Node8</title>
<g id="a_edge48_Node000023_Node000008"><a xlink:title=" ">
<path fill="none" stroke="#63b8ff" d="M240.24,-129.31C289.55,-126.67 383.91,-117.51 456.88,-85.75 465.7,-81.91 510.23,-47.38 536.81,-26.49"/>
<polygon fill="#63b8ff" stroke="#63b8ff" points="538.81,-29.37 544.49,-20.44 534.47,-23.88 538.81,-29.37"/>
</a>
</g>
</g>
<!-- Node24 -->
<g id="Node000024" class="node">
<title>Node24</title>
<g id="a_Node000024"><a xlink:href="pdqsort_8h.html" target="_top" xlink:title=" ">
<polygon fill="white" stroke="#666666" points="192.12,-80.12 135.62,-80.12 135.62,-60.88 192.12,-60.88 192.12,-80.12"/>
<text text-anchor="middle" x="163.88" y="-66.62" font-family="Helvetica,sans-Serif" font-size="10.00">pdqsort.h</text>
</a>
</g>
</g>
<!-- Node23&#45;&gt;Node24 -->
<g id="edge41_Node000023_Node000024" class="edge">
<title>Node23&#45;&gt;Node24</title>
<g id="a_edge41_Node000023_Node000024"><a xlink:title=" ">
<path fill="none" stroke="#63b8ff" d="M200.34,-121.43C194.22,-113.05 184.88,-100.26 177.18,-89.72"/>
<polygon fill="#63b8ff" stroke="#63b8ff" points="180.08,-87.76 171.36,-81.75 174.43,-91.89 180.08,-87.76"/>
</a>
</g>
</g>
<!-- Node24&#45;&gt;Node5 -->
<g id="edge43_Node000024_Node000005" class="edge">
<title>Node24&#45;&gt;Node5</title>
<g id="a_edge43_Node000024_Node000005"><a xlink:title=" ">
<path fill="none" stroke="#63b8ff" d="M184.21,-60.43C205.88,-50.76 240.43,-35.35 265.37,-24.23"/>
<polygon fill="#63b8ff" stroke="#63b8ff" points="266.64,-27.5 274.35,-20.23 263.79,-21.1 266.64,-27.5"/>
</a>
</g>
</g>
<!-- Node24&#45;&gt;Node25 -->
<g id="edge42_Node000024_Node000025" class="edge">
<title>Node24&#45;&gt;Node25</title>
<g id="a_edge42_Node000024_Node000025"><a xlink:title=" ">
<path fill="none" stroke="#63b8ff" d="M142.92,-60.43C120.5,-50.72 84.68,-35.21 58.96,-24.08"/>
<polygon fill="#63b8ff" stroke="#63b8ff" points="60.58,-20.97 50.02,-20.21 57.8,-27.39 60.58,-20.97"/>
</a>
</g>
</g>
<!-- Node26 -->
<g id="Node000026" class="node">
<title>Node26</title>
<g id="a_Node000026"><a xlink:title=" ">
<polygon fill="#e0e0e0" stroke="#999999" points="189.88,-19.25 131.88,-19.25 131.88,0 189.88,0 189.88,-19.25"/>
<text text-anchor="middle" x="160.88" y="-5.75" font-family="Helvetica,sans-Serif" font-size="10.00">functional</text>
</a>
</g>
</g>
<!-- Node24&#45;&gt;Node26 -->
<g id="edge44_Node000024_Node000026" class="edge">
<title>Node24&#45;&gt;Node26</title>
<g id="a_edge44_Node000024_Node000026"><a xlink:title=" ">
<path fill="none" stroke="#63b8ff" d="M163.42,-60.56C163.02,-52.69 162.42,-40.95 161.9,-30.82"/>
<polygon fill="#63b8ff" stroke="#63b8ff" points="165.42,-30.97 161.41,-21.16 158.43,-31.33 165.42,-30.97"/>
</a>
</g>
</g>
<!-- Node27 -->
<g id="Node000027" class="node">
<title>Node27</title>
<g id="a_Node000027"><a xlink:title=" ">
<polygon fill="#e0e0e0" stroke="#999999" points="253.88,-19.25 207.88,-19.25 207.88,0 253.88,0 253.88,-19.25"/>
<text text-anchor="middle" x="230.88" y="-5.75" font-family="Helvetica,sans-Serif" font-size="10.00">iterator</text>
</a>
</g>
</g>
<!-- Node24&#45;&gt;Node27 -->
<g id="edge45_Node000024_Node000027" class="edge">
<title>Node24&#45;&gt;Node27</title>
<g id="a_edge45_Node000024_Node000027"><a xlink:title=" ">
<path fill="none" stroke="#63b8ff" d="M174.05,-60.56C184.09,-51.74 199.66,-38.05 211.97,-27.23"/>
<polygon fill="#63b8ff" stroke="#63b8ff" points="214.26,-29.88 219.47,-20.65 209.64,-24.62 214.26,-29.88"/>
</a>
</g>
</g>
<!-- Node28 -->
<g id="Node000028" class="node">
<title>Node28</title>
<g id="a_Node000028"><a xlink:title=" ">
<polygon fill="#e0e0e0" stroke="#999999" points="113.5,-19.25 74.25,-19.25 74.25,0 113.5,0 113.5,-19.25"/>
<text text-anchor="middle" x="93.88" y="-5.75" font-family="Helvetica,sans-Serif" font-size="10.00">utility</text>
</a>
</g>
</g>
<!-- Node24&#45;&gt;Node28 -->
<g id="edge46_Node000024_Node000028" class="edge">
<title>Node24&#45;&gt;Node28</title>
<g id="a_edge46_Node000024_Node000028"><a xlink:title=" ">
<path fill="none" stroke="#63b8ff" d="M153.24,-60.56C142.66,-51.65 126.16,-37.78 113.25,-26.92"/>
<polygon fill="#63b8ff" stroke="#63b8ff" points="115.67,-24.38 105.76,-20.63 111.17,-29.74 115.67,-24.38"/>
</a>
</g>
</g>
<!-- Node34&#45;&gt;Node4 -->
<g id="edge62_Node000034_Node000004" class="edge">
<title>Node34&#45;&gt;Node4</title>
<g id="a_edge62_Node000034_Node000004"><a xlink:title=" ">
<path fill="none" stroke="#63b8ff" d="M409.11,-54.95C423.29,-46.07 441.37,-34.74 455.71,-25.76"/>
<polygon fill="#63b8ff" stroke="#63b8ff" points="457.48,-28.78 464.1,-20.5 453.77,-22.85 457.48,-28.78"/>
</a>
</g>
</g>
<!-- Node34&#45;&gt;Node8 -->
<g id="edge63_Node000034_Node000008" class="edge">
<title>Node34&#45;&gt;Node8</title>
<g id="a_edge63_Node000034_Node000008"><a xlink:title=" ">
<path fill="none" stroke="#63b8ff" d="M428.58,-54.8C458.19,-44.6 497.01,-31.24 524.16,-21.89"/>
<polygon fill="#63b8ff" stroke="#63b8ff" points="525.28,-25.21 533.6,-18.64 523,-18.59 525.28,-25.21"/>
</a>
</g>
</g>
<!-- Node35 -->
<g id="Node000035" class="node">
<title>Node35</title>
<g id="a_Node000035"><a xlink:title=" ">
<polygon fill="#e0e0e0" stroke="#999999" points="436.12,-19.25 337.62,-19.25 337.62,0 436.12,0 436.12,-19.25"/>
<text text-anchor="middle" x="386.88" y="-5.75" font-family="Helvetica,sans-Serif" font-size="10.00">iocatalyst_export.h</text>
</a>
</g>
</g>
<!-- Node34&#45;&gt;Node35 -->
<g id="edge61_Node000034_Node000035" class="edge">
<title>Node34&#45;&gt;Node35</title>
<g id="a_edge61_Node000034_Node000035"><a xlink:title=" ">
<path fill="none" stroke="#63b8ff" d="M386.12,-54.95C386.25,-47.71 386.4,-38.84 386.53,-30.94"/>
<polygon fill="#63b8ff" stroke="#63b8ff" points="390.02,-31.27 386.7,-21.21 383.03,-31.15 390.02,-31.27"/>
</a>
</g>
</g>
</g>
</svg>

<g id="navigator" transform="translate(0 0)" fill="#404254">
  <rect fill="#f2f5e9" fill-opacity="0.5" stroke="#606060" stroke-width=".5" x="0" y="0" width="60" height="60"/>
  <use id="zoomplus" xlink:href="#zoomPlus" x="17" y="9" onmousedown="handleZoom(evt,'in')"/>
  <use id="zoomminus" xlink:href="#zoomMin" x="42" y="9" onmousedown="handleZoom(evt,'out')"/>
  <use id="reset" xlink:href="#resetDef" x="30" y="36" onmousedown="handleReset()"/>
   <use id="arrowup" xlink:href="#arrowUp" x="0" y="0" onmousedown="handlePan(0,-1)"/>
  <use id="arrowright" xlink:href="#arrowRight" x="0" y="0" onmousedown="handlePan(1,0)"/>
  <use id="arrowdown" xlink:href="#arrowDown" x="0" y="0" onmousedown="handlePan(0,1)"/>
  <use id="arrowleft" xlink:href="#arrowLeft" x="0" y="0" onmousedown="handlePan(-1,0)"/>
</g>
<svg viewBox="0 0 15 15" width="100%" height="30px" preserveAspectRatio="xMaxYMin meet">
 <g id="arrow_out" transform="scale(0.3 0.3)">
  <a xlink:href="Iocatalyst__BlockMesh_8C__incl_org.svg" target="_base">
   <rect id="button" ry="5" rx="5" y="6" x="6" height="38" width="38"
        fill="#f2f5e9" fill-opacity="0.5" stroke="#606060" stroke-width="1.0"/>
   <path id="arrow"
     d="M 11.500037,31.436501 C 11.940474,20.09759 22.043105,11.32322 32.158766,21.979434 L 37.068811,17.246167 C 37.068811,17.246167 37.088388,32 37.088388,32 L 22.160133,31.978069 C 22.160133,31.978069 26.997745,27.140456 26.997745,27.140456 C 18.528582,18.264221 13.291696,25.230495 11.500037,31.436501 z"
     style="fill:#404040;"/>
  </a>
 </g>
</svg>

<style type='text/css'>
<![CDATA[
[data-mouse-over-selected='false'] { opacity: 0.7; }
[data-mouse-over-selected='true']  { opacity: 1.0; }
]]>
</style>
<script type="application/ecmascript"><![CDATA[
document.addEventListener('DOMContentLoaded', (event) => {
  highlightEdges();
  highlightAdjacentNodes();
});
]]></script>
</svg>
