<?xml version="1.0" encoding="UTF-8" standalone="no"?>
<!DOCTYPE svg PUBLIC "-//W3C//DTD SVG 1.1//EN"
 "http://www.w3.org/Graphics/SVG/1.1/DTD/svg11.dtd">
<!-- Generated by graphviz version 7.1.0 (20230121.1956)
 -->
<!-- Title: src/exodus/Ioex_SuperElement.h Pages: 1 -->
<svg width="342pt" height="82pt"
 viewBox="0.00 0.00 341.50 82.00" xmlns="http://www.w3.org/2000/svg" xmlns:xlink="http://www.w3.org/1999/xlink">
<g id="graph0" class="graph" transform="scale(1 1) rotate(0) translate(4 78)">
<title>src/exodus/Ioex_SuperElement.h</title>
<!-- Node1 -->
<g id="node1" class="node">
<title>Node1</title>
<g id="a_node1"><a xlink:title=" ">
<polygon fill="#999999" stroke="#666666" points="250.5,-74 89.5,-74 89.5,-55 250.5,-55 250.5,-74"/>
<text text-anchor="middle" x="170" y="-62" font-family="Helvetica,sans-Serif" font-size="10.00">src/exodus/Ioex_SuperElement.h</text>
</a>
</g>
</g>
<!-- Node2 -->
<g id="node2" class="node">
<title>Node2</title>
<g id="a_node2"><a xlink:href="Ioex__SuperElement_8C.html" target="_top" xlink:title=" ">
<polygon fill="white" stroke="#666666" points="164,-19 0,-19 0,0 164,0 164,-19"/>
<text text-anchor="middle" x="82" y="-7" font-family="Helvetica,sans-Serif" font-size="10.00">src/exodus/Ioex_SuperElement.C</text>
</a>
</g>
</g>
<!-- Node1&#45;&gt;Node2 -->
<g id="edge1" class="edge">
<title>Node1&#45;&gt;Node2</title>
<path fill="none" stroke="#63b8ff" d="M145.48,-48.73C129.8,-39.29 109.99,-27.36 96.71,-19.36"/>
<polygon fill="#63b8ff" stroke="#63b8ff" points="143.4,-51.57 153.78,-53.73 147.01,-45.57 143.4,-51.57"/>
</g>
<!-- Node3 -->
<g id="node3" class="node">
<title>Node3</title>
<g id="a_node3"><a xlink:href="Utst__superelement_8C.html" target="_top" xlink:title=" ">
<polygon fill="white" stroke="#666666" points="333.5,-19 182.5,-19 182.5,0 333.5,0 333.5,-19"/>
<text text-anchor="middle" x="258" y="-7" font-family="Helvetica,sans-Serif" font-size="10.00">src/utest/Utst_superelement.C</text>
</a>
</g>
</g>
<!-- Node1&#45;&gt;Node3 -->
<g id="edge2" class="edge">
<title>Node1&#45;&gt;Node3</title>
<path fill="none" stroke="#63b8ff" d="M194.52,-48.73C210.2,-39.29 230.01,-27.36 243.29,-19.36"/>
<polygon fill="#63b8ff" stroke="#63b8ff" points="192.99,-45.57 186.22,-53.73 196.6,-51.57 192.99,-45.57"/>
</g>
</g>
</svg>
