<?xml version="1.0" encoding="UTF-8" standalone="no"?>
<!DOCTYPE svg PUBLIC "-//W3C//DTD SVG 1.1//EN"
 "http://www.w3.org/Graphics/SVG/1.1/DTD/svg11.dtd">
<!-- Generated by graphviz version 10.0.1 (20240210.2158)
 -->
<!-- Title: src/exodus/Ioex_Internals.h Pages: 1 -->
<svg width="514pt" height="83pt"
 viewBox="0.00 0.00 513.75 82.50" xmlns="http://www.w3.org/2000/svg" xmlns:xlink="http://www.w3.org/1999/xlink">
<g id="graph0" class="graph" transform="scale(1 1) rotate(0) translate(4 78.5)">
<title>src/exodus/Ioex_Internals.h</title>
<!-- Node1 -->
<g id="Node000001" class="node">
<title>Node1</title>
<g id="a_Node000001"><a xlink:title=" ">
<polygon fill="#999999" stroke="#666666" points="339.62,-74.5 202.88,-74.5 202.88,-55.25 339.62,-55.25 339.62,-74.5"/>
<text text-anchor="middle" x="271.25" y="-61" font-family="Helvetica,sans-Serif" font-size="10.00">src/exodus/Ioex_Internals.h</text>
</a>
</g>
</g>
<!-- Node2 -->
<g id="Node000002" class="node">
<title>Node2</title>
<g id="a_Node000002"><a xlink:href="Ioex__BaseDatabaseIO_8C.html" target="_top" xlink:title=" ">
<polygon fill="white" stroke="#666666" points="176.5,-19.25 0,-19.25 0,0 176.5,0 176.5,-19.25"/>
<text text-anchor="middle" x="88.25" y="-5.75" font-family="Helvetica,sans-Serif" font-size="10.00">src/exodus/Ioex_BaseDatabaseIO.C</text>
</a>
</g>
</g>
<!-- Node1&#45;&gt;Node2 -->
<g id="edge1_Node000001_Node000002" class="edge">
<title>Node1&#45;&gt;Node2</title>
<g id="a_edge1_Node000001_Node000002"><a xlink:title=" ">
<path fill="none" stroke="#63b8ff" d="M229.38,-51.69C195.91,-41.95 149.73,-28.52 119.45,-19.7"/>
<polygon fill="#63b8ff" stroke="#63b8ff" points="228.17,-54.99 238.75,-54.42 230.13,-48.26 228.17,-54.99"/>
</a>
</g>
</g>
<!-- Node3 -->
<g id="Node000003" class="node">
<title>Node3</title>
<g id="a_Node000003"><a xlink:href="Ioex__DatabaseIO_8C.html" target="_top" xlink:title=" ">
<polygon fill="white" stroke="#666666" points="348.25,-19.25 194.25,-19.25 194.25,0 348.25,0 348.25,-19.25"/>
<text text-anchor="middle" x="271.25" y="-5.75" font-family="Helvetica,sans-Serif" font-size="10.00">src/exodus/Ioex_DatabaseIO.C</text>
</a>
</g>
</g>
<!-- Node1&#45;&gt;Node3 -->
<g id="edge2_Node000001_Node000003" class="edge">
<title>Node1&#45;&gt;Node3</title>
<g id="a_edge2_Node000001_Node000003"><a xlink:title=" ">
<path fill="none" stroke="#63b8ff" d="M271.25,-43.63C271.25,-35.34 271.25,-26.17 271.25,-19.61"/>
<polygon fill="#63b8ff" stroke="#63b8ff" points="267.75,-43.57 271.25,-53.57 274.75,-43.57 267.75,-43.57"/>
</a>
</g>
</g>
<!-- Node4 -->
<g id="Node000004" class="node">
<title>Node4</title>
<g id="a_Node000004"><a xlink:href="Ioex__Internals_8C.html" target="_top" xlink:title=" ">
<polygon fill="white" stroke="#666666" points="505.75,-19.25 366.75,-19.25 366.75,0 505.75,0 505.75,-19.25"/>
<text text-anchor="middle" x="436.25" y="-5.75" font-family="Helvetica,sans-Serif" font-size="10.00">src/exodus/Ioex_Internals.C</text>
</a>
</g>
</g>
<!-- Node1&#45;&gt;Node4 -->
<g id="edge3_Node000001_Node000004" class="edge">
<title>Node1&#45;&gt;Node4</title>
<g id="a_edge3_Node000001_Node000004"><a xlink:title=" ">
<path fill="none" stroke="#63b8ff" d="M310.19,-51.31C340.26,-41.6 381.17,-28.4 408.12,-19.7"/>
<polygon fill="#63b8ff" stroke="#63b8ff" points="309.12,-47.97 300.68,-54.38 311.27,-54.64 309.12,-47.97"/>
</a>
</g>
</g>
</g>
</svg>
