<?xml version="1.0" encoding="UTF-8" standalone="no"?>
<!DOCTYPE svg PUBLIC "-//W3C//DTD SVG 1.1//EN"
 "http://www.w3.org/Graphics/SVG/1.1/DTD/svg11.dtd">
<!-- Generated by graphviz version 3.0.0 (20220226.1711)
 -->
<!-- Title: src/exodus/Ioex_Internals.h Pages: 1 -->
<!--zoomable 364 -->
<svg id="main" version="1.1" xmlns="http://www.w3.org/2000/svg" xmlns:xlink="http://www.w3.org/1999/xlink" xml:space="preserve" onload="init(evt)">
<style type="text/css"><![CDATA[
.edge:hover path { stroke: red; }
.edge:hover polygon { stroke: red; fill: red; }
]]></style>
<script type="text/javascript"><![CDATA[
var edges = document.getElementsByTagName('g');
if (edges && edges.length) {
  for (var i=0;i<edges.length;i++) {
    if (edges[i].id.substr(0,4)=='edge') {
      edges[i].setAttribute('class','edge');
    }
  }
}
]]></script>
        <defs>
                <circle id="rim" cx="0" cy="0" r="7"/>
                <circle id="rim2" cx="0" cy="0" r="3.5"/>
                <g id="zoomPlus">
                        <use xlink:href="#rim" fill="#404040">
                                <set attributeName="fill" to="#808080" begin="zoomplus.mouseover" end="zoomplus.mouseout"/>
                        </use>
                        <path d="M-4,0h8M0,-4v8" fill="none" stroke="white" stroke-width="1.5" pointer-events="none"/>
                </g>
                <g id="zoomMin">
                        <use xlink:href="#rim" fill="#404040">
                                <set attributeName="fill" to="#808080" begin="zoomminus.mouseover" end="zoomminus.mouseout"/>
                        </use>
                        <path d="M-4,0h8" fill="none" stroke="white" stroke-width="1.5" pointer-events="none"/>
                </g>
                <g id="dirArrow">
                        <path fill="none" stroke="white" stroke-width="1.5" d="M0,-3.0v7 M-2.5,-0.5L0,-3.0L2.5,-0.5"/>
                </g>
               <g id="resetDef">
                       <use xlink:href="#rim2" fill="#404040">
                               <set attributeName="fill" to="#808080" begin="reset.mouseover" end="reset.mouseout"/>
                       </use>
               </g>
        </defs>

<script type="text/javascript">
var viewWidth = 1292;
var viewHeight = 364;
var sectionId = 'dynsection-0';
</script>
<script xlink:href="svgpan.js"/>
<svg id="graph" class="graph">
<g id="viewport">
<title>src/exodus/Ioex_Internals.h</title>
<polygon fill="white" stroke="transparent" points="-4,4 -4,-360 1288,-360 1288,4 -4,4"/>
<!-- Node1 -->
<g id="node1" class="node">
<title>Node1</title>
<g id="a_node1"><a xlink:title=" ">
<polygon fill="#bfbfbf" stroke="black" points="785.5,-336.5 785.5,-355.5 922.5,-355.5 922.5,-336.5 785.5,-336.5"/>
<text text-anchor="middle" x="854" y="-343.5" font-family="Helvetica,sans-Serif" font-size="10.00">src/exodus/Ioex_Internals.h</text>
</a>
</g>
</g>
<!-- Node2 -->
<g id="node2" class="node">
<title>Node2</title>
<g id="a_node2"><a xlink:href="Ioss__ParallelUtils_8h.html" target="_top" xlink:title=" ">
<polygon fill="white" stroke="black" points="803.5,-280.5 803.5,-299.5 904.5,-299.5 904.5,-280.5 803.5,-280.5"/>
<text text-anchor="middle" x="854" y="-287.5" font-family="Helvetica,sans-Serif" font-size="10.00">Ioss_ParallelUtils.h</text>
</a>
</g>
</g>
<!-- Node1&#45;&gt;Node2 -->
<g id="edge1" class="edge">
<title>Node1&#45;&gt;Node2</title>
<path fill="none" stroke="midnightblue" d="M854,-336.08C854,-329.01 854,-318.86 854,-309.99"/>
<polygon fill="midnightblue" stroke="midnightblue" points="857.5,-309.75 854,-299.75 850.5,-309.75 857.5,-309.75"/>
</g>
<!-- Node6 -->
<g id="node6" class="node">
<title>Node6</title>
<g id="a_node6"><a xlink:title=" ">
<polygon fill="white" stroke="#bfbfbf" points="895,-0.5 895,-19.5 941,-19.5 941,-0.5 895,-0.5"/>
<text text-anchor="middle" x="918" y="-7.5" font-family="Helvetica,sans-Serif" font-size="10.00">cstdint</text>
</a>
</g>
</g>
<!-- Node1&#45;&gt;Node6 -->
<g id="edge57" class="edge">
<title>Node1&#45;&gt;Node6</title>
<path fill="none" stroke="midnightblue" d="M900.67,-336.4C953.44,-324.38 1038.79,-297.72 1091,-244 1109.64,-224.82 1108.02,-214.27 1113,-188 1114.65,-179.27 1117.91,-175.41 1113,-168 1090.34,-133.8 1061.47,-155.73 1028,-132 985.92,-102.16 948.17,-53.73 929.79,-28.13"/>
<polygon fill="midnightblue" stroke="midnightblue" points="932.55,-25.96 923.92,-19.8 926.82,-29.99 932.55,-25.96"/>
</g>
<!-- Node7 -->
<g id="node7" class="node">
<title>Node7</title>
<g id="a_node7"><a xlink:title=" ">
<polygon fill="white" stroke="#bfbfbf" points="112.5,-0.5 112.5,-19.5 153.5,-19.5 153.5,-0.5 112.5,-0.5"/>
<text text-anchor="middle" x="133" y="-7.5" font-family="Helvetica,sans-Serif" font-size="10.00">string</text>
</a>
</g>
</g>
<!-- Node1&#45;&gt;Node7 -->
<g id="edge59" class="edge">
<title>Node1&#45;&gt;Node7</title>
<path fill="none" stroke="midnightblue" d="M785.32,-343.11C635.81,-338.58 285.04,-325.51 169,-300 90.4,-282.72 0,-315.48 0,-235 0,-235 0,-235 0,-121 0,-68.08 63.31,-35.82 102.57,-20.9"/>
<polygon fill="midnightblue" stroke="midnightblue" points="104.01,-24.1 112.22,-17.4 101.62,-17.52 104.01,-24.1"/>
</g>
<!-- Node8 -->
<g id="node8" class="node">
<title>Node8</title>
<g id="a_node8"><a xlink:title=" ">
<polygon fill="white" stroke="#bfbfbf" points="422,-0.5 422,-19.5 466,-19.5 466,-0.5 422,-0.5"/>
<text text-anchor="middle" x="444" y="-7.5" font-family="Helvetica,sans-Serif" font-size="10.00">vector</text>
</a>
</g>
</g>
<!-- Node1&#45;&gt;Node8 -->
<g id="edge60" class="edge">
<title>Node1&#45;&gt;Node8</title>
<path fill="none" stroke="midnightblue" d="M785.3,-342.46C595.17,-334.52 76,-306.32 76,-235 76,-235 76,-235 76,-177 76,-76.51 174.71,-95.76 267,-56 315.37,-35.16 375.49,-22.42 411.74,-16.04"/>
<polygon fill="midnightblue" stroke="midnightblue" points="412.48,-19.47 421.75,-14.34 411.3,-12.57 412.48,-19.47"/>
</g>
<!-- Node31 -->
<g id="node31" class="node">
<title>Node31</title>
<g id="a_node31"><a xlink:title=" ">
<polygon fill="white" stroke="#bfbfbf" points="1199,-280.5 1199,-299.5 1261,-299.5 1261,-280.5 1199,-280.5"/>
<text text-anchor="middle" x="1230" y="-287.5" font-family="Helvetica,sans-Serif" font-size="10.00">exodusII.h</text>
</a>
</g>
</g>
<!-- Node1&#45;&gt;Node31 -->
<g id="edge58" class="edge">
<title>Node1&#45;&gt;Node31</title>
<path fill="none" stroke="midnightblue" d="M922.65,-336.93C989.73,-328.75 1094.63,-315.16 1185,-300 1186.1,-299.82 1187.21,-299.62 1188.34,-299.43"/>
<polygon fill="midnightblue" stroke="midnightblue" points="1189.37,-302.8 1198.57,-297.54 1188.11,-295.91 1189.37,-302.8"/>
</g>
<!-- Node3 -->
<g id="node3" class="node">
<title>Node3</title>
<g id="a_node3"><a xlink:href="Ioss__CodeTypes_8h.html" target="_top" xlink:title=" ">
<polygon fill="white" stroke="black" points="730,-56.5 730,-75.5 828,-75.5 828,-56.5 730,-56.5"/>
<text text-anchor="middle" x="779" y="-63.5" font-family="Helvetica,sans-Serif" font-size="10.00">Ioss_CodeTypes.h</text>
</a>
</g>
</g>
<!-- Node2&#45;&gt;Node3 -->
<g id="edge2" class="edge">
<title>Node2&#45;&gt;Node3</title>
<path fill="none" stroke="midnightblue" d="M904.59,-283.3C989.71,-271.61 1147.39,-239.74 1095,-168 1090.75,-162.18 899.98,-103.72 816.95,-78.49"/>
<polygon fill="midnightblue" stroke="midnightblue" points="817.73,-75.07 807.14,-75.52 815.69,-81.77 817.73,-75.07"/>
</g>
<!-- Node5 -->
<g id="node5" class="node">
<title>Node5</title>
<g id="a_node5"><a xlink:title=" ">
<polygon fill="white" stroke="#bfbfbf" points="959.5,-0.5 959.5,-19.5 1008.5,-19.5 1008.5,-0.5 959.5,-0.5"/>
<text text-anchor="middle" x="984" y="-7.5" font-family="Helvetica,sans-Serif" font-size="10.00">cstddef</text>
</a>
</g>
</g>
<!-- Node2&#45;&gt;Node5 -->
<g id="edge54" class="edge">
<title>Node2&#45;&gt;Node5</title>
<path fill="none" stroke="midnightblue" d="M904.58,-285.09C965.53,-279.43 1063.23,-267.02 1091,-244 1136.79,-206.05 1138.76,-165.61 1113,-112 1092.57,-69.48 1044.47,-39.67 1013.13,-23.94"/>
<polygon fill="midnightblue" stroke="midnightblue" points="1014.51,-20.72 1003.99,-19.51 1011.46,-27.02 1014.51,-20.72"/>
</g>
<!-- Node2&#45;&gt;Node7 -->
<g id="edge55" class="edge">
<title>Node2&#45;&gt;Node7</title>
<path fill="none" stroke="midnightblue" d="M803.3,-287.06C694.63,-282.48 442.55,-269.39 361,-244 264.1,-213.83 235.39,-202.1 162,-132 140.77,-111.73 135.09,-104.21 127,-76 122.61,-60.68 124.85,-42.58 127.77,-29.37"/>
<polygon fill="midnightblue" stroke="midnightblue" points="131.18,-30.15 130.24,-19.6 124.39,-28.43 131.18,-30.15"/>
</g>
<!-- Node2&#45;&gt;Node8 -->
<g id="edge56" class="edge">
<title>Node2&#45;&gt;Node8</title>
<path fill="none" stroke="midnightblue" d="M803.36,-284.86C660.73,-272.52 266,-233.46 266,-179 266,-179 266,-179 266,-121 266,-90.9 263.63,-77.19 285,-56 318.88,-22.41 375.84,-13.47 411.59,-11.33"/>
<polygon fill="midnightblue" stroke="midnightblue" points="412.13,-14.81 421.96,-10.87 411.81,-7.82 412.13,-14.81"/>
</g>
<!-- Node11 -->
<g id="node11" class="node">
<title>Node11</title>
<g id="a_node11"><a xlink:href="Ioss__Utils_8h.html" target="_top" xlink:title=" ">
<polygon fill="white" stroke="black" points="725.5,-224.5 725.5,-243.5 794.5,-243.5 794.5,-224.5 725.5,-224.5"/>
<text text-anchor="middle" x="760" y="-231.5" font-family="Helvetica,sans-Serif" font-size="10.00">Ioss_Utils.h</text>
</a>
</g>
</g>
<!-- Node2&#45;&gt;Node11 -->
<g id="edge10" class="edge">
<title>Node2&#45;&gt;Node11</title>
<path fill="none" stroke="midnightblue" d="M838.9,-280.32C824.1,-271.82 801.31,-258.73 784.02,-248.8"/>
<polygon fill="midnightblue" stroke="midnightblue" points="785.48,-245.6 775.07,-243.65 781.99,-251.67 785.48,-245.6"/>
</g>
<!-- Node26 -->
<g id="node26" class="node">
<title>Node26</title>
<g id="a_node26"><a xlink:title=" ">
<polygon fill="white" stroke="#bfbfbf" points="1036.5,-168.5 1036.5,-187.5 1085.5,-187.5 1085.5,-168.5 1036.5,-168.5"/>
<text text-anchor="middle" x="1061" y="-175.5" font-family="Helvetica,sans-Serif" font-size="10.00">cassert</text>
</a>
</g>
</g>
<!-- Node2&#45;&gt;Node26 -->
<g id="edge53" class="edge">
<title>Node2&#45;&gt;Node26</title>
<path fill="none" stroke="midnightblue" d="M870.24,-280.37C906.22,-261.25 992.82,-215.23 1035.86,-192.36"/>
<polygon fill="midnightblue" stroke="midnightblue" points="1037.64,-195.37 1044.83,-187.59 1034.36,-189.19 1037.64,-195.37"/>
</g>
<!-- Node4 -->
<g id="node4" class="node">
<title>Node4</title>
<g id="a_node4"><a xlink:title=" ">
<polygon fill="white" stroke="#bfbfbf" points="705,-0.5 705,-19.5 743,-19.5 743,-0.5 705,-0.5"/>
<text text-anchor="middle" x="724" y="-7.5" font-family="Helvetica,sans-Serif" font-size="10.00">array</text>
</a>
</g>
</g>
<!-- Node3&#45;&gt;Node4 -->
<g id="edge3" class="edge">
<title>Node3&#45;&gt;Node4</title>
<path fill="none" stroke="midnightblue" d="M769.92,-56.08C761.83,-48.14 749.8,-36.34 740.09,-26.8"/>
<polygon fill="midnightblue" stroke="midnightblue" points="742.5,-24.26 732.91,-19.75 737.6,-29.25 742.5,-24.26"/>
</g>
<!-- Node3&#45;&gt;Node5 -->
<g id="edge4" class="edge">
<title>Node3&#45;&gt;Node5</title>
<path fill="none" stroke="midnightblue" d="M811.47,-56.47C843.92,-47.94 895.5,-34.38 949.7,-20.08"/>
<polygon fill="midnightblue" stroke="midnightblue" points="950.71,-23.43 959.49,-17.49 948.92,-16.66 950.71,-23.43"/>
</g>
<!-- Node3&#45;&gt;Node6 -->
<g id="edge5" class="edge">
<title>Node3&#45;&gt;Node6</title>
<path fill="none" stroke="midnightblue" d="M801.02,-56.44C824.1,-47.48 860.56,-33.31 886.64,-23.18"/>
<polygon fill="midnightblue" stroke="midnightblue" points="888.02,-26.4 896.08,-19.52 885.49,-19.88 888.02,-26.4"/>
</g>
<!-- Node3&#45;&gt;Node7 -->
<g id="edge6" class="edge">
<title>Node3&#45;&gt;Node7</title>
<path fill="none" stroke="midnightblue" d="M729.66,-60.32C714.39,-58.9 697.5,-57.35 682,-56 484.86,-38.78 247.72,-19.99 164.05,-13.43"/>
<polygon fill="midnightblue" stroke="midnightblue" points="164.19,-9.93 153.95,-12.64 163.65,-16.91 164.19,-9.93"/>
</g>
<!-- Node3&#45;&gt;Node8 -->
<g id="edge7" class="edge">
<title>Node3&#45;&gt;Node8</title>
<path fill="none" stroke="midnightblue" d="M729.93,-57.09C660.47,-45.89 535.37,-25.73 476.41,-16.23"/>
<polygon fill="midnightblue" stroke="midnightblue" points="476.63,-12.72 466.2,-14.58 475.52,-19.63 476.63,-12.72"/>
</g>
<!-- Node9 -->
<g id="node9" class="node">
<title>Node9</title>
<g id="a_node9"><a xlink:title=" ">
<polygon fill="white" stroke="#bfbfbf" points="761,-0.5 761,-19.5 877,-19.5 877,-0.5 761,-0.5"/>
<text text-anchor="middle" x="819" y="-7.5" font-family="Helvetica,sans-Serif" font-size="10.00">SEACASIoss_config.h</text>
</a>
</g>
</g>
<!-- Node3&#45;&gt;Node9 -->
<g id="edge8" class="edge">
<title>Node3&#45;&gt;Node9</title>
<path fill="none" stroke="midnightblue" d="M785.61,-56.08C791.26,-48.46 799.54,-37.26 806.45,-27.94"/>
<polygon fill="midnightblue" stroke="midnightblue" points="809.38,-29.87 812.52,-19.75 803.75,-25.7 809.38,-29.87"/>
</g>
<!-- Node10 -->
<g id="node10" class="node">
<title>Node10</title>
<g id="a_node10"><a xlink:title=" ">
<polygon fill="white" stroke="#bfbfbf" points="633.5,-0.5 633.5,-19.5 686.5,-19.5 686.5,-0.5 633.5,-0.5"/>
<text text-anchor="middle" x="660" y="-7.5" font-family="Helvetica,sans-Serif" font-size="10.00">complex</text>
</a>
</g>
</g>
<!-- Node3&#45;&gt;Node10 -->
<g id="edge9" class="edge">
<title>Node3&#45;&gt;Node10</title>
<path fill="none" stroke="midnightblue" d="M760.14,-56.44C740.73,-47.64 710.27,-33.81 688.04,-23.72"/>
<polygon fill="midnightblue" stroke="midnightblue" points="689.32,-20.46 678.77,-19.52 686.43,-26.84 689.32,-20.46"/>
</g>
<!-- Node11&#45;&gt;Node3 -->
<g id="edge11" class="edge">
<title>Node11&#45;&gt;Node3</title>
<path fill="none" stroke="midnightblue" d="M788.02,-224.4C805.17,-217.51 825.75,-205.98 836,-188 845.6,-171.16 833.62,-129.68 824,-112 817.77,-100.56 807.74,-90.11 798.72,-82.17"/>
<polygon fill="midnightblue" stroke="midnightblue" points="800.79,-79.33 790.87,-75.62 796.31,-84.71 800.79,-79.33"/>
</g>
<!-- Node11&#45;&gt;Node5 -->
<g id="edge46" class="edge">
<title>Node11&#45;&gt;Node5</title>
<path fill="none" stroke="midnightblue" d="M794.59,-225.31C818.62,-218.61 850.29,-206.93 873,-188 927.04,-142.96 962.9,-64.58 977.12,-29.22"/>
<polygon fill="midnightblue" stroke="midnightblue" points="980.45,-30.3 980.83,-19.72 973.93,-27.76 980.45,-30.3"/>
</g>
<!-- Node11&#45;&gt;Node6 -->
<g id="edge47" class="edge">
<title>Node11&#45;&gt;Node6</title>
<path fill="none" stroke="midnightblue" d="M790.99,-224.42C810.81,-217.5 835.76,-205.92 852,-188 894.35,-141.28 910.31,-64.9 915.64,-29.76"/>
<polygon fill="midnightblue" stroke="midnightblue" points="919.15,-29.92 917.06,-19.53 912.22,-28.95 919.15,-29.92"/>
</g>
<!-- Node11&#45;&gt;Node7 -->
<g id="edge51" class="edge">
<title>Node11&#45;&gt;Node7</title>
<path fill="none" stroke="midnightblue" d="M725.3,-231.17C637.21,-226.23 406.75,-211.39 334,-188 238.12,-157.17 190.3,-161.46 137,-76 128.49,-62.36 128.2,-43.82 129.62,-30.03"/>
<polygon fill="midnightblue" stroke="midnightblue" points="133.14,-30.17 131.08,-19.78 126.21,-29.19 133.14,-30.17"/>
</g>
<!-- Node11&#45;&gt;Node8 -->
<g id="edge52" class="edge">
<title>Node11&#45;&gt;Node8</title>
<path fill="none" stroke="midnightblue" d="M725.38,-231.44C636.48,-227.09 405.56,-213.42 383,-188 340.43,-140.05 399.7,-60.89 429.13,-27.1"/>
<polygon fill="midnightblue" stroke="midnightblue" points="431.83,-29.32 435.88,-19.53 426.61,-24.66 431.83,-29.32"/>
</g>
<!-- Node12 -->
<g id="node12" class="node">
<title>Node12</title>
<g id="a_node12"><a xlink:href="Ioss__ElementTopology_8h.html" target="_top" xlink:title=" ">
<polygon fill="white" stroke="black" points="392,-168.5 392,-187.5 514,-187.5 514,-168.5 392,-168.5"/>
<text text-anchor="middle" x="453" y="-175.5" font-family="Helvetica,sans-Serif" font-size="10.00">Ioss_ElementTopology.h</text>
</a>
</g>
</g>
<!-- Node11&#45;&gt;Node12 -->
<g id="edge12" class="edge">
<title>Node11&#45;&gt;Node12</title>
<path fill="none" stroke="midnightblue" d="M725.38,-226.91C673.46,-217.78 574.8,-200.42 511.55,-189.3"/>
<polygon fill="midnightblue" stroke="midnightblue" points="511.79,-185.79 501.33,-187.5 510.58,-192.68 511.79,-185.79"/>
</g>
<!-- Node18 -->
<g id="node18" class="node">
<title>Node18</title>
<g id="a_node18"><a xlink:href="Ioss__Field_8h.html" target="_top" xlink:title=" ">
<polygon fill="white" stroke="black" points="745,-112.5 745,-131.5 815,-131.5 815,-112.5 745,-112.5"/>
<text text-anchor="middle" x="780" y="-119.5" font-family="Helvetica,sans-Serif" font-size="10.00">Ioss_Field.h</text>
</a>
</g>
</g>
<!-- Node11&#45;&gt;Node18 -->
<g id="edge25" class="edge">
<title>Node11&#45;&gt;Node18</title>
<path fill="none" stroke="midnightblue" d="M725.43,-233.07C657.27,-232.03 515.87,-223.35 561,-168 563.77,-164.61 671.45,-143.64 734.76,-131.56"/>
<polygon fill="midnightblue" stroke="midnightblue" points="735.73,-134.94 744.9,-129.63 734.42,-128.06 735.73,-134.94"/>
</g>
<!-- Node19 -->
<g id="node19" class="node">
<title>Node19</title>
<g id="a_node19"><a xlink:href="Ioss__Property_8h.html" target="_top" xlink:title=" ">
<polygon fill="white" stroke="black" points="294,-56.5 294,-75.5 378,-75.5 378,-56.5 294,-56.5"/>
<text text-anchor="middle" x="336" y="-63.5" font-family="Helvetica,sans-Serif" font-size="10.00">Ioss_Property.h</text>
</a>
</g>
</g>
<!-- Node11&#45;&gt;Node19 -->
<g id="edge30" class="edge">
<title>Node11&#45;&gt;Node19</title>
<path fill="none" stroke="midnightblue" d="M725.29,-231.63C631.18,-227.58 376.44,-214.28 350,-188 322.97,-161.13 327.06,-112.11 331.85,-85.45"/>
<polygon fill="midnightblue" stroke="midnightblue" points="335.31,-86.02 333.86,-75.53 328.45,-84.64 335.31,-86.02"/>
</g>
<!-- Node20 -->
<g id="node20" class="node">
<title>Node20</title>
<g id="a_node20"><a xlink:href="Ioss__Sort_8h.html" target="_top" xlink:title=" ">
<polygon fill="white" stroke="black" points="1036.5,-112.5 1036.5,-131.5 1103.5,-131.5 1103.5,-112.5 1036.5,-112.5"/>
<text text-anchor="middle" x="1070" y="-119.5" font-family="Helvetica,sans-Serif" font-size="10.00">Ioss_Sort.h</text>
</a>
</g>
</g>
<!-- Node11&#45;&gt;Node20 -->
<g id="edge34" class="edge">
<title>Node11&#45;&gt;Node20</title>
<path fill="none" stroke="midnightblue" d="M794.7,-227.24C832.64,-220.35 894.85,-207.26 946,-188 983.15,-174.01 1023.37,-151.42 1047.62,-136.89"/>
<polygon fill="midnightblue" stroke="midnightblue" points="1049.65,-139.75 1056.39,-131.57 1046.02,-133.76 1049.65,-139.75"/>
</g>
<!-- Node22 -->
<g id="node22" class="node">
<title>Node22</title>
<g id="a_node22"><a xlink:title=" ">
<polygon fill="white" stroke="#bfbfbf" points="1228,-0.5 1228,-19.5 1284,-19.5 1284,-0.5 1228,-0.5"/>
<text text-anchor="middle" x="1256" y="-7.5" font-family="Helvetica,sans-Serif" font-size="10.00">algorithm</text>
</a>
</g>
</g>
<!-- Node11&#45;&gt;Node22 -->
<g id="edge43" class="edge">
<title>Node11&#45;&gt;Node22</title>
<path fill="none" stroke="midnightblue" d="M794.61,-228.16C838.58,-221.52 916.51,-208.06 981,-188 1002.68,-181.26 1007.1,-176.87 1028,-168 1065.76,-151.97 1078.05,-153.49 1113,-132 1163.99,-100.64 1215.59,-51.81 1240.56,-26.86"/>
<polygon fill="midnightblue" stroke="midnightblue" points="1243.15,-29.22 1247.69,-19.65 1238.17,-24.29 1243.15,-29.22"/>
</g>
<!-- Node11&#45;&gt;Node26 -->
<g id="edge44" class="edge">
<title>Node11&#45;&gt;Node26</title>
<path fill="none" stroke="midnightblue" d="M794.87,-227.66C845.19,-219.8 941.01,-204.29 1022,-188 1023.45,-187.71 1024.92,-187.4 1026.41,-187.09"/>
<polygon fill="midnightblue" stroke="midnightblue" points="1027.27,-190.49 1036.29,-184.93 1025.77,-183.65 1027.27,-190.49"/>
</g>
<!-- Node27 -->
<g id="node27" class="node">
<title>Node27</title>
<g id="a_node27"><a xlink:title=" ">
<polygon fill="white" stroke="#bfbfbf" points="570,-168.5 570,-187.5 614,-187.5 614,-168.5 570,-168.5"/>
<text text-anchor="middle" x="592" y="-175.5" font-family="Helvetica,sans-Serif" font-size="10.00">cmath</text>
</a>
</g>
</g>
<!-- Node11&#45;&gt;Node27 -->
<g id="edge45" class="edge">
<title>Node11&#45;&gt;Node27</title>
<path fill="none" stroke="midnightblue" d="M733.38,-224.44C703.66,-214.89 655.58,-199.44 623.88,-189.25"/>
<polygon fill="midnightblue" stroke="midnightblue" points="624.79,-185.86 614.2,-186.14 622.65,-192.53 624.79,-185.86"/>
</g>
<!-- Node28 -->
<g id="node28" class="node">
<title>Node28</title>
<g id="a_node28"><a xlink:title=" ">
<polygon fill="white" stroke="#bfbfbf" points="632.5,-168.5 632.5,-187.5 677.5,-187.5 677.5,-168.5 632.5,-168.5"/>
<text text-anchor="middle" x="655" y="-175.5" font-family="Helvetica,sans-Serif" font-size="10.00">cstdlib</text>
</a>
</g>
</g>
<!-- Node11&#45;&gt;Node28 -->
<g id="edge48" class="edge">
<title>Node11&#45;&gt;Node28</title>
<path fill="none" stroke="midnightblue" d="M743.13,-224.32C726.29,-215.66 700.19,-202.24 680.76,-192.25"/>
<polygon fill="midnightblue" stroke="midnightblue" points="682.32,-189.12 671.83,-187.65 679.12,-195.34 682.32,-189.12"/>
</g>
<!-- Node29 -->
<g id="node29" class="node">
<title>Node29</title>
<g id="a_node29"><a xlink:title=" ">
<polygon fill="white" stroke="#bfbfbf" points="696,-168.5 696,-187.5 750,-187.5 750,-168.5 696,-168.5"/>
<text text-anchor="middle" x="723" y="-175.5" font-family="Helvetica,sans-Serif" font-size="10.00">iostream</text>
</a>
</g>
</g>
<!-- Node11&#45;&gt;Node29 -->
<g id="edge49" class="edge">
<title>Node11&#45;&gt;Node29</title>
<path fill="none" stroke="midnightblue" d="M753.89,-224.08C748.72,-216.53 741.15,-205.49 734.81,-196.23"/>
<polygon fill="midnightblue" stroke="midnightblue" points="737.54,-194.02 729,-187.75 731.76,-197.98 737.54,-194.02"/>
</g>
<!-- Node30 -->
<g id="node30" class="node">
<title>Node30</title>
<g id="a_node30"><a xlink:title=" ">
<polygon fill="white" stroke="#bfbfbf" points="768.5,-168.5 768.5,-187.5 827.5,-187.5 827.5,-168.5 768.5,-168.5"/>
<text text-anchor="middle" x="798" y="-175.5" font-family="Helvetica,sans-Serif" font-size="10.00">stdexcept</text>
</a>
</g>
</g>
<!-- Node11&#45;&gt;Node30 -->
<g id="edge50" class="edge">
<title>Node11&#45;&gt;Node30</title>
<path fill="none" stroke="midnightblue" d="M766.27,-224.08C771.64,-216.46 779.52,-205.26 786.08,-195.94"/>
<polygon fill="midnightblue" stroke="midnightblue" points="788.95,-197.94 791.84,-187.75 783.22,-193.91 788.95,-197.94"/>
</g>
<!-- Node12&#45;&gt;Node3 -->
<g id="edge13" class="edge">
<title>Node12&#45;&gt;Node3</title>
<path fill="none" stroke="midnightblue" d="M514.47,-170.99C560.73,-164.99 625.01,-153.45 678,-132 709.18,-119.38 741.16,-96.86 760.56,-81.92"/>
<polygon fill="midnightblue" stroke="midnightblue" points="762.84,-84.59 768.54,-75.66 758.51,-79.08 762.84,-84.59"/>
</g>
<!-- Node12&#45;&gt;Node7 -->
<g id="edge23" class="edge">
<title>Node12&#45;&gt;Node7</title>
<path fill="none" stroke="midnightblue" d="M391.74,-172.59C324.22,-164.48 216.75,-141.45 153,-76 141.04,-63.72 136.21,-44.46 134.27,-30.09"/>
<polygon fill="midnightblue" stroke="midnightblue" points="137.73,-29.45 133.26,-19.84 130.76,-30.14 137.73,-29.45"/>
</g>
<!-- Node12&#45;&gt;Node8 -->
<g id="edge24" class="edge">
<title>Node12&#45;&gt;Node8</title>
<path fill="none" stroke="midnightblue" d="M452.52,-168.08C451.1,-141.95 446.94,-65.21 445.01,-29.58"/>
<polygon fill="midnightblue" stroke="midnightblue" points="448.5,-29.36 444.46,-19.57 441.51,-29.74 448.5,-29.36"/>
</g>
<!-- Node13 -->
<g id="node13" class="node">
<title>Node13</title>
<g id="a_node13"><a xlink:href="Ioss__ElementPermutation_8h.html" target="_top" xlink:title=" ">
<polygon fill="white" stroke="black" points="465.5,-112.5 465.5,-131.5 602.5,-131.5 602.5,-112.5 465.5,-112.5"/>
<text text-anchor="middle" x="534" y="-119.5" font-family="Helvetica,sans-Serif" font-size="10.00">Ioss_ElementPermutation.h</text>
</a>
</g>
</g>
<!-- Node12&#45;&gt;Node13 -->
<g id="edge14" class="edge">
<title>Node12&#45;&gt;Node13</title>
<path fill="none" stroke="midnightblue" d="M466.01,-168.32C478.53,-159.98 497.68,-147.21 512.47,-137.35"/>
<polygon fill="midnightblue" stroke="midnightblue" points="514.64,-140.11 521.02,-131.65 510.76,-134.29 514.64,-140.11"/>
</g>
<!-- Node16 -->
<g id="node16" class="node">
<title>Node16</title>
<g id="a_node16"><a xlink:title=" ">
<polygon fill="white" stroke="#bfbfbf" points="638.5,-56.5 638.5,-75.5 673.5,-75.5 673.5,-56.5 638.5,-56.5"/>
<text text-anchor="middle" x="656" y="-63.5" font-family="Helvetica,sans-Serif" font-size="10.00">map</text>
</a>
</g>
</g>
<!-- Node12&#45;&gt;Node16 -->
<g id="edge21" class="edge">
<title>Node12&#45;&gt;Node16</title>
<path fill="none" stroke="midnightblue" d="M514.06,-172.07C568.37,-166.27 641.91,-154.44 660,-132 670.4,-119.09 667.58,-99.65 663.26,-85.39"/>
<polygon fill="midnightblue" stroke="midnightblue" points="666.48,-83.97 659.87,-75.69 659.87,-86.28 666.48,-83.97"/>
</g>
<!-- Node17 -->
<g id="node17" class="node">
<title>Node17</title>
<g id="a_node17"><a xlink:title=" ">
<polygon fill="white" stroke="#bfbfbf" points="621,-112.5 621,-131.5 651,-131.5 651,-112.5 621,-112.5"/>
<text text-anchor="middle" x="636" y="-119.5" font-family="Helvetica,sans-Serif" font-size="10.00">set</text>
</a>
</g>
</g>
<!-- Node12&#45;&gt;Node17 -->
<g id="edge22" class="edge">
<title>Node12&#45;&gt;Node17</title>
<path fill="none" stroke="midnightblue" d="M485.57,-168.42C517.66,-159.8 567.97,-145.86 611,-132 611.1,-131.97 611.2,-131.93 611.31,-131.9"/>
<polygon fill="midnightblue" stroke="midnightblue" points="612.66,-135.14 620.99,-128.59 610.39,-128.52 612.66,-135.14"/>
</g>
<!-- Node13&#45;&gt;Node3 -->
<g id="edge15" class="edge">
<title>Node13&#45;&gt;Node3</title>
<path fill="none" stroke="midnightblue" d="M572.82,-112.44C615.56,-103.02 684.33,-87.87 730.57,-77.68"/>
<polygon fill="midnightblue" stroke="midnightblue" points="731.35,-81.09 740.36,-75.52 729.84,-74.25 731.35,-81.09"/>
</g>
<!-- Node13&#45;&gt;Node7 -->
<g id="edge19" class="edge">
<title>Node13&#45;&gt;Node7</title>
<path fill="none" stroke="midnightblue" d="M465.22,-115.46C368.14,-107.17 200.01,-90.91 176,-76 158.63,-65.21 146.78,-44.51 139.99,-29.36"/>
<polygon fill="midnightblue" stroke="midnightblue" points="143.15,-27.84 136.09,-19.94 136.69,-30.52 143.15,-27.84"/>
</g>
<!-- Node13&#45;&gt;Node8 -->
<g id="edge20" class="edge">
<title>Node13&#45;&gt;Node8</title>
<path fill="none" stroke="midnightblue" d="M526.94,-112.37C511.95,-94.05 476.77,-51.05 457.39,-27.36"/>
<polygon fill="midnightblue" stroke="midnightblue" points="460.07,-25.11 451.03,-19.59 454.65,-29.55 460.07,-25.11"/>
</g>
<!-- Node14 -->
<g id="node14" class="node">
<title>Node14</title>
<g id="a_node14"><a xlink:title=" ">
<polygon fill="white" stroke="#bfbfbf" points="510,-56.5 510,-75.5 562,-75.5 562,-56.5 510,-56.5"/>
<text text-anchor="middle" x="536" y="-63.5" font-family="Helvetica,sans-Serif" font-size="10.00">assert.h</text>
</a>
</g>
</g>
<!-- Node13&#45;&gt;Node14 -->
<g id="edge16" class="edge">
<title>Node13&#45;&gt;Node14</title>
<path fill="none" stroke="midnightblue" d="M534.33,-112.08C534.59,-105.01 534.97,-94.86 535.3,-85.99"/>
<polygon fill="midnightblue" stroke="midnightblue" points="538.8,-85.87 535.68,-75.75 531.81,-85.61 538.8,-85.87"/>
</g>
<!-- Node15 -->
<g id="node15" class="node">
<title>Node15</title>
<g id="a_node15"><a xlink:title=" ">
<polygon fill="white" stroke="#bfbfbf" points="580,-56.5 580,-75.5 620,-75.5 620,-56.5 580,-56.5"/>
<text text-anchor="middle" x="600" y="-63.5" font-family="Helvetica,sans-Serif" font-size="10.00">limits</text>
</a>
</g>
</g>
<!-- Node13&#45;&gt;Node15 -->
<g id="edge17" class="edge">
<title>Node13&#45;&gt;Node15</title>
<path fill="none" stroke="midnightblue" d="M544.6,-112.32C554.46,-104.26 569.35,-92.08 581.22,-82.37"/>
<polygon fill="midnightblue" stroke="midnightblue" points="583.68,-84.88 589.2,-75.83 579.25,-79.46 583.68,-84.88"/>
</g>
<!-- Node13&#45;&gt;Node16 -->
<g id="edge18" class="edge">
<title>Node13&#45;&gt;Node16</title>
<path fill="none" stroke="midnightblue" d="M553.33,-112.44C573.79,-103.39 606.23,-89.03 629.16,-78.88"/>
<polygon fill="midnightblue" stroke="midnightblue" points="630.62,-82.06 638.34,-74.82 627.78,-75.66 630.62,-82.06"/>
</g>
<!-- Node18&#45;&gt;Node3 -->
<g id="edge26" class="edge">
<title>Node18&#45;&gt;Node3</title>
<path fill="none" stroke="midnightblue" d="M779.83,-112.08C779.7,-105.01 779.52,-94.86 779.35,-85.99"/>
<polygon fill="midnightblue" stroke="midnightblue" points="782.85,-85.68 779.16,-75.75 775.85,-85.81 782.85,-85.68"/>
</g>
<!-- Node18&#45;&gt;Node5 -->
<g id="edge27" class="edge">
<title>Node18&#45;&gt;Node5</title>
<path fill="none" stroke="midnightblue" d="M796.01,-112.37C831.46,-93.25 916.81,-47.23 959.22,-24.36"/>
<polygon fill="midnightblue" stroke="midnightblue" points="960.93,-27.42 968.07,-19.59 957.6,-21.26 960.93,-27.42"/>
</g>
<!-- Node18&#45;&gt;Node7 -->
<g id="edge28" class="edge">
<title>Node18&#45;&gt;Node7</title>
<path fill="none" stroke="midnightblue" d="M744.68,-118.09C635.16,-109.04 307.28,-81.63 285,-76 238,-64.13 186.85,-39.63 157.49,-24.33"/>
<polygon fill="midnightblue" stroke="midnightblue" points="158.88,-21.11 148.4,-19.53 155.61,-27.29 158.88,-21.11"/>
</g>
<!-- Node18&#45;&gt;Node8 -->
<g id="edge29" class="edge">
<title>Node18&#45;&gt;Node8</title>
<path fill="none" stroke="midnightblue" d="M769.92,-112.29C752.97,-98.14 717.18,-70.31 682,-56 612.07,-27.56 523.18,-16.88 476.31,-13.03"/>
<polygon fill="midnightblue" stroke="midnightblue" points="476.39,-9.53 466.15,-12.26 475.86,-16.51 476.39,-9.53"/>
</g>
<!-- Node19&#45;&gt;Node6 -->
<g id="edge31" class="edge">
<title>Node19&#45;&gt;Node6</title>
<path fill="none" stroke="midnightblue" d="M378.01,-62.61C485.68,-56.34 770.45,-38.66 884.53,-19.87"/>
<polygon fill="midnightblue" stroke="midnightblue" points="885.45,-23.27 894.7,-18.11 884.25,-16.37 885.45,-23.27"/>
</g>
<!-- Node19&#45;&gt;Node7 -->
<g id="edge32" class="edge">
<title>Node19&#45;&gt;Node7</title>
<path fill="none" stroke="midnightblue" d="M303.83,-56.44C265.31,-46.2 201.25,-29.16 163.49,-19.11"/>
<polygon fill="midnightblue" stroke="midnightblue" points="164.14,-15.66 153.58,-16.47 162.34,-22.43 164.14,-15.66"/>
</g>
<!-- Node19&#45;&gt;Node8 -->
<g id="edge33" class="edge">
<title>Node19&#45;&gt;Node8</title>
<path fill="none" stroke="midnightblue" d="M353.35,-56.32C370.67,-47.66 397.52,-34.24 417.5,-24.25"/>
<polygon fill="midnightblue" stroke="midnightblue" points="419.31,-27.26 426.69,-19.65 416.18,-21 419.31,-27.26"/>
</g>
<!-- Node20&#45;&gt;Node5 -->
<g id="edge41" class="edge">
<title>Node20&#45;&gt;Node5</title>
<path fill="none" stroke="midnightblue" d="M1063.96,-112.45C1055.02,-99.9 1037.65,-75.81 1022,-56 1014.39,-46.37 1005.57,-35.88 998.34,-27.45"/>
<polygon fill="midnightblue" stroke="midnightblue" points="1000.93,-25.1 991.74,-19.82 995.63,-29.68 1000.93,-25.1"/>
</g>
<!-- Node20&#45;&gt;Node8 -->
<g id="edge42" class="edge">
<title>Node20&#45;&gt;Node8</title>
<path fill="none" stroke="midnightblue" d="M1044.46,-112.44C1001.92,-98.51 913.66,-70.98 837,-56 704.57,-30.11 543.91,-17.46 476.37,-12.97"/>
<polygon fill="midnightblue" stroke="midnightblue" points="476.55,-9.47 466.35,-12.32 476.1,-16.46 476.55,-9.47"/>
</g>
<!-- Node21 -->
<g id="node21" class="node">
<title>Node21</title>
<g id="a_node21"><a xlink:href="pdqsort_8h.html" target="_top" xlink:title=" ">
<polygon fill="white" stroke="black" points="1112.5,-56.5 1112.5,-75.5 1169.5,-75.5 1169.5,-56.5 1112.5,-56.5"/>
<text text-anchor="middle" x="1141" y="-63.5" font-family="Helvetica,sans-Serif" font-size="10.00">pdqsort.h</text>
</a>
</g>
</g>
<!-- Node20&#45;&gt;Node21 -->
<g id="edge35" class="edge">
<title>Node20&#45;&gt;Node21</title>
<path fill="none" stroke="midnightblue" d="M1081.41,-112.32C1092.11,-104.18 1108.34,-91.84 1121.16,-82.09"/>
<polygon fill="midnightblue" stroke="midnightblue" points="1123.54,-84.67 1129.39,-75.83 1119.31,-79.1 1123.54,-84.67"/>
</g>
<!-- Node21&#45;&gt;Node5 -->
<g id="edge37" class="edge">
<title>Node21&#45;&gt;Node5</title>
<path fill="none" stroke="midnightblue" d="M1116.12,-56.44C1089.63,-47.33 1047.54,-32.85 1018,-22.69"/>
<polygon fill="midnightblue" stroke="midnightblue" points="1019.1,-19.37 1008.5,-19.43 1016.82,-25.99 1019.1,-19.37"/>
</g>
<!-- Node21&#45;&gt;Node22 -->
<g id="edge36" class="edge">
<title>Node21&#45;&gt;Node22</title>
<path fill="none" stroke="midnightblue" d="M1159.22,-56.44C1177.9,-47.68 1207.16,-33.94 1228.62,-23.86"/>
<polygon fill="midnightblue" stroke="midnightblue" points="1230.3,-26.93 1237.86,-19.52 1227.32,-20.6 1230.3,-26.93"/>
</g>
<!-- Node23 -->
<g id="node23" class="node">
<title>Node23</title>
<g id="a_node23"><a xlink:title=" ">
<polygon fill="white" stroke="#bfbfbf" points="1150.5,-0.5 1150.5,-19.5 1209.5,-19.5 1209.5,-0.5 1150.5,-0.5"/>
<text text-anchor="middle" x="1180" y="-7.5" font-family="Helvetica,sans-Serif" font-size="10.00">functional</text>
</a>
</g>
</g>
<!-- Node21&#45;&gt;Node23 -->
<g id="edge38" class="edge">
<title>Node21&#45;&gt;Node23</title>
<path fill="none" stroke="midnightblue" d="M1147.44,-56.08C1152.95,-48.46 1161.03,-37.26 1167.76,-27.94"/>
<polygon fill="midnightblue" stroke="midnightblue" points="1170.66,-29.91 1173.68,-19.75 1164.99,-25.81 1170.66,-29.91"/>
</g>
<!-- Node24 -->
<g id="node24" class="node">
<title>Node24</title>
<g id="a_node24"><a xlink:title=" ">
<polygon fill="white" stroke="#bfbfbf" points="1026.5,-0.5 1026.5,-19.5 1073.5,-19.5 1073.5,-0.5 1026.5,-0.5"/>
<text text-anchor="middle" x="1050" y="-7.5" font-family="Helvetica,sans-Serif" font-size="10.00">iterator</text>
</a>
</g>
</g>
<!-- Node21&#45;&gt;Node24 -->
<g id="edge39" class="edge">
<title>Node21&#45;&gt;Node24</title>
<path fill="none" stroke="midnightblue" d="M1126.38,-56.32C1112.05,-47.82 1089.99,-34.73 1073.25,-24.8"/>
<polygon fill="midnightblue" stroke="midnightblue" points="1074.97,-21.75 1064.58,-19.65 1071.4,-27.77 1074.97,-21.75"/>
</g>
<!-- Node25 -->
<g id="node25" class="node">
<title>Node25</title>
<g id="a_node25"><a xlink:title=" ">
<polygon fill="white" stroke="#bfbfbf" points="1092,-0.5 1092,-19.5 1132,-19.5 1132,-0.5 1092,-0.5"/>
<text text-anchor="middle" x="1112" y="-7.5" font-family="Helvetica,sans-Serif" font-size="10.00">utility</text>
</a>
</g>
</g>
<!-- Node21&#45;&gt;Node25 -->
<g id="edge40" class="edge">
<title>Node21&#45;&gt;Node25</title>
<path fill="none" stroke="midnightblue" d="M1136.21,-56.08C1132.24,-48.69 1126.47,-37.95 1121.57,-28.81"/>
<polygon fill="midnightblue" stroke="midnightblue" points="1124.51,-26.91 1116.7,-19.75 1118.35,-30.22 1124.51,-26.91"/>
</g>
</g>
</svg>
        <g id="navigator" transform="translate(0 0)" fill="#404254">
                <rect fill="#f2f5e9" fill-opacity="0.5" stroke="#606060" stroke-width=".5" x="0" y="0" width="60" height="60"/>
                <use id="zoomplus" xlink:href="#zoomPlus" x="17" y="9" onmousedown="handleZoom(evt,'in')"/>
                <use id="zoomminus" xlink:href="#zoomMin" x="42" y="9" onmousedown="handleZoom(evt,'out')"/>
                <use id="reset" xlink:href="#resetDef" x="30" y="36" onmousedown="handleReset()"/>
                <g id="arrowUp" xlink:href="#dirArrow" transform="translate(30 24)" onmousedown="handlePan(0,-1)">
                  <use xlink:href="#rim" fill="#404040">
                        <set attributeName="fill" to="#808080" begin="arrowUp.mouseover" end="arrowUp.mouseout"/>
                  </use>
                  <path fill="none" stroke="white" stroke-width="1.5" d="M0,-3.0v7 M-2.5,-0.5L0,-3.0L2.5,-0.5"/>
                </g>
                <g id="arrowRight" xlink:href="#dirArrow" transform="rotate(90) translate(36 -43)" onmousedown="handlePan(1,0)">
                  <use xlink:href="#rim" fill="#404040">
                        <set attributeName="fill" to="#808080" begin="arrowRight.mouseover" end="arrowRight.mouseout"/>
                  </use>
                  <path fill="none" stroke="white" stroke-width="1.5" d="M0,-3.0v7 M-2.5,-0.5L0,-3.0L2.5,-0.5"/>
                </g>
                <g id="arrowDown" xlink:href="#dirArrow" transform="rotate(180) translate(-30 -48)" onmousedown="handlePan(0,1)">
                  <use xlink:href="#rim" fill="#404040">
                        <set attributeName="fill" to="#808080" begin="arrowDown.mouseover" end="arrowDown.mouseout"/>
                  </use>
                  <path fill="none" stroke="white" stroke-width="1.5" d="M0,-3.0v7 M-2.5,-0.5L0,-3.0L2.5,-0.5"/>
                </g>
                <g id="arrowLeft" xlink:href="#dirArrow" transform="rotate(270) translate(-36 17)" onmousedown="handlePan(-1,0)">
                  <use xlink:href="#rim" fill="#404040">
                        <set attributeName="fill" to="#808080" begin="arrowLeft.mouseover" end="arrowLeft.mouseout"/>
                  </use>
                  <path fill="none" stroke="white" stroke-width="1.5" d="M0,-3.0v7 M-2.5,-0.5L0,-3.0L2.5,-0.5"/>
                </g>
        </g>
        <svg viewBox="0 0 15 15" width="100%" height="30px" preserveAspectRatio="xMaxYMin meet">
         <g id="arrow_out" transform="scale(0.3 0.3)">
          <a xlink:href="Ioex__Internals_8h__incl_org.svg" target="_base">
           <rect id="button" ry="5" rx="5" y="6" x="6" height="38" width="38"
                fill="#f2f5e9" fill-opacity="0.5" stroke="#606060" stroke-width="1.0"/>
           <path id="arrow"
             d="M 11.500037,31.436501 C 11.940474,20.09759 22.043105,11.32322 32.158766,21.979434 L 37.068811,17.246167 C 37.068811,17.246167 37.088388,32 37.088388,32 L 22.160133,31.978069 C 22.160133,31.978069 26.997745,27.140456 26.997745,27.140456 C 18.528582,18.264221 13.291696,25.230495 11.500037,31.436501 z"
             style="fill:#404040;"/>
          </a>
         </g>
        </svg>
</svg>
