<?xml version="1.0" encoding="UTF-8" standalone="no"?>
<!DOCTYPE svg PUBLIC "-//W3C//DTD SVG 1.1//EN"
 "http://www.w3.org/Graphics/SVG/1.1/DTD/svg11.dtd">
<!-- Generated by graphviz version 12.1.0 (20240811.2233)
 -->
<!-- Title: src/generated/Iogn_DashSurfaceMesh.h Pages: 1 -->
<svg width="1266pt" height="326pt"
 viewBox="0.00 0.00 1266.32 326.00" xmlns="http://www.w3.org/2000/svg" xmlns:xlink="http://www.w3.org/1999/xlink">
<g id="graph0" class="graph" transform="scale(1 1) rotate(0) translate(4 322)">
<title>src/generated/Iogn_DashSurfaceMesh.h</title>
<!-- Node1 -->
<g id="Node000001" class="node">
<title>Node1</title>
<g id="a_Node000001"><a xlink:title=" ">
<polygon fill="#999999" stroke="#666666" points="792.57,-318 682.07,-318 682.07,-287.5 792.57,-287.5 792.57,-318"/>
<text text-anchor="start" x="690.07" y="-304.5" font-family="Helvetica,sans-Serif" font-size="10.00">src/generated/Iogn</text>
<text text-anchor="middle" x="737.32" y="-293.25" font-family="Helvetica,sans-Serif" font-size="10.00">_DashSurfaceMesh.h</text>
</a>
</g>
</g>
<!-- Node2 -->
<g id="Node000002" class="node">
<title>Node2</title>
<g id="a_Node000002"><a xlink:href="Ioss__Beam2_8h.html" target="_top" xlink:title=" ">
<polygon fill="white" stroke="#666666" points="349.82,-251.5 270.82,-251.5 270.82,-232.25 349.82,-232.25 349.82,-251.5"/>
<text text-anchor="middle" x="310.32" y="-238" font-family="Helvetica,sans-Serif" font-size="10.00">Ioss_Beam2.h</text>
</a>
</g>
</g>
<!-- Node1&#45;&gt;Node2 -->
<g id="edge1_Node000001_Node000002" class="edge">
<title>Node1&#45;&gt;Node2</title>
<g id="a_edge1_Node000001_Node000002"><a xlink:title=" ">
<path fill="none" stroke="#63b8ff" d="M681.65,-295.18C609.91,-286.54 481.02,-270.4 361.29,-251.91"/>
<polygon fill="#63b8ff" stroke="#63b8ff" points="362.02,-248.48 351.6,-250.4 360.95,-255.4 362.02,-248.48"/>
</a>
</g>
</g>
<!-- Node4 -->
<g id="Node000004" class="node">
<title>Node4</title>
<g id="a_Node000004"><a xlink:href="Ioss__CodeTypes_8h.html" target="_top" xlink:title=" ">
<polygon fill="white" stroke="#666666" points="692.19,-74.5 594.44,-74.5 594.44,-55.25 692.19,-55.25 692.19,-74.5"/>
<text text-anchor="middle" x="643.32" y="-61" font-family="Helvetica,sans-Serif" font-size="10.00">Ioss_CodeTypes.h</text>
</a>
</g>
</g>
<!-- Node1&#45;&gt;Node4 -->
<g id="edge27_Node000001_Node000004" class="edge">
<title>Node1&#45;&gt;Node4</title>
<g id="a_edge27_Node000001_Node000004"><a xlink:title=" ">
<path fill="none" stroke="#63b8ff" d="M734.87,-287.1C728.92,-254.06 711.77,-171.84 679.32,-110.5 674.1,-100.63 666.55,-90.85 659.7,-82.97"/>
<polygon fill="#63b8ff" stroke="#63b8ff" points="662.52,-80.86 653.2,-75.82 657.34,-85.57 662.52,-80.86"/>
</a>
</g>
</g>
<!-- Node6 -->
<g id="Node000006" class="node">
<title>Node6</title>
<g id="a_Node000006"><a xlink:title=" ">
<polygon fill="#e0e0e0" stroke="#999999" points="983.44,-19.25 935.19,-19.25 935.19,0 983.44,0 983.44,-19.25"/>
<text text-anchor="middle" x="959.32" y="-5.75" font-family="Helvetica,sans-Serif" font-size="10.00">cstddef</text>
</a>
</g>
</g>
<!-- Node1&#45;&gt;Node6 -->
<g id="edge47_Node000001_Node000006" class="edge">
<title>Node1&#45;&gt;Node6</title>
<g id="a_edge47_Node000001_Node000006"><a xlink:title=" ">
<path fill="none" stroke="#63b8ff" d="M792.85,-298.82C910.12,-291.12 1172.32,-265.21 1172.32,-187.62 1172.32,-187.62 1172.32,-187.62 1172.32,-124.75 1172.32,-89.96 1163.59,-76.85 1136.32,-55.25 1095.43,-22.86 1033.96,-13.68 995.27,-11.24"/>
<polygon fill="#63b8ff" stroke="#63b8ff" points="995.48,-7.75 985.32,-10.75 995.13,-14.74 995.48,-7.75"/>
</a>
</g>
</g>
<!-- Node7 -->
<g id="Node000007" class="node">
<title>Node7</title>
<g id="a_Node000007"><a xlink:title=" ">
<polygon fill="#e0e0e0" stroke="#999999" points="916.94,-19.25 871.69,-19.25 871.69,0 916.94,0 916.94,-19.25"/>
<text text-anchor="middle" x="894.32" y="-5.75" font-family="Helvetica,sans-Serif" font-size="10.00">cstdint</text>
</a>
</g>
</g>
<!-- Node1&#45;&gt;Node7 -->
<g id="edge48_Node000001_Node000007" class="edge">
<title>Node1&#45;&gt;Node7</title>
<g id="a_edge48_Node000001_Node000007"><a xlink:title=" ">
<path fill="none" stroke="#63b8ff" d="M792.94,-297.42C902.2,-287.39 1134.32,-257.82 1134.32,-187.62 1134.32,-187.62 1134.32,-187.62 1134.32,-124.75 1134.32,-92.73 1138.83,-76.99 1115.32,-55.25 1055.1,0.41 1013.21,-35.18 928.45,-19.37"/>
<polygon fill="#63b8ff" stroke="#63b8ff" points="929.33,-15.98 918.82,-17.36 927.89,-22.83 929.33,-15.98"/>
</a>
</g>
</g>
<!-- Node8 -->
<g id="Node000008" class="node">
<title>Node8</title>
<g id="a_Node000008"><a xlink:title=" ">
<polygon fill="#e0e0e0" stroke="#999999" points="420.32,-19.25 380.32,-19.25 380.32,0 420.32,0 420.32,-19.25"/>
<text text-anchor="middle" x="400.32" y="-5.75" font-family="Helvetica,sans-Serif" font-size="10.00">string</text>
</a>
</g>
</g>
<!-- Node1&#45;&gt;Node8 -->
<g id="edge50_Node000001_Node000008" class="edge">
<title>Node1&#45;&gt;Node8</title>
<g id="a_edge50_Node000001_Node000008"><a xlink:title=" ">
<path fill="none" stroke="#63b8ff" d="M681.7,-298.98C510.24,-289.72 1.32,-256.44 1.32,-187.62 1.32,-187.62 1.32,-187.62 1.32,-124.75 1.32,-92.73 -3.96,-76.13 20.32,-55.25 72.22,-10.6 286.93,-8.92 368.6,-9.96"/>
<polygon fill="#63b8ff" stroke="#63b8ff" points="368.3,-13.46 378.35,-10.11 368.4,-6.46 368.3,-13.46"/>
</a>
</g>
</g>
<!-- Node9 -->
<g id="Node000009" class="node">
<title>Node9</title>
<g id="a_Node000009"><a xlink:title=" ">
<polygon fill="#e0e0e0" stroke="#999999" points="549.82,-19.25 506.82,-19.25 506.82,0 549.82,0 549.82,-19.25"/>
<text text-anchor="middle" x="528.32" y="-5.75" font-family="Helvetica,sans-Serif" font-size="10.00">vector</text>
</a>
</g>
</g>
<!-- Node1&#45;&gt;Node9 -->
<g id="edge52_Node000001_Node000009" class="edge">
<title>Node1&#45;&gt;Node9</title>
<g id="a_edge52_Node000001_Node000009"><a xlink:title=" ">
<path fill="none" stroke="#63b8ff" d="M726.95,-287.31C692.21,-238.91 579.86,-82.42 541.39,-28.83"/>
<polygon fill="#63b8ff" stroke="#63b8ff" points="544.28,-26.85 535.6,-20.77 538.59,-30.94 544.28,-26.85"/>
</a>
</g>
</g>
<!-- Node19 -->
<g id="Node000019" class="node">
<title>Node19</title>
<g id="a_Node000019"><a xlink:href="Ioss__Hex8_8h.html" target="_top" xlink:title=" ">
<polygon fill="white" stroke="#666666" points="439.07,-251.5 367.57,-251.5 367.57,-232.25 439.07,-232.25 439.07,-251.5"/>
<text text-anchor="middle" x="403.32" y="-238" font-family="Helvetica,sans-Serif" font-size="10.00">Ioss_Hex8.h</text>
</a>
</g>
</g>
<!-- Node1&#45;&gt;Node19 -->
<g id="edge28_Node000001_Node000019" class="edge">
<title>Node1&#45;&gt;Node19</title>
<g id="a_edge28_Node000001_Node000019"><a xlink:title=" ">
<path fill="none" stroke="#63b8ff" d="M681.66,-292.48C625.68,-283.07 536.59,-267.87 450.61,-252.08"/>
<polygon fill="#63b8ff" stroke="#63b8ff" points="451.28,-248.64 440.81,-250.27 450.01,-255.53 451.28,-248.64"/>
</a>
</g>
</g>
<!-- Node20 -->
<g id="Node000020" class="node">
<title>Node20</title>
<g id="a_Node000020"><a xlink:href="Ioss__Shell4_8h.html" target="_top" xlink:title=" ">
<polygon fill="white" stroke="#666666" points="531.94,-251.5 456.69,-251.5 456.69,-232.25 531.94,-232.25 531.94,-251.5"/>
<text text-anchor="middle" x="494.32" y="-238" font-family="Helvetica,sans-Serif" font-size="10.00">Ioss_Shell4.h</text>
</a>
</g>
</g>
<!-- Node1&#45;&gt;Node20 -->
<g id="edge32_Node000001_Node000020" class="edge">
<title>Node1&#45;&gt;Node20</title>
<g id="a_edge32_Node000001_Node000020"><a xlink:title=" ">
<path fill="none" stroke="#63b8ff" d="M681.57,-288.24C639.65,-278.09 582.79,-264.31 542.76,-254.61"/>
<polygon fill="#63b8ff" stroke="#63b8ff" points="543.69,-251.24 533.15,-252.28 542.05,-258.04 543.69,-251.24"/>
</a>
</g>
</g>
<!-- Node21 -->
<g id="Node000021" class="node">
<title>Node21</title>
<g id="a_Node000021"><a xlink:href="Iogn__GeneratedMesh_8h.html" target="_top" xlink:title=" ">
<polygon fill="white" stroke="#666666" points="876.69,-141 745.94,-141 745.94,-110.5 876.69,-110.5 876.69,-141"/>
<text text-anchor="start" x="753.94" y="-127.5" font-family="Helvetica,sans-Serif" font-size="10.00">generated/Iogn_Generated</text>
<text text-anchor="middle" x="811.32" y="-116.25" font-family="Helvetica,sans-Serif" font-size="10.00">Mesh.h</text>
</a>
</g>
</g>
<!-- Node1&#45;&gt;Node21 -->
<g id="edge36_Node000001_Node000021" class="edge">
<title>Node1&#45;&gt;Node21</title>
<g id="a_edge36_Node000001_Node000021"><a xlink:title=" ">
<path fill="none" stroke="#63b8ff" d="M743.5,-287.13C756.16,-257.2 785.14,-188.66 800.8,-151.61"/>
<polygon fill="#63b8ff" stroke="#63b8ff" points="803.95,-153.17 804.62,-142.6 797.5,-150.45 803.95,-153.17"/>
</a>
</g>
</g>
<!-- Node23 -->
<g id="Node000023" class="node">
<title>Node23</title>
<g id="a_Node000023"><a xlink:title=" ">
<polygon fill="#e0e0e0" stroke="#999999" points="1013.94,-74.5 974.69,-74.5 974.69,-55.25 1013.94,-55.25 1013.94,-74.5"/>
<text text-anchor="middle" x="994.32" y="-61" font-family="Helvetica,sans-Serif" font-size="10.00">utility</text>
</a>
</g>
</g>
<!-- Node1&#45;&gt;Node23 -->
<g id="edge51_Node000001_Node000023" class="edge">
<title>Node1&#45;&gt;Node23</title>
<g id="a_edge51_Node000001_Node000023"><a xlink:title=" ">
<path fill="none" stroke="#63b8ff" d="M753.01,-287.35C798.16,-245.91 928.24,-126.52 976.24,-82.46"/>
<polygon fill="#63b8ff" stroke="#63b8ff" points="978.34,-85.29 983.34,-75.95 973.61,-80.13 978.34,-85.29"/>
</a>
</g>
</g>
<!-- Node24 -->
<g id="Node000024" class="node">
<title>Node24</title>
<g id="a_Node000024"><a xlink:title=" ">
<polygon fill="#e0e0e0" stroke="#999999" points="1106.57,-74.5 1032.07,-74.5 1032.07,-55.25 1106.57,-55.25 1106.57,-74.5"/>
<text text-anchor="middle" x="1069.32" y="-61" font-family="Helvetica,sans-Serif" font-size="10.00">iogn_export.h</text>
</a>
</g>
</g>
<!-- Node1&#45;&gt;Node24 -->
<g id="edge53_Node000001_Node000024" class="edge">
<title>Node1&#45;&gt;Node24</title>
<g id="a_edge53_Node000001_Node000024"><a xlink:title=" ">
<path fill="none" stroke="#63b8ff" d="M761.09,-287.2C776.92,-277.38 798.07,-263.98 816.32,-251.5 904.37,-191.29 1005.73,-114.59 1048.54,-81.85"/>
<polygon fill="#63b8ff" stroke="#63b8ff" points="1050.66,-84.64 1056.46,-75.78 1046.4,-79.08 1050.66,-84.64"/>
</a>
</g>
</g>
<!-- Node25 -->
<g id="Node000025" class="node">
<title>Node25</title>
<g id="a_Node000025"><a xlink:title=" ">
<polygon fill="#e0e0e0" stroke="#999999" points="1258.32,-251.5 1200.32,-251.5 1200.32,-232.25 1258.32,-232.25 1258.32,-251.5"/>
<text text-anchor="middle" x="1229.32" y="-238" font-family="Helvetica,sans-Serif" font-size="10.00">exception</text>
</a>
</g>
</g>
<!-- Node1&#45;&gt;Node25 -->
<g id="edge49_Node000001_Node000025" class="edge">
<title>Node1&#45;&gt;Node25</title>
<g id="a_edge49_Node000001_Node000025"><a xlink:title=" ">
<path fill="none" stroke="#63b8ff" d="M792.82,-297.1C877.83,-289.61 1045.27,-273.5 1186.32,-251.5 1187.31,-251.35 1188.31,-251.19 1189.31,-251.02"/>
<polygon fill="#63b8ff" stroke="#63b8ff" points="1189.52,-254.54 1198.75,-249.33 1188.29,-247.65 1189.52,-254.54"/>
</a>
</g>
</g>
<!-- Node3 -->
<g id="Node000003" class="node">
<title>Node3</title>
<g id="a_Node000003"><a xlink:title=" ">
<polygon fill="#e0e0e0" stroke="#999999" points="103.57,-74.5 29.07,-74.5 29.07,-55.25 103.57,-55.25 103.57,-74.5"/>
<text text-anchor="middle" x="66.32" y="-61" font-family="Helvetica,sans-Serif" font-size="10.00">ioss_export.h</text>
</a>
</g>
</g>
<!-- Node2&#45;&gt;Node3 -->
<g id="edge2_Node000002_Node000003" class="edge">
<title>Node2&#45;&gt;Node3</title>
<g id="a_edge2_Node000002_Node000003"><a xlink:title=" ">
<path fill="none" stroke="#63b8ff" d="M270.64,-239.15C210.03,-235.6 98.69,-225.23 73.32,-196.25 46.52,-165.65 53.85,-113.89 60.63,-85.67"/>
<polygon fill="#63b8ff" stroke="#63b8ff" points="63.94,-86.86 63.11,-76.3 57.17,-85.07 63.94,-86.86"/>
</a>
</g>
</g>
<!-- Node2&#45;&gt;Node4 -->
<g id="edge3_Node000002_Node000004" class="edge">
<title>Node2&#45;&gt;Node4</title>
<g id="a_edge3_Node000002_Node000004"><a xlink:title=" ">
<path fill="none" stroke="#63b8ff" d="M349.97,-231.82C390.89,-222.15 451.7,-206.81 473.32,-196.25 535.75,-165.76 597.58,-110.36 626.45,-82.63"/>
<polygon fill="#63b8ff" stroke="#63b8ff" points="628.82,-85.2 633.54,-75.72 623.93,-80.19 628.82,-85.2"/>
</a>
</g>
</g>
<!-- Node12 -->
<g id="Node000012" class="node">
<title>Node12</title>
<g id="a_Node000012"><a xlink:href="Ioss__ElementTopology_8h.html" target="_top" xlink:title=" ">
<polygon fill="white" stroke="#666666" points="464.19,-196.25 342.44,-196.25 342.44,-177 464.19,-177 464.19,-196.25"/>
<text text-anchor="middle" x="403.32" y="-182.75" font-family="Helvetica,sans-Serif" font-size="10.00">Ioss_ElementTopology.h</text>
</a>
</g>
</g>
<!-- Node2&#45;&gt;Node12 -->
<g id="edge11_Node000002_Node000012" class="edge">
<title>Node2&#45;&gt;Node12</title>
<g id="a_edge11_Node000002_Node000012"><a xlink:title=" ">
<path fill="none" stroke="#63b8ff" d="M326.1,-231.84C340.26,-223.73 361.3,-211.68 377.85,-202.21"/>
<polygon fill="#63b8ff" stroke="#63b8ff" points="379.21,-205.46 386.15,-197.45 375.73,-199.39 379.21,-205.46"/>
</a>
</g>
</g>
<!-- Node5 -->
<g id="Node000005" class="node">
<title>Node5</title>
<g id="a_Node000005"><a xlink:title=" ">
<polygon fill="#e0e0e0" stroke="#999999" points="842.19,-19.25 804.44,-19.25 804.44,0 842.19,0 842.19,-19.25"/>
<text text-anchor="middle" x="823.32" y="-5.75" font-family="Helvetica,sans-Serif" font-size="10.00">array</text>
</a>
</g>
</g>
<!-- Node4&#45;&gt;Node5 -->
<g id="edge4_Node000004_Node000005" class="edge">
<title>Node4&#45;&gt;Node5</title>
<g id="a_edge4_Node000004_Node000005"><a xlink:title=" ">
<path fill="none" stroke="#63b8ff" d="M673.85,-54.84C707.14,-44.99 760.07,-29.34 793.2,-19.54"/>
<polygon fill="#63b8ff" stroke="#63b8ff" points="793.97,-22.96 802.57,-16.76 791.99,-16.24 793.97,-22.96"/>
</a>
</g>
</g>
<!-- Node4&#45;&gt;Node6 -->
<g id="edge5_Node000004_Node000006" class="edge">
<title>Node4&#45;&gt;Node6</title>
<g id="a_edge5_Node000004_Node000006"><a xlink:title=" ">
<path fill="none" stroke="#63b8ff" d="M692.67,-57.61C747.03,-50.36 837.23,-37.36 923.79,-19.61"/>
<polygon fill="#63b8ff" stroke="#63b8ff" points="924.31,-23.07 933.39,-17.61 922.89,-16.22 924.31,-23.07"/>
</a>
</g>
</g>
<!-- Node4&#45;&gt;Node7 -->
<g id="edge6_Node000004_Node000007" class="edge">
<title>Node4&#45;&gt;Node7</title>
<g id="a_edge6_Node000004_Node000007"><a xlink:title=" ">
<path fill="none" stroke="#63b8ff" d="M686.18,-54.78C735.28,-44.37 814.76,-27.5 859.97,-17.91"/>
<polygon fill="#63b8ff" stroke="#63b8ff" points="860.69,-21.34 869.74,-15.84 859.23,-14.49 860.69,-21.34"/>
</a>
</g>
</g>
<!-- Node4&#45;&gt;Node8 -->
<g id="edge7_Node000004_Node000008" class="edge">
<title>Node4&#45;&gt;Node8</title>
<g id="a_edge7_Node000004_Node000008"><a xlink:title=" ">
<path fill="none" stroke="#63b8ff" d="M601.82,-54.78C553.64,-44.22 475.26,-27.05 431.81,-17.53"/>
<polygon fill="#63b8ff" stroke="#63b8ff" points="432.79,-14.16 422.28,-15.44 431.29,-21 432.79,-14.16"/>
</a>
</g>
</g>
<!-- Node4&#45;&gt;Node9 -->
<g id="edge8_Node000004_Node000009" class="edge">
<title>Node4&#45;&gt;Node9</title>
<g id="a_edge8_Node000004_Node000009"><a xlink:title=" ">
<path fill="none" stroke="#63b8ff" d="M623.81,-54.84C605.8,-46.5 578.8,-34 558.09,-24.41"/>
<polygon fill="#63b8ff" stroke="#63b8ff" points="559.84,-21.36 549.3,-20.34 556.9,-27.72 559.84,-21.36"/>
</a>
</g>
</g>
<!-- Node10 -->
<g id="Node000010" class="node">
<title>Node10</title>
<g id="a_Node000010"><a xlink:title=" ">
<polygon fill="#e0e0e0" stroke="#999999" points="692.19,-19.25 576.44,-19.25 576.44,0 692.19,0 692.19,-19.25"/>
<text text-anchor="middle" x="634.32" y="-5.75" font-family="Helvetica,sans-Serif" font-size="10.00">SEACASIoss_config.h</text>
</a>
</g>
</g>
<!-- Node4&#45;&gt;Node10 -->
<g id="edge9_Node000004_Node000010" class="edge">
<title>Node4&#45;&gt;Node10</title>
<g id="a_edge9_Node000004_Node000010"><a xlink:title=" ">
<path fill="none" stroke="#63b8ff" d="M641.83,-55.08C640.72,-48.49 639.15,-39.21 637.73,-30.82"/>
<polygon fill="#63b8ff" stroke="#63b8ff" points="641.21,-30.38 636.09,-21.1 634.31,-31.55 641.21,-30.38"/>
</a>
</g>
</g>
<!-- Node11 -->
<g id="Node000011" class="node">
<title>Node11</title>
<g id="a_Node000011"><a xlink:title=" ">
<polygon fill="#e0e0e0" stroke="#999999" points="762.69,-19.25 709.94,-19.25 709.94,0 762.69,0 762.69,-19.25"/>
<text text-anchor="middle" x="736.32" y="-5.75" font-family="Helvetica,sans-Serif" font-size="10.00">complex</text>
</a>
</g>
</g>
<!-- Node4&#45;&gt;Node11 -->
<g id="edge10_Node000004_Node000011" class="edge">
<title>Node4&#45;&gt;Node11</title>
<g id="a_edge10_Node000004_Node000011"><a xlink:title=" ">
<path fill="none" stroke="#63b8ff" d="M659.1,-54.84C673.26,-46.73 694.3,-34.68 710.85,-25.21"/>
<polygon fill="#63b8ff" stroke="#63b8ff" points="712.21,-28.46 719.15,-20.45 708.73,-22.39 712.21,-28.46"/>
</a>
</g>
</g>
<!-- Node12&#45;&gt;Node3 -->
<g id="edge26_Node000012_Node000003" class="edge">
<title>Node12&#45;&gt;Node3</title>
<g id="a_edge26_Node000012_Node000003"><a xlink:title=" ">
<path fill="none" stroke="#63b8ff" d="M342.18,-180.2C296.63,-174.53 233.7,-163.21 182.32,-141 160.81,-131.7 158.88,-123.4 139.32,-110.5 123.65,-100.17 105.67,-89.17 91.47,-80.67"/>
<polygon fill="#63b8ff" stroke="#63b8ff" points="93.58,-77.85 83.19,-75.75 90,-83.87 93.58,-77.85"/>
</a>
</g>
</g>
<!-- Node12&#45;&gt;Node4 -->
<g id="edge12_Node000012_Node000004" class="edge">
<title>Node12&#45;&gt;Node4</title>
<g id="a_edge12_Node000012_Node000004"><a xlink:title=" ">
<path fill="none" stroke="#63b8ff" d="M425.22,-176.54C445.84,-167.85 477.47,-154.16 504.32,-141 544.72,-121.19 590.42,-95.92 618.04,-80.32"/>
<polygon fill="#63b8ff" stroke="#63b8ff" points="619.4,-83.58 626.37,-75.6 615.95,-77.49 619.4,-83.58"/>
</a>
</g>
</g>
<!-- Node12&#45;&gt;Node8 -->
<g id="edge24_Node000012_Node000008" class="edge">
<title>Node12&#45;&gt;Node8</title>
<g id="a_edge24_Node000012_Node000008"><a xlink:title=" ">
<path fill="none" stroke="#63b8ff" d="M403.17,-176.71C402.7,-149.8 401.32,-68.94 400.67,-30.87"/>
<polygon fill="#63b8ff" stroke="#63b8ff" points="404.17,-31.19 400.5,-21.25 397.17,-31.31 404.17,-31.19"/>
</a>
</g>
</g>
<!-- Node12&#45;&gt;Node9 -->
<g id="edge25_Node000012_Node000009" class="edge">
<title>Node12&#45;&gt;Node9</title>
<g id="a_edge25_Node000012_Node000009"><a xlink:title=" ">
<path fill="none" stroke="#63b8ff" d="M410.72,-176.52C417.92,-167.59 429.1,-153.53 438.32,-141 467.14,-101.85 499.07,-54.61 516.07,-29.12"/>
<polygon fill="#63b8ff" stroke="#63b8ff" points="518.93,-31.13 521.55,-20.87 513.1,-27.26 518.93,-31.13"/>
</a>
</g>
</g>
<!-- Node13 -->
<g id="Node000013" class="node">
<title>Node13</title>
<g id="a_Node000013"><a xlink:href="Ioss__ElementPermutation_8h.html" target="_top" xlink:title=" ">
<polygon fill="white" stroke="#666666" points="375.69,-135.38 238.94,-135.38 238.94,-116.12 375.69,-116.12 375.69,-135.38"/>
<text text-anchor="middle" x="307.32" y="-121.88" font-family="Helvetica,sans-Serif" font-size="10.00">Ioss_ElementPermutation.h</text>
</a>
</g>
</g>
<!-- Node12&#45;&gt;Node13 -->
<g id="edge13_Node000012_Node000013" class="edge">
<title>Node12&#45;&gt;Node13</title>
<g id="a_edge13_Node000012_Node000013"><a xlink:title=" ">
<path fill="none" stroke="#63b8ff" d="M388.74,-176.68C373.66,-167.43 349.83,-152.82 331.84,-141.79"/>
<polygon fill="#63b8ff" stroke="#63b8ff" points="333.68,-138.81 323.33,-136.57 330.02,-144.78 333.68,-138.81"/>
</a>
</g>
</g>
<!-- Node16 -->
<g id="Node000016" class="node">
<title>Node16</title>
<g id="a_Node000016"><a xlink:title=" ">
<polygon fill="#e0e0e0" stroke="#999999" points="462.69,-74.5 427.94,-74.5 427.94,-55.25 462.69,-55.25 462.69,-74.5"/>
<text text-anchor="middle" x="445.32" y="-61" font-family="Helvetica,sans-Serif" font-size="10.00">map</text>
</a>
</g>
</g>
<!-- Node12&#45;&gt;Node16 -->
<g id="edge22_Node000012_Node000016" class="edge">
<title>Node12&#45;&gt;Node16</title>
<g id="a_edge22_Node000012_Node000016"><a xlink:title=" ">
<path fill="none" stroke="#63b8ff" d="M406.48,-176.62C413.23,-157.38 429.2,-111.85 438.42,-85.55"/>
<polygon fill="#63b8ff" stroke="#63b8ff" points="441.62,-87 441.62,-76.41 435.01,-84.69 441.62,-87"/>
</a>
</g>
</g>
<!-- Node18 -->
<g id="Node000018" class="node">
<title>Node18</title>
<g id="a_Node000018"><a xlink:title=" ">
<polygon fill="#e0e0e0" stroke="#999999" points="221.07,-135.38 191.57,-135.38 191.57,-116.12 221.07,-116.12 221.07,-135.38"/>
<text text-anchor="middle" x="206.32" y="-121.88" font-family="Helvetica,sans-Serif" font-size="10.00">set</text>
</a>
</g>
</g>
<!-- Node12&#45;&gt;Node18 -->
<g id="edge23_Node000012_Node000018" class="edge">
<title>Node12&#45;&gt;Node18</title>
<g id="a_edge23_Node000012_Node000018"><a xlink:title=" ">
<path fill="none" stroke="#63b8ff" d="M352.89,-176.56C317.71,-169.29 270.13,-157.56 230.32,-141 230.21,-140.95 230.1,-140.91 229.99,-140.86"/>
<polygon fill="#63b8ff" stroke="#63b8ff" points="231.78,-137.84 221.28,-136.42 228.6,-144.08 231.78,-137.84"/>
</a>
</g>
</g>
<!-- Node13&#45;&gt;Node3 -->
<g id="edge21_Node000013_Node000003" class="edge">
<title>Node13&#45;&gt;Node3</title>
<g id="a_edge21_Node000013_Node000003"><a xlink:title=" ">
<path fill="none" stroke="#63b8ff" d="M270.19,-115.68C228.44,-105.48 160.5,-88.88 114.64,-77.68"/>
<polygon fill="#63b8ff" stroke="#63b8ff" points="115.5,-74.29 104.96,-75.31 113.84,-81.09 115.5,-74.29"/>
</a>
</g>
</g>
<!-- Node13&#45;&gt;Node4 -->
<g id="edge14_Node000013_Node000004" class="edge">
<title>Node13&#45;&gt;Node4</title>
<g id="a_edge14_Node000013_Node000004"><a xlink:title=" ">
<path fill="none" stroke="#63b8ff" d="M359.08,-115.68C419.43,-105.11 519.02,-87.66 582.86,-76.47"/>
<polygon fill="#63b8ff" stroke="#63b8ff" points="583.22,-79.96 592.47,-74.79 582.02,-73.06 583.22,-79.96"/>
</a>
</g>
</g>
<!-- Node13&#45;&gt;Node8 -->
<g id="edge19_Node000013_Node000008" class="edge">
<title>Node13&#45;&gt;Node8</title>
<g id="a_edge19_Node000013_Node000008"><a xlink:title=" ">
<path fill="none" stroke="#63b8ff" d="M258.6,-115.65C217.49,-106.87 163.31,-92.3 150.32,-74.5 145.27,-67.59 144.83,-61.81 150.32,-55.25 177.85,-22.37 307.9,-13.69 368.76,-11.42"/>
<polygon fill="#63b8ff" stroke="#63b8ff" points="368.57,-14.93 378.45,-11.1 368.34,-7.93 368.57,-14.93"/>
</a>
</g>
</g>
<!-- Node13&#45;&gt;Node9 -->
<g id="edge20_Node000013_Node000009" class="edge">
<title>Node13&#45;&gt;Node9</title>
<g id="a_edge20_Node000013_Node000009"><a xlink:title=" ">
<path fill="none" stroke="#63b8ff" d="M320.35,-115.66C340.81,-101.62 382.02,-74.29 419.32,-55.25 444.29,-42.5 473.78,-30.61 495.78,-22.31"/>
<polygon fill="#63b8ff" stroke="#63b8ff" points="496.97,-25.61 505.12,-18.84 494.53,-19.04 496.97,-25.61"/>
</a>
</g>
</g>
<!-- Node14 -->
<g id="Node000014" class="node">
<title>Node14</title>
<g id="a_Node000014"><a xlink:title=" ">
<polygon fill="#e0e0e0" stroke="#999999" points="210.94,-74.5 159.69,-74.5 159.69,-55.25 210.94,-55.25 210.94,-74.5"/>
<text text-anchor="middle" x="185.32" y="-61" font-family="Helvetica,sans-Serif" font-size="10.00">assert.h</text>
</a>
</g>
</g>
<!-- Node13&#45;&gt;Node14 -->
<g id="edge15_Node000013_Node000014" class="edge">
<title>Node13&#45;&gt;Node14</title>
<g id="a_edge15_Node000013_Node000014"><a xlink:title=" ">
<path fill="none" stroke="#63b8ff" d="M288.52,-115.68C268.67,-106.1 237.13,-90.88 214.14,-79.78"/>
<polygon fill="#63b8ff" stroke="#63b8ff" points="215.83,-76.71 205.3,-75.52 212.78,-83.02 215.83,-76.71"/>
</a>
</g>
</g>
<!-- Node15 -->
<g id="Node000015" class="node">
<title>Node15</title>
<g id="a_Node000015"><a xlink:title=" ">
<polygon fill="#e0e0e0" stroke="#999999" points="267.94,-74.5 228.69,-74.5 228.69,-55.25 267.94,-55.25 267.94,-74.5"/>
<text text-anchor="middle" x="248.32" y="-61" font-family="Helvetica,sans-Serif" font-size="10.00">limits</text>
</a>
</g>
</g>
<!-- Node13&#45;&gt;Node15 -->
<g id="edge16_Node000013_Node000015" class="edge">
<title>Node13&#45;&gt;Node15</title>
<g id="a_edge16_Node000013_Node000015"><a xlink:title=" ">
<path fill="none" stroke="#63b8ff" d="M298.36,-115.81C289.61,-107.08 276.07,-93.57 265.28,-82.8"/>
<polygon fill="#63b8ff" stroke="#63b8ff" points="267.99,-80.56 258.44,-75.97 263.04,-85.51 267.99,-80.56"/>
</a>
</g>
</g>
<!-- Node13&#45;&gt;Node16 -->
<g id="edge17_Node000013_Node000016" class="edge">
<title>Node13&#45;&gt;Node16</title>
<g id="a_edge17_Node000013_Node000016"><a xlink:title=" ">
<path fill="none" stroke="#63b8ff" d="M328.58,-115.68C352.39,-105.52 391.09,-89.01 417.35,-77.81"/>
<polygon fill="#63b8ff" stroke="#63b8ff" points="418.54,-81.1 426.37,-73.96 415.79,-74.67 418.54,-81.1"/>
</a>
</g>
</g>
<!-- Node17 -->
<g id="Node000017" class="node">
<title>Node17</title>
<g id="a_Node000017"><a xlink:title=" ">
<polygon fill="#e0e0e0" stroke="#999999" points="334.44,-74.5 286.19,-74.5 286.19,-55.25 334.44,-55.25 334.44,-74.5"/>
<text text-anchor="middle" x="310.32" y="-61" font-family="Helvetica,sans-Serif" font-size="10.00">stdint.h</text>
</a>
</g>
</g>
<!-- Node13&#45;&gt;Node17 -->
<g id="edge18_Node000013_Node000017" class="edge">
<title>Node13&#45;&gt;Node17</title>
<g id="a_edge18_Node000013_Node000017"><a xlink:title=" ">
<path fill="none" stroke="#63b8ff" d="M307.77,-115.81C308.18,-107.94 308.77,-96.2 309.29,-86.07"/>
<polygon fill="#63b8ff" stroke="#63b8ff" points="312.77,-86.58 309.78,-76.41 305.78,-86.22 312.77,-86.58"/>
</a>
</g>
</g>
<!-- Node19&#45;&gt;Node3 -->
<g id="edge29_Node000019_Node000003" class="edge">
<title>Node19&#45;&gt;Node3</title>
<g id="a_edge29_Node000019_Node000003"><a xlink:title=" ">
<path fill="none" stroke="#63b8ff" d="M367.33,-233.67C364.62,-233.17 361.93,-232.69 359.32,-232.25 304.42,-222.89 154.22,-231.75 111.32,-196.25 78.05,-168.72 69.33,-115.29 67.07,-86.1"/>
<polygon fill="#63b8ff" stroke="#63b8ff" points="70.58,-86.2 66.52,-76.41 63.59,-86.6 70.58,-86.2"/>
</a>
</g>
</g>
<!-- Node19&#45;&gt;Node4 -->
<g id="edge30_Node000019_Node000004" class="edge">
<title>Node19&#45;&gt;Node4</title>
<g id="a_edge30_Node000019_Node000004"><a xlink:title=" ">
<path fill="none" stroke="#63b8ff" d="M439.47,-233.63C500.3,-221.41 616.74,-197.85 618.32,-196.25 647.21,-166.92 647.95,-115.04 645.76,-86.36"/>
<polygon fill="#63b8ff" stroke="#63b8ff" points="649.26,-86.1 644.79,-76.49 642.29,-86.78 649.26,-86.1"/>
</a>
</g>
</g>
<!-- Node19&#45;&gt;Node12 -->
<g id="edge31_Node000019_Node000012" class="edge">
<title>Node19&#45;&gt;Node12</title>
<g id="a_edge31_Node000019_Node000012"><a xlink:title=" ">
<path fill="none" stroke="#63b8ff" d="M403.32,-232.08C403.32,-225.57 403.32,-216.42 403.32,-208.12"/>
<polygon fill="#63b8ff" stroke="#63b8ff" points="406.82,-208.12 403.32,-198.12 399.82,-208.12 406.82,-208.12"/>
</a>
</g>
</g>
<!-- Node20&#45;&gt;Node3 -->
<g id="edge33_Node000020_Node000003" class="edge">
<title>Node20&#45;&gt;Node3</title>
<g id="a_edge33_Node000020_Node000003"><a xlink:title=" ">
<path fill="none" stroke="#63b8ff" d="M456.29,-232.82C376.34,-215.48 193.73,-173.51 139.32,-141 114.65,-126.26 92.63,-101.1 79.38,-84"/>
<polygon fill="#63b8ff" stroke="#63b8ff" points="82.34,-82.11 73.55,-76.21 76.74,-86.31 82.34,-82.11"/>
</a>
</g>
</g>
<!-- Node20&#45;&gt;Node4 -->
<g id="edge34_Node000020_Node000004" class="edge">
<title>Node20&#45;&gt;Node4</title>
<g id="a_edge34_Node000020_Node000004"><a xlink:title=" ">
<path fill="none" stroke="#63b8ff" d="M532.18,-235.77C575.18,-229.1 641.34,-215.92 656.32,-196.25 681.04,-163.79 664.74,-112.81 652.76,-85.2"/>
<polygon fill="#63b8ff" stroke="#63b8ff" points="656.02,-83.91 648.66,-76.29 649.66,-86.84 656.02,-83.91"/>
</a>
</g>
</g>
<!-- Node20&#45;&gt;Node12 -->
<g id="edge35_Node000020_Node000012" class="edge">
<title>Node20&#45;&gt;Node12</title>
<g id="a_edge35_Node000020_Node000012"><a xlink:title=" ">
<path fill="none" stroke="#63b8ff" d="M478.88,-231.84C465.16,-223.81 444.82,-211.91 428.7,-202.48"/>
<polygon fill="#63b8ff" stroke="#63b8ff" points="430.54,-199.5 420.14,-197.47 427,-205.54 430.54,-199.5"/>
</a>
</g>
</g>
<!-- Node21&#45;&gt;Node4 -->
<g id="edge37_Node000021_Node000004" class="edge">
<title>Node21&#45;&gt;Node4</title>
<g id="a_edge37_Node000021_Node000004"><a xlink:title=" ">
<path fill="none" stroke="#63b8ff" d="M769.36,-110.05C741.81,-100.39 706.12,-87.88 679.76,-78.65"/>
<polygon fill="#63b8ff" stroke="#63b8ff" points="681.11,-75.41 670.51,-75.4 678.79,-82.01 681.11,-75.41"/>
</a>
</g>
</g>
<!-- Node21&#45;&gt;Node5 -->
<g id="edge39_Node000021_Node000005" class="edge">
<title>Node21&#45;&gt;Node5</title>
<g id="a_edge39_Node000021_Node000005"><a xlink:title=" ">
<path fill="none" stroke="#63b8ff" d="M827.38,-110.16C836.3,-100.93 846.54,-88.18 851.32,-74.5 856.87,-58.63 848.15,-41.18 839.02,-28.53"/>
<polygon fill="#63b8ff" stroke="#63b8ff" points="841.78,-26.38 832.81,-20.73 836.3,-30.74 841.78,-26.38"/>
</a>
</g>
</g>
<!-- Node21&#45;&gt;Node6 -->
<g id="edge40_Node000021_Node000006" class="edge">
<title>Node21&#45;&gt;Node6</title>
<g id="a_edge40_Node000021_Node000006"><a xlink:title=" ">
<path fill="none" stroke="#63b8ff" d="M834.47,-110.02C849.31,-100.34 868.81,-87.16 885.32,-74.5 905.17,-59.27 926.69,-40.4 941.38,-27.14"/>
<polygon fill="#63b8ff" stroke="#63b8ff" points="943.42,-30.02 948.45,-20.7 938.7,-24.84 943.42,-30.02"/>
</a>
</g>
</g>
<!-- Node21&#45;&gt;Node7 -->
<g id="edge41_Node000021_Node000007" class="edge">
<title>Node21&#45;&gt;Node7</title>
<g id="a_edge41_Node000021_Node000007"><a xlink:title=" ">
<path fill="none" stroke="#63b8ff" d="M831.06,-110.15C842.49,-100.91 856.52,-88.17 866.32,-74.5 876.04,-60.94 883.41,-43.47 888.14,-30.22"/>
<polygon fill="#63b8ff" stroke="#63b8ff" points="891.4,-31.52 891.26,-20.92 884.76,-29.29 891.4,-31.52"/>
</a>
</g>
</g>
<!-- Node21&#45;&gt;Node8 -->
<g id="edge43_Node000021_Node000008" class="edge">
<title>Node21&#45;&gt;Node8</title>
<g id="a_edge43_Node000021_Node000008"><a xlink:title=" ">
<path fill="none" stroke="#63b8ff" d="M745.55,-112.18C700.2,-103.02 638.69,-89.6 585.32,-74.5 530.21,-58.91 467.46,-36.16 431.03,-22.43"/>
<polygon fill="#63b8ff" stroke="#63b8ff" points="432.62,-19.29 422.03,-19.02 430.13,-25.84 432.62,-19.29"/>
</a>
</g>
</g>
<!-- Node21&#45;&gt;Node9 -->
<g id="edge45_Node000021_Node000009" class="edge">
<title>Node21&#45;&gt;Node9</title>
<g id="a_edge45_Node000021_Node000009"><a xlink:title=" ">
<path fill="none" stroke="#63b8ff" d="M792.47,-110.25C771.34,-94.63 735.53,-70.04 701.32,-55.25 688.46,-49.69 607.57,-29.75 561.09,-18.5"/>
<polygon fill="#63b8ff" stroke="#63b8ff" points="562.09,-15.14 551.55,-16.19 560.44,-21.94 562.09,-15.14"/>
</a>
</g>
</g>
<!-- Node21&#45;&gt;Node16 -->
<g id="edge42_Node000021_Node000016" class="edge">
<title>Node21&#45;&gt;Node16</title>
<g id="a_edge42_Node000021_Node000016"><a xlink:title=" ">
<path fill="none" stroke="#63b8ff" d="M745.46,-114.16C664.96,-101.21 532.27,-79.86 474.12,-70.51"/>
<polygon fill="#63b8ff" stroke="#63b8ff" points="474.82,-67.08 464.39,-68.94 473.71,-73.99 474.82,-67.08"/>
</a>
</g>
</g>
<!-- Node22 -->
<g id="Node000022" class="node">
<title>Node22</title>
<g id="a_Node000022"><a xlink:href="Ioss__EntityType_8h.html" target="_top" xlink:title=" ">
<polygon fill="white" stroke="#666666" points="842.69,-74.5 747.94,-74.5 747.94,-55.25 842.69,-55.25 842.69,-74.5"/>
<text text-anchor="middle" x="795.32" y="-61" font-family="Helvetica,sans-Serif" font-size="10.00">Ioss_EntityType.h</text>
</a>
</g>
</g>
<!-- Node21&#45;&gt;Node22 -->
<g id="edge38_Node000021_Node000022" class="edge">
<title>Node21&#45;&gt;Node22</title>
<g id="a_edge38_Node000021_Node000022"><a xlink:title=" ">
<path fill="none" stroke="#63b8ff" d="M807.36,-110.2C805.37,-102.87 802.93,-93.87 800.76,-85.91"/>
<polygon fill="#63b8ff" stroke="#63b8ff" points="804.18,-85.14 798.18,-76.41 797.43,-86.98 804.18,-85.14"/>
</a>
</g>
</g>
<!-- Node21&#45;&gt;Node23 -->
<g id="edge44_Node000021_Node000023" class="edge">
<title>Node21&#45;&gt;Node23</title>
<g id="a_edge44_Node000021_Node000023"><a xlink:title=" ">
<path fill="none" stroke="#63b8ff" d="M857.03,-110.05C890.3,-99.34 934.45,-85.14 963.59,-75.76"/>
<polygon fill="#63b8ff" stroke="#63b8ff" points="964.46,-79.16 972.9,-72.76 962.31,-72.5 964.46,-79.16"/>
</a>
</g>
</g>
<!-- Node21&#45;&gt;Node24 -->
<g id="edge46_Node000021_Node000024" class="edge">
<title>Node21&#45;&gt;Node24</title>
<g id="a_edge46_Node000021_Node000024"><a xlink:title=" ">
<path fill="none" stroke="#63b8ff" d="M875.76,-110.05C920.64,-99.8 979.58,-86.35 1020.57,-77"/>
<polygon fill="#63b8ff" stroke="#63b8ff" points="1021.19,-80.45 1030.16,-74.81 1019.63,-73.62 1021.19,-80.45"/>
</a>
</g>
</g>
</g>
</svg>
