<?xml version="1.0" encoding="UTF-8" standalone="no"?>
<!DOCTYPE svg PUBLIC "-//W3C//DTD SVG 1.1//EN"
 "http://www.w3.org/Graphics/SVG/1.1/DTD/svg11.dtd">
<!-- Generated by graphviz version 2.49.3 (20211023.0002)
 -->
<!-- Title: src/gen_struc/Iogs_GeneratedMesh.h Pages: 1 -->
<!--zoomable 151 -->
<svg id="main" version="1.1" xmlns="http://www.w3.org/2000/svg" xmlns:xlink="http://www.w3.org/1999/xlink" xml:space="preserve" onload="init(evt)">
<style type="text/css"><![CDATA[
.edge:hover path { stroke: red; }
.edge:hover polygon { stroke: red; fill: red; }
]]></style>
<script type="text/javascript"><![CDATA[
var edges = document.getElementsByTagName('g');
if (edges && edges.length) {
  for (var i=0;i<edges.length;i++) {
    if (edges[i].id.substr(0,4)=='edge') {
      edges[i].setAttribute('class','edge');
    }
  }
}
]]></script>
        <defs>
                <circle id="rim" cx="0" cy="0" r="7"/>
                <circle id="rim2" cx="0" cy="0" r="3.5"/>
                <g id="zoomPlus">
                        <use xlink:href="#rim" fill="#404040">
                                <set attributeName="fill" to="#808080" begin="zoomplus.mouseover" end="zoomplus.mouseout"/>
                        </use>
                        <path d="M-4,0h8M0,-4v8" fill="none" stroke="white" stroke-width="1.5" pointer-events="none"/>
                </g>
                <g id="zoomMin">
                        <use xlink:href="#rim" fill="#404040">
                                <set attributeName="fill" to="#808080" begin="zoomminus.mouseover" end="zoomminus.mouseout"/>
                        </use>
                        <path d="M-4,0h8" fill="none" stroke="white" stroke-width="1.5" pointer-events="none"/>
                </g>
                <g id="dirArrow">
                        <path fill="none" stroke="white" stroke-width="1.5" d="M0,-3.0v7 M-2.5,-0.5L0,-3.0L2.5,-0.5"/>
                </g>
               <g id="resetDef">
                       <use xlink:href="#rim2" fill="#404040">
                               <set attributeName="fill" to="#808080" begin="reset.mouseover" end="reset.mouseout"/>
                       </use>
               </g>
        </defs>

<script type="text/javascript">
var viewWidth = 579;
var viewHeight = 151;
var sectionId = 'dynsection-0';
</script>
<script xlink:href="svgpan.js"/>
<svg id="graph" class="graph">
<g id="viewport">
<title>src/gen_struc/Iogs_GeneratedMesh.h</title>
<polygon fill="white" stroke="transparent" points="-4,4 -4,-147 575,-147 575,4 -4,4"/>
<!-- Node1 -->
<g id="node1" class="node">
<title>Node1</title>
<g id="a_node1"><a xlink:title=" ">
<polygon fill="#bfbfbf" stroke="black" points="246.5,-112.5 246.5,-142.5 348.5,-142.5 348.5,-112.5 246.5,-112.5"/>
<text text-anchor="start" x="254.5" y="-130.5" font-family="Helvetica,sans-Serif" font-size="10.00">src/gen_struc/Iogs</text>
<text text-anchor="middle" x="297.5" y="-119.5" font-family="Helvetica,sans-Serif" font-size="10.00">_GeneratedMesh.h</text>
</a>
</g>
</g>
<!-- Node2 -->
<g id="node2" class="node">
<title>Node2</title>
<g id="a_node2"><a xlink:href="Ioss__CodeTypes_8h.html" target="_top" xlink:title=" ">
<polygon fill="white" stroke="black" points="170,-56.5 170,-75.5 269,-75.5 269,-56.5 170,-56.5"/>
<text text-anchor="middle" x="219.5" y="-63.5" font-family="Helvetica,sans-Serif" font-size="10.00">Ioss_CodeTypes.h</text>
</a>
</g>
</g>
<!-- Node1&#45;&gt;Node2 -->
<g id="edge1" class="edge">
<title>Node1&#45;&gt;Node2</title>
<path fill="none" stroke="midnightblue" d="M279.02,-112.4C266.98,-103.22 251.3,-91.26 239.06,-81.92"/>
<polygon fill="midnightblue" stroke="midnightblue" points="240.92,-78.94 230.85,-75.66 236.68,-84.51 240.92,-78.94"/>
</g>
<!-- Node3 -->
<g id="node3" class="node">
<title>Node3</title>
<g id="a_node3"><a xlink:title=" ">
<polygon fill="white" stroke="#bfbfbf" points="0,-0.5 0,-19.5 39,-19.5 39,-0.5 0,-0.5"/>
<text text-anchor="middle" x="19.5" y="-7.5" font-family="Helvetica,sans-Serif" font-size="10.00">array</text>
</a>
</g>
</g>
<!-- Node1&#45;&gt;Node3 -->
<g id="edge10" class="edge">
<title>Node1&#45;&gt;Node3</title>
<path fill="none" stroke="midnightblue" d="M246.2,-116.25C209.84,-107.96 160.44,-94.6 119.5,-76 89.26,-62.26 57.65,-40.21 38.26,-25.67"/>
<polygon fill="midnightblue" stroke="midnightblue" points="40.34,-22.85 30.26,-19.57 36.09,-28.42 40.34,-22.85"/>
</g>
<!-- Node4 -->
<g id="node4" class="node">
<title>Node4</title>
<g id="a_node4"><a xlink:title=" ">
<polygon fill="white" stroke="#bfbfbf" points="57,-0.5 57,-19.5 106,-19.5 106,-0.5 57,-0.5"/>
<text text-anchor="middle" x="81.5" y="-7.5" font-family="Helvetica,sans-Serif" font-size="10.00">cstddef</text>
</a>
</g>
</g>
<!-- Node1&#45;&gt;Node4 -->
<g id="edge11" class="edge">
<title>Node1&#45;&gt;Node4</title>
<path fill="none" stroke="midnightblue" d="M246.33,-115.67C215.82,-107.73 177.18,-94.98 146.5,-76 125.82,-63.21 106.73,-42.61 94.66,-28.04"/>
<polygon fill="midnightblue" stroke="midnightblue" points="97.09,-25.48 88.11,-19.87 91.63,-29.86 97.09,-25.48"/>
</g>
<!-- Node5 -->
<g id="node5" class="node">
<title>Node5</title>
<g id="a_node5"><a xlink:title=" ">
<polygon fill="white" stroke="#bfbfbf" points="124,-0.5 124,-19.5 169,-19.5 169,-0.5 124,-0.5"/>
<text text-anchor="middle" x="146.5" y="-7.5" font-family="Helvetica,sans-Serif" font-size="10.00">cstdint</text>
</a>
</g>
</g>
<!-- Node1&#45;&gt;Node5 -->
<g id="edge12" class="edge">
<title>Node1&#45;&gt;Node5</title>
<path fill="none" stroke="midnightblue" d="M246.3,-119.93C217.09,-113.52 182.1,-100.89 160.5,-76 149.51,-63.34 146.49,-44.14 145.92,-29.88"/>
<polygon fill="midnightblue" stroke="midnightblue" points="149.42,-29.72 145.9,-19.73 142.42,-29.74 149.42,-29.72"/>
</g>
<!-- Node6 -->
<g id="node6" class="node">
<title>Node6</title>
<g id="a_node6"><a xlink:title=" ">
<polygon fill="white" stroke="#bfbfbf" points="394,-0.5 394,-19.5 435,-19.5 435,-0.5 394,-0.5"/>
<text text-anchor="middle" x="414.5" y="-7.5" font-family="Helvetica,sans-Serif" font-size="10.00">string</text>
</a>
</g>
</g>
<!-- Node1&#45;&gt;Node6 -->
<g id="edge14" class="edge">
<title>Node1&#45;&gt;Node6</title>
<path fill="none" stroke="midnightblue" d="M299.04,-112.45C301.41,-96.95 307.28,-72.08 321.5,-56 330.43,-45.9 360.93,-32.15 384.59,-22.52"/>
<polygon fill="midnightblue" stroke="midnightblue" points="385.93,-25.75 393.91,-18.79 383.33,-19.25 385.93,-25.75"/>
</g>
<!-- Node7 -->
<g id="node7" class="node">
<title>Node7</title>
<g id="a_node7"><a xlink:title=" ">
<polygon fill="white" stroke="#bfbfbf" points="453.5,-0.5 453.5,-19.5 497.5,-19.5 497.5,-0.5 453.5,-0.5"/>
<text text-anchor="middle" x="475.5" y="-7.5" font-family="Helvetica,sans-Serif" font-size="10.00">vector</text>
</a>
</g>
</g>
<!-- Node1&#45;&gt;Node7 -->
<g id="edge16" class="edge">
<title>Node1&#45;&gt;Node7</title>
<path fill="none" stroke="midnightblue" d="M305.85,-112.44C315.85,-96.7 333.97,-71.39 355.5,-56 369.97,-45.65 413.19,-30.67 443.6,-20.89"/>
<polygon fill="midnightblue" stroke="midnightblue" points="444.89,-24.15 453.35,-17.78 442.76,-17.48 444.89,-24.15"/>
</g>
<!-- Node10 -->
<g id="node10" class="node">
<title>Node10</title>
<g id="a_node10"><a xlink:href="Ioss__EntityType_8h.html" target="_top" xlink:title=" ">
<polygon fill="white" stroke="black" points="364,-56.5 364,-75.5 459,-75.5 459,-56.5 364,-56.5"/>
<text text-anchor="middle" x="411.5" y="-63.5" font-family="Helvetica,sans-Serif" font-size="10.00">Ioss_EntityType.h</text>
</a>
</g>
</g>
<!-- Node1&#45;&gt;Node10 -->
<g id="edge9" class="edge">
<title>Node1&#45;&gt;Node10</title>
<path fill="none" stroke="midnightblue" d="M324.52,-112.4C343.13,-102.68 367.71,-89.86 385.99,-80.31"/>
<polygon fill="midnightblue" stroke="midnightblue" points="387.67,-83.39 394.91,-75.66 384.43,-77.18 387.67,-83.39"/>
</g>
<!-- Node11 -->
<g id="node11" class="node">
<title>Node11</title>
<g id="a_node11"><a xlink:title=" ">
<polygon fill="white" stroke="#bfbfbf" points="477.5,-56.5 477.5,-75.5 513.5,-75.5 513.5,-56.5 477.5,-56.5"/>
<text text-anchor="middle" x="495.5" y="-63.5" font-family="Helvetica,sans-Serif" font-size="10.00">map</text>
</a>
</g>
</g>
<!-- Node1&#45;&gt;Node11 -->
<g id="edge13" class="edge">
<title>Node1&#45;&gt;Node11</title>
<path fill="none" stroke="midnightblue" d="M346.65,-112.47C378.7,-103.22 421.63,-90.61 467.67,-76.19"/>
<polygon fill="midnightblue" stroke="midnightblue" points="468.74,-79.52 477.23,-73.19 466.64,-72.85 468.74,-79.52"/>
</g>
<!-- Node12 -->
<g id="node12" class="node">
<title>Node12</title>
<g id="a_node12"><a xlink:title=" ">
<polygon fill="white" stroke="#bfbfbf" points="532,-56.5 532,-75.5 571,-75.5 571,-56.5 532,-56.5"/>
<text text-anchor="middle" x="551.5" y="-63.5" font-family="Helvetica,sans-Serif" font-size="10.00">utility</text>
</a>
</g>
</g>
<!-- Node1&#45;&gt;Node12 -->
<g id="edge15" class="edge">
<title>Node1&#45;&gt;Node12</title>
<path fill="none" stroke="midnightblue" d="M348.72,-116.23C392.27,-107.21 456.65,-93.24 521.86,-76"/>
<polygon fill="midnightblue" stroke="midnightblue" points="523.15,-79.28 531.91,-73.31 521.34,-72.51 523.15,-79.28"/>
</g>
<!-- Node2&#45;&gt;Node3 -->
<g id="edge2" class="edge">
<title>Node2&#45;&gt;Node3</title>
<path fill="none" stroke="midnightblue" d="M184.43,-56.43C151.6,-48.27 100.99,-35.35 48.8,-20.27"/>
<polygon fill="midnightblue" stroke="midnightblue" points="49.62,-16.87 39.04,-17.43 47.66,-23.59 49.62,-16.87"/>
</g>
<!-- Node2&#45;&gt;Node4 -->
<g id="edge3" class="edge">
<title>Node2&#45;&gt;Node4</title>
<path fill="none" stroke="midnightblue" d="M197.63,-56.44C174.72,-47.48 138.52,-33.31 112.63,-23.18"/>
<polygon fill="midnightblue" stroke="midnightblue" points="113.85,-19.9 103.26,-19.52 111.3,-26.42 113.85,-19.9"/>
</g>
<!-- Node2&#45;&gt;Node5 -->
<g id="edge4" class="edge">
<title>Node2&#45;&gt;Node5</title>
<path fill="none" stroke="midnightblue" d="M207.77,-56.32C196.66,-48.11 179.76,-35.6 166.52,-25.81"/>
<polygon fill="midnightblue" stroke="midnightblue" points="168.56,-22.97 158.44,-19.83 164.4,-28.59 168.56,-22.97"/>
</g>
<!-- Node2&#45;&gt;Node6 -->
<g id="edge5" class="edge">
<title>Node2&#45;&gt;Node6</title>
<path fill="none" stroke="midnightblue" d="M251.82,-56.44C283.18,-48.08 332.35,-34.83 384.16,-20.04"/>
<polygon fill="midnightblue" stroke="midnightblue" points="385.21,-23.38 393.86,-17.27 383.29,-16.65 385.21,-23.38"/>
</g>
<!-- Node2&#45;&gt;Node7 -->
<g id="edge6" class="edge">
<title>Node2&#45;&gt;Node7</title>
<path fill="none" stroke="midnightblue" d="M268.48,-56.45C312.01,-48.57 377.54,-36.02 443.11,-20.18"/>
<polygon fill="midnightblue" stroke="midnightblue" points="444.33,-23.49 453.21,-17.72 442.67,-16.69 444.33,-23.49"/>
</g>
<!-- Node8 -->
<g id="node8" class="node">
<title>Node8</title>
<g id="a_node8"><a xlink:title=" ">
<polygon fill="white" stroke="#bfbfbf" points="259.5,-0.5 259.5,-19.5 375.5,-19.5 375.5,-0.5 259.5,-0.5"/>
<text text-anchor="middle" x="317.5" y="-7.5" font-family="Helvetica,sans-Serif" font-size="10.00">SEACASIoss_config.h</text>
</a>
</g>
</g>
<!-- Node2&#45;&gt;Node8 -->
<g id="edge7" class="edge">
<title>Node2&#45;&gt;Node8</title>
<path fill="none" stroke="midnightblue" d="M235.25,-56.32C250.82,-47.74 274.88,-34.49 292.96,-24.52"/>
<polygon fill="midnightblue" stroke="midnightblue" points="294.72,-27.55 301.79,-19.65 291.35,-21.42 294.72,-27.55"/>
</g>
<!-- Node9 -->
<g id="node9" class="node">
<title>Node9</title>
<g id="a_node9"><a xlink:title=" ">
<polygon fill="white" stroke="#bfbfbf" points="187.5,-0.5 187.5,-19.5 241.5,-19.5 241.5,-0.5 187.5,-0.5"/>
<text text-anchor="middle" x="214.5" y="-7.5" font-family="Helvetica,sans-Serif" font-size="10.00">complex</text>
</a>
</g>
</g>
<!-- Node2&#45;&gt;Node9 -->
<g id="edge8" class="edge">
<title>Node2&#45;&gt;Node9</title>
<path fill="none" stroke="midnightblue" d="M218.67,-56.08C218.02,-49.01 217.08,-38.86 216.26,-29.99"/>
<polygon fill="midnightblue" stroke="midnightblue" points="219.72,-29.39 215.31,-19.75 212.75,-30.03 219.72,-29.39"/>
</g>
</g>
</svg>
        <g id="navigator" transform="translate(0 0)" fill="#404254">
                <rect fill="#f2f5e9" fill-opacity="0.5" stroke="#606060" stroke-width=".5" x="0" y="0" width="60" height="60"/>
                <use id="zoomplus" xlink:href="#zoomPlus" x="17" y="9" onmousedown="handleZoom(evt,'in')"/>
                <use id="zoomminus" xlink:href="#zoomMin" x="42" y="9" onmousedown="handleZoom(evt,'out')"/>
                <use id="reset" xlink:href="#resetDef" x="30" y="36" onmousedown="handleReset()"/>
                <g id="arrowUp" xlink:href="#dirArrow" transform="translate(30 24)" onmousedown="handlePan(0,-1)">
                  <use xlink:href="#rim" fill="#404040">
                        <set attributeName="fill" to="#808080" begin="arrowUp.mouseover" end="arrowUp.mouseout"/>
                  </use>
                  <path fill="none" stroke="white" stroke-width="1.5" d="M0,-3.0v7 M-2.5,-0.5L0,-3.0L2.5,-0.5"/>
                </g>
                <g id="arrowRight" xlink:href="#dirArrow" transform="rotate(90) translate(36 -43)" onmousedown="handlePan(1,0)">
                  <use xlink:href="#rim" fill="#404040">
                        <set attributeName="fill" to="#808080" begin="arrowRight.mouseover" end="arrowRight.mouseout"/>
                  </use>
                  <path fill="none" stroke="white" stroke-width="1.5" d="M0,-3.0v7 M-2.5,-0.5L0,-3.0L2.5,-0.5"/>
                </g>
                <g id="arrowDown" xlink:href="#dirArrow" transform="rotate(180) translate(-30 -48)" onmousedown="handlePan(0,1)">
                  <use xlink:href="#rim" fill="#404040">
                        <set attributeName="fill" to="#808080" begin="arrowDown.mouseover" end="arrowDown.mouseout"/>
                  </use>
                  <path fill="none" stroke="white" stroke-width="1.5" d="M0,-3.0v7 M-2.5,-0.5L0,-3.0L2.5,-0.5"/>
                </g>
                <g id="arrowLeft" xlink:href="#dirArrow" transform="rotate(270) translate(-36 17)" onmousedown="handlePan(-1,0)">
                  <use xlink:href="#rim" fill="#404040">
                        <set attributeName="fill" to="#808080" begin="arrowLeft.mouseover" end="arrowLeft.mouseout"/>
                  </use>
                  <path fill="none" stroke="white" stroke-width="1.5" d="M0,-3.0v7 M-2.5,-0.5L0,-3.0L2.5,-0.5"/>
                </g>
        </g>
        <svg viewBox="0 0 15 15" width="100%" height="30px" preserveAspectRatio="xMaxYMin meet">
         <g id="arrow_out" transform="scale(0.3 0.3)">
          <a xlink:href="Iogs__GeneratedMesh_8h__incl_org.svg" target="_base">
           <rect id="button" ry="5" rx="5" y="6" x="6" height="38" width="38"
                fill="#f2f5e9" fill-opacity="0.5" stroke="#606060" stroke-width="1.0"/>
           <path id="arrow"
             d="M 11.500037,31.436501 C 11.940474,20.09759 22.043105,11.32322 32.158766,21.979434 L 37.068811,17.246167 C 37.068811,17.246167 37.088388,32 37.088388,32 L 22.160133,31.978069 C 22.160133,31.978069 26.997745,27.140456 26.997745,27.140456 C 18.528582,18.264221 13.291696,25.230495 11.500037,31.436501 z"
             style="fill:#404040;"/>
          </a>
         </g>
        </svg>
</svg>
