<?xml version="1.0" encoding="UTF-8" standalone="no"?>
<!DOCTYPE svg PUBLIC "-//W3C//DTD SVG 1.1//EN"
 "http://www.w3.org/Graphics/SVG/1.1/DTD/svg11.dtd">
<!-- Generated by graphviz version 7.0.0 (20221023.0053)
 -->
<!-- Title: src/gen_struc/Iogs_GeneratedMesh.h Pages: 1 -->
<svg width="615pt" height="148pt"
 viewBox="0.00 0.00 614.50 148.00" xmlns="http://www.w3.org/2000/svg" xmlns:xlink="http://www.w3.org/1999/xlink">
<g id="graph0" class="graph" transform="scale(1 1) rotate(0) translate(4 144)">
<title>src/gen_struc/Iogs_GeneratedMesh.h</title>
<!-- Node1 -->
<g id="node1" class="node">
<title>Node1</title>
<g id="a_node1"><a xlink:title=" ">
<polygon fill="#999999" stroke="#666666" points="344,-140 245,-140 245,-110 344,-110 344,-140"/>
<text text-anchor="start" x="253" y="-128" font-family="Helvetica,sans-Serif" font-size="10.00">src/gen_struc/Iogs</text>
<text text-anchor="middle" x="294.5" y="-117" font-family="Helvetica,sans-Serif" font-size="10.00">_GeneratedMesh.h</text>
</a>
</g>
</g>
<!-- Node2 -->
<g id="node2" class="node">
<title>Node2</title>
<g id="a_node2"><a xlink:title=" ">
<polygon fill="#e0e0e0" stroke="#999999" points="75,-74 0,-74 0,-55 75,-55 75,-74"/>
<text text-anchor="middle" x="37.5" y="-62" font-family="Helvetica,sans-Serif" font-size="10.00">iogs_export.h</text>
</a>
</g>
</g>
<!-- Node1&#45;&gt;Node2 -->
<g id="edge1" class="edge">
<title>Node1&#45;&gt;Node2</title>
<path fill="none" stroke="#63b8ff" d="M244.64,-112.65C198.89,-102.24 131.53,-86.9 86.16,-76.58"/>
<polygon fill="#63b8ff" stroke="#63b8ff" points="87.12,-73.21 76.6,-74.4 85.57,-80.03 87.12,-73.21"/>
</g>
<!-- Node3 -->
<g id="node3" class="node">
<title>Node3</title>
<g id="a_node3"><a xlink:href="Ioss__CodeTypes_8h.html" target="_top" xlink:title=" ">
<polygon fill="white" stroke="#666666" points="305.5,-74 207.5,-74 207.5,-55 305.5,-55 305.5,-74"/>
<text text-anchor="middle" x="256.5" y="-62" font-family="Helvetica,sans-Serif" font-size="10.00">Ioss_CodeTypes.h</text>
</a>
</g>
</g>
<!-- Node1&#45;&gt;Node3 -->
<g id="edge2" class="edge">
<title>Node1&#45;&gt;Node3</title>
<path fill="none" stroke="#63b8ff" d="M285.11,-109.54C280.04,-101.74 273.73,-92.03 268.33,-83.71"/>
<polygon fill="#63b8ff" stroke="#63b8ff" points="271.34,-81.92 262.96,-75.44 265.47,-85.74 271.34,-81.92"/>
</g>
<!-- Node4 -->
<g id="node4" class="node">
<title>Node4</title>
<g id="a_node4"><a xlink:title=" ">
<polygon fill="#e0e0e0" stroke="#999999" points="75.5,-19 37.5,-19 37.5,0 75.5,0 75.5,-19"/>
<text text-anchor="middle" x="56.5" y="-7" font-family="Helvetica,sans-Serif" font-size="10.00">array</text>
</a>
</g>
</g>
<!-- Node1&#45;&gt;Node4 -->
<g id="edge11" class="edge">
<title>Node1&#45;&gt;Node4</title>
<path fill="none" stroke="#63b8ff" d="M248.2,-109.6C221.43,-100.64 187.43,-88.14 158.5,-74 129.48,-59.82 98.25,-39.56 78.1,-25.77"/>
<polygon fill="#63b8ff" stroke="#63b8ff" points="80.36,-23.07 70.14,-20.25 76.37,-28.82 80.36,-23.07"/>
</g>
<!-- Node5 -->
<g id="node5" class="node">
<title>Node5</title>
<g id="a_node5"><a xlink:title=" ">
<polygon fill="#e0e0e0" stroke="#999999" points="143,-19 94,-19 94,0 143,0 143,-19"/>
<text text-anchor="middle" x="118.5" y="-7" font-family="Helvetica,sans-Serif" font-size="10.00">cstddef</text>
</a>
</g>
</g>
<!-- Node1&#45;&gt;Node5 -->
<g id="edge12" class="edge">
<title>Node1&#45;&gt;Node5</title>
<path fill="none" stroke="#63b8ff" d="M255.02,-109.57C233.55,-100.84 207.06,-88.57 185.5,-74 165.68,-60.6 146.19,-41.23 133.38,-27.42"/>
<polygon fill="#63b8ff" stroke="#63b8ff" points="136.32,-25.45 127.02,-20.38 131.13,-30.14 136.32,-25.45"/>
</g>
<!-- Node6 -->
<g id="node6" class="node">
<title>Node6</title>
<g id="a_node6"><a xlink:title=" ">
<polygon fill="#e0e0e0" stroke="#999999" points="207.5,-19 161.5,-19 161.5,0 207.5,0 207.5,-19"/>
<text text-anchor="middle" x="184.5" y="-7" font-family="Helvetica,sans-Serif" font-size="10.00">cstdint</text>
</a>
</g>
</g>
<!-- Node1&#45;&gt;Node6 -->
<g id="edge13" class="edge">
<title>Node1&#45;&gt;Node6</title>
<path fill="none" stroke="#63b8ff" d="M248.21,-109.56C230.21,-101.74 210.96,-90.26 198.5,-74 189.03,-61.64 185.7,-44.17 184.64,-30.68"/>
<polygon fill="#63b8ff" stroke="#63b8ff" points="188.14,-30.63 184.26,-20.77 181.15,-30.9 188.14,-30.63"/>
</g>
<!-- Node7 -->
<g id="node7" class="node">
<title>Node7</title>
<g id="a_node7"><a xlink:title=" ">
<polygon fill="#e0e0e0" stroke="#999999" points="473,-19 432,-19 432,0 473,0 473,-19"/>
<text text-anchor="middle" x="452.5" y="-7" font-family="Helvetica,sans-Serif" font-size="10.00">string</text>
</a>
</g>
</g>
<!-- Node1&#45;&gt;Node7 -->
<g id="edge15" class="edge">
<title>Node1&#45;&gt;Node7</title>
<path fill="none" stroke="#63b8ff" d="M304.97,-109.5C316.49,-94.36 336.2,-70.67 357.5,-55 376.87,-40.74 401.54,-29.35 420.89,-21.66"/>
<polygon fill="#63b8ff" stroke="#63b8ff" points="422.08,-24.96 430.17,-18.11 419.58,-18.42 422.08,-24.96"/>
</g>
<!-- Node8 -->
<g id="node8" class="node">
<title>Node8</title>
<g id="a_node8"><a xlink:title=" ">
<polygon fill="#e0e0e0" stroke="#999999" points="535.5,-19 491.5,-19 491.5,0 535.5,0 535.5,-19"/>
<text text-anchor="middle" x="513.5" y="-7" font-family="Helvetica,sans-Serif" font-size="10.00">vector</text>
</a>
</g>
</g>
<!-- Node1&#45;&gt;Node8 -->
<g id="edge17" class="edge">
<title>Node1&#45;&gt;Node8</title>
<path fill="none" stroke="#63b8ff" d="M311.8,-109.5C330.51,-94.36 361.68,-70.68 391.5,-55 420.23,-39.9 455.22,-27.71 480.35,-19.93"/>
<polygon fill="#63b8ff" stroke="#63b8ff" points="481.14,-23.35 489.7,-17.11 479.12,-16.65 481.14,-23.35"/>
</g>
<!-- Node11 -->
<g id="node11" class="node">
<title>Node11</title>
<g id="a_node11"><a xlink:href="Ioss__EntityType_8h.html" target="_top" xlink:title=" ">
<polygon fill="white" stroke="#666666" points="495,-74 400,-74 400,-55 495,-55 495,-74"/>
<text text-anchor="middle" x="447.5" y="-62" font-family="Helvetica,sans-Serif" font-size="10.00">Ioss_EntityType.h</text>
</a>
</g>
</g>
<!-- Node1&#45;&gt;Node11 -->
<g id="edge10" class="edge">
<title>Node1&#45;&gt;Node11</title>
<path fill="none" stroke="#63b8ff" d="M332.32,-109.54C357.22,-100.02 389.55,-87.66 413.61,-78.46"/>
<polygon fill="#63b8ff" stroke="#63b8ff" points="414.86,-81.73 422.95,-74.89 412.36,-75.19 414.86,-81.73"/>
</g>
<!-- Node12 -->
<g id="node12" class="node">
<title>Node12</title>
<g id="a_node12"><a xlink:title=" ">
<polygon fill="#e0e0e0" stroke="#999999" points="548,-74 513,-74 513,-55 548,-55 548,-74"/>
<text text-anchor="middle" x="530.5" y="-62" font-family="Helvetica,sans-Serif" font-size="10.00">map</text>
</a>
</g>
</g>
<!-- Node1&#45;&gt;Node12 -->
<g id="edge14" class="edge">
<title>Node1&#45;&gt;Node12</title>
<path fill="none" stroke="#63b8ff" d="M344.44,-113.32C384.67,-104.45 442.9,-91 501.68,-74.64"/>
<polygon fill="#63b8ff" stroke="#63b8ff" points="502.52,-78.03 511.2,-71.96 500.63,-71.3 502.52,-78.03"/>
</g>
<!-- Node13 -->
<g id="node13" class="node">
<title>Node13</title>
<g id="a_node13"><a xlink:title=" ">
<polygon fill="#e0e0e0" stroke="#999999" points="606.5,-74 566.5,-74 566.5,-55 606.5,-55 606.5,-74"/>
<text text-anchor="middle" x="586.5" y="-62" font-family="Helvetica,sans-Serif" font-size="10.00">utility</text>
</a>
</g>
</g>
<!-- Node1&#45;&gt;Node13 -->
<g id="edge16" class="edge">
<title>Node1&#45;&gt;Node13</title>
<path fill="none" stroke="#63b8ff" d="M344.25,-116.03C394.98,-107.56 476.15,-93.12 555.16,-74.37"/>
<polygon fill="#63b8ff" stroke="#63b8ff" points="555.91,-77.79 564.81,-72.05 554.27,-70.98 555.91,-77.79"/>
</g>
<!-- Node3&#45;&gt;Node4 -->
<g id="edge3" class="edge">
<title>Node3&#45;&gt;Node4</title>
<path fill="none" stroke="#63b8ff" d="M220.14,-54.56C187.57,-46.45 138.22,-33.91 86.76,-19.55"/>
<polygon fill="#63b8ff" stroke="#63b8ff" points="87.78,-16.2 77.21,-16.87 85.89,-22.94 87.78,-16.2"/>
</g>
<!-- Node3&#45;&gt;Node5 -->
<g id="edge4" class="edge">
<title>Node3&#45;&gt;Node5</title>
<path fill="none" stroke="#63b8ff" d="M233.09,-54.51C210.85,-45.97 177.17,-33.03 152.08,-23.4"/>
<polygon fill="#63b8ff" stroke="#63b8ff" points="153.57,-20.22 142.98,-19.9 151.06,-26.75 153.57,-20.22"/>
</g>
<!-- Node3&#45;&gt;Node6 -->
<g id="edge5" class="edge">
<title>Node3&#45;&gt;Node6</title>
<path fill="none" stroke="#63b8ff" d="M244.29,-54.51C233.67,-46.7 218.06,-35.21 205.46,-25.93"/>
<polygon fill="#63b8ff" stroke="#63b8ff" points="207.88,-23.36 197.75,-20.26 203.73,-29 207.88,-23.36"/>
</g>
<!-- Node3&#45;&gt;Node7 -->
<g id="edge6" class="edge">
<title>Node3&#45;&gt;Node7</title>
<path fill="none" stroke="#63b8ff" d="M290.56,-54.52C321.91,-46.22 369.99,-33.41 420.68,-19.47"/>
<polygon fill="#63b8ff" stroke="#63b8ff" points="421.36,-22.92 430.07,-16.88 419.5,-16.17 421.36,-22.92"/>
</g>
<!-- Node3&#45;&gt;Node8 -->
<g id="edge7" class="edge">
<title>Node3&#45;&gt;Node8</title>
<path fill="none" stroke="#63b8ff" d="M305.66,-54.89C349.17,-47.04 414.61,-34.63 480.24,-19.4"/>
<polygon fill="#63b8ff" stroke="#63b8ff" points="480.79,-22.86 489.73,-17.17 479.19,-16.05 480.79,-22.86"/>
</g>
<!-- Node9 -->
<g id="node9" class="node">
<title>Node9</title>
<g id="a_node9"><a xlink:title=" ">
<polygon fill="#e0e0e0" stroke="#999999" points="413.5,-19 297.5,-19 297.5,0 413.5,0 413.5,-19"/>
<text text-anchor="middle" x="355.5" y="-7" font-family="Helvetica,sans-Serif" font-size="10.00">SEACASIoss_config.h</text>
</a>
</g>
</g>
<!-- Node3&#45;&gt;Node9 -->
<g id="edge8" class="edge">
<title>Node3&#45;&gt;Node9</title>
<path fill="none" stroke="#63b8ff" d="M273.29,-54.51C288.6,-46.31 311.47,-34.07 329.2,-24.58"/>
<polygon fill="#63b8ff" stroke="#63b8ff" points="330.46,-27.88 337.62,-20.07 327.15,-21.71 330.46,-27.88"/>
</g>
<!-- Node10 -->
<g id="node10" class="node">
<title>Node10</title>
<g id="a_node10"><a xlink:title=" ">
<polygon fill="#e0e0e0" stroke="#999999" points="279,-19 226,-19 226,0 279,0 279,-19"/>
<text text-anchor="middle" x="252.5" y="-7" font-family="Helvetica,sans-Serif" font-size="10.00">complex</text>
</a>
</g>
</g>
<!-- Node3&#45;&gt;Node10 -->
<g id="edge9" class="edge">
<title>Node3&#45;&gt;Node10</title>
<path fill="none" stroke="#63b8ff" d="M255.84,-54.75C255.35,-48.27 254.66,-39.16 254.04,-30.9"/>
<polygon fill="#63b8ff" stroke="#63b8ff" points="257.53,-30.66 253.29,-20.95 250.55,-31.19 257.53,-30.66"/>
</g>
</g>
</svg>
