<?xml version="1.0" encoding="UTF-8" standalone="no"?>
<!DOCTYPE svg PUBLIC "-//W3C//DTD SVG 1.1//EN"
 "http://www.w3.org/Graphics/SVG/1.1/DTD/svg11.dtd">
<!-- Generated by graphviz version 12.2.1 (20241206.2353)
 -->
<!-- Title: src/heartbeat/Iohb_Layout.h Pages: 1 -->
<svg width="291pt" height="172pt"
 viewBox="0.00 0.00 290.75 171.50" xmlns="http://www.w3.org/2000/svg" xmlns:xlink="http://www.w3.org/1999/xlink">

<svg id="main" version="1.1" xmlns="http://www.w3.org/2000/svg" xmlns:xlink="http://www.w3.org/1999/xlink" xml:space="preserve">

<style type="text/css"><![CDATA[
.node, .edge {opacity: 0.7;}
.node.selected, .edge.selected {opacity: 1;}
.edge:hover path { stroke: red; }
.edge:hover polygon { stroke: red; fill: red; }
]]></style>
<script type="application/ecmascript" xlink:href="svg.min.js"/>
<svg id="graph" class="graph">
<g id="graph0" class="graph" transform="scale(1 1) rotate(0) translate(4 167.5)">
<title>src/heartbeat/Iohb_Layout.h</title>
<!-- Node1 -->
<g id="Node000001" class="node">
<title>Node1</title>
<g id="a_Node000001"><a xlink:title=" ">
<polygon fill="#999999" stroke="#666666" points="169.75,-163.5 75,-163.5 75,-133 169.75,-133 169.75,-163.5"/>
<text text-anchor="start" x="83" y="-150" font-family="Helvetica,sans-Serif" font-size="10.00">src/heartbeat/Iohb</text>
<text text-anchor="middle" x="122.38" y="-138.75" font-family="Helvetica,sans-Serif" font-size="10.00">_Layout.h</text>
</a>
</g>
</g>
<!-- Node2 -->
<g id="Node000002" class="node">
<title>Node2</title>
<g id="a_Node000002"><a xlink:href="Iohb__DatabaseIO_8C.html" target="_top" xlink:title=" ">
<polygon fill="white" stroke="#666666" points="94.75,-30.5 0,-30.5 0,0 94.75,0 94.75,-30.5"/>
<text text-anchor="start" x="8" y="-17" font-family="Helvetica,sans-Serif" font-size="10.00">src/heartbeat/Iohb</text>
<text text-anchor="middle" x="47.38" y="-5.75" font-family="Helvetica,sans-Serif" font-size="10.00">_DatabaseIO.C</text>
</a>
</g>
</g>
<!-- Node1&#45;&gt;Node2 -->
<g id="edge1_Node000001_Node000002" class="edge">
<title>Node1&#45;&gt;Node2</title>
<g id="a_edge1_Node000001_Node000002"><a xlink:title=" ">
<path fill="none" stroke="#63b8ff" d="M91.66,-125.6C82.29,-117.6 72.79,-107.81 66.38,-97 54.03,-76.19 49.71,-47.92 48.19,-30.94"/>
<polygon fill="#63b8ff" stroke="#63b8ff" points="89.33,-128.21 99.31,-131.75 93.71,-122.76 89.33,-128.21"/>
</a>
</g>
</g>
<!-- Node3 -->
<g id="Node000003" class="node">
<title>Node3</title>
<g id="a_Node000003"><a xlink:href="Iohb__DatabaseIO_8h.html" target="_top" xlink:title=" ">
<polygon fill="white" stroke="#666666" points="169.75,-97 75,-97 75,-66.5 169.75,-66.5 169.75,-97"/>
<text text-anchor="start" x="83" y="-83.5" font-family="Helvetica,sans-Serif" font-size="10.00">src/heartbeat/Iohb</text>
<text text-anchor="middle" x="122.38" y="-72.25" font-family="Helvetica,sans-Serif" font-size="10.00">_DatabaseIO.h</text>
</a>
</g>
</g>
<!-- Node1&#45;&gt;Node3 -->
<g id="edge2_Node000001_Node000003" class="edge">
<title>Node1&#45;&gt;Node3</title>
<g id="a_edge2_Node000001_Node000003"><a xlink:title=" ">
<path fill="none" stroke="#63b8ff" d="M122.38,-121.31C122.38,-113.14 122.38,-104.41 122.38,-97.33"/>
<polygon fill="#63b8ff" stroke="#63b8ff" points="118.88,-121.1 122.38,-131.1 125.88,-121.1 118.88,-121.1"/>
</a>
</g>
</g>
<!-- Node5 -->
<g id="Node000005" class="node">
<title>Node5</title>
<g id="a_Node000005"><a xlink:href="Iohb__Layout_8C.html" target="_top" xlink:title=" ">
<polygon fill="white" stroke="#666666" points="282.75,-97 188,-97 188,-66.5 282.75,-66.5 282.75,-97"/>
<text text-anchor="start" x="196" y="-83.5" font-family="Helvetica,sans-Serif" font-size="10.00">src/heartbeat/Iohb</text>
<text text-anchor="middle" x="235.38" y="-72.25" font-family="Helvetica,sans-Serif" font-size="10.00">_Layout.C</text>
</a>
</g>
</g>
<!-- Node1&#45;&gt;Node5 -->
<g id="edge5_Node000001_Node000005" class="edge">
<title>Node1&#45;&gt;Node5</title>
<g id="a_edge5_Node000001_Node000005"><a xlink:title=" ">
<path fill="none" stroke="#63b8ff" d="M157.58,-127.16C174.49,-117.5 194.4,-106.14 209.84,-97.33"/>
<polygon fill="#63b8ff" stroke="#63b8ff" points="156.28,-123.87 149.33,-131.86 159.75,-129.95 156.28,-123.87"/>
</a>
</g>
</g>
<!-- Node3&#45;&gt;Node2 -->
<g id="edge3_Node000003_Node000002" class="edge">
<title>Node3&#45;&gt;Node2</title>
<g id="a_edge3_Node000003_Node000002"><a xlink:title=" ">
<path fill="none" stroke="#63b8ff" d="M96.78,-58.74C86.07,-49.53 73.9,-39.06 64.33,-30.83"/>
<polygon fill="#63b8ff" stroke="#63b8ff" points="94.34,-61.26 104.21,-65.13 98.91,-55.95 94.34,-61.26"/>
</a>
</g>
</g>
<!-- Node4 -->
<g id="Node000004" class="node">
<title>Node4</title>
<g id="a_Node000004"><a xlink:href="Ionit__Initializer_8C.html" target="_top" xlink:title=" ">
<polygon fill="white" stroke="#666666" points="233.88,-24.88 112.88,-24.88 112.88,-5.63 233.88,-5.63 233.88,-24.88"/>
<text text-anchor="middle" x="173.38" y="-11.38" font-family="Helvetica,sans-Serif" font-size="10.00">src/init/Ionit_Initializer.C</text>
</a>
</g>
</g>
<!-- Node3&#45;&gt;Node4 -->
<g id="edge4_Node000003_Node000004" class="edge">
<title>Node3&#45;&gt;Node4</title>
<g id="a_edge4_Node000003_Node000004"><a xlink:title=" ">
<path fill="none" stroke="#63b8ff" d="M140.99,-57.2C149.84,-46.02 159.87,-33.32 166.4,-25.07"/>
<polygon fill="#63b8ff" stroke="#63b8ff" points="138.34,-54.91 134.89,-64.93 143.83,-59.25 138.34,-54.91"/>
</a>
</g>
</g>
</g>
</svg>
</svg>

<style type='text/css'>
<![CDATA[
[data-mouse-over-selected='false'] { opacity: 0.7; }
[data-mouse-over-selected='true']  { opacity: 1.0; }
]]>
</style>
<script type="application/ecmascript"><![CDATA[
document.addEventListener('DOMContentLoaded', (event) => {
  highlightEdges();
  highlightAdjacentNodes();
});
]]></script>
</svg>
