<?xml version="1.0" encoding="UTF-8" standalone="no"?>
<!DOCTYPE svg PUBLIC "-//W3C//DTD SVG 1.1//EN"
 "http://www.w3.org/Graphics/SVG/1.1/DTD/svg11.dtd">
<!-- Generated by graphviz version 9.0.0 (20230911.1827)
 -->
<!-- Title: src/heartbeat/Iohb_Layout.C Pages: 1 -->
<svg width="542pt" height="149pt"
 viewBox="0.00 0.00 541.62 149.00" xmlns="http://www.w3.org/2000/svg" xmlns:xlink="http://www.w3.org/1999/xlink">
<g id="graph0" class="graph" transform="scale(1 1) rotate(0) translate(4 145)">
<title>src/heartbeat/Iohb_Layout.C</title>
<!-- Node1 -->
<g id="Node000001" class="node">
<title>Node1</title>
<g id="a_Node000001"><a xlink:title=" ">
<polygon fill="#999999" stroke="#666666" points="420,-141 325.25,-141 325.25,-110.5 420,-110.5 420,-141"/>
<text text-anchor="start" x="333.25" y="-127.5" font-family="Helvetica,sans-Serif" font-size="10.00">src/heartbeat/Iohb</text>
<text text-anchor="middle" x="372.62" y="-116.25" font-family="Helvetica,sans-Serif" font-size="10.00">_Layout.C</text>
</a>
</g>
</g>
<!-- Node2 -->
<g id="Node000002" class="node">
<title>Node2</title>
<g id="a_Node000002"><a xlink:href="Iohb__Layout_8h.html" target="_top" xlink:title=" ">
<polygon fill="white" stroke="#666666" points="389.12,-74.5 268.12,-74.5 268.12,-55.25 389.12,-55.25 389.12,-74.5"/>
<text text-anchor="middle" x="328.62" y="-61" font-family="Helvetica,sans-Serif" font-size="10.00">heartbeat/Iohb_Layout.h</text>
</a>
</g>
</g>
<!-- Node1&#45;&gt;Node2 -->
<g id="edge1_Node000001_Node000002" class="edge">
<title>Node1&#45;&gt;Node2</title>
<g id="a_edge1_Node000001_Node000002"><a xlink:title=" ">
<path fill="none" stroke="#63b8ff" d="M361.75,-110.2C355.82,-102.27 348.43,-92.38 342.14,-83.96"/>
<polygon fill="#63b8ff" stroke="#63b8ff" points="345.1,-82.08 336.31,-76.16 339.5,-86.27 345.1,-82.08"/>
</a>
</g>
</g>
<!-- Node7 -->
<g id="Node000007" class="node">
<title>Node7</title>
<g id="a_Node000007"><a xlink:title=" ">
<polygon fill="#e0e0e0" stroke="#999999" points="533.62,-19.25 493.62,-19.25 493.62,0 533.62,0 533.62,-19.25"/>
<text text-anchor="middle" x="513.62" y="-5.75" font-family="Helvetica,sans-Serif" font-size="10.00">string</text>
</a>
</g>
</g>
<!-- Node1&#45;&gt;Node7 -->
<g id="edge9_Node000001_Node000007" class="edge">
<title>Node1&#45;&gt;Node7</title>
<g id="a_edge9_Node000001_Node000007"><a xlink:title=" ">
<path fill="none" stroke="#63b8ff" d="M390.77,-110.06C417.25,-88.63 466.31,-48.92 493.74,-26.72"/>
<polygon fill="#63b8ff" stroke="#63b8ff" points="495.72,-29.62 501.29,-20.61 491.32,-24.18 495.72,-29.62"/>
</a>
</g>
</g>
<!-- Node3 -->
<g id="Node000003" class="node">
<title>Node3</title>
<g id="a_Node000003"><a xlink:title=" ">
<polygon fill="#e0e0e0" stroke="#999999" points="69.25,-19.25 0,-19.25 0,0 69.25,0 69.25,-19.25"/>
<text text-anchor="middle" x="34.62" y="-5.75" font-family="Helvetica,sans-Serif" font-size="10.00">fmt/format.h</text>
</a>
</g>
</g>
<!-- Node2&#45;&gt;Node3 -->
<g id="edge2_Node000002_Node000003" class="edge">
<title>Node2&#45;&gt;Node3</title>
<g id="a_edge2_Node000002_Node000003"><a xlink:title=" ">
<path fill="none" stroke="#63b8ff" d="M276.39,-54.82C228.25,-46.41 154.52,-33.38 81,-19.67"/>
<polygon fill="#63b8ff" stroke="#63b8ff" points="81.64,-16.23 71.17,-17.83 80.35,-23.11 81.64,-16.23"/>
</a>
</g>
</g>
<!-- Node4 -->
<g id="Node000004" class="node">
<title>Node4</title>
<g id="a_Node000004"><a xlink:title=" ">
<polygon fill="#e0e0e0" stroke="#999999" points="164,-19.25 87.25,-19.25 87.25,0 164,0 164,-19.25"/>
<text text-anchor="middle" x="125.62" y="-5.75" font-family="Helvetica,sans-Serif" font-size="10.00">fmt/ostream.h</text>
</a>
</g>
</g>
<!-- Node2&#45;&gt;Node4 -->
<g id="edge3_Node000002_Node000004" class="edge">
<title>Node2&#45;&gt;Node4</title>
<g id="a_edge3_Node000002_Node000004"><a xlink:title=" ">
<path fill="none" stroke="#63b8ff" d="M294.19,-54.84C260.36,-45.97 208.54,-32.37 171.29,-22.6"/>
<polygon fill="#63b8ff" stroke="#63b8ff" points="172.25,-19.24 161.69,-20.09 170.48,-26.01 172.25,-19.24"/>
</a>
</g>
</g>
<!-- Node5 -->
<g id="Node000005" class="node">
<title>Node5</title>
<g id="a_Node000005"><a xlink:title=" ">
<polygon fill="#e0e0e0" stroke="#999999" points="253,-19.25 182.25,-19.25 182.25,0 253,0 253,-19.25"/>
<text text-anchor="middle" x="217.62" y="-5.75" font-family="Helvetica,sans-Serif" font-size="10.00">fmt/ranges.h</text>
</a>
</g>
</g>
<!-- Node2&#45;&gt;Node5 -->
<g id="edge4_Node000002_Node000005" class="edge">
<title>Node2&#45;&gt;Node5</title>
<g id="a_edge4_Node000002_Node000005"><a xlink:title=" ">
<path fill="none" stroke="#63b8ff" d="M309.8,-54.84C292.57,-46.58 266.82,-34.23 246.92,-24.68"/>
<polygon fill="#63b8ff" stroke="#63b8ff" points="248.44,-21.53 237.91,-20.36 245.41,-27.84 248.44,-21.53"/>
</a>
</g>
</g>
<!-- Node6 -->
<g id="Node000006" class="node">
<title>Node6</title>
<g id="a_Node000006"><a xlink:title=" ">
<polygon fill="#e0e0e0" stroke="#999999" points="322.25,-19.25 271,-19.25 271,0 322.25,0 322.25,-19.25"/>
<text text-anchor="middle" x="296.62" y="-5.75" font-family="Helvetica,sans-Serif" font-size="10.00">sstream</text>
</a>
</g>
</g>
<!-- Node2&#45;&gt;Node6 -->
<g id="edge5_Node000002_Node000006" class="edge">
<title>Node2&#45;&gt;Node6</title>
<g id="a_edge5_Node000002_Node000006"><a xlink:title=" ">
<path fill="none" stroke="#63b8ff" d="M323.34,-55.08C319.15,-48.11 313.15,-38.12 307.89,-29.37"/>
<polygon fill="#63b8ff" stroke="#63b8ff" points="310.95,-27.68 302.8,-20.91 304.95,-31.28 310.95,-27.68"/>
</a>
</g>
</g>
<!-- Node2&#45;&gt;Node7 -->
<g id="edge6_Node000002_Node000007" class="edge">
<title>Node2&#45;&gt;Node7</title>
<g id="a_edge6_Node000002_Node000007"><a xlink:title=" ">
<path fill="none" stroke="#63b8ff" d="M360.62,-54.83C389.96,-46.51 434.88,-33.72 482.5,-19.85"/>
<polygon fill="#63b8ff" stroke="#63b8ff" points="483.28,-23.27 491.9,-17.11 481.32,-16.55 483.28,-23.27"/>
</a>
</g>
</g>
<!-- Node8 -->
<g id="Node000008" class="node">
<title>Node8</title>
<g id="a_Node000008"><a xlink:title=" ">
<polygon fill="#e0e0e0" stroke="#999999" points="383.12,-19.25 340.12,-19.25 340.12,0 383.12,0 383.12,-19.25"/>
<text text-anchor="middle" x="361.62" y="-5.75" font-family="Helvetica,sans-Serif" font-size="10.00">vector</text>
</a>
</g>
</g>
<!-- Node2&#45;&gt;Node8 -->
<g id="edge7_Node000002_Node000008" class="edge">
<title>Node2&#45;&gt;Node8</title>
<g id="a_edge7_Node000002_Node000008"><a xlink:title=" ">
<path fill="none" stroke="#63b8ff" d="M334.07,-55.08C338.4,-48.11 344.59,-38.12 350.01,-29.37"/>
<polygon fill="#63b8ff" stroke="#63b8ff" points="352.97,-31.24 355.26,-20.9 347.02,-27.55 352.97,-31.24"/>
</a>
</g>
</g>
<!-- Node9 -->
<g id="Node000009" class="node">
<title>Node9</title>
<g id="a_Node000009"><a xlink:title=" ">
<polygon fill="#e0e0e0" stroke="#999999" points="475.88,-19.25 401.38,-19.25 401.38,0 475.88,0 475.88,-19.25"/>
<text text-anchor="middle" x="438.62" y="-5.75" font-family="Helvetica,sans-Serif" font-size="10.00">iohb_export.h</text>
</a>
</g>
</g>
<!-- Node2&#45;&gt;Node9 -->
<g id="edge8_Node000002_Node000009" class="edge">
<title>Node2&#45;&gt;Node9</title>
<g id="a_edge8_Node000002_Node000009"><a xlink:title=" ">
<path fill="none" stroke="#63b8ff" d="M347.29,-54.84C364.35,-46.58 389.87,-34.23 409.6,-24.68"/>
<polygon fill="#63b8ff" stroke="#63b8ff" points="411.04,-27.87 418.51,-20.36 407.99,-21.57 411.04,-27.87"/>
</a>
</g>
</g>
</g>
</svg>
