<?xml version="1.0" encoding="UTF-8" standalone="no"?>
<!DOCTYPE svg PUBLIC "-//W3C//DTD SVG 1.1//EN"
 "http://www.w3.org/Graphics/SVG/1.1/DTD/svg11.dtd">
<!-- Generated by graphviz version 8.1.0 (20230707.0739)
 -->
<!-- Title: src/heartbeat/Iohb_Layout.h Pages: 1 -->
<svg width="291pt" height="172pt"
 viewBox="0.00 0.00 290.75 171.50" xmlns="http://www.w3.org/2000/svg" xmlns:xlink="http://www.w3.org/1999/xlink">
<g id="graph0" class="graph" transform="scale(1 1) rotate(0) translate(4 167.5)">
<title>src/heartbeat/Iohb_Layout.h</title>
<!-- Node1 -->
<g id="Node000001" class="node">
<title>Node1</title>
<g id="a_Node000001"><a xlink:title=" ">
<polygon fill="#999999" stroke="#666666" points="169.75,-163.5 75,-163.5 75,-133 169.75,-133 169.75,-163.5"/>
<text text-anchor="start" x="83" y="-150" font-family="Helvetica,sans-Serif" font-size="10.00">src/heartbeat/Iohb</text>
<text text-anchor="middle" x="122.38" y="-138.75" font-family="Helvetica,sans-Serif" font-size="10.00">_Layout.h</text>
</a>
</g>
</g>
<!-- Node2 -->
<g id="Node000002" class="node">
<title>Node2</title>
<g id="a_Node000002"><a xlink:href="Iohb__DatabaseIO_8C.html" target="_top" xlink:title=" ">
<polygon fill="white" stroke="#666666" points="94.75,-30.5 0,-30.5 0,0 94.75,0 94.75,-30.5"/>
<text text-anchor="start" x="8" y="-17" font-family="Helvetica,sans-Serif" font-size="10.00">src/heartbeat/Iohb</text>
<text text-anchor="middle" x="47.38" y="-5.75" font-family="Helvetica,sans-Serif" font-size="10.00">_DatabaseIO.C</text>
</a>
</g>
</g>
<!-- Node1&#45;&gt;Node2 -->
<g id="edge1_Node000001_Node000002" class="edge">
<title>Node1&#45;&gt;Node2</title>
<g id="a_edge1_Node000001_Node000002"><a xlink:title=" ">
<path fill="none" stroke="#63b8ff" d="M91.95,-125.85C82.49,-117.8 72.85,-107.92 66.38,-97 54.03,-76.19 49.71,-47.92 48.19,-30.94"/>
<polygon fill="#63b8ff" stroke="#63b8ff" points="89.5,-129.17 99.49,-132.7 93.88,-123.71 89.5,-129.17"/>
</a>
</g>
</g>
<!-- Node3 -->
<g id="Node000003" class="node">
<title>Node3</title>
<g id="a_Node000003"><a xlink:href="Iohb__DatabaseIO_8h.html" target="_top" xlink:title=" ">
<polygon fill="white" stroke="#666666" points="169.75,-97 75,-97 75,-66.5 169.75,-66.5 169.75,-97"/>
<text text-anchor="start" x="83" y="-83.5" font-family="Helvetica,sans-Serif" font-size="10.00">src/heartbeat/Iohb</text>
<text text-anchor="middle" x="122.38" y="-72.25" font-family="Helvetica,sans-Serif" font-size="10.00">_DatabaseIO.h</text>
</a>
</g>
</g>
<!-- Node1&#45;&gt;Node3 -->
<g id="edge2_Node000001_Node000003" class="edge">
<title>Node1&#45;&gt;Node3</title>
<g id="a_edge2_Node000001_Node000003"><a xlink:title=" ">
<path fill="none" stroke="#63b8ff" d="M122.38,-121.88C122.38,-113.55 122.38,-104.58 122.38,-97.33"/>
<polygon fill="#63b8ff" stroke="#63b8ff" points="118.88,-121.61 122.38,-131.61 125.88,-121.61 118.88,-121.61"/>
</a>
</g>
</g>
<!-- Node5 -->
<g id="Node000005" class="node">
<title>Node5</title>
<g id="a_Node000005"><a xlink:href="Iohb__Layout_8C.html" target="_top" xlink:title=" ">
<polygon fill="white" stroke="#666666" points="282.75,-97 188,-97 188,-66.5 282.75,-66.5 282.75,-97"/>
<text text-anchor="start" x="196" y="-83.5" font-family="Helvetica,sans-Serif" font-size="10.00">src/heartbeat/Iohb</text>
<text text-anchor="middle" x="235.38" y="-72.25" font-family="Helvetica,sans-Serif" font-size="10.00">_Layout.C</text>
</a>
</g>
</g>
<!-- Node1&#45;&gt;Node5 -->
<g id="edge5_Node000001_Node000005" class="edge">
<title>Node1&#45;&gt;Node5</title>
<g id="a_edge5_Node000001_Node000005"><a xlink:title=" ">
<path fill="none" stroke="#63b8ff" d="M157.1,-127.43C174.12,-117.71 194.25,-106.22 209.84,-97.33"/>
<polygon fill="#63b8ff" stroke="#63b8ff" points="155.97,-124.62 149.02,-132.61 159.44,-130.7 155.97,-124.62"/>
</a>
</g>
</g>
<!-- Node3&#45;&gt;Node2 -->
<g id="edge3_Node000003_Node000002" class="edge">
<title>Node3&#45;&gt;Node2</title>
<g id="a_edge3_Node000003_Node000002"><a xlink:title=" ">
<path fill="none" stroke="#63b8ff" d="M97.1,-59.02C86.31,-49.73 74,-39.15 64.33,-30.83"/>
<polygon fill="#63b8ff" stroke="#63b8ff" points="94.49,-62.25 104.36,-66.11 99.06,-56.94 94.49,-62.25"/>
</a>
</g>
</g>
<!-- Node4 -->
<g id="Node000004" class="node">
<title>Node4</title>
<g id="a_Node000004"><a xlink:href="Ionit__Initializer_8C.html" target="_top" xlink:title=" ">
<polygon fill="white" stroke="#666666" points="233.88,-24.88 112.88,-24.88 112.88,-5.63 233.88,-5.63 233.88,-24.88"/>
<text text-anchor="middle" x="173.38" y="-11.38" font-family="Helvetica,sans-Serif" font-size="10.00">src/init/Ionit_Initializer.C</text>
</a>
</g>
</g>
<!-- Node3&#45;&gt;Node4 -->
<g id="edge4_Node000003_Node000004" class="edge">
<title>Node3&#45;&gt;Node4</title>
<g id="a_edge4_Node000003_Node000004"><a xlink:title=" ">
<path fill="none" stroke="#63b8ff" d="M140.73,-57.54C149.64,-46.27 159.81,-33.41 166.4,-25.07"/>
<polygon fill="#63b8ff" stroke="#63b8ff" points="137.4,-55.1 133.95,-65.11 142.9,-59.44 137.4,-55.1"/>
</a>
</g>
</g>
</g>
</svg>
