<?xml version="1.0" encoding="UTF-8" standalone="no"?>
<!DOCTYPE svg PUBLIC "-//W3C//DTD SVG 1.1//EN"
 "http://www.w3.org/Graphics/SVG/1.1/DTD/svg11.dtd">
<!-- Generated by graphviz version 3.0.0 (20220226.1711)
 -->
<!-- Title: src/init/Ionit_Initializer.h Pages: 1 -->
<!--zoomable 162 -->
<svg id="main" version="1.1" xmlns="http://www.w3.org/2000/svg" xmlns:xlink="http://www.w3.org/1999/xlink" xml:space="preserve" onload="init(evt)">
<style type="text/css"><![CDATA[
.edge:hover path { stroke: red; }
.edge:hover polygon { stroke: red; fill: red; }
]]></style>
<script type="text/javascript"><![CDATA[
var edges = document.getElementsByTagName('g');
if (edges && edges.length) {
  for (var i=0;i<edges.length;i++) {
    if (edges[i].id.substr(0,4)=='edge') {
      edges[i].setAttribute('class','edge');
    }
  }
}
]]></script>
        <defs>
                <circle id="rim" cx="0" cy="0" r="7"/>
                <circle id="rim2" cx="0" cy="0" r="3.5"/>
                <g id="zoomPlus">
                        <use xlink:href="#rim" fill="#404040">
                                <set attributeName="fill" to="#808080" begin="zoomplus.mouseover" end="zoomplus.mouseout"/>
                        </use>
                        <path d="M-4,0h8M0,-4v8" fill="none" stroke="white" stroke-width="1.5" pointer-events="none"/>
                </g>
                <g id="zoomMin">
                        <use xlink:href="#rim" fill="#404040">
                                <set attributeName="fill" to="#808080" begin="zoomminus.mouseover" end="zoomminus.mouseout"/>
                        </use>
                        <path d="M-4,0h8" fill="none" stroke="white" stroke-width="1.5" pointer-events="none"/>
                </g>
                <g id="dirArrow">
                        <path fill="none" stroke="white" stroke-width="1.5" d="M0,-3.0v7 M-2.5,-0.5L0,-3.0L2.5,-0.5"/>
                </g>
               <g id="resetDef">
                       <use xlink:href="#rim2" fill="#404040">
                               <set attributeName="fill" to="#808080" begin="reset.mouseover" end="reset.mouseout"/>
                       </use>
               </g>
        </defs>

<script type="text/javascript">
var viewWidth = 2135;
var viewHeight = 162;
var sectionId = 'dynsection-0';
</script>
<script xlink:href="svgpan.js"/>
<svg id="graph" class="graph">
<g id="viewport">
<title>src/init/Ionit_Initializer.h</title>
<polygon fill="white" stroke="transparent" points="-4,4 -4,-158 2130.5,-158 2130.5,4 -4,4"/>
<!-- Node1 -->
<g id="node1" class="node">
<title>Node1</title>
<g id="a_node1"><a xlink:title=" ">
<polygon fill="#bfbfbf" stroke="black" points="955,-134.5 955,-153.5 1074,-153.5 1074,-134.5 955,-134.5"/>
<text text-anchor="middle" x="1014.5" y="-141.5" font-family="Helvetica,sans-Serif" font-size="10.00">src/init/Ionit_Initializer.h</text>
</a>
</g>
</g>
<!-- Node2 -->
<g id="node2" class="node">
<title>Node2</title>
<g id="a_node2"><a xlink:href="Ut__ioad_8C.html" target="_top" xlink:title=" ">
<polygon fill="white" stroke="black" points="0,-67.5 0,-97.5 95,-97.5 95,-67.5 0,-67.5"/>
<text text-anchor="start" x="8" y="-85.5" font-family="Helvetica,sans-Serif" font-size="10.00">src/adios/utest/Ut</text>
<text text-anchor="middle" x="47.5" y="-74.5" font-family="Helvetica,sans-Serif" font-size="10.00">_ioad.C</text>
</a>
</g>
</g>
<!-- Node1&#45;&gt;Node2 -->
<g id="edge1" class="edge">
<title>Node1&#45;&gt;Node2</title>
<path fill="none" stroke="midnightblue" d="M944.61,-141.35C760.69,-136.72 266.27,-122.33 104.5,-98 101.47,-97.54 98.37,-97 95.25,-96.38"/>
<polygon fill="midnightblue" stroke="midnightblue" points="944.62,-144.85 954.71,-141.6 944.8,-137.85 944.62,-144.85"/>
</g>
<!-- Node3 -->
<g id="node3" class="node">
<title>Node3</title>
<g id="a_node3"><a xlink:href="Ionit__Initializer_8C.html" target="_top" xlink:title=" ">
<polygon fill="white" stroke="black" points="113.5,-73 113.5,-92 235.5,-92 235.5,-73 113.5,-73"/>
<text text-anchor="middle" x="174.5" y="-80" font-family="Helvetica,sans-Serif" font-size="10.00">src/init/Ionit_Initializer.C</text>
</a>
</g>
</g>
<!-- Node1&#45;&gt;Node3 -->
<g id="edge2" class="edge">
<title>Node1&#45;&gt;Node3</title>
<path fill="none" stroke="midnightblue" d="M944.56,-142.32C808.95,-140.25 501.01,-131.88 244.5,-98 233.43,-96.54 221.49,-94.31 210.66,-92.04"/>
<polygon fill="midnightblue" stroke="midnightblue" points="944.76,-145.82 954.81,-142.47 944.86,-138.82 944.76,-145.82"/>
</g>
<!-- Node4 -->
<g id="node4" class="node">
<title>Node4</title>
<g id="a_node4"><a xlink:href="cgns__decomp_8C.html" target="_top" xlink:title=" ">
<polygon fill="white" stroke="black" points="253.5,-73 253.5,-92 381.5,-92 381.5,-73 253.5,-73"/>
<text text-anchor="middle" x="317.5" y="-80" font-family="Helvetica,sans-Serif" font-size="10.00">src/main/cgns_decomp.C</text>
</a>
</g>
</g>
<!-- Node1&#45;&gt;Node4 -->
<g id="edge3" class="edge">
<title>Node1&#45;&gt;Node4</title>
<path fill="none" stroke="midnightblue" d="M944.75,-140.79C829.11,-136.51 590.59,-124.98 390.5,-98 379.23,-96.48 367.08,-94.29 355.99,-92.07"/>
<polygon fill="midnightblue" stroke="midnightblue" points="944.76,-144.3 954.88,-141.16 945.02,-137.3 944.76,-144.3"/>
</g>
<!-- Node5 -->
<g id="node5" class="node">
<title>Node5</title>
<g id="a_node5"><a xlink:href="cth__pressure__map_8C.html" target="_top" xlink:title=" ">
<polygon fill="white" stroke="black" points="400,-67.5 400,-97.5 513,-97.5 513,-67.5 400,-67.5"/>
<text text-anchor="start" x="408" y="-85.5" font-family="Helvetica,sans-Serif" font-size="10.00">src/main/cth_pressure</text>
<text text-anchor="middle" x="456.5" y="-74.5" font-family="Helvetica,sans-Serif" font-size="10.00">_map.C</text>
</a>
</g>
</g>
<!-- Node1&#45;&gt;Node5 -->
<g id="edge4" class="edge">
<title>Node1&#45;&gt;Node5</title>
<path fill="none" stroke="midnightblue" d="M944.62,-139.37C848.94,-133.76 671.96,-121.16 522.5,-98 519.49,-97.53 516.4,-97.01 513.3,-96.45"/>
<polygon fill="midnightblue" stroke="midnightblue" points="944.57,-142.87 954.75,-139.95 944.97,-135.88 944.57,-142.87"/>
</g>
<!-- Node6 -->
<g id="node6" class="node">
<title>Node6</title>
<g id="a_node6"><a xlink:href="io__info_8h.html" target="_top" xlink:title=" ">
<polygon fill="white" stroke="black" points="531.5,-73 531.5,-92 625.5,-92 625.5,-73 531.5,-73"/>
<text text-anchor="middle" x="578.5" y="-80" font-family="Helvetica,sans-Serif" font-size="10.00">src/main/io_info.h</text>
</a>
</g>
</g>
<!-- Node1&#45;&gt;Node6 -->
<g id="edge5" class="edge">
<title>Node1&#45;&gt;Node6</title>
<path fill="none" stroke="midnightblue" d="M944.88,-137.61C868.35,-131.02 741.98,-118.18 634.5,-98 625.91,-96.39 616.69,-94.2 608.27,-92.01"/>
<polygon fill="midnightblue" stroke="midnightblue" points="944.62,-141.1 954.88,-138.46 945.22,-134.12 944.62,-141.1"/>
</g>
<!-- Node9 -->
<g id="node9" class="node">
<title>Node9</title>
<g id="a_node9"><a xlink:href="io__modify_8C.html" target="_top" xlink:title=" ">
<polygon fill="white" stroke="black" points="643.5,-73 643.5,-92 751.5,-92 751.5,-73 643.5,-73"/>
<text text-anchor="middle" x="697.5" y="-80" font-family="Helvetica,sans-Serif" font-size="10.00">src/main/io_modify.C</text>
</a>
</g>
</g>
<!-- Node1&#45;&gt;Node9 -->
<g id="edge8" class="edge">
<title>Node1&#45;&gt;Node9</title>
<path fill="none" stroke="midnightblue" d="M951.83,-132.81C900.32,-124.22 825.5,-111.23 760.5,-98 751.59,-96.19 742.01,-94.07 733.08,-92.02"/>
<polygon fill="midnightblue" stroke="midnightblue" points="951.38,-136.28 961.81,-134.47 952.52,-129.38 951.38,-136.28"/>
</g>
<!-- Node10 -->
<g id="node10" class="node">
<title>Node10</title>
<g id="a_node10"><a xlink:href="io__shell_8C.html" target="_top" xlink:title=" ">
<polygon fill="white" stroke="black" points="770,-73 770,-92 871,-92 871,-73 770,-73"/>
<text text-anchor="middle" x="820.5" y="-80" font-family="Helvetica,sans-Serif" font-size="10.00">src/main/io_shell.C</text>
</a>
</g>
</g>
<!-- Node1&#45;&gt;Node10 -->
<g id="edge9" class="edge">
<title>Node1&#45;&gt;Node10</title>
<path fill="none" stroke="midnightblue" d="M977.1,-131.53C939.39,-119.96 882.07,-102.38 848.24,-92.01"/>
<polygon fill="midnightblue" stroke="midnightblue" points="976.12,-134.89 986.7,-134.48 978.17,-128.2 976.12,-134.89"/>
</g>
<!-- Node11 -->
<g id="node11" class="node">
<title>Node11</title>
<g id="a_node11"><a xlink:href="io__shell__ts_8C.html" target="_top" xlink:title=" ">
<polygon fill="white" stroke="black" points="889.5,-73 889.5,-92 1003.5,-92 1003.5,-73 889.5,-73"/>
<text text-anchor="middle" x="946.5" y="-80" font-family="Helvetica,sans-Serif" font-size="10.00">src/main/io_shell_ts.C</text>
</a>
</g>
</g>
<!-- Node1&#45;&gt;Node11 -->
<g id="edge10" class="edge">
<title>Node1&#45;&gt;Node11</title>
<path fill="none" stroke="midnightblue" d="M996.96,-127.65C983.99,-116.31 966.82,-101.28 956.22,-92.01"/>
<polygon fill="midnightblue" stroke="midnightblue" points="994.93,-130.52 1004.76,-134.48 999.54,-125.26 994.93,-130.52"/>
</g>
<!-- Node12 -->
<g id="node12" class="node">
<title>Node12</title>
<g id="a_node12"><a xlink:href="line__decomp_8C.html" target="_top" xlink:title=" ">
<polygon fill="white" stroke="black" points="1021.5,-73 1021.5,-92 1143.5,-92 1143.5,-73 1021.5,-73"/>
<text text-anchor="middle" x="1082.5" y="-80" font-family="Helvetica,sans-Serif" font-size="10.00">src/main/line_decomp.C</text>
</a>
</g>
</g>
<!-- Node1&#45;&gt;Node12 -->
<g id="edge11" class="edge">
<title>Node1&#45;&gt;Node12</title>
<path fill="none" stroke="midnightblue" d="M1032.04,-127.65C1045.01,-116.31 1062.18,-101.28 1072.78,-92.01"/>
<polygon fill="midnightblue" stroke="midnightblue" points="1029.46,-125.26 1024.24,-134.48 1034.07,-130.52 1029.46,-125.26"/>
</g>
<!-- Node13 -->
<g id="node13" class="node">
<title>Node13</title>
<g id="a_node13"><a xlink:href="shell__to__hex_8C.html" target="_top" xlink:title=" ">
<polygon fill="white" stroke="black" points="1161.5,-73 1161.5,-92 1283.5,-92 1283.5,-73 1161.5,-73"/>
<text text-anchor="middle" x="1222.5" y="-80" font-family="Helvetica,sans-Serif" font-size="10.00">src/main/shell_to_hex.C</text>
</a>
</g>
</g>
<!-- Node1&#45;&gt;Node13 -->
<g id="edge12" class="edge">
<title>Node1&#45;&gt;Node13</title>
<path fill="none" stroke="midnightblue" d="M1054.09,-131.68C1094.5,-120.11 1156.33,-102.43 1192.75,-92.01"/>
<polygon fill="midnightblue" stroke="midnightblue" points="1052.95,-128.36 1044.3,-134.48 1054.88,-135.09 1052.95,-128.36"/>
</g>
<!-- Node14 -->
<g id="node14" class="node">
<title>Node14</title>
<g id="a_node14"><a xlink:href="skinner_8C.html" target="_top" xlink:title=" ">
<polygon fill="white" stroke="black" points="1301.5,-73 1301.5,-92 1399.5,-92 1399.5,-73 1301.5,-73"/>
<text text-anchor="middle" x="1350.5" y="-80" font-family="Helvetica,sans-Serif" font-size="10.00">src/main/skinner.C</text>
</a>
</g>
</g>
<!-- Node1&#45;&gt;Node14 -->
<g id="edge13" class="edge">
<title>Node1&#45;&gt;Node14</title>
<path fill="none" stroke="midnightblue" d="M1084.38,-133.36C1140.78,-125.18 1222.06,-112.48 1292.5,-98 1300.94,-96.27 1310,-94.13 1318.4,-92.04"/>
<polygon fill="midnightblue" stroke="midnightblue" points="1083.55,-129.94 1074.15,-134.83 1084.54,-136.87 1083.55,-129.94"/>
</g>
<!-- Node15 -->
<g id="node15" class="node">
<title>Node15</title>
<g id="a_node15"><a xlink:href="sphgen_8C.html" target="_top" xlink:title=" ">
<polygon fill="white" stroke="black" points="1418,-73 1418,-92 1517,-92 1517,-73 1418,-73"/>
<text text-anchor="middle" x="1467.5" y="-80" font-family="Helvetica,sans-Serif" font-size="10.00">src/main/sphgen.C</text>
</a>
</g>
</g>
<!-- Node1&#45;&gt;Node15 -->
<g id="edge14" class="edge">
<title>Node1&#45;&gt;Node15</title>
<path fill="none" stroke="midnightblue" d="M1084.57,-137.71C1163.67,-131.11 1295.98,-118.17 1408.5,-98 1417.43,-96.4 1427.02,-94.24 1435.81,-92.07"/>
<polygon fill="midnightblue" stroke="midnightblue" points="1083.93,-134.25 1074.25,-138.56 1084.5,-141.22 1083.93,-134.25"/>
</g>
<!-- Node16 -->
<g id="node16" class="node">
<title>Node16</title>
<g id="a_node16"><a xlink:href="struc__to__unstruc_8C.html" target="_top" xlink:title=" ">
<polygon fill="white" stroke="black" points="1535.5,-73 1535.5,-92 1675.5,-92 1675.5,-73 1535.5,-73"/>
<text text-anchor="middle" x="1605.5" y="-80" font-family="Helvetica,sans-Serif" font-size="10.00">src/main/struc_to_unstruc.C</text>
</a>
</g>
</g>
<!-- Node1&#45;&gt;Node16 -->
<g id="edge15" class="edge">
<title>Node1&#45;&gt;Node16</title>
<path fill="none" stroke="midnightblue" d="M1084.37,-138.94C1183.16,-132.74 1369.15,-119.31 1526.5,-98 1538.38,-96.39 1551.2,-94.23 1562.98,-92.06"/>
<polygon fill="midnightblue" stroke="midnightblue" points="1083.98,-135.46 1074.22,-139.58 1084.42,-142.45 1083.98,-135.46"/>
</g>
<!-- Node17 -->
<g id="node17" class="node">
<title>Node17</title>
<g id="a_node17"><a xlink:href="UnitTestIotmTextMeshFixture_8h.html" target="_top" xlink:title=" ">
<polygon fill="white" stroke="black" points="1694,-67.5 1694,-97.5 1829,-97.5 1829,-67.5 1694,-67.5"/>
<text text-anchor="start" x="1702" y="-85.5" font-family="Helvetica,sans-Serif" font-size="10.00">src/unit_tests/UnitTestIotm</text>
<text text-anchor="middle" x="1761.5" y="-74.5" font-family="Helvetica,sans-Serif" font-size="10.00">TextMeshFixture.h</text>
</a>
</g>
</g>
<!-- Node1&#45;&gt;Node17 -->
<g id="edge16" class="edge">
<title>Node1&#45;&gt;Node17</title>
<path fill="none" stroke="midnightblue" d="M1084.67,-141.04C1206.93,-137 1466.78,-125.71 1684.5,-98 1687.6,-97.6 1690.77,-97.16 1693.97,-96.69"/>
<polygon fill="midnightblue" stroke="midnightblue" points="1084.22,-137.55 1074.34,-141.37 1084.44,-144.55 1084.22,-137.55"/>
</g>
<!-- Node19 -->
<g id="node19" class="node">
<title>Node19</title>
<g id="a_node19"><a xlink:href="Utst__IofxDatabaseIO_8C.html" target="_top" xlink:title=" ">
<polygon fill="white" stroke="black" points="1847,-73 1847,-92 2008,-92 2008,-73 1847,-73"/>
<text text-anchor="middle" x="1927.5" y="-80" font-family="Helvetica,sans-Serif" font-size="10.00">src/utest/Utst_IofxDatabaseIO.C</text>
</a>
</g>
</g>
<!-- Node1&#45;&gt;Node19 -->
<g id="edge18" class="edge">
<title>Node1&#45;&gt;Node19</title>
<path fill="none" stroke="midnightblue" d="M1084.46,-141.7C1226.81,-138.5 1560.24,-128.18 1838.5,-98 1852.35,-96.5 1867.33,-94.29 1880.98,-92.04"/>
<polygon fill="midnightblue" stroke="midnightblue" points="1084.06,-138.21 1074.13,-141.93 1084.21,-145.21 1084.06,-138.21"/>
</g>
<!-- Node20 -->
<g id="node20" class="node">
<title>Node20</title>
<g id="a_node20"><a xlink:href="Utst__blob__write__read_8C.html" target="_top" xlink:title=" ">
<polygon fill="white" stroke="black" points="2026.5,-67.5 2026.5,-97.5 2126.5,-97.5 2126.5,-67.5 2026.5,-67.5"/>
<text text-anchor="start" x="2034.5" y="-85.5" font-family="Helvetica,sans-Serif" font-size="10.00">src/utest/Utst_blob</text>
<text text-anchor="middle" x="2076.5" y="-74.5" font-family="Helvetica,sans-Serif" font-size="10.00">_write_read.C</text>
</a>
</g>
</g>
<!-- Node1&#45;&gt;Node20 -->
<g id="edge19" class="edge">
<title>Node1&#45;&gt;Node20</title>
<path fill="none" stroke="midnightblue" d="M1084.21,-141.65C1280.77,-137.57 1836.88,-123.99 2017.5,-98 2020.42,-97.58 2023.41,-97.08 2026.42,-96.52"/>
<polygon fill="midnightblue" stroke="midnightblue" points="1083.93,-138.16 1074.01,-141.86 1084.08,-145.16 1083.93,-138.16"/>
</g>
<!-- Node7 -->
<g id="node7" class="node">
<title>Node7</title>
<g id="a_node7"><a xlink:href="io__info_8C.html" target="_top" xlink:title=" ">
<polygon fill="white" stroke="black" points="467.5,-6 467.5,-25 563.5,-25 563.5,-6 467.5,-6"/>
<text text-anchor="middle" x="515.5" y="-13" font-family="Helvetica,sans-Serif" font-size="10.00">src/main/io_info.C</text>
</a>
</g>
</g>
<!-- Node6&#45;&gt;Node7 -->
<g id="edge6" class="edge">
<title>Node6&#45;&gt;Node7</title>
<path fill="none" stroke="midnightblue" d="M562.99,-65.5C550.63,-52.75 533.81,-35.39 523.86,-25.13"/>
<polygon fill="midnightblue" stroke="midnightblue" points="560.53,-67.99 570,-72.73 565.56,-63.12 560.53,-67.99"/>
</g>
<!-- Node8 -->
<g id="node8" class="node">
<title>Node8</title>
<g id="a_node8"><a xlink:href="io__info__main_8C.html" target="_top" xlink:title=" ">
<polygon fill="white" stroke="black" points="581.5,-6 581.5,-25 703.5,-25 703.5,-6 581.5,-6"/>
<text text-anchor="middle" x="642.5" y="-13" font-family="Helvetica,sans-Serif" font-size="10.00">src/main/io_info_main.C</text>
</a>
</g>
</g>
<!-- Node6&#45;&gt;Node8 -->
<g id="edge7" class="edge">
<title>Node6&#45;&gt;Node8</title>
<path fill="none" stroke="midnightblue" d="M594.26,-65.5C606.81,-52.75 623.9,-35.39 634.01,-25.13"/>
<polygon fill="midnightblue" stroke="midnightblue" points="591.65,-63.15 587.13,-72.73 596.64,-68.06 591.65,-63.15"/>
</g>
<!-- Node18 -->
<g id="node18" class="node">
<title>Node18</title>
<g id="a_node18"><a xlink:href="UnitTestTextMesh_8C.html" target="_top" xlink:title=" ">
<polygon fill="white" stroke="black" points="1694.5,-0.5 1694.5,-30.5 1828.5,-30.5 1828.5,-0.5 1694.5,-0.5"/>
<text text-anchor="start" x="1702.5" y="-18.5" font-family="Helvetica,sans-Serif" font-size="10.00">src/unit_tests/UnitTestText</text>
<text text-anchor="middle" x="1761.5" y="-7.5" font-family="Helvetica,sans-Serif" font-size="10.00">Mesh.C</text>
</a>
</g>
</g>
<!-- Node17&#45;&gt;Node18 -->
<g id="edge17" class="edge">
<title>Node17&#45;&gt;Node18</title>
<path fill="none" stroke="midnightblue" d="M1761.5,-57.11C1761.5,-48.15 1761.5,-38.32 1761.5,-30.58"/>
<polygon fill="midnightblue" stroke="midnightblue" points="1758,-57.4 1761.5,-67.4 1765,-57.4 1758,-57.4"/>
</g>
</g>
</svg>
        <g id="navigator" transform="translate(0 0)" fill="#404254">
                <rect fill="#f2f5e9" fill-opacity="0.5" stroke="#606060" stroke-width=".5" x="0" y="0" width="60" height="60"/>
                <use id="zoomplus" xlink:href="#zoomPlus" x="17" y="9" onmousedown="handleZoom(evt,'in')"/>
                <use id="zoomminus" xlink:href="#zoomMin" x="42" y="9" onmousedown="handleZoom(evt,'out')"/>
                <use id="reset" xlink:href="#resetDef" x="30" y="36" onmousedown="handleReset()"/>
                <g id="arrowUp" xlink:href="#dirArrow" transform="translate(30 24)" onmousedown="handlePan(0,-1)">
                  <use xlink:href="#rim" fill="#404040">
                        <set attributeName="fill" to="#808080" begin="arrowUp.mouseover" end="arrowUp.mouseout"/>
                  </use>
                  <path fill="none" stroke="white" stroke-width="1.5" d="M0,-3.0v7 M-2.5,-0.5L0,-3.0L2.5,-0.5"/>
                </g>
                <g id="arrowRight" xlink:href="#dirArrow" transform="rotate(90) translate(36 -43)" onmousedown="handlePan(1,0)">
                  <use xlink:href="#rim" fill="#404040">
                        <set attributeName="fill" to="#808080" begin="arrowRight.mouseover" end="arrowRight.mouseout"/>
                  </use>
                  <path fill="none" stroke="white" stroke-width="1.5" d="M0,-3.0v7 M-2.5,-0.5L0,-3.0L2.5,-0.5"/>
                </g>
                <g id="arrowDown" xlink:href="#dirArrow" transform="rotate(180) translate(-30 -48)" onmousedown="handlePan(0,1)">
                  <use xlink:href="#rim" fill="#404040">
                        <set attributeName="fill" to="#808080" begin="arrowDown.mouseover" end="arrowDown.mouseout"/>
                  </use>
                  <path fill="none" stroke="white" stroke-width="1.5" d="M0,-3.0v7 M-2.5,-0.5L0,-3.0L2.5,-0.5"/>
                </g>
                <g id="arrowLeft" xlink:href="#dirArrow" transform="rotate(270) translate(-36 17)" onmousedown="handlePan(-1,0)">
                  <use xlink:href="#rim" fill="#404040">
                        <set attributeName="fill" to="#808080" begin="arrowLeft.mouseover" end="arrowLeft.mouseout"/>
                  </use>
                  <path fill="none" stroke="white" stroke-width="1.5" d="M0,-3.0v7 M-2.5,-0.5L0,-3.0L2.5,-0.5"/>
                </g>
        </g>
        <svg viewBox="0 0 15 15" width="100%" height="30px" preserveAspectRatio="xMaxYMin meet">
         <g id="arrow_out" transform="scale(0.3 0.3)">
          <a xlink:href="Ionit__Initializer_8h__dep__incl_org.svg" target="_base">
           <rect id="button" ry="5" rx="5" y="6" x="6" height="38" width="38"
                fill="#f2f5e9" fill-opacity="0.5" stroke="#606060" stroke-width="1.0"/>
           <path id="arrow"
             d="M 11.500037,31.436501 C 11.940474,20.09759 22.043105,11.32322 32.158766,21.979434 L 37.068811,17.246167 C 37.068811,17.246167 37.088388,32 37.088388,32 L 22.160133,31.978069 C 22.160133,31.978069 26.997745,27.140456 26.997745,27.140456 C 18.528582,18.264221 13.291696,25.230495 11.500037,31.436501 z"
             style="fill:#404040;"/>
          </a>
         </g>
        </svg>
</svg>
