<?xml version="1.0" encoding="UTF-8" standalone="no"?>
<!DOCTYPE svg PUBLIC "-//W3C//DTD SVG 1.1//EN"
 "http://www.w3.org/Graphics/SVG/1.1/DTD/svg11.dtd">
<!-- Generated by graphviz version 13.1.2 (20250808.2320)
 -->
<!-- Title: src/s3/Ios3_AwsHelpers.h Pages: 1 -->
<svg width="633pt" height="83pt"
 viewBox="0.00 0.00 633.00 83.00" xmlns="http://www.w3.org/2000/svg" xmlns:xlink="http://www.w3.org/1999/xlink">
<g id="graph0" class="graph" transform="scale(1 1) rotate(0) translate(4 78.5)">
<title>src/s3/Ios3_AwsHelpers.h</title>
<!-- Node1 -->
<g id="Node000001" class="node">
<title>Node1</title>
<g id="a_Node000001"><a xlink:title=" ">
<polygon fill="#999999" stroke="#666666" points="479,-74.5 347.5,-74.5 347.5,-55.25 479,-55.25 479,-74.5"/>
<text xml:space="preserve" text-anchor="middle" x="413.25" y="-61" font-family="Helvetica,sans-Serif" font-size="10.00">src/s3/Ios3_AwsHelpers.h</text>
</a>
</g>
</g>
<!-- Node2 -->
<g id="Node000002" class="node">
<title>Node2</title>
<g id="a_Node000002"><a xlink:title=" ">
<polygon fill="#e0e0e0" stroke="#999999" points="86.5,-19.25 0,-19.25 0,0 86.5,0 86.5,-19.25"/>
<text xml:space="preserve" text-anchor="middle" x="43.25" y="-5.75" font-family="Helvetica,sans-Serif" font-size="10.00">aws/core/Aws.h</text>
</a>
</g>
</g>
<!-- Node1&#45;&gt;Node2 -->
<g id="edge1_Node000001_Node000002" class="edge">
<title>Node1&#45;&gt;Node2</title>
<g id="a_edge1_Node000001_Node000002"><a xlink:title=" ">
<path fill="none" stroke="#63b8ff" d="M347.1,-55.08C285.24,-46.75 189.98,-33.63 98.11,-19.66"/>
<polygon fill="#63b8ff" stroke="#63b8ff" points="98.84,-16.23 88.43,-18.18 97.78,-23.15 98.84,-16.23"/>
</a>
</g>
</g>
<!-- Node3 -->
<g id="Node000003" class="node">
<title>Node3</title>
<g id="a_Node000003"><a xlink:title=" ">
<polygon fill="#e0e0e0" stroke="#999999" points="200.38,-19.25 104.12,-19.25 104.12,0 200.38,0 200.38,-19.25"/>
<text xml:space="preserve" text-anchor="middle" x="152.25" y="-5.75" font-family="Helvetica,sans-Serif" font-size="10.00">aws/s3/S3Client.h</text>
</a>
</g>
</g>
<!-- Node1&#45;&gt;Node3 -->
<g id="edge2_Node000001_Node000003" class="edge">
<title>Node1&#45;&gt;Node3</title>
<g id="a_edge2_Node000001_Node000003"><a xlink:title=" ">
<path fill="none" stroke="#63b8ff" d="M368.68,-54.78C324.2,-45.71 255.74,-31.74 207.76,-21.95"/>
<polygon fill="#63b8ff" stroke="#63b8ff" points="208.62,-18.55 198.12,-19.98 207.22,-25.41 208.62,-18.55"/>
</a>
</g>
</g>
<!-- Node4 -->
<g id="Node000004" class="node">
<title>Node4</title>
<g id="a_Node000004"><a xlink:title=" ">
<polygon fill="#e0e0e0" stroke="#999999" points="372.25,-19.25 218.25,-19.25 218.25,0 372.25,0 372.25,-19.25"/>
<text xml:space="preserve" text-anchor="middle" x="295.25" y="-5.75" font-family="Helvetica,sans-Serif" font-size="10.00">aws/transfer/TransferManager.h</text>
</a>
</g>
</g>
<!-- Node1&#45;&gt;Node4 -->
<g id="edge3_Node000001_Node000004" class="edge">
<title>Node1&#45;&gt;Node4</title>
<g id="a_edge3_Node000001_Node000004"><a xlink:title=" ">
<path fill="none" stroke="#63b8ff" d="M393.23,-54.84C374.76,-46.5 347.04,-34 325.8,-24.41"/>
<polygon fill="#63b8ff" stroke="#63b8ff" points="327.3,-21.25 316.74,-20.33 324.42,-27.63 327.3,-21.25"/>
</a>
</g>
</g>
<!-- Node5 -->
<g id="Node000005" class="node">
<title>Node5</title>
<g id="a_Node000005"><a xlink:title=" ">
<polygon fill="#e0e0e0" stroke="#999999" points="435.88,-19.25 390.62,-19.25 390.62,0 435.88,0 435.88,-19.25"/>
<text xml:space="preserve" text-anchor="middle" x="413.25" y="-5.75" font-family="Helvetica,sans-Serif" font-size="10.00">cstdint</text>
</a>
</g>
</g>
<!-- Node1&#45;&gt;Node5 -->
<g id="edge4_Node000001_Node000005" class="edge">
<title>Node1&#45;&gt;Node5</title>
<g id="a_edge4_Node000001_Node000005"><a xlink:title=" ">
<path fill="none" stroke="#63b8ff" d="M413.25,-55.08C413.25,-48.57 413.25,-39.42 413.25,-31.12"/>
<polygon fill="#63b8ff" stroke="#63b8ff" points="416.75,-31.12 413.25,-21.12 409.75,-31.12 416.75,-31.12"/>
</a>
</g>
</g>
<!-- Node6 -->
<g id="Node000006" class="node">
<title>Node6</title>
<g id="a_Node000006"><a xlink:title=" ">
<polygon fill="#e0e0e0" stroke="#999999" points="504.88,-19.25 453.62,-19.25 453.62,0 504.88,0 504.88,-19.25"/>
<text xml:space="preserve" text-anchor="middle" x="479.25" y="-5.75" font-family="Helvetica,sans-Serif" font-size="10.00">memory</text>
</a>
</g>
</g>
<!-- Node1&#45;&gt;Node6 -->
<g id="edge5_Node000001_Node000006" class="edge">
<title>Node1&#45;&gt;Node6</title>
<g id="a_edge5_Node000001_Node000006"><a xlink:title=" ">
<path fill="none" stroke="#63b8ff" d="M424.45,-54.84C433.99,-47.15 447.92,-35.9 459.36,-26.68"/>
<polygon fill="#63b8ff" stroke="#63b8ff" points="461.46,-29.48 467.04,-20.48 457.06,-24.03 461.46,-29.48"/>
</a>
</g>
</g>
<!-- Node7 -->
<g id="Node000007" class="node">
<title>Node7</title>
<g id="a_Node000007"><a xlink:title=" ">
<polygon fill="#e0e0e0" stroke="#999999" points="563.25,-19.25 523.25,-19.25 523.25,0 563.25,0 563.25,-19.25"/>
<text xml:space="preserve" text-anchor="middle" x="543.25" y="-5.75" font-family="Helvetica,sans-Serif" font-size="10.00">string</text>
</a>
</g>
</g>
<!-- Node1&#45;&gt;Node7 -->
<g id="edge6_Node000001_Node000007" class="edge">
<title>Node1&#45;&gt;Node7</title>
<g id="a_edge6_Node000001_Node000007"><a xlink:title=" ">
<path fill="none" stroke="#63b8ff" d="M435.3,-54.84C456.44,-46.18 488.54,-33.03 512.25,-23.32"/>
<polygon fill="#63b8ff" stroke="#63b8ff" points="513.48,-26.6 521.41,-19.57 510.82,-20.12 513.48,-26.6"/>
</a>
</g>
</g>
<!-- Node8 -->
<g id="Node000008" class="node">
<title>Node8</title>
<g id="a_Node000008"><a xlink:title=" ">
<polygon fill="#e0e0e0" stroke="#999999" points="624.75,-19.25 581.75,-19.25 581.75,0 624.75,0 624.75,-19.25"/>
<text xml:space="preserve" text-anchor="middle" x="603.25" y="-5.75" font-family="Helvetica,sans-Serif" font-size="10.00">vector</text>
</a>
</g>
</g>
<!-- Node1&#45;&gt;Node8 -->
<g id="edge7_Node000001_Node000008" class="edge">
<title>Node1&#45;&gt;Node8</title>
<g id="a_edge7_Node000001_Node000008"><a xlink:title=" ">
<path fill="none" stroke="#63b8ff" d="M445.48,-54.84C480.2,-45.11 535.17,-29.71 570.2,-19.89"/>
<polygon fill="#63b8ff" stroke="#63b8ff" points="571.12,-23.27 579.8,-17.2 569.23,-16.53 571.12,-23.27"/>
</a>
</g>
</g>
</g>
</svg>
