<?xml version="1.0" encoding="UTF-8" standalone="no"?>
<!DOCTYPE svg PUBLIC "-//W3C//DTD SVG 1.1//EN"
 "http://www.w3.org/Graphics/SVG/1.1/DTD/svg11.dtd">
<!-- Generated by graphviz version 12.2.1 (20241206.2353)
 -->
<!-- Title: src/Ioss_DynamicTopologyNotifier.h Pages: 1 -->
<svg width="659pt" height="172pt"
 viewBox="0.00 0.00 658.50 171.50" xmlns="http://www.w3.org/2000/svg" xmlns:xlink="http://www.w3.org/1999/xlink">
<g id="graph0" class="graph" transform="scale(1 1) rotate(0) translate(4 167.5)">
<title>src/Ioss_DynamicTopologyNotifier.h</title>
<!-- Node1 -->
<g id="Node000001" class="node">
<title>Node1</title>
<g id="a_Node000001"><a xlink:title=" ">
<polygon fill="#999999" stroke="#666666" points="497.5,-163.5 363,-163.5 363,-133 497.5,-133 497.5,-163.5"/>
<text text-anchor="start" x="371" y="-150" font-family="Helvetica,sans-Serif" font-size="10.00">src/Ioss_DynamicTopology</text>
<text text-anchor="middle" x="430.25" y="-138.75" font-family="Helvetica,sans-Serif" font-size="10.00">Notifier.h</text>
</a>
</g>
</g>
<!-- Node2 -->
<g id="Node000002" class="node">
<title>Node2</title>
<g id="a_Node000002"><a xlink:href="Ioss__DynamicTopologyBroker_8h.html" target="_top" xlink:title=" ">
<polygon fill="white" stroke="#666666" points="344.5,-97 210,-97 210,-66.5 344.5,-66.5 344.5,-97"/>
<text text-anchor="start" x="218" y="-83.5" font-family="Helvetica,sans-Serif" font-size="10.00">src/Ioss_DynamicTopology</text>
<text text-anchor="middle" x="277.25" y="-72.25" font-family="Helvetica,sans-Serif" font-size="10.00">Broker.h</text>
</a>
</g>
</g>
<!-- Node1&#45;&gt;Node2 -->
<g id="edge1_Node000001_Node000002" class="edge">
<title>Node1&#45;&gt;Node2</title>
<g id="a_edge1_Node000001_Node000002"><a xlink:title=" ">
<path fill="none" stroke="#63b8ff" d="M385.18,-128.25C361.83,-118.41 333.76,-106.57 312.1,-97.44"/>
<polygon fill="#63b8ff" stroke="#63b8ff" points="383.56,-131.37 394.14,-132.03 386.28,-124.92 383.56,-131.37"/>
</a>
</g>
</g>
<!-- Node7 -->
<g id="Node000007" class="node">
<title>Node7</title>
<g id="a_Node000007"><a xlink:href="Ioss__DynamicTopologyNotifier_8C.html" target="_top" xlink:title=" ">
<polygon fill="white" stroke="#666666" points="497.5,-97 363,-97 363,-66.5 497.5,-66.5 497.5,-97"/>
<text text-anchor="start" x="371" y="-83.5" font-family="Helvetica,sans-Serif" font-size="10.00">src/Ioss_DynamicTopology</text>
<text text-anchor="middle" x="430.25" y="-72.25" font-family="Helvetica,sans-Serif" font-size="10.00">Notifier.C</text>
</a>
</g>
</g>
<!-- Node1&#45;&gt;Node7 -->
<g id="edge6_Node000001_Node000007" class="edge">
<title>Node1&#45;&gt;Node7</title>
<g id="a_edge6_Node000001_Node000007"><a xlink:title=" ">
<path fill="none" stroke="#63b8ff" d="M430.25,-121.31C430.25,-113.14 430.25,-104.41 430.25,-97.33"/>
<polygon fill="#63b8ff" stroke="#63b8ff" points="426.75,-121.1 430.25,-131.1 433.75,-121.1 426.75,-121.1"/>
</a>
</g>
</g>
<!-- Node8 -->
<g id="Node000008" class="node">
<title>Node8</title>
<g id="a_Node000008"><a xlink:href="Ioss__DynamicTopologyObserver_8C.html" target="_top" xlink:title=" ">
<polygon fill="white" stroke="#666666" points="650.5,-97 516,-97 516,-66.5 650.5,-66.5 650.5,-97"/>
<text text-anchor="start" x="524" y="-83.5" font-family="Helvetica,sans-Serif" font-size="10.00">src/Ioss_DynamicTopology</text>
<text text-anchor="middle" x="583.25" y="-72.25" font-family="Helvetica,sans-Serif" font-size="10.00">Observer.C</text>
</a>
</g>
</g>
<!-- Node1&#45;&gt;Node8 -->
<g id="edge7_Node000001_Node000008" class="edge">
<title>Node1&#45;&gt;Node8</title>
<g id="a_edge7_Node000001_Node000008"><a xlink:title=" ">
<path fill="none" stroke="#63b8ff" d="M475.32,-128.25C498.67,-118.41 526.74,-106.57 548.4,-97.44"/>
<polygon fill="#63b8ff" stroke="#63b8ff" points="474.22,-124.92 466.36,-132.03 476.94,-131.37 474.22,-124.92"/>
</a>
</g>
</g>
<!-- Node3 -->
<g id="Node000003" class="node">
<title>Node3</title>
<g id="a_Node000003"><a xlink:href="Ioss__DynamicTopologyBroker_8C.html" target="_top" xlink:title=" ">
<polygon fill="white" stroke="#666666" points="134.5,-30.5 0,-30.5 0,0 134.5,0 134.5,-30.5"/>
<text text-anchor="start" x="8" y="-17" font-family="Helvetica,sans-Serif" font-size="10.00">src/Ioss_DynamicTopology</text>
<text text-anchor="middle" x="67.25" y="-5.75" font-family="Helvetica,sans-Serif" font-size="10.00">Broker.C</text>
</a>
</g>
</g>
<!-- Node2&#45;&gt;Node3 -->
<g id="edge2_Node000002_Node000003" class="edge">
<title>Node2&#45;&gt;Node3</title>
<g id="a_edge2_Node000002_Node000003"><a xlink:title=" ">
<path fill="none" stroke="#63b8ff" d="M218.56,-62.72C185.87,-52.68 145.7,-40.34 114.96,-30.9"/>
<polygon fill="#63b8ff" stroke="#63b8ff" points="217.3,-66 227.89,-65.59 219.36,-59.31 217.3,-66"/>
</a>
</g>
</g>
<!-- Node4 -->
<g id="Node000004" class="node">
<title>Node4</title>
<g id="a_Node000004"><a xlink:href="Ionit__Initializer_8C.html" target="_top" xlink:title=" ">
<polygon fill="white" stroke="#666666" points="273.75,-24.88 152.75,-24.88 152.75,-5.63 273.75,-5.63 273.75,-24.88"/>
<text text-anchor="middle" x="213.25" y="-11.38" font-family="Helvetica,sans-Serif" font-size="10.00">src/init/Ionit_Initializer.C</text>
</a>
</g>
</g>
<!-- Node2&#45;&gt;Node4 -->
<g id="edge3_Node000002_Node000004" class="edge">
<title>Node2&#45;&gt;Node4</title>
<g id="a_edge3_Node000002_Node000004"><a xlink:title=" ">
<path fill="none" stroke="#63b8ff" d="M254.88,-58.21C243.55,-46.78 230.44,-33.57 222,-25.07"/>
<polygon fill="#63b8ff" stroke="#63b8ff" points="252.13,-60.41 261.66,-65.04 257.1,-55.48 252.13,-60.41"/>
</a>
</g>
</g>
<!-- Node5 -->
<g id="Node000005" class="node">
<title>Node5</title>
<g id="a_Node000005"><a xlink:href="io__shell_8C.html" target="_top" xlink:title=" ">
<polygon fill="white" stroke="#666666" points="392.25,-24.88 292.25,-24.88 292.25,-5.63 392.25,-5.63 392.25,-24.88"/>
<text text-anchor="middle" x="342.25" y="-11.38" font-family="Helvetica,sans-Serif" font-size="10.00">src/main/io_shell.C</text>
</a>
</g>
</g>
<!-- Node2&#45;&gt;Node5 -->
<g id="edge4_Node000002_Node000005" class="edge">
<title>Node2&#45;&gt;Node5</title>
<g id="a_edge4_Node000002_Node000005"><a xlink:title=" ">
<path fill="none" stroke="#63b8ff" d="M299.97,-58.21C311.48,-46.78 324.79,-33.57 333.36,-25.07"/>
<polygon fill="#63b8ff" stroke="#63b8ff" points="297.71,-55.52 293.07,-65.05 302.64,-60.49 297.71,-55.52"/>
</a>
</g>
</g>
<!-- Node6 -->
<g id="Node000006" class="node">
<title>Node6</title>
<g id="a_Node000006"><a xlink:href="UnitTestDynamicTopology_8C.html" target="_top" xlink:title=" ">
<polygon fill="white" stroke="#666666" points="564.25,-30.5 410.25,-30.5 410.25,0 564.25,0 564.25,-30.5"/>
<text text-anchor="start" x="418.25" y="-17" font-family="Helvetica,sans-Serif" font-size="10.00">src/unit_tests/UnitTestDynamic</text>
<text text-anchor="middle" x="487.25" y="-5.75" font-family="Helvetica,sans-Serif" font-size="10.00">Topology.C</text>
</a>
</g>
</g>
<!-- Node2&#45;&gt;Node6 -->
<g id="edge5_Node000002_Node000006" class="edge">
<title>Node2&#45;&gt;Node6</title>
<g id="a_edge5_Node000002_Node000006"><a xlink:title=" ">
<path fill="none" stroke="#63b8ff" d="M335.94,-62.72C368.63,-52.68 408.8,-40.34 439.54,-30.9"/>
<polygon fill="#63b8ff" stroke="#63b8ff" points="335.14,-59.31 326.61,-65.59 337.2,-66 335.14,-59.31"/>
</a>
</g>
</g>
</g>
</svg>
