<?xml version="1.0" encoding="UTF-8" standalone="no"?>
<!DOCTYPE svg PUBLIC "-//W3C//DTD SVG 1.1//EN"
 "http://www.w3.org/Graphics/SVG/1.1/DTD/svg11.dtd">
<!-- Generated by graphviz version 2.49.3 (20211023.0002)
 -->
<!-- Title: src/Ioss_InputDatabase.h Pages: 1 -->
<svg width="505pt" height="140pt"
 viewBox="0.00 0.00 504.50 140.00" xmlns="http://www.w3.org/2000/svg" xmlns:xlink="http://www.w3.org/1999/xlink">
<g id="graph0" class="graph" transform="scale(1 1) rotate(0) translate(4 136)">
<title>src/Ioss_InputDatabase.h</title>
<polygon fill="white" stroke="transparent" points="-4,4 -4,-136 500.5,-136 500.5,4 -4,4"/>
<!-- Node1 -->
<g id="node1" class="node">
<title>Node1</title>
<g id="a_node1"><a xlink:title=" ">
<polygon fill="#bfbfbf" stroke="black" points="142.5,-112.5 142.5,-131.5 272.5,-131.5 272.5,-112.5 142.5,-112.5"/>
<text text-anchor="middle" x="207.5" y="-119.5" font-family="Helvetica,sans-Serif" font-size="10.00">src/Ioss_InputDatabase.h</text>
</a>
</g>
</g>
<!-- Node2 -->
<g id="node2" class="node">
<title>Node2</title>
<g id="a_node2"><a xlink:href="Ioss__CodeTypes_8h.html" target="_top" xlink:title=" ">
<polygon fill="white" stroke="black" points="158,-56.5 158,-75.5 257,-75.5 257,-56.5 158,-56.5"/>
<text text-anchor="middle" x="207.5" y="-63.5" font-family="Helvetica,sans-Serif" font-size="10.00">Ioss_CodeTypes.h</text>
</a>
</g>
</g>
<!-- Node1&#45;&gt;Node2 -->
<g id="edge1" class="edge">
<title>Node1&#45;&gt;Node2</title>
<path fill="none" stroke="midnightblue" d="M207.5,-112.08C207.5,-105.01 207.5,-94.86 207.5,-85.99"/>
<polygon fill="midnightblue" stroke="midnightblue" points="211,-85.75 207.5,-75.75 204,-85.75 211,-85.75"/>
</g>
<!-- Node3 -->
<g id="node3" class="node">
<title>Node3</title>
<g id="a_node3"><a xlink:title=" ">
<polygon fill="white" stroke="#bfbfbf" points="0,-0.5 0,-19.5 39,-19.5 39,-0.5 0,-0.5"/>
<text text-anchor="middle" x="19.5" y="-7.5" font-family="Helvetica,sans-Serif" font-size="10.00">array</text>
</a>
</g>
</g>
<!-- Node2&#45;&gt;Node3 -->
<g id="edge2" class="edge">
<title>Node2&#45;&gt;Node3</title>
<path fill="none" stroke="midnightblue" d="M175.83,-56.46C145.5,-48.2 98.22,-35.12 48.93,-20.36"/>
<polygon fill="midnightblue" stroke="midnightblue" points="49.64,-16.92 39.05,-17.39 47.62,-23.62 49.64,-16.92"/>
</g>
<!-- Node4 -->
<g id="node4" class="node">
<title>Node4</title>
<g id="a_node4"><a xlink:title=" ">
<polygon fill="white" stroke="#bfbfbf" points="57,-0.5 57,-19.5 106,-19.5 106,-0.5 57,-0.5"/>
<text text-anchor="middle" x="81.5" y="-7.5" font-family="Helvetica,sans-Serif" font-size="10.00">cstddef</text>
</a>
</g>
</g>
<!-- Node2&#45;&gt;Node4 -->
<g id="edge3" class="edge">
<title>Node2&#45;&gt;Node4</title>
<path fill="none" stroke="midnightblue" d="M187.53,-56.44C166.89,-47.6 134.44,-33.69 110.87,-23.59"/>
<polygon fill="midnightblue" stroke="midnightblue" points="111.94,-20.24 101.37,-19.52 109.18,-26.67 111.94,-20.24"/>
</g>
<!-- Node5 -->
<g id="node5" class="node">
<title>Node5</title>
<g id="a_node5"><a xlink:title=" ">
<polygon fill="white" stroke="#bfbfbf" points="124,-0.5 124,-19.5 169,-19.5 169,-0.5 124,-0.5"/>
<text text-anchor="middle" x="146.5" y="-7.5" font-family="Helvetica,sans-Serif" font-size="10.00">cstdint</text>
</a>
</g>
</g>
<!-- Node2&#45;&gt;Node5 -->
<g id="edge4" class="edge">
<title>Node2&#45;&gt;Node5</title>
<path fill="none" stroke="midnightblue" d="M197.7,-56.32C188.68,-48.34 175.09,-36.31 164.18,-26.65"/>
<polygon fill="midnightblue" stroke="midnightblue" points="166.29,-23.84 156.48,-19.83 161.65,-29.08 166.29,-23.84"/>
</g>
<!-- Node6 -->
<g id="node6" class="node">
<title>Node6</title>
<g id="a_node6"><a xlink:title=" ">
<polygon fill="white" stroke="#bfbfbf" points="187,-0.5 187,-19.5 228,-19.5 228,-0.5 187,-0.5"/>
<text text-anchor="middle" x="207.5" y="-7.5" font-family="Helvetica,sans-Serif" font-size="10.00">string</text>
</a>
</g>
</g>
<!-- Node2&#45;&gt;Node6 -->
<g id="edge5" class="edge">
<title>Node2&#45;&gt;Node6</title>
<path fill="none" stroke="midnightblue" d="M207.5,-56.08C207.5,-49.01 207.5,-38.86 207.5,-29.99"/>
<polygon fill="midnightblue" stroke="midnightblue" points="211,-29.75 207.5,-19.75 204,-29.75 211,-29.75"/>
</g>
<!-- Node7 -->
<g id="node7" class="node">
<title>Node7</title>
<g id="a_node7"><a xlink:title=" ">
<polygon fill="white" stroke="#bfbfbf" points="246.5,-0.5 246.5,-19.5 290.5,-19.5 290.5,-0.5 246.5,-0.5"/>
<text text-anchor="middle" x="268.5" y="-7.5" font-family="Helvetica,sans-Serif" font-size="10.00">vector</text>
</a>
</g>
</g>
<!-- Node2&#45;&gt;Node7 -->
<g id="edge6" class="edge">
<title>Node2&#45;&gt;Node7</title>
<path fill="none" stroke="midnightblue" d="M217.3,-56.32C226.32,-48.34 239.91,-36.31 250.82,-26.65"/>
<polygon fill="midnightblue" stroke="midnightblue" points="253.35,-29.08 258.52,-19.83 248.71,-23.84 253.35,-29.08"/>
</g>
<!-- Node8 -->
<g id="node8" class="node">
<title>Node8</title>
<g id="a_node8"><a xlink:title=" ">
<polygon fill="white" stroke="#bfbfbf" points="308.5,-0.5 308.5,-19.5 424.5,-19.5 424.5,-0.5 308.5,-0.5"/>
<text text-anchor="middle" x="366.5" y="-7.5" font-family="Helvetica,sans-Serif" font-size="10.00">SEACASIoss_config.h</text>
</a>
</g>
</g>
<!-- Node2&#45;&gt;Node8 -->
<g id="edge7" class="edge">
<title>Node2&#45;&gt;Node8</title>
<path fill="none" stroke="midnightblue" d="M232.69,-56.44C259.44,-47.36 301.9,-32.94 331.81,-22.78"/>
<polygon fill="midnightblue" stroke="midnightblue" points="333.08,-26.05 341.42,-19.52 330.83,-19.42 333.08,-26.05"/>
</g>
<!-- Node9 -->
<g id="node9" class="node">
<title>Node9</title>
<g id="a_node9"><a xlink:title=" ">
<polygon fill="white" stroke="#bfbfbf" points="442.5,-0.5 442.5,-19.5 496.5,-19.5 496.5,-0.5 442.5,-0.5"/>
<text text-anchor="middle" x="469.5" y="-7.5" font-family="Helvetica,sans-Serif" font-size="10.00">complex</text>
</a>
</g>
</g>
<!-- Node2&#45;&gt;Node9 -->
<g id="edge8" class="edge">
<title>Node2&#45;&gt;Node9</title>
<path fill="none" stroke="midnightblue" d="M253.95,-56.43C297.59,-48.23 364.95,-35.18 432.45,-20.15"/>
<polygon fill="midnightblue" stroke="midnightblue" points="433.41,-23.52 442.41,-17.92 431.88,-16.69 433.41,-23.52"/>
</g>
</g>
</svg>
