<?xml version="1.0" encoding="UTF-8" standalone="no"?>
<!DOCTYPE svg PUBLIC "-//W3C//DTD SVG 1.1//EN"
 "http://www.w3.org/Graphics/SVG/1.1/DTD/svg11.dtd">
<!-- Generated by graphviz version 3.0.0 (20220226.1711)
 -->
<!-- Title: src/Ioss_ZoneConnectivity.C Pages: 1 -->
<svg width="1488pt" height="308pt"
 viewBox="0.00 0.00 1487.50 308.00" xmlns="http://www.w3.org/2000/svg" xmlns:xlink="http://www.w3.org/1999/xlink">
<g id="graph0" class="graph" transform="scale(1 1) rotate(0) translate(4 304)">
<title>src/Ioss_ZoneConnectivity.C</title>
<polygon fill="white" stroke="transparent" points="-4,4 -4,-304 1483.5,-304 1483.5,4 -4,4"/>
<!-- Node1 -->
<g id="node1" class="node">
<title>Node1</title>
<g id="a_node1"><a xlink:title=" ">
<polygon fill="#bfbfbf" stroke="black" points="891.5,-280.5 891.5,-299.5 1034.5,-299.5 1034.5,-280.5 891.5,-280.5"/>
<text text-anchor="middle" x="963" y="-287.5" font-family="Helvetica,sans-Serif" font-size="10.00">src/Ioss_ZoneConnectivity.C</text>
</a>
</g>
</g>
<!-- Node2 -->
<g id="node2" class="node">
<title>Node2</title>
<g id="a_node2"><a xlink:href="Ioss__Utils_8h.html" target="_top" xlink:title=" ">
<polygon fill="white" stroke="black" points="615.5,-224.5 615.5,-243.5 684.5,-243.5 684.5,-224.5 615.5,-224.5"/>
<text text-anchor="middle" x="650" y="-231.5" font-family="Helvetica,sans-Serif" font-size="10.00">Ioss_Utils.h</text>
</a>
</g>
</g>
<!-- Node1&#45;&gt;Node2 -->
<g id="edge1" class="edge">
<title>Node1&#45;&gt;Node2</title>
<path fill="none" stroke="midnightblue" d="M913.4,-280.44C853.24,-270.06 752.69,-252.72 694.78,-242.73"/>
<polygon fill="midnightblue" stroke="midnightblue" points="695.28,-239.26 684.83,-241.01 694.09,-246.16 695.28,-239.26"/>
</g>
<!-- Node5 -->
<g id="node5" class="node">
<title>Node5</title>
<g id="a_node5"><a xlink:title=" ">
<polygon fill="white" stroke="#bfbfbf" points="279.5,-0.5 279.5,-19.5 328.5,-19.5 328.5,-0.5 279.5,-0.5"/>
<text text-anchor="middle" x="304" y="-7.5" font-family="Helvetica,sans-Serif" font-size="10.00">cstddef</text>
</a>
</g>
</g>
<!-- Node1&#45;&gt;Node5 -->
<g id="edge56" class="edge">
<title>Node1&#45;&gt;Node5</title>
<path fill="none" stroke="midnightblue" d="M891.3,-286.72C693.55,-279.48 155,-252.97 155,-179 155,-179 155,-179 155,-121 155,-64.32 225.64,-33.54 269.64,-19.87"/>
<polygon fill="midnightblue" stroke="midnightblue" points="270.8,-23.18 279.4,-16.98 268.81,-16.47 270.8,-23.18"/>
</g>
<!-- Node7 -->
<g id="node7" class="node">
<title>Node7</title>
<g id="a_node7"><a xlink:title=" ">
<polygon fill="white" stroke="#bfbfbf" points="1057.5,-0.5 1057.5,-19.5 1098.5,-19.5 1098.5,-0.5 1057.5,-0.5"/>
<text text-anchor="middle" x="1078" y="-7.5" font-family="Helvetica,sans-Serif" font-size="10.00">string</text>
</a>
</g>
</g>
<!-- Node1&#45;&gt;Node7 -->
<g id="edge58" class="edge">
<title>Node1&#45;&gt;Node7</title>
<path fill="none" stroke="midnightblue" d="M1034.59,-284.54C1152.34,-275.21 1374,-248.43 1374,-179 1374,-179 1374,-179 1374,-121 1374,-64.84 1184.44,-28.12 1108.71,-15.69"/>
<polygon fill="midnightblue" stroke="midnightblue" points="1109.24,-12.23 1098.81,-14.1 1108.13,-19.14 1109.24,-12.23"/>
</g>
<!-- Node8 -->
<g id="node8" class="node">
<title>Node8</title>
<g id="a_node8"><a xlink:title=" ">
<polygon fill="white" stroke="#bfbfbf" points="493,-0.5 493,-19.5 537,-19.5 537,-0.5 493,-0.5"/>
<text text-anchor="middle" x="515" y="-7.5" font-family="Helvetica,sans-Serif" font-size="10.00">vector</text>
</a>
</g>
</g>
<!-- Node1&#45;&gt;Node8 -->
<g id="edge59" class="edge">
<title>Node1&#45;&gt;Node8</title>
<path fill="none" stroke="midnightblue" d="M891.36,-288.83C741.87,-286.76 404.86,-272.61 336,-188 281.16,-120.62 419.43,-51.15 483.97,-23.47"/>
<polygon fill="midnightblue" stroke="midnightblue" points="485.43,-26.65 493.28,-19.54 482.71,-20.2 485.43,-26.65"/>
</g>
<!-- Node30 -->
<g id="node30" class="node">
<title>Node30</title>
<g id="a_node30"><a xlink:href="Ioss__ZoneConnectivity_8h.html" target="_top" xlink:title=" ">
<polygon fill="white" stroke="black" points="1222,-112.5 1222,-131.5 1346,-131.5 1346,-112.5 1222,-112.5"/>
<text text-anchor="middle" x="1284" y="-119.5" font-family="Helvetica,sans-Serif" font-size="10.00">Ioss_ZoneConnectivity.h</text>
</a>
</g>
</g>
<!-- Node1&#45;&gt;Node30 -->
<g id="edge51" class="edge">
<title>Node1&#45;&gt;Node30</title>
<path fill="none" stroke="midnightblue" d="M991.57,-280.5C1038.75,-265.75 1135.01,-232.68 1208,-188 1230.99,-173.93 1254.05,-153.02 1268.63,-138.74"/>
<polygon fill="midnightblue" stroke="midnightblue" points="1271.21,-141.12 1275.81,-131.57 1266.26,-136.16 1271.21,-141.12"/>
</g>
<!-- Node31 -->
<g id="node31" class="node">
<title>Node31</title>
<g id="a_node31"><a xlink:title=" ">
<polygon fill="white" stroke="#bfbfbf" points="1402.5,-224.5 1402.5,-243.5 1479.5,-243.5 1479.5,-224.5 1402.5,-224.5"/>
<text text-anchor="middle" x="1441" y="-231.5" font-family="Helvetica,sans-Serif" font-size="10.00">fmt/ostream.h</text>
</a>
</g>
</g>
<!-- Node1&#45;&gt;Node31 -->
<g id="edge57" class="edge">
<title>Node1&#45;&gt;Node31</title>
<path fill="none" stroke="midnightblue" d="M1034.6,-282.8C1119.21,-275.15 1264.15,-261.06 1388,-244 1389.3,-243.82 1390.62,-243.63 1391.95,-243.44"/>
<polygon fill="midnightblue" stroke="midnightblue" points="1392.9,-246.84 1402.26,-241.87 1391.84,-239.92 1392.9,-246.84"/>
</g>
<!-- Node3 -->
<g id="node3" class="node">
<title>Node3</title>
<g id="a_node3"><a xlink:href="Ioss__CodeTypes_8h.html" target="_top" xlink:title=" ">
<polygon fill="white" stroke="black" points="778,-56.5 778,-75.5 876,-75.5 876,-56.5 778,-56.5"/>
<text text-anchor="middle" x="827" y="-63.5" font-family="Helvetica,sans-Serif" font-size="10.00">Ioss_CodeTypes.h</text>
</a>
</g>
</g>
<!-- Node2&#45;&gt;Node3 -->
<g id="edge2" class="edge">
<title>Node2&#45;&gt;Node3</title>
<path fill="none" stroke="midnightblue" d="M684.65,-225.08C707.83,-218.35 737.86,-206.74 759,-188 791.35,-159.33 811.75,-111.43 821.06,-85.33"/>
<polygon fill="midnightblue" stroke="midnightblue" points="824.47,-86.19 824.38,-75.59 817.84,-83.93 824.47,-86.19"/>
</g>
<!-- Node2&#45;&gt;Node5 -->
<g id="edge44" class="edge">
<title>Node2&#45;&gt;Node5</title>
<path fill="none" stroke="midnightblue" d="M615.27,-232.95C542.04,-232.08 375.3,-225.89 336,-188 292.39,-145.95 296.5,-65.98 301.05,-29.72"/>
<polygon fill="midnightblue" stroke="midnightblue" points="304.55,-29.97 302.48,-19.58 297.62,-28.99 304.55,-29.97"/>
</g>
<!-- Node6 -->
<g id="node6" class="node">
<title>Node6</title>
<g id="a_node6"><a xlink:title=" ">
<polygon fill="white" stroke="#bfbfbf" points="689,-0.5 689,-19.5 735,-19.5 735,-0.5 689,-0.5"/>
<text text-anchor="middle" x="712" y="-7.5" font-family="Helvetica,sans-Serif" font-size="10.00">cstdint</text>
</a>
</g>
</g>
<!-- Node2&#45;&gt;Node6 -->
<g id="edge45" class="edge">
<title>Node2&#45;&gt;Node6</title>
<path fill="none" stroke="midnightblue" d="M657.11,-224.26C663.8,-215.59 673.57,-201.65 679,-188 700.8,-133.17 708.39,-62.98 710.88,-29.88"/>
<polygon fill="midnightblue" stroke="midnightblue" points="714.38,-30.02 711.56,-19.8 707.39,-29.54 714.38,-30.02"/>
</g>
<!-- Node2&#45;&gt;Node7 -->
<g id="edge49" class="edge">
<title>Node2&#45;&gt;Node7</title>
<path fill="none" stroke="midnightblue" d="M684.61,-229.75C778.88,-220.21 1037.18,-189.31 1097,-132 1122.49,-107.59 1132.94,-88.83 1120,-56 1115.49,-44.55 1106.53,-34.29 1098.05,-26.47"/>
<polygon fill="midnightblue" stroke="midnightblue" points="1100.09,-23.61 1090.21,-19.76 1095.53,-28.93 1100.09,-23.61"/>
</g>
<!-- Node2&#45;&gt;Node8 -->
<g id="edge50" class="edge">
<title>Node2&#45;&gt;Node8</title>
<path fill="none" stroke="midnightblue" d="M647.23,-224.39C642.27,-210.38 630.54,-182.74 611,-168 561.77,-130.86 514.52,-180.94 477,-132 452.66,-100.25 482.01,-52.62 501.1,-27.64"/>
<polygon fill="midnightblue" stroke="midnightblue" points="504.06,-29.54 507.55,-19.54 498.58,-25.18 504.06,-29.54"/>
</g>
<!-- Node11 -->
<g id="node11" class="node">
<title>Node11</title>
<g id="a_node11"><a xlink:href="Ioss__ElementTopology_8h.html" target="_top" xlink:title=" ">
<polygon fill="white" stroke="black" points="811,-168.5 811,-187.5 933,-187.5 933,-168.5 811,-168.5"/>
<text text-anchor="middle" x="872" y="-175.5" font-family="Helvetica,sans-Serif" font-size="10.00">Ioss_ElementTopology.h</text>
</a>
</g>
</g>
<!-- Node2&#45;&gt;Node11 -->
<g id="edge10" class="edge">
<title>Node2&#45;&gt;Node11</title>
<path fill="none" stroke="midnightblue" d="M684.69,-224.56C722.99,-215.25 784.79,-200.21 826.85,-189.98"/>
<polygon fill="midnightblue" stroke="midnightblue" points="827.93,-193.32 836.82,-187.56 826.28,-186.52 827.93,-193.32"/>
</g>
<!-- Node17 -->
<g id="node17" class="node">
<title>Node17</title>
<g id="a_node17"><a xlink:href="Ioss__Field_8h.html" target="_top" xlink:title=" ">
<polygon fill="white" stroke="black" points="486,-112.5 486,-131.5 556,-131.5 556,-112.5 486,-112.5"/>
<text text-anchor="middle" x="521" y="-119.5" font-family="Helvetica,sans-Serif" font-size="10.00">Ioss_Field.h</text>
</a>
</g>
</g>
<!-- Node2&#45;&gt;Node17 -->
<g id="edge23" class="edge">
<title>Node2&#45;&gt;Node17</title>
<path fill="none" stroke="midnightblue" d="M652.03,-224.4C654.67,-210.91 657.6,-184.58 645,-168 635.06,-154.92 597.32,-142.37 566.05,-133.86"/>
<polygon fill="midnightblue" stroke="midnightblue" points="566.74,-130.42 556.17,-131.24 564.94,-137.18 566.74,-130.42"/>
</g>
<!-- Node18 -->
<g id="node18" class="node">
<title>Node18</title>
<g id="a_node18"><a xlink:href="Ioss__Property_8h.html" target="_top" xlink:title=" ">
<polygon fill="white" stroke="black" points="600,-56.5 600,-75.5 684,-75.5 684,-56.5 600,-56.5"/>
<text text-anchor="middle" x="642" y="-63.5" font-family="Helvetica,sans-Serif" font-size="10.00">Ioss_Property.h</text>
</a>
</g>
</g>
<!-- Node2&#45;&gt;Node18 -->
<g id="edge28" class="edge">
<title>Node2&#45;&gt;Node18</title>
<path fill="none" stroke="midnightblue" d="M653.6,-224.22C657.06,-215.28 662.03,-200.94 664,-188 669.56,-151.39 657.49,-108.85 649.12,-85.21"/>
<polygon fill="midnightblue" stroke="midnightblue" points="652.38,-83.93 645.62,-75.78 645.82,-86.37 652.38,-83.93"/>
</g>
<!-- Node19 -->
<g id="node19" class="node">
<title>Node19</title>
<g id="a_node19"><a xlink:href="Ioss__Sort_8h.html" target="_top" xlink:title=" ">
<polygon fill="white" stroke="black" points="183.5,-112.5 183.5,-131.5 250.5,-131.5 250.5,-112.5 183.5,-112.5"/>
<text text-anchor="middle" x="217" y="-119.5" font-family="Helvetica,sans-Serif" font-size="10.00">Ioss_Sort.h</text>
</a>
</g>
</g>
<!-- Node2&#45;&gt;Node19 -->
<g id="edge32" class="edge">
<title>Node2&#45;&gt;Node19</title>
<path fill="none" stroke="midnightblue" d="M615.24,-230.76C538.94,-225.49 359.16,-210.96 303,-188 275.27,-176.66 248.59,-154.08 232.49,-138.76"/>
<polygon fill="midnightblue" stroke="midnightblue" points="234.68,-136 225.09,-131.5 229.78,-141 234.68,-136"/>
</g>
<!-- Node21 -->
<g id="node21" class="node">
<title>Node21</title>
<g id="a_node21"><a xlink:title=" ">
<polygon fill="white" stroke="#bfbfbf" points="0,-0.5 0,-19.5 56,-19.5 56,-0.5 0,-0.5"/>
<text text-anchor="middle" x="28" y="-7.5" font-family="Helvetica,sans-Serif" font-size="10.00">algorithm</text>
</a>
</g>
</g>
<!-- Node2&#45;&gt;Node21 -->
<g id="edge41" class="edge">
<title>Node2&#45;&gt;Node21</title>
<path fill="none" stroke="midnightblue" d="M615.44,-233.29C547.05,-232.94 390.28,-227.44 266,-188 166.67,-156.48 132.18,-151.17 60,-76 47.23,-62.7 38.59,-43.31 33.54,-29.17"/>
<polygon fill="midnightblue" stroke="midnightblue" points="36.83,-27.97 30.37,-19.57 30.18,-30.16 36.83,-27.97"/>
</g>
<!-- Node25 -->
<g id="node25" class="node">
<title>Node25</title>
<g id="a_node25"><a xlink:title=" ">
<polygon fill="white" stroke="#bfbfbf" points="1190.5,-56.5 1190.5,-75.5 1239.5,-75.5 1239.5,-56.5 1190.5,-56.5"/>
<text text-anchor="middle" x="1215" y="-63.5" font-family="Helvetica,sans-Serif" font-size="10.00">cassert</text>
</a>
</g>
</g>
<!-- Node2&#45;&gt;Node25 -->
<g id="edge42" class="edge">
<title>Node2&#45;&gt;Node25</title>
<path fill="none" stroke="midnightblue" d="M684.67,-232.12C794.76,-229.05 1131.47,-217.33 1170,-188 1202.3,-163.42 1211.42,-113.05 1213.99,-85.69"/>
<polygon fill="midnightblue" stroke="midnightblue" points="1217.5,-85.74 1214.74,-75.51 1210.52,-85.23 1217.5,-85.74"/>
</g>
<!-- Node26 -->
<g id="node26" class="node">
<title>Node26</title>
<g id="a_node26"><a xlink:title=" ">
<polygon fill="white" stroke="#bfbfbf" points="345,-168.5 345,-187.5 389,-187.5 389,-168.5 345,-168.5"/>
<text text-anchor="middle" x="367" y="-175.5" font-family="Helvetica,sans-Serif" font-size="10.00">cmath</text>
</a>
</g>
</g>
<!-- Node2&#45;&gt;Node26 -->
<g id="edge43" class="edge">
<title>Node2&#45;&gt;Node26</title>
<path fill="none" stroke="midnightblue" d="M615.11,-227.97C568.12,-220.92 481.72,-207.06 399.07,-188.06"/>
<polygon fill="midnightblue" stroke="midnightblue" points="399.81,-184.63 389.28,-185.77 398.22,-191.45 399.81,-184.63"/>
</g>
<!-- Node27 -->
<g id="node27" class="node">
<title>Node27</title>
<g id="a_node27"><a xlink:title=" ">
<polygon fill="white" stroke="#bfbfbf" points="407.5,-168.5 407.5,-187.5 452.5,-187.5 452.5,-168.5 407.5,-168.5"/>
<text text-anchor="middle" x="430" y="-175.5" font-family="Helvetica,sans-Serif" font-size="10.00">cstdlib</text>
</a>
</g>
</g>
<!-- Node2&#45;&gt;Node27 -->
<g id="edge46" class="edge">
<title>Node2&#45;&gt;Node27</title>
<path fill="none" stroke="midnightblue" d="M615.25,-225.11C579.43,-216.89 521.76,-203.38 462.59,-188.07"/>
<polygon fill="midnightblue" stroke="midnightblue" points="463.25,-184.63 452.7,-185.5 461.49,-191.41 463.25,-184.63"/>
</g>
<!-- Node28 -->
<g id="node28" class="node">
<title>Node28</title>
<g id="a_node28"><a xlink:title=" ">
<polygon fill="white" stroke="#bfbfbf" points="471,-168.5 471,-187.5 525,-187.5 525,-168.5 471,-168.5"/>
<text text-anchor="middle" x="498" y="-175.5" font-family="Helvetica,sans-Serif" font-size="10.00">iostream</text>
</a>
</g>
</g>
<!-- Node2&#45;&gt;Node28 -->
<g id="edge47" class="edge">
<title>Node2&#45;&gt;Node28</title>
<path fill="none" stroke="midnightblue" d="M625.92,-224.44C600.46,-215.4 560.11,-201.06 531.54,-190.92"/>
<polygon fill="midnightblue" stroke="midnightblue" points="532.57,-187.57 521.97,-187.52 530.22,-194.16 532.57,-187.57"/>
</g>
<!-- Node29 -->
<g id="node29" class="node">
<title>Node29</title>
<g id="a_node29"><a xlink:title=" ">
<polygon fill="white" stroke="#bfbfbf" points="543.5,-168.5 543.5,-187.5 602.5,-187.5 602.5,-168.5 543.5,-168.5"/>
<text text-anchor="middle" x="573" y="-175.5" font-family="Helvetica,sans-Serif" font-size="10.00">stdexcept</text>
</a>
</g>
</g>
<!-- Node2&#45;&gt;Node29 -->
<g id="edge48" class="edge">
<title>Node2&#45;&gt;Node29</title>
<path fill="none" stroke="midnightblue" d="M637.63,-224.32C625.84,-216.06 607.87,-203.45 593.86,-193.63"/>
<polygon fill="midnightblue" stroke="midnightblue" points="595.54,-190.53 585.34,-187.65 591.52,-196.26 595.54,-190.53"/>
</g>
<!-- Node4 -->
<g id="node4" class="node">
<title>Node4</title>
<g id="a_node4"><a xlink:title=" ">
<polygon fill="white" stroke="#bfbfbf" points="1225,-0.5 1225,-19.5 1263,-19.5 1263,-0.5 1225,-0.5"/>
<text text-anchor="middle" x="1244" y="-7.5" font-family="Helvetica,sans-Serif" font-size="10.00">array</text>
</a>
</g>
</g>
<!-- Node3&#45;&gt;Node4 -->
<g id="edge3" class="edge">
<title>Node3&#45;&gt;Node4</title>
<path fill="none" stroke="midnightblue" d="M876.03,-57.29C879.07,-56.84 882.07,-56.41 885,-56 1007.35,-38.84 1153.62,-21.49 1214.82,-14.36"/>
<polygon fill="midnightblue" stroke="midnightblue" points="1215.37,-17.82 1224.9,-13.19 1214.57,-10.87 1215.37,-17.82"/>
</g>
<!-- Node3&#45;&gt;Node5 -->
<g id="edge4" class="edge">
<title>Node3&#45;&gt;Node5</title>
<path fill="none" stroke="midnightblue" d="M777.8,-59.92C672.86,-49.09 429.3,-23.94 338.74,-14.59"/>
<polygon fill="midnightblue" stroke="midnightblue" points="339.02,-11.1 328.72,-13.55 338.3,-18.06 339.02,-11.1"/>
</g>
<!-- Node3&#45;&gt;Node6 -->
<g id="edge5" class="edge">
<title>Node3&#45;&gt;Node6</title>
<path fill="none" stroke="midnightblue" d="M808.78,-56.44C790.1,-47.68 760.84,-33.94 739.38,-23.86"/>
<polygon fill="midnightblue" stroke="midnightblue" points="740.68,-20.6 730.14,-19.52 737.7,-26.93 740.68,-20.6"/>
</g>
<!-- Node3&#45;&gt;Node7 -->
<g id="edge6" class="edge">
<title>Node3&#45;&gt;Node7</title>
<path fill="none" stroke="midnightblue" d="M866.77,-56.44C916.91,-45.66 1002.03,-27.34 1047.4,-17.58"/>
<polygon fill="midnightblue" stroke="midnightblue" points="1048.2,-20.99 1057.24,-15.47 1046.73,-14.15 1048.2,-20.99"/>
</g>
<!-- Node3&#45;&gt;Node8 -->
<g id="edge7" class="edge">
<title>Node3&#45;&gt;Node8</title>
<path fill="none" stroke="midnightblue" d="M777.91,-56.5C713.39,-45.34 601.88,-26.04 547.16,-16.57"/>
<polygon fill="midnightblue" stroke="midnightblue" points="547.46,-13.07 537.01,-14.81 546.27,-19.96 547.46,-13.07"/>
</g>
<!-- Node9 -->
<g id="node9" class="node">
<title>Node9</title>
<g id="a_node9"><a xlink:title=" ">
<polygon fill="white" stroke="#bfbfbf" points="761,-0.5 761,-19.5 877,-19.5 877,-0.5 761,-0.5"/>
<text text-anchor="middle" x="819" y="-7.5" font-family="Helvetica,sans-Serif" font-size="10.00">SEACASIoss_config.h</text>
</a>
</g>
</g>
<!-- Node3&#45;&gt;Node9 -->
<g id="edge8" class="edge">
<title>Node3&#45;&gt;Node9</title>
<path fill="none" stroke="midnightblue" d="M825.68,-56.08C824.62,-48.93 823.09,-38.64 821.77,-29.69"/>
<polygon fill="midnightblue" stroke="midnightblue" points="825.22,-29.13 820.3,-19.75 818.3,-30.16 825.22,-29.13"/>
</g>
<!-- Node10 -->
<g id="node10" class="node">
<title>Node10</title>
<g id="a_node10"><a xlink:title=" ">
<polygon fill="white" stroke="#bfbfbf" points="895.5,-0.5 895.5,-19.5 948.5,-19.5 948.5,-0.5 895.5,-0.5"/>
<text text-anchor="middle" x="922" y="-7.5" font-family="Helvetica,sans-Serif" font-size="10.00">complex</text>
</a>
</g>
</g>
<!-- Node3&#45;&gt;Node10 -->
<g id="edge9" class="edge">
<title>Node3&#45;&gt;Node10</title>
<path fill="none" stroke="midnightblue" d="M842.26,-56.32C857.22,-47.82 880.25,-34.73 897.73,-24.8"/>
<polygon fill="midnightblue" stroke="midnightblue" points="899.81,-27.64 906.77,-19.65 896.35,-21.55 899.81,-27.64"/>
</g>
<!-- Node11&#45;&gt;Node3 -->
<g id="edge11" class="edge">
<title>Node11&#45;&gt;Node3</title>
<path fill="none" stroke="midnightblue" d="M866.45,-168.31C860.97,-159.44 852.61,-145.16 847,-132 840.49,-116.73 835.1,-98.62 831.56,-85.4"/>
<polygon fill="midnightblue" stroke="midnightblue" points="834.92,-84.43 829.04,-75.62 828.14,-86.17 834.92,-84.43"/>
</g>
<!-- Node11&#45;&gt;Node7 -->
<g id="edge21" class="edge">
<title>Node11&#45;&gt;Node7</title>
<path fill="none" stroke="midnightblue" d="M933.3,-175.9C975.87,-172.3 1031.93,-161.62 1072,-132 1101.47,-110.22 1113.49,-91.4 1104,-56 1101.35,-46.1 1095.93,-36.13 1090.73,-28.1"/>
<polygon fill="midnightblue" stroke="midnightblue" points="1093.46,-25.91 1084.89,-19.68 1087.71,-29.89 1093.46,-25.91"/>
</g>
<!-- Node11&#45;&gt;Node8 -->
<g id="edge22" class="edge">
<title>Node11&#45;&gt;Node8</title>
<path fill="none" stroke="midnightblue" d="M810.94,-169.87C742.99,-159.31 632.79,-134.06 557,-76 541.04,-63.77 529.38,-43.62 522.46,-29"/>
<polygon fill="midnightblue" stroke="midnightblue" points="525.51,-27.24 518.25,-19.51 519.11,-30.07 525.51,-27.24"/>
</g>
<!-- Node12 -->
<g id="node12" class="node">
<title>Node12</title>
<g id="a_node12"><a xlink:href="Ioss__ElementPermutation_8h.html" target="_top" xlink:title=" ">
<polygon fill="white" stroke="black" points="904.5,-112.5 904.5,-131.5 1041.5,-131.5 1041.5,-112.5 904.5,-112.5"/>
<text text-anchor="middle" x="973" y="-119.5" font-family="Helvetica,sans-Serif" font-size="10.00">Ioss_ElementPermutation.h</text>
</a>
</g>
</g>
<!-- Node11&#45;&gt;Node12 -->
<g id="edge12" class="edge">
<title>Node11&#45;&gt;Node12</title>
<path fill="none" stroke="midnightblue" d="M888.23,-168.32C904.35,-159.7 929.3,-146.36 947.96,-136.39"/>
<polygon fill="midnightblue" stroke="midnightblue" points="949.64,-139.46 956.81,-131.65 946.34,-133.28 949.64,-139.46"/>
</g>
<!-- Node15 -->
<g id="node15" class="node">
<title>Node15</title>
<g id="a_node15"><a xlink:title=" ">
<polygon fill="white" stroke="#bfbfbf" points="1060.5,-56.5 1060.5,-75.5 1095.5,-75.5 1095.5,-56.5 1060.5,-56.5"/>
<text text-anchor="middle" x="1078" y="-63.5" font-family="Helvetica,sans-Serif" font-size="10.00">map</text>
</a>
</g>
</g>
<!-- Node11&#45;&gt;Node15 -->
<g id="edge19" class="edge">
<title>Node11&#45;&gt;Node15</title>
<path fill="none" stroke="midnightblue" d="M933.02,-174.91C970.6,-170.65 1017.61,-159.6 1050,-132 1063.86,-120.19 1071.06,-100.26 1074.66,-85.58"/>
<polygon fill="midnightblue" stroke="midnightblue" points="1078.13,-86.1 1076.77,-75.6 1071.28,-84.66 1078.13,-86.1"/>
</g>
<!-- Node16 -->
<g id="node16" class="node">
<title>Node16</title>
<g id="a_node16"><a xlink:title=" ">
<polygon fill="white" stroke="#bfbfbf" points="856,-112.5 856,-131.5 886,-131.5 886,-112.5 856,-112.5"/>
<text text-anchor="middle" x="871" y="-119.5" font-family="Helvetica,sans-Serif" font-size="10.00">set</text>
</a>
</g>
</g>
<!-- Node11&#45;&gt;Node16 -->
<g id="edge20" class="edge">
<title>Node11&#45;&gt;Node16</title>
<path fill="none" stroke="midnightblue" d="M871.83,-168.08C871.7,-161.01 871.52,-150.86 871.35,-141.99"/>
<polygon fill="midnightblue" stroke="midnightblue" points="874.85,-141.68 871.16,-131.75 867.85,-141.81 874.85,-141.68"/>
</g>
<!-- Node12&#45;&gt;Node3 -->
<g id="edge13" class="edge">
<title>Node12&#45;&gt;Node3</title>
<path fill="none" stroke="midnightblue" d="M949.87,-112.44C925.52,-103.44 886.99,-89.19 859.58,-79.05"/>
<polygon fill="midnightblue" stroke="midnightblue" points="860.62,-75.7 850.03,-75.52 858.19,-82.27 860.62,-75.7"/>
</g>
<!-- Node12&#45;&gt;Node7 -->
<g id="edge17" class="edge">
<title>Node12&#45;&gt;Node7</title>
<path fill="none" stroke="midnightblue" d="M981.24,-112.37C998.8,-93.97 1040.13,-50.67 1062.68,-27.05"/>
<polygon fill="midnightblue" stroke="midnightblue" points="1065.43,-29.24 1069.8,-19.59 1060.36,-24.41 1065.43,-29.24"/>
</g>
<!-- Node12&#45;&gt;Node8 -->
<g id="edge18" class="edge">
<title>Node12&#45;&gt;Node8</title>
<path fill="none" stroke="midnightblue" d="M904.22,-113.02C794.71,-100.31 592.78,-76.78 591,-76 565.77,-64.96 542.63,-42.65 528.67,-27.27"/>
<polygon fill="midnightblue" stroke="midnightblue" points="531.13,-24.77 521.91,-19.55 525.87,-29.38 531.13,-24.77"/>
</g>
<!-- Node13 -->
<g id="node13" class="node">
<title>Node13</title>
<g id="a_node13"><a xlink:title=" ">
<polygon fill="white" stroke="#bfbfbf" points="894,-56.5 894,-75.5 946,-75.5 946,-56.5 894,-56.5"/>
<text text-anchor="middle" x="920" y="-63.5" font-family="Helvetica,sans-Serif" font-size="10.00">assert.h</text>
</a>
</g>
</g>
<!-- Node12&#45;&gt;Node13 -->
<g id="edge14" class="edge">
<title>Node12&#45;&gt;Node13</title>
<path fill="none" stroke="midnightblue" d="M964.25,-112.08C956.53,-104.22 945.1,-92.57 935.78,-83.08"/>
<polygon fill="midnightblue" stroke="midnightblue" points="938.09,-80.44 928.59,-75.75 933.1,-85.34 938.09,-80.44"/>
</g>
<!-- Node14 -->
<g id="node14" class="node">
<title>Node14</title>
<g id="a_node14"><a xlink:title=" ">
<polygon fill="white" stroke="#bfbfbf" points="964,-56.5 964,-75.5 1004,-75.5 1004,-56.5 964,-56.5"/>
<text text-anchor="middle" x="984" y="-63.5" font-family="Helvetica,sans-Serif" font-size="10.00">limits</text>
</a>
</g>
</g>
<!-- Node12&#45;&gt;Node14 -->
<g id="edge15" class="edge">
<title>Node12&#45;&gt;Node14</title>
<path fill="none" stroke="midnightblue" d="M974.82,-112.08C976.27,-104.93 978.37,-94.64 980.19,-85.69"/>
<polygon fill="midnightblue" stroke="midnightblue" points="983.65,-86.25 982.22,-75.75 976.79,-84.85 983.65,-86.25"/>
</g>
<!-- Node12&#45;&gt;Node15 -->
<g id="edge16" class="edge">
<title>Node12&#45;&gt;Node15</title>
<path fill="none" stroke="midnightblue" d="M989.87,-112.32C1006.71,-103.66 1032.81,-90.24 1052.24,-80.25"/>
<polygon fill="midnightblue" stroke="midnightblue" points="1053.88,-83.34 1061.17,-75.65 1050.68,-77.12 1053.88,-83.34"/>
</g>
<!-- Node17&#45;&gt;Node3 -->
<g id="edge24" class="edge">
<title>Node17&#45;&gt;Node3</title>
<path fill="none" stroke="midnightblue" d="M556.1,-114.81C608,-105.65 705.82,-88.38 768.62,-77.3"/>
<polygon fill="midnightblue" stroke="midnightblue" points="769.53,-80.7 778.77,-75.51 768.32,-73.8 769.53,-80.7"/>
</g>
<!-- Node17&#45;&gt;Node5 -->
<g id="edge25" class="edge">
<title>Node17&#45;&gt;Node5</title>
<path fill="none" stroke="midnightblue" d="M503.97,-112.37C466.18,-93.21 375.09,-47.04 330.07,-24.22"/>
<polygon fill="midnightblue" stroke="midnightblue" points="331.45,-20.99 320.95,-19.59 328.29,-27.23 331.45,-20.99"/>
</g>
<!-- Node17&#45;&gt;Node7 -->
<g id="edge26" class="edge">
<title>Node17&#45;&gt;Node7</title>
<path fill="none" stroke="midnightblue" d="M553.66,-112.47C588.26,-103.43 644.48,-88.73 693,-76 726.78,-67.14 734.78,-62.97 769,-56 869.85,-35.46 991.05,-20.63 1046.96,-14.35"/>
<polygon fill="midnightblue" stroke="midnightblue" points="1047.7,-17.79 1057.25,-13.2 1046.92,-10.83 1047.7,-17.79"/>
</g>
<!-- Node17&#45;&gt;Node8 -->
<g id="edge27" class="edge">
<title>Node17&#45;&gt;Node8</title>
<path fill="none" stroke="midnightblue" d="M520.53,-112.37C519.56,-94.62 517.33,-53.67 516.01,-29.6"/>
<polygon fill="midnightblue" stroke="midnightblue" points="519.51,-29.39 515.47,-19.59 512.52,-29.77 519.51,-29.39"/>
</g>
<!-- Node18&#45;&gt;Node6 -->
<g id="edge29" class="edge">
<title>Node18&#45;&gt;Node6</title>
<path fill="none" stroke="midnightblue" d="M653.25,-56.32C663.8,-48.18 679.8,-35.84 692.44,-26.09"/>
<polygon fill="midnightblue" stroke="midnightblue" points="694.77,-28.71 700.55,-19.83 690.49,-23.17 694.77,-28.71"/>
</g>
<!-- Node18&#45;&gt;Node7 -->
<g id="edge30" class="edge">
<title>Node18&#45;&gt;Node7</title>
<path fill="none" stroke="midnightblue" d="M684.2,-59.77C771.56,-48.95 970.44,-24.32 1047.09,-14.83"/>
<polygon fill="midnightblue" stroke="midnightblue" points="1047.57,-18.3 1057.06,-13.59 1046.71,-11.35 1047.57,-18.3"/>
</g>
<!-- Node18&#45;&gt;Node8 -->
<g id="edge31" class="edge">
<title>Node18&#45;&gt;Node8</title>
<path fill="none" stroke="midnightblue" d="M621.88,-56.44C600.98,-47.56 568.07,-33.56 544.28,-23.45"/>
<polygon fill="midnightblue" stroke="midnightblue" points="545.6,-20.21 535.03,-19.52 542.86,-26.65 545.6,-20.21"/>
</g>
<!-- Node19&#45;&gt;Node5 -->
<g id="edge39" class="edge">
<title>Node19&#45;&gt;Node5</title>
<path fill="none" stroke="midnightblue" d="M223.83,-112.37C238.25,-94.14 272.03,-51.43 290.81,-27.68"/>
<polygon fill="midnightblue" stroke="midnightblue" points="293.75,-29.61 297.2,-19.59 288.26,-25.26 293.75,-29.61"/>
</g>
<!-- Node19&#45;&gt;Node8 -->
<g id="edge40" class="edge">
<title>Node19&#45;&gt;Node8</title>
<path fill="none" stroke="midnightblue" d="M240.38,-112.37C293.43,-92.79 422.96,-44.97 483.21,-22.73"/>
<polygon fill="midnightblue" stroke="midnightblue" points="484.77,-25.89 492.94,-19.14 482.35,-19.32 484.77,-25.89"/>
</g>
<!-- Node20 -->
<g id="node20" class="node">
<title>Node20</title>
<g id="a_node20"><a xlink:href="pdqsort_8h.html" target="_top" xlink:title=" ">
<polygon fill="white" stroke="black" points="69.5,-56.5 69.5,-75.5 126.5,-75.5 126.5,-56.5 69.5,-56.5"/>
<text text-anchor="middle" x="98" y="-63.5" font-family="Helvetica,sans-Serif" font-size="10.00">pdqsort.h</text>
</a>
</g>
</g>
<!-- Node19&#45;&gt;Node20 -->
<g id="edge33" class="edge">
<title>Node19&#45;&gt;Node20</title>
<path fill="none" stroke="midnightblue" d="M198.14,-112.44C178.73,-103.64 148.27,-89.81 126.04,-79.72"/>
<polygon fill="midnightblue" stroke="midnightblue" points="127.32,-76.46 116.77,-75.52 124.43,-82.84 127.32,-76.46"/>
</g>
<!-- Node20&#45;&gt;Node5 -->
<g id="edge35" class="edge">
<title>Node20&#45;&gt;Node5</title>
<path fill="none" stroke="midnightblue" d="M126.64,-57.49C164.07,-47.68 229.54,-30.52 269.61,-20.02"/>
<polygon fill="midnightblue" stroke="midnightblue" points="270.67,-23.35 279.46,-17.43 268.9,-16.58 270.67,-23.35"/>
</g>
<!-- Node20&#45;&gt;Node21 -->
<g id="edge34" class="edge">
<title>Node20&#45;&gt;Node21</title>
<path fill="none" stroke="midnightblue" d="M86.75,-56.32C76.2,-48.18 60.2,-35.84 47.56,-26.09"/>
<polygon fill="midnightblue" stroke="midnightblue" points="49.51,-23.17 39.45,-19.83 45.23,-28.71 49.51,-23.17"/>
</g>
<!-- Node22 -->
<g id="node22" class="node">
<title>Node22</title>
<g id="a_node22"><a xlink:title=" ">
<polygon fill="white" stroke="#bfbfbf" points="139.5,-0.5 139.5,-19.5 198.5,-19.5 198.5,-0.5 139.5,-0.5"/>
<text text-anchor="middle" x="169" y="-7.5" font-family="Helvetica,sans-Serif" font-size="10.00">functional</text>
</a>
</g>
</g>
<!-- Node20&#45;&gt;Node22 -->
<g id="edge36" class="edge">
<title>Node20&#45;&gt;Node22</title>
<path fill="none" stroke="midnightblue" d="M109.41,-56.32C120.11,-48.18 136.34,-35.84 149.16,-26.09"/>
<polygon fill="midnightblue" stroke="midnightblue" points="151.54,-28.67 157.39,-19.83 147.31,-23.1 151.54,-28.67"/>
</g>
<!-- Node23 -->
<g id="node23" class="node">
<title>Node23</title>
<g id="a_node23"><a xlink:title=" ">
<polygon fill="white" stroke="#bfbfbf" points="74.5,-0.5 74.5,-19.5 121.5,-19.5 121.5,-0.5 74.5,-0.5"/>
<text text-anchor="middle" x="98" y="-7.5" font-family="Helvetica,sans-Serif" font-size="10.00">iterator</text>
</a>
</g>
</g>
<!-- Node20&#45;&gt;Node23 -->
<g id="edge37" class="edge">
<title>Node20&#45;&gt;Node23</title>
<path fill="none" stroke="midnightblue" d="M98,-56.08C98,-49.01 98,-38.86 98,-29.99"/>
<polygon fill="midnightblue" stroke="midnightblue" points="101.5,-29.75 98,-19.75 94.5,-29.75 101.5,-29.75"/>
</g>
<!-- Node24 -->
<g id="node24" class="node">
<title>Node24</title>
<g id="a_node24"><a xlink:title=" ">
<polygon fill="white" stroke="#bfbfbf" points="217,-0.5 217,-19.5 257,-19.5 257,-0.5 217,-0.5"/>
<text text-anchor="middle" x="237" y="-7.5" font-family="Helvetica,sans-Serif" font-size="10.00">utility</text>
</a>
</g>
</g>
<!-- Node20&#45;&gt;Node24 -->
<g id="edge38" class="edge">
<title>Node20&#45;&gt;Node24</title>
<path fill="none" stroke="midnightblue" d="M120.02,-56.44C143.65,-47.27 181.29,-32.64 207.46,-22.47"/>
<polygon fill="midnightblue" stroke="midnightblue" points="208.83,-25.7 216.88,-18.82 206.29,-19.17 208.83,-25.7"/>
</g>
<!-- Node30&#45;&gt;Node3 -->
<g id="edge52" class="edge">
<title>Node30&#45;&gt;Node3</title>
<path fill="none" stroke="midnightblue" d="M1221.7,-114.79C1145.18,-106.97 1011.14,-92.69 886.16,-76.11"/>
<polygon fill="midnightblue" stroke="midnightblue" points="886.4,-72.61 876.03,-74.75 885.48,-79.55 886.4,-72.61"/>
</g>
<!-- Node30&#45;&gt;Node4 -->
<g id="edge53" class="edge">
<title>Node30&#45;&gt;Node4</title>
<path fill="none" stroke="midnightblue" d="M1285.5,-112.23C1287.31,-99.4 1289.27,-74.98 1282,-56 1277.77,-44.97 1269.63,-34.73 1261.95,-26.82"/>
<polygon fill="midnightblue" stroke="midnightblue" points="1264.23,-24.16 1254.61,-19.74 1259.38,-29.2 1264.23,-24.16"/>
</g>
<!-- Node30&#45;&gt;Node7 -->
<g id="edge55" class="edge">
<title>Node30&#45;&gt;Node7</title>
<path fill="none" stroke="midnightblue" d="M1281.64,-112.39C1277.35,-98.38 1266.93,-70.75 1248,-56 1207.01,-24.06 1145.38,-14.7 1108.68,-12.01"/>
<polygon fill="midnightblue" stroke="midnightblue" points="1108.77,-8.51 1098.58,-11.4 1108.35,-15.5 1108.77,-8.51"/>
</g>
<!-- Node30&#45;&gt;Node25 -->
<g id="edge54" class="edge">
<title>Node30&#45;&gt;Node25</title>
<path fill="none" stroke="midnightblue" d="M1272.91,-112.32C1262.51,-104.18 1246.74,-91.84 1234.28,-82.09"/>
<polygon fill="midnightblue" stroke="midnightblue" points="1236.32,-79.24 1226.29,-75.83 1232.01,-84.75 1236.32,-79.24"/>
</g>
</g>
</svg>
