<?xml version="1.0" encoding="UTF-8" standalone="no"?>
<!DOCTYPE svg PUBLIC "-//W3C//DTD SVG 1.1//EN"
 "http://www.w3.org/Graphics/SVG/1.1/DTD/svg11.dtd">
<!-- Generated by graphviz version 3.0.0 (20220226.1711)
 -->
<!-- Title: src/Ioss_ParallelUtils.h Pages: 1 -->
<!--zoomable 308 -->
<svg id="main" version="1.1" xmlns="http://www.w3.org/2000/svg" xmlns:xlink="http://www.w3.org/1999/xlink" xml:space="preserve" onload="init(evt)">
<style type="text/css"><![CDATA[
.edge:hover path { stroke: red; }
.edge:hover polygon { stroke: red; fill: red; }
]]></style>
<script type="text/javascript"><![CDATA[
var edges = document.getElementsByTagName('g');
if (edges && edges.length) {
  for (var i=0;i<edges.length;i++) {
    if (edges[i].id.substr(0,4)=='edge') {
      edges[i].setAttribute('class','edge');
    }
  }
}
]]></script>
        <defs>
                <circle id="rim" cx="0" cy="0" r="7"/>
                <circle id="rim2" cx="0" cy="0" r="3.5"/>
                <g id="zoomPlus">
                        <use xlink:href="#rim" fill="#404040">
                                <set attributeName="fill" to="#808080" begin="zoomplus.mouseover" end="zoomplus.mouseout"/>
                        </use>
                        <path d="M-4,0h8M0,-4v8" fill="none" stroke="white" stroke-width="1.5" pointer-events="none"/>
                </g>
                <g id="zoomMin">
                        <use xlink:href="#rim" fill="#404040">
                                <set attributeName="fill" to="#808080" begin="zoomminus.mouseover" end="zoomminus.mouseout"/>
                        </use>
                        <path d="M-4,0h8" fill="none" stroke="white" stroke-width="1.5" pointer-events="none"/>
                </g>
                <g id="dirArrow">
                        <path fill="none" stroke="white" stroke-width="1.5" d="M0,-3.0v7 M-2.5,-0.5L0,-3.0L2.5,-0.5"/>
                </g>
               <g id="resetDef">
                       <use xlink:href="#rim2" fill="#404040">
                               <set attributeName="fill" to="#808080" begin="reset.mouseover" end="reset.mouseout"/>
                       </use>
               </g>
        </defs>

<script type="text/javascript">
var viewWidth = 1363;
var viewHeight = 308;
var sectionId = 'dynsection-0';
</script>
<script xlink:href="svgpan.js"/>
<svg id="graph" class="graph">
<g id="viewport">
<title>src/Ioss_ParallelUtils.h</title>
<polygon fill="white" stroke="transparent" points="-4,4 -4,-304 1358.75,-304 1358.75,4 -4,4"/>
<!-- Node1 -->
<g id="node1" class="node">
<title>Node1</title>
<g id="a_node1"><a xlink:title=" ">
<polygon fill="#bfbfbf" stroke="black" points="669,-280.5 669,-299.5 787,-299.5 787,-280.5 669,-280.5"/>
<text text-anchor="middle" x="728" y="-287.5" font-family="Helvetica,sans-Serif" font-size="10.00">src/Ioss_ParallelUtils.h</text>
</a>
</g>
</g>
<!-- Node2 -->
<g id="node2" class="node">
<title>Node2</title>
<g id="a_node2"><a xlink:href="Ioss__CodeTypes_8h.html" target="_top" xlink:title=" ">
<polygon fill="white" stroke="black" points="738,-56.5 738,-75.5 836,-75.5 836,-56.5 738,-56.5"/>
<text text-anchor="middle" x="787" y="-63.5" font-family="Helvetica,sans-Serif" font-size="10.00">Ioss_CodeTypes.h</text>
</a>
</g>
</g>
<!-- Node1&#45;&gt;Node2 -->
<g id="edge1" class="edge">
<title>Node1&#45;&gt;Node2</title>
<path fill="none" stroke="midnightblue" d="M730.31,-280.3C739.01,-247.56 769.89,-131.38 782.04,-85.67"/>
<polygon fill="midnightblue" stroke="midnightblue" points="785.45,-86.45 784.64,-75.88 778.69,-84.65 785.45,-86.45"/>
</g>
<!-- Node4 -->
<g id="node4" class="node">
<title>Node4</title>
<g id="a_node4"><a xlink:title=" ">
<polygon fill="white" stroke="#bfbfbf" points="275.5,-0.5 275.5,-19.5 324.5,-19.5 324.5,-0.5 275.5,-0.5"/>
<text text-anchor="middle" x="300" y="-7.5" font-family="Helvetica,sans-Serif" font-size="10.00">cstddef</text>
</a>
</g>
</g>
<!-- Node1&#45;&gt;Node4 -->
<g id="edge53" class="edge">
<title>Node1&#45;&gt;Node4</title>
<path fill="none" stroke="midnightblue" d="M668.93,-289.57C526.53,-289.34 176,-278.67 176,-179 176,-179 176,-179 176,-121 176,-72.26 230.27,-39.87 267.01,-23.52"/>
<polygon fill="midnightblue" stroke="midnightblue" points="268.56,-26.67 276.38,-19.52 265.81,-20.23 268.56,-26.67"/>
</g>
<!-- Node6 -->
<g id="node6" class="node">
<title>Node6</title>
<g id="a_node6"><a xlink:title=" ">
<polygon fill="white" stroke="#bfbfbf" points="1101.5,-0.5 1101.5,-19.5 1142.5,-19.5 1142.5,-0.5 1101.5,-0.5"/>
<text text-anchor="middle" x="1122" y="-7.5" font-family="Helvetica,sans-Serif" font-size="10.00">string</text>
</a>
</g>
</g>
<!-- Node1&#45;&gt;Node6 -->
<g id="edge54" class="edge">
<title>Node1&#45;&gt;Node6</title>
<path fill="none" stroke="midnightblue" d="M787.18,-288.3C923.84,-285.3 1254.85,-269.57 1322,-188 1356.68,-145.87 1393.48,-166.51 1259,-56 1242.54,-42.47 1187.41,-27.04 1152.31,-18.22"/>
<polygon fill="midnightblue" stroke="midnightblue" points="1153.1,-14.81 1142.55,-15.81 1151.42,-21.6 1153.1,-14.81"/>
</g>
<!-- Node7 -->
<g id="node7" class="node">
<title>Node7</title>
<g id="a_node7"><a xlink:title=" ">
<polygon fill="white" stroke="#bfbfbf" points="623,-0.5 623,-19.5 667,-19.5 667,-0.5 623,-0.5"/>
<text text-anchor="middle" x="645" y="-7.5" font-family="Helvetica,sans-Serif" font-size="10.00">vector</text>
</a>
</g>
</g>
<!-- Node1&#45;&gt;Node7 -->
<g id="edge55" class="edge">
<title>Node1&#45;&gt;Node7</title>
<path fill="none" stroke="midnightblue" d="M668.79,-281.59C573.94,-268.38 394.74,-237.39 357,-188 282.19,-90.1 523.76,-33.74 613.12,-16.62"/>
<polygon fill="midnightblue" stroke="midnightblue" points="613.8,-20.05 622.99,-14.77 612.51,-13.17 613.8,-20.05"/>
</g>
<!-- Node10 -->
<g id="node10" class="node">
<title>Node10</title>
<g id="a_node10"><a xlink:href="Ioss__Utils_8h.html" target="_top" xlink:title=" ">
<polygon fill="white" stroke="black" points="636.5,-224.5 636.5,-243.5 705.5,-243.5 705.5,-224.5 636.5,-224.5"/>
<text text-anchor="middle" x="671" y="-231.5" font-family="Helvetica,sans-Serif" font-size="10.00">Ioss_Utils.h</text>
</a>
</g>
</g>
<!-- Node1&#45;&gt;Node10 -->
<g id="edge9" class="edge">
<title>Node1&#45;&gt;Node10</title>
<path fill="none" stroke="midnightblue" d="M718.84,-280.32C710.5,-272.42 697.97,-260.55 687.82,-250.94"/>
<polygon fill="midnightblue" stroke="midnightblue" points="689.99,-248.17 680.32,-243.83 685.18,-253.25 689.99,-248.17"/>
</g>
<!-- Node25 -->
<g id="node25" class="node">
<title>Node25</title>
<g id="a_node25"><a xlink:title=" ">
<polygon fill="white" stroke="#bfbfbf" points="1264.5,-168.5 1264.5,-187.5 1313.5,-187.5 1313.5,-168.5 1264.5,-168.5"/>
<text text-anchor="middle" x="1289" y="-175.5" font-family="Helvetica,sans-Serif" font-size="10.00">cassert</text>
</a>
</g>
</g>
<!-- Node1&#45;&gt;Node25 -->
<g id="edge52" class="edge">
<title>Node1&#45;&gt;Node25</title>
<path fill="none" stroke="midnightblue" d="M775.26,-280.44C866.99,-263.7 1075.5,-225 1250,-188 1251.44,-187.69 1252.92,-187.38 1254.41,-187.05"/>
<polygon fill="midnightblue" stroke="midnightblue" points="1255.28,-190.44 1264.27,-184.85 1253.75,-183.61 1255.28,-190.44"/>
</g>
<!-- Node3 -->
<g id="node3" class="node">
<title>Node3</title>
<g id="a_node3"><a xlink:title=" ">
<polygon fill="white" stroke="#bfbfbf" points="768,-0.5 768,-19.5 806,-19.5 806,-0.5 768,-0.5"/>
<text text-anchor="middle" x="787" y="-7.5" font-family="Helvetica,sans-Serif" font-size="10.00">array</text>
</a>
</g>
</g>
<!-- Node2&#45;&gt;Node3 -->
<g id="edge2" class="edge">
<title>Node2&#45;&gt;Node3</title>
<path fill="none" stroke="midnightblue" d="M787,-56.08C787,-49.01 787,-38.86 787,-29.99"/>
<polygon fill="midnightblue" stroke="midnightblue" points="790.5,-29.75 787,-19.75 783.5,-29.75 790.5,-29.75"/>
</g>
<!-- Node2&#45;&gt;Node4 -->
<g id="edge3" class="edge">
<title>Node2&#45;&gt;Node4</title>
<path fill="none" stroke="midnightblue" d="M737.62,-59.53C639.07,-48.6 420.11,-24.32 334.89,-14.87"/>
<polygon fill="midnightblue" stroke="midnightblue" points="335.04,-11.36 324.71,-13.74 334.26,-18.32 335.04,-11.36"/>
</g>
<!-- Node5 -->
<g id="node5" class="node">
<title>Node5</title>
<g id="a_node5"><a xlink:title=" ">
<polygon fill="white" stroke="#bfbfbf" points="1169,-0.5 1169,-19.5 1215,-19.5 1215,-0.5 1169,-0.5"/>
<text text-anchor="middle" x="1192" y="-7.5" font-family="Helvetica,sans-Serif" font-size="10.00">cstdint</text>
</a>
</g>
</g>
<!-- Node2&#45;&gt;Node5 -->
<g id="edge4" class="edge">
<title>Node2&#45;&gt;Node5</title>
<path fill="none" stroke="midnightblue" d="M836.08,-60.4C906.2,-53.49 1038.97,-39.18 1151,-20 1153.51,-19.57 1156.11,-19.09 1158.71,-18.58"/>
<polygon fill="midnightblue" stroke="midnightblue" points="1159.58,-21.97 1168.66,-16.52 1158.16,-15.12 1159.58,-21.97"/>
</g>
<!-- Node2&#45;&gt;Node6 -->
<g id="edge5" class="edge">
<title>Node2&#45;&gt;Node6</title>
<path fill="none" stroke="midnightblue" d="M836.07,-57.09C906.22,-45.78 1033.1,-25.33 1091.31,-15.95"/>
<polygon fill="midnightblue" stroke="midnightblue" points="1092.03,-19.38 1101.35,-14.33 1090.92,-12.46 1092.03,-19.38"/>
</g>
<!-- Node2&#45;&gt;Node7 -->
<g id="edge6" class="edge">
<title>Node2&#45;&gt;Node7</title>
<path fill="none" stroke="midnightblue" d="M764.5,-56.44C740.92,-47.48 703.68,-33.31 677.04,-23.18"/>
<polygon fill="midnightblue" stroke="midnightblue" points="677.99,-19.8 667.4,-19.52 675.5,-26.34 677.99,-19.8"/>
</g>
<!-- Node8 -->
<g id="node8" class="node">
<title>Node8</title>
<g id="a_node8"><a xlink:title=" ">
<polygon fill="white" stroke="#bfbfbf" points="824,-0.5 824,-19.5 940,-19.5 940,-0.5 824,-0.5"/>
<text text-anchor="middle" x="882" y="-7.5" font-family="Helvetica,sans-Serif" font-size="10.00">SEACASIoss_config.h</text>
</a>
</g>
</g>
<!-- Node2&#45;&gt;Node8 -->
<g id="edge7" class="edge">
<title>Node2&#45;&gt;Node8</title>
<path fill="none" stroke="midnightblue" d="M802.26,-56.32C817.22,-47.82 840.25,-34.73 857.73,-24.8"/>
<polygon fill="midnightblue" stroke="midnightblue" points="859.81,-27.64 866.77,-19.65 856.35,-21.55 859.81,-27.64"/>
</g>
<!-- Node9 -->
<g id="node9" class="node">
<title>Node9</title>
<g id="a_node9"><a xlink:title=" ">
<polygon fill="white" stroke="#bfbfbf" points="696.5,-0.5 696.5,-19.5 749.5,-19.5 749.5,-0.5 696.5,-0.5"/>
<text text-anchor="middle" x="723" y="-7.5" font-family="Helvetica,sans-Serif" font-size="10.00">complex</text>
</a>
</g>
</g>
<!-- Node2&#45;&gt;Node9 -->
<g id="edge8" class="edge">
<title>Node2&#45;&gt;Node9</title>
<path fill="none" stroke="midnightblue" d="M776.72,-56.32C767.16,-48.26 752.72,-36.08 741.22,-26.37"/>
<polygon fill="midnightblue" stroke="midnightblue" points="743.37,-23.61 733.47,-19.83 738.86,-28.96 743.37,-23.61"/>
</g>
<!-- Node10&#45;&gt;Node2 -->
<g id="edge10" class="edge">
<title>Node10&#45;&gt;Node2</title>
<path fill="none" stroke="midnightblue" d="M676.49,-224.35C689.28,-204.29 722.25,-153.19 752,-112 758.88,-102.47 766.91,-92.1 773.54,-83.72"/>
<polygon fill="midnightblue" stroke="midnightblue" points="776.34,-85.82 779.84,-75.82 770.87,-81.46 776.34,-85.82"/>
</g>
<!-- Node10&#45;&gt;Node4 -->
<g id="edge45" class="edge">
<title>Node10&#45;&gt;Node4</title>
<path fill="none" stroke="midnightblue" d="M636.37,-232.53C563.72,-230.85 398.67,-223.16 357,-188 309.13,-147.61 301.08,-66.79 299.99,-30.01"/>
<polygon fill="midnightblue" stroke="midnightblue" points="303.48,-29.67 299.84,-19.72 296.48,-29.77 303.48,-29.67"/>
</g>
<!-- Node10&#45;&gt;Node5 -->
<g id="edge46" class="edge">
<title>Node10&#45;&gt;Node5</title>
<path fill="none" stroke="midnightblue" d="M705.58,-232.15C772.96,-229.79 926.08,-220.92 1050,-188 1151.85,-160.94 1211.18,-169.91 1259,-76 1270.05,-54.3 1245.04,-35.67 1222.49,-23.99"/>
<polygon fill="midnightblue" stroke="midnightblue" points="1223.94,-20.8 1213.41,-19.57 1220.87,-27.1 1223.94,-20.8"/>
</g>
<!-- Node10&#45;&gt;Node6 -->
<g id="edge50" class="edge">
<title>Node10&#45;&gt;Node6</title>
<path fill="none" stroke="midnightblue" d="M705.6,-231.56C767.38,-228.3 900.27,-218.11 1008,-188 1067.8,-171.28 1080.01,-158.86 1136,-132 1184.39,-108.78 1215.21,-121.92 1243,-76 1247.6,-68.4 1248.07,-63.3 1243,-56 1232.38,-40.72 1184.64,-26.33 1152.4,-18.11"/>
<polygon fill="midnightblue" stroke="midnightblue" points="1153.09,-14.67 1142.54,-15.66 1151.4,-21.47 1153.09,-14.67"/>
</g>
<!-- Node10&#45;&gt;Node7 -->
<g id="edge51" class="edge">
<title>Node10&#45;&gt;Node7</title>
<path fill="none" stroke="midnightblue" d="M664.97,-224.34C653.65,-207.5 629.6,-168.77 621,-132 612.5,-95.65 626.7,-52.71 636.63,-29"/>
<polygon fill="midnightblue" stroke="midnightblue" points="639.96,-30.11 640.79,-19.55 633.56,-27.29 639.96,-30.11"/>
</g>
<!-- Node11 -->
<g id="node11" class="node">
<title>Node11</title>
<g id="a_node11"><a xlink:href="Ioss__ElementTopology_8h.html" target="_top" xlink:title=" ">
<polygon fill="white" stroke="black" points="824,-168.5 824,-187.5 946,-187.5 946,-168.5 824,-168.5"/>
<text text-anchor="middle" x="885" y="-175.5" font-family="Helvetica,sans-Serif" font-size="10.00">Ioss_ElementTopology.h</text>
</a>
</g>
</g>
<!-- Node10&#45;&gt;Node11 -->
<g id="edge11" class="edge">
<title>Node10&#45;&gt;Node11</title>
<path fill="none" stroke="midnightblue" d="M704.91,-224.44C741.85,-215.12 801.05,-200.18 841.42,-190"/>
<polygon fill="midnightblue" stroke="midnightblue" points="842.41,-193.36 851.25,-187.52 840.7,-186.57 842.41,-193.36"/>
</g>
<!-- Node17 -->
<g id="node17" class="node">
<title>Node17</title>
<g id="a_node17"><a xlink:href="Ioss__Field_8h.html" target="_top" xlink:title=" ">
<polygon fill="white" stroke="black" points="630,-112.5 630,-131.5 700,-131.5 700,-112.5 630,-112.5"/>
<text text-anchor="middle" x="665" y="-119.5" font-family="Helvetica,sans-Serif" font-size="10.00">Ioss_Field.h</text>
</a>
</g>
</g>
<!-- Node10&#45;&gt;Node17 -->
<g id="edge24" class="edge">
<title>Node10&#45;&gt;Node17</title>
<path fill="none" stroke="midnightblue" d="M670.53,-224.37C669.56,-206.62 667.33,-165.67 666.01,-141.6"/>
<polygon fill="midnightblue" stroke="midnightblue" points="669.51,-141.39 665.47,-131.59 662.52,-141.77 669.51,-141.39"/>
</g>
<!-- Node18 -->
<g id="node18" class="node">
<title>Node18</title>
<g id="a_node18"><a xlink:href="Ioss__Property_8h.html" target="_top" xlink:title=" ">
<polygon fill="white" stroke="black" points="1150,-56.5 1150,-75.5 1234,-75.5 1234,-56.5 1150,-56.5"/>
<text text-anchor="middle" x="1192" y="-63.5" font-family="Helvetica,sans-Serif" font-size="10.00">Ioss_Property.h</text>
</a>
</g>
</g>
<!-- Node10&#45;&gt;Node18 -->
<g id="edge29" class="edge">
<title>Node10&#45;&gt;Node18</title>
<path fill="none" stroke="midnightblue" d="M705.68,-231.25C782.42,-226.09 970.52,-206.22 1106,-132 1131.72,-117.91 1158.17,-96.72 1174.83,-82.4"/>
<polygon fill="midnightblue" stroke="midnightblue" points="1177.36,-84.83 1182.59,-75.61 1172.75,-79.56 1177.36,-84.83"/>
</g>
<!-- Node19 -->
<g id="node19" class="node">
<title>Node19</title>
<g id="a_node19"><a xlink:href="Ioss__Sort_8h.html" target="_top" xlink:title=" ">
<polygon fill="white" stroke="black" points="204.5,-112.5 204.5,-131.5 271.5,-131.5 271.5,-112.5 204.5,-112.5"/>
<text text-anchor="middle" x="238" y="-119.5" font-family="Helvetica,sans-Serif" font-size="10.00">Ioss_Sort.h</text>
</a>
</g>
</g>
<!-- Node10&#45;&gt;Node19 -->
<g id="edge33" class="edge">
<title>Node10&#45;&gt;Node19</title>
<path fill="none" stroke="midnightblue" d="M636.23,-232.43C553.06,-230.5 345.16,-222.31 286,-188 267.46,-177.25 253.96,-156.19 246.08,-140.95"/>
<polygon fill="midnightblue" stroke="midnightblue" points="249.03,-139.01 241.53,-131.52 242.73,-142.05 249.03,-139.01"/>
</g>
<!-- Node21 -->
<g id="node21" class="node">
<title>Node21</title>
<g id="a_node21"><a xlink:title=" ">
<polygon fill="white" stroke="#bfbfbf" points="0,-0.5 0,-19.5 56,-19.5 56,-0.5 0,-0.5"/>
<text text-anchor="middle" x="28" y="-7.5" font-family="Helvetica,sans-Serif" font-size="10.00">algorithm</text>
</a>
</g>
</g>
<!-- Node10&#45;&gt;Node21 -->
<g id="edge42" class="edge">
<title>Node10&#45;&gt;Node21</title>
<path fill="none" stroke="midnightblue" d="M636.3,-231.17C550.47,-226.34 330.2,-211.93 261,-188 171.95,-157.2 151.73,-138.25 81,-76 64.84,-61.78 49.66,-42.3 39.73,-28.38"/>
<polygon fill="midnightblue" stroke="midnightblue" points="42.32,-25.98 33.74,-19.77 36.57,-29.97 42.32,-25.98"/>
</g>
<!-- Node10&#45;&gt;Node25 -->
<g id="edge43" class="edge">
<title>Node10&#45;&gt;Node25</title>
<path fill="none" stroke="midnightblue" d="M705.8,-232.1C796.1,-229.39 1045.2,-219.41 1250,-188 1251.46,-187.78 1252.95,-187.53 1254.44,-187.26"/>
<polygon fill="midnightblue" stroke="midnightblue" points="1255.23,-190.67 1264.35,-185.27 1253.86,-183.81 1255.23,-190.67"/>
</g>
<!-- Node26 -->
<g id="node26" class="node">
<title>Node26</title>
<g id="a_node26"><a xlink:title=" ">
<polygon fill="white" stroke="#bfbfbf" points="366,-168.5 366,-187.5 410,-187.5 410,-168.5 366,-168.5"/>
<text text-anchor="middle" x="388" y="-175.5" font-family="Helvetica,sans-Serif" font-size="10.00">cmath</text>
</a>
</g>
</g>
<!-- Node10&#45;&gt;Node26 -->
<g id="edge44" class="edge">
<title>Node10&#45;&gt;Node26</title>
<path fill="none" stroke="midnightblue" d="M636.11,-227.97C589.12,-220.92 502.72,-207.06 420.07,-188.06"/>
<polygon fill="midnightblue" stroke="midnightblue" points="420.81,-184.63 410.28,-185.77 419.22,-191.45 420.81,-184.63"/>
</g>
<!-- Node27 -->
<g id="node27" class="node">
<title>Node27</title>
<g id="a_node27"><a xlink:title=" ">
<polygon fill="white" stroke="#bfbfbf" points="428.5,-168.5 428.5,-187.5 473.5,-187.5 473.5,-168.5 428.5,-168.5"/>
<text text-anchor="middle" x="451" y="-175.5" font-family="Helvetica,sans-Serif" font-size="10.00">cstdlib</text>
</a>
</g>
</g>
<!-- Node10&#45;&gt;Node27 -->
<g id="edge47" class="edge">
<title>Node10&#45;&gt;Node27</title>
<path fill="none" stroke="midnightblue" d="M636.25,-225.11C600.43,-216.89 542.76,-203.38 483.59,-188.07"/>
<polygon fill="midnightblue" stroke="midnightblue" points="484.25,-184.63 473.7,-185.5 482.49,-191.41 484.25,-184.63"/>
</g>
<!-- Node28 -->
<g id="node28" class="node">
<title>Node28</title>
<g id="a_node28"><a xlink:title=" ">
<polygon fill="white" stroke="#bfbfbf" points="492,-168.5 492,-187.5 546,-187.5 546,-168.5 492,-168.5"/>
<text text-anchor="middle" x="519" y="-175.5" font-family="Helvetica,sans-Serif" font-size="10.00">iostream</text>
</a>
</g>
</g>
<!-- Node10&#45;&gt;Node28 -->
<g id="edge48" class="edge">
<title>Node10&#45;&gt;Node28</title>
<path fill="none" stroke="midnightblue" d="M646.92,-224.44C621.46,-215.4 581.11,-201.06 552.54,-190.92"/>
<polygon fill="midnightblue" stroke="midnightblue" points="553.57,-187.57 542.97,-187.52 551.22,-194.16 553.57,-187.57"/>
</g>
<!-- Node29 -->
<g id="node29" class="node">
<title>Node29</title>
<g id="a_node29"><a xlink:title=" ">
<polygon fill="white" stroke="#bfbfbf" points="564.5,-168.5 564.5,-187.5 623.5,-187.5 623.5,-168.5 564.5,-168.5"/>
<text text-anchor="middle" x="594" y="-175.5" font-family="Helvetica,sans-Serif" font-size="10.00">stdexcept</text>
</a>
</g>
</g>
<!-- Node10&#45;&gt;Node29 -->
<g id="edge49" class="edge">
<title>Node10&#45;&gt;Node29</title>
<path fill="none" stroke="midnightblue" d="M658.63,-224.32C646.84,-216.06 628.87,-203.45 614.86,-193.63"/>
<polygon fill="midnightblue" stroke="midnightblue" points="616.54,-190.53 606.34,-187.65 612.52,-196.26 616.54,-190.53"/>
</g>
<!-- Node11&#45;&gt;Node2 -->
<g id="edge12" class="edge">
<title>Node11&#45;&gt;Node2</title>
<path fill="none" stroke="midnightblue" d="M877.31,-168.37C860.99,-150.05 822.68,-107.05 801.58,-83.36"/>
<polygon fill="midnightblue" stroke="midnightblue" points="803.92,-80.73 794.65,-75.59 798.69,-85.39 803.92,-80.73"/>
</g>
<!-- Node11&#45;&gt;Node6 -->
<g id="edge22" class="edge">
<title>Node11&#45;&gt;Node6</title>
<path fill="none" stroke="midnightblue" d="M946.01,-169.89C996.83,-162.79 1064.01,-150.29 1084,-132 1113.15,-105.33 1120.1,-56.59 1121.66,-29.83"/>
<polygon fill="midnightblue" stroke="midnightblue" points="1125.17,-29.67 1122.05,-19.54 1118.17,-29.4 1125.17,-29.67"/>
</g>
<!-- Node11&#45;&gt;Node7 -->
<g id="edge23" class="edge">
<title>Node11&#45;&gt;Node7</title>
<path fill="none" stroke="midnightblue" d="M870.97,-168.47C843.32,-151.53 780.07,-112.19 729,-76 705.94,-59.66 680.38,-39.58 663.58,-26.1"/>
<polygon fill="midnightblue" stroke="midnightblue" points="665.64,-23.26 655.65,-19.71 661.24,-28.71 665.64,-23.26"/>
</g>
<!-- Node12 -->
<g id="node12" class="node">
<title>Node12</title>
<g id="a_node12"><a xlink:href="Ioss__ElementPermutation_8h.html" target="_top" xlink:title=" ">
<polygon fill="white" stroke="black" points="918.5,-112.5 918.5,-131.5 1055.5,-131.5 1055.5,-112.5 918.5,-112.5"/>
<text text-anchor="middle" x="987" y="-119.5" font-family="Helvetica,sans-Serif" font-size="10.00">Ioss_ElementPermutation.h</text>
</a>
</g>
</g>
<!-- Node11&#45;&gt;Node12 -->
<g id="edge13" class="edge">
<title>Node11&#45;&gt;Node12</title>
<path fill="none" stroke="midnightblue" d="M901.39,-168.32C917.67,-159.7 942.87,-146.36 961.72,-136.39"/>
<polygon fill="midnightblue" stroke="midnightblue" points="963.45,-139.43 970.65,-131.65 960.18,-133.24 963.45,-139.43"/>
</g>
<!-- Node15 -->
<g id="node15" class="node">
<title>Node15</title>
<g id="a_node15"><a xlink:title=" ">
<polygon fill="white" stroke="#bfbfbf" points="1058.5,-56.5 1058.5,-75.5 1093.5,-75.5 1093.5,-56.5 1058.5,-56.5"/>
<text text-anchor="middle" x="1076" y="-63.5" font-family="Helvetica,sans-Serif" font-size="10.00">map</text>
</a>
</g>
</g>
<!-- Node11&#45;&gt;Node15 -->
<g id="edge20" class="edge">
<title>Node11&#45;&gt;Node15</title>
<path fill="none" stroke="midnightblue" d="M946.42,-168.74C991.64,-161.38 1047.94,-149.12 1064,-132 1075.4,-119.85 1077.73,-100.57 1077.61,-86.16"/>
<polygon fill="midnightblue" stroke="midnightblue" points="1081.09,-85.7 1077.11,-75.88 1074.1,-86.04 1081.09,-85.7"/>
</g>
<!-- Node16 -->
<g id="node16" class="node">
<title>Node16</title>
<g id="a_node16"><a xlink:title=" ">
<polygon fill="white" stroke="#bfbfbf" points="870,-112.5 870,-131.5 900,-131.5 900,-112.5 870,-112.5"/>
<text text-anchor="middle" x="885" y="-119.5" font-family="Helvetica,sans-Serif" font-size="10.00">set</text>
</a>
</g>
</g>
<!-- Node11&#45;&gt;Node16 -->
<g id="edge21" class="edge">
<title>Node11&#45;&gt;Node16</title>
<path fill="none" stroke="midnightblue" d="M885,-168.08C885,-161.01 885,-150.86 885,-141.99"/>
<polygon fill="midnightblue" stroke="midnightblue" points="888.5,-141.75 885,-131.75 881.5,-141.75 888.5,-141.75"/>
</g>
<!-- Node12&#45;&gt;Node2 -->
<g id="edge14" class="edge">
<title>Node12&#45;&gt;Node2</title>
<path fill="none" stroke="midnightblue" d="M955.31,-112.44C920.93,-103.16 865.92,-88.31 828.21,-78.13"/>
<polygon fill="midnightblue" stroke="midnightblue" points="829.11,-74.74 818.54,-75.52 827.28,-81.5 829.11,-74.74"/>
</g>
<!-- Node12&#45;&gt;Node6 -->
<g id="edge18" class="edge">
<title>Node12&#45;&gt;Node6</title>
<path fill="none" stroke="midnightblue" d="M994.02,-112.32C1004.91,-99.18 1026.94,-73.86 1049,-56 1063.81,-44.01 1082.05,-32.76 1096.6,-24.51"/>
<polygon fill="midnightblue" stroke="midnightblue" points="1098.5,-27.46 1105.55,-19.54 1095.11,-21.34 1098.5,-27.46"/>
</g>
<!-- Node12&#45;&gt;Node7 -->
<g id="edge19" class="edge">
<title>Node12&#45;&gt;Node7</title>
<path fill="none" stroke="midnightblue" d="M966.07,-112.5C944.92,-103.77 911.39,-89.59 883,-76 865.79,-67.76 862.91,-62.6 845,-56 837.1,-53.09 731.52,-29.88 677.05,-17.98"/>
<polygon fill="midnightblue" stroke="midnightblue" points="677.71,-14.54 667.19,-15.83 676.21,-21.38 677.71,-14.54"/>
</g>
<!-- Node13 -->
<g id="node13" class="node">
<title>Node13</title>
<g id="a_node13"><a xlink:title=" ">
<polygon fill="white" stroke="#bfbfbf" points="950,-56.5 950,-75.5 1002,-75.5 1002,-56.5 950,-56.5"/>
<text text-anchor="middle" x="976" y="-63.5" font-family="Helvetica,sans-Serif" font-size="10.00">assert.h</text>
</a>
</g>
</g>
<!-- Node12&#45;&gt;Node13 -->
<g id="edge15" class="edge">
<title>Node12&#45;&gt;Node13</title>
<path fill="none" stroke="midnightblue" d="M985.18,-112.08C983.73,-104.93 981.63,-94.64 979.81,-85.69"/>
<polygon fill="midnightblue" stroke="midnightblue" points="983.21,-84.85 977.78,-75.75 976.35,-86.25 983.21,-84.85"/>
</g>
<!-- Node14 -->
<g id="node14" class="node">
<title>Node14</title>
<g id="a_node14"><a xlink:title=" ">
<polygon fill="white" stroke="#bfbfbf" points="892,-56.5 892,-75.5 932,-75.5 932,-56.5 892,-56.5"/>
<text text-anchor="middle" x="912" y="-63.5" font-family="Helvetica,sans-Serif" font-size="10.00">limits</text>
</a>
</g>
</g>
<!-- Node12&#45;&gt;Node14 -->
<g id="edge16" class="edge">
<title>Node12&#45;&gt;Node14</title>
<path fill="none" stroke="midnightblue" d="M974.95,-112.32C963.54,-104.11 946.17,-91.6 932.57,-81.81"/>
<polygon fill="midnightblue" stroke="midnightblue" points="934.43,-78.84 924.27,-75.83 930.34,-84.52 934.43,-78.84"/>
</g>
<!-- Node12&#45;&gt;Node15 -->
<g id="edge17" class="edge">
<title>Node12&#45;&gt;Node15</title>
<path fill="none" stroke="midnightblue" d="M1001.3,-112.32C1015.18,-103.9 1036.49,-90.97 1052.8,-81.07"/>
<polygon fill="midnightblue" stroke="midnightblue" points="1055,-83.83 1061.74,-75.65 1051.37,-77.85 1055,-83.83"/>
</g>
<!-- Node17&#45;&gt;Node2 -->
<g id="edge25" class="edge">
<title>Node17&#45;&gt;Node2</title>
<path fill="none" stroke="midnightblue" d="M684.33,-112.44C704.32,-103.6 735.74,-89.69 758.56,-79.59"/>
<polygon fill="midnightblue" stroke="midnightblue" points="760.03,-82.76 767.76,-75.52 757.2,-76.36 760.03,-82.76"/>
</g>
<!-- Node17&#45;&gt;Node4 -->
<g id="edge26" class="edge">
<title>Node17&#45;&gt;Node4</title>
<path fill="none" stroke="midnightblue" d="M636.66,-112.46C570.57,-92.54 406.39,-43.06 334.56,-21.42"/>
<polygon fill="midnightblue" stroke="midnightblue" points="335.24,-17.97 324.66,-18.43 333.22,-24.67 335.24,-17.97"/>
</g>
<!-- Node17&#45;&gt;Node6 -->
<g id="edge27" class="edge">
<title>Node17&#45;&gt;Node6</title>
<path fill="none" stroke="midnightblue" d="M670.48,-112.44C680.27,-97.99 702.24,-69.05 729,-56 761.37,-40.22 1004.53,-20.09 1091.32,-13.33"/>
<polygon fill="midnightblue" stroke="midnightblue" points="1091.64,-16.82 1101.34,-12.56 1091.1,-9.84 1091.64,-16.82"/>
</g>
<!-- Node17&#45;&gt;Node7 -->
<g id="edge28" class="edge">
<title>Node17&#45;&gt;Node7</title>
<path fill="none" stroke="midnightblue" d="M663.43,-112.37C660.2,-94.62 652.76,-53.67 648.38,-29.6"/>
<polygon fill="midnightblue" stroke="midnightblue" points="651.79,-28.8 646.56,-19.59 644.91,-30.06 651.79,-28.8"/>
</g>
<!-- Node18&#45;&gt;Node5 -->
<g id="edge30" class="edge">
<title>Node18&#45;&gt;Node5</title>
<path fill="none" stroke="midnightblue" d="M1192,-56.08C1192,-49.01 1192,-38.86 1192,-29.99"/>
<polygon fill="midnightblue" stroke="midnightblue" points="1195.5,-29.75 1192,-19.75 1188.5,-29.75 1195.5,-29.75"/>
</g>
<!-- Node18&#45;&gt;Node6 -->
<g id="edge31" class="edge">
<title>Node18&#45;&gt;Node6</title>
<path fill="none" stroke="midnightblue" d="M1180.75,-56.32C1170.2,-48.18 1154.2,-35.84 1141.56,-26.09"/>
<polygon fill="midnightblue" stroke="midnightblue" points="1143.51,-23.17 1133.45,-19.83 1139.23,-28.71 1143.51,-23.17"/>
</g>
<!-- Node18&#45;&gt;Node7 -->
<g id="edge32" class="edge">
<title>Node18&#45;&gt;Node7</title>
<path fill="none" stroke="midnightblue" d="M1149.89,-60.67C1134.79,-59.15 1117.63,-57.46 1102,-56 917.66,-38.79 870.09,-47.45 687,-20 683.76,-19.51 680.38,-18.93 677.03,-18.29"/>
<polygon fill="midnightblue" stroke="midnightblue" points="677.64,-14.84 667.14,-16.28 676.24,-21.7 677.64,-14.84"/>
</g>
<!-- Node19&#45;&gt;Node4 -->
<g id="edge40" class="edge">
<title>Node19&#45;&gt;Node4</title>
<path fill="none" stroke="midnightblue" d="M242.87,-112.37C253.05,-94.3 276.79,-52.18 290.24,-28.31"/>
<polygon fill="midnightblue" stroke="midnightblue" points="293.3,-30.02 295.16,-19.59 287.2,-26.58 293.3,-30.02"/>
</g>
<!-- Node19&#45;&gt;Node7 -->
<g id="edge41" class="edge">
<title>Node19&#45;&gt;Node7</title>
<path fill="none" stroke="midnightblue" d="M256.04,-112.37C285.53,-98.59 346.15,-71.58 400,-56 474.73,-34.38 565.42,-20.92 612.73,-14.83"/>
<polygon fill="midnightblue" stroke="midnightblue" points="613.21,-18.3 622.7,-13.58 612.34,-11.36 613.21,-18.3"/>
</g>
<!-- Node20 -->
<g id="node20" class="node">
<title>Node20</title>
<g id="a_node20"><a xlink:href="pdqsort_8h.html" target="_top" xlink:title=" ">
<polygon fill="white" stroke="black" points="90.5,-56.5 90.5,-75.5 147.5,-75.5 147.5,-56.5 90.5,-56.5"/>
<text text-anchor="middle" x="119" y="-63.5" font-family="Helvetica,sans-Serif" font-size="10.00">pdqsort.h</text>
</a>
</g>
</g>
<!-- Node19&#45;&gt;Node20 -->
<g id="edge34" class="edge">
<title>Node19&#45;&gt;Node20</title>
<path fill="none" stroke="midnightblue" d="M219.14,-112.44C199.73,-103.64 169.27,-89.81 147.04,-79.72"/>
<polygon fill="midnightblue" stroke="midnightblue" points="148.32,-76.46 137.77,-75.52 145.43,-82.84 148.32,-76.46"/>
</g>
<!-- Node20&#45;&gt;Node4 -->
<g id="edge36" class="edge">
<title>Node20&#45;&gt;Node4</title>
<path fill="none" stroke="midnightblue" d="M147.68,-56.44C179.57,-46.93 231.07,-31.56 265.23,-21.37"/>
<polygon fill="midnightblue" stroke="midnightblue" points="266.65,-24.6 275.24,-18.39 264.65,-17.89 266.65,-24.6"/>
</g>
<!-- Node20&#45;&gt;Node21 -->
<g id="edge35" class="edge">
<title>Node20&#45;&gt;Node21</title>
<path fill="none" stroke="midnightblue" d="M104.38,-56.32C90.05,-47.82 67.99,-34.73 51.25,-24.8"/>
<polygon fill="midnightblue" stroke="midnightblue" points="52.97,-21.75 42.58,-19.65 49.4,-27.77 52.97,-21.75"/>
</g>
<!-- Node22 -->
<g id="node22" class="node">
<title>Node22</title>
<g id="a_node22"><a xlink:title=" ">
<polygon fill="white" stroke="#bfbfbf" points="74.5,-0.5 74.5,-19.5 133.5,-19.5 133.5,-0.5 74.5,-0.5"/>
<text text-anchor="middle" x="104" y="-7.5" font-family="Helvetica,sans-Serif" font-size="10.00">functional</text>
</a>
</g>
</g>
<!-- Node20&#45;&gt;Node22 -->
<g id="edge37" class="edge">
<title>Node20&#45;&gt;Node22</title>
<path fill="none" stroke="midnightblue" d="M116.52,-56.08C114.51,-48.85 111.61,-38.41 109.11,-29.4"/>
<polygon fill="midnightblue" stroke="midnightblue" points="112.48,-28.45 106.43,-19.75 105.74,-30.32 112.48,-28.45"/>
</g>
<!-- Node23 -->
<g id="node23" class="node">
<title>Node23</title>
<g id="a_node23"><a xlink:title=" ">
<polygon fill="white" stroke="#bfbfbf" points="151.5,-0.5 151.5,-19.5 198.5,-19.5 198.5,-0.5 151.5,-0.5"/>
<text text-anchor="middle" x="175" y="-7.5" font-family="Helvetica,sans-Serif" font-size="10.00">iterator</text>
</a>
</g>
</g>
<!-- Node20&#45;&gt;Node23 -->
<g id="edge38" class="edge">
<title>Node20&#45;&gt;Node23</title>
<path fill="none" stroke="midnightblue" d="M128,-56.32C136.19,-48.42 148.51,-36.55 158.47,-26.94"/>
<polygon fill="midnightblue" stroke="midnightblue" points="161.07,-29.29 165.84,-19.83 156.21,-24.26 161.07,-29.29"/>
</g>
<!-- Node24 -->
<g id="node24" class="node">
<title>Node24</title>
<g id="a_node24"><a xlink:title=" ">
<polygon fill="white" stroke="#bfbfbf" points="217,-0.5 217,-19.5 257,-19.5 257,-0.5 217,-0.5"/>
<text text-anchor="middle" x="237" y="-7.5" font-family="Helvetica,sans-Serif" font-size="10.00">utility</text>
</a>
</g>
</g>
<!-- Node20&#45;&gt;Node24 -->
<g id="edge39" class="edge">
<title>Node20&#45;&gt;Node24</title>
<path fill="none" stroke="midnightblue" d="M137.7,-56.44C156.94,-47.64 187.15,-33.81 209.2,-23.72"/>
<polygon fill="midnightblue" stroke="midnightblue" points="210.75,-26.86 218.39,-19.52 207.84,-20.5 210.75,-26.86"/>
</g>
</g>
</svg>
        <g id="navigator" transform="translate(0 0)" fill="#404254">
                <rect fill="#f2f5e9" fill-opacity="0.5" stroke="#606060" stroke-width=".5" x="0" y="0" width="60" height="60"/>
                <use id="zoomplus" xlink:href="#zoomPlus" x="17" y="9" onmousedown="handleZoom(evt,'in')"/>
                <use id="zoomminus" xlink:href="#zoomMin" x="42" y="9" onmousedown="handleZoom(evt,'out')"/>
                <use id="reset" xlink:href="#resetDef" x="30" y="36" onmousedown="handleReset()"/>
                <g id="arrowUp" xlink:href="#dirArrow" transform="translate(30 24)" onmousedown="handlePan(0,-1)">
                  <use xlink:href="#rim" fill="#404040">
                        <set attributeName="fill" to="#808080" begin="arrowUp.mouseover" end="arrowUp.mouseout"/>
                  </use>
                  <path fill="none" stroke="white" stroke-width="1.5" d="M0,-3.0v7 M-2.5,-0.5L0,-3.0L2.5,-0.5"/>
                </g>
                <g id="arrowRight" xlink:href="#dirArrow" transform="rotate(90) translate(36 -43)" onmousedown="handlePan(1,0)">
                  <use xlink:href="#rim" fill="#404040">
                        <set attributeName="fill" to="#808080" begin="arrowRight.mouseover" end="arrowRight.mouseout"/>
                  </use>
                  <path fill="none" stroke="white" stroke-width="1.5" d="M0,-3.0v7 M-2.5,-0.5L0,-3.0L2.5,-0.5"/>
                </g>
                <g id="arrowDown" xlink:href="#dirArrow" transform="rotate(180) translate(-30 -48)" onmousedown="handlePan(0,1)">
                  <use xlink:href="#rim" fill="#404040">
                        <set attributeName="fill" to="#808080" begin="arrowDown.mouseover" end="arrowDown.mouseout"/>
                  </use>
                  <path fill="none" stroke="white" stroke-width="1.5" d="M0,-3.0v7 M-2.5,-0.5L0,-3.0L2.5,-0.5"/>
                </g>
                <g id="arrowLeft" xlink:href="#dirArrow" transform="rotate(270) translate(-36 17)" onmousedown="handlePan(-1,0)">
                  <use xlink:href="#rim" fill="#404040">
                        <set attributeName="fill" to="#808080" begin="arrowLeft.mouseover" end="arrowLeft.mouseout"/>
                  </use>
                  <path fill="none" stroke="white" stroke-width="1.5" d="M0,-3.0v7 M-2.5,-0.5L0,-3.0L2.5,-0.5"/>
                </g>
        </g>
        <svg viewBox="0 0 15 15" width="100%" height="30px" preserveAspectRatio="xMaxYMin meet">
         <g id="arrow_out" transform="scale(0.3 0.3)">
          <a xlink:href="Ioss__ParallelUtils_8h__incl_org.svg" target="_base">
           <rect id="button" ry="5" rx="5" y="6" x="6" height="38" width="38"
                fill="#f2f5e9" fill-opacity="0.5" stroke="#606060" stroke-width="1.0"/>
           <path id="arrow"
             d="M 11.500037,31.436501 C 11.940474,20.09759 22.043105,11.32322 32.158766,21.979434 L 37.068811,17.246167 C 37.068811,17.246167 37.088388,32 37.088388,32 L 22.160133,31.978069 C 22.160133,31.978069 26.997745,27.140456 26.997745,27.140456 C 18.528582,18.264221 13.291696,25.230495 11.500037,31.436501 z"
             style="fill:#404040;"/>
          </a>
         </g>
        </svg>
</svg>
