<?xml version="1.0" encoding="UTF-8" standalone="no"?>
<!DOCTYPE svg PUBLIC "-//W3C//DTD SVG 1.1//EN"
 "http://www.w3.org/Graphics/SVG/1.1/DTD/svg11.dtd">
<!-- Generated by graphviz version 3.0.0 (20220226.1711)
 -->
<!-- Title: src/Ioss_Super.h Pages: 1 -->
<svg width="447pt" height="298pt"
 viewBox="0.00 0.00 447.00 297.65" xmlns="http://www.w3.org/2000/svg" xmlns:xlink="http://www.w3.org/1999/xlink">
<g id="graph0" class="graph" transform="scale(1 1) rotate(0) translate(4 293.65)">
<title>src/Ioss_Super.h</title>
<polygon fill="white" stroke="transparent" points="-4,4 -4,-293.65 443,-293.65 443,4 -4,4"/>
<!-- Node1 -->
<g id="node1" class="node">
<title>Node1</title>
<g id="a_node1"><a xlink:title=" ">
<polygon fill="#bfbfbf" stroke="black" points="180.5,-268.5 180.5,-287.5 270.5,-287.5 270.5,-268.5 180.5,-268.5"/>
<text text-anchor="middle" x="225.5" y="-275.5" font-family="Helvetica,sans-Serif" font-size="10.00">src/Ioss_Super.h</text>
</a>
</g>
</g>
<!-- Node1&#45;&gt;Node1 -->
<g id="edge13" class="edge">
<title>Node1&#45;&gt;Node1</title>
<path fill="none" stroke="midnightblue" d="M258.75,-288.99C274.57,-290.3 288.5,-286.64 288.5,-278 288.5,-267.57 268.19,-264.39 248.76,-268.47"/>
<polygon fill="midnightblue" stroke="midnightblue" points="259.16,-285.51 248.76,-287.53 258.15,-292.44 259.16,-285.51"/>
</g>
<!-- Node2 -->
<g id="node2" class="node">
<title>Node2</title>
<g id="a_node2"><a xlink:href="Ioss__ElementTopology_8C.html" target="_top" xlink:title=" ">
<polygon fill="white" stroke="black" points="0,-207 0,-226 141,-226 141,-207 0,-207"/>
<text text-anchor="middle" x="70.5" y="-214" font-family="Helvetica,sans-Serif" font-size="10.00">src/Ioss_ElementTopology.C</text>
</a>
</g>
</g>
<!-- Node1&#45;&gt;Node2 -->
<g id="edge1" class="edge">
<title>Node1&#45;&gt;Node2</title>
<path fill="none" stroke="midnightblue" d="M193.67,-264.78C163.55,-253.22 119.12,-236.16 92.67,-226.01"/>
<polygon fill="midnightblue" stroke="midnightblue" points="192.7,-268.16 203.29,-268.48 195.21,-261.62 192.7,-268.16"/>
</g>
<!-- Node3 -->
<g id="node3" class="node">
<title>Node3</title>
<g id="a_node3"><a xlink:href="Ioss__StandardElementTypes_8h.html" target="_top" xlink:title=" ">
<polygon fill="white" stroke="black" points="159.5,-201.5 159.5,-231.5 291.5,-231.5 291.5,-201.5 159.5,-201.5"/>
<text text-anchor="start" x="167.5" y="-219.5" font-family="Helvetica,sans-Serif" font-size="10.00">src/Ioss_StandardElement</text>
<text text-anchor="middle" x="225.5" y="-208.5" font-family="Helvetica,sans-Serif" font-size="10.00">Types.h</text>
</a>
</g>
</g>
<!-- Node1&#45;&gt;Node3 -->
<g id="edge2" class="edge">
<title>Node1&#45;&gt;Node3</title>
<path fill="none" stroke="midnightblue" d="M225.5,-258.23C225.5,-249.59 225.5,-239.5 225.5,-231.52"/>
<polygon fill="midnightblue" stroke="midnightblue" points="222,-258.48 225.5,-268.48 229,-258.48 222,-258.48"/>
</g>
<!-- Node11 -->
<g id="node11" class="node">
<title>Node11</title>
<g id="a_node11"><a xlink:href="Ioss__Super_8C.html" target="_top" xlink:title=" ">
<polygon fill="white" stroke="black" points="309.5,-207 309.5,-226 401.5,-226 401.5,-207 309.5,-207"/>
<text text-anchor="middle" x="355.5" y="-214" font-family="Helvetica,sans-Serif" font-size="10.00">src/Ioss_Super.C</text>
</a>
</g>
</g>
<!-- Node1&#45;&gt;Node11 -->
<g id="edge12" class="edge">
<title>Node1&#45;&gt;Node11</title>
<path fill="none" stroke="midnightblue" d="M253.52,-264.17C278.75,-252.63 315.11,-235.99 336.91,-226.01"/>
<polygon fill="midnightblue" stroke="midnightblue" points="251.76,-261.13 244.13,-268.48 254.68,-267.5 251.76,-261.13"/>
</g>
<!-- Node4 -->
<g id="node4" class="node">
<title>Node4</title>
<g id="a_node4"><a xlink:href="Ioss__Initializer_8C.html" target="_top" xlink:title=" ">
<polygon fill="white" stroke="black" points="40.5,-140 40.5,-159 146.5,-159 146.5,-140 40.5,-140"/>
<text text-anchor="middle" x="93.5" y="-147" font-family="Helvetica,sans-Serif" font-size="10.00">src/Ioss_Initializer.C</text>
</a>
</g>
</g>
<!-- Node3&#45;&gt;Node4 -->
<g id="edge3" class="edge">
<title>Node3&#45;&gt;Node4</title>
<path fill="none" stroke="midnightblue" d="M187.86,-196.97C162.51,-184.48 130.25,-168.6 110.78,-159.01"/>
<polygon fill="midnightblue" stroke="midnightblue" points="186.34,-200.12 196.86,-201.4 189.43,-193.84 186.34,-200.12"/>
</g>
<!-- Node5 -->
<g id="node5" class="node">
<title>Node5</title>
<g id="a_node5"><a xlink:href="Iotm__TextMesh_8h.html" target="_top" xlink:title=" ">
<polygon fill="white" stroke="black" points="159,-67.5 159,-97.5 260,-97.5 260,-67.5 159,-67.5"/>
<text text-anchor="start" x="167" y="-85.5" font-family="Helvetica,sans-Serif" font-size="10.00">src/text_mesh/Iotm</text>
<text text-anchor="middle" x="209.5" y="-74.5" font-family="Helvetica,sans-Serif" font-size="10.00">_TextMesh.h</text>
</a>
</g>
</g>
<!-- Node3&#45;&gt;Node5 -->
<g id="edge4" class="edge">
<title>Node3&#45;&gt;Node5</title>
<path fill="none" stroke="midnightblue" d="M207.29,-192.8C201.73,-184.54 196.35,-174.81 193.5,-165 186.75,-141.73 195.75,-113.91 202.73,-97.52"/>
<polygon fill="midnightblue" stroke="midnightblue" points="204.59,-195.05 213.26,-201.12 210.27,-190.96 204.59,-195.05"/>
</g>
<!-- Node8 -->
<g id="node8" class="node">
<title>Node8</title>
<g id="a_node8"><a xlink:href="Iotm__TextMeshTopologyMapping_8h.html" target="_top" xlink:title=" ">
<polygon fill="white" stroke="black" points="203,-134.5 203,-164.5 352,-164.5 352,-134.5 203,-134.5"/>
<text text-anchor="start" x="211" y="-152.5" font-family="Helvetica,sans-Serif" font-size="10.00">src/text_mesh/Iotm</text>
<text text-anchor="middle" x="277.5" y="-141.5" font-family="Helvetica,sans-Serif" font-size="10.00">_TextMeshTopologyMapping.h</text>
</a>
</g>
</g>
<!-- Node3&#45;&gt;Node8 -->
<g id="edge7" class="edge">
<title>Node3&#45;&gt;Node8</title>
<path fill="none" stroke="midnightblue" d="M243.14,-193.45C250.78,-183.9 259.5,-173 266.24,-164.58"/>
<polygon fill="midnightblue" stroke="midnightblue" points="240.3,-191.4 236.78,-201.4 245.76,-195.77 240.3,-191.4"/>
</g>
<!-- Node9 -->
<g id="node9" class="node">
<title>Node9</title>
<g id="a_node9"><a xlink:href="UnitTestIotmTextMeshFixture_8h.html" target="_top" xlink:title=" ">
<polygon fill="white" stroke="black" points="304,-67.5 304,-97.5 439,-97.5 439,-67.5 304,-67.5"/>
<text text-anchor="start" x="312" y="-85.5" font-family="Helvetica,sans-Serif" font-size="10.00">src/unit_tests/UnitTestIotm</text>
<text text-anchor="middle" x="371.5" y="-74.5" font-family="Helvetica,sans-Serif" font-size="10.00">TextMeshFixture.h</text>
</a>
</g>
</g>
<!-- Node3&#45;&gt;Node9 -->
<g id="edge11" class="edge">
<title>Node3&#45;&gt;Node9</title>
<path fill="none" stroke="midnightblue" d="M289.06,-198.55C319.27,-189.19 350.89,-177.05 360.5,-165 375.91,-145.69 375.51,-115.26 373.64,-97.56"/>
<polygon fill="midnightblue" stroke="midnightblue" points="287.88,-195.25 279.32,-201.49 289.91,-201.95 287.88,-195.25"/>
</g>
<!-- Node6 -->
<g id="node6" class="node">
<title>Node6</title>
<g id="a_node6"><a xlink:href="Iotm__DatabaseIO_8C.html" target="_top" xlink:title=" ">
<polygon fill="white" stroke="black" points="57,-0.5 57,-30.5 158,-30.5 158,-0.5 57,-0.5"/>
<text text-anchor="start" x="65" y="-18.5" font-family="Helvetica,sans-Serif" font-size="10.00">src/text_mesh/Iotm</text>
<text text-anchor="middle" x="107.5" y="-7.5" font-family="Helvetica,sans-Serif" font-size="10.00">_DatabaseIO.C</text>
</a>
</g>
</g>
<!-- Node5&#45;&gt;Node6 -->
<g id="edge5" class="edge">
<title>Node5&#45;&gt;Node6</title>
<path fill="none" stroke="midnightblue" d="M178.92,-62.02C163.05,-51.9 144.02,-39.77 129.59,-30.58"/>
<polygon fill="midnightblue" stroke="midnightblue" points="177.05,-64.97 187.37,-67.4 180.82,-59.07 177.05,-64.97"/>
</g>
<!-- Node7 -->
<g id="node7" class="node">
<title>Node7</title>
<g id="a_node7"><a xlink:href="Iotm__TextMesh_8C.html" target="_top" xlink:title=" ">
<polygon fill="white" stroke="black" points="176,-0.5 176,-30.5 277,-30.5 277,-0.5 176,-0.5"/>
<text text-anchor="start" x="184" y="-18.5" font-family="Helvetica,sans-Serif" font-size="10.00">src/text_mesh/Iotm</text>
<text text-anchor="middle" x="226.5" y="-7.5" font-family="Helvetica,sans-Serif" font-size="10.00">_TextMesh.C</text>
</a>
</g>
</g>
<!-- Node5&#45;&gt;Node7 -->
<g id="edge6" class="edge">
<title>Node5&#45;&gt;Node7</title>
<path fill="none" stroke="midnightblue" d="M215.73,-57.7C218.11,-48.59 220.75,-38.49 222.82,-30.58"/>
<polygon fill="midnightblue" stroke="midnightblue" points="212.33,-56.84 213.19,-67.4 219.11,-58.61 212.33,-56.84"/>
</g>
<!-- Node8&#45;&gt;Node5 -->
<g id="edge8" class="edge">
<title>Node8&#45;&gt;Node5</title>
<path fill="none" stroke="midnightblue" d="M255.33,-127.31C245.13,-117.56 233.31,-106.26 224.23,-97.58"/>
<polygon fill="midnightblue" stroke="midnightblue" points="253.1,-130.02 262.75,-134.4 257.93,-124.96 253.1,-130.02"/>
</g>
<!-- Node8&#45;&gt;Node9 -->
<g id="edge9" class="edge">
<title>Node8&#45;&gt;Node9</title>
<path fill="none" stroke="midnightblue" d="M306.49,-128.45C320.95,-118.45 338.09,-106.6 351.14,-97.58"/>
<polygon fill="midnightblue" stroke="midnightblue" points="304.13,-125.83 297.9,-134.4 308.11,-131.59 304.13,-125.83"/>
</g>
<!-- Node10 -->
<g id="node10" class="node">
<title>Node10</title>
<g id="a_node10"><a xlink:href="UnitTestTextMesh_8C.html" target="_top" xlink:title=" ">
<polygon fill="white" stroke="black" points="304.5,-0.5 304.5,-30.5 438.5,-30.5 438.5,-0.5 304.5,-0.5"/>
<text text-anchor="start" x="312.5" y="-18.5" font-family="Helvetica,sans-Serif" font-size="10.00">src/unit_tests/UnitTestText</text>
<text text-anchor="middle" x="371.5" y="-7.5" font-family="Helvetica,sans-Serif" font-size="10.00">Mesh.C</text>
</a>
</g>
</g>
<!-- Node9&#45;&gt;Node10 -->
<g id="edge10" class="edge">
<title>Node9&#45;&gt;Node10</title>
<path fill="none" stroke="midnightblue" d="M371.5,-57.11C371.5,-48.15 371.5,-38.32 371.5,-30.58"/>
<polygon fill="midnightblue" stroke="midnightblue" points="368,-57.4 371.5,-67.4 375,-57.4 368,-57.4"/>
</g>
</g>
</svg>
