<?xml version="1.0" encoding="UTF-8" standalone="no"?>
<!DOCTYPE svg PUBLIC "-//W3C//DTD SVG 1.1//EN"
 "http://www.w3.org/Graphics/SVG/1.1/DTD/svg11.dtd">
<!-- Generated by graphviz version 5.0.1 (20220820.1526)
 -->
<!-- Title: src/Ioss_Tracer.C Pages: 1 -->
<svg width="1078pt" height="302pt"
 viewBox="0.00 0.00 1078.37 302.00" xmlns="http://www.w3.org/2000/svg" xmlns:xlink="http://www.w3.org/1999/xlink">
<g id="graph0" class="graph" transform="scale(1 1) rotate(0) translate(4 298)">
<title>src/Ioss_Tracer.C</title>
<!-- Node1 -->
<g id="node1" class="node">
<title>Node1</title>
<g id="a_node1"><a xlink:title=" ">
<polygon fill="#999999" stroke="#666666" points="910.87,-294 815.87,-294 815.87,-275 910.87,-275 910.87,-294"/>
<text text-anchor="middle" x="863.37" y="-282" font-family="Helvetica,sans-Serif" font-size="10.00">src/Ioss_Tracer.C</text>
</a>
</g>
</g>
<!-- Node2 -->
<g id="node2" class="node">
<title>Node2</title>
<g id="a_node2"><a xlink:href="Ioss__Tracer_8h.html" target="_top" xlink:title=" ">
<polygon fill="white" stroke="#666666" points="613.37,-239 537.37,-239 537.37,-220 613.37,-220 613.37,-239"/>
<text text-anchor="middle" x="575.37" y="-227" font-family="Helvetica,sans-Serif" font-size="10.00">Ioss_Tracer.h</text>
</a>
</g>
</g>
<!-- Node1&#45;&gt;Node2 -->
<g id="edge1" class="edge">
<title>Node1&#45;&gt;Node2</title>
<path fill="none" stroke="#63b8ff" d="M817.1,-274.98C764.07,-265.23 677.56,-249.31 623.69,-239.39"/>
<polygon fill="#63b8ff" stroke="#63b8ff" points="624.17,-235.92 613.7,-237.55 622.9,-242.81 624.17,-235.92"/>
</g>
<!-- Node3 -->
<g id="node3" class="node">
<title>Node3</title>
<g id="a_node3"><a xlink:href="Ioss__Utils_8h.html" target="_top" xlink:title=" ">
<polygon fill="white" stroke="#666666" points="700.87,-239 631.87,-239 631.87,-220 700.87,-220 700.87,-239"/>
<text text-anchor="middle" x="666.37" y="-227" font-family="Helvetica,sans-Serif" font-size="10.00">Ioss_Utils.h</text>
</a>
</g>
</g>
<!-- Node1&#45;&gt;Node3 -->
<g id="edge2" class="edge">
<title>Node1&#45;&gt;Node3</title>
<path fill="none" stroke="#63b8ff" d="M831.72,-274.98C798.22,-265.97 745.18,-251.7 708.24,-241.76"/>
<polygon fill="#63b8ff" stroke="#63b8ff" points="708.84,-238.3 698.27,-239.08 707.02,-245.06 708.84,-238.3"/>
</g>
<!-- Node27 -->
<g id="node27" class="node">
<title>Node27</title>
<g id="a_node27"><a xlink:title=" ">
<polygon fill="#e0e0e0" stroke="#999999" points="997.87,-184 948.87,-184 948.87,-165 997.87,-165 997.87,-184"/>
<text text-anchor="middle" x="973.37" y="-172" font-family="Helvetica,sans-Serif" font-size="10.00">cassert</text>
</a>
</g>
</g>
<!-- Node1&#45;&gt;Node27 -->
<g id="edge53" class="edge">
<title>Node1&#45;&gt;Node27</title>
<path fill="none" stroke="#63b8ff" d="M864.66,-274.67C867,-261.36 873.11,-236.02 887.37,-220 901.24,-204.43 921.86,-193.5 939.43,-186.37"/>
<polygon fill="#63b8ff" stroke="#63b8ff" points="940.71,-189.62 948.81,-182.79 938.22,-183.08 940.71,-189.62"/>
</g>
<!-- Node30 -->
<g id="node30" class="node">
<title>Node30</title>
<g id="a_node30"><a xlink:title=" ">
<polygon fill="#e0e0e0" stroke="#999999" points="1070.37,-184 1016.37,-184 1016.37,-165 1070.37,-165 1070.37,-184"/>
<text text-anchor="middle" x="1043.37" y="-172" font-family="Helvetica,sans-Serif" font-size="10.00">iostream</text>
</a>
</g>
</g>
<!-- Node1&#45;&gt;Node30 -->
<g id="edge55" class="edge">
<title>Node1&#45;&gt;Node30</title>
<path fill="none" stroke="#63b8ff" d="M869.14,-274.88C878.57,-261.4 898.55,-235.29 921.37,-220 935.6,-210.47 975.86,-196.59 1006.28,-186.88"/>
<polygon fill="#63b8ff" stroke="#63b8ff" points="1007.68,-190.1 1016.17,-183.75 1005.58,-183.43 1007.68,-190.1"/>
</g>
<!-- Node32 -->
<g id="node32" class="node">
<title>Node32</title>
<g id="a_node32"><a xlink:title=" ">
<polygon fill="#e0e0e0" stroke="#999999" points="1006.87,-239 929.87,-239 929.87,-220 1006.87,-220 1006.87,-239"/>
<text text-anchor="middle" x="968.37" y="-227" font-family="Helvetica,sans-Serif" font-size="10.00">fmt/ostream.h</text>
</a>
</g>
</g>
<!-- Node1&#45;&gt;Node32 -->
<g id="edge54" class="edge">
<title>Node1&#45;&gt;Node32</title>
<path fill="none" stroke="#63b8ff" d="M880.24,-274.98C896.98,-266.54 922.87,-253.47 942.27,-243.68"/>
<polygon fill="#63b8ff" stroke="#63b8ff" points="943.85,-246.8 951.2,-239.17 940.69,-240.55 943.85,-246.8"/>
</g>
<!-- Node4 -->
<g id="node4" class="node">
<title>Node4</title>
<g id="a_node4"><a xlink:href="Ioss__CodeTypes_8h.html" target="_top" xlink:title=" ">
<polygon fill="white" stroke="#666666" points="666.37,-74 568.37,-74 568.37,-55 666.37,-55 666.37,-74"/>
<text text-anchor="middle" x="617.37" y="-62" font-family="Helvetica,sans-Serif" font-size="10.00">Ioss_CodeTypes.h</text>
</a>
</g>
</g>
<!-- Node3&#45;&gt;Node4 -->
<g id="edge3" class="edge">
<title>Node3&#45;&gt;Node4</title>
<path fill="none" stroke="#63b8ff" d="M663.27,-219.67C660.15,-210.72 655.26,-196.45 651.37,-184 640.42,-148.88 628.85,-107.5 622.43,-84.1"/>
<polygon fill="#63b8ff" stroke="#63b8ff" points="625.73,-82.89 619.71,-74.16 618.97,-84.73 625.73,-82.89"/>
</g>
<!-- Node6 -->
<g id="node6" class="node">
<title>Node6</title>
<g id="a_node6"><a xlink:title=" ">
<polygon fill="#e0e0e0" stroke="#999999" points="780.87,-19 731.87,-19 731.87,0 780.87,0 780.87,-19"/>
<text text-anchor="middle" x="756.37" y="-7" font-family="Helvetica,sans-Serif" font-size="10.00">cstddef</text>
</a>
</g>
</g>
<!-- Node3&#45;&gt;Node6 -->
<g id="edge46" class="edge">
<title>Node3&#45;&gt;Node6</title>
<path fill="none" stroke="#63b8ff" d="M701.25,-225.74C752.29,-220.9 843.45,-208.92 863.37,-184 907,-129.42 819.67,-55.82 777.45,-25.01"/>
<polygon fill="#63b8ff" stroke="#63b8ff" points="779.36,-22.07 769.19,-19.11 775.29,-27.77 779.36,-22.07"/>
</g>
<!-- Node7 -->
<g id="node7" class="node">
<title>Node7</title>
<g id="a_node7"><a xlink:title=" ">
<polygon fill="#e0e0e0" stroke="#999999" points="83.37,-19 37.37,-19 37.37,0 83.37,0 83.37,-19"/>
<text text-anchor="middle" x="60.37" y="-7" font-family="Helvetica,sans-Serif" font-size="10.00">cstdint</text>
</a>
</g>
</g>
<!-- Node3&#45;&gt;Node7 -->
<g id="edge47" class="edge">
<title>Node3&#45;&gt;Node7</title>
<path fill="none" stroke="#63b8ff" d="M631.85,-221.43C628.65,-220.9 625.46,-220.41 622.37,-220 407.24,-191.37 343.95,-244 135.37,-184 61.66,-162.79 20.8,-148.46 2.37,-74 0.35,-65.8 -1.36,-62.57 2.37,-55 8.86,-41.85 21.31,-31.5 33.01,-24.11"/>
<polygon fill="#63b8ff" stroke="#63b8ff" points="34.84,-27.1 41.71,-19.03 31.31,-21.05 34.84,-27.1"/>
</g>
<!-- Node8 -->
<g id="node8" class="node">
<title>Node8</title>
<g id="a_node8"><a xlink:title=" ">
<polygon fill="#e0e0e0" stroke="#999999" points="169.87,-19 128.87,-19 128.87,0 169.87,0 169.87,-19"/>
<text text-anchor="middle" x="149.37" y="-7" font-family="Helvetica,sans-Serif" font-size="10.00">string</text>
</a>
</g>
</g>
<!-- Node3&#45;&gt;Node8 -->
<g id="edge51" class="edge">
<title>Node3&#45;&gt;Node8</title>
<path fill="none" stroke="#63b8ff" d="M631.84,-221.48C628.65,-220.93 625.46,-220.43 622.37,-220 438.57,-194.37 383.79,-238.45 206.37,-184 110.51,-154.58 60.14,-160.48 9.37,-74 5.1,-66.72 4.39,-61.82 9.37,-55 22.36,-37.25 81.4,-23.22 118.54,-15.95"/>
<polygon fill="#63b8ff" stroke="#63b8ff" points="119.66,-19.3 128.83,-14 118.35,-12.42 119.66,-19.3"/>
</g>
<!-- Node9 -->
<g id="node9" class="node">
<title>Node9</title>
<g id="a_node9"><a xlink:title=" ">
<polygon fill="#e0e0e0" stroke="#999999" points="451.37,-19 407.37,-19 407.37,0 451.37,0 451.37,-19"/>
<text text-anchor="middle" x="429.37" y="-7" font-family="Helvetica,sans-Serif" font-size="10.00">vector</text>
</a>
</g>
</g>
<!-- Node3&#45;&gt;Node9 -->
<g id="edge52" class="edge">
<title>Node3&#45;&gt;Node9</title>
<path fill="none" stroke="#63b8ff" d="M643.2,-219.96C623.81,-212.21 595.92,-199.62 574.37,-184 512.76,-139.34 461.31,-62.82 439.96,-28.31"/>
<polygon fill="#63b8ff" stroke="#63b8ff" points="442.73,-26.12 434.54,-19.39 436.75,-29.75 442.73,-26.12"/>
</g>
<!-- Node12 -->
<g id="node12" class="node">
<title>Node12</title>
<g id="a_node12"><a xlink:href="Ioss__ElementTopology_8h.html" target="_top" xlink:title=" ">
<polygon fill="white" stroke="#666666" points="385.37,-184 263.37,-184 263.37,-165 385.37,-165 385.37,-184"/>
<text text-anchor="middle" x="324.37" y="-172" font-family="Helvetica,sans-Serif" font-size="10.00">Ioss_ElementTopology.h</text>
</a>
</g>
</g>
<!-- Node3&#45;&gt;Node12 -->
<g id="edge11" class="edge">
<title>Node3&#45;&gt;Node12</title>
<path fill="none" stroke="#63b8ff" d="M631.81,-221.68C628.63,-221.09 625.44,-220.53 622.37,-220 545.12,-206.78 456.22,-193.79 395.76,-185.29"/>
<polygon fill="#63b8ff" stroke="#63b8ff" points="395.95,-181.78 385.56,-183.86 394.98,-188.71 395.95,-181.78"/>
</g>
<!-- Node18 -->
<g id="node18" class="node">
<title>Node18</title>
<g id="a_node18"><a xlink:href="Ioss__EntityType_8h.html" target="_top" xlink:title=" ">
<polygon fill="white" stroke="#666666" points="498.87,-184 403.87,-184 403.87,-165 498.87,-165 498.87,-184"/>
<text text-anchor="middle" x="451.37" y="-172" font-family="Helvetica,sans-Serif" font-size="10.00">Ioss_EntityType.h</text>
</a>
</g>
</g>
<!-- Node3&#45;&gt;Node18 -->
<g id="edge24" class="edge">
<title>Node3&#45;&gt;Node18</title>
<path fill="none" stroke="#63b8ff" d="M631.83,-219.98C594.95,-210.89 536.39,-196.46 496.03,-186.51"/>
<polygon fill="#63b8ff" stroke="#63b8ff" points="496.74,-183.08 486.19,-184.08 495.06,-189.87 496.74,-183.08"/>
</g>
<!-- Node19 -->
<g id="node19" class="node">
<title>Node19</title>
<g id="a_node19"><a xlink:href="Ioss__Field_8h.html" target="_top" xlink:title=" ">
<polygon fill="white" stroke="#666666" points="600.37,-129 530.37,-129 530.37,-110 600.37,-110 600.37,-129"/>
<text text-anchor="middle" x="565.37" y="-117" font-family="Helvetica,sans-Serif" font-size="10.00">Ioss_Field.h</text>
</a>
</g>
</g>
<!-- Node3&#45;&gt;Node19 -->
<g id="edge25" class="edge">
<title>Node3&#45;&gt;Node19</title>
<path fill="none" stroke="#63b8ff" d="M642.97,-219.98C626.02,-212.74 603.67,-200.83 589.37,-184 578.53,-171.23 572.33,-153.05 568.96,-139.42"/>
<polygon fill="#63b8ff" stroke="#63b8ff" points="572.29,-138.28 566.75,-129.25 565.45,-139.77 572.29,-138.28"/>
</g>
<!-- Node20 -->
<g id="node20" class="node">
<title>Node20</title>
<g id="a_node20"><a xlink:href="Ioss__Property_8h.html" target="_top" xlink:title=" ">
<polygon fill="white" stroke="#666666" points="102.37,-74 18.37,-74 18.37,-55 102.37,-55 102.37,-74"/>
<text text-anchor="middle" x="60.37" y="-62" font-family="Helvetica,sans-Serif" font-size="10.00">Ioss_Property.h</text>
</a>
</g>
</g>
<!-- Node3&#45;&gt;Node20 -->
<g id="edge30" class="edge">
<title>Node3&#45;&gt;Node20</title>
<path fill="none" stroke="#63b8ff" d="M631.84,-221.51C628.65,-220.96 625.45,-220.45 622.37,-220 459.74,-196.39 410.22,-236.15 254.37,-184 183.56,-160.3 111.45,-106.9 78.64,-80.65"/>
<polygon fill="#63b8ff" stroke="#63b8ff" points="80.43,-77.6 70.46,-74.01 76.02,-83.03 80.43,-77.6"/>
</g>
<!-- Node21 -->
<g id="node21" class="node">
<title>Node21</title>
<g id="a_node21"><a xlink:href="Ioss__Sort_8h.html" target="_top" xlink:title=" ">
<polygon fill="white" stroke="#666666" points="784.87,-129 717.87,-129 717.87,-110 784.87,-110 784.87,-129"/>
<text text-anchor="middle" x="751.37" y="-117" font-family="Helvetica,sans-Serif" font-size="10.00">Ioss_Sort.h</text>
</a>
</g>
</g>
<!-- Node3&#45;&gt;Node21 -->
<g id="edge34" class="edge">
<title>Node3&#45;&gt;Node21</title>
<path fill="none" stroke="#63b8ff" d="M662.49,-219.94C657.24,-206.98 649.7,-182.1 660.37,-165 670.9,-148.13 689.88,-137.48 707.79,-130.85"/>
<polygon fill="#63b8ff" stroke="#63b8ff" points="709.21,-134.07 717.57,-127.57 706.98,-127.43 709.21,-134.07"/>
</g>
<!-- Node23 -->
<g id="node23" class="node">
<title>Node23</title>
<g id="a_node23"><a xlink:title=" ">
<polygon fill="#e0e0e0" stroke="#999999" points="1056.37,-19 1000.37,-19 1000.37,0 1056.37,0 1056.37,-19"/>
<text text-anchor="middle" x="1028.37" y="-7" font-family="Helvetica,sans-Serif" font-size="10.00">algorithm</text>
</a>
</g>
</g>
<!-- Node3&#45;&gt;Node23 -->
<g id="edge43" class="edge">
<title>Node3&#45;&gt;Node23</title>
<path fill="none" stroke="#63b8ff" d="M701.25,-228.14C745.97,-226.21 824.52,-217.77 881.37,-184 947.8,-144.55 998.56,-64.03 1018.8,-28.29"/>
<polygon fill="#63b8ff" stroke="#63b8ff" points="1022.11,-29.53 1023.89,-19.09 1015.98,-26.15 1022.11,-29.53"/>
</g>
<!-- Node3&#45;&gt;Node27 -->
<g id="edge44" class="edge">
<title>Node3&#45;&gt;Node27</title>
<path fill="none" stroke="#63b8ff" d="M701.17,-223.29C752.38,-215.5 851,-200 934.37,-184 935.82,-183.72 937.3,-183.43 938.78,-183.13"/>
<polygon fill="#63b8ff" stroke="#63b8ff" points="939.58,-186.54 948.66,-181.08 938.15,-179.69 939.58,-186.54"/>
</g>
<!-- Node28 -->
<g id="node28" class="node">
<title>Node28</title>
<g id="a_node28"><a xlink:title=" ">
<polygon fill="#e0e0e0" stroke="#999999" points="713.37,-184 669.37,-184 669.37,-165 713.37,-165 713.37,-184"/>
<text text-anchor="middle" x="691.37" y="-172" font-family="Helvetica,sans-Serif" font-size="10.00">cmath</text>
</a>
</g>
</g>
<!-- Node3&#45;&gt;Node28 -->
<g id="edge45" class="edge">
<title>Node3&#45;&gt;Node28</title>
<path fill="none" stroke="#63b8ff" d="M670.5,-219.75C673.89,-212.57 678.79,-202.18 682.99,-193.27"/>
<polygon fill="#63b8ff" stroke="#63b8ff" points="686.22,-194.63 687.32,-184.09 679.89,-191.64 686.22,-194.63"/>
</g>
<!-- Node29 -->
<g id="node29" class="node">
<title>Node29</title>
<g id="a_node29"><a xlink:title=" ">
<polygon fill="#e0e0e0" stroke="#999999" points="776.87,-184 731.87,-184 731.87,-165 776.87,-165 776.87,-184"/>
<text text-anchor="middle" x="754.37" y="-172" font-family="Helvetica,sans-Serif" font-size="10.00">cstdlib</text>
</a>
</g>
</g>
<!-- Node3&#45;&gt;Node29 -->
<g id="edge48" class="edge">
<title>Node3&#45;&gt;Node29</title>
<path fill="none" stroke="#63b8ff" d="M680.51,-219.98C694.16,-211.77 715.06,-199.18 731.15,-189.49"/>
<polygon fill="#63b8ff" stroke="#63b8ff" points="733.22,-192.33 739.98,-184.17 729.61,-186.33 733.22,-192.33"/>
</g>
<!-- Node3&#45;&gt;Node30 -->
<g id="edge49" class="edge">
<title>Node3&#45;&gt;Node30</title>
<path fill="none" stroke="#63b8ff" d="M700.92,-225.17C761.02,-219.12 888.84,-205.14 1006.42,-184"/>
<polygon fill="#63b8ff" stroke="#63b8ff" points="1007.1,-187.44 1016.31,-182.2 1005.85,-180.55 1007.1,-187.44"/>
</g>
<!-- Node31 -->
<g id="node31" class="node">
<title>Node31</title>
<g id="a_node31"><a xlink:title=" ">
<polygon fill="#e0e0e0" stroke="#999999" points="853.87,-184 794.87,-184 794.87,-165 853.87,-165 853.87,-184"/>
<text text-anchor="middle" x="824.37" y="-172" font-family="Helvetica,sans-Serif" font-size="10.00">stdexcept</text>
</a>
</g>
</g>
<!-- Node3&#45;&gt;Node31 -->
<g id="edge50" class="edge">
<title>Node3&#45;&gt;Node31</title>
<path fill="none" stroke="#63b8ff" d="M691.76,-219.98C718.17,-211.13 759.72,-197.19 789.27,-187.28"/>
<polygon fill="#63b8ff" stroke="#63b8ff" points="790.42,-190.58 798.79,-184.08 788.2,-183.94 790.42,-190.58"/>
</g>
<!-- Node5 -->
<g id="node5" class="node">
<title>Node5</title>
<g id="a_node5"><a xlink:title=" ">
<polygon fill="#e0e0e0" stroke="#999999" points="713.37,-19 675.37,-19 675.37,0 713.37,0 713.37,-19"/>
<text text-anchor="middle" x="694.37" y="-7" font-family="Helvetica,sans-Serif" font-size="10.00">array</text>
</a>
</g>
</g>
<!-- Node4&#45;&gt;Node5 -->
<g id="edge4" class="edge">
<title>Node4&#45;&gt;Node5</title>
<path fill="none" stroke="#63b8ff" d="M629.75,-54.98C641.46,-46.92 659.29,-34.65 673.26,-25.03"/>
<polygon fill="#63b8ff" stroke="#63b8ff" points="675.53,-27.72 681.78,-19.17 671.56,-21.96 675.53,-27.72"/>
</g>
<!-- Node4&#45;&gt;Node6 -->
<g id="edge5" class="edge">
<title>Node4&#45;&gt;Node6</title>
<path fill="none" stroke="#63b8ff" d="M639.71,-54.98C662.57,-46.27 698.33,-32.63 724.24,-22.75"/>
<polygon fill="#63b8ff" stroke="#63b8ff" points="725.54,-26 733.64,-19.17 723.04,-19.46 725.54,-26"/>
</g>
<!-- Node4&#45;&gt;Node7 -->
<g id="edge6" class="edge">
<title>Node4&#45;&gt;Node7</title>
<path fill="none" stroke="#63b8ff" d="M568.16,-59.99C478.67,-53.4 283.41,-38.13 119.37,-19 111.06,-18.03 102.12,-16.83 93.76,-15.63"/>
<polygon fill="#63b8ff" stroke="#63b8ff" points="94,-12.13 83.6,-14.14 92.98,-19.05 94,-12.13"/>
</g>
<!-- Node4&#45;&gt;Node8 -->
<g id="edge7" class="edge">
<title>Node4&#45;&gt;Node8</title>
<path fill="none" stroke="#63b8ff" d="M568.18,-57.93C471.57,-46.99 259.6,-22.98 180.21,-13.99"/>
<polygon fill="#63b8ff" stroke="#63b8ff" points="180.24,-10.47 169.91,-12.83 179.45,-17.43 180.24,-10.47"/>
</g>
<!-- Node4&#45;&gt;Node9 -->
<g id="edge8" class="edge">
<title>Node4&#45;&gt;Node9</title>
<path fill="none" stroke="#63b8ff" d="M587.17,-54.98C552.69,-45.26 496.52,-29.43 461.33,-19.51"/>
<polygon fill="#63b8ff" stroke="#63b8ff" points="462.13,-16.1 451.56,-16.75 460.23,-22.84 462.13,-16.1"/>
</g>
<!-- Node10 -->
<g id="node10" class="node">
<title>Node10</title>
<g id="a_node10"><a xlink:title=" ">
<polygon fill="#e0e0e0" stroke="#999999" points="585.37,-19 469.37,-19 469.37,0 585.37,0 585.37,-19"/>
<text text-anchor="middle" x="527.37" y="-7" font-family="Helvetica,sans-Serif" font-size="10.00">SEACASIoss_config.h</text>
</a>
</g>
</g>
<!-- Node4&#45;&gt;Node10 -->
<g id="edge9" class="edge">
<title>Node4&#45;&gt;Node10</title>
<path fill="none" stroke="#63b8ff" d="M602.91,-54.98C588.96,-46.77 567.58,-34.18 551.12,-24.49"/>
<polygon fill="#63b8ff" stroke="#63b8ff" points="552.49,-21.23 542.1,-19.17 548.94,-27.26 552.49,-21.23"/>
</g>
<!-- Node11 -->
<g id="node11" class="node">
<title>Node11</title>
<g id="a_node11"><a xlink:title=" ">
<polygon fill="#e0e0e0" stroke="#999999" points="656.87,-19 603.87,-19 603.87,0 656.87,0 656.87,-19"/>
<text text-anchor="middle" x="630.37" y="-7" font-family="Helvetica,sans-Serif" font-size="10.00">complex</text>
</a>
</g>
</g>
<!-- Node4&#45;&gt;Node11 -->
<g id="edge10" class="edge">
<title>Node4&#45;&gt;Node11</title>
<path fill="none" stroke="#63b8ff" d="M619.52,-54.75C621.24,-47.72 623.72,-37.62 625.88,-28.84"/>
<polygon fill="#63b8ff" stroke="#63b8ff" points="629.28,-29.63 628.27,-19.09 622.49,-27.97 629.28,-29.63"/>
</g>
<!-- Node12&#45;&gt;Node4 -->
<g id="edge12" class="edge">
<title>Node12&#45;&gt;Node4</title>
<path fill="none" stroke="#63b8ff" d="M385.46,-165.85C466.86,-155.39 601.61,-136.99 609.37,-129 620.61,-117.43 621.68,-98.55 620.49,-84.39"/>
<polygon fill="#63b8ff" stroke="#63b8ff" points="623.94,-83.74 619.21,-74.26 616.99,-84.62 623.94,-83.74"/>
</g>
<!-- Node12&#45;&gt;Node8 -->
<g id="edge22" class="edge">
<title>Node12&#45;&gt;Node8</title>
<path fill="none" stroke="#63b8ff" d="M281.47,-164.96C256.64,-158.36 225.94,-147.19 203.37,-129 171.8,-103.56 157.96,-55.59 152.5,-29.16"/>
<polygon fill="#63b8ff" stroke="#63b8ff" points="155.94,-28.46 150.65,-19.27 149.05,-29.75 155.94,-28.46"/>
</g>
<!-- Node12&#45;&gt;Node9 -->
<g id="edge23" class="edge">
<title>Node12&#45;&gt;Node9</title>
<path fill="none" stroke="#63b8ff" d="M337.38,-164.79C348.94,-156.58 365.76,-143.4 377.37,-129 402.21,-98.22 417.48,-53.74 424.59,-28.95"/>
<polygon fill="#63b8ff" stroke="#63b8ff" points="428.03,-29.64 427.29,-19.07 421.28,-27.79 428.03,-29.64"/>
</g>
<!-- Node13 -->
<g id="node13" class="node">
<title>Node13</title>
<g id="a_node13"><a xlink:href="Ioss__ElementPermutation_8h.html" target="_top" xlink:title=" ">
<polygon fill="white" stroke="#666666" points="349.87,-129 212.87,-129 212.87,-110 349.87,-110 349.87,-129"/>
<text text-anchor="middle" x="281.37" y="-117" font-family="Helvetica,sans-Serif" font-size="10.00">Ioss_ElementPermutation.h</text>
</a>
</g>
</g>
<!-- Node12&#45;&gt;Node13 -->
<g id="edge13" class="edge">
<title>Node12&#45;&gt;Node13</title>
<path fill="none" stroke="#63b8ff" d="M317.27,-164.75C311.2,-157.26 302.29,-146.28 294.86,-137.13"/>
<polygon fill="#63b8ff" stroke="#63b8ff" points="297.36,-134.65 288.34,-129.09 291.93,-139.06 297.36,-134.65"/>
</g>
<!-- Node16 -->
<g id="node16" class="node">
<title>Node16</title>
<g id="a_node16"><a xlink:title=" ">
<polygon fill="#e0e0e0" stroke="#999999" points="397.87,-74 362.87,-74 362.87,-55 397.87,-55 397.87,-74"/>
<text text-anchor="middle" x="380.37" y="-62" font-family="Helvetica,sans-Serif" font-size="10.00">map</text>
</a>
</g>
</g>
<!-- Node12&#45;&gt;Node16 -->
<g id="edge20" class="edge">
<title>Node12&#45;&gt;Node16</title>
<path fill="none" stroke="#63b8ff" d="M332.31,-164.88C339.86,-156.31 351.1,-142.53 358.37,-129 366.14,-114.55 372.01,-96.81 375.73,-83.76"/>
<polygon fill="#63b8ff" stroke="#63b8ff" points="379.12,-84.64 378.34,-74.08 372.36,-82.82 379.12,-84.64"/>
</g>
<!-- Node17 -->
<g id="node17" class="node">
<title>Node17</title>
<g id="a_node17"><a xlink:title=" ">
<polygon fill="#e0e0e0" stroke="#999999" points="474.37,-129 444.37,-129 444.37,-110 474.37,-110 474.37,-129"/>
<text text-anchor="middle" x="459.37" y="-117" font-family="Helvetica,sans-Serif" font-size="10.00">set</text>
</a>
</g>
</g>
<!-- Node12&#45;&gt;Node17 -->
<g id="edge21" class="edge">
<title>Node12&#45;&gt;Node17</title>
<path fill="none" stroke="#63b8ff" d="M346.06,-164.98C370.17,-155.52 409.04,-140.26 434.4,-130.31"/>
<polygon fill="#63b8ff" stroke="#63b8ff" points="436.01,-133.43 444.04,-126.52 433.45,-126.92 436.01,-133.43"/>
</g>
<!-- Node13&#45;&gt;Node4 -->
<g id="edge14" class="edge">
<title>Node13&#45;&gt;Node4</title>
<path fill="none" stroke="#63b8ff" d="M335.36,-109.98C396.25,-100.38 494.97,-84.81 557.99,-74.87"/>
<polygon fill="#63b8ff" stroke="#63b8ff" points="558.84,-78.28 568.17,-73.26 557.75,-71.36 558.84,-78.28"/>
</g>
<!-- Node13&#45;&gt;Node8 -->
<g id="edge18" class="edge">
<title>Node13&#45;&gt;Node8</title>
<path fill="none" stroke="#63b8ff" d="M252.92,-109.98C232.83,-102.87 206.23,-91.11 187.37,-74 173.58,-61.48 163.22,-42.76 156.83,-28.89"/>
<polygon fill="#63b8ff" stroke="#63b8ff" points="159.91,-27.2 152.72,-19.41 153.48,-29.98 159.91,-27.2"/>
</g>
<!-- Node13&#45;&gt;Node9 -->
<g id="edge19" class="edge">
<title>Node13&#45;&gt;Node9</title>
<path fill="none" stroke="#63b8ff" d="M290.22,-109.68C303.35,-96.83 329.07,-72.58 353.37,-55 369.48,-43.35 388.83,-32.05 403.98,-23.76"/>
<polygon fill="#63b8ff" stroke="#63b8ff" points="405.65,-26.83 412.79,-19.01 402.33,-20.67 405.65,-26.83"/>
</g>
<!-- Node14 -->
<g id="node14" class="node">
<title>Node14</title>
<g id="a_node14"><a xlink:title=" ">
<polygon fill="#e0e0e0" stroke="#999999" points="248.37,-74 196.37,-74 196.37,-55 248.37,-55 248.37,-74"/>
<text text-anchor="middle" x="222.37" y="-62" font-family="Helvetica,sans-Serif" font-size="10.00">assert.h</text>
</a>
</g>
</g>
<!-- Node13&#45;&gt;Node14 -->
<g id="edge15" class="edge">
<title>Node13&#45;&gt;Node14</title>
<path fill="none" stroke="#63b8ff" d="M271.9,-109.98C263.17,-102.15 250.03,-90.34 239.48,-80.86"/>
<polygon fill="#63b8ff" stroke="#63b8ff" points="241.8,-78.25 232.03,-74.17 237.13,-83.46 241.8,-78.25"/>
</g>
<!-- Node15 -->
<g id="node15" class="node">
<title>Node15</title>
<g id="a_node15"><a xlink:title=" ">
<polygon fill="#e0e0e0" stroke="#999999" points="306.37,-74 266.37,-74 266.37,-55 306.37,-55 306.37,-74"/>
<text text-anchor="middle" x="286.37" y="-62" font-family="Helvetica,sans-Serif" font-size="10.00">limits</text>
</a>
</g>
</g>
<!-- Node13&#45;&gt;Node15 -->
<g id="edge16" class="edge">
<title>Node13&#45;&gt;Node15</title>
<path fill="none" stroke="#63b8ff" d="M282.2,-109.75C282.86,-102.8 283.79,-92.85 284.62,-84.13"/>
<polygon fill="#63b8ff" stroke="#63b8ff" points="288.11,-84.37 285.56,-74.09 281.14,-83.72 288.11,-84.37"/>
</g>
<!-- Node13&#45;&gt;Node16 -->
<g id="edge17" class="edge">
<title>Node13&#45;&gt;Node16</title>
<path fill="none" stroke="#63b8ff" d="M297.28,-109.98C312.92,-101.61 337.03,-88.7 355.26,-78.95"/>
<polygon fill="#63b8ff" stroke="#63b8ff" points="357.02,-81.98 364.18,-74.17 353.71,-75.8 357.02,-81.98"/>
</g>
<!-- Node19&#45;&gt;Node4 -->
<g id="edge26" class="edge">
<title>Node19&#45;&gt;Node4</title>
<path fill="none" stroke="#63b8ff" d="M573.96,-109.75C581.53,-102.03 592.75,-90.6 601.89,-81.28"/>
<polygon fill="#63b8ff" stroke="#63b8ff" points="604.44,-83.68 608.95,-74.09 599.45,-78.78 604.44,-83.68"/>
</g>
<!-- Node19&#45;&gt;Node6 -->
<g id="edge27" class="edge">
<title>Node19&#45;&gt;Node6</title>
<path fill="none" stroke="#63b8ff" d="M592.58,-109.89C615.46,-102.1 648.63,-89.48 675.37,-74 699.12,-60.26 723.53,-40.15 739.25,-26.26"/>
<polygon fill="#63b8ff" stroke="#63b8ff" points="741.94,-28.55 747.04,-19.27 737.26,-23.35 741.94,-28.55"/>
</g>
<!-- Node19&#45;&gt;Node8 -->
<g id="edge28" class="edge">
<title>Node19&#45;&gt;Node8</title>
<path fill="none" stroke="#63b8ff" d="M547.21,-109.79C518.12,-96.18 459,-69.89 406.37,-55 326.37,-32.37 228.92,-19.31 180.21,-13.73"/>
<polygon fill="#63b8ff" stroke="#63b8ff" points="180.35,-10.23 170.02,-12.6 179.57,-17.18 180.35,-10.23"/>
</g>
<!-- Node19&#45;&gt;Node9 -->
<g id="edge29" class="edge">
<title>Node19&#45;&gt;Node9</title>
<path fill="none" stroke="#63b8ff" d="M560.35,-109.71C552.41,-96.46 535.87,-71.19 516.37,-55 499.86,-41.28 478.41,-30.25 460.94,-22.6"/>
<polygon fill="#63b8ff" stroke="#63b8ff" points="462.28,-19.37 451.7,-18.71 459.56,-25.82 462.28,-19.37"/>
</g>
<!-- Node20&#45;&gt;Node7 -->
<g id="edge31" class="edge">
<title>Node20&#45;&gt;Node7</title>
<path fill="none" stroke="#63b8ff" d="M60.37,-54.75C60.37,-47.8 60.37,-37.85 60.37,-29.13"/>
<polygon fill="#63b8ff" stroke="#63b8ff" points="63.87,-29.09 60.37,-19.09 56.87,-29.09 63.87,-29.09"/>
</g>
<!-- Node20&#45;&gt;Node8 -->
<g id="edge32" class="edge">
<title>Node20&#45;&gt;Node8</title>
<path fill="none" stroke="#63b8ff" d="M74.67,-54.98C88.48,-46.77 109.62,-34.18 125.89,-24.49"/>
<polygon fill="#63b8ff" stroke="#63b8ff" points="128.01,-27.29 134.82,-19.17 124.43,-21.28 128.01,-27.29"/>
</g>
<!-- Node20&#45;&gt;Node9 -->
<g id="edge33" class="edge">
<title>Node20&#45;&gt;Node9</title>
<path fill="none" stroke="#63b8ff" d="M102.7,-57.42C177.28,-46.71 330.47,-24.71 397.17,-15.13"/>
<polygon fill="#63b8ff" stroke="#63b8ff" points="397.7,-18.59 407.1,-13.7 396.71,-11.66 397.7,-18.59"/>
</g>
<!-- Node21&#45;&gt;Node6 -->
<g id="edge41" class="edge">
<title>Node21&#45;&gt;Node6</title>
<path fill="none" stroke="#63b8ff" d="M751.78,-109.66C752.59,-92.17 754.42,-52.8 755.51,-29.27"/>
<polygon fill="#63b8ff" stroke="#63b8ff" points="759.01,-29.31 755.97,-19.16 752.02,-28.99 759.01,-29.31"/>
</g>
<!-- Node21&#45;&gt;Node9 -->
<g id="edge42" class="edge">
<title>Node21&#45;&gt;Node9</title>
<path fill="none" stroke="#63b8ff" d="M743.95,-109.85C731.38,-95.83 704.43,-68.36 675.37,-55 590.27,-15.87 557.2,-38.23 461.72,-19.03"/>
<polygon fill="#63b8ff" stroke="#63b8ff" points="462.17,-15.55 451.66,-16.9 460.72,-22.4 462.17,-15.55"/>
</g>
<!-- Node22 -->
<g id="node22" class="node">
<title>Node22</title>
<g id="a_node22"><a xlink:href="pdqsort_8h.html" target="_top" xlink:title=" ">
<polygon fill="white" stroke="#666666" points="903.87,-74 846.87,-74 846.87,-55 903.87,-55 903.87,-74"/>
<text text-anchor="middle" x="875.37" y="-62" font-family="Helvetica,sans-Serif" font-size="10.00">pdqsort.h</text>
</a>
</g>
</g>
<!-- Node21&#45;&gt;Node22 -->
<g id="edge35" class="edge">
<title>Node21&#45;&gt;Node22</title>
<path fill="none" stroke="#63b8ff" d="M771.3,-109.98C791.42,-101.38 822.75,-87.99 845.78,-78.15"/>
<polygon fill="#63b8ff" stroke="#63b8ff" points="847.27,-81.32 855.09,-74.17 844.52,-74.88 847.27,-81.32"/>
</g>
<!-- Node22&#45;&gt;Node6 -->
<g id="edge37" class="edge">
<title>Node22&#45;&gt;Node6</title>
<path fill="none" stroke="#63b8ff" d="M856.26,-54.98C837.03,-46.42 807.14,-33.11 785.07,-23.28"/>
<polygon fill="#63b8ff" stroke="#63b8ff" points="786.4,-20.04 775.84,-19.17 783.55,-26.44 786.4,-20.04"/>
</g>
<!-- Node22&#45;&gt;Node23 -->
<g id="edge36" class="edge">
<title>Node22&#45;&gt;Node23</title>
<path fill="none" stroke="#63b8ff" d="M899.96,-54.98C925.42,-46.16 965.42,-32.31 994.01,-22.41"/>
<polygon fill="#63b8ff" stroke="#63b8ff" points="995.3,-25.66 1003.6,-19.08 993.01,-19.05 995.3,-25.66"/>
</g>
<!-- Node24 -->
<g id="node24" class="node">
<title>Node24</title>
<g id="a_node24"><a xlink:title=" ">
<polygon fill="#e0e0e0" stroke="#999999" points="981.87,-19 922.87,-19 922.87,0 981.87,0 981.87,-19"/>
<text text-anchor="middle" x="952.37" y="-7" font-family="Helvetica,sans-Serif" font-size="10.00">functional</text>
</a>
</g>
</g>
<!-- Node22&#45;&gt;Node24 -->
<g id="edge38" class="edge">
<title>Node22&#45;&gt;Node24</title>
<path fill="none" stroke="#63b8ff" d="M887.75,-54.98C899.46,-46.92 917.29,-34.65 931.26,-25.03"/>
<polygon fill="#63b8ff" stroke="#63b8ff" points="933.53,-27.72 939.78,-19.17 929.56,-21.96 933.53,-27.72"/>
</g>
<!-- Node25 -->
<g id="node25" class="node">
<title>Node25</title>
<g id="a_node25"><a xlink:title=" ">
<polygon fill="#e0e0e0" stroke="#999999" points="845.87,-19 798.87,-19 798.87,0 845.87,0 845.87,-19"/>
<text text-anchor="middle" x="822.37" y="-7" font-family="Helvetica,sans-Serif" font-size="10.00">iterator</text>
</a>
</g>
</g>
<!-- Node22&#45;&gt;Node25 -->
<g id="edge39" class="edge">
<title>Node22&#45;&gt;Node25</title>
<path fill="none" stroke="#63b8ff" d="M866.62,-54.75C858.9,-47.03 847.47,-35.6 838.16,-26.28"/>
<polygon fill="#63b8ff" stroke="#63b8ff" points="840.51,-23.69 830.96,-19.09 835.56,-28.64 840.51,-23.69"/>
</g>
<!-- Node26 -->
<g id="node26" class="node">
<title>Node26</title>
<g id="a_node26"><a xlink:title=" ">
<polygon fill="#e0e0e0" stroke="#999999" points="904.37,-19 864.37,-19 864.37,0 904.37,0 904.37,-19"/>
<text text-anchor="middle" x="884.37" y="-7" font-family="Helvetica,sans-Serif" font-size="10.00">utility</text>
</a>
</g>
</g>
<!-- Node22&#45;&gt;Node26 -->
<g id="edge40" class="edge">
<title>Node22&#45;&gt;Node26</title>
<path fill="none" stroke="#63b8ff" d="M876.86,-54.75C878.04,-47.8 879.73,-37.85 881.21,-29.13"/>
<polygon fill="#63b8ff" stroke="#63b8ff" points="884.69,-29.53 882.92,-19.09 877.79,-28.36 884.69,-29.53"/>
</g>
</g>
</svg>
