<?xml version="1.0" encoding="UTF-8" standalone="no"?>
<!DOCTYPE svg PUBLIC "-//W3C//DTD SVG 1.1//EN"
 "http://www.w3.org/Graphics/SVG/1.1/DTD/svg11.dtd">
<!-- Generated by graphviz version 3.0.0 (20220226.1711)
 -->
<!-- Title: src/Ioss_StructuredBlock.h Pages: 1 -->
<!--zoomable 229 -->
<svg id="main" version="1.1" xmlns="http://www.w3.org/2000/svg" xmlns:xlink="http://www.w3.org/1999/xlink" xml:space="preserve" onload="init(evt)">
<style type="text/css"><![CDATA[
.edge:hover path { stroke: red; }
.edge:hover polygon { stroke: red; fill: red; }
]]></style>
<script type="text/javascript"><![CDATA[
var edges = document.getElementsByTagName('g');
if (edges && edges.length) {
  for (var i=0;i<edges.length;i++) {
    if (edges[i].id.substr(0,4)=='edge') {
      edges[i].setAttribute('class','edge');
    }
  }
}
]]></script>
        <defs>
                <circle id="rim" cx="0" cy="0" r="7"/>
                <circle id="rim2" cx="0" cy="0" r="3.5"/>
                <g id="zoomPlus">
                        <use xlink:href="#rim" fill="#404040">
                                <set attributeName="fill" to="#808080" begin="zoomplus.mouseover" end="zoomplus.mouseout"/>
                        </use>
                        <path d="M-4,0h8M0,-4v8" fill="none" stroke="white" stroke-width="1.5" pointer-events="none"/>
                </g>
                <g id="zoomMin">
                        <use xlink:href="#rim" fill="#404040">
                                <set attributeName="fill" to="#808080" begin="zoomminus.mouseover" end="zoomminus.mouseout"/>
                        </use>
                        <path d="M-4,0h8" fill="none" stroke="white" stroke-width="1.5" pointer-events="none"/>
                </g>
                <g id="dirArrow">
                        <path fill="none" stroke="white" stroke-width="1.5" d="M0,-3.0v7 M-2.5,-0.5L0,-3.0L2.5,-0.5"/>
                </g>
               <g id="resetDef">
                       <use xlink:href="#rim2" fill="#404040">
                               <set attributeName="fill" to="#808080" begin="reset.mouseover" end="reset.mouseout"/>
                       </use>
               </g>
        </defs>

<script type="text/javascript">
var viewWidth = 2792;
var viewHeight = 229;
var sectionId = 'dynsection-1';
</script>
<script xlink:href="svgpan.js"/>
<svg id="graph" class="graph">
<g id="viewport">
<title>src/Ioss_StructuredBlock.h</title>
<polygon fill="white" stroke="transparent" points="-4,4 -4,-225 2787.5,-225 2787.5,4 -4,4"/>
<!-- Node1 -->
<g id="node1" class="node">
<title>Node1</title>
<g id="a_node1"><a xlink:title=" ">
<polygon fill="#bfbfbf" stroke="black" points="1815,-201.5 1815,-220.5 1950,-220.5 1950,-201.5 1815,-201.5"/>
<text text-anchor="middle" x="1882.5" y="-208.5" font-family="Helvetica,sans-Serif" font-size="10.00">src/Ioss_StructuredBlock.h</text>
</a>
</g>
</g>
<!-- Node2 -->
<g id="node2" class="node">
<title>Node2</title>
<g id="a_node2"><a xlink:href="Ioss__DatabaseIO_8C.html" target="_top" xlink:title=" ">
<polygon fill="white" stroke="black" points="551.5,-140 551.5,-159 671.5,-159 671.5,-140 551.5,-140"/>
<text text-anchor="middle" x="611.5" y="-147" font-family="Helvetica,sans-Serif" font-size="10.00">src/Ioss_DatabaseIO.C</text>
</a>
</g>
</g>
<!-- Node1&#45;&gt;Node2 -->
<g id="edge1" class="edge">
<title>Node1&#45;&gt;Node2</title>
<path fill="none" stroke="midnightblue" d="M1804.43,-208.81C1573.98,-205.02 899.17,-191.87 680.5,-165 669.32,-163.63 657.27,-161.37 646.41,-159.04"/>
<polygon fill="midnightblue" stroke="midnightblue" points="1804.68,-212.31 1814.74,-208.98 1804.79,-205.31 1804.68,-212.31"/>
</g>
<!-- Node3 -->
<g id="node3" class="node">
<title>Node3</title>
<g id="a_node3"><a xlink:href="Ioss__Region_8C.html" target="_top" xlink:title=" ">
<polygon fill="white" stroke="black" points="689.5,-140 689.5,-159 787.5,-159 787.5,-140 689.5,-140"/>
<text text-anchor="middle" x="738.5" y="-147" font-family="Helvetica,sans-Serif" font-size="10.00">src/Ioss_Region.C</text>
</a>
</g>
</g>
<!-- Node1&#45;&gt;Node3 -->
<g id="edge2" class="edge">
<title>Node1&#45;&gt;Node3</title>
<path fill="none" stroke="midnightblue" d="M1804.58,-208.83C1589.62,-205.28 991.29,-193.09 796.5,-165 787.05,-163.64 776.9,-161.38 767.78,-159.05"/>
<polygon fill="midnightblue" stroke="midnightblue" points="1804.77,-212.33 1814.83,-209 1804.89,-205.34 1804.77,-212.33"/>
</g>
<!-- Node4 -->
<g id="node4" class="node">
<title>Node4</title>
<g id="a_node4"><a xlink:href="Ioss__StructuredBlock_8C.html" target="_top" xlink:title=" ">
<polygon fill="white" stroke="black" points="806,-140 806,-159 943,-159 943,-140 806,-140"/>
<text text-anchor="middle" x="874.5" y="-147" font-family="Helvetica,sans-Serif" font-size="10.00">src/Ioss_StructuredBlock.C</text>
</a>
</g>
</g>
<!-- Node1&#45;&gt;Node4 -->
<g id="edge3" class="edge">
<title>Node1&#45;&gt;Node4</title>
<path fill="none" stroke="midnightblue" d="M1804.62,-209.79C1644.49,-208.57 1266.92,-201.66 952.5,-165 940.19,-163.56 926.89,-161.35 914.83,-159.07"/>
<polygon fill="midnightblue" stroke="midnightblue" points="1804.83,-213.29 1814.85,-209.86 1804.88,-206.29 1804.83,-213.29"/>
</g>
<!-- Node5 -->
<g id="node5" class="node">
<title>Node5</title>
<g id="a_node5"><a xlink:href="Ioss__SubSystem_8h.html" target="_top" xlink:title=" ">
<polygon fill="white" stroke="black" points="961.5,-140 961.5,-159 1077.5,-159 1077.5,-140 961.5,-140"/>
<text text-anchor="middle" x="1019.5" y="-147" font-family="Helvetica,sans-Serif" font-size="10.00">src/Ioss_SubSystem.h</text>
</a>
</g>
</g>
<!-- Node1&#45;&gt;Node5 -->
<g id="edge4" class="edge">
<title>Node1&#45;&gt;Node5</title>
<path fill="none" stroke="midnightblue" d="M1804.6,-204.63C1633.63,-192.84 1228.75,-164.93 1077.67,-154.51"/>
<polygon fill="midnightblue" stroke="midnightblue" points="1804.56,-208.13 1814.78,-205.33 1805.05,-201.15 1804.56,-208.13"/>
</g>
<!-- Node17 -->
<g id="node17" class="node">
<title>Node17</title>
<g id="a_node17"><a xlink:href="Iocatalyst__DatabaseIO_8C.html" target="_top" xlink:title=" ">
<polygon fill="white" stroke="black" points="1333,-134.5 1333,-164.5 1446,-164.5 1446,-134.5 1333,-134.5"/>
<text text-anchor="start" x="1341" y="-152.5" font-family="Helvetica,sans-Serif" font-size="10.00">src/catalyst/Iocatalyst</text>
<text text-anchor="middle" x="1389.5" y="-141.5" font-family="Helvetica,sans-Serif" font-size="10.00">_DatabaseIO.C</text>
</a>
</g>
</g>
<!-- Node1&#45;&gt;Node17 -->
<g id="edge16" class="edge">
<title>Node1&#45;&gt;Node17</title>
<path fill="none" stroke="midnightblue" d="M1804.71,-204.42C1718.86,-197.65 1576.77,-184.65 1455.5,-165 1452.49,-164.51 1449.41,-163.97 1446.3,-163.4"/>
<polygon fill="midnightblue" stroke="midnightblue" points="1804.65,-207.92 1814.89,-205.21 1805.19,-200.94 1804.65,-207.92"/>
</g>
<!-- Node18 -->
<g id="node18" class="node">
<title>Node18</title>
<g id="a_node18"><a xlink:href="Iocgns__StructuredZoneData_8h.html" target="_top" xlink:title=" ">
<polygon fill="white" stroke="black" points="1814,-134.5 1814,-164.5 1951,-164.5 1951,-134.5 1814,-134.5"/>
<text text-anchor="start" x="1822" y="-152.5" font-family="Helvetica,sans-Serif" font-size="10.00">src/cgns/Iocgns_Structured</text>
<text text-anchor="middle" x="1882.5" y="-141.5" font-family="Helvetica,sans-Serif" font-size="10.00">ZoneData.h</text>
</a>
</g>
</g>
<!-- Node1&#45;&gt;Node18 -->
<g id="edge17" class="edge">
<title>Node1&#45;&gt;Node18</title>
<path fill="none" stroke="midnightblue" d="M1882.5,-191.23C1882.5,-182.59 1882.5,-172.5 1882.5,-164.52"/>
<polygon fill="midnightblue" stroke="midnightblue" points="1879,-191.48 1882.5,-201.48 1886,-191.48 1879,-191.48"/>
</g>
<!-- Node20 -->
<g id="node20" class="node">
<title>Node20</title>
<g id="a_node20"><a xlink:href="Iocgns__Utils_8C.html" target="_top" xlink:title=" ">
<polygon fill="white" stroke="black" points="2251.5,-73 2251.5,-92 2373.5,-92 2373.5,-73 2251.5,-73"/>
<text text-anchor="middle" x="2312.5" y="-80" font-family="Helvetica,sans-Serif" font-size="10.00">src/cgns/Iocgns_Utils.C</text>
</a>
</g>
</g>
<!-- Node1&#45;&gt;Node20 -->
<g id="edge26" class="edge">
<title>Node1&#45;&gt;Node20</title>
<path fill="none" stroke="midnightblue" d="M1907.73,-196.46C1923.04,-187.94 1942.78,-176.44 1959.5,-165 1977.77,-152.49 1978.19,-142.81 1998.5,-134 2098.66,-90.55 2133.97,-116.93 2241.5,-98 2251.66,-96.21 2262.6,-94.08 2272.77,-92.01"/>
<polygon fill="midnightblue" stroke="midnightblue" points="1905.92,-193.46 1898.84,-201.34 1909.29,-199.59 1905.92,-193.46"/>
</g>
<!-- Node26 -->
<g id="node26" class="node">
<title>Node26</title>
<g id="a_node26"><a xlink:href="Iocgns__Utils_8h.html" target="_top" xlink:title=" ">
<polygon fill="white" stroke="black" points="1675.5,-140 1675.5,-159 1795.5,-159 1795.5,-140 1675.5,-140"/>
<text text-anchor="middle" x="1735.5" y="-147" font-family="Helvetica,sans-Serif" font-size="10.00">src/cgns/Iocgns_Utils.h</text>
</a>
</g>
</g>
<!-- Node1&#45;&gt;Node26 -->
<g id="edge27" class="edge">
<title>Node1&#45;&gt;Node26</title>
<path fill="none" stroke="midnightblue" d="M1851.94,-197.63C1823.38,-186.07 1781.5,-169.12 1756.52,-159.01"/>
<polygon fill="midnightblue" stroke="midnightblue" points="1850.86,-200.97 1861.44,-201.48 1853.48,-194.48 1850.86,-200.97"/>
</g>
<!-- Node28 -->
<g id="node28" class="node">
<title>Node28</title>
<g id="a_node28"><a xlink:href="Iofaodel__FieldSerialization_8h.html" target="_top" xlink:title=" ">
<polygon fill="white" stroke="black" points="1464.5,-134.5 1464.5,-164.5 1568.5,-164.5 1568.5,-134.5 1464.5,-134.5"/>
<text text-anchor="start" x="1472.5" y="-152.5" font-family="Helvetica,sans-Serif" font-size="10.00">src/faodel/Iofaodel</text>
<text text-anchor="middle" x="1516.5" y="-141.5" font-family="Helvetica,sans-Serif" font-size="10.00">_FieldSerialization.h</text>
</a>
</g>
</g>
<!-- Node1&#45;&gt;Node28 -->
<g id="edge34" class="edge">
<title>Node1&#45;&gt;Node28</title>
<path fill="none" stroke="midnightblue" d="M1819.93,-199.83C1749.03,-188.3 1634.77,-169.73 1568.55,-158.96"/>
<polygon fill="midnightblue" stroke="midnightblue" points="1819.63,-203.33 1830.06,-201.48 1820.75,-196.42 1819.63,-203.33"/>
</g>
<!-- Node30 -->
<g id="node30" class="node">
<title>Node30</title>
<g id="a_node30"><a xlink:href="Iofaodel__PropertySerialization_8C.html" target="_top" xlink:title=" ">
<polygon fill="white" stroke="black" points="2007.5,-134.5 2007.5,-164.5 2129.5,-164.5 2129.5,-134.5 2007.5,-134.5"/>
<text text-anchor="start" x="2015.5" y="-152.5" font-family="Helvetica,sans-Serif" font-size="10.00">src/faodel/Iofaodel</text>
<text text-anchor="middle" x="2068.5" y="-141.5" font-family="Helvetica,sans-Serif" font-size="10.00">_PropertySerialization.C</text>
</a>
</g>
</g>
<!-- Node1&#45;&gt;Node30 -->
<g id="edge37" class="edge">
<title>Node1&#45;&gt;Node30</title>
<path fill="none" stroke="midnightblue" d="M1918.9,-198.36C1949.2,-188.66 1992.45,-174.83 2024.66,-164.52"/>
<polygon fill="midnightblue" stroke="midnightblue" points="1917.61,-195.09 1909.15,-201.48 1919.74,-201.76 1917.61,-195.09"/>
</g>
<!-- Node31 -->
<g id="node31" class="node">
<title>Node31</title>
<g id="a_node31"><a xlink:href="Iofaodel__Utils_8C.html" target="_top" xlink:title=" ">
<polygon fill="white" stroke="black" points="2148,-134.5 2148,-164.5 2245,-164.5 2245,-134.5 2148,-134.5"/>
<text text-anchor="start" x="2156" y="-152.5" font-family="Helvetica,sans-Serif" font-size="10.00">src/faodel/Iofaodel</text>
<text text-anchor="middle" x="2196.5" y="-141.5" font-family="Helvetica,sans-Serif" font-size="10.00">_Utils.C</text>
</a>
</g>
</g>
<!-- Node1&#45;&gt;Node31 -->
<g id="edge38" class="edge">
<title>Node1&#45;&gt;Node31</title>
<path fill="none" stroke="midnightblue" d="M1947.72,-199.85C1999.6,-191.45 2073.95,-178.72 2138.5,-165 2141.55,-164.35 2144.67,-163.66 2147.82,-162.94"/>
<polygon fill="midnightblue" stroke="midnightblue" points="1946.97,-196.42 1937.65,-201.47 1948.08,-203.33 1946.97,-196.42"/>
</g>
<!-- Node32 -->
<g id="node32" class="node">
<title>Node32</title>
<g id="a_node32"><a xlink:href="Iogs__DatabaseIO_8C.html" target="_top" xlink:title=" ">
<polygon fill="white" stroke="black" points="2263.5,-134.5 2263.5,-164.5 2361.5,-164.5 2361.5,-134.5 2263.5,-134.5"/>
<text text-anchor="start" x="2271.5" y="-152.5" font-family="Helvetica,sans-Serif" font-size="10.00">src/gen_struc/Iogs</text>
<text text-anchor="middle" x="2312.5" y="-141.5" font-family="Helvetica,sans-Serif" font-size="10.00">_DatabaseIO.C</text>
</a>
</g>
</g>
<!-- Node1&#45;&gt;Node32 -->
<g id="edge39" class="edge">
<title>Node1&#45;&gt;Node32</title>
<path fill="none" stroke="midnightblue" d="M1960.58,-203.28C2035.94,-196.15 2153.07,-183.36 2253.5,-165 2256.72,-164.41 2260.02,-163.75 2263.34,-163.05"/>
<polygon fill="midnightblue" stroke="midnightblue" points="1959.86,-199.84 1950.23,-204.25 1960.51,-206.8 1959.86,-199.84"/>
</g>
<!-- Node33 -->
<g id="node33" class="node">
<title>Node33</title>
<g id="a_node33"><a xlink:href="io__info_8h.html" target="_top" xlink:title=" ">
<polygon fill="white" stroke="black" points="2379.5,-140 2379.5,-159 2473.5,-159 2473.5,-140 2379.5,-140"/>
<text text-anchor="middle" x="2426.5" y="-147" font-family="Helvetica,sans-Serif" font-size="10.00">src/main/io_info.h</text>
</a>
</g>
</g>
<!-- Node1&#45;&gt;Node33 -->
<g id="edge40" class="edge">
<title>Node1&#45;&gt;Node33</title>
<path fill="none" stroke="midnightblue" d="M1960.33,-206.7C2057.07,-201.71 2226.96,-190.03 2370.5,-165 2379.31,-163.46 2388.76,-161.24 2397.34,-159"/>
<polygon fill="midnightblue" stroke="midnightblue" points="1959.86,-203.22 1950.05,-207.22 1960.21,-210.21 1959.86,-203.22"/>
</g>
<!-- Node36 -->
<g id="node36" class="node">
<title>Node36</title>
<g id="a_node36"><a xlink:href="io__modify_8C.html" target="_top" xlink:title=" ">
<polygon fill="white" stroke="black" points="2491.5,-140 2491.5,-159 2599.5,-159 2599.5,-140 2491.5,-140"/>
<text text-anchor="middle" x="2545.5" y="-147" font-family="Helvetica,sans-Serif" font-size="10.00">src/main/io_modify.C</text>
</a>
</g>
</g>
<!-- Node1&#45;&gt;Node36 -->
<g id="edge43" class="edge">
<title>Node1&#45;&gt;Node36</title>
<path fill="none" stroke="midnightblue" d="M1960.47,-207.92C2075.33,-204 2296.53,-193.21 2482.5,-165 2492.38,-163.5 2503,-161.29 2512.66,-159.05"/>
<polygon fill="midnightblue" stroke="midnightblue" points="1960.24,-204.42 1950.36,-208.25 1960.47,-211.42 1960.24,-204.42"/>
</g>
<!-- Node37 -->
<g id="node37" class="node">
<title>Node37</title>
<g id="a_node37"><a xlink:href="Iovs__cgns__DatabaseIO_8C.html" target="_top" xlink:title=" ">
<polygon fill="white" stroke="black" points="2618,-134.5 2618,-164.5 2751,-164.5 2751,-134.5 2618,-134.5"/>
<text text-anchor="start" x="2626" y="-152.5" font-family="Helvetica,sans-Serif" font-size="10.00">src/visualization/cgns</text>
<text text-anchor="middle" x="2684.5" y="-141.5" font-family="Helvetica,sans-Serif" font-size="10.00">/Iovs_cgns_DatabaseIO.C</text>
</a>
</g>
</g>
<!-- Node1&#45;&gt;Node37 -->
<g id="edge44" class="edge">
<title>Node1&#45;&gt;Node37</title>
<path fill="none" stroke="midnightblue" d="M1960.18,-208.41C2093.35,-204.96 2373.58,-194.57 2608.5,-165 2611.57,-164.61 2614.69,-164.18 2617.85,-163.71"/>
<polygon fill="midnightblue" stroke="midnightblue" points="1959.99,-204.91 1950.08,-208.67 1960.16,-211.91 1959.99,-204.91"/>
</g>
<!-- Node6 -->
<g id="node6" class="node">
<title>Node6</title>
<g id="a_node6"><a xlink:href="Ioss__Compare_8C.html" target="_top" xlink:title=" ">
<polygon fill="white" stroke="black" points="589,-73 589,-92 696,-92 696,-73 589,-73"/>
<text text-anchor="middle" x="642.5" y="-80" font-family="Helvetica,sans-Serif" font-size="10.00">src/Ioss_Compare.C</text>
</a>
</g>
</g>
<!-- Node5&#45;&gt;Node6 -->
<g id="edge5" class="edge">
<title>Node5&#45;&gt;Node6</title>
<path fill="none" stroke="midnightblue" d="M971.22,-137.8C964.6,-136.45 957.89,-135.15 951.5,-134 842.3,-114.42 813.5,-118.65 704.5,-98 695.38,-96.27 685.57,-94.12 676.5,-92"/>
<polygon fill="midnightblue" stroke="midnightblue" points="970.96,-141.32 981.46,-139.93 972.39,-134.47 970.96,-141.32"/>
</g>
<!-- Node7 -->
<g id="node7" class="node">
<title>Node7</title>
<g id="a_node7"><a xlink:href="Ioss__CopyDatabase_8C.html" target="_top" xlink:title=" ">
<polygon fill="white" stroke="black" points="714,-73 714,-92 847,-92 847,-73 714,-73"/>
<text text-anchor="middle" x="780.5" y="-80" font-family="Helvetica,sans-Serif" font-size="10.00">src/Ioss_CopyDatabase.C</text>
</a>
</g>
</g>
<!-- Node5&#45;&gt;Node7 -->
<g id="edge6" class="edge">
<title>Node5&#45;&gt;Node7</title>
<path fill="none" stroke="midnightblue" d="M977.85,-137.17C930.59,-124.32 854.56,-103.64 811.99,-92.06"/>
<polygon fill="midnightblue" stroke="midnightblue" points="977.19,-140.62 987.76,-139.87 979.03,-133.87 977.19,-140.62"/>
</g>
<!-- Node8 -->
<g id="node8" class="node">
<title>Node8</title>
<g id="a_node8"><a xlink:href="Ioss__Utils_8C.html" target="_top" xlink:title=" ">
<polygon fill="white" stroke="black" points="865.5,-73 865.5,-92 953.5,-92 953.5,-73 865.5,-73"/>
<text text-anchor="middle" x="909.5" y="-80" font-family="Helvetica,sans-Serif" font-size="10.00">src/Ioss_Utils.C</text>
</a>
</g>
</g>
<!-- Node5&#45;&gt;Node8 -->
<g id="edge7" class="edge">
<title>Node5&#45;&gt;Node8</title>
<path fill="none" stroke="midnightblue" d="M996,-134.62C974.21,-121.74 942.46,-102.98 924.1,-92.13"/>
<polygon fill="midnightblue" stroke="midnightblue" points="994.28,-137.66 1004.66,-139.73 997.84,-131.63 994.28,-137.66"/>
</g>
<!-- Node9 -->
<g id="node9" class="node">
<title>Node9</title>
<g id="a_node9"><a xlink:href="Ut__ioad_8C.html" target="_top" xlink:title=" ">
<polygon fill="white" stroke="black" points="972,-67.5 972,-97.5 1067,-97.5 1067,-67.5 972,-67.5"/>
<text text-anchor="start" x="980" y="-85.5" font-family="Helvetica,sans-Serif" font-size="10.00">src/adios/utest/Ut</text>
<text text-anchor="middle" x="1019.5" y="-74.5" font-family="Helvetica,sans-Serif" font-size="10.00">_ioad.C</text>
</a>
</g>
</g>
<!-- Node5&#45;&gt;Node9 -->
<g id="edge8" class="edge">
<title>Node5&#45;&gt;Node9</title>
<path fill="none" stroke="midnightblue" d="M1019.5,-129.41C1019.5,-119.22 1019.5,-106.9 1019.5,-97.59"/>
<polygon fill="midnightblue" stroke="midnightblue" points="1016,-129.73 1019.5,-139.73 1023,-129.73 1016,-129.73"/>
</g>
<!-- Node10 -->
<g id="node10" class="node">
<title>Node10</title>
<g id="a_node10"><a xlink:href="Iocgns__DatabaseIO_8C.html" target="_top" xlink:title=" ">
<polygon fill="white" stroke="black" points="1200,-73 1200,-92 1355,-92 1355,-73 1200,-73"/>
<text text-anchor="middle" x="1277.5" y="-80" font-family="Helvetica,sans-Serif" font-size="10.00">src/cgns/Iocgns_DatabaseIO.C</text>
</a>
</g>
</g>
<!-- Node5&#45;&gt;Node10 -->
<g id="edge9" class="edge">
<title>Node5&#45;&gt;Node10</title>
<path fill="none" stroke="midnightblue" d="M1063.22,-137.48C1114.12,-124.66 1197.08,-103.76 1243.43,-92.08"/>
<polygon fill="midnightblue" stroke="midnightblue" points="1062.34,-134.1 1053.49,-139.94 1064.05,-140.89 1062.34,-134.1"/>
</g>
<!-- Node11 -->
<g id="node11" class="node">
<title>Node11</title>
<g id="a_node11"><a xlink:href="Iofaodel__DatabaseIO_8C.html" target="_top" xlink:title=" ">
<polygon fill="white" stroke="black" points="1085,-67.5 1085,-97.5 1182,-97.5 1182,-67.5 1085,-67.5"/>
<text text-anchor="start" x="1093" y="-85.5" font-family="Helvetica,sans-Serif" font-size="10.00">src/faodel/Iofaodel</text>
<text text-anchor="middle" x="1133.5" y="-74.5" font-family="Helvetica,sans-Serif" font-size="10.00">_DatabaseIO.C</text>
</a>
</g>
</g>
<!-- Node5&#45;&gt;Node11 -->
<g id="edge10" class="edge">
<title>Node5&#45;&gt;Node11</title>
<path fill="none" stroke="midnightblue" d="M1043.61,-134.75C1062.77,-123.83 1089.47,-108.6 1108.79,-97.59"/>
<polygon fill="midnightblue" stroke="midnightblue" points="1041.83,-131.74 1034.87,-139.73 1045.3,-137.82 1041.83,-131.74"/>
</g>
<!-- Node12 -->
<g id="node12" class="node">
<title>Node12</title>
<g id="a_node12"><a xlink:href="io__shell_8C.html" target="_top" xlink:title=" ">
<polygon fill="white" stroke="black" points="0,-73 0,-92 101,-92 101,-73 0,-73"/>
<text text-anchor="middle" x="50.5" y="-80" font-family="Helvetica,sans-Serif" font-size="10.00">src/main/io_shell.C</text>
</a>
</g>
</g>
<!-- Node5&#45;&gt;Node12 -->
<g id="edge11" class="edge">
<title>Node5&#45;&gt;Node12</title>
<path fill="none" stroke="midnightblue" d="M975.05,-137.91C967.24,-136.37 959.16,-134.97 951.5,-134 580.37,-86.82 480.96,-150.19 110.5,-98 100.74,-96.62 90.24,-94.37 80.8,-92.03"/>
<polygon fill="midnightblue" stroke="midnightblue" points="974.6,-141.39 985.1,-140 976.02,-134.53 974.6,-141.39"/>
</g>
<!-- Node13 -->
<g id="node13" class="node">
<title>Node13</title>
<g id="a_node13"><a xlink:href="io__shell__ts_8C.html" target="_top" xlink:title=" ">
<polygon fill="white" stroke="black" points="119.5,-73 119.5,-92 233.5,-92 233.5,-73 119.5,-73"/>
<text text-anchor="middle" x="176.5" y="-80" font-family="Helvetica,sans-Serif" font-size="10.00">src/main/io_shell_ts.C</text>
</a>
</g>
</g>
<!-- Node5&#45;&gt;Node13 -->
<g id="edge12" class="edge">
<title>Node5&#45;&gt;Node13</title>
<path fill="none" stroke="midnightblue" d="M974.78,-137.91C967.06,-136.38 959.07,-134.99 951.5,-134 638.66,-92.97 555.21,-140 242.5,-98 231.92,-96.58 220.52,-94.34 210.22,-92.04"/>
<polygon fill="midnightblue" stroke="midnightblue" points="974.24,-141.37 984.74,-139.97 975.66,-134.52 974.24,-141.37"/>
</g>
<!-- Node14 -->
<g id="node14" class="node">
<title>Node14</title>
<g id="a_node14"><a xlink:href="struc__to__unstruc_8C.html" target="_top" xlink:title=" ">
<polygon fill="white" stroke="black" points="1660.5,-73 1660.5,-92 1800.5,-92 1800.5,-73 1660.5,-73"/>
<text text-anchor="middle" x="1730.5" y="-80" font-family="Helvetica,sans-Serif" font-size="10.00">src/main/struc_to_unstruc.C</text>
</a>
</g>
</g>
<!-- Node5&#45;&gt;Node14 -->
<g id="edge13" class="edge">
<title>Node5&#45;&gt;Node14</title>
<path fill="none" stroke="midnightblue" d="M1087.82,-145.32C1203.99,-139.42 1447.31,-124.83 1651.5,-98 1663.53,-96.42 1676.51,-94.24 1688.4,-92.05"/>
<polygon fill="midnightblue" stroke="midnightblue" points="1087.46,-141.84 1077.65,-145.84 1087.82,-148.83 1087.46,-141.84"/>
</g>
<!-- Node15 -->
<g id="node15" class="node">
<title>Node15</title>
<g id="a_node15"><a xlink:href="Iopg__DatabaseIO_8C.html" target="_top" xlink:title=" ">
<polygon fill="white" stroke="black" points="251.5,-73 251.5,-92 409.5,-92 409.5,-73 251.5,-73"/>
<text text-anchor="middle" x="330.5" y="-80" font-family="Helvetica,sans-Serif" font-size="10.00">src/pamgen/Iopg_DatabaseIO.C</text>
</a>
</g>
</g>
<!-- Node5&#45;&gt;Node15 -->
<g id="edge14" class="edge">
<title>Node5&#45;&gt;Node15</title>
<path fill="none" stroke="midnightblue" d="M974.01,-137.86C966.52,-136.38 958.81,-135.02 951.5,-134 716.35,-101.16 654.35,-125.33 418.5,-98 404.96,-96.43 390.34,-94.23 376.97,-92.01"/>
<polygon fill="midnightblue" stroke="midnightblue" points="973.52,-141.34 984.03,-139.94 974.94,-134.48 973.52,-141.34"/>
</g>
<!-- Node16 -->
<g id="node16" class="node">
<title>Node16</title>
<g id="a_node16"><a xlink:href="Iovs__exodus__DatabaseIO_8C.html" target="_top" xlink:title=" ">
<polygon fill="white" stroke="black" points="428,-67.5 428,-97.5 571,-97.5 571,-67.5 428,-67.5"/>
<text text-anchor="start" x="436" y="-85.5" font-family="Helvetica,sans-Serif" font-size="10.00">src/visualization/exodus</text>
<text text-anchor="middle" x="499.5" y="-74.5" font-family="Helvetica,sans-Serif" font-size="10.00">/Iovs_exodus_DatabaseIO.C</text>
</a>
</g>
</g>
<!-- Node5&#45;&gt;Node16 -->
<g id="edge15" class="edge">
<title>Node5&#45;&gt;Node16</title>
<path fill="none" stroke="midnightblue" d="M973.47,-137.95C966.15,-136.48 958.64,-135.1 951.5,-134 787.34,-108.64 744.03,-120.83 579.5,-98 576.84,-97.63 574.14,-97.24 571.41,-96.82"/>
<polygon fill="midnightblue" stroke="midnightblue" points="972.79,-141.38 983.29,-139.98 974.21,-134.53 972.79,-141.38"/>
</g>
<!-- Node18&#45;&gt;Node14 -->
<g id="edge21" class="edge">
<title>Node18&#45;&gt;Node14</title>
<path fill="none" stroke="midnightblue" d="M1840.31,-130.46C1810.94,-117.9 1773.12,-101.72 1750.39,-92.01"/>
<polygon fill="midnightblue" stroke="midnightblue" points="1838.95,-133.68 1849.52,-134.4 1841.7,-127.25 1838.95,-133.68"/>
</g>
<!-- Node19 -->
<g id="node19" class="node">
<title>Node19</title>
<g id="a_node19"><a xlink:href="Iocgns__StructuredZoneData_8C.html" target="_top" xlink:title=" ">
<polygon fill="white" stroke="black" points="2392,-67.5 2392,-97.5 2529,-97.5 2529,-67.5 2392,-67.5"/>
<text text-anchor="start" x="2400" y="-85.5" font-family="Helvetica,sans-Serif" font-size="10.00">src/cgns/Iocgns_Structured</text>
<text text-anchor="middle" x="2460.5" y="-74.5" font-family="Helvetica,sans-Serif" font-size="10.00">ZoneData.C</text>
</a>
</g>
</g>
<!-- Node18&#45;&gt;Node19 -->
<g id="edge18" class="edge">
<title>Node18&#45;&gt;Node19</title>
<path fill="none" stroke="midnightblue" d="M1961.1,-138.34C1973.61,-136.82 1986.4,-135.32 1998.5,-134 2168.9,-115.37 2212.73,-121.69 2382.5,-98 2385.5,-97.58 2388.56,-97.13 2391.65,-96.65"/>
<polygon fill="midnightblue" stroke="midnightblue" points="1960.66,-134.87 1951.16,-139.56 1961.51,-141.82 1960.66,-134.87"/>
</g>
<!-- Node18&#45;&gt;Node20 -->
<g id="edge19" class="edge">
<title>Node18&#45;&gt;Node20</title>
<path fill="none" stroke="midnightblue" d="M1961.56,-134.61C1962.89,-134.4 1964.2,-134.2 1965.5,-134 2087.79,-115.35 2119.49,-118.39 2241.5,-98 2251.8,-96.28 2262.88,-94.15 2273.16,-92.06"/>
<polygon fill="midnightblue" stroke="midnightblue" points="1960.63,-131.21 1951.3,-136.24 1961.73,-138.12 1960.63,-131.21"/>
</g>
<!-- Node21 -->
<g id="node21" class="node">
<title>Node21</title>
<g id="a_node21"><a xlink:href="cgns__decomp_8C.html" target="_top" xlink:title=" ">
<polygon fill="white" stroke="black" points="1818.5,-73 1818.5,-92 1946.5,-92 1946.5,-73 1818.5,-73"/>
<text text-anchor="middle" x="1882.5" y="-80" font-family="Helvetica,sans-Serif" font-size="10.00">src/main/cgns_decomp.C</text>
</a>
</g>
</g>
<!-- Node18&#45;&gt;Node21 -->
<g id="edge20" class="edge">
<title>Node18&#45;&gt;Node21</title>
<path fill="none" stroke="midnightblue" d="M1882.5,-124.25C1882.5,-113.02 1882.5,-100.38 1882.5,-92.19"/>
<polygon fill="midnightblue" stroke="midnightblue" points="1879,-124.4 1882.5,-134.4 1886,-124.4 1879,-124.4"/>
</g>
<!-- Node22 -->
<g id="node22" class="node">
<title>Node22</title>
<g id="a_node22"><a xlink:href="Utst__structured__decomp_8C.html" target="_top" xlink:title=" ">
<polygon fill="white" stroke="black" points="1965,-67.5 1965,-97.5 2090,-97.5 2090,-67.5 1965,-67.5"/>
<text text-anchor="start" x="1973" y="-85.5" font-family="Helvetica,sans-Serif" font-size="10.00">src/utest/Utst_structured</text>
<text text-anchor="middle" x="2027.5" y="-74.5" font-family="Helvetica,sans-Serif" font-size="10.00">_decomp.C</text>
</a>
</g>
</g>
<!-- Node18&#45;&gt;Node22 -->
<g id="edge22" class="edge">
<title>Node18&#45;&gt;Node22</title>
<path fill="none" stroke="midnightblue" d="M1923.17,-130.27C1946.26,-119.92 1974.74,-107.15 1996.1,-97.58"/>
<polygon fill="midnightblue" stroke="midnightblue" points="1921.66,-127.11 1913.96,-134.4 1924.52,-133.5 1921.66,-127.11"/>
</g>
<!-- Node23 -->
<g id="node23" class="node">
<title>Node23</title>
<g id="a_node23"><a xlink:href="Utst__structured__decomp_8h.html" target="_top" xlink:title=" ">
<polygon fill="white" stroke="black" points="2108,-67.5 2108,-97.5 2233,-97.5 2233,-67.5 2108,-67.5"/>
<text text-anchor="start" x="2116" y="-85.5" font-family="Helvetica,sans-Serif" font-size="10.00">src/utest/Utst_structured</text>
<text text-anchor="middle" x="2170.5" y="-74.5" font-family="Helvetica,sans-Serif" font-size="10.00">_decomp.h</text>
</a>
</g>
</g>
<!-- Node18&#45;&gt;Node23 -->
<g id="edge23" class="edge">
<title>Node18&#45;&gt;Node23</title>
<path fill="none" stroke="midnightblue" d="M1954.49,-132.25C2001.7,-121.6 2062.81,-107.81 2107.98,-97.61"/>
<polygon fill="midnightblue" stroke="midnightblue" points="1953.62,-128.86 1944.64,-134.48 1955.16,-135.69 1953.62,-128.86"/>
</g>
<!-- Node24 -->
<g id="node24" class="node">
<title>Node24</title>
<g id="a_node24"><a xlink:href="Utst__structured__decomp__herron_8C.html" target="_top" xlink:title=" ">
<polygon fill="white" stroke="black" points="2036,-0.5 2036,-30.5 2161,-30.5 2161,-0.5 2036,-0.5"/>
<text text-anchor="start" x="2044" y="-18.5" font-family="Helvetica,sans-Serif" font-size="10.00">src/utest/Utst_structured</text>
<text text-anchor="middle" x="2098.5" y="-7.5" font-family="Helvetica,sans-Serif" font-size="10.00">_decomp_herron.C</text>
</a>
</g>
</g>
<!-- Node23&#45;&gt;Node24 -->
<g id="edge24" class="edge">
<title>Node23&#45;&gt;Node24</title>
<path fill="none" stroke="midnightblue" d="M2147.35,-60.6C2136.48,-50.78 2123.8,-39.34 2114.09,-30.58"/>
<polygon fill="midnightblue" stroke="midnightblue" points="2145.11,-63.29 2154.88,-67.4 2149.8,-58.1 2145.11,-63.29"/>
</g>
<!-- Node25 -->
<g id="node25" class="node">
<title>Node25</title>
<g id="a_node25"><a xlink:href="Utst__structured__decomp__rocket_8C.html" target="_top" xlink:title=" ">
<polygon fill="white" stroke="black" points="2179,-0.5 2179,-30.5 2304,-30.5 2304,-0.5 2179,-0.5"/>
<text text-anchor="start" x="2187" y="-18.5" font-family="Helvetica,sans-Serif" font-size="10.00">src/utest/Utst_structured</text>
<text text-anchor="middle" x="2241.5" y="-7.5" font-family="Helvetica,sans-Serif" font-size="10.00">_decomp_rocket.C</text>
</a>
</g>
</g>
<!-- Node23&#45;&gt;Node25 -->
<g id="edge25" class="edge">
<title>Node23&#45;&gt;Node25</title>
<path fill="none" stroke="midnightblue" d="M2193.33,-60.6C2204.05,-50.78 2216.55,-39.34 2226.12,-30.58"/>
<polygon fill="midnightblue" stroke="midnightblue" points="2190.92,-58.06 2185.91,-67.4 2195.65,-63.22 2190.92,-58.06"/>
</g>
<!-- Node26&#45;&gt;Node10 -->
<g id="edge28" class="edge">
<title>Node26&#45;&gt;Node10</title>
<path fill="none" stroke="midnightblue" d="M1665.25,-139.65C1590.38,-130.05 1468.43,-113.96 1363.5,-98 1351.52,-96.18 1338.64,-94.08 1326.57,-92.05"/>
<polygon fill="midnightblue" stroke="midnightblue" points="1665.13,-143.16 1675.5,-140.96 1666.02,-136.22 1665.13,-143.16"/>
</g>
<!-- Node26&#45;&gt;Node14 -->
<g id="edge32" class="edge">
<title>Node26&#45;&gt;Node14</title>
<path fill="none" stroke="midnightblue" d="M1734.04,-129.54C1733.09,-117.17 1731.89,-101.62 1731.16,-92.13"/>
<polygon fill="midnightblue" stroke="midnightblue" points="1730.57,-130.03 1734.83,-139.73 1737.55,-129.49 1730.57,-130.03"/>
</g>
<!-- Node26&#45;&gt;Node20 -->
<g id="edge30" class="edge">
<title>Node26&#45;&gt;Node20</title>
<path fill="none" stroke="midnightblue" d="M1781.68,-137.96C1789.28,-136.47 1797.09,-135.08 1804.5,-134 1997.34,-105.91 2048.58,-125.55 2241.5,-98 2252.46,-96.44 2264.27,-94.23 2275.06,-92.02"/>
<polygon fill="midnightblue" stroke="midnightblue" points="1780.97,-134.54 1771.87,-139.97 1782.37,-141.4 1780.97,-134.54"/>
</g>
<!-- Node26&#45;&gt;Node21 -->
<g id="edge31" class="edge">
<title>Node26&#45;&gt;Node21</title>
<path fill="none" stroke="midnightblue" d="M1764.26,-135.78C1793.38,-122.91 1837.6,-103.35 1862.9,-92.17"/>
<polygon fill="midnightblue" stroke="midnightblue" points="1762.75,-132.62 1755.02,-139.87 1765.58,-139.03 1762.75,-132.62"/>
</g>
<!-- Node26&#45;&gt;Node22 -->
<g id="edge33" class="edge">
<title>Node26&#45;&gt;Node22</title>
<path fill="none" stroke="midnightblue" d="M1783.81,-137.75C1833.36,-126.72 1910.67,-109.51 1964.9,-97.44"/>
<polygon fill="midnightblue" stroke="midnightblue" points="1782.97,-134.35 1773.97,-139.94 1784.5,-141.18 1782.97,-134.35"/>
</g>
<!-- Node27 -->
<g id="node27" class="node">
<title>Node27</title>
<g id="a_node27"><a xlink:href="Iocgns__IOFactory_8C.html" target="_top" xlink:title=" ">
<polygon fill="white" stroke="black" points="1498.5,-73 1498.5,-92 1642.5,-92 1642.5,-73 1498.5,-73"/>
<text text-anchor="middle" x="1570.5" y="-80" font-family="Helvetica,sans-Serif" font-size="10.00">src/cgns/Iocgns_IOFactory.C</text>
</a>
</g>
</g>
<!-- Node26&#45;&gt;Node27 -->
<g id="edge29" class="edge">
<title>Node26&#45;&gt;Node27</title>
<path fill="none" stroke="midnightblue" d="M1704.03,-136.1C1671.27,-123.2 1620.83,-103.33 1592.24,-92.06"/>
<polygon fill="midnightblue" stroke="midnightblue" points="1703,-139.46 1713.59,-139.87 1705.57,-132.95 1703,-139.46"/>
</g>
<!-- Node28&#45;&gt;Node11 -->
<g id="edge35" class="edge">
<title>Node28&#45;&gt;Node11</title>
<path fill="none" stroke="midnightblue" d="M1454.81,-134.06C1454.7,-134.04 1454.6,-134.02 1454.5,-134 1338.05,-112.49 1306.74,-120.63 1190.5,-98 1187.79,-97.47 1185.02,-96.9 1182.24,-96.29"/>
<polygon fill="midnightblue" stroke="midnightblue" points="1453.99,-137.46 1464.48,-135.96 1455.34,-130.6 1453.99,-137.46"/>
</g>
<!-- Node29 -->
<g id="node29" class="node">
<title>Node29</title>
<g id="a_node29"><a xlink:href="Iofaodel__FieldSerialization_8C.html" target="_top" xlink:title=" ">
<polygon fill="white" stroke="black" points="1373,-67.5 1373,-97.5 1480,-97.5 1480,-67.5 1373,-67.5"/>
<text text-anchor="start" x="1381" y="-85.5" font-family="Helvetica,sans-Serif" font-size="10.00">src/faodel/Iofaodel</text>
<text text-anchor="middle" x="1426.5" y="-74.5" font-family="Helvetica,sans-Serif" font-size="10.00">_FieldSerialization.C</text>
</a>
</g>
</g>
<!-- Node28&#45;&gt;Node29 -->
<g id="edge36" class="edge">
<title>Node28&#45;&gt;Node29</title>
<path fill="none" stroke="midnightblue" d="M1488.74,-128.45C1474.89,-118.45 1458.48,-106.6 1445.99,-97.58"/>
<polygon fill="midnightblue" stroke="midnightblue" points="1486.82,-131.38 1496.97,-134.4 1490.91,-125.7 1486.82,-131.38"/>
</g>
<!-- Node34 -->
<g id="node34" class="node">
<title>Node34</title>
<g id="a_node34"><a xlink:href="io__info_8C.html" target="_top" xlink:title=" ">
<polygon fill="white" stroke="black" points="2547.5,-73 2547.5,-92 2643.5,-92 2643.5,-73 2547.5,-73"/>
<text text-anchor="middle" x="2595.5" y="-80" font-family="Helvetica,sans-Serif" font-size="10.00">src/main/io_info.C</text>
</a>
</g>
</g>
<!-- Node33&#45;&gt;Node34 -->
<g id="edge41" class="edge">
<title>Node33&#45;&gt;Node34</title>
<path fill="none" stroke="midnightblue" d="M2458.3,-136.27C2491.84,-123.37 2543.82,-103.38 2573.23,-92.06"/>
<polygon fill="midnightblue" stroke="midnightblue" points="2457.02,-133.01 2448.94,-139.87 2459.53,-139.55 2457.02,-133.01"/>
</g>
<!-- Node35 -->
<g id="node35" class="node">
<title>Node35</title>
<g id="a_node35"><a xlink:href="io__info__main_8C.html" target="_top" xlink:title=" ">
<polygon fill="white" stroke="black" points="2661.5,-73 2661.5,-92 2783.5,-92 2783.5,-73 2661.5,-73"/>
<text text-anchor="middle" x="2722.5" y="-80" font-family="Helvetica,sans-Serif" font-size="10.00">src/main/io_info_main.C</text>
</a>
</g>
</g>
<!-- Node33&#45;&gt;Node35 -->
<g id="edge42" class="edge">
<title>Node33&#45;&gt;Node35</title>
<path fill="none" stroke="midnightblue" d="M2468.19,-137.48C2473.01,-136.27 2477.86,-135.09 2482.5,-134 2501.65,-129.51 2618.15,-105.2 2681.53,-92.01"/>
<polygon fill="midnightblue" stroke="midnightblue" points="2467.25,-134.11 2458.42,-139.96 2468.97,-140.89 2467.25,-134.11"/>
</g>
</g>
</svg>
        <g id="navigator" transform="translate(0 0)" fill="#404254">
                <rect fill="#f2f5e9" fill-opacity="0.5" stroke="#606060" stroke-width=".5" x="0" y="0" width="60" height="60"/>
                <use id="zoomplus" xlink:href="#zoomPlus" x="17" y="9" onmousedown="handleZoom(evt,'in')"/>
                <use id="zoomminus" xlink:href="#zoomMin" x="42" y="9" onmousedown="handleZoom(evt,'out')"/>
                <use id="reset" xlink:href="#resetDef" x="30" y="36" onmousedown="handleReset()"/>
                <g id="arrowUp" xlink:href="#dirArrow" transform="translate(30 24)" onmousedown="handlePan(0,-1)">
                  <use xlink:href="#rim" fill="#404040">
                        <set attributeName="fill" to="#808080" begin="arrowUp.mouseover" end="arrowUp.mouseout"/>
                  </use>
                  <path fill="none" stroke="white" stroke-width="1.5" d="M0,-3.0v7 M-2.5,-0.5L0,-3.0L2.5,-0.5"/>
                </g>
                <g id="arrowRight" xlink:href="#dirArrow" transform="rotate(90) translate(36 -43)" onmousedown="handlePan(1,0)">
                  <use xlink:href="#rim" fill="#404040">
                        <set attributeName="fill" to="#808080" begin="arrowRight.mouseover" end="arrowRight.mouseout"/>
                  </use>
                  <path fill="none" stroke="white" stroke-width="1.5" d="M0,-3.0v7 M-2.5,-0.5L0,-3.0L2.5,-0.5"/>
                </g>
                <g id="arrowDown" xlink:href="#dirArrow" transform="rotate(180) translate(-30 -48)" onmousedown="handlePan(0,1)">
                  <use xlink:href="#rim" fill="#404040">
                        <set attributeName="fill" to="#808080" begin="arrowDown.mouseover" end="arrowDown.mouseout"/>
                  </use>
                  <path fill="none" stroke="white" stroke-width="1.5" d="M0,-3.0v7 M-2.5,-0.5L0,-3.0L2.5,-0.5"/>
                </g>
                <g id="arrowLeft" xlink:href="#dirArrow" transform="rotate(270) translate(-36 17)" onmousedown="handlePan(-1,0)">
                  <use xlink:href="#rim" fill="#404040">
                        <set attributeName="fill" to="#808080" begin="arrowLeft.mouseover" end="arrowLeft.mouseout"/>
                  </use>
                  <path fill="none" stroke="white" stroke-width="1.5" d="M0,-3.0v7 M-2.5,-0.5L0,-3.0L2.5,-0.5"/>
                </g>
        </g>
        <svg viewBox="0 0 15 15" width="100%" height="30px" preserveAspectRatio="xMaxYMin meet">
         <g id="arrow_out" transform="scale(0.3 0.3)">
          <a xlink:href="Ioss__StructuredBlock_8h__dep__incl_org.svg" target="_base">
           <rect id="button" ry="5" rx="5" y="6" x="6" height="38" width="38"
                fill="#f2f5e9" fill-opacity="0.5" stroke="#606060" stroke-width="1.0"/>
           <path id="arrow"
             d="M 11.500037,31.436501 C 11.940474,20.09759 22.043105,11.32322 32.158766,21.979434 L 37.068811,17.246167 C 37.068811,17.246167 37.088388,32 37.088388,32 L 22.160133,31.978069 C 22.160133,31.978069 26.997745,27.140456 26.997745,27.140456 C 18.528582,18.264221 13.291696,25.230495 11.500037,31.436501 z"
             style="fill:#404040;"/>
          </a>
         </g>
        </svg>
</svg>
