<?xml version="1.0" encoding="UTF-8" standalone="no"?>
<!DOCTYPE svg PUBLIC "-//W3C//DTD SVG 1.1//EN"
 "http://www.w3.org/Graphics/SVG/1.1/DTD/svg11.dtd">
<!-- Generated by graphviz version 7.1.0 (20230121.1956)
 -->
<!-- Title: src/Ioss_Super.h Pages: 1 -->
<svg width="447pt" height="293pt"
 viewBox="0.00 0.00 447.00 293.09" xmlns="http://www.w3.org/2000/svg" xmlns:xlink="http://www.w3.org/1999/xlink">
<g id="graph0" class="graph" transform="scale(1 1) rotate(0) translate(4 289.09)">
<title>src/Ioss_Super.h</title>
<!-- Node1 -->
<g id="node1" class="node">
<title>Node1</title>
<g id="a_node1"><a xlink:title=" ">
<polygon fill="#999999" stroke="#666666" points="270.5,-283 180.5,-283 180.5,-264 270.5,-264 270.5,-283"/>
<text text-anchor="middle" x="225.5" y="-271" font-family="Helvetica,sans-Serif" font-size="10.00">src/Ioss_Super.h</text>
</a>
</g>
</g>
<!-- Node1&#45;&gt;Node1 -->
<g id="edge13" class="edge">
<title>Node1&#45;&gt;Node1</title>
<path fill="none" stroke="#63b8ff" d="M261.8,-284.78C276.32,-285.4 288.5,-281.65 288.5,-273.5 288.5,-263.28 269.32,-259.96 250.4,-263.56"/>
<polygon fill="#63b8ff" stroke="#63b8ff" points="262.24,-281.3 251.9,-283.62 261.43,-288.26 262.24,-281.3"/>
</g>
<!-- Node2 -->
<g id="node2" class="node">
<title>Node2</title>
<g id="a_node2"><a xlink:href="Ioss__ElementTopology_8C.html" target="_top" xlink:title=" ">
<polygon fill="white" stroke="#666666" points="141,-222.5 0,-222.5 0,-203.5 141,-203.5 141,-222.5"/>
<text text-anchor="middle" x="70.5" y="-210.5" font-family="Helvetica,sans-Serif" font-size="10.00">src/Ioss_ElementTopology.C</text>
</a>
</g>
</g>
<!-- Node1&#45;&gt;Node2 -->
<g id="edge1" class="edge">
<title>Node1&#45;&gt;Node2</title>
<path fill="none" stroke="#63b8ff" d="M191.34,-259.61C161.91,-248.5 120.19,-232.75 94.26,-222.97"/>
<polygon fill="#63b8ff" stroke="#63b8ff" points="189.95,-262.82 200.54,-263.08 192.42,-256.27 189.95,-262.82"/>
</g>
<!-- Node3 -->
<g id="node3" class="node">
<title>Node3</title>
<g id="a_node3"><a xlink:href="Ioss__StandardElementTypes_8h.html" target="_top" xlink:title=" ">
<polygon fill="white" stroke="#666666" points="291.5,-228 159.5,-228 159.5,-198 291.5,-198 291.5,-228"/>
<text text-anchor="start" x="167.5" y="-216" font-family="Helvetica,sans-Serif" font-size="10.00">src/Ioss_StandardElement</text>
<text text-anchor="middle" x="225.5" y="-205" font-family="Helvetica,sans-Serif" font-size="10.00">Types.h</text>
</a>
</g>
</g>
<!-- Node1&#45;&gt;Node3 -->
<g id="edge2" class="edge">
<title>Node1&#45;&gt;Node3</title>
<path fill="none" stroke="#63b8ff" d="M225.5,-252.51C225.5,-244.49 225.5,-235.43 225.5,-228.11"/>
<polygon fill="#63b8ff" stroke="#63b8ff" points="222,-252.35 225.5,-262.35 229,-252.35 222,-252.35"/>
</g>
<!-- Node11 -->
<g id="node11" class="node">
<title>Node11</title>
<g id="a_node11"><a xlink:href="Ioss__Super_8C.html" target="_top" xlink:title=" ">
<polygon fill="white" stroke="#666666" points="401.5,-222.5 309.5,-222.5 309.5,-203.5 401.5,-203.5 401.5,-222.5"/>
<text text-anchor="middle" x="355.5" y="-210.5" font-family="Helvetica,sans-Serif" font-size="10.00">src/Ioss_Super.C</text>
</a>
</g>
</g>
<!-- Node1&#45;&gt;Node11 -->
<g id="edge12" class="edge">
<title>Node1&#45;&gt;Node11</title>
<path fill="none" stroke="#63b8ff" d="M255.47,-259.02C280.06,-247.95 314.21,-232.58 335.57,-222.97"/>
<polygon fill="#63b8ff" stroke="#63b8ff" points="254.31,-255.7 246.62,-262.99 257.18,-262.08 254.31,-255.7"/>
</g>
<!-- Node4 -->
<g id="node4" class="node">
<title>Node4</title>
<g id="a_node4"><a xlink:href="Ioss__Initializer_8C.html" target="_top" xlink:title=" ">
<polygon fill="white" stroke="#666666" points="146.5,-156.5 40.5,-156.5 40.5,-137.5 146.5,-137.5 146.5,-156.5"/>
<text text-anchor="middle" x="93.5" y="-144.5" font-family="Helvetica,sans-Serif" font-size="10.00">src/Ioss_Initializer.C</text>
</a>
</g>
</g>
<!-- Node3&#45;&gt;Node4 -->
<g id="edge3" class="edge">
<title>Node3&#45;&gt;Node4</title>
<path fill="none" stroke="#63b8ff" d="M185.79,-192.75C161.32,-180.88 131.08,-166.22 112.03,-156.99"/>
<polygon fill="#63b8ff" stroke="#63b8ff" points="183.99,-195.76 194.51,-196.98 187.04,-189.46 183.99,-195.76"/>
</g>
<!-- Node5 -->
<g id="node5" class="node">
<title>Node5</title>
<g id="a_node5"><a xlink:href="Iotm__TextMesh_8h.html" target="_top" xlink:title=" ">
<polygon fill="white" stroke="#666666" points="260,-96 159,-96 159,-66 260,-66 260,-96"/>
<text text-anchor="start" x="167" y="-84" font-family="Helvetica,sans-Serif" font-size="10.00">src/text_mesh/Iotm</text>
<text text-anchor="middle" x="209.5" y="-73" font-family="Helvetica,sans-Serif" font-size="10.00">_TextMesh.h</text>
</a>
</g>
</g>
<!-- Node3&#45;&gt;Node5 -->
<g id="edge4" class="edge">
<title>Node3&#45;&gt;Node5</title>
<path fill="none" stroke="#63b8ff" d="M206.58,-188.5C201.28,-180.55 196.23,-171.32 193.5,-162 186.9,-139.43 195.58,-112.5 202.51,-96.34"/>
<polygon fill="#63b8ff" stroke="#63b8ff" points="203.7,-190.49 212.38,-196.56 209.38,-186.4 203.7,-190.49"/>
</g>
<!-- Node8 -->
<g id="node8" class="node">
<title>Node8</title>
<g id="a_node8"><a xlink:href="Iotm__TextMeshTopologyMapping_8h.html" target="_top" xlink:title=" ">
<polygon fill="white" stroke="#666666" points="352,-162 203,-162 203,-132 352,-132 352,-162"/>
<text text-anchor="start" x="211" y="-150" font-family="Helvetica,sans-Serif" font-size="10.00">src/text_mesh/Iotm</text>
<text text-anchor="middle" x="277.5" y="-139" font-family="Helvetica,sans-Serif" font-size="10.00">_TextMeshTopologyMapping.h</text>
</a>
</g>
</g>
<!-- Node3&#45;&gt;Node8 -->
<g id="edge7" class="edge">
<title>Node3&#45;&gt;Node8</title>
<path fill="none" stroke="#63b8ff" d="M244.22,-188.96C251.5,-180 259.6,-170.03 265.99,-162.16"/>
<polygon fill="#63b8ff" stroke="#63b8ff" points="241.58,-186.65 237.99,-196.62 247.02,-191.07 241.58,-186.65"/>
</g>
<!-- Node9 -->
<g id="node9" class="node">
<title>Node9</title>
<g id="a_node9"><a xlink:href="UnitTestIotmTextMeshFixture_8h.html" target="_top" xlink:title=" ">
<polygon fill="white" stroke="#666666" points="439,-96 304,-96 304,-66 439,-66 439,-96"/>
<text text-anchor="start" x="312" y="-84" font-family="Helvetica,sans-Serif" font-size="10.00">src/unit_tests/UnitTestIotm</text>
<text text-anchor="middle" x="371.5" y="-73" font-family="Helvetica,sans-Serif" font-size="10.00">TextMeshFixture.h</text>
</a>
</g>
</g>
<!-- Node3&#45;&gt;Node9 -->
<g id="edge11" class="edge">
<title>Node3&#45;&gt;Node9</title>
<path fill="none" stroke="#63b8ff" d="M292.18,-194.31C321.42,-185.2 351.2,-173.59 360.5,-162 375.51,-143.3 375.37,-113.89 373.63,-96.42"/>
<polygon fill="#63b8ff" stroke="#63b8ff" points="291.49,-190.86 282.93,-197.11 293.51,-197.56 291.49,-190.86"/>
</g>
<!-- Node6 -->
<g id="node6" class="node">
<title>Node6</title>
<g id="a_node6"><a xlink:href="Iotm__DatabaseIO_8C.html" target="_top" xlink:title=" ">
<polygon fill="white" stroke="#666666" points="158,-30 57,-30 57,0 158,0 158,-30"/>
<text text-anchor="start" x="65" y="-18" font-family="Helvetica,sans-Serif" font-size="10.00">src/text_mesh/Iotm</text>
<text text-anchor="middle" x="107.5" y="-7" font-family="Helvetica,sans-Serif" font-size="10.00">_DatabaseIO.C</text>
</a>
</g>
</g>
<!-- Node5&#45;&gt;Node6 -->
<g id="edge5" class="edge">
<title>Node5&#45;&gt;Node6</title>
<path fill="none" stroke="#63b8ff" d="M177.05,-59.64C161.84,-50.09 144.08,-38.95 130.31,-30.31"/>
<polygon fill="#63b8ff" stroke="#63b8ff" points="175,-62.48 185.33,-64.83 178.72,-56.55 175,-62.48"/>
</g>
<!-- Node7 -->
<g id="node7" class="node">
<title>Node7</title>
<g id="a_node7"><a xlink:href="Iotm__TextMesh_8C.html" target="_top" xlink:title=" ">
<polygon fill="white" stroke="#666666" points="277,-30 176,-30 176,0 277,0 277,-30"/>
<text text-anchor="start" x="184" y="-18" font-family="Helvetica,sans-Serif" font-size="10.00">src/text_mesh/Iotm</text>
<text text-anchor="middle" x="226.5" y="-7" font-family="Helvetica,sans-Serif" font-size="10.00">_TextMesh.C</text>
</a>
</g>
</g>
<!-- Node5&#45;&gt;Node7 -->
<g id="edge6" class="edge">
<title>Node5&#45;&gt;Node7</title>
<path fill="none" stroke="#63b8ff" d="M216.23,-54.68C218.44,-46.34 220.82,-37.37 222.74,-30.16"/>
<polygon fill="#63b8ff" stroke="#63b8ff" points="212.85,-53.77 213.66,-64.33 219.61,-55.57 212.85,-53.77"/>
</g>
<!-- Node8&#45;&gt;Node5 -->
<g id="edge8" class="edge">
<title>Node8&#45;&gt;Node5</title>
<path fill="none" stroke="#63b8ff" d="M254.22,-124.09C244.4,-114.85 233.26,-104.36 224.55,-96.16"/>
<polygon fill="#63b8ff" stroke="#63b8ff" points="251.63,-126.45 261.31,-130.76 256.42,-121.36 251.63,-126.45"/>
</g>
<!-- Node8&#45;&gt;Node9 -->
<g id="edge9" class="edge">
<title>Node8&#45;&gt;Node9</title>
<path fill="none" stroke="#63b8ff" d="M307.57,-125.52C321.52,-116.03 337.75,-104.98 350.37,-96.39"/>
<polygon fill="#63b8ff" stroke="#63b8ff" points="305.91,-122.42 299.61,-130.94 309.85,-128.21 305.91,-122.42"/>
</g>
<!-- Node10 -->
<g id="node10" class="node">
<title>Node10</title>
<g id="a_node10"><a xlink:href="UnitTestTextMesh_8C.html" target="_top" xlink:title=" ">
<polygon fill="white" stroke="#666666" points="438.5,-30 304.5,-30 304.5,0 438.5,0 438.5,-30"/>
<text text-anchor="start" x="312.5" y="-18" font-family="Helvetica,sans-Serif" font-size="10.00">src/unit_tests/UnitTestText</text>
<text text-anchor="middle" x="371.5" y="-7" font-family="Helvetica,sans-Serif" font-size="10.00">Mesh.C</text>
</a>
</g>
</g>
<!-- Node9&#45;&gt;Node10 -->
<g id="edge10" class="edge">
<title>Node9&#45;&gt;Node10</title>
<path fill="none" stroke="#63b8ff" d="M371.5,-54.39C371.5,-46.13 371.5,-37.28 371.5,-30.16"/>
<polygon fill="#63b8ff" stroke="#63b8ff" points="368,-54.28 371.5,-64.28 375,-54.28 368,-54.28"/>
</g>
</g>
</svg>
