<?xml version="1.0" encoding="UTF-8" standalone="no"?>
<!DOCTYPE svg PUBLIC "-//W3C//DTD SVG 1.1//EN"
 "http://www.w3.org/Graphics/SVG/1.1/DTD/svg11.dtd">
<!-- Generated by graphviz version 2.49.0 (20210828.1703)
 -->
<!-- Title: src/Ioss_SideBlock.h Pages: 1 -->
<svg width="3766pt" height="162pt"
 viewBox="0.00 0.00 3766.00 162.00" xmlns="http://www.w3.org/2000/svg" xmlns:xlink="http://www.w3.org/1999/xlink">
<g id="graph0" class="graph" transform="scale(1 1) rotate(0) translate(4 158)">
<title>src/Ioss_SideBlock.h</title>
<polygon fill="white" stroke="transparent" points="-4,4 -4,-158 3762,-158 3762,4 -4,4"/>
<!-- Node1 -->
<g id="node1" class="node">
<title>Node1</title>
<g id="a_node1"><a xlink:title=" ">
<polygon fill="#bfbfbf" stroke="black" points="2007.5,-134.5 2007.5,-153.5 2116.5,-153.5 2116.5,-134.5 2007.5,-134.5"/>
<text text-anchor="middle" x="2062" y="-141.5" font-family="Helvetica,sans-Serif" font-size="10.00">src/Ioss_SideBlock.h</text>
</a>
</g>
</g>
<!-- Node2 -->
<g id="node2" class="node">
<title>Node2</title>
<g id="a_node2"><a xlink:href="Ioss__DatabaseIO_8C.html" target="_top" xlink:title=" ">
<polygon fill="white" stroke="black" points="490,-73 490,-92 610,-92 610,-73 490,-73"/>
<text text-anchor="middle" x="550" y="-80" font-family="Helvetica,sans-Serif" font-size="10.00">src/Ioss_DatabaseIO.C</text>
</a>
</g>
</g>
<!-- Node1&#45;&gt;Node2 -->
<g id="edge1" class="edge">
<title>Node1&#45;&gt;Node2</title>
<path fill="none" stroke="midnightblue" d="M1997.29,-142.5C1753.64,-140.36 891.48,-130.62 619,-98 607.7,-96.65 595.5,-94.36 584.55,-92"/>
<polygon fill="midnightblue" stroke="midnightblue" points="1997.38,-146 2007.41,-142.58 1997.44,-139 1997.38,-146"/>
</g>
<!-- Node3 -->
<g id="node3" class="node">
<title>Node3</title>
<g id="a_node3"><a xlink:href="Ioss__Region_8C.html" target="_top" xlink:title=" ">
<polygon fill="white" stroke="black" points="628,-73 628,-92 726,-92 726,-73 628,-73"/>
<text text-anchor="middle" x="677" y="-80" font-family="Helvetica,sans-Serif" font-size="10.00">src/Ioss_Region.C</text>
</a>
</g>
</g>
<!-- Node1&#45;&gt;Node3 -->
<g id="edge2" class="edge">
<title>Node1&#45;&gt;Node3</title>
<path fill="none" stroke="midnightblue" d="M1997.15,-142.61C1766,-140.95 983.01,-132.81 735,-98 725.44,-96.66 715.17,-94.38 705.97,-92.02"/>
<polygon fill="midnightblue" stroke="midnightblue" points="1997.39,-146.11 2007.41,-142.68 1997.44,-139.11 1997.39,-146.11"/>
</g>
<!-- Node4 -->
<g id="node4" class="node">
<title>Node4</title>
<g id="a_node4"><a xlink:href="Ioss__SideBlock_8C.html" target="_top" xlink:title=" ">
<polygon fill="white" stroke="black" points="744.5,-73 744.5,-92 855.5,-92 855.5,-73 744.5,-73"/>
<text text-anchor="middle" x="800" y="-80" font-family="Helvetica,sans-Serif" font-size="10.00">src/Ioss_SideBlock.C</text>
</a>
</g>
</g>
<!-- Node1&#45;&gt;Node4 -->
<g id="edge3" class="edge">
<title>Node1&#45;&gt;Node4</title>
<path fill="none" stroke="midnightblue" d="M1997.09,-142.12C1780.97,-138.93 1086.82,-126.67 865,-98 854.45,-96.64 843.09,-94.38 832.86,-92.05"/>
<polygon fill="midnightblue" stroke="midnightblue" points="1997.27,-145.62 2007.32,-142.27 1997.38,-138.62 1997.27,-145.62"/>
</g>
<!-- Node5 -->
<g id="node5" class="node">
<title>Node5</title>
<g id="a_node5"><a xlink:href="Ioss__SideSet_8C.html" target="_top" xlink:title=" ">
<polygon fill="white" stroke="black" points="874,-73 874,-92 976,-92 976,-73 874,-73"/>
<text text-anchor="middle" x="925" y="-80" font-family="Helvetica,sans-Serif" font-size="10.00">src/Ioss_SideSet.C</text>
</a>
</g>
</g>
<!-- Node1&#45;&gt;Node5 -->
<g id="edge4" class="edge">
<title>Node1&#45;&gt;Node5</title>
<path fill="none" stroke="midnightblue" d="M1997.16,-141.79C1796.34,-137.8 1186.39,-123.82 990,-98 979.45,-96.61 968.09,-94.35 957.86,-92.02"/>
<polygon fill="midnightblue" stroke="midnightblue" points="1997.19,-145.29 2007.26,-141.99 1997.33,-138.29 1997.19,-145.29"/>
</g>
<!-- Node6 -->
<g id="node6" class="node">
<title>Node6</title>
<g id="a_node6"><a xlink:href="Ioss__SubSystem_8h.html" target="_top" xlink:title=" ">
<polygon fill="white" stroke="black" points="1032,-73 1032,-92 1148,-92 1148,-73 1032,-73"/>
<text text-anchor="middle" x="1090" y="-80" font-family="Helvetica,sans-Serif" font-size="10.00">src/Ioss_SubSystem.h</text>
</a>
</g>
</g>
<!-- Node1&#45;&gt;Node6 -->
<g id="edge5" class="edge">
<title>Node1&#45;&gt;Node6</title>
<path fill="none" stroke="midnightblue" d="M1997.25,-139.04C1818.3,-128.08 1318.95,-97.51 1148.15,-87.06"/>
<polygon fill="midnightblue" stroke="midnightblue" points="1997.11,-142.53 2007.31,-139.65 1997.54,-135.55 1997.11,-142.53"/>
</g>
<!-- Node10 -->
<g id="node10" class="node">
<title>Node10</title>
<g id="a_node10"><a xlink:href="Ut__ioad_8C.html" target="_top" xlink:title=" ">
<polygon fill="white" stroke="black" points="0,-0.5 0,-30.5 94,-30.5 94,-0.5 0,-0.5"/>
<text text-anchor="start" x="8" y="-18.5" font-family="Helvetica,sans-Serif" font-size="10.00">src/adios/utest/Ut</text>
<text text-anchor="middle" x="47" y="-7.5" font-family="Helvetica,sans-Serif" font-size="10.00">_ioad.C</text>
</a>
</g>
</g>
<!-- Node1&#45;&gt;Node10 -->
<g id="edge19" class="edge">
<title>Node1&#45;&gt;Node10</title>
<path fill="none" stroke="midnightblue" d="M1997.14,-142.56C1784,-140.79 1113.63,-132.51 1023,-98 1002.63,-90.24 1005.38,-74.73 985,-67 801.59,2.57 297.05,-59.75 103,-31 100.12,-30.57 97.17,-30.06 94.21,-29.48"/>
<polygon fill="midnightblue" stroke="midnightblue" points="1997.21,-146.06 2007.24,-142.64 1997.27,-139.06 1997.21,-146.06"/>
</g>
<!-- Node12 -->
<g id="node12" class="node">
<title>Node12</title>
<g id="a_node12"><a xlink:href="Iofaodel__DatabaseIO_8C.html" target="_top" xlink:title=" ">
<polygon fill="white" stroke="black" points="2330,-0.5 2330,-30.5 2428,-30.5 2428,-0.5 2330,-0.5"/>
<text text-anchor="start" x="2338" y="-18.5" font-family="Helvetica,sans-Serif" font-size="10.00">src/faodel/Iofaodel</text>
<text text-anchor="middle" x="2379" y="-7.5" font-family="Helvetica,sans-Serif" font-size="10.00">_DatabaseIO.C</text>
</a>
</g>
</g>
<!-- Node1&#45;&gt;Node12 -->
<g id="edge34" class="edge">
<title>Node1&#45;&gt;Node12</title>
<path fill="none" stroke="midnightblue" d="M1997.38,-140.93C1883.1,-136.6 1655.05,-124.69 1631,-98 1621.78,-87.76 1621.52,-76.99 1631,-67 1683.77,-11.4 2244.16,-42.2 2320,-31 2323.23,-30.52 2326.55,-29.95 2329.88,-29.31"/>
<polygon fill="midnightblue" stroke="midnightblue" points="1997.28,-144.43 2007.41,-141.3 1997.54,-137.43 1997.28,-144.43"/>
</g>
<!-- Node18 -->
<g id="node18" class="node">
<title>Node18</title>
<g id="a_node18"><a xlink:href="Ioad__DatabaseIO_8C.html" target="_top" xlink:title=" ">
<polygon fill="white" stroke="black" points="1766,-73 1766,-92 1914,-92 1914,-73 1766,-73"/>
<text text-anchor="middle" x="1840" y="-80" font-family="Helvetica,sans-Serif" font-size="10.00">src/adios/Ioad_DatabaseIO.C</text>
</a>
</g>
</g>
<!-- Node1&#45;&gt;Node18 -->
<g id="edge17" class="edge">
<title>Node1&#45;&gt;Node18</title>
<path fill="none" stroke="midnightblue" d="M2020.3,-131.82C1977.17,-120.26 1910.79,-102.47 1871.75,-92.01"/>
<polygon fill="midnightblue" stroke="midnightblue" points="2019.63,-135.27 2030.19,-134.48 2021.44,-128.51 2019.63,-135.27"/>
</g>
<!-- Node19 -->
<g id="node19" class="node">
<title>Node19</title>
<g id="a_node19"><a xlink:href="Ioad__Helper_8C.html" target="_top" xlink:title=" ">
<polygon fill="white" stroke="black" points="1932.5,-73 1932.5,-92 2055.5,-92 2055.5,-73 1932.5,-73"/>
<text text-anchor="middle" x="1994" y="-80" font-family="Helvetica,sans-Serif" font-size="10.00">src/adios/Ioad_Helper.C</text>
</a>
</g>
</g>
<!-- Node1&#45;&gt;Node19 -->
<g id="edge18" class="edge">
<title>Node1&#45;&gt;Node19</title>
<path fill="none" stroke="midnightblue" d="M2044.46,-127.65C2031.49,-116.31 2014.32,-101.28 2003.72,-92.01"/>
<polygon fill="midnightblue" stroke="midnightblue" points="2042.43,-130.52 2052.26,-134.48 2047.04,-125.26 2042.43,-130.52"/>
</g>
<!-- Node20 -->
<g id="node20" class="node">
<title>Node20</title>
<g id="a_node20"><a xlink:href="Iocatalyst__DatabaseIO_8C.html" target="_top" xlink:title=" ">
<polygon fill="white" stroke="black" points="2074,-67.5 2074,-97.5 2186,-97.5 2186,-67.5 2074,-67.5"/>
<text text-anchor="start" x="2082" y="-85.5" font-family="Helvetica,sans-Serif" font-size="10.00">src/catalyst/Iocatalyst</text>
<text text-anchor="middle" x="2130" y="-74.5" font-family="Helvetica,sans-Serif" font-size="10.00">_DatabaseIO.C</text>
</a>
</g>
</g>
<!-- Node1&#45;&gt;Node20 -->
<g id="edge20" class="edge">
<title>Node1&#45;&gt;Node20</title>
<path fill="none" stroke="midnightblue" d="M2079.55,-127.65C2090.18,-118.35 2103.63,-106.57 2113.97,-97.52"/>
<polygon fill="midnightblue" stroke="midnightblue" points="2076.96,-125.26 2071.74,-134.48 2081.57,-130.52 2076.96,-125.26"/>
</g>
<!-- Node21 -->
<g id="node21" class="node">
<title>Node21</title>
<g id="a_node21"><a xlink:href="Iocgns__ParallelDatabaseIO_8C.html" target="_top" xlink:title=" ">
<polygon fill="white" stroke="black" points="1417.5,-0.5 1417.5,-30.5 1542.5,-30.5 1542.5,-0.5 1417.5,-0.5"/>
<text text-anchor="start" x="1425.5" y="-18.5" font-family="Helvetica,sans-Serif" font-size="10.00">src/cgns/Iocgns_Parallel</text>
<text text-anchor="middle" x="1480" y="-7.5" font-family="Helvetica,sans-Serif" font-size="10.00">DatabaseIO.C</text>
</a>
</g>
</g>
<!-- Node1&#45;&gt;Node21 -->
<g id="edge21" class="edge">
<title>Node1&#45;&gt;Node21</title>
<path fill="none" stroke="midnightblue" d="M1997,-143.06C1847.91,-142.51 1491.3,-137.09 1455,-98 1437.58,-79.24 1455.12,-48.61 1468.33,-30.73"/>
<polygon fill="midnightblue" stroke="midnightblue" points="1997.36,-146.56 2007.37,-143.09 1997.38,-139.56 1997.36,-146.56"/>
</g>
<!-- Node22 -->
<g id="node22" class="node">
<title>Node22</title>
<g id="a_node22"><a xlink:href="Iocgns__Utils_8h.html" target="_top" xlink:title=" ">
<polygon fill="white" stroke="black" points="1464.5,-73 1464.5,-92 1583.5,-92 1583.5,-73 1464.5,-73"/>
<text text-anchor="middle" x="1524" y="-80" font-family="Helvetica,sans-Serif" font-size="10.00">src/cgns/Iocgns_Utils.h</text>
</a>
</g>
</g>
<!-- Node1&#45;&gt;Node22 -->
<g id="edge22" class="edge">
<title>Node1&#45;&gt;Node22</title>
<path fill="none" stroke="midnightblue" d="M1997.1,-138.7C1907.17,-132.28 1739.69,-118.7 1598,-98 1586.86,-96.37 1574.85,-94.2 1563.82,-92.04"/>
<polygon fill="midnightblue" stroke="midnightblue" points="1996.93,-142.19 2007.15,-139.41 1997.42,-135.21 1996.93,-142.19"/>
</g>
<!-- Node28 -->
<g id="node28" class="node">
<title>Node28</title>
<g id="a_node28"><a xlink:href="Ioex__BaseDatabaseIO_8C.html" target="_top" xlink:title=" ">
<polygon fill="white" stroke="black" points="2204,-73 2204,-92 2382,-92 2382,-73 2204,-73"/>
<text text-anchor="middle" x="2293" y="-80" font-family="Helvetica,sans-Serif" font-size="10.00">src/exodus/Ioex_BaseDatabaseIO.C</text>
</a>
</g>
</g>
<!-- Node1&#45;&gt;Node28 -->
<g id="edge31" class="edge">
<title>Node1&#45;&gt;Node28</title>
<path fill="none" stroke="midnightblue" d="M2104.83,-131.97C2149.68,-120.41 2219.17,-102.52 2259.96,-92.01"/>
<polygon fill="midnightblue" stroke="midnightblue" points="2103.91,-128.59 2095.1,-134.48 2105.65,-135.37 2103.91,-128.59"/>
</g>
<!-- Node29 -->
<g id="node29" class="node">
<title>Node29</title>
<g id="a_node29"><a xlink:href="Ioex__DatabaseIO_8C.html" target="_top" xlink:title=" ">
<polygon fill="white" stroke="black" points="2400.5,-73 2400.5,-92 2555.5,-92 2555.5,-73 2400.5,-73"/>
<text text-anchor="middle" x="2478" y="-80" font-family="Helvetica,sans-Serif" font-size="10.00">src/exodus/Ioex_DatabaseIO.C</text>
</a>
</g>
</g>
<!-- Node1&#45;&gt;Node29 -->
<g id="edge32" class="edge">
<title>Node1&#45;&gt;Node29</title>
<path fill="none" stroke="midnightblue" d="M2126.81,-134.7C2193.22,-126.07 2299.43,-111.89 2391,-98 2403.11,-96.16 2416.15,-94.06 2428.35,-92.03"/>
<polygon fill="midnightblue" stroke="midnightblue" points="2125.97,-131.28 2116.5,-136.04 2126.87,-138.23 2125.97,-131.28"/>
</g>
<!-- Node30 -->
<g id="node30" class="node">
<title>Node30</title>
<g id="a_node30"><a xlink:href="Ioex__Internals_8C.html" target="_top" xlink:title=" ">
<polygon fill="white" stroke="black" points="2574,-73 2574,-92 2714,-92 2714,-73 2574,-73"/>
<text text-anchor="middle" x="2644" y="-80" font-family="Helvetica,sans-Serif" font-size="10.00">src/exodus/Ioex_Internals.C</text>
</a>
</g>
</g>
<!-- Node1&#45;&gt;Node30 -->
<g id="edge33" class="edge">
<title>Node1&#45;&gt;Node30</title>
<path fill="none" stroke="midnightblue" d="M2126.9,-139.05C2222.76,-132.8 2407.76,-119.12 2564,-98 2576.03,-96.37 2589.01,-94.2 2600.93,-92.04"/>
<polygon fill="midnightblue" stroke="midnightblue" points="2126.53,-135.57 2116.78,-139.71 2126.98,-142.56 2126.53,-135.57"/>
</g>
<!-- Node31 -->
<g id="node31" class="node">
<title>Node31</title>
<g id="a_node31"><a xlink:href="Iofaodel__FieldSerialization_8h.html" target="_top" xlink:title=" ">
<polygon fill="white" stroke="black" points="1640.5,-67.5 1640.5,-97.5 1747.5,-97.5 1747.5,-67.5 1640.5,-67.5"/>
<text text-anchor="start" x="1648.5" y="-85.5" font-family="Helvetica,sans-Serif" font-size="10.00">src/faodel/Iofaodel</text>
<text text-anchor="middle" x="1694" y="-74.5" font-family="Helvetica,sans-Serif" font-size="10.00">_FieldSerialization.h</text>
</a>
</g>
</g>
<!-- Node1&#45;&gt;Node31 -->
<g id="edge35" class="edge">
<title>Node1&#45;&gt;Node31</title>
<path fill="none" stroke="midnightblue" d="M1997.22,-134.97C1935.31,-126.93 1839.46,-113.55 1757,-98 1753.91,-97.42 1750.75,-96.79 1747.56,-96.13"/>
<polygon fill="midnightblue" stroke="midnightblue" points="1996.87,-138.45 2007.24,-136.26 1997.77,-131.51 1996.87,-138.45"/>
</g>
<!-- Node33 -->
<g id="node33" class="node">
<title>Node33</title>
<g id="a_node33"><a xlink:href="Iofaodel__PropertySerialization_8C.html" target="_top" xlink:title=" ">
<polygon fill="white" stroke="black" points="2732,-67.5 2732,-97.5 2856,-97.5 2856,-67.5 2732,-67.5"/>
<text text-anchor="start" x="2740" y="-85.5" font-family="Helvetica,sans-Serif" font-size="10.00">src/faodel/Iofaodel</text>
<text text-anchor="middle" x="2794" y="-74.5" font-family="Helvetica,sans-Serif" font-size="10.00">_PropertySerialization.C</text>
</a>
</g>
</g>
<!-- Node1&#45;&gt;Node33 -->
<g id="edge38" class="edge">
<title>Node1&#45;&gt;Node33</title>
<path fill="none" stroke="midnightblue" d="M2126.67,-141.46C2245.34,-138 2505.65,-127.46 2723,-98 2725.87,-97.61 2728.79,-97.18 2731.74,-96.7"/>
<polygon fill="midnightblue" stroke="midnightblue" points="2126.56,-137.96 2116.66,-141.74 2126.75,-144.96 2126.56,-137.96"/>
</g>
<!-- Node34 -->
<g id="node34" class="node">
<title>Node34</title>
<g id="a_node34"><a xlink:href="Iofaodel__Utils_8C.html" target="_top" xlink:title=" ">
<polygon fill="white" stroke="black" points="2874,-67.5 2874,-97.5 2972,-97.5 2972,-67.5 2874,-67.5"/>
<text text-anchor="start" x="2882" y="-85.5" font-family="Helvetica,sans-Serif" font-size="10.00">src/faodel/Iofaodel</text>
<text text-anchor="middle" x="2923" y="-74.5" font-family="Helvetica,sans-Serif" font-size="10.00">_Utils.C</text>
</a>
</g>
</g>
<!-- Node1&#45;&gt;Node34 -->
<g id="edge39" class="edge">
<title>Node1&#45;&gt;Node34</title>
<path fill="none" stroke="midnightblue" d="M2127.23,-143.5C2264.55,-143.65 2593.22,-139.21 2865,-98 2867.87,-97.56 2870.81,-97.05 2873.77,-96.48"/>
<polygon fill="midnightblue" stroke="midnightblue" points="2126.9,-140 2116.89,-143.48 2126.88,-147 2126.9,-140"/>
</g>
<!-- Node35 -->
<g id="node35" class="node">
<title>Node35</title>
<g id="a_node35"><a xlink:href="Iogs__DatabaseIO_8C.html" target="_top" xlink:title=" ">
<polygon fill="white" stroke="black" points="2990,-67.5 2990,-97.5 3088,-97.5 3088,-67.5 2990,-67.5"/>
<text text-anchor="start" x="2998" y="-85.5" font-family="Helvetica,sans-Serif" font-size="10.00">src/gen_struc/Iogs</text>
<text text-anchor="middle" x="3039" y="-74.5" font-family="Helvetica,sans-Serif" font-size="10.00">_DatabaseIO.C</text>
</a>
</g>
</g>
<!-- Node1&#45;&gt;Node35 -->
<g id="edge40" class="edge">
<title>Node1&#45;&gt;Node35</title>
<path fill="none" stroke="midnightblue" d="M2126.68,-141.48C2307.51,-136.98 2815.82,-122.45 2981,-98 2983.87,-97.57 2986.81,-97.07 2989.77,-96.5"/>
<polygon fill="midnightblue" stroke="midnightblue" points="2126.44,-137.99 2116.53,-141.73 2126.61,-144.99 2126.44,-137.99"/>
</g>
<!-- Node36 -->
<g id="node36" class="node">
<title>Node36</title>
<g id="a_node36"><a xlink:href="Iogn__DatabaseIO_8C.html" target="_top" xlink:title=" ">
<polygon fill="white" stroke="black" points="3106,-67.5 3106,-97.5 3206,-97.5 3206,-67.5 3106,-67.5"/>
<text text-anchor="start" x="3114" y="-85.5" font-family="Helvetica,sans-Serif" font-size="10.00">src/generated/Iogn</text>
<text text-anchor="middle" x="3156" y="-74.5" font-family="Helvetica,sans-Serif" font-size="10.00">_DatabaseIO.C</text>
</a>
</g>
</g>
<!-- Node1&#45;&gt;Node36 -->
<g id="edge41" class="edge">
<title>Node1&#45;&gt;Node36</title>
<path fill="none" stroke="midnightblue" d="M2126.95,-141.86C2323.25,-138.13 2908.42,-125 3097,-98 3099.92,-97.58 3102.91,-97.08 3105.92,-96.52"/>
<polygon fill="midnightblue" stroke="midnightblue" points="2126.72,-138.36 2116.79,-142.05 2126.85,-145.36 2126.72,-138.36"/>
</g>
<!-- Node37 -->
<g id="node37" class="node">
<title>Node37</title>
<g id="a_node37"><a xlink:href="cth__pressure__map_8C.html" target="_top" xlink:title=" ">
<polygon fill="white" stroke="black" points="3224.5,-67.5 3224.5,-97.5 3339.5,-97.5 3339.5,-67.5 3224.5,-67.5"/>
<text text-anchor="start" x="3232.5" y="-85.5" font-family="Helvetica,sans-Serif" font-size="10.00">src/main/cth_pressure</text>
<text text-anchor="middle" x="3282" y="-74.5" font-family="Helvetica,sans-Serif" font-size="10.00">_map.C</text>
</a>
</g>
</g>
<!-- Node1&#45;&gt;Node37 -->
<g id="edge42" class="edge">
<title>Node1&#45;&gt;Node37</title>
<path fill="none" stroke="midnightblue" d="M2126.99,-141.95C2337.92,-138.32 3002.1,-124.98 3215,-98 3218.07,-97.61 3221.21,-97.15 3224.37,-96.64"/>
<polygon fill="midnightblue" stroke="midnightblue" points="2126.63,-138.46 2116.69,-142.13 2126.75,-145.46 2126.63,-138.46"/>
</g>
<!-- Node38 -->
<g id="node38" class="node">
<title>Node38</title>
<g id="a_node38"><a xlink:href="io__info_8h.html" target="_top" xlink:title=" ">
<polygon fill="white" stroke="black" points="3357.5,-73 3357.5,-92 3452.5,-92 3452.5,-73 3357.5,-73"/>
<text text-anchor="middle" x="3405" y="-80" font-family="Helvetica,sans-Serif" font-size="10.00">src/main/io_info.h</text>
</a>
</g>
</g>
<!-- Node1&#45;&gt;Node38 -->
<g id="edge43" class="edge">
<title>Node1&#45;&gt;Node38</title>
<path fill="none" stroke="midnightblue" d="M2126.83,-142.6C2353.42,-140.93 3109.3,-132.8 3349,-98 3358.24,-96.66 3368.16,-94.38 3377.04,-92.02"/>
<polygon fill="midnightblue" stroke="midnightblue" points="2126.73,-139.1 2116.76,-142.68 2126.78,-146.1 2126.73,-139.1"/>
</g>
<!-- Node41 -->
<g id="node41" class="node">
<title>Node41</title>
<g id="a_node41"><a xlink:href="io__modify_8C.html" target="_top" xlink:title=" ">
<polygon fill="white" stroke="black" points="3470.5,-73 3470.5,-92 3579.5,-92 3579.5,-73 3470.5,-73"/>
<text text-anchor="middle" x="3525" y="-80" font-family="Helvetica,sans-Serif" font-size="10.00">src/main/io_modify.C</text>
</a>
</g>
</g>
<!-- Node1&#45;&gt;Node41 -->
<g id="edge46" class="edge">
<title>Node1&#45;&gt;Node41</title>
<path fill="none" stroke="midnightblue" d="M2127.16,-142.58C2366.8,-140.79 3198.83,-132.19 3462,-98 3472.35,-96.66 3483.5,-94.37 3493.49,-92.01"/>
<polygon fill="midnightblue" stroke="midnightblue" points="2126.85,-139.09 2116.87,-142.66 2126.9,-146.09 2126.85,-139.09"/>
</g>
<!-- Node42 -->
<g id="node42" class="node">
<title>Node42</title>
<g id="a_node42"><a xlink:href="Utst__IofxDatabaseIO_8C.html" target="_top" xlink:title=" ">
<polygon fill="white" stroke="black" points="3598,-73 3598,-92 3758,-92 3758,-73 3598,-73"/>
<text text-anchor="middle" x="3678" y="-80" font-family="Helvetica,sans-Serif" font-size="10.00">src/utest/Utst_IofxDatabaseIO.C</text>
</a>
</g>
</g>
<!-- Node1&#45;&gt;Node42 -->
<g id="edge47" class="edge">
<title>Node1&#45;&gt;Node42</title>
<path fill="none" stroke="midnightblue" d="M2126.61,-142.23C2378.97,-139.07 3298.49,-125.82 3589,-98 3603.34,-96.63 3618.86,-94.37 3632.87,-92.04"/>
<polygon fill="midnightblue" stroke="midnightblue" points="2126.46,-138.74 2116.51,-142.36 2126.55,-145.73 2126.46,-138.74"/>
</g>
<!-- Node7 -->
<g id="node7" class="node">
<title>Node7</title>
<g id="a_node7"><a xlink:href="Ioss__Compare_8C.html" target="_top" xlink:title=" ">
<polygon fill="white" stroke="black" points="584,-6 584,-25 692,-25 692,-6 584,-6"/>
<text text-anchor="middle" x="638" y="-13" font-family="Helvetica,sans-Serif" font-size="10.00">src/Ioss_Compare.C</text>
</a>
</g>
</g>
<!-- Node6&#45;&gt;Node7 -->
<g id="edge6" class="edge">
<title>Node6&#45;&gt;Node7</title>
<path fill="none" stroke="midnightblue" d="M1040.95,-71.04C1033.29,-69.57 1025.44,-68.17 1018,-67 877.93,-44.98 840.76,-54.94 701,-31 691.49,-29.37 681.25,-27.2 671.86,-25.03"/>
<polygon fill="midnightblue" stroke="midnightblue" points="1040.39,-74.49 1050.87,-72.99 1041.74,-67.63 1040.39,-74.49"/>
</g>
<!-- Node8 -->
<g id="node8" class="node">
<title>Node8</title>
<g id="a_node8"><a xlink:href="Ioss__CopyDatabase_8C.html" target="_top" xlink:title=" ">
<polygon fill="white" stroke="black" points="710.5,-6 710.5,-25 843.5,-25 843.5,-6 710.5,-6"/>
<text text-anchor="middle" x="777" y="-13" font-family="Helvetica,sans-Serif" font-size="10.00">src/Ioss_CopyDatabase.C</text>
</a>
</g>
</g>
<!-- Node6&#45;&gt;Node8 -->
<g id="edge7" class="edge">
<title>Node6&#45;&gt;Node8</title>
<path fill="none" stroke="midnightblue" d="M1038.87,-70.88C977.32,-58.1 875.15,-36.88 818.33,-25.08"/>
<polygon fill="midnightblue" stroke="midnightblue" points="1038.26,-74.33 1048.76,-72.94 1039.68,-67.48 1038.26,-74.33"/>
</g>
<!-- Node9 -->
<g id="node9" class="node">
<title>Node9</title>
<g id="a_node9"><a xlink:href="Ioss__Utils_8C.html" target="_top" xlink:title=" ">
<polygon fill="white" stroke="black" points="862,-6 862,-25 948,-25 948,-6 862,-6"/>
<text text-anchor="middle" x="905" y="-13" font-family="Helvetica,sans-Serif" font-size="10.00">src/Ioss_Utils.C</text>
</a>
</g>
</g>
<!-- Node6&#45;&gt;Node9 -->
<g id="edge8" class="edge">
<title>Node6&#45;&gt;Node9</title>
<path fill="none" stroke="midnightblue" d="M1055.66,-69.44C1018.96,-56.54 961.71,-36.42 929.37,-25.06"/>
<polygon fill="midnightblue" stroke="midnightblue" points="1054.84,-72.86 1065.43,-72.87 1057.16,-66.25 1054.84,-72.86"/>
</g>
<!-- Node6&#45;&gt;Node10 -->
<g id="edge9" class="edge">
<title>Node6&#45;&gt;Node10</title>
<path fill="none" stroke="midnightblue" d="M1043.47,-71C1035.03,-69.42 1026.28,-67.99 1018,-67 613.9,-18.67 505.63,-90.35 103,-31 100.12,-30.58 97.17,-30.06 94.21,-29.48"/>
<polygon fill="midnightblue" stroke="midnightblue" points="1043.07,-74.49 1053.55,-72.99 1044.42,-67.62 1043.07,-74.49"/>
</g>
<!-- Node11 -->
<g id="node11" class="node">
<title>Node11</title>
<g id="a_node11"><a xlink:href="Iocgns__DatabaseIO_8C.html" target="_top" xlink:title=" ">
<polygon fill="white" stroke="black" points="1085.5,-6 1085.5,-25 1240.5,-25 1240.5,-6 1085.5,-6"/>
<text text-anchor="middle" x="1163" y="-13" font-family="Helvetica,sans-Serif" font-size="10.00">src/cgns/Iocgns_DatabaseIO.C</text>
</a>
</g>
</g>
<!-- Node6&#45;&gt;Node11 -->
<g id="edge10" class="edge">
<title>Node6&#45;&gt;Node11</title>
<path fill="none" stroke="midnightblue" d="M1107.57,-65.86C1121.92,-53.08 1141.67,-35.49 1153.31,-25.13"/>
<polygon fill="midnightblue" stroke="midnightblue" points="1104.99,-63.47 1099.85,-72.73 1109.64,-68.7 1104.99,-63.47"/>
</g>
<!-- Node6&#45;&gt;Node12 -->
<g id="edge11" class="edge">
<title>Node6&#45;&gt;Node12</title>
<path fill="none" stroke="midnightblue" d="M1158.44,-78.78C1414.95,-68.58 2305.51,-33.06 2320,-31 2323.24,-30.54 2326.56,-29.98 2329.89,-29.35"/>
<polygon fill="midnightblue" stroke="midnightblue" points="1157.99,-75.3 1148.14,-79.19 1158.27,-82.29 1157.99,-75.3"/>
</g>
<!-- Node13 -->
<g id="node13" class="node">
<title>Node13</title>
<g id="a_node13"><a xlink:href="io__shell_8C.html" target="_top" xlink:title=" ">
<polygon fill="white" stroke="black" points="966.5,-6 966.5,-25 1067.5,-25 1067.5,-6 966.5,-6"/>
<text text-anchor="middle" x="1017" y="-13" font-family="Helvetica,sans-Serif" font-size="10.00">src/main/io_shell.C</text>
</a>
</g>
</g>
<!-- Node6&#45;&gt;Node13 -->
<g id="edge12" class="edge">
<title>Node6&#45;&gt;Node13</title>
<path fill="none" stroke="midnightblue" d="M1072.43,-65.86C1058.08,-53.08 1038.33,-35.49 1026.69,-25.13"/>
<polygon fill="midnightblue" stroke="midnightblue" points="1070.36,-68.7 1080.15,-72.73 1075.01,-63.47 1070.36,-68.7"/>
</g>
<!-- Node14 -->
<g id="node14" class="node">
<title>Node14</title>
<g id="a_node14"><a xlink:href="io__shell__ts_8C.html" target="_top" xlink:title=" ">
<polygon fill="white" stroke="black" points="112,-6 112,-25 226,-25 226,-6 112,-6"/>
<text text-anchor="middle" x="169" y="-13" font-family="Helvetica,sans-Serif" font-size="10.00">src/main/io_shell_ts.C</text>
</a>
</g>
</g>
<!-- Node6&#45;&gt;Node14 -->
<g id="edge13" class="edge">
<title>Node6&#45;&gt;Node14</title>
<path fill="none" stroke="midnightblue" d="M1043.19,-71C1034.84,-69.43 1026.19,-68.01 1018,-67 672.24,-24.49 580.38,-76.54 235,-31 224.42,-29.6 213.02,-27.37 202.72,-25.07"/>
<polygon fill="midnightblue" stroke="midnightblue" points="1042.69,-74.47 1053.18,-72.96 1044.04,-67.6 1042.69,-74.47"/>
</g>
<!-- Node15 -->
<g id="node15" class="node">
<title>Node15</title>
<g id="a_node15"><a xlink:href="struc__to__unstruc_8C.html" target="_top" xlink:title=" ">
<polygon fill="white" stroke="black" points="1258.5,-6 1258.5,-25 1399.5,-25 1399.5,-6 1258.5,-6"/>
<text text-anchor="middle" x="1329" y="-13" font-family="Helvetica,sans-Serif" font-size="10.00">src/main/struc_to_unstruc.C</text>
</a>
</g>
</g>
<!-- Node6&#45;&gt;Node15 -->
<g id="edge14" class="edge">
<title>Node6&#45;&gt;Node15</title>
<path fill="none" stroke="midnightblue" d="M1131.65,-70.17C1178.91,-57.32 1254.94,-36.64 1297.51,-25.06"/>
<polygon fill="midnightblue" stroke="midnightblue" points="1130.47,-66.87 1121.74,-72.87 1132.31,-73.62 1130.47,-66.87"/>
</g>
<!-- Node16 -->
<g id="node16" class="node">
<title>Node16</title>
<g id="a_node16"><a xlink:href="Iopg__DatabaseIO_8C.html" target="_top" xlink:title=" ">
<polygon fill="white" stroke="black" points="244,-6 244,-25 404,-25 404,-6 244,-6"/>
<text text-anchor="middle" x="324" y="-13" font-family="Helvetica,sans-Serif" font-size="10.00">src/pamgen/Iopg_DatabaseIO.C</text>
</a>
</g>
</g>
<!-- Node6&#45;&gt;Node16 -->
<g id="edge15" class="edge">
<title>Node6&#45;&gt;Node16</title>
<path fill="none" stroke="midnightblue" d="M1042.9,-71.04C1034.63,-69.48 1026.09,-68.05 1018,-67 750.88,-32.33 680.72,-60.7 413,-31 399.31,-29.48 384.51,-27.29 370.99,-25.08"/>
<polygon fill="midnightblue" stroke="midnightblue" points="1042.31,-74.49 1052.8,-72.98 1043.66,-67.62 1042.31,-74.49"/>
</g>
<!-- Node17 -->
<g id="node17" class="node">
<title>Node17</title>
<g id="a_node17"><a xlink:href="Iovs__exodus__DatabaseIO_8C.html" target="_top" xlink:title=" ">
<polygon fill="white" stroke="black" points="422,-0.5 422,-30.5 566,-30.5 566,-0.5 422,-0.5"/>
<text text-anchor="start" x="430" y="-18.5" font-family="Helvetica,sans-Serif" font-size="10.00">src/visualization/exodus</text>
<text text-anchor="middle" x="494" y="-7.5" font-family="Helvetica,sans-Serif" font-size="10.00">/Iovs_exodus_DatabaseIO.C</text>
</a>
</g>
</g>
<!-- Node6&#45;&gt;Node17 -->
<g id="edge16" class="edge">
<title>Node6&#45;&gt;Node17</title>
<path fill="none" stroke="midnightblue" d="M1042.06,-71.03C1034.05,-69.52 1025.81,-68.1 1018,-67 822.39,-39.45 770.89,-56.43 575,-31 572.17,-30.63 569.28,-30.23 566.37,-29.81"/>
<polygon fill="midnightblue" stroke="midnightblue" points="1041.54,-74.49 1052.03,-72.98 1042.89,-67.63 1041.54,-74.49"/>
</g>
<!-- Node22&#45;&gt;Node11 -->
<g id="edge23" class="edge">
<title>Node22&#45;&gt;Node11</title>
<path fill="none" stroke="midnightblue" d="M1466.33,-71.12C1395.38,-58.34 1276.25,-36.89 1210.38,-25.03"/>
<polygon fill="midnightblue" stroke="midnightblue" points="1465.97,-74.61 1476.43,-72.94 1467.21,-67.72 1465.97,-74.61"/>
</g>
<!-- Node22&#45;&gt;Node15 -->
<g id="edge29" class="edge">
<title>Node22&#45;&gt;Node15</title>
<path fill="none" stroke="midnightblue" d="M1488.3,-69.6C1449.64,-56.71 1388.92,-36.47 1354.69,-25.06"/>
<polygon fill="midnightblue" stroke="midnightblue" points="1487.51,-73.03 1498.11,-72.87 1489.73,-66.39 1487.51,-73.03"/>
</g>
<!-- Node22&#45;&gt;Node21 -->
<g id="edge26" class="edge">
<title>Node22&#45;&gt;Node21</title>
<path fill="none" stroke="midnightblue" d="M1512.39,-64.35C1505.27,-53.82 1496.25,-40.5 1489.54,-30.59"/>
<polygon fill="midnightblue" stroke="midnightblue" points="1509.56,-66.41 1518.07,-72.73 1515.36,-62.49 1509.56,-66.41"/>
</g>
<!-- Node23 -->
<g id="node23" class="node">
<title>Node23</title>
<g id="a_node23"><a xlink:href="Iocgns__DecompositionData_8C.html" target="_top" xlink:title=" ">
<polygon fill="white" stroke="black" points="1561,-0.5 1561,-30.5 1719,-30.5 1719,-0.5 1561,-0.5"/>
<text text-anchor="start" x="1569" y="-18.5" font-family="Helvetica,sans-Serif" font-size="10.00">src/cgns/Iocgns_Decomposition</text>
<text text-anchor="middle" x="1640" y="-7.5" font-family="Helvetica,sans-Serif" font-size="10.00">Data.C</text>
</a>
</g>
</g>
<!-- Node22&#45;&gt;Node23 -->
<g id="edge24" class="edge">
<title>Node22&#45;&gt;Node23</title>
<path fill="none" stroke="midnightblue" d="M1548.53,-67.75C1568.03,-56.83 1595.2,-41.6 1614.86,-30.59"/>
<polygon fill="midnightblue" stroke="midnightblue" points="1546.66,-64.79 1539.64,-72.73 1550.08,-70.9 1546.66,-64.79"/>
</g>
<!-- Node24 -->
<g id="node24" class="node">
<title>Node24</title>
<g id="a_node24"><a xlink:href="Iocgns__IOFactory_8C.html" target="_top" xlink:title=" ">
<polygon fill="white" stroke="black" points="1737.5,-6 1737.5,-25 1882.5,-25 1882.5,-6 1737.5,-6"/>
<text text-anchor="middle" x="1810" y="-13" font-family="Helvetica,sans-Serif" font-size="10.00">src/cgns/Iocgns_IOFactory.C</text>
</a>
</g>
</g>
<!-- Node22&#45;&gt;Node24 -->
<g id="edge25" class="edge">
<title>Node22&#45;&gt;Node24</title>
<path fill="none" stroke="midnightblue" d="M1571.77,-70.64C1628.12,-57.84 1720.64,-36.81 1772.23,-25.08"/>
<polygon fill="midnightblue" stroke="midnightblue" points="1570.66,-67.31 1561.68,-72.94 1572.21,-74.13 1570.66,-67.31"/>
</g>
<!-- Node25 -->
<g id="node25" class="node">
<title>Node25</title>
<g id="a_node25"><a xlink:href="Iocgns__Utils_8C.html" target="_top" xlink:title=" ">
<polygon fill="white" stroke="black" points="1900.5,-6 1900.5,-25 2021.5,-25 2021.5,-6 1900.5,-6"/>
<text text-anchor="middle" x="1961" y="-13" font-family="Helvetica,sans-Serif" font-size="10.00">src/cgns/Iocgns_Utils.C</text>
</a>
</g>
</g>
<!-- Node22&#45;&gt;Node25 -->
<g id="edge27" class="edge">
<title>Node22&#45;&gt;Node25</title>
<path fill="none" stroke="midnightblue" d="M1574.98,-71.02C1582.68,-69.58 1590.54,-68.19 1598,-67 1727.57,-46.37 1761.54,-52.32 1891,-31 1901.29,-29.31 1912.36,-27.16 1922.59,-25.05"/>
<polygon fill="midnightblue" stroke="midnightblue" points="1574.17,-67.61 1565.01,-72.92 1575.49,-74.48 1574.17,-67.61"/>
</g>
<!-- Node26 -->
<g id="node26" class="node">
<title>Node26</title>
<g id="a_node26"><a xlink:href="cgns__decomp_8C.html" target="_top" xlink:title=" ">
<polygon fill="white" stroke="black" points="2039.5,-6 2039.5,-25 2168.5,-25 2168.5,-6 2039.5,-6"/>
<text text-anchor="middle" x="2104" y="-13" font-family="Helvetica,sans-Serif" font-size="10.00">src/main/cgns_decomp.C</text>
</a>
</g>
</g>
<!-- Node22&#45;&gt;Node26 -->
<g id="edge28" class="edge">
<title>Node22&#45;&gt;Node26</title>
<path fill="none" stroke="midnightblue" d="M1573.29,-71.06C1581.52,-69.54 1589.98,-68.12 1598,-67 1788.83,-40.44 1839.17,-57.56 2030,-31 2041.28,-29.43 2053.44,-27.25 2064.58,-25.06"/>
<polygon fill="midnightblue" stroke="midnightblue" points="1572.59,-67.63 1563.42,-72.94 1573.9,-74.5 1572.59,-67.63"/>
</g>
<!-- Node27 -->
<g id="node27" class="node">
<title>Node27</title>
<g id="a_node27"><a xlink:href="Utst__structured__decomp_8C.html" target="_top" xlink:title=" ">
<polygon fill="white" stroke="black" points="2186.5,-0.5 2186.5,-30.5 2311.5,-30.5 2311.5,-0.5 2186.5,-0.5"/>
<text text-anchor="start" x="2194.5" y="-18.5" font-family="Helvetica,sans-Serif" font-size="10.00">src/utest/Utst_structured</text>
<text text-anchor="middle" x="2249" y="-7.5" font-family="Helvetica,sans-Serif" font-size="10.00">_decomp.C</text>
</a>
</g>
</g>
<!-- Node22&#45;&gt;Node27 -->
<g id="edge30" class="edge">
<title>Node22&#45;&gt;Node27</title>
<path fill="none" stroke="midnightblue" d="M1572.7,-71.01C1581.11,-69.48 1589.78,-68.06 1598,-67 1853.73,-34.14 1921.36,-64.53 2177,-31 2180.03,-30.6 2183.13,-30.15 2186.26,-29.66"/>
<polygon fill="midnightblue" stroke="midnightblue" points="1571.8,-67.62 1562.63,-72.93 1573.11,-74.5 1571.8,-67.62"/>
</g>
<!-- Node31&#45;&gt;Node12 -->
<g id="edge36" class="edge">
<title>Node31&#45;&gt;Node12</title>
<path fill="none" stroke="midnightblue" d="M1757.59,-67.11C2006.9,-31.76 2075.44,-68.57 2320,-31 2323.23,-30.5 2326.55,-29.91 2329.88,-29.26"/>
<polygon fill="midnightblue" stroke="midnightblue" points="1756.9,-63.67 1747.5,-68.56 1757.9,-70.6 1756.9,-63.67"/>
</g>
<!-- Node32 -->
<g id="node32" class="node">
<title>Node32</title>
<g id="a_node32"><a xlink:href="Iofaodel__FieldSerialization_8C.html" target="_top" xlink:title=" ">
<polygon fill="white" stroke="black" points="2446,-0.5 2446,-30.5 2554,-30.5 2554,-0.5 2446,-0.5"/>
<text text-anchor="start" x="2454" y="-18.5" font-family="Helvetica,sans-Serif" font-size="10.00">src/faodel/Iofaodel</text>
<text text-anchor="middle" x="2500" y="-7.5" font-family="Helvetica,sans-Serif" font-size="10.00">_FieldSerialization.C</text>
</a>
</g>
</g>
<!-- Node31&#45;&gt;Node32 -->
<g id="edge37" class="edge">
<title>Node31&#45;&gt;Node32</title>
<path fill="none" stroke="midnightblue" d="M1758.16,-67.03C2058.54,-25.97 2140.66,-72.63 2437,-31 2439.89,-30.59 2442.84,-30.12 2445.82,-29.6"/>
<polygon fill="midnightblue" stroke="midnightblue" points="1757.27,-63.62 1747.84,-68.46 1758.23,-70.55 1757.27,-63.62"/>
</g>
<!-- Node39 -->
<g id="node39" class="node">
<title>Node39</title>
<g id="a_node39"><a xlink:href="io__info_8C.html" target="_top" xlink:title=" ">
<polygon fill="white" stroke="black" points="3291.5,-6 3291.5,-25 3388.5,-25 3388.5,-6 3291.5,-6"/>
<text text-anchor="middle" x="3340" y="-13" font-family="Helvetica,sans-Serif" font-size="10.00">src/main/io_info.C</text>
</a>
</g>
</g>
<!-- Node38&#45;&gt;Node39 -->
<g id="edge44" class="edge">
<title>Node38&#45;&gt;Node39</title>
<path fill="none" stroke="midnightblue" d="M3389,-65.5C3376.25,-52.75 3358.89,-35.39 3348.63,-25.13"/>
<polygon fill="midnightblue" stroke="midnightblue" points="3386.69,-68.14 3396.23,-72.73 3391.64,-63.19 3386.69,-68.14"/>
</g>
<!-- Node40 -->
<g id="node40" class="node">
<title>Node40</title>
<g id="a_node40"><a xlink:href="io__info__main_8C.html" target="_top" xlink:title=" ">
<polygon fill="white" stroke="black" points="3407,-6 3407,-25 3531,-25 3531,-6 3407,-6"/>
<text text-anchor="middle" x="3469" y="-13" font-family="Helvetica,sans-Serif" font-size="10.00">src/main/io_info_main.C</text>
</a>
</g>
</g>
<!-- Node38&#45;&gt;Node40 -->
<g id="edge45" class="edge">
<title>Node38&#45;&gt;Node40</title>
<path fill="none" stroke="midnightblue" d="M3420.76,-65.5C3433.31,-52.75 3450.4,-35.39 3460.51,-25.13"/>
<polygon fill="midnightblue" stroke="midnightblue" points="3418.15,-63.15 3413.63,-72.73 3423.14,-68.06 3418.15,-63.15"/>
</g>
</g>
</svg>
