<?xml version="1.0" encoding="UTF-8" standalone="no"?>
<!DOCTYPE svg PUBLIC "-//W3C//DTD SVG 1.1//EN"
 "http://www.w3.org/Graphics/SVG/1.1/DTD/svg11.dtd">
<!-- Generated by graphviz version 2.50.0 (20211204.2007)
 -->
<!-- Title: src/Ioss_Tet4.h Pages: 1 -->
<svg width="623pt" height="296pt"
 viewBox="0.00 0.00 622.50 296.00" xmlns="http://www.w3.org/2000/svg" xmlns:xlink="http://www.w3.org/1999/xlink">
<g id="graph0" class="graph" transform="scale(1 1) rotate(0) translate(4 292)">
<title>src/Ioss_Tet4.h</title>
<polygon fill="white" stroke="transparent" points="-4,4 -4,-292 618.5,-292 618.5,4 -4,4"/>
<!-- Node1 -->
<g id="node1" class="node">
<title>Node1</title>
<g id="a_node1"><a xlink:title=" ">
<polygon fill="#bfbfbf" stroke="black" points="331,-268.5 331,-287.5 415,-287.5 415,-268.5 331,-268.5"/>
<text text-anchor="middle" x="373" y="-275.5" font-family="Helvetica,sans-Serif" font-size="10.00">src/Ioss_Tet4.h</text>
</a>
</g>
</g>
<!-- Node2 -->
<g id="node2" class="node">
<title>Node2</title>
<g id="a_node2"><a xlink:href="Ioss__StandardElementTypes_8h.html" target="_top" xlink:title=" ">
<polygon fill="white" stroke="black" points="119,-201.5 119,-231.5 251,-231.5 251,-201.5 119,-201.5"/>
<text text-anchor="start" x="127" y="-219.5" font-family="Helvetica,sans-Serif" font-size="10.00">src/Ioss_StandardElement</text>
<text text-anchor="middle" x="185" y="-208.5" font-family="Helvetica,sans-Serif" font-size="10.00">Types.h</text>
</a>
</g>
</g>
<!-- Node1&#45;&gt;Node2 -->
<g id="edge1" class="edge">
<title>Node1&#45;&gt;Node2</title>
<path fill="none" stroke="midnightblue" d="M336.21,-265.36C305.58,-255.66 261.86,-241.83 229.31,-231.52"/>
<polygon fill="midnightblue" stroke="midnightblue" points="335.47,-268.79 346.06,-268.48 337.59,-262.12 335.47,-268.79"/>
</g>
<!-- Node10 -->
<g id="node10" class="node">
<title>Node10</title>
<g id="a_node10"><a xlink:href="Ioss__Tet4_8C.html" target="_top" xlink:title=" ">
<polygon fill="white" stroke="black" points="269,-207 269,-226 355,-226 355,-207 269,-207"/>
<text text-anchor="middle" x="312" y="-214" font-family="Helvetica,sans-Serif" font-size="10.00">src/Ioss_Tet4.C</text>
</a>
</g>
</g>
<!-- Node1&#45;&gt;Node10 -->
<g id="edge11" class="edge">
<title>Node1&#45;&gt;Node10</title>
<path fill="none" stroke="midnightblue" d="M356.93,-261.32C345.34,-250.02 330.14,-235.19 320.72,-226.01"/>
<polygon fill="midnightblue" stroke="midnightblue" points="354.66,-264 364.26,-268.48 359.55,-258.99 354.66,-264"/>
</g>
<!-- Node11 -->
<g id="node11" class="node">
<title>Node11</title>
<g id="a_node11"><a xlink:href="Iocgns__Utils_8C.html" target="_top" xlink:title=" ">
<polygon fill="white" stroke="black" points="373,-207 373,-226 495,-226 495,-207 373,-207"/>
<text text-anchor="middle" x="434" y="-214" font-family="Helvetica,sans-Serif" font-size="10.00">src/cgns/Iocgns_Utils.C</text>
</a>
</g>
</g>
<!-- Node1&#45;&gt;Node11 -->
<g id="edge12" class="edge">
<title>Node1&#45;&gt;Node11</title>
<path fill="none" stroke="midnightblue" d="M389.07,-261.32C400.66,-250.02 415.86,-235.19 425.28,-226.01"/>
<polygon fill="midnightblue" stroke="midnightblue" points="386.45,-258.99 381.74,-268.48 391.34,-264 386.45,-258.99"/>
</g>
<!-- Node12 -->
<g id="node12" class="node">
<title>Node12</title>
<g id="a_node12"><a xlink:href="Iogn__GeneratedMesh_8C.html" target="_top" xlink:title=" ">
<polygon fill="white" stroke="black" points="513.5,-201.5 513.5,-231.5 614.5,-231.5 614.5,-201.5 513.5,-201.5"/>
<text text-anchor="start" x="521.5" y="-219.5" font-family="Helvetica,sans-Serif" font-size="10.00">src/generated/Iogn</text>
<text text-anchor="middle" x="564" y="-208.5" font-family="Helvetica,sans-Serif" font-size="10.00">_GeneratedMesh.C</text>
</a>
</g>
</g>
<!-- Node1&#45;&gt;Node12 -->
<g id="edge13" class="edge">
<title>Node1&#45;&gt;Node12</title>
<path fill="none" stroke="midnightblue" d="M409.97,-265.48C441.11,-255.78 485.77,-241.87 518.99,-231.52"/>
<polygon fill="midnightblue" stroke="midnightblue" points="408.87,-262.16 400.37,-268.48 410.95,-268.84 408.87,-262.16"/>
</g>
<!-- Node3 -->
<g id="node3" class="node">
<title>Node3</title>
<g id="a_node3"><a xlink:href="Ioss__Initializer_8C.html" target="_top" xlink:title=" ">
<polygon fill="white" stroke="black" points="0,-140 0,-159 106,-159 106,-140 0,-140"/>
<text text-anchor="middle" x="53" y="-147" font-family="Helvetica,sans-Serif" font-size="10.00">src/Ioss_Initializer.C</text>
</a>
</g>
</g>
<!-- Node2&#45;&gt;Node3 -->
<g id="edge2" class="edge">
<title>Node2&#45;&gt;Node3</title>
<path fill="none" stroke="midnightblue" d="M147.36,-196.97C122.01,-184.48 89.75,-168.6 70.28,-159.01"/>
<polygon fill="midnightblue" stroke="midnightblue" points="145.84,-200.12 156.36,-201.4 148.93,-193.84 145.84,-200.12"/>
</g>
<!-- Node4 -->
<g id="node4" class="node">
<title>Node4</title>
<g id="a_node4"><a xlink:href="Iotm__TextMesh_8h.html" target="_top" xlink:title=" ">
<polygon fill="white" stroke="black" points="118.5,-67.5 118.5,-97.5 219.5,-97.5 219.5,-67.5 118.5,-67.5"/>
<text text-anchor="start" x="126.5" y="-85.5" font-family="Helvetica,sans-Serif" font-size="10.00">src/text_mesh/Iotm</text>
<text text-anchor="middle" x="169" y="-74.5" font-family="Helvetica,sans-Serif" font-size="10.00">_TextMesh.h</text>
</a>
</g>
</g>
<!-- Node2&#45;&gt;Node4 -->
<g id="edge3" class="edge">
<title>Node2&#45;&gt;Node4</title>
<path fill="none" stroke="midnightblue" d="M166.79,-192.8C161.23,-184.54 155.85,-174.81 153,-165 146.25,-141.73 155.25,-113.91 162.23,-97.52"/>
<polygon fill="midnightblue" stroke="midnightblue" points="164.09,-195.05 172.76,-201.12 169.77,-190.96 164.09,-195.05"/>
</g>
<!-- Node7 -->
<g id="node7" class="node">
<title>Node7</title>
<g id="a_node7"><a xlink:href="Iotm__TextMeshTopologyMapping_8h.html" target="_top" xlink:title=" ">
<polygon fill="white" stroke="black" points="162.5,-134.5 162.5,-164.5 311.5,-164.5 311.5,-134.5 162.5,-134.5"/>
<text text-anchor="start" x="170.5" y="-152.5" font-family="Helvetica,sans-Serif" font-size="10.00">src/text_mesh/Iotm</text>
<text text-anchor="middle" x="237" y="-141.5" font-family="Helvetica,sans-Serif" font-size="10.00">_TextMeshTopologyMapping.h</text>
</a>
</g>
</g>
<!-- Node2&#45;&gt;Node7 -->
<g id="edge6" class="edge">
<title>Node2&#45;&gt;Node7</title>
<path fill="none" stroke="midnightblue" d="M202.64,-193.45C210.28,-183.9 219,-173 225.74,-164.58"/>
<polygon fill="midnightblue" stroke="midnightblue" points="199.8,-191.4 196.28,-201.4 205.26,-195.77 199.8,-191.4"/>
</g>
<!-- Node8 -->
<g id="node8" class="node">
<title>Node8</title>
<g id="a_node8"><a xlink:href="UnitTestIotmTextMeshFixture_8h.html" target="_top" xlink:title=" ">
<polygon fill="white" stroke="black" points="263.5,-67.5 263.5,-97.5 398.5,-97.5 398.5,-67.5 263.5,-67.5"/>
<text text-anchor="start" x="271.5" y="-85.5" font-family="Helvetica,sans-Serif" font-size="10.00">src/unit_tests/UnitTestIotm</text>
<text text-anchor="middle" x="331" y="-74.5" font-family="Helvetica,sans-Serif" font-size="10.00">TextMeshFixture.h</text>
</a>
</g>
</g>
<!-- Node2&#45;&gt;Node8 -->
<g id="edge10" class="edge">
<title>Node2&#45;&gt;Node8</title>
<path fill="none" stroke="midnightblue" d="M248.56,-198.55C278.77,-189.19 310.39,-177.05 320,-165 335.41,-145.69 335.01,-115.26 333.14,-97.56"/>
<polygon fill="midnightblue" stroke="midnightblue" points="247.38,-195.25 238.82,-201.49 249.41,-201.95 247.38,-195.25"/>
</g>
<!-- Node5 -->
<g id="node5" class="node">
<title>Node5</title>
<g id="a_node5"><a xlink:href="Iotm__DatabaseIO_8C.html" target="_top" xlink:title=" ">
<polygon fill="white" stroke="black" points="16.5,-0.5 16.5,-30.5 117.5,-30.5 117.5,-0.5 16.5,-0.5"/>
<text text-anchor="start" x="24.5" y="-18.5" font-family="Helvetica,sans-Serif" font-size="10.00">src/text_mesh/Iotm</text>
<text text-anchor="middle" x="67" y="-7.5" font-family="Helvetica,sans-Serif" font-size="10.00">_DatabaseIO.C</text>
</a>
</g>
</g>
<!-- Node4&#45;&gt;Node5 -->
<g id="edge4" class="edge">
<title>Node4&#45;&gt;Node5</title>
<path fill="none" stroke="midnightblue" d="M138.42,-62.02C122.55,-51.9 103.52,-39.77 89.09,-30.58"/>
<polygon fill="midnightblue" stroke="midnightblue" points="136.55,-64.97 146.87,-67.4 140.32,-59.07 136.55,-64.97"/>
</g>
<!-- Node6 -->
<g id="node6" class="node">
<title>Node6</title>
<g id="a_node6"><a xlink:href="Iotm__TextMesh_8C.html" target="_top" xlink:title=" ">
<polygon fill="white" stroke="black" points="135.5,-0.5 135.5,-30.5 236.5,-30.5 236.5,-0.5 135.5,-0.5"/>
<text text-anchor="start" x="143.5" y="-18.5" font-family="Helvetica,sans-Serif" font-size="10.00">src/text_mesh/Iotm</text>
<text text-anchor="middle" x="186" y="-7.5" font-family="Helvetica,sans-Serif" font-size="10.00">_TextMesh.C</text>
</a>
</g>
</g>
<!-- Node4&#45;&gt;Node6 -->
<g id="edge5" class="edge">
<title>Node4&#45;&gt;Node6</title>
<path fill="none" stroke="midnightblue" d="M175.23,-57.7C177.61,-48.59 180.25,-38.49 182.32,-30.58"/>
<polygon fill="midnightblue" stroke="midnightblue" points="171.83,-56.84 172.69,-67.4 178.61,-58.61 171.83,-56.84"/>
</g>
<!-- Node7&#45;&gt;Node4 -->
<g id="edge7" class="edge">
<title>Node7&#45;&gt;Node4</title>
<path fill="none" stroke="midnightblue" d="M214.83,-127.31C204.63,-117.56 192.81,-106.26 183.73,-97.58"/>
<polygon fill="midnightblue" stroke="midnightblue" points="212.6,-130.02 222.25,-134.4 217.43,-124.96 212.6,-130.02"/>
</g>
<!-- Node7&#45;&gt;Node8 -->
<g id="edge8" class="edge">
<title>Node7&#45;&gt;Node8</title>
<path fill="none" stroke="midnightblue" d="M265.99,-128.45C280.45,-118.45 297.59,-106.6 310.64,-97.58"/>
<polygon fill="midnightblue" stroke="midnightblue" points="263.63,-125.83 257.4,-134.4 267.61,-131.59 263.63,-125.83"/>
</g>
<!-- Node9 -->
<g id="node9" class="node">
<title>Node9</title>
<g id="a_node9"><a xlink:href="UnitTestTextMesh_8C.html" target="_top" xlink:title=" ">
<polygon fill="white" stroke="black" points="264,-0.5 264,-30.5 398,-30.5 398,-0.5 264,-0.5"/>
<text text-anchor="start" x="272" y="-18.5" font-family="Helvetica,sans-Serif" font-size="10.00">src/unit_tests/UnitTestText</text>
<text text-anchor="middle" x="331" y="-7.5" font-family="Helvetica,sans-Serif" font-size="10.00">Mesh.C</text>
</a>
</g>
</g>
<!-- Node8&#45;&gt;Node9 -->
<g id="edge9" class="edge">
<title>Node8&#45;&gt;Node9</title>
<path fill="none" stroke="midnightblue" d="M331,-57.11C331,-48.15 331,-38.32 331,-30.58"/>
<polygon fill="midnightblue" stroke="midnightblue" points="327.5,-57.4 331,-67.4 334.5,-57.4 327.5,-57.4"/>
</g>
</g>
</svg>
