<?xml version="1.0" encoding="UTF-8" standalone="no"?>
<!DOCTYPE svg PUBLIC "-//W3C//DTD SVG 1.1//EN"
 "http://www.w3.org/Graphics/SVG/1.1/DTD/svg11.dtd">
<!-- Generated by graphviz version 3.0.0 (20220226.1711)
 -->
<!-- Title: src/Ioss_Assembly.h Pages: 1 -->
<svg width="2233pt" height="162pt"
 viewBox="0.00 0.00 2233.00 162.00" xmlns="http://www.w3.org/2000/svg" xmlns:xlink="http://www.w3.org/1999/xlink">
<g id="graph0" class="graph" transform="scale(1 1) rotate(0) translate(4 158)">
<title>src/Ioss_Assembly.h</title>
<polygon fill="white" stroke="transparent" points="-4,4 -4,-158 2229,-158 2229,4 -4,4"/>
<!-- Node1 -->
<g id="node1" class="node">
<title>Node1</title>
<g id="a_node1"><a xlink:title=" ">
<polygon fill="#bfbfbf" stroke="black" points="1285,-134.5 1285,-153.5 1392,-153.5 1392,-134.5 1285,-134.5"/>
<text text-anchor="middle" x="1338.5" y="-141.5" font-family="Helvetica,sans-Serif" font-size="10.00">src/Ioss_Assembly.h</text>
</a>
</g>
</g>
<!-- Node2 -->
<g id="node2" class="node">
<title>Node2</title>
<g id="a_node2"><a xlink:href="Ioss__Assembly_8C.html" target="_top" xlink:title=" ">
<polygon fill="white" stroke="black" points="415.5,-73 415.5,-92 525.5,-92 525.5,-73 415.5,-73"/>
<text text-anchor="middle" x="470.5" y="-80" font-family="Helvetica,sans-Serif" font-size="10.00">src/Ioss_Assembly.C</text>
</a>
</g>
</g>
<!-- Node1&#45;&gt;Node2 -->
<g id="edge1" class="edge">
<title>Node1&#45;&gt;Node2</title>
<path fill="none" stroke="midnightblue" d="M1274.28,-143.03C1137.52,-142.3 807.74,-136.33 534.5,-98 524.23,-96.56 513.18,-94.31 503.19,-92.01"/>
<polygon fill="midnightblue" stroke="midnightblue" points="1274.55,-146.53 1284.57,-143.08 1274.58,-139.53 1274.55,-146.53"/>
</g>
<!-- Node3 -->
<g id="node3" class="node">
<title>Node3</title>
<g id="a_node3"><a xlink:href="Ioss__Region_8C.html" target="_top" xlink:title=" ">
<polygon fill="white" stroke="black" points="543.5,-73 543.5,-92 641.5,-92 641.5,-73 543.5,-73"/>
<text text-anchor="middle" x="592.5" y="-80" font-family="Helvetica,sans-Serif" font-size="10.00">src/Ioss_Region.C</text>
</a>
</g>
</g>
<!-- Node1&#45;&gt;Node3 -->
<g id="edge2" class="edge">
<title>Node1&#45;&gt;Node3</title>
<path fill="none" stroke="midnightblue" d="M1274.32,-142.64C1152.15,-141.1 878.03,-133.59 650.5,-98 641.27,-96.56 631.36,-94.34 622.39,-92.06"/>
<polygon fill="midnightblue" stroke="midnightblue" points="1274.57,-146.14 1284.61,-142.76 1274.66,-139.14 1274.57,-146.14"/>
</g>
<!-- Node4 -->
<g id="node4" class="node">
<title>Node4</title>
<g id="a_node4"><a xlink:href="Ioss__SubSystem_8h.html" target="_top" xlink:title=" ">
<polygon fill="white" stroke="black" points="659.5,-73 659.5,-92 775.5,-92 775.5,-73 659.5,-73"/>
<text text-anchor="middle" x="717.5" y="-80" font-family="Helvetica,sans-Serif" font-size="10.00">src/Ioss_SubSystem.h</text>
</a>
</g>
</g>
<!-- Node1&#45;&gt;Node4 -->
<g id="edge3" class="edge">
<title>Node1&#45;&gt;Node4</title>
<path fill="none" stroke="midnightblue" d="M1274.47,-140.55C1170.99,-135.97 960.77,-124.12 784.5,-98 774.14,-96.47 762.99,-94.27 752.81,-92.05"/>
<polygon fill="midnightblue" stroke="midnightblue" points="1274.61,-144.06 1284.75,-140.99 1274.91,-137.06 1274.61,-144.06"/>
</g>
<!-- Node16 -->
<g id="node16" class="node">
<title>Node16</title>
<g id="a_node16"><a xlink:href="Iocatalyst__DatabaseIO_8C.html" target="_top" xlink:title=" ">
<polygon fill="white" stroke="black" points="794,-67.5 794,-97.5 907,-97.5 907,-67.5 794,-67.5"/>
<text text-anchor="start" x="802" y="-85.5" font-family="Helvetica,sans-Serif" font-size="10.00">src/catalyst/Iocatalyst</text>
<text text-anchor="middle" x="850.5" y="-74.5" font-family="Helvetica,sans-Serif" font-size="10.00">_DatabaseIO.C</text>
</a>
</g>
</g>
<!-- Node1&#45;&gt;Node16 -->
<g id="edge15" class="edge">
<title>Node1&#45;&gt;Node16</title>
<path fill="none" stroke="midnightblue" d="M1274.94,-138.41C1192.09,-131.94 1042.86,-118.55 916.5,-98 913.49,-97.51 910.41,-96.97 907.31,-96.4"/>
<polygon fill="midnightblue" stroke="midnightblue" points="1274.71,-141.91 1284.95,-139.19 1275.25,-134.93 1274.71,-141.91"/>
</g>
<!-- Node17 -->
<g id="node17" class="node">
<title>Node17</title>
<g id="a_node17"><a xlink:href="Iocgns__Utils_8C.html" target="_top" xlink:title=" ">
<polygon fill="white" stroke="black" points="925.5,-73 925.5,-92 1047.5,-92 1047.5,-73 925.5,-73"/>
<text text-anchor="middle" x="986.5" y="-80" font-family="Helvetica,sans-Serif" font-size="10.00">src/cgns/Iocgns_Utils.C</text>
</a>
</g>
</g>
<!-- Node1&#45;&gt;Node17 -->
<g id="edge16" class="edge">
<title>Node1&#45;&gt;Node17</title>
<path fill="none" stroke="midnightblue" d="M1274.85,-133.7C1217.6,-125.13 1131.26,-111.7 1056.5,-98 1046.61,-96.19 1035.97,-94.07 1026.05,-92.02"/>
<polygon fill="midnightblue" stroke="midnightblue" points="1274.43,-137.17 1284.84,-135.19 1275.46,-130.25 1274.43,-137.17"/>
</g>
<!-- Node18 -->
<g id="node18" class="node">
<title>Node18</title>
<g id="a_node18"><a xlink:href="Ioex__BaseDatabaseIO_8C.html" target="_top" xlink:title=" ">
<polygon fill="white" stroke="black" points="1066,-73 1066,-92 1243,-92 1243,-73 1066,-73"/>
<text text-anchor="middle" x="1154.5" y="-80" font-family="Helvetica,sans-Serif" font-size="10.00">src/exodus/Ioex_BaseDatabaseIO.C</text>
</a>
</g>
</g>
<!-- Node1&#45;&gt;Node18 -->
<g id="edge17" class="edge">
<title>Node1&#45;&gt;Node18</title>
<path fill="none" stroke="midnightblue" d="M1302.57,-131.38C1266.8,-119.82 1212.76,-102.34 1180.81,-92.01"/>
<polygon fill="midnightblue" stroke="midnightblue" points="1301.55,-134.73 1312.14,-134.48 1303.7,-128.07 1301.55,-134.73"/>
</g>
<!-- Node19 -->
<g id="node19" class="node">
<title>Node19</title>
<g id="a_node19"><a xlink:href="Ioex__DatabaseIO_8C.html" target="_top" xlink:title=" ">
<polygon fill="white" stroke="black" points="1261,-73 1261,-92 1416,-92 1416,-73 1261,-73"/>
<text text-anchor="middle" x="1338.5" y="-80" font-family="Helvetica,sans-Serif" font-size="10.00">src/exodus/Ioex_DatabaseIO.C</text>
</a>
</g>
</g>
<!-- Node1&#45;&gt;Node19 -->
<g id="edge18" class="edge">
<title>Node1&#45;&gt;Node19</title>
<path fill="none" stroke="midnightblue" d="M1338.5,-124.32C1338.5,-113.5 1338.5,-100.4 1338.5,-92.01"/>
<polygon fill="midnightblue" stroke="midnightblue" points="1335,-124.48 1338.5,-134.48 1342,-124.48 1335,-124.48"/>
</g>
<!-- Node20 -->
<g id="node20" class="node">
<title>Node20</title>
<g id="a_node20"><a xlink:href="Ioex__Internals_8C.html" target="_top" xlink:title=" ">
<polygon fill="white" stroke="black" points="1434.5,-73 1434.5,-92 1574.5,-92 1574.5,-73 1434.5,-73"/>
<text text-anchor="middle" x="1504.5" y="-80" font-family="Helvetica,sans-Serif" font-size="10.00">src/exodus/Ioex_Internals.C</text>
</a>
</g>
</g>
<!-- Node1&#45;&gt;Node20 -->
<g id="edge19" class="edge">
<title>Node1&#45;&gt;Node20</title>
<path fill="none" stroke="midnightblue" d="M1371.75,-131.08C1404.02,-119.52 1452.18,-102.25 1480.76,-92.01"/>
<polygon fill="midnightblue" stroke="midnightblue" points="1370.52,-127.81 1362.28,-134.48 1372.88,-134.4 1370.52,-127.81"/>
</g>
<!-- Node21 -->
<g id="node21" class="node">
<title>Node21</title>
<g id="a_node21"><a xlink:href="Ioex__Utils_8C.html" target="_top" xlink:title=" ">
<polygon fill="white" stroke="black" points="1592.5,-73 1592.5,-92 1714.5,-92 1714.5,-73 1592.5,-73"/>
<text text-anchor="middle" x="1653.5" y="-80" font-family="Helvetica,sans-Serif" font-size="10.00">src/exodus/Ioex_Utils.C</text>
</a>
</g>
</g>
<!-- Node1&#45;&gt;Node21 -->
<g id="edge20" class="edge">
<title>Node1&#45;&gt;Node21</title>
<path fill="none" stroke="midnightblue" d="M1396.83,-132.67C1446.51,-123.78 1519.77,-110.45 1583.5,-98 1593.12,-96.12 1603.47,-94.02 1613.18,-92.01"/>
<polygon fill="midnightblue" stroke="midnightblue" points="1396.14,-129.24 1386.91,-134.44 1397.37,-136.13 1396.14,-129.24"/>
</g>
<!-- Node22 -->
<g id="node22" class="node">
<title>Node22</title>
<g id="a_node22"><a xlink:href="io__info_8h.html" target="_top" xlink:title=" ">
<polygon fill="white" stroke="black" points="1732.5,-73 1732.5,-92 1826.5,-92 1826.5,-73 1732.5,-73"/>
<text text-anchor="middle" x="1779.5" y="-80" font-family="Helvetica,sans-Serif" font-size="10.00">src/main/io_info.h</text>
</a>
</g>
</g>
<!-- Node1&#45;&gt;Node22 -->
<g id="edge21" class="edge">
<title>Node1&#45;&gt;Node22</title>
<path fill="none" stroke="midnightblue" d="M1402.08,-138.26C1478.74,-131.92 1611.29,-118.98 1723.5,-98 1732.09,-96.39 1741.31,-94.2 1749.74,-92.01"/>
<polygon fill="midnightblue" stroke="midnightblue" points="1401.78,-134.77 1392.1,-139.07 1402.35,-141.74 1401.78,-134.77"/>
</g>
<!-- Node25 -->
<g id="node25" class="node">
<title>Node25</title>
<g id="a_node25"><a xlink:href="io__modify_8C.html" target="_top" xlink:title=" ">
<polygon fill="white" stroke="black" points="1844.5,-73 1844.5,-92 1952.5,-92 1952.5,-73 1844.5,-73"/>
<text text-anchor="middle" x="1898.5" y="-80" font-family="Helvetica,sans-Serif" font-size="10.00">src/main/io_modify.C</text>
</a>
</g>
</g>
<!-- Node1&#45;&gt;Node25 -->
<g id="edge24" class="edge">
<title>Node1&#45;&gt;Node25</title>
<path fill="none" stroke="midnightblue" d="M1402.13,-140.01C1497,-134.93 1680.93,-122.67 1835.5,-98 1845.25,-96.44 1855.75,-94.24 1865.32,-92.03"/>
<polygon fill="midnightblue" stroke="midnightblue" points="1401.92,-136.52 1392.12,-140.54 1402.29,-143.51 1401.92,-136.52"/>
</g>
<!-- Node26 -->
<g id="node26" class="node">
<title>Node26</title>
<g id="a_node26"><a xlink:href="Iotm__DatabaseIO_8C.html" target="_top" xlink:title=" ">
<polygon fill="white" stroke="black" points="1971,-67.5 1971,-97.5 2072,-97.5 2072,-67.5 1971,-67.5"/>
<text text-anchor="start" x="1979" y="-85.5" font-family="Helvetica,sans-Serif" font-size="10.00">src/text_mesh/Iotm</text>
<text text-anchor="middle" x="2021.5" y="-74.5" font-family="Helvetica,sans-Serif" font-size="10.00">_DatabaseIO.C</text>
</a>
</g>
</g>
<!-- Node1&#45;&gt;Node26 -->
<g id="edge25" class="edge">
<title>Node1&#45;&gt;Node26</title>
<path fill="none" stroke="midnightblue" d="M1402.4,-141.86C1515.68,-139.06 1758.89,-129.58 1961.5,-98 1964.57,-97.52 1967.72,-96.97 1970.88,-96.36"/>
<polygon fill="midnightblue" stroke="midnightblue" points="1402.09,-138.36 1392.17,-142.1 1402.25,-145.36 1402.09,-138.36"/>
</g>
<!-- Node27 -->
<g id="node27" class="node">
<title>Node27</title>
<g id="a_node27"><a xlink:href="UnitTestIotmTextMeshFixture_8h.html" target="_top" xlink:title=" ">
<polygon fill="white" stroke="black" points="2090,-67.5 2090,-97.5 2225,-97.5 2225,-67.5 2090,-67.5"/>
<text text-anchor="start" x="2098" y="-85.5" font-family="Helvetica,sans-Serif" font-size="10.00">src/unit_tests/UnitTestIotm</text>
<text text-anchor="middle" x="2157.5" y="-74.5" font-family="Helvetica,sans-Serif" font-size="10.00">TextMeshFixture.h</text>
</a>
</g>
</g>
<!-- Node1&#45;&gt;Node27 -->
<g id="edge26" class="edge">
<title>Node1&#45;&gt;Node27</title>
<path fill="none" stroke="midnightblue" d="M1402.42,-141.88C1531.33,-139.02 1831.49,-129.29 2081.5,-98 2084.17,-97.67 2086.88,-97.3 2089.62,-96.9"/>
<polygon fill="midnightblue" stroke="midnightblue" points="1402.25,-138.38 1392.33,-142.1 1402.4,-145.38 1402.25,-138.38"/>
</g>
<!-- Node5 -->
<g id="node5" class="node">
<title>Node5</title>
<g id="a_node5"><a xlink:href="Ioss__Compare_8C.html" target="_top" xlink:title=" ">
<polygon fill="white" stroke="black" points="0,-6 0,-25 107,-25 107,-6 0,-6"/>
<text text-anchor="middle" x="53.5" y="-13" font-family="Helvetica,sans-Serif" font-size="10.00">src/Ioss_Compare.C</text>
</a>
</g>
</g>
<!-- Node4&#45;&gt;Node5 -->
<g id="edge4" class="edge">
<title>Node4&#45;&gt;Node5</title>
<path fill="none" stroke="midnightblue" d="M672.68,-70.86C665.3,-69.38 657.71,-68.02 650.5,-67 414.52,-33.71 351.19,-66.25 115.5,-31 105.66,-29.53 95.08,-27.3 85.49,-25.03"/>
<polygon fill="midnightblue" stroke="midnightblue" points="672.05,-74.3 682.55,-72.93 673.49,-67.45 672.05,-74.3"/>
</g>
<!-- Node6 -->
<g id="node6" class="node">
<title>Node6</title>
<g id="a_node6"><a xlink:href="Ioss__CopyDatabase_8C.html" target="_top" xlink:title=" ">
<polygon fill="white" stroke="black" points="125,-6 125,-25 258,-25 258,-6 125,-6"/>
<text text-anchor="middle" x="191.5" y="-13" font-family="Helvetica,sans-Serif" font-size="10.00">src/Ioss_CopyDatabase.C</text>
</a>
</g>
</g>
<!-- Node4&#45;&gt;Node6 -->
<g id="edge5" class="edge">
<title>Node4&#45;&gt;Node6</title>
<path fill="none" stroke="midnightblue" d="M671.67,-70.82C664.6,-69.4 657.37,-68.06 650.5,-67 481.54,-40.87 436.77,-55.05 267.5,-31 256.06,-29.38 243.73,-27.21 232.4,-25.04"/>
<polygon fill="midnightblue" stroke="midnightblue" points="671.33,-74.33 681.83,-72.95 672.76,-67.48 671.33,-74.33"/>
</g>
<!-- Node7 -->
<g id="node7" class="node">
<title>Node7</title>
<g id="a_node7"><a xlink:href="Ioss__Utils_8C.html" target="_top" xlink:title=" ">
<polygon fill="white" stroke="black" points="276.5,-6 276.5,-25 364.5,-25 364.5,-6 276.5,-6"/>
<text text-anchor="middle" x="320.5" y="-13" font-family="Helvetica,sans-Serif" font-size="10.00">src/Ioss_Utils.C</text>
</a>
</g>
</g>
<!-- Node4&#45;&gt;Node7 -->
<g id="edge6" class="edge">
<title>Node4&#45;&gt;Node7</title>
<path fill="none" stroke="midnightblue" d="M670.9,-70.89C664.08,-69.49 657.12,-68.14 650.5,-67 528.17,-45.85 495.22,-55.44 373.5,-31 365.46,-29.39 356.84,-27.22 348.93,-25.05"/>
<polygon fill="midnightblue" stroke="midnightblue" points="670.24,-74.33 680.75,-72.97 671.68,-67.48 670.24,-74.33"/>
</g>
<!-- Node8 -->
<g id="node8" class="node">
<title>Node8</title>
<g id="a_node8"><a xlink:href="Ut__ioad_8C.html" target="_top" xlink:title=" ">
<polygon fill="white" stroke="black" points="383,-0.5 383,-30.5 478,-30.5 478,-0.5 383,-0.5"/>
<text text-anchor="start" x="391" y="-18.5" font-family="Helvetica,sans-Serif" font-size="10.00">src/adios/utest/Ut</text>
<text text-anchor="middle" x="430.5" y="-7.5" font-family="Helvetica,sans-Serif" font-size="10.00">_ioad.C</text>
</a>
</g>
</g>
<!-- Node4&#45;&gt;Node8 -->
<g id="edge7" class="edge">
<title>Node4&#45;&gt;Node8</title>
<path fill="none" stroke="midnightblue" d="M667.76,-70.73C605.24,-57.18 503.95,-35.16 486.5,-31 483.76,-30.35 480.96,-29.66 478.13,-28.96"/>
<polygon fill="midnightblue" stroke="midnightblue" points="667.3,-74.21 677.82,-72.91 668.79,-67.37 667.3,-74.21"/>
</g>
<!-- Node9 -->
<g id="node9" class="node">
<title>Node9</title>
<g id="a_node9"><a xlink:href="Iocgns__DatabaseIO_8C.html" target="_top" xlink:title=" ">
<polygon fill="white" stroke="black" points="496,-6 496,-25 651,-25 651,-6 496,-6"/>
<text text-anchor="middle" x="573.5" y="-13" font-family="Helvetica,sans-Serif" font-size="10.00">src/cgns/Iocgns_DatabaseIO.C</text>
</a>
</g>
</g>
<!-- Node4&#45;&gt;Node9 -->
<g id="edge8" class="edge">
<title>Node4&#45;&gt;Node9</title>
<path fill="none" stroke="midnightblue" d="M688.95,-68.61C660.43,-55.74 617.38,-36.31 592.7,-25.17"/>
<polygon fill="midnightblue" stroke="midnightblue" points="687.82,-71.94 698.38,-72.87 690.7,-65.56 687.82,-71.94"/>
</g>
<!-- Node10 -->
<g id="node10" class="node">
<title>Node10</title>
<g id="a_node10"><a xlink:href="Iofaodel__DatabaseIO_8C.html" target="_top" xlink:title=" ">
<polygon fill="white" stroke="black" points="669,-0.5 669,-30.5 766,-30.5 766,-0.5 669,-0.5"/>
<text text-anchor="start" x="677" y="-18.5" font-family="Helvetica,sans-Serif" font-size="10.00">src/faodel/Iofaodel</text>
<text text-anchor="middle" x="717.5" y="-7.5" font-family="Helvetica,sans-Serif" font-size="10.00">_DatabaseIO.C</text>
</a>
</g>
</g>
<!-- Node4&#45;&gt;Node10 -->
<g id="edge9" class="edge">
<title>Node4&#45;&gt;Node10</title>
<path fill="none" stroke="midnightblue" d="M717.5,-62.41C717.5,-52.22 717.5,-39.9 717.5,-30.59"/>
<polygon fill="midnightblue" stroke="midnightblue" points="714,-62.73 717.5,-72.73 721,-62.73 714,-62.73"/>
</g>
<!-- Node11 -->
<g id="node11" class="node">
<title>Node11</title>
<g id="a_node11"><a xlink:href="io__shell_8C.html" target="_top" xlink:title=" ">
<polygon fill="white" stroke="black" points="784,-6 784,-25 885,-25 885,-6 784,-6"/>
<text text-anchor="middle" x="834.5" y="-13" font-family="Helvetica,sans-Serif" font-size="10.00">src/main/io_shell.C</text>
</a>
</g>
</g>
<!-- Node4&#45;&gt;Node11 -->
<g id="edge10" class="edge">
<title>Node4&#45;&gt;Node11</title>
<path fill="none" stroke="midnightblue" d="M742.18,-67.79C765.37,-54.9 799.36,-36.02 818.97,-25.13"/>
<polygon fill="midnightblue" stroke="midnightblue" points="740.32,-64.82 733.28,-72.73 743.72,-70.94 740.32,-64.82"/>
</g>
<!-- Node12 -->
<g id="node12" class="node">
<title>Node12</title>
<g id="a_node12"><a xlink:href="io__shell__ts_8C.html" target="_top" xlink:title=" ">
<polygon fill="white" stroke="black" points="903.5,-6 903.5,-25 1017.5,-25 1017.5,-6 903.5,-6"/>
<text text-anchor="middle" x="960.5" y="-13" font-family="Helvetica,sans-Serif" font-size="10.00">src/main/io_shell_ts.C</text>
</a>
</g>
</g>
<!-- Node4&#45;&gt;Node12 -->
<g id="edge11" class="edge">
<title>Node4&#45;&gt;Node12</title>
<path fill="none" stroke="midnightblue" d="M759.28,-70.32C807.27,-57.49 884.94,-36.71 928.41,-25.08"/>
<polygon fill="midnightblue" stroke="midnightblue" points="758.27,-66.97 749.52,-72.94 760.08,-73.73 758.27,-66.97"/>
</g>
<!-- Node13 -->
<g id="node13" class="node">
<title>Node13</title>
<g id="a_node13"><a xlink:href="struc__to__unstruc_8C.html" target="_top" xlink:title=" ">
<polygon fill="white" stroke="black" points="1035.5,-6 1035.5,-25 1175.5,-25 1175.5,-6 1035.5,-6"/>
<text text-anchor="middle" x="1105.5" y="-13" font-family="Helvetica,sans-Serif" font-size="10.00">src/main/struc_to_unstruc.C</text>
</a>
</g>
</g>
<!-- Node4&#45;&gt;Node13 -->
<g id="edge12" class="edge">
<title>Node4&#45;&gt;Node13</title>
<path fill="none" stroke="midnightblue" d="M765.07,-70.8C771.59,-69.46 778.2,-68.15 784.5,-67 891.47,-47.49 919.23,-48.82 1026.5,-31 1037.5,-29.17 1049.35,-27.07 1060.43,-25.05"/>
<polygon fill="midnightblue" stroke="midnightblue" points="764.04,-67.44 754.98,-72.94 765.48,-74.29 764.04,-67.44"/>
</g>
<!-- Node14 -->
<g id="node14" class="node">
<title>Node14</title>
<g id="a_node14"><a xlink:href="Iopg__DatabaseIO_8C.html" target="_top" xlink:title=" ">
<polygon fill="white" stroke="black" points="1193.5,-6 1193.5,-25 1351.5,-25 1351.5,-6 1193.5,-6"/>
<text text-anchor="middle" x="1272.5" y="-13" font-family="Helvetica,sans-Serif" font-size="10.00">src/pamgen/Iopg_DatabaseIO.C</text>
</a>
</g>
</g>
<!-- Node4&#45;&gt;Node14 -->
<g id="edge13" class="edge">
<title>Node4&#45;&gt;Node14</title>
<path fill="none" stroke="midnightblue" d="M763.33,-70.8C770.39,-69.38 777.62,-68.05 784.5,-67 960.95,-40.07 1007.43,-53.53 1184.5,-31 1197.56,-29.34 1211.64,-27.18 1224.64,-25.04"/>
<polygon fill="midnightblue" stroke="midnightblue" points="762.23,-67.45 753.16,-72.93 763.67,-74.3 762.23,-67.45"/>
</g>
<!-- Node15 -->
<g id="node15" class="node">
<title>Node15</title>
<g id="a_node15"><a xlink:href="Iovs__exodus__DatabaseIO_8C.html" target="_top" xlink:title=" ">
<polygon fill="white" stroke="black" points="1370,-0.5 1370,-30.5 1513,-30.5 1513,-0.5 1370,-0.5"/>
<text text-anchor="start" x="1378" y="-18.5" font-family="Helvetica,sans-Serif" font-size="10.00">src/visualization/exodus</text>
<text text-anchor="middle" x="1441.5" y="-7.5" font-family="Helvetica,sans-Serif" font-size="10.00">/Iovs_exodus_DatabaseIO.C</text>
</a>
</g>
</g>
<!-- Node4&#45;&gt;Node15 -->
<g id="edge14" class="edge">
<title>Node4&#45;&gt;Node15</title>
<path fill="none" stroke="midnightblue" d="M762.07,-70.88C769.52,-69.38 777.21,-68.01 784.5,-67 1038.57,-31.77 1105.84,-61.65 1360.5,-31 1363.48,-30.64 1366.51,-30.24 1369.58,-29.82"/>
<polygon fill="midnightblue" stroke="midnightblue" points="761.16,-67.49 752.1,-72.97 762.6,-74.34 761.16,-67.49"/>
</g>
<!-- Node23 -->
<g id="node23" class="node">
<title>Node23</title>
<g id="a_node23"><a xlink:href="io__info_8C.html" target="_top" xlink:title=" ">
<polygon fill="white" stroke="black" points="1668.5,-6 1668.5,-25 1764.5,-25 1764.5,-6 1668.5,-6"/>
<text text-anchor="middle" x="1716.5" y="-13" font-family="Helvetica,sans-Serif" font-size="10.00">src/main/io_info.C</text>
</a>
</g>
</g>
<!-- Node22&#45;&gt;Node23 -->
<g id="edge22" class="edge">
<title>Node22&#45;&gt;Node23</title>
<path fill="none" stroke="midnightblue" d="M1763.99,-65.5C1751.63,-52.75 1734.81,-35.39 1724.86,-25.13"/>
<polygon fill="midnightblue" stroke="midnightblue" points="1761.53,-67.99 1771,-72.73 1766.56,-63.12 1761.53,-67.99"/>
</g>
<!-- Node24 -->
<g id="node24" class="node">
<title>Node24</title>
<g id="a_node24"><a xlink:href="io__info__main_8C.html" target="_top" xlink:title=" ">
<polygon fill="white" stroke="black" points="1782.5,-6 1782.5,-25 1904.5,-25 1904.5,-6 1782.5,-6"/>
<text text-anchor="middle" x="1843.5" y="-13" font-family="Helvetica,sans-Serif" font-size="10.00">src/main/io_info_main.C</text>
</a>
</g>
</g>
<!-- Node22&#45;&gt;Node24 -->
<g id="edge23" class="edge">
<title>Node22&#45;&gt;Node24</title>
<path fill="none" stroke="midnightblue" d="M1795.26,-65.5C1807.81,-52.75 1824.9,-35.39 1835.01,-25.13"/>
<polygon fill="midnightblue" stroke="midnightblue" points="1792.65,-63.15 1788.13,-72.73 1797.64,-68.06 1792.65,-63.15"/>
</g>
<!-- Node28 -->
<g id="node28" class="node">
<title>Node28</title>
<g id="a_node28"><a xlink:href="UnitTestTextMesh_8C.html" target="_top" xlink:title=" ">
<polygon fill="white" stroke="black" points="2090.5,-0.5 2090.5,-30.5 2224.5,-30.5 2224.5,-0.5 2090.5,-0.5"/>
<text text-anchor="start" x="2098.5" y="-18.5" font-family="Helvetica,sans-Serif" font-size="10.00">src/unit_tests/UnitTestText</text>
<text text-anchor="middle" x="2157.5" y="-7.5" font-family="Helvetica,sans-Serif" font-size="10.00">Mesh.C</text>
</a>
</g>
</g>
<!-- Node27&#45;&gt;Node28 -->
<g id="edge27" class="edge">
<title>Node27&#45;&gt;Node28</title>
<path fill="none" stroke="midnightblue" d="M2157.5,-57.11C2157.5,-48.15 2157.5,-38.32 2157.5,-30.58"/>
<polygon fill="midnightblue" stroke="midnightblue" points="2154,-57.4 2157.5,-67.4 2161,-57.4 2154,-57.4"/>
</g>
</g>
</svg>
