<?xml version="1.0" encoding="UTF-8" standalone="no"?>
<!DOCTYPE svg PUBLIC "-//W3C//DTD SVG 1.1//EN"
 "http://www.w3.org/Graphics/SVG/1.1/DTD/svg11.dtd">
<!-- Generated by graphviz version 2.46.1 (20210213.1702)
 -->
<!-- Title: src/Ioss_Tri13.C Pages: 1 -->
<svg width="1305pt" height="364pt"
 viewBox="0.00 0.00 1304.78 364.00" xmlns="http://www.w3.org/2000/svg" xmlns:xlink="http://www.w3.org/1999/xlink">
<g id="graph0" class="graph" transform="scale(1 1) rotate(0) translate(4 360)">
<title>src/Ioss_Tri13.C</title>
<polygon fill="white" stroke="transparent" points="-4,4 -4,-360 1300.78,-360 1300.78,4 -4,4"/>
<!-- Node1 -->
<g id="node1" class="node">
<title>Node1</title>
<g id="a_node1"><a xlink:title=" ">
<polygon fill="#bfbfbf" stroke="black" points="362.28,-336.5 362.28,-355.5 451.28,-355.5 451.28,-336.5 362.28,-336.5"/>
<text text-anchor="middle" x="406.78" y="-343.5" font-family="Helvetica,sans-Serif" font-size="10.00">src/Ioss_Tri13.C</text>
</a>
</g>
</g>
<!-- Node2 -->
<g id="node2" class="node">
<title>Node2</title>
<g id="a_node2"><a xlink:href="Ioss__CodeTypes_8h.html" target="_top" xlink:title=" ">
<polygon fill="white" stroke="black" points="379.78,-56.5 379.78,-75.5 477.78,-75.5 477.78,-56.5 379.78,-56.5"/>
<text text-anchor="middle" x="428.78" y="-63.5" font-family="Helvetica,sans-Serif" font-size="10.00">Ioss_CodeTypes.h</text>
</a>
</g>
</g>
<!-- Node1&#45;&gt;Node2 -->
<g id="edge1" class="edge">
<title>Node1&#45;&gt;Node2</title>
<path fill="none" stroke="midnightblue" d="M408.31,-336.11C413.26,-306.96 428.75,-211.61 433.78,-132 434.76,-116.45 433.24,-98.83 431.62,-85.86"/>
<polygon fill="midnightblue" stroke="midnightblue" points="435.07,-85.25 430.24,-75.83 428.14,-86.21 435.07,-85.25"/>
</g>
<!-- Node4 -->
<g id="node4" class="node">
<title>Node4</title>
<g id="a_node4"><a xlink:title=" ">
<polygon fill="white" stroke="#bfbfbf" points="1034.28,-0.5 1034.28,-19.5 1083.28,-19.5 1083.28,-0.5 1034.28,-0.5"/>
<text text-anchor="middle" x="1058.78" y="-7.5" font-family="Helvetica,sans-Serif" font-size="10.00">cstddef</text>
</a>
</g>
</g>
<!-- Node1&#45;&gt;Node4 -->
<g id="edge58" class="edge">
<title>Node1&#45;&gt;Node4</title>
<path fill="none" stroke="midnightblue" d="M451.37,-343.79C622.92,-338.54 1230.78,-314.33 1230.78,-235 1230.78,-235 1230.78,-235 1230.78,-177 1230.78,-146.9 1229.65,-136.22 1211.78,-112 1207.21,-105.81 1122.24,-51.34 1080.94,-25.06"/>
<polygon fill="midnightblue" stroke="midnightblue" points="1082.69,-22.03 1072.38,-19.62 1078.94,-27.94 1082.69,-22.03"/>
</g>
<!-- Node10 -->
<g id="node10" class="node">
<title>Node10</title>
<g id="a_node10"><a xlink:href="Ioss__ElementTopology_8h.html" target="_top" xlink:title=" ">
<polygon fill="white" stroke="black" points="183.78,-112.5 183.78,-131.5 305.78,-131.5 305.78,-112.5 183.78,-112.5"/>
<text text-anchor="middle" x="244.78" y="-119.5" font-family="Helvetica,sans-Serif" font-size="10.00">Ioss_ElementTopology.h</text>
</a>
</g>
</g>
<!-- Node1&#45;&gt;Node10 -->
<g id="edge9" class="edge">
<title>Node1&#45;&gt;Node10</title>
<path fill="none" stroke="midnightblue" d="M400.43,-336.3C376.29,-303.22 289.95,-184.91 257.36,-140.24"/>
<polygon fill="midnightblue" stroke="midnightblue" points="259.98,-137.9 251.26,-131.88 254.33,-142.02 259.98,-137.9"/>
</g>
<!-- Node12 -->
<g id="node12" class="node">
<title>Node12</title>
<g id="a_node12"><a xlink:href="Ioss__ElementVariableType_8h.html" target="_top" xlink:title=" ">
<polygon fill="white" stroke="black" points="85.78,-280.5 85.78,-299.5 225.78,-299.5 225.78,-280.5 85.78,-280.5"/>
<text text-anchor="middle" x="155.78" y="-287.5" font-family="Helvetica,sans-Serif" font-size="10.00">Ioss_ElementVariableType.h</text>
</a>
</g>
</g>
<!-- Node1&#45;&gt;Node12 -->
<g id="edge14" class="edge">
<title>Node1&#45;&gt;Node12</title>
<path fill="none" stroke="midnightblue" d="M367,-336.44C323.22,-327.02 252.76,-311.87 205.4,-301.68"/>
<polygon fill="midnightblue" stroke="midnightblue" points="205.87,-298.2 195.36,-299.52 204.4,-305.04 205.87,-298.2"/>
</g>
<!-- Node23 -->
<g id="node23" class="node">
<title>Node23</title>
<g id="a_node23"><a xlink:title=" ">
<polygon fill="white" stroke="#bfbfbf" points="1153.28,-112.5 1153.28,-131.5 1202.28,-131.5 1202.28,-112.5 1153.28,-112.5"/>
<text text-anchor="middle" x="1177.78" y="-119.5" font-family="Helvetica,sans-Serif" font-size="10.00">cassert</text>
</a>
</g>
</g>
<!-- Node1&#45;&gt;Node23 -->
<g id="edge57" class="edge">
<title>Node1&#45;&gt;Node23</title>
<path fill="none" stroke="midnightblue" d="M436.53,-336.43C557.64,-301.56 1013.3,-170.36 1143.08,-132.99"/>
<polygon fill="midnightblue" stroke="midnightblue" points="1144.26,-136.29 1152.9,-130.16 1142.32,-129.57 1144.26,-136.29"/>
</g>
<!-- Node29 -->
<g id="node29" class="node">
<title>Node29</title>
<g id="a_node29"><a xlink:href="Ioss__Tri13_8h.html" target="_top" xlink:title=" ">
<polygon fill="white" stroke="black" points="320.28,-168.5 320.28,-187.5 391.28,-187.5 391.28,-168.5 320.28,-168.5"/>
<text text-anchor="middle" x="355.78" y="-175.5" font-family="Helvetica,sans-Serif" font-size="10.00">Ioss_Tri13.h</text>
</a>
</g>
</g>
<!-- Node1&#45;&gt;Node29 -->
<g id="edge54" class="edge">
<title>Node1&#45;&gt;Node29</title>
<path fill="none" stroke="midnightblue" d="M404.03,-336.08C396.01,-309.95 372.43,-233.21 361.48,-197.58"/>
<polygon fill="midnightblue" stroke="midnightblue" points="364.69,-196.1 358.41,-187.57 358,-198.16 364.69,-196.1"/>
</g>
<!-- Node3 -->
<g id="node3" class="node">
<title>Node3</title>
<g id="a_node3"><a xlink:title=" ">
<polygon fill="white" stroke="#bfbfbf" points="189.78,-0.5 189.78,-19.5 227.78,-19.5 227.78,-0.5 189.78,-0.5"/>
<text text-anchor="middle" x="208.78" y="-7.5" font-family="Helvetica,sans-Serif" font-size="10.00">array</text>
</a>
</g>
</g>
<!-- Node2&#45;&gt;Node3 -->
<g id="edge2" class="edge">
<title>Node2&#45;&gt;Node3</title>
<path fill="none" stroke="midnightblue" d="M388.08,-56.46C351.19,-48.5 295.12,-35.85 237.93,-20.16"/>
<polygon fill="midnightblue" stroke="midnightblue" points="238.57,-16.7 227.99,-17.4 236.7,-23.45 238.57,-16.7"/>
</g>
<!-- Node2&#45;&gt;Node4 -->
<g id="edge3" class="edge">
<title>Node2&#45;&gt;Node4</title>
<path fill="none" stroke="midnightblue" d="M477.95,-60.79C600.72,-50.26 918.39,-23.03 1024.04,-13.98"/>
<polygon fill="midnightblue" stroke="midnightblue" points="1024.49,-17.45 1034.15,-13.11 1023.89,-10.48 1024.49,-17.45"/>
</g>
<!-- Node5 -->
<g id="node5" class="node">
<title>Node5</title>
<g id="a_node5"><a xlink:title=" ">
<polygon fill="white" stroke="#bfbfbf" points="784.78,-0.5 784.78,-19.5 830.78,-19.5 830.78,-0.5 784.78,-0.5"/>
<text text-anchor="middle" x="807.78" y="-7.5" font-family="Helvetica,sans-Serif" font-size="10.00">cstdint</text>
</a>
</g>
</g>
<!-- Node2&#45;&gt;Node5 -->
<g id="edge4" class="edge">
<title>Node2&#45;&gt;Node5</title>
<path fill="none" stroke="midnightblue" d="M477.99,-59.97C544.32,-52.86 665.95,-38.63 768.78,-20 770.73,-19.65 772.72,-19.26 774.74,-18.85"/>
<polygon fill="midnightblue" stroke="midnightblue" points="775.72,-22.22 784.75,-16.7 774.24,-15.38 775.72,-22.22"/>
</g>
<!-- Node6 -->
<g id="node6" class="node">
<title>Node6</title>
<g id="a_node6"><a xlink:title=" ">
<polygon fill="white" stroke="#bfbfbf" points="457.28,-0.5 457.28,-19.5 498.28,-19.5 498.28,-0.5 457.28,-0.5"/>
<text text-anchor="middle" x="477.78" y="-7.5" font-family="Helvetica,sans-Serif" font-size="10.00">string</text>
</a>
</g>
</g>
<!-- Node2&#45;&gt;Node6 -->
<g id="edge5" class="edge">
<title>Node2&#45;&gt;Node6</title>
<path fill="none" stroke="midnightblue" d="M436.87,-56.08C443.93,-48.3 454.36,-36.8 462.93,-27.37"/>
<polygon fill="midnightblue" stroke="midnightblue" points="465.71,-29.51 469.84,-19.75 460.52,-24.8 465.71,-29.51"/>
</g>
<!-- Node7 -->
<g id="node7" class="node">
<title>Node7</title>
<g id="a_node7"><a xlink:title=" ">
<polygon fill="white" stroke="#bfbfbf" points="715.78,-0.5 715.78,-19.5 759.78,-19.5 759.78,-0.5 715.78,-0.5"/>
<text text-anchor="middle" x="737.78" y="-7.5" font-family="Helvetica,sans-Serif" font-size="10.00">vector</text>
</a>
</g>
</g>
<!-- Node2&#45;&gt;Node7 -->
<g id="edge6" class="edge">
<title>Node2&#45;&gt;Node7</title>
<path fill="none" stroke="midnightblue" d="M477.74,-56.44C541.55,-45.29 651.38,-26.1 705.59,-16.62"/>
<polygon fill="midnightblue" stroke="midnightblue" points="706.41,-20.03 715.66,-14.86 705.21,-13.14 706.41,-20.03"/>
</g>
<!-- Node8 -->
<g id="node8" class="node">
<title>Node8</title>
<g id="a_node8"><a xlink:title=" ">
<polygon fill="white" stroke="#bfbfbf" points="245.78,-0.5 245.78,-19.5 361.78,-19.5 361.78,-0.5 245.78,-0.5"/>
<text text-anchor="middle" x="303.78" y="-7.5" font-family="Helvetica,sans-Serif" font-size="10.00">SEACASIoss_config.h</text>
</a>
</g>
</g>
<!-- Node2&#45;&gt;Node8 -->
<g id="edge7" class="edge">
<title>Node2&#45;&gt;Node8</title>
<path fill="none" stroke="midnightblue" d="M408.97,-56.44C388.49,-47.6 356.29,-33.69 332.91,-23.59"/>
<polygon fill="midnightblue" stroke="midnightblue" points="334.06,-20.27 323.49,-19.52 331.28,-26.7 334.06,-20.27"/>
</g>
<!-- Node9 -->
<g id="node9" class="node">
<title>Node9</title>
<g id="a_node9"><a xlink:title=" ">
<polygon fill="white" stroke="#bfbfbf" points="118.28,-0.5 118.28,-19.5 171.28,-19.5 171.28,-0.5 118.28,-0.5"/>
<text text-anchor="middle" x="144.78" y="-7.5" font-family="Helvetica,sans-Serif" font-size="10.00">complex</text>
</a>
</g>
</g>
<!-- Node2&#45;&gt;Node9 -->
<g id="edge8" class="edge">
<title>Node2&#45;&gt;Node9</title>
<path fill="none" stroke="midnightblue" d="M379.65,-57.06C331.64,-49.08 256.26,-35.98 181.53,-20.04"/>
<polygon fill="midnightblue" stroke="midnightblue" points="181.98,-16.56 171.47,-17.88 180.51,-23.4 181.98,-16.56"/>
</g>
<!-- Node10&#45;&gt;Node2 -->
<g id="edge10" class="edge">
<title>Node10&#45;&gt;Node2</title>
<path fill="none" stroke="midnightblue" d="M273.93,-112.44C305.29,-103.24 355.31,-88.56 389.97,-78.39"/>
<polygon fill="midnightblue" stroke="midnightblue" points="391.15,-81.69 399.76,-75.52 389.18,-74.97 391.15,-81.69"/>
</g>
<!-- Node10&#45;&gt;Node6 -->
<g id="edge12" class="edge">
<title>Node10&#45;&gt;Node6</title>
<path fill="none" stroke="midnightblue" d="M260.49,-112.39C284.14,-99.55 330.41,-74.86 370.78,-56 396.42,-44.01 426.15,-31.63 447.75,-22.9"/>
<polygon fill="midnightblue" stroke="midnightblue" points="449.08,-26.13 457.05,-19.16 446.47,-19.64 449.08,-26.13"/>
</g>
<!-- Node10&#45;&gt;Node7 -->
<g id="edge13" class="edge">
<title>Node10&#45;&gt;Node7</title>
<path fill="none" stroke="midnightblue" d="M296.44,-112.46C345.59,-104.09 421.49,-90.51 486.78,-76 566.2,-58.35 658.58,-33.23 706.04,-19.98"/>
<polygon fill="midnightblue" stroke="midnightblue" points="707.06,-23.33 715.74,-17.26 705.17,-16.59 707.06,-23.33"/>
</g>
<!-- Node11 -->
<g id="node11" class="node">
<title>Node11</title>
<g id="a_node11"><a xlink:title=" ">
<polygon fill="white" stroke="#bfbfbf" points="187.28,-56.5 187.28,-75.5 222.28,-75.5 222.28,-56.5 187.28,-56.5"/>
<text text-anchor="middle" x="204.78" y="-63.5" font-family="Helvetica,sans-Serif" font-size="10.00">map</text>
</a>
</g>
</g>
<!-- Node10&#45;&gt;Node11 -->
<g id="edge11" class="edge">
<title>Node10&#45;&gt;Node11</title>
<path fill="none" stroke="midnightblue" d="M238.17,-112.08C232.52,-104.46 224.23,-93.26 217.33,-83.94"/>
<polygon fill="midnightblue" stroke="midnightblue" points="220.02,-81.7 211.26,-75.75 214.4,-85.87 220.02,-81.7"/>
</g>
<!-- Node12&#45;&gt;Node2 -->
<g id="edge15" class="edge">
<title>Node12&#45;&gt;Node2</title>
<path fill="none" stroke="midnightblue" d="M213.41,-280.47C269.26,-269.13 352.29,-243.61 399.78,-188 424.7,-158.81 429,-111.84 429.29,-85.84"/>
<polygon fill="midnightblue" stroke="midnightblue" points="432.79,-85.77 429.22,-75.8 425.79,-85.83 432.79,-85.77"/>
</g>
<!-- Node12&#45;&gt;Node6 -->
<g id="edge53" class="edge">
<title>Node12&#45;&gt;Node6</title>
<path fill="none" stroke="midnightblue" d="M142.57,-280.46C130.93,-272.33 114.24,-259.12 103.78,-244 86.25,-218.68 79.78,-209.8 79.78,-179 79.78,-179 79.78,-179 79.78,-121 79.78,-74.15 119.53,-74.03 162.78,-56 277.63,-8.12 320.68,-44.48 447.18,-19.71"/>
<polygon fill="midnightblue" stroke="midnightblue" points="448.14,-23.09 457.24,-17.65 446.74,-16.23 448.14,-23.09"/>
</g>
<!-- Node13 -->
<g id="node13" class="node">
<title>Node13</title>
<g id="a_node13"><a xlink:href="Ioss__VariableType_8h.html" target="_top" xlink:title=" ">
<polygon fill="white" stroke="black" points="112.78,-224.5 112.78,-243.5 216.78,-243.5 216.78,-224.5 112.78,-224.5"/>
<text text-anchor="middle" x="164.78" y="-231.5" font-family="Helvetica,sans-Serif" font-size="10.00">Ioss_VariableType.h</text>
</a>
</g>
</g>
<!-- Node12&#45;&gt;Node13 -->
<g id="edge16" class="edge">
<title>Node12&#45;&gt;Node13</title>
<path fill="none" stroke="midnightblue" d="M157.26,-280.08C158.46,-272.93 160.17,-262.64 161.66,-253.69"/>
<polygon fill="midnightblue" stroke="midnightblue" points="165.13,-254.19 163.32,-243.75 158.22,-253.04 165.13,-254.19"/>
</g>
<!-- Node13&#45;&gt;Node2 -->
<g id="edge17" class="edge">
<title>Node13&#45;&gt;Node2</title>
<path fill="none" stroke="midnightblue" d="M178.6,-224.31C221.63,-197.25 353.51,-114.32 406.45,-81.04"/>
<polygon fill="midnightblue" stroke="midnightblue" points="408.49,-83.89 415.09,-75.61 404.76,-77.97 408.49,-83.89"/>
</g>
<!-- Node13&#45;&gt;Node6 -->
<g id="edge51" class="edge">
<title>Node13&#45;&gt;Node6</title>
<path fill="none" stroke="midnightblue" d="M153.06,-224.39C117.35,-197.16 15.3,-111.46 65.78,-56 121.21,4.9 347.84,-33.49 447.2,-19.44"/>
<polygon fill="midnightblue" stroke="midnightblue" points="447.97,-22.85 457.25,-17.74 446.81,-15.95 447.97,-22.85"/>
</g>
<!-- Node13&#45;&gt;Node7 -->
<g id="edge52" class="edge">
<title>Node13&#45;&gt;Node7</title>
<path fill="none" stroke="midnightblue" d="M216.92,-231.6C376.14,-227.07 846.52,-211.73 868.78,-188 890.57,-164.76 967.21,-198.08 858.78,-56 847.7,-41.49 801.74,-27.23 769.77,-18.77"/>
<polygon fill="midnightblue" stroke="midnightblue" points="770.5,-15.35 759.94,-16.24 768.75,-22.12 770.5,-15.35"/>
</g>
<!-- Node13&#45;&gt;Node11 -->
<g id="edge50" class="edge">
<title>Node13&#45;&gt;Node11</title>
<path fill="none" stroke="midnightblue" d="M164.05,-224.49C162.64,-204.3 160.77,-152.21 174.78,-112 178.36,-101.71 184.86,-91.51 190.89,-83.42"/>
<polygon fill="midnightblue" stroke="midnightblue" points="193.64,-85.59 197.1,-75.58 188.15,-81.25 193.64,-85.59"/>
</g>
<!-- Node14 -->
<g id="node14" class="node">
<title>Node14</title>
<g id="a_node14"><a xlink:href="Ioss__Utils_8h.html" target="_top" xlink:title=" ">
<polygon fill="white" stroke="black" points="791.28,-168.5 791.28,-187.5 860.28,-187.5 860.28,-168.5 791.28,-168.5"/>
<text text-anchor="middle" x="825.78" y="-175.5" font-family="Helvetica,sans-Serif" font-size="10.00">Ioss_Utils.h</text>
</a>
</g>
</g>
<!-- Node13&#45;&gt;Node14 -->
<g id="edge18" class="edge">
<title>Node13&#45;&gt;Node14</title>
<path fill="none" stroke="midnightblue" d="M216.92,-228.74C342.98,-218.44 662.58,-192.33 780.86,-182.67"/>
<polygon fill="midnightblue" stroke="midnightblue" points="781.32,-186.14 791.01,-181.84 780.75,-179.17 781.32,-186.14"/>
</g>
<!-- Node20 -->
<g id="node20" class="node">
<title>Node20</title>
<g id="a_node20"><a xlink:title=" ">
<polygon fill="white" stroke="#bfbfbf" points="380.28,-0.5 380.28,-19.5 439.28,-19.5 439.28,-0.5 380.28,-0.5"/>
<text text-anchor="middle" x="409.78" y="-7.5" font-family="Helvetica,sans-Serif" font-size="10.00">functional</text>
</a>
</g>
</g>
<!-- Node13&#45;&gt;Node20 -->
<g id="edge49" class="edge">
<title>Node13&#45;&gt;Node20</title>
<path fill="none" stroke="midnightblue" d="M112.44,-230.29C82.43,-225.72 47.01,-214.56 27.78,-188 -6.63,-140.48 -11.48,-99.59 27.78,-56 77.16,-1.16 279.37,-30.27 370.07,-19.67"/>
<polygon fill="midnightblue" stroke="midnightblue" points="370.63,-23.12 380.04,-18.26 369.65,-16.19 370.63,-23.12"/>
</g>
<!-- Node28 -->
<g id="node28" class="node">
<title>Node28</title>
<g id="a_node28"><a xlink:title=" ">
<polygon fill="white" stroke="#bfbfbf" points="179.78,-168.5 179.78,-187.5 225.78,-187.5 225.78,-168.5 179.78,-168.5"/>
<text text-anchor="middle" x="202.78" y="-175.5" font-family="Helvetica,sans-Serif" font-size="10.00">cstring</text>
</a>
</g>
</g>
<!-- Node13&#45;&gt;Node28 -->
<g id="edge48" class="edge">
<title>Node13&#45;&gt;Node28</title>
<path fill="none" stroke="midnightblue" d="M171.05,-224.08C176.42,-216.46 184.29,-205.26 190.86,-195.94"/>
<polygon fill="midnightblue" stroke="midnightblue" points="193.73,-197.94 196.62,-187.75 188,-193.91 193.73,-197.94"/>
</g>
<!-- Node14&#45;&gt;Node2 -->
<g id="edge19" class="edge">
<title>Node14&#45;&gt;Node2</title>
<path fill="none" stroke="midnightblue" d="M791.09,-174.6C718.99,-169.22 555.44,-154.83 504.78,-132 479.94,-120.8 456.99,-98.91 442.95,-83.64"/>
<polygon fill="midnightblue" stroke="midnightblue" points="445.37,-81.09 436.11,-75.95 440.14,-85.74 445.37,-81.09"/>
</g>
<!-- Node14&#45;&gt;Node4 -->
<g id="edge41" class="edge">
<title>Node14&#45;&gt;Node4</title>
<path fill="none" stroke="midnightblue" d="M837.98,-168.31C875.8,-141.36 991.39,-59.01 1038.48,-25.46"/>
<polygon fill="midnightblue" stroke="midnightblue" points="1040.58,-28.26 1046.7,-19.61 1036.52,-22.56 1040.58,-28.26"/>
</g>
<!-- Node14&#45;&gt;Node5 -->
<g id="edge42" class="edge">
<title>Node14&#45;&gt;Node5</title>
<path fill="none" stroke="midnightblue" d="M833.54,-168.45C840.77,-159.92 851.1,-146.08 855.78,-132 866.43,-99.92 872.68,-86.81 858.78,-56 853.16,-43.56 842.21,-33.17 831.9,-25.53"/>
<polygon fill="midnightblue" stroke="midnightblue" points="833.73,-22.54 823.51,-19.76 829.77,-28.31 833.73,-22.54"/>
</g>
<!-- Node14&#45;&gt;Node6 -->
<g id="edge46" class="edge">
<title>Node14&#45;&gt;Node6</title>
<path fill="none" stroke="midnightblue" d="M791.14,-175.9C659.42,-171.56 195.98,-154.72 174.78,-132 163.85,-120.3 151.63,-84.3 177.78,-56 217.01,-13.54 373.61,-30.97 447.39,-19.46"/>
<polygon fill="midnightblue" stroke="midnightblue" points="448.04,-22.9 457.23,-17.63 446.76,-16.01 448.04,-22.9"/>
</g>
<!-- Node14&#45;&gt;Node7 -->
<g id="edge47" class="edge">
<title>Node14&#45;&gt;Node7</title>
<path fill="none" stroke="midnightblue" d="M825.03,-168.23C823.52,-154.95 819.13,-129.47 806.78,-112 790.96,-89.64 772.59,-98.36 756.78,-76 747.12,-62.35 742.33,-43.81 739.98,-30.03"/>
<polygon fill="midnightblue" stroke="midnightblue" points="743.4,-29.18 738.52,-19.77 736.46,-30.17 743.4,-29.18"/>
</g>
<!-- Node15 -->
<g id="node15" class="node">
<title>Node15</title>
<g id="a_node15"><a xlink:href="Ioss__Field_8h.html" target="_top" xlink:title=" ">
<polygon fill="white" stroke="black" points="727.78,-112.5 727.78,-131.5 797.78,-131.5 797.78,-112.5 727.78,-112.5"/>
<text text-anchor="middle" x="762.78" y="-119.5" font-family="Helvetica,sans-Serif" font-size="10.00">Ioss_Field.h</text>
</a>
</g>
</g>
<!-- Node14&#45;&gt;Node15 -->
<g id="edge20" class="edge">
<title>Node14&#45;&gt;Node15</title>
<path fill="none" stroke="midnightblue" d="M815.65,-168.32C806.25,-160.26 792.03,-148.08 780.71,-138.37"/>
<polygon fill="midnightblue" stroke="midnightblue" points="782.95,-135.68 773.08,-131.83 778.4,-141 782.95,-135.68"/>
</g>
<!-- Node16 -->
<g id="node16" class="node">
<title>Node16</title>
<g id="a_node16"><a xlink:href="Ioss__Property_8h.html" target="_top" xlink:title=" ">
<polygon fill="white" stroke="black" points="765.78,-56.5 765.78,-75.5 849.78,-75.5 849.78,-56.5 765.78,-56.5"/>
<text text-anchor="middle" x="807.78" y="-63.5" font-family="Helvetica,sans-Serif" font-size="10.00">Ioss_Property.h</text>
</a>
</g>
</g>
<!-- Node14&#45;&gt;Node16 -->
<g id="edge25" class="edge">
<title>Node14&#45;&gt;Node16</title>
<path fill="none" stroke="midnightblue" d="M830.42,-168.45C836.61,-155.89 846.1,-131.79 839.78,-112 836.44,-101.54 829.68,-91.43 823.23,-83.45"/>
<polygon fill="midnightblue" stroke="midnightblue" points="825.72,-80.98 816.53,-75.71 820.43,-85.56 825.72,-80.98"/>
</g>
<!-- Node17 -->
<g id="node17" class="node">
<title>Node17</title>
<g id="a_node17"><a xlink:href="Ioss__Sort_8h.html" target="_top" xlink:title=" ">
<polygon fill="white" stroke="black" points="1068.28,-112.5 1068.28,-131.5 1135.28,-131.5 1135.28,-112.5 1068.28,-112.5"/>
<text text-anchor="middle" x="1101.78" y="-119.5" font-family="Helvetica,sans-Serif" font-size="10.00">Ioss_Sort.h</text>
</a>
</g>
</g>
<!-- Node14&#45;&gt;Node17 -->
<g id="edge29" class="edge">
<title>Node14&#45;&gt;Node17</title>
<path fill="none" stroke="midnightblue" d="M860.55,-170.46C904.16,-162.22 981.49,-147.48 1057.73,-132.19"/>
<polygon fill="midnightblue" stroke="midnightblue" points="1058.87,-135.53 1067.99,-130.12 1057.49,-128.66 1058.87,-135.53"/>
</g>
<!-- Node19 -->
<g id="node19" class="node">
<title>Node19</title>
<g id="a_node19"><a xlink:title=" ">
<polygon fill="white" stroke="#bfbfbf" points="1240.78,-0.5 1240.78,-19.5 1296.78,-19.5 1296.78,-0.5 1240.78,-0.5"/>
<text text-anchor="middle" x="1268.78" y="-7.5" font-family="Helvetica,sans-Serif" font-size="10.00">algorithm</text>
</a>
</g>
</g>
<!-- Node14&#45;&gt;Node19 -->
<g id="edge38" class="edge">
<title>Node14&#45;&gt;Node19</title>
<path fill="none" stroke="midnightblue" d="M860.48,-177.16C944.48,-176.88 1155.97,-172.12 1211.78,-132 1245.93,-107.45 1260.29,-57.07 1265.76,-29.7"/>
<polygon fill="midnightblue" stroke="midnightblue" points="1269.27,-29.98 1267.6,-19.52 1262.38,-28.74 1269.27,-29.98"/>
</g>
<!-- Node14&#45;&gt;Node23 -->
<g id="edge39" class="edge">
<title>Node14&#45;&gt;Node23</title>
<path fill="none" stroke="midnightblue" d="M860.36,-173.46C917.29,-167.34 1034.45,-153.52 1143.16,-131.91"/>
<polygon fill="midnightblue" stroke="midnightblue" points="1143.86,-135.33 1152.97,-129.93 1142.48,-128.47 1143.86,-135.33"/>
</g>
<!-- Node24 -->
<g id="node24" class="node">
<title>Node24</title>
<g id="a_node24"><a xlink:title=" ">
<polygon fill="white" stroke="#bfbfbf" points="1005.78,-112.5 1005.78,-131.5 1049.78,-131.5 1049.78,-112.5 1005.78,-112.5"/>
<text text-anchor="middle" x="1027.78" y="-119.5" font-family="Helvetica,sans-Serif" font-size="10.00">cmath</text>
</a>
</g>
</g>
<!-- Node14&#45;&gt;Node24 -->
<g id="edge40" class="edge">
<title>Node14&#45;&gt;Node24</title>
<path fill="none" stroke="midnightblue" d="M857.78,-168.44C895.51,-158.36 957.84,-141.7 995.62,-131.6"/>
<polygon fill="midnightblue" stroke="midnightblue" points="996.83,-134.89 1005.59,-128.93 995.03,-128.13 996.83,-134.89"/>
</g>
<!-- Node25 -->
<g id="node25" class="node">
<title>Node25</title>
<g id="a_node25"><a xlink:title=" ">
<polygon fill="white" stroke="#bfbfbf" points="514.28,-112.5 514.28,-131.5 559.28,-131.5 559.28,-112.5 514.28,-112.5"/>
<text text-anchor="middle" x="536.78" y="-119.5" font-family="Helvetica,sans-Serif" font-size="10.00">cstdlib</text>
</a>
</g>
</g>
<!-- Node14&#45;&gt;Node25 -->
<g id="edge43" class="edge">
<title>Node14&#45;&gt;Node25</title>
<path fill="none" stroke="midnightblue" d="M791.05,-172.06C743.3,-165.01 654.52,-151.03 569.27,-131.91"/>
<polygon fill="midnightblue" stroke="midnightblue" points="569.96,-128.48 559.43,-129.68 568.41,-135.3 569.96,-128.48"/>
</g>
<!-- Node26 -->
<g id="node26" class="node">
<title>Node26</title>
<g id="a_node26"><a xlink:title=" ">
<polygon fill="white" stroke="#bfbfbf" points="577.78,-112.5 577.78,-131.5 631.78,-131.5 631.78,-112.5 577.78,-112.5"/>
<text text-anchor="middle" x="604.78" y="-119.5" font-family="Helvetica,sans-Serif" font-size="10.00">iostream</text>
</a>
</g>
</g>
<!-- Node14&#45;&gt;Node26 -->
<g id="edge44" class="edge">
<title>Node14&#45;&gt;Node26</title>
<path fill="none" stroke="midnightblue" d="M790.98,-168.61C755.82,-160.11 699.66,-146.49 641.93,-132.27"/>
<polygon fill="midnightblue" stroke="midnightblue" points="642.45,-128.8 631.9,-129.8 640.77,-135.59 642.45,-128.8"/>
</g>
<!-- Node27 -->
<g id="node27" class="node">
<title>Node27</title>
<g id="a_node27"><a xlink:title=" ">
<polygon fill="white" stroke="#bfbfbf" points="650.28,-112.5 650.28,-131.5 709.28,-131.5 709.28,-112.5 650.28,-112.5"/>
<text text-anchor="middle" x="679.78" y="-119.5" font-family="Helvetica,sans-Serif" font-size="10.00">stdexcept</text>
</a>
</g>
</g>
<!-- Node14&#45;&gt;Node27 -->
<g id="edge45" class="edge">
<title>Node14&#45;&gt;Node27</title>
<path fill="none" stroke="midnightblue" d="M802.64,-168.44C778.29,-159.44 739.77,-145.19 712.35,-135.05"/>
<polygon fill="midnightblue" stroke="midnightblue" points="713.4,-131.7 702.8,-131.52 710.97,-138.27 713.4,-131.7"/>
</g>
<!-- Node15&#45;&gt;Node2 -->
<g id="edge21" class="edge">
<title>Node15&#45;&gt;Node2</title>
<path fill="none" stroke="midnightblue" d="M727.43,-113.78C724.17,-113.16 720.91,-112.56 717.78,-112 638.54,-97.91 546.65,-84.02 488.14,-75.48"/>
<polygon fill="midnightblue" stroke="midnightblue" points="488.37,-71.98 477.97,-74 487.36,-78.91 488.37,-71.98"/>
</g>
<!-- Node15&#45;&gt;Node4 -->
<g id="edge22" class="edge">
<title>Node15&#45;&gt;Node4</title>
<path fill="none" stroke="midnightblue" d="M786,-112.37C838.42,-92.89 966,-45.48 1026.25,-23.09"/>
<polygon fill="midnightblue" stroke="midnightblue" points="1027.5,-26.36 1035.66,-19.59 1025.06,-19.79 1027.5,-26.36"/>
</g>
<!-- Node15&#45;&gt;Node6 -->
<g id="edge23" class="edge">
<title>Node15&#45;&gt;Node6</title>
<path fill="none" stroke="midnightblue" d="M740.41,-112.37C689.66,-92.78 565.71,-44.94 508.11,-22.71"/>
<polygon fill="midnightblue" stroke="midnightblue" points="509.08,-19.33 498.49,-18.99 506.56,-25.86 509.08,-19.33"/>
</g>
<!-- Node15&#45;&gt;Node7 -->
<g id="edge24" class="edge">
<title>Node15&#45;&gt;Node7</title>
<path fill="none" stroke="midnightblue" d="M751.79,-112.37C742.32,-104.17 729.34,-90.92 723.78,-76 718.05,-60.64 722.98,-42.31 728.52,-29.04"/>
<polygon fill="midnightblue" stroke="midnightblue" points="731.85,-30.18 732.89,-19.64 725.5,-27.23 731.85,-30.18"/>
</g>
<!-- Node16&#45;&gt;Node5 -->
<g id="edge26" class="edge">
<title>Node16&#45;&gt;Node5</title>
<path fill="none" stroke="midnightblue" d="M807.78,-56.08C807.78,-49.01 807.78,-38.86 807.78,-29.99"/>
<polygon fill="midnightblue" stroke="midnightblue" points="811.28,-29.75 807.78,-19.75 804.28,-29.75 811.28,-29.75"/>
</g>
<!-- Node16&#45;&gt;Node6 -->
<g id="edge27" class="edge">
<title>Node16&#45;&gt;Node6</title>
<path fill="none" stroke="midnightblue" d="M765.65,-58.11C698.28,-47.08 567.86,-25.74 508.52,-16.03"/>
<polygon fill="midnightblue" stroke="midnightblue" points="509.06,-12.57 498.63,-14.41 507.93,-19.48 509.06,-12.57"/>
</g>
<!-- Node16&#45;&gt;Node7 -->
<g id="edge28" class="edge">
<title>Node16&#45;&gt;Node7</title>
<path fill="none" stroke="midnightblue" d="M796.53,-56.32C785.98,-48.18 769.98,-35.84 757.33,-26.09"/>
<polygon fill="midnightblue" stroke="midnightblue" points="759.28,-23.17 749.23,-19.83 755.01,-28.71 759.28,-23.17"/>
</g>
<!-- Node17&#45;&gt;Node4 -->
<g id="edge36" class="edge">
<title>Node17&#45;&gt;Node4</title>
<path fill="none" stroke="midnightblue" d="M1098.4,-112.37C1091.4,-94.46 1075.16,-52.92 1065.79,-28.95"/>
<polygon fill="midnightblue" stroke="midnightblue" points="1069.04,-27.63 1062.13,-19.59 1062.52,-30.18 1069.04,-27.63"/>
</g>
<!-- Node17&#45;&gt;Node7 -->
<g id="edge37" class="edge">
<title>Node17&#45;&gt;Node7</title>
<path fill="none" stroke="midnightblue" d="M1074.63,-112.45C1034.66,-99.89 957.56,-75.79 891.78,-56 849.72,-43.35 801.05,-29.21 769.87,-20.22"/>
<polygon fill="midnightblue" stroke="midnightblue" points="770.57,-16.78 760,-17.37 768.64,-23.5 770.57,-16.78"/>
</g>
<!-- Node18 -->
<g id="node18" class="node">
<title>Node18</title>
<g id="a_node18"><a xlink:href="pdqsort_8h.html" target="_top" xlink:title=" ">
<polygon fill="white" stroke="black" points="1170.28,-56.5 1170.28,-75.5 1227.28,-75.5 1227.28,-56.5 1170.28,-56.5"/>
<text text-anchor="middle" x="1198.78" y="-63.5" font-family="Helvetica,sans-Serif" font-size="10.00">pdqsort.h</text>
</a>
</g>
</g>
<!-- Node17&#45;&gt;Node18 -->
<g id="edge30" class="edge">
<title>Node17&#45;&gt;Node18</title>
<path fill="none" stroke="midnightblue" d="M1117.36,-112.32C1132.78,-103.74 1156.59,-90.49 1174.49,-80.52"/>
<polygon fill="midnightblue" stroke="midnightblue" points="1176.2,-83.58 1183.23,-75.65 1172.79,-77.46 1176.2,-83.58"/>
</g>
<!-- Node18&#45;&gt;Node4 -->
<g id="edge32" class="edge">
<title>Node18&#45;&gt;Node4</title>
<path fill="none" stroke="midnightblue" d="M1176.59,-56.44C1153.35,-47.48 1116.63,-33.31 1090.36,-23.18"/>
<polygon fill="midnightblue" stroke="midnightblue" points="1091.45,-19.85 1080.86,-19.52 1088.93,-26.38 1091.45,-19.85"/>
</g>
<!-- Node18&#45;&gt;Node19 -->
<g id="edge31" class="edge">
<title>Node18&#45;&gt;Node19</title>
<path fill="none" stroke="midnightblue" d="M1210.02,-56.32C1220.57,-48.18 1236.58,-35.84 1249.22,-26.09"/>
<polygon fill="midnightblue" stroke="midnightblue" points="1251.55,-28.71 1257.33,-19.83 1247.27,-23.17 1251.55,-28.71"/>
</g>
<!-- Node18&#45;&gt;Node20 -->
<g id="edge33" class="edge">
<title>Node18&#45;&gt;Node20</title>
<path fill="none" stroke="midnightblue" d="M1170.14,-63.95C1053.21,-59.55 610.8,-41.9 449.75,-20.01"/>
<polygon fill="midnightblue" stroke="midnightblue" points="449.95,-16.51 439.55,-18.57 448.96,-23.44 449.95,-16.51"/>
</g>
<!-- Node21 -->
<g id="node21" class="node">
<title>Node21</title>
<g id="a_node21"><a xlink:title=" ">
<polygon fill="white" stroke="#bfbfbf" points="1116.78,-0.5 1116.78,-19.5 1156.78,-19.5 1156.78,-0.5 1116.78,-0.5"/>
<text text-anchor="middle" x="1136.78" y="-7.5" font-family="Helvetica,sans-Serif" font-size="10.00">utility</text>
</a>
</g>
</g>
<!-- Node18&#45;&gt;Node21 -->
<g id="edge34" class="edge">
<title>Node18&#45;&gt;Node21</title>
<path fill="none" stroke="midnightblue" d="M1188.82,-56.32C1179.65,-48.34 1165.84,-36.31 1154.75,-26.65"/>
<polygon fill="midnightblue" stroke="midnightblue" points="1156.76,-23.76 1146.92,-19.83 1152.16,-29.04 1156.76,-23.76"/>
</g>
<!-- Node22 -->
<g id="node22" class="node">
<title>Node22</title>
<g id="a_node22"><a xlink:title=" ">
<polygon fill="white" stroke="#bfbfbf" points="1175.28,-0.5 1175.28,-19.5 1222.28,-19.5 1222.28,-0.5 1175.28,-0.5"/>
<text text-anchor="middle" x="1198.78" y="-7.5" font-family="Helvetica,sans-Serif" font-size="10.00">iterator</text>
</a>
</g>
</g>
<!-- Node18&#45;&gt;Node22 -->
<g id="edge35" class="edge">
<title>Node18&#45;&gt;Node22</title>
<path fill="none" stroke="midnightblue" d="M1198.78,-56.08C1198.78,-49.01 1198.78,-38.86 1198.78,-29.99"/>
<polygon fill="midnightblue" stroke="midnightblue" points="1202.28,-29.75 1198.78,-19.75 1195.28,-29.75 1202.28,-29.75"/>
</g>
<!-- Node29&#45;&gt;Node2 -->
<g id="edge55" class="edge">
<title>Node29&#45;&gt;Node2</title>
<path fill="none" stroke="midnightblue" d="M360.74,-168.45C368.1,-155.88 382.46,-131.79 395.78,-112 402.13,-102.55 409.6,-92.3 415.83,-83.97"/>
<polygon fill="midnightblue" stroke="midnightblue" points="418.76,-85.9 421.99,-75.81 413.17,-81.69 418.76,-85.9"/>
</g>
<!-- Node29&#45;&gt;Node10 -->
<g id="edge56" class="edge">
<title>Node29&#45;&gt;Node10</title>
<path fill="none" stroke="midnightblue" d="M337.94,-168.32C320.06,-159.62 292.3,-146.12 271.73,-136.11"/>
<polygon fill="midnightblue" stroke="midnightblue" points="273.09,-132.88 262.57,-131.65 270.03,-139.18 273.09,-132.88"/>
</g>
</g>
</svg>
