<?xml version="1.0" encoding="UTF-8" standalone="no"?>
<!DOCTYPE svg PUBLIC "-//W3C//DTD SVG 1.1//EN"
 "http://www.w3.org/Graphics/SVG/1.1/DTD/svg11.dtd">
<!-- Generated by graphviz version 10.0.1 (20240210.2158)
 -->
<!-- Title: src/Ioss_ConstructedVariableType.C Pages: 1 -->
<svg width="1731pt" height="437pt"
 viewBox="0.00 0.00 1730.57 436.50" xmlns="http://www.w3.org/2000/svg" xmlns:xlink="http://www.w3.org/1999/xlink">
<g id="graph0" class="graph" transform="scale(1 1) rotate(0) translate(4 432.5)">
<title>src/Ioss_ConstructedVariableType.C</title>
<!-- Node1 -->
<g id="Node000001" class="node">
<title>Node1</title>
<g id="a_Node000001"><a xlink:title=" ">
<polygon fill="#999999" stroke="#666666" points="1655.84,-428.5 1511.59,-428.5 1511.59,-398 1655.84,-398 1655.84,-428.5"/>
<text text-anchor="start" x="1519.59" y="-415" font-family="Helvetica,sans-Serif" font-size="10.00">src/Ioss_ConstructedVariable</text>
<text text-anchor="middle" x="1583.71" y="-403.75" font-family="Helvetica,sans-Serif" font-size="10.00">Type.C</text>
</a>
</g>
</g>
<!-- Node2 -->
<g id="Node000002" class="node">
<title>Node2</title>
<g id="a_Node000002"><a xlink:href="Ioss__ConstructedVariableType_8h.html" target="_top" xlink:title=" ">
<polygon fill="white" stroke="#666666" points="1693.59,-362 1565.84,-362 1565.84,-331.5 1693.59,-331.5 1693.59,-362"/>
<text text-anchor="start" x="1573.84" y="-348.5" font-family="Helvetica,sans-Serif" font-size="10.00">Ioss_ConstructedVariable</text>
<text text-anchor="middle" x="1629.71" y="-337.25" font-family="Helvetica,sans-Serif" font-size="10.00">Type.h</text>
</a>
</g>
</g>
<!-- Node1&#45;&gt;Node2 -->
<g id="edge1_Node000001_Node000002" class="edge">
<title>Node1&#45;&gt;Node2</title>
<g id="a_edge1_Node000001_Node000002"><a xlink:title=" ">
<path fill="none" stroke="#63b8ff" d="M1594.15,-397.61C1599.62,-389.94 1606.46,-380.36 1612.67,-371.65"/>
<polygon fill="#63b8ff" stroke="#63b8ff" points="1615.48,-373.73 1618.44,-363.56 1609.78,-369.67 1615.48,-373.73"/>
</a>
</g>
</g>
<!-- Node4 -->
<g id="Node000004" class="node">
<title>Node4</title>
<g id="a_Node000004"><a xlink:href="Ioss__VariableType_8h.html" target="_top" xlink:title=" ">
<polygon fill="white" stroke="#666666" points="1215.59,-295.5 1111.84,-295.5 1111.84,-276.25 1215.59,-276.25 1215.59,-295.5"/>
<text text-anchor="middle" x="1163.71" y="-282" font-family="Helvetica,sans-Serif" font-size="10.00">Ioss_VariableType.h</text>
</a>
</g>
</g>
<!-- Node1&#45;&gt;Node4 -->
<g id="edge71_Node000001_Node000004" class="edge">
<title>Node1&#45;&gt;Node4</title>
<g id="a_edge71_Node000001_Node000004"><a xlink:title=" ">
<path fill="none" stroke="#63b8ff" d="M1534.71,-397.62C1451.18,-372.69 1282.72,-322.4 1204.88,-299.16"/>
<polygon fill="#63b8ff" stroke="#63b8ff" points="1206.1,-295.88 1195.52,-296.37 1204.1,-302.58 1206.1,-295.88"/>
</a>
</g>
</g>
<!-- Node9 -->
<g id="Node000009" class="node">
<title>Node9</title>
<g id="a_Node000009"><a xlink:title=" ">
<polygon fill="#e0e0e0" stroke="#999999" points="1589.71,-19.25 1549.71,-19.25 1549.71,0 1589.71,0 1589.71,-19.25"/>
<text text-anchor="middle" x="1569.71" y="-5.75" font-family="Helvetica,sans-Serif" font-size="10.00">string</text>
</a>
</g>
</g>
<!-- Node1&#45;&gt;Node9 -->
<g id="edge73_Node000001_Node000009" class="edge">
<title>Node1&#45;&gt;Node9</title>
<g id="a_edge73_Node000001_Node000009"><a xlink:title=" ">
<path fill="none" stroke="#63b8ff" d="M1647.39,-397.51C1667.6,-389.95 1688.4,-378.67 1702.71,-362 1725.15,-335.87 1721.71,-321.32 1721.71,-286.88 1721.71,-286.88 1721.71,-286.88 1721.71,-119.12 1721.71,-60.49 1645.86,-30.55 1601.33,-18.03"/>
<polygon fill="#63b8ff" stroke="#63b8ff" points="1602.24,-14.65 1591.68,-15.47 1600.44,-21.42 1602.24,-14.65"/>
</a>
</g>
</g>
<!-- Node31 -->
<g id="Node000031" class="node">
<title>Node31</title>
<g id="a_Node000031"><a xlink:title=" ">
<polygon fill="#e0e0e0" stroke="#999999" points="1519.84,-185 1471.59,-185 1471.59,-165.75 1519.84,-165.75 1519.84,-185"/>
<text text-anchor="middle" x="1495.71" y="-171.5" font-family="Helvetica,sans-Serif" font-size="10.00">cassert</text>
</a>
</g>
</g>
<!-- Node1&#45;&gt;Node31 -->
<g id="edge72_Node000001_Node000031" class="edge">
<title>Node1&#45;&gt;Node31</title>
<g id="a_edge72_Node000001_Node000031"><a xlink:title=" ">
<path fill="none" stroke="#63b8ff" d="M1574.98,-397.64C1569.31,-387.79 1562.02,-374.38 1556.71,-362 1531.58,-303.42 1510.48,-230.82 1501.03,-196.35"/>
<polygon fill="#63b8ff" stroke="#63b8ff" points="1504.47,-195.67 1498.48,-186.93 1497.71,-197.5 1504.47,-195.67"/>
</a>
</g>
</g>
<!-- Node3 -->
<g id="Node000003" class="node">
<title>Node3</title>
<g id="a_Node000003"><a xlink:title=" ">
<polygon fill="#e0e0e0" stroke="#999999" points="1488.96,-74.5 1414.46,-74.5 1414.46,-55.25 1488.96,-55.25 1488.96,-74.5"/>
<text text-anchor="middle" x="1451.71" y="-61" font-family="Helvetica,sans-Serif" font-size="10.00">ioss_export.h</text>
</a>
</g>
</g>
<!-- Node2&#45;&gt;Node3 -->
<g id="edge2_Node000002_Node000003" class="edge">
<title>Node2&#45;&gt;Node3</title>
<g id="a_edge2_Node000002_Node000003"><a xlink:title=" ">
<path fill="none" stroke="#63b8ff" d="M1622.53,-331.33C1606.86,-300.25 1567.84,-224.94 1528.71,-165.75 1508.88,-135.75 1482.8,-103.13 1466.65,-83.61"/>
<polygon fill="#63b8ff" stroke="#63b8ff" points="1469.46,-81.51 1460.37,-76.07 1464.09,-85.99 1469.46,-81.51"/>
</a>
</g>
</g>
<!-- Node2&#45;&gt;Node4 -->
<g id="edge3_Node000002_Node000004" class="edge">
<title>Node2&#45;&gt;Node4</title>
<g id="a_edge3_Node000002_Node000004"><a xlink:title=" ">
<path fill="none" stroke="#63b8ff" d="M1565.41,-337.63C1476.19,-326.35 1315.84,-306.09 1227.11,-294.88"/>
<polygon fill="#63b8ff" stroke="#63b8ff" points="1227.73,-291.43 1217.37,-293.65 1226.85,-298.38 1227.73,-291.43"/>
</a>
</g>
</g>
<!-- Node2&#45;&gt;Node9 -->
<g id="edge70_Node000002_Node000009" class="edge">
<title>Node2&#45;&gt;Node9</title>
<g id="a_edge70_Node000002_Node000009"><a xlink:title=" ">
<path fill="none" stroke="#63b8ff" d="M1641.7,-331.29C1657.61,-310.58 1683.71,-270.64 1683.71,-231.62 1683.71,-231.62 1683.71,-231.62 1683.71,-119.12 1683.71,-73.02 1634.19,-40.56 1600.42,-23.78"/>
<polygon fill="#63b8ff" stroke="#63b8ff" points="1602,-20.65 1591.46,-19.54 1599,-26.98 1602,-20.65"/>
</a>
</g>
</g>
<!-- Node4&#45;&gt;Node3 -->
<g id="edge69_Node000004_Node000003" class="edge">
<title>Node4&#45;&gt;Node3</title>
<g id="a_edge69_Node000004_Node000003"><a xlink:title=" ">
<path fill="none" stroke="#63b8ff" d="M1178.21,-275.78C1214.33,-252.89 1310.76,-190.38 1384.71,-129.75 1402.86,-114.87 1422.1,-96.19 1435.29,-82.88"/>
<polygon fill="#63b8ff" stroke="#63b8ff" points="1437.45,-85.67 1441.95,-76.08 1432.45,-80.77 1437.45,-85.67"/>
</a>
</g>
</g>
<!-- Node5 -->
<g id="Node000005" class="node">
<title>Node5</title>
<g id="a_Node000005"><a xlink:href="Ioss__CodeTypes_8h.html" target="_top" xlink:title=" ">
<polygon fill="white" stroke="#666666" points="1051.59,-74.5 953.84,-74.5 953.84,-55.25 1051.59,-55.25 1051.59,-74.5"/>
<text text-anchor="middle" x="1002.71" y="-61" font-family="Helvetica,sans-Serif" font-size="10.00">Ioss_CodeTypes.h</text>
</a>
</g>
</g>
<!-- Node4&#45;&gt;Node5 -->
<g id="edge4_Node000004_Node000005" class="edge">
<title>Node4&#45;&gt;Node5</title>
<g id="a_edge4_Node000004_Node000005"><a xlink:title=" ">
<path fill="none" stroke="#63b8ff" d="M1157.2,-276.02C1133.08,-243.2 1048.5,-128.16 1015.78,-83.65"/>
<polygon fill="#63b8ff" stroke="#63b8ff" points="1018.77,-81.8 1010.03,-75.82 1013.13,-85.95 1018.77,-81.8"/>
</a>
</g>
</g>
<!-- Node4&#45;&gt;Node9 -->
<g id="edge67_Node000004_Node000009" class="edge">
<title>Node4&#45;&gt;Node9</title>
<g id="a_edge67_Node000004_Node000009"><a xlink:title=" ">
<path fill="none" stroke="#63b8ff" d="M1216.01,-283.27C1276.05,-280 1376.7,-270.11 1457.71,-240.25 1501.4,-224.15 1517.39,-221.16 1546.71,-185 1584.72,-138.13 1597.64,-114.6 1586.71,-55.25 1585.14,-46.7 1582,-37.66 1578.84,-29.97"/>
<polygon fill="#63b8ff" stroke="#63b8ff" points="1582.1,-28.68 1574.85,-20.96 1575.7,-31.52 1582.1,-28.68"/>
</a>
</g>
</g>
<!-- Node10 -->
<g id="Node000010" class="node">
<title>Node10</title>
<g id="a_Node000010"><a xlink:title=" ">
<polygon fill="#e0e0e0" stroke="#999999" points="833.21,-19.25 790.21,-19.25 790.21,0 833.21,0 833.21,-19.25"/>
<text text-anchor="middle" x="811.71" y="-5.75" font-family="Helvetica,sans-Serif" font-size="10.00">vector</text>
</a>
</g>
</g>
<!-- Node4&#45;&gt;Node10 -->
<g id="edge68_Node000004_Node000010" class="edge">
<title>Node4&#45;&gt;Node10</title>
<g id="a_edge68_Node000004_Node000010"><a xlink:title=" ">
<path fill="none" stroke="#63b8ff" d="M1141.69,-275.78C1085.18,-251.41 933.5,-179.31 847.71,-74.5 836.49,-60.79 826.83,-43.1 820.35,-29.81"/>
<polygon fill="#63b8ff" stroke="#63b8ff" points="823.56,-28.43 816.15,-20.85 817.22,-31.39 823.56,-28.43"/>
</a>
</g>
</g>
<!-- Node13 -->
<g id="Node000013" class="node">
<title>Node13</title>
<g id="a_Node000013"><a xlink:href="Ioss__Utils_8h.html" target="_top" xlink:title=" ">
<polygon fill="white" stroke="#666666" points="595.96,-240.25 527.46,-240.25 527.46,-221 595.96,-221 595.96,-240.25"/>
<text text-anchor="middle" x="561.71" y="-226.75" font-family="Helvetica,sans-Serif" font-size="10.00">Ioss_Utils.h</text>
</a>
</g>
</g>
<!-- Node4&#45;&gt;Node13 -->
<g id="edge12_Node000004_Node000013" class="edge">
<title>Node4&#45;&gt;Node13</title>
<g id="a_edge12_Node000004_Node000013"><a xlink:title=" ">
<path fill="none" stroke="#63b8ff" d="M1111.34,-280.24C995.15,-269.96 717.37,-245.39 607.54,-235.68"/>
<polygon fill="#63b8ff" stroke="#63b8ff" points="607.99,-232.21 597.72,-234.81 607.38,-239.18 607.99,-232.21"/>
</a>
</g>
</g>
<!-- Node18 -->
<g id="Node000018" class="node">
<title>Node18</title>
<g id="a_Node000018"><a xlink:title=" ">
<polygon fill="#e0e0e0" stroke="#999999" points="1542.09,-74.5 1507.34,-74.5 1507.34,-55.25 1542.09,-55.25 1542.09,-74.5"/>
<text text-anchor="middle" x="1524.71" y="-61" font-family="Helvetica,sans-Serif" font-size="10.00">map</text>
</a>
</g>
</g>
<!-- Node4&#45;&gt;Node18 -->
<g id="edge66_Node000004_Node000018" class="edge">
<title>Node4&#45;&gt;Node18</title>
<g id="a_edge66_Node000004_Node000018"><a xlink:title=" ">
<path fill="none" stroke="#63b8ff" d="M1216.07,-278.33C1307.65,-265.68 1490.8,-234.68 1528.71,-185 1550.71,-156.17 1540.72,-110.99 1532.22,-85.35"/>
<polygon fill="#63b8ff" stroke="#63b8ff" points="1535.62,-84.44 1528.94,-76.21 1529.03,-86.8 1535.62,-84.44"/>
</a>
</g>
</g>
<!-- Node28 -->
<g id="Node000028" class="node">
<title>Node28</title>
<g id="a_Node000028"><a xlink:title=" ">
<polygon fill="#e0e0e0" stroke="#999999" points="707.71,-74.5 649.71,-74.5 649.71,-55.25 707.71,-55.25 707.71,-74.5"/>
<text text-anchor="middle" x="678.71" y="-61" font-family="Helvetica,sans-Serif" font-size="10.00">functional</text>
</a>
</g>
</g>
<!-- Node4&#45;&gt;Node28 -->
<g id="edge65_Node000004_Node000028" class="edge">
<title>Node4&#45;&gt;Node28</title>
<g id="a_edge65_Node000004_Node000028"><a xlink:title=" ">
<path fill="none" stroke="#63b8ff" d="M1111.59,-282.12C1060.62,-277.89 981.72,-267.2 918.71,-240.25 825.3,-200.29 733.33,-118.36 696.06,-82.88"/>
<polygon fill="#63b8ff" stroke="#63b8ff" points="698.51,-80.38 688.88,-75.97 693.65,-85.42 698.51,-80.38"/>
</a>
</g>
</g>
<!-- Node36 -->
<g id="Node000036" class="node">
<title>Node36</title>
<g id="a_Node000036"><a xlink:title=" ">
<polygon fill="#e0e0e0" stroke="#999999" points="973.34,-240.25 928.09,-240.25 928.09,-221 973.34,-221 973.34,-240.25"/>
<text text-anchor="middle" x="950.71" y="-226.75" font-family="Helvetica,sans-Serif" font-size="10.00">cstring</text>
</a>
</g>
</g>
<!-- Node4&#45;&gt;Node36 -->
<g id="edge64_Node000004_Node000036" class="edge">
<title>Node4&#45;&gt;Node36</title>
<g id="a_edge64_Node000004_Node000036"><a xlink:title=" ">
<path fill="none" stroke="#63b8ff" d="M1127.58,-275.84C1087.59,-265.84 1023.64,-249.86 984.58,-240.09"/>
<polygon fill="#63b8ff" stroke="#63b8ff" points="985.57,-236.73 975.02,-237.7 983.87,-243.52 985.57,-236.73"/>
</a>
</g>
</g>
<!-- Node6 -->
<g id="Node000006" class="node">
<title>Node6</title>
<g id="a_Node000006"><a xlink:title=" ">
<polygon fill="#e0e0e0" stroke="#999999" points="1092.59,-19.25 1054.84,-19.25 1054.84,0 1092.59,0 1092.59,-19.25"/>
<text text-anchor="middle" x="1073.71" y="-5.75" font-family="Helvetica,sans-Serif" font-size="10.00">array</text>
</a>
</g>
</g>
<!-- Node5&#45;&gt;Node6 -->
<g id="edge5_Node000005_Node000006" class="edge">
<title>Node5&#45;&gt;Node6</title>
<g id="a_edge5_Node000005_Node000006"><a xlink:title=" ">
<path fill="none" stroke="#63b8ff" d="M1014.76,-54.84C1025.12,-47.07 1040.31,-35.67 1052.68,-26.4"/>
<polygon fill="#63b8ff" stroke="#63b8ff" points="1054.74,-29.23 1060.64,-20.43 1050.54,-23.63 1054.74,-29.23"/>
</a>
</g>
</g>
<!-- Node7 -->
<g id="Node000007" class="node">
<title>Node7</title>
<g id="a_Node000007"><a xlink:title=" ">
<polygon fill="#e0e0e0" stroke="#999999" points="345.84,-19.25 297.59,-19.25 297.59,0 345.84,0 345.84,-19.25"/>
<text text-anchor="middle" x="321.71" y="-5.75" font-family="Helvetica,sans-Serif" font-size="10.00">cstddef</text>
</a>
</g>
</g>
<!-- Node5&#45;&gt;Node7 -->
<g id="edge6_Node000005_Node000007" class="edge">
<title>Node5&#45;&gt;Node7</title>
<g id="a_edge6_Node000005_Node000007"><a xlink:title=" ">
<path fill="none" stroke="#63b8ff" d="M953.46,-60.02C823.17,-49.84 471.64,-22.35 357.81,-13.45"/>
<polygon fill="#63b8ff" stroke="#63b8ff" points="358.09,-9.96 347.85,-12.67 357.54,-16.94 358.09,-9.96"/>
</a>
</g>
</g>
<!-- Node8 -->
<g id="Node000008" class="node">
<title>Node8</title>
<g id="a_Node000008"><a xlink:title=" ">
<polygon fill="#e0e0e0" stroke="#999999" points="580.34,-19.25 535.09,-19.25 535.09,0 580.34,0 580.34,-19.25"/>
<text text-anchor="middle" x="557.71" y="-5.75" font-family="Helvetica,sans-Serif" font-size="10.00">cstdint</text>
</a>
</g>
</g>
<!-- Node5&#45;&gt;Node8 -->
<g id="edge7_Node000005_Node000008" class="edge">
<title>Node5&#45;&gt;Node8</title>
<g id="a_edge7_Node000005_Node000008"><a xlink:title=" ">
<path fill="none" stroke="#63b8ff" d="M953.39,-57.97C862.34,-47.08 670.05,-24.07 591.86,-14.71"/>
<polygon fill="#63b8ff" stroke="#63b8ff" points="592.6,-11.27 582.25,-13.56 591.76,-18.22 592.6,-11.27"/>
</a>
</g>
</g>
<!-- Node5&#45;&gt;Node9 -->
<g id="edge8_Node000005_Node000009" class="edge">
<title>Node5&#45;&gt;Node9</title>
<g id="a_edge8_Node000005_Node000009"><a xlink:title=" ">
<path fill="none" stroke="#63b8ff" d="M1051.87,-56.92C1056.54,-56.32 1061.22,-55.76 1065.71,-55.25 1244.22,-35.14 1459.16,-18.68 1538.4,-12.87"/>
<polygon fill="#63b8ff" stroke="#63b8ff" points="1538.28,-16.39 1548,-12.18 1537.78,-9.41 1538.28,-16.39"/>
</a>
</g>
</g>
<!-- Node5&#45;&gt;Node10 -->
<g id="edge9_Node000005_Node000010" class="edge">
<title>Node5&#45;&gt;Node10</title>
<g id="a_edge9_Node000005_Node000010"><a xlink:title=" ">
<path fill="none" stroke="#63b8ff" d="M969.69,-54.82C939.42,-46.5 893.06,-33.7 844.67,-20.07"/>
<polygon fill="#63b8ff" stroke="#63b8ff" points="845.69,-16.72 835.12,-17.37 843.79,-23.46 845.69,-16.72"/>
</a>
</g>
</g>
<!-- Node11 -->
<g id="Node000011" class="node">
<title>Node11</title>
<g id="a_Node000011"><a xlink:title=" ">
<polygon fill="#e0e0e0" stroke="#999999" points="966.59,-19.25 850.84,-19.25 850.84,0 966.59,0 966.59,-19.25"/>
<text text-anchor="middle" x="908.71" y="-5.75" font-family="Helvetica,sans-Serif" font-size="10.00">SEACASIoss_config.h</text>
</a>
</g>
</g>
<!-- Node5&#45;&gt;Node11 -->
<g id="edge10_Node000005_Node000011" class="edge">
<title>Node5&#45;&gt;Node11</title>
<g id="a_edge10_Node000005_Node000011"><a xlink:title=" ">
<path fill="none" stroke="#63b8ff" d="M986.77,-54.84C972.45,-46.73 951.18,-34.68 934.46,-25.21"/>
<polygon fill="#63b8ff" stroke="#63b8ff" points="936.48,-22.33 926.05,-20.45 933.03,-28.42 936.48,-22.33"/>
</a>
</g>
</g>
<!-- Node12 -->
<g id="Node000012" class="node">
<title>Node12</title>
<g id="a_Node000012"><a xlink:title=" ">
<polygon fill="#e0e0e0" stroke="#999999" points="1037.09,-19.25 984.34,-19.25 984.34,0 1037.09,0 1037.09,-19.25"/>
<text text-anchor="middle" x="1010.71" y="-5.75" font-family="Helvetica,sans-Serif" font-size="10.00">complex</text>
</a>
</g>
</g>
<!-- Node5&#45;&gt;Node12 -->
<g id="edge11_Node000005_Node000012" class="edge">
<title>Node5&#45;&gt;Node12</title>
<g id="a_edge11_Node000005_Node000012"><a xlink:title=" ">
<path fill="none" stroke="#63b8ff" d="M1004.03,-55.08C1005.02,-48.49 1006.42,-39.21 1007.68,-30.82"/>
<polygon fill="#63b8ff" stroke="#63b8ff" points="1011.11,-31.51 1009.14,-21.11 1004.19,-30.47 1011.11,-31.51"/>
</a>
</g>
</g>
<!-- Node13&#45;&gt;Node3 -->
<g id="edge63_Node000013_Node000003" class="edge">
<title>Node13&#45;&gt;Node3</title>
<g id="a_edge63_Node000013_Node000003"><a xlink:title=" ">
<path fill="none" stroke="#63b8ff" d="M596.26,-228.39C727.98,-223.54 1194.38,-205.1 1257.71,-185 1294.25,-173.4 1386.78,-111 1429.49,-81.43"/>
<polygon fill="#63b8ff" stroke="#63b8ff" points="1431.29,-84.44 1437.5,-75.86 1427.29,-78.7 1431.29,-84.44"/>
</a>
</g>
</g>
<!-- Node13&#45;&gt;Node5 -->
<g id="edge13_Node000013_Node000005" class="edge">
<title>Node13&#45;&gt;Node5</title>
<g id="a_edge13_Node000013_Node000005"><a xlink:title=" ">
<path fill="none" stroke="#63b8ff" d="M596.3,-226.18C641.44,-220.92 722.35,-208.89 787.71,-185 862.77,-157.56 943.06,-106.52 980.77,-81.09"/>
<polygon fill="#63b8ff" stroke="#63b8ff" points="982.28,-84.3 988.57,-75.78 978.34,-78.51 982.28,-84.3"/>
</a>
</g>
</g>
<!-- Node13&#45;&gt;Node7 -->
<g id="edge56_Node000013_Node000007" class="edge">
<title>Node13&#45;&gt;Node7</title>
<g id="a_edge56_Node000013_Node000007"><a xlink:title=" ">
<path fill="none" stroke="#63b8ff" d="M526.98,-229.44C412.47,-228.47 52.23,-222.46 17.71,-185 -68.46,-91.46 188.77,-34.42 286.07,-16.63"/>
<polygon fill="#63b8ff" stroke="#63b8ff" points="286.65,-20.09 295.88,-14.88 285.42,-13.19 286.65,-20.09"/>
</a>
</g>
</g>
<!-- Node13&#45;&gt;Node8 -->
<g id="edge57_Node000013_Node000008" class="edge">
<title>Node13&#45;&gt;Node8</title>
<g id="a_edge57_Node000013_Node000008"><a xlink:title=" ">
<path fill="none" stroke="#63b8ff" d="M561.55,-220.77C560.96,-188.51 558.92,-76.76 558.08,-30.71"/>
<polygon fill="#63b8ff" stroke="#63b8ff" points="561.58,-30.8 557.9,-20.86 554.58,-30.93 561.58,-30.8"/>
</a>
</g>
</g>
<!-- Node13&#45;&gt;Node9 -->
<g id="edge61_Node000013_Node000009" class="edge">
<title>Node13&#45;&gt;Node9</title>
<g id="a_edge61_Node000013_Node000009"><a xlink:title=" ">
<path fill="none" stroke="#63b8ff" d="M596.15,-228.63C721.73,-224.85 1154.82,-210.22 1290.71,-185 1421.85,-160.67 1501,-188.81 1569.71,-74.5 1577.59,-61.4 1576.98,-43.89 1574.75,-30.52"/>
<polygon fill="#63b8ff" stroke="#63b8ff" points="1578.25,-30.18 1572.75,-21.13 1571.41,-31.64 1578.25,-30.18"/>
</a>
</g>
</g>
<!-- Node13&#45;&gt;Node10 -->
<g id="edge62_Node000013_Node000010" class="edge">
<title>Node13&#45;&gt;Node10</title>
<g id="a_edge62_Node000013_Node000010"><a xlink:title=" ">
<path fill="none" stroke="#63b8ff" d="M572.72,-220.79C601.62,-197.49 681.85,-132.2 745.71,-74.5 762.83,-59.04 781.67,-40.66 794.82,-27.6"/>
<polygon fill="#63b8ff" stroke="#63b8ff" points="797.26,-30.11 801.86,-20.57 792.31,-25.16 797.26,-30.11"/>
</a>
</g>
</g>
<!-- Node14 -->
<g id="Node000014" class="node">
<title>Node14</title>
<g id="a_Node000014"><a xlink:href="Ioss__ElementTopology_8h.html" target="_top" xlink:title=" ">
<polygon fill="white" stroke="#666666" points="1248.59,-185 1126.84,-185 1126.84,-165.75 1248.59,-165.75 1248.59,-185"/>
<text text-anchor="middle" x="1187.71" y="-171.5" font-family="Helvetica,sans-Serif" font-size="10.00">Ioss_ElementTopology.h</text>
</a>
</g>
</g>
<!-- Node13&#45;&gt;Node14 -->
<g id="edge14_Node000013_Node000014" class="edge">
<title>Node13&#45;&gt;Node14</title>
<g id="a_edge14_Node000013_Node000014"><a xlink:title=" ">
<path fill="none" stroke="#63b8ff" d="M596.26,-226.69C695.01,-218.29 980.04,-194.04 1115.1,-182.55"/>
<polygon fill="#63b8ff" stroke="#63b8ff" points="1115.34,-186.04 1125.01,-181.71 1114.74,-179.07 1115.34,-186.04"/>
</a>
</g>
</g>
<!-- Node21 -->
<g id="Node000021" class="node">
<title>Node21</title>
<g id="a_Node000021"><a xlink:href="Ioss__EntityType_8h.html" target="_top" xlink:title=" ">
<polygon fill="white" stroke="#666666" points="121.09,-185 26.34,-185 26.34,-165.75 121.09,-165.75 121.09,-185"/>
<text text-anchor="middle" x="73.71" y="-171.5" font-family="Helvetica,sans-Serif" font-size="10.00">Ioss_EntityType.h</text>
</a>
</g>
</g>
<!-- Node13&#45;&gt;Node21 -->
<g id="edge30_Node000013_Node000021" class="edge">
<title>Node13&#45;&gt;Node21</title>
<g id="a_edge30_Node000013_Node000021"><a xlink:title=" ">
<path fill="none" stroke="#63b8ff" d="M527.21,-226.65C455.61,-220.35 285.45,-204.72 132.34,-185.28"/>
<polygon fill="#63b8ff" stroke="#63b8ff" points="133.21,-181.87 122.85,-184.07 132.33,-188.81 133.21,-181.87"/>
</a>
</g>
</g>
<!-- Node22 -->
<g id="Node000022" class="node">
<title>Node22</title>
<g id="a_Node000022"><a xlink:href="Ioss__Field_8h.html" target="_top" xlink:title=" ">
<polygon fill="white" stroke="#666666" points="1023.34,-129.75 954.09,-129.75 954.09,-110.5 1023.34,-110.5 1023.34,-129.75"/>
<text text-anchor="middle" x="988.71" y="-116.25" font-family="Helvetica,sans-Serif" font-size="10.00">Ioss_Field.h</text>
</a>
</g>
</g>
<!-- Node13&#45;&gt;Node22 -->
<g id="edge31_Node000013_Node000022" class="edge">
<title>Node13&#45;&gt;Node22</title>
<g id="a_edge31_Node000013_Node000022"><a xlink:title=" ">
<path fill="none" stroke="#63b8ff" d="M596.42,-228.93C678.39,-226.77 881.48,-218.11 939.71,-185 957.72,-174.76 971.3,-154.97 979.55,-140.11"/>
<polygon fill="#63b8ff" stroke="#63b8ff" points="982.62,-141.79 984.1,-131.3 976.4,-138.58 982.62,-141.79"/>
</a>
</g>
</g>
<!-- Node23 -->
<g id="Node000023" class="node">
<title>Node23</title>
<g id="a_Node000023"><a xlink:href="Ioss__Property_8h.html" target="_top" xlink:title=" ">
<polygon fill="white" stroke="#666666" points="656.46,-129.75 572.96,-129.75 572.96,-110.5 656.46,-110.5 656.46,-129.75"/>
<text text-anchor="middle" x="614.71" y="-116.25" font-family="Helvetica,sans-Serif" font-size="10.00">Ioss_Property.h</text>
</a>
</g>
</g>
<!-- Node13&#45;&gt;Node23 -->
<g id="edge38_Node000013_Node000023" class="edge">
<title>Node13&#45;&gt;Node23</title>
<g id="a_edge38_Node000013_Node000023"><a xlink:title=" ">
<path fill="none" stroke="#63b8ff" d="M566.05,-220.75C574.59,-203.26 593.76,-164.02 605.33,-140.34"/>
<polygon fill="#63b8ff" stroke="#63b8ff" points="608.41,-142.01 609.65,-131.49 602.12,-138.94 608.41,-142.01"/>
</a>
</g>
</g>
<!-- Node25 -->
<g id="Node000025" class="node">
<title>Node25</title>
<g id="a_Node000025"><a xlink:href="Ioss__Sort_8h.html" target="_top" xlink:title=" ">
<polygon fill="white" stroke="#666666" points="514.84,-185 448.59,-185 448.59,-165.75 514.84,-165.75 514.84,-185"/>
<text text-anchor="middle" x="481.71" y="-171.5" font-family="Helvetica,sans-Serif" font-size="10.00">Ioss_Sort.h</text>
</a>
</g>
</g>
<!-- Node13&#45;&gt;Node25 -->
<g id="edge44_Node000013_Node000025" class="edge">
<title>Node13&#45;&gt;Node25</title>
<g id="a_edge44_Node000013_Node000025"><a xlink:title=" ">
<path fill="none" stroke="#63b8ff" d="M548.14,-220.59C536.31,-212.71 518.88,-201.11 504.84,-191.77"/>
<polygon fill="#63b8ff" stroke="#63b8ff" points="506.88,-188.92 496.61,-186.29 503,-194.75 506.88,-188.92"/>
</a>
</g>
</g>
<!-- Node27 -->
<g id="Node000027" class="node">
<title>Node27</title>
<g id="a_Node000027"><a xlink:title=" ">
<polygon fill="#e0e0e0" stroke="#999999" points="255.59,-74.5 199.84,-74.5 199.84,-55.25 255.59,-55.25 255.59,-74.5"/>
<text text-anchor="middle" x="227.71" y="-61" font-family="Helvetica,sans-Serif" font-size="10.00">algorithm</text>
</a>
</g>
</g>
<!-- Node13&#45;&gt;Node27 -->
<g id="edge53_Node000013_Node000027" class="edge">
<title>Node13&#45;&gt;Node27</title>
<g id="a_edge53_Node000013_Node000027"><a xlink:title=" ">
<path fill="none" stroke="#63b8ff" d="M533.1,-220.59C508.04,-212.34 470.88,-199.29 439.71,-185 402.61,-167.99 300.6,-108.71 252.91,-80.72"/>
<polygon fill="#63b8ff" stroke="#63b8ff" points="254.77,-77.75 244.37,-75.71 251.22,-83.79 254.77,-77.75"/>
</a>
</g>
</g>
<!-- Node13&#45;&gt;Node31 -->
<g id="edge54_Node000013_Node000031" class="edge">
<title>Node13&#45;&gt;Node31</title>
<g id="a_edge54_Node000013_Node000031"><a xlink:title=" ">
<path fill="none" stroke="#63b8ff" d="M596.35,-228.7C739.65,-224.77 1286.63,-208.49 1457.71,-185 1458.54,-184.89 1459.38,-184.76 1460.22,-184.63"/>
<polygon fill="#63b8ff" stroke="#63b8ff" points="1460.62,-188.12 1469.81,-182.85 1459.34,-181.24 1460.62,-188.12"/>
</a>
</g>
</g>
<!-- Node32 -->
<g id="Node000032" class="node">
<title>Node32</title>
<g id="a_Node000032"><a xlink:title=" ">
<polygon fill="#e0e0e0" stroke="#999999" points="182.21,-185 139.21,-185 139.21,-165.75 182.21,-165.75 182.21,-185"/>
<text text-anchor="middle" x="160.71" y="-171.5" font-family="Helvetica,sans-Serif" font-size="10.00">cmath</text>
</a>
</g>
</g>
<!-- Node13&#45;&gt;Node32 -->
<g id="edge55_Node000013_Node000032" class="edge">
<title>Node13&#45;&gt;Node32</title>
<g id="a_edge55_Node000013_Node000032"><a xlink:title=" ">
<path fill="none" stroke="#63b8ff" d="M527.01,-227.2C463.02,-222.35 322.01,-209.92 193.81,-185.12"/>
<polygon fill="#63b8ff" stroke="#63b8ff" points="194.6,-181.71 184.12,-183.21 193.25,-188.57 194.6,-181.71"/>
</a>
</g>
</g>
<!-- Node33 -->
<g id="Node000033" class="node">
<title>Node33</title>
<g id="a_Node000033"><a xlink:title=" ">
<polygon fill="#e0e0e0" stroke="#999999" points="244.96,-185 200.46,-185 200.46,-165.75 244.96,-165.75 244.96,-185"/>
<text text-anchor="middle" x="222.71" y="-171.5" font-family="Helvetica,sans-Serif" font-size="10.00">cstdlib</text>
</a>
</g>
</g>
<!-- Node13&#45;&gt;Node33 -->
<g id="edge58_Node000013_Node000033" class="edge">
<title>Node13&#45;&gt;Node33</title>
<g id="a_edge58_Node000013_Node000033"><a xlink:title=" ">
<path fill="none" stroke="#63b8ff" d="M527.28,-226.09C472.04,-220.1 360.05,-206.68 256.3,-185.32"/>
<polygon fill="#63b8ff" stroke="#63b8ff" points="257.3,-181.95 246.8,-183.33 255.87,-188.81 257.3,-181.95"/>
</a>
</g>
</g>
<!-- Node34 -->
<g id="Node000034" class="node">
<title>Node34</title>
<g id="a_Node000034"><a xlink:title=" ">
<polygon fill="#e0e0e0" stroke="#999999" points="316.46,-185 262.96,-185 262.96,-165.75 316.46,-165.75 316.46,-185"/>
<text text-anchor="middle" x="289.71" y="-171.5" font-family="Helvetica,sans-Serif" font-size="10.00">iostream</text>
</a>
</g>
</g>
<!-- Node13&#45;&gt;Node34 -->
<g id="edge59_Node000013_Node000034" class="edge">
<title>Node13&#45;&gt;Node34</title>
<g id="a_edge59_Node000013_Node000034"><a xlink:title=" ">
<path fill="none" stroke="#63b8ff" d="M527.22,-223.64C483.22,-215.89 404.54,-201.64 327.64,-185.33"/>
<polygon fill="#63b8ff" stroke="#63b8ff" points="328.8,-182 318.29,-183.33 327.34,-188.84 328.8,-182"/>
</a>
</g>
</g>
<!-- Node35 -->
<g id="Node000035" class="node">
<title>Node35</title>
<g id="a_Node000035"><a xlink:title=" ">
<polygon fill="#e0e0e0" stroke="#999999" points="393.09,-185 334.34,-185 334.34,-165.75 393.09,-165.75 393.09,-185"/>
<text text-anchor="middle" x="363.71" y="-171.5" font-family="Helvetica,sans-Serif" font-size="10.00">stdexcept</text>
</a>
</g>
</g>
<!-- Node13&#45;&gt;Node35 -->
<g id="edge60_Node000013_Node000035" class="edge">
<title>Node13&#45;&gt;Node35</title>
<g id="a_edge60_Node000013_Node000035"><a xlink:title=" ">
<path fill="none" stroke="#63b8ff" d="M528.13,-220.59C493.93,-211.4 440.89,-197.13 404.35,-187.3"/>
<polygon fill="#63b8ff" stroke="#63b8ff" points="405.6,-184.02 395.04,-184.8 403.78,-190.78 405.6,-184.02"/>
</a>
</g>
</g>
<!-- Node14&#45;&gt;Node3 -->
<g id="edge29_Node000014_Node000003" class="edge">
<title>Node14&#45;&gt;Node3</title>
<g id="a_edge29_Node000014_Node000003"><a xlink:title=" ">
<path fill="none" stroke="#63b8ff" d="M1214.33,-165.38C1239.4,-156.76 1277.89,-143.11 1310.71,-129.75 1316.22,-127.51 1381.42,-97.87 1421.2,-79.77"/>
<polygon fill="#63b8ff" stroke="#63b8ff" points="1422.65,-82.95 1430.3,-75.63 1419.75,-76.58 1422.65,-82.95"/>
</a>
</g>
</g>
<!-- Node14&#45;&gt;Node5 -->
<g id="edge15_Node000014_Node000005" class="edge">
<title>Node14&#45;&gt;Node5</title>
<g id="a_edge15_Node000014_Node000005"><a xlink:title=" ">
<path fill="none" stroke="#63b8ff" d="M1180.07,-165.39C1168.17,-151.87 1143.93,-126.21 1118.71,-110.5 1096.54,-96.69 1069.4,-85.96 1046.95,-78.49"/>
<polygon fill="#63b8ff" stroke="#63b8ff" points="1048.05,-75.17 1037.46,-75.45 1045.91,-81.83 1048.05,-75.17"/>
</a>
</g>
</g>
<!-- Node14&#45;&gt;Node9 -->
<g id="edge27_Node000014_Node000009" class="edge">
<title>Node14&#45;&gt;Node9</title>
<g id="a_edge27_Node000014_Node000009"><a xlink:title=" ">
<path fill="none" stroke="#63b8ff" d="M1248.54,-165.26C1340.6,-150.24 1509.04,-117.62 1550.71,-74.5 1562.04,-62.78 1566.66,-44.62 1568.51,-30.65"/>
<polygon fill="#63b8ff" stroke="#63b8ff" points="1571.99,-31.09 1569.42,-20.82 1565.02,-30.45 1571.99,-31.09"/>
</a>
</g>
</g>
<!-- Node14&#45;&gt;Node10 -->
<g id="edge28_Node000014_Node000010" class="edge">
<title>Node14&#45;&gt;Node10</title>
<g id="a_edge28_Node000014_Node000010"><a xlink:title=" ">
<path fill="none" stroke="#63b8ff" d="M1126.43,-172.29C1075.49,-168.46 1002.29,-157.99 944.71,-129.75 893.9,-104.83 847.92,-54.86 825.72,-28.25"/>
<polygon fill="#63b8ff" stroke="#63b8ff" points="828.65,-26.3 819.61,-20.77 823.22,-30.73 828.65,-26.3"/>
</a>
</g>
</g>
<!-- Node15 -->
<g id="Node000015" class="node">
<title>Node15</title>
<g id="a_Node000015"><a xlink:href="Ioss__ElementPermutation_8h.html" target="_top" xlink:title=" ">
<polygon fill="white" stroke="#666666" points="1302.09,-129.75 1165.34,-129.75 1165.34,-110.5 1302.09,-110.5 1302.09,-129.75"/>
<text text-anchor="middle" x="1233.71" y="-116.25" font-family="Helvetica,sans-Serif" font-size="10.00">Ioss_ElementPermutation.h</text>
</a>
</g>
</g>
<!-- Node14&#45;&gt;Node15 -->
<g id="edge16_Node000014_Node000015" class="edge">
<title>Node14&#45;&gt;Node15</title>
<g id="a_edge16_Node000014_Node000015"><a xlink:title=" ">
<path fill="none" stroke="#63b8ff" d="M1195.31,-165.58C1201.6,-158.3 1210.73,-147.73 1218.51,-138.73"/>
<polygon fill="#63b8ff" stroke="#63b8ff" points="1221.07,-141.11 1224.96,-131.25 1215.78,-136.53 1221.07,-141.11"/>
</a>
</g>
</g>
<!-- Node14&#45;&gt;Node18 -->
<g id="edge25_Node000014_Node000018" class="edge">
<title>Node14&#45;&gt;Node18</title>
<g id="a_edge25_Node000014_Node000018"><a xlink:title=" ">
<path fill="none" stroke="#63b8ff" d="M1222.21,-165.25C1254.14,-156.65 1302.87,-143.11 1344.71,-129.75 1398.87,-112.46 1461.22,-89.68 1496.5,-76.52"/>
<polygon fill="#63b8ff" stroke="#63b8ff" points="1497.4,-79.92 1505.54,-73.13 1494.95,-73.36 1497.4,-79.92"/>
</a>
</g>
</g>
<!-- Node20 -->
<g id="Node000020" class="node">
<title>Node20</title>
<g id="a_Node000020"><a xlink:title=" ">
<polygon fill="#e0e0e0" stroke="#999999" points="1109.46,-129.75 1079.96,-129.75 1079.96,-110.5 1109.46,-110.5 1109.46,-129.75"/>
<text text-anchor="middle" x="1094.71" y="-116.25" font-family="Helvetica,sans-Serif" font-size="10.00">set</text>
</a>
</g>
</g>
<!-- Node14&#45;&gt;Node20 -->
<g id="edge26_Node000014_Node000020" class="edge">
<title>Node14&#45;&gt;Node20</title>
<g id="a_edge26_Node000014_Node000020"><a xlink:title=" ">
<path fill="none" stroke="#63b8ff" d="M1171.94,-165.34C1157.6,-157.13 1136.22,-144.89 1119.59,-135.37"/>
<polygon fill="#63b8ff" stroke="#63b8ff" points="1121.68,-132.53 1111.26,-130.6 1118.2,-138.61 1121.68,-132.53"/>
</a>
</g>
</g>
<!-- Node15&#45;&gt;Node3 -->
<g id="edge24_Node000015_Node000003" class="edge">
<title>Node15&#45;&gt;Node3</title>
<g id="a_edge24_Node000015_Node000003"><a xlink:title=" ">
<path fill="none" stroke="#63b8ff" d="M1270.69,-110.09C1307.26,-101.16 1363.39,-87.45 1403.45,-77.66"/>
<polygon fill="#63b8ff" stroke="#63b8ff" points="1404.2,-81.08 1413.08,-75.31 1402.54,-74.28 1404.2,-81.08"/>
</a>
</g>
</g>
<!-- Node15&#45;&gt;Node5 -->
<g id="edge17_Node000015_Node000005" class="edge">
<title>Node15&#45;&gt;Node5</title>
<g id="a_edge17_Node000015_Node000005"><a xlink:title=" ">
<path fill="none" stroke="#63b8ff" d="M1194.27,-110.03C1155.31,-101.05 1095.59,-87.28 1053.19,-77.51"/>
<polygon fill="#63b8ff" stroke="#63b8ff" points="1054,-74.11 1043.47,-75.27 1052.43,-80.93 1054,-74.11"/>
</a>
</g>
</g>
<!-- Node15&#45;&gt;Node9 -->
<g id="edge22_Node000015_Node000009" class="edge">
<title>Node15&#45;&gt;Node9</title>
<g id="a_edge22_Node000015_Node000009"><a xlink:title=" ">
<path fill="none" stroke="#63b8ff" d="M1265.33,-110.04C1292.79,-101.8 1333.43,-88.8 1367.71,-74.5 1385.19,-67.21 1388.04,-62.05 1405.71,-55.25 1450.67,-37.95 1504.98,-24.57 1538.44,-17.14"/>
<polygon fill="#63b8ff" stroke="#63b8ff" points="1538.84,-20.64 1547.87,-15.09 1537.35,-13.8 1538.84,-20.64"/>
</a>
</g>
</g>
<!-- Node15&#45;&gt;Node10 -->
<g id="edge23_Node000015_Node000010" class="edge">
<title>Node15&#45;&gt;Node10</title>
<g id="a_edge23_Node000015_Node000010"><a xlink:title=" ">
<path fill="none" stroke="#63b8ff" d="M1232.25,-110.35C1229.36,-96.14 1221.52,-68.37 1202.71,-55.25 1139.24,-10.97 937.92,-32.54 844.65,-19.25"/>
<polygon fill="#63b8ff" stroke="#63b8ff" points="845.49,-15.84 835.05,-17.65 844.34,-22.75 845.49,-15.84"/>
</a>
</g>
</g>
<!-- Node16 -->
<g id="Node000016" class="node">
<title>Node16</title>
<g id="a_Node000016"><a xlink:title=" ">
<polygon fill="#e0e0e0" stroke="#999999" points="1358.34,-74.5 1307.09,-74.5 1307.09,-55.25 1358.34,-55.25 1358.34,-74.5"/>
<text text-anchor="middle" x="1332.71" y="-61" font-family="Helvetica,sans-Serif" font-size="10.00">assert.h</text>
</a>
</g>
</g>
<!-- Node15&#45;&gt;Node16 -->
<g id="edge18_Node000015_Node000016" class="edge">
<title>Node15&#45;&gt;Node16</title>
<g id="a_edge18_Node000015_Node000016"><a xlink:title=" ">
<path fill="none" stroke="#63b8ff" d="M1250.51,-110.09C1265.73,-101.91 1288.41,-89.71 1306.1,-80.19"/>
<polygon fill="#63b8ff" stroke="#63b8ff" points="1307.36,-83.49 1314.5,-75.67 1304.04,-77.32 1307.36,-83.49"/>
</a>
</g>
</g>
<!-- Node17 -->
<g id="Node000017" class="node">
<title>Node17</title>
<g id="a_Node000017"><a xlink:title=" ">
<polygon fill="#e0e0e0" stroke="#999999" points="1289.34,-74.5 1250.09,-74.5 1250.09,-55.25 1289.34,-55.25 1289.34,-74.5"/>
<text text-anchor="middle" x="1269.71" y="-61" font-family="Helvetica,sans-Serif" font-size="10.00">limits</text>
</a>
</g>
</g>
<!-- Node15&#45;&gt;Node17 -->
<g id="edge19_Node000015_Node000017" class="edge">
<title>Node15&#45;&gt;Node17</title>
<g id="a_edge19_Node000015_Node000017"><a xlink:title=" ">
<path fill="none" stroke="#63b8ff" d="M1239.66,-110.33C1244.42,-103.28 1251.28,-93.15 1257.23,-84.33"/>
<polygon fill="#63b8ff" stroke="#63b8ff" points="1260.09,-86.36 1262.79,-76.11 1254.29,-82.44 1260.09,-86.36"/>
</a>
</g>
</g>
<!-- Node15&#45;&gt;Node18 -->
<g id="edge20_Node000015_Node000018" class="edge">
<title>Node15&#45;&gt;Node18</title>
<g id="a_edge20_Node000015_Node000018"><a xlink:title=" ">
<path fill="none" stroke="#63b8ff" d="M1302.35,-110.25C1353.34,-103.03 1424.72,-91.62 1496.11,-74.57"/>
<polygon fill="#63b8ff" stroke="#63b8ff" points="1496.74,-78.02 1505.63,-72.26 1495.08,-71.22 1496.74,-78.02"/>
</a>
</g>
</g>
<!-- Node19 -->
<g id="Node000019" class="node">
<title>Node19</title>
<g id="a_Node000019"><a xlink:title=" ">
<polygon fill="#e0e0e0" stroke="#999999" points="1193.84,-74.5 1145.59,-74.5 1145.59,-55.25 1193.84,-55.25 1193.84,-74.5"/>
<text text-anchor="middle" x="1169.71" y="-61" font-family="Helvetica,sans-Serif" font-size="10.00">stdint.h</text>
</a>
</g>
</g>
<!-- Node15&#45;&gt;Node19 -->
<g id="edge21_Node000015_Node000019" class="edge">
<title>Node15&#45;&gt;Node19</title>
<g id="a_edge21_Node000015_Node000019"><a xlink:title=" ">
<path fill="none" stroke="#63b8ff" d="M1222.86,-110.09C1213.61,-102.4 1200.09,-91.15 1189,-81.93"/>
<polygon fill="#63b8ff" stroke="#63b8ff" points="1191.5,-79.45 1181.57,-75.74 1187.02,-84.83 1191.5,-79.45"/>
</a>
</g>
</g>
<!-- Node22&#45;&gt;Node3 -->
<g id="edge37_Node000022_Node000003" class="edge">
<title>Node22&#45;&gt;Node3</title>
<g id="a_edge37_Node000022_Node000003"><a xlink:title=" ">
<path fill="none" stroke="#63b8ff" d="M1023.51,-115.12C1105.09,-105.74 1308.85,-82.31 1402.82,-71.5"/>
<polygon fill="#63b8ff" stroke="#63b8ff" points="1403.22,-74.98 1412.76,-70.36 1402.42,-68.02 1403.22,-74.98"/>
</a>
</g>
</g>
<!-- Node22&#45;&gt;Node5 -->
<g id="edge32_Node000022_Node000005" class="edge">
<title>Node22&#45;&gt;Node5</title>
<g id="a_edge32_Node000022_Node000005"><a xlink:title=" ">
<path fill="none" stroke="#63b8ff" d="M991.03,-110.33C992.78,-103.67 995.26,-94.24 997.48,-85.78"/>
<polygon fill="#63b8ff" stroke="#63b8ff" points="1000.81,-86.88 999.97,-76.32 994.04,-85.1 1000.81,-86.88"/>
</a>
</g>
</g>
<!-- Node22&#45;&gt;Node7 -->
<g id="edge33_Node000022_Node000007" class="edge">
<title>Node22&#45;&gt;Node7</title>
<g id="a_edge33_Node000022_Node000007"><a xlink:title=" ">
<path fill="none" stroke="#63b8ff" d="M955.89,-110.09C905.03,-96.39 803.94,-70.36 716.71,-55.25 584.94,-32.42 426.32,-18.58 357.01,-13.2"/>
<polygon fill="#63b8ff" stroke="#63b8ff" points="357.65,-9.74 347.41,-12.47 357.11,-16.72 357.65,-9.74"/>
</a>
</g>
</g>
<!-- Node22&#45;&gt;Node9 -->
<g id="edge35_Node000022_Node000009" class="edge">
<title>Node22&#45;&gt;Node9</title>
<g id="a_edge35_Node000022_Node000009"><a xlink:title=" ">
<path fill="none" stroke="#63b8ff" d="M1010.48,-110.01C1031.76,-101.08 1065.03,-87.01 1093.71,-74.5 1112.91,-66.13 1116.49,-60.67 1136.71,-55.25 1283,-16.05 1465.61,-10.88 1538.02,-10.48"/>
<polygon fill="#63b8ff" stroke="#63b8ff" points="1537.95,-13.98 1547.94,-10.46 1537.93,-6.98 1537.95,-13.98"/>
</a>
</g>
</g>
<!-- Node22&#45;&gt;Node10 -->
<g id="edge36_Node000022_Node000010" class="edge">
<title>Node22&#45;&gt;Node10</title>
<g id="a_edge36_Node000022_Node000010"><a xlink:title=" ">
<path fill="none" stroke="#63b8ff" d="M977.88,-110.22C961.83,-97.24 930.52,-72.79 901.71,-55.25 882.84,-43.76 860.6,-32.71 842.95,-24.48"/>
<polygon fill="#63b8ff" stroke="#63b8ff" points="844.55,-21.37 834,-20.38 841.63,-27.73 844.55,-21.37"/>
</a>
</g>
</g>
<!-- Node22&#45;&gt;Node19 -->
<g id="edge34_Node000022_Node000019" class="edge">
<title>Node22&#45;&gt;Node19</title>
<g id="a_edge34_Node000022_Node000019"><a xlink:title=" ">
<path fill="none" stroke="#63b8ff" d="M1019.42,-110.09C1051.31,-100.71 1101.15,-86.05 1134.59,-76.21"/>
<polygon fill="#63b8ff" stroke="#63b8ff" points="1135.2,-79.68 1143.8,-73.5 1133.22,-72.96 1135.2,-79.68"/>
</a>
</g>
</g>
<!-- Node23&#45;&gt;Node3 -->
<g id="edge39_Node000023_Node000003" class="edge">
<title>Node23&#45;&gt;Node3</title>
<g id="a_edge39_Node000023_Node000003"><a xlink:title=" ">
<path fill="none" stroke="#63b8ff" d="M656.8,-117.27C771.16,-112.09 1097.19,-96.39 1367.71,-74.5 1379.11,-73.58 1391.36,-72.42 1402.89,-71.25"/>
<polygon fill="#63b8ff" stroke="#63b8ff" points="1403.02,-74.75 1412.61,-70.24 1402.3,-67.79 1403.02,-74.75"/>
</a>
</g>
</g>
<!-- Node23&#45;&gt;Node8 -->
<g id="edge40_Node000023_Node000008" class="edge">
<title>Node23&#45;&gt;Node8</title>
<g id="a_edge40_Node000023_Node000008"><a xlink:title=" ">
<path fill="none" stroke="#63b8ff" d="M604.98,-110.08C596.42,-101.62 584.19,-88.27 576.71,-74.5 569.19,-60.63 564.29,-43.41 561.35,-30.34"/>
<polygon fill="#63b8ff" stroke="#63b8ff" points="564.84,-29.92 559.42,-20.82 557.98,-31.31 564.84,-29.92"/>
</a>
</g>
</g>
<!-- Node23&#45;&gt;Node9 -->
<g id="edge41_Node000023_Node000009" class="edge">
<title>Node23&#45;&gt;Node9</title>
<g id="a_edge41_Node000023_Node000009"><a xlink:title=" ">
<path fill="none" stroke="#63b8ff" d="M656.61,-117.21C752.65,-112.45 986.14,-98.71 1060.71,-74.5 1076.86,-69.26 1077.55,-60.44 1093.71,-55.25 1176.91,-28.53 1445.23,-15.58 1537.89,-11.82"/>
<polygon fill="#63b8ff" stroke="#63b8ff" points="1537.91,-15.32 1547.77,-11.43 1537.64,-8.33 1537.91,-15.32"/>
</a>
</g>
</g>
<!-- Node23&#45;&gt;Node10 -->
<g id="edge43_Node000023_Node000010" class="edge">
<title>Node23&#45;&gt;Node10</title>
<g id="a_edge43_Node000023_Node000010"><a xlink:title=" ">
<path fill="none" stroke="#63b8ff" d="M638.79,-110.02C659.83,-101.72 690.96,-88.64 716.71,-74.5 743.29,-59.9 771.94,-40.02 790.74,-26.33"/>
<polygon fill="#63b8ff" stroke="#63b8ff" points="792.66,-29.26 798.64,-20.52 788.51,-23.63 792.66,-29.26"/>
</a>
</g>
</g>
<!-- Node24 -->
<g id="Node000024" class="node">
<title>Node24</title>
<g id="a_Node000024"><a xlink:title=" ">
<polygon fill="#e0e0e0" stroke="#999999" points="631.34,-74.5 586.09,-74.5 586.09,-55.25 631.34,-55.25 631.34,-74.5"/>
<text text-anchor="middle" x="608.71" y="-61" font-family="Helvetica,sans-Serif" font-size="10.00">variant</text>
</a>
</g>
</g>
<!-- Node23&#45;&gt;Node24 -->
<g id="edge42_Node000023_Node000024" class="edge">
<title>Node23&#45;&gt;Node24</title>
<g id="a_edge42_Node000023_Node000024"><a xlink:title=" ">
<path fill="none" stroke="#63b8ff" d="M613.72,-110.33C612.98,-103.74 611.93,-94.46 610.99,-86.07"/>
<polygon fill="#63b8ff" stroke="#63b8ff" points="614.49,-85.91 609.9,-76.36 607.54,-86.69 614.49,-85.91"/>
</a>
</g>
</g>
<!-- Node25&#45;&gt;Node7 -->
<g id="edge51_Node000025_Node000007" class="edge">
<title>Node25&#45;&gt;Node7</title>
<g id="a_edge51_Node000025_Node000007"><a xlink:title=" ">
<path fill="none" stroke="#63b8ff" d="M448.27,-167.93C422.66,-161.64 387.63,-150 362.71,-129.75 340.16,-111.42 337.11,-102.01 327.71,-74.5 322.91,-60.43 321.48,-43.66 321.22,-30.84"/>
<polygon fill="#63b8ff" stroke="#63b8ff" points="324.72,-31.1 321.25,-21.09 317.72,-31.08 324.72,-31.1"/>
</a>
</g>
</g>
<!-- Node25&#45;&gt;Node10 -->
<g id="edge52_Node000025_Node000010" class="edge">
<title>Node25&#45;&gt;Node10</title>
<g id="a_edge52_Node000025_Node000010"><a xlink:title=" ">
<path fill="none" stroke="#63b8ff" d="M485.99,-165.41C497.29,-142.8 530.28,-83.25 576.71,-55.25 640.64,-16.7 730.67,-10.29 778.61,-9.88"/>
<polygon fill="#63b8ff" stroke="#63b8ff" points="778.34,-13.38 788.34,-9.89 778.35,-6.38 778.34,-13.38"/>
</a>
</g>
</g>
<!-- Node26 -->
<g id="Node000026" class="node">
<title>Node26</title>
<g id="a_Node000026"><a xlink:href="pdqsort_8h.html" target="_top" xlink:title=" ">
<polygon fill="white" stroke="#666666" points="427.96,-129.75 371.46,-129.75 371.46,-110.5 427.96,-110.5 427.96,-129.75"/>
<text text-anchor="middle" x="399.71" y="-116.25" font-family="Helvetica,sans-Serif" font-size="10.00">pdqsort.h</text>
</a>
</g>
</g>
<!-- Node25&#45;&gt;Node26 -->
<g id="edge45_Node000025_Node000026" class="edge">
<title>Node25&#45;&gt;Node26</title>
<g id="a_edge45_Node000025_Node000026"><a xlink:title=" ">
<path fill="none" stroke="#63b8ff" d="M467.8,-165.34C455.55,-157.39 437.46,-145.64 423,-136.25"/>
<polygon fill="#63b8ff" stroke="#63b8ff" points="425.25,-133.54 414.96,-131.03 421.44,-139.41 425.25,-133.54"/>
</a>
</g>
</g>
<!-- Node26&#45;&gt;Node7 -->
<g id="edge47_Node000026_Node000007" class="edge">
<title>Node26&#45;&gt;Node7</title>
<g id="a_edge47_Node000026_Node000007"><a xlink:title=" ">
<path fill="none" stroke="#63b8ff" d="M382.31,-110.02C369.08,-102.26 351.4,-89.91 340.71,-74.5 331.72,-61.53 326.92,-44.25 324.39,-30.93"/>
<polygon fill="#63b8ff" stroke="#63b8ff" points="327.86,-30.47 322.84,-21.14 320.95,-31.57 327.86,-30.47"/>
</a>
</g>
</g>
<!-- Node26&#45;&gt;Node27 -->
<g id="edge46_Node000026_Node000027" class="edge">
<title>Node26&#45;&gt;Node27</title>
<g id="a_edge46_Node000026_Node000027"><a xlink:title=" ">
<path fill="none" stroke="#63b8ff" d="M371.31,-110.33C342.72,-101.48 298.4,-87.76 266.57,-77.9"/>
<polygon fill="#63b8ff" stroke="#63b8ff" points="267.91,-74.65 257.32,-75.04 265.84,-81.34 267.91,-74.65"/>
</a>
</g>
</g>
<!-- Node26&#45;&gt;Node28 -->
<g id="edge48_Node000026_Node000028" class="edge">
<title>Node26&#45;&gt;Node28</title>
<g id="a_edge48_Node000026_Node000028"><a xlink:title=" ">
<path fill="none" stroke="#63b8ff" d="M428.35,-114.21C471.58,-106.7 556.36,-91.65 638.04,-74.99"/>
<polygon fill="#63b8ff" stroke="#63b8ff" points="638.71,-78.42 647.8,-72.98 637.3,-71.57 638.71,-78.42"/>
</a>
</g>
</g>
<!-- Node29 -->
<g id="Node000029" class="node">
<title>Node29</title>
<g id="a_Node000029"><a xlink:title=" ">
<polygon fill="#e0e0e0" stroke="#999999" points="395.71,-74.5 349.71,-74.5 349.71,-55.25 395.71,-55.25 395.71,-74.5"/>
<text text-anchor="middle" x="372.71" y="-61" font-family="Helvetica,sans-Serif" font-size="10.00">iterator</text>
</a>
</g>
</g>
<!-- Node26&#45;&gt;Node29 -->
<g id="edge49_Node000026_Node000029" class="edge">
<title>Node26&#45;&gt;Node29</title>
<g id="a_edge49_Node000026_Node000029"><a xlink:title=" ">
<path fill="none" stroke="#63b8ff" d="M395.26,-110.33C391.76,-103.44 386.76,-93.59 382.37,-84.91"/>
<polygon fill="#63b8ff" stroke="#63b8ff" points="385.6,-83.55 377.95,-76.21 379.35,-86.71 385.6,-83.55"/>
</a>
</g>
</g>
<!-- Node30 -->
<g id="Node000030" class="node">
<title>Node30</title>
<g id="a_Node000030"><a xlink:title=" ">
<polygon fill="#e0e0e0" stroke="#999999" points="453.34,-74.5 414.09,-74.5 414.09,-55.25 453.34,-55.25 453.34,-74.5"/>
<text text-anchor="middle" x="433.71" y="-61" font-family="Helvetica,sans-Serif" font-size="10.00">utility</text>
</a>
</g>
</g>
<!-- Node26&#45;&gt;Node30 -->
<g id="edge50_Node000026_Node000030" class="edge">
<title>Node26&#45;&gt;Node30</title>
<g id="a_edge50_Node000026_Node000030"><a xlink:title=" ">
<path fill="none" stroke="#63b8ff" d="M405.33,-110.33C409.83,-103.28 416.3,-93.15 421.93,-84.33"/>
<polygon fill="#63b8ff" stroke="#63b8ff" points="424.73,-86.45 427.16,-76.13 418.83,-82.68 424.73,-86.45"/>
</a>
</g>
</g>
</g>
</svg>
