<?xml version="1.0" encoding="UTF-8" standalone="no"?>
<!DOCTYPE svg PUBLIC "-//W3C//DTD SVG 1.1//EN"
 "http://www.w3.org/Graphics/SVG/1.1/DTD/svg11.dtd">
<!-- Generated by graphviz version 8.1.0 (20230707.0739)
 -->
<!-- Title: src/elements/Ioss_Edge2D3.C Pages: 1 -->
<svg width="1697pt" height="414pt"
 viewBox="0.00 0.00 1697.44 414.00" xmlns="http://www.w3.org/2000/svg" xmlns:xlink="http://www.w3.org/1999/xlink">
<g id="graph0" class="graph" transform="scale(1 1) rotate(0) translate(4 410)">
<title>src/elements/Ioss_Edge2D3.C</title>
<!-- Node1 -->
<g id="Node000001" class="node">
<title>Node1</title>
<g id="a_Node000001"><a xlink:title=" ">
<polygon fill="#999999" stroke="#666666" points="464.56,-406 314.31,-406 314.31,-386.75 464.56,-386.75 464.56,-406"/>
<text text-anchor="middle" x="389.44" y="-392.5" font-family="Helvetica,sans-Serif" font-size="10.00">src/elements/Ioss_Edge2D3.C</text>
</a>
</g>
</g>
<!-- Node2 -->
<g id="Node000002" class="node">
<title>Node2</title>
<g id="a_Node000002"><a xlink:href="Ioss__CodeTypes_8h.html" target="_top" xlink:title=" ">
<polygon fill="white" stroke="#666666" points="536.31,-74.5 438.56,-74.5 438.56,-55.25 536.31,-55.25 536.31,-74.5"/>
<text text-anchor="middle" x="487.44" y="-61" font-family="Helvetica,sans-Serif" font-size="10.00">Ioss_CodeTypes.h</text>
</a>
</g>
</g>
<!-- Node1&#45;&gt;Node2 -->
<g id="edge1_Node000001_Node000002" class="edge">
<title>Node1&#45;&gt;Node2</title>
<g id="a_edge1_Node000001_Node000002"><a xlink:title=" ">
<path fill="none" stroke="#63b8ff" d="M372.6,-386.26C321.7,-357.42 175.33,-264.18 215.44,-165.75 228.4,-133.95 239.3,-126.94 269.44,-110.5 296.23,-95.89 372.96,-82.32 427.8,-74.07"/>
<polygon fill="#63b8ff" stroke="#63b8ff" points="428.08,-77.42 437.46,-72.49 427.05,-70.49 428.08,-77.42"/>
</a>
</g>
</g>
<!-- Node4 -->
<g id="Node000004" class="node">
<title>Node4</title>
<g id="a_Node000004"><a xlink:title=" ">
<polygon fill="#e0e0e0" stroke="#999999" points="1505.56,-19.25 1457.31,-19.25 1457.31,0 1505.56,0 1505.56,-19.25"/>
<text text-anchor="middle" x="1481.44" y="-5.75" font-family="Helvetica,sans-Serif" font-size="10.00">cstddef</text>
</a>
</g>
</g>
<!-- Node1&#45;&gt;Node4 -->
<g id="edge76_Node000001_Node000004" class="edge">
<title>Node1&#45;&gt;Node4</title>
<g id="a_edge76_Node000001_Node000004"><a xlink:title=" ">
<path fill="none" stroke="#63b8ff" d="M464.95,-393.05C742.4,-384.04 1689.44,-348.73 1689.44,-286.88 1689.44,-286.88 1689.44,-286.88 1689.44,-119.12 1689.44,-42.03 1575.71,-19.62 1516.44,-13.18"/>
<polygon fill="#63b8ff" stroke="#63b8ff" points="1517,-9.62 1506.71,-12.13 1516.32,-16.59 1517,-9.62"/>
</a>
</g>
</g>
<!-- Node10 -->
<g id="Node000010" class="node">
<title>Node10</title>
<g id="a_Node000010"><a xlink:href="Ioss__ElementTopology_8h.html" target="_top" xlink:title=" ">
<polygon fill="white" stroke="#666666" points="346.31,-185 224.56,-185 224.56,-165.75 346.31,-165.75 346.31,-185"/>
<text text-anchor="middle" x="285.44" y="-171.5" font-family="Helvetica,sans-Serif" font-size="10.00">Ioss_ElementTopology.h</text>
</a>
</g>
</g>
<!-- Node1&#45;&gt;Node10 -->
<g id="edge9_Node000001_Node000010" class="edge">
<title>Node1&#45;&gt;Node10</title>
<g id="a_edge9_Node000001_Node000010"><a xlink:title=" ">
<path fill="none" stroke="#63b8ff" d="M380.42,-386.28C358.93,-363.87 305.19,-303.23 287.44,-240.25 283.38,-225.85 283.04,-208.89 283.63,-196.06"/>
<polygon fill="#63b8ff" stroke="#63b8ff" points="287.18,-196.48 284.39,-186.26 280.2,-195.99 287.18,-196.48"/>
</a>
</g>
</g>
<!-- Node17 -->
<g id="Node000017" class="node">
<title>Node17</title>
<g id="a_Node000017"><a xlink:href="Ioss__Edge2D3_8h.html" target="_top" xlink:title=" ">
<polygon fill="white" stroke="#666666" points="384.81,-240.25 296.06,-240.25 296.06,-221 384.81,-221 384.81,-240.25"/>
<text text-anchor="middle" x="340.44" y="-226.75" font-family="Helvetica,sans-Serif" font-size="10.00">Ioss_Edge2D3.h</text>
</a>
</g>
</g>
<!-- Node1&#45;&gt;Node17 -->
<g id="edge24_Node000001_Node000017" class="edge">
<title>Node1&#45;&gt;Node17</title>
<g id="a_edge24_Node000001_Node000017"><a xlink:title=" ">
<path fill="none" stroke="#63b8ff" d="M381.72,-386.47C374.75,-377.91 364.77,-364.3 359.44,-350.75 346.37,-317.56 342.28,-275.81 341.01,-251.57"/>
<polygon fill="#63b8ff" stroke="#63b8ff" points="344.47,-251.49 340.57,-241.64 337.47,-251.77 344.47,-251.49"/>
</a>
</g>
</g>
<!-- Node18 -->
<g id="Node000018" class="node">
<title>Node18</title>
<g id="a_Node000018"><a xlink:href="Ioss__ElementVariableType_8h.html" target="_top" xlink:title=" ">
<polygon fill="white" stroke="#666666" points="508.31,-350.75 368.56,-350.75 368.56,-331.5 508.31,-331.5 508.31,-350.75"/>
<text text-anchor="middle" x="438.44" y="-337.25" font-family="Helvetica,sans-Serif" font-size="10.00">Ioss_ElementVariableType.h</text>
</a>
</g>
</g>
<!-- Node1&#45;&gt;Node18 -->
<g id="edge28_Node000001_Node000018" class="edge">
<title>Node1&#45;&gt;Node18</title>
<g id="a_edge28_Node000001_Node000018"><a xlink:title=" ">
<path fill="none" stroke="#63b8ff" d="M397.53,-386.58C404.37,-379.15 414.37,-368.29 422.76,-359.16"/>
<polygon fill="#63b8ff" stroke="#63b8ff" points="424.98,-361.84 429.17,-352.11 419.83,-357.1 424.98,-361.84"/>
</a>
</g>
</g>
<!-- Node30 -->
<g id="Node000030" class="node">
<title>Node30</title>
<g id="a_Node000030"><a xlink:title=" ">
<polygon fill="#e0e0e0" stroke="#999999" points="1585.56,-185 1537.31,-185 1537.31,-165.75 1585.56,-165.75 1585.56,-185"/>
<text text-anchor="middle" x="1561.44" y="-171.5" font-family="Helvetica,sans-Serif" font-size="10.00">cassert</text>
</a>
</g>
</g>
<!-- Node1&#45;&gt;Node30 -->
<g id="edge75_Node000001_Node000030" class="edge">
<title>Node1&#45;&gt;Node30</title>
<g id="a_edge75_Node000001_Node000030"><a xlink:title=" ">
<path fill="none" stroke="#63b8ff" d="M464.87,-393.62C618.19,-388.56 976.25,-369.16 1266.44,-295.5 1369.11,-269.44 1483.52,-215.57 1534.45,-190.18"/>
<polygon fill="#63b8ff" stroke="#63b8ff" points="1535.68,-192.97 1543.05,-185.36 1532.54,-186.72 1535.68,-192.97"/>
</a>
</g>
</g>
<!-- Node3 -->
<g id="Node000003" class="node">
<title>Node3</title>
<g id="a_Node000003"><a xlink:title=" ">
<polygon fill="#e0e0e0" stroke="#999999" points="526.31,-19.25 488.56,-19.25 488.56,0 526.31,0 526.31,-19.25"/>
<text text-anchor="middle" x="507.44" y="-5.75" font-family="Helvetica,sans-Serif" font-size="10.00">array</text>
</a>
</g>
</g>
<!-- Node2&#45;&gt;Node3 -->
<g id="edge2_Node000002_Node000003" class="edge">
<title>Node2&#45;&gt;Node3</title>
<g id="a_edge2_Node000002_Node000003"><a xlink:title=" ">
<path fill="none" stroke="#63b8ff" d="M490.74,-55.08C493.33,-48.19 497.03,-38.34 500.29,-29.66"/>
<polygon fill="#63b8ff" stroke="#63b8ff" points="503.83,-31.2 504.07,-20.61 497.27,-28.74 503.83,-31.2"/>
</a>
</g>
</g>
<!-- Node2&#45;&gt;Node4 -->
<g id="edge3_Node000002_Node000004" class="edge">
<title>Node2&#45;&gt;Node4</title>
<g id="a_edge3_Node000002_Node000004"><a xlink:title=" ">
<path fill="none" stroke="#63b8ff" d="M536.73,-61.23C711.02,-51.9 1295.75,-20.57 1446,-12.52"/>
<polygon fill="#63b8ff" stroke="#63b8ff" points="1446.05,-15.97 1455.85,-11.94 1445.68,-8.98 1446.05,-15.97"/>
</a>
</g>
</g>
<!-- Node5 -->
<g id="Node000005" class="node">
<title>Node5</title>
<g id="a_Node000005"><a xlink:title=" ">
<polygon fill="#e0e0e0" stroke="#999999" points="663.06,-19.25 617.81,-19.25 617.81,0 663.06,0 663.06,-19.25"/>
<text text-anchor="middle" x="640.44" y="-5.75" font-family="Helvetica,sans-Serif" font-size="10.00">cstdint</text>
</a>
</g>
</g>
<!-- Node2&#45;&gt;Node5 -->
<g id="edge4_Node000002_Node000005" class="edge">
<title>Node2&#45;&gt;Node5</title>
<g id="a_edge4_Node000002_Node000005"><a xlink:title=" ">
<path fill="none" stroke="#63b8ff" d="M513.39,-54.84C539.25,-45.84 579.05,-31.99 607.2,-22.19"/>
<polygon fill="#63b8ff" stroke="#63b8ff" points="608.07,-25.25 616.37,-18.66 605.77,-18.64 608.07,-25.25"/>
</a>
</g>
</g>
<!-- Node6 -->
<g id="Node000006" class="node">
<title>Node6</title>
<g id="a_Node000006"><a xlink:title=" ">
<polygon fill="#e0e0e0" stroke="#999999" points="584.44,-19.25 544.44,-19.25 544.44,0 584.44,0 584.44,-19.25"/>
<text text-anchor="middle" x="564.44" y="-5.75" font-family="Helvetica,sans-Serif" font-size="10.00">string</text>
</a>
</g>
</g>
<!-- Node2&#45;&gt;Node6 -->
<g id="edge5_Node000002_Node000006" class="edge">
<title>Node2&#45;&gt;Node6</title>
<g id="a_edge5_Node000002_Node000006"><a xlink:title=" ">
<path fill="none" stroke="#63b8ff" d="M500.5,-54.84C512.01,-46.89 529,-35.14 542.57,-25.75"/>
<polygon fill="#63b8ff" stroke="#63b8ff" points="544.08,-28.27 550.31,-19.7 540.1,-22.51 544.08,-28.27"/>
</a>
</g>
</g>
<!-- Node7 -->
<g id="Node000007" class="node">
<title>Node7</title>
<g id="a_Node000007"><a xlink:title=" ">
<polygon fill="#e0e0e0" stroke="#999999" points="1006.94,-19.25 963.94,-19.25 963.94,0 1006.94,0 1006.94,-19.25"/>
<text text-anchor="middle" x="985.44" y="-5.75" font-family="Helvetica,sans-Serif" font-size="10.00">vector</text>
</a>
</g>
</g>
<!-- Node2&#45;&gt;Node7 -->
<g id="edge6_Node000002_Node000007" class="edge">
<title>Node2&#45;&gt;Node7</title>
<g id="a_edge6_Node000002_Node000007"><a xlink:title=" ">
<path fill="none" stroke="#63b8ff" d="M536.55,-58.62C637.78,-47.8 867.31,-23.26 952.66,-14.13"/>
<polygon fill="#63b8ff" stroke="#63b8ff" points="952.92,-17.52 962.49,-12.97 952.18,-10.55 952.92,-17.52"/>
</a>
</g>
</g>
<!-- Node8 -->
<g id="Node000008" class="node">
<title>Node8</title>
<g id="a_Node000008"><a xlink:title=" ">
<polygon fill="#e0e0e0" stroke="#999999" points="400.31,-19.25 284.56,-19.25 284.56,0 400.31,0 400.31,-19.25"/>
<text text-anchor="middle" x="342.44" y="-5.75" font-family="Helvetica,sans-Serif" font-size="10.00">SEACASIoss_config.h</text>
</a>
</g>
</g>
<!-- Node2&#45;&gt;Node8 -->
<g id="edge7_Node000002_Node000008" class="edge">
<title>Node2&#45;&gt;Node8</title>
<g id="a_edge7_Node000002_Node000008"><a xlink:title=" ">
<path fill="none" stroke="#63b8ff" d="M462.84,-54.84C439.3,-46.2 403.57,-33.07 377.14,-23.37"/>
<polygon fill="#63b8ff" stroke="#63b8ff" points="378.75,-19.86 368.16,-19.7 376.34,-26.44 378.75,-19.86"/>
</a>
</g>
</g>
<!-- Node9 -->
<g id="Node000009" class="node">
<title>Node9</title>
<g id="a_Node000009"><a xlink:title=" ">
<polygon fill="#e0e0e0" stroke="#999999" points="470.81,-19.25 418.06,-19.25 418.06,0 470.81,0 470.81,-19.25"/>
<text text-anchor="middle" x="444.44" y="-5.75" font-family="Helvetica,sans-Serif" font-size="10.00">complex</text>
</a>
</g>
</g>
<!-- Node2&#45;&gt;Node9 -->
<g id="edge8_Node000002_Node000009" class="edge">
<title>Node2&#45;&gt;Node9</title>
<g id="a_edge8_Node000002_Node000009"><a xlink:title=" ">
<path fill="none" stroke="#63b8ff" d="M480.34,-55.08C474.4,-47.73 465.75,-37.01 458.42,-27.94"/>
<polygon fill="#63b8ff" stroke="#63b8ff" points="460.7,-26.19 451.69,-20.61 455.25,-30.59 460.7,-26.19"/>
</a>
</g>
</g>
<!-- Node10&#45;&gt;Node2 -->
<g id="edge11_Node000010_Node000002" class="edge">
<title>Node10&#45;&gt;Node2</title>
<g id="a_edge11_Node000010_Node000002"><a xlink:title=" ">
<path fill="none" stroke="#63b8ff" d="M293.85,-165.34C306.93,-151.75 333.45,-126.01 360.44,-110.5 385.35,-96.18 415.62,-85.32 440.36,-77.91"/>
<polygon fill="#63b8ff" stroke="#63b8ff" points="440.97,-81.09 449.6,-74.94 439.02,-74.36 440.97,-81.09"/>
</a>
</g>
</g>
<!-- Node10&#45;&gt;Node6 -->
<g id="edge22_Node000010_Node000006" class="edge">
<title>Node10&#45;&gt;Node6</title>
<g id="a_edge22_Node000010_Node000006"><a xlink:title=" ">
<path fill="none" stroke="#63b8ff" d="M224.18,-168.44C167.25,-161.81 87.71,-149.36 63.44,-129.75 36.38,-107.88 15.75,-80.72 39.44,-55.25 75.34,-16.65 444.77,-27.98 533.23,-18.79"/>
<polygon fill="#63b8ff" stroke="#63b8ff" points="533.55,-22.14 542.98,-17.31 532.59,-15.2 533.55,-22.14"/>
</a>
</g>
</g>
<!-- Node10&#45;&gt;Node7 -->
<g id="edge23_Node000010_Node000007" class="edge">
<title>Node10&#45;&gt;Node7</title>
<g id="a_edge23_Node000010_Node000007"><a xlink:title=" ">
<path fill="none" stroke="#63b8ff" d="M324.32,-165.28C449.15,-136.08 838.29,-45.05 953.19,-18.17"/>
<polygon fill="#63b8ff" stroke="#63b8ff" points="953.79,-21.39 962.73,-15.7 952.2,-14.57 953.79,-21.39"/>
</a>
</g>
</g>
<!-- Node11 -->
<g id="Node000011" class="node">
<title>Node11</title>
<g id="a_Node000011"><a xlink:title=" ">
<polygon fill="#e0e0e0" stroke="#999999" points="1008.69,-74.5 934.19,-74.5 934.19,-55.25 1008.69,-55.25 1008.69,-74.5"/>
<text text-anchor="middle" x="971.44" y="-61" font-family="Helvetica,sans-Serif" font-size="10.00">ioss_export.h</text>
</a>
</g>
</g>
<!-- Node10&#45;&gt;Node11 -->
<g id="edge10_Node000010_Node000011" class="edge">
<title>Node10&#45;&gt;Node11</title>
<g id="a_edge10_Node000010_Node000011"><a xlink:title=" ">
<path fill="none" stroke="#63b8ff" d="M346.72,-171.46C461.55,-165.57 704.89,-151 786.44,-129.75 806.7,-124.47 809.86,-117.93 829.44,-110.5 862.22,-98.06 900.13,-86.27 928.54,-77.94"/>
<polygon fill="#63b8ff" stroke="#63b8ff" points="929.3,-81.07 937.93,-74.92 927.35,-74.35 929.3,-81.07"/>
</a>
</g>
</g>
<!-- Node12 -->
<g id="Node000012" class="node">
<title>Node12</title>
<g id="a_Node000012"><a xlink:href="Ioss__ElementPermutation_8h.html" target="_top" xlink:title=" ">
<polygon fill="white" stroke="#666666" points="222.81,-129.75 86.06,-129.75 86.06,-110.5 222.81,-110.5 222.81,-129.75"/>
<text text-anchor="middle" x="154.44" y="-116.25" font-family="Helvetica,sans-Serif" font-size="10.00">Ioss_ElementPermutation.h</text>
</a>
</g>
</g>
<!-- Node10&#45;&gt;Node12 -->
<g id="edge12_Node000010_Node000012" class="edge">
<title>Node10&#45;&gt;Node12</title>
<g id="a_edge12_Node000010_Node000012"><a xlink:title=" ">
<path fill="none" stroke="#63b8ff" d="M263.22,-165.34C242.23,-156.81 210.52,-143.92 186.75,-134.26"/>
<polygon fill="#63b8ff" stroke="#63b8ff" points="188.35,-130.73 177.77,-130.2 185.72,-137.21 188.35,-130.73"/>
</a>
</g>
</g>
<!-- Node15 -->
<g id="Node000015" class="node">
<title>Node15</title>
<g id="a_Node000015"><a xlink:title=" ">
<polygon fill="#e0e0e0" stroke="#999999" points="82.81,-74.5 48.06,-74.5 48.06,-55.25 82.81,-55.25 82.81,-74.5"/>
<text text-anchor="middle" x="65.44" y="-61" font-family="Helvetica,sans-Serif" font-size="10.00">map</text>
</a>
</g>
</g>
<!-- Node10&#45;&gt;Node15 -->
<g id="edge20_Node000010_Node000015" class="edge">
<title>Node10&#45;&gt;Node15</title>
<g id="a_edge20_Node000010_Node000015"><a xlink:title=" ">
<path fill="none" stroke="#63b8ff" d="M224.22,-168.71C170.39,-162.44 97.55,-150.38 77.44,-129.75 66.12,-118.13 63.73,-99.42 63.81,-85.25"/>
<polygon fill="#63b8ff" stroke="#63b8ff" points="67.33,-85.82 64.31,-75.66 60.34,-85.48 67.33,-85.82"/>
</a>
</g>
</g>
<!-- Node16 -->
<g id="Node000016" class="node">
<title>Node16</title>
<g id="a_Node000016"><a xlink:title=" ">
<polygon fill="#e0e0e0" stroke="#999999" points="308.19,-129.75 278.69,-129.75 278.69,-110.5 308.19,-110.5 308.19,-129.75"/>
<text text-anchor="middle" x="293.44" y="-116.25" font-family="Helvetica,sans-Serif" font-size="10.00">set</text>
</a>
</g>
</g>
<!-- Node10&#45;&gt;Node16 -->
<g id="edge21_Node000010_Node000016" class="edge">
<title>Node10&#45;&gt;Node16</title>
<g id="a_edge21_Node000010_Node000016"><a xlink:title=" ">
<path fill="none" stroke="#63b8ff" d="M286.76,-165.58C287.77,-158.84 289.21,-149.27 290.49,-140.74"/>
<polygon fill="#63b8ff" stroke="#63b8ff" points="294.07,-141.52 292.09,-131.11 287.14,-140.48 294.07,-141.52"/>
</a>
</g>
</g>
<!-- Node12&#45;&gt;Node2 -->
<g id="edge14_Node000012_Node000002" class="edge">
<title>Node12&#45;&gt;Node2</title>
<g id="a_edge14_Node000012_Node000002"><a xlink:title=" ">
<path fill="none" stroke="#63b8ff" d="M211.31,-110.03C271.5,-100.41 366.11,-85.28 427.46,-75.47"/>
<polygon fill="#63b8ff" stroke="#63b8ff" points="427.81,-78.79 437.14,-73.76 426.71,-71.88 427.81,-78.79"/>
</a>
</g>
</g>
<!-- Node12&#45;&gt;Node6 -->
<g id="edge18_Node000012_Node000006" class="edge">
<title>Node12&#45;&gt;Node6</title>
<g id="a_edge18_Node000012_Node000006"><a xlink:title=" ">
<path fill="none" stroke="#63b8ff" d="M182.01,-110.02C222.27,-96.91 299.61,-72.41 366.44,-55.25 437.63,-36.98 459.19,-38.07 533.83,-19.49"/>
<polygon fill="#63b8ff" stroke="#63b8ff" points="534.38,-22.71 543.21,-16.86 532.66,-15.92 534.38,-22.71"/>
</a>
</g>
</g>
<!-- Node12&#45;&gt;Node7 -->
<g id="edge19_Node000012_Node000007" class="edge">
<title>Node12&#45;&gt;Node7</title>
<g id="a_edge19_Node000012_Node000007"><a xlink:title=" ">
<path fill="none" stroke="#63b8ff" d="M194.21,-110.06C233.44,-101.11 295.1,-86.97 348.44,-74.5 384.47,-66.07 392.89,-61.02 429.44,-55.25 626.51,-24.11 866.5,-14.19 952.68,-11.5"/>
<polygon fill="#63b8ff" stroke="#63b8ff" points="952.68,-14.97 962.57,-11.18 952.47,-7.98 952.68,-14.97"/>
</a>
</g>
</g>
<!-- Node12&#45;&gt;Node11 -->
<g id="edge13_Node000012_Node000011" class="edge">
<title>Node12&#45;&gt;Node11</title>
<g id="a_edge13_Node000012_Node000011"><a xlink:title=" ">
<path fill="none" stroke="#63b8ff" d="M223.15,-113.84C238.39,-112.71 254.46,-111.54 269.44,-110.5 514.97,-93.49 808.99,-75.6 922.98,-68.76"/>
<polygon fill="#63b8ff" stroke="#63b8ff" points="922.99,-72.21 932.76,-68.12 922.57,-65.22 922.99,-72.21"/>
</a>
</g>
</g>
<!-- Node13 -->
<g id="Node000013" class="node">
<title>Node13</title>
<g id="a_Node000013"><a xlink:title=" ">
<polygon fill="#e0e0e0" stroke="#999999" points="166.06,-74.5 114.81,-74.5 114.81,-55.25 166.06,-55.25 166.06,-74.5"/>
<text text-anchor="middle" x="140.44" y="-61" font-family="Helvetica,sans-Serif" font-size="10.00">assert.h</text>
</a>
</g>
</g>
<!-- Node12&#45;&gt;Node13 -->
<g id="edge15_Node000012_Node000013" class="edge">
<title>Node12&#45;&gt;Node13</title>
<g id="a_edge15_Node000012_Node000013"><a xlink:title=" ">
<path fill="none" stroke="#63b8ff" d="M152.13,-110.33C150.36,-103.59 147.84,-94.02 145.6,-85.49"/>
<polygon fill="#63b8ff" stroke="#63b8ff" points="148.73,-84.64 142.8,-75.86 141.96,-86.42 148.73,-84.64"/>
</a>
</g>
</g>
<!-- Node14 -->
<g id="Node000014" class="node">
<title>Node14</title>
<g id="a_Node000014"><a xlink:title=" ">
<polygon fill="#e0e0e0" stroke="#999999" points="223.06,-74.5 183.81,-74.5 183.81,-55.25 223.06,-55.25 223.06,-74.5"/>
<text text-anchor="middle" x="203.44" y="-61" font-family="Helvetica,sans-Serif" font-size="10.00">limits</text>
</a>
</g>
</g>
<!-- Node12&#45;&gt;Node14 -->
<g id="edge16_Node000012_Node000014" class="edge">
<title>Node12&#45;&gt;Node14</title>
<g id="a_edge16_Node000012_Node000014"><a xlink:title=" ">
<path fill="none" stroke="#63b8ff" d="M162.53,-110.33C169.37,-102.9 179.37,-92.04 187.76,-82.91"/>
<polygon fill="#63b8ff" stroke="#63b8ff" points="189.98,-85.59 194.17,-75.86 184.83,-80.85 189.98,-85.59"/>
</a>
</g>
</g>
<!-- Node12&#45;&gt;Node15 -->
<g id="edge17_Node000012_Node000015" class="edge">
<title>Node12&#45;&gt;Node15</title>
<g id="a_edge17_Node000012_Node000015"><a xlink:title=" ">
<path fill="none" stroke="#63b8ff" d="M139.34,-110.09C125.79,-101.98 105.65,-89.93 89.82,-80.46"/>
<polygon fill="#63b8ff" stroke="#63b8ff" points="91.99,-77.08 81.61,-74.95 88.4,-83.09 91.99,-77.08"/>
</a>
</g>
</g>
<!-- Node17&#45;&gt;Node2 -->
<g id="edge26_Node000017_Node000002" class="edge">
<title>Node17&#45;&gt;Node2</title>
<g id="a_edge26_Node000017_Node000002"><a xlink:title=" ">
<path fill="none" stroke="#63b8ff" d="M346.93,-220.52C361.75,-199.97 399.64,-148.82 436.44,-110.5 446.17,-100.36 457.92,-89.97 467.69,-81.77"/>
<polygon fill="#63b8ff" stroke="#63b8ff" points="469.51,-83.99 474.99,-74.92 465.05,-78.59 469.51,-83.99"/>
</a>
</g>
</g>
<!-- Node17&#45;&gt;Node10 -->
<g id="edge27_Node000017_Node000010" class="edge">
<title>Node17&#45;&gt;Node10</title>
<g id="a_edge27_Node000017_Node000010"><a xlink:title=" ">
<path fill="none" stroke="#63b8ff" d="M331.36,-220.83C323.52,-213.25 312,-202.09 302.45,-192.85"/>
<polygon fill="#63b8ff" stroke="#63b8ff" points="305.34,-190.8 295.72,-186.36 300.47,-195.83 305.34,-190.8"/>
</a>
</g>
</g>
<!-- Node17&#45;&gt;Node11 -->
<g id="edge25_Node000017_Node000011" class="edge">
<title>Node17&#45;&gt;Node11</title>
<g id="a_edge25_Node000017_Node000011"><a xlink:title=" ">
<path fill="none" stroke="#63b8ff" d="M377.59,-220.6C431.26,-207.7 533.68,-183.57 621.44,-165.75 710.38,-147.69 735.5,-155.8 822.44,-129.75 866.57,-116.53 915.19,-94.1 944.51,-79.64"/>
<polygon fill="#63b8ff" stroke="#63b8ff" points="945.65,-82.48 953.04,-74.89 942.53,-76.22 945.65,-82.48"/>
</a>
</g>
</g>
<!-- Node18&#45;&gt;Node2 -->
<g id="edge30_Node000018_Node000002" class="edge">
<title>Node18&#45;&gt;Node2</title>
<g id="a_edge30_Node000018_Node000002"><a xlink:title=" ">
<path fill="none" stroke="#63b8ff" d="M438.96,-331.23C440.9,-300.29 448.83,-194.71 470.44,-110.5 472.65,-101.88 476,-92.63 479.14,-84.81"/>
<polygon fill="#63b8ff" stroke="#63b8ff" points="482.66,-86.48 483.3,-75.91 476.2,-83.77 482.66,-86.48"/>
</a>
</g>
</g>
<!-- Node18&#45;&gt;Node6 -->
<g id="edge74_Node000018_Node000006" class="edge">
<title>Node18&#45;&gt;Node6</title>
<g id="a_edge74_Node000018_Node000006"><a xlink:title=" ">
<path fill="none" stroke="#63b8ff" d="M400.31,-331.07C276.21,-300 -101.02,-192.04 26.44,-55.25 63.35,-15.63 443.17,-28.1 533.26,-18.78"/>
<polygon fill="#63b8ff" stroke="#63b8ff" points="533.55,-22.14 542.98,-17.31 532.6,-15.2 533.55,-22.14"/>
</a>
</g>
</g>
<!-- Node18&#45;&gt;Node11 -->
<g id="edge29_Node000018_Node000011" class="edge">
<title>Node18&#45;&gt;Node11</title>
<g id="a_edge29_Node000018_Node000011"><a xlink:title=" ">
<path fill="none" stroke="#63b8ff" d="M508.64,-337.59C653.74,-331.01 980.19,-308.79 1064.44,-240.25 1109.21,-203.83 1100.24,-151.31 1059.44,-110.5 1045.6,-96.66 1026.58,-86.28 1009.76,-79.03"/>
<polygon fill="#63b8ff" stroke="#63b8ff" points="1011.22,-75.44 1000.64,-74.92 1008.59,-81.93 1011.22,-75.44"/>
</a>
</g>
</g>
<!-- Node19 -->
<g id="Node000019" class="node">
<title>Node19</title>
<g id="a_Node000019"><a xlink:href="Ioss__VariableType_8h.html" target="_top" xlink:title=" ">
<polygon fill="white" stroke="#666666" points="767.31,-295.5 663.56,-295.5 663.56,-276.25 767.31,-276.25 767.31,-295.5"/>
<text text-anchor="middle" x="715.44" y="-282" font-family="Helvetica,sans-Serif" font-size="10.00">Ioss_VariableType.h</text>
</a>
</g>
</g>
<!-- Node18&#45;&gt;Node19 -->
<g id="edge31_Node000018_Node000019" class="edge">
<title>Node18&#45;&gt;Node19</title>
<g id="a_edge31_Node000018_Node000019"><a xlink:title=" ">
<path fill="none" stroke="#63b8ff" d="M485.74,-331.03C533.35,-321.88 606.83,-307.75 657.81,-297.95"/>
<polygon fill="#63b8ff" stroke="#63b8ff" points="658.17,-301.26 667.33,-295.93 656.85,-294.38 658.17,-301.26"/>
</a>
</g>
</g>
<!-- Node19&#45;&gt;Node2 -->
<g id="edge33_Node000019_Node000002" class="edge">
<title>Node19&#45;&gt;Node2</title>
<g id="a_edge33_Node000019_Node000002"><a xlink:title=" ">
<path fill="none" stroke="#63b8ff" d="M663.29,-282.77C599.76,-278.98 497.98,-268.55 474.44,-240.25 455.22,-217.15 473.51,-125.48 482.78,-85.12"/>
<polygon fill="#63b8ff" stroke="#63b8ff" points="486.38,-86.12 485.27,-75.58 479.56,-84.51 486.38,-86.12"/>
</a>
</g>
</g>
<!-- Node19&#45;&gt;Node6 -->
<g id="edge72_Node000019_Node000006" class="edge">
<title>Node19&#45;&gt;Node6</title>
<g id="a_edge72_Node000019_Node000006"><a xlink:title=" ">
<path fill="none" stroke="#63b8ff" d="M702.62,-275.92C680.81,-260.04 636.45,-224.87 611.44,-185 580.13,-135.09 569.46,-64.49 566,-30.47"/>
<polygon fill="#63b8ff" stroke="#63b8ff" points="569.41,-30.34 565.03,-20.7 562.44,-30.97 569.41,-30.34"/>
</a>
</g>
</g>
<!-- Node19&#45;&gt;Node7 -->
<g id="edge73_Node000019_Node000007" class="edge">
<title>Node19&#45;&gt;Node7</title>
<g id="a_edge73_Node000019_Node000007"><a xlink:title=" ">
<path fill="none" stroke="#63b8ff" d="M767.54,-282.99C836.6,-279.42 961.7,-269.2 1064.44,-240.25 1122.12,-224 1144.69,-227 1187.44,-185 1212.46,-160.42 1225.55,-143.41 1213.44,-110.5 1202.31,-80.24 1193.86,-72.21 1166.44,-55.25 1119.84,-26.43 1055.72,-16.21 1017.63,-12.6"/>
<polygon fill="#63b8ff" stroke="#63b8ff" points="1018.41,-9.07 1008.15,-11.71 1017.82,-16.04 1018.41,-9.07"/>
</a>
</g>
</g>
<!-- Node19&#45;&gt;Node11 -->
<g id="edge32_Node000019_Node000011" class="edge">
<title>Node19&#45;&gt;Node11</title>
<g id="a_edge32_Node000019_Node000011"><a xlink:title=" ">
<path fill="none" stroke="#63b8ff" d="M767.74,-283.08C847.55,-279.45 995.07,-268.96 1038.44,-240.25 1068.63,-220.26 1081.53,-200.53 1071.44,-165.75 1063.34,-137.83 1056.61,-131.43 1036.44,-110.5 1025.09,-98.72 1010.16,-88.21 997.48,-80.35"/>
<polygon fill="#63b8ff" stroke="#63b8ff" points="999.7,-77 989.31,-74.89 996.11,-83.02 999.7,-77"/>
</a>
</g>
</g>
<!-- Node19&#45;&gt;Node15 -->
<g id="edge71_Node000019_Node000015" class="edge">
<title>Node19&#45;&gt;Node15</title>
<g id="a_edge71_Node000019_Node000015"><a xlink:title=" ">
<path fill="none" stroke="#63b8ff" d="M663.26,-285.31C581.5,-284.7 418.97,-278.23 287.44,-240.25 234.11,-224.85 92.75,-176.89 63.44,-129.75 55.28,-116.63 56.59,-98.89 59.48,-85.44"/>
<polygon fill="#63b8ff" stroke="#63b8ff" points="63.08,-86.5 62.23,-75.94 56.31,-84.72 63.08,-86.5"/>
</a>
</g>
</g>
<!-- Node20 -->
<g id="Node000020" class="node">
<title>Node20</title>
<g id="a_Node000020"><a xlink:href="Ioss__Utils_8h.html" target="_top" xlink:title=" ">
<polygon fill="white" stroke="#666666" points="1029.69,-240.25 961.19,-240.25 961.19,-221 1029.69,-221 1029.69,-240.25"/>
<text text-anchor="middle" x="995.44" y="-226.75" font-family="Helvetica,sans-Serif" font-size="10.00">Ioss_Utils.h</text>
</a>
</g>
</g>
<!-- Node19&#45;&gt;Node20 -->
<g id="edge34_Node000019_Node000020" class="edge">
<title>Node19&#45;&gt;Node20</title>
<g id="a_edge34_Node000019_Node000020"><a xlink:title=" ">
<path fill="none" stroke="#63b8ff" d="M763.26,-275.78C815.64,-265.82 899.03,-249.96 950.32,-240.21"/>
<polygon fill="#63b8ff" stroke="#63b8ff" points="950.9,-243.47 960.07,-238.16 949.59,-236.59 950.9,-243.47"/>
</a>
</g>
</g>
<!-- Node27 -->
<g id="Node000027" class="node">
<title>Node27</title>
<g id="a_Node000027"><a xlink:title=" ">
<polygon fill="#e0e0e0" stroke="#999999" points="1623.44,-74.5 1565.44,-74.5 1565.44,-55.25 1623.44,-55.25 1623.44,-74.5"/>
<text text-anchor="middle" x="1594.44" y="-61" font-family="Helvetica,sans-Serif" font-size="10.00">functional</text>
</a>
</g>
</g>
<!-- Node19&#45;&gt;Node27 -->
<g id="edge70_Node000019_Node000027" class="edge">
<title>Node19&#45;&gt;Node27</title>
<g id="a_edge70_Node000019_Node000027"><a xlink:title=" ">
<path fill="none" stroke="#63b8ff" d="M767.66,-283.06C948.73,-276.23 1541.41,-249.08 1594.44,-185 1617.65,-156.95 1608.94,-111.15 1601.23,-85.27"/>
<polygon fill="#63b8ff" stroke="#63b8ff" points="1604.29,-84.36 1597.88,-75.92 1597.63,-86.51 1604.29,-84.36"/>
</a>
</g>
</g>
<!-- Node35 -->
<g id="Node000035" class="node">
<title>Node35</title>
<g id="a_Node000035"><a xlink:title=" ">
<polygon fill="#e0e0e0" stroke="#999999" points="738.06,-240.25 692.81,-240.25 692.81,-221 738.06,-221 738.06,-240.25"/>
<text text-anchor="middle" x="715.44" y="-226.75" font-family="Helvetica,sans-Serif" font-size="10.00">cstring</text>
</a>
</g>
</g>
<!-- Node19&#45;&gt;Node35 -->
<g id="edge69_Node000019_Node000035" class="edge">
<title>Node19&#45;&gt;Node35</title>
<g id="a_edge69_Node000019_Node000035"><a xlink:title=" ">
<path fill="none" stroke="#63b8ff" d="M715.44,-276.08C715.44,-269.42 715.44,-259.99 715.44,-251.53"/>
<polygon fill="#63b8ff" stroke="#63b8ff" points="718.94,-251.61 715.44,-241.61 711.94,-251.61 718.94,-251.61"/>
</a>
</g>
</g>
<!-- Node20&#45;&gt;Node2 -->
<g id="edge36_Node000020_Node000002" class="edge">
<title>Node20&#45;&gt;Node2</title>
<g id="a_edge36_Node000020_Node000002"><a xlink:title=" ">
<path fill="none" stroke="#63b8ff" d="M960.76,-229.08C874.52,-227.22 652.7,-219.14 588.44,-185 544.89,-161.86 512.25,-111.48 496.99,-84.24"/>
<polygon fill="#63b8ff" stroke="#63b8ff" points="499.68,-82.86 491.85,-75.73 493.53,-86.19 499.68,-82.86"/>
</a>
</g>
</g>
<!-- Node20&#45;&gt;Node4 -->
<g id="edge62_Node000020_Node000004" class="edge">
<title>Node20&#45;&gt;Node4</title>
<g id="a_edge62_Node000020_Node000004"><a xlink:title=" ">
<path fill="none" stroke="#63b8ff" d="M1030.03,-227.89C1119.61,-223.09 1357.38,-208.49 1432.44,-185 1529.36,-154.67 1580.84,-161.97 1632.44,-74.5 1659.05,-29.39 1569.4,-16.13 1516.87,-12.24"/>
<polygon fill="#63b8ff" stroke="#63b8ff" points="1517.17,-8.68 1506.97,-11.52 1516.72,-15.67 1517.17,-8.68"/>
</a>
</g>
</g>
<!-- Node20&#45;&gt;Node5 -->
<g id="edge63_Node000020_Node000005" class="edge">
<title>Node20&#45;&gt;Node5</title>
<g id="a_edge63_Node000020_Node000005"><a xlink:title=" ">
<path fill="none" stroke="#63b8ff" d="M1000.88,-220.52C1008.26,-206.84 1019.06,-180.98 1005.44,-165.75 957.59,-112.24 740.95,-174.01 684.44,-129.75 653.58,-105.59 644.36,-57.54 641.61,-30.43"/>
<polygon fill="#63b8ff" stroke="#63b8ff" points="645.03,-30.3 640.75,-20.61 638.05,-30.85 645.03,-30.3"/>
</a>
</g>
</g>
<!-- Node20&#45;&gt;Node6 -->
<g id="edge67_Node000020_Node000006" class="edge">
<title>Node20&#45;&gt;Node6</title>
<g id="a_edge67_Node000020_Node000006"><a xlink:title=" ">
<path fill="none" stroke="#63b8ff" d="M960.89,-230.09C878.37,-230.49 672.83,-227.14 621.44,-185 619.88,-183.72 585,-74.96 570.58,-29.87"/>
<polygon fill="#63b8ff" stroke="#63b8ff" points="573.63,-28.89 567.25,-20.43 566.96,-31.02 573.63,-28.89"/>
</a>
</g>
</g>
<!-- Node20&#45;&gt;Node7 -->
<g id="edge68_Node000020_Node000007" class="edge">
<title>Node20&#45;&gt;Node7</title>
<g id="a_edge68_Node000020_Node000007"><a xlink:title=" ">
<path fill="none" stroke="#63b8ff" d="M1030.12,-224.27C1097.36,-212.26 1235.49,-178.72 1195.44,-110.5 1158.08,-46.87 1067.03,-23.19 1017.99,-14.85"/>
<polygon fill="#63b8ff" stroke="#63b8ff" points="1018.77,-11.27 1008.34,-13.17 1017.68,-18.18 1018.77,-11.27"/>
</a>
</g>
</g>
<!-- Node20&#45;&gt;Node10 -->
<g id="edge37_Node000020_Node000010" class="edge">
<title>Node20&#45;&gt;Node10</title>
<g id="a_edge37_Node000020_Node000010"><a xlink:title=" ">
<path fill="none" stroke="#63b8ff" d="M960.71,-227.02C850.64,-218.77 507.92,-193.06 357.48,-181.78"/>
<polygon fill="#63b8ff" stroke="#63b8ff" points="357.78,-178.22 347.55,-180.96 357.26,-185.2 357.78,-178.22"/>
</a>
</g>
</g>
<!-- Node20&#45;&gt;Node11 -->
<g id="edge35_Node000020_Node000011" class="edge">
<title>Node20&#45;&gt;Node11</title>
<g id="a_edge35_Node000020_Node000011"><a xlink:title=" ">
<path fill="none" stroke="#63b8ff" d="M1015.91,-220.6C1029.85,-213.23 1047.22,-201.36 1055.44,-185 1059.28,-177.36 1058.37,-173.79 1055.44,-165.75 1042.73,-130.89 1011.91,-99.76 991.34,-81.85"/>
<polygon fill="#63b8ff" stroke="#63b8ff" points="993.88,-78.57 983.98,-74.8 989.37,-83.92 993.88,-78.57"/>
</a>
</g>
</g>
<!-- Node21 -->
<g id="Node000021" class="node">
<title>Node21</title>
<g id="a_Node000021"><a xlink:href="Ioss__EntityType_8h.html" target="_top" xlink:title=" ">
<polygon fill="white" stroke="#666666" points="724.81,-185 630.06,-185 630.06,-165.75 724.81,-165.75 724.81,-185"/>
<text text-anchor="middle" x="677.44" y="-171.5" font-family="Helvetica,sans-Serif" font-size="10.00">Ioss_EntityType.h</text>
</a>
</g>
</g>
<!-- Node20&#45;&gt;Node21 -->
<g id="edge38_Node000020_Node000021" class="edge">
<title>Node20&#45;&gt;Node21</title>
<g id="a_edge38_Node000020_Node000021"><a xlink:title=" ">
<path fill="none" stroke="#63b8ff" d="M960.8,-223.82C906.75,-214.77 801.7,-197.18 735.81,-186.15"/>
<polygon fill="#63b8ff" stroke="#63b8ff" points="736.63,-182.57 726.19,-184.37 735.47,-189.47 736.63,-182.57"/>
</a>
</g>
</g>
<!-- Node22 -->
<g id="Node000022" class="node">
<title>Node22</title>
<g id="a_Node000022"><a xlink:href="Ioss__Field_8h.html" target="_top" xlink:title=" ">
<polygon fill="white" stroke="#666666" points="1186.06,-129.75 1116.81,-129.75 1116.81,-110.5 1186.06,-110.5 1186.06,-129.75"/>
<text text-anchor="middle" x="1151.44" y="-116.25" font-family="Helvetica,sans-Serif" font-size="10.00">Ioss_Field.h</text>
</a>
</g>
</g>
<!-- Node20&#45;&gt;Node22 -->
<g id="edge39_Node000020_Node000022" class="edge">
<title>Node20&#45;&gt;Node22</title>
<g id="a_edge39_Node000020_Node000022"><a xlink:title=" ">
<path fill="none" stroke="#63b8ff" d="M1030.18,-223.19C1055.8,-217 1090.27,-205.45 1114.44,-185 1128.64,-172.98 1138.64,-154.05 1144.63,-139.91"/>
<polygon fill="#63b8ff" stroke="#63b8ff" points="1148.19,-141.41 1148.58,-130.83 1141.67,-138.86 1148.19,-141.41"/>
</a>
</g>
</g>
<!-- Node23 -->
<g id="Node000023" class="node">
<title>Node23</title>
<g id="a_Node000023"><a xlink:href="Ioss__Property_8h.html" target="_top" xlink:title=" ">
<polygon fill="white" stroke="#666666" points="777.19,-129.75 693.69,-129.75 693.69,-110.5 777.19,-110.5 777.19,-129.75"/>
<text text-anchor="middle" x="735.44" y="-116.25" font-family="Helvetica,sans-Serif" font-size="10.00">Ioss_Property.h</text>
</a>
</g>
</g>
<!-- Node20&#45;&gt;Node23 -->
<g id="edge45_Node000020_Node000023" class="edge">
<title>Node20&#45;&gt;Node23</title>
<g id="a_edge45_Node000020_Node000023"><a xlink:title=" ">
<path fill="none" stroke="#63b8ff" d="M1009.01,-220.68C1026.82,-207.87 1054.08,-183.86 1038.44,-165.75 1006.7,-129 866,-121.97 787.98,-120.96"/>
<polygon fill="#63b8ff" stroke="#63b8ff" points="788.44,-117.46 778.41,-120.86 788.37,-124.46 788.44,-117.46"/>
</a>
</g>
</g>
<!-- Node24 -->
<g id="Node000024" class="node">
<title>Node24</title>
<g id="a_Node000024"><a xlink:href="Ioss__Sort_8h.html" target="_top" xlink:title=" ">
<polygon fill="white" stroke="#666666" points="1397.56,-185 1331.31,-185 1331.31,-165.75 1397.56,-165.75 1397.56,-185"/>
<text text-anchor="middle" x="1364.44" y="-171.5" font-family="Helvetica,sans-Serif" font-size="10.00">Ioss_Sort.h</text>
</a>
</g>
</g>
<!-- Node20&#45;&gt;Node24 -->
<g id="edge50_Node000020_Node000024" class="edge">
<title>Node20&#45;&gt;Node24</title>
<g id="a_edge50_Node000020_Node000024"><a xlink:title=" ">
<path fill="none" stroke="#63b8ff" d="M1030.15,-224.62C1097.48,-214.9 1245.67,-193.51 1320.04,-182.78"/>
<polygon fill="#63b8ff" stroke="#63b8ff" points="1320.49,-186.11 1329.89,-181.22 1319.49,-179.18 1320.49,-186.11"/>
</a>
</g>
</g>
<!-- Node26 -->
<g id="Node000026" class="node">
<title>Node26</title>
<g id="a_Node000026"><a xlink:title=" ">
<polygon fill="#e0e0e0" stroke="#999999" points="1509.31,-74.5 1453.56,-74.5 1453.56,-55.25 1509.31,-55.25 1509.31,-74.5"/>
<text text-anchor="middle" x="1481.44" y="-61" font-family="Helvetica,sans-Serif" font-size="10.00">algorithm</text>
</a>
</g>
</g>
<!-- Node20&#45;&gt;Node26 -->
<g id="edge59_Node000020_Node000026" class="edge">
<title>Node20&#45;&gt;Node26</title>
<g id="a_edge59_Node000020_Node000026"><a xlink:title=" ">
<path fill="none" stroke="#63b8ff" d="M1030.13,-229.66C1117.48,-229.16 1343.98,-224.03 1406.44,-185 1443.8,-161.66 1465.73,-112.13 1475.44,-84.86"/>
<polygon fill="#63b8ff" stroke="#63b8ff" points="1478.99,-86.27 1478.86,-75.68 1472.36,-84.04 1478.99,-86.27"/>
</a>
</g>
</g>
<!-- Node20&#45;&gt;Node30 -->
<g id="edge60_Node000020_Node000030" class="edge">
<title>Node20&#45;&gt;Node30</title>
<g id="a_edge60_Node000020_Node000030"><a xlink:title=" ">
<path fill="none" stroke="#63b8ff" d="M1029.92,-228.37C1114.47,-224.93 1338.67,-213.64 1523.44,-185 1524.4,-184.85 1525.38,-184.69 1526.37,-184.52"/>
<polygon fill="#63b8ff" stroke="#63b8ff" points="1526.86,-187.8 1536.01,-182.45 1525.52,-180.93 1526.86,-187.8"/>
</a>
</g>
</g>
<!-- Node31 -->
<g id="Node000031" class="node">
<title>Node31</title>
<g id="a_Node000031"><a xlink:title=" ">
<polygon fill="#e0e0e0" stroke="#999999" points="785.94,-185 742.94,-185 742.94,-165.75 785.94,-165.75 785.94,-185"/>
<text text-anchor="middle" x="764.44" y="-171.5" font-family="Helvetica,sans-Serif" font-size="10.00">cmath</text>
</a>
</g>
</g>
<!-- Node20&#45;&gt;Node31 -->
<g id="edge61_Node000020_Node000031" class="edge">
<title>Node20&#45;&gt;Node31</title>
<g id="a_edge61_Node000020_Node000031"><a xlink:title=" ">
<path fill="none" stroke="#63b8ff" d="M960.98,-222.5C923.13,-214.56 860.32,-201.01 796.99,-185.29"/>
<polygon fill="#63b8ff" stroke="#63b8ff" points="797.97,-181.67 787.42,-182.64 796.27,-188.46 797.97,-181.67"/>
</a>
</g>
</g>
<!-- Node32 -->
<g id="Node000032" class="node">
<title>Node32</title>
<g id="a_Node000032"><a xlink:title=" ">
<polygon fill="#e0e0e0" stroke="#999999" points="848.69,-185 804.19,-185 804.19,-165.75 848.69,-165.75 848.69,-185"/>
<text text-anchor="middle" x="826.44" y="-171.5" font-family="Helvetica,sans-Serif" font-size="10.00">cstdlib</text>
</a>
</g>
</g>
<!-- Node20&#45;&gt;Node32 -->
<g id="edge64_Node000020_Node000032" class="edge">
<title>Node20&#45;&gt;Node32</title>
<g id="a_edge64_Node000020_Node000032"><a xlink:title=" ">
<path fill="none" stroke="#63b8ff" d="M966.77,-220.59C937.03,-211.22 890.6,-196.59 859.37,-186.75"/>
<polygon fill="#63b8ff" stroke="#63b8ff" points="860.61,-183.16 850.02,-183.49 858.5,-189.83 860.61,-183.16"/>
</a>
</g>
</g>
<!-- Node33 -->
<g id="Node000033" class="node">
<title>Node33</title>
<g id="a_Node000033"><a xlink:title=" ">
<polygon fill="#e0e0e0" stroke="#999999" points="920.19,-185 866.69,-185 866.69,-165.75 920.19,-165.75 920.19,-185"/>
<text text-anchor="middle" x="893.44" y="-171.5" font-family="Helvetica,sans-Serif" font-size="10.00">iostream</text>
</a>
</g>
</g>
<!-- Node20&#45;&gt;Node33 -->
<g id="edge65_Node000020_Node000033" class="edge">
<title>Node20&#45;&gt;Node33</title>
<g id="a_edge65_Node000020_Node000033"><a xlink:title=" ">
<path fill="none" stroke="#63b8ff" d="M978.14,-220.59C962.31,-212.33 938.65,-199.98 920.35,-190.43"/>
<polygon fill="#63b8ff" stroke="#63b8ff" points="922.31,-186.98 911.83,-185.45 919.07,-193.18 922.31,-186.98"/>
</a>
</g>
</g>
<!-- Node34 -->
<g id="Node000034" class="node">
<title>Node34</title>
<g id="a_Node000034"><a xlink:title=" ">
<polygon fill="#e0e0e0" stroke="#999999" points="996.81,-185 938.06,-185 938.06,-165.75 996.81,-165.75 996.81,-185"/>
<text text-anchor="middle" x="967.44" y="-171.5" font-family="Helvetica,sans-Serif" font-size="10.00">stdexcept</text>
</a>
</g>
</g>
<!-- Node20&#45;&gt;Node34 -->
<g id="edge66_Node000020_Node000034" class="edge">
<title>Node20&#45;&gt;Node34</title>
<g id="a_edge66_Node000020_Node000034"><a xlink:title=" ">
<path fill="none" stroke="#63b8ff" d="M990.82,-220.83C987.11,-213.78 981.78,-203.65 977.15,-194.83"/>
<polygon fill="#63b8ff" stroke="#63b8ff" points="979.92,-193.58 972.16,-186.36 973.72,-196.84 979.92,-193.58"/>
</a>
</g>
</g>
<!-- Node22&#45;&gt;Node2 -->
<g id="edge41_Node000022_Node000002" class="edge">
<title>Node22&#45;&gt;Node2</title>
<g id="a_edge41_Node000022_Node000002"><a xlink:title=" ">
<path fill="none" stroke="#63b8ff" d="M1116.67,-116.34C1009.38,-107.73 682.5,-81.52 547.13,-70.66"/>
<polygon fill="#63b8ff" stroke="#63b8ff" points="547.81,-67.12 537.56,-69.81 547.25,-74.1 547.81,-67.12"/>
</a>
</g>
</g>
<!-- Node22&#45;&gt;Node4 -->
<g id="edge42_Node000022_Node000004" class="edge">
<title>Node22&#45;&gt;Node4</title>
<g id="a_edge42_Node000022_Node000004"><a xlink:title=" ">
<path fill="none" stroke="#63b8ff" d="M1167.32,-110.04C1191.77,-96.4 1240.42,-70.59 1284.44,-55.25 1339.56,-36.04 1406.29,-22.95 1446.23,-16.14"/>
<polygon fill="#63b8ff" stroke="#63b8ff" points="1446.7,-19.44 1455.99,-14.34 1445.55,-12.53 1446.7,-19.44"/>
</a>
</g>
</g>
<!-- Node22&#45;&gt;Node6 -->
<g id="edge43_Node000022_Node000006" class="edge">
<title>Node22&#45;&gt;Node6</title>
<g id="a_edge43_Node000022_Node000006"><a xlink:title=" ">
<path fill="none" stroke="#63b8ff" d="M1134.5,-110.12C1104.09,-94.1 1041.18,-61.73 1017.44,-55.25 841.39,-7.23 789.12,-44.84 608.44,-19.25 604.14,-18.64 599.63,-17.89 595.19,-17.08"/>
<polygon fill="#63b8ff" stroke="#63b8ff" points="596,-13.48 585.52,-15.02 594.67,-20.35 596,-13.48"/>
</a>
</g>
</g>
<!-- Node22&#45;&gt;Node7 -->
<g id="edge44_Node000022_Node000007" class="edge">
<title>Node22&#45;&gt;Node7</title>
<g id="a_edge44_Node000022_Node000007"><a xlink:title=" ">
<path fill="none" stroke="#63b8ff" d="M1141,-110.03C1125.84,-97.05 1096.55,-72.82 1069.44,-55.25 1051.77,-43.8 1030.86,-32.68 1014.32,-24.41"/>
<polygon fill="#63b8ff" stroke="#63b8ff" points="1016.17,-20.93 1005.66,-19.65 1013.08,-27.2 1016.17,-20.93"/>
</a>
</g>
</g>
<!-- Node22&#45;&gt;Node11 -->
<g id="edge40_Node000022_Node000011" class="edge">
<title>Node22&#45;&gt;Node11</title>
<g id="a_edge40_Node000022_Node000011"><a xlink:title=" ">
<path fill="none" stroke="#63b8ff" d="M1120.9,-110.09C1091.04,-101.26 1045.36,-87.74 1012.36,-77.98"/>
<polygon fill="#63b8ff" stroke="#63b8ff" points="1013.71,-74.43 1003.12,-74.95 1011.72,-81.15 1013.71,-74.43"/>
</a>
</g>
</g>
<!-- Node23&#45;&gt;Node5 -->
<g id="edge47_Node000023_Node000005" class="edge">
<title>Node23&#45;&gt;Node5</title>
<g id="a_edge47_Node000023_Node000005"><a xlink:title=" ">
<path fill="none" stroke="#63b8ff" d="M737.27,-110.4C739.52,-97.23 741.78,-72.02 730.44,-55.25 717.5,-36.11 693.86,-24.83 674.05,-18.4"/>
<polygon fill="#63b8ff" stroke="#63b8ff" points="675.11,-14.77 664.53,-15.31 673.14,-21.48 675.11,-14.77"/>
</a>
</g>
</g>
<!-- Node23&#45;&gt;Node6 -->
<g id="edge48_Node000023_Node000006" class="edge">
<title>Node23&#45;&gt;Node6</title>
<g id="a_edge48_Node000023_Node000006"><a xlink:title=" ">
<path fill="none" stroke="#63b8ff" d="M721.15,-110.06C691.66,-91.35 623.78,-48.28 587.81,-25.45"/>
<polygon fill="#63b8ff" stroke="#63b8ff" points="589.88,-21.99 579.56,-19.59 586.13,-27.9 589.88,-21.99"/>
</a>
</g>
</g>
<!-- Node23&#45;&gt;Node7 -->
<g id="edge49_Node000023_Node000007" class="edge">
<title>Node23&#45;&gt;Node7</title>
<g id="a_edge49_Node000023_Node000007"><a xlink:title=" ">
<path fill="none" stroke="#63b8ff" d="M756.32,-110.06C800.35,-90.95 902.87,-46.46 954.52,-24.04"/>
<polygon fill="#63b8ff" stroke="#63b8ff" points="955.66,-26.93 963.44,-19.74 952.87,-20.51 955.66,-26.93"/>
</a>
</g>
</g>
<!-- Node23&#45;&gt;Node11 -->
<g id="edge46_Node000023_Node000011" class="edge">
<title>Node23&#45;&gt;Node11</title>
<g id="a_edge46_Node000023_Node000011"><a xlink:title=" ">
<path fill="none" stroke="#63b8ff" d="M775.74,-110.03C816.64,-100.8 879.96,-86.52 923.43,-76.71"/>
<polygon fill="#63b8ff" stroke="#63b8ff" points="924.05,-79.93 933.03,-74.32 922.5,-73.1 924.05,-79.93"/>
</a>
</g>
</g>
<!-- Node24&#45;&gt;Node4 -->
<g id="edge57_Node000024_Node000004" class="edge">
<title>Node24&#45;&gt;Node4</title>
<g id="a_edge57_Node000024_Node000004"><a xlink:title=" ">
<path fill="none" stroke="#63b8ff" d="M1393.25,-165.31C1429.98,-152.02 1491.89,-123.36 1518.44,-74.5 1527.36,-58.09 1514.13,-39.66 1501.08,-26.83"/>
<polygon fill="#63b8ff" stroke="#63b8ff" points="1503.93,-24.78 1494.18,-20.63 1499.21,-29.95 1503.93,-24.78"/>
</a>
</g>
</g>
<!-- Node24&#45;&gt;Node7 -->
<g id="edge58_Node000024_Node000007" class="edge">
<title>Node24&#45;&gt;Node7</title>
<g id="a_edge58_Node000024_Node000007"><a xlink:title=" ">
<path fill="none" stroke="#63b8ff" d="M1358.21,-165.37C1341.95,-142.66 1295.75,-82.9 1241.44,-55.25 1167.96,-17.84 1068.92,-11.1 1018.27,-10.31"/>
<polygon fill="#63b8ff" stroke="#63b8ff" points="1018.37,-6.8 1008.34,-10.22 1018.32,-13.8 1018.37,-6.8"/>
</a>
</g>
</g>
<!-- Node25 -->
<g id="Node000025" class="node">
<title>Node25</title>
<g id="a_Node000025"><a xlink:href="pdqsort_8h.html" target="_top" xlink:title=" ">
<polygon fill="white" stroke="#666666" points="1409.69,-129.75 1353.19,-129.75 1353.19,-110.5 1409.69,-110.5 1409.69,-129.75"/>
<text text-anchor="middle" x="1381.44" y="-116.25" font-family="Helvetica,sans-Serif" font-size="10.00">pdqsort.h</text>
</a>
</g>
</g>
<!-- Node24&#45;&gt;Node25 -->
<g id="edge51_Node000024_Node000025" class="edge">
<title>Node24&#45;&gt;Node25</title>
<g id="a_edge51_Node000024_Node000025"><a xlink:title=" ">
<path fill="none" stroke="#63b8ff" d="M1367.25,-165.58C1369.42,-158.76 1372.52,-149.06 1375.27,-140.45"/>
<polygon fill="#63b8ff" stroke="#63b8ff" points="1378.86,-141.7 1378.57,-131.11 1372.2,-139.57 1378.86,-141.7"/>
</a>
</g>
</g>
<!-- Node25&#45;&gt;Node4 -->
<g id="edge53_Node000025_Node000004" class="edge">
<title>Node25&#45;&gt;Node4</title>
<g id="a_edge53_Node000025_Node000004"><a xlink:title=" ">
<path fill="none" stroke="#63b8ff" d="M1389.62,-110.25C1406.25,-92.21 1444.23,-51 1465.77,-27.63"/>
<polygon fill="#63b8ff" stroke="#63b8ff" points="1467.94,-30.35 1472.14,-20.63 1462.79,-25.61 1467.94,-30.35"/>
</a>
</g>
</g>
<!-- Node25&#45;&gt;Node26 -->
<g id="edge52_Node000025_Node000026" class="edge">
<title>Node25&#45;&gt;Node26</title>
<g id="a_edge52_Node000025_Node000026"><a xlink:title=" ">
<path fill="none" stroke="#63b8ff" d="M1398.4,-110.09C1413.85,-101.87 1436.9,-89.59 1454.8,-80.06"/>
<polygon fill="#63b8ff" stroke="#63b8ff" points="1456.21,-82.74 1463.39,-74.95 1452.92,-76.56 1456.21,-82.74"/>
</a>
</g>
</g>
<!-- Node25&#45;&gt;Node27 -->
<g id="edge54_Node000025_Node000027" class="edge">
<title>Node25&#45;&gt;Node27</title>
<g id="a_edge54_Node000025_Node000027"><a xlink:title=" ">
<path fill="none" stroke="#63b8ff" d="M1410.17,-111.94C1447.46,-102.62 1512.73,-86.3 1554.74,-75.8"/>
<polygon fill="#63b8ff" stroke="#63b8ff" points="1555.29,-79.02 1564.15,-73.2 1553.6,-72.23 1555.29,-79.02"/>
</a>
</g>
</g>
<!-- Node28 -->
<g id="Node000028" class="node">
<title>Node28</title>
<g id="a_Node000028"><a xlink:title=" ">
<polygon fill="#e0e0e0" stroke="#999999" points="1397.44,-74.5 1351.44,-74.5 1351.44,-55.25 1397.44,-55.25 1397.44,-74.5"/>
<text text-anchor="middle" x="1374.44" y="-61" font-family="Helvetica,sans-Serif" font-size="10.00">iterator</text>
</a>
</g>
</g>
<!-- Node25&#45;&gt;Node28 -->
<g id="edge55_Node000025_Node000028" class="edge">
<title>Node25&#45;&gt;Node28</title>
<g id="a_edge55_Node000025_Node000028"><a xlink:title=" ">
<path fill="none" stroke="#63b8ff" d="M1380.28,-110.33C1379.4,-103.59 1378.14,-94.02 1377.02,-85.49"/>
<polygon fill="#63b8ff" stroke="#63b8ff" points="1380.39,-85.32 1375.62,-75.86 1373.45,-86.23 1380.39,-85.32"/>
</a>
</g>
</g>
<!-- Node29 -->
<g id="Node000029" class="node">
<title>Node29</title>
<g id="a_Node000029"><a xlink:title=" ">
<polygon fill="#e0e0e0" stroke="#999999" points="1333.06,-74.5 1293.81,-74.5 1293.81,-55.25 1333.06,-55.25 1333.06,-74.5"/>
<text text-anchor="middle" x="1313.44" y="-61" font-family="Helvetica,sans-Serif" font-size="10.00">utility</text>
</a>
</g>
</g>
<!-- Node25&#45;&gt;Node29 -->
<g id="edge56_Node000025_Node000029" class="edge">
<title>Node25&#45;&gt;Node29</title>
<g id="a_edge56_Node000025_Node000029"><a xlink:title=" ">
<path fill="none" stroke="#63b8ff" d="M1369.9,-110.09C1359.88,-102.24 1345.14,-90.7 1333.23,-81.37"/>
<polygon fill="#63b8ff" stroke="#63b8ff" points="1335.84,-78.18 1325.8,-74.77 1331.52,-83.7 1335.84,-78.18"/>
</a>
</g>
</g>
</g>
</svg>
