<?xml version="1.0" encoding="UTF-8" standalone="no"?>
<!DOCTYPE svg PUBLIC "-//W3C//DTD SVG 1.1//EN"
 "http://www.w3.org/Graphics/SVG/1.1/DTD/svg11.dtd">
<!-- Generated by graphviz version 3.0.0 (20220226.1711)
 -->
<!-- Title: src/Ioss_ParallelUtils.h Pages: 1 -->
<svg width="1049pt" height="252pt"
 viewBox="0.00 0.00 1048.74 252.00" xmlns="http://www.w3.org/2000/svg" xmlns:xlink="http://www.w3.org/1999/xlink">
<g id="graph0" class="graph" transform="scale(1 1) rotate(0) translate(4 248)">
<title>src/Ioss_ParallelUtils.h</title>
<polygon fill="white" stroke="transparent" points="-4,4 -4,-248 1044.74,-248 1044.74,4 -4,4"/>
<!-- Node1 -->
<g id="node1" class="node">
<title>Node1</title>
<g id="a_node1"><a xlink:title=" ">
<polygon fill="#bfbfbf" stroke="black" points="635.74,-224.5 635.74,-243.5 753.74,-243.5 753.74,-224.5 635.74,-224.5"/>
<text text-anchor="middle" x="694.74" y="-231.5" font-family="Helvetica,sans-Serif" font-size="10.00">src/Ioss_ParallelUtils.h</text>
</a>
</g>
</g>
<!-- Node2 -->
<g id="node2" class="node">
<title>Node2</title>
<g id="a_node2"><a xlink:href="Ioss__CodeTypes_8h.html" target="_top" xlink:title=" ">
<polygon fill="white" stroke="black" points="572.74,-56.5 572.74,-75.5 670.74,-75.5 670.74,-56.5 572.74,-56.5"/>
<text text-anchor="middle" x="621.74" y="-63.5" font-family="Helvetica,sans-Serif" font-size="10.00">Ioss_CodeTypes.h</text>
</a>
</g>
</g>
<!-- Node1&#45;&gt;Node2 -->
<g id="edge1" class="edge">
<title>Node1&#45;&gt;Node2</title>
<path fill="none" stroke="midnightblue" d="M740.59,-224.47C815.01,-208.68 948.97,-171.04 898.74,-112 871.4,-79.86 754.22,-70.61 681.31,-67.99"/>
<polygon fill="midnightblue" stroke="midnightblue" points="681,-64.48 670.89,-67.65 680.77,-71.47 681,-64.48"/>
</g>
<!-- Node4 -->
<g id="node4" class="node">
<title>Node4</title>
<g id="a_node4"><a xlink:title=" ">
<polygon fill="white" stroke="#bfbfbf" points="717.24,-0.5 717.24,-19.5 766.24,-19.5 766.24,-0.5 717.24,-0.5"/>
<text text-anchor="middle" x="741.74" y="-7.5" font-family="Helvetica,sans-Serif" font-size="10.00">cstddef</text>
</a>
</g>
</g>
<!-- Node1&#45;&gt;Node4 -->
<g id="edge45" class="edge">
<title>Node1&#45;&gt;Node4</title>
<path fill="none" stroke="midnightblue" d="M753.99,-232.37C796.12,-229.07 851.91,-218.54 890.74,-188 912.61,-170.8 912.35,-159.08 918.74,-132 920.78,-123.35 923.6,-119.44 918.74,-112 896.98,-78.68 871.54,-95.32 836.74,-76 809.14,-60.67 779.42,-39.51 760.72,-25.55"/>
<polygon fill="midnightblue" stroke="midnightblue" points="762.8,-22.74 752.71,-19.51 758.59,-28.33 762.8,-22.74"/>
</g>
<!-- Node6 -->
<g id="node6" class="node">
<title>Node6</title>
<g id="a_node6"><a xlink:title=" ">
<polygon fill="white" stroke="#bfbfbf" points="331.24,-0.5 331.24,-19.5 372.24,-19.5 372.24,-0.5 331.24,-0.5"/>
<text text-anchor="middle" x="351.74" y="-7.5" font-family="Helvetica,sans-Serif" font-size="10.00">string</text>
</a>
</g>
</g>
<!-- Node1&#45;&gt;Node6 -->
<g id="edge46" class="edge">
<title>Node1&#45;&gt;Node6</title>
<path fill="none" stroke="midnightblue" d="M635.61,-233.62C485.16,-233.79 94.05,-225.1 13.74,-132 -12.2,-101.93 27.91,-73.04 56.74,-56 68.09,-49.3 247.79,-24.82 321.03,-15.06"/>
<polygon fill="midnightblue" stroke="midnightblue" points="321.58,-18.51 331.03,-13.73 320.66,-11.58 321.58,-18.51"/>
</g>
<!-- Node7 -->
<g id="node7" class="node">
<title>Node7</title>
<g id="a_node7"><a xlink:title=" ">
<polygon fill="white" stroke="#bfbfbf" points="221.74,-0.5 221.74,-19.5 265.74,-19.5 265.74,-0.5 221.74,-0.5"/>
<text text-anchor="middle" x="243.74" y="-7.5" font-family="Helvetica,sans-Serif" font-size="10.00">vector</text>
</a>
</g>
</g>
<!-- Node1&#45;&gt;Node7 -->
<g id="edge47" class="edge">
<title>Node1&#45;&gt;Node7</title>
<path fill="none" stroke="midnightblue" d="M635.54,-233.51C499.5,-233.94 168.44,-230.42 66.74,-188 31.86,-173.45 18.36,-166.42 2.74,-132 -8.04,-108.25 18.06,-59.24 21.74,-56 49.55,-31.52 156.7,-18.7 211.32,-13.63"/>
<polygon fill="midnightblue" stroke="midnightblue" points="211.86,-17.1 221.51,-12.72 211.24,-10.13 211.86,-17.1"/>
</g>
<!-- Node10 -->
<g id="node10" class="node">
<title>Node10</title>
<g id="a_node10"><a xlink:href="Ioss__Utils_8h.html" target="_top" xlink:title=" ">
<polygon fill="white" stroke="black" points="471.24,-168.5 471.24,-187.5 540.24,-187.5 540.24,-168.5 471.24,-168.5"/>
<text text-anchor="middle" x="505.74" y="-175.5" font-family="Helvetica,sans-Serif" font-size="10.00">Ioss_Utils.h</text>
</a>
</g>
</g>
<!-- Node1&#45;&gt;Node10 -->
<g id="edge9" class="edge">
<title>Node1&#45;&gt;Node10</title>
<path fill="none" stroke="midnightblue" d="M664.79,-224.44C632.58,-215.24 581.21,-200.56 545.6,-190.39"/>
<polygon fill="midnightblue" stroke="midnightblue" points="546.12,-186.9 535.55,-187.52 544.2,-193.63 546.12,-186.9"/>
</g>
<!-- Node21 -->
<g id="node21" class="node">
<title>Node21</title>
<g id="a_node21"><a xlink:title=" ">
<polygon fill="white" stroke="#bfbfbf" points="841.24,-112.5 841.24,-131.5 890.24,-131.5 890.24,-112.5 841.24,-112.5"/>
<text text-anchor="middle" x="865.74" y="-119.5" font-family="Helvetica,sans-Serif" font-size="10.00">cassert</text>
</a>
</g>
</g>
<!-- Node1&#45;&gt;Node21 -->
<g id="edge44" class="edge">
<title>Node1&#45;&gt;Node21</title>
<path fill="none" stroke="midnightblue" d="M708.16,-224.37C737.5,-205.49 807.62,-160.38 843.61,-137.24"/>
<polygon fill="midnightblue" stroke="midnightblue" points="845.87,-139.95 852.38,-131.59 842.08,-134.06 845.87,-139.95"/>
</g>
<!-- Node3 -->
<g id="node3" class="node">
<title>Node3</title>
<g id="a_node3"><a xlink:title=" ">
<polygon fill="white" stroke="#bfbfbf" points="660.74,-0.5 660.74,-19.5 698.74,-19.5 698.74,-0.5 660.74,-0.5"/>
<text text-anchor="middle" x="679.74" y="-7.5" font-family="Helvetica,sans-Serif" font-size="10.00">array</text>
</a>
</g>
</g>
<!-- Node2&#45;&gt;Node3 -->
<g id="edge2" class="edge">
<title>Node2&#45;&gt;Node3</title>
<path fill="none" stroke="midnightblue" d="M631.06,-56.32C639.63,-48.34 652.55,-36.31 662.93,-26.65"/>
<polygon fill="midnightblue" stroke="midnightblue" points="665.32,-29.21 670.25,-19.83 660.55,-24.09 665.32,-29.21"/>
</g>
<!-- Node2&#45;&gt;Node4 -->
<g id="edge3" class="edge">
<title>Node2&#45;&gt;Node4</title>
<path fill="none" stroke="midnightblue" d="M640.75,-56.44C660.33,-47.64 691.05,-33.81 713.47,-23.72"/>
<polygon fill="midnightblue" stroke="midnightblue" points="715.13,-26.81 722.81,-19.52 712.26,-20.43 715.13,-26.81"/>
</g>
<!-- Node5 -->
<g id="node5" class="node">
<title>Node5</title>
<g id="a_node5"><a xlink:title=" ">
<polygon fill="white" stroke="#bfbfbf" points="390.74,-0.5 390.74,-19.5 436.74,-19.5 436.74,-0.5 390.74,-0.5"/>
<text text-anchor="middle" x="413.74" y="-7.5" font-family="Helvetica,sans-Serif" font-size="10.00">cstdint</text>
</a>
</g>
</g>
<!-- Node2&#45;&gt;Node5 -->
<g id="edge4" class="edge">
<title>Node2&#45;&gt;Node5</title>
<path fill="none" stroke="midnightblue" d="M587.28,-56.45C553.76,-48.07 501.17,-34.78 446.63,-20.19"/>
<polygon fill="midnightblue" stroke="midnightblue" points="447.36,-16.77 436.79,-17.55 445.55,-23.53 447.36,-16.77"/>
</g>
<!-- Node2&#45;&gt;Node6 -->
<g id="edge5" class="edge">
<title>Node2&#45;&gt;Node6</title>
<path fill="none" stroke="midnightblue" d="M572.69,-57.37C526.15,-49.78 454.07,-37.12 382.42,-19.94"/>
<polygon fill="midnightblue" stroke="midnightblue" points="382.86,-16.45 372.32,-17.49 381.21,-23.25 382.86,-16.45"/>
</g>
<!-- Node2&#45;&gt;Node7 -->
<g id="edge6" class="edge">
<title>Node2&#45;&gt;Node7</title>
<path fill="none" stroke="midnightblue" d="M572.71,-58C494.18,-46.78 342.31,-25.08 276.01,-15.61"/>
<polygon fill="midnightblue" stroke="midnightblue" points="276.16,-12.1 265.76,-14.15 275.17,-19.03 276.16,-12.1"/>
</g>
<!-- Node8 -->
<g id="node8" class="node">
<title>Node8</title>
<g id="a_node8"><a xlink:title=" ">
<polygon fill="white" stroke="#bfbfbf" points="454.74,-0.5 454.74,-19.5 570.74,-19.5 570.74,-0.5 454.74,-0.5"/>
<text text-anchor="middle" x="512.74" y="-7.5" font-family="Helvetica,sans-Serif" font-size="10.00">SEACASIoss_config.h</text>
</a>
</g>
</g>
<!-- Node2&#45;&gt;Node8 -->
<g id="edge7" class="edge">
<title>Node2&#45;&gt;Node8</title>
<path fill="none" stroke="midnightblue" d="M604.23,-56.32C586.67,-47.62 559.41,-34.12 539.21,-24.11"/>
<polygon fill="midnightblue" stroke="midnightblue" points="540.72,-20.96 530.21,-19.65 537.62,-27.23 540.72,-20.96"/>
</g>
<!-- Node9 -->
<g id="node9" class="node">
<title>Node9</title>
<g id="a_node9"><a xlink:title=" ">
<polygon fill="white" stroke="#bfbfbf" points="589.24,-0.5 589.24,-19.5 642.24,-19.5 642.24,-0.5 589.24,-0.5"/>
<text text-anchor="middle" x="615.74" y="-7.5" font-family="Helvetica,sans-Serif" font-size="10.00">complex</text>
</a>
</g>
</g>
<!-- Node2&#45;&gt;Node9 -->
<g id="edge8" class="edge">
<title>Node2&#45;&gt;Node9</title>
<path fill="none" stroke="midnightblue" d="M620.75,-56.08C619.95,-48.93 618.81,-38.64 617.82,-29.69"/>
<polygon fill="midnightblue" stroke="midnightblue" points="621.3,-29.3 616.71,-19.75 614.34,-30.08 621.3,-29.3"/>
</g>
<!-- Node10&#45;&gt;Node2 -->
<g id="edge10" class="edge">
<title>Node10&#45;&gt;Node2</title>
<path fill="none" stroke="midnightblue" d="M540.28,-175.15C569.99,-171.52 611.2,-161.15 631.74,-132 641.37,-118.33 636.71,-99.03 630.96,-85.01"/>
<polygon fill="midnightblue" stroke="midnightblue" points="634.12,-83.52 626.76,-75.9 627.76,-86.44 634.12,-83.52"/>
</g>
<!-- Node10&#45;&gt;Node4 -->
<g id="edge37" class="edge">
<title>Node10&#45;&gt;Node4</title>
<path fill="none" stroke="midnightblue" d="M540.54,-176C602.47,-173.4 727.84,-164.19 754.74,-132 779.15,-102.79 762.76,-54.76 750.91,-28.87"/>
<polygon fill="midnightblue" stroke="midnightblue" points="753.9,-27.01 746.39,-19.54 747.6,-30.06 753.9,-27.01"/>
</g>
<!-- Node10&#45;&gt;Node5 -->
<g id="edge38" class="edge">
<title>Node10&#45;&gt;Node5</title>
<path fill="none" stroke="midnightblue" d="M506.55,-168.34C508.1,-146.92 509.21,-90.67 482.74,-56 472.45,-42.51 456.88,-31.86 443.13,-24.32"/>
<polygon fill="midnightblue" stroke="midnightblue" points="444.48,-21.08 433.99,-19.59 441.27,-27.29 444.48,-21.08"/>
</g>
<!-- Node10&#45;&gt;Node6 -->
<g id="edge42" class="edge">
<title>Node10&#45;&gt;Node6</title>
<path fill="none" stroke="midnightblue" d="M501.69,-168.46C495.32,-155.49 482.08,-130.39 466.74,-112 437.78,-77.29 396.53,-44.11 372.11,-25.76"/>
<polygon fill="midnightblue" stroke="midnightblue" points="374.05,-22.84 363.93,-19.69 369.88,-28.46 374.05,-22.84"/>
</g>
<!-- Node10&#45;&gt;Node7 -->
<g id="edge43" class="edge">
<title>Node10&#45;&gt;Node7</title>
<path fill="none" stroke="midnightblue" d="M470.99,-176.47C363.93,-174.46 44.49,-165.7 13.74,-132 -9.6,-106.43 23.05,-74.32 48.74,-56 97.92,-20.93 170.24,-12.74 211.59,-11.09"/>
<polygon fill="midnightblue" stroke="midnightblue" points="211.75,-14.59 221.65,-10.8 211.55,-7.59 211.75,-14.59"/>
</g>
<!-- Node11 -->
<g id="node11" class="node">
<title>Node11</title>
<g id="a_node11"><a xlink:href="Ioss__ElementTopology_8h.html" target="_top" xlink:title=" ">
<polygon fill="white" stroke="black" points="22.74,-112.5 22.74,-131.5 144.74,-131.5 144.74,-112.5 22.74,-112.5"/>
<text text-anchor="middle" x="83.74" y="-119.5" font-family="Helvetica,sans-Serif" font-size="10.00">Ioss_ElementTopology.h</text>
</a>
</g>
</g>
<!-- Node10&#45;&gt;Node11 -->
<g id="edge11" class="edge">
<title>Node10&#45;&gt;Node11</title>
<path fill="none" stroke="midnightblue" d="M470.77,-172.54C409.23,-164.68 277.32,-147.84 155.11,-132.17"/>
<polygon fill="midnightblue" stroke="midnightblue" points="155.19,-128.66 144.82,-130.86 154.3,-135.6 155.19,-128.66"/>
</g>
<!-- Node13 -->
<g id="node13" class="node">
<title>Node13</title>
<g id="a_node13"><a xlink:href="Ioss__Field_8h.html" target="_top" xlink:title=" ">
<polygon fill="white" stroke="black" points="552.74,-112.5 552.74,-131.5 622.74,-131.5 622.74,-112.5 552.74,-112.5"/>
<text text-anchor="middle" x="587.74" y="-119.5" font-family="Helvetica,sans-Serif" font-size="10.00">Ioss_Field.h</text>
</a>
</g>
</g>
<!-- Node10&#45;&gt;Node13 -->
<g id="edge16" class="edge">
<title>Node10&#45;&gt;Node13</title>
<path fill="none" stroke="midnightblue" d="M518.91,-168.32C531.59,-159.98 550.97,-147.21 565.95,-137.35"/>
<polygon fill="midnightblue" stroke="midnightblue" points="568.17,-140.08 574.6,-131.65 564.32,-134.23 568.17,-140.08"/>
</g>
<!-- Node14 -->
<g id="node14" class="node">
<title>Node14</title>
<g id="a_node14"><a xlink:href="Ioss__Property_8h.html" target="_top" xlink:title=" ">
<polygon fill="white" stroke="black" points="309.74,-56.5 309.74,-75.5 393.74,-75.5 393.74,-56.5 309.74,-56.5"/>
<text text-anchor="middle" x="351.74" y="-63.5" font-family="Helvetica,sans-Serif" font-size="10.00">Ioss_Property.h</text>
</a>
</g>
</g>
<!-- Node10&#45;&gt;Node14 -->
<g id="edge21" class="edge">
<title>Node10&#45;&gt;Node14</title>
<path fill="none" stroke="midnightblue" d="M471.22,-173.77C422.27,-168.4 336.5,-155.78 317.74,-132 305.63,-116.65 320.28,-96.32 333.95,-82.52"/>
<polygon fill="midnightblue" stroke="midnightblue" points="336.41,-85.01 341.26,-75.59 331.59,-79.93 336.41,-85.01"/>
</g>
<!-- Node15 -->
<g id="node15" class="node">
<title>Node15</title>
<g id="a_node15"><a xlink:href="Ioss__Sort_8h.html" target="_top" xlink:title=" ">
<polygon fill="white" stroke="black" points="679.24,-112.5 679.24,-131.5 746.24,-131.5 746.24,-112.5 679.24,-112.5"/>
<text text-anchor="middle" x="712.74" y="-119.5" font-family="Helvetica,sans-Serif" font-size="10.00">Ioss_Sort.h</text>
</a>
</g>
</g>
<!-- Node10&#45;&gt;Node15 -->
<g id="edge25" class="edge">
<title>Node10&#45;&gt;Node15</title>
<path fill="none" stroke="midnightblue" d="M538.54,-168.44C574.12,-159.16 631.05,-144.31 670.09,-134.13"/>
<polygon fill="midnightblue" stroke="midnightblue" points="671.3,-137.43 680.09,-131.52 669.53,-130.65 671.3,-137.43"/>
</g>
<!-- Node17 -->
<g id="node17" class="node">
<title>Node17</title>
<g id="a_node17"><a xlink:title=" ">
<polygon fill="white" stroke="#bfbfbf" points="984.74,-0.5 984.74,-19.5 1040.74,-19.5 1040.74,-0.5 984.74,-0.5"/>
<text text-anchor="middle" x="1012.74" y="-7.5" font-family="Helvetica,sans-Serif" font-size="10.00">algorithm</text>
</a>
</g>
</g>
<!-- Node10&#45;&gt;Node17 -->
<g id="edge34" class="edge">
<title>Node10&#45;&gt;Node17</title>
<path fill="none" stroke="midnightblue" d="M540.25,-173.71C591.96,-168.22 692.3,-155.43 774.74,-132 806.38,-123.01 882.57,-91.19 911.74,-76 941.09,-60.72 972.87,-39.41 992.78,-25.41"/>
<polygon fill="midnightblue" stroke="midnightblue" points="994.92,-28.19 1001.04,-19.54 990.86,-22.48 994.92,-28.19"/>
</g>
<!-- Node10&#45;&gt;Node21 -->
<g id="edge35" class="edge">
<title>Node10&#45;&gt;Node21</title>
<path fill="none" stroke="midnightblue" d="M540.58,-173.13C599.68,-166.34 723.27,-151.15 826.74,-132 828.19,-131.73 829.67,-131.45 831.16,-131.15"/>
<polygon fill="midnightblue" stroke="midnightblue" points="832,-134.55 841.05,-129.04 830.54,-127.7 832,-134.55"/>
</g>
<!-- Node22 -->
<g id="node22" class="node">
<title>Node22</title>
<g id="a_node22"><a xlink:title=" ">
<polygon fill="white" stroke="#bfbfbf" points="162.74,-112.5 162.74,-131.5 206.74,-131.5 206.74,-112.5 162.74,-112.5"/>
<text text-anchor="middle" x="184.74" y="-119.5" font-family="Helvetica,sans-Serif" font-size="10.00">cmath</text>
</a>
</g>
</g>
<!-- Node10&#45;&gt;Node22 -->
<g id="edge36" class="edge">
<title>Node10&#45;&gt;Node22</title>
<path fill="none" stroke="midnightblue" d="M471.1,-173.09C418.25,-166.8 314.22,-153.19 216.99,-132.04"/>
<polygon fill="midnightblue" stroke="midnightblue" points="217.52,-128.57 207,-129.83 216.01,-135.41 217.52,-128.57"/>
</g>
<!-- Node23 -->
<g id="node23" class="node">
<title>Node23</title>
<g id="a_node23"><a xlink:title=" ">
<polygon fill="white" stroke="#bfbfbf" points="225.24,-112.5 225.24,-131.5 270.24,-131.5 270.24,-112.5 225.24,-112.5"/>
<text text-anchor="middle" x="247.74" y="-119.5" font-family="Helvetica,sans-Serif" font-size="10.00">cstdlib</text>
</a>
</g>
</g>
<!-- Node10&#45;&gt;Node23 -->
<g id="edge39" class="edge">
<title>Node10&#45;&gt;Node23</title>
<path fill="none" stroke="midnightblue" d="M471.2,-170.39C427.64,-161.95 350.47,-146.68 284.74,-132 283.29,-131.68 281.81,-131.34 280.31,-130.99"/>
<polygon fill="midnightblue" stroke="midnightblue" points="280.94,-127.55 270.41,-128.66 279.33,-134.36 280.94,-127.55"/>
</g>
<!-- Node24 -->
<g id="node24" class="node">
<title>Node24</title>
<g id="a_node24"><a xlink:title=" ">
<polygon fill="white" stroke="#bfbfbf" points="326.74,-112.5 326.74,-131.5 380.74,-131.5 380.74,-112.5 326.74,-112.5"/>
<text text-anchor="middle" x="353.74" y="-119.5" font-family="Helvetica,sans-Serif" font-size="10.00">iostream</text>
</a>
</g>
</g>
<!-- Node10&#45;&gt;Node24 -->
<g id="edge40" class="edge">
<title>Node10&#45;&gt;Node24</title>
<path fill="none" stroke="midnightblue" d="M481.66,-168.44C456.2,-159.4 415.85,-145.06 387.28,-134.92"/>
<polygon fill="midnightblue" stroke="midnightblue" points="388.31,-131.57 377.71,-131.52 385.96,-138.16 388.31,-131.57"/>
</g>
<!-- Node25 -->
<g id="node25" class="node">
<title>Node25</title>
<g id="a_node25"><a xlink:title=" ">
<polygon fill="white" stroke="#bfbfbf" points="399.24,-112.5 399.24,-131.5 458.24,-131.5 458.24,-112.5 399.24,-112.5"/>
<text text-anchor="middle" x="428.74" y="-119.5" font-family="Helvetica,sans-Serif" font-size="10.00">stdexcept</text>
</a>
</g>
</g>
<!-- Node10&#45;&gt;Node25 -->
<g id="edge41" class="edge">
<title>Node10&#45;&gt;Node25</title>
<path fill="none" stroke="midnightblue" d="M493.37,-168.32C481.58,-160.06 463.61,-147.45 449.6,-137.63"/>
<polygon fill="midnightblue" stroke="midnightblue" points="451.28,-134.53 441.08,-131.65 447.26,-140.26 451.28,-134.53"/>
</g>
<!-- Node11&#45;&gt;Node2 -->
<g id="edge12" class="edge">
<title>Node11&#45;&gt;Node2</title>
<path fill="none" stroke="midnightblue" d="M144.81,-113.03C147.83,-112.67 150.82,-112.33 153.74,-112 300.43,-95.52 473.41,-79.87 562.34,-72.1"/>
<polygon fill="midnightblue" stroke="midnightblue" points="562.84,-75.57 572.5,-71.21 562.23,-68.59 562.84,-75.57"/>
</g>
<!-- Node11&#45;&gt;Node6 -->
<g id="edge14" class="edge">
<title>Node11&#45;&gt;Node6</title>
<path fill="none" stroke="midnightblue" d="M104.77,-112.37C152.05,-92.96 266.87,-45.83 321.67,-23.34"/>
<polygon fill="midnightblue" stroke="midnightblue" points="323.25,-26.48 331.18,-19.44 320.6,-20 323.25,-26.48"/>
</g>
<!-- Node11&#45;&gt;Node7 -->
<g id="edge15" class="edge">
<title>Node11&#45;&gt;Node7</title>
<path fill="none" stroke="midnightblue" d="M74.83,-112.23C62.43,-98.95 42.98,-73.47 56.74,-56 75.66,-31.99 163.15,-19.31 211.46,-14.03"/>
<polygon fill="midnightblue" stroke="midnightblue" points="211.84,-17.51 221.42,-12.99 211.11,-10.55 211.84,-17.51"/>
</g>
<!-- Node12 -->
<g id="node12" class="node">
<title>Node12</title>
<g id="a_node12"><a xlink:title=" ">
<polygon fill="white" stroke="#bfbfbf" points="66.24,-56.5 66.24,-75.5 101.24,-75.5 101.24,-56.5 66.24,-56.5"/>
<text text-anchor="middle" x="83.74" y="-63.5" font-family="Helvetica,sans-Serif" font-size="10.00">map</text>
</a>
</g>
</g>
<!-- Node11&#45;&gt;Node12 -->
<g id="edge13" class="edge">
<title>Node11&#45;&gt;Node12</title>
<path fill="none" stroke="midnightblue" d="M83.74,-112.08C83.74,-105.01 83.74,-94.86 83.74,-85.99"/>
<polygon fill="midnightblue" stroke="midnightblue" points="87.24,-85.75 83.74,-75.75 80.24,-85.75 87.24,-85.75"/>
</g>
<!-- Node13&#45;&gt;Node2 -->
<g id="edge17" class="edge">
<title>Node13&#45;&gt;Node2</title>
<path fill="none" stroke="midnightblue" d="M593.35,-112.08C598.11,-104.53 605.06,-93.49 610.89,-84.23"/>
<polygon fill="midnightblue" stroke="midnightblue" points="613.86,-86.08 616.23,-75.75 607.94,-82.35 613.86,-86.08"/>
</g>
<!-- Node13&#45;&gt;Node4 -->
<g id="edge18" class="edge">
<title>Node13&#45;&gt;Node4</title>
<path fill="none" stroke="midnightblue" d="M610.93,-112.35C630.33,-104.5 658.22,-91.76 679.74,-76 698.91,-61.96 717.23,-41.61 728.91,-27.43"/>
<polygon fill="midnightblue" stroke="midnightblue" points="731.74,-29.5 735.28,-19.51 726.29,-25.11 731.74,-29.5"/>
</g>
<!-- Node13&#45;&gt;Node6 -->
<g id="edge19" class="edge">
<title>Node13&#45;&gt;Node6</title>
<path fill="none" stroke="midnightblue" d="M575.95,-112.48C557.03,-99.08 518.39,-72.9 482.74,-56 464.62,-47.41 414.53,-30.92 381.8,-20.46"/>
<polygon fill="midnightblue" stroke="midnightblue" points="382.84,-17.12 372.25,-17.43 380.72,-23.79 382.84,-17.12"/>
</g>
<!-- Node13&#45;&gt;Node7 -->
<g id="edge20" class="edge">
<title>Node13&#45;&gt;Node7</title>
<path fill="none" stroke="midnightblue" d="M552.52,-118.09C473.98,-111.3 289.66,-93.67 267.74,-76 253.86,-64.81 248.01,-44.79 245.54,-29.91"/>
<polygon fill="midnightblue" stroke="midnightblue" points="248.98,-29.24 244.23,-19.77 242.04,-30.14 248.98,-29.24"/>
</g>
<!-- Node14&#45;&gt;Node5 -->
<g id="edge22" class="edge">
<title>Node14&#45;&gt;Node5</title>
<path fill="none" stroke="midnightblue" d="M361.7,-56.32C370.87,-48.34 384.68,-36.31 395.77,-26.65"/>
<polygon fill="midnightblue" stroke="midnightblue" points="398.36,-29.04 403.6,-19.83 393.76,-23.76 398.36,-29.04"/>
</g>
<!-- Node14&#45;&gt;Node6 -->
<g id="edge23" class="edge">
<title>Node14&#45;&gt;Node6</title>
<path fill="none" stroke="midnightblue" d="M351.74,-56.08C351.74,-49.01 351.74,-38.86 351.74,-29.99"/>
<polygon fill="midnightblue" stroke="midnightblue" points="355.24,-29.75 351.74,-19.75 348.24,-29.75 355.24,-29.75"/>
</g>
<!-- Node14&#45;&gt;Node7 -->
<g id="edge24" class="edge">
<title>Node14&#45;&gt;Node7</title>
<path fill="none" stroke="midnightblue" d="M334.39,-56.32C317.07,-47.66 290.22,-34.24 270.24,-24.25"/>
<polygon fill="midnightblue" stroke="midnightblue" points="271.56,-21 261.05,-19.65 268.43,-27.26 271.56,-21"/>
</g>
<!-- Node15&#45;&gt;Node4 -->
<g id="edge32" class="edge">
<title>Node15&#45;&gt;Node4</title>
<path fill="none" stroke="midnightblue" d="M715.02,-112.37C719.72,-94.54 730.59,-53.3 736.92,-29.27"/>
<polygon fill="midnightblue" stroke="midnightblue" points="740.31,-30.15 739.47,-19.59 733.54,-28.37 740.31,-30.15"/>
</g>
<!-- Node15&#45;&gt;Node7 -->
<g id="edge33" class="edge">
<title>Node15&#45;&gt;Node7</title>
<path fill="none" stroke="midnightblue" d="M678.85,-117.22C664.34,-115.6 647.21,-113.7 631.74,-112 558.19,-103.91 366.38,-110.14 300.74,-76 280.01,-65.22 263.41,-43.51 253.59,-28.15"/>
<polygon fill="midnightblue" stroke="midnightblue" points="256.55,-26.29 248.37,-19.57 250.57,-29.93 256.55,-26.29"/>
</g>
<!-- Node16 -->
<g id="node16" class="node">
<title>Node16</title>
<g id="a_node16"><a xlink:href="pdqsort_8h.html" target="_top" xlink:title=" ">
<polygon fill="white" stroke="black" points="846.24,-56.5 846.24,-75.5 903.24,-75.5 903.24,-56.5 846.24,-56.5"/>
<text text-anchor="middle" x="874.74" y="-63.5" font-family="Helvetica,sans-Serif" font-size="10.00">pdqsort.h</text>
</a>
</g>
</g>
<!-- Node15&#45;&gt;Node16 -->
<g id="edge26" class="edge">
<title>Node15&#45;&gt;Node16</title>
<path fill="none" stroke="midnightblue" d="M738.41,-112.44C765.66,-103.36 808.92,-88.94 839.39,-78.78"/>
<polygon fill="midnightblue" stroke="midnightblue" points="840.81,-82 849.19,-75.52 838.6,-75.36 840.81,-82"/>
</g>
<!-- Node16&#45;&gt;Node4 -->
<g id="edge28" class="edge">
<title>Node16&#45;&gt;Node4</title>
<path fill="none" stroke="midnightblue" d="M853.67,-56.44C831.68,-47.52 797.01,-33.44 772.08,-23.32"/>
<polygon fill="midnightblue" stroke="midnightblue" points="773.3,-20.04 762.72,-19.52 770.66,-26.52 773.3,-20.04"/>
</g>
<!-- Node16&#45;&gt;Node17 -->
<g id="edge27" class="edge">
<title>Node16&#45;&gt;Node17</title>
<path fill="none" stroke="midnightblue" d="M896.61,-56.44C919.52,-47.48 955.72,-33.31 981.61,-23.18"/>
<polygon fill="midnightblue" stroke="midnightblue" points="982.94,-26.42 990.98,-19.52 980.39,-19.9 982.94,-26.42"/>
</g>
<!-- Node18 -->
<g id="node18" class="node">
<title>Node18</title>
<g id="a_node18"><a xlink:title=" ">
<polygon fill="white" stroke="#bfbfbf" points="784.24,-0.5 784.24,-19.5 843.24,-19.5 843.24,-0.5 784.24,-0.5"/>
<text text-anchor="middle" x="813.74" y="-7.5" font-family="Helvetica,sans-Serif" font-size="10.00">functional</text>
</a>
</g>
</g>
<!-- Node16&#45;&gt;Node18 -->
<g id="edge29" class="edge">
<title>Node16&#45;&gt;Node18</title>
<path fill="none" stroke="midnightblue" d="M864.94,-56.32C855.92,-48.34 842.33,-36.31 831.42,-26.65"/>
<polygon fill="midnightblue" stroke="midnightblue" points="833.53,-23.84 823.72,-19.83 828.89,-29.08 833.53,-23.84"/>
</g>
<!-- Node19 -->
<g id="node19" class="node">
<title>Node19</title>
<g id="a_node19"><a xlink:title=" ">
<polygon fill="white" stroke="#bfbfbf" points="861.24,-0.5 861.24,-19.5 908.24,-19.5 908.24,-0.5 861.24,-0.5"/>
<text text-anchor="middle" x="884.74" y="-7.5" font-family="Helvetica,sans-Serif" font-size="10.00">iterator</text>
</a>
</g>
</g>
<!-- Node16&#45;&gt;Node19 -->
<g id="edge30" class="edge">
<title>Node16&#45;&gt;Node19</title>
<path fill="none" stroke="midnightblue" d="M876.39,-56.08C877.72,-48.93 879.62,-38.64 881.28,-29.69"/>
<polygon fill="midnightblue" stroke="midnightblue" points="884.74,-30.22 883.12,-19.75 877.86,-28.95 884.74,-30.22"/>
</g>
<!-- Node20 -->
<g id="node20" class="node">
<title>Node20</title>
<g id="a_node20"><a xlink:title=" ">
<polygon fill="white" stroke="#bfbfbf" points="926.74,-0.5 926.74,-19.5 966.74,-19.5 966.74,-0.5 926.74,-0.5"/>
<text text-anchor="middle" x="946.74" y="-7.5" font-family="Helvetica,sans-Serif" font-size="10.00">utility</text>
</a>
</g>
</g>
<!-- Node16&#45;&gt;Node20 -->
<g id="edge31" class="edge">
<title>Node16&#45;&gt;Node20</title>
<path fill="none" stroke="midnightblue" d="M886.31,-56.32C897.16,-48.18 913.62,-35.84 926.62,-26.09"/>
<polygon fill="midnightblue" stroke="midnightblue" points="929.06,-28.63 934.96,-19.83 924.86,-23.03 929.06,-28.63"/>
</g>
</g>
</svg>
