<?xml version="1.0" encoding="UTF-8" standalone="no"?>
<!DOCTYPE svg PUBLIC "-//W3C//DTD SVG 1.1//EN"
 "http://www.w3.org/Graphics/SVG/1.1/DTD/svg11.dtd">
<!-- Generated by graphviz version 8.1.0 (20230707.0739)
 -->
<!-- Title: src/elements/Ioss_Super.C Pages: 1 -->
<svg width="1769pt" height="414pt"
 viewBox="0.00 0.00 1769.00 414.00" xmlns="http://www.w3.org/2000/svg" xmlns:xlink="http://www.w3.org/1999/xlink">
<g id="graph0" class="graph" transform="scale(1 1) rotate(0) translate(4 410)">
<title>src/elements/Ioss_Super.C</title>
<!-- Node1 -->
<g id="Node000001" class="node">
<title>Node1</title>
<g id="a_Node000001"><a xlink:title=" ">
<polygon fill="#999999" stroke="#666666" points="1642.25,-406 1507.75,-406 1507.75,-386.75 1642.25,-386.75 1642.25,-406"/>
<text text-anchor="middle" x="1575" y="-392.5" font-family="Helvetica,sans-Serif" font-size="10.00">src/elements/Ioss_Super.C</text>
</a>
</g>
</g>
<!-- Node2 -->
<g id="Node000002" class="node">
<title>Node2</title>
<g id="a_Node000002"><a xlink:href="Ioss__CodeTypes_8h.html" target="_top" xlink:title=" ">
<polygon fill="white" stroke="#666666" points="1189.88,-74.5 1092.12,-74.5 1092.12,-55.25 1189.88,-55.25 1189.88,-74.5"/>
<text text-anchor="middle" x="1141" y="-61" font-family="Helvetica,sans-Serif" font-size="10.00">Ioss_CodeTypes.h</text>
</a>
</g>
</g>
<!-- Node1&#45;&gt;Node2 -->
<g id="edge1_Node000001_Node000002" class="edge">
<title>Node1&#45;&gt;Node2</title>
<g id="a_edge1_Node000001_Node000002"><a xlink:title=" ">
<path fill="none" stroke="#63b8ff" d="M1577.38,-386.67C1580.42,-374.35 1584.95,-351.14 1582,-331.5 1574.04,-278.55 1571.3,-259.42 1534,-221 1463.11,-147.99 1420.73,-161.37 1324,-129.75 1272.33,-112.86 1212.99,-91.85 1176.25,-78.64"/>
<polygon fill="#63b8ff" stroke="#63b8ff" points="1177.65,-75.07 1167.05,-74.97 1175.28,-81.66 1177.65,-75.07"/>
</a>
</g>
</g>
<!-- Node4 -->
<g id="Node000004" class="node">
<title>Node4</title>
<g id="a_Node000004"><a xlink:title=" ">
<polygon fill="#e0e0e0" stroke="#999999" points="213.12,-19.25 164.88,-19.25 164.88,0 213.12,0 213.12,-19.25"/>
<text text-anchor="middle" x="189" y="-5.75" font-family="Helvetica,sans-Serif" font-size="10.00">cstddef</text>
</a>
</g>
</g>
<!-- Node1&#45;&gt;Node4 -->
<g id="edge77_Node000001_Node000004" class="edge">
<title>Node1&#45;&gt;Node4</title>
<g id="a_edge77_Node000001_Node000004"><a xlink:title=" ">
<path fill="none" stroke="#63b8ff" d="M1507.32,-394.31C1205.86,-389.13 0,-363.62 0,-286.88 0,-286.88 0,-286.88 0,-119.12 0,-48.86 99.46,-23.44 154.08,-14.78"/>
<polygon fill="#63b8ff" stroke="#63b8ff" points="154.29,-18.14 163.68,-13.22 153.28,-11.21 154.29,-18.14"/>
</a>
</g>
</g>
<!-- Node6 -->
<g id="Node000006" class="node">
<title>Node6</title>
<g id="a_Node000006"><a xlink:title=" ">
<polygon fill="#e0e0e0" stroke="#999999" points="1581,-19.25 1541,-19.25 1541,0 1581,0 1581,-19.25"/>
<text text-anchor="middle" x="1561" y="-5.75" font-family="Helvetica,sans-Serif" font-size="10.00">string</text>
</a>
</g>
</g>
<!-- Node1&#45;&gt;Node6 -->
<g id="edge79_Node000001_Node000006" class="edge">
<title>Node1&#45;&gt;Node6</title>
<g id="a_edge79_Node000001_Node000006"><a xlink:title=" ">
<path fill="none" stroke="#63b8ff" d="M1633.85,-386.28C1688.34,-374.12 1761,-346.69 1761,-286.88 1761,-286.88 1761,-286.88 1761,-119.12 1761,-43.18 1648.2,-20.11 1592.03,-13.33"/>
<polygon fill="#63b8ff" stroke="#63b8ff" points="1592.6,-9.76 1582.28,-12.15 1591.84,-16.72 1592.6,-9.76"/>
</a>
</g>
</g>
<!-- Node10 -->
<g id="Node000010" class="node">
<title>Node10</title>
<g id="a_Node000010"><a xlink:href="Ioss__ElementTopology_8h.html" target="_top" xlink:title=" ">
<polygon fill="white" stroke="#666666" points="1370.88,-185 1249.12,-185 1249.12,-165.75 1370.88,-165.75 1370.88,-185"/>
<text text-anchor="middle" x="1310" y="-171.5" font-family="Helvetica,sans-Serif" font-size="10.00">Ioss_ElementTopology.h</text>
</a>
</g>
</g>
<!-- Node1&#45;&gt;Node10 -->
<g id="edge9_Node000001_Node000010" class="edge">
<title>Node1&#45;&gt;Node10</title>
<g id="a_edge9_Node000001_Node000010"><a xlink:title=" ">
<path fill="none" stroke="#63b8ff" d="M1564.28,-386.52C1524,-353.23 1381.3,-235.3 1329.21,-192.25"/>
<polygon fill="#63b8ff" stroke="#63b8ff" points="1331.79,-189.01 1321.85,-185.34 1327.33,-194.41 1331.79,-189.01"/>
</a>
</g>
</g>
<!-- Node17 -->
<g id="Node000017" class="node">
<title>Node17</title>
<g id="a_Node000017"><a xlink:href="Ioss__ElementVariableType_8h.html" target="_top" xlink:title=" ">
<polygon fill="white" stroke="#666666" points="1290.88,-350.75 1151.12,-350.75 1151.12,-331.5 1290.88,-331.5 1290.88,-350.75"/>
<text text-anchor="middle" x="1221" y="-337.25" font-family="Helvetica,sans-Serif" font-size="10.00">Ioss_ElementVariableType.h</text>
</a>
</g>
</g>
<!-- Node1&#45;&gt;Node17 -->
<g id="edge24_Node000001_Node000017" class="edge">
<title>Node1&#45;&gt;Node17</title>
<g id="a_edge24_Node000001_Node000017"><a xlink:title=" ">
<path fill="none" stroke="#63b8ff" d="M1514.55,-386.28C1452.91,-377.01 1357.33,-362.63 1292.1,-352.82"/>
<polygon fill="#63b8ff" stroke="#63b8ff" points="1292.91,-349.25 1282.5,-351.23 1291.87,-356.17 1292.91,-349.25"/>
</a>
</g>
</g>
<!-- Node31 -->
<g id="Node000031" class="node">
<title>Node31</title>
<g id="a_Node000031"><a xlink:title=" ">
<polygon fill="#e0e0e0" stroke="#999999" points="1433.25,-185 1388.75,-185 1388.75,-165.75 1433.25,-165.75 1433.25,-185"/>
<text text-anchor="middle" x="1411" y="-171.5" font-family="Helvetica,sans-Serif" font-size="10.00">cstdlib</text>
</a>
</g>
</g>
<!-- Node1&#45;&gt;Node31 -->
<g id="edge78_Node000001_Node000031" class="edge">
<title>Node1&#45;&gt;Node31</title>
<g id="a_edge78_Node000001_Node000031"><a xlink:title=" ">
<path fill="none" stroke="#63b8ff" d="M1574.29,-386.51C1571.59,-358.54 1559.65,-271.07 1513,-221 1494.66,-201.31 1466.1,-189.84 1443.86,-183.47"/>
<polygon fill="#63b8ff" stroke="#63b8ff" points="1445.09,-179.91 1434.52,-180.74 1443.3,-186.68 1445.09,-179.91"/>
</a>
</g>
</g>
<!-- Node35 -->
<g id="Node000035" class="node">
<title>Node35</title>
<g id="a_Node000035"><a xlink:href="Ioss__Super_8h.html" target="_top" xlink:title=" ">
<polygon fill="white" stroke="#666666" points="1600.5,-185 1527.5,-185 1527.5,-165.75 1600.5,-165.75 1600.5,-185"/>
<text text-anchor="middle" x="1564" y="-171.5" font-family="Helvetica,sans-Serif" font-size="10.00">Ioss_Super.h</text>
</a>
</g>
</g>
<!-- Node1&#45;&gt;Node35 -->
<g id="edge71_Node000001_Node000035" class="edge">
<title>Node1&#45;&gt;Node35</title>
<g id="a_edge71_Node000001_Node000035"><a xlink:title=" ">
<path fill="none" stroke="#63b8ff" d="M1591.79,-386.32C1604.07,-378.66 1619.8,-366.42 1627,-350.75 1651.08,-298.35 1653.49,-272.22 1627,-221 1620.25,-207.94 1607.72,-197.88 1595.6,-190.65"/>
<polygon fill="#63b8ff" stroke="#63b8ff" points="1597.54,-187.17 1587.09,-185.45 1594.18,-193.32 1597.54,-187.17"/>
</a>
</g>
</g>
<!-- Node3 -->
<g id="Node000003" class="node">
<title>Node3</title>
<g id="a_Node000003"><a xlink:title=" ">
<polygon fill="#e0e0e0" stroke="#999999" points="1222.88,-19.25 1185.12,-19.25 1185.12,0 1222.88,0 1222.88,-19.25"/>
<text text-anchor="middle" x="1204" y="-5.75" font-family="Helvetica,sans-Serif" font-size="10.00">array</text>
</a>
</g>
</g>
<!-- Node2&#45;&gt;Node3 -->
<g id="edge2_Node000002_Node000003" class="edge">
<title>Node2&#45;&gt;Node3</title>
<g id="a_edge2_Node000002_Node000003"><a xlink:title=" ">
<path fill="none" stroke="#63b8ff" d="M1151.69,-54.84C1160.88,-47.07 1174.36,-35.67 1185.34,-26.4"/>
<polygon fill="#63b8ff" stroke="#63b8ff" points="1187.09,-28.65 1192.47,-19.52 1182.57,-23.31 1187.09,-28.65"/>
</a>
</g>
</g>
<!-- Node2&#45;&gt;Node4 -->
<g id="edge3_Node000002_Node000004" class="edge">
<title>Node2&#45;&gt;Node4</title>
<g id="a_edge3_Node000002_Node000004"><a xlink:title=" ">
<path fill="none" stroke="#63b8ff" d="M1091.82,-61.12C922.96,-51.68 369.26,-20.71 224.1,-12.59"/>
<polygon fill="#63b8ff" stroke="#63b8ff" points="224.4,-9.04 214.22,-11.98 224.01,-16.03 224.4,-9.04"/>
</a>
</g>
</g>
<!-- Node5 -->
<g id="Node000005" class="node">
<title>Node5</title>
<g id="a_Node000005"><a xlink:title=" ">
<polygon fill="#e0e0e0" stroke="#999999" points="560.62,-19.25 515.38,-19.25 515.38,0 560.62,0 560.62,-19.25"/>
<text text-anchor="middle" x="538" y="-5.75" font-family="Helvetica,sans-Serif" font-size="10.00">cstdint</text>
</a>
</g>
</g>
<!-- Node2&#45;&gt;Node5 -->
<g id="edge4_Node000002_Node000005" class="edge">
<title>Node2&#45;&gt;Node5</title>
<g id="a_edge4_Node000002_Node000005"><a xlink:title=" ">
<path fill="none" stroke="#63b8ff" d="M1091.65,-59.52C972.76,-49.02 672.8,-22.53 571.79,-13.61"/>
<polygon fill="#63b8ff" stroke="#63b8ff" points="572.29,-10.05 562.02,-12.66 571.68,-17.02 572.29,-10.05"/>
</a>
</g>
</g>
<!-- Node2&#45;&gt;Node6 -->
<g id="edge5_Node000002_Node000006" class="edge">
<title>Node2&#45;&gt;Node6</title>
<g id="a_edge5_Node000002_Node000006"><a xlink:title=" ">
<path fill="none" stroke="#63b8ff" d="M1190,-57.66C1277.5,-46.57 1458.2,-23.66 1530.31,-14.52"/>
<polygon fill="#63b8ff" stroke="#63b8ff" points="1530.44,-17.9 1539.92,-13.17 1529.56,-10.96 1530.44,-17.9"/>
</a>
</g>
</g>
<!-- Node7 -->
<g id="Node000007" class="node">
<title>Node7</title>
<g id="a_Node000007"><a xlink:title=" ">
<polygon fill="#e0e0e0" stroke="#999999" points="692.5,-19.25 649.5,-19.25 649.5,0 692.5,0 692.5,-19.25"/>
<text text-anchor="middle" x="671" y="-5.75" font-family="Helvetica,sans-Serif" font-size="10.00">vector</text>
</a>
</g>
</g>
<!-- Node2&#45;&gt;Node7 -->
<g id="edge6_Node000002_Node000007" class="edge">
<title>Node2&#45;&gt;Node7</title>
<g id="a_edge6_Node000002_Node000007"><a xlink:title=" ">
<path fill="none" stroke="#63b8ff" d="M1091.84,-57.01C1087.16,-56.4 1082.49,-55.8 1078,-55.25 938.66,-38.08 772.07,-20.84 703.21,-13.86"/>
<polygon fill="#63b8ff" stroke="#63b8ff" points="703.95,-10.32 693.64,-12.79 703.24,-17.28 703.95,-10.32"/>
</a>
</g>
</g>
<!-- Node8 -->
<g id="Node000008" class="node">
<title>Node8</title>
<g id="a_Node000008"><a xlink:title=" ">
<polygon fill="#e0e0e0" stroke="#999999" points="1096.88,-19.25 981.12,-19.25 981.12,0 1096.88,0 1096.88,-19.25"/>
<text text-anchor="middle" x="1039" y="-5.75" font-family="Helvetica,sans-Serif" font-size="10.00">SEACASIoss_config.h</text>
</a>
</g>
</g>
<!-- Node2&#45;&gt;Node8 -->
<g id="edge7_Node000002_Node000008" class="edge">
<title>Node2&#45;&gt;Node8</title>
<g id="a_edge7_Node000002_Node000008"><a xlink:title=" ">
<path fill="none" stroke="#63b8ff" d="M1123.7,-54.84C1107.87,-46.58 1084.21,-34.23 1065.92,-24.68"/>
<polygon fill="#63b8ff" stroke="#63b8ff" points="1067.87,-21.23 1057.39,-19.7 1064.63,-27.43 1067.87,-21.23"/>
</a>
</g>
</g>
<!-- Node9 -->
<g id="Node000009" class="node">
<title>Node9</title>
<g id="a_Node000009"><a xlink:title=" ">
<polygon fill="#e0e0e0" stroke="#999999" points="1167.38,-19.25 1114.62,-19.25 1114.62,0 1167.38,0 1167.38,-19.25"/>
<text text-anchor="middle" x="1141" y="-5.75" font-family="Helvetica,sans-Serif" font-size="10.00">complex</text>
</a>
</g>
</g>
<!-- Node2&#45;&gt;Node9 -->
<g id="edge8_Node000002_Node000009" class="edge">
<title>Node2&#45;&gt;Node9</title>
<g id="a_edge8_Node000002_Node000009"><a xlink:title=" ">
<path fill="none" stroke="#63b8ff" d="M1141,-55.08C1141,-48.42 1141,-38.99 1141,-30.53"/>
<polygon fill="#63b8ff" stroke="#63b8ff" points="1144.5,-30.61 1141,-20.61 1137.5,-30.61 1144.5,-30.61"/>
</a>
</g>
</g>
<!-- Node10&#45;&gt;Node2 -->
<g id="edge11_Node000010_Node000002" class="edge">
<title>Node10&#45;&gt;Node2</title>
<g id="a_edge11_Node000010_Node000002"><a xlink:title=" ">
<path fill="none" stroke="#63b8ff" d="M1261.94,-165.25C1223.76,-157.09 1174.46,-144.21 1160,-129.75 1148.24,-117.99 1143.7,-99.3 1141.97,-85.16"/>
<polygon fill="#63b8ff" stroke="#63b8ff" points="1145.41,-85.29 1141.09,-75.62 1138.44,-85.88 1145.41,-85.29"/>
</a>
</g>
</g>
<!-- Node10&#45;&gt;Node6 -->
<g id="edge22_Node000010_Node000006" class="edge">
<title>Node10&#45;&gt;Node6</title>
<g id="a_edge22_Node000010_Node000006"><a xlink:title=" ">
<path fill="none" stroke="#63b8ff" d="M1308.79,-165.38C1306.37,-143.23 1303.5,-85.61 1334,-55.25 1361.17,-28.2 1474.07,-16.68 1529.72,-12.57"/>
<polygon fill="#63b8ff" stroke="#63b8ff" points="1529.94,-15.99 1539.67,-11.8 1529.45,-9.01 1529.94,-15.99"/>
</a>
</g>
</g>
<!-- Node10&#45;&gt;Node7 -->
<g id="edge23_Node000010_Node000007" class="edge">
<title>Node10&#45;&gt;Node7</title>
<g id="a_edge23_Node000010_Node000007"><a xlink:title=" ">
<path fill="none" stroke="#63b8ff" d="M1276.17,-165.3C1242.8,-156.33 1190.36,-142.19 1145,-129.75 1025.77,-97.06 997.02,-84.9 877,-55.25 815.95,-40.17 744.04,-25.22 703.36,-17.03"/>
<polygon fill="#63b8ff" stroke="#63b8ff" points="704.24,-13.44 693.75,-14.91 702.86,-20.3 704.24,-13.44"/>
</a>
</g>
</g>
<!-- Node11 -->
<g id="Node000011" class="node">
<title>Node11</title>
<g id="a_Node000011"><a xlink:title=" ">
<polygon fill="#e0e0e0" stroke="#999999" points="868.25,-74.5 793.75,-74.5 793.75,-55.25 868.25,-55.25 868.25,-74.5"/>
<text text-anchor="middle" x="831" y="-61" font-family="Helvetica,sans-Serif" font-size="10.00">ioss_export.h</text>
</a>
</g>
</g>
<!-- Node10&#45;&gt;Node11 -->
<g id="edge10_Node000010_Node000011" class="edge">
<title>Node10&#45;&gt;Node11</title>
<g id="a_edge10_Node000010_Node000011"><a xlink:title=" ">
<path fill="none" stroke="#63b8ff" d="M1262.02,-165.31C1217.17,-156.69 1148.39,-143.09 1089,-129.75 1013.97,-112.9 927.3,-90.92 875.93,-77.63"/>
<polygon fill="#63b8ff" stroke="#63b8ff" points="877.08,-74.05 866.52,-74.93 875.32,-80.83 877.08,-74.05"/>
</a>
</g>
</g>
<!-- Node12 -->
<g id="Node000012" class="node">
<title>Node12</title>
<g id="a_Node000012"><a xlink:href="Ioss__ElementPermutation_8h.html" target="_top" xlink:title=" ">
<polygon fill="white" stroke="#666666" points="1581.38,-129.75 1444.62,-129.75 1444.62,-110.5 1581.38,-110.5 1581.38,-129.75"/>
<text text-anchor="middle" x="1513" y="-116.25" font-family="Helvetica,sans-Serif" font-size="10.00">Ioss_ElementPermutation.h</text>
</a>
</g>
</g>
<!-- Node10&#45;&gt;Node12 -->
<g id="edge12_Node000010_Node000012" class="edge">
<title>Node10&#45;&gt;Node12</title>
<g id="a_edge12_Node000010_Node000012"><a xlink:title=" ">
<path fill="none" stroke="#63b8ff" d="M1344.44,-165.34C1378.41,-156.43 1430.53,-142.76 1467.82,-132.98"/>
<polygon fill="#63b8ff" stroke="#63b8ff" points="1468.61,-136.13 1477.39,-130.2 1466.83,-129.35 1468.61,-136.13"/>
</a>
</g>
</g>
<!-- Node15 -->
<g id="Node000015" class="node">
<title>Node15</title>
<g id="a_Node000015"><a xlink:title=" ">
<polygon fill="#e0e0e0" stroke="#999999" points="1377.38,-74.5 1342.62,-74.5 1342.62,-55.25 1377.38,-55.25 1377.38,-74.5"/>
<text text-anchor="middle" x="1360" y="-61" font-family="Helvetica,sans-Serif" font-size="10.00">map</text>
</a>
</g>
</g>
<!-- Node10&#45;&gt;Node15 -->
<g id="edge20_Node000010_Node000015" class="edge">
<title>Node10&#45;&gt;Node15</title>
<g id="a_edge20_Node000010_Node000015"><a xlink:title=" ">
<path fill="none" stroke="#63b8ff" d="M1314.09,-165.5C1322.19,-147.93 1340.4,-108.41 1351.29,-84.77"/>
<polygon fill="#63b8ff" stroke="#63b8ff" points="1354.85,-86.42 1355.85,-75.88 1348.49,-83.49 1354.85,-86.42"/>
</a>
</g>
</g>
<!-- Node16 -->
<g id="Node000016" class="node">
<title>Node16</title>
<g id="a_Node000016"><a xlink:title=" ">
<polygon fill="#e0e0e0" stroke="#999999" points="1198.75,-129.75 1169.25,-129.75 1169.25,-110.5 1198.75,-110.5 1198.75,-129.75"/>
<text text-anchor="middle" x="1184" y="-116.25" font-family="Helvetica,sans-Serif" font-size="10.00">set</text>
</a>
</g>
</g>
<!-- Node10&#45;&gt;Node16 -->
<g id="edge21_Node000010_Node000016" class="edge">
<title>Node10&#45;&gt;Node16</title>
<g id="a_edge21_Node000010_Node000016"><a xlink:title=" ">
<path fill="none" stroke="#63b8ff" d="M1288.63,-165.34C1266.58,-156.03 1232.24,-141.51 1208.97,-131.68"/>
<polygon fill="#63b8ff" stroke="#63b8ff" points="1210.71,-128.19 1200.13,-127.52 1207.98,-134.64 1210.71,-128.19"/>
</a>
</g>
</g>
<!-- Node12&#45;&gt;Node2 -->
<g id="edge14_Node000012_Node000002" class="edge">
<title>Node12&#45;&gt;Node2</title>
<g id="a_edge14_Node000012_Node000002"><a xlink:title=" ">
<path fill="none" stroke="#63b8ff" d="M1449.47,-110.03C1379.84,-100.06 1268.99,-84.2 1200.85,-74.44"/>
<polygon fill="#63b8ff" stroke="#63b8ff" points="1201.69,-70.88 1191.29,-72.93 1200.7,-77.81 1201.69,-70.88"/>
</a>
</g>
</g>
<!-- Node12&#45;&gt;Node6 -->
<g id="edge18_Node000012_Node000006" class="edge">
<title>Node12&#45;&gt;Node6</title>
<g id="a_edge18_Node000012_Node000006"><a xlink:title=" ">
<path fill="none" stroke="#63b8ff" d="M1514.81,-110.16C1517.55,-97.52 1523.36,-73.95 1532,-55.25 1536.25,-46.05 1542.18,-36.54 1547.57,-28.68"/>
<polygon fill="#63b8ff" stroke="#63b8ff" points="1550.99,-30.92 1553.95,-20.74 1545.29,-26.85 1550.99,-30.92"/>
</a>
</g>
</g>
<!-- Node12&#45;&gt;Node7 -->
<g id="edge19_Node000012_Node000007" class="edge">
<title>Node12&#45;&gt;Node7</title>
<g id="a_edge19_Node000012_Node000007"><a xlink:title=" ">
<path fill="none" stroke="#63b8ff" d="M1494.92,-110.09C1476.93,-101.09 1448.54,-86.87 1424,-74.5 1407.09,-65.98 1404.27,-60.22 1386,-55.25 1319.67,-37.21 834.67,-17.05 703.58,-11.88"/>
<polygon fill="#63b8ff" stroke="#63b8ff" points="703.83,-8.35 693.7,-11.46 703.56,-15.34 703.83,-8.35"/>
</a>
</g>
</g>
<!-- Node12&#45;&gt;Node11 -->
<g id="edge13_Node000012_Node000011" class="edge">
<title>Node12&#45;&gt;Node11</title>
<g id="a_edge13_Node000012_Node000011"><a xlink:title=" ">
<path fill="none" stroke="#63b8ff" d="M1444.17,-113.75C1306.23,-102.98 998.98,-78.99 879.68,-69.68"/>
<polygon fill="#63b8ff" stroke="#63b8ff" points="879.97,-66.11 869.73,-68.82 879.43,-73.09 879.97,-66.11"/>
</a>
</g>
</g>
<!-- Node13 -->
<g id="Node000013" class="node">
<title>Node13</title>
<g id="a_Node000013"><a xlink:title=" ">
<polygon fill="#e0e0e0" stroke="#999999" points="1484.62,-74.5 1433.38,-74.5 1433.38,-55.25 1484.62,-55.25 1484.62,-74.5"/>
<text text-anchor="middle" x="1459" y="-61" font-family="Helvetica,sans-Serif" font-size="10.00">assert.h</text>
</a>
</g>
</g>
<!-- Node12&#45;&gt;Node13 -->
<g id="edge15_Node000012_Node000013" class="edge">
<title>Node12&#45;&gt;Node13</title>
<g id="a_edge15_Node000012_Node000013"><a xlink:title=" ">
<path fill="none" stroke="#63b8ff" d="M1504.08,-110.33C1496.39,-102.75 1485.07,-91.59 1475.7,-82.35"/>
<polygon fill="#63b8ff" stroke="#63b8ff" points="1478.69,-80.39 1469.11,-75.86 1473.77,-85.37 1478.69,-80.39"/>
</a>
</g>
</g>
<!-- Node14 -->
<g id="Node000014" class="node">
<title>Node14</title>
<g id="a_Node000014"><a xlink:title=" ">
<polygon fill="#e0e0e0" stroke="#999999" points="1580.62,-74.5 1541.38,-74.5 1541.38,-55.25 1580.62,-55.25 1580.62,-74.5"/>
<text text-anchor="middle" x="1561" y="-61" font-family="Helvetica,sans-Serif" font-size="10.00">limits</text>
</a>
</g>
</g>
<!-- Node12&#45;&gt;Node14 -->
<g id="edge16_Node000012_Node000014" class="edge">
<title>Node12&#45;&gt;Node14</title>
<g id="a_edge16_Node000012_Node000014"><a xlink:title=" ">
<path fill="none" stroke="#63b8ff" d="M1520.93,-110.33C1527.63,-102.9 1537.42,-92.04 1545.64,-82.91"/>
<polygon fill="#63b8ff" stroke="#63b8ff" points="1547.81,-85.63 1551.9,-75.86 1542.61,-80.94 1547.81,-85.63"/>
</a>
</g>
</g>
<!-- Node12&#45;&gt;Node15 -->
<g id="edge17_Node000012_Node000015" class="edge">
<title>Node12&#45;&gt;Node15</title>
<g id="a_edge17_Node000012_Node000015"><a xlink:title=" ">
<path fill="none" stroke="#63b8ff" d="M1487.05,-110.09C1459.5,-100.5 1416.12,-85.41 1387.87,-75.57"/>
<polygon fill="#63b8ff" stroke="#63b8ff" points="1389.08,-71.94 1378.49,-71.96 1386.78,-78.55 1389.08,-71.94"/>
</a>
</g>
</g>
<!-- Node17&#45;&gt;Node2 -->
<g id="edge26_Node000017_Node000002" class="edge">
<title>Node17&#45;&gt;Node2</title>
<g id="a_edge26_Node000017_Node000002"><a xlink:title=" ">
<path fill="none" stroke="#63b8ff" d="M1220.67,-331.17C1219.33,-304.37 1212.73,-223.09 1181,-165.75 1170.04,-145.95 1154.31,-150.37 1145,-129.75 1138.7,-115.79 1138.02,-98.35 1138.74,-85.22"/>
<polygon fill="#63b8ff" stroke="#63b8ff" points="1142.29,-85.87 1139.67,-75.6 1135.31,-85.26 1142.29,-85.87"/>
</a>
</g>
</g>
<!-- Node17&#45;&gt;Node6 -->
<g id="edge70_Node000017_Node000006" class="edge">
<title>Node17&#45;&gt;Node6</title>
<g id="a_edge70_Node000017_Node000006"><a xlink:title=" ">
<path fill="none" stroke="#63b8ff" d="M1271.18,-331.06C1379.96,-310.22 1631.33,-255.25 1676,-185 1707.61,-135.3 1692.59,-94.87 1649,-55.25 1632.36,-40.13 1609.66,-28.78 1591.48,-21.32"/>
<polygon fill="#63b8ff" stroke="#63b8ff" points="1592.96,-17.75 1582.37,-17.37 1590.41,-24.27 1592.96,-17.75"/>
</a>
</g>
</g>
<!-- Node17&#45;&gt;Node11 -->
<g id="edge25_Node000017_Node000011" class="edge">
<title>Node17&#45;&gt;Node11</title>
<g id="a_edge25_Node000017_Node000011"><a xlink:title=" ">
<path fill="none" stroke="#63b8ff" d="M1150.68,-336.85C1026.32,-329.39 775.76,-306.33 724,-240.25 703.58,-214.18 713.07,-197.01 724,-165.75 737.67,-126.65 777.3,-96.86 804.3,-80.36"/>
<polygon fill="#63b8ff" stroke="#63b8ff" points="805.75,-82.98 812.6,-74.9 802.21,-76.95 805.75,-82.98"/>
</a>
</g>
</g>
<!-- Node18 -->
<g id="Node000018" class="node">
<title>Node18</title>
<g id="a_Node000018"><a xlink:href="Ioss__VariableType_8h.html" target="_top" xlink:title=" ">
<polygon fill="white" stroke="#666666" points="1060.88,-295.5 957.12,-295.5 957.12,-276.25 1060.88,-276.25 1060.88,-295.5"/>
<text text-anchor="middle" x="1009" y="-282" font-family="Helvetica,sans-Serif" font-size="10.00">Ioss_VariableType.h</text>
</a>
</g>
</g>
<!-- Node17&#45;&gt;Node18 -->
<g id="edge27_Node000017_Node000018" class="edge">
<title>Node17&#45;&gt;Node18</title>
<g id="a_edge27_Node000017_Node000018"><a xlink:title=" ">
<path fill="none" stroke="#63b8ff" d="M1185.04,-331.09C1149.4,-322.14 1094.66,-308.39 1055.68,-298.6"/>
<polygon fill="#63b8ff" stroke="#63b8ff" points="1056.69,-294.99 1046.14,-295.95 1054.99,-301.78 1056.69,-294.99"/>
</a>
</g>
</g>
<!-- Node18&#45;&gt;Node2 -->
<g id="edge29_Node000018_Node000002" class="edge">
<title>Node18&#45;&gt;Node2</title>
<g id="a_edge29_Node000018_Node000002"><a xlink:title=" ">
<path fill="none" stroke="#63b8ff" d="M1037.81,-275.81C1074.54,-262.52 1136.45,-233.86 1163,-185 1195.69,-124.83 1093.32,-187.81 1051,-129.75 1034.42,-107.01 1066.5,-89.33 1096.86,-78.4"/>
<polygon fill="#63b8ff" stroke="#63b8ff" points="1097.67,-81.48 1106.01,-74.95 1095.42,-74.85 1097.67,-81.48"/>
</a>
</g>
</g>
<!-- Node18&#45;&gt;Node6 -->
<g id="edge68_Node000018_Node000006" class="edge">
<title>Node18&#45;&gt;Node6</title>
<g id="a_edge68_Node000018_Node000006"><a xlink:title=" ">
<path fill="none" stroke="#63b8ff" d="M1061.36,-285.28C1201.87,-285.14 1581.71,-276.17 1657,-185 1694.75,-139.28 1665.37,-99.58 1626,-55.25 1615.28,-43.18 1600.64,-32.76 1587.97,-25.03"/>
<polygon fill="#63b8ff" stroke="#63b8ff" points="1590.16,-21.68 1579.76,-19.66 1586.64,-27.72 1590.16,-21.68"/>
</a>
</g>
</g>
<!-- Node18&#45;&gt;Node7 -->
<g id="edge69_Node000018_Node000007" class="edge">
<title>Node18&#45;&gt;Node7</title>
<g id="a_edge69_Node000018_Node000007"><a xlink:title=" ">
<path fill="none" stroke="#63b8ff" d="M956.88,-279.88C899.24,-273.62 803.96,-261.11 724,-240.25 655.66,-222.42 630.99,-228.06 575,-185 528.64,-149.34 512.97,-97.89 553,-55.25 575.43,-31.36 611.95,-20.15 638.43,-14.96"/>
<polygon fill="#63b8ff" stroke="#63b8ff" points="638.85,-18.27 648.09,-13.09 637.64,-11.37 638.85,-18.27"/>
</a>
</g>
</g>
<!-- Node18&#45;&gt;Node11 -->
<g id="edge28_Node000018_Node000011" class="edge">
<title>Node18&#45;&gt;Node11</title>
<g id="a_edge28_Node000018_Node000011"><a xlink:title=" ">
<path fill="none" stroke="#63b8ff" d="M956.77,-283.47C887.02,-280.43 768.86,-270.78 740,-240.25 717.18,-216.11 721.51,-196.53 734,-165.75 735.07,-163.11 787.16,-110.21 814.55,-82.49"/>
<polygon fill="#63b8ff" stroke="#63b8ff" points="816.63,-85.36 821.17,-75.78 811.65,-80.43 816.63,-85.36"/>
</a>
</g>
</g>
<!-- Node18&#45;&gt;Node15 -->
<g id="edge67_Node000018_Node000015" class="edge">
<title>Node18&#45;&gt;Node15</title>
<g id="a_edge67_Node000018_Node000015"><a xlink:title=" ">
<path fill="none" stroke="#63b8ff" d="M1061.05,-280.77C1165.53,-271.35 1394.87,-244.24 1442,-185 1456.8,-166.4 1404.87,-110.17 1376.81,-82.13"/>
<polygon fill="#63b8ff" stroke="#63b8ff" points="1379.86,-80.24 1370.28,-75.71 1374.95,-85.23 1379.86,-80.24"/>
</a>
</g>
</g>
<!-- Node19 -->
<g id="Node000019" class="node">
<title>Node19</title>
<g id="a_Node000019"><a xlink:href="Ioss__Utils_8h.html" target="_top" xlink:title=" ">
<polygon fill="white" stroke="#666666" points="817.25,-240.25 748.75,-240.25 748.75,-221 817.25,-221 817.25,-240.25"/>
<text text-anchor="middle" x="783" y="-226.75" font-family="Helvetica,sans-Serif" font-size="10.00">Ioss_Utils.h</text>
</a>
</g>
</g>
<!-- Node18&#45;&gt;Node19 -->
<g id="edge30_Node000018_Node000019" class="edge">
<title>Node18&#45;&gt;Node19</title>
<g id="a_edge30_Node000018_Node000019"><a xlink:title=" ">
<path fill="none" stroke="#63b8ff" d="M970.41,-275.78C931.06,-266.51 870.04,-252.13 828.4,-242.32"/>
<polygon fill="#63b8ff" stroke="#63b8ff" points="829.26,-238.69 818.73,-239.81 827.66,-245.51 829.26,-238.69"/>
</a>
</g>
</g>
<!-- Node26 -->
<g id="Node000026" class="node">
<title>Node26</title>
<g id="a_Node000026"><a xlink:title=" ">
<polygon fill="#e0e0e0" stroke="#999999" points="162,-74.5 104,-74.5 104,-55.25 162,-55.25 162,-74.5"/>
<text text-anchor="middle" x="133" y="-61" font-family="Helvetica,sans-Serif" font-size="10.00">functional</text>
</a>
</g>
</g>
<!-- Node18&#45;&gt;Node26 -->
<g id="edge66_Node000018_Node000026" class="edge">
<title>Node18&#45;&gt;Node26</title>
<g id="a_edge66_Node000018_Node000026"><a xlink:title=" ">
<path fill="none" stroke="#63b8ff" d="M956.64,-283.84C860.48,-281.2 649.6,-271.97 475,-240.25 386.37,-224.15 359.96,-226.48 280,-185 226.56,-157.28 174.29,-108.19 148.91,-82.54"/>
<polygon fill="#63b8ff" stroke="#63b8ff" points="151.86,-80.52 142.37,-75.8 146.84,-85.41 151.86,-80.52"/>
</a>
</g>
</g>
<!-- Node34 -->
<g id="Node000034" class="node">
<title>Node34</title>
<g id="a_Node000034"><a xlink:title=" ">
<polygon fill="#e0e0e0" stroke="#999999" points="1031.62,-240.25 986.38,-240.25 986.38,-221 1031.62,-221 1031.62,-240.25"/>
<text text-anchor="middle" x="1009" y="-226.75" font-family="Helvetica,sans-Serif" font-size="10.00">cstring</text>
</a>
</g>
</g>
<!-- Node18&#45;&gt;Node34 -->
<g id="edge65_Node000018_Node000034" class="edge">
<title>Node18&#45;&gt;Node34</title>
<g id="a_edge65_Node000018_Node000034"><a xlink:title=" ">
<path fill="none" stroke="#63b8ff" d="M1009,-276.08C1009,-269.42 1009,-259.99 1009,-251.53"/>
<polygon fill="#63b8ff" stroke="#63b8ff" points="1012.5,-251.61 1009,-241.61 1005.5,-251.61 1012.5,-251.61"/>
</a>
</g>
</g>
<!-- Node19&#45;&gt;Node2 -->
<g id="edge32_Node000019_Node000002" class="edge">
<title>Node19&#45;&gt;Node2</title>
<g id="a_edge32_Node000019_Node000002"><a xlink:title=" ">
<path fill="none" stroke="#63b8ff" d="M778.08,-220.76C771.41,-207.41 761.64,-181.96 774,-165.75 811.11,-117.06 986.97,-86.51 1081.14,-73.36"/>
<polygon fill="#63b8ff" stroke="#63b8ff" points="1081.49,-76.71 1090.93,-71.88 1080.54,-69.78 1081.49,-76.71"/>
</a>
</g>
</g>
<!-- Node19&#45;&gt;Node4 -->
<g id="edge58_Node000019_Node000004" class="edge">
<title>Node19&#45;&gt;Node4</title>
<g id="a_edge58_Node000019_Node000004"><a xlink:title=" ">
<path fill="none" stroke="#63b8ff" d="M748.37,-229.66C666.09,-229.06 452.84,-223.58 280,-185 210.25,-169.43 186.5,-172.19 129,-129.75 98.42,-107.18 66.2,-87.06 87,-55.25 101.8,-32.63 130.87,-21.4 154.2,-15.88"/>
<polygon fill="#63b8ff" stroke="#63b8ff" points="154.71,-19.14 163.77,-13.66 153.27,-12.29 154.71,-19.14"/>
</a>
</g>
</g>
<!-- Node19&#45;&gt;Node5 -->
<g id="edge59_Node000019_Node000005" class="edge">
<title>Node19&#45;&gt;Node5</title>
<g id="a_edge59_Node000019_Node000005"><a xlink:title=" ">
<path fill="none" stroke="#63b8ff" d="M748.29,-229.28C654.15,-227.86 396,-220.74 320,-185 257.01,-155.37 235.71,-138.78 209,-74.5 205.72,-66.6 203.37,-61.69 209,-55.25 247.14,-11.58 428.51,-8.99 504.44,-9.88"/>
<polygon fill="#63b8ff" stroke="#63b8ff" points="504.22,-13.39 514.27,-10.04 504.32,-6.39 504.22,-13.39"/>
</a>
</g>
</g>
<!-- Node19&#45;&gt;Node6 -->
<g id="edge63_Node000019_Node000006" class="edge">
<title>Node19&#45;&gt;Node6</title>
<g id="a_edge63_Node000019_Node000006"><a xlink:title=" ">
<path fill="none" stroke="#63b8ff" d="M817.61,-228.12C975.46,-221.19 1619.91,-192.47 1627,-185 1646.78,-164.15 1694.17,-218.75 1607,-55.25 1601.11,-44.2 1591.51,-34.25 1582.61,-26.56"/>
<polygon fill="#63b8ff" stroke="#63b8ff" points="1585.07,-23.24 1575.09,-19.67 1580.66,-28.68 1585.07,-23.24"/>
</a>
</g>
</g>
<!-- Node19&#45;&gt;Node7 -->
<g id="edge64_Node000019_Node000007" class="edge">
<title>Node19&#45;&gt;Node7</title>
<g id="a_edge64_Node000019_Node000007"><a xlink:title=" ">
<path fill="none" stroke="#63b8ff" d="M748.49,-227.03C693.96,-220.82 589.62,-199.9 546,-129.75 517.07,-83.22 593.16,-42.41 639.06,-22.87"/>
<polygon fill="#63b8ff" stroke="#63b8ff" points="640.26,-25.75 648.17,-18.7 637.59,-19.28 640.26,-25.75"/>
</a>
</g>
</g>
<!-- Node19&#45;&gt;Node10 -->
<g id="edge33_Node000019_Node000010" class="edge">
<title>Node19&#45;&gt;Node10</title>
<g id="a_edge33_Node000019_Node000010"><a xlink:title=" ">
<path fill="none" stroke="#63b8ff" d="M817.58,-226.13C902.54,-217.55 1122.96,-195.27 1237.89,-183.66"/>
<polygon fill="#63b8ff" stroke="#63b8ff" points="1238.08,-187.06 1247.68,-182.57 1237.38,-180.09 1238.08,-187.06"/>
</a>
</g>
</g>
<!-- Node19&#45;&gt;Node11 -->
<g id="edge31_Node000019_Node000011" class="edge">
<title>Node19&#45;&gt;Node11</title>
<g id="a_edge31_Node000019_Node000011"><a xlink:title=" ">
<path fill="none" stroke="#63b8ff" d="M769.78,-220.71C753.44,-208.52 729.14,-185.87 741,-165.75 757.77,-137.3 784.25,-154.6 806,-129.75 817.04,-117.14 823.5,-99.08 827.08,-85.38"/>
<polygon fill="#63b8ff" stroke="#63b8ff" points="830.7,-86.24 829.52,-75.71 823.87,-84.68 830.7,-86.24"/>
</a>
</g>
</g>
<!-- Node20 -->
<g id="Node000020" class="node">
<title>Node20</title>
<g id="a_Node000020"><a xlink:href="Ioss__EntityType_8h.html" target="_top" xlink:title=" ">
<polygon fill="white" stroke="#666666" points="1026.38,-185 931.62,-185 931.62,-165.75 1026.38,-165.75 1026.38,-185"/>
<text text-anchor="middle" x="979" y="-171.5" font-family="Helvetica,sans-Serif" font-size="10.00">Ioss_EntityType.h</text>
</a>
</g>
</g>
<!-- Node19&#45;&gt;Node20 -->
<g id="edge34_Node000019_Node000020" class="edge">
<title>Node19&#45;&gt;Node20</title>
<g id="a_edge34_Node000019_Node000020"><a xlink:title=" ">
<path fill="none" stroke="#63b8ff" d="M816.25,-220.59C849.05,-211.68 899.38,-198.01 935.38,-188.23"/>
<polygon fill="#63b8ff" stroke="#63b8ff" points="935.86,-191.45 944.59,-185.45 934.02,-184.7 935.86,-191.45"/>
</a>
</g>
</g>
<!-- Node21 -->
<g id="Node000021" class="node">
<title>Node21</title>
<g id="a_Node000021"><a xlink:href="Ioss__Field_8h.html" target="_top" xlink:title=" ">
<polygon fill="white" stroke="#666666" points="725.62,-129.75 656.38,-129.75 656.38,-110.5 725.62,-110.5 725.62,-129.75"/>
<text text-anchor="middle" x="691" y="-116.25" font-family="Helvetica,sans-Serif" font-size="10.00">Ioss_Field.h</text>
</a>
</g>
</g>
<!-- Node19&#45;&gt;Node21 -->
<g id="edge35_Node000019_Node000021" class="edge">
<title>Node19&#45;&gt;Node21</title>
<g id="a_edge35_Node000019_Node000021"><a xlink:title=" ">
<path fill="none" stroke="#63b8ff" d="M753.9,-220.51C736.47,-213.54 715.36,-202.17 703,-185 693.72,-172.11 691.02,-154.08 690.47,-140.46"/>
<polygon fill="#63b8ff" stroke="#63b8ff" points="693.96,-140.86 690.42,-130.87 686.96,-140.89 693.96,-140.86"/>
</a>
</g>
</g>
<!-- Node22 -->
<g id="Node000022" class="node">
<title>Node22</title>
<g id="a_Node000022"><a xlink:href="Ioss__Property_8h.html" target="_top" xlink:title=" ">
<polygon fill="white" stroke="#666666" points="638.75,-129.75 555.25,-129.75 555.25,-110.5 638.75,-110.5 638.75,-129.75"/>
<text text-anchor="middle" x="597" y="-116.25" font-family="Helvetica,sans-Serif" font-size="10.00">Ioss_Property.h</text>
</a>
</g>
</g>
<!-- Node19&#45;&gt;Node22 -->
<g id="edge41_Node000019_Node000022" class="edge">
<title>Node19&#45;&gt;Node22</title>
<g id="a_edge41_Node000019_Node000022"><a xlink:title=" ">
<path fill="none" stroke="#63b8ff" d="M762.09,-220.53C743.15,-212.05 714.67,-198.68 691,-185 664.96,-169.95 636.61,-150.17 617.92,-136.64"/>
<polygon fill="#63b8ff" stroke="#63b8ff" points="620.24,-133.26 610.1,-130.19 616.11,-138.91 620.24,-133.26"/>
</a>
</g>
</g>
<!-- Node23 -->
<g id="Node000023" class="node">
<title>Node23</title>
<g id="a_Node000023"><a xlink:href="Ioss__Sort_8h.html" target="_top" xlink:title=" ">
<polygon fill="white" stroke="#666666" points="427.12,-185 360.88,-185 360.88,-165.75 427.12,-165.75 427.12,-185"/>
<text text-anchor="middle" x="394" y="-171.5" font-family="Helvetica,sans-Serif" font-size="10.00">Ioss_Sort.h</text>
</a>
</g>
</g>
<!-- Node19&#45;&gt;Node23 -->
<g id="edge46_Node000019_Node000023" class="edge">
<title>Node19&#45;&gt;Node23</title>
<g id="a_edge46_Node000019_Node000023"><a xlink:title=" ">
<path fill="none" stroke="#63b8ff" d="M748.48,-224.9C677.71,-215.21 516.28,-193.11 438.08,-182.41"/>
<polygon fill="#63b8ff" stroke="#63b8ff" points="438.99,-178.86 428.61,-180.98 438.04,-185.8 438.99,-178.86"/>
</a>
</g>
</g>
<!-- Node25 -->
<g id="Node000025" class="node">
<title>Node25</title>
<g id="a_Node000025"><a xlink:title=" ">
<polygon fill="#e0e0e0" stroke="#999999" points="273.88,-74.5 218.12,-74.5 218.12,-55.25 273.88,-55.25 273.88,-74.5"/>
<text text-anchor="middle" x="246" y="-61" font-family="Helvetica,sans-Serif" font-size="10.00">algorithm</text>
</a>
</g>
</g>
<!-- Node19&#45;&gt;Node25 -->
<g id="edge55_Node000019_Node000025" class="edge">
<title>Node19&#45;&gt;Node25</title>
<g id="a_edge55_Node000019_Node000025"><a xlink:title=" ">
<path fill="none" stroke="#63b8ff" d="M748.52,-228.8C659.3,-226.25 422.85,-216.6 352,-185 305.59,-164.3 271.24,-112.04 255.51,-84.12"/>
<polygon fill="#63b8ff" stroke="#63b8ff" points="258.26,-82.85 250.41,-75.73 252.11,-86.19 258.26,-82.85"/>
</a>
</g>
</g>
<!-- Node29 -->
<g id="Node000029" class="node">
<title>Node29</title>
<g id="a_Node000029"><a xlink:title=" ">
<polygon fill="#e0e0e0" stroke="#999999" points="1093.12,-185 1044.88,-185 1044.88,-165.75 1093.12,-165.75 1093.12,-185"/>
<text text-anchor="middle" x="1069" y="-171.5" font-family="Helvetica,sans-Serif" font-size="10.00">cassert</text>
</a>
</g>
</g>
<!-- Node19&#45;&gt;Node29 -->
<g id="edge56_Node000019_Node000029" class="edge">
<title>Node19&#45;&gt;Node29</title>
<g id="a_edge56_Node000019_Node000029"><a xlink:title=" ">
<path fill="none" stroke="#63b8ff" d="M817.39,-224.35C864.06,-217.02 950.24,-202.85 1033.83,-185.11"/>
<polygon fill="#63b8ff" stroke="#63b8ff" points="1034.49,-188.33 1043.54,-182.81 1033.02,-181.48 1034.49,-188.33"/>
</a>
</g>
</g>
<!-- Node30 -->
<g id="Node000030" class="node">
<title>Node30</title>
<g id="a_Node000030"><a xlink:title=" ">
<polygon fill="#e0e0e0" stroke="#999999" points="1154.5,-185 1111.5,-185 1111.5,-165.75 1154.5,-165.75 1154.5,-185"/>
<text text-anchor="middle" x="1133" y="-171.5" font-family="Helvetica,sans-Serif" font-size="10.00">cmath</text>
</a>
</g>
</g>
<!-- Node19&#45;&gt;Node30 -->
<g id="edge57_Node000019_Node000030" class="edge">
<title>Node19&#45;&gt;Node30</title>
<g id="a_edge57_Node000019_Node000030"><a xlink:title=" ">
<path fill="none" stroke="#63b8ff" d="M817.72,-226.29C874.76,-220.48 991.99,-207.17 1100.59,-185.03"/>
<polygon fill="#63b8ff" stroke="#63b8ff" points="1100.99,-188.32 1110.07,-182.86 1099.57,-181.46 1100.99,-188.32"/>
</a>
</g>
</g>
<!-- Node19&#45;&gt;Node31 -->
<g id="edge60_Node000019_Node000031" class="edge">
<title>Node19&#45;&gt;Node31</title>
<g id="a_edge60_Node000019_Node000031"><a xlink:title=" ">
<path fill="none" stroke="#63b8ff" d="M817.47,-227.94C924.56,-222.58 1251.34,-205.15 1377.89,-184.98"/>
<polygon fill="#63b8ff" stroke="#63b8ff" points="1378.15,-188.32 1387.43,-183.21 1376.99,-181.41 1378.15,-188.32"/>
</a>
</g>
</g>
<!-- Node32 -->
<g id="Node000032" class="node">
<title>Node32</title>
<g id="a_Node000032"><a xlink:title=" ">
<polygon fill="#e0e0e0" stroke="#999999" points="836.75,-185 783.25,-185 783.25,-165.75 836.75,-165.75 836.75,-185"/>
<text text-anchor="middle" x="810" y="-171.5" font-family="Helvetica,sans-Serif" font-size="10.00">iostream</text>
</a>
</g>
</g>
<!-- Node19&#45;&gt;Node32 -->
<g id="edge61_Node000019_Node000032" class="edge">
<title>Node19&#45;&gt;Node32</title>
<g id="a_edge61_Node000019_Node000032"><a xlink:title=" ">
<path fill="none" stroke="#63b8ff" d="M787.46,-220.83C790.99,-213.86 796.06,-203.87 800.49,-195.12"/>
<polygon fill="#63b8ff" stroke="#63b8ff" points="804.04,-196.86 805.44,-186.36 797.8,-193.7 804.04,-196.86"/>
</a>
</g>
</g>
<!-- Node33 -->
<g id="Node000033" class="node">
<title>Node33</title>
<g id="a_Node000033"><a xlink:title=" ">
<polygon fill="#e0e0e0" stroke="#999999" points="913.38,-185 854.62,-185 854.62,-165.75 913.38,-165.75 913.38,-185"/>
<text text-anchor="middle" x="884" y="-171.5" font-family="Helvetica,sans-Serif" font-size="10.00">stdexcept</text>
</a>
</g>
</g>
<!-- Node19&#45;&gt;Node33 -->
<g id="edge62_Node000019_Node000033" class="edge">
<title>Node19&#45;&gt;Node33</title>
<g id="a_edge62_Node000019_Node000033"><a xlink:title=" ">
<path fill="none" stroke="#63b8ff" d="M800.13,-220.59C815.73,-212.37 839.02,-200.09 857.1,-190.56"/>
<polygon fill="#63b8ff" stroke="#63b8ff" points="858.57,-193.21 865.78,-185.45 855.3,-187.02 858.57,-193.21"/>
</a>
</g>
</g>
<!-- Node21&#45;&gt;Node2 -->
<g id="edge37_Node000021_Node000002" class="edge">
<title>Node21&#45;&gt;Node2</title>
<g id="a_edge37_Node000021_Node000002"><a xlink:title=" ">
<path fill="none" stroke="#63b8ff" d="M725.94,-114.99C802.41,-105.94 985.41,-84.29 1080.82,-73"/>
<polygon fill="#63b8ff" stroke="#63b8ff" points="1081.21,-76.36 1090.73,-71.71 1080.39,-69.4 1081.21,-76.36"/>
</a>
</g>
</g>
<!-- Node21&#45;&gt;Node4 -->
<g id="edge38_Node000021_Node000004" class="edge">
<title>Node21&#45;&gt;Node4</title>
<g id="a_edge38_Node000021_Node000004"><a xlink:title=" ">
<path fill="none" stroke="#63b8ff" d="M659.09,-110.05C612.05,-96.87 521.22,-72.17 443,-55.25 365.25,-38.44 273.09,-23.47 223.96,-15.88"/>
<polygon fill="#63b8ff" stroke="#63b8ff" points="224.7,-12.3 214.29,-14.24 223.64,-19.22 224.7,-12.3"/>
</a>
</g>
</g>
<!-- Node21&#45;&gt;Node6 -->
<g id="edge39_Node000021_Node000006" class="edge">
<title>Node21&#45;&gt;Node6</title>
<g id="a_edge39_Node000021_Node000006"><a xlink:title=" ">
<path fill="none" stroke="#63b8ff" d="M700.45,-110.05C716.37,-95.42 750.25,-67.04 785,-55.25 856.32,-31.05 1393.37,-15.12 1529.64,-11.44"/>
<polygon fill="#63b8ff" stroke="#63b8ff" points="1529.61,-14.92 1539.51,-11.15 1529.42,-7.92 1529.61,-14.92"/>
</a>
</g>
</g>
<!-- Node21&#45;&gt;Node7 -->
<g id="edge40_Node000021_Node000007" class="edge">
<title>Node21&#45;&gt;Node7</title>
<g id="a_edge40_Node000021_Node000007"><a xlink:title=" ">
<path fill="none" stroke="#63b8ff" d="M689.36,-110.25C686.15,-92.84 678.97,-53.87 674.6,-30.16"/>
<polygon fill="#63b8ff" stroke="#63b8ff" points="677.91,-29.83 672.66,-20.63 671.03,-31.1 677.91,-29.83"/>
</a>
</g>
</g>
<!-- Node21&#45;&gt;Node11 -->
<g id="edge36_Node000021_Node000011" class="edge">
<title>Node21&#45;&gt;Node11</title>
<g id="a_edge36_Node000021_Node000011"><a xlink:title=" ">
<path fill="none" stroke="#63b8ff" d="M714.75,-110.09C737.38,-101.49 771.67,-88.44 797.16,-78.75"/>
<polygon fill="#63b8ff" stroke="#63b8ff" points="798.03,-81.78 806.13,-74.95 795.54,-75.24 798.03,-81.78"/>
</a>
</g>
</g>
<!-- Node22&#45;&gt;Node5 -->
<g id="edge43_Node000022_Node000005" class="edge">
<title>Node22&#45;&gt;Node5</title>
<g id="a_edge43_Node000022_Node000005"><a xlink:title=" ">
<path fill="none" stroke="#63b8ff" d="M592.17,-110.25C582.58,-92.6 560.93,-52.8 548.1,-29.2"/>
<polygon fill="#63b8ff" stroke="#63b8ff" points="550.75,-27.74 542.89,-20.63 544.6,-31.08 550.75,-27.74"/>
</a>
</g>
</g>
<!-- Node22&#45;&gt;Node6 -->
<g id="edge44_Node000022_Node000006" class="edge">
<title>Node22&#45;&gt;Node6</title>
<g id="a_edge44_Node000022_Node000006"><a xlink:title=" ">
<path fill="none" stroke="#63b8ff" d="M612.78,-110.08C639.16,-95.49 694.33,-67.17 745,-55.25 822.41,-37.04 1390.08,-16.5 1529.93,-11.68"/>
<polygon fill="#63b8ff" stroke="#63b8ff" points="1529.82,-15.15 1539.69,-11.31 1529.58,-8.15 1529.82,-15.15"/>
</a>
</g>
</g>
<!-- Node22&#45;&gt;Node7 -->
<g id="edge45_Node000022_Node000007" class="edge">
<title>Node22&#45;&gt;Node7</title>
<g id="a_edge45_Node000022_Node000007"><a xlink:title=" ">
<path fill="none" stroke="#63b8ff" d="M603.06,-110.25C615.2,-92.44 642.72,-52.08 658.77,-28.56"/>
<polygon fill="#63b8ff" stroke="#63b8ff" points="662.12,-30.86 664.86,-20.63 656.33,-26.92 662.12,-30.86"/>
</a>
</g>
</g>
<!-- Node22&#45;&gt;Node11 -->
<g id="edge42_Node000022_Node000011" class="edge">
<title>Node22&#45;&gt;Node11</title>
<g id="a_edge42_Node000022_Node000011"><a xlink:title=" ">
<path fill="none" stroke="#63b8ff" d="M636.96,-110.03C677.39,-100.83 739.92,-86.6 783.01,-76.79"/>
<polygon fill="#63b8ff" stroke="#63b8ff" points="783.55,-80.03 792.53,-74.4 782,-73.21 783.55,-80.03"/>
</a>
</g>
</g>
<!-- Node23&#45;&gt;Node4 -->
<g id="edge53_Node000023_Node000004" class="edge">
<title>Node23&#45;&gt;Node4</title>
<g id="a_edge53_Node000023_Node000004"><a xlink:title=" ">
<path fill="none" stroke="#63b8ff" d="M360.8,-174.8C296.77,-173.59 157.05,-160.65 95,-74.5 76.03,-48.17 120.24,-29.3 154.28,-19.18"/>
<polygon fill="#63b8ff" stroke="#63b8ff" points="154.76,-22.4 163.43,-16.32 152.86,-15.66 154.76,-22.4"/>
</a>
</g>
</g>
<!-- Node23&#45;&gt;Node7 -->
<g id="edge54_Node000023_Node000007" class="edge">
<title>Node23&#45;&gt;Node7</title>
<g id="a_edge54_Node000023_Node000007"><a xlink:title=" ">
<path fill="none" stroke="#63b8ff" d="M398.15,-165.54C409.09,-143.25 441.04,-84.38 486,-55.25 533.19,-24.67 599.41,-15.03 638.49,-12"/>
<polygon fill="#63b8ff" stroke="#63b8ff" points="638.48,-15.44 648.23,-11.28 638.01,-8.46 638.48,-15.44"/>
</a>
</g>
</g>
<!-- Node24 -->
<g id="Node000024" class="node">
<title>Node24</title>
<g id="a_Node000024"><a xlink:href="pdqsort_8h.html" target="_top" xlink:title=" ">
<polygon fill="white" stroke="#666666" points="356.25,-129.75 299.75,-129.75 299.75,-110.5 356.25,-110.5 356.25,-129.75"/>
<text text-anchor="middle" x="328" y="-116.25" font-family="Helvetica,sans-Serif" font-size="10.00">pdqsort.h</text>
</a>
</g>
</g>
<!-- Node23&#45;&gt;Node24 -->
<g id="edge47_Node000023_Node000024" class="edge">
<title>Node23&#45;&gt;Node24</title>
<g id="a_edge47_Node000023_Node000024"><a xlink:title=" ">
<path fill="none" stroke="#63b8ff" d="M382.8,-165.34C373.17,-157.57 359.05,-146.17 347.55,-136.9"/>
<polygon fill="#63b8ff" stroke="#63b8ff" points="350.01,-133.58 340.03,-130.02 345.62,-139.03 350.01,-133.58"/>
</a>
</g>
</g>
<!-- Node24&#45;&gt;Node4 -->
<g id="edge49_Node000024_Node000004" class="edge">
<title>Node24&#45;&gt;Node4</title>
<g id="a_edge49_Node000024_Node000004"><a xlink:title=" ">
<path fill="none" stroke="#63b8ff" d="M323.63,-110.19C316.66,-96.73 301.88,-71.16 283,-55.25 265.52,-40.52 242.34,-29.45 223.38,-22.02"/>
<polygon fill="#63b8ff" stroke="#63b8ff" points="224.94,-18.49 214.34,-18.26 222.48,-25.04 224.94,-18.49"/>
</a>
</g>
</g>
<!-- Node24&#45;&gt;Node25 -->
<g id="edge48_Node000024_Node000025" class="edge">
<title>Node24&#45;&gt;Node25</title>
<g id="a_edge48_Node000024_Node000025"><a xlink:title=" ">
<path fill="none" stroke="#63b8ff" d="M314.09,-110.09C301.72,-102.06 283.4,-90.16 268.87,-80.73"/>
<polygon fill="#63b8ff" stroke="#63b8ff" points="271.27,-77.46 260.98,-74.95 267.46,-83.33 271.27,-77.46"/>
</a>
</g>
</g>
<!-- Node24&#45;&gt;Node26 -->
<g id="edge50_Node000024_Node000026" class="edge">
<title>Node24&#45;&gt;Node26</title>
<g id="a_edge50_Node000024_Node000026"><a xlink:title=" ">
<path fill="none" stroke="#63b8ff" d="M299.65,-111.38C266.28,-102.27 210.67,-87.09 172.95,-76.79"/>
<polygon fill="#63b8ff" stroke="#63b8ff" points="173.91,-73.15 163.35,-73.89 172.07,-79.9 173.91,-73.15"/>
</a>
</g>
</g>
<!-- Node27 -->
<g id="Node000027" class="node">
<title>Node27</title>
<g id="a_Node000027"><a xlink:title=" ">
<polygon fill="#e0e0e0" stroke="#999999" points="376,-74.5 330,-74.5 330,-55.25 376,-55.25 376,-74.5"/>
<text text-anchor="middle" x="353" y="-61" font-family="Helvetica,sans-Serif" font-size="10.00">iterator</text>
</a>
</g>
</g>
<!-- Node24&#45;&gt;Node27 -->
<g id="edge51_Node000024_Node000027" class="edge">
<title>Node24&#45;&gt;Node27</title>
<g id="a_edge51_Node000024_Node000027"><a xlink:title=" ">
<path fill="none" stroke="#63b8ff" d="M332.13,-110.33C335.4,-103.36 340.09,-93.37 344.2,-84.62"/>
<polygon fill="#63b8ff" stroke="#63b8ff" points="347.7,-86.4 348.78,-75.86 341.36,-83.42 347.7,-86.4"/>
</a>
</g>
</g>
<!-- Node28 -->
<g id="Node000028" class="node">
<title>Node28</title>
<g id="a_Node000028"><a xlink:title=" ">
<polygon fill="#e0e0e0" stroke="#999999" points="433.62,-74.5 394.38,-74.5 394.38,-55.25 433.62,-55.25 433.62,-74.5"/>
<text text-anchor="middle" x="414" y="-61" font-family="Helvetica,sans-Serif" font-size="10.00">utility</text>
</a>
</g>
</g>
<!-- Node24&#45;&gt;Node28 -->
<g id="edge52_Node000024_Node000028" class="edge">
<title>Node24&#45;&gt;Node28</title>
<g id="a_edge52_Node000024_Node000028"><a xlink:title=" ">
<path fill="none" stroke="#63b8ff" d="M342.59,-110.09C355.56,-102.06 374.78,-90.16 390.01,-80.73"/>
<polygon fill="#63b8ff" stroke="#63b8ff" points="391.68,-83.19 398.34,-74.95 388,-77.24 391.68,-83.19"/>
</a>
</g>
</g>
<!-- Node35&#45;&gt;Node2 -->
<g id="edge74_Node000035_Node000002" class="edge">
<title>Node35&#45;&gt;Node2</title>
<g id="a_edge74_Node000035_Node000002"><a xlink:title=" ">
<path fill="none" stroke="#63b8ff" d="M1528.66,-165.31C1452.38,-145.75 1272.33,-99.56 1187.17,-77.72"/>
<polygon fill="#63b8ff" stroke="#63b8ff" points="1188.09,-74.08 1177.53,-74.99 1186.35,-80.86 1188.09,-74.08"/>
</a>
</g>
</g>
<!-- Node35&#45;&gt;Node6 -->
<g id="edge76_Node000035_Node000006" class="edge">
<title>Node35&#45;&gt;Node6</title>
<g id="a_edge76_Node000035_Node000006"><a xlink:title=" ">
<path fill="none" stroke="#63b8ff" d="M1571.13,-165.45C1577.5,-156.87 1586.35,-143.25 1590,-129.75 1598.63,-97.78 1599.41,-87 1590,-55.25 1587.13,-45.55 1581.41,-35.99 1575.8,-28.21"/>
<polygon fill="#63b8ff" stroke="#63b8ff" points="1578.11,-26.49 1569.22,-20.74 1572.58,-30.78 1578.11,-26.49"/>
</a>
</g>
</g>
<!-- Node35&#45;&gt;Node11 -->
<g id="edge72_Node000035_Node000011" class="edge">
<title>Node35&#45;&gt;Node11</title>
<g id="a_edge72_Node000035_Node000011"><a xlink:title=" ">
<path fill="none" stroke="#63b8ff" d="M1527.22,-167.49C1449.28,-152.94 1269.57,-119.66 1208,-110.5 1090.19,-92.97 950.83,-77.95 879.06,-70.64"/>
<polygon fill="#63b8ff" stroke="#63b8ff" points="879.86,-67.1 869.56,-69.57 879.15,-74.06 879.86,-67.1"/>
</a>
</g>
</g>
<!-- Node35&#45;&gt;Node12 -->
<g id="edge75_Node000035_Node000012" class="edge">
<title>Node35&#45;&gt;Node12</title>
<g id="a_edge75_Node000035_Node000012"><a xlink:title=" ">
<path fill="none" stroke="#63b8ff" d="M1555.58,-165.58C1548.39,-158.07 1537.84,-147.06 1529.05,-137.88"/>
<polygon fill="#63b8ff" stroke="#63b8ff" points="1532.05,-135.91 1522.6,-131.11 1526.99,-140.75 1532.05,-135.91"/>
</a>
</g>
</g>
<!-- Node35&#45;&gt;Node35 -->
<g id="edge73_Node000035_Node000035" class="edge">
<title>Node35&#45;&gt;Node35</title>
<g id="a_edge73_Node000035_Node000035"><a xlink:title=" ">
<path fill="none" stroke="#63b8ff" d="M1592.6,-185.48C1606.36,-186.73 1618.5,-183.36 1618.5,-175.38 1618.5,-169.64 1612.23,-166.28 1603.59,-165.31"/>
<polygon fill="#63b8ff" stroke="#63b8ff" points="1603.61,-161.81 1593.6,-165.27 1603.59,-168.81 1603.61,-161.81"/>
</a>
</g>
</g>
</g>
</svg>
