<?xml version="1.0" encoding="UTF-8" standalone="no"?>
<!DOCTYPE svg PUBLIC "-//W3C//DTD SVG 1.1//EN"
 "http://www.w3.org/Graphics/SVG/1.1/DTD/svg11.dtd">
<!-- Generated by graphviz version 3.0.0 (20220226.1711)
 -->
<!-- Title: src/Ioss_Wedge24.C Pages: 1 -->
<!--zoomable 420 -->
<svg id="main" version="1.1" xmlns="http://www.w3.org/2000/svg" xmlns:xlink="http://www.w3.org/1999/xlink" xml:space="preserve" onload="init(evt)">
<style type="text/css"><![CDATA[
.edge:hover path { stroke: red; }
.edge:hover polygon { stroke: red; fill: red; }
]]></style>
<script type="text/javascript"><![CDATA[
var edges = document.getElementsByTagName('g');
if (edges && edges.length) {
  for (var i=0;i<edges.length;i++) {
    if (edges[i].id.substr(0,4)=='edge') {
      edges[i].setAttribute('class','edge');
    }
  }
}
]]></script>
        <defs>
                <circle id="rim" cx="0" cy="0" r="7"/>
                <circle id="rim2" cx="0" cy="0" r="3.5"/>
                <g id="zoomPlus">
                        <use xlink:href="#rim" fill="#404040">
                                <set attributeName="fill" to="#808080" begin="zoomplus.mouseover" end="zoomplus.mouseout"/>
                        </use>
                        <path d="M-4,0h8M0,-4v8" fill="none" stroke="white" stroke-width="1.5" pointer-events="none"/>
                </g>
                <g id="zoomMin">
                        <use xlink:href="#rim" fill="#404040">
                                <set attributeName="fill" to="#808080" begin="zoomminus.mouseover" end="zoomminus.mouseout"/>
                        </use>
                        <path d="M-4,0h8" fill="none" stroke="white" stroke-width="1.5" pointer-events="none"/>
                </g>
                <g id="dirArrow">
                        <path fill="none" stroke="white" stroke-width="1.5" d="M0,-3.0v7 M-2.5,-0.5L0,-3.0L2.5,-0.5"/>
                </g>
               <g id="resetDef">
                       <use xlink:href="#rim2" fill="#404040">
                               <set attributeName="fill" to="#808080" begin="reset.mouseover" end="reset.mouseout"/>
                       </use>
               </g>
        </defs>

<script type="text/javascript">
var viewWidth = 1507;
var viewHeight = 420;
var sectionId = 'dynsection-0';
</script>
<script xlink:href="svgpan.js"/>
<svg id="graph" class="graph">
<g id="viewport">
<title>src/Ioss_Wedge24.C</title>
<polygon fill="white" stroke="transparent" points="-4,4 -4,-416 1503,-416 1503,4 -4,4"/>
<!-- Node1 -->
<g id="node1" class="node">
<title>Node1</title>
<g id="a_node1"><a xlink:title=" ">
<polygon fill="#bfbfbf" stroke="black" points="358,-392.5 358,-411.5 466,-411.5 466,-392.5 358,-392.5"/>
<text text-anchor="middle" x="412" y="-399.5" font-family="Helvetica,sans-Serif" font-size="10.00">src/Ioss_Wedge24.C</text>
</a>
</g>
</g>
<!-- Node2 -->
<g id="node2" class="node">
<title>Node2</title>
<g id="a_node2"><a xlink:href="Ioss__CodeTypes_8h.html" target="_top" xlink:title=" ">
<polygon fill="white" stroke="black" points="167,-56.5 167,-75.5 265,-75.5 265,-56.5 167,-56.5"/>
<text text-anchor="middle" x="216" y="-63.5" font-family="Helvetica,sans-Serif" font-size="10.00">Ioss_CodeTypes.h</text>
</a>
</g>
</g>
<!-- Node1&#45;&gt;Node2 -->
<g id="edge1" class="edge">
<title>Node1&#45;&gt;Node2</title>
<path fill="none" stroke="midnightblue" d="M357.71,-397.88C245.84,-389.95 0,-364.2 0,-291 0,-291 0,-291 0,-177 0,-106.3 93.04,-81.02 156.99,-71.99"/>
<polygon fill="midnightblue" stroke="midnightblue" points="157.53,-75.45 166.99,-70.68 156.62,-68.51 157.53,-75.45"/>
</g>
<!-- Node4 -->
<g id="node4" class="node">
<title>Node4</title>
<g id="a_node4"><a xlink:title=" ">
<polygon fill="white" stroke="#bfbfbf" points="1321.5,-0.5 1321.5,-19.5 1370.5,-19.5 1370.5,-0.5 1321.5,-0.5"/>
<text text-anchor="middle" x="1346" y="-7.5" font-family="Helvetica,sans-Serif" font-size="10.00">cstddef</text>
</a>
</g>
</g>
<!-- Node1&#45;&gt;Node4 -->
<g id="edge67" class="edge">
<title>Node1&#45;&gt;Node4</title>
<path fill="none" stroke="midnightblue" d="M466.28,-401.27C686.16,-401.65 1499,-395.98 1499,-291 1499,-291 1499,-291 1499,-121 1499,-62.91 1425.39,-32.48 1380.28,-19.29"/>
<polygon fill="midnightblue" stroke="midnightblue" points="1381.15,-15.9 1370.58,-16.59 1379.28,-22.64 1381.15,-15.9"/>
</g>
<!-- Node10 -->
<g id="node10" class="node">
<title>Node10</title>
<g id="a_node10"><a xlink:href="Ioss__ElementTopology_8h.html" target="_top" xlink:title=" ">
<polygon fill="white" stroke="black" points="309,-168.5 309,-187.5 431,-187.5 431,-168.5 309,-168.5"/>
<text text-anchor="middle" x="370" y="-175.5" font-family="Helvetica,sans-Serif" font-size="10.00">Ioss_ElementTopology.h</text>
</a>
</g>
</g>
<!-- Node1&#45;&gt;Node10 -->
<g id="edge9" class="edge">
<title>Node1&#45;&gt;Node10</title>
<path fill="none" stroke="midnightblue" d="M410.35,-392.3C404.17,-359.63 382.27,-243.87 373.59,-197.96"/>
<polygon fill="midnightblue" stroke="midnightblue" points="376.98,-197.06 371.68,-187.88 370.1,-198.36 376.98,-197.06"/>
</g>
<!-- Node16 -->
<g id="node16" class="node">
<title>Node16</title>
<g id="a_node16"><a xlink:href="Ioss__ElementVariableType_8h.html" target="_top" xlink:title=" ">
<polygon fill="white" stroke="black" points="570,-336.5 570,-355.5 710,-355.5 710,-336.5 570,-336.5"/>
<text text-anchor="middle" x="640" y="-343.5" font-family="Helvetica,sans-Serif" font-size="10.00">Ioss_ElementVariableType.h</text>
</a>
</g>
</g>
<!-- Node1&#45;&gt;Node16 -->
<g id="edge22" class="edge">
<title>Node1&#45;&gt;Node16</title>
<path fill="none" stroke="midnightblue" d="M448.13,-392.44C487.65,-383.08 551.1,-368.06 594.11,-357.87"/>
<polygon fill="midnightblue" stroke="midnightblue" points="595.12,-361.23 604.04,-355.52 593.5,-354.42 595.12,-361.23"/>
</g>
<!-- Node27 -->
<g id="node27" class="node">
<title>Node27</title>
<g id="a_node27"><a xlink:title=" ">
<polygon fill="white" stroke="#bfbfbf" points="1297.5,-168.5 1297.5,-187.5 1346.5,-187.5 1346.5,-168.5 1297.5,-168.5"/>
<text text-anchor="middle" x="1322" y="-175.5" font-family="Helvetica,sans-Serif" font-size="10.00">cassert</text>
</a>
</g>
</g>
<!-- Node1&#45;&gt;Node27 -->
<g id="edge66" class="edge">
<title>Node1&#45;&gt;Node27</title>
<path fill="none" stroke="midnightblue" d="M466.24,-394.12C527.72,-386.08 630.85,-371.83 719,-356 954.26,-313.76 1030.35,-349.13 1245,-244 1269.66,-231.92 1293.02,-210.23 1307.41,-195.24"/>
<polygon fill="midnightblue" stroke="midnightblue" points="1310.17,-197.41 1314.43,-187.71 1305.05,-192.64 1310.17,-197.41"/>
</g>
<!-- Node33 -->
<g id="node33" class="node">
<title>Node33</title>
<g id="a_node33"><a xlink:href="Ioss__Wedge24_8h.html" target="_top" xlink:title=" ">
<polygon fill="white" stroke="black" points="28.5,-224.5 28.5,-243.5 117.5,-243.5 117.5,-224.5 28.5,-224.5"/>
<text text-anchor="middle" x="73" y="-231.5" font-family="Helvetica,sans-Serif" font-size="10.00">Ioss_Wedge24.h</text>
</a>
</g>
</g>
<!-- Node1&#45;&gt;Node33 -->
<g id="edge63" class="edge">
<title>Node1&#45;&gt;Node33</title>
<path fill="none" stroke="midnightblue" d="M357.74,-401.5C306.04,-399.64 227.75,-390.57 170,-356 127.8,-330.74 96.44,-279.92 81.93,-252.88"/>
<polygon fill="midnightblue" stroke="midnightblue" points="84.92,-251.05 77.21,-243.78 78.71,-254.27 84.92,-251.05"/>
</g>
<!-- Node3 -->
<g id="node3" class="node">
<title>Node3</title>
<g id="a_node3"><a xlink:title=" ">
<polygon fill="white" stroke="#bfbfbf" points="197,-0.5 197,-19.5 235,-19.5 235,-0.5 197,-0.5"/>
<text text-anchor="middle" x="216" y="-7.5" font-family="Helvetica,sans-Serif" font-size="10.00">array</text>
</a>
</g>
</g>
<!-- Node2&#45;&gt;Node3 -->
<g id="edge2" class="edge">
<title>Node2&#45;&gt;Node3</title>
<path fill="none" stroke="midnightblue" d="M216,-56.08C216,-49.01 216,-38.86 216,-29.99"/>
<polygon fill="midnightblue" stroke="midnightblue" points="219.5,-29.75 216,-19.75 212.5,-29.75 219.5,-29.75"/>
</g>
<!-- Node2&#45;&gt;Node4 -->
<g id="edge3" class="edge">
<title>Node2&#45;&gt;Node4</title>
<path fill="none" stroke="midnightblue" d="M265.31,-56.96C268.25,-56.6 271.16,-56.28 274,-56 482.17,-35.54 1150.16,-16.35 1310.95,-11.94"/>
<polygon fill="midnightblue" stroke="midnightblue" points="1311.31,-15.43 1321.21,-11.66 1311.12,-8.44 1311.31,-15.43"/>
</g>
<!-- Node5 -->
<g id="node5" class="node">
<title>Node5</title>
<g id="a_node5"><a xlink:title=" ">
<polygon fill="white" stroke="#bfbfbf" points="490,-0.5 490,-19.5 536,-19.5 536,-0.5 490,-0.5"/>
<text text-anchor="middle" x="513" y="-7.5" font-family="Helvetica,sans-Serif" font-size="10.00">cstdint</text>
</a>
</g>
</g>
<!-- Node2&#45;&gt;Node5 -->
<g id="edge4" class="edge">
<title>Node2&#45;&gt;Node5</title>
<path fill="none" stroke="midnightblue" d="M263.06,-56.44C323.63,-45.43 427.33,-26.58 480.09,-16.98"/>
<polygon fill="midnightblue" stroke="midnightblue" points="480.72,-20.43 489.93,-15.19 479.47,-13.54 480.72,-20.43"/>
</g>
<!-- Node6 -->
<g id="node6" class="node">
<title>Node6</title>
<g id="a_node6"><a xlink:title=" ">
<polygon fill="white" stroke="#bfbfbf" points="841.5,-0.5 841.5,-19.5 882.5,-19.5 882.5,-0.5 841.5,-0.5"/>
<text text-anchor="middle" x="862" y="-7.5" font-family="Helvetica,sans-Serif" font-size="10.00">string</text>
</a>
</g>
</g>
<!-- Node2&#45;&gt;Node6 -->
<g id="edge5" class="edge">
<title>Node2&#45;&gt;Node6</title>
<path fill="none" stroke="midnightblue" d="M265.01,-57.12C268.05,-56.72 271.06,-56.34 274,-56 486.59,-31.41 744.04,-16.97 831.35,-12.51"/>
<polygon fill="midnightblue" stroke="midnightblue" points="831.56,-16 841.37,-12 831.21,-9.01 831.56,-16"/>
</g>
<!-- Node7 -->
<g id="node7" class="node">
<title>Node7</title>
<g id="a_node7"><a xlink:title=" ">
<polygon fill="white" stroke="#bfbfbf" points="586,-0.5 586,-19.5 630,-19.5 630,-0.5 586,-0.5"/>
<text text-anchor="middle" x="608" y="-7.5" font-family="Helvetica,sans-Serif" font-size="10.00">vector</text>
</a>
</g>
</g>
<!-- Node2&#45;&gt;Node7 -->
<g id="edge6" class="edge">
<title>Node2&#45;&gt;Node7</title>
<path fill="none" stroke="midnightblue" d="M265.04,-57.31C268.07,-56.86 271.08,-56.42 274,-56 394.26,-38.68 424.64,-36.59 545,-20 554.97,-18.63 565.81,-17.09 575.66,-15.68"/>
<polygon fill="midnightblue" stroke="midnightblue" points="576.45,-19.1 585.85,-14.22 575.45,-12.18 576.45,-19.1"/>
</g>
<!-- Node8 -->
<g id="node8" class="node">
<title>Node8</title>
<g id="a_node8"><a xlink:title=" ">
<polygon fill="white" stroke="#bfbfbf" points="253,-0.5 253,-19.5 369,-19.5 369,-0.5 253,-0.5"/>
<text text-anchor="middle" x="311" y="-7.5" font-family="Helvetica,sans-Serif" font-size="10.00">SEACASIoss_config.h</text>
</a>
</g>
</g>
<!-- Node2&#45;&gt;Node8 -->
<g id="edge7" class="edge">
<title>Node2&#45;&gt;Node8</title>
<path fill="none" stroke="midnightblue" d="M231.26,-56.32C246.22,-47.82 269.25,-34.73 286.73,-24.8"/>
<polygon fill="midnightblue" stroke="midnightblue" points="288.81,-27.64 295.77,-19.65 285.35,-21.55 288.81,-27.64"/>
</g>
<!-- Node9 -->
<g id="node9" class="node">
<title>Node9</title>
<g id="a_node9"><a xlink:title=" ">
<polygon fill="white" stroke="#bfbfbf" points="125.5,-0.5 125.5,-19.5 178.5,-19.5 178.5,-0.5 125.5,-0.5"/>
<text text-anchor="middle" x="152" y="-7.5" font-family="Helvetica,sans-Serif" font-size="10.00">complex</text>
</a>
</g>
</g>
<!-- Node2&#45;&gt;Node9 -->
<g id="edge8" class="edge">
<title>Node2&#45;&gt;Node9</title>
<path fill="none" stroke="midnightblue" d="M205.72,-56.32C196.16,-48.26 181.72,-36.08 170.22,-26.37"/>
<polygon fill="midnightblue" stroke="midnightblue" points="172.37,-23.61 162.47,-19.83 167.86,-28.96 172.37,-23.61"/>
</g>
<!-- Node10&#45;&gt;Node2 -->
<g id="edge10" class="edge">
<title>Node10&#45;&gt;Node2</title>
<path fill="none" stroke="midnightblue" d="M353.02,-168.37C336.84,-159.88 312.04,-146.17 292,-132 270.23,-116.61 247.23,-96.29 232.31,-82.5"/>
<polygon fill="midnightblue" stroke="midnightblue" points="234.61,-79.86 224.91,-75.58 229.83,-84.97 234.61,-79.86"/>
</g>
<!-- Node10&#45;&gt;Node6 -->
<g id="edge20" class="edge">
<title>Node10&#45;&gt;Node6</title>
<path fill="none" stroke="midnightblue" d="M431.25,-170.84C514.79,-160.52 667.4,-134.79 784,-76 808.7,-63.55 832.43,-41.93 847.1,-27.07"/>
<polygon fill="midnightblue" stroke="midnightblue" points="849.86,-29.25 854.26,-19.61 844.81,-24.4 849.86,-29.25"/>
</g>
<!-- Node10&#45;&gt;Node7 -->
<g id="edge21" class="edge">
<title>Node10&#45;&gt;Node7</title>
<path fill="none" stroke="midnightblue" d="M392.87,-168.47C413.13,-160.44 443.11,-147.37 467,-132 516.93,-99.87 567.96,-51.38 592.69,-26.68"/>
<polygon fill="midnightblue" stroke="midnightblue" points="595.21,-29.11 599.76,-19.54 590.24,-24.18 595.21,-29.11"/>
</g>
<!-- Node11 -->
<g id="node11" class="node">
<title>Node11</title>
<g id="a_node11"><a xlink:href="Ioss__ElementPermutation_8h.html" target="_top" xlink:title=" ">
<polygon fill="white" stroke="black" points="301.5,-112.5 301.5,-131.5 438.5,-131.5 438.5,-112.5 301.5,-112.5"/>
<text text-anchor="middle" x="370" y="-119.5" font-family="Helvetica,sans-Serif" font-size="10.00">Ioss_ElementPermutation.h</text>
</a>
</g>
</g>
<!-- Node10&#45;&gt;Node11 -->
<g id="edge11" class="edge">
<title>Node10&#45;&gt;Node11</title>
<path fill="none" stroke="midnightblue" d="M370,-168.08C370,-161.01 370,-150.86 370,-141.99"/>
<polygon fill="midnightblue" stroke="midnightblue" points="373.5,-141.75 370,-131.75 366.5,-141.75 373.5,-141.75"/>
</g>
<!-- Node14 -->
<g id="node14" class="node">
<title>Node14</title>
<g id="a_node14"><a xlink:title=" ">
<polygon fill="white" stroke="#bfbfbf" points="449.5,-56.5 449.5,-75.5 484.5,-75.5 484.5,-56.5 449.5,-56.5"/>
<text text-anchor="middle" x="467" y="-63.5" font-family="Helvetica,sans-Serif" font-size="10.00">map</text>
</a>
</g>
</g>
<!-- Node10&#45;&gt;Node14 -->
<g id="edge18" class="edge">
<title>Node10&#45;&gt;Node14</title>
<path fill="none" stroke="midnightblue" d="M394.08,-168.43C411.15,-161.19 433.34,-149.23 447,-132 457.53,-118.71 462.54,-99.88 464.91,-85.9"/>
<polygon fill="midnightblue" stroke="midnightblue" points="468.39,-86.32 466.3,-75.93 461.45,-85.35 468.39,-86.32"/>
</g>
<!-- Node15 -->
<g id="node15" class="node">
<title>Node15</title>
<g id="a_node15"><a xlink:title=" ">
<polygon fill="white" stroke="#bfbfbf" points="215,-112.5 215,-131.5 245,-131.5 245,-112.5 215,-112.5"/>
<text text-anchor="middle" x="230" y="-119.5" font-family="Helvetica,sans-Serif" font-size="10.00">set</text>
</a>
</g>
</g>
<!-- Node10&#45;&gt;Node15 -->
<g id="edge19" class="edge">
<title>Node10&#45;&gt;Node15</title>
<path fill="none" stroke="midnightblue" d="M347.82,-168.44C322.5,-158.68 281.19,-142.74 254.82,-132.57"/>
<polygon fill="midnightblue" stroke="midnightblue" points="255.77,-129.19 245.18,-128.85 253.25,-135.72 255.77,-129.19"/>
</g>
<!-- Node11&#45;&gt;Node2 -->
<g id="edge12" class="edge">
<title>Node11&#45;&gt;Node2</title>
<path fill="none" stroke="midnightblue" d="M345.6,-112.44C319.8,-103.4 278.92,-89.06 249.98,-78.92"/>
<polygon fill="midnightblue" stroke="midnightblue" points="250.88,-75.52 240.29,-75.52 248.57,-82.13 250.88,-75.52"/>
</g>
<!-- Node11&#45;&gt;Node6 -->
<g id="edge16" class="edge">
<title>Node11&#45;&gt;Node6</title>
<path fill="none" stroke="midnightblue" d="M438.72,-116.11C531.66,-108.93 692.22,-94.38 748,-76 783.41,-64.33 820.12,-41.03 842.01,-25.72"/>
<polygon fill="midnightblue" stroke="midnightblue" points="844.33,-28.37 850.44,-19.71 840.26,-22.67 844.33,-28.37"/>
</g>
<!-- Node11&#45;&gt;Node7 -->
<g id="edge17" class="edge">
<title>Node11&#45;&gt;Node7</title>
<path fill="none" stroke="midnightblue" d="M376.78,-112.43C388.28,-98.48 413,-70.93 440,-56 483.47,-31.97 540.43,-20.24 575.61,-14.93"/>
<polygon fill="midnightblue" stroke="midnightblue" points="576.38,-18.35 585.78,-13.48 575.39,-11.42 576.38,-18.35"/>
</g>
<!-- Node12 -->
<g id="node12" class="node">
<title>Node12</title>
<g id="a_node12"><a xlink:title=" ">
<polygon fill="white" stroke="#bfbfbf" points="283,-56.5 283,-75.5 335,-75.5 335,-56.5 283,-56.5"/>
<text text-anchor="middle" x="309" y="-63.5" font-family="Helvetica,sans-Serif" font-size="10.00">assert.h</text>
</a>
</g>
</g>
<!-- Node11&#45;&gt;Node12 -->
<g id="edge13" class="edge">
<title>Node11&#45;&gt;Node12</title>
<path fill="none" stroke="midnightblue" d="M360.2,-112.32C351.18,-104.34 337.59,-92.31 326.68,-82.65"/>
<polygon fill="midnightblue" stroke="midnightblue" points="328.79,-79.84 318.98,-75.83 324.15,-85.08 328.79,-79.84"/>
</g>
<!-- Node13 -->
<g id="node13" class="node">
<title>Node13</title>
<g id="a_node13"><a xlink:title=" ">
<polygon fill="white" stroke="#bfbfbf" points="353,-56.5 353,-75.5 393,-75.5 393,-56.5 353,-56.5"/>
<text text-anchor="middle" x="373" y="-63.5" font-family="Helvetica,sans-Serif" font-size="10.00">limits</text>
</a>
</g>
</g>
<!-- Node11&#45;&gt;Node13 -->
<g id="edge14" class="edge">
<title>Node11&#45;&gt;Node13</title>
<path fill="none" stroke="midnightblue" d="M370.5,-112.08C370.89,-105.01 371.45,-94.86 371.95,-85.99"/>
<polygon fill="midnightblue" stroke="midnightblue" points="375.45,-85.93 372.51,-75.75 368.46,-85.54 375.45,-85.93"/>
</g>
<!-- Node11&#45;&gt;Node14 -->
<g id="edge15" class="edge">
<title>Node11&#45;&gt;Node14</title>
<path fill="none" stroke="midnightblue" d="M385.58,-112.32C401,-103.74 424.81,-90.49 442.71,-80.52"/>
<polygon fill="midnightblue" stroke="midnightblue" points="444.42,-83.58 451.45,-75.65 441.01,-77.46 444.42,-83.58"/>
</g>
<!-- Node16&#45;&gt;Node2 -->
<g id="edge23" class="edge">
<title>Node16&#45;&gt;Node2</title>
<path fill="none" stroke="midnightblue" d="M569.63,-339.46C473.96,-328.05 304.13,-293.3 211,-188 188,-162 184.88,-145.75 193,-112 195.31,-102.42 200.02,-92.58 204.58,-84.56"/>
<polygon fill="midnightblue" stroke="midnightblue" points="207.69,-86.17 209.9,-75.81 201.71,-82.54 207.69,-86.17"/>
</g>
<!-- Node16&#45;&gt;Node6 -->
<g id="edge62" class="edge">
<title>Node16&#45;&gt;Node6</title>
<path fill="none" stroke="midnightblue" d="M710.04,-342.88C881.49,-335.86 1312.65,-306.51 1373,-188 1399.67,-135.63 1406.92,-97.19 1365,-56 1331.25,-22.84 996.79,-13.61 892.73,-11.53"/>
<polygon fill="midnightblue" stroke="midnightblue" points="892.64,-8.02 882.57,-11.33 892.5,-15.02 892.64,-8.02"/>
</g>
<!-- Node17 -->
<g id="node17" class="node">
<title>Node17</title>
<g id="a_node17"><a xlink:href="Ioss__VariableType_8h.html" target="_top" xlink:title=" ">
<polygon fill="white" stroke="black" points="702,-280.5 702,-299.5 806,-299.5 806,-280.5 702,-280.5"/>
<text text-anchor="middle" x="754" y="-287.5" font-family="Helvetica,sans-Serif" font-size="10.00">Ioss_VariableType.h</text>
</a>
</g>
</g>
<!-- Node16&#45;&gt;Node17 -->
<g id="edge24" class="edge">
<title>Node16&#45;&gt;Node17</title>
<path fill="none" stroke="midnightblue" d="M658.06,-336.44C676.57,-327.68 705.58,-313.94 726.86,-303.86"/>
<polygon fill="midnightblue" stroke="midnightblue" points="728.48,-306.96 736.02,-299.52 725.49,-300.63 728.48,-306.96"/>
</g>
<!-- Node17&#45;&gt;Node2 -->
<g id="edge25" class="edge">
<title>Node17&#45;&gt;Node2</title>
<path fill="none" stroke="midnightblue" d="M701.6,-283.78C586.07,-271.5 313.61,-237.94 237,-188 211.59,-171.44 207.08,-160.94 198,-132 193.03,-116.15 199.09,-97.91 205.49,-84.79"/>
<polygon fill="midnightblue" stroke="midnightblue" points="208.62,-86.35 210.27,-75.89 202.45,-83.04 208.62,-86.35"/>
</g>
<!-- Node17&#45;&gt;Node6 -->
<g id="edge60" class="edge">
<title>Node17&#45;&gt;Node6</title>
<path fill="none" stroke="midnightblue" d="M806.41,-287.91C930.32,-283.93 1231,-265.37 1231,-179 1231,-179 1231,-179 1231,-121 1231,-90.77 1234.11,-75.48 1211,-56 1163.25,-15.76 969.18,-11.09 892.95,-10.84"/>
<polygon fill="midnightblue" stroke="midnightblue" points="892.59,-7.34 882.59,-10.84 892.59,-14.34 892.59,-7.34"/>
</g>
<!-- Node17&#45;&gt;Node7 -->
<g id="edge61" class="edge">
<title>Node17&#45;&gt;Node7</title>
<path fill="none" stroke="midnightblue" d="M743.28,-280.46C723.83,-264.41 682.65,-227.75 660,-188 629.92,-135.23 615.87,-63.51 610.61,-29.88"/>
<polygon fill="midnightblue" stroke="midnightblue" points="614.02,-29.04 609.1,-19.66 607.1,-30.06 614.02,-29.04"/>
</g>
<!-- Node17&#45;&gt;Node14 -->
<g id="edge59" class="edge">
<title>Node17&#45;&gt;Node14</title>
<path fill="none" stroke="midnightblue" d="M714.76,-280.47C688.41,-273.5 653.76,-261.85 627,-244 559.59,-199.04 501.78,-119.45 478.26,-84.4"/>
<polygon fill="midnightblue" stroke="midnightblue" points="480.98,-82.17 472.55,-75.76 475.14,-86.03 480.98,-82.17"/>
</g>
<!-- Node18 -->
<g id="node18" class="node">
<title>Node18</title>
<g id="a_node18"><a xlink:href="Ioss__Utils_8h.html" target="_top" xlink:title=" ">
<polygon fill="white" stroke="black" points="832.5,-224.5 832.5,-243.5 901.5,-243.5 901.5,-224.5 832.5,-224.5"/>
<text text-anchor="middle" x="867" y="-231.5" font-family="Helvetica,sans-Serif" font-size="10.00">Ioss_Utils.h</text>
</a>
</g>
</g>
<!-- Node17&#45;&gt;Node18 -->
<g id="edge26" class="edge">
<title>Node17&#45;&gt;Node18</title>
<path fill="none" stroke="midnightblue" d="M771.91,-280.44C790.25,-271.68 819.01,-257.94 840.09,-247.86"/>
<polygon fill="midnightblue" stroke="midnightblue" points="841.67,-250.99 849.18,-243.52 838.65,-244.67 841.67,-250.99"/>
</g>
<!-- Node24 -->
<g id="node24" class="node">
<title>Node24</title>
<g id="a_node24"><a xlink:title=" ">
<polygon fill="white" stroke="#bfbfbf" points="1297.5,-56.5 1297.5,-75.5 1356.5,-75.5 1356.5,-56.5 1297.5,-56.5"/>
<text text-anchor="middle" x="1327" y="-63.5" font-family="Helvetica,sans-Serif" font-size="10.00">functional</text>
</a>
</g>
</g>
<!-- Node17&#45;&gt;Node24 -->
<g id="edge58" class="edge">
<title>Node17&#45;&gt;Node24</title>
<path fill="none" stroke="midnightblue" d="M806.06,-286.72C915.02,-281.54 1163.69,-267.48 1245,-244 1297.71,-228.78 1326.33,-234.77 1355,-188 1375.2,-155.06 1353.39,-108.94 1338.5,-84.24"/>
<polygon fill="midnightblue" stroke="midnightblue" points="1341.35,-82.19 1333.05,-75.61 1335.43,-85.94 1341.35,-82.19"/>
</g>
<!-- Node32 -->
<g id="node32" class="node">
<title>Node32</title>
<g id="a_node32"><a xlink:title=" ">
<polygon fill="white" stroke="#bfbfbf" points="920,-224.5 920,-243.5 966,-243.5 966,-224.5 920,-224.5"/>
<text text-anchor="middle" x="943" y="-231.5" font-family="Helvetica,sans-Serif" font-size="10.00">cstring</text>
</a>
</g>
</g>
<!-- Node17&#45;&gt;Node32 -->
<g id="edge57" class="edge">
<title>Node17&#45;&gt;Node32</title>
<path fill="none" stroke="midnightblue" d="M783.95,-280.44C818.24,-270.65 874.26,-254.64 909.85,-244.47"/>
<polygon fill="midnightblue" stroke="midnightblue" points="911.09,-247.76 919.75,-241.64 909.17,-241.03 911.09,-247.76"/>
</g>
<!-- Node18&#45;&gt;Node2 -->
<g id="edge27" class="edge">
<title>Node18&#45;&gt;Node2</title>
<path fill="none" stroke="midnightblue" d="M832.49,-232.31C725.42,-229.85 400.09,-219.87 300,-188 253.66,-173.25 230.03,-174.28 206,-132 197.82,-117.6 202.12,-98.66 207.38,-84.94"/>
<polygon fill="midnightblue" stroke="midnightblue" points="210.65,-86.19 211.4,-75.62 204.22,-83.42 210.65,-86.19"/>
</g>
<!-- Node18&#45;&gt;Node4 -->
<g id="edge50" class="edge">
<title>Node18&#45;&gt;Node4</title>
<path fill="none" stroke="midnightblue" d="M901.54,-225.66C904.73,-225.06 907.92,-224.5 911,-224 1043.56,-202.53 1083.06,-228.8 1211,-188 1297.56,-160.4 1343.23,-158.16 1382,-76 1390.12,-58.8 1376.95,-39.86 1364.32,-26.88"/>
<polygon fill="midnightblue" stroke="midnightblue" points="1366.37,-24.01 1356.72,-19.64 1361.55,-29.07 1366.37,-24.01"/>
</g>
<!-- Node18&#45;&gt;Node5 -->
<g id="edge51" class="edge">
<title>Node18&#45;&gt;Node5</title>
<path fill="none" stroke="midnightblue" d="M832.23,-232.25C788.92,-229.87 714.06,-220.84 660,-188 592.91,-147.24 542.2,-64.75 522.25,-28.62"/>
<polygon fill="midnightblue" stroke="midnightblue" points="525.29,-26.87 517.46,-19.73 519.13,-30.2 525.29,-26.87"/>
</g>
<!-- Node18&#45;&gt;Node6 -->
<g id="edge55" class="edge">
<title>Node18&#45;&gt;Node6</title>
<path fill="none" stroke="midnightblue" d="M901.84,-225.54C953.38,-214.34 1044.41,-193.86 1049,-188 1104.3,-117.36 957.96,-48.69 892.15,-22.32"/>
<polygon fill="midnightblue" stroke="midnightblue" points="893.28,-19 882.69,-18.6 890.72,-25.52 893.28,-19"/>
</g>
<!-- Node18&#45;&gt;Node7 -->
<g id="edge56" class="edge">
<title>Node18&#45;&gt;Node7</title>
<path fill="none" stroke="midnightblue" d="M860.64,-224.17C850.71,-210.84 830.44,-185.27 809,-168 744.21,-115.82 705.27,-134.37 646,-76 632.34,-62.55 621.87,-43.18 615.4,-29.09"/>
<polygon fill="midnightblue" stroke="midnightblue" points="618.45,-27.31 611.26,-19.53 612.02,-30.09 618.45,-27.31"/>
</g>
<!-- Node18&#45;&gt;Node10 -->
<g id="edge28" class="edge">
<title>Node18&#45;&gt;Node10</title>
<path fill="none" stroke="midnightblue" d="M832.45,-229.25C751.84,-220.49 549.98,-198.56 441.54,-186.77"/>
<polygon fill="midnightblue" stroke="midnightblue" points="441.67,-183.27 431.35,-185.67 440.91,-190.23 441.67,-183.27"/>
</g>
<!-- Node19 -->
<g id="node19" class="node">
<title>Node19</title>
<g id="a_node19"><a xlink:href="Ioss__Field_8h.html" target="_top" xlink:title=" ">
<polygon fill="white" stroke="black" points="883,-112.5 883,-131.5 953,-131.5 953,-112.5 883,-112.5"/>
<text text-anchor="middle" x="918" y="-119.5" font-family="Helvetica,sans-Serif" font-size="10.00">Ioss_Field.h</text>
</a>
</g>
</g>
<!-- Node18&#45;&gt;Node19 -->
<g id="edge29" class="edge">
<title>Node18&#45;&gt;Node19</title>
<path fill="none" stroke="midnightblue" d="M871,-224.37C879.31,-206.46 898.56,-164.92 909.68,-140.95"/>
<polygon fill="midnightblue" stroke="midnightblue" points="912.99,-142.14 914.02,-131.59 906.64,-139.19 912.99,-142.14"/>
</g>
<!-- Node20 -->
<g id="node20" class="node">
<title>Node20</title>
<g id="a_node20"><a xlink:href="Ioss__Property_8h.html" target="_top" xlink:title=" ">
<polygon fill="white" stroke="black" points="655,-56.5 655,-75.5 739,-75.5 739,-56.5 655,-56.5"/>
<text text-anchor="middle" x="697" y="-63.5" font-family="Helvetica,sans-Serif" font-size="10.00">Ioss_Property.h</text>
</a>
</g>
</g>
<!-- Node18&#45;&gt;Node20 -->
<g id="edge34" class="edge">
<title>Node18&#45;&gt;Node20</title>
<path fill="none" stroke="midnightblue" d="M865.48,-224.2C862.83,-210.9 856.32,-185.38 843,-168 811.43,-126.81 758.23,-96.11 725.51,-79.92"/>
<polygon fill="midnightblue" stroke="midnightblue" points="726.99,-76.75 716.46,-75.55 723.94,-83.05 726.99,-76.75"/>
</g>
<!-- Node21 -->
<g id="node21" class="node">
<title>Node21</title>
<g id="a_node21"><a xlink:href="Ioss__Sort_8h.html" target="_top" xlink:title=" ">
<polygon fill="white" stroke="black" points="1135.5,-168.5 1135.5,-187.5 1202.5,-187.5 1202.5,-168.5 1135.5,-168.5"/>
<text text-anchor="middle" x="1169" y="-175.5" font-family="Helvetica,sans-Serif" font-size="10.00">Ioss_Sort.h</text>
</a>
</g>
</g>
<!-- Node18&#45;&gt;Node21 -->
<g id="edge38" class="edge">
<title>Node18&#45;&gt;Node21</title>
<path fill="none" stroke="midnightblue" d="M901.57,-225.82C904.75,-225.19 907.93,-224.58 911,-224 1004.07,-206.51 1027.79,-204.73 1121,-188 1122.46,-187.74 1123.95,-187.47 1125.44,-187.2"/>
<polygon fill="midnightblue" stroke="midnightblue" points="1126.24,-190.61 1135.44,-185.36 1124.98,-183.72 1126.24,-190.61"/>
</g>
<!-- Node23 -->
<g id="node23" class="node">
<title>Node23</title>
<g id="a_node23"><a xlink:title=" ">
<polygon fill="white" stroke="#bfbfbf" points="1023,-56.5 1023,-75.5 1079,-75.5 1079,-56.5 1023,-56.5"/>
<text text-anchor="middle" x="1051" y="-63.5" font-family="Helvetica,sans-Serif" font-size="10.00">algorithm</text>
</a>
</g>
</g>
<!-- Node18&#45;&gt;Node23 -->
<g id="edge47" class="edge">
<title>Node18&#45;&gt;Node23</title>
<path fill="none" stroke="midnightblue" d="M901.63,-225.86C962.58,-213.27 1082.64,-188.44 1083,-188 1107.91,-157.37 1081.34,-109.27 1063.82,-83.93"/>
<polygon fill="midnightblue" stroke="midnightblue" points="1066.57,-81.76 1057.89,-75.69 1060.89,-85.85 1066.57,-81.76"/>
</g>
<!-- Node18&#45;&gt;Node27 -->
<g id="edge48" class="edge">
<title>Node18&#45;&gt;Node27</title>
<path fill="none" stroke="midnightblue" d="M901.53,-225.58C904.72,-225 907.92,-224.46 911,-224 1075.26,-199.32 1119.06,-214.73 1283,-188 1284.46,-187.76 1285.94,-187.5 1287.44,-187.22"/>
<polygon fill="midnightblue" stroke="midnightblue" points="1288.24,-190.63 1297.34,-185.2 1286.84,-183.77 1288.24,-190.63"/>
</g>
<!-- Node28 -->
<g id="node28" class="node">
<title>Node28</title>
<g id="a_node28"><a xlink:title=" ">
<polygon fill="white" stroke="#bfbfbf" points="933,-168.5 933,-187.5 977,-187.5 977,-168.5 933,-168.5"/>
<text text-anchor="middle" x="955" y="-175.5" font-family="Helvetica,sans-Serif" font-size="10.00">cmath</text>
</a>
</g>
</g>
<!-- Node18&#45;&gt;Node28 -->
<g id="edge49" class="edge">
<title>Node18&#45;&gt;Node28</title>
<path fill="none" stroke="midnightblue" d="M881.14,-224.32C894.87,-215.9 915.94,-202.97 932.06,-193.07"/>
<polygon fill="midnightblue" stroke="midnightblue" points="934.2,-195.87 940.9,-187.65 930.54,-189.9 934.2,-195.87"/>
</g>
<!-- Node29 -->
<g id="node29" class="node">
<title>Node29</title>
<g id="a_node29"><a xlink:title=" ">
<polygon fill="white" stroke="#bfbfbf" points="995.5,-168.5 995.5,-187.5 1040.5,-187.5 1040.5,-168.5 995.5,-168.5"/>
<text text-anchor="middle" x="1018" y="-175.5" font-family="Helvetica,sans-Serif" font-size="10.00">cstdlib</text>
</a>
</g>
</g>
<!-- Node18&#45;&gt;Node29 -->
<g id="edge52" class="edge">
<title>Node18&#45;&gt;Node29</title>
<path fill="none" stroke="midnightblue" d="M890.93,-224.44C916.52,-215.29 957.25,-200.73 985.68,-190.56"/>
<polygon fill="midnightblue" stroke="midnightblue" points="986.94,-193.83 995.17,-187.16 984.58,-187.23 986.94,-193.83"/>
</g>
<!-- Node30 -->
<g id="node30" class="node">
<title>Node30</title>
<g id="a_node30"><a xlink:title=" ">
<polygon fill="white" stroke="#bfbfbf" points="669,-168.5 669,-187.5 723,-187.5 723,-168.5 669,-168.5"/>
<text text-anchor="middle" x="696" y="-175.5" font-family="Helvetica,sans-Serif" font-size="10.00">iostream</text>
</a>
</g>
</g>
<!-- Node18&#45;&gt;Node30 -->
<g id="edge53" class="edge">
<title>Node18&#45;&gt;Node30</title>
<path fill="none" stroke="midnightblue" d="M839.9,-224.44C811.01,-215.32 765.08,-200.81 732.89,-190.65"/>
<polygon fill="midnightblue" stroke="midnightblue" points="733.56,-187.19 722.97,-187.52 731.45,-193.87 733.56,-187.19"/>
</g>
<!-- Node31 -->
<g id="node31" class="node">
<title>Node31</title>
<g id="a_node31"><a xlink:title=" ">
<polygon fill="white" stroke="#bfbfbf" points="741.5,-168.5 741.5,-187.5 800.5,-187.5 800.5,-168.5 741.5,-168.5"/>
<text text-anchor="middle" x="771" y="-175.5" font-family="Helvetica,sans-Serif" font-size="10.00">stdexcept</text>
</a>
</g>
</g>
<!-- Node18&#45;&gt;Node31 -->
<g id="edge54" class="edge">
<title>Node18&#45;&gt;Node31</title>
<path fill="none" stroke="midnightblue" d="M851.58,-224.32C836.46,-215.82 813.18,-202.73 795.53,-192.8"/>
<polygon fill="midnightblue" stroke="midnightblue" points="796.82,-189.51 786.39,-187.65 793.39,-195.61 796.82,-189.51"/>
</g>
<!-- Node19&#45;&gt;Node2 -->
<g id="edge30" class="edge">
<title>Node19&#45;&gt;Node2</title>
<path fill="none" stroke="midnightblue" d="M882.65,-119.58C786.72,-115.49 513.28,-102.37 275.24,-76.04"/>
<polygon fill="midnightblue" stroke="midnightblue" points="275.34,-72.53 265.01,-74.9 274.56,-79.49 275.34,-72.53"/>
</g>
<!-- Node19&#45;&gt;Node4 -->
<g id="edge31" class="edge">
<title>Node19&#45;&gt;Node4</title>
<path fill="none" stroke="midnightblue" d="M927.5,-112.31C943.82,-97.92 978.84,-69.43 1014,-56 1116.98,-16.65 1249.46,-10.9 1311.31,-10.57"/>
<polygon fill="midnightblue" stroke="midnightblue" points="1311.32,-14.07 1321.31,-10.56 1311.31,-7.07 1311.32,-14.07"/>
</g>
<!-- Node19&#45;&gt;Node6 -->
<g id="edge32" class="edge">
<title>Node19&#45;&gt;Node6</title>
<path fill="none" stroke="midnightblue" d="M913.61,-112.37C904.45,-94.38 883.15,-52.55 870.97,-28.63"/>
<polygon fill="midnightblue" stroke="midnightblue" points="874.03,-26.92 866.37,-19.59 867.79,-30.09 874.03,-26.92"/>
</g>
<!-- Node19&#45;&gt;Node7 -->
<g id="edge33" class="edge">
<title>Node19&#45;&gt;Node7</title>
<path fill="none" stroke="midnightblue" d="M896.67,-112.42C864.6,-99.61 801.95,-74.97 748,-56 711.32,-43.1 668.73,-29.62 640.25,-20.82"/>
<polygon fill="midnightblue" stroke="midnightblue" points="641.02,-17.4 630.43,-17.8 638.96,-24.09 641.02,-17.4"/>
</g>
<!-- Node20&#45;&gt;Node5 -->
<g id="edge35" class="edge">
<title>Node20&#45;&gt;Node5</title>
<path fill="none" stroke="midnightblue" d="M667.84,-56.44C634.64,-46.7 580.52,-30.82 545.85,-20.64"/>
<polygon fill="midnightblue" stroke="midnightblue" points="546.77,-17.26 536.19,-17.81 544.8,-23.98 546.77,-17.26"/>
</g>
<!-- Node20&#45;&gt;Node6 -->
<g id="edge36" class="edge">
<title>Node20&#45;&gt;Node6</title>
<path fill="none" stroke="midnightblue" d="M723.14,-56.44C752.54,-46.82 800.21,-31.22 831.33,-21.04"/>
<polygon fill="midnightblue" stroke="midnightblue" points="832.79,-24.24 841.2,-17.81 830.61,-17.59 832.79,-24.24"/>
</g>
<!-- Node20&#45;&gt;Node7 -->
<g id="edge37" class="edge">
<title>Node20&#45;&gt;Node7</title>
<path fill="none" stroke="midnightblue" d="M682.7,-56.32C668.82,-47.9 647.51,-34.97 631.2,-25.07"/>
<polygon fill="midnightblue" stroke="midnightblue" points="632.63,-21.85 622.26,-19.65 629,-27.83 632.63,-21.85"/>
</g>
<!-- Node21&#45;&gt;Node4 -->
<g id="edge45" class="edge">
<title>Node21&#45;&gt;Node4</title>
<path fill="none" stroke="midnightblue" d="M1192.67,-168.37C1240.42,-150.43 1345.42,-108.11 1365,-76 1374.05,-61.16 1366.31,-41.77 1358.15,-28.05"/>
<polygon fill="midnightblue" stroke="midnightblue" points="1361.02,-26.05 1352.64,-19.57 1355.16,-29.87 1361.02,-26.05"/>
</g>
<!-- Node21&#45;&gt;Node7 -->
<g id="edge46" class="edge">
<title>Node21&#45;&gt;Node7</title>
<path fill="none" stroke="midnightblue" d="M1143.75,-168.38C1082.91,-147.73 923.21,-94.33 788,-56 736.52,-41.41 676.07,-26.81 639.96,-18.35"/>
<polygon fill="midnightblue" stroke="midnightblue" points="640.54,-14.89 630.01,-16.03 638.95,-21.71 640.54,-14.89"/>
</g>
<!-- Node22 -->
<g id="node22" class="node">
<title>Node22</title>
<g id="a_node22"><a xlink:href="pdqsort_8h.html" target="_top" xlink:title=" ">
<polygon fill="white" stroke="black" points="1143.5,-112.5 1143.5,-131.5 1200.5,-131.5 1200.5,-112.5 1143.5,-112.5"/>
<text text-anchor="middle" x="1172" y="-119.5" font-family="Helvetica,sans-Serif" font-size="10.00">pdqsort.h</text>
</a>
</g>
</g>
<!-- Node21&#45;&gt;Node22 -->
<g id="edge39" class="edge">
<title>Node21&#45;&gt;Node22</title>
<path fill="none" stroke="midnightblue" d="M1169.5,-168.08C1169.89,-161.01 1170.45,-150.86 1170.95,-141.99"/>
<polygon fill="midnightblue" stroke="midnightblue" points="1174.45,-141.93 1171.51,-131.75 1167.46,-141.54 1174.45,-141.93"/>
</g>
<!-- Node22&#45;&gt;Node4 -->
<g id="edge41" class="edge">
<title>Node22&#45;&gt;Node4</title>
<path fill="none" stroke="midnightblue" d="M1185.65,-112.37C1215.64,-93.41 1287.47,-48 1323.95,-24.94"/>
<polygon fill="midnightblue" stroke="midnightblue" points="1325.83,-27.89 1332.41,-19.59 1322.09,-21.98 1325.83,-27.89"/>
</g>
<!-- Node22&#45;&gt;Node23 -->
<g id="edge40" class="edge">
<title>Node22&#45;&gt;Node23</title>
<path fill="none" stroke="midnightblue" d="M1152.83,-112.44C1133.09,-103.64 1102.11,-89.81 1079.51,-79.72"/>
<polygon fill="midnightblue" stroke="midnightblue" points="1080.64,-76.4 1070.08,-75.52 1077.79,-82.79 1080.64,-76.4"/>
</g>
<!-- Node22&#45;&gt;Node24 -->
<g id="edge42" class="edge">
<title>Node22&#45;&gt;Node24</title>
<path fill="none" stroke="midnightblue" d="M1196.56,-112.44C1222.52,-103.4 1263.67,-89.06 1292.8,-78.92"/>
<polygon fill="midnightblue" stroke="midnightblue" points="1294.26,-82.11 1302.55,-75.52 1291.96,-75.5 1294.26,-82.11"/>
</g>
<!-- Node25 -->
<g id="node25" class="node">
<title>Node25</title>
<g id="a_node25"><a xlink:title=" ">
<polygon fill="white" stroke="#bfbfbf" points="1155.5,-56.5 1155.5,-75.5 1202.5,-75.5 1202.5,-56.5 1155.5,-56.5"/>
<text text-anchor="middle" x="1179" y="-63.5" font-family="Helvetica,sans-Serif" font-size="10.00">iterator</text>
</a>
</g>
</g>
<!-- Node22&#45;&gt;Node25 -->
<g id="edge43" class="edge">
<title>Node22&#45;&gt;Node25</title>
<path fill="none" stroke="midnightblue" d="M1173.16,-112.08C1174.08,-104.93 1175.42,-94.64 1176.58,-85.69"/>
<polygon fill="midnightblue" stroke="midnightblue" points="1180.05,-86.12 1177.87,-75.75 1173.11,-85.22 1180.05,-86.12"/>
</g>
<!-- Node26 -->
<g id="node26" class="node">
<title>Node26</title>
<g id="a_node26"><a xlink:title=" ">
<polygon fill="white" stroke="#bfbfbf" points="1097,-56.5 1097,-75.5 1137,-75.5 1137,-56.5 1097,-56.5"/>
<text text-anchor="middle" x="1117" y="-63.5" font-family="Helvetica,sans-Serif" font-size="10.00">utility</text>
</a>
</g>
</g>
<!-- Node22&#45;&gt;Node26 -->
<g id="edge44" class="edge">
<title>Node22&#45;&gt;Node26</title>
<path fill="none" stroke="midnightblue" d="M1162.92,-112.08C1154.83,-104.14 1142.8,-92.34 1133.09,-82.8"/>
<polygon fill="midnightblue" stroke="midnightblue" points="1135.5,-80.26 1125.91,-75.75 1130.6,-85.25 1135.5,-80.26"/>
</g>
<!-- Node33&#45;&gt;Node2 -->
<g id="edge64" class="edge">
<title>Node33&#45;&gt;Node2</title>
<path fill="none" stroke="midnightblue" d="M72.1,-224.5C70.31,-202.94 68.63,-145.51 97,-112 112.16,-94.09 135.23,-83.3 157.03,-76.8"/>
<polygon fill="midnightblue" stroke="midnightblue" points="158.2,-80.11 166.93,-74.1 156.36,-73.35 158.2,-80.11"/>
</g>
<!-- Node33&#45;&gt;Node10 -->
<g id="edge65" class="edge">
<title>Node33&#45;&gt;Node10</title>
<path fill="none" stroke="midnightblue" d="M117.79,-224.86C169.91,-215.38 256.1,-199.71 312.97,-189.37"/>
<polygon fill="midnightblue" stroke="midnightblue" points="313.67,-192.8 322.88,-187.57 312.42,-185.91 313.67,-192.8"/>
</g>
</g>
</svg>
        <g id="navigator" transform="translate(0 0)" fill="#404254">
                <rect fill="#f2f5e9" fill-opacity="0.5" stroke="#606060" stroke-width=".5" x="0" y="0" width="60" height="60"/>
                <use id="zoomplus" xlink:href="#zoomPlus" x="17" y="9" onmousedown="handleZoom(evt,'in')"/>
                <use id="zoomminus" xlink:href="#zoomMin" x="42" y="9" onmousedown="handleZoom(evt,'out')"/>
                <use id="reset" xlink:href="#resetDef" x="30" y="36" onmousedown="handleReset()"/>
                <g id="arrowUp" xlink:href="#dirArrow" transform="translate(30 24)" onmousedown="handlePan(0,-1)">
                  <use xlink:href="#rim" fill="#404040">
                        <set attributeName="fill" to="#808080" begin="arrowUp.mouseover" end="arrowUp.mouseout"/>
                  </use>
                  <path fill="none" stroke="white" stroke-width="1.5" d="M0,-3.0v7 M-2.5,-0.5L0,-3.0L2.5,-0.5"/>
                </g>
                <g id="arrowRight" xlink:href="#dirArrow" transform="rotate(90) translate(36 -43)" onmousedown="handlePan(1,0)">
                  <use xlink:href="#rim" fill="#404040">
                        <set attributeName="fill" to="#808080" begin="arrowRight.mouseover" end="arrowRight.mouseout"/>
                  </use>
                  <path fill="none" stroke="white" stroke-width="1.5" d="M0,-3.0v7 M-2.5,-0.5L0,-3.0L2.5,-0.5"/>
                </g>
                <g id="arrowDown" xlink:href="#dirArrow" transform="rotate(180) translate(-30 -48)" onmousedown="handlePan(0,1)">
                  <use xlink:href="#rim" fill="#404040">
                        <set attributeName="fill" to="#808080" begin="arrowDown.mouseover" end="arrowDown.mouseout"/>
                  </use>
                  <path fill="none" stroke="white" stroke-width="1.5" d="M0,-3.0v7 M-2.5,-0.5L0,-3.0L2.5,-0.5"/>
                </g>
                <g id="arrowLeft" xlink:href="#dirArrow" transform="rotate(270) translate(-36 17)" onmousedown="handlePan(-1,0)">
                  <use xlink:href="#rim" fill="#404040">
                        <set attributeName="fill" to="#808080" begin="arrowLeft.mouseover" end="arrowLeft.mouseout"/>
                  </use>
                  <path fill="none" stroke="white" stroke-width="1.5" d="M0,-3.0v7 M-2.5,-0.5L0,-3.0L2.5,-0.5"/>
                </g>
        </g>
        <svg viewBox="0 0 15 15" width="100%" height="30px" preserveAspectRatio="xMaxYMin meet">
         <g id="arrow_out" transform="scale(0.3 0.3)">
          <a xlink:href="Ioss__Wedge24_8C__incl_org.svg" target="_base">
           <rect id="button" ry="5" rx="5" y="6" x="6" height="38" width="38"
                fill="#f2f5e9" fill-opacity="0.5" stroke="#606060" stroke-width="1.0"/>
           <path id="arrow"
             d="M 11.500037,31.436501 C 11.940474,20.09759 22.043105,11.32322 32.158766,21.979434 L 37.068811,17.246167 C 37.068811,17.246167 37.088388,32 37.088388,32 L 22.160133,31.978069 C 22.160133,31.978069 26.997745,27.140456 26.997745,27.140456 C 18.528582,18.264221 13.291696,25.230495 11.500037,31.436501 z"
             style="fill:#404040;"/>
          </a>
         </g>
        </svg>
</svg>
