<?xml version="1.0" encoding="UTF-8" standalone="no"?>
<!DOCTYPE svg PUBLIC "-//W3C//DTD SVG 1.1//EN"
 "http://www.w3.org/Graphics/SVG/1.1/DTD/svg11.dtd">
<!-- Generated by graphviz version 7.1.0 (20230121.1956)
 -->
<!-- Title: src/Ioss_Transform.C Pages: 1 -->
<svg width="505pt" height="192pt"
 viewBox="0.00 0.00 504.50 192.00" xmlns="http://www.w3.org/2000/svg" xmlns:xlink="http://www.w3.org/1999/xlink">
<g id="graph0" class="graph" transform="scale(1 1) rotate(0) translate(4 188)">
<title>src/Ioss_Transform.C</title>
<!-- Node1 -->
<g id="node1" class="node">
<title>Node1</title>
<g id="a_node1"><a xlink:title=" ">
<polygon fill="#999999" stroke="#666666" points="342.5,-184 230.5,-184 230.5,-165 342.5,-165 342.5,-184"/>
<text text-anchor="middle" x="286.5" y="-172" font-family="Helvetica,sans-Serif" font-size="10.00">src/Ioss_Transform.C</text>
</a>
</g>
</g>
<!-- Node2 -->
<g id="node2" class="node">
<title>Node2</title>
<g id="a_node2"><a xlink:href="Ioss__Transform_8h.html" target="_top" xlink:title=" ">
<polygon fill="white" stroke="#666666" points="333,-129 240,-129 240,-110 333,-110 333,-129"/>
<text text-anchor="middle" x="286.5" y="-117" font-family="Helvetica,sans-Serif" font-size="10.00">Ioss_Transform.h</text>
</a>
</g>
</g>
<!-- Node1&#45;&gt;Node2 -->
<g id="edge1" class="edge">
<title>Node1&#45;&gt;Node2</title>
<path fill="none" stroke="#63b8ff" d="M286.5,-164.75C286.5,-158.27 286.5,-149.16 286.5,-140.9"/>
<polygon fill="#63b8ff" stroke="#63b8ff" points="290,-140.96 286.5,-130.96 283,-140.96 290,-140.96"/>
</g>
<!-- Node8 -->
<g id="node8" class="node">
<title>Node8</title>
<g id="a_node8"><a xlink:title=" ">
<polygon fill="#e0e0e0" stroke="#999999" points="41,-19 0,-19 0,0 41,0 41,-19"/>
<text text-anchor="middle" x="20.5" y="-7" font-family="Helvetica,sans-Serif" font-size="10.00">string</text>
</a>
</g>
</g>
<!-- Node1&#45;&gt;Node8 -->
<g id="edge13" class="edge">
<title>Node1&#45;&gt;Node8</title>
<path fill="none" stroke="#63b8ff" d="M271.82,-164.5C228.22,-137.79 99.16,-58.7 44.94,-25.47"/>
<polygon fill="#63b8ff" stroke="#63b8ff" points="46.78,-22.5 36.43,-20.26 43.12,-28.47 46.78,-22.5"/>
</g>
<!-- Node9 -->
<g id="node9" class="node">
<title>Node9</title>
<g id="a_node9"><a xlink:title=" ">
<polygon fill="#e0e0e0" stroke="#999999" points="496.5,-19 452.5,-19 452.5,0 496.5,0 496.5,-19"/>
<text text-anchor="middle" x="474.5" y="-7" font-family="Helvetica,sans-Serif" font-size="10.00">vector</text>
</a>
</g>
</g>
<!-- Node1&#45;&gt;Node9 -->
<g id="edge14" class="edge">
<title>Node1&#45;&gt;Node9</title>
<path fill="none" stroke="#63b8ff" d="M305.88,-164.6C336.98,-149.57 398.58,-116.56 438.5,-74 450.7,-60.99 460.37,-43.09 466.6,-29.61"/>
<polygon fill="#63b8ff" stroke="#63b8ff" points="469.78,-31.09 470.57,-20.52 463.36,-28.29 469.78,-31.09"/>
</g>
<!-- Node3 -->
<g id="node3" class="node">
<title>Node3</title>
<g id="a_node3"><a xlink:title=" ">
<polygon fill="#e0e0e0" stroke="#999999" points="429,-74 354,-74 354,-55 429,-55 429,-74"/>
<text text-anchor="middle" x="391.5" y="-62" font-family="Helvetica,sans-Serif" font-size="10.00">ioss_export.h</text>
</a>
</g>
</g>
<!-- Node2&#45;&gt;Node3 -->
<g id="edge2" class="edge">
<title>Node2&#45;&gt;Node3</title>
<path fill="none" stroke="#63b8ff" d="M304.31,-109.51C320.63,-101.27 345.03,-88.96 363.87,-79.45"/>
<polygon fill="#63b8ff" stroke="#63b8ff" points="365.25,-82.67 372.6,-75.04 362.1,-76.42 365.25,-82.67"/>
</g>
<!-- Node4 -->
<g id="node4" class="node">
<title>Node4</title>
<g id="a_node4"><a xlink:href="Ioss__CodeTypes_8h.html" target="_top" xlink:title=" ">
<polygon fill="white" stroke="#666666" points="297.5,-74 199.5,-74 199.5,-55 297.5,-55 297.5,-74"/>
<text text-anchor="middle" x="248.5" y="-62" font-family="Helvetica,sans-Serif" font-size="10.00">Ioss_CodeTypes.h</text>
</a>
</g>
</g>
<!-- Node2&#45;&gt;Node4 -->
<g id="edge3" class="edge">
<title>Node2&#45;&gt;Node4</title>
<path fill="none" stroke="#63b8ff" d="M280.23,-109.75C275.14,-102.66 267.8,-92.42 261.47,-83.59"/>
<polygon fill="#63b8ff" stroke="#63b8ff" points="264.46,-81.76 255.79,-75.67 258.78,-85.84 264.46,-81.76"/>
</g>
<!-- Node2&#45;&gt;Node8 -->
<g id="edge11" class="edge">
<title>Node2&#45;&gt;Node8</title>
<path fill="none" stroke="#63b8ff" d="M264.73,-109.66C217.72,-90.57 106.54,-45.43 51.9,-23.25"/>
<polygon fill="#63b8ff" stroke="#63b8ff" points="53.44,-20.1 42.86,-19.58 50.81,-26.58 53.44,-20.1"/>
</g>
<!-- Node2&#45;&gt;Node9 -->
<g id="edge12" class="edge">
<title>Node2&#45;&gt;Node9</title>
<path fill="none" stroke="#63b8ff" d="M292.37,-109.84C301.97,-96.3 322.3,-70.11 345.5,-55 361.53,-44.56 408.65,-29.59 441.27,-19.95"/>
<polygon fill="#63b8ff" stroke="#63b8ff" points="442.06,-23.37 450.68,-17.21 440.1,-16.65 442.06,-23.37"/>
</g>
<!-- Node5 -->
<g id="node5" class="node">
<title>Node5</title>
<g id="a_node5"><a xlink:title=" ">
<polygon fill="#e0e0e0" stroke="#999999" points="434.5,-19 396.5,-19 396.5,0 434.5,0 434.5,-19"/>
<text text-anchor="middle" x="415.5" y="-7" font-family="Helvetica,sans-Serif" font-size="10.00">array</text>
</a>
</g>
</g>
<!-- Node4&#45;&gt;Node5 -->
<g id="edge4" class="edge">
<title>Node4&#45;&gt;Node5</title>
<path fill="none" stroke="#63b8ff" d="M276.83,-54.51C307.03,-44.92 354.66,-29.81 385.49,-20.02"/>
<polygon fill="#63b8ff" stroke="#63b8ff" points="386.5,-23.38 394.97,-17.02 384.38,-16.7 386.5,-23.38"/>
</g>
<!-- Node6 -->
<g id="node6" class="node">
<title>Node6</title>
<g id="a_node6"><a xlink:title=" ">
<polygon fill="#e0e0e0" stroke="#999999" points="108,-19 59,-19 59,0 108,0 108,-19"/>
<text text-anchor="middle" x="83.5" y="-7" font-family="Helvetica,sans-Serif" font-size="10.00">cstddef</text>
</a>
</g>
</g>
<!-- Node4&#45;&gt;Node6 -->
<g id="edge5" class="edge">
<title>Node4&#45;&gt;Node6</title>
<path fill="none" stroke="#63b8ff" d="M220.51,-54.51C192.5,-45.51 149.33,-31.65 118.95,-21.89"/>
<polygon fill="#63b8ff" stroke="#63b8ff" points="120.42,-18.68 109.82,-18.96 118.28,-25.35 120.42,-18.68"/>
</g>
<!-- Node7 -->
<g id="node7" class="node">
<title>Node7</title>
<g id="a_node7"><a xlink:title=" ">
<polygon fill="#e0e0e0" stroke="#999999" points="172.5,-19 126.5,-19 126.5,0 172.5,0 172.5,-19"/>
<text text-anchor="middle" x="149.5" y="-7" font-family="Helvetica,sans-Serif" font-size="10.00">cstdint</text>
</a>
</g>
</g>
<!-- Node4&#45;&gt;Node7 -->
<g id="edge6" class="edge">
<title>Node4&#45;&gt;Node7</title>
<path fill="none" stroke="#63b8ff" d="M231.71,-54.51C216.4,-46.31 193.53,-34.07 175.8,-24.58"/>
<polygon fill="#63b8ff" stroke="#63b8ff" points="177.85,-21.71 167.38,-20.07 174.54,-27.88 177.85,-21.71"/>
</g>
<!-- Node4&#45;&gt;Node8 -->
<g id="edge7" class="edge">
<title>Node4&#45;&gt;Node8</title>
<path fill="none" stroke="#63b8ff" d="M204.43,-54.51C166.43,-46.56 109.83,-34.27 52.46,-19.65"/>
<polygon fill="#63b8ff" stroke="#63b8ff" points="53.39,-16.27 42.83,-17.17 51.64,-23.05 53.39,-16.27"/>
</g>
<!-- Node4&#45;&gt;Node9 -->
<g id="edge8" class="edge">
<title>Node4&#45;&gt;Node9</title>
<path fill="none" stroke="#63b8ff" d="M290.09,-54.56C327.26,-46.44 383.47,-33.87 441.04,-19.54"/>
<polygon fill="#63b8ff" stroke="#63b8ff" points="441.86,-22.94 450.71,-17.11 440.16,-16.15 441.86,-22.94"/>
</g>
<!-- Node10 -->
<g id="node10" class="node">
<title>Node10</title>
<g id="a_node10"><a xlink:title=" ">
<polygon fill="#e0e0e0" stroke="#999999" points="306.5,-19 190.5,-19 190.5,0 306.5,0 306.5,-19"/>
<text text-anchor="middle" x="248.5" y="-7" font-family="Helvetica,sans-Serif" font-size="10.00">SEACASIoss_config.h</text>
</a>
</g>
</g>
<!-- Node4&#45;&gt;Node10 -->
<g id="edge9" class="edge">
<title>Node4&#45;&gt;Node10</title>
<path fill="none" stroke="#63b8ff" d="M248.5,-54.75C248.5,-48.27 248.5,-39.16 248.5,-30.9"/>
<polygon fill="#63b8ff" stroke="#63b8ff" points="252,-30.96 248.5,-20.96 245,-30.96 252,-30.96"/>
</g>
<!-- Node11 -->
<g id="node11" class="node">
<title>Node11</title>
<g id="a_node11"><a xlink:title=" ">
<polygon fill="#e0e0e0" stroke="#999999" points="378,-19 325,-19 325,0 378,0 378,-19"/>
<text text-anchor="middle" x="351.5" y="-7" font-family="Helvetica,sans-Serif" font-size="10.00">complex</text>
</a>
</g>
</g>
<!-- Node4&#45;&gt;Node11 -->
<g id="edge10" class="edge">
<title>Node4&#45;&gt;Node11</title>
<path fill="none" stroke="#63b8ff" d="M265.97,-54.51C281.9,-46.31 305.69,-34.07 324.14,-24.58"/>
<polygon fill="#63b8ff" stroke="#63b8ff" points="325.65,-27.74 332.94,-20.05 322.45,-21.51 325.65,-27.74"/>
</g>
</g>
</svg>
