<?xml version="1.0" encoding="UTF-8" standalone="no"?>
<!DOCTYPE svg PUBLIC "-//W3C//DTD SVG 1.1//EN"
 "http://www.w3.org/Graphics/SVG/1.1/DTD/svg11.dtd">
<!-- Generated by graphviz version 8.0.5 (20230430.1635)
 -->
<!-- Title: src/elements/Ioss_Beam3.C Pages: 1 -->
<svg width="1858pt" height="414pt"
 viewBox="0.00 0.00 1857.62 414.00" xmlns="http://www.w3.org/2000/svg" xmlns:xlink="http://www.w3.org/1999/xlink">
<g id="graph0" class="graph" transform="scale(1 1) rotate(0) translate(4 410)">
<title>src/elements/Ioss_Beam3.C</title>
<!-- Node1 -->
<g id="Node000001" class="node">
<title>Node1</title>
<g id="a_Node000001"><a xlink:title=" ">
<polygon fill="#999999" stroke="#666666" points="471.1,-406 330.6,-406 330.6,-386.75 471.1,-386.75 471.1,-406"/>
<text text-anchor="middle" x="400.85" y="-392.5" font-family="Helvetica,sans-Serif" font-size="10.00">src/elements/Ioss_Beam3.C</text>
</a>
</g>
</g>
<!-- Node2 -->
<g id="Node000002" class="node">
<title>Node2</title>
<g id="a_Node000002"><a xlink:href="Ioss__CodeTypes_8h.html" target="_top" xlink:title=" ">
<polygon fill="white" stroke="#666666" points="438.73,-74.5 340.98,-74.5 340.98,-55.25 438.73,-55.25 438.73,-74.5"/>
<text text-anchor="middle" x="389.85" y="-61" font-family="Helvetica,sans-Serif" font-size="10.00">Ioss_CodeTypes.h</text>
</a>
</g>
</g>
<!-- Node1&#45;&gt;Node2 -->
<g id="edge1_Node000001_Node000002" class="edge">
<title>Node1&#45;&gt;Node2</title>
<g id="a_edge1_Node000001_Node000002"><a xlink:title=" ">
<path fill="none" stroke="#63b8ff" d="M393.62,-386.42C379.99,-368.61 351.85,-326.97 351.85,-286.88 351.85,-286.88 351.85,-286.88 351.85,-174.38 351.85,-141.23 367.84,-105.43 379.08,-84.37"/>
<polygon fill="#63b8ff" stroke="#63b8ff" points="382.6,-86.23 384.41,-75.79 376.49,-82.83 382.6,-86.23"/>
</a>
</g>
</g>
<!-- Node4 -->
<g id="Node000004" class="node">
<title>Node4</title>
<g id="a_Node000004"><a xlink:title=" ">
<polygon fill="#e0e0e0" stroke="#999999" points="1604.98,-19.25 1556.73,-19.25 1556.73,0 1604.98,0 1604.98,-19.25"/>
<text text-anchor="middle" x="1580.85" y="-5.75" font-family="Helvetica,sans-Serif" font-size="10.00">cstddef</text>
</a>
</g>
</g>
<!-- Node1&#45;&gt;Node4 -->
<g id="edge77_Node000001_Node000004" class="edge">
<title>Node1&#45;&gt;Node4</title>
<g id="a_edge77_Node000001_Node000004"><a xlink:title=" ">
<path fill="none" stroke="#63b8ff" d="M471.18,-393.83C761.16,-387.02 1848.85,-356.79 1848.85,-286.88 1848.85,-286.88 1848.85,-286.88 1848.85,-119.12 1848.85,-89.51 1851.93,-74.99 1829.85,-55.25 1798.8,-27.49 1677.05,-16.37 1616.06,-12.47"/>
<polygon fill="#63b8ff" stroke="#63b8ff" points="1616.61,-8.93 1606.42,-11.82 1616.19,-15.92 1616.61,-8.93"/>
</a>
</g>
</g>
<!-- Node10 -->
<g id="Node000010" class="node">
<title>Node10</title>
<g id="a_Node000010"><a xlink:href="Ioss__ElementTopology_8h.html" target="_top" xlink:title=" ">
<polygon fill="white" stroke="#666666" points="285.73,-185 163.98,-185 163.98,-165.75 285.73,-165.75 285.73,-185"/>
<text text-anchor="middle" x="224.85" y="-171.5" font-family="Helvetica,sans-Serif" font-size="10.00">Ioss_ElementTopology.h</text>
</a>
</g>
</g>
<!-- Node1&#45;&gt;Node10 -->
<g id="edge9_Node000001_Node000010" class="edge">
<title>Node1&#45;&gt;Node10</title>
<g id="a_edge9_Node000001_Node000010"><a xlink:title=" ">
<path fill="none" stroke="#63b8ff" d="M379.34,-386.27C362.34,-378.43 338.6,-365.97 320.85,-350.75 273.62,-310.23 259.56,-297.37 234.85,-240.25 228.84,-226.35 226.39,-209.37 225.41,-196.41"/>
<polygon fill="#63b8ff" stroke="#63b8ff" points="228.86,-196.26 224.86,-186.44 221.87,-196.61 228.86,-196.26"/>
</a>
</g>
</g>
<!-- Node17 -->
<g id="Node000017" class="node">
<title>Node17</title>
<g id="a_Node000017"><a xlink:href="Ioss__Beam3_8h.html" target="_top" xlink:title=" ">
<polygon fill="white" stroke="#666666" points="323.35,-240.25 244.35,-240.25 244.35,-221 323.35,-221 323.35,-240.25"/>
<text text-anchor="middle" x="283.85" y="-226.75" font-family="Helvetica,sans-Serif" font-size="10.00">Ioss_Beam3.h</text>
</a>
</g>
</g>
<!-- Node1&#45;&gt;Node17 -->
<g id="edge24_Node000001_Node000017" class="edge">
<title>Node1&#45;&gt;Node17</title>
<g id="a_edge24_Node000001_Node000017"><a xlink:title=" ">
<path fill="none" stroke="#63b8ff" d="M383.14,-386.26C369.31,-378.4 350.4,-365.95 337.85,-350.75 312.65,-320.21 296.72,-276 289.13,-250.92"/>
<polygon fill="#63b8ff" stroke="#63b8ff" points="292.28,-250.21 286.15,-241.57 285.56,-252.15 292.28,-250.21"/>
</a>
</g>
</g>
<!-- Node18 -->
<g id="Node000018" class="node">
<title>Node18</title>
<g id="a_Node000018"><a xlink:href="Ioss__ElementVariableType_8h.html" target="_top" xlink:title=" ">
<polygon fill="white" stroke="#666666" points="519.73,-350.75 379.98,-350.75 379.98,-331.5 519.73,-331.5 519.73,-350.75"/>
<text text-anchor="middle" x="449.85" y="-337.25" font-family="Helvetica,sans-Serif" font-size="10.00">Ioss_ElementVariableType.h</text>
</a>
</g>
</g>
<!-- Node1&#45;&gt;Node18 -->
<g id="edge28_Node000001_Node000018" class="edge">
<title>Node1&#45;&gt;Node18</title>
<g id="a_edge28_Node000001_Node000018"><a xlink:title=" ">
<path fill="none" stroke="#63b8ff" d="M408.94,-386.58C415.78,-379.15 425.78,-368.29 434.18,-359.16"/>
<polygon fill="#63b8ff" stroke="#63b8ff" points="436.39,-361.84 440.59,-352.11 431.24,-357.1 436.39,-361.84"/>
</a>
</g>
</g>
<!-- Node30 -->
<g id="Node000030" class="node">
<title>Node30</title>
<g id="a_Node000030"><a xlink:title=" ">
<polygon fill="#e0e0e0" stroke="#999999" points="1820.98,-185 1772.73,-185 1772.73,-165.75 1820.98,-165.75 1820.98,-185"/>
<text text-anchor="middle" x="1796.85" y="-171.5" font-family="Helvetica,sans-Serif" font-size="10.00">cassert</text>
</a>
</g>
</g>
<!-- Node1&#45;&gt;Node30 -->
<g id="edge76_Node000001_Node000030" class="edge">
<title>Node1&#45;&gt;Node30</title>
<g id="a_edge76_Node000001_Node000030"><a xlink:title=" ">
<path fill="none" stroke="#63b8ff" d="M471.53,-387.18C646.47,-366.51 1113.55,-308.96 1499.85,-240.25 1595.07,-223.31 1706.26,-197.87 1761.69,-184.79"/>
<polygon fill="#63b8ff" stroke="#63b8ff" points="1762.4,-187.98 1771.33,-182.27 1760.79,-181.17 1762.4,-187.98"/>
</a>
</g>
</g>
<!-- Node3 -->
<g id="Node000003" class="node">
<title>Node3</title>
<g id="a_Node000003"><a xlink:title=" ">
<polygon fill="#e0e0e0" stroke="#999999" points="408.73,-19.25 370.98,-19.25 370.98,0 408.73,0 408.73,-19.25"/>
<text text-anchor="middle" x="389.85" y="-5.75" font-family="Helvetica,sans-Serif" font-size="10.00">array</text>
</a>
</g>
</g>
<!-- Node2&#45;&gt;Node3 -->
<g id="edge2_Node000002_Node000003" class="edge">
<title>Node2&#45;&gt;Node3</title>
<g id="a_edge2_Node000002_Node000003"><a xlink:title=" ">
<path fill="none" stroke="#63b8ff" d="M389.85,-55.08C389.85,-48.42 389.85,-38.99 389.85,-30.53"/>
<polygon fill="#63b8ff" stroke="#63b8ff" points="393.35,-30.61 389.85,-20.61 386.35,-30.61 393.35,-30.61"/>
</a>
</g>
</g>
<!-- Node2&#45;&gt;Node4 -->
<g id="edge3_Node000002_Node000004" class="edge">
<title>Node2&#45;&gt;Node4</title>
<g id="a_edge3_Node000002_Node000004"><a xlink:title=" ">
<path fill="none" stroke="#63b8ff" d="M439.14,-61.67C637.61,-52.8 1375.81,-19.79 1545.79,-12.19"/>
<polygon fill="#63b8ff" stroke="#63b8ff" points="1545.76,-15.65 1555.6,-11.71 1545.45,-8.66 1545.76,-15.65"/>
</a>
</g>
</g>
<!-- Node5 -->
<g id="Node000005" class="node">
<title>Node5</title>
<g id="a_Node000005"><a xlink:title=" ">
<polygon fill="#e0e0e0" stroke="#999999" points="1020.48,-19.25 975.23,-19.25 975.23,0 1020.48,0 1020.48,-19.25"/>
<text text-anchor="middle" x="997.85" y="-5.75" font-family="Helvetica,sans-Serif" font-size="10.00">cstdint</text>
</a>
</g>
</g>
<!-- Node2&#45;&gt;Node5 -->
<g id="edge4_Node000002_Node000005" class="edge">
<title>Node2&#45;&gt;Node5</title>
<g id="a_edge4_Node000002_Node000005"><a xlink:title=" ">
<path fill="none" stroke="#63b8ff" d="M438.89,-61C535.13,-55.11 755.45,-40.42 939.85,-19.25 947.69,-18.35 956.1,-17.21 964.01,-16.05"/>
<polygon fill="#63b8ff" stroke="#63b8ff" points="964.39,-19.38 973.76,-14.42 963.35,-12.45 964.39,-19.38"/>
</a>
</g>
</g>
<!-- Node6 -->
<g id="Node000006" class="node">
<title>Node6</title>
<g id="a_Node000006"><a xlink:title=" ">
<polygon fill="#e0e0e0" stroke="#999999" points="619.85,-19.25 579.85,-19.25 579.85,0 619.85,0 619.85,-19.25"/>
<text text-anchor="middle" x="599.85" y="-5.75" font-family="Helvetica,sans-Serif" font-size="10.00">string</text>
</a>
</g>
</g>
<!-- Node2&#45;&gt;Node6 -->
<g id="edge5_Node000002_Node000006" class="edge">
<title>Node2&#45;&gt;Node6</title>
<g id="a_edge5_Node000002_Node000006"><a xlink:title=" ">
<path fill="none" stroke="#63b8ff" d="M425.48,-54.84C465.74,-44.63 530.63,-28.18 568.87,-18.48"/>
<polygon fill="#63b8ff" stroke="#63b8ff" points="569.53,-21.67 578.36,-15.82 567.81,-14.89 569.53,-21.67"/>
</a>
</g>
</g>
<!-- Node7 -->
<g id="Node000007" class="node">
<title>Node7</title>
<g id="a_Node000007"><a xlink:title=" ">
<polygon fill="#e0e0e0" stroke="#999999" points="931.35,-19.25 888.35,-19.25 888.35,0 931.35,0 931.35,-19.25"/>
<text text-anchor="middle" x="909.85" y="-5.75" font-family="Helvetica,sans-Serif" font-size="10.00">vector</text>
</a>
</g>
</g>
<!-- Node2&#45;&gt;Node7 -->
<g id="edge6_Node000002_Node000007" class="edge">
<title>Node2&#45;&gt;Node7</title>
<g id="a_edge6_Node000002_Node000007"><a xlink:title=" ">
<path fill="none" stroke="#63b8ff" d="M438.77,-58.87C543.89,-48.1 788.94,-23.01 877.33,-13.96"/>
<polygon fill="#63b8ff" stroke="#63b8ff" points="877.43,-17.36 887.03,-12.86 876.72,-10.4 877.43,-17.36"/>
</a>
</g>
</g>
<!-- Node8 -->
<g id="Node000008" class="node">
<title>Node8</title>
<g id="a_Node000008"><a xlink:title=" ">
<polygon fill="#e0e0e0" stroke="#999999" points="542.73,-19.25 426.98,-19.25 426.98,0 542.73,0 542.73,-19.25"/>
<text text-anchor="middle" x="484.85" y="-5.75" font-family="Helvetica,sans-Serif" font-size="10.00">SEACASIoss_config.h</text>
</a>
</g>
</g>
<!-- Node2&#45;&gt;Node8 -->
<g id="edge7_Node000002_Node000008" class="edge">
<title>Node2&#45;&gt;Node8</title>
<g id="a_edge7_Node000002_Node000008"><a xlink:title=" ">
<path fill="none" stroke="#63b8ff" d="M405.97,-54.84C420.57,-46.66 442.34,-34.46 459.31,-24.94"/>
<polygon fill="#63b8ff" stroke="#63b8ff" points="460.65,-27.65 467.66,-19.7 457.22,-21.54 460.65,-27.65"/>
</a>
</g>
</g>
<!-- Node9 -->
<g id="Node000009" class="node">
<title>Node9</title>
<g id="a_Node000009"><a xlink:title=" ">
<polygon fill="#e0e0e0" stroke="#999999" points="353.23,-19.25 300.48,-19.25 300.48,0 353.23,0 353.23,-19.25"/>
<text text-anchor="middle" x="326.85" y="-5.75" font-family="Helvetica,sans-Serif" font-size="10.00">complex</text>
</a>
</g>
</g>
<!-- Node2&#45;&gt;Node9 -->
<g id="edge8_Node000002_Node000009" class="edge">
<title>Node2&#45;&gt;Node9</title>
<g id="a_edge8_Node000002_Node000009"><a xlink:title=" ">
<path fill="none" stroke="#63b8ff" d="M379.17,-54.84C369.97,-47.07 356.49,-35.67 345.52,-26.4"/>
<polygon fill="#63b8ff" stroke="#63b8ff" points="348.28,-23.31 338.38,-19.52 343.76,-28.65 348.28,-23.31"/>
</a>
</g>
</g>
<!-- Node10&#45;&gt;Node2 -->
<g id="edge11_Node000010_Node000002" class="edge">
<title>Node10&#45;&gt;Node2</title>
<g id="a_edge11_Node000010_Node000002"><a xlink:title=" ">
<path fill="none" stroke="#63b8ff" d="M233.96,-165.31C247.51,-152.14 274.15,-127.45 299.85,-110.5 318.23,-98.38 340.37,-87.37 358.09,-79.31"/>
<polygon fill="#63b8ff" stroke="#63b8ff" points="359.23,-82.19 366.95,-74.92 356.39,-75.79 359.23,-82.19"/>
</a>
</g>
</g>
<!-- Node10&#45;&gt;Node6 -->
<g id="edge22_Node000010_Node000006" class="edge">
<title>Node10&#45;&gt;Node6</title>
<g id="a_edge22_Node000010_Node000006"><a xlink:title=" ">
<path fill="none" stroke="#63b8ff" d="M163.64,-172.1C124.74,-167.85 75.23,-156.92 39.85,-129.75 11.55,-108.01 -14.54,-81.31 9.85,-55.25 51.09,-11.18 491.95,-26.6 551.85,-19.25 557.38,-18.57 563.24,-17.67 568.9,-16.71"/>
<polygon fill="#63b8ff" stroke="#63b8ff" points="569.15,-20.04 578.37,-14.82 567.91,-13.15 569.15,-20.04"/>
</a>
</g>
</g>
<!-- Node10&#45;&gt;Node7 -->
<g id="edge23_Node000010_Node000007" class="edge">
<title>Node10&#45;&gt;Node7</title>
<g id="a_edge23_Node000010_Node000007"><a xlink:title=" ">
<path fill="none" stroke="#63b8ff" d="M254.7,-165.32C325.33,-144.12 508.45,-90.36 663.85,-55.25 739.73,-38.11 829.94,-23.09 877.22,-15.63"/>
<polygon fill="#63b8ff" stroke="#63b8ff" points="877.67,-18.95 887.01,-13.94 876.59,-12.03 877.67,-18.95"/>
</a>
</g>
</g>
<!-- Node11 -->
<g id="Node000011" class="node">
<title>Node11</title>
<g id="a_Node000011"><a xlink:title=" ">
<polygon fill="#e0e0e0" stroke="#999999" points="747.1,-74.5 672.6,-74.5 672.6,-55.25 747.1,-55.25 747.1,-74.5"/>
<text text-anchor="middle" x="709.85" y="-61" font-family="Helvetica,sans-Serif" font-size="10.00">ioss_export.h</text>
</a>
</g>
</g>
<!-- Node10&#45;&gt;Node11 -->
<g id="edge10_Node000010_Node000011" class="edge">
<title>Node10&#45;&gt;Node11</title>
<g id="a_edge10_Node000010_Node000011"><a xlink:title=" ">
<path fill="none" stroke="#63b8ff" d="M285.98,-165.4C337.85,-157.37 414.09,-144.6 479.85,-129.75 547.4,-114.5 624.77,-91.94 670.35,-78.12"/>
<polygon fill="#63b8ff" stroke="#63b8ff" points="671.13,-81.23 679.68,-74.97 669.09,-74.53 671.13,-81.23"/>
</a>
</g>
</g>
<!-- Node12 -->
<g id="Node000012" class="node">
<title>Node12</title>
<g id="a_Node000012"><a xlink:href="Ioss__ElementPermutation_8h.html" target="_top" xlink:title=" ">
<polygon fill="white" stroke="#666666" points="200.23,-129.75 63.48,-129.75 63.48,-110.5 200.23,-110.5 200.23,-129.75"/>
<text text-anchor="middle" x="131.85" y="-116.25" font-family="Helvetica,sans-Serif" font-size="10.00">Ioss_ElementPermutation.h</text>
</a>
</g>
</g>
<!-- Node10&#45;&gt;Node12 -->
<g id="edge12_Node000010_Node000012" class="edge">
<title>Node10&#45;&gt;Node12</title>
<g id="a_edge12_Node000010_Node000012"><a xlink:title=" ">
<path fill="none" stroke="#63b8ff" d="M209.08,-165.34C194.78,-157.16 173.47,-144.96 156.86,-135.44"/>
<polygon fill="#63b8ff" stroke="#63b8ff" points="159.12,-132.13 148.71,-130.2 155.65,-138.21 159.12,-132.13"/>
</a>
</g>
</g>
<!-- Node15 -->
<g id="Node000015" class="node">
<title>Node15</title>
<g id="a_Node000015"><a xlink:title=" ">
<polygon fill="#e0e0e0" stroke="#999999" points="53.23,-74.5 18.48,-74.5 18.48,-55.25 53.23,-55.25 53.23,-74.5"/>
<text text-anchor="middle" x="35.85" y="-61" font-family="Helvetica,sans-Serif" font-size="10.00">map</text>
</a>
</g>
</g>
<!-- Node10&#45;&gt;Node15 -->
<g id="edge20_Node000010_Node000015" class="edge">
<title>Node10&#45;&gt;Node15</title>
<g id="a_edge20_Node000010_Node000015"><a xlink:title=" ">
<path fill="none" stroke="#63b8ff" d="M163.79,-172.78C127.75,-168.67 83.68,-157.66 54.85,-129.75 42.9,-118.18 38.38,-99.47 36.72,-85.28"/>
<polygon fill="#63b8ff" stroke="#63b8ff" points="40.16,-85.37 35.89,-75.68 33.18,-85.92 40.16,-85.37"/>
</a>
</g>
</g>
<!-- Node16 -->
<g id="Node000016" class="node">
<title>Node16</title>
<g id="a_Node000016"><a xlink:title=" ">
<polygon fill="#e0e0e0" stroke="#999999" points="247.6,-129.75 218.1,-129.75 218.1,-110.5 247.6,-110.5 247.6,-129.75"/>
<text text-anchor="middle" x="232.85" y="-116.25" font-family="Helvetica,sans-Serif" font-size="10.00">set</text>
</a>
</g>
</g>
<!-- Node10&#45;&gt;Node16 -->
<g id="edge21_Node000010_Node000016" class="edge">
<title>Node10&#45;&gt;Node16</title>
<g id="a_edge21_Node000010_Node000016"><a xlink:title=" ">
<path fill="none" stroke="#63b8ff" d="M226.17,-165.58C227.19,-158.84 228.62,-149.27 229.91,-140.74"/>
<polygon fill="#63b8ff" stroke="#63b8ff" points="233.48,-141.52 231.5,-131.11 226.56,-140.48 233.48,-141.52"/>
</a>
</g>
</g>
<!-- Node12&#45;&gt;Node2 -->
<g id="edge14_Node000012_Node000002" class="edge">
<title>Node12&#45;&gt;Node2</title>
<g id="a_edge14_Node000012_Node000002"><a xlink:title=" ">
<path fill="none" stroke="#63b8ff" d="M175.91,-110.03C219.97,-100.94 287.84,-86.93 335.28,-77.14"/>
<polygon fill="#63b8ff" stroke="#63b8ff" points="335.89,-80.38 344.98,-74.93 334.48,-73.52 335.89,-80.38"/>
</a>
</g>
</g>
<!-- Node12&#45;&gt;Node6 -->
<g id="edge18_Node000012_Node000006" class="edge">
<title>Node12&#45;&gt;Node6</title>
<g id="a_edge18_Node000012_Node000006"><a xlink:title=" ">
<path fill="none" stroke="#63b8ff" d="M136.52,-110.22C144.61,-95.83 162.7,-67.8 186.85,-55.25 259.18,-17.68 471.12,-30.47 551.85,-19.25 557.37,-18.48 563.23,-17.54 568.88,-16.56"/>
<polygon fill="#63b8ff" stroke="#63b8ff" points="569.13,-19.89 578.36,-14.68 567.89,-13 569.13,-19.89"/>
</a>
</g>
</g>
<!-- Node12&#45;&gt;Node7 -->
<g id="edge19_Node000012_Node000007" class="edge">
<title>Node12&#45;&gt;Node7</title>
<g id="a_edge19_Node000012_Node000007"><a xlink:title=" ">
<path fill="none" stroke="#63b8ff" d="M154.2,-110.1C190.7,-95.79 265.67,-68.19 331.85,-55.25 437.65,-34.56 771.12,-17.25 877.15,-12.15"/>
<polygon fill="#63b8ff" stroke="#63b8ff" points="877.27,-15.6 887.09,-11.63 876.93,-8.61 877.27,-15.6"/>
</a>
</g>
</g>
<!-- Node12&#45;&gt;Node11 -->
<g id="edge13_Node000012_Node000011" class="edge">
<title>Node12&#45;&gt;Node11</title>
<g id="a_edge13_Node000012_Node000011"><a xlink:title=" ">
<path fill="none" stroke="#63b8ff" d="M200.69,-111.34C203.45,-111.05 206.18,-110.77 208.85,-110.5 374.66,-93.83 571.68,-77.22 661.23,-69.84"/>
<polygon fill="#63b8ff" stroke="#63b8ff" points="661.44,-73.25 671.12,-68.94 660.86,-66.27 661.44,-73.25"/>
</a>
</g>
</g>
<!-- Node13 -->
<g id="Node000013" class="node">
<title>Node13</title>
<g id="a_Node000013"><a xlink:title=" ">
<polygon fill="#e0e0e0" stroke="#999999" points="139.48,-74.5 88.23,-74.5 88.23,-55.25 139.48,-55.25 139.48,-74.5"/>
<text text-anchor="middle" x="113.85" y="-61" font-family="Helvetica,sans-Serif" font-size="10.00">assert.h</text>
</a>
</g>
</g>
<!-- Node12&#45;&gt;Node13 -->
<g id="edge15_Node000012_Node000013" class="edge">
<title>Node12&#45;&gt;Node13</title>
<g id="a_edge15_Node000012_Node000013"><a xlink:title=" ">
<path fill="none" stroke="#63b8ff" d="M128.88,-110.33C126.58,-103.51 123.29,-93.81 120.39,-85.2"/>
<polygon fill="#63b8ff" stroke="#63b8ff" points="123.41,-84.21 116.89,-75.86 116.78,-86.45 123.41,-84.21"/>
</a>
</g>
</g>
<!-- Node14 -->
<g id="Node000014" class="node">
<title>Node14</title>
<g id="a_Node000014"><a xlink:title=" ">
<polygon fill="#e0e0e0" stroke="#999999" points="235.48,-74.5 196.23,-74.5 196.23,-55.25 235.48,-55.25 235.48,-74.5"/>
<text text-anchor="middle" x="215.85" y="-61" font-family="Helvetica,sans-Serif" font-size="10.00">limits</text>
</a>
</g>
</g>
<!-- Node12&#45;&gt;Node14 -->
<g id="edge16_Node000012_Node000014" class="edge">
<title>Node12&#45;&gt;Node14</title>
<g id="a_edge16_Node000012_Node000014"><a xlink:title=" ">
<path fill="none" stroke="#63b8ff" d="M146.1,-110.09C158.77,-102.06 177.54,-90.16 192.42,-80.73"/>
<polygon fill="#63b8ff" stroke="#63b8ff" points="193.96,-83.26 200.53,-74.95 190.21,-77.35 193.96,-83.26"/>
</a>
</g>
</g>
<!-- Node12&#45;&gt;Node15 -->
<g id="edge17_Node000012_Node000015" class="edge">
<title>Node12&#45;&gt;Node15</title>
<g id="a_edge17_Node000012_Node000015"><a xlink:title=" ">
<path fill="none" stroke="#63b8ff" d="M115.57,-110.09C100.81,-101.91 78.82,-89.71 61.67,-80.19"/>
<polygon fill="#63b8ff" stroke="#63b8ff" points="63.66,-76.74 53.22,-74.95 60.27,-82.86 63.66,-76.74"/>
</a>
</g>
</g>
<!-- Node17&#45;&gt;Node2 -->
<g id="edge26_Node000017_Node000002" class="edge">
<title>Node17&#45;&gt;Node2</title>
<g id="a_edge26_Node000017_Node000002"><a xlink:title=" ">
<path fill="none" stroke="#63b8ff" d="M286.47,-220.55C292.8,-199.63 310.47,-147.01 337.85,-110.5 346.16,-99.43 357.66,-89.2 367.74,-81.34"/>
<polygon fill="#63b8ff" stroke="#63b8ff" points="369.54,-83.61 375.45,-74.82 365.35,-78 369.54,-83.61"/>
</a>
</g>
</g>
<!-- Node17&#45;&gt;Node10 -->
<g id="edge27_Node000017_Node000010" class="edge">
<title>Node17&#45;&gt;Node10</title>
<g id="a_edge27_Node000017_Node000010"><a xlink:title=" ">
<path fill="none" stroke="#63b8ff" d="M273.85,-220.59C265.32,-212.9 252.86,-201.65 242.64,-192.43"/>
<polygon fill="#63b8ff" stroke="#63b8ff" points="245.48,-190.38 235.71,-186.27 240.79,-195.57 245.48,-190.38"/>
</a>
</g>
</g>
<!-- Node17&#45;&gt;Node11 -->
<g id="edge25_Node000017_Node000011" class="edge">
<title>Node17&#45;&gt;Node11</title>
<g id="a_edge25_Node000017_Node000011"><a xlink:title=" ">
<path fill="none" stroke="#63b8ff" d="M307.36,-220.59C378.63,-193.19 592.48,-110.99 675.95,-78.91"/>
<polygon fill="#63b8ff" stroke="#63b8ff" points="677.08,-81.84 685.15,-74.98 674.56,-75.31 677.08,-81.84"/>
</a>
</g>
</g>
<!-- Node18&#45;&gt;Node2 -->
<g id="edge30_Node000018_Node000002" class="edge">
<title>Node18&#45;&gt;Node2</title>
<g id="a_edge30_Node000018_Node000002"><a xlink:title=" ">
<path fill="none" stroke="#63b8ff" d="M440.74,-331.19C423.96,-313.74 389.85,-273.17 389.85,-231.62 389.85,-231.62 389.85,-231.62 389.85,-174.38 389.85,-143.37 389.85,-107.38 389.85,-85.63"/>
<polygon fill="#63b8ff" stroke="#63b8ff" points="393.35,-85.88 389.85,-75.88 386.35,-85.88 393.35,-85.88"/>
</a>
</g>
</g>
<!-- Node18&#45;&gt;Node6 -->
<g id="edge75_Node000018_Node000006" class="edge">
<title>Node18&#45;&gt;Node6</title>
<g id="a_edge75_Node000018_Node000006"><a xlink:title=" ">
<path fill="none" stroke="#63b8ff" d="M446.79,-331.25C440.75,-312.88 427.85,-269.3 427.85,-231.62 427.85,-231.62 427.85,-231.62 427.85,-174.38 427.85,-97.01 520.27,-45.08 569.62,-22.86"/>
<polygon fill="#63b8ff" stroke="#63b8ff" points="570.68,-25.78 578.45,-18.58 567.88,-19.37 570.68,-25.78"/>
</a>
</g>
</g>
<!-- Node18&#45;&gt;Node11 -->
<g id="edge29_Node000018_Node000011" class="edge">
<title>Node18&#45;&gt;Node11</title>
<g id="a_edge29_Node000018_Node000011"><a xlink:title=" ">
<path fill="none" stroke="#63b8ff" d="M519.98,-334.34C583.11,-327.93 670.1,-315.73 697.85,-295.5 723.84,-276.56 731.85,-263.79 731.85,-231.62 731.85,-231.62 731.85,-231.62 731.85,-174.38 731.85,-142.59 722.67,-106.59 716.17,-85.09"/>
<polygon fill="#63b8ff" stroke="#63b8ff" points="719.26,-84.24 712.91,-75.75 712.58,-86.34 719.26,-84.24"/>
</a>
</g>
</g>
<!-- Node19 -->
<g id="Node000019" class="node">
<title>Node19</title>
<g id="a_Node000019"><a xlink:href="Ioss__VariableType_8h.html" target="_top" xlink:title=" ">
<polygon fill="white" stroke="#666666" points="688.73,-295.5 584.98,-295.5 584.98,-276.25 688.73,-276.25 688.73,-295.5"/>
<text text-anchor="middle" x="636.85" y="-282" font-family="Helvetica,sans-Serif" font-size="10.00">Ioss_VariableType.h</text>
</a>
</g>
</g>
<!-- Node18&#45;&gt;Node19 -->
<g id="edge31_Node000018_Node000019" class="edge">
<title>Node18&#45;&gt;Node19</title>
<g id="a_edge31_Node000018_Node000019"><a xlink:title=" ">
<path fill="none" stroke="#63b8ff" d="M481.58,-331.09C512.74,-322.22 560.47,-308.62 594.79,-298.85"/>
<polygon fill="#63b8ff" stroke="#63b8ff" points="595.32,-302.06 603.98,-295.95 593.4,-295.33 595.32,-302.06"/>
</a>
</g>
</g>
<!-- Node19&#45;&gt;Node2 -->
<g id="edge33_Node000019_Node000002" class="edge">
<title>Node19&#45;&gt;Node2</title>
<g id="a_edge33_Node000019_Node000002"><a xlink:title=" ">
<path fill="none" stroke="#63b8ff" d="M620.38,-275.91C605.54,-267.51 583.41,-254.19 565.85,-240.25 500.88,-188.67 433.91,-115.84 404.83,-83.05"/>
<polygon fill="#63b8ff" stroke="#63b8ff" points="407.9,-81.11 398.67,-75.91 402.65,-85.73 407.9,-81.11"/>
</a>
</g>
</g>
<!-- Node19&#45;&gt;Node6 -->
<g id="edge73_Node000019_Node000006" class="edge">
<title>Node19&#45;&gt;Node6</title>
<g id="a_edge73_Node000019_Node000006"><a xlink:title=" ">
<path fill="none" stroke="#63b8ff" d="M627.87,-275.9C620.14,-267.5 609.5,-254.18 604.85,-240.25 580.16,-166.21 590.31,-71.14 596.45,-30.49"/>
<polygon fill="#63b8ff" stroke="#63b8ff" points="600.05,-31.14 598.19,-20.71 593.14,-30.02 600.05,-31.14"/>
</a>
</g>
</g>
<!-- Node19&#45;&gt;Node7 -->
<g id="edge74_Node000019_Node000007" class="edge">
<title>Node19&#45;&gt;Node7</title>
<g id="a_edge74_Node000019_Node000007"><a xlink:title=" ">
<path fill="none" stroke="#63b8ff" d="M689.02,-281.98C851.47,-272.41 1340.13,-239.3 1383.85,-185 1416.01,-145.07 1367.07,-138.59 1317.85,-110.5 1253.97,-74.04 1232.98,-74 1161.85,-55.25 1120.87,-44.44 1001.02,-24.96 942.61,-15.73"/>
<polygon fill="#63b8ff" stroke="#63b8ff" points="943.21,-12.13 932.79,-14.03 942.12,-19.04 943.21,-12.13"/>
</a>
</g>
</g>
<!-- Node19&#45;&gt;Node11 -->
<g id="edge32_Node000019_Node000011" class="edge">
<title>Node19&#45;&gt;Node11</title>
<g id="a_edge32_Node000019_Node000011"><a xlink:title=" ">
<path fill="none" stroke="#63b8ff" d="M644.87,-275.97C652.16,-267.4 662.7,-253.79 668.85,-240.25 692.92,-187.3 703.7,-118.64 707.77,-85.49"/>
<polygon fill="#63b8ff" stroke="#63b8ff" points="711.31,-86.32 708.97,-75.98 704.36,-85.52 711.31,-86.32"/>
</a>
</g>
</g>
<!-- Node19&#45;&gt;Node15 -->
<g id="edge72_Node000019_Node000015" class="edge">
<title>Node19&#45;&gt;Node15</title>
<g id="a_edge72_Node000019_Node000015"><a xlink:title=" ">
<path fill="none" stroke="#63b8ff" d="M584.7,-285.71C506.66,-285.49 355.78,-279.39 234.85,-240.25 140.08,-209.57 92.67,-214.21 39.85,-129.75 31.65,-116.63 31.19,-98.89 32.47,-85.44"/>
<polygon fill="#63b8ff" stroke="#63b8ff" points="36.02,-86.32 33.9,-75.94 29.08,-85.38 36.02,-86.32"/>
</a>
</g>
</g>
<!-- Node20 -->
<g id="Node000020" class="node">
<title>Node20</title>
<g id="a_Node000020"><a xlink:href="Ioss__Utils_8h.html" target="_top" xlink:title=" ">
<polygon fill="white" stroke="#666666" points="1122.1,-240.25 1053.6,-240.25 1053.6,-221 1122.1,-221 1122.1,-240.25"/>
<text text-anchor="middle" x="1087.85" y="-226.75" font-family="Helvetica,sans-Serif" font-size="10.00">Ioss_Utils.h</text>
</a>
</g>
</g>
<!-- Node19&#45;&gt;Node20 -->
<g id="edge34_Node000019_Node000020" class="edge">
<title>Node19&#45;&gt;Node20</title>
<g id="a_edge34_Node000019_Node000020"><a xlink:title=" ">
<path fill="none" stroke="#63b8ff" d="M689.03,-278.71C778.12,-268.19 958.12,-246.94 1042.4,-236.99"/>
<polygon fill="#63b8ff" stroke="#63b8ff" points="1042.63,-240.37 1052.15,-235.72 1041.81,-233.42 1042.63,-240.37"/>
</a>
</g>
</g>
<!-- Node27 -->
<g id="Node000027" class="node">
<title>Node27</title>
<g id="a_Node000027"><a xlink:title=" ">
<polygon fill="#e0e0e0" stroke="#999999" points="1548.85,-74.5 1490.85,-74.5 1490.85,-55.25 1548.85,-55.25 1548.85,-74.5"/>
<text text-anchor="middle" x="1519.85" y="-61" font-family="Helvetica,sans-Serif" font-size="10.00">functional</text>
</a>
</g>
</g>
<!-- Node19&#45;&gt;Node27 -->
<g id="edge71_Node000019_Node000027" class="edge">
<title>Node19&#45;&gt;Node27</title>
<g id="a_edge71_Node000019_Node000027"><a xlink:title=" ">
<path fill="none" stroke="#63b8ff" d="M689.12,-283.8C868.01,-279.91 1446.43,-265.41 1476.85,-240.25 1523.05,-202.04 1524.11,-122.87 1521.77,-85.81"/>
<polygon fill="#63b8ff" stroke="#63b8ff" points="1525.2,-85.67 1520.91,-75.98 1518.22,-86.23 1525.2,-85.67"/>
</a>
</g>
</g>
<!-- Node36 -->
<g id="Node000036" class="node">
<title>Node36</title>
<g id="a_Node000036"><a xlink:title=" ">
<polygon fill="#e0e0e0" stroke="#999999" points="659.48,-240.25 614.23,-240.25 614.23,-221 659.48,-221 659.48,-240.25"/>
<text text-anchor="middle" x="636.85" y="-226.75" font-family="Helvetica,sans-Serif" font-size="10.00">cstring</text>
</a>
</g>
</g>
<!-- Node19&#45;&gt;Node36 -->
<g id="edge70_Node000019_Node000036" class="edge">
<title>Node19&#45;&gt;Node36</title>
<g id="a_edge70_Node000019_Node000036"><a xlink:title=" ">
<path fill="none" stroke="#63b8ff" d="M636.85,-276.08C636.85,-269.42 636.85,-259.99 636.85,-251.53"/>
<polygon fill="#63b8ff" stroke="#63b8ff" points="640.35,-251.61 636.85,-241.61 633.35,-251.61 640.35,-251.61"/>
</a>
</g>
</g>
<!-- Node20&#45;&gt;Node2 -->
<g id="edge36_Node000020_Node000002" class="edge">
<title>Node20&#45;&gt;Node2</title>
<g id="a_edge36_Node000020_Node000002"><a xlink:title=" ">
<path fill="none" stroke="#63b8ff" d="M1053.28,-226.62C994.66,-221.12 872.25,-207.83 770.85,-185 703.32,-169.79 509.16,-105.77 427.14,-78.39"/>
<polygon fill="#63b8ff" stroke="#63b8ff" points="428.38,-74.78 417.79,-74.93 426.16,-81.42 428.38,-74.78"/>
</a>
</g>
</g>
<!-- Node20&#45;&gt;Node4 -->
<g id="edge62_Node000020_Node000004" class="edge">
<title>Node20&#45;&gt;Node4</title>
<g id="a_edge62_Node000020_Node000004"><a xlink:title=" ">
<path fill="none" stroke="#63b8ff" d="M1122.58,-228.93C1197.27,-226.82 1370.2,-218.35 1416.85,-185 1469.32,-147.49 1435.32,-99.91 1481.85,-55.25 1499.81,-38.02 1525.56,-26.69 1546.31,-19.76"/>
<polygon fill="#63b8ff" stroke="#63b8ff" points="1547.13,-22.86 1555.63,-16.53 1545.04,-16.18 1547.13,-22.86"/>
</a>
</g>
</g>
<!-- Node20&#45;&gt;Node5 -->
<g id="edge63_Node000020_Node000005" class="edge">
<title>Node20&#45;&gt;Node5</title>
<g id="a_edge63_Node000020_Node000005"><a xlink:title=" ">
<path fill="none" stroke="#63b8ff" d="M1122.45,-230.11C1196.21,-230.33 1365.11,-226.2 1400.85,-185 1406.46,-178.54 1403.39,-173.92 1400.85,-165.75 1383.17,-108.83 1375.61,-86.51 1324.85,-55.25 1276.23,-25.3 1105.07,-14.94 1031.68,-11.81"/>
<polygon fill="#63b8ff" stroke="#63b8ff" points="1031.9,-8.28 1021.77,-11.37 1031.62,-15.28 1031.9,-8.28"/>
</a>
</g>
</g>
<!-- Node20&#45;&gt;Node6 -->
<g id="edge68_Node000020_Node000006" class="edge">
<title>Node20&#45;&gt;Node6</title>
<g id="a_edge68_Node000020_Node000006"><a xlink:title=" ">
<path fill="none" stroke="#63b8ff" d="M1053.51,-230.47C1005.49,-230.08 917.2,-223.58 854.85,-185 793.17,-146.83 815.77,-96.14 755.85,-55.25 717.6,-29.14 664.13,-18.16 630.78,-13.65"/>
<polygon fill="#63b8ff" stroke="#63b8ff" points="631.64,-10.11 621.29,-12.35 630.78,-17.05 631.64,-10.11"/>
</a>
</g>
</g>
<!-- Node20&#45;&gt;Node7 -->
<g id="edge69_Node000020_Node000007" class="edge">
<title>Node20&#45;&gt;Node7</title>
<g id="a_edge69_Node000020_Node000007"><a xlink:title=" ">
<path fill="none" stroke="#63b8ff" d="M1122.4,-229.45C1190.17,-228.31 1336.66,-221.56 1367.85,-185 1373.41,-178.49 1372.84,-172.7 1367.85,-165.75 1316.2,-93.72 1038.14,-34.97 942.32,-16.6"/>
<polygon fill="#63b8ff" stroke="#63b8ff" points="943.05,-12.99 932.57,-14.57 941.74,-19.87 943.05,-12.99"/>
</a>
</g>
</g>
<!-- Node20&#45;&gt;Node10 -->
<g id="edge37_Node000020_Node000010" class="edge">
<title>Node20&#45;&gt;Node10</title>
<g id="a_edge37_Node000020_Node000010"><a xlink:title=" ">
<path fill="none" stroke="#63b8ff" d="M1053.22,-227.49C924.72,-219.56 473.56,-191.72 296.72,-180.81"/>
<polygon fill="#63b8ff" stroke="#63b8ff" points="297.18,-177.27 286.98,-180.15 296.75,-184.26 297.18,-177.27"/>
</a>
</g>
</g>
<!-- Node20&#45;&gt;Node11 -->
<g id="edge35_Node000020_Node000011" class="edge">
<title>Node20&#45;&gt;Node11</title>
<g id="a_edge35_Node000020_Node000011"><a xlink:title=" ">
<path fill="none" stroke="#63b8ff" d="M1053.19,-227.91C984.95,-223.96 836.16,-212.39 793.85,-185 760.79,-163.59 768.92,-142.43 745.85,-110.5 739.16,-101.24 731.23,-91.31 724.52,-83.17"/>
<polygon fill="#63b8ff" stroke="#63b8ff" points="726.69,-81.31 717.59,-75.88 721.32,-85.8 726.69,-81.31"/>
</a>
</g>
</g>
<!-- Node21 -->
<g id="Node000021" class="node">
<title>Node21</title>
<g id="a_Node000021"><a xlink:href="Ioss__EntityType_8h.html" target="_top" xlink:title=" ">
<polygon fill="white" stroke="#666666" points="1359.23,-185 1264.48,-185 1264.48,-165.75 1359.23,-165.75 1359.23,-185"/>
<text text-anchor="middle" x="1311.85" y="-171.5" font-family="Helvetica,sans-Serif" font-size="10.00">Ioss_EntityType.h</text>
</a>
</g>
</g>
<!-- Node20&#45;&gt;Node21 -->
<g id="edge38_Node000020_Node000021" class="edge">
<title>Node20&#45;&gt;Node21</title>
<g id="a_edge38_Node000020_Node000021"><a xlink:title=" ">
<path fill="none" stroke="#63b8ff" d="M1122.36,-221.42C1159.96,-212.48 1220.4,-198.12 1262.89,-188.02"/>
<polygon fill="#63b8ff" stroke="#63b8ff" points="1263.63,-191.2 1272.55,-185.48 1262.01,-184.39 1263.63,-191.2"/>
</a>
</g>
</g>
<!-- Node22 -->
<g id="Node000022" class="node">
<title>Node22</title>
<g id="a_Node000022"><a xlink:href="Ioss__Field_8h.html" target="_top" xlink:title=" ">
<polygon fill="white" stroke="#666666" points="905.48,-129.75 836.23,-129.75 836.23,-110.5 905.48,-110.5 905.48,-129.75"/>
<text text-anchor="middle" x="870.85" y="-116.25" font-family="Helvetica,sans-Serif" font-size="10.00">Ioss_Field.h</text>
</a>
</g>
</g>
<!-- Node20&#45;&gt;Node22 -->
<g id="edge39_Node000020_Node000022" class="edge">
<title>Node20&#45;&gt;Node22</title>
<g id="a_edge39_Node000020_Node000022"><a xlink:title=" ">
<path fill="none" stroke="#63b8ff" d="M1053.54,-227.9C997.04,-224.26 888.32,-213.63 864.85,-185 854.71,-172.63 857.84,-154.04 862.54,-140.1"/>
<polygon fill="#63b8ff" stroke="#63b8ff" points="866.05,-141.71 866.42,-131.12 859.53,-139.17 866.05,-141.71"/>
</a>
</g>
</g>
<!-- Node23 -->
<g id="Node000023" class="node">
<title>Node23</title>
<g id="a_Node000023"><a xlink:href="Ioss__Property_8h.html" target="_top" xlink:title=" ">
<polygon fill="white" stroke="#666666" points="1006.6,-129.75 923.1,-129.75 923.1,-110.5 1006.6,-110.5 1006.6,-129.75"/>
<text text-anchor="middle" x="964.85" y="-116.25" font-family="Helvetica,sans-Serif" font-size="10.00">Ioss_Property.h</text>
</a>
</g>
</g>
<!-- Node20&#45;&gt;Node23 -->
<g id="edge45_Node000020_Node000023" class="edge">
<title>Node20&#45;&gt;Node23</title>
<g id="a_edge45_Node000020_Node000023"><a xlink:title=" ">
<path fill="none" stroke="#63b8ff" d="M1087.35,-220.64C1086.14,-207.12 1082,-181.47 1067.85,-165.75 1054.33,-150.72 1034.86,-140.55 1016.48,-133.76"/>
<polygon fill="#63b8ff" stroke="#63b8ff" points="1017.73,-130.15 1007.13,-130.24 1015.47,-136.77 1017.73,-130.15"/>
</a>
</g>
</g>
<!-- Node24 -->
<g id="Node000024" class="node">
<title>Node24</title>
<g id="a_Node000024"><a xlink:href="Ioss__Sort_8h.html" target="_top" xlink:title=" ">
<polygon fill="white" stroke="#666666" points="1644.98,-185 1578.73,-185 1578.73,-165.75 1644.98,-165.75 1644.98,-185"/>
<text text-anchor="middle" x="1611.85" y="-171.5" font-family="Helvetica,sans-Serif" font-size="10.00">Ioss_Sort.h</text>
</a>
</g>
</g>
<!-- Node20&#45;&gt;Node24 -->
<g id="edge50_Node000020_Node000024" class="edge">
<title>Node20&#45;&gt;Node24</title>
<g id="a_edge50_Node000020_Node000024"><a xlink:title=" ">
<path fill="none" stroke="#63b8ff" d="M1122.23,-226.13C1214.08,-216.8 1465.11,-191.29 1567.49,-180.88"/>
<polygon fill="#63b8ff" stroke="#63b8ff" points="1567.77,-184.27 1577.37,-179.78 1567.06,-177.31 1567.77,-184.27"/>
</a>
</g>
</g>
<!-- Node26 -->
<g id="Node000026" class="node">
<title>Node26</title>
<g id="a_Node000026"><a xlink:title=" ">
<polygon fill="#e0e0e0" stroke="#999999" points="1820.73,-74.5 1764.98,-74.5 1764.98,-55.25 1820.73,-55.25 1820.73,-74.5"/>
<text text-anchor="middle" x="1792.85" y="-61" font-family="Helvetica,sans-Serif" font-size="10.00">algorithm</text>
</a>
</g>
</g>
<!-- Node20&#45;&gt;Node26 -->
<g id="edge59_Node000020_Node000026" class="edge">
<title>Node20&#45;&gt;Node26</title>
<g id="a_edge59_Node000020_Node000026"><a xlink:title=" ">
<path fill="none" stroke="#63b8ff" d="M1122.57,-229.68C1230.23,-229.41 1557.02,-225.21 1653.85,-185 1708.18,-162.44 1756.6,-110.24 1779.27,-83.04"/>
<polygon fill="#63b8ff" stroke="#63b8ff" points="1782.33,-85.82 1785.94,-75.86 1776.91,-81.4 1782.33,-85.82"/>
</a>
</g>
</g>
<!-- Node20&#45;&gt;Node30 -->
<g id="edge60_Node000020_Node000030" class="edge">
<title>Node20&#45;&gt;Node30</title>
<g id="a_edge60_Node000020_Node000030"><a xlink:title=" ">
<path fill="none" stroke="#63b8ff" d="M1122.27,-229.24C1221.55,-227.71 1516.82,-220.29 1758.85,-185 1759.82,-184.86 1760.8,-184.71 1761.78,-184.54"/>
<polygon fill="#63b8ff" stroke="#63b8ff" points="1762.26,-187.83 1771.43,-182.51 1760.95,-180.95 1762.26,-187.83"/>
</a>
</g>
</g>
<!-- Node31 -->
<g id="Node000031" class="node">
<title>Node31</title>
<g id="a_Node000031"><a xlink:title=" ">
<polygon fill="#e0e0e0" stroke="#999999" points="917.35,-185 874.35,-185 874.35,-165.75 917.35,-165.75 917.35,-185"/>
<text text-anchor="middle" x="895.85" y="-171.5" font-family="Helvetica,sans-Serif" font-size="10.00">cmath</text>
</a>
</g>
</g>
<!-- Node20&#45;&gt;Node31 -->
<g id="edge61_Node000020_Node000031" class="edge">
<title>Node20&#45;&gt;Node31</title>
<g id="a_edge61_Node000020_Node000031"><a xlink:title=" ">
<path fill="none" stroke="#63b8ff" d="M1055.17,-220.57C1024.73,-212.15 977.83,-199.15 927.89,-185.29"/>
<polygon fill="#63b8ff" stroke="#63b8ff" points="929.1,-181.71 918.53,-182.41 927.23,-188.46 929.1,-181.71"/>
</a>
</g>
</g>
<!-- Node32 -->
<g id="Node000032" class="node">
<title>Node32</title>
<g id="a_Node000032"><a xlink:title=" ">
<polygon fill="#e0e0e0" stroke="#999999" points="980.1,-185 935.6,-185 935.6,-165.75 980.1,-165.75 980.1,-185"/>
<text text-anchor="middle" x="957.85" y="-171.5" font-family="Helvetica,sans-Serif" font-size="10.00">cstdlib</text>
</a>
</g>
</g>
<!-- Node20&#45;&gt;Node32 -->
<g id="edge64_Node000020_Node000032" class="edge">
<title>Node20&#45;&gt;Node32</title>
<g id="a_edge64_Node000020_Node000032"><a xlink:title=" ">
<path fill="none" stroke="#63b8ff" d="M1065.8,-220.59C1044.98,-212.06 1013.51,-199.17 989.91,-189.51"/>
<polygon fill="#63b8ff" stroke="#63b8ff" points="991.59,-186 981.01,-185.45 988.94,-192.48 991.59,-186"/>
</a>
</g>
</g>
<!-- Node33 -->
<g id="Node000033" class="node">
<title>Node33</title>
<g id="a_Node000033"><a xlink:title=" ">
<polygon fill="#e0e0e0" stroke="#999999" points="1059.35,-185 998.35,-185 998.35,-165.75 1059.35,-165.75 1059.35,-185"/>
<text text-anchor="middle" x="1028.85" y="-171.5" font-family="Helvetica,sans-Serif" font-size="10.00">filesystem</text>
</a>
</g>
</g>
<!-- Node20&#45;&gt;Node33 -->
<g id="edge65_Node000020_Node000033" class="edge">
<title>Node20&#45;&gt;Node33</title>
<g id="a_edge65_Node000020_Node000033"><a xlink:title=" ">
<path fill="none" stroke="#63b8ff" d="M1077.85,-220.59C1069.32,-212.9 1056.86,-201.65 1046.64,-192.43"/>
<polygon fill="#63b8ff" stroke="#63b8ff" points="1049.48,-190.38 1039.71,-186.27 1044.79,-195.57 1049.48,-190.38"/>
</a>
</g>
</g>
<!-- Node34 -->
<g id="Node000034" class="node">
<title>Node34</title>
<g id="a_Node000034"><a xlink:title=" ">
<polygon fill="#e0e0e0" stroke="#999999" points="1169.6,-185 1116.1,-185 1116.1,-165.75 1169.6,-165.75 1169.6,-185"/>
<text text-anchor="middle" x="1142.85" y="-171.5" font-family="Helvetica,sans-Serif" font-size="10.00">iostream</text>
</a>
</g>
</g>
<!-- Node20&#45;&gt;Node34 -->
<g id="edge66_Node000020_Node000034" class="edge">
<title>Node20&#45;&gt;Node34</title>
<g id="a_edge66_Node000020_Node000034"><a xlink:title=" ">
<path fill="none" stroke="#63b8ff" d="M1096.94,-220.83C1104.77,-213.25 1116.3,-202.09 1125.84,-192.85"/>
<polygon fill="#63b8ff" stroke="#63b8ff" points="1127.82,-195.83 1132.57,-186.36 1122.96,-190.8 1127.82,-195.83"/>
</a>
</g>
</g>
<!-- Node35 -->
<g id="Node000035" class="node">
<title>Node35</title>
<g id="a_Node000035"><a xlink:title=" ">
<polygon fill="#e0e0e0" stroke="#999999" points="1246.23,-185 1187.48,-185 1187.48,-165.75 1246.23,-165.75 1246.23,-185"/>
<text text-anchor="middle" x="1216.85" y="-171.5" font-family="Helvetica,sans-Serif" font-size="10.00">stdexcept</text>
</a>
</g>
</g>
<!-- Node20&#45;&gt;Node35 -->
<g id="edge67_Node000020_Node000035" class="edge">
<title>Node20&#45;&gt;Node35</title>
<g id="a_edge67_Node000020_Node000035"><a xlink:title=" ">
<path fill="none" stroke="#63b8ff" d="M1109.74,-220.59C1130.31,-212.1 1161.35,-199.29 1184.73,-189.64"/>
<polygon fill="#63b8ff" stroke="#63b8ff" points="1185.96,-192.5 1193.86,-185.45 1183.28,-186.03 1185.96,-192.5"/>
</a>
</g>
</g>
<!-- Node22&#45;&gt;Node2 -->
<g id="edge41_Node000022_Node000002" class="edge">
<title>Node22&#45;&gt;Node2</title>
<g id="a_edge41_Node000022_Node000002"><a xlink:title=" ">
<path fill="none" stroke="#63b8ff" d="M835.87,-115.25C754.42,-106.24 551.32,-83.75 449.71,-72.5"/>
<polygon fill="#63b8ff" stroke="#63b8ff" points="450.35,-68.94 440.02,-71.32 449.58,-75.9 450.35,-68.94"/>
</a>
</g>
</g>
<!-- Node22&#45;&gt;Node4 -->
<g id="edge42_Node000022_Node000004" class="edge">
<title>Node22&#45;&gt;Node4</title>
<g id="a_edge42_Node000022_Node000004"><a xlink:title=" ">
<path fill="none" stroke="#63b8ff" d="M905.56,-112.01C908.36,-111.48 911.15,-110.97 913.85,-110.5 1154.57,-68.36 1446.11,-28.55 1545.62,-15.28"/>
<polygon fill="#63b8ff" stroke="#63b8ff" points="1545.8,-18.65 1555.25,-13.86 1544.88,-11.71 1545.8,-18.65"/>
</a>
</g>
</g>
<!-- Node22&#45;&gt;Node6 -->
<g id="edge43_Node000022_Node000006" class="edge">
<title>Node22&#45;&gt;Node6</title>
<g id="a_edge43_Node000022_Node000006"><a xlink:title=" ">
<path fill="none" stroke="#63b8ff" d="M866.58,-110.04C859.44,-95.9 843.68,-68.85 821.85,-55.25 761.85,-17.85 676.59,-10.97 631.17,-10.19"/>
<polygon fill="#63b8ff" stroke="#63b8ff" points="631.29,-6.69 621.26,-10.11 631.24,-13.69 631.29,-6.69"/>
</a>
</g>
</g>
<!-- Node22&#45;&gt;Node7 -->
<g id="edge44_Node000022_Node000007" class="edge">
<title>Node22&#45;&gt;Node7</title>
<g id="a_edge44_Node000022_Node000007"><a xlink:title=" ">
<path fill="none" stroke="#63b8ff" d="M874.05,-110.25C880.33,-92.76 894.44,-53.52 902.95,-29.84"/>
<polygon fill="#63b8ff" stroke="#63b8ff" points="906.53,-31.22 906.62,-20.63 899.94,-28.85 906.53,-31.22"/>
</a>
</g>
</g>
<!-- Node22&#45;&gt;Node11 -->
<g id="edge40_Node000022_Node000011" class="edge">
<title>Node22&#45;&gt;Node11</title>
<g id="a_edge40_Node000022_Node000011"><a xlink:title=" ">
<path fill="none" stroke="#63b8ff" d="M843.54,-110.09C817.17,-101.37 777.03,-88.09 747.61,-78.36"/>
<polygon fill="#63b8ff" stroke="#63b8ff" points="748.89,-74.77 738.3,-74.95 746.69,-81.42 748.89,-74.77"/>
</a>
</g>
</g>
<!-- Node23&#45;&gt;Node5 -->
<g id="edge47_Node000023_Node000005" class="edge">
<title>Node23&#45;&gt;Node5</title>
<g id="a_edge47_Node000023_Node000005"><a xlink:title=" ">
<path fill="none" stroke="#63b8ff" d="M967.55,-110.25C972.87,-92.76 984.81,-53.52 992.01,-29.84"/>
<polygon fill="#63b8ff" stroke="#63b8ff" points="995.55,-31.21 995.12,-20.63 988.86,-29.18 995.55,-31.21"/>
</a>
</g>
</g>
<!-- Node23&#45;&gt;Node6 -->
<g id="edge48_Node000023_Node000006" class="edge">
<title>Node23&#45;&gt;Node6</title>
<g id="a_edge48_Node000023_Node000006"><a xlink:title=" ">
<path fill="none" stroke="#63b8ff" d="M951.7,-110.18C930.56,-96.23 887.3,-69.44 846.85,-55.25 772.02,-28.99 678.75,-17.52 631.08,-13.07"/>
<polygon fill="#63b8ff" stroke="#63b8ff" points="631.53,-9.51 621.26,-12.11 630.91,-16.48 631.53,-9.51"/>
</a>
</g>
</g>
<!-- Node23&#45;&gt;Node7 -->
<g id="edge49_Node000023_Node000007" class="edge">
<title>Node23&#45;&gt;Node7</title>
<g id="a_edge49_Node000023_Node000007"><a xlink:title=" ">
<path fill="none" stroke="#63b8ff" d="M961.19,-110.31C955.94,-97.87 945.8,-74.51 935.85,-55.25 931.33,-46.5 925.9,-37.04 921.18,-29.09"/>
<polygon fill="#63b8ff" stroke="#63b8ff" points="923.67,-27.45 915.51,-20.7 917.68,-31.07 923.67,-27.45"/>
</a>
</g>
</g>
<!-- Node23&#45;&gt;Node11 -->
<g id="edge46_Node000023_Node000011" class="edge">
<title>Node23&#45;&gt;Node11</title>
<g id="a_edge46_Node000023_Node000011"><a xlink:title=" ">
<path fill="none" stroke="#63b8ff" d="M922.75,-110.33C877.47,-100.88 805.6,-85.87 758.09,-75.95"/>
<polygon fill="#63b8ff" stroke="#63b8ff" points="758.95,-72.34 748.45,-73.73 757.52,-79.2 758.95,-72.34"/>
</a>
</g>
</g>
<!-- Node24&#45;&gt;Node4 -->
<g id="edge57_Node000024_Node000004" class="edge">
<title>Node24&#45;&gt;Node4</title>
<g id="a_edge57_Node000024_Node000004"><a xlink:title=" ">
<path fill="none" stroke="#63b8ff" d="M1626.72,-165.47C1657.76,-145.74 1724.3,-96.8 1695.85,-55.25 1677.99,-29.16 1642.48,-18.32 1615.61,-13.82"/>
<polygon fill="#63b8ff" stroke="#63b8ff" points="1616.47,-10.26 1606.07,-12.29 1615.47,-17.19 1616.47,-10.26"/>
</a>
</g>
</g>
<!-- Node24&#45;&gt;Node7 -->
<g id="edge58_Node000024_Node000007" class="edge">
<title>Node24&#45;&gt;Node7</title>
<g id="a_edge58_Node000024_Node000007"><a xlink:title=" ">
<path fill="none" stroke="#63b8ff" d="M1597.69,-165.35C1560.77,-142.31 1457.81,-81.36 1362.85,-55.25 1192.03,-8.28 1141.71,-40.75 965.85,-19.25 958.24,-18.32 950.08,-17.16 942.4,-15.99"/>
<polygon fill="#63b8ff" stroke="#63b8ff" points="943.04,-12.39 932.62,-14.3 941.96,-19.31 943.04,-12.39"/>
</a>
</g>
</g>
<!-- Node25 -->
<g id="Node000025" class="node">
<title>Node25</title>
<g id="a_Node000025"><a xlink:href="pdqsort_8h.html" target="_top" xlink:title=" ">
<polygon fill="white" stroke="#666666" points="1652.1,-129.75 1595.6,-129.75 1595.6,-110.5 1652.1,-110.5 1652.1,-129.75"/>
<text text-anchor="middle" x="1623.85" y="-116.25" font-family="Helvetica,sans-Serif" font-size="10.00">pdqsort.h</text>
</a>
</g>
</g>
<!-- Node24&#45;&gt;Node25 -->
<g id="edge51_Node000024_Node000025" class="edge">
<title>Node24&#45;&gt;Node25</title>
<g id="a_edge51_Node000024_Node000025"><a xlink:title=" ">
<path fill="none" stroke="#63b8ff" d="M1613.84,-165.58C1615.35,-158.84 1617.51,-149.27 1619.43,-140.74"/>
<polygon fill="#63b8ff" stroke="#63b8ff" points="1623.04,-141.63 1621.83,-131.11 1616.22,-140.1 1623.04,-141.63"/>
</a>
</g>
</g>
<!-- Node25&#45;&gt;Node4 -->
<g id="edge53_Node000025_Node000004" class="edge">
<title>Node25&#45;&gt;Node4</title>
<g id="a_edge53_Node000025_Node000004"><a xlink:title=" ">
<path fill="none" stroke="#63b8ff" d="M1642.06,-110.09C1663.26,-98.32 1693.7,-76.68 1679.85,-55.25 1665.79,-33.48 1638.27,-22.22 1615.81,-16.46"/>
<polygon fill="#63b8ff" stroke="#63b8ff" points="1616.8,-12.87 1606.27,-14.06 1615.24,-19.69 1616.8,-12.87"/>
</a>
</g>
</g>
<!-- Node25&#45;&gt;Node26 -->
<g id="edge52_Node000025_Node000026" class="edge">
<title>Node25&#45;&gt;Node26</title>
<g id="a_edge52_Node000025_Node000026"><a xlink:title=" ">
<path fill="none" stroke="#63b8ff" d="M1652.52,-110.09C1680.49,-101.28 1723.23,-87.81 1754.19,-78.06"/>
<polygon fill="#63b8ff" stroke="#63b8ff" points="1755.12,-81.12 1763.61,-74.77 1753.02,-74.44 1755.12,-81.12"/>
</a>
</g>
</g>
<!-- Node25&#45;&gt;Node27 -->
<g id="edge54_Node000025_Node000027" class="edge">
<title>Node25&#45;&gt;Node27</title>
<g id="a_edge54_Node000025_Node000027"><a xlink:title=" ">
<path fill="none" stroke="#63b8ff" d="M1606.21,-110.09C1590.08,-101.83 1565.95,-89.48 1547.3,-79.93"/>
<polygon fill="#63b8ff" stroke="#63b8ff" points="1549.08,-76.39 1538.58,-74.95 1545.89,-82.63 1549.08,-76.39"/>
</a>
</g>
</g>
<!-- Node28 -->
<g id="Node000028" class="node">
<title>Node28</title>
<g id="a_Node000028"><a xlink:title=" ">
<polygon fill="#e0e0e0" stroke="#999999" points="1670.85,-74.5 1624.85,-74.5 1624.85,-55.25 1670.85,-55.25 1670.85,-74.5"/>
<text text-anchor="middle" x="1647.85" y="-61" font-family="Helvetica,sans-Serif" font-size="10.00">iterator</text>
</a>
</g>
</g>
<!-- Node25&#45;&gt;Node28 -->
<g id="edge55_Node000025_Node000028" class="edge">
<title>Node25&#45;&gt;Node28</title>
<g id="a_edge55_Node000025_Node000028"><a xlink:title=" ">
<path fill="none" stroke="#63b8ff" d="M1627.82,-110.33C1630.96,-103.36 1635.46,-93.37 1639.4,-84.62"/>
<polygon fill="#63b8ff" stroke="#63b8ff" points="1642.89,-86.41 1643.8,-75.86 1636.5,-83.54 1642.89,-86.41"/>
</a>
</g>
</g>
<!-- Node29 -->
<g id="Node000029" class="node">
<title>Node29</title>
<g id="a_Node000029"><a xlink:title=" ">
<polygon fill="#e0e0e0" stroke="#999999" points="1606.48,-74.5 1567.23,-74.5 1567.23,-55.25 1606.48,-55.25 1606.48,-74.5"/>
<text text-anchor="middle" x="1586.85" y="-61" font-family="Helvetica,sans-Serif" font-size="10.00">utility</text>
</a>
</g>
</g>
<!-- Node25&#45;&gt;Node29 -->
<g id="edge56_Node000025_Node000029" class="edge">
<title>Node25&#45;&gt;Node29</title>
<g id="a_edge56_Node000025_Node000029"><a xlink:title=" ">
<path fill="none" stroke="#63b8ff" d="M1617.74,-110.33C1612.74,-103.13 1605.5,-92.71 1599.28,-83.76"/>
<polygon fill="#63b8ff" stroke="#63b8ff" points="1601.68,-82.07 1593.1,-75.86 1595.93,-86.07 1601.68,-82.07"/>
</a>
</g>
</g>
</g>
</svg>
