<?xml version="1.0" encoding="UTF-8" standalone="no"?>
<!DOCTYPE svg PUBLIC "-//W3C//DTD SVG 1.1//EN"
 "http://www.w3.org/Graphics/SVG/1.1/DTD/svg11.dtd">
<!-- Generated by graphviz version 12.0.0 (20240704.0754)
 -->
<!-- Title: src/Ioss_Assembly.h Pages: 1 -->
<svg width="2639pt" height="160pt"
 viewBox="0.00 0.00 2638.75 160.25" xmlns="http://www.w3.org/2000/svg" xmlns:xlink="http://www.w3.org/1999/xlink">
<g id="graph0" class="graph" transform="scale(1 1) rotate(0) translate(4 156.25)">
<title>src/Ioss_Assembly.h</title>
<!-- Node1 -->
<g id="Node000001" class="node">
<title>Node1</title>
<g id="a_Node000001"><a xlink:title=" ">
<polygon fill="#999999" stroke="#666666" points="1464.88,-152.25 1358.12,-152.25 1358.12,-133 1464.88,-133 1464.88,-152.25"/>
<text text-anchor="middle" x="1411.5" y="-138.75" font-family="Helvetica,sans-Serif" font-size="10.00">src/Ioss_Assembly.h</text>
</a>
</g>
</g>
<!-- Node2 -->
<g id="Node000002" class="node">
<title>Node2</title>
<g id="a_Node000002"><a xlink:href="Ioss__Assembly_8C.html" target="_top" xlink:title=" ">
<polygon fill="white" stroke="#666666" points="109,-91.38 0,-91.38 0,-72.12 109,-72.12 109,-91.38"/>
<text text-anchor="middle" x="54.5" y="-77.88" font-family="Helvetica,sans-Serif" font-size="10.00">src/Ioss_Assembly.C</text>
</a>
</g>
</g>
<!-- Node1&#45;&gt;Node2 -->
<g id="edge1_Node000001_Node000002" class="edge">
<title>Node1&#45;&gt;Node2</title>
<g id="a_edge1_Node000001_Node000002"><a xlink:title=" ">
<path fill="none" stroke="#63b8ff" d="M1346.61,-140.97C1119.32,-138.43 359.95,-127.78 118.5,-97 109.13,-95.81 99.11,-93.89 89.84,-91.84"/>
<polygon fill="#63b8ff" stroke="#63b8ff" points="1346.42,-144.47 1356.46,-141.08 1346.5,-137.47 1346.42,-144.47"/>
</a>
</g>
</g>
<!-- Node3 -->
<g id="Node000003" class="node">
<title>Node3</title>
<g id="a_Node000003"><a xlink:href="Ioss__Compare_8C.html" target="_top" xlink:title=" ">
<polygon fill="white" stroke="#666666" points="233.88,-91.38 127.12,-91.38 127.12,-72.12 233.88,-72.12 233.88,-91.38"/>
<text text-anchor="middle" x="180.5" y="-77.88" font-family="Helvetica,sans-Serif" font-size="10.00">src/Ioss_Compare.C</text>
</a>
</g>
</g>
<!-- Node1&#45;&gt;Node3 -->
<g id="edge2_Node000001_Node000003" class="edge">
<title>Node1&#45;&gt;Node3</title>
<g id="a_edge2_Node000001_Node000003"><a xlink:title=" ">
<path fill="none" stroke="#63b8ff" d="M1346.54,-140.72C1133.8,-137.5 459.35,-125.29 243.5,-97 234.27,-95.79 224.4,-93.87 215.28,-91.82"/>
<polygon fill="#63b8ff" stroke="#63b8ff" points="1346.24,-144.21 1356.29,-140.86 1346.35,-137.22 1346.24,-144.21"/>
</a>
</g>
</g>
<!-- Node4 -->
<g id="Node000004" class="node">
<title>Node4</title>
<g id="a_Node000004"><a xlink:href="Ioss__CopyDatabase_8C.html" target="_top" xlink:title=" ">
<polygon fill="white" stroke="#666666" points="384.62,-91.38 252.38,-91.38 252.38,-72.12 384.62,-72.12 384.62,-91.38"/>
<text text-anchor="middle" x="318.5" y="-77.88" font-family="Helvetica,sans-Serif" font-size="10.00">src/Ioss_CopyDatabase.C</text>
</a>
</g>
</g>
<!-- Node1&#45;&gt;Node4 -->
<g id="edge3_Node000001_Node000004" class="edge">
<title>Node1&#45;&gt;Node4</title>
<g id="a_edge3_Node000001_Node000004"><a xlink:title=" ">
<path fill="none" stroke="#63b8ff" d="M1346.59,-142.01C1184.96,-142.27 751.72,-138.66 393.5,-97 382.7,-95.74 371.13,-93.83 360.38,-91.81"/>
<polygon fill="#63b8ff" stroke="#63b8ff" points="1346.25,-145.51 1356.24,-141.99 1346.23,-138.51 1346.25,-145.51"/>
</a>
</g>
</g>
<!-- Node5 -->
<g id="Node000005" class="node">
<title>Node5</title>
<g id="a_Node000005"><a xlink:href="Ioss__DatabaseIO_8C.html" target="_top" xlink:title=" ">
<polygon fill="white" stroke="#666666" points="522.25,-91.38 402.75,-91.38 402.75,-72.12 522.25,-72.12 522.25,-91.38"/>
<text text-anchor="middle" x="462.5" y="-77.88" font-family="Helvetica,sans-Serif" font-size="10.00">src/Ioss_DatabaseIO.C</text>
</a>
</g>
</g>
<!-- Node1&#45;&gt;Node5 -->
<g id="edge4_Node000001_Node000005" class="edge">
<title>Node1&#45;&gt;Node5</title>
<g id="a_edge4_Node000001_Node000005"><a xlink:title=" ">
<path fill="none" stroke="#63b8ff" d="M1346.27,-141.72C1199.9,-141.19 834.36,-135.72 531.5,-97 521.67,-95.74 511.16,-93.86 501.37,-91.86"/>
<polygon fill="#63b8ff" stroke="#63b8ff" points="1346.15,-145.22 1356.16,-141.75 1346.17,-138.22 1346.15,-145.22"/>
</a>
</g>
</g>
<!-- Node6 -->
<g id="Node000006" class="node">
<title>Node6</title>
<g id="a_Node000006"><a xlink:href="Ioss__Region_8C.html" target="_top" xlink:title=" ">
<polygon fill="white" stroke="#666666" points="638.38,-91.38 540.62,-91.38 540.62,-72.12 638.38,-72.12 638.38,-91.38"/>
<text text-anchor="middle" x="589.5" y="-77.88" font-family="Helvetica,sans-Serif" font-size="10.00">src/Ioss_Region.C</text>
</a>
</g>
</g>
<!-- Node1&#45;&gt;Node6 -->
<g id="edge5_Node000001_Node000006" class="edge">
<title>Node1&#45;&gt;Node6</title>
<g id="a_edge5_Node000001_Node000006"><a xlink:title=" ">
<path fill="none" stroke="#63b8ff" d="M1346.4,-141.81C1214,-141.32 904.16,-135.69 647.5,-97 639.2,-95.75 630.34,-93.86 622.11,-91.87"/>
<polygon fill="#63b8ff" stroke="#63b8ff" points="1346.37,-145.31 1356.38,-141.84 1346.39,-138.31 1346.37,-145.31"/>
</a>
</g>
</g>
<!-- Node7 -->
<g id="Node000007" class="node">
<title>Node7</title>
<g id="a_Node000007"><a xlink:href="Ioss__SubSystem_8h.html" target="_top" xlink:title=" ">
<polygon fill="white" stroke="#666666" points="772.38,-91.38 656.62,-91.38 656.62,-72.12 772.38,-72.12 772.38,-91.38"/>
<text text-anchor="middle" x="714.5" y="-77.88" font-family="Helvetica,sans-Serif" font-size="10.00">src/Ioss_SubSystem.h</text>
</a>
</g>
</g>
<!-- Node1&#45;&gt;Node7 -->
<g id="edge6_Node000001_Node000007" class="edge">
<title>Node1&#45;&gt;Node7</title>
<g id="a_edge6_Node000001_Node000007"><a xlink:title=" ">
<path fill="none" stroke="#63b8ff" d="M1346.37,-139.99C1231.69,-136.45 986.45,-125.91 781.5,-97 772.08,-95.67 762,-93.78 752.6,-91.81"/>
<polygon fill="#63b8ff" stroke="#63b8ff" points="1346.11,-143.48 1356.21,-140.29 1346.32,-136.49 1346.11,-143.48"/>
</a>
</g>
</g>
<!-- Node13 -->
<g id="Node000013" class="node">
<title>Node13</title>
<g id="a_Node000013"><a xlink:href="Iocatalyst__DatabaseIO_8C.html" target="_top" xlink:title=" ">
<polygon fill="white" stroke="#666666" points="902.88,-97 790.12,-97 790.12,-66.5 902.88,-66.5 902.88,-97"/>
<text text-anchor="start" x="798.12" y="-83.5" font-family="Helvetica,sans-Serif" font-size="10.00">src/catalyst/Iocatalyst</text>
<text text-anchor="middle" x="846.5" y="-72.25" font-family="Helvetica,sans-Serif" font-size="10.00">_DatabaseIO.C</text>
</a>
</g>
</g>
<!-- Node1&#45;&gt;Node13 -->
<g id="edge12_Node000001_Node000013" class="edge">
<title>Node1&#45;&gt;Node13</title>
<g id="a_edge12_Node000001_Node000013"><a xlink:title=" ">
<path fill="none" stroke="#63b8ff" d="M1346.74,-138.47C1251.11,-133.23 1066.7,-120.84 911.5,-97 908.76,-96.58 905.96,-96.11 903.14,-95.61"/>
<polygon fill="#63b8ff" stroke="#63b8ff" points="1346.27,-141.95 1356.44,-139 1346.64,-134.96 1346.27,-141.95"/>
</a>
</g>
</g>
<!-- Node14 -->
<g id="Node000014" class="node">
<title>Node14</title>
<g id="a_Node000014"><a xlink:href="Iocgns__DatabaseIO_8C.html" target="_top" xlink:title=" ">
<polygon fill="white" stroke="#666666" points="1074.5,-91.38 920.5,-91.38 920.5,-72.12 1074.5,-72.12 1074.5,-91.38"/>
<text text-anchor="middle" x="997.5" y="-77.88" font-family="Helvetica,sans-Serif" font-size="10.00">src/cgns/Iocgns_DatabaseIO.C</text>
</a>
</g>
</g>
<!-- Node1&#45;&gt;Node14 -->
<g id="edge13_Node000001_Node000014" class="edge">
<title>Node1&#45;&gt;Node14</title>
<g id="a_edge13_Node000001_Node000014"><a xlink:title=" ">
<path fill="none" stroke="#63b8ff" d="M1346.66,-133.37C1280.43,-124.8 1174.69,-110.75 1083.5,-97 1072.87,-95.4 1061.53,-93.59 1050.68,-91.81"/>
<polygon fill="#63b8ff" stroke="#63b8ff" points="1345.87,-136.79 1356.24,-134.6 1346.77,-129.85 1345.87,-136.79"/>
</a>
</g>
</g>
<!-- Node15 -->
<g id="Node000015" class="node">
<title>Node15</title>
<g id="a_Node000015"><a xlink:href="Iocgns__Utils_8C.html" target="_top" xlink:title=" ">
<polygon fill="white" stroke="#666666" points="1214.38,-91.38 1092.62,-91.38 1092.62,-72.12 1214.38,-72.12 1214.38,-91.38"/>
<text text-anchor="middle" x="1153.5" y="-77.88" font-family="Helvetica,sans-Serif" font-size="10.00">src/cgns/Iocgns_Utils.C</text>
</a>
</g>
</g>
<!-- Node1&#45;&gt;Node15 -->
<g id="edge14_Node000001_Node000015" class="edge">
<title>Node1&#45;&gt;Node15</title>
<g id="a_edge14_Node000001_Node000015"><a xlink:title=" ">
<path fill="none" stroke="#63b8ff" d="M1360.75,-130.04C1311.67,-118.84 1238.29,-102.1 1193.29,-91.83"/>
<polygon fill="#63b8ff" stroke="#63b8ff" points="1359.75,-133.41 1370.28,-132.22 1361.31,-126.58 1359.75,-133.41"/>
</a>
</g>
</g>
<!-- Node16 -->
<g id="Node000016" class="node">
<title>Node16</title>
<g id="a_Node000016"><a xlink:href="Ioex__BaseDatabaseIO_8C.html" target="_top" xlink:title=" ">
<polygon fill="white" stroke="#666666" points="1408.75,-91.38 1232.25,-91.38 1232.25,-72.12 1408.75,-72.12 1408.75,-91.38"/>
<text text-anchor="middle" x="1320.5" y="-77.88" font-family="Helvetica,sans-Serif" font-size="10.00">src/exodus/Ioex_BaseDatabaseIO.C</text>
</a>
</g>
</g>
<!-- Node1&#45;&gt;Node16 -->
<g id="edge15_Node000001_Node000016" class="edge">
<title>Node1&#45;&gt;Node16</title>
<g id="a_edge15_Node000001_Node000016"><a xlink:title=" ">
<path fill="none" stroke="#63b8ff" d="M1388.41,-126.68C1371.39,-115.67 1348.8,-101.06 1334.45,-91.78"/>
<polygon fill="#63b8ff" stroke="#63b8ff" points="1386.11,-129.37 1396.41,-131.86 1389.91,-123.49 1386.11,-129.37"/>
</a>
</g>
</g>
<!-- Node17 -->
<g id="Node000017" class="node">
<title>Node17</title>
<g id="a_Node000017"><a xlink:href="Ioex__DatabaseIO_8C.html" target="_top" xlink:title=" ">
<polygon fill="white" stroke="#666666" points="1580.5,-91.38 1426.5,-91.38 1426.5,-72.12 1580.5,-72.12 1580.5,-91.38"/>
<text text-anchor="middle" x="1503.5" y="-77.88" font-family="Helvetica,sans-Serif" font-size="10.00">src/exodus/Ioex_DatabaseIO.C</text>
</a>
</g>
</g>
<!-- Node1&#45;&gt;Node17 -->
<g id="edge16_Node000001_Node000017" class="edge">
<title>Node1&#45;&gt;Node17</title>
<g id="a_edge16_Node000001_Node000017"><a xlink:title=" ">
<path fill="none" stroke="#63b8ff" d="M1434.85,-126.68C1452.05,-115.67 1474.89,-101.06 1489.4,-91.78"/>
<polygon fill="#63b8ff" stroke="#63b8ff" points="1433.28,-123.53 1426.75,-131.87 1437.06,-129.43 1433.28,-123.53"/>
</a>
</g>
</g>
<!-- Node18 -->
<g id="Node000018" class="node">
<title>Node18</title>
<g id="a_Node000018"><a xlink:href="Ioex__Internals_8C.html" target="_top" xlink:title=" ">
<polygon fill="white" stroke="#666666" points="1738,-91.38 1599,-91.38 1599,-72.12 1738,-72.12 1738,-91.38"/>
<text text-anchor="middle" x="1668.5" y="-77.88" font-family="Helvetica,sans-Serif" font-size="10.00">src/exodus/Ioex_Internals.C</text>
</a>
</g>
</g>
<!-- Node1&#45;&gt;Node18 -->
<g id="edge17_Node000001_Node000018" class="edge">
<title>Node1&#45;&gt;Node18</title>
<g id="a_edge17_Node000001_Node000018"><a xlink:title=" ">
<path fill="none" stroke="#63b8ff" d="M1462.05,-130.04C1510.95,-118.84 1584.04,-102.1 1628.86,-91.83"/>
<polygon fill="#63b8ff" stroke="#63b8ff" points="1461.53,-126.57 1452.57,-132.22 1463.1,-133.4 1461.53,-126.57"/>
</a>
</g>
</g>
<!-- Node19 -->
<g id="Node000019" class="node">
<title>Node19</title>
<g id="a_Node000019"><a xlink:href="Ioexnl__BaseDatabaseIO_8C.html" target="_top" xlink:title=" ">
<polygon fill="white" stroke="#666666" points="1862.88,-97 1756.12,-97 1756.12,-66.5 1862.88,-66.5 1862.88,-97"/>
<text text-anchor="start" x="1764.12" y="-83.5" font-family="Helvetica,sans-Serif" font-size="10.00">src/exonull/Ioexnl</text>
<text text-anchor="middle" x="1809.5" y="-72.25" font-family="Helvetica,sans-Serif" font-size="10.00">_BaseDatabaseIO.C</text>
</a>
</g>
</g>
<!-- Node1&#45;&gt;Node19 -->
<g id="edge18_Node000001_Node000019" class="edge">
<title>Node1&#45;&gt;Node19</title>
<g id="a_edge18_Node000001_Node000019"><a xlink:title=" ">
<path fill="none" stroke="#63b8ff" d="M1476.64,-134.81C1544.53,-127.28 1653.9,-113.93 1747.5,-97 1750.22,-96.51 1752.99,-95.98 1755.8,-95.42"/>
<polygon fill="#63b8ff" stroke="#63b8ff" points="1476.34,-131.32 1466.78,-135.89 1477.11,-138.28 1476.34,-131.32"/>
</a>
</g>
</g>
<!-- Node20 -->
<g id="Node000020" class="node">
<title>Node20</title>
<g id="a_Node000020"><a xlink:href="Ioexnl__DatabaseIO_8C.html" target="_top" xlink:title=" ">
<polygon fill="white" stroke="#666666" points="1973.75,-97 1881.25,-97 1881.25,-66.5 1973.75,-66.5 1973.75,-97"/>
<text text-anchor="start" x="1889.25" y="-83.5" font-family="Helvetica,sans-Serif" font-size="10.00">src/exonull/Ioexnl</text>
<text text-anchor="middle" x="1927.5" y="-72.25" font-family="Helvetica,sans-Serif" font-size="10.00">_DatabaseIO.C</text>
</a>
</g>
</g>
<!-- Node1&#45;&gt;Node20 -->
<g id="edge19_Node000001_Node000020" class="edge">
<title>Node1&#45;&gt;Node20</title>
<g id="a_edge19_Node000001_Node000020"><a xlink:title=" ">
<path fill="none" stroke="#63b8ff" d="M1476.65,-138.44C1566.17,-133.35 1731.99,-121.37 1871.5,-97 1874.56,-96.46 1877.71,-95.85 1880.86,-95.18"/>
<polygon fill="#63b8ff" stroke="#63b8ff" points="1476.63,-134.93 1466.84,-138.98 1477.02,-141.92 1476.63,-134.93"/>
</a>
</g>
</g>
<!-- Node21 -->
<g id="Node000021" class="node">
<title>Node21</title>
<g id="a_Node000021"><a xlink:href="Ioexnl__Internals_8C.html" target="_top" xlink:title=" ">
<polygon fill="white" stroke="#666666" points="2084.75,-97 1992.25,-97 1992.25,-66.5 2084.75,-66.5 2084.75,-97"/>
<text text-anchor="start" x="2000.25" y="-83.5" font-family="Helvetica,sans-Serif" font-size="10.00">src/exonull/Ioexnl</text>
<text text-anchor="middle" x="2038.5" y="-72.25" font-family="Helvetica,sans-Serif" font-size="10.00">_Internals.C</text>
</a>
</g>
</g>
<!-- Node1&#45;&gt;Node21 -->
<g id="edge20_Node000001_Node000021" class="edge">
<title>Node1&#45;&gt;Node21</title>
<g id="a_edge20_Node000001_Node000021"><a xlink:title=" ">
<path fill="none" stroke="#63b8ff" d="M1476.49,-140.16C1582.92,-136.95 1800.7,-127.01 1982.5,-97 1985.57,-96.49 1988.71,-95.9 1991.88,-95.25"/>
<polygon fill="#63b8ff" stroke="#63b8ff" points="1476.41,-136.66 1466.52,-140.45 1476.61,-143.66 1476.41,-136.66"/>
</a>
</g>
</g>
<!-- Node22 -->
<g id="Node000022" class="node">
<title>Node22</title>
<g id="a_Node000022"><a xlink:href="io__info_8C.html" target="_top" xlink:title=" ">
<polygon fill="white" stroke="#666666" points="2160.25,-24.88 2064.75,-24.88 2064.75,-5.63 2160.25,-5.63 2160.25,-24.88"/>
<text text-anchor="middle" x="2112.5" y="-11.38" font-family="Helvetica,sans-Serif" font-size="10.00">src/main/io_info.C</text>
</a>
</g>
</g>
<!-- Node1&#45;&gt;Node22 -->
<g id="edge21_Node000001_Node000022" class="edge">
<title>Node1&#45;&gt;Node22</title>
<g id="a_edge21_Node000001_Node000022"><a xlink:title=" ">
<path fill="none" stroke="#63b8ff" d="M1476.49,-141.7C1637.85,-141.27 2047.1,-136.28 2093.5,-97 2114.71,-79.04 2114.74,-42.26 2113.47,-25.25"/>
<polygon fill="#63b8ff" stroke="#63b8ff" points="1476.82,-138.19 1466.83,-141.72 1476.84,-145.19 1476.82,-138.19"/>
</a>
</g>
</g>
<!-- Node23 -->
<g id="Node000023" class="node">
<title>Node23</title>
<g id="a_Node000023"><a xlink:href="io__info_8h.html" target="_top" xlink:title=" ">
<polygon fill="white" stroke="#666666" points="2234.12,-91.38 2140.88,-91.38 2140.88,-72.12 2234.12,-72.12 2234.12,-91.38"/>
<text text-anchor="middle" x="2187.5" y="-77.88" font-family="Helvetica,sans-Serif" font-size="10.00">src/main/io_info.h</text>
</a>
</g>
</g>
<!-- Node1&#45;&gt;Node23 -->
<g id="edge22_Node000001_Node000023" class="edge">
<title>Node1&#45;&gt;Node23</title>
<g id="a_edge22_Node000001_Node000023"><a xlink:title=" ">
<path fill="none" stroke="#63b8ff" d="M1476.52,-141.19C1602.58,-139.56 1888.74,-131.94 2126.5,-97 2135.22,-95.72 2144.52,-93.82 2153.17,-91.83"/>
<polygon fill="#63b8ff" stroke="#63b8ff" points="1476.66,-137.69 1466.7,-141.31 1476.74,-144.69 1476.66,-137.69"/>
</a>
</g>
</g>
<!-- Node25 -->
<g id="Node000025" class="node">
<title>Node25</title>
<g id="a_Node000025"><a xlink:href="io__modify_8C.html" target="_top" xlink:title=" ">
<polygon fill="white" stroke="#666666" points="2359.25,-91.38 2251.75,-91.38 2251.75,-72.12 2359.25,-72.12 2359.25,-91.38"/>
<text text-anchor="middle" x="2305.5" y="-77.88" font-family="Helvetica,sans-Serif" font-size="10.00">src/main/io_modify.C</text>
</a>
</g>
</g>
<!-- Node1&#45;&gt;Node25 -->
<g id="edge25_Node000001_Node000025" class="edge">
<title>Node1&#45;&gt;Node25</title>
<g id="a_edge25_Node000001_Node000025"><a xlink:title=" ">
<path fill="none" stroke="#63b8ff" d="M1476.73,-141.93C1617.5,-141.77 1959.97,-136.88 2243.5,-97 2252.47,-95.74 2262.05,-93.82 2270.94,-91.8"/>
<polygon fill="#63b8ff" stroke="#63b8ff" points="1476.86,-138.43 1466.86,-141.94 1476.86,-145.43 1476.86,-138.43"/>
</a>
</g>
</g>
<!-- Node26 -->
<g id="Node000026" class="node">
<title>Node26</title>
<g id="a_Node000026"><a xlink:href="Iotm__DatabaseIO_8C.html" target="_top" xlink:title=" ">
<polygon fill="white" stroke="#666666" points="2477.88,-97 2377.12,-97 2377.12,-66.5 2477.88,-66.5 2477.88,-97"/>
<text text-anchor="start" x="2385.12" y="-83.5" font-family="Helvetica,sans-Serif" font-size="10.00">src/text_mesh/Iotm</text>
<text text-anchor="middle" x="2427.5" y="-72.25" font-family="Helvetica,sans-Serif" font-size="10.00">_DatabaseIO.C</text>
</a>
</g>
</g>
<!-- Node1&#45;&gt;Node26 -->
<g id="edge26_Node000001_Node000026" class="edge">
<title>Node1&#45;&gt;Node26</title>
<g id="a_edge26_Node000001_Node000026"><a xlink:title=" ">
<path fill="none" stroke="#63b8ff" d="M1476.68,-140.2C1663.03,-135.88 2195.71,-121.67 2368.5,-97 2371.21,-96.61 2373.98,-96.16 2376.77,-95.65"/>
<polygon fill="#63b8ff" stroke="#63b8ff" points="1476.61,-136.7 1466.69,-140.43 1476.77,-143.7 1476.61,-136.7"/>
</a>
</g>
</g>
<!-- Node27 -->
<g id="Node000027" class="node">
<title>Node27</title>
<g id="a_Node000027"><a xlink:href="UnitTestIotmTextMeshFixture_8h.html" target="_top" xlink:title=" ">
<polygon fill="white" stroke="#666666" points="2630.75,-97 2496.25,-97 2496.25,-66.5 2630.75,-66.5 2630.75,-97"/>
<text text-anchor="start" x="2504.25" y="-83.5" font-family="Helvetica,sans-Serif" font-size="10.00">src/unit_tests/UnitTestIotm</text>
<text text-anchor="middle" x="2563.5" y="-72.25" font-family="Helvetica,sans-Serif" font-size="10.00">TextMeshFixture.h</text>
</a>
</g>
</g>
<!-- Node1&#45;&gt;Node27 -->
<g id="edge27_Node000001_Node000027" class="edge">
<title>Node1&#45;&gt;Node27</title>
<g id="a_edge27_Node000001_Node000027"><a xlink:title=" ">
<path fill="none" stroke="#63b8ff" d="M1476.45,-142.12C1644.18,-142.71 2105.42,-139.95 2486.5,-97 2489.61,-96.65 2492.78,-96.25 2495.97,-95.81"/>
<polygon fill="#63b8ff" stroke="#63b8ff" points="1476.64,-138.62 1466.63,-142.08 1476.61,-145.62 1476.64,-138.62"/>
</a>
</g>
</g>
<!-- Node8 -->
<g id="Node000008" class="node">
<title>Node8</title>
<g id="a_Node000008"><a xlink:href="Iofaodel__DatabaseIO_8C.html" target="_top" xlink:title=" ">
<polygon fill="white" stroke="#666666" points="486.62,-30.5 390.38,-30.5 390.38,0 486.62,0 486.62,-30.5"/>
<text text-anchor="start" x="398.38" y="-17" font-family="Helvetica,sans-Serif" font-size="10.00">src/faodel/Iofaodel</text>
<text text-anchor="middle" x="438.5" y="-5.75" font-family="Helvetica,sans-Serif" font-size="10.00">_DatabaseIO.C</text>
</a>
</g>
</g>
<!-- Node7&#45;&gt;Node8 -->
<g id="edge7_Node000007_Node000008" class="edge">
<title>Node7&#45;&gt;Node8</title>
<g id="a_edge7_Node000007_Node000008"><a xlink:title=" ">
<path fill="none" stroke="#63b8ff" d="M662.58,-69.14C618.16,-59.13 552.56,-44.18 495.5,-30.5 492.72,-29.83 489.87,-29.14 486.99,-28.44"/>
<polygon fill="#63b8ff" stroke="#63b8ff" points="661.68,-72.52 672.2,-71.3 663.21,-65.69 661.68,-72.52"/>
</a>
</g>
</g>
<!-- Node9 -->
<g id="Node000009" class="node">
<title>Node9</title>
<g id="a_Node000009"><a xlink:href="io__shell__ts_8C.html" target="_top" xlink:title=" ">
<polygon fill="white" stroke="#666666" points="618.25,-24.88 504.75,-24.88 504.75,-5.63 618.25,-5.63 618.25,-24.88"/>
<text text-anchor="middle" x="561.5" y="-11.38" font-family="Helvetica,sans-Serif" font-size="10.00">src/main/io_shell_ts.C</text>
</a>
</g>
</g>
<!-- Node7&#45;&gt;Node9 -->
<g id="edge8_Node000007_Node000009" class="edge">
<title>Node7&#45;&gt;Node9</title>
<g id="a_edge8_Node000007_Node000009"><a xlink:title=" ">
<path fill="none" stroke="#63b8ff" d="M682.59,-67.3C652.71,-54.7 608.91,-36.24 582.99,-25.31"/>
<polygon fill="#63b8ff" stroke="#63b8ff" points="680.93,-70.4 691.51,-71.06 683.65,-63.95 680.93,-70.4"/>
</a>
</g>
</g>
<!-- Node10 -->
<g id="Node000010" class="node">
<title>Node10</title>
<g id="a_Node000010"><a xlink:href="Iopg__DatabaseIO_8C.html" target="_top" xlink:title=" ">
<polygon fill="white" stroke="#666666" points="793,-24.88 636,-24.88 636,-5.63 793,-5.63 793,-24.88"/>
<text text-anchor="middle" x="714.5" y="-11.38" font-family="Helvetica,sans-Serif" font-size="10.00">src/pamgen/Iopg_DatabaseIO.C</text>
</a>
</g>
</g>
<!-- Node7&#45;&gt;Node10 -->
<g id="edge9_Node000007_Node000010" class="edge">
<title>Node7&#45;&gt;Node10</title>
<g id="a_edge9_Node000007_Node000010"><a xlink:title=" ">
<path fill="none" stroke="#63b8ff" d="M714.5,-60.27C714.5,-48.44 714.5,-34.16 714.5,-25.14"/>
<polygon fill="#63b8ff" stroke="#63b8ff" points="711,-60.27 714.5,-70.27 718,-60.27 711,-60.27"/>
</a>
</g>
</g>
<!-- Node11 -->
<g id="Node000011" class="node">
<title>Node11</title>
<g id="a_Node000011"><a xlink:href="Ut__ioad_8C.html" target="_top" xlink:title=" ">
<polygon fill="white" stroke="#666666" points="912.25,-24.88 810.75,-24.88 810.75,-5.63 912.25,-5.63 912.25,-24.88"/>
<text text-anchor="middle" x="861.5" y="-11.38" font-family="Helvetica,sans-Serif" font-size="10.00">src/utest/Ut_ioad.C</text>
</a>
</g>
</g>
<!-- Node7&#45;&gt;Node11 -->
<g id="edge10_Node000007_Node000011" class="edge">
<title>Node7&#45;&gt;Node11</title>
<g id="a_edge10_Node000007_Node000011"><a xlink:title=" ">
<path fill="none" stroke="#63b8ff" d="M745.54,-67.13C774.23,-54.54 816.06,-36.19 840.86,-25.31"/>
<polygon fill="#63b8ff" stroke="#63b8ff" points="744.39,-63.81 736.64,-71.04 747.2,-70.22 744.39,-63.81"/>
</a>
</g>
</g>
<!-- Node12 -->
<g id="Node000012" class="node">
<title>Node12</title>
<g id="a_Node000012"><a xlink:href="Iovs__exodus__DatabaseIO_8C.html" target="_top" xlink:title=" ">
<polygon fill="white" stroke="#666666" points="1072.88,-30.5 930.12,-30.5 930.12,0 1072.88,0 1072.88,-30.5"/>
<text text-anchor="start" x="938.12" y="-17" font-family="Helvetica,sans-Serif" font-size="10.00">src/visualization/exodus</text>
<text text-anchor="middle" x="1001.5" y="-5.75" font-family="Helvetica,sans-Serif" font-size="10.00">/Iovs_exodus_DatabaseIO.C</text>
</a>
</g>
</g>
<!-- Node7&#45;&gt;Node12 -->
<g id="edge11_Node000007_Node000012" class="edge">
<title>Node7&#45;&gt;Node12</title>
<g id="a_edge11_Node000007_Node000012"><a xlink:title=" ">
<path fill="none" stroke="#63b8ff" d="M765.98,-69.18C813.56,-58.49 884.47,-42.55 936.04,-30.96"/>
<polygon fill="#63b8ff" stroke="#63b8ff" points="765.48,-65.71 756.49,-71.31 767.01,-72.54 765.48,-65.71"/>
</a>
</g>
</g>
<!-- Node23&#45;&gt;Node22 -->
<g id="edge23_Node000023_Node000022" class="edge">
<title>Node23&#45;&gt;Node22</title>
<g id="a_edge23_Node000023_Node000022"><a xlink:title=" ">
<path fill="none" stroke="#63b8ff" d="M2168.38,-64.31C2153.9,-51.86 2134.56,-35.22 2122.84,-25.14"/>
<polygon fill="#63b8ff" stroke="#63b8ff" points="2166.06,-66.93 2175.92,-70.79 2170.62,-61.62 2166.06,-66.93"/>
</a>
</g>
</g>
<!-- Node24 -->
<g id="Node000024" class="node">
<title>Node24</title>
<g id="a_Node000024"><a xlink:href="io__info__main_8C.html" target="_top" xlink:title=" ">
<polygon fill="white" stroke="#666666" points="2300.38,-24.88 2178.62,-24.88 2178.62,-5.63 2300.38,-5.63 2300.38,-24.88"/>
<text text-anchor="middle" x="2239.5" y="-11.38" font-family="Helvetica,sans-Serif" font-size="10.00">src/main/io_info_main.C</text>
</a>
</g>
</g>
<!-- Node23&#45;&gt;Node24 -->
<g id="edge24_Node000023_Node000024" class="edge">
<title>Node23&#45;&gt;Node24</title>
<g id="a_edge24_Node000023_Node000024"><a xlink:title=" ">
<path fill="none" stroke="#63b8ff" d="M2201.91,-62.87C2211.81,-50.6 2224.52,-34.83 2232.33,-25.14"/>
<polygon fill="#63b8ff" stroke="#63b8ff" points="2199.23,-60.62 2195.68,-70.6 2204.68,-65.01 2199.23,-60.62"/>
</a>
</g>
</g>
<!-- Node28 -->
<g id="Node000028" class="node">
<title>Node28</title>
<g id="a_Node000028"><a xlink:href="UnitTestTextMesh_8C.html" target="_top" xlink:title=" ">
<polygon fill="white" stroke="#666666" points="2630.38,-30.5 2496.62,-30.5 2496.62,0 2630.38,0 2630.38,-30.5"/>
<text text-anchor="start" x="2504.62" y="-17" font-family="Helvetica,sans-Serif" font-size="10.00">src/unit_tests/UnitTestText</text>
<text text-anchor="middle" x="2563.5" y="-5.75" font-family="Helvetica,sans-Serif" font-size="10.00">Mesh.C</text>
</a>
</g>
</g>
<!-- Node27&#45;&gt;Node28 -->
<g id="edge28_Node000027_Node000028" class="edge">
<title>Node27&#45;&gt;Node28</title>
<g id="a_edge28_Node000027_Node000028"><a xlink:title=" ">
<path fill="none" stroke="#63b8ff" d="M2563.5,-54.81C2563.5,-46.64 2563.5,-37.91 2563.5,-30.83"/>
<polygon fill="#63b8ff" stroke="#63b8ff" points="2560,-54.6 2563.5,-64.6 2567,-54.6 2560,-54.6"/>
</a>
</g>
</g>
</g>
</svg>
