<?xml version="1.0" encoding="UTF-8" standalone="no"?>
<!DOCTYPE svg PUBLIC "-//W3C//DTD SVG 1.1//EN"
 "http://www.w3.org/Graphics/SVG/1.1/DTD/svg11.dtd">
<!-- Generated by graphviz version 11.0.0 (20240428.1522)
 -->
<!-- Title: src/Ioss_NamedSuffixVariableType.h Pages: 1 -->
<svg width="631pt" height="94pt"
 viewBox="0.00 0.00 630.50 93.75" xmlns="http://www.w3.org/2000/svg" xmlns:xlink="http://www.w3.org/1999/xlink">
<g id="graph0" class="graph" transform="scale(1 1) rotate(0) translate(4 89.75)">
<title>src/Ioss_NamedSuffixVariableType.h</title>
<!-- Node1 -->
<g id="Node000001" class="node">
<title>Node1</title>
<g id="a_Node000001"><a xlink:title=" ">
<polygon fill="#999999" stroke="#666666" points="384.62,-85.75 236.62,-85.75 236.62,-55.25 384.62,-55.25 384.62,-85.75"/>
<text text-anchor="start" x="244.62" y="-72.25" font-family="Helvetica,sans-Serif" font-size="10.00">src/Ioss_NamedSuffixVariable</text>
<text text-anchor="middle" x="310.62" y="-61" font-family="Helvetica,sans-Serif" font-size="10.00">Type.h</text>
</a>
</g>
</g>
<!-- Node2 -->
<g id="Node000002" class="node">
<title>Node2</title>
<g id="a_Node000002"><a xlink:href="Ioss__BasisVariableType_8C.html" target="_top" xlink:title=" ">
<polygon fill="white" stroke="#666666" points="147.25,-19.25 0,-19.25 0,0 147.25,0 147.25,-19.25"/>
<text text-anchor="middle" x="73.62" y="-5.75" font-family="Helvetica,sans-Serif" font-size="10.00">src/Ioss_BasisVariableType.C</text>
</a>
</g>
</g>
<!-- Node1&#45;&gt;Node2 -->
<g id="edge1_Node000001_Node000002" class="edge">
<title>Node1&#45;&gt;Node2</title>
<g id="a_edge1_Node000001_Node000002"><a xlink:title=" ">
<path fill="none" stroke="#63b8ff" d="M240.52,-52.09C197.81,-41.47 144.96,-28.35 110.32,-19.74"/>
<polygon fill="#63b8ff" stroke="#63b8ff" points="239.41,-55.42 249.96,-54.43 241.1,-48.62 239.41,-55.42"/>
</a>
</g>
</g>
<!-- Node3 -->
<g id="Node000003" class="node">
<title>Node3</title>
<g id="a_Node000003"><a xlink:href="Ioss__VariableType_8C.html" target="_top" xlink:title=" ">
<polygon fill="white" stroke="#666666" points="287.88,-19.25 165.38,-19.25 165.38,0 287.88,0 287.88,-19.25"/>
<text text-anchor="middle" x="226.62" y="-5.75" font-family="Helvetica,sans-Serif" font-size="10.00">src/Ioss_VariableType.C</text>
</a>
</g>
</g>
<!-- Node1&#45;&gt;Node3 -->
<g id="edge2_Node000001_Node000003" class="edge">
<title>Node1&#45;&gt;Node3</title>
<g id="a_edge2_Node000001_Node000003"><a xlink:title=" ">
<path fill="none" stroke="#63b8ff" d="M280.52,-48.4C266.46,-38.55 250.46,-27.33 239.57,-19.7"/>
<polygon fill="#63b8ff" stroke="#63b8ff" points="278.42,-51.2 288.62,-54.08 282.44,-45.47 278.42,-51.2"/>
</a>
</g>
</g>
<!-- Node4 -->
<g id="Node000004" class="node">
<title>Node4</title>
<g id="a_Node000004"><a xlink:href="Ioex__BaseDatabaseIO_8C.html" target="_top" xlink:title=" ">
<polygon fill="white" stroke="#666666" points="482.88,-19.25 306.38,-19.25 306.38,0 482.88,0 482.88,-19.25"/>
<text text-anchor="middle" x="394.62" y="-5.75" font-family="Helvetica,sans-Serif" font-size="10.00">src/exodus/Ioex_BaseDatabaseIO.C</text>
</a>
</g>
</g>
<!-- Node1&#45;&gt;Node4 -->
<g id="edge3_Node000001_Node000004" class="edge">
<title>Node1&#45;&gt;Node4</title>
<g id="a_edge3_Node000001_Node000004"><a xlink:title=" ">
<path fill="none" stroke="#63b8ff" d="M340.73,-48.4C354.79,-38.55 370.79,-27.33 381.68,-19.7"/>
<polygon fill="#63b8ff" stroke="#63b8ff" points="338.81,-45.47 332.63,-54.08 342.83,-51.2 338.81,-45.47"/>
</a>
</g>
</g>
<!-- Node5 -->
<g id="Node000005" class="node">
<title>Node5</title>
<g id="a_Node000005"><a xlink:href="Ioex__Utils_8C.html" target="_top" xlink:title=" ">
<polygon fill="white" stroke="#666666" points="622.5,-19.25 500.75,-19.25 500.75,0 622.5,0 622.5,-19.25"/>
<text text-anchor="middle" x="561.62" y="-5.75" font-family="Helvetica,sans-Serif" font-size="10.00">src/exodus/Ioex_Utils.C</text>
</a>
</g>
</g>
<!-- Node1&#45;&gt;Node5 -->
<g id="edge4_Node000001_Node000005" class="edge">
<title>Node1&#45;&gt;Node5</title>
<g id="a_edge4_Node000001_Node000005"><a xlink:title=" ">
<path fill="none" stroke="#63b8ff" d="M384.29,-52.22C429.63,-41.59 485.92,-28.38 522.76,-19.74"/>
<polygon fill="#63b8ff" stroke="#63b8ff" points="383.73,-48.76 374.79,-54.45 385.32,-55.57 383.73,-48.76"/>
</a>
</g>
</g>
</g>
</svg>
