<?xml version="1.0" encoding="UTF-8" standalone="no"?>
<!DOCTYPE svg PUBLIC "-//W3C//DTD SVG 1.1//EN"
 "http://www.w3.org/Graphics/SVG/1.1/DTD/svg11.dtd">
<!-- Generated by graphviz version 6.0.1 (20220911.1526)
 -->
<!-- Title: src/Ioss_ZoneConnectivity.C Pages: 1 -->
<svg width="1354pt" height="302pt"
 viewBox="0.00 0.00 1354.00 302.00" xmlns="http://www.w3.org/2000/svg" xmlns:xlink="http://www.w3.org/1999/xlink">
<g id="graph0" class="graph" transform="scale(1 1) rotate(0) translate(4 298)">
<title>src/Ioss_ZoneConnectivity.C</title>
<!-- Node1 -->
<g id="node1" class="node">
<title>Node1</title>
<g id="a_node1"><a xlink:title=" ">
<polygon fill="#999999" stroke="#666666" points="988.5,-294 845.5,-294 845.5,-275 988.5,-275 988.5,-294"/>
<text text-anchor="middle" x="917" y="-282" font-family="Helvetica,sans-Serif" font-size="10.00">src/Ioss_ZoneConnectivity.C</text>
</a>
</g>
</g>
<!-- Node2 -->
<g id="node2" class="node">
<title>Node2</title>
<g id="a_node2"><a xlink:href="Ioss__Utils_8h.html" target="_top" xlink:title=" ">
<polygon fill="white" stroke="#666666" points="756.5,-239 687.5,-239 687.5,-220 756.5,-220 756.5,-239"/>
<text text-anchor="middle" x="722" y="-227" font-family="Helvetica,sans-Serif" font-size="10.00">Ioss_Utils.h</text>
</a>
</g>
</g>
<!-- Node1&#45;&gt;Node2 -->
<g id="edge1" class="edge">
<title>Node1&#45;&gt;Node2</title>
<path fill="none" stroke="#63b8ff" d="M885.67,-274.98C852.51,-265.97 800,-251.7 763.44,-241.76"/>
<polygon fill="#63b8ff" stroke="#63b8ff" points="764.14,-238.33 753.58,-239.08 762.31,-245.08 764.14,-238.33"/>
</g>
<!-- Node5 -->
<g id="node5" class="node">
<title>Node5</title>
<g id="a_node5"><a xlink:title=" ">
<polygon fill="#e0e0e0" stroke="#999999" points="1071.5,-19 1022.5,-19 1022.5,0 1071.5,0 1071.5,-19"/>
<text text-anchor="middle" x="1047" y="-7" font-family="Helvetica,sans-Serif" font-size="10.00">cstddef</text>
</a>
</g>
</g>
<!-- Node1&#45;&gt;Node5 -->
<g id="edge57" class="edge">
<title>Node1&#45;&gt;Node5</title>
<path fill="none" stroke="#63b8ff" d="M964.27,-274.92C1011.45,-263.44 1080.87,-237.92 1109,-184 1124.26,-154.75 1124.43,-141.62 1115,-110 1105.1,-76.79 1079.54,-44.9 1062.74,-26.53"/>
<polygon fill="#63b8ff" stroke="#63b8ff" points="1065.12,-23.96 1055.72,-19.08 1060.03,-28.76 1065.12,-23.96"/>
</g>
<!-- Node7 -->
<g id="node7" class="node">
<title>Node7</title>
<g id="a_node7"><a xlink:title=" ">
<polygon fill="#e0e0e0" stroke="#999999" points="272.5,-19 231.5,-19 231.5,0 272.5,0 272.5,-19"/>
<text text-anchor="middle" x="252" y="-7" font-family="Helvetica,sans-Serif" font-size="10.00">string</text>
</a>
</g>
</g>
<!-- Node1&#45;&gt;Node7 -->
<g id="edge59" class="edge">
<title>Node1&#45;&gt;Node7</title>
<path fill="none" stroke="#63b8ff" d="M845.43,-282.56C629.61,-278.79 0,-260.51 0,-175.5 0,-175.5 0,-175.5 0,-118.5 0,-23.36 153.61,-10.95 220.97,-10.08"/>
<polygon fill="#63b8ff" stroke="#63b8ff" points="221.39,-13.58 231.38,-10.03 221.36,-6.58 221.39,-13.58"/>
</g>
<!-- Node8 -->
<g id="node8" class="node">
<title>Node8</title>
<g id="a_node8"><a xlink:title=" ">
<polygon fill="#e0e0e0" stroke="#999999" points="864,-19 820,-19 820,0 864,0 864,-19"/>
<text text-anchor="middle" x="842" y="-7" font-family="Helvetica,sans-Serif" font-size="10.00">vector</text>
</a>
</g>
</g>
<!-- Node1&#45;&gt;Node8 -->
<g id="edge60" class="edge">
<title>Node1&#45;&gt;Node8</title>
<path fill="none" stroke="#63b8ff" d="M940.52,-274.89C999.57,-251.92 1146.06,-185.7 1098,-110 1049.38,-33.42 931.65,-15.71 874.37,-11.66"/>
<polygon fill="#63b8ff" stroke="#63b8ff" points="874.28,-8.15 864.09,-11.04 873.86,-15.14 874.28,-8.15"/>
</g>
<!-- Node31 -->
<g id="node31" class="node">
<title>Node31</title>
<g id="a_node31"><a xlink:href="Ioss__ZoneConnectivity_8h.html" target="_top" xlink:title=" ">
<polygon fill="white" stroke="#666666" points="152,-129 28,-129 28,-110 152,-110 152,-129"/>
<text text-anchor="middle" x="90" y="-117" font-family="Helvetica,sans-Serif" font-size="10.00">Ioss_ZoneConnectivity.h</text>
</a>
</g>
</g>
<!-- Node1&#45;&gt;Node31 -->
<g id="edge52" class="edge">
<title>Node1&#45;&gt;Node31</title>
<path fill="none" stroke="#63b8ff" d="M845.29,-284.06C711.5,-282.89 416.6,-269.78 187,-184 156.72,-172.69 126.27,-150.59 107.77,-135.68"/>
<polygon fill="#63b8ff" stroke="#63b8ff" points="109.87,-132.87 99.92,-129.21 105.41,-138.27 109.87,-132.87"/>
</g>
<!-- Node32 -->
<g id="node32" class="node">
<title>Node32</title>
<g id="a_node32"><a xlink:title=" ">
<polygon fill="#e0e0e0" stroke="#999999" points="1260.5,-239 1183.5,-239 1183.5,-220 1260.5,-220 1260.5,-239"/>
<text text-anchor="middle" x="1222" y="-227" font-family="Helvetica,sans-Serif" font-size="10.00">fmt/ostream.h</text>
</a>
</g>
</g>
<!-- Node1&#45;&gt;Node32 -->
<g id="edge58" class="edge">
<title>Node1&#45;&gt;Node32</title>
<path fill="none" stroke="#63b8ff" d="M966,-274.98C1022.91,-265.1 1116.23,-248.88 1173.1,-239"/>
<polygon fill="#63b8ff" stroke="#63b8ff" points="1174.02,-242.39 1183.28,-237.23 1172.83,-235.49 1174.02,-242.39"/>
</g>
<!-- Node3 -->
<g id="node3" class="node">
<title>Node3</title>
<g id="a_node3"><a xlink:href="Ioss__CodeTypes_8h.html" target="_top" xlink:title=" ">
<polygon fill="white" stroke="#666666" points="575,-74 477,-74 477,-55 575,-55 575,-74"/>
<text text-anchor="middle" x="526" y="-62" font-family="Helvetica,sans-Serif" font-size="10.00">Ioss_CodeTypes.h</text>
</a>
</g>
</g>
<!-- Node2&#45;&gt;Node3 -->
<g id="edge2" class="edge">
<title>Node2&#45;&gt;Node3</title>
<path fill="none" stroke="#63b8ff" d="M687.49,-229.11C648.9,-227.88 586.96,-219.87 550,-184 523.1,-157.89 522.05,-110.55 523.88,-84.3"/>
<polygon fill="#63b8ff" stroke="#63b8ff" points="527.38,-84.44 524.8,-74.17 520.41,-83.81 527.38,-84.44"/>
</g>
<!-- Node2&#45;&gt;Node5 -->
<g id="edge45" class="edge">
<title>Node2&#45;&gt;Node5</title>
<path fill="none" stroke="#63b8ff" d="M756.96,-226.67C819.33,-222.74 946.43,-211.51 980,-184 986.36,-178.79 1025.03,-71.98 1040.56,-28.59"/>
<polygon fill="#63b8ff" stroke="#63b8ff" points="1043.91,-29.62 1043.97,-19.03 1037.31,-27.27 1043.91,-29.62"/>
</g>
<!-- Node6 -->
<g id="node6" class="node">
<title>Node6</title>
<g id="a_node6"><a xlink:title=" ">
<polygon fill="#e0e0e0" stroke="#999999" points="450,-19 404,-19 404,0 450,0 450,-19"/>
<text text-anchor="middle" x="427" y="-7" font-family="Helvetica,sans-Serif" font-size="10.00">cstdint</text>
</a>
</g>
</g>
<!-- Node2&#45;&gt;Node6 -->
<g id="edge46" class="edge">
<title>Node2&#45;&gt;Node6</title>
<path fill="none" stroke="#63b8ff" d="M687.3,-227.79C621.5,-225.67 482.28,-217.27 450,-184 439.34,-173.01 431.21,-71.81 428.23,-29.23"/>
<polygon fill="#63b8ff" stroke="#63b8ff" points="431.72,-28.86 427.55,-19.12 424.73,-29.33 431.72,-28.86"/>
</g>
<!-- Node2&#45;&gt;Node7 -->
<g id="edge50" class="edge">
<title>Node2&#45;&gt;Node7</title>
<path fill="none" stroke="#63b8ff" d="M687.21,-227.93C581.6,-225.85 270.05,-216.95 240,-184 200.54,-140.73 227.76,-63.45 243.27,-28.52"/>
<polygon fill="#63b8ff" stroke="#63b8ff" points="246.59,-29.67 247.62,-19.12 240.24,-26.73 246.59,-29.67"/>
</g>
<!-- Node2&#45;&gt;Node8 -->
<g id="edge51" class="edge">
<title>Node2&#45;&gt;Node8</title>
<path fill="none" stroke="#63b8ff" d="M756.89,-223.54C804.81,-214.53 888.44,-190.37 918,-129 937.03,-89.49 892.05,-47.15 863.43,-25.36"/>
<polygon fill="#63b8ff" stroke="#63b8ff" points="865.3,-22.38 855.17,-19.28 861.15,-28.02 865.3,-22.38"/>
</g>
<!-- Node11 -->
<g id="node11" class="node">
<title>Node11</title>
<g id="a_node11"><a xlink:href="Ioss__ElementTopology_8h.html" target="_top" xlink:title=" ">
<polygon fill="white" stroke="#666666" points="681,-184 559,-184 559,-165 681,-165 681,-184"/>
<text text-anchor="middle" x="620" y="-172" font-family="Helvetica,sans-Serif" font-size="10.00">Ioss_ElementTopology.h</text>
</a>
</g>
</g>
<!-- Node2&#45;&gt;Node11 -->
<g id="edge10" class="edge">
<title>Node2&#45;&gt;Node11</title>
<path fill="none" stroke="#63b8ff" d="M705.61,-219.98C689.43,-211.57 664.43,-198.59 645.62,-188.81"/>
<polygon fill="#63b8ff" stroke="#63b8ff" points="647.17,-185.68 636.69,-184.17 643.95,-191.89 647.17,-185.68"/>
</g>
<!-- Node17 -->
<g id="node17" class="node">
<title>Node17</title>
<g id="a_node17"><a xlink:href="Ioss__EntityType_8h.html" target="_top" xlink:title=" ">
<polygon fill="white" stroke="#666666" points="343.5,-184 248.5,-184 248.5,-165 343.5,-165 343.5,-184"/>
<text text-anchor="middle" x="296" y="-172" font-family="Helvetica,sans-Serif" font-size="10.00">Ioss_EntityType.h</text>
</a>
</g>
</g>
<!-- Node2&#45;&gt;Node17 -->
<g id="edge23" class="edge">
<title>Node2&#45;&gt;Node17</title>
<path fill="none" stroke="#63b8ff" d="M687.35,-224.43C622.61,-216.8 478.91,-199.68 358,-184 356.7,-183.83 355.38,-183.66 354.05,-183.48"/>
<polygon fill="#63b8ff" stroke="#63b8ff" points="354.09,-179.96 343.72,-182.11 353.17,-186.9 354.09,-179.96"/>
</g>
<!-- Node18 -->
<g id="node18" class="node">
<title>Node18</title>
<g id="a_node18"><a xlink:href="Ioss__Field_8h.html" target="_top" xlink:title=" ">
<polygon fill="white" stroke="#666666" points="909,-129 839,-129 839,-110 909,-110 909,-129"/>
<text text-anchor="middle" x="874" y="-117" font-family="Helvetica,sans-Serif" font-size="10.00">Ioss_Field.h</text>
</a>
</g>
</g>
<!-- Node2&#45;&gt;Node18 -->
<g id="edge24" class="edge">
<title>Node2&#45;&gt;Node18</title>
<path fill="none" stroke="#63b8ff" d="M752.9,-219.96C774.86,-212.83 804.19,-201.06 826,-184 842.27,-171.27 855.91,-151.75 864.44,-137.72"/>
<polygon fill="#63b8ff" stroke="#63b8ff" points="867.49,-139.43 869.5,-129.03 861.44,-135.91 867.49,-139.43"/>
</g>
<!-- Node19 -->
<g id="node19" class="node">
<title>Node19</title>
<g id="a_node19"><a xlink:href="Ioss__Property_8h.html" target="_top" xlink:title=" ">
<polygon fill="white" stroke="#666666" points="421,-74 337,-74 337,-55 421,-55 421,-74"/>
<text text-anchor="middle" x="379" y="-62" font-family="Helvetica,sans-Serif" font-size="10.00">Ioss_Property.h</text>
</a>
</g>
</g>
<!-- Node2&#45;&gt;Node19 -->
<g id="edge29" class="edge">
<title>Node2&#45;&gt;Node19</title>
<path fill="none" stroke="#63b8ff" d="M687.28,-227.93C616.15,-226.05 457.22,-218.06 417,-184 387.42,-158.95 380.63,-110.79 379.23,-84.23"/>
<polygon fill="#63b8ff" stroke="#63b8ff" points="382.72,-83.89 378.9,-74 375.72,-84.11 382.72,-83.89"/>
</g>
<!-- Node20 -->
<g id="node20" class="node">
<title>Node20</title>
<g id="a_node20"><a xlink:href="Ioss__Sort_8h.html" target="_top" xlink:title=" ">
<polygon fill="white" stroke="#666666" points="1088.5,-129 1021.5,-129 1021.5,-110 1088.5,-110 1088.5,-129"/>
<text text-anchor="middle" x="1055" y="-117" font-family="Helvetica,sans-Serif" font-size="10.00">Ioss_Sort.h</text>
</a>
</g>
</g>
<!-- Node2&#45;&gt;Node20 -->
<g id="edge33" class="edge">
<title>Node2&#45;&gt;Node20</title>
<path fill="none" stroke="#63b8ff" d="M756.54,-226.7C824.15,-222.62 971.02,-210.85 1013,-184 1029.66,-173.34 1041.2,-153.44 1047.91,-138.75"/>
<polygon fill="#63b8ff" stroke="#63b8ff" points="1051.28,-139.75 1051.94,-129.18 1044.83,-137.03 1051.28,-139.75"/>
</g>
<!-- Node22 -->
<g id="node22" class="node">
<title>Node22</title>
<g id="a_node22"><a xlink:title=" ">
<polygon fill="#e0e0e0" stroke="#999999" points="1346,-19 1290,-19 1290,0 1346,0 1346,-19"/>
<text text-anchor="middle" x="1318" y="-7" font-family="Helvetica,sans-Serif" font-size="10.00">algorithm</text>
</a>
</g>
</g>
<!-- Node2&#45;&gt;Node22 -->
<g id="edge42" class="edge">
<title>Node2&#45;&gt;Node22</title>
<path fill="none" stroke="#63b8ff" d="M756.96,-227.97C816.08,-226.12 938.85,-218.09 1036,-184 1145.1,-145.72 1256.85,-60.49 1299.73,-25.71"/>
<polygon fill="#63b8ff" stroke="#63b8ff" points="1302.07,-28.32 1307.59,-19.28 1297.64,-22.91 1302.07,-28.32"/>
</g>
<!-- Node26 -->
<g id="node26" class="node">
<title>Node26</title>
<g id="a_node26"><a xlink:title=" ">
<polygon fill="#e0e0e0" stroke="#999999" points="166.5,-74 117.5,-74 117.5,-55 166.5,-55 166.5,-74"/>
<text text-anchor="middle" x="142" y="-62" font-family="Helvetica,sans-Serif" font-size="10.00">cassert</text>
</a>
</g>
</g>
<!-- Node2&#45;&gt;Node26 -->
<g id="edge43" class="edge">
<title>Node2&#45;&gt;Node26</title>
<path fill="none" stroke="#63b8ff" d="M687.23,-227.43C577.6,-223.81 244.11,-210.69 204,-184 194.8,-177.87 164.97,-115.27 150.3,-83.62"/>
<polygon fill="#63b8ff" stroke="#63b8ff" points="153.32,-81.81 145.96,-74.19 146.96,-84.74 153.32,-81.81"/>
</g>
<!-- Node27 -->
<g id="node27" class="node">
<title>Node27</title>
<g id="a_node27"><a xlink:title=" ">
<polygon fill="#e0e0e0" stroke="#999999" points="503,-184 459,-184 459,-165 503,-165 503,-184"/>
<text text-anchor="middle" x="481" y="-172" font-family="Helvetica,sans-Serif" font-size="10.00">cmath</text>
</a>
</g>
</g>
<!-- Node2&#45;&gt;Node27 -->
<g id="edge44" class="edge">
<title>Node2&#45;&gt;Node27</title>
<path fill="none" stroke="#63b8ff" d="M687.5,-221.21C646.73,-212.55 576.85,-197.56 517,-184 515.73,-183.71 514.44,-183.42 513.13,-183.12"/>
<polygon fill="#63b8ff" stroke="#63b8ff" points="513.6,-179.63 503.07,-180.78 512.02,-186.45 513.6,-179.63"/>
</g>
<!-- Node28 -->
<g id="node28" class="node">
<title>Node28</title>
<g id="a_node28"><a xlink:title=" ">
<polygon fill="#e0e0e0" stroke="#999999" points="744.5,-184 699.5,-184 699.5,-165 744.5,-165 744.5,-184"/>
<text text-anchor="middle" x="722" y="-172" font-family="Helvetica,sans-Serif" font-size="10.00">cstdlib</text>
</a>
</g>
</g>
<!-- Node2&#45;&gt;Node28 -->
<g id="edge47" class="edge">
<title>Node2&#45;&gt;Node28</title>
<path fill="none" stroke="#63b8ff" d="M722,-219.75C722,-212.8 722,-202.85 722,-194.13"/>
<polygon fill="#63b8ff" stroke="#63b8ff" points="725.5,-194.09 722,-184.09 718.5,-194.09 725.5,-194.09"/>
</g>
<!-- Node29 -->
<g id="node29" class="node">
<title>Node29</title>
<g id="a_node29"><a xlink:title=" ">
<polygon fill="#e0e0e0" stroke="#999999" points="817,-184 763,-184 763,-165 817,-165 817,-184"/>
<text text-anchor="middle" x="790" y="-172" font-family="Helvetica,sans-Serif" font-size="10.00">iostream</text>
</a>
</g>
</g>
<!-- Node2&#45;&gt;Node29 -->
<g id="edge48" class="edge">
<title>Node2&#45;&gt;Node29</title>
<path fill="none" stroke="#63b8ff" d="M732.93,-219.98C743.08,-212.07 758.42,-200.11 770.65,-190.58"/>
<polygon fill="#63b8ff" stroke="#63b8ff" points="773.14,-193.08 778.88,-184.17 768.84,-187.56 773.14,-193.08"/>
</g>
<!-- Node30 -->
<g id="node30" class="node">
<title>Node30</title>
<g id="a_node30"><a xlink:title=" ">
<polygon fill="#e0e0e0" stroke="#999999" points="970.5,-184 911.5,-184 911.5,-165 970.5,-165 970.5,-184"/>
<text text-anchor="middle" x="941" y="-172" font-family="Helvetica,sans-Serif" font-size="10.00">stdexcept</text>
</a>
</g>
</g>
<!-- Node2&#45;&gt;Node30 -->
<g id="edge49" class="edge">
<title>Node2&#45;&gt;Node30</title>
<path fill="none" stroke="#63b8ff" d="M756.7,-220.1C796.06,-210.58 860.12,-195.07 901.4,-185.08"/>
<polygon fill="#63b8ff" stroke="#63b8ff" points="902.48,-188.42 911.38,-182.67 900.83,-181.62 902.48,-188.42"/>
</g>
<!-- Node4 -->
<g id="node4" class="node">
<title>Node4</title>
<g id="a_node4"><a xlink:title=" ">
<polygon fill="#e0e0e0" stroke="#999999" points="367,-19 329,-19 329,0 367,0 367,-19"/>
<text text-anchor="middle" x="348" y="-7" font-family="Helvetica,sans-Serif" font-size="10.00">array</text>
</a>
</g>
</g>
<!-- Node3&#45;&gt;Node4 -->
<g id="edge3" class="edge">
<title>Node3&#45;&gt;Node4</title>
<path fill="none" stroke="#63b8ff" d="M497.4,-54.98C464.41,-45.16 410.46,-29.1 377.22,-19.2"/>
<polygon fill="#63b8ff" stroke="#63b8ff" points="377.79,-15.72 367.2,-16.22 375.79,-22.43 377.79,-15.72"/>
</g>
<!-- Node3&#45;&gt;Node5 -->
<g id="edge4" class="edge">
<title>Node3&#45;&gt;Node5</title>
<path fill="none" stroke="#63b8ff" d="M575.02,-56.14C578.06,-55.74 581.07,-55.36 584,-55 743.64,-35.64 935.07,-19.47 1012.24,-13.25"/>
<polygon fill="#63b8ff" stroke="#63b8ff" points="1012.67,-16.72 1022.36,-12.43 1012.11,-9.75 1012.67,-16.72"/>
</g>
<!-- Node3&#45;&gt;Node6 -->
<g id="edge5" class="edge">
<title>Node3&#45;&gt;Node6</title>
<path fill="none" stroke="#63b8ff" d="M510.09,-54.98C494.45,-46.61 470.34,-33.7 452.12,-23.95"/>
<polygon fill="#63b8ff" stroke="#63b8ff" points="453.66,-20.8 443.2,-19.17 450.36,-26.98 453.66,-20.8"/>
</g>
<!-- Node3&#45;&gt;Node7 -->
<g id="edge6" class="edge">
<title>Node3&#45;&gt;Node7</title>
<path fill="none" stroke="#63b8ff" d="M481.98,-54.98C426.03,-44.16 330.9,-25.76 282.4,-16.38"/>
<polygon fill="#63b8ff" stroke="#63b8ff" points="282.99,-12.93 272.51,-14.47 281.66,-19.8 282.99,-12.93"/>
</g>
<!-- Node3&#45;&gt;Node8 -->
<g id="edge7" class="edge">
<title>Node3&#45;&gt;Node8</title>
<path fill="none" stroke="#63b8ff" d="M575.03,-55.28C640.5,-44.3 754.64,-25.15 810.03,-15.86"/>
<polygon fill="#63b8ff" stroke="#63b8ff" points="810.69,-19.3 819.98,-14.19 809.54,-12.4 810.69,-19.3"/>
</g>
<!-- Node9 -->
<g id="node9" class="node">
<title>Node9</title>
<g id="a_node9"><a xlink:title=" ">
<polygon fill="#e0e0e0" stroke="#999999" points="584,-19 468,-19 468,0 584,0 584,-19"/>
<text text-anchor="middle" x="526" y="-7" font-family="Helvetica,sans-Serif" font-size="10.00">SEACASIoss_config.h</text>
</a>
</g>
</g>
<!-- Node3&#45;&gt;Node9 -->
<g id="edge8" class="edge">
<title>Node3&#45;&gt;Node9</title>
<path fill="none" stroke="#63b8ff" d="M526,-54.75C526,-47.8 526,-37.85 526,-29.13"/>
<polygon fill="#63b8ff" stroke="#63b8ff" points="529.5,-29.09 526,-19.09 522.5,-29.09 529.5,-29.09"/>
</g>
<!-- Node10 -->
<g id="node10" class="node">
<title>Node10</title>
<g id="a_node10"><a xlink:title=" ">
<polygon fill="#e0e0e0" stroke="#999999" points="655.5,-19 602.5,-19 602.5,0 655.5,0 655.5,-19"/>
<text text-anchor="middle" x="629" y="-7" font-family="Helvetica,sans-Serif" font-size="10.00">complex</text>
</a>
</g>
</g>
<!-- Node3&#45;&gt;Node10 -->
<g id="edge9" class="edge">
<title>Node3&#45;&gt;Node10</title>
<path fill="none" stroke="#63b8ff" d="M542.55,-54.98C558.89,-46.57 584.13,-33.59 603.13,-23.81"/>
<polygon fill="#63b8ff" stroke="#63b8ff" points="604.86,-26.86 612.15,-19.17 601.66,-20.63 604.86,-26.86"/>
</g>
<!-- Node11&#45;&gt;Node3 -->
<g id="edge11" class="edge">
<title>Node11&#45;&gt;Node3</title>
<path fill="none" stroke="#63b8ff" d="M599.68,-164.95C584.17,-157.49 563.27,-145.31 550,-129 539.42,-116 533.19,-97.85 529.74,-84.29"/>
<polygon fill="#63b8ff" stroke="#63b8ff" points="533.08,-83.16 527.46,-74.18 526.25,-84.7 533.08,-83.16"/>
</g>
<!-- Node11&#45;&gt;Node7 -->
<g id="edge21" class="edge">
<title>Node11&#45;&gt;Node7</title>
<path fill="none" stroke="#63b8ff" d="M568.13,-164.97C481.61,-149.76 313.15,-115.6 271,-74 259.11,-62.26 254.6,-43.41 252.91,-29.3"/>
<polygon fill="#63b8ff" stroke="#63b8ff" points="256.39,-28.89 252.09,-19.21 249.42,-29.47 256.39,-28.89"/>
</g>
<!-- Node11&#45;&gt;Node8 -->
<g id="edge22" class="edge">
<title>Node11&#45;&gt;Node8</title>
<path fill="none" stroke="#63b8ff" d="M681.21,-166.77C711.66,-160.87 747.51,-149.79 774,-129 807.47,-102.73 827.42,-55.09 836.37,-28.93"/>
<polygon fill="#63b8ff" stroke="#63b8ff" points="839.78,-29.75 839.53,-19.16 833.12,-27.59 839.78,-29.75"/>
</g>
<!-- Node12 -->
<g id="node12" class="node">
<title>Node12</title>
<g id="a_node12"><a xlink:href="Ioss__ElementPermutation_8h.html" target="_top" xlink:title=" ">
<polygon fill="white" stroke="#666666" points="744.5,-129 607.5,-129 607.5,-110 744.5,-110 744.5,-129"/>
<text text-anchor="middle" x="676" y="-117" font-family="Helvetica,sans-Serif" font-size="10.00">Ioss_ElementPermutation.h</text>
</a>
</g>
</g>
<!-- Node11&#45;&gt;Node12 -->
<g id="edge12" class="edge">
<title>Node11&#45;&gt;Node12</title>
<path fill="none" stroke="#63b8ff" d="M629,-164.98C637.19,-157.23 649.51,-145.58 659.47,-136.14"/>
<polygon fill="#63b8ff" stroke="#63b8ff" points="661.98,-138.59 666.84,-129.17 657.17,-133.5 661.98,-138.59"/>
</g>
<!-- Node15 -->
<g id="node15" class="node">
<title>Node15</title>
<g id="a_node15"><a xlink:title=" ">
<polygon fill="#e0e0e0" stroke="#999999" points="794.5,-74 759.5,-74 759.5,-55 794.5,-55 794.5,-74"/>
<text text-anchor="middle" x="777" y="-62" font-family="Helvetica,sans-Serif" font-size="10.00">map</text>
</a>
</g>
</g>
<!-- Node11&#45;&gt;Node15 -->
<g id="edge19" class="edge">
<title>Node11&#45;&gt;Node15</title>
<path fill="none" stroke="#63b8ff" d="M681.16,-165.19C706.47,-158.96 734.42,-148.07 754,-129 766.2,-117.13 771.96,-98.3 774.66,-84.22"/>
<polygon fill="#63b8ff" stroke="#63b8ff" points="778.14,-84.59 776.23,-74.17 771.23,-83.51 778.14,-84.59"/>
</g>
<!-- Node16 -->
<g id="node16" class="node">
<title>Node16</title>
<g id="a_node16"><a xlink:title=" ">
<polygon fill="#e0e0e0" stroke="#999999" points="589,-129 559,-129 559,-110 589,-110 589,-129"/>
<text text-anchor="middle" x="574" y="-117" font-family="Helvetica,sans-Serif" font-size="10.00">set</text>
</a>
</g>
</g>
<!-- Node11&#45;&gt;Node16 -->
<g id="edge20" class="edge">
<title>Node11&#45;&gt;Node16</title>
<path fill="none" stroke="#63b8ff" d="M612.4,-164.75C605.84,-157.18 596.18,-146.05 588.19,-136.84"/>
<polygon fill="#63b8ff" stroke="#63b8ff" points="590.65,-134.35 581.45,-129.09 585.37,-138.94 590.65,-134.35"/>
</g>
<!-- Node12&#45;&gt;Node3 -->
<g id="edge13" class="edge">
<title>Node12&#45;&gt;Node3</title>
<path fill="none" stroke="#63b8ff" d="M651.9,-109.98C627.12,-101.23 588.3,-87.51 560.31,-77.62"/>
<polygon fill="#63b8ff" stroke="#63b8ff" points="561.13,-74.2 550.54,-74.17 558.8,-80.8 561.13,-74.2"/>
</g>
<!-- Node12&#45;&gt;Node7 -->
<g id="edge17" class="edge">
<title>Node12&#45;&gt;Node7</title>
<path fill="none" stroke="#63b8ff" d="M607.3,-110.84C498.47,-98.65 298.31,-76.01 295,-74 277.8,-63.55 265.93,-43.31 259.08,-28.48"/>
<polygon fill="#63b8ff" stroke="#63b8ff" points="262.29,-27.08 255.14,-19.26 255.85,-29.83 262.29,-27.08"/>
</g>
<!-- Node12&#45;&gt;Node8 -->
<g id="edge18" class="edge">
<title>Node12&#45;&gt;Node8</title>
<path fill="none" stroke="#63b8ff" d="M684.66,-109.91C698.06,-96.91 725,-71.98 751,-55 770.22,-42.44 793.5,-31.12 811.7,-23.04"/>
<polygon fill="#63b8ff" stroke="#63b8ff" points="813.2,-26.21 820.97,-19.01 810.4,-19.79 813.2,-26.21"/>
</g>
<!-- Node13 -->
<g id="node13" class="node">
<title>Node13</title>
<g id="a_node13"><a xlink:title=" ">
<polygon fill="#e0e0e0" stroke="#999999" points="703,-74 651,-74 651,-55 703,-55 703,-74"/>
<text text-anchor="middle" x="677" y="-62" font-family="Helvetica,sans-Serif" font-size="10.00">assert.h</text>
</a>
</g>
</g>
<!-- Node12&#45;&gt;Node13 -->
<g id="edge14" class="edge">
<title>Node12&#45;&gt;Node13</title>
<path fill="none" stroke="#63b8ff" d="M676.17,-109.75C676.3,-102.8 676.48,-92.85 676.65,-84.13"/>
<polygon fill="#63b8ff" stroke="#63b8ff" points="680.15,-84.15 676.84,-74.09 673.15,-84.02 680.15,-84.15"/>
</g>
<!-- Node14 -->
<g id="node14" class="node">
<title>Node14</title>
<g id="a_node14"><a xlink:title=" ">
<polygon fill="#e0e0e0" stroke="#999999" points="633,-74 593,-74 593,-55 633,-55 633,-74"/>
<text text-anchor="middle" x="613" y="-62" font-family="Helvetica,sans-Serif" font-size="10.00">limits</text>
</a>
</g>
</g>
<!-- Node12&#45;&gt;Node14 -->
<g id="edge15" class="edge">
<title>Node12&#45;&gt;Node14</title>
<path fill="none" stroke="#63b8ff" d="M665.88,-109.98C656.56,-102.15 642.53,-90.34 631.26,-80.86"/>
<polygon fill="#63b8ff" stroke="#63b8ff" points="633.21,-77.93 623.31,-74.17 628.71,-83.29 633.21,-77.93"/>
</g>
<!-- Node12&#45;&gt;Node15 -->
<g id="edge16" class="edge">
<title>Node12&#45;&gt;Node15</title>
<path fill="none" stroke="#63b8ff" d="M692.23,-109.98C708.18,-101.61 732.78,-88.7 751.38,-78.95"/>
<polygon fill="#63b8ff" stroke="#63b8ff" points="753.25,-81.92 760.48,-74.17 750,-75.72 753.25,-81.92"/>
</g>
<!-- Node18&#45;&gt;Node3 -->
<g id="edge25" class="edge">
<title>Node18&#45;&gt;Node3</title>
<path fill="none" stroke="#63b8ff" d="M838.72,-113.13C779.14,-104.05 657.99,-85.6 585.22,-74.52"/>
<polygon fill="#63b8ff" stroke="#63b8ff" points="585.69,-71.05 575.28,-73.01 584.64,-77.97 585.69,-71.05"/>
</g>
<!-- Node18&#45;&gt;Node5 -->
<g id="edge26" class="edge">
<title>Node18&#45;&gt;Node5</title>
<path fill="none" stroke="#63b8ff" d="M887.86,-109.84C917.6,-91.28 987.75,-47.49 1024.17,-24.75"/>
<polygon fill="#63b8ff" stroke="#63b8ff" points="1026.44,-27.46 1033.07,-19.2 1022.73,-21.52 1026.44,-27.46"/>
</g>
<!-- Node18&#45;&gt;Node7 -->
<g id="edge27" class="edge">
<title>Node18&#45;&gt;Node7</title>
<path fill="none" stroke="#63b8ff" d="M838.63,-115.91C719.54,-107.14 339.87,-78.86 328,-74 303.03,-63.77 280.11,-42.22 266.12,-27.07"/>
<polygon fill="#63b8ff" stroke="#63b8ff" points="268.57,-24.56 259.3,-19.43 263.34,-29.22 268.57,-24.56"/>
</g>
<!-- Node18&#45;&gt;Node8 -->
<g id="edge28" class="edge">
<title>Node18&#45;&gt;Node8</title>
<path fill="none" stroke="#63b8ff" d="M871.38,-109.66C866.18,-92.09 854.43,-52.45 847.47,-28.95"/>
<polygon fill="#63b8ff" stroke="#63b8ff" points="850.76,-27.75 844.57,-19.16 844.05,-29.74 850.76,-27.75"/>
</g>
<!-- Node19&#45;&gt;Node6 -->
<g id="edge30" class="edge">
<title>Node19&#45;&gt;Node6</title>
<path fill="none" stroke="#63b8ff" d="M386.93,-54.75C393.85,-47.11 404.07,-35.82 412.45,-26.56"/>
<polygon fill="#63b8ff" stroke="#63b8ff" points="415.1,-28.85 419.22,-19.09 409.91,-24.15 415.1,-28.85"/>
</g>
<!-- Node19&#45;&gt;Node7 -->
<g id="edge31" class="edge">
<title>Node19&#45;&gt;Node7</title>
<path fill="none" stroke="#63b8ff" d="M358.6,-54.98C337.98,-46.38 305.89,-32.99 282.31,-23.15"/>
<polygon fill="#63b8ff" stroke="#63b8ff" points="283.35,-19.79 272.78,-19.17 280.66,-26.25 283.35,-19.79"/>
</g>
<!-- Node19&#45;&gt;Node8 -->
<g id="edge32" class="edge">
<title>Node19&#45;&gt;Node8</title>
<path fill="none" stroke="#63b8ff" d="M421.32,-58.66C512.97,-48.16 728.14,-23.53 809.8,-14.19"/>
<polygon fill="#63b8ff" stroke="#63b8ff" points="810.43,-17.64 819.97,-13.02 809.64,-10.68 810.43,-17.64"/>
</g>
<!-- Node20&#45;&gt;Node5 -->
<g id="edge40" class="edge">
<title>Node20&#45;&gt;Node5</title>
<path fill="none" stroke="#63b8ff" d="M1058.28,-109.84C1062.48,-97.58 1068.79,-74.5 1065,-55 1063.21,-45.8 1059.52,-36.09 1055.94,-28.1"/>
<polygon fill="#63b8ff" stroke="#63b8ff" points="1059.09,-26.57 1051.62,-19.06 1052.77,-29.59 1059.09,-26.57"/>
</g>
<!-- Node20&#45;&gt;Node8 -->
<g id="edge41" class="edge">
<title>Node20&#45;&gt;Node8</title>
<path fill="none" stroke="#63b8ff" d="M1042.25,-109.79C1023.01,-96.86 985.18,-72.27 951,-55 925.69,-42.21 895.79,-30.21 873.72,-21.9"/>
<polygon fill="#63b8ff" stroke="#63b8ff" points="874.77,-18.56 864.17,-18.36 872.33,-25.12 874.77,-18.56"/>
</g>
<!-- Node21 -->
<g id="node21" class="node">
<title>Node21</title>
<g id="a_node21"><a xlink:href="pdqsort_8h.html" target="_top" xlink:title=" ">
<polygon fill="white" stroke="#666666" points="1212.5,-74 1155.5,-74 1155.5,-55 1212.5,-55 1212.5,-74"/>
<text text-anchor="middle" x="1184" y="-62" font-family="Helvetica,sans-Serif" font-size="10.00">pdqsort.h</text>
</a>
</g>
</g>
<!-- Node20&#45;&gt;Node21 -->
<g id="edge34" class="edge">
<title>Node20&#45;&gt;Node21</title>
<path fill="none" stroke="#63b8ff" d="M1075.73,-109.98C1096.76,-101.34 1129.55,-87.87 1153.54,-78.02"/>
<polygon fill="#63b8ff" stroke="#63b8ff" points="1154.98,-81.21 1162.9,-74.17 1152.32,-74.73 1154.98,-81.21"/>
</g>
<!-- Node21&#45;&gt;Node5 -->
<g id="edge36" class="edge">
<title>Node21&#45;&gt;Node5</title>
<path fill="none" stroke="#63b8ff" d="M1161.99,-54.98C1139.55,-46.3 1104.52,-32.75 1079.01,-22.88"/>
<polygon fill="#63b8ff" stroke="#63b8ff" points="1080,-19.51 1069.41,-19.17 1077.48,-26.04 1080,-19.51"/>
</g>
<!-- Node21&#45;&gt;Node22 -->
<g id="edge35" class="edge">
<title>Node21&#45;&gt;Node22</title>
<path fill="none" stroke="#63b8ff" d="M1205.53,-54.98C1227.47,-46.3 1261.74,-32.75 1286.69,-22.88"/>
<polygon fill="#63b8ff" stroke="#63b8ff" points="1288.07,-26.1 1296.08,-19.17 1285.49,-19.59 1288.07,-26.1"/>
</g>
<!-- Node23 -->
<g id="node23" class="node">
<title>Node23</title>
<g id="a_node23"><a xlink:title=" ">
<polygon fill="#e0e0e0" stroke="#999999" points="1213.5,-19 1154.5,-19 1154.5,0 1213.5,0 1213.5,-19"/>
<text text-anchor="middle" x="1184" y="-7" font-family="Helvetica,sans-Serif" font-size="10.00">functional</text>
</a>
</g>
</g>
<!-- Node21&#45;&gt;Node23 -->
<g id="edge37" class="edge">
<title>Node21&#45;&gt;Node23</title>
<path fill="none" stroke="#63b8ff" d="M1184,-54.75C1184,-47.8 1184,-37.85 1184,-29.13"/>
<polygon fill="#63b8ff" stroke="#63b8ff" points="1187.5,-29.09 1184,-19.09 1180.5,-29.09 1187.5,-29.09"/>
</g>
<!-- Node24 -->
<g id="node24" class="node">
<title>Node24</title>
<g id="a_node24"><a xlink:title=" ">
<polygon fill="#e0e0e0" stroke="#999999" points="1136.5,-19 1089.5,-19 1089.5,0 1136.5,0 1136.5,-19"/>
<text text-anchor="middle" x="1113" y="-7" font-family="Helvetica,sans-Serif" font-size="10.00">iterator</text>
</a>
</g>
</g>
<!-- Node21&#45;&gt;Node24 -->
<g id="edge38" class="edge">
<title>Node21&#45;&gt;Node24</title>
<path fill="none" stroke="#63b8ff" d="M1172.59,-54.98C1161.89,-47 1145.66,-34.88 1132.84,-25.31"/>
<polygon fill="#63b8ff" stroke="#63b8ff" points="1134.72,-22.35 1124.61,-19.17 1130.53,-27.96 1134.72,-22.35"/>
</g>
<!-- Node25 -->
<g id="node25" class="node">
<title>Node25</title>
<g id="a_node25"><a xlink:title=" ">
<polygon fill="#e0e0e0" stroke="#999999" points="1272,-19 1232,-19 1232,0 1272,0 1272,-19"/>
<text text-anchor="middle" x="1252" y="-7" font-family="Helvetica,sans-Serif" font-size="10.00">utility</text>
</a>
</g>
</g>
<!-- Node21&#45;&gt;Node25 -->
<g id="edge39" class="edge">
<title>Node21&#45;&gt;Node25</title>
<path fill="none" stroke="#63b8ff" d="M1194.93,-54.98C1205.08,-47.07 1220.42,-35.11 1232.65,-25.58"/>
<polygon fill="#63b8ff" stroke="#63b8ff" points="1235.14,-28.08 1240.88,-19.17 1230.84,-22.56 1235.14,-28.08"/>
</g>
<!-- Node31&#45;&gt;Node3 -->
<g id="edge53" class="edge">
<title>Node31&#45;&gt;Node3</title>
<path fill="none" stroke="#63b8ff" d="M152.01,-110.96C235.85,-100.77 384.34,-82.72 466.74,-72.7"/>
<polygon fill="#63b8ff" stroke="#63b8ff" points="467.19,-76.17 476.7,-71.49 466.35,-69.23 467.19,-76.17"/>
</g>
<!-- Node31&#45;&gt;Node4 -->
<g id="edge54" class="edge">
<title>Node31&#45;&gt;Node4</title>
<path fill="none" stroke="#63b8ff" d="M89.77,-109.63C89.93,-95.79 92.42,-69.2 108,-55 123.48,-40.9 258.1,-22.05 318.68,-14.19"/>
<polygon fill="#63b8ff" stroke="#63b8ff" points="319.27,-17.64 328.75,-12.89 318.38,-10.69 319.27,-17.64"/>
</g>
<!-- Node31&#45;&gt;Node7 -->
<g id="edge56" class="edge">
<title>Node31&#45;&gt;Node7</title>
<path fill="none" stroke="#63b8ff" d="M83.79,-109.73C75.25,-96.49 62.32,-71.26 75,-55 92.8,-32.17 175.4,-19.25 221.2,-13.74"/>
<polygon fill="#63b8ff" stroke="#63b8ff" points="221.66,-17.21 231.19,-12.58 220.85,-10.25 221.66,-17.21"/>
</g>
<!-- Node31&#45;&gt;Node26 -->
<g id="edge55" class="edge">
<title>Node31&#45;&gt;Node26</title>
<path fill="none" stroke="#63b8ff" d="M98.59,-109.75C106.16,-102.03 117.38,-90.6 126.51,-81.28"/>
<polygon fill="#63b8ff" stroke="#63b8ff" points="129.07,-83.68 133.57,-74.09 124.07,-78.78 129.07,-83.68"/>
</g>
</g>
</svg>
