<?xml version="1.0" encoding="UTF-8" standalone="no"?>
<!DOCTYPE svg PUBLIC "-//W3C//DTD SVG 1.1//EN"
 "http://www.w3.org/Graphics/SVG/1.1/DTD/svg11.dtd">
<!-- Generated by graphviz version 8.0.5 (20230430.1635)
 -->
<!-- Title: src/Ioss_Hex20.C Pages: 1 -->
<svg width="1798pt" height="414pt"
 viewBox="0.00 0.00 1797.99 414.00" xmlns="http://www.w3.org/2000/svg" xmlns:xlink="http://www.w3.org/1999/xlink">
<g id="graph0" class="graph" transform="scale(1 1) rotate(0) translate(4 410)">
<title>src/Ioss_Hex20.C</title>
<!-- Node1 -->
<g id="Node000001" class="node">
<title>Node1</title>
<g id="a_Node000001"><a xlink:title=" ">
<polygon fill="#999999" stroke="#666666" points="712.5,-406 617,-406 617,-386.75 712.5,-386.75 712.5,-406"/>
<text text-anchor="middle" x="664.75" y="-392.5" font-family="Helvetica,sans-Serif" font-size="10.00">src/Ioss_Hex20.C</text>
</a>
</g>
</g>
<!-- Node2 -->
<g id="Node000002" class="node">
<title>Node2</title>
<g id="a_Node000002"><a xlink:href="Ioss__CodeTypes_8h.html" target="_top" xlink:title=" ">
<polygon fill="white" stroke="#666666" points="1156.63,-74.5 1058.88,-74.5 1058.88,-55.25 1156.63,-55.25 1156.63,-74.5"/>
<text text-anchor="middle" x="1107.75" y="-61" font-family="Helvetica,sans-Serif" font-size="10.00">Ioss_CodeTypes.h</text>
</a>
</g>
</g>
<!-- Node1&#45;&gt;Node2 -->
<g id="edge1_Node000001_Node000002" class="edge">
<title>Node1&#45;&gt;Node2</title>
<g id="a_edge1_Node000001_Node000002"><a xlink:title=" ">
<path fill="none" stroke="#63b8ff" d="M712.87,-394.13C864.62,-388.97 1326.64,-363.2 1386.75,-240.25 1392.79,-227.9 1399.12,-192.34 1384.75,-165.75 1364.56,-128.37 1345.57,-127.76 1306.75,-110.5 1262.3,-90.73 1208.24,-79.33 1167.69,-73.01"/>
<polygon fill="#63b8ff" stroke="#63b8ff" points="1168.3,-69.41 1157.89,-71.39 1167.27,-76.33 1168.3,-69.41"/>
</a>
</g>
</g>
<!-- Node10 -->
<g id="Node000010" class="node">
<title>Node10</title>
<g id="a_Node000010"><a xlink:href="Ioss__ElementTopology_8h.html" target="_top" xlink:title=" ">
<polygon fill="white" stroke="#666666" points="261.63,-185 139.88,-185 139.88,-165.75 261.63,-165.75 261.63,-185"/>
<text text-anchor="middle" x="200.75" y="-171.5" font-family="Helvetica,sans-Serif" font-size="10.00">Ioss_ElementTopology.h</text>
</a>
</g>
</g>
<!-- Node1&#45;&gt;Node10 -->
<g id="edge9_Node000001_Node000010" class="edge">
<title>Node1&#45;&gt;Node10</title>
<g id="a_edge9_Node000001_Node000010"><a xlink:title=" ">
<path fill="none" stroke="#63b8ff" d="M616.76,-389.37C570.03,-382.74 497.4,-370.34 436.75,-350.75 380.88,-332.71 369.26,-321.77 316.75,-295.5 270.65,-272.43 245.75,-281.45 214.75,-240.25 205.14,-227.48 201.87,-209.44 200.87,-195.79"/>
<polygon fill="#63b8ff" stroke="#63b8ff" points="204.34,-196.02 200.47,-186.16 197.35,-196.29 204.34,-196.02"/>
</a>
</g>
</g>
<!-- Node17 -->
<g id="Node000017" class="node">
<title>Node17</title>
<g id="a_Node000017"><a xlink:href="Ioss__ElementVariableType_8h.html" target="_top" xlink:title=" ">
<polygon fill="white" stroke="#666666" points="734.63,-350.75 594.88,-350.75 594.88,-331.5 734.63,-331.5 734.63,-350.75"/>
<text text-anchor="middle" x="664.75" y="-337.25" font-family="Helvetica,sans-Serif" font-size="10.00">Ioss_ElementVariableType.h</text>
</a>
</g>
</g>
<!-- Node1&#45;&gt;Node17 -->
<g id="edge24_Node000001_Node000017" class="edge">
<title>Node1&#45;&gt;Node17</title>
<g id="a_edge24_Node000001_Node000017"><a xlink:title=" ">
<path fill="none" stroke="#63b8ff" d="M664.75,-386.58C664.75,-379.92 664.75,-370.49 664.75,-362.03"/>
<polygon fill="#63b8ff" stroke="#63b8ff" points="668.25,-362.11 664.75,-352.11 661.25,-362.11 668.25,-362.11"/>
</a>
</g>
</g>
<!-- Node29 -->
<g id="Node000029" class="node">
<title>Node29</title>
<g id="a_Node000029"><a xlink:title=" ">
<polygon fill="#e0e0e0" stroke="#999999" points="1322.88,-185 1274.63,-185 1274.63,-165.75 1322.88,-165.75 1322.88,-185"/>
<text text-anchor="middle" x="1298.75" y="-171.5" font-family="Helvetica,sans-Serif" font-size="10.00">cassert</text>
</a>
</g>
</g>
<!-- Node1&#45;&gt;Node29 -->
<g id="edge76_Node000001_Node000029" class="edge">
<title>Node1&#45;&gt;Node29</title>
<g id="a_edge76_Node000001_Node000029"><a xlink:title=" ">
<path fill="none" stroke="#63b8ff" d="M712.95,-392.36C858.16,-382.18 1286.57,-343.73 1369.75,-240.25 1385.53,-220.63 1357.61,-201.81 1332.28,-189.75"/>
<polygon fill="#63b8ff" stroke="#63b8ff" points="1334,-186.23 1323.44,-185.31 1331.12,-192.61 1334,-186.23"/>
</a>
</g>
</g>
<!-- Node36 -->
<g id="Node000036" class="node">
<title>Node36</title>
<g id="a_Node000036"><a xlink:href="Ioss__Hex20_8h.html" target="_top" xlink:title=" ">
<polygon fill="white" stroke="#666666" points="300.13,-240.25 223.38,-240.25 223.38,-221 300.13,-221 300.13,-240.25"/>
<text text-anchor="middle" x="261.75" y="-226.75" font-family="Helvetica,sans-Serif" font-size="10.00">Ioss_Hex20.h</text>
</a>
</g>
</g>
<!-- Node1&#45;&gt;Node36 -->
<g id="edge72_Node000001_Node000036" class="edge">
<title>Node1&#45;&gt;Node36</title>
<g id="a_edge72_Node000001_Node000036"><a xlink:title=" ">
<path fill="none" stroke="#63b8ff" d="M622.4,-386.26C560.71,-372.02 443.48,-341.3 351.75,-295.5 325.18,-282.24 297.8,-261.62 280.32,-247.42"/>
<polygon fill="#63b8ff" stroke="#63b8ff" points="283.08,-244.33 273.14,-240.65 278.62,-249.72 283.08,-244.33"/>
</a>
</g>
</g>
<!-- Node3 -->
<g id="Node000003" class="node">
<title>Node3</title>
<g id="a_Node000003"><a xlink:title=" ">
<polygon fill="#e0e0e0" stroke="#999999" points="1093.63,-19.25 1055.88,-19.25 1055.88,0 1093.63,0 1093.63,-19.25"/>
<text text-anchor="middle" x="1074.75" y="-5.75" font-family="Helvetica,sans-Serif" font-size="10.00">array</text>
</a>
</g>
</g>
<!-- Node2&#45;&gt;Node3 -->
<g id="edge2_Node000002_Node000003" class="edge">
<title>Node2&#45;&gt;Node3</title>
<g id="a_edge2_Node000002_Node000003"><a xlink:title=" ">
<path fill="none" stroke="#63b8ff" d="M1102.3,-55.08C1097.89,-47.96 1091.52,-37.68 1086.01,-28.8"/>
<polygon fill="#63b8ff" stroke="#63b8ff" points="1088.56,-27.27 1080.32,-20.61 1082.61,-30.95 1088.56,-27.27"/>
</a>
</g>
</g>
<!-- Node4 -->
<g id="Node000004" class="node">
<title>Node4</title>
<g id="a_Node000004"><a xlink:title=" ">
<polygon fill="#e0e0e0" stroke="#999999" points="1701.88,-19.25 1653.63,-19.25 1653.63,0 1701.88,0 1701.88,-19.25"/>
<text text-anchor="middle" x="1677.75" y="-5.75" font-family="Helvetica,sans-Serif" font-size="10.00">cstddef</text>
</a>
</g>
</g>
<!-- Node2&#45;&gt;Node4 -->
<g id="edge3_Node000002_Node000004" class="edge">
<title>Node2&#45;&gt;Node4</title>
<g id="a_edge3_Node000002_Node000004"><a xlink:title=" ">
<path fill="none" stroke="#63b8ff" d="M1156.84,-59.29C1269.58,-48.76 1544.79,-23.05 1642.57,-13.91"/>
<polygon fill="#63b8ff" stroke="#63b8ff" points="1642.7,-17.32 1652.33,-12.91 1642.05,-10.35 1642.7,-17.32"/>
</a>
</g>
</g>
<!-- Node5 -->
<g id="Node000005" class="node">
<title>Node5</title>
<g id="a_Node000005"><a xlink:title=" ">
<polygon fill="#e0e0e0" stroke="#999999" points="967.38,-19.25 922.13,-19.25 922.13,0 967.38,0 967.38,-19.25"/>
<text text-anchor="middle" x="944.75" y="-5.75" font-family="Helvetica,sans-Serif" font-size="10.00">cstdint</text>
</a>
</g>
</g>
<!-- Node2&#45;&gt;Node5 -->
<g id="edge4_Node000002_Node000005" class="edge">
<title>Node2&#45;&gt;Node5</title>
<g id="a_edge4_Node000002_Node000005"><a xlink:title=" ">
<path fill="none" stroke="#63b8ff" d="M1080.1,-54.84C1051.95,-45.65 1008.28,-31.38 978.2,-21.55"/>
<polygon fill="#63b8ff" stroke="#63b8ff" points="979.38,-17.93 968.79,-18.15 977.21,-24.58 979.38,-17.93"/>
</a>
</g>
</g>
<!-- Node6 -->
<g id="Node000006" class="node">
<title>Node6</title>
<g id="a_Node000006"><a xlink:title=" ">
<polygon fill="#e0e0e0" stroke="#999999" points="556.75,-19.25 516.75,-19.25 516.75,0 556.75,0 556.75,-19.25"/>
<text text-anchor="middle" x="536.75" y="-5.75" font-family="Helvetica,sans-Serif" font-size="10.00">string</text>
</a>
</g>
</g>
<!-- Node2&#45;&gt;Node6 -->
<g id="edge5_Node000002_Node000006" class="edge">
<title>Node2&#45;&gt;Node6</title>
<g id="a_edge5_Node000002_Node000006"><a xlink:title=" ">
<path fill="none" stroke="#63b8ff" d="M1058.58,-59.29C944.05,-48.61 662.16,-22.32 567.97,-13.54"/>
<polygon fill="#63b8ff" stroke="#63b8ff" points="568.47,-9.97 558.19,-12.53 567.82,-16.94 568.47,-9.97"/>
</a>
</g>
</g>
<!-- Node7 -->
<g id="Node000007" class="node">
<title>Node7</title>
<g id="a_Node000007"><a xlink:title=" ">
<polygon fill="#e0e0e0" stroke="#999999" points="1288.25,-19.25 1245.25,-19.25 1245.25,0 1288.25,0 1288.25,-19.25"/>
<text text-anchor="middle" x="1266.75" y="-5.75" font-family="Helvetica,sans-Serif" font-size="10.00">vector</text>
</a>
</g>
</g>
<!-- Node2&#45;&gt;Node7 -->
<g id="edge6_Node000002_Node000007" class="edge">
<title>Node2&#45;&gt;Node7</title>
<g id="a_edge6_Node000002_Node000007"><a xlink:title=" ">
<path fill="none" stroke="#63b8ff" d="M1134.72,-54.84C1162.34,-45.59 1205.27,-31.22 1234.63,-21.38"/>
<polygon fill="#63b8ff" stroke="#63b8ff" points="1235.41,-24.48 1243.78,-17.98 1233.18,-17.84 1235.41,-24.48"/>
</a>
</g>
</g>
<!-- Node8 -->
<g id="Node000008" class="node">
<title>Node8</title>
<g id="a_Node000008"><a xlink:title=" ">
<polygon fill="#e0e0e0" stroke="#999999" points="1227.63,-19.25 1111.88,-19.25 1111.88,0 1227.63,0 1227.63,-19.25"/>
<text text-anchor="middle" x="1169.75" y="-5.75" font-family="Helvetica,sans-Serif" font-size="10.00">SEACASIoss_config.h</text>
</a>
</g>
</g>
<!-- Node2&#45;&gt;Node8 -->
<g id="edge7_Node000002_Node000008" class="edge">
<title>Node2&#45;&gt;Node8</title>
<g id="a_edge7_Node000002_Node000008"><a xlink:title=" ">
<path fill="none" stroke="#63b8ff" d="M1118.27,-54.84C1127.23,-47.15 1140.33,-35.9 1151.06,-26.68"/>
<polygon fill="#63b8ff" stroke="#63b8ff" points="1153.08,-28.7 1158.39,-19.52 1148.52,-23.39 1153.08,-28.7"/>
</a>
</g>
</g>
<!-- Node9 -->
<g id="Node000009" class="node">
<title>Node9</title>
<g id="a_Node000009"><a xlink:title=" ">
<polygon fill="#e0e0e0" stroke="#999999" points="1038.13,-19.25 985.38,-19.25 985.38,0 1038.13,0 1038.13,-19.25"/>
<text text-anchor="middle" x="1011.75" y="-5.75" font-family="Helvetica,sans-Serif" font-size="10.00">complex</text>
</a>
</g>
</g>
<!-- Node2&#45;&gt;Node9 -->
<g id="edge8_Node000002_Node000009" class="edge">
<title>Node2&#45;&gt;Node9</title>
<g id="a_edge8_Node000002_Node000009"><a xlink:title=" ">
<path fill="none" stroke="#63b8ff" d="M1091.47,-54.84C1076.71,-46.66 1054.71,-34.46 1037.56,-24.94"/>
<polygon fill="#63b8ff" stroke="#63b8ff" points="1039.56,-21.49 1029.12,-19.7 1036.16,-27.61 1039.56,-21.49"/>
</a>
</g>
</g>
<!-- Node10&#45;&gt;Node2 -->
<g id="edge11_Node000010_Node000002" class="edge">
<title>Node10&#45;&gt;Node2</title>
<g id="a_edge11_Node000010_Node000002"><a xlink:title=" ">
<path fill="none" stroke="#63b8ff" d="M262.1,-169.68C352.87,-162.5 528.22,-147.71 676.75,-129.75 809.53,-113.7 964.5,-89.35 1047.66,-75.82"/>
<polygon fill="#63b8ff" stroke="#63b8ff" points="1048.11,-79.13 1057.42,-74.07 1046.99,-72.22 1048.11,-79.13"/>
</a>
</g>
</g>
<!-- Node10&#45;&gt;Node6 -->
<g id="edge22_Node000010_Node000006" class="edge">
<title>Node10&#45;&gt;Node6</title>
<g id="a_edge22_Node000010_Node000006"><a xlink:title=" ">
<path fill="none" stroke="#63b8ff" d="M139.76,-166.29C96.65,-159.17 44.22,-147.21 30.75,-129.75 10.53,-103.53 8.39,-79.67 30.75,-55.25 62.86,-20.18 399.98,-12.53 505.42,-10.99"/>
<polygon fill="#63b8ff" stroke="#63b8ff" points="505.32,-14.48 515.27,-10.84 505.22,-7.48 505.32,-14.48"/>
</a>
</g>
</g>
<!-- Node10&#45;&gt;Node7 -->
<g id="edge23_Node000010_Node000007" class="edge">
<title>Node10&#45;&gt;Node7</title>
<g id="a_edge23_Node000010_Node000007"><a xlink:title=" ">
<path fill="none" stroke="#63b8ff" d="M262.06,-172.55C478.52,-165.99 1195.03,-143.29 1214.75,-129.75 1248.14,-106.83 1260.27,-57.51 1264.54,-30.06"/>
<polygon fill="#63b8ff" stroke="#63b8ff" points="1268.1,-30.85 1265.96,-20.47 1261.16,-29.92 1268.1,-30.85"/>
</a>
</g>
</g>
<!-- Node11 -->
<g id="Node000011" class="node">
<title>Node11</title>
<g id="a_Node000011"><a xlink:title=" ">
<polygon fill="#e0e0e0" stroke="#999999" points="460,-74.5 385.5,-74.5 385.5,-55.25 460,-55.25 460,-74.5"/>
<text text-anchor="middle" x="422.75" y="-61" font-family="Helvetica,sans-Serif" font-size="10.00">ioss_export.h</text>
</a>
</g>
</g>
<!-- Node10&#45;&gt;Node11 -->
<g id="edge10_Node000010_Node000011" class="edge">
<title>Node10&#45;&gt;Node11</title>
<g id="a_edge10_Node000010_Node000011"><a xlink:title=" ">
<path fill="none" stroke="#63b8ff" d="M219.3,-165.31C258.15,-146.32 348.29,-102.27 394.43,-79.72"/>
<polygon fill="#63b8ff" stroke="#63b8ff" points="395.66,-82.53 403.1,-74.99 392.58,-76.24 395.66,-82.53"/>
</a>
</g>
</g>
<!-- Node12 -->
<g id="Node000012" class="node">
<title>Node12</title>
<g id="a_Node000012"><a xlink:href="Ioss__ElementPermutation_8h.html" target="_top" xlink:title=" ">
<polygon fill="white" stroke="#666666" points="176.13,-129.75 39.38,-129.75 39.38,-110.5 176.13,-110.5 176.13,-129.75"/>
<text text-anchor="middle" x="107.75" y="-116.25" font-family="Helvetica,sans-Serif" font-size="10.00">Ioss_ElementPermutation.h</text>
</a>
</g>
</g>
<!-- Node10&#45;&gt;Node12 -->
<g id="edge12_Node000010_Node000012" class="edge">
<title>Node10&#45;&gt;Node12</title>
<g id="a_edge12_Node000010_Node000012"><a xlink:title=" ">
<path fill="none" stroke="#63b8ff" d="M184.98,-165.34C170.68,-157.16 149.37,-144.96 132.76,-135.44"/>
<polygon fill="#63b8ff" stroke="#63b8ff" points="135.02,-132.13 124.61,-130.2 131.54,-138.21 135.02,-132.13"/>
</a>
</g>
</g>
<!-- Node15 -->
<g id="Node000015" class="node">
<title>Node15</title>
<g id="a_Node000015"><a xlink:title=" ">
<polygon fill="#e0e0e0" stroke="#999999" points="277.13,-74.5 242.38,-74.5 242.38,-55.25 277.13,-55.25 277.13,-74.5"/>
<text text-anchor="middle" x="259.75" y="-61" font-family="Helvetica,sans-Serif" font-size="10.00">map</text>
</a>
</g>
</g>
<!-- Node10&#45;&gt;Node15 -->
<g id="edge20_Node000010_Node000015" class="edge">
<title>Node10&#45;&gt;Node15</title>
<g id="a_edge20_Node000010_Node000015"><a xlink:title=" ">
<path fill="none" stroke="#63b8ff" d="M207.99,-165.54C214.92,-156.81 225.39,-142.89 232.75,-129.75 240.86,-115.29 248.05,-97.91 252.98,-84.93"/>
<polygon fill="#63b8ff" stroke="#63b8ff" points="256.52,-86.44 256.68,-75.85 249.95,-84.03 256.52,-86.44"/>
</a>
</g>
</g>
<!-- Node16 -->
<g id="Node000016" class="node">
<title>Node16</title>
<g id="a_Node000016"><a xlink:title=" ">
<polygon fill="#e0e0e0" stroke="#999999" points="223.5,-129.75 194,-129.75 194,-110.5 223.5,-110.5 223.5,-129.75"/>
<text text-anchor="middle" x="208.75" y="-116.25" font-family="Helvetica,sans-Serif" font-size="10.00">set</text>
</a>
</g>
</g>
<!-- Node10&#45;&gt;Node16 -->
<g id="edge21_Node000010_Node000016" class="edge">
<title>Node10&#45;&gt;Node16</title>
<g id="a_edge21_Node000010_Node000016"><a xlink:title=" ">
<path fill="none" stroke="#63b8ff" d="M202.07,-165.58C203.09,-158.84 204.52,-149.27 205.81,-140.74"/>
<polygon fill="#63b8ff" stroke="#63b8ff" points="209.38,-141.52 207.4,-131.11 202.46,-140.48 209.38,-141.52"/>
</a>
</g>
</g>
<!-- Node12&#45;&gt;Node2 -->
<g id="edge14_Node000012_Node000002" class="edge">
<title>Node12&#45;&gt;Node2</title>
<g id="a_edge14_Node000012_Node000002"><a xlink:title=" ">
<path fill="none" stroke="#63b8ff" d="M176.58,-111.2C179.34,-110.95 182.07,-110.71 184.75,-110.5 510.04,-84.44 901.13,-71.62 1048.08,-67.45"/>
<polygon fill="#63b8ff" stroke="#63b8ff" points="1047.75,-70.93 1057.65,-67.16 1047.56,-63.94 1047.75,-70.93"/>
</a>
</g>
</g>
<!-- Node12&#45;&gt;Node6 -->
<g id="edge18_Node000012_Node000006" class="edge">
<title>Node12&#45;&gt;Node6</title>
<g id="a_edge18_Node000012_Node000006"><a xlink:title=" ">
<path fill="none" stroke="#63b8ff" d="M117.44,-110.11C133.42,-95.82 166.93,-68.25 200.75,-55.25 307.05,-14.39 444.65,-9.81 505.48,-10"/>
<polygon fill="#63b8ff" stroke="#63b8ff" points="505.23,-13.51 515.26,-10.09 505.29,-6.51 505.23,-13.51"/>
</a>
</g>
</g>
<!-- Node12&#45;&gt;Node7 -->
<g id="edge19_Node000012_Node000007" class="edge">
<title>Node12&#45;&gt;Node7</title>
<g id="a_edge19_Node000012_Node000007"><a xlink:title=" ">
<path fill="none" stroke="#63b8ff" d="M126.45,-110.06C144.71,-101.16 173.26,-87.12 197.75,-74.5 213.88,-66.19 216.23,-59.98 233.75,-55.25 445.83,1.95 999.4,-52.62 1234.33,-19.17"/>
<polygon fill="#63b8ff" stroke="#63b8ff" points="1234.57,-22.52 1243.94,-17.56 1233.53,-15.6 1234.57,-22.52"/>
</a>
</g>
</g>
<!-- Node12&#45;&gt;Node11 -->
<g id="edge13_Node000012_Node000011" class="edge">
<title>Node12&#45;&gt;Node11</title>
<g id="a_edge13_Node000012_Node000011"><a xlink:title=" ">
<path fill="none" stroke="#63b8ff" d="M161.54,-110.03C221.3,-99.93 316.92,-83.77 374.39,-74.05"/>
<polygon fill="#63b8ff" stroke="#63b8ff" points="374.73,-77.37 384.01,-72.26 373.57,-70.47 374.73,-77.37"/>
</a>
</g>
</g>
<!-- Node13 -->
<g id="Node000013" class="node">
<title>Node13</title>
<g id="a_Node000013"><a xlink:title=" ">
<polygon fill="#e0e0e0" stroke="#999999" points="91.38,-74.5 40.13,-74.5 40.13,-55.25 91.38,-55.25 91.38,-74.5"/>
<text text-anchor="middle" x="65.75" y="-61" font-family="Helvetica,sans-Serif" font-size="10.00">assert.h</text>
</a>
</g>
</g>
<!-- Node12&#45;&gt;Node13 -->
<g id="edge15_Node000012_Node000013" class="edge">
<title>Node12&#45;&gt;Node13</title>
<g id="a_edge15_Node000012_Node000013"><a xlink:title=" ">
<path fill="none" stroke="#63b8ff" d="M100.82,-110.33C95.08,-103.05 86.74,-92.48 79.64,-83.48"/>
<polygon fill="#63b8ff" stroke="#63b8ff" points="81.78,-81.54 72.84,-75.86 76.28,-85.88 81.78,-81.54"/>
</a>
</g>
</g>
<!-- Node14 -->
<g id="Node000014" class="node">
<title>Node14</title>
<g id="a_Node000014"><a xlink:title=" ">
<polygon fill="#e0e0e0" stroke="#999999" points="148.38,-74.5 109.13,-74.5 109.13,-55.25 148.38,-55.25 148.38,-74.5"/>
<text text-anchor="middle" x="128.75" y="-61" font-family="Helvetica,sans-Serif" font-size="10.00">limits</text>
</a>
</g>
</g>
<!-- Node12&#45;&gt;Node14 -->
<g id="edge16_Node000012_Node000014" class="edge">
<title>Node12&#45;&gt;Node14</title>
<g id="a_edge16_Node000012_Node000014"><a xlink:title=" ">
<path fill="none" stroke="#63b8ff" d="M111.22,-110.33C113.94,-103.44 117.82,-93.59 121.25,-84.91"/>
<polygon fill="#63b8ff" stroke="#63b8ff" points="124.8,-86.45 125.21,-75.86 118.28,-83.88 124.8,-86.45"/>
</a>
</g>
</g>
<!-- Node12&#45;&gt;Node15 -->
<g id="edge17_Node000012_Node000015" class="edge">
<title>Node12&#45;&gt;Node15</title>
<g id="a_edge17_Node000012_Node000015"><a xlink:title=" ">
<path fill="none" stroke="#63b8ff" d="M133.54,-110.09C160.75,-100.56 203.53,-85.57 231.6,-75.74"/>
<polygon fill="#63b8ff" stroke="#63b8ff" points="232.66,-78.72 240.94,-72.12 230.34,-72.12 232.66,-78.72"/>
</a>
</g>
</g>
<!-- Node17&#45;&gt;Node2 -->
<g id="edge26_Node000017_Node000002" class="edge">
<title>Node17&#45;&gt;Node2</title>
<g id="a_edge26_Node000017_Node000002"><a xlink:title=" ">
<path fill="none" stroke="#63b8ff" d="M734.88,-335.44C905.12,-323.36 1329.27,-288.63 1369.75,-240.25 1415.61,-185.43 1338.97,-141.88 1274.75,-110.5 1241.08,-94.05 1200.52,-83.03 1167.8,-76.05"/>
<polygon fill="#63b8ff" stroke="#63b8ff" points="1168.53,-72.43 1158.03,-73.84 1167.12,-79.28 1168.53,-72.43"/>
</a>
</g>
</g>
<!-- Node17&#45;&gt;Node6 -->
<g id="edge71_Node000017_Node000006" class="edge">
<title>Node17&#45;&gt;Node6</title>
<g id="a_edge71_Node000017_Node000006"><a xlink:title=" ">
<path fill="none" stroke="#63b8ff" d="M606.54,-331.02C459.15,-306.56 78.47,-234.14 15.75,-129.75 -1.3,-101.36 -7.64,-79.64 14.75,-55.25 48.06,-18.97 398.72,-12.14 505.84,-10.89"/>
<polygon fill="#63b8ff" stroke="#63b8ff" points="505.59,-14.38 515.56,-10.78 505.52,-7.39 505.59,-14.38"/>
</a>
</g>
</g>
<!-- Node17&#45;&gt;Node11 -->
<g id="edge25_Node000017_Node000011" class="edge">
<title>Node17&#45;&gt;Node11</title>
<g id="a_edge25_Node000017_Node000011"><a xlink:title=" ">
<path fill="none" stroke="#63b8ff" d="M624.67,-331.11C576.64,-318.41 496.44,-290.93 446.75,-240.25 405.62,-198.3 412.73,-121 418.83,-85.12"/>
<polygon fill="#63b8ff" stroke="#63b8ff" points="422.39,-86.12 420.78,-75.64 415.51,-84.83 422.39,-86.12"/>
</a>
</g>
</g>
<!-- Node18 -->
<g id="Node000018" class="node">
<title>Node18</title>
<g id="a_Node000018"><a xlink:href="Ioss__VariableType_8h.html" target="_top" xlink:title=" ">
<polygon fill="white" stroke="#666666" points="1052.63,-295.5 948.88,-295.5 948.88,-276.25 1052.63,-276.25 1052.63,-295.5"/>
<text text-anchor="middle" x="1000.75" y="-282" font-family="Helvetica,sans-Serif" font-size="10.00">Ioss_VariableType.h</text>
</a>
</g>
</g>
<!-- Node17&#45;&gt;Node18 -->
<g id="edge27_Node000017_Node000018" class="edge">
<title>Node17&#45;&gt;Node18</title>
<g id="a_edge27_Node000017_Node000018"><a xlink:title=" ">
<path fill="none" stroke="#63b8ff" d="M722.13,-331.03C782.07,-321.53 875.83,-306.67 937.78,-296.85"/>
<polygon fill="#63b8ff" stroke="#63b8ff" points="938.25,-300.17 947.58,-295.14 937.16,-293.25 938.25,-300.17"/>
</a>
</g>
</g>
<!-- Node18&#45;&gt;Node2 -->
<g id="edge29_Node000018_Node000002" class="edge">
<title>Node18&#45;&gt;Node2</title>
<g id="a_edge29_Node000018_Node000002"><a xlink:title=" ">
<path fill="none" stroke="#63b8ff" d="M1052.97,-276.78C1137.53,-262.49 1298.33,-229.99 1331.75,-185 1336.85,-178.13 1336.33,-172.98 1331.75,-165.75 1311.1,-133.16 1207.44,-96.66 1148.64,-78.12"/>
<polygon fill="#63b8ff" stroke="#63b8ff" points="1149.8,-74.5 1139.21,-74.87 1147.72,-81.19 1149.8,-74.5"/>
</a>
</g>
</g>
<!-- Node18&#45;&gt;Node6 -->
<g id="edge69_Node000018_Node000006" class="edge">
<title>Node18&#45;&gt;Node6</title>
<g id="a_edge69_Node000018_Node000006"><a xlink:title=" ">
<path fill="none" stroke="#63b8ff" d="M948.65,-285.64C862.82,-284.28 690.14,-270.18 578.75,-185 530.97,-148.46 531.38,-67.78 534.47,-30.38"/>
<polygon fill="#63b8ff" stroke="#63b8ff" points="538.04,-30.78 535.55,-20.48 531.08,-30.09 538.04,-30.78"/>
</a>
</g>
</g>
<!-- Node18&#45;&gt;Node7 -->
<g id="edge70_Node000018_Node000007" class="edge">
<title>Node18&#45;&gt;Node7</title>
<g id="a_edge70_Node000018_Node000007"><a xlink:title=" ">
<path fill="none" stroke="#63b8ff" d="M1053.04,-282.33C1149.86,-277.08 1349.1,-263.55 1369.75,-240.25 1428.86,-173.56 1328.41,-67.39 1285.13,-26.97"/>
<polygon fill="#63b8ff" stroke="#63b8ff" points="1287.8,-24.76 1278.06,-20.59 1283.07,-29.92 1287.8,-24.76"/>
</a>
</g>
</g>
<!-- Node18&#45;&gt;Node11 -->
<g id="edge28_Node000018_Node000011" class="edge">
<title>Node18&#45;&gt;Node11</title>
<g id="a_edge28_Node000018_Node000011"><a xlink:title=" ">
<path fill="none" stroke="#63b8ff" d="M948.44,-283.93C820.96,-281.14 501.96,-271.13 465.75,-240.25 420.14,-201.35 418.79,-122.52 420.94,-85.68"/>
<polygon fill="#63b8ff" stroke="#63b8ff" points="424.49,-86.15 421.75,-75.92 417.51,-85.63 424.49,-86.15"/>
</a>
</g>
</g>
<!-- Node18&#45;&gt;Node15 -->
<g id="edge68_Node000018_Node000015" class="edge">
<title>Node18&#45;&gt;Node15</title>
<g id="a_edge68_Node000018_Node000015"><a xlink:title=" ">
<path fill="none" stroke="#63b8ff" d="M948.66,-285C828.58,-284.61 535.81,-279.53 446.75,-240.25 366.59,-204.89 298.89,-120.41 272.07,-83.56"/>
<polygon fill="#63b8ff" stroke="#63b8ff" points="274.55,-82 265.89,-75.9 268.85,-86.07 274.55,-82"/>
</a>
</g>
</g>
<!-- Node19 -->
<g id="Node000019" class="node">
<title>Node19</title>
<g id="a_Node000019"><a xlink:href="Ioss__Utils_8h.html" target="_top" xlink:title=" ">
<polygon fill="white" stroke="#666666" points="1035,-240.25 966.5,-240.25 966.5,-221 1035,-221 1035,-240.25"/>
<text text-anchor="middle" x="1000.75" y="-226.75" font-family="Helvetica,sans-Serif" font-size="10.00">Ioss_Utils.h</text>
</a>
</g>
</g>
<!-- Node18&#45;&gt;Node19 -->
<g id="edge30_Node000018_Node000019" class="edge">
<title>Node18&#45;&gt;Node19</title>
<g id="a_edge30_Node000018_Node000019"><a xlink:title=" ">
<path fill="none" stroke="#63b8ff" d="M1000.75,-276.08C1000.75,-269.42 1000.75,-259.99 1000.75,-251.53"/>
<polygon fill="#63b8ff" stroke="#63b8ff" points="1004.25,-251.61 1000.75,-241.61 997.25,-251.61 1004.25,-251.61"/>
</a>
</g>
</g>
<!-- Node26 -->
<g id="Node000026" class="node">
<title>Node26</title>
<g id="a_Node000026"><a xlink:title=" ">
<polygon fill="#e0e0e0" stroke="#999999" points="1763.75,-74.5 1705.75,-74.5 1705.75,-55.25 1763.75,-55.25 1763.75,-74.5"/>
<text text-anchor="middle" x="1734.75" y="-61" font-family="Helvetica,sans-Serif" font-size="10.00">functional</text>
</a>
</g>
</g>
<!-- Node18&#45;&gt;Node26 -->
<g id="edge67_Node000018_Node000026" class="edge">
<title>Node18&#45;&gt;Node26</title>
<g id="a_edge67_Node000018_Node000026"><a xlink:title=" ">
<path fill="none" stroke="#63b8ff" d="M1052.85,-283.48C1135.84,-280.4 1302.78,-270.64 1440.75,-240.25 1514.22,-224.07 1535.83,-223.01 1600.75,-185 1649.53,-156.44 1696.53,-108.46 1719.73,-82.98"/>
<polygon fill="#63b8ff" stroke="#63b8ff" points="1721.84,-85.76 1725.91,-75.97 1716.63,-81.08 1721.84,-85.76"/>
</a>
</g>
</g>
<!-- Node35 -->
<g id="Node000035" class="node">
<title>Node35</title>
<g id="a_Node000035"><a xlink:title=" ">
<polygon fill="#e0e0e0" stroke="#999999" points="1360.38,-240.25 1315.13,-240.25 1315.13,-221 1360.38,-221 1360.38,-240.25"/>
<text text-anchor="middle" x="1337.75" y="-226.75" font-family="Helvetica,sans-Serif" font-size="10.00">cstring</text>
</a>
</g>
</g>
<!-- Node18&#45;&gt;Node35 -->
<g id="edge66_Node000018_Node000035" class="edge">
<title>Node18&#45;&gt;Node35</title>
<g id="a_edge66_Node000018_Node000035"><a xlink:title=" ">
<path fill="none" stroke="#63b8ff" d="M1053,-278.41C1113.02,-270.69 1214.37,-256.71 1300.75,-240.25 1301.89,-240.03 1303.04,-239.81 1304.2,-239.57"/>
<polygon fill="#63b8ff" stroke="#63b8ff" points="1304.69,-242.83 1313.72,-237.3 1303.21,-235.99 1304.69,-242.83"/>
</a>
</g>
</g>
<!-- Node19&#45;&gt;Node2 -->
<g id="edge32_Node000019_Node000002" class="edge">
<title>Node19&#45;&gt;Node2</title>
<g id="a_edge32_Node000019_Node000002"><a xlink:title=" ">
<path fill="none" stroke="#63b8ff" d="M1035.35,-225.42C1060.37,-220.37 1092.51,-209.28 1108.75,-185 1128.8,-155.02 1121.07,-110.61 1114.11,-85.34"/>
<polygon fill="#63b8ff" stroke="#63b8ff" points="1117.2,-84.47 1110.97,-75.9 1110.5,-86.49 1117.2,-84.47"/>
</a>
</g>
</g>
<!-- Node19&#45;&gt;Node4 -->
<g id="edge58_Node000019_Node000004" class="edge">
<title>Node19&#45;&gt;Node4</title>
<g id="a_edge58_Node000019_Node000004"><a xlink:title=" ">
<path fill="none" stroke="#63b8ff" d="M1035.5,-228.43C1146.55,-224.38 1491.96,-210.05 1600.75,-185 1694.83,-163.34 1753.96,-164.93 1787.75,-74.5 1800.7,-39.86 1749.63,-23.2 1712.76,-15.83"/>
<polygon fill="#63b8ff" stroke="#63b8ff" points="1713.81,-12.28 1703.34,-13.91 1712.54,-19.16 1713.81,-12.28"/>
</a>
</g>
</g>
<!-- Node19&#45;&gt;Node5 -->
<g id="edge59_Node000019_Node000005" class="edge">
<title>Node19&#45;&gt;Node5</title>
<g id="a_edge59_Node000019_Node000005"><a xlink:title=" ">
<path fill="none" stroke="#63b8ff" d="M1029.54,-220.6C1046.24,-213.71 1065.87,-202.39 1075.75,-185 1079.98,-177.56 1078.69,-173.78 1075.75,-165.75 1053.49,-104.89 995.64,-51.43 964.8,-26.14"/>
<polygon fill="#63b8ff" stroke="#63b8ff" points="967.5,-23.02 957.51,-19.49 963.12,-28.48 967.5,-23.02"/>
</a>
</g>
</g>
<!-- Node19&#45;&gt;Node6 -->
<g id="edge64_Node000019_Node000006" class="edge">
<title>Node19&#45;&gt;Node6</title>
<g id="a_edge64_Node000019_Node000006"><a xlink:title=" ">
<path fill="none" stroke="#63b8ff" d="M966,-229.86C880.23,-229.79 661.16,-225.53 602.75,-185 551.39,-149.35 539.96,-68.22 537.45,-30.54"/>
<polygon fill="#63b8ff" stroke="#63b8ff" points="540.89,-30.37 536.89,-20.56 533.9,-30.72 540.89,-30.37"/>
</a>
</g>
</g>
<!-- Node19&#45;&gt;Node7 -->
<g id="edge65_Node000019_Node000007" class="edge">
<title>Node19&#45;&gt;Node7</title>
<g id="a_edge65_Node000019_Node000007"><a xlink:title=" ">
<path fill="none" stroke="#63b8ff" d="M1035.45,-224.52C1070.27,-218.46 1124.75,-206.37 1167.75,-185 1203.56,-167.21 1212.47,-159.88 1238.75,-129.75 1257.4,-108.36 1263.39,-101.9 1270.75,-74.5 1274.64,-60.03 1273.32,-43.07 1271.2,-30.27"/>
<polygon fill="#63b8ff" stroke="#63b8ff" points="1274.44,-29.61 1269.07,-20.48 1267.58,-30.97 1274.44,-29.61"/>
</a>
</g>
</g>
<!-- Node19&#45;&gt;Node10 -->
<g id="edge33_Node000019_Node000010" class="edge">
<title>Node19&#45;&gt;Node10</title>
<g id="a_edge33_Node000019_Node000010"><a xlink:title=" ">
<path fill="none" stroke="#63b8ff" d="M966.12,-227.32C844.99,-219.26 438.71,-192.21 272.52,-181.15"/>
<polygon fill="#63b8ff" stroke="#63b8ff" points="273.14,-177.62 262.93,-180.45 272.67,-184.6 273.14,-177.62"/>
</a>
</g>
</g>
<!-- Node19&#45;&gt;Node11 -->
<g id="edge31_Node000019_Node000011" class="edge">
<title>Node19&#45;&gt;Node11</title>
<g id="a_edge31_Node000019_Node000011"><a xlink:title=" ">
<path fill="none" stroke="#63b8ff" d="M966.33,-229.26C873,-227.8 617.04,-220.57 541.75,-185 516.6,-173.12 463.08,-113.07 437.27,-83.03"/>
<polygon fill="#63b8ff" stroke="#63b8ff" points="439.36,-81.1 430.21,-75.76 434.04,-85.64 439.36,-81.1"/>
</a>
</g>
</g>
<!-- Node20 -->
<g id="Node000020" class="node">
<title>Node20</title>
<g id="a_Node000020"><a xlink:href="Ioss__EntityType_8h.html" target="_top" xlink:title=" ">
<polygon fill="white" stroke="#666666" points="716.13,-185 621.38,-185 621.38,-165.75 716.13,-165.75 716.13,-185"/>
<text text-anchor="middle" x="668.75" y="-171.5" font-family="Helvetica,sans-Serif" font-size="10.00">Ioss_EntityType.h</text>
</a>
</g>
</g>
<!-- Node19&#45;&gt;Node20 -->
<g id="edge34_Node000019_Node000020" class="edge">
<title>Node19&#45;&gt;Node20</title>
<g id="a_edge34_Node000019_Node000020"><a xlink:title=" ">
<path fill="none" stroke="#63b8ff" d="M966.16,-224.08C909.57,-215 796.56,-196.87 727.31,-185.77"/>
<polygon fill="#63b8ff" stroke="#63b8ff" points="728.01,-182.17 717.58,-184.05 726.9,-189.09 728.01,-182.17"/>
</a>
</g>
</g>
<!-- Node21 -->
<g id="Node000021" class="node">
<title>Node21</title>
<g id="a_Node000021"><a xlink:href="Ioss__Field_8h.html" target="_top" xlink:title=" ">
<polygon fill="white" stroke="#666666" points="1205.38,-129.75 1136.13,-129.75 1136.13,-110.5 1205.38,-110.5 1205.38,-129.75"/>
<text text-anchor="middle" x="1170.75" y="-116.25" font-family="Helvetica,sans-Serif" font-size="10.00">Ioss_Field.h</text>
</a>
</g>
</g>
<!-- Node19&#45;&gt;Node21 -->
<g id="edge35_Node000019_Node000021" class="edge">
<title>Node19&#45;&gt;Node21</title>
<g id="a_edge35_Node000019_Node000021"><a xlink:title=" ">
<path fill="none" stroke="#63b8ff" d="M1035.45,-227.58C1068.07,-223.88 1116.32,-213.58 1146.75,-185 1159.17,-173.34 1165.21,-154.64 1168.12,-140.47"/>
<polygon fill="#63b8ff" stroke="#63b8ff" points="1171.69,-141.34 1169.9,-130.9 1164.78,-140.18 1171.69,-141.34"/>
</a>
</g>
</g>
<!-- Node22 -->
<g id="Node000022" class="node">
<title>Node22</title>
<g id="a_Node000022"><a xlink:href="Ioss__Property_8h.html" target="_top" xlink:title=" ">
<polygon fill="white" stroke="#666666" points="667.5,-129.75 584,-129.75 584,-110.5 667.5,-110.5 667.5,-129.75"/>
<text text-anchor="middle" x="625.75" y="-116.25" font-family="Helvetica,sans-Serif" font-size="10.00">Ioss_Property.h</text>
</a>
</g>
</g>
<!-- Node19&#45;&gt;Node22 -->
<g id="edge41_Node000019_Node000022" class="edge">
<title>Node19&#45;&gt;Node22</title>
<g id="a_edge41_Node000019_Node000022"><a xlink:title=" ">
<path fill="none" stroke="#63b8ff" d="M966.12,-228.22C875.38,-224.2 636.1,-211.19 612.75,-185 601.83,-172.75 607.46,-153.88 614.39,-139.82"/>
<polygon fill="#63b8ff" stroke="#63b8ff" points="617.93,-141.65 619.69,-131.2 611.8,-138.27 617.93,-141.65"/>
</a>
</g>
</g>
<!-- Node23 -->
<g id="Node000023" class="node">
<title>Node23</title>
<g id="a_Node000023"><a xlink:href="Ioss__Sort_8h.html" target="_top" xlink:title=" ">
<polygon fill="white" stroke="#666666" points="1591.88,-185 1525.63,-185 1525.63,-165.75 1591.88,-165.75 1591.88,-185"/>
<text text-anchor="middle" x="1558.75" y="-171.5" font-family="Helvetica,sans-Serif" font-size="10.00">Ioss_Sort.h</text>
</a>
</g>
</g>
<!-- Node19&#45;&gt;Node23 -->
<g id="edge46_Node000019_Node000023" class="edge">
<title>Node19&#45;&gt;Node23</title>
<g id="a_edge46_Node000019_Node000023"><a xlink:title=" ">
<path fill="none" stroke="#63b8ff" d="M1035.24,-226.33C1132.08,-217.09 1406.49,-190.91 1514.39,-180.61"/>
<polygon fill="#63b8ff" stroke="#63b8ff" points="1514.58,-184.01 1524.21,-179.58 1513.92,-177.04 1514.58,-184.01"/>
</a>
</g>
</g>
<!-- Node25 -->
<g id="Node000025" class="node">
<title>Node25</title>
<g id="a_Node000025"><a xlink:title=" ">
<polygon fill="#e0e0e0" stroke="#999999" points="1489.63,-74.5 1433.88,-74.5 1433.88,-55.25 1489.63,-55.25 1489.63,-74.5"/>
<text text-anchor="middle" x="1461.75" y="-61" font-family="Helvetica,sans-Serif" font-size="10.00">algorithm</text>
</a>
</g>
</g>
<!-- Node19&#45;&gt;Node25 -->
<g id="edge55_Node000019_Node000025" class="edge">
<title>Node19&#45;&gt;Node25</title>
<g id="a_edge55_Node000019_Node000025"><a xlink:title=" ">
<path fill="none" stroke="#63b8ff" d="M1035.2,-225.13C1079.37,-218.82 1157.98,-205.72 1222.75,-185 1242.7,-178.62 1246.38,-173.71 1265.75,-165.75 1307.9,-148.43 1320.99,-150.13 1361.75,-129.75 1390.41,-115.42 1421.16,-94.92 1440.88,-81.04"/>
<polygon fill="#63b8ff" stroke="#63b8ff" points="1442.51,-83.47 1448.62,-74.82 1438.45,-77.77 1442.51,-83.47"/>
</a>
</g>
</g>
<!-- Node19&#45;&gt;Node29 -->
<g id="edge56_Node000019_Node000029" class="edge">
<title>Node19&#45;&gt;Node29</title>
<g id="a_edge56_Node000019_Node000029"><a xlink:title=" ">
<path fill="none" stroke="#63b8ff" d="M1035.35,-224.29C1085.27,-216.45 1180.35,-201.01 1260.75,-185 1261.71,-184.81 1262.68,-184.61 1263.66,-184.41"/>
<polygon fill="#63b8ff" stroke="#63b8ff" points="1264.22,-187.66 1273.26,-182.13 1262.75,-180.81 1264.22,-187.66"/>
</a>
</g>
</g>
<!-- Node30 -->
<g id="Node000030" class="node">
<title>Node30</title>
<g id="a_Node000030"><a xlink:title=" ">
<polygon fill="#e0e0e0" stroke="#999999" points="777.25,-185 734.25,-185 734.25,-165.75 777.25,-165.75 777.25,-185"/>
<text text-anchor="middle" x="755.75" y="-171.5" font-family="Helvetica,sans-Serif" font-size="10.00">cmath</text>
</a>
</g>
</g>
<!-- Node19&#45;&gt;Node30 -->
<g id="edge57_Node000019_Node000030" class="edge">
<title>Node19&#45;&gt;Node30</title>
<g id="a_edge57_Node000019_Node000030"><a xlink:title=" ">
<path fill="none" stroke="#63b8ff" d="M966.13,-223.13C925.75,-215.4 856.79,-201.71 788.27,-185.24"/>
<polygon fill="#63b8ff" stroke="#63b8ff" points="789.26,-181.64 778.72,-182.68 787.61,-188.44 789.26,-181.64"/>
</a>
</g>
</g>
<!-- Node31 -->
<g id="Node000031" class="node">
<title>Node31</title>
<g id="a_Node000031"><a xlink:title=" ">
<polygon fill="#e0e0e0" stroke="#999999" points="840,-185 795.5,-185 795.5,-165.75 840,-165.75 840,-185"/>
<text text-anchor="middle" x="817.75" y="-171.5" font-family="Helvetica,sans-Serif" font-size="10.00">cstdlib</text>
</a>
</g>
</g>
<!-- Node19&#45;&gt;Node31 -->
<g id="edge60_Node000019_Node000031" class="edge">
<title>Node19&#45;&gt;Node31</title>
<g id="a_edge60_Node000019_Node000031"><a xlink:title=" ">
<path fill="none" stroke="#63b8ff" d="M969.71,-220.59C936.58,-210.95 884.32,-195.75 850.54,-185.92"/>
<polygon fill="#63b8ff" stroke="#63b8ff" points="851.85,-182.36 841.27,-182.93 849.9,-189.08 851.85,-182.36"/>
</a>
</g>
</g>
<!-- Node32 -->
<g id="Node000032" class="node">
<title>Node32</title>
<g id="a_Node000032"><a xlink:title=" ">
<polygon fill="#e0e0e0" stroke="#999999" points="919.25,-185 858.25,-185 858.25,-165.75 919.25,-165.75 919.25,-185"/>
<text text-anchor="middle" x="888.75" y="-171.5" font-family="Helvetica,sans-Serif" font-size="10.00">filesystem</text>
</a>
</g>
</g>
<!-- Node19&#45;&gt;Node32 -->
<g id="edge61_Node000019_Node000032" class="edge">
<title>Node19&#45;&gt;Node32</title>
<g id="a_edge61_Node000019_Node000032"><a xlink:title=" ">
<path fill="none" stroke="#63b8ff" d="M981.75,-220.59C964.21,-212.25 937.91,-199.75 917.75,-190.16"/>
<polygon fill="#63b8ff" stroke="#63b8ff" points="919.38,-186.59 908.84,-185.45 916.37,-192.91 919.38,-186.59"/>
</a>
</g>
</g>
<!-- Node33 -->
<g id="Node000033" class="node">
<title>Node33</title>
<g id="a_Node000033"><a xlink:title=" ">
<polygon fill="#e0e0e0" stroke="#999999" points="990.5,-185 937,-185 937,-165.75 990.5,-165.75 990.5,-185"/>
<text text-anchor="middle" x="963.75" y="-171.5" font-family="Helvetica,sans-Serif" font-size="10.00">iostream</text>
</a>
</g>
</g>
<!-- Node19&#45;&gt;Node33 -->
<g id="edge62_Node000019_Node000033" class="edge">
<title>Node19&#45;&gt;Node33</title>
<g id="a_edge62_Node000019_Node000033"><a xlink:title=" ">
<path fill="none" stroke="#63b8ff" d="M994.64,-220.83C989.64,-213.63 982.4,-203.21 976.18,-194.26"/>
<polygon fill="#63b8ff" stroke="#63b8ff" points="978.58,-192.57 969.99,-186.36 972.83,-196.57 978.58,-192.57"/>
</a>
</g>
</g>
<!-- Node34 -->
<g id="Node000034" class="node">
<title>Node34</title>
<g id="a_Node000034"><a xlink:title=" ">
<polygon fill="#e0e0e0" stroke="#999999" points="1067.13,-185 1008.38,-185 1008.38,-165.75 1067.13,-165.75 1067.13,-185"/>
<text text-anchor="middle" x="1037.75" y="-171.5" font-family="Helvetica,sans-Serif" font-size="10.00">stdexcept</text>
</a>
</g>
</g>
<!-- Node19&#45;&gt;Node34 -->
<g id="edge63_Node000019_Node000034" class="edge">
<title>Node19&#45;&gt;Node34</title>
<g id="a_edge63_Node000019_Node000034"><a xlink:title=" ">
<path fill="none" stroke="#63b8ff" d="M1006.86,-220.83C1011.87,-213.63 1019.11,-203.21 1025.32,-194.26"/>
<polygon fill="#63b8ff" stroke="#63b8ff" points="1028.68,-196.57 1031.51,-186.36 1022.93,-192.57 1028.68,-196.57"/>
</a>
</g>
</g>
<!-- Node21&#45;&gt;Node2 -->
<g id="edge37_Node000021_Node000002" class="edge">
<title>Node21&#45;&gt;Node2</title>
<g id="a_edge37_Node000021_Node000002"><a xlink:title=" ">
<path fill="none" stroke="#63b8ff" d="M1160.07,-110.09C1150.87,-102.32 1137.39,-90.92 1126.41,-81.65"/>
<polygon fill="#63b8ff" stroke="#63b8ff" points="1129.18,-78.56 1119.28,-74.77 1124.66,-83.9 1129.18,-78.56"/>
</a>
</g>
</g>
<!-- Node21&#45;&gt;Node4 -->
<g id="edge38_Node000021_Node000004" class="edge">
<title>Node21&#45;&gt;Node4</title>
<g id="a_edge38_Node000021_Node000004"><a xlink:title=" ">
<path fill="none" stroke="#63b8ff" d="M1203.46,-110.1C1251.65,-96.98 1344.71,-72.35 1424.75,-55.25 1502.04,-38.74 1593.55,-23.7 1642.56,-16.01"/>
<polygon fill="#63b8ff" stroke="#63b8ff" points="1642.87,-19.35 1652.22,-14.35 1641.8,-12.43 1642.87,-19.35"/>
</a>
</g>
</g>
<!-- Node21&#45;&gt;Node6 -->
<g id="edge39_Node000021_Node000006" class="edge">
<title>Node21&#45;&gt;Node6</title>
<g id="a_edge39_Node000021_Node000006"><a xlink:title=" ">
<path fill="none" stroke="#63b8ff" d="M1135.76,-113.14C1023.55,-93.93 673.87,-34.09 567.66,-15.91"/>
<polygon fill="#63b8ff" stroke="#63b8ff" points="568.49,-12.33 558.04,-14.1 567.31,-19.23 568.49,-12.33"/>
</a>
</g>
</g>
<!-- Node21&#45;&gt;Node7 -->
<g id="edge40_Node000021_Node000007" class="edge">
<title>Node21&#45;&gt;Node7</title>
<g id="a_edge40_Node000021_Node000007"><a xlink:title=" ">
<path fill="none" stroke="#63b8ff" d="M1176.99,-110.1C1185.92,-97.4 1203.11,-73.74 1219.75,-55.25 1228.77,-45.24 1239.63,-34.83 1248.64,-26.58"/>
<polygon fill="#63b8ff" stroke="#63b8ff" points="1250.5,-29.72 1255.59,-20.43 1245.82,-24.52 1250.5,-29.72"/>
</a>
</g>
</g>
<!-- Node21&#45;&gt;Node11 -->
<g id="edge36_Node000021_Node000011" class="edge">
<title>Node21&#45;&gt;Node11</title>
<g id="a_edge36_Node000021_Node000011"><a xlink:title=" ">
<path fill="none" stroke="#63b8ff" d="M1135.68,-116.63C1014.19,-107.98 611.18,-79.29 471.18,-69.32"/>
<polygon fill="#63b8ff" stroke="#63b8ff" points="471.61,-65.77 461.39,-68.55 471.12,-72.76 471.61,-65.77"/>
</a>
</g>
</g>
<!-- Node22&#45;&gt;Node5 -->
<g id="edge43_Node000022_Node000005" class="edge">
<title>Node22&#45;&gt;Node5</title>
<g id="a_edge43_Node000022_Node000005"><a xlink:title=" ">
<path fill="none" stroke="#63b8ff" d="M652.4,-110.06C710.44,-90.32 848.14,-43.49 911.63,-21.89"/>
<polygon fill="#63b8ff" stroke="#63b8ff" points="912.54,-24.94 920.88,-18.41 910.28,-18.31 912.54,-24.94"/>
</a>
</g>
</g>
<!-- Node22&#45;&gt;Node6 -->
<g id="edge44_Node000022_Node000006" class="edge">
<title>Node22&#45;&gt;Node6</title>
<g id="a_edge44_Node000022_Node000006"><a xlink:title=" ">
<path fill="none" stroke="#63b8ff" d="M618.47,-110.25C603.74,-92.28 570.17,-51.36 550.95,-27.94"/>
<polygon fill="#63b8ff" stroke="#63b8ff" points="553.18,-26.14 544.14,-20.63 547.77,-30.58 553.18,-26.14"/>
</a>
</g>
</g>
<!-- Node22&#45;&gt;Node7 -->
<g id="edge45_Node000022_Node000007" class="edge">
<title>Node22&#45;&gt;Node7</title>
<g id="a_edge45_Node000022_Node000007"><a xlink:title=" ">
<path fill="none" stroke="#63b8ff" d="M667.61,-112.94C783.46,-95.73 1107.69,-46.84 1234.32,-19.57"/>
<polygon fill="#63b8ff" stroke="#63b8ff" points="1234.86,-22.81 1243.87,-17.24 1233.36,-15.97 1234.86,-22.81"/>
</a>
</g>
</g>
<!-- Node22&#45;&gt;Node11 -->
<g id="edge42_Node000022_Node000011" class="edge">
<title>Node22&#45;&gt;Node11</title>
<g id="a_edge42_Node000022_Node000011"><a xlink:title=" ">
<path fill="none" stroke="#63b8ff" d="M591.32,-110.09C557.34,-101.18 505.22,-87.51 467.93,-77.73"/>
<polygon fill="#63b8ff" stroke="#63b8ff" points="468.92,-74.1 458.36,-74.95 467.14,-80.88 468.92,-74.1"/>
</a>
</g>
</g>
<!-- Node23&#45;&gt;Node4 -->
<g id="edge53_Node000023_Node000004" class="edge">
<title>Node23&#45;&gt;Node4</title>
<g id="a_edge53_Node000023_Node000004"><a xlink:title=" ">
<path fill="none" stroke="#63b8ff" d="M1592.01,-169.94C1641.42,-161.37 1732.67,-137.44 1772.75,-74.5 1790.24,-47.05 1746.47,-28.58 1712.66,-18.83"/>
<polygon fill="#63b8ff" stroke="#63b8ff" points="1713.7,-15.21 1703.13,-15.97 1711.86,-21.97 1713.7,-15.21"/>
</a>
</g>
</g>
<!-- Node23&#45;&gt;Node7 -->
<g id="edge54_Node000023_Node000007" class="edge">
<title>Node23&#45;&gt;Node7</title>
<g id="a_edge54_Node000023_Node000007"><a xlink:title=" ">
<path fill="none" stroke="#63b8ff" d="M1557.07,-165.48C1552.32,-143.04 1536.63,-83.87 1498.75,-55.25 1467.76,-31.83 1355.58,-18.63 1299.35,-13.36"/>
<polygon fill="#63b8ff" stroke="#63b8ff" points="1299.85,-9.8 1289.57,-12.38 1299.22,-16.77 1299.85,-9.8"/>
</a>
</g>
</g>
<!-- Node24 -->
<g id="Node000024" class="node">
<title>Node24</title>
<g id="a_Node000024"><a xlink:href="pdqsort_8h.html" target="_top" xlink:title=" ">
<polygon fill="white" stroke="#666666" points="1628,-129.75 1571.5,-129.75 1571.5,-110.5 1628,-110.5 1628,-129.75"/>
<text text-anchor="middle" x="1599.75" y="-116.25" font-family="Helvetica,sans-Serif" font-size="10.00">pdqsort.h</text>
</a>
</g>
</g>
<!-- Node23&#45;&gt;Node24 -->
<g id="edge47_Node000023_Node000024" class="edge">
<title>Node23&#45;&gt;Node24</title>
<g id="a_edge47_Node000023_Node000024"><a xlink:title=" ">
<path fill="none" stroke="#63b8ff" d="M1565.52,-165.58C1571.13,-158.3 1579.27,-147.73 1586.2,-138.73"/>
<polygon fill="#63b8ff" stroke="#63b8ff" points="1589.51,-141.17 1592.84,-131.11 1583.96,-136.9 1589.51,-141.17"/>
</a>
</g>
</g>
<!-- Node24&#45;&gt;Node4 -->
<g id="edge49_Node000024_Node000004" class="edge">
<title>Node24&#45;&gt;Node4</title>
<g id="a_edge49_Node000024_Node000004"><a xlink:title=" ">
<path fill="none" stroke="#63b8ff" d="M1617.15,-110.02C1630.38,-102.26 1648.07,-89.91 1658.75,-74.5 1667.93,-61.26 1672.74,-43.53 1675.23,-30.11"/>
<polygon fill="#63b8ff" stroke="#63b8ff" points="1678.78,-31.07 1676.86,-20.65 1671.86,-29.99 1678.78,-31.07"/>
</a>
</g>
</g>
<!-- Node24&#45;&gt;Node25 -->
<g id="edge48_Node000024_Node000025" class="edge">
<title>Node24&#45;&gt;Node25</title>
<g id="a_edge48_Node000024_Node000025"><a xlink:title=" ">
<path fill="none" stroke="#63b8ff" d="M1576.34,-110.09C1554.14,-101.52 1520.53,-88.56 1495.45,-78.88"/>
<polygon fill="#63b8ff" stroke="#63b8ff" points="1496.87,-75.29 1486.28,-74.95 1494.35,-81.82 1496.87,-75.29"/>
</a>
</g>
</g>
<!-- Node24&#45;&gt;Node26 -->
<g id="edge50_Node000024_Node000026" class="edge">
<title>Node24&#45;&gt;Node26</title>
<g id="a_edge50_Node000024_Node000026"><a xlink:title=" ">
<path fill="none" stroke="#63b8ff" d="M1622.65,-110.09C1644.38,-101.52 1677.25,-88.56 1701.79,-78.88"/>
<polygon fill="#63b8ff" stroke="#63b8ff" points="1702.72,-81.88 1710.74,-74.95 1700.15,-75.37 1702.72,-81.88"/>
</a>
</g>
</g>
<!-- Node27 -->
<g id="Node000027" class="node">
<title>Node27</title>
<g id="a_Node000027"><a xlink:title=" ">
<polygon fill="#e0e0e0" stroke="#999999" points="1649.75,-74.5 1603.75,-74.5 1603.75,-55.25 1649.75,-55.25 1649.75,-74.5"/>
<text text-anchor="middle" x="1626.75" y="-61" font-family="Helvetica,sans-Serif" font-size="10.00">iterator</text>
</a>
</g>
</g>
<!-- Node24&#45;&gt;Node27 -->
<g id="edge51_Node000024_Node000027" class="edge">
<title>Node24&#45;&gt;Node27</title>
<g id="a_edge51_Node000024_Node000027"><a xlink:title=" ">
<path fill="none" stroke="#63b8ff" d="M1604.21,-110.33C1607.75,-103.36 1612.81,-93.37 1617.25,-84.62"/>
<polygon fill="#63b8ff" stroke="#63b8ff" points="1620.8,-86.36 1622.2,-75.86 1614.55,-83.2 1620.8,-86.36"/>
</a>
</g>
</g>
<!-- Node28 -->
<g id="Node000028" class="node">
<title>Node28</title>
<g id="a_Node000028"><a xlink:title=" ">
<polygon fill="#e0e0e0" stroke="#999999" points="1585.38,-74.5 1546.13,-74.5 1546.13,-55.25 1585.38,-55.25 1585.38,-74.5"/>
<text text-anchor="middle" x="1565.75" y="-61" font-family="Helvetica,sans-Serif" font-size="10.00">utility</text>
</a>
</g>
</g>
<!-- Node24&#45;&gt;Node28 -->
<g id="edge52_Node000024_Node000028" class="edge">
<title>Node24&#45;&gt;Node28</title>
<g id="a_edge52_Node000024_Node000028"><a xlink:title=" ">
<path fill="none" stroke="#63b8ff" d="M1594.14,-110.33C1589.59,-103.21 1583.03,-92.93 1577.36,-84.05"/>
<polygon fill="#63b8ff" stroke="#63b8ff" points="1579.82,-82.4 1571.49,-75.86 1573.92,-86.17 1579.82,-82.4"/>
</a>
</g>
</g>
<!-- Node36&#45;&gt;Node2 -->
<g id="edge74_Node000036_Node000002" class="edge">
<title>Node36&#45;&gt;Node2</title>
<g id="a_edge74_Node000036_Node000002"><a xlink:title=" ">
<path fill="none" stroke="#63b8ff" d="M300.58,-222.11C436.1,-195.88 888.63,-108.29 1049.99,-77.06"/>
<polygon fill="#63b8ff" stroke="#63b8ff" points="1050.49,-80.33 1059.64,-74.99 1049.16,-73.46 1050.49,-80.33"/>
</a>
</g>
</g>
<!-- Node36&#45;&gt;Node10 -->
<g id="edge75_Node000036_Node000010" class="edge">
<title>Node36&#45;&gt;Node10</title>
<g id="a_edge75_Node000036_Node000010"><a xlink:title=" ">
<path fill="none" stroke="#63b8ff" d="M251.4,-220.59C242.59,-212.9 229.71,-201.65 219.14,-192.43"/>
<polygon fill="#63b8ff" stroke="#63b8ff" points="221.78,-189.21 211.95,-185.27 217.18,-194.49 221.78,-189.21"/>
</a>
</g>
</g>
<!-- Node36&#45;&gt;Node11 -->
<g id="edge73_Node000036_Node000011" class="edge">
<title>Node36&#45;&gt;Node11</title>
<g id="a_edge73_Node000036_Node000011"><a xlink:title=" ">
<path fill="none" stroke="#63b8ff" d="M270.41,-220.82C296.18,-194.61 372.7,-116.78 406.45,-82.45"/>
<polygon fill="#63b8ff" stroke="#63b8ff" points="408.54,-85.31 413.05,-75.72 403.55,-80.4 408.54,-85.31"/>
</a>
</g>
</g>
</g>
</svg>
