<?xml version="1.0" encoding="UTF-8" standalone="no"?>
<!DOCTYPE svg PUBLIC "-//W3C//DTD SVG 1.1//EN"
 "http://www.w3.org/Graphics/SVG/1.1/DTD/svg11.dtd">
<!-- Generated by graphviz version 3.0.0 (20220226.1711)
 -->
<!-- Title: src/Ioss_Beam4.C Pages: 1 -->
<svg width="1635pt" height="420pt"
 viewBox="0.00 0.00 1634.73 420.00" xmlns="http://www.w3.org/2000/svg" xmlns:xlink="http://www.w3.org/1999/xlink">
<g id="graph0" class="graph" transform="scale(1 1) rotate(0) translate(4 416)">
<title>src/Ioss_Beam4.C</title>
<polygon fill="white" stroke="transparent" points="-4,4 -4,-416 1630.73,-416 1630.73,4 -4,4"/>
<!-- Node1 -->
<g id="node1" class="node">
<title>Node1</title>
<g id="a_node1"><a xlink:title=" ">
<polygon fill="#bfbfbf" stroke="black" points="384.73,-392.5 384.73,-411.5 482.73,-411.5 482.73,-392.5 384.73,-392.5"/>
<text text-anchor="middle" x="433.73" y="-399.5" font-family="Helvetica,sans-Serif" font-size="10.00">src/Ioss_Beam4.C</text>
</a>
</g>
</g>
<!-- Node2 -->
<g id="node2" class="node">
<title>Node2</title>
<g id="a_node2"><a xlink:href="Ioss__CodeTypes_8h.html" target="_top" xlink:title=" ">
<polygon fill="white" stroke="black" points="404.73,-56.5 404.73,-75.5 502.73,-75.5 502.73,-56.5 404.73,-56.5"/>
<text text-anchor="middle" x="453.73" y="-63.5" font-family="Helvetica,sans-Serif" font-size="10.00">Ioss_CodeTypes.h</text>
</a>
</g>
</g>
<!-- Node1&#45;&gt;Node2 -->
<g id="edge1" class="edge">
<title>Node1&#45;&gt;Node2</title>
<path fill="none" stroke="midnightblue" d="M418.37,-392.31C391.95,-376.09 340.73,-338.51 340.73,-291 340.73,-291 340.73,-291 340.73,-177 340.73,-130.4 390.67,-97.14 424.15,-80.08"/>
<polygon fill="midnightblue" stroke="midnightblue" points="426.07,-83.04 433.52,-75.51 423,-76.75 426.07,-83.04"/>
</g>
<!-- Node4 -->
<g id="node4" class="node">
<title>Node4</title>
<g id="a_node4"><a xlink:title=" ">
<polygon fill="white" stroke="#bfbfbf" points="1293.23,-0.5 1293.23,-19.5 1342.23,-19.5 1342.23,-0.5 1293.23,-0.5"/>
<text text-anchor="middle" x="1317.73" y="-7.5" font-family="Helvetica,sans-Serif" font-size="10.00">cstddef</text>
</a>
</g>
</g>
<!-- Node1&#45;&gt;Node4 -->
<g id="edge68" class="edge">
<title>Node1&#45;&gt;Node4</title>
<path fill="none" stroke="midnightblue" d="M483.09,-399.08C708.23,-390 1626.73,-349.4 1626.73,-291 1626.73,-291 1626.73,-291 1626.73,-121 1626.73,-86.61 1613.46,-74.91 1584.73,-56 1547.14,-31.27 1416.47,-18.36 1352.95,-13.42"/>
<polygon fill="midnightblue" stroke="midnightblue" points="1352.86,-9.91 1342.63,-12.65 1352.33,-16.89 1352.86,-9.91"/>
</g>
<!-- Node10 -->
<g id="node10" class="node">
<title>Node10</title>
<g id="a_node10"><a xlink:href="Ioss__ElementTopology_8h.html" target="_top" xlink:title=" ">
<polygon fill="white" stroke="black" points="190.73,-168.5 190.73,-187.5 312.73,-187.5 312.73,-168.5 190.73,-168.5"/>
<text text-anchor="middle" x="251.73" y="-175.5" font-family="Helvetica,sans-Serif" font-size="10.00">Ioss_ElementTopology.h</text>
</a>
</g>
</g>
<!-- Node1&#45;&gt;Node10 -->
<g id="edge9" class="edge">
<title>Node1&#45;&gt;Node10</title>
<path fill="none" stroke="midnightblue" d="M392.27,-392.43C370.11,-385.88 343.92,-374.69 326.73,-356 284.95,-310.59 311.48,-279.11 283.73,-224 278.72,-214.07 271.68,-203.89 265.48,-195.74"/>
<polygon fill="midnightblue" stroke="midnightblue" points="268.15,-193.47 259.21,-187.79 262.65,-197.81 268.15,-193.47"/>
</g>
<!-- Node16 -->
<g id="node16" class="node">
<title>Node16</title>
<g id="a_node16"><a xlink:href="Ioss__Beam4_8h.html" target="_top" xlink:title=" ">
<polygon fill="white" stroke="black" points="194.73,-224.5 194.73,-243.5 274.73,-243.5 274.73,-224.5 194.73,-224.5"/>
<text text-anchor="middle" x="234.73" y="-231.5" font-family="Helvetica,sans-Serif" font-size="10.00">Ioss_Beam4.h</text>
</a>
</g>
</g>
<!-- Node1&#45;&gt;Node16 -->
<g id="edge22" class="edge">
<title>Node1&#45;&gt;Node16</title>
<path fill="none" stroke="midnightblue" d="M384.66,-396.12C353.92,-390.76 315.24,-379.54 288.73,-356 257.87,-328.61 243.74,-280.2 238.05,-253.67"/>
<polygon fill="midnightblue" stroke="midnightblue" points="241.47,-252.9 236.1,-243.77 234.6,-254.25 241.47,-252.9"/>
</g>
<!-- Node17 -->
<g id="node17" class="node">
<title>Node17</title>
<g id="a_node17"><a xlink:href="Ioss__ElementVariableType_8h.html" target="_top" xlink:title=" ">
<polygon fill="white" stroke="black" points="408.73,-336.5 408.73,-355.5 548.73,-355.5 548.73,-336.5 408.73,-336.5"/>
<text text-anchor="middle" x="478.73" y="-343.5" font-family="Helvetica,sans-Serif" font-size="10.00">Ioss_ElementVariableType.h</text>
</a>
</g>
</g>
<!-- Node1&#45;&gt;Node17 -->
<g id="edge25" class="edge">
<title>Node1&#45;&gt;Node17</title>
<path fill="none" stroke="midnightblue" d="M441.16,-392.08C447.58,-384.38 457.03,-373.03 464.85,-363.65"/>
<polygon fill="midnightblue" stroke="midnightblue" points="467.72,-365.67 471.43,-355.75 462.34,-361.19 467.72,-365.67"/>
</g>
<!-- Node29 -->
<g id="node29" class="node">
<title>Node29</title>
<g id="a_node29"><a xlink:title=" ">
<polygon fill="white" stroke="#bfbfbf" points="1549.23,-168.5 1549.23,-187.5 1598.23,-187.5 1598.23,-168.5 1549.23,-168.5"/>
<text text-anchor="middle" x="1573.73" y="-175.5" font-family="Helvetica,sans-Serif" font-size="10.00">cassert</text>
</a>
</g>
</g>
<!-- Node1&#45;&gt;Node29 -->
<g id="edge67" class="edge">
<title>Node1&#45;&gt;Node29</title>
<path fill="none" stroke="midnightblue" d="M483.13,-392.52C613.91,-369.93 979.81,-305.82 1282.73,-244 1375.64,-225.04 1484.59,-199.93 1539.05,-187.18"/>
<polygon fill="midnightblue" stroke="midnightblue" points="1539.94,-190.57 1548.88,-184.87 1538.34,-183.75 1539.94,-190.57"/>
</g>
<!-- Node3 -->
<g id="node3" class="node">
<title>Node3</title>
<g id="a_node3"><a xlink:title=" ">
<polygon fill="white" stroke="#bfbfbf" points="498.73,-0.5 498.73,-19.5 536.73,-19.5 536.73,-0.5 498.73,-0.5"/>
<text text-anchor="middle" x="517.73" y="-7.5" font-family="Helvetica,sans-Serif" font-size="10.00">array</text>
</a>
</g>
</g>
<!-- Node2&#45;&gt;Node3 -->
<g id="edge2" class="edge">
<title>Node2&#45;&gt;Node3</title>
<path fill="none" stroke="midnightblue" d="M464.01,-56.32C473.56,-48.26 488.01,-36.08 499.51,-26.37"/>
<polygon fill="midnightblue" stroke="midnightblue" points="501.87,-28.96 507.26,-19.83 497.36,-23.61 501.87,-28.96"/>
</g>
<!-- Node2&#45;&gt;Node4 -->
<g id="edge3" class="edge">
<title>Node2&#45;&gt;Node4</title>
<path fill="none" stroke="midnightblue" d="M502.97,-61.92C660.24,-52.09 1148.06,-21.6 1282.89,-13.18"/>
<polygon fill="midnightblue" stroke="midnightblue" points="1283.29,-16.66 1293.05,-12.54 1282.85,-9.67 1283.29,-16.66"/>
</g>
<!-- Node5 -->
<g id="node5" class="node">
<title>Node5</title>
<g id="a_node5"><a xlink:title=" ">
<polygon fill="white" stroke="#bfbfbf" points="839.73,-0.5 839.73,-19.5 885.73,-19.5 885.73,-0.5 839.73,-0.5"/>
<text text-anchor="middle" x="862.73" y="-7.5" font-family="Helvetica,sans-Serif" font-size="10.00">cstdint</text>
</a>
</g>
</g>
<!-- Node2&#45;&gt;Node5 -->
<g id="edge4" class="edge">
<title>Node2&#45;&gt;Node5</title>
<path fill="none" stroke="midnightblue" d="M503.06,-58.49C587.33,-47.36 756.88,-24.97 829.01,-15.45"/>
<polygon fill="midnightblue" stroke="midnightblue" points="829.87,-18.87 839.32,-14.09 828.95,-11.93 829.87,-18.87"/>
</g>
<!-- Node6 -->
<g id="node6" class="node">
<title>Node6</title>
<g id="a_node6"><a xlink:title=" ">
<polygon fill="white" stroke="#bfbfbf" points="571.23,-0.5 571.23,-19.5 612.23,-19.5 612.23,-0.5 571.23,-0.5"/>
<text text-anchor="middle" x="591.73" y="-7.5" font-family="Helvetica,sans-Serif" font-size="10.00">string</text>
</a>
</g>
</g>
<!-- Node2&#45;&gt;Node6 -->
<g id="edge5" class="edge">
<title>Node2&#45;&gt;Node6</title>
<path fill="none" stroke="midnightblue" d="M475.59,-56.44C498.77,-47.37 535.55,-32.98 561.5,-22.83"/>
<polygon fill="midnightblue" stroke="midnightblue" points="562.83,-26.07 570.86,-19.16 560.28,-19.55 562.83,-26.07"/>
</g>
<!-- Node7 -->
<g id="node7" class="node">
<title>Node7</title>
<g id="a_node7"><a xlink:title=" ">
<polygon fill="white" stroke="#bfbfbf" points="1005.73,-0.5 1005.73,-19.5 1049.73,-19.5 1049.73,-0.5 1005.73,-0.5"/>
<text text-anchor="middle" x="1027.73" y="-7.5" font-family="Helvetica,sans-Serif" font-size="10.00">vector</text>
</a>
</g>
</g>
<!-- Node2&#45;&gt;Node7 -->
<g id="edge6" class="edge">
<title>Node2&#45;&gt;Node7</title>
<path fill="none" stroke="midnightblue" d="M503.16,-60.35C617.85,-49.56 899.52,-23.06 995.26,-14.05"/>
<polygon fill="midnightblue" stroke="midnightblue" points="995.86,-17.51 1005.48,-13.09 995.2,-10.54 995.86,-17.51"/>
</g>
<!-- Node8 -->
<g id="node8" class="node">
<title>Node8</title>
<g id="a_node8"><a xlink:title=" ">
<polygon fill="white" stroke="#bfbfbf" points="292.73,-0.5 292.73,-19.5 408.73,-19.5 408.73,-0.5 292.73,-0.5"/>
<text text-anchor="middle" x="350.73" y="-7.5" font-family="Helvetica,sans-Serif" font-size="10.00">SEACASIoss_config.h</text>
</a>
</g>
</g>
<!-- Node2&#45;&gt;Node8 -->
<g id="edge7" class="edge">
<title>Node2&#45;&gt;Node8</title>
<path fill="none" stroke="midnightblue" d="M437.18,-56.32C420.73,-47.7 395.29,-34.36 376.26,-24.39"/>
<polygon fill="midnightblue" stroke="midnightblue" points="377.71,-21.2 367.23,-19.65 374.46,-27.4 377.71,-21.2"/>
</g>
<!-- Node9 -->
<g id="node9" class="node">
<title>Node9</title>
<g id="a_node9"><a xlink:title=" ">
<polygon fill="white" stroke="#bfbfbf" points="427.23,-0.5 427.23,-19.5 480.23,-19.5 480.23,-0.5 427.23,-0.5"/>
<text text-anchor="middle" x="453.73" y="-7.5" font-family="Helvetica,sans-Serif" font-size="10.00">complex</text>
</a>
</g>
</g>
<!-- Node2&#45;&gt;Node9 -->
<g id="edge8" class="edge">
<title>Node2&#45;&gt;Node9</title>
<path fill="none" stroke="midnightblue" d="M453.73,-56.08C453.73,-49.01 453.73,-38.86 453.73,-29.99"/>
<polygon fill="midnightblue" stroke="midnightblue" points="457.23,-29.75 453.73,-19.75 450.23,-29.75 457.23,-29.75"/>
</g>
<!-- Node10&#45;&gt;Node2 -->
<g id="edge10" class="edge">
<title>Node10&#45;&gt;Node2</title>
<path fill="none" stroke="midnightblue" d="M259.68,-168.25C272.57,-154.55 299.33,-127.95 326.73,-112 352.42,-97.04 383.92,-85.84 409.11,-78.35"/>
<polygon fill="midnightblue" stroke="midnightblue" points="410.14,-81.7 418.78,-75.57 408.21,-74.97 410.14,-81.7"/>
</g>
<!-- Node10&#45;&gt;Node6 -->
<g id="edge20" class="edge">
<title>Node10&#45;&gt;Node6</title>
<path fill="none" stroke="midnightblue" d="M190.54,-174.6C124.96,-170.59 27.07,-159.96 3.73,-132 -1.97,-125.18 0.22,-120.17 3.73,-112 18,-78.78 29.67,-70.64 62.73,-56 161.14,-12.42 439.06,-34.36 545.73,-20 550.71,-19.33 555.96,-18.46 561.07,-17.52"/>
<polygon fill="midnightblue" stroke="midnightblue" points="562.05,-20.9 571.2,-15.56 560.72,-14.03 562.05,-20.9"/>
</g>
<!-- Node10&#45;&gt;Node7 -->
<g id="edge21" class="edge">
<title>Node10&#45;&gt;Node7</title>
<path fill="none" stroke="midnightblue" d="M312.79,-172.57C461.34,-161.09 837.72,-127.66 951.73,-76 976.54,-64.75 999.5,-42.87 1013.54,-27.62"/>
<polygon fill="midnightblue" stroke="midnightblue" points="1016.35,-29.73 1020.38,-19.93 1011.12,-25.07 1016.35,-29.73"/>
</g>
<!-- Node11 -->
<g id="node11" class="node">
<title>Node11</title>
<g id="a_node11"><a xlink:href="Ioss__ElementPermutation_8h.html" target="_top" xlink:title=" ">
<polygon fill="white" stroke="black" points="13.23,-112.5 13.23,-131.5 150.23,-131.5 150.23,-112.5 13.23,-112.5"/>
<text text-anchor="middle" x="81.73" y="-119.5" font-family="Helvetica,sans-Serif" font-size="10.00">Ioss_ElementPermutation.h</text>
</a>
</g>
</g>
<!-- Node10&#45;&gt;Node11 -->
<g id="edge11" class="edge">
<title>Node10&#45;&gt;Node11</title>
<path fill="none" stroke="midnightblue" d="M224.79,-168.44C196.06,-159.32 150.4,-144.81 118.4,-134.65"/>
<polygon fill="midnightblue" stroke="midnightblue" points="119.13,-131.21 108.54,-131.52 117.01,-137.88 119.13,-131.21"/>
</g>
<!-- Node14 -->
<g id="node14" class="node">
<title>Node14</title>
<g id="a_node14"><a xlink:title=" ">
<polygon fill="white" stroke="#bfbfbf" points="247.23,-56.5 247.23,-75.5 282.23,-75.5 282.23,-56.5 247.23,-56.5"/>
<text text-anchor="middle" x="264.73" y="-63.5" font-family="Helvetica,sans-Serif" font-size="10.00">map</text>
</a>
</g>
</g>
<!-- Node10&#45;&gt;Node14 -->
<g id="edge18" class="edge">
<title>Node10&#45;&gt;Node14</title>
<path fill="none" stroke="midnightblue" d="M252.75,-168.37C254.84,-150.62 259.68,-109.67 262.53,-85.6"/>
<polygon fill="midnightblue" stroke="midnightblue" points="266.01,-85.93 263.71,-75.59 259.06,-85.11 266.01,-85.93"/>
</g>
<!-- Node15 -->
<g id="node15" class="node">
<title>Node15</title>
<g id="a_node15"><a xlink:title=" ">
<polygon fill="white" stroke="#bfbfbf" points="206.73,-112.5 206.73,-131.5 236.73,-131.5 236.73,-112.5 206.73,-112.5"/>
<text text-anchor="middle" x="221.73" y="-119.5" font-family="Helvetica,sans-Serif" font-size="10.00">set</text>
</a>
</g>
</g>
<!-- Node10&#45;&gt;Node15 -->
<g id="edge19" class="edge">
<title>Node10&#45;&gt;Node15</title>
<path fill="none" stroke="midnightblue" d="M246.77,-168.08C242.62,-160.61 236.57,-149.72 231.46,-140.52"/>
<polygon fill="midnightblue" stroke="midnightblue" points="234.5,-138.79 226.59,-131.75 228.38,-142.19 234.5,-138.79"/>
</g>
<!-- Node11&#45;&gt;Node2 -->
<g id="edge12" class="edge">
<title>Node11&#45;&gt;Node2</title>
<path fill="none" stroke="midnightblue" d="M140.67,-112.44C210.19,-102.35 325.06,-85.68 394.63,-75.58"/>
<polygon fill="midnightblue" stroke="midnightblue" points="395.17,-79.04 404.56,-74.14 394.16,-72.11 395.17,-79.04"/>
</g>
<!-- Node11&#45;&gt;Node6 -->
<g id="edge16" class="edge">
<title>Node11&#45;&gt;Node6</title>
<path fill="none" stroke="midnightblue" d="M76.81,-112.11C69.86,-98.21 59.51,-71.35 73.73,-56 109.47,-17.42 493.6,-27.06 545.73,-20 550.7,-19.33 555.96,-18.45 561.06,-17.52"/>
<polygon fill="midnightblue" stroke="midnightblue" points="562.05,-20.89 571.2,-15.55 560.72,-14.02 562.05,-20.89"/>
</g>
<!-- Node11&#45;&gt;Node7 -->
<g id="edge17" class="edge">
<title>Node11&#45;&gt;Node7</title>
<path fill="none" stroke="midnightblue" d="M150.4,-115.36C165.96,-114.17 182.41,-112.98 197.73,-112 356.71,-101.84 760.8,-120.67 913.73,-76 949.89,-65.44 986.9,-41.39 1008.58,-25.7"/>
<polygon fill="midnightblue" stroke="midnightblue" points="1010.93,-28.31 1016.88,-19.55 1006.76,-22.69 1010.93,-28.31"/>
</g>
<!-- Node12 -->
<g id="node12" class="node">
<title>Node12</title>
<g id="a_node12"><a xlink:title=" ">
<polygon fill="white" stroke="#bfbfbf" points="82.73,-56.5 82.73,-75.5 134.73,-75.5 134.73,-56.5 82.73,-56.5"/>
<text text-anchor="middle" x="108.73" y="-63.5" font-family="Helvetica,sans-Serif" font-size="10.00">assert.h</text>
</a>
</g>
</g>
<!-- Node11&#45;&gt;Node12 -->
<g id="edge13" class="edge">
<title>Node11&#45;&gt;Node12</title>
<path fill="none" stroke="midnightblue" d="M86.18,-112.08C89.88,-104.69 95.25,-93.95 99.82,-84.81"/>
<polygon fill="midnightblue" stroke="midnightblue" points="103.01,-86.26 104.35,-75.75 96.75,-83.13 103.01,-86.26"/>
</g>
<!-- Node13 -->
<g id="node13" class="node">
<title>Node13</title>
<g id="a_node13"><a xlink:title=" ">
<polygon fill="white" stroke="#bfbfbf" points="152.73,-56.5 152.73,-75.5 192.73,-75.5 192.73,-56.5 152.73,-56.5"/>
<text text-anchor="middle" x="172.73" y="-63.5" font-family="Helvetica,sans-Serif" font-size="10.00">limits</text>
</a>
</g>
</g>
<!-- Node11&#45;&gt;Node13 -->
<g id="edge14" class="edge">
<title>Node11&#45;&gt;Node13</title>
<path fill="none" stroke="midnightblue" d="M96.35,-112.32C110.67,-103.82 132.74,-90.73 149.47,-80.8"/>
<polygon fill="midnightblue" stroke="midnightblue" points="151.33,-83.77 158.14,-75.65 147.76,-77.75 151.33,-83.77"/>
</g>
<!-- Node11&#45;&gt;Node14 -->
<g id="edge15" class="edge">
<title>Node11&#45;&gt;Node14</title>
<path fill="none" stroke="midnightblue" d="M110.72,-112.44C145.43,-102.2 203.12,-85.18 237.17,-75.13"/>
<polygon fill="midnightblue" stroke="midnightblue" points="238.33,-78.44 246.93,-72.25 236.35,-71.72 238.33,-78.44"/>
</g>
<!-- Node16&#45;&gt;Node2 -->
<g id="edge23" class="edge">
<title>Node16&#45;&gt;Node2</title>
<path fill="none" stroke="midnightblue" d="M218.39,-224.39C205.77,-216.72 189.23,-204.21 181.73,-188 171.49,-165.89 191.7,-117.43 197.73,-112 225.97,-86.56 327.93,-75.11 394.33,-70.26"/>
<polygon fill="midnightblue" stroke="midnightblue" points="394.94,-73.73 404.67,-69.54 394.45,-66.74 394.94,-73.73"/>
</g>
<!-- Node16&#45;&gt;Node10 -->
<g id="edge24" class="edge">
<title>Node16&#45;&gt;Node10</title>
<path fill="none" stroke="midnightblue" d="M237.53,-224.08C239.81,-216.85 243.1,-206.41 245.93,-197.4"/>
<polygon fill="midnightblue" stroke="midnightblue" points="249.31,-198.34 248.97,-187.75 242.63,-196.24 249.31,-198.34"/>
</g>
<!-- Node17&#45;&gt;Node2 -->
<g id="edge26" class="edge">
<title>Node17&#45;&gt;Node2</title>
<path fill="none" stroke="midnightblue" d="M472.46,-336.38C460.69,-319.61 435.69,-280.99 426.73,-244 412.88,-186.85 420.54,-168.81 435.73,-112 438.17,-102.85 441.94,-93.06 445.4,-84.95"/>
<polygon fill="midnightblue" stroke="midnightblue" points="448.63,-86.31 449.5,-75.75 442.23,-83.46 448.63,-86.31"/>
</g>
<!-- Node17&#45;&gt;Node6 -->
<g id="edge66" class="edge">
<title>Node17&#45;&gt;Node6</title>
<path fill="none" stroke="midnightblue" d="M517.95,-336.47C539.91,-329.86 566.3,-318.59 583.73,-300 604.68,-277.64 606.73,-265.64 606.73,-235 606.73,-235 606.73,-235 606.73,-121 606.73,-88.5 600.22,-51.1 595.78,-29.34"/>
<polygon fill="midnightblue" stroke="midnightblue" points="599.19,-28.56 593.69,-19.5 592.34,-30.01 599.19,-28.56"/>
</g>
<!-- Node18 -->
<g id="node18" class="node">
<title>Node18</title>
<g id="a_node18"><a xlink:href="Ioss__VariableType_8h.html" target="_top" xlink:title=" ">
<polygon fill="white" stroke="black" points="470.73,-280.5 470.73,-299.5 574.73,-299.5 574.73,-280.5 470.73,-280.5"/>
<text text-anchor="middle" x="522.73" y="-287.5" font-family="Helvetica,sans-Serif" font-size="10.00">Ioss_VariableType.h</text>
</a>
</g>
</g>
<!-- Node17&#45;&gt;Node18 -->
<g id="edge27" class="edge">
<title>Node17&#45;&gt;Node18</title>
<path fill="none" stroke="midnightblue" d="M485.99,-336.08C492.27,-328.38 501.51,-317.03 509.16,-307.65"/>
<polygon fill="midnightblue" stroke="midnightblue" points="511.99,-309.71 515.59,-299.75 506.56,-305.29 511.99,-309.71"/>
</g>
<!-- Node18&#45;&gt;Node2 -->
<g id="edge28" class="edge">
<title>Node18&#45;&gt;Node2</title>
<path fill="none" stroke="midnightblue" d="M487.71,-280.45C468.79,-273.84 447.04,-262.59 435.73,-244 419.73,-217.71 439.54,-125.11 449.11,-85.35"/>
<polygon fill="midnightblue" stroke="midnightblue" points="452.51,-86.19 451.5,-75.64 445.71,-84.52 452.51,-86.19"/>
</g>
<!-- Node18&#45;&gt;Node6 -->
<g id="edge64" class="edge">
<title>Node18&#45;&gt;Node6</title>
<path fill="none" stroke="midnightblue" d="M524.87,-280.38C534.47,-241.7 573.66,-83.79 587.14,-29.47"/>
<polygon fill="midnightblue" stroke="midnightblue" points="590.6,-30.07 589.61,-19.52 583.8,-28.39 590.6,-30.07"/>
</g>
<!-- Node18&#45;&gt;Node7 -->
<g id="edge65" class="edge">
<title>Node18&#45;&gt;Node7</title>
<path fill="none" stroke="midnightblue" d="M574.78,-289.7C714.38,-290.26 1091.01,-282.84 1157.73,-188 1201.11,-126.33 1099.89,-54.32 1051.59,-24.74"/>
<polygon fill="midnightblue" stroke="midnightblue" points="1053.34,-21.71 1042.96,-19.57 1049.74,-27.71 1053.34,-21.71"/>
</g>
<!-- Node18&#45;&gt;Node14 -->
<g id="edge63" class="edge">
<title>Node18&#45;&gt;Node14</title>
<path fill="none" stroke="midnightblue" d="M521.42,-280.16C519.08,-266.8 513.1,-241.2 499.73,-224 442.24,-150.08 339.86,-99.12 291.47,-77.97"/>
<polygon fill="midnightblue" stroke="midnightblue" points="292.84,-74.75 282.27,-74.02 290.08,-81.18 292.84,-74.75"/>
</g>
<!-- Node19 -->
<g id="node19" class="node">
<title>Node19</title>
<g id="a_node19"><a xlink:href="Ioss__Utils_8h.html" target="_top" xlink:title=" ">
<polygon fill="white" stroke="black" points="924.23,-224.5 924.23,-243.5 993.23,-243.5 993.23,-224.5 924.23,-224.5"/>
<text text-anchor="middle" x="958.73" y="-231.5" font-family="Helvetica,sans-Serif" font-size="10.00">Ioss_Utils.h</text>
</a>
</g>
</g>
<!-- Node18&#45;&gt;Node19 -->
<g id="edge29" class="edge">
<title>Node18&#45;&gt;Node19</title>
<path fill="none" stroke="midnightblue" d="M574.88,-282.54C661.2,-271.85 832.27,-250.66 913.66,-240.58"/>
<polygon fill="midnightblue" stroke="midnightblue" points="914.57,-244 924.07,-239.29 913.71,-237.05 914.57,-244"/>
</g>
<!-- Node26 -->
<g id="node26" class="node">
<title>Node26</title>
<g id="a_node26"><a xlink:title=" ">
<polygon fill="white" stroke="#bfbfbf" points="1501.23,-56.5 1501.23,-75.5 1560.23,-75.5 1560.23,-56.5 1501.23,-56.5"/>
<text text-anchor="middle" x="1530.73" y="-63.5" font-family="Helvetica,sans-Serif" font-size="10.00">functional</text>
</a>
</g>
</g>
<!-- Node18&#45;&gt;Node26 -->
<g id="edge62" class="edge">
<title>Node18&#45;&gt;Node26</title>
<path fill="none" stroke="midnightblue" d="M574.79,-288.22C717.54,-285.67 1112.93,-275.87 1238.73,-244 1355.63,-214.38 1471.13,-120.06 1513.64,-82.58"/>
<polygon fill="midnightblue" stroke="midnightblue" points="1516.01,-85.14 1521.14,-75.87 1511.35,-79.92 1516.01,-85.14"/>
</g>
<!-- Node34 -->
<g id="node34" class="node">
<title>Node34</title>
<g id="a_node34"><a xlink:title=" ">
<polygon fill="white" stroke="#bfbfbf" points="444.73,-224.5 444.73,-243.5 490.73,-243.5 490.73,-224.5 444.73,-224.5"/>
<text text-anchor="middle" x="467.73" y="-231.5" font-family="Helvetica,sans-Serif" font-size="10.00">cstring</text>
</a>
</g>
</g>
<!-- Node18&#45;&gt;Node34 -->
<g id="edge61" class="edge">
<title>Node18&#45;&gt;Node34</title>
<path fill="none" stroke="midnightblue" d="M513.64,-280.08C505.55,-272.14 493.53,-260.34 483.82,-250.8"/>
<polygon fill="midnightblue" stroke="midnightblue" points="486.23,-248.26 476.64,-243.75 481.32,-253.25 486.23,-248.26"/>
</g>
<!-- Node19&#45;&gt;Node2 -->
<g id="edge30" class="edge">
<title>Node19&#45;&gt;Node2</title>
<path fill="none" stroke="midnightblue" d="M923.91,-233.4C862.56,-232.98 732.09,-227.08 630.73,-188 565.29,-162.77 500.3,-109.14 470.54,-82.58"/>
<polygon fill="midnightblue" stroke="midnightblue" points="472.56,-79.68 462.8,-75.56 467.86,-84.86 472.56,-79.68"/>
</g>
<!-- Node19&#45;&gt;Node4 -->
<g id="edge54" class="edge">
<title>Node19&#45;&gt;Node4</title>
<path fill="none" stroke="midnightblue" d="M993.42,-233.47C1064.06,-233.49 1228.96,-228.72 1359.73,-188 1460.35,-156.67 1514.59,-166.42 1568.73,-76 1573.29,-68.37 1574.43,-62.82 1568.73,-56 1541.54,-23.5 1414.66,-14.44 1352.39,-11.94"/>
<polygon fill="midnightblue" stroke="midnightblue" points="1352.38,-8.44 1342.26,-11.57 1352.13,-15.43 1352.38,-8.44"/>
</g>
<!-- Node19&#45;&gt;Node5 -->
<g id="edge55" class="edge">
<title>Node19&#45;&gt;Node5</title>
<path fill="none" stroke="midnightblue" d="M993.58,-229.45C1040.42,-223.15 1115.15,-206.81 1090.73,-168 1071.03,-136.71 1047.09,-151.59 1015.73,-132 962.88,-98.99 906.98,-50.94 879.7,-26.51"/>
<polygon fill="midnightblue" stroke="midnightblue" points="881.95,-23.83 872.19,-19.73 877.26,-29.03 881.95,-23.83"/>
</g>
<!-- Node19&#45;&gt;Node6 -->
<g id="edge59" class="edge">
<title>Node19&#45;&gt;Node6</title>
<path fill="none" stroke="midnightblue" d="M924.09,-232.16C854.8,-229.78 702.44,-220.85 663.73,-188 616.68,-148.08 647.21,-111.73 620.73,-56 616.09,-46.24 609.68,-36.07 604.07,-27.87"/>
<polygon fill="midnightblue" stroke="midnightblue" points="606.84,-25.72 598.21,-19.57 601.12,-29.76 606.84,-25.72"/>
</g>
<!-- Node19&#45;&gt;Node7 -->
<g id="edge60" class="edge">
<title>Node19&#45;&gt;Node7</title>
<path fill="none" stroke="midnightblue" d="M993.53,-229.49C1041.39,-223.86 1123.66,-211.05 1141.73,-188 1164.57,-158.86 1079.86,-64.99 1043.52,-27.09"/>
<polygon fill="midnightblue" stroke="midnightblue" points="1046.03,-24.65 1036.56,-19.9 1041,-29.52 1046.03,-24.65"/>
</g>
<!-- Node19&#45;&gt;Node10 -->
<g id="edge31" class="edge">
<title>Node19&#45;&gt;Node10</title>
<path fill="none" stroke="midnightblue" d="M924.15,-230.36C814.39,-221.98 472.32,-195.85 322.84,-184.43"/>
<polygon fill="midnightblue" stroke="midnightblue" points="323.08,-180.94 312.84,-183.67 322.55,-187.92 323.08,-180.94"/>
</g>
<!-- Node20 -->
<g id="node20" class="node">
<title>Node20</title>
<g id="a_node20"><a xlink:href="Ioss__EntityType_8h.html" target="_top" xlink:title=" ">
<polygon fill="white" stroke="black" points="987.23,-168.5 987.23,-187.5 1082.23,-187.5 1082.23,-168.5 987.23,-168.5"/>
<text text-anchor="middle" x="1034.73" y="-175.5" font-family="Helvetica,sans-Serif" font-size="10.00">Ioss_EntityType.h</text>
</a>
</g>
</g>
<!-- Node19&#45;&gt;Node20 -->
<g id="edge32" class="edge">
<title>Node19&#45;&gt;Node20</title>
<path fill="none" stroke="midnightblue" d="M970.94,-224.32C982.5,-216.11 1000.1,-203.6 1013.89,-193.81"/>
<polygon fill="midnightblue" stroke="midnightblue" points="1016.17,-196.48 1022.29,-187.83 1012.11,-190.77 1016.17,-196.48"/>
</g>
<!-- Node21 -->
<g id="node21" class="node">
<title>Node21</title>
<g id="a_node21"><a xlink:href="Ioss__Field_8h.html" target="_top" xlink:title=" ">
<polygon fill="white" stroke="black" points="1024.73,-112.5 1024.73,-131.5 1094.73,-131.5 1094.73,-112.5 1024.73,-112.5"/>
<text text-anchor="middle" x="1059.73" y="-119.5" font-family="Helvetica,sans-Serif" font-size="10.00">Ioss_Field.h</text>
</a>
</g>
</g>
<!-- Node19&#45;&gt;Node21 -->
<g id="edge33" class="edge">
<title>Node19&#45;&gt;Node21</title>
<path fill="none" stroke="midnightblue" d="M993.3,-228.57C1037.11,-222.16 1108.85,-208.75 1124.73,-188 1139.79,-168.31 1112.63,-148.57 1088.94,-136.1"/>
<polygon fill="midnightblue" stroke="midnightblue" points="1090.31,-132.88 1079.8,-131.54 1087.18,-139.14 1090.31,-132.88"/>
</g>
<!-- Node22 -->
<g id="node22" class="node">
<title>Node22</title>
<g id="a_node22"><a xlink:href="Ioss__Property_8h.html" target="_top" xlink:title=" ">
<polygon fill="white" stroke="black" points="820.73,-56.5 820.73,-75.5 904.73,-75.5 904.73,-56.5 820.73,-56.5"/>
<text text-anchor="middle" x="862.73" y="-63.5" font-family="Helvetica,sans-Serif" font-size="10.00">Ioss_Property.h</text>
</a>
</g>
</g>
<!-- Node19&#45;&gt;Node22 -->
<g id="edge38" class="edge">
<title>Node19&#45;&gt;Node22</title>
<path fill="none" stroke="midnightblue" d="M957.04,-224.22C954.35,-211.38 948.38,-186.93 938.73,-168 922.05,-135.31 894.72,-102.22 877.78,-83.21"/>
<polygon fill="midnightblue" stroke="midnightblue" points="880.32,-80.8 871.01,-75.74 875.13,-85.5 880.32,-80.8"/>
</g>
<!-- Node23 -->
<g id="node23" class="node">
<title>Node23</title>
<g id="a_node23"><a xlink:href="Ioss__Sort_8h.html" target="_top" xlink:title=" ">
<polygon fill="white" stroke="black" points="1253.23,-168.5 1253.23,-187.5 1320.23,-187.5 1320.23,-168.5 1253.23,-168.5"/>
<text text-anchor="middle" x="1286.73" y="-175.5" font-family="Helvetica,sans-Serif" font-size="10.00">Ioss_Sort.h</text>
</a>
</g>
</g>
<!-- Node19&#45;&gt;Node23 -->
<g id="edge42" class="edge">
<title>Node19&#45;&gt;Node23</title>
<path fill="none" stroke="midnightblue" d="M993.52,-227.27C1053.61,-217.38 1176.75,-197.11 1242.71,-186.25"/>
<polygon fill="midnightblue" stroke="midnightblue" points="1243.48,-189.67 1252.78,-184.59 1242.35,-182.76 1243.48,-189.67"/>
</g>
<!-- Node25 -->
<g id="node25" class="node">
<title>Node25</title>
<g id="a_node25"><a xlink:title=" ">
<polygon fill="white" stroke="#bfbfbf" points="1426.73,-56.5 1426.73,-75.5 1482.73,-75.5 1482.73,-56.5 1426.73,-56.5"/>
<text text-anchor="middle" x="1454.73" y="-63.5" font-family="Helvetica,sans-Serif" font-size="10.00">algorithm</text>
</a>
</g>
</g>
<!-- Node19&#45;&gt;Node25 -->
<g id="edge51" class="edge">
<title>Node19&#45;&gt;Node25</title>
<path fill="none" stroke="midnightblue" d="M993.45,-231.26C1073.5,-226.85 1268.73,-213.72 1328.73,-188 1380.82,-165.67 1424,-111.46 1443.52,-83.82"/>
<polygon fill="midnightblue" stroke="midnightblue" points="1446.43,-85.77 1449.21,-75.55 1440.66,-81.8 1446.43,-85.77"/>
</g>
<!-- Node19&#45;&gt;Node29 -->
<g id="edge52" class="edge">
<title>Node19&#45;&gt;Node29</title>
<path fill="none" stroke="midnightblue" d="M993.38,-230.5C1078.92,-224.24 1306.94,-207.02 1496.73,-188 1510.57,-186.61 1525.79,-184.88 1539.01,-183.3"/>
<polygon fill="midnightblue" stroke="midnightblue" points="1539.62,-186.76 1549.13,-182.08 1538.78,-179.81 1539.62,-186.76"/>
</g>
<!-- Node30 -->
<g id="node30" class="node">
<title>Node30</title>
<g id="a_node30"><a xlink:title=" ">
<polygon fill="white" stroke="#bfbfbf" points="672.73,-168.5 672.73,-187.5 716.73,-187.5 716.73,-168.5 672.73,-168.5"/>
<text text-anchor="middle" x="694.73" y="-175.5" font-family="Helvetica,sans-Serif" font-size="10.00">cmath</text>
</a>
</g>
</g>
<!-- Node19&#45;&gt;Node30 -->
<g id="edge53" class="edge">
<title>Node19&#45;&gt;Node30</title>
<path fill="none" stroke="midnightblue" d="M924.17,-227.35C880.45,-219.97 802.67,-206.11 727.16,-188.18"/>
<polygon fill="midnightblue" stroke="midnightblue" points="727.55,-184.67 717.01,-185.74 725.92,-191.48 727.55,-184.67"/>
</g>
<!-- Node31 -->
<g id="node31" class="node">
<title>Node31</title>
<g id="a_node31"><a xlink:title=" ">
<polygon fill="white" stroke="#bfbfbf" points="735.23,-168.5 735.23,-187.5 780.23,-187.5 780.23,-168.5 735.23,-168.5"/>
<text text-anchor="middle" x="757.73" y="-175.5" font-family="Helvetica,sans-Serif" font-size="10.00">cstdlib</text>
</a>
</g>
</g>
<!-- Node19&#45;&gt;Node31 -->
<g id="edge56" class="edge">
<title>Node19&#45;&gt;Node31</title>
<path fill="none" stroke="midnightblue" d="M925.98,-224.42C893.9,-215.99 843.38,-202.63 790.36,-188.15"/>
<polygon fill="midnightblue" stroke="midnightblue" points="791.01,-184.69 780.44,-185.43 789.16,-191.45 791.01,-184.69"/>
</g>
<!-- Node32 -->
<g id="node32" class="node">
<title>Node32</title>
<g id="a_node32"><a xlink:title=" ">
<polygon fill="white" stroke="#bfbfbf" points="798.73,-168.5 798.73,-187.5 852.73,-187.5 852.73,-168.5 798.73,-168.5"/>
<text text-anchor="middle" x="825.73" y="-175.5" font-family="Helvetica,sans-Serif" font-size="10.00">iostream</text>
</a>
</g>
</g>
<!-- Node19&#45;&gt;Node32 -->
<g id="edge57" class="edge">
<title>Node19&#45;&gt;Node32</title>
<path fill="none" stroke="midnightblue" d="M937.65,-224.44C915.67,-215.52 880.99,-201.44 856.06,-191.32"/>
<polygon fill="midnightblue" stroke="midnightblue" points="857.28,-188.04 846.7,-187.52 854.65,-194.52 857.28,-188.04"/>
</g>
<!-- Node33 -->
<g id="node33" class="node">
<title>Node33</title>
<g id="a_node33"><a xlink:title=" ">
<polygon fill="white" stroke="#bfbfbf" points="871.23,-168.5 871.23,-187.5 930.23,-187.5 930.23,-168.5 871.23,-168.5"/>
<text text-anchor="middle" x="900.73" y="-175.5" font-family="Helvetica,sans-Serif" font-size="10.00">stdexcept</text>
</a>
</g>
</g>
<!-- Node19&#45;&gt;Node33 -->
<g id="edge58" class="edge">
<title>Node19&#45;&gt;Node33</title>
<path fill="none" stroke="midnightblue" d="M949.41,-224.32C940.83,-216.34 927.91,-204.31 917.54,-194.65"/>
<polygon fill="midnightblue" stroke="midnightblue" points="919.92,-192.09 910.21,-187.83 915.15,-197.21 919.92,-192.09"/>
</g>
<!-- Node21&#45;&gt;Node2 -->
<g id="edge34" class="edge">
<title>Node21&#45;&gt;Node2</title>
<path fill="none" stroke="midnightblue" d="M1024.53,-117.86C924.52,-108.95 637.93,-83.41 513.07,-72.29"/>
<polygon fill="midnightblue" stroke="midnightblue" points="513.2,-68.79 502.93,-71.38 512.58,-75.76 513.2,-68.79"/>
</g>
<!-- Node21&#45;&gt;Node4 -->
<g id="edge35" class="edge">
<title>Node21&#45;&gt;Node4</title>
<path fill="none" stroke="midnightblue" d="M1079.97,-112.37C1125.28,-93.05 1235.03,-46.26 1288.06,-23.65"/>
<polygon fill="midnightblue" stroke="midnightblue" points="1289.75,-26.73 1297.57,-19.59 1287,-20.29 1289.75,-26.73"/>
</g>
<!-- Node21&#45;&gt;Node6 -->
<g id="edge36" class="edge">
<title>Node21&#45;&gt;Node6</title>
<path fill="none" stroke="midnightblue" d="M1024.57,-115.84C976.28,-108.48 886.87,-93.86 811.73,-76 743.18,-59.7 664.31,-34.89 622.12,-21.11"/>
<polygon fill="midnightblue" stroke="midnightblue" points="623.05,-17.73 612.45,-17.94 620.86,-24.38 623.05,-17.73"/>
</g>
<!-- Node21&#45;&gt;Node7 -->
<g id="edge37" class="edge">
<title>Node21&#45;&gt;Node7</title>
<path fill="none" stroke="midnightblue" d="M1057.21,-112.37C1052.03,-94.54 1040.03,-53.3 1033.04,-29.27"/>
<polygon fill="midnightblue" stroke="midnightblue" points="1036.38,-28.22 1030.22,-19.59 1029.66,-30.17 1036.38,-28.22"/>
</g>
<!-- Node22&#45;&gt;Node5 -->
<g id="edge39" class="edge">
<title>Node22&#45;&gt;Node5</title>
<path fill="none" stroke="midnightblue" d="M862.73,-56.08C862.73,-49.01 862.73,-38.86 862.73,-29.99"/>
<polygon fill="midnightblue" stroke="midnightblue" points="866.23,-29.75 862.73,-19.75 859.23,-29.75 866.23,-29.75"/>
</g>
<!-- Node22&#45;&gt;Node6 -->
<g id="edge40" class="edge">
<title>Node22&#45;&gt;Node6</title>
<path fill="none" stroke="midnightblue" d="M820.68,-56.62C765.69,-45.66 670.67,-26.73 622.15,-17.06"/>
<polygon fill="midnightblue" stroke="midnightblue" points="622.75,-13.61 612.26,-15.09 621.38,-20.48 622.75,-13.61"/>
</g>
<!-- Node22&#45;&gt;Node7 -->
<g id="edge41" class="edge">
<title>Node22&#45;&gt;Node7</title>
<path fill="none" stroke="midnightblue" d="M888.87,-56.44C917.98,-46.92 965.02,-31.52 996.16,-21.33"/>
<polygon fill="midnightblue" stroke="midnightblue" points="997.25,-24.66 1005.66,-18.22 995.07,-18 997.25,-24.66"/>
</g>
<!-- Node23&#45;&gt;Node4 -->
<g id="edge49" class="edge">
<title>Node23&#45;&gt;Node4</title>
<path fill="none" stroke="midnightblue" d="M1280.51,-168.33C1266.63,-147.8 1235.83,-95.03 1255.73,-56 1262.73,-42.27 1276.09,-31.75 1288.63,-24.35"/>
<polygon fill="midnightblue" stroke="midnightblue" points="1290.4,-27.37 1297.5,-19.51 1287.05,-21.22 1290.4,-27.37"/>
</g>
<!-- Node23&#45;&gt;Node7 -->
<g id="edge50" class="edge">
<title>Node23&#45;&gt;Node7</title>
<path fill="none" stroke="midnightblue" d="M1279.64,-168.23C1259.24,-143.16 1200.18,-71.98 1174.73,-56 1138.88,-33.5 1091.04,-21.61 1059.82,-15.82"/>
<polygon fill="midnightblue" stroke="midnightblue" points="1060.36,-12.36 1049.91,-14.08 1059.15,-19.25 1060.36,-12.36"/>
</g>
<!-- Node24 -->
<g id="node24" class="node">
<title>Node24</title>
<g id="a_node24"><a xlink:href="pdqsort_8h.html" target="_top" xlink:title=" ">
<polygon fill="white" stroke="black" points="1331.23,-112.5 1331.23,-131.5 1388.23,-131.5 1388.23,-112.5 1331.23,-112.5"/>
<text text-anchor="middle" x="1359.73" y="-119.5" font-family="Helvetica,sans-Serif" font-size="10.00">pdqsort.h</text>
</a>
</g>
</g>
<!-- Node23&#45;&gt;Node24 -->
<g id="edge43" class="edge">
<title>Node23&#45;&gt;Node24</title>
<path fill="none" stroke="midnightblue" d="M1298.45,-168.32C1309.56,-160.11 1326.47,-147.6 1339.71,-137.81"/>
<polygon fill="midnightblue" stroke="midnightblue" points="1341.83,-140.59 1347.78,-131.83 1337.66,-134.97 1341.83,-140.59"/>
</g>
<!-- Node24&#45;&gt;Node4 -->
<g id="edge45" class="edge">
<title>Node24&#45;&gt;Node4</title>
<path fill="none" stroke="midnightblue" d="M1366.52,-112.22C1375.57,-99.38 1389.38,-74.93 1379.73,-56 1372.73,-42.27 1359.36,-31.75 1346.83,-24.35"/>
<polygon fill="midnightblue" stroke="midnightblue" points="1348.4,-21.22 1337.95,-19.51 1345.05,-27.37 1348.4,-21.22"/>
</g>
<!-- Node24&#45;&gt;Node25 -->
<g id="edge44" class="edge">
<title>Node24&#45;&gt;Node25</title>
<path fill="none" stroke="midnightblue" d="M1374.99,-112.32C1389.95,-103.82 1412.98,-90.73 1430.45,-80.8"/>
<polygon fill="midnightblue" stroke="midnightblue" points="1432.54,-83.64 1439.5,-75.65 1429.08,-77.55 1432.54,-83.64"/>
</g>
<!-- Node24&#45;&gt;Node26 -->
<g id="edge46" class="edge">
<title>Node24&#45;&gt;Node26</title>
<path fill="none" stroke="midnightblue" d="M1386.82,-112.44C1415.71,-103.32 1461.65,-88.81 1493.83,-78.65"/>
<polygon fill="midnightblue" stroke="midnightblue" points="1495.27,-81.87 1503.76,-75.52 1493.17,-75.19 1495.27,-81.87"/>
</g>
<!-- Node27 -->
<g id="node27" class="node">
<title>Node27</title>
<g id="a_node27"><a xlink:title=" ">
<polygon fill="white" stroke="#bfbfbf" points="1265.23,-56.5 1265.23,-75.5 1312.23,-75.5 1312.23,-56.5 1265.23,-56.5"/>
<text text-anchor="middle" x="1288.73" y="-63.5" font-family="Helvetica,sans-Serif" font-size="10.00">iterator</text>
</a>
</g>
</g>
<!-- Node24&#45;&gt;Node27 -->
<g id="edge47" class="edge">
<title>Node24&#45;&gt;Node27</title>
<path fill="none" stroke="midnightblue" d="M1348.32,-112.32C1337.62,-104.18 1321.38,-91.84 1308.56,-82.09"/>
<polygon fill="midnightblue" stroke="midnightblue" points="1310.42,-79.1 1300.34,-75.83 1306.18,-84.67 1310.42,-79.1"/>
</g>
<!-- Node28 -->
<g id="node28" class="node">
<title>Node28</title>
<g id="a_node28"><a xlink:title=" ">
<polygon fill="white" stroke="#bfbfbf" points="1330.73,-56.5 1330.73,-75.5 1370.73,-75.5 1370.73,-56.5 1330.73,-56.5"/>
<text text-anchor="middle" x="1350.73" y="-63.5" font-family="Helvetica,sans-Serif" font-size="10.00">utility</text>
</a>
</g>
</g>
<!-- Node24&#45;&gt;Node28 -->
<g id="edge48" class="edge">
<title>Node24&#45;&gt;Node28</title>
<path fill="none" stroke="midnightblue" d="M1358.24,-112.08C1357.05,-104.93 1355.33,-94.64 1353.84,-85.69"/>
<polygon fill="midnightblue" stroke="midnightblue" points="1357.28,-85.04 1352.18,-75.75 1350.38,-86.19 1357.28,-85.04"/>
</g>
</g>
</svg>
