<?xml version="1.0" encoding="UTF-8" standalone="no"?>
<!DOCTYPE svg PUBLIC "-//W3C//DTD SVG 1.1//EN"
 "http://www.w3.org/Graphics/SVG/1.1/DTD/svg11.dtd">
<!-- Generated by graphviz version 2.49.3 (20211023.0002)
 -->
<!-- Title: src/Ioss_Beam4.h Pages: 1 -->
<svg width="394pt" height="229pt"
 viewBox="0.00 0.00 394.00 229.00" xmlns="http://www.w3.org/2000/svg" xmlns:xlink="http://www.w3.org/1999/xlink">
<g id="graph0" class="graph" transform="scale(1 1) rotate(0) translate(4 225)">
<title>src/Ioss_Beam4.h</title>
<polygon fill="white" stroke="transparent" points="-4,4 -4,-225 390,-225 390,4 -4,4"/>
<!-- Node1 -->
<g id="node1" class="node">
<title>Node1</title>
<g id="a_node1"><a xlink:title=" ">
<polygon fill="#bfbfbf" stroke="black" points="67.5,-201.5 67.5,-220.5 164.5,-220.5 164.5,-201.5 67.5,-201.5"/>
<text text-anchor="middle" x="116" y="-208.5" font-family="Helvetica,sans-Serif" font-size="10.00">src/Ioss_Beam4.h</text>
</a>
</g>
</g>
<!-- Node2 -->
<g id="node2" class="node">
<title>Node2</title>
<g id="a_node2"><a xlink:href="Ioss__Beam4_8C.html" target="_top" xlink:title=" ">
<polygon fill="white" stroke="black" points="0,-140 0,-159 98,-159 98,-140 0,-140"/>
<text text-anchor="middle" x="49" y="-147" font-family="Helvetica,sans-Serif" font-size="10.00">src/Ioss_Beam4.C</text>
</a>
</g>
</g>
<!-- Node1&#45;&gt;Node2 -->
<g id="edge1" class="edge">
<title>Node1&#45;&gt;Node2</title>
<path fill="none" stroke="midnightblue" d="M98.71,-194.65C85.94,-183.31 69.02,-168.28 58.58,-159.01"/>
<polygon fill="midnightblue" stroke="midnightblue" points="96.6,-197.45 106.4,-201.48 101.25,-192.22 96.6,-197.45"/>
</g>
<!-- Node3 -->
<g id="node3" class="node">
<title>Node3</title>
<g id="a_node3"><a xlink:href="Ioss__StandardElementTypes_8h.html" target="_top" xlink:title=" ">
<polygon fill="white" stroke="black" points="116,-134.5 116,-164.5 250,-164.5 250,-134.5 116,-134.5"/>
<text text-anchor="start" x="124" y="-152.5" font-family="Helvetica,sans-Serif" font-size="10.00">src/Ioss_StandardElement</text>
<text text-anchor="middle" x="183" y="-141.5" font-family="Helvetica,sans-Serif" font-size="10.00">Types.h</text>
</a>
</g>
</g>
<!-- Node1&#45;&gt;Node3 -->
<g id="edge2" class="edge">
<title>Node1&#45;&gt;Node3</title>
<path fill="none" stroke="midnightblue" d="M133.29,-194.65C143.76,-185.35 157.02,-173.57 167.21,-164.52"/>
<polygon fill="midnightblue" stroke="midnightblue" points="130.75,-192.22 125.6,-201.48 135.4,-197.45 130.75,-192.22"/>
</g>
<!-- Node4 -->
<g id="node4" class="node">
<title>Node4</title>
<g id="a_node4"><a xlink:href="Ioss__Initializer_8C.html" target="_top" xlink:title=" ">
<polygon fill="white" stroke="black" points="9.5,-73 9.5,-92 114.5,-92 114.5,-73 9.5,-73"/>
<text text-anchor="middle" x="62" y="-80" font-family="Helvetica,sans-Serif" font-size="10.00">src/Ioss_Initializer.C</text>
</a>
</g>
</g>
<!-- Node3&#45;&gt;Node4 -->
<g id="edge3" class="edge">
<title>Node3&#45;&gt;Node4</title>
<path fill="none" stroke="midnightblue" d="M147.89,-129.64C124.74,-117.2 95.53,-101.51 77.84,-92.01"/>
<polygon fill="midnightblue" stroke="midnightblue" points="146.28,-132.75 156.74,-134.4 149.59,-126.58 146.28,-132.75"/>
</g>
<!-- Node5 -->
<g id="node5" class="node">
<title>Node5</title>
<g id="a_node5"><a xlink:href="Iotm__TextMesh_8h.html" target="_top" xlink:title=" ">
<polygon fill="white" stroke="black" points="132.5,-67.5 132.5,-97.5 233.5,-97.5 233.5,-67.5 132.5,-67.5"/>
<text text-anchor="start" x="140.5" y="-85.5" font-family="Helvetica,sans-Serif" font-size="10.00">src/text_mesh/Iotm</text>
<text text-anchor="middle" x="183" y="-74.5" font-family="Helvetica,sans-Serif" font-size="10.00">_TextMesh.h</text>
</a>
</g>
</g>
<!-- Node3&#45;&gt;Node5 -->
<g id="edge4" class="edge">
<title>Node3&#45;&gt;Node5</title>
<path fill="none" stroke="midnightblue" d="M183,-124.11C183,-115.15 183,-105.32 183,-97.58"/>
<polygon fill="midnightblue" stroke="midnightblue" points="179.5,-124.4 183,-134.4 186.5,-124.4 179.5,-124.4"/>
</g>
<!-- Node8 -->
<g id="node8" class="node">
<title>Node8</title>
<g id="a_node8"><a xlink:href="UnitTestIotmDatabaseIO_8C.html" target="_top" xlink:title=" ">
<polygon fill="white" stroke="black" points="252,-67.5 252,-97.5 386,-97.5 386,-67.5 252,-67.5"/>
<text text-anchor="start" x="260" y="-85.5" font-family="Helvetica,sans-Serif" font-size="10.00">src/unit_tests/UnitTestIotm</text>
<text text-anchor="middle" x="319" y="-74.5" font-family="Helvetica,sans-Serif" font-size="10.00">DatabaseIO.C</text>
</a>
</g>
</g>
<!-- Node3&#45;&gt;Node8 -->
<g id="edge7" class="edge">
<title>Node3&#45;&gt;Node8</title>
<path fill="none" stroke="midnightblue" d="M221.72,-129.99C243.28,-119.69 269.69,-107.07 289.55,-97.58"/>
<polygon fill="midnightblue" stroke="midnightblue" points="220.02,-126.93 212.51,-134.4 223.04,-133.24 220.02,-126.93"/>
</g>
<!-- Node6 -->
<g id="node6" class="node">
<title>Node6</title>
<g id="a_node6"><a xlink:href="Iotm__DatabaseIO_8C.html" target="_top" xlink:title=" ">
<polygon fill="white" stroke="black" points="72.5,-0.5 72.5,-30.5 173.5,-30.5 173.5,-0.5 72.5,-0.5"/>
<text text-anchor="start" x="80.5" y="-18.5" font-family="Helvetica,sans-Serif" font-size="10.00">src/text_mesh/Iotm</text>
<text text-anchor="middle" x="123" y="-7.5" font-family="Helvetica,sans-Serif" font-size="10.00">_DatabaseIO.C</text>
</a>
</g>
</g>
<!-- Node5&#45;&gt;Node6 -->
<g id="edge5" class="edge">
<title>Node5&#45;&gt;Node6</title>
<path fill="none" stroke="midnightblue" d="M163.18,-60.02C154.24,-50.34 143.93,-39.17 135.99,-30.58"/>
<polygon fill="midnightblue" stroke="midnightblue" points="160.63,-62.42 169.98,-67.4 165.77,-57.67 160.63,-62.42"/>
</g>
<!-- Node7 -->
<g id="node7" class="node">
<title>Node7</title>
<g id="a_node7"><a xlink:href="Iotm__TextMesh_8C.html" target="_top" xlink:title=" ">
<polygon fill="white" stroke="black" points="191.5,-0.5 191.5,-30.5 292.5,-30.5 292.5,-0.5 191.5,-0.5"/>
<text text-anchor="start" x="199.5" y="-18.5" font-family="Helvetica,sans-Serif" font-size="10.00">src/text_mesh/Iotm</text>
<text text-anchor="middle" x="242" y="-7.5" font-family="Helvetica,sans-Serif" font-size="10.00">_TextMesh.C</text>
</a>
</g>
</g>
<!-- Node5&#45;&gt;Node7 -->
<g id="edge6" class="edge">
<title>Node5&#45;&gt;Node7</title>
<path fill="none" stroke="midnightblue" d="M202.75,-59.74C211.48,-50.12 221.5,-39.09 229.22,-30.58"/>
<polygon fill="midnightblue" stroke="midnightblue" points="199.93,-57.64 195.8,-67.4 205.11,-62.34 199.93,-57.64"/>
</g>
</g>
</svg>
