<?xml version="1.0" encoding="UTF-8" standalone="no"?>
<!DOCTYPE svg PUBLIC "-//W3C//DTD SVG 1.1//EN"
 "http://www.w3.org/Graphics/SVG/1.1/DTD/svg11.dtd">
<!-- Generated by graphviz version 2.46.1 (20210213.1702)
 -->
<!-- Title: src/Ioss_StructuredBlock.h Pages: 1 -->
<!--zoomable 296 -->
<svg id="main" version="1.1" xmlns="http://www.w3.org/2000/svg" xmlns:xlink="http://www.w3.org/1999/xlink" xml:space="preserve" onload="init(evt)">
<style type="text/css"><![CDATA[
.edge:hover path { stroke: red; }
.edge:hover polygon { stroke: red; fill: red; }
]]></style>
<script type="text/javascript"><![CDATA[
var edges = document.getElementsByTagName('g');
if (edges && edges.length) {
  for (var i=0;i<edges.length;i++) {
    if (edges[i].id.substr(0,4)=='edge') {
      edges[i].setAttribute('class','edge');
    }
  }
}
]]></script>
        <defs>
                <circle id="rim" cx="0" cy="0" r="7"/>
                <circle id="rim2" cx="0" cy="0" r="3.5"/>
                <g id="zoomPlus">
                        <use xlink:href="#rim" fill="#404040">
                                <set attributeName="fill" to="#808080" begin="zoomplus.mouseover" end="zoomplus.mouseout"/>
                        </use>
                        <path d="M-4,0h8M0,-4v8" fill="none" stroke="white" stroke-width="1.5" pointer-events="none"/>
                </g>
                <g id="zoomMin">
                        <use xlink:href="#rim" fill="#404040">
                                <set attributeName="fill" to="#808080" begin="zoomminus.mouseover" end="zoomminus.mouseout"/>
                        </use>
                        <path d="M-4,0h8" fill="none" stroke="white" stroke-width="1.5" pointer-events="none"/>
                </g>
                <g id="dirArrow">
                        <path fill="none" stroke="white" stroke-width="1.5" d="M0,-3.0v7 M-2.5,-0.5L0,-3.0L2.5,-0.5"/>
                </g>
               <g id="resetDef">
                       <use xlink:href="#rim2" fill="#404040">
                               <set attributeName="fill" to="#808080" begin="reset.mouseover" end="reset.mouseout"/>
                       </use>
               </g>
        </defs>

<script type="text/javascript">
var viewWidth = 3082;
var viewHeight = 296;
var sectionId = 'dynsection-1';
</script>
<script xlink:href="svgpan.js"/>
<svg id="graph" class="graph">
<g id="viewport">
<title>src/Ioss_StructuredBlock.h</title>
<polygon fill="white" stroke="transparent" points="-4,4 -4,-292 3078.43,-292 3078.43,4 -4,4"/>
<!-- Node1 -->
<g id="node1" class="node">
<title>Node1</title>
<g id="a_node1"><a xlink:title=" ">
<polygon fill="#bfbfbf" stroke="black" points="1866.93,-268.5 1866.93,-287.5 2001.93,-287.5 2001.93,-268.5 1866.93,-268.5"/>
<text text-anchor="middle" x="1934.43" y="-275.5" font-family="Helvetica,sans-Serif" font-size="10.00">src/Ioss_StructuredBlock.h</text>
</a>
</g>
</g>
<!-- Node2 -->
<g id="node2" class="node">
<title>Node2</title>
<g id="a_node2"><a xlink:href="Iocgns__DecompositionData_8C.html" target="_top" xlink:title=" ">
<polygon fill="white" stroke="black" points="169.93,-67.5 169.93,-97.5 326.93,-97.5 326.93,-67.5 169.93,-67.5"/>
<text text-anchor="start" x="177.93" y="-85.5" font-family="Helvetica,sans-Serif" font-size="10.00">src/cgns/Iocgns_Decomposition</text>
<text text-anchor="middle" x="248.43" y="-74.5" font-family="Helvetica,sans-Serif" font-size="10.00">Data.C</text>
</a>
</g>
</g>
<!-- Node1&#45;&gt;Node2 -->
<g id="edge1" class="edge">
<title>Node1&#45;&gt;Node2</title>
<path fill="none" stroke="midnightblue" d="M1856.27,-276.49C1581.6,-274.41 661.45,-265.1 368.43,-232 216.69,-214.86 128.31,-283.04 31.43,-165 22.69,-154.35 22.86,-144.79 31.43,-134 40.33,-122.79 111.47,-107.66 169.9,-96.9"/>
<polygon fill="midnightblue" stroke="midnightblue" points="1856.51,-279.99 1866.54,-276.56 1856.57,-272.99 1856.51,-279.99"/>
</g>
<!-- Node3 -->
<g id="node3" class="node">
<title>Node3</title>
<g id="a_node3"><a xlink:href="Iocgns__DecompositionData_8h.html" target="_top" xlink:title=" ">
<polygon fill="white" stroke="black" points="40.93,-134.5 40.93,-164.5 197.93,-164.5 197.93,-134.5 40.93,-134.5"/>
<text text-anchor="start" x="48.93" y="-152.5" font-family="Helvetica,sans-Serif" font-size="10.00">src/cgns/Iocgns_Decomposition</text>
<text text-anchor="middle" x="119.43" y="-141.5" font-family="Helvetica,sans-Serif" font-size="10.00">Data.h</text>
</a>
</g>
</g>
<!-- Node1&#45;&gt;Node3 -->
<g id="edge2" class="edge">
<title>Node1&#45;&gt;Node3</title>
<path fill="none" stroke="midnightblue" d="M1856.81,-275.93C1606.54,-272.24 822.57,-258.8 570.43,-232 429.99,-217.07 267.48,-183.67 181.03,-164.58"/>
<polygon fill="midnightblue" stroke="midnightblue" points="1856.85,-279.43 1866.9,-276.08 1856.96,-272.43 1856.85,-279.43"/>
</g>
<!-- Node5 -->
<g id="node5" class="node">
<title>Node5</title>
<g id="a_node5"><a xlink:href="Iocgns__ParallelDatabaseIO_8C.html" target="_top" xlink:title=" ">
<polygon fill="white" stroke="black" points="27.43,-0.5 27.43,-30.5 151.43,-30.5 151.43,-0.5 27.43,-0.5"/>
<text text-anchor="start" x="35.43" y="-18.5" font-family="Helvetica,sans-Serif" font-size="10.00">src/cgns/Iocgns_Parallel</text>
<text text-anchor="middle" x="89.43" y="-7.5" font-family="Helvetica,sans-Serif" font-size="10.00">DatabaseIO.C</text>
</a>
</g>
</g>
<!-- Node1&#45;&gt;Node5 -->
<g id="edge6" class="edge">
<title>Node1&#45;&gt;Node5</title>
<path fill="none" stroke="midnightblue" d="M1856.64,-277.14C1513.04,-277.48 144.79,-276.07 65.43,-232 -1.23,-194.98 -16.53,-134.76 18.43,-67 26.68,-51 42.6,-38.97 57.28,-30.66"/>
<polygon fill="midnightblue" stroke="midnightblue" points="1856.75,-280.64 1866.75,-277.12 1856.74,-273.64 1856.75,-280.64"/>
</g>
<!-- Node6 -->
<g id="node6" class="node">
<title>Node6</title>
<g id="a_node6"><a xlink:href="Iocgns__StructuredZoneData_8h.html" target="_top" xlink:title=" ">
<polygon fill="white" stroke="black" points="579.93,-201.5 579.93,-231.5 716.93,-231.5 716.93,-201.5 579.93,-201.5"/>
<text text-anchor="start" x="587.93" y="-219.5" font-family="Helvetica,sans-Serif" font-size="10.00">src/cgns/Iocgns_Structured</text>
<text text-anchor="middle" x="648.43" y="-208.5" font-family="Helvetica,sans-Serif" font-size="10.00">ZoneData.h</text>
</a>
</g>
</g>
<!-- Node1&#45;&gt;Node6 -->
<g id="edge7" class="edge">
<title>Node1&#45;&gt;Node6</title>
<path fill="none" stroke="midnightblue" d="M1856.83,-273.7C1688.23,-266.48 1275.85,-248.62 930.43,-232 857.59,-228.5 774.19,-224.17 717.09,-221.16"/>
<polygon fill="midnightblue" stroke="midnightblue" points="1856.71,-277.19 1866.85,-274.12 1857.01,-270.2 1856.71,-277.19"/>
</g>
<!-- Node8 -->
<g id="node8" class="node">
<title>Node8</title>
<g id="a_node8"><a xlink:href="Iocgns__Utils_8C.html" target="_top" xlink:title=" ">
<polygon fill="white" stroke="black" points="803.43,-140 803.43,-159 925.43,-159 925.43,-140 803.43,-140"/>
<text text-anchor="middle" x="864.43" y="-147" font-family="Helvetica,sans-Serif" font-size="10.00">src/cgns/Iocgns_Utils.C</text>
</a>
</g>
</g>
<!-- Node1&#45;&gt;Node8 -->
<g id="edge17" class="edge">
<title>Node1&#45;&gt;Node8</title>
<path fill="none" stroke="midnightblue" d="M1856.62,-276.83C1668.97,-275.81 1195.69,-269.49 1042.43,-232 977.72,-216.17 907.76,-176.81 878.52,-159.22"/>
<polygon fill="midnightblue" stroke="midnightblue" points="1856.67,-280.33 1866.69,-276.88 1856.71,-273.33 1856.67,-280.33"/>
</g>
<!-- Node15 -->
<g id="node15" class="node">
<title>Node15</title>
<g id="a_node15"><a xlink:href="Iocgns__Utils_8h.html" target="_top" xlink:title=" ">
<polygon fill="white" stroke="black" points="1051.43,-207 1051.43,-226 1171.43,-226 1171.43,-207 1051.43,-207"/>
<text text-anchor="middle" x="1111.43" y="-214" font-family="Helvetica,sans-Serif" font-size="10.00">src/cgns/Iocgns_Utils.h</text>
</a>
</g>
</g>
<!-- Node1&#45;&gt;Node15 -->
<g id="edge18" class="edge">
<title>Node1&#45;&gt;Node15</title>
<path fill="none" stroke="midnightblue" d="M1856.27,-271.35C1692.79,-259.53 1317.79,-232.42 1171.46,-221.84"/>
<polygon fill="midnightblue" stroke="midnightblue" points="1856.5,-274.88 1866.73,-272.11 1857.01,-267.89 1856.5,-274.88"/>
</g>
<!-- Node18 -->
<g id="node18" class="node">
<title>Node18</title>
<g id="a_node18"><a xlink:href="Iofaodel__FieldSerialization_8h.html" target="_top" xlink:title=" ">
<polygon fill="white" stroke="black" points="1617.43,-201.5 1617.43,-231.5 1721.43,-231.5 1721.43,-201.5 1617.43,-201.5"/>
<text text-anchor="start" x="1625.43" y="-219.5" font-family="Helvetica,sans-Serif" font-size="10.00">src/faodel/Iofaodel</text>
<text text-anchor="middle" x="1669.43" y="-208.5" font-family="Helvetica,sans-Serif" font-size="10.00">_FieldSerialization.h</text>
</a>
</g>
</g>
<!-- Node1&#45;&gt;Node18 -->
<g id="edge27" class="edge">
<title>Node1&#45;&gt;Node18</title>
<path fill="none" stroke="midnightblue" d="M1885.08,-266.35C1843.73,-257.37 1783.17,-244.09 1730.43,-232 1727.56,-231.34 1724.63,-230.66 1721.66,-229.97"/>
<polygon fill="midnightblue" stroke="midnightblue" points="1884.38,-269.78 1894.9,-268.48 1885.87,-262.94 1884.38,-269.78"/>
</g>
<!-- Node21 -->
<g id="node21" class="node">
<title>Node21</title>
<g id="a_node21"><a xlink:href="Iofaodel__PropertySerialization_8C.html" target="_top" xlink:title=" ">
<polygon fill="white" stroke="black" points="1873.43,-201.5 1873.43,-231.5 1995.43,-231.5 1995.43,-201.5 1873.43,-201.5"/>
<text text-anchor="start" x="1881.43" y="-219.5" font-family="Helvetica,sans-Serif" font-size="10.00">src/faodel/Iofaodel</text>
<text text-anchor="middle" x="1934.43" y="-208.5" font-family="Helvetica,sans-Serif" font-size="10.00">_PropertySerialization.C</text>
</a>
</g>
</g>
<!-- Node1&#45;&gt;Node21 -->
<g id="edge30" class="edge">
<title>Node1&#45;&gt;Node21</title>
<path fill="none" stroke="midnightblue" d="M1934.43,-258.23C1934.43,-249.59 1934.43,-239.5 1934.43,-231.52"/>
<polygon fill="midnightblue" stroke="midnightblue" points="1930.93,-258.48 1934.43,-268.48 1937.93,-258.48 1930.93,-258.48"/>
</g>
<!-- Node22 -->
<g id="node22" class="node">
<title>Node22</title>
<g id="a_node22"><a xlink:href="Iofaodel__Utils_8C.html" target="_top" xlink:title=" ">
<polygon fill="white" stroke="black" points="2013.93,-201.5 2013.93,-231.5 2110.93,-231.5 2110.93,-201.5 2013.93,-201.5"/>
<text text-anchor="start" x="2021.93" y="-219.5" font-family="Helvetica,sans-Serif" font-size="10.00">src/faodel/Iofaodel</text>
<text text-anchor="middle" x="2062.43" y="-208.5" font-family="Helvetica,sans-Serif" font-size="10.00">_Utils.C</text>
</a>
</g>
</g>
<!-- Node1&#45;&gt;Node22 -->
<g id="edge31" class="edge">
<title>Node1&#45;&gt;Node22</title>
<path fill="none" stroke="midnightblue" d="M1961.97,-264.2C1982.65,-254.58 2010.96,-241.42 2032.26,-231.52"/>
<polygon fill="midnightblue" stroke="midnightblue" points="1960.36,-261.09 1952.77,-268.48 1963.31,-267.43 1960.36,-261.09"/>
</g>
<!-- Node23 -->
<g id="node23" class="node">
<title>Node23</title>
<g id="a_node23"><a xlink:href="Iogs__DatabaseIO_8C.html" target="_top" xlink:title=" ">
<polygon fill="white" stroke="black" points="2129.43,-201.5 2129.43,-231.5 2227.43,-231.5 2227.43,-201.5 2129.43,-201.5"/>
<text text-anchor="start" x="2137.43" y="-219.5" font-family="Helvetica,sans-Serif" font-size="10.00">src/gen_struc/Iogs</text>
<text text-anchor="middle" x="2178.43" y="-208.5" font-family="Helvetica,sans-Serif" font-size="10.00">_DatabaseIO.C</text>
</a>
</g>
</g>
<!-- Node1&#45;&gt;Node23 -->
<g id="edge32" class="edge">
<title>Node1&#45;&gt;Node23</title>
<path fill="none" stroke="midnightblue" d="M1979.65,-266.03C2017.11,-256.94 2071.74,-243.66 2119.43,-232 2122.61,-231.22 2125.88,-230.42 2129.18,-229.61"/>
<polygon fill="midnightblue" stroke="midnightblue" points="1978.45,-262.72 1969.56,-268.48 1980.1,-269.52 1978.45,-262.72"/>
</g>
<!-- Node24 -->
<g id="node24" class="node">
<title>Node24</title>
<g id="a_node24"><a xlink:href="Ioss__DatabaseIO_8C.html" target="_top" xlink:title=" ">
<polygon fill="white" stroke="black" points="2245.43,-207 2245.43,-226 2365.43,-226 2365.43,-207 2245.43,-207"/>
<text text-anchor="middle" x="2305.43" y="-214" font-family="Helvetica,sans-Serif" font-size="10.00">src/Ioss_DatabaseIO.C</text>
</a>
</g>
</g>
<!-- Node1&#45;&gt;Node24 -->
<g id="edge33" class="edge">
<title>Node1&#45;&gt;Node24</title>
<path fill="none" stroke="midnightblue" d="M2009.08,-267.13C2070.33,-258.73 2159.2,-245.86 2236.43,-232 2246.31,-230.23 2256.94,-228.1 2266.83,-226.03"/>
<polygon fill="midnightblue" stroke="midnightblue" points="2008.55,-263.67 1999.12,-268.49 2009.5,-270.61 2008.55,-263.67"/>
</g>
<!-- Node25 -->
<g id="node25" class="node">
<title>Node25</title>
<g id="a_node25"><a xlink:href="Ioss__Region_8C.html" target="_top" xlink:title=" ">
<polygon fill="white" stroke="black" points="2383.43,-207 2383.43,-226 2481.43,-226 2481.43,-207 2383.43,-207"/>
<text text-anchor="middle" x="2432.43" y="-214" font-family="Helvetica,sans-Serif" font-size="10.00">src/Ioss_Region.C</text>
</a>
</g>
</g>
<!-- Node1&#45;&gt;Node25 -->
<g id="edge34" class="edge">
<title>Node1&#45;&gt;Node25</title>
<path fill="none" stroke="midnightblue" d="M2012.13,-272.43C2100.41,-266.45 2248.56,-254.05 2374.43,-232 2383.43,-230.42 2393.09,-228.22 2401.9,-226"/>
<polygon fill="midnightblue" stroke="midnightblue" points="2011.68,-268.95 2001.93,-273.11 2012.14,-275.93 2011.68,-268.95"/>
</g>
<!-- Node26 -->
<g id="node26" class="node">
<title>Node26</title>
<g id="a_node26"><a xlink:href="Ioss__StructuredBlock_8C.html" target="_top" xlink:title=" ">
<polygon fill="white" stroke="black" points="2499.93,-207 2499.93,-226 2636.93,-226 2636.93,-207 2499.93,-207"/>
<text text-anchor="middle" x="2568.43" y="-214" font-family="Helvetica,sans-Serif" font-size="10.00">src/Ioss_StructuredBlock.C</text>
</a>
</g>
</g>
<!-- Node1&#45;&gt;Node26 -->
<g id="edge35" class="edge">
<title>Node1&#45;&gt;Node26</title>
<path fill="none" stroke="midnightblue" d="M2012.42,-273.23C2120.23,-267.44 2320.71,-254.58 2490.43,-232 2502.31,-230.42 2515.12,-228.24 2526.86,-226.05"/>
<polygon fill="midnightblue" stroke="midnightblue" points="2012.08,-269.74 2002.28,-273.77 2012.45,-276.73 2012.08,-269.74"/>
</g>
<!-- Node27 -->
<g id="node27" class="node">
<title>Node27</title>
<g id="a_node27"><a xlink:href="Ioss__SubSystem_8h.html" target="_top" xlink:title=" ">
<polygon fill="white" stroke="black" points="1739.43,-207 1739.43,-226 1855.43,-226 1855.43,-207 1739.43,-207"/>
<text text-anchor="middle" x="1797.43" y="-214" font-family="Helvetica,sans-Serif" font-size="10.00">src/Ioss_SubSystem.h</text>
</a>
</g>
</g>
<!-- Node1&#45;&gt;Node27 -->
<g id="edge36" class="edge">
<title>Node1&#45;&gt;Node27</title>
<path fill="none" stroke="midnightblue" d="M1905.6,-264.48C1878.99,-252.92 1840.2,-236.08 1817.02,-226.01"/>
<polygon fill="midnightblue" stroke="midnightblue" points="1904.23,-267.7 1914.8,-268.48 1907.02,-261.28 1904.23,-267.7"/>
</g>
<!-- Node36 -->
<g id="node36" class="node">
<title>Node36</title>
<g id="a_node36"><a xlink:href="io__info_8h.html" target="_top" xlink:title=" ">
<polygon fill="white" stroke="black" points="2655.43,-207 2655.43,-226 2749.43,-226 2749.43,-207 2655.43,-207"/>
<text text-anchor="middle" x="2702.43" y="-214" font-family="Helvetica,sans-Serif" font-size="10.00">src/main/io_info.h</text>
</a>
</g>
</g>
<!-- Node1&#45;&gt;Node36 -->
<g id="edge48" class="edge">
<title>Node1&#45;&gt;Node36</title>
<path fill="none" stroke="midnightblue" d="M2012.39,-276.79C2143.78,-275.38 2417.33,-267.91 2645.43,-232 2654.61,-230.55 2664.46,-228.3 2673.36,-226.01"/>
<polygon fill="midnightblue" stroke="midnightblue" points="2012,-273.29 2002.03,-276.89 2012.07,-280.29 2012,-273.29"/>
</g>
<!-- Node39 -->
<g id="node39" class="node">
<title>Node39</title>
<g id="a_node39"><a xlink:href="io__modify_8C.html" target="_top" xlink:title=" ">
<polygon fill="white" stroke="black" points="2767.43,-207 2767.43,-226 2875.43,-226 2875.43,-207 2767.43,-207"/>
<text text-anchor="middle" x="2821.43" y="-214" font-family="Helvetica,sans-Serif" font-size="10.00">src/main/io_modify.C</text>
</a>
</g>
</g>
<!-- Node1&#45;&gt;Node39 -->
<g id="edge51" class="edge">
<title>Node1&#45;&gt;Node39</title>
<path fill="none" stroke="midnightblue" d="M2012.35,-277.18C2159.1,-276.55 2486.21,-270.47 2758.43,-232 2768.54,-230.57 2779.43,-228.33 2789.26,-226.02"/>
<polygon fill="midnightblue" stroke="midnightblue" points="2012.09,-273.69 2002.1,-277.22 2012.11,-280.69 2012.09,-273.69"/>
</g>
<!-- Node40 -->
<g id="node40" class="node">
<title>Node40</title>
<g id="a_node40"><a xlink:href="Iovs__cgns__DatabaseIO_8C.html" target="_top" xlink:title=" ">
<polygon fill="white" stroke="black" points="2893.93,-201.5 2893.93,-231.5 3026.93,-231.5 3026.93,-201.5 2893.93,-201.5"/>
<text text-anchor="start" x="2901.93" y="-219.5" font-family="Helvetica,sans-Serif" font-size="10.00">src/visualization/cgns</text>
<text text-anchor="middle" x="2960.43" y="-208.5" font-family="Helvetica,sans-Serif" font-size="10.00">/Iovs_cgns_DatabaseIO.C</text>
</a>
</g>
</g>
<!-- Node1&#45;&gt;Node40 -->
<g id="edge52" class="edge">
<title>Node1&#45;&gt;Node40</title>
<path fill="none" stroke="midnightblue" d="M2012.47,-277.02C2175.19,-276.25 2562.33,-270.16 2884.43,-232 2887.5,-231.64 2890.63,-231.22 2893.78,-230.77"/>
<polygon fill="midnightblue" stroke="midnightblue" points="2012.07,-273.52 2002.08,-277.07 2012.1,-280.52 2012.07,-273.52"/>
</g>
<!-- Node3&#45;&gt;Node2 -->
<g id="edge3" class="edge">
<title>Node3&#45;&gt;Node2</title>
<path fill="none" stroke="midnightblue" d="M156.44,-129.85C176.83,-119.58 201.74,-107.03 220.49,-97.58"/>
<polygon fill="midnightblue" stroke="midnightblue" points="154.78,-126.77 147.42,-134.4 157.93,-133.02 154.78,-126.77"/>
</g>
<!-- Node4 -->
<g id="node4" class="node">
<title>Node4</title>
<g id="a_node4"><a xlink:href="Iocgns__ParallelDatabaseIO_8h.html" target="_top" xlink:title=" ">
<polygon fill="white" stroke="black" points="27.43,-67.5 27.43,-97.5 151.43,-97.5 151.43,-67.5 27.43,-67.5"/>
<text text-anchor="start" x="35.43" y="-85.5" font-family="Helvetica,sans-Serif" font-size="10.00">src/cgns/Iocgns_Parallel</text>
<text text-anchor="middle" x="89.43" y="-74.5" font-family="Helvetica,sans-Serif" font-size="10.00">DatabaseIO.h</text>
</a>
</g>
</g>
<!-- Node3&#45;&gt;Node4 -->
<g id="edge4" class="edge">
<title>Node3&#45;&gt;Node4</title>
<path fill="none" stroke="midnightblue" d="M108.71,-125.28C104.44,-116.02 99.66,-105.66 95.93,-97.58"/>
<polygon fill="midnightblue" stroke="midnightblue" points="105.55,-126.78 112.92,-134.4 111.91,-123.85 105.55,-126.78"/>
</g>
<!-- Node4&#45;&gt;Node5 -->
<g id="edge5" class="edge">
<title>Node4&#45;&gt;Node5</title>
<path fill="none" stroke="midnightblue" d="M89.43,-57.11C89.43,-48.15 89.43,-38.32 89.43,-30.58"/>
<polygon fill="midnightblue" stroke="midnightblue" points="85.93,-57.4 89.43,-67.4 92.93,-57.4 85.93,-57.4"/>
</g>
<!-- Node6&#45;&gt;Node3 -->
<g id="edge8" class="edge">
<title>Node6&#45;&gt;Node3</title>
<path fill="none" stroke="midnightblue" d="M569.8,-207.75C481.3,-198.74 333.29,-182.81 206.43,-165 203.7,-164.62 200.92,-164.22 198.12,-163.8"/>
<polygon fill="midnightblue" stroke="midnightblue" points="569.46,-211.23 579.77,-208.76 570.17,-204.27 569.46,-211.23"/>
</g>
<!-- Node7 -->
<g id="node7" class="node">
<title>Node7</title>
<g id="a_node7"><a xlink:href="Iocgns__StructuredZoneData_8C.html" target="_top" xlink:title=" ">
<polygon fill="white" stroke="black" points="215.93,-134.5 215.93,-164.5 352.93,-164.5 352.93,-134.5 215.93,-134.5"/>
<text text-anchor="start" x="223.93" y="-152.5" font-family="Helvetica,sans-Serif" font-size="10.00">src/cgns/Iocgns_Structured</text>
<text text-anchor="middle" x="284.43" y="-141.5" font-family="Helvetica,sans-Serif" font-size="10.00">ZoneData.C</text>
</a>
</g>
</g>
<!-- Node6&#45;&gt;Node7 -->
<g id="edge9" class="edge">
<title>Node6&#45;&gt;Node7</title>
<path fill="none" stroke="midnightblue" d="M569.53,-201.88C511.85,-191.86 431.74,-177.81 361.43,-165 358.75,-164.51 356.02,-164.01 353.27,-163.51"/>
<polygon fill="midnightblue" stroke="midnightblue" points="569.22,-205.38 579.67,-203.64 570.42,-198.48 569.22,-205.38"/>
</g>
<!-- Node6&#45;&gt;Node8 -->
<g id="edge10" class="edge">
<title>Node6&#45;&gt;Node8</title>
<path fill="none" stroke="midnightblue" d="M704.62,-198.59C746.81,-185.9 802.81,-169.04 836.09,-159.03"/>
<polygon fill="midnightblue" stroke="midnightblue" points="703.6,-195.24 695.03,-201.48 705.62,-201.95 703.6,-195.24"/>
</g>
<!-- Node9 -->
<g id="node9" class="node">
<title>Node9</title>
<g id="a_node9"><a xlink:href="cgns__decomp_8C.html" target="_top" xlink:title=" ">
<polygon fill="white" stroke="black" points="657.43,-140 657.43,-159 785.43,-159 785.43,-140 657.43,-140"/>
<text text-anchor="middle" x="721.43" y="-147" font-family="Helvetica,sans-Serif" font-size="10.00">src/main/cgns_decomp.C</text>
</a>
</g>
</g>
<!-- Node6&#45;&gt;Node9 -->
<g id="edge11" class="edge">
<title>Node6&#45;&gt;Node9</title>
<path fill="none" stroke="midnightblue" d="M671.82,-194.67C685.3,-182.67 701.53,-168.22 711.67,-159.19"/>
<polygon fill="midnightblue" stroke="midnightblue" points="669.41,-192.13 664.27,-201.4 674.07,-197.36 669.41,-192.13"/>
</g>
<!-- Node10 -->
<g id="node10" class="node">
<title>Node10</title>
<g id="a_node10"><a xlink:href="struc__to__unstruc_8C.html" target="_top" xlink:title=" ">
<polygon fill="white" stroke="black" points="943.43,-140 943.43,-159 1083.43,-159 1083.43,-140 943.43,-140"/>
<text text-anchor="middle" x="1013.43" y="-147" font-family="Helvetica,sans-Serif" font-size="10.00">src/main/struc_to_unstruc.C</text>
</a>
</g>
</g>
<!-- Node6&#45;&gt;Node10 -->
<g id="edge12" class="edge">
<title>Node6&#45;&gt;Node10</title>
<path fill="none" stroke="midnightblue" d="M727.03,-201.77C784.5,-191.69 864.33,-177.62 934.43,-165 945,-163.1 956.35,-161.03 967.07,-159.06"/>
<polygon fill="midnightblue" stroke="midnightblue" points="726.18,-198.36 716.93,-203.54 727.38,-205.26 726.18,-198.36"/>
</g>
<!-- Node11 -->
<g id="node11" class="node">
<title>Node11</title>
<g id="a_node11"><a xlink:href="Utst__structured__decomp_8C.html" target="_top" xlink:title=" ">
<polygon fill="white" stroke="black" points="513.93,-134.5 513.93,-164.5 638.93,-164.5 638.93,-134.5 513.93,-134.5"/>
<text text-anchor="start" x="521.93" y="-152.5" font-family="Helvetica,sans-Serif" font-size="10.00">src/utest/Utst_structured</text>
<text text-anchor="middle" x="576.43" y="-141.5" font-family="Helvetica,sans-Serif" font-size="10.00">_decomp.C</text>
</a>
</g>
</g>
<!-- Node6&#45;&gt;Node11 -->
<g id="edge13" class="edge">
<title>Node6&#45;&gt;Node11</title>
<path fill="none" stroke="midnightblue" d="M625.28,-194.6C614.4,-184.78 601.73,-173.34 592.02,-164.58"/>
<polygon fill="midnightblue" stroke="midnightblue" points="623.04,-197.29 632.81,-201.4 627.73,-192.1 623.04,-197.29"/>
</g>
<!-- Node12 -->
<g id="node12" class="node">
<title>Node12</title>
<g id="a_node12"><a xlink:href="Utst__structured__decomp_8h.html" target="_top" xlink:title=" ">
<polygon fill="white" stroke="black" points="370.93,-134.5 370.93,-164.5 495.93,-164.5 495.93,-134.5 370.93,-134.5"/>
<text text-anchor="start" x="378.93" y="-152.5" font-family="Helvetica,sans-Serif" font-size="10.00">src/utest/Utst_structured</text>
<text text-anchor="middle" x="433.43" y="-141.5" font-family="Helvetica,sans-Serif" font-size="10.00">_decomp.h</text>
</a>
</g>
</g>
<!-- Node6&#45;&gt;Node12 -->
<g id="edge14" class="edge">
<title>Node6&#45;&gt;Node12</title>
<path fill="none" stroke="midnightblue" d="M592.46,-198.58C557.54,-188.02 513.12,-174.59 480.1,-164.61"/>
<polygon fill="midnightblue" stroke="midnightblue" points="591.46,-201.93 602.04,-201.48 593.48,-195.23 591.46,-201.93"/>
</g>
<!-- Node13 -->
<g id="node13" class="node">
<title>Node13</title>
<g id="a_node13"><a xlink:href="Utst__structured__decomp__herron_8C.html" target="_top" xlink:title=" ">
<polygon fill="white" stroke="black" points="500.93,-67.5 500.93,-97.5 625.93,-97.5 625.93,-67.5 500.93,-67.5"/>
<text text-anchor="start" x="508.93" y="-85.5" font-family="Helvetica,sans-Serif" font-size="10.00">src/utest/Utst_structured</text>
<text text-anchor="middle" x="563.43" y="-74.5" font-family="Helvetica,sans-Serif" font-size="10.00">_decomp_herron.C</text>
</a>
</g>
</g>
<!-- Node12&#45;&gt;Node13 -->
<g id="edge15" class="edge">
<title>Node12&#45;&gt;Node13</title>
<path fill="none" stroke="midnightblue" d="M470.72,-129.85C491.28,-119.58 516.38,-107.03 535.28,-97.58"/>
<polygon fill="midnightblue" stroke="midnightblue" points="469.02,-126.79 461.64,-134.4 472.15,-133.05 469.02,-126.79"/>
</g>
<!-- Node14 -->
<g id="node14" class="node">
<title>Node14</title>
<g id="a_node14"><a xlink:href="Utst__structured__decomp__rocket_8C.html" target="_top" xlink:title=" ">
<polygon fill="white" stroke="black" points="357.93,-67.5 357.93,-97.5 482.93,-97.5 482.93,-67.5 357.93,-67.5"/>
<text text-anchor="start" x="365.93" y="-85.5" font-family="Helvetica,sans-Serif" font-size="10.00">src/utest/Utst_structured</text>
<text text-anchor="middle" x="420.43" y="-74.5" font-family="Helvetica,sans-Serif" font-size="10.00">_decomp_rocket.C</text>
</a>
</g>
</g>
<!-- Node12&#45;&gt;Node14 -->
<g id="edge16" class="edge">
<title>Node12&#45;&gt;Node14</title>
<path fill="none" stroke="midnightblue" d="M428.61,-124.4C426.8,-115.37 424.81,-105.41 423.24,-97.58"/>
<polygon fill="midnightblue" stroke="midnightblue" points="425.22,-125.28 430.61,-134.4 432.08,-123.9 425.22,-125.28"/>
</g>
<!-- Node15&#45;&gt;Node2 -->
<g id="edge20" class="edge">
<title>Node15&#45;&gt;Node2</title>
<path fill="none" stroke="midnightblue" d="M1112.94,-196.79C1113.32,-177.79 1110.53,-149.1 1092.43,-134 1028.87,-81 430.81,-105.95 348.43,-98 341.45,-97.33 334.2,-96.51 326.95,-95.61"/>
<polygon fill="midnightblue" stroke="midnightblue" points="1109.43,-196.75 1112.41,-206.91 1116.42,-197.11 1109.43,-196.75"/>
</g>
<!-- Node15&#45;&gt;Node5 -->
<g id="edge22" class="edge">
<title>Node15&#45;&gt;Node5</title>
<path fill="none" stroke="midnightblue" d="M1181.64,-207.39C1247.25,-197.11 1329.89,-175.47 1292.43,-134 1215.28,-48.6 386.95,-23.28 151.52,-17.78"/>
<polygon fill="midnightblue" stroke="midnightblue" points="1181.06,-203.94 1171.69,-208.89 1182.1,-210.87 1181.06,-203.94"/>
</g>
<!-- Node15&#45;&gt;Node8 -->
<g id="edge23" class="edge">
<title>Node15&#45;&gt;Node8</title>
<path fill="none" stroke="midnightblue" d="M1068.96,-204.32C1020.19,-191.49 941.23,-170.71 897.05,-159.08"/>
<polygon fill="midnightblue" stroke="midnightblue" points="1068.32,-207.78 1078.88,-206.94 1070.1,-201.01 1068.32,-207.78"/>
</g>
<!-- Node15&#45;&gt;Node9 -->
<g id="edge24" class="edge">
<title>Node15&#45;&gt;Node9</title>
<path fill="none" stroke="midnightblue" d="M1043.76,-205.48C979.49,-195.79 880.22,-180.35 794.43,-165 784.25,-163.18 773.31,-161.08 763.07,-159.06"/>
<polygon fill="midnightblue" stroke="midnightblue" points="1043.35,-208.96 1053.76,-206.99 1044.39,-202.04 1043.35,-208.96"/>
</g>
<!-- Node15&#45;&gt;Node10 -->
<g id="edge25" class="edge">
<title>Node15&#45;&gt;Node10</title>
<path fill="none" stroke="midnightblue" d="M1089.71,-201.09C1070.32,-188.24 1042.57,-169.83 1026.44,-159.13"/>
<polygon fill="midnightblue" stroke="midnightblue" points="1087.94,-204.12 1098.21,-206.73 1091.81,-198.29 1087.94,-204.12"/>
</g>
<!-- Node15&#45;&gt;Node11 -->
<g id="edge26" class="edge">
<title>Node15&#45;&gt;Node11</title>
<path fill="none" stroke="midnightblue" d="M1041.08,-209.81C950.11,-202.01 786.92,-186.45 648.43,-165 645.41,-164.53 642.32,-164.02 639.2,-163.49"/>
<polygon fill="midnightblue" stroke="midnightblue" points="1041.01,-213.32 1051.27,-210.68 1041.6,-206.34 1041.01,-213.32"/>
</g>
<!-- Node16 -->
<g id="node16" class="node">
<title>Node16</title>
<g id="a_node16"><a xlink:href="Iocgns__DatabaseIO_8C.html" target="_top" xlink:title=" ">
<polygon fill="white" stroke="black" points="1339.93,-140 1339.93,-159 1494.93,-159 1494.93,-140 1339.93,-140"/>
<text text-anchor="middle" x="1417.43" y="-147" font-family="Helvetica,sans-Serif" font-size="10.00">src/cgns/Iocgns_DatabaseIO.C</text>
</a>
</g>
</g>
<!-- Node15&#45;&gt;Node16 -->
<g id="edge19" class="edge">
<title>Node15&#45;&gt;Node16</title>
<path fill="none" stroke="midnightblue" d="M1161.79,-204.8C1222.01,-192.01 1321.59,-170.86 1377.02,-159.08"/>
<polygon fill="midnightblue" stroke="midnightblue" points="1160.8,-201.43 1151.75,-206.94 1162.26,-208.28 1160.8,-201.43"/>
</g>
<!-- Node17 -->
<g id="node17" class="node">
<title>Node17</title>
<g id="a_node17"><a xlink:href="Iocgns__IOFactory_8C.html" target="_top" xlink:title=" ">
<polygon fill="white" stroke="black" points="1139.43,-140 1139.43,-159 1283.43,-159 1283.43,-140 1139.43,-140"/>
<text text-anchor="middle" x="1211.43" y="-147" font-family="Helvetica,sans-Serif" font-size="10.00">src/cgns/Iocgns_IOFactory.C</text>
</a>
</g>
</g>
<!-- Node15&#45;&gt;Node17 -->
<g id="edge21" class="edge">
<title>Node15&#45;&gt;Node17</title>
<path fill="none" stroke="midnightblue" d="M1133.32,-201.27C1153.12,-188.4 1181.62,-169.88 1198.16,-159.13"/>
<polygon fill="midnightblue" stroke="midnightblue" points="1131.39,-198.35 1124.92,-206.73 1135.21,-204.22 1131.39,-198.35"/>
</g>
<!-- Node19 -->
<g id="node19" class="node">
<title>Node19</title>
<g id="a_node19"><a xlink:href="Iofaodel__DatabaseIO_8C.html" target="_top" xlink:title=" ">
<polygon fill="white" stroke="black" points="1637.93,-134.5 1637.93,-164.5 1734.93,-164.5 1734.93,-134.5 1637.93,-134.5"/>
<text text-anchor="start" x="1645.93" y="-152.5" font-family="Helvetica,sans-Serif" font-size="10.00">src/faodel/Iofaodel</text>
<text text-anchor="middle" x="1686.43" y="-141.5" font-family="Helvetica,sans-Serif" font-size="10.00">_DatabaseIO.C</text>
</a>
</g>
</g>
<!-- Node18&#45;&gt;Node19 -->
<g id="edge28" class="edge">
<title>Node18&#45;&gt;Node19</title>
<path fill="none" stroke="midnightblue" d="M1675.66,-191.7C1678.04,-182.59 1680.68,-172.49 1682.75,-164.58"/>
<polygon fill="midnightblue" stroke="midnightblue" points="1672.26,-190.84 1673.12,-201.4 1679.03,-192.61 1672.26,-190.84"/>
</g>
<!-- Node20 -->
<g id="node20" class="node">
<title>Node20</title>
<g id="a_node20"><a xlink:href="Iofaodel__FieldSerialization_8C.html" target="_top" xlink:title=" ">
<polygon fill="white" stroke="black" points="1512.93,-134.5 1512.93,-164.5 1619.93,-164.5 1619.93,-134.5 1512.93,-134.5"/>
<text text-anchor="start" x="1520.93" y="-152.5" font-family="Helvetica,sans-Serif" font-size="10.00">src/faodel/Iofaodel</text>
<text text-anchor="middle" x="1566.43" y="-141.5" font-family="Helvetica,sans-Serif" font-size="10.00">_FieldSerialization.C</text>
</a>
</g>
</g>
<!-- Node18&#45;&gt;Node20 -->
<g id="edge29" class="edge">
<title>Node18&#45;&gt;Node20</title>
<path fill="none" stroke="midnightblue" d="M1638.55,-196.02C1622.52,-185.9 1603.3,-173.77 1588.74,-164.58"/>
<polygon fill="midnightblue" stroke="midnightblue" points="1636.76,-199.02 1647.08,-201.4 1640.49,-193.1 1636.76,-199.02"/>
</g>
<!-- Node27&#45;&gt;Node10 -->
<g id="edge45" class="edge">
<title>Node27&#45;&gt;Node10</title>
<path fill="none" stroke="midnightblue" d="M1752.86,-204.86C1745.41,-203.37 1737.73,-202 1730.43,-201 1465.77,-164.64 1396.46,-189.44 1130.43,-165 1112.8,-163.38 1093.73,-161.2 1076.2,-159.02"/>
<polygon fill="midnightblue" stroke="midnightblue" points="1752.33,-208.32 1762.84,-206.96 1753.77,-201.47 1752.33,-208.32"/>
</g>
<!-- Node27&#45;&gt;Node16 -->
<g id="edge38" class="edge">
<title>Node27&#45;&gt;Node16</title>
<path fill="none" stroke="midnightblue" d="M1749.61,-204.81C1743.17,-203.47 1736.65,-202.16 1730.43,-201 1630.03,-182.19 1604.24,-181.49 1503.43,-165 1491.77,-163.09 1479.24,-161 1467.44,-159.02"/>
<polygon fill="midnightblue" stroke="midnightblue" points="1749.08,-208.28 1759.59,-206.92 1750.53,-201.43 1749.08,-208.28"/>
</g>
<!-- Node27&#45;&gt;Node19 -->
<g id="edge39" class="edge">
<title>Node27&#45;&gt;Node19</title>
<path fill="none" stroke="midnightblue" d="M1773.7,-201.6C1755.06,-190.69 1729.21,-175.55 1710.49,-164.59"/>
<polygon fill="midnightblue" stroke="midnightblue" points="1772.06,-204.7 1782.46,-206.73 1775.6,-198.66 1772.06,-204.7"/>
</g>
<!-- Node28 -->
<g id="node28" class="node">
<title>Node28</title>
<g id="a_node28"><a xlink:href="Ut__ioad_8C.html" target="_top" xlink:title=" ">
<polygon fill="white" stroke="black" points="2448.93,-134.5 2448.93,-164.5 2543.93,-164.5 2543.93,-134.5 2448.93,-134.5"/>
<text text-anchor="start" x="2456.93" y="-152.5" font-family="Helvetica,sans-Serif" font-size="10.00">src/adios/utest/Ut</text>
<text text-anchor="middle" x="2496.43" y="-141.5" font-family="Helvetica,sans-Serif" font-size="10.00">_ioad.C</text>
</a>
</g>
</g>
<!-- Node27&#45;&gt;Node28 -->
<g id="edge37" class="edge">
<title>Node27&#45;&gt;Node28</title>
<path fill="none" stroke="midnightblue" d="M1842,-204.88C1849.45,-203.38 1857.14,-202.01 1864.43,-201 2118.06,-165.82 2186.48,-204.74 2439.43,-165 2442.46,-164.52 2445.56,-163.96 2448.67,-163.34"/>
<polygon fill="midnightblue" stroke="midnightblue" points="1841.09,-201.49 1832.03,-206.97 1842.53,-208.34 1841.09,-201.49"/>
</g>
<!-- Node29 -->
<g id="node29" class="node">
<title>Node29</title>
<g id="a_node29"><a xlink:href="Ioss__Compare_8C.html" target="_top" xlink:title=" ">
<polygon fill="white" stroke="black" points="2561.93,-140 2561.93,-159 2668.93,-159 2668.93,-140 2561.93,-140"/>
<text text-anchor="middle" x="2615.43" y="-147" font-family="Helvetica,sans-Serif" font-size="10.00">src/Ioss_Compare.C</text>
</a>
</g>
</g>
<!-- Node27&#45;&gt;Node29 -->
<g id="edge40" class="edge">
<title>Node27&#45;&gt;Node29</title>
<path fill="none" stroke="midnightblue" d="M1841.48,-204.91C1849.1,-203.39 1856.97,-202 1864.43,-201 2167.93,-160.49 2249.2,-207.5 2552.43,-165 2562.54,-163.58 2573.43,-161.34 2583.26,-159.04"/>
<polygon fill="midnightblue" stroke="midnightblue" points="1840.74,-201.49 1831.67,-206.98 1842.18,-208.34 1840.74,-201.49"/>
</g>
<!-- Node30 -->
<g id="node30" class="node">
<title>Node30</title>
<g id="a_node30"><a xlink:href="Ioss__CopyDatabase_8C.html" target="_top" xlink:title=" ">
<polygon fill="white" stroke="black" points="2686.93,-140 2686.93,-159 2819.93,-159 2819.93,-140 2686.93,-140"/>
<text text-anchor="middle" x="2753.43" y="-147" font-family="Helvetica,sans-Serif" font-size="10.00">src/Ioss_CopyDatabase.C</text>
</a>
</g>
</g>
<!-- Node27&#45;&gt;Node30 -->
<g id="edge41" class="edge">
<title>Node27&#45;&gt;Node30</title>
<path fill="none" stroke="midnightblue" d="M1841.48,-204.86C1849.09,-203.34 1856.96,-201.97 1864.43,-201 2223.13,-154.58 2318.19,-207 2677.43,-165 2689.57,-163.58 2702.68,-161.34 2714.54,-159.04"/>
<polygon fill="midnightblue" stroke="midnightblue" points="1840.73,-201.44 1831.66,-206.93 1842.17,-208.29 1840.73,-201.44"/>
</g>
<!-- Node31 -->
<g id="node31" class="node">
<title>Node31</title>
<g id="a_node31"><a xlink:href="Ioss__Utils_8C.html" target="_top" xlink:title=" ">
<polygon fill="white" stroke="black" points="1753.43,-140 1753.43,-159 1841.43,-159 1841.43,-140 1753.43,-140"/>
<text text-anchor="middle" x="1797.43" y="-147" font-family="Helvetica,sans-Serif" font-size="10.00">src/Ioss_Utils.C</text>
</a>
</g>
</g>
<!-- Node27&#45;&gt;Node31 -->
<g id="edge42" class="edge">
<title>Node27&#45;&gt;Node31</title>
<path fill="none" stroke="midnightblue" d="M1797.43,-196.54C1797.43,-184.17 1797.43,-168.62 1797.43,-159.13"/>
<polygon fill="midnightblue" stroke="midnightblue" points="1793.93,-196.73 1797.43,-206.73 1800.93,-196.73 1793.93,-196.73"/>
</g>
<!-- Node32 -->
<g id="node32" class="node">
<title>Node32</title>
<g id="a_node32"><a xlink:href="io__shell_8C.html" target="_top" xlink:title=" ">
<polygon fill="white" stroke="black" points="1859.93,-140 1859.93,-159 1960.93,-159 1960.93,-140 1859.93,-140"/>
<text text-anchor="middle" x="1910.43" y="-147" font-family="Helvetica,sans-Serif" font-size="10.00">src/main/io_shell.C</text>
</a>
</g>
</g>
<!-- Node27&#45;&gt;Node32 -->
<g id="edge43" class="edge">
<title>Node27&#45;&gt;Node32</title>
<path fill="none" stroke="midnightblue" d="M1821.57,-201.62C1843.96,-188.74 1876.57,-169.98 1895.43,-159.13"/>
<polygon fill="midnightblue" stroke="midnightblue" points="1819.59,-198.71 1812.67,-206.73 1823.08,-204.78 1819.59,-198.71"/>
</g>
<!-- Node33 -->
<g id="node33" class="node">
<title>Node33</title>
<g id="a_node33"><a xlink:href="io__shell__ts_8C.html" target="_top" xlink:title=" ">
<polygon fill="white" stroke="black" points="1979.43,-140 1979.43,-159 2093.43,-159 2093.43,-140 1979.43,-140"/>
<text text-anchor="middle" x="2036.43" y="-147" font-family="Helvetica,sans-Serif" font-size="10.00">src/main/io_shell_ts.C</text>
</a>
</g>
</g>
<!-- Node27&#45;&gt;Node33 -->
<g id="edge44" class="edge">
<title>Node27&#45;&gt;Node33</title>
<path fill="none" stroke="midnightblue" d="M1839.08,-204.17C1886.34,-191.32 1962.37,-170.64 2004.94,-159.06"/>
<polygon fill="midnightblue" stroke="midnightblue" points="1837.9,-200.87 1829.17,-206.87 1839.74,-207.62 1837.9,-200.87"/>
</g>
<!-- Node34 -->
<g id="node34" class="node">
<title>Node34</title>
<g id="a_node34"><a xlink:href="Iopg__DatabaseIO_8C.html" target="_top" xlink:title=" ">
<polygon fill="white" stroke="black" points="2111.43,-140 2111.43,-159 2269.43,-159 2269.43,-140 2111.43,-140"/>
<text text-anchor="middle" x="2190.43" y="-147" font-family="Helvetica,sans-Serif" font-size="10.00">src/pamgen/Iopg_DatabaseIO.C</text>
</a>
</g>
</g>
<!-- Node27&#45;&gt;Node34 -->
<g id="edge46" class="edge">
<title>Node27&#45;&gt;Node34</title>
<path fill="none" stroke="midnightblue" d="M1845.01,-204.82C1851.52,-203.47 1858.13,-202.16 1864.43,-201 1969.65,-181.68 1996.76,-181.7 2102.43,-165 2114.36,-163.12 2127.19,-161.03 2139.26,-159.05"/>
<polygon fill="midnightblue" stroke="midnightblue" points="1843.97,-201.46 1834.91,-206.95 1845.42,-208.31 1843.97,-201.46"/>
</g>
<!-- Node35 -->
<g id="node35" class="node">
<title>Node35</title>
<g id="a_node35"><a xlink:href="Iovs__exodus__DatabaseIO_8C.html" target="_top" xlink:title=" ">
<polygon fill="white" stroke="black" points="2287.93,-134.5 2287.93,-164.5 2430.93,-164.5 2430.93,-134.5 2287.93,-134.5"/>
<text text-anchor="start" x="2295.93" y="-152.5" font-family="Helvetica,sans-Serif" font-size="10.00">src/visualization/exodus</text>
<text text-anchor="middle" x="2359.43" y="-141.5" font-family="Helvetica,sans-Serif" font-size="10.00">/Iovs_exodus_DatabaseIO.C</text>
</a>
</g>
</g>
<!-- Node27&#45;&gt;Node35 -->
<g id="edge47" class="edge">
<title>Node27&#45;&gt;Node35</title>
<path fill="none" stroke="midnightblue" d="M1843.01,-204.83C1850.15,-203.39 1857.47,-202.05 1864.43,-201 2047.05,-173.41 2095.34,-189.3 2278.43,-165 2281.4,-164.61 2284.43,-164.18 2287.49,-163.73"/>
<polygon fill="midnightblue" stroke="midnightblue" points="1841.81,-201.5 1832.74,-206.98 1843.25,-208.36 1841.81,-201.5"/>
</g>
<!-- Node37 -->
<g id="node37" class="node">
<title>Node37</title>
<g id="a_node37"><a xlink:href="io__info_8C.html" target="_top" xlink:title=" ">
<polygon fill="white" stroke="black" points="2978.43,-140 2978.43,-159 3074.43,-159 3074.43,-140 2978.43,-140"/>
<text text-anchor="middle" x="3026.43" y="-147" font-family="Helvetica,sans-Serif" font-size="10.00">src/main/io_info.C</text>
</a>
</g>
</g>
<!-- Node36&#45;&gt;Node37 -->
<g id="edge49" class="edge">
<title>Node36&#45;&gt;Node37</title>
<path fill="none" stroke="midnightblue" d="M2743.14,-204.53C2748.27,-203.27 2753.46,-202.06 2758.43,-201 2851.45,-181.06 2876.37,-184.74 2969.43,-165 2977.72,-163.24 2986.63,-161.1 2994.88,-159.01"/>
<polygon fill="midnightblue" stroke="midnightblue" points="2742.26,-201.14 2733.42,-206.98 2743.97,-207.93 2742.26,-201.14"/>
</g>
<!-- Node38 -->
<g id="node38" class="node">
<title>Node38</title>
<g id="a_node38"><a xlink:href="io__info__main_8C.html" target="_top" xlink:title=" ">
<polygon fill="white" stroke="black" points="2838.43,-140 2838.43,-159 2960.43,-159 2960.43,-140 2838.43,-140"/>
<text text-anchor="middle" x="2899.43" y="-147" font-family="Helvetica,sans-Serif" font-size="10.00">src/main/io_info_main.C</text>
</a>
</g>
</g>
<!-- Node36&#45;&gt;Node38 -->
<g id="edge50" class="edge">
<title>Node36&#45;&gt;Node38</title>
<path fill="none" stroke="midnightblue" d="M2738.49,-203.6C2777.55,-190.71 2838.9,-170.47 2873.48,-159.06"/>
<polygon fill="midnightblue" stroke="midnightblue" points="2736.99,-200.41 2728.59,-206.87 2739.18,-207.06 2736.99,-200.41"/>
</g>
</g>
</svg>
        <g id="navigator" transform="translate(0 0)" fill="#404254">
                <rect fill="#f2f5e9" fill-opacity="0.5" stroke="#606060" stroke-width=".5" x="0" y="0" width="60" height="60"/>
                <use id="zoomplus" xlink:href="#zoomPlus" x="17" y="9" onmousedown="handleZoom(evt,'in')"/>
                <use id="zoomminus" xlink:href="#zoomMin" x="42" y="9" onmousedown="handleZoom(evt,'out')"/>
                <use id="reset" xlink:href="#resetDef" x="30" y="36" onmousedown="handleReset()"/>
                <g id="arrowUp" xlink:href="#dirArrow" transform="translate(30 24)" onmousedown="handlePan(0,-1)">
                  <use xlink:href="#rim" fill="#404040">
                        <set attributeName="fill" to="#808080" begin="arrowUp.mouseover" end="arrowUp.mouseout"/>
                  </use>
                  <path fill="none" stroke="white" stroke-width="1.5" d="M0,-3.0v7 M-2.5,-0.5L0,-3.0L2.5,-0.5"/>
                </g>
                <g id="arrowRight" xlink:href="#dirArrow" transform="rotate(90) translate(36 -43)" onmousedown="handlePan(1,0)">
                  <use xlink:href="#rim" fill="#404040">
                        <set attributeName="fill" to="#808080" begin="arrowRight.mouseover" end="arrowRight.mouseout"/>
                  </use>
                  <path fill="none" stroke="white" stroke-width="1.5" d="M0,-3.0v7 M-2.5,-0.5L0,-3.0L2.5,-0.5"/>
                </g>
                <g id="arrowDown" xlink:href="#dirArrow" transform="rotate(180) translate(-30 -48)" onmousedown="handlePan(0,1)">
                  <use xlink:href="#rim" fill="#404040">
                        <set attributeName="fill" to="#808080" begin="arrowDown.mouseover" end="arrowDown.mouseout"/>
                  </use>
                  <path fill="none" stroke="white" stroke-width="1.5" d="M0,-3.0v7 M-2.5,-0.5L0,-3.0L2.5,-0.5"/>
                </g>
                <g id="arrowLeft" xlink:href="#dirArrow" transform="rotate(270) translate(-36 17)" onmousedown="handlePan(-1,0)">
                  <use xlink:href="#rim" fill="#404040">
                        <set attributeName="fill" to="#808080" begin="arrowLeft.mouseover" end="arrowLeft.mouseout"/>
                  </use>
                  <path fill="none" stroke="white" stroke-width="1.5" d="M0,-3.0v7 M-2.5,-0.5L0,-3.0L2.5,-0.5"/>
                </g>
        </g>
        <svg viewBox="0 0 15 15" width="100%" height="30px" preserveAspectRatio="xMaxYMin meet">
         <g id="arrow_out" transform="scale(0.3 0.3)">
          <a xlink:href="Ioss__StructuredBlock_8h__dep__incl_org.svg" target="_base">
           <rect id="button" ry="5" rx="5" y="6" x="6" height="38" width="38"
                fill="#f2f5e9" fill-opacity="0.5" stroke="#606060" stroke-width="1.0"/>
           <path id="arrow"
             d="M 11.500037,31.436501 C 11.940474,20.09759 22.043105,11.32322 32.158766,21.979434 L 37.068811,17.246167 C 37.068811,17.246167 37.088388,32 37.088388,32 L 22.160133,31.978069 C 22.160133,31.978069 26.997745,27.140456 26.997745,27.140456 C 18.528582,18.264221 13.291696,25.230495 11.500037,31.436501 z"
             style="fill:#404040;"/>
          </a>
         </g>
        </svg>
</svg>
