<?xml version="1.0" encoding="UTF-8" standalone="no"?>
<!DOCTYPE svg PUBLIC "-//W3C//DTD SVG 1.1//EN"
 "http://www.w3.org/Graphics/SVG/1.1/DTD/svg11.dtd">
<!-- Generated by graphviz version 13.1.2 (20250808.2320)
 -->
<!-- Title: src/Ioss_Decomposition.h Pages: 1 -->
<svg width="268pt" height="83pt"
 viewBox="0.00 0.00 268.00 83.00" xmlns="http://www.w3.org/2000/svg" xmlns:xlink="http://www.w3.org/1999/xlink">
<g id="graph0" class="graph" transform="scale(1 1) rotate(0) translate(4 78.5)">
<title>src/Ioss_Decomposition.h</title>
<!-- Node1 -->
<g id="Node000001" class="node">
<title>Node1</title>
<g id="a_Node000001"><a xlink:title=" ">
<polygon fill="#999999" stroke="#666666" points="200.12,-74.5 70.12,-74.5 70.12,-55.25 200.12,-55.25 200.12,-74.5"/>
<text xml:space="preserve" text-anchor="middle" x="135.12" y="-61" font-family="Helvetica,sans-Serif" font-size="10.00">src/Ioss_Decomposition.h</text>
</a>
</g>
</g>
<!-- Node2 -->
<g id="Node000002" class="node">
<title>Node2</title>
<g id="a_Node000002"><a xlink:href="Ioss__Decomposition_8C.html" target="_top" xlink:title=" ">
<polygon fill="white" stroke="#666666" points="132.25,-19.25 0,-19.25 0,0 132.25,0 132.25,-19.25"/>
<text xml:space="preserve" text-anchor="middle" x="66.12" y="-5.75" font-family="Helvetica,sans-Serif" font-size="10.00">src/Ioss_Decomposition.C</text>
</a>
</g>
</g>
<!-- Node1&#45;&gt;Node2 -->
<g id="edge1_Node000001_Node000002" class="edge">
<title>Node1&#45;&gt;Node2</title>
<g id="a_edge1_Node000001_Node000002"><a xlink:title=" ">
<path fill="none" stroke="#63b8ff" d="M114.48,-47.94C102.43,-38.64 87.68,-27.26 77.66,-19.52"/>
<polygon fill="#63b8ff" stroke="#63b8ff" points="112.17,-50.58 122.22,-53.92 116.44,-45.04 112.17,-50.58"/>
</a>
</g>
</g>
<!-- Node3 -->
<g id="Node000003" class="node">
<title>Node3</title>
<g id="a_Node000003"><a xlink:href="Ioss__IOFactory_8C.html" target="_top" xlink:title=" ">
<polygon fill="white" stroke="#666666" points="259.62,-19.25 150.62,-19.25 150.62,0 259.62,0 259.62,-19.25"/>
<text xml:space="preserve" text-anchor="middle" x="205.12" y="-5.75" font-family="Helvetica,sans-Serif" font-size="10.00">src/Ioss_IOFactory.C</text>
</a>
</g>
</g>
<!-- Node1&#45;&gt;Node3 -->
<g id="edge2_Node000001_Node000003" class="edge">
<title>Node1&#45;&gt;Node3</title>
<g id="a_edge2_Node000001_Node000003"><a xlink:title=" ">
<path fill="none" stroke="#63b8ff" d="M156.07,-47.94C168.3,-38.64 183.26,-27.26 193.43,-19.52"/>
<polygon fill="#63b8ff" stroke="#63b8ff" points="154.04,-45.09 148.2,-53.93 158.28,-50.66 154.04,-45.09"/>
</a>
</g>
</g>
</g>
</svg>
