<?xml version="1.0" encoding="UTF-8" standalone="no"?>
<!DOCTYPE svg PUBLIC "-//W3C//DTD SVG 1.1//EN"
 "http://www.w3.org/Graphics/SVG/1.1/DTD/svg11.dtd">
<!-- Generated by graphviz version 9.0.0 (20230911.1827)
 -->
<!-- Title: src/Ioss_ConcreteVariableType.C Pages: 1 -->
<!--zoomable 425 -->

<svg id="main" version="1.1" xmlns="http://www.w3.org/2000/svg" xmlns:xlink="http://www.w3.org/1999/xlink" xml:space="preserve" onload="init(evt)">
<style type="text/css"><![CDATA[
.node, .edge {opacity: 0.7;}
.node.selected, .edge.selected {opacity: 1;}
.edge:hover path { stroke: red; }
.edge:hover polygon { stroke: red; fill: red; }
]]></style>

<defs>
  <circle id="rim" cx="0" cy="0" r="7"/>
  <circle id="rim2" cx="0" cy="0" r="3.5"/>
  <g id="zoomPlus">
    <use xlink:href="#rim" fill="#404040"><set attributeName="fill" to="#808080" begin="zoomplus.mouseover" end="zoomplus.mouseout"/></use>
    <path d="M-4,0h8M0,-4v8" fill="none" stroke="white" stroke-width="1.5" pointer-events="none"/>
  </g>
  <g id="zoomMin">
    <use xlink:href="#rim" fill="#404040"><set attributeName="fill" to="#808080" begin="zoomminus.mouseover" end="zoomminus.mouseout"/></use>
    <path d="M-4,0h8" fill="none" stroke="white" stroke-width="1.5" pointer-events="none"/>
  </g>
  <g id="arrowUp" transform="translate(30 24)">
    <use xlink:href="#rim"/>
    <path pointer-events="none" fill="none" stroke="white" stroke-width="1.5" d="M0,-3.0v7 M-2.5,-0.5L0,-3.0L2.5,-0.5"/>
  </g>
  <g id="arrowRight" transform="rotate(90) translate(36 -43)">
    <use xlink:href="#rim"/>
    <path pointer-events="none" fill="none" stroke="white" stroke-width="1.5" d="M0,-3.0v7 M-2.5,-0.5L0,-3.0L2.5,-0.5"/>
  </g>
  <g id="arrowDown" transform="rotate(180) translate(-30 -48)">
    <use xlink:href="#rim"/>
    <path pointer-events="none" fill="none" stroke="white" stroke-width="1.5" d="M0,-3.0v7 M-2.5,-0.5L0,-3.0L2.5,-0.5"/>
  </g>
  <g id="arrowLeft" transform="rotate(270) translate(-36 17)">
    <use xlink:href="#rim"/>
    <path pointer-events="none" fill="none" stroke="white" stroke-width="1.5" d="M0,-3.0v7 M-2.5,-0.5L0,-3.0L2.5,-0.5"/>
  </g>
  <g id="resetDef">
    <use xlink:href="#rim2" fill="#404040"><set attributeName="fill" to="#808080" begin="reset.mouseover" end="reset.mouseout"/></use>
  </g>
</defs>
<script type="application/ecmascript">
var viewWidth = 1721;
var viewHeight = 425;
var sectionId = 'dynsection-0';
</script>
<script type="application/ecmascript" xlink:href="svg.min.js"/>
<svg id="graph" class="graph">
<g id="viewport">
<title>src/Ioss_ConcreteVariableType.C</title>
<!-- Node1 -->
<g id="Node000001" class="node">
<title>Node1</title>
<g id="a_Node000001"><a xlink:title=" ">
<polygon fill="#999999" stroke="#666666" points="979.38,-417.25 848.62,-417.25 848.62,-386.75 979.38,-386.75 979.38,-417.25"/>
<text text-anchor="start" x="856.62" y="-403.75" font-family="Helvetica,sans-Serif" font-size="10.00">src/Ioss_ConcreteVariable</text>
<text text-anchor="middle" x="914" y="-392.5" font-family="Helvetica,sans-Serif" font-size="10.00">Type.C</text>
</a>
</g>
</g>
<!-- Node2 -->
<g id="Node000002" class="node">
<title>Node2</title>
<g id="a_Node000002"><a xlink:href="Ioss__ConcreteVariableType_8h.html" target="_top" xlink:title=" ">
<polygon fill="white" stroke="#666666" points="935.75,-350.75 792.25,-350.75 792.25,-331.5 935.75,-331.5 935.75,-350.75"/>
<text text-anchor="middle" x="864" y="-337.25" font-family="Helvetica,sans-Serif" font-size="10.00">Ioss_ConcreteVariableType.h</text>
</a>
</g>
</g>
<!-- Node1&#45;&gt;Node2 -->
<g id="edge1_Node000001_Node000002" class="edge">
<title>Node1&#45;&gt;Node2</title>
<g id="a_edge1_Node000001_Node000002"><a xlink:title=" ">
<path fill="none" stroke="#63b8ff" d="M901.64,-386.45C894.83,-378.43 886.33,-368.42 879.13,-359.94"/>
<polygon fill="#63b8ff" stroke="#63b8ff" points="881.83,-357.71 872.69,-352.35 876.49,-362.24 881.83,-357.71"/>
</a>
</g>
</g>
<!-- Node4 -->
<g id="Node000004" class="node">
<title>Node4</title>
<g id="a_Node000004"><a xlink:href="Ioss__VariableType_8h.html" target="_top" xlink:title=" ">
<polygon fill="white" stroke="#666666" points="965.88,-295.5 862.12,-295.5 862.12,-276.25 965.88,-276.25 965.88,-295.5"/>
<text text-anchor="middle" x="914" y="-282" font-family="Helvetica,sans-Serif" font-size="10.00">Ioss_VariableType.h</text>
</a>
</g>
</g>
<!-- Node1&#45;&gt;Node4 -->
<g id="edge69_Node000001_Node000004" class="edge">
<title>Node1&#45;&gt;Node4</title>
<g id="a_edge69_Node000001_Node000004"><a xlink:title=" ">
<path fill="none" stroke="#63b8ff" d="M927.32,-386.47C938.3,-372.67 951.16,-351.17 945,-331.5 941.95,-321.75 935.93,-312.27 930,-304.57"/>
<polygon fill="#63b8ff" stroke="#63b8ff" points="932.83,-302.49 923.74,-297.04 927.45,-306.97 932.83,-302.49"/>
</a>
</g>
</g>
<!-- Node9 -->
<g id="Node000009" class="node">
<title>Node9</title>
<g id="a_Node000009"><a xlink:title=" ">
<polygon fill="#e0e0e0" stroke="#999999" points="558,-19.25 518,-19.25 518,0 558,0 558,-19.25"/>
<text text-anchor="middle" x="538" y="-5.75" font-family="Helvetica,sans-Serif" font-size="10.00">string</text>
</a>
</g>
</g>
<!-- Node1&#45;&gt;Node9 -->
<g id="edge71_Node000001_Node000009" class="edge">
<title>Node1&#45;&gt;Node9</title>
<g id="a_edge71_Node000001_Node000009"><a xlink:title=" ">
<path fill="none" stroke="#63b8ff" d="M848.27,-399.7C638.7,-394.7 0,-372.43 0,-286.88 0,-286.88 0,-286.88 0,-174.38 0,-101.7 46.89,-87.53 112,-55.25 181.37,-20.86 419.74,-12.89 506.28,-11.11"/>
<polygon fill="#63b8ff" stroke="#63b8ff" points="506.24,-14.62 516.17,-10.93 506.11,-7.62 506.24,-14.62"/>
</a>
</g>
</g>
<!-- Node30 -->
<g id="Node000030" class="node">
<title>Node30</title>
<g id="a_Node000030"><a xlink:title=" ">
<polygon fill="#e0e0e0" stroke="#999999" points="1647.12,-185 1598.88,-185 1598.88,-165.75 1647.12,-165.75 1647.12,-185"/>
<text text-anchor="middle" x="1623" y="-171.5" font-family="Helvetica,sans-Serif" font-size="10.00">cassert</text>
</a>
</g>
</g>
<!-- Node1&#45;&gt;Node30 -->
<g id="edge70_Node000001_Node000030" class="edge">
<title>Node1&#45;&gt;Node30</title>
<g id="a_edge70_Node000001_Node000030"><a xlink:title=" ">
<path fill="none" stroke="#63b8ff" d="M960.52,-386.26C1093.04,-344.28 1470.53,-224.68 1587.8,-187.53"/>
<polygon fill="#63b8ff" stroke="#63b8ff" points="1588.71,-190.91 1597.19,-184.55 1586.6,-184.24 1588.71,-190.91"/>
</a>
</g>
</g>
<!-- Node3 -->
<g id="Node000003" class="node">
<title>Node3</title>
<g id="a_Node000003"><a xlink:title=" ">
<polygon fill="#e0e0e0" stroke="#999999" points="1124.25,-74.5 1049.75,-74.5 1049.75,-55.25 1124.25,-55.25 1124.25,-74.5"/>
<text text-anchor="middle" x="1087" y="-61" font-family="Helvetica,sans-Serif" font-size="10.00">ioss_export.h</text>
</a>
</g>
</g>
<!-- Node2&#45;&gt;Node3 -->
<g id="edge2_Node000002_Node000003" class="edge">
<title>Node2&#45;&gt;Node3</title>
<g id="a_edge2_Node000002_Node000003"><a xlink:title=" ">
<path fill="none" stroke="#63b8ff" d="M900.33,-331.04C923.37,-324.02 952.89,-312.57 975,-295.5 1045.46,-241.12 1074.27,-130.91 1083.44,-85.8"/>
<polygon fill="#63b8ff" stroke="#63b8ff" points="1086.84,-86.65 1085.28,-76.17 1079.96,-85.34 1086.84,-86.65"/>
</a>
</g>
</g>
<!-- Node2&#45;&gt;Node4 -->
<g id="edge3_Node000002_Node000004" class="edge">
<title>Node2&#45;&gt;Node4</title>
<g id="a_edge3_Node000002_Node000004"><a xlink:title=" ">
<path fill="none" stroke="#63b8ff" d="M872.26,-331.33C879.16,-323.98 889.22,-313.26 897.74,-304.19"/>
<polygon fill="#63b8ff" stroke="#63b8ff" points="900.23,-306.65 904.53,-296.96 895.13,-301.86 900.23,-306.65"/>
</a>
</g>
</g>
<!-- Node2&#45;&gt;Node9 -->
<g id="edge68_Node000002_Node000009" class="edge">
<title>Node2&#45;&gt;Node9</title>
<g id="a_edge68_Node000002_Node000009"><a xlink:title=" ">
<path fill="none" stroke="#63b8ff" d="M791.98,-337.71C597.45,-330.24 76,-303.52 76,-231.62 76,-231.62 76,-231.62 76,-119.12 76,-30.56 401.83,-14.23 506.23,-11.27"/>
<polygon fill="#63b8ff" stroke="#63b8ff" points="506.13,-14.77 516.04,-11.01 505.95,-7.77 506.13,-14.77"/>
</a>
</g>
</g>
<!-- Node4&#45;&gt;Node3 -->
<g id="edge4_Node000004_Node000003" class="edge">
<title>Node4&#45;&gt;Node3</title>
<g id="a_edge4_Node000004_Node000003"><a xlink:title=" ">
<path fill="none" stroke="#63b8ff" d="M938.38,-275.89C955.85,-268.47 979.03,-256.52 995,-240.25 1018.68,-216.13 1060.58,-125.44 1078.49,-85.25"/>
<polygon fill="#63b8ff" stroke="#63b8ff" points="1081.6,-86.88 1082.44,-76.32 1075.2,-84.05 1081.6,-86.88"/>
</a>
</g>
</g>
<!-- Node5 -->
<g id="Node000005" class="node">
<title>Node5</title>
<g id="a_Node000005"><a xlink:href="Ioss__CodeTypes_8h.html" target="_top" xlink:title=" ">
<polygon fill="white" stroke="#666666" points="777.88,-74.5 680.12,-74.5 680.12,-55.25 777.88,-55.25 777.88,-74.5"/>
<text text-anchor="middle" x="729" y="-61" font-family="Helvetica,sans-Serif" font-size="10.00">Ioss_CodeTypes.h</text>
</a>
</g>
</g>
<!-- Node4&#45;&gt;Node5 -->
<g id="edge5_Node000004_Node000005" class="edge">
<title>Node4&#45;&gt;Node5</title>
<g id="a_edge5_Node000004_Node000005"><a xlink:title=" ">
<path fill="none" stroke="#63b8ff" d="M881.17,-275.87C825.55,-258.52 715.3,-214.45 679,-129.75 671.02,-111.14 687.78,-93.28 704,-81.21"/>
<polygon fill="#63b8ff" stroke="#63b8ff" points="705.8,-84.22 712.05,-75.66 701.83,-78.45 705.8,-84.22"/>
</a>
</g>
</g>
<!-- Node4&#45;&gt;Node9 -->
<g id="edge66_Node000004_Node000009" class="edge">
<title>Node4&#45;&gt;Node9</title>
<g id="a_edge66_Node000004_Node000009"><a xlink:title=" ">
<path fill="none" stroke="#63b8ff" d="M861.78,-284.12C755.66,-280.89 508.92,-264.65 321,-185 244.76,-152.69 208.35,-148.4 171,-74.5 167.14,-66.86 165.33,-61.65 171,-55.25 193.11,-30.29 421.1,-16.45 506.2,-12.12"/>
<polygon fill="#63b8ff" stroke="#63b8ff" points="506.35,-15.62 516.16,-11.63 506,-8.63 506.35,-15.62"/>
</a>
</g>
</g>
<!-- Node10 -->
<g id="Node000010" class="node">
<title>Node10</title>
<g id="a_Node000010"><a xlink:title=" ">
<polygon fill="#e0e0e0" stroke="#999999" points="1127.5,-19.25 1084.5,-19.25 1084.5,0 1127.5,0 1127.5,-19.25"/>
<text text-anchor="middle" x="1106" y="-5.75" font-family="Helvetica,sans-Serif" font-size="10.00">vector</text>
</a>
</g>
</g>
<!-- Node4&#45;&gt;Node10 -->
<g id="edge67_Node000004_Node000010" class="edge">
<title>Node4&#45;&gt;Node10</title>
<g id="a_edge67_Node000004_Node000010"><a xlink:title=" ">
<path fill="none" stroke="#63b8ff" d="M966.12,-283.3C1143.52,-277.27 1713,-252.01 1713,-176.38 1713,-176.38 1713,-176.38 1713,-119.12 1713,-60.34 1266.08,-22.55 1139.21,-13.01"/>
<polygon fill="#63b8ff" stroke="#63b8ff" points="1139.7,-9.54 1129.47,-12.29 1139.18,-16.52 1139.7,-9.54"/>
</a>
</g>
</g>
<!-- Node13 -->
<g id="Node000013" class="node">
<title>Node13</title>
<g id="a_Node000013"><a xlink:href="Ioss__Utils_8h.html" target="_top" xlink:title=" ">
<polygon fill="white" stroke="#666666" points="986.25,-240.25 917.75,-240.25 917.75,-221 986.25,-221 986.25,-240.25"/>
<text text-anchor="middle" x="952" y="-226.75" font-family="Helvetica,sans-Serif" font-size="10.00">Ioss_Utils.h</text>
</a>
</g>
</g>
<!-- Node4&#45;&gt;Node13 -->
<g id="edge13_Node000004_Node000013" class="edge">
<title>Node4&#45;&gt;Node13</title>
<g id="a_edge13_Node000004_Node000013"><a xlink:title=" ">
<path fill="none" stroke="#63b8ff" d="M920.27,-276.08C925.36,-268.96 932.7,-258.68 939.03,-249.8"/>
<polygon fill="#63b8ff" stroke="#63b8ff" points="941.75,-252.01 944.71,-241.84 936.05,-247.95 941.75,-252.01"/>
</a>
</g>
</g>
<!-- Node18 -->
<g id="Node000018" class="node">
<title>Node18</title>
<g id="a_Node000018"><a xlink:title=" ">
<polygon fill="#e0e0e0" stroke="#999999" points="1417.38,-74.5 1382.62,-74.5 1382.62,-55.25 1417.38,-55.25 1417.38,-74.5"/>
<text text-anchor="middle" x="1400" y="-61" font-family="Helvetica,sans-Serif" font-size="10.00">map</text>
</a>
</g>
</g>
<!-- Node4&#45;&gt;Node18 -->
<g id="edge65_Node000004_Node000018" class="edge">
<title>Node4&#45;&gt;Node18</title>
<g id="a_edge65_Node000004_Node000018"><a xlink:title=" ">
<path fill="none" stroke="#63b8ff" d="M966.2,-281.76C1127.59,-271.6 1610.47,-237.07 1656,-185 1723.68,-107.6 1508.63,-77.07 1428.69,-68.56"/>
<polygon fill="#63b8ff" stroke="#63b8ff" points="1429.32,-65.1 1419.01,-67.57 1428.61,-72.07 1429.32,-65.1"/>
</a>
</g>
</g>
<!-- Node27 -->
<g id="Node000027" class="node">
<title>Node27</title>
<g id="a_Node000027"><a xlink:title=" ">
<polygon fill="#e0e0e0" stroke="#999999" points="238,-74.5 180,-74.5 180,-55.25 238,-55.25 238,-74.5"/>
<text text-anchor="middle" x="209" y="-61" font-family="Helvetica,sans-Serif" font-size="10.00">functional</text>
</a>
</g>
</g>
<!-- Node4&#45;&gt;Node27 -->
<g id="edge64_Node000004_Node000027" class="edge">
<title>Node4&#45;&gt;Node27</title>
<g id="a_edge64_Node000004_Node000027"><a xlink:title=" ">
<path fill="none" stroke="#63b8ff" d="M861.69,-280.37C734.91,-268.76 414.77,-235.2 321,-185 275.71,-160.75 238.48,-111.25 220.55,-84.32"/>
<polygon fill="#63b8ff" stroke="#63b8ff" points="223.65,-82.67 215.28,-76.18 217.77,-86.47 223.65,-82.67"/>
</a>
</g>
</g>
<!-- Node35 -->
<g id="Node000035" class="node">
<title>Node35</title>
<g id="a_Node000035"><a xlink:title=" ">
<polygon fill="#e0e0e0" stroke="#999999" points="899.62,-240.25 854.38,-240.25 854.38,-221 899.62,-221 899.62,-240.25"/>
<text text-anchor="middle" x="877" y="-226.75" font-family="Helvetica,sans-Serif" font-size="10.00">cstring</text>
</a>
</g>
</g>
<!-- Node4&#45;&gt;Node35 -->
<g id="edge63_Node000004_Node000035" class="edge">
<title>Node4&#45;&gt;Node35</title>
<g id="a_edge63_Node000004_Node000035"><a xlink:title=" ">
<path fill="none" stroke="#63b8ff" d="M907.89,-276.08C902.94,-268.96 895.8,-258.68 889.63,-249.8"/>
<polygon fill="#63b8ff" stroke="#63b8ff" points="892.69,-248.07 884.11,-241.85 886.94,-252.06 892.69,-248.07"/>
</a>
</g>
</g>
<!-- Node6 -->
<g id="Node000006" class="node">
<title>Node6</title>
<g id="a_Node000006"><a xlink:title=" ">
<polygon fill="#e0e0e0" stroke="#999999" points="633.88,-19.25 596.12,-19.25 596.12,0 633.88,0 633.88,-19.25"/>
<text text-anchor="middle" x="615" y="-5.75" font-family="Helvetica,sans-Serif" font-size="10.00">array</text>
</a>
</g>
</g>
<!-- Node5&#45;&gt;Node6 -->
<g id="edge6_Node000005_Node000006" class="edge">
<title>Node5&#45;&gt;Node6</title>
<g id="a_edge6_Node000005_Node000006"><a xlink:title=" ">
<path fill="none" stroke="#63b8ff" d="M709.66,-54.84C691.78,-46.49 664.96,-33.96 644.43,-24.37"/>
<polygon fill="#63b8ff" stroke="#63b8ff" points="645.97,-21.23 635.42,-20.17 643,-27.57 645.97,-21.23"/>
</a>
</g>
</g>
<!-- Node7 -->
<g id="Node000007" class="node">
<title>Node7</title>
<g id="a_Node000007"><a xlink:title=" ">
<polygon fill="#e0e0e0" stroke="#999999" points="290.12,-19.25 241.88,-19.25 241.88,0 290.12,0 290.12,-19.25"/>
<text text-anchor="middle" x="266" y="-5.75" font-family="Helvetica,sans-Serif" font-size="10.00">cstddef</text>
</a>
</g>
</g>
<!-- Node5&#45;&gt;Node7 -->
<g id="edge7_Node000005_Node000007" class="edge">
<title>Node5&#45;&gt;Node7</title>
<g id="a_edge7_Node000005_Node000007"><a xlink:title=" ">
<path fill="none" stroke="#63b8ff" d="M679.89,-58.23C586.17,-47.45 383.84,-24.18 301.72,-14.73"/>
<polygon fill="#63b8ff" stroke="#63b8ff" points="302.34,-11.28 292.01,-13.62 301.54,-18.24 302.34,-11.28"/>
</a>
</g>
</g>
<!-- Node8 -->
<g id="Node000008" class="node">
<title>Node8</title>
<g id="a_Node000008"><a xlink:title=" ">
<polygon fill="#e0e0e0" stroke="#999999" points="901.62,-19.25 856.38,-19.25 856.38,0 901.62,0 901.62,-19.25"/>
<text text-anchor="middle" x="879" y="-5.75" font-family="Helvetica,sans-Serif" font-size="10.00">cstdint</text>
</a>
</g>
</g>
<!-- Node5&#45;&gt;Node8 -->
<g id="edge8_Node000005_Node000008" class="edge">
<title>Node5&#45;&gt;Node8</title>
<g id="a_edge8_Node000005_Node000008"><a xlink:title=" ">
<path fill="none" stroke="#63b8ff" d="M754.45,-54.84C779.42,-45.97 817.67,-32.4 845.19,-22.63"/>
<polygon fill="#63b8ff" stroke="#63b8ff" points="846.22,-25.98 854.47,-19.33 843.88,-19.38 846.22,-25.98"/>
</a>
</g>
</g>
<!-- Node5&#45;&gt;Node9 -->
<g id="edge9_Node000005_Node000009" class="edge">
<title>Node5&#45;&gt;Node9</title>
<g id="a_edge9_Node000005_Node000009"><a xlink:title=" ">
<path fill="none" stroke="#63b8ff" d="M696.6,-54.84C661.12,-44.95 604.62,-29.2 569.5,-19.41"/>
<polygon fill="#63b8ff" stroke="#63b8ff" points="570.51,-16.05 559.93,-16.74 568.63,-22.8 570.51,-16.05"/>
</a>
</g>
</g>
<!-- Node5&#45;&gt;Node10 -->
<g id="edge10_Node000005_Node000010" class="edge">
<title>Node5&#45;&gt;Node10</title>
<g id="a_edge10_Node000005_Node000010"><a xlink:title=" ">
<path fill="none" stroke="#63b8ff" d="M778.29,-56.91C856.42,-45.88 1006.67,-24.65 1073.07,-15.28"/>
<polygon fill="#63b8ff" stroke="#63b8ff" points="1073.18,-18.8 1082.59,-13.93 1072.2,-11.86 1073.18,-18.8"/>
</a>
</g>
</g>
<!-- Node11 -->
<g id="Node000011" class="node">
<title>Node11</title>
<g id="a_Node000011"><a xlink:title=" ">
<polygon fill="#e0e0e0" stroke="#999999" points="767.88,-19.25 652.12,-19.25 652.12,0 767.88,0 767.88,-19.25"/>
<text text-anchor="middle" x="710" y="-5.75" font-family="Helvetica,sans-Serif" font-size="10.00">SEACASIoss_config.h</text>
</a>
</g>
</g>
<!-- Node5&#45;&gt;Node11 -->
<g id="edge11_Node000005_Node000011" class="edge">
<title>Node5&#45;&gt;Node11</title>
<g id="a_edge11_Node000005_Node000011"><a xlink:title=" ">
<path fill="none" stroke="#63b8ff" d="M725.86,-55.08C723.46,-48.34 720.04,-38.77 717,-30.24"/>
<polygon fill="#63b8ff" stroke="#63b8ff" points="720.37,-29.28 713.71,-21.03 713.78,-31.63 720.37,-29.28"/>
</a>
</g>
</g>
<!-- Node12 -->
<g id="Node000012" class="node">
<title>Node12</title>
<g id="a_Node000012"><a xlink:title=" ">
<polygon fill="#e0e0e0" stroke="#999999" points="838.38,-19.25 785.62,-19.25 785.62,0 838.38,0 838.38,-19.25"/>
<text text-anchor="middle" x="812" y="-5.75" font-family="Helvetica,sans-Serif" font-size="10.00">complex</text>
</a>
</g>
</g>
<!-- Node5&#45;&gt;Node12 -->
<g id="edge12_Node000005_Node000012" class="edge">
<title>Node5&#45;&gt;Node12</title>
<g id="a_edge12_Node000005_Node000012"><a xlink:title=" ">
<path fill="none" stroke="#63b8ff" d="M743.08,-54.84C755.48,-46.89 773.79,-35.14 788.43,-25.75"/>
<polygon fill="#63b8ff" stroke="#63b8ff" points="790.05,-28.87 796.58,-20.52 786.27,-22.97 790.05,-28.87"/>
</a>
</g>
</g>
<!-- Node13&#45;&gt;Node3 -->
<g id="edge14_Node000013_Node000003" class="edge">
<title>Node13&#45;&gt;Node3</title>
<g id="a_edge14_Node000013_Node000003"><a xlink:title=" ">
<path fill="none" stroke="#63b8ff" d="M960.37,-220.79C968.43,-212.06 980.73,-198.14 990,-185 1012.04,-153.76 1008.32,-139.7 1033,-110.5 1042.04,-99.8 1053.88,-89.7 1064.17,-81.82"/>
<polygon fill="#63b8ff" stroke="#63b8ff" points="1066.23,-84.65 1072.2,-75.89 1062.07,-79.01 1066.23,-84.65"/>
</a>
</g>
</g>
<!-- Node13&#45;&gt;Node5 -->
<g id="edge15_Node000013_Node000005" class="edge">
<title>Node13&#45;&gt;Node5</title>
<g id="a_edge15_Node000013_Node000005"><a xlink:title=" ">
<path fill="none" stroke="#63b8ff" d="M917.47,-221.86C851.75,-206.3 712.82,-169.38 686,-129.75 674.98,-113.46 690.83,-94.8 706.3,-81.87"/>
<polygon fill="#63b8ff" stroke="#63b8ff" points="708.22,-84.81 713.97,-75.91 703.92,-79.28 708.22,-84.81"/>
</a>
</g>
</g>
<!-- Node13&#45;&gt;Node7 -->
<g id="edge56_Node000013_Node000007" class="edge">
<title>Node13&#45;&gt;Node7</title>
<g id="a_edge56_Node000013_Node000007"><a xlink:title=" ">
<path fill="none" stroke="#63b8ff" d="M917.33,-222.25C914.52,-221.78 911.72,-221.35 909,-221 649.37,-187.18 575.8,-245.25 321,-185 199.21,-156.2 130.98,-178.92 62,-74.5 57.28,-67.36 56.64,-61.91 62,-55.25 82.76,-29.45 177.78,-17.75 230.5,-13.16"/>
<polygon fill="#63b8ff" stroke="#63b8ff" points="230.49,-16.67 240.17,-12.36 229.92,-9.7 230.49,-16.67"/>
</a>
</g>
</g>
<!-- Node13&#45;&gt;Node8 -->
<g id="edge57_Node000013_Node000008" class="edge">
<title>Node13&#45;&gt;Node8</title>
<g id="a_edge57_Node000013_Node000008"><a xlink:title=" ">
<path fill="none" stroke="#63b8ff" d="M940.93,-220.7C931.74,-212.53 919.34,-199.52 914,-185 893.98,-130.61 950.15,-108.38 927,-55.25 921.96,-43.67 912.26,-33.74 902.9,-26.21"/>
<polygon fill="#63b8ff" stroke="#63b8ff" points="905.17,-23.54 895.05,-20.41 901.01,-29.17 905.17,-23.54"/>
</a>
</g>
</g>
<!-- Node13&#45;&gt;Node9 -->
<g id="edge61_Node000013_Node000009" class="edge">
<title>Node13&#45;&gt;Node9</title>
<g id="a_edge61_Node000013_Node000009"><a xlink:title=" ">
<path fill="none" stroke="#63b8ff" d="M917.34,-222.59C857.6,-210.44 741.21,-186.66 737,-185 656.25,-153.2 633.2,-139.77 576,-74.5 564.04,-60.85 553.75,-42.93 546.91,-29.54"/>
<polygon fill="#63b8ff" stroke="#63b8ff" points="550.23,-28.35 542.68,-20.91 543.94,-31.43 550.23,-28.35"/>
</a>
</g>
</g>
<!-- Node13&#45;&gt;Node10 -->
<g id="edge62_Node000013_Node000010" class="edge">
<title>Node13&#45;&gt;Node10</title>
<g id="a_edge62_Node000013_Node000010"><a xlink:title=" ">
<path fill="none" stroke="#63b8ff" d="M986.38,-227.11C1113.73,-217.77 1551.39,-185.65 1552,-185 1675.86,-51.59 1261.57,-18.83 1139.09,-12.14"/>
<polygon fill="#63b8ff" stroke="#63b8ff" points="1139.53,-8.66 1129.37,-11.64 1139.17,-15.65 1139.53,-8.66"/>
</a>
</g>
</g>
<!-- Node14 -->
<g id="Node000014" class="node">
<title>Node14</title>
<g id="a_Node000014"><a xlink:href="Ioss__ElementTopology_8h.html" target="_top" xlink:title=" ">
<polygon fill="white" stroke="#666666" points="1234.88,-185 1113.12,-185 1113.12,-165.75 1234.88,-165.75 1234.88,-185"/>
<text text-anchor="middle" x="1174" y="-171.5" font-family="Helvetica,sans-Serif" font-size="10.00">Ioss_ElementTopology.h</text>
</a>
</g>
</g>
<!-- Node13&#45;&gt;Node14 -->
<g id="edge16_Node000013_Node000014" class="edge">
<title>Node13&#45;&gt;Node14</title>
<g id="a_edge16_Node000013_Node000014"><a xlink:title=" ">
<path fill="none" stroke="#63b8ff" d="M986.69,-221.3C1023.89,-212.38 1083.25,-198.14 1125.16,-188.09"/>
<polygon fill="#63b8ff" stroke="#63b8ff" points="1125.84,-191.53 1134.74,-185.79 1124.2,-184.72 1125.84,-191.53"/>
</a>
</g>
</g>
<!-- Node20 -->
<g id="Node000020" class="node">
<title>Node20</title>
<g id="a_Node000020"><a xlink:href="Ioss__EntityType_8h.html" target="_top" xlink:title=" ">
<polygon fill="white" stroke="#666666" points="1347.38,-185 1252.62,-185 1252.62,-165.75 1347.38,-165.75 1347.38,-185"/>
<text text-anchor="middle" x="1300" y="-171.5" font-family="Helvetica,sans-Serif" font-size="10.00">Ioss_EntityType.h</text>
</a>
</g>
</g>
<!-- Node13&#45;&gt;Node20 -->
<g id="edge31_Node000013_Node000020" class="edge">
<title>Node13&#45;&gt;Node20</title>
<g id="a_edge31_Node000013_Node000020"><a xlink:title=" ">
<path fill="none" stroke="#63b8ff" d="M986.61,-224.35C1039.26,-216.32 1142.92,-200.5 1241.03,-185.45"/>
<polygon fill="#63b8ff" stroke="#63b8ff" points="1241.49,-188.92 1250.85,-183.95 1240.43,-182.01 1241.49,-188.92"/>
</a>
</g>
</g>
<!-- Node21 -->
<g id="Node000021" class="node">
<title>Node21</title>
<g id="a_Node000021"><a xlink:href="Ioss__Field_8h.html" target="_top" xlink:title=" ">
<polygon fill="white" stroke="#666666" points="764.62,-129.75 695.38,-129.75 695.38,-110.5 764.62,-110.5 764.62,-129.75"/>
<text text-anchor="middle" x="730" y="-116.25" font-family="Helvetica,sans-Serif" font-size="10.00">Ioss_Field.h</text>
</a>
</g>
</g>
<!-- Node13&#45;&gt;Node21 -->
<g id="edge32_Node000013_Node000021" class="edge">
<title>Node13&#45;&gt;Node21</title>
<g id="a_edge32_Node000013_Node000021"><a xlink:title=" ">
<path fill="none" stroke="#63b8ff" d="M933.45,-220.56C894.77,-201.65 805.22,-157.89 758.91,-135.25"/>
<polygon fill="#63b8ff" stroke="#63b8ff" points="760.53,-132.15 750.01,-130.9 757.46,-138.44 760.53,-132.15"/>
</a>
</g>
</g>
<!-- Node22 -->
<g id="Node000022" class="node">
<title>Node22</title>
<g id="a_Node000022"><a xlink:href="Ioss__Property_8h.html" target="_top" xlink:title=" ">
<polygon fill="white" stroke="#666666" points="904.75,-129.75 821.25,-129.75 821.25,-110.5 904.75,-110.5 904.75,-129.75"/>
<text text-anchor="middle" x="863" y="-116.25" font-family="Helvetica,sans-Serif" font-size="10.00">Ioss_Property.h</text>
</a>
</g>
</g>
<!-- Node13&#45;&gt;Node22 -->
<g id="edge38_Node000013_Node000022" class="edge">
<title>Node13&#45;&gt;Node22</title>
<g id="a_edge38_Node000013_Node000022"><a xlink:title=" ">
<path fill="none" stroke="#63b8ff" d="M929.33,-220.65C913.58,-213.31 893.3,-201.44 881,-185 871.48,-172.28 867,-154.72 864.88,-141.23"/>
<polygon fill="#63b8ff" stroke="#63b8ff" points="868.36,-140.85 863.68,-131.34 861.41,-141.69 868.36,-140.85"/>
</a>
</g>
</g>
<!-- Node24 -->
<g id="Node000024" class="node">
<title>Node24</title>
<g id="a_Node000024"><a xlink:href="Ioss__Sort_8h.html" target="_top" xlink:title=" ">
<polygon fill="white" stroke="#666666" points="396.12,-185 329.88,-185 329.88,-165.75 396.12,-165.75 396.12,-185"/>
<text text-anchor="middle" x="363" y="-171.5" font-family="Helvetica,sans-Serif" font-size="10.00">Ioss_Sort.h</text>
</a>
</g>
</g>
<!-- Node13&#45;&gt;Node24 -->
<g id="edge44_Node000013_Node000024" class="edge">
<title>Node13&#45;&gt;Node24</title>
<g id="a_edge44_Node000013_Node000024"><a xlink:title=" ">
<path fill="none" stroke="#63b8ff" d="M917.33,-222.29C914.52,-221.81 911.72,-221.37 909,-221 701.47,-192.35 647.56,-204.82 439,-185 428.82,-184.03 417.89,-182.87 407.57,-181.71"/>
<polygon fill="#63b8ff" stroke="#63b8ff" points="408.1,-178.25 397.77,-180.59 407.31,-185.2 408.1,-178.25"/>
</a>
</g>
</g>
<!-- Node26 -->
<g id="Node000026" class="node">
<title>Node26</title>
<g id="a_Node000026"><a xlink:title=" ">
<polygon fill="#e0e0e0" stroke="#999999" points="471.88,-74.5 416.12,-74.5 416.12,-55.25 471.88,-55.25 471.88,-74.5"/>
<text text-anchor="middle" x="444" y="-61" font-family="Helvetica,sans-Serif" font-size="10.00">algorithm</text>
</a>
</g>
</g>
<!-- Node13&#45;&gt;Node26 -->
<g id="edge53_Node000013_Node000026" class="edge">
<title>Node13&#45;&gt;Node26</title>
<g id="a_edge53_Node000013_Node000026"><a xlink:title=" ">
<path fill="none" stroke="#63b8ff" d="M917.32,-222.32C914.51,-221.83 911.71,-221.39 909,-221 815.6,-207.7 560.62,-242.72 486,-185 455.3,-161.26 446.98,-113.41 444.76,-86.13"/>
<polygon fill="#63b8ff" stroke="#63b8ff" points="448.27,-86.19 444.19,-76.41 441.28,-86.6 448.27,-86.19"/>
</a>
</g>
</g>
<!-- Node13&#45;&gt;Node30 -->
<g id="edge54_Node000013_Node000030" class="edge">
<title>Node13&#45;&gt;Node30</title>
<g id="a_edge54_Node000013_Node000030"><a xlink:title=" ">
<path fill="none" stroke="#63b8ff" d="M986.63,-227.09C1010.37,-225.36 1042.59,-223.02 1071,-221 1299.42,-204.72 1358.45,-218.44 1585,-185 1585.83,-184.88 1586.67,-184.75 1587.51,-184.61"/>
<polygon fill="#63b8ff" stroke="#63b8ff" points="1587.92,-188.09 1597.09,-182.78 1586.61,-181.22 1587.92,-188.09"/>
</a>
</g>
</g>
<!-- Node31 -->
<g id="Node000031" class="node">
<title>Node31</title>
<g id="a_Node000031"><a xlink:title=" ">
<polygon fill="#e0e0e0" stroke="#999999" points="1408.5,-185 1365.5,-185 1365.5,-165.75 1408.5,-165.75 1408.5,-185"/>
<text text-anchor="middle" x="1387" y="-171.5" font-family="Helvetica,sans-Serif" font-size="10.00">cmath</text>
</a>
</g>
</g>
<!-- Node13&#45;&gt;Node31 -->
<g id="edge55_Node000013_Node000031" class="edge">
<title>Node13&#45;&gt;Node31</title>
<g id="a_edge55_Node000013_Node000031"><a xlink:title=" ">
<path fill="none" stroke="#63b8ff" d="M986.49,-226.54C1067.04,-219.22 1266.72,-200.4 1353.81,-185.04"/>
<polygon fill="#63b8ff" stroke="#63b8ff" points="1354.41,-188.49 1363.6,-183.22 1353.13,-181.6 1354.41,-188.49"/>
</a>
</g>
</g>
<!-- Node32 -->
<g id="Node000032" class="node">
<title>Node32</title>
<g id="a_Node000032"><a xlink:title=" ">
<polygon fill="#e0e0e0" stroke="#999999" points="1471.25,-185 1426.75,-185 1426.75,-165.75 1471.25,-165.75 1471.25,-185"/>
<text text-anchor="middle" x="1449" y="-171.5" font-family="Helvetica,sans-Serif" font-size="10.00">cstdlib</text>
</a>
</g>
</g>
<!-- Node13&#45;&gt;Node32 -->
<g id="edge58_Node000013_Node000032" class="edge">
<title>Node13&#45;&gt;Node32</title>
<g id="a_edge58_Node000013_Node000032"><a xlink:title=" ">
<path fill="none" stroke="#63b8ff" d="M986.58,-227.11C1076.27,-220.46 1315.79,-201.89 1415.28,-185.13"/>
<polygon fill="#63b8ff" stroke="#63b8ff" points="1415.7,-188.61 1424.93,-183.42 1414.47,-181.72 1415.7,-188.61"/>
</a>
</g>
</g>
<!-- Node33 -->
<g id="Node000033" class="node">
<title>Node33</title>
<g id="a_Node000033"><a xlink:title=" ">
<polygon fill="#e0e0e0" stroke="#999999" points="1542.75,-185 1489.25,-185 1489.25,-165.75 1542.75,-165.75 1542.75,-185"/>
<text text-anchor="middle" x="1516" y="-171.5" font-family="Helvetica,sans-Serif" font-size="10.00">iostream</text>
</a>
</g>
</g>
<!-- Node13&#45;&gt;Node33 -->
<g id="edge59_Node000013_Node000033" class="edge">
<title>Node13&#45;&gt;Node33</title>
<g id="a_edge59_Node000013_Node000033"><a xlink:title=" ">
<path fill="none" stroke="#63b8ff" d="M986.43,-227.02C1090.11,-219.13 1396.7,-195.5 1477.62,-184.95"/>
<polygon fill="#63b8ff" stroke="#63b8ff" points="1478.07,-188.42 1487.46,-183.53 1477.07,-181.49 1478.07,-188.42"/>
</a>
</g>
</g>
<!-- Node34 -->
<g id="Node000034" class="node">
<title>Node34</title>
<g id="a_Node000034"><a xlink:title=" ">
<polygon fill="#e0e0e0" stroke="#999999" points="981.38,-185 922.62,-185 922.62,-165.75 981.38,-165.75 981.38,-185"/>
<text text-anchor="middle" x="952" y="-171.5" font-family="Helvetica,sans-Serif" font-size="10.00">stdexcept</text>
</a>
</g>
</g>
<!-- Node13&#45;&gt;Node34 -->
<g id="edge60_Node000013_Node000034" class="edge">
<title>Node13&#45;&gt;Node34</title>
<g id="a_edge60_Node000013_Node000034"><a xlink:title=" ">
<path fill="none" stroke="#63b8ff" d="M952,-220.83C952,-214.32 952,-205.17 952,-196.87"/>
<polygon fill="#63b8ff" stroke="#63b8ff" points="955.5,-196.87 952,-186.87 948.5,-196.87 955.5,-196.87"/>
</a>
</g>
</g>
<!-- Node14&#45;&gt;Node3 -->
<g id="edge17_Node000014_Node000003" class="edge">
<title>Node14&#45;&gt;Node3</title>
<g id="a_edge17_Node000014_Node000003"><a xlink:title=" ">
<path fill="none" stroke="#63b8ff" d="M1166.88,-165.5C1152.61,-147.69 1120.24,-107.33 1101.38,-83.81"/>
<polygon fill="#63b8ff" stroke="#63b8ff" points="1104.15,-81.67 1095.16,-76.06 1098.69,-86.05 1104.15,-81.67"/>
</a>
</g>
</g>
<!-- Node14&#45;&gt;Node5 -->
<g id="edge18_Node000014_Node000005" class="edge">
<title>Node14&#45;&gt;Node5</title>
<g id="a_edge18_Node000014_Node000005"><a xlink:title=" ">
<path fill="none" stroke="#63b8ff" d="M1112.65,-170.73C1024.03,-164.8 865.02,-151.5 812,-129.75 785.84,-119.02 760.84,-97.76 745.24,-82.72"/>
<polygon fill="#63b8ff" stroke="#63b8ff" points="747.83,-80.36 738.28,-75.78 742.89,-85.32 747.83,-80.36"/>
</a>
</g>
</g>
<!-- Node14&#45;&gt;Node9 -->
<g id="edge29_Node000014_Node000009" class="edge">
<title>Node14&#45;&gt;Node9</title>
<g id="a_edge29_Node000014_Node000009"><a xlink:title=" ">
<path fill="none" stroke="#63b8ff" d="M1113.08,-170.5C991.14,-162.51 725.32,-143.75 686,-129.75 628.46,-109.26 576.73,-56.09 552.51,-28.23"/>
<polygon fill="#63b8ff" stroke="#63b8ff" points="555.24,-26.04 546.1,-20.68 549.9,-30.57 555.24,-26.04"/>
</a>
</g>
</g>
<!-- Node14&#45;&gt;Node10 -->
<g id="edge30_Node000014_Node000010" class="edge">
<title>Node14&#45;&gt;Node10</title>
<g id="a_edge30_Node000014_Node000010"><a xlink:title=" ">
<path fill="none" stroke="#63b8ff" d="M1171.63,-165.46C1166.14,-145.29 1151.55,-94.87 1133,-55.25 1128.83,-46.34 1123.34,-36.96 1118.4,-29.11"/>
<polygon fill="#63b8ff" stroke="#63b8ff" points="1121.39,-27.28 1113,-20.81 1115.52,-31.1 1121.39,-27.28"/>
</a>
</g>
</g>
<!-- Node15 -->
<g id="Node000015" class="node">
<title>Node15</title>
<g id="a_Node000015"><a xlink:href="Ioss__ElementPermutation_8h.html" target="_top" xlink:title=" ">
<polygon fill="white" stroke="#666666" points="1344.38,-129.75 1207.62,-129.75 1207.62,-110.5 1344.38,-110.5 1344.38,-129.75"/>
<text text-anchor="middle" x="1276" y="-116.25" font-family="Helvetica,sans-Serif" font-size="10.00">Ioss_ElementPermutation.h</text>
</a>
</g>
</g>
<!-- Node14&#45;&gt;Node15 -->
<g id="edge19_Node000014_Node000015" class="edge">
<title>Node14&#45;&gt;Node15</title>
<g id="a_edge19_Node000014_Node000015"><a xlink:title=" ">
<path fill="none" stroke="#63b8ff" d="M1191.3,-165.34C1206.98,-157.16 1230.35,-144.96 1248.58,-135.44"/>
<polygon fill="#63b8ff" stroke="#63b8ff" points="1250.03,-138.63 1257.27,-130.9 1246.79,-132.43 1250.03,-138.63"/>
</a>
</g>
</g>
<!-- Node14&#45;&gt;Node18 -->
<g id="edge27_Node000014_Node000018" class="edge">
<title>Node14&#45;&gt;Node18</title>
<g id="a_edge27_Node000014_Node000018"><a xlink:title=" ">
<path fill="none" stroke="#63b8ff" d="M1226.85,-165.31C1271.9,-156.84 1332.51,-143.48 1353,-129.75 1369.77,-118.51 1382.75,-99.19 1390.78,-84.74"/>
<polygon fill="#63b8ff" stroke="#63b8ff" points="1393.71,-86.67 1395.23,-76.19 1387.51,-83.44 1393.71,-86.67"/>
</a>
</g>
</g>
<!-- Node19 -->
<g id="Node000019" class="node">
<title>Node19</title>
<g id="a_Node000019"><a xlink:title=" ">
<polygon fill="#e0e0e0" stroke="#999999" points="1429.75,-129.75 1400.25,-129.75 1400.25,-110.5 1429.75,-110.5 1429.75,-129.75"/>
<text text-anchor="middle" x="1415" y="-116.25" font-family="Helvetica,sans-Serif" font-size="10.00">set</text>
</a>
</g>
</g>
<!-- Node14&#45;&gt;Node19 -->
<g id="edge28_Node000014_Node000019" class="edge">
<title>Node14&#45;&gt;Node19</title>
<g id="a_edge28_Node000014_Node000019"><a xlink:title=" ">
<path fill="none" stroke="#63b8ff" d="M1222.67,-165.3C1265.81,-156.98 1330.4,-143.84 1386,-129.75 1387,-129.5 1388.02,-129.23 1389.05,-128.96"/>
<polygon fill="#63b8ff" stroke="#63b8ff" points="1389.9,-132.35 1398.56,-126.25 1387.98,-125.62 1389.9,-132.35"/>
</a>
</g>
</g>
<!-- Node15&#45;&gt;Node3 -->
<g id="edge20_Node000015_Node000003" class="edge">
<title>Node15&#45;&gt;Node3</title>
<g id="a_edge20_Node000015_Node000003"><a xlink:title=" ">
<path fill="none" stroke="#63b8ff" d="M1243.94,-110.09C1212.58,-101.26 1164.61,-87.74 1129.96,-77.98"/>
<polygon fill="#63b8ff" stroke="#63b8ff" points="1131.25,-74.71 1120.68,-75.36 1129.35,-81.44 1131.25,-74.71"/>
</a>
</g>
</g>
<!-- Node15&#45;&gt;Node5 -->
<g id="edge21_Node000015_Node000005" class="edge">
<title>Node15&#45;&gt;Node5</title>
<g id="a_edge21_Node000015_Node000005"><a xlink:title=" ">
<path fill="none" stroke="#63b8ff" d="M1207.28,-112.43C1099.38,-101.93 892.01,-81.74 789.47,-71.76"/>
<polygon fill="#63b8ff" stroke="#63b8ff" points="789.89,-68.29 779.59,-70.8 789.21,-75.25 789.89,-68.29"/>
</a>
</g>
</g>
<!-- Node15&#45;&gt;Node9 -->
<g id="edge25_Node000015_Node000009" class="edge">
<title>Node15&#45;&gt;Node9</title>
<g id="a_edge25_Node000015_Node000009"><a xlink:title=" ">
<path fill="none" stroke="#63b8ff" d="M1260.78,-110.14C1235.33,-95.62 1182.09,-67.42 1133,-55.25 896.95,3.26 828.44,-48.37 587,-19.25 581.4,-18.57 575.47,-17.68 569.74,-16.73"/>
<polygon fill="#63b8ff" stroke="#63b8ff" points="570.38,-13.29 559.92,-14.99 569.16,-20.18 570.38,-13.29"/>
</a>
</g>
</g>
<!-- Node15&#45;&gt;Node10 -->
<g id="edge26_Node000015_Node000010" class="edge">
<title>Node15&#45;&gt;Node10</title>
<g id="a_edge26_Node000015_Node000010"><a xlink:title=" ">
<path fill="none" stroke="#63b8ff" d="M1267.82,-110.35C1255.13,-97.12 1229.5,-71.83 1204,-55.25 1183.47,-41.9 1158.28,-30.53 1138.58,-22.6"/>
<polygon fill="#63b8ff" stroke="#63b8ff" points="1139.98,-19.39 1129.4,-19.01 1137.43,-25.91 1139.98,-19.39"/>
</a>
</g>
</g>
<!-- Node16 -->
<g id="Node000016" class="node">
<title>Node16</title>
<g id="a_Node000016"><a xlink:title=" ">
<polygon fill="#e0e0e0" stroke="#999999" points="1307.62,-74.5 1256.38,-74.5 1256.38,-55.25 1307.62,-55.25 1307.62,-74.5"/>
<text text-anchor="middle" x="1282" y="-61" font-family="Helvetica,sans-Serif" font-size="10.00">assert.h</text>
</a>
</g>
</g>
<!-- Node15&#45;&gt;Node16 -->
<g id="edge22_Node000015_Node000016" class="edge">
<title>Node15&#45;&gt;Node16</title>
<g id="a_edge22_Node000015_Node000016"><a xlink:title=" ">
<path fill="none" stroke="#63b8ff" d="M1276.99,-110.33C1277.73,-103.74 1278.78,-94.46 1279.72,-86.07"/>
<polygon fill="#63b8ff" stroke="#63b8ff" points="1283.18,-86.69 1280.82,-76.36 1276.22,-85.91 1283.18,-86.69"/>
</a>
</g>
</g>
<!-- Node17 -->
<g id="Node000017" class="node">
<title>Node17</title>
<g id="a_Node000017"><a xlink:title=" ">
<polygon fill="#e0e0e0" stroke="#999999" points="1364.62,-74.5 1325.38,-74.5 1325.38,-55.25 1364.62,-55.25 1364.62,-74.5"/>
<text text-anchor="middle" x="1345" y="-61" font-family="Helvetica,sans-Serif" font-size="10.00">limits</text>
</a>
</g>
</g>
<!-- Node15&#45;&gt;Node17 -->
<g id="edge23_Node000015_Node000017" class="edge">
<title>Node15&#45;&gt;Node17</title>
<g id="a_edge23_Node000015_Node000017"><a xlink:title=" ">
<path fill="none" stroke="#63b8ff" d="M1287.7,-110.09C1297.78,-102.32 1312.54,-90.92 1324.56,-81.65"/>
<polygon fill="#63b8ff" stroke="#63b8ff" points="1326.49,-84.58 1332.27,-75.7 1322.21,-79.04 1326.49,-84.58"/>
</a>
</g>
</g>
<!-- Node15&#45;&gt;Node18 -->
<g id="edge24_Node000015_Node000018" class="edge">
<title>Node15&#45;&gt;Node18</title>
<g id="a_edge24_Node000015_Node000018"><a xlink:title=" ">
<path fill="none" stroke="#63b8ff" d="M1297.03,-110.09C1317.7,-101.22 1349.35,-87.62 1372.11,-77.85"/>
<polygon fill="#63b8ff" stroke="#63b8ff" points="1373.28,-81.16 1381.09,-74 1370.52,-74.73 1373.28,-81.16"/>
</a>
</g>
</g>
<!-- Node21&#45;&gt;Node3 -->
<g id="edge33_Node000021_Node000003" class="edge">
<title>Node21&#45;&gt;Node3</title>
<g id="a_edge33_Node000021_Node000003"><a xlink:title=" ">
<path fill="none" stroke="#63b8ff" d="M764.88,-113.92C828.83,-104.38 964.98,-84.07 1038.12,-73.17"/>
<polygon fill="#63b8ff" stroke="#63b8ff" points="1038.43,-76.66 1047.8,-71.72 1037.4,-69.74 1038.43,-76.66"/>
</a>
</g>
</g>
<!-- Node21&#45;&gt;Node5 -->
<g id="edge34_Node000021_Node000005" class="edge">
<title>Node21&#45;&gt;Node5</title>
<g id="a_edge34_Node000021_Node000005"><a xlink:title=" ">
<path fill="none" stroke="#63b8ff" d="M729.83,-110.33C729.71,-103.82 729.54,-94.67 729.38,-86.37"/>
<polygon fill="#63b8ff" stroke="#63b8ff" points="732.88,-86.3 729.2,-76.37 725.89,-86.44 732.88,-86.3"/>
</a>
</g>
</g>
<!-- Node21&#45;&gt;Node7 -->
<g id="edge35_Node000021_Node000007" class="edge">
<title>Node21&#45;&gt;Node7</title>
<g id="a_edge35_Node000021_Node000007"><a xlink:title=" ">
<path fill="none" stroke="#63b8ff" d="M696.69,-110.06C649.04,-97.2 558.6,-73.25 481,-55.25 418.2,-40.69 344.56,-25.89 301.79,-17.53"/>
<polygon fill="#63b8ff" stroke="#63b8ff" points="302.56,-14.11 292.07,-15.63 301.22,-20.98 302.56,-14.11"/>
</a>
</g>
</g>
<!-- Node21&#45;&gt;Node9 -->
<g id="edge36_Node000021_Node000009" class="edge">
<title>Node21&#45;&gt;Node9</title>
<g id="a_edge36_Node000021_Node000009"><a xlink:title=" ">
<path fill="none" stroke="#63b8ff" d="M709.55,-110.04C690.67,-101.46 662.01,-87.93 638,-74.5 610.59,-59.17 580.37,-39.45 560.4,-26"/>
<polygon fill="#63b8ff" stroke="#63b8ff" points="562.46,-23.17 552.22,-20.45 558.53,-28.96 562.46,-23.17"/>
</a>
</g>
</g>
<!-- Node21&#45;&gt;Node10 -->
<g id="edge37_Node000021_Node000010" class="edge">
<title>Node21&#45;&gt;Node10</title>
<g id="a_edge37_Node000021_Node000010"><a xlink:title=" ">
<path fill="none" stroke="#63b8ff" d="M745.4,-110.04C769.62,-96.16 818.43,-69.76 863,-55.25 935.79,-31.56 1025.19,-19.21 1072.66,-13.91"/>
<polygon fill="#63b8ff" stroke="#63b8ff" points="1073,-17.39 1082.56,-12.84 1072.25,-10.43 1073,-17.39"/>
</a>
</g>
</g>
<!-- Node22&#45;&gt;Node3 -->
<g id="edge39_Node000022_Node000003" class="edge">
<title>Node22&#45;&gt;Node3</title>
<g id="a_edge39_Node000022_Node000003"><a xlink:title=" ">
<path fill="none" stroke="#63b8ff" d="M901.25,-110.03C939.06,-101.04 997.05,-87.26 1038.16,-77.49"/>
<polygon fill="#63b8ff" stroke="#63b8ff" points="1038.89,-80.91 1047.81,-75.19 1037.27,-74.1 1038.89,-80.91"/>
</a>
</g>
</g>
<!-- Node22&#45;&gt;Node8 -->
<g id="edge40_Node000022_Node000008" class="edge">
<title>Node22&#45;&gt;Node8</title>
<g id="a_edge40_Node000022_Node000008"><a xlink:title=" ">
<path fill="none" stroke="#63b8ff" d="M862.06,-110.37C860.94,-97.98 859.62,-74.7 863,-55.25 864.48,-46.74 867.43,-37.71 870.41,-30.02"/>
<polygon fill="#63b8ff" stroke="#63b8ff" points="873.55,-31.58 874.16,-21 867.08,-28.89 873.55,-31.58"/>
</a>
</g>
</g>
<!-- Node22&#45;&gt;Node9 -->
<g id="edge41_Node000022_Node000009" class="edge">
<title>Node22&#45;&gt;Node9</title>
<g id="a_edge41_Node000022_Node000009"><a xlink:title=" ">
<path fill="none" stroke="#63b8ff" d="M820.77,-112.89C781.16,-106.22 720.74,-93.89 671,-74.5 654.82,-68.19 652.49,-63.1 637,-55.25 614.55,-43.86 588.58,-32.21 568.88,-23.67"/>
<polygon fill="#63b8ff" stroke="#63b8ff" points="570.31,-20.48 559.74,-19.75 567.55,-26.91 570.31,-20.48"/>
</a>
</g>
</g>
<!-- Node22&#45;&gt;Node10 -->
<g id="edge43_Node000022_Node000010" class="edge">
<title>Node22&#45;&gt;Node10</title>
<g id="a_edge43_Node000022_Node000010"><a xlink:title=" ">
<path fill="none" stroke="#63b8ff" d="M883.3,-110.06C925.91,-91.03 1024.91,-46.83 1075.32,-24.33"/>
<polygon fill="#63b8ff" stroke="#63b8ff" points="1076.5,-27.63 1084.2,-20.36 1073.65,-21.24 1076.5,-27.63"/>
</a>
</g>
</g>
<!-- Node23 -->
<g id="Node000023" class="node">
<title>Node23</title>
<g id="a_Node000023"><a xlink:title=" ">
<polygon fill="#e0e0e0" stroke="#999999" points="917.62,-74.5 872.38,-74.5 872.38,-55.25 917.62,-55.25 917.62,-74.5"/>
<text text-anchor="middle" x="895" y="-61" font-family="Helvetica,sans-Serif" font-size="10.00">variant</text>
</a>
</g>
</g>
<!-- Node22&#45;&gt;Node23 -->
<g id="edge42_Node000022_Node000023" class="edge">
<title>Node22&#45;&gt;Node23</title>
<g id="a_edge42_Node000022_Node000023"><a xlink:title=" ">
<path fill="none" stroke="#63b8ff" d="M868.28,-110.33C872.47,-103.36 878.48,-93.37 883.73,-84.62"/>
<polygon fill="#63b8ff" stroke="#63b8ff" points="886.67,-86.53 888.82,-76.16 880.67,-82.93 886.67,-86.53"/>
</a>
</g>
</g>
<!-- Node24&#45;&gt;Node7 -->
<g id="edge51_Node000024_Node000007" class="edge">
<title>Node24&#45;&gt;Node7</title>
<g id="a_edge51_Node000024_Node000007"><a xlink:title=" ">
<path fill="none" stroke="#63b8ff" d="M329.67,-168.04C284.53,-157.48 205.61,-131.51 171,-74.5 154.23,-46.87 197.1,-28.57 230.6,-18.89"/>
<polygon fill="#63b8ff" stroke="#63b8ff" points="231.31,-22.33 240.05,-16.34 229.48,-15.57 231.31,-22.33"/>
</a>
</g>
</g>
<!-- Node24&#45;&gt;Node10 -->
<g id="edge52_Node000024_Node000010" class="edge">
<title>Node24&#45;&gt;Node10</title>
<g id="a_edge52_Node000024_Node000010"><a xlink:title=" ">
<path fill="none" stroke="#63b8ff" d="M396.56,-173.72C500.69,-171.36 817.03,-161.68 914,-129.75 932.35,-123.71 1036.2,-56.39 1083.06,-25.71"/>
<polygon fill="#63b8ff" stroke="#63b8ff" points="1084.69,-28.83 1091.13,-20.41 1080.85,-22.97 1084.69,-28.83"/>
</a>
</g>
</g>
<!-- Node25 -->
<g id="Node000025" class="node">
<title>Node25</title>
<g id="a_Node000025"><a xlink:href="pdqsort_8h.html" target="_top" xlink:title=" ">
<polygon fill="white" stroke="#666666" points="372.25,-129.75 315.75,-129.75 315.75,-110.5 372.25,-110.5 372.25,-129.75"/>
<text text-anchor="middle" x="344" y="-116.25" font-family="Helvetica,sans-Serif" font-size="10.00">pdqsort.h</text>
</a>
</g>
</g>
<!-- Node24&#45;&gt;Node25 -->
<g id="edge45_Node000024_Node000025" class="edge">
<title>Node24&#45;&gt;Node25</title>
<g id="a_edge45_Node000024_Node000025"><a xlink:title=" ">
<path fill="none" stroke="#63b8ff" d="M359.86,-165.58C357.46,-158.84 354.04,-149.27 351,-140.74"/>
<polygon fill="#63b8ff" stroke="#63b8ff" points="354.37,-139.78 347.71,-131.53 347.78,-142.13 354.37,-139.78"/>
</a>
</g>
</g>
<!-- Node25&#45;&gt;Node7 -->
<g id="edge47_Node000025_Node000007" class="edge">
<title>Node25&#45;&gt;Node7</title>
<g id="a_edge47_Node000025_Node000007"><a xlink:title=" ">
<path fill="none" stroke="#63b8ff" d="M326.6,-110.02C313.37,-102.26 295.68,-89.91 285,-74.5 276.01,-61.53 271.2,-44.25 268.68,-30.93"/>
<polygon fill="#63b8ff" stroke="#63b8ff" points="272.15,-30.47 267.13,-21.14 265.24,-31.57 272.15,-30.47"/>
</a>
</g>
</g>
<!-- Node25&#45;&gt;Node26 -->
<g id="edge46_Node000025_Node000026" class="edge">
<title>Node25&#45;&gt;Node26</title>
<g id="a_edge46_Node000025_Node000026"><a xlink:title=" ">
<path fill="none" stroke="#63b8ff" d="M360.96,-110.09C376.26,-101.94 399.03,-89.82 416.86,-80.33"/>
<polygon fill="#63b8ff" stroke="#63b8ff" points="418.44,-83.45 425.62,-75.66 415.15,-77.27 418.44,-83.45"/>
</a>
</g>
</g>
<!-- Node25&#45;&gt;Node27 -->
<g id="edge48_Node000025_Node000027" class="edge">
<title>Node25&#45;&gt;Node27</title>
<g id="a_edge48_Node000025_Node000027"><a xlink:title=" ">
<path fill="none" stroke="#63b8ff" d="M321.1,-110.09C299.57,-101.6 267.09,-88.79 242.62,-79.14"/>
<polygon fill="#63b8ff" stroke="#63b8ff" points="244.01,-75.92 233.42,-75.51 241.44,-82.43 244.01,-75.92"/>
</a>
</g>
</g>
<!-- Node28 -->
<g id="Node000028" class="node">
<title>Node28</title>
<g id="a_Node000028"><a xlink:title=" ">
<polygon fill="#e0e0e0" stroke="#999999" points="398,-74.5 352,-74.5 352,-55.25 398,-55.25 398,-74.5"/>
<text text-anchor="middle" x="375" y="-61" font-family="Helvetica,sans-Serif" font-size="10.00">iterator</text>
</a>
</g>
</g>
<!-- Node25&#45;&gt;Node28 -->
<g id="edge49_Node000025_Node000028" class="edge">
<title>Node25&#45;&gt;Node28</title>
<g id="a_edge49_Node000025_Node000028"><a xlink:title=" ">
<path fill="none" stroke="#63b8ff" d="M349.12,-110.33C353.18,-103.36 358.99,-93.37 364.09,-84.62"/>
<polygon fill="#63b8ff" stroke="#63b8ff" points="367,-86.57 369.01,-76.17 360.95,-83.05 367,-86.57"/>
</a>
</g>
</g>
<!-- Node29 -->
<g id="Node000029" class="node">
<title>Node29</title>
<g id="a_Node000029"><a xlink:title=" ">
<polygon fill="#e0e0e0" stroke="#999999" points="333.62,-74.5 294.38,-74.5 294.38,-55.25 333.62,-55.25 333.62,-74.5"/>
<text text-anchor="middle" x="314" y="-61" font-family="Helvetica,sans-Serif" font-size="10.00">utility</text>
</a>
</g>
</g>
<!-- Node25&#45;&gt;Node29 -->
<g id="edge50_Node000025_Node000029" class="edge">
<title>Node25&#45;&gt;Node29</title>
<g id="a_edge50_Node000025_Node000029"><a xlink:title=" ">
<path fill="none" stroke="#63b8ff" d="M339.05,-110.33C335.12,-103.36 329.49,-93.37 324.56,-84.62"/>
<polygon fill="#63b8ff" stroke="#63b8ff" points="327.76,-83.17 319.8,-76.18 321.66,-86.61 327.76,-83.17"/>
</a>
</g>
</g>
</g>
</svg>

<g id="navigator" transform="translate(0 0)" fill="#404254">
  <rect fill="#f2f5e9" fill-opacity="0.5" stroke="#606060" stroke-width=".5" x="0" y="0" width="60" height="60"/>
  <use id="zoomplus" xlink:href="#zoomPlus" x="17" y="9" onmousedown="handleZoom(evt,'in')"/>
  <use id="zoomminus" xlink:href="#zoomMin" x="42" y="9" onmousedown="handleZoom(evt,'out')"/>
  <use id="reset" xlink:href="#resetDef" x="30" y="36" onmousedown="handleReset()"/>
   <use id="arrowup" xlink:href="#arrowUp" x="0" y="0" onmousedown="handlePan(0,-1)"/>
  <use id="arrowright" xlink:href="#arrowRight" x="0" y="0" onmousedown="handlePan(1,0)"/>
  <use id="arrowdown" xlink:href="#arrowDown" x="0" y="0" onmousedown="handlePan(0,1)"/>
  <use id="arrowleft" xlink:href="#arrowLeft" x="0" y="0" onmousedown="handlePan(-1,0)"/>
</g>
<svg viewBox="0 0 15 15" width="100%" height="30px" preserveAspectRatio="xMaxYMin meet">
 <g id="arrow_out" transform="scale(0.3 0.3)">
  <a xlink:href="Ioss__ConcreteVariableType_8C__incl_org.svg" target="_base">
   <rect id="button" ry="5" rx="5" y="6" x="6" height="38" width="38"
        fill="#f2f5e9" fill-opacity="0.5" stroke="#606060" stroke-width="1.0"/>
   <path id="arrow"
     d="M 11.500037,31.436501 C 11.940474,20.09759 22.043105,11.32322 32.158766,21.979434 L 37.068811,17.246167 C 37.068811,17.246167 37.088388,32 37.088388,32 L 22.160133,31.978069 C 22.160133,31.978069 26.997745,27.140456 26.997745,27.140456 C 18.528582,18.264221 13.291696,25.230495 11.500037,31.436501 z"
     style="fill:#404040;"/>
  </a>
 </g>
</svg>

<style type='text/css'>
<![CDATA[
[data-mouse-over-selected='false'] { opacity: 0.7; }
[data-mouse-over-selected='true']  { opacity: 1.0; }
]]>
</style>
<script type="application/ecmascript"><![CDATA[
document.addEventListener('DOMContentLoaded', (event) => {
  highlightEdges();
  highlightAdjacentNodes();
});
]]></script>
</svg>
