<?xml version="1.0" encoding="UTF-8" standalone="no"?>
<!DOCTYPE svg PUBLIC "-//W3C//DTD SVG 1.1//EN"
 "http://www.w3.org/Graphics/SVG/1.1/DTD/svg11.dtd">
<!-- Generated by graphviz version 2.46.0 (20210118.1747)
 -->
<!-- Title: src/Ioss_ZoneConnectivity.h Pages: 1 -->
<!--zoomable 352 -->
<svg id="main" version="1.1" xmlns="http://www.w3.org/2000/svg" xmlns:xlink="http://www.w3.org/1999/xlink" xml:space="preserve" onload="init(evt)">
<style type="text/css"><![CDATA[
.edge:hover path { stroke: red; }
.edge:hover polygon { stroke: red; fill: red; }
]]></style>
<script type="text/javascript"><![CDATA[
var edges = document.getElementsByTagName('g');
if (edges && edges.length) {
  for (var i=0;i<edges.length;i++) {
    if (edges[i].id.substr(0,4)=='edge') {
      edges[i].setAttribute('class','edge');
    }
  }
}
]]></script>
        <defs>
                <circle id="rim" cx="0" cy="0" r="7"/>
                <circle id="rim2" cx="0" cy="0" r="3.5"/>
                <g id="zoomPlus">
                        <use xlink:href="#rim" fill="#404040">
                                <set attributeName="fill" to="#808080" begin="zoomplus.mouseover" end="zoomplus.mouseout"/>
                        </use>
                        <path d="M-4,0h8M0,-4v8" fill="none" stroke="white" stroke-width="1.5" pointer-events="none"/>
                </g>
                <g id="zoomMin">
                        <use xlink:href="#rim" fill="#404040">
                                <set attributeName="fill" to="#808080" begin="zoomminus.mouseover" end="zoomminus.mouseout"/>
                        </use>
                        <path d="M-4,0h8" fill="none" stroke="white" stroke-width="1.5" pointer-events="none"/>
                </g>
                <g id="dirArrow">
                        <path fill="none" stroke="white" stroke-width="1.5" d="M0,-3.0v7 M-2.5,-0.5L0,-3.0L2.5,-0.5"/>
                </g>
               <g id="resetDef">
                       <use xlink:href="#rim2" fill="#404040">
                               <set attributeName="fill" to="#808080" begin="reset.mouseover" end="reset.mouseout"/>
                       </use>
               </g>
        </defs>

<script type="text/javascript">
var viewWidth = 3040;
var viewHeight = 352;
var sectionId = 'dynsection-1';
</script>
<script xlink:href="svgpan.js"/>
<svg id="graph" class="graph">
<g id="viewport">
<title>src/Ioss_ZoneConnectivity.h</title>
<polygon fill="white" stroke="transparent" points="-4,4 -4,-348 3035.5,-348 3035.5,4 -4,4"/>
<!-- Node1 -->
<g id="node1" class="node">
<title>Node1</title>
<g id="a_node1"><a xlink:title=" ">
<polygon fill="#bfbfbf" stroke="black" points="1231.5,-324.5 1231.5,-343.5 1371.5,-343.5 1371.5,-324.5 1231.5,-324.5"/>
<text text-anchor="middle" x="1301.5" y="-331.5" font-family="Helvetica,sans-Serif" font-size="10.00">src/Ioss_ZoneConnectivity.h</text>
</a>
</g>
</g>
<!-- Node2 -->
<g id="node2" class="node">
<title>Node2</title>
<g id="a_node2"><a xlink:href="Ioss__StructuredBlock_8h.html" target="_top" xlink:title=" ">
<polygon fill="white" stroke="black" points="1133,-268.5 1133,-287.5 1268,-287.5 1268,-268.5 1133,-268.5"/>
<text text-anchor="middle" x="1200.5" y="-275.5" font-family="Helvetica,sans-Serif" font-size="10.00">src/Ioss_StructuredBlock.h</text>
</a>
</g>
</g>
<!-- Node1&#45;&gt;Node2 -->
<g id="edge1" class="edge">
<title>Node1&#45;&gt;Node2</title>
<path fill="none" stroke="midnightblue" d="M1276.42,-319.59C1257.74,-309.61 1232.8,-296.27 1216.69,-287.65"/>
<polygon fill="midnightblue" stroke="midnightblue" points="1274.8,-322.7 1285.27,-324.32 1278.1,-316.52 1274.8,-322.7"/>
</g>
<!-- Node10 -->
<g id="node10" class="node">
<title>Node10</title>
<g id="a_node10"><a xlink:href="cgns__decomp_8C.html" target="_top" xlink:title=" ">
<polygon fill="white" stroke="black" points="408.5,-140 408.5,-159 536.5,-159 536.5,-140 408.5,-140"/>
<text text-anchor="middle" x="472.5" y="-147" font-family="Helvetica,sans-Serif" font-size="10.00">src/main/cgns_decomp.C</text>
</a>
</g>
</g>
<!-- Node1&#45;&gt;Node10 -->
<g id="edge52" class="edge">
<title>Node1&#45;&gt;Node10</title>
<path fill="none" stroke="midnightblue" d="M1220.95,-331.41C985.18,-325.93 308.97,-304.02 243.5,-232 234.23,-221.81 234.87,-211.74 243.5,-201 246.46,-197.32 365.37,-172.46 430.64,-159.04"/>
<polygon fill="midnightblue" stroke="midnightblue" points="1221.09,-334.91 1231.17,-331.64 1221.25,-327.92 1221.09,-334.91"/>
</g>
<!-- Node12 -->
<g id="node12" class="node">
<title>Node12</title>
<g id="a_node12"><a xlink:href="Utst__structured__decomp_8C.html" target="_top" xlink:title=" ">
<polygon fill="white" stroke="black" points="1029,-134.5 1029,-164.5 1154,-164.5 1154,-134.5 1029,-134.5"/>
<text text-anchor="start" x="1037" y="-152.5" font-family="Helvetica,sans-Serif" font-size="10.00">src/utest/Utst_structured</text>
<text text-anchor="middle" x="1091.5" y="-141.5" font-family="Helvetica,sans-Serif" font-size="10.00">_decomp.C</text>
</a>
</g>
</g>
<!-- Node1&#45;&gt;Node12 -->
<g id="edge53" class="edge">
<title>Node1&#45;&gt;Node12</title>
<path fill="none" stroke="midnightblue" d="M1319,-317.51C1346.58,-291.26 1394.03,-237.35 1363.5,-201 1333.76,-165.58 1203.89,-173.89 1158.5,-165 1157.1,-164.73 1155.68,-164.44 1154.25,-164.16"/>
<polygon fill="midnightblue" stroke="midnightblue" points="1316.48,-315.08 1311.51,-324.43 1321.23,-320.22 1316.48,-315.08"/>
</g>
<!-- Node39 -->
<g id="node39" class="node">
<title>Node39</title>
<g id="a_node39"><a xlink:href="Ioss__ZoneConnectivity_8C.html" target="_top" xlink:title=" ">
<polygon fill="white" stroke="black" points="1431,-268.5 1431,-287.5 1574,-287.5 1574,-268.5 1431,-268.5"/>
<text text-anchor="middle" x="1502.5" y="-275.5" font-family="Helvetica,sans-Serif" font-size="10.00">src/Ioss_ZoneConnectivity.C</text>
</a>
</g>
</g>
<!-- Node1&#45;&gt;Node39 -->
<g id="edge51" class="edge">
<title>Node1&#45;&gt;Node39</title>
<path fill="none" stroke="midnightblue" d="M1343.08,-321.83C1381.03,-311.63 1436.31,-296.78 1470.8,-287.52"/>
<polygon fill="midnightblue" stroke="midnightblue" points="1342.1,-318.47 1333.35,-324.44 1343.91,-325.23 1342.1,-318.47"/>
</g>
<!-- Node3 -->
<g id="node3" class="node">
<title>Node3</title>
<g id="a_node3"><a xlink:href="Iocgns__DecompositionData_8C.html" target="_top" xlink:title=" ">
<polygon fill="white" stroke="black" points="872,-67.5 872,-97.5 1029,-97.5 1029,-67.5 872,-67.5"/>
<text text-anchor="start" x="880" y="-85.5" font-family="Helvetica,sans-Serif" font-size="10.00">src/cgns/Iocgns_Decomposition</text>
<text text-anchor="middle" x="950.5" y="-74.5" font-family="Helvetica,sans-Serif" font-size="10.00">Data.C</text>
</a>
</g>
</g>
<!-- Node2&#45;&gt;Node3 -->
<g id="edge2" class="edge">
<title>Node2&#45;&gt;Node3</title>
<path fill="none" stroke="midnightblue" d="M1122.35,-276.23C899.29,-273.65 273.66,-263.61 243.5,-232 213.43,-200.49 213.61,-165.68 243.5,-134 290.78,-83.89 794.03,-105.61 862.5,-98 865.58,-97.66 868.71,-97.28 871.87,-96.88"/>
<polygon fill="midnightblue" stroke="midnightblue" points="1122.62,-279.73 1132.66,-276.35 1122.7,-272.73 1122.62,-279.73"/>
</g>
<!-- Node4 -->
<g id="node4" class="node">
<title>Node4</title>
<g id="a_node4"><a xlink:href="Iocgns__DecompositionData_8h.html" target="_top" xlink:title=" ">
<polygon fill="white" stroke="black" points="713,-134.5 713,-164.5 870,-164.5 870,-134.5 713,-134.5"/>
<text text-anchor="start" x="721" y="-152.5" font-family="Helvetica,sans-Serif" font-size="10.00">src/cgns/Iocgns_Decomposition</text>
<text text-anchor="middle" x="791.5" y="-141.5" font-family="Helvetica,sans-Serif" font-size="10.00">Data.h</text>
</a>
</g>
</g>
<!-- Node2&#45;&gt;Node4 -->
<g id="edge3" class="edge">
<title>Node2&#45;&gt;Node4</title>
<path fill="none" stroke="midnightblue" d="M1201.09,-258.17C1200.54,-240.62 1196.71,-215.11 1180.5,-201 1129.69,-156.77 946.2,-174.48 879.5,-165 876.43,-164.56 873.31,-164.11 870.16,-163.64"/>
<polygon fill="midnightblue" stroke="midnightblue" points="1197.59,-258.34 1201.08,-268.35 1204.59,-258.35 1197.59,-258.34"/>
</g>
<!-- Node6 -->
<g id="node6" class="node">
<title>Node6</title>
<g id="a_node6"><a xlink:href="Iocgns__ParallelDatabaseIO_8C.html" target="_top" xlink:title=" ">
<polygon fill="white" stroke="black" points="1320.5,-0.5 1320.5,-30.5 1444.5,-30.5 1444.5,-0.5 1320.5,-0.5"/>
<text text-anchor="start" x="1328.5" y="-18.5" font-family="Helvetica,sans-Serif" font-size="10.00">src/cgns/Iocgns_Parallel</text>
<text text-anchor="middle" x="1382.5" y="-7.5" font-family="Helvetica,sans-Serif" font-size="10.00">DatabaseIO.C</text>
</a>
</g>
</g>
<!-- Node2&#45;&gt;Node6 -->
<g id="edge7" class="edge">
<title>Node2&#45;&gt;Node6</title>
<path fill="none" stroke="midnightblue" d="M1278.07,-272.66C1378.02,-266.25 1541.19,-252.75 1559.5,-232 1588.32,-199.34 1580.09,-172.38 1559.5,-134 1530.99,-80.86 1466.7,-47.67 1423.96,-30.62"/>
<polygon fill="midnightblue" stroke="midnightblue" points="1277.76,-269.17 1268,-273.29 1278.2,-276.15 1277.76,-269.17"/>
</g>
<!-- Node7 -->
<g id="node7" class="node">
<title>Node7</title>
<g id="a_node7"><a xlink:href="Iocgns__StructuredZoneData_8h.html" target="_top" xlink:title=" ">
<polygon fill="white" stroke="black" points="253,-201.5 253,-231.5 390,-231.5 390,-201.5 253,-201.5"/>
<text text-anchor="start" x="261" y="-219.5" font-family="Helvetica,sans-Serif" font-size="10.00">src/cgns/Iocgns_Structured</text>
<text text-anchor="middle" x="321.5" y="-208.5" font-family="Helvetica,sans-Serif" font-size="10.00">ZoneData.h</text>
</a>
</g>
</g>
<!-- Node2&#45;&gt;Node7 -->
<g id="edge8" class="edge">
<title>Node2&#45;&gt;Node7</title>
<path fill="none" stroke="midnightblue" d="M1122.98,-275.93C979.64,-273.22 663.67,-263.84 399.5,-232 396.49,-231.64 393.42,-231.23 390.33,-230.79"/>
<polygon fill="midnightblue" stroke="midnightblue" points="1122.93,-279.43 1133,-276.11 1123.06,-272.43 1122.93,-279.43"/>
</g>
<!-- Node9 -->
<g id="node9" class="node">
<title>Node9</title>
<g id="a_node9"><a xlink:href="Iocgns__Utils_8C.html" target="_top" xlink:title=" ">
<polygon fill="white" stroke="black" points="888.5,-140 888.5,-159 1010.5,-159 1010.5,-140 888.5,-140"/>
<text text-anchor="middle" x="949.5" y="-147" font-family="Helvetica,sans-Serif" font-size="10.00">src/cgns/Iocgns_Utils.C</text>
</a>
</g>
</g>
<!-- Node2&#45;&gt;Node9 -->
<g id="edge18" class="edge">
<title>Node2&#45;&gt;Node9</title>
<path fill="none" stroke="midnightblue" d="M1263.18,-266.38C1314.81,-255.01 1375.07,-234.02 1345.5,-201 1296.87,-146.71 1091.49,-176.4 1019.5,-165 1009.08,-163.35 997.86,-161.2 987.53,-159.06"/>
<polygon fill="midnightblue" stroke="midnightblue" points="1262.4,-262.97 1253.33,-268.46 1263.84,-269.82 1262.4,-262.97"/>
</g>
<!-- Node16 -->
<g id="node16" class="node">
<title>Node16</title>
<g id="a_node16"><a xlink:href="Iocgns__Utils_8h.html" target="_top" xlink:title=" ">
<polygon fill="white" stroke="black" points="1430.5,-207 1430.5,-226 1550.5,-226 1550.5,-207 1430.5,-207"/>
<text text-anchor="middle" x="1490.5" y="-214" font-family="Helvetica,sans-Serif" font-size="10.00">src/cgns/Iocgns_Utils.h</text>
</a>
</g>
</g>
<!-- Node2&#45;&gt;Node16 -->
<g id="edge19" class="edge">
<title>Node2&#45;&gt;Node16</title>
<path fill="none" stroke="midnightblue" d="M1252.15,-266.4C1308.37,-254.87 1397.16,-236.65 1449.03,-226.01"/>
<polygon fill="midnightblue" stroke="midnightblue" points="1251.14,-263.04 1242.05,-268.48 1252.55,-269.89 1251.14,-263.04"/>
</g>
<!-- Node19 -->
<g id="node19" class="node">
<title>Node19</title>
<g id="a_node19"><a xlink:href="Iofaodel__FieldSerialization_8h.html" target="_top" xlink:title=" ">
<polygon fill="white" stroke="black" points="1781.5,-201.5 1781.5,-231.5 1885.5,-231.5 1885.5,-201.5 1781.5,-201.5"/>
<text text-anchor="start" x="1789.5" y="-219.5" font-family="Helvetica,sans-Serif" font-size="10.00">src/faodel/Iofaodel</text>
<text text-anchor="middle" x="1833.5" y="-208.5" font-family="Helvetica,sans-Serif" font-size="10.00">_FieldSerialization.h</text>
</a>
</g>
</g>
<!-- Node2&#45;&gt;Node19 -->
<g id="edge28" class="edge">
<title>Node2&#45;&gt;Node19</title>
<path fill="none" stroke="midnightblue" d="M1278.59,-269.66C1409.56,-257.35 1670.03,-232.87 1781.22,-222.41"/>
<polygon fill="midnightblue" stroke="midnightblue" points="1277.87,-266.21 1268.24,-270.63 1278.53,-273.18 1277.87,-266.21"/>
</g>
<!-- Node22 -->
<g id="node22" class="node">
<title>Node22</title>
<g id="a_node22"><a xlink:href="Iofaodel__PropertySerialization_8C.html" target="_top" xlink:title=" ">
<polygon fill="white" stroke="black" points="408.5,-201.5 408.5,-231.5 530.5,-231.5 530.5,-201.5 408.5,-201.5"/>
<text text-anchor="start" x="416.5" y="-219.5" font-family="Helvetica,sans-Serif" font-size="10.00">src/faodel/Iofaodel</text>
<text text-anchor="middle" x="469.5" y="-208.5" font-family="Helvetica,sans-Serif" font-size="10.00">_PropertySerialization.C</text>
</a>
</g>
</g>
<!-- Node2&#45;&gt;Node22 -->
<g id="edge31" class="edge">
<title>Node2&#45;&gt;Node22</title>
<path fill="none" stroke="midnightblue" d="M1122.47,-275.13C998.46,-271.38 748.99,-260.69 539.5,-232 536.67,-231.61 533.79,-231.18 530.88,-230.71"/>
<polygon fill="midnightblue" stroke="midnightblue" points="1122.53,-278.63 1132.63,-275.43 1122.74,-271.63 1122.53,-278.63"/>
</g>
<!-- Node23 -->
<g id="node23" class="node">
<title>Node23</title>
<g id="a_node23"><a xlink:href="Iofaodel__Utils_8C.html" target="_top" xlink:title=" ">
<polygon fill="white" stroke="black" points="549,-201.5 549,-231.5 646,-231.5 646,-201.5 549,-201.5"/>
<text text-anchor="start" x="557" y="-219.5" font-family="Helvetica,sans-Serif" font-size="10.00">src/faodel/Iofaodel</text>
<text text-anchor="middle" x="597.5" y="-208.5" font-family="Helvetica,sans-Serif" font-size="10.00">_Utils.C</text>
</a>
</g>
</g>
<!-- Node2&#45;&gt;Node23 -->
<g id="edge32" class="edge">
<title>Node2&#45;&gt;Node23</title>
<path fill="none" stroke="midnightblue" d="M1122.64,-274.55C1016.44,-270.3 820.49,-259.25 655.5,-232 652.43,-231.49 649.28,-230.91 646.11,-230.26"/>
<polygon fill="midnightblue" stroke="midnightblue" points="1122.82,-278.06 1132.95,-274.95 1123.09,-271.06 1122.82,-278.06"/>
</g>
<!-- Node24 -->
<g id="node24" class="node">
<title>Node24</title>
<g id="a_node24"><a xlink:href="Iogs__DatabaseIO_8C.html" target="_top" xlink:title=" ">
<polygon fill="white" stroke="black" points="664.5,-201.5 664.5,-231.5 762.5,-231.5 762.5,-201.5 664.5,-201.5"/>
<text text-anchor="start" x="672.5" y="-219.5" font-family="Helvetica,sans-Serif" font-size="10.00">src/gen_struc/Iogs</text>
<text text-anchor="middle" x="713.5" y="-208.5" font-family="Helvetica,sans-Serif" font-size="10.00">_DatabaseIO.C</text>
</a>
</g>
</g>
<!-- Node2&#45;&gt;Node24 -->
<g id="edge33" class="edge">
<title>Node2&#45;&gt;Node24</title>
<path fill="none" stroke="midnightblue" d="M1122.87,-272.15C1036.59,-266 893.34,-253.51 771.5,-232 768.64,-231.49 765.71,-230.93 762.76,-230.32"/>
<polygon fill="midnightblue" stroke="midnightblue" points="1122.62,-275.64 1132.85,-272.85 1123.12,-268.66 1122.62,-275.64"/>
</g>
<!-- Node25 -->
<g id="node25" class="node">
<title>Node25</title>
<g id="a_node25"><a xlink:href="Ioss__DatabaseIO_8C.html" target="_top" xlink:title=" ">
<polygon fill="white" stroke="black" points="780.5,-207 780.5,-226 900.5,-226 900.5,-207 780.5,-207"/>
<text text-anchor="middle" x="840.5" y="-214" font-family="Helvetica,sans-Serif" font-size="10.00">src/Ioss_DatabaseIO.C</text>
</a>
</g>
</g>
<!-- Node2&#45;&gt;Node25 -->
<g id="edge34" class="edge">
<title>Node2&#45;&gt;Node25</title>
<path fill="none" stroke="midnightblue" d="M1129.06,-267.04C1070.04,-258.56 984.14,-245.6 909.5,-232 899.75,-230.22 889.26,-228.12 879.47,-226.07"/>
<polygon fill="midnightblue" stroke="midnightblue" points="1128.63,-270.52 1139.03,-268.47 1129.62,-263.59 1128.63,-270.52"/>
</g>
<!-- Node26 -->
<g id="node26" class="node">
<title>Node26</title>
<g id="a_node26"><a xlink:href="Ioss__Region_8C.html" target="_top" xlink:title=" ">
<polygon fill="white" stroke="black" points="918.5,-207 918.5,-226 1016.5,-226 1016.5,-207 918.5,-207"/>
<text text-anchor="middle" x="967.5" y="-214" font-family="Helvetica,sans-Serif" font-size="10.00">src/Ioss_Region.C</text>
</a>
</g>
</g>
<!-- Node2&#45;&gt;Node26 -->
<g id="edge35" class="edge">
<title>Node2&#45;&gt;Node26</title>
<path fill="none" stroke="midnightblue" d="M1157.3,-265.97C1112.06,-254.41 1041.97,-236.52 1000.82,-226.01"/>
<polygon fill="midnightblue" stroke="midnightblue" points="1156.56,-269.39 1167.12,-268.48 1158.29,-262.61 1156.56,-269.39"/>
</g>
<!-- Node27 -->
<g id="node27" class="node">
<title>Node27</title>
<g id="a_node27"><a xlink:href="Ioss__StructuredBlock_8C.html" target="_top" xlink:title=" ">
<polygon fill="white" stroke="black" points="1035,-207 1035,-226 1172,-226 1172,-207 1035,-207"/>
<text text-anchor="middle" x="1103.5" y="-214" font-family="Helvetica,sans-Serif" font-size="10.00">src/Ioss_StructuredBlock.C</text>
</a>
</g>
</g>
<!-- Node2&#45;&gt;Node27 -->
<g id="edge36" class="edge">
<title>Node2&#45;&gt;Node27</title>
<path fill="none" stroke="midnightblue" d="M1178.07,-263.24C1159.34,-251.75 1133.21,-235.72 1117.37,-226.01"/>
<polygon fill="midnightblue" stroke="midnightblue" points="1176.25,-266.23 1186.6,-268.48 1179.91,-260.26 1176.25,-266.23"/>
</g>
<!-- Node28 -->
<g id="node28" class="node">
<title>Node28</title>
<g id="a_node28"><a xlink:href="Ioss__SubSystem_8h.html" target="_top" xlink:title=" ">
<polygon fill="white" stroke="black" points="2096.5,-207 2096.5,-226 2212.5,-226 2212.5,-207 2096.5,-207"/>
<text text-anchor="middle" x="2154.5" y="-214" font-family="Helvetica,sans-Serif" font-size="10.00">src/Ioss_SubSystem.h</text>
</a>
</g>
</g>
<!-- Node2&#45;&gt;Node28 -->
<g id="edge37" class="edge">
<title>Node2&#45;&gt;Node28</title>
<path fill="none" stroke="midnightblue" d="M1278.33,-272.15C1464.44,-260.54 1931.92,-231.38 2096.26,-221.13"/>
<polygon fill="midnightblue" stroke="midnightblue" points="1278.11,-268.65 1268.34,-272.77 1278.54,-275.64 1278.11,-268.65"/>
</g>
<!-- Node35 -->
<g id="node35" class="node">
<title>Node35</title>
<g id="a_node35"><a xlink:href="io__info_8h.html" target="_top" xlink:title=" ">
<polygon fill="white" stroke="black" points="2809.5,-207 2809.5,-226 2903.5,-226 2903.5,-207 2809.5,-207"/>
<text text-anchor="middle" x="2856.5" y="-214" font-family="Helvetica,sans-Serif" font-size="10.00">src/main/io_info.h</text>
</a>
</g>
</g>
<!-- Node2&#45;&gt;Node35 -->
<g id="edge47" class="edge">
<title>Node2&#45;&gt;Node35</title>
<path fill="none" stroke="midnightblue" d="M1278.44,-273.72C1320.76,-271.97 1374,-269.8 1421.5,-268 1967.04,-247.29 2629.37,-225.06 2809.42,-219.06"/>
<polygon fill="midnightblue" stroke="midnightblue" points="1278.05,-270.23 1268.2,-274.15 1278.34,-277.23 1278.05,-270.23"/>
</g>
<!-- Node38 -->
<g id="node38" class="node">
<title>Node38</title>
<g id="a_node38"><a xlink:href="io__modify_8C.html" target="_top" xlink:title=" ">
<polygon fill="white" stroke="black" points="1228.5,-207 1228.5,-226 1336.5,-226 1336.5,-207 1228.5,-207"/>
<text text-anchor="middle" x="1282.5" y="-214" font-family="Helvetica,sans-Serif" font-size="10.00">src/main/io_modify.C</text>
</a>
</g>
</g>
<!-- Node2&#45;&gt;Node38 -->
<g id="edge50" class="edge">
<title>Node2&#45;&gt;Node38</title>
<path fill="none" stroke="midnightblue" d="M1220.77,-262.29C1236.5,-250.88 1257.75,-235.46 1270.77,-226.01"/>
<polygon fill="midnightblue" stroke="midnightblue" points="1218.29,-259.77 1212.25,-268.48 1222.4,-265.43 1218.29,-259.77"/>
</g>
<!-- Node4&#45;&gt;Node3 -->
<g id="edge4" class="edge">
<title>Node4&#45;&gt;Node3</title>
<path fill="none" stroke="midnightblue" d="M835.42,-130.54C860.87,-120.14 892.43,-107.24 916.07,-97.58"/>
<polygon fill="midnightblue" stroke="midnightblue" points="833.93,-127.37 826,-134.4 836.58,-133.85 833.93,-127.37"/>
</g>
<!-- Node5 -->
<g id="node5" class="node">
<title>Node5</title>
<g id="a_node5"><a xlink:href="Iocgns__ParallelDatabaseIO_8h.html" target="_top" xlink:title=" ">
<polygon fill="white" stroke="black" points="729.5,-67.5 729.5,-97.5 853.5,-97.5 853.5,-67.5 729.5,-67.5"/>
<text text-anchor="start" x="737.5" y="-85.5" font-family="Helvetica,sans-Serif" font-size="10.00">src/cgns/Iocgns_Parallel</text>
<text text-anchor="middle" x="791.5" y="-74.5" font-family="Helvetica,sans-Serif" font-size="10.00">DatabaseIO.h</text>
</a>
</g>
</g>
<!-- Node4&#45;&gt;Node5 -->
<g id="edge5" class="edge">
<title>Node4&#45;&gt;Node5</title>
<path fill="none" stroke="midnightblue" d="M791.5,-124.11C791.5,-115.15 791.5,-105.32 791.5,-97.58"/>
<polygon fill="midnightblue" stroke="midnightblue" points="788,-124.4 791.5,-134.4 795,-124.4 788,-124.4"/>
</g>
<!-- Node5&#45;&gt;Node6 -->
<g id="edge6" class="edge">
<title>Node5&#45;&gt;Node6</title>
<path fill="none" stroke="midnightblue" d="M863.68,-66.92C1034.28,-41.73 1224.23,-26.96 1320.21,-20.43"/>
<polygon fill="midnightblue" stroke="midnightblue" points="863.15,-63.46 853.77,-68.4 864.18,-70.38 863.15,-63.46"/>
</g>
<!-- Node7&#45;&gt;Node4 -->
<g id="edge9" class="edge">
<title>Node7&#45;&gt;Node4</title>
<path fill="none" stroke="midnightblue" d="M400.36,-200.92C514.87,-183.1 635.82,-168.27 712.85,-159.33"/>
<polygon fill="midnightblue" stroke="midnightblue" points="399.71,-197.48 390.37,-202.48 400.79,-204.39 399.71,-197.48"/>
</g>
<!-- Node8 -->
<g id="node8" class="node">
<title>Node8</title>
<g id="a_node8"><a xlink:href="Iocgns__StructuredZoneData_8C.html" target="_top" xlink:title=" ">
<polygon fill="white" stroke="black" points="253,-134.5 253,-164.5 390,-164.5 390,-134.5 253,-134.5"/>
<text text-anchor="start" x="261" y="-152.5" font-family="Helvetica,sans-Serif" font-size="10.00">src/cgns/Iocgns_Structured</text>
<text text-anchor="middle" x="321.5" y="-141.5" font-family="Helvetica,sans-Serif" font-size="10.00">ZoneData.C</text>
</a>
</g>
</g>
<!-- Node7&#45;&gt;Node8 -->
<g id="edge10" class="edge">
<title>Node7&#45;&gt;Node8</title>
<path fill="none" stroke="midnightblue" d="M321.5,-191.11C321.5,-182.15 321.5,-172.32 321.5,-164.58"/>
<polygon fill="midnightblue" stroke="midnightblue" points="318,-191.4 321.5,-201.4 325,-191.4 318,-191.4"/>
</g>
<!-- Node7&#45;&gt;Node9 -->
<g id="edge11" class="edge">
<title>Node7&#45;&gt;Node9</title>
<path fill="none" stroke="midnightblue" d="M400.57,-200.97C612.99,-174.09 670.35,-193.96 878.5,-165 889.47,-163.47 901.28,-161.28 912.07,-159.07"/>
<polygon fill="midnightblue" stroke="midnightblue" points="399.81,-197.54 390.34,-202.28 400.7,-204.48 399.81,-197.54"/>
</g>
<!-- Node7&#45;&gt;Node10 -->
<g id="edge12" class="edge">
<title>Node7&#45;&gt;Node10</title>
<path fill="none" stroke="midnightblue" d="M363.79,-197.3C392.91,-184.76 430.26,-168.68 452.74,-159.01"/>
<polygon fill="midnightblue" stroke="midnightblue" points="362.07,-194.23 354.26,-201.4 364.83,-200.66 362.07,-194.23"/>
</g>
<!-- Node11 -->
<g id="node11" class="node">
<title>Node11</title>
<g id="a_node11"><a xlink:href="struc__to__unstruc_8C.html" target="_top" xlink:title=" ">
<polygon fill="white" stroke="black" points="1410.5,-140 1410.5,-159 1550.5,-159 1550.5,-140 1410.5,-140"/>
<text text-anchor="middle" x="1480.5" y="-147" font-family="Helvetica,sans-Serif" font-size="10.00">src/main/struc_to_unstruc.C</text>
</a>
</g>
</g>
<!-- Node7&#45;&gt;Node11 -->
<g id="edge13" class="edge">
<title>Node7&#45;&gt;Node11</title>
<path fill="none" stroke="midnightblue" d="M400.47,-201.02C827.37,-154.4 939.48,-199.13 1363.5,-165 1381.86,-163.52 1401.77,-161.29 1419.88,-159.02"/>
<polygon fill="midnightblue" stroke="midnightblue" points="399.88,-197.57 390.32,-202.14 400.65,-204.52 399.88,-197.57"/>
</g>
<!-- Node7&#45;&gt;Node12 -->
<g id="edge14" class="edge">
<title>Node7&#45;&gt;Node12</title>
<path fill="none" stroke="midnightblue" d="M400.61,-200.98C675.3,-168.5 749.09,-199.9 1019.5,-165 1022.54,-164.61 1025.63,-164.16 1028.76,-163.68"/>
<polygon fill="midnightblue" stroke="midnightblue" points="399.84,-197.55 390.33,-202.22 400.68,-204.5 399.84,-197.55"/>
</g>
<!-- Node13 -->
<g id="node13" class="node">
<title>Node13</title>
<g id="a_node13"><a xlink:href="Utst__structured__decomp_8h.html" target="_top" xlink:title=" ">
<polygon fill="white" stroke="black" points="71,-134.5 71,-164.5 196,-164.5 196,-134.5 71,-134.5"/>
<text text-anchor="start" x="79" y="-152.5" font-family="Helvetica,sans-Serif" font-size="10.00">src/utest/Utst_structured</text>
<text text-anchor="middle" x="133.5" y="-141.5" font-family="Helvetica,sans-Serif" font-size="10.00">_decomp.h</text>
</a>
</g>
</g>
<!-- Node7&#45;&gt;Node13 -->
<g id="edge15" class="edge">
<title>Node7&#45;&gt;Node13</title>
<path fill="none" stroke="midnightblue" d="M271.15,-198.09C240.8,-187.6 202.65,-174.41 174.21,-164.58"/>
<polygon fill="midnightblue" stroke="midnightblue" points="270.11,-201.44 280.71,-201.4 272.4,-194.82 270.11,-201.44"/>
</g>
<!-- Node14 -->
<g id="node14" class="node">
<title>Node14</title>
<g id="a_node14"><a xlink:href="Utst__structured__decomp__herron_8C.html" target="_top" xlink:title=" ">
<polygon fill="white" stroke="black" points="143,-67.5 143,-97.5 268,-97.5 268,-67.5 143,-67.5"/>
<text text-anchor="start" x="151" y="-85.5" font-family="Helvetica,sans-Serif" font-size="10.00">src/utest/Utst_structured</text>
<text text-anchor="middle" x="205.5" y="-74.5" font-family="Helvetica,sans-Serif" font-size="10.00">_decomp_herron.C</text>
</a>
</g>
</g>
<!-- Node13&#45;&gt;Node14 -->
<g id="edge16" class="edge">
<title>Node13&#45;&gt;Node14</title>
<path fill="none" stroke="midnightblue" d="M156.65,-127.6C167.52,-117.78 180.2,-106.34 189.91,-97.58"/>
<polygon fill="midnightblue" stroke="midnightblue" points="154.2,-125.1 149.12,-134.4 158.89,-130.29 154.2,-125.1"/>
</g>
<!-- Node15 -->
<g id="node15" class="node">
<title>Node15</title>
<g id="a_node15"><a xlink:href="Utst__structured__decomp__rocket_8C.html" target="_top" xlink:title=" ">
<polygon fill="white" stroke="black" points="0,-67.5 0,-97.5 125,-97.5 125,-67.5 0,-67.5"/>
<text text-anchor="start" x="8" y="-85.5" font-family="Helvetica,sans-Serif" font-size="10.00">src/utest/Utst_structured</text>
<text text-anchor="middle" x="62.5" y="-74.5" font-family="Helvetica,sans-Serif" font-size="10.00">_decomp_rocket.C</text>
</a>
</g>
</g>
<!-- Node13&#45;&gt;Node15 -->
<g id="edge17" class="edge">
<title>Node13&#45;&gt;Node15</title>
<path fill="none" stroke="midnightblue" d="M110.67,-127.6C99.95,-117.78 87.45,-106.34 77.88,-97.58"/>
<polygon fill="midnightblue" stroke="midnightblue" points="108.35,-130.22 118.09,-134.4 113.08,-125.06 108.35,-130.22"/>
</g>
<!-- Node16&#45;&gt;Node3 -->
<g id="edge21" class="edge">
<title>Node16&#45;&gt;Node3</title>
<path fill="none" stroke="midnightblue" d="M1437.61,-204.95C1430.52,-203.59 1423.34,-202.24 1416.5,-201 1321.17,-183.68 1290.01,-204.4 1201.5,-165 1181.27,-156 1182.41,-143.69 1162.5,-134 1120.74,-113.68 1070.28,-101.24 1029.07,-93.79"/>
<polygon fill="midnightblue" stroke="midnightblue" points="1437.4,-208.48 1447.89,-206.94 1438.73,-201.6 1437.4,-208.48"/>
</g>
<!-- Node16&#45;&gt;Node6 -->
<g id="edge23" class="edge">
<title>Node16&#45;&gt;Node6</title>
<path fill="none" stroke="midnightblue" d="M1452.7,-203.23C1434.28,-195.27 1413.55,-182.96 1401.5,-165 1373.26,-122.91 1377.02,-58.78 1380.41,-30.61"/>
<polygon fill="midnightblue" stroke="midnightblue" points="1451.48,-206.51 1462.06,-207 1454.09,-200.01 1451.48,-206.51"/>
</g>
<!-- Node16&#45;&gt;Node9 -->
<g id="edge24" class="edge">
<title>Node16&#45;&gt;Node9</title>
<path fill="none" stroke="midnightblue" d="M1420.4,-206.11C1406.52,-204.34 1392.06,-202.56 1378.5,-201 1219.19,-182.7 1178,-189.3 1019.5,-165 1008.95,-163.38 997.59,-161.22 987.15,-159.05"/>
<polygon fill="midnightblue" stroke="midnightblue" points="1420.01,-209.59 1430.38,-207.39 1420.91,-202.65 1420.01,-209.59"/>
</g>
<!-- Node16&#45;&gt;Node10 -->
<g id="edge25" class="edge">
<title>Node16&#45;&gt;Node10</title>
<path fill="none" stroke="midnightblue" d="M1420.26,-207.85C1396.54,-205.44 1369.89,-202.9 1345.5,-201 1060.58,-178.78 988.78,-181.95 703.5,-165 647.14,-161.65 583.07,-157.61 536.72,-154.65"/>
<polygon fill="midnightblue" stroke="midnightblue" points="1419.93,-211.34 1430.23,-208.88 1420.65,-204.37 1419.93,-211.34"/>
</g>
<!-- Node16&#45;&gt;Node11 -->
<g id="edge26" class="edge">
<title>Node16&#45;&gt;Node11</title>
<path fill="none" stroke="midnightblue" d="M1487.58,-196.54C1485.68,-184.17 1483.29,-168.62 1481.83,-159.13"/>
<polygon fill="midnightblue" stroke="midnightblue" points="1484.17,-197.38 1489.15,-206.73 1491.09,-196.32 1484.17,-197.38"/>
</g>
<!-- Node16&#45;&gt;Node12 -->
<g id="edge27" class="edge">
<title>Node16&#45;&gt;Node12</title>
<path fill="none" stroke="midnightblue" d="M1438.68,-205.01C1431.25,-203.6 1423.69,-202.22 1416.5,-201 1306.71,-182.29 1278.36,-183.31 1168.5,-165 1163.8,-164.22 1158.95,-163.38 1154.08,-162.51"/>
<polygon fill="midnightblue" stroke="midnightblue" points="1438.21,-208.48 1448.69,-206.93 1439.53,-201.61 1438.21,-208.48"/>
</g>
<!-- Node17 -->
<g id="node17" class="node">
<title>Node17</title>
<g id="a_node17"><a xlink:href="Iocgns__DatabaseIO_8C.html" target="_top" xlink:title=" ">
<polygon fill="white" stroke="black" points="1607,-140 1607,-159 1762,-159 1762,-140 1607,-140"/>
<text text-anchor="middle" x="1684.5" y="-147" font-family="Helvetica,sans-Serif" font-size="10.00">src/cgns/Iocgns_DatabaseIO.C</text>
</a>
</g>
</g>
<!-- Node16&#45;&gt;Node17 -->
<g id="edge20" class="edge">
<title>Node16&#45;&gt;Node17</title>
<path fill="none" stroke="midnightblue" d="M1526.01,-203.6C1564.48,-190.71 1624.89,-170.47 1658.94,-159.06"/>
<polygon fill="midnightblue" stroke="midnightblue" points="1524.63,-200.37 1516.26,-206.87 1526.86,-207.01 1524.63,-200.37"/>
</g>
<!-- Node18 -->
<g id="node18" class="node">
<title>Node18</title>
<g id="a_node18"><a xlink:href="Iocgns__IOFactory_8C.html" target="_top" xlink:title=" ">
<polygon fill="white" stroke="black" points="1210.5,-140 1210.5,-159 1354.5,-159 1354.5,-140 1210.5,-140"/>
<text text-anchor="middle" x="1282.5" y="-147" font-family="Helvetica,sans-Serif" font-size="10.00">src/cgns/Iocgns_IOFactory.C</text>
</a>
</g>
</g>
<!-- Node16&#45;&gt;Node18 -->
<g id="edge22" class="edge">
<title>Node16&#45;&gt;Node18</title>
<path fill="none" stroke="midnightblue" d="M1453.21,-203.85C1412.01,-190.97 1346.65,-170.55 1309.9,-159.06"/>
<polygon fill="midnightblue" stroke="midnightblue" points="1452.29,-207.23 1462.88,-206.87 1454.38,-200.55 1452.29,-207.23"/>
</g>
<!-- Node20 -->
<g id="node20" class="node">
<title>Node20</title>
<g id="a_node20"><a xlink:href="Iofaodel__DatabaseIO_8C.html" target="_top" xlink:title=" ">
<polygon fill="white" stroke="black" points="1905,-134.5 1905,-164.5 2002,-164.5 2002,-134.5 1905,-134.5"/>
<text text-anchor="start" x="1913" y="-152.5" font-family="Helvetica,sans-Serif" font-size="10.00">src/faodel/Iofaodel</text>
<text text-anchor="middle" x="1953.5" y="-141.5" font-family="Helvetica,sans-Serif" font-size="10.00">_DatabaseIO.C</text>
</a>
</g>
</g>
<!-- Node19&#45;&gt;Node20 -->
<g id="edge29" class="edge">
<title>Node19&#45;&gt;Node20</title>
<path fill="none" stroke="midnightblue" d="M1868.44,-196.57C1887.32,-186.35 1910.23,-173.94 1927.51,-164.58"/>
<polygon fill="midnightblue" stroke="midnightblue" points="1866.66,-193.56 1859.54,-201.4 1870,-199.71 1866.66,-193.56"/>
</g>
<!-- Node21 -->
<g id="node21" class="node">
<title>Node21</title>
<g id="a_node21"><a xlink:href="Iofaodel__FieldSerialization_8C.html" target="_top" xlink:title=" ">
<polygon fill="white" stroke="black" points="1780,-134.5 1780,-164.5 1887,-164.5 1887,-134.5 1780,-134.5"/>
<text text-anchor="start" x="1788" y="-152.5" font-family="Helvetica,sans-Serif" font-size="10.00">src/faodel/Iofaodel</text>
<text text-anchor="middle" x="1833.5" y="-141.5" font-family="Helvetica,sans-Serif" font-size="10.00">_FieldSerialization.C</text>
</a>
</g>
</g>
<!-- Node19&#45;&gt;Node21 -->
<g id="edge30" class="edge">
<title>Node19&#45;&gt;Node21</title>
<path fill="none" stroke="midnightblue" d="M1833.5,-191.11C1833.5,-182.15 1833.5,-172.32 1833.5,-164.58"/>
<polygon fill="midnightblue" stroke="midnightblue" points="1830,-191.4 1833.5,-201.4 1837,-191.4 1830,-191.4"/>
</g>
<!-- Node28&#45;&gt;Node11 -->
<g id="edge44" class="edge">
<title>Node28&#45;&gt;Node11</title>
<path fill="none" stroke="midnightblue" d="M2086.15,-210.03C1981.03,-201.46 1773.39,-183.87 1597.5,-165 1580.81,-163.21 1562.81,-161.08 1546.05,-159.01"/>
<polygon fill="midnightblue" stroke="midnightblue" points="2086.05,-213.53 2096.3,-210.86 2086.62,-206.56 2086.05,-213.53"/>
</g>
<!-- Node28&#45;&gt;Node17 -->
<g id="edge39" class="edge">
<title>Node28&#45;&gt;Node17</title>
<path fill="none" stroke="midnightblue" d="M2086.15,-207.27C2009.27,-197.84 1880.76,-181.54 1770.5,-165 1758.37,-163.18 1745.31,-161.06 1733.12,-159.01"/>
<polygon fill="midnightblue" stroke="midnightblue" points="2085.83,-210.76 2096.18,-208.5 2086.68,-203.81 2085.83,-210.76"/>
</g>
<!-- Node28&#45;&gt;Node20 -->
<g id="edge40" class="edge">
<title>Node28&#45;&gt;Node20</title>
<path fill="none" stroke="midnightblue" d="M2118.24,-203.77C2084.16,-192.75 2033.11,-176.24 1996.88,-164.53"/>
<polygon fill="midnightblue" stroke="midnightblue" points="2117.22,-207.12 2127.81,-206.87 2119.37,-200.46 2117.22,-207.12"/>
</g>
<!-- Node29 -->
<g id="node29" class="node">
<title>Node29</title>
<g id="a_node29"><a xlink:href="Ut__ioad_8C.html" target="_top" xlink:title=" ">
<polygon fill="white" stroke="black" points="2456,-134.5 2456,-164.5 2551,-164.5 2551,-134.5 2456,-134.5"/>
<text text-anchor="start" x="2464" y="-152.5" font-family="Helvetica,sans-Serif" font-size="10.00">src/adios/utest/Ut</text>
<text text-anchor="middle" x="2503.5" y="-141.5" font-family="Helvetica,sans-Serif" font-size="10.00">_ioad.C</text>
</a>
</g>
</g>
<!-- Node28&#45;&gt;Node29 -->
<g id="edge38" class="edge">
<title>Node28&#45;&gt;Node29</title>
<path fill="none" stroke="midnightblue" d="M2221.55,-205.43C2280.92,-196.14 2369.8,-181.36 2446.5,-165 2449.6,-164.34 2452.78,-163.63 2455.98,-162.88"/>
<polygon fill="midnightblue" stroke="midnightblue" points="2220.89,-201.98 2211.55,-206.98 2221.97,-208.9 2220.89,-201.98"/>
</g>
<!-- Node30 -->
<g id="node30" class="node">
<title>Node30</title>
<g id="a_node30"><a xlink:href="Ioss__Utils_8C.html" target="_top" xlink:title=" ">
<polygon fill="white" stroke="black" points="2569.5,-140 2569.5,-159 2657.5,-159 2657.5,-140 2569.5,-140"/>
<text text-anchor="middle" x="2613.5" y="-147" font-family="Helvetica,sans-Serif" font-size="10.00">src/Ioss_Utils.C</text>
</a>
</g>
</g>
<!-- Node28&#45;&gt;Node30 -->
<g id="edge41" class="edge">
<title>Node28&#45;&gt;Node30</title>
<path fill="none" stroke="midnightblue" d="M2222.63,-209.9C2303.48,-202.6 2442.13,-187.96 2559.5,-165 2567.69,-163.4 2576.48,-161.23 2584.53,-159.07"/>
<polygon fill="midnightblue" stroke="midnightblue" points="2222.23,-206.43 2212.58,-210.8 2222.85,-213.4 2222.23,-206.43"/>
</g>
<!-- Node31 -->
<g id="node31" class="node">
<title>Node31</title>
<g id="a_node31"><a xlink:href="io__shell_8C.html" target="_top" xlink:title=" ">
<polygon fill="white" stroke="black" points="2676,-140 2676,-159 2777,-159 2777,-140 2676,-140"/>
<text text-anchor="middle" x="2726.5" y="-147" font-family="Helvetica,sans-Serif" font-size="10.00">src/main/io_shell.C</text>
</a>
</g>
</g>
<!-- Node28&#45;&gt;Node31 -->
<g id="edge42" class="edge">
<title>Node28&#45;&gt;Node31</title>
<path fill="none" stroke="midnightblue" d="M2222.95,-211.78C2321.52,-205.73 2508.93,-191.68 2666.5,-165 2675.8,-163.43 2685.79,-161.22 2694.91,-159"/>
<polygon fill="midnightblue" stroke="midnightblue" points="2222.59,-208.29 2212.82,-212.39 2223.01,-215.28 2222.59,-208.29"/>
</g>
<!-- Node32 -->
<g id="node32" class="node">
<title>Node32</title>
<g id="a_node32"><a xlink:href="io__shell__ts_8C.html" target="_top" xlink:title=" ">
<polygon fill="white" stroke="black" points="2020.5,-140 2020.5,-159 2134.5,-159 2134.5,-140 2020.5,-140"/>
<text text-anchor="middle" x="2077.5" y="-147" font-family="Helvetica,sans-Serif" font-size="10.00">src/main/io_shell_ts.C</text>
</a>
</g>
</g>
<!-- Node28&#45;&gt;Node32 -->
<g id="edge43" class="edge">
<title>Node28&#45;&gt;Node32</title>
<path fill="none" stroke="midnightblue" d="M2136.39,-200.21C2121.22,-187.41 2100.11,-169.59 2087.72,-159.13"/>
<polygon fill="midnightblue" stroke="midnightblue" points="2134.22,-202.96 2144.12,-206.73 2138.73,-197.61 2134.22,-202.96"/>
</g>
<!-- Node33 -->
<g id="node33" class="node">
<title>Node33</title>
<g id="a_node33"><a xlink:href="Iopg__DatabaseIO_8C.html" target="_top" xlink:title=" ">
<polygon fill="white" stroke="black" points="2152.5,-140 2152.5,-159 2310.5,-159 2310.5,-140 2152.5,-140"/>
<text text-anchor="middle" x="2231.5" y="-147" font-family="Helvetica,sans-Serif" font-size="10.00">src/pamgen/Iopg_DatabaseIO.C</text>
</a>
</g>
</g>
<!-- Node28&#45;&gt;Node33 -->
<g id="edge45" class="edge">
<title>Node28&#45;&gt;Node33</title>
<path fill="none" stroke="midnightblue" d="M2172.61,-200.21C2187.78,-187.41 2208.89,-169.59 2221.28,-159.13"/>
<polygon fill="midnightblue" stroke="midnightblue" points="2170.27,-197.61 2164.88,-206.73 2174.78,-202.96 2170.27,-197.61"/>
</g>
<!-- Node34 -->
<g id="node34" class="node">
<title>Node34</title>
<g id="a_node34"><a xlink:href="Iovs__DatabaseIO_8C.html" target="_top" xlink:title=" ">
<polygon fill="white" stroke="black" points="2329,-134.5 2329,-164.5 2438,-164.5 2438,-134.5 2329,-134.5"/>
<text text-anchor="start" x="2337" y="-152.5" font-family="Helvetica,sans-Serif" font-size="10.00">src/visualization/Iovs</text>
<text text-anchor="middle" x="2383.5" y="-141.5" font-family="Helvetica,sans-Serif" font-size="10.00">_DatabaseIO.C</text>
</a>
</g>
</g>
<!-- Node28&#45;&gt;Node34 -->
<g id="edge46" class="edge">
<title>Node28&#45;&gt;Node34</title>
<path fill="none" stroke="midnightblue" d="M2194.81,-204.06C2233.64,-193.04 2292.45,-176.34 2334.08,-164.53"/>
<polygon fill="midnightblue" stroke="midnightblue" points="2193.57,-200.77 2184.91,-206.87 2195.49,-207.5 2193.57,-200.77"/>
</g>
<!-- Node36 -->
<g id="node36" class="node">
<title>Node36</title>
<g id="a_node36"><a xlink:href="io__info_8C.html" target="_top" xlink:title=" ">
<polygon fill="white" stroke="black" points="2935.5,-140 2935.5,-159 3031.5,-159 3031.5,-140 2935.5,-140"/>
<text text-anchor="middle" x="2983.5" y="-147" font-family="Helvetica,sans-Serif" font-size="10.00">src/main/io_info.C</text>
</a>
</g>
</g>
<!-- Node35&#45;&gt;Node36 -->
<g id="edge48" class="edge">
<title>Node35&#45;&gt;Node36</title>
<path fill="none" stroke="midnightblue" d="M2882.34,-202.27C2907.5,-189.4 2944.99,-170.21 2966.57,-159.17"/>
<polygon fill="midnightblue" stroke="midnightblue" points="2880.67,-199.2 2873.36,-206.87 2883.86,-205.43 2880.67,-199.2"/>
</g>
<!-- Node37 -->
<g id="node37" class="node">
<title>Node37</title>
<g id="a_node37"><a xlink:href="io__info__main_8C.html" target="_top" xlink:title=" ">
<polygon fill="white" stroke="black" points="2795.5,-140 2795.5,-159 2917.5,-159 2917.5,-140 2795.5,-140"/>
<text text-anchor="middle" x="2856.5" y="-147" font-family="Helvetica,sans-Serif" font-size="10.00">src/main/io_info_main.C</text>
</a>
</g>
</g>
<!-- Node35&#45;&gt;Node37 -->
<g id="edge49" class="edge">
<title>Node35&#45;&gt;Node37</title>
<path fill="none" stroke="midnightblue" d="M2856.5,-196.54C2856.5,-184.17 2856.5,-168.62 2856.5,-159.13"/>
<polygon fill="midnightblue" stroke="midnightblue" points="2853,-196.73 2856.5,-206.73 2860,-196.73 2853,-196.73"/>
</g>
</g>
</svg>
        <g id="navigator" transform="translate(0 0)" fill="#404254">
                <rect fill="#f2f5e9" fill-opacity="0.5" stroke="#606060" stroke-width=".5" x="0" y="0" width="60" height="60"/>
                <use id="zoomplus" xlink:href="#zoomPlus" x="17" y="9" onmousedown="handleZoom(evt,'in')"/>
                <use id="zoomminus" xlink:href="#zoomMin" x="42" y="9" onmousedown="handleZoom(evt,'out')"/>
                <use id="reset" xlink:href="#resetDef" x="30" y="36" onmousedown="handleReset()"/>
                <g id="arrowUp" xlink:href="#dirArrow" transform="translate(30 24)" onmousedown="handlePan(0,-1)">
                  <use xlink:href="#rim" fill="#404040">
                        <set attributeName="fill" to="#808080" begin="arrowUp.mouseover" end="arrowUp.mouseout"/>
                  </use>
                  <path fill="none" stroke="white" stroke-width="1.5" d="M0,-3.0v7 M-2.5,-0.5L0,-3.0L2.5,-0.5"/>
                </g>
                <g id="arrowRight" xlink:href="#dirArrow" transform="rotate(90) translate(36 -43)" onmousedown="handlePan(1,0)">
                  <use xlink:href="#rim" fill="#404040">
                        <set attributeName="fill" to="#808080" begin="arrowRight.mouseover" end="arrowRight.mouseout"/>
                  </use>
                  <path fill="none" stroke="white" stroke-width="1.5" d="M0,-3.0v7 M-2.5,-0.5L0,-3.0L2.5,-0.5"/>
                </g>
                <g id="arrowDown" xlink:href="#dirArrow" transform="rotate(180) translate(-30 -48)" onmousedown="handlePan(0,1)">
                  <use xlink:href="#rim" fill="#404040">
                        <set attributeName="fill" to="#808080" begin="arrowDown.mouseover" end="arrowDown.mouseout"/>
                  </use>
                  <path fill="none" stroke="white" stroke-width="1.5" d="M0,-3.0v7 M-2.5,-0.5L0,-3.0L2.5,-0.5"/>
                </g>
                <g id="arrowLeft" xlink:href="#dirArrow" transform="rotate(270) translate(-36 17)" onmousedown="handlePan(-1,0)">
                  <use xlink:href="#rim" fill="#404040">
                        <set attributeName="fill" to="#808080" begin="arrowLeft.mouseover" end="arrowLeft.mouseout"/>
                  </use>
                  <path fill="none" stroke="white" stroke-width="1.5" d="M0,-3.0v7 M-2.5,-0.5L0,-3.0L2.5,-0.5"/>
                </g>
        </g>
        <svg viewBox="0 0 15 15" width="100%" height="30px" preserveAspectRatio="xMaxYMin meet">
         <g id="arrow_out" transform="scale(0.3 0.3)">
          <a xlink:href="Ioss__ZoneConnectivity_8h__dep__incl_org.svg" target="_base">
           <rect id="button" ry="5" rx="5" y="6" x="6" height="38" width="38"
                fill="#f2f5e9" fill-opacity="0.5" stroke="#606060" stroke-width="1.0"/>
           <path id="arrow"
             d="M 11.500037,31.436501 C 11.940474,20.09759 22.043105,11.32322 32.158766,21.979434 L 37.068811,17.246167 C 37.068811,17.246167 37.088388,32 37.088388,32 L 22.160133,31.978069 C 22.160133,31.978069 26.997745,27.140456 26.997745,27.140456 C 18.528582,18.264221 13.291696,25.230495 11.500037,31.436501 z"
             style="fill:#404040;"/>
          </a>
         </g>
        </svg>
</svg>
