<?xml version="1.0" encoding="UTF-8" standalone="no"?>
<!DOCTYPE svg PUBLIC "-//W3C//DTD SVG 1.1//EN"
 "http://www.w3.org/Graphics/SVG/1.1/DTD/svg11.dtd">
<!-- Generated by graphviz version 8.1.0 (20230707.0739)
 -->
<!-- Title: src/elements/Ioss_Hex8.h Pages: 1 -->
<!--zoomable 293 -->

<svg id="main" version="1.1" xmlns="http://www.w3.org/2000/svg" xmlns:xlink="http://www.w3.org/1999/xlink" xml:space="preserve" onload="init(evt)">
<style type="text/css"><![CDATA[
.node, .edge {opacity: 0.7;}
.node.selected, .edge.selected {opacity: 1;}
.edge:hover path { stroke: red; }
.edge:hover polygon { stroke: red; fill: red; }
]]></style>

<defs>
  <circle id="rim" cx="0" cy="0" r="7"/>
  <circle id="rim2" cx="0" cy="0" r="3.5"/>
  <g id="zoomPlus">
    <use xlink:href="#rim" fill="#404040"><set attributeName="fill" to="#808080" begin="zoomplus.mouseover" end="zoomplus.mouseout"/></use>
    <path d="M-4,0h8M0,-4v8" fill="none" stroke="white" stroke-width="1.5" pointer-events="none"/>
  </g>
  <g id="zoomMin">
    <use xlink:href="#rim" fill="#404040"><set attributeName="fill" to="#808080" begin="zoomminus.mouseover" end="zoomminus.mouseout"/></use>
    <path d="M-4,0h8" fill="none" stroke="white" stroke-width="1.5" pointer-events="none"/>
  </g>
  <g id="arrowUp" transform="translate(30 24)">
    <use xlink:href="#rim"/>
    <path pointer-events="none" fill="none" stroke="white" stroke-width="1.5" d="M0,-3.0v7 M-2.5,-0.5L0,-3.0L2.5,-0.5"/>
  </g>
  <g id="arrowRight" transform="rotate(90) translate(36 -43)">
    <use xlink:href="#rim"/>
    <path pointer-events="none" fill="none" stroke="white" stroke-width="1.5" d="M0,-3.0v7 M-2.5,-0.5L0,-3.0L2.5,-0.5"/>
  </g>
  <g id="arrowDown" transform="rotate(180) translate(-30 -48)">
    <use xlink:href="#rim"/>
    <path pointer-events="none" fill="none" stroke="white" stroke-width="1.5" d="M0,-3.0v7 M-2.5,-0.5L0,-3.0L2.5,-0.5"/>
  </g>
  <g id="arrowLeft" transform="rotate(270) translate(-36 17)">
    <use xlink:href="#rim"/>
    <path pointer-events="none" fill="none" stroke="white" stroke-width="1.5" d="M0,-3.0v7 M-2.5,-0.5L0,-3.0L2.5,-0.5"/>
  </g>
  <g id="resetDef">
    <use xlink:href="#rim2" fill="#404040"><set attributeName="fill" to="#808080" begin="reset.mouseover" end="reset.mouseout"/></use>
  </g>
</defs>
<script type="application/ecmascript">
var viewWidth = 2205;
var viewHeight = 293;
var sectionId = 'dynsection-1';
</script>
<script type="application/ecmascript" xlink:href="svg.min.js"/>
<svg id="graph" class="graph">
<g id="viewport">
<title>src/elements/Ioss_Hex8.h</title>
<!-- Node1 -->
<g id="Node000001" class="node">
<title>Node1</title>
<g id="a_Node000001"><a xlink:title=" ">
<polygon fill="#999999" stroke="#666666" points="1266.62,-285.25 1135.88,-285.25 1135.88,-266 1266.62,-266 1266.62,-285.25"/>
<text text-anchor="middle" x="1201.25" y="-271.75" font-family="Helvetica,sans-Serif" font-size="10.00">src/elements/Ioss_Hex8.h</text>
</a>
</g>
</g>
<!-- Node2 -->
<g id="Node000002" class="node">
<title>Node2</title>
<g id="a_Node000002"><a xlink:href="Ioss__StandardElementTypes_8h.html" target="_top" xlink:title=" ">
<polygon fill="white" stroke="#666666" points="329,-230 197.5,-230 197.5,-199.5 329,-199.5 329,-230"/>
<text text-anchor="start" x="205.5" y="-216.5" font-family="Helvetica,sans-Serif" font-size="10.00">src/Ioss_StandardElement</text>
<text text-anchor="middle" x="263.25" y="-205.25" font-family="Helvetica,sans-Serif" font-size="10.00">Types.h</text>
</a>
</g>
</g>
<!-- Node1&#45;&gt;Node2 -->
<g id="edge1_Node000001_Node000002" class="edge">
<title>Node1&#45;&gt;Node2</title>
<g id="a_edge1_Node000001_Node000002"><a xlink:title=" ">
<path fill="none" stroke="#63b8ff" d="M1124.84,-272.61C977.98,-268.28 646.24,-256.27 368.25,-230 355.61,-228.81 342.16,-227.22 329.25,-225.54"/>
<polygon fill="#63b8ff" stroke="#63b8ff" points="1124.41,-276.13 1134.51,-272.92 1124.62,-269.13 1124.41,-276.13"/>
</a>
</g>
</g>
<!-- Node5 -->
<g id="Node000005" class="node">
<title>Node5</title>
<g id="a_Node000005"><a xlink:href="Iotm__DatabaseIO_8C.html" target="_top" xlink:title=" ">
<polygon fill="white" stroke="#666666" points="432.62,-30.5 331.88,-30.5 331.88,0 432.62,0 432.62,-30.5"/>
<text text-anchor="start" x="339.88" y="-17" font-family="Helvetica,sans-Serif" font-size="10.00">src/text_mesh/Iotm</text>
<text text-anchor="middle" x="382.25" y="-5.75" font-family="Helvetica,sans-Serif" font-size="10.00">_DatabaseIO.C</text>
</a>
</g>
</g>
<!-- Node1&#45;&gt;Node5 -->
<g id="edge24_Node000001_Node000005" class="edge">
<title>Node1&#45;&gt;Node5</title>
<g id="a_edge24_Node000001_Node000005"><a xlink:title=" ">
<path fill="none" stroke="#63b8ff" d="M1124.86,-273.04C929.83,-268.64 427,-254.92 401.25,-230 345.83,-176.37 367.61,-69.72 377.98,-30.85"/>
<polygon fill="#63b8ff" stroke="#63b8ff" points="1124.51,-276.56 1134.58,-273.28 1124.66,-269.56 1124.51,-276.56"/>
</a>
</g>
</g>
<!-- Node10 -->
<g id="Node000010" class="node">
<title>Node10</title>
<g id="a_Node000010"><a xlink:href="Ioss__StructuredBlock_8C.html" target="_top" xlink:title=" ">
<polygon fill="white" stroke="#666666" points="546.62,-224.38 409.88,-224.38 409.88,-205.12 546.62,-205.12 546.62,-224.38"/>
<text text-anchor="middle" x="478.25" y="-210.88" font-family="Helvetica,sans-Serif" font-size="10.00">src/Ioss_StructuredBlock.C</text>
</a>
</g>
</g>
<!-- Node1&#45;&gt;Node10 -->
<g id="edge11_Node000001_Node000010" class="edge">
<title>Node1&#45;&gt;Node10</title>
<g id="a_edge11_Node000001_Node000010"><a xlink:title=" ">
<path fill="none" stroke="#63b8ff" d="M1124.81,-272.17C1003.63,-267.64 760.14,-255.95 555.25,-230 544.6,-228.65 533.18,-226.78 522.5,-224.83"/>
<polygon fill="#63b8ff" stroke="#63b8ff" points="1124.32,-275.69 1134.44,-272.56 1124.58,-268.69 1124.32,-275.69"/>
</a>
</g>
</g>
<!-- Node11 -->
<g id="Node000011" class="node">
<title>Node11</title>
<g id="a_Node000011"><a xlink:href="Iocgns__DatabaseIO_8C.html" target="_top" xlink:title=" ">
<polygon fill="white" stroke="#666666" points="718.25,-224.38 564.25,-224.38 564.25,-205.12 718.25,-205.12 718.25,-224.38"/>
<text text-anchor="middle" x="641.25" y="-210.88" font-family="Helvetica,sans-Serif" font-size="10.00">src/cgns/Iocgns_DatabaseIO.C</text>
</a>
</g>
</g>
<!-- Node1&#45;&gt;Node11 -->
<g id="edge12_Node000001_Node000011" class="edge">
<title>Node1&#45;&gt;Node11</title>
<g id="a_edge12_Node000001_Node000011"><a xlink:title=" ">
<path fill="none" stroke="#63b8ff" d="M1124.72,-269.09C1030.86,-261.91 867.01,-248.13 727.25,-230 715.99,-228.54 703.95,-226.71 692.55,-224.86"/>
<polygon fill="#63b8ff" stroke="#63b8ff" points="1124.29,-272.64 1134.53,-269.91 1124.82,-265.66 1124.29,-272.64"/>
</a>
</g>
</g>
<!-- Node12 -->
<g id="Node000012" class="node">
<title>Node12</title>
<g id="a_Node000012"><a xlink:href="Iocgns__Utils_8C.html" target="_top" xlink:title=" ">
<polygon fill="white" stroke="#666666" points="858.12,-224.38 736.38,-224.38 736.38,-205.12 858.12,-205.12 858.12,-224.38"/>
<text text-anchor="middle" x="797.25" y="-210.88" font-family="Helvetica,sans-Serif" font-size="10.00">src/cgns/Iocgns_Utils.C</text>
</a>
</g>
</g>
<!-- Node1&#45;&gt;Node12 -->
<g id="edge13_Node000001_Node000012" class="edge">
<title>Node1&#45;&gt;Node12</title>
<g id="a_edge13_Node000001_Node000012"><a xlink:title=" ">
<path fill="none" stroke="#63b8ff" d="M1124.87,-265.92C1057.03,-257.83 955.28,-244.82 867.25,-230 858.2,-228.48 848.53,-226.64 839.36,-224.81"/>
<polygon fill="#63b8ff" stroke="#63b8ff" points="1124.12,-269.47 1134.46,-267.17 1124.94,-262.52 1124.12,-269.47"/>
</a>
</g>
</g>
<!-- Node13 -->
<g id="Node000013" class="node">
<title>Node13</title>
<g id="a_Node000013"><a xlink:href="Ioss__Hex8_8C.html" target="_top" xlink:title=" ">
<polygon fill="white" stroke="#666666" points="1008.75,-224.38 875.75,-224.38 875.75,-205.12 1008.75,-205.12 1008.75,-224.38"/>
<text text-anchor="middle" x="942.25" y="-210.88" font-family="Helvetica,sans-Serif" font-size="10.00">src/elements/Ioss_Hex8.C</text>
</a>
</g>
</g>
<!-- Node1&#45;&gt;Node13 -->
<g id="edge14_Node000001_Node000013" class="edge">
<title>Node1&#45;&gt;Node13</title>
<g id="a_edge14_Node000001_Node000013"><a xlink:title=" ">
<path fill="none" stroke="#63b8ff" d="M1150.92,-263.19C1101.65,-251.98 1027.56,-235.14 982.2,-224.83"/>
<polygon fill="#63b8ff" stroke="#63b8ff" points="1149.82,-266.75 1160.35,-265.55 1151.37,-259.93 1149.82,-266.75"/>
</a>
</g>
</g>
<!-- Node14 -->
<g id="Node000014" class="node">
<title>Node14</title>
<g id="a_Node000014"><a xlink:href="Iogs__GeneratedMesh_8C.html" target="_top" xlink:title=" ">
<polygon fill="white" stroke="#666666" points="1127.62,-230 1026.88,-230 1026.88,-199.5 1127.62,-199.5 1127.62,-230"/>
<text text-anchor="start" x="1034.88" y="-216.5" font-family="Helvetica,sans-Serif" font-size="10.00">src/gen_struc/Iogs</text>
<text text-anchor="middle" x="1077.25" y="-205.25" font-family="Helvetica,sans-Serif" font-size="10.00">_GeneratedMesh.C</text>
</a>
</g>
</g>
<!-- Node1&#45;&gt;Node14 -->
<g id="edge15_Node000001_Node000014" class="edge">
<title>Node1&#45;&gt;Node14</title>
<g id="a_edge15_Node000001_Node000014"><a xlink:title=" ">
<path fill="none" stroke="#63b8ff" d="M1172.42,-260.94C1153.17,-251.8 1127.87,-239.79 1108.2,-230.44"/>
<polygon fill="#63b8ff" stroke="#63b8ff" points="1170.61,-264.43 1181.15,-265.55 1173.61,-258.1 1170.61,-264.43"/>
</a>
</g>
</g>
<!-- Node15 -->
<g id="Node000015" class="node">
<title>Node15</title>
<g id="a_Node000015"><a xlink:href="Iogn__DashSurfaceMesh_8h.html" target="_top" xlink:title=" ">
<polygon fill="white" stroke="#666666" points="1256.5,-230 1146,-230 1146,-199.5 1256.5,-199.5 1256.5,-230"/>
<text text-anchor="start" x="1154" y="-216.5" font-family="Helvetica,sans-Serif" font-size="10.00">src/generated/Iogn</text>
<text text-anchor="middle" x="1201.25" y="-205.25" font-family="Helvetica,sans-Serif" font-size="10.00">_DashSurfaceMesh.h</text>
</a>
</g>
</g>
<!-- Node1&#45;&gt;Node15 -->
<g id="edge16_Node000001_Node000015" class="edge">
<title>Node1&#45;&gt;Node15</title>
<g id="a_edge16_Node000001_Node000015"><a xlink:title=" ">
<path fill="none" stroke="#63b8ff" d="M1201.25,-254.7C1201.25,-246.7 1201.25,-237.65 1201.25,-230.28"/>
<polygon fill="#63b8ff" stroke="#63b8ff" points="1197.75,-254.68 1201.25,-264.68 1204.75,-254.68 1197.75,-254.68"/>
</a>
</g>
</g>
<!-- Node17 -->
<g id="Node000017" class="node">
<title>Node17</title>
<g id="a_Node000017"><a xlink:href="Iogn__DatabaseIO_8C.html" target="_top" xlink:title=" ">
<polygon fill="white" stroke="#666666" points="1371.75,-230 1274.75,-230 1274.75,-199.5 1371.75,-199.5 1371.75,-230"/>
<text text-anchor="start" x="1282.75" y="-216.5" font-family="Helvetica,sans-Serif" font-size="10.00">src/generated/Iogn</text>
<text text-anchor="middle" x="1323.25" y="-205.25" font-family="Helvetica,sans-Serif" font-size="10.00">_DatabaseIO.C</text>
</a>
</g>
</g>
<!-- Node1&#45;&gt;Node17 -->
<g id="edge18_Node000001_Node000017" class="edge">
<title>Node1&#45;&gt;Node17</title>
<g id="a_edge18_Node000001_Node000017"><a xlink:title=" ">
<path fill="none" stroke="#63b8ff" d="M1229.88,-260.81C1248.78,-251.69 1273.53,-239.74 1292.8,-230.44"/>
<polygon fill="#63b8ff" stroke="#63b8ff" points="1228.53,-258.06 1221.05,-265.55 1231.57,-264.36 1228.53,-258.06"/>
</a>
</g>
</g>
<!-- Node18 -->
<g id="Node000018" class="node">
<title>Node18</title>
<g id="a_Node000018"><a xlink:href="Iogn__GeneratedMesh_8C.html" target="_top" xlink:title=" ">
<polygon fill="white" stroke="#666666" points="1490.62,-230 1389.88,-230 1389.88,-199.5 1490.62,-199.5 1490.62,-230"/>
<text text-anchor="start" x="1397.88" y="-216.5" font-family="Helvetica,sans-Serif" font-size="10.00">src/generated/Iogn</text>
<text text-anchor="middle" x="1440.25" y="-205.25" font-family="Helvetica,sans-Serif" font-size="10.00">_GeneratedMesh.C</text>
</a>
</g>
</g>
<!-- Node1&#45;&gt;Node18 -->
<g id="edge19_Node000001_Node000018" class="edge">
<title>Node1&#45;&gt;Node18</title>
<g id="a_edge19_Node000001_Node000018"><a xlink:title=" ">
<path fill="none" stroke="#63b8ff" d="M1248.54,-262.98C1289.28,-252.94 1347.94,-238.49 1389.63,-228.22"/>
<polygon fill="#63b8ff" stroke="#63b8ff" points="1247.94,-259.76 1239.07,-265.55 1249.62,-266.56 1247.94,-259.76"/>
</a>
</g>
</g>
<!-- Node19 -->
<g id="Node000019" class="node">
<title>Node19</title>
<g id="a_Node000019"><a xlink:href="io__info_8C.html" target="_top" xlink:title=" ">
<polygon fill="white" stroke="#666666" points="1604,-224.38 1508.5,-224.38 1508.5,-205.12 1604,-205.12 1604,-224.38"/>
<text text-anchor="middle" x="1556.25" y="-210.88" font-family="Helvetica,sans-Serif" font-size="10.00">src/main/io_info.C</text>
</a>
</g>
</g>
<!-- Node1&#45;&gt;Node19 -->
<g id="edge20_Node000001_Node000019" class="edge">
<title>Node1&#45;&gt;Node19</title>
<g id="a_edge20_Node000001_Node000019"><a xlink:title=" ">
<path fill="none" stroke="#63b8ff" d="M1277.56,-265.26C1337.97,-257.35 1424.36,-244.93 1499.25,-230 1506.75,-228.5 1514.75,-226.66 1522.31,-224.8"/>
<polygon fill="#63b8ff" stroke="#63b8ff" points="1277.43,-261.87 1267.97,-266.63 1278.33,-268.82 1277.43,-261.87"/>
</a>
</g>
</g>
<!-- Node20 -->
<g id="Node000020" class="node">
<title>Node20</title>
<g id="a_Node000020"><a xlink:href="shell__to__hex_8C.html" target="_top" xlink:title=" ">
<polygon fill="white" stroke="#666666" points="1744.12,-224.38 1622.38,-224.38 1622.38,-205.12 1744.12,-205.12 1744.12,-224.38"/>
<text text-anchor="middle" x="1683.25" y="-210.88" font-family="Helvetica,sans-Serif" font-size="10.00">src/main/shell_to_hex.C</text>
</a>
</g>
</g>
<!-- Node1&#45;&gt;Node20 -->
<g id="edge21_Node000001_Node000020" class="edge">
<title>Node1&#45;&gt;Node20</title>
<g id="a_edge21_Node000001_Node000020"><a xlink:title=" ">
<path fill="none" stroke="#63b8ff" d="M1277.63,-268.49C1360.55,-261.34 1496.74,-248.13 1613.25,-230 1622.56,-228.55 1632.52,-226.71 1641.91,-224.83"/>
<polygon fill="#63b8ff" stroke="#63b8ff" points="1277.45,-265.08 1267.79,-269.42 1278.05,-272.05 1277.45,-265.08"/>
</a>
</g>
</g>
<!-- Node21 -->
<g id="Node000021" class="node">
<title>Node21</title>
<g id="a_Node000021"><a xlink:href="sphgen_8C.html" target="_top" xlink:title=" ">
<polygon fill="white" stroke="#666666" points="1860.5,-224.38 1762,-224.38 1762,-205.12 1860.5,-205.12 1860.5,-224.38"/>
<text text-anchor="middle" x="1811.25" y="-210.88" font-family="Helvetica,sans-Serif" font-size="10.00">src/main/sphgen.C</text>
</a>
</g>
</g>
<!-- Node1&#45;&gt;Node21 -->
<g id="edge22_Node000001_Node000021" class="edge">
<title>Node1&#45;&gt;Node21</title>
<g id="a_edge22_Node000001_Node000021"><a xlink:title=" ">
<path fill="none" stroke="#63b8ff" d="M1277.78,-272.31C1384.77,-268.2 1584.88,-257.31 1753.25,-230 1761.44,-228.67 1770.17,-226.78 1778.31,-224.81"/>
<polygon fill="#63b8ff" stroke="#63b8ff" points="1277.95,-268.84 1268.09,-272.71 1278.21,-275.83 1277.95,-268.84"/>
</a>
</g>
</g>
<!-- Node22 -->
<g id="Node000022" class="node">
<title>Node22</title>
<g id="a_Node000022"><a xlink:href="struc__to__unstruc_8C.html" target="_top" xlink:title=" ">
<polygon fill="white" stroke="#666666" points="2018.12,-224.38 1878.38,-224.38 1878.38,-205.12 2018.12,-205.12 2018.12,-224.38"/>
<text text-anchor="middle" x="1948.25" y="-210.88" font-family="Helvetica,sans-Serif" font-size="10.00">src/main/struc_to_unstruc.C</text>
</a>
</g>
</g>
<!-- Node1&#45;&gt;Node22 -->
<g id="edge23_Node000001_Node000022" class="edge">
<title>Node1&#45;&gt;Node22</title>
<g id="a_edge23_Node000001_Node000022"><a xlink:title=" ">
<path fill="none" stroke="#63b8ff" d="M1277.81,-272.29C1402.24,-267.88 1655.93,-256.28 1869.25,-230 1880.18,-228.65 1891.88,-226.78 1902.85,-224.84"/>
<polygon fill="#63b8ff" stroke="#63b8ff" points="1277.78,-268.83 1267.9,-272.67 1278.02,-275.82 1277.78,-268.83"/>
</a>
</g>
</g>
<!-- Node23 -->
<g id="Node000023" class="node">
<title>Node23</title>
<g id="a_Node000023"><a xlink:href="Utst__IofxDatabaseIO_8C.html" target="_top" xlink:title=" ">
<polygon fill="white" stroke="#666666" points="2196.62,-224.38 2035.88,-224.38 2035.88,-205.12 2196.62,-205.12 2196.62,-224.38"/>
<text text-anchor="middle" x="2116.25" y="-210.88" font-family="Helvetica,sans-Serif" font-size="10.00">src/utest/Utst_IofxDatabaseIO.C</text>
</a>
</g>
</g>
<!-- Node1&#45;&gt;Node23 -->
<g id="edge25_Node000001_Node000023" class="edge">
<title>Node1&#45;&gt;Node23</title>
<g id="a_edge25_Node000001_Node000023"><a xlink:title=" ">
<path fill="none" stroke="#63b8ff" d="M1277.63,-273.17C1423.64,-269.8 1752.28,-259.36 2027.25,-230 2039.7,-228.67 2053.06,-226.78 2065.54,-224.81"/>
<polygon fill="#63b8ff" stroke="#63b8ff" points="1277.94,-269.69 1268.02,-273.41 1278.1,-276.68 1277.94,-269.69"/>
</a>
</g>
</g>
<!-- Node3 -->
<g id="Node000003" class="node">
<title>Node3</title>
<g id="a_Node000003"><a xlink:href="Ioss__Initializer_8C.html" target="_top" xlink:title=" ">
<polygon fill="white" stroke="#666666" points="315.88,-157.88 210.62,-157.88 210.62,-138.62 315.88,-138.62 315.88,-157.88"/>
<text text-anchor="middle" x="263.25" y="-144.38" font-family="Helvetica,sans-Serif" font-size="10.00">src/Ioss_Initializer.C</text>
</a>
</g>
</g>
<!-- Node2&#45;&gt;Node3 -->
<g id="edge2_Node000002_Node000003" class="edge">
<title>Node2&#45;&gt;Node3</title>
<g id="a_edge2_Node000002_Node000003"><a xlink:title=" ">
<path fill="none" stroke="#63b8ff" d="M263.25,-188.18C263.25,-177.51 263.25,-165.83 263.25,-158.07"/>
<polygon fill="#63b8ff" stroke="#63b8ff" points="259.75,-188.11 263.25,-198.11 266.75,-188.11 259.75,-188.11"/>
</a>
</g>
</g>
<!-- Node4 -->
<g id="Node000004" class="node">
<title>Node4</title>
<g id="a_Node000004"><a xlink:href="Iotm__TextMesh_8h.html" target="_top" xlink:title=" ">
<polygon fill="white" stroke="#666666" points="334.62,-97 233.88,-97 233.88,-66.5 334.62,-66.5 334.62,-97"/>
<text text-anchor="start" x="241.88" y="-83.5" font-family="Helvetica,sans-Serif" font-size="10.00">src/text_mesh/Iotm</text>
<text text-anchor="middle" x="284.25" y="-72.25" font-family="Helvetica,sans-Serif" font-size="10.00">_TextMesh.h</text>
</a>
</g>
</g>
<!-- Node2&#45;&gt;Node4 -->
<g id="edge3_Node000002_Node000004" class="edge">
<title>Node2&#45;&gt;Node4</title>
<g id="a_edge3_Node000002_Node000004"><a xlink:title=" ">
<path fill="none" stroke="#63b8ff" d="M299.71,-192.87C309.88,-185.07 319.67,-175.2 325.25,-163.5 336.41,-140.08 316.15,-113.31 300.34,-97.23"/>
<polygon fill="#63b8ff" stroke="#63b8ff" points="297.92,-190.56 291.77,-199.19 301.96,-196.28 297.92,-190.56"/>
</a>
</g>
</g>
<!-- Node7 -->
<g id="Node000007" class="node">
<title>Node7</title>
<g id="a_Node000007"><a xlink:href="Iotm__TextMeshTopologyMapping_8h.html" target="_top" xlink:title=" ">
<polygon fill="white" stroke="#666666" points="192.25,-163.5 44.25,-163.5 44.25,-133 192.25,-133 192.25,-163.5"/>
<text text-anchor="start" x="52.25" y="-150" font-family="Helvetica,sans-Serif" font-size="10.00">src/text_mesh/Iotm</text>
<text text-anchor="middle" x="118.25" y="-138.75" font-family="Helvetica,sans-Serif" font-size="10.00">_TextMeshTopologyMapping.h</text>
</a>
</g>
</g>
<!-- Node2&#45;&gt;Node7 -->
<g id="edge6_Node000002_Node000007" class="edge">
<title>Node2&#45;&gt;Node7</title>
<g id="a_edge6_Node000002_Node000007"><a xlink:title=" ">
<path fill="none" stroke="#63b8ff" d="M220.53,-194.75C198.41,-184.91 171.8,-173.07 151.27,-163.94"/>
<polygon fill="#63b8ff" stroke="#63b8ff" points="218.79,-198.25 229.35,-199.11 221.63,-191.85 218.79,-198.25"/>
</a>
</g>
</g>
<!-- Node8 -->
<g id="Node000008" class="node">
<title>Node8</title>
<g id="a_Node000008"><a xlink:href="UnitTestIotmTextMeshFixture_8h.html" target="_top" xlink:title=" ">
<polygon fill="white" stroke="#666666" points="134.5,-97 0,-97 0,-66.5 134.5,-66.5 134.5,-97"/>
<text text-anchor="start" x="8" y="-83.5" font-family="Helvetica,sans-Serif" font-size="10.00">src/unit_tests/UnitTestIotm</text>
<text text-anchor="middle" x="67.25" y="-72.25" font-family="Helvetica,sans-Serif" font-size="10.00">TextMeshFixture.h</text>
</a>
</g>
</g>
<!-- Node2&#45;&gt;Node8 -->
<g id="edge10_Node000002_Node000008" class="edge">
<title>Node2&#45;&gt;Node8</title>
<g id="a_edge10_Node000002_Node000008"><a xlink:title=" ">
<path fill="none" stroke="#63b8ff" d="M186.38,-207.02C127.81,-200.11 54.1,-186.96 35.25,-163.5 19.19,-143.52 38.57,-114.46 53.41,-97.2"/>
<polygon fill="#63b8ff" stroke="#63b8ff" points="185.8,-210.59 196.13,-208.24 186.59,-203.63 185.8,-210.59"/>
</a>
</g>
</g>
<!-- Node4&#45;&gt;Node5 -->
<g id="edge4_Node000004_Node000005" class="edge">
<title>Node4&#45;&gt;Node5</title>
<g id="a_edge4_Node000004_Node000005"><a xlink:title=" ">
<path fill="none" stroke="#63b8ff" d="M315.6,-60.11C330.09,-50.58 346.96,-39.48 360.1,-30.83"/>
<polygon fill="#63b8ff" stroke="#63b8ff" points="313.92,-57.69 307.49,-66.11 317.77,-63.54 313.92,-57.69"/>
</a>
</g>
</g>
<!-- Node6 -->
<g id="Node000006" class="node">
<title>Node6</title>
<g id="a_Node000006"><a xlink:href="Iotm__TextMesh_8C.html" target="_top" xlink:title=" ">
<polygon fill="white" stroke="#666666" points="313.62,-30.5 212.88,-30.5 212.88,0 313.62,0 313.62,-30.5"/>
<text text-anchor="start" x="220.88" y="-17" font-family="Helvetica,sans-Serif" font-size="10.00">src/text_mesh/Iotm</text>
<text text-anchor="middle" x="263.25" y="-5.75" font-family="Helvetica,sans-Serif" font-size="10.00">_TextMesh.C</text>
</a>
</g>
</g>
<!-- Node4&#45;&gt;Node6 -->
<g id="edge5_Node000004_Node000006" class="edge">
<title>Node4&#45;&gt;Node6</title>
<g id="a_edge5_Node000004_Node000006"><a xlink:title=" ">
<path fill="none" stroke="#63b8ff" d="M276.08,-55.66C273.34,-47.25 270.38,-38.16 268,-30.83"/>
<polygon fill="#63b8ff" stroke="#63b8ff" points="273.06,-56.69 279.48,-65.11 279.72,-54.52 273.06,-56.69"/>
</a>
</g>
</g>
<!-- Node7&#45;&gt;Node4 -->
<g id="edge7_Node000007_Node000004" class="edge">
<title>Node7&#45;&gt;Node4</title>
<g id="a_edge7_Node000007_Node000004"><a xlink:title=" ">
<path fill="none" stroke="#63b8ff" d="M166.13,-128.65C191.66,-118.73 222.62,-106.7 246.44,-97.44"/>
<polygon fill="#63b8ff" stroke="#63b8ff" points="164.97,-125.73 156.92,-132.61 167.51,-132.25 164.97,-125.73"/>
</a>
</g>
</g>
<!-- Node7&#45;&gt;Node8 -->
<g id="edge8_Node000007_Node000008" class="edge">
<title>Node7&#45;&gt;Node8</title>
<g id="a_edge8_Node000007_Node000008"><a xlink:title=" ">
<path fill="none" stroke="#63b8ff" d="M99.97,-124.13C92.9,-115.19 85.03,-105.24 78.78,-97.33"/>
<polygon fill="#63b8ff" stroke="#63b8ff" points="97.73,-125.94 106.68,-131.61 103.22,-121.6 97.73,-125.94"/>
</a>
</g>
</g>
<!-- Node9 -->
<g id="Node000009" class="node">
<title>Node9</title>
<g id="a_Node000009"><a xlink:href="UnitTestTextMesh_8C.html" target="_top" xlink:title=" ">
<polygon fill="white" stroke="#666666" points="134.12,-30.5 0.38,-30.5 0.38,0 134.12,0 134.12,-30.5"/>
<text text-anchor="start" x="8.38" y="-17" font-family="Helvetica,sans-Serif" font-size="10.00">src/unit_tests/UnitTestText</text>
<text text-anchor="middle" x="67.25" y="-5.75" font-family="Helvetica,sans-Serif" font-size="10.00">Mesh.C</text>
</a>
</g>
</g>
<!-- Node8&#45;&gt;Node9 -->
<g id="edge9_Node000008_Node000009" class="edge">
<title>Node8&#45;&gt;Node9</title>
<g id="a_edge9_Node000008_Node000009"><a xlink:title=" ">
<path fill="none" stroke="#63b8ff" d="M67.25,-55.38C67.25,-47.05 67.25,-38.08 67.25,-30.83"/>
<polygon fill="#63b8ff" stroke="#63b8ff" points="63.75,-55.11 67.25,-65.11 70.75,-55.11 63.75,-55.11"/>
</a>
</g>
</g>
<!-- Node16 -->
<g id="Node000016" class="node">
<title>Node16</title>
<g id="a_Node000016"><a xlink:href="Iogn__DashSurfaceMesh_8C.html" target="_top" xlink:title=" ">
<polygon fill="white" stroke="#666666" points="1257.62,-163.5 1144.88,-163.5 1144.88,-133 1257.62,-133 1257.62,-163.5"/>
<text text-anchor="start" x="1152.88" y="-150" font-family="Helvetica,sans-Serif" font-size="10.00">src/generated/Iogn</text>
<text text-anchor="middle" x="1201.25" y="-138.75" font-family="Helvetica,sans-Serif" font-size="10.00">_DashSurfaceMesh.C</text>
</a>
</g>
</g>
<!-- Node15&#45;&gt;Node16 -->
<g id="edge17_Node000015_Node000016" class="edge">
<title>Node15&#45;&gt;Node16</title>
<g id="a_edge17_Node000015_Node000016"><a xlink:title=" ">
<path fill="none" stroke="#63b8ff" d="M1201.25,-188.38C1201.25,-180.05 1201.25,-171.08 1201.25,-163.83"/>
<polygon fill="#63b8ff" stroke="#63b8ff" points="1197.75,-188.11 1201.25,-198.11 1204.75,-188.11 1197.75,-188.11"/>
</a>
</g>
</g>
</g>
</svg>

<g id="navigator" transform="translate(0 0)" fill="#404254">
  <rect fill="#f2f5e9" fill-opacity="0.5" stroke="#606060" stroke-width=".5" x="0" y="0" width="60" height="60"/>
  <use id="zoomplus" xlink:href="#zoomPlus" x="17" y="9" onmousedown="handleZoom(evt,'in')"/>
  <use id="zoomminus" xlink:href="#zoomMin" x="42" y="9" onmousedown="handleZoom(evt,'out')"/>
  <use id="reset" xlink:href="#resetDef" x="30" y="36" onmousedown="handleReset()"/>
   <use id="arrowup" xlink:href="#arrowUp" x="0" y="0" onmousedown="handlePan(0,-1)"/>
  <use id="arrowright" xlink:href="#arrowRight" x="0" y="0" onmousedown="handlePan(1,0)"/>
  <use id="arrowdown" xlink:href="#arrowDown" x="0" y="0" onmousedown="handlePan(0,1)"/>
  <use id="arrowleft" xlink:href="#arrowLeft" x="0" y="0" onmousedown="handlePan(-1,0)"/>
</g>
<svg viewBox="0 0 15 15" width="100%" height="30px" preserveAspectRatio="xMaxYMin meet">
 <g id="arrow_out" transform="scale(0.3 0.3)">
  <a xlink:href="Ioss__Hex8_8h__dep__incl_org.svg" target="_base">
   <rect id="button" ry="5" rx="5" y="6" x="6" height="38" width="38"
        fill="#f2f5e9" fill-opacity="0.5" stroke="#606060" stroke-width="1.0"/>
   <path id="arrow"
     d="M 11.500037,31.436501 C 11.940474,20.09759 22.043105,11.32322 32.158766,21.979434 L 37.068811,17.246167 C 37.068811,17.246167 37.088388,32 37.088388,32 L 22.160133,31.978069 C 22.160133,31.978069 26.997745,27.140456 26.997745,27.140456 C 18.528582,18.264221 13.291696,25.230495 11.500037,31.436501 z"
     style="fill:#404040;"/>
  </a>
 </g>
</svg>

<style type='text/css'>
<![CDATA[
[data-mouse-over-selected='false'] { opacity: 0.7; }
[data-mouse-over-selected='true']  { opacity: 1.0; }
]]>
</style>
<script type="application/ecmascript"><![CDATA[
document.addEventListener('DOMContentLoaded', (event) => {
  highlightEdges();
  highlightAdjacentNodes();
});
]]></script>
</svg>
