<?xml version="1.0" encoding="UTF-8" standalone="no"?>
<!DOCTYPE svg PUBLIC "-//W3C//DTD SVG 1.1//EN"
 "http://www.w3.org/Graphics/SVG/1.1/DTD/svg11.dtd">
<!-- Generated by graphviz version 7.0.2 (20221119.0110)
 -->
<!-- Title: src/Ioss_SmartAssert.h Pages: 1 -->
<!--zoomable 93 -->
<svg id="main" version="1.1" xmlns="http://www.w3.org/2000/svg" xmlns:xlink="http://www.w3.org/1999/xlink" xml:space="preserve" onload="init(evt)">
<style type="text/css"><![CDATA[
.edge:hover path { stroke: red; }
.edge:hover polygon { stroke: red; fill: red; }
]]></style>
<script type="text/javascript"><![CDATA[
var edges = document.getElementsByTagName('g');
if (edges && edges.length) {
  for (var i=0;i<edges.length;i++) {
    if (edges[i].id.substr(0,4)=='edge') {
      edges[i].setAttribute('class','edge');
    }
  }
}
]]></script>
        <defs>
                <circle id="rim" cx="0" cy="0" r="7"/>
                <circle id="rim2" cx="0" cy="0" r="3.5"/>
                <g id="zoomPlus">
                        <use xlink:href="#rim" fill="#404040">
                                <set attributeName="fill" to="#808080" begin="zoomplus.mouseover" end="zoomplus.mouseout"/>
                        </use>
                        <path d="M-4,0h8M0,-4v8" fill="none" stroke="white" stroke-width="1.5" pointer-events="none"/>
                </g>
                <g id="zoomMin">
                        <use xlink:href="#rim" fill="#404040">
                                <set attributeName="fill" to="#808080" begin="zoomminus.mouseover" end="zoomminus.mouseout"/>
                        </use>
                        <path d="M-4,0h8" fill="none" stroke="white" stroke-width="1.5" pointer-events="none"/>
                </g>
                <g id="dirArrow">
                        <path fill="none" stroke="white" stroke-width="1.5" d="M0,-3.0v7 M-2.5,-0.5L0,-3.0L2.5,-0.5"/>
                </g>
               <g id="resetDef">
                       <use xlink:href="#rim2" fill="#404040">
                               <set attributeName="fill" to="#808080" begin="reset.mouseover" end="reset.mouseout"/>
                       </use>
               </g>
        </defs>

<script type="text/javascript">
var viewWidth = 1608;
var viewHeight = 93;
var sectionId = 'dynsection-1';
</script>
<script xlink:href="svgpan.js"/>
<svg id="graph" class="graph">
<g id="viewport">
<title>src/Ioss_SmartAssert.h</title>
<!-- Node1 -->
<g id="node1" class="node">
<title>Node1</title>
<g id="a_node1"><a xlink:title=" ">
<polygon fill="#999999" stroke="#666666" points="817,-85 697,-85 697,-66 817,-66 817,-85"/>
<text text-anchor="middle" x="757" y="-73" font-family="Helvetica,sans-Serif" font-size="10.00">src/Ioss_SmartAssert.h</text>
</a>
</g>
</g>
<!-- Node2 -->
<g id="node2" class="node">
<title>Node2</title>
<g id="a_node2"><a xlink:href="Ioss__Map_8C.html" target="_top" xlink:title=" ">
<polygon fill="white" stroke="#666666" points="86,-24.5 0,-24.5 0,-5.5 86,-5.5 86,-24.5"/>
<text text-anchor="middle" x="43" y="-12.5" font-family="Helvetica,sans-Serif" font-size="10.00">src/Ioss_Map.C</text>
</a>
</g>
</g>
<!-- Node1&#45;&gt;Node2 -->
<g id="edge1" class="edge">
<title>Node1&#45;&gt;Node2</title>
<path fill="none" stroke="#63b8ff" d="M685.37,-74.26C563.35,-72.84 307.72,-65.43 95,-30 87.53,-28.76 79.58,-26.9 72.2,-24.94"/>
<polygon fill="#63b8ff" stroke="#63b8ff" points="685.2,-77.76 695.24,-74.37 685.28,-70.76 685.2,-77.76"/>
</g>
<!-- Node3 -->
<g id="node3" class="node">
<title>Node3</title>
<g id="a_node3"><a xlink:href="Ioss__Region_8C.html" target="_top" xlink:title=" ">
<polygon fill="white" stroke="#666666" points="202,-24.5 104,-24.5 104,-5.5 202,-5.5 202,-24.5"/>
<text text-anchor="middle" x="153" y="-12.5" font-family="Helvetica,sans-Serif" font-size="10.00">src/Ioss_Region.C</text>
</a>
</g>
</g>
<!-- Node1&#45;&gt;Node3 -->
<g id="edge2" class="edge">
<title>Node1&#45;&gt;Node3</title>
<path fill="none" stroke="#63b8ff" d="M685.48,-72.22C580.76,-68.07 379.8,-57.08 211,-30 202.92,-28.7 194.3,-26.87 186.25,-24.96"/>
<polygon fill="#63b8ff" stroke="#63b8ff" points="685.21,-75.71 695.33,-72.6 685.48,-68.71 685.21,-75.71"/>
</g>
<!-- Node4 -->
<g id="node4" class="node">
<title>Node4</title>
<g id="a_node4"><a xlink:href="Ioss__SmartAssert_8C.html" target="_top" xlink:title=" ">
<polygon fill="white" stroke="#666666" points="342,-24.5 220,-24.5 220,-5.5 342,-5.5 342,-24.5"/>
<text text-anchor="middle" x="281" y="-12.5" font-family="Helvetica,sans-Serif" font-size="10.00">src/Ioss_SmartAssert.C</text>
</a>
</g>
</g>
<!-- Node1&#45;&gt;Node4 -->
<g id="edge3" class="edge">
<title>Node1&#45;&gt;Node4</title>
<path fill="none" stroke="#63b8ff" d="M685.5,-68.59C604.2,-61.42 467.62,-48.02 351,-30 341.81,-28.58 332,-26.79 322.72,-24.97"/>
<polygon fill="#63b8ff" stroke="#63b8ff" points="684.82,-72.04 695.08,-69.42 685.43,-65.07 684.82,-72.04"/>
</g>
<!-- Node5 -->
<g id="node5" class="node">
<title>Node5</title>
<g id="a_node5"><a xlink:href="Ioss__StructuredBlock_8C.html" target="_top" xlink:title=" ">
<polygon fill="white" stroke="#666666" points="497.5,-24.5 360.5,-24.5 360.5,-5.5 497.5,-5.5 497.5,-24.5"/>
<text text-anchor="middle" x="429" y="-12.5" font-family="Helvetica,sans-Serif" font-size="10.00">src/Ioss_StructuredBlock.C</text>
</a>
</g>
</g>
<!-- Node1&#45;&gt;Node5 -->
<g id="edge4" class="edge">
<title>Node1&#45;&gt;Node5</title>
<path fill="none" stroke="#63b8ff" d="M694.91,-63.57C644.11,-54.61 570.39,-41.56 506,-30 497.04,-28.39 487.5,-26.67 478.29,-24.99"/>
<polygon fill="#63b8ff" stroke="#63b8ff" points="694.08,-66.98 704.54,-65.27 695.3,-60.08 694.08,-66.98"/>
</g>
<!-- Node6 -->
<g id="node6" class="node">
<title>Node6</title>
<g id="a_node6"><a xlink:href="Iocgns__DatabaseIO_8C.html" target="_top" xlink:title=" ">
<polygon fill="white" stroke="#666666" points="670.5,-24.5 515.5,-24.5 515.5,-5.5 670.5,-5.5 670.5,-24.5"/>
<text text-anchor="middle" x="593" y="-12.5" font-family="Helvetica,sans-Serif" font-size="10.00">src/cgns/Iocgns_DatabaseIO.C</text>
</a>
</g>
</g>
<!-- Node1&#45;&gt;Node6 -->
<g id="edge5" class="edge">
<title>Node1&#45;&gt;Node6</title>
<path fill="none" stroke="#63b8ff" d="M721.27,-61.75C690.1,-50.64 645.69,-34.8 618.14,-24.97"/>
<polygon fill="#63b8ff" stroke="#63b8ff" points="720.07,-65.04 730.67,-65.11 722.42,-58.45 720.07,-65.04"/>
</g>
<!-- Node7 -->
<g id="node7" class="node">
<title>Node7</title>
<g id="a_node7"><a xlink:href="Iocgns__StructuredZoneData_8C.html" target="_top" xlink:title=" ">
<polygon fill="white" stroke="#666666" points="825.5,-30 688.5,-30 688.5,0 825.5,0 825.5,-30"/>
<text text-anchor="start" x="696.5" y="-18" font-family="Helvetica,sans-Serif" font-size="10.00">src/cgns/Iocgns_Structured</text>
<text text-anchor="middle" x="757" y="-7" font-family="Helvetica,sans-Serif" font-size="10.00">ZoneData.C</text>
</a>
</g>
</g>
<!-- Node1&#45;&gt;Node7 -->
<g id="edge6" class="edge">
<title>Node1&#45;&gt;Node7</title>
<path fill="none" stroke="#63b8ff" d="M757,-54.51C757,-46.49 757,-37.43 757,-30.11"/>
<polygon fill="#63b8ff" stroke="#63b8ff" points="753.5,-54.35 757,-64.35 760.5,-54.35 753.5,-54.35"/>
</g>
<!-- Node8 -->
<g id="node8" class="node">
<title>Node8</title>
<g id="a_node8"><a xlink:href="Ioex__BaseDatabaseIO_8C.html" target="_top" xlink:title=" ">
<polygon fill="white" stroke="#666666" points="1020.5,-24.5 843.5,-24.5 843.5,-5.5 1020.5,-5.5 1020.5,-24.5"/>
<text text-anchor="middle" x="932" y="-12.5" font-family="Helvetica,sans-Serif" font-size="10.00">src/exodus/Ioex_BaseDatabaseIO.C</text>
</a>
</g>
</g>
<!-- Node1&#45;&gt;Node8 -->
<g id="edge7" class="edge">
<title>Node1&#45;&gt;Node8</title>
<path fill="none" stroke="#63b8ff" d="M794.26,-62.05C827.55,-50.92 875.52,-34.88 905.17,-24.97"/>
<polygon fill="#63b8ff" stroke="#63b8ff" points="793.39,-58.65 785.01,-65.14 795.61,-65.28 793.39,-58.65"/>
</g>
<!-- Node9 -->
<g id="node9" class="node">
<title>Node9</title>
<g id="a_node9"><a xlink:href="Ioex__DatabaseIO_8C.html" target="_top" xlink:title=" ">
<polygon fill="white" stroke="#666666" points="1193.5,-24.5 1038.5,-24.5 1038.5,-5.5 1193.5,-5.5 1193.5,-24.5"/>
<text text-anchor="middle" x="1116" y="-12.5" font-family="Helvetica,sans-Serif" font-size="10.00">src/exodus/Ioex_DatabaseIO.C</text>
</a>
</g>
</g>
<!-- Node1&#45;&gt;Node9 -->
<g id="edge8" class="edge">
<title>Node1&#45;&gt;Node9</title>
<path fill="none" stroke="#63b8ff" d="M822.96,-63.75C891.26,-52.62 996.76,-35.43 1060.8,-25"/>
<polygon fill="#63b8ff" stroke="#63b8ff" points="822.72,-60.25 813.41,-65.31 823.84,-67.15 822.72,-60.25"/>
</g>
<!-- Node10 -->
<g id="node10" class="node">
<title>Node10</title>
<g id="a_node10"><a xlink:href="Ioex__Utils_8C.html" target="_top" xlink:title=" ">
<polygon fill="white" stroke="#666666" points="1334,-24.5 1212,-24.5 1212,-5.5 1334,-5.5 1334,-24.5"/>
<text text-anchor="middle" x="1273" y="-12.5" font-family="Helvetica,sans-Serif" font-size="10.00">src/exodus/Ioex_Utils.C</text>
</a>
</g>
</g>
<!-- Node1&#45;&gt;Node10 -->
<g id="edge9" class="edge">
<title>Node1&#45;&gt;Node10</title>
<path fill="none" stroke="#63b8ff" d="M828.7,-69.52C917.04,-62.89 1071.58,-49.65 1203,-30 1212.32,-28.61 1222.27,-26.81 1231.66,-24.97"/>
<polygon fill="#63b8ff" stroke="#63b8ff" points="828.69,-66.01 818.98,-70.24 829.21,-72.99 828.69,-66.01"/>
</g>
<!-- Node11 -->
<g id="node11" class="node">
<title>Node11</title>
<g id="a_node11"><a xlink:href="cgns__decomp_8C.html" target="_top" xlink:title=" ">
<polygon fill="white" stroke="#666666" points="1480,-24.5 1352,-24.5 1352,-5.5 1480,-5.5 1480,-24.5"/>
<text text-anchor="middle" x="1416" y="-12.5" font-family="Helvetica,sans-Serif" font-size="10.00">src/main/cgns_decomp.C</text>
</a>
</g>
</g>
<!-- Node1&#45;&gt;Node11 -->
<g id="edge10" class="edge">
<title>Node1&#45;&gt;Node11</title>
<path fill="none" stroke="#63b8ff" d="M828.46,-71.69C939.11,-66.76 1158.39,-54.63 1343,-30 1352.98,-28.67 1363.65,-26.85 1373.67,-24.96"/>
<polygon fill="#63b8ff" stroke="#63b8ff" points="828.48,-68.19 818.64,-72.13 828.79,-75.18 828.48,-68.19"/>
</g>
<!-- Node12 -->
<g id="node12" class="node">
<title>Node12</title>
<g id="a_node12"><a xlink:href="Iotm__DatabaseIO_8C.html" target="_top" xlink:title=" ">
<polygon fill="white" stroke="#666666" points="1599.5,-30 1498.5,-30 1498.5,0 1599.5,0 1599.5,-30"/>
<text text-anchor="start" x="1506.5" y="-18" font-family="Helvetica,sans-Serif" font-size="10.00">src/text_mesh/Iotm</text>
<text text-anchor="middle" x="1549" y="-7" font-family="Helvetica,sans-Serif" font-size="10.00">_DatabaseIO.C</text>
</a>
</g>
</g>
<!-- Node1&#45;&gt;Node12 -->
<g id="edge11" class="edge">
<title>Node1&#45;&gt;Node12</title>
<path fill="none" stroke="#63b8ff" d="M828.6,-74.14C960.11,-72.59 1248.7,-65.08 1489,-30 1491.96,-29.57 1495,-29.06 1498.05,-28.5"/>
<polygon fill="#63b8ff" stroke="#63b8ff" points="828.6,-70.64 818.64,-74.25 828.68,-77.64 828.6,-70.64"/>
</g>
</g>
</svg>
        <g id="navigator" transform="translate(0 0)" fill="#404254">
                <rect fill="#f2f5e9" fill-opacity="0.5" stroke="#606060" stroke-width=".5" x="0" y="0" width="60" height="60"/>
                <use id="zoomplus" xlink:href="#zoomPlus" x="17" y="9" onmousedown="handleZoom(evt,'in')"/>
                <use id="zoomminus" xlink:href="#zoomMin" x="42" y="9" onmousedown="handleZoom(evt,'out')"/>
                <use id="reset" xlink:href="#resetDef" x="30" y="36" onmousedown="handleReset()"/>
                <g id="arrowUp" xlink:href="#dirArrow" transform="translate(30 24)" onmousedown="handlePan(0,-1)">
                  <use xlink:href="#rim" fill="#404040">
                        <set attributeName="fill" to="#808080" begin="arrowUp.mouseover" end="arrowUp.mouseout"/>
                  </use>
                  <path fill="none" stroke="white" stroke-width="1.5" d="M0,-3.0v7 M-2.5,-0.5L0,-3.0L2.5,-0.5"/>
                </g>
                <g id="arrowRight" xlink:href="#dirArrow" transform="rotate(90) translate(36 -43)" onmousedown="handlePan(1,0)">
                  <use xlink:href="#rim" fill="#404040">
                        <set attributeName="fill" to="#808080" begin="arrowRight.mouseover" end="arrowRight.mouseout"/>
                  </use>
                  <path fill="none" stroke="white" stroke-width="1.5" d="M0,-3.0v7 M-2.5,-0.5L0,-3.0L2.5,-0.5"/>
                </g>
                <g id="arrowDown" xlink:href="#dirArrow" transform="rotate(180) translate(-30 -48)" onmousedown="handlePan(0,1)">
                  <use xlink:href="#rim" fill="#404040">
                        <set attributeName="fill" to="#808080" begin="arrowDown.mouseover" end="arrowDown.mouseout"/>
                  </use>
                  <path fill="none" stroke="white" stroke-width="1.5" d="M0,-3.0v7 M-2.5,-0.5L0,-3.0L2.5,-0.5"/>
                </g>
                <g id="arrowLeft" xlink:href="#dirArrow" transform="rotate(270) translate(-36 17)" onmousedown="handlePan(-1,0)">
                  <use xlink:href="#rim" fill="#404040">
                        <set attributeName="fill" to="#808080" begin="arrowLeft.mouseover" end="arrowLeft.mouseout"/>
                  </use>
                  <path fill="none" stroke="white" stroke-width="1.5" d="M0,-3.0v7 M-2.5,-0.5L0,-3.0L2.5,-0.5"/>
                </g>
        </g>
        <svg viewBox="0 0 15 15" width="100%" height="30px" preserveAspectRatio="xMaxYMin meet">
         <g id="arrow_out" transform="scale(0.3 0.3)">
          <a xlink:href="Ioss__SmartAssert_8h__dep__incl_org.svg" target="_base">
           <rect id="button" ry="5" rx="5" y="6" x="6" height="38" width="38"
                fill="#f2f5e9" fill-opacity="0.5" stroke="#606060" stroke-width="1.0"/>
           <path id="arrow"
             d="M 11.500037,31.436501 C 11.940474,20.09759 22.043105,11.32322 32.158766,21.979434 L 37.068811,17.246167 C 37.068811,17.246167 37.088388,32 37.088388,32 L 22.160133,31.978069 C 22.160133,31.978069 26.997745,27.140456 26.997745,27.140456 C 18.528582,18.264221 13.291696,25.230495 11.500037,31.436501 z"
             style="fill:#404040;"/>
          </a>
         </g>
        </svg>
</svg>
