<?xml version="1.0" encoding="UTF-8" standalone="no"?>
<!DOCTYPE svg PUBLIC "-//W3C//DTD SVG 1.1//EN"
 "http://www.w3.org/Graphics/SVG/1.1/DTD/svg11.dtd">
<!-- Generated by graphviz version 6.0.2 (20221011.1828)
 -->
<!-- Title: src/Ioss_ConstructedVariableType.C Pages: 1 -->
<!--zoomable 434 -->
<svg id="main" version="1.1" xmlns="http://www.w3.org/2000/svg" xmlns:xlink="http://www.w3.org/1999/xlink" xml:space="preserve" onload="init(evt)">
<style type="text/css"><![CDATA[
.edge:hover path { stroke: red; }
.edge:hover polygon { stroke: red; fill: red; }
]]></style>
<script type="text/javascript"><![CDATA[
var edges = document.getElementsByTagName('g');
if (edges && edges.length) {
  for (var i=0;i<edges.length;i++) {
    if (edges[i].id.substr(0,4)=='edge') {
      edges[i].setAttribute('class','edge');
    }
  }
}
]]></script>
        <defs>
                <circle id="rim" cx="0" cy="0" r="7"/>
                <circle id="rim2" cx="0" cy="0" r="3.5"/>
                <g id="zoomPlus">
                        <use xlink:href="#rim" fill="#404040">
                                <set attributeName="fill" to="#808080" begin="zoomplus.mouseover" end="zoomplus.mouseout"/>
                        </use>
                        <path d="M-4,0h8M0,-4v8" fill="none" stroke="white" stroke-width="1.5" pointer-events="none"/>
                </g>
                <g id="zoomMin">
                        <use xlink:href="#rim" fill="#404040">
                                <set attributeName="fill" to="#808080" begin="zoomminus.mouseover" end="zoomminus.mouseout"/>
                        </use>
                        <path d="M-4,0h8" fill="none" stroke="white" stroke-width="1.5" pointer-events="none"/>
                </g>
                <g id="dirArrow">
                        <path fill="none" stroke="white" stroke-width="1.5" d="M0,-3.0v7 M-2.5,-0.5L0,-3.0L2.5,-0.5"/>
                </g>
               <g id="resetDef">
                       <use xlink:href="#rim2" fill="#404040">
                               <set attributeName="fill" to="#808080" begin="reset.mouseover" end="reset.mouseout"/>
                       </use>
               </g>
        </defs>

<script type="text/javascript">
var viewWidth = 1456;
var viewHeight = 434;
var sectionId = 'dynsection-0';
</script>
<script xlink:href="svgpan.js"/>
<svg id="graph" class="graph">
<g id="viewport">
<title>src/Ioss_ConstructedVariableType.C</title>
<!-- Node1 -->
<g id="node1" class="node">
<title>Node1</title>
<g id="a_node1"><a xlink:title=" ">
<polygon fill="#999999" stroke="#666666" points="1308,-426 1163,-426 1163,-396 1308,-396 1308,-426"/>
<text text-anchor="start" x="1171" y="-414" font-family="Helvetica,sans-Serif" font-size="10.00">src/Ioss_ConstructedVariable</text>
<text text-anchor="middle" x="1235.5" y="-403" font-family="Helvetica,sans-Serif" font-size="10.00">Type.C</text>
</a>
</g>
</g>
<!-- Node2 -->
<g id="node2" class="node">
<title>Node2</title>
<g id="a_node2"><a xlink:href="Ioss__ConstructedVariableType_8h.html" target="_top" xlink:title=" ">
<polygon fill="white" stroke="#666666" points="1299.5,-360 1171.5,-360 1171.5,-330 1299.5,-330 1299.5,-360"/>
<text text-anchor="start" x="1179.5" y="-348" font-family="Helvetica,sans-Serif" font-size="10.00">Ioss_ConstructedVariable</text>
<text text-anchor="middle" x="1235.5" y="-337" font-family="Helvetica,sans-Serif" font-size="10.00">Type.h</text>
</a>
</g>
</g>
<!-- Node1&#45;&gt;Node2 -->
<g id="edge1" class="edge">
<title>Node1&#45;&gt;Node2</title>
<path fill="none" stroke="#63b8ff" d="M1235.5,-395.8C1235.5,-388.34 1235.5,-378.99 1235.5,-370.41"/>
<polygon fill="#63b8ff" stroke="#63b8ff" points="1239,-370.16 1235.5,-360.16 1232,-370.16 1239,-370.16"/>
</g>
<!-- Node3 -->
<g id="node3" class="node">
<title>Node3</title>
<g id="a_node3"><a xlink:href="Ioss__VariableType_8h.html" target="_top" xlink:title=" ">
<polygon fill="white" stroke="#666666" points="1128.5,-294 1024.5,-294 1024.5,-275 1128.5,-275 1128.5,-294"/>
<text text-anchor="middle" x="1076.5" y="-282" font-family="Helvetica,sans-Serif" font-size="10.00">Ioss_VariableType.h</text>
</a>
</g>
</g>
<!-- Node1&#45;&gt;Node3 -->
<g id="edge62" class="edge">
<title>Node1&#45;&gt;Node3</title>
<path fill="none" stroke="#63b8ff" d="M1213.64,-395.97C1198.9,-386.27 1179.16,-372.86 1162.5,-360 1137.5,-340.71 1110.19,-316.46 1093.2,-300.97"/>
<polygon fill="#63b8ff" stroke="#63b8ff" points="1095.48,-298.31 1085.75,-294.13 1090.75,-303.47 1095.48,-298.31"/>
</g>
<!-- Node8 -->
<g id="node8" class="node">
<title>Node8</title>
<g id="a_node8"><a xlink:title=" ">
<polygon fill="#e0e0e0" stroke="#999999" points="1255,-19 1214,-19 1214,0 1255,0 1255,-19"/>
<text text-anchor="middle" x="1234.5" y="-7" font-family="Helvetica,sans-Serif" font-size="10.00">string</text>
</a>
</g>
</g>
<!-- Node1&#45;&gt;Node8 -->
<g id="edge64" class="edge">
<title>Node1&#45;&gt;Node8</title>
<path fill="none" stroke="#63b8ff" d="M1308.16,-398.12C1369.53,-383.45 1447.5,-351.77 1447.5,-285.5 1447.5,-285.5 1447.5,-285.5 1447.5,-118.5 1447.5,-37.9 1324.67,-17.43 1265.56,-12.25"/>
<polygon fill="#63b8ff" stroke="#63b8ff" points="1265.55,-8.74 1255.31,-11.45 1265.01,-15.72 1265.55,-8.74"/>
</g>
<!-- Node12 -->
<g id="node12" class="node">
<title>Node12</title>
<g id="a_node12"><a xlink:href="Ioss__Utils_8h.html" target="_top" xlink:title=" ">
<polygon fill="white" stroke="#666666" points="724,-239 655,-239 655,-220 724,-220 724,-239"/>
<text text-anchor="middle" x="689.5" y="-227" font-family="Helvetica,sans-Serif" font-size="10.00">Ioss_Utils.h</text>
</a>
</g>
</g>
<!-- Node1&#45;&gt;Node12 -->
<g id="edge61" class="edge">
<title>Node1&#45;&gt;Node12</title>
<path fill="none" stroke="#63b8ff" d="M1192.66,-395.91C1088.13,-361.55 821.55,-273.91 725.05,-242.19"/>
<polygon fill="#63b8ff" stroke="#63b8ff" points="726.05,-238.83 715.46,-239.04 723.87,-245.48 726.05,-238.83"/>
</g>
<!-- Node28 -->
<g id="node28" class="node">
<title>Node28</title>
<g id="a_node28"><a xlink:title=" ">
<polygon fill="#e0e0e0" stroke="#999999" points="1343,-184 1294,-184 1294,-165 1343,-165 1343,-184"/>
<text text-anchor="middle" x="1318.5" y="-172" font-family="Helvetica,sans-Serif" font-size="10.00">cassert</text>
</a>
</g>
</g>
<!-- Node1&#45;&gt;Node28 -->
<g id="edge63" class="edge">
<title>Node1&#45;&gt;Node28</title>
<path fill="none" stroke="#63b8ff" d="M1268.52,-395.85C1283.41,-387.66 1299.62,-375.8 1308.5,-360 1338.72,-306.26 1329.2,-229.22 1322.58,-194.15"/>
<polygon fill="#63b8ff" stroke="#63b8ff" points="1326,-193.43 1320.58,-184.33 1319.14,-194.82 1326,-193.43"/>
</g>
<!-- Node2&#45;&gt;Node3 -->
<g id="edge2" class="edge">
<title>Node2&#45;&gt;Node3</title>
<path fill="none" stroke="#63b8ff" d="M1197.42,-329.99C1170.65,-320.14 1135.2,-307.1 1109.61,-297.68"/>
<polygon fill="#63b8ff" stroke="#63b8ff" points="1110.57,-294.31 1099.98,-294.14 1108.16,-300.88 1110.57,-294.31"/>
</g>
<!-- Node2&#45;&gt;Node8 -->
<g id="edge60" class="edge">
<title>Node2&#45;&gt;Node8</title>
<path fill="none" stroke="#63b8ff" d="M1299.3,-329.87C1348.96,-314.66 1409.5,-284.96 1409.5,-230.5 1409.5,-230.5 1409.5,-230.5 1409.5,-118.5 1409.5,-51.5 1315.47,-24.7 1265.26,-15.16"/>
<polygon fill="#63b8ff" stroke="#63b8ff" points="1265.72,-11.68 1255.26,-13.38 1264.49,-18.58 1265.72,-11.68"/>
</g>
<!-- Node4 -->
<g id="node4" class="node">
<title>Node4</title>
<g id="a_node4"><a xlink:href="Ioss__CodeTypes_8h.html" target="_top" xlink:title=" ">
<polygon fill="white" stroke="#666666" points="964.5,-74 866.5,-74 866.5,-55 964.5,-55 964.5,-74"/>
<text text-anchor="middle" x="915.5" y="-62" font-family="Helvetica,sans-Serif" font-size="10.00">Ioss_CodeTypes.h</text>
</a>
</g>
</g>
<!-- Node3&#45;&gt;Node4 -->
<g id="edge3" class="edge">
<title>Node3&#45;&gt;Node4</title>
<path fill="none" stroke="#63b8ff" d="M1075.3,-274.72C1073.25,-261.92 1068.21,-237.73 1057.5,-220 1027.59,-170.5 1002.92,-172.22 964.5,-129 951.1,-113.93 937.18,-95.58 927.61,-82.49"/>
<polygon fill="#63b8ff" stroke="#63b8ff" points="930.18,-80.07 921.49,-74.01 924.51,-84.17 930.18,-80.07"/>
</g>
<!-- Node3&#45;&gt;Node8 -->
<g id="edge58" class="edge">
<title>Node3&#45;&gt;Node8</title>
<path fill="none" stroke="#63b8ff" d="M1128.75,-281.64C1193.61,-276.2 1301.85,-256.1 1352.5,-184 1374.71,-152.38 1413.55,-166.58 1322.5,-55 1307.75,-36.93 1283.78,-25.49 1264.57,-18.74"/>
<polygon fill="#63b8ff" stroke="#63b8ff" points="1265.63,-15.4 1255.04,-15.63 1263.46,-22.06 1265.63,-15.4"/>
</g>
<!-- Node9 -->
<g id="node9" class="node">
<title>Node9</title>
<g id="a_node9"><a xlink:title=" ">
<polygon fill="#e0e0e0" stroke="#999999" points="784.5,-19 740.5,-19 740.5,0 784.5,0 784.5,-19"/>
<text text-anchor="middle" x="762.5" y="-7" font-family="Helvetica,sans-Serif" font-size="10.00">vector</text>
</a>
</g>
</g>
<!-- Node3&#45;&gt;Node9 -->
<g id="edge59" class="edge">
<title>Node3&#45;&gt;Node9</title>
<path fill="none" stroke="#63b8ff" d="M1056.81,-274.86C1039.4,-266.78 1013.69,-253.76 993.5,-239 988.19,-235.12 828.14,-78.67 823.5,-74 807.76,-58.18 790.13,-39.74 777.89,-26.83"/>
<polygon fill="#63b8ff" stroke="#63b8ff" points="780.11,-24.08 770.69,-19.22 775.02,-28.89 780.11,-24.08"/>
</g>
<!-- Node3&#45;&gt;Node12 -->
<g id="edge11" class="edge">
<title>Node3&#45;&gt;Node12</title>
<path fill="none" stroke="#63b8ff" d="M1024.31,-276.35C947.71,-265.86 806.17,-246.48 734.13,-236.61"/>
<polygon fill="#63b8ff" stroke="#63b8ff" points="734.41,-233.12 724.03,-235.23 733.46,-240.05 734.41,-233.12"/>
</g>
<!-- Node17 -->
<g id="node17" class="node">
<title>Node17</title>
<g id="a_node17"><a xlink:title=" ">
<polygon fill="#e0e0e0" stroke="#999999" points="1298,-74 1263,-74 1263,-55 1298,-55 1298,-74"/>
<text text-anchor="middle" x="1280.5" y="-62" font-family="Helvetica,sans-Serif" font-size="10.00">map</text>
</a>
</g>
</g>
<!-- Node3&#45;&gt;Node17 -->
<g id="edge57" class="edge">
<title>Node3&#45;&gt;Node17</title>
<path fill="none" stroke="#63b8ff" d="M1090.77,-274.87C1124.28,-253.93 1208.75,-197.12 1256.5,-129 1266.01,-115.43 1272.32,-97.61 1276.07,-84.3"/>
<polygon fill="#63b8ff" stroke="#63b8ff" points="1279.52,-84.93 1278.63,-74.37 1272.74,-83.18 1279.52,-84.93"/>
</g>
<!-- Node25 -->
<g id="node25" class="node">
<title>Node25</title>
<g id="a_node25"><a xlink:title=" ">
<polygon fill="#e0e0e0" stroke="#999999" points="348,-74 289,-74 289,-55 348,-55 348,-74"/>
<text text-anchor="middle" x="318.5" y="-62" font-family="Helvetica,sans-Serif" font-size="10.00">functional</text>
</a>
</g>
</g>
<!-- Node3&#45;&gt;Node25 -->
<g id="edge56" class="edge">
<title>Node3&#45;&gt;Node25</title>
<path fill="none" stroke="#63b8ff" d="M1024.34,-281.48C884.45,-275.2 504.64,-252.15 402.5,-184 364.54,-158.67 338.27,-109.93 326.13,-83.54"/>
<polygon fill="#63b8ff" stroke="#63b8ff" points="329.3,-82.05 322.05,-74.32 322.9,-84.88 329.3,-82.05"/>
</g>
<!-- Node33 -->
<g id="node33" class="node">
<title>Node33</title>
<g id="a_node33"><a xlink:title=" ">
<polygon fill="#e0e0e0" stroke="#999999" points="1048.5,-239 1002.5,-239 1002.5,-220 1048.5,-220 1048.5,-239"/>
<text text-anchor="middle" x="1025.5" y="-227" font-family="Helvetica,sans-Serif" font-size="10.00">cstring</text>
</a>
</g>
</g>
<!-- Node3&#45;&gt;Node33 -->
<g id="edge55" class="edge">
<title>Node3&#45;&gt;Node33</title>
<path fill="none" stroke="#63b8ff" d="M1068.08,-274.75C1060.73,-267.11 1049.87,-255.82 1040.96,-246.56"/>
<polygon fill="#63b8ff" stroke="#63b8ff" points="1043.22,-243.87 1033.76,-239.09 1038.18,-248.72 1043.22,-243.87"/>
</g>
<!-- Node5 -->
<g id="node5" class="node">
<title>Node5</title>
<g id="a_node5"><a xlink:title=" ">
<polygon fill="#e0e0e0" stroke="#999999" points="840.5,-19 802.5,-19 802.5,0 840.5,0 840.5,-19"/>
<text text-anchor="middle" x="821.5" y="-7" font-family="Helvetica,sans-Serif" font-size="10.00">array</text>
</a>
</g>
</g>
<!-- Node4&#45;&gt;Node5 -->
<g id="edge4" class="edge">
<title>Node4&#45;&gt;Node5</title>
<path fill="none" stroke="#63b8ff" d="M900.4,-54.98C885.68,-46.69 863.08,-33.94 845.83,-24.22"/>
<polygon fill="#63b8ff" stroke="#63b8ff" points="847.31,-21.03 836.88,-19.17 843.87,-27.13 847.31,-21.03"/>
</g>
<!-- Node6 -->
<g id="node6" class="node">
<title>Node6</title>
<g id="a_node6"><a xlink:title=" ">
<polygon fill="#e0e0e0" stroke="#999999" points="49,-19 0,-19 0,0 49,0 49,-19"/>
<text text-anchor="middle" x="24.5" y="-7" font-family="Helvetica,sans-Serif" font-size="10.00">cstddef</text>
</a>
</g>
</g>
<!-- Node4&#45;&gt;Node6 -->
<g id="edge5" class="edge">
<title>Node4&#45;&gt;Node6</title>
<path fill="none" stroke="#63b8ff" d="M866.33,-60.57C705.44,-51 197.14,-20.77 59.28,-12.57"/>
<polygon fill="#63b8ff" stroke="#63b8ff" points="59.47,-9.07 49.28,-11.97 59.05,-16.06 59.47,-9.07"/>
</g>
<!-- Node7 -->
<g id="node7" class="node">
<title>Node7</title>
<g id="a_node7"><a xlink:title=" ">
<polygon fill="#e0e0e0" stroke="#999999" points="715.5,-19 669.5,-19 669.5,0 715.5,0 715.5,-19"/>
<text text-anchor="middle" x="692.5" y="-7" font-family="Helvetica,sans-Serif" font-size="10.00">cstdint</text>
</a>
</g>
</g>
<!-- Node4&#45;&gt;Node7 -->
<g id="edge6" class="edge">
<title>Node4&#45;&gt;Node7</title>
<path fill="none" stroke="#63b8ff" d="M879.67,-54.98C837.11,-44.87 766.69,-28.13 725.44,-18.33"/>
<polygon fill="#63b8ff" stroke="#63b8ff" points="726.15,-14.9 715.61,-15.99 724.53,-21.71 726.15,-14.9"/>
</g>
<!-- Node4&#45;&gt;Node8 -->
<g id="edge7" class="edge">
<title>Node4&#45;&gt;Node8</title>
<path fill="none" stroke="#63b8ff" d="M964.64,-55.33C1031.3,-44.26 1148.41,-24.8 1203.8,-15.6"/>
<polygon fill="#63b8ff" stroke="#63b8ff" points="1204.42,-19.05 1213.71,-13.95 1203.28,-12.14 1204.42,-19.05"/>
</g>
<!-- Node4&#45;&gt;Node9 -->
<g id="edge8" class="edge">
<title>Node4&#45;&gt;Node9</title>
<path fill="none" stroke="#63b8ff" d="M890.92,-54.98C864.62,-45.88 822.83,-31.4 794.11,-21.45"/>
<polygon fill="#63b8ff" stroke="#63b8ff" points="795.13,-18.1 784.54,-18.13 792.84,-24.71 795.13,-18.1"/>
</g>
<!-- Node10 -->
<g id="node10" class="node">
<title>Node10</title>
<g id="a_node10"><a xlink:title=" ">
<polygon fill="#e0e0e0" stroke="#999999" points="974.5,-19 858.5,-19 858.5,0 974.5,0 974.5,-19"/>
<text text-anchor="middle" x="916.5" y="-7" font-family="Helvetica,sans-Serif" font-size="10.00">SEACASIoss_config.h</text>
</a>
</g>
</g>
<!-- Node4&#45;&gt;Node10 -->
<g id="edge9" class="edge">
<title>Node4&#45;&gt;Node10</title>
<path fill="none" stroke="#63b8ff" d="M915.67,-54.75C915.8,-47.8 915.98,-37.85 916.15,-29.13"/>
<polygon fill="#63b8ff" stroke="#63b8ff" points="919.65,-29.15 916.34,-19.09 912.65,-29.02 919.65,-29.15"/>
</g>
<!-- Node11 -->
<g id="node11" class="node">
<title>Node11</title>
<g id="a_node11"><a xlink:title=" ">
<polygon fill="#e0e0e0" stroke="#999999" points="1046,-19 993,-19 993,0 1046,0 1046,-19"/>
<text text-anchor="middle" x="1019.5" y="-7" font-family="Helvetica,sans-Serif" font-size="10.00">complex</text>
</a>
</g>
</g>
<!-- Node4&#45;&gt;Node11 -->
<g id="edge10" class="edge">
<title>Node4&#45;&gt;Node11</title>
<path fill="none" stroke="#63b8ff" d="M932.21,-54.98C948.71,-46.57 974.2,-33.59 993.38,-23.81"/>
<polygon fill="#63b8ff" stroke="#63b8ff" points="995.17,-26.83 1002.49,-19.17 991.99,-20.59 995.17,-26.83"/>
</g>
<!-- Node12&#45;&gt;Node4 -->
<g id="edge12" class="edge">
<title>Node12&#45;&gt;Node4</title>
<path fill="none" stroke="#63b8ff" d="M724.42,-226.89C781.92,-223.43 892.57,-213.07 916.5,-184 934.94,-161.6 888.4,-131.54 887.5,-129 881.77,-112.75 891.18,-94.84 900.6,-82.2"/>
<polygon fill="#63b8ff" stroke="#63b8ff" points="903.37,-84.34 906.94,-74.37 897.93,-79.94 903.37,-84.34"/>
</g>
<!-- Node12&#45;&gt;Node6 -->
<g id="edge48" class="edge">
<title>Node12&#45;&gt;Node6</title>
<path fill="none" stroke="#63b8ff" d="M654.96,-228.71C546.26,-228.94 212.6,-226.11 114.5,-184 55.41,-158.63 37.67,-135.97 20.5,-74 16.44,-59.34 17.9,-42.09 20.12,-29.26"/>
<polygon fill="#63b8ff" stroke="#63b8ff" points="23.58,-29.81 22.15,-19.32 16.73,-28.42 23.58,-29.81"/>
</g>
<!-- Node12&#45;&gt;Node7 -->
<g id="edge49" class="edge">
<title>Node12&#45;&gt;Node7</title>
<path fill="none" stroke="#63b8ff" d="M654.78,-228.14C588.63,-226.63 448.44,-219.25 418.5,-184 380.95,-139.78 394.04,-92.28 438.5,-55 471.43,-27.39 597.81,-16.17 658.96,-12.28"/>
<polygon fill="#63b8ff" stroke="#63b8ff" points="659.47,-15.75 669.24,-11.65 659.04,-8.77 659.47,-15.75"/>
</g>
<!-- Node12&#45;&gt;Node8 -->
<g id="edge53" class="edge">
<title>Node12&#45;&gt;Node8</title>
<path fill="none" stroke="#63b8ff" d="M724.23,-227.44C820.41,-224.18 1088.61,-212.69 1171.5,-184 1244.97,-158.57 1279.11,-146.37 1307.5,-74 1310.58,-66.14 1311.63,-62.36 1307.5,-55 1298.29,-38.6 1280.32,-27.54 1264.51,-20.54"/>
<polygon fill="#63b8ff" stroke="#63b8ff" points="1265.62,-17.22 1255.04,-16.7 1262.99,-23.7 1265.62,-17.22"/>
</g>
<!-- Node12&#45;&gt;Node9 -->
<g id="edge54" class="edge">
<title>Node12&#45;&gt;Node9</title>
<path fill="none" stroke="#63b8ff" d="M654.96,-226.42C600.51,-222.34 498.6,-211.19 476.5,-184 471.17,-177.45 475.17,-173.34 476.5,-165 480.55,-139.6 476.7,-128.56 494.5,-110 542.79,-59.66 576.1,-79.26 641.5,-55 671.75,-43.78 706.29,-31.09 730.71,-22.14"/>
<polygon fill="#63b8ff" stroke="#63b8ff" points="732,-25.39 740.18,-18.66 729.59,-18.82 732,-25.39"/>
</g>
<!-- Node13 -->
<g id="node13" class="node">
<title>Node13</title>
<g id="a_node13"><a xlink:href="Ioss__ElementTopology_8h.html" target="_top" xlink:title=" ">
<polygon fill="white" stroke="#666666" points="1162.5,-184 1040.5,-184 1040.5,-165 1162.5,-165 1162.5,-184"/>
<text text-anchor="middle" x="1101.5" y="-172" font-family="Helvetica,sans-Serif" font-size="10.00">Ioss_ElementTopology.h</text>
</a>
</g>
</g>
<!-- Node12&#45;&gt;Node13 -->
<g id="edge13" class="edge">
<title>Node12&#45;&gt;Node13</title>
<path fill="none" stroke="#63b8ff" d="M724.27,-224.03C791.61,-215.36 941.04,-196.14 1030.29,-184.66"/>
<polygon fill="#63b8ff" stroke="#63b8ff" points="1030.86,-188.12 1040.33,-183.37 1029.97,-181.17 1030.86,-188.12"/>
</g>
<!-- Node19 -->
<g id="node19" class="node">
<title>Node19</title>
<g id="a_node19"><a xlink:href="Ioss__EntityType_8h.html" target="_top" xlink:title=" ">
<polygon fill="white" stroke="#666666" points="908,-184 813,-184 813,-165 908,-165 908,-184"/>
<text text-anchor="middle" x="860.5" y="-172" font-family="Helvetica,sans-Serif" font-size="10.00">Ioss_EntityType.h</text>
</a>
</g>
</g>
<!-- Node12&#45;&gt;Node19 -->
<g id="edge26" class="edge">
<title>Node12&#45;&gt;Node19</title>
<path fill="none" stroke="#63b8ff" d="M716.97,-219.98C745.68,-211.09 790.92,-197.07 822.92,-187.15"/>
<polygon fill="#63b8ff" stroke="#63b8ff" points="824.3,-190.39 832.81,-184.08 822.22,-183.7 824.3,-190.39"/>
</g>
<!-- Node20 -->
<g id="node20" class="node">
<title>Node20</title>
<g id="a_node20"><a xlink:href="Ioss__Field_8h.html" target="_top" xlink:title=" ">
<polygon fill="white" stroke="#666666" points="797.5,-129 727.5,-129 727.5,-110 797.5,-110 797.5,-129"/>
<text text-anchor="middle" x="762.5" y="-117" font-family="Helvetica,sans-Serif" font-size="10.00">Ioss_Field.h</text>
</a>
</g>
</g>
<!-- Node12&#45;&gt;Node20 -->
<g id="edge27" class="edge">
<title>Node12&#45;&gt;Node20</title>
<path fill="none" stroke="#63b8ff" d="M717.15,-219.98C734.08,-213.17 754.39,-201.76 764.5,-184 772.18,-170.52 770.81,-152.69 768.03,-139.35"/>
<polygon fill="#63b8ff" stroke="#63b8ff" points="771.36,-138.25 765.52,-129.41 764.57,-139.96 771.36,-138.25"/>
</g>
<!-- Node21 -->
<g id="node21" class="node">
<title>Node21</title>
<g id="a_node21"><a xlink:href="Ioss__Property_8h.html" target="_top" xlink:title=" ">
<polygon fill="white" stroke="#666666" points="734.5,-74 650.5,-74 650.5,-55 734.5,-55 734.5,-74"/>
<text text-anchor="middle" x="692.5" y="-62" font-family="Helvetica,sans-Serif" font-size="10.00">Ioss_Property.h</text>
</a>
</g>
</g>
<!-- Node12&#45;&gt;Node21 -->
<g id="edge32" class="edge">
<title>Node12&#45;&gt;Node21</title>
<path fill="none" stroke="#63b8ff" d="M654.95,-225.9C603.31,-221.22 509.86,-209.39 489.5,-184 442.93,-125.93 565.8,-90.45 640.29,-74.85"/>
<polygon fill="#63b8ff" stroke="#63b8ff" points="641.35,-78.2 650.45,-72.78 639.96,-71.34 641.35,-78.2"/>
</g>
<!-- Node22 -->
<g id="node22" class="node">
<title>Node22</title>
<g id="a_node22"><a xlink:href="Ioss__Sort_8h.html" target="_top" xlink:title=" ">
<polygon fill="white" stroke="#666666" points="191,-184 124,-184 124,-165 191,-165 191,-184"/>
<text text-anchor="middle" x="157.5" y="-172" font-family="Helvetica,sans-Serif" font-size="10.00">Ioss_Sort.h</text>
</a>
</g>
</g>
<!-- Node12&#45;&gt;Node22 -->
<g id="edge36" class="edge">
<title>Node12&#45;&gt;Node22</title>
<path fill="none" stroke="#63b8ff" d="M654.59,-225.02C560.95,-215.69 304.32,-190.13 201.22,-179.86"/>
<polygon fill="#63b8ff" stroke="#63b8ff" points="201.46,-176.36 191.16,-178.85 200.76,-183.33 201.46,-176.36"/>
</g>
<!-- Node24 -->
<g id="node24" class="node">
<title>Node24</title>
<g id="a_node24"><a xlink:title=" ">
<polygon fill="#e0e0e0" stroke="#999999" points="270.5,-74 214.5,-74 214.5,-55 270.5,-55 270.5,-74"/>
<text text-anchor="middle" x="242.5" y="-62" font-family="Helvetica,sans-Serif" font-size="10.00">algorithm</text>
</a>
</g>
</g>
<!-- Node12&#45;&gt;Node24 -->
<g id="edge45" class="edge">
<title>Node12&#45;&gt;Node24</title>
<path fill="none" stroke="#63b8ff" d="M654.77,-225.95C584.7,-220.42 428.92,-205.99 380.5,-184 327.28,-159.83 278.89,-108.67 256.15,-82.18"/>
<polygon fill="#63b8ff" stroke="#63b8ff" points="258.57,-79.62 249.46,-74.22 253.21,-84.12 258.57,-79.62"/>
</g>
<!-- Node12&#45;&gt;Node28 -->
<g id="edge46" class="edge">
<title>Node12&#45;&gt;Node28</title>
<path fill="none" stroke="#63b8ff" d="M724.27,-227.57C815.67,-224.75 1070.11,-214.56 1279.5,-184 1280.96,-183.79 1282.44,-183.55 1283.94,-183.3"/>
<polygon fill="#63b8ff" stroke="#63b8ff" points="1284.67,-186.72 1293.84,-181.42 1283.36,-179.84 1284.67,-186.72"/>
</g>
<!-- Node29 -->
<g id="node29" class="node">
<title>Node29</title>
<g id="a_node29"><a xlink:title=" ">
<polygon fill="#e0e0e0" stroke="#999999" points="542.5,-184 498.5,-184 498.5,-165 542.5,-165 542.5,-184"/>
<text text-anchor="middle" x="520.5" y="-172" font-family="Helvetica,sans-Serif" font-size="10.00">cmath</text>
</a>
</g>
</g>
<!-- Node12&#45;&gt;Node29 -->
<g id="edge47" class="edge">
<title>Node12&#45;&gt;Node29</title>
<path fill="none" stroke="#63b8ff" d="M662.35,-219.98C632.37,-210.58 584.17,-195.47 552.42,-185.51"/>
<polygon fill="#63b8ff" stroke="#63b8ff" points="553.32,-182.12 542.73,-182.47 551.22,-188.8 553.32,-182.12"/>
</g>
<!-- Node30 -->
<g id="node30" class="node">
<title>Node30</title>
<g id="a_node30"><a xlink:title=" ">
<polygon fill="#e0e0e0" stroke="#999999" points="606,-184 561,-184 561,-165 606,-165 606,-184"/>
<text text-anchor="middle" x="583.5" y="-172" font-family="Helvetica,sans-Serif" font-size="10.00">cstdlib</text>
</a>
</g>
</g>
<!-- Node12&#45;&gt;Node30 -->
<g id="edge50" class="edge">
<title>Node12&#45;&gt;Node30</title>
<path fill="none" stroke="#63b8ff" d="M672.47,-219.98C655.57,-211.54 629.44,-198.47 609.86,-188.68"/>
<polygon fill="#63b8ff" stroke="#63b8ff" points="611.35,-185.51 600.84,-184.17 608.22,-191.77 611.35,-185.51"/>
</g>
<!-- Node31 -->
<g id="node31" class="node">
<title>Node31</title>
<g id="a_node31"><a xlink:title=" ">
<polygon fill="#e0e0e0" stroke="#999999" points="678.5,-184 624.5,-184 624.5,-165 678.5,-165 678.5,-184"/>
<text text-anchor="middle" x="651.5" y="-172" font-family="Helvetica,sans-Serif" font-size="10.00">iostream</text>
</a>
</g>
</g>
<!-- Node12&#45;&gt;Node31 -->
<g id="edge51" class="edge">
<title>Node12&#45;&gt;Node31</title>
<path fill="none" stroke="#63b8ff" d="M683.23,-219.75C677.91,-212.34 670.14,-201.5 663.62,-192.41"/>
<polygon fill="#63b8ff" stroke="#63b8ff" points="666.33,-190.18 657.66,-184.09 660.64,-194.26 666.33,-190.18"/>
</g>
<!-- Node32 -->
<g id="node32" class="node">
<title>Node32</title>
<g id="a_node32"><a xlink:title=" ">
<polygon fill="#e0e0e0" stroke="#999999" points="756,-184 697,-184 697,-165 756,-165 756,-184"/>
<text text-anchor="middle" x="726.5" y="-172" font-family="Helvetica,sans-Serif" font-size="10.00">stdexcept</text>
</a>
</g>
</g>
<!-- Node12&#45;&gt;Node32 -->
<g id="edge52" class="edge">
<title>Node12&#45;&gt;Node32</title>
<path fill="none" stroke="#63b8ff" d="M695.61,-219.75C700.78,-212.34 708.35,-201.5 714.69,-192.41"/>
<polygon fill="#63b8ff" stroke="#63b8ff" points="717.65,-194.29 720.5,-184.09 711.91,-190.29 717.65,-194.29"/>
</g>
<!-- Node13&#45;&gt;Node4 -->
<g id="edge14" class="edge">
<title>Node13&#45;&gt;Node4</title>
<path fill="none" stroke="#63b8ff" d="M1075.99,-164.85C1054.16,-156.94 1022.25,-144.19 996.5,-129 972.86,-115.06 948.44,-95 932.68,-81.17"/>
<polygon fill="#63b8ff" stroke="#63b8ff" points="934.66,-78.25 924.87,-74.21 930,-83.48 934.66,-78.25"/>
</g>
<!-- Node13&#45;&gt;Node8 -->
<g id="edge24" class="edge">
<title>Node13&#45;&gt;Node8</title>
<path fill="none" stroke="#63b8ff" d="M1139.15,-164.92C1159.96,-158.36 1184.71,-147.23 1200.5,-129 1225.29,-100.38 1232.06,-54.73 1233.87,-29.25"/>
<polygon fill="#63b8ff" stroke="#63b8ff" points="1237.37,-29.27 1234.4,-19.1 1230.38,-28.9 1237.37,-29.27"/>
</g>
<!-- Node13&#45;&gt;Node9 -->
<g id="edge25" class="edge">
<title>Node13&#45;&gt;Node9</title>
<path fill="none" stroke="#63b8ff" d="M1070.52,-164.98C1042.41,-156.9 1000.06,-143.8 964.5,-129 915.14,-108.45 903.58,-101.12 857.5,-74 830.93,-58.36 801.62,-38.31 782.68,-24.97"/>
<polygon fill="#63b8ff" stroke="#63b8ff" points="784.69,-22.11 774.51,-19.18 780.64,-27.82 784.69,-22.11"/>
</g>
<!-- Node14 -->
<g id="node14" class="node">
<title>Node14</title>
<g id="a_node14"><a xlink:href="Ioss__ElementPermutation_8h.html" target="_top" xlink:title=" ">
<polygon fill="white" stroke="#666666" points="1191,-129 1054,-129 1054,-110 1191,-110 1191,-129"/>
<text text-anchor="middle" x="1122.5" y="-117" font-family="Helvetica,sans-Serif" font-size="10.00">Ioss_ElementPermutation.h</text>
</a>
</g>
</g>
<!-- Node13&#45;&gt;Node14 -->
<g id="edge15" class="edge">
<title>Node13&#45;&gt;Node14</title>
<path fill="none" stroke="#63b8ff" d="M1104.97,-164.75C1107.78,-157.65 1111.84,-147.4 1115.35,-138.56"/>
<polygon fill="#63b8ff" stroke="#63b8ff" points="1118.67,-139.68 1119.1,-129.09 1112.16,-137.1 1118.67,-139.68"/>
</g>
<!-- Node13&#45;&gt;Node17 -->
<g id="edge22" class="edge">
<title>Node13&#45;&gt;Node17</title>
<path fill="none" stroke="#63b8ff" d="M1148.42,-164.99C1175.22,-158.43 1208.38,-147.29 1233.5,-129 1250.08,-116.93 1263.32,-97.3 1271.47,-83.06"/>
<polygon fill="#63b8ff" stroke="#63b8ff" points="1274.58,-84.68 1276.28,-74.22 1268.43,-81.33 1274.58,-84.68"/>
</g>
<!-- Node18 -->
<g id="node18" class="node">
<title>Node18</title>
<g id="a_node18"><a xlink:title=" ">
<polygon fill="#e0e0e0" stroke="#999999" points="1035.5,-129 1005.5,-129 1005.5,-110 1035.5,-110 1035.5,-129"/>
<text text-anchor="middle" x="1020.5" y="-117" font-family="Helvetica,sans-Serif" font-size="10.00">set</text>
</a>
</g>
</g>
<!-- Node13&#45;&gt;Node18 -->
<g id="edge23" class="edge">
<title>Node13&#45;&gt;Node18</title>
<path fill="none" stroke="#63b8ff" d="M1088.49,-164.98C1076.04,-156.84 1057.04,-144.41 1042.29,-134.76"/>
<polygon fill="#63b8ff" stroke="#63b8ff" points="1044.04,-131.72 1033.75,-129.17 1040.2,-137.57 1044.04,-131.72"/>
</g>
<!-- Node14&#45;&gt;Node4 -->
<g id="edge16" class="edge">
<title>Node14&#45;&gt;Node4</title>
<path fill="none" stroke="#63b8ff" d="M1089.24,-109.98C1053.89,-100.93 997.83,-86.58 958.99,-76.64"/>
<polygon fill="#63b8ff" stroke="#63b8ff" points="959.57,-73.17 949.02,-74.08 957.84,-79.95 959.57,-73.17"/>
</g>
<!-- Node14&#45;&gt;Node8 -->
<g id="edge20" class="edge">
<title>Node14&#45;&gt;Node8</title>
<path fill="none" stroke="#63b8ff" d="M1134.32,-109.81C1145.78,-101.18 1163.43,-87.37 1177.5,-74 1193.36,-58.93 1209.89,-40.12 1221.03,-26.9"/>
<polygon fill="#63b8ff" stroke="#63b8ff" points="1223.81,-29.03 1227.52,-19.11 1218.43,-24.55 1223.81,-29.03"/>
</g>
<!-- Node14&#45;&gt;Node9 -->
<g id="edge21" class="edge">
<title>Node14&#45;&gt;Node9</title>
<path fill="none" stroke="#63b8ff" d="M1105.5,-109.89C1078.28,-96.41 1022.93,-70.3 973.5,-55 898.61,-31.82 874.74,-37.31 794.83,-19.15"/>
<polygon fill="#63b8ff" stroke="#63b8ff" points="795.34,-15.67 784.8,-16.82 793.75,-22.49 795.34,-15.67"/>
</g>
<!-- Node15 -->
<g id="node15" class="node">
<title>Node15</title>
<g id="a_node15"><a xlink:title=" ">
<polygon fill="#e0e0e0" stroke="#999999" points="1110.5,-74 1058.5,-74 1058.5,-55 1110.5,-55 1110.5,-74"/>
<text text-anchor="middle" x="1084.5" y="-62" font-family="Helvetica,sans-Serif" font-size="10.00">assert.h</text>
</a>
</g>
</g>
<!-- Node14&#45;&gt;Node15 -->
<g id="edge17" class="edge">
<title>Node14&#45;&gt;Node15</title>
<path fill="none" stroke="#63b8ff" d="M1116.23,-109.75C1110.91,-102.34 1103.14,-91.5 1096.62,-82.41"/>
<polygon fill="#63b8ff" stroke="#63b8ff" points="1099.33,-80.18 1090.66,-74.09 1093.64,-84.26 1099.33,-80.18"/>
</g>
<!-- Node16 -->
<g id="node16" class="node">
<title>Node16</title>
<g id="a_node16"><a xlink:title=" ">
<polygon fill="#e0e0e0" stroke="#999999" points="1168.5,-74 1128.5,-74 1128.5,-55 1168.5,-55 1168.5,-74"/>
<text text-anchor="middle" x="1148.5" y="-62" font-family="Helvetica,sans-Serif" font-size="10.00">limits</text>
</a>
</g>
</g>
<!-- Node14&#45;&gt;Node16 -->
<g id="edge18" class="edge">
<title>Node14&#45;&gt;Node16</title>
<path fill="none" stroke="#63b8ff" d="M1126.79,-109.75C1130.31,-102.57 1135.41,-92.18 1139.78,-83.27"/>
<polygon fill="#63b8ff" stroke="#63b8ff" points="1143.02,-84.61 1144.29,-74.09 1136.74,-81.53 1143.02,-84.61"/>
</g>
<!-- Node14&#45;&gt;Node17 -->
<g id="edge19" class="edge">
<title>Node14&#45;&gt;Node17</title>
<path fill="none" stroke="#63b8ff" d="M1147.89,-109.98C1176.6,-100.35 1223.21,-84.72 1252.84,-74.78"/>
<polygon fill="#63b8ff" stroke="#63b8ff" points="1254.18,-78.02 1262.55,-71.52 1251.95,-71.38 1254.18,-78.02"/>
</g>
<!-- Node20&#45;&gt;Node4 -->
<g id="edge28" class="edge">
<title>Node20&#45;&gt;Node4</title>
<path fill="none" stroke="#63b8ff" d="M787.08,-109.98C812.55,-101.16 852.54,-87.31 881.13,-77.41"/>
<polygon fill="#63b8ff" stroke="#63b8ff" points="882.42,-80.66 890.73,-74.08 880.13,-74.05 882.42,-80.66"/>
</g>
<!-- Node20&#45;&gt;Node6 -->
<g id="edge29" class="edge">
<title>Node20&#45;&gt;Node6</title>
<path fill="none" stroke="#63b8ff" d="M727.24,-112.72C656.84,-101.24 493.82,-74.94 356.5,-55 248.19,-39.27 119.7,-22.62 59.24,-14.9"/>
<polygon fill="#63b8ff" stroke="#63b8ff" points="59.46,-11.4 49.1,-13.61 58.58,-18.35 59.46,-11.4"/>
</g>
<!-- Node20&#45;&gt;Node8 -->
<g id="edge30" class="edge">
<title>Node20&#45;&gt;Node8</title>
<path fill="none" stroke="#63b8ff" d="M797.68,-111.5C839.64,-103.05 911.85,-88.2 973.5,-74 1007.43,-66.18 1015.68,-63.29 1049.5,-55 1103.81,-41.68 1167.19,-26.52 1203.9,-17.77"/>
<polygon fill="#63b8ff" stroke="#63b8ff" points="1205.04,-21.1 1213.95,-15.38 1203.41,-14.29 1205.04,-21.1"/>
</g>
<!-- Node20&#45;&gt;Node9 -->
<g id="edge31" class="edge">
<title>Node20&#45;&gt;Node9</title>
<path fill="none" stroke="#63b8ff" d="M762.5,-109.66C762.5,-92.17 762.5,-52.8 762.5,-29.27"/>
<polygon fill="#63b8ff" stroke="#63b8ff" points="766,-29.16 762.5,-19.16 759,-29.16 766,-29.16"/>
</g>
<!-- Node21&#45;&gt;Node7 -->
<g id="edge33" class="edge">
<title>Node21&#45;&gt;Node7</title>
<path fill="none" stroke="#63b8ff" d="M692.5,-54.75C692.5,-47.8 692.5,-37.85 692.5,-29.13"/>
<polygon fill="#63b8ff" stroke="#63b8ff" points="696,-29.09 692.5,-19.09 689,-29.09 696,-29.09"/>
</g>
<!-- Node21&#45;&gt;Node8 -->
<g id="edge34" class="edge">
<title>Node21&#45;&gt;Node8</title>
<path fill="none" stroke="#63b8ff" d="M734.58,-59.39C839.73,-49.1 1112.07,-22.47 1203.82,-13.5"/>
<polygon fill="#63b8ff" stroke="#63b8ff" points="1204.23,-16.98 1213.84,-12.52 1203.55,-10.01 1204.23,-16.98"/>
</g>
<!-- Node21&#45;&gt;Node9 -->
<g id="edge35" class="edge">
<title>Node21&#45;&gt;Node9</title>
<path fill="none" stroke="#63b8ff" d="M703.75,-54.98C714.3,-47 730.3,-34.88 742.94,-25.31"/>
<polygon fill="#63b8ff" stroke="#63b8ff" points="745.19,-28 751.05,-19.17 740.96,-22.42 745.19,-28"/>
</g>
<!-- Node22&#45;&gt;Node6 -->
<g id="edge43" class="edge">
<title>Node22&#45;&gt;Node6</title>
<path fill="none" stroke="#63b8ff" d="M137.32,-164.86C107.39,-150.8 52.33,-119.86 29.5,-74 22.64,-60.22 21.76,-42.65 22.39,-29.48"/>
<polygon fill="#63b8ff" stroke="#63b8ff" points="25.9,-29.5 23.22,-19.26 18.92,-28.94 25.9,-29.5"/>
</g>
<!-- Node22&#45;&gt;Node9 -->
<g id="edge44" class="edge">
<title>Node22&#45;&gt;Node9</title>
<path fill="none" stroke="#63b8ff" d="M159.77,-164.72C166.42,-139.66 186.63,-68.69 205.5,-55 252.29,-21.06 667.3,-27.33 724.5,-19 726.25,-18.75 728.03,-18.45 729.83,-18.14"/>
<polygon fill="#63b8ff" stroke="#63b8ff" points="730.97,-21.48 740.1,-16.1 729.61,-14.61 730.97,-21.48"/>
</g>
<!-- Node23 -->
<g id="node23" class="node">
<title>Node23</title>
<g id="a_node23"><a xlink:href="pdqsort_8h.html" target="_top" xlink:title=" ">
<polygon fill="white" stroke="#666666" points="158,-129 101,-129 101,-110 158,-110 158,-129"/>
<text text-anchor="middle" x="129.5" y="-117" font-family="Helvetica,sans-Serif" font-size="10.00">pdqsort.h</text>
</a>
</g>
</g>
<!-- Node22&#45;&gt;Node23 -->
<g id="edge37" class="edge">
<title>Node22&#45;&gt;Node23</title>
<path fill="none" stroke="#63b8ff" d="M152.88,-164.75C149.04,-157.49 143.48,-146.95 138.74,-137.98"/>
<polygon fill="#63b8ff" stroke="#63b8ff" points="141.8,-136.3 134.04,-129.09 135.61,-139.57 141.8,-136.3"/>
</g>
<!-- Node23&#45;&gt;Node6 -->
<g id="edge39" class="edge">
<title>Node23&#45;&gt;Node6</title>
<path fill="none" stroke="#63b8ff" d="M100.96,-110.24C82.14,-103.4 58.3,-91.86 43.5,-74 33.06,-61.4 28.36,-43.21 26.24,-29.52"/>
<polygon fill="#63b8ff" stroke="#63b8ff" points="29.68,-28.81 25,-19.31 22.73,-29.66 29.68,-28.81"/>
</g>
<!-- Node23&#45;&gt;Node24 -->
<g id="edge38" class="edge">
<title>Node23&#45;&gt;Node24</title>
<path fill="none" stroke="#63b8ff" d="M147.66,-109.98C165.75,-101.5 193.78,-88.35 214.69,-78.54"/>
<polygon fill="#63b8ff" stroke="#63b8ff" points="216.45,-81.59 224.01,-74.17 213.47,-75.25 216.45,-81.59"/>
</g>
<!-- Node23&#45;&gt;Node25 -->
<g id="edge40" class="edge">
<title>Node23&#45;&gt;Node25</title>
<path fill="none" stroke="#63b8ff" d="M158.21,-110.45C190.49,-101.4 243.1,-86.64 279.19,-76.52"/>
<polygon fill="#63b8ff" stroke="#63b8ff" points="280.22,-79.87 288.9,-73.8 278.33,-73.13 280.22,-79.87"/>
</g>
<!-- Node26 -->
<g id="node26" class="node">
<title>Node26</title>
<g id="a_node26"><a xlink:title=" ">
<polygon fill="#e0e0e0" stroke="#999999" points="100,-74 53,-74 53,-55 100,-55 100,-74"/>
<text text-anchor="middle" x="76.5" y="-62" font-family="Helvetica,sans-Serif" font-size="10.00">iterator</text>
</a>
</g>
</g>
<!-- Node23&#45;&gt;Node26 -->
<g id="edge41" class="edge">
<title>Node23&#45;&gt;Node26</title>
<path fill="none" stroke="#63b8ff" d="M120.75,-109.75C113.03,-102.03 101.6,-90.6 92.28,-81.28"/>
<polygon fill="#63b8ff" stroke="#63b8ff" points="94.64,-78.69 85.09,-74.09 89.69,-83.64 94.64,-78.69"/>
</g>
<!-- Node27 -->
<g id="node27" class="node">
<title>Node27</title>
<g id="a_node27"><a xlink:title=" ">
<polygon fill="#e0e0e0" stroke="#999999" points="158.5,-74 118.5,-74 118.5,-55 158.5,-55 158.5,-74"/>
<text text-anchor="middle" x="138.5" y="-62" font-family="Helvetica,sans-Serif" font-size="10.00">utility</text>
</a>
</g>
</g>
<!-- Node23&#45;&gt;Node27 -->
<g id="edge42" class="edge">
<title>Node23&#45;&gt;Node27</title>
<path fill="none" stroke="#63b8ff" d="M130.99,-109.75C132.17,-102.8 133.86,-92.85 135.34,-84.13"/>
<polygon fill="#63b8ff" stroke="#63b8ff" points="138.82,-84.53 137.04,-74.09 131.92,-83.36 138.82,-84.53"/>
</g>
</g>
</svg>
        <g id="navigator" transform="translate(0 0)" fill="#404254">
                <rect fill="#f2f5e9" fill-opacity="0.5" stroke="#606060" stroke-width=".5" x="0" y="0" width="60" height="60"/>
                <use id="zoomplus" xlink:href="#zoomPlus" x="17" y="9" onmousedown="handleZoom(evt,'in')"/>
                <use id="zoomminus" xlink:href="#zoomMin" x="42" y="9" onmousedown="handleZoom(evt,'out')"/>
                <use id="reset" xlink:href="#resetDef" x="30" y="36" onmousedown="handleReset()"/>
                <g id="arrowUp" xlink:href="#dirArrow" transform="translate(30 24)" onmousedown="handlePan(0,-1)">
                  <use xlink:href="#rim" fill="#404040">
                        <set attributeName="fill" to="#808080" begin="arrowUp.mouseover" end="arrowUp.mouseout"/>
                  </use>
                  <path fill="none" stroke="white" stroke-width="1.5" d="M0,-3.0v7 M-2.5,-0.5L0,-3.0L2.5,-0.5"/>
                </g>
                <g id="arrowRight" xlink:href="#dirArrow" transform="rotate(90) translate(36 -43)" onmousedown="handlePan(1,0)">
                  <use xlink:href="#rim" fill="#404040">
                        <set attributeName="fill" to="#808080" begin="arrowRight.mouseover" end="arrowRight.mouseout"/>
                  </use>
                  <path fill="none" stroke="white" stroke-width="1.5" d="M0,-3.0v7 M-2.5,-0.5L0,-3.0L2.5,-0.5"/>
                </g>
                <g id="arrowDown" xlink:href="#dirArrow" transform="rotate(180) translate(-30 -48)" onmousedown="handlePan(0,1)">
                  <use xlink:href="#rim" fill="#404040">
                        <set attributeName="fill" to="#808080" begin="arrowDown.mouseover" end="arrowDown.mouseout"/>
                  </use>
                  <path fill="none" stroke="white" stroke-width="1.5" d="M0,-3.0v7 M-2.5,-0.5L0,-3.0L2.5,-0.5"/>
                </g>
                <g id="arrowLeft" xlink:href="#dirArrow" transform="rotate(270) translate(-36 17)" onmousedown="handlePan(-1,0)">
                  <use xlink:href="#rim" fill="#404040">
                        <set attributeName="fill" to="#808080" begin="arrowLeft.mouseover" end="arrowLeft.mouseout"/>
                  </use>
                  <path fill="none" stroke="white" stroke-width="1.5" d="M0,-3.0v7 M-2.5,-0.5L0,-3.0L2.5,-0.5"/>
                </g>
        </g>
        <svg viewBox="0 0 15 15" width="100%" height="30px" preserveAspectRatio="xMaxYMin meet">
         <g id="arrow_out" transform="scale(0.3 0.3)">
          <a xlink:href="Ioss__ConstructedVariableType_8C__incl_org.svg" target="_base">
           <rect id="button" ry="5" rx="5" y="6" x="6" height="38" width="38"
                fill="#f2f5e9" fill-opacity="0.5" stroke="#606060" stroke-width="1.0"/>
           <path id="arrow"
             d="M 11.500037,31.436501 C 11.940474,20.09759 22.043105,11.32322 32.158766,21.979434 L 37.068811,17.246167 C 37.068811,17.246167 37.088388,32 37.088388,32 L 22.160133,31.978069 C 22.160133,31.978069 26.997745,27.140456 26.997745,27.140456 C 18.528582,18.264221 13.291696,25.230495 11.500037,31.436501 z"
             style="fill:#404040;"/>
          </a>
         </g>
        </svg>
</svg>
