<?xml version="1.0" encoding="UTF-8" standalone="no"?>
<!DOCTYPE svg PUBLIC "-//W3C//DTD SVG 1.1//EN"
 "http://www.w3.org/Graphics/SVG/1.1/DTD/svg11.dtd">
<!-- Generated by graphviz version 9.0.0 (20230911.1827)
 -->
<!-- Title: src/Ioss_FieldManager.h Pages: 1 -->
<!--zoomable 248 -->

<svg id="main" version="1.1" xmlns="http://www.w3.org/2000/svg" xmlns:xlink="http://www.w3.org/1999/xlink" xml:space="preserve" onload="init(evt)">
<style type="text/css"><![CDATA[
.node, .edge {opacity: 0.7;}
.node.selected, .edge.selected {opacity: 1;}
.edge:hover path { stroke: red; }
.edge:hover polygon { stroke: red; fill: red; }
]]></style>

<defs>
  <circle id="rim" cx="0" cy="0" r="7"/>
  <circle id="rim2" cx="0" cy="0" r="3.5"/>
  <g id="zoomPlus">
    <use xlink:href="#rim" fill="#404040"><set attributeName="fill" to="#808080" begin="zoomplus.mouseover" end="zoomplus.mouseout"/></use>
    <path d="M-4,0h8M0,-4v8" fill="none" stroke="white" stroke-width="1.5" pointer-events="none"/>
  </g>
  <g id="zoomMin">
    <use xlink:href="#rim" fill="#404040"><set attributeName="fill" to="#808080" begin="zoomminus.mouseover" end="zoomminus.mouseout"/></use>
    <path d="M-4,0h8" fill="none" stroke="white" stroke-width="1.5" pointer-events="none"/>
  </g>
  <g id="arrowUp" transform="translate(30 24)">
    <use xlink:href="#rim"/>
    <path pointer-events="none" fill="none" stroke="white" stroke-width="1.5" d="M0,-3.0v7 M-2.5,-0.5L0,-3.0L2.5,-0.5"/>
  </g>
  <g id="arrowRight" transform="rotate(90) translate(36 -43)">
    <use xlink:href="#rim"/>
    <path pointer-events="none" fill="none" stroke="white" stroke-width="1.5" d="M0,-3.0v7 M-2.5,-0.5L0,-3.0L2.5,-0.5"/>
  </g>
  <g id="arrowDown" transform="rotate(180) translate(-30 -48)">
    <use xlink:href="#rim"/>
    <path pointer-events="none" fill="none" stroke="white" stroke-width="1.5" d="M0,-3.0v7 M-2.5,-0.5L0,-3.0L2.5,-0.5"/>
  </g>
  <g id="arrowLeft" transform="rotate(270) translate(-36 17)">
    <use xlink:href="#rim"/>
    <path pointer-events="none" fill="none" stroke="white" stroke-width="1.5" d="M0,-3.0v7 M-2.5,-0.5L0,-3.0L2.5,-0.5"/>
  </g>
  <g id="resetDef">
    <use xlink:href="#rim2" fill="#404040"><set attributeName="fill" to="#808080" begin="reset.mouseover" end="reset.mouseout"/></use>
  </g>
</defs>
<script type="application/ecmascript">
var viewWidth = 1378;
var viewHeight = 248;
var sectionId = 'dynsection-0';
</script>
<script type="application/ecmascript" xlink:href="svg.min.js"/>
<svg id="graph" class="graph">
<g id="viewport">
<title>src/Ioss_FieldManager.h</title>
<!-- Node1 -->
<g id="Node000001" class="node">
<title>Node1</title>
<g id="a_Node000001"><a xlink:title=" ">
<polygon fill="#999999" stroke="#666666" points="262.99,-240.25 140.49,-240.25 140.49,-221 262.99,-221 262.99,-240.25"/>
<text text-anchor="middle" x="201.74" y="-226.75" font-family="Helvetica,sans-Serif" font-size="10.00">src/Ioss_FieldManager.h</text>
</a>
</g>
</g>
<!-- Node2 -->
<g id="Node000002" class="node">
<title>Node2</title>
<g id="a_Node000002"><a xlink:title=" ">
<polygon fill="#e0e0e0" stroke="#999999" points="135.99,-129.75 61.49,-129.75 61.49,-110.5 135.99,-110.5 135.99,-129.75"/>
<text text-anchor="middle" x="98.74" y="-116.25" font-family="Helvetica,sans-Serif" font-size="10.00">ioss_export.h</text>
</a>
</g>
</g>
<!-- Node1&#45;&gt;Node2 -->
<g id="edge1_Node000001_Node000002" class="edge">
<title>Node1&#45;&gt;Node2</title>
<g id="a_edge1_Node000001_Node000002"><a xlink:title=" ">
<path fill="none" stroke="#63b8ff" d="M192.89,-220.82C183.94,-211.88 169.76,-197.59 157.74,-185 142.81,-169.36 126.12,-151.22 114.31,-138.28"/>
<polygon fill="#63b8ff" stroke="#63b8ff" points="117.01,-136.05 107.69,-131.01 111.83,-140.76 117.01,-136.05"/>
</a>
</g>
</g>
<!-- Node3 -->
<g id="Node000003" class="node">
<title>Node3</title>
<g id="a_Node000003"><a xlink:href="Ioss__CodeTypes_8h.html" target="_top" xlink:title=" ">
<polygon fill="white" stroke="#666666" points="327.62,-129.75 229.87,-129.75 229.87,-110.5 327.62,-110.5 327.62,-129.75"/>
<text text-anchor="middle" x="278.74" y="-116.25" font-family="Helvetica,sans-Serif" font-size="10.00">Ioss_CodeTypes.h</text>
</a>
</g>
</g>
<!-- Node1&#45;&gt;Node3 -->
<g id="edge2_Node000001_Node000003" class="edge">
<title>Node1&#45;&gt;Node3</title>
<g id="a_edge2_Node000001_Node000003"><a xlink:title=" ">
<path fill="none" stroke="#63b8ff" d="M212.08,-220.81C221.62,-212.3 235.78,-198.74 245.74,-185 255.95,-170.93 264.81,-153.28 270.78,-140.09"/>
<polygon fill="#63b8ff" stroke="#63b8ff" points="273.84,-141.82 274.63,-131.25 267.43,-139.02 273.84,-141.82"/>
</a>
</g>
</g>
<!-- Node5 -->
<g id="Node000005" class="node">
<title>Node5</title>
<g id="a_Node000005"><a xlink:title=" ">
<polygon fill="#e0e0e0" stroke="#999999" points="321.87,-19.25 273.62,-19.25 273.62,0 321.87,0 321.87,-19.25"/>
<text text-anchor="middle" x="297.74" y="-5.75" font-family="Helvetica,sans-Serif" font-size="10.00">cstddef</text>
</a>
</g>
</g>
<!-- Node1&#45;&gt;Node5 -->
<g id="edge16_Node000001_Node000005" class="edge">
<title>Node1&#45;&gt;Node5</title>
<g id="a_edge16_Node000001_Node000005"><a xlink:title=" ">
<path fill="none" stroke="#63b8ff" d="M158.87,-220.56C134.2,-213.78 103.65,-202.59 80.74,-185 29.42,-145.6 -27.29,-104.43 14.74,-55.25 46.21,-18.43 193.56,-11.81 262.28,-10.74"/>
<polygon fill="#63b8ff" stroke="#63b8ff" points="261.91,-14.25 271.87,-10.63 261.83,-7.25 261.91,-14.25"/>
</a>
</g>
</g>
<!-- Node7 -->
<g id="Node000007" class="node">
<title>Node7</title>
<g id="a_Node000007"><a xlink:title=" ">
<polygon fill="#e0e0e0" stroke="#999999" points="63.74,-74.5 23.74,-74.5 23.74,-55.25 63.74,-55.25 63.74,-74.5"/>
<text text-anchor="middle" x="43.74" y="-61" font-family="Helvetica,sans-Serif" font-size="10.00">string</text>
</a>
</g>
</g>
<!-- Node1&#45;&gt;Node7 -->
<g id="edge17_Node000001_Node000007" class="edge">
<title>Node1&#45;&gt;Node7</title>
<g id="a_edge17_Node000001_Node000007"><a xlink:title=" ">
<path fill="none" stroke="#63b8ff" d="M176.86,-220.55C142.69,-206.67 82.14,-176.75 52.74,-129.75 44.64,-116.8 42.62,-99.51 42.5,-86.19"/>
<polygon fill="#63b8ff" stroke="#63b8ff" points="45.99,-86.51 42.78,-76.42 38.99,-86.31 45.99,-86.51"/>
</a>
</g>
</g>
<!-- Node8 -->
<g id="Node000008" class="node">
<title>Node8</title>
<g id="a_Node000008"><a xlink:title=" ">
<polygon fill="#e0e0e0" stroke="#999999" points="481.24,-74.5 438.24,-74.5 438.24,-55.25 481.24,-55.25 481.24,-74.5"/>
<text text-anchor="middle" x="459.74" y="-61" font-family="Helvetica,sans-Serif" font-size="10.00">vector</text>
</a>
</g>
</g>
<!-- Node1&#45;&gt;Node8 -->
<g id="edge18_Node000001_Node000008" class="edge">
<title>Node1&#45;&gt;Node8</title>
<g id="a_edge18_Node000001_Node000008"><a xlink:title=" ">
<path fill="none" stroke="#63b8ff" d="M217.87,-220.72C248.28,-203.81 315.94,-165.51 370.74,-129.75 394.55,-114.21 420.9,-95.04 438.71,-81.78"/>
<polygon fill="#63b8ff" stroke="#63b8ff" points="440.77,-84.6 446.67,-75.81 436.57,-79 440.77,-84.6"/>
</a>
</g>
</g>
<!-- Node11 -->
<g id="Node000011" class="node">
<title>Node11</title>
<g id="a_Node000011"><a xlink:href="Ioss__Field_8h.html" target="_top" xlink:title=" ">
<polygon fill="white" stroke="#666666" points="236.37,-185 167.12,-185 167.12,-165.75 236.37,-165.75 236.37,-185"/>
<text text-anchor="middle" x="201.74" y="-171.5" font-family="Helvetica,sans-Serif" font-size="10.00">Ioss_Field.h</text>
</a>
</g>
</g>
<!-- Node1&#45;&gt;Node11 -->
<g id="edge10_Node000001_Node000011" class="edge">
<title>Node1&#45;&gt;Node11</title>
<g id="a_edge10_Node000001_Node000011"><a xlink:title=" ">
<path fill="none" stroke="#63b8ff" d="M201.74,-220.83C201.74,-214.32 201.74,-205.17 201.74,-196.87"/>
<polygon fill="#63b8ff" stroke="#63b8ff" points="205.24,-196.87 201.74,-186.87 198.24,-196.87 205.24,-196.87"/>
</a>
</g>
</g>
<!-- Node12 -->
<g id="Node000012" class="node">
<title>Node12</title>
<g id="a_Node000012"><a xlink:href="robin__map_8h.html" target="_top" xlink:title=" ">
<polygon fill="white" stroke="#666666" points="981.37,-185 912.12,-185 912.12,-165.75 981.37,-165.75 981.37,-185"/>
<text text-anchor="middle" x="946.74" y="-171.5" font-family="Helvetica,sans-Serif" font-size="10.00">robin_map.h</text>
</a>
</g>
</g>
<!-- Node1&#45;&gt;Node12 -->
<g id="edge19_Node000001_Node000012" class="edge">
<title>Node1&#45;&gt;Node12</title>
<g id="a_edge19_Node000001_Node000012"><a xlink:title=" ">
<path fill="none" stroke="#63b8ff" d="M263.34,-225.22C408.88,-214.82 771.42,-188.91 900.34,-179.69"/>
<polygon fill="#63b8ff" stroke="#63b8ff" points="900.48,-183.19 910.2,-178.99 899.98,-176.21 900.48,-183.19"/>
</a>
</g>
</g>
<!-- Node4 -->
<g id="Node000004" class="node">
<title>Node4</title>
<g id="a_Node000004"><a xlink:title=" ">
<polygon fill="#e0e0e0" stroke="#999999" points="467.62,-19.25 429.87,-19.25 429.87,0 467.62,0 467.62,-19.25"/>
<text text-anchor="middle" x="448.74" y="-5.75" font-family="Helvetica,sans-Serif" font-size="10.00">array</text>
</a>
</g>
</g>
<!-- Node3&#45;&gt;Node4 -->
<g id="edge3_Node000003_Node000004" class="edge">
<title>Node3&#45;&gt;Node4</title>
<g id="a_edge3_Node000003_Node000004"><a xlink:title=" ">
<path fill="none" stroke="#63b8ff" d="M294.17,-110.09C309.22,-101.21 332.72,-87.19 352.74,-74.5 378.11,-58.42 406.72,-39.25 426.05,-26.13"/>
<polygon fill="#63b8ff" stroke="#63b8ff" points="427.96,-29.07 434.26,-20.55 424.02,-23.28 427.96,-29.07"/>
</a>
</g>
</g>
<!-- Node3&#45;&gt;Node5 -->
<g id="edge4_Node000003_Node000005" class="edge">
<title>Node3&#45;&gt;Node5</title>
<g id="a_edge4_Node000003_Node000005"><a xlink:title=" ">
<path fill="none" stroke="#63b8ff" d="M229.62,-112.9C183.3,-104.93 124.34,-88.03 148.74,-55.25 174.67,-20.41 226.83,-11.74 262.02,-10.1"/>
<polygon fill="#63b8ff" stroke="#63b8ff" points="261.83,-13.6 271.73,-9.83 261.64,-6.61 261.83,-13.6"/>
</a>
</g>
</g>
<!-- Node6 -->
<g id="Node000006" class="node">
<title>Node6</title>
<g id="a_Node000006"><a xlink:title=" ">
<polygon fill="#e0e0e0" stroke="#999999" points="608.37,-19.25 563.12,-19.25 563.12,0 608.37,0 608.37,-19.25"/>
<text text-anchor="middle" x="585.74" y="-5.75" font-family="Helvetica,sans-Serif" font-size="10.00">cstdint</text>
</a>
</g>
</g>
<!-- Node3&#45;&gt;Node6 -->
<g id="edge5_Node000003_Node000006" class="edge">
<title>Node3&#45;&gt;Node6</title>
<g id="a_edge5_Node000003_Node000006"><a xlink:title=" ">
<path fill="none" stroke="#63b8ff" d="M299.42,-110.01C334.53,-94.59 404.44,-64.18 429.74,-55.25 471.14,-40.63 519.96,-27.27 551.81,-19.06"/>
<polygon fill="#63b8ff" stroke="#63b8ff" points="552.44,-22.51 561.27,-16.65 550.71,-15.73 552.44,-22.51"/>
</a>
</g>
</g>
<!-- Node3&#45;&gt;Node7 -->
<g id="edge6_Node000003_Node000007" class="edge">
<title>Node3&#45;&gt;Node7</title>
<g id="a_edge6_Node000003_Node000007"><a xlink:title=" ">
<path fill="none" stroke="#63b8ff" d="M238.61,-110.03C192.36,-99.55 117.31,-82.55 75.12,-72.99"/>
<polygon fill="#63b8ff" stroke="#63b8ff" points="76.15,-69.63 65.62,-70.83 74.6,-76.46 76.15,-69.63"/>
</a>
</g>
</g>
<!-- Node3&#45;&gt;Node8 -->
<g id="edge7_Node000003_Node000008" class="edge">
<title>Node3&#45;&gt;Node8</title>
<g id="a_edge7_Node000003_Node000008"><a xlink:title=" ">
<path fill="none" stroke="#63b8ff" d="M309.45,-110.09C342.11,-100.48 393.57,-85.34 426.99,-75.51"/>
<polygon fill="#63b8ff" stroke="#63b8ff" points="427.94,-78.88 436.55,-72.7 425.97,-72.16 427.94,-78.88"/>
</a>
</g>
</g>
<!-- Node9 -->
<g id="Node000009" class="node">
<title>Node9</title>
<g id="a_Node000009"><a xlink:title=" ">
<polygon fill="#e0e0e0" stroke="#999999" points="273.62,-74.5 157.87,-74.5 157.87,-55.25 273.62,-55.25 273.62,-74.5"/>
<text text-anchor="middle" x="215.74" y="-61" font-family="Helvetica,sans-Serif" font-size="10.00">SEACASIoss_config.h</text>
</a>
</g>
</g>
<!-- Node3&#45;&gt;Node9 -->
<g id="edge8_Node000003_Node000009" class="edge">
<title>Node3&#45;&gt;Node9</title>
<g id="a_edge8_Node000003_Node000009"><a xlink:title=" ">
<path fill="none" stroke="#63b8ff" d="M268.05,-110.09C259.04,-102.47 245.91,-91.37 235.06,-82.2"/>
<polygon fill="#63b8ff" stroke="#63b8ff" points="237.32,-79.53 227.43,-75.75 232.8,-84.88 237.32,-79.53"/>
</a>
</g>
</g>
<!-- Node10 -->
<g id="Node000010" class="node">
<title>Node10</title>
<g id="a_Node000010"><a xlink:title=" ">
<polygon fill="#e0e0e0" stroke="#999999" points="344.12,-74.5 291.37,-74.5 291.37,-55.25 344.12,-55.25 344.12,-74.5"/>
<text text-anchor="middle" x="317.74" y="-61" font-family="Helvetica,sans-Serif" font-size="10.00">complex</text>
</a>
</g>
</g>
<!-- Node3&#45;&gt;Node10 -->
<g id="edge9_Node000003_Node000010" class="edge">
<title>Node3&#45;&gt;Node10</title>
<g id="a_edge9_Node000003_Node000010"><a xlink:title=" ">
<path fill="none" stroke="#63b8ff" d="M285.18,-110.33C290.4,-103.21 297.93,-92.93 304.43,-84.05"/>
<polygon fill="#63b8ff" stroke="#63b8ff" points="307.18,-86.22 310.27,-76.08 301.54,-82.08 307.18,-86.22"/>
</a>
</g>
</g>
<!-- Node11&#45;&gt;Node2 -->
<g id="edge11_Node000011_Node000002" class="edge">
<title>Node11&#45;&gt;Node2</title>
<g id="a_edge11_Node000011_Node000002"><a xlink:title=" ">
<path fill="none" stroke="#63b8ff" d="M184.27,-165.34C168.44,-157.16 144.84,-144.96 126.44,-135.44"/>
<polygon fill="#63b8ff" stroke="#63b8ff" points="128.13,-132.38 117.64,-130.9 124.92,-138.6 128.13,-132.38"/>
</a>
</g>
</g>
<!-- Node11&#45;&gt;Node3 -->
<g id="edge12_Node000011_Node000003" class="edge">
<title>Node11&#45;&gt;Node3</title>
<g id="a_edge12_Node000011_Node000003"><a xlink:title=" ">
<path fill="none" stroke="#63b8ff" d="M214.8,-165.34C226.2,-157.46 242.97,-145.86 256.48,-136.52"/>
<polygon fill="#63b8ff" stroke="#63b8ff" points="258.14,-139.63 264.37,-131.06 254.16,-133.87 258.14,-139.63"/>
</a>
</g>
</g>
<!-- Node11&#45;&gt;Node5 -->
<g id="edge13_Node000011_Node000005" class="edge">
<title>Node11&#45;&gt;Node5</title>
<g id="a_edge13_Node000011_Node000005"><a xlink:title=" ">
<path fill="none" stroke="#63b8ff" d="M197.84,-165.36C192.18,-152.66 181.03,-129.01 168.74,-110.5 157.23,-93.15 145.83,-94.08 138.74,-74.5 135.83,-66.46 133.57,-62.07 138.74,-55.25 153.58,-35.67 219.82,-22.31 261.98,-15.61"/>
<polygon fill="#63b8ff" stroke="#63b8ff" points="262.32,-19.1 271.67,-14.13 261.26,-12.18 262.32,-19.1"/>
</a>
</g>
</g>
<!-- Node11&#45;&gt;Node7 -->
<g id="edge14_Node000011_Node000007" class="edge">
<title>Node11&#45;&gt;Node7</title>
<g id="a_edge14_Node000011_Node000007"><a xlink:title=" ">
<path fill="none" stroke="#63b8ff" d="M195.69,-165.44C186.2,-151.99 166.61,-126.42 144.74,-110.5 123.42,-94.99 95.86,-83.26 74.92,-75.73"/>
<polygon fill="#63b8ff" stroke="#63b8ff" points="76.07,-72.43 65.47,-72.48 73.79,-79.05 76.07,-72.43"/>
</a>
</g>
</g>
<!-- Node11&#45;&gt;Node8 -->
<g id="edge15_Node000011_Node000008" class="edge">
<title>Node11&#45;&gt;Node8</title>
<g id="a_edge15_Node000011_Node000008"><a xlink:title=" ">
<path fill="none" stroke="#63b8ff" d="M233.91,-165.32C261.6,-157.16 302.4,-144.23 336.74,-129.75 371.5,-115.09 409.83,-94.43 434.31,-80.61"/>
<polygon fill="#63b8ff" stroke="#63b8ff" points="435.94,-83.71 442.89,-75.72 432.47,-77.63 435.94,-83.71"/>
</a>
</g>
</g>
<!-- Node12&#45;&gt;Node5 -->
<g id="edge20_Node000012_Node000005" class="edge">
<title>Node12&#45;&gt;Node5</title>
<g id="a_edge20_Node000012_Node000005"><a xlink:title=" ">
<path fill="none" stroke="#63b8ff" d="M911.69,-169.69C837.86,-159.06 661.79,-129.63 523.74,-74.5 507.97,-68.2 506.52,-61.51 490.74,-55.25 437.9,-34.29 372.84,-21.79 333.36,-15.57"/>
<polygon fill="#63b8ff" stroke="#63b8ff" points="334.12,-12.14 323.71,-14.1 333.07,-19.06 334.12,-12.14"/>
</a>
</g>
</g>
<!-- Node13 -->
<g id="Node000013" class="node">
<title>Node13</title>
<g id="a_Node000013"><a xlink:title=" ">
<polygon fill="#e0e0e0" stroke="#999999" points="847.74,-129.75 789.74,-129.75 789.74,-110.5 847.74,-110.5 847.74,-129.75"/>
<text text-anchor="middle" x="818.74" y="-116.25" font-family="Helvetica,sans-Serif" font-size="10.00">functional</text>
</a>
</g>
</g>
<!-- Node12&#45;&gt;Node13 -->
<g id="edge21_Node000012_Node000013" class="edge">
<title>Node12&#45;&gt;Node13</title>
<g id="a_edge21_Node000012_Node000013"><a xlink:title=" ">
<path fill="none" stroke="#63b8ff" d="M925.03,-165.34C904.71,-156.89 874.1,-144.15 850.93,-134.52"/>
<polygon fill="#63b8ff" stroke="#63b8ff" points="852.54,-131.39 841.96,-130.78 849.85,-137.86 852.54,-131.39"/>
</a>
</g>
</g>
<!-- Node14 -->
<g id="Node000014" class="node">
<title>Node14</title>
<g id="a_Node000014"><a xlink:title=" ">
<polygon fill="#e0e0e0" stroke="#999999" points="937.87,-129.75 865.62,-129.75 865.62,-110.5 937.87,-110.5 937.87,-129.75"/>
<text text-anchor="middle" x="901.74" y="-116.25" font-family="Helvetica,sans-Serif" font-size="10.00">initializer_list</text>
</a>
</g>
</g>
<!-- Node12&#45;&gt;Node14 -->
<g id="edge22_Node000012_Node000014" class="edge">
<title>Node12&#45;&gt;Node14</title>
<g id="a_edge22_Node000012_Node000014"><a xlink:title=" ">
<path fill="none" stroke="#63b8ff" d="M939.31,-165.58C933.16,-158.3 924.23,-147.73 916.62,-138.73"/>
<polygon fill="#63b8ff" stroke="#63b8ff" points="919.44,-136.64 910.31,-131.27 914.09,-141.16 919.44,-136.64"/>
</a>
</g>
</g>
<!-- Node15 -->
<g id="Node000015" class="node">
<title>Node15</title>
<g id="a_Node000015"><a xlink:title=" ">
<polygon fill="#e0e0e0" stroke="#999999" points="1232.37,-74.5 1181.12,-74.5 1181.12,-55.25 1232.37,-55.25 1232.37,-74.5"/>
<text text-anchor="middle" x="1206.74" y="-61" font-family="Helvetica,sans-Serif" font-size="10.00">memory</text>
</a>
</g>
</g>
<!-- Node12&#45;&gt;Node15 -->
<g id="edge23_Node000012_Node000015" class="edge">
<title>Node12&#45;&gt;Node15</title>
<g id="a_edge23_Node000012_Node000015"><a xlink:title=" ">
<path fill="none" stroke="#63b8ff" d="M968.46,-165.31C1014.25,-146.2 1120.87,-101.71 1174.59,-79.29"/>
<polygon fill="#63b8ff" stroke="#63b8ff" points="1175.62,-82.65 1183.5,-75.57 1172.93,-76.19 1175.62,-82.65"/>
</a>
</g>
</g>
<!-- Node16 -->
<g id="Node000016" class="node">
<title>Node16</title>
<g id="a_Node000016"><a xlink:title=" ">
<polygon fill="#e0e0e0" stroke="#999999" points="1312.62,-74.5 1250.87,-74.5 1250.87,-55.25 1312.62,-55.25 1312.62,-74.5"/>
<text text-anchor="middle" x="1281.74" y="-61" font-family="Helvetica,sans-Serif" font-size="10.00">type_traits</text>
</a>
</g>
</g>
<!-- Node12&#45;&gt;Node16 -->
<g id="edge24_Node000012_Node000016" class="edge">
<title>Node12&#45;&gt;Node16</title>
<g id="a_edge24_Node000012_Node000016"><a xlink:title=" ">
<path fill="none" stroke="#63b8ff" d="M976.87,-165.25C1006.04,-156.37 1051.5,-142.39 1090.74,-129.75 1144.36,-112.48 1206.13,-91.65 1244.56,-78.58"/>
<polygon fill="#63b8ff" stroke="#63b8ff" points="1245.46,-81.97 1253.8,-75.44 1243.2,-75.35 1245.46,-81.97"/>
</a>
</g>
</g>
<!-- Node17 -->
<g id="Node000017" class="node">
<title>Node17</title>
<g id="a_Node000017"><a xlink:title=" ">
<polygon fill="#e0e0e0" stroke="#999999" points="1370.37,-74.5 1331.12,-74.5 1331.12,-55.25 1370.37,-55.25 1370.37,-74.5"/>
<text text-anchor="middle" x="1350.74" y="-61" font-family="Helvetica,sans-Serif" font-size="10.00">utility</text>
</a>
</g>
</g>
<!-- Node12&#45;&gt;Node17 -->
<g id="edge25_Node000012_Node000017" class="edge">
<title>Node12&#45;&gt;Node17</title>
<g id="a_edge25_Node000012_Node000017"><a xlink:title=" ">
<path fill="none" stroke="#63b8ff" d="M981.84,-166.49C1019.33,-157.95 1080.43,-143.66 1132.74,-129.75 1213.93,-108.16 1236.06,-99.92 1319.95,-75.03"/>
<polygon fill="#63b8ff" stroke="#63b8ff" points="1320.73,-78.45 1329.33,-72.26 1318.74,-71.74 1320.73,-78.45"/>
</a>
</g>
</g>
<!-- Node18 -->
<g id="Node000018" class="node">
<title>Node18</title>
<g id="a_Node000018"><a xlink:href="robin__hash_8h.html" target="_top" xlink:title=" ">
<polygon fill="white" stroke="#666666" points="1027.49,-129.75 955.99,-129.75 955.99,-110.5 1027.49,-110.5 1027.49,-129.75"/>
<text text-anchor="middle" x="991.74" y="-116.25" font-family="Helvetica,sans-Serif" font-size="10.00">robin_hash.h</text>
</a>
</g>
</g>
<!-- Node12&#45;&gt;Node18 -->
<g id="edge26_Node000012_Node000018" class="edge">
<title>Node12&#45;&gt;Node18</title>
<g id="a_edge26_Node000012_Node000018"><a xlink:title=" ">
<path fill="none" stroke="#63b8ff" d="M954.17,-165.58C960.32,-158.3 969.26,-147.73 976.87,-138.73"/>
<polygon fill="#63b8ff" stroke="#63b8ff" points="979.39,-141.16 983.17,-131.27 974.04,-136.64 979.39,-141.16"/>
</a>
</g>
</g>
<!-- Node18&#45;&gt;Node5 -->
<g id="edge30_Node000018_Node000005" class="edge">
<title>Node18&#45;&gt;Node5</title>
<g id="a_edge30_Node000018_Node000005"><a xlink:title=" ">
<path fill="none" stroke="#63b8ff" d="M955.93,-111.96C952.83,-111.43 949.73,-110.94 946.74,-110.5 788.06,-87.38 745.03,-105.74 587.74,-74.5 558.61,-68.71 552.57,-62.41 523.74,-55.25 457.11,-38.69 378.22,-24.28 333.47,-16.57"/>
<polygon fill="#63b8ff" stroke="#63b8ff" points="334.27,-13.16 323.82,-14.93 333.09,-20.06 334.27,-13.16"/>
</a>
</g>
</g>
<!-- Node18&#45;&gt;Node6 -->
<g id="edge31_Node000018_Node000006" class="edge">
<title>Node18&#45;&gt;Node6</title>
<g id="a_edge31_Node000018_Node000006"><a xlink:title=" ">
<path fill="none" stroke="#63b8ff" d="M955.93,-111.98C952.83,-111.44 949.73,-110.94 946.74,-110.5 871.15,-99.3 663.52,-123.34 604.74,-74.5 592.08,-63.98 587.62,-45.41 586.16,-31"/>
<polygon fill="#63b8ff" stroke="#63b8ff" points="589.67,-31.01 585.61,-21.22 582.68,-31.41 589.67,-31.01"/>
</a>
</g>
</g>
<!-- Node18&#45;&gt;Node8 -->
<g id="edge41_Node000018_Node000008" class="edge">
<title>Node18&#45;&gt;Node8</title>
<g id="a_edge41_Node000018_Node000008"><a xlink:title=" ">
<path fill="none" stroke="#63b8ff" d="M955.94,-111.92C952.83,-111.4 949.74,-110.92 946.74,-110.5 764.25,-85.12 717.05,-93.17 533.74,-74.5 520.24,-73.13 505.39,-71.43 492.55,-69.91"/>
<polygon fill="#63b8ff" stroke="#63b8ff" points="493.27,-66.47 482.92,-68.75 492.43,-73.42 493.27,-66.47"/>
</a>
</g>
</g>
<!-- Node18&#45;&gt;Node15 -->
<g id="edge35_Node000018_Node000015" class="edge">
<title>Node18&#45;&gt;Node15</title>
<g id="a_edge35_Node000018_Node000015"><a xlink:title=" ">
<path fill="none" stroke="#63b8ff" d="M1027.73,-110.21C1067.11,-100.46 1129.94,-84.9 1169.73,-75.04"/>
<polygon fill="#63b8ff" stroke="#63b8ff" points="1170.46,-78.47 1179.32,-72.67 1168.78,-71.67 1170.46,-78.47"/>
</a>
</g>
</g>
<!-- Node18&#45;&gt;Node16 -->
<g id="edge39_Node000018_Node000016" class="edge">
<title>Node18&#45;&gt;Node16</title>
<g id="a_edge39_Node000018_Node000016"><a xlink:title=" ">
<path fill="none" stroke="#63b8ff" d="M1027.84,-113.1C1074.41,-105.23 1158.22,-90.77 1239.79,-74.83"/>
<polygon fill="#63b8ff" stroke="#63b8ff" points="1240.13,-78.33 1249.27,-72.96 1238.78,-71.46 1240.13,-78.33"/>
</a>
</g>
</g>
<!-- Node18&#45;&gt;Node17 -->
<g id="edge40_Node000018_Node000017" class="edge">
<title>Node18&#45;&gt;Node17</title>
<g id="a_edge40_Node000018_Node000017"><a xlink:title=" ">
<path fill="none" stroke="#63b8ff" d="M1027.7,-116.1C1086.72,-110.74 1207.91,-98.07 1319.74,-74.6"/>
<polygon fill="#63b8ff" stroke="#63b8ff" points="1320.35,-78.05 1329.4,-72.54 1318.89,-71.21 1320.35,-78.05"/>
</a>
</g>
</g>
<!-- Node19 -->
<g id="Node000019" class="node">
<title>Node19</title>
<g id="a_Node000019"><a xlink:title=" ">
<polygon fill="#e0e0e0" stroke="#999999" points="797.62,-19.25 741.87,-19.25 741.87,0 797.62,0 797.62,-19.25"/>
<text text-anchor="middle" x="769.74" y="-5.75" font-family="Helvetica,sans-Serif" font-size="10.00">algorithm</text>
</a>
</g>
</g>
<!-- Node18&#45;&gt;Node19 -->
<g id="edge27_Node000018_Node000019" class="edge">
<title>Node18&#45;&gt;Node19</title>
<g id="a_edge27_Node000018_Node000019"><a xlink:title=" ">
<path fill="none" stroke="#63b8ff" d="M955.87,-111.9C897.43,-100.05 787.82,-77.52 784.74,-74.5 773.29,-63.26 769.9,-45.05 769.17,-30.94"/>
<polygon fill="#63b8ff" stroke="#63b8ff" points="772.67,-30.94 769.1,-20.97 765.67,-30.99 772.67,-30.94"/>
</a>
</g>
</g>
<!-- Node20 -->
<g id="Node000020" class="node">
<title>Node20</title>
<g id="a_Node000020"><a xlink:title=" ">
<polygon fill="#e0e0e0" stroke="#999999" points="661.87,-74.5 613.62,-74.5 613.62,-55.25 661.87,-55.25 661.87,-74.5"/>
<text text-anchor="middle" x="637.74" y="-61" font-family="Helvetica,sans-Serif" font-size="10.00">cassert</text>
</a>
</g>
</g>
<!-- Node18&#45;&gt;Node20 -->
<g id="edge28_Node000018_Node000020" class="edge">
<title>Node18&#45;&gt;Node20</title>
<g id="a_edge28_Node000018_Node000020"><a xlink:title=" ">
<path fill="none" stroke="#63b8ff" d="M955.91,-112.06C952.82,-111.51 949.73,-110.98 946.74,-110.5 828.19,-91.42 794.14,-97.78 673.35,-74.79"/>
<polygon fill="#63b8ff" stroke="#63b8ff" points="674.14,-71.38 663.66,-72.91 672.81,-78.25 674.14,-71.38"/>
</a>
</g>
</g>
<!-- Node21 -->
<g id="Node000021" class="node">
<title>Node21</title>
<g id="a_Node000021"><a xlink:title=" ">
<polygon fill="#e0e0e0" stroke="#999999" points="981.24,-19.25 938.24,-19.25 938.24,0 981.24,0 981.24,-19.25"/>
<text text-anchor="middle" x="959.74" y="-5.75" font-family="Helvetica,sans-Serif" font-size="10.00">cmath</text>
</a>
</g>
</g>
<!-- Node18&#45;&gt;Node21 -->
<g id="edge29_Node000018_Node000021" class="edge">
<title>Node18&#45;&gt;Node21</title>
<g id="a_edge29_Node000018_Node000021"><a xlink:title=" ">
<path fill="none" stroke="#63b8ff" d="M1000.65,-110.31C1012.1,-97.87 1029.42,-74.51 1019.74,-55.25 1013.38,-42.6 1001.56,-32.63 990.07,-25.35"/>
<polygon fill="#63b8ff" stroke="#63b8ff" points="991.93,-22.38 981.52,-20.41 988.43,-28.44 991.93,-22.38"/>
</a>
</g>
</g>
<!-- Node22 -->
<g id="Node000022" class="node">
<title>Node22</title>
<g id="a_Node000022"><a xlink:title=" ">
<polygon fill="#e0e0e0" stroke="#999999" points="737.74,-74.5 679.74,-74.5 679.74,-55.25 737.74,-55.25 737.74,-74.5"/>
<text text-anchor="middle" x="708.74" y="-61" font-family="Helvetica,sans-Serif" font-size="10.00">exception</text>
</a>
</g>
</g>
<!-- Node18&#45;&gt;Node22 -->
<g id="edge32_Node000018_Node000022" class="edge">
<title>Node18&#45;&gt;Node22</title>
<g id="a_edge32_Node000018_Node000022"><a xlink:title=" ">
<path fill="none" stroke="#63b8ff" d="M955.88,-112.23C952.79,-111.64 949.71,-111.06 946.74,-110.5 860.13,-94.2 838.28,-91.17 751.74,-74.5 750.76,-74.31 749.77,-74.12 748.76,-73.92"/>
<polygon fill="#63b8ff" stroke="#63b8ff" points="749.85,-70.57 739.36,-72.07 748.5,-77.44 749.85,-70.57"/>
</a>
</g>
</g>
<!-- Node23 -->
<g id="Node000023" class="node">
<title>Node23</title>
<g id="a_Node000023"><a xlink:title=" ">
<polygon fill="#e0e0e0" stroke="#999999" points="1046.74,-19.25 1000.74,-19.25 1000.74,0 1046.74,0 1046.74,-19.25"/>
<text text-anchor="middle" x="1023.74" y="-5.75" font-family="Helvetica,sans-Serif" font-size="10.00">iterator</text>
</a>
</g>
</g>
<!-- Node18&#45;&gt;Node23 -->
<g id="edge33_Node000018_Node000023" class="edge">
<title>Node18&#45;&gt;Node23</title>
<g id="a_edge33_Node000018_Node000023"><a xlink:title=" ">
<path fill="none" stroke="#63b8ff" d="M1004.65,-110.21C1014.98,-102.21 1028.7,-89.47 1034.74,-74.5 1040.48,-60.28 1036.99,-43.1 1032.47,-30.14"/>
<polygon fill="#63b8ff" stroke="#63b8ff" points="1035.8,-29.02 1028.83,-21.03 1029.3,-31.62 1035.8,-29.02"/>
</a>
</g>
</g>
<!-- Node24 -->
<g id="Node000024" class="node">
<title>Node24</title>
<g id="a_Node000024"><a xlink:title=" ">
<polygon fill="#e0e0e0" stroke="#999999" points="1104.37,-19.25 1065.12,-19.25 1065.12,0 1104.37,0 1104.37,-19.25"/>
<text text-anchor="middle" x="1084.74" y="-5.75" font-family="Helvetica,sans-Serif" font-size="10.00">limits</text>
</a>
</g>
</g>
<!-- Node18&#45;&gt;Node24 -->
<g id="edge34_Node000018_Node000024" class="edge">
<title>Node18&#45;&gt;Node24</title>
<g id="a_edge34_Node000018_Node000024"><a xlink:title=" ">
<path fill="none" stroke="#63b8ff" d="M1006.71,-110.12C1019.33,-101.98 1037.26,-89.07 1049.74,-74.5 1061.19,-61.13 1070.54,-43.41 1076.68,-30.03"/>
<polygon fill="#63b8ff" stroke="#63b8ff" points="1079.84,-31.55 1080.63,-20.99 1073.42,-28.75 1079.84,-31.55"/>
</a>
</g>
</g>
<!-- Node25 -->
<g id="Node000025" class="node">
<title>Node25</title>
<g id="a_Node000025"><a xlink:title=" ">
<polygon fill="#e0e0e0" stroke="#999999" points="827.74,-74.5 793.74,-74.5 793.74,-55.25 827.74,-55.25 827.74,-74.5"/>
<text text-anchor="middle" x="810.74" y="-61" font-family="Helvetica,sans-Serif" font-size="10.00">new</text>
</a>
</g>
</g>
<!-- Node18&#45;&gt;Node25 -->
<g id="edge36_Node000018_Node000025" class="edge">
<title>Node18&#45;&gt;Node25</title>
<g id="a_edge36_Node000018_Node000025"><a xlink:title=" ">
<path fill="none" stroke="#63b8ff" d="M959.52,-110.06C930.5,-101.84 886.43,-89.21 838.97,-74.81"/>
<polygon fill="#63b8ff" stroke="#63b8ff" points="840.18,-71.52 829.6,-71.95 838.14,-78.22 840.18,-71.52"/>
</a>
</g>
</g>
<!-- Node26 -->
<g id="Node000026" class="node">
<title>Node26</title>
<g id="a_Node000026"><a xlink:title=" ">
<polygon fill="#e0e0e0" stroke="#999999" points="1181.12,-19.25 1122.37,-19.25 1122.37,0 1181.12,0 1181.12,-19.25"/>
<text text-anchor="middle" x="1151.74" y="-5.75" font-family="Helvetica,sans-Serif" font-size="10.00">stdexcept</text>
</a>
</g>
</g>
<!-- Node18&#45;&gt;Node26 -->
<g id="edge37_Node000018_Node000026" class="edge">
<title>Node18&#45;&gt;Node26</title>
<g id="a_edge37_Node000018_Node000026"><a xlink:title=" ">
<path fill="none" stroke="#63b8ff" d="M1009.21,-110.06C1025.3,-101.49 1049.66,-87.97 1069.74,-74.5 1092.17,-59.46 1116.39,-40.18 1132.65,-26.75"/>
<polygon fill="#63b8ff" stroke="#63b8ff" points="1134.63,-29.66 1140.07,-20.57 1130.15,-24.29 1134.63,-29.66"/>
</a>
</g>
</g>
<!-- Node27 -->
<g id="Node000027" class="node">
<title>Node27</title>
<g id="a_Node000027"><a xlink:title=" ">
<polygon fill="#e0e0e0" stroke="#999999" points="1010.24,-74.5 973.24,-74.5 973.24,-55.25 1010.24,-55.25 1010.24,-74.5"/>
<text text-anchor="middle" x="991.74" y="-61" font-family="Helvetica,sans-Serif" font-size="10.00">tuple</text>
</a>
</g>
</g>
<!-- Node18&#45;&gt;Node27 -->
<g id="edge38_Node000018_Node000027" class="edge">
<title>Node18&#45;&gt;Node27</title>
<g id="a_edge38_Node000018_Node000027"><a xlink:title=" ">
<path fill="none" stroke="#63b8ff" d="M991.74,-110.33C991.74,-103.82 991.74,-94.67 991.74,-86.37"/>
<polygon fill="#63b8ff" stroke="#63b8ff" points="995.24,-86.37 991.74,-76.37 988.24,-86.37 995.24,-86.37"/>
</a>
</g>
</g>
<!-- Node28 -->
<g id="Node000028" class="node">
<title>Node28</title>
<g id="a_Node000028"><a xlink:href="robin__growth__policy_8h.html" target="_top" xlink:title=" ">
<polygon fill="white" stroke="#666666" points="955.24,-74.5 846.24,-74.5 846.24,-55.25 955.24,-55.25 955.24,-74.5"/>
<text text-anchor="middle" x="900.74" y="-61" font-family="Helvetica,sans-Serif" font-size="10.00">robin_growth_policy.h</text>
</a>
</g>
</g>
<!-- Node18&#45;&gt;Node28 -->
<g id="edge42_Node000018_Node000028" class="edge">
<title>Node18&#45;&gt;Node28</title>
<g id="a_edge42_Node000018_Node000028"><a xlink:title=" ">
<path fill="none" stroke="#63b8ff" d="M976.3,-110.09C962.58,-102.06 942.24,-90.16 926.13,-80.73"/>
<polygon fill="#63b8ff" stroke="#63b8ff" points="927.96,-77.75 917.56,-75.72 924.42,-83.79 927.96,-77.75"/>
</a>
</g>
</g>
<!-- Node28&#45;&gt;Node4 -->
<g id="edge44_Node000028_Node000004" class="edge">
<title>Node28&#45;&gt;Node4</title>
<g id="a_edge44_Node000028_Node000004"><a xlink:title=" ">
<path fill="none" stroke="#63b8ff" d="M845.94,-56.42C842.83,-56.02 839.75,-55.63 836.74,-55.25 703.41,-38.6 544.01,-20.99 478.79,-13.88"/>
<polygon fill="#63b8ff" stroke="#63b8ff" points="479.56,-10.44 469.24,-12.84 478.8,-17.4 479.56,-10.44"/>
</a>
</g>
</g>
<!-- Node28&#45;&gt;Node5 -->
<g id="edge47_Node000028_Node000005" class="edge">
<title>Node28&#45;&gt;Node5</title>
<g id="a_edge47_Node000028_Node000005"><a xlink:title=" ">
<path fill="none" stroke="#63b8ff" d="M845.95,-56.3C842.84,-55.93 839.75,-55.58 836.74,-55.25 738.53,-44.57 437.62,-21.3 333.58,-13.35"/>
<polygon fill="#63b8ff" stroke="#63b8ff" points="333.92,-9.87 323.68,-12.59 333.39,-16.85 333.92,-9.87"/>
</a>
</g>
</g>
<!-- Node28&#45;&gt;Node6 -->
<g id="edge48_Node000028_Node000006" class="edge">
<title>Node28&#45;&gt;Node6</title>
<g id="a_edge48_Node000028_Node000006"><a xlink:title=" ">
<path fill="none" stroke="#63b8ff" d="M846.95,-54.78C781.96,-43.79 674.56,-25.64 619.93,-16.4"/>
<polygon fill="#63b8ff" stroke="#63b8ff" points="620.73,-12.99 610.29,-14.77 619.57,-19.89 620.73,-12.99"/>
</a>
</g>
</g>
<!-- Node28&#45;&gt;Node19 -->
<g id="edge43_Node000028_Node000019" class="edge">
<title>Node28&#45;&gt;Node19</title>
<g id="a_edge43_Node000028_Node000019"><a xlink:title=" ">
<path fill="none" stroke="#63b8ff" d="M878.52,-54.84C857.72,-46.39 826.39,-33.65 802.69,-24.02"/>
<polygon fill="#63b8ff" stroke="#63b8ff" points="804.06,-20.8 793.48,-20.27 801.42,-27.28 804.06,-20.8"/>
</a>
</g>
</g>
<!-- Node28&#45;&gt;Node21 -->
<g id="edge46_Node000028_Node000021" class="edge">
<title>Node28&#45;&gt;Node21</title>
<g id="a_edge46_Node000028_Node000021"><a xlink:title=" ">
<path fill="none" stroke="#63b8ff" d="M910.75,-54.84C919.11,-47.3 931.24,-36.35 941.34,-27.23"/>
<polygon fill="#63b8ff" stroke="#63b8ff" points="943.68,-29.84 948.76,-20.54 938.99,-24.64 943.68,-29.84"/>
</a>
</g>
</g>
<!-- Node28&#45;&gt;Node23 -->
<g id="edge49_Node000028_Node000023" class="edge">
<title>Node28&#45;&gt;Node23</title>
<g id="a_edge49_Node000028_Node000023"><a xlink:title=" ">
<path fill="none" stroke="#63b8ff" d="M921.61,-54.84C941.04,-46.43 970.28,-33.77 992.5,-24.15"/>
<polygon fill="#63b8ff" stroke="#63b8ff" points="993.6,-27.49 1001.39,-20.3 990.82,-21.06 993.6,-27.49"/>
</a>
</g>
</g>
<!-- Node28&#45;&gt;Node24 -->
<g id="edge50_Node000028_Node000024" class="edge">
<title>Node28&#45;&gt;Node24</title>
<g id="a_edge50_Node000028_Node000024"><a xlink:title=" ">
<path fill="none" stroke="#63b8ff" d="M932.53,-54.81C961.67,-46.48 1006.3,-33.68 1053.93,-19.76"/>
<polygon fill="#63b8ff" stroke="#63b8ff" points="1054.71,-23.18 1063.33,-17.01 1052.75,-16.46 1054.71,-23.18"/>
</a>
</g>
</g>
<!-- Node28&#45;&gt;Node26 -->
<g id="edge52_Node000028_Node000026" class="edge">
<title>Node28&#45;&gt;Node26</title>
<g id="a_edge52_Node000028_Node000026"><a xlink:title=" ">
<path fill="none" stroke="#63b8ff" d="M945.25,-54.77C986.02,-46.39 1048.32,-33.45 1111,-19.82"/>
<polygon fill="#63b8ff" stroke="#63b8ff" points="1111.38,-23.32 1120.4,-17.77 1109.89,-16.48 1111.38,-23.32"/>
</a>
</g>
</g>
<!-- Node29 -->
<g id="Node000029" class="node">
<title>Node29</title>
<g id="a_Node000029"><a xlink:title=" ">
<polygon fill="#e0e0e0" stroke="#999999" points="864.99,-19.25 820.49,-19.25 820.49,0 864.99,0 864.99,-19.25"/>
<text text-anchor="middle" x="842.74" y="-5.75" font-family="Helvetica,sans-Serif" font-size="10.00">climits</text>
</a>
</g>
</g>
<!-- Node28&#45;&gt;Node29 -->
<g id="edge45_Node000028_Node000029" class="edge">
<title>Node28&#45;&gt;Node29</title>
<g id="a_edge45_Node000028_Node000029"><a xlink:title=" ">
<path fill="none" stroke="#63b8ff" d="M890.9,-54.84C882.69,-47.3 870.76,-36.35 860.83,-27.23"/>
<polygon fill="#63b8ff" stroke="#63b8ff" points="863.28,-24.73 853.55,-20.55 858.55,-29.89 863.28,-24.73"/>
</a>
</g>
</g>
<!-- Node30 -->
<g id="Node000030" class="node">
<title>Node30</title>
<g id="a_Node000030"><a xlink:title=" ">
<polygon fill="#e0e0e0" stroke="#999999" points="918.12,-19.25 883.37,-19.25 883.37,0 918.12,0 918.12,-19.25"/>
<text text-anchor="middle" x="900.74" y="-5.75" font-family="Helvetica,sans-Serif" font-size="10.00">ratio</text>
</a>
</g>
</g>
<!-- Node28&#45;&gt;Node30 -->
<g id="edge51_Node000028_Node000030" class="edge">
<title>Node28&#45;&gt;Node30</title>
<g id="a_edge51_Node000028_Node000030"><a xlink:title=" ">
<path fill="none" stroke="#63b8ff" d="M900.74,-55.08C900.74,-48.57 900.74,-39.42 900.74,-31.12"/>
<polygon fill="#63b8ff" stroke="#63b8ff" points="904.24,-31.12 900.74,-21.12 897.24,-31.12 904.24,-31.12"/>
</a>
</g>
</g>
</g>
</svg>

<g id="navigator" transform="translate(0 0)" fill="#404254">
  <rect fill="#f2f5e9" fill-opacity="0.5" stroke="#606060" stroke-width=".5" x="0" y="0" width="60" height="60"/>
  <use id="zoomplus" xlink:href="#zoomPlus" x="17" y="9" onmousedown="handleZoom(evt,'in')"/>
  <use id="zoomminus" xlink:href="#zoomMin" x="42" y="9" onmousedown="handleZoom(evt,'out')"/>
  <use id="reset" xlink:href="#resetDef" x="30" y="36" onmousedown="handleReset()"/>
   <use id="arrowup" xlink:href="#arrowUp" x="0" y="0" onmousedown="handlePan(0,-1)"/>
  <use id="arrowright" xlink:href="#arrowRight" x="0" y="0" onmousedown="handlePan(1,0)"/>
  <use id="arrowdown" xlink:href="#arrowDown" x="0" y="0" onmousedown="handlePan(0,1)"/>
  <use id="arrowleft" xlink:href="#arrowLeft" x="0" y="0" onmousedown="handlePan(-1,0)"/>
</g>
<svg viewBox="0 0 15 15" width="100%" height="30px" preserveAspectRatio="xMaxYMin meet">
 <g id="arrow_out" transform="scale(0.3 0.3)">
  <a xlink:href="Ioss__FieldManager_8h__incl_org.svg" target="_base">
   <rect id="button" ry="5" rx="5" y="6" x="6" height="38" width="38"
        fill="#f2f5e9" fill-opacity="0.5" stroke="#606060" stroke-width="1.0"/>
   <path id="arrow"
     d="M 11.500037,31.436501 C 11.940474,20.09759 22.043105,11.32322 32.158766,21.979434 L 37.068811,17.246167 C 37.068811,17.246167 37.088388,32 37.088388,32 L 22.160133,31.978069 C 22.160133,31.978069 26.997745,27.140456 26.997745,27.140456 C 18.528582,18.264221 13.291696,25.230495 11.500037,31.436501 z"
     style="fill:#404040;"/>
  </a>
 </g>
</svg>

<style type='text/css'>
<![CDATA[
[data-mouse-over-selected='false'] { opacity: 0.7; }
[data-mouse-over-selected='true']  { opacity: 1.0; }
]]>
</style>
<script type="application/ecmascript"><![CDATA[
document.addEventListener('DOMContentLoaded', (event) => {
  highlightEdges();
  highlightAdjacentNodes();
});
]]></script>
</svg>
