<?xml version="1.0" encoding="UTF-8" standalone="no"?>
<!DOCTYPE svg PUBLIC "-//W3C//DTD SVG 1.1//EN"
 "http://www.w3.org/Graphics/SVG/1.1/DTD/svg11.dtd">
<!-- Generated by graphviz version 9.0.0 (20230911.1827)
 -->
<!-- Title: src/Ioss_ElementTopology.h Pages: 1 -->
<svg width="692pt" height="193pt"
 viewBox="0.00 0.00 691.62 193.00" xmlns="http://www.w3.org/2000/svg" xmlns:xlink="http://www.w3.org/1999/xlink">
<g id="graph0" class="graph" transform="scale(1 1) rotate(0) translate(4 189)">
<title>src/Ioss_ElementTopology.h</title>
<!-- Node1 -->
<g id="Node000001" class="node">
<title>Node1</title>
<g id="a_Node000001"><a xlink:title=" ">
<polygon fill="#999999" stroke="#666666" points="612,-185 473.75,-185 473.75,-165.75 612,-165.75 612,-185"/>
<text text-anchor="middle" x="542.88" y="-171.5" font-family="Helvetica,sans-Serif" font-size="10.00">src/Ioss_ElementTopology.h</text>
</a>
</g>
</g>
<!-- Node2 -->
<g id="Node000002" class="node">
<title>Node2</title>
<g id="a_Node000002"><a xlink:title=" ">
<polygon fill="#e0e0e0" stroke="#999999" points="189.12,-74.5 114.62,-74.5 114.62,-55.25 189.12,-55.25 189.12,-74.5"/>
<text text-anchor="middle" x="151.88" y="-61" font-family="Helvetica,sans-Serif" font-size="10.00">ioss_export.h</text>
</a>
</g>
</g>
<!-- Node1&#45;&gt;Node2 -->
<g id="edge1_Node000001_Node000002" class="edge">
<title>Node1&#45;&gt;Node2</title>
<g id="a_edge1_Node000001_Node000002"><a xlink:title=" ">
<path fill="none" stroke="#63b8ff" d="M479.93,-165.3C433.51,-157.83 369.09,-145.87 313.88,-129.75 266.63,-115.96 213.96,-93.87 181.87,-79.62"/>
<polygon fill="#63b8ff" stroke="#63b8ff" points="183.36,-76.46 172.8,-75.56 180.49,-82.84 183.36,-76.46"/>
</a>
</g>
</g>
<!-- Node3 -->
<g id="Node000003" class="node">
<title>Node3</title>
<g id="a_Node000003"><a xlink:href="Ioss__CodeTypes_8h.html" target="_top" xlink:title=" ">
<polygon fill="white" stroke="#666666" points="304.75,-74.5 207,-74.5 207,-55.25 304.75,-55.25 304.75,-74.5"/>
<text text-anchor="middle" x="255.88" y="-61" font-family="Helvetica,sans-Serif" font-size="10.00">Ioss_CodeTypes.h</text>
</a>
</g>
</g>
<!-- Node1&#45;&gt;Node3 -->
<g id="edge2_Node000001_Node000003" class="edge">
<title>Node1&#45;&gt;Node3</title>
<g id="a_edge2_Node000001_Node000003"><a xlink:title=" ">
<path fill="none" stroke="#63b8ff" d="M476.63,-165.28C438.46,-158.54 390.21,-147.38 349.88,-129.75 321.7,-117.44 293,-96.44 274.85,-81.9"/>
<polygon fill="#63b8ff" stroke="#63b8ff" points="277.5,-79.55 267.55,-75.93 273.07,-84.97 277.5,-79.55"/>
</a>
</g>
</g>
<!-- Node7 -->
<g id="Node000007" class="node">
<title>Node7</title>
<g id="a_Node000007"><a xlink:title=" ">
<polygon fill="#e0e0e0" stroke="#999999" points="429.88,-19.25 389.88,-19.25 389.88,0 429.88,0 429.88,-19.25"/>
<text text-anchor="middle" x="409.88" y="-5.75" font-family="Helvetica,sans-Serif" font-size="10.00">string</text>
</a>
</g>
</g>
<!-- Node1&#45;&gt;Node7 -->
<g id="edge20_Node000001_Node000007" class="edge">
<title>Node1&#45;&gt;Node7</title>
<g id="a_edge20_Node000001_Node000007"><a xlink:title=" ">
<path fill="none" stroke="#63b8ff" d="M549.31,-165.26C563.58,-143.8 594.7,-89.33 568.88,-55.25 553.51,-34.98 483.08,-21.37 441.29,-14.93"/>
<polygon fill="#63b8ff" stroke="#63b8ff" points="441.98,-11.49 431.58,-13.49 440.95,-18.42 441.98,-11.49"/>
</a>
</g>
</g>
<!-- Node8 -->
<g id="Node000008" class="node">
<title>Node8</title>
<g id="a_Node000008"><a xlink:title=" ">
<polygon fill="#e0e0e0" stroke="#999999" points="519.38,-19.25 476.38,-19.25 476.38,0 519.38,0 519.38,-19.25"/>
<text text-anchor="middle" x="497.88" y="-5.75" font-family="Helvetica,sans-Serif" font-size="10.00">vector</text>
</a>
</g>
</g>
<!-- Node1&#45;&gt;Node8 -->
<g id="edge21_Node000001_Node000008" class="edge">
<title>Node1&#45;&gt;Node8</title>
<g id="a_edge21_Node000001_Node000008"><a xlink:title=" ">
<path fill="none" stroke="#63b8ff" d="M563.01,-165.27C576.73,-157.85 593.81,-145.96 601.88,-129.75 616.62,-100.1 620.1,-82.9 601.88,-55.25 586.26,-31.57 555.18,-20.4 531.05,-15.17"/>
<polygon fill="#63b8ff" stroke="#63b8ff" points="531.82,-11.75 521.34,-13.33 530.51,-18.63 531.82,-11.75"/>
</a>
</g>
</g>
<!-- Node11 -->
<g id="Node000011" class="node">
<title>Node11</title>
<g id="a_Node000011"><a xlink:href="Ioss__ElementPermutation_8h.html" target="_top" xlink:title=" ">
<polygon fill="white" stroke="#666666" points="495.25,-129.75 358.5,-129.75 358.5,-110.5 495.25,-110.5 495.25,-129.75"/>
<text text-anchor="middle" x="426.88" y="-116.25" font-family="Helvetica,sans-Serif" font-size="10.00">Ioss_ElementPermutation.h</text>
</a>
</g>
</g>
<!-- Node1&#45;&gt;Node11 -->
<g id="edge10_Node000001_Node000011" class="edge">
<title>Node1&#45;&gt;Node11</title>
<g id="a_edge10_Node000001_Node000011"><a xlink:title=" ">
<path fill="none" stroke="#63b8ff" d="M523.2,-165.34C505.03,-157 477.79,-144.5 456.91,-134.91"/>
<polygon fill="#63b8ff" stroke="#63b8ff" points="458.57,-131.83 448.02,-130.83 455.65,-138.19 458.57,-131.83"/>
</a>
</g>
</g>
<!-- Node14 -->
<g id="Node000014" class="node">
<title>Node14</title>
<g id="a_Node000014"><a xlink:title=" ">
<polygon fill="#e0e0e0" stroke="#999999" points="560.25,-74.5 525.5,-74.5 525.5,-55.25 560.25,-55.25 560.25,-74.5"/>
<text text-anchor="middle" x="542.88" y="-61" font-family="Helvetica,sans-Serif" font-size="10.00">map</text>
</a>
</g>
</g>
<!-- Node1&#45;&gt;Node14 -->
<g id="edge18_Node000001_Node000014" class="edge">
<title>Node1&#45;&gt;Node14</title>
<g id="a_edge18_Node000001_Node000014"><a xlink:title=" ">
<path fill="none" stroke="#63b8ff" d="M542.88,-165.5C542.88,-148.25 542.88,-109.83 542.88,-86.06"/>
<polygon fill="#63b8ff" stroke="#63b8ff" points="546.38,-86.39 542.88,-76.39 539.38,-86.39 546.38,-86.39"/>
</a>
</g>
</g>
<!-- Node15 -->
<g id="Node000015" class="node">
<title>Node15</title>
<g id="a_Node000015"><a xlink:title=" ">
<polygon fill="#e0e0e0" stroke="#999999" points="683.62,-129.75 654.12,-129.75 654.12,-110.5 683.62,-110.5 683.62,-129.75"/>
<text text-anchor="middle" x="668.88" y="-116.25" font-family="Helvetica,sans-Serif" font-size="10.00">set</text>
</a>
</g>
</g>
<!-- Node1&#45;&gt;Node15 -->
<g id="edge19_Node000001_Node000015" class="edge">
<title>Node1&#45;&gt;Node15</title>
<g id="a_edge19_Node000001_Node000015"><a xlink:title=" ">
<path fill="none" stroke="#63b8ff" d="M564.25,-165.34C586.09,-156.11 620.02,-141.77 643.28,-131.94"/>
<polygon fill="#63b8ff" stroke="#63b8ff" points="644.5,-135.23 652.35,-128.11 641.77,-128.78 644.5,-135.23"/>
</a>
</g>
</g>
<!-- Node4 -->
<g id="Node000004" class="node">
<title>Node4</title>
<g id="a_Node000004"><a xlink:title=" ">
<polygon fill="#e0e0e0" stroke="#999999" points="241.75,-19.25 204,-19.25 204,0 241.75,0 241.75,-19.25"/>
<text text-anchor="middle" x="222.88" y="-5.75" font-family="Helvetica,sans-Serif" font-size="10.00">array</text>
</a>
</g>
</g>
<!-- Node3&#45;&gt;Node4 -->
<g id="edge3_Node000003_Node000004" class="edge">
<title>Node3&#45;&gt;Node4</title>
<g id="a_edge3_Node000003_Node000004"><a xlink:title=" ">
<path fill="none" stroke="#63b8ff" d="M250.43,-55.08C246.1,-48.11 239.91,-38.12 234.49,-29.37"/>
<polygon fill="#63b8ff" stroke="#63b8ff" points="237.48,-27.55 229.24,-20.9 231.53,-31.24 237.48,-27.55"/>
</a>
</g>
</g>
<!-- Node5 -->
<g id="Node000005" class="node">
<title>Node5</title>
<g id="a_Node000005"><a xlink:title=" ">
<polygon fill="#e0e0e0" stroke="#999999" points="308,-19.25 259.75,-19.25 259.75,0 308,0 308,-19.25"/>
<text text-anchor="middle" x="283.88" y="-5.75" font-family="Helvetica,sans-Serif" font-size="10.00">cstddef</text>
</a>
</g>
</g>
<!-- Node3&#45;&gt;Node5 -->
<g id="edge4_Node000003_Node000005" class="edge">
<title>Node3&#45;&gt;Node5</title>
<g id="a_edge4_Node000003_Node000005"><a xlink:title=" ">
<path fill="none" stroke="#63b8ff" d="M260.5,-55.08C264.12,-48.19 269.3,-38.34 273.87,-29.66"/>
<polygon fill="#63b8ff" stroke="#63b8ff" points="276.89,-31.43 278.45,-20.95 270.69,-28.17 276.89,-31.43"/>
</a>
</g>
</g>
<!-- Node6 -->
<g id="Node000006" class="node">
<title>Node6</title>
<g id="a_Node000006"><a xlink:title=" ">
<polygon fill="#e0e0e0" stroke="#999999" points="371.5,-19.25 326.25,-19.25 326.25,0 371.5,0 371.5,-19.25"/>
<text text-anchor="middle" x="348.88" y="-5.75" font-family="Helvetica,sans-Serif" font-size="10.00">cstdint</text>
</a>
</g>
</g>
<!-- Node3&#45;&gt;Node6 -->
<g id="edge5_Node000003_Node000006" class="edge">
<title>Node3&#45;&gt;Node6</title>
<g id="a_edge5_Node000003_Node000006"><a xlink:title=" ">
<path fill="none" stroke="#63b8ff" d="M271.65,-54.84C285.81,-46.73 306.86,-34.68 323.4,-25.21"/>
<polygon fill="#63b8ff" stroke="#63b8ff" points="324.77,-28.46 331.71,-20.45 321.29,-22.39 324.77,-28.46"/>
</a>
</g>
</g>
<!-- Node3&#45;&gt;Node7 -->
<g id="edge6_Node000003_Node000007" class="edge">
<title>Node3&#45;&gt;Node7</title>
<g id="a_edge6_Node000003_Node000007"><a xlink:title=" ">
<path fill="none" stroke="#63b8ff" d="M282,-54.84C308.82,-45.57 350.54,-31.14 378.98,-21.31"/>
<polygon fill="#63b8ff" stroke="#63b8ff" points="379.8,-24.73 388.11,-18.15 377.51,-18.11 379.8,-24.73"/>
</a>
</g>
</g>
<!-- Node3&#45;&gt;Node8 -->
<g id="edge7_Node000003_Node000008" class="edge">
<title>Node3&#45;&gt;Node8</title>
<g id="a_edge7_Node000003_Node000008"><a xlink:title=" ">
<path fill="none" stroke="#63b8ff" d="M297.2,-54.78C344.56,-44.36 421.24,-27.49 464.82,-17.9"/>
<polygon fill="#63b8ff" stroke="#63b8ff" points="465.43,-21.35 474.45,-15.78 463.93,-14.51 465.43,-21.35"/>
</a>
</g>
</g>
<!-- Node9 -->
<g id="Node000009" class="node">
<title>Node9</title>
<g id="a_Node000009"><a xlink:title=" ">
<polygon fill="#e0e0e0" stroke="#999999" points="115.75,-19.25 0,-19.25 0,0 115.75,0 115.75,-19.25"/>
<text text-anchor="middle" x="57.88" y="-5.75" font-family="Helvetica,sans-Serif" font-size="10.00">SEACASIoss_config.h</text>
</a>
</g>
</g>
<!-- Node3&#45;&gt;Node9 -->
<g id="edge8_Node000003_Node000009" class="edge">
<title>Node3&#45;&gt;Node9</title>
<g id="a_edge8_Node000003_Node000009"><a xlink:title=" ">
<path fill="none" stroke="#63b8ff" d="M222.29,-54.84C189.29,-45.97 138.75,-32.37 102.41,-22.6"/>
<polygon fill="#63b8ff" stroke="#63b8ff" points="103.66,-19.31 93.09,-20.1 101.84,-26.07 103.66,-19.31"/>
</a>
</g>
</g>
<!-- Node10 -->
<g id="Node000010" class="node">
<title>Node10</title>
<g id="a_Node000010"><a xlink:title=" ">
<polygon fill="#e0e0e0" stroke="#999999" points="186.25,-19.25 133.5,-19.25 133.5,0 186.25,0 186.25,-19.25"/>
<text text-anchor="middle" x="159.88" y="-5.75" font-family="Helvetica,sans-Serif" font-size="10.00">complex</text>
</a>
</g>
</g>
<!-- Node3&#45;&gt;Node10 -->
<g id="edge9_Node000003_Node000010" class="edge">
<title>Node3&#45;&gt;Node10</title>
<g id="a_edge9_Node000003_Node000010"><a xlink:title=" ">
<path fill="none" stroke="#63b8ff" d="M239.59,-54.84C224.97,-46.73 203.25,-34.68 186.17,-25.21"/>
<polygon fill="#63b8ff" stroke="#63b8ff" points="188.01,-22.23 177.56,-20.44 184.61,-28.35 188.01,-22.23"/>
</a>
</g>
</g>
<!-- Node11&#45;&gt;Node2 -->
<g id="edge11_Node000011_Node000002" class="edge">
<title>Node11&#45;&gt;Node2</title>
<g id="a_edge11_Node000011_Node000002"><a xlink:title=" ">
<path fill="none" stroke="#63b8ff" d="M379.91,-110.03C329.96,-100.36 251.31,-85.13 200.66,-75.32"/>
<polygon fill="#63b8ff" stroke="#63b8ff" points="201.34,-71.89 190.85,-73.42 200.01,-78.76 201.34,-71.89"/>
</a>
</g>
</g>
<!-- Node11&#45;&gt;Node3 -->
<g id="edge12_Node000011_Node000003" class="edge">
<title>Node11&#45;&gt;Node3</title>
<g id="a_edge12_Node000011_Node000003"><a xlink:title=" ">
<path fill="none" stroke="#63b8ff" d="M397.87,-110.09C369.86,-101.37 327.22,-88.09 295.97,-78.36"/>
<polygon fill="#63b8ff" stroke="#63b8ff" points="297.06,-75.03 286.47,-75.4 294.98,-81.72 297.06,-75.03"/>
</a>
</g>
</g>
<!-- Node11&#45;&gt;Node7 -->
<g id="edge16_Node000011_Node000007" class="edge">
<title>Node11&#45;&gt;Node7</title>
<g id="a_edge16_Node000011_Node000007"><a xlink:title=" ">
<path fill="none" stroke="#63b8ff" d="M398.09,-110.1C381.39,-103.21 361.76,-91.89 351.88,-74.5 341.09,-55.54 361.34,-37.48 380.81,-25.44"/>
<polygon fill="#63b8ff" stroke="#63b8ff" points="382.52,-28.49 389.44,-20.47 379.03,-22.42 382.52,-28.49"/>
</a>
</g>
</g>
<!-- Node11&#45;&gt;Node8 -->
<g id="edge17_Node000011_Node000008" class="edge">
<title>Node11&#45;&gt;Node8</title>
<g id="a_edge17_Node000011_Node000008"><a xlink:title=" ">
<path fill="none" stroke="#63b8ff" d="M441.24,-110.21C452.98,-102.22 469.17,-89.47 478.88,-74.5 487.46,-61.26 492.29,-43.99 494.93,-30.75"/>
<polygon fill="#63b8ff" stroke="#63b8ff" points="498.36,-31.49 496.59,-21.04 491.46,-30.31 498.36,-31.49"/>
</a>
</g>
</g>
<!-- Node12 -->
<g id="Node000012" class="node">
<title>Node12</title>
<g id="a_Node000012"><a xlink:title=" ">
<polygon fill="#e0e0e0" stroke="#999999" points="412.5,-74.5 361.25,-74.5 361.25,-55.25 412.5,-55.25 412.5,-74.5"/>
<text text-anchor="middle" x="386.88" y="-61" font-family="Helvetica,sans-Serif" font-size="10.00">assert.h</text>
</a>
</g>
</g>
<!-- Node11&#45;&gt;Node12 -->
<g id="edge13_Node000011_Node000012" class="edge">
<title>Node11&#45;&gt;Node12</title>
<g id="a_edge13_Node000011_Node000012"><a xlink:title=" ">
<path fill="none" stroke="#63b8ff" d="M420.27,-110.33C414.92,-103.21 407.2,-92.93 400.53,-84.05"/>
<polygon fill="#63b8ff" stroke="#63b8ff" points="403.34,-81.96 394.53,-76.07 397.74,-86.17 403.34,-81.96"/>
</a>
</g>
</g>
<!-- Node13 -->
<g id="Node000013" class="node">
<title>Node13</title>
<g id="a_Node000013"><a xlink:title=" ">
<polygon fill="#e0e0e0" stroke="#999999" points="469.5,-74.5 430.25,-74.5 430.25,-55.25 469.5,-55.25 469.5,-74.5"/>
<text text-anchor="middle" x="449.88" y="-61" font-family="Helvetica,sans-Serif" font-size="10.00">limits</text>
</a>
</g>
</g>
<!-- Node11&#45;&gt;Node13 -->
<g id="edge14_Node000011_Node000013" class="edge">
<title>Node11&#45;&gt;Node13</title>
<g id="a_edge14_Node000011_Node000013"><a xlink:title=" ">
<path fill="none" stroke="#63b8ff" d="M430.67,-110.33C433.62,-103.51 437.81,-93.81 441.53,-85.2"/>
<polygon fill="#63b8ff" stroke="#63b8ff" points="444.64,-86.82 445.39,-76.25 438.22,-84.04 444.64,-86.82"/>
</a>
</g>
</g>
<!-- Node11&#45;&gt;Node14 -->
<g id="edge15_Node000011_Node000014" class="edge">
<title>Node11&#45;&gt;Node14</title>
<g id="a_edge15_Node000011_Node000014"><a xlink:title=" ">
<path fill="none" stroke="#63b8ff" d="M446.55,-110.09C465.27,-101.5 493.62,-88.49 514.72,-78.8"/>
<polygon fill="#63b8ff" stroke="#63b8ff" points="516,-82.06 523.63,-74.71 513.08,-75.7 516,-82.06"/>
</a>
</g>
</g>
</g>
</svg>
