<?xml version="1.0" encoding="UTF-8" standalone="no"?>
<!DOCTYPE svg PUBLIC "-//W3C//DTD SVG 1.1//EN"
 "http://www.w3.org/Graphics/SVG/1.1/DTD/svg11.dtd">
<!-- Generated by graphviz version 5.0.1 (20220820.1526)
 -->
<!-- Title: src/Ioss_Hex8.C Pages: 1 -->
<svg width="1655pt" height="412pt"
 viewBox="0.00 0.00 1654.89 412.00" xmlns="http://www.w3.org/2000/svg" xmlns:xlink="http://www.w3.org/1999/xlink">
<g id="graph0" class="graph" transform="scale(1 1) rotate(0) translate(4 408)">
<title>src/Ioss_Hex8.C</title>
<!-- Node1 -->
<g id="node1" class="node">
<title>Node1</title>
<g id="a_node1"><a xlink:title=" ">
<polygon fill="#999999" stroke="#666666" points="1246.39,-404 1155.39,-404 1155.39,-385 1246.39,-385 1246.39,-404"/>
<text text-anchor="middle" x="1200.89" y="-392" font-family="Helvetica,sans-Serif" font-size="10.00">src/Ioss_Hex8.C</text>
</a>
</g>
</g>
<!-- Node2 -->
<g id="node2" class="node">
<title>Node2</title>
<g id="a_node2"><a xlink:href="Ioss__CodeTypes_8h.html" target="_top" xlink:title=" ">
<polygon fill="white" stroke="#666666" points="1093.89,-74 995.89,-74 995.89,-55 1093.89,-55 1093.89,-74"/>
<text text-anchor="middle" x="1044.89" y="-62" font-family="Helvetica,sans-Serif" font-size="10.00">Ioss_CodeTypes.h</text>
</a>
</g>
</g>
<!-- Node1&#45;&gt;Node2 -->
<g id="edge1" class="edge">
<title>Node1&#45;&gt;Node2</title>
<path fill="none" stroke="#63b8ff" d="M1173.73,-384.94C1152.99,-377.55 1124.41,-365.46 1102.89,-349 1052.49,-310.45 1033.38,-298.7 1011.89,-239 992.11,-184.07 1020.01,-114.88 1035.6,-83.02"/>
<polygon fill="#63b8ff" stroke="#63b8ff" points="1038.75,-84.56 1040.16,-74.06 1032.51,-81.39 1038.75,-84.56"/>
</g>
<!-- Node10 -->
<g id="node10" class="node">
<title>Node10</title>
<g id="a_node10"><a xlink:href="Ioss__ElementTopology_8h.html" target="_top" xlink:title=" ">
<polygon fill="white" stroke="#666666" points="1318.89,-184 1196.89,-184 1196.89,-165 1318.89,-165 1318.89,-184"/>
<text text-anchor="middle" x="1257.89" y="-172" font-family="Helvetica,sans-Serif" font-size="10.00">Ioss_ElementTopology.h</text>
</a>
</g>
</g>
<!-- Node1&#45;&gt;Node10 -->
<g id="edge9" class="edge">
<title>Node1&#45;&gt;Node10</title>
<path fill="none" stroke="#63b8ff" d="M1231.16,-384.92C1248.73,-378.21 1269.4,-366.94 1279.89,-349 1309.2,-298.85 1282.42,-226.77 1267.01,-193.54"/>
<polygon fill="#63b8ff" stroke="#63b8ff" points="1269.99,-191.67 1262.49,-184.19 1263.69,-194.72 1269.99,-191.67"/>
</g>
<!-- Node16 -->
<g id="node16" class="node">
<title>Node16</title>
<g id="a_node16"><a xlink:href="Ioss__ElementVariableType_8h.html" target="_top" xlink:title=" ">
<polygon fill="white" stroke="#666666" points="1270.89,-349 1130.89,-349 1130.89,-330 1270.89,-330 1270.89,-349"/>
<text text-anchor="middle" x="1200.89" y="-337" font-family="Helvetica,sans-Serif" font-size="10.00">Ioss_ElementVariableType.h</text>
</a>
</g>
</g>
<!-- Node1&#45;&gt;Node16 -->
<g id="edge22" class="edge">
<title>Node1&#45;&gt;Node16</title>
<path fill="none" stroke="#63b8ff" d="M1200.89,-384.75C1200.89,-377.8 1200.89,-367.85 1200.89,-359.13"/>
<polygon fill="#63b8ff" stroke="#63b8ff" points="1204.39,-359.09 1200.89,-349.09 1197.39,-359.09 1204.39,-359.09"/>
</g>
<!-- Node28 -->
<g id="node28" class="node">
<title>Node28</title>
<g id="a_node28"><a xlink:title=" ">
<polygon fill="#e0e0e0" stroke="#999999" points="1580.39,-184 1531.39,-184 1531.39,-165 1580.39,-165 1580.39,-184"/>
<text text-anchor="middle" x="1555.89" y="-172" font-family="Helvetica,sans-Serif" font-size="10.00">cassert</text>
</a>
</g>
</g>
<!-- Node1&#45;&gt;Node28 -->
<g id="edge67" class="edge">
<title>Node1&#45;&gt;Node28</title>
<path fill="none" stroke="#63b8ff" d="M1222.42,-384.95C1242.62,-376.64 1273.45,-363.23 1298.89,-349 1391.88,-296.98 1494.7,-221.69 1536.56,-190.21"/>
<polygon fill="#63b8ff" stroke="#63b8ff" points="1538.68,-193 1544.55,-184.18 1534.46,-187.41 1538.68,-193"/>
</g>
<!-- Node34 -->
<g id="node34" class="node">
<title>Node34</title>
<g id="a_node34"><a xlink:href="Ioss__Hex8_8h.html" target="_top" xlink:title=" ">
<polygon fill="white" stroke="#666666" points="1092.89,-239 1020.89,-239 1020.89,-220 1092.89,-220 1092.89,-239"/>
<text text-anchor="middle" x="1056.89" y="-227" font-family="Helvetica,sans-Serif" font-size="10.00">Ioss_Hex8.h</text>
</a>
</g>
</g>
<!-- Node1&#45;&gt;Node34 -->
<g id="edge64" class="edge">
<title>Node1&#45;&gt;Node34</title>
<path fill="none" stroke="#63b8ff" d="M1178.62,-384.96C1161.47,-377.52 1138.05,-365.34 1121.89,-349 1092.58,-319.36 1072.65,-273.8 1063.19,-248.69"/>
<polygon fill="#63b8ff" stroke="#63b8ff" points="1066.48,-247.49 1059.79,-239.28 1059.9,-249.87 1066.48,-247.49"/>
</g>
<!-- Node3 -->
<g id="node3" class="node">
<title>Node3</title>
<g id="a_node3"><a xlink:title=" ">
<polygon fill="#e0e0e0" stroke="#999999" points="1063.89,-19 1025.89,-19 1025.89,0 1063.89,0 1063.89,-19"/>
<text text-anchor="middle" x="1044.89" y="-7" font-family="Helvetica,sans-Serif" font-size="10.00">array</text>
</a>
</g>
</g>
<!-- Node2&#45;&gt;Node3 -->
<g id="edge2" class="edge">
<title>Node2&#45;&gt;Node3</title>
<path fill="none" stroke="#63b8ff" d="M1044.89,-54.75C1044.89,-47.8 1044.89,-37.85 1044.89,-29.13"/>
<polygon fill="#63b8ff" stroke="#63b8ff" points="1048.39,-29.09 1044.89,-19.09 1041.39,-29.09 1048.39,-29.09"/>
</g>
<!-- Node4 -->
<g id="node4" class="node">
<title>Node4</title>
<g id="a_node4"><a xlink:title=" ">
<polygon fill="#e0e0e0" stroke="#999999" points="361.39,-19 312.39,-19 312.39,0 361.39,0 361.39,-19"/>
<text text-anchor="middle" x="336.89" y="-7" font-family="Helvetica,sans-Serif" font-size="10.00">cstddef</text>
</a>
</g>
</g>
<!-- Node2&#45;&gt;Node4 -->
<g id="edge3" class="edge">
<title>Node2&#45;&gt;Node4</title>
<path fill="none" stroke="#63b8ff" d="M995.66,-59.82C860.8,-49.72 487.68,-21.79 371.73,-13.11"/>
<polygon fill="#63b8ff" stroke="#63b8ff" points="371.87,-9.61 361.64,-12.35 371.35,-16.59 371.87,-9.61"/>
</g>
<!-- Node5 -->
<g id="node5" class="node">
<title>Node5</title>
<g id="a_node5"><a xlink:title=" ">
<polygon fill="#e0e0e0" stroke="#999999" points="825.89,-19 779.89,-19 779.89,0 825.89,0 825.89,-19"/>
<text text-anchor="middle" x="802.89" y="-7" font-family="Helvetica,sans-Serif" font-size="10.00">cstdint</text>
</a>
</g>
</g>
<!-- Node2&#45;&gt;Node5 -->
<g id="edge4" class="edge">
<title>Node2&#45;&gt;Node5</title>
<path fill="none" stroke="#63b8ff" d="M1006.01,-54.98C958.88,-44.66 880.28,-27.45 835.95,-17.74"/>
<polygon fill="#63b8ff" stroke="#63b8ff" points="836.49,-14.28 825.98,-15.56 835,-21.12 836.49,-14.28"/>
</g>
<!-- Node6 -->
<g id="node6" class="node">
<title>Node6</title>
<g id="a_node6"><a xlink:title=" ">
<polygon fill="#e0e0e0" stroke="#999999" points="1474.39,-19 1433.39,-19 1433.39,0 1474.39,0 1474.39,-19"/>
<text text-anchor="middle" x="1453.89" y="-7" font-family="Helvetica,sans-Serif" font-size="10.00">string</text>
</a>
</g>
</g>
<!-- Node2&#45;&gt;Node6 -->
<g id="edge5" class="edge">
<title>Node2&#45;&gt;Node6</title>
<path fill="none" stroke="#63b8ff" d="M1094.22,-57.11C1179.71,-46.03 1352.94,-23.58 1423.23,-14.47"/>
<polygon fill="#63b8ff" stroke="#63b8ff" points="1423.74,-17.94 1433.21,-13.18 1422.84,-10.99 1423.74,-17.94"/>
</g>
<!-- Node7 -->
<g id="node7" class="node">
<title>Node7</title>
<g id="a_node7"><a xlink:title=" ">
<polygon fill="#e0e0e0" stroke="#999999" points="915.89,-19 871.89,-19 871.89,0 915.89,0 915.89,-19"/>
<text text-anchor="middle" x="893.89" y="-7" font-family="Helvetica,sans-Serif" font-size="10.00">vector</text>
</a>
</g>
</g>
<!-- Node2&#45;&gt;Node7 -->
<g id="edge6" class="edge">
<title>Node2&#45;&gt;Node7</title>
<path fill="none" stroke="#63b8ff" d="M1020.63,-54.98C994.82,-45.93 953.9,-31.56 925.57,-21.62"/>
<polygon fill="#63b8ff" stroke="#63b8ff" points="926.71,-18.31 916.12,-18.3 924.4,-24.92 926.71,-18.31"/>
</g>
<!-- Node8 -->
<g id="node8" class="node">
<title>Node8</title>
<g id="a_node8"><a xlink:title=" ">
<polygon fill="#e0e0e0" stroke="#999999" points="1197.89,-19 1081.89,-19 1081.89,0 1197.89,0 1197.89,-19"/>
<text text-anchor="middle" x="1139.89" y="-7" font-family="Helvetica,sans-Serif" font-size="10.00">SEACASIoss_config.h</text>
</a>
</g>
</g>
<!-- Node2&#45;&gt;Node8 -->
<g id="edge7" class="edge">
<title>Node2&#45;&gt;Node8</title>
<path fill="none" stroke="#63b8ff" d="M1060.15,-54.98C1075.02,-46.69 1097.87,-33.94 1115.3,-24.22"/>
<polygon fill="#63b8ff" stroke="#63b8ff" points="1117.32,-27.1 1124.35,-19.17 1113.91,-20.99 1117.32,-27.1"/>
</g>
<!-- Node9 -->
<g id="node9" class="node">
<title>Node9</title>
<g id="a_node9"><a xlink:title=" ">
<polygon fill="#e0e0e0" stroke="#999999" points="1007.39,-19 954.39,-19 954.39,0 1007.39,0 1007.39,-19"/>
<text text-anchor="middle" x="980.89" y="-7" font-family="Helvetica,sans-Serif" font-size="10.00">complex</text>
</a>
</g>
</g>
<!-- Node2&#45;&gt;Node9 -->
<g id="edge8" class="edge">
<title>Node2&#45;&gt;Node9</title>
<path fill="none" stroke="#63b8ff" d="M1034.6,-54.98C1025.05,-47.07 1010.61,-35.11 999.1,-25.58"/>
<polygon fill="#63b8ff" stroke="#63b8ff" points="1001.29,-22.85 991.36,-19.17 996.83,-28.24 1001.29,-22.85"/>
</g>
<!-- Node10&#45;&gt;Node2 -->
<g id="edge10" class="edge">
<title>Node10&#45;&gt;Node2</title>
<path fill="none" stroke="#63b8ff" d="M1245,-164.82C1225.55,-151.92 1187.31,-127.37 1152.89,-110 1128.4,-97.64 1099.63,-85.92 1077.95,-77.61"/>
<polygon fill="#63b8ff" stroke="#63b8ff" points="1079.11,-74.31 1068.52,-74.04 1076.64,-80.85 1079.11,-74.31"/>
</g>
<!-- Node10&#45;&gt;Node6 -->
<g id="edge20" class="edge">
<title>Node10&#45;&gt;Node6</title>
<path fill="none" stroke="#63b8ff" d="M1319.02,-166.06C1369.54,-158.81 1436.2,-146.34 1456.89,-129 1483.29,-106.88 1488.89,-88.24 1479.89,-55 1477.23,-45.19 1471.82,-35.33 1466.61,-27.39"/>
<polygon fill="#63b8ff" stroke="#63b8ff" points="1469.38,-25.25 1460.78,-19.07 1463.65,-29.27 1469.38,-25.25"/>
</g>
<!-- Node10&#45;&gt;Node7 -->
<g id="edge21" class="edge">
<title>Node10&#45;&gt;Node7</title>
<path fill="none" stroke="#63b8ff" d="M1248.59,-164.93C1234.84,-152.38 1208.09,-128.51 1183.89,-110 1149.32,-83.57 1142.91,-72.07 1102.89,-55 1071.35,-41.55 976.38,-24.32 926.04,-15.78"/>
<polygon fill="#63b8ff" stroke="#63b8ff" points="926.45,-12.3 916.01,-14.1 925.29,-19.21 926.45,-12.3"/>
</g>
<!-- Node11 -->
<g id="node11" class="node">
<title>Node11</title>
<g id="a_node11"><a xlink:href="Ioss__ElementPermutation_8h.html" target="_top" xlink:title=" ">
<polygon fill="white" stroke="#666666" points="1428.39,-129 1291.39,-129 1291.39,-110 1428.39,-110 1428.39,-129"/>
<text text-anchor="middle" x="1359.89" y="-117" font-family="Helvetica,sans-Serif" font-size="10.00">Ioss_ElementPermutation.h</text>
</a>
</g>
</g>
<!-- Node10&#45;&gt;Node11 -->
<g id="edge11" class="edge">
<title>Node10&#45;&gt;Node11</title>
<path fill="none" stroke="#63b8ff" d="M1274.28,-164.98C1290.46,-156.57 1315.46,-143.59 1334.27,-133.81"/>
<polygon fill="#63b8ff" stroke="#63b8ff" points="1335.94,-136.89 1343.2,-129.17 1332.71,-130.68 1335.94,-136.89"/>
</g>
<!-- Node14 -->
<g id="node14" class="node">
<title>Node14</title>
<g id="a_node14"><a xlink:title=" ">
<polygon fill="#e0e0e0" stroke="#999999" points="1471.39,-74 1436.39,-74 1436.39,-55 1471.39,-55 1471.39,-74"/>
<text text-anchor="middle" x="1453.89" y="-62" font-family="Helvetica,sans-Serif" font-size="10.00">map</text>
</a>
</g>
</g>
<!-- Node10&#45;&gt;Node14 -->
<g id="edge18" class="edge">
<title>Node10&#45;&gt;Node14</title>
<path fill="none" stroke="#63b8ff" d="M1318.93,-165.06C1363.95,-157.63 1420.15,-145.44 1436.89,-129 1448.71,-117.39 1452.59,-98.52 1453.73,-84.37"/>
<polygon fill="#63b8ff" stroke="#63b8ff" points="1457.24,-84.39 1454.16,-74.25 1450.24,-84.09 1457.24,-84.39"/>
</g>
<!-- Node15 -->
<g id="node15" class="node">
<title>Node15</title>
<g id="a_node15"><a xlink:title=" ">
<polygon fill="#e0e0e0" stroke="#999999" points="1272.89,-129 1242.89,-129 1242.89,-110 1272.89,-110 1272.89,-129"/>
<text text-anchor="middle" x="1257.89" y="-117" font-family="Helvetica,sans-Serif" font-size="10.00">set</text>
</a>
</g>
</g>
<!-- Node10&#45;&gt;Node15 -->
<g id="edge19" class="edge">
<title>Node10&#45;&gt;Node15</title>
<path fill="none" stroke="#63b8ff" d="M1257.89,-164.75C1257.89,-157.8 1257.89,-147.85 1257.89,-139.13"/>
<polygon fill="#63b8ff" stroke="#63b8ff" points="1261.39,-139.09 1257.89,-129.09 1254.39,-139.09 1261.39,-139.09"/>
</g>
<!-- Node11&#45;&gt;Node2 -->
<g id="edge12" class="edge">
<title>Node11&#45;&gt;Node2</title>
<path fill="none" stroke="#63b8ff" d="M1309.28,-109.98C1253.3,-100.57 1163.21,-85.41 1104.02,-75.45"/>
<polygon fill="#63b8ff" stroke="#63b8ff" points="1104.52,-71.98 1094.08,-73.78 1103.36,-78.89 1104.52,-71.98"/>
</g>
<!-- Node11&#45;&gt;Node6 -->
<g id="edge16" class="edge">
<title>Node11&#45;&gt;Node6</title>
<path fill="none" stroke="#63b8ff" d="M1367.58,-109.66C1383.36,-91.54 1419.58,-49.91 1439.73,-26.77"/>
<polygon fill="#63b8ff" stroke="#63b8ff" points="1442.43,-29 1446.35,-19.16 1437.15,-24.4 1442.43,-29"/>
</g>
<!-- Node11&#45;&gt;Node7 -->
<g id="edge17" class="edge">
<title>Node11&#45;&gt;Node7</title>
<path fill="none" stroke="#63b8ff" d="M1340.7,-109.88C1302.29,-92.62 1219.48,-55.45 1217.89,-55 1100.13,-21.67 1065.93,-37.06 944.89,-19 938.8,-18.09 932.32,-17.06 926.09,-16.04"/>
<polygon fill="#63b8ff" stroke="#63b8ff" points="926.39,-12.54 915.95,-14.35 925.24,-19.44 926.39,-12.54"/>
</g>
<!-- Node12 -->
<g id="node12" class="node">
<title>Node12</title>
<g id="a_node12"><a xlink:title=" ">
<polygon fill="#e0e0e0" stroke="#999999" points="1321.89,-74 1269.89,-74 1269.89,-55 1321.89,-55 1321.89,-74"/>
<text text-anchor="middle" x="1295.89" y="-62" font-family="Helvetica,sans-Serif" font-size="10.00">assert.h</text>
</a>
</g>
</g>
<!-- Node11&#45;&gt;Node12 -->
<g id="edge13" class="edge">
<title>Node11&#45;&gt;Node12</title>
<path fill="none" stroke="#63b8ff" d="M1349.6,-109.98C1340.05,-102.07 1325.61,-90.11 1314.1,-80.58"/>
<polygon fill="#63b8ff" stroke="#63b8ff" points="1316.29,-77.85 1306.36,-74.17 1311.83,-83.24 1316.29,-77.85"/>
</g>
<!-- Node13 -->
<g id="node13" class="node">
<title>Node13</title>
<g id="a_node13"><a xlink:title=" ">
<polygon fill="#e0e0e0" stroke="#999999" points="1379.89,-74 1339.89,-74 1339.89,-55 1379.89,-55 1379.89,-74"/>
<text text-anchor="middle" x="1359.89" y="-62" font-family="Helvetica,sans-Serif" font-size="10.00">limits</text>
</a>
</g>
</g>
<!-- Node11&#45;&gt;Node13 -->
<g id="edge14" class="edge">
<title>Node11&#45;&gt;Node13</title>
<path fill="none" stroke="#63b8ff" d="M1359.89,-109.75C1359.89,-102.8 1359.89,-92.85 1359.89,-84.13"/>
<polygon fill="#63b8ff" stroke="#63b8ff" points="1363.39,-84.09 1359.89,-74.09 1356.39,-84.09 1363.39,-84.09"/>
</g>
<!-- Node11&#45;&gt;Node14 -->
<g id="edge15" class="edge">
<title>Node11&#45;&gt;Node14</title>
<path fill="none" stroke="#63b8ff" d="M1374.99,-109.98C1389.7,-101.69 1412.31,-88.94 1429.56,-79.22"/>
<polygon fill="#63b8ff" stroke="#63b8ff" points="1431.52,-82.13 1438.51,-74.17 1428.08,-76.03 1431.52,-82.13"/>
</g>
<!-- Node16&#45;&gt;Node2 -->
<g id="edge23" class="edge">
<title>Node16&#45;&gt;Node2</title>
<path fill="none" stroke="#63b8ff" d="M1184.43,-329.87C1170.91,-322.07 1152.06,-309.45 1139.89,-294 1136.38,-289.55 1074.14,-137.26 1052.35,-83.81"/>
<polygon fill="#63b8ff" stroke="#63b8ff" points="1055.47,-82.19 1048.45,-74.25 1048.99,-84.84 1055.47,-82.19"/>
</g>
<!-- Node16&#45;&gt;Node6 -->
<g id="edge63" class="edge">
<title>Node16&#45;&gt;Node6</title>
<path fill="none" stroke="#63b8ff" d="M1257.83,-329.98C1378.06,-310.39 1646.89,-257.42 1646.89,-175.5 1646.89,-175.5 1646.89,-175.5 1646.89,-118.5 1646.89,-45.07 1539.17,-21.08 1484.68,-13.64"/>
<polygon fill="#63b8ff" stroke="#63b8ff" points="1484.9,-10.14 1474.54,-12.36 1484.03,-17.08 1484.9,-10.14"/>
</g>
<!-- Node17 -->
<g id="node17" class="node">
<title>Node17</title>
<g id="a_node17"><a xlink:href="Ioss__VariableType_8h.html" target="_top" xlink:title=" ">
<polygon fill="white" stroke="#666666" points="1252.89,-294 1148.89,-294 1148.89,-275 1252.89,-275 1252.89,-294"/>
<text text-anchor="middle" x="1200.89" y="-282" font-family="Helvetica,sans-Serif" font-size="10.00">Ioss_VariableType.h</text>
</a>
</g>
</g>
<!-- Node16&#45;&gt;Node17 -->
<g id="edge24" class="edge">
<title>Node16&#45;&gt;Node17</title>
<path fill="none" stroke="#63b8ff" d="M1200.89,-329.75C1200.89,-322.8 1200.89,-312.85 1200.89,-304.13"/>
<polygon fill="#63b8ff" stroke="#63b8ff" points="1204.39,-304.09 1200.89,-294.09 1197.39,-304.09 1204.39,-304.09"/>
</g>
<!-- Node17&#45;&gt;Node2 -->
<g id="edge25" class="edge">
<title>Node17&#45;&gt;Node2</title>
<path fill="none" stroke="#63b8ff" d="M1203.28,-274.98C1206.34,-262.51 1210.51,-238.73 1203.89,-220 1193.4,-190.36 1138.35,-130.93 1114.89,-110 1101.44,-98.01 1084.42,-87.11 1070.52,-79.09"/>
<polygon fill="#63b8ff" stroke="#63b8ff" points="1071.92,-75.87 1061.49,-74.03 1068.5,-81.97 1071.92,-75.87"/>
</g>
<!-- Node17&#45;&gt;Node6 -->
<g id="edge61" class="edge">
<title>Node17&#45;&gt;Node6</title>
<path fill="none" stroke="#63b8ff" d="M1253.09,-277.93C1349.14,-266.49 1547.86,-236.88 1588.89,-184 1635.14,-124.39 1529.45,-53.38 1478.9,-24.12"/>
<polygon fill="#63b8ff" stroke="#63b8ff" points="1480.58,-21.05 1470.16,-19.16 1477.13,-27.14 1480.58,-21.05"/>
</g>
<!-- Node17&#45;&gt;Node7 -->
<g id="edge62" class="edge">
<title>Node17&#45;&gt;Node7</title>
<path fill="none" stroke="#63b8ff" d="M1148.5,-282.77C1107.44,-279.67 1050.92,-269.53 1011.89,-239 982.77,-216.22 990.83,-197.86 973.89,-165 948.37,-115.51 918.11,-57.17 903.18,-28.4"/>
<polygon fill="#63b8ff" stroke="#63b8ff" points="906.12,-26.47 898.41,-19.21 899.91,-29.69 906.12,-26.47"/>
</g>
<!-- Node17&#45;&gt;Node14 -->
<g id="edge60" class="edge">
<title>Node17&#45;&gt;Node14</title>
<path fill="none" stroke="#63b8ff" d="M1233.95,-274.98C1291.49,-258.16 1408.53,-214.67 1456.89,-129 1464.52,-115.48 1462.86,-97.66 1459.82,-84.33"/>
<polygon fill="#63b8ff" stroke="#63b8ff" points="1463.11,-83.12 1457.11,-74.39 1456.36,-84.96 1463.11,-83.12"/>
</g>
<!-- Node18 -->
<g id="node18" class="node">
<title>Node18</title>
<g id="a_node18"><a xlink:href="Ioss__Utils_8h.html" target="_top" xlink:title=" ">
<polygon fill="white" stroke="#666666" points="717.39,-239 648.39,-239 648.39,-220 717.39,-220 717.39,-239"/>
<text text-anchor="middle" x="682.89" y="-227" font-family="Helvetica,sans-Serif" font-size="10.00">Ioss_Utils.h</text>
</a>
</g>
</g>
<!-- Node17&#45;&gt;Node18 -->
<g id="edge26" class="edge">
<title>Node17&#45;&gt;Node18</title>
<path fill="none" stroke="#63b8ff" d="M1148.85,-278.18C1047.09,-267.76 823.36,-244.87 727.7,-235.09"/>
<polygon fill="#63b8ff" stroke="#63b8ff" points="727.8,-231.58 717.5,-234.04 727.09,-238.54 727.8,-231.58"/>
</g>
<!-- Node25 -->
<g id="node25" class="node">
<title>Node25</title>
<g id="a_node25"><a xlink:title=" ">
<polygon fill="#e0e0e0" stroke="#999999" points="72.39,-74 13.39,-74 13.39,-55 72.39,-55 72.39,-74"/>
<text text-anchor="middle" x="42.89" y="-62" font-family="Helvetica,sans-Serif" font-size="10.00">functional</text>
</a>
</g>
</g>
<!-- Node17&#45;&gt;Node25 -->
<g id="edge59" class="edge">
<title>Node17&#45;&gt;Node25</title>
<path fill="none" stroke="#63b8ff" d="M1148.7,-281.68C971.52,-274.98 394.5,-248.57 221.89,-184 156.16,-159.41 90.28,-106.89 60.03,-80.82"/>
<polygon fill="#63b8ff" stroke="#63b8ff" points="62.31,-78.16 52.48,-74.22 57.7,-83.43 62.31,-78.16"/>
</g>
<!-- Node33 -->
<g id="node33" class="node">
<title>Node33</title>
<g id="a_node33"><a xlink:title=" ">
<polygon fill="#e0e0e0" stroke="#999999" points="1194.89,-239 1148.89,-239 1148.89,-220 1194.89,-220 1194.89,-239"/>
<text text-anchor="middle" x="1171.89" y="-227" font-family="Helvetica,sans-Serif" font-size="10.00">cstring</text>
</a>
</g>
</g>
<!-- Node17&#45;&gt;Node33 -->
<g id="edge58" class="edge">
<title>Node17&#45;&gt;Node33</title>
<path fill="none" stroke="#63b8ff" d="M1196.1,-274.75C1192.13,-267.49 1186.36,-256.95 1181.45,-247.98"/>
<polygon fill="#63b8ff" stroke="#63b8ff" points="1184.46,-246.18 1176.59,-239.09 1178.32,-249.54 1184.46,-246.18"/>
</g>
<!-- Node18&#45;&gt;Node2 -->
<g id="edge27" class="edge">
<title>Node18&#45;&gt;Node2</title>
<path fill="none" stroke="#63b8ff" d="M717.4,-224.36C756.45,-218.79 821.31,-206.83 872.89,-184 934.76,-156.62 997.81,-106.2 1027.45,-80.87"/>
<polygon fill="#63b8ff" stroke="#63b8ff" points="1029.95,-83.34 1035.22,-74.15 1025.37,-78.05 1029.95,-83.34"/>
</g>
<!-- Node18&#45;&gt;Node4 -->
<g id="edge51" class="edge">
<title>Node18&#45;&gt;Node4</title>
<path fill="none" stroke="#63b8ff" d="M648.15,-226.81C555.12,-222.03 302.02,-207.2 221.89,-184 117.64,-153.82 60.77,-166.42 3.89,-74 -0.54,-66.81 -1.67,-61.35 3.89,-55 23.35,-32.76 220.67,-17.85 302.07,-12.6"/>
<polygon fill="#63b8ff" stroke="#63b8ff" points="302.54,-16.07 312.3,-11.95 302.1,-9.09 302.54,-16.07"/>
</g>
<!-- Node18&#45;&gt;Node5 -->
<g id="edge52" class="edge">
<title>Node18&#45;&gt;Node5</title>
<path fill="none" stroke="#63b8ff" d="M648.02,-227.48C586.67,-224.88 463.39,-215.73 436.89,-184 415.8,-158.76 427.1,-141.4 436.89,-110 445.73,-81.64 449.57,-70.54 474.89,-55 523.78,-24.99 695.96,-14.72 769.35,-11.66"/>
<polygon fill="#63b8ff" stroke="#63b8ff" points="769.58,-15.15 779.43,-11.25 769.3,-8.15 769.58,-15.15"/>
</g>
<!-- Node18&#45;&gt;Node6 -->
<g id="edge56" class="edge">
<title>Node18&#45;&gt;Node6</title>
<path fill="none" stroke="#63b8ff" d="M717.73,-227.37C834.26,-223.4 1209.69,-208.95 1327.89,-184 1398.18,-169.16 1430.74,-181.4 1479.89,-129 1502.91,-104.46 1508.31,-86.27 1495.89,-55 1491.37,-43.63 1482.41,-33.48 1473.93,-25.76"/>
<polygon fill="#63b8ff" stroke="#63b8ff" points="1475.99,-22.92 1466.1,-19.14 1471.47,-28.27 1475.99,-22.92"/>
</g>
<!-- Node18&#45;&gt;Node7 -->
<g id="edge57" class="edge">
<title>Node18&#45;&gt;Node7</title>
<path fill="none" stroke="#63b8ff" d="M648.12,-225.19C599.81,-219.8 516.24,-207.29 497.89,-184 492.66,-177.37 495.09,-172.97 497.89,-165 508.25,-135.46 515.8,-127.31 541.89,-110 595.59,-74.37 785.38,-32.7 861.73,-16.96"/>
<polygon fill="#63b8ff" stroke="#63b8ff" points="862.63,-20.35 871.72,-14.91 861.22,-13.49 862.63,-20.35"/>
</g>
<!-- Node18&#45;&gt;Node10 -->
<g id="edge28" class="edge">
<title>Node18&#45;&gt;Node10</title>
<path fill="none" stroke="#63b8ff" d="M717.56,-225.3C809.67,-216.81 1061.89,-193.57 1186.41,-182.09"/>
<polygon fill="#63b8ff" stroke="#63b8ff" points="1186.96,-185.55 1196.6,-181.15 1186.32,-178.58 1186.96,-185.55"/>
</g>
<!-- Node19 -->
<g id="node19" class="node">
<title>Node19</title>
<g id="a_node19"><a xlink:href="Ioss__EntityType_8h.html" target="_top" xlink:title=" ">
<polygon fill="white" stroke="#666666" points="864.39,-184 769.39,-184 769.39,-165 864.39,-165 864.39,-184"/>
<text text-anchor="middle" x="816.89" y="-172" font-family="Helvetica,sans-Serif" font-size="10.00">Ioss_EntityType.h</text>
</a>
</g>
</g>
<!-- Node18&#45;&gt;Node19 -->
<g id="edge29" class="edge">
<title>Node18&#45;&gt;Node19</title>
<path fill="none" stroke="#63b8ff" d="M704.42,-219.98C726.36,-211.3 760.63,-197.75 785.58,-187.88"/>
<polygon fill="#63b8ff" stroke="#63b8ff" points="786.95,-191.1 794.97,-184.17 784.38,-184.59 786.95,-191.1"/>
</g>
<!-- Node20 -->
<g id="node20" class="node">
<title>Node20</title>
<g id="a_node20"><a xlink:href="Ioss__Field_8h.html" target="_top" xlink:title=" ">
<polygon fill="white" stroke="#666666" points="907.89,-129 837.89,-129 837.89,-110 907.89,-110 907.89,-129"/>
<text text-anchor="middle" x="872.89" y="-117" font-family="Helvetica,sans-Serif" font-size="10.00">Ioss_Field.h</text>
</a>
</g>
</g>
<!-- Node18&#45;&gt;Node20 -->
<g id="edge30" class="edge">
<title>Node18&#45;&gt;Node20</title>
<path fill="none" stroke="#63b8ff" d="M691.66,-219.66C705.26,-206.35 732.72,-181.01 759.89,-165 783.31,-151.2 811.8,-140.02 834.31,-132.31"/>
<polygon fill="#63b8ff" stroke="#63b8ff" points="835.5,-135.6 843.88,-129.12 833.28,-128.96 835.5,-135.6"/>
</g>
<!-- Node21 -->
<g id="node21" class="node">
<title>Node21</title>
<g id="a_node21"><a xlink:href="Ioss__Property_8h.html" target="_top" xlink:title=" ">
<polygon fill="white" stroke="#666666" points="844.89,-74 760.89,-74 760.89,-55 844.89,-55 844.89,-74"/>
<text text-anchor="middle" x="802.89" y="-62" font-family="Helvetica,sans-Serif" font-size="10.00">Ioss_Property.h</text>
</a>
</g>
</g>
<!-- Node18&#45;&gt;Node21 -->
<g id="edge35" class="edge">
<title>Node18&#45;&gt;Node21</title>
<path fill="none" stroke="#63b8ff" d="M648.28,-228.01C587.62,-225.87 471.79,-215.27 507.89,-165 563.36,-87.74 681.95,-69.68 750.68,-65.94"/>
<polygon fill="#63b8ff" stroke="#63b8ff" points="751.03,-69.43 760.86,-65.47 750.71,-62.44 751.03,-69.43"/>
</g>
<!-- Node22 -->
<g id="node22" class="node">
<title>Node22</title>
<g id="a_node22"><a xlink:href="Ioss__Sort_8h.html" target="_top" xlink:title=" ">
<polygon fill="white" stroke="#666666" points="377.39,-184 310.39,-184 310.39,-165 377.39,-165 377.39,-184"/>
<text text-anchor="middle" x="343.89" y="-172" font-family="Helvetica,sans-Serif" font-size="10.00">Ioss_Sort.h</text>
</a>
</g>
</g>
<!-- Node18&#45;&gt;Node22 -->
<g id="edge39" class="edge">
<title>Node18&#45;&gt;Node22</title>
<path fill="none" stroke="#63b8ff" d="M648.2,-223.08C586,-213.35 455.65,-192.97 387.5,-182.32"/>
<polygon fill="#63b8ff" stroke="#63b8ff" points="387.94,-178.84 377.52,-180.76 386.86,-185.76 387.94,-178.84"/>
</g>
<!-- Node24 -->
<g id="node24" class="node">
<title>Node24</title>
<g id="a_node24"><a xlink:title=" ">
<polygon fill="#e0e0e0" stroke="#999999" points="146.89,-74 90.89,-74 90.89,-55 146.89,-55 146.89,-74"/>
<text text-anchor="middle" x="118.89" y="-62" font-family="Helvetica,sans-Serif" font-size="10.00">algorithm</text>
</a>
</g>
</g>
<!-- Node18&#45;&gt;Node24 -->
<g id="edge48" class="edge">
<title>Node18&#45;&gt;Node24</title>
<path fill="none" stroke="#63b8ff" d="M648.36,-227.48C580.71,-224.83 426.34,-215.55 300.89,-184 236.46,-167.8 213.71,-170.58 161.89,-129 146.51,-116.66 134.54,-97.36 127.17,-83.27"/>
<polygon fill="#63b8ff" stroke="#63b8ff" points="130.21,-81.52 122.64,-74.11 123.94,-84.62 130.21,-81.52"/>
</g>
<!-- Node18&#45;&gt;Node28 -->
<g id="edge49" class="edge">
<title>Node18&#45;&gt;Node28</title>
<path fill="none" stroke="#63b8ff" d="M717.41,-227.4C854.22,-222.94 1358.46,-205.35 1516.89,-184 1518.35,-183.8 1519.83,-183.58 1521.33,-183.34"/>
<polygon fill="#63b8ff" stroke="#63b8ff" points="1522.04,-186.77 1531.24,-181.5 1520.77,-179.88 1522.04,-186.77"/>
</g>
<!-- Node29 -->
<g id="node29" class="node">
<title>Node29</title>
<g id="a_node29"><a xlink:title=" ">
<polygon fill="#e0e0e0" stroke="#999999" points="964.89,-184 920.89,-184 920.89,-165 964.89,-165 964.89,-184"/>
<text text-anchor="middle" x="942.89" y="-172" font-family="Helvetica,sans-Serif" font-size="10.00">cmath</text>
</a>
</g>
</g>
<!-- Node18&#45;&gt;Node29 -->
<g id="edge50" class="edge">
<title>Node18&#45;&gt;Node29</title>
<path fill="none" stroke="#63b8ff" d="M717.5,-222.02C761.58,-213.68 840.05,-198.52 906.89,-184 908.16,-183.72 909.45,-183.44 910.76,-183.15"/>
<polygon fill="#63b8ff" stroke="#63b8ff" points="911.87,-186.48 920.83,-180.84 910.3,-179.66 911.87,-186.48"/>
</g>
<!-- Node30 -->
<g id="node30" class="node">
<title>Node30</title>
<g id="a_node30"><a xlink:title=" ">
<polygon fill="#e0e0e0" stroke="#999999" points="562.39,-184 517.39,-184 517.39,-165 562.39,-165 562.39,-184"/>
<text text-anchor="middle" x="539.89" y="-172" font-family="Helvetica,sans-Serif" font-size="10.00">cstdlib</text>
</a>
</g>
</g>
<!-- Node18&#45;&gt;Node30 -->
<g id="edge53" class="edge">
<title>Node18&#45;&gt;Node30</title>
<path fill="none" stroke="#63b8ff" d="M659.91,-219.98C636.25,-211.21 599.16,-197.47 572.47,-187.58"/>
<polygon fill="#63b8ff" stroke="#63b8ff" points="573.4,-184.19 562.81,-183.99 570.97,-190.75 573.4,-184.19"/>
</g>
<!-- Node31 -->
<g id="node31" class="node">
<title>Node31</title>
<g id="a_node31"><a xlink:title=" ">
<polygon fill="#e0e0e0" stroke="#999999" points="634.89,-184 580.89,-184 580.89,-165 634.89,-165 634.89,-184"/>
<text text-anchor="middle" x="607.89" y="-172" font-family="Helvetica,sans-Serif" font-size="10.00">iostream</text>
</a>
</g>
</g>
<!-- Node18&#45;&gt;Node31 -->
<g id="edge54" class="edge">
<title>Node18&#45;&gt;Node31</title>
<path fill="none" stroke="#63b8ff" d="M670.84,-219.98C659.42,-211.92 642.06,-199.65 628.45,-190.03"/>
<polygon fill="#63b8ff" stroke="#63b8ff" points="630.34,-187.08 620.16,-184.17 626.3,-192.8 630.34,-187.08"/>
</g>
<!-- Node32 -->
<g id="node32" class="node">
<title>Node32</title>
<g id="a_node32"><a xlink:title=" ">
<polygon fill="#e0e0e0" stroke="#999999" points="712.39,-184 653.39,-184 653.39,-165 712.39,-165 712.39,-184"/>
<text text-anchor="middle" x="682.89" y="-172" font-family="Helvetica,sans-Serif" font-size="10.00">stdexcept</text>
</a>
</g>
</g>
<!-- Node18&#45;&gt;Node32 -->
<g id="edge55" class="edge">
<title>Node18&#45;&gt;Node32</title>
<path fill="none" stroke="#63b8ff" d="M682.89,-219.75C682.89,-212.8 682.89,-202.85 682.89,-194.13"/>
<polygon fill="#63b8ff" stroke="#63b8ff" points="686.39,-194.09 682.89,-184.09 679.39,-194.09 686.39,-194.09"/>
</g>
<!-- Node20&#45;&gt;Node2 -->
<g id="edge31" class="edge">
<title>Node20&#45;&gt;Node2</title>
<path fill="none" stroke="#63b8ff" d="M900.52,-109.98C929.4,-101.09 974.9,-87.07 1007.09,-77.15"/>
<polygon fill="#63b8ff" stroke="#63b8ff" points="1008.51,-80.37 1017.04,-74.08 1006.45,-73.68 1008.51,-80.37"/>
</g>
<!-- Node20&#45;&gt;Node4 -->
<g id="edge32" class="edge">
<title>Node20&#45;&gt;Node4</title>
<path fill="none" stroke="#63b8ff" d="M837.72,-111.41C740.31,-91.79 467.82,-36.88 371.31,-17.44"/>
<polygon fill="#63b8ff" stroke="#63b8ff" points="371.97,-14 361.48,-15.45 370.59,-20.86 371.97,-14"/>
</g>
<!-- Node20&#45;&gt;Node6 -->
<g id="edge33" class="edge">
<title>Node20&#45;&gt;Node6</title>
<path fill="none" stroke="#63b8ff" d="M884.45,-109.89C904.25,-95.67 946.44,-67.58 986.89,-55 1068.9,-29.48 1332.8,-15.81 1423.18,-11.78"/>
<polygon fill="#63b8ff" stroke="#63b8ff" points="1423.48,-15.27 1433.32,-11.34 1423.18,-8.28 1423.48,-15.27"/>
</g>
<!-- Node20&#45;&gt;Node7 -->
<g id="edge34" class="edge">
<title>Node20&#45;&gt;Node7</title>
<path fill="none" stroke="#63b8ff" d="M874.61,-109.66C878.01,-92.17 885.66,-52.8 890.24,-29.27"/>
<polygon fill="#63b8ff" stroke="#63b8ff" points="893.73,-29.64 892.2,-19.16 886.86,-28.31 893.73,-29.64"/>
</g>
<!-- Node21&#45;&gt;Node5 -->
<g id="edge36" class="edge">
<title>Node21&#45;&gt;Node5</title>
<path fill="none" stroke="#63b8ff" d="M802.89,-54.75C802.89,-47.8 802.89,-37.85 802.89,-29.13"/>
<polygon fill="#63b8ff" stroke="#63b8ff" points="806.39,-29.09 802.89,-19.09 799.39,-29.09 806.39,-29.09"/>
</g>
<!-- Node21&#45;&gt;Node6 -->
<g id="edge37" class="edge">
<title>Node21&#45;&gt;Node6</title>
<path fill="none" stroke="#63b8ff" d="M844.99,-59.6C861.21,-58.12 879.91,-56.45 896.89,-55 1097.37,-37.93 1338.61,-19.31 1422.97,-12.86"/>
<polygon fill="#63b8ff" stroke="#63b8ff" points="1423.44,-16.33 1433.14,-12.08 1422.91,-9.35 1423.44,-16.33"/>
</g>
<!-- Node21&#45;&gt;Node7 -->
<g id="edge38" class="edge">
<title>Node21&#45;&gt;Node7</title>
<path fill="none" stroke="#63b8ff" d="M817.51,-54.98C831.75,-46.69 853.64,-33.94 870.34,-24.22"/>
<polygon fill="#63b8ff" stroke="#63b8ff" points="872.12,-27.23 879,-19.17 868.6,-21.18 872.12,-27.23"/>
</g>
<!-- Node22&#45;&gt;Node4 -->
<g id="edge46" class="edge">
<title>Node22&#45;&gt;Node4</title>
<path fill="none" stroke="#63b8ff" d="M343.51,-164.74C342.42,-139.31 339.23,-65.08 337.71,-29.69"/>
<polygon fill="#63b8ff" stroke="#63b8ff" points="341.19,-29.15 337.27,-19.31 334.2,-29.45 341.19,-29.15"/>
</g>
<!-- Node22&#45;&gt;Node7 -->
<g id="edge47" class="edge">
<title>Node22&#45;&gt;Node7</title>
<path fill="none" stroke="#63b8ff" d="M350.07,-164.97C367.02,-142.33 416.86,-80.74 474.89,-55 621.87,10.2 675.27,-38.47 834.89,-19 843.58,-17.94 852.97,-16.65 861.65,-15.4"/>
<polygon fill="#63b8ff" stroke="#63b8ff" points="862.4,-18.83 871.78,-13.92 861.38,-11.9 862.4,-18.83"/>
</g>
<!-- Node23 -->
<g id="node23" class="node">
<title>Node23</title>
<g id="a_node23"><a xlink:href="pdqsort_8h.html" target="_top" xlink:title=" ">
<polygon fill="white" stroke="#666666" points="228.39,-129 171.39,-129 171.39,-110 228.39,-110 228.39,-129"/>
<text text-anchor="middle" x="199.89" y="-117" font-family="Helvetica,sans-Serif" font-size="10.00">pdqsort.h</text>
</a>
</g>
</g>
<!-- Node22&#45;&gt;Node23 -->
<g id="edge40" class="edge">
<title>Node22&#45;&gt;Node23</title>
<path fill="none" stroke="#63b8ff" d="M320.75,-164.98C297.06,-156.27 260.02,-142.63 233.18,-132.75"/>
<polygon fill="#63b8ff" stroke="#63b8ff" points="234.04,-129.34 223.44,-129.17 231.62,-135.91 234.04,-129.34"/>
</g>
<!-- Node23&#45;&gt;Node4 -->
<g id="edge42" class="edge">
<title>Node23&#45;&gt;Node4</title>
<path fill="none" stroke="#63b8ff" d="M195.68,-109.72C190.01,-96.48 181.94,-71.23 193.89,-55 218.51,-21.56 268.07,-12.52 301.86,-10.46"/>
<polygon fill="#63b8ff" stroke="#63b8ff" points="302.39,-13.94 312.23,-10.01 302.09,-6.94 302.39,-13.94"/>
</g>
<!-- Node23&#45;&gt;Node24 -->
<g id="edge41" class="edge">
<title>Node23&#45;&gt;Node24</title>
<path fill="none" stroke="#63b8ff" d="M186.87,-109.98C174.43,-101.84 155.43,-89.41 140.68,-79.76"/>
<polygon fill="#63b8ff" stroke="#63b8ff" points="142.42,-76.72 132.14,-74.17 138.59,-82.57 142.42,-76.72"/>
</g>
<!-- Node23&#45;&gt;Node25 -->
<g id="edge43" class="edge">
<title>Node23&#45;&gt;Node25</title>
<path fill="none" stroke="#63b8ff" d="M174.66,-109.98C148.53,-101.16 107.49,-87.31 78.15,-77.41"/>
<polygon fill="#63b8ff" stroke="#63b8ff" points="78.9,-73.96 68.31,-74.08 76.67,-80.6 78.9,-73.96"/>
</g>
<!-- Node26 -->
<g id="node26" class="node">
<title>Node26</title>
<g id="a_node26"><a xlink:title=" ">
<polygon fill="#e0e0e0" stroke="#999999" points="308.39,-74 261.39,-74 261.39,-55 308.39,-55 308.39,-74"/>
<text text-anchor="middle" x="284.89" y="-62" font-family="Helvetica,sans-Serif" font-size="10.00">iterator</text>
</a>
</g>
</g>
<!-- Node23&#45;&gt;Node26 -->
<g id="edge44" class="edge">
<title>Node23&#45;&gt;Node26</title>
<path fill="none" stroke="#63b8ff" d="M213.54,-109.98C226.73,-101.77 246.91,-89.18 262.46,-79.49"/>
<polygon fill="#63b8ff" stroke="#63b8ff" points="264.35,-82.43 270.98,-74.17 260.64,-76.49 264.35,-82.43"/>
</g>
<!-- Node27 -->
<g id="node27" class="node">
<title>Node27</title>
<g id="a_node27"><a xlink:title=" ">
<polygon fill="#e0e0e0" stroke="#999999" points="242.89,-74 202.89,-74 202.89,-55 242.89,-55 242.89,-74"/>
<text text-anchor="middle" x="222.89" y="-62" font-family="Helvetica,sans-Serif" font-size="10.00">utility</text>
</a>
</g>
</g>
<!-- Node23&#45;&gt;Node27 -->
<g id="edge45" class="edge">
<title>Node23&#45;&gt;Node27</title>
<path fill="none" stroke="#63b8ff" d="M203.69,-109.75C206.8,-102.57 211.31,-92.18 215.18,-83.27"/>
<polygon fill="#63b8ff" stroke="#63b8ff" points="218.39,-84.66 219.16,-74.09 211.97,-81.87 218.39,-84.66"/>
</g>
<!-- Node34&#45;&gt;Node2 -->
<g id="edge65" class="edge">
<title>Node34&#45;&gt;Node2</title>
<path fill="none" stroke="#63b8ff" d="M1056.24,-219.74C1054.37,-194.31 1048.91,-120.08 1046.3,-84.69"/>
<polygon fill="#63b8ff" stroke="#63b8ff" points="1049.76,-84.02 1045.54,-74.31 1042.78,-84.54 1049.76,-84.02"/>
</g>
<!-- Node34&#45;&gt;Node10 -->
<g id="edge66" class="edge">
<title>Node34&#45;&gt;Node10</title>
<path fill="none" stroke="#63b8ff" d="M1089.18,-219.98C1123.51,-210.93 1177.95,-196.58 1215.66,-186.64"/>
<polygon fill="#63b8ff" stroke="#63b8ff" points="1216.56,-190.02 1225.34,-184.08 1214.78,-183.25 1216.56,-190.02"/>
</g>
</g>
</svg>
