<?xml version="1.0" encoding="UTF-8" standalone="no"?>
<!DOCTYPE svg PUBLIC "-//W3C//DTD SVG 1.1//EN"
 "http://www.w3.org/Graphics/SVG/1.1/DTD/svg11.dtd">
<!-- Generated by graphviz version 7.1.0 (20230121.1956)
 -->
<!-- Title: src/Ioss_Utils.h Pages: 1 -->
<!--zoomable 247 -->
<svg id="main" version="1.1" xmlns="http://www.w3.org/2000/svg" xmlns:xlink="http://www.w3.org/1999/xlink" xml:space="preserve" onload="init(evt)">
<style type="text/css"><![CDATA[
.edge:hover path { stroke: red; }
.edge:hover polygon { stroke: red; fill: red; }
]]></style>
<script type="text/javascript"><![CDATA[
var edges = document.getElementsByTagName('g');
if (edges && edges.length) {
  for (var i=0;i<edges.length;i++) {
    if (edges[i].id.substr(0,4)=='edge') {
      edges[i].setAttribute('class','edge');
    }
  }
}
]]></script>
        <defs>
                <circle id="rim" cx="0" cy="0" r="7"/>
                <circle id="rim2" cx="0" cy="0" r="3.5"/>
                <g id="zoomPlus">
                        <use xlink:href="#rim" fill="#404040">
                                <set attributeName="fill" to="#808080" begin="zoomplus.mouseover" end="zoomplus.mouseout"/>
                        </use>
                        <path d="M-4,0h8M0,-4v8" fill="none" stroke="white" stroke-width="1.5" pointer-events="none"/>
                </g>
                <g id="zoomMin">
                        <use xlink:href="#rim" fill="#404040">
                                <set attributeName="fill" to="#808080" begin="zoomminus.mouseover" end="zoomminus.mouseout"/>
                        </use>
                        <path d="M-4,0h8" fill="none" stroke="white" stroke-width="1.5" pointer-events="none"/>
                </g>
                <g id="dirArrow">
                        <path fill="none" stroke="white" stroke-width="1.5" d="M0,-3.0v7 M-2.5,-0.5L0,-3.0L2.5,-0.5"/>
                </g>
               <g id="resetDef">
                       <use xlink:href="#rim2" fill="#404040">
                               <set attributeName="fill" to="#808080" begin="reset.mouseover" end="reset.mouseout"/>
                       </use>
               </g>
        </defs>

<script type="text/javascript">
var viewWidth = 1321;
var viewHeight = 247;
var sectionId = 'dynsection-0';
</script>
<script xlink:href="svgpan.js"/>
<svg id="graph" class="graph">
<g id="viewport">
<title>src/Ioss_Utils.h</title>
<!-- Node1 -->
<g id="node1" class="node">
<title>Node1</title>
<g id="a_node1"><a xlink:title=" ">
<polygon fill="#999999" stroke="#666666" points="840.88,-239 754.88,-239 754.88,-220 840.88,-220 840.88,-239"/>
<text text-anchor="middle" x="797.88" y="-227" font-family="Helvetica,sans-Serif" font-size="10.00">src/Ioss_Utils.h</text>
</a>
</g>
</g>
<!-- Node2 -->
<g id="node2" class="node">
<title>Node2</title>
<g id="a_node2"><a xlink:title=" ">
<polygon fill="#e0e0e0" stroke="#999999" points="244.38,-74 169.38,-74 169.38,-55 244.38,-55 244.38,-74"/>
<text text-anchor="middle" x="206.88" y="-62" font-family="Helvetica,sans-Serif" font-size="10.00">ioss_export.h</text>
</a>
</g>
</g>
<!-- Node1&#45;&gt;Node2 -->
<g id="edge1" class="edge">
<title>Node1&#45;&gt;Node2</title>
<path fill="none" stroke="#63b8ff" d="M754.48,-227.53C645.73,-224.66 364.01,-214.42 275.88,-184 233.7,-169.44 213.1,-168.26 191.88,-129 184.31,-114.99 189.58,-97.21 195.87,-84.03"/>
<polygon fill="#63b8ff" stroke="#63b8ff" points="198.77,-86.02 200.42,-75.56 192.61,-82.71 198.77,-86.02"/>
</g>
<!-- Node3 -->
<g id="node3" class="node">
<title>Node3</title>
<g id="a_node3"><a xlink:href="Ioss__CodeTypes_8h.html" target="_top" xlink:title=" ">
<polygon fill="white" stroke="#666666" points="655.88,-74 557.88,-74 557.88,-55 655.88,-55 655.88,-74"/>
<text text-anchor="middle" x="606.88" y="-62" font-family="Helvetica,sans-Serif" font-size="10.00">Ioss_CodeTypes.h</text>
</a>
</g>
</g>
<!-- Node1&#45;&gt;Node3 -->
<g id="edge2" class="edge">
<title>Node1&#45;&gt;Node3</title>
<path fill="none" stroke="#63b8ff" d="M754.61,-222.8C723.9,-217.04 682.97,-205.75 652.88,-184 628.6,-166.45 624.53,-157.01 613.88,-129 608.62,-115.16 606.94,-98.49 606.54,-85.7"/>
<polygon fill="#63b8ff" stroke="#63b8ff" points="610.04,-85.95 606.49,-75.97 603.04,-85.99 610.04,-85.95"/>
</g>
<!-- Node5 -->
<g id="node5" class="node">
<title>Node5</title>
<g id="a_node5"><a xlink:title=" ">
<polygon fill="#e0e0e0" stroke="#999999" points="819.38,-19 770.38,-19 770.38,0 819.38,0 819.38,-19"/>
<text text-anchor="middle" x="794.88" y="-7" font-family="Helvetica,sans-Serif" font-size="10.00">cstddef</text>
</a>
</g>
</g>
<!-- Node1&#45;&gt;Node5 -->
<g id="edge49" class="edge">
<title>Node1&#45;&gt;Node5</title>
<path fill="none" stroke="#63b8ff" d="M816.79,-219.62C850.85,-202.21 917.68,-160.8 902.88,-110 894.78,-82.18 888.57,-75.29 867.88,-55 855.26,-42.62 838.59,-32.13 824.36,-24.45"/>
<polygon fill="#63b8ff" stroke="#63b8ff" points="826.36,-21.54 815.87,-20.06 823.14,-27.76 826.36,-21.54"/>
</g>
<!-- Node6 -->
<g id="node6" class="node">
<title>Node6</title>
<g id="a_node6"><a xlink:title=" ">
<polygon fill="#e0e0e0" stroke="#999999" points="49.88,-19 3.88,-19 3.88,0 49.88,0 49.88,-19"/>
<text text-anchor="middle" x="26.88" y="-7" font-family="Helvetica,sans-Serif" font-size="10.00">cstdint</text>
</a>
</g>
</g>
<!-- Node1&#45;&gt;Node6 -->
<g id="edge50" class="edge">
<title>Node1&#45;&gt;Node6</title>
<path fill="none" stroke="#63b8ff" d="M754.4,-228.15C602.87,-226.61 103.97,-218.93 41.88,-184 15.99,-169.43 12.73,-157.36 3.88,-129 -6.79,-94.77 7.07,-53.36 17.45,-29.66"/>
<polygon fill="#63b8ff" stroke="#63b8ff" points="20.59,-31.2 21.63,-20.66 14.24,-28.25 20.59,-31.2"/>
</g>
<!-- Node7 -->
<g id="node7" class="node">
<title>Node7</title>
<g id="a_node7"><a xlink:title=" ">
<polygon fill="#e0e0e0" stroke="#999999" points="254.38,-19 213.38,-19 213.38,0 254.38,0 254.38,-19"/>
<text text-anchor="middle" x="233.88" y="-7" font-family="Helvetica,sans-Serif" font-size="10.00">string</text>
</a>
</g>
</g>
<!-- Node1&#45;&gt;Node7 -->
<g id="edge54" class="edge">
<title>Node1&#45;&gt;Node7</title>
<path fill="none" stroke="#63b8ff" d="M754.46,-228.76C620.75,-229.1 216.87,-226.5 93.88,-184 53.1,-169.91 33.97,-167.19 13.88,-129 -26.69,-51.87 131.87,-22.82 202.03,-13.89"/>
<polygon fill="#63b8ff" stroke="#63b8ff" points="202.25,-17.39 211.76,-12.72 201.42,-10.44 202.25,-17.39"/>
</g>
<!-- Node8 -->
<g id="node8" class="node">
<title>Node8</title>
<g id="a_node8"><a xlink:title=" ">
<polygon fill="#e0e0e0" stroke="#999999" points="744.88,-19 700.88,-19 700.88,0 744.88,0 744.88,-19"/>
<text text-anchor="middle" x="722.88" y="-7" font-family="Helvetica,sans-Serif" font-size="10.00">vector</text>
</a>
</g>
</g>
<!-- Node1&#45;&gt;Node8 -->
<g id="edge55" class="edge">
<title>Node1&#45;&gt;Node8</title>
<path fill="none" stroke="#63b8ff" d="M795.26,-219.76C787.54,-194.19 763.99,-117.44 740.88,-55 737.81,-46.7 734.19,-37.62 731,-29.84"/>
<polygon fill="#63b8ff" stroke="#63b8ff" points="734.27,-28.6 727.2,-20.7 727.81,-31.28 734.27,-28.6"/>
</g>
<!-- Node11 -->
<g id="node11" class="node">
<title>Node11</title>
<g id="a_node11"><a xlink:href="Ioss__ElementTopology_8h.html" target="_top" xlink:title=" ">
<polygon fill="white" stroke="#666666" points="406.88,-184 284.88,-184 284.88,-165 406.88,-165 406.88,-184"/>
<text text-anchor="middle" x="345.88" y="-172" font-family="Helvetica,sans-Serif" font-size="10.00">Ioss_ElementTopology.h</text>
</a>
</g>
</g>
<!-- Node1&#45;&gt;Node11 -->
<g id="edge10" class="edge">
<title>Node1&#45;&gt;Node11</title>
<path fill="none" stroke="#63b8ff" d="M754.54,-223.42C676.94,-214.32 513.5,-195.15 418.51,-184.02"/>
<polygon fill="#63b8ff" stroke="#63b8ff" points="419.11,-180.56 408.78,-182.87 418.3,-187.52 419.11,-180.56"/>
</g>
<!-- Node17 -->
<g id="node17" class="node">
<title>Node17</title>
<g id="a_node17"><a xlink:href="Ioss__EntityType_8h.html" target="_top" xlink:title=" ">
<polygon fill="white" stroke="#666666" points="769.38,-184 674.38,-184 674.38,-165 769.38,-165 769.38,-184"/>
<text text-anchor="middle" x="721.88" y="-172" font-family="Helvetica,sans-Serif" font-size="10.00">Ioss_EntityType.h</text>
</a>
</g>
</g>
<!-- Node1&#45;&gt;Node17 -->
<g id="edge25" class="edge">
<title>Node1&#45;&gt;Node17</title>
<path fill="none" stroke="#63b8ff" d="M784.99,-219.51C773.79,-211.7 757.31,-200.21 744,-190.93"/>
<polygon fill="#63b8ff" stroke="#63b8ff" points="746.03,-188.07 735.83,-185.22 742.03,-193.81 746.03,-188.07"/>
</g>
<!-- Node18 -->
<g id="node18" class="node">
<title>Node18</title>
<g id="a_node18"><a xlink:href="Ioss__Field_8h.html" target="_top" xlink:title=" ">
<polygon fill="white" stroke="#666666" points="692.88,-129 622.88,-129 622.88,-110 692.88,-110 692.88,-129"/>
<text text-anchor="middle" x="657.88" y="-117" font-family="Helvetica,sans-Serif" font-size="10.00">Ioss_Field.h</text>
</a>
</g>
</g>
<!-- Node1&#45;&gt;Node18 -->
<g id="edge26" class="edge">
<title>Node1&#45;&gt;Node18</title>
<path fill="none" stroke="#63b8ff" d="M754.53,-225.8C724.6,-221.51 686.44,-210.72 664.88,-184 655.18,-171.97 653.96,-154.22 654.87,-140.55"/>
<polygon fill="#63b8ff" stroke="#63b8ff" points="658.32,-141.24 655.95,-130.92 651.36,-140.46 658.32,-141.24"/>
</g>
<!-- Node19 -->
<g id="node19" class="node">
<title>Node19</title>
<g id="a_node19"><a xlink:href="Ioss__Property_8h.html" target="_top" xlink:title=" ">
<polygon fill="white" stroke="#666666" points="106.88,-129 22.88,-129 22.88,-110 106.88,-110 106.88,-129"/>
<text text-anchor="middle" x="64.88" y="-117" font-family="Helvetica,sans-Serif" font-size="10.00">Ioss_Property.h</text>
</a>
</g>
</g>
<!-- Node1&#45;&gt;Node19 -->
<g id="edge32" class="edge">
<title>Node1&#45;&gt;Node19</title>
<path fill="none" stroke="#63b8ff" d="M754.75,-227.57C614.56,-224.28 177.57,-211.86 120.88,-184 101.14,-174.3 85.34,-154.23 75.62,-139.24"/>
<polygon fill="#63b8ff" stroke="#63b8ff" points="78.63,-137.45 70.44,-130.73 72.65,-141.09 78.63,-137.45"/>
</g>
<!-- Node20 -->
<g id="node20" class="node">
<title>Node20</title>
<g id="a_node20"><a xlink:href="Ioss__Sort_8h.html" target="_top" xlink:title=" ">
<polygon fill="white" stroke="#666666" points="893.38,-129 826.38,-129 826.38,-110 893.38,-110 893.38,-129"/>
<text text-anchor="middle" x="859.88" y="-117" font-family="Helvetica,sans-Serif" font-size="10.00">Ioss_Sort.h</text>
</a>
</g>
</g>
<!-- Node1&#45;&gt;Node20 -->
<g id="edge37" class="edge">
<title>Node1&#45;&gt;Node20</title>
<path fill="none" stroke="#63b8ff" d="M802.96,-219.66C812.99,-202.18 835.58,-162.84 849.09,-139.3"/>
<polygon fill="#63b8ff" stroke="#63b8ff" points="852.04,-141.19 853.98,-130.77 845.97,-137.7 852.04,-141.19"/>
</g>
<!-- Node22 -->
<g id="node22" class="node">
<title>Node22</title>
<g id="a_node22"><a xlink:title=" ">
<polygon fill="#e0e0e0" stroke="#999999" points="1093.88,-19 1037.88,-19 1037.88,0 1093.88,0 1093.88,-19"/>
<text text-anchor="middle" x="1065.88" y="-7" font-family="Helvetica,sans-Serif" font-size="10.00">algorithm</text>
</a>
</g>
</g>
<!-- Node1&#45;&gt;Node22 -->
<g id="edge46" class="edge">
<title>Node1&#45;&gt;Node22</title>
<path fill="none" stroke="#63b8ff" d="M822.77,-219.66C842.9,-211.88 871.49,-199.42 893.88,-184 961.61,-137.37 1025.39,-61.87 1052.37,-27.96"/>
<polygon fill="#63b8ff" stroke="#63b8ff" points="1054.89,-30.42 1058.32,-20.39 1049.39,-26.09 1054.89,-30.42"/>
</g>
<!-- Node26 -->
<g id="node26" class="node">
<title>Node26</title>
<g id="a_node26"><a xlink:title=" ">
<polygon fill="#e0e0e0" stroke="#999999" points="1037.38,-184 988.38,-184 988.38,-165 1037.38,-165 1037.38,-184"/>
<text text-anchor="middle" x="1012.88" y="-172" font-family="Helvetica,sans-Serif" font-size="10.00">cassert</text>
</a>
</g>
</g>
<!-- Node1&#45;&gt;Node26 -->
<g id="edge47" class="edge">
<title>Node1&#45;&gt;Node26</title>
<path fill="none" stroke="#63b8ff" d="M834.35,-219.51C874.15,-209.7 937.47,-194.09 977.02,-184.34"/>
<polygon fill="#63b8ff" stroke="#63b8ff" points="977.66,-187.79 986.53,-182 975.98,-180.99 977.66,-187.79"/>
</g>
<!-- Node27 -->
<g id="node27" class="node">
<title>Node27</title>
<g id="a_node27"><a xlink:title=" ">
<polygon fill="#e0e0e0" stroke="#999999" points="1099.88,-184 1055.88,-184 1055.88,-165 1099.88,-165 1099.88,-184"/>
<text text-anchor="middle" x="1077.88" y="-172" font-family="Helvetica,sans-Serif" font-size="10.00">cmath</text>
</a>
</g>
</g>
<!-- Node1&#45;&gt;Node27 -->
<g id="edge48" class="edge">
<title>Node1&#45;&gt;Node27</title>
<path fill="none" stroke="#63b8ff" d="M841.3,-221.97C888.94,-214.53 967.86,-201.41 1044.76,-184.31"/>
<polygon fill="#63b8ff" stroke="#63b8ff" points="1045.13,-187.82 1054.11,-182.2 1043.59,-180.99 1045.13,-187.82"/>
</g>
<!-- Node28 -->
<g id="node28" class="node">
<title>Node28</title>
<g id="a_node28"><a xlink:title=" ">
<polygon fill="#e0e0e0" stroke="#999999" points="1163.38,-184 1118.38,-184 1118.38,-165 1163.38,-165 1163.38,-184"/>
<text text-anchor="middle" x="1140.88" y="-172" font-family="Helvetica,sans-Serif" font-size="10.00">cstdlib</text>
</a>
</g>
</g>
<!-- Node1&#45;&gt;Node28 -->
<g id="edge51" class="edge">
<title>Node1&#45;&gt;Node28</title>
<path fill="none" stroke="#63b8ff" d="M841.17,-223.93C899.33,-217.44 1006.08,-204.29 1106.61,-184.24"/>
<polygon fill="#63b8ff" stroke="#63b8ff" points="1107.3,-187.67 1116.4,-182.25 1105.91,-180.81 1107.3,-187.67"/>
</g>
<!-- Node29 -->
<g id="node29" class="node">
<title>Node29</title>
<g id="a_node29"><a xlink:title=" ">
<polygon fill="#e0e0e0" stroke="#999999" points="1235.88,-184 1181.88,-184 1181.88,-165 1235.88,-165 1235.88,-184"/>
<text text-anchor="middle" x="1208.88" y="-172" font-family="Helvetica,sans-Serif" font-size="10.00">iostream</text>
</a>
</g>
</g>
<!-- Node1&#45;&gt;Node29 -->
<g id="edge52" class="edge">
<title>Node1&#45;&gt;Node29</title>
<path fill="none" stroke="#63b8ff" d="M841.14,-224.98C909.13,-219.09 1045.32,-205.89 1170.16,-184.3"/>
<polygon fill="#63b8ff" stroke="#63b8ff" points="1170.7,-187.76 1179.94,-182.58 1169.49,-180.86 1170.7,-187.76"/>
</g>
<!-- Node30 -->
<g id="node30" class="node">
<title>Node30</title>
<g id="a_node30"><a xlink:title=" ">
<polygon fill="#e0e0e0" stroke="#999999" points="1313.38,-184 1254.38,-184 1254.38,-165 1313.38,-165 1313.38,-184"/>
<text text-anchor="middle" x="1283.88" y="-172" font-family="Helvetica,sans-Serif" font-size="10.00">stdexcept</text>
</a>
</g>
</g>
<!-- Node1&#45;&gt;Node30 -->
<g id="edge53" class="edge">
<title>Node1&#45;&gt;Node30</title>
<path fill="none" stroke="#63b8ff" d="M841.24,-225.85C919.47,-220.71 1089.54,-207.9 1243.11,-184.09"/>
<polygon fill="#63b8ff" stroke="#63b8ff" points="1243.31,-187.6 1252.64,-182.59 1242.22,-180.68 1243.31,-187.6"/>
</g>
<!-- Node4 -->
<g id="node4" class="node">
<title>Node4</title>
<g id="a_node4"><a xlink:title=" ">
<polygon fill="#e0e0e0" stroke="#999999" points="476.88,-19 438.88,-19 438.88,0 476.88,0 476.88,-19"/>
<text text-anchor="middle" x="457.88" y="-7" font-family="Helvetica,sans-Serif" font-size="10.00">array</text>
</a>
</g>
</g>
<!-- Node3&#45;&gt;Node4 -->
<g id="edge3" class="edge">
<title>Node3&#45;&gt;Node4</title>
<path fill="none" stroke="#63b8ff" d="M581.61,-54.51C555.63,-45.27 515.19,-30.89 487.68,-21.1"/>
<polygon fill="#63b8ff" stroke="#63b8ff" points="489.13,-17.9 478.53,-17.85 486.78,-24.5 489.13,-17.9"/>
</g>
<!-- Node3&#45;&gt;Node5 -->
<g id="edge4" class="edge">
<title>Node3&#45;&gt;Node5</title>
<path fill="none" stroke="#63b8ff" d="M638.77,-54.51C672.09,-45.12 724.25,-30.41 758.99,-20.62"/>
<polygon fill="#63b8ff" stroke="#63b8ff" points="759.92,-23.99 768.6,-17.91 758.02,-17.25 759.92,-23.99"/>
</g>
<!-- Node3&#45;&gt;Node6 -->
<g id="edge5" class="edge">
<title>Node3&#45;&gt;Node6</title>
<path fill="none" stroke="#63b8ff" d="M557.43,-58.98C442.64,-48.49 160.39,-22.7 61.66,-13.68"/>
<polygon fill="#63b8ff" stroke="#63b8ff" points="62.07,-10.2 51.8,-12.78 61.44,-17.17 62.07,-10.2"/>
</g>
<!-- Node3&#45;&gt;Node7 -->
<g id="edge6" class="edge">
<title>Node3&#45;&gt;Node7</title>
<path fill="none" stroke="#63b8ff" d="M557.73,-56.52C480.08,-45.48 331.12,-24.32 265.85,-15.04"/>
<polygon fill="#63b8ff" stroke="#63b8ff" points="266.56,-11.61 256.17,-13.67 265.58,-18.54 266.56,-11.61"/>
</g>
<!-- Node3&#45;&gt;Node8 -->
<g id="edge7" class="edge">
<title>Node3&#45;&gt;Node8</title>
<path fill="none" stroke="#63b8ff" d="M626.56,-54.51C644.83,-46.16 672.3,-33.61 693.23,-24.05"/>
<polygon fill="#63b8ff" stroke="#63b8ff" points="694.48,-27.33 702.12,-19.99 691.57,-20.96 694.48,-27.33"/>
</g>
<!-- Node9 -->
<g id="node9" class="node">
<title>Node9</title>
<g id="a_node9"><a xlink:title=" ">
<polygon fill="#e0e0e0" stroke="#999999" points="610.88,-19 494.88,-19 494.88,0 610.88,0 610.88,-19"/>
<text text-anchor="middle" x="552.88" y="-7" font-family="Helvetica,sans-Serif" font-size="10.00">SEACASIoss_config.h</text>
</a>
</g>
</g>
<!-- Node3&#45;&gt;Node9 -->
<g id="edge8" class="edge">
<title>Node3&#45;&gt;Node9</title>
<path fill="none" stroke="#63b8ff" d="M597.96,-54.75C590.43,-47.35 579.41,-36.54 570.16,-27.45"/>
<polygon fill="#63b8ff" stroke="#63b8ff" points="572.66,-25.01 563.07,-20.5 567.76,-30 572.66,-25.01"/>
</g>
<!-- Node10 -->
<g id="node10" class="node">
<title>Node10</title>
<g id="a_node10"><a xlink:title=" ">
<polygon fill="#e0e0e0" stroke="#999999" points="682.38,-19 629.38,-19 629.38,0 682.38,0 682.38,-19"/>
<text text-anchor="middle" x="655.88" y="-7" font-family="Helvetica,sans-Serif" font-size="10.00">complex</text>
</a>
</g>
</g>
<!-- Node3&#45;&gt;Node10 -->
<g id="edge9" class="edge">
<title>Node3&#45;&gt;Node10</title>
<path fill="none" stroke="#63b8ff" d="M614.97,-54.75C621.74,-47.43 631.6,-36.76 639.95,-27.74"/>
<polygon fill="#63b8ff" stroke="#63b8ff" points="642.37,-30.27 646.59,-20.55 637.23,-25.52 642.37,-30.27"/>
</g>
<!-- Node11&#45;&gt;Node2 -->
<g id="edge11" class="edge">
<title>Node11&#45;&gt;Node2</title>
<path fill="none" stroke="#63b8ff" d="M334.51,-164.66C311.09,-146.47 257.2,-104.6 227.49,-81.51"/>
<polygon fill="#63b8ff" stroke="#63b8ff" points="229.65,-78.76 219.61,-75.39 225.36,-84.29 229.65,-78.76"/>
</g>
<!-- Node11&#45;&gt;Node3 -->
<g id="edge12" class="edge">
<title>Node11&#45;&gt;Node3</title>
<path fill="none" stroke="#63b8ff" d="M373.47,-164.52C398.99,-156.01 437.85,-142.56 470.88,-129 508.98,-113.37 551.86,-92.84 579.11,-79.41"/>
<polygon fill="#63b8ff" stroke="#63b8ff" points="580.32,-82.72 587.73,-75.14 577.21,-76.45 580.32,-82.72"/>
</g>
<!-- Node11&#45;&gt;Node7 -->
<g id="edge23" class="edge">
<title>Node11&#45;&gt;Node7</title>
<path fill="none" stroke="#63b8ff" d="M284.72,-166.71C254.29,-160.79 218.43,-149.71 191.88,-129 163.63,-106.96 142.24,-86.19 159.88,-55 169.06,-38.78 186.77,-27.82 202.57,-20.83"/>
<polygon fill="#63b8ff" stroke="#63b8ff" points="203.69,-24.16 211.66,-17.18 201.08,-17.66 203.69,-24.16"/>
</g>
<!-- Node11&#45;&gt;Node8 -->
<g id="edge24" class="edge">
<title>Node11&#45;&gt;Node8</title>
<path fill="none" stroke="#63b8ff" d="M407.25,-174.28C497.75,-174.08 660.74,-168.1 701.88,-129 728.56,-103.65 728.47,-57.07 725.81,-30.49"/>
<polygon fill="#63b8ff" stroke="#63b8ff" points="729.31,-30.22 724.6,-20.72 722.36,-31.08 729.31,-30.22"/>
</g>
<!-- Node12 -->
<g id="node12" class="node">
<title>Node12</title>
<g id="a_node12"><a xlink:href="Ioss__ElementPermutation_8h.html" target="_top" xlink:title=" ">
<polygon fill="white" stroke="#666666" points="462.38,-129 325.38,-129 325.38,-110 462.38,-110 462.38,-129"/>
<text text-anchor="middle" x="393.88" y="-117" font-family="Helvetica,sans-Serif" font-size="10.00">Ioss_ElementPermutation.h</text>
</a>
</g>
</g>
<!-- Node11&#45;&gt;Node12 -->
<g id="edge13" class="edge">
<title>Node11&#45;&gt;Node12</title>
<path fill="none" stroke="#63b8ff" d="M353.81,-164.75C360.44,-157.43 370.1,-146.76 378.27,-137.74"/>
<polygon fill="#63b8ff" stroke="#63b8ff" points="380.65,-140.33 384.77,-130.56 375.46,-135.63 380.65,-140.33"/>
</g>
<!-- Node15 -->
<g id="node15" class="node">
<title>Node15</title>
<g id="a_node15"><a xlink:title=" ">
<polygon fill="#e0e0e0" stroke="#999999" points="297.38,-74 262.38,-74 262.38,-55 297.38,-55 297.38,-74"/>
<text text-anchor="middle" x="279.88" y="-62" font-family="Helvetica,sans-Serif" font-size="10.00">map</text>
</a>
</g>
</g>
<!-- Node11&#45;&gt;Node15 -->
<g id="edge21" class="edge">
<title>Node11&#45;&gt;Node15</title>
<path fill="none" stroke="#63b8ff" d="M339.7,-164.77C333.49,-155.89 323.73,-141.67 315.88,-129 306.7,-114.17 296.98,-96.92 289.96,-84.15"/>
<polygon fill="#63b8ff" stroke="#63b8ff" points="293.15,-82.69 285.29,-75.58 287,-86.04 293.15,-82.69"/>
</g>
<!-- Node16 -->
<g id="node16" class="node">
<title>Node16</title>
<g id="a_node16"><a xlink:title=" ">
<polygon fill="#e0e0e0" stroke="#999999" points="230.88,-129 200.88,-129 200.88,-110 230.88,-110 230.88,-129"/>
<text text-anchor="middle" x="215.88" y="-117" font-family="Helvetica,sans-Serif" font-size="10.00">set</text>
</a>
</g>
</g>
<!-- Node11&#45;&gt;Node16 -->
<g id="edge22" class="edge">
<title>Node11&#45;&gt;Node16</title>
<path fill="none" stroke="#63b8ff" d="M323.83,-164.51C301.07,-155.23 265.58,-140.76 241.57,-130.97"/>
<polygon fill="#63b8ff" stroke="#63b8ff" points="243.1,-127.82 232.52,-127.28 240.46,-134.3 243.1,-127.82"/>
</g>
<!-- Node12&#45;&gt;Node2 -->
<g id="edge14" class="edge">
<title>Node12&#45;&gt;Node2</title>
<path fill="none" stroke="#63b8ff" d="M362.16,-109.51C331.04,-100.69 283.38,-87.18 249.08,-77.46"/>
<polygon fill="#63b8ff" stroke="#63b8ff" points="250.48,-74.22 239.9,-74.86 248.57,-80.95 250.48,-74.22"/>
</g>
<!-- Node12&#45;&gt;Node3 -->
<g id="edge15" class="edge">
<title>Node12&#45;&gt;Node3</title>
<path fill="none" stroke="#63b8ff" d="M430.01,-109.51C465.77,-100.61 520.68,-86.95 559.83,-77.21"/>
<polygon fill="#63b8ff" stroke="#63b8ff" points="560.6,-80.62 569.46,-74.81 558.91,-73.83 560.6,-80.62"/>
</g>
<!-- Node12&#45;&gt;Node7 -->
<g id="edge19" class="edge">
<title>Node12&#45;&gt;Node7</title>
<path fill="none" stroke="#63b8ff" d="M382.12,-109.6C365.41,-97.06 333.76,-73.64 305.88,-55 290.35,-44.62 272.49,-33.57 258.44,-25.08"/>
<polygon fill="#63b8ff" stroke="#63b8ff" points="260.64,-22.32 250.27,-20.18 257.04,-28.32 260.64,-22.32"/>
</g>
<!-- Node12&#45;&gt;Node8 -->
<g id="edge20" class="edge">
<title>Node12&#45;&gt;Node8</title>
<path fill="none" stroke="#63b8ff" d="M388.51,-109.91C380.87,-96.45 369.2,-70.38 382.88,-55 426.63,-5.83 606.01,-29.49 689.48,-18.63"/>
<polygon fill="#63b8ff" stroke="#63b8ff" points="689.78,-22.13 699.1,-17.09 688.67,-15.21 689.78,-22.13"/>
</g>
<!-- Node13 -->
<g id="node13" class="node">
<title>Node13</title>
<g id="a_node13"><a xlink:title=" ">
<polygon fill="#e0e0e0" stroke="#999999" points="443.88,-74 391.88,-74 391.88,-55 443.88,-55 443.88,-74"/>
<text text-anchor="middle" x="417.88" y="-62" font-family="Helvetica,sans-Serif" font-size="10.00">assert.h</text>
</a>
</g>
</g>
<!-- Node12&#45;&gt;Node13 -->
<g id="edge16" class="edge">
<title>Node12&#45;&gt;Node13</title>
<path fill="none" stroke="#63b8ff" d="M397.84,-109.75C400.92,-102.96 405.29,-93.3 409.17,-84.73"/>
<polygon fill="#63b8ff" stroke="#63b8ff" points="412.27,-86.37 413.21,-75.82 405.89,-83.49 412.27,-86.37"/>
</g>
<!-- Node14 -->
<g id="node14" class="node">
<title>Node14</title>
<g id="a_node14"><a xlink:title=" ">
<polygon fill="#e0e0e0" stroke="#999999" points="501.88,-74 461.88,-74 461.88,-55 501.88,-55 501.88,-74"/>
<text text-anchor="middle" x="481.88" y="-62" font-family="Helvetica,sans-Serif" font-size="10.00">limits</text>
</a>
</g>
</g>
<!-- Node12&#45;&gt;Node14 -->
<g id="edge17" class="edge">
<title>Node12&#45;&gt;Node14</title>
<path fill="none" stroke="#63b8ff" d="M408.81,-109.51C422.16,-101.47 441.99,-89.53 457.62,-80.11"/>
<polygon fill="#63b8ff" stroke="#63b8ff" points="459.12,-83.3 465.88,-75.14 455.51,-77.3 459.12,-83.3"/>
</g>
<!-- Node12&#45;&gt;Node15 -->
<g id="edge18" class="edge">
<title>Node12&#45;&gt;Node15</title>
<path fill="none" stroke="#63b8ff" d="M374.54,-109.51C356.34,-101.05 328.87,-88.28 308.2,-78.67"/>
<polygon fill="#63b8ff" stroke="#63b8ff" points="309.73,-75.52 299.18,-74.47 306.77,-81.86 309.73,-75.52"/>
</g>
<!-- Node18&#45;&gt;Node2 -->
<g id="edge27" class="edge">
<title>Node18&#45;&gt;Node2</title>
<path fill="none" stroke="#63b8ff" d="M622.56,-115.5C553.85,-109.47 397.22,-94.8 255.54,-74.3"/>
<polygon fill="#63b8ff" stroke="#63b8ff" points="256.4,-70.89 246,-72.9 255.39,-77.81 256.4,-70.89"/>
</g>
<!-- Node18&#45;&gt;Node3 -->
<g id="edge28" class="edge">
<title>Node18&#45;&gt;Node3</title>
<path fill="none" stroke="#63b8ff" d="M649.46,-109.75C642.42,-102.43 632.15,-91.76 623.47,-82.74"/>
<polygon fill="#63b8ff" stroke="#63b8ff" points="625.99,-80.31 616.54,-75.53 620.95,-85.17 625.99,-80.31"/>
</g>
<!-- Node18&#45;&gt;Node5 -->
<g id="edge29" class="edge">
<title>Node18&#45;&gt;Node5</title>
<path fill="none" stroke="#63b8ff" d="M669.09,-109.66C692.17,-91.47 745.29,-49.6 774.57,-26.51"/>
<polygon fill="#63b8ff" stroke="#63b8ff" points="776.64,-29.34 782.33,-20.4 772.31,-23.84 776.64,-29.34"/>
</g>
<!-- Node18&#45;&gt;Node7 -->
<g id="edge30" class="edge">
<title>Node18&#45;&gt;Node7</title>
<path fill="none" stroke="#63b8ff" d="M634.7,-109.63C612.48,-100.99 578.11,-87.25 548.88,-74 531.68,-66.2 528.86,-60.79 510.88,-55 424.86,-27.3 318.02,-16.38 265.73,-12.46"/>
<polygon fill="#63b8ff" stroke="#63b8ff" points="266.27,-8.99 256.05,-11.78 265.77,-15.98 266.27,-8.99"/>
</g>
<!-- Node18&#45;&gt;Node8 -->
<g id="edge31" class="edge">
<title>Node18&#45;&gt;Node8</title>
<path fill="none" stroke="#63b8ff" d="M663.2,-109.66C673.72,-92.18 697.4,-52.84 711.56,-29.3"/>
<polygon fill="#63b8ff" stroke="#63b8ff" points="714.55,-31.13 716.71,-20.76 708.55,-27.52 714.55,-31.13"/>
</g>
<!-- Node19&#45;&gt;Node2 -->
<g id="edge33" class="edge">
<title>Node19&#45;&gt;Node2</title>
<path fill="none" stroke="#63b8ff" d="M88.97,-109.51C111.96,-100.93 146.82,-87.92 172.68,-78.27"/>
<polygon fill="#63b8ff" stroke="#63b8ff" points="173.59,-81.66 181.73,-74.89 171.14,-75.1 173.59,-81.66"/>
</g>
<!-- Node19&#45;&gt;Node6 -->
<g id="edge34" class="edge">
<title>Node19&#45;&gt;Node6</title>
<path fill="none" stroke="#63b8ff" d="M61.77,-109.66C55.7,-92.42 42.15,-53.9 33.84,-30.27"/>
<polygon fill="#63b8ff" stroke="#63b8ff" points="37.16,-29.16 30.54,-20.89 30.55,-31.48 37.16,-29.16"/>
</g>
<!-- Node19&#45;&gt;Node7 -->
<g id="edge35" class="edge">
<title>Node19&#45;&gt;Node7</title>
<path fill="none" stroke="#63b8ff" d="M65.76,-109.78C67.59,-96.15 73.07,-69.84 88.88,-55 119.92,-25.87 169.58,-15.79 201.96,-12.31"/>
<polygon fill="#63b8ff" stroke="#63b8ff" points="201.89,-15.83 211.54,-11.44 201.26,-8.86 201.89,-15.83"/>
</g>
<!-- Node19&#45;&gt;Node8 -->
<g id="edge36" class="edge">
<title>Node19&#45;&gt;Node8</title>
<path fill="none" stroke="#63b8ff" d="M74.47,-109.52C90.63,-95.03 124.95,-66.9 159.88,-55 380.28,20.11 455.16,-55.11 689.35,-18.81"/>
<polygon fill="#63b8ff" stroke="#63b8ff" points="689.81,-22.28 699.13,-17.24 688.7,-15.37 689.81,-22.28"/>
</g>
<!-- Node20&#45;&gt;Node5 -->
<g id="edge44" class="edge">
<title>Node20&#45;&gt;Node5</title>
<path fill="none" stroke="#63b8ff" d="M860.42,-109.63C860.79,-96.72 859.92,-72.4 849.88,-55 843.02,-43.11 831.66,-33.12 821.05,-25.63"/>
<polygon fill="#63b8ff" stroke="#63b8ff" points="823.2,-22.86 812.92,-20.31 819.37,-28.72 823.2,-22.86"/>
</g>
<!-- Node20&#45;&gt;Node8 -->
<g id="edge45" class="edge">
<title>Node20&#45;&gt;Node8</title>
<path fill="none" stroke="#63b8ff" d="M855.02,-109.68C847.32,-96.39 831.22,-71.08 811.88,-55 795.16,-41.1 773.37,-30.11 755.53,-22.53"/>
<polygon fill="#63b8ff" stroke="#63b8ff" points="757,-19.35 746.42,-18.82 754.36,-25.83 757,-19.35"/>
</g>
<!-- Node21 -->
<g id="node21" class="node">
<title>Node21</title>
<g id="a_node21"><a xlink:href="pdqsort_8h.html" target="_top" xlink:title=" ">
<polygon fill="white" stroke="#666666" points="997.38,-74 940.38,-74 940.38,-55 997.38,-55 997.38,-74"/>
<text text-anchor="middle" x="968.88" y="-62" font-family="Helvetica,sans-Serif" font-size="10.00">pdqsort.h</text>
</a>
</g>
</g>
<!-- Node20&#45;&gt;Node21 -->
<g id="edge38" class="edge">
<title>Node20&#45;&gt;Node21</title>
<path fill="none" stroke="#63b8ff" d="M878.37,-109.51C895.39,-101.24 920.88,-88.84 940.47,-79.31"/>
<polygon fill="#63b8ff" stroke="#63b8ff" points="941.84,-82.54 949.3,-75.02 938.78,-76.25 941.84,-82.54"/>
</g>
<!-- Node21&#45;&gt;Node5 -->
<g id="edge40" class="edge">
<title>Node21&#45;&gt;Node5</title>
<path fill="none" stroke="#63b8ff" d="M940.15,-54.75C910.1,-45.6 862.89,-31.22 830.5,-21.35"/>
<polygon fill="#63b8ff" stroke="#63b8ff" points="831.74,-18.07 821.16,-18.5 829.7,-24.76 831.74,-18.07"/>
</g>
<!-- Node21&#45;&gt;Node22 -->
<g id="edge39" class="edge">
<title>Node21&#45;&gt;Node22</title>
<path fill="none" stroke="#63b8ff" d="M985.34,-54.51C1000.2,-46.39 1022.32,-34.3 1039.63,-24.85"/>
<polygon fill="#63b8ff" stroke="#63b8ff" points="1041.24,-27.95 1048.34,-20.08 1037.89,-21.81 1041.24,-27.95"/>
</g>
<!-- Node23 -->
<g id="node23" class="node">
<title>Node23</title>
<g id="a_node23"><a xlink:title=" ">
<polygon fill="#e0e0e0" stroke="#999999" points="896.38,-19 837.38,-19 837.38,0 896.38,0 896.38,-19"/>
<text text-anchor="middle" x="866.88" y="-7" font-family="Helvetica,sans-Serif" font-size="10.00">functional</text>
</a>
</g>
</g>
<!-- Node21&#45;&gt;Node23 -->
<g id="edge41" class="edge">
<title>Node21&#45;&gt;Node23</title>
<path fill="none" stroke="#63b8ff" d="M951.58,-54.51C935.8,-46.31 912.25,-34.07 893.98,-24.58"/>
<polygon fill="#63b8ff" stroke="#63b8ff" points="895.76,-21.56 885.27,-20.06 892.53,-27.77 895.76,-21.56"/>
</g>
<!-- Node24 -->
<g id="node24" class="node">
<title>Node24</title>
<g id="a_node24"><a xlink:title=" ">
<polygon fill="#e0e0e0" stroke="#999999" points="961.38,-19 914.38,-19 914.38,0 961.38,0 961.38,-19"/>
<text text-anchor="middle" x="937.88" y="-7" font-family="Helvetica,sans-Serif" font-size="10.00">iterator</text>
</a>
</g>
</g>
<!-- Node21&#45;&gt;Node24 -->
<g id="edge42" class="edge">
<title>Node21&#45;&gt;Node24</title>
<path fill="none" stroke="#63b8ff" d="M963.76,-54.75C959.7,-47.81 953.89,-37.86 948.8,-29.16"/>
<polygon fill="#63b8ff" stroke="#63b8ff" points="951.95,-27.61 943.88,-20.75 945.9,-31.15 951.95,-27.61"/>
</g>
<!-- Node25 -->
<g id="node25" class="node">
<title>Node25</title>
<g id="a_node25"><a xlink:title=" ">
<polygon fill="#e0e0e0" stroke="#999999" points="1019.88,-19 979.88,-19 979.88,0 1019.88,0 1019.88,-19"/>
<text text-anchor="middle" x="999.88" y="-7" font-family="Helvetica,sans-Serif" font-size="10.00">utility</text>
</a>
</g>
</g>
<!-- Node21&#45;&gt;Node25 -->
<g id="edge43" class="edge">
<title>Node21&#45;&gt;Node25</title>
<path fill="none" stroke="#63b8ff" d="M974,-54.75C978.06,-47.81 983.88,-37.86 988.97,-29.16"/>
<polygon fill="#63b8ff" stroke="#63b8ff" points="991.86,-31.15 993.89,-20.75 985.82,-27.61 991.86,-31.15"/>
</g>
</g>
</svg>
        <g id="navigator" transform="translate(0 0)" fill="#404254">
                <rect fill="#f2f5e9" fill-opacity="0.5" stroke="#606060" stroke-width=".5" x="0" y="0" width="60" height="60"/>
                <use id="zoomplus" xlink:href="#zoomPlus" x="17" y="9" onmousedown="handleZoom(evt,'in')"/>
                <use id="zoomminus" xlink:href="#zoomMin" x="42" y="9" onmousedown="handleZoom(evt,'out')"/>
                <use id="reset" xlink:href="#resetDef" x="30" y="36" onmousedown="handleReset()"/>
                <g id="arrowUp" xlink:href="#dirArrow" transform="translate(30 24)" onmousedown="handlePan(0,-1)">
                  <use xlink:href="#rim" fill="#404040">
                        <set attributeName="fill" to="#808080" begin="arrowUp.mouseover" end="arrowUp.mouseout"/>
                  </use>
                  <path fill="none" stroke="white" stroke-width="1.5" d="M0,-3.0v7 M-2.5,-0.5L0,-3.0L2.5,-0.5"/>
                </g>
                <g id="arrowRight" xlink:href="#dirArrow" transform="rotate(90) translate(36 -43)" onmousedown="handlePan(1,0)">
                  <use xlink:href="#rim" fill="#404040">
                        <set attributeName="fill" to="#808080" begin="arrowRight.mouseover" end="arrowRight.mouseout"/>
                  </use>
                  <path fill="none" stroke="white" stroke-width="1.5" d="M0,-3.0v7 M-2.5,-0.5L0,-3.0L2.5,-0.5"/>
                </g>
                <g id="arrowDown" xlink:href="#dirArrow" transform="rotate(180) translate(-30 -48)" onmousedown="handlePan(0,1)">
                  <use xlink:href="#rim" fill="#404040">
                        <set attributeName="fill" to="#808080" begin="arrowDown.mouseover" end="arrowDown.mouseout"/>
                  </use>
                  <path fill="none" stroke="white" stroke-width="1.5" d="M0,-3.0v7 M-2.5,-0.5L0,-3.0L2.5,-0.5"/>
                </g>
                <g id="arrowLeft" xlink:href="#dirArrow" transform="rotate(270) translate(-36 17)" onmousedown="handlePan(-1,0)">
                  <use xlink:href="#rim" fill="#404040">
                        <set attributeName="fill" to="#808080" begin="arrowLeft.mouseover" end="arrowLeft.mouseout"/>
                  </use>
                  <path fill="none" stroke="white" stroke-width="1.5" d="M0,-3.0v7 M-2.5,-0.5L0,-3.0L2.5,-0.5"/>
                </g>
        </g>
        <svg viewBox="0 0 15 15" width="100%" height="30px" preserveAspectRatio="xMaxYMin meet">
         <g id="arrow_out" transform="scale(0.3 0.3)">
          <a xlink:href="Ioss__Utils_8h__incl_org.svg" target="_base">
           <rect id="button" ry="5" rx="5" y="6" x="6" height="38" width="38"
                fill="#f2f5e9" fill-opacity="0.5" stroke="#606060" stroke-width="1.0"/>
           <path id="arrow"
             d="M 11.500037,31.436501 C 11.940474,20.09759 22.043105,11.32322 32.158766,21.979434 L 37.068811,17.246167 C 37.068811,17.246167 37.088388,32 37.088388,32 L 22.160133,31.978069 C 22.160133,31.978069 26.997745,27.140456 26.997745,27.140456 C 18.528582,18.264221 13.291696,25.230495 11.500037,31.436501 z"
             style="fill:#404040;"/>
          </a>
         </g>
        </svg>
</svg>
