<?xml version="1.0" encoding="UTF-8" standalone="no"?>
<!DOCTYPE svg PUBLIC "-//W3C//DTD SVG 1.1//EN"
 "http://www.w3.org/Graphics/SVG/1.1/DTD/svg11.dtd">
<!-- Generated by graphviz version 10.0.1 (20240210.2158)
 -->
<!-- Title: src/Ioss_TransformFactory.h Pages: 1 -->
<svg width="640pt" height="138pt"
 viewBox="0.00 0.00 640.12 137.75" xmlns="http://www.w3.org/2000/svg" xmlns:xlink="http://www.w3.org/1999/xlink">
<g id="graph0" class="graph" transform="scale(1 1) rotate(0) translate(4 133.75)">
<title>src/Ioss_TransformFactory.h</title>
<!-- Node1 -->
<g id="Node000001" class="node">
<title>Node1</title>
<g id="a_Node000001"><a xlink:title=" ">
<polygon fill="#999999" stroke="#666666" points="528.12,-129.75 387.62,-129.75 387.62,-110.5 528.12,-110.5 528.12,-129.75"/>
<text text-anchor="middle" x="457.88" y="-116.25" font-family="Helvetica,sans-Serif" font-size="10.00">src/Ioss_TransformFactory.h</text>
</a>
</g>
</g>
<!-- Node2 -->
<g id="Node000002" class="node">
<title>Node2</title>
<g id="a_Node000002"><a xlink:href="Ioss__CodeTypes_8h.html" target="_top" xlink:title=" ">
<polygon fill="white" stroke="#666666" points="303.75,-74.5 206,-74.5 206,-55.25 303.75,-55.25 303.75,-74.5"/>
<text text-anchor="middle" x="254.88" y="-61" font-family="Helvetica,sans-Serif" font-size="10.00">Ioss_CodeTypes.h</text>
</a>
</g>
</g>
<!-- Node1&#45;&gt;Node2 -->
<g id="edge1_Node000001_Node000002" class="edge">
<title>Node1&#45;&gt;Node2</title>
<g id="a_edge1_Node000001_Node000002"><a xlink:title=" ">
<path fill="none" stroke="#63b8ff" d="M423.44,-110.09C389.61,-101.22 337.79,-87.62 300.54,-77.85"/>
<polygon fill="#63b8ff" stroke="#63b8ff" points="301.5,-74.49 290.94,-75.34 299.73,-81.26 301.5,-74.49"/>
</a>
</g>
</g>
<!-- Node6 -->
<g id="Node000006" class="node">
<title>Node6</title>
<g id="a_Node000006"><a xlink:title=" ">
<polygon fill="#e0e0e0" stroke="#999999" points="489.88,-19.25 449.88,-19.25 449.88,0 489.88,0 489.88,-19.25"/>
<text text-anchor="middle" x="469.88" y="-5.75" font-family="Helvetica,sans-Serif" font-size="10.00">string</text>
</a>
</g>
</g>
<!-- Node1&#45;&gt;Node6 -->
<g id="edge11_Node000001_Node000006" class="edge">
<title>Node1&#45;&gt;Node6</title>
<g id="a_edge11_Node000001_Node000006"><a xlink:title=" ">
<path fill="none" stroke="#63b8ff" d="M446.34,-110.38C432.03,-98.39 410.59,-75.98 419.88,-55.25 425.08,-43.62 434.98,-33.78 444.61,-26.32"/>
<polygon fill="#63b8ff" stroke="#63b8ff" points="446.6,-29.2 452.73,-20.55 442.55,-23.49 446.6,-29.2"/>
</a>
</g>
</g>
<!-- Node10 -->
<g id="Node000010" class="node">
<title>Node10</title>
<g id="a_Node000010"><a xlink:title=" ">
<polygon fill="#e0e0e0" stroke="#999999" points="486.88,-74.5 428.88,-74.5 428.88,-55.25 486.88,-55.25 486.88,-74.5"/>
<text text-anchor="middle" x="457.88" y="-61" font-family="Helvetica,sans-Serif" font-size="10.00">functional</text>
</a>
</g>
</g>
<!-- Node1&#45;&gt;Node10 -->
<g id="edge9_Node000001_Node000010" class="edge">
<title>Node1&#45;&gt;Node10</title>
<g id="a_edge9_Node000001_Node000010"><a xlink:title=" ">
<path fill="none" stroke="#63b8ff" d="M457.88,-110.33C457.88,-103.82 457.88,-94.67 457.88,-86.37"/>
<polygon fill="#63b8ff" stroke="#63b8ff" points="461.38,-86.37 457.88,-76.37 454.38,-86.37 461.38,-86.37"/>
</a>
</g>
</g>
<!-- Node11 -->
<g id="Node000011" class="node">
<title>Node11</title>
<g id="a_Node000011"><a xlink:title=" ">
<polygon fill="#e0e0e0" stroke="#999999" points="539.25,-74.5 504.5,-74.5 504.5,-55.25 539.25,-55.25 539.25,-74.5"/>
<text text-anchor="middle" x="521.88" y="-61" font-family="Helvetica,sans-Serif" font-size="10.00">map</text>
</a>
</g>
</g>
<!-- Node1&#45;&gt;Node11 -->
<g id="edge10_Node000001_Node000011" class="edge">
<title>Node1&#45;&gt;Node11</title>
<g id="a_edge10_Node000001_Node000011"><a xlink:title=" ">
<path fill="none" stroke="#63b8ff" d="M468.73,-110.09C477.98,-102.4 491.5,-91.15 502.58,-81.93"/>
<polygon fill="#63b8ff" stroke="#63b8ff" points="504.57,-84.83 510.02,-75.74 500.09,-79.45 504.57,-84.83"/>
</a>
</g>
</g>
<!-- Node12 -->
<g id="Node000012" class="node">
<title>Node12</title>
<g id="a_Node000012"><a xlink:title=" ">
<polygon fill="#e0e0e0" stroke="#999999" points="632.12,-74.5 557.62,-74.5 557.62,-55.25 632.12,-55.25 632.12,-74.5"/>
<text text-anchor="middle" x="594.88" y="-61" font-family="Helvetica,sans-Serif" font-size="10.00">ioss_export.h</text>
</a>
</g>
</g>
<!-- Node1&#45;&gt;Node12 -->
<g id="edge12_Node000001_Node000012" class="edge">
<title>Node1&#45;&gt;Node12</title>
<g id="a_edge12_Node000001_Node000012"><a xlink:title=" ">
<path fill="none" stroke="#63b8ff" d="M481.12,-110.09C503.06,-101.56 536.22,-88.67 561.09,-79.01"/>
<polygon fill="#63b8ff" stroke="#63b8ff" points="562.06,-82.39 570.11,-75.5 559.52,-75.86 562.06,-82.39"/>
</a>
</g>
</g>
<!-- Node3 -->
<g id="Node000003" class="node">
<title>Node3</title>
<g id="a_Node000003"><a xlink:title=" ">
<polygon fill="#e0e0e0" stroke="#999999" points="37.75,-19.25 0,-19.25 0,0 37.75,0 37.75,-19.25"/>
<text text-anchor="middle" x="18.88" y="-5.75" font-family="Helvetica,sans-Serif" font-size="10.00">array</text>
</a>
</g>
</g>
<!-- Node2&#45;&gt;Node3 -->
<g id="edge2_Node000002_Node000003" class="edge">
<title>Node2&#45;&gt;Node3</title>
<g id="a_edge2_Node000002_Node000003"><a xlink:title=" ">
<path fill="none" stroke="#63b8ff" d="M206.68,-54.78C166.82,-46.98 108.52,-34.93 49.18,-19.67"/>
<polygon fill="#63b8ff" stroke="#63b8ff" points="50.12,-16.3 39.56,-17.17 48.35,-23.07 50.12,-16.3"/>
</a>
</g>
</g>
<!-- Node4 -->
<g id="Node000004" class="node">
<title>Node4</title>
<g id="a_Node000004"><a xlink:title=" ">
<polygon fill="#e0e0e0" stroke="#999999" points="104,-19.25 55.75,-19.25 55.75,0 104,0 104,-19.25"/>
<text text-anchor="middle" x="79.88" y="-5.75" font-family="Helvetica,sans-Serif" font-size="10.00">cstddef</text>
</a>
</g>
</g>
<!-- Node2&#45;&gt;Node4 -->
<g id="edge3_Node000002_Node000004" class="edge">
<title>Node2&#45;&gt;Node4</title>
<g id="a_edge3_Node000002_Node000004"><a xlink:title=" ">
<path fill="none" stroke="#63b8ff" d="M225.19,-54.84C194.74,-45.58 147.4,-31.17 115.08,-21.34"/>
<polygon fill="#63b8ff" stroke="#63b8ff" points="116.37,-18.07 105.78,-18.51 114.33,-24.77 116.37,-18.07"/>
</a>
</g>
</g>
<!-- Node5 -->
<g id="Node000005" class="node">
<title>Node5</title>
<g id="a_Node000005"><a xlink:title=" ">
<polygon fill="#e0e0e0" stroke="#999999" points="167.5,-19.25 122.25,-19.25 122.25,0 167.5,0 167.5,-19.25"/>
<text text-anchor="middle" x="144.88" y="-5.75" font-family="Helvetica,sans-Serif" font-size="10.00">cstdint</text>
</a>
</g>
</g>
<!-- Node2&#45;&gt;Node5 -->
<g id="edge4_Node000002_Node000005" class="edge">
<title>Node2&#45;&gt;Node5</title>
<g id="a_edge4_Node000002_Node000005"><a xlink:title=" ">
<path fill="none" stroke="#63b8ff" d="M236.21,-54.84C219.15,-46.58 193.63,-34.23 173.9,-24.68"/>
<polygon fill="#63b8ff" stroke="#63b8ff" points="175.51,-21.57 164.99,-20.36 172.46,-27.87 175.51,-21.57"/>
</a>
</g>
</g>
<!-- Node2&#45;&gt;Node6 -->
<g id="edge5_Node000002_Node000006" class="edge">
<title>Node2&#45;&gt;Node6</title>
<g id="a_edge5_Node000002_Node000006"><a xlink:title=" ">
<path fill="none" stroke="#63b8ff" d="M295.31,-54.83C330.73,-46.77 383.84,-34.32 438.65,-19.74"/>
<polygon fill="#63b8ff" stroke="#63b8ff" points="439.42,-23.16 448.17,-17.19 437.61,-16.4 439.42,-23.16"/>
</a>
</g>
</g>
<!-- Node7 -->
<g id="Node000007" class="node">
<title>Node7</title>
<g id="a_Node000007"><a xlink:title=" ">
<polygon fill="#e0e0e0" stroke="#999999" points="228.38,-19.25 185.38,-19.25 185.38,0 228.38,0 228.38,-19.25"/>
<text text-anchor="middle" x="206.88" y="-5.75" font-family="Helvetica,sans-Serif" font-size="10.00">vector</text>
</a>
</g>
</g>
<!-- Node2&#45;&gt;Node7 -->
<g id="edge6_Node000002_Node000007" class="edge">
<title>Node2&#45;&gt;Node7</title>
<g id="a_edge6_Node000002_Node000007"><a xlink:title=" ">
<path fill="none" stroke="#63b8ff" d="M246.95,-55.08C240.32,-47.73 230.66,-37.01 222.49,-27.94"/>
<polygon fill="#63b8ff" stroke="#63b8ff" points="225.28,-25.82 215.99,-20.73 220.08,-30.5 225.28,-25.82"/>
</a>
</g>
</g>
<!-- Node8 -->
<g id="Node000008" class="node">
<title>Node8</title>
<g id="a_Node000008"><a xlink:title=" ">
<polygon fill="#e0e0e0" stroke="#999999" points="361.75,-19.25 246,-19.25 246,0 361.75,0 361.75,-19.25"/>
<text text-anchor="middle" x="303.88" y="-5.75" font-family="Helvetica,sans-Serif" font-size="10.00">SEACASIoss_config.h</text>
</a>
</g>
</g>
<!-- Node2&#45;&gt;Node8 -->
<g id="edge7_Node000002_Node000008" class="edge">
<title>Node2&#45;&gt;Node8</title>
<g id="a_edge7_Node000002_Node000008"><a xlink:title=" ">
<path fill="none" stroke="#63b8ff" d="M262.97,-55.08C269.73,-47.73 279.6,-37.01 287.94,-27.94"/>
<polygon fill="#63b8ff" stroke="#63b8ff" points="290.39,-30.45 294.58,-20.72 285.24,-25.71 290.39,-30.45"/>
</a>
</g>
</g>
<!-- Node9 -->
<g id="Node000009" class="node">
<title>Node9</title>
<g id="a_Node000009"><a xlink:title=" ">
<polygon fill="#e0e0e0" stroke="#999999" points="432.25,-19.25 379.5,-19.25 379.5,0 432.25,0 432.25,-19.25"/>
<text text-anchor="middle" x="405.88" y="-5.75" font-family="Helvetica,sans-Serif" font-size="10.00">complex</text>
</a>
</g>
</g>
<!-- Node2&#45;&gt;Node9 -->
<g id="edge8_Node000002_Node000009" class="edge">
<title>Node2&#45;&gt;Node9</title>
<g id="a_edge8_Node000002_Node000009"><a xlink:title=" ">
<path fill="none" stroke="#63b8ff" d="M280.49,-54.84C304.89,-46.24 341.89,-33.19 369.37,-23.5"/>
<polygon fill="#63b8ff" stroke="#63b8ff" points="370.44,-26.83 378.71,-20.21 368.11,-20.23 370.44,-26.83"/>
</a>
</g>
</g>
</g>
</svg>
