<?xml version="1.0" encoding="UTF-8" standalone="no"?>
<!DOCTYPE svg PUBLIC "-//W3C//DTD SVG 1.1//EN"
 "http://www.w3.org/Graphics/SVG/1.1/DTD/svg11.dtd">
<!-- Generated by graphviz version 9.0.0 (20230911.1827)
 -->
<!-- Title: src/elements/Ioss_Edge2D2.C Pages: 1 -->
<svg width="1732pt" height="414pt"
 viewBox="0.00 0.00 1732.00 414.00" xmlns="http://www.w3.org/2000/svg" xmlns:xlink="http://www.w3.org/1999/xlink">
<g id="graph0" class="graph" transform="scale(1 1) rotate(0) translate(4 410)">
<title>src/elements/Ioss_Edge2D2.C</title>
<!-- Node1 -->
<g id="Node000001" class="node">
<title>Node1</title>
<g id="a_Node000001"><a xlink:title=" ">
<polygon fill="#999999" stroke="#666666" points="490.12,-406 339.88,-406 339.88,-386.75 490.12,-386.75 490.12,-406"/>
<text text-anchor="middle" x="415" y="-392.5" font-family="Helvetica,sans-Serif" font-size="10.00">src/elements/Ioss_Edge2D2.C</text>
</a>
</g>
</g>
<!-- Node2 -->
<g id="Node000002" class="node">
<title>Node2</title>
<g id="a_Node000002"><a xlink:href="Ioss__CodeTypes_8h.html" target="_top" xlink:title=" ">
<polygon fill="white" stroke="#666666" points="440.88,-74.5 343.12,-74.5 343.12,-55.25 440.88,-55.25 440.88,-74.5"/>
<text text-anchor="middle" x="392" y="-61" font-family="Helvetica,sans-Serif" font-size="10.00">Ioss_CodeTypes.h</text>
</a>
</g>
</g>
<!-- Node1&#45;&gt;Node2 -->
<g id="edge1_Node000001_Node000002" class="edge">
<title>Node1&#45;&gt;Node2</title>
<g id="a_edge1_Node000001_Node000002"><a xlink:title=" ">
<path fill="none" stroke="#63b8ff" d="M339.85,-391.08C220.26,-382.17 0,-356.32 0,-286.88 0,-286.88 0,-286.88 0,-174.38 0,-128.53 38.86,-128.57 81,-110.5 103.5,-100.85 247.43,-82.78 331.39,-72.85"/>
<polygon fill="#63b8ff" stroke="#63b8ff" points="331.79,-76.33 341.31,-71.69 330.97,-69.38 331.79,-76.33"/>
</a>
</g>
</g>
<!-- Node4 -->
<g id="Node000004" class="node">
<title>Node4</title>
<g id="a_Node000004"><a xlink:title=" ">
<polygon fill="#e0e0e0" stroke="#999999" points="1326.12,-19.25 1277.88,-19.25 1277.88,0 1326.12,0 1326.12,-19.25"/>
<text text-anchor="middle" x="1302" y="-5.75" font-family="Helvetica,sans-Serif" font-size="10.00">cstddef</text>
</a>
</g>
</g>
<!-- Node1&#45;&gt;Node4 -->
<g id="edge77_Node000001_Node000004" class="edge">
<title>Node1&#45;&gt;Node4</title>
<g id="a_edge77_Node000001_Node000004"><a xlink:title=" ">
<path fill="none" stroke="#63b8ff" d="M490.56,-393.1C769.32,-384.2 1724,-349.19 1724,-286.88 1724,-286.88 1724,-286.88 1724,-119.12 1724,-88.47 1722.43,-73.76 1698,-55.25 1641.84,-12.71 1424.39,-9.61 1337.83,-10.12"/>
<polygon fill="#63b8ff" stroke="#63b8ff" points="1338.01,-6.62 1328.03,-10.2 1338.06,-13.62 1338.01,-6.62"/>
</a>
</g>
</g>
<!-- Node10 -->
<g id="Node000010" class="node">
<title>Node10</title>
<g id="a_Node000010"><a xlink:href="Ioss__ElementTopology_8h.html" target="_top" xlink:title=" ">
<polygon fill="white" stroke="#666666" points="371.88,-185 250.12,-185 250.12,-165.75 371.88,-165.75 371.88,-185"/>
<text text-anchor="middle" x="311" y="-171.5" font-family="Helvetica,sans-Serif" font-size="10.00">Ioss_ElementTopology.h</text>
</a>
</g>
</g>
<!-- Node1&#45;&gt;Node10 -->
<g id="edge9_Node000001_Node000010" class="edge">
<title>Node1&#45;&gt;Node10</title>
<g id="a_edge9_Node000001_Node000010"><a xlink:title=" ">
<path fill="none" stroke="#63b8ff" d="M409.11,-386.41C403.47,-377.59 394.96,-363.6 389,-350.75 363.27,-295.24 371.33,-275.23 343,-221 338.16,-211.73 331.59,-202.21 325.67,-194.36"/>
<polygon fill="#63b8ff" stroke="#63b8ff" points="328.54,-192.35 319.62,-186.64 323.03,-196.67 328.54,-192.35"/>
</a>
</g>
</g>
<!-- Node17 -->
<g id="Node000017" class="node">
<title>Node17</title>
<g id="a_Node000017"><a xlink:href="Ioss__Edge2D2_8h.html" target="_top" xlink:title=" ">
<polygon fill="white" stroke="#666666" points="334.38,-240.25 245.62,-240.25 245.62,-221 334.38,-221 334.38,-240.25"/>
<text text-anchor="middle" x="290" y="-226.75" font-family="Helvetica,sans-Serif" font-size="10.00">Ioss_Edge2D2.h</text>
</a>
</g>
</g>
<!-- Node1&#45;&gt;Node17 -->
<g id="edge24_Node000001_Node000017" class="edge">
<title>Node1&#45;&gt;Node17</title>
<g id="a_edge24_Node000001_Node000017"><a xlink:title=" ">
<path fill="none" stroke="#63b8ff" d="M396.26,-386.41C381.6,-378.64 361.52,-366.22 348,-350.75 321.73,-320.68 304.41,-276.62 295.99,-251.36"/>
<polygon fill="#63b8ff" stroke="#63b8ff" points="299.4,-250.53 293.03,-242.06 292.73,-252.65 299.4,-250.53"/>
</a>
</g>
</g>
<!-- Node18 -->
<g id="Node000018" class="node">
<title>Node18</title>
<g id="a_Node000018"><a xlink:href="Ioss__ElementVariableType_8h.html" target="_top" xlink:title=" ">
<polygon fill="white" stroke="#666666" points="537.88,-350.75 398.12,-350.75 398.12,-331.5 537.88,-331.5 537.88,-350.75"/>
<text text-anchor="middle" x="468" y="-337.25" font-family="Helvetica,sans-Serif" font-size="10.00">Ioss_ElementVariableType.h</text>
</a>
</g>
</g>
<!-- Node1&#45;&gt;Node18 -->
<g id="edge28_Node000001_Node000018" class="edge">
<title>Node1&#45;&gt;Node18</title>
<g id="a_edge28_Node000001_Node000018"><a xlink:title=" ">
<path fill="none" stroke="#63b8ff" d="M423.75,-386.58C431.15,-379.15 441.96,-368.29 451.05,-359.16"/>
<polygon fill="#63b8ff" stroke="#63b8ff" points="453.42,-361.74 457.99,-352.18 448.46,-356.8 453.42,-361.74"/>
</a>
</g>
</g>
<!-- Node31 -->
<g id="Node000031" class="node">
<title>Node31</title>
<g id="a_Node000031"><a xlink:title=" ">
<polygon fill="#e0e0e0" stroke="#999999" points="1658.12,-185 1609.88,-185 1609.88,-165.75 1658.12,-165.75 1658.12,-185"/>
<text text-anchor="middle" x="1634" y="-171.5" font-family="Helvetica,sans-Serif" font-size="10.00">cassert</text>
</a>
</g>
</g>
<!-- Node1&#45;&gt;Node31 -->
<g id="edge76_Node000001_Node000031" class="edge">
<title>Node1&#45;&gt;Node31</title>
<g id="a_edge76_Node000001_Node000031"><a xlink:title=" ">
<path fill="none" stroke="#63b8ff" d="M465.44,-386.31C668.7,-349.8 1425.02,-213.92 1598.42,-182.77"/>
<polygon fill="#63b8ff" stroke="#63b8ff" points="1598.94,-186.23 1608.17,-181.02 1597.7,-179.34 1598.94,-186.23"/>
</a>
</g>
</g>
<!-- Node3 -->
<g id="Node000003" class="node">
<title>Node3</title>
<g id="a_Node000003"><a xlink:title=" ">
<polygon fill="#e0e0e0" stroke="#999999" points="473.88,-19.25 436.12,-19.25 436.12,0 473.88,0 473.88,-19.25"/>
<text text-anchor="middle" x="455" y="-5.75" font-family="Helvetica,sans-Serif" font-size="10.00">array</text>
</a>
</g>
</g>
<!-- Node2&#45;&gt;Node3 -->
<g id="edge2_Node000002_Node000003" class="edge">
<title>Node2&#45;&gt;Node3</title>
<g id="a_edge2_Node000002_Node000003"><a xlink:title=" ">
<path fill="none" stroke="#63b8ff" d="M402.69,-54.84C411.7,-47.22 424.83,-36.12 435.68,-26.95"/>
<polygon fill="#63b8ff" stroke="#63b8ff" points="437.94,-29.63 443.31,-20.5 433.42,-24.28 437.94,-29.63"/>
</a>
</g>
</g>
<!-- Node2&#45;&gt;Node4 -->
<g id="edge3_Node000002_Node000004" class="edge">
<title>Node2&#45;&gt;Node4</title>
<g id="a_edge3_Node000002_Node000004"><a xlink:title=" ">
<path fill="none" stroke="#63b8ff" d="M441.32,-56.2C444.25,-55.85 447.16,-55.53 450,-55.25 790.98,-22.01 878.39,-45.18 1220,-19.25 1235.17,-18.1 1251.87,-16.42 1266.22,-14.84"/>
<polygon fill="#63b8ff" stroke="#63b8ff" points="1266.58,-18.33 1276.13,-13.73 1265.8,-11.37 1266.58,-18.33"/>
</a>
</g>
</g>
<!-- Node5 -->
<g id="Node000005" class="node">
<title>Node5</title>
<g id="a_Node000005"><a xlink:title=" ">
<polygon fill="#e0e0e0" stroke="#999999" points="1210.62,-19.25 1165.38,-19.25 1165.38,0 1210.62,0 1210.62,-19.25"/>
<text text-anchor="middle" x="1188" y="-5.75" font-family="Helvetica,sans-Serif" font-size="10.00">cstdint</text>
</a>
</g>
</g>
<!-- Node2&#45;&gt;Node5 -->
<g id="edge4_Node000002_Node000005" class="edge">
<title>Node2&#45;&gt;Node5</title>
<g id="a_edge4_Node000002_Node000005"><a xlink:title=" ">
<path fill="none" stroke="#63b8ff" d="M441.32,-56.24C444.26,-55.88 447.16,-55.55 450,-55.25 720.17,-27.05 1047.98,-14.98 1153.51,-11.64"/>
<polygon fill="#63b8ff" stroke="#63b8ff" points="1153.58,-15.14 1163.47,-11.33 1153.37,-8.14 1153.58,-15.14"/>
</a>
</g>
</g>
<!-- Node6 -->
<g id="Node000006" class="node">
<title>Node6</title>
<g id="a_Node000006"><a xlink:title=" ">
<polygon fill="#e0e0e0" stroke="#999999" points="667,-19.25 627,-19.25 627,0 667,0 667,-19.25"/>
<text text-anchor="middle" x="647" y="-5.75" font-family="Helvetica,sans-Serif" font-size="10.00">string</text>
</a>
</g>
</g>
<!-- Node2&#45;&gt;Node6 -->
<g id="edge5_Node000002_Node000006" class="edge">
<title>Node2&#45;&gt;Node6</title>
<g id="a_edge5_Node000002_Node000006"><a xlink:title=" ">
<path fill="none" stroke="#63b8ff" d="M435.55,-54.78C486.73,-44.09 570.42,-26.62 615.64,-17.17"/>
<polygon fill="#63b8ff" stroke="#63b8ff" points="616.23,-20.63 625.31,-15.16 614.8,-13.77 616.23,-20.63"/>
</a>
</g>
</g>
<!-- Node7 -->
<g id="Node000007" class="node">
<title>Node7</title>
<g id="a_Node000007"><a xlink:title=" ">
<polygon fill="#e0e0e0" stroke="#999999" points="936.5,-19.25 893.5,-19.25 893.5,0 936.5,0 936.5,-19.25"/>
<text text-anchor="middle" x="915" y="-5.75" font-family="Helvetica,sans-Serif" font-size="10.00">vector</text>
</a>
</g>
</g>
<!-- Node2&#45;&gt;Node7 -->
<g id="edge6_Node000002_Node000007" class="edge">
<title>Node2&#45;&gt;Node7</title>
<g id="a_edge6_Node000002_Node000007"><a xlink:title=" ">
<path fill="none" stroke="#63b8ff" d="M441.34,-56.36C444.27,-55.97 447.17,-55.6 450,-55.25 611.61,-35.49 805.72,-19.28 881.97,-13.2"/>
<polygon fill="#63b8ff" stroke="#63b8ff" points="881.97,-16.71 891.66,-12.43 881.41,-9.73 881.97,-16.71"/>
</a>
</g>
</g>
<!-- Node8 -->
<g id="Node000008" class="node">
<title>Node8</title>
<g id="a_Node000008"><a xlink:title=" ">
<polygon fill="#e0e0e0" stroke="#999999" points="347.88,-19.25 232.12,-19.25 232.12,0 347.88,0 347.88,-19.25"/>
<text text-anchor="middle" x="290" y="-5.75" font-family="Helvetica,sans-Serif" font-size="10.00">SEACASIoss_config.h</text>
</a>
</g>
</g>
<!-- Node2&#45;&gt;Node8 -->
<g id="edge7_Node000002_Node000008" class="edge">
<title>Node2&#45;&gt;Node8</title>
<g id="a_edge7_Node000002_Node000008"><a xlink:title=" ">
<path fill="none" stroke="#63b8ff" d="M374.7,-54.84C359.02,-46.66 335.65,-34.46 317.42,-24.94"/>
<polygon fill="#63b8ff" stroke="#63b8ff" points="319.21,-21.93 308.73,-20.4 315.97,-28.13 319.21,-21.93"/>
</a>
</g>
</g>
<!-- Node9 -->
<g id="Node000009" class="node">
<title>Node9</title>
<g id="a_Node000009"><a xlink:title=" ">
<polygon fill="#e0e0e0" stroke="#999999" points="418.38,-19.25 365.62,-19.25 365.62,0 418.38,0 418.38,-19.25"/>
<text text-anchor="middle" x="392" y="-5.75" font-family="Helvetica,sans-Serif" font-size="10.00">complex</text>
</a>
</g>
</g>
<!-- Node2&#45;&gt;Node9 -->
<g id="edge8_Node000002_Node000009" class="edge">
<title>Node2&#45;&gt;Node9</title>
<g id="a_edge8_Node000002_Node000009"><a xlink:title=" ">
<path fill="none" stroke="#63b8ff" d="M392,-55.08C392,-48.57 392,-39.42 392,-31.12"/>
<polygon fill="#63b8ff" stroke="#63b8ff" points="395.5,-31.12 392,-21.12 388.5,-31.12 395.5,-31.12"/>
</a>
</g>
</g>
<!-- Node10&#45;&gt;Node2 -->
<g id="edge11_Node000010_Node000002" class="edge">
<title>Node10&#45;&gt;Node2</title>
<g id="a_edge11_Node000010_Node000002"><a xlink:title=" ">
<path fill="none" stroke="#63b8ff" d="M302.8,-165.53C291.88,-152.64 275.23,-128.28 287,-110.5 297.36,-94.84 314.45,-84.65 331.87,-78.04"/>
<polygon fill="#63b8ff" stroke="#63b8ff" points="332.92,-81.38 341.26,-74.85 330.67,-74.75 332.92,-81.38"/>
</a>
</g>
</g>
<!-- Node10&#45;&gt;Node6 -->
<g id="edge22_Node000010_Node000006" class="edge">
<title>Node10&#45;&gt;Node6</title>
<g id="a_edge22_Node000010_Node000006"><a xlink:title=" ">
<path fill="none" stroke="#63b8ff" d="M249.75,-170.18C192.89,-164.85 114.23,-153.35 95,-129.75 89.6,-123.12 91.53,-118.32 95,-110.5 109.83,-77.06 122.5,-69.94 156,-55.25 197.95,-36.85 513.01,-18.02 615.14,-12.35"/>
<polygon fill="#63b8ff" stroke="#63b8ff" points="615.21,-15.85 625,-11.8 614.82,-8.86 615.21,-15.85"/>
</a>
</g>
</g>
<!-- Node10&#45;&gt;Node7 -->
<g id="edge23_Node000010_Node000007" class="edge">
<title>Node10&#45;&gt;Node7</title>
<g id="a_edge23_Node000010_Node000007"><a xlink:title=" ">
<path fill="none" stroke="#63b8ff" d="M331.67,-165.31C382.8,-143.25 519.68,-86.27 639,-55.25 725.29,-32.82 829.85,-19.6 882.03,-13.93"/>
<polygon fill="#63b8ff" stroke="#63b8ff" points="882.16,-17.43 891.74,-12.9 881.42,-10.47 882.16,-17.43"/>
</a>
</g>
</g>
<!-- Node11 -->
<g id="Node000011" class="node">
<title>Node11</title>
<g id="a_Node000011"><a xlink:title=" ">
<polygon fill="#e0e0e0" stroke="#999999" points="722.25,-74.5 647.75,-74.5 647.75,-55.25 722.25,-55.25 722.25,-74.5"/>
<text text-anchor="middle" x="685" y="-61" font-family="Helvetica,sans-Serif" font-size="10.00">ioss_export.h</text>
</a>
</g>
</g>
<!-- Node10&#45;&gt;Node11 -->
<g id="edge10_Node000010_Node000011" class="edge">
<title>Node10&#45;&gt;Node11</title>
<g id="a_edge10_Node000010_Node000011"><a xlink:title=" ">
<path fill="none" stroke="#63b8ff" d="M342.24,-165.31C409.21,-145.88 566.62,-100.22 642.55,-78.19"/>
<polygon fill="#63b8ff" stroke="#63b8ff" points="643.5,-81.56 652.13,-75.41 641.55,-74.84 643.5,-81.56"/>
</a>
</g>
</g>
<!-- Node12 -->
<g id="Node000012" class="node">
<title>Node12</title>
<g id="a_Node000012"><a xlink:href="Ioss__ElementPermutation_8h.html" target="_top" xlink:title=" ">
<polygon fill="white" stroke="#666666" points="240.38,-129.75 103.62,-129.75 103.62,-110.5 240.38,-110.5 240.38,-129.75"/>
<text text-anchor="middle" x="172" y="-116.25" font-family="Helvetica,sans-Serif" font-size="10.00">Ioss_ElementPermutation.h</text>
</a>
</g>
</g>
<!-- Node10&#45;&gt;Node12 -->
<g id="edge12_Node000010_Node000012" class="edge">
<title>Node10&#45;&gt;Node12</title>
<g id="a_edge12_Node000010_Node000012"><a xlink:title=" ">
<path fill="none" stroke="#63b8ff" d="M287.42,-165.34C265.16,-156.81 231.51,-143.92 206.28,-134.26"/>
<polygon fill="#63b8ff" stroke="#63b8ff" points="207.7,-131.05 197.11,-130.74 205.19,-137.59 207.7,-131.05"/>
</a>
</g>
</g>
<!-- Node15 -->
<g id="Node000015" class="node">
<title>Node15</title>
<g id="a_Node000015"><a xlink:title=" ">
<polygon fill="#e0e0e0" stroke="#999999" points="493.38,-74.5 458.62,-74.5 458.62,-55.25 493.38,-55.25 493.38,-74.5"/>
<text text-anchor="middle" x="476" y="-61" font-family="Helvetica,sans-Serif" font-size="10.00">map</text>
</a>
</g>
</g>
<!-- Node10&#45;&gt;Node15 -->
<g id="edge20_Node000010_Node000015" class="edge">
<title>Node10&#45;&gt;Node15</title>
<g id="a_edge20_Node000010_Node000015"><a xlink:title=" ">
<path fill="none" stroke="#63b8ff" d="M324.78,-165.31C353.12,-146.68 418.18,-103.9 453.01,-81"/>
<polygon fill="#63b8ff" stroke="#63b8ff" points="454.67,-84.09 461.11,-75.67 450.83,-78.24 454.67,-84.09"/>
</a>
</g>
</g>
<!-- Node16 -->
<g id="Node000016" class="node">
<title>Node16</title>
<g id="a_Node000016"><a xlink:title=" ">
<polygon fill="#e0e0e0" stroke="#999999" points="325.75,-129.75 296.25,-129.75 296.25,-110.5 325.75,-110.5 325.75,-129.75"/>
<text text-anchor="middle" x="311" y="-116.25" font-family="Helvetica,sans-Serif" font-size="10.00">set</text>
</a>
</g>
</g>
<!-- Node10&#45;&gt;Node16 -->
<g id="edge21_Node000010_Node000016" class="edge">
<title>Node10&#45;&gt;Node16</title>
<g id="a_edge21_Node000010_Node000016"><a xlink:title=" ">
<path fill="none" stroke="#63b8ff" d="M311,-165.58C311,-159.07 311,-149.92 311,-141.62"/>
<polygon fill="#63b8ff" stroke="#63b8ff" points="314.5,-141.62 311,-131.62 307.5,-141.62 314.5,-141.62"/>
</a>
</g>
</g>
<!-- Node12&#45;&gt;Node2 -->
<g id="edge14_Node000012_Node000002" class="edge">
<title>Node12&#45;&gt;Node2</title>
<g id="a_edge14_Node000012_Node000002"><a xlink:title=" ">
<path fill="none" stroke="#63b8ff" d="M209.32,-110.09C246.3,-101.14 303.11,-87.39 343.55,-77.6"/>
<polygon fill="#63b8ff" stroke="#63b8ff" points="344.13,-81.06 353.03,-75.31 342.48,-74.26 344.13,-81.06"/>
</a>
</g>
</g>
<!-- Node12&#45;&gt;Node6 -->
<g id="edge18_Node000012_Node000006" class="edge">
<title>Node12&#45;&gt;Node6</title>
<g id="a_edge18_Node000012_Node000006"><a xlink:title=" ">
<path fill="none" stroke="#63b8ff" d="M167.76,-110.4C161.83,-96.76 153.21,-70.38 167,-55.25 182.15,-38.63 510.38,-18.45 615.16,-12.41"/>
<polygon fill="#63b8ff" stroke="#63b8ff" points="615.22,-15.92 625.01,-11.85 614.82,-8.93 615.22,-15.92"/>
</a>
</g>
</g>
<!-- Node12&#45;&gt;Node7 -->
<g id="edge19_Node000012_Node000007" class="edge">
<title>Node12&#45;&gt;Node7</title>
<g id="a_edge19_Node000012_Node000007"><a xlink:title=" ">
<path fill="none" stroke="#63b8ff" d="M240.72,-110.82C307.57,-102.51 411.95,-88.91 502,-74.5 548.42,-67.07 559.62,-62.89 606,-55.25 706.36,-38.72 825.62,-22.45 882.15,-14.93"/>
<polygon fill="#63b8ff" stroke="#63b8ff" points="882.27,-18.45 891.73,-13.67 881.35,-11.51 882.27,-18.45"/>
</a>
</g>
</g>
<!-- Node12&#45;&gt;Node11 -->
<g id="edge13_Node000012_Node000011" class="edge">
<title>Node12&#45;&gt;Node11</title>
<g id="a_edge13_Node000012_Node000011"><a xlink:title=" ">
<path fill="none" stroke="#63b8ff" d="M240.65,-112C345.8,-101.08 544.17,-80.49 636.03,-70.96"/>
<polygon fill="#63b8ff" stroke="#63b8ff" points="636.39,-74.44 645.98,-69.93 635.67,-67.48 636.39,-74.44"/>
</a>
</g>
</g>
<!-- Node13 -->
<g id="Node000013" class="node">
<title>Node13</title>
<g id="a_Node000013"><a xlink:title=" ">
<polygon fill="#e0e0e0" stroke="#999999" points="284.62,-74.5 233.38,-74.5 233.38,-55.25 284.62,-55.25 284.62,-74.5"/>
<text text-anchor="middle" x="259" y="-61" font-family="Helvetica,sans-Serif" font-size="10.00">assert.h</text>
</a>
</g>
</g>
<!-- Node12&#45;&gt;Node13 -->
<g id="edge15_Node000012_Node000013" class="edge">
<title>Node12&#45;&gt;Node13</title>
<g id="a_edge15_Node000012_Node000013"><a xlink:title=" ">
<path fill="none" stroke="#63b8ff" d="M186.76,-110.09C199.88,-102.06 219.32,-90.16 234.73,-80.73"/>
<polygon fill="#63b8ff" stroke="#63b8ff" points="236.18,-83.95 242.88,-75.74 232.52,-77.98 236.18,-83.95"/>
</a>
</g>
</g>
<!-- Node14 -->
<g id="Node000014" class="node">
<title>Node14</title>
<g id="a_Node000014"><a xlink:title=" ">
<polygon fill="#e0e0e0" stroke="#999999" points="215.62,-74.5 176.38,-74.5 176.38,-55.25 215.62,-55.25 215.62,-74.5"/>
<text text-anchor="middle" x="196" y="-61" font-family="Helvetica,sans-Serif" font-size="10.00">limits</text>
</a>
</g>
</g>
<!-- Node12&#45;&gt;Node14 -->
<g id="edge16_Node000012_Node000014" class="edge">
<title>Node12&#45;&gt;Node14</title>
<g id="a_edge16_Node000012_Node000014"><a xlink:title=" ">
<path fill="none" stroke="#63b8ff" d="M175.96,-110.33C179.04,-103.51 183.41,-93.81 187.29,-85.2"/>
<polygon fill="#63b8ff" stroke="#63b8ff" points="190.41,-86.79 191.33,-76.24 184.03,-83.92 190.41,-86.79"/>
</a>
</g>
</g>
<!-- Node12&#45;&gt;Node15 -->
<g id="edge17_Node000012_Node000015" class="edge">
<title>Node12&#45;&gt;Node15</title>
<g id="a_edge17_Node000012_Node000015"><a xlink:title=" ">
<path fill="none" stroke="#63b8ff" d="M240.59,-111.24C294.58,-104.33 371.83,-92.87 447.12,-74.9"/>
<polygon fill="#63b8ff" stroke="#63b8ff" points="447.85,-78.32 456.74,-72.56 446.19,-71.52 447.85,-78.32"/>
</a>
</g>
</g>
<!-- Node17&#45;&gt;Node2 -->
<g id="edge26_Node000017_Node000002" class="edge">
<title>Node17&#45;&gt;Node2</title>
<g id="a_edge26_Node000017_Node000002"><a xlink:title=" ">
<path fill="none" stroke="#63b8ff" d="M245.16,-220.71C173.63,-204.57 46.47,-166.87 95,-110.5 102.67,-101.59 247.11,-83.07 331.68,-72.91"/>
<polygon fill="#63b8ff" stroke="#63b8ff" points="331.93,-76.41 341.44,-71.75 331.1,-69.46 331.93,-76.41"/>
</a>
</g>
</g>
<!-- Node17&#45;&gt;Node10 -->
<g id="edge27_Node000017_Node000010" class="edge">
<title>Node17&#45;&gt;Node10</title>
<g id="a_edge27_Node000017_Node000010"><a xlink:title=" ">
<path fill="none" stroke="#63b8ff" d="M293.47,-220.83C296.13,-214.09 299.9,-204.52 303.26,-195.99"/>
<polygon fill="#63b8ff" stroke="#63b8ff" points="306.49,-197.35 306.9,-186.77 299.98,-194.79 306.49,-197.35"/>
</a>
</g>
</g>
<!-- Node17&#45;&gt;Node11 -->
<g id="edge25_Node000017_Node000011" class="edge">
<title>Node17&#45;&gt;Node11</title>
<g id="a_edge25_Node000017_Node000011"><a xlink:title=" ">
<path fill="none" stroke="#63b8ff" d="M334.61,-225.37C403.91,-216.95 539.29,-193.13 634,-129.75 651.29,-118.18 665.51,-98.91 674.5,-84.55"/>
<polygon fill="#63b8ff" stroke="#63b8ff" points="677.45,-86.43 679.54,-76.05 671.43,-82.86 677.45,-86.43"/>
</a>
</g>
</g>
<!-- Node18&#45;&gt;Node2 -->
<g id="edge30_Node000018_Node000002" class="edge">
<title>Node18&#45;&gt;Node2</title>
<g id="a_edge30_Node000018_Node000002"><a xlink:title=" ">
<path fill="none" stroke="#63b8ff" d="M465.11,-331.27C462.2,-322.29 457.64,-307.97 454,-295.5 431.46,-218.24 407.3,-125.52 397.06,-85.67"/>
<polygon fill="#63b8ff" stroke="#63b8ff" points="400.49,-84.95 394.61,-76.14 393.71,-86.69 400.49,-84.95"/>
</a>
</g>
</g>
<!-- Node18&#45;&gt;Node6 -->
<g id="edge75_Node000018_Node000006" class="edge">
<title>Node18&#45;&gt;Node6</title>
<g id="a_edge75_Node000018_Node000006"><a xlink:title=" ">
<path fill="none" stroke="#63b8ff" d="M472.79,-331.31C496.65,-287.38 602.97,-91.68 636.7,-29.59"/>
<polygon fill="#63b8ff" stroke="#63b8ff" points="639.69,-31.41 641.39,-20.95 633.54,-28.07 639.69,-31.41"/>
</a>
</g>
</g>
<!-- Node18&#45;&gt;Node11 -->
<g id="edge29_Node000018_Node000011" class="edge">
<title>Node18&#45;&gt;Node11</title>
<g id="a_edge29_Node000018_Node000011"><a xlink:title=" ">
<path fill="none" stroke="#63b8ff" d="M538.27,-335.63C605.26,-327.07 696,-302.42 696,-231.62 696,-231.62 696,-231.62 696,-174.38 696,-143.5 691.54,-107.93 688.3,-86.18"/>
<polygon fill="#63b8ff" stroke="#63b8ff" points="691.76,-85.68 686.76,-76.34 684.84,-86.76 691.76,-85.68"/>
</a>
</g>
</g>
<!-- Node19 -->
<g id="Node000019" class="node">
<title>Node19</title>
<g id="a_Node000019"><a xlink:href="Ioss__VariableType_8h.html" target="_top" xlink:title=" ">
<polygon fill="white" stroke="#666666" points="836.88,-295.5 733.12,-295.5 733.12,-276.25 836.88,-276.25 836.88,-295.5"/>
<text text-anchor="middle" x="785" y="-282" font-family="Helvetica,sans-Serif" font-size="10.00">Ioss_VariableType.h</text>
</a>
</g>
</g>
<!-- Node18&#45;&gt;Node19 -->
<g id="edge31_Node000018_Node000019" class="edge">
<title>Node18&#45;&gt;Node19</title>
<g id="a_edge31_Node000018_Node000019"><a xlink:title=" ">
<path fill="none" stroke="#63b8ff" d="M522.13,-331.03C577.34,-321.76 662.95,-307.38 721.37,-297.56"/>
<polygon fill="#63b8ff" stroke="#63b8ff" points="721.9,-301.02 731.18,-295.92 720.74,-294.12 721.9,-301.02"/>
</a>
</g>
</g>
<!-- Node19&#45;&gt;Node2 -->
<g id="edge33_Node000019_Node000002" class="edge">
<title>Node19&#45;&gt;Node2</title>
<g id="a_edge33_Node000019_Node000002"><a xlink:title=" ">
<path fill="none" stroke="#63b8ff" d="M764.58,-275.79C745.38,-267.1 715.92,-253.4 691,-240.25 586.56,-185.13 466.27,-111.88 416.01,-80.81"/>
<polygon fill="#63b8ff" stroke="#63b8ff" points="418.01,-77.94 407.66,-75.64 414.32,-83.89 418.01,-77.94"/>
</a>
</g>
</g>
<!-- Node19&#45;&gt;Node6 -->
<g id="edge73_Node000019_Node000006" class="edge">
<title>Node19&#45;&gt;Node6</title>
<g id="a_edge73_Node000019_Node000006"><a xlink:title=" ">
<path fill="none" stroke="#63b8ff" d="M776.34,-275.79C768.81,-267.31 758.31,-253.94 753,-240.25 723.04,-163.06 777.78,-123.57 731,-55.25 718.64,-37.2 696.57,-25.88 678.15,-19.16"/>
<polygon fill="#63b8ff" stroke="#63b8ff" points="679.31,-15.85 668.72,-16.02 677.11,-22.5 679.31,-15.85"/>
</a>
</g>
</g>
<!-- Node19&#45;&gt;Node7 -->
<g id="edge74_Node000019_Node000007" class="edge">
<title>Node19&#45;&gt;Node7</title>
<g id="a_edge74_Node000019_Node000007"><a xlink:title=" ">
<path fill="none" stroke="#63b8ff" d="M802.03,-275.89C838.41,-255.61 922.98,-202.31 955,-129.75 963.09,-111.42 938.99,-58.1 924.72,-29.41"/>
<polygon fill="#63b8ff" stroke="#63b8ff" points="927.99,-28.11 920.34,-20.78 921.75,-31.28 927.99,-28.11"/>
</a>
</g>
</g>
<!-- Node19&#45;&gt;Node11 -->
<g id="edge32_Node000019_Node000011" class="edge">
<title>Node19&#45;&gt;Node11</title>
<g id="a_edge32_Node000019_Node000011"><a xlink:title=" ">
<path fill="none" stroke="#63b8ff" d="M794.63,-276.06C806.59,-264 824.54,-241.49 817,-221 794.65,-160.25 736.77,-107.06 705.6,-81.68"/>
<polygon fill="#63b8ff" stroke="#63b8ff" points="708.04,-79.15 698.03,-75.66 703.68,-84.63 708.04,-79.15"/>
</a>
</g>
</g>
<!-- Node19&#45;&gt;Node15 -->
<g id="edge72_Node000019_Node000015" class="edge">
<title>Node19&#45;&gt;Node15</title>
<g id="a_edge72_Node000019_Node000015"><a xlink:title=" ">
<path fill="none" stroke="#63b8ff" d="M771.75,-275.89C758.58,-266.93 737.83,-252.74 720,-240.25 637.29,-182.31 539.85,-112.07 497.48,-81.43"/>
<polygon fill="#63b8ff" stroke="#63b8ff" points="499.76,-78.76 489.61,-75.74 495.66,-84.44 499.76,-78.76"/>
</a>
</g>
</g>
<!-- Node20 -->
<g id="Node000020" class="node">
<title>Node20</title>
<g id="a_Node000020"><a xlink:href="Ioss__Utils_8h.html" target="_top" xlink:title=" ">
<polygon fill="white" stroke="#666666" points="1147.25,-240.25 1078.75,-240.25 1078.75,-221 1147.25,-221 1147.25,-240.25"/>
<text text-anchor="middle" x="1113" y="-226.75" font-family="Helvetica,sans-Serif" font-size="10.00">Ioss_Utils.h</text>
</a>
</g>
</g>
<!-- Node19&#45;&gt;Node20 -->
<g id="edge34_Node000019_Node000020" class="edge">
<title>Node19&#45;&gt;Node20</title>
<g id="a_edge34_Node000019_Node000020"><a xlink:title=" ">
<path fill="none" stroke="#63b8ff" d="M837.34,-276.38C900.88,-266.06 1007.03,-248.83 1067.38,-239.03"/>
<polygon fill="#63b8ff" stroke="#63b8ff" points="1067.66,-242.53 1076.97,-237.48 1066.53,-235.62 1067.66,-242.53"/>
</a>
</g>
</g>
<!-- Node28 -->
<g id="Node000028" class="node">
<title>Node28</title>
<g id="a_Node000028"><a xlink:title=" ">
<polygon fill="#e0e0e0" stroke="#999999" points="1689,-74.5 1631,-74.5 1631,-55.25 1689,-55.25 1689,-74.5"/>
<text text-anchor="middle" x="1660" y="-61" font-family="Helvetica,sans-Serif" font-size="10.00">functional</text>
</a>
</g>
</g>
<!-- Node19&#45;&gt;Node28 -->
<g id="edge71_Node000019_Node000028" class="edge">
<title>Node19&#45;&gt;Node28</title>
<g id="a_edge71_Node000019_Node000028"><a xlink:title=" ">
<path fill="none" stroke="#63b8ff" d="M837.23,-282.93C1018.35,-275.66 1611.41,-247.24 1667,-185 1691.41,-157.67 1678.74,-111.22 1668.58,-85.13"/>
<polygon fill="#63b8ff" stroke="#63b8ff" points="1671.9,-84 1664.82,-76.12 1665.44,-86.69 1671.9,-84"/>
</a>
</g>
</g>
<!-- Node36 -->
<g id="Node000036" class="node">
<title>Node36</title>
<g id="a_Node000036"><a xlink:title=" ">
<polygon fill="#e0e0e0" stroke="#999999" points="807.62,-240.25 762.38,-240.25 762.38,-221 807.62,-221 807.62,-240.25"/>
<text text-anchor="middle" x="785" y="-226.75" font-family="Helvetica,sans-Serif" font-size="10.00">cstring</text>
</a>
</g>
</g>
<!-- Node19&#45;&gt;Node36 -->
<g id="edge70_Node000019_Node000036" class="edge">
<title>Node19&#45;&gt;Node36</title>
<g id="a_edge70_Node000019_Node000036"><a xlink:title=" ">
<path fill="none" stroke="#63b8ff" d="M785,-276.08C785,-269.57 785,-260.42 785,-252.12"/>
<polygon fill="#63b8ff" stroke="#63b8ff" points="788.5,-252.12 785,-242.12 781.5,-252.12 788.5,-252.12"/>
</a>
</g>
</g>
<!-- Node20&#45;&gt;Node2 -->
<g id="edge36_Node000020_Node000002" class="edge">
<title>Node20&#45;&gt;Node2</title>
<g id="a_edge36_Node000020_Node000002"><a xlink:title=" ">
<path fill="none" stroke="#63b8ff" d="M1078.43,-225.97C1022.19,-219.7 907.55,-205.54 812,-185 668.92,-154.24 502.74,-102.11 429.71,-78.35"/>
<polygon fill="#63b8ff" stroke="#63b8ff" points="431.24,-75.17 420.65,-75.39 429.07,-81.82 431.24,-75.17"/>
</a>
</g>
</g>
<!-- Node20&#45;&gt;Node4 -->
<g id="edge63_Node000020_Node000004" class="edge">
<title>Node20&#45;&gt;Node4</title>
<g id="a_edge63_Node000020_Node000004"><a xlink:title=" ">
<path fill="none" stroke="#63b8ff" d="M1147.71,-223.27C1172.27,-217.18 1204.53,-205.73 1226,-185 1271.06,-141.48 1291.07,-66.71 1298.42,-30.9"/>
<polygon fill="#63b8ff" stroke="#63b8ff" points="1301.85,-31.56 1300.29,-21.08 1294.98,-30.25 1301.85,-31.56"/>
</a>
</g>
</g>
<!-- Node20&#45;&gt;Node5 -->
<g id="edge64_Node000020_Node000005" class="edge">
<title>Node20&#45;&gt;Node5</title>
<g id="a_edge64_Node000020_Node000005"><a xlink:title=" ">
<path fill="none" stroke="#63b8ff" d="M1147.41,-222.96C1168.54,-216.9 1193.97,-205.61 1207,-185 1237.86,-136.19 1212.57,-64 1197.39,-29.86"/>
<polygon fill="#63b8ff" stroke="#63b8ff" points="1200.58,-28.43 1193.19,-20.84 1194.24,-31.39 1200.58,-28.43"/>
</a>
</g>
</g>
<!-- Node20&#45;&gt;Node6 -->
<g id="edge68_Node000020_Node000006" class="edge">
<title>Node20&#45;&gt;Node6</title>
<g id="a_edge68_Node000020_Node000006"><a xlink:title=" ">
<path fill="none" stroke="#63b8ff" d="M1078.52,-226.09C1039.59,-221.06 975.15,-209.58 925,-185 842.48,-144.56 843.69,-101.02 764,-55.25 736.5,-39.45 702.34,-27.17 678.05,-19.52"/>
<polygon fill="#63b8ff" stroke="#63b8ff" points="679.35,-16.26 668.76,-16.69 677.3,-22.95 679.35,-16.26"/>
</a>
</g>
</g>
<!-- Node20&#45;&gt;Node7 -->
<g id="edge69_Node000020_Node000007" class="edge">
<title>Node20&#45;&gt;Node7</title>
<g id="a_edge69_Node000020_Node000007"><a xlink:title=" ">
<path fill="none" stroke="#63b8ff" d="M1104.99,-220.77C1075.2,-187.82 970.43,-71.94 930.56,-27.84"/>
<polygon fill="#63b8ff" stroke="#63b8ff" points="933.21,-25.54 923.9,-20.47 928.02,-30.24 933.21,-25.54"/>
</a>
</g>
</g>
<!-- Node20&#45;&gt;Node10 -->
<g id="edge37_Node000020_Node000010" class="edge">
<title>Node20&#45;&gt;Node10</title>
<g id="a_edge37_Node000020_Node000010"><a xlink:title=" ">
<path fill="none" stroke="#63b8ff" d="M1078.28,-227.32C956.97,-219.27 550.36,-192.27 383.45,-181.19"/>
<polygon fill="#63b8ff" stroke="#63b8ff" points="384.05,-177.72 373.84,-180.55 383.59,-184.7 384.05,-177.72"/>
</a>
</g>
</g>
<!-- Node20&#45;&gt;Node11 -->
<g id="edge35_Node000020_Node000011" class="edge">
<title>Node20&#45;&gt;Node11</title>
<g id="a_edge35_Node000020_Node000011"><a xlink:title=" ">
<path fill="none" stroke="#63b8ff" d="M1078.34,-227.58C1012.8,-223.17 873.74,-210.95 834,-185 801.02,-163.46 815.94,-136.09 786,-110.5 769.36,-96.27 747.46,-85.86 728.31,-78.69"/>
<polygon fill="#63b8ff" stroke="#63b8ff" points="729.73,-75.48 719.13,-75.44 727.39,-82.07 729.73,-75.48"/>
</a>
</g>
</g>
<!-- Node21 -->
<g id="Node000021" class="node">
<title>Node21</title>
<g id="a_Node000021"><a xlink:href="Ioss__EntityType_8h.html" target="_top" xlink:title=" ">
<polygon fill="white" stroke="#666666" points="1198.38,-185 1103.62,-185 1103.62,-165.75 1198.38,-165.75 1198.38,-185"/>
<text text-anchor="middle" x="1151" y="-171.5" font-family="Helvetica,sans-Serif" font-size="10.00">Ioss_EntityType.h</text>
</a>
</g>
</g>
<!-- Node20&#45;&gt;Node21 -->
<g id="edge38_Node000020_Node000021" class="edge">
<title>Node20&#45;&gt;Node21</title>
<g id="a_edge38_Node000020_Node000021"><a xlink:title=" ">
<path fill="none" stroke="#63b8ff" d="M1119.27,-220.83C1124.36,-213.71 1131.7,-203.43 1138.03,-194.55"/>
<polygon fill="#63b8ff" stroke="#63b8ff" points="1140.75,-196.76 1143.71,-186.59 1135.05,-192.7 1140.75,-196.76"/>
</a>
</g>
</g>
<!-- Node22 -->
<g id="Node000022" class="node">
<title>Node22</title>
<g id="a_Node000022"><a xlink:href="Ioss__Field_8h.html" target="_top" xlink:title=" ">
<polygon fill="white" stroke="#666666" points="945.62,-129.75 876.38,-129.75 876.38,-110.5 945.62,-110.5 945.62,-129.75"/>
<text text-anchor="middle" x="911" y="-116.25" font-family="Helvetica,sans-Serif" font-size="10.00">Ioss_Field.h</text>
</a>
</g>
</g>
<!-- Node20&#45;&gt;Node22 -->
<g id="edge39_Node000020_Node000022" class="edge">
<title>Node20&#45;&gt;Node22</title>
<g id="a_edge39_Node000020_Node000022"><a xlink:title=" ">
<path fill="none" stroke="#63b8ff" d="M1078.31,-228.72C1041.06,-226.03 981.98,-216.62 943,-185 929.15,-173.77 920.77,-155.01 916.08,-140.72"/>
<polygon fill="#63b8ff" stroke="#63b8ff" points="919.54,-140.11 913.39,-131.48 912.82,-142.06 919.54,-140.11"/>
</a>
</g>
</g>
<!-- Node23 -->
<g id="Node000023" class="node">
<title>Node23</title>
<g id="a_Node000023"><a xlink:href="Ioss__Property_8h.html" target="_top" xlink:title=" ">
<polygon fill="white" stroke="#666666" points="1125.75,-129.75 1042.25,-129.75 1042.25,-110.5 1125.75,-110.5 1125.75,-129.75"/>
<text text-anchor="middle" x="1084" y="-116.25" font-family="Helvetica,sans-Serif" font-size="10.00">Ioss_Property.h</text>
</a>
</g>
</g>
<!-- Node20&#45;&gt;Node23 -->
<g id="edge45_Node000020_Node000023" class="edge">
<title>Node20&#45;&gt;Node23</title>
<g id="a_edge45_Node000020_Node000023"><a xlink:title=" ">
<path fill="none" stroke="#63b8ff" d="M1108.69,-220.59C1104.62,-211.72 1098.61,-197.7 1095,-185 1090.89,-170.55 1088.08,-153.8 1086.32,-141.08"/>
<polygon fill="#63b8ff" stroke="#63b8ff" points="1089.83,-140.92 1085.11,-131.44 1082.89,-141.8 1089.83,-140.92"/>
</a>
</g>
</g>
<!-- Node25 -->
<g id="Node000025" class="node">
<title>Node25</title>
<g id="a_Node000025"><a xlink:href="Ioss__Sort_8h.html" target="_top" xlink:title=" ">
<polygon fill="white" stroke="#666666" points="1358.12,-185 1291.88,-185 1291.88,-165.75 1358.12,-165.75 1358.12,-185"/>
<text text-anchor="middle" x="1325" y="-171.5" font-family="Helvetica,sans-Serif" font-size="10.00">Ioss_Sort.h</text>
</a>
</g>
</g>
<!-- Node20&#45;&gt;Node25 -->
<g id="edge51_Node000020_Node000025" class="edge">
<title>Node20&#45;&gt;Node25</title>
<g id="a_edge51_Node000020_Node000025"><a xlink:title=" ">
<path fill="none" stroke="#63b8ff" d="M1147.53,-220.95C1183.81,-211.84 1241,-197.47 1280.61,-187.53"/>
<polygon fill="#63b8ff" stroke="#63b8ff" points="1281.22,-190.98 1290.06,-185.15 1279.51,-184.19 1281.22,-190.98"/>
</a>
</g>
</g>
<!-- Node27 -->
<g id="Node000027" class="node">
<title>Node27</title>
<g id="a_Node000027"><a xlink:title=" ">
<polygon fill="#e0e0e0" stroke="#999999" points="1605.88,-74.5 1550.12,-74.5 1550.12,-55.25 1605.88,-55.25 1605.88,-74.5"/>
<text text-anchor="middle" x="1578" y="-61" font-family="Helvetica,sans-Serif" font-size="10.00">algorithm</text>
</a>
</g>
</g>
<!-- Node20&#45;&gt;Node27 -->
<g id="edge60_Node000020_Node000027" class="edge">
<title>Node20&#45;&gt;Node27</title>
<g id="a_edge60_Node000020_Node000027"><a xlink:title=" ">
<path fill="none" stroke="#63b8ff" d="M1147.43,-228.64C1247.55,-225.45 1533.37,-213.86 1563,-185 1589.3,-159.39 1586.51,-112.64 1582.21,-85.96"/>
<polygon fill="#63b8ff" stroke="#63b8ff" points="1585.71,-85.63 1580.44,-76.44 1578.83,-86.91 1585.71,-85.63"/>
</a>
</g>
</g>
<!-- Node20&#45;&gt;Node31 -->
<g id="edge61_Node000020_Node000031" class="edge">
<title>Node20&#45;&gt;Node31</title>
<g id="a_edge61_Node000020_Node000031"><a xlink:title=" ">
<path fill="none" stroke="#63b8ff" d="M1147.75,-227.98C1227.42,-223.87 1429.25,-211.51 1596,-185 1596.83,-184.87 1597.66,-184.73 1598.5,-184.58"/>
<polygon fill="#63b8ff" stroke="#63b8ff" points="1598.94,-188.07 1608.08,-182.71 1597.59,-181.2 1598.94,-188.07"/>
</a>
</g>
</g>
<!-- Node32 -->
<g id="Node000032" class="node">
<title>Node32</title>
<g id="a_Node000032"><a xlink:title=" ">
<polygon fill="#e0e0e0" stroke="#999999" points="1419.5,-185 1376.5,-185 1376.5,-165.75 1419.5,-165.75 1419.5,-185"/>
<text text-anchor="middle" x="1398" y="-171.5" font-family="Helvetica,sans-Serif" font-size="10.00">cmath</text>
</a>
</g>
</g>
<!-- Node20&#45;&gt;Node32 -->
<g id="edge62_Node000020_Node000032" class="edge">
<title>Node20&#45;&gt;Node32</title>
<g id="a_edge62_Node000020_Node000032"><a xlink:title=" ">
<path fill="none" stroke="#63b8ff" d="M1147.72,-224.62C1194.73,-217.61 1281.41,-203.85 1364.84,-185.29"/>
<polygon fill="#63b8ff" stroke="#63b8ff" points="1365.59,-188.71 1374.58,-183.1 1364.05,-181.88 1365.59,-188.71"/>
</a>
</g>
</g>
<!-- Node33 -->
<g id="Node000033" class="node">
<title>Node33</title>
<g id="a_Node000033"><a xlink:title=" ">
<polygon fill="#e0e0e0" stroke="#999999" points="1482.25,-185 1437.75,-185 1437.75,-165.75 1482.25,-165.75 1482.25,-185"/>
<text text-anchor="middle" x="1460" y="-171.5" font-family="Helvetica,sans-Serif" font-size="10.00">cstdlib</text>
</a>
</g>
</g>
<!-- Node20&#45;&gt;Node33 -->
<g id="edge65_Node000020_Node000033" class="edge">
<title>Node20&#45;&gt;Node33</title>
<g id="a_edge65_Node000020_Node000033"><a xlink:title=" ">
<path fill="none" stroke="#63b8ff" d="M1147.73,-226.11C1204.09,-220.11 1319.11,-206.6 1426.34,-185.09"/>
<polygon fill="#63b8ff" stroke="#63b8ff" points="1426.77,-188.57 1435.87,-183.15 1425.38,-181.72 1426.77,-188.57"/>
</a>
</g>
</g>
<!-- Node34 -->
<g id="Node000034" class="node">
<title>Node34</title>
<g id="a_Node000034"><a xlink:title=" ">
<polygon fill="#e0e0e0" stroke="#999999" points="1553.75,-185 1500.25,-185 1500.25,-165.75 1553.75,-165.75 1553.75,-185"/>
<text text-anchor="middle" x="1527" y="-171.5" font-family="Helvetica,sans-Serif" font-size="10.00">iostream</text>
</a>
</g>
</g>
<!-- Node20&#45;&gt;Node34 -->
<g id="edge66_Node000020_Node000034" class="edge">
<title>Node20&#45;&gt;Node34</title>
<g id="a_edge66_Node000020_Node000034"><a xlink:title=" ">
<path fill="none" stroke="#63b8ff" d="M1147.6,-226.91C1212.53,-221.53 1357.24,-208.13 1488.88,-185.18"/>
<polygon fill="#63b8ff" stroke="#63b8ff" points="1489.22,-188.67 1498.45,-183.48 1488,-181.78 1489.22,-188.67"/>
</a>
</g>
</g>
<!-- Node35 -->
<g id="Node000035" class="node">
<title>Node35</title>
<g id="a_Node000035"><a xlink:title=" ">
<polygon fill="#e0e0e0" stroke="#999999" points="1010.38,-185 951.62,-185 951.62,-165.75 1010.38,-165.75 1010.38,-185"/>
<text text-anchor="middle" x="981" y="-171.5" font-family="Helvetica,sans-Serif" font-size="10.00">stdexcept</text>
</a>
</g>
</g>
<!-- Node20&#45;&gt;Node35 -->
<g id="edge67_Node000020_Node000035" class="edge">
<title>Node20&#45;&gt;Node35</title>
<g id="a_edge67_Node000020_Node000035"><a xlink:title=" ">
<path fill="none" stroke="#63b8ff" d="M1090.61,-220.59C1069.56,-212.1 1037.8,-199.29 1013.88,-189.64"/>
<polygon fill="#63b8ff" stroke="#63b8ff" points="1015.49,-186.51 1004.91,-186.02 1012.87,-193.01 1015.49,-186.51"/>
</a>
</g>
</g>
<!-- Node22&#45;&gt;Node2 -->
<g id="edge41_Node000022_Node000002" class="edge">
<title>Node22&#45;&gt;Node2</title>
<g id="a_edge41_Node000022_Node000002"><a xlink:title=" ">
<path fill="none" stroke="#63b8ff" d="M875.94,-116.35C800.55,-110.24 617.11,-94.68 452.64,-74.77"/>
<polygon fill="#63b8ff" stroke="#63b8ff" points="453.19,-71.31 442.84,-73.57 452.34,-78.26 453.19,-71.31"/>
</a>
</g>
</g>
<!-- Node22&#45;&gt;Node4 -->
<g id="edge42_Node000022_Node000004" class="edge">
<title>Node22&#45;&gt;Node4</title>
<g id="a_edge42_Node000022_Node000004"><a xlink:title=" ">
<path fill="none" stroke="#63b8ff" d="M935.88,-110.09C972.57,-96.95 1043.49,-72.3 1105,-55.25 1160.86,-39.77 1226.71,-25.67 1266.37,-17.63"/>
<polygon fill="#63b8ff" stroke="#63b8ff" points="1266.95,-21.08 1276.07,-15.68 1265.57,-14.22 1266.95,-21.08"/>
</a>
</g>
</g>
<!-- Node22&#45;&gt;Node6 -->
<g id="edge43_Node000022_Node000006" class="edge">
<title>Node22&#45;&gt;Node6</title>
<g id="a_edge43_Node000022_Node000006"><a xlink:title=" ">
<path fill="none" stroke="#63b8ff" d="M902.94,-110.2C889.86,-96.28 862.59,-69.53 834,-55.25 783.11,-29.82 717.08,-18.47 678.64,-13.72"/>
<polygon fill="#63b8ff" stroke="#63b8ff" points="679.25,-10.27 668.91,-12.6 678.45,-17.23 679.25,-10.27"/>
</a>
</g>
</g>
<!-- Node22&#45;&gt;Node7 -->
<g id="edge44_Node000022_Node000007" class="edge">
<title>Node22&#45;&gt;Node7</title>
<g id="a_edge44_Node000022_Node000007"><a xlink:title=" ">
<path fill="none" stroke="#63b8ff" d="M911.33,-110.25C911.96,-93 913.38,-54.58 914.26,-30.81"/>
<polygon fill="#63b8ff" stroke="#63b8ff" points="917.74,-31.26 914.61,-21.14 910.75,-31 917.74,-31.26"/>
</a>
</g>
</g>
<!-- Node22&#45;&gt;Node11 -->
<g id="edge40_Node000022_Node000011" class="edge">
<title>Node22&#45;&gt;Node11</title>
<g id="a_edge40_Node000022_Node000011"><a xlink:title=" ">
<path fill="none" stroke="#63b8ff" d="M876.18,-110.92C837.99,-101.92 776.43,-87.42 733.52,-77.31"/>
<polygon fill="#63b8ff" stroke="#63b8ff" points="734.5,-73.94 723.97,-75.06 732.9,-80.76 734.5,-73.94"/>
</a>
</g>
</g>
<!-- Node23&#45;&gt;Node5 -->
<g id="edge47_Node000023_Node000005" class="edge">
<title>Node23&#45;&gt;Node5</title>
<g id="a_edge47_Node000023_Node000005"><a xlink:title=" ">
<path fill="none" stroke="#63b8ff" d="M1113.85,-110.13C1132.19,-103.17 1154.81,-91.75 1169,-74.5 1179.24,-62.05 1183.96,-44.23 1186.14,-30.57"/>
<polygon fill="#63b8ff" stroke="#63b8ff" points="1189.57,-31.33 1187.32,-20.98 1182.62,-30.47 1189.57,-31.33"/>
</a>
</g>
</g>
<!-- Node23&#45;&gt;Node6 -->
<g id="edge48_Node000023_Node000006" class="edge">
<title>Node23&#45;&gt;Node6</title>
<g id="a_edge48_Node000023_Node000006"><a xlink:title=" ">
<path fill="none" stroke="#63b8ff" d="M1055.23,-110.03C1013.24,-96.94 932.59,-72.47 863,-55.25 797.9,-39.14 720.79,-24.19 678.56,-16.35"/>
<polygon fill="#63b8ff" stroke="#63b8ff" points="679.33,-12.93 668.86,-14.56 678.06,-19.82 679.33,-12.93"/>
</a>
</g>
</g>
<!-- Node23&#45;&gt;Node7 -->
<g id="edge50_Node000023_Node000007" class="edge">
<title>Node23&#45;&gt;Node7</title>
<g id="a_edge50_Node000023_Node000007"><a xlink:title=" ">
<path fill="none" stroke="#63b8ff" d="M1077.58,-110.13C1067.51,-96.61 1046.81,-70.95 1024,-55.25 1000.51,-39.09 970.27,-27.29 947.6,-19.9"/>
<polygon fill="#63b8ff" stroke="#63b8ff" points="948.87,-16.63 938.28,-16.99 946.78,-23.31 948.87,-16.63"/>
</a>
</g>
</g>
<!-- Node23&#45;&gt;Node11 -->
<g id="edge46_Node000023_Node000011" class="edge">
<title>Node23&#45;&gt;Node11</title>
<g id="a_edge46_Node000023_Node000011"><a xlink:title=" ">
<path fill="none" stroke="#63b8ff" d="M1042.05,-113.53C967.58,-103.59 812.7,-82.92 733.67,-72.37"/>
<polygon fill="#63b8ff" stroke="#63b8ff" points="734.45,-68.94 724.08,-71.09 733.53,-75.88 734.45,-68.94"/>
</a>
</g>
</g>
<!-- Node24 -->
<g id="Node000024" class="node">
<title>Node24</title>
<g id="a_Node000024"><a xlink:title=" ">
<polygon fill="#e0e0e0" stroke="#999999" points="1159.62,-74.5 1114.38,-74.5 1114.38,-55.25 1159.62,-55.25 1159.62,-74.5"/>
<text text-anchor="middle" x="1137" y="-61" font-family="Helvetica,sans-Serif" font-size="10.00">variant</text>
</a>
</g>
</g>
<!-- Node23&#45;&gt;Node24 -->
<g id="edge49_Node000023_Node000024" class="edge">
<title>Node23&#45;&gt;Node24</title>
<g id="a_edge49_Node000023_Node000024"><a xlink:title=" ">
<path fill="none" stroke="#63b8ff" d="M1092.75,-110.33C1100.15,-102.9 1110.96,-92.04 1120.05,-82.91"/>
<polygon fill="#63b8ff" stroke="#63b8ff" points="1122.42,-85.49 1126.99,-75.93 1117.46,-80.55 1122.42,-85.49"/>
</a>
</g>
</g>
<!-- Node25&#45;&gt;Node4 -->
<g id="edge58_Node000025_Node000004" class="edge">
<title>Node25&#45;&gt;Node4</title>
<g id="a_edge58_Node000025_Node000004"><a xlink:title=" ">
<path fill="none" stroke="#63b8ff" d="M1325.02,-165.32C1324.9,-145.28 1323.78,-95.78 1316,-55.25 1314.41,-46.98 1311.81,-38.09 1309.28,-30.44"/>
<polygon fill="#63b8ff" stroke="#63b8ff" points="1312.63,-29.41 1306.02,-21.13 1306.03,-31.72 1312.63,-29.41"/>
</a>
</g>
</g>
<!-- Node25&#45;&gt;Node7 -->
<g id="edge59_Node000025_Node000007" class="edge">
<title>Node25&#45;&gt;Node7</title>
<g id="a_edge59_Node000025_Node000007"><a xlink:title=" ">
<path fill="none" stroke="#63b8ff" d="M1316.51,-165.41C1294.53,-142.81 1232.98,-83.29 1169,-55.25 1094.56,-22.63 997.97,-13.83 948.08,-11.47"/>
<polygon fill="#63b8ff" stroke="#63b8ff" points="948.37,-7.98 938.24,-11.07 948.09,-14.98 948.37,-7.98"/>
</a>
</g>
</g>
<!-- Node26 -->
<g id="Node000026" class="node">
<title>Node26</title>
<g id="a_Node000026"><a xlink:href="pdqsort_8h.html" target="_top" xlink:title=" ">
<polygon fill="white" stroke="#666666" points="1507.25,-129.75 1450.75,-129.75 1450.75,-110.5 1507.25,-110.5 1507.25,-129.75"/>
<text text-anchor="middle" x="1479" y="-116.25" font-family="Helvetica,sans-Serif" font-size="10.00">pdqsort.h</text>
</a>
</g>
</g>
<!-- Node25&#45;&gt;Node26 -->
<g id="edge52_Node000025_Node000026" class="edge">
<title>Node25&#45;&gt;Node26</title>
<g id="a_edge52_Node000025_Node000026"><a xlink:title=" ">
<path fill="none" stroke="#63b8ff" d="M1351.12,-165.34C1376.12,-156.7 1414.08,-143.57 1442.15,-133.87"/>
<polygon fill="#63b8ff" stroke="#63b8ff" points="1443.01,-137.27 1451.32,-130.7 1440.72,-130.66 1443.01,-137.27"/>
</a>
</g>
</g>
<!-- Node26&#45;&gt;Node4 -->
<g id="edge54_Node000026_Node000004" class="edge">
<title>Node26&#45;&gt;Node4</title>
<g id="a_edge54_Node000026_Node000004"><a xlink:title=" ">
<path fill="none" stroke="#63b8ff" d="M1464.21,-110.06C1433.68,-91.35 1363.42,-48.28 1326.19,-25.45"/>
<polygon fill="#63b8ff" stroke="#63b8ff" points="1328.27,-22.62 1317.91,-20.38 1324.61,-28.59 1328.27,-22.62"/>
</a>
</g>
</g>
<!-- Node26&#45;&gt;Node27 -->
<g id="edge53_Node000026_Node000027" class="edge">
<title>Node26&#45;&gt;Node27</title>
<g id="a_edge53_Node000026_Node000027"><a xlink:title=" ">
<path fill="none" stroke="#63b8ff" d="M1495.79,-110.09C1511.01,-101.91 1533.7,-89.71 1551.38,-80.19"/>
<polygon fill="#63b8ff" stroke="#63b8ff" points="1552.64,-83.49 1559.79,-75.67 1549.33,-77.32 1552.64,-83.49"/>
</a>
</g>
</g>
<!-- Node26&#45;&gt;Node28 -->
<g id="edge55_Node000026_Node000028" class="edge">
<title>Node26&#45;&gt;Node28</title>
<g id="a_edge55_Node000026_Node000028"><a xlink:title=" ">
<path fill="none" stroke="#63b8ff" d="M1507.68,-110.69C1537.86,-101.81 1585.61,-87.76 1619.6,-77.76"/>
<polygon fill="#63b8ff" stroke="#63b8ff" points="1620.5,-81.15 1629.1,-74.97 1618.52,-74.43 1620.5,-81.15"/>
</a>
</g>
</g>
<!-- Node29 -->
<g id="Node000029" class="node">
<title>Node29</title>
<g id="a_Node000029"><a xlink:title=" ">
<polygon fill="#e0e0e0" stroke="#999999" points="1471,-74.5 1425,-74.5 1425,-55.25 1471,-55.25 1471,-74.5"/>
<text text-anchor="middle" x="1448" y="-61" font-family="Helvetica,sans-Serif" font-size="10.00">iterator</text>
</a>
</g>
</g>
<!-- Node26&#45;&gt;Node29 -->
<g id="edge56_Node000026_Node000029" class="edge">
<title>Node26&#45;&gt;Node29</title>
<g id="a_edge56_Node000026_Node000029"><a xlink:title=" ">
<path fill="none" stroke="#63b8ff" d="M1473.88,-110.33C1469.82,-103.36 1464.01,-93.37 1458.91,-84.62"/>
<polygon fill="#63b8ff" stroke="#63b8ff" points="1462.05,-83.05 1453.99,-76.17 1456,-86.57 1462.05,-83.05"/>
</a>
</g>
</g>
<!-- Node30 -->
<g id="Node000030" class="node">
<title>Node30</title>
<g id="a_Node000030"><a xlink:title=" ">
<polygon fill="#e0e0e0" stroke="#999999" points="1528.62,-74.5 1489.38,-74.5 1489.38,-55.25 1528.62,-55.25 1528.62,-74.5"/>
<text text-anchor="middle" x="1509" y="-61" font-family="Helvetica,sans-Serif" font-size="10.00">utility</text>
</a>
</g>
</g>
<!-- Node26&#45;&gt;Node30 -->
<g id="edge57_Node000026_Node000030" class="edge">
<title>Node26&#45;&gt;Node30</title>
<g id="a_edge57_Node000026_Node000030"><a xlink:title=" ">
<path fill="none" stroke="#63b8ff" d="M1483.95,-110.33C1487.88,-103.36 1493.51,-93.37 1498.44,-84.62"/>
<polygon fill="#63b8ff" stroke="#63b8ff" points="1501.34,-86.61 1503.2,-76.18 1495.24,-83.17 1501.34,-86.61"/>
</a>
</g>
</g>
</g>
</svg>
