<?xml version="1.0" encoding="UTF-8" standalone="no"?>
<!DOCTYPE svg PUBLIC "-//W3C//DTD SVG 1.1//EN"
 "http://www.w3.org/Graphics/SVG/1.1/DTD/svg11.dtd">
<!-- Generated by graphviz version 12.1.2 (20240928.0832)
 -->
<!-- Title: src/Ioss_GetLongOpt.h Pages: 1 -->
<!--zoomable 193 -->

<svg id="main" version="1.1" xmlns="http://www.w3.org/2000/svg" xmlns:xlink="http://www.w3.org/1999/xlink" xml:space="preserve" onload="init(evt)">

<style type="text/css"><![CDATA[
.node, .edge {opacity: 0.7;}
.node.selected, .edge.selected {opacity: 1;}
.edge:hover path { stroke: red; }
.edge:hover polygon { stroke: red; fill: red; }
]]></style>

<defs>
  <circle id="rim" cx="0" cy="0" r="7"/>
  <circle id="rim2" cx="0" cy="0" r="3.5"/>
  <g id="zoomPlus">
    <use xlink:href="#rim" fill="#404040"><set attributeName="fill" to="#808080" begin="zoomplus.mouseover" end="zoomplus.mouseout"/></use>
    <path d="M-4,0h8M0,-4v8" fill="none" stroke="white" stroke-width="1.5" pointer-events="none"/>
  </g>
  <g id="zoomMin">
    <use xlink:href="#rim" fill="#404040"><set attributeName="fill" to="#808080" begin="zoomminus.mouseover" end="zoomminus.mouseout"/></use>
    <path d="M-4,0h8" fill="none" stroke="white" stroke-width="1.5" pointer-events="none"/>
  </g>
  <g id="arrowUp" transform="translate(30 24)">
    <use xlink:href="#rim"/>
    <path pointer-events="none" fill="none" stroke="white" stroke-width="1.5" d="M0,-3.0v7 M-2.5,-0.5L0,-3.0L2.5,-0.5"/>
  </g>
  <g id="arrowRight" transform="rotate(90) translate(36 -43)">
    <use xlink:href="#rim"/>
    <path pointer-events="none" fill="none" stroke="white" stroke-width="1.5" d="M0,-3.0v7 M-2.5,-0.5L0,-3.0L2.5,-0.5"/>
  </g>
  <g id="arrowDown" transform="rotate(180) translate(-30 -48)">
    <use xlink:href="#rim"/>
    <path pointer-events="none" fill="none" stroke="white" stroke-width="1.5" d="M0,-3.0v7 M-2.5,-0.5L0,-3.0L2.5,-0.5"/>
  </g>
  <g id="arrowLeft" transform="rotate(270) translate(-36 17)">
    <use xlink:href="#rim"/>
    <path pointer-events="none" fill="none" stroke="white" stroke-width="1.5" d="M0,-3.0v7 M-2.5,-0.5L0,-3.0L2.5,-0.5"/>
  </g>
  <g id="resetDef">
    <use xlink:href="#rim2" fill="#404040"><set attributeName="fill" to="#808080" begin="reset.mouseover" end="reset.mouseout"/></use>
  </g>
</defs>
<script type="application/ecmascript">
var viewWidth = 1359;
var viewHeight = 193;
var sectionId = 'dynsection-1';
</script>
<script type="application/ecmascript" xlink:href="svg.min.js"/>
<svg id="graph" class="graph">
<g id="viewport">
<title>src/Ioss_GetLongOpt.h</title>
<!-- Node1 -->
<g id="Node000001" class="node">
<title>Node1</title>
<g id="a_Node000001"><a xlink:title=" ">
<polygon fill="#999999" stroke="#666666" points="670.38,-185 553.12,-185 553.12,-165.75 670.38,-165.75 670.38,-185"/>
<text text-anchor="middle" x="611.75" y="-171.5" font-family="Helvetica,sans-Serif" font-size="10.00">src/Ioss_GetLongOpt.h</text>
</a>
</g>
</g>
<!-- Node2 -->
<g id="Node000002" class="node">
<title>Node2</title>
<g id="a_Node000002"><a xlink:href="Ioss__GetLongOpt_8C.html" target="_top" xlink:title=" ">
<polygon fill="white" stroke="#666666" points="119.5,-129.75 0,-129.75 0,-110.5 119.5,-110.5 119.5,-129.75"/>
<text text-anchor="middle" x="59.75" y="-116.25" font-family="Helvetica,sans-Serif" font-size="10.00">src/Ioss_GetLongOpt.C</text>
</a>
</g>
</g>
<!-- Node1&#45;&gt;Node2 -->
<g id="edge1_Node000001_Node000002" class="edge">
<title>Node1&#45;&gt;Node2</title>
<g id="a_edge1_Node000001_Node000002"><a xlink:title=" ">
<path fill="none" stroke="#63b8ff" d="M541.6,-168.61C447.55,-160.71 275.42,-145.69 128.75,-129.75 125.87,-129.44 122.92,-129.11 119.95,-128.77"/>
<polygon fill="#63b8ff" stroke="#63b8ff" points="541.19,-172.08 551.44,-169.43 541.77,-165.11 541.19,-172.08"/>
</a>
</g>
</g>
<!-- Node3 -->
<g id="Node000003" class="node">
<title>Node3</title>
<g id="a_Node000003"><a xlink:href="cgns__decomp_8C.html" target="_top" xlink:title=" ">
<polygon fill="white" stroke="#666666" points="265.62,-129.75 137.88,-129.75 137.88,-110.5 265.62,-110.5 265.62,-129.75"/>
<text text-anchor="middle" x="201.75" y="-116.25" font-family="Helvetica,sans-Serif" font-size="10.00">src/main/cgns_decomp.C</text>
</a>
</g>
</g>
<!-- Node1&#45;&gt;Node3 -->
<g id="edge2_Node000001_Node000003" class="edge">
<title>Node1&#45;&gt;Node3</title>
<g id="a_edge2_Node000001_Node000003"><a xlink:title=" ">
<path fill="none" stroke="#63b8ff" d="M541.94,-165.31C464.54,-155.26 340.77,-139.18 265.78,-129.44"/>
<polygon fill="#63b8ff" stroke="#63b8ff" points="541.14,-168.73 551.51,-166.55 542.04,-161.79 541.14,-168.73"/>
</a>
</g>
</g>
<!-- Node4 -->
<g id="Node000004" class="node">
<title>Node4</title>
<g id="a_Node000004"><a xlink:href="info__interface_8C.html" target="_top" xlink:title=" ">
<polygon fill="white" stroke="#666666" points="205.5,-74.5 80,-74.5 80,-55.25 205.5,-55.25 205.5,-74.5"/>
<text text-anchor="middle" x="142.75" y="-61" font-family="Helvetica,sans-Serif" font-size="10.00">src/main/info_interface.C</text>
</a>
</g>
</g>
<!-- Node1&#45;&gt;Node4 -->
<g id="edge3_Node000001_Node000004" class="edge">
<title>Node1&#45;&gt;Node4</title>
<g id="a_edge3_Node000001_Node000004"><a xlink:title=" ">
<path fill="none" stroke="#63b8ff" d="M541.77,-170.29C480.24,-165.2 388.9,-154.02 312.75,-129.75 294.71,-124 292.21,-117.83 274.75,-110.5 240.85,-96.27 200.67,-83.2 173.62,-74.94"/>
<polygon fill="#63b8ff" stroke="#63b8ff" points="541.15,-173.75 551.39,-171.05 541.7,-166.77 541.15,-173.75"/>
</a>
</g>
</g>
<!-- Node5 -->
<g id="Node000005" class="node">
<title>Node5</title>
<g id="a_Node000005"><a xlink:href="info__interface_8h.html" target="_top" xlink:title=" ">
<polygon fill="white" stroke="#666666" points="445.38,-129.75 322.12,-129.75 322.12,-110.5 445.38,-110.5 445.38,-129.75"/>
<text text-anchor="middle" x="383.75" y="-116.25" font-family="Helvetica,sans-Serif" font-size="10.00">src/main/info_interface.h</text>
</a>
</g>
</g>
<!-- Node1&#45;&gt;Node5 -->
<g id="edge4_Node000001_Node000005" class="edge">
<title>Node1&#45;&gt;Node5</title>
<g id="a_edge4_Node000001_Node000005"><a xlink:title=" ">
<path fill="none" stroke="#63b8ff" d="M561.75,-162.7C519.86,-152.91 460.91,-139.15 422.52,-130.18"/>
<polygon fill="#63b8ff" stroke="#63b8ff" points="560.81,-166.07 571.34,-164.94 562.4,-159.25 560.81,-166.07"/>
</a>
</g>
</g>
<!-- Node9 -->
<g id="Node000009" class="node">
<title>Node9</title>
<g id="a_Node000009"><a xlink:href="io__shell_8C.html" target="_top" xlink:title=" ">
<polygon fill="white" stroke="#666666" points="794.75,-74.5 694.75,-74.5 694.75,-55.25 794.75,-55.25 794.75,-74.5"/>
<text text-anchor="middle" x="744.75" y="-61" font-family="Helvetica,sans-Serif" font-size="10.00">src/main/io_shell.C</text>
</a>
</g>
</g>
<!-- Node1&#45;&gt;Node9 -->
<g id="edge11_Node000001_Node000009" class="edge">
<title>Node1&#45;&gt;Node9</title>
<g id="a_edge11_Node000001_Node000009"><a xlink:title=" ">
<path fill="none" stroke="#63b8ff" d="M641.03,-160.31C656.06,-152.4 674.2,-141.71 688.75,-129.75 709.26,-112.89 728.61,-88.16 738.3,-74.96"/>
<polygon fill="#63b8ff" stroke="#63b8ff" points="639.87,-156.97 632.56,-164.64 643.06,-163.21 639.87,-156.97"/>
</a>
</g>
</g>
<!-- Node10 -->
<g id="Node000010" class="node">
<title>Node10</title>
<g id="a_Node000010"><a xlink:href="modify__interface_8C.html" target="_top" xlink:title=" ">
<polygon fill="white" stroke="#666666" points="551.25,-74.5 412.25,-74.5 412.25,-55.25 551.25,-55.25 551.25,-74.5"/>
<text text-anchor="middle" x="481.75" y="-61" font-family="Helvetica,sans-Serif" font-size="10.00">src/main/modify_interface.C</text>
</a>
</g>
</g>
<!-- Node1&#45;&gt;Node10 -->
<g id="edge12_Node000001_Node000010" class="edge">
<title>Node1&#45;&gt;Node10</title>
<g id="a_edge12_Node000001_Node000010"><a xlink:title=" ">
<path fill="none" stroke="#63b8ff" d="M581.6,-160.09C566.68,-152.25 548.9,-141.71 534.75,-129.75 514.94,-113.01 496.79,-88.23 487.75,-74.99"/>
<polygon fill="#63b8ff" stroke="#63b8ff" points="580,-163.2 590.5,-164.61 583.17,-156.96 580,-163.2"/>
</a>
</g>
</g>
<!-- Node11 -->
<g id="Node000011" class="node">
<title>Node11</title>
<g id="a_Node000011"><a xlink:href="modify__interface_8h.html" target="_top" xlink:title=" ">
<polygon fill="white" stroke="#666666" points="680.12,-129.75 543.38,-129.75 543.38,-110.5 680.12,-110.5 680.12,-129.75"/>
<text text-anchor="middle" x="611.75" y="-116.25" font-family="Helvetica,sans-Serif" font-size="10.00">src/main/modify_interface.h</text>
</a>
</g>
</g>
<!-- Node1&#45;&gt;Node11 -->
<g id="edge13_Node000001_Node000011" class="edge">
<title>Node1&#45;&gt;Node11</title>
<g id="a_edge13_Node000001_Node000011"><a xlink:title=" ">
<path fill="none" stroke="#63b8ff" d="M611.75,-154.13C611.75,-145.84 611.75,-136.67 611.75,-130.11"/>
<polygon fill="#63b8ff" stroke="#63b8ff" points="608.25,-154.07 611.75,-164.07 615.25,-154.07 608.25,-154.07"/>
</a>
</g>
</g>
<!-- Node13 -->
<g id="Node000013" class="node">
<title>Node13</title>
<g id="a_Node000013"><a xlink:href="shell__interface_8C.html" target="_top" xlink:title=" ">
<polygon fill="white" stroke="#666666" points="1074.75,-74.5 944.75,-74.5 944.75,-55.25 1074.75,-55.25 1074.75,-74.5"/>
<text text-anchor="middle" x="1009.75" y="-61" font-family="Helvetica,sans-Serif" font-size="10.00">src/main/shell_interface.C</text>
</a>
</g>
</g>
<!-- Node1&#45;&gt;Node13 -->
<g id="edge16_Node000001_Node000013" class="edge">
<title>Node1&#45;&gt;Node13</title>
<g id="a_edge16_Node000001_Node000013"><a xlink:title=" ">
<path fill="none" stroke="#63b8ff" d="M682.18,-174.56C747.87,-172.42 847.39,-163.15 926.75,-129.75 957.92,-116.63 987.61,-88.86 1001.52,-74.65"/>
<polygon fill="#63b8ff" stroke="#63b8ff" points="682.14,-171.06 672.24,-174.83 682.33,-178.06 682.14,-171.06"/>
</a>
</g>
</g>
<!-- Node14 -->
<g id="Node000014" class="node">
<title>Node14</title>
<g id="a_Node000014"><a xlink:href="shell__interface_8h.html" target="_top" xlink:title=" ">
<polygon fill="white" stroke="#666666" points="917.62,-129.75 789.88,-129.75 789.88,-110.5 917.62,-110.5 917.62,-129.75"/>
<text text-anchor="middle" x="853.75" y="-116.25" font-family="Helvetica,sans-Serif" font-size="10.00">src/main/shell_interface.h</text>
</a>
</g>
</g>
<!-- Node1&#45;&gt;Node14 -->
<g id="edge17_Node000001_Node000014" class="edge">
<title>Node1&#45;&gt;Node14</title>
<g id="a_edge17_Node000001_Node000014"><a xlink:title=" ">
<path fill="none" stroke="#63b8ff" d="M664.25,-162.82C708.75,-153.03 771.67,-139.19 812.59,-130.18"/>
<polygon fill="#63b8ff" stroke="#63b8ff" points="663.57,-159.39 654.55,-164.96 665.07,-166.23 663.57,-159.39"/>
</a>
</g>
</g>
<!-- Node16 -->
<g id="Node000016" class="node">
<title>Node16</title>
<g id="a_Node000016"><a xlink:href="skinner__interface_8C.html" target="_top" xlink:title=" ">
<polygon fill="white" stroke="#666666" points="1234.38,-74.5 1093.12,-74.5 1093.12,-55.25 1234.38,-55.25 1234.38,-74.5"/>
<text text-anchor="middle" x="1163.75" y="-61" font-family="Helvetica,sans-Serif" font-size="10.00">src/main/skinner_interface.C</text>
</a>
</g>
</g>
<!-- Node1&#45;&gt;Node16 -->
<g id="edge21_Node000001_Node000016" class="edge">
<title>Node1&#45;&gt;Node16</title>
<g id="a_edge21_Node000001_Node000016"><a xlink:title=" ">
<path fill="none" stroke="#63b8ff" d="M681.89,-168.84C752.03,-162.47 862.69,-150.19 956.75,-129.75 1024.01,-115.14 1100.88,-88.77 1139.26,-74.93"/>
<polygon fill="#63b8ff" stroke="#63b8ff" points="681.72,-165.34 672.07,-169.71 682.35,-172.31 681.72,-165.34"/>
</a>
</g>
</g>
<!-- Node17 -->
<g id="Node000017" class="node">
<title>Node17</title>
<g id="a_Node000017"><a xlink:href="skinner__interface_8h.html" target="_top" xlink:title=" ">
<polygon fill="white" stroke="#666666" points="1233.25,-129.75 1094.25,-129.75 1094.25,-110.5 1233.25,-110.5 1233.25,-129.75"/>
<text text-anchor="middle" x="1163.75" y="-116.25" font-family="Helvetica,sans-Serif" font-size="10.00">src/main/skinner_interface.h</text>
</a>
</g>
</g>
<!-- Node1&#45;&gt;Node17 -->
<g id="edge22_Node000001_Node000017" class="edge">
<title>Node1&#45;&gt;Node17</title>
<g id="a_edge22_Node000001_Node000017"><a xlink:title=" ">
<path fill="none" stroke="#63b8ff" d="M682.04,-167.59C788.14,-157.36 988.04,-138.08 1093.89,-127.86"/>
<polygon fill="#63b8ff" stroke="#63b8ff" points="681.95,-164.09 672.33,-168.53 682.62,-171.05 681.95,-164.09"/>
</a>
</g>
</g>
<!-- Node5&#45;&gt;Node4 -->
<g id="edge5_Node000005_Node000004" class="edge">
<title>Node5&#45;&gt;Node4</title>
<g id="a_edge5_Node000005_Node000004"><a xlink:title=" ">
<path fill="none" stroke="#63b8ff" d="M331.47,-107.57C287.15,-97.78 224.49,-83.94 183.74,-74.93"/>
<polygon fill="#63b8ff" stroke="#63b8ff" points="330.6,-110.96 341.12,-109.7 332.11,-104.13 330.6,-110.96"/>
</a>
</g>
</g>
<!-- Node6 -->
<g id="Node000006" class="node">
<title>Node6</title>
<g id="a_Node000006"><a xlink:href="io__info_8C.html" target="_top" xlink:title=" ">
<polygon fill="white" stroke="#666666" points="425.5,-19.25 330,-19.25 330,0 425.5,0 425.5,-19.25"/>
<text text-anchor="middle" x="377.75" y="-5.75" font-family="Helvetica,sans-Serif" font-size="10.00">src/main/io_info.C</text>
</a>
</g>
</g>
<!-- Node5&#45;&gt;Node6 -->
<g id="edge6_Node000005_Node000006" class="edge">
<title>Node5&#45;&gt;Node6</title>
<g id="a_edge6_Node000005_Node000006"><a xlink:title=" ">
<path fill="none" stroke="#63b8ff" d="M382.62,-98.78C381.31,-75.05 379.2,-36.89 378.25,-19.63"/>
<polygon fill="#63b8ff" stroke="#63b8ff" points="379.13,-98.94 383.18,-108.73 386.12,-98.56 379.13,-98.94"/>
</a>
</g>
</g>
<!-- Node7 -->
<g id="Node000007" class="node">
<title>Node7</title>
<g id="a_Node000007"><a xlink:href="io__info_8h.html" target="_top" xlink:title=" ">
<polygon fill="white" stroke="#666666" points="355.38,-74.5 262.12,-74.5 262.12,-55.25 355.38,-55.25 355.38,-74.5"/>
<text text-anchor="middle" x="308.75" y="-61" font-family="Helvetica,sans-Serif" font-size="10.00">src/main/io_info.h</text>
</a>
</g>
</g>
<!-- Node5&#45;&gt;Node7 -->
<g id="edge7_Node000005_Node000007" class="edge">
<title>Node5&#45;&gt;Node7</title>
<g id="a_edge7_Node000005_Node000007"><a xlink:title=" ">
<path fill="none" stroke="#63b8ff" d="M361.76,-103.51C348.68,-94.22 332.54,-82.77 321.54,-74.95"/>
<polygon fill="#63b8ff" stroke="#63b8ff" points="359.61,-106.28 369.79,-109.22 363.67,-100.57 359.61,-106.28"/>
</a>
</g>
</g>
<!-- Node8 -->
<g id="Node000008" class="node">
<title>Node8</title>
<g id="a_Node000008"><a xlink:href="io__info__main_8C.html" target="_top" xlink:title=" ">
<polygon fill="white" stroke="#666666" points="305.62,-19.25 183.88,-19.25 183.88,0 305.62,0 305.62,-19.25"/>
<text text-anchor="middle" x="244.75" y="-5.75" font-family="Helvetica,sans-Serif" font-size="10.00">src/main/io_info_main.C</text>
</a>
</g>
</g>
<!-- Node5&#45;&gt;Node8 -->
<g id="edge10_Node000005_Node000008" class="edge">
<title>Node5&#45;&gt;Node8</title>
<g id="a_edge10_Node000005_Node000008"><a xlink:title=" ">
<path fill="none" stroke="#63b8ff" d="M310.85,-109.45C289.1,-102.99 267.22,-92.27 252.75,-74.5 239.9,-58.73 241.28,-33.1 243.15,-19.6"/>
<polygon fill="#63b8ff" stroke="#63b8ff" points="309.8,-112.8 320.36,-111.99 311.6,-106.03 309.8,-112.8"/>
</a>
</g>
</g>
<!-- Node7&#45;&gt;Node6 -->
<g id="edge8_Node000007_Node000006" class="edge">
<title>Node7&#45;&gt;Node6</title>
<g id="a_edge8_Node000007_Node000006"><a xlink:title=" ">
<path fill="none" stroke="#63b8ff" d="M329.4,-47.94C341.45,-38.64 356.2,-27.26 366.22,-19.52"/>
<polygon fill="#63b8ff" stroke="#63b8ff" points="327.43,-45.04 321.65,-53.92 331.71,-50.58 327.43,-45.04"/>
</a>
</g>
</g>
<!-- Node7&#45;&gt;Node8 -->
<g id="edge9_Node000007_Node000008" class="edge">
<title>Node7&#45;&gt;Node8</title>
<g id="a_edge9_Node000007_Node000008"><a xlink:title=" ">
<path fill="none" stroke="#63b8ff" d="M289.27,-47.66C278.15,-38.42 264.65,-27.18 255.45,-19.52"/>
<polygon fill="#63b8ff" stroke="#63b8ff" points="286.8,-50.17 296.73,-53.87 291.28,-44.79 286.8,-50.17"/>
</a>
</g>
</g>
<!-- Node11&#45;&gt;Node10 -->
<g id="edge15_Node000011_Node000010" class="edge">
<title>Node11&#45;&gt;Node10</title>
<g id="a_edge15_Node000011_Node000010"><a xlink:title=" ">
<path fill="none" stroke="#63b8ff" d="M579.18,-105.78C555.68,-96.16 524.58,-83.42 503.91,-74.95"/>
<polygon fill="#63b8ff" stroke="#63b8ff" points="577.72,-108.97 588.3,-109.52 580.37,-102.49 577.72,-108.97"/>
</a>
</g>
</g>
<!-- Node12 -->
<g id="Node000012" class="node">
<title>Node12</title>
<g id="a_Node000012"><a xlink:href="io__modify_8C.html" target="_top" xlink:title=" ">
<polygon fill="white" stroke="#666666" points="676.5,-74.5 569,-74.5 569,-55.25 676.5,-55.25 676.5,-74.5"/>
<text text-anchor="middle" x="622.75" y="-61" font-family="Helvetica,sans-Serif" font-size="10.00">src/main/io_modify.C</text>
</a>
</g>
</g>
<!-- Node11&#45;&gt;Node12 -->
<g id="edge14_Node000011_Node000012" class="edge">
<title>Node11&#45;&gt;Node12</title>
<g id="a_edge14_Node000011_Node000012"><a xlink:title=" ">
<path fill="none" stroke="#63b8ff" d="M615.87,-99.17C617.6,-90.8 619.52,-81.5 620.89,-74.86"/>
<polygon fill="#63b8ff" stroke="#63b8ff" points="612.47,-98.35 613.87,-108.85 619.32,-99.76 612.47,-98.35"/>
</a>
</g>
</g>
<!-- Node14&#45;&gt;Node9 -->
<g id="edge18_Node000014_Node000009" class="edge">
<title>Node14&#45;&gt;Node9</title>
<g id="a_edge18_Node000014_Node000009"><a xlink:title=" ">
<path fill="none" stroke="#63b8ff" d="M825.09,-105.12C805.56,-95.58 780.27,-83.23 763.33,-74.95"/>
<polygon fill="#63b8ff" stroke="#63b8ff" points="823.38,-108.18 833.9,-109.43 826.45,-101.89 823.38,-108.18"/>
</a>
</g>
</g>
<!-- Node14&#45;&gt;Node13 -->
<g id="edge20_Node000014_Node000013" class="edge">
<title>Node14&#45;&gt;Node13</title>
<g id="a_edge20_Node000014_Node000013"><a xlink:title=" ">
<path fill="none" stroke="#63b8ff" d="M890.94,-106.43C919.34,-96.74 957.79,-83.61 983.16,-74.95"/>
<polygon fill="#63b8ff" stroke="#63b8ff" points="889.98,-103.06 881.65,-109.6 892.24,-109.68 889.98,-103.06"/>
</a>
</g>
</g>
<!-- Node15 -->
<g id="Node000015" class="node">
<title>Node15</title>
<g id="a_Node000015"><a xlink:href="io__shell__ts_8C.html" target="_top" xlink:title=" ">
<polygon fill="white" stroke="#666666" points="926.5,-74.5 813,-74.5 813,-55.25 926.5,-55.25 926.5,-74.5"/>
<text text-anchor="middle" x="869.75" y="-61" font-family="Helvetica,sans-Serif" font-size="10.00">src/main/io_shell_ts.C</text>
</a>
</g>
</g>
<!-- Node14&#45;&gt;Node15 -->
<g id="edge19_Node000014_Node000015" class="edge">
<title>Node14&#45;&gt;Node15</title>
<g id="a_edge19_Node000014_Node000015"><a xlink:title=" ">
<path fill="none" stroke="#63b8ff" d="M859.66,-99.46C862.19,-91.02 865.03,-81.58 867.05,-74.86"/>
<polygon fill="#63b8ff" stroke="#63b8ff" points="856.35,-98.3 856.83,-108.88 863.06,-100.31 856.35,-98.3"/>
</a>
</g>
</g>
<!-- Node17&#45;&gt;Node16 -->
<g id="edge24_Node000017_Node000016" class="edge">
<title>Node17&#45;&gt;Node16</title>
<g id="a_edge24_Node000017_Node000016"><a xlink:title=" ">
<path fill="none" stroke="#63b8ff" d="M1163.75,-98.88C1163.75,-90.59 1163.75,-81.42 1163.75,-74.86"/>
<polygon fill="#63b8ff" stroke="#63b8ff" points="1160.25,-98.82 1163.75,-108.82 1167.25,-98.82 1160.25,-98.82"/>
</a>
</g>
</g>
<!-- Node18 -->
<g id="Node000018" class="node">
<title>Node18</title>
<g id="a_Node000018"><a xlink:href="skinner_8C.html" target="_top" xlink:title=" ">
<polygon fill="white" stroke="#666666" points="1350.62,-74.5 1252.88,-74.5 1252.88,-55.25 1350.62,-55.25 1350.62,-74.5"/>
<text text-anchor="middle" x="1301.75" y="-61" font-family="Helvetica,sans-Serif" font-size="10.00">src/main/skinner.C</text>
</a>
</g>
</g>
<!-- Node17&#45;&gt;Node18 -->
<g id="edge23_Node000017_Node000018" class="edge">
<title>Node17&#45;&gt;Node18</title>
<g id="a_edge23_Node000017_Node000018"><a xlink:title=" ">
<path fill="none" stroke="#63b8ff" d="M1197.65,-106.04C1222.67,-96.39 1256.08,-83.5 1278.23,-74.95"/>
<polygon fill="#63b8ff" stroke="#63b8ff" points="1196.64,-102.68 1188.57,-109.55 1199.16,-109.21 1196.64,-102.68"/>
</a>
</g>
</g>
</g>
</svg>

<g id="navigator" transform="translate(0 0)" fill="#404254">
  <rect fill="#f2f5e9" fill-opacity="0.5" stroke="#606060" stroke-width=".5" x="0" y="0" width="60" height="60"/>
  <use id="zoomplus" xlink:href="#zoomPlus" x="17" y="9" onmousedown="handleZoom(evt,'in')"/>
  <use id="zoomminus" xlink:href="#zoomMin" x="42" y="9" onmousedown="handleZoom(evt,'out')"/>
  <use id="reset" xlink:href="#resetDef" x="30" y="36" onmousedown="handleReset()"/>
   <use id="arrowup" xlink:href="#arrowUp" x="0" y="0" onmousedown="handlePan(0,-1)"/>
  <use id="arrowright" xlink:href="#arrowRight" x="0" y="0" onmousedown="handlePan(1,0)"/>
  <use id="arrowdown" xlink:href="#arrowDown" x="0" y="0" onmousedown="handlePan(0,1)"/>
  <use id="arrowleft" xlink:href="#arrowLeft" x="0" y="0" onmousedown="handlePan(-1,0)"/>
</g>
<svg viewBox="0 0 15 15" width="100%" height="30px" preserveAspectRatio="xMaxYMin meet">
 <g id="arrow_out" transform="scale(0.3 0.3)">
  <a xlink:href="Ioss__GetLongOpt_8h__dep__incl_org.svg" target="_base">
   <rect id="button" ry="5" rx="5" y="6" x="6" height="38" width="38"
        fill="#f2f5e9" fill-opacity="0.5" stroke="#606060" stroke-width="1.0"/>
   <path id="arrow"
     d="M 11.500037,31.436501 C 11.940474,20.09759 22.043105,11.32322 32.158766,21.979434 L 37.068811,17.246167 C 37.068811,17.246167 37.088388,32 37.088388,32 L 22.160133,31.978069 C 22.160133,31.978069 26.997745,27.140456 26.997745,27.140456 C 18.528582,18.264221 13.291696,25.230495 11.500037,31.436501 z"
     style="fill:#404040;"/>
  </a>
 </g>
</svg>

<style type='text/css'>
<![CDATA[
[data-mouse-over-selected='false'] { opacity: 0.7; }
[data-mouse-over-selected='true']  { opacity: 1.0; }
]]>
</style>
<script type="application/ecmascript"><![CDATA[
document.addEventListener('DOMContentLoaded', (event) => {
  highlightEdges();
  highlightAdjacentNodes();
});
]]></script>
</svg>
