<?xml version="1.0" encoding="UTF-8" standalone="no"?>
<!DOCTYPE svg PUBLIC "-//W3C//DTD SVG 1.1//EN"
 "http://www.w3.org/Graphics/SVG/1.1/DTD/svg11.dtd">
<!-- Generated by graphviz version 8.0.5 (20230430.1635)
 -->
<!-- Title: src/Ioss_Compare.h Pages: 1 -->
<!--zoomable 149 -->

<svg id="main" version="1.1" xmlns="http://www.w3.org/2000/svg" xmlns:xlink="http://www.w3.org/1999/xlink" xml:space="preserve" onload="init(evt)">
<style type="text/css"><![CDATA[
.node, .edge {opacity: 0.7;}
.node.selected, .edge.selected {opacity: 1;}
.edge:hover path { stroke: red; }
.edge:hover polygon { stroke: red; fill: red; }
]]></style>

<defs>
  <circle id="rim" cx="0" cy="0" r="7"/>
  <circle id="rim2" cx="0" cy="0" r="3.5"/>
  <g id="zoomPlus">
    <use xlink:href="#rim" fill="#404040"><set attributeName="fill" to="#808080" begin="zoomplus.mouseover" end="zoomplus.mouseout"/></use>
    <path d="M-4,0h8M0,-4v8" fill="none" stroke="white" stroke-width="1.5" pointer-events="none"/>
  </g>
  <g id="zoomMin">
    <use xlink:href="#rim" fill="#404040"><set attributeName="fill" to="#808080" begin="zoomminus.mouseover" end="zoomminus.mouseout"/></use>
    <path d="M-4,0h8" fill="none" stroke="white" stroke-width="1.5" pointer-events="none"/>
  </g>
  <g id="arrowUp" transform="translate(30 24)">
    <use xlink:href="#rim"/>
    <path pointer-events="none" fill="none" stroke="white" stroke-width="1.5" d="M0,-3.0v7 M-2.5,-0.5L0,-3.0L2.5,-0.5"/>
  </g>
  <g id="arrowRight" transform="rotate(90) translate(36 -43)">
    <use xlink:href="#rim"/>
    <path pointer-events="none" fill="none" stroke="white" stroke-width="1.5" d="M0,-3.0v7 M-2.5,-0.5L0,-3.0L2.5,-0.5"/>
  </g>
  <g id="arrowDown" transform="rotate(180) translate(-30 -48)">
    <use xlink:href="#rim"/>
    <path pointer-events="none" fill="none" stroke="white" stroke-width="1.5" d="M0,-3.0v7 M-2.5,-0.5L0,-3.0L2.5,-0.5"/>
  </g>
  <g id="arrowLeft" transform="rotate(270) translate(-36 17)">
    <use xlink:href="#rim"/>
    <path pointer-events="none" fill="none" stroke="white" stroke-width="1.5" d="M0,-3.0v7 M-2.5,-0.5L0,-3.0L2.5,-0.5"/>
  </g>
  <g id="resetDef">
    <use xlink:href="#rim2" fill="#404040"><set attributeName="fill" to="#808080" begin="reset.mouseover" end="reset.mouseout"/></use>
  </g>
</defs>
<script type="application/ecmascript">
var viewWidth = 1663;
var viewHeight = 149;
var sectionId = 'dynsection-1';
</script>
<script type="application/ecmascript" xlink:href="svg.min.js"/>
<svg id="graph" class="graph">
<g id="viewport">
<title>src/Ioss_Compare.h</title>
<!-- Node1 -->
<g id="Node000001" class="node">
<title>Node1</title>
<g id="a_Node000001"><a xlink:title=" ">
<polygon fill="#999999" stroke="#666666" points="931.62,-141 827.12,-141 827.12,-121.75 931.62,-121.75 931.62,-141"/>
<text text-anchor="middle" x="879.38" y="-127.5" font-family="Helvetica,sans-Serif" font-size="10.00">src/Ioss_Compare.h</text>
</a>
</g>
</g>
<!-- Node2 -->
<g id="Node000002" class="node">
<title>Node2</title>
<g id="a_Node000002"><a xlink:href="Ioss__SubSystem_8h.html" target="_top" xlink:title=" ">
<polygon fill="white" stroke="#666666" points="894.25,-85.75 778.5,-85.75 778.5,-66.5 894.25,-66.5 894.25,-85.75"/>
<text text-anchor="middle" x="836.38" y="-72.25" font-family="Helvetica,sans-Serif" font-size="10.00">src/Ioss_SubSystem.h</text>
</a>
</g>
</g>
<!-- Node1&#45;&gt;Node2 -->
<g id="edge1_Node000001_Node000002" class="edge">
<title>Node1&#45;&gt;Node2</title>
<g id="a_edge1_Node000001_Node000002"><a xlink:title=" ">
<path fill="none" stroke="#63b8ff" d="M865.58,-113.29C858.28,-104.25 849.62,-93.52 843.63,-86.11"/>
<polygon fill="#63b8ff" stroke="#63b8ff" points="863.27,-115 872.27,-120.58 868.71,-110.6 863.27,-115"/>
</a>
</g>
</g>
<!-- Node9 -->
<g id="Node000009" class="node">
<title>Node9</title>
<g id="a_Node000009"><a xlink:href="io__shell_8C.html" target="_top" xlink:title=" ">
<polygon fill="white" stroke="#666666" points="1655.38,-24.88 1555.38,-24.88 1555.38,-5.63 1655.38,-5.63 1655.38,-24.88"/>
<text text-anchor="middle" x="1605.38" y="-11.38" font-family="Helvetica,sans-Serif" font-size="10.00">src/main/io_shell.C</text>
</a>
</g>
</g>
<!-- Node1&#45;&gt;Node9 -->
<g id="edge14_Node000001_Node000009" class="edge">
<title>Node1&#45;&gt;Node9</title>
<g id="a_edge14_Node000001_Node000009"><a xlink:title=" ">
<path fill="none" stroke="#63b8ff" d="M942.66,-122.79C1061.52,-108.13 1326,-73.52 1546.38,-30.5 1554.03,-29.01 1562.19,-27.18 1569.92,-25.35"/>
<polygon fill="#63b8ff" stroke="#63b8ff" points="942.46,-119.41 932.96,-124.11 943.31,-126.36 942.46,-119.41"/>
</a>
</g>
</g>
<!-- Node3 -->
<g id="Node000003" class="node">
<title>Node3</title>
<g id="a_Node000003"><a xlink:href="Ioss__Compare_8C.html" target="_top" xlink:title=" ">
<polygon fill="white" stroke="#666666" points="106.75,-24.88 0,-24.88 0,-5.63 106.75,-5.63 106.75,-24.88"/>
<text text-anchor="middle" x="53.38" y="-11.38" font-family="Helvetica,sans-Serif" font-size="10.00">src/Ioss_Compare.C</text>
</a>
</g>
</g>
<!-- Node2&#45;&gt;Node3 -->
<g id="edge2_Node000002_Node000003" class="edge">
<title>Node2&#45;&gt;Node3</title>
<g id="a_edge2_Node000002_Node000003"><a xlink:title=" ">
<path fill="none" stroke="#63b8ff" d="M767.34,-74.52C638.67,-72.59 353.69,-64.47 116.38,-30.5 107.38,-29.21 97.77,-27.31 88.84,-25.32"/>
<polygon fill="#63b8ff" stroke="#63b8ff" points="767.14,-78.04 777.19,-74.68 767.24,-71.04 767.14,-78.04"/>
</a>
</g>
</g>
<!-- Node4 -->
<g id="Node000004" class="node">
<title>Node4</title>
<g id="a_Node000004"><a xlink:href="Ioss__CopyDatabase_8C.html" target="_top" xlink:title=" ">
<polygon fill="white" stroke="#666666" points="257.5,-24.88 125.25,-24.88 125.25,-5.63 257.5,-5.63 257.5,-24.88"/>
<text text-anchor="middle" x="191.38" y="-11.38" font-family="Helvetica,sans-Serif" font-size="10.00">src/Ioss_CopyDatabase.C</text>
</a>
</g>
</g>
<!-- Node2&#45;&gt;Node4 -->
<g id="edge3_Node000002_Node000004" class="edge">
<title>Node2&#45;&gt;Node4</title>
<g id="a_edge3_Node000002_Node000004"><a xlink:title=" ">
<path fill="none" stroke="#63b8ff" d="M767.62,-72.18C660.25,-67.03 446.39,-54.57 266.38,-30.5 256.13,-29.13 245.16,-27.27 234.87,-25.35"/>
<polygon fill="#63b8ff" stroke="#63b8ff" points="767.15,-75.71 777.3,-72.68 767.48,-68.72 767.15,-75.71"/>
</a>
</g>
</g>
<!-- Node5 -->
<g id="Node000005" class="node">
<title>Node5</title>
<g id="a_Node000005"><a xlink:href="Ioss__Utils_8C.html" target="_top" xlink:title=" ">
<polygon fill="white" stroke="#666666" points="363,-24.88 275.75,-24.88 275.75,-5.63 363,-5.63 363,-24.88"/>
<text text-anchor="middle" x="319.38" y="-11.38" font-family="Helvetica,sans-Serif" font-size="10.00">src/Ioss_Utils.C</text>
</a>
</g>
</g>
<!-- Node2&#45;&gt;Node5 -->
<g id="edge4_Node000002_Node000005" class="edge">
<title>Node2&#45;&gt;Node5</title>
<g id="a_edge4_Node000002_Node000005"><a xlink:title=" ">
<path fill="none" stroke="#63b8ff" d="M767.35,-72.09C676.27,-67.26 511.26,-55.67 372.38,-30.5 364.97,-29.16 357.09,-27.29 349.73,-25.34"/>
<polygon fill="#63b8ff" stroke="#63b8ff" points="766.91,-75.62 777.08,-72.64 767.27,-68.63 766.91,-75.62"/>
</a>
</g>
</g>
<!-- Node6 -->
<g id="Node000006" class="node">
<title>Node6</title>
<g id="a_Node000006"><a xlink:href="Ut__ioad_8C.html" target="_top" xlink:title=" ">
<polygon fill="white" stroke="#666666" points="475.38,-30.5 381.38,-30.5 381.38,0 475.38,0 475.38,-30.5"/>
<text text-anchor="start" x="389.38" y="-17" font-family="Helvetica,sans-Serif" font-size="10.00">src/adios/utest/Ut</text>
<text text-anchor="middle" x="428.38" y="-5.75" font-family="Helvetica,sans-Serif" font-size="10.00">_ioad.C</text>
</a>
</g>
</g>
<!-- Node2&#45;&gt;Node6 -->
<g id="edge5_Node000002_Node000006" class="edge">
<title>Node2&#45;&gt;Node6</title>
<g id="a_edge5_Node000002_Node000006"><a xlink:title=" ">
<path fill="none" stroke="#63b8ff" d="M767.48,-68.92C696.23,-61.92 581.95,-49.03 484.38,-30.5 481.52,-29.96 478.59,-29.35 475.64,-28.71"/>
<polygon fill="#63b8ff" stroke="#63b8ff" points="766.81,-72.47 777.1,-69.95 767.49,-65.5 766.81,-72.47"/>
</a>
</g>
</g>
<!-- Node7 -->
<g id="Node000007" class="node">
<title>Node7</title>
<g id="a_Node000007"><a xlink:href="Iocgns__DatabaseIO_8C.html" target="_top" xlink:title=" ">
<polygon fill="white" stroke="#666666" points="647.38,-24.88 493.38,-24.88 493.38,-5.63 647.38,-5.63 647.38,-24.88"/>
<text text-anchor="middle" x="570.38" y="-11.38" font-family="Helvetica,sans-Serif" font-size="10.00">src/cgns/Iocgns_DatabaseIO.C</text>
</a>
</g>
</g>
<!-- Node2&#45;&gt;Node7 -->
<g id="edge6_Node000002_Node000007" class="edge">
<title>Node2&#45;&gt;Node7</title>
<g id="a_edge6_Node000002_Node000007"><a xlink:title=" ">
<path fill="none" stroke="#63b8ff" d="M784.69,-63.69C734.08,-52.48 657.99,-35.64 611.4,-25.33"/>
<polygon fill="#63b8ff" stroke="#63b8ff" points="783.88,-67.31 794.4,-66.05 785.39,-60.48 783.88,-67.31"/>
</a>
</g>
</g>
<!-- Node8 -->
<g id="Node000008" class="node">
<title>Node8</title>
<g id="a_Node000008"><a xlink:href="Iofaodel__DatabaseIO_8C.html" target="_top" xlink:title=" ">
<polygon fill="white" stroke="#666666" points="761.5,-30.5 665.25,-30.5 665.25,0 761.5,0 761.5,-30.5"/>
<text text-anchor="start" x="673.25" y="-17" font-family="Helvetica,sans-Serif" font-size="10.00">src/faodel/Iofaodel</text>
<text text-anchor="middle" x="713.38" y="-5.75" font-family="Helvetica,sans-Serif" font-size="10.00">_DatabaseIO.C</text>
</a>
</g>
</g>
<!-- Node2&#45;&gt;Node8 -->
<g id="edge7_Node000002_Node000008" class="edge">
<title>Node2&#45;&gt;Node8</title>
<g id="a_edge7_Node000002_Node000008"><a xlink:title=" ">
<path fill="none" stroke="#63b8ff" d="M807.51,-61.31C788.45,-52.19 763.5,-40.24 744.07,-30.94"/>
<polygon fill="#63b8ff" stroke="#63b8ff" points="805.89,-64.89 816.43,-66.05 808.92,-58.58 805.89,-64.89"/>
</a>
</g>
</g>
<!-- Node2&#45;&gt;Node9 -->
<g id="edge8_Node000002_Node000009" class="edge">
<title>Node2&#45;&gt;Node9</title>
<g id="a_edge8_Node000002_Node000009"><a xlink:title=" ">
<path fill="none" stroke="#63b8ff" d="M905.47,-74.77C1032.89,-73.22 1313.2,-65.71 1546.38,-30.5 1554.81,-29.23 1563.82,-27.33 1572.19,-25.34"/>
<polygon fill="#63b8ff" stroke="#63b8ff" points="905.68,-71.27 895.72,-74.89 905.76,-78.27 905.68,-71.27"/>
</a>
</g>
</g>
<!-- Node10 -->
<g id="Node000010" class="node">
<title>Node10</title>
<g id="a_Node000010"><a xlink:href="io__shell__ts_8C.html" target="_top" xlink:title=" ">
<polygon fill="white" stroke="#666666" points="893.12,-24.88 779.62,-24.88 779.62,-5.63 893.12,-5.63 893.12,-24.88"/>
<text text-anchor="middle" x="836.38" y="-11.38" font-family="Helvetica,sans-Serif" font-size="10.00">src/main/io_shell_ts.C</text>
</a>
</g>
</g>
<!-- Node2&#45;&gt;Node10 -->
<g id="edge9_Node000002_Node000010" class="edge">
<title>Node2&#45;&gt;Node10</title>
<g id="a_edge9_Node000002_Node000010"><a xlink:title=" ">
<path fill="none" stroke="#63b8ff" d="M836.38,-55.37C836.38,-45.18 836.38,-33.26 836.38,-25.28"/>
<polygon fill="#63b8ff" stroke="#63b8ff" points="832.88,-55.18 836.38,-65.18 839.88,-55.18 832.88,-55.18"/>
</a>
</g>
</g>
<!-- Node11 -->
<g id="Node000011" class="node">
<title>Node11</title>
<g id="a_Node000011"><a xlink:href="struc__to__unstruc_8C.html" target="_top" xlink:title=" ">
<polygon fill="white" stroke="#666666" points="1051.25,-24.88 911.5,-24.88 911.5,-5.63 1051.25,-5.63 1051.25,-24.88"/>
<text text-anchor="middle" x="981.38" y="-11.38" font-family="Helvetica,sans-Serif" font-size="10.00">src/main/struc_to_unstruc.C</text>
</a>
</g>
</g>
<!-- Node2&#45;&gt;Node11 -->
<g id="edge10_Node000002_Node000011" class="edge">
<title>Node2&#45;&gt;Node11</title>
<g id="a_edge10_Node000002_Node000011"><a xlink:title=" ">
<path fill="none" stroke="#63b8ff" d="M868.66,-62.01C896.22,-50.83 935.1,-35.04 959.25,-25.23"/>
<polygon fill="#63b8ff" stroke="#63b8ff" points="867.66,-59.05 859.71,-66.05 870.3,-65.54 867.66,-59.05"/>
</a>
</g>
</g>
<!-- Node12 -->
<g id="Node000012" class="node">
<title>Node12</title>
<g id="a_Node000012"><a xlink:href="Iopg__DatabaseIO_8C.html" target="_top" xlink:title=" ">
<polygon fill="white" stroke="#666666" points="1225.88,-24.88 1068.88,-24.88 1068.88,-5.63 1225.88,-5.63 1225.88,-24.88"/>
<text text-anchor="middle" x="1147.38" y="-11.38" font-family="Helvetica,sans-Serif" font-size="10.00">src/pamgen/Iopg_DatabaseIO.C</text>
</a>
</g>
</g>
<!-- Node2&#45;&gt;Node12 -->
<g id="edge11_Node000002_Node000012" class="edge">
<title>Node2&#45;&gt;Node12</title>
<g id="a_edge11_Node000002_Node000012"><a xlink:title=" ">
<path fill="none" stroke="#63b8ff" d="M894.95,-64.04C954.1,-52.84 1044.37,-35.75 1099.41,-25.33"/>
<polygon fill="#63b8ff" stroke="#63b8ff" points="894.46,-60.76 885.29,-66.05 895.76,-67.63 894.46,-60.76"/>
</a>
</g>
</g>
<!-- Node13 -->
<g id="Node000013" class="node">
<title>Node13</title>
<g id="a_Node000013"><a xlink:href="Utst__heartbeat_8C.html" target="_top" xlink:title=" ">
<polygon fill="white" stroke="#666666" points="1376.5,-24.88 1244.25,-24.88 1244.25,-5.63 1376.5,-5.63 1376.5,-24.88"/>
<text text-anchor="middle" x="1310.38" y="-11.38" font-family="Helvetica,sans-Serif" font-size="10.00">src/utest/Utst_heartbeat.C</text>
</a>
</g>
</g>
<!-- Node2&#45;&gt;Node13 -->
<g id="edge12_Node000002_Node000013" class="edge">
<title>Node2&#45;&gt;Node13</title>
<g id="a_edge12_Node000002_Node000013"><a xlink:title=" ">
<path fill="none" stroke="#63b8ff" d="M905.58,-69C985.32,-61.57 1120.18,-47.86 1235.38,-30.5 1245.2,-29.02 1255.71,-27.18 1265.66,-25.33"/>
<polygon fill="#63b8ff" stroke="#63b8ff" points="905.34,-65.6 895.71,-70.01 905.99,-72.57 905.34,-65.6"/>
</a>
</g>
</g>
<!-- Node14 -->
<g id="Node000014" class="node">
<title>Node14</title>
<g id="a_Node000014"><a xlink:href="Iovs__exodus__DatabaseIO_8C.html" target="_top" xlink:title=" ">
<polygon fill="white" stroke="#666666" points="1537.75,-30.5 1395,-30.5 1395,0 1537.75,0 1537.75,-30.5"/>
<text text-anchor="start" x="1403" y="-17" font-family="Helvetica,sans-Serif" font-size="10.00">src/visualization/exodus</text>
<text text-anchor="middle" x="1466.38" y="-5.75" font-family="Helvetica,sans-Serif" font-size="10.00">/Iovs_exodus_DatabaseIO.C</text>
</a>
</g>
</g>
<!-- Node2&#45;&gt;Node14 -->
<g id="edge13_Node000002_Node000014" class="edge">
<title>Node2&#45;&gt;Node14</title>
<g id="a_edge13_Node000002_Node000014"><a xlink:title=" ">
<path fill="none" stroke="#63b8ff" d="M905.35,-71.58C1009.59,-65.76 1213.38,-52.57 1385.38,-30.5 1388.49,-30.1 1391.67,-29.66 1394.88,-29.2"/>
<polygon fill="#63b8ff" stroke="#63b8ff" points="905.45,-68.13 895.66,-72.17 905.84,-75.12 905.45,-68.13"/>
</a>
</g>
</g>
</g>
</svg>

<g id="navigator" transform="translate(0 0)" fill="#404254">
  <rect fill="#f2f5e9" fill-opacity="0.5" stroke="#606060" stroke-width=".5" x="0" y="0" width="60" height="60"/>
  <use id="zoomplus" xlink:href="#zoomPlus" x="17" y="9" onmousedown="handleZoom(evt,'in')"/>
  <use id="zoomminus" xlink:href="#zoomMin" x="42" y="9" onmousedown="handleZoom(evt,'out')"/>
  <use id="reset" xlink:href="#resetDef" x="30" y="36" onmousedown="handleReset()"/>
   <use id="arrowup" xlink:href="#arrowUp" x="0" y="0" onmousedown="handlePan(0,-1)"/>
  <use id="arrowright" xlink:href="#arrowRight" x="0" y="0" onmousedown="handlePan(1,0)"/>
  <use id="arrowdown" xlink:href="#arrowDown" x="0" y="0" onmousedown="handlePan(0,1)"/>
  <use id="arrowleft" xlink:href="#arrowLeft" x="0" y="0" onmousedown="handlePan(-1,0)"/>
</g>
<svg viewBox="0 0 15 15" width="100%" height="30px" preserveAspectRatio="xMaxYMin meet">
 <g id="arrow_out" transform="scale(0.3 0.3)">
  <a xlink:href="Ioss__Compare_8h__dep__incl_org.svg" target="_base">
   <rect id="button" ry="5" rx="5" y="6" x="6" height="38" width="38"
        fill="#f2f5e9" fill-opacity="0.5" stroke="#606060" stroke-width="1.0"/>
   <path id="arrow"
     d="M 11.500037,31.436501 C 11.940474,20.09759 22.043105,11.32322 32.158766,21.979434 L 37.068811,17.246167 C 37.068811,17.246167 37.088388,32 37.088388,32 L 22.160133,31.978069 C 22.160133,31.978069 26.997745,27.140456 26.997745,27.140456 C 18.528582,18.264221 13.291696,25.230495 11.500037,31.436501 z"
     style="fill:#404040;"/>
  </a>
 </g>
</svg>

<style type='text/css'>
<![CDATA[
[data-mouse-over-selected='false'] { opacity: 0.7; }
[data-mouse-over-selected='true']  { opacity: 1.0; }
]]>
</style>
<script type="application/ecmascript"><![CDATA[
document.addEventListener('DOMContentLoaded', (event) => {
  highlightEdges();
  highlightAdjacentNodes();
});
]]></script>
</svg>
