<?xml version="1.0" encoding="UTF-8" standalone="no"?>
<!DOCTYPE svg PUBLIC "-//W3C//DTD SVG 1.1//EN"
 "http://www.w3.org/Graphics/SVG/1.1/DTD/svg11.dtd">
<!-- Generated by graphviz version 2.49.3 (20211023.0002)
 -->
<!-- Title: src/Ioss_ConcreteVariableType.h Pages: 1 -->
<svg width="703pt" height="106pt"
 viewBox="0.00 0.00 703.00 106.00" xmlns="http://www.w3.org/2000/svg" xmlns:xlink="http://www.w3.org/1999/xlink">
<g id="graph0" class="graph" transform="scale(1 1) rotate(0) translate(4 102)">
<title>src/Ioss_ConcreteVariableType.h</title>
<polygon fill="white" stroke="transparent" points="-4,4 -4,-102 699,-102 699,4 -4,4"/>
<!-- Node1 -->
<g id="node1" class="node">
<title>Node1</title>
<g id="a_node1"><a xlink:title=" ">
<polygon fill="#bfbfbf" stroke="black" points="278,-67.5 278,-97.5 411,-97.5 411,-67.5 278,-67.5"/>
<text text-anchor="start" x="286" y="-85.5" font-family="Helvetica,sans-Serif" font-size="10.00">src/Ioss_ConcreteVariable</text>
<text text-anchor="middle" x="344.5" y="-74.5" font-family="Helvetica,sans-Serif" font-size="10.00">Type.h</text>
</a>
</g>
</g>
<!-- Node2 -->
<g id="node2" class="node">
<title>Node2</title>
<g id="a_node2"><a xlink:href="Ioss__ConcreteVariableType_8C.html" target="_top" xlink:title=" ">
<polygon fill="white" stroke="black" points="0,-0.5 0,-30.5 133,-30.5 133,-0.5 0,-0.5"/>
<text text-anchor="start" x="8" y="-18.5" font-family="Helvetica,sans-Serif" font-size="10.00">src/Ioss_ConcreteVariable</text>
<text text-anchor="middle" x="66.5" y="-7.5" font-family="Helvetica,sans-Serif" font-size="10.00">Type.C</text>
</a>
</g>
</g>
<!-- Node1&#45;&gt;Node2 -->
<g id="edge1" class="edge">
<title>Node1&#45;&gt;Node2</title>
<path fill="none" stroke="midnightblue" d="M274.72,-65.19C229.2,-54.54 170.36,-40.78 126.85,-30.61"/>
<polygon fill="midnightblue" stroke="midnightblue" points="273.99,-68.61 284.52,-67.48 275.58,-61.79 273.99,-68.61"/>
</g>
<!-- Node3 -->
<g id="node3" class="node">
<title>Node3</title>
<g id="a_node3"><a xlink:href="Ionit__Initializer_8C.html" target="_top" xlink:title=" ">
<polygon fill="white" stroke="black" points="151.5,-6 151.5,-25 273.5,-25 273.5,-6 151.5,-6"/>
<text text-anchor="middle" x="212.5" y="-13" font-family="Helvetica,sans-Serif" font-size="10.00">src/init/Ionit_Initializer.C</text>
</a>
</g>
</g>
<!-- Node1&#45;&gt;Node3 -->
<g id="edge2" class="edge">
<title>Node1&#45;&gt;Node3</title>
<path fill="none" stroke="midnightblue" d="M306.86,-62.97C281.51,-50.48 249.25,-34.6 229.78,-25.01"/>
<polygon fill="midnightblue" stroke="midnightblue" points="305.34,-66.12 315.86,-67.4 308.43,-59.84 305.34,-66.12"/>
</g>
<!-- Node4 -->
<g id="node4" class="node">
<title>Node4</title>
<g id="a_node4"><a xlink:href="Utst__ioel_8C.html" target="_top" xlink:title=" ">
<polygon fill="white" stroke="black" points="291.5,-6 291.5,-25 397.5,-25 397.5,-6 291.5,-6"/>
<text text-anchor="middle" x="344.5" y="-13" font-family="Helvetica,sans-Serif" font-size="10.00">src/utest/Utst_ioel.C</text>
</a>
</g>
</g>
<!-- Node1&#45;&gt;Node4 -->
<g id="edge3" class="edge">
<title>Node1&#45;&gt;Node4</title>
<path fill="none" stroke="midnightblue" d="M344.5,-57.25C344.5,-46.02 344.5,-33.38 344.5,-25.19"/>
<polygon fill="midnightblue" stroke="midnightblue" points="341,-57.4 344.5,-67.4 348,-57.4 341,-57.4"/>
</g>
<!-- Node5 -->
<g id="node5" class="node">
<title>Node5</title>
<g id="a_node5"><a xlink:href="Utst__map_8C.html" target="_top" xlink:title=" ">
<polygon fill="white" stroke="black" points="415.5,-6 415.5,-25 525.5,-25 525.5,-6 415.5,-6"/>
<text text-anchor="middle" x="470.5" y="-13" font-family="Helvetica,sans-Serif" font-size="10.00">src/utest/Utst_map.C</text>
</a>
</g>
</g>
<!-- Node1&#45;&gt;Node5 -->
<g id="edge4" class="edge">
<title>Node1&#45;&gt;Node5</title>
<path fill="none" stroke="midnightblue" d="M380.74,-62.8C404.9,-50.34 435.5,-34.56 454.01,-25.01"/>
<polygon fill="midnightblue" stroke="midnightblue" points="379.12,-59.7 371.84,-67.4 382.33,-65.92 379.12,-59.7"/>
</g>
<!-- Node6 -->
<g id="node6" class="node">
<title>Node6</title>
<g id="a_node6"><a xlink:href="Utst__superelement_8C.html" target="_top" xlink:title=" ">
<polygon fill="white" stroke="black" points="544,-6 544,-25 695,-25 695,-6 544,-6"/>
<text text-anchor="middle" x="619.5" y="-13" font-family="Helvetica,sans-Serif" font-size="10.00">src/utest/Utst_superelement.C</text>
</a>
</g>
</g>
<!-- Node1&#45;&gt;Node6 -->
<g id="edge5" class="edge">
<title>Node1&#45;&gt;Node6</title>
<path fill="none" stroke="midnightblue" d="M413.68,-65.15C467.64,-52.39 540.42,-35.19 583.42,-25.03"/>
<polygon fill="midnightblue" stroke="midnightblue" points="412.76,-61.77 403.83,-67.48 414.37,-68.58 412.76,-61.77"/>
</g>
</g>
</svg>
