<?xml version="1.0" encoding="UTF-8" standalone="no"?>
<!DOCTYPE svg PUBLIC "-//W3C//DTD SVG 1.1//EN"
 "http://www.w3.org/Graphics/SVG/1.1/DTD/svg11.dtd">
<!-- Generated by graphviz version 3.0.0 (20220226.1711)
 -->
<!-- Title: src/Ioss_FieldManager.h Pages: 1 -->
<svg width="1450pt" height="308pt"
 viewBox="0.00 0.00 1449.50 308.00" xmlns="http://www.w3.org/2000/svg" xmlns:xlink="http://www.w3.org/1999/xlink">
<g id="graph0" class="graph" transform="scale(1 1) rotate(0) translate(4 304)">
<title>src/Ioss_FieldManager.h</title>
<polygon fill="white" stroke="transparent" points="-4,4 -4,-304 1445.5,-304 1445.5,4 -4,4"/>
<!-- Node1 -->
<g id="node1" class="node">
<title>Node1</title>
<g id="a_node1"><a xlink:title=" ">
<polygon fill="#bfbfbf" stroke="black" points="374.5,-280.5 374.5,-299.5 497.5,-299.5 497.5,-280.5 374.5,-280.5"/>
<text text-anchor="middle" x="436" y="-287.5" font-family="Helvetica,sans-Serif" font-size="10.00">src/Ioss_FieldManager.h</text>
</a>
</g>
</g>
<!-- Node2 -->
<g id="node2" class="node">
<title>Node2</title>
<g id="a_node2"><a xlink:href="Ioss__CodeTypes_8h.html" target="_top" xlink:title=" ">
<polygon fill="white" stroke="black" points="112,-56.5 112,-75.5 210,-75.5 210,-56.5 112,-56.5"/>
<text text-anchor="middle" x="161" y="-63.5" font-family="Helvetica,sans-Serif" font-size="10.00">Ioss_CodeTypes.h</text>
</a>
</g>
</g>
<!-- Node1&#45;&gt;Node2 -->
<g id="edge1" class="edge">
<title>Node1&#45;&gt;Node2</title>
<path fill="none" stroke="midnightblue" d="M391.67,-280.44C362.31,-273.5 323.69,-261.9 293,-244 229.98,-207.25 208.05,-195.98 173,-132 165.16,-117.69 162.33,-99.22 161.36,-85.63"/>
<polygon fill="midnightblue" stroke="midnightblue" points="164.85,-85.4 160.91,-75.56 157.86,-85.71 164.85,-85.4"/>
</g>
<!-- Node4 -->
<g id="node4" class="node">
<title>Node4</title>
<g id="a_node4"><a xlink:title=" ">
<polygon fill="white" stroke="#bfbfbf" points="1113.5,-0.5 1113.5,-19.5 1162.5,-19.5 1162.5,-0.5 1113.5,-0.5"/>
<text text-anchor="middle" x="1138" y="-7.5" font-family="Helvetica,sans-Serif" font-size="10.00">cstddef</text>
</a>
</g>
</g>
<!-- Node1&#45;&gt;Node4 -->
<g id="edge54" class="edge">
<title>Node1&#45;&gt;Node4</title>
<path fill="none" stroke="midnightblue" d="M497.8,-287.9C700.16,-283.49 1330,-263 1330,-179 1330,-179 1330,-179 1330,-121 1330,-90.9 1332.6,-76.96 1311,-56 1273.85,-19.94 1211.66,-11.77 1172.83,-10.45"/>
<polygon fill="midnightblue" stroke="midnightblue" points="1172.61,-6.95 1162.54,-10.24 1172.47,-13.94 1172.61,-6.95"/>
</g>
<!-- Node6 -->
<g id="node6" class="node">
<title>Node6</title>
<g id="a_node6"><a xlink:title=" ">
<polygon fill="white" stroke="#bfbfbf" points="293.5,-0.5 293.5,-19.5 334.5,-19.5 334.5,-0.5 293.5,-0.5"/>
<text text-anchor="middle" x="314" y="-7.5" font-family="Helvetica,sans-Serif" font-size="10.00">string</text>
</a>
</g>
</g>
<!-- Node1&#45;&gt;Node6 -->
<g id="edge56" class="edge">
<title>Node1&#45;&gt;Node6</title>
<path fill="none" stroke="midnightblue" d="M374.14,-288.97C282.31,-287.69 115.8,-280.26 70,-244 45.86,-224.88 46,-209.8 46,-179 46,-179 46,-179 46,-121 46,-90.2 46.44,-75.83 70,-56 78.16,-49.13 219.63,-25.97 283.34,-15.83"/>
<polygon fill="midnightblue" stroke="midnightblue" points="283.89,-19.29 293.22,-14.26 282.79,-12.37 283.89,-19.29"/>
</g>
<!-- Node7 -->
<g id="node7" class="node">
<title>Node7</title>
<g id="a_node7"><a xlink:title=" ">
<polygon fill="white" stroke="#bfbfbf" points="626,-0.5 626,-19.5 670,-19.5 670,-0.5 626,-0.5"/>
<text text-anchor="middle" x="648" y="-7.5" font-family="Helvetica,sans-Serif" font-size="10.00">vector</text>
</a>
</g>
</g>
<!-- Node1&#45;&gt;Node7 -->
<g id="edge58" class="edge">
<title>Node1&#45;&gt;Node7</title>
<path fill="none" stroke="midnightblue" d="M374.28,-282.53C273.33,-270.21 84,-239.1 84,-179 84,-179 84,-179 84,-121 84,-90.9 79.68,-75.03 103,-56 142.78,-23.54 504.4,-13.81 615.61,-11.57"/>
<polygon fill="midnightblue" stroke="midnightblue" points="615.94,-15.06 625.87,-11.37 615.8,-8.07 615.94,-15.06"/>
</g>
<!-- Node10 -->
<g id="node10" class="node">
<title>Node10</title>
<g id="a_node10"><a xlink:href="Ioss__Field_8h.html" target="_top" xlink:title=" ">
<polygon fill="white" stroke="black" points="226,-112.5 226,-131.5 296,-131.5 296,-112.5 226,-112.5"/>
<text text-anchor="middle" x="261" y="-119.5" font-family="Helvetica,sans-Serif" font-size="10.00">Ioss_Field.h</text>
</a>
</g>
</g>
<!-- Node1&#45;&gt;Node10 -->
<g id="edge9" class="edge">
<title>Node1&#45;&gt;Node10</title>
<path fill="none" stroke="midnightblue" d="M404.59,-280.41C364.46,-267.6 296.42,-239.31 265,-188 256.61,-174.29 256.3,-155.76 257.69,-141.99"/>
<polygon fill="midnightblue" stroke="midnightblue" points="261.2,-142.14 259.12,-131.75 254.27,-141.18 261.2,-142.14"/>
</g>
<!-- Node11 -->
<g id="node11" class="node">
<title>Node11</title>
<g id="a_node11"><a xlink:href="Ioss__Utils_8h.html" target="_top" xlink:title=" ">
<polygon fill="white" stroke="black" points="677.5,-224.5 677.5,-243.5 746.5,-243.5 746.5,-224.5 677.5,-224.5"/>
<text text-anchor="middle" x="712" y="-231.5" font-family="Helvetica,sans-Serif" font-size="10.00">Ioss_Utils.h</text>
</a>
</g>
</g>
<!-- Node1&#45;&gt;Node11 -->
<g id="edge14" class="edge">
<title>Node1&#45;&gt;Node11</title>
<path fill="none" stroke="midnightblue" d="M479.73,-280.44C531.03,-270.41 615.63,-253.86 667.33,-243.74"/>
<polygon fill="midnightblue" stroke="midnightblue" points="668.07,-247.16 677.21,-241.81 666.72,-240.29 668.07,-247.16"/>
</g>
<!-- Node23 -->
<g id="node23" class="node">
<title>Node23</title>
<g id="a_node23"><a xlink:title=" ">
<polygon fill="white" stroke="#bfbfbf" points="1242.5,-56.5 1242.5,-75.5 1301.5,-75.5 1301.5,-56.5 1242.5,-56.5"/>
<text text-anchor="middle" x="1272" y="-63.5" font-family="Helvetica,sans-Serif" font-size="10.00">functional</text>
</a>
</g>
</g>
<!-- Node1&#45;&gt;Node23 -->
<g id="edge55" class="edge">
<title>Node1&#45;&gt;Node23</title>
<path fill="none" stroke="midnightblue" d="M497.76,-285.65C650.89,-276.53 1043.93,-247.79 1159,-188 1206.02,-163.57 1243.92,-111.57 1261.45,-84.38"/>
<polygon fill="midnightblue" stroke="midnightblue" points="1264.62,-85.92 1266.97,-75.59 1258.69,-82.2 1264.62,-85.92"/>
</g>
<!-- Node31 -->
<g id="node31" class="node">
<title>Node31</title>
<g id="a_node31"><a xlink:title=" ">
<polygon fill="white" stroke="#bfbfbf" points="1358.5,-224.5 1358.5,-243.5 1441.5,-243.5 1441.5,-224.5 1358.5,-224.5"/>
<text text-anchor="middle" x="1400" y="-231.5" font-family="Helvetica,sans-Serif" font-size="10.00">unordered_map</text>
</a>
</g>
</g>
<!-- Node1&#45;&gt;Node31 -->
<g id="edge57" class="edge">
<title>Node1&#45;&gt;Node31</title>
<path fill="none" stroke="midnightblue" d="M497.56,-288.28C644.42,-286.05 1026.72,-277.26 1344,-244 1345.47,-243.85 1346.96,-243.68 1348.46,-243.5"/>
<polygon fill="midnightblue" stroke="midnightblue" points="1349.02,-246.96 1358.48,-242.19 1348.11,-240.02 1349.02,-246.96"/>
</g>
<!-- Node3 -->
<g id="node3" class="node">
<title>Node3</title>
<g id="a_node3"><a xlink:title=" ">
<polygon fill="white" stroke="#bfbfbf" points="206,-0.5 206,-19.5 244,-19.5 244,-0.5 206,-0.5"/>
<text text-anchor="middle" x="225" y="-7.5" font-family="Helvetica,sans-Serif" font-size="10.00">array</text>
</a>
</g>
</g>
<!-- Node2&#45;&gt;Node3 -->
<g id="edge2" class="edge">
<title>Node2&#45;&gt;Node3</title>
<path fill="none" stroke="midnightblue" d="M171.28,-56.32C180.84,-48.26 195.28,-36.08 206.78,-26.37"/>
<polygon fill="midnightblue" stroke="midnightblue" points="209.14,-28.96 214.53,-19.83 204.63,-23.61 209.14,-28.96"/>
</g>
<!-- Node2&#45;&gt;Node4 -->
<g id="edge3" class="edge">
<title>Node2&#45;&gt;Node4</title>
<path fill="none" stroke="midnightblue" d="M210.12,-62.29C382.26,-52.77 955.77,-21.07 1103.2,-12.92"/>
<polygon fill="midnightblue" stroke="midnightblue" points="1103.67,-16.4 1113.46,-12.36 1103.28,-9.41 1103.67,-16.4"/>
</g>
<!-- Node5 -->
<g id="node5" class="node">
<title>Node5</title>
<g id="a_node5"><a xlink:title=" ">
<polygon fill="white" stroke="#bfbfbf" points="771,-0.5 771,-19.5 817,-19.5 817,-0.5 771,-0.5"/>
<text text-anchor="middle" x="794" y="-7.5" font-family="Helvetica,sans-Serif" font-size="10.00">cstdint</text>
</a>
</g>
</g>
<!-- Node2&#45;&gt;Node5 -->
<g id="edge4" class="edge">
<title>Node2&#45;&gt;Node5</title>
<path fill="none" stroke="midnightblue" d="M210.14,-60.81C333.99,-50.24 656.44,-22.73 760.85,-13.83"/>
<polygon fill="midnightblue" stroke="midnightblue" points="761.16,-17.31 770.82,-12.98 760.56,-10.34 761.16,-17.31"/>
</g>
<!-- Node2&#45;&gt;Node6 -->
<g id="edge5" class="edge">
<title>Node2&#45;&gt;Node6</title>
<path fill="none" stroke="midnightblue" d="M185.24,-56.44C211.93,-47.03 254.86,-31.87 283.73,-21.68"/>
<polygon fill="midnightblue" stroke="midnightblue" points="285.04,-24.93 293.3,-18.3 282.71,-18.33 285.04,-24.93"/>
</g>
<!-- Node2&#45;&gt;Node7 -->
<g id="edge6" class="edge">
<title>Node2&#45;&gt;Node7</title>
<path fill="none" stroke="midnightblue" d="M210.38,-59.53C309.99,-48.48 532.6,-23.8 615.81,-14.57"/>
<polygon fill="midnightblue" stroke="midnightblue" points="616.37,-18.03 625.92,-13.45 615.6,-11.07 616.37,-18.03"/>
</g>
<!-- Node8 -->
<g id="node8" class="node">
<title>Node8</title>
<g id="a_node8"><a xlink:title=" ">
<polygon fill="white" stroke="#bfbfbf" points="0,-0.5 0,-19.5 116,-19.5 116,-0.5 0,-0.5"/>
<text text-anchor="middle" x="58" y="-7.5" font-family="Helvetica,sans-Serif" font-size="10.00">SEACASIoss_config.h</text>
</a>
</g>
</g>
<!-- Node2&#45;&gt;Node8 -->
<g id="edge7" class="edge">
<title>Node2&#45;&gt;Node8</title>
<path fill="none" stroke="midnightblue" d="M144.45,-56.32C128.01,-47.7 102.57,-34.36 83.53,-24.39"/>
<polygon fill="midnightblue" stroke="midnightblue" points="84.99,-21.2 74.51,-19.65 81.74,-27.4 84.99,-21.2"/>
</g>
<!-- Node9 -->
<g id="node9" class="node">
<title>Node9</title>
<g id="a_node9"><a xlink:title=" ">
<polygon fill="white" stroke="#bfbfbf" points="134.5,-0.5 134.5,-19.5 187.5,-19.5 187.5,-0.5 134.5,-0.5"/>
<text text-anchor="middle" x="161" y="-7.5" font-family="Helvetica,sans-Serif" font-size="10.00">complex</text>
</a>
</g>
</g>
<!-- Node2&#45;&gt;Node9 -->
<g id="edge8" class="edge">
<title>Node2&#45;&gt;Node9</title>
<path fill="none" stroke="midnightblue" d="M161,-56.08C161,-49.01 161,-38.86 161,-29.99"/>
<polygon fill="midnightblue" stroke="midnightblue" points="164.5,-29.75 161,-19.75 157.5,-29.75 164.5,-29.75"/>
</g>
<!-- Node10&#45;&gt;Node2 -->
<g id="edge10" class="edge">
<title>Node10&#45;&gt;Node2</title>
<path fill="none" stroke="midnightblue" d="M244.93,-112.32C229.04,-103.74 204.49,-90.49 186.04,-80.52"/>
<polygon fill="midnightblue" stroke="midnightblue" points="187.49,-77.33 177.03,-75.65 184.16,-83.49 187.49,-77.33"/>
</g>
<!-- Node10&#45;&gt;Node4 -->
<g id="edge11" class="edge">
<title>Node10&#45;&gt;Node4</title>
<path fill="none" stroke="midnightblue" d="M275.13,-112.49C303.84,-95.23 366.74,-57.59 372,-56 442.44,-34.66 962.09,-16.63 1102.9,-12.1"/>
<polygon fill="midnightblue" stroke="midnightblue" points="1103.23,-15.59 1113.12,-11.77 1103.01,-8.59 1103.23,-15.59"/>
</g>
<!-- Node10&#45;&gt;Node6 -->
<g id="edge12" class="edge">
<title>Node10&#45;&gt;Node6</title>
<path fill="none" stroke="midnightblue" d="M258.94,-112.08C256.41,-99.07 253.41,-74.41 262,-56 267.83,-43.49 279.01,-33.1 289.5,-25.47"/>
<polygon fill="midnightblue" stroke="midnightblue" points="291.7,-28.21 298.03,-19.72 287.78,-22.41 291.7,-28.21"/>
</g>
<!-- Node10&#45;&gt;Node7 -->
<g id="edge13" class="edge">
<title>Node10&#45;&gt;Node7</title>
<path fill="none" stroke="midnightblue" d="M268.47,-112.07C281.12,-97.61 308.32,-69.35 338,-56 387.2,-33.87 546.31,-19.02 615.44,-13.45"/>
<polygon fill="midnightblue" stroke="midnightblue" points="616.04,-16.91 625.73,-12.64 615.49,-9.94 616.04,-16.91"/>
</g>
<!-- Node11&#45;&gt;Node2 -->
<g id="edge15" class="edge">
<title>Node11&#45;&gt;Node2</title>
<path fill="none" stroke="midnightblue" d="M677.41,-231.9C586.06,-228.62 340.24,-217.26 265,-188 226.23,-172.92 215.98,-164.49 190,-132 178.92,-118.14 171.14,-99.38 166.45,-85.57"/>
<polygon fill="midnightblue" stroke="midnightblue" points="169.7,-84.23 163.35,-75.75 163.03,-86.34 169.7,-84.23"/>
</g>
<!-- Node11&#45;&gt;Node4 -->
<g id="edge47" class="edge">
<title>Node11&#45;&gt;Node4</title>
<path fill="none" stroke="midnightblue" d="M746.82,-231.86C843.86,-228.35 1112.02,-216.15 1139,-188 1180.23,-144.97 1158.42,-65.56 1145.42,-29.58"/>
<polygon fill="midnightblue" stroke="midnightblue" points="1148.56,-28 1141.75,-19.9 1142.02,-30.49 1148.56,-28"/>
</g>
<!-- Node11&#45;&gt;Node5 -->
<g id="edge48" class="edge">
<title>Node11&#45;&gt;Node5</title>
<path fill="none" stroke="midnightblue" d="M746.62,-231.76C840.46,-228.06 1094.31,-215.57 1119,-188 1160.96,-141.15 1118.63,-93.31 1068,-56 1030.22,-28.17 891.47,-16.64 827.15,-12.72"/>
<polygon fill="midnightblue" stroke="midnightblue" points="827.31,-9.22 817.13,-12.13 826.9,-16.21 827.31,-9.22"/>
</g>
<!-- Node11&#45;&gt;Node6 -->
<g id="edge52" class="edge">
<title>Node11&#45;&gt;Node6</title>
<path fill="none" stroke="midnightblue" d="M677.06,-232.02C614.88,-229.46 489.01,-220.31 462,-188 456.3,-181.18 456.67,-175.11 462,-168 496.15,-122.42 548.46,-175.7 585,-132 606.73,-106.01 612.95,-81.81 591,-56 559.68,-19.18 410.46,-12.4 344.95,-11.22"/>
<polygon fill="midnightblue" stroke="midnightblue" points="344.88,-7.72 334.82,-11.07 344.77,-14.72 344.88,-7.72"/>
</g>
<!-- Node11&#45;&gt;Node7 -->
<g id="edge53" class="edge">
<title>Node11&#45;&gt;Node7</title>
<path fill="none" stroke="midnightblue" d="M677.13,-226.87C654.94,-220.96 627.84,-209.59 614,-188 609.2,-180.52 610.02,-175.95 614,-168 625.93,-144.15 650.07,-155.85 662,-132 678.64,-98.72 665.79,-54.02 656.13,-29.33"/>
<polygon fill="midnightblue" stroke="midnightblue" points="659.23,-27.67 652.16,-19.78 652.77,-30.36 659.23,-27.67"/>
</g>
<!-- Node11&#45;&gt;Node10 -->
<g id="edge30" class="edge">
<title>Node11&#45;&gt;Node10</title>
<path fill="none" stroke="midnightblue" d="M677.37,-231.49C580.8,-227 313.6,-212.46 283,-188 269.21,-176.97 264.01,-156.93 262.08,-142"/>
<polygon fill="midnightblue" stroke="midnightblue" points="265.55,-141.46 261.15,-131.82 258.58,-142.09 265.55,-141.46"/>
</g>
<!-- Node12 -->
<g id="node12" class="node">
<title>Node12</title>
<g id="a_node12"><a xlink:href="Ioss__ElementTopology_8h.html" target="_top" xlink:title=" ">
<polygon fill="white" stroke="black" points="292,-168.5 292,-187.5 414,-187.5 414,-168.5 292,-168.5"/>
<text text-anchor="middle" x="353" y="-175.5" font-family="Helvetica,sans-Serif" font-size="10.00">Ioss_ElementTopology.h</text>
</a>
</g>
</g>
<!-- Node11&#45;&gt;Node12 -->
<g id="edge16" class="edge">
<title>Node11&#45;&gt;Node12</title>
<path fill="none" stroke="midnightblue" d="M677.25,-227.77C617.89,-218.84 495.98,-200.51 419.72,-189.04"/>
<polygon fill="midnightblue" stroke="midnightblue" points="420.15,-185.56 409.74,-187.53 419.11,-192.48 420.15,-185.56"/>
</g>
<!-- Node18 -->
<g id="node18" class="node">
<title>Node18</title>
<g id="a_node18"><a xlink:href="Ioss__EntityType_8h.html" target="_top" xlink:title=" ">
<polygon fill="white" stroke="black" points="470.5,-168.5 470.5,-187.5 565.5,-187.5 565.5,-168.5 470.5,-168.5"/>
<text text-anchor="middle" x="518" y="-175.5" font-family="Helvetica,sans-Serif" font-size="10.00">Ioss_EntityType.h</text>
</a>
</g>
</g>
<!-- Node11&#45;&gt;Node18 -->
<g id="edge29" class="edge">
<title>Node11&#45;&gt;Node18</title>
<path fill="none" stroke="midnightblue" d="M681.26,-224.44C648.06,-215.2 595.01,-200.44 558.44,-190.26"/>
<polygon fill="midnightblue" stroke="midnightblue" points="559.17,-186.83 548.6,-187.52 557.29,-193.57 559.17,-186.83"/>
</g>
<!-- Node19 -->
<g id="node19" class="node">
<title>Node19</title>
<g id="a_node19"><a xlink:href="Ioss__Property_8h.html" target="_top" xlink:title=" ">
<polygon fill="white" stroke="black" points="752,-56.5 752,-75.5 836,-75.5 836,-56.5 752,-56.5"/>
<text text-anchor="middle" x="794" y="-63.5" font-family="Helvetica,sans-Serif" font-size="10.00">Ioss_Property.h</text>
</a>
</g>
</g>
<!-- Node11&#45;&gt;Node19 -->
<g id="edge31" class="edge">
<title>Node11&#45;&gt;Node19</title>
<path fill="none" stroke="midnightblue" d="M746.73,-231.89C807.84,-229.11 930.63,-219.65 957,-188 998.45,-138.24 896.4,-97.57 835.51,-78.58"/>
<polygon fill="midnightblue" stroke="midnightblue" points="836.34,-75.17 825.75,-75.61 834.3,-81.87 836.34,-75.17"/>
</g>
<!-- Node20 -->
<g id="node20" class="node">
<title>Node20</title>
<g id="a_node20"><a xlink:href="Ioss__Sort_8h.html" target="_top" xlink:title=" ">
<polygon fill="white" stroke="black" points="1042.5,-168.5 1042.5,-187.5 1109.5,-187.5 1109.5,-168.5 1042.5,-168.5"/>
<text text-anchor="middle" x="1076" y="-175.5" font-family="Helvetica,sans-Serif" font-size="10.00">Ioss_Sort.h</text>
</a>
</g>
</g>
<!-- Node11&#45;&gt;Node20 -->
<g id="edge35" class="edge">
<title>Node11&#45;&gt;Node20</title>
<path fill="none" stroke="midnightblue" d="M746.68,-228.57C804.92,-221.01 926.03,-204.81 1028,-188 1029.46,-187.76 1030.95,-187.51 1032.45,-187.25"/>
<polygon fill="midnightblue" stroke="midnightblue" points="1033.23,-190.67 1042.46,-185.48 1032.01,-183.78 1033.23,-190.67"/>
</g>
<!-- Node22 -->
<g id="node22" class="node">
<title>Node22</title>
<g id="a_node22"><a xlink:title=" ">
<polygon fill="white" stroke="#bfbfbf" points="854,-56.5 854,-75.5 910,-75.5 910,-56.5 854,-56.5"/>
<text text-anchor="middle" x="882" y="-63.5" font-family="Helvetica,sans-Serif" font-size="10.00">algorithm</text>
</a>
</g>
</g>
<!-- Node11&#45;&gt;Node22 -->
<g id="edge44" class="edge">
<title>Node11&#45;&gt;Node22</title>
<path fill="none" stroke="midnightblue" d="M746.71,-232.37C811.33,-230.4 946.18,-222.17 975,-188 1006.73,-150.38 943.45,-103.65 906.33,-80.83"/>
<polygon fill="midnightblue" stroke="midnightblue" points="907.91,-77.7 897.53,-75.57 904.31,-83.71 907.91,-77.7"/>
</g>
<!-- Node26 -->
<g id="node26" class="node">
<title>Node26</title>
<g id="a_node26"><a xlink:title=" ">
<polygon fill="white" stroke="#bfbfbf" points="622.5,-168.5 622.5,-187.5 671.5,-187.5 671.5,-168.5 622.5,-168.5"/>
<text text-anchor="middle" x="647" y="-175.5" font-family="Helvetica,sans-Serif" font-size="10.00">cassert</text>
</a>
</g>
</g>
<!-- Node11&#45;&gt;Node26 -->
<g id="edge45" class="edge">
<title>Node11&#45;&gt;Node26</title>
<path fill="none" stroke="midnightblue" d="M701.56,-224.32C691.85,-216.26 677.18,-204.08 665.5,-194.37"/>
<polygon fill="midnightblue" stroke="midnightblue" points="667.56,-191.53 657.63,-187.83 663.09,-196.92 667.56,-191.53"/>
</g>
<!-- Node27 -->
<g id="node27" class="node">
<title>Node27</title>
<g id="a_node27"><a xlink:title=" ">
<polygon fill="white" stroke="#bfbfbf" points="690,-168.5 690,-187.5 734,-187.5 734,-168.5 690,-168.5"/>
<text text-anchor="middle" x="712" y="-175.5" font-family="Helvetica,sans-Serif" font-size="10.00">cmath</text>
</a>
</g>
</g>
<!-- Node11&#45;&gt;Node27 -->
<g id="edge46" class="edge">
<title>Node11&#45;&gt;Node27</title>
<path fill="none" stroke="midnightblue" d="M712,-224.08C712,-217.01 712,-206.86 712,-197.99"/>
<polygon fill="midnightblue" stroke="midnightblue" points="715.5,-197.75 712,-187.75 708.5,-197.75 715.5,-197.75"/>
</g>
<!-- Node28 -->
<g id="node28" class="node">
<title>Node28</title>
<g id="a_node28"><a xlink:title=" ">
<polygon fill="white" stroke="#bfbfbf" points="752.5,-168.5 752.5,-187.5 797.5,-187.5 797.5,-168.5 752.5,-168.5"/>
<text text-anchor="middle" x="775" y="-175.5" font-family="Helvetica,sans-Serif" font-size="10.00">cstdlib</text>
</a>
</g>
</g>
<!-- Node11&#45;&gt;Node28 -->
<g id="edge49" class="edge">
<title>Node11&#45;&gt;Node28</title>
<path fill="none" stroke="midnightblue" d="M722.12,-224.32C731.53,-216.26 745.74,-204.08 757.07,-194.37"/>
<polygon fill="midnightblue" stroke="midnightblue" points="759.38,-197 764.69,-187.83 754.82,-191.68 759.38,-197"/>
</g>
<!-- Node29 -->
<g id="node29" class="node">
<title>Node29</title>
<g id="a_node29"><a xlink:title=" ">
<polygon fill="white" stroke="#bfbfbf" points="816,-168.5 816,-187.5 870,-187.5 870,-168.5 816,-168.5"/>
<text text-anchor="middle" x="843" y="-175.5" font-family="Helvetica,sans-Serif" font-size="10.00">iostream</text>
</a>
</g>
</g>
<!-- Node11&#45;&gt;Node29 -->
<g id="edge50" class="edge">
<title>Node11&#45;&gt;Node29</title>
<path fill="none" stroke="midnightblue" d="M732.76,-224.44C754.32,-215.56 788.26,-201.56 812.79,-191.45"/>
<polygon fill="midnightblue" stroke="midnightblue" points="814.43,-194.56 822.34,-187.52 811.76,-188.09 814.43,-194.56"/>
</g>
<!-- Node30 -->
<g id="node30" class="node">
<title>Node30</title>
<g id="a_node30"><a xlink:title=" ">
<polygon fill="white" stroke="#bfbfbf" points="888.5,-168.5 888.5,-187.5 947.5,-187.5 947.5,-168.5 888.5,-168.5"/>
<text text-anchor="middle" x="918" y="-175.5" font-family="Helvetica,sans-Serif" font-size="10.00">stdexcept</text>
</a>
</g>
</g>
<!-- Node11&#45;&gt;Node30 -->
<g id="edge51" class="edge">
<title>Node11&#45;&gt;Node30</title>
<path fill="none" stroke="midnightblue" d="M744.64,-224.44C780.88,-214.94 839.39,-199.61 878.26,-189.42"/>
<polygon fill="midnightblue" stroke="midnightblue" points="879.4,-192.74 888.19,-186.82 877.63,-185.97 879.4,-192.74"/>
</g>
<!-- Node12&#45;&gt;Node2 -->
<g id="edge17" class="edge">
<title>Node12&#45;&gt;Node2</title>
<path fill="none" stroke="midnightblue" d="M307.71,-168.48C279.86,-161.73 244.39,-150.32 217,-132 198.31,-119.5 182.19,-99.14 172.11,-84.54"/>
<polygon fill="midnightblue" stroke="midnightblue" points="174.84,-82.32 166.39,-75.92 169,-86.18 174.84,-82.32"/>
</g>
<!-- Node12&#45;&gt;Node6 -->
<g id="edge27" class="edge">
<title>Node12&#45;&gt;Node6</title>
<path fill="none" stroke="midnightblue" d="M350.9,-168.08C344.76,-141.95 326.74,-65.21 318.36,-29.58"/>
<polygon fill="midnightblue" stroke="midnightblue" points="321.71,-28.5 316.01,-19.57 314.89,-30.1 321.71,-28.5"/>
</g>
<!-- Node12&#45;&gt;Node7 -->
<g id="edge28" class="edge">
<title>Node12&#45;&gt;Node7</title>
<path fill="none" stroke="midnightblue" d="M414.15,-171.11C473.51,-164.34 558.42,-151.6 585,-132 619.51,-106.55 636.72,-56.58 643.84,-29.5"/>
<polygon fill="midnightblue" stroke="midnightblue" points="647.25,-30.28 646.22,-19.73 640.45,-28.61 647.25,-30.28"/>
</g>
<!-- Node13 -->
<g id="node13" class="node">
<title>Node13</title>
<g id="a_node13"><a xlink:href="Ioss__ElementPermutation_8h.html" target="_top" xlink:title=" ">
<polygon fill="white" stroke="black" points="438.5,-112.5 438.5,-131.5 575.5,-131.5 575.5,-112.5 438.5,-112.5"/>
<text text-anchor="middle" x="507" y="-119.5" font-family="Helvetica,sans-Serif" font-size="10.00">Ioss_ElementPermutation.h</text>
</a>
</g>
</g>
<!-- Node12&#45;&gt;Node13 -->
<g id="edge18" class="edge">
<title>Node12&#45;&gt;Node13</title>
<path fill="none" stroke="midnightblue" d="M377.4,-168.44C403.2,-159.4 444.08,-145.06 473.02,-134.92"/>
<polygon fill="midnightblue" stroke="midnightblue" points="474.43,-138.13 482.71,-131.52 472.12,-131.52 474.43,-138.13"/>
</g>
<!-- Node16 -->
<g id="node16" class="node">
<title>Node16</title>
<g id="a_node16"><a xlink:title=" ">
<polygon fill="white" stroke="#bfbfbf" points="380.5,-56.5 380.5,-75.5 415.5,-75.5 415.5,-56.5 380.5,-56.5"/>
<text text-anchor="middle" x="398" y="-63.5" font-family="Helvetica,sans-Serif" font-size="10.00">map</text>
</a>
</g>
</g>
<!-- Node12&#45;&gt;Node16 -->
<g id="edge25" class="edge">
<title>Node12&#45;&gt;Node16</title>
<path fill="none" stroke="midnightblue" d="M356.53,-168.37C363.86,-150.46 380.85,-108.92 390.66,-84.95"/>
<polygon fill="midnightblue" stroke="midnightblue" points="393.94,-86.17 394.49,-75.59 387.46,-83.52 393.94,-86.17"/>
</g>
<!-- Node17 -->
<g id="node17" class="node">
<title>Node17</title>
<g id="a_node17"><a xlink:title=" ">
<polygon fill="white" stroke="#bfbfbf" points="390,-112.5 390,-131.5 420,-131.5 420,-112.5 390,-112.5"/>
<text text-anchor="middle" x="405" y="-119.5" font-family="Helvetica,sans-Serif" font-size="10.00">set</text>
</a>
</g>
</g>
<!-- Node12&#45;&gt;Node17 -->
<g id="edge26" class="edge">
<title>Node12&#45;&gt;Node17</title>
<path fill="none" stroke="midnightblue" d="M361.59,-168.08C369.16,-160.22 380.38,-148.57 389.51,-139.08"/>
<polygon fill="midnightblue" stroke="midnightblue" points="392.16,-141.38 396.57,-131.75 387.12,-136.53 392.16,-141.38"/>
</g>
<!-- Node13&#45;&gt;Node2 -->
<g id="edge19" class="edge">
<title>Node13&#45;&gt;Node2</title>
<path fill="none" stroke="midnightblue" d="M452.18,-112.44C388.96,-102.58 285.42,-86.42 220.35,-76.26"/>
<polygon fill="midnightblue" stroke="midnightblue" points="220.67,-72.77 210.25,-74.69 219.59,-79.69 220.67,-72.77"/>
</g>
<!-- Node13&#45;&gt;Node6 -->
<g id="edge23" class="edge">
<title>Node13&#45;&gt;Node6</title>
<path fill="none" stroke="midnightblue" d="M498.04,-112.46C483.61,-99.05 453.88,-72.83 425,-56 399.18,-40.95 367.36,-28.61 344.42,-20.69"/>
<polygon fill="midnightblue" stroke="midnightblue" points="345.46,-17.35 334.87,-17.47 343.23,-23.98 345.46,-17.35"/>
</g>
<!-- Node13&#45;&gt;Node7 -->
<g id="edge24" class="edge">
<title>Node13&#45;&gt;Node7</title>
<path fill="none" stroke="midnightblue" d="M527.58,-112.5C545.39,-104.57 571.31,-91.64 591,-76 608.55,-62.06 625.01,-42.27 635.69,-28.2"/>
<polygon fill="midnightblue" stroke="midnightblue" points="638.7,-30.02 641.83,-19.89 633.07,-25.86 638.7,-30.02"/>
</g>
<!-- Node14 -->
<g id="node14" class="node">
<title>Node14</title>
<g id="a_node14"><a xlink:title=" ">
<polygon fill="white" stroke="#bfbfbf" points="530,-56.5 530,-75.5 582,-75.5 582,-56.5 530,-56.5"/>
<text text-anchor="middle" x="556" y="-63.5" font-family="Helvetica,sans-Serif" font-size="10.00">assert.h</text>
</a>
</g>
</g>
<!-- Node13&#45;&gt;Node14 -->
<g id="edge20" class="edge">
<title>Node13&#45;&gt;Node14</title>
<path fill="none" stroke="midnightblue" d="M515.09,-112.08C522.16,-104.3 532.59,-92.8 541.15,-83.37"/>
<polygon fill="midnightblue" stroke="midnightblue" points="543.93,-85.51 548.06,-75.75 538.75,-80.8 543.93,-85.51"/>
</g>
<!-- Node15 -->
<g id="node15" class="node">
<title>Node15</title>
<g id="a_node15"><a xlink:title=" ">
<polygon fill="white" stroke="#bfbfbf" points="472,-56.5 472,-75.5 512,-75.5 512,-56.5 472,-56.5"/>
<text text-anchor="middle" x="492" y="-63.5" font-family="Helvetica,sans-Serif" font-size="10.00">limits</text>
</a>
</g>
</g>
<!-- Node13&#45;&gt;Node15 -->
<g id="edge21" class="edge">
<title>Node13&#45;&gt;Node15</title>
<path fill="none" stroke="midnightblue" d="M504.52,-112.08C502.51,-104.85 499.61,-94.41 497.11,-85.4"/>
<polygon fill="midnightblue" stroke="midnightblue" points="500.48,-84.45 494.43,-75.75 493.74,-86.32 500.48,-84.45"/>
</g>
<!-- Node13&#45;&gt;Node16 -->
<g id="edge22" class="edge">
<title>Node13&#45;&gt;Node16</title>
<path fill="none" stroke="midnightblue" d="M489.49,-112.32C471.93,-103.62 444.67,-90.12 424.47,-80.11"/>
<polygon fill="midnightblue" stroke="midnightblue" points="425.98,-76.96 415.47,-75.65 422.88,-83.23 425.98,-76.96"/>
</g>
<!-- Node19&#45;&gt;Node5 -->
<g id="edge32" class="edge">
<title>Node19&#45;&gt;Node5</title>
<path fill="none" stroke="midnightblue" d="M794,-56.08C794,-49.01 794,-38.86 794,-29.99"/>
<polygon fill="midnightblue" stroke="midnightblue" points="797.5,-29.75 794,-19.75 790.5,-29.75 797.5,-29.75"/>
</g>
<!-- Node19&#45;&gt;Node6 -->
<g id="edge33" class="edge">
<title>Node19&#45;&gt;Node6</title>
<path fill="none" stroke="midnightblue" d="M751.82,-60.26C656.82,-49.57 427.88,-23.81 344.79,-14.46"/>
<polygon fill="midnightblue" stroke="midnightblue" points="345.05,-10.97 334.73,-13.33 344.27,-17.93 345.05,-10.97"/>
</g>
<!-- Node19&#45;&gt;Node7 -->
<g id="edge34" class="edge">
<title>Node19&#45;&gt;Node7</title>
<path fill="none" stroke="midnightblue" d="M770.87,-56.44C746.23,-47.33 707.08,-32.85 679.61,-22.69"/>
<polygon fill="midnightblue" stroke="midnightblue" points="680.66,-19.35 670.07,-19.16 678.24,-25.91 680.66,-19.35"/>
</g>
<!-- Node20&#45;&gt;Node4 -->
<g id="edge42" class="edge">
<title>Node20&#45;&gt;Node4</title>
<path fill="none" stroke="midnightblue" d="M1085.7,-168.34C1094.49,-159.94 1107.08,-146.37 1114,-132 1130.19,-98.35 1135.46,-54.4 1137.18,-29.79"/>
<polygon fill="midnightblue" stroke="midnightblue" points="1140.68,-29.86 1137.75,-19.68 1133.69,-29.46 1140.68,-29.86"/>
</g>
<!-- Node20&#45;&gt;Node7 -->
<g id="edge43" class="edge">
<title>Node20&#45;&gt;Node7</title>
<path fill="none" stroke="midnightblue" d="M1078.64,-168.36C1082.08,-155.7 1086.98,-131.47 1081,-112 1072.17,-83.25 1068.74,-71.57 1043,-56 1027.5,-46.63 771.78,-22.36 680.26,-13.94"/>
<polygon fill="midnightblue" stroke="midnightblue" points="680.46,-10.44 670.18,-13.01 679.82,-17.41 680.46,-10.44"/>
</g>
<!-- Node21 -->
<g id="node21" class="node">
<title>Node21</title>
<g id="a_node21"><a xlink:href="pdqsort_8h.html" target="_top" xlink:title=" ">
<polygon fill="white" stroke="black" points="1014.5,-112.5 1014.5,-131.5 1071.5,-131.5 1071.5,-112.5 1014.5,-112.5"/>
<text text-anchor="middle" x="1043" y="-119.5" font-family="Helvetica,sans-Serif" font-size="10.00">pdqsort.h</text>
</a>
</g>
</g>
<!-- Node20&#45;&gt;Node21 -->
<g id="edge36" class="edge">
<title>Node20&#45;&gt;Node21</title>
<path fill="none" stroke="midnightblue" d="M1070.55,-168.08C1065.99,-160.61 1059.33,-149.72 1053.71,-140.52"/>
<polygon fill="midnightblue" stroke="midnightblue" points="1056.55,-138.46 1048.35,-131.75 1050.58,-142.11 1056.55,-138.46"/>
</g>
<!-- Node21&#45;&gt;Node4 -->
<g id="edge38" class="edge">
<title>Node21&#45;&gt;Node4</title>
<path fill="none" stroke="midnightblue" d="M1050.45,-112.37C1066.27,-94.05 1103.41,-51.05 1123.87,-27.36"/>
<polygon fill="midnightblue" stroke="midnightblue" points="1126.69,-29.45 1130.58,-19.59 1121.4,-24.87 1126.69,-29.45"/>
</g>
<!-- Node21&#45;&gt;Node22 -->
<g id="edge37" class="edge">
<title>Node21&#45;&gt;Node22</title>
<path fill="none" stroke="midnightblue" d="M1017.49,-112.44C990.4,-103.36 947.41,-88.94 917.13,-78.78"/>
<polygon fill="midnightblue" stroke="midnightblue" points="917.99,-75.38 907.39,-75.52 915.76,-82.01 917.99,-75.38"/>
</g>
<!-- Node21&#45;&gt;Node23 -->
<g id="edge39" class="edge">
<title>Node21&#45;&gt;Node23</title>
<path fill="none" stroke="midnightblue" d="M1071.54,-114.27C1112.11,-104.7 1186.63,-87.13 1232.49,-76.32"/>
<polygon fill="midnightblue" stroke="midnightblue" points="1233.44,-79.69 1242.37,-73.99 1231.84,-72.87 1233.44,-79.69"/>
</g>
<!-- Node24 -->
<g id="node24" class="node">
<title>Node24</title>
<g id="a_node24"><a xlink:title=" ">
<polygon fill="white" stroke="#bfbfbf" points="928.5,-56.5 928.5,-75.5 975.5,-75.5 975.5,-56.5 928.5,-56.5"/>
<text text-anchor="middle" x="952" y="-63.5" font-family="Helvetica,sans-Serif" font-size="10.00">iterator</text>
</a>
</g>
</g>
<!-- Node21&#45;&gt;Node24 -->
<g id="edge40" class="edge">
<title>Node21&#45;&gt;Node24</title>
<path fill="none" stroke="midnightblue" d="M1028.38,-112.32C1014.05,-103.82 991.99,-90.73 975.25,-80.8"/>
<polygon fill="midnightblue" stroke="midnightblue" points="976.97,-77.75 966.58,-75.65 973.4,-83.77 976.97,-77.75"/>
</g>
<!-- Node25 -->
<g id="node25" class="node">
<title>Node25</title>
<g id="a_node25"><a xlink:title=" ">
<polygon fill="white" stroke="#bfbfbf" points="994,-56.5 994,-75.5 1034,-75.5 1034,-56.5 994,-56.5"/>
<text text-anchor="middle" x="1014" y="-63.5" font-family="Helvetica,sans-Serif" font-size="10.00">utility</text>
</a>
</g>
</g>
<!-- Node21&#45;&gt;Node25 -->
<g id="edge41" class="edge">
<title>Node21&#45;&gt;Node25</title>
<path fill="none" stroke="midnightblue" d="M1038.21,-112.08C1034.24,-104.69 1028.47,-93.95 1023.57,-84.81"/>
<polygon fill="midnightblue" stroke="midnightblue" points="1026.51,-82.91 1018.7,-75.75 1020.35,-86.22 1026.51,-82.91"/>
</g>
</g>
</svg>
