<?xml version="1.0" encoding="UTF-8" standalone="no"?>
<!DOCTYPE svg PUBLIC "-//W3C//DTD SVG 1.1//EN"
 "http://www.w3.org/Graphics/SVG/1.1/DTD/svg11.dtd">
<!-- Generated by graphviz version 7.0.0 (20221023.0053)
 -->
<!-- Title: src/Ioss_GetLongOpt.h Pages: 1 -->
<!--zoomable 192 -->
<svg id="main" version="1.1" xmlns="http://www.w3.org/2000/svg" xmlns:xlink="http://www.w3.org/1999/xlink" xml:space="preserve" onload="init(evt)">
<style type="text/css"><![CDATA[
.edge:hover path { stroke: red; }
.edge:hover polygon { stroke: red; fill: red; }
]]></style>
<script type="text/javascript"><![CDATA[
var edges = document.getElementsByTagName('g');
if (edges && edges.length) {
  for (var i=0;i<edges.length;i++) {
    if (edges[i].id.substr(0,4)=='edge') {
      edges[i].setAttribute('class','edge');
    }
  }
}
]]></script>
        <defs>
                <circle id="rim" cx="0" cy="0" r="7"/>
                <circle id="rim2" cx="0" cy="0" r="3.5"/>
                <g id="zoomPlus">
                        <use xlink:href="#rim" fill="#404040">
                                <set attributeName="fill" to="#808080" begin="zoomplus.mouseover" end="zoomplus.mouseout"/>
                        </use>
                        <path d="M-4,0h8M0,-4v8" fill="none" stroke="white" stroke-width="1.5" pointer-events="none"/>
                </g>
                <g id="zoomMin">
                        <use xlink:href="#rim" fill="#404040">
                                <set attributeName="fill" to="#808080" begin="zoomminus.mouseover" end="zoomminus.mouseout"/>
                        </use>
                        <path d="M-4,0h8" fill="none" stroke="white" stroke-width="1.5" pointer-events="none"/>
                </g>
                <g id="dirArrow">
                        <path fill="none" stroke="white" stroke-width="1.5" d="M0,-3.0v7 M-2.5,-0.5L0,-3.0L2.5,-0.5"/>
                </g>
               <g id="resetDef">
                       <use xlink:href="#rim2" fill="#404040">
                               <set attributeName="fill" to="#808080" begin="reset.mouseover" end="reset.mouseout"/>
                       </use>
               </g>
        </defs>

<script type="text/javascript">
var viewWidth = 1332;
var viewHeight = 192;
var sectionId = 'dynsection-1';
</script>
<script xlink:href="svgpan.js"/>
<svg id="graph" class="graph">
<g id="viewport">
<title>src/Ioss_GetLongOpt.h</title>
<!-- Node1 -->
<g id="node1" class="node">
<title>Node1</title>
<g id="a_node1"><a xlink:title=" ">
<polygon fill="#999999" stroke="#666666" points="581,-184 463,-184 463,-165 581,-165 581,-184"/>
<text text-anchor="middle" x="522" y="-172" font-family="Helvetica,sans-Serif" font-size="10.00">src/Ioss_GetLongOpt.h</text>
</a>
</g>
</g>
<!-- Node2 -->
<g id="node2" class="node">
<title>Node2</title>
<g id="a_node2"><a xlink:href="Ioss__GetLongOpt_8C.html" target="_top" xlink:title=" ">
<polygon fill="white" stroke="#666666" points="120,-129 0,-129 0,-110 120,-110 120,-129"/>
<text text-anchor="middle" x="60" y="-117" font-family="Helvetica,sans-Serif" font-size="10.00">src/Ioss_GetLongOpt.C</text>
</a>
</g>
</g>
<!-- Node1&#45;&gt;Node2 -->
<g id="edge1" class="edge">
<title>Node1&#45;&gt;Node2</title>
<path fill="none" stroke="#63b8ff" d="M451.5,-165.73C372.83,-157.01 241.76,-142.33 129,-129 126.12,-128.66 123.18,-128.31 120.21,-127.95"/>
<polygon fill="#63b8ff" stroke="#63b8ff" points="450.89,-169.18 461.22,-166.8 451.66,-162.22 450.89,-169.18"/>
</g>
<!-- Node3 -->
<g id="node3" class="node">
<title>Node3</title>
<g id="a_node3"><a xlink:href="cgns__decomp_8C.html" target="_top" xlink:title=" ">
<polygon fill="white" stroke="#666666" points="266,-129 138,-129 138,-110 266,-110 266,-129"/>
<text text-anchor="middle" x="202" y="-117" font-family="Helvetica,sans-Serif" font-size="10.00">src/main/cgns_decomp.C</text>
</a>
</g>
</g>
<!-- Node1&#45;&gt;Node3 -->
<g id="edge2" class="edge">
<title>Node1&#45;&gt;Node3</title>
<path fill="none" stroke="#63b8ff" d="M456.65,-162.68C397.58,-152.89 311.65,-138.66 256.28,-129.49"/>
<polygon fill="#63b8ff" stroke="#63b8ff" points="455.79,-166.08 466.22,-164.26 456.93,-159.17 455.79,-166.08"/>
</g>
<!-- Node4 -->
<g id="node4" class="node">
<title>Node4</title>
<g id="a_node4"><a xlink:href="info__interface_8C.html" target="_top" xlink:title=" ">
<polygon fill="white" stroke="#666666" points="251,-74 125,-74 125,-55 251,-55 251,-74"/>
<text text-anchor="middle" x="188" y="-62" font-family="Helvetica,sans-Serif" font-size="10.00">src/main/info_interface.C</text>
</a>
</g>
</g>
<!-- Node1&#45;&gt;Node4 -->
<g id="edge3" class="edge">
<title>Node1&#45;&gt;Node4</title>
<path fill="none" stroke="#63b8ff" d="M451.49,-163.2C410.37,-156.03 357.92,-144.88 313,-129 310.2,-128.01 239.14,-91.68 205.43,-74.43"/>
<polygon fill="#63b8ff" stroke="#63b8ff" points="450.83,-166.63 461.28,-164.86 452,-159.73 450.83,-166.63"/>
</g>
<!-- Node5 -->
<g id="node5" class="node">
<title>Node5</title>
<g id="a_node5"><a xlink:href="info__interface_8h.html" target="_top" xlink:title=" ">
<polygon fill="white" stroke="#666666" points="446,-129 322,-129 322,-110 446,-110 446,-129"/>
<text text-anchor="middle" x="384" y="-117" font-family="Helvetica,sans-Serif" font-size="10.00">src/main/info_interface.h</text>
</a>
</g>
</g>
<!-- Node1&#45;&gt;Node5 -->
<g id="edge4" class="edge">
<title>Node1&#45;&gt;Node5</title>
<path fill="none" stroke="#63b8ff" d="M488.03,-160.45C462.84,-150.78 429.18,-137.85 407.06,-129.36"/>
<polygon fill="#63b8ff" stroke="#63b8ff" points="486.59,-163.65 497.18,-163.97 489.1,-157.11 486.59,-163.65"/>
</g>
<!-- Node9 -->
<g id="node9" class="node">
<title>Node9</title>
<g id="a_node9"><a xlink:href="modify__interface_8C.html" target="_top" xlink:title=" ">
<polygon fill="white" stroke="#666666" points="521,-74 381,-74 381,-55 521,-55 521,-74"/>
<text text-anchor="middle" x="451" y="-62" font-family="Helvetica,sans-Serif" font-size="10.00">src/main/modify_interface.C</text>
</a>
</g>
</g>
<!-- Node1&#45;&gt;Node9 -->
<g id="edge9" class="edge">
<title>Node1&#45;&gt;Node9</title>
<path fill="none" stroke="#63b8ff" d="M509.95,-155.18C494.56,-131.76 468.5,-92.12 456.89,-74.46"/>
<polygon fill="#63b8ff" stroke="#63b8ff" points="506.94,-156.96 515.36,-163.4 512.79,-153.12 506.94,-156.96"/>
</g>
<!-- Node10 -->
<g id="node10" class="node">
<title>Node10</title>
<g id="a_node10"><a xlink:href="modify__interface_8h.html" target="_top" xlink:title=" ">
<polygon fill="white" stroke="#666666" points="639.5,-129 502.5,-129 502.5,-110 639.5,-110 639.5,-129"/>
<text text-anchor="middle" x="571" y="-117" font-family="Helvetica,sans-Serif" font-size="10.00">src/main/modify_interface.h</text>
</a>
</g>
</g>
<!-- Node1&#45;&gt;Node10 -->
<g id="edge10" class="edge">
<title>Node1&#45;&gt;Node10</title>
<path fill="none" stroke="#63b8ff" d="M537.72,-156.5C546.04,-147.5 555.91,-136.82 562.73,-129.44"/>
<polygon fill="#63b8ff" stroke="#63b8ff" points="535.34,-153.92 531.12,-163.64 540.48,-158.67 535.34,-153.92"/>
</g>
<!-- Node12 -->
<g id="node12" class="node">
<title>Node12</title>
<g id="a_node12"><a xlink:href="shell__interface_8C.html" target="_top" xlink:title=" ">
<polygon fill="white" stroke="#666666" points="796.5,-74 665.5,-74 665.5,-55 796.5,-55 796.5,-74"/>
<text text-anchor="middle" x="731" y="-62" font-family="Helvetica,sans-Serif" font-size="10.00">src/main/shell_interface.C</text>
</a>
</g>
</g>
<!-- Node1&#45;&gt;Node12 -->
<g id="edge13" class="edge">
<title>Node1&#45;&gt;Node12</title>
<path fill="none" stroke="#63b8ff" d="M567.26,-161.29C591.92,-153.72 622.53,-142.79 648,-129 677.04,-113.28 706.74,-87.82 721.48,-74.41"/>
<polygon fill="#63b8ff" stroke="#63b8ff" points="566.41,-157.89 557.83,-164.1 568.41,-164.6 566.41,-157.89"/>
</g>
<!-- Node13 -->
<g id="node13" class="node">
<title>Node13</title>
<g id="a_node13"><a xlink:href="shell__interface_8h.html" target="_top" xlink:title=" ">
<polygon fill="white" stroke="#666666" points="893,-129 765,-129 765,-110 893,-110 893,-129"/>
<text text-anchor="middle" x="829" y="-117" font-family="Helvetica,sans-Serif" font-size="10.00">src/main/shell_interface.h</text>
</a>
</g>
</g>
<!-- Node1&#45;&gt;Node13 -->
<g id="edge14" class="edge">
<title>Node1&#45;&gt;Node13</title>
<path fill="none" stroke="#63b8ff" d="M585.41,-162.55C642.05,-152.77 724.03,-138.62 776.92,-129.49"/>
<polygon fill="#63b8ff" stroke="#63b8ff" points="584.83,-159.1 575.57,-164.25 586.02,-166 584.83,-159.1"/>
</g>
<!-- Node16 -->
<g id="node16" class="node">
<title>Node16</title>
<g id="a_node16"><a xlink:href="skinner__interface_8C.html" target="_top" xlink:title=" ">
<polygon fill="white" stroke="#666666" points="1208,-74 1066,-74 1066,-55 1208,-55 1208,-74"/>
<text text-anchor="middle" x="1137" y="-62" font-family="Helvetica,sans-Serif" font-size="10.00">src/main/skinner_interface.C</text>
</a>
</g>
</g>
<!-- Node1&#45;&gt;Node16 -->
<g id="edge18" class="edge">
<title>Node1&#45;&gt;Node16</title>
<path fill="none" stroke="#63b8ff" d="M592.74,-168.35C669.41,-162.04 795.14,-149.58 902,-129 977.94,-114.38 1065.4,-88.21 1109.1,-74.48"/>
<polygon fill="#63b8ff" stroke="#63b8ff" points="592.52,-164.86 582.84,-169.15 593.08,-171.84 592.52,-164.86"/>
</g>
<!-- Node17 -->
<g id="node17" class="node">
<title>Node17</title>
<g id="a_node17"><a xlink:href="skinner__interface_8h.html" target="_top" xlink:title=" ">
<polygon fill="white" stroke="#666666" points="1207,-129 1067,-129 1067,-110 1207,-110 1207,-129"/>
<text text-anchor="middle" x="1137" y="-117" font-family="Helvetica,sans-Serif" font-size="10.00">src/main/skinner_interface.h</text>
</a>
</g>
</g>
<!-- Node1&#45;&gt;Node17 -->
<g id="edge19" class="edge">
<title>Node1&#45;&gt;Node17</title>
<path fill="none" stroke="#63b8ff" d="M592.68,-167.41C711.12,-157.2 948.33,-136.76 1066.59,-126.57"/>
<polygon fill="#63b8ff" stroke="#63b8ff" points="592.42,-163.92 582.76,-168.26 593.02,-170.89 592.42,-163.92"/>
</g>
<!-- Node5&#45;&gt;Node4 -->
<g id="edge5" class="edge">
<title>Node5&#45;&gt;Node4</title>
<path fill="none" stroke="#63b8ff" d="M340.06,-106.62C304.02,-96.87 253.79,-83.29 221.08,-74.45"/>
<polygon fill="#63b8ff" stroke="#63b8ff" points="338.72,-109.88 349.29,-109.11 340.55,-103.13 338.72,-109.88"/>
</g>
<!-- Node6 -->
<g id="node6" class="node">
<title>Node6</title>
<g id="a_node6"><a xlink:href="io__info_8h.html" target="_top" xlink:title=" ">
<polygon fill="white" stroke="#666666" points="363,-74 269,-74 269,-55 363,-55 363,-74"/>
<text text-anchor="middle" x="316" y="-62" font-family="Helvetica,sans-Serif" font-size="10.00">src/main/io_info.h</text>
</a>
</g>
</g>
<!-- Node5&#45;&gt;Node6 -->
<g id="edge6" class="edge">
<title>Node5&#45;&gt;Node6</title>
<path fill="none" stroke="#63b8ff" d="M363.65,-102.64C351.78,-93.39 337.24,-82.05 327.36,-74.36"/>
<polygon fill="#63b8ff" stroke="#63b8ff" points="361.23,-105.19 371.27,-108.58 365.54,-99.67 361.23,-105.19"/>
</g>
<!-- Node7 -->
<g id="node7" class="node">
<title>Node7</title>
<g id="a_node7"><a xlink:href="io__info_8C.html" target="_top" xlink:title=" ">
<polygon fill="white" stroke="#666666" points="301,-19 205,-19 205,0 301,0 301,-19"/>
<text text-anchor="middle" x="253" y="-7" font-family="Helvetica,sans-Serif" font-size="10.00">src/main/io_info.C</text>
</a>
</g>
</g>
<!-- Node6&#45;&gt;Node7 -->
<g id="edge7" class="edge">
<title>Node6&#45;&gt;Node7</title>
<path fill="none" stroke="#63b8ff" d="M296.82,-47.37C285.88,-38.16 272.59,-26.98 263.53,-19.36"/>
<polygon fill="#63b8ff" stroke="#63b8ff" points="294.25,-49.78 304.15,-53.53 298.76,-44.42 294.25,-49.78"/>
</g>
<!-- Node8 -->
<g id="node8" class="node">
<title>Node8</title>
<g id="a_node8"><a xlink:href="io__info__main_8C.html" target="_top" xlink:title=" ">
<polygon fill="white" stroke="#666666" points="441,-19 319,-19 319,0 441,0 441,-19"/>
<text text-anchor="middle" x="380" y="-7" font-family="Helvetica,sans-Serif" font-size="10.00">src/main/io_info_main.C</text>
</a>
</g>
</g>
<!-- Node6&#45;&gt;Node8 -->
<g id="edge8" class="edge">
<title>Node6&#45;&gt;Node8</title>
<path fill="none" stroke="#63b8ff" d="M335.48,-47.37C346.6,-38.16 360.1,-26.98 369.3,-19.36"/>
<polygon fill="#63b8ff" stroke="#63b8ff" points="333.49,-44.47 328.02,-53.54 337.96,-49.86 333.49,-44.47"/>
</g>
<!-- Node10&#45;&gt;Node9 -->
<g id="edge12" class="edge">
<title>Node10&#45;&gt;Node9</title>
<path fill="none" stroke="#63b8ff" d="M540.28,-104.93C518.51,-95.32 489.95,-82.7 471.06,-74.36"/>
<polygon fill="#63b8ff" stroke="#63b8ff" points="538.7,-108.06 549.26,-108.9 541.53,-101.66 538.7,-108.06"/>
</g>
<!-- Node11 -->
<g id="node11" class="node">
<title>Node11</title>
<g id="a_node11"><a xlink:href="io__modify_8C.html" target="_top" xlink:title=" ">
<polygon fill="white" stroke="#666666" points="647,-74 539,-74 539,-55 647,-55 647,-74"/>
<text text-anchor="middle" x="593" y="-62" font-family="Helvetica,sans-Serif" font-size="10.00">src/main/io_modify.C</text>
</a>
</g>
</g>
<!-- Node10&#45;&gt;Node11 -->
<g id="edge11" class="edge">
<title>Node10&#45;&gt;Node11</title>
<path fill="none" stroke="#63b8ff" d="M579,-99.22C582.52,-90.74 586.48,-81.21 589.29,-74.44"/>
<polygon fill="#63b8ff" stroke="#63b8ff" points="575.81,-97.77 575.21,-108.35 582.28,-100.46 575.81,-97.77"/>
</g>
<!-- Node13&#45;&gt;Node12 -->
<g id="edge17" class="edge">
<title>Node13&#45;&gt;Node12</title>
<path fill="none" stroke="#63b8ff" d="M802.68,-104.27C785.08,-94.74 762.45,-82.51 747.38,-74.36"/>
<polygon fill="#63b8ff" stroke="#63b8ff" points="800.58,-107.11 811.04,-108.79 803.91,-100.95 800.58,-107.11"/>
</g>
<!-- Node14 -->
<g id="node14" class="node">
<title>Node14</title>
<g id="a_node14"><a xlink:href="io__shell_8C.html" target="_top" xlink:title=" ">
<polygon fill="white" stroke="#666666" points="915.5,-74 814.5,-74 814.5,-55 915.5,-55 915.5,-74"/>
<text text-anchor="middle" x="865" y="-62" font-family="Helvetica,sans-Serif" font-size="10.00">src/main/io_shell.C</text>
</a>
</g>
</g>
<!-- Node13&#45;&gt;Node14 -->
<g id="edge15" class="edge">
<title>Node13&#45;&gt;Node14</title>
<path fill="none" stroke="#63b8ff" d="M841.32,-100.36C847.26,-91.62 854.12,-81.51 858.93,-74.44"/>
<polygon fill="#63b8ff" stroke="#63b8ff" points="838.52,-98.26 835.8,-108.5 844.31,-102.19 838.52,-98.26"/>
</g>
<!-- Node15 -->
<g id="node15" class="node">
<title>Node15</title>
<g id="a_node15"><a xlink:href="io__shell__ts_8C.html" target="_top" xlink:title=" ">
<polygon fill="white" stroke="#666666" points="1048,-74 934,-74 934,-55 1048,-55 1048,-74"/>
<text text-anchor="middle" x="991" y="-62" font-family="Helvetica,sans-Serif" font-size="10.00">src/main/io_shell_ts.C</text>
</a>
</g>
</g>
<!-- Node13&#45;&gt;Node15 -->
<g id="edge16" class="edge">
<title>Node13&#45;&gt;Node15</title>
<path fill="none" stroke="#63b8ff" d="M867.26,-105.98C896.89,-96.29 937.21,-83.1 963.65,-74.45"/>
<polygon fill="#63b8ff" stroke="#63b8ff" points="866.34,-102.6 857.92,-109.04 868.51,-109.26 866.34,-102.6"/>
</g>
<!-- Node17&#45;&gt;Node16 -->
<g id="edge21" class="edge">
<title>Node17&#45;&gt;Node16</title>
<path fill="none" stroke="#63b8ff" d="M1137,-98.35C1137,-90.1 1137,-80.97 1137,-74.44"/>
<polygon fill="#63b8ff" stroke="#63b8ff" points="1133.5,-98.23 1137,-108.23 1140.5,-98.23 1133.5,-98.23"/>
</g>
<!-- Node18 -->
<g id="node18" class="node">
<title>Node18</title>
<g id="a_node18"><a xlink:href="skinner_8C.html" target="_top" xlink:title=" ">
<polygon fill="white" stroke="#666666" points="1324,-74 1226,-74 1226,-55 1324,-55 1324,-74"/>
<text text-anchor="middle" x="1275" y="-62" font-family="Helvetica,sans-Serif" font-size="10.00">src/main/skinner.C</text>
</a>
</g>
</g>
<!-- Node17&#45;&gt;Node18 -->
<g id="edge20" class="edge">
<title>Node17&#45;&gt;Node18</title>
<path fill="none" stroke="#63b8ff" d="M1170.97,-105.45C1196.16,-95.78 1229.82,-82.85 1251.94,-74.36"/>
<polygon fill="#63b8ff" stroke="#63b8ff" points="1169.9,-102.11 1161.82,-108.97 1172.41,-108.65 1169.9,-102.11"/>
</g>
</g>
</svg>
        <g id="navigator" transform="translate(0 0)" fill="#404254">
                <rect fill="#f2f5e9" fill-opacity="0.5" stroke="#606060" stroke-width=".5" x="0" y="0" width="60" height="60"/>
                <use id="zoomplus" xlink:href="#zoomPlus" x="17" y="9" onmousedown="handleZoom(evt,'in')"/>
                <use id="zoomminus" xlink:href="#zoomMin" x="42" y="9" onmousedown="handleZoom(evt,'out')"/>
                <use id="reset" xlink:href="#resetDef" x="30" y="36" onmousedown="handleReset()"/>
                <g id="arrowUp" xlink:href="#dirArrow" transform="translate(30 24)" onmousedown="handlePan(0,-1)">
                  <use xlink:href="#rim" fill="#404040">
                        <set attributeName="fill" to="#808080" begin="arrowUp.mouseover" end="arrowUp.mouseout"/>
                  </use>
                  <path fill="none" stroke="white" stroke-width="1.5" d="M0,-3.0v7 M-2.5,-0.5L0,-3.0L2.5,-0.5"/>
                </g>
                <g id="arrowRight" xlink:href="#dirArrow" transform="rotate(90) translate(36 -43)" onmousedown="handlePan(1,0)">
                  <use xlink:href="#rim" fill="#404040">
                        <set attributeName="fill" to="#808080" begin="arrowRight.mouseover" end="arrowRight.mouseout"/>
                  </use>
                  <path fill="none" stroke="white" stroke-width="1.5" d="M0,-3.0v7 M-2.5,-0.5L0,-3.0L2.5,-0.5"/>
                </g>
                <g id="arrowDown" xlink:href="#dirArrow" transform="rotate(180) translate(-30 -48)" onmousedown="handlePan(0,1)">
                  <use xlink:href="#rim" fill="#404040">
                        <set attributeName="fill" to="#808080" begin="arrowDown.mouseover" end="arrowDown.mouseout"/>
                  </use>
                  <path fill="none" stroke="white" stroke-width="1.5" d="M0,-3.0v7 M-2.5,-0.5L0,-3.0L2.5,-0.5"/>
                </g>
                <g id="arrowLeft" xlink:href="#dirArrow" transform="rotate(270) translate(-36 17)" onmousedown="handlePan(-1,0)">
                  <use xlink:href="#rim" fill="#404040">
                        <set attributeName="fill" to="#808080" begin="arrowLeft.mouseover" end="arrowLeft.mouseout"/>
                  </use>
                  <path fill="none" stroke="white" stroke-width="1.5" d="M0,-3.0v7 M-2.5,-0.5L0,-3.0L2.5,-0.5"/>
                </g>
        </g>
        <svg viewBox="0 0 15 15" width="100%" height="30px" preserveAspectRatio="xMaxYMin meet">
         <g id="arrow_out" transform="scale(0.3 0.3)">
          <a xlink:href="Ioss__GetLongOpt_8h__dep__incl_org.svg" target="_base">
           <rect id="button" ry="5" rx="5" y="6" x="6" height="38" width="38"
                fill="#f2f5e9" fill-opacity="0.5" stroke="#606060" stroke-width="1.0"/>
           <path id="arrow"
             d="M 11.500037,31.436501 C 11.940474,20.09759 22.043105,11.32322 32.158766,21.979434 L 37.068811,17.246167 C 37.068811,17.246167 37.088388,32 37.088388,32 L 22.160133,31.978069 C 22.160133,31.978069 26.997745,27.140456 26.997745,27.140456 C 18.528582,18.264221 13.291696,25.230495 11.500037,31.436501 z"
             style="fill:#404040;"/>
          </a>
         </g>
        </svg>
</svg>
