<?xml version="1.0" encoding="UTF-8" standalone="no"?>
<!DOCTYPE svg PUBLIC "-//W3C//DTD SVG 1.1//EN"
 "http://www.w3.org/Graphics/SVG/1.1/DTD/svg11.dtd">
<!-- Generated by graphviz version 3.0.0 (20220226.1711)
 -->
<!-- Title: src/Ioss_VariableType.C Pages: 1 -->
<svg width="1791pt" height="431pt"
 viewBox="0.00 0.00 1791.00 431.00" xmlns="http://www.w3.org/2000/svg" xmlns:xlink="http://www.w3.org/1999/xlink">
<g id="graph0" class="graph" transform="scale(1 1) rotate(0) translate(4 427)">
<title>src/Ioss_VariableType.C</title>
<polygon fill="white" stroke="transparent" points="-4,4 -4,-427 1787,-427 1787,4 -4,4"/>
<!-- Node1 -->
<g id="node1" class="node">
<title>Node1</title>
<g id="a_node1"><a xlink:title=" ">
<polygon fill="#bfbfbf" stroke="black" points="1217.5,-403.5 1217.5,-422.5 1340.5,-422.5 1340.5,-403.5 1217.5,-403.5"/>
<text text-anchor="middle" x="1279" y="-410.5" font-family="Helvetica,sans-Serif" font-size="10.00">src/Ioss_VariableType.C</text>
</a>
</g>
</g>
<!-- Node2 -->
<g id="node2" class="node">
<title>Node2</title>
<g id="a_node2"><a xlink:href="Ioss__CompositeVariableType_8h.html" target="_top" xlink:title=" ">
<polygon fill="white" stroke="black" points="293,-342 293,-361 445,-361 445,-342 293,-342"/>
<text text-anchor="middle" x="369" y="-349" font-family="Helvetica,sans-Serif" font-size="10.00">Ioss_CompositeVariableType.h</text>
</a>
</g>
</g>
<!-- Node1&#45;&gt;Node2 -->
<g id="edge1" class="edge">
<title>Node1&#45;&gt;Node2</title>
<path fill="none" stroke="midnightblue" d="M1217.48,-411.05C1080.13,-408.4 738.2,-398.89 454,-367 444.07,-365.89 433.54,-364.37 423.4,-362.73"/>
<polygon fill="midnightblue" stroke="midnightblue" points="423.86,-359.26 413.42,-361.06 422.71,-366.16 423.86,-359.26"/>
</g>
<!-- Node3 -->
<g id="node3" class="node">
<title>Node3</title>
<g id="a_node3"><a xlink:href="Ioss__VariableType_8h.html" target="_top" xlink:title=" ">
<polygon fill="white" stroke="black" points="528,-280.5 528,-299.5 632,-299.5 632,-280.5 528,-280.5"/>
<text text-anchor="middle" x="580" y="-287.5" font-family="Helvetica,sans-Serif" font-size="10.00">Ioss_VariableType.h</text>
</a>
</g>
</g>
<!-- Node1&#45;&gt;Node3 -->
<g id="edge67" class="edge">
<title>Node1&#45;&gt;Node3</title>
<path fill="none" stroke="midnightblue" d="M1217.43,-410.55C1066.77,-406.59 688.17,-394.05 638,-367 614.2,-354.17 597.2,-326.88 587.99,-308.74"/>
<polygon fill="midnightblue" stroke="midnightblue" points="591.05,-307.03 583.57,-299.52 584.73,-310.06 591.05,-307.03"/>
</g>
<!-- Node6 -->
<g id="node6" class="node">
<title>Node6</title>
<g id="a_node6"><a xlink:title=" ">
<polygon fill="white" stroke="#bfbfbf" points="1166.5,-0.5 1166.5,-19.5 1215.5,-19.5 1215.5,-0.5 1166.5,-0.5"/>
<text text-anchor="middle" x="1191" y="-7.5" font-family="Helvetica,sans-Serif" font-size="10.00">cstddef</text>
</a>
</g>
</g>
<!-- Node1&#45;&gt;Node6 -->
<g id="edge71" class="edge">
<title>Node1&#45;&gt;Node6</title>
<path fill="none" stroke="midnightblue" d="M1340.67,-407.75C1403.61,-402.18 1495.68,-390.27 1522,-367 1548.54,-343.54 1546,-326.42 1546,-291 1546,-291 1546,-291 1546,-121 1546,-90.2 1546.02,-75.27 1522,-56 1476.94,-19.85 1301.59,-12.71 1226,-11.32"/>
<polygon fill="midnightblue" stroke="midnightblue" points="1225.65,-7.82 1215.59,-11.16 1225.54,-14.82 1225.65,-7.82"/>
</g>
<!-- Node8 -->
<g id="node8" class="node">
<title>Node8</title>
<g id="a_node8"><a xlink:title=" ">
<polygon fill="white" stroke="#bfbfbf" points="229.5,-0.5 229.5,-19.5 270.5,-19.5 270.5,-0.5 229.5,-0.5"/>
<text text-anchor="middle" x="250" y="-7.5" font-family="Helvetica,sans-Serif" font-size="10.00">string</text>
</a>
</g>
</g>
<!-- Node1&#45;&gt;Node8 -->
<g id="edge78" class="edge">
<title>Node1&#45;&gt;Node8</title>
<path fill="none" stroke="midnightblue" d="M1217.34,-411.91C1019.52,-411.23 402.35,-405.97 207,-367 110.89,-347.83 0,-389 0,-291 0,-291 0,-291 0,-121 0,-26.45 151.67,-12.45 218.74,-10.89"/>
<polygon fill="midnightblue" stroke="midnightblue" points="219.17,-14.38 229.12,-10.73 219.06,-7.38 219.17,-14.38"/>
</g>
<!-- Node9 -->
<g id="node9" class="node">
<title>Node9</title>
<g id="a_node9"><a xlink:title=" ">
<polygon fill="white" stroke="#bfbfbf" points="755,-0.5 755,-19.5 799,-19.5 799,-0.5 755,-0.5"/>
<text text-anchor="middle" x="777" y="-7.5" font-family="Helvetica,sans-Serif" font-size="10.00">vector</text>
</a>
</g>
</g>
<!-- Node1&#45;&gt;Node9 -->
<g id="edge80" class="edge">
<title>Node1&#45;&gt;Node9</title>
<path fill="none" stroke="midnightblue" d="M1340.67,-405.86C1408.5,-395.3 1508,-366.88 1508,-291 1508,-291 1508,-291 1508,-121 1508,-64.6 1452.89,-72.64 1399,-56 1149.26,21.11 1070.19,-60.73 812,-20 811.08,-19.85 810.15,-19.7 809.21,-19.53"/>
<polygon fill="midnightblue" stroke="midnightblue" points="809.6,-16.03 799.09,-17.36 808.13,-22.87 809.6,-16.03"/>
</g>
<!-- Node12 -->
<g id="node12" class="node">
<title>Node12</title>
<g id="a_node12"><a xlink:href="Ioss__Utils_8h.html" target="_top" xlink:title=" ">
<polygon fill="white" stroke="black" points="965.5,-224.5 965.5,-243.5 1034.5,-243.5 1034.5,-224.5 965.5,-224.5"/>
<text text-anchor="middle" x="1000" y="-231.5" font-family="Helvetica,sans-Serif" font-size="10.00">Ioss_Utils.h</text>
</a>
</g>
</g>
<!-- Node1&#45;&gt;Node12 -->
<g id="edge66" class="edge">
<title>Node1&#45;&gt;Node12</title>
<path fill="none" stroke="midnightblue" d="M1265.54,-403.46C1220.99,-375.2 1077.96,-284.46 1022.38,-249.2"/>
<polygon fill="midnightblue" stroke="midnightblue" points="1023.97,-246.06 1013.65,-243.66 1020.22,-251.97 1023.97,-246.06"/>
</g>
<!-- Node16 -->
<g id="node16" class="node">
<title>Node16</title>
<g id="a_node16"><a xlink:title=" ">
<polygon fill="white" stroke="#bfbfbf" points="278.5,-56.5 278.5,-75.5 313.5,-75.5 313.5,-56.5 278.5,-56.5"/>
<text text-anchor="middle" x="296" y="-63.5" font-family="Helvetica,sans-Serif" font-size="10.00">map</text>
</a>
</g>
</g>
<!-- Node1&#45;&gt;Node16 -->
<g id="edge76" class="edge">
<title>Node1&#45;&gt;Node16</title>
<path fill="none" stroke="midnightblue" d="M1217.3,-411.44C1013.65,-409.3 370.9,-399.96 284,-367 233.77,-347.95 190,-344.72 190,-291 190,-291 190,-291 190,-177 190,-131.33 237.95,-97.33 269.35,-79.97"/>
<polygon fill="midnightblue" stroke="midnightblue" points="271.3,-82.9 278.5,-75.12 268.02,-76.71 271.3,-82.9"/>
</g>
<!-- Node22 -->
<g id="node22" class="node">
<title>Node22</title>
<g id="a_node22"><a xlink:title=" ">
<polygon fill="white" stroke="#bfbfbf" points="1238,-56.5 1238,-75.5 1294,-75.5 1294,-56.5 1238,-56.5"/>
<text text-anchor="middle" x="1266" y="-63.5" font-family="Helvetica,sans-Serif" font-size="10.00">algorithm</text>
</a>
</g>
</g>
<!-- Node1&#45;&gt;Node22 -->
<g id="edge68" class="edge">
<title>Node1&#45;&gt;Node22</title>
<path fill="none" stroke="midnightblue" d="M1308.5,-403.46C1352.96,-388.56 1432,-353.31 1432,-291 1432,-291 1432,-291 1432,-233 1432,-202.9 1430.65,-192.38 1413,-168 1404.34,-156.04 1327,-105.85 1288.12,-81.02"/>
<polygon fill="midnightblue" stroke="midnightblue" points="1289.88,-77.99 1279.56,-75.58 1286.12,-83.9 1289.88,-77.99"/>
</g>
<!-- Node25 -->
<g id="node25" class="node">
<title>Node25</title>
<g id="a_node25"><a xlink:title=" ">
<polygon fill="white" stroke="#bfbfbf" points="1350,-56.5 1350,-75.5 1390,-75.5 1390,-56.5 1350,-56.5"/>
<text text-anchor="middle" x="1370" y="-63.5" font-family="Helvetica,sans-Serif" font-size="10.00">utility</text>
</a>
</g>
</g>
<!-- Node1&#45;&gt;Node25 -->
<g id="edge79" class="edge">
<title>Node1&#45;&gt;Node25</title>
<path fill="none" stroke="midnightblue" d="M1326.7,-403.39C1383.28,-390.11 1470,-358.71 1470,-291 1470,-291 1470,-291 1470,-233 1470,-169.65 1415.9,-109.68 1387.28,-82.4"/>
<polygon fill="midnightblue" stroke="midnightblue" points="1389.66,-79.83 1379.95,-75.59 1384.9,-84.96 1389.66,-79.83"/>
</g>
<!-- Node26 -->
<g id="node26" class="node">
<title>Node26</title>
<g id="a_node26"><a xlink:title=" ">
<polygon fill="white" stroke="#bfbfbf" points="1228.5,-168.5 1228.5,-187.5 1277.5,-187.5 1277.5,-168.5 1228.5,-168.5"/>
<text text-anchor="middle" x="1253" y="-175.5" font-family="Helvetica,sans-Serif" font-size="10.00">cassert</text>
</a>
</g>
</g>
<!-- Node1&#45;&gt;Node26 -->
<g id="edge69" class="edge">
<title>Node1&#45;&gt;Node26</title>
<path fill="none" stroke="midnightblue" d="M1278.04,-403.43C1274.29,-369.75 1260.48,-245.99 1255.13,-198.1"/>
<polygon fill="midnightblue" stroke="midnightblue" points="1258.58,-197.45 1253.99,-187.9 1251.62,-198.22 1258.58,-197.45"/>
</g>
<!-- Node27 -->
<g id="node27" class="node">
<title>Node27</title>
<g id="a_node27"><a xlink:title=" ">
<polygon fill="white" stroke="#bfbfbf" points="1296,-168.5 1296,-187.5 1340,-187.5 1340,-168.5 1296,-168.5"/>
<text text-anchor="middle" x="1318" y="-175.5" font-family="Helvetica,sans-Serif" font-size="10.00">cmath</text>
</a>
</g>
</g>
<!-- Node1&#45;&gt;Node27 -->
<g id="edge70" class="edge">
<title>Node1&#45;&gt;Node27</title>
<path fill="none" stroke="midnightblue" d="M1280.43,-403.43C1286.08,-369.68 1306.87,-245.47 1314.85,-197.8"/>
<polygon fill="midnightblue" stroke="midnightblue" points="1318.31,-198.34 1316.51,-187.9 1311.41,-197.18 1318.31,-198.34"/>
</g>
<!-- Node28 -->
<g id="node28" class="node">
<title>Node28</title>
<g id="a_node28"><a xlink:title=" ">
<polygon fill="white" stroke="#bfbfbf" points="1358.5,-168.5 1358.5,-187.5 1403.5,-187.5 1403.5,-168.5 1358.5,-168.5"/>
<text text-anchor="middle" x="1381" y="-175.5" font-family="Helvetica,sans-Serif" font-size="10.00">cstdlib</text>
</a>
</g>
</g>
<!-- Node1&#45;&gt;Node28 -->
<g id="edge73" class="edge">
<title>Node1&#45;&gt;Node28</title>
<path fill="none" stroke="midnightblue" d="M1283.85,-403.5C1288.89,-394.54 1296.87,-379.97 1303,-367 1331.89,-305.89 1361.16,-231.13 1374.11,-197.25"/>
<polygon fill="midnightblue" stroke="midnightblue" points="1377.44,-198.34 1377.72,-187.75 1370.89,-195.85 1377.44,-198.34"/>
</g>
<!-- Node31 -->
<g id="node31" class="node">
<title>Node31</title>
<g id="a_node31"><a xlink:title=" ">
<polygon fill="white" stroke="#bfbfbf" points="794,-224.5 794,-243.5 840,-243.5 840,-224.5 794,-224.5"/>
<text text-anchor="middle" x="817" y="-231.5" font-family="Helvetica,sans-Serif" font-size="10.00">cstring</text>
</a>
</g>
</g>
<!-- Node1&#45;&gt;Node31 -->
<g id="edge74" class="edge">
<title>Node1&#45;&gt;Node31</title>
<path fill="none" stroke="midnightblue" d="M1255.97,-403.44C1231.79,-394.43 1192.69,-379.82 1159,-367 1044.33,-323.37 908.44,-270.6 848.3,-247.2"/>
<polygon fill="midnightblue" stroke="midnightblue" points="849.57,-243.93 838.98,-243.57 847.03,-250.46 849.57,-243.93"/>
</g>
<!-- Node32 -->
<g id="node32" class="node">
<title>Node32</title>
<g id="a_node32"><a xlink:href="Ioss__ConstructedVariableType_8h.html" target="_top" xlink:title=" ">
<polygon fill="white" stroke="black" points="463,-336.5 463,-366.5 591,-366.5 591,-336.5 463,-336.5"/>
<text text-anchor="start" x="471" y="-354.5" font-family="Helvetica,sans-Serif" font-size="10.00">Ioss_ConstructedVariable</text>
<text text-anchor="middle" x="527" y="-343.5" font-family="Helvetica,sans-Serif" font-size="10.00">Type.h</text>
</a>
</g>
</g>
<!-- Node1&#45;&gt;Node32 -->
<g id="edge59" class="edge">
<title>Node1&#45;&gt;Node32</title>
<path fill="none" stroke="midnightblue" d="M1217.43,-410.3C1098.61,-406.49 829.57,-395.27 605,-367 603.73,-366.84 602.45,-366.67 601.17,-366.5"/>
<polygon fill="midnightblue" stroke="midnightblue" points="601.58,-363.02 591.18,-365.05 600.57,-369.95 601.58,-363.02"/>
</g>
<!-- Node33 -->
<g id="node33" class="node">
<title>Node33</title>
<g id="a_node33"><a xlink:href="Ioss__NamedSuffixVariableType_8h.html" target="_top" xlink:title=" ">
<polygon fill="white" stroke="black" points="647,-336.5 647,-366.5 779,-366.5 779,-336.5 647,-336.5"/>
<text text-anchor="start" x="655" y="-354.5" font-family="Helvetica,sans-Serif" font-size="10.00">Ioss_NamedSuffixVariable</text>
<text text-anchor="middle" x="713" y="-343.5" font-family="Helvetica,sans-Serif" font-size="10.00">Type.h</text>
</a>
</g>
</g>
<!-- Node1&#45;&gt;Node33 -->
<g id="edge62" class="edge">
<title>Node1&#45;&gt;Node33</title>
<path fill="none" stroke="midnightblue" d="M1217.35,-405.52C1113.19,-394.57 902.69,-372.44 789.36,-360.53"/>
<polygon fill="midnightblue" stroke="midnightblue" points="789.68,-357.04 779.37,-359.48 788.95,-364 789.68,-357.04"/>
</g>
<!-- Node34 -->
<g id="node34" class="node">
<title>Node34</title>
<g id="a_node34"><a xlink:title=" ">
<polygon fill="white" stroke="#bfbfbf" points="1574.5,-342 1574.5,-361 1617.5,-361 1617.5,-342 1574.5,-342"/>
<text text-anchor="middle" x="1596" y="-349" font-family="Helvetica,sans-Serif" font-size="10.00">cstdio</text>
</a>
</g>
</g>
<!-- Node1&#45;&gt;Node34 -->
<g id="edge72" class="edge">
<title>Node1&#45;&gt;Node34</title>
<path fill="none" stroke="midnightblue" d="M1340.69,-406.14C1398.2,-399.74 1485.97,-387.55 1560,-367 1562.44,-366.32 1564.95,-365.53 1567.44,-364.67"/>
<polygon fill="midnightblue" stroke="midnightblue" points="1568.71,-367.93 1576.85,-361.14 1566.25,-361.38 1568.71,-367.93"/>
</g>
<!-- Node35 -->
<g id="node35" class="node">
<title>Node35</title>
<g id="a_node35"><a xlink:title=" ">
<polygon fill="white" stroke="#bfbfbf" points="1635.5,-342 1635.5,-361 1712.5,-361 1712.5,-342 1635.5,-342"/>
<text text-anchor="middle" x="1674" y="-349" font-family="Helvetica,sans-Serif" font-size="10.00">fmt/ostream.h</text>
</a>
</g>
</g>
<!-- Node1&#45;&gt;Node35 -->
<g id="edge75" class="edge">
<title>Node1&#45;&gt;Node35</title>
<path fill="none" stroke="midnightblue" d="M1340.52,-407.24C1410.49,-401.09 1527.88,-388.53 1627,-367 1630.92,-366.15 1634.99,-365.12 1639.02,-364.01"/>
<polygon fill="midnightblue" stroke="midnightblue" points="1640.23,-367.3 1648.84,-361.13 1638.26,-360.58 1640.23,-367.3"/>
</g>
<!-- Node36 -->
<g id="node36" class="node">
<title>Node36</title>
<g id="a_node36"><a xlink:title=" ">
<polygon fill="white" stroke="#bfbfbf" points="1731,-342 1731,-361 1783,-361 1783,-342 1731,-342"/>
<text text-anchor="middle" x="1757" y="-349" font-family="Helvetica,sans-Serif" font-size="10.00">sstream</text>
</a>
</g>
</g>
<!-- Node1&#45;&gt;Node36 -->
<g id="edge77" class="edge">
<title>Node1&#45;&gt;Node36</title>
<path fill="none" stroke="midnightblue" d="M1340.52,-411.37C1426.98,-409.23 1588.76,-400.6 1722,-367 1724.51,-366.37 1727.08,-365.59 1729.62,-364.72"/>
<polygon fill="midnightblue" stroke="midnightblue" points="1731.09,-367.9 1739.18,-361.06 1728.59,-361.37 1731.09,-367.9"/>
</g>
<!-- Node2&#45;&gt;Node3 -->
<g id="edge2" class="edge">
<title>Node2&#45;&gt;Node3</title>
<path fill="none" stroke="midnightblue" d="M399.23,-341.98C436.29,-331.53 499.19,-313.79 540.16,-302.23"/>
<polygon fill="midnightblue" stroke="midnightblue" points="541.15,-305.59 549.82,-299.51 539.25,-298.85 541.15,-305.59"/>
</g>
<!-- Node2&#45;&gt;Node8 -->
<g id="edge58" class="edge">
<title>Node2&#45;&gt;Node8</title>
<path fill="none" stroke="midnightblue" d="M292.87,-346.62C213.61,-341.11 96.31,-328.32 62,-300 38.25,-280.4 38,-265.8 38,-235 38,-235 38,-235 38,-121 38,-90.2 38.97,-76.44 62,-56 85.1,-35.49 172.18,-21.21 219.29,-14.8"/>
<polygon fill="midnightblue" stroke="midnightblue" points="219.79,-18.27 229.25,-13.49 218.88,-11.33 219.79,-18.27"/>
</g>
<!-- Node4 -->
<g id="node4" class="node">
<title>Node4</title>
<g id="a_node4"><a xlink:href="Ioss__CodeTypes_8h.html" target="_top" xlink:title=" ">
<polygon fill="white" stroke="black" points="572,-56.5 572,-75.5 670,-75.5 670,-56.5 572,-56.5"/>
<text text-anchor="middle" x="621" y="-63.5" font-family="Helvetica,sans-Serif" font-size="10.00">Ioss_CodeTypes.h</text>
</a>
</g>
</g>
<!-- Node3&#45;&gt;Node4 -->
<g id="edge3" class="edge">
<title>Node3&#45;&gt;Node4</title>
<path fill="none" stroke="midnightblue" d="M559.2,-280.45C518.69,-262.48 435.49,-218.23 463,-168 464.9,-164.52 555.32,-107.91 598.5,-81"/>
<polygon fill="midnightblue" stroke="midnightblue" points="600.55,-83.84 607.19,-75.59 596.85,-77.9 600.55,-83.84"/>
</g>
<!-- Node3&#45;&gt;Node8 -->
<g id="edge56" class="edge">
<title>Node3&#45;&gt;Node8</title>
<path fill="none" stroke="midnightblue" d="M527.95,-286.55C413.88,-279.76 152,-255.82 152,-179 152,-179 152,-179 152,-121 152,-77.38 195.49,-43.06 224.53,-25.01"/>
<polygon fill="midnightblue" stroke="midnightblue" points="226.58,-27.86 233.38,-19.73 223,-21.85 226.58,-27.86"/>
</g>
<!-- Node3&#45;&gt;Node9 -->
<g id="edge57" class="edge">
<title>Node3&#45;&gt;Node9</title>
<path fill="none" stroke="midnightblue" d="M586.11,-280.38C613.8,-241.3 727.77,-80.48 765.1,-27.79"/>
<polygon fill="midnightblue" stroke="midnightblue" points="768.03,-29.71 770.96,-19.52 762.32,-25.66 768.03,-29.71"/>
</g>
<!-- Node3&#45;&gt;Node12 -->
<g id="edge11" class="edge">
<title>Node3&#45;&gt;Node12</title>
<path fill="none" stroke="midnightblue" d="M632.34,-282.27C715.68,-271.56 877.09,-250.8 955.32,-240.74"/>
<polygon fill="midnightblue" stroke="midnightblue" points="955.87,-244.2 965.35,-239.46 954.98,-237.26 955.87,-244.2"/>
</g>
<!-- Node3&#45;&gt;Node16 -->
<g id="edge55" class="edge">
<title>Node3&#45;&gt;Node16</title>
<path fill="none" stroke="midnightblue" d="M546.33,-280.4C486.91,-263.29 364.4,-218.9 308,-132 299.12,-118.31 296.4,-99.78 295.74,-86"/>
<polygon fill="midnightblue" stroke="midnightblue" points="299.24,-85.71 295.58,-75.76 292.24,-85.82 299.24,-85.71"/>
</g>
<!-- Node23 -->
<g id="node23" class="node">
<title>Node23</title>
<g id="a_node23"><a xlink:title=" ">
<polygon fill="white" stroke="#bfbfbf" points="980.5,-56.5 980.5,-75.5 1039.5,-75.5 1039.5,-56.5 980.5,-56.5"/>
<text text-anchor="middle" x="1010" y="-63.5" font-family="Helvetica,sans-Serif" font-size="10.00">functional</text>
</a>
</g>
</g>
<!-- Node3&#45;&gt;Node23 -->
<g id="edge54" class="edge">
<title>Node3&#45;&gt;Node23</title>
<path fill="none" stroke="midnightblue" d="M591.6,-280.29C624.92,-255.4 720.8,-184.63 756,-168 808.27,-143.3 827.17,-153.1 881,-132 919.09,-117.07 961.03,-94.77 986.44,-80.55"/>
<polygon fill="midnightblue" stroke="midnightblue" points="988.34,-83.5 995.32,-75.54 984.89,-77.41 988.34,-83.5"/>
</g>
<!-- Node3&#45;&gt;Node31 -->
<g id="edge53" class="edge">
<title>Node3&#45;&gt;Node31</title>
<path fill="none" stroke="midnightblue" d="M617.55,-280.44C663.47,-269.98 740.45,-252.44 784.13,-242.49"/>
<polygon fill="midnightblue" stroke="midnightblue" points="784.98,-245.88 793.96,-240.25 783.43,-239.06 784.98,-245.88"/>
</g>
<!-- Node5 -->
<g id="node5" class="node">
<title>Node5</title>
<g id="a_node5"><a xlink:title=" ">
<polygon fill="white" stroke="#bfbfbf" points="565,-0.5 565,-19.5 603,-19.5 603,-0.5 565,-0.5"/>
<text text-anchor="middle" x="584" y="-7.5" font-family="Helvetica,sans-Serif" font-size="10.00">array</text>
</a>
</g>
</g>
<!-- Node4&#45;&gt;Node5 -->
<g id="edge4" class="edge">
<title>Node4&#45;&gt;Node5</title>
<path fill="none" stroke="midnightblue" d="M614.89,-56.08C609.72,-48.53 602.15,-37.49 595.81,-28.23"/>
<polygon fill="midnightblue" stroke="midnightblue" points="598.54,-26.02 590,-19.75 592.76,-29.98 598.54,-26.02"/>
</g>
<!-- Node4&#45;&gt;Node6 -->
<g id="edge5" class="edge">
<title>Node4&#45;&gt;Node6</title>
<path fill="none" stroke="midnightblue" d="M670.09,-60.35C782.92,-49.66 1058.52,-23.55 1156.07,-14.31"/>
<polygon fill="midnightblue" stroke="midnightblue" points="1156.65,-17.77 1166.28,-13.34 1155.99,-10.8 1156.65,-17.77"/>
</g>
<!-- Node7 -->
<g id="node7" class="node">
<title>Node7</title>
<g id="a_node7"><a xlink:title=" ">
<polygon fill="white" stroke="#bfbfbf" points="821,-0.5 821,-19.5 867,-19.5 867,-0.5 821,-0.5"/>
<text text-anchor="middle" x="844" y="-7.5" font-family="Helvetica,sans-Serif" font-size="10.00">cstdint</text>
</a>
</g>
</g>
<!-- Node4&#45;&gt;Node7 -->
<g id="edge6" class="edge">
<title>Node4&#45;&gt;Node7</title>
<path fill="none" stroke="midnightblue" d="M656.87,-56.47C694.53,-47.49 755.46,-32.89 808,-20 808.9,-19.78 809.82,-19.55 810.74,-19.33"/>
<polygon fill="midnightblue" stroke="midnightblue" points="811.9,-22.64 820.77,-16.84 810.22,-15.85 811.9,-22.64"/>
</g>
<!-- Node4&#45;&gt;Node8 -->
<g id="edge7" class="edge">
<title>Node4&#45;&gt;Node8</title>
<path fill="none" stroke="midnightblue" d="M571.73,-57.83C494.04,-46.52 345.27,-24.87 280.92,-15.5"/>
<polygon fill="midnightblue" stroke="midnightblue" points="281.03,-11.98 270.63,-14 280.02,-18.91 281.03,-11.98"/>
</g>
<!-- Node4&#45;&gt;Node9 -->
<g id="edge8" class="edge">
<title>Node4&#45;&gt;Node9</title>
<path fill="none" stroke="midnightblue" d="M645.72,-56.44C672.62,-47.13 715.71,-32.22 745.13,-22.03"/>
<polygon fill="midnightblue" stroke="midnightblue" points="746.61,-25.22 754.92,-18.64 744.32,-18.61 746.61,-25.22"/>
</g>
<!-- Node10 -->
<g id="node10" class="node">
<title>Node10</title>
<g id="a_node10"><a xlink:title=" ">
<polygon fill="white" stroke="#bfbfbf" points="621,-0.5 621,-19.5 737,-19.5 737,-0.5 621,-0.5"/>
<text text-anchor="middle" x="679" y="-7.5" font-family="Helvetica,sans-Serif" font-size="10.00">SEACASIoss_config.h</text>
</a>
</g>
</g>
<!-- Node4&#45;&gt;Node10 -->
<g id="edge9" class="edge">
<title>Node4&#45;&gt;Node10</title>
<path fill="none" stroke="midnightblue" d="M630.32,-56.32C638.89,-48.34 651.81,-36.31 662.19,-26.65"/>
<polygon fill="midnightblue" stroke="midnightblue" points="664.58,-29.21 669.51,-19.83 659.81,-24.09 664.58,-29.21"/>
</g>
<!-- Node11 -->
<g id="node11" class="node">
<title>Node11</title>
<g id="a_node11"><a xlink:title=" ">
<polygon fill="white" stroke="#bfbfbf" points="493.5,-0.5 493.5,-19.5 546.5,-19.5 546.5,-0.5 493.5,-0.5"/>
<text text-anchor="middle" x="520" y="-7.5" font-family="Helvetica,sans-Serif" font-size="10.00">complex</text>
</a>
</g>
</g>
<!-- Node4&#45;&gt;Node11 -->
<g id="edge10" class="edge">
<title>Node4&#45;&gt;Node11</title>
<path fill="none" stroke="midnightblue" d="M604.77,-56.32C588.65,-47.7 563.7,-34.36 545.04,-24.39"/>
<polygon fill="midnightblue" stroke="midnightblue" points="546.66,-21.28 536.19,-19.65 543.36,-27.46 546.66,-21.28"/>
</g>
<!-- Node12&#45;&gt;Node4 -->
<g id="edge12" class="edge">
<title>Node12&#45;&gt;Node4</title>
<path fill="none" stroke="midnightblue" d="M965.35,-232.6C916.24,-230.75 824.73,-222.47 756,-188 711.58,-165.72 711.17,-144.98 674,-112 662.71,-101.99 649.81,-91.02 639.57,-82.42"/>
<polygon fill="midnightblue" stroke="midnightblue" points="641.59,-79.56 631.67,-75.83 637.1,-84.93 641.59,-79.56"/>
</g>
<!-- Node12&#45;&gt;Node6 -->
<g id="edge46" class="edge">
<title>Node12&#45;&gt;Node6</title>
<path fill="none" stroke="midnightblue" d="M1034.58,-225.59C1069.82,-217.67 1125.85,-204.07 1173,-188 1194.49,-180.68 1199.09,-176.83 1220,-168 1302.41,-133.22 1354.99,-153.87 1399,-76 1403.37,-68.26 1404.58,-62.92 1399,-56 1377.63,-29.51 1279.31,-17.84 1225.85,-13.38"/>
<polygon fill="midnightblue" stroke="midnightblue" points="1226.04,-9.89 1215.79,-12.58 1225.48,-16.86 1226.04,-9.89"/>
</g>
<!-- Node12&#45;&gt;Node7 -->
<g id="edge47" class="edge">
<title>Node12&#45;&gt;Node7</title>
<path fill="none" stroke="midnightblue" d="M1034.26,-224.45C1062.38,-216.78 1102.83,-204.24 1136,-188 1220.98,-146.41 1366.55,-126.09 1303,-56 1274.49,-24.56 978.35,-14.33 877.46,-11.74"/>
<polygon fill="midnightblue" stroke="midnightblue" points="877.31,-8.24 867.23,-11.49 877.14,-15.24 877.31,-8.24"/>
</g>
<!-- Node12&#45;&gt;Node8 -->
<g id="edge51" class="edge">
<title>Node12&#45;&gt;Node8</title>
<path fill="none" stroke="midnightblue" d="M965.33,-230.63C854.3,-222.95 511.9,-198.69 463,-188 391.44,-172.36 366.11,-176.59 308,-132 274.69,-106.44 259.53,-56.88 253.48,-29.8"/>
<polygon fill="midnightblue" stroke="midnightblue" points="256.85,-28.8 251.42,-19.7 249.99,-30.2 256.85,-28.8"/>
</g>
<!-- Node12&#45;&gt;Node9 -->
<g id="edge52" class="edge">
<title>Node12&#45;&gt;Node9</title>
<path fill="none" stroke="midnightblue" d="M997.22,-224.19C987.75,-195.62 954.05,-104.57 895,-56 881.5,-44.9 839.03,-30.16 808.92,-20.63"/>
<polygon fill="midnightblue" stroke="midnightblue" points="809.83,-17.25 799.24,-17.61 807.75,-23.93 809.83,-17.25"/>
</g>
<!-- Node13 -->
<g id="node13" class="node">
<title>Node13</title>
<g id="a_node13"><a xlink:href="Ioss__ElementTopology_8h.html" target="_top" xlink:title=" ">
<polygon fill="white" stroke="black" points="472,-168.5 472,-187.5 594,-187.5 594,-168.5 472,-168.5"/>
<text text-anchor="middle" x="533" y="-175.5" font-family="Helvetica,sans-Serif" font-size="10.00">Ioss_ElementTopology.h</text>
</a>
</g>
</g>
<!-- Node12&#45;&gt;Node13 -->
<g id="edge13" class="edge">
<title>Node12&#45;&gt;Node13</title>
<path fill="none" stroke="midnightblue" d="M965.28,-228.99C889.15,-220.18 706.25,-199.03 604.44,-187.26"/>
<polygon fill="midnightblue" stroke="midnightblue" points="604.58,-183.75 594.25,-186.08 603.78,-190.71 604.58,-183.75"/>
</g>
<!-- Node18 -->
<g id="node18" class="node">
<title>Node18</title>
<g id="a_node18"><a xlink:href="Ioss__Field_8h.html" target="_top" xlink:title=" ">
<polygon fill="white" stroke="black" points="802,-112.5 802,-131.5 872,-131.5 872,-112.5 802,-112.5"/>
<text text-anchor="middle" x="837" y="-119.5" font-family="Helvetica,sans-Serif" font-size="10.00">Ioss_Field.h</text>
</a>
</g>
</g>
<!-- Node12&#45;&gt;Node18 -->
<g id="edge25" class="edge">
<title>Node12&#45;&gt;Node18</title>
<path fill="none" stroke="midnightblue" d="M965.25,-228.09C937.06,-222.55 897.75,-211.1 871,-188 856.87,-175.8 847.77,-156.25 842.58,-141.77"/>
<polygon fill="midnightblue" stroke="midnightblue" points="845.78,-140.32 839.35,-131.9 839.13,-142.49 845.78,-140.32"/>
</g>
<!-- Node19 -->
<g id="node19" class="node">
<title>Node19</title>
<g id="a_node19"><a xlink:href="Ioss__Property_8h.html" target="_top" xlink:title=" ">
<polygon fill="white" stroke="black" points="802,-56.5 802,-75.5 886,-75.5 886,-56.5 802,-56.5"/>
<text text-anchor="middle" x="844" y="-63.5" font-family="Helvetica,sans-Serif" font-size="10.00">Ioss_Property.h</text>
</a>
</g>
</g>
<!-- Node12&#45;&gt;Node19 -->
<g id="edge30" class="edge">
<title>Node12&#45;&gt;Node19</title>
<path fill="none" stroke="midnightblue" d="M992.77,-224.45C982.09,-211.9 961.37,-187.81 943,-168 914.53,-137.3 880.07,-102.69 860.22,-83"/>
<polygon fill="midnightblue" stroke="midnightblue" points="862.48,-80.3 852.91,-75.76 857.55,-85.28 862.48,-80.3"/>
</g>
<!-- Node20 -->
<g id="node20" class="node">
<title>Node20</title>
<g id="a_node20"><a xlink:href="Ioss__Sort_8h.html" target="_top" xlink:title=" ">
<polygon fill="white" stroke="black" points="1028.5,-168.5 1028.5,-187.5 1095.5,-187.5 1095.5,-168.5 1028.5,-168.5"/>
<text text-anchor="middle" x="1062" y="-175.5" font-family="Helvetica,sans-Serif" font-size="10.00">Ioss_Sort.h</text>
</a>
</g>
</g>
<!-- Node12&#45;&gt;Node20 -->
<g id="edge34" class="edge">
<title>Node12&#45;&gt;Node20</title>
<path fill="none" stroke="midnightblue" d="M1009.96,-224.32C1019.13,-216.34 1032.94,-204.31 1044.03,-194.65"/>
<polygon fill="midnightblue" stroke="midnightblue" points="1046.62,-197.04 1051.86,-187.83 1042.02,-191.76 1046.62,-197.04"/>
</g>
<!-- Node12&#45;&gt;Node22 -->
<g id="edge43" class="edge">
<title>Node12&#45;&gt;Node22</title>
<path fill="none" stroke="midnightblue" d="M1023.51,-224.35C1045.18,-216.05 1077.97,-202.64 1105,-188 1144.45,-166.63 1153.13,-158.96 1189,-132 1210.24,-116.04 1233.38,-96.14 1248.69,-82.59"/>
<polygon fill="midnightblue" stroke="midnightblue" points="1251.19,-85.05 1256.33,-75.78 1246.53,-79.82 1251.19,-85.05"/>
</g>
<!-- Node12&#45;&gt;Node26 -->
<g id="edge44" class="edge">
<title>Node12&#45;&gt;Node26</title>
<path fill="none" stroke="midnightblue" d="M1034.51,-225.96C1076.85,-217.27 1150.79,-201.94 1214,-188 1215.44,-187.68 1216.91,-187.35 1218.4,-187.02"/>
<polygon fill="midnightblue" stroke="midnightblue" points="1219.28,-190.41 1228.26,-184.79 1217.73,-183.58 1219.28,-190.41"/>
</g>
<!-- Node12&#45;&gt;Node27 -->
<g id="edge45" class="edge">
<title>Node12&#45;&gt;Node27</title>
<path fill="none" stroke="midnightblue" d="M1034.72,-229C1087.16,-222.65 1189.8,-209 1285.86,-188.02"/>
<polygon fill="midnightblue" stroke="midnightblue" points="1286.73,-191.41 1295.74,-185.83 1285.22,-184.58 1286.73,-191.41"/>
</g>
<!-- Node12&#45;&gt;Node28 -->
<g id="edge48" class="edge">
<title>Node12&#45;&gt;Node28</title>
<path fill="none" stroke="midnightblue" d="M1034.95,-230.19C1096.39,-224.9 1227.82,-211.93 1348.25,-187.86"/>
<polygon fill="midnightblue" stroke="midnightblue" points="1349.27,-191.22 1358.37,-185.8 1347.88,-184.36 1349.27,-191.22"/>
</g>
<!-- Node29 -->
<g id="node29" class="node">
<title>Node29</title>
<g id="a_node29"><a xlink:title=" ">
<polygon fill="white" stroke="#bfbfbf" points="880,-168.5 880,-187.5 934,-187.5 934,-168.5 880,-168.5"/>
<text text-anchor="middle" x="907" y="-175.5" font-family="Helvetica,sans-Serif" font-size="10.00">iostream</text>
</a>
</g>
</g>
<!-- Node12&#45;&gt;Node29 -->
<g id="edge49" class="edge">
<title>Node12&#45;&gt;Node29</title>
<path fill="none" stroke="midnightblue" d="M985.06,-224.32C970.41,-215.82 947.87,-202.73 930.76,-192.8"/>
<polygon fill="midnightblue" stroke="midnightblue" points="932.31,-189.65 921.9,-187.65 928.8,-195.7 932.31,-189.65"/>
</g>
<!-- Node30 -->
<g id="node30" class="node">
<title>Node30</title>
<g id="a_node30"><a xlink:title=" ">
<polygon fill="white" stroke="#bfbfbf" points="764.5,-168.5 764.5,-187.5 823.5,-187.5 823.5,-168.5 764.5,-168.5"/>
<text text-anchor="middle" x="794" y="-175.5" font-family="Helvetica,sans-Serif" font-size="10.00">stdexcept</text>
</a>
</g>
</g>
<!-- Node12&#45;&gt;Node30 -->
<g id="edge50" class="edge">
<title>Node12&#45;&gt;Node30</title>
<path fill="none" stroke="midnightblue" d="M967.36,-224.44C931.12,-214.94 872.61,-199.61 833.74,-189.42"/>
<polygon fill="midnightblue" stroke="midnightblue" points="834.37,-185.97 823.81,-186.82 832.6,-192.74 834.37,-185.97"/>
</g>
<!-- Node13&#45;&gt;Node4 -->
<g id="edge14" class="edge">
<title>Node13&#45;&gt;Node4</title>
<path fill="none" stroke="midnightblue" d="M539.91,-168.37C554.49,-150.14 588.66,-107.43 607.66,-83.68"/>
<polygon fill="midnightblue" stroke="midnightblue" points="610.61,-85.59 614.13,-75.59 605.15,-81.21 610.61,-85.59"/>
</g>
<!-- Node13&#45;&gt;Node8 -->
<g id="edge23" class="edge">
<title>Node13&#45;&gt;Node8</title>
<path fill="none" stroke="midnightblue" d="M471.76,-173.28C436.16,-168.33 392.29,-157.11 361,-132 331.39,-108.24 347.69,-83.96 322,-56 309.81,-42.73 292.85,-31.88 278.45,-24.15"/>
<polygon fill="midnightblue" stroke="midnightblue" points="279.93,-20.98 269.43,-19.54 276.74,-27.21 279.93,-20.98"/>
</g>
<!-- Node13&#45;&gt;Node9 -->
<g id="edge24" class="edge">
<title>Node13&#45;&gt;Node9</title>
<path fill="none" stroke="midnightblue" d="M560.97,-168.45C583.61,-160.82 615.76,-148.33 641,-132 682.45,-105.19 684.88,-88.54 722,-56 733.71,-45.73 747.25,-34.65 757.96,-26.05"/>
<polygon fill="midnightblue" stroke="midnightblue" points="760.23,-28.72 765.86,-19.75 755.86,-23.25 760.23,-28.72"/>
</g>
<!-- Node14 -->
<g id="node14" class="node">
<title>Node14</title>
<g id="a_node14"><a xlink:href="Ioss__ElementPermutation_8h.html" target="_top" xlink:title=" ">
<polygon fill="white" stroke="black" points="370.5,-112.5 370.5,-131.5 507.5,-131.5 507.5,-112.5 370.5,-112.5"/>
<text text-anchor="middle" x="439" y="-119.5" font-family="Helvetica,sans-Serif" font-size="10.00">Ioss_ElementPermutation.h</text>
</a>
</g>
</g>
<!-- Node13&#45;&gt;Node14 -->
<g id="edge15" class="edge">
<title>Node13&#45;&gt;Node14</title>
<path fill="none" stroke="midnightblue" d="M517.9,-168.32C503.1,-159.82 480.31,-146.73 463.02,-136.8"/>
<polygon fill="midnightblue" stroke="midnightblue" points="464.48,-133.6 454.07,-131.65 460.99,-139.67 464.48,-133.6"/>
</g>
<!-- Node13&#45;&gt;Node16 -->
<g id="edge21" class="edge">
<title>Node13&#45;&gt;Node16</title>
<path fill="none" stroke="midnightblue" d="M471.82,-169.5C419.78,-162.08 350.08,-149.31 328,-132 313.33,-120.5 304.92,-100.53 300.44,-85.75"/>
<polygon fill="midnightblue" stroke="midnightblue" points="303.71,-84.44 297.74,-75.69 296.95,-86.25 303.71,-84.44"/>
</g>
<!-- Node17 -->
<g id="node17" class="node">
<title>Node17</title>
<g id="a_node17"><a xlink:title=" ">
<polygon fill="white" stroke="#bfbfbf" points="602,-112.5 602,-131.5 632,-131.5 632,-112.5 602,-112.5"/>
<text text-anchor="middle" x="617" y="-119.5" font-family="Helvetica,sans-Serif" font-size="10.00">set</text>
</a>
</g>
</g>
<!-- Node13&#45;&gt;Node17 -->
<g id="edge22" class="edge">
<title>Node13&#45;&gt;Node17</title>
<path fill="none" stroke="midnightblue" d="M546.5,-168.32C559.6,-159.9 579.71,-146.97 595.11,-137.07"/>
<polygon fill="midnightblue" stroke="midnightblue" points="597.02,-140.01 603.54,-131.65 593.23,-134.12 597.02,-140.01"/>
</g>
<!-- Node14&#45;&gt;Node4 -->
<g id="edge16" class="edge">
<title>Node14&#45;&gt;Node4</title>
<path fill="none" stroke="midnightblue" d="M467.84,-112.44C498.86,-103.24 548.33,-88.56 582.62,-78.39"/>
<polygon fill="midnightblue" stroke="midnightblue" points="583.71,-81.72 592.3,-75.52 581.71,-75.01 583.71,-81.72"/>
</g>
<!-- Node14&#45;&gt;Node8 -->
<g id="edge19" class="edge">
<title>Node14&#45;&gt;Node8</title>
<path fill="none" stroke="midnightblue" d="M429.4,-112.09C414.54,-98.64 384.69,-72.92 356,-56 331.77,-41.71 302.15,-29.53 280.39,-21.46"/>
<polygon fill="midnightblue" stroke="midnightblue" points="281.28,-18.07 270.69,-17.95 278.9,-24.65 281.28,-18.07"/>
</g>
<!-- Node14&#45;&gt;Node9 -->
<g id="edge20" class="edge">
<title>Node14&#45;&gt;Node9</title>
<path fill="none" stroke="midnightblue" d="M452.18,-112.45C474.22,-98.52 520.36,-71.01 563,-56 638.13,-29.55 663.47,-38.77 744.54,-20.14"/>
<polygon fill="midnightblue" stroke="midnightblue" points="745.79,-23.44 754.71,-17.73 744.17,-16.63 745.79,-23.44"/>
</g>
<!-- Node15 -->
<g id="node15" class="node">
<title>Node15</title>
<g id="a_node15"><a xlink:title=" ">
<polygon fill="white" stroke="#bfbfbf" points="413,-56.5 413,-75.5 465,-75.5 465,-56.5 413,-56.5"/>
<text text-anchor="middle" x="439" y="-63.5" font-family="Helvetica,sans-Serif" font-size="10.00">assert.h</text>
</a>
</g>
</g>
<!-- Node14&#45;&gt;Node15 -->
<g id="edge17" class="edge">
<title>Node14&#45;&gt;Node15</title>
<path fill="none" stroke="midnightblue" d="M439,-112.08C439,-105.01 439,-94.86 439,-85.99"/>
<polygon fill="midnightblue" stroke="midnightblue" points="442.5,-85.75 439,-75.75 435.5,-85.75 442.5,-85.75"/>
</g>
<!-- Node14&#45;&gt;Node16 -->
<g id="edge18" class="edge">
<title>Node14&#45;&gt;Node16</title>
<path fill="none" stroke="midnightblue" d="M416.34,-112.44C391.06,-102.9 350.18,-87.46 323.19,-77.27"/>
<polygon fill="midnightblue" stroke="midnightblue" points="324.19,-73.9 313.59,-73.64 321.71,-80.45 324.19,-73.9"/>
</g>
<!-- Node18&#45;&gt;Node4 -->
<g id="edge26" class="edge">
<title>Node18&#45;&gt;Node4</title>
<path fill="none" stroke="midnightblue" d="M802.77,-112.44C765.49,-103.12 705.73,-88.18 664.99,-78"/>
<polygon fill="midnightblue" stroke="midnightblue" points="665.62,-74.55 655.07,-75.52 663.92,-81.34 665.62,-74.55"/>
</g>
<!-- Node18&#45;&gt;Node6 -->
<g id="edge27" class="edge">
<title>Node18&#45;&gt;Node6</title>
<path fill="none" stroke="midnightblue" d="M851.87,-112.33C876.21,-98.49 926.41,-71.4 972,-56 1035.19,-34.66 1112.22,-21.69 1156.04,-15.47"/>
<polygon fill="midnightblue" stroke="midnightblue" points="1156.75,-18.91 1166.17,-14.07 1155.79,-11.98 1156.75,-18.91"/>
</g>
<!-- Node18&#45;&gt;Node8 -->
<g id="edge28" class="edge">
<title>Node18&#45;&gt;Node8</title>
<path fill="none" stroke="midnightblue" d="M801.85,-115.9C749.6,-108.16 648.42,-92.6 563,-76 523.2,-68.27 513.65,-64.44 474,-56 405,-41.32 323.77,-25.32 280.6,-16.92"/>
<polygon fill="midnightblue" stroke="midnightblue" points="281.21,-13.47 270.72,-15 279.87,-20.34 281.21,-13.47"/>
</g>
<!-- Node18&#45;&gt;Node9 -->
<g id="edge29" class="edge">
<title>Node18&#45;&gt;Node9</title>
<path fill="none" stroke="midnightblue" d="M825.51,-112.26C815.44,-104 801.18,-90.7 793,-76 784.97,-61.56 780.92,-43.11 778.91,-29.56"/>
<polygon fill="midnightblue" stroke="midnightblue" points="782.37,-29.01 777.66,-19.52 775.42,-29.88 782.37,-29.01"/>
</g>
<!-- Node19&#45;&gt;Node7 -->
<g id="edge31" class="edge">
<title>Node19&#45;&gt;Node7</title>
<path fill="none" stroke="midnightblue" d="M844,-56.08C844,-49.01 844,-38.86 844,-29.99"/>
<polygon fill="midnightblue" stroke="midnightblue" points="847.5,-29.75 844,-19.75 840.5,-29.75 847.5,-29.75"/>
</g>
<!-- Node19&#45;&gt;Node8 -->
<g id="edge32" class="edge">
<title>Node19&#45;&gt;Node8</title>
<path fill="none" stroke="midnightblue" d="M801.76,-61.16C688.46,-50.86 379.73,-22.79 280.88,-13.81"/>
<polygon fill="midnightblue" stroke="midnightblue" points="280.95,-10.3 270.67,-12.88 280.32,-17.27 280.95,-10.3"/>
</g>
<!-- Node19&#45;&gt;Node9 -->
<g id="edge33" class="edge">
<title>Node19&#45;&gt;Node9</title>
<path fill="none" stroke="midnightblue" d="M833.24,-56.32C823.23,-48.26 808.11,-36.08 796.07,-26.37"/>
<polygon fill="midnightblue" stroke="midnightblue" points="797.94,-23.38 787.96,-19.83 793.55,-28.83 797.94,-23.38"/>
</g>
<!-- Node20&#45;&gt;Node6 -->
<g id="edge41" class="edge">
<title>Node20&#45;&gt;Node6</title>
<path fill="none" stroke="midnightblue" d="M1095.7,-171.76C1120.08,-166.16 1151.81,-154.78 1170,-132 1193.64,-102.4 1194.58,-55.59 1192.94,-29.72"/>
<polygon fill="midnightblue" stroke="midnightblue" points="1196.43,-29.42 1192.11,-19.74 1189.45,-30 1196.43,-29.42"/>
</g>
<!-- Node20&#45;&gt;Node9 -->
<g id="edge42" class="edge">
<title>Node20&#45;&gt;Node9</title>
<path fill="none" stroke="midnightblue" d="M1064.22,-168.23C1069.27,-146.06 1078.95,-87.29 1049,-56 1012.16,-17.52 864.2,-30.65 812,-20 811.09,-19.81 810.16,-19.62 809.23,-19.42"/>
<polygon fill="midnightblue" stroke="midnightblue" points="809.67,-15.93 799.14,-17.05 808.08,-22.74 809.67,-15.93"/>
</g>
<!-- Node21 -->
<g id="node21" class="node">
<title>Node21</title>
<g id="a_node21"><a xlink:href="pdqsort_8h.html" target="_top" xlink:title=" ">
<polygon fill="white" stroke="black" points="1103.5,-112.5 1103.5,-131.5 1160.5,-131.5 1160.5,-112.5 1103.5,-112.5"/>
<text text-anchor="middle" x="1132" y="-119.5" font-family="Helvetica,sans-Serif" font-size="10.00">pdqsort.h</text>
</a>
</g>
</g>
<!-- Node20&#45;&gt;Node21 -->
<g id="edge35" class="edge">
<title>Node20&#45;&gt;Node21</title>
<path fill="none" stroke="midnightblue" d="M1073.25,-168.32C1083.8,-160.18 1099.8,-147.84 1112.44,-138.09"/>
<polygon fill="midnightblue" stroke="midnightblue" points="1114.77,-140.71 1120.55,-131.83 1110.49,-135.17 1114.77,-140.71"/>
</g>
<!-- Node21&#45;&gt;Node6 -->
<g id="edge37" class="edge">
<title>Node21&#45;&gt;Node6</title>
<path fill="none" stroke="midnightblue" d="M1136.63,-112.37C1146.28,-94.38 1168.71,-52.55 1181.55,-28.63"/>
<polygon fill="midnightblue" stroke="midnightblue" points="1184.75,-30.06 1186.39,-19.59 1178.58,-26.75 1184.75,-30.06"/>
</g>
<!-- Node21&#45;&gt;Node22 -->
<g id="edge36" class="edge">
<title>Node21&#45;&gt;Node22</title>
<path fill="none" stroke="midnightblue" d="M1153.23,-112.44C1175.38,-103.52 1210.32,-89.44 1235.44,-79.32"/>
<polygon fill="midnightblue" stroke="midnightblue" points="1236.9,-82.5 1244.87,-75.52 1234.28,-76.01 1236.9,-82.5"/>
</g>
<!-- Node21&#45;&gt;Node23 -->
<g id="edge38" class="edge">
<title>Node21&#45;&gt;Node23</title>
<path fill="none" stroke="midnightblue" d="M1112.67,-112.44C1092.68,-103.6 1061.26,-89.69 1038.44,-79.59"/>
<polygon fill="midnightblue" stroke="midnightblue" points="1039.8,-76.36 1029.24,-75.52 1036.97,-82.76 1039.8,-76.36"/>
</g>
<!-- Node24 -->
<g id="node24" class="node">
<title>Node24</title>
<g id="a_node24"><a xlink:title=" ">
<polygon fill="white" stroke="#bfbfbf" points="1096.5,-56.5 1096.5,-75.5 1143.5,-75.5 1143.5,-56.5 1096.5,-56.5"/>
<text text-anchor="middle" x="1120" y="-63.5" font-family="Helvetica,sans-Serif" font-size="10.00">iterator</text>
</a>
</g>
</g>
<!-- Node21&#45;&gt;Node24 -->
<g id="edge39" class="edge">
<title>Node21&#45;&gt;Node24</title>
<path fill="none" stroke="midnightblue" d="M1130.02,-112.08C1128.43,-104.93 1126.14,-94.64 1124.15,-85.69"/>
<polygon fill="midnightblue" stroke="midnightblue" points="1127.53,-84.75 1121.94,-75.75 1120.7,-86.27 1127.53,-84.75"/>
</g>
<!-- Node21&#45;&gt;Node25 -->
<g id="edge40" class="edge">
<title>Node21&#45;&gt;Node25</title>
<path fill="none" stroke="midnightblue" d="M1160.71,-114.49C1206.01,-104.21 1293.68,-84.32 1339.86,-73.84"/>
<polygon fill="midnightblue" stroke="midnightblue" points="1340.88,-77.2 1349.86,-71.57 1339.33,-70.37 1340.88,-77.2"/>
</g>
<!-- Node32&#45;&gt;Node3 -->
<g id="edge60" class="edge">
<title>Node32&#45;&gt;Node3</title>
<path fill="none" stroke="midnightblue" d="M539.56,-336.4C547.34,-327.66 557.36,-316.41 565.48,-307.3"/>
<polygon fill="midnightblue" stroke="midnightblue" points="568.25,-309.45 572.29,-299.66 563.02,-304.8 568.25,-309.45"/>
</g>
<!-- Node32&#45;&gt;Node8 -->
<g id="edge61" class="edge">
<title>Node32&#45;&gt;Node8</title>
<path fill="none" stroke="midnightblue" d="M462.97,-337.42C459.94,-336.92 456.94,-336.44 454,-336 375.8,-324.28 162.5,-348.43 100,-300 75.66,-281.14 76,-265.8 76,-235 76,-235 76,-235 76,-121 76,-90.2 77.56,-77.09 100,-56 132.81,-25.17 185.93,-15.4 219.36,-12.34"/>
<polygon fill="midnightblue" stroke="midnightblue" points="219.77,-15.82 229.47,-11.56 219.23,-8.84 219.77,-15.82"/>
</g>
<!-- Node33&#45;&gt;Node3 -->
<g id="edge65" class="edge">
<title>Node33&#45;&gt;Node3</title>
<path fill="none" stroke="midnightblue" d="M681.48,-336.4C659.36,-326.51 630.03,-313.38 608.59,-303.79"/>
<polygon fill="midnightblue" stroke="midnightblue" points="609.91,-300.55 599.35,-299.66 607.05,-306.94 609.91,-300.55"/>
</g>
<!-- Node33&#45;&gt;Node4 -->
<g id="edge63" class="edge">
<title>Node33&#45;&gt;Node4</title>
<path fill="none" stroke="midnightblue" d="M701.5,-336.16C685.91,-315.23 660,-274.49 660,-235 660,-235 660,-235 660,-177 660,-142.72 642.96,-105.7 631.41,-84.54"/>
<polygon fill="midnightblue" stroke="midnightblue" points="634.4,-82.72 626.42,-75.75 628.31,-86.17 634.4,-82.72"/>
</g>
<!-- Node33&#45;&gt;Node8 -->
<g id="edge64" class="edge">
<title>Node33&#45;&gt;Node8</title>
<path fill="none" stroke="midnightblue" d="M646.9,-341.2C491.11,-318.82 114,-261.89 114,-235 114,-235 114,-235 114,-121 114,-66.97 179.69,-34.91 219.76,-20.38"/>
<polygon fill="midnightblue" stroke="midnightblue" points="221.04,-23.64 229.34,-17.06 218.75,-17.02 221.04,-23.64"/>
</g>
</g>
</svg>
