<?xml version="1.0" encoding="UTF-8" standalone="no"?>
<!DOCTYPE svg PUBLIC "-//W3C//DTD SVG 1.1//EN"
 "http://www.w3.org/Graphics/SVG/1.1/DTD/svg11.dtd">
<!-- Generated by graphviz version 5.0.1 (20220820.1526)
 -->
<!-- Title: src/Ioss_Sort.h Pages: 1 -->
<svg width="333pt" height="137pt"
 viewBox="0.00 0.00 332.50 137.00" xmlns="http://www.w3.org/2000/svg" xmlns:xlink="http://www.w3.org/1999/xlink">
<g id="graph0" class="graph" transform="scale(1 1) rotate(0) translate(4 133)">
<title>src/Ioss_Sort.h</title>
<!-- Node1 -->
<g id="node1" class="node">
<title>Node1</title>
<g id="a_node1"><a xlink:title=" ">
<polygon fill="#999999" stroke="#666666" points="175,-129 92,-129 92,-110 175,-110 175,-129"/>
<text text-anchor="middle" x="133.5" y="-117" font-family="Helvetica,sans-Serif" font-size="10.00">src/Ioss_Sort.h</text>
</a>
</g>
</g>
<!-- Node2 -->
<g id="node2" class="node">
<title>Node2</title>
<g id="a_node2"><a xlink:href="pdqsort_8h.html" target="_top" xlink:title=" ">
<polygon fill="white" stroke="#666666" points="162,-74 105,-74 105,-55 162,-55 162,-74"/>
<text text-anchor="middle" x="133.5" y="-62" font-family="Helvetica,sans-Serif" font-size="10.00">pdqsort.h</text>
</a>
</g>
</g>
<!-- Node1&#45;&gt;Node2 -->
<g id="edge1" class="edge">
<title>Node1&#45;&gt;Node2</title>
<path fill="none" stroke="#63b8ff" d="M133.5,-109.75C133.5,-102.8 133.5,-92.85 133.5,-84.13"/>
<polygon fill="#63b8ff" stroke="#63b8ff" points="137,-84.09 133.5,-74.09 130,-84.09 137,-84.09"/>
</g>
<!-- Node4 -->
<g id="node4" class="node">
<title>Node4</title>
<g id="a_node4"><a xlink:title=" ">
<polygon fill="#e0e0e0" stroke="#999999" points="49,-19 0,-19 0,0 49,0 49,-19"/>
<text text-anchor="middle" x="24.5" y="-7" font-family="Helvetica,sans-Serif" font-size="10.00">cstddef</text>
</a>
</g>
</g>
<!-- Node1&#45;&gt;Node4 -->
<g id="edge7" class="edge">
<title>Node1&#45;&gt;Node4</title>
<path fill="none" stroke="#63b8ff" d="M124.58,-109.66C106.21,-91.46 63.91,-49.55 40.62,-26.47"/>
<polygon fill="#63b8ff" stroke="#63b8ff" points="42.81,-23.71 33.24,-19.16 37.88,-28.68 42.81,-23.71"/>
</g>
<!-- Node8 -->
<g id="node8" class="node">
<title>Node8</title>
<g id="a_node8"><a xlink:title=" ">
<polygon fill="#e0e0e0" stroke="#999999" points="224.5,-74 180.5,-74 180.5,-55 224.5,-55 224.5,-74"/>
<text text-anchor="middle" x="202.5" y="-62" font-family="Helvetica,sans-Serif" font-size="10.00">vector</text>
</a>
</g>
</g>
<!-- Node1&#45;&gt;Node8 -->
<g id="edge8" class="edge">
<title>Node1&#45;&gt;Node8</title>
<path fill="none" stroke="#63b8ff" d="M144.59,-109.98C154.99,-102 170.76,-89.88 183.22,-80.31"/>
<polygon fill="#63b8ff" stroke="#63b8ff" points="185.41,-83.04 191.21,-74.17 181.15,-77.49 185.41,-83.04"/>
</g>
<!-- Node3 -->
<g id="node3" class="node">
<title>Node3</title>
<g id="a_node3"><a xlink:title=" ">
<polygon fill="#e0e0e0" stroke="#999999" points="123.5,-19 67.5,-19 67.5,0 123.5,0 123.5,-19"/>
<text text-anchor="middle" x="95.5" y="-7" font-family="Helvetica,sans-Serif" font-size="10.00">algorithm</text>
</a>
</g>
</g>
<!-- Node2&#45;&gt;Node3 -->
<g id="edge2" class="edge">
<title>Node2&#45;&gt;Node3</title>
<path fill="none" stroke="#63b8ff" d="M127.23,-54.75C121.91,-47.34 114.14,-36.5 107.62,-27.41"/>
<polygon fill="#63b8ff" stroke="#63b8ff" points="110.33,-25.18 101.66,-19.09 104.64,-29.26 110.33,-25.18"/>
</g>
<!-- Node2&#45;&gt;Node4 -->
<g id="edge3" class="edge">
<title>Node2&#45;&gt;Node4</title>
<path fill="none" stroke="#63b8ff" d="M115.99,-54.98C98.53,-46.5 71.49,-33.35 51.33,-23.54"/>
<polygon fill="#63b8ff" stroke="#63b8ff" points="52.86,-20.4 42.33,-19.17 49.79,-26.69 52.86,-20.4"/>
</g>
<!-- Node5 -->
<g id="node5" class="node">
<title>Node5</title>
<g id="a_node5"><a xlink:title=" ">
<polygon fill="#e0e0e0" stroke="#999999" points="201,-19 142,-19 142,0 201,0 201,-19"/>
<text text-anchor="middle" x="171.5" y="-7" font-family="Helvetica,sans-Serif" font-size="10.00">functional</text>
</a>
</g>
</g>
<!-- Node2&#45;&gt;Node5 -->
<g id="edge4" class="edge">
<title>Node2&#45;&gt;Node5</title>
<path fill="none" stroke="#63b8ff" d="M139.77,-54.75C145.09,-47.34 152.86,-36.5 159.38,-27.41"/>
<polygon fill="#63b8ff" stroke="#63b8ff" points="162.36,-29.26 165.34,-19.09 156.67,-25.18 162.36,-29.26"/>
</g>
<!-- Node6 -->
<g id="node6" class="node">
<title>Node6</title>
<g id="a_node6"><a xlink:title=" ">
<polygon fill="#e0e0e0" stroke="#999999" points="266,-19 219,-19 219,0 266,0 266,-19"/>
<text text-anchor="middle" x="242.5" y="-7" font-family="Helvetica,sans-Serif" font-size="10.00">iterator</text>
</a>
</g>
</g>
<!-- Node2&#45;&gt;Node6 -->
<g id="edge5" class="edge">
<title>Node2&#45;&gt;Node6</title>
<path fill="none" stroke="#63b8ff" d="M151.01,-54.98C168.47,-46.5 195.51,-33.35 215.67,-23.54"/>
<polygon fill="#63b8ff" stroke="#63b8ff" points="217.21,-26.69 224.67,-19.17 214.14,-20.4 217.21,-26.69"/>
</g>
<!-- Node7 -->
<g id="node7" class="node">
<title>Node7</title>
<g id="a_node7"><a xlink:title=" ">
<polygon fill="#e0e0e0" stroke="#999999" points="324.5,-19 284.5,-19 284.5,0 324.5,0 324.5,-19"/>
<text text-anchor="middle" x="304.5" y="-7" font-family="Helvetica,sans-Serif" font-size="10.00">utility</text>
</a>
</g>
</g>
<!-- Node2&#45;&gt;Node7 -->
<g id="edge6" class="edge">
<title>Node2&#45;&gt;Node7</title>
<path fill="none" stroke="#63b8ff" d="M160.97,-54.98C192.07,-45.35 242.55,-29.7 274.61,-19.76"/>
<polygon fill="#63b8ff" stroke="#63b8ff" points="275.81,-23.06 284.32,-16.75 273.73,-16.37 275.81,-23.06"/>
</g>
</g>
</svg>
