<?xml version="1.0" encoding="UTF-8" standalone="no"?>
<!DOCTYPE svg PUBLIC "-//W3C//DTD SVG 1.1//EN"
 "http://www.w3.org/Graphics/SVG/1.1/DTD/svg11.dtd">
<!-- Generated by graphviz version 9.0.0 (20230911.1827)
 -->
<!-- Title: src/Ioss_SideBlock.h Pages: 1 -->
<svg width="4463pt" height="160pt"
 viewBox="0.00 0.00 4462.75 160.25" xmlns="http://www.w3.org/2000/svg" xmlns:xlink="http://www.w3.org/1999/xlink">
<g id="graph0" class="graph" transform="scale(1 1) rotate(0) translate(4 156.25)">
<title>src/Ioss_SideBlock.h</title>
<!-- Node1 -->
<g id="Node000001" class="node">
<title>Node1</title>
<g id="a_Node000001"><a xlink:title=" ">
<polygon fill="#999999" stroke="#666666" points="2630.88,-152.25 2521.88,-152.25 2521.88,-133 2630.88,-133 2630.88,-152.25"/>
<text text-anchor="middle" x="2576.38" y="-138.75" font-family="Helvetica,sans-Serif" font-size="10.00">src/Ioss_SideBlock.h</text>
</a>
</g>
</g>
<!-- Node2 -->
<g id="Node000002" class="node">
<title>Node2</title>
<g id="a_Node000002"><a xlink:href="Ioss__ChainGenerator_8C.html" target="_top" xlink:title=" ">
<polygon fill="white" stroke="#666666" points="382.62,-91.38 248.12,-91.38 248.12,-72.12 382.62,-72.12 382.62,-91.38"/>
<text text-anchor="middle" x="315.38" y="-77.88" font-family="Helvetica,sans-Serif" font-size="10.00">src/Ioss_ChainGenerator.C</text>
</a>
</g>
</g>
<!-- Node1&#45;&gt;Node2 -->
<g id="edge1_Node000001_Node000002" class="edge">
<title>Node1&#45;&gt;Node2</title>
<g id="a_edge1_Node000001_Node000002"><a xlink:title=" ">
<path fill="none" stroke="#63b8ff" d="M2510.26,-141.75C2192.21,-142.1 817.54,-141 391.38,-97 380.16,-95.84 368.12,-93.91 357.01,-91.84"/>
<polygon fill="#63b8ff" stroke="#63b8ff" points="2510.05,-145.25 2520.05,-141.73 2510.05,-138.25 2510.05,-145.25"/>
</a>
</g>
</g>
<!-- Node3 -->
<g id="Node000003" class="node">
<title>Node3</title>
<g id="a_Node000003"><a xlink:href="Ioss__Region_8C.html" target="_top" xlink:title=" ">
<polygon fill="white" stroke="#666666" points="498.25,-91.38 400.5,-91.38 400.5,-72.12 498.25,-72.12 498.25,-91.38"/>
<text text-anchor="middle" x="449.38" y="-77.88" font-family="Helvetica,sans-Serif" font-size="10.00">src/Ioss_Region.C</text>
</a>
</g>
</g>
<!-- Node1&#45;&gt;Node3 -->
<g id="edge2_Node000001_Node000003" class="edge">
<title>Node1&#45;&gt;Node3</title>
<g id="a_edge2_Node000001_Node000003"><a xlink:title=" ">
<path fill="none" stroke="#63b8ff" d="M2510.23,-141.06C2179.11,-138.12 709.46,-123.67 507.38,-97 498.74,-95.86 489.53,-93.93 481.05,-91.86"/>
<polygon fill="#63b8ff" stroke="#63b8ff" points="2509.98,-144.56 2520.01,-141.15 2510.04,-137.56 2509.98,-144.56"/>
</a>
</g>
</g>
<!-- Node4 -->
<g id="Node000004" class="node">
<title>Node4</title>
<g id="a_Node000004"><a xlink:href="Ioss__SideBlock_8C.html" target="_top" xlink:title=" ">
<polygon fill="white" stroke="#666666" points="628,-91.38 516.75,-91.38 516.75,-72.12 628,-72.12 628,-91.38"/>
<text text-anchor="middle" x="572.38" y="-77.88" font-family="Helvetica,sans-Serif" font-size="10.00">src/Ioss_SideBlock.C</text>
</a>
</g>
</g>
<!-- Node1&#45;&gt;Node4 -->
<g id="edge3_Node000001_Node000004" class="edge">
<title>Node1&#45;&gt;Node4</title>
<g id="a_edge3_Node000001_Node000004"><a xlink:title=" ">
<path fill="none" stroke="#63b8ff" d="M2510.11,-141.84C2214.08,-142.56 1010.74,-142.54 636.38,-97 626.88,-95.85 616.73,-93.91 607.37,-91.84"/>
<polygon fill="#63b8ff" stroke="#63b8ff" points="2509.98,-145.34 2519.97,-141.82 2509.97,-138.34 2509.98,-145.34"/>
</a>
</g>
</g>
<!-- Node5 -->
<g id="Node000005" class="node">
<title>Node5</title>
<g id="a_Node000005"><a xlink:href="Ioss__SideSet_8C.html" target="_top" xlink:title=" ">
<polygon fill="white" stroke="#666666" points="747.12,-91.38 645.62,-91.38 645.62,-72.12 747.12,-72.12 747.12,-91.38"/>
<text text-anchor="middle" x="696.38" y="-77.88" font-family="Helvetica,sans-Serif" font-size="10.00">src/Ioss_SideSet.C</text>
</a>
</g>
</g>
<!-- Node1&#45;&gt;Node5 -->
<g id="edge4_Node000001_Node000005" class="edge">
<title>Node1&#45;&gt;Node5</title>
<g id="a_edge4_Node000001_Node000005"><a xlink:title=" ">
<path fill="none" stroke="#63b8ff" d="M2510.05,-141.85C2225.36,-142.54 1105.53,-142.24 756.38,-97 747.46,-95.84 737.93,-93.91 729.16,-91.84"/>
<polygon fill="#63b8ff" stroke="#63b8ff" points="2509.9,-145.35 2519.89,-141.83 2509.88,-138.35 2509.9,-145.35"/>
</a>
</g>
</g>
<!-- Node6 -->
<g id="Node000006" class="node">
<title>Node6</title>
<g id="a_Node000006"><a xlink:href="Ioss__SubSystem_8h.html" target="_top" xlink:title=" ">
<polygon fill="white" stroke="#666666" points="1490.25,-91.38 1374.5,-91.38 1374.5,-72.12 1490.25,-72.12 1490.25,-91.38"/>
<text text-anchor="middle" x="1432.38" y="-77.88" font-family="Helvetica,sans-Serif" font-size="10.00">src/Ioss_SubSystem.h</text>
</a>
</g>
</g>
<!-- Node1&#45;&gt;Node6 -->
<g id="edge5_Node000001_Node000006" class="edge">
<title>Node1&#45;&gt;Node6</title>
<g id="a_edge5_Node000001_Node000006"><a xlink:title=" ">
<path fill="none" stroke="#63b8ff" d="M2510.36,-140.21C2308.4,-135.66 1700.67,-120.37 1504.38,-97 1494,-95.76 1482.88,-93.86 1472.57,-91.84"/>
<polygon fill="#63b8ff" stroke="#63b8ff" points="2510.07,-143.7 2520.15,-140.43 2510.23,-136.7 2510.07,-143.7"/>
</a>
</g>
</g>
<!-- Node12 -->
<g id="Node000012" class="node">
<title>Node12</title>
<g id="a_Node000012"><a xlink:href="Iofaodel__DatabaseIO_8C.html" target="_top" xlink:title=" ">
<polygon fill="white" stroke="#666666" points="2390.5,-30.5 2294.25,-30.5 2294.25,0 2390.5,0 2390.5,-30.5"/>
<text text-anchor="start" x="2302.25" y="-17" font-family="Helvetica,sans-Serif" font-size="10.00">src/faodel/Iofaodel</text>
<text text-anchor="middle" x="2342.38" y="-5.75" font-family="Helvetica,sans-Serif" font-size="10.00">_DatabaseIO.C</text>
</a>
</g>
</g>
<!-- Node1&#45;&gt;Node12 -->
<g id="edge35_Node000001_Node000012" class="edge">
<title>Node1&#45;&gt;Node12</title>
<g id="a_edge35_Node000001_Node000012"><a xlink:title=" ">
<path fill="none" stroke="#63b8ff" d="M2510.14,-141.16C2291.94,-139.3 1607.69,-130.79 1575.38,-97 1566.01,-87.2 1566.04,-76.32 1575.38,-66.5 1629.8,-9.25 2207.25,-42.13 2285.38,-30.5 2288.2,-30.08 2291.09,-29.58 2293.99,-29.02"/>
<polygon fill="#63b8ff" stroke="#63b8ff" points="2509.86,-144.66 2519.89,-141.24 2509.92,-137.66 2509.86,-144.66"/>
</a>
</g>
</g>
<!-- Node17 -->
<g id="Node000017" class="node">
<title>Node17</title>
<g id="a_Node000017"><a xlink:href="Ut__ioad_8C.html" target="_top" xlink:title=" ">
<polygon fill="white" stroke="#666666" points="2276.12,-24.88 2174.62,-24.88 2174.62,-5.63 2276.12,-5.63 2276.12,-24.88"/>
<text text-anchor="middle" x="2225.38" y="-11.38" font-family="Helvetica,sans-Serif" font-size="10.00">src/utest/Ut_ioad.C</text>
</a>
</g>
</g>
<!-- Node1&#45;&gt;Node17 -->
<g id="edge52_Node000001_Node000017" class="edge">
<title>Node1&#45;&gt;Node17</title>
<g id="a_edge52_Node000001_Node000017"><a xlink:title=" ">
<path fill="none" stroke="#63b8ff" d="M2510.17,-141.19C2290.4,-139.43 1597.09,-131.19 1564.38,-97 1471.48,0.08 2032.44,-50.12 2165.38,-30.5 2173.95,-29.23 2183.11,-27.34 2191.62,-25.35"/>
<polygon fill="#63b8ff" stroke="#63b8ff" points="2509.96,-144.69 2519.99,-141.27 2510.02,-137.69 2509.96,-144.69"/>
</a>
</g>
</g>
<!-- Node20 -->
<g id="Node000020" class="node">
<title>Node20</title>
<g id="a_Node000020"><a xlink:href="Ioad__DatabaseIO_8C.html" target="_top" xlink:title=" ">
<polygon fill="white" stroke="#666666" points="1852.25,-91.38 1706.5,-91.38 1706.5,-72.12 1852.25,-72.12 1852.25,-91.38"/>
<text text-anchor="middle" x="1779.38" y="-77.88" font-family="Helvetica,sans-Serif" font-size="10.00">src/adios/Ioad_DatabaseIO.C</text>
</a>
</g>
</g>
<!-- Node1&#45;&gt;Node20 -->
<g id="edge19_Node000001_Node000020" class="edge">
<title>Node1&#45;&gt;Node20</title>
<g id="a_edge19_Node000001_Node000020"><a xlink:title=" ">
<path fill="none" stroke="#63b8ff" d="M2510,-139.97C2383.31,-136.26 2098.44,-125.27 1860.38,-97 1849.17,-95.67 1837.17,-93.8 1825.93,-91.86"/>
<polygon fill="#63b8ff" stroke="#63b8ff" points="2509.78,-143.46 2519.88,-140.25 2509.98,-136.47 2509.78,-143.46"/>
</a>
</g>
</g>
<!-- Node21 -->
<g id="Node000021" class="node">
<title>Node21</title>
<g id="a_Node000021"><a xlink:href="Ioad__Helper_8C.html" target="_top" xlink:title=" ">
<polygon fill="white" stroke="#666666" points="1990.88,-91.38 1869.88,-91.38 1869.88,-72.12 1990.88,-72.12 1990.88,-91.38"/>
<text text-anchor="middle" x="1930.38" y="-77.88" font-family="Helvetica,sans-Serif" font-size="10.00">src/adios/Ioad_Helper.C</text>
</a>
</g>
</g>
<!-- Node1&#45;&gt;Node21 -->
<g id="edge20_Node000001_Node000021" class="edge">
<title>Node1&#45;&gt;Node21</title>
<g id="a_edge20_Node000001_Node000021"><a xlink:title=" ">
<path fill="none" stroke="#63b8ff" d="M2510.45,-139.17C2403.13,-134.57 2184.15,-122.72 2000.38,-97 1990.67,-95.64 1980.29,-93.76 1970.58,-91.82"/>
<polygon fill="#63b8ff" stroke="#63b8ff" points="2510.08,-142.66 2520.22,-139.58 2510.38,-135.66 2510.08,-142.66"/>
</a>
</g>
</g>
<!-- Node22 -->
<g id="Node000022" class="node">
<title>Node22</title>
<g id="a_Node000022"><a xlink:href="Iocatalyst__DatabaseIO_8C.html" target="_top" xlink:title=" ">
<polygon fill="white" stroke="#666666" points="2121.75,-97 2009,-97 2009,-66.5 2121.75,-66.5 2121.75,-97"/>
<text text-anchor="start" x="2017" y="-83.5" font-family="Helvetica,sans-Serif" font-size="10.00">src/catalyst/Iocatalyst</text>
<text text-anchor="middle" x="2065.38" y="-72.25" font-family="Helvetica,sans-Serif" font-size="10.00">_DatabaseIO.C</text>
</a>
</g>
</g>
<!-- Node1&#45;&gt;Node22 -->
<g id="edge21_Node000001_Node000022" class="edge">
<title>Node1&#45;&gt;Node22</title>
<g id="a_edge21_Node000001_Node000022"><a xlink:title=" ">
<path fill="none" stroke="#63b8ff" d="M2510.36,-137.34C2423.21,-131.15 2265.15,-118.08 2131.38,-97 2128.36,-96.53 2125.28,-96 2122.18,-95.44"/>
<polygon fill="#63b8ff" stroke="#63b8ff" points="2509.93,-140.82 2520.15,-138.03 2510.42,-133.84 2509.93,-140.82"/>
</a>
</g>
</g>
<!-- Node23 -->
<g id="Node000023" class="node">
<title>Node23</title>
<g id="a_Node000023"><a xlink:href="Iocgns__Utils_8h.html" target="_top" xlink:title=" ">
<polygon fill="white" stroke="#666666" points="885.12,-91.38 765.62,-91.38 765.62,-72.12 885.12,-72.12 885.12,-91.38"/>
<text text-anchor="middle" x="825.38" y="-77.88" font-family="Helvetica,sans-Serif" font-size="10.00">src/cgns/Iocgns_Utils.h</text>
</a>
</g>
</g>
<!-- Node1&#45;&gt;Node23 -->
<g id="edge22_Node000001_Node000023" class="edge">
<title>Node1&#45;&gt;Node23</title>
<g id="a_edge22_Node000001_Node000023"><a xlink:title=" ">
<path fill="none" stroke="#63b8ff" d="M2510.44,-139.41C2231.67,-130.03 1151.88,-93.73 885.19,-84.76"/>
<polygon fill="#63b8ff" stroke="#63b8ff" points="2509.94,-142.89 2520.05,-139.73 2510.18,-135.9 2509.94,-142.89"/>
</a>
</g>
</g>
<!-- Node28 -->
<g id="Node000028" class="node">
<title>Node28</title>
<g id="a_Node000028"><a xlink:href="Ioex__BaseDatabaseIO_8C.html" target="_top" xlink:title=" ">
<polygon fill="white" stroke="#666666" points="2316.62,-91.38 2140.12,-91.38 2140.12,-72.12 2316.62,-72.12 2316.62,-91.38"/>
<text text-anchor="middle" x="2228.38" y="-77.88" font-family="Helvetica,sans-Serif" font-size="10.00">src/exodus/Ioex_BaseDatabaseIO.C</text>
</a>
</g>
</g>
<!-- Node1&#45;&gt;Node28 -->
<g id="edge29_Node000001_Node000028" class="edge">
<title>Node1&#45;&gt;Node28</title>
<g id="a_edge29_Node000001_Node000028"><a xlink:title=" ">
<path fill="none" stroke="#63b8ff" d="M2511.65,-130.67C2445.48,-119.48 2343.89,-102.29 2282.05,-91.83"/>
<polygon fill="#63b8ff" stroke="#63b8ff" points="2510.83,-134.09 2521.27,-132.3 2511.99,-127.18 2510.83,-134.09"/>
</a>
</g>
</g>
<!-- Node29 -->
<g id="Node000029" class="node">
<title>Node29</title>
<g id="a_Node000029"><a xlink:href="Ioex__DatabaseIO_8C.html" target="_top" xlink:title=" ">
<polygon fill="white" stroke="#666666" points="2488.38,-91.38 2334.38,-91.38 2334.38,-72.12 2488.38,-72.12 2488.38,-91.38"/>
<text text-anchor="middle" x="2411.38" y="-77.88" font-family="Helvetica,sans-Serif" font-size="10.00">src/exodus/Ioex_DatabaseIO.C</text>
</a>
</g>
</g>
<!-- Node1&#45;&gt;Node29 -->
<g id="edge30_Node000001_Node000029" class="edge">
<title>Node1&#45;&gt;Node29</title>
<g id="a_edge30_Node000001_Node000029"><a xlink:title=" ">
<path fill="none" stroke="#63b8ff" d="M2540.49,-128.82C2509.19,-117.65 2464.57,-101.73 2436.82,-91.83"/>
<polygon fill="#63b8ff" stroke="#63b8ff" points="2538.94,-131.98 2549.53,-132.05 2541.29,-125.39 2538.94,-131.98"/>
</a>
</g>
</g>
<!-- Node30 -->
<g id="Node000030" class="node">
<title>Node30</title>
<g id="a_Node000030"><a xlink:href="Ioex__Internals_8C.html" target="_top" xlink:title=" ">
<polygon fill="white" stroke="#666666" points="2645.88,-91.38 2506.88,-91.38 2506.88,-72.12 2645.88,-72.12 2645.88,-91.38"/>
<text text-anchor="middle" x="2576.38" y="-77.88" font-family="Helvetica,sans-Serif" font-size="10.00">src/exodus/Ioex_Internals.C</text>
</a>
</g>
</g>
<!-- Node1&#45;&gt;Node30 -->
<g id="edge31_Node000001_Node000030" class="edge">
<title>Node1&#45;&gt;Node30</title>
<g id="a_edge31_Node000001_Node000030"><a xlink:title=" ">
<path fill="none" stroke="#63b8ff" d="M2576.38,-121.2C2576.38,-111.17 2576.38,-99.58 2576.38,-91.78"/>
<polygon fill="#63b8ff" stroke="#63b8ff" points="2572.88,-121.17 2576.38,-131.17 2579.88,-121.17 2572.88,-121.17"/>
</a>
</g>
</g>
<!-- Node31 -->
<g id="Node000031" class="node">
<title>Node31</title>
<g id="a_Node000031"><a xlink:href="Ioexnl__BaseDatabaseIO_8C.html" target="_top" xlink:title=" ">
<polygon fill="white" stroke="#666666" points="2770.75,-97 2664,-97 2664,-66.5 2770.75,-66.5 2770.75,-97"/>
<text text-anchor="start" x="2672" y="-83.5" font-family="Helvetica,sans-Serif" font-size="10.00">src/exonull/Ioexnl</text>
<text text-anchor="middle" x="2717.38" y="-72.25" font-family="Helvetica,sans-Serif" font-size="10.00">_BaseDatabaseIO.C</text>
</a>
</g>
</g>
<!-- Node1&#45;&gt;Node31 -->
<g id="edge32_Node000001_Node000031" class="edge">
<title>Node1&#45;&gt;Node31</title>
<g id="a_edge32_Node000001_Node000031"><a xlink:title=" ">
<path fill="none" stroke="#63b8ff" d="M2608.55,-128.19C2630.51,-119.02 2659.6,-106.87 2682.18,-97.44"/>
<polygon fill="#63b8ff" stroke="#63b8ff" points="2607.37,-124.89 2599.49,-131.97 2610.07,-131.35 2607.37,-124.89"/>
</a>
</g>
</g>
<!-- Node32 -->
<g id="Node000032" class="node">
<title>Node32</title>
<g id="a_Node000032"><a xlink:href="Ioexnl__DatabaseIO_8C.html" target="_top" xlink:title=" ">
<polygon fill="white" stroke="#666666" points="2881.62,-97 2789.12,-97 2789.12,-66.5 2881.62,-66.5 2881.62,-97"/>
<text text-anchor="start" x="2797.12" y="-83.5" font-family="Helvetica,sans-Serif" font-size="10.00">src/exonull/Ioexnl</text>
<text text-anchor="middle" x="2835.38" y="-72.25" font-family="Helvetica,sans-Serif" font-size="10.00">_DatabaseIO.C</text>
</a>
</g>
</g>
<!-- Node1&#45;&gt;Node32 -->
<g id="edge33_Node000001_Node000032" class="edge">
<title>Node1&#45;&gt;Node32</title>
<g id="a_edge33_Node000001_Node000032"><a xlink:title=" ">
<path fill="none" stroke="#63b8ff" d="M2630.72,-130.18C2671.67,-121.44 2729.15,-108.91 2779.38,-97 2782.4,-96.28 2785.52,-95.53 2788.65,-94.76"/>
<polygon fill="#63b8ff" stroke="#63b8ff" points="2630.17,-126.72 2621.11,-132.23 2631.62,-133.57 2630.17,-126.72"/>
</a>
</g>
</g>
<!-- Node33 -->
<g id="Node000033" class="node">
<title>Node33</title>
<g id="a_Node000033"><a xlink:href="Ioexnl__Internals_8C.html" target="_top" xlink:title=" ">
<polygon fill="white" stroke="#666666" points="2992.62,-97 2900.12,-97 2900.12,-66.5 2992.62,-66.5 2992.62,-97"/>
<text text-anchor="start" x="2908.12" y="-83.5" font-family="Helvetica,sans-Serif" font-size="10.00">src/exonull/Ioexnl</text>
<text text-anchor="middle" x="2946.38" y="-72.25" font-family="Helvetica,sans-Serif" font-size="10.00">_Internals.C</text>
</a>
</g>
</g>
<!-- Node1&#45;&gt;Node33 -->
<g id="edge34_Node000001_Node000033" class="edge">
<title>Node1&#45;&gt;Node33</title>
<g id="a_edge34_Node000001_Node000033"><a xlink:title=" ">
<path fill="none" stroke="#63b8ff" d="M2642.23,-134.37C2706,-126.84 2805.28,-113.82 2890.38,-97 2893.43,-96.4 2896.56,-95.73 2899.71,-95.03"/>
<polygon fill="#63b8ff" stroke="#63b8ff" points="2642.16,-130.85 2632.64,-135.49 2642.97,-137.8 2642.16,-130.85"/>
</a>
</g>
</g>
<!-- Node34 -->
<g id="Node000034" class="node">
<title>Node34</title>
<g id="a_Node000034"><a xlink:href="Iofaodel__FieldSerialization_8h.html" target="_top" xlink:title=" ">
<polygon fill="white" stroke="#666666" points="1688.25,-97 1584.5,-97 1584.5,-66.5 1688.25,-66.5 1688.25,-97"/>
<text text-anchor="start" x="1592.5" y="-83.5" font-family="Helvetica,sans-Serif" font-size="10.00">src/faodel/Iofaodel</text>
<text text-anchor="middle" x="1636.38" y="-72.25" font-family="Helvetica,sans-Serif" font-size="10.00">_FieldSerialization.h</text>
</a>
</g>
</g>
<!-- Node1&#45;&gt;Node34 -->
<g id="edge36_Node000001_Node000034" class="edge">
<title>Node1&#45;&gt;Node34</title>
<g id="a_edge36_Node000001_Node000034"><a xlink:title=" ">
<path fill="none" stroke="#63b8ff" d="M2510.07,-142.29C2363,-142.88 1998.63,-139.49 1697.38,-97 1694.47,-96.59 1691.49,-96.11 1688.5,-95.57"/>
<polygon fill="#63b8ff" stroke="#63b8ff" points="2510.04,-145.79 2520.02,-142.24 2510,-138.79 2510.04,-145.79"/>
</a>
</g>
</g>
<!-- Node36 -->
<g id="Node000036" class="node">
<title>Node36</title>
<g id="a_Node000036"><a xlink:href="Iofaodel__PropertySerialization_8C.html" target="_top" xlink:title=" ">
<polygon fill="white" stroke="#666666" points="3132.25,-97 3010.5,-97 3010.5,-66.5 3132.25,-66.5 3132.25,-97"/>
<text text-anchor="start" x="3018.5" y="-83.5" font-family="Helvetica,sans-Serif" font-size="10.00">src/faodel/Iofaodel</text>
<text text-anchor="middle" x="3071.38" y="-72.25" font-family="Helvetica,sans-Serif" font-size="10.00">_PropertySerialization.C</text>
</a>
</g>
</g>
<!-- Node1&#45;&gt;Node36 -->
<g id="edge39_Node000001_Node000036" class="edge">
<title>Node1&#45;&gt;Node36</title>
<g id="a_edge39_Node000001_Node000036"><a xlink:title=" ">
<path fill="none" stroke="#63b8ff" d="M2642.66,-136.65C2726.49,-129.91 2875.14,-116.43 3001.38,-97 3004.32,-96.55 3007.32,-96.05 3010.35,-95.53"/>
<polygon fill="#63b8ff" stroke="#63b8ff" points="2642.47,-133.16 2632.78,-137.44 2643.03,-140.13 2642.47,-133.16"/>
</a>
</g>
</g>
<!-- Node37 -->
<g id="Node000037" class="node">
<title>Node37</title>
<g id="a_Node000037"><a xlink:href="Iofaodel__Utils_8C.html" target="_top" xlink:title=" ">
<polygon fill="white" stroke="#666666" points="3246.5,-97 3150.25,-97 3150.25,-66.5 3246.5,-66.5 3246.5,-97"/>
<text text-anchor="start" x="3158.25" y="-83.5" font-family="Helvetica,sans-Serif" font-size="10.00">src/faodel/Iofaodel</text>
<text text-anchor="middle" x="3198.38" y="-72.25" font-family="Helvetica,sans-Serif" font-size="10.00">_Utils.C</text>
</a>
</g>
</g>
<!-- Node1&#45;&gt;Node37 -->
<g id="edge40_Node000001_Node000037" class="edge">
<title>Node1&#45;&gt;Node37</title>
<g id="a_edge40_Node000001_Node000037"><a xlink:title=" ">
<path fill="none" stroke="#63b8ff" d="M2642.74,-139.95C2748.76,-136.48 2962.6,-126.2 3141.38,-97 3144.19,-96.54 3147.08,-96.01 3149.98,-95.43"/>
<polygon fill="#63b8ff" stroke="#63b8ff" points="2642.68,-136.45 2632.79,-140.27 2642.9,-143.45 2642.68,-136.45"/>
</a>
</g>
</g>
<!-- Node38 -->
<g id="Node000038" class="node">
<title>Node38</title>
<g id="a_Node000038"><a xlink:href="Iogs__DatabaseIO_8C.html" target="_top" xlink:title=" ">
<polygon fill="white" stroke="#666666" points="3361.88,-97 3264.88,-97 3264.88,-66.5 3361.88,-66.5 3361.88,-97"/>
<text text-anchor="start" x="3272.88" y="-83.5" font-family="Helvetica,sans-Serif" font-size="10.00">src/gen_struc/Iogs</text>
<text text-anchor="middle" x="3313.38" y="-72.25" font-family="Helvetica,sans-Serif" font-size="10.00">_DatabaseIO.C</text>
</a>
</g>
</g>
<!-- Node1&#45;&gt;Node38 -->
<g id="edge41_Node000001_Node000038" class="edge">
<title>Node1&#45;&gt;Node38</title>
<g id="a_edge41_Node000001_Node000038"><a xlink:title=" ">
<path fill="none" stroke="#63b8ff" d="M2642.64,-141.11C2764.6,-139.32 3032.56,-131.42 3255.38,-97 3258.35,-96.54 3261.39,-96 3264.45,-95.41"/>
<polygon fill="#63b8ff" stroke="#63b8ff" points="2642.76,-137.61 2632.81,-141.25 2642.86,-144.61 2642.76,-137.61"/>
</a>
</g>
</g>
<!-- Node39 -->
<g id="Node000039" class="node">
<title>Node39</title>
<g id="a_Node000039"><a xlink:href="Iogn__DatabaseIO_8C.html" target="_top" xlink:title=" ">
<polygon fill="white" stroke="#666666" points="3476.88,-97 3379.88,-97 3379.88,-66.5 3476.88,-66.5 3476.88,-97"/>
<text text-anchor="start" x="3387.88" y="-83.5" font-family="Helvetica,sans-Serif" font-size="10.00">src/generated/Iogn</text>
<text text-anchor="middle" x="3428.38" y="-72.25" font-family="Helvetica,sans-Serif" font-size="10.00">_DatabaseIO.C</text>
</a>
</g>
</g>
<!-- Node1&#45;&gt;Node39 -->
<g id="edge42_Node000001_Node000039" class="edge">
<title>Node1&#45;&gt;Node39</title>
<g id="a_edge42_Node000001_Node000039"><a xlink:title=" ">
<path fill="none" stroke="#63b8ff" d="M2642.6,-142.02C2779.38,-141.93 3102.7,-137.05 3370.38,-97 3373.35,-96.56 3376.39,-96.03 3379.45,-95.44"/>
<polygon fill="#63b8ff" stroke="#63b8ff" points="2642.63,-138.52 2632.63,-142.02 2642.63,-145.52 2642.63,-138.52"/>
</a>
</g>
</g>
<!-- Node40 -->
<g id="Node000040" class="node">
<title>Node40</title>
<g id="a_Node000040"><a xlink:href="cth__pressure__map_8C.html" target="_top" xlink:title=" ">
<polygon fill="white" stroke="#666666" points="3607.75,-97 3495,-97 3495,-66.5 3607.75,-66.5 3607.75,-97"/>
<text text-anchor="start" x="3503" y="-83.5" font-family="Helvetica,sans-Serif" font-size="10.00">src/main/cth_pressure</text>
<text text-anchor="middle" x="3551.38" y="-72.25" font-family="Helvetica,sans-Serif" font-size="10.00">_map.C</text>
</a>
</g>
</g>
<!-- Node1&#45;&gt;Node40 -->
<g id="edge43_Node000001_Node000040" class="edge">
<title>Node1&#45;&gt;Node40</title>
<g id="a_edge43_Node000001_Node000040"><a xlink:title=" ">
<path fill="none" stroke="#63b8ff" d="M2642.5,-142.07C2792.89,-142.28 3171.82,-138.26 3485.38,-97 3488.4,-96.6 3491.49,-96.14 3494.6,-95.63"/>
<polygon fill="#63b8ff" stroke="#63b8ff" points="2642.74,-138.57 2632.73,-142.05 2642.72,-145.57 2642.74,-138.57"/>
</a>
</g>
</g>
<!-- Node41 -->
<g id="Node000041" class="node">
<title>Node41</title>
<g id="a_Node000041"><a xlink:href="io__info_8h.html" target="_top" xlink:title=" ">
<polygon fill="white" stroke="#666666" points="3719,-91.38 3625.75,-91.38 3625.75,-72.12 3719,-72.12 3719,-91.38"/>
<text text-anchor="middle" x="3672.38" y="-77.88" font-family="Helvetica,sans-Serif" font-size="10.00">src/main/io_info.h</text>
</a>
</g>
</g>
<!-- Node1&#45;&gt;Node41 -->
<g id="edge44_Node000001_Node000041" class="edge">
<title>Node1&#45;&gt;Node41</title>
<g id="a_edge44_Node000001_Node000041"><a xlink:title=" ">
<path fill="none" stroke="#63b8ff" d="M2642.48,-140.57C2840.58,-137.13 3427.26,-124.81 3616.38,-97 3624.61,-95.79 3633.4,-93.86 3641.5,-91.82"/>
<polygon fill="#63b8ff" stroke="#63b8ff" points="2642.57,-137.07 2632.63,-140.74 2642.69,-144.07 2642.57,-137.07"/>
</a>
</g>
</g>
<!-- Node44 -->
<g id="Node000044" class="node">
<title>Node44</title>
<g id="a_Node000044"><a xlink:href="io__modify_8C.html" target="_top" xlink:title=" ">
<polygon fill="white" stroke="#666666" points="3844.12,-91.38 3736.62,-91.38 3736.62,-72.12 3844.12,-72.12 3844.12,-91.38"/>
<text text-anchor="middle" x="3790.38" y="-77.88" font-family="Helvetica,sans-Serif" font-size="10.00">src/main/io_modify.C</text>
</a>
</g>
</g>
<!-- Node1&#45;&gt;Node44 -->
<g id="edge47_Node000001_Node000044" class="edge">
<title>Node1&#45;&gt;Node44</title>
<g id="a_edge47_Node000001_Node000044"><a xlink:title=" ">
<path fill="none" stroke="#63b8ff" d="M2642.26,-140.69C2854.09,-137.45 3516.15,-125.25 3728.38,-97 3737.46,-95.79 3747.17,-93.87 3756.15,-91.82"/>
<polygon fill="#63b8ff" stroke="#63b8ff" points="2642.49,-137.19 2632.55,-140.84 2642.6,-144.19 2642.49,-137.19"/>
</a>
</g>
</g>
<!-- Node45 -->
<g id="Node000045" class="node">
<title>Node45</title>
<g id="a_Node000045"><a xlink:href="Ionull__DatabaseIO_8C.html" target="_top" xlink:title=" ">
<polygon fill="white" stroke="#666666" points="4004.38,-91.38 3862.38,-91.38 3862.38,-72.12 4004.38,-72.12 4004.38,-91.38"/>
<text text-anchor="middle" x="3933.38" y="-77.88" font-family="Helvetica,sans-Serif" font-size="10.00">src/null/Ionull_DatabaseIO.C</text>
</a>
</g>
</g>
<!-- Node1&#45;&gt;Node45 -->
<g id="edge48_Node000001_Node000045" class="edge">
<title>Node1&#45;&gt;Node45</title>
<g id="a_edge48_Node000001_Node000045"><a xlink:title=" ">
<path fill="none" stroke="#63b8ff" d="M2642.73,-140.55C2869.85,-136.66 3615.13,-122.25 3853.38,-97 3864.88,-95.78 3877.22,-93.88 3888.68,-91.86"/>
<polygon fill="#63b8ff" stroke="#63b8ff" points="2642.81,-137.04 2632.87,-140.71 2642.93,-144.04 2642.81,-137.04"/>
</a>
</g>
</g>
<!-- Node46 -->
<g id="Node000046" class="node">
<title>Node46</title>
<g id="a_Node000046"><a xlink:href="Iotm__DatabaseIO_8C.html" target="_top" xlink:title=" ">
<polygon fill="white" stroke="#666666" points="4122.75,-97 4022,-97 4022,-66.5 4122.75,-66.5 4122.75,-97"/>
<text text-anchor="start" x="4030" y="-83.5" font-family="Helvetica,sans-Serif" font-size="10.00">src/text_mesh/Iotm</text>
<text text-anchor="middle" x="4072.38" y="-72.25" font-family="Helvetica,sans-Serif" font-size="10.00">_DatabaseIO.C</text>
</a>
</g>
</g>
<!-- Node1&#45;&gt;Node46 -->
<g id="edge49_Node000001_Node000046" class="edge">
<title>Node1&#45;&gt;Node46</title>
<g id="a_edge49_Node000001_Node000046"><a xlink:title=" ">
<path fill="none" stroke="#63b8ff" d="M2642.34,-141.38C2887.12,-140.19 3743.09,-133.44 4013.38,-97 4016.09,-96.63 4018.86,-96.2 4021.65,-95.7"/>
<polygon fill="#63b8ff" stroke="#63b8ff" points="2642.65,-137.88 2632.67,-141.42 2642.68,-144.88 2642.65,-137.88"/>
</a>
</g>
</g>
<!-- Node47 -->
<g id="Node000047" class="node">
<title>Node47</title>
<g id="a_Node000047"><a xlink:href="UnitTestIotmTextMeshFixture_8h.html" target="_top" xlink:title=" ">
<polygon fill="white" stroke="#666666" points="4275.62,-97 4141.12,-97 4141.12,-66.5 4275.62,-66.5 4275.62,-97"/>
<text text-anchor="start" x="4149.12" y="-83.5" font-family="Helvetica,sans-Serif" font-size="10.00">src/unit_tests/UnitTestIotm</text>
<text text-anchor="middle" x="4208.38" y="-72.25" font-family="Helvetica,sans-Serif" font-size="10.00">TextMeshFixture.h</text>
</a>
</g>
</g>
<!-- Node1&#45;&gt;Node47 -->
<g id="edge50_Node000001_Node000047" class="edge">
<title>Node1&#45;&gt;Node47</title>
<g id="a_edge50_Node000001_Node000047"><a xlink:title=" ">
<path fill="none" stroke="#63b8ff" d="M2642.47,-141.09C2899.93,-138.78 3835.96,-128.38 4131.38,-97 4134.48,-96.67 4137.66,-96.28 4140.86,-95.85"/>
<polygon fill="#63b8ff" stroke="#63b8ff" points="2642.57,-137.59 2632.6,-141.17 2642.63,-144.59 2642.57,-137.59"/>
</a>
</g>
</g>
<!-- Node49 -->
<g id="Node000049" class="node">
<title>Node49</title>
<g id="a_Node000049"><a xlink:href="Utst__IofxDatabaseIO_8C.html" target="_top" xlink:title=" ">
<polygon fill="white" stroke="#666666" points="4454.75,-91.38 4294,-91.38 4294,-72.12 4454.75,-72.12 4454.75,-91.38"/>
<text text-anchor="middle" x="4374.38" y="-77.88" font-family="Helvetica,sans-Serif" font-size="10.00">src/utest/Utst_IofxDatabaseIO.C</text>
</a>
</g>
</g>
<!-- Node1&#45;&gt;Node49 -->
<g id="edge53_Node000001_Node000049" class="edge">
<title>Node1&#45;&gt;Node49</title>
<g id="a_edge53_Node000001_Node000049"><a xlink:title=" ">
<path fill="none" stroke="#63b8ff" d="M2642.54,-141.06C2915.75,-138.52 3956.95,-127.07 4284.38,-97 4297.45,-95.8 4311.51,-93.88 4324.54,-91.83"/>
<polygon fill="#63b8ff" stroke="#63b8ff" points="2642.73,-137.55 2632.76,-141.15 2642.8,-144.55 2642.73,-137.55"/>
</a>
</g>
</g>
<!-- Node7 -->
<g id="Node000007" class="node">
<title>Node7</title>
<g id="a_Node000007"><a xlink:href="Ioss__Compare_8C.html" target="_top" xlink:title=" ">
<polygon fill="white" stroke="#666666" points="1026.75,-24.88 920,-24.88 920,-5.63 1026.75,-5.63 1026.75,-24.88"/>
<text text-anchor="middle" x="973.38" y="-11.38" font-family="Helvetica,sans-Serif" font-size="10.00">src/Ioss_Compare.C</text>
</a>
</g>
</g>
<!-- Node6&#45;&gt;Node7 -->
<g id="edge6_Node000006_Node000007" class="edge">
<title>Node6&#45;&gt;Node7</title>
<g id="a_edge6_Node000006_Node000007"><a xlink:title=" ">
<path fill="none" stroke="#63b8ff" d="M1362.77,-73.97C1283.44,-65.76 1150.05,-50.52 1036.38,-30.5 1028.09,-29.04 1019.26,-27.21 1010.9,-25.36"/>
<polygon fill="#63b8ff" stroke="#63b8ff" points="1362.26,-77.43 1372.56,-74.97 1362.97,-70.47 1362.26,-77.43"/>
</a>
</g>
</g>
<!-- Node8 -->
<g id="Node000008" class="node">
<title>Node8</title>
<g id="a_Node000008"><a xlink:href="Ioss__CopyDatabase_8C.html" target="_top" xlink:title=" ">
<polygon fill="white" stroke="#666666" points="1177.5,-24.88 1045.25,-24.88 1045.25,-5.63 1177.5,-5.63 1177.5,-24.88"/>
<text text-anchor="middle" x="1111.38" y="-11.38" font-family="Helvetica,sans-Serif" font-size="10.00">src/Ioss_CopyDatabase.C</text>
</a>
</g>
</g>
<!-- Node6&#45;&gt;Node8 -->
<g id="edge7_Node000006_Node000008" class="edge">
<title>Node6&#45;&gt;Node8</title>
<g id="a_edge7_Node000006_Node000008"><a xlink:title=" ">
<path fill="none" stroke="#63b8ff" d="M1375.86,-69.39C1313.46,-56.86 1214.24,-36.92 1156.71,-25.36"/>
<polygon fill="#63b8ff" stroke="#63b8ff" points="1375.09,-72.81 1385.58,-71.35 1376.47,-65.95 1375.09,-72.81"/>
</a>
</g>
</g>
<!-- Node9 -->
<g id="Node000009" class="node">
<title>Node9</title>
<g id="a_Node000009"><a xlink:href="Ioss__DatabaseIO_8C.html" target="_top" xlink:title=" ">
<polygon fill="white" stroke="#666666" points="1315.12,-24.88 1195.62,-24.88 1195.62,-5.63 1315.12,-5.63 1315.12,-24.88"/>
<text text-anchor="middle" x="1255.38" y="-11.38" font-family="Helvetica,sans-Serif" font-size="10.00">src/Ioss_DatabaseIO.C</text>
</a>
</g>
</g>
<!-- Node6&#45;&gt;Node9 -->
<g id="edge8_Node000006_Node000009" class="edge">
<title>Node6&#45;&gt;Node9</title>
<g id="a_edge8_Node000006_Node000009"><a xlink:title=" ">
<path fill="none" stroke="#63b8ff" d="M1396.81,-67.79C1362.23,-55.19 1310.61,-36.38 1280.23,-25.31"/>
<polygon fill="#63b8ff" stroke="#63b8ff" points="1395.37,-70.99 1405.97,-71.13 1397.77,-64.41 1395.37,-70.99"/>
</a>
</g>
</g>
<!-- Node10 -->
<g id="Node000010" class="node">
<title>Node10</title>
<g id="a_Node000010"><a xlink:href="Ioss__Utils_8C.html" target="_top" xlink:title=" ">
<polygon fill="white" stroke="#666666" points="1420,-24.88 1332.75,-24.88 1332.75,-5.63 1420,-5.63 1420,-24.88"/>
<text text-anchor="middle" x="1376.38" y="-11.38" font-family="Helvetica,sans-Serif" font-size="10.00">src/Ioss_Utils.C</text>
</a>
</g>
</g>
<!-- Node6&#45;&gt;Node10 -->
<g id="edge9_Node000006_Node000010" class="edge">
<title>Node6&#45;&gt;Node10</title>
<g id="a_edge9_Node000006_Node000010"><a xlink:title=" ">
<path fill="none" stroke="#63b8ff" d="M1417.17,-63.23C1406.47,-50.91 1392.59,-34.93 1384.1,-25.14"/>
<polygon fill="#63b8ff" stroke="#63b8ff" points="1414.4,-65.38 1423.6,-70.64 1419.68,-60.79 1414.4,-65.38"/>
</a>
</g>
</g>
<!-- Node11 -->
<g id="Node000011" class="node">
<title>Node11</title>
<g id="a_Node000011"><a xlink:href="Iocgns__DatabaseIO_8C.html" target="_top" xlink:title=" ">
<polygon fill="white" stroke="#666666" points="902.38,-24.88 748.38,-24.88 748.38,-5.63 902.38,-5.63 902.38,-24.88"/>
<text text-anchor="middle" x="825.38" y="-11.38" font-family="Helvetica,sans-Serif" font-size="10.00">src/cgns/Iocgns_DatabaseIO.C</text>
</a>
</g>
</g>
<!-- Node6&#45;&gt;Node11 -->
<g id="edge10_Node000006_Node000011" class="edge">
<title>Node6&#45;&gt;Node11</title>
<g id="a_edge10_Node000006_Node000011"><a xlink:title=" ">
<path fill="none" stroke="#63b8ff" d="M1362.55,-75.53C1262.43,-67.71 1072.37,-51.58 911.38,-30.5 900.12,-29.03 888.08,-27.19 876.68,-25.34"/>
<polygon fill="#63b8ff" stroke="#63b8ff" points="1362.27,-79.02 1372.51,-76.31 1362.81,-72.04 1362.27,-79.02"/>
</a>
</g>
</g>
<!-- Node6&#45;&gt;Node12 -->
<g id="edge11_Node000006_Node000012" class="edge">
<title>Node6&#45;&gt;Node12</title>
<g id="a_edge11_Node000006_Node000012"><a xlink:title=" ">
<path fill="none" stroke="#63b8ff" d="M1501.67,-70.91C1515.15,-69.24 1529.19,-67.67 1542.38,-66.5 1871.69,-37.24 1958.32,-78.83 2285.38,-30.5 2288.2,-30.08 2291.09,-29.59 2294,-29.03"/>
<polygon fill="#63b8ff" stroke="#63b8ff" points="1501.49,-67.41 1492.01,-72.14 1502.37,-74.35 1501.49,-67.41"/>
</a>
</g>
</g>
<!-- Node13 -->
<g id="Node000013" class="node">
<title>Node13</title>
<g id="a_Node000013"><a xlink:href="io__shell_8C.html" target="_top" xlink:title=" ">
<polygon fill="white" stroke="#666666" points="1538.38,-24.88 1438.38,-24.88 1438.38,-5.63 1538.38,-5.63 1538.38,-24.88"/>
<text text-anchor="middle" x="1488.38" y="-11.38" font-family="Helvetica,sans-Serif" font-size="10.00">src/main/io_shell.C</text>
</a>
</g>
</g>
<!-- Node6&#45;&gt;Node13 -->
<g id="edge12_Node000006_Node000013" class="edge">
<title>Node6&#45;&gt;Node13</title>
<g id="a_edge12_Node000006_Node000013"><a xlink:title=" ">
<path fill="none" stroke="#63b8ff" d="M1447.58,-63.23C1458.28,-50.91 1472.16,-34.93 1480.65,-25.14"/>
<polygon fill="#63b8ff" stroke="#63b8ff" points="1445.07,-60.79 1441.15,-70.64 1450.35,-65.38 1445.07,-60.79"/>
</a>
</g>
</g>
<!-- Node14 -->
<g id="Node000014" class="node">
<title>Node14</title>
<g id="a_Node000014"><a xlink:href="io__shell__ts_8C.html" target="_top" xlink:title=" ">
<polygon fill="white" stroke="#666666" points="1670.12,-24.88 1556.62,-24.88 1556.62,-5.63 1670.12,-5.63 1670.12,-24.88"/>
<text text-anchor="middle" x="1613.38" y="-11.38" font-family="Helvetica,sans-Serif" font-size="10.00">src/main/io_shell_ts.C</text>
</a>
</g>
</g>
<!-- Node6&#45;&gt;Node14 -->
<g id="edge13_Node000006_Node000014" class="edge">
<title>Node6&#45;&gt;Node14</title>
<g id="a_edge13_Node000006_Node000014"><a xlink:title=" ">
<path fill="none" stroke="#63b8ff" d="M1468.74,-67.79C1504.1,-55.19 1556.89,-36.38 1587.96,-25.31"/>
<polygon fill="#63b8ff" stroke="#63b8ff" points="1467.59,-64.48 1459.35,-71.14 1469.94,-71.08 1467.59,-64.48"/>
</a>
</g>
</g>
<!-- Node15 -->
<g id="Node000015" class="node">
<title>Node15</title>
<g id="a_Node000015"><a xlink:href="struc__to__unstruc_8C.html" target="_top" xlink:title=" ">
<polygon fill="white" stroke="#666666" points="730.25,-24.88 590.5,-24.88 590.5,-5.63 730.25,-5.63 730.25,-24.88"/>
<text text-anchor="middle" x="660.38" y="-11.38" font-family="Helvetica,sans-Serif" font-size="10.00">src/main/struc_to_unstruc.C</text>
</a>
</g>
</g>
<!-- Node6&#45;&gt;Node15 -->
<g id="edge14_Node000006_Node000015" class="edge">
<title>Node6&#45;&gt;Node15</title>
<g id="a_edge14_Node000006_Node000015"><a xlink:title=" ">
<path fill="none" stroke="#63b8ff" d="M1362.94,-78.15C1237.86,-72.94 966.56,-59.14 739.38,-30.5 728.59,-29.14 717.04,-27.29 706.2,-25.37"/>
<polygon fill="#63b8ff" stroke="#63b8ff" points="1362.57,-81.64 1372.7,-78.56 1362.86,-74.65 1362.57,-81.64"/>
</a>
</g>
</g>
<!-- Node16 -->
<g id="Node000016" class="node">
<title>Node16</title>
<g id="a_Node000016"><a xlink:href="Iopg__DatabaseIO_8C.html" target="_top" xlink:title=" ">
<polygon fill="white" stroke="#666666" points="1844.88,-24.88 1687.88,-24.88 1687.88,-5.63 1844.88,-5.63 1844.88,-24.88"/>
<text text-anchor="middle" x="1766.38" y="-11.38" font-family="Helvetica,sans-Serif" font-size="10.00">src/pamgen/Iopg_DatabaseIO.C</text>
</a>
</g>
</g>
<!-- Node6&#45;&gt;Node16 -->
<g id="edge15_Node000006_Node000016" class="edge">
<title>Node6&#45;&gt;Node16</title>
<g id="a_edge15_Node000006_Node000016"><a xlink:title=" ">
<path fill="none" stroke="#63b8ff" d="M1489.23,-69.46C1494.35,-68.46 1499.46,-67.46 1504.38,-66.5 1579.16,-51.93 1666.01,-35.34 1718.55,-25.33"/>
<polygon fill="#63b8ff" stroke="#63b8ff" points="1488.69,-66 1479.56,-71.37 1490.05,-72.87 1488.69,-66"/>
</a>
</g>
</g>
<!-- Node6&#45;&gt;Node17 -->
<g id="edge16_Node000006_Node000017" class="edge">
<title>Node6&#45;&gt;Node17</title>
<g id="a_edge16_Node000006_Node000017"><a xlink:title=" ">
<path fill="none" stroke="#63b8ff" d="M1484.19,-69.59C1490.96,-68.4 1497.81,-67.32 1504.38,-66.5 1796.3,-29.85 1874.2,-72.66 2165.38,-30.5 2174.06,-29.24 2183.34,-27.33 2191.94,-25.31"/>
<polygon fill="#63b8ff" stroke="#63b8ff" points="1483.63,-66.13 1474.44,-71.4 1484.91,-73.01 1483.63,-66.13"/>
</a>
</g>
</g>
<!-- Node18 -->
<g id="Node000018" class="node">
<title>Node18</title>
<g id="a_Node000018"><a xlink:href="Utst__heartbeat_8C.html" target="_top" xlink:title=" ">
<polygon fill="white" stroke="#666666" points="1995.5,-24.88 1863.25,-24.88 1863.25,-5.63 1995.5,-5.63 1995.5,-24.88"/>
<text text-anchor="middle" x="1929.38" y="-11.38" font-family="Helvetica,sans-Serif" font-size="10.00">src/utest/Utst_heartbeat.C</text>
</a>
</g>
</g>
<!-- Node6&#45;&gt;Node18 -->
<g id="edge17_Node000006_Node000018" class="edge">
<title>Node6&#45;&gt;Node18</title>
<g id="a_edge17_Node000006_Node000018"><a xlink:title=" ">
<path fill="none" stroke="#63b8ff" d="M1485.95,-69.58C1492.15,-68.46 1498.39,-67.4 1504.38,-66.5 1658.58,-43.34 1699.06,-52.89 1853.38,-30.5 1863.47,-29.04 1874.27,-27.18 1884.47,-25.31"/>
<polygon fill="#63b8ff" stroke="#63b8ff" points="1485.57,-66.09 1476.39,-71.38 1486.86,-72.97 1485.57,-66.09"/>
</a>
</g>
</g>
<!-- Node19 -->
<g id="Node000019" class="node">
<title>Node19</title>
<g id="a_Node000019"><a xlink:href="Iovs__exodus__DatabaseIO_8C.html" target="_top" xlink:title=" ">
<polygon fill="white" stroke="#666666" points="2156.75,-30.5 2014,-30.5 2014,0 2156.75,0 2156.75,-30.5"/>
<text text-anchor="start" x="2022" y="-17" font-family="Helvetica,sans-Serif" font-size="10.00">src/visualization/exodus</text>
<text text-anchor="middle" x="2085.38" y="-5.75" font-family="Helvetica,sans-Serif" font-size="10.00">/Iovs_exodus_DatabaseIO.C</text>
</a>
</g>
</g>
<!-- Node6&#45;&gt;Node19 -->
<g id="edge18_Node000006_Node000019" class="edge">
<title>Node6&#45;&gt;Node19</title>
<g id="a_edge18_Node000006_Node000019"><a xlink:title=" ">
<path fill="none" stroke="#63b8ff" d="M1484.7,-69.61C1491.31,-68.44 1497.98,-67.36 1504.38,-66.5 1725.19,-36.82 1783.26,-57.84 2004.38,-30.5 2007.49,-30.11 2010.67,-29.69 2013.88,-29.24"/>
<polygon fill="#63b8ff" stroke="#63b8ff" points="1484.41,-66.1 1475.22,-71.38 1485.69,-72.99 1484.41,-66.1"/>
</a>
</g>
</g>
<!-- Node23&#45;&gt;Node11 -->
<g id="edge23_Node000023_Node000011" class="edge">
<title>Node23&#45;&gt;Node11</title>
<g id="a_edge23_Node000023_Node000011"><a xlink:title=" ">
<path fill="none" stroke="#63b8ff" d="M825.38,-60.27C825.38,-48.44 825.38,-34.16 825.38,-25.14"/>
<polygon fill="#63b8ff" stroke="#63b8ff" points="821.88,-60.27 825.38,-70.27 828.88,-60.27 821.88,-60.27"/>
</a>
</g>
</g>
<!-- Node23&#45;&gt;Node15 -->
<g id="edge27_Node000023_Node000015" class="edge">
<title>Node23&#45;&gt;Node15</title>
<g id="a_edge27_Node000023_Node000015"><a xlink:title=" ">
<path fill="none" stroke="#63b8ff" d="M791.38,-67.46C759.16,-54.87 711.62,-36.28 683.55,-25.31"/>
<polygon fill="#63b8ff" stroke="#63b8ff" points="790.09,-70.71 800.67,-71.09 792.64,-64.19 790.09,-70.71"/>
</a>
</g>
</g>
<!-- Node24 -->
<g id="Node000024" class="node">
<title>Node24</title>
<g id="a_Node000024"><a xlink:href="Iocgns__IOFactory_8C.html" target="_top" xlink:title=" ">
<polygon fill="white" stroke="#666666" points="286.12,-24.88 142.62,-24.88 142.62,-5.63 286.12,-5.63 286.12,-24.88"/>
<text text-anchor="middle" x="214.38" y="-11.38" font-family="Helvetica,sans-Serif" font-size="10.00">src/cgns/Iocgns_IOFactory.C</text>
</a>
</g>
</g>
<!-- Node23&#45;&gt;Node24 -->
<g id="edge24_Node000023_Node000024" class="edge">
<title>Node23&#45;&gt;Node24</title>
<g id="a_edge24_Node000023_Node000024"><a xlink:title=" ">
<path fill="none" stroke="#63b8ff" d="M774.77,-69.54C768.59,-68.4 762.35,-67.35 756.38,-66.5 552.9,-37.66 499.26,-56.33 295.38,-30.5 284.33,-29.1 272.49,-27.23 261.37,-25.31"/>
<polygon fill="#63b8ff" stroke="#63b8ff" points="773.78,-72.92 784.27,-71.39 775.12,-66.04 773.78,-72.92"/>
</a>
</g>
</g>
<!-- Node25 -->
<g id="Node000025" class="node">
<title>Node25</title>
<g id="a_Node000025"><a xlink:href="Iocgns__Utils_8C.html" target="_top" xlink:title=" ">
<polygon fill="white" stroke="#666666" points="426.25,-24.88 304.5,-24.88 304.5,-5.63 426.25,-5.63 426.25,-24.88"/>
<text text-anchor="middle" x="365.38" y="-11.38" font-family="Helvetica,sans-Serif" font-size="10.00">src/cgns/Iocgns_Utils.C</text>
</a>
</g>
</g>
<!-- Node23&#45;&gt;Node25 -->
<g id="edge25_Node000023_Node000025" class="edge">
<title>Node23&#45;&gt;Node25</title>
<g id="a_edge25_Node000023_Node000025"><a xlink:title=" ">
<path fill="none" stroke="#63b8ff" d="M773.59,-69.52C767.8,-68.42 761.97,-67.39 756.38,-66.5 614.59,-43.96 577.19,-52.84 435.38,-30.5 426.06,-29.03 416.11,-27.18 406.72,-25.3"/>
<polygon fill="#63b8ff" stroke="#63b8ff" points="772.65,-72.9 783.14,-71.4 774,-66.03 772.65,-72.9"/>
</a>
</g>
</g>
<!-- Node26 -->
<g id="Node000026" class="node">
<title>Node26</title>
<g id="a_Node000026"><a xlink:href="cgns__decomp_8C.html" target="_top" xlink:title=" ">
<polygon fill="white" stroke="#666666" points="572.25,-24.88 444.5,-24.88 444.5,-5.63 572.25,-5.63 572.25,-24.88"/>
<text text-anchor="middle" x="508.38" y="-11.38" font-family="Helvetica,sans-Serif" font-size="10.00">src/main/cgns_decomp.C</text>
</a>
</g>
</g>
<!-- Node23&#45;&gt;Node26 -->
<g id="edge26_Node000023_Node000026" class="edge">
<title>Node23&#45;&gt;Node26</title>
<g id="a_edge26_Node000023_Node000026"><a xlink:title=" ">
<path fill="none" stroke="#63b8ff" d="M770.48,-69.39C765.71,-68.41 760.96,-67.44 756.38,-66.5 685.58,-52.02 603.36,-35.4 553.64,-25.37"/>
<polygon fill="#63b8ff" stroke="#63b8ff" points="769.6,-72.78 780.1,-71.37 771.01,-65.93 769.6,-72.78"/>
</a>
</g>
</g>
<!-- Node27 -->
<g id="Node000027" class="node">
<title>Node27</title>
<g id="a_Node000027"><a xlink:href="Utst__structured__decomp_8C.html" target="_top" xlink:title=" ">
<polygon fill="white" stroke="#666666" points="124.75,-30.5 0,-30.5 0,0 124.75,0 124.75,-30.5"/>
<text text-anchor="start" x="8" y="-17" font-family="Helvetica,sans-Serif" font-size="10.00">src/utest/Utst_structured</text>
<text text-anchor="middle" x="62.38" y="-5.75" font-family="Helvetica,sans-Serif" font-size="10.00">_decomp.C</text>
</a>
</g>
</g>
<!-- Node23&#45;&gt;Node27 -->
<g id="edge28_Node000023_Node000027" class="edge">
<title>Node23&#45;&gt;Node27</title>
<g id="a_edge28_Node000023_Node000027"><a xlink:title=" ">
<path fill="none" stroke="#63b8ff" d="M775.26,-69.51C768.92,-68.35 762.51,-67.31 756.38,-66.5 481.39,-30.36 408.46,-65.88 133.38,-30.5 130.63,-30.15 127.84,-29.75 125.02,-29.32"/>
<polygon fill="#63b8ff" stroke="#63b8ff" points="774.53,-72.93 785.01,-71.4 775.86,-66.06 774.53,-72.93"/>
</a>
</g>
</g>
<!-- Node34&#45;&gt;Node12 -->
<g id="edge37_Node000034_Node000012" class="edge">
<title>Node34&#45;&gt;Node12</title>
<g id="a_edge37_Node000034_Node000012"><a xlink:title=" ">
<path fill="none" stroke="#63b8ff" d="M1699.77,-66.34C1958.46,-29.75 2030.28,-69.85 2285.38,-30.5 2288.2,-30.06 2291.08,-29.55 2293.99,-28.99"/>
<polygon fill="#63b8ff" stroke="#63b8ff" points="1699.4,-62.86 1690.01,-67.75 1700.4,-69.78 1699.4,-62.86"/>
</a>
</g>
</g>
<!-- Node35 -->
<g id="Node000035" class="node">
<title>Node35</title>
<g id="a_Node000035"><a xlink:href="Iofaodel__FieldSerialization_8C.html" target="_top" xlink:title=" ">
<polygon fill="white" stroke="#666666" points="2514.38,-30.5 2408.38,-30.5 2408.38,0 2514.38,0 2514.38,-30.5"/>
<text text-anchor="start" x="2416.38" y="-17" font-family="Helvetica,sans-Serif" font-size="10.00">src/faodel/Iofaodel</text>
<text text-anchor="middle" x="2461.38" y="-5.75" font-family="Helvetica,sans-Serif" font-size="10.00">_FieldSerialization.C</text>
</a>
</g>
</g>
<!-- Node34&#45;&gt;Node35 -->
<g id="edge38_Node000034_Node000035" class="edge">
<title>Node34&#45;&gt;Node35</title>
<g id="a_edge38_Node000034_Node000035"><a xlink:title=" ">
<path fill="none" stroke="#63b8ff" d="M1699.59,-66.38C2008.69,-23.97 2093.59,-73.15 2399.38,-30.5 2402.22,-30.1 2405.12,-29.64 2408.05,-29.13"/>
<polygon fill="#63b8ff" stroke="#63b8ff" points="1699.42,-62.87 1690,-67.72 1700.39,-69.8 1699.42,-62.87"/>
</a>
</g>
</g>
<!-- Node42 -->
<g id="Node000042" class="node">
<title>Node42</title>
<g id="a_Node000042"><a xlink:href="io__info_8C.html" target="_top" xlink:title=" ">
<polygon fill="white" stroke="#666666" points="3784.12,-24.88 3688.62,-24.88 3688.62,-5.63 3784.12,-5.63 3784.12,-24.88"/>
<text text-anchor="middle" x="3736.38" y="-11.38" font-family="Helvetica,sans-Serif" font-size="10.00">src/main/io_info.C</text>
</a>
</g>
</g>
<!-- Node41&#45;&gt;Node42 -->
<g id="edge45_Node000041_Node000042" class="edge">
<title>Node41&#45;&gt;Node42</title>
<g id="a_edge45_Node000041_Node000042"><a xlink:title=" ">
<path fill="none" stroke="#63b8ff" d="M3689.04,-63.95C3701.36,-51.54 3717.65,-35.12 3727.55,-25.14"/>
<polygon fill="#63b8ff" stroke="#63b8ff" points="3686.9,-61.14 3682.34,-70.71 3691.87,-66.07 3686.9,-61.14"/>
</a>
</g>
</g>
<!-- Node43 -->
<g id="Node000043" class="node">
<title>Node43</title>
<g id="a_Node000043"><a xlink:href="io__info__main_8C.html" target="_top" xlink:title=" ">
<polygon fill="white" stroke="#666666" points="3670.25,-24.88 3548.5,-24.88 3548.5,-5.63 3670.25,-5.63 3670.25,-24.88"/>
<text text-anchor="middle" x="3609.38" y="-11.38" font-family="Helvetica,sans-Serif" font-size="10.00">src/main/io_info_main.C</text>
</a>
</g>
</g>
<!-- Node41&#45;&gt;Node43 -->
<g id="edge46_Node000041_Node000043" class="edge">
<title>Node41&#45;&gt;Node43</title>
<g id="a_edge46_Node000041_Node000043"><a xlink:title=" ">
<path fill="none" stroke="#63b8ff" d="M3655.62,-63.59C3643.54,-51.22 3627.71,-35.03 3618.06,-25.14"/>
<polygon fill="#63b8ff" stroke="#63b8ff" points="3653.07,-65.99 3662.56,-70.7 3658.07,-61.1 3653.07,-65.99"/>
</a>
</g>
</g>
<!-- Node48 -->
<g id="Node000048" class="node">
<title>Node48</title>
<g id="a_Node000048"><a xlink:href="UnitTestTextMesh_8C.html" target="_top" xlink:title=" ">
<polygon fill="white" stroke="#666666" points="4275.25,-30.5 4141.5,-30.5 4141.5,0 4275.25,0 4275.25,-30.5"/>
<text text-anchor="start" x="4149.5" y="-17" font-family="Helvetica,sans-Serif" font-size="10.00">src/unit_tests/UnitTestText</text>
<text text-anchor="middle" x="4208.38" y="-5.75" font-family="Helvetica,sans-Serif" font-size="10.00">Mesh.C</text>
</a>
</g>
</g>
<!-- Node47&#45;&gt;Node48 -->
<g id="edge51_Node000047_Node000048" class="edge">
<title>Node47&#45;&gt;Node48</title>
<g id="a_edge51_Node000047_Node000048"><a xlink:title=" ">
<path fill="none" stroke="#63b8ff" d="M4208.38,-54.81C4208.38,-46.64 4208.38,-37.91 4208.38,-30.83"/>
<polygon fill="#63b8ff" stroke="#63b8ff" points="4204.88,-54.6 4208.38,-64.6 4211.88,-54.6 4204.88,-54.6"/>
</a>
</g>
</g>
</g>
</svg>
