<?xml version="1.0" encoding="UTF-8" standalone="no"?>
<!DOCTYPE svg PUBLIC "-//W3C//DTD SVG 1.1//EN"
 "http://www.w3.org/Graphics/SVG/1.1/DTD/svg11.dtd">
<!-- Generated by graphviz version 5.0.1 (20220820.1526)
 -->
<!-- Title: src/Ioss_ParallelUtils.C Pages: 1 -->
<svg width="1918pt" height="357pt"
 viewBox="0.00 0.00 1917.50 357.00" xmlns="http://www.w3.org/2000/svg" xmlns:xlink="http://www.w3.org/1999/xlink">
<g id="graph0" class="graph" transform="scale(1 1) rotate(0) translate(4 353)">
<title>src/Ioss_ParallelUtils.C</title>
<!-- Node1 -->
<g id="node1" class="node">
<title>Node1</title>
<g id="a_node1"><a xlink:title=" ">
<polygon fill="#999999" stroke="#666666" points="1589,-349 1469,-349 1469,-330 1589,-330 1589,-349"/>
<text text-anchor="middle" x="1529" y="-337" font-family="Helvetica,sans-Serif" font-size="10.00">src/Ioss_ParallelUtils.C</text>
</a>
</g>
</g>
<!-- Node2 -->
<g id="node2" class="node">
<title>Node2</title>
<g id="a_node2"><a xlink:href="Ioss__CodeTypes_8h.html" target="_top" xlink:title=" ">
<polygon fill="white" stroke="#666666" points="784,-74 686,-74 686,-55 784,-55 784,-74"/>
<text text-anchor="middle" x="735" y="-62" font-family="Helvetica,sans-Serif" font-size="10.00">Ioss_CodeTypes.h</text>
</a>
</g>
</g>
<!-- Node1&#45;&gt;Node2 -->
<g id="edge1" class="edge">
<title>Node1&#45;&gt;Node2</title>
<path fill="none" stroke="#63b8ff" d="M1468.69,-338.01C1287.74,-335.07 756.11,-315.21 661,-184 633.87,-146.57 708.32,-146.62 721,-129 730.37,-115.97 733.65,-97.83 734.72,-84.27"/>
<polygon fill="#63b8ff" stroke="#63b8ff" points="738.22,-84.32 735.17,-74.17 731.23,-84 738.22,-84.32"/>
</g>
<!-- Node4 -->
<g id="node4" class="node">
<title>Node4</title>
<g id="a_node4"><a xlink:title=" ">
<polygon fill="#e0e0e0" stroke="#999999" points="1441.5,-19 1392.5,-19 1392.5,0 1441.5,0 1441.5,-19"/>
<text text-anchor="middle" x="1417" y="-7" font-family="Helvetica,sans-Serif" font-size="10.00">cstddef</text>
</a>
</g>
</g>
<!-- Node1&#45;&gt;Node4 -->
<g id="edge69" class="edge">
<title>Node1&#45;&gt;Node4</title>
<path fill="none" stroke="#63b8ff" d="M1582.12,-329.97C1603.17,-323.7 1625.35,-312.83 1638,-294 1669.97,-246.41 1655.24,-219.68 1638,-165 1620.06,-108.08 1609.22,-90.15 1561,-55 1528.32,-31.18 1482.63,-19.9 1451.53,-14.71"/>
<polygon fill="#63b8ff" stroke="#63b8ff" points="1452.01,-11.24 1441.59,-13.17 1450.94,-18.15 1452.01,-11.24"/>
</g>
<!-- Node6 -->
<g id="node6" class="node">
<title>Node6</title>
<g id="a_node6"><a xlink:title=" ">
<polygon fill="#e0e0e0" stroke="#999999" points="420.5,-19 379.5,-19 379.5,0 420.5,0 420.5,-19"/>
<text text-anchor="middle" x="400" y="-7" font-family="Helvetica,sans-Serif" font-size="10.00">string</text>
</a>
</g>
</g>
<!-- Node1&#45;&gt;Node6 -->
<g id="edge74" class="edge">
<title>Node1&#45;&gt;Node6</title>
<path fill="none" stroke="#63b8ff" d="M1468.69,-337.97C1250.51,-335.79 502.71,-326.1 266,-294 145.56,-277.67 0,-352.04 0,-230.5 0,-230.5 0,-230.5 0,-118.5 0,-42.05 275.76,-18.1 369.35,-12.17"/>
<polygon fill="#63b8ff" stroke="#63b8ff" points="369.57,-15.66 379.34,-11.56 369.14,-8.68 369.57,-15.66"/>
</g>
<!-- Node7 -->
<g id="node7" class="node">
<title>Node7</title>
<g id="a_node7"><a xlink:title=" ">
<polygon fill="#e0e0e0" stroke="#999999" points="969,-19 925,-19 925,0 969,0 969,-19"/>
<text text-anchor="middle" x="947" y="-7" font-family="Helvetica,sans-Serif" font-size="10.00">vector</text>
</a>
</g>
</g>
<!-- Node1&#45;&gt;Node7 -->
<g id="edge78" class="edge">
<title>Node1&#45;&gt;Node7</title>
<path fill="none" stroke="#63b8ff" d="M1545.12,-329.88C1572.22,-314.07 1624,-277.7 1624,-230.5 1624,-230.5 1624,-230.5 1624,-173.5 1624,-110.69 1601.05,-86.98 1547,-55 1497.97,-25.99 1096.67,-14.1 979.19,-11.23"/>
<polygon fill="#63b8ff" stroke="#63b8ff" points="979.12,-7.72 969.04,-10.98 978.95,-14.72 979.12,-7.72"/>
</g>
<!-- Node10 -->
<g id="node10" class="node">
<title>Node10</title>
<g id="a_node10"><a xlink:href="Ioss__ParallelUtils_8h.html" target="_top" xlink:title=" ">
<polygon fill="white" stroke="#666666" points="1129.5,-294 1028.5,-294 1028.5,-275 1129.5,-275 1129.5,-294"/>
<text text-anchor="middle" x="1079" y="-282" font-family="Helvetica,sans-Serif" font-size="10.00">Ioss_ParallelUtils.h</text>
</a>
</g>
</g>
<!-- Node1&#45;&gt;Node10 -->
<g id="edge9" class="edge">
<title>Node1&#45;&gt;Node10</title>
<path fill="none" stroke="#63b8ff" d="M1468.95,-331.84C1393.17,-323.37 1258.86,-308.15 1144,-294 1142.7,-293.84 1141.38,-293.68 1140.05,-293.51"/>
<polygon fill="#63b8ff" stroke="#63b8ff" points="1140.09,-289.99 1129.73,-292.21 1139.22,-296.93 1140.09,-289.99"/>
</g>
<!-- Node11 -->
<g id="node11" class="node">
<title>Node11</title>
<g id="a_node11"><a xlink:href="Ioss__Utils_8h.html" target="_top" xlink:title=" ">
<polygon fill="white" stroke="#666666" points="1015.5,-239 946.5,-239 946.5,-220 1015.5,-220 1015.5,-239"/>
<text text-anchor="middle" x="981" y="-227" font-family="Helvetica,sans-Serif" font-size="10.00">Ioss_Utils.h</text>
</a>
</g>
</g>
<!-- Node1&#45;&gt;Node11 -->
<g id="edge66" class="edge">
<title>Node1&#45;&gt;Node11</title>
<path fill="none" stroke="#63b8ff" d="M1468.55,-336.3C1341.7,-331.23 1056.34,-317.37 1019,-294 1002.7,-283.8 992.47,-263.82 986.79,-248.98"/>
<polygon fill="#63b8ff" stroke="#63b8ff" points="990.01,-247.6 983.43,-239.3 983.4,-249.9 990.01,-247.6"/>
</g>
<!-- Node23 -->
<g id="node23" class="node">
<title>Node23</title>
<g id="a_node23"><a xlink:title=" ">
<polygon fill="#e0e0e0" stroke="#999999" points="1520,-74 1464,-74 1464,-55 1520,-55 1520,-74"/>
<text text-anchor="middle" x="1492" y="-62" font-family="Helvetica,sans-Serif" font-size="10.00">algorithm</text>
</a>
</g>
</g>
<!-- Node1&#45;&gt;Node23 -->
<g id="edge67" class="edge">
<title>Node1&#45;&gt;Node23</title>
<path fill="none" stroke="#63b8ff" d="M1534.23,-329.66C1548.81,-303.82 1587.55,-226.41 1567,-165 1555.69,-131.2 1527.87,-99.69 1509.48,-81.53"/>
<polygon fill="#63b8ff" stroke="#63b8ff" points="1511.43,-78.55 1501.78,-74.16 1506.59,-83.6 1511.43,-78.55"/>
</g>
<!-- Node27 -->
<g id="node27" class="node">
<title>Node27</title>
<g id="a_node27"><a xlink:title=" ">
<polygon fill="#e0e0e0" stroke="#999999" points="1455.5,-184 1406.5,-184 1406.5,-165 1455.5,-165 1455.5,-184"/>
<text text-anchor="middle" x="1431" y="-172" font-family="Helvetica,sans-Serif" font-size="10.00">cassert</text>
</a>
</g>
</g>
<!-- Node1&#45;&gt;Node27 -->
<g id="edge68" class="edge">
<title>Node1&#45;&gt;Node27</title>
<path fill="none" stroke="#63b8ff" d="M1523.73,-329.74C1508.18,-303.87 1462.25,-227.48 1441.45,-192.88"/>
<polygon fill="#63b8ff" stroke="#63b8ff" points="1444.45,-191.07 1436.29,-184.31 1438.45,-194.68 1444.45,-191.07"/>
</g>
<!-- Node29 -->
<g id="node29" class="node">
<title>Node29</title>
<g id="a_node29"><a xlink:title=" ">
<polygon fill="#e0e0e0" stroke="#999999" points="1557.5,-184 1512.5,-184 1512.5,-165 1557.5,-165 1557.5,-184"/>
<text text-anchor="middle" x="1535" y="-172" font-family="Helvetica,sans-Serif" font-size="10.00">cstdlib</text>
</a>
</g>
</g>
<!-- Node1&#45;&gt;Node29 -->
<g id="edge70" class="edge">
<title>Node1&#45;&gt;Node29</title>
<path fill="none" stroke="#63b8ff" d="M1529.32,-329.74C1530.26,-304.31 1532.99,-230.08 1534.29,-194.69"/>
<polygon fill="#63b8ff" stroke="#63b8ff" points="1537.81,-194.43 1534.68,-184.31 1530.81,-194.17 1537.81,-194.43"/>
</g>
<!-- Node32 -->
<g id="node32" class="node">
<title>Node32</title>
<g id="a_node32"><a xlink:href="Ioss__PropertyManager_8h.html" target="_top" xlink:title=" ">
<polygon fill="white" stroke="#666666" points="334,-129 212,-129 212,-110 334,-110 334,-129"/>
<text text-anchor="middle" x="273" y="-117" font-family="Helvetica,sans-Serif" font-size="10.00">Ioss_PropertyManager.h</text>
</a>
</g>
</g>
<!-- Node1&#45;&gt;Node32 -->
<g id="edge59" class="edge">
<title>Node1&#45;&gt;Node32</title>
<path fill="none" stroke="#63b8ff" d="M1468.67,-336.72C1198.39,-328.45 110.06,-291.96 62,-239 39.9,-214.65 41.28,-190.54 62,-165 79.48,-143.45 147.43,-131.94 201.56,-126.07"/>
<polygon fill="#63b8ff" stroke="#63b8ff" points="202.25,-129.51 211.84,-125 201.53,-122.55 202.25,-129.51"/>
</g>
<!-- Node34 -->
<g id="node34" class="node">
<title>Node34</title>
<g id="a_node34"><a xlink:title=" ">
<polygon fill="#e0e0e0" stroke="#999999" points="1745,-294 1699,-294 1699,-275 1745,-275 1745,-294"/>
<text text-anchor="middle" x="1722" y="-282" font-family="Helvetica,sans-Serif" font-size="10.00">cstring</text>
</a>
</g>
</g>
<!-- Node1&#45;&gt;Node34 -->
<g id="edge71" class="edge">
<title>Node1&#45;&gt;Node34</title>
<path fill="none" stroke="#63b8ff" d="M1560.01,-329.98C1595.31,-320.29 1652.75,-304.52 1688.9,-294.59"/>
<polygon fill="#63b8ff" stroke="#63b8ff" points="1690.23,-297.86 1698.94,-291.83 1688.37,-291.11 1690.23,-297.86"/>
</g>
<!-- Node35 -->
<g id="node35" class="node">
<title>Node35</title>
<g id="a_node35"><a xlink:title=" ">
<polygon fill="#e0e0e0" stroke="#999999" points="1840.5,-294 1763.5,-294 1763.5,-275 1840.5,-275 1840.5,-294"/>
<text text-anchor="middle" x="1802" y="-282" font-family="Helvetica,sans-Serif" font-size="10.00">fmt/ostream.h</text>
</a>
</g>
</g>
<!-- Node1&#45;&gt;Node35 -->
<g id="edge72" class="edge">
<title>Node1&#45;&gt;Node35</title>
<path fill="none" stroke="#63b8ff" d="M1572.86,-329.98C1622.18,-320.41 1702.04,-304.91 1753.26,-294.96"/>
<polygon fill="#63b8ff" stroke="#63b8ff" points="1753.96,-298.39 1763.11,-293.05 1752.63,-291.52 1753.96,-298.39"/>
</g>
<!-- Node36 -->
<g id="node36" class="node">
<title>Node36</title>
<g id="a_node36"><a xlink:title=" ">
<polygon fill="#e0e0e0" stroke="#999999" points="1909.5,-294 1858.5,-294 1858.5,-275 1909.5,-275 1909.5,-294"/>
<text text-anchor="middle" x="1884" y="-282" font-family="Helvetica,sans-Serif" font-size="10.00">numeric</text>
</a>
</g>
</g>
<!-- Node1&#45;&gt;Node36 -->
<g id="edge73" class="edge">
<title>Node1&#45;&gt;Node36</title>
<path fill="none" stroke="#63b8ff" d="M1589.07,-332.12C1651.65,-325.04 1752.7,-312.37 1848.59,-294.1"/>
<polygon fill="#63b8ff" stroke="#63b8ff" points="1849.29,-297.53 1858.45,-292.2 1847.96,-290.66 1849.29,-297.53"/>
</g>
<!-- Node37 -->
<g id="node37" class="node">
<title>Node37</title>
<g id="a_node37"><a xlink:href="tokenize_8h.html" target="_top" xlink:title=" ">
<polygon fill="white" stroke="#666666" points="978,-74 916,-74 916,-55 978,-55 978,-74"/>
<text text-anchor="middle" x="947" y="-62" font-family="Helvetica,sans-Serif" font-size="10.00">tokenize.h</text>
</a>
</g>
</g>
<!-- Node1&#45;&gt;Node37 -->
<g id="edge75" class="edge">
<title>Node1&#45;&gt;Node37</title>
<path fill="none" stroke="#63b8ff" d="M1509.23,-329.85C1456.57,-306.76 1308.64,-241.49 1187,-184 1108.49,-146.9 1016.72,-100.82 972.88,-78.64"/>
<polygon fill="#63b8ff" stroke="#63b8ff" points="974.28,-75.43 963.78,-74.03 971.12,-81.67 974.28,-75.43"/>
</g>
<!-- Node3 -->
<g id="node3" class="node">
<title>Node3</title>
<g id="a_node3"><a xlink:title=" ">
<polygon fill="#e0e0e0" stroke="#999999" points="818,-19 780,-19 780,0 818,0 818,-19"/>
<text text-anchor="middle" x="799" y="-7" font-family="Helvetica,sans-Serif" font-size="10.00">array</text>
</a>
</g>
</g>
<!-- Node2&#45;&gt;Node3 -->
<g id="edge2" class="edge">
<title>Node2&#45;&gt;Node3</title>
<path fill="none" stroke="#63b8ff" d="M745.28,-54.98C754.84,-47.07 769.28,-35.11 780.78,-25.58"/>
<polygon fill="#63b8ff" stroke="#63b8ff" points="783.06,-28.24 788.53,-19.17 778.6,-22.85 783.06,-28.24"/>
</g>
<!-- Node2&#45;&gt;Node4 -->
<g id="edge3" class="edge">
<title>Node2&#45;&gt;Node4</title>
<path fill="none" stroke="#63b8ff" d="M784.05,-59.69C914.83,-49.53 1269.55,-21.96 1382.18,-13.21"/>
<polygon fill="#63b8ff" stroke="#63b8ff" points="1382.61,-16.68 1392.31,-12.42 1382.07,-9.7 1382.61,-16.68"/>
</g>
<!-- Node5 -->
<g id="node5" class="node">
<title>Node5</title>
<g id="a_node5"><a xlink:title=" ">
<polygon fill="#e0e0e0" stroke="#999999" points="175,-19 129,-19 129,0 175,0 175,-19"/>
<text text-anchor="middle" x="152" y="-7" font-family="Helvetica,sans-Serif" font-size="10.00">cstdint</text>
</a>
</g>
</g>
<!-- Node2&#45;&gt;Node5 -->
<g id="edge4" class="edge">
<title>Node2&#45;&gt;Node5</title>
<path fill="none" stroke="#63b8ff" d="M685.98,-56.1C682.94,-55.71 679.93,-55.34 677,-55 491.58,-33.57 268.19,-18.03 185.17,-12.61"/>
<polygon fill="#63b8ff" stroke="#63b8ff" points="185.28,-9.11 175.08,-11.95 184.83,-16.09 185.28,-9.11"/>
</g>
<!-- Node2&#45;&gt;Node6 -->
<g id="edge5" class="edge">
<title>Node2&#45;&gt;Node6</title>
<path fill="none" stroke="#63b8ff" d="M685.93,-55.74C615.78,-44.64 488.9,-24.57 430.69,-15.36"/>
<polygon fill="#63b8ff" stroke="#63b8ff" points="431.07,-11.87 420.65,-13.77 429.98,-18.79 431.07,-11.87"/>
</g>
<!-- Node2&#45;&gt;Node7 -->
<g id="edge6" class="edge">
<title>Node2&#45;&gt;Node7</title>
<path fill="none" stroke="#63b8ff" d="M769.06,-54.98C809.25,-44.94 875.55,-28.36 914.87,-18.53"/>
<polygon fill="#63b8ff" stroke="#63b8ff" points="915.88,-21.89 924.73,-16.07 914.18,-15.1 915.88,-21.89"/>
</g>
<!-- Node8 -->
<g id="node8" class="node">
<title>Node8</title>
<g id="a_node8"><a xlink:title=" ">
<polygon fill="#e0e0e0" stroke="#999999" points="690,-19 574,-19 574,0 690,0 690,-19"/>
<text text-anchor="middle" x="632" y="-7" font-family="Helvetica,sans-Serif" font-size="10.00">SEACASIoss_config.h</text>
</a>
</g>
</g>
<!-- Node2&#45;&gt;Node8 -->
<g id="edge7" class="edge">
<title>Node2&#45;&gt;Node8</title>
<path fill="none" stroke="#63b8ff" d="M718.45,-54.98C702.11,-46.57 676.87,-33.59 657.87,-23.81"/>
<polygon fill="#63b8ff" stroke="#63b8ff" points="659.34,-20.63 648.85,-19.17 656.14,-26.86 659.34,-20.63"/>
</g>
<!-- Node9 -->
<g id="node9" class="node">
<title>Node9</title>
<g id="a_node9"><a xlink:title=" ">
<polygon fill="#e0e0e0" stroke="#999999" points="761.5,-19 708.5,-19 708.5,0 761.5,0 761.5,-19"/>
<text text-anchor="middle" x="735" y="-7" font-family="Helvetica,sans-Serif" font-size="10.00">complex</text>
</a>
</g>
</g>
<!-- Node2&#45;&gt;Node9 -->
<g id="edge8" class="edge">
<title>Node2&#45;&gt;Node9</title>
<path fill="none" stroke="#63b8ff" d="M735,-54.75C735,-47.8 735,-37.85 735,-29.13"/>
<polygon fill="#63b8ff" stroke="#63b8ff" points="738.5,-29.09 735,-19.09 731.5,-29.09 738.5,-29.09"/>
</g>
<!-- Node10&#45;&gt;Node2 -->
<g id="edge10" class="edge">
<title>Node10&#45;&gt;Node2</title>
<path fill="none" stroke="#63b8ff" d="M1075.49,-274.91C1066.42,-253.68 1040.32,-198.06 1003,-165 981.95,-146.35 915.27,-120.05 889,-110 853.39,-96.37 811.78,-84.59 780.8,-76.57"/>
<polygon fill="#63b8ff" stroke="#63b8ff" points="781.28,-73.08 770.73,-74 779.55,-79.87 781.28,-73.08"/>
</g>
<!-- Node10&#45;&gt;Node4 -->
<g id="edge56" class="edge">
<title>Node10&#45;&gt;Node4</title>
<path fill="none" stroke="#63b8ff" d="M1129.75,-281.03C1211.12,-276.37 1366.52,-264.38 1415,-239 1459.35,-215.78 1574.01,-95.8 1545,-55 1524.02,-25.5 1482.03,-15.38 1451.85,-12.01"/>
<polygon fill="#63b8ff" stroke="#63b8ff" points="1452,-8.51 1441.73,-11.08 1451.36,-15.48 1452,-8.51"/>
</g>
<!-- Node10&#45;&gt;Node6 -->
<g id="edge57" class="edge">
<title>Node10&#45;&gt;Node6</title>
<path fill="none" stroke="#63b8ff" d="M1028.39,-280.64C900.98,-272.59 570.94,-246.11 483,-184 430.09,-146.63 409.71,-66.26 402.94,-29.52"/>
<polygon fill="#63b8ff" stroke="#63b8ff" points="406.31,-28.51 401.19,-19.24 399.41,-29.68 406.31,-28.51"/>
</g>
<!-- Node10&#45;&gt;Node7 -->
<g id="edge58" class="edge">
<title>Node10&#45;&gt;Node7</title>
<path fill="none" stroke="#63b8ff" d="M1099.75,-274.89C1140.24,-258.01 1232.5,-219.14 1309,-184 1359.76,-160.68 1372.05,-153.99 1422,-129 1473.71,-103.13 1568.3,-97.42 1529,-55 1491.48,-14.5 1096.01,-10.7 979.27,-10.47"/>
<polygon fill="#63b8ff" stroke="#63b8ff" points="979.17,-6.97 969.17,-10.46 979.17,-13.97 979.17,-6.97"/>
</g>
<!-- Node10&#45;&gt;Node11 -->
<g id="edge11" class="edge">
<title>Node10&#45;&gt;Node11</title>
<path fill="none" stroke="#63b8ff" d="M1063.25,-274.98C1047.77,-266.61 1023.91,-253.7 1005.86,-243.95"/>
<polygon fill="#63b8ff" stroke="#63b8ff" points="1007.49,-240.85 997.03,-239.17 1004.16,-247.01 1007.49,-240.85"/>
</g>
<!-- Node10&#45;&gt;Node27 -->
<g id="edge55" class="edge">
<title>Node10&#45;&gt;Node27</title>
<path fill="none" stroke="#63b8ff" d="M1129.65,-281.48C1206.94,-277.54 1349.84,-266.66 1392,-239 1408.19,-228.38 1418.78,-208.47 1424.78,-193.77"/>
<polygon fill="#63b8ff" stroke="#63b8ff" points="1428.14,-194.78 1428.36,-184.19 1421.58,-192.33 1428.14,-194.78"/>
</g>
<!-- Node11&#45;&gt;Node2 -->
<g id="edge12" class="edge">
<title>Node11&#45;&gt;Node2</title>
<path fill="none" stroke="#63b8ff" d="M984.85,-219.82C990.01,-206.72 997.31,-181.65 986,-165 982.74,-160.21 834.61,-103.39 767.47,-77.83"/>
<polygon fill="#63b8ff" stroke="#63b8ff" points="768.39,-74.44 757.8,-74.15 765.9,-80.98 768.39,-74.44"/>
</g>
<!-- Node11&#45;&gt;Node4 -->
<g id="edge48" class="edge">
<title>Node11&#45;&gt;Node4</title>
<path fill="none" stroke="#63b8ff" d="M1015.76,-227.4C1076.49,-224.68 1205.32,-215.38 1309,-184 1362.46,-167.82 1372.05,-153.99 1422,-129 1469.82,-105.08 1501.14,-119.64 1529,-74 1549.03,-41.18 1491.57,-23.79 1451.71,-15.92"/>
<polygon fill="#63b8ff" stroke="#63b8ff" points="1452.24,-12.46 1441.77,-14.08 1450.96,-19.34 1452.24,-12.46"/>
</g>
<!-- Node11&#45;&gt;Node5 -->
<g id="edge49" class="edge">
<title>Node11&#45;&gt;Node5</title>
<path fill="none" stroke="#63b8ff" d="M946.37,-228.65C815.91,-228.87 354.52,-226.56 215,-184 145.48,-162.8 110.95,-144.67 94,-74 92.03,-65.79 90.26,-62.57 94,-55 100.49,-41.85 112.93,-31.5 124.64,-24.11"/>
<polygon fill="#63b8ff" stroke="#63b8ff" points="126.46,-27.1 133.33,-19.03 122.93,-21.05 126.46,-27.1"/>
</g>
<!-- Node11&#45;&gt;Node6 -->
<g id="edge53" class="edge">
<title>Node11&#45;&gt;Node6</title>
<path fill="none" stroke="#63b8ff" d="M946.31,-227.85C825.71,-225.33 425.31,-214.8 301,-184 202.53,-159.6 147.42,-164.2 101,-74 97.14,-66.49 95.49,-61.4 101,-55 135.4,-15.1 299.73,-10.41 369.05,-10.25"/>
<polygon fill="#63b8ff" stroke="#63b8ff" points="369.32,-13.75 379.32,-10.26 369.32,-6.75 369.32,-13.75"/>
</g>
<!-- Node11&#45;&gt;Node7 -->
<g id="edge54" class="edge">
<title>Node11&#45;&gt;Node7</title>
<path fill="none" stroke="#63b8ff" d="M996.69,-219.9C1009.16,-212.19 1025.98,-199.69 1035,-184 1051.52,-155.28 1048.67,-142.8 1044,-110 1040.41,-84.8 1043.92,-74.86 1028,-55 1015.33,-39.2 995.46,-28.16 978.58,-21.03"/>
<polygon fill="#63b8ff" stroke="#63b8ff" points="979.64,-17.69 969.05,-17.28 977.07,-24.2 979.64,-17.69"/>
</g>
<!-- Node12 -->
<g id="node12" class="node">
<title>Node12</title>
<g id="a_node12"><a xlink:href="Ioss__ElementTopology_8h.html" target="_top" xlink:title=" ">
<polygon fill="white" stroke="#666666" points="614,-184 492,-184 492,-165 614,-165 614,-184"/>
<text text-anchor="middle" x="553" y="-172" font-family="Helvetica,sans-Serif" font-size="10.00">Ioss_ElementTopology.h</text>
</a>
</g>
</g>
<!-- Node11&#45;&gt;Node12 -->
<g id="edge13" class="edge">
<title>Node11&#45;&gt;Node12</title>
<path fill="none" stroke="#63b8ff" d="M946.34,-224.21C876.42,-215.55 717.25,-195.84 624.24,-184.32"/>
<polygon fill="#63b8ff" stroke="#63b8ff" points="624.42,-180.82 614.06,-183.06 623.56,-187.76 624.42,-180.82"/>
</g>
<!-- Node18 -->
<g id="node18" class="node">
<title>Node18</title>
<g id="a_node18"><a xlink:href="Ioss__EntityType_8h.html" target="_top" xlink:title=" ">
<polygon fill="white" stroke="#666666" points="765.5,-184 670.5,-184 670.5,-165 765.5,-165 765.5,-184"/>
<text text-anchor="middle" x="718" y="-172" font-family="Helvetica,sans-Serif" font-size="10.00">Ioss_EntityType.h</text>
</a>
</g>
</g>
<!-- Node11&#45;&gt;Node18 -->
<g id="edge26" class="edge">
<title>Node11&#45;&gt;Node18</title>
<path fill="none" stroke="#63b8ff" d="M946.35,-221.52C901.49,-212.48 822.91,-196.64 770.66,-186.11"/>
<polygon fill="#63b8ff" stroke="#63b8ff" points="771.07,-182.62 760.57,-184.08 769.69,-189.49 771.07,-182.62"/>
</g>
<!-- Node19 -->
<g id="node19" class="node">
<title>Node19</title>
<g id="a_node19"><a xlink:href="Ioss__Field_8h.html" target="_top" xlink:title=" ">
<polygon fill="white" stroke="#666666" points="1016,-129 946,-129 946,-110 1016,-110 1016,-129"/>
<text text-anchor="middle" x="981" y="-117" font-family="Helvetica,sans-Serif" font-size="10.00">Ioss_Field.h</text>
</a>
</g>
</g>
<!-- Node11&#45;&gt;Node19 -->
<g id="edge27" class="edge">
<title>Node11&#45;&gt;Node19</title>
<path fill="none" stroke="#63b8ff" d="M991.99,-219.99C1001.45,-211.9 1014.43,-198.81 1020,-184 1026.56,-166.55 1013.38,-148.63 1000.6,-136.29"/>
<polygon fill="#63b8ff" stroke="#63b8ff" points="1002.67,-133.44 992.88,-129.39 998,-138.66 1002.67,-133.44"/>
</g>
<!-- Node20 -->
<g id="node20" class="node">
<title>Node20</title>
<g id="a_node20"><a xlink:href="Ioss__Property_8h.html" target="_top" xlink:title=" ">
<polygon fill="white" stroke="#666666" points="194,-74 110,-74 110,-55 194,-55 194,-74"/>
<text text-anchor="middle" x="152" y="-62" font-family="Helvetica,sans-Serif" font-size="10.00">Ioss_Property.h</text>
</a>
</g>
</g>
<!-- Node11&#45;&gt;Node20 -->
<g id="edge32" class="edge">
<title>Node11&#45;&gt;Node20</title>
<path fill="none" stroke="#63b8ff" d="M946.32,-227.74C812.52,-224.25 331.01,-206.44 203,-129 184.72,-117.94 170.25,-97.81 161.46,-83.17"/>
<polygon fill="#63b8ff" stroke="#63b8ff" points="164.29,-81.06 156.31,-74.09 158.2,-84.52 164.29,-81.06"/>
</g>
<!-- Node21 -->
<g id="node21" class="node">
<title>Node21</title>
<g id="a_node21"><a xlink:href="Ioss__Sort_8h.html" target="_top" xlink:title=" ">
<polygon fill="white" stroke="#666666" points="1263.5,-184 1196.5,-184 1196.5,-165 1263.5,-165 1263.5,-184"/>
<text text-anchor="middle" x="1230" y="-172" font-family="Helvetica,sans-Serif" font-size="10.00">Ioss_Sort.h</text>
</a>
</g>
</g>
<!-- Node11&#45;&gt;Node21 -->
<g id="edge36" class="edge">
<title>Node11&#45;&gt;Node21</title>
<path fill="none" stroke="#63b8ff" d="M1015.62,-221.13C1060.28,-211.62 1137.99,-195.08 1186.57,-184.74"/>
<polygon fill="#63b8ff" stroke="#63b8ff" points="1187.42,-188.14 1196.47,-182.64 1185.96,-181.3 1187.42,-188.14"/>
</g>
<!-- Node11&#45;&gt;Node23 -->
<g id="edge45" class="edge">
<title>Node11&#45;&gt;Node23</title>
<path fill="none" stroke="#63b8ff" d="M1015.62,-227.07C1071.23,-223.92 1183.3,-214.09 1273,-184 1350.84,-157.89 1433.71,-105.31 1471.31,-79.9"/>
<polygon fill="#63b8ff" stroke="#63b8ff" points="1473.58,-82.59 1479.86,-74.05 1469.63,-76.8 1473.58,-82.59"/>
</g>
<!-- Node11&#45;&gt;Node27 -->
<g id="edge46" class="edge">
<title>Node11&#45;&gt;Node27</title>
<path fill="none" stroke="#63b8ff" d="M1015.56,-224.43C1099.35,-214.56 1312.53,-189.45 1396.37,-179.58"/>
<polygon fill="#63b8ff" stroke="#63b8ff" points="1396.88,-183.04 1406.4,-178.4 1396.06,-176.09 1396.88,-183.04"/>
</g>
<!-- Node28 -->
<g id="node28" class="node">
<title>Node28</title>
<g id="a_node28"><a xlink:title=" ">
<polygon fill="#e0e0e0" stroke="#999999" points="828,-184 784,-184 784,-165 828,-165 828,-184"/>
<text text-anchor="middle" x="806" y="-172" font-family="Helvetica,sans-Serif" font-size="10.00">cmath</text>
</a>
</g>
</g>
<!-- Node11&#45;&gt;Node28 -->
<g id="edge47" class="edge">
<title>Node11&#45;&gt;Node28</title>
<path fill="none" stroke="#63b8ff" d="M952.88,-219.98C921.45,-210.46 870.66,-195.08 837.8,-185.13"/>
<polygon fill="#63b8ff" stroke="#63b8ff" points="838.8,-181.78 828.22,-182.23 836.77,-188.48 838.8,-181.78"/>
</g>
<!-- Node11&#45;&gt;Node29 -->
<g id="edge50" class="edge">
<title>Node11&#45;&gt;Node29</title>
<path fill="none" stroke="#63b8ff" d="M1015.66,-225.66C1095.17,-219.08 1296.77,-201.94 1465,-184 1477.12,-182.71 1490.39,-181.14 1502.09,-179.7"/>
<polygon fill="#63b8ff" stroke="#63b8ff" points="1502.83,-183.13 1512.32,-178.42 1501.97,-176.19 1502.83,-183.13"/>
</g>
<!-- Node30 -->
<g id="node30" class="node">
<title>Node30</title>
<g id="a_node30"><a xlink:title=" ">
<polygon fill="#e0e0e0" stroke="#999999" points="900,-184 846,-184 846,-165 900,-165 900,-184"/>
<text text-anchor="middle" x="873" y="-172" font-family="Helvetica,sans-Serif" font-size="10.00">iostream</text>
</a>
</g>
</g>
<!-- Node11&#45;&gt;Node30 -->
<g id="edge51" class="edge">
<title>Node11&#45;&gt;Node30</title>
<path fill="none" stroke="#63b8ff" d="M963.65,-219.98C946.43,-211.54 919.8,-198.47 899.85,-188.68"/>
<polygon fill="#63b8ff" stroke="#63b8ff" points="901.19,-185.43 890.67,-184.17 898.1,-191.72 901.19,-185.43"/>
</g>
<!-- Node31 -->
<g id="node31" class="node">
<title>Node31</title>
<g id="a_node31"><a xlink:title=" ">
<polygon fill="#e0e0e0" stroke="#999999" points="977.5,-184 918.5,-184 918.5,-165 977.5,-165 977.5,-184"/>
<text text-anchor="middle" x="948" y="-172" font-family="Helvetica,sans-Serif" font-size="10.00">stdexcept</text>
</a>
</g>
</g>
<!-- Node11&#45;&gt;Node31 -->
<g id="edge52" class="edge">
<title>Node11&#45;&gt;Node31</title>
<path fill="none" stroke="#63b8ff" d="M975.55,-219.75C970.99,-212.42 964.33,-201.73 958.71,-192.7"/>
<polygon fill="#63b8ff" stroke="#63b8ff" points="961.6,-190.73 953.35,-184.09 955.66,-194.43 961.6,-190.73"/>
</g>
<!-- Node12&#45;&gt;Node2 -->
<g id="edge14" class="edge">
<title>Node12&#45;&gt;Node2</title>
<path fill="none" stroke="#63b8ff" d="M614.19,-165.16C642.05,-158.9 674.07,-147.98 698,-129 712.66,-117.38 722.66,-98.24 728.54,-84"/>
<polygon fill="#63b8ff" stroke="#63b8ff" points="731.95,-84.87 732.23,-74.28 725.41,-82.39 731.95,-84.87"/>
</g>
<!-- Node12&#45;&gt;Node6 -->
<g id="edge24" class="edge">
<title>Node12&#45;&gt;Node6</title>
<path fill="none" stroke="#63b8ff" d="M535.84,-164.85C521.04,-156.86 499.65,-143.98 484,-129 451.5,-97.89 423.5,-52.58 409.51,-27.98"/>
<polygon fill="#63b8ff" stroke="#63b8ff" points="412.48,-26.12 404.55,-19.08 406.36,-29.52 412.48,-26.12"/>
</g>
<!-- Node12&#45;&gt;Node7 -->
<g id="edge25" class="edge">
<title>Node12&#45;&gt;Node7</title>
<path fill="none" stroke="#63b8ff" d="M614.18,-168.26C741.09,-157.33 1021.57,-132.77 1025,-129 1055.61,-95.37 1001.49,-48.61 968.94,-25.15"/>
<polygon fill="#63b8ff" stroke="#63b8ff" points="970.62,-22.05 960.42,-19.18 966.6,-27.79 970.62,-22.05"/>
</g>
<!-- Node13 -->
<g id="node13" class="node">
<title>Node13</title>
<g id="a_node13"><a xlink:href="Ioss__ElementPermutation_8h.html" target="_top" xlink:title=" ">
<polygon fill="white" stroke="#666666" points="689.5,-129 552.5,-129 552.5,-110 689.5,-110 689.5,-129"/>
<text text-anchor="middle" x="621" y="-117" font-family="Helvetica,sans-Serif" font-size="10.00">Ioss_ElementPermutation.h</text>
</a>
</g>
</g>
<!-- Node12&#45;&gt;Node13 -->
<g id="edge15" class="edge">
<title>Node12&#45;&gt;Node13</title>
<path fill="none" stroke="#63b8ff" d="M563.93,-164.98C574.08,-157.07 589.42,-145.11 601.65,-135.58"/>
<polygon fill="#63b8ff" stroke="#63b8ff" points="604.14,-138.08 609.88,-129.17 599.84,-132.56 604.14,-138.08"/>
</g>
<!-- Node16 -->
<g id="node16" class="node">
<title>Node16</title>
<g id="a_node16"><a xlink:title=" ">
<polygon fill="#e0e0e0" stroke="#999999" points="501.5,-74 466.5,-74 466.5,-55 501.5,-55 501.5,-74"/>
<text text-anchor="middle" x="484" y="-62" font-family="Helvetica,sans-Serif" font-size="10.00">map</text>
</a>
</g>
</g>
<!-- Node12&#45;&gt;Node16 -->
<g id="edge22" class="edge">
<title>Node12&#45;&gt;Node16</title>
<path fill="none" stroke="#63b8ff" d="M535.66,-164.85C522.35,-157.27 504.66,-144.96 495,-129 486.94,-115.67 484.39,-98.06 483.75,-84.77"/>
<polygon fill="#63b8ff" stroke="#63b8ff" points="487.24,-84.35 483.58,-74.41 480.24,-84.47 487.24,-84.35"/>
</g>
<!-- Node17 -->
<g id="node17" class="node">
<title>Node17</title>
<g id="a_node17"><a xlink:title=" ">
<polygon fill="#e0e0e0" stroke="#999999" points="534,-129 504,-129 504,-110 534,-110 534,-129"/>
<text text-anchor="middle" x="519" y="-117" font-family="Helvetica,sans-Serif" font-size="10.00">set</text>
</a>
</g>
</g>
<!-- Node12&#45;&gt;Node17 -->
<g id="edge23" class="edge">
<title>Node12&#45;&gt;Node17</title>
<path fill="none" stroke="#63b8ff" d="M547.39,-164.75C542.68,-157.42 535.83,-146.73 530.03,-137.7"/>
<polygon fill="#63b8ff" stroke="#63b8ff" points="532.86,-135.62 524.51,-129.09 526.96,-139.4 532.86,-135.62"/>
</g>
<!-- Node13&#45;&gt;Node2 -->
<g id="edge16" class="edge">
<title>Node13&#45;&gt;Node2</title>
<path fill="none" stroke="#63b8ff" d="M639.32,-109.98C657.66,-101.46 686.11,-88.23 707.23,-78.41"/>
<polygon fill="#63b8ff" stroke="#63b8ff" points="708.76,-81.56 716.35,-74.17 705.81,-75.21 708.76,-81.56"/>
</g>
<!-- Node13&#45;&gt;Node6 -->
<g id="edge20" class="edge">
<title>Node13&#45;&gt;Node6</title>
<path fill="none" stroke="#63b8ff" d="M607.31,-109.86C586.67,-97.03 546.15,-72.55 510,-55 483.64,-42.2 452.62,-29.89 430.25,-21.47"/>
<polygon fill="#63b8ff" stroke="#63b8ff" points="431.23,-18.1 420.63,-17.89 428.78,-24.66 431.23,-18.1"/>
</g>
<!-- Node13&#45;&gt;Node7 -->
<g id="edge21" class="edge">
<title>Node13&#45;&gt;Node7</title>
<path fill="none" stroke="#63b8ff" d="M660.39,-109.94C695.54,-101.92 748.24,-88.94 793,-74 838.05,-58.96 888.68,-37.09 919.19,-23.33"/>
<polygon fill="#63b8ff" stroke="#63b8ff" points="920.69,-26.49 928.35,-19.17 917.8,-20.12 920.69,-26.49"/>
</g>
<!-- Node14 -->
<g id="node14" class="node">
<title>Node14</title>
<g id="a_node14"><a xlink:title=" ">
<polygon fill="#e0e0e0" stroke="#999999" points="610,-74 558,-74 558,-55 610,-55 610,-74"/>
<text text-anchor="middle" x="584" y="-62" font-family="Helvetica,sans-Serif" font-size="10.00">assert.h</text>
</a>
</g>
</g>
<!-- Node13&#45;&gt;Node14 -->
<g id="edge17" class="edge">
<title>Node13&#45;&gt;Node14</title>
<path fill="none" stroke="#63b8ff" d="M614.89,-109.75C609.72,-102.34 602.15,-91.5 595.81,-82.41"/>
<polygon fill="#63b8ff" stroke="#63b8ff" points="598.59,-80.29 590,-74.09 592.85,-84.29 598.59,-80.29"/>
</g>
<!-- Node15 -->
<g id="node15" class="node">
<title>Node15</title>
<g id="a_node15"><a xlink:title=" ">
<polygon fill="#e0e0e0" stroke="#999999" points="668,-74 628,-74 628,-55 668,-55 668,-74"/>
<text text-anchor="middle" x="648" y="-62" font-family="Helvetica,sans-Serif" font-size="10.00">limits</text>
</a>
</g>
</g>
<!-- Node13&#45;&gt;Node15 -->
<g id="edge18" class="edge">
<title>Node13&#45;&gt;Node15</title>
<path fill="none" stroke="#63b8ff" d="M625.46,-109.75C629.12,-102.57 634.41,-92.18 638.95,-83.27"/>
<polygon fill="#63b8ff" stroke="#63b8ff" points="642.2,-84.59 643.62,-74.09 635.97,-81.41 642.2,-84.59"/>
</g>
<!-- Node13&#45;&gt;Node16 -->
<g id="edge19" class="edge">
<title>Node13&#45;&gt;Node16</title>
<path fill="none" stroke="#63b8ff" d="M598.99,-109.98C575.08,-100.74 536.88,-85.96 511.13,-76"/>
<polygon fill="#63b8ff" stroke="#63b8ff" points="512.19,-72.65 501.6,-72.31 509.67,-79.18 512.19,-72.65"/>
</g>
<!-- Node19&#45;&gt;Node2 -->
<g id="edge28" class="edge">
<title>Node19&#45;&gt;Node2</title>
<path fill="none" stroke="#63b8ff" d="M945.75,-110.91C903.46,-101.79 832.28,-86.46 784.49,-76.16"/>
<polygon fill="#63b8ff" stroke="#63b8ff" points="785.18,-72.73 774.66,-74.05 783.7,-79.57 785.18,-72.73"/>
</g>
<!-- Node19&#45;&gt;Node4 -->
<g id="edge29" class="edge">
<title>Node19&#45;&gt;Node4</title>
<path fill="none" stroke="#63b8ff" d="M1003.95,-109.99C1040.26,-96.76 1113.38,-71.13 1177,-55 1249.18,-36.7 1335.34,-22.56 1382.28,-15.49"/>
<polygon fill="#63b8ff" stroke="#63b8ff" points="1382.86,-18.94 1392.24,-14 1381.83,-12.01 1382.86,-18.94"/>
</g>
<!-- Node19&#45;&gt;Node6 -->
<g id="edge30" class="edge">
<title>Node19&#45;&gt;Node6</title>
<path fill="none" stroke="#63b8ff" d="M960.55,-109.98C926.45,-96.14 855.54,-68.94 793,-55 660.31,-25.43 497.81,-14.98 430.96,-11.77"/>
<polygon fill="#63b8ff" stroke="#63b8ff" points="430.86,-8.26 420.71,-11.29 430.54,-15.25 430.86,-8.26"/>
</g>
<!-- Node19&#45;&gt;Node7 -->
<g id="edge31" class="edge">
<title>Node19&#45;&gt;Node7</title>
<path fill="none" stroke="#63b8ff" d="M953.71,-109.88C937,-103.03 916.96,-91.62 907,-74 897.42,-57.06 912.63,-38.28 926.97,-25.56"/>
<polygon fill="#63b8ff" stroke="#63b8ff" points="929.21,-28.25 934.68,-19.17 924.75,-22.86 929.21,-28.25"/>
</g>
<!-- Node20&#45;&gt;Node5 -->
<g id="edge33" class="edge">
<title>Node20&#45;&gt;Node5</title>
<path fill="none" stroke="#63b8ff" d="M152,-54.75C152,-47.8 152,-37.85 152,-29.13"/>
<polygon fill="#63b8ff" stroke="#63b8ff" points="155.5,-29.09 152,-19.09 148.5,-29.09 155.5,-29.09"/>
</g>
<!-- Node20&#45;&gt;Node6 -->
<g id="edge34" class="edge">
<title>Node20&#45;&gt;Node6</title>
<path fill="none" stroke="#63b8ff" d="M191.85,-54.98C241.28,-44.42 324.51,-26.63 369.28,-17.06"/>
<polygon fill="#63b8ff" stroke="#63b8ff" points="370.22,-20.44 379.27,-14.93 368.76,-13.6 370.22,-20.44"/>
</g>
<!-- Node20&#45;&gt;Node7 -->
<g id="edge35" class="edge">
<title>Node20&#45;&gt;Node7</title>
<path fill="none" stroke="#63b8ff" d="M194.25,-56.1C197.21,-55.69 200.15,-55.32 203,-55 479.07,-24.12 549.78,-36.81 827,-19 856.78,-17.09 890.69,-14.66 914.85,-12.89"/>
<polygon fill="#63b8ff" stroke="#63b8ff" points="915.17,-16.38 924.89,-12.15 914.66,-9.4 915.17,-16.38"/>
</g>
<!-- Node21&#45;&gt;Node4 -->
<g id="edge43" class="edge">
<title>Node21&#45;&gt;Node4</title>
<path fill="none" stroke="#63b8ff" d="M1261.62,-164.94C1285.45,-157.62 1318.31,-145.62 1344,-129 1373.29,-110.05 1382.42,-104.13 1400,-74 1408,-60.28 1412.33,-42.7 1414.61,-29.52"/>
<polygon fill="#63b8ff" stroke="#63b8ff" points="1418.13,-29.68 1416.13,-19.27 1411.2,-28.65 1418.13,-29.68"/>
</g>
<!-- Node21&#45;&gt;Node7 -->
<g id="edge44" class="edge">
<title>Node21&#45;&gt;Node7</title>
<path fill="none" stroke="#63b8ff" d="M1225.56,-164.71C1213.86,-142.51 1179.94,-83.91 1134,-55 1085.75,-24.63 1018.62,-14.98 979.3,-11.91"/>
<polygon fill="#63b8ff" stroke="#63b8ff" points="979.43,-8.42 969.22,-11.23 978.96,-15.4 979.43,-8.42"/>
</g>
<!-- Node22 -->
<g id="node22" class="node">
<title>Node22</title>
<g id="a_node22"><a xlink:href="pdqsort_8h.html" target="_top" xlink:title=" ">
<polygon fill="white" stroke="#666666" points="1334.5,-129 1277.5,-129 1277.5,-110 1334.5,-110 1334.5,-129"/>
<text text-anchor="middle" x="1306" y="-117" font-family="Helvetica,sans-Serif" font-size="10.00">pdqsort.h</text>
</a>
</g>
</g>
<!-- Node21&#45;&gt;Node22 -->
<g id="edge37" class="edge">
<title>Node21&#45;&gt;Node22</title>
<path fill="none" stroke="#63b8ff" d="M1242.21,-164.98C1253.78,-156.92 1271.38,-144.65 1285.16,-135.03"/>
<polygon fill="#63b8ff" stroke="#63b8ff" points="1287.37,-137.76 1293.57,-129.17 1283.36,-132.02 1287.37,-137.76"/>
</g>
<!-- Node22&#45;&gt;Node4 -->
<g id="edge39" class="edge">
<title>Node22&#45;&gt;Node4</title>
<path fill="none" stroke="#63b8ff" d="M1325.44,-109.91C1341.25,-102.2 1363.43,-89.7 1379,-74 1392.12,-60.77 1402.57,-42.15 1409.17,-28.49"/>
<polygon fill="#63b8ff" stroke="#63b8ff" points="1412.45,-29.74 1413.44,-19.19 1406.08,-26.82 1412.45,-29.74"/>
</g>
<!-- Node22&#45;&gt;Node23 -->
<g id="edge38" class="edge">
<title>Node22&#45;&gt;Node23</title>
<path fill="none" stroke="#63b8ff" d="M1334.65,-110.33C1366.65,-101.22 1418.58,-86.42 1453.96,-76.34"/>
<polygon fill="#63b8ff" stroke="#63b8ff" points="1455.26,-79.61 1463.92,-73.5 1453.35,-72.88 1455.26,-79.61"/>
</g>
<!-- Node24 -->
<g id="node24" class="node">
<title>Node24</title>
<g id="a_node24"><a xlink:title=" ">
<polygon fill="#e0e0e0" stroke="#999999" points="1369.5,-74 1310.5,-74 1310.5,-55 1369.5,-55 1369.5,-74"/>
<text text-anchor="middle" x="1340" y="-62" font-family="Helvetica,sans-Serif" font-size="10.00">functional</text>
</a>
</g>
</g>
<!-- Node22&#45;&gt;Node24 -->
<g id="edge40" class="edge">
<title>Node22&#45;&gt;Node24</title>
<path fill="none" stroke="#63b8ff" d="M1311.61,-109.75C1316.32,-102.42 1323.17,-91.73 1328.97,-82.7"/>
<polygon fill="#63b8ff" stroke="#63b8ff" points="1332.04,-84.4 1334.49,-74.09 1326.14,-80.62 1332.04,-84.4"/>
</g>
<!-- Node25 -->
<g id="node25" class="node">
<title>Node25</title>
<g id="a_node25"><a xlink:title=" ">
<polygon fill="#e0e0e0" stroke="#999999" points="1233.5,-74 1186.5,-74 1186.5,-55 1233.5,-55 1233.5,-74"/>
<text text-anchor="middle" x="1210" y="-62" font-family="Helvetica,sans-Serif" font-size="10.00">iterator</text>
</a>
</g>
</g>
<!-- Node22&#45;&gt;Node25 -->
<g id="edge41" class="edge">
<title>Node22&#45;&gt;Node25</title>
<path fill="none" stroke="#63b8ff" d="M1290.58,-109.98C1275.55,-101.69 1252.46,-88.94 1234.84,-79.22"/>
<polygon fill="#63b8ff" stroke="#63b8ff" points="1236.15,-75.94 1225.7,-74.17 1232.77,-82.07 1236.15,-75.94"/>
</g>
<!-- Node26 -->
<g id="node26" class="node">
<title>Node26</title>
<g id="a_node26"><a xlink:title=" ">
<polygon fill="#e0e0e0" stroke="#999999" points="1292,-74 1252,-74 1252,-55 1292,-55 1292,-74"/>
<text text-anchor="middle" x="1272" y="-62" font-family="Helvetica,sans-Serif" font-size="10.00">utility</text>
</a>
</g>
</g>
<!-- Node22&#45;&gt;Node26 -->
<g id="edge42" class="edge">
<title>Node22&#45;&gt;Node26</title>
<path fill="none" stroke="#63b8ff" d="M1300.39,-109.75C1295.68,-102.42 1288.83,-91.73 1283.03,-82.7"/>
<polygon fill="#63b8ff" stroke="#63b8ff" points="1285.86,-80.62 1277.51,-74.09 1279.96,-84.4 1285.86,-80.62"/>
</g>
<!-- Node32&#45;&gt;Node2 -->
<g id="edge60" class="edge">
<title>Node32&#45;&gt;Node2</title>
<path fill="none" stroke="#63b8ff" d="M334.34,-112.43C411.57,-104.64 548.56,-90.31 676.03,-74.08"/>
<polygon fill="#63b8ff" stroke="#63b8ff" points="676.49,-77.55 685.97,-72.81 675.61,-70.61 676.49,-77.55"/>
</g>
<!-- Node32&#45;&gt;Node4 -->
<g id="edge62" class="edge">
<title>Node32&#45;&gt;Node4</title>
<path fill="none" stroke="#63b8ff" d="M334.1,-115.43C482.91,-107.83 861.15,-87.77 987,-74 1041.11,-68.08 1054.17,-63.1 1108,-55 1207.4,-40.04 1324.95,-23.4 1382.18,-15.37"/>
<polygon fill="#63b8ff" stroke="#63b8ff" points="1382.73,-18.82 1392.15,-13.97 1381.76,-11.89 1382.73,-18.82"/>
</g>
<!-- Node32&#45;&gt;Node6 -->
<g id="edge63" class="edge">
<title>Node32&#45;&gt;Node6</title>
<path fill="none" stroke="#63b8ff" d="M283.39,-109.66C304.99,-91.3 354.95,-48.81 381.93,-25.87"/>
<polygon fill="#63b8ff" stroke="#63b8ff" points="384.47,-28.3 389.82,-19.16 379.93,-22.97 384.47,-28.3"/>
</g>
<!-- Node32&#45;&gt;Node7 -->
<g id="edge65" class="edge">
<title>Node32&#45;&gt;Node7</title>
<path fill="none" stroke="#63b8ff" d="M292.7,-109.93C325.89,-95.88 395.38,-68.23 457,-55 501.62,-45.42 813.16,-20.83 914.92,-12.96"/>
<polygon fill="#63b8ff" stroke="#63b8ff" points="915.22,-16.45 924.92,-12.19 914.68,-9.47 915.22,-16.45"/>
</g>
<!-- Node32&#45;&gt;Node20 -->
<g id="edge61" class="edge">
<title>Node32&#45;&gt;Node20</title>
<path fill="none" stroke="#63b8ff" d="M253.56,-109.98C234.01,-101.42 203.62,-88.11 181.18,-78.28"/>
<polygon fill="#63b8ff" stroke="#63b8ff" points="182.36,-74.98 171.79,-74.17 179.55,-81.39 182.36,-74.98"/>
</g>
<!-- Node33 -->
<g id="node33" class="node">
<title>Node33</title>
<g id="a_node33"><a xlink:title=" ">
<polygon fill="#e0e0e0" stroke="#999999" points="295.5,-74 212.5,-74 212.5,-55 295.5,-55 295.5,-74"/>
<text text-anchor="middle" x="254" y="-62" font-family="Helvetica,sans-Serif" font-size="10.00">unordered_map</text>
</a>
</g>
</g>
<!-- Node32&#45;&gt;Node33 -->
<g id="edge64" class="edge">
<title>Node32&#45;&gt;Node33</title>
<path fill="none" stroke="#63b8ff" d="M269.86,-109.75C267.32,-102.65 263.64,-92.4 260.47,-83.56"/>
<polygon fill="#63b8ff" stroke="#63b8ff" points="263.75,-82.32 257.08,-74.09 257.16,-84.68 263.75,-82.32"/>
</g>
<!-- Node37&#45;&gt;Node6 -->
<g id="edge76" class="edge">
<title>Node37&#45;&gt;Node6</title>
<path fill="none" stroke="#63b8ff" d="M915.87,-60.26C900.29,-58.66 881.15,-56.7 864,-55 700.89,-38.83 505.44,-20.39 430.92,-13.4"/>
<polygon fill="#63b8ff" stroke="#63b8ff" points="431.1,-9.9 420.82,-12.45 430.45,-16.87 431.1,-9.9"/>
</g>
<!-- Node37&#45;&gt;Node7 -->
<g id="edge77" class="edge">
<title>Node37&#45;&gt;Node7</title>
<path fill="none" stroke="#63b8ff" d="M947,-54.75C947,-47.8 947,-37.85 947,-29.13"/>
<polygon fill="#63b8ff" stroke="#63b8ff" points="950.5,-29.09 947,-19.09 943.5,-29.09 950.5,-29.09"/>
</g>
</g>
</svg>
