<?xml version="1.0" encoding="UTF-8" standalone="no"?>
<!DOCTYPE svg PUBLIC "-//W3C//DTD SVG 1.1//EN"
 "http://www.w3.org/Graphics/SVG/1.1/DTD/svg11.dtd">
<!-- Generated by graphviz version 9.0.0 (20230911.1827)
 -->
<!-- Title: src/Ioss_SubSystem.h Pages: 1 -->
<svg width="1808pt" height="94pt"
 viewBox="0.00 0.00 1807.75 93.75" xmlns="http://www.w3.org/2000/svg" xmlns:xlink="http://www.w3.org/1999/xlink">
<g id="graph0" class="graph" transform="scale(1 1) rotate(0) translate(4 89.75)">
<title>src/Ioss_SubSystem.h</title>
<!-- Node1 -->
<g id="Node000001" class="node">
<title>Node1</title>
<g id="a_Node000001"><a xlink:title=" ">
<polygon fill="#999999" stroke="#666666" points="912.25,-85.75 796.5,-85.75 796.5,-66.5 912.25,-66.5 912.25,-85.75"/>
<text text-anchor="middle" x="854.38" y="-72.25" font-family="Helvetica,sans-Serif" font-size="10.00">src/Ioss_SubSystem.h</text>
</a>
</g>
</g>
<!-- Node2 -->
<g id="Node000002" class="node">
<title>Node2</title>
<g id="a_Node000002"><a xlink:href="Ioss__Compare_8C.html" target="_top" xlink:title=" ">
<polygon fill="white" stroke="#666666" points="106.75,-24.88 0,-24.88 0,-5.63 106.75,-5.63 106.75,-24.88"/>
<text text-anchor="middle" x="53.38" y="-11.38" font-family="Helvetica,sans-Serif" font-size="10.00">src/Ioss_Compare.C</text>
</a>
</g>
</g>
<!-- Node1&#45;&gt;Node2 -->
<g id="edge1_Node000001_Node000002" class="edge">
<title>Node1&#45;&gt;Node2</title>
<g id="a_edge1_Node000001_Node000002"><a xlink:title=" ">
<path fill="none" stroke="#63b8ff" d="M784.72,-74.66C653.36,-72.97 360.31,-65.23 116.38,-30.5 107.38,-29.22 97.77,-27.32 88.84,-25.33"/>
<polygon fill="#63b8ff" stroke="#63b8ff" points="784.61,-78.16 794.65,-74.78 784.7,-71.16 784.61,-78.16"/>
</a>
</g>
</g>
<!-- Node3 -->
<g id="Node000003" class="node">
<title>Node3</title>
<g id="a_Node000003"><a xlink:href="Ioss__CopyDatabase_8C.html" target="_top" xlink:title=" ">
<polygon fill="white" stroke="#666666" points="257.5,-24.88 125.25,-24.88 125.25,-5.63 257.5,-5.63 257.5,-24.88"/>
<text text-anchor="middle" x="191.38" y="-11.38" font-family="Helvetica,sans-Serif" font-size="10.00">src/Ioss_CopyDatabase.C</text>
</a>
</g>
</g>
<!-- Node1&#45;&gt;Node3 -->
<g id="edge2_Node000001_Node000003" class="edge">
<title>Node1&#45;&gt;Node3</title>
<g id="a_edge2_Node000001_Node000003"><a xlink:title=" ">
<path fill="none" stroke="#63b8ff" d="M784.86,-72.37C674.57,-67.44 452.86,-55.21 266.38,-30.5 256.13,-29.14 245.16,-27.29 234.87,-25.37"/>
<polygon fill="#63b8ff" stroke="#63b8ff" points="784.49,-75.86 794.64,-72.8 784.8,-68.87 784.49,-75.86"/>
</a>
</g>
</g>
<!-- Node4 -->
<g id="Node000004" class="node">
<title>Node4</title>
<g id="a_Node000004"><a xlink:href="Ioss__DatabaseIO_8C.html" target="_top" xlink:title=" ">
<polygon fill="white" stroke="#666666" points="395.12,-24.88 275.62,-24.88 275.62,-5.63 395.12,-5.63 395.12,-24.88"/>
<text text-anchor="middle" x="335.38" y="-11.38" font-family="Helvetica,sans-Serif" font-size="10.00">src/Ioss_DatabaseIO.C</text>
</a>
</g>
</g>
<!-- Node1&#45;&gt;Node4 -->
<g id="edge3_Node000001_Node000004" class="edge">
<title>Node1&#45;&gt;Node4</title>
<g id="a_edge3_Node000001_Node000004"><a xlink:title=" ">
<path fill="none" stroke="#63b8ff" d="M784.83,-70.58C695.99,-64.25 537.66,-51.15 403.38,-30.5 394.2,-29.09 384.39,-27.24 375.16,-25.34"/>
<polygon fill="#63b8ff" stroke="#63b8ff" points="784.37,-74.06 794.59,-71.27 784.86,-67.08 784.37,-74.06"/>
</a>
</g>
</g>
<!-- Node5 -->
<g id="Node000005" class="node">
<title>Node5</title>
<g id="a_Node000005"><a xlink:href="Ioss__Utils_8C.html" target="_top" xlink:title=" ">
<polygon fill="white" stroke="#666666" points="500,-24.88 412.75,-24.88 412.75,-5.63 500,-5.63 500,-24.88"/>
<text text-anchor="middle" x="456.38" y="-11.38" font-family="Helvetica,sans-Serif" font-size="10.00">src/Ioss_Utils.C</text>
</a>
</g>
</g>
<!-- Node1&#45;&gt;Node5 -->
<g id="edge4_Node000001_Node000005" class="edge">
<title>Node1&#45;&gt;Node5</title>
<g id="a_edge4_Node000001_Node000005"><a xlink:title=" ">
<path fill="none" stroke="#63b8ff" d="M785.01,-68.91C715.03,-62 604.07,-49.27 509.38,-30.5 502.18,-29.07 494.52,-27.22 487.32,-25.32"/>
<polygon fill="#63b8ff" stroke="#63b8ff" points="784.51,-72.38 794.8,-69.86 785.19,-65.41 784.51,-72.38"/>
</a>
</g>
</g>
<!-- Node6 -->
<g id="Node000006" class="node">
<title>Node6</title>
<g id="a_Node000006"><a xlink:href="Iocgns__DatabaseIO_8C.html" target="_top" xlink:title=" ">
<polygon fill="white" stroke="#666666" points="672.38,-24.88 518.38,-24.88 518.38,-5.63 672.38,-5.63 672.38,-24.88"/>
<text text-anchor="middle" x="595.38" y="-11.38" font-family="Helvetica,sans-Serif" font-size="10.00">src/cgns/Iocgns_DatabaseIO.C</text>
</a>
</g>
</g>
<!-- Node1&#45;&gt;Node6 -->
<g id="edge5_Node000001_Node000006" class="edge">
<title>Node1&#45;&gt;Node6</title>
<g id="a_edge5_Node000001_Node000006"><a xlink:title=" ">
<path fill="none" stroke="#63b8ff" d="M803.43,-63.54C754.15,-52.34 680.49,-35.6 635.32,-25.33"/>
<polygon fill="#63b8ff" stroke="#63b8ff" points="802.47,-66.92 813,-65.72 804.02,-60.09 802.47,-66.92"/>
</a>
</g>
</g>
<!-- Node7 -->
<g id="Node000007" class="node">
<title>Node7</title>
<g id="a_Node000007"><a xlink:href="Iofaodel__DatabaseIO_8C.html" target="_top" xlink:title=" ">
<polygon fill="white" stroke="#666666" points="786.5,-30.5 690.25,-30.5 690.25,0 786.5,0 786.5,-30.5"/>
<text text-anchor="start" x="698.25" y="-17" font-family="Helvetica,sans-Serif" font-size="10.00">src/faodel/Iofaodel</text>
<text text-anchor="middle" x="738.38" y="-5.75" font-family="Helvetica,sans-Serif" font-size="10.00">_DatabaseIO.C</text>
</a>
</g>
</g>
<!-- Node1&#45;&gt;Node7 -->
<g id="edge6_Node000001_Node000007" class="edge">
<title>Node1&#45;&gt;Node7</title>
<g id="a_edge6_Node000001_Node000007"><a xlink:title=" ">
<path fill="none" stroke="#63b8ff" d="M826.4,-60.93C808.53,-51.86 785.39,-40.11 767.33,-30.94"/>
<polygon fill="#63b8ff" stroke="#63b8ff" points="824.65,-63.96 835.15,-65.37 827.82,-57.72 824.65,-63.96"/>
</a>
</g>
</g>
<!-- Node8 -->
<g id="Node000008" class="node">
<title>Node8</title>
<g id="a_Node000008"><a xlink:href="io__shell_8C.html" target="_top" xlink:title=" ">
<polygon fill="white" stroke="#666666" points="904.38,-24.88 804.38,-24.88 804.38,-5.63 904.38,-5.63 904.38,-24.88"/>
<text text-anchor="middle" x="854.38" y="-11.38" font-family="Helvetica,sans-Serif" font-size="10.00">src/main/io_shell.C</text>
</a>
</g>
</g>
<!-- Node1&#45;&gt;Node8 -->
<g id="edge7_Node000001_Node000008" class="edge">
<title>Node1&#45;&gt;Node8</title>
<g id="a_edge7_Node000001_Node000008"><a xlink:title=" ">
<path fill="none" stroke="#63b8ff" d="M854.38,-54.7C854.38,-44.67 854.38,-33.08 854.38,-25.28"/>
<polygon fill="#63b8ff" stroke="#63b8ff" points="850.88,-54.67 854.38,-64.67 857.88,-54.67 850.88,-54.67"/>
</a>
</g>
</g>
<!-- Node9 -->
<g id="Node000009" class="node">
<title>Node9</title>
<g id="a_Node000009"><a xlink:href="io__shell__ts_8C.html" target="_top" xlink:title=" ">
<polygon fill="white" stroke="#666666" points="1036.12,-24.88 922.62,-24.88 922.62,-5.63 1036.12,-5.63 1036.12,-24.88"/>
<text text-anchor="middle" x="979.38" y="-11.38" font-family="Helvetica,sans-Serif" font-size="10.00">src/main/io_shell_ts.C</text>
</a>
</g>
</g>
<!-- Node1&#45;&gt;Node9 -->
<g id="edge8_Node000001_Node000009" class="edge">
<title>Node1&#45;&gt;Node9</title>
<g id="a_edge8_Node000001_Node000009"><a xlink:title=" ">
<path fill="none" stroke="#63b8ff" d="M883.79,-61.27C907.43,-50.13 939.94,-34.82 960.3,-25.23"/>
<polygon fill="#63b8ff" stroke="#63b8ff" points="882.56,-57.98 875,-65.41 885.54,-64.32 882.56,-57.98"/>
</a>
</g>
</g>
<!-- Node10 -->
<g id="Node000010" class="node">
<title>Node10</title>
<g id="a_Node000010"><a xlink:href="struc__to__unstruc_8C.html" target="_top" xlink:title=" ">
<polygon fill="white" stroke="#666666" points="1194.25,-24.88 1054.5,-24.88 1054.5,-5.63 1194.25,-5.63 1194.25,-24.88"/>
<text text-anchor="middle" x="1124.38" y="-11.38" font-family="Helvetica,sans-Serif" font-size="10.00">src/main/struc_to_unstruc.C</text>
</a>
</g>
</g>
<!-- Node1&#45;&gt;Node10 -->
<g id="edge9_Node000001_Node000010" class="edge">
<title>Node1&#45;&gt;Node10</title>
<g id="a_edge9_Node000001_Node000010"><a xlink:title=" ">
<path fill="none" stroke="#63b8ff" d="M907.16,-63.61C958.53,-52.41 1035.54,-35.62 1082.73,-25.33"/>
<polygon fill="#63b8ff" stroke="#63b8ff" points="906.47,-60.18 897.45,-65.73 907.97,-67.02 906.47,-60.18"/>
</a>
</g>
</g>
<!-- Node11 -->
<g id="Node000011" class="node">
<title>Node11</title>
<g id="a_Node000011"><a xlink:href="Iopg__DatabaseIO_8C.html" target="_top" xlink:title=" ">
<polygon fill="white" stroke="#666666" points="1368.88,-24.88 1211.88,-24.88 1211.88,-5.63 1368.88,-5.63 1368.88,-24.88"/>
<text text-anchor="middle" x="1290.38" y="-11.38" font-family="Helvetica,sans-Serif" font-size="10.00">src/pamgen/Iopg_DatabaseIO.C</text>
</a>
</g>
</g>
<!-- Node1&#45;&gt;Node11 -->
<g id="edge10_Node000001_Node000011" class="edge">
<title>Node1&#45;&gt;Node11</title>
<g id="a_edge10_Node000001_Node000011"><a xlink:title=" ">
<path fill="none" stroke="#63b8ff" d="M923.88,-66.97C994.39,-58.52 1106.61,-44.61 1203.38,-30.5 1214.13,-28.93 1225.61,-27.14 1236.59,-25.36"/>
<polygon fill="#63b8ff" stroke="#63b8ff" points="923.52,-63.49 914.01,-68.15 924.35,-70.44 923.52,-63.49"/>
</a>
</g>
</g>
<!-- Node12 -->
<g id="Node000012" class="node">
<title>Node12</title>
<g id="a_Node000012"><a xlink:href="Ut__ioad_8C.html" target="_top" xlink:title=" ">
<polygon fill="white" stroke="#666666" points="1488.12,-24.88 1386.62,-24.88 1386.62,-5.63 1488.12,-5.63 1488.12,-24.88"/>
<text text-anchor="middle" x="1437.38" y="-11.38" font-family="Helvetica,sans-Serif" font-size="10.00">src/utest/Ut_ioad.C</text>
</a>
</g>
</g>
<!-- Node1&#45;&gt;Node12 -->
<g id="edge11_Node000001_Node000012" class="edge">
<title>Node1&#45;&gt;Node12</title>
<g id="a_edge11_Node000001_Node000012"><a xlink:title=" ">
<path fill="none" stroke="#63b8ff" d="M923.72,-72.58C1024.42,-68.12 1216.75,-56.74 1378.38,-30.5 1386.59,-29.17 1395.36,-27.3 1403.55,-25.35"/>
<polygon fill="#63b8ff" stroke="#63b8ff" points="923.85,-69.07 914.01,-73 924.15,-76.06 923.85,-69.07"/>
</a>
</g>
</g>
<!-- Node13 -->
<g id="Node000013" class="node">
<title>Node13</title>
<g id="a_Node000013"><a xlink:href="Utst__heartbeat_8C.html" target="_top" xlink:title=" ">
<polygon fill="white" stroke="#666666" points="1638.5,-24.88 1506.25,-24.88 1506.25,-5.63 1638.5,-5.63 1638.5,-24.88"/>
<text text-anchor="middle" x="1572.38" y="-11.38" font-family="Helvetica,sans-Serif" font-size="10.00">src/utest/Utst_heartbeat.C</text>
</a>
</g>
</g>
<!-- Node1&#45;&gt;Node13 -->
<g id="edge12_Node000001_Node000013" class="edge">
<title>Node1&#45;&gt;Node13</title>
<g id="a_edge12_Node000001_Node000013"><a xlink:title=" ">
<path fill="none" stroke="#63b8ff" d="M924.06,-72.99C1042.35,-68.77 1289.82,-57.32 1497.38,-30.5 1507.76,-29.16 1518.88,-27.29 1529.29,-25.34"/>
<polygon fill="#63b8ff" stroke="#63b8ff" points="924.06,-69.49 914.19,-73.34 924.31,-76.49 924.06,-69.49"/>
</a>
</g>
</g>
<!-- Node14 -->
<g id="Node000014" class="node">
<title>Node14</title>
<g id="a_Node000014"><a xlink:href="Iovs__exodus__DatabaseIO_8C.html" target="_top" xlink:title=" ">
<polygon fill="white" stroke="#666666" points="1799.75,-30.5 1657,-30.5 1657,0 1799.75,0 1799.75,-30.5"/>
<text text-anchor="start" x="1665" y="-17" font-family="Helvetica,sans-Serif" font-size="10.00">src/visualization/exodus</text>
<text text-anchor="middle" x="1728.38" y="-5.75" font-family="Helvetica,sans-Serif" font-size="10.00">/Iovs_exodus_DatabaseIO.C</text>
</a>
</g>
</g>
<!-- Node1&#45;&gt;Node14 -->
<g id="edge13_Node000001_Node000014" class="edge">
<title>Node1&#45;&gt;Node14</title>
<g id="a_edge13_Node000001_Node000014"><a xlink:title=" ">
<path fill="none" stroke="#63b8ff" d="M923.49,-73.97C1061.51,-71.07 1380.91,-61.33 1647.38,-30.5 1650.5,-30.14 1653.68,-29.73 1656.89,-29.3"/>
<polygon fill="#63b8ff" stroke="#63b8ff" points="923.72,-70.47 913.8,-74.17 923.87,-77.47 923.72,-70.47"/>
</a>
</g>
</g>
</g>
</svg>
