<?xml version="1.0" encoding="UTF-8" standalone="no"?>
<!DOCTYPE svg PUBLIC "-//W3C//DTD SVG 1.1//EN"
 "http://www.w3.org/Graphics/SVG/1.1/DTD/svg11.dtd">
<!-- Generated by graphviz version 12.0.0 (20240704.0754)
 -->
<!-- Title: src/Ioss_Utils.h Pages: 1 -->
<svg width="1702pt" height="248pt"
 viewBox="0.00 0.00 1702.25 248.25" xmlns="http://www.w3.org/2000/svg" xmlns:xlink="http://www.w3.org/1999/xlink">
<g id="graph0" class="graph" transform="scale(1 1) rotate(0) translate(4 244.25)">
<title>src/Ioss_Utils.h</title>
<!-- Node1 -->
<g id="Node000001" class="node">
<title>Node1</title>
<g id="a_Node000001"><a xlink:title=" ">
<polygon fill="#999999" stroke="#666666" points="1199.38,-240.25 1114.38,-240.25 1114.38,-221 1199.38,-221 1199.38,-240.25"/>
<text text-anchor="middle" x="1156.88" y="-226.75" font-family="Helvetica,sans-Serif" font-size="10.00">src/Ioss_Utils.h</text>
</a>
</g>
</g>
<!-- Node2 -->
<g id="Node000002" class="node">
<title>Node2</title>
<g id="a_Node000002"><a xlink:href="Ioss__CodeTypes_8h.html" target="_top" xlink:title=" ">
<polygon fill="white" stroke="#666666" points="1206.75,-74.5 1109,-74.5 1109,-55.25 1206.75,-55.25 1206.75,-74.5"/>
<text text-anchor="middle" x="1157.88" y="-61" font-family="Helvetica,sans-Serif" font-size="10.00">Ioss_CodeTypes.h</text>
</a>
</g>
</g>
<!-- Node1&#45;&gt;Node2 -->
<g id="edge1_Node000001_Node000002" class="edge">
<title>Node1&#45;&gt;Node2</title>
<g id="a_edge1_Node000001_Node000002"><a xlink:title=" ">
<path fill="none" stroke="#63b8ff" d="M1156.93,-220.82C1157.08,-195.5 1157.53,-122 1157.75,-86.09"/>
<polygon fill="#63b8ff" stroke="#63b8ff" points="1161.25,-86.26 1157.81,-76.24 1154.25,-86.21 1161.25,-86.26"/>
</a>
</g>
</g>
<!-- Node4 -->
<g id="Node000004" class="node">
<title>Node4</title>
<g id="a_Node000004"><a xlink:title=" ">
<polygon fill="#e0e0e0" stroke="#999999" points="320,-19.25 271.75,-19.25 271.75,0 320,0 320,-19.25"/>
<text text-anchor="middle" x="295.88" y="-5.75" font-family="Helvetica,sans-Serif" font-size="10.00">cstddef</text>
</a>
</g>
</g>
<!-- Node1&#45;&gt;Node4 -->
<g id="edge53_Node000001_Node000004" class="edge">
<title>Node1&#45;&gt;Node4</title>
<g id="a_edge53_Node000001_Node000004"><a xlink:title=" ">
<path fill="none" stroke="#63b8ff" d="M1114.19,-228.69C994.3,-225.71 656.33,-214.82 549.88,-185 446.4,-156.01 348.91,-65.14 311.73,-27.36"/>
<polygon fill="#63b8ff" stroke="#63b8ff" points="314.51,-25.19 305.03,-20.44 309.48,-30.06 314.51,-25.19"/>
</a>
</g>
</g>
<!-- Node5 -->
<g id="Node000005" class="node">
<title>Node5</title>
<g id="a_Node000005"><a xlink:title=" ">
<polygon fill="#e0e0e0" stroke="#999999" points="1359.5,-19.25 1314.25,-19.25 1314.25,0 1359.5,0 1359.5,-19.25"/>
<text text-anchor="middle" x="1336.88" y="-5.75" font-family="Helvetica,sans-Serif" font-size="10.00">cstdint</text>
</a>
</g>
</g>
<!-- Node1&#45;&gt;Node5 -->
<g id="edge54_Node000001_Node000005" class="edge">
<title>Node1&#45;&gt;Node5</title>
<g id="a_edge54_Node000001_Node000005"><a xlink:title=" ">
<path fill="none" stroke="#63b8ff" d="M1170,-220.63C1208.51,-193.92 1319.56,-114.43 1336.88,-74.5 1342.89,-60.62 1342.5,-43.4 1340.81,-30.33"/>
<polygon fill="#63b8ff" stroke="#63b8ff" points="1344.33,-30.11 1339.22,-20.82 1337.42,-31.26 1344.33,-30.11"/>
</a>
</g>
</g>
<!-- Node6 -->
<g id="Node000006" class="node">
<title>Node6</title>
<g id="a_Node000006"><a xlink:title=" ">
<polygon fill="#e0e0e0" stroke="#999999" points="605.88,-19.25 565.88,-19.25 565.88,0 605.88,0 605.88,-19.25"/>
<text text-anchor="middle" x="585.88" y="-5.75" font-family="Helvetica,sans-Serif" font-size="10.00">string</text>
</a>
</g>
</g>
<!-- Node1&#45;&gt;Node6 -->
<g id="edge58_Node000001_Node000006" class="edge">
<title>Node1&#45;&gt;Node6</title>
<g id="a_edge58_Node000001_Node000006"><a xlink:title=" ">
<path fill="none" stroke="#63b8ff" d="M1113.92,-229.21C1025.3,-227.63 816.19,-220.14 644.88,-185 567.88,-169.2 543.77,-171.01 476.88,-129.75 441.85,-108.14 396.88,-87.95 421.88,-55.25 437.88,-34.3 511.45,-20.86 554.43,-14.64"/>
<polygon fill="#63b8ff" stroke="#63b8ff" points="554.74,-18.13 564.16,-13.29 553.77,-11.2 554.74,-18.13"/>
</a>
</g>
</g>
<!-- Node7 -->
<g id="Node000007" class="node">
<title>Node7</title>
<g id="a_Node000007"><a xlink:title=" ">
<polygon fill="#e0e0e0" stroke="#999999" points="1008.38,-19.25 965.38,-19.25 965.38,0 1008.38,0 1008.38,-19.25"/>
<text text-anchor="middle" x="986.88" y="-5.75" font-family="Helvetica,sans-Serif" font-size="10.00">vector</text>
</a>
</g>
</g>
<!-- Node1&#45;&gt;Node7 -->
<g id="edge59_Node000001_Node000007" class="edge">
<title>Node1&#45;&gt;Node7</title>
<g id="a_edge59_Node000001_Node000007"><a xlink:title=" ">
<path fill="none" stroke="#63b8ff" d="M1150,-220.77C1124.53,-187.95 1035.22,-72.91 1000.67,-28.4"/>
<polygon fill="#63b8ff" stroke="#63b8ff" points="1003.47,-26.3 994.58,-20.55 997.94,-30.59 1003.47,-26.3"/>
</a>
</g>
</g>
<!-- Node10 -->
<g id="Node000010" class="node">
<title>Node10</title>
<g id="a_Node000010"><a xlink:href="Ioss__ElementTopology_8h.html" target="_top" xlink:title=" ">
<polygon fill="white" stroke="#666666" points="1035.75,-185 914,-185 914,-165.75 1035.75,-165.75 1035.75,-185"/>
<text text-anchor="middle" x="974.88" y="-171.5" font-family="Helvetica,sans-Serif" font-size="10.00">Ioss_ElementTopology.h</text>
</a>
</g>
</g>
<!-- Node1&#45;&gt;Node10 -->
<g id="edge9_Node000001_Node000010" class="edge">
<title>Node1&#45;&gt;Node10</title>
<g id="a_edge9_Node000001_Node000010"><a xlink:title=" ">
<path fill="none" stroke="#63b8ff" d="M1126,-220.59C1095.93,-211.79 1050.01,-198.36 1016.68,-188.61"/>
<polygon fill="#63b8ff" stroke="#63b8ff" points="1017.93,-185.33 1007.35,-185.88 1015.97,-192.04 1017.93,-185.33"/>
</a>
</g>
</g>
<!-- Node16 -->
<g id="Node000016" class="node">
<title>Node16</title>
<g id="a_Node000016"><a xlink:title=" ">
<polygon fill="#e0e0e0" stroke="#999999" points="722.12,-74.5 647.62,-74.5 647.62,-55.25 722.12,-55.25 722.12,-74.5"/>
<text text-anchor="middle" x="684.88" y="-61" font-family="Helvetica,sans-Serif" font-size="10.00">ioss_export.h</text>
</a>
</g>
</g>
<!-- Node1&#45;&gt;Node16 -->
<g id="edge60_Node000001_Node000016" class="edge">
<title>Node1&#45;&gt;Node16</title>
<g id="a_edge60_Node000001_Node000016"><a xlink:title=" ">
<path fill="none" stroke="#63b8ff" d="M1114.12,-228.39C1035.04,-224.24 863.19,-206.35 744.88,-129.75 725.78,-117.39 708.53,-97.68 697.47,-83.42"/>
<polygon fill="#63b8ff" stroke="#63b8ff" points="700.56,-81.71 691.77,-75.79 694.95,-85.9 700.56,-81.71"/>
</a>
</g>
</g>
<!-- Node18 -->
<g id="Node000018" class="node">
<title>Node18</title>
<g id="a_Node000018"><a xlink:href="Ioss__EntityType_8h.html" target="_top" xlink:title=" ">
<polygon fill="white" stroke="#666666" points="1355.25,-185 1260.5,-185 1260.5,-165.75 1355.25,-165.75 1355.25,-185"/>
<text text-anchor="middle" x="1307.88" y="-171.5" font-family="Helvetica,sans-Serif" font-size="10.00">Ioss_EntityType.h</text>
</a>
</g>
</g>
<!-- Node1&#45;&gt;Node18 -->
<g id="edge25_Node000001_Node000018" class="edge">
<title>Node1&#45;&gt;Node18</title>
<g id="a_edge25_Node000001_Node000018"><a xlink:title=" ">
<path fill="none" stroke="#63b8ff" d="M1182.49,-220.59C1206.89,-211.99 1243.89,-198.94 1271.37,-189.25"/>
<polygon fill="#63b8ff" stroke="#63b8ff" points="1272.44,-192.58 1280.71,-185.96 1270.11,-185.98 1272.44,-192.58"/>
</a>
</g>
</g>
<!-- Node19 -->
<g id="Node000019" class="node">
<title>Node19</title>
<g id="a_Node000019"><a xlink:href="Ioss__Field_8h.html" target="_top" xlink:title=" ">
<polygon fill="white" stroke="#666666" points="614.5,-129.75 545.25,-129.75 545.25,-110.5 614.5,-110.5 614.5,-129.75"/>
<text text-anchor="middle" x="579.88" y="-116.25" font-family="Helvetica,sans-Serif" font-size="10.00">Ioss_Field.h</text>
</a>
</g>
</g>
<!-- Node1&#45;&gt;Node19 -->
<g id="edge26_Node000001_Node000019" class="edge">
<title>Node1&#45;&gt;Node19</title>
<g id="a_edge26_Node000001_Node000019"><a xlink:title=" ">
<path fill="none" stroke="#63b8ff" d="M1113.96,-227.81C1014.33,-223.23 769.96,-209.75 691.88,-185 657.61,-174.14 622.27,-151.77 600.68,-136.61"/>
<polygon fill="#63b8ff" stroke="#63b8ff" points="602.91,-133.9 592.74,-130.9 598.82,-139.58 602.91,-133.9"/>
</a>
</g>
</g>
<!-- Node21 -->
<g id="Node000021" class="node">
<title>Node21</title>
<g id="a_Node000021"><a xlink:href="Ioss__Property_8h.html" target="_top" xlink:title=" ">
<polygon fill="white" stroke="#666666" points="1268.62,-129.75 1185.12,-129.75 1185.12,-110.5 1268.62,-110.5 1268.62,-129.75"/>
<text text-anchor="middle" x="1226.88" y="-116.25" font-family="Helvetica,sans-Serif" font-size="10.00">Ioss_Property.h</text>
</a>
</g>
</g>
<!-- Node1&#45;&gt;Node21 -->
<g id="edge34_Node000001_Node000021" class="edge">
<title>Node1&#45;&gt;Node21</title>
<g id="a_edge34_Node000001_Node000021"><a xlink:title=" ">
<path fill="none" stroke="#63b8ff" d="M1162.6,-220.75C1173.99,-203.1 1199.66,-163.3 1214.89,-139.7"/>
<polygon fill="#63b8ff" stroke="#63b8ff" points="1217.77,-141.7 1220.25,-131.4 1211.88,-137.9 1217.77,-141.7"/>
</a>
</g>
</g>
<!-- Node23 -->
<g id="Node000023" class="node">
<title>Node23</title>
<g id="a_Node000023"><a xlink:href="Ioss__Sort_8h.html" target="_top" xlink:title=" ">
<polygon fill="white" stroke="#666666" points="204,-129.75 137.75,-129.75 137.75,-110.5 204,-110.5 204,-129.75"/>
<text text-anchor="middle" x="170.88" y="-116.25" font-family="Helvetica,sans-Serif" font-size="10.00">Ioss_Sort.h</text>
</a>
</g>
</g>
<!-- Node1&#45;&gt;Node23 -->
<g id="edge41_Node000001_Node000023" class="edge">
<title>Node1&#45;&gt;Node23</title>
<g id="a_edge41_Node000001_Node000023"><a xlink:title=" ">
<path fill="none" stroke="#63b8ff" d="M1114.06,-229.74C940.85,-229.91 297.44,-227.64 217.88,-185 199.89,-175.36 186.97,-155.47 179.29,-140.43"/>
<polygon fill="#63b8ff" stroke="#63b8ff" points="182.51,-139.05 175.08,-131.5 176.17,-142.03 182.51,-139.05"/>
</a>
</g>
</g>
<!-- Node25 -->
<g id="Node000025" class="node">
<title>Node25</title>
<g id="a_Node000025"><a xlink:title=" ">
<polygon fill="#e0e0e0" stroke="#999999" points="55.75,-19.25 0,-19.25 0,0 55.75,0 55.75,-19.25"/>
<text text-anchor="middle" x="27.88" y="-5.75" font-family="Helvetica,sans-Serif" font-size="10.00">algorithm</text>
</a>
</g>
</g>
<!-- Node1&#45;&gt;Node25 -->
<g id="edge50_Node000001_Node000025" class="edge">
<title>Node1&#45;&gt;Node25</title>
<g id="a_edge50_Node000001_Node000025"><a xlink:title=" ">
<path fill="none" stroke="#63b8ff" d="M1114.06,-229.29C938.53,-227.67 279.11,-219.36 192.88,-185 116.76,-154.67 60.24,-68.09 38.11,-29.54"/>
<polygon fill="#63b8ff" stroke="#63b8ff" points="41.25,-27.97 33.31,-20.95 35.13,-31.38 41.25,-27.97"/>
</a>
</g>
</g>
<!-- Node29 -->
<g id="Node000029" class="node">
<title>Node29</title>
<g id="a_Node000029"><a xlink:title=" ">
<polygon fill="#e0e0e0" stroke="#999999" points="1422,-185 1373.75,-185 1373.75,-165.75 1422,-165.75 1422,-185"/>
<text text-anchor="middle" x="1397.88" y="-171.5" font-family="Helvetica,sans-Serif" font-size="10.00">cassert</text>
</a>
</g>
</g>
<!-- Node1&#45;&gt;Node29 -->
<g id="edge51_Node000001_Node000029" class="edge">
<title>Node1&#45;&gt;Node29</title>
<g id="a_edge51_Node000001_Node000029"><a xlink:title=" ">
<path fill="none" stroke="#63b8ff" d="M1199.79,-220.84C1239.43,-212.63 1300.22,-199.77 1362.56,-185.24"/>
<polygon fill="#63b8ff" stroke="#63b8ff" points="1362.98,-188.73 1371.91,-183.04 1361.38,-181.92 1362.98,-188.73"/>
</a>
</g>
</g>
<!-- Node30 -->
<g id="Node000030" class="node">
<title>Node30</title>
<g id="a_Node000030"><a xlink:title=" ">
<polygon fill="#e0e0e0" stroke="#999999" points="1483.38,-185 1440.38,-185 1440.38,-165.75 1483.38,-165.75 1483.38,-185"/>
<text text-anchor="middle" x="1461.88" y="-171.5" font-family="Helvetica,sans-Serif" font-size="10.00">cmath</text>
</a>
</g>
</g>
<!-- Node1&#45;&gt;Node30 -->
<g id="edge52_Node000001_Node000030" class="edge">
<title>Node1&#45;&gt;Node30</title>
<g id="a_edge52_Node000001_Node000030"><a xlink:title=" ">
<path fill="none" stroke="#63b8ff" d="M1199.87,-224.11C1251.83,-217.12 1342.12,-203.94 1428.83,-185.23"/>
<polygon fill="#63b8ff" stroke="#63b8ff" points="1429.44,-188.68 1438.46,-183.12 1427.94,-181.84 1429.44,-188.68"/>
</a>
</g>
</g>
<!-- Node31 -->
<g id="Node000031" class="node">
<title>Node31</title>
<g id="a_Node000031"><a xlink:title=" ">
<polygon fill="#e0e0e0" stroke="#999999" points="1546.12,-185 1501.62,-185 1501.62,-165.75 1546.12,-165.75 1546.12,-185"/>
<text text-anchor="middle" x="1523.88" y="-171.5" font-family="Helvetica,sans-Serif" font-size="10.00">cstdlib</text>
</a>
</g>
</g>
<!-- Node1&#45;&gt;Node31 -->
<g id="edge55_Node000001_Node000031" class="edge">
<title>Node1&#45;&gt;Node31</title>
<g id="a_edge55_Node000001_Node000031"><a xlink:title=" ">
<path fill="none" stroke="#63b8ff" d="M1199.62,-225.87C1261.64,-220.01 1380.31,-207.22 1490.01,-185.34"/>
<polygon fill="#63b8ff" stroke="#63b8ff" points="1490.69,-188.77 1499.79,-183.36 1489.3,-181.91 1490.69,-188.77"/>
</a>
</g>
</g>
<!-- Node32 -->
<g id="Node000032" class="node">
<title>Node32</title>
<g id="a_Node000032"><a xlink:title=" ">
<polygon fill="#e0e0e0" stroke="#999999" points="1617.62,-185 1564.12,-185 1564.12,-165.75 1617.62,-165.75 1617.62,-185"/>
<text text-anchor="middle" x="1590.88" y="-171.5" font-family="Helvetica,sans-Serif" font-size="10.00">iostream</text>
</a>
</g>
</g>
<!-- Node1&#45;&gt;Node32 -->
<g id="edge56_Node000001_Node000032" class="edge">
<title>Node1&#45;&gt;Node32</title>
<g id="a_edge56_Node000001_Node000032"><a xlink:title=" ">
<path fill="none" stroke="#63b8ff" d="M1199.82,-226.56C1271.06,-221.09 1418.29,-208.19 1552.53,-185.2"/>
<polygon fill="#63b8ff" stroke="#63b8ff" points="1553.08,-188.66 1562.33,-183.49 1551.88,-181.76 1553.08,-188.66"/>
</a>
</g>
</g>
<!-- Node33 -->
<g id="Node000033" class="node">
<title>Node33</title>
<g id="a_Node000033"><a xlink:title=" ">
<polygon fill="#e0e0e0" stroke="#999999" points="1694.25,-185 1635.5,-185 1635.5,-165.75 1694.25,-165.75 1694.25,-185"/>
<text text-anchor="middle" x="1664.88" y="-171.5" font-family="Helvetica,sans-Serif" font-size="10.00">stdexcept</text>
</a>
</g>
</g>
<!-- Node1&#45;&gt;Node33 -->
<g id="edge57_Node000001_Node000033" class="edge">
<title>Node1&#45;&gt;Node33</title>
<g id="a_edge57_Node000001_Node000033"><a xlink:title=" ">
<path fill="none" stroke="#63b8ff" d="M1199.56,-227.41C1280.51,-222.82 1462.08,-210.63 1623.95,-185.29"/>
<polygon fill="#63b8ff" stroke="#63b8ff" points="1624.25,-188.78 1633.58,-183.76 1623.15,-181.87 1624.25,-188.78"/>
</a>
</g>
</g>
<!-- Node3 -->
<g id="Node000003" class="node">
<title>Node3</title>
<g id="a_Node000003"><a xlink:title=" ">
<polygon fill="#e0e0e0" stroke="#999999" points="1267.75,-19.25 1230,-19.25 1230,0 1267.75,0 1267.75,-19.25"/>
<text text-anchor="middle" x="1248.88" y="-5.75" font-family="Helvetica,sans-Serif" font-size="10.00">array</text>
</a>
</g>
</g>
<!-- Node2&#45;&gt;Node3 -->
<g id="edge2_Node000002_Node000003" class="edge">
<title>Node2&#45;&gt;Node3</title>
<g id="a_edge2_Node000002_Node000003"><a xlink:title=" ">
<path fill="none" stroke="#63b8ff" d="M1173.31,-54.84C1187.04,-46.81 1207.37,-34.91 1223.49,-25.48"/>
<polygon fill="#63b8ff" stroke="#63b8ff" points="1225.19,-28.54 1232.06,-20.47 1221.66,-22.5 1225.19,-28.54"/>
</a>
</g>
</g>
<!-- Node2&#45;&gt;Node4 -->
<g id="edge3_Node000002_Node000004" class="edge">
<title>Node2&#45;&gt;Node4</title>
<g id="a_edge3_Node000002_Node000004"><a xlink:title=" ">
<path fill="none" stroke="#63b8ff" d="M1108.75,-60.84C952.31,-51.18 468.07,-21.26 331.86,-12.85"/>
<polygon fill="#63b8ff" stroke="#63b8ff" points="332.2,-9.36 322,-12.24 331.77,-16.35 332.2,-9.36"/>
</a>
</g>
</g>
<!-- Node2&#45;&gt;Node5 -->
<g id="edge4_Node000002_Node000005" class="edge">
<title>Node2&#45;&gt;Node5</title>
<g id="a_edge4_Node000002_Node000005"><a xlink:title=" ">
<path fill="none" stroke="#63b8ff" d="M1188.24,-54.84C1220,-45.39 1269.76,-30.59 1302.83,-20.75"/>
<polygon fill="#63b8ff" stroke="#63b8ff" points="1303.74,-24.13 1312.33,-17.93 1301.74,-17.42 1303.74,-24.13"/>
</a>
</g>
</g>
<!-- Node2&#45;&gt;Node6 -->
<g id="edge5_Node000002_Node000006" class="edge">
<title>Node2&#45;&gt;Node6</title>
<g id="a_edge5_Node000002_Node000006"><a xlink:title=" ">
<path fill="none" stroke="#63b8ff" d="M1108.61,-59.29C994.12,-48.63 712.65,-22.43 617.73,-13.59"/>
<polygon fill="#63b8ff" stroke="#63b8ff" points="618.14,-10.11 607.86,-12.67 617.49,-17.08 618.14,-10.11"/>
</a>
</g>
</g>
<!-- Node2&#45;&gt;Node7 -->
<g id="edge6_Node000002_Node000007" class="edge">
<title>Node2&#45;&gt;Node7</title>
<g id="a_edge6_Node000002_Node000007"><a xlink:title=" ">
<path fill="none" stroke="#63b8ff" d="M1128.87,-54.84C1098.57,-45.41 1051.14,-30.64 1019.55,-20.8"/>
<polygon fill="#63b8ff" stroke="#63b8ff" points="1020.72,-17.5 1010.13,-17.87 1018.64,-24.18 1020.72,-17.5"/>
</a>
</g>
</g>
<!-- Node8 -->
<g id="Node000008" class="node">
<title>Node8</title>
<g id="a_Node000008"><a xlink:title=" ">
<polygon fill="#e0e0e0" stroke="#999999" points="1141.75,-19.25 1026,-19.25 1026,0 1141.75,0 1141.75,-19.25"/>
<text text-anchor="middle" x="1083.88" y="-5.75" font-family="Helvetica,sans-Serif" font-size="10.00">SEACASIoss_config.h</text>
</a>
</g>
</g>
<!-- Node2&#45;&gt;Node8 -->
<g id="edge7_Node000002_Node000008" class="edge">
<title>Node2&#45;&gt;Node8</title>
<g id="a_edge7_Node000002_Node000008"><a xlink:title=" ">
<path fill="none" stroke="#63b8ff" d="M1145.32,-54.84C1134.41,-46.99 1118.37,-35.45 1105.41,-26.12"/>
<polygon fill="#63b8ff" stroke="#63b8ff" points="1107.63,-23.41 1097.47,-20.41 1103.54,-29.09 1107.63,-23.41"/>
</a>
</g>
</g>
<!-- Node9 -->
<g id="Node000009" class="node">
<title>Node9</title>
<g id="a_Node000009"><a xlink:title=" ">
<polygon fill="#e0e0e0" stroke="#999999" points="1212.25,-19.25 1159.5,-19.25 1159.5,0 1212.25,0 1212.25,-19.25"/>
<text text-anchor="middle" x="1185.88" y="-5.75" font-family="Helvetica,sans-Serif" font-size="10.00">complex</text>
</a>
</g>
</g>
<!-- Node2&#45;&gt;Node9 -->
<g id="edge8_Node000002_Node000009" class="edge">
<title>Node2&#45;&gt;Node9</title>
<g id="a_edge8_Node000002_Node000009"><a xlink:title=" ">
<path fill="none" stroke="#63b8ff" d="M1162.5,-55.08C1166.12,-48.19 1171.3,-38.34 1175.87,-29.66"/>
<polygon fill="#63b8ff" stroke="#63b8ff" points="1178.89,-31.43 1180.45,-20.95 1172.69,-28.17 1178.89,-31.43"/>
</a>
</g>
</g>
<!-- Node10&#45;&gt;Node2 -->
<g id="edge10_Node000010_Node000002" class="edge">
<title>Node10&#45;&gt;Node2</title>
<g id="a_edge10_Node000010_Node000002"><a xlink:title=" ">
<path fill="none" stroke="#63b8ff" d="M993.87,-165.4C1011.72,-156.79 1039.03,-143.15 1061.88,-129.75 1088.07,-114.38 1116.94,-94.79 1136.11,-81.38"/>
<polygon fill="#63b8ff" stroke="#63b8ff" points="1138.04,-84.31 1144.2,-75.69 1134.01,-78.58 1138.04,-84.31"/>
</a>
</g>
</g>
<!-- Node10&#45;&gt;Node6 -->
<g id="edge22_Node000010_Node000006" class="edge">
<title>Node10&#45;&gt;Node6</title>
<g id="a_edge22_Node000010_Node000006"><a xlink:title=" ">
<path fill="none" stroke="#63b8ff" d="M913.82,-173.9C782.34,-171.31 480.32,-156.39 430.88,-74.5 402.34,-27.25 501.16,-14.95 554.29,-11.75"/>
<polygon fill="#63b8ff" stroke="#63b8ff" points="554.17,-15.26 563.98,-11.25 553.81,-8.27 554.17,-15.26"/>
</a>
</g>
</g>
<!-- Node10&#45;&gt;Node7 -->
<g id="edge23_Node000010_Node000007" class="edge">
<title>Node10&#45;&gt;Node7</title>
<g id="a_edge23_Node000010_Node000007"><a xlink:title=" ">
<path fill="none" stroke="#63b8ff" d="M976.18,-165.5C977.48,-156.5 979.48,-142.18 980.88,-129.75 983.63,-105.25 984.57,-99.12 985.88,-74.5 986.64,-60.03 986.89,-43.7 986.94,-31.17"/>
<polygon fill="#63b8ff" stroke="#63b8ff" points="990.44,-31.24 986.95,-21.24 983.44,-31.24 990.44,-31.24"/>
</a>
</g>
</g>
<!-- Node11 -->
<g id="Node000011" class="node">
<title>Node11</title>
<g id="a_Node000011"><a xlink:href="Ioss__ElementPermutation_8h.html" target="_top" xlink:title=" ">
<polygon fill="white" stroke="#666666" points="929.25,-129.75 792.5,-129.75 792.5,-110.5 929.25,-110.5 929.25,-129.75"/>
<text text-anchor="middle" x="860.88" y="-116.25" font-family="Helvetica,sans-Serif" font-size="10.00">Ioss_ElementPermutation.h</text>
</a>
</g>
</g>
<!-- Node10&#45;&gt;Node11 -->
<g id="edge11_Node000010_Node000011" class="edge">
<title>Node10&#45;&gt;Node11</title>
<g id="a_edge11_Node000010_Node000011"><a xlink:title=" ">
<path fill="none" stroke="#63b8ff" d="M955.54,-165.34C937.77,-157.04 911.16,-144.61 890.67,-135.04"/>
<polygon fill="#63b8ff" stroke="#63b8ff" points="892.22,-131.9 881.68,-130.84 889.26,-138.25 892.22,-131.9"/>
</a>
</g>
</g>
<!-- Node14 -->
<g id="Node000014" class="node">
<title>Node14</title>
<g id="a_Node000014"><a xlink:title=" ">
<polygon fill="#e0e0e0" stroke="#999999" points="977.25,-74.5 942.5,-74.5 942.5,-55.25 977.25,-55.25 977.25,-74.5"/>
<text text-anchor="middle" x="959.88" y="-61" font-family="Helvetica,sans-Serif" font-size="10.00">map</text>
</a>
</g>
</g>
<!-- Node10&#45;&gt;Node14 -->
<g id="edge20_Node000010_Node000014" class="edge">
<title>Node10&#45;&gt;Node14</title>
<g id="a_edge20_Node000010_Node000014"><a xlink:title=" ">
<path fill="none" stroke="#63b8ff" d="M973.65,-165.5C971.26,-148.25 965.95,-109.83 962.67,-86.06"/>
<polygon fill="#63b8ff" stroke="#63b8ff" points="966.16,-85.8 961.33,-76.38 959.23,-86.76 966.16,-85.8"/>
</a>
</g>
</g>
<!-- Node10&#45;&gt;Node16 -->
<g id="edge24_Node000010_Node000016" class="edge">
<title>Node10&#45;&gt;Node16</title>
<g id="a_edge24_Node000010_Node000016"><a xlink:title=" ">
<path fill="none" stroke="#63b8ff" d="M913.84,-165.62C875.49,-158.79 825.57,-147.44 783.88,-129.75 754.53,-117.3 724.23,-96.34 705.01,-81.84"/>
<polygon fill="#63b8ff" stroke="#63b8ff" points="707.29,-79.18 697.23,-75.85 703.02,-84.73 707.29,-79.18"/>
</a>
</g>
</g>
<!-- Node17 -->
<g id="Node000017" class="node">
<title>Node17</title>
<g id="a_Node000017"><a xlink:title=" ">
<polygon fill="#e0e0e0" stroke="#999999" points="1052.62,-129.75 1023.12,-129.75 1023.12,-110.5 1052.62,-110.5 1052.62,-129.75"/>
<text text-anchor="middle" x="1037.88" y="-116.25" font-family="Helvetica,sans-Serif" font-size="10.00">set</text>
</a>
</g>
</g>
<!-- Node10&#45;&gt;Node17 -->
<g id="edge21_Node000010_Node000017" class="edge">
<title>Node10&#45;&gt;Node17</title>
<g id="a_edge21_Node000010_Node000017"><a xlink:title=" ">
<path fill="none" stroke="#63b8ff" d="M985.56,-165.34C994.58,-157.72 1007.71,-146.62 1018.56,-137.45"/>
<polygon fill="#63b8ff" stroke="#63b8ff" points="1020.81,-140.13 1026.19,-131 1016.29,-134.78 1020.81,-140.13"/>
</a>
</g>
</g>
<!-- Node11&#45;&gt;Node2 -->
<g id="edge12_Node000011_Node000002" class="edge">
<title>Node11&#45;&gt;Node2</title>
<g id="a_edge12_Node000011_Node000002"><a xlink:title=" ">
<path fill="none" stroke="#63b8ff" d="M911.59,-110.03C963.1,-100.8 1042.86,-86.5 1097.57,-76.69"/>
<polygon fill="#63b8ff" stroke="#63b8ff" points="1098.13,-80.14 1107.36,-74.93 1096.9,-73.25 1098.13,-80.14"/>
</a>
</g>
</g>
<!-- Node11&#45;&gt;Node6 -->
<g id="edge17_Node000011_Node000006" class="edge">
<title>Node11&#45;&gt;Node6</title>
<g id="a_edge17_Node000011_Node000006"><a xlink:title=" ">
<path fill="none" stroke="#63b8ff" d="M842.15,-110.16C823.53,-101.22 794.16,-87.04 768.88,-74.5 751.91,-66.09 748.43,-62.34 730.88,-55.25 692.5,-39.75 646.6,-26.47 616.87,-18.52"/>
<polygon fill="#63b8ff" stroke="#63b8ff" points="617.97,-15.19 607.41,-16.03 616.19,-21.96 617.97,-15.19"/>
</a>
</g>
</g>
<!-- Node11&#45;&gt;Node7 -->
<g id="edge18_Node000011_Node000007" class="edge">
<title>Node11&#45;&gt;Node7</title>
<g id="a_edge18_Node000011_Node000007"><a xlink:title=" ">
<path fill="none" stroke="#63b8ff" d="M870.74,-110.39C884.72,-98.03 911.13,-74.77 933.88,-55.25 944.94,-45.75 957.41,-35.24 967.48,-26.81"/>
<polygon fill="#63b8ff" stroke="#63b8ff" points="969.68,-29.53 975.11,-20.43 965.19,-24.16 969.68,-29.53"/>
</a>
</g>
</g>
<!-- Node12 -->
<g id="Node000012" class="node">
<title>Node12</title>
<g id="a_Node000012"><a xlink:title=" ">
<polygon fill="#e0e0e0" stroke="#999999" points="829.5,-74.5 778.25,-74.5 778.25,-55.25 829.5,-55.25 829.5,-74.5"/>
<text text-anchor="middle" x="803.88" y="-61" font-family="Helvetica,sans-Serif" font-size="10.00">assert.h</text>
</a>
</g>
</g>
<!-- Node11&#45;&gt;Node12 -->
<g id="edge13_Node000011_Node000012" class="edge">
<title>Node11&#45;&gt;Node12</title>
<g id="a_edge13_Node000011_Node000012"><a xlink:title=" ">
<path fill="none" stroke="#63b8ff" d="M851.21,-110.09C843.13,-102.55 831.41,-91.6 821.65,-82.48"/>
<polygon fill="#63b8ff" stroke="#63b8ff" points="824.2,-80.08 814.51,-75.81 819.43,-85.19 824.2,-80.08"/>
</a>
</g>
</g>
<!-- Node13 -->
<g id="Node000013" class="node">
<title>Node13</title>
<g id="a_Node000013"><a xlink:title=" ">
<polygon fill="#e0e0e0" stroke="#999999" points="886.5,-74.5 847.25,-74.5 847.25,-55.25 886.5,-55.25 886.5,-74.5"/>
<text text-anchor="middle" x="866.88" y="-61" font-family="Helvetica,sans-Serif" font-size="10.00">limits</text>
</a>
</g>
</g>
<!-- Node11&#45;&gt;Node13 -->
<g id="edge14_Node000011_Node000013" class="edge">
<title>Node11&#45;&gt;Node13</title>
<g id="a_edge14_Node000011_Node000013"><a xlink:title=" ">
<path fill="none" stroke="#63b8ff" d="M861.87,-110.33C862.61,-103.74 863.65,-94.46 864.6,-86.07"/>
<polygon fill="#63b8ff" stroke="#63b8ff" points="868.05,-86.69 865.69,-76.36 861.1,-85.91 868.05,-86.69"/>
</a>
</g>
</g>
<!-- Node11&#45;&gt;Node14 -->
<g id="edge15_Node000011_Node000014" class="edge">
<title>Node11&#45;&gt;Node14</title>
<g id="a_edge15_Node000011_Node000014"><a xlink:title=" ">
<path fill="none" stroke="#63b8ff" d="M877.67,-110.09C892.89,-101.91 915.57,-89.71 933.26,-80.19"/>
<polygon fill="#63b8ff" stroke="#63b8ff" points="934.52,-83.49 941.67,-75.67 931.2,-77.32 934.52,-83.49"/>
</a>
</g>
</g>
<!-- Node15 -->
<g id="Node000015" class="node">
<title>Node15</title>
<g id="a_Node000015"><a xlink:title=" ">
<polygon fill="#e0e0e0" stroke="#999999" points="630,-74.5 581.75,-74.5 581.75,-55.25 630,-55.25 630,-74.5"/>
<text text-anchor="middle" x="605.88" y="-61" font-family="Helvetica,sans-Serif" font-size="10.00">stdint.h</text>
</a>
</g>
</g>
<!-- Node11&#45;&gt;Node15 -->
<g id="edge16_Node000011_Node000015" class="edge">
<title>Node11&#45;&gt;Node15</title>
<g id="a_edge16_Node000011_Node000015"><a xlink:title=" ">
<path fill="none" stroke="#63b8ff" d="M811.32,-110.01C768.68,-101.97 705.27,-89.57 641.43,-74.99"/>
<polygon fill="#63b8ff" stroke="#63b8ff" points="642.35,-71.61 631.82,-72.78 640.78,-78.43 642.35,-71.61"/>
</a>
</g>
</g>
<!-- Node11&#45;&gt;Node16 -->
<g id="edge19_Node000011_Node000016" class="edge">
<title>Node11&#45;&gt;Node16</title>
<g id="a_edge19_Node000011_Node000016"><a xlink:title=" ">
<path fill="none" stroke="#63b8ff" d="M831.02,-110.09C802.07,-101.33 757.92,-87.98 725.72,-78.23"/>
<polygon fill="#63b8ff" stroke="#63b8ff" points="726.91,-74.94 716.33,-75.39 724.88,-81.64 726.91,-74.94"/>
</a>
</g>
</g>
<!-- Node19&#45;&gt;Node2 -->
<g id="edge27_Node000019_Node000002" class="edge">
<title>Node19&#45;&gt;Node2</title>
<g id="a_edge27_Node000019_Node000002"><a xlink:title=" ">
<path fill="none" stroke="#63b8ff" d="M614.73,-115.91C710.25,-107.11 977.11,-82.53 1097.54,-71.43"/>
<polygon fill="#63b8ff" stroke="#63b8ff" points="1097.59,-74.94 1107.22,-70.54 1096.95,-67.97 1097.59,-74.94"/>
</a>
</g>
</g>
<!-- Node19&#45;&gt;Node4 -->
<g id="edge28_Node000019_Node000004" class="edge">
<title>Node19&#45;&gt;Node4</title>
<g id="a_edge28_Node000019_Node000004"><a xlink:title=" ">
<path fill="none" stroke="#63b8ff" d="M544.75,-110.22C514.24,-102.1 469.07,-89.16 430.88,-74.5 392.58,-59.8 350.06,-38.88 323.16,-25.03"/>
<polygon fill="#63b8ff" stroke="#63b8ff" points="324.82,-21.95 314.33,-20.45 321.59,-28.16 324.82,-21.95"/>
</a>
</g>
</g>
<!-- Node19&#45;&gt;Node6 -->
<g id="edge31_Node000019_Node000006" class="edge">
<title>Node19&#45;&gt;Node6</title>
<g id="a_edge31_Node000019_Node000006"><a xlink:title=" ">
<path fill="none" stroke="#63b8ff" d="M544.96,-115.99C494.98,-110.1 412.08,-94.24 440.88,-55.25 466.84,-20.09 520.07,-11.76 554.3,-10.25"/>
<polygon fill="#63b8ff" stroke="#63b8ff" points="554.12,-13.76 564.03,-10.01 553.95,-6.76 554.12,-13.76"/>
</a>
</g>
</g>
<!-- Node19&#45;&gt;Node7 -->
<g id="edge32_Node000019_Node000007" class="edge">
<title>Node19&#45;&gt;Node7</title>
<g id="a_edge32_Node000019_Node000007"><a xlink:title=" ">
<path fill="none" stroke="#63b8ff" d="M575.27,-110.43C568.78,-96.84 559.16,-70.52 572.88,-55.25 598.21,-27.04 860.08,-15.1 953.77,-11.7"/>
<polygon fill="#63b8ff" stroke="#63b8ff" points="953.7,-15.21 963.57,-11.36 953.46,-8.21 953.7,-15.21"/>
</a>
</g>
</g>
<!-- Node19&#45;&gt;Node15 -->
<g id="edge30_Node000019_Node000015" class="edge">
<title>Node19&#45;&gt;Node15</title>
<g id="a_edge30_Node000019_Node000015"><a xlink:title=" ">
<path fill="none" stroke="#63b8ff" d="M584.17,-110.33C587.5,-103.51 592.24,-93.81 596.44,-85.2"/>
<polygon fill="#63b8ff" stroke="#63b8ff" points="599.58,-86.74 600.82,-76.22 593.29,-83.67 599.58,-86.74"/>
</a>
</g>
</g>
<!-- Node19&#45;&gt;Node16 -->
<g id="edge33_Node000019_Node000016" class="edge">
<title>Node19&#45;&gt;Node16</title>
<g id="a_edge33_Node000019_Node000016"><a xlink:title=" ">
<path fill="none" stroke="#63b8ff" d="M597.69,-110.09C613.9,-101.87 638.11,-89.59 656.91,-80.06"/>
<polygon fill="#63b8ff" stroke="#63b8ff" points="658.29,-83.28 665.63,-75.64 655.12,-77.04 658.29,-83.28"/>
</a>
</g>
</g>
<!-- Node20 -->
<g id="Node000020" class="node">
<title>Node20</title>
<g id="a_Node000020"><a xlink:title=" ">
<polygon fill="#e0e0e0" stroke="#999999" points="526.25,-74.5 449.5,-74.5 449.5,-55.25 526.25,-55.25 526.25,-74.5"/>
<text text-anchor="middle" x="487.88" y="-61" font-family="Helvetica,sans-Serif" font-size="10.00">fmt/ostream.h</text>
</a>
</g>
</g>
<!-- Node19&#45;&gt;Node20 -->
<g id="edge29_Node000019_Node000020" class="edge">
<title>Node19&#45;&gt;Node20</title>
<g id="a_edge29_Node000019_Node000020"><a xlink:title=" ">
<path fill="none" stroke="#63b8ff" d="M564.27,-110.09C550.26,-101.98 529.44,-89.93 513.07,-80.46"/>
<polygon fill="#63b8ff" stroke="#63b8ff" points="515.28,-77.69 504.87,-75.71 511.77,-83.75 515.28,-77.69"/>
</a>
</g>
</g>
<!-- Node21&#45;&gt;Node2 -->
<g id="edge35_Node000021_Node000002" class="edge">
<title>Node21&#45;&gt;Node2</title>
<g id="a_edge35_Node000021_Node000002"><a xlink:title=" ">
<path fill="none" stroke="#63b8ff" d="M1215.17,-110.09C1205.1,-102.32 1190.33,-90.92 1178.31,-81.65"/>
<polygon fill="#63b8ff" stroke="#63b8ff" points="1180.66,-79.04 1170.61,-75.7 1176.38,-84.58 1180.66,-79.04"/>
</a>
</g>
</g>
<!-- Node21&#45;&gt;Node5 -->
<g id="edge37_Node000021_Node000005" class="edge">
<title>Node21&#45;&gt;Node5</title>
<g id="a_edge37_Node000021_Node000005"><a xlink:title=" ">
<path fill="none" stroke="#63b8ff" d="M1260.57,-110.03C1279.87,-103.2 1303.1,-91.97 1317.88,-74.5 1328.29,-62.19 1332.99,-44.36 1335.12,-30.66"/>
<polygon fill="#63b8ff" stroke="#63b8ff" points="1338.56,-31.37 1336.26,-21.02 1331.61,-30.54 1338.56,-31.37"/>
</a>
</g>
</g>
<!-- Node21&#45;&gt;Node6 -->
<g id="edge38_Node000021_Node000006" class="edge">
<title>Node21&#45;&gt;Node6</title>
<g id="a_edge38_Node000021_Node000006"><a xlink:title=" ">
<path fill="none" stroke="#63b8ff" d="M1198.25,-110.06C1153.43,-96.2 1063.73,-69.83 985.88,-55.25 849.81,-29.77 684.8,-17 617.12,-12.53"/>
<polygon fill="#63b8ff" stroke="#63b8ff" points="617.72,-9.06 607.52,-11.91 617.27,-16.05 617.72,-9.06"/>
</a>
</g>
</g>
<!-- Node21&#45;&gt;Node7 -->
<g id="edge40_Node000021_Node000007" class="edge">
<title>Node21&#45;&gt;Node7</title>
<g id="a_edge40_Node000021_Node000007"><a xlink:title=" ">
<path fill="none" stroke="#63b8ff" d="M1228.21,-110.3C1229.76,-96.52 1230.45,-69.95 1215.88,-55.25 1155.12,6.02 1108.28,-36.01 1020.03,-19.57"/>
<polygon fill="#63b8ff" stroke="#63b8ff" points="1020.75,-16.14 1010.24,-17.51 1019.31,-22.99 1020.75,-16.14"/>
</a>
</g>
</g>
<!-- Node21&#45;&gt;Node16 -->
<g id="edge36_Node000021_Node000016" class="edge">
<title>Node21&#45;&gt;Node16</title>
<g id="a_edge36_Node000021_Node000016"><a xlink:title=" ">
<path fill="none" stroke="#63b8ff" d="M1184.88,-115.11C1104.23,-107.37 922.1,-89.83 768.88,-74.5 757.5,-73.36 745.25,-72.12 733.73,-70.93"/>
<polygon fill="#63b8ff" stroke="#63b8ff" points="734.32,-67.48 724.01,-69.94 733.6,-74.44 734.32,-67.48"/>
</a>
</g>
</g>
<!-- Node22 -->
<g id="Node000022" class="node">
<title>Node22</title>
<g id="a_Node000022"><a xlink:title=" ">
<polygon fill="#e0e0e0" stroke="#999999" points="1308.5,-74.5 1263.25,-74.5 1263.25,-55.25 1308.5,-55.25 1308.5,-74.5"/>
<text text-anchor="middle" x="1285.88" y="-61" font-family="Helvetica,sans-Serif" font-size="10.00">variant</text>
</a>
</g>
</g>
<!-- Node21&#45;&gt;Node22 -->
<g id="edge39_Node000021_Node000022" class="edge">
<title>Node21&#45;&gt;Node22</title>
<g id="a_edge39_Node000021_Node000022"><a xlink:title=" ">
<path fill="none" stroke="#63b8ff" d="M1236.88,-110.09C1245.24,-102.55 1257.37,-91.6 1267.48,-82.48"/>
<polygon fill="#63b8ff" stroke="#63b8ff" points="1269.81,-85.09 1274.89,-75.79 1265.12,-79.89 1269.81,-85.09"/>
</a>
</g>
</g>
<!-- Node23&#45;&gt;Node4 -->
<g id="edge48_Node000023_Node000004" class="edge">
<title>Node23&#45;&gt;Node4</title>
<g id="a_edge48_Node000023_Node000004"><a xlink:title=" ">
<path fill="none" stroke="#63b8ff" d="M175.7,-110.38C183.31,-97.17 199.17,-71.92 217.88,-55.25 231.78,-42.85 249.69,-32.31 264.84,-24.59"/>
<polygon fill="#63b8ff" stroke="#63b8ff" points="266.01,-27.92 273.45,-20.37 262.93,-21.63 266.01,-27.92"/>
</a>
</g>
</g>
<!-- Node23&#45;&gt;Node7 -->
<g id="edge49_Node000023_Node000007" class="edge">
<title>Node23&#45;&gt;Node7</title>
<g id="a_edge49_Node000023_Node000007"><a xlink:title=" ">
<path fill="none" stroke="#63b8ff" d="M202.16,-110.1C252.15,-96.04 353.33,-69.1 440.88,-55.25 633.57,-24.76 868.03,-14.48 953.59,-11.6"/>
<polygon fill="#63b8ff" stroke="#63b8ff" points="953.49,-15.1 963.37,-11.28 953.27,-8.11 953.49,-15.1"/>
</a>
</g>
</g>
<!-- Node24 -->
<g id="Node000024" class="node">
<title>Node24</title>
<g id="a_Node000024"><a xlink:href="pdqsort_8h.html" target="_top" xlink:title=" ">
<polygon fill="white" stroke="#666666" points="166.12,-74.5 109.62,-74.5 109.62,-55.25 166.12,-55.25 166.12,-74.5"/>
<text text-anchor="middle" x="137.88" y="-61" font-family="Helvetica,sans-Serif" font-size="10.00">pdqsort.h</text>
</a>
</g>
</g>
<!-- Node23&#45;&gt;Node24 -->
<g id="edge42_Node000023_Node000024" class="edge">
<title>Node23&#45;&gt;Node24</title>
<g id="a_edge42_Node000023_Node000024"><a xlink:title=" ">
<path fill="none" stroke="#63b8ff" d="M165.43,-110.33C161.1,-103.36 154.91,-93.37 149.49,-84.62"/>
<polygon fill="#63b8ff" stroke="#63b8ff" points="152.48,-82.8 144.24,-76.15 146.53,-86.49 152.48,-82.8"/>
</a>
</g>
</g>
<!-- Node24&#45;&gt;Node4 -->
<g id="edge44_Node000024_Node000004" class="edge">
<title>Node24&#45;&gt;Node4</title>
<g id="a_edge44_Node000024_Node000004"><a xlink:title=" ">
<path fill="none" stroke="#63b8ff" d="M164.68,-54.84C191.03,-45.96 231.4,-32.36 260.4,-22.58"/>
<polygon fill="#63b8ff" stroke="#63b8ff" points="261.49,-25.91 269.85,-19.4 259.26,-19.27 261.49,-25.91"/>
</a>
</g>
</g>
<!-- Node24&#45;&gt;Node25 -->
<g id="edge43_Node000024_Node000025" class="edge">
<title>Node24&#45;&gt;Node25</title>
<g id="a_edge43_Node000024_Node000025"><a xlink:title=" ">
<path fill="none" stroke="#63b8ff" d="M119.21,-54.84C102.15,-46.58 76.63,-34.23 56.9,-24.68"/>
<polygon fill="#63b8ff" stroke="#63b8ff" points="58.51,-21.57 47.99,-20.36 55.46,-27.87 58.51,-21.57"/>
</a>
</g>
</g>
<!-- Node26 -->
<g id="Node000026" class="node">
<title>Node26</title>
<g id="a_Node000026"><a xlink:title=" ">
<polygon fill="#e0e0e0" stroke="#999999" points="131.88,-19.25 73.88,-19.25 73.88,0 131.88,0 131.88,-19.25"/>
<text text-anchor="middle" x="102.88" y="-5.75" font-family="Helvetica,sans-Serif" font-size="10.00">functional</text>
</a>
</g>
</g>
<!-- Node24&#45;&gt;Node26 -->
<g id="edge45_Node000024_Node000026" class="edge">
<title>Node24&#45;&gt;Node26</title>
<g id="a_edge45_Node000024_Node000026"><a xlink:title=" ">
<path fill="none" stroke="#63b8ff" d="M132.1,-55.08C127.46,-48.03 120.8,-37.9 115.01,-29.08"/>
<polygon fill="#63b8ff" stroke="#63b8ff" points="118.03,-27.31 109.61,-20.87 112.18,-31.15 118.03,-27.31"/>
</a>
</g>
</g>
<!-- Node27 -->
<g id="Node000027" class="node">
<title>Node27</title>
<g id="a_Node000027"><a xlink:title=" ">
<polygon fill="#e0e0e0" stroke="#999999" points="195.88,-19.25 149.88,-19.25 149.88,0 195.88,0 195.88,-19.25"/>
<text text-anchor="middle" x="172.88" y="-5.75" font-family="Helvetica,sans-Serif" font-size="10.00">iterator</text>
</a>
</g>
</g>
<!-- Node24&#45;&gt;Node27 -->
<g id="edge46_Node000024_Node000027" class="edge">
<title>Node24&#45;&gt;Node27</title>
<g id="a_edge46_Node000024_Node000027"><a xlink:title=" ">
<path fill="none" stroke="#63b8ff" d="M143.65,-55.08C148.29,-48.03 154.95,-37.9 160.74,-29.08"/>
<polygon fill="#63b8ff" stroke="#63b8ff" points="163.57,-31.15 166.14,-20.87 157.72,-27.31 163.57,-31.15"/>
</a>
</g>
</g>
<!-- Node28 -->
<g id="Node000028" class="node">
<title>Node28</title>
<g id="a_Node000028"><a xlink:title=" ">
<polygon fill="#e0e0e0" stroke="#999999" points="253.5,-19.25 214.25,-19.25 214.25,0 253.5,0 253.5,-19.25"/>
<text text-anchor="middle" x="233.88" y="-5.75" font-family="Helvetica,sans-Serif" font-size="10.00">utility</text>
</a>
</g>
</g>
<!-- Node24&#45;&gt;Node28 -->
<g id="edge47_Node000024_Node000028" class="edge">
<title>Node24&#45;&gt;Node28</title>
<g id="a_edge47_Node000024_Node000028"><a xlink:title=" ">
<path fill="none" stroke="#63b8ff" d="M154.16,-54.84C168.78,-46.73 190.5,-34.68 207.58,-25.21"/>
<polygon fill="#63b8ff" stroke="#63b8ff" points="209.14,-28.35 216.19,-20.44 205.74,-22.23 209.14,-28.35"/>
</a>
</g>
</g>
</g>
</svg>
