<?xml version="1.0" encoding="UTF-8" standalone="no"?>
<!DOCTYPE svg PUBLIC "-//W3C//DTD SVG 1.1//EN"
 "http://www.w3.org/Graphics/SVG/1.1/DTD/svg11.dtd">
<!-- Generated by graphviz version 7.1.0 (20230121.1956)
 -->
<!-- Title: src/Ioss_Blob.h Pages: 1 -->
<svg width="2268pt" height="159pt"
 viewBox="0.00 0.00 2267.50 159.00" xmlns="http://www.w3.org/2000/svg" xmlns:xlink="http://www.w3.org/1999/xlink">
<g id="graph0" class="graph" transform="scale(1 1) rotate(0) translate(4 155)">
<title>src/Ioss_Blob.h</title>
<!-- Node1 -->
<g id="node1" class="node">
<title>Node1</title>
<g id="a_node1"><a xlink:title=" ">
<polygon fill="#999999" stroke="#666666" points="1508,-151 1423,-151 1423,-132 1508,-132 1508,-151"/>
<text text-anchor="middle" x="1465.5" y="-139" font-family="Helvetica,sans-Serif" font-size="10.00">src/Ioss_Blob.h</text>
</a>
</g>
</g>
<!-- Node2 -->
<g id="node2" class="node">
<title>Node2</title>
<g id="a_node2"><a xlink:href="Ioss__Blob_8C.html" target="_top" xlink:title=" ">
<polygon fill="white" stroke="#666666" points="616,-90.5 529,-90.5 529,-71.5 616,-71.5 616,-90.5"/>
<text text-anchor="middle" x="572.5" y="-78.5" font-family="Helvetica,sans-Serif" font-size="10.00">src/Ioss_Blob.C</text>
</a>
</g>
</g>
<!-- Node1&#45;&gt;Node2 -->
<g id="edge1" class="edge">
<title>Node1&#45;&gt;Node2</title>
<path fill="none" stroke="#63b8ff" d="M1411.08,-139.08C1250.07,-134.64 777.78,-119.89 625.5,-96 617.79,-94.79 609.58,-92.92 601.99,-90.93"/>
<polygon fill="#63b8ff" stroke="#63b8ff" points="1410.97,-142.58 1421.06,-139.35 1411.16,-135.58 1410.97,-142.58"/>
</g>
<!-- Node3 -->
<g id="node3" class="node">
<title>Node3</title>
<g id="a_node3"><a xlink:href="Ioss__Region_8C.html" target="_top" xlink:title=" ">
<polygon fill="white" stroke="#666666" points="732.5,-90.5 634.5,-90.5 634.5,-71.5 732.5,-71.5 732.5,-90.5"/>
<text text-anchor="middle" x="683.5" y="-78.5" font-family="Helvetica,sans-Serif" font-size="10.00">src/Ioss_Region.C</text>
</a>
</g>
</g>
<!-- Node1&#45;&gt;Node3 -->
<g id="edge2" class="edge">
<title>Node1&#45;&gt;Node3</title>
<path fill="none" stroke="#63b8ff" d="M1411.32,-140.41C1290.43,-139.49 989.77,-133.3 741.5,-96 733.2,-94.75 724.35,-92.89 716.12,-90.93"/>
<polygon fill="#63b8ff" stroke="#63b8ff" points="1411.26,-143.91 1421.28,-140.47 1411.3,-136.91 1411.26,-143.91"/>
</g>
<!-- Node4 -->
<g id="node4" class="node">
<title>Node4</title>
<g id="a_node4"><a xlink:href="Ioss__SubSystem_8h.html" target="_top" xlink:title=" ">
<polygon fill="white" stroke="#666666" points="866.5,-90.5 750.5,-90.5 750.5,-71.5 866.5,-71.5 866.5,-90.5"/>
<text text-anchor="middle" x="808.5" y="-78.5" font-family="Helvetica,sans-Serif" font-size="10.00">src/Ioss_SubSystem.h</text>
</a>
</g>
</g>
<!-- Node1&#45;&gt;Node4 -->
<g id="edge3" class="edge">
<title>Node1&#45;&gt;Node4</title>
<path fill="none" stroke="#63b8ff" d="M1411.26,-138.78C1307.01,-134.95 1071.61,-123.76 875.5,-96 866.2,-94.68 856.27,-92.85 846.97,-90.94"/>
<polygon fill="#63b8ff" stroke="#63b8ff" points="1411.09,-142.28 1421.21,-139.14 1411.34,-135.28 1411.09,-142.28"/>
</g>
<!-- Node17 -->
<g id="node17" class="node">
<title>Node17</title>
<g id="a_node17"><a xlink:href="Ioex__BaseDatabaseIO_8C.html" target="_top" xlink:title=" ">
<polygon fill="white" stroke="#666666" points="1062,-90.5 885,-90.5 885,-71.5 1062,-71.5 1062,-90.5"/>
<text text-anchor="middle" x="973.5" y="-78.5" font-family="Helvetica,sans-Serif" font-size="10.00">src/exodus/Ioex_BaseDatabaseIO.C</text>
</a>
</g>
</g>
<!-- Node1&#45;&gt;Node17 -->
<g id="edge16" class="edge">
<title>Node1&#45;&gt;Node17</title>
<path fill="none" stroke="#63b8ff" d="M1411.6,-134.97C1335.5,-127.03 1192.25,-111.64 1070.5,-96 1058.6,-94.47 1045.9,-92.72 1033.74,-90.99"/>
<polygon fill="#63b8ff" stroke="#63b8ff" points="1410.96,-138.42 1421.27,-135.97 1411.69,-131.46 1410.96,-138.42"/>
</g>
<!-- Node18 -->
<g id="node18" class="node">
<title>Node18</title>
<g id="a_node18"><a xlink:href="Ioex__DatabaseIO_8C.html" target="_top" xlink:title=" ">
<polygon fill="white" stroke="#666666" points="1235,-90.5 1080,-90.5 1080,-71.5 1235,-71.5 1235,-90.5"/>
<text text-anchor="middle" x="1157.5" y="-78.5" font-family="Helvetica,sans-Serif" font-size="10.00">src/exodus/Ioex_DatabaseIO.C</text>
</a>
</g>
</g>
<!-- Node1&#45;&gt;Node18 -->
<g id="edge17" class="edge">
<title>Node1&#45;&gt;Node18</title>
<path fill="none" stroke="#63b8ff" d="M1411.44,-130.23C1352.91,-119.12 1260.48,-101.56 1204.76,-90.98"/>
<polygon fill="#63b8ff" stroke="#63b8ff" points="1410.71,-133.66 1421.19,-132.08 1412.02,-126.78 1410.71,-133.66"/>
</g>
<!-- Node19 -->
<g id="node19" class="node">
<title>Node19</title>
<g id="a_node19"><a xlink:href="Ioex__Internals_8C.html" target="_top" xlink:title=" ">
<polygon fill="white" stroke="#666666" points="1393.5,-90.5 1253.5,-90.5 1253.5,-71.5 1393.5,-71.5 1393.5,-90.5"/>
<text text-anchor="middle" x="1323.5" y="-78.5" font-family="Helvetica,sans-Serif" font-size="10.00">src/exodus/Ioex_Internals.C</text>
</a>
</g>
</g>
<!-- Node1&#45;&gt;Node19 -->
<g id="edge18" class="edge">
<title>Node1&#45;&gt;Node19</title>
<path fill="none" stroke="#63b8ff" d="M1433.49,-127.31C1406.57,-116.22 1368.81,-100.67 1345.27,-90.97"/>
<polygon fill="#63b8ff" stroke="#63b8ff" points="1431.95,-130.47 1442.53,-131.04 1434.62,-123.99 1431.95,-130.47"/>
</g>
<!-- Node20 -->
<g id="node20" class="node">
<title>Node20</title>
<g id="a_node20"><a xlink:href="Ioexnl__BaseDatabaseIO_8C.html" target="_top" xlink:title=" ">
<polygon fill="white" stroke="#666666" points="1519,-96 1412,-96 1412,-66 1519,-66 1519,-96"/>
<text text-anchor="start" x="1420" y="-84" font-family="Helvetica,sans-Serif" font-size="10.00">src/exonull/Ioexnl</text>
<text text-anchor="middle" x="1465.5" y="-73" font-family="Helvetica,sans-Serif" font-size="10.00">_BaseDatabaseIO.C</text>
</a>
</g>
</g>
<!-- Node1&#45;&gt;Node20 -->
<g id="edge19" class="edge">
<title>Node1&#45;&gt;Node20</title>
<path fill="none" stroke="#63b8ff" d="M1465.5,-120.51C1465.5,-112.49 1465.5,-103.43 1465.5,-96.11"/>
<polygon fill="#63b8ff" stroke="#63b8ff" points="1462,-120.35 1465.5,-130.35 1469,-120.35 1462,-120.35"/>
</g>
<!-- Node21 -->
<g id="node21" class="node">
<title>Node21</title>
<g id="a_node21"><a xlink:href="Ioexnl__DatabaseIO_8C.html" target="_top" xlink:title=" ">
<polygon fill="white" stroke="#666666" points="1630,-96 1537,-96 1537,-66 1630,-66 1630,-96"/>
<text text-anchor="start" x="1545" y="-84" font-family="Helvetica,sans-Serif" font-size="10.00">src/exonull/Ioexnl</text>
<text text-anchor="middle" x="1583.5" y="-73" font-family="Helvetica,sans-Serif" font-size="10.00">_DatabaseIO.C</text>
</a>
</g>
</g>
<!-- Node1&#45;&gt;Node21 -->
<g id="edge20" class="edge">
<title>Node1&#45;&gt;Node21</title>
<path fill="none" stroke="#63b8ff" d="M1493.5,-126.62C1511.85,-117.52 1535.8,-105.65 1554.37,-96.44"/>
<polygon fill="#63b8ff" stroke="#63b8ff" points="1492.18,-123.37 1484.78,-130.94 1495.29,-129.64 1492.18,-123.37"/>
</g>
<!-- Node22 -->
<g id="node22" class="node">
<title>Node22</title>
<g id="a_node22"><a xlink:href="Ioexnl__Internals_8C.html" target="_top" xlink:title=" ">
<polygon fill="white" stroke="#666666" points="1741,-96 1648,-96 1648,-66 1741,-66 1741,-96"/>
<text text-anchor="start" x="1656" y="-84" font-family="Helvetica,sans-Serif" font-size="10.00">src/exonull/Ioexnl</text>
<text text-anchor="middle" x="1694.5" y="-73" font-family="Helvetica,sans-Serif" font-size="10.00">_Internals.C</text>
</a>
</g>
</g>
<!-- Node1&#45;&gt;Node22 -->
<g id="edge21" class="edge">
<title>Node1&#45;&gt;Node22</title>
<path fill="none" stroke="#63b8ff" d="M1511.22,-128.82C1550.86,-118.69 1607.97,-104.1 1647.87,-93.91"/>
<polygon fill="#63b8ff" stroke="#63b8ff" points="1510.57,-125.37 1501.75,-131.24 1512.3,-132.16 1510.57,-125.37"/>
</g>
<!-- Node23 -->
<g id="node23" class="node">
<title>Node23</title>
<g id="a_node23"><a xlink:href="io__info_8h.html" target="_top" xlink:title=" ">
<polygon fill="white" stroke="#666666" points="1853.5,-90.5 1759.5,-90.5 1759.5,-71.5 1853.5,-71.5 1853.5,-90.5"/>
<text text-anchor="middle" x="1806.5" y="-78.5" font-family="Helvetica,sans-Serif" font-size="10.00">src/main/io_info.h</text>
</a>
</g>
</g>
<!-- Node1&#45;&gt;Node23 -->
<g id="edge22" class="edge">
<title>Node1&#45;&gt;Node23</title>
<path fill="none" stroke="#63b8ff" d="M1519.36,-133.46C1576.66,-125.64 1669.85,-111.99 1749.5,-96 1756.79,-94.54 1764.56,-92.77 1771.94,-90.99"/>
<polygon fill="#63b8ff" stroke="#63b8ff" points="1518.98,-129.98 1509.54,-134.79 1519.92,-136.91 1518.98,-129.98"/>
</g>
<!-- Node26 -->
<g id="node26" class="node">
<title>Node26</title>
<g id="a_node26"><a xlink:href="io__modify_8C.html" target="_top" xlink:title=" ">
<polygon fill="white" stroke="#666666" points="1979.5,-90.5 1871.5,-90.5 1871.5,-71.5 1979.5,-71.5 1979.5,-90.5"/>
<text text-anchor="middle" x="1925.5" y="-78.5" font-family="Helvetica,sans-Serif" font-size="10.00">src/main/io_modify.C</text>
</a>
</g>
</g>
<!-- Node1&#45;&gt;Node26 -->
<g id="edge25" class="edge">
<title>Node1&#45;&gt;Node26</title>
<path fill="none" stroke="#63b8ff" d="M1519.55,-136.29C1596.19,-129.9 1740.65,-116.31 1862.5,-96 1870.9,-94.6 1879.86,-92.8 1888.32,-90.95"/>
<polygon fill="#63b8ff" stroke="#63b8ff" points="1519.49,-132.78 1509.81,-137.09 1520.06,-139.76 1519.49,-132.78"/>
</g>
<!-- Node27 -->
<g id="node27" class="node">
<title>Node27</title>
<g id="a_node27"><a xlink:href="Ionull__DatabaseIO_8C.html" target="_top" xlink:title=" ">
<polygon fill="white" stroke="#666666" points="2141,-90.5 1998,-90.5 1998,-71.5 2141,-71.5 2141,-90.5"/>
<text text-anchor="middle" x="2069.5" y="-78.5" font-family="Helvetica,sans-Serif" font-size="10.00">src/null/Ionull_DatabaseIO.C</text>
</a>
</g>
</g>
<!-- Node1&#45;&gt;Node27 -->
<g id="edge26" class="edge">
<title>Node1&#45;&gt;Node27</title>
<path fill="none" stroke="#63b8ff" d="M1519.67,-137.44C1614.81,-131.71 1818.01,-117.95 1988.5,-96 1999.26,-94.62 2010.77,-92.82 2021.63,-90.98"/>
<polygon fill="#63b8ff" stroke="#63b8ff" points="1519.63,-133.93 1509.85,-138.02 1520.04,-140.92 1519.63,-133.93"/>
</g>
<!-- Node28 -->
<g id="node28" class="node">
<title>Node28</title>
<g id="a_node28"><a xlink:href="Utst__blob__write__read_8C.html" target="_top" xlink:title=" ">
<polygon fill="white" stroke="#666666" points="2259.5,-96 2159.5,-96 2159.5,-66 2259.5,-66 2259.5,-96"/>
<text text-anchor="start" x="2167.5" y="-84" font-family="Helvetica,sans-Serif" font-size="10.00">src/utest/Utst_blob</text>
<text text-anchor="middle" x="2209.5" y="-73" font-family="Helvetica,sans-Serif" font-size="10.00">_write_read.C</text>
</a>
</g>
</g>
<!-- Node1&#45;&gt;Node28 -->
<g id="edge27" class="edge">
<title>Node1&#45;&gt;Node28</title>
<path fill="none" stroke="#63b8ff" d="M1519.63,-140.07C1635.82,-138.46 1917.49,-130.96 2150.5,-96 2153.31,-95.58 2156.19,-95.09 2159.08,-94.55"/>
<polygon fill="#63b8ff" stroke="#63b8ff" points="1519.72,-136.57 1509.76,-140.19 1519.81,-143.56 1519.72,-136.57"/>
</g>
<!-- Node5 -->
<g id="node5" class="node">
<title>Node5</title>
<g id="a_node5"><a xlink:href="Ioss__Compare_8C.html" target="_top" xlink:title=" ">
<polygon fill="white" stroke="#666666" points="107,-24.5 0,-24.5 0,-5.5 107,-5.5 107,-24.5"/>
<text text-anchor="middle" x="53.5" y="-12.5" font-family="Helvetica,sans-Serif" font-size="10.00">src/Ioss_Compare.C</text>
</a>
</g>
</g>
<!-- Node4&#45;&gt;Node5 -->
<g id="edge4" class="edge">
<title>Node4&#45;&gt;Node5</title>
<path fill="none" stroke="#63b8ff" d="M759.16,-68.83C753.23,-67.74 747.24,-66.76 741.5,-66 465.23,-29.4 391.46,-68.82 115.5,-30 106.65,-28.75 97.19,-26.9 88.4,-24.94"/>
<polygon fill="#63b8ff" stroke="#63b8ff" points="758.43,-72.25 768.92,-70.73 759.77,-65.38 758.43,-72.25"/>
</g>
<!-- Node6 -->
<g id="node6" class="node">
<title>Node6</title>
<g id="a_node6"><a xlink:href="Ioss__CopyDatabase_8C.html" target="_top" xlink:title=" ">
<polygon fill="white" stroke="#666666" points="258,-24.5 125,-24.5 125,-5.5 258,-5.5 258,-24.5"/>
<text text-anchor="middle" x="191.5" y="-12.5" font-family="Helvetica,sans-Serif" font-size="10.00">src/Ioss_CopyDatabase.C</text>
</a>
</g>
</g>
<!-- Node4&#45;&gt;Node6 -->
<g id="edge5" class="edge">
<title>Node4&#45;&gt;Node6</title>
<path fill="none" stroke="#63b8ff" d="M758.92,-68.89C753.07,-67.8 747.16,-66.8 741.5,-66 532.32,-36.33 477.02,-57.18 267.5,-30 257.12,-28.65 246.01,-26.83 235.58,-24.94"/>
<polygon fill="#63b8ff" stroke="#63b8ff" points="758.06,-72.29 768.55,-70.78 759.41,-65.42 758.06,-72.29"/>
</g>
<!-- Node7 -->
<g id="node7" class="node">
<title>Node7</title>
<g id="a_node7"><a xlink:href="Ioss__Utils_8C.html" target="_top" xlink:title=" ">
<polygon fill="white" stroke="#666666" points="364.5,-24.5 276.5,-24.5 276.5,-5.5 364.5,-5.5 364.5,-24.5"/>
<text text-anchor="middle" x="320.5" y="-12.5" font-family="Helvetica,sans-Serif" font-size="10.00">src/Ioss_Utils.C</text>
</a>
</g>
</g>
<!-- Node4&#45;&gt;Node7 -->
<g id="edge6" class="edge">
<title>Node4&#45;&gt;Node7</title>
<path fill="none" stroke="#63b8ff" d="M758.02,-68.84C752.46,-67.8 746.87,-66.82 741.5,-66 579.05,-41.16 535.24,-59.08 373.5,-30 366.19,-28.69 358.42,-26.87 351.14,-24.99"/>
<polygon fill="#63b8ff" stroke="#63b8ff" points="757.33,-72.27 767.82,-70.77 758.68,-65.41 757.33,-72.27"/>
</g>
<!-- Node8 -->
<g id="node8" class="node">
<title>Node8</title>
<g id="a_node8"><a xlink:href="Ut__ioad_8C.html" target="_top" xlink:title=" ">
<polygon fill="white" stroke="#666666" points="478,-30 383,-30 383,0 478,0 478,-30"/>
<text text-anchor="start" x="391" y="-18" font-family="Helvetica,sans-Serif" font-size="10.00">src/adios/utest/Ut</text>
<text text-anchor="middle" x="430.5" y="-7" font-family="Helvetica,sans-Serif" font-size="10.00">_ioad.C</text>
</a>
</g>
</g>
<!-- Node4&#45;&gt;Node8 -->
<g id="edge7" class="edge">
<title>Node4&#45;&gt;Node8</title>
<path fill="none" stroke="#63b8ff" d="M756.7,-68.82C751.57,-67.82 746.44,-66.86 741.5,-66 628.75,-46.28 598.84,-51.91 486.5,-30 483.84,-29.48 481.13,-28.92 478.39,-28.32"/>
<polygon fill="#63b8ff" stroke="#63b8ff" points="755.86,-72.22 766.35,-70.76 757.24,-65.36 755.86,-72.22"/>
</g>
<!-- Node9 -->
<g id="node9" class="node">
<title>Node9</title>
<g id="a_node9"><a xlink:href="Iocgns__DatabaseIO_8C.html" target="_top" xlink:title=" ">
<polygon fill="white" stroke="#666666" points="651,-24.5 496,-24.5 496,-5.5 651,-5.5 651,-24.5"/>
<text text-anchor="middle" x="573.5" y="-12.5" font-family="Helvetica,sans-Serif" font-size="10.00">src/cgns/Iocgns_DatabaseIO.C</text>
</a>
</g>
</g>
<!-- Node4&#45;&gt;Node9 -->
<g id="edge8" class="edge">
<title>Node4&#45;&gt;Node9</title>
<path fill="none" stroke="#63b8ff" d="M764.72,-68.08C718.77,-55.56 647.6,-36.18 606.28,-24.93"/>
<polygon fill="#63b8ff" stroke="#63b8ff" points="763.8,-71.45 774.36,-70.7 765.64,-64.7 763.8,-71.45"/>
</g>
<!-- Node10 -->
<g id="node10" class="node">
<title>Node10</title>
<g id="a_node10"><a xlink:href="Iofaodel__DatabaseIO_8C.html" target="_top" xlink:title=" ">
<polygon fill="white" stroke="#666666" points="766,-30 669,-30 669,0 766,0 766,-30"/>
<text text-anchor="start" x="677" y="-18" font-family="Helvetica,sans-Serif" font-size="10.00">src/faodel/Iofaodel</text>
<text text-anchor="middle" x="717.5" y="-7" font-family="Helvetica,sans-Serif" font-size="10.00">_DatabaseIO.C</text>
</a>
</g>
</g>
<!-- Node4&#45;&gt;Node10 -->
<g id="edge9" class="edge">
<title>Node4&#45;&gt;Node10</title>
<path fill="none" stroke="#63b8ff" d="M786.49,-64.52C771.76,-54.16 752.51,-40.62 738.09,-30.48"/>
<polygon fill="#63b8ff" stroke="#63b8ff" points="784.42,-67.34 794.61,-70.23 788.44,-61.61 784.42,-67.34"/>
</g>
<!-- Node11 -->
<g id="node11" class="node">
<title>Node11</title>
<g id="a_node11"><a xlink:href="io__shell_8C.html" target="_top" xlink:title=" ">
<polygon fill="white" stroke="#666666" points="885,-24.5 784,-24.5 784,-5.5 885,-5.5 885,-24.5"/>
<text text-anchor="middle" x="834.5" y="-12.5" font-family="Helvetica,sans-Serif" font-size="10.00">src/main/io_shell.C</text>
</a>
</g>
</g>
<!-- Node4&#45;&gt;Node11 -->
<g id="edge10" class="edge">
<title>Node4&#45;&gt;Node11</title>
<path fill="none" stroke="#63b8ff" d="M816.3,-60.8C821.15,-48.85 827.16,-34.06 830.92,-24.82"/>
<polygon fill="#63b8ff" stroke="#63b8ff" points="813.21,-59.12 812.68,-69.7 819.69,-61.75 813.21,-59.12"/>
</g>
<!-- Node12 -->
<g id="node12" class="node">
<title>Node12</title>
<g id="a_node12"><a xlink:href="io__shell__ts_8C.html" target="_top" xlink:title=" ">
<polygon fill="white" stroke="#666666" points="1017.5,-24.5 903.5,-24.5 903.5,-5.5 1017.5,-5.5 1017.5,-24.5"/>
<text text-anchor="middle" x="960.5" y="-12.5" font-family="Helvetica,sans-Serif" font-size="10.00">src/main/io_shell_ts.C</text>
</a>
</g>
</g>
<!-- Node4&#45;&gt;Node12 -->
<g id="edge11" class="edge">
<title>Node4&#45;&gt;Node12</title>
<path fill="none" stroke="#63b8ff" d="M839.92,-66.77C869.76,-54.21 913.77,-35.68 939.54,-24.82"/>
<polygon fill="#63b8ff" stroke="#63b8ff" points="838.89,-63.41 831.03,-70.51 841.6,-69.86 838.89,-63.41"/>
</g>
<!-- Node13 -->
<g id="node13" class="node">
<title>Node13</title>
<g id="a_node13"><a xlink:href="struc__to__unstruc_8C.html" target="_top" xlink:title=" ">
<polygon fill="white" stroke="#666666" points="1175.5,-24.5 1035.5,-24.5 1035.5,-5.5 1175.5,-5.5 1175.5,-24.5"/>
<text text-anchor="middle" x="1105.5" y="-12.5" font-family="Helvetica,sans-Serif" font-size="10.00">src/main/struc_to_unstruc.C</text>
</a>
</g>
</g>
<!-- Node4&#45;&gt;Node13 -->
<g id="edge12" class="edge">
<title>Node4&#45;&gt;Node13</title>
<path fill="none" stroke="#63b8ff" d="M861.23,-68.64C919.22,-56.14 1011.18,-36.33 1064.17,-24.91"/>
<polygon fill="#63b8ff" stroke="#63b8ff" points="860.63,-65.19 851.59,-70.71 862.1,-72.03 860.63,-65.19"/>
</g>
<!-- Node14 -->
<g id="node14" class="node">
<title>Node14</title>
<g id="a_node14"><a xlink:href="Iopg__DatabaseIO_8C.html" target="_top" xlink:title=" ">
<polygon fill="white" stroke="#666666" points="1351.5,-24.5 1193.5,-24.5 1193.5,-5.5 1351.5,-5.5 1351.5,-24.5"/>
<text text-anchor="middle" x="1272.5" y="-12.5" font-family="Helvetica,sans-Serif" font-size="10.00">src/pamgen/Iopg_DatabaseIO.C</text>
</a>
</g>
</g>
<!-- Node4&#45;&gt;Node14 -->
<g id="edge13" class="edge">
<title>Node4&#45;&gt;Node14</title>
<path fill="none" stroke="#63b8ff" d="M859.43,-68.86C864.84,-67.82 870.28,-66.85 875.5,-66 1011.97,-43.84 1047.53,-48.87 1184.5,-30 1195.53,-28.48 1207.32,-26.71 1218.57,-24.95"/>
<polygon fill="#63b8ff" stroke="#63b8ff" points="859.04,-65.37 849.91,-70.75 860.4,-72.24 859.04,-65.37"/>
</g>
<!-- Node15 -->
<g id="node15" class="node">
<title>Node15</title>
<g id="a_node15"><a xlink:href="Utst__heartbeat_8C.html" target="_top" xlink:title=" ">
<polygon fill="white" stroke="#666666" points="1503,-24.5 1370,-24.5 1370,-5.5 1503,-5.5 1503,-24.5"/>
<text text-anchor="middle" x="1436.5" y="-12.5" font-family="Helvetica,sans-Serif" font-size="10.00">src/utest/Utst_heartbeat.C</text>
</a>
</g>
</g>
<!-- Node4&#45;&gt;Node15 -->
<g id="edge14" class="edge">
<title>Node4&#45;&gt;Node15</title>
<path fill="none" stroke="#63b8ff" d="M858.08,-68.88C863.93,-67.79 869.84,-66.8 875.5,-66 1089.53,-35.83 1146.12,-57.62 1360.5,-30 1370.88,-28.66 1381.99,-26.84 1392.42,-24.95"/>
<polygon fill="#63b8ff" stroke="#63b8ff" points="857.59,-65.41 848.45,-70.77 858.94,-72.28 857.59,-65.41"/>
</g>
<!-- Node16 -->
<g id="node16" class="node">
<title>Node16</title>
<g id="a_node16"><a xlink:href="Iovs__exodus__DatabaseIO_8C.html" target="_top" xlink:title=" ">
<polygon fill="white" stroke="#666666" points="1664,-30 1521,-30 1521,0 1664,0 1664,-30"/>
<text text-anchor="start" x="1529" y="-18" font-family="Helvetica,sans-Serif" font-size="10.00">src/visualization/exodus</text>
<text text-anchor="middle" x="1592.5" y="-7" font-family="Helvetica,sans-Serif" font-size="10.00">/Iovs_exodus_DatabaseIO.C</text>
</a>
</g>
</g>
<!-- Node4&#45;&gt;Node16 -->
<g id="edge15" class="edge">
<title>Node4&#45;&gt;Node16</title>
<path fill="none" stroke="#63b8ff" d="M857.84,-68.82C863.77,-67.74 869.76,-66.76 875.5,-66 1156.18,-28.94 1230.21,-62.16 1511.5,-30 1514.48,-29.66 1517.51,-29.28 1520.57,-28.87"/>
<polygon fill="#63b8ff" stroke="#63b8ff" points="857.23,-65.37 848.08,-70.72 858.57,-72.25 857.23,-65.37"/>
</g>
<!-- Node24 -->
<g id="node24" class="node">
<title>Node24</title>
<g id="a_node24"><a xlink:href="io__info_8C.html" target="_top" xlink:title=" ">
<polygon fill="white" stroke="#666666" points="1829.5,-24.5 1733.5,-24.5 1733.5,-5.5 1829.5,-5.5 1829.5,-24.5"/>
<text text-anchor="middle" x="1781.5" y="-12.5" font-family="Helvetica,sans-Serif" font-size="10.00">src/main/io_info.C</text>
</a>
</g>
</g>
<!-- Node23&#45;&gt;Node24 -->
<g id="edge23" class="edge">
<title>Node23&#45;&gt;Node24</title>
<path fill="none" stroke="#63b8ff" d="M1798.85,-60.43C1794.21,-48.55 1788.52,-33.96 1784.95,-24.82"/>
<polygon fill="#63b8ff" stroke="#63b8ff" points="1795.57,-61.65 1802.47,-69.69 1802.09,-59.1 1795.57,-61.65"/>
</g>
<!-- Node25 -->
<g id="node25" class="node">
<title>Node25</title>
<g id="a_node25"><a xlink:href="io__info__main_8C.html" target="_top" xlink:title=" ">
<polygon fill="white" stroke="#666666" points="1969.5,-24.5 1847.5,-24.5 1847.5,-5.5 1969.5,-5.5 1969.5,-24.5"/>
<text text-anchor="middle" x="1908.5" y="-12.5" font-family="Helvetica,sans-Serif" font-size="10.00">src/main/io_info_main.C</text>
</a>
</g>
</g>
<!-- Node23&#45;&gt;Node25 -->
<g id="edge24" class="edge">
<title>Node23&#45;&gt;Node25</title>
<path fill="none" stroke="#63b8ff" d="M1830.28,-65.08C1850.17,-52.6 1877.9,-35.2 1894.44,-24.82"/>
<polygon fill="#63b8ff" stroke="#63b8ff" points="1828.58,-62.02 1821.96,-70.3 1832.3,-67.95 1828.58,-62.02"/>
</g>
</g>
</svg>
