<?xml version="1.0" encoding="UTF-8" standalone="no"?>
<!DOCTYPE svg PUBLIC "-//W3C//DTD SVG 1.1//EN"
 "http://www.w3.org/Graphics/SVG/1.1/DTD/svg11.dtd">
<!-- Generated by graphviz version 12.1.2 (20240928.0832)
 -->
<!-- Title: src/Ioss_CompositeVariableType.h Pages: 1 -->
<svg width="587pt" height="105pt"
 viewBox="0.00 0.00 587.38 105.00" xmlns="http://www.w3.org/2000/svg" xmlns:xlink="http://www.w3.org/1999/xlink">
<g id="graph0" class="graph" transform="scale(1 1) rotate(0) translate(4 101)">
<title>src/Ioss_CompositeVariableType.h</title>
<!-- Node1 -->
<g id="Node000001" class="node">
<title>Node1</title>
<g id="a_Node000001"><a xlink:title=" ">
<polygon fill="#999999" stroke="#666666" points="330.25,-97 192,-97 192,-66.5 330.25,-66.5 330.25,-97"/>
<text text-anchor="start" x="200" y="-83.5" font-family="Helvetica,sans-Serif" font-size="10.00">src/Ioss_CompositeVariable</text>
<text text-anchor="middle" x="261.12" y="-72.25" font-family="Helvetica,sans-Serif" font-size="10.00">Type.h</text>
</a>
</g>
</g>
<!-- Node2 -->
<g id="Node000002" class="node">
<title>Node2</title>
<g id="a_Node000002"><a xlink:href="Ioss__CompositeVariableType_8C.html" target="_top" xlink:title=" ">
<polygon fill="white" stroke="#666666" points="138.25,-30.5 0,-30.5 0,0 138.25,0 138.25,-30.5"/>
<text text-anchor="start" x="8" y="-17" font-family="Helvetica,sans-Serif" font-size="10.00">src/Ioss_CompositeVariable</text>
<text text-anchor="middle" x="69.12" y="-5.75" font-family="Helvetica,sans-Serif" font-size="10.00">Type.C</text>
</a>
</g>
</g>
<!-- Node1&#45;&gt;Node2 -->
<g id="edge1_Node000001_Node000002" class="edge">
<title>Node1&#45;&gt;Node2</title>
<g id="a_edge1_Node000001_Node000002"><a xlink:title=" ">
<path fill="none" stroke="#63b8ff" d="M206.93,-62.54C177.18,-52.55 140.77,-40.32 112.85,-30.94"/>
<polygon fill="#63b8ff" stroke="#63b8ff" points="205.53,-65.77 216.12,-65.63 207.76,-59.13 205.53,-65.77"/>
</a>
</g>
</g>
<!-- Node3 -->
<g id="Node000003" class="node">
<title>Node3</title>
<g id="a_Node000003"><a xlink:href="Ioss__Utils_8C.html" target="_top" xlink:title=" ">
<polygon fill="white" stroke="#666666" points="243.75,-24.88 156.5,-24.88 156.5,-5.63 243.75,-5.63 243.75,-24.88"/>
<text text-anchor="middle" x="200.12" y="-11.38" font-family="Helvetica,sans-Serif" font-size="10.00">src/Ioss_Utils.C</text>
</a>
</g>
</g>
<!-- Node1&#45;&gt;Node3 -->
<g id="edge2_Node000001_Node000003" class="edge">
<title>Node1&#45;&gt;Node3</title>
<g id="a_edge2_Node000001_Node000003"><a xlink:title=" ">
<path fill="none" stroke="#63b8ff" d="M239.49,-57.87C228.76,-46.53 216.43,-33.49 208.47,-25.07"/>
<polygon fill="#63b8ff" stroke="#63b8ff" points="236.83,-60.15 246.24,-65.01 241.91,-55.34 236.83,-60.15"/>
</a>
</g>
</g>
<!-- Node4 -->
<g id="Node000004" class="node">
<title>Node4</title>
<g id="a_Node000004"><a xlink:href="Ioss__VariableType_8C.html" target="_top" xlink:title=" ">
<polygon fill="white" stroke="#666666" points="384.38,-24.88 261.88,-24.88 261.88,-5.63 384.38,-5.63 384.38,-24.88"/>
<text text-anchor="middle" x="323.12" y="-11.38" font-family="Helvetica,sans-Serif" font-size="10.00">src/Ioss_VariableType.C</text>
</a>
</g>
</g>
<!-- Node1&#45;&gt;Node4 -->
<g id="edge3_Node000001_Node000004" class="edge">
<title>Node1&#45;&gt;Node4</title>
<g id="a_edge3_Node000001_Node000004"><a xlink:title=" ">
<path fill="none" stroke="#63b8ff" d="M283.11,-57.87C294.02,-46.53 306.55,-33.49 314.64,-25.07"/>
<polygon fill="#63b8ff" stroke="#63b8ff" points="280.65,-55.39 276.24,-65.02 285.7,-60.24 280.65,-55.39"/>
</a>
</g>
</g>
<!-- Node5 -->
<g id="Node000005" class="node">
<title>Node5</title>
<g id="a_Node000005"><a xlink:href="Ioex__BaseDatabaseIO_8C.html" target="_top" xlink:title=" ">
<polygon fill="white" stroke="#666666" points="579.38,-24.88 402.88,-24.88 402.88,-5.63 579.38,-5.63 579.38,-24.88"/>
<text text-anchor="middle" x="491.12" y="-11.38" font-family="Helvetica,sans-Serif" font-size="10.00">src/exodus/Ioex_BaseDatabaseIO.C</text>
</a>
</g>
</g>
<!-- Node1&#45;&gt;Node5 -->
<g id="edge4_Node000001_Node000005" class="edge">
<title>Node1&#45;&gt;Node5</title>
<g id="a_edge4_Node000001_Node000005"><a xlink:title=" ">
<path fill="none" stroke="#63b8ff" d="M324.66,-62.93C368.18,-50.73 424.07,-35.05 458.74,-25.33"/>
<polygon fill="#63b8ff" stroke="#63b8ff" points="323.74,-59.55 315.06,-65.62 325.63,-66.29 323.74,-59.55"/>
</a>
</g>
</g>
</g>
</svg>
