<?xml version="1.0" encoding="UTF-8" standalone="no"?>
<!DOCTYPE svg PUBLIC "-//W3C//DTD SVG 1.1//EN"
 "http://www.w3.org/Graphics/SVG/1.1/DTD/svg11.dtd">
<!-- Generated by graphviz version 2.46.1 (20210213.1702)
 -->
<!-- Title: src/Ioss_ZoneConnectivity.h Pages: 1 -->
<!--zoomable 352 -->
<svg id="main" version="1.1" xmlns="http://www.w3.org/2000/svg" xmlns:xlink="http://www.w3.org/1999/xlink" xml:space="preserve" onload="init(evt)">
<style type="text/css"><![CDATA[
.edge:hover path { stroke: red; }
.edge:hover polygon { stroke: red; fill: red; }
]]></style>
<script type="text/javascript"><![CDATA[
var edges = document.getElementsByTagName('g');
if (edges && edges.length) {
  for (var i=0;i<edges.length;i++) {
    if (edges[i].id.substr(0,4)=='edge') {
      edges[i].setAttribute('class','edge');
    }
  }
}
]]></script>
        <defs>
                <circle id="rim" cx="0" cy="0" r="7"/>
                <circle id="rim2" cx="0" cy="0" r="3.5"/>
                <g id="zoomPlus">
                        <use xlink:href="#rim" fill="#404040">
                                <set attributeName="fill" to="#808080" begin="zoomplus.mouseover" end="zoomplus.mouseout"/>
                        </use>
                        <path d="M-4,0h8M0,-4v8" fill="none" stroke="white" stroke-width="1.5" pointer-events="none"/>
                </g>
                <g id="zoomMin">
                        <use xlink:href="#rim" fill="#404040">
                                <set attributeName="fill" to="#808080" begin="zoomminus.mouseover" end="zoomminus.mouseout"/>
                        </use>
                        <path d="M-4,0h8" fill="none" stroke="white" stroke-width="1.5" pointer-events="none"/>
                </g>
                <g id="dirArrow">
                        <path fill="none" stroke="white" stroke-width="1.5" d="M0,-3.0v7 M-2.5,-0.5L0,-3.0L2.5,-0.5"/>
                </g>
               <g id="resetDef">
                       <use xlink:href="#rim2" fill="#404040">
                               <set attributeName="fill" to="#808080" begin="reset.mouseover" end="reset.mouseout"/>
                       </use>
               </g>
        </defs>

<script type="text/javascript">
var viewWidth = 2916;
var viewHeight = 352;
var sectionId = 'dynsection-1';
</script>
<script xlink:href="svgpan.js"/>
<svg id="graph" class="graph">
<g id="viewport">
<title>src/Ioss_ZoneConnectivity.h</title>
<polygon fill="white" stroke="transparent" points="-4,4 -4,-348 2911.94,-348 2911.94,4 -4,4"/>
<!-- Node1 -->
<g id="node1" class="node">
<title>Node1</title>
<g id="a_node1"><a xlink:title=" ">
<polygon fill="#bfbfbf" stroke="black" points="2181.5,-324.5 2181.5,-343.5 2321.5,-343.5 2321.5,-324.5 2181.5,-324.5"/>
<text text-anchor="middle" x="2251.5" y="-331.5" font-family="Helvetica,sans-Serif" font-size="10.00">src/Ioss_ZoneConnectivity.h</text>
</a>
</g>
</g>
<!-- Node2 -->
<g id="node2" class="node">
<title>Node2</title>
<g id="a_node2"><a xlink:href="Ioss__StructuredBlock_8h.html" target="_top" xlink:title=" ">
<polygon fill="white" stroke="black" points="1208,-268.5 1208,-287.5 1343,-287.5 1343,-268.5 1208,-268.5"/>
<text text-anchor="middle" x="1275.5" y="-275.5" font-family="Helvetica,sans-Serif" font-size="10.00">src/Ioss_StructuredBlock.h</text>
</a>
</g>
</g>
<!-- Node1&#45;&gt;Node2 -->
<g id="edge1" class="edge">
<title>Node1&#45;&gt;Node2</title>
<path fill="none" stroke="midnightblue" d="M2171.22,-328.56C1983.34,-318.16 1517.75,-292.4 1343.11,-282.74"/>
<polygon fill="midnightblue" stroke="midnightblue" points="2171.13,-332.06 2181.31,-329.12 2171.52,-325.07 2171.13,-332.06"/>
</g>
<!-- Node10 -->
<g id="node10" class="node">
<title>Node10</title>
<g id="a_node10"><a xlink:href="cgns__decomp_8C.html" target="_top" xlink:title=" ">
<polygon fill="white" stroke="black" points="2124.5,-140 2124.5,-159 2252.5,-159 2252.5,-140 2124.5,-140"/>
<text text-anchor="middle" x="2188.5" y="-147" font-family="Helvetica,sans-Serif" font-size="10.00">src/main/cgns_decomp.C</text>
</a>
</g>
</g>
<!-- Node1&#45;&gt;Node10 -->
<g id="edge53" class="edge">
<title>Node1&#45;&gt;Node10</title>
<path fill="none" stroke="midnightblue" d="M2247.31,-314.6C2241.18,-288.77 2228.82,-240.51 2213.5,-201 2207.63,-185.86 2198.86,-169.12 2193.42,-159.22"/>
<polygon fill="midnightblue" stroke="midnightblue" points="2243.94,-315.54 2249.61,-324.49 2250.75,-313.95 2243.94,-315.54"/>
</g>
<!-- Node12 -->
<g id="node12" class="node">
<title>Node12</title>
<g id="a_node12"><a xlink:href="Utst__structured__decomp_8C.html" target="_top" xlink:title=" ">
<polygon fill="white" stroke="black" points="2271,-134.5 2271,-164.5 2396,-164.5 2396,-134.5 2271,-134.5"/>
<text text-anchor="start" x="2279" y="-152.5" font-family="Helvetica,sans-Serif" font-size="10.00">src/utest/Utst_structured</text>
<text text-anchor="middle" x="2333.5" y="-141.5" font-family="Helvetica,sans-Serif" font-size="10.00">_decomp.C</text>
</a>
</g>
</g>
<!-- Node1&#45;&gt;Node12 -->
<g id="edge54" class="edge">
<title>Node1&#45;&gt;Node12</title>
<path fill="none" stroke="midnightblue" d="M2259.67,-314.83C2276,-278.48 2312.39,-197.49 2327.12,-164.69"/>
<polygon fill="midnightblue" stroke="midnightblue" points="2256.36,-313.64 2255.46,-324.2 2262.75,-316.51 2256.36,-313.64"/>
</g>
<!-- Node40 -->
<g id="node40" class="node">
<title>Node40</title>
<g id="a_node40"><a xlink:href="Ioss__ZoneConnectivity_8C.html" target="_top" xlink:title=" ">
<polygon fill="white" stroke="black" points="2299,-268.5 2299,-287.5 2442,-287.5 2442,-268.5 2299,-268.5"/>
<text text-anchor="middle" x="2370.5" y="-275.5" font-family="Helvetica,sans-Serif" font-size="10.00">src/Ioss_ZoneConnectivity.C</text>
</a>
</g>
</g>
<!-- Node1&#45;&gt;Node40 -->
<g id="edge52" class="edge">
<title>Node1&#45;&gt;Node40</title>
<path fill="none" stroke="midnightblue" d="M2279.64,-320.23C2301.9,-310.13 2332.36,-296.31 2351.73,-287.52"/>
<polygon fill="midnightblue" stroke="midnightblue" points="2278.02,-317.12 2270.36,-324.44 2280.91,-323.5 2278.02,-317.12"/>
</g>
<!-- Node3 -->
<g id="node3" class="node">
<title>Node3</title>
<g id="a_node3"><a xlink:href="Iocgns__DecompositionData_8C.html" target="_top" xlink:title=" ">
<polygon fill="white" stroke="black" points="1442,-67.5 1442,-97.5 1599,-97.5 1599,-67.5 1442,-67.5"/>
<text text-anchor="start" x="1450" y="-85.5" font-family="Helvetica,sans-Serif" font-size="10.00">src/cgns/Iocgns_Decomposition</text>
<text text-anchor="middle" x="1520.5" y="-74.5" font-family="Helvetica,sans-Serif" font-size="10.00">Data.C</text>
</a>
</g>
</g>
<!-- Node2&#45;&gt;Node3 -->
<g id="edge2" class="edge">
<title>Node2&#45;&gt;Node3</title>
<path fill="none" stroke="midnightblue" d="M1304.17,-264.09C1321.76,-255.74 1344.49,-244.19 1363.5,-232 1403.99,-206.04 1413.55,-198.05 1448.5,-165 1471.69,-143.08 1495.64,-114.58 1509.24,-97.75"/>
<polygon fill="midnightblue" stroke="midnightblue" points="1302.56,-260.98 1294.98,-268.38 1305.52,-267.32 1302.56,-260.98"/>
</g>
<!-- Node4 -->
<g id="node4" class="node">
<title>Node4</title>
<g id="a_node4"><a xlink:href="Iocgns__DecompositionData_8h.html" target="_top" xlink:title=" ">
<polygon fill="white" stroke="black" points="1283,-134.5 1283,-164.5 1440,-164.5 1440,-134.5 1283,-134.5"/>
<text text-anchor="start" x="1291" y="-152.5" font-family="Helvetica,sans-Serif" font-size="10.00">src/cgns/Iocgns_Decomposition</text>
<text text-anchor="middle" x="1361.5" y="-141.5" font-family="Helvetica,sans-Serif" font-size="10.00">Data.h</text>
</a>
</g>
</g>
<!-- Node2&#45;&gt;Node4 -->
<g id="edge3" class="edge">
<title>Node2&#45;&gt;Node4</title>
<path fill="none" stroke="midnightblue" d="M1304.79,-263.69C1318.19,-256.2 1333.12,-245.59 1342.5,-232 1356.61,-211.55 1360.35,-182.06 1361.28,-164.73"/>
<polygon fill="midnightblue" stroke="midnightblue" points="1303.08,-260.64 1295.86,-268.39 1306.34,-266.84 1303.08,-260.64"/>
</g>
<!-- Node6 -->
<g id="node6" class="node">
<title>Node6</title>
<g id="a_node6"><a xlink:href="Iocgns__ParallelDatabaseIO_8C.html" target="_top" xlink:title=" ">
<polygon fill="white" stroke="black" points="2562.5,-0.5 2562.5,-30.5 2686.5,-30.5 2686.5,-0.5 2562.5,-0.5"/>
<text text-anchor="start" x="2570.5" y="-18.5" font-family="Helvetica,sans-Serif" font-size="10.00">src/cgns/Iocgns_Parallel</text>
<text text-anchor="middle" x="2624.5" y="-7.5" font-family="Helvetica,sans-Serif" font-size="10.00">DatabaseIO.C</text>
</a>
</g>
</g>
<!-- Node2&#45;&gt;Node6 -->
<g id="edge7" class="edge">
<title>Node2&#45;&gt;Node6</title>
<path fill="none" stroke="midnightblue" d="M1353.51,-276.5C1639.37,-274.43 2620.04,-264.96 2756.5,-232 2823.94,-215.71 2860.43,-223.65 2897.5,-165 2951.11,-80.17 2782.7,-40.21 2686.6,-24.71"/>
<polygon fill="midnightblue" stroke="midnightblue" points="1353.21,-273.01 1343.23,-276.58 1353.26,-280.01 1353.21,-273.01"/>
</g>
<!-- Node7 -->
<g id="node7" class="node">
<title>Node7</title>
<g id="a_node7"><a xlink:href="Iocgns__StructuredZoneData_8h.html" target="_top" xlink:title=" ">
<polygon fill="white" stroke="black" points="1575,-201.5 1575,-231.5 1712,-231.5 1712,-201.5 1575,-201.5"/>
<text text-anchor="start" x="1583" y="-219.5" font-family="Helvetica,sans-Serif" font-size="10.00">src/cgns/Iocgns_Structured</text>
<text text-anchor="middle" x="1643.5" y="-208.5" font-family="Helvetica,sans-Serif" font-size="10.00">ZoneData.h</text>
</a>
</g>
</g>
<!-- Node2&#45;&gt;Node7 -->
<g id="edge8" class="edge">
<title>Node2&#45;&gt;Node7</title>
<path fill="none" stroke="midnightblue" d="M1338.45,-266.82C1404.22,-256.19 1507.08,-239.56 1574.89,-228.59"/>
<polygon fill="midnightblue" stroke="midnightblue" points="1337.54,-263.42 1328.23,-268.48 1338.66,-270.33 1337.54,-263.42"/>
</g>
<!-- Node9 -->
<g id="node9" class="node">
<title>Node9</title>
<g id="a_node9"><a xlink:href="Iocgns__Utils_8C.html" target="_top" xlink:title=" ">
<polygon fill="white" stroke="black" points="1984.5,-140 1984.5,-159 2106.5,-159 2106.5,-140 1984.5,-140"/>
<text text-anchor="middle" x="2045.5" y="-147" font-family="Helvetica,sans-Serif" font-size="10.00">src/cgns/Iocgns_Utils.C</text>
</a>
</g>
</g>
<!-- Node2&#45;&gt;Node9 -->
<g id="edge18" class="edge">
<title>Node2&#45;&gt;Node9</title>
<path fill="none" stroke="midnightblue" d="M1353.04,-272.58C1442.2,-266.7 1592.72,-254.36 1720.5,-232 1831.66,-212.55 1960.98,-175.77 2017.11,-159.1"/>
<polygon fill="midnightblue" stroke="midnightblue" points="1352.76,-269.09 1343.01,-273.23 1353.22,-276.07 1352.76,-269.09"/>
</g>
<!-- Node16 -->
<g id="node16" class="node">
<title>Node16</title>
<g id="a_node16"><a xlink:href="Iocgns__Utils_8h.html" target="_top" xlink:title=" ">
<polygon fill="white" stroke="black" points="2084.5,-207 2084.5,-226 2204.5,-226 2204.5,-207 2084.5,-207"/>
<text text-anchor="middle" x="2144.5" y="-214" font-family="Helvetica,sans-Serif" font-size="10.00">src/cgns/Iocgns_Utils.h</text>
</a>
</g>
</g>
<!-- Node2&#45;&gt;Node16 -->
<g id="edge19" class="edge">
<title>Node2&#45;&gt;Node16</title>
<path fill="none" stroke="midnightblue" d="M1353.53,-271.66C1524.9,-259.92 1931.05,-232.11 2084.44,-221.61"/>
<polygon fill="midnightblue" stroke="midnightblue" points="1353.06,-268.18 1343.33,-272.36 1353.54,-275.16 1353.06,-268.18"/>
</g>
<!-- Node19 -->
<g id="node19" class="node">
<title>Node19</title>
<g id="a_node19"><a xlink:href="Iofaodel__FieldSerialization_8h.html" target="_top" xlink:title=" ">
<polygon fill="white" stroke="black" points="121.5,-201.5 121.5,-231.5 225.5,-231.5 225.5,-201.5 121.5,-201.5"/>
<text text-anchor="start" x="129.5" y="-219.5" font-family="Helvetica,sans-Serif" font-size="10.00">src/faodel/Iofaodel</text>
<text text-anchor="middle" x="173.5" y="-208.5" font-family="Helvetica,sans-Serif" font-size="10.00">_FieldSerialization.h</text>
</a>
</g>
</g>
<!-- Node2&#45;&gt;Node19 -->
<g id="edge28" class="edge">
<title>Node2&#45;&gt;Node19</title>
<path fill="none" stroke="midnightblue" d="M1197.65,-275.19C1032.24,-270.96 633.67,-258.68 300.5,-232 275.84,-230.03 248.56,-227.02 225.63,-224.26"/>
<polygon fill="midnightblue" stroke="midnightblue" points="1197.64,-278.69 1207.73,-275.45 1197.82,-271.7 1197.64,-278.69"/>
</g>
<!-- Node22 -->
<g id="node22" class="node">
<title>Node22</title>
<g id="a_node22"><a xlink:href="Iofaodel__PropertySerialization_8C.html" target="_top" xlink:title=" ">
<polygon fill="white" stroke="black" points="309.5,-201.5 309.5,-231.5 431.5,-231.5 431.5,-201.5 309.5,-201.5"/>
<text text-anchor="start" x="317.5" y="-219.5" font-family="Helvetica,sans-Serif" font-size="10.00">src/faodel/Iofaodel</text>
<text text-anchor="middle" x="370.5" y="-208.5" font-family="Helvetica,sans-Serif" font-size="10.00">_PropertySerialization.C</text>
</a>
</g>
</g>
<!-- Node2&#45;&gt;Node22 -->
<g id="edge31" class="edge">
<title>Node2&#45;&gt;Node22</title>
<path fill="none" stroke="midnightblue" d="M1197.46,-276.7C1049.3,-275.27 717.29,-267.92 440.5,-232 437.67,-231.63 434.78,-231.21 431.87,-230.76"/>
<polygon fill="midnightblue" stroke="midnightblue" points="1197.78,-280.2 1207.81,-276.79 1197.84,-273.2 1197.78,-280.2"/>
</g>
<!-- Node23 -->
<g id="node23" class="node">
<title>Node23</title>
<g id="a_node23"><a xlink:href="Iofaodel__Utils_8C.html" target="_top" xlink:title=" ">
<polygon fill="white" stroke="black" points="450,-201.5 450,-231.5 547,-231.5 547,-201.5 450,-201.5"/>
<text text-anchor="start" x="458" y="-219.5" font-family="Helvetica,sans-Serif" font-size="10.00">src/faodel/Iofaodel</text>
<text text-anchor="middle" x="498.5" y="-208.5" font-family="Helvetica,sans-Serif" font-size="10.00">_Utils.C</text>
</a>
</g>
</g>
<!-- Node2&#45;&gt;Node23 -->
<g id="edge32" class="edge">
<title>Node2&#45;&gt;Node23</title>
<path fill="none" stroke="midnightblue" d="M1197.59,-276.76C1065.11,-275.33 787.78,-267.84 556.5,-232 553.42,-231.52 550.27,-230.96 547.1,-230.33"/>
<polygon fill="midnightblue" stroke="midnightblue" points="1197.62,-280.26 1207.65,-276.86 1197.69,-273.26 1197.62,-280.26"/>
</g>
<!-- Node24 -->
<g id="node24" class="node">
<title>Node24</title>
<g id="a_node24"><a xlink:href="Iogs__DatabaseIO_8C.html" target="_top" xlink:title=" ">
<polygon fill="white" stroke="black" points="565.5,-201.5 565.5,-231.5 663.5,-231.5 663.5,-201.5 565.5,-201.5"/>
<text text-anchor="start" x="573.5" y="-219.5" font-family="Helvetica,sans-Serif" font-size="10.00">src/gen_struc/Iogs</text>
<text text-anchor="middle" x="614.5" y="-208.5" font-family="Helvetica,sans-Serif" font-size="10.00">_DatabaseIO.C</text>
</a>
</g>
</g>
<!-- Node2&#45;&gt;Node24 -->
<g id="edge33" class="edge">
<title>Node2&#45;&gt;Node24</title>
<path fill="none" stroke="midnightblue" d="M1197.54,-275.42C1082.14,-272.13 859.38,-262.11 672.5,-232 669.63,-231.54 666.7,-231 663.74,-230.42"/>
<polygon fill="midnightblue" stroke="midnightblue" points="1197.6,-278.92 1207.69,-275.7 1197.79,-271.93 1197.6,-278.92"/>
</g>
<!-- Node25 -->
<g id="node25" class="node">
<title>Node25</title>
<g id="a_node25"><a xlink:href="Ioss__DatabaseIO_8C.html" target="_top" xlink:title=" ">
<polygon fill="white" stroke="black" points="681.5,-207 681.5,-226 801.5,-226 801.5,-207 681.5,-207"/>
<text text-anchor="middle" x="741.5" y="-214" font-family="Helvetica,sans-Serif" font-size="10.00">src/Ioss_DatabaseIO.C</text>
</a>
</g>
</g>
<!-- Node2&#45;&gt;Node25 -->
<g id="edge34" class="edge">
<title>Node2&#45;&gt;Node25</title>
<path fill="none" stroke="midnightblue" d="M1197.7,-272.11C1105.09,-265.69 945.93,-252.72 810.5,-232 799.97,-230.39 788.63,-228.2 778.25,-226.01"/>
<polygon fill="midnightblue" stroke="midnightblue" points="1197.61,-275.62 1207.83,-272.81 1198.09,-268.63 1197.61,-275.62"/>
</g>
<!-- Node26 -->
<g id="node26" class="node">
<title>Node26</title>
<g id="a_node26"><a xlink:href="Ioss__Region_8C.html" target="_top" xlink:title=" ">
<polygon fill="white" stroke="black" points="819.5,-207 819.5,-226 917.5,-226 917.5,-207 819.5,-207"/>
<text text-anchor="middle" x="868.5" y="-214" font-family="Helvetica,sans-Serif" font-size="10.00">src/Ioss_Region.C</text>
</a>
</g>
</g>
<!-- Node2&#45;&gt;Node26 -->
<g id="edge35" class="edge">
<title>Node2&#45;&gt;Node26</title>
<path fill="none" stroke="midnightblue" d="M1197.7,-269.6C1126.7,-262.22 1019.05,-249.47 926.5,-232 917.83,-230.36 908.52,-228.21 899.96,-226.07"/>
<polygon fill="midnightblue" stroke="midnightblue" points="1197.6,-273.11 1207.9,-270.65 1198.31,-266.14 1197.6,-273.11"/>
</g>
<!-- Node27 -->
<g id="node27" class="node">
<title>Node27</title>
<g id="a_node27"><a xlink:href="Ioss__StructuredBlock_8C.html" target="_top" xlink:title=" ">
<polygon fill="white" stroke="black" points="936,-207 936,-226 1073,-226 1073,-207 936,-207"/>
<text text-anchor="middle" x="1004.5" y="-214" font-family="Helvetica,sans-Serif" font-size="10.00">src/Ioss_StructuredBlock.C</text>
</a>
</g>
</g>
<!-- Node2&#45;&gt;Node27 -->
<g id="edge36" class="edge">
<title>Node2&#45;&gt;Node27</title>
<path fill="none" stroke="midnightblue" d="M1226.9,-266.33C1174.35,-254.79 1091.62,-236.63 1043.26,-226.01"/>
<polygon fill="midnightblue" stroke="midnightblue" points="1226.15,-269.75 1236.67,-268.48 1227.66,-262.91 1226.15,-269.75"/>
</g>
<!-- Node28 -->
<g id="node28" class="node">
<title>Node28</title>
<g id="a_node28"><a xlink:href="Ioss__SubSystem_8h.html" target="_top" xlink:title=" ">
<polygon fill="white" stroke="black" points="1217.5,-207 1217.5,-226 1333.5,-226 1333.5,-207 1217.5,-207"/>
<text text-anchor="middle" x="1275.5" y="-214" font-family="Helvetica,sans-Serif" font-size="10.00">src/Ioss_SubSystem.h</text>
</a>
</g>
</g>
<!-- Node2&#45;&gt;Node28 -->
<g id="edge37" class="edge">
<title>Node2&#45;&gt;Node28</title>
<path fill="none" stroke="midnightblue" d="M1275.5,-258.32C1275.5,-247.5 1275.5,-234.4 1275.5,-226.01"/>
<polygon fill="midnightblue" stroke="midnightblue" points="1272,-258.48 1275.5,-268.48 1279,-258.48 1272,-258.48"/>
</g>
<!-- Node36 -->
<g id="node36" class="node">
<title>Node36</title>
<g id="a_node36"><a xlink:href="io__info_8h.html" target="_top" xlink:title=" ">
<polygon fill="white" stroke="black" points="2653.5,-207 2653.5,-226 2747.5,-226 2747.5,-207 2653.5,-207"/>
<text text-anchor="middle" x="2700.5" y="-214" font-family="Helvetica,sans-Serif" font-size="10.00">src/main/io_info.h</text>
</a>
</g>
</g>
<!-- Node2&#45;&gt;Node36 -->
<g id="edge48" class="edge">
<title>Node2&#45;&gt;Node36</title>
<path fill="none" stroke="midnightblue" d="M1353.38,-273.75C1613.29,-262.9 2446.17,-228.12 2653.45,-219.46"/>
<polygon fill="midnightblue" stroke="midnightblue" points="1353.12,-270.26 1343.27,-274.17 1353.41,-277.25 1353.12,-270.26"/>
</g>
<!-- Node39 -->
<g id="node39" class="node">
<title>Node39</title>
<g id="a_node39"><a xlink:href="io__modify_8C.html" target="_top" xlink:title=" ">
<polygon fill="white" stroke="black" points="1091.5,-207 1091.5,-226 1199.5,-226 1199.5,-207 1091.5,-207"/>
<text text-anchor="middle" x="1145.5" y="-214" font-family="Helvetica,sans-Serif" font-size="10.00">src/main/io_modify.C</text>
</a>
</g>
</g>
<!-- Node2&#45;&gt;Node39 -->
<g id="edge51" class="edge">
<title>Node2&#45;&gt;Node39</title>
<path fill="none" stroke="midnightblue" d="M1247.48,-264.17C1222.25,-252.63 1185.89,-235.99 1164.09,-226.01"/>
<polygon fill="midnightblue" stroke="midnightblue" points="1246.32,-267.5 1256.87,-268.48 1249.24,-261.13 1246.32,-267.5"/>
</g>
<!-- Node4&#45;&gt;Node3 -->
<g id="edge4" class="edge">
<title>Node4&#45;&gt;Node3</title>
<path fill="none" stroke="midnightblue" d="M1405.42,-130.54C1430.87,-120.14 1462.43,-107.24 1486.07,-97.58"/>
<polygon fill="midnightblue" stroke="midnightblue" points="1403.93,-127.37 1396,-134.4 1406.58,-133.85 1403.93,-127.37"/>
</g>
<!-- Node5 -->
<g id="node5" class="node">
<title>Node5</title>
<g id="a_node5"><a xlink:href="Iocgns__ParallelDatabaseIO_8h.html" target="_top" xlink:title=" ">
<polygon fill="white" stroke="black" points="1299.5,-67.5 1299.5,-97.5 1423.5,-97.5 1423.5,-67.5 1299.5,-67.5"/>
<text text-anchor="start" x="1307.5" y="-85.5" font-family="Helvetica,sans-Serif" font-size="10.00">src/cgns/Iocgns_Parallel</text>
<text text-anchor="middle" x="1361.5" y="-74.5" font-family="Helvetica,sans-Serif" font-size="10.00">DatabaseIO.h</text>
</a>
</g>
</g>
<!-- Node4&#45;&gt;Node5 -->
<g id="edge5" class="edge">
<title>Node4&#45;&gt;Node5</title>
<path fill="none" stroke="midnightblue" d="M1361.5,-124.11C1361.5,-115.15 1361.5,-105.32 1361.5,-97.58"/>
<polygon fill="midnightblue" stroke="midnightblue" points="1358,-124.4 1361.5,-134.4 1365,-124.4 1358,-124.4"/>
</g>
<!-- Node5&#45;&gt;Node6 -->
<g id="edge6" class="edge">
<title>Node5&#45;&gt;Node6</title>
<path fill="none" stroke="midnightblue" d="M1433.82,-67.01C1674.01,-39.33 2352.69,-22.5 2562.18,-17.83"/>
<polygon fill="midnightblue" stroke="midnightblue" points="1433.26,-63.55 1423.75,-68.2 1434.09,-70.5 1433.26,-63.55"/>
</g>
<!-- Node7&#45;&gt;Node4 -->
<g id="edge9" class="edge">
<title>Node7&#45;&gt;Node4</title>
<path fill="none" stroke="midnightblue" d="M1572.72,-199.19C1526.54,-188.54 1466.86,-174.78 1422.72,-164.61"/>
<polygon fill="midnightblue" stroke="midnightblue" points="1572.13,-202.64 1582.66,-201.48 1573.7,-195.82 1572.13,-202.64"/>
</g>
<!-- Node8 -->
<g id="node8" class="node">
<title>Node8</title>
<g id="a_node8"><a xlink:href="Iocgns__StructuredZoneData_8C.html" target="_top" xlink:title=" ">
<polygon fill="white" stroke="black" points="1497,-134.5 1497,-164.5 1634,-164.5 1634,-134.5 1497,-134.5"/>
<text text-anchor="start" x="1505" y="-152.5" font-family="Helvetica,sans-Serif" font-size="10.00">src/cgns/Iocgns_Structured</text>
<text text-anchor="middle" x="1565.5" y="-141.5" font-family="Helvetica,sans-Serif" font-size="10.00">ZoneData.C</text>
</a>
</g>
</g>
<!-- Node7&#45;&gt;Node8 -->
<g id="edge10" class="edge">
<title>Node7&#45;&gt;Node8</title>
<path fill="none" stroke="midnightblue" d="M1618.76,-194.88C1606.91,-185.01 1593.02,-173.43 1582.39,-164.58"/>
<polygon fill="midnightblue" stroke="midnightblue" points="1616.65,-197.68 1626.58,-201.4 1621.13,-192.31 1616.65,-197.68"/>
</g>
<!-- Node7&#45;&gt;Node9 -->
<g id="edge11" class="edge">
<title>Node7&#45;&gt;Node9</title>
<path fill="none" stroke="midnightblue" d="M1722.22,-204.62C1789.4,-195.07 1888.49,-180.33 1974.5,-165 1984.53,-163.21 1995.32,-161.1 2005.39,-159.06"/>
<polygon fill="midnightblue" stroke="midnightblue" points="1721.54,-201.18 1712.13,-206.05 1722.52,-208.11 1721.54,-201.18"/>
</g>
<!-- Node7&#45;&gt;Node10 -->
<g id="edge12" class="edge">
<title>Node7&#45;&gt;Node10</title>
<path fill="none" stroke="midnightblue" d="M1722.13,-209.25C1816.05,-201.3 1977.74,-186.01 2115.5,-165 2126.36,-163.34 2138.05,-161.19 2148.83,-159.05"/>
<polygon fill="midnightblue" stroke="midnightblue" points="1721.81,-205.77 1712.14,-210.1 1722.4,-212.74 1721.81,-205.77"/>
</g>
<!-- Node11 -->
<g id="node11" class="node">
<title>Node11</title>
<g id="a_node11"><a xlink:href="struc__to__unstruc_8C.html" target="_top" xlink:title=" ">
<polygon fill="white" stroke="black" points="1652.5,-140 1652.5,-159 1792.5,-159 1792.5,-140 1652.5,-140"/>
<text text-anchor="middle" x="1722.5" y="-147" font-family="Helvetica,sans-Serif" font-size="10.00">src/main/struc_to_unstruc.C</text>
</a>
</g>
</g>
<!-- Node7&#45;&gt;Node11 -->
<g id="edge13" class="edge">
<title>Node7&#45;&gt;Node11</title>
<path fill="none" stroke="midnightblue" d="M1668.41,-195.01C1683.07,-182.94 1700.86,-168.3 1711.93,-159.19"/>
<polygon fill="midnightblue" stroke="midnightblue" points="1666.14,-192.34 1660.64,-201.4 1670.59,-197.75 1666.14,-192.34"/>
</g>
<!-- Node7&#45;&gt;Node12 -->
<g id="edge14" class="edge">
<title>Node7&#45;&gt;Node12</title>
<path fill="none" stroke="midnightblue" d="M1722.39,-212.02C1840.2,-206.15 2068.85,-192.17 2261.5,-165 2264.53,-164.57 2267.63,-164.1 2270.75,-163.59"/>
<polygon fill="midnightblue" stroke="midnightblue" points="1722.2,-208.52 1712.38,-212.51 1722.54,-215.51 1722.2,-208.52"/>
</g>
<!-- Node13 -->
<g id="node13" class="node">
<title>Node13</title>
<g id="a_node13"><a xlink:href="Utst__structured__decomp_8h.html" target="_top" xlink:title=" ">
<polygon fill="white" stroke="black" points="1140,-134.5 1140,-164.5 1265,-164.5 1265,-134.5 1140,-134.5"/>
<text text-anchor="start" x="1148" y="-152.5" font-family="Helvetica,sans-Serif" font-size="10.00">src/utest/Utst_structured</text>
<text text-anchor="middle" x="1202.5" y="-141.5" font-family="Helvetica,sans-Serif" font-size="10.00">_decomp.h</text>
</a>
</g>
</g>
<!-- Node7&#45;&gt;Node13 -->
<g id="edge15" class="edge">
<title>Node7&#45;&gt;Node13</title>
<path fill="none" stroke="midnightblue" d="M1564.44,-206.24C1489.37,-197.08 1373.46,-182.01 1273.5,-165 1270.77,-164.54 1267.99,-164.04 1265.18,-163.53"/>
<polygon fill="midnightblue" stroke="midnightblue" points="1564.41,-209.76 1574.76,-207.49 1565.25,-202.81 1564.41,-209.76"/>
</g>
<!-- Node14 -->
<g id="node14" class="node">
<title>Node14</title>
<g id="a_node14"><a xlink:href="Utst__structured__decomp__herron_8C.html" target="_top" xlink:title=" ">
<polygon fill="white" stroke="black" points="1005,-67.5 1005,-97.5 1130,-97.5 1130,-67.5 1005,-67.5"/>
<text text-anchor="start" x="1013" y="-85.5" font-family="Helvetica,sans-Serif" font-size="10.00">src/utest/Utst_structured</text>
<text text-anchor="middle" x="1067.5" y="-74.5" font-family="Helvetica,sans-Serif" font-size="10.00">_decomp_herron.C</text>
</a>
</g>
</g>
<!-- Node13&#45;&gt;Node14 -->
<g id="edge16" class="edge">
<title>Node13&#45;&gt;Node14</title>
<path fill="none" stroke="midnightblue" d="M1164.06,-129.99C1142.66,-119.69 1116.45,-107.07 1096.74,-97.58"/>
<polygon fill="midnightblue" stroke="midnightblue" points="1162.68,-133.21 1173.21,-134.4 1165.72,-126.9 1162.68,-133.21"/>
</g>
<!-- Node15 -->
<g id="node15" class="node">
<title>Node15</title>
<g id="a_node15"><a xlink:href="Utst__structured__decomp__rocket_8C.html" target="_top" xlink:title=" ">
<polygon fill="white" stroke="black" points="1148,-67.5 1148,-97.5 1273,-97.5 1273,-67.5 1148,-67.5"/>
<text text-anchor="start" x="1156" y="-85.5" font-family="Helvetica,sans-Serif" font-size="10.00">src/utest/Utst_structured</text>
<text text-anchor="middle" x="1210.5" y="-74.5" font-family="Helvetica,sans-Serif" font-size="10.00">_decomp_rocket.C</text>
</a>
</g>
</g>
<!-- Node13&#45;&gt;Node15 -->
<g id="edge17" class="edge">
<title>Node13&#45;&gt;Node15</title>
<path fill="none" stroke="midnightblue" d="M1205.47,-124.4C1206.58,-115.37 1207.8,-105.41 1208.77,-97.58"/>
<polygon fill="midnightblue" stroke="midnightblue" points="1201.98,-124.04 1204.24,-134.4 1208.93,-124.9 1201.98,-124.04"/>
</g>
<!-- Node16&#45;&gt;Node3 -->
<g id="edge21" class="edge">
<title>Node16&#45;&gt;Node3</title>
<path fill="none" stroke="midnightblue" d="M2214.8,-214.59C2310.36,-211.08 2463.03,-195.97 2404.5,-134 2377.06,-104.94 1810.63,-89.77 1599.19,-85.1"/>
<polygon fill="midnightblue" stroke="midnightblue" points="2214.48,-211.1 2204.6,-214.93 2214.71,-218.1 2214.48,-211.1"/>
</g>
<!-- Node16&#45;&gt;Node6 -->
<g id="edge23" class="edge">
<title>Node16&#45;&gt;Node6</title>
<path fill="none" stroke="midnightblue" d="M2214.89,-212.52C2337.1,-206.66 2578.19,-191.82 2605.5,-165 2642.03,-129.12 2633.59,-60.52 2627.76,-30.81"/>
<polygon fill="midnightblue" stroke="midnightblue" points="2214.69,-209.02 2204.87,-212.99 2215.02,-216.02 2214.69,-209.02"/>
</g>
<!-- Node16&#45;&gt;Node9 -->
<g id="edge24" class="edge">
<title>Node16&#45;&gt;Node9</title>
<path fill="none" stroke="midnightblue" d="M2122.56,-201.09C2102.97,-188.24 2074.94,-169.83 2058.64,-159.13"/>
<polygon fill="midnightblue" stroke="midnightblue" points="2120.87,-204.17 2131.15,-206.73 2124.71,-198.32 2120.87,-204.17"/>
</g>
<!-- Node16&#45;&gt;Node10 -->
<g id="edge25" class="edge">
<title>Node16&#45;&gt;Node10</title>
<path fill="none" stroke="midnightblue" d="M2156.07,-198.4C2164.62,-185.77 2175.91,-169.1 2182.66,-159.13"/>
<polygon fill="midnightblue" stroke="midnightblue" points="2153.14,-196.49 2150.43,-206.73 2158.94,-200.41 2153.14,-196.49"/>
</g>
<!-- Node16&#45;&gt;Node11 -->
<g id="edge26" class="edge">
<title>Node16&#45;&gt;Node11</title>
<path fill="none" stroke="midnightblue" d="M2074.35,-205.91C2004.95,-196.25 1895.74,-180.58 1801.5,-165 1790.49,-163.18 1778.65,-161.08 1767.57,-159.06"/>
<polygon fill="midnightblue" stroke="midnightblue" points="2073.91,-209.38 2084.3,-207.29 2074.87,-202.45 2073.91,-209.38"/>
</g>
<!-- Node16&#45;&gt;Node12 -->
<g id="edge27" class="edge">
<title>Node16&#45;&gt;Node12</title>
<path fill="none" stroke="midnightblue" d="M2179.42,-203.49C2211.46,-192.47 2258.94,-176.14 2292.71,-164.53"/>
<polygon fill="midnightblue" stroke="midnightblue" points="2177.92,-200.31 2169.6,-206.87 2180.19,-206.93 2177.92,-200.31"/>
</g>
<!-- Node17 -->
<g id="node17" class="node">
<title>Node17</title>
<g id="a_node17"><a xlink:href="Iocgns__DatabaseIO_8C.html" target="_top" xlink:title=" ">
<polygon fill="white" stroke="black" points="1811,-140 1811,-159 1966,-159 1966,-140 1811,-140"/>
<text text-anchor="middle" x="1888.5" y="-147" font-family="Helvetica,sans-Serif" font-size="10.00">src/cgns/Iocgns_DatabaseIO.C</text>
</a>
</g>
</g>
<!-- Node16&#45;&gt;Node17 -->
<g id="edge20" class="edge">
<title>Node16&#45;&gt;Node17</title>
<path fill="none" stroke="midnightblue" d="M2100.8,-204.4C2050.27,-191.58 1968.2,-170.74 1922.31,-159.08"/>
<polygon fill="midnightblue" stroke="midnightblue" points="2100.22,-207.87 2110.77,-206.94 2101.94,-201.08 2100.22,-207.87"/>
</g>
<!-- Node18 -->
<g id="node18" class="node">
<title>Node18</title>
<g id="a_node18"><a xlink:href="Iocgns__IOFactory_8C.html" target="_top" xlink:title=" ">
<polygon fill="white" stroke="black" points="2452.5,-140 2452.5,-159 2596.5,-159 2596.5,-140 2452.5,-140"/>
<text text-anchor="middle" x="2524.5" y="-147" font-family="Helvetica,sans-Serif" font-size="10.00">src/cgns/Iocgns_IOFactory.C</text>
</a>
</g>
</g>
<!-- Node16&#45;&gt;Node18 -->
<g id="edge22" class="edge">
<title>Node16&#45;&gt;Node18</title>
<path fill="none" stroke="midnightblue" d="M2204.75,-205.19C2279.38,-192.43 2405.14,-170.92 2474.62,-159.03"/>
<polygon fill="midnightblue" stroke="midnightblue" points="2203.84,-201.8 2194.57,-206.94 2205.02,-208.7 2203.84,-201.8"/>
</g>
<!-- Node20 -->
<g id="node20" class="node">
<title>Node20</title>
<g id="a_node20"><a xlink:href="Iofaodel__DatabaseIO_8C.html" target="_top" xlink:title=" ">
<polygon fill="white" stroke="black" points="125,-134.5 125,-164.5 222,-164.5 222,-134.5 125,-134.5"/>
<text text-anchor="start" x="133" y="-152.5" font-family="Helvetica,sans-Serif" font-size="10.00">src/faodel/Iofaodel</text>
<text text-anchor="middle" x="173.5" y="-141.5" font-family="Helvetica,sans-Serif" font-size="10.00">_DatabaseIO.C</text>
</a>
</g>
</g>
<!-- Node19&#45;&gt;Node20 -->
<g id="edge29" class="edge">
<title>Node19&#45;&gt;Node20</title>
<path fill="none" stroke="midnightblue" d="M173.5,-191.11C173.5,-182.15 173.5,-172.32 173.5,-164.58"/>
<polygon fill="midnightblue" stroke="midnightblue" points="170,-191.4 173.5,-201.4 177,-191.4 170,-191.4"/>
</g>
<!-- Node21 -->
<g id="node21" class="node">
<title>Node21</title>
<g id="a_node21"><a xlink:href="Iofaodel__FieldSerialization_8C.html" target="_top" xlink:title=" ">
<polygon fill="white" stroke="black" points="0,-134.5 0,-164.5 107,-164.5 107,-134.5 0,-134.5"/>
<text text-anchor="start" x="8" y="-152.5" font-family="Helvetica,sans-Serif" font-size="10.00">src/faodel/Iofaodel</text>
<text text-anchor="middle" x="53.5" y="-141.5" font-family="Helvetica,sans-Serif" font-size="10.00">_FieldSerialization.C</text>
</a>
</g>
</g>
<!-- Node19&#45;&gt;Node21 -->
<g id="edge30" class="edge">
<title>Node19&#45;&gt;Node21</title>
<path fill="none" stroke="midnightblue" d="M138.56,-196.57C119.68,-186.35 96.77,-173.94 79.49,-164.58"/>
<polygon fill="midnightblue" stroke="midnightblue" points="137,-199.71 147.46,-201.4 140.34,-193.56 137,-199.71"/>
</g>
<!-- Node28&#45;&gt;Node11 -->
<g id="edge45" class="edge">
<title>Node28&#45;&gt;Node11</title>
<path fill="none" stroke="midnightblue" d="M1343.87,-206.98C1417.67,-197.57 1538.62,-181.55 1642.5,-165 1653.79,-163.2 1665.95,-161.09 1677.29,-159.04"/>
<polygon fill="midnightblue" stroke="midnightblue" points="1343.25,-203.53 1333.77,-208.26 1344.13,-210.47 1343.25,-203.53"/>
</g>
<!-- Node28&#45;&gt;Node17 -->
<g id="edge39" class="edge">
<title>Node28&#45;&gt;Node17</title>
<path fill="none" stroke="midnightblue" d="M1343.65,-210.48C1444.1,-202.73 1637.71,-186.49 1801.5,-165 1814.25,-163.33 1828,-161.19 1840.72,-159.08"/>
<polygon fill="midnightblue" stroke="midnightblue" points="1343.34,-206.99 1333.64,-211.25 1343.87,-213.97 1343.34,-206.99"/>
</g>
<!-- Node28&#45;&gt;Node20 -->
<g id="edge40" class="edge">
<title>Node28&#45;&gt;Node20</title>
<path fill="none" stroke="midnightblue" d="M1231.71,-204.87C1224.02,-203.33 1216.05,-201.95 1208.5,-201 776.93,-146.79 661.02,-226.97 230.5,-165 227.77,-164.61 224.98,-164.14 222.18,-163.61"/>
<polygon fill="midnightblue" stroke="midnightblue" points="1231.11,-208.32 1241.62,-206.95 1232.55,-201.47 1231.11,-208.32"/>
</g>
<!-- Node29 -->
<g id="node29" class="node">
<title>Node29</title>
<g id="a_node29"><a xlink:href="Ut__ioad_8C.html" target="_top" xlink:title=" ">
<polygon fill="white" stroke="black" points="1027,-134.5 1027,-164.5 1122,-164.5 1122,-134.5 1027,-134.5"/>
<text text-anchor="start" x="1035" y="-152.5" font-family="Helvetica,sans-Serif" font-size="10.00">src/adios/utest/Ut</text>
<text text-anchor="middle" x="1074.5" y="-141.5" font-family="Helvetica,sans-Serif" font-size="10.00">_ioad.C</text>
</a>
</g>
</g>
<!-- Node28&#45;&gt;Node29 -->
<g id="edge38" class="edge">
<title>Node28&#45;&gt;Node29</title>
<path fill="none" stroke="midnightblue" d="M1239.24,-203.77C1205.16,-192.75 1154.11,-176.24 1117.88,-164.53"/>
<polygon fill="midnightblue" stroke="midnightblue" points="1238.22,-207.12 1248.81,-206.87 1240.37,-200.46 1238.22,-207.12"/>
</g>
<!-- Node30 -->
<g id="node30" class="node">
<title>Node30</title>
<g id="a_node30"><a xlink:href="Ioss__Compare_8C.html" target="_top" xlink:title=" ">
<polygon fill="white" stroke="black" points="240,-140 240,-159 347,-159 347,-140 240,-140"/>
<text text-anchor="middle" x="293.5" y="-147" font-family="Helvetica,sans-Serif" font-size="10.00">src/Ioss_Compare.C</text>
</a>
</g>
</g>
<!-- Node28&#45;&gt;Node30 -->
<g id="edge41" class="edge">
<title>Node28&#45;&gt;Node30</title>
<path fill="none" stroke="midnightblue" d="M1231.71,-204.9C1224.01,-203.36 1216.05,-201.97 1208.5,-201 832.58,-152.74 732.1,-215.72 356.5,-165 346.27,-163.62 335.25,-161.36 325.34,-159.03"/>
<polygon fill="midnightblue" stroke="midnightblue" points="1231.1,-208.35 1241.61,-206.99 1232.55,-201.5 1231.1,-208.35"/>
</g>
<!-- Node31 -->
<g id="node31" class="node">
<title>Node31</title>
<g id="a_node31"><a xlink:href="Ioss__Utils_8C.html" target="_top" xlink:title=" ">
<polygon fill="white" stroke="black" points="365.5,-140 365.5,-159 453.5,-159 453.5,-140 365.5,-140"/>
<text text-anchor="middle" x="409.5" y="-147" font-family="Helvetica,sans-Serif" font-size="10.00">src/Ioss_Utils.C</text>
</a>
</g>
</g>
<!-- Node28&#45;&gt;Node31 -->
<g id="edge42" class="edge">
<title>Node28&#45;&gt;Node31</title>
<path fill="none" stroke="midnightblue" d="M1231.45,-204.89C1223.83,-203.36 1215.97,-201.98 1208.5,-201 879.39,-157.75 790.33,-217.11 462.5,-165 453.83,-163.62 444.55,-161.36 436.21,-159.03"/>
<polygon fill="midnightblue" stroke="midnightblue" points="1230.75,-208.32 1241.26,-206.95 1232.2,-201.47 1230.75,-208.32"/>
</g>
<!-- Node32 -->
<g id="node32" class="node">
<title>Node32</title>
<g id="a_node32"><a xlink:href="io__shell_8C.html" target="_top" xlink:title=" ">
<polygon fill="white" stroke="black" points="472,-140 472,-159 573,-159 573,-140 472,-140"/>
<text text-anchor="middle" x="522.5" y="-147" font-family="Helvetica,sans-Serif" font-size="10.00">src/main/io_shell.C</text>
</a>
</g>
</g>
<!-- Node28&#45;&gt;Node32 -->
<g id="edge43" class="edge">
<title>Node28&#45;&gt;Node32</title>
<path fill="none" stroke="midnightblue" d="M1230.94,-204.85C1223.48,-203.35 1215.8,-201.99 1208.5,-201 932.36,-163.41 858.16,-205.9 582.5,-165 572.85,-163.57 562.48,-161.32 553.12,-159.02"/>
<polygon fill="midnightblue" stroke="midnightblue" points="1230.4,-208.31 1240.91,-206.94 1231.84,-201.46 1230.4,-208.31"/>
</g>
<!-- Node33 -->
<g id="node33" class="node">
<title>Node33</title>
<g id="a_node33"><a xlink:href="io__shell__ts_8C.html" target="_top" xlink:title=" ">
<polygon fill="white" stroke="black" points="591.5,-140 591.5,-159 705.5,-159 705.5,-140 591.5,-140"/>
<text text-anchor="middle" x="648.5" y="-147" font-family="Helvetica,sans-Serif" font-size="10.00">src/main/io_shell_ts.C</text>
</a>
</g>
</g>
<!-- Node28&#45;&gt;Node33 -->
<g id="edge44" class="edge">
<title>Node28&#45;&gt;Node33</title>
<path fill="none" stroke="midnightblue" d="M1230.68,-204.89C1223.3,-203.41 1215.71,-202.04 1208.5,-201 990.61,-169.64 932.34,-196.7 714.5,-165 704.17,-163.5 693.04,-161.29 682.92,-159.04"/>
<polygon fill="midnightblue" stroke="midnightblue" points="1230.04,-208.33 1240.55,-206.97 1231.48,-201.48 1230.04,-208.33"/>
</g>
<!-- Node34 -->
<g id="node34" class="node">
<title>Node34</title>
<g id="a_node34"><a xlink:href="Iopg__DatabaseIO_8C.html" target="_top" xlink:title=" ">
<polygon fill="white" stroke="black" points="723.5,-140 723.5,-159 881.5,-159 881.5,-140 723.5,-140"/>
<text text-anchor="middle" x="802.5" y="-147" font-family="Helvetica,sans-Serif" font-size="10.00">src/pamgen/Iopg_DatabaseIO.C</text>
</a>
</g>
</g>
<!-- Node28&#45;&gt;Node34 -->
<g id="edge46" class="edge">
<title>Node28&#45;&gt;Node34</title>
<path fill="none" stroke="midnightblue" d="M1229.16,-204.84C1222.26,-203.43 1215.21,-202.1 1208.5,-201 1068.15,-177.93 1031.38,-184.57 890.5,-165 877.92,-163.25 864.38,-161.14 851.77,-159.07"/>
<polygon fill="midnightblue" stroke="midnightblue" points="1228.61,-208.3 1239.12,-206.93 1230.05,-201.45 1228.61,-208.3"/>
</g>
<!-- Node35 -->
<g id="node35" class="node">
<title>Node35</title>
<g id="a_node35"><a xlink:href="Iovs__DatabaseIO_8C.html" target="_top" xlink:title=" ">
<polygon fill="white" stroke="black" points="900,-134.5 900,-164.5 1009,-164.5 1009,-134.5 900,-134.5"/>
<text text-anchor="start" x="908" y="-152.5" font-family="Helvetica,sans-Serif" font-size="10.00">src/visualization/Iovs</text>
<text text-anchor="middle" x="954.5" y="-141.5" font-family="Helvetica,sans-Serif" font-size="10.00">_DatabaseIO.C</text>
</a>
</g>
</g>
<!-- Node28&#45;&gt;Node35 -->
<g id="edge47" class="edge">
<title>Node28&#45;&gt;Node35</title>
<path fill="none" stroke="midnightblue" d="M1226.72,-204.78C1220.59,-203.48 1214.4,-202.19 1208.5,-201 1123.83,-183.86 1102.05,-182.69 1017.5,-165 1014.75,-164.43 1011.94,-163.82 1009.11,-163.21"/>
<polygon fill="midnightblue" stroke="midnightblue" points="1226.41,-208.3 1236.92,-206.97 1227.87,-201.45 1226.41,-208.3"/>
</g>
<!-- Node37 -->
<g id="node37" class="node">
<title>Node37</title>
<g id="a_node37"><a xlink:href="io__info_8C.html" target="_top" xlink:title=" ">
<polygon fill="white" stroke="black" points="2652.5,-140 2652.5,-159 2748.5,-159 2748.5,-140 2652.5,-140"/>
<text text-anchor="middle" x="2700.5" y="-147" font-family="Helvetica,sans-Serif" font-size="10.00">src/main/io_info.C</text>
</a>
</g>
</g>
<!-- Node36&#45;&gt;Node37 -->
<g id="edge49" class="edge">
<title>Node36&#45;&gt;Node37</title>
<path fill="none" stroke="midnightblue" d="M2700.5,-196.54C2700.5,-184.17 2700.5,-168.62 2700.5,-159.13"/>
<polygon fill="midnightblue" stroke="midnightblue" points="2697,-196.73 2700.5,-206.73 2704,-196.73 2697,-196.73"/>
</g>
<!-- Node38 -->
<g id="node38" class="node">
<title>Node38</title>
<g id="a_node38"><a xlink:href="io__info__main_8C.html" target="_top" xlink:title=" ">
<polygon fill="white" stroke="black" points="2766.5,-140 2766.5,-159 2888.5,-159 2888.5,-140 2766.5,-140"/>
<text text-anchor="middle" x="2827.5" y="-147" font-family="Helvetica,sans-Serif" font-size="10.00">src/main/io_info_main.C</text>
</a>
</g>
</g>
<!-- Node36&#45;&gt;Node38 -->
<g id="edge50" class="edge">
<title>Node36&#45;&gt;Node38</title>
<path fill="none" stroke="midnightblue" d="M2726.34,-202.27C2751.5,-189.4 2788.99,-170.21 2810.57,-159.17"/>
<polygon fill="midnightblue" stroke="midnightblue" points="2724.67,-199.2 2717.36,-206.87 2727.86,-205.43 2724.67,-199.2"/>
</g>
</g>
</svg>
        <g id="navigator" transform="translate(0 0)" fill="#404254">
                <rect fill="#f2f5e9" fill-opacity="0.5" stroke="#606060" stroke-width=".5" x="0" y="0" width="60" height="60"/>
                <use id="zoomplus" xlink:href="#zoomPlus" x="17" y="9" onmousedown="handleZoom(evt,'in')"/>
                <use id="zoomminus" xlink:href="#zoomMin" x="42" y="9" onmousedown="handleZoom(evt,'out')"/>
                <use id="reset" xlink:href="#resetDef" x="30" y="36" onmousedown="handleReset()"/>
                <g id="arrowUp" xlink:href="#dirArrow" transform="translate(30 24)" onmousedown="handlePan(0,-1)">
                  <use xlink:href="#rim" fill="#404040">
                        <set attributeName="fill" to="#808080" begin="arrowUp.mouseover" end="arrowUp.mouseout"/>
                  </use>
                  <path fill="none" stroke="white" stroke-width="1.5" d="M0,-3.0v7 M-2.5,-0.5L0,-3.0L2.5,-0.5"/>
                </g>
                <g id="arrowRight" xlink:href="#dirArrow" transform="rotate(90) translate(36 -43)" onmousedown="handlePan(1,0)">
                  <use xlink:href="#rim" fill="#404040">
                        <set attributeName="fill" to="#808080" begin="arrowRight.mouseover" end="arrowRight.mouseout"/>
                  </use>
                  <path fill="none" stroke="white" stroke-width="1.5" d="M0,-3.0v7 M-2.5,-0.5L0,-3.0L2.5,-0.5"/>
                </g>
                <g id="arrowDown" xlink:href="#dirArrow" transform="rotate(180) translate(-30 -48)" onmousedown="handlePan(0,1)">
                  <use xlink:href="#rim" fill="#404040">
                        <set attributeName="fill" to="#808080" begin="arrowDown.mouseover" end="arrowDown.mouseout"/>
                  </use>
                  <path fill="none" stroke="white" stroke-width="1.5" d="M0,-3.0v7 M-2.5,-0.5L0,-3.0L2.5,-0.5"/>
                </g>
                <g id="arrowLeft" xlink:href="#dirArrow" transform="rotate(270) translate(-36 17)" onmousedown="handlePan(-1,0)">
                  <use xlink:href="#rim" fill="#404040">
                        <set attributeName="fill" to="#808080" begin="arrowLeft.mouseover" end="arrowLeft.mouseout"/>
                  </use>
                  <path fill="none" stroke="white" stroke-width="1.5" d="M0,-3.0v7 M-2.5,-0.5L0,-3.0L2.5,-0.5"/>
                </g>
        </g>
        <svg viewBox="0 0 15 15" width="100%" height="30px" preserveAspectRatio="xMaxYMin meet">
         <g id="arrow_out" transform="scale(0.3 0.3)">
          <a xlink:href="Ioss__ZoneConnectivity_8h__dep__incl_org.svg" target="_base">
           <rect id="button" ry="5" rx="5" y="6" x="6" height="38" width="38"
                fill="#f2f5e9" fill-opacity="0.5" stroke="#606060" stroke-width="1.0"/>
           <path id="arrow"
             d="M 11.500037,31.436501 C 11.940474,20.09759 22.043105,11.32322 32.158766,21.979434 L 37.068811,17.246167 C 37.068811,17.246167 37.088388,32 37.088388,32 L 22.160133,31.978069 C 22.160133,31.978069 26.997745,27.140456 26.997745,27.140456 C 18.528582,18.264221 13.291696,25.230495 11.500037,31.436501 z"
             style="fill:#404040;"/>
          </a>
         </g>
        </svg>
</svg>
