<?xml version="1.0" encoding="UTF-8" standalone="no"?>
<!DOCTYPE svg PUBLIC "-//W3C//DTD SVG 1.1//EN"
 "http://www.w3.org/Graphics/SVG/1.1/DTD/svg11.dtd">
<!-- Generated by graphviz version 12.2.1 (20241206.2353)
 -->
<!-- Title: src/Ioss_CoordinateFrame.C Pages: 1 -->
<svg width="1527pt" height="304pt"
 viewBox="0.00 0.00 1527.14 303.50" xmlns="http://www.w3.org/2000/svg" xmlns:xlink="http://www.w3.org/1999/xlink">
<g id="graph0" class="graph" transform="scale(1 1) rotate(0) translate(4 299.5)">
<title>src/Ioss_CoordinateFrame.C</title>
<!-- Node1 -->
<g id="Node000001" class="node">
<title>Node1</title>
<g id="a_Node000001"><a xlink:title=" ">
<polygon fill="#999999" stroke="#666666" points="992.27,-295.5 850.27,-295.5 850.27,-276.25 992.27,-276.25 992.27,-295.5"/>
<text text-anchor="middle" x="921.27" y="-282" font-family="Helvetica,sans-Serif" font-size="10.00">src/Ioss_CoordinateFrame.C</text>
</a>
</g>
</g>
<!-- Node2 -->
<g id="Node000002" class="node">
<title>Node2</title>
<g id="a_Node000002"><a xlink:href="Ioss__CoordinateFrame_8h.html" target="_top" xlink:title=" ">
<polygon fill="white" stroke="#666666" points="685.89,-129.75 562.64,-129.75 562.64,-110.5 685.89,-110.5 685.89,-129.75"/>
<text text-anchor="middle" x="624.27" y="-116.25" font-family="Helvetica,sans-Serif" font-size="10.00">Ioss_CoordinateFrame.h</text>
</a>
</g>
</g>
<!-- Node1&#45;&gt;Node2 -->
<g id="edge1_Node000001_Node000002" class="edge">
<title>Node1&#45;&gt;Node2</title>
<g id="a_edge1_Node000001_Node000002"><a xlink:title=" ">
<path fill="none" stroke="#63b8ff" d="M895.25,-275.79C852.71,-260.35 766.37,-226.6 700.27,-185 678.28,-171.16 655.84,-151.48 641.1,-137.63"/>
<polygon fill="#63b8ff" stroke="#63b8ff" points="643.73,-135.3 634.08,-130.91 638.88,-140.35 643.73,-135.3"/>
</a>
</g>
</g>
<!-- Node12 -->
<g id="Node000012" class="node">
<title>Node12</title>
<g id="a_Node000012"><a xlink:href="Ioss__Utils_8h.html" target="_top" xlink:title=" ">
<polygon fill="white" stroke="#666666" points="955.52,-240.25 887.02,-240.25 887.02,-221 955.52,-221 955.52,-240.25"/>
<text text-anchor="middle" x="921.27" y="-226.75" font-family="Helvetica,sans-Serif" font-size="10.00">Ioss_Utils.h</text>
</a>
</g>
</g>
<!-- Node1&#45;&gt;Node12 -->
<g id="edge13_Node000001_Node000012" class="edge">
<title>Node1&#45;&gt;Node12</title>
<g id="a_edge13_Node000001_Node000012"><a xlink:title=" ">
<path fill="none" stroke="#63b8ff" d="M921.27,-276.08C921.27,-269.57 921.27,-260.42 921.27,-252.12"/>
<polygon fill="#63b8ff" stroke="#63b8ff" points="924.77,-252.12 921.27,-242.12 917.77,-252.12 924.77,-252.12"/>
</a>
</g>
</g>
<!-- Node35 -->
<g id="Node000035" class="node">
<title>Node35</title>
<g id="a_Node000035"><a xlink:title=" ">
<polygon fill="#e0e0e0" stroke="#999999" points="1050.64,-240.25 973.89,-240.25 973.89,-221 1050.64,-221 1050.64,-240.25"/>
<text text-anchor="middle" x="1012.27" y="-226.75" font-family="Helvetica,sans-Serif" font-size="10.00">fmt/ostream.h</text>
</a>
</g>
</g>
<!-- Node1&#45;&gt;Node35 -->
<g id="edge66_Node000001_Node000035" class="edge">
<title>Node1&#45;&gt;Node35</title>
<g id="a_edge66_Node000001_Node000035"><a xlink:title=" ">
<path fill="none" stroke="#63b8ff" d="M936.7,-275.84C950.43,-267.81 970.76,-255.91 986.88,-246.48"/>
<polygon fill="#63b8ff" stroke="#63b8ff" points="988.58,-249.54 995.45,-241.47 985.05,-243.5 988.58,-249.54"/>
</a>
</g>
</g>
<!-- Node3 -->
<g id="Node000003" class="node">
<title>Node3</title>
<g id="a_Node000003"><a xlink:href="Ioss__CodeTypes_8h.html" target="_top" xlink:title=" ">
<polygon fill="white" stroke="#666666" points="520.14,-74.5 422.39,-74.5 422.39,-55.25 520.14,-55.25 520.14,-74.5"/>
<text text-anchor="middle" x="471.27" y="-61" font-family="Helvetica,sans-Serif" font-size="10.00">Ioss_CodeTypes.h</text>
</a>
</g>
</g>
<!-- Node2&#45;&gt;Node3 -->
<g id="edge2_Node000002_Node000003" class="edge">
<title>Node2&#45;&gt;Node3</title>
<g id="a_edge2_Node000002_Node000003"><a xlink:title=" ">
<path fill="none" stroke="#63b8ff" d="M598.31,-110.09C573.47,-101.45 535.77,-88.32 507.88,-78.62"/>
<polygon fill="#63b8ff" stroke="#63b8ff" points="509.37,-75.43 498.78,-75.45 507.07,-82.04 509.37,-75.43"/>
</a>
</g>
</g>
<!-- Node6 -->
<g id="Node000006" class="node">
<title>Node6</title>
<g id="a_Node000006"><a xlink:title=" ">
<polygon fill="#e0e0e0" stroke="#999999" points="922.89,-19.25 877.64,-19.25 877.64,0 922.89,0 922.89,-19.25"/>
<text text-anchor="middle" x="900.27" y="-5.75" font-family="Helvetica,sans-Serif" font-size="10.00">cstdint</text>
</a>
</g>
</g>
<!-- Node2&#45;&gt;Node6 -->
<g id="edge10_Node000002_Node000006" class="edge">
<title>Node2&#45;&gt;Node6</title>
<g id="a_edge10_Node000002_Node000006"><a xlink:title=" ">
<path fill="none" stroke="#63b8ff" d="M647.32,-110.06C696.15,-90.87 810.14,-46.05 866.91,-23.74"/>
<polygon fill="#63b8ff" stroke="#63b8ff" points="868.03,-27.06 876.06,-20.14 865.47,-20.54 868.03,-27.06"/>
</a>
</g>
</g>
<!-- Node8 -->
<g id="Node000008" class="node">
<title>Node8</title>
<g id="a_Node000008"><a xlink:title=" ">
<polygon fill="#e0e0e0" stroke="#999999" points="718.77,-19.25 675.77,-19.25 675.77,0 718.77,0 718.77,-19.25"/>
<text text-anchor="middle" x="697.27" y="-5.75" font-family="Helvetica,sans-Serif" font-size="10.00">vector</text>
</a>
</g>
</g>
<!-- Node2&#45;&gt;Node8 -->
<g id="edge11_Node000002_Node000008" class="edge">
<title>Node2&#45;&gt;Node8</title>
<g id="a_edge11_Node000002_Node000008"><a xlink:title=" ">
<path fill="none" stroke="#63b8ff" d="M631.86,-110.15C639.2,-101.32 650.47,-87.33 659.27,-74.5 669.31,-59.85 679.54,-42.48 686.85,-29.56"/>
<polygon fill="#63b8ff" stroke="#63b8ff" points="689.9,-31.28 691.71,-20.85 683.78,-27.87 689.9,-31.28"/>
</a>
</g>
</g>
<!-- Node11 -->
<g id="Node000011" class="node">
<title>Node11</title>
<g id="a_Node000011"><a xlink:title=" ">
<polygon fill="#e0e0e0" stroke="#999999" points="650.52,-74.5 576.02,-74.5 576.02,-55.25 650.52,-55.25 650.52,-74.5"/>
<text text-anchor="middle" x="613.27" y="-61" font-family="Helvetica,sans-Serif" font-size="10.00">ioss_export.h</text>
</a>
</g>
</g>
<!-- Node2&#45;&gt;Node11 -->
<g id="edge12_Node000002_Node000011" class="edge">
<title>Node2&#45;&gt;Node11</title>
<g id="a_edge12_Node000002_Node000011"><a xlink:title=" ">
<path fill="none" stroke="#63b8ff" d="M622.45,-110.33C621.09,-103.74 619.17,-94.46 617.44,-86.07"/>
<polygon fill="#63b8ff" stroke="#63b8ff" points="620.88,-85.43 615.43,-76.34 614.02,-86.84 620.88,-85.43"/>
</a>
</g>
</g>
<!-- Node4 -->
<g id="Node000004" class="node">
<title>Node4</title>
<g id="a_Node000004"><a xlink:title=" ">
<polygon fill="#e0e0e0" stroke="#999999" points="553.14,-19.25 515.39,-19.25 515.39,0 553.14,0 553.14,-19.25"/>
<text text-anchor="middle" x="534.27" y="-5.75" font-family="Helvetica,sans-Serif" font-size="10.00">array</text>
</a>
</g>
</g>
<!-- Node3&#45;&gt;Node4 -->
<g id="edge3_Node000003_Node000004" class="edge">
<title>Node3&#45;&gt;Node4</title>
<g id="a_edge3_Node000003_Node000004"><a xlink:title=" ">
<path fill="none" stroke="#63b8ff" d="M481.95,-54.84C490.97,-47.22 504.1,-36.12 514.95,-26.95"/>
<polygon fill="#63b8ff" stroke="#63b8ff" points="517.2,-29.63 522.58,-20.5 512.68,-24.28 517.2,-29.63"/>
</a>
</g>
</g>
<!-- Node5 -->
<g id="Node000005" class="node">
<title>Node5</title>
<g id="a_Node000005"><a xlink:title=" ">
<polygon fill="#e0e0e0" stroke="#999999" points="1247.39,-19.25 1199.14,-19.25 1199.14,0 1247.39,0 1247.39,-19.25"/>
<text text-anchor="middle" x="1223.27" y="-5.75" font-family="Helvetica,sans-Serif" font-size="10.00">cstddef</text>
</a>
</g>
</g>
<!-- Node3&#45;&gt;Node5 -->
<g id="edge4_Node000003_Node000005" class="edge">
<title>Node3&#45;&gt;Node5</title>
<g id="a_edge4_Node000003_Node000005"><a xlink:title=" ">
<path fill="none" stroke="#63b8ff" d="M520.58,-59.24C535.57,-57.88 552.08,-56.45 567.27,-55.25 803.77,-36.58 1088.63,-18.81 1187.45,-12.79"/>
<polygon fill="#63b8ff" stroke="#63b8ff" points="1187.55,-16.29 1197.32,-12.19 1187.12,-9.3 1187.55,-16.29"/>
</a>
</g>
</g>
<!-- Node3&#45;&gt;Node6 -->
<g id="edge5_Node000003_Node000006" class="edge">
<title>Node3&#45;&gt;Node6</title>
<g id="a_edge5_Node000003_Node000006"><a xlink:title=" ">
<path fill="none" stroke="#63b8ff" d="M520.48,-57.77C608.43,-46.85 790.45,-24.26 866.12,-14.86"/>
<polygon fill="#63b8ff" stroke="#63b8ff" points="866.32,-18.36 875.82,-13.66 865.46,-11.42 866.32,-18.36"/>
</a>
</g>
</g>
<!-- Node7 -->
<g id="Node000007" class="node">
<title>Node7</title>
<g id="a_Node000007"><a xlink:title=" ">
<polygon fill="#e0e0e0" stroke="#999999" points="238.27,-19.25 198.27,-19.25 198.27,0 238.27,0 238.27,-19.25"/>
<text text-anchor="middle" x="218.27" y="-5.75" font-family="Helvetica,sans-Serif" font-size="10.00">string</text>
</a>
</g>
</g>
<!-- Node3&#45;&gt;Node7 -->
<g id="edge6_Node000003_Node000007" class="edge">
<title>Node3&#45;&gt;Node7</title>
<g id="a_edge6_Node000003_Node000007"><a xlink:title=" ">
<path fill="none" stroke="#63b8ff" d="M428.06,-54.78C377.4,-44.12 294.67,-26.71 249.73,-17.25"/>
<polygon fill="#63b8ff" stroke="#63b8ff" points="250.62,-13.86 240.11,-15.22 249.18,-20.71 250.62,-13.86"/>
</a>
</g>
</g>
<!-- Node3&#45;&gt;Node8 -->
<g id="edge7_Node000003_Node000008" class="edge">
<title>Node3&#45;&gt;Node8</title>
<g id="a_edge7_Node000003_Node000008"><a xlink:title=" ">
<path fill="none" stroke="#63b8ff" d="M509.86,-54.78C553.33,-44.54 623.23,-28.07 664.26,-18.4"/>
<polygon fill="#63b8ff" stroke="#63b8ff" points="664.86,-21.86 673.79,-16.16 663.26,-15.04 664.86,-21.86"/>
</a>
</g>
</g>
<!-- Node9 -->
<g id="Node000009" class="node">
<title>Node9</title>
<g id="a_Node000009"><a xlink:title=" ">
<polygon fill="#e0e0e0" stroke="#999999" points="427.27,-19.25 387.27,-19.25 387.27,0 427.27,0 427.27,-19.25"/>
<text text-anchor="middle" x="407.27" y="-5.75" font-family="Helvetica,sans-Serif" font-size="10.00">mpi.h</text>
</a>
</g>
</g>
<!-- Node3&#45;&gt;Node9 -->
<g id="edge8_Node000003_Node000009" class="edge">
<title>Node3&#45;&gt;Node9</title>
<g id="a_edge8_Node000003_Node000009"><a xlink:title=" ">
<path fill="none" stroke="#63b8ff" d="M460.41,-54.84C451.16,-47.15 437.64,-35.9 426.56,-26.68"/>
<polygon fill="#63b8ff" stroke="#63b8ff" points="429.05,-24.2 419.13,-20.49 424.57,-29.58 429.05,-24.2"/>
</a>
</g>
</g>
<!-- Node10 -->
<g id="Node000010" class="node">
<title>Node10</title>
<g id="a_Node000010"><a xlink:title=" ">
<polygon fill="#e0e0e0" stroke="#999999" points="497.64,-19.25 444.89,-19.25 444.89,0 497.64,0 497.64,-19.25"/>
<text text-anchor="middle" x="471.27" y="-5.75" font-family="Helvetica,sans-Serif" font-size="10.00">complex</text>
</a>
</g>
</g>
<!-- Node3&#45;&gt;Node10 -->
<g id="edge9_Node000003_Node000010" class="edge">
<title>Node3&#45;&gt;Node10</title>
<g id="a_edge9_Node000003_Node000010"><a xlink:title=" ">
<path fill="none" stroke="#63b8ff" d="M471.27,-55.08C471.27,-48.57 471.27,-39.42 471.27,-31.12"/>
<polygon fill="#63b8ff" stroke="#63b8ff" points="474.77,-31.12 471.27,-21.12 467.77,-31.12 474.77,-31.12"/>
</a>
</g>
</g>
<!-- Node12&#45;&gt;Node3 -->
<g id="edge14_Node000012_Node000003" class="edge">
<title>Node12&#45;&gt;Node3</title>
<g id="a_edge14_Node000012_Node000003"><a xlink:title=" ">
<path fill="none" stroke="#63b8ff" d="M886.81,-229.63C767.81,-229.27 379.34,-225.04 342.27,-185 321.71,-162.8 349.22,-131.9 372.27,-110.5 387.74,-96.13 408.63,-85.79 427.23,-78.71"/>
<polygon fill="#63b8ff" stroke="#63b8ff" points="428.19,-82.08 436.43,-75.42 425.84,-75.49 428.19,-82.08"/>
</a>
</g>
</g>
<!-- Node12&#45;&gt;Node5 -->
<g id="edge58_Node000012_Node000005" class="edge">
<title>Node12&#45;&gt;Node5</title>
<g id="a_edge58_Node000012_Node000005"><a xlink:title=" ">
<path fill="none" stroke="#63b8ff" d="M955.8,-222.56C959,-222 962.19,-221.47 965.27,-221 1038.63,-209.85 1247.7,-240.23 1297.27,-185 1340.01,-137.37 1275,-61.38 1241.37,-27.68"/>
<polygon fill="#63b8ff" stroke="#63b8ff" points="1243.88,-25.25 1234.28,-20.77 1238.99,-30.26 1243.88,-25.25"/>
</a>
</g>
</g>
<!-- Node12&#45;&gt;Node6 -->
<g id="edge59_Node000012_Node000006" class="edge">
<title>Node12&#45;&gt;Node6</title>
<g id="a_edge59_Node000012_Node000006"><a xlink:title=" ">
<path fill="none" stroke="#63b8ff" d="M923.81,-220.64C930.78,-194.4 948.45,-115.93 929.27,-55.25 926.24,-45.69 920.58,-36.22 915.05,-28.48"/>
<polygon fill="#63b8ff" stroke="#63b8ff" points="917.89,-26.43 909.02,-20.64 912.34,-30.7 917.89,-26.43"/>
</a>
</g>
</g>
<!-- Node12&#45;&gt;Node7 -->
<g id="edge63_Node000012_Node000007" class="edge">
<title>Node12&#45;&gt;Node7</title>
<g id="a_edge63_Node000012_Node000007"><a xlink:title=" ">
<path fill="none" stroke="#63b8ff" d="M886.71,-229.63C742.68,-229.07 190.96,-220.91 48.27,-129.75 16.59,-109.52 -15.39,-84.46 8.27,-55.25 30.35,-27.97 133.6,-16.68 186.63,-12.61"/>
<polygon fill="#63b8ff" stroke="#63b8ff" points="186.82,-16.11 196.54,-11.9 186.32,-9.13 186.82,-16.11"/>
</a>
</g>
</g>
<!-- Node12&#45;&gt;Node8 -->
<g id="edge64_Node000012_Node000008" class="edge">
<title>Node12&#45;&gt;Node8</title>
<g id="a_edge64_Node000012_Node000008"><a xlink:title=" ">
<path fill="none" stroke="#63b8ff" d="M922.21,-220.9C925.43,-189.16 934.71,-80.38 913.27,-55.25 889.98,-27.97 785.11,-16.72 730.53,-12.65"/>
<polygon fill="#63b8ff" stroke="#63b8ff" points="730.79,-9.16 720.57,-11.95 730.3,-16.14 730.79,-9.16"/>
</a>
</g>
</g>
<!-- Node12&#45;&gt;Node11 -->
<g id="edge65_Node000012_Node000011" class="edge">
<title>Node12&#45;&gt;Node11</title>
<g id="a_edge65_Node000012_Node000011"><a xlink:title=" ">
<path fill="none" stroke="#63b8ff" d="M886.69,-229.82C845.89,-228.31 777.97,-220.13 733.27,-185 704.04,-162.03 721.19,-137.13 695.27,-110.5 682.31,-97.2 664.53,-86.86 648.84,-79.51"/>
<polygon fill="#63b8ff" stroke="#63b8ff" points="650.34,-76.34 639.77,-75.5 647.5,-82.74 650.34,-76.34"/>
</a>
</g>
</g>
<!-- Node13 -->
<g id="Node000013" class="node">
<title>Node13</title>
<g id="a_Node000013"><a xlink:href="Ioss__ElementTopology_8h.html" target="_top" xlink:title=" ">
<polygon fill="white" stroke="#666666" points="473.14,-185 351.39,-185 351.39,-165.75 473.14,-165.75 473.14,-185"/>
<text text-anchor="middle" x="412.27" y="-171.5" font-family="Helvetica,sans-Serif" font-size="10.00">Ioss_ElementTopology.h</text>
</a>
</g>
</g>
<!-- Node12&#45;&gt;Node13 -->
<g id="edge15_Node000012_Node000013" class="edge">
<title>Node12&#45;&gt;Node13</title>
<g id="a_edge15_Node000012_Node000013"><a xlink:title=" ">
<path fill="none" stroke="#63b8ff" d="M886.68,-226.01C804.45,-217.4 595.85,-195.58 484.66,-183.95"/>
<polygon fill="#63b8ff" stroke="#63b8ff" points="485.04,-180.47 474.73,-182.91 484.31,-187.43 485.04,-180.47"/>
</a>
</g>
</g>
<!-- Node20 -->
<g id="Node000020" class="node">
<title>Node20</title>
<g id="a_Node000020"><a xlink:href="Ioss__EntityType_8h.html" target="_top" xlink:title=" ">
<polygon fill="white" stroke="#666666" points="836.64,-185 741.89,-185 741.89,-165.75 836.64,-165.75 836.64,-185"/>
<text text-anchor="middle" x="789.27" y="-171.5" font-family="Helvetica,sans-Serif" font-size="10.00">Ioss_EntityType.h</text>
</a>
</g>
</g>
<!-- Node12&#45;&gt;Node20 -->
<g id="edge31_Node000012_Node000020" class="edge">
<title>Node12&#45;&gt;Node20</title>
<g id="a_edge31_Node000012_Node000020"><a xlink:title=" ">
<path fill="none" stroke="#63b8ff" d="M898.87,-220.59C877.82,-212.1 846.06,-199.29 822.14,-189.64"/>
<polygon fill="#63b8ff" stroke="#63b8ff" points="823.75,-186.51 813.17,-186.02 821.14,-193.01 823.75,-186.51"/>
</a>
</g>
</g>
<!-- Node21 -->
<g id="Node000021" class="node">
<title>Node21</title>
<g id="a_Node000021"><a xlink:href="Ioss__Field_8h.html" target="_top" xlink:title=" ">
<polygon fill="white" stroke="#666666" points="505.89,-129.75 436.64,-129.75 436.64,-110.5 505.89,-110.5 505.89,-129.75"/>
<text text-anchor="middle" x="471.27" y="-116.25" font-family="Helvetica,sans-Serif" font-size="10.00">Ioss_Field.h</text>
</a>
</g>
</g>
<!-- Node12&#45;&gt;Node21 -->
<g id="edge32_Node000012_Node000021" class="edge">
<title>Node12&#45;&gt;Node21</title>
<g id="a_edge32_Node000012_Node000021"><a xlink:title=" ">
<path fill="none" stroke="#63b8ff" d="M886.64,-223.44C842.99,-215.46 765.73,-200.72 700.27,-185 633.85,-169.06 557.62,-147.04 512,-133.46"/>
<polygon fill="#63b8ff" stroke="#63b8ff" points="513.13,-130.14 502.54,-130.63 511.12,-136.85 513.13,-130.14"/>
</a>
</g>
</g>
<!-- Node22 -->
<g id="Node000022" class="node">
<title>Node22</title>
<g id="a_Node000022"><a xlink:href="Ioss__Property_8h.html" target="_top" xlink:title=" ">
<polygon fill="white" stroke="#666666" points="872.02,-129.75 788.52,-129.75 788.52,-110.5 872.02,-110.5 872.02,-129.75"/>
<text text-anchor="middle" x="830.27" y="-116.25" font-family="Helvetica,sans-Serif" font-size="10.00">Ioss_Property.h</text>
</a>
</g>
</g>
<!-- Node12&#45;&gt;Node22 -->
<g id="edge39_Node000012_Node000022" class="edge">
<title>Node12&#45;&gt;Node22</title>
<g id="a_edge39_Node000012_Node000022"><a xlink:title=" ">
<path fill="none" stroke="#63b8ff" d="M913.82,-220.75C898.82,-202.86 864.73,-162.22 845.05,-138.75"/>
<polygon fill="#63b8ff" stroke="#63b8ff" points="847.9,-136.7 838.79,-131.29 842.53,-141.2 847.9,-136.7"/>
</a>
</g>
</g>
<!-- Node24 -->
<g id="Node000024" class="node">
<title>Node24</title>
<g id="a_Node000024"><a xlink:href="Ioss__Sort_8h.html" target="_top" xlink:title=" ">
<polygon fill="white" stroke="#666666" points="1387.39,-129.75 1321.14,-129.75 1321.14,-110.5 1387.39,-110.5 1387.39,-129.75"/>
<text text-anchor="middle" x="1354.27" y="-116.25" font-family="Helvetica,sans-Serif" font-size="10.00">Ioss_Sort.h</text>
</a>
</g>
</g>
<!-- Node12&#45;&gt;Node24 -->
<g id="edge46_Node000012_Node000024" class="edge">
<title>Node12&#45;&gt;Node24</title>
<g id="a_edge46_Node000012_Node000024"><a xlink:title=" ">
<path fill="none" stroke="#63b8ff" d="M955.8,-222.53C958.99,-221.97 962.18,-221.45 965.27,-221 1045.9,-209.15 1265.62,-234.64 1330.27,-185 1343.78,-174.62 1349.69,-155.74 1352.27,-141.18"/>
<polygon fill="#63b8ff" stroke="#63b8ff" points="1355.73,-141.71 1353.58,-131.33 1348.79,-140.78 1355.73,-141.71"/>
</a>
</g>
</g>
<!-- Node26 -->
<g id="Node000026" class="node">
<title>Node26</title>
<g id="a_Node000026"><a xlink:title=" ">
<polygon fill="#e0e0e0" stroke="#999999" points="1519.14,-19.25 1463.39,-19.25 1463.39,0 1519.14,0 1519.14,-19.25"/>
<text text-anchor="middle" x="1491.27" y="-5.75" font-family="Helvetica,sans-Serif" font-size="10.00">algorithm</text>
</a>
</g>
</g>
<!-- Node12&#45;&gt;Node26 -->
<g id="edge55_Node000012_Node000026" class="edge">
<title>Node12&#45;&gt;Node26</title>
<g id="a_edge55_Node000012_Node000026"><a xlink:title=" ">
<path fill="none" stroke="#63b8ff" d="M955.8,-222.52C958.99,-221.96 962.18,-221.44 965.27,-221 1050.53,-208.7 1275.26,-225.56 1351.27,-185 1418,-149.39 1464.25,-66.97 1482.54,-29.63"/>
<polygon fill="#63b8ff" stroke="#63b8ff" points="1485.53,-31.49 1486.66,-20.95 1479.21,-28.49 1485.53,-31.49"/>
</a>
</g>
</g>
<!-- Node30 -->
<g id="Node000030" class="node">
<title>Node30</title>
<g id="a_Node000030"><a xlink:title=" ">
<polygon fill="#e0e0e0" stroke="#999999" points="1016.39,-185 968.14,-185 968.14,-165.75 1016.39,-165.75 1016.39,-185"/>
<text text-anchor="middle" x="992.27" y="-171.5" font-family="Helvetica,sans-Serif" font-size="10.00">cassert</text>
</a>
</g>
</g>
<!-- Node12&#45;&gt;Node30 -->
<g id="edge56_Node000012_Node000030" class="edge">
<title>Node12&#45;&gt;Node30</title>
<g id="a_edge56_Node000012_Node000030"><a xlink:title=" ">
<path fill="none" stroke="#63b8ff" d="M933.31,-220.59C943.67,-212.82 958.87,-201.42 971.23,-192.15"/>
<polygon fill="#63b8ff" stroke="#63b8ff" points="973.29,-194.98 979.19,-186.18 969.09,-189.38 973.29,-194.98"/>
</a>
</g>
</g>
<!-- Node31 -->
<g id="Node000031" class="node">
<title>Node31</title>
<g id="a_Node000031"><a xlink:title=" ">
<polygon fill="#e0e0e0" stroke="#999999" points="1077.77,-185 1034.77,-185 1034.77,-165.75 1077.77,-165.75 1077.77,-185"/>
<text text-anchor="middle" x="1056.27" y="-171.5" font-family="Helvetica,sans-Serif" font-size="10.00">cmath</text>
</a>
</g>
</g>
<!-- Node12&#45;&gt;Node31 -->
<g id="edge57_Node000012_Node000031" class="edge">
<title>Node12&#45;&gt;Node31</title>
<g id="a_edge57_Node000012_Node000031"><a xlink:title=" ">
<path fill="none" stroke="#63b8ff" d="M944.17,-220.59C966.09,-211.95 999.36,-198.82 1023.97,-189.11"/>
<polygon fill="#63b8ff" stroke="#63b8ff" points="1025.17,-192.4 1033.19,-185.48 1022.6,-185.89 1025.17,-192.4"/>
</a>
</g>
</g>
<!-- Node32 -->
<g id="Node000032" class="node">
<title>Node32</title>
<g id="a_Node000032"><a xlink:title=" ">
<polygon fill="#e0e0e0" stroke="#999999" points="1140.52,-185 1096.02,-185 1096.02,-165.75 1140.52,-165.75 1140.52,-185"/>
<text text-anchor="middle" x="1118.27" y="-171.5" font-family="Helvetica,sans-Serif" font-size="10.00">cstdlib</text>
</a>
</g>
</g>
<!-- Node12&#45;&gt;Node32 -->
<g id="edge60_Node000012_Node000032" class="edge">
<title>Node12&#45;&gt;Node32</title>
<g id="a_edge60_Node000012_Node000032"><a xlink:title=" ">
<path fill="none" stroke="#63b8ff" d="M955.31,-220.57C986.58,-212.22 1034.52,-199.39 1084.54,-185.73"/>
<polygon fill="#63b8ff" stroke="#63b8ff" points="1085.4,-189.12 1094.12,-183.11 1083.56,-182.37 1085.4,-189.12"/>
</a>
</g>
</g>
<!-- Node33 -->
<g id="Node000033" class="node">
<title>Node33</title>
<g id="a_Node000033"><a xlink:title=" ">
<polygon fill="#e0e0e0" stroke="#999999" points="1212.02,-185 1158.52,-185 1158.52,-165.75 1212.02,-165.75 1212.02,-185"/>
<text text-anchor="middle" x="1185.27" y="-171.5" font-family="Helvetica,sans-Serif" font-size="10.00">iostream</text>
</a>
</g>
</g>
<!-- Node12&#45;&gt;Node33 -->
<g id="edge61_Node000012_Node000033" class="edge">
<title>Node12&#45;&gt;Node33</title>
<g id="a_edge61_Node000012_Node000033"><a xlink:title=" ">
<path fill="none" stroke="#63b8ff" d="M955.85,-222.84C959.03,-222.22 962.21,-221.6 965.27,-221 1043.69,-205.64 1066.03,-202.92 1147.39,-185.34"/>
<polygon fill="#63b8ff" stroke="#63b8ff" points="1147.66,-188.86 1156.69,-183.32 1146.17,-182.02 1147.66,-188.86"/>
</a>
</g>
</g>
<!-- Node34 -->
<g id="Node000034" class="node">
<title>Node34</title>
<g id="a_Node000034"><a xlink:title=" ">
<polygon fill="#e0e0e0" stroke="#999999" points="1288.64,-185 1229.89,-185 1229.89,-165.75 1288.64,-165.75 1288.64,-185"/>
<text text-anchor="middle" x="1259.27" y="-171.5" font-family="Helvetica,sans-Serif" font-size="10.00">stdexcept</text>
</a>
</g>
</g>
<!-- Node12&#45;&gt;Node34 -->
<g id="edge62_Node000012_Node000034" class="edge">
<title>Node12&#45;&gt;Node34</title>
<g id="a_edge62_Node000012_Node000034"><a xlink:title=" ">
<path fill="none" stroke="#63b8ff" d="M955.82,-222.67C959.01,-222.08 962.19,-221.52 965.27,-221 1075.03,-202.54 1106.32,-205.52 1218.34,-185.41"/>
<polygon fill="#63b8ff" stroke="#63b8ff" points="1218.74,-188.9 1227.95,-183.66 1217.49,-182.01 1218.74,-188.9"/>
</a>
</g>
</g>
<!-- Node13&#45;&gt;Node3 -->
<g id="edge16_Node000013_Node000003" class="edge">
<title>Node13&#45;&gt;Node3</title>
<g id="a_edge16_Node000013_Node000003"><a xlink:title=" ">
<path fill="none" stroke="#63b8ff" d="M401.91,-165.42C388.62,-152.8 368.59,-129.24 380.27,-110.5 389.5,-95.68 405.26,-85.64 421.09,-78.91"/>
<polygon fill="#63b8ff" stroke="#63b8ff" points="421.94,-82.33 430.02,-75.48 419.43,-75.8 421.94,-82.33"/>
</a>
</g>
</g>
<!-- Node13&#45;&gt;Node7 -->
<g id="edge28_Node000013_Node000007" class="edge">
<title>Node13&#45;&gt;Node7</title>
<g id="a_edge28_Node000013_Node000007"><a xlink:title=" ">
<path fill="none" stroke="#63b8ff" d="M350.99,-172.68C287.92,-169.29 187.66,-159.25 106.27,-129.75 62.14,-113.76 39.18,-115.46 16.27,-74.5 12.09,-67.03 10.91,-61.92 16.27,-55.25 37.24,-29.13 134.91,-17.38 186.36,-12.93"/>
<polygon fill="#63b8ff" stroke="#63b8ff" points="186.59,-16.42 196.27,-12.12 186.02,-9.45 186.59,-16.42"/>
</a>
</g>
</g>
<!-- Node13&#45;&gt;Node8 -->
<g id="edge29_Node000013_Node000008" class="edge">
<title>Node13&#45;&gt;Node8</title>
<g id="a_edge29_Node000013_Node000008"><a xlink:title=" ">
<path fill="none" stroke="#63b8ff" d="M473.32,-173.58C547.72,-171.18 667.04,-162.22 695.27,-129.75 719.16,-102.26 711.13,-56.22 703.78,-30.16"/>
<polygon fill="#63b8ff" stroke="#63b8ff" points="707.22,-29.4 700.92,-20.88 700.53,-31.47 707.22,-29.4"/>
</a>
</g>
</g>
<!-- Node13&#45;&gt;Node11 -->
<g id="edge30_Node000013_Node000011" class="edge">
<title>Node13&#45;&gt;Node11</title>
<g id="a_edge30_Node000013_Node000011"><a xlink:title=" ">
<path fill="none" stroke="#63b8ff" d="M436.12,-165.37C457.34,-157.05 489,-143.87 515.27,-129.75 542.68,-115.01 572.4,-95.02 591.84,-81.35"/>
<polygon fill="#63b8ff" stroke="#63b8ff" points="593.64,-84.37 599.76,-75.72 589.58,-78.66 593.64,-84.37"/>
</a>
</g>
</g>
<!-- Node14 -->
<g id="Node000014" class="node">
<title>Node14</title>
<g id="a_Node000014"><a xlink:href="Ioss__ElementPermutation_8h.html" target="_top" xlink:title=" ">
<polygon fill="white" stroke="#666666" points="295.64,-129.75 158.89,-129.75 158.89,-110.5 295.64,-110.5 295.64,-129.75"/>
<text text-anchor="middle" x="227.27" y="-116.25" font-family="Helvetica,sans-Serif" font-size="10.00">Ioss_ElementPermutation.h</text>
</a>
</g>
</g>
<!-- Node13&#45;&gt;Node14 -->
<g id="edge17_Node000013_Node000014" class="edge">
<title>Node13&#45;&gt;Node14</title>
<g id="a_edge17_Node000013_Node000014"><a xlink:title=" ">
<path fill="none" stroke="#63b8ff" d="M380.88,-165.34C350.32,-156.54 303.64,-143.11 269.76,-133.36"/>
<polygon fill="#63b8ff" stroke="#63b8ff" points="270.83,-130.02 260.26,-130.62 268.9,-136.75 270.83,-130.02"/>
</a>
</g>
</g>
<!-- Node17 -->
<g id="Node000017" class="node">
<title>Node17</title>
<g id="a_Node000017"><a xlink:title=" ">
<polygon fill="#e0e0e0" stroke="#999999" points="59.64,-74.5 24.89,-74.5 24.89,-55.25 59.64,-55.25 59.64,-74.5"/>
<text text-anchor="middle" x="42.27" y="-61" font-family="Helvetica,sans-Serif" font-size="10.00">map</text>
</a>
</g>
</g>
<!-- Node13&#45;&gt;Node17 -->
<g id="edge26_Node000013_Node000017" class="edge">
<title>Node13&#45;&gt;Node17</title>
<g id="a_edge26_Node000013_Node000017"><a xlink:title=" ">
<path fill="none" stroke="#63b8ff" d="M351.08,-170.29C296.92,-165.21 216.44,-154.01 150.27,-129.75 117.92,-117.89 84.33,-96.31 63.37,-81.55"/>
<polygon fill="#63b8ff" stroke="#63b8ff" points="65.55,-78.8 55.39,-75.8 61.46,-84.48 65.55,-78.8"/>
</a>
</g>
</g>
<!-- Node19 -->
<g id="Node000019" class="node">
<title>Node19</title>
<g id="a_Node000019"><a xlink:title=" ">
<polygon fill="#e0e0e0" stroke="#999999" points="419.02,-129.75 389.52,-129.75 389.52,-110.5 419.02,-110.5 419.02,-129.75"/>
<text text-anchor="middle" x="404.27" y="-116.25" font-family="Helvetica,sans-Serif" font-size="10.00">set</text>
</a>
</g>
</g>
<!-- Node13&#45;&gt;Node19 -->
<g id="edge27_Node000013_Node000019" class="edge">
<title>Node13&#45;&gt;Node19</title>
<g id="a_edge27_Node000013_Node000019"><a xlink:title=" ">
<path fill="none" stroke="#63b8ff" d="M410.94,-165.58C409.95,-158.99 408.56,-149.71 407.3,-141.32"/>
<polygon fill="#63b8ff" stroke="#63b8ff" points="410.79,-140.97 405.84,-131.61 403.86,-142.01 410.79,-140.97"/>
</a>
</g>
</g>
<!-- Node14&#45;&gt;Node3 -->
<g id="edge18_Node000014_Node000003" class="edge">
<title>Node14&#45;&gt;Node3</title>
<g id="a_edge18_Node000014_Node000003"><a xlink:title=" ">
<path fill="none" stroke="#63b8ff" d="M268.93,-110.03C310.34,-100.99 373.97,-87.11 418.8,-77.32"/>
<polygon fill="#63b8ff" stroke="#63b8ff" points="419.27,-80.81 428.29,-75.25 417.77,-73.97 419.27,-80.81"/>
</a>
</g>
</g>
<!-- Node14&#45;&gt;Node7 -->
<g id="edge23_Node000014_Node000007" class="edge">
<title>Node14&#45;&gt;Node7</title>
<g id="a_edge23_Node000014_Node000007"><a xlink:title=" ">
<path fill="none" stroke="#63b8ff" d="M161.49,-110.07C140.33,-103.7 119.07,-92.87 106.27,-74.5 83.55,-41.91 146.16,-23.81 186.71,-15.77"/>
<polygon fill="#63b8ff" stroke="#63b8ff" points="187.29,-19.22 196.48,-13.95 186.01,-12.34 187.29,-19.22"/>
</a>
</g>
</g>
<!-- Node14&#45;&gt;Node8 -->
<g id="edge24_Node000014_Node000008" class="edge">
<title>Node14&#45;&gt;Node8</title>
<g id="a_edge24_Node000014_Node000008"><a xlink:title=" ">
<path fill="none" stroke="#63b8ff" d="M230.51,-110.28C236.26,-95.96 249.73,-68.04 271.27,-55.25 288.13,-45.23 566.53,-21.42 663.93,-13.35"/>
<polygon fill="#63b8ff" stroke="#63b8ff" points="664.22,-16.84 673.9,-12.53 663.64,-9.86 664.22,-16.84"/>
</a>
</g>
</g>
<!-- Node14&#45;&gt;Node11 -->
<g id="edge25_Node000014_Node000011" class="edge">
<title>Node14&#45;&gt;Node11</title>
<g id="a_edge25_Node000014_Node000011"><a xlink:title=" ">
<path fill="none" stroke="#63b8ff" d="M293.18,-110.03C370.12,-99.42 495.57,-82.11 564.35,-72.62"/>
<polygon fill="#63b8ff" stroke="#63b8ff" points="564.77,-76.1 574.19,-71.27 563.81,-69.16 564.77,-76.1"/>
</a>
</g>
</g>
<!-- Node15 -->
<g id="Node000015" class="node">
<title>Node15</title>
<g id="a_Node000015"><a xlink:title=" ">
<polygon fill="#e0e0e0" stroke="#999999" points="166.89,-74.5 115.64,-74.5 115.64,-55.25 166.89,-55.25 166.89,-74.5"/>
<text text-anchor="middle" x="141.27" y="-61" font-family="Helvetica,sans-Serif" font-size="10.00">assert.h</text>
</a>
</g>
</g>
<!-- Node14&#45;&gt;Node15 -->
<g id="edge19_Node000014_Node000015" class="edge">
<title>Node14&#45;&gt;Node15</title>
<g id="a_edge19_Node000014_Node000015"><a xlink:title=" ">
<path fill="none" stroke="#63b8ff" d="M212.68,-110.09C199.83,-102.14 180.85,-90.39 165.69,-81"/>
<polygon fill="#63b8ff" stroke="#63b8ff" points="167.56,-78.04 157.21,-75.75 163.87,-83.99 167.56,-78.04"/>
</a>
</g>
</g>
<!-- Node16 -->
<g id="Node000016" class="node">
<title>Node16</title>
<g id="a_Node000016"><a xlink:title=" ">
<polygon fill="#e0e0e0" stroke="#999999" points="223.89,-74.5 184.64,-74.5 184.64,-55.25 223.89,-55.25 223.89,-74.5"/>
<text text-anchor="middle" x="204.27" y="-61" font-family="Helvetica,sans-Serif" font-size="10.00">limits</text>
</a>
</g>
</g>
<!-- Node14&#45;&gt;Node16 -->
<g id="edge20_Node000014_Node000016" class="edge">
<title>Node14&#45;&gt;Node16</title>
<g id="a_edge20_Node000014_Node000016"><a xlink:title=" ">
<path fill="none" stroke="#63b8ff" d="M223.47,-110.33C220.52,-103.51 216.33,-93.81 212.61,-85.2"/>
<polygon fill="#63b8ff" stroke="#63b8ff" points="215.92,-84.04 208.75,-76.25 209.5,-86.82 215.92,-84.04"/>
</a>
</g>
</g>
<!-- Node14&#45;&gt;Node17 -->
<g id="edge21_Node000014_Node000017" class="edge">
<title>Node14&#45;&gt;Node17</title>
<g id="a_edge21_Node000014_Node000017"><a xlink:title=" ">
<path fill="none" stroke="#63b8ff" d="M195.88,-110.09C160.84,-100.01 104.62,-83.82 70.78,-74.08"/>
<polygon fill="#63b8ff" stroke="#63b8ff" points="71.85,-70.75 61.28,-71.35 69.92,-77.48 71.85,-70.75"/>
</a>
</g>
</g>
<!-- Node18 -->
<g id="Node000018" class="node">
<title>Node18</title>
<g id="a_Node000018"><a xlink:title=" ">
<polygon fill="#e0e0e0" stroke="#999999" points="328.39,-74.5 280.14,-74.5 280.14,-55.25 328.39,-55.25 328.39,-74.5"/>
<text text-anchor="middle" x="304.27" y="-61" font-family="Helvetica,sans-Serif" font-size="10.00">stdint.h</text>
</a>
</g>
</g>
<!-- Node14&#45;&gt;Node18 -->
<g id="edge22_Node000014_Node000018" class="edge">
<title>Node14&#45;&gt;Node18</title>
<g id="a_edge22_Node000014_Node000018"><a xlink:title=" ">
<path fill="none" stroke="#63b8ff" d="M240.33,-110.09C251.72,-102.21 268.5,-90.61 282,-81.27"/>
<polygon fill="#63b8ff" stroke="#63b8ff" points="283.66,-84.38 289.89,-75.81 279.68,-78.62 283.66,-84.38"/>
</a>
</g>
</g>
<!-- Node21&#45;&gt;Node3 -->
<g id="edge33_Node000021_Node000003" class="edge">
<title>Node21&#45;&gt;Node3</title>
<g id="a_edge33_Node000021_Node000003"><a xlink:title=" ">
<path fill="none" stroke="#63b8ff" d="M471.27,-110.33C471.27,-103.82 471.27,-94.67 471.27,-86.37"/>
<polygon fill="#63b8ff" stroke="#63b8ff" points="474.77,-86.37 471.27,-76.37 467.77,-86.37 474.77,-86.37"/>
</a>
</g>
</g>
<!-- Node21&#45;&gt;Node5 -->
<g id="edge34_Node000021_Node000005" class="edge">
<title>Node21&#45;&gt;Node5</title>
<g id="a_edge34_Node000021_Node000005"><a xlink:title=" ">
<path fill="none" stroke="#63b8ff" d="M506.35,-112.61C573.01,-100.36 722.62,-73.49 849.27,-55.25 973.21,-37.39 1121.01,-21.28 1187.61,-14.3"/>
<polygon fill="#63b8ff" stroke="#63b8ff" points="1187.62,-17.81 1197.2,-13.29 1186.89,-10.85 1187.62,-17.81"/>
</a>
</g>
</g>
<!-- Node21&#45;&gt;Node7 -->
<g id="edge36_Node000021_Node000007" class="edge">
<title>Node21&#45;&gt;Node7</title>
<g id="a_edge36_Node000021_Node000007"><a xlink:title=" ">
<path fill="none" stroke="#63b8ff" d="M452.64,-110C421.38,-94.73 359.56,-64.72 337.27,-55.25 307.81,-42.74 273.54,-30.08 249.36,-21.46"/>
<polygon fill="#63b8ff" stroke="#63b8ff" points="250.71,-18.22 240.12,-18.19 248.37,-24.82 250.71,-18.22"/>
</a>
</g>
</g>
<!-- Node21&#45;&gt;Node8 -->
<g id="edge37_Node000021_Node000008" class="edge">
<title>Node21&#45;&gt;Node8</title>
<g id="a_edge37_Node000021_Node000008"><a xlink:title=" ">
<path fill="none" stroke="#63b8ff" d="M482.79,-110.02C500.24,-96.58 534.78,-71.3 567.27,-55.25 599.09,-39.53 637.82,-27.01 664.69,-19.28"/>
<polygon fill="#63b8ff" stroke="#63b8ff" points="665.28,-22.75 673.97,-16.68 663.39,-16.01 665.28,-22.75"/>
</a>
</g>
</g>
<!-- Node21&#45;&gt;Node11 -->
<g id="edge38_Node000021_Node000011" class="edge">
<title>Node21&#45;&gt;Node11</title>
<g id="a_edge38_Node000021_Node000011"><a xlink:title=" ">
<path fill="none" stroke="#63b8ff" d="M495.35,-110.09C518.2,-101.52 552.78,-88.56 578.59,-78.88"/>
<polygon fill="#63b8ff" stroke="#63b8ff" points="579.51,-82.27 587.64,-75.48 577.05,-75.72 579.51,-82.27"/>
</a>
</g>
</g>
<!-- Node21&#45;&gt;Node18 -->
<g id="edge35_Node000021_Node000018" class="edge">
<title>Node21&#45;&gt;Node18</title>
<g id="a_edge35_Node000021_Node000018"><a xlink:title=" ">
<path fill="none" stroke="#63b8ff" d="M442.94,-110.09C414.34,-100.97 370.13,-86.88 339.34,-77.06"/>
<polygon fill="#63b8ff" stroke="#63b8ff" points="340.69,-73.81 330.1,-74.11 338.56,-80.48 340.69,-73.81"/>
</a>
</g>
</g>
<!-- Node22&#45;&gt;Node3 -->
<g id="edge40_Node000022_Node000003" class="edge">
<title>Node22&#45;&gt;Node3</title>
<g id="a_edge40_Node000022_Node000003"><a xlink:title=" ">
<path fill="none" stroke="#63b8ff" d="M788.03,-112.86C724.6,-103.45 604.46,-85.63 531.75,-74.85"/>
<polygon fill="#63b8ff" stroke="#63b8ff" points="532.41,-71.41 522,-73.4 531.38,-78.33 532.41,-71.41"/>
</a>
</g>
</g>
<!-- Node22&#45;&gt;Node6 -->
<g id="edge42_Node000022_Node000006" class="edge">
<title>Node22&#45;&gt;Node6</title>
<g id="a_edge42_Node000022_Node000006"><a xlink:title=" ">
<path fill="none" stroke="#63b8ff" d="M864.13,-110.14C882.09,-103.46 902.61,-92.33 913.27,-74.5 921.43,-60.84 916.7,-42.91 910.78,-29.53"/>
<polygon fill="#63b8ff" stroke="#63b8ff" points="914.07,-28.28 906.46,-20.9 907.81,-31.41 914.07,-28.28"/>
</a>
</g>
</g>
<!-- Node22&#45;&gt;Node7 -->
<g id="edge43_Node000022_Node000007" class="edge">
<title>Node22&#45;&gt;Node7</title>
<g id="a_edge43_Node000022_Node000007"><a xlink:title=" ">
<path fill="none" stroke="#63b8ff" d="M788.2,-116.31C696.92,-109.92 483.29,-93.41 413.27,-74.5 393.05,-69.04 389.91,-62.49 370.27,-55.25 329.31,-40.15 280.71,-26.62 249.69,-18.52"/>
<polygon fill="#63b8ff" stroke="#63b8ff" points="250.73,-15.17 240.18,-16.06 248.99,-21.95 250.73,-15.17"/>
</a>
</g>
</g>
<!-- Node22&#45;&gt;Node8 -->
<g id="edge45_Node000022_Node000008" class="edge">
<title>Node22&#45;&gt;Node8</title>
<g id="a_edge45_Node000022_Node000008"><a xlink:title=" ">
<path fill="none" stroke="#63b8ff" d="M819.38,-110.25C796.97,-91.97 745.41,-49.9 716.98,-26.71"/>
<polygon fill="#63b8ff" stroke="#63b8ff" points="719.43,-24.19 709.47,-20.58 715.01,-29.62 719.43,-24.19"/>
</a>
</g>
</g>
<!-- Node22&#45;&gt;Node11 -->
<g id="edge41_Node000022_Node000011" class="edge">
<title>Node22&#45;&gt;Node11</title>
<g id="a_edge41_Node000022_Node000011"><a xlink:title=" ">
<path fill="none" stroke="#63b8ff" d="M793.45,-110.09C757.06,-101.16 701.18,-87.45 661.31,-77.66"/>
<polygon fill="#63b8ff" stroke="#63b8ff" points="662.27,-74.3 651.73,-75.31 660.6,-81.1 662.27,-74.3"/>
</a>
</g>
</g>
<!-- Node23 -->
<g id="Node000023" class="node">
<title>Node23</title>
<g id="a_Node000023"><a xlink:title=" ">
<polygon fill="#e0e0e0" stroke="#999999" points="903.89,-74.5 858.64,-74.5 858.64,-55.25 903.89,-55.25 903.89,-74.5"/>
<text text-anchor="middle" x="881.27" y="-61" font-family="Helvetica,sans-Serif" font-size="10.00">variant</text>
</a>
</g>
</g>
<!-- Node22&#45;&gt;Node23 -->
<g id="edge44_Node000022_Node000023" class="edge">
<title>Node22&#45;&gt;Node23</title>
<g id="a_edge44_Node000022_Node000023"><a xlink:title=" ">
<path fill="none" stroke="#63b8ff" d="M838.69,-110.33C845.81,-102.9 856.21,-92.04 864.95,-82.91"/>
<polygon fill="#63b8ff" stroke="#63b8ff" points="867.22,-85.6 871.61,-75.95 862.17,-80.75 867.22,-85.6"/>
</a>
</g>
</g>
<!-- Node24&#45;&gt;Node5 -->
<g id="edge53_Node000024_Node000005" class="edge">
<title>Node24&#45;&gt;Node5</title>
<g id="a_edge53_Node000024_Node000005"><a xlink:title=" ">
<path fill="none" stroke="#63b8ff" d="M1349.51,-110.3C1341.98,-97 1326.23,-71.63 1307.27,-55.25 1292.4,-42.41 1273.21,-31.87 1256.93,-24.26"/>
<polygon fill="#63b8ff" stroke="#63b8ff" points="1258.67,-21.2 1248.11,-20.31 1255.8,-27.59 1258.67,-21.2"/>
</a>
</g>
</g>
<!-- Node24&#45;&gt;Node8 -->
<g id="edge54_Node000024_Node000008" class="edge">
<title>Node24&#45;&gt;Node8</title>
<g id="a_edge54_Node000024_Node000008"><a xlink:title=" ">
<path fill="none" stroke="#63b8ff" d="M1320.78,-113.6C1208,-94.97 842.8,-34.66 730.46,-16.11"/>
<polygon fill="#63b8ff" stroke="#63b8ff" points="731.14,-12.67 720.7,-14.5 730,-19.58 731.14,-12.67"/>
</a>
</g>
</g>
<!-- Node25 -->
<g id="Node000025" class="node">
<title>Node25</title>
<g id="a_Node000025"><a xlink:href="pdqsort_8h.html" target="_top" xlink:title=" ">
<polygon fill="white" stroke="#666666" points="1415.52,-74.5 1359.02,-74.5 1359.02,-55.25 1415.52,-55.25 1415.52,-74.5"/>
<text text-anchor="middle" x="1387.27" y="-61" font-family="Helvetica,sans-Serif" font-size="10.00">pdqsort.h</text>
</a>
</g>
</g>
<!-- Node24&#45;&gt;Node25 -->
<g id="edge47_Node000024_Node000025" class="edge">
<title>Node24&#45;&gt;Node25</title>
<g id="a_edge47_Node000024_Node000025"><a xlink:title=" ">
<path fill="none" stroke="#63b8ff" d="M1359.71,-110.33C1364.04,-103.36 1370.23,-93.37 1375.65,-84.62"/>
<polygon fill="#63b8ff" stroke="#63b8ff" points="1378.61,-86.49 1380.9,-76.15 1372.66,-82.8 1378.61,-86.49"/>
</a>
</g>
</g>
<!-- Node25&#45;&gt;Node5 -->
<g id="edge49_Node000025_Node000005" class="edge">
<title>Node25&#45;&gt;Node5</title>
<g id="a_edge49_Node000025_Node000005"><a xlink:title=" ">
<path fill="none" stroke="#63b8ff" d="M1359.44,-54.84C1331.65,-45.82 1288.82,-31.91 1258.63,-22.11"/>
<polygon fill="#63b8ff" stroke="#63b8ff" points="1259.77,-18.8 1249.18,-19.04 1257.61,-25.46 1259.77,-18.8"/>
</a>
</g>
</g>
<!-- Node25&#45;&gt;Node26 -->
<g id="edge48_Node000025_Node000026" class="edge">
<title>Node25&#45;&gt;Node26</title>
<g id="a_edge48_Node000025_Node000026"><a xlink:title=" ">
<path fill="none" stroke="#63b8ff" d="M1404.91,-54.84C1420.89,-46.66 1444.72,-34.46 1463.3,-24.94"/>
<polygon fill="#63b8ff" stroke="#63b8ff" points="1464.88,-28.07 1472.19,-20.39 1461.69,-21.83 1464.88,-28.07"/>
</a>
</g>
</g>
<!-- Node27 -->
<g id="Node000027" class="node">
<title>Node27</title>
<g id="a_Node000027"><a xlink:title=" ">
<polygon fill="#e0e0e0" stroke="#999999" points="1381.27,-19.25 1323.27,-19.25 1323.27,0 1381.27,0 1381.27,-19.25"/>
<text text-anchor="middle" x="1352.27" y="-5.75" font-family="Helvetica,sans-Serif" font-size="10.00">functional</text>
</a>
</g>
</g>
<!-- Node25&#45;&gt;Node27 -->
<g id="edge50_Node000025_Node000027" class="edge">
<title>Node25&#45;&gt;Node27</title>
<g id="a_edge50_Node000025_Node000027"><a xlink:title=" ">
<path fill="none" stroke="#63b8ff" d="M1381.49,-55.08C1376.85,-48.03 1370.19,-37.9 1364.4,-29.08"/>
<polygon fill="#63b8ff" stroke="#63b8ff" points="1367.42,-27.31 1359,-20.87 1361.57,-31.15 1367.42,-27.31"/>
</a>
</g>
</g>
<!-- Node28 -->
<g id="Node000028" class="node">
<title>Node28</title>
<g id="a_Node000028"><a xlink:title=" ">
<polygon fill="#e0e0e0" stroke="#999999" points="1445.27,-19.25 1399.27,-19.25 1399.27,0 1445.27,0 1445.27,-19.25"/>
<text text-anchor="middle" x="1422.27" y="-5.75" font-family="Helvetica,sans-Serif" font-size="10.00">iterator</text>
</a>
</g>
</g>
<!-- Node25&#45;&gt;Node28 -->
<g id="edge51_Node000025_Node000028" class="edge">
<title>Node25&#45;&gt;Node28</title>
<g id="a_edge51_Node000025_Node000028"><a xlink:title=" ">
<path fill="none" stroke="#63b8ff" d="M1393.04,-55.08C1397.68,-48.03 1404.34,-37.9 1410.13,-29.08"/>
<polygon fill="#63b8ff" stroke="#63b8ff" points="1412.96,-31.15 1415.53,-20.87 1407.11,-27.31 1412.96,-31.15"/>
</a>
</g>
</g>
<!-- Node29 -->
<g id="Node000029" class="node">
<title>Node29</title>
<g id="a_Node000029"><a xlink:title=" ">
<polygon fill="#e0e0e0" stroke="#999999" points="1304.89,-19.25 1265.64,-19.25 1265.64,0 1304.89,0 1304.89,-19.25"/>
<text text-anchor="middle" x="1285.27" y="-5.75" font-family="Helvetica,sans-Serif" font-size="10.00">utility</text>
</a>
</g>
</g>
<!-- Node25&#45;&gt;Node29 -->
<g id="edge52_Node000025_Node000029" class="edge">
<title>Node25&#45;&gt;Node29</title>
<g id="a_edge52_Node000025_Node000029"><a xlink:title=" ">
<path fill="none" stroke="#63b8ff" d="M1369.96,-54.84C1354.28,-46.66 1330.91,-34.46 1312.69,-24.94"/>
<polygon fill="#63b8ff" stroke="#63b8ff" points="1314.48,-21.93 1303.99,-20.4 1311.24,-28.13 1314.48,-21.93"/>
</a>
</g>
</g>
</g>
</svg>
