<?xml version="1.0" encoding="UTF-8" standalone="no"?>
<!DOCTYPE svg PUBLIC "-//W3C//DTD SVG 1.1//EN"
 "http://www.w3.org/Graphics/SVG/1.1/DTD/svg11.dtd">
<!-- Generated by graphviz version 2.50.0 (20211204.2007)
 -->
<!-- Title: src/Ioss_SerializeIO.h Pages: 1 -->
<svg width="1999pt" height="162pt"
 viewBox="0.00 0.00 1999.00 162.00" xmlns="http://www.w3.org/2000/svg" xmlns:xlink="http://www.w3.org/1999/xlink">
<g id="graph0" class="graph" transform="scale(1 1) rotate(0) translate(4 158)">
<title>src/Ioss_SerializeIO.h</title>
<polygon fill="white" stroke="transparent" points="-4,4 -4,-158 1995,-158 1995,4 -4,4"/>
<!-- Node1 -->
<g id="node1" class="node">
<title>Node1</title>
<g id="a_node1"><a xlink:title=" ">
<polygon fill="#bfbfbf" stroke="black" points="1142,-134.5 1142,-153.5 1255,-153.5 1255,-134.5 1142,-134.5"/>
<text text-anchor="middle" x="1198.5" y="-141.5" font-family="Helvetica,sans-Serif" font-size="10.00">src/Ioss_SerializeIO.h</text>
</a>
</g>
</g>
<!-- Node2 -->
<g id="node2" class="node">
<title>Node2</title>
<g id="a_node2"><a xlink:href="Ioss__DatabaseIO_8C.html" target="_top" xlink:title=" ">
<polygon fill="white" stroke="black" points="613.5,-73 613.5,-92 733.5,-92 733.5,-73 613.5,-73"/>
<text text-anchor="middle" x="673.5" y="-80" font-family="Helvetica,sans-Serif" font-size="10.00">src/Ioss_DatabaseIO.C</text>
</a>
</g>
</g>
<!-- Node1&#45;&gt;Node2 -->
<g id="edge1" class="edge">
<title>Node1&#45;&gt;Node2</title>
<path fill="none" stroke="midnightblue" d="M1131.5,-138.68C1042.34,-132.41 879.96,-119.16 742.5,-98 732.1,-96.4 720.89,-94.24 710.61,-92.07"/>
<polygon fill="midnightblue" stroke="midnightblue" points="1131.52,-142.19 1141.74,-139.39 1132,-135.21 1131.52,-142.19"/>
</g>
<!-- Node3 -->
<g id="node3" class="node">
<title>Node3</title>
<g id="a_node3"><a xlink:href="Ioss__SerializeIO_8C.html" target="_top" xlink:title=" ">
<polygon fill="white" stroke="black" points="751.5,-73 751.5,-92 867.5,-92 867.5,-73 751.5,-73"/>
<text text-anchor="middle" x="809.5" y="-80" font-family="Helvetica,sans-Serif" font-size="10.00">src/Ioss_SerializeIO.C</text>
</a>
</g>
</g>
<!-- Node1&#45;&gt;Node3 -->
<g id="edge2" class="edge">
<title>Node1&#45;&gt;Node3</title>
<path fill="none" stroke="midnightblue" d="M1131.72,-135.14C1066.44,-127.1 964.33,-113.62 876.5,-98 866.77,-96.27 856.31,-94.14 846.61,-92.05"/>
<polygon fill="midnightblue" stroke="midnightblue" points="1131.53,-138.64 1141.88,-136.38 1132.38,-131.69 1131.53,-138.64"/>
</g>
<!-- Node4 -->
<g id="node4" class="node">
<title>Node4</title>
<g id="a_node4"><a xlink:href="Ioss__SubSystem_8h.html" target="_top" xlink:title=" ">
<polygon fill="white" stroke="black" points="885.5,-73 885.5,-92 1001.5,-92 1001.5,-73 885.5,-73"/>
<text text-anchor="middle" x="943.5" y="-80" font-family="Helvetica,sans-Serif" font-size="10.00">src/Ioss_SubSystem.h</text>
</a>
</g>
</g>
<!-- Node1&#45;&gt;Node4 -->
<g id="edge3" class="edge">
<title>Node1&#45;&gt;Node4</title>
<path fill="none" stroke="midnightblue" d="M1152.15,-132.19C1102.67,-120.64 1025.29,-102.58 979.97,-92.01"/>
<polygon fill="midnightblue" stroke="midnightblue" points="1151.43,-135.61 1161.96,-134.48 1153.02,-128.79 1151.43,-135.61"/>
</g>
<!-- Node11 -->
<g id="node11" class="node">
<title>Node11</title>
<g id="a_node11"><a xlink:href="io__shell_8C.html" target="_top" xlink:title=" ">
<polygon fill="white" stroke="black" points="1119,-6 1119,-25 1220,-25 1220,-6 1119,-6"/>
<text text-anchor="middle" x="1169.5" y="-13" font-family="Helvetica,sans-Serif" font-size="10.00">src/main/io_shell.C</text>
</a>
</g>
</g>
<!-- Node1&#45;&gt;Node11 -->
<g id="edge19" class="edge">
<title>Node1&#45;&gt;Node11</title>
<path fill="none" stroke="midnightblue" d="M1174.13,-128.73C1163.55,-121.09 1152.28,-110.64 1146.5,-98 1135.01,-72.86 1152.8,-40.69 1163.06,-25.38"/>
<polygon fill="midnightblue" stroke="midnightblue" points="1172.46,-131.82 1182.72,-134.47 1176.35,-126 1172.46,-131.82"/>
</g>
<!-- Node12 -->
<g id="node12" class="node">
<title>Node12</title>
<g id="a_node12"><a xlink:href="io__shell__ts_8C.html" target="_top" xlink:title=" ">
<polygon fill="white" stroke="black" points="1238.5,-6 1238.5,-25 1352.5,-25 1352.5,-6 1238.5,-6"/>
<text text-anchor="middle" x="1295.5" y="-13" font-family="Helvetica,sans-Serif" font-size="10.00">src/main/io_shell_ts.C</text>
</a>
</g>
</g>
<!-- Node1&#45;&gt;Node12 -->
<g id="edge20" class="edge">
<title>Node1&#45;&gt;Node12</title>
<path fill="none" stroke="midnightblue" d="M1188.53,-125.23C1180.82,-108.87 1173.19,-84.56 1184.5,-67 1198.88,-44.66 1225.84,-32.08 1249.59,-25.07"/>
<polygon fill="midnightblue" stroke="midnightblue" points="1185.48,-126.96 1193.17,-134.25 1191.71,-123.76 1185.48,-126.96"/>
</g>
<!-- Node15 -->
<g id="node15" class="node">
<title>Node15</title>
<g id="a_node15"><a xlink:href="Iovs__exodus__DatabaseIO_8C.html" target="_top" xlink:title=" ">
<polygon fill="white" stroke="black" points="1371,-0.5 1371,-30.5 1514,-30.5 1514,-0.5 1371,-0.5"/>
<text text-anchor="start" x="1379" y="-18.5" font-family="Helvetica,sans-Serif" font-size="10.00">src/visualization/exodus</text>
<text text-anchor="middle" x="1442.5" y="-7.5" font-family="Helvetica,sans-Serif" font-size="10.00">/Iovs_exodus_DatabaseIO.C</text>
</a>
</g>
</g>
<!-- Node1&#45;&gt;Node15 -->
<g id="edge22" class="edge">
<title>Node1&#45;&gt;Node15</title>
<path fill="none" stroke="midnightblue" d="M1197.97,-124.28C1198.55,-107.02 1202.25,-81.88 1217.5,-67 1223.17,-61.47 1307.81,-43.48 1371.62,-30.55"/>
<polygon fill="midnightblue" stroke="midnightblue" points="1194.47,-124.29 1197.96,-134.3 1201.47,-124.3 1194.47,-124.29"/>
</g>
<!-- Node16 -->
<g id="node16" class="node">
<title>Node16</title>
<g id="a_node16"><a xlink:href="Ioad__DatabaseIO_8C.html" target="_top" xlink:title=" ">
<polygon fill="white" stroke="black" points="1226.5,-73 1226.5,-92 1372.5,-92 1372.5,-73 1226.5,-73"/>
<text text-anchor="middle" x="1299.5" y="-80" font-family="Helvetica,sans-Serif" font-size="10.00">src/adios/Ioad_DatabaseIO.C</text>
</a>
</g>
</g>
<!-- Node1&#45;&gt;Node16 -->
<g id="edge15" class="edge">
<title>Node1&#45;&gt;Node16</title>
<path fill="none" stroke="midnightblue" d="M1221.85,-129.24C1241.36,-117.75 1268.57,-101.72 1285.06,-92.01"/>
<polygon fill="midnightblue" stroke="midnightblue" points="1219.81,-126.38 1212.97,-134.48 1223.36,-132.41 1219.81,-126.38"/>
</g>
<!-- Node17 -->
<g id="node17" class="node">
<title>Node17</title>
<g id="a_node17"><a xlink:href="Iocatalyst__DatabaseIO_8C.html" target="_top" xlink:title=" ">
<polygon fill="white" stroke="black" points="1391,-67.5 1391,-97.5 1504,-97.5 1504,-67.5 1391,-67.5"/>
<text text-anchor="start" x="1399" y="-85.5" font-family="Helvetica,sans-Serif" font-size="10.00">src/catalyst/Iocatalyst</text>
<text text-anchor="middle" x="1447.5" y="-74.5" font-family="Helvetica,sans-Serif" font-size="10.00">_DatabaseIO.C</text>
</a>
</g>
</g>
<!-- Node1&#45;&gt;Node17 -->
<g id="edge16" class="edge">
<title>Node1&#45;&gt;Node17</title>
<path fill="none" stroke="midnightblue" d="M1243.96,-132.14C1285.23,-122.27 1346.26,-107.69 1390.73,-97.07"/>
<polygon fill="midnightblue" stroke="midnightblue" points="1243.09,-128.75 1234.18,-134.48 1244.72,-135.56 1243.09,-128.75"/>
</g>
<!-- Node18 -->
<g id="node18" class="node">
<title>Node18</title>
<g id="a_node18"><a xlink:href="Ioex__BaseDatabaseIO_8C.html" target="_top" xlink:title=" ">
<polygon fill="white" stroke="black" points="1522,-73 1522,-92 1699,-92 1699,-73 1522,-73"/>
<text text-anchor="middle" x="1610.5" y="-80" font-family="Helvetica,sans-Serif" font-size="10.00">src/exodus/Ioex_BaseDatabaseIO.C</text>
</a>
</g>
</g>
<!-- Node1&#45;&gt;Node18 -->
<g id="edge17" class="edge">
<title>Node1&#45;&gt;Node18</title>
<path fill="none" stroke="midnightblue" d="M1265.06,-133.62C1328.83,-124.6 1427.76,-110.53 1513.5,-98 1526.56,-96.09 1540.6,-94.01 1553.83,-92.03"/>
<polygon fill="midnightblue" stroke="midnightblue" points="1264.55,-130.16 1255.14,-135.02 1265.53,-137.09 1264.55,-130.16"/>
</g>
<!-- Node19 -->
<g id="node19" class="node">
<title>Node19</title>
<g id="a_node19"><a xlink:href="Ioex__DatabaseIO_8C.html" target="_top" xlink:title=" ">
<polygon fill="white" stroke="black" points="1717,-73 1717,-92 1872,-92 1872,-73 1717,-73"/>
<text text-anchor="middle" x="1794.5" y="-80" font-family="Helvetica,sans-Serif" font-size="10.00">src/exodus/Ioex_DatabaseIO.C</text>
</a>
</g>
</g>
<!-- Node1&#45;&gt;Node19 -->
<g id="edge18" class="edge">
<title>Node1&#45;&gt;Node19</title>
<path fill="none" stroke="midnightblue" d="M1265.28,-138.8C1362.88,-132.27 1550.12,-118.31 1708.5,-98 1721.27,-96.36 1735.04,-94.21 1747.73,-92.08"/>
<polygon fill="midnightblue" stroke="midnightblue" points="1265.01,-135.31 1255.26,-139.46 1265.47,-142.29 1265.01,-135.31"/>
</g>
<!-- Node20 -->
<g id="node20" class="node">
<title>Node20</title>
<g id="a_node20"><a xlink:href="Iotm__DatabaseIO_8C.html" target="_top" xlink:title=" ">
<polygon fill="white" stroke="black" points="1890,-67.5 1890,-97.5 1991,-97.5 1991,-67.5 1890,-67.5"/>
<text text-anchor="start" x="1898" y="-85.5" font-family="Helvetica,sans-Serif" font-size="10.00">src/text_mesh/Iotm</text>
<text text-anchor="middle" x="1940.5" y="-74.5" font-family="Helvetica,sans-Serif" font-size="10.00">_DatabaseIO.C</text>
</a>
</g>
</g>
<!-- Node1&#45;&gt;Node20 -->
<g id="edge21" class="edge">
<title>Node1&#45;&gt;Node20</title>
<path fill="none" stroke="midnightblue" d="M1265.45,-142.47C1388.27,-140.63 1657.55,-132.62 1881.5,-98 1884.21,-97.58 1886.98,-97.1 1889.77,-96.57"/>
<polygon fill="midnightblue" stroke="midnightblue" points="1265.04,-138.97 1255.09,-142.61 1265.13,-145.97 1265.04,-138.97"/>
</g>
<!-- Node5 -->
<g id="node5" class="node">
<title>Node5</title>
<g id="a_node5"><a xlink:href="Ioss__Compare_8C.html" target="_top" xlink:title=" ">
<polygon fill="white" stroke="black" points="994,-6 994,-25 1101,-25 1101,-6 994,-6"/>
<text text-anchor="middle" x="1047.5" y="-13" font-family="Helvetica,sans-Serif" font-size="10.00">src/Ioss_Compare.C</text>
</a>
</g>
</g>
<!-- Node4&#45;&gt;Node5 -->
<g id="edge4" class="edge">
<title>Node4&#45;&gt;Node5</title>
<path fill="none" stroke="midnightblue" d="M966.27,-67.27C986.86,-54.4 1016.49,-35.88 1033.7,-25.13"/>
<polygon fill="midnightblue" stroke="midnightblue" points="964.15,-64.47 957.53,-72.73 967.86,-70.4 964.15,-64.47"/>
</g>
<!-- Node6 -->
<g id="node6" class="node">
<title>Node6</title>
<g id="a_node6"><a xlink:href="Ioss__CopyDatabase_8C.html" target="_top" xlink:title=" ">
<polygon fill="white" stroke="black" points="0,-6 0,-25 133,-25 133,-6 0,-6"/>
<text text-anchor="middle" x="66.5" y="-13" font-family="Helvetica,sans-Serif" font-size="10.00">src/Ioss_CopyDatabase.C</text>
</a>
</g>
</g>
<!-- Node4&#45;&gt;Node6 -->
<g id="edge5" class="edge">
<title>Node4&#45;&gt;Node6</title>
<path fill="none" stroke="midnightblue" d="M899.45,-70.89C891.83,-69.37 883.97,-67.98 876.5,-67 552.69,-24.31 466.81,-69.7 142.5,-31 130.36,-29.55 117.25,-27.3 105.39,-25"/>
<polygon fill="midnightblue" stroke="midnightblue" points="898.75,-74.32 909.26,-72.96 900.2,-67.47 898.75,-74.32"/>
</g>
<!-- Node7 -->
<g id="node7" class="node">
<title>Node7</title>
<g id="a_node7"><a xlink:href="Ioss__Utils_8C.html" target="_top" xlink:title=" ">
<polygon fill="white" stroke="black" points="151.5,-6 151.5,-25 239.5,-25 239.5,-6 151.5,-6"/>
<text text-anchor="middle" x="195.5" y="-13" font-family="Helvetica,sans-Serif" font-size="10.00">src/Ioss_Utils.C</text>
</a>
</g>
</g>
<!-- Node4&#45;&gt;Node7 -->
<g id="edge6" class="edge">
<title>Node4&#45;&gt;Node7</title>
<path fill="none" stroke="midnightblue" d="M898.94,-70.84C891.48,-69.35 883.8,-67.99 876.5,-67 599.48,-29.32 524.4,-76.14 248.5,-31 239.93,-29.6 230.76,-27.36 222.49,-25.06"/>
<polygon fill="midnightblue" stroke="midnightblue" points="898.4,-74.31 908.91,-72.94 899.84,-67.46 898.4,-74.31"/>
</g>
<!-- Node8 -->
<g id="node8" class="node">
<title>Node8</title>
<g id="a_node8"><a xlink:href="Ut__ioad_8C.html" target="_top" xlink:title=" ">
<polygon fill="white" stroke="black" points="258,-0.5 258,-30.5 353,-30.5 353,-0.5 258,-0.5"/>
<text text-anchor="start" x="266" y="-18.5" font-family="Helvetica,sans-Serif" font-size="10.00">src/adios/utest/Ut</text>
<text text-anchor="middle" x="305.5" y="-7.5" font-family="Helvetica,sans-Serif" font-size="10.00">_ioad.C</text>
</a>
</g>
</g>
<!-- Node4&#45;&gt;Node8 -->
<g id="edge7" class="edge">
<title>Node4&#45;&gt;Node8</title>
<path fill="none" stroke="midnightblue" d="M898.68,-70.87C891.3,-69.39 883.71,-68.03 876.5,-67 649.34,-34.65 587.96,-67.91 361.5,-31 358.72,-30.55 355.89,-30.02 353.03,-29.44"/>
<polygon fill="midnightblue" stroke="midnightblue" points="898.04,-74.32 908.55,-72.95 899.48,-67.47 898.04,-74.32"/>
</g>
<!-- Node9 -->
<g id="node9" class="node">
<title>Node9</title>
<g id="a_node9"><a xlink:href="Iocgns__DatabaseIO_8C.html" target="_top" xlink:title=" ">
<polygon fill="white" stroke="black" points="371,-6 371,-25 526,-25 526,-6 371,-6"/>
<text text-anchor="middle" x="448.5" y="-13" font-family="Helvetica,sans-Serif" font-size="10.00">src/cgns/Iocgns_DatabaseIO.C</text>
</a>
</g>
</g>
<!-- Node4&#45;&gt;Node9 -->
<g id="edge8" class="edge">
<title>Node4&#45;&gt;Node9</title>
<path fill="none" stroke="midnightblue" d="M897.41,-70.84C890.43,-69.42 883.29,-68.09 876.5,-67 725.59,-42.8 685.93,-51.72 534.5,-31 521.9,-29.28 508.31,-27.12 495.73,-25.01"/>
<polygon fill="midnightblue" stroke="midnightblue" points="896.97,-74.32 907.47,-72.95 898.41,-67.47 896.97,-74.32"/>
</g>
<!-- Node10 -->
<g id="node10" class="node">
<title>Node10</title>
<g id="a_node10"><a xlink:href="Iofaodel__DatabaseIO_8C.html" target="_top" xlink:title=" ">
<polygon fill="white" stroke="black" points="544,-0.5 544,-30.5 641,-30.5 641,-0.5 544,-0.5"/>
<text text-anchor="start" x="552" y="-18.5" font-family="Helvetica,sans-Serif" font-size="10.00">src/faodel/Iofaodel</text>
<text text-anchor="middle" x="592.5" y="-7.5" font-family="Helvetica,sans-Serif" font-size="10.00">_DatabaseIO.C</text>
</a>
</g>
</g>
<!-- Node4&#45;&gt;Node10 -->
<g id="edge9" class="edge">
<title>Node4&#45;&gt;Node10</title>
<path fill="none" stroke="midnightblue" d="M895.68,-70.81C889.24,-69.47 882.72,-68.17 876.5,-67 776.54,-48.24 750.15,-51.35 650.5,-31 647.45,-30.38 644.32,-29.7 641.16,-28.99"/>
<polygon fill="midnightblue" stroke="midnightblue" points="895.15,-74.28 905.66,-72.93 896.6,-67.43 895.15,-74.28"/>
</g>
<!-- Node4&#45;&gt;Node11 -->
<g id="edge10" class="edge">
<title>Node4&#45;&gt;Node11</title>
<path fill="none" stroke="midnightblue" d="M983.17,-70.09C1027.88,-57.23 1099.55,-36.62 1139.72,-25.06"/>
<polygon fill="midnightblue" stroke="midnightblue" points="982.15,-66.74 973.51,-72.87 984.09,-73.47 982.15,-66.74"/>
</g>
<!-- Node4&#45;&gt;Node12 -->
<g id="edge11" class="edge">
<title>Node4&#45;&gt;Node12</title>
<path fill="none" stroke="midnightblue" d="M1005.66,-71.29C1063.68,-61.58 1152.63,-46.22 1229.5,-31 1238.71,-29.18 1248.6,-27.08 1257.86,-25.05"/>
<polygon fill="midnightblue" stroke="midnightblue" points="1004.84,-67.88 995.55,-72.98 1005.99,-74.78 1004.84,-67.88"/>
</g>
<!-- Node13 -->
<g id="node13" class="node">
<title>Node13</title>
<g id="a_node13"><a xlink:href="struc__to__unstruc_8C.html" target="_top" xlink:title=" ">
<polygon fill="white" stroke="black" points="659.5,-6 659.5,-25 799.5,-25 799.5,-6 659.5,-6"/>
<text text-anchor="middle" x="729.5" y="-13" font-family="Helvetica,sans-Serif" font-size="10.00">src/main/struc_to_unstruc.C</text>
</a>
</g>
</g>
<!-- Node4&#45;&gt;Node13 -->
<g id="edge12" class="edge">
<title>Node4&#45;&gt;Node13</title>
<path fill="none" stroke="midnightblue" d="M905.4,-69.93C863.03,-57.06 795.58,-36.57 757.69,-25.06"/>
<polygon fill="midnightblue" stroke="midnightblue" points="904.5,-73.31 915.08,-72.87 906.53,-66.61 904.5,-73.31"/>
</g>
<!-- Node14 -->
<g id="node14" class="node">
<title>Node14</title>
<g id="a_node14"><a xlink:href="Iopg__DatabaseIO_8C.html" target="_top" xlink:title=" ">
<polygon fill="white" stroke="black" points="817.5,-6 817.5,-25 975.5,-25 975.5,-6 817.5,-6"/>
<text text-anchor="middle" x="896.5" y="-13" font-family="Helvetica,sans-Serif" font-size="10.00">src/pamgen/Iopg_DatabaseIO.C</text>
</a>
</g>
</g>
<!-- Node4&#45;&gt;Node14 -->
<g id="edge13" class="edge">
<title>Node4&#45;&gt;Node14</title>
<path fill="none" stroke="midnightblue" d="M931.14,-64.4C922.01,-51.77 909.95,-35.1 902.74,-25.13"/>
<polygon fill="midnightblue" stroke="midnightblue" points="928.47,-66.68 937.16,-72.73 934.14,-62.58 928.47,-66.68"/>
</g>
<!-- Node4&#45;&gt;Node15 -->
<g id="edge14" class="edge">
<title>Node4&#45;&gt;Node15</title>
<path fill="none" stroke="midnightblue" d="M1011.84,-74.45C1094.75,-65.62 1238.67,-49.4 1361.5,-31 1364.61,-30.53 1367.78,-30.04 1370.98,-29.53"/>
<polygon fill="midnightblue" stroke="midnightblue" points="1011.37,-70.98 1001.8,-75.52 1012.11,-77.94 1011.37,-70.98"/>
</g>
</g>
</svg>
