<?xml version="1.0" encoding="UTF-8" standalone="no"?>
<!DOCTYPE svg PUBLIC "-//W3C//DTD SVG 1.1//EN"
 "http://www.w3.org/Graphics/SVG/1.1/DTD/svg11.dtd">
<!-- Generated by graphviz version 8.1.0 (20230707.0739)
 -->
<!-- Title: src/Ioss_GetLongOpt.h Pages: 1 -->
<!--zoomable 193 -->

<svg id="main" version="1.1" xmlns="http://www.w3.org/2000/svg" xmlns:xlink="http://www.w3.org/1999/xlink" xml:space="preserve" onload="init(evt)">
<style type="text/css"><![CDATA[
.node, .edge {opacity: 0.7;}
.node.selected, .edge.selected {opacity: 1;}
.edge:hover path { stroke: red; }
.edge:hover polygon { stroke: red; fill: red; }
]]></style>

<defs>
  <circle id="rim" cx="0" cy="0" r="7"/>
  <circle id="rim2" cx="0" cy="0" r="3.5"/>
  <g id="zoomPlus">
    <use xlink:href="#rim" fill="#404040"><set attributeName="fill" to="#808080" begin="zoomplus.mouseover" end="zoomplus.mouseout"/></use>
    <path d="M-4,0h8M0,-4v8" fill="none" stroke="white" stroke-width="1.5" pointer-events="none"/>
  </g>
  <g id="zoomMin">
    <use xlink:href="#rim" fill="#404040"><set attributeName="fill" to="#808080" begin="zoomminus.mouseover" end="zoomminus.mouseout"/></use>
    <path d="M-4,0h8" fill="none" stroke="white" stroke-width="1.5" pointer-events="none"/>
  </g>
  <g id="arrowUp" transform="translate(30 24)">
    <use xlink:href="#rim"/>
    <path pointer-events="none" fill="none" stroke="white" stroke-width="1.5" d="M0,-3.0v7 M-2.5,-0.5L0,-3.0L2.5,-0.5"/>
  </g>
  <g id="arrowRight" transform="rotate(90) translate(36 -43)">
    <use xlink:href="#rim"/>
    <path pointer-events="none" fill="none" stroke="white" stroke-width="1.5" d="M0,-3.0v7 M-2.5,-0.5L0,-3.0L2.5,-0.5"/>
  </g>
  <g id="arrowDown" transform="rotate(180) translate(-30 -48)">
    <use xlink:href="#rim"/>
    <path pointer-events="none" fill="none" stroke="white" stroke-width="1.5" d="M0,-3.0v7 M-2.5,-0.5L0,-3.0L2.5,-0.5"/>
  </g>
  <g id="arrowLeft" transform="rotate(270) translate(-36 17)">
    <use xlink:href="#rim"/>
    <path pointer-events="none" fill="none" stroke="white" stroke-width="1.5" d="M0,-3.0v7 M-2.5,-0.5L0,-3.0L2.5,-0.5"/>
  </g>
  <g id="resetDef">
    <use xlink:href="#rim2" fill="#404040"><set attributeName="fill" to="#808080" begin="reset.mouseover" end="reset.mouseout"/></use>
  </g>
</defs>
<script type="application/ecmascript">
var viewWidth = 1327;
var viewHeight = 193;
var sectionId = 'dynsection-1';
</script>
<script type="application/ecmascript" xlink:href="svg.min.js"/>
<svg id="graph" class="graph">
<g id="viewport">
<title>src/Ioss_GetLongOpt.h</title>
<!-- Node1 -->
<g id="Node000001" class="node">
<title>Node1</title>
<g id="a_Node000001"><a xlink:title=" ">
<polygon fill="#999999" stroke="#666666" points="580.38,-185 463.12,-185 463.12,-165.75 580.38,-165.75 580.38,-185"/>
<text text-anchor="middle" x="521.75" y="-171.5" font-family="Helvetica,sans-Serif" font-size="10.00">src/Ioss_GetLongOpt.h</text>
</a>
</g>
</g>
<!-- Node2 -->
<g id="Node000002" class="node">
<title>Node2</title>
<g id="a_Node000002"><a xlink:href="Ioss__GetLongOpt_8C.html" target="_top" xlink:title=" ">
<polygon fill="white" stroke="#666666" points="119.5,-129.75 0,-129.75 0,-110.5 119.5,-110.5 119.5,-129.75"/>
<text text-anchor="middle" x="59.75" y="-116.25" font-family="Helvetica,sans-Serif" font-size="10.00">src/Ioss_GetLongOpt.C</text>
</a>
</g>
</g>
<!-- Node1&#45;&gt;Node2 -->
<g id="edge1_Node000001_Node000002" class="edge">
<title>Node1&#45;&gt;Node2</title>
<g id="a_edge1_Node000001_Node000002"><a xlink:title=" ">
<path fill="none" stroke="#63b8ff" d="M452.07,-166.7C373.49,-158 241.9,-143.25 128.75,-129.75 125.87,-129.41 122.93,-129.05 119.96,-128.69"/>
<polygon fill="#63b8ff" stroke="#63b8ff" points="451.48,-170.27 461.8,-167.89 452.25,-163.31 451.48,-170.27"/>
</a>
</g>
</g>
<!-- Node3 -->
<g id="Node000003" class="node">
<title>Node3</title>
<g id="a_Node000003"><a xlink:href="cgns__decomp_8C.html" target="_top" xlink:title=" ">
<polygon fill="white" stroke="#666666" points="265.62,-129.75 137.88,-129.75 137.88,-110.5 265.62,-110.5 265.62,-129.75"/>
<text text-anchor="middle" x="201.75" y="-116.25" font-family="Helvetica,sans-Serif" font-size="10.00">src/main/cgns_decomp.C</text>
</a>
</g>
</g>
<!-- Node1&#45;&gt;Node3 -->
<g id="edge2_Node000001_Node000003" class="edge">
<title>Node1&#45;&gt;Node3</title>
<g id="a_edge2_Node000001_Node000003"><a xlink:title=" ">
<path fill="none" stroke="#63b8ff" d="M456.43,-163.5C397.5,-153.7 311.83,-139.44 256.44,-130.23"/>
<polygon fill="#63b8ff" stroke="#63b8ff" points="455.66,-167.09 466.1,-165.28 456.81,-160.19 455.66,-167.09"/>
</a>
</g>
</g>
<!-- Node4 -->
<g id="Node000004" class="node">
<title>Node4</title>
<g id="a_Node000004"><a xlink:href="info__interface_8C.html" target="_top" xlink:title=" ">
<polygon fill="white" stroke="#666666" points="252.5,-74.5 127,-74.5 127,-55.25 252.5,-55.25 252.5,-74.5"/>
<text text-anchor="middle" x="189.75" y="-61" font-family="Helvetica,sans-Serif" font-size="10.00">src/main/info_interface.C</text>
</a>
</g>
</g>
<!-- Node1&#45;&gt;Node4 -->
<g id="edge3_Node000001_Node000004" class="edge">
<title>Node1&#45;&gt;Node4</title>
<g id="a_edge3_Node000001_Node000004"><a xlink:title=" ">
<path fill="none" stroke="#63b8ff" d="M452.15,-164.34C410.87,-157.2 357.95,-145.98 312.75,-129.75 310,-128.76 240.43,-92.4 207.16,-74.99"/>
<polygon fill="#63b8ff" stroke="#63b8ff" points="451.48,-167.94 461.92,-166.15 452.64,-161.04 451.48,-167.94"/>
</a>
</g>
</g>
<!-- Node5 -->
<g id="Node000005" class="node">
<title>Node5</title>
<g id="a_Node000005"><a xlink:href="info__interface_8h.html" target="_top" xlink:title=" ">
<polygon fill="white" stroke="#666666" points="445.38,-129.75 322.12,-129.75 322.12,-110.5 445.38,-110.5 445.38,-129.75"/>
<text text-anchor="middle" x="383.75" y="-116.25" font-family="Helvetica,sans-Serif" font-size="10.00">src/main/info_interface.h</text>
</a>
</g>
</g>
<!-- Node1&#45;&gt;Node5 -->
<g id="edge4_Node000001_Node000005" class="edge">
<title>Node1&#45;&gt;Node5</title>
<g id="a_edge4_Node000001_Node000005"><a xlink:title=" ">
<path fill="none" stroke="#63b8ff" d="M488.18,-161.42C463.13,-151.75 429.52,-138.79 407.27,-130.2"/>
<polygon fill="#63b8ff" stroke="#63b8ff" points="486.75,-165.01 497.34,-165.34 489.27,-158.48 486.75,-165.01"/>
</a>
</g>
</g>
<!-- Node9 -->
<g id="Node000009" class="node">
<title>Node9</title>
<g id="a_Node000009"><a xlink:href="modify__interface_8C.html" target="_top" xlink:title=" ">
<polygon fill="white" stroke="#666666" points="520.25,-74.5 381.25,-74.5 381.25,-55.25 520.25,-55.25 520.25,-74.5"/>
<text text-anchor="middle" x="450.75" y="-61" font-family="Helvetica,sans-Serif" font-size="10.00">src/main/modify_interface.C</text>
</a>
</g>
</g>
<!-- Node1&#45;&gt;Node9 -->
<g id="edge9_Node000001_Node000009" class="edge">
<title>Node1&#45;&gt;Node9</title>
<g id="a_edge9_Node000001_Node000009"><a xlink:title=" ">
<path fill="none" stroke="#63b8ff" d="M510.12,-156.6C494.78,-133.16 468.36,-92.78 456.64,-74.88"/>
<polygon fill="#63b8ff" stroke="#63b8ff" points="507.54,-158.04 515.94,-164.5 513.39,-154.21 507.54,-158.04"/>
</a>
</g>
</g>
<!-- Node10 -->
<g id="Node000010" class="node">
<title>Node10</title>
<g id="a_Node000010"><a xlink:href="modify__interface_8h.html" target="_top" xlink:title=" ">
<polygon fill="white" stroke="#666666" points="638.12,-129.75 501.38,-129.75 501.38,-110.5 638.12,-110.5 638.12,-129.75"/>
<text text-anchor="middle" x="569.75" y="-116.25" font-family="Helvetica,sans-Serif" font-size="10.00">src/main/modify_interface.h</text>
</a>
</g>
</g>
<!-- Node1&#45;&gt;Node10 -->
<g id="edge10_Node000001_Node000010" class="edge">
<title>Node1&#45;&gt;Node10</title>
<g id="a_edge10_Node000001_Node000010"><a xlink:title=" ">
<path fill="none" stroke="#63b8ff" d="M536.89,-157.57C545.1,-148.48 554.9,-137.6 561.65,-130.11"/>
<polygon fill="#63b8ff" stroke="#63b8ff" points="534.77,-154.81 530.68,-164.58 539.97,-159.5 534.77,-154.81"/>
</a>
</g>
</g>
<!-- Node12 -->
<g id="Node000012" class="node">
<title>Node12</title>
<g id="a_Node000012"><a xlink:href="shell__interface_8C.html" target="_top" xlink:title=" ">
<polygon fill="white" stroke="#666666" points="793.75,-74.5 663.75,-74.5 663.75,-55.25 793.75,-55.25 793.75,-74.5"/>
<text text-anchor="middle" x="728.75" y="-61" font-family="Helvetica,sans-Serif" font-size="10.00">src/main/shell_interface.C</text>
</a>
</g>
</g>
<!-- Node1&#45;&gt;Node12 -->
<g id="edge13_Node000001_Node000012" class="edge">
<title>Node1&#45;&gt;Node12</title>
<g id="a_edge13_Node000001_Node000012"><a xlink:title=" ">
<path fill="none" stroke="#63b8ff" d="M566.61,-162.17C591.11,-154.58 621.5,-143.62 646.75,-129.75 675.54,-113.94 704.84,-88.32 719.37,-74.84"/>
<polygon fill="#63b8ff" stroke="#63b8ff" points="565.73,-159.09 557.16,-165.32 567.75,-165.79 565.73,-159.09"/>
</a>
</g>
</g>
<!-- Node13 -->
<g id="Node000013" class="node">
<title>Node13</title>
<g id="a_Node000013"><a xlink:href="shell__interface_8h.html" target="_top" xlink:title=" ">
<polygon fill="white" stroke="#666666" points="889.62,-129.75 761.88,-129.75 761.88,-110.5 889.62,-110.5 889.62,-129.75"/>
<text text-anchor="middle" x="825.75" y="-116.25" font-family="Helvetica,sans-Serif" font-size="10.00">src/main/shell_interface.h</text>
</a>
</g>
</g>
<!-- Node1&#45;&gt;Node13 -->
<g id="edge14_Node000001_Node000013" class="edge">
<title>Node1&#45;&gt;Node13</title>
<g id="a_edge14_Node000001_Node000013"><a xlink:title=" ">
<path fill="none" stroke="#63b8ff" d="M584.16,-163.44C640.12,-153.64 721.29,-139.42 773.8,-130.23"/>
<polygon fill="#63b8ff" stroke="#63b8ff" points="583.91,-160.11 574.66,-165.28 585.12,-167 583.91,-160.11"/>
</a>
</g>
</g>
<!-- Node16 -->
<g id="Node000016" class="node">
<title>Node16</title>
<g id="a_Node000016"><a xlink:href="skinner__interface_8C.html" target="_top" xlink:title=" ">
<polygon fill="white" stroke="#666666" points="1202.38,-74.5 1061.12,-74.5 1061.12,-55.25 1202.38,-55.25 1202.38,-74.5"/>
<text text-anchor="middle" x="1131.75" y="-61" font-family="Helvetica,sans-Serif" font-size="10.00">src/main/skinner_interface.C</text>
</a>
</g>
</g>
<!-- Node1&#45;&gt;Node16 -->
<g id="edge18_Node000001_Node000016" class="edge">
<title>Node1&#45;&gt;Node16</title>
<g id="a_edge18_Node000001_Node000016"><a xlink:title=" ">
<path fill="none" stroke="#63b8ff" d="M591.47,-169.27C667.51,-162.97 792.55,-150.47 898.75,-129.75 974.09,-115.05 1060.78,-88.73 1104.09,-74.91"/>
<polygon fill="#63b8ff" stroke="#63b8ff" points="591.3,-165.85 581.62,-170.15 591.87,-172.83 591.3,-165.85"/>
</a>
</g>
</g>
<!-- Node17 -->
<g id="Node000017" class="node">
<title>Node17</title>
<g id="a_Node000017"><a xlink:href="skinner__interface_8h.html" target="_top" xlink:title=" ">
<polygon fill="white" stroke="#666666" points="1201.25,-129.75 1062.25,-129.75 1062.25,-110.5 1201.25,-110.5 1201.25,-129.75"/>
<text text-anchor="middle" x="1131.75" y="-116.25" font-family="Helvetica,sans-Serif" font-size="10.00">src/main/skinner_interface.h</text>
</a>
</g>
</g>
<!-- Node1&#45;&gt;Node17 -->
<g id="edge19_Node000001_Node000017" class="edge">
<title>Node1&#45;&gt;Node17</title>
<g id="a_edge19_Node000001_Node000017"><a xlink:title=" ">
<path fill="none" stroke="#63b8ff" d="M591.43,-168.29C708.8,-158.05 944.57,-137.46 1061.99,-127.21"/>
<polygon fill="#63b8ff" stroke="#63b8ff" points="591.45,-164.86 581.79,-169.22 592.06,-171.84 591.45,-164.86"/>
</a>
</g>
</g>
<!-- Node5&#45;&gt;Node4 -->
<g id="edge5_Node000005_Node000004" class="edge">
<title>Node5&#45;&gt;Node4</title>
<g id="a_edge5_Node000005_Node000004"><a xlink:title=" ">
<path fill="none" stroke="#63b8ff" d="M340.29,-107.2C304.74,-97.44 255.21,-83.84 222.82,-74.95"/>
<polygon fill="#63b8ff" stroke="#63b8ff" points="339.27,-110.82 349.84,-110.09 341.12,-104.07 339.27,-110.82"/>
</a>
</g>
</g>
<!-- Node6 -->
<g id="Node000006" class="node">
<title>Node6</title>
<g id="a_Node000006"><a xlink:href="io__info_8h.html" target="_top" xlink:title=" ">
<polygon fill="white" stroke="#666666" points="363.38,-74.5 270.12,-74.5 270.12,-55.25 363.38,-55.25 363.38,-74.5"/>
<text text-anchor="middle" x="316.75" y="-61" font-family="Helvetica,sans-Serif" font-size="10.00">src/main/io_info.h</text>
</a>
</g>
</g>
<!-- Node5&#45;&gt;Node6 -->
<g id="edge6_Node000005_Node000006" class="edge">
<title>Node5&#45;&gt;Node6</title>
<g id="a_edge6_Node000005_Node000006"><a xlink:title=" ">
<path fill="none" stroke="#63b8ff" d="M364.05,-103.47C352.29,-94.12 337.77,-82.58 327.95,-74.77"/>
<polygon fill="#63b8ff" stroke="#63b8ff" points="361.38,-106.61 371.38,-110.09 365.73,-101.13 361.38,-106.61"/>
</a>
</g>
</g>
<!-- Node7 -->
<g id="Node000007" class="node">
<title>Node7</title>
<g id="a_Node000007"><a xlink:href="io__info_8C.html" target="_top" xlink:title=" ">
<polygon fill="white" stroke="#666666" points="301.5,-19.25 206,-19.25 206,0 301.5,0 301.5,-19.25"/>
<text text-anchor="middle" x="253.75" y="-5.75" font-family="Helvetica,sans-Serif" font-size="10.00">src/main/io_info.C</text>
</a>
</g>
</g>
<!-- Node6&#45;&gt;Node7 -->
<g id="edge7_Node000006_Node000007" class="edge">
<title>Node6&#45;&gt;Node7</title>
<g id="a_edge7_Node000006_Node000007"><a xlink:title=" ">
<path fill="none" stroke="#63b8ff" d="M297.9,-47.94C286.9,-38.64 273.43,-27.26 264.28,-19.52"/>
<polygon fill="#63b8ff" stroke="#63b8ff" points="295.17,-51.06 305.06,-54.84 299.68,-45.71 295.17,-51.06"/>
</a>
</g>
</g>
<!-- Node8 -->
<g id="Node000008" class="node">
<title>Node8</title>
<g id="a_Node000008"><a xlink:href="io__info__main_8C.html" target="_top" xlink:title=" ">
<polygon fill="white" stroke="#666666" points="441.62,-19.25 319.88,-19.25 319.88,0 441.62,0 441.62,-19.25"/>
<text text-anchor="middle" x="380.75" y="-5.75" font-family="Helvetica,sans-Serif" font-size="10.00">src/main/io_info_main.C</text>
</a>
</g>
</g>
<!-- Node6&#45;&gt;Node8 -->
<g id="edge8_Node000006_Node000008" class="edge">
<title>Node6&#45;&gt;Node8</title>
<g id="a_edge8_Node000006_Node000008"><a xlink:title=" ">
<path fill="none" stroke="#63b8ff" d="M335.9,-47.94C347.08,-38.64 360.76,-27.26 370.05,-19.52"/>
<polygon fill="#63b8ff" stroke="#63b8ff" points="334.06,-45.76 328.61,-54.84 338.53,-51.14 334.06,-45.76"/>
</a>
</g>
</g>
<!-- Node10&#45;&gt;Node9 -->
<g id="edge12_Node000010_Node000009" class="edge">
<title>Node10&#45;&gt;Node9</title>
<g id="a_edge12_Node000010_Node000009"><a xlink:title=" ">
<path fill="none" stroke="#63b8ff" d="M539.64,-105.65C518.17,-96.04 489.87,-83.38 471.04,-74.95"/>
<polygon fill="#63b8ff" stroke="#63b8ff" points="538.01,-109.2 548.56,-110.09 540.87,-102.81 538.01,-109.2"/>
</a>
</g>
</g>
<!-- Node11 -->
<g id="Node000011" class="node">
<title>Node11</title>
<g id="a_Node000011"><a xlink:href="io__modify_8C.html" target="_top" xlink:title=" ">
<polygon fill="white" stroke="#666666" points="645.5,-74.5 538,-74.5 538,-55.25 645.5,-55.25 645.5,-74.5"/>
<text text-anchor="middle" x="591.75" y="-61" font-family="Helvetica,sans-Serif" font-size="10.00">src/main/io_modify.C</text>
</a>
</g>
</g>
<!-- Node10&#45;&gt;Node11 -->
<g id="edge11_Node000010_Node000011" class="edge">
<title>Node10&#45;&gt;Node11</title>
<g id="a_edge11_Node000010_Node000011"><a xlink:title=" ">
<path fill="none" stroke="#63b8ff" d="M577.52,-100.33C581.09,-91.67 585.17,-81.81 588.04,-74.86"/>
<polygon fill="#63b8ff" stroke="#63b8ff" points="573.97,-98.75 573.38,-109.33 580.44,-101.43 573.97,-98.75"/>
</a>
</g>
</g>
<!-- Node13&#45;&gt;Node12 -->
<g id="edge17_Node000013_Node000012" class="edge">
<title>Node13&#45;&gt;Node12</title>
<g id="a_edge17_Node000013_Node000012"><a xlink:title=" ">
<path fill="none" stroke="#63b8ff" d="M799.76,-104.86C782.45,-95.36 760.22,-83.15 745.29,-74.95"/>
<polygon fill="#63b8ff" stroke="#63b8ff" points="797.84,-108.35 808.3,-110.09 801.21,-102.21 797.84,-108.35"/>
</a>
</g>
</g>
<!-- Node14 -->
<g id="Node000014" class="node">
<title>Node14</title>
<g id="a_Node000014"><a xlink:href="io__shell_8C.html" target="_top" xlink:title=" ">
<polygon fill="white" stroke="#666666" points="911.75,-74.5 811.75,-74.5 811.75,-55.25 911.75,-55.25 911.75,-74.5"/>
<text text-anchor="middle" x="861.75" y="-61" font-family="Helvetica,sans-Serif" font-size="10.00">src/main/io_shell.C</text>
</a>
</g>
</g>
<!-- Node13&#45;&gt;Node14 -->
<g id="edge15_Node000013_Node000014" class="edge">
<title>Node13&#45;&gt;Node14</title>
<g id="a_edge15_Node000013_Node000014"><a xlink:title=" ">
<path fill="none" stroke="#63b8ff" d="M837.68,-101.47C843.71,-92.56 850.77,-82.12 855.68,-74.86"/>
<polygon fill="#63b8ff" stroke="#63b8ff" points="834.4,-99.09 831.69,-109.33 840.2,-103.01 834.4,-99.09"/>
</a>
</g>
</g>
<!-- Node15 -->
<g id="Node000015" class="node">
<title>Node15</title>
<g id="a_Node000015"><a xlink:href="io__shell__ts_8C.html" target="_top" xlink:title=" ">
<polygon fill="white" stroke="#666666" points="1043.5,-74.5 930,-74.5 930,-55.25 1043.5,-55.25 1043.5,-74.5"/>
<text text-anchor="middle" x="986.75" y="-61" font-family="Helvetica,sans-Serif" font-size="10.00">src/main/io_shell_ts.C</text>
</a>
</g>
</g>
<!-- Node13&#45;&gt;Node15 -->
<g id="edge16_Node000013_Node000015" class="edge">
<title>Node13&#45;&gt;Node15</title>
<g id="a_edge16_Node000013_Node000015"><a xlink:title=" ">
<path fill="none" stroke="#63b8ff" d="M863.35,-106.69C892.74,-96.97 932.89,-83.69 959.3,-74.95"/>
<polygon fill="#63b8ff" stroke="#63b8ff" points="862.46,-103.63 854.06,-110.09 864.65,-110.27 862.46,-103.63"/>
</a>
</g>
</g>
<!-- Node17&#45;&gt;Node16 -->
<g id="edge21_Node000017_Node000016" class="edge">
<title>Node17&#45;&gt;Node16</title>
<g id="a_edge21_Node000017_Node000016"><a xlink:title=" ">
<path fill="none" stroke="#63b8ff" d="M1131.75,-99.46C1131.75,-91.02 1131.75,-81.58 1131.75,-74.86"/>
<polygon fill="#63b8ff" stroke="#63b8ff" points="1128.25,-99.33 1131.75,-109.33 1135.25,-99.33 1128.25,-99.33"/>
</a>
</g>
</g>
<!-- Node18 -->
<g id="Node000018" class="node">
<title>Node18</title>
<g id="a_Node000018"><a xlink:href="skinner_8C.html" target="_top" xlink:title=" ">
<polygon fill="white" stroke="#666666" points="1318.62,-74.5 1220.88,-74.5 1220.88,-55.25 1318.62,-55.25 1318.62,-74.5"/>
<text text-anchor="middle" x="1269.75" y="-61" font-family="Helvetica,sans-Serif" font-size="10.00">src/main/skinner.C</text>
</a>
</g>
</g>
<!-- Node17&#45;&gt;Node18 -->
<g id="edge20_Node000017_Node000018" class="edge">
<title>Node17&#45;&gt;Node18</title>
<g id="a_edge20_Node000017_Node000018"><a xlink:title=" ">
<path fill="none" stroke="#63b8ff" d="M1165.32,-106.17C1190.37,-96.5 1223.98,-83.54 1246.23,-74.95"/>
<polygon fill="#63b8ff" stroke="#63b8ff" points="1164.23,-103.23 1156.16,-110.09 1166.75,-109.76 1164.23,-103.23"/>
</a>
</g>
</g>
</g>
</svg>

<g id="navigator" transform="translate(0 0)" fill="#404254">
  <rect fill="#f2f5e9" fill-opacity="0.5" stroke="#606060" stroke-width=".5" x="0" y="0" width="60" height="60"/>
  <use id="zoomplus" xlink:href="#zoomPlus" x="17" y="9" onmousedown="handleZoom(evt,'in')"/>
  <use id="zoomminus" xlink:href="#zoomMin" x="42" y="9" onmousedown="handleZoom(evt,'out')"/>
  <use id="reset" xlink:href="#resetDef" x="30" y="36" onmousedown="handleReset()"/>
   <use id="arrowup" xlink:href="#arrowUp" x="0" y="0" onmousedown="handlePan(0,-1)"/>
  <use id="arrowright" xlink:href="#arrowRight" x="0" y="0" onmousedown="handlePan(1,0)"/>
  <use id="arrowdown" xlink:href="#arrowDown" x="0" y="0" onmousedown="handlePan(0,1)"/>
  <use id="arrowleft" xlink:href="#arrowLeft" x="0" y="0" onmousedown="handlePan(-1,0)"/>
</g>
<svg viewBox="0 0 15 15" width="100%" height="30px" preserveAspectRatio="xMaxYMin meet">
 <g id="arrow_out" transform="scale(0.3 0.3)">
  <a xlink:href="Ioss__GetLongOpt_8h__dep__incl_org.svg" target="_base">
   <rect id="button" ry="5" rx="5" y="6" x="6" height="38" width="38"
        fill="#f2f5e9" fill-opacity="0.5" stroke="#606060" stroke-width="1.0"/>
   <path id="arrow"
     d="M 11.500037,31.436501 C 11.940474,20.09759 22.043105,11.32322 32.158766,21.979434 L 37.068811,17.246167 C 37.068811,17.246167 37.088388,32 37.088388,32 L 22.160133,31.978069 C 22.160133,31.978069 26.997745,27.140456 26.997745,27.140456 C 18.528582,18.264221 13.291696,25.230495 11.500037,31.436501 z"
     style="fill:#404040;"/>
  </a>
 </g>
</svg>

<style type='text/css'>
<![CDATA[
[data-mouse-over-selected='false'] { opacity: 0.7; }
[data-mouse-over-selected='true']  { opacity: 1.0; }
]]>
</style>
<script type="application/ecmascript"><![CDATA[
document.addEventListener('DOMContentLoaded', (event) => {
  highlightEdges();
  highlightAdjacentNodes();
});
]]></script>
</svg>
