<?xml version="1.0" encoding="UTF-8" standalone="no"?>
<!DOCTYPE svg PUBLIC "-//W3C//DTD SVG 1.1//EN"
 "http://www.w3.org/Graphics/SVG/1.1/DTD/svg11.dtd">
<!-- Generated by graphviz version 8.1.0 (20230707.0739)
 -->
<!-- Title: src/Ioss_CommSet.h Pages: 1 -->
<!--zoomable 160 -->

<svg id="main" version="1.1" xmlns="http://www.w3.org/2000/svg" xmlns:xlink="http://www.w3.org/1999/xlink" xml:space="preserve" onload="init(evt)">
<style type="text/css"><![CDATA[
.node, .edge {opacity: 0.7;}
.node.selected, .edge.selected {opacity: 1;}
.edge:hover path { stroke: red; }
.edge:hover polygon { stroke: red; fill: red; }
]]></style>

<defs>
  <circle id="rim" cx="0" cy="0" r="7"/>
  <circle id="rim2" cx="0" cy="0" r="3.5"/>
  <g id="zoomPlus">
    <use xlink:href="#rim" fill="#404040"><set attributeName="fill" to="#808080" begin="zoomplus.mouseover" end="zoomplus.mouseout"/></use>
    <path d="M-4,0h8M0,-4v8" fill="none" stroke="white" stroke-width="1.5" pointer-events="none"/>
  </g>
  <g id="zoomMin">
    <use xlink:href="#rim" fill="#404040"><set attributeName="fill" to="#808080" begin="zoomminus.mouseover" end="zoomminus.mouseout"/></use>
    <path d="M-4,0h8" fill="none" stroke="white" stroke-width="1.5" pointer-events="none"/>
  </g>
  <g id="arrowUp" transform="translate(30 24)">
    <use xlink:href="#rim"/>
    <path pointer-events="none" fill="none" stroke="white" stroke-width="1.5" d="M0,-3.0v7 M-2.5,-0.5L0,-3.0L2.5,-0.5"/>
  </g>
  <g id="arrowRight" transform="rotate(90) translate(36 -43)">
    <use xlink:href="#rim"/>
    <path pointer-events="none" fill="none" stroke="white" stroke-width="1.5" d="M0,-3.0v7 M-2.5,-0.5L0,-3.0L2.5,-0.5"/>
  </g>
  <g id="arrowDown" transform="rotate(180) translate(-30 -48)">
    <use xlink:href="#rim"/>
    <path pointer-events="none" fill="none" stroke="white" stroke-width="1.5" d="M0,-3.0v7 M-2.5,-0.5L0,-3.0L2.5,-0.5"/>
  </g>
  <g id="arrowLeft" transform="rotate(270) translate(-36 17)">
    <use xlink:href="#rim"/>
    <path pointer-events="none" fill="none" stroke="white" stroke-width="1.5" d="M0,-3.0v7 M-2.5,-0.5L0,-3.0L2.5,-0.5"/>
  </g>
  <g id="resetDef">
    <use xlink:href="#rim2" fill="#404040"><set attributeName="fill" to="#808080" begin="reset.mouseover" end="reset.mouseout"/></use>
  </g>
</defs>
<script type="application/ecmascript">
var viewWidth = 3170;
var viewHeight = 160;
var sectionId = 'dynsection-1';
</script>
<script type="application/ecmascript" xlink:href="svg.min.js"/>
<svg id="graph" class="graph">
<g id="viewport">
<title>src/Ioss_CommSet.h</title>
<!-- Node1 -->
<g id="Node000001" class="node">
<title>Node1</title>
<g id="a_Node000001"><a xlink:title=" ">
<polygon fill="#999999" stroke="#666666" points="1849.5,-152.25 1740.5,-152.25 1740.5,-133 1849.5,-133 1849.5,-152.25"/>
<text text-anchor="middle" x="1795" y="-138.75" font-family="Helvetica,sans-Serif" font-size="10.00">src/Ioss_CommSet.h</text>
</a>
</g>
</g>
<!-- Node2 -->
<g id="Node000002" class="node">
<title>Node2</title>
<g id="a_Node000002"><a xlink:href="Ioss__CommSet_8C.html" target="_top" xlink:title=" ">
<polygon fill="white" stroke="#666666" points="386.62,-91.38 275.38,-91.38 275.38,-72.12 386.62,-72.12 386.62,-91.38"/>
<text text-anchor="middle" x="331" y="-77.88" font-family="Helvetica,sans-Serif" font-size="10.00">src/Ioss_CommSet.C</text>
</a>
</g>
</g>
<!-- Node1&#45;&gt;Node2 -->
<g id="edge1_Node000001_Node000002" class="edge">
<title>Node1&#45;&gt;Node2</title>
<g id="a_edge1_Node000001_Node000002"><a xlink:title=" ">
<path fill="none" stroke="#63b8ff" d="M1729.18,-141.13C1488.83,-139.08 658.89,-129.73 396,-97 386.48,-95.82 376.31,-93.9 366.9,-91.85"/>
<polygon fill="#63b8ff" stroke="#63b8ff" points="1729.15,-144.64 1739.17,-141.22 1729.2,-137.64 1729.15,-144.64"/>
</a>
</g>
</g>
<!-- Node3 -->
<g id="Node000003" class="node">
<title>Node3</title>
<g id="a_Node000003"><a xlink:href="Ioss__FaceGenerator_8C.html" target="_top" xlink:title=" ">
<polygon fill="white" stroke="#666666" points="535.38,-91.38 404.62,-91.38 404.62,-72.12 535.38,-72.12 535.38,-91.38"/>
<text text-anchor="middle" x="470" y="-77.88" font-family="Helvetica,sans-Serif" font-size="10.00">src/Ioss_FaceGenerator.C</text>
</a>
</g>
</g>
<!-- Node1&#45;&gt;Node3 -->
<g id="edge2_Node000001_Node000003" class="edge">
<title>Node1&#45;&gt;Node3</title>
<g id="a_edge2_Node000001_Node000003"><a xlink:title=" ">
<path fill="none" stroke="#63b8ff" d="M1729.17,-140.62C1505.68,-137 776.93,-123.42 544,-97 533.34,-95.79 521.92,-93.89 511.31,-91.87"/>
<polygon fill="#63b8ff" stroke="#63b8ff" points="1729,-144.13 1739.05,-140.8 1729.11,-137.14 1729,-144.13"/>
</a>
</g>
</g>
<!-- Node4 -->
<g id="Node000004" class="node">
<title>Node4</title>
<g id="a_Node000004"><a xlink:href="Ioss__Region_8C.html" target="_top" xlink:title=" ">
<polygon fill="white" stroke="#666666" points="650.88,-91.38 553.12,-91.38 553.12,-72.12 650.88,-72.12 650.88,-91.38"/>
<text text-anchor="middle" x="602" y="-77.88" font-family="Helvetica,sans-Serif" font-size="10.00">src/Ioss_Region.C</text>
</a>
</g>
</g>
<!-- Node1&#45;&gt;Node4 -->
<g id="edge3_Node000001_Node000004" class="edge">
<title>Node1&#45;&gt;Node4</title>
<g id="a_edge3_Node000001_Node000004"><a xlink:title=" ">
<path fill="none" stroke="#63b8ff" d="M1729.3,-140.78C1519.71,-137.82 868.62,-126.42 660,-97 651.48,-95.8 642.39,-93.88 633.99,-91.83"/>
<polygon fill="#63b8ff" stroke="#63b8ff" points="1729.07,-144.29 1739.12,-140.93 1729.17,-137.29 1729.07,-144.29"/>
</a>
</g>
</g>
<!-- Node5 -->
<g id="Node000005" class="node">
<title>Node5</title>
<g id="a_Node000005"><a xlink:href="Ioss__SubSystem_8h.html" target="_top" xlink:title=" ">
<polygon fill="white" stroke="#666666" points="944.88,-91.38 829.12,-91.38 829.12,-72.12 944.88,-72.12 944.88,-91.38"/>
<text text-anchor="middle" x="887" y="-77.88" font-family="Helvetica,sans-Serif" font-size="10.00">src/Ioss_SubSystem.h</text>
</a>
</g>
</g>
<!-- Node1&#45;&gt;Node5 -->
<g id="edge4_Node000001_Node000005" class="edge">
<title>Node1&#45;&gt;Node5</title>
<g id="a_edge4_Node000001_Node000005"><a xlink:title=" ">
<path fill="none" stroke="#63b8ff" d="M1729.44,-141.63C1587.45,-140.87 1241.14,-134.92 954,-97 944.45,-95.74 934.24,-93.85 924.73,-91.86"/>
<polygon fill="#63b8ff" stroke="#63b8ff" points="1729.1,-145.13 1739.12,-141.68 1729.14,-138.13 1729.1,-145.13"/>
</a>
</g>
</g>
<!-- Node11 -->
<g id="Node000011" class="node">
<title>Node11</title>
<g id="a_Node000011"><a xlink:href="Iofaodel__DatabaseIO_8C.html" target="_top" xlink:title=" ">
<polygon fill="white" stroke="#666666" points="220.12,-30.5 123.88,-30.5 123.88,0 220.12,0 220.12,-30.5"/>
<text text-anchor="start" x="131.88" y="-17" font-family="Helvetica,sans-Serif" font-size="10.00">src/faodel/Iofaodel</text>
<text text-anchor="middle" x="172" y="-5.75" font-family="Helvetica,sans-Serif" font-size="10.00">_DatabaseIO.C</text>
</a>
</g>
</g>
<!-- Node1&#45;&gt;Node11 -->
<g id="edge24_Node000001_Node000011" class="edge">
<title>Node1&#45;&gt;Node11</title>
<g id="a_edge24_Node000001_Node000011"><a xlink:title=" ">
<path fill="none" stroke="#63b8ff" d="M1729.45,-140.98C1524.5,-138.62 904.49,-128.9 820,-97 799.74,-89.35 802.19,-74.34 782,-66.5 667.21,-21.89 350.67,-49.51 229,-30.5 226.18,-30.06 223.29,-29.54 220.39,-28.98"/>
<polygon fill="#63b8ff" stroke="#63b8ff" points="1729.29,-144.49 1739.33,-141.1 1729.37,-137.49 1729.29,-144.49"/>
</a>
</g>
</g>
<!-- Node16 -->
<g id="Node000016" class="node">
<title>Node16</title>
<g id="a_Node000016"><a xlink:href="Ut__ioad_8C.html" target="_top" xlink:title=" ">
<polygon fill="white" stroke="#666666" points="1924.75,-24.88 1823.25,-24.88 1823.25,-5.63 1924.75,-5.63 1924.75,-24.88"/>
<text text-anchor="middle" x="1874" y="-11.38" font-family="Helvetica,sans-Serif" font-size="10.00">src/utest/Ut_ioad.C</text>
</a>
</g>
</g>
<!-- Node1&#45;&gt;Node16 -->
<g id="edge41_Node000001_Node000016" class="edge">
<title>Node1&#45;&gt;Node16</title>
<g id="a_edge41_Node000001_Node000016"><a xlink:title=" ">
<path fill="none" stroke="#63b8ff" d="M1819.67,-126.52C1830.36,-118.86 1842.18,-108.7 1850,-97 1865.44,-73.89 1871.18,-40.61 1873.12,-24.98"/>
<polygon fill="#63b8ff" stroke="#63b8ff" points="1818.03,-124.08 1811.71,-132.58 1821.95,-129.88 1818.03,-124.08"/>
</a>
</g>
</g>
<!-- Node19 -->
<g id="Node000019" class="node">
<title>Node19</title>
<g id="a_Node000019"><a xlink:href="Ioad__DatabaseIO_8C.html" target="_top" xlink:title=" ">
<polygon fill="white" stroke="#666666" points="1108.88,-91.38 963.12,-91.38 963.12,-72.12 1108.88,-72.12 1108.88,-91.38"/>
<text text-anchor="middle" x="1036" y="-77.88" font-family="Helvetica,sans-Serif" font-size="10.00">src/adios/Ioad_DatabaseIO.C</text>
</a>
</g>
</g>
<!-- Node1&#45;&gt;Node19 -->
<g id="edge18_Node000001_Node000019" class="edge">
<title>Node1&#45;&gt;Node19</title>
<g id="a_edge18_Node000001_Node000019"><a xlink:title=" ">
<path fill="none" stroke="#63b8ff" d="M1729.5,-139.62C1608.4,-135.4 1341.43,-123.7 1118,-97 1106.67,-95.65 1094.52,-93.77 1083.14,-91.82"/>
<polygon fill="#63b8ff" stroke="#63b8ff" points="1729.3,-143.15 1739.41,-139.99 1729.54,-136.15 1729.3,-143.15"/>
</a>
</g>
</g>
<!-- Node20 -->
<g id="Node000020" class="node">
<title>Node20</title>
<g id="a_Node000020"><a xlink:href="Iocatalyst__DatabaseIO_8C.html" target="_top" xlink:title=" ">
<polygon fill="white" stroke="#666666" points="1239.38,-97 1126.62,-97 1126.62,-66.5 1239.38,-66.5 1239.38,-97"/>
<text text-anchor="start" x="1134.62" y="-83.5" font-family="Helvetica,sans-Serif" font-size="10.00">src/catalyst/Iocatalyst</text>
<text text-anchor="middle" x="1183" y="-72.25" font-family="Helvetica,sans-Serif" font-size="10.00">_DatabaseIO.C</text>
</a>
</g>
</g>
<!-- Node1&#45;&gt;Node20 -->
<g id="edge19_Node000001_Node000020" class="edge">
<title>Node1&#45;&gt;Node20</title>
<g id="a_edge19_Node000001_Node000020"><a xlink:title=" ">
<path fill="none" stroke="#63b8ff" d="M1729.26,-139.04C1626.37,-134.36 1421.24,-122.52 1249,-97 1245.99,-96.55 1242.9,-96.05 1239.8,-95.51"/>
<polygon fill="#63b8ff" stroke="#63b8ff" points="1728.95,-142.57 1739.09,-139.52 1729.26,-135.58 1728.95,-142.57"/>
</a>
</g>
</g>
<!-- Node21 -->
<g id="Node000021" class="node">
<title>Node21</title>
<g id="a_Node000021"><a xlink:href="Ioex__BaseDatabaseIO_8C.html" target="_top" xlink:title=" ">
<polygon fill="white" stroke="#666666" points="1434.25,-91.38 1257.75,-91.38 1257.75,-72.12 1434.25,-72.12 1434.25,-91.38"/>
<text text-anchor="middle" x="1346" y="-77.88" font-family="Helvetica,sans-Serif" font-size="10.00">src/exodus/Ioex_BaseDatabaseIO.C</text>
</a>
</g>
</g>
<!-- Node1&#45;&gt;Node21 -->
<g id="edge20_Node000001_Node000021" class="edge">
<title>Node1&#45;&gt;Node21</title>
<g id="a_edge20_Node000001_Node000021"><a xlink:title=" ">
<path fill="none" stroke="#63b8ff" d="M1729.56,-133.72C1658.84,-125.09 1542.85,-110.66 1443,-97 1431.28,-95.4 1418.77,-93.61 1406.77,-91.87"/>
<polygon fill="#63b8ff" stroke="#63b8ff" points="1728.73,-137.27 1739.08,-135 1729.58,-130.32 1728.73,-137.27"/>
</a>
</g>
</g>
<!-- Node22 -->
<g id="Node000022" class="node">
<title>Node22</title>
<g id="a_Node000022"><a xlink:href="Ioex__DatabaseIO_8C.html" target="_top" xlink:title=" ">
<polygon fill="white" stroke="#666666" points="1606,-91.38 1452,-91.38 1452,-72.12 1606,-72.12 1606,-91.38"/>
<text text-anchor="middle" x="1529" y="-77.88" font-family="Helvetica,sans-Serif" font-size="10.00">src/exodus/Ioex_DatabaseIO.C</text>
</a>
</g>
</g>
<!-- Node1&#45;&gt;Node22 -->
<g id="edge21_Node000001_Node000022" class="edge">
<title>Node1&#45;&gt;Node22</title>
<g id="a_edge21_Node000001_Node000022"><a xlink:title=" ">
<path fill="none" stroke="#63b8ff" d="M1743.31,-130.19C1692.71,-118.98 1616.62,-102.14 1570.03,-91.83"/>
<polygon fill="#63b8ff" stroke="#63b8ff" points="1742.5,-133.81 1753.02,-132.55 1744.01,-126.98 1742.5,-133.81"/>
</a>
</g>
</g>
<!-- Node23 -->
<g id="Node000023" class="node">
<title>Node23</title>
<g id="a_Node000023"><a xlink:href="Ioexnl__BaseDatabaseIO_8C.html" target="_top" xlink:title=" ">
<polygon fill="white" stroke="#666666" points="1730.38,-97 1623.62,-97 1623.62,-66.5 1730.38,-66.5 1730.38,-97"/>
<text text-anchor="start" x="1631.62" y="-83.5" font-family="Helvetica,sans-Serif" font-size="10.00">src/exonull/Ioexnl</text>
<text text-anchor="middle" x="1677" y="-72.25" font-family="Helvetica,sans-Serif" font-size="10.00">_BaseDatabaseIO.C</text>
</a>
</g>
</g>
<!-- Node1&#45;&gt;Node23 -->
<g id="edge22_Node000001_Node000023" class="edge">
<title>Node1&#45;&gt;Node23</title>
<g id="a_edge22_Node000001_Node000023"><a xlink:title=" ">
<path fill="none" stroke="#63b8ff" d="M1767.06,-127.68C1748.8,-118.58 1725,-106.7 1706.45,-97.44"/>
<polygon fill="#63b8ff" stroke="#63b8ff" points="1765.31,-131.22 1775.82,-132.55 1768.44,-124.96 1765.31,-131.22"/>
</a>
</g>
</g>
<!-- Node24 -->
<g id="Node000024" class="node">
<title>Node24</title>
<g id="a_Node000024"><a xlink:href="Ioexnl__DatabaseIO_8C.html" target="_top" xlink:title=" ">
<polygon fill="white" stroke="#666666" points="1841.25,-97 1748.75,-97 1748.75,-66.5 1841.25,-66.5 1841.25,-97"/>
<text text-anchor="start" x="1756.75" y="-83.5" font-family="Helvetica,sans-Serif" font-size="10.00">src/exonull/Ioexnl</text>
<text text-anchor="middle" x="1795" y="-72.25" font-family="Helvetica,sans-Serif" font-size="10.00">_DatabaseIO.C</text>
</a>
</g>
</g>
<!-- Node1&#45;&gt;Node24 -->
<g id="edge23_Node000001_Node000024" class="edge">
<title>Node1&#45;&gt;Node24</title>
<g id="a_edge23_Node000001_Node000024"><a xlink:title=" ">
<path fill="none" stroke="#63b8ff" d="M1795,-121.7C1795,-113.7 1795,-104.65 1795,-97.28"/>
<polygon fill="#63b8ff" stroke="#63b8ff" points="1791.5,-121.68 1795,-131.68 1798.5,-121.68 1791.5,-121.68"/>
</a>
</g>
</g>
<!-- Node25 -->
<g id="Node000025" class="node">
<title>Node25</title>
<g id="a_Node000025"><a xlink:href="Iofaodel__FieldSerialization_8h.html" target="_top" xlink:title=" ">
<polygon fill="white" stroke="#666666" points="772.88,-97 669.12,-97 669.12,-66.5 772.88,-66.5 772.88,-97"/>
<text text-anchor="start" x="677.12" y="-83.5" font-family="Helvetica,sans-Serif" font-size="10.00">src/faodel/Iofaodel</text>
<text text-anchor="middle" x="721" y="-72.25" font-family="Helvetica,sans-Serif" font-size="10.00">_FieldSerialization.h</text>
</a>
</g>
</g>
<!-- Node1&#45;&gt;Node25 -->
<g id="edge25_Node000001_Node000025" class="edge">
<title>Node1&#45;&gt;Node25</title>
<g id="a_edge25_Node000001_Node000025"><a xlink:title=" ">
<path fill="none" stroke="#63b8ff" d="M1729.24,-140.16C1535.7,-135.62 970.2,-120.66 787,-97 782.47,-96.41 777.78,-95.68 773.1,-94.85"/>
<polygon fill="#63b8ff" stroke="#63b8ff" points="1729.01,-143.68 1739.09,-140.41 1729.17,-136.68 1729.01,-143.68"/>
</a>
</g>
</g>
<!-- Node27 -->
<g id="Node000027" class="node">
<title>Node27</title>
<g id="a_Node000027"><a xlink:href="Iofaodel__PropertySerialization_8C.html" target="_top" xlink:title=" ">
<polygon fill="white" stroke="#666666" points="2018.88,-97 1897.12,-97 1897.12,-66.5 2018.88,-66.5 2018.88,-97"/>
<text text-anchor="start" x="1905.12" y="-83.5" font-family="Helvetica,sans-Serif" font-size="10.00">src/faodel/Iofaodel</text>
<text text-anchor="middle" x="1958" y="-72.25" font-family="Helvetica,sans-Serif" font-size="10.00">_PropertySerialization.C</text>
</a>
</g>
</g>
<!-- Node1&#45;&gt;Node27 -->
<g id="edge28_Node000001_Node000027" class="edge">
<title>Node1&#45;&gt;Node27</title>
<g id="a_edge28_Node000001_Node000027"><a xlink:title=" ">
<path fill="none" stroke="#63b8ff" d="M1830.13,-128.94C1855.74,-119.69 1890.5,-107.13 1917.32,-97.44"/>
<polygon fill="#63b8ff" stroke="#63b8ff" points="1829.33,-125.87 1821.11,-132.55 1831.71,-132.45 1829.33,-125.87"/>
</a>
</g>
</g>
<!-- Node28 -->
<g id="Node000028" class="node">
<title>Node28</title>
<g id="a_Node000028"><a xlink:href="Iofaodel__Utils_8C.html" target="_top" xlink:title=" ">
<polygon fill="white" stroke="#666666" points="2133.12,-97 2036.88,-97 2036.88,-66.5 2133.12,-66.5 2133.12,-97"/>
<text text-anchor="start" x="2044.88" y="-83.5" font-family="Helvetica,sans-Serif" font-size="10.00">src/faodel/Iofaodel</text>
<text text-anchor="middle" x="2085" y="-72.25" font-family="Helvetica,sans-Serif" font-size="10.00">_Utils.C</text>
</a>
</g>
</g>
<!-- Node1&#45;&gt;Node28 -->
<g id="edge29_Node000001_Node000028" class="edge">
<title>Node1&#45;&gt;Node28</title>
<g id="a_edge29_Node000001_Node000028"><a xlink:title=" ">
<path fill="none" stroke="#63b8ff" d="M1857.62,-130.61C1904.64,-122.1 1970.54,-109.68 2028,-97 2030.79,-96.38 2033.65,-95.73 2036.53,-95.06"/>
<polygon fill="#63b8ff" stroke="#63b8ff" points="1857.21,-127.31 1847.99,-132.52 1858.46,-134.2 1857.21,-127.31"/>
</a>
</g>
</g>
<!-- Node29 -->
<g id="Node000029" class="node">
<title>Node29</title>
<g id="a_Node000029"><a xlink:href="Iogs__DatabaseIO_8C.html" target="_top" xlink:title=" ">
<polygon fill="white" stroke="#666666" points="2248.5,-97 2151.5,-97 2151.5,-66.5 2248.5,-66.5 2248.5,-97"/>
<text text-anchor="start" x="2159.5" y="-83.5" font-family="Helvetica,sans-Serif" font-size="10.00">src/gen_struc/Iogs</text>
<text text-anchor="middle" x="2200" y="-72.25" font-family="Helvetica,sans-Serif" font-size="10.00">_DatabaseIO.C</text>
</a>
</g>
</g>
<!-- Node1&#45;&gt;Node29 -->
<g id="edge30_Node000001_Node000029" class="edge">
<title>Node1&#45;&gt;Node29</title>
<g id="a_edge30_Node000001_Node000029"><a xlink:title=" ">
<path fill="none" stroke="#63b8ff" d="M1860.85,-135.4C1930.9,-128.25 2044.8,-115.13 2142,-97 2144.96,-96.45 2147.99,-95.84 2151.04,-95.19"/>
<polygon fill="#63b8ff" stroke="#63b8ff" points="1860.59,-132.01 1850.99,-136.49 1861.29,-138.97 1860.59,-132.01"/>
</a>
</g>
</g>
<!-- Node30 -->
<g id="Node000030" class="node">
<title>Node30</title>
<g id="a_Node000030"><a xlink:href="Iogn__DatabaseIO_8C.html" target="_top" xlink:title=" ">
<polygon fill="white" stroke="#666666" points="2363.5,-97 2266.5,-97 2266.5,-66.5 2363.5,-66.5 2363.5,-97"/>
<text text-anchor="start" x="2274.5" y="-83.5" font-family="Helvetica,sans-Serif" font-size="10.00">src/generated/Iogn</text>
<text text-anchor="middle" x="2315" y="-72.25" font-family="Helvetica,sans-Serif" font-size="10.00">_DatabaseIO.C</text>
</a>
</g>
</g>
<!-- Node1&#45;&gt;Node30 -->
<g id="edge31_Node000001_Node000030" class="edge">
<title>Node1&#45;&gt;Node30</title>
<g id="a_edge31_Node000001_Node000030"><a xlink:title=" ">
<path fill="none" stroke="#63b8ff" d="M1860.59,-138.28C1950.51,-133.02 2116.88,-120.85 2257,-97 2259.96,-96.5 2263,-95.92 2266.06,-95.3"/>
<polygon fill="#63b8ff" stroke="#63b8ff" points="1860.53,-134.84 1850.75,-138.91 1860.93,-141.83 1860.53,-134.84"/>
</a>
</g>
</g>
<!-- Node31 -->
<g id="Node000031" class="node">
<title>Node31</title>
<g id="a_Node000031"><a xlink:href="cth__pressure__map_8C.html" target="_top" xlink:title=" ">
<polygon fill="white" stroke="#666666" points="2494.38,-97 2381.62,-97 2381.62,-66.5 2494.38,-66.5 2494.38,-97"/>
<text text-anchor="start" x="2389.62" y="-83.5" font-family="Helvetica,sans-Serif" font-size="10.00">src/main/cth_pressure</text>
<text text-anchor="middle" x="2438" y="-72.25" font-family="Helvetica,sans-Serif" font-size="10.00">_map.C</text>
</a>
</g>
</g>
<!-- Node1&#45;&gt;Node31 -->
<g id="edge32_Node000001_Node000031" class="edge">
<title>Node1&#45;&gt;Node31</title>
<g id="a_edge32_Node000001_Node000031"><a xlink:title=" ">
<path fill="none" stroke="#63b8ff" d="M1860.75,-139.44C1968.19,-135.22 2187.88,-123.87 2372,-97 2375.02,-96.56 2378.1,-96.06 2381.21,-95.52"/>
<polygon fill="#63b8ff" stroke="#63b8ff" points="1860.62,-135.98 1850.77,-139.86 1860.89,-142.97 1860.62,-135.98"/>
</a>
</g>
</g>
<!-- Node32 -->
<g id="Node000032" class="node">
<title>Node32</title>
<g id="a_Node000032"><a xlink:href="io__info_8h.html" target="_top" xlink:title=" ">
<polygon fill="white" stroke="#666666" points="2605.62,-91.38 2512.38,-91.38 2512.38,-72.12 2605.62,-72.12 2605.62,-91.38"/>
<text text-anchor="middle" x="2559" y="-77.88" font-family="Helvetica,sans-Serif" font-size="10.00">src/main/io_info.h</text>
</a>
</g>
</g>
<!-- Node1&#45;&gt;Node32 -->
<g id="edge33_Node000001_Node000032" class="edge">
<title>Node1&#45;&gt;Node32</title>
<g id="a_edge33_Node000001_Node000032"><a xlink:title=" ">
<path fill="none" stroke="#63b8ff" d="M1860.48,-141.55C1985.95,-140.53 2268.57,-133.88 2503,-97 2511.03,-95.74 2519.58,-93.85 2527.52,-91.85"/>
<polygon fill="#63b8ff" stroke="#63b8ff" points="1860.53,-138.06 1850.56,-141.63 1860.58,-145.06 1860.53,-138.06"/>
</a>
</g>
</g>
<!-- Node35 -->
<g id="Node000035" class="node">
<title>Node35</title>
<g id="a_Node000035"><a xlink:href="io__modify_8C.html" target="_top" xlink:title=" ">
<polygon fill="white" stroke="#666666" points="2730.75,-91.38 2623.25,-91.38 2623.25,-72.12 2730.75,-72.12 2730.75,-91.38"/>
<text text-anchor="middle" x="2677" y="-77.88" font-family="Helvetica,sans-Serif" font-size="10.00">src/main/io_modify.C</text>
</a>
</g>
</g>
<!-- Node1&#45;&gt;Node35 -->
<g id="edge36_Node000001_Node000035" class="edge">
<title>Node1&#45;&gt;Node35</title>
<g id="a_edge36_Node000001_Node000035"><a xlink:title=" ">
<path fill="none" stroke="#63b8ff" d="M1860.41,-141.86C1999.84,-141.53 2336.32,-136.31 2615,-97 2623.86,-95.75 2633.32,-93.86 2642.11,-91.87"/>
<polygon fill="#63b8ff" stroke="#63b8ff" points="1860.52,-138.36 1850.52,-141.88 1860.53,-145.36 1860.52,-138.36"/>
</a>
</g>
</g>
<!-- Node36 -->
<g id="Node000036" class="node">
<title>Node36</title>
<g id="a_Node000036"><a xlink:href="Ionull__DatabaseIO_8C.html" target="_top" xlink:title=" ">
<polygon fill="white" stroke="#666666" points="2891,-91.38 2749,-91.38 2749,-72.12 2891,-72.12 2891,-91.38"/>
<text text-anchor="middle" x="2820" y="-77.88" font-family="Helvetica,sans-Serif" font-size="10.00">src/null/Ionull_DatabaseIO.C</text>
</a>
</g>
</g>
<!-- Node1&#45;&gt;Node36 -->
<g id="edge37_Node000001_Node000036" class="edge">
<title>Node1&#45;&gt;Node36</title>
<g id="a_edge37_Node000001_Node000036"><a xlink:title=" ">
<path fill="none" stroke="#63b8ff" d="M1860.45,-141.44C2014.35,-140.36 2411.05,-133.91 2740,-97 2751.36,-95.73 2763.53,-93.83 2774.88,-91.84"/>
<polygon fill="#63b8ff" stroke="#63b8ff" points="1860.77,-137.94 1850.79,-141.51 1860.81,-144.94 1860.77,-137.94"/>
</a>
</g>
</g>
<!-- Node37 -->
<g id="Node000037" class="node">
<title>Node37</title>
<g id="a_Node000037"><a xlink:href="Iotm__DatabaseIO_8C.html" target="_top" xlink:title=" ">
<polygon fill="white" stroke="#666666" points="3009.38,-97 2908.62,-97 2908.62,-66.5 3009.38,-66.5 3009.38,-97"/>
<text text-anchor="start" x="2916.62" y="-83.5" font-family="Helvetica,sans-Serif" font-size="10.00">src/text_mesh/Iotm</text>
<text text-anchor="middle" x="2959" y="-72.25" font-family="Helvetica,sans-Serif" font-size="10.00">_DatabaseIO.C</text>
</a>
</g>
</g>
<!-- Node1&#45;&gt;Node37 -->
<g id="edge38_Node000001_Node000037" class="edge">
<title>Node1&#45;&gt;Node37</title>
<g id="a_edge38_Node000001_Node000037"><a xlink:title=" ">
<path fill="none" stroke="#63b8ff" d="M1860.68,-140.67C2066.53,-137.4 2697.41,-125.28 2900,-97 2902.71,-96.62 2905.48,-96.17 2908.27,-95.67"/>
<polygon fill="#63b8ff" stroke="#63b8ff" points="1860.7,-137.18 1850.76,-140.84 1860.81,-144.18 1860.7,-137.18"/>
</a>
</g>
</g>
<!-- Node38 -->
<g id="Node000038" class="node">
<title>Node38</title>
<g id="a_Node000038"><a xlink:href="UnitTestIotmTextMeshFixture_8h.html" target="_top" xlink:title=" ">
<polygon fill="white" stroke="#666666" points="3162.25,-97 3027.75,-97 3027.75,-66.5 3162.25,-66.5 3162.25,-97"/>
<text text-anchor="start" x="3035.75" y="-83.5" font-family="Helvetica,sans-Serif" font-size="10.00">src/unit_tests/UnitTestIotm</text>
<text text-anchor="middle" x="3095" y="-72.25" font-family="Helvetica,sans-Serif" font-size="10.00">TextMeshFixture.h</text>
</a>
</g>
</g>
<!-- Node1&#45;&gt;Node38 -->
<g id="edge39_Node000001_Node000038" class="edge">
<title>Node1&#45;&gt;Node38</title>
<g id="a_edge39_Node000001_Node000038"><a xlink:title=" ">
<path fill="none" stroke="#63b8ff" d="M1860.47,-140.5C2080.25,-136.54 2790.59,-122.06 3018,-97 3021.11,-96.66 3024.28,-96.26 3027.48,-95.82"/>
<polygon fill="#63b8ff" stroke="#63b8ff" points="1860.7,-137.02 1850.77,-140.69 1860.83,-144.01 1860.7,-137.02"/>
</a>
</g>
</g>
<!-- Node6 -->
<g id="Node000006" class="node">
<title>Node6</title>
<g id="a_Node000006"><a xlink:href="Ioss__Compare_8C.html" target="_top" xlink:title=" ">
<polygon fill="white" stroke="#666666" points="1239.38,-24.88 1132.62,-24.88 1132.62,-5.63 1239.38,-5.63 1239.38,-24.88"/>
<text text-anchor="middle" x="1186" y="-11.38" font-family="Helvetica,sans-Serif" font-size="10.00">src/Ioss_Compare.C</text>
</a>
</g>
</g>
<!-- Node5&#45;&gt;Node6 -->
<g id="edge5_Node000005_Node000006" class="edge">
<title>Node5&#45;&gt;Node6</title>
<g id="a_edge5_Node000005_Node000006"><a xlink:title=" ">
<path fill="none" stroke="#63b8ff" d="M940.09,-69.46C1006.89,-55.26 1114.04,-32.47 1123,-30.5 1130.45,-28.86 1138.38,-27.09 1146.02,-25.37"/>
<polygon fill="#63b8ff" stroke="#63b8ff" points="939.79,-66.16 930.74,-71.66 941.25,-73.01 939.79,-66.16"/>
</a>
</g>
</g>
<!-- Node7 -->
<g id="Node000007" class="node">
<title>Node7</title>
<g id="a_Node000007"><a xlink:href="Ioss__CopyDatabase_8C.html" target="_top" xlink:title=" ">
<polygon fill="white" stroke="#666666" points="1390.12,-24.88 1257.88,-24.88 1257.88,-5.63 1390.12,-5.63 1390.12,-24.88"/>
<text text-anchor="middle" x="1324" y="-11.38" font-family="Helvetica,sans-Serif" font-size="10.00">src/Ioss_CopyDatabase.C</text>
</a>
</g>
</g>
<!-- Node5&#45;&gt;Node7 -->
<g id="edge6_Node000005_Node000007" class="edge">
<title>Node5&#45;&gt;Node7</title>
<g id="a_edge6_Node000005_Node000007"><a xlink:title=" ">
<path fill="none" stroke="#63b8ff" d="M937.5,-69.52C943.06,-68.43 948.64,-67.4 954,-66.5 1083.84,-44.79 1117.91,-50.64 1248,-30.5 1257.82,-28.98 1268.31,-27.15 1278.27,-25.31"/>
<polygon fill="#63b8ff" stroke="#63b8ff" points="937.03,-66.24 927.92,-71.66 938.42,-73.1 937.03,-66.24"/>
</a>
</g>
</g>
<!-- Node8 -->
<g id="Node000008" class="node">
<title>Node8</title>
<g id="a_Node000008"><a xlink:href="Ioss__DatabaseIO_8C.html" target="_top" xlink:title=" ">
<polygon fill="white" stroke="#666666" points="1527.75,-24.88 1408.25,-24.88 1408.25,-5.63 1527.75,-5.63 1527.75,-24.88"/>
<text text-anchor="middle" x="1468" y="-11.38" font-family="Helvetica,sans-Serif" font-size="10.00">src/Ioss_DatabaseIO.C</text>
</a>
</g>
</g>
<!-- Node5&#45;&gt;Node8 -->
<g id="edge7_Node000005_Node000008" class="edge">
<title>Node5&#45;&gt;Node8</title>
<g id="a_edge7_Node000005_Node000008"><a xlink:title=" ">
<path fill="none" stroke="#63b8ff" d="M936.13,-69.55C942.13,-68.4 948.19,-67.35 954,-66.5 1150.34,-37.8 1202.58,-58.62 1399,-30.5 1408.57,-29.13 1418.8,-27.25 1428.38,-25.3"/>
<polygon fill="#63b8ff" stroke="#63b8ff" points="935.58,-66.29 926.47,-71.68 936.96,-73.15 935.58,-66.29"/>
</a>
</g>
</g>
<!-- Node9 -->
<g id="Node000009" class="node">
<title>Node9</title>
<g id="a_Node000009"><a xlink:href="Ioss__Utils_8C.html" target="_top" xlink:title=" ">
<polygon fill="white" stroke="#666666" points="1632.62,-24.88 1545.38,-24.88 1545.38,-5.63 1632.62,-5.63 1632.62,-24.88"/>
<text text-anchor="middle" x="1589" y="-11.38" font-family="Helvetica,sans-Serif" font-size="10.00">src/Ioss_Utils.C</text>
</a>
</g>
</g>
<!-- Node5&#45;&gt;Node9 -->
<g id="edge8_Node000005_Node000009" class="edge">
<title>Node5&#45;&gt;Node9</title>
<g id="a_edge8_Node000005_Node000009"><a xlink:title=" ">
<path fill="none" stroke="#63b8ff" d="M935.43,-69.57C941.66,-68.39 947.96,-67.32 954,-66.5 1211.22,-31.4 1280.9,-73.03 1537,-30.5 1544.57,-29.24 1552.63,-27.33 1560.08,-25.31"/>
<polygon fill="#63b8ff" stroke="#63b8ff" points="935.22,-66.24 926.09,-71.63 936.59,-73.1 935.22,-66.24"/>
</a>
</g>
</g>
<!-- Node10 -->
<g id="Node000010" class="node">
<title>Node10</title>
<g id="a_Node000010"><a xlink:href="Iocgns__DatabaseIO_8C.html" target="_top" xlink:title=" ">
<polygon fill="white" stroke="#666666" points="1805,-24.88 1651,-24.88 1651,-5.63 1805,-5.63 1805,-24.88"/>
<text text-anchor="middle" x="1728" y="-11.38" font-family="Helvetica,sans-Serif" font-size="10.00">src/cgns/Iocgns_DatabaseIO.C</text>
</a>
</g>
</g>
<!-- Node5&#45;&gt;Node10 -->
<g id="edge9_Node000005_Node000010" class="edge">
<title>Node5&#45;&gt;Node10</title>
<g id="a_edge9_Node000005_Node000010"><a xlink:title=" ">
<path fill="none" stroke="#63b8ff" d="M935.19,-69.56C941.49,-68.37 947.88,-67.31 954,-66.5 1257.58,-26.53 1337.6,-63.58 1642,-30.5 1654.04,-29.19 1666.95,-27.31 1679.01,-25.34"/>
<polygon fill="#63b8ff" stroke="#63b8ff" points="934.86,-66.25 925.73,-71.64 936.22,-73.12 934.86,-66.25"/>
</a>
</g>
</g>
<!-- Node5&#45;&gt;Node11 -->
<g id="edge10_Node000005_Node000011" class="edge">
<title>Node5&#45;&gt;Node11</title>
<g id="a_edge10_Node000005_Node000011"><a xlink:title=" ">
<path fill="none" stroke="#63b8ff" d="M835.42,-69.68C828.58,-68.46 821.63,-67.36 815,-66.5 556.21,-33.09 486.88,-70.31 229,-30.5 226.18,-30.06 223.29,-29.55 220.39,-28.99"/>
<polygon fill="#63b8ff" stroke="#63b8ff" points="834.56,-73.26 845.04,-71.66 835.85,-66.38 834.56,-73.26"/>
</a>
</g>
</g>
<!-- Node12 -->
<g id="Node000012" class="node">
<title>Node12</title>
<g id="a_Node000012"><a xlink:href="io__shell_8C.html" target="_top" xlink:title=" ">
<polygon fill="white" stroke="#666666" points="338,-24.88 238,-24.88 238,-5.63 338,-5.63 338,-24.88"/>
<text text-anchor="middle" x="288" y="-11.38" font-family="Helvetica,sans-Serif" font-size="10.00">src/main/io_shell.C</text>
</a>
</g>
</g>
<!-- Node5&#45;&gt;Node12 -->
<g id="edge11_Node000005_Node000012" class="edge">
<title>Node5&#45;&gt;Node12</title>
<g id="a_edge11_Node000005_Node000012"><a xlink:title=" ">
<path fill="none" stroke="#63b8ff" d="M835.15,-69.73C828.39,-68.51 821.55,-67.4 815,-66.5 608.31,-38.2 553.05,-63.09 347,-30.5 338.67,-29.18 329.79,-27.3 321.51,-25.33"/>
<polygon fill="#63b8ff" stroke="#63b8ff" points="834.17,-73.29 844.64,-71.69 835.46,-66.41 834.17,-73.29"/>
</a>
</g>
</g>
<!-- Node13 -->
<g id="Node000013" class="node">
<title>Node13</title>
<g id="a_Node000013"><a xlink:href="io__shell__ts_8C.html" target="_top" xlink:title=" ">
<polygon fill="white" stroke="#666666" points="469.75,-24.88 356.25,-24.88 356.25,-5.63 469.75,-5.63 469.75,-24.88"/>
<text text-anchor="middle" x="413" y="-11.38" font-family="Helvetica,sans-Serif" font-size="10.00">src/main/io_shell_ts.C</text>
</a>
</g>
</g>
<!-- Node5&#45;&gt;Node13 -->
<g id="edge12_Node000005_Node000013" class="edge">
<title>Node5&#45;&gt;Node13</title>
<g id="a_edge12_Node000005_Node000013"><a xlink:title=" ">
<path fill="none" stroke="#63b8ff" d="M833.89,-69.69C827.54,-68.53 821.13,-67.43 815,-66.5 666.52,-43.9 627.28,-54.38 479,-30.5 470.09,-29.06 460.57,-27.2 451.61,-25.3"/>
<polygon fill="#63b8ff" stroke="#63b8ff" points="832.99,-73.27 843.47,-71.68 834.29,-66.39 832.99,-73.27"/>
</a>
</g>
</g>
<!-- Node14 -->
<g id="Node000014" class="node">
<title>Node14</title>
<g id="a_Node000014"><a xlink:href="struc__to__unstruc_8C.html" target="_top" xlink:title=" ">
<polygon fill="white" stroke="#666666" points="627.88,-24.88 488.12,-24.88 488.12,-5.63 627.88,-5.63 627.88,-24.88"/>
<text text-anchor="middle" x="558" y="-11.38" font-family="Helvetica,sans-Serif" font-size="10.00">src/main/struc_to_unstruc.C</text>
</a>
</g>
</g>
<!-- Node5&#45;&gt;Node14 -->
<g id="edge13_Node000005_Node000014" class="edge">
<title>Node5&#45;&gt;Node14</title>
<g id="a_edge13_Node000005_Node000014"><a xlink:title=" ">
<path fill="none" stroke="#63b8ff" d="M830.55,-69.57C825.29,-68.53 820.05,-67.49 815,-66.5 741.4,-52.02 655.91,-35.33 604.43,-25.3"/>
<polygon fill="#63b8ff" stroke="#63b8ff" points="829.81,-73.18 840.3,-71.69 831.16,-66.32 829.81,-73.18"/>
</a>
</g>
</g>
<!-- Node15 -->
<g id="Node000015" class="node">
<title>Node15</title>
<g id="a_Node000015"><a xlink:href="Iopg__DatabaseIO_8C.html" target="_top" xlink:title=" ">
<polygon fill="white" stroke="#666666" points="802.5,-24.88 645.5,-24.88 645.5,-5.63 802.5,-5.63 802.5,-24.88"/>
<text text-anchor="middle" x="724" y="-11.38" font-family="Helvetica,sans-Serif" font-size="10.00">src/pamgen/Iopg_DatabaseIO.C</text>
</a>
</g>
</g>
<!-- Node5&#45;&gt;Node15 -->
<g id="edge14_Node000005_Node000015" class="edge">
<title>Node5&#45;&gt;Node15</title>
<g id="a_edge14_Node000005_Node000015"><a xlink:title=" ">
<path fill="none" stroke="#63b8ff" d="M853.84,-67.63C822,-55.03 774.75,-36.33 746.89,-25.31"/>
<polygon fill="#63b8ff" stroke="#63b8ff" points="852.41,-71.22 862.99,-71.65 854.98,-64.71 852.41,-71.22"/>
</a>
</g>
</g>
<!-- Node5&#45;&gt;Node16 -->
<g id="edge15_Node000005_Node000016" class="edge">
<title>Node5&#45;&gt;Node16</title>
<g id="a_edge15_Node000005_Node000016"><a xlink:title=" ">
<path fill="none" stroke="#63b8ff" d="M934.95,-69.54C941.33,-68.34 947.8,-67.28 954,-66.5 1333.54,-18.54 1435.05,-82.94 1814,-30.5 1822.8,-29.28 1832.2,-27.36 1840.89,-25.31"/>
<polygon fill="#63b8ff" stroke="#63b8ff" points="934.5,-66.26 925.37,-71.64 935.86,-73.12 934.5,-66.26"/>
</a>
</g>
</g>
<!-- Node17 -->
<g id="Node000017" class="node">
<title>Node17</title>
<g id="a_Node000017"><a xlink:href="Utst__heartbeat_8C.html" target="_top" xlink:title=" ">
<polygon fill="white" stroke="#666666" points="953.12,-24.88 820.88,-24.88 820.88,-5.63 953.12,-5.63 953.12,-24.88"/>
<text text-anchor="middle" x="887" y="-11.38" font-family="Helvetica,sans-Serif" font-size="10.00">src/utest/Utst_heartbeat.C</text>
</a>
</g>
</g>
<!-- Node5&#45;&gt;Node17 -->
<g id="edge16_Node000005_Node000017" class="edge">
<title>Node5&#45;&gt;Node17</title>
<g id="a_edge16_Node000005_Node000017"><a xlink:title=" ">
<path fill="none" stroke="#63b8ff" d="M887,-61.02C887,-49.05 887,-34.35 887,-25.14"/>
<polygon fill="#63b8ff" stroke="#63b8ff" points="883.5,-60.78 887,-70.78 890.5,-60.78 883.5,-60.78"/>
</a>
</g>
</g>
<!-- Node18 -->
<g id="Node000018" class="node">
<title>Node18</title>
<g id="a_Node000018"><a xlink:href="Iovs__exodus__DatabaseIO_8C.html" target="_top" xlink:title=" ">
<polygon fill="white" stroke="#666666" points="1114.38,-30.5 971.62,-30.5 971.62,0 1114.38,0 1114.38,-30.5"/>
<text text-anchor="start" x="979.62" y="-17" font-family="Helvetica,sans-Serif" font-size="10.00">src/visualization/exodus</text>
<text text-anchor="middle" x="1043" y="-5.75" font-family="Helvetica,sans-Serif" font-size="10.00">/Iovs_exodus_DatabaseIO.C</text>
</a>
</g>
</g>
<!-- Node5&#45;&gt;Node18 -->
<g id="edge17_Node000005_Node000018" class="edge">
<title>Node5&#45;&gt;Node18</title>
<g id="a_edge17_Node000005_Node000018"><a xlink:title=" ">
<path fill="none" stroke="#63b8ff" d="M919.02,-67.51C944.78,-56.86 980.95,-41.91 1007.57,-30.9"/>
<polygon fill="#63b8ff" stroke="#63b8ff" points="917.92,-64.59 910.02,-71.65 920.6,-71.06 917.92,-64.59"/>
</a>
</g>
</g>
<!-- Node25&#45;&gt;Node11 -->
<g id="edge26_Node000025_Node000011" class="edge">
<title>Node25&#45;&gt;Node11</title>
<g id="a_edge26_Node000025_Node000011"><a xlink:title=" ">
<path fill="none" stroke="#63b8ff" d="M658.23,-66.39C468.22,-37.45 415.21,-61.35 229,-30.5 226.18,-30.03 223.3,-29.5 220.4,-28.92"/>
<polygon fill="#63b8ff" stroke="#63b8ff" points="657.44,-69.96 667.86,-68.04 658.51,-63.05 657.44,-69.96"/>
</a>
</g>
</g>
<!-- Node26 -->
<g id="Node000026" class="node">
<title>Node26</title>
<g id="a_Node000026"><a xlink:href="Iofaodel__FieldSerialization_8C.html" target="_top" xlink:title=" ">
<polygon fill="white" stroke="#666666" points="106,-30.5 0,-30.5 0,0 106,0 106,-30.5"/>
<text text-anchor="start" x="8" y="-17" font-family="Helvetica,sans-Serif" font-size="10.00">src/faodel/Iofaodel</text>
<text text-anchor="middle" x="53" y="-5.75" font-family="Helvetica,sans-Serif" font-size="10.00">_FieldSerialization.C</text>
</a>
</g>
</g>
<!-- Node25&#45;&gt;Node26 -->
<g id="edge27_Node000025_Node000026" class="edge">
<title>Node25&#45;&gt;Node26</title>
<g id="a_edge27_Node000025_Node000026"><a xlink:title=" ">
<path fill="none" stroke="#63b8ff" d="M658.04,-66.39C417.96,-31.78 351.65,-65.28 115,-30.5 112.16,-30.08 109.26,-29.6 106.33,-29.08"/>
<polygon fill="#63b8ff" stroke="#63b8ff" points="657.46,-69.99 667.86,-67.98 658.48,-63.06 657.46,-69.99"/>
</a>
</g>
</g>
<!-- Node33 -->
<g id="Node000033" class="node">
<title>Node33</title>
<g id="a_Node000033"><a xlink:href="io__info_8C.html" target="_top" xlink:title=" ">
<polygon fill="white" stroke="#666666" points="2670.75,-24.88 2575.25,-24.88 2575.25,-5.63 2670.75,-5.63 2670.75,-24.88"/>
<text text-anchor="middle" x="2623" y="-11.38" font-family="Helvetica,sans-Serif" font-size="10.00">src/main/io_info.C</text>
</a>
</g>
</g>
<!-- Node32&#45;&gt;Node33 -->
<g id="edge34_Node000032_Node000033" class="edge">
<title>Node32&#45;&gt;Node33</title>
<g id="a_edge34_Node000032_Node000033"><a xlink:title=" ">
<path fill="none" stroke="#63b8ff" d="M2575.31,-64.31C2587.67,-51.86 2604.18,-35.22 2614.18,-25.14"/>
<polygon fill="#63b8ff" stroke="#63b8ff" points="2573.46,-61.22 2568.9,-70.78 2578.43,-66.15 2573.46,-61.22"/>
</a>
</g>
</g>
<!-- Node34 -->
<g id="Node000034" class="node">
<title>Node34</title>
<g id="a_Node000034"><a xlink:href="io__info__main_8C.html" target="_top" xlink:title=" ">
<polygon fill="white" stroke="#666666" points="2556.88,-24.88 2435.12,-24.88 2435.12,-5.63 2556.88,-5.63 2556.88,-24.88"/>
<text text-anchor="middle" x="2496" y="-11.38" font-family="Helvetica,sans-Serif" font-size="10.00">src/main/io_info_main.C</text>
</a>
</g>
</g>
<!-- Node32&#45;&gt;Node34 -->
<g id="edge35_Node000032_Node000034" class="edge">
<title>Node32&#45;&gt;Node34</title>
<g id="a_edge35_Node000032_Node000034"><a xlink:title=" ">
<path fill="none" stroke="#63b8ff" d="M2542.59,-63.95C2530.47,-51.54 2514.43,-35.12 2504.69,-25.14"/>
<polygon fill="#63b8ff" stroke="#63b8ff" points="2539.75,-66.07 2549.24,-70.78 2544.76,-61.18 2539.75,-66.07"/>
</a>
</g>
</g>
<!-- Node39 -->
<g id="Node000039" class="node">
<title>Node39</title>
<g id="a_Node000039"><a xlink:href="UnitTestTextMesh_8C.html" target="_top" xlink:title=" ">
<polygon fill="white" stroke="#666666" points="3161.88,-30.5 3028.12,-30.5 3028.12,0 3161.88,0 3161.88,-30.5"/>
<text text-anchor="start" x="3036.12" y="-17" font-family="Helvetica,sans-Serif" font-size="10.00">src/unit_tests/UnitTestText</text>
<text text-anchor="middle" x="3095" y="-5.75" font-family="Helvetica,sans-Serif" font-size="10.00">Mesh.C</text>
</a>
</g>
</g>
<!-- Node38&#45;&gt;Node39 -->
<g id="edge40_Node000038_Node000039" class="edge">
<title>Node38&#45;&gt;Node39</title>
<g id="a_edge40_Node000038_Node000039"><a xlink:title=" ">
<path fill="none" stroke="#63b8ff" d="M3095,-55.38C3095,-47.05 3095,-38.08 3095,-30.83"/>
<polygon fill="#63b8ff" stroke="#63b8ff" points="3091.5,-55.11 3095,-65.11 3098.5,-55.11 3091.5,-55.11"/>
</a>
</g>
</g>
</g>
</svg>

<g id="navigator" transform="translate(0 0)" fill="#404254">
  <rect fill="#f2f5e9" fill-opacity="0.5" stroke="#606060" stroke-width=".5" x="0" y="0" width="60" height="60"/>
  <use id="zoomplus" xlink:href="#zoomPlus" x="17" y="9" onmousedown="handleZoom(evt,'in')"/>
  <use id="zoomminus" xlink:href="#zoomMin" x="42" y="9" onmousedown="handleZoom(evt,'out')"/>
  <use id="reset" xlink:href="#resetDef" x="30" y="36" onmousedown="handleReset()"/>
   <use id="arrowup" xlink:href="#arrowUp" x="0" y="0" onmousedown="handlePan(0,-1)"/>
  <use id="arrowright" xlink:href="#arrowRight" x="0" y="0" onmousedown="handlePan(1,0)"/>
  <use id="arrowdown" xlink:href="#arrowDown" x="0" y="0" onmousedown="handlePan(0,1)"/>
  <use id="arrowleft" xlink:href="#arrowLeft" x="0" y="0" onmousedown="handlePan(-1,0)"/>
</g>
<svg viewBox="0 0 15 15" width="100%" height="30px" preserveAspectRatio="xMaxYMin meet">
 <g id="arrow_out" transform="scale(0.3 0.3)">
  <a xlink:href="Ioss__CommSet_8h__dep__incl_org.svg" target="_base">
   <rect id="button" ry="5" rx="5" y="6" x="6" height="38" width="38"
        fill="#f2f5e9" fill-opacity="0.5" stroke="#606060" stroke-width="1.0"/>
   <path id="arrow"
     d="M 11.500037,31.436501 C 11.940474,20.09759 22.043105,11.32322 32.158766,21.979434 L 37.068811,17.246167 C 37.068811,17.246167 37.088388,32 37.088388,32 L 22.160133,31.978069 C 22.160133,31.978069 26.997745,27.140456 26.997745,27.140456 C 18.528582,18.264221 13.291696,25.230495 11.500037,31.436501 z"
     style="fill:#404040;"/>
  </a>
 </g>
</svg>

<style type='text/css'>
<![CDATA[
[data-mouse-over-selected='false'] { opacity: 0.7; }
[data-mouse-over-selected='true']  { opacity: 1.0; }
]]>
</style>
<script type="application/ecmascript"><![CDATA[
document.addEventListener('DOMContentLoaded', (event) => {
  highlightEdges();
  highlightAdjacentNodes();
});
]]></script>
</svg>
