<?xml version="1.0" encoding="UTF-8" standalone="no"?>
<!DOCTYPE svg PUBLIC "-//W3C//DTD SVG 1.1//EN"
 "http://www.w3.org/Graphics/SVG/1.1/DTD/svg11.dtd">
<!-- Generated by graphviz version 8.1.0 (20230707.0739)
 -->
<!-- Title: src/Ioss_ConcreteVariableType.C Pages: 1 -->
<svg width="1424pt" height="425pt"
 viewBox="0.00 0.00 1424.02 425.25" xmlns="http://www.w3.org/2000/svg" xmlns:xlink="http://www.w3.org/1999/xlink">
<g id="graph0" class="graph" transform="scale(1 1) rotate(0) translate(4 421.25)">
<title>src/Ioss_ConcreteVariableType.C</title>
<!-- Node1 -->
<g id="Node000001" class="node">
<title>Node1</title>
<g id="a_Node000001"><a xlink:title=" ">
<polygon fill="#999999" stroke="#666666" points="216.47,-417.25 85.72,-417.25 85.72,-386.75 216.47,-386.75 216.47,-417.25"/>
<text text-anchor="start" x="93.72" y="-403.75" font-family="Helvetica,sans-Serif" font-size="10.00">src/Ioss_ConcreteVariable</text>
<text text-anchor="middle" x="151.09" y="-392.5" font-family="Helvetica,sans-Serif" font-size="10.00">Type.C</text>
</a>
</g>
</g>
<!-- Node2 -->
<g id="Node000002" class="node">
<title>Node2</title>
<g id="a_Node000002"><a xlink:href="Ioss__ConcreteVariableType_8h.html" target="_top" xlink:title=" ">
<polygon fill="white" stroke="#666666" points="172.84,-350.75 29.34,-350.75 29.34,-331.5 172.84,-331.5 172.84,-350.75"/>
<text text-anchor="middle" x="101.09" y="-337.25" font-family="Helvetica,sans-Serif" font-size="10.00">Ioss_ConcreteVariableType.h</text>
</a>
</g>
</g>
<!-- Node1&#45;&gt;Node2 -->
<g id="edge1_Node000001_Node000002" class="edge">
<title>Node1&#45;&gt;Node2</title>
<g id="a_edge1_Node000001_Node000002"><a xlink:title=" ">
<path fill="none" stroke="#63b8ff" d="M138.73,-386.45C131.78,-378.26 123.05,-367.98 115.75,-359.39"/>
<polygon fill="#63b8ff" stroke="#63b8ff" points="117.94,-357.56 108.8,-352.2 112.6,-362.09 117.94,-357.56"/>
</a>
</g>
</g>
<!-- Node4 -->
<g id="Node000004" class="node">
<title>Node4</title>
<g id="a_Node000004"><a xlink:href="Ioss__VariableType_8h.html" target="_top" xlink:title=" ">
<polygon fill="white" stroke="#666666" points="279.97,-295.5 176.22,-295.5 176.22,-276.25 279.97,-276.25 279.97,-295.5"/>
<text text-anchor="middle" x="228.09" y="-282" font-family="Helvetica,sans-Serif" font-size="10.00">Ioss_VariableType.h</text>
</a>
</g>
</g>
<!-- Node1&#45;&gt;Node4 -->
<g id="edge68_Node000001_Node000004" class="edge">
<title>Node1&#45;&gt;Node4</title>
<g id="a_edge68_Node000001_Node000004"><a xlink:title=" ">
<path fill="none" stroke="#63b8ff" d="M160.84,-386.55C174.87,-365.75 200.74,-327.42 215.98,-304.83"/>
<polygon fill="#63b8ff" stroke="#63b8ff" points="219.28,-307.2 221.97,-296.95 213.47,-303.28 219.28,-307.2"/>
</a>
</g>
</g>
<!-- Node9 -->
<g id="Node000009" class="node">
<title>Node9</title>
<g id="a_Node000009"><a xlink:title=" ">
<polygon fill="#e0e0e0" stroke="#999999" points="254.09,-19.25 214.09,-19.25 214.09,0 254.09,0 254.09,-19.25"/>
<text text-anchor="middle" x="234.09" y="-5.75" font-family="Helvetica,sans-Serif" font-size="10.00">string</text>
</a>
</g>
</g>
<!-- Node1&#45;&gt;Node9 -->
<g id="edge70_Node000001_Node000009" class="edge">
<title>Node1&#45;&gt;Node9</title>
<g id="a_edge70_Node000001_Node000009"><a xlink:title=" ">
<path fill="none" stroke="#63b8ff" d="M85.39,-388.31C62.07,-380.86 37.35,-369.13 20.09,-350.75 -0.27,-329.06 0.09,-316.62 0.09,-286.88 0.09,-286.88 0.09,-286.88 0.09,-119.12 0.09,-30.81 138.98,-14.17 202.75,-11.19"/>
<polygon fill="#63b8ff" stroke="#63b8ff" points="202.87,-14.65 212.73,-10.78 202.61,-7.66 202.87,-14.65"/>
</a>
</g>
</g>
<!-- Node29 -->
<g id="Node000029" class="node">
<title>Node29</title>
<g id="a_Node000029"><a xlink:title=" ">
<polygon fill="#e0e0e0" stroke="#999999" points="1254.22,-185 1205.97,-185 1205.97,-165.75 1254.22,-165.75 1254.22,-185"/>
<text text-anchor="middle" x="1230.09" y="-171.5" font-family="Helvetica,sans-Serif" font-size="10.00">cassert</text>
</a>
</g>
</g>
<!-- Node1&#45;&gt;Node29 -->
<g id="edge69_Node000001_Node000029" class="edge">
<title>Node1&#45;&gt;Node29</title>
<g id="a_edge69_Node000001_Node000029"><a xlink:title=" ">
<path fill="none" stroke="#63b8ff" d="M216.77,-387.52C380.94,-353.79 822.4,-262.86 1190.09,-185 1191.65,-184.67 1193.25,-184.33 1194.87,-183.99"/>
<polygon fill="#63b8ff" stroke="#63b8ff" points="1195.51,-187.21 1204.56,-181.69 1194.05,-180.37 1195.51,-187.21"/>
</a>
</g>
</g>
<!-- Node3 -->
<g id="Node000003" class="node">
<title>Node3</title>
<g id="a_Node000003"><a xlink:title=" ">
<polygon fill="#e0e0e0" stroke="#999999" points="581.34,-74.5 506.84,-74.5 506.84,-55.25 581.34,-55.25 581.34,-74.5"/>
<text text-anchor="middle" x="544.09" y="-61" font-family="Helvetica,sans-Serif" font-size="10.00">ioss_export.h</text>
</a>
</g>
</g>
<!-- Node2&#45;&gt;Node3 -->
<g id="edge2_Node000002_Node000003" class="edge">
<title>Node2&#45;&gt;Node3</title>
<g id="a_edge2_Node000002_Node000003"><a xlink:title=" ">
<path fill="none" stroke="#63b8ff" d="M105.01,-331.02C114.32,-310.05 139.41,-257.35 171.09,-221 197.13,-191.12 205.89,-183.97 241.09,-165.75 291.3,-139.77 311.19,-152.16 363.09,-129.75 378.68,-123.02 380.52,-117.28 396.09,-110.5 428.42,-96.43 466.54,-85.05 496,-77.3"/>
<polygon fill="#63b8ff" stroke="#63b8ff" points="496.62,-80.5 505.43,-74.62 494.87,-73.72 496.62,-80.5"/>
</a>
</g>
</g>
<!-- Node2&#45;&gt;Node4 -->
<g id="edge3_Node000002_Node000004" class="edge">
<title>Node2&#45;&gt;Node4</title>
<g id="a_edge3_Node000002_Node000004"><a xlink:title=" ">
<path fill="none" stroke="#63b8ff" d="M122.63,-331.09C142.89,-322.6 173.44,-309.79 196.46,-300.14"/>
<polygon fill="#63b8ff" stroke="#63b8ff" points="197.57,-303.05 205.44,-295.95 194.87,-296.59 197.57,-303.05"/>
</a>
</g>
</g>
<!-- Node2&#45;&gt;Node9 -->
<g id="edge67_Node000002_Node000009" class="edge">
<title>Node2&#45;&gt;Node9</title>
<g id="a_edge67_Node000002_Node000009"><a xlink:title=" ">
<path fill="none" stroke="#63b8ff" d="M91.25,-331.01C73.53,-313.57 38.09,-273.45 38.09,-231.62 38.09,-231.62 38.09,-231.62 38.09,-119.12 38.09,-44.69 147.64,-20.91 202.94,-13.65"/>
<polygon fill="#63b8ff" stroke="#63b8ff" points="203.34,-17 212.85,-12.33 202.51,-10.05 203.34,-17"/>
</a>
</g>
</g>
<!-- Node4&#45;&gt;Node3 -->
<g id="edge4_Node000004_Node000003" class="edge">
<title>Node4&#45;&gt;Node3</title>
<g id="a_edge4_Node000004_Node000003"><a xlink:title=" ">
<path fill="none" stroke="#63b8ff" d="M229.5,-275.94C233.86,-248.3 246.85,-166.01 247.09,-165.75 293.33,-115.71 331.47,-151.33 396.09,-129.75 439.07,-115.4 486.88,-93.65 516.23,-79.6"/>
<polygon fill="#63b8ff" stroke="#63b8ff" points="517.31,-82.48 524.8,-74.98 514.27,-76.18 517.31,-82.48"/>
</a>
</g>
</g>
<!-- Node5 -->
<g id="Node000005" class="node">
<title>Node5</title>
<g id="a_Node000005"><a xlink:href="Ioss__CodeTypes_8h.html" target="_top" xlink:title=" ">
<polygon fill="white" stroke="#666666" points="772.97,-74.5 675.22,-74.5 675.22,-55.25 772.97,-55.25 772.97,-74.5"/>
<text text-anchor="middle" x="724.09" y="-61" font-family="Helvetica,sans-Serif" font-size="10.00">Ioss_CodeTypes.h</text>
</a>
</g>
</g>
<!-- Node4&#45;&gt;Node5 -->
<g id="edge5_Node000004_Node000005" class="edge">
<title>Node4&#45;&gt;Node5</title>
<g id="a_edge5_Node000004_Node000005"><a xlink:title=" ">
<path fill="none" stroke="#63b8ff" d="M280.42,-283.56C421.47,-279.68 802.27,-266.85 852.09,-240.25 904.58,-212.22 925.2,-154.45 885.09,-110.5 859.69,-82.66 818.59,-71.59 784.28,-67.43"/>
<polygon fill="#63b8ff" stroke="#63b8ff" points="784.71,-63.85 774.41,-66.31 784,-70.82 784.71,-63.85"/>
</a>
</g>
</g>
<!-- Node4&#45;&gt;Node9 -->
<g id="edge65_Node000004_Node000009" class="edge">
<title>Node4&#45;&gt;Node9</title>
<g id="a_edge65_Node000004_Node000009"><a xlink:title=" ">
<path fill="none" stroke="#63b8ff" d="M205.12,-275.89C189.92,-268.67 171.02,-256.94 161.09,-240.25 143.61,-210.87 150.8,-66.06 157.09,-55.25 167.2,-37.89 186.9,-26.65 203.84,-19.8"/>
<polygon fill="#63b8ff" stroke="#63b8ff" points="204.76,-22.82 212.93,-16.08 202.33,-16.26 204.76,-22.82"/>
</a>
</g>
</g>
<!-- Node10 -->
<g id="Node000010" class="node">
<title>Node10</title>
<g id="a_Node000010"><a xlink:title=" ">
<polygon fill="#e0e0e0" stroke="#999999" points="882.59,-19.25 839.59,-19.25 839.59,0 882.59,0 882.59,-19.25"/>
<text text-anchor="middle" x="861.09" y="-5.75" font-family="Helvetica,sans-Serif" font-size="10.00">vector</text>
</a>
</g>
</g>
<!-- Node4&#45;&gt;Node10 -->
<g id="edge66_Node000004_Node000010" class="edge">
<title>Node4&#45;&gt;Node10</title>
<g id="a_edge66_Node000004_Node000010"><a xlink:title=" ">
<path fill="none" stroke="#63b8ff" d="M280.22,-283.95C481.25,-279.84 1198.11,-260 1263.09,-185 1299.49,-142.99 1237.69,-167.2 1188.09,-129.75 1152.79,-103.1 1160.75,-76.75 1122.09,-55.25 1083.31,-33.68 954.59,-19.26 893.63,-13.48"/>
<polygon fill="#63b8ff" stroke="#63b8ff" points="894.01,-9.91 883.73,-12.47 893.37,-16.88 894.01,-9.91"/>
</a>
</g>
</g>
<!-- Node13 -->
<g id="Node000013" class="node">
<title>Node13</title>
<g id="a_Node000013"><a xlink:href="Ioss__Utils_8h.html" target="_top" xlink:title=" ">
<polygon fill="white" stroke="#666666" points="843.34,-240.25 774.84,-240.25 774.84,-221 843.34,-221 843.34,-240.25"/>
<text text-anchor="middle" x="809.09" y="-226.75" font-family="Helvetica,sans-Serif" font-size="10.00">Ioss_Utils.h</text>
</a>
</g>
</g>
<!-- Node4&#45;&gt;Node13 -->
<g id="edge13_Node000004_Node000013" class="edge">
<title>Node4&#45;&gt;Node13</title>
<g id="a_edge13_Node000004_Node000013"><a xlink:title=" ">
<path fill="none" stroke="#63b8ff" d="M280.42,-280.08C393.3,-269.73 658.01,-245.47 764.02,-235.76"/>
<polygon fill="#63b8ff" stroke="#63b8ff" points="764.03,-239.18 773.67,-234.78 763.39,-232.21 764.03,-239.18"/>
</a>
</g>
</g>
<!-- Node18 -->
<g id="Node000018" class="node">
<title>Node18</title>
<g id="a_Node000018"><a xlink:title=" ">
<polygon fill="#e0e0e0" stroke="#999999" points="206.47,-74.5 171.72,-74.5 171.72,-55.25 206.47,-55.25 206.47,-74.5"/>
<text text-anchor="middle" x="189.09" y="-61" font-family="Helvetica,sans-Serif" font-size="10.00">map</text>
</a>
</g>
</g>
<!-- Node4&#45;&gt;Node18 -->
<g id="edge64_Node000004_Node000018" class="edge">
<title>Node4&#45;&gt;Node18</title>
<g id="a_edge64_Node000004_Node000018"><a xlink:title=" ">
<path fill="none" stroke="#63b8ff" d="M208.9,-275.75C195.59,-268.27 178.91,-256.29 171.09,-240.25 145.83,-188.38 167.85,-117.71 180.98,-84.53"/>
<polygon fill="#63b8ff" stroke="#63b8ff" points="184.42,-86.37 185.01,-75.79 177.95,-83.69 184.42,-86.37"/>
</a>
</g>
</g>
<!-- Node26 -->
<g id="Node000026" class="node">
<title>Node26</title>
<g id="a_Node000026"><a xlink:title=" ">
<polygon fill="#e0e0e0" stroke="#999999" points="1387.09,-74.5 1329.09,-74.5 1329.09,-55.25 1387.09,-55.25 1387.09,-74.5"/>
<text text-anchor="middle" x="1358.09" y="-61" font-family="Helvetica,sans-Serif" font-size="10.00">functional</text>
</a>
</g>
</g>
<!-- Node4&#45;&gt;Node26 -->
<g id="edge63_Node000004_Node000026" class="edge">
<title>Node4&#45;&gt;Node26</title>
<g id="a_edge63_Node000004_Node000026"><a xlink:title=" ">
<path fill="none" stroke="#63b8ff" d="M280.21,-284.31C488.88,-281.83 1254.83,-270.68 1296.09,-240.25 1346.04,-203.41 1355.91,-122.89 1357.75,-85.58"/>
<polygon fill="#63b8ff" stroke="#63b8ff" points="1361.27,-85.82 1358.11,-75.71 1354.28,-85.58 1361.27,-85.82"/>
</a>
</g>
</g>
<!-- Node34 -->
<g id="Node000034" class="node">
<title>Node34</title>
<g id="a_Node000034"><a xlink:title=" ">
<polygon fill="#e0e0e0" stroke="#999999" points="225.72,-240.25 180.47,-240.25 180.47,-221 225.72,-221 225.72,-240.25"/>
<text text-anchor="middle" x="203.09" y="-226.75" font-family="Helvetica,sans-Serif" font-size="10.00">cstring</text>
</a>
</g>
</g>
<!-- Node4&#45;&gt;Node34 -->
<g id="edge62_Node000004_Node000034" class="edge">
<title>Node4&#45;&gt;Node34</title>
<g id="a_edge62_Node000004_Node000034"><a xlink:title=" ">
<path fill="none" stroke="#63b8ff" d="M223.96,-276.08C220.69,-269.11 216,-259.12 211.89,-250.37"/>
<polygon fill="#63b8ff" stroke="#63b8ff" points="214.73,-249.17 207.31,-241.61 208.39,-252.15 214.73,-249.17"/>
</a>
</g>
</g>
<!-- Node6 -->
<g id="Node000006" class="node">
<title>Node6</title>
<g id="a_Node000006"><a xlink:title=" ">
<polygon fill="#e0e0e0" stroke="#999999" points="805.97,-19.25 768.22,-19.25 768.22,0 805.97,0 805.97,-19.25"/>
<text text-anchor="middle" x="787.09" y="-5.75" font-family="Helvetica,sans-Serif" font-size="10.00">array</text>
</a>
</g>
</g>
<!-- Node5&#45;&gt;Node6 -->
<g id="edge6_Node000005_Node000006" class="edge">
<title>Node5&#45;&gt;Node6</title>
<g id="a_edge6_Node000005_Node000006"><a xlink:title=" ">
<path fill="none" stroke="#63b8ff" d="M734.78,-54.84C743.97,-47.07 757.46,-35.67 768.43,-26.4"/>
<polygon fill="#63b8ff" stroke="#63b8ff" points="770.18,-28.65 775.56,-19.52 765.66,-23.31 770.18,-28.65"/>
</a>
</g>
</g>
<!-- Node7 -->
<g id="Node000007" class="node">
<title>Node7</title>
<g id="a_Node000007"><a xlink:title=" ">
<polygon fill="#e0e0e0" stroke="#999999" points="1325.22,-19.25 1276.97,-19.25 1276.97,0 1325.22,0 1325.22,-19.25"/>
<text text-anchor="middle" x="1301.09" y="-5.75" font-family="Helvetica,sans-Serif" font-size="10.00">cstddef</text>
</a>
</g>
</g>
<!-- Node5&#45;&gt;Node7 -->
<g id="edge7_Node000005_Node000007" class="edge">
<title>Node5&#45;&gt;Node7</title>
<g id="a_edge7_Node000005_Node000007"><a xlink:title=" ">
<path fill="none" stroke="#63b8ff" d="M773.29,-59.33C887.19,-48.82 1166.84,-23.01 1265.74,-13.89"/>
<polygon fill="#63b8ff" stroke="#63b8ff" points="1265.98,-17.29 1275.61,-12.88 1265.33,-10.32 1265.98,-17.29"/>
</a>
</g>
</g>
<!-- Node8 -->
<g id="Node000008" class="node">
<title>Node8</title>
<g id="a_Node000008"><a xlink:title=" ">
<polygon fill="#e0e0e0" stroke="#999999" points="1051.72,-19.25 1006.47,-19.25 1006.47,0 1051.72,0 1051.72,-19.25"/>
<text text-anchor="middle" x="1029.09" y="-5.75" font-family="Helvetica,sans-Serif" font-size="10.00">cstdint</text>
</a>
</g>
</g>
<!-- Node5&#45;&gt;Node8 -->
<g id="edge8_Node000005_Node000008" class="edge">
<title>Node5&#45;&gt;Node8</title>
<g id="a_edge8_Node000005_Node000008"><a xlink:title=" ">
<path fill="none" stroke="#63b8ff" d="M773.43,-55.26C835.92,-44.35 941.91,-25.85 995.68,-16.46"/>
<polygon fill="#63b8ff" stroke="#63b8ff" points="996.07,-19.77 1005.32,-14.6 994.87,-12.87 996.07,-19.77"/>
</a>
</g>
</g>
<!-- Node5&#45;&gt;Node9 -->
<g id="edge9_Node000005_Node000009" class="edge">
<title>Node5&#45;&gt;Node9</title>
<g id="a_edge9_Node000005_Node000009"><a xlink:title=" ">
<path fill="none" stroke="#63b8ff" d="M674.93,-56.99C670.25,-56.38 665.58,-55.79 661.09,-55.25 513.19,-37.4 335.95,-20.22 265.34,-13.55"/>
<polygon fill="#63b8ff" stroke="#63b8ff" points="265.84,-9.98 255.56,-12.53 265.19,-16.95 265.84,-9.98"/>
</a>
</g>
</g>
<!-- Node5&#45;&gt;Node10 -->
<g id="edge10_Node000005_Node000010" class="edge">
<title>Node5&#45;&gt;Node10</title>
<g id="a_edge10_Node000005_Node000010"><a xlink:title=" ">
<path fill="none" stroke="#63b8ff" d="M747.33,-54.84C769.78,-46.12 803.95,-32.83 828.99,-23.1"/>
<polygon fill="#63b8ff" stroke="#63b8ff" points="830.05,-26.06 838.1,-19.17 827.51,-19.53 830.05,-26.06"/>
</a>
</g>
</g>
<!-- Node11 -->
<g id="Node000011" class="node">
<title>Node11</title>
<g id="a_Node000011"><a xlink:title=" ">
<polygon fill="#e0e0e0" stroke="#999999" points="679.97,-19.25 564.22,-19.25 564.22,0 679.97,0 679.97,-19.25"/>
<text text-anchor="middle" x="622.09" y="-5.75" font-family="Helvetica,sans-Serif" font-size="10.00">SEACASIoss_config.h</text>
</a>
</g>
</g>
<!-- Node5&#45;&gt;Node11 -->
<g id="edge11_Node000005_Node000011" class="edge">
<title>Node5&#45;&gt;Node11</title>
<g id="a_edge11_Node000005_Node000011"><a xlink:title=" ">
<path fill="none" stroke="#63b8ff" d="M706.79,-54.84C690.96,-46.58 667.3,-34.23 649.01,-24.68"/>
<polygon fill="#63b8ff" stroke="#63b8ff" points="650.96,-21.23 640.48,-19.7 647.72,-27.43 650.96,-21.23"/>
</a>
</g>
</g>
<!-- Node12 -->
<g id="Node000012" class="node">
<title>Node12</title>
<g id="a_Node000012"><a xlink:title=" ">
<polygon fill="#e0e0e0" stroke="#999999" points="750.47,-19.25 697.72,-19.25 697.72,0 750.47,0 750.47,-19.25"/>
<text text-anchor="middle" x="724.09" y="-5.75" font-family="Helvetica,sans-Serif" font-size="10.00">complex</text>
</a>
</g>
</g>
<!-- Node5&#45;&gt;Node12 -->
<g id="edge12_Node000005_Node000012" class="edge">
<title>Node5&#45;&gt;Node12</title>
<g id="a_edge12_Node000005_Node000012"><a xlink:title=" ">
<path fill="none" stroke="#63b8ff" d="M724.09,-55.08C724.09,-48.42 724.09,-38.99 724.09,-30.53"/>
<polygon fill="#63b8ff" stroke="#63b8ff" points="727.59,-30.61 724.09,-20.61 720.59,-30.61 727.59,-30.61"/>
</a>
</g>
</g>
<!-- Node13&#45;&gt;Node3 -->
<g id="edge14_Node000013_Node000003" class="edge">
<title>Node13&#45;&gt;Node3</title>
<g id="a_edge14_Node000013_Node000003"><a xlink:title=" ">
<path fill="none" stroke="#63b8ff" d="M806.18,-220.81C801.19,-207.04 789.7,-180.49 771.09,-165.75 729.44,-132.76 705.82,-150.94 657.09,-129.75 624.51,-115.58 589.2,-94.64 566.88,-80.64"/>
<polygon fill="#63b8ff" stroke="#63b8ff" points="569.19,-77.33 558.87,-74.92 565.44,-83.24 569.19,-77.33"/>
</a>
</g>
</g>
<!-- Node13&#45;&gt;Node5 -->
<g id="edge15_Node000013_Node000005" class="edge">
<title>Node13&#45;&gt;Node5</title>
<g id="a_edge15_Node000013_Node000005"><a xlink:title=" ">
<path fill="none" stroke="#63b8ff" d="M813.96,-220.59C820.13,-207.87 829.03,-184.2 821.09,-165.75 811.9,-144.38 799.44,-146.3 783.09,-129.75 767.75,-114.21 750.91,-95.85 739.17,-82.8"/>
<polygon fill="#63b8ff" stroke="#63b8ff" points="742.21,-80.84 732.93,-75.73 736.99,-85.51 742.21,-80.84"/>
</a>
</g>
</g>
<!-- Node13&#45;&gt;Node7 -->
<g id="edge55_Node000013_Node000007" class="edge">
<title>Node13&#45;&gt;Node7</title>
<g id="a_edge55_Node000013_Node000007"><a xlink:title=" ">
<path fill="none" stroke="#63b8ff" d="M843.8,-228.71C907.09,-226.27 1045,-217.36 1156.09,-185 1175.42,-179.37 1178.27,-172.9 1197.09,-165.75 1249.94,-145.68 1267.28,-152.36 1319.09,-129.75 1363.15,-110.52 1388.31,-116.29 1412.09,-74.5 1430.85,-41.54 1375.34,-24.15 1336.19,-16.21"/>
<polygon fill="#63b8ff" stroke="#63b8ff" points="1336.89,-12.59 1326.42,-14.17 1335.59,-19.47 1336.89,-12.59"/>
</a>
</g>
</g>
<!-- Node13&#45;&gt;Node8 -->
<g id="edge56_Node000013_Node000008" class="edge">
<title>Node13&#45;&gt;Node8</title>
<g id="a_edge56_Node000013_Node000008"><a xlink:title=" ">
<path fill="none" stroke="#63b8ff" d="M843.45,-227.84C901.63,-224.13 1022.8,-213.42 1121.09,-185 1141.21,-179.18 1144.7,-173.64 1164.09,-165.75 1207.07,-148.26 1218.86,-146.6 1262.09,-129.75 1322.11,-106.36 1360.26,-128.03 1396.09,-74.5 1434.03,-17.83 1160.38,-11.18 1062.78,-10.6"/>
<polygon fill="#63b8ff" stroke="#63b8ff" points="1063.06,-7.09 1053.05,-10.55 1063.03,-14.09 1063.06,-7.09"/>
</a>
</g>
</g>
<!-- Node13&#45;&gt;Node9 -->
<g id="edge60_Node000013_Node000009" class="edge">
<title>Node13&#45;&gt;Node9</title>
<g id="a_edge60_Node000013_Node000009"><a xlink:title=" ">
<path fill="none" stroke="#63b8ff" d="M774.44,-230.05C667.03,-230.89 341.17,-229.6 247.09,-185 191.35,-158.57 178.69,-134.19 163.09,-74.5 160.93,-66.22 158.95,-62.74 163.09,-55.25 171.79,-39.51 188.62,-28.57 203.71,-21.47"/>
<polygon fill="#63b8ff" stroke="#63b8ff" points="204.95,-24.31 212.76,-17.15 202.19,-17.88 204.95,-24.31"/>
</a>
</g>
</g>
<!-- Node13&#45;&gt;Node10 -->
<g id="edge61_Node000013_Node000010" class="edge">
<title>Node13&#45;&gt;Node10</title>
<g id="a_edge61_Node000013_Node000010"><a xlink:title=" ">
<path fill="none" stroke="#63b8ff" d="M842.19,-220.55C860.63,-213.77 882.36,-202.57 895.09,-185 928.95,-138.25 923.17,-108.59 901.09,-55.25 896.55,-44.29 888.13,-34.24 880.17,-26.47"/>
<polygon fill="#63b8ff" stroke="#63b8ff" points="883.28,-24.66 873.54,-20.5 878.56,-29.83 883.28,-24.66"/>
</a>
</g>
</g>
<!-- Node14 -->
<g id="Node000014" class="node">
<title>Node14</title>
<g id="a_Node000014"><a xlink:href="Ioss__ElementTopology_8h.html" target="_top" xlink:title=" ">
<polygon fill="white" stroke="#666666" points="377.97,-185 256.22,-185 256.22,-165.75 377.97,-165.75 377.97,-185"/>
<text text-anchor="middle" x="317.09" y="-171.5" font-family="Helvetica,sans-Serif" font-size="10.00">Ioss_ElementTopology.h</text>
</a>
</g>
</g>
<!-- Node13&#45;&gt;Node14 -->
<g id="edge16_Node000013_Node000014" class="edge">
<title>Node13&#45;&gt;Node14</title>
<g id="a_edge16_Node000013_Node000014"><a xlink:title=" ">
<path fill="none" stroke="#63b8ff" d="M774.61,-226.18C704.27,-219.11 538.91,-202.28 388.94,-185.19"/>
<polygon fill="#63b8ff" stroke="#63b8ff" points="389.5,-181.62 379.17,-183.96 388.71,-188.58 389.5,-181.62"/>
</a>
</g>
</g>
<!-- Node20 -->
<g id="Node000020" class="node">
<title>Node20</title>
<g id="a_Node000020"><a xlink:href="Ioss__EntityType_8h.html" target="_top" xlink:title=" ">
<polygon fill="white" stroke="#666666" points="490.47,-185 395.72,-185 395.72,-165.75 490.47,-165.75 490.47,-185"/>
<text text-anchor="middle" x="443.09" y="-171.5" font-family="Helvetica,sans-Serif" font-size="10.00">Ioss_EntityType.h</text>
</a>
</g>
</g>
<!-- Node13&#45;&gt;Node20 -->
<g id="edge31_Node000013_Node000020" class="edge">
<title>Node13&#45;&gt;Node20</title>
<g id="a_edge31_Node000013_Node000020"><a xlink:title=" ">
<path fill="none" stroke="#63b8ff" d="M774.79,-224.75C719.59,-216.88 607.36,-200.83 501.25,-185.16"/>
<polygon fill="#63b8ff" stroke="#63b8ff" points="502.08,-181.6 491.67,-183.6 501.05,-188.52 502.08,-181.6"/>
</a>
</g>
</g>
<!-- Node21 -->
<g id="Node000021" class="node">
<title>Node21</title>
<g id="a_Node000021"><a xlink:href="Ioss__Field_8h.html" target="_top" xlink:title=" ">
<polygon fill="white" stroke="#666666" points="735.72,-129.75 666.47,-129.75 666.47,-110.5 735.72,-110.5 735.72,-129.75"/>
<text text-anchor="middle" x="701.09" y="-116.25" font-family="Helvetica,sans-Serif" font-size="10.00">Ioss_Field.h</text>
</a>
</g>
</g>
<!-- Node13&#45;&gt;Node21 -->
<g id="edge32_Node000013_Node000021" class="edge">
<title>Node13&#45;&gt;Node21</title>
<g id="a_edge32_Node000013_Node000021"><a xlink:title=" ">
<path fill="none" stroke="#63b8ff" d="M811.03,-220.83C813.42,-207.56 815.85,-182.23 804.09,-165.75 790.63,-146.89 767.45,-135.92 746.48,-129.59"/>
<polygon fill="#63b8ff" stroke="#63b8ff" points="747.67,-126.01 737.11,-126.75 745.83,-132.76 747.67,-126.01"/>
</a>
</g>
</g>
<!-- Node22 -->
<g id="Node000022" class="node">
<title>Node22</title>
<g id="a_Node000022"><a xlink:href="Ioss__Property_8h.html" target="_top" xlink:title=" ">
<polygon fill="white" stroke="#666666" points="875.84,-129.75 792.34,-129.75 792.34,-110.5 875.84,-110.5 875.84,-129.75"/>
<text text-anchor="middle" x="834.09" y="-116.25" font-family="Helvetica,sans-Serif" font-size="10.00">Ioss_Property.h</text>
</a>
</g>
</g>
<!-- Node13&#45;&gt;Node22 -->
<g id="edge38_Node000013_Node000022" class="edge">
<title>Node13&#45;&gt;Node22</title>
<g id="a_edge38_Node000013_Node000022"><a xlink:title=" ">
<path fill="none" stroke="#63b8ff" d="M835.67,-220.51C851.64,-213.5 870.66,-202.08 880.09,-185 889.79,-167.44 873.24,-149.01 857.35,-136.49"/>
<polygon fill="#63b8ff" stroke="#63b8ff" points="859.9,-133.28 849.77,-130.18 855.75,-138.92 859.9,-133.28"/>
</a>
</g>
</g>
<!-- Node23 -->
<g id="Node000023" class="node">
<title>Node23</title>
<g id="a_Node000023"><a xlink:href="Ioss__Sort_8h.html" target="_top" xlink:title=" ">
<polygon fill="white" stroke="#666666" points="1112.22,-185 1045.97,-185 1045.97,-165.75 1112.22,-165.75 1112.22,-185"/>
<text text-anchor="middle" x="1079.09" y="-171.5" font-family="Helvetica,sans-Serif" font-size="10.00">Ioss_Sort.h</text>
</a>
</g>
</g>
<!-- Node13&#45;&gt;Node23 -->
<g id="edge43_Node000013_Node000023" class="edge">
<title>Node13&#45;&gt;Node23</title>
<g id="a_edge43_Node000013_Node000023"><a xlink:title=" ">
<path fill="none" stroke="#63b8ff" d="M843.84,-222.77C892.74,-213.13 981.85,-195.55 1035.25,-185.02"/>
<polygon fill="#63b8ff" stroke="#63b8ff" points="1035.62,-188.32 1044.75,-182.95 1034.26,-181.45 1035.62,-188.32"/>
</a>
</g>
</g>
<!-- Node25 -->
<g id="Node000025" class="node">
<title>Node25</title>
<g id="a_Node000025"><a xlink:title=" ">
<polygon fill="#e0e0e0" stroke="#999999" points="1112.97,-74.5 1057.22,-74.5 1057.22,-55.25 1112.97,-55.25 1112.97,-74.5"/>
<text text-anchor="middle" x="1085.09" y="-61" font-family="Helvetica,sans-Serif" font-size="10.00">algorithm</text>
</a>
</g>
</g>
<!-- Node13&#45;&gt;Node25 -->
<g id="edge52_Node000013_Node000025" class="edge">
<title>Node13&#45;&gt;Node25</title>
<g id="a_edge52_Node000013_Node000025"><a xlink:title=" ">
<path fill="none" stroke="#63b8ff" d="M843.83,-223.68C874.79,-217.34 920.57,-205.35 956.09,-185 1004.15,-157.47 1048.97,-109.01 1070.94,-83.2"/>
<polygon fill="#63b8ff" stroke="#63b8ff" points="1074.24,-85.72 1077.97,-75.8 1068.87,-81.23 1074.24,-85.72"/>
</a>
</g>
</g>
<!-- Node13&#45;&gt;Node29 -->
<g id="edge53_Node000013_Node000029" class="edge">
<title>Node13&#45;&gt;Node29</title>
<g id="a_edge53_Node000013_Node000029"><a xlink:title=" ">
<path fill="none" stroke="#63b8ff" d="M843.6,-226.85C910.93,-221.17 1064.41,-206.86 1192.09,-185 1193.05,-184.84 1194.03,-184.66 1195.01,-184.48"/>
<polygon fill="#63b8ff" stroke="#63b8ff" points="1195.53,-187.74 1204.64,-182.33 1194.14,-180.88 1195.53,-187.74"/>
</a>
</g>
</g>
<!-- Node30 -->
<g id="Node000030" class="node">
<title>Node30</title>
<g id="a_Node000030"><a xlink:title=" ">
<polygon fill="#e0e0e0" stroke="#999999" points="551.59,-185 508.59,-185 508.59,-165.75 551.59,-165.75 551.59,-185"/>
<text text-anchor="middle" x="530.09" y="-171.5" font-family="Helvetica,sans-Serif" font-size="10.00">cmath</text>
</a>
</g>
</g>
<!-- Node13&#45;&gt;Node30 -->
<g id="edge54_Node000013_Node000030" class="edge">
<title>Node13&#45;&gt;Node30</title>
<g id="a_edge54_Node000013_Node000030"><a xlink:title=" ">
<path fill="none" stroke="#63b8ff" d="M774.38,-224.43C728.21,-217.29 643.86,-203.45 562.47,-185.13"/>
<polygon fill="#63b8ff" stroke="#63b8ff" points="563.57,-181.56 553.04,-182.76 562.01,-188.39 563.57,-181.56"/>
</a>
</g>
</g>
<!-- Node31 -->
<g id="Node000031" class="node">
<title>Node31</title>
<g id="a_Node000031"><a xlink:title=" ">
<polygon fill="#e0e0e0" stroke="#999999" points="614.34,-185 569.84,-185 569.84,-165.75 614.34,-165.75 614.34,-185"/>
<text text-anchor="middle" x="592.09" y="-171.5" font-family="Helvetica,sans-Serif" font-size="10.00">cstdlib</text>
</a>
</g>
</g>
<!-- Node13&#45;&gt;Node31 -->
<g id="edge57_Node000013_Node000031" class="edge">
<title>Node13&#45;&gt;Node31</title>
<g id="a_edge57_Node000013_Node000031"><a xlink:title=" ">
<path fill="none" stroke="#63b8ff" d="M774.38,-221.69C739.06,-213.53 682.52,-200.23 625.1,-185.46"/>
<polygon fill="#63b8ff" stroke="#63b8ff" points="626.31,-181.9 615.75,-182.78 624.56,-188.67 626.31,-181.9"/>
</a>
</g>
</g>
<!-- Node32 -->
<g id="Node000032" class="node">
<title>Node32</title>
<g id="a_Node000032"><a xlink:title=" ">
<polygon fill="#e0e0e0" stroke="#999999" points="685.84,-185 632.34,-185 632.34,-165.75 685.84,-165.75 685.84,-185"/>
<text text-anchor="middle" x="659.09" y="-171.5" font-family="Helvetica,sans-Serif" font-size="10.00">iostream</text>
</a>
</g>
</g>
<!-- Node13&#45;&gt;Node32 -->
<g id="edge58_Node000013_Node000032" class="edge">
<title>Node13&#45;&gt;Node32</title>
<g id="a_edge58_Node000013_Node000032"><a xlink:title=" ">
<path fill="none" stroke="#63b8ff" d="M783.65,-220.59C759.29,-211.95 722.33,-198.82 694.99,-189.12"/>
<polygon fill="#63b8ff" stroke="#63b8ff" points="696.26,-185.5 685.66,-185.45 693.91,-192.1 696.26,-185.5"/>
</a>
</g>
</g>
<!-- Node33 -->
<g id="Node000033" class="node">
<title>Node33</title>
<g id="a_Node000033"><a xlink:title=" ">
<polygon fill="#e0e0e0" stroke="#999999" points="762.47,-185 703.72,-185 703.72,-165.75 762.47,-165.75 762.47,-185"/>
<text text-anchor="middle" x="733.09" y="-171.5" font-family="Helvetica,sans-Serif" font-size="10.00">stdexcept</text>
</a>
</g>
</g>
<!-- Node13&#45;&gt;Node33 -->
<g id="edge59_Node000013_Node000033" class="edge">
<title>Node13&#45;&gt;Node33</title>
<g id="a_edge59_Node000013_Node000033"><a xlink:title=" ">
<path fill="none" stroke="#63b8ff" d="M796.2,-220.59C784.84,-212.64 768.07,-200.89 754.68,-191.5"/>
<polygon fill="#63b8ff" stroke="#63b8ff" points="757.24,-188.32 747.05,-185.45 753.23,-194.06 757.24,-188.32"/>
</a>
</g>
</g>
<!-- Node14&#45;&gt;Node3 -->
<g id="edge17_Node000014_Node000003" class="edge">
<title>Node14&#45;&gt;Node3</title>
<g id="a_edge17_Node000014_Node000003"><a xlink:title=" ">
<path fill="none" stroke="#63b8ff" d="M373.8,-165.26C431.49,-155.5 513.96,-140.05 525.09,-129.75 537.3,-118.46 541.79,-99.71 543.38,-85.43"/>
<polygon fill="#63b8ff" stroke="#63b8ff" points="546.92,-85.98 544.14,-75.76 539.94,-85.49 546.92,-85.98"/>
</a>
</g>
</g>
<!-- Node14&#45;&gt;Node5 -->
<g id="edge18_Node000014_Node000005" class="edge">
<title>Node14&#45;&gt;Node5</title>
<g id="a_edge18_Node000014_Node000005"><a xlink:title=" ">
<path fill="none" stroke="#63b8ff" d="M375.48,-165.32C421.66,-157.59 487.54,-145.25 544.09,-129.75 596.92,-115.27 656.52,-92.88 692.16,-78.82"/>
<polygon fill="#63b8ff" stroke="#63b8ff" points="692.98,-81.86 700.98,-74.91 690.39,-75.35 692.98,-81.86"/>
</a>
</g>
</g>
<!-- Node14&#45;&gt;Node9 -->
<g id="edge29_Node000014_Node000009" class="edge">
<title>Node14&#45;&gt;Node9</title>
<g id="a_edge29_Node000014_Node000009"><a xlink:title=" ">
<path fill="none" stroke="#63b8ff" d="M328.44,-165.48C353.27,-144.93 408.06,-93.05 380.09,-55.25 353.81,-19.74 299.87,-11.55 265.42,-10.16"/>
<polygon fill="#63b8ff" stroke="#63b8ff" points="265.63,-6.64 255.56,-9.92 265.48,-13.64 265.63,-6.64"/>
</a>
</g>
</g>
<!-- Node14&#45;&gt;Node10 -->
<g id="edge30_Node000014_Node000010" class="edge">
<title>Node14&#45;&gt;Node10</title>
<g id="a_edge30_Node000014_Node000010"><a xlink:title=" ">
<path fill="none" stroke="#63b8ff" d="M378.15,-166.67C381.17,-166.34 384.17,-166.04 387.09,-165.75 442.31,-160.36 847.3,-170.37 885.09,-129.75 910.97,-101.93 888.56,-54.3 873,-28.5"/>
<polygon fill="#63b8ff" stroke="#63b8ff" points="875.59,-27.05 867.29,-20.47 869.68,-30.8 875.59,-27.05"/>
</a>
</g>
</g>
<!-- Node15 -->
<g id="Node000015" class="node">
<title>Node15</title>
<g id="a_Node000015"><a xlink:href="Ioss__ElementPermutation_8h.html" target="_top" xlink:title=" ">
<polygon fill="white" stroke="#666666" points="354.47,-129.75 217.72,-129.75 217.72,-110.5 354.47,-110.5 354.47,-129.75"/>
<text text-anchor="middle" x="286.09" y="-116.25" font-family="Helvetica,sans-Serif" font-size="10.00">Ioss_ElementPermutation.h</text>
</a>
</g>
</g>
<!-- Node14&#45;&gt;Node15 -->
<g id="edge19_Node000014_Node000015" class="edge">
<title>Node14&#45;&gt;Node15</title>
<g id="a_edge19_Node000014_Node000015"><a xlink:title=" ">
<path fill="none" stroke="#63b8ff" d="M311.97,-165.58C307.87,-158.53 301.97,-148.4 296.84,-139.58"/>
<polygon fill="#63b8ff" stroke="#63b8ff" points="299.38,-137.99 291.32,-131.11 293.33,-141.51 299.38,-137.99"/>
</a>
</g>
</g>
<!-- Node14&#45;&gt;Node18 -->
<g id="edge27_Node000014_Node000018" class="edge">
<title>Node14&#45;&gt;Node18</title>
<g id="a_edge27_Node000014_Node000018"><a xlink:title=" ">
<path fill="none" stroke="#63b8ff" d="M272.22,-165.26C250.49,-158.73 225.6,-147.78 209.09,-129.75 198.05,-117.68 193.1,-99.57 190.89,-85.72"/>
<polygon fill="#63b8ff" stroke="#63b8ff" points="194.25,-85.39 189.56,-75.89 187.3,-86.24 194.25,-85.39"/>
</a>
</g>
</g>
<!-- Node19 -->
<g id="Node000019" class="node">
<title>Node19</title>
<g id="a_Node000019"><a xlink:title=" ">
<polygon fill="#e0e0e0" stroke="#999999" points="515.84,-129.75 486.34,-129.75 486.34,-110.5 515.84,-110.5 515.84,-129.75"/>
<text text-anchor="middle" x="501.09" y="-116.25" font-family="Helvetica,sans-Serif" font-size="10.00">set</text>
</a>
</g>
</g>
<!-- Node14&#45;&gt;Node19 -->
<g id="edge28_Node000014_Node000019" class="edge">
<title>Node14&#45;&gt;Node19</title>
<g id="a_edge28_Node000014_Node000019"><a xlink:title=" ">
<path fill="none" stroke="#63b8ff" d="M348.88,-165.31C380.23,-156.35 429.49,-142.22 472.09,-129.75 473.23,-129.42 474.38,-129.08 475.55,-128.73"/>
<polygon fill="#63b8ff" stroke="#63b8ff" points="476.45,-131.82 485.05,-125.63 474.46,-125.11 476.45,-131.82"/>
</a>
</g>
</g>
<!-- Node15&#45;&gt;Node3 -->
<g id="edge20_Node000015_Node000003" class="edge">
<title>Node15&#45;&gt;Node3</title>
<g id="a_edge20_Node000015_Node000003"><a xlink:title=" ">
<path fill="none" stroke="#63b8ff" d="M330.15,-110.03C376.21,-100.52 448.29,-85.65 495.86,-75.83"/>
<polygon fill="#63b8ff" stroke="#63b8ff" points="496.42,-79.08 505.5,-73.63 495,-72.23 496.42,-79.08"/>
</a>
</g>
</g>
<!-- Node15&#45;&gt;Node5 -->
<g id="edge21_Node000015_Node000005" class="edge">
<title>Node15&#45;&gt;Node5</title>
<g id="a_edge21_Node000015_Node000005"><a xlink:title=" ">
<path fill="none" stroke="#63b8ff" d="M354.53,-110.8C439.61,-100.46 583.46,-82.97 664.31,-73.14"/>
<polygon fill="#63b8ff" stroke="#63b8ff" points="664.3,-76.55 673.8,-71.87 663.45,-69.6 664.3,-76.55"/>
</a>
</g>
</g>
<!-- Node15&#45;&gt;Node9 -->
<g id="edge25_Node000015_Node000009" class="edge">
<title>Node15&#45;&gt;Node9</title>
<g id="a_edge25_Node000015_Node000009"><a xlink:title=" ">
<path fill="none" stroke="#63b8ff" d="M277.99,-110.17C270.59,-101.58 259.8,-87.95 253.09,-74.5 246.05,-60.39 241.12,-43.2 238.05,-30.21"/>
<polygon fill="#63b8ff" stroke="#63b8ff" points="241.3,-29.69 235.75,-20.67 234.46,-31.19 241.3,-29.69"/>
</a>
</g>
</g>
<!-- Node15&#45;&gt;Node10 -->
<g id="edge26_Node000015_Node000010" class="edge">
<title>Node15&#45;&gt;Node10</title>
<g id="a_edge26_Node000015_Node000010"><a xlink:title=" ">
<path fill="none" stroke="#63b8ff" d="M310.85,-110.08C350.03,-96.12 429,-69.46 498.09,-55.25 636.98,-26.68 674.87,-40.33 815.09,-19.25 819.4,-18.6 823.92,-17.85 828.37,-17.06"/>
<polygon fill="#63b8ff" stroke="#63b8ff" points="828.95,-20.33 838.15,-15.07 827.68,-13.44 828.95,-20.33"/>
</a>
</g>
</g>
<!-- Node16 -->
<g id="Node000016" class="node">
<title>Node16</title>
<g id="a_Node000016"><a xlink:title=" ">
<polygon fill="#e0e0e0" stroke="#999999" points="313.72,-74.5 262.47,-74.5 262.47,-55.25 313.72,-55.25 313.72,-74.5"/>
<text text-anchor="middle" x="288.09" y="-61" font-family="Helvetica,sans-Serif" font-size="10.00">assert.h</text>
</a>
</g>
</g>
<!-- Node15&#45;&gt;Node16 -->
<g id="edge22_Node000015_Node000016" class="edge">
<title>Node15&#45;&gt;Node16</title>
<g id="a_edge22_Node000015_Node000016"><a xlink:title=" ">
<path fill="none" stroke="#63b8ff" d="M286.42,-110.33C286.67,-103.67 287.03,-94.24 287.34,-85.78"/>
<polygon fill="#63b8ff" stroke="#63b8ff" points="290.88,-85.98 287.75,-75.86 283.88,-85.72 290.88,-85.98"/>
</a>
</g>
</g>
<!-- Node17 -->
<g id="Node000017" class="node">
<title>Node17</title>
<g id="a_Node000017"><a xlink:title=" ">
<polygon fill="#e0e0e0" stroke="#999999" points="370.72,-74.5 331.47,-74.5 331.47,-55.25 370.72,-55.25 370.72,-74.5"/>
<text text-anchor="middle" x="351.09" y="-61" font-family="Helvetica,sans-Serif" font-size="10.00">limits</text>
</a>
</g>
</g>
<!-- Node15&#45;&gt;Node17 -->
<g id="edge23_Node000015_Node000017" class="edge">
<title>Node15&#45;&gt;Node17</title>
<g id="a_edge23_Node000015_Node000017"><a xlink:title=" ">
<path fill="none" stroke="#63b8ff" d="M297.12,-110.09C306.61,-102.32 320.51,-90.92 331.84,-81.65"/>
<polygon fill="#63b8ff" stroke="#63b8ff" points="333.71,-83.82 339.23,-74.77 329.27,-78.4 333.71,-83.82"/>
</a>
</g>
</g>
<!-- Node15&#45;&gt;Node18 -->
<g id="edge24_Node000015_Node000018" class="edge">
<title>Node15&#45;&gt;Node18</title>
<g id="a_edge24_Node000015_Node000018"><a xlink:title=" ">
<path fill="none" stroke="#63b8ff" d="M269.64,-110.09C254.73,-101.91 232.5,-89.71 215.17,-80.19"/>
<polygon fill="#63b8ff" stroke="#63b8ff" points="217.08,-76.7 206.63,-74.95 213.71,-82.83 217.08,-76.7"/>
</a>
</g>
</g>
<!-- Node21&#45;&gt;Node3 -->
<g id="edge33_Node000021_Node000003" class="edge">
<title>Node21&#45;&gt;Node3</title>
<g id="a_edge33_Node000021_Node000003"><a xlink:title=" ">
<path fill="none" stroke="#63b8ff" d="M674.46,-110.09C648.75,-101.37 609.59,-88.09 580.91,-78.36"/>
<polygon fill="#63b8ff" stroke="#63b8ff" points="582.45,-74.85 571.85,-74.95 580.2,-81.48 582.45,-74.85"/>
</a>
</g>
</g>
<!-- Node21&#45;&gt;Node5 -->
<g id="edge34_Node000021_Node000005" class="edge">
<title>Node21&#45;&gt;Node5</title>
<g id="a_edge34_Node000021_Node000005"><a xlink:title=" ">
<path fill="none" stroke="#63b8ff" d="M704.89,-110.33C707.87,-103.44 712.12,-93.59 715.87,-84.91"/>
<polygon fill="#63b8ff" stroke="#63b8ff" points="719.46,-86.43 720.21,-75.86 713.03,-83.65 719.46,-86.43"/>
</a>
</g>
</g>
<!-- Node21&#45;&gt;Node7 -->
<g id="edge35_Node000021_Node000007" class="edge">
<title>Node21&#45;&gt;Node7</title>
<g id="a_edge35_Node000021_Node000007"><a xlink:title=" ">
<path fill="none" stroke="#63b8ff" d="M736.05,-112.6C798.6,-100.95 933.85,-75.84 1048.09,-55.25 1125.87,-41.23 1217.19,-25.24 1266.04,-16.72"/>
<polygon fill="#63b8ff" stroke="#63b8ff" points="1266.41,-20.04 1275.66,-14.87 1265.2,-13.14 1266.41,-20.04"/>
</a>
</g>
</g>
<!-- Node21&#45;&gt;Node9 -->
<g id="edge36_Node000021_Node000009" class="edge">
<title>Node21&#45;&gt;Node9</title>
<g id="a_edge36_Node000021_Node000009"><a xlink:title=" ">
<path fill="none" stroke="#63b8ff" d="M687.15,-110.17C662.1,-94.23 610.22,-62 590.09,-55.25 474.72,-16.58 328.14,-10.94 265.15,-10.44"/>
<polygon fill="#63b8ff" stroke="#63b8ff" points="265.4,-6.94 255.39,-10.4 265.37,-13.94 265.4,-6.94"/>
</a>
</g>
</g>
<!-- Node21&#45;&gt;Node10 -->
<g id="edge37_Node000021_Node000010" class="edge">
<title>Node21&#45;&gt;Node10</title>
<g id="a_edge37_Node000021_Node000010"><a xlink:title=" ">
<path fill="none" stroke="#63b8ff" d="M719.65,-110.09C736.43,-101.64 761.57,-88.29 782.09,-74.5 804.12,-59.7 827.54,-40.23 843.11,-26.69"/>
<polygon fill="#63b8ff" stroke="#63b8ff" points="845.11,-28.72 850.3,-19.49 840.48,-23.47 845.11,-28.72"/>
</a>
</g>
</g>
<!-- Node22&#45;&gt;Node3 -->
<g id="edge39_Node000022_Node000003" class="edge">
<title>Node22&#45;&gt;Node3</title>
<g id="a_edge39_Node000022_Node000003"><a xlink:title=" ">
<path fill="none" stroke="#63b8ff" d="M791.92,-111.38C738.9,-101.65 648.1,-84.97 592.36,-74.74"/>
<polygon fill="#63b8ff" stroke="#63b8ff" points="593.16,-71.14 582.7,-72.78 591.9,-78.03 593.16,-71.14"/>
</a>
</g>
</g>
<!-- Node22&#45;&gt;Node8 -->
<g id="edge40_Node000022_Node000008" class="edge">
<title>Node22&#45;&gt;Node8</title>
<g id="a_edge40_Node000022_Node000008"><a xlink:title=" ">
<path fill="none" stroke="#63b8ff" d="M850.38,-110.06C884.22,-91.23 962.36,-47.76 1003.18,-25.04"/>
<polygon fill="#63b8ff" stroke="#63b8ff" points="1004.67,-27.66 1011.71,-19.74 1001.27,-21.54 1004.67,-27.66"/>
</a>
</g>
</g>
<!-- Node22&#45;&gt;Node9 -->
<g id="edge41_Node000022_Node000009" class="edge">
<title>Node22&#45;&gt;Node9</title>
<g id="a_edge41_Node000022_Node000009"><a xlink:title=" ">
<path fill="none" stroke="#63b8ff" d="M793.2,-110.01C758.87,-101.95 708.74,-89.2 666.09,-74.5 645.53,-67.41 642.12,-60.83 621.09,-55.25 491.9,-20.95 331.53,-13.01 265.12,-11.18"/>
<polygon fill="#63b8ff" stroke="#63b8ff" points="265.29,-7.66 255.2,-10.91 265.11,-14.65 265.29,-7.66"/>
</a>
</g>
</g>
<!-- Node22&#45;&gt;Node10 -->
<g id="edge42_Node000022_Node000010" class="edge">
<title>Node22&#45;&gt;Node10</title>
<g id="a_edge42_Node000022_Node000010"><a xlink:title=" ">
<path fill="none" stroke="#63b8ff" d="M836.3,-110.25C840.63,-92.84 850.33,-53.87 856.23,-30.16"/>
<polygon fill="#63b8ff" stroke="#63b8ff" points="859.83,-31.18 858.85,-20.63 853.04,-29.49 859.83,-31.18"/>
</a>
</g>
</g>
<!-- Node23&#45;&gt;Node7 -->
<g id="edge50_Node000023_Node000007" class="edge">
<title>Node23&#45;&gt;Node7</title>
<g id="a_edge50_Node000023_Node000007"><a xlink:title=" ">
<path fill="none" stroke="#63b8ff" d="M1112.51,-169.15C1187.25,-156.69 1363.87,-122.63 1396.09,-74.5 1414.2,-47.45 1370.25,-28.87 1336.24,-18.99"/>
<polygon fill="#63b8ff" stroke="#63b8ff" points="1337.21,-15.35 1326.64,-16.09 1335.36,-22.1 1337.21,-15.35"/>
</a>
</g>
</g>
<!-- Node23&#45;&gt;Node10 -->
<g id="edge51_Node000023_Node000010" class="edge">
<title>Node23&#45;&gt;Node10</title>
<g id="a_edge51_Node000023_Node000010"><a xlink:title=" ">
<path fill="none" stroke="#63b8ff" d="M1068.44,-165.36C1044.22,-145.01 982.99,-94.22 929.09,-55.25 914.63,-44.8 897.89,-33.79 884.63,-25.33"/>
<polygon fill="#63b8ff" stroke="#63b8ff" points="886.99,-22.05 876.67,-19.66 883.25,-27.96 886.99,-22.05"/>
</a>
</g>
</g>
<!-- Node24 -->
<g id="Node000024" class="node">
<title>Node24</title>
<g id="a_Node000024"><a xlink:href="pdqsort_8h.html" target="_top" xlink:title=" ">
<polygon fill="white" stroke="#666666" points="1253.34,-129.75 1196.84,-129.75 1196.84,-110.5 1253.34,-110.5 1253.34,-129.75"/>
<text text-anchor="middle" x="1225.09" y="-116.25" font-family="Helvetica,sans-Serif" font-size="10.00">pdqsort.h</text>
</a>
</g>
</g>
<!-- Node23&#45;&gt;Node24 -->
<g id="edge44_Node000023_Node000024" class="edge">
<title>Node23&#45;&gt;Node24</title>
<g id="a_edge44_Node000023_Node000024"><a xlink:title=" ">
<path fill="none" stroke="#63b8ff" d="M1103.86,-165.34C1127.56,-156.7 1163.54,-143.57 1190.15,-133.87"/>
<polygon fill="#63b8ff" stroke="#63b8ff" points="1191.01,-136.92 1199.2,-130.2 1188.61,-130.34 1191.01,-136.92"/>
</a>
</g>
</g>
<!-- Node24&#45;&gt;Node7 -->
<g id="edge46_Node000024_Node000007" class="edge">
<title>Node24&#45;&gt;Node7</title>
<g id="a_edge46_Node000024_Node000007"><a xlink:title=" ">
<path fill="none" stroke="#63b8ff" d="M1241.64,-110.05C1254.44,-102.22 1271.69,-89.77 1282.09,-74.5 1291.07,-61.32 1295.88,-43.82 1298.42,-30.47"/>
<polygon fill="#63b8ff" stroke="#63b8ff" points="1302.03,-31.05 1300.16,-20.62 1295.12,-29.94 1302.03,-31.05"/>
</a>
</g>
</g>
<!-- Node24&#45;&gt;Node25 -->
<g id="edge45_Node000024_Node000025" class="edge">
<title>Node24&#45;&gt;Node25</title>
<g id="a_edge45_Node000024_Node000025"><a xlink:title=" ">
<path fill="none" stroke="#63b8ff" d="M1201.34,-110.09C1178.72,-101.49 1144.42,-88.44 1118.93,-78.75"/>
<polygon fill="#63b8ff" stroke="#63b8ff" points="1120.55,-75.24 1109.96,-74.95 1118.06,-81.78 1120.55,-75.24"/>
</a>
</g>
</g>
<!-- Node24&#45;&gt;Node26 -->
<g id="edge47_Node000024_Node000026" class="edge">
<title>Node24&#45;&gt;Node26</title>
<g id="a_edge47_Node000024_Node000026"><a xlink:title=" ">
<path fill="none" stroke="#63b8ff" d="M1247.65,-110.09C1268.96,-101.56 1301.15,-88.67 1325.29,-79.01"/>
<polygon fill="#63b8ff" stroke="#63b8ff" points="1326.44,-81.92 1334.42,-74.95 1323.83,-75.42 1326.44,-81.92"/>
</a>
</g>
</g>
<!-- Node27 -->
<g id="Node000027" class="node">
<title>Node27</title>
<g id="a_Node000027"><a xlink:title=" ">
<polygon fill="#e0e0e0" stroke="#999999" points="1215.09,-74.5 1169.09,-74.5 1169.09,-55.25 1215.09,-55.25 1215.09,-74.5"/>
<text text-anchor="middle" x="1192.09" y="-61" font-family="Helvetica,sans-Serif" font-size="10.00">iterator</text>
</a>
</g>
</g>
<!-- Node24&#45;&gt;Node27 -->
<g id="edge48_Node000024_Node000027" class="edge">
<title>Node24&#45;&gt;Node27</title>
<g id="a_edge48_Node000024_Node000027"><a xlink:title=" ">
<path fill="none" stroke="#63b8ff" d="M1219.64,-110.33C1215.23,-103.21 1208.86,-92.93 1203.35,-84.05"/>
<polygon fill="#63b8ff" stroke="#63b8ff" points="1205.9,-82.52 1197.66,-75.86 1199.95,-86.2 1205.9,-82.52"/>
</a>
</g>
</g>
<!-- Node28 -->
<g id="Node000028" class="node">
<title>Node28</title>
<g id="a_Node000028"><a xlink:title=" ">
<polygon fill="#e0e0e0" stroke="#999999" points="1272.72,-74.5 1233.47,-74.5 1233.47,-55.25 1272.72,-55.25 1272.72,-74.5"/>
<text text-anchor="middle" x="1253.09" y="-61" font-family="Helvetica,sans-Serif" font-size="10.00">utility</text>
</a>
</g>
</g>
<!-- Node24&#45;&gt;Node28 -->
<g id="edge49_Node000024_Node000028" class="edge">
<title>Node24&#45;&gt;Node28</title>
<g id="a_edge49_Node000024_Node000028"><a xlink:title=" ">
<path fill="none" stroke="#63b8ff" d="M1229.71,-110.33C1233.42,-103.28 1238.75,-93.15 1243.38,-84.33"/>
<polygon fill="#63b8ff" stroke="#63b8ff" points="1246.81,-86.34 1248.37,-75.86 1240.61,-83.08 1246.81,-86.34"/>
</a>
</g>
</g>
</g>
</svg>
