<?xml version="1.0" encoding="UTF-8" standalone="no"?>
<!DOCTYPE svg PUBLIC "-//W3C//DTD SVG 1.1//EN"
 "http://www.w3.org/Graphics/SVG/1.1/DTD/svg11.dtd">
<!-- Generated by graphviz version 8.0.5 (20230430.1635)
 -->
<!-- Title: src/Ioss_ConstructedVariableType.C Pages: 1 -->
<!--zoomable 437 -->

<svg id="main" version="1.1" xmlns="http://www.w3.org/2000/svg" xmlns:xlink="http://www.w3.org/1999/xlink" xml:space="preserve" onload="init(evt)">
<style type="text/css"><![CDATA[
.node, .edge {opacity: 0.7;}
.node.selected, .edge.selected {opacity: 1;}
.edge:hover path { stroke: red; }
.edge:hover polygon { stroke: red; fill: red; }
]]></style>

<defs>
  <circle id="rim" cx="0" cy="0" r="7"/>
  <circle id="rim2" cx="0" cy="0" r="3.5"/>
  <g id="zoomPlus">
    <use xlink:href="#rim" fill="#404040"><set attributeName="fill" to="#808080" begin="zoomplus.mouseover" end="zoomplus.mouseout"/></use>
    <path d="M-4,0h8M0,-4v8" fill="none" stroke="white" stroke-width="1.5" pointer-events="none"/>
  </g>
  <g id="zoomMin">
    <use xlink:href="#rim" fill="#404040"><set attributeName="fill" to="#808080" begin="zoomminus.mouseover" end="zoomminus.mouseout"/></use>
    <path d="M-4,0h8" fill="none" stroke="white" stroke-width="1.5" pointer-events="none"/>
  </g>
  <g id="arrowUp" transform="translate(30 24)">
    <use xlink:href="#rim"/>
    <path pointer-events="none" fill="none" stroke="white" stroke-width="1.5" d="M0,-3.0v7 M-2.5,-0.5L0,-3.0L2.5,-0.5"/>
  </g>
  <g id="arrowRight" transform="rotate(90) translate(36 -43)">
    <use xlink:href="#rim"/>
    <path pointer-events="none" fill="none" stroke="white" stroke-width="1.5" d="M0,-3.0v7 M-2.5,-0.5L0,-3.0L2.5,-0.5"/>
  </g>
  <g id="arrowDown" transform="rotate(180) translate(-30 -48)">
    <use xlink:href="#rim"/>
    <path pointer-events="none" fill="none" stroke="white" stroke-width="1.5" d="M0,-3.0v7 M-2.5,-0.5L0,-3.0L2.5,-0.5"/>
  </g>
  <g id="arrowLeft" transform="rotate(270) translate(-36 17)">
    <use xlink:href="#rim"/>
    <path pointer-events="none" fill="none" stroke="white" stroke-width="1.5" d="M0,-3.0v7 M-2.5,-0.5L0,-3.0L2.5,-0.5"/>
  </g>
  <g id="resetDef">
    <use xlink:href="#rim2" fill="#404040"><set attributeName="fill" to="#808080" begin="reset.mouseover" end="reset.mouseout"/></use>
  </g>
</defs>
<script type="application/ecmascript">
var viewWidth = 1594;
var viewHeight = 437;
var sectionId = 'dynsection-0';
</script>
<script type="application/ecmascript" xlink:href="svg.min.js"/>
<svg id="graph" class="graph">
<g id="viewport">
<title>src/Ioss_ConstructedVariableType.C</title>
<!-- Node1 -->
<g id="Node000001" class="node">
<title>Node1</title>
<g id="a_Node000001"><a xlink:title=" ">
<polygon fill="#999999" stroke="#666666" points="526.12,-428.5 381.88,-428.5 381.88,-398 526.12,-398 526.12,-428.5"/>
<text text-anchor="start" x="389.88" y="-415" font-family="Helvetica,sans-Serif" font-size="10.00">src/Ioss_ConstructedVariable</text>
<text text-anchor="middle" x="454" y="-403.75" font-family="Helvetica,sans-Serif" font-size="10.00">Type.C</text>
</a>
</g>
</g>
<!-- Node2 -->
<g id="Node000002" class="node">
<title>Node2</title>
<g id="a_Node000002"><a xlink:href="Ioss__ConstructedVariableType_8h.html" target="_top" xlink:title=" ">
<polygon fill="white" stroke="#666666" points="425.88,-362 298.12,-362 298.12,-331.5 425.88,-331.5 425.88,-362"/>
<text text-anchor="start" x="306.12" y="-348.5" font-family="Helvetica,sans-Serif" font-size="10.00">Ioss_ConstructedVariable</text>
<text text-anchor="middle" x="362" y="-337.25" font-family="Helvetica,sans-Serif" font-size="10.00">Type.h</text>
</a>
</g>
</g>
<!-- Node1&#45;&gt;Node2 -->
<g id="edge1_Node000001_Node000002" class="edge">
<title>Node1&#45;&gt;Node2</title>
<g id="a_edge1_Node000001_Node000002"><a xlink:title=" ">
<path fill="none" stroke="#63b8ff" d="M433.12,-397.61C420.89,-389.04 405.24,-378.06 391.73,-368.59"/>
<polygon fill="#63b8ff" stroke="#63b8ff" points="393.99,-365.2 383.79,-362.33 389.97,-370.93 393.99,-365.2"/>
</a>
</g>
</g>
<!-- Node4 -->
<g id="Node000004" class="node">
<title>Node4</title>
<g id="a_Node000004"><a xlink:href="Ioss__VariableType_8h.html" target="_top" xlink:title=" ">
<polygon fill="white" stroke="#666666" points="499.88,-295.5 396.12,-295.5 396.12,-276.25 499.88,-276.25 499.88,-295.5"/>
<text text-anchor="middle" x="448" y="-282" font-family="Helvetica,sans-Serif" font-size="10.00">Ioss_VariableType.h</text>
</a>
</g>
</g>
<!-- Node1&#45;&gt;Node4 -->
<g id="edge70_Node000001_Node000004" class="edge">
<title>Node1&#45;&gt;Node4</title>
<g id="a_edge70_Node000001_Node000004"><a xlink:title=" ">
<path fill="none" stroke="#63b8ff" d="M453.31,-397.87C452.24,-375.43 450.16,-332.03 448.95,-306.66"/>
<polygon fill="#63b8ff" stroke="#63b8ff" points="452.4,-306.64 448.43,-296.82 445.41,-306.98 452.4,-306.64"/>
</a>
</g>
</g>
<!-- Node9 -->
<g id="Node000009" class="node">
<title>Node9</title>
<g id="a_Node000009"><a xlink:title=" ">
<polygon fill="#e0e0e0" stroke="#999999" points="210,-19.25 170,-19.25 170,0 210,0 210,-19.25"/>
<text text-anchor="middle" x="190" y="-5.75" font-family="Helvetica,sans-Serif" font-size="10.00">string</text>
</a>
</g>
</g>
<!-- Node1&#45;&gt;Node9 -->
<g id="edge72_Node000001_Node000009" class="edge">
<title>Node1&#45;&gt;Node9</title>
<g id="a_edge72_Node000001_Node000009"><a xlink:title=" ">
<path fill="none" stroke="#63b8ff" d="M381.56,-407.25C253.38,-396.4 0,-365.07 0,-286.88 0,-286.88 0,-286.88 0,-119.12 0,-46.78 105.16,-22.03 159.01,-14.09"/>
<polygon fill="#63b8ff" stroke="#63b8ff" points="159.23,-17.46 168.67,-12.64 158.29,-10.52 159.23,-17.46"/>
</a>
</g>
</g>
<!-- Node13 -->
<g id="Node000013" class="node">
<title>Node13</title>
<g id="a_Node000013"><a xlink:href="Ioss__Utils_8h.html" target="_top" xlink:title=" ">
<polygon fill="white" stroke="#666666" points="1103.25,-240.25 1034.75,-240.25 1034.75,-221 1103.25,-221 1103.25,-240.25"/>
<text text-anchor="middle" x="1069" y="-226.75" font-family="Helvetica,sans-Serif" font-size="10.00">Ioss_Utils.h</text>
</a>
</g>
</g>
<!-- Node1&#45;&gt;Node13 -->
<g id="edge69_Node000001_Node000013" class="edge">
<title>Node1&#45;&gt;Node13</title>
<g id="a_edge69_Node000001_Node000013"><a xlink:title=" ">
<path fill="none" stroke="#63b8ff" d="M504.07,-397.55C622.7,-362.7 919.12,-275.64 1028.03,-243.66"/>
<polygon fill="#63b8ff" stroke="#63b8ff" points="1028.66,-246.83 1037.27,-240.65 1026.69,-240.11 1028.66,-246.83"/>
</a>
</g>
</g>
<!-- Node29 -->
<g id="Node000029" class="node">
<title>Node29</title>
<g id="a_Node000029"><a xlink:title=" ">
<polygon fill="#e0e0e0" stroke="#999999" points="1586.12,-185 1537.88,-185 1537.88,-165.75 1586.12,-165.75 1586.12,-185"/>
<text text-anchor="middle" x="1562" y="-171.5" font-family="Helvetica,sans-Serif" font-size="10.00">cassert</text>
</a>
</g>
</g>
<!-- Node1&#45;&gt;Node29 -->
<g id="edge71_Node000001_Node000029" class="edge">
<title>Node1&#45;&gt;Node29</title>
<g id="a_edge71_Node000001_Node000029"><a xlink:title=" ">
<path fill="none" stroke="#63b8ff" d="M523.49,-397.54C570.72,-387.53 634.64,-373.98 691,-362 1015.88,-292.94 1408.84,-209.07 1526.86,-183.88"/>
<polygon fill="#63b8ff" stroke="#63b8ff" points="1527.36,-187.14 1536.41,-181.63 1525.9,-180.29 1527.36,-187.14"/>
</a>
</g>
</g>
<!-- Node3 -->
<g id="Node000003" class="node">
<title>Node3</title>
<g id="a_Node000003"><a xlink:title=" ">
<polygon fill="#e0e0e0" stroke="#999999" points="687.25,-74.5 612.75,-74.5 612.75,-55.25 687.25,-55.25 687.25,-74.5"/>
<text text-anchor="middle" x="650" y="-61" font-family="Helvetica,sans-Serif" font-size="10.00">ioss_export.h</text>
</a>
</g>
</g>
<!-- Node2&#45;&gt;Node3 -->
<g id="edge2_Node000002_Node000003" class="edge">
<title>Node2&#45;&gt;Node3</title>
<g id="a_edge2_Node000002_Node000003"><a xlink:title=" ">
<path fill="none" stroke="#63b8ff" d="M364.39,-331.12C370.59,-297.59 390.16,-214.33 438,-165.75 483.55,-119.49 554.68,-92.1 601.81,-78.02"/>
<polygon fill="#63b8ff" stroke="#63b8ff" points="602.73,-81.11 611.36,-74.97 600.78,-74.39 602.73,-81.11"/>
</a>
</g>
</g>
<!-- Node2&#45;&gt;Node4 -->
<g id="edge3_Node000002_Node000004" class="edge">
<title>Node2&#45;&gt;Node4</title>
<g id="a_edge3_Node000002_Node000004"><a xlink:title=" ">
<path fill="none" stroke="#63b8ff" d="M383.26,-331.2C396.23,-322.32 412.78,-310.99 425.9,-302.01"/>
<polygon fill="#63b8ff" stroke="#63b8ff" points="427.47,-304.49 433.74,-295.95 423.51,-298.71 427.47,-304.49"/>
</a>
</g>
</g>
<!-- Node2&#45;&gt;Node9 -->
<g id="edge68_Node000002_Node000009" class="edge">
<title>Node2&#45;&gt;Node9</title>
<g id="a_edge68_Node000002_Node000009"><a xlink:title=" ">
<path fill="none" stroke="#63b8ff" d="M297.99,-336.51C203.56,-321.06 38,-286.19 38,-231.62 38,-231.62 38,-231.62 38,-119.12 38,-60.24 114.5,-30.3 158.95,-17.87"/>
<polygon fill="#63b8ff" stroke="#63b8ff" points="159.73,-21.02 168.5,-15.08 157.94,-14.25 159.73,-21.02"/>
</a>
</g>
</g>
<!-- Node4&#45;&gt;Node3 -->
<g id="edge4_Node000004_Node000003" class="edge">
<title>Node4&#45;&gt;Node3</title>
<g id="a_edge4_Node000004_Node000003"><a xlink:title=" ">
<path fill="none" stroke="#63b8ff" d="M483.36,-275.91C505.49,-268.95 533.58,-257.53 554,-240.25 604.48,-197.53 633.14,-121.24 644.39,-85.44"/>
<polygon fill="#63b8ff" stroke="#63b8ff" points="648.01,-86.54 647.54,-75.96 641.31,-84.52 648.01,-86.54"/>
</a>
</g>
</g>
<!-- Node5 -->
<g id="Node000005" class="node">
<title>Node5</title>
<g id="a_Node000005"><a xlink:href="Ioss__CodeTypes_8h.html" target="_top" xlink:title=" ">
<polygon fill="white" stroke="#666666" points="594.88,-74.5 497.12,-74.5 497.12,-55.25 594.88,-55.25 594.88,-74.5"/>
<text text-anchor="middle" x="546" y="-61" font-family="Helvetica,sans-Serif" font-size="10.00">Ioss_CodeTypes.h</text>
</a>
</g>
</g>
<!-- Node4&#45;&gt;Node5 -->
<g id="edge5_Node000004_Node000005" class="edge">
<title>Node4&#45;&gt;Node5</title>
<g id="a_edge5_Node000004_Node000005"><a xlink:title=" ">
<path fill="none" stroke="#63b8ff" d="M441.41,-275.86C435.53,-267.22 427.35,-253.56 424,-240.25 415.77,-207.58 420.78,-194.71 438,-165.75 459.54,-129.51 498.21,-98.48 522.96,-81"/>
<polygon fill="#63b8ff" stroke="#63b8ff" points="524.75,-83.33 531.01,-74.78 520.79,-77.57 524.75,-83.33"/>
</a>
</g>
</g>
<!-- Node4&#45;&gt;Node9 -->
<g id="edge66_Node000004_Node000009" class="edge">
<title>Node4&#45;&gt;Node9</title>
<g id="a_edge66_Node000004_Node000009"><a xlink:title=" ">
<path fill="none" stroke="#63b8ff" d="M395.88,-280.62C293.5,-270.81 76,-242.22 76,-176.38 76,-176.38 76,-176.38 76,-119.12 76,-72.82 125.96,-40.27 159.73,-23.56"/>
<polygon fill="#63b8ff" stroke="#63b8ff" points="161.07,-26.33 168.62,-18.89 158.08,-20 161.07,-26.33"/>
</a>
</g>
</g>
<!-- Node10 -->
<g id="Node000010" class="node">
<title>Node10</title>
<g id="a_Node000010"><a xlink:title=" ">
<polygon fill="#e0e0e0" stroke="#999999" points="793.5,-19.25 750.5,-19.25 750.5,0 793.5,0 793.5,-19.25"/>
<text text-anchor="middle" x="772" y="-5.75" font-family="Helvetica,sans-Serif" font-size="10.00">vector</text>
</a>
</g>
</g>
<!-- Node4&#45;&gt;Node10 -->
<g id="edge67_Node000004_Node000010" class="edge">
<title>Node4&#45;&gt;Node10</title>
<g id="a_edge67_Node000004_Node000010"><a xlink:title=" ">
<path fill="none" stroke="#63b8ff" d="M473.24,-275.82C500.31,-264.66 537.37,-244.28 521,-221 503.75,-196.47 290.28,-148.65 267,-129.75 238.75,-106.81 208.31,-81.99 233,-55.25 267.02,-18.39 633.04,-23.67 683,-19.25 701.59,-17.61 722.36,-15.6 739.15,-13.94"/>
<polygon fill="#63b8ff" stroke="#63b8ff" points="739.46,-17.33 749.06,-12.85 738.77,-10.36 739.46,-17.33"/>
</a>
</g>
</g>
<!-- Node4&#45;&gt;Node13 -->
<g id="edge13_Node000004_Node000013" class="edge">
<title>Node4&#45;&gt;Node13</title>
<g id="a_edge13_Node000004_Node000013"><a xlink:title=" ">
<path fill="none" stroke="#63b8ff" d="M500.14,-280.4C619.54,-270.17 911.13,-245.16 1023.66,-235.51"/>
<polygon fill="#63b8ff" stroke="#63b8ff" points="1023.94,-238.92 1033.6,-234.57 1023.34,-231.94 1023.94,-238.92"/>
</a>
</g>
</g>
<!-- Node18 -->
<g id="Node000018" class="node">
<title>Node18</title>
<g id="a_Node000018"><a xlink:title=" ">
<polygon fill="#e0e0e0" stroke="#999999" points="276.38,-74.5 241.62,-74.5 241.62,-55.25 276.38,-55.25 276.38,-74.5"/>
<text text-anchor="middle" x="259" y="-61" font-family="Helvetica,sans-Serif" font-size="10.00">map</text>
</a>
</g>
</g>
<!-- Node4&#45;&gt;Node18 -->
<g id="edge65_Node000004_Node000018" class="edge">
<title>Node4&#45;&gt;Node18</title>
<g id="a_edge65_Node000004_Node000018"><a xlink:title=" ">
<path fill="none" stroke="#63b8ff" d="M430.6,-275.86C393.3,-255.52 305.91,-202.1 267,-129.75 259.71,-116.19 257.95,-98.71 257.88,-85.47"/>
<polygon fill="#63b8ff" stroke="#63b8ff" points="261.4,-85.83 258.18,-75.74 254.4,-85.63 261.4,-85.83"/>
</a>
</g>
</g>
<!-- Node26 -->
<g id="Node000026" class="node">
<title>Node26</title>
<g id="a_Node000026"><a xlink:title=" ">
<polygon fill="#e0e0e0" stroke="#999999" points="1067,-74.5 1009,-74.5 1009,-55.25 1067,-55.25 1067,-74.5"/>
<text text-anchor="middle" x="1038" y="-61" font-family="Helvetica,sans-Serif" font-size="10.00">functional</text>
</a>
</g>
</g>
<!-- Node4&#45;&gt;Node26 -->
<g id="edge64_Node000004_Node000026" class="edge">
<title>Node4&#45;&gt;Node26</title>
<g id="a_edge64_Node000004_Node000026"><a xlink:title=" ">
<path fill="none" stroke="#63b8ff" d="M446.45,-275.79C444.69,-262.15 443.57,-236.33 457,-221 460.76,-216.7 649.39,-166.83 655,-165.75 798.12,-138.07 851.44,-196.56 981,-129.75 1001.16,-119.36 1017.53,-98.66 1027.48,-83.64"/>
<polygon fill="#63b8ff" stroke="#63b8ff" points="1030.7,-86.08 1033.06,-75.75 1024.78,-82.36 1030.7,-86.08"/>
</a>
</g>
</g>
<!-- Node35 -->
<g id="Node000035" class="node">
<title>Node35</title>
<g id="a_Node000035"><a xlink:title=" ">
<polygon fill="#e0e0e0" stroke="#999999" points="511.62,-240.25 466.38,-240.25 466.38,-221 511.62,-221 511.62,-240.25"/>
<text text-anchor="middle" x="489" y="-226.75" font-family="Helvetica,sans-Serif" font-size="10.00">cstring</text>
</a>
</g>
</g>
<!-- Node4&#45;&gt;Node35 -->
<g id="edge63_Node000004_Node000035" class="edge">
<title>Node4&#45;&gt;Node35</title>
<g id="a_edge63_Node000004_Node000035"><a xlink:title=" ">
<path fill="none" stroke="#63b8ff" d="M454.77,-276.08C460.37,-268.8 468.51,-258.23 475.45,-249.23"/>
<polygon fill="#63b8ff" stroke="#63b8ff" points="478.76,-251.67 482.08,-241.61 473.21,-247.4 478.76,-251.67"/>
</a>
</g>
</g>
<!-- Node6 -->
<g id="Node000006" class="node">
<title>Node6</title>
<g id="a_Node000006"><a xlink:title=" ">
<polygon fill="#e0e0e0" stroke="#999999" points="469.88,-19.25 432.12,-19.25 432.12,0 469.88,0 469.88,-19.25"/>
<text text-anchor="middle" x="451" y="-5.75" font-family="Helvetica,sans-Serif" font-size="10.00">array</text>
</a>
</g>
</g>
<!-- Node5&#45;&gt;Node6 -->
<g id="edge6_Node000005_Node000006" class="edge">
<title>Node5&#45;&gt;Node6</title>
<g id="a_edge6_Node000005_Node000006"><a xlink:title=" ">
<path fill="none" stroke="#63b8ff" d="M529.88,-54.84C515.28,-46.66 493.51,-34.46 476.54,-24.94"/>
<polygon fill="#63b8ff" stroke="#63b8ff" points="478.63,-21.54 468.19,-19.7 475.21,-27.65 478.63,-21.54"/>
</a>
</g>
</g>
<!-- Node7 -->
<g id="Node000007" class="node">
<title>Node7</title>
<g id="a_Node000007"><a xlink:title=" ">
<polygon fill="#e0e0e0" stroke="#999999" points="1109.12,-19.25 1060.88,-19.25 1060.88,0 1109.12,0 1109.12,-19.25"/>
<text text-anchor="middle" x="1085" y="-5.75" font-family="Helvetica,sans-Serif" font-size="10.00">cstddef</text>
</a>
</g>
</g>
<!-- Node5&#45;&gt;Node7 -->
<g id="edge7_Node000005_Node000007" class="edge">
<title>Node5&#45;&gt;Node7</title>
<g id="a_edge7_Node000005_Node000007"><a xlink:title=" ">
<path fill="none" stroke="#63b8ff" d="M595.34,-56.35C598.27,-55.96 601.17,-55.59 604,-55.25 770.26,-35.19 969.79,-19.27 1049.54,-13.24"/>
<polygon fill="#63b8ff" stroke="#63b8ff" points="1049.71,-16.66 1059.42,-12.42 1049.19,-9.68 1049.71,-16.66"/>
</a>
</g>
</g>
<!-- Node8 -->
<g id="Node000008" class="node">
<title>Node8</title>
<g id="a_Node000008"><a xlink:title=" ">
<polygon fill="#e0e0e0" stroke="#999999" points="1172.62,-19.25 1127.38,-19.25 1127.38,0 1172.62,0 1172.62,-19.25"/>
<text text-anchor="middle" x="1150" y="-5.75" font-family="Helvetica,sans-Serif" font-size="10.00">cstdint</text>
</a>
</g>
</g>
<!-- Node5&#45;&gt;Node8 -->
<g id="edge8_Node000005_Node000008" class="edge">
<title>Node5&#45;&gt;Node8</title>
<g id="a_edge8_Node000005_Node000008"><a xlink:title=" ">
<path fill="none" stroke="#63b8ff" d="M595.33,-56.27C598.26,-55.9 601.17,-55.56 604,-55.25 828.2,-30.77 890.3,-56.43 1116.5,-19.15"/>
<polygon fill="#63b8ff" stroke="#63b8ff" points="1116.76,-22.48 1126.05,-17.38 1115.61,-15.58 1116.76,-22.48"/>
</a>
</g>
</g>
<!-- Node5&#45;&gt;Node9 -->
<g id="edge9_Node000005_Node000009" class="edge">
<title>Node5&#45;&gt;Node9</title>
<g id="a_edge9_Node000005_Node000009"><a xlink:title=" ">
<path fill="none" stroke="#63b8ff" d="M496.87,-56.53C422.35,-45.38 282.88,-24.52 220.97,-15.26"/>
<polygon fill="#63b8ff" stroke="#63b8ff" points="221.75,-11.69 211.35,-13.67 220.72,-18.61 221.75,-11.69"/>
</a>
</g>
</g>
<!-- Node5&#45;&gt;Node10 -->
<g id="edge10_Node000005_Node000010" class="edge">
<title>Node5&#45;&gt;Node10</title>
<g id="a_edge10_Node000005_Node000010"><a xlink:title=" ">
<path fill="none" stroke="#63b8ff" d="M584.59,-54.78C628.25,-44.5 698.57,-27.93 739.52,-18.28"/>
<polygon fill="#63b8ff" stroke="#63b8ff" points="740.07,-21.51 749,-15.81 738.47,-14.69 740.07,-21.51"/>
</a>
</g>
</g>
<!-- Node11 -->
<g id="Node000011" class="node">
<title>Node11</title>
<g id="a_Node000011"><a xlink:title=" ">
<polygon fill="#e0e0e0" stroke="#999999" points="603.88,-19.25 488.12,-19.25 488.12,0 603.88,0 603.88,-19.25"/>
<text text-anchor="middle" x="546" y="-5.75" font-family="Helvetica,sans-Serif" font-size="10.00">SEACASIoss_config.h</text>
</a>
</g>
</g>
<!-- Node5&#45;&gt;Node11 -->
<g id="edge11_Node000005_Node000011" class="edge">
<title>Node5&#45;&gt;Node11</title>
<g id="a_edge11_Node000005_Node000011"><a xlink:title=" ">
<path fill="none" stroke="#63b8ff" d="M546,-55.08C546,-48.42 546,-38.99 546,-30.53"/>
<polygon fill="#63b8ff" stroke="#63b8ff" points="549.5,-30.61 546,-20.61 542.5,-30.61 549.5,-30.61"/>
</a>
</g>
</g>
<!-- Node12 -->
<g id="Node000012" class="node">
<title>Node12</title>
<g id="a_Node000012"><a xlink:title=" ">
<polygon fill="#e0e0e0" stroke="#999999" points="674.38,-19.25 621.62,-19.25 621.62,0 674.38,0 674.38,-19.25"/>
<text text-anchor="middle" x="648" y="-5.75" font-family="Helvetica,sans-Serif" font-size="10.00">complex</text>
</a>
</g>
</g>
<!-- Node5&#45;&gt;Node12 -->
<g id="edge12_Node000005_Node000012" class="edge">
<title>Node5&#45;&gt;Node12</title>
<g id="a_edge12_Node000005_Node000012"><a xlink:title=" ">
<path fill="none" stroke="#63b8ff" d="M563.3,-54.84C579.13,-46.58 602.79,-34.23 621.08,-24.68"/>
<polygon fill="#63b8ff" stroke="#63b8ff" points="622.37,-27.43 629.61,-19.7 619.13,-21.23 622.37,-27.43"/>
</a>
</g>
</g>
<!-- Node13&#45;&gt;Node3 -->
<g id="edge14_Node000013_Node000003" class="edge">
<title>Node13&#45;&gt;Node3</title>
<g id="a_edge14_Node000013_Node000003"><a xlink:title=" ">
<path fill="none" stroke="#63b8ff" d="M1066.53,-220.87C1062.03,-206.68 1051.06,-178.93 1031,-165.75 926.89,-97.32 870.37,-171.53 753,-129.75 721.48,-118.53 689.39,-96.61 669.59,-81.61"/>
<polygon fill="#63b8ff" stroke="#63b8ff" points="671.96,-78.24 661.91,-74.88 667.67,-83.77 671.96,-78.24"/>
</a>
</g>
</g>
<!-- Node13&#45;&gt;Node5 -->
<g id="edge15_Node000013_Node000005" class="edge">
<title>Node13&#45;&gt;Node5</title>
<g id="a_edge15_Node000013_Node000005"><a xlink:title=" ">
<path fill="none" stroke="#63b8ff" d="M1034.45,-221.24C1003.66,-213.32 957.62,-200.38 919,-185 901.41,-177.99 898.86,-172.03 881,-165.75 807.73,-139.98 784.44,-151.92 710,-129.75 662.04,-115.47 608.32,-93.32 575.84,-79.21"/>
<polygon fill="#63b8ff" stroke="#63b8ff" points="577.64,-75.74 567.08,-74.93 574.84,-82.15 577.64,-75.74"/>
</a>
</g>
</g>
<!-- Node13&#45;&gt;Node7 -->
<g id="edge55_Node000013_Node000007" class="edge">
<title>Node13&#45;&gt;Node7</title>
<g id="a_edge55_Node000013_Node000007"><a xlink:title=" ">
<path fill="none" stroke="#63b8ff" d="M1103.39,-229.5C1149.22,-227.89 1231.46,-219.85 1291,-185 1352.68,-148.9 1433.05,-109.05 1386,-55.25 1348.37,-12.23 1193.2,-28.99 1120.03,-19.11"/>
<polygon fill="#63b8ff" stroke="#63b8ff" points="1120.87,-15.54 1110.43,-17.37 1119.73,-22.44 1120.87,-15.54"/>
</a>
</g>
</g>
<!-- Node13&#45;&gt;Node8 -->
<g id="edge56_Node000013_Node000008" class="edge">
<title>Node13&#45;&gt;Node8</title>
<g id="a_edge56_Node000013_Node000008"><a xlink:title=" ">
<path fill="none" stroke="#63b8ff" d="M1103.5,-228.57C1199.64,-225.28 1465.22,-213.65 1491,-185 1535.74,-135.27 1610.54,-178.83 1405,-55.25 1368.18,-33.11 1244.14,-19.15 1183.69,-13.5"/>
<polygon fill="#63b8ff" stroke="#63b8ff" points="1184.11,-9.93 1173.83,-12.51 1183.47,-16.91 1184.11,-9.93"/>
</a>
</g>
</g>
<!-- Node13&#45;&gt;Node9 -->
<g id="edge61_Node000013_Node000009" class="edge">
<title>Node13&#45;&gt;Node9</title>
<g id="a_edge61_Node000013_Node000009"><a xlink:title=" ">
<path fill="none" stroke="#63b8ff" d="M1034.5,-229.66C938.94,-229.23 663.01,-224.4 438,-185 349.27,-169.46 316.2,-182.25 243,-129.75 210.15,-106.19 197.34,-57.54 192.6,-30.26"/>
<polygon fill="#63b8ff" stroke="#63b8ff" points="195.96,-30.06 190.98,-20.7 189.04,-31.12 195.96,-30.06"/>
</a>
</g>
</g>
<!-- Node13&#45;&gt;Node10 -->
<g id="edge62_Node000013_Node000010" class="edge">
<title>Node13&#45;&gt;Node10</title>
<g id="a_edge62_Node000013_Node000010"><a xlink:title=" ">
<path fill="none" stroke="#63b8ff" d="M1084.61,-220.65C1103.52,-208.59 1131.29,-186.28 1118,-165.75 1081.43,-109.28 882.71,-44.1 804.06,-20.11"/>
<polygon fill="#63b8ff" stroke="#63b8ff" points="805.38,-16.55 794.79,-17.01 803.35,-23.25 805.38,-16.55"/>
</a>
</g>
</g>
<!-- Node14 -->
<g id="Node000014" class="node">
<title>Node14</title>
<g id="a_Node000014"><a xlink:href="Ioss__ElementTopology_8h.html" target="_top" xlink:title=" ">
<polygon fill="white" stroke="#666666" points="568.88,-185 447.12,-185 447.12,-165.75 568.88,-165.75 568.88,-185"/>
<text text-anchor="middle" x="508" y="-171.5" font-family="Helvetica,sans-Serif" font-size="10.00">Ioss_ElementTopology.h</text>
</a>
</g>
</g>
<!-- Node13&#45;&gt;Node14 -->
<g id="edge16_Node000013_Node000014" class="edge">
<title>Node13&#45;&gt;Node14</title>
<g id="a_edge16_Node000013_Node000014"><a xlink:title=" ">
<path fill="none" stroke="#63b8ff" d="M1034.33,-226.33C944.36,-217.79 701.94,-194.78 580.05,-183.21"/>
<polygon fill="#63b8ff" stroke="#63b8ff" points="580.64,-179.66 570.35,-182.2 579.98,-186.63 580.64,-179.66"/>
</a>
</g>
</g>
<!-- Node20 -->
<g id="Node000020" class="node">
<title>Node20</title>
<g id="a_Node000020"><a xlink:href="Ioss__EntityType_8h.html" target="_top" xlink:title=" ">
<polygon fill="white" stroke="#666666" points="1022.38,-185 927.62,-185 927.62,-165.75 1022.38,-165.75 1022.38,-185"/>
<text text-anchor="middle" x="975" y="-171.5" font-family="Helvetica,sans-Serif" font-size="10.00">Ioss_EntityType.h</text>
</a>
</g>
</g>
<!-- Node13&#45;&gt;Node20 -->
<g id="edge31_Node000013_Node000020" class="edge">
<title>Node13&#45;&gt;Node20</title>
<g id="a_edge31_Node000013_Node000020"><a xlink:title=" ">
<path fill="none" stroke="#63b8ff" d="M1053.05,-220.59C1038.6,-212.41 1017.07,-200.21 1000.27,-190.69"/>
<polygon fill="#63b8ff" stroke="#63b8ff" points="1002.45,-187.34 992.02,-185.45 999,-193.43 1002.45,-187.34"/>
</a>
</g>
</g>
<!-- Node21 -->
<g id="Node000021" class="node">
<title>Node21</title>
<g id="a_Node000021"><a xlink:href="Ioss__Field_8h.html" target="_top" xlink:title=" ">
<polygon fill="white" stroke="#666666" points="831.62,-129.75 762.38,-129.75 762.38,-110.5 831.62,-110.5 831.62,-129.75"/>
<text text-anchor="middle" x="797" y="-116.25" font-family="Helvetica,sans-Serif" font-size="10.00">Ioss_Field.h</text>
</a>
</g>
</g>
<!-- Node13&#45;&gt;Node21 -->
<g id="edge32_Node000013_Node000021" class="edge">
<title>Node13&#45;&gt;Node21</title>
<g id="a_edge32_Node000013_Node000021"><a xlink:title=" ">
<path fill="none" stroke="#63b8ff" d="M1071.32,-220.89C1074.36,-207.24 1077.83,-180.84 1064,-165.75 1056.56,-157.63 916.75,-137.46 842.49,-127.25"/>
<polygon fill="#63b8ff" stroke="#63b8ff" points="843.41,-123.71 833.03,-125.82 842.46,-130.64 843.41,-123.71"/>
</a>
</g>
</g>
<!-- Node22 -->
<g id="Node000022" class="node">
<title>Node22</title>
<g id="a_Node000022"><a xlink:href="Ioss__Property_8h.html" target="_top" xlink:title=" ">
<polygon fill="white" stroke="#666666" points="971.75,-129.75 888.25,-129.75 888.25,-110.5 971.75,-110.5 971.75,-129.75"/>
<text text-anchor="middle" x="930" y="-116.25" font-family="Helvetica,sans-Serif" font-size="10.00">Ioss_Property.h</text>
</a>
</g>
</g>
<!-- Node13&#45;&gt;Node22 -->
<g id="edge38_Node000013_Node000022" class="edge">
<title>Node13&#45;&gt;Node22</title>
<g id="a_edge38_Node000013_Node000022"><a xlink:title=" ">
<path fill="none" stroke="#63b8ff" d="M1079.63,-220.78C1093.85,-207.88 1115.75,-183.52 1102,-165.75 1094.52,-156.08 1030.36,-141.28 982.58,-131.4"/>
<polygon fill="#63b8ff" stroke="#63b8ff" points="983.55,-127.83 973.05,-129.25 982.15,-134.68 983.55,-127.83"/>
</a>
</g>
</g>
<!-- Node23 -->
<g id="Node000023" class="node">
<title>Node23</title>
<g id="a_Node000023"><a xlink:href="Ioss__Sort_8h.html" target="_top" xlink:title=" ">
<polygon fill="white" stroke="#666666" points="1258.12,-185 1191.88,-185 1191.88,-165.75 1258.12,-165.75 1258.12,-185"/>
<text text-anchor="middle" x="1225" y="-171.5" font-family="Helvetica,sans-Serif" font-size="10.00">Ioss_Sort.h</text>
</a>
</g>
</g>
<!-- Node13&#45;&gt;Node23 -->
<g id="edge43_Node000013_Node000023" class="edge">
<title>Node13&#45;&gt;Node23</title>
<g id="a_edge43_Node000013_Node000023"><a xlink:title=" ">
<path fill="none" stroke="#63b8ff" d="M1095.46,-220.59C1120.9,-211.91 1159.57,-198.71 1188.04,-188.99"/>
<polygon fill="#63b8ff" stroke="#63b8ff" points="1189.07,-192 1197.41,-185.45 1186.81,-185.37 1189.07,-192"/>
</a>
</g>
</g>
<!-- Node25 -->
<g id="Node000025" class="node">
<title>Node25</title>
<g id="a_Node000025"><a xlink:title=" ">
<polygon fill="#e0e0e0" stroke="#999999" points="1376.88,-74.5 1321.12,-74.5 1321.12,-55.25 1376.88,-55.25 1376.88,-74.5"/>
<text text-anchor="middle" x="1349" y="-61" font-family="Helvetica,sans-Serif" font-size="10.00">algorithm</text>
</a>
</g>
</g>
<!-- Node13&#45;&gt;Node25 -->
<g id="edge52_Node000013_Node000025" class="edge">
<title>Node13&#45;&gt;Node25</title>
<g id="a_edge52_Node000013_Node000025"><a xlink:title=" ">
<path fill="none" stroke="#63b8ff" d="M1103.48,-229.3C1145.51,-227.33 1217.09,-218.76 1267,-185 1304.3,-159.76 1329.59,-111.41 1341.38,-84.72"/>
<polygon fill="#63b8ff" stroke="#63b8ff" points="1344.93,-86.31 1345.61,-75.74 1338.49,-83.59 1344.93,-86.31"/>
</a>
</g>
</g>
<!-- Node13&#45;&gt;Node29 -->
<g id="edge53_Node000013_Node000029" class="edge">
<title>Node13&#45;&gt;Node29</title>
<g id="a_edge53_Node000013_Node000029"><a xlink:title=" ">
<path fill="none" stroke="#63b8ff" d="M1103.72,-227.71C1180.1,-223.17 1368.27,-210.21 1524,-185 1524.96,-184.84 1525.94,-184.68 1526.92,-184.5"/>
<polygon fill="#63b8ff" stroke="#63b8ff" points="1527.43,-187.77 1536.56,-182.4 1526.07,-180.91 1527.43,-187.77"/>
</a>
</g>
</g>
<!-- Node30 -->
<g id="Node000030" class="node">
<title>Node30</title>
<g id="a_Node000030"><a xlink:title=" ">
<polygon fill="#e0e0e0" stroke="#999999" points="1419.5,-185 1376.5,-185 1376.5,-165.75 1419.5,-165.75 1419.5,-185"/>
<text text-anchor="middle" x="1398" y="-171.5" font-family="Helvetica,sans-Serif" font-size="10.00">cmath</text>
</a>
</g>
</g>
<!-- Node13&#45;&gt;Node30 -->
<g id="edge54_Node000013_Node000030" class="edge">
<title>Node13&#45;&gt;Node30</title>
<g id="a_edge54_Node000013_Node000030"><a xlink:title=" ">
<path fill="none" stroke="#63b8ff" d="M1103.44,-225.33C1158.37,-218.28 1269.08,-203.17 1362,-185 1363.31,-184.74 1364.65,-184.47 1366,-184.19"/>
<polygon fill="#63b8ff" stroke="#63b8ff" points="1366.37,-187.47 1375.36,-181.87 1364.84,-180.64 1366.37,-187.47"/>
</a>
</g>
</g>
<!-- Node31 -->
<g id="Node000031" class="node">
<title>Node31</title>
<g id="a_Node000031"><a xlink:title=" ">
<polygon fill="#e0e0e0" stroke="#999999" points="1482.25,-185 1437.75,-185 1437.75,-165.75 1482.25,-165.75 1482.25,-185"/>
<text text-anchor="middle" x="1460" y="-171.5" font-family="Helvetica,sans-Serif" font-size="10.00">cstdlib</text>
</a>
</g>
</g>
<!-- Node13&#45;&gt;Node31 -->
<g id="edge57_Node000013_Node000031" class="edge">
<title>Node13&#45;&gt;Node31</title>
<g id="a_edge57_Node000013_Node000031"><a xlink:title=" ">
<path fill="none" stroke="#63b8ff" d="M1103.52,-227.06C1166.2,-222.03 1302.99,-209.36 1426.98,-185.15"/>
<polygon fill="#63b8ff" stroke="#63b8ff" points="1427.28,-188.46 1436.41,-183.08 1425.92,-181.59 1427.28,-188.46"/>
</a>
</g>
</g>
<!-- Node32 -->
<g id="Node000032" class="node">
<title>Node32</title>
<g id="a_Node000032"><a xlink:title=" ">
<polygon fill="#e0e0e0" stroke="#999999" points="724.5,-185 663.5,-185 663.5,-165.75 724.5,-165.75 724.5,-185"/>
<text text-anchor="middle" x="694" y="-171.5" font-family="Helvetica,sans-Serif" font-size="10.00">filesystem</text>
</a>
</g>
</g>
<!-- Node13&#45;&gt;Node32 -->
<g id="edge58_Node000013_Node000032" class="edge">
<title>Node13&#45;&gt;Node32</title>
<g id="a_edge58_Node000013_Node000032"><a xlink:title=" ">
<path fill="none" stroke="#63b8ff" d="M1034.51,-226.03C975.32,-219.65 850.39,-205.25 735.35,-185.29"/>
<polygon fill="#63b8ff" stroke="#63b8ff" points="736.06,-181.69 725.61,-183.4 734.85,-188.58 736.06,-181.69"/>
</a>
</g>
</g>
<!-- Node33 -->
<g id="Node000033" class="node">
<title>Node33</title>
<g id="a_Node000033"><a xlink:title=" ">
<polygon fill="#e0e0e0" stroke="#999999" points="795.75,-185 742.25,-185 742.25,-165.75 795.75,-165.75 795.75,-185"/>
<text text-anchor="middle" x="769" y="-171.5" font-family="Helvetica,sans-Serif" font-size="10.00">iostream</text>
</a>
</g>
</g>
<!-- Node13&#45;&gt;Node33 -->
<g id="edge59_Node000013_Node000033" class="edge">
<title>Node13&#45;&gt;Node33</title>
<g id="a_edge59_Node000013_Node000033"><a xlink:title=" ">
<path fill="none" stroke="#63b8ff" d="M1034.27,-224.52C985.63,-217.21 894.25,-202.86 806.73,-185.24"/>
<polygon fill="#63b8ff" stroke="#63b8ff" points="807.58,-181.63 797.08,-183.07 806.19,-188.49 807.58,-181.63"/>
</a>
</g>
</g>
<!-- Node34 -->
<g id="Node000034" class="node">
<title>Node34</title>
<g id="a_Node000034"><a xlink:title=" ">
<polygon fill="#e0e0e0" stroke="#999999" points="872.38,-185 813.62,-185 813.62,-165.75 872.38,-165.75 872.38,-185"/>
<text text-anchor="middle" x="843" y="-171.5" font-family="Helvetica,sans-Serif" font-size="10.00">stdexcept</text>
</a>
</g>
</g>
<!-- Node13&#45;&gt;Node34 -->
<g id="edge60_Node000013_Node000034" class="edge">
<title>Node13&#45;&gt;Node34</title>
<g id="a_edge60_Node000013_Node000034"><a xlink:title=" ">
<path fill="none" stroke="#63b8ff" d="M1034.68,-221.54C994.01,-211.96 926.35,-196.01 883.26,-185.86"/>
<polygon fill="#63b8ff" stroke="#63b8ff" points="884.13,-182.23 873.59,-183.35 882.52,-189.05 884.13,-182.23"/>
</a>
</g>
</g>
<!-- Node14&#45;&gt;Node3 -->
<g id="edge17_Node000014_Node000003" class="edge">
<title>Node14&#45;&gt;Node3</title>
<g id="a_edge17_Node000014_Node000003"><a xlink:title=" ">
<path fill="none" stroke="#63b8ff" d="M534.74,-165.4C554.43,-157.92 581.12,-145.89 601,-129.75 616.89,-116.85 630.64,-97.8 639.49,-83.87"/>
<polygon fill="#63b8ff" stroke="#63b8ff" points="642.81,-86.14 645.03,-75.78 636.84,-82.5 642.81,-86.14"/>
</a>
</g>
</g>
<!-- Node14&#45;&gt;Node5 -->
<g id="edge18_Node000014_Node000005" class="edge">
<title>Node14&#45;&gt;Node5</title>
<g id="a_edge18_Node000014_Node000005"><a xlink:title=" ">
<path fill="none" stroke="#63b8ff" d="M511.11,-165.5C517.23,-148.01 530.98,-108.77 539.27,-85.09"/>
<polygon fill="#63b8ff" stroke="#63b8ff" points="542.85,-86.47 542.85,-75.88 536.24,-84.16 542.85,-86.47"/>
</a>
</g>
</g>
<!-- Node14&#45;&gt;Node9 -->
<g id="edge29_Node000014_Node000009" class="edge">
<title>Node14&#45;&gt;Node9</title>
<g id="a_edge29_Node000014_Node000009"><a xlink:title=" ">
<path fill="none" stroke="#63b8ff" d="M446.82,-168.59C385.37,-161.82 295.77,-149.02 267,-129.75 230.3,-105.17 207.22,-56.55 196.7,-29.65"/>
<polygon fill="#63b8ff" stroke="#63b8ff" points="199.72,-28.73 192.96,-20.58 193.16,-31.17 199.72,-28.73"/>
</a>
</g>
</g>
<!-- Node14&#45;&gt;Node10 -->
<g id="edge30_Node000014_Node000010" class="edge">
<title>Node14&#45;&gt;Node10</title>
<g id="a_edge30_Node000014_Node000010"><a xlink:title=" ">
<path fill="none" stroke="#63b8ff" d="M569.35,-168.25C663.09,-158.58 832.14,-139.87 841,-129.75 869.81,-96.82 822.13,-50.07 792.63,-26.11"/>
<polygon fill="#63b8ff" stroke="#63b8ff" points="795.18,-22.87 785.16,-19.44 790.85,-28.38 795.18,-22.87"/>
</a>
</g>
</g>
<!-- Node15 -->
<g id="Node000015" class="node">
<title>Node15</title>
<g id="a_Node000015"><a xlink:href="Ioss__ElementPermutation_8h.html" target="_top" xlink:title=" ">
<polygon fill="white" stroke="#666666" points="430.38,-129.75 293.62,-129.75 293.62,-110.5 430.38,-110.5 430.38,-129.75"/>
<text text-anchor="middle" x="362" y="-116.25" font-family="Helvetica,sans-Serif" font-size="10.00">Ioss_ElementPermutation.h</text>
</a>
</g>
</g>
<!-- Node14&#45;&gt;Node15 -->
<g id="edge19_Node000014_Node000015" class="edge">
<title>Node14&#45;&gt;Node15</title>
<g id="a_edge19_Node000014_Node000015"><a xlink:title=" ">
<path fill="none" stroke="#63b8ff" d="M483.23,-165.34C459.53,-156.7 423.55,-143.57 396.94,-133.87"/>
<polygon fill="#63b8ff" stroke="#63b8ff" points="398.48,-130.34 387.89,-130.2 396.08,-136.92 398.48,-130.34"/>
</a>
</g>
</g>
<!-- Node14&#45;&gt;Node18 -->
<g id="edge27_Node000014_Node000018" class="edge">
<title>Node14&#45;&gt;Node18</title>
<g id="a_edge27_Node000014_Node000018"><a xlink:title=" ">
<path fill="none" stroke="#63b8ff" d="M446.63,-168.62C389.36,-162.12 309.19,-149.75 285,-129.75 271.74,-118.78 265.17,-99.99 261.96,-85.62"/>
<polygon fill="#63b8ff" stroke="#63b8ff" points="265.23,-85.06 259.98,-75.86 258.35,-86.33 265.23,-85.06"/>
</a>
</g>
</g>
<!-- Node19 -->
<g id="Node000019" class="node">
<title>Node19</title>
<g id="a_Node000019"><a xlink:title=" ">
<polygon fill="#e0e0e0" stroke="#999999" points="591.75,-129.75 562.25,-129.75 562.25,-110.5 591.75,-110.5 591.75,-129.75"/>
<text text-anchor="middle" x="577" y="-116.25" font-family="Helvetica,sans-Serif" font-size="10.00">set</text>
</a>
</g>
</g>
<!-- Node14&#45;&gt;Node19 -->
<g id="edge28_Node000014_Node000019" class="edge">
<title>Node14&#45;&gt;Node19</title>
<g id="a_edge28_Node000014_Node000019"><a xlink:title=" ">
<path fill="none" stroke="#63b8ff" d="M519.7,-165.34C529.88,-157.49 544.83,-145.95 556.92,-136.62"/>
<polygon fill="#63b8ff" stroke="#63b8ff" points="558.69,-138.91 564.47,-130.02 554.41,-133.36 558.69,-138.91"/>
</a>
</g>
</g>
<!-- Node15&#45;&gt;Node3 -->
<g id="edge20_Node000015_Node000003" class="edge">
<title>Node15&#45;&gt;Node3</title>
<g id="a_edge20_Node000015_Node000003"><a xlink:title=" ">
<path fill="none" stroke="#63b8ff" d="M411.6,-110.02C458.23,-101.46 530.28,-88.2 601.8,-74.91"/>
<polygon fill="#63b8ff" stroke="#63b8ff" points="602.15,-78.21 611.35,-72.94 600.87,-71.33 602.15,-78.21"/>
</a>
</g>
</g>
<!-- Node15&#45;&gt;Node5 -->
<g id="edge21_Node000015_Node000005" class="edge">
<title>Node15&#45;&gt;Node5</title>
<g id="a_edge21_Node000015_Node000005"><a xlink:title=" ">
<path fill="none" stroke="#63b8ff" d="M393.21,-110.09C423.74,-101.26 470.44,-87.74 504.17,-77.98"/>
<polygon fill="#63b8ff" stroke="#63b8ff" points="505,-81.09 513.63,-74.95 503.05,-74.37 505,-81.09"/>
</a>
</g>
</g>
<!-- Node15&#45;&gt;Node9 -->
<g id="edge25_Node000015_Node000009" class="edge">
<title>Node15&#45;&gt;Node9</title>
<g id="a_edge25_Node000015_Node000009"><a xlink:title=" ">
<path fill="none" stroke="#63b8ff" d="M352.65,-110.01C338.74,-96.78 311.39,-72.01 285,-55.25 264.49,-42.23 239.58,-30.67 220.41,-22.58"/>
<polygon fill="#63b8ff" stroke="#63b8ff" points="222,-19.03 211.42,-18.45 219.33,-25.5 222,-19.03"/>
</a>
</g>
</g>
<!-- Node15&#45;&gt;Node10 -->
<g id="edge26_Node000015_Node000010" class="edge">
<title>Node15&#45;&gt;Node10</title>
<g id="a_edge26_Node000015_Node000010"><a xlink:title=" ">
<path fill="none" stroke="#63b8ff" d="M379.76,-110.12C414.43,-92.53 487.82,-55.31 488,-55.25 534.37,-40.27 675.25,-22.18 739.47,-14.44"/>
<polygon fill="#63b8ff" stroke="#63b8ff" points="739.66,-17.82 749.17,-13.16 738.83,-10.87 739.66,-17.82"/>
</a>
</g>
</g>
<!-- Node16 -->
<g id="Node000016" class="node">
<title>Node16</title>
<g id="a_Node000016"><a xlink:title=" ">
<polygon fill="#e0e0e0" stroke="#999999" points="440.62,-74.5 389.38,-74.5 389.38,-55.25 440.62,-55.25 440.62,-74.5"/>
<text text-anchor="middle" x="415" y="-61" font-family="Helvetica,sans-Serif" font-size="10.00">assert.h</text>
</a>
</g>
</g>
<!-- Node15&#45;&gt;Node16 -->
<g id="edge22_Node000015_Node000016" class="edge">
<title>Node15&#45;&gt;Node16</title>
<g id="a_edge22_Node000015_Node000016"><a xlink:title=" ">
<path fill="none" stroke="#63b8ff" d="M370.75,-110.33C378.23,-102.82 389.18,-91.81 398.33,-82.63"/>
<polygon fill="#63b8ff" stroke="#63b8ff" points="400.48,-85.42 405.06,-75.86 395.52,-80.48 400.48,-85.42"/>
</a>
</g>
</g>
<!-- Node17 -->
<g id="Node000017" class="node">
<title>Node17</title>
<g id="a_Node000017"><a xlink:title=" ">
<polygon fill="#e0e0e0" stroke="#999999" points="371.62,-74.5 332.38,-74.5 332.38,-55.25 371.62,-55.25 371.62,-74.5"/>
<text text-anchor="middle" x="352" y="-61" font-family="Helvetica,sans-Serif" font-size="10.00">limits</text>
</a>
</g>
</g>
<!-- Node15&#45;&gt;Node17 -->
<g id="edge23_Node000015_Node000017" class="edge">
<title>Node15&#45;&gt;Node17</title>
<g id="a_edge23_Node000015_Node000017"><a xlink:title=" ">
<path fill="none" stroke="#63b8ff" d="M360.35,-110.33C359.08,-103.59 357.29,-94.02 355.68,-85.49"/>
<polygon fill="#63b8ff" stroke="#63b8ff" points="358.97,-85.04 353.69,-75.86 352.09,-86.33 358.97,-85.04"/>
</a>
</g>
</g>
<!-- Node15&#45;&gt;Node18 -->
<g id="edge24_Node000015_Node000018" class="edge">
<title>Node15&#45;&gt;Node18</title>
<g id="a_edge24_Node000015_Node000018"><a xlink:title=" ">
<path fill="none" stroke="#63b8ff" d="M344.53,-110.09C328.55,-101.83 304.65,-89.48 286.18,-79.93"/>
<polygon fill="#63b8ff" stroke="#63b8ff" points="288.05,-76.44 277.56,-74.95 284.83,-82.65 288.05,-76.44"/>
</a>
</g>
</g>
<!-- Node21&#45;&gt;Node3 -->
<g id="edge33_Node000021_Node000003" class="edge">
<title>Node21&#45;&gt;Node3</title>
<g id="a_edge33_Node000021_Node000003"><a xlink:title=" ">
<path fill="none" stroke="#63b8ff" d="M772.06,-110.09C748.2,-101.45 711.97,-88.32 685.18,-78.62"/>
<polygon fill="#63b8ff" stroke="#63b8ff" points="686.65,-75.07 676.06,-74.95 684.27,-81.65 686.65,-75.07"/>
</a>
</g>
</g>
<!-- Node21&#45;&gt;Node5 -->
<g id="edge34_Node000021_Node000005" class="edge">
<title>Node21&#45;&gt;Node5</title>
<g id="a_edge34_Node000021_Node000005"><a xlink:title=" ">
<path fill="none" stroke="#63b8ff" d="M762.1,-111.72C720.02,-102.79 648.85,-87.69 599.75,-77.28"/>
<polygon fill="#63b8ff" stroke="#63b8ff" points="600.51,-73.65 590.01,-75 599.06,-80.5 600.51,-73.65"/>
</a>
</g>
</g>
<!-- Node21&#45;&gt;Node7 -->
<g id="edge35_Node000021_Node000007" class="edge">
<title>Node21&#45;&gt;Node7</title>
<g id="a_edge35_Node000021_Node000007"><a xlink:title=" ">
<path fill="none" stroke="#63b8ff" d="M821.06,-110.06C872.2,-90.79 991.85,-45.72 1050.86,-23.49"/>
<polygon fill="#63b8ff" stroke="#63b8ff" points="1051.68,-26.54 1059.81,-19.74 1049.21,-19.99 1051.68,-26.54"/>
</a>
</g>
</g>
<!-- Node21&#45;&gt;Node9 -->
<g id="edge36_Node000021_Node000009" class="edge">
<title>Node21&#45;&gt;Node9</title>
<g id="a_edge36_Node000021_Node000009"><a xlink:title=" ">
<path fill="none" stroke="#63b8ff" d="M786.68,-110.18C769.31,-95.73 732.56,-67.61 696,-55.25 607.28,-25.26 317.48,-14.32 221.32,-11.46"/>
<polygon fill="#63b8ff" stroke="#63b8ff" points="221.43,-7.93 211.33,-11.14 221.23,-14.93 221.43,-7.93"/>
</a>
</g>
</g>
<!-- Node21&#45;&gt;Node10 -->
<g id="edge37_Node000021_Node000010" class="edge">
<title>Node21&#45;&gt;Node10</title>
<g id="a_edge37_Node000021_Node000010"><a xlink:title=" ">
<path fill="none" stroke="#63b8ff" d="M791.91,-110.23C787.16,-101.45 780.32,-87.5 777,-74.5 773.29,-59.96 772.1,-43.01 771.81,-30.22"/>
<polygon fill="#63b8ff" stroke="#63b8ff" points="775.3,-30.44 771.75,-20.46 768.3,-30.48 775.3,-30.44"/>
</a>
</g>
</g>
<!-- Node22&#45;&gt;Node3 -->
<g id="edge39_Node000022_Node000003" class="edge">
<title>Node22&#45;&gt;Node3</title>
<g id="a_edge39_Node000022_Node000003"><a xlink:title=" ">
<path fill="none" stroke="#63b8ff" d="M887.78,-111.1C836.9,-101.42 751.6,-85.2 698.19,-75.04"/>
<polygon fill="#63b8ff" stroke="#63b8ff" points="699.1,-71.46 688.62,-73.03 697.79,-78.34 699.1,-71.46"/>
</a>
</g>
</g>
<!-- Node22&#45;&gt;Node8 -->
<g id="edge40_Node000022_Node000008" class="edge">
<title>Node22&#45;&gt;Node8</title>
<g id="a_edge40_Node000022_Node000008"><a xlink:title=" ">
<path fill="none" stroke="#63b8ff" d="M937.24,-110.34C949.01,-96.63 973.65,-70.14 1000,-55.25 1010.26,-49.45 1075.58,-31 1116.56,-19.72"/>
<polygon fill="#63b8ff" stroke="#63b8ff" points="1117.44,-22.83 1126.16,-16.81 1115.59,-16.08 1117.44,-22.83"/>
</a>
</g>
</g>
<!-- Node22&#45;&gt;Node9 -->
<g id="edge41_Node000022_Node000009" class="edge">
<title>Node22&#45;&gt;Node9</title>
<g id="a_edge41_Node000022_Node000009"><a xlink:title=" ">
<path fill="none" stroke="#63b8ff" d="M907.23,-110.03C870.42,-95.75 795.27,-68.35 729,-55.25 630.54,-35.79 320.63,-17.71 221.1,-12.28"/>
<polygon fill="#63b8ff" stroke="#63b8ff" points="221.47,-8.74 211.3,-11.69 221.09,-15.73 221.47,-8.74"/>
</a>
</g>
</g>
<!-- Node22&#45;&gt;Node10 -->
<g id="edge42_Node000022_Node000010" class="edge">
<title>Node22&#45;&gt;Node10</title>
<g id="a_edge42_Node000022_Node000010"><a xlink:title=" ">
<path fill="none" stroke="#63b8ff" d="M918.37,-110.17C901.87,-97.56 870.58,-74.01 843,-55.25 827.79,-44.91 810.3,-33.9 796.49,-25.41"/>
<polygon fill="#63b8ff" stroke="#63b8ff" points="798.52,-21.94 788.16,-19.72 794.87,-27.92 798.52,-21.94"/>
</a>
</g>
</g>
<!-- Node23&#45;&gt;Node7 -->
<g id="edge50_Node000023_Node000007" class="edge">
<title>Node23&#45;&gt;Node7</title>
<g id="a_edge50_Node000023_Node000007"><a xlink:title=" ">
<path fill="none" stroke="#63b8ff" d="M1231.36,-165.56C1245.88,-144.29 1278.22,-89.39 1252,-55.25 1251.48,-54.58 1168.8,-32.7 1119.99,-19.83"/>
<polygon fill="#63b8ff" stroke="#63b8ff" points="1121.11,-16.25 1110.54,-17.08 1119.32,-23.02 1121.11,-16.25"/>
</a>
</g>
</g>
<!-- Node23&#45;&gt;Node10 -->
<g id="edge51_Node000023_Node000010" class="edge">
<title>Node23&#45;&gt;Node10</title>
<g id="a_edge51_Node000023_Node000010"><a xlink:title=" ">
<path fill="none" stroke="#63b8ff" d="M1215.39,-165.56C1187.73,-140.39 1107.89,-69.11 1076,-55.25 983.55,-15.06 861.93,-9.89 804.59,-9.94"/>
<polygon fill="#63b8ff" stroke="#63b8ff" points="804.66,-6.44 794.68,-10.01 804.71,-13.44 804.66,-6.44"/>
</a>
</g>
</g>
<!-- Node24 -->
<g id="Node000024" class="node">
<title>Node24</title>
<g id="a_Node000024"><a xlink:href="pdqsort_8h.html" target="_top" xlink:title=" ">
<polygon fill="white" stroke="#666666" points="1241.25,-129.75 1184.75,-129.75 1184.75,-110.5 1241.25,-110.5 1241.25,-129.75"/>
<text text-anchor="middle" x="1213" y="-116.25" font-family="Helvetica,sans-Serif" font-size="10.00">pdqsort.h</text>
</a>
</g>
</g>
<!-- Node23&#45;&gt;Node24 -->
<g id="edge44_Node000023_Node000024" class="edge">
<title>Node23&#45;&gt;Node24</title>
<g id="a_edge44_Node000023_Node000024"><a xlink:title=" ">
<path fill="none" stroke="#63b8ff" d="M1223.02,-165.58C1221.5,-158.84 1219.34,-149.27 1217.42,-140.74"/>
<polygon fill="#63b8ff" stroke="#63b8ff" points="1220.64,-140.1 1215.02,-131.11 1213.81,-141.63 1220.64,-140.1"/>
</a>
</g>
</g>
<!-- Node24&#45;&gt;Node7 -->
<g id="edge46_Node000024_Node000007" class="edge">
<title>Node24&#45;&gt;Node7</title>
<g id="a_edge46_Node000024_Node000007"><a xlink:title=" ">
<path fill="none" stroke="#63b8ff" d="M1221.24,-110.07C1232.17,-96.92 1248.7,-72.25 1236,-55.25 1232.43,-50.47 1163.41,-31.43 1119.94,-19.82"/>
<polygon fill="#63b8ff" stroke="#63b8ff" points="1121.05,-16.23 1110.49,-17.04 1119.25,-23 1121.05,-16.23"/>
</a>
</g>
</g>
<!-- Node24&#45;&gt;Node25 -->
<g id="edge45_Node000024_Node000025" class="edge">
<title>Node24&#45;&gt;Node25</title>
<g id="a_edge45_Node000024_Node000025"><a xlink:title=" ">
<path fill="none" stroke="#63b8ff" d="M1236.07,-110.09C1257.95,-101.52 1291.07,-88.56 1315.79,-78.88"/>
<polygon fill="#63b8ff" stroke="#63b8ff" points="1316.78,-81.86 1324.82,-74.95 1314.23,-75.34 1316.78,-81.86"/>
</a>
</g>
</g>
<!-- Node24&#45;&gt;Node26 -->
<g id="edge47_Node000024_Node000026" class="edge">
<title>Node24&#45;&gt;Node26</title>
<g id="a_edge47_Node000024_Node000026"><a xlink:title=" ">
<path fill="none" stroke="#63b8ff" d="M1184.49,-110.45C1155.52,-101.63 1110.39,-87.9 1077.87,-78.01"/>
<polygon fill="#63b8ff" stroke="#63b8ff" points="1078.96,-74.37 1068.37,-74.81 1076.92,-81.07 1078.96,-74.37"/>
</a>
</g>
</g>
<!-- Node27 -->
<g id="Node000027" class="node">
<title>Node27</title>
<g id="a_Node000027"><a xlink:title=" ">
<polygon fill="#e0e0e0" stroke="#999999" points="1169,-74.5 1123,-74.5 1123,-55.25 1169,-55.25 1169,-74.5"/>
<text text-anchor="middle" x="1146" y="-61" font-family="Helvetica,sans-Serif" font-size="10.00">iterator</text>
</a>
</g>
</g>
<!-- Node24&#45;&gt;Node27 -->
<g id="edge48_Node000024_Node000027" class="edge">
<title>Node24&#45;&gt;Node27</title>
<g id="a_edge48_Node000024_Node000027"><a xlink:title=" ">
<path fill="none" stroke="#63b8ff" d="M1201.63,-110.09C1191.76,-102.24 1177.23,-90.7 1165.5,-81.37"/>
<polygon fill="#63b8ff" stroke="#63b8ff" points="1168.2,-78.26 1158.2,-74.77 1163.85,-83.74 1168.2,-78.26"/>
</a>
</g>
</g>
<!-- Node28 -->
<g id="Node000028" class="node">
<title>Node28</title>
<g id="a_Node000028"><a xlink:title=" ">
<polygon fill="#e0e0e0" stroke="#999999" points="1226.62,-74.5 1187.38,-74.5 1187.38,-55.25 1226.62,-55.25 1226.62,-74.5"/>
<text text-anchor="middle" x="1207" y="-61" font-family="Helvetica,sans-Serif" font-size="10.00">utility</text>
</a>
</g>
</g>
<!-- Node24&#45;&gt;Node28 -->
<g id="edge49_Node000024_Node000028" class="edge">
<title>Node24&#45;&gt;Node28</title>
<g id="a_edge49_Node000024_Node000028"><a xlink:title=" ">
<path fill="none" stroke="#63b8ff" d="M1212.01,-110.33C1211.26,-103.67 1210.2,-94.24 1209.24,-85.78"/>
<polygon fill="#63b8ff" stroke="#63b8ff" points="1212.61,-85.4 1208.01,-75.86 1205.65,-86.19 1212.61,-85.4"/>
</a>
</g>
</g>
</g>
</svg>

<g id="navigator" transform="translate(0 0)" fill="#404254">
  <rect fill="#f2f5e9" fill-opacity="0.5" stroke="#606060" stroke-width=".5" x="0" y="0" width="60" height="60"/>
  <use id="zoomplus" xlink:href="#zoomPlus" x="17" y="9" onmousedown="handleZoom(evt,'in')"/>
  <use id="zoomminus" xlink:href="#zoomMin" x="42" y="9" onmousedown="handleZoom(evt,'out')"/>
  <use id="reset" xlink:href="#resetDef" x="30" y="36" onmousedown="handleReset()"/>
   <use id="arrowup" xlink:href="#arrowUp" x="0" y="0" onmousedown="handlePan(0,-1)"/>
  <use id="arrowright" xlink:href="#arrowRight" x="0" y="0" onmousedown="handlePan(1,0)"/>
  <use id="arrowdown" xlink:href="#arrowDown" x="0" y="0" onmousedown="handlePan(0,1)"/>
  <use id="arrowleft" xlink:href="#arrowLeft" x="0" y="0" onmousedown="handlePan(-1,0)"/>
</g>
<svg viewBox="0 0 15 15" width="100%" height="30px" preserveAspectRatio="xMaxYMin meet">
 <g id="arrow_out" transform="scale(0.3 0.3)">
  <a xlink:href="Ioss__ConstructedVariableType_8C__incl_org.svg" target="_base">
   <rect id="button" ry="5" rx="5" y="6" x="6" height="38" width="38"
        fill="#f2f5e9" fill-opacity="0.5" stroke="#606060" stroke-width="1.0"/>
   <path id="arrow"
     d="M 11.500037,31.436501 C 11.940474,20.09759 22.043105,11.32322 32.158766,21.979434 L 37.068811,17.246167 C 37.068811,17.246167 37.088388,32 37.088388,32 L 22.160133,31.978069 C 22.160133,31.978069 26.997745,27.140456 26.997745,27.140456 C 18.528582,18.264221 13.291696,25.230495 11.500037,31.436501 z"
     style="fill:#404040;"/>
  </a>
 </g>
</svg>

<style type='text/css'>
<![CDATA[
[data-mouse-over-selected='false'] { opacity: 0.7; }
[data-mouse-over-selected='true']  { opacity: 1.0; }
]]>
</style>
<script type="application/ecmascript"><![CDATA[
document.addEventListener('DOMContentLoaded', (event) => {
  highlightEdges();
  highlightAdjacentNodes();
});
]]></script>
</svg>
