<?xml version="1.0" encoding="UTF-8" standalone="no"?>
<!DOCTYPE svg PUBLIC "-//W3C//DTD SVG 1.1//EN"
 "http://www.w3.org/Graphics/SVG/1.1/DTD/svg11.dtd">
<!-- Generated by graphviz version 8.0.5 (20230430.1635)
 -->
<!-- Title: src/Ioss_TriShell3.C Pages: 1 -->
<svg width="1798pt" height="414pt"
 viewBox="0.00 0.00 1797.89 414.00" xmlns="http://www.w3.org/2000/svg" xmlns:xlink="http://www.w3.org/1999/xlink">
<g id="graph0" class="graph" transform="scale(1 1) rotate(0) translate(4 410)">
<title>src/Ioss_TriShell3.C</title>
<!-- Node1 -->
<g id="node1" class="node">
<title>Node1</title>
<g id="a_node1"><a xlink:title=" ">
<polygon fill="#999999" stroke="#666666" points="717.28,-406 612.03,-406 612.03,-386.75 717.28,-386.75 717.28,-406"/>
<text text-anchor="middle" x="664.65" y="-392.5" font-family="Helvetica,sans-Serif" font-size="10.00">src/Ioss_TriShell3.C</text>
</a>
</g>
</g>
<!-- Node2 -->
<g id="node2" class="node">
<title>Node2</title>
<g id="a_node2"><a xlink:href="Ioss__CodeTypes_8h.html" target="_top" xlink:title=" ">
<polygon fill="white" stroke="#666666" points="1156.53,-74.5 1058.78,-74.5 1058.78,-55.25 1156.53,-55.25 1156.53,-74.5"/>
<text text-anchor="middle" x="1107.65" y="-61" font-family="Helvetica,sans-Serif" font-size="10.00">Ioss_CodeTypes.h</text>
</a>
</g>
</g>
<!-- Node1&#45;&gt;Node2 -->
<g id="edge1" class="edge">
<title>Node1&#45;&gt;Node2</title>
<path fill="none" stroke="#63b8ff" d="M717.67,-393.96C874.21,-388.41 1327.17,-361.91 1386.65,-240.25 1392.69,-227.9 1399.02,-192.34 1384.65,-165.75 1364.46,-128.37 1345.47,-127.76 1306.65,-110.5 1262.2,-90.73 1208.14,-79.33 1167.59,-73.01"/>
<polygon fill="#63b8ff" stroke="#63b8ff" points="1168.2,-69.41 1157.79,-71.39 1167.17,-76.33 1168.2,-69.41"/>
</g>
<!-- Node10 -->
<g id="node10" class="node">
<title>Node10</title>
<g id="a_node10"><a xlink:href="Ioss__ElementTopology_8h.html" target="_top" xlink:title=" ">
<polygon fill="white" stroke="#666666" points="261.53,-185 139.78,-185 139.78,-165.75 261.53,-165.75 261.53,-185"/>
<text text-anchor="middle" x="200.65" y="-171.5" font-family="Helvetica,sans-Serif" font-size="10.00">Ioss_ElementTopology.h</text>
</a>
</g>
</g>
<!-- Node1&#45;&gt;Node10 -->
<g id="edge9" class="edge">
<title>Node1&#45;&gt;Node10</title>
<path fill="none" stroke="#63b8ff" d="M611.96,-388.5C565.4,-381.61 496.02,-369.33 437.65,-350.75 328.44,-315.99 267.84,-335.87 204.65,-240.25 196.03,-227.2 195.68,-209.19 197.11,-195.62"/>
<polygon fill="#63b8ff" stroke="#63b8ff" points="200.67,-196.48 198.67,-186.07 193.75,-195.45 200.67,-196.48"/>
</g>
<!-- Node17 -->
<g id="node17" class="node">
<title>Node17</title>
<g id="a_node17"><a xlink:href="Ioss__ElementVariableType_8h.html" target="_top" xlink:title=" ">
<polygon fill="white" stroke="#666666" points="734.53,-350.75 594.78,-350.75 594.78,-331.5 734.53,-331.5 734.53,-350.75"/>
<text text-anchor="middle" x="664.65" y="-337.25" font-family="Helvetica,sans-Serif" font-size="10.00">Ioss_ElementVariableType.h</text>
</a>
</g>
</g>
<!-- Node1&#45;&gt;Node17 -->
<g id="edge24" class="edge">
<title>Node1&#45;&gt;Node17</title>
<path fill="none" stroke="#63b8ff" d="M664.65,-386.58C664.65,-379.92 664.65,-370.49 664.65,-362.03"/>
<polygon fill="#63b8ff" stroke="#63b8ff" points="668.15,-362.11 664.65,-352.11 661.15,-362.11 668.15,-362.11"/>
</g>
<!-- Node29 -->
<g id="node29" class="node">
<title>Node29</title>
<g id="a_node29"><a xlink:title=" ">
<polygon fill="#e0e0e0" stroke="#999999" points="1322.78,-185 1274.53,-185 1274.53,-165.75 1322.78,-165.75 1322.78,-185"/>
<text text-anchor="middle" x="1298.65" y="-171.5" font-family="Helvetica,sans-Serif" font-size="10.00">cassert</text>
</a>
</g>
</g>
<!-- Node1&#45;&gt;Node29 -->
<g id="edge76" class="edge">
<title>Node1&#45;&gt;Node29</title>
<path fill="none" stroke="#63b8ff" d="M717.58,-392.03C867.13,-381.35 1287.35,-342.63 1369.65,-240.25 1385.43,-220.63 1357.51,-201.81 1332.18,-189.75"/>
<polygon fill="#63b8ff" stroke="#63b8ff" points="1333.9,-186.23 1323.34,-185.31 1331.02,-192.61 1333.9,-186.23"/>
</g>
<!-- Node36 -->
<g id="node36" class="node">
<title>Node36</title>
<g id="a_node36"><a xlink:href="Ioss__TriShell3_8h.html" target="_top" xlink:title=" ">
<polygon fill="white" stroke="#666666" points="299.9,-240.25 213.4,-240.25 213.4,-221 299.9,-221 299.9,-240.25"/>
<text text-anchor="middle" x="256.65" y="-226.75" font-family="Helvetica,sans-Serif" font-size="10.00">Ioss_TriShell3.h</text>
</a>
</g>
</g>
<!-- Node1&#45;&gt;Node36 -->
<g id="edge72" class="edge">
<title>Node1&#45;&gt;Node36</title>
<path fill="none" stroke="#63b8ff" d="M623.73,-386.25C562.58,-371.76 444.6,-340.44 351.65,-295.5 323.92,-282.09 294.95,-261.51 276.4,-247.35"/>
<polygon fill="#63b8ff" stroke="#63b8ff" points="278.76,-243.97 268.72,-240.6 274.47,-249.5 278.76,-243.97"/>
</g>
<!-- Node3 -->
<g id="node3" class="node">
<title>Node3</title>
<g id="a_node3"><a xlink:title=" ">
<polygon fill="#e0e0e0" stroke="#999999" points="1093.53,-19.25 1055.78,-19.25 1055.78,0 1093.53,0 1093.53,-19.25"/>
<text text-anchor="middle" x="1074.65" y="-5.75" font-family="Helvetica,sans-Serif" font-size="10.00">array</text>
</a>
</g>
</g>
<!-- Node2&#45;&gt;Node3 -->
<g id="edge2" class="edge">
<title>Node2&#45;&gt;Node3</title>
<path fill="none" stroke="#63b8ff" d="M1102.2,-55.08C1097.79,-47.96 1091.42,-37.68 1085.92,-28.8"/>
<polygon fill="#63b8ff" stroke="#63b8ff" points="1088.46,-27.27 1080.22,-20.61 1082.51,-30.95 1088.46,-27.27"/>
</g>
<!-- Node4 -->
<g id="node4" class="node">
<title>Node4</title>
<g id="a_node4"><a xlink:title=" ">
<polygon fill="#e0e0e0" stroke="#999999" points="1701.78,-19.25 1653.53,-19.25 1653.53,0 1701.78,0 1701.78,-19.25"/>
<text text-anchor="middle" x="1677.65" y="-5.75" font-family="Helvetica,sans-Serif" font-size="10.00">cstddef</text>
</a>
</g>
</g>
<!-- Node2&#45;&gt;Node4 -->
<g id="edge3" class="edge">
<title>Node2&#45;&gt;Node4</title>
<path fill="none" stroke="#63b8ff" d="M1156.74,-59.29C1269.48,-48.76 1544.69,-23.05 1642.47,-13.91"/>
<polygon fill="#63b8ff" stroke="#63b8ff" points="1642.6,-17.32 1652.23,-12.91 1641.95,-10.35 1642.6,-17.32"/>
</g>
<!-- Node5 -->
<g id="node5" class="node">
<title>Node5</title>
<g id="a_node5"><a xlink:title=" ">
<polygon fill="#e0e0e0" stroke="#999999" points="967.28,-19.25 922.03,-19.25 922.03,0 967.28,0 967.28,-19.25"/>
<text text-anchor="middle" x="944.65" y="-5.75" font-family="Helvetica,sans-Serif" font-size="10.00">cstdint</text>
</a>
</g>
</g>
<!-- Node2&#45;&gt;Node5 -->
<g id="edge4" class="edge">
<title>Node2&#45;&gt;Node5</title>
<path fill="none" stroke="#63b8ff" d="M1080,-54.84C1051.85,-45.65 1008.18,-31.38 978.1,-21.55"/>
<polygon fill="#63b8ff" stroke="#63b8ff" points="979.28,-17.93 968.69,-18.15 977.11,-24.58 979.28,-17.93"/>
</g>
<!-- Node6 -->
<g id="node6" class="node">
<title>Node6</title>
<g id="a_node6"><a xlink:title=" ">
<polygon fill="#e0e0e0" stroke="#999999" points="556.65,-19.25 516.65,-19.25 516.65,0 556.65,0 556.65,-19.25"/>
<text text-anchor="middle" x="536.65" y="-5.75" font-family="Helvetica,sans-Serif" font-size="10.00">string</text>
</a>
</g>
</g>
<!-- Node2&#45;&gt;Node6 -->
<g id="edge5" class="edge">
<title>Node2&#45;&gt;Node6</title>
<path fill="none" stroke="#63b8ff" d="M1058.48,-59.29C943.96,-48.61 662.06,-22.32 567.87,-13.54"/>
<polygon fill="#63b8ff" stroke="#63b8ff" points="568.37,-9.97 558.09,-12.53 567.72,-16.94 568.37,-9.97"/>
</g>
<!-- Node7 -->
<g id="node7" class="node">
<title>Node7</title>
<g id="a_node7"><a xlink:title=" ">
<polygon fill="#e0e0e0" stroke="#999999" points="1288.15,-19.25 1245.15,-19.25 1245.15,0 1288.15,0 1288.15,-19.25"/>
<text text-anchor="middle" x="1266.65" y="-5.75" font-family="Helvetica,sans-Serif" font-size="10.00">vector</text>
</a>
</g>
</g>
<!-- Node2&#45;&gt;Node7 -->
<g id="edge6" class="edge">
<title>Node2&#45;&gt;Node7</title>
<path fill="none" stroke="#63b8ff" d="M1134.63,-54.84C1162.24,-45.59 1205.17,-31.22 1234.53,-21.38"/>
<polygon fill="#63b8ff" stroke="#63b8ff" points="1235.31,-24.48 1243.68,-17.98 1233.08,-17.84 1235.31,-24.48"/>
</g>
<!-- Node8 -->
<g id="node8" class="node">
<title>Node8</title>
<g id="a_node8"><a xlink:title=" ">
<polygon fill="#e0e0e0" stroke="#999999" points="1227.53,-19.25 1111.78,-19.25 1111.78,0 1227.53,0 1227.53,-19.25"/>
<text text-anchor="middle" x="1169.65" y="-5.75" font-family="Helvetica,sans-Serif" font-size="10.00">SEACASIoss_config.h</text>
</a>
</g>
</g>
<!-- Node2&#45;&gt;Node8 -->
<g id="edge7" class="edge">
<title>Node2&#45;&gt;Node8</title>
<path fill="none" stroke="#63b8ff" d="M1118.17,-54.84C1127.13,-47.15 1140.23,-35.9 1150.97,-26.68"/>
<polygon fill="#63b8ff" stroke="#63b8ff" points="1152.99,-28.7 1158.29,-19.52 1148.43,-23.39 1152.99,-28.7"/>
</g>
<!-- Node9 -->
<g id="node9" class="node">
<title>Node9</title>
<g id="a_node9"><a xlink:title=" ">
<polygon fill="#e0e0e0" stroke="#999999" points="1038.03,-19.25 985.28,-19.25 985.28,0 1038.03,0 1038.03,-19.25"/>
<text text-anchor="middle" x="1011.65" y="-5.75" font-family="Helvetica,sans-Serif" font-size="10.00">complex</text>
</a>
</g>
</g>
<!-- Node2&#45;&gt;Node9 -->
<g id="edge8" class="edge">
<title>Node2&#45;&gt;Node9</title>
<path fill="none" stroke="#63b8ff" d="M1091.37,-54.84C1076.61,-46.66 1054.62,-34.46 1037.47,-24.94"/>
<polygon fill="#63b8ff" stroke="#63b8ff" points="1039.46,-21.49 1029.02,-19.7 1036.07,-27.61 1039.46,-21.49"/>
</g>
<!-- Node10&#45;&gt;Node2 -->
<g id="edge11" class="edge">
<title>Node10&#45;&gt;Node2</title>
<path fill="none" stroke="#63b8ff" d="M262.01,-169.68C352.77,-162.5 528.13,-147.71 676.65,-129.75 809.43,-113.7 964.4,-89.35 1047.56,-75.82"/>
<polygon fill="#63b8ff" stroke="#63b8ff" points="1048.01,-79.13 1057.32,-74.07 1046.89,-72.22 1048.01,-79.13"/>
</g>
<!-- Node10&#45;&gt;Node6 -->
<g id="edge22" class="edge">
<title>Node10&#45;&gt;Node6</title>
<path fill="none" stroke="#63b8ff" d="M139.66,-166.29C96.55,-159.17 44.12,-147.21 30.65,-129.75 10.43,-103.53 8.29,-79.67 30.65,-55.25 62.76,-20.18 399.89,-12.53 505.32,-10.99"/>
<polygon fill="#63b8ff" stroke="#63b8ff" points="505.22,-14.48 515.17,-10.84 505.13,-7.48 505.22,-14.48"/>
</g>
<!-- Node10&#45;&gt;Node7 -->
<g id="edge23" class="edge">
<title>Node10&#45;&gt;Node7</title>
<path fill="none" stroke="#63b8ff" d="M261.96,-172.55C478.42,-165.99 1194.93,-143.29 1214.65,-129.75 1248.04,-106.83 1260.17,-57.51 1264.44,-30.06"/>
<polygon fill="#63b8ff" stroke="#63b8ff" points="1268,-30.85 1265.86,-20.47 1261.06,-29.92 1268,-30.85"/>
</g>
<!-- Node11 -->
<g id="node11" class="node">
<title>Node11</title>
<g id="a_node11"><a xlink:title=" ">
<polygon fill="#e0e0e0" stroke="#999999" points="459.9,-74.5 385.4,-74.5 385.4,-55.25 459.9,-55.25 459.9,-74.5"/>
<text text-anchor="middle" x="422.65" y="-61" font-family="Helvetica,sans-Serif" font-size="10.00">ioss_export.h</text>
</a>
</g>
</g>
<!-- Node10&#45;&gt;Node11 -->
<g id="edge10" class="edge">
<title>Node10&#45;&gt;Node11</title>
<path fill="none" stroke="#63b8ff" d="M219.2,-165.31C258.05,-146.32 348.19,-102.27 394.33,-79.72"/>
<polygon fill="#63b8ff" stroke="#63b8ff" points="395.56,-82.53 403,-74.99 392.48,-76.24 395.56,-82.53"/>
</g>
<!-- Node12 -->
<g id="node12" class="node">
<title>Node12</title>
<g id="a_node12"><a xlink:href="Ioss__ElementPermutation_8h.html" target="_top" xlink:title=" ">
<polygon fill="white" stroke="#666666" points="176.03,-129.75 39.28,-129.75 39.28,-110.5 176.03,-110.5 176.03,-129.75"/>
<text text-anchor="middle" x="107.65" y="-116.25" font-family="Helvetica,sans-Serif" font-size="10.00">Ioss_ElementPermutation.h</text>
</a>
</g>
</g>
<!-- Node10&#45;&gt;Node12 -->
<g id="edge12" class="edge">
<title>Node10&#45;&gt;Node12</title>
<path fill="none" stroke="#63b8ff" d="M184.88,-165.34C170.58,-157.16 149.27,-144.96 132.66,-135.44"/>
<polygon fill="#63b8ff" stroke="#63b8ff" points="134.92,-132.13 124.51,-130.2 131.45,-138.21 134.92,-132.13"/>
</g>
<!-- Node15 -->
<g id="node15" class="node">
<title>Node15</title>
<g id="a_node15"><a xlink:title=" ">
<polygon fill="#e0e0e0" stroke="#999999" points="277.03,-74.5 242.28,-74.5 242.28,-55.25 277.03,-55.25 277.03,-74.5"/>
<text text-anchor="middle" x="259.65" y="-61" font-family="Helvetica,sans-Serif" font-size="10.00">map</text>
</a>
</g>
</g>
<!-- Node10&#45;&gt;Node15 -->
<g id="edge20" class="edge">
<title>Node10&#45;&gt;Node15</title>
<path fill="none" stroke="#63b8ff" d="M207.89,-165.54C214.82,-156.81 225.29,-142.89 232.65,-129.75 240.76,-115.29 247.96,-97.91 252.88,-84.93"/>
<polygon fill="#63b8ff" stroke="#63b8ff" points="256.42,-86.44 256.58,-75.85 249.85,-84.03 256.42,-86.44"/>
</g>
<!-- Node16 -->
<g id="node16" class="node">
<title>Node16</title>
<g id="a_node16"><a xlink:title=" ">
<polygon fill="#e0e0e0" stroke="#999999" points="223.4,-129.75 193.9,-129.75 193.9,-110.5 223.4,-110.5 223.4,-129.75"/>
<text text-anchor="middle" x="208.65" y="-116.25" font-family="Helvetica,sans-Serif" font-size="10.00">set</text>
</a>
</g>
</g>
<!-- Node10&#45;&gt;Node16 -->
<g id="edge21" class="edge">
<title>Node10&#45;&gt;Node16</title>
<path fill="none" stroke="#63b8ff" d="M201.97,-165.58C202.99,-158.84 204.42,-149.27 205.71,-140.74"/>
<polygon fill="#63b8ff" stroke="#63b8ff" points="209.28,-141.52 207.3,-131.11 202.36,-140.48 209.28,-141.52"/>
</g>
<!-- Node12&#45;&gt;Node2 -->
<g id="edge14" class="edge">
<title>Node12&#45;&gt;Node2</title>
<path fill="none" stroke="#63b8ff" d="M176.48,-111.2C179.24,-110.95 181.97,-110.71 184.65,-110.5 509.94,-84.44 901.03,-71.62 1047.98,-67.45"/>
<polygon fill="#63b8ff" stroke="#63b8ff" points="1047.66,-70.93 1057.55,-67.16 1047.46,-63.94 1047.66,-70.93"/>
</g>
<!-- Node12&#45;&gt;Node6 -->
<g id="edge18" class="edge">
<title>Node12&#45;&gt;Node6</title>
<path fill="none" stroke="#63b8ff" d="M117.34,-110.11C133.32,-95.82 166.83,-68.25 200.65,-55.25 306.95,-14.39 444.55,-9.81 505.38,-10"/>
<polygon fill="#63b8ff" stroke="#63b8ff" points="505.13,-13.51 515.16,-10.09 505.19,-6.51 505.13,-13.51"/>
</g>
<!-- Node12&#45;&gt;Node7 -->
<g id="edge19" class="edge">
<title>Node12&#45;&gt;Node7</title>
<path fill="none" stroke="#63b8ff" d="M126.35,-110.06C144.62,-101.16 173.16,-87.12 197.65,-74.5 213.78,-66.19 216.14,-59.98 233.65,-55.25 445.73,1.95 999.3,-52.62 1234.23,-19.17"/>
<polygon fill="#63b8ff" stroke="#63b8ff" points="1234.47,-22.52 1243.84,-17.56 1233.43,-15.6 1234.47,-22.52"/>
</g>
<!-- Node12&#45;&gt;Node11 -->
<g id="edge13" class="edge">
<title>Node12&#45;&gt;Node11</title>
<path fill="none" stroke="#63b8ff" d="M161.45,-110.03C221.2,-99.93 316.82,-83.77 374.29,-74.05"/>
<polygon fill="#63b8ff" stroke="#63b8ff" points="374.63,-77.37 383.91,-72.26 373.47,-70.47 374.63,-77.37"/>
</g>
<!-- Node13 -->
<g id="node13" class="node">
<title>Node13</title>
<g id="a_node13"><a xlink:title=" ">
<polygon fill="#e0e0e0" stroke="#999999" points="91.28,-74.5 40.03,-74.5 40.03,-55.25 91.28,-55.25 91.28,-74.5"/>
<text text-anchor="middle" x="65.65" y="-61" font-family="Helvetica,sans-Serif" font-size="10.00">assert.h</text>
</a>
</g>
</g>
<!-- Node12&#45;&gt;Node13 -->
<g id="edge15" class="edge">
<title>Node12&#45;&gt;Node13</title>
<path fill="none" stroke="#63b8ff" d="M100.72,-110.33C94.98,-103.05 86.64,-92.48 79.54,-83.48"/>
<polygon fill="#63b8ff" stroke="#63b8ff" points="81.68,-81.54 72.74,-75.86 76.18,-85.88 81.68,-81.54"/>
</g>
<!-- Node14 -->
<g id="node14" class="node">
<title>Node14</title>
<g id="a_node14"><a xlink:title=" ">
<polygon fill="#e0e0e0" stroke="#999999" points="148.28,-74.5 109.03,-74.5 109.03,-55.25 148.28,-55.25 148.28,-74.5"/>
<text text-anchor="middle" x="128.65" y="-61" font-family="Helvetica,sans-Serif" font-size="10.00">limits</text>
</a>
</g>
</g>
<!-- Node12&#45;&gt;Node14 -->
<g id="edge16" class="edge">
<title>Node12&#45;&gt;Node14</title>
<path fill="none" stroke="#63b8ff" d="M111.12,-110.33C113.84,-103.44 117.73,-93.59 121.15,-84.91"/>
<polygon fill="#63b8ff" stroke="#63b8ff" points="124.7,-86.45 125.11,-75.86 118.19,-83.88 124.7,-86.45"/>
</g>
<!-- Node12&#45;&gt;Node15 -->
<g id="edge17" class="edge">
<title>Node12&#45;&gt;Node15</title>
<path fill="none" stroke="#63b8ff" d="M133.44,-110.09C160.66,-100.56 203.43,-85.57 231.51,-75.74"/>
<polygon fill="#63b8ff" stroke="#63b8ff" points="232.56,-78.72 240.84,-72.12 230.25,-72.12 232.56,-78.72"/>
</g>
<!-- Node17&#45;&gt;Node2 -->
<g id="edge26" class="edge">
<title>Node17&#45;&gt;Node2</title>
<path fill="none" stroke="#63b8ff" d="M734.78,-335.44C905.02,-323.36 1329.18,-288.63 1369.65,-240.25 1415.51,-185.43 1338.87,-141.88 1274.65,-110.5 1240.98,-94.05 1200.42,-83.03 1167.7,-76.05"/>
<polygon fill="#63b8ff" stroke="#63b8ff" points="1168.43,-72.43 1157.93,-73.84 1167.02,-79.28 1168.43,-72.43"/>
</g>
<!-- Node17&#45;&gt;Node6 -->
<g id="edge71" class="edge">
<title>Node17&#45;&gt;Node6</title>
<path fill="none" stroke="#63b8ff" d="M594.48,-331.89C502.52,-319.53 337.34,-291.93 204.65,-240.25 113.99,-204.93 64.84,-213.71 15.65,-129.75 -1.08,-101.18 -7.74,-79.64 14.65,-55.25 47.97,-18.97 398.62,-12.14 505.74,-10.89"/>
<polygon fill="#63b8ff" stroke="#63b8ff" points="505.49,-14.38 515.46,-10.78 505.42,-7.39 505.49,-14.38"/>
</g>
<!-- Node17&#45;&gt;Node11 -->
<g id="edge25" class="edge">
<title>Node17&#45;&gt;Node11</title>
<path fill="none" stroke="#63b8ff" d="M624.57,-331.11C576.55,-318.41 496.34,-290.93 446.65,-240.25 405.52,-198.3 412.64,-121 418.73,-85.12"/>
<polygon fill="#63b8ff" stroke="#63b8ff" points="422.29,-86.12 420.68,-75.64 415.41,-84.83 422.29,-86.12"/>
</g>
<!-- Node18 -->
<g id="node18" class="node">
<title>Node18</title>
<g id="a_node18"><a xlink:href="Ioss__VariableType_8h.html" target="_top" xlink:title=" ">
<polygon fill="white" stroke="#666666" points="1052.53,-295.5 948.78,-295.5 948.78,-276.25 1052.53,-276.25 1052.53,-295.5"/>
<text text-anchor="middle" x="1000.65" y="-282" font-family="Helvetica,sans-Serif" font-size="10.00">Ioss_VariableType.h</text>
</a>
</g>
</g>
<!-- Node17&#45;&gt;Node18 -->
<g id="edge27" class="edge">
<title>Node17&#45;&gt;Node18</title>
<path fill="none" stroke="#63b8ff" d="M722.03,-331.03C781.97,-321.53 875.73,-306.67 937.68,-296.85"/>
<polygon fill="#63b8ff" stroke="#63b8ff" points="938.15,-300.17 947.48,-295.14 937.06,-293.25 938.15,-300.17"/>
</g>
<!-- Node18&#45;&gt;Node2 -->
<g id="edge29" class="edge">
<title>Node18&#45;&gt;Node2</title>
<path fill="none" stroke="#63b8ff" d="M1052.88,-276.78C1137.43,-262.49 1298.23,-229.99 1331.65,-185 1336.76,-178.13 1336.23,-172.98 1331.65,-165.75 1311,-133.16 1207.34,-96.66 1148.54,-78.12"/>
<polygon fill="#63b8ff" stroke="#63b8ff" points="1149.7,-74.5 1139.11,-74.87 1147.62,-81.19 1149.7,-74.5"/>
</g>
<!-- Node18&#45;&gt;Node6 -->
<g id="edge69" class="edge">
<title>Node18&#45;&gt;Node6</title>
<path fill="none" stroke="#63b8ff" d="M948.55,-285.64C862.72,-284.28 690.04,-270.18 578.65,-185 530.87,-148.46 531.29,-67.78 534.37,-30.38"/>
<polygon fill="#63b8ff" stroke="#63b8ff" points="537.94,-30.78 535.45,-20.48 530.98,-30.09 537.94,-30.78"/>
</g>
<!-- Node18&#45;&gt;Node7 -->
<g id="edge70" class="edge">
<title>Node18&#45;&gt;Node7</title>
<path fill="none" stroke="#63b8ff" d="M1052.94,-282.33C1149.76,-277.08 1349,-263.55 1369.65,-240.25 1428.76,-173.56 1328.32,-67.39 1285.03,-26.97"/>
<polygon fill="#63b8ff" stroke="#63b8ff" points="1287.7,-24.76 1277.96,-20.59 1282.98,-29.92 1287.7,-24.76"/>
</g>
<!-- Node18&#45;&gt;Node11 -->
<g id="edge28" class="edge">
<title>Node18&#45;&gt;Node11</title>
<path fill="none" stroke="#63b8ff" d="M948.35,-283.93C820.86,-281.14 501.87,-271.13 465.65,-240.25 420.04,-201.35 418.69,-122.52 420.84,-85.68"/>
<polygon fill="#63b8ff" stroke="#63b8ff" points="424.39,-86.15 421.65,-75.92 417.41,-85.63 424.39,-86.15"/>
</g>
<!-- Node18&#45;&gt;Node15 -->
<g id="edge68" class="edge">
<title>Node18&#45;&gt;Node15</title>
<path fill="none" stroke="#63b8ff" d="M948.56,-285C828.48,-284.61 535.71,-279.53 446.65,-240.25 366.5,-204.89 298.79,-120.41 271.98,-83.56"/>
<polygon fill="#63b8ff" stroke="#63b8ff" points="274.45,-82 265.79,-75.9 268.75,-86.07 274.45,-82"/>
</g>
<!-- Node19 -->
<g id="node19" class="node">
<title>Node19</title>
<g id="a_node19"><a xlink:href="Ioss__Utils_8h.html" target="_top" xlink:title=" ">
<polygon fill="white" stroke="#666666" points="1034.9,-240.25 966.4,-240.25 966.4,-221 1034.9,-221 1034.9,-240.25"/>
<text text-anchor="middle" x="1000.65" y="-226.75" font-family="Helvetica,sans-Serif" font-size="10.00">Ioss_Utils.h</text>
</a>
</g>
</g>
<!-- Node18&#45;&gt;Node19 -->
<g id="edge30" class="edge">
<title>Node18&#45;&gt;Node19</title>
<path fill="none" stroke="#63b8ff" d="M1000.65,-276.08C1000.65,-269.42 1000.65,-259.99 1000.65,-251.53"/>
<polygon fill="#63b8ff" stroke="#63b8ff" points="1004.15,-251.61 1000.65,-241.61 997.15,-251.61 1004.15,-251.61"/>
</g>
<!-- Node26 -->
<g id="node26" class="node">
<title>Node26</title>
<g id="a_node26"><a xlink:title=" ">
<polygon fill="#e0e0e0" stroke="#999999" points="1763.65,-74.5 1705.65,-74.5 1705.65,-55.25 1763.65,-55.25 1763.65,-74.5"/>
<text text-anchor="middle" x="1734.65" y="-61" font-family="Helvetica,sans-Serif" font-size="10.00">functional</text>
</a>
</g>
</g>
<!-- Node18&#45;&gt;Node26 -->
<g id="edge67" class="edge">
<title>Node18&#45;&gt;Node26</title>
<path fill="none" stroke="#63b8ff" d="M1052.75,-283.48C1135.74,-280.4 1302.68,-270.64 1440.65,-240.25 1514.12,-224.07 1535.73,-223.01 1600.65,-185 1649.44,-156.44 1696.43,-108.46 1719.64,-82.98"/>
<polygon fill="#63b8ff" stroke="#63b8ff" points="1721.74,-85.76 1725.81,-75.97 1716.53,-81.08 1721.74,-85.76"/>
</g>
<!-- Node35 -->
<g id="node35" class="node">
<title>Node35</title>
<g id="a_node35"><a xlink:title=" ">
<polygon fill="#e0e0e0" stroke="#999999" points="1360.28,-240.25 1315.03,-240.25 1315.03,-221 1360.28,-221 1360.28,-240.25"/>
<text text-anchor="middle" x="1337.65" y="-226.75" font-family="Helvetica,sans-Serif" font-size="10.00">cstring</text>
</a>
</g>
</g>
<!-- Node18&#45;&gt;Node35 -->
<g id="edge66" class="edge">
<title>Node18&#45;&gt;Node35</title>
<path fill="none" stroke="#63b8ff" d="M1052.9,-278.41C1112.93,-270.69 1214.27,-256.71 1300.65,-240.25 1301.79,-240.03 1302.94,-239.81 1304.1,-239.57"/>
<polygon fill="#63b8ff" stroke="#63b8ff" points="1304.59,-242.83 1313.62,-237.3 1303.11,-235.99 1304.59,-242.83"/>
</g>
<!-- Node19&#45;&gt;Node2 -->
<g id="edge32" class="edge">
<title>Node19&#45;&gt;Node2</title>
<path fill="none" stroke="#63b8ff" d="M1035.26,-225.42C1060.27,-220.37 1092.41,-209.28 1108.65,-185 1128.7,-155.02 1120.97,-110.61 1114.01,-85.34"/>
<polygon fill="#63b8ff" stroke="#63b8ff" points="1117.1,-84.47 1110.87,-75.9 1110.4,-86.49 1117.1,-84.47"/>
</g>
<!-- Node19&#45;&gt;Node4 -->
<g id="edge58" class="edge">
<title>Node19&#45;&gt;Node4</title>
<path fill="none" stroke="#63b8ff" d="M1035.4,-228.43C1146.45,-224.38 1491.86,-210.05 1600.65,-185 1694.73,-163.34 1753.86,-164.93 1787.65,-74.5 1800.6,-39.86 1749.53,-23.2 1712.67,-15.83"/>
<polygon fill="#63b8ff" stroke="#63b8ff" points="1713.71,-12.28 1703.24,-13.91 1712.44,-19.16 1713.71,-12.28"/>
</g>
<!-- Node19&#45;&gt;Node5 -->
<g id="edge59" class="edge">
<title>Node19&#45;&gt;Node5</title>
<path fill="none" stroke="#63b8ff" d="M1029.44,-220.6C1046.14,-213.71 1065.77,-202.39 1075.65,-185 1079.88,-177.56 1078.59,-173.78 1075.65,-165.75 1053.39,-104.89 995.54,-51.43 964.7,-26.14"/>
<polygon fill="#63b8ff" stroke="#63b8ff" points="967.41,-23.02 957.42,-19.49 963.02,-28.48 967.41,-23.02"/>
</g>
<!-- Node19&#45;&gt;Node6 -->
<g id="edge64" class="edge">
<title>Node19&#45;&gt;Node6</title>
<path fill="none" stroke="#63b8ff" d="M965.9,-229.86C880.13,-229.79 661.06,-225.53 602.65,-185 551.29,-149.35 539.86,-68.22 537.35,-30.54"/>
<polygon fill="#63b8ff" stroke="#63b8ff" points="540.79,-30.37 536.79,-20.56 533.8,-30.72 540.79,-30.37"/>
</g>
<!-- Node19&#45;&gt;Node7 -->
<g id="edge65" class="edge">
<title>Node19&#45;&gt;Node7</title>
<path fill="none" stroke="#63b8ff" d="M1035.35,-224.52C1070.17,-218.46 1124.65,-206.37 1167.65,-185 1203.46,-167.21 1212.37,-159.88 1238.65,-129.75 1257.31,-108.36 1263.29,-101.9 1270.65,-74.5 1274.54,-60.03 1273.22,-43.07 1271.1,-30.27"/>
<polygon fill="#63b8ff" stroke="#63b8ff" points="1274.34,-29.61 1268.97,-20.48 1267.48,-30.97 1274.34,-29.61"/>
</g>
<!-- Node19&#45;&gt;Node10 -->
<g id="edge33" class="edge">
<title>Node19&#45;&gt;Node10</title>
<path fill="none" stroke="#63b8ff" d="M966.02,-227.32C844.9,-219.26 438.61,-192.21 272.42,-181.15"/>
<polygon fill="#63b8ff" stroke="#63b8ff" points="273.04,-177.62 262.83,-180.45 272.58,-184.6 273.04,-177.62"/>
</g>
<!-- Node19&#45;&gt;Node11 -->
<g id="edge31" class="edge">
<title>Node19&#45;&gt;Node11</title>
<path fill="none" stroke="#63b8ff" d="M966.24,-229.26C872.9,-227.8 616.94,-220.57 541.65,-185 516.5,-173.12 462.98,-113.07 437.17,-83.03"/>
<polygon fill="#63b8ff" stroke="#63b8ff" points="439.27,-81.1 430.11,-75.76 433.94,-85.64 439.27,-81.1"/>
</g>
<!-- Node20 -->
<g id="node20" class="node">
<title>Node20</title>
<g id="a_node20"><a xlink:href="Ioss__EntityType_8h.html" target="_top" xlink:title=" ">
<polygon fill="white" stroke="#666666" points="716.03,-185 621.28,-185 621.28,-165.75 716.03,-165.75 716.03,-185"/>
<text text-anchor="middle" x="668.65" y="-171.5" font-family="Helvetica,sans-Serif" font-size="10.00">Ioss_EntityType.h</text>
</a>
</g>
</g>
<!-- Node19&#45;&gt;Node20 -->
<g id="edge34" class="edge">
<title>Node19&#45;&gt;Node20</title>
<path fill="none" stroke="#63b8ff" d="M966.06,-224.08C909.47,-215 796.46,-196.87 727.21,-185.77"/>
<polygon fill="#63b8ff" stroke="#63b8ff" points="727.91,-182.17 717.48,-184.05 726.8,-189.09 727.91,-182.17"/>
</g>
<!-- Node21 -->
<g id="node21" class="node">
<title>Node21</title>
<g id="a_node21"><a xlink:href="Ioss__Field_8h.html" target="_top" xlink:title=" ">
<polygon fill="white" stroke="#666666" points="1205.28,-129.75 1136.03,-129.75 1136.03,-110.5 1205.28,-110.5 1205.28,-129.75"/>
<text text-anchor="middle" x="1170.65" y="-116.25" font-family="Helvetica,sans-Serif" font-size="10.00">Ioss_Field.h</text>
</a>
</g>
</g>
<!-- Node19&#45;&gt;Node21 -->
<g id="edge35" class="edge">
<title>Node19&#45;&gt;Node21</title>
<path fill="none" stroke="#63b8ff" d="M1035.35,-227.58C1067.97,-223.88 1116.22,-213.58 1146.65,-185 1159.07,-173.34 1165.11,-154.64 1168.02,-140.47"/>
<polygon fill="#63b8ff" stroke="#63b8ff" points="1171.59,-141.34 1169.8,-130.9 1164.69,-140.18 1171.59,-141.34"/>
</g>
<!-- Node22 -->
<g id="node22" class="node">
<title>Node22</title>
<g id="a_node22"><a xlink:href="Ioss__Property_8h.html" target="_top" xlink:title=" ">
<polygon fill="white" stroke="#666666" points="667.4,-129.75 583.9,-129.75 583.9,-110.5 667.4,-110.5 667.4,-129.75"/>
<text text-anchor="middle" x="625.65" y="-116.25" font-family="Helvetica,sans-Serif" font-size="10.00">Ioss_Property.h</text>
</a>
</g>
</g>
<!-- Node19&#45;&gt;Node22 -->
<g id="edge41" class="edge">
<title>Node19&#45;&gt;Node22</title>
<path fill="none" stroke="#63b8ff" d="M966.02,-228.22C875.28,-224.2 636.01,-211.19 612.65,-185 601.73,-172.75 607.36,-153.88 614.29,-139.82"/>
<polygon fill="#63b8ff" stroke="#63b8ff" points="617.83,-141.65 619.59,-131.2 611.7,-138.27 617.83,-141.65"/>
</g>
<!-- Node23 -->
<g id="node23" class="node">
<title>Node23</title>
<g id="a_node23"><a xlink:href="Ioss__Sort_8h.html" target="_top" xlink:title=" ">
<polygon fill="white" stroke="#666666" points="1591.78,-185 1525.53,-185 1525.53,-165.75 1591.78,-165.75 1591.78,-185"/>
<text text-anchor="middle" x="1558.65" y="-171.5" font-family="Helvetica,sans-Serif" font-size="10.00">Ioss_Sort.h</text>
</a>
</g>
</g>
<!-- Node19&#45;&gt;Node23 -->
<g id="edge46" class="edge">
<title>Node19&#45;&gt;Node23</title>
<path fill="none" stroke="#63b8ff" d="M1035.14,-226.33C1131.98,-217.09 1406.39,-190.91 1514.29,-180.61"/>
<polygon fill="#63b8ff" stroke="#63b8ff" points="1514.48,-184.01 1524.11,-179.58 1513.82,-177.04 1514.48,-184.01"/>
</g>
<!-- Node25 -->
<g id="node25" class="node">
<title>Node25</title>
<g id="a_node25"><a xlink:title=" ">
<polygon fill="#e0e0e0" stroke="#999999" points="1489.53,-74.5 1433.78,-74.5 1433.78,-55.25 1489.53,-55.25 1489.53,-74.5"/>
<text text-anchor="middle" x="1461.65" y="-61" font-family="Helvetica,sans-Serif" font-size="10.00">algorithm</text>
</a>
</g>
</g>
<!-- Node19&#45;&gt;Node25 -->
<g id="edge55" class="edge">
<title>Node19&#45;&gt;Node25</title>
<path fill="none" stroke="#63b8ff" d="M1035.1,-225.13C1079.27,-218.82 1157.88,-205.72 1222.65,-185 1242.6,-178.62 1246.29,-173.71 1265.65,-165.75 1307.8,-148.43 1320.9,-150.13 1361.65,-129.75 1390.32,-115.42 1421.07,-94.92 1440.78,-81.04"/>
<polygon fill="#63b8ff" stroke="#63b8ff" points="1442.41,-83.47 1448.52,-74.82 1438.35,-77.77 1442.41,-83.47"/>
</g>
<!-- Node19&#45;&gt;Node29 -->
<g id="edge56" class="edge">
<title>Node19&#45;&gt;Node29</title>
<path fill="none" stroke="#63b8ff" d="M1035.25,-224.29C1085.17,-216.45 1180.25,-201.01 1260.65,-185 1261.61,-184.81 1262.58,-184.61 1263.56,-184.41"/>
<polygon fill="#63b8ff" stroke="#63b8ff" points="1264.12,-187.66 1273.16,-182.13 1262.65,-180.81 1264.12,-187.66"/>
</g>
<!-- Node30 -->
<g id="node30" class="node">
<title>Node30</title>
<g id="a_node30"><a xlink:title=" ">
<polygon fill="#e0e0e0" stroke="#999999" points="777.15,-185 734.15,-185 734.15,-165.75 777.15,-165.75 777.15,-185"/>
<text text-anchor="middle" x="755.65" y="-171.5" font-family="Helvetica,sans-Serif" font-size="10.00">cmath</text>
</a>
</g>
</g>
<!-- Node19&#45;&gt;Node30 -->
<g id="edge57" class="edge">
<title>Node19&#45;&gt;Node30</title>
<path fill="none" stroke="#63b8ff" d="M966.03,-223.13C925.65,-215.4 856.69,-201.71 788.17,-185.24"/>
<polygon fill="#63b8ff" stroke="#63b8ff" points="789.17,-181.64 778.62,-182.68 787.52,-188.44 789.17,-181.64"/>
</g>
<!-- Node31 -->
<g id="node31" class="node">
<title>Node31</title>
<g id="a_node31"><a xlink:title=" ">
<polygon fill="#e0e0e0" stroke="#999999" points="839.9,-185 795.4,-185 795.4,-165.75 839.9,-165.75 839.9,-185"/>
<text text-anchor="middle" x="817.65" y="-171.5" font-family="Helvetica,sans-Serif" font-size="10.00">cstdlib</text>
</a>
</g>
</g>
<!-- Node19&#45;&gt;Node31 -->
<g id="edge60" class="edge">
<title>Node19&#45;&gt;Node31</title>
<path fill="none" stroke="#63b8ff" d="M969.61,-220.59C936.48,-210.95 884.22,-195.75 850.44,-185.92"/>
<polygon fill="#63b8ff" stroke="#63b8ff" points="851.75,-182.36 841.17,-182.93 849.8,-189.08 851.75,-182.36"/>
</g>
<!-- Node32 -->
<g id="node32" class="node">
<title>Node32</title>
<g id="a_node32"><a xlink:title=" ">
<polygon fill="#e0e0e0" stroke="#999999" points="919.15,-185 858.15,-185 858.15,-165.75 919.15,-165.75 919.15,-185"/>
<text text-anchor="middle" x="888.65" y="-171.5" font-family="Helvetica,sans-Serif" font-size="10.00">filesystem</text>
</a>
</g>
</g>
<!-- Node19&#45;&gt;Node32 -->
<g id="edge61" class="edge">
<title>Node19&#45;&gt;Node32</title>
<path fill="none" stroke="#63b8ff" d="M981.65,-220.59C964.12,-212.25 937.81,-199.75 917.65,-190.16"/>
<polygon fill="#63b8ff" stroke="#63b8ff" points="919.28,-186.59 908.75,-185.45 916.27,-192.91 919.28,-186.59"/>
</g>
<!-- Node33 -->
<g id="node33" class="node">
<title>Node33</title>
<g id="a_node33"><a xlink:title=" ">
<polygon fill="#e0e0e0" stroke="#999999" points="990.4,-185 936.9,-185 936.9,-165.75 990.4,-165.75 990.4,-185"/>
<text text-anchor="middle" x="963.65" y="-171.5" font-family="Helvetica,sans-Serif" font-size="10.00">iostream</text>
</a>
</g>
</g>
<!-- Node19&#45;&gt;Node33 -->
<g id="edge62" class="edge">
<title>Node19&#45;&gt;Node33</title>
<path fill="none" stroke="#63b8ff" d="M994.54,-220.83C989.54,-213.63 982.3,-203.21 976.08,-194.26"/>
<polygon fill="#63b8ff" stroke="#63b8ff" points="978.48,-192.57 969.9,-186.36 972.73,-196.57 978.48,-192.57"/>
</g>
<!-- Node34 -->
<g id="node34" class="node">
<title>Node34</title>
<g id="a_node34"><a xlink:title=" ">
<polygon fill="#e0e0e0" stroke="#999999" points="1067.03,-185 1008.28,-185 1008.28,-165.75 1067.03,-165.75 1067.03,-185"/>
<text text-anchor="middle" x="1037.65" y="-171.5" font-family="Helvetica,sans-Serif" font-size="10.00">stdexcept</text>
</a>
</g>
</g>
<!-- Node19&#45;&gt;Node34 -->
<g id="edge63" class="edge">
<title>Node19&#45;&gt;Node34</title>
<path fill="none" stroke="#63b8ff" d="M1006.76,-220.83C1011.77,-213.63 1019.01,-203.21 1025.23,-194.26"/>
<polygon fill="#63b8ff" stroke="#63b8ff" points="1028.58,-196.57 1031.41,-186.36 1022.83,-192.57 1028.58,-196.57"/>
</g>
<!-- Node21&#45;&gt;Node2 -->
<g id="edge37" class="edge">
<title>Node21&#45;&gt;Node2</title>
<path fill="none" stroke="#63b8ff" d="M1159.97,-110.09C1150.77,-102.32 1137.29,-90.92 1126.32,-81.65"/>
<polygon fill="#63b8ff" stroke="#63b8ff" points="1129.08,-78.56 1119.18,-74.77 1124.56,-83.9 1129.08,-78.56"/>
</g>
<!-- Node21&#45;&gt;Node4 -->
<g id="edge38" class="edge">
<title>Node21&#45;&gt;Node4</title>
<path fill="none" stroke="#63b8ff" d="M1203.36,-110.1C1251.56,-96.98 1344.61,-72.35 1424.65,-55.25 1501.94,-38.74 1593.45,-23.7 1642.46,-16.01"/>
<polygon fill="#63b8ff" stroke="#63b8ff" points="1642.78,-19.35 1652.12,-14.35 1641.7,-12.43 1642.78,-19.35"/>
</g>
<!-- Node21&#45;&gt;Node6 -->
<g id="edge39" class="edge">
<title>Node21&#45;&gt;Node6</title>
<path fill="none" stroke="#63b8ff" d="M1135.66,-113.14C1023.46,-93.93 673.77,-34.09 567.56,-15.91"/>
<polygon fill="#63b8ff" stroke="#63b8ff" points="568.39,-12.33 557.94,-14.1 567.21,-19.23 568.39,-12.33"/>
</g>
<!-- Node21&#45;&gt;Node7 -->
<g id="edge40" class="edge">
<title>Node21&#45;&gt;Node7</title>
<path fill="none" stroke="#63b8ff" d="M1176.89,-110.1C1185.82,-97.4 1203.01,-73.74 1219.65,-55.25 1228.67,-45.24 1239.53,-34.83 1248.54,-26.58"/>
<polygon fill="#63b8ff" stroke="#63b8ff" points="1250.4,-29.72 1255.49,-20.43 1245.72,-24.52 1250.4,-29.72"/>
</g>
<!-- Node21&#45;&gt;Node11 -->
<g id="edge36" class="edge">
<title>Node21&#45;&gt;Node11</title>
<path fill="none" stroke="#63b8ff" d="M1135.58,-116.63C1014.09,-107.98 611.08,-79.29 471.08,-69.32"/>
<polygon fill="#63b8ff" stroke="#63b8ff" points="471.52,-65.77 461.29,-68.55 471.02,-72.76 471.52,-65.77"/>
</g>
<!-- Node22&#45;&gt;Node5 -->
<g id="edge43" class="edge">
<title>Node22&#45;&gt;Node5</title>
<path fill="none" stroke="#63b8ff" d="M652.3,-110.06C710.34,-90.32 848.04,-43.49 911.53,-21.89"/>
<polygon fill="#63b8ff" stroke="#63b8ff" points="912.44,-24.94 920.78,-18.41 910.18,-18.31 912.44,-24.94"/>
</g>
<!-- Node22&#45;&gt;Node6 -->
<g id="edge44" class="edge">
<title>Node22&#45;&gt;Node6</title>
<path fill="none" stroke="#63b8ff" d="M618.37,-110.25C603.64,-92.28 570.07,-51.36 550.85,-27.94"/>
<polygon fill="#63b8ff" stroke="#63b8ff" points="553.09,-26.14 544.04,-20.63 547.67,-30.58 553.09,-26.14"/>
</g>
<!-- Node22&#45;&gt;Node7 -->
<g id="edge45" class="edge">
<title>Node22&#45;&gt;Node7</title>
<path fill="none" stroke="#63b8ff" d="M667.51,-112.94C783.37,-95.73 1107.59,-46.84 1234.22,-19.57"/>
<polygon fill="#63b8ff" stroke="#63b8ff" points="1234.76,-22.81 1243.78,-17.24 1233.26,-15.97 1234.76,-22.81"/>
</g>
<!-- Node22&#45;&gt;Node11 -->
<g id="edge42" class="edge">
<title>Node22&#45;&gt;Node11</title>
<path fill="none" stroke="#63b8ff" d="M591.22,-110.09C557.24,-101.18 505.12,-87.51 467.84,-77.73"/>
<polygon fill="#63b8ff" stroke="#63b8ff" points="468.82,-74.1 458.26,-74.95 467.04,-80.88 468.82,-74.1"/>
</g>
<!-- Node23&#45;&gt;Node4 -->
<g id="edge53" class="edge">
<title>Node23&#45;&gt;Node4</title>
<path fill="none" stroke="#63b8ff" d="M1591.91,-169.94C1641.32,-161.37 1732.57,-137.44 1772.65,-74.5 1790.14,-47.05 1746.37,-28.58 1712.57,-18.83"/>
<polygon fill="#63b8ff" stroke="#63b8ff" points="1713.6,-15.21 1703.03,-15.97 1711.77,-21.97 1713.6,-15.21"/>
</g>
<!-- Node23&#45;&gt;Node7 -->
<g id="edge54" class="edge">
<title>Node23&#45;&gt;Node7</title>
<path fill="none" stroke="#63b8ff" d="M1556.97,-165.48C1552.22,-143.04 1536.53,-83.87 1498.65,-55.25 1467.66,-31.83 1355.48,-18.63 1299.25,-13.36"/>
<polygon fill="#63b8ff" stroke="#63b8ff" points="1299.75,-9.8 1289.47,-12.38 1299.12,-16.77 1299.75,-9.8"/>
</g>
<!-- Node24 -->
<g id="node24" class="node">
<title>Node24</title>
<g id="a_node24"><a xlink:href="pdqsort_8h.html" target="_top" xlink:title=" ">
<polygon fill="white" stroke="#666666" points="1627.9,-129.75 1571.4,-129.75 1571.4,-110.5 1627.9,-110.5 1627.9,-129.75"/>
<text text-anchor="middle" x="1599.65" y="-116.25" font-family="Helvetica,sans-Serif" font-size="10.00">pdqsort.h</text>
</a>
</g>
</g>
<!-- Node23&#45;&gt;Node24 -->
<g id="edge47" class="edge">
<title>Node23&#45;&gt;Node24</title>
<path fill="none" stroke="#63b8ff" d="M1565.42,-165.58C1571.03,-158.3 1579.17,-147.73 1586.1,-138.73"/>
<polygon fill="#63b8ff" stroke="#63b8ff" points="1589.41,-141.17 1592.74,-131.11 1583.86,-136.9 1589.41,-141.17"/>
</g>
<!-- Node24&#45;&gt;Node4 -->
<g id="edge49" class="edge">
<title>Node24&#45;&gt;Node4</title>
<path fill="none" stroke="#63b8ff" d="M1617.05,-110.02C1630.28,-102.26 1647.97,-89.91 1658.65,-74.5 1667.83,-61.26 1672.65,-43.53 1675.13,-30.11"/>
<polygon fill="#63b8ff" stroke="#63b8ff" points="1678.68,-31.07 1676.76,-20.65 1671.76,-29.99 1678.68,-31.07"/>
</g>
<!-- Node24&#45;&gt;Node25 -->
<g id="edge48" class="edge">
<title>Node24&#45;&gt;Node25</title>
<path fill="none" stroke="#63b8ff" d="M1576.24,-110.09C1554.04,-101.52 1520.43,-88.56 1495.35,-78.88"/>
<polygon fill="#63b8ff" stroke="#63b8ff" points="1496.77,-75.29 1486.18,-74.95 1494.25,-81.82 1496.77,-75.29"/>
</g>
<!-- Node24&#45;&gt;Node26 -->
<g id="edge50" class="edge">
<title>Node24&#45;&gt;Node26</title>
<path fill="none" stroke="#63b8ff" d="M1622.55,-110.09C1644.28,-101.52 1677.15,-88.56 1701.69,-78.88"/>
<polygon fill="#63b8ff" stroke="#63b8ff" points="1702.62,-81.88 1710.64,-74.95 1700.05,-75.37 1702.62,-81.88"/>
</g>
<!-- Node27 -->
<g id="node27" class="node">
<title>Node27</title>
<g id="a_node27"><a xlink:title=" ">
<polygon fill="#e0e0e0" stroke="#999999" points="1649.65,-74.5 1603.65,-74.5 1603.65,-55.25 1649.65,-55.25 1649.65,-74.5"/>
<text text-anchor="middle" x="1626.65" y="-61" font-family="Helvetica,sans-Serif" font-size="10.00">iterator</text>
</a>
</g>
</g>
<!-- Node24&#45;&gt;Node27 -->
<g id="edge51" class="edge">
<title>Node24&#45;&gt;Node27</title>
<path fill="none" stroke="#63b8ff" d="M1604.11,-110.33C1607.65,-103.36 1612.71,-93.37 1617.15,-84.62"/>
<polygon fill="#63b8ff" stroke="#63b8ff" points="1620.7,-86.36 1622.1,-75.86 1614.45,-83.2 1620.7,-86.36"/>
</g>
<!-- Node28 -->
<g id="node28" class="node">
<title>Node28</title>
<g id="a_node28"><a xlink:title=" ">
<polygon fill="#e0e0e0" stroke="#999999" points="1585.28,-74.5 1546.03,-74.5 1546.03,-55.25 1585.28,-55.25 1585.28,-74.5"/>
<text text-anchor="middle" x="1565.65" y="-61" font-family="Helvetica,sans-Serif" font-size="10.00">utility</text>
</a>
</g>
</g>
<!-- Node24&#45;&gt;Node28 -->
<g id="edge52" class="edge">
<title>Node24&#45;&gt;Node28</title>
<path fill="none" stroke="#63b8ff" d="M1594.04,-110.33C1589.49,-103.21 1582.93,-92.93 1577.26,-84.05"/>
<polygon fill="#63b8ff" stroke="#63b8ff" points="1579.72,-82.4 1571.39,-75.86 1573.82,-86.17 1579.72,-82.4"/>
</g>
<!-- Node36&#45;&gt;Node2 -->
<g id="edge74" class="edge">
<title>Node36&#45;&gt;Node2</title>
<path fill="none" stroke="#63b8ff" d="M300.32,-221.22C442.04,-193.95 889.27,-107.9 1049.68,-77.03"/>
<polygon fill="#63b8ff" stroke="#63b8ff" points="1050.12,-80.32 1059.28,-74.99 1048.79,-73.44 1050.12,-80.32"/>
</g>
<!-- Node36&#45;&gt;Node10 -->
<g id="edge75" class="edge">
<title>Node36&#45;&gt;Node10</title>
<path fill="none" stroke="#63b8ff" d="M247.15,-220.59C239.14,-212.97 227.47,-201.87 217.82,-192.7"/>
<polygon fill="#63b8ff" stroke="#63b8ff" points="220.67,-190.63 211.01,-186.27 215.85,-195.7 220.67,-190.63"/>
</g>
<!-- Node36&#45;&gt;Node11 -->
<g id="edge73" class="edge">
<title>Node36&#45;&gt;Node11</title>
<path fill="none" stroke="#63b8ff" d="M265.58,-220.82C292.26,-194.5 371.72,-116.12 406.29,-82.02"/>
<polygon fill="#63b8ff" stroke="#63b8ff" points="408.02,-85.24 412.68,-75.72 403.11,-80.25 408.02,-85.24"/>
</g>
</g>
</svg>
