<?xml version="1.0" encoding="UTF-8" standalone="no"?>
<!DOCTYPE svg PUBLIC "-//W3C//DTD SVG 1.1//EN"
 "http://www.w3.org/Graphics/SVG/1.1/DTD/svg11.dtd">
<!-- Generated by graphviz version 2.50.0 (20211204.2007)
 -->
<!-- Title: src/Ioss_IOFactory.C Pages: 1 -->
<svg width="1740pt" height="364pt"
 viewBox="0.00 0.00 1740.00 364.00" xmlns="http://www.w3.org/2000/svg" xmlns:xlink="http://www.w3.org/1999/xlink">
<g id="graph0" class="graph" transform="scale(1 1) rotate(0) translate(4 360)">
<title>src/Ioss_IOFactory.C</title>
<polygon fill="white" stroke="transparent" points="-4,4 -4,-360 1736,-360 1736,4 -4,4"/>
<!-- Node1 -->
<g id="node1" class="node">
<title>Node1</title>
<g id="a_node1"><a xlink:title=" ">
<polygon fill="#bfbfbf" stroke="black" points="1274,-336.5 1274,-355.5 1384,-355.5 1384,-336.5 1274,-336.5"/>
<text text-anchor="middle" x="1329" y="-343.5" font-family="Helvetica,sans-Serif" font-size="10.00">src/Ioss_IOFactory.C</text>
</a>
</g>
</g>
<!-- Node2 -->
<g id="node2" class="node">
<title>Node2</title>
<g id="a_node2"><a xlink:href="Ioss__DBUsage_8h.html" target="_top" xlink:title=" ">
<polygon fill="white" stroke="black" points="0,-224.5 0,-243.5 92,-243.5 92,-224.5 0,-224.5"/>
<text text-anchor="middle" x="46" y="-231.5" font-family="Helvetica,sans-Serif" font-size="10.00">Ioss_DBUsage.h</text>
</a>
</g>
</g>
<!-- Node1&#45;&gt;Node2 -->
<g id="edge1" class="edge">
<title>Node1&#45;&gt;Node2</title>
<path fill="none" stroke="midnightblue" d="M1273.99,-345.5C1125.53,-346.21 704.56,-343.85 358,-300 260.45,-287.66 147.98,-261.13 88.31,-246.05"/>
<polygon fill="midnightblue" stroke="midnightblue" points="89.06,-242.63 78.5,-243.56 87.33,-249.42 89.06,-242.63"/>
</g>
<!-- Node3 -->
<g id="node3" class="node">
<title>Node3</title>
<g id="a_node3"><a xlink:href="Ioss__IOFactory_8h.html" target="_top" xlink:title=" ">
<polygon fill="white" stroke="black" points="367.5,-280.5 367.5,-299.5 458.5,-299.5 458.5,-280.5 367.5,-280.5"/>
<text text-anchor="middle" x="413" y="-287.5" font-family="Helvetica,sans-Serif" font-size="10.00">Ioss_IOFactory.h</text>
</a>
</g>
</g>
<!-- Node1&#45;&gt;Node3 -->
<g id="edge2" class="edge">
<title>Node1&#45;&gt;Node3</title>
<path fill="none" stroke="midnightblue" d="M1273.76,-341.74C1110.73,-332.13 632.77,-303.96 468.9,-294.3"/>
<polygon fill="midnightblue" stroke="midnightblue" points="468.75,-290.78 458.56,-293.69 468.34,-297.77 468.75,-290.78"/>
</g>
<!-- Node6 -->
<g id="node6" class="node">
<title>Node6</title>
<g id="a_node6"><a xlink:title=" ">
<polygon fill="white" stroke="#bfbfbf" points="1058.5,-0.5 1058.5,-19.5 1107.5,-19.5 1107.5,-0.5 1058.5,-0.5"/>
<text text-anchor="middle" x="1083" y="-7.5" font-family="Helvetica,sans-Serif" font-size="10.00">cstddef</text>
</a>
</g>
</g>
<!-- Node1&#45;&gt;Node6 -->
<g id="edge61" class="edge">
<title>Node1&#45;&gt;Node6</title>
<path fill="none" stroke="midnightblue" d="M1334.7,-336.29C1345.97,-318.2 1370,-274.95 1370,-235 1370,-235 1370,-235 1370,-177 1370,-109.98 1338.05,-89.51 1280,-56 1228.57,-26.31 1159.03,-16.21 1117.81,-12.77"/>
<polygon fill="midnightblue" stroke="midnightblue" points="1117.95,-9.27 1107.72,-12.02 1117.43,-16.26 1117.95,-9.27"/>
</g>
<!-- Node8 -->
<g id="node8" class="node">
<title>Node8</title>
<g id="a_node8"><a xlink:title=" ">
<polygon fill="white" stroke="#bfbfbf" points="704.5,-0.5 704.5,-19.5 745.5,-19.5 745.5,-0.5 704.5,-0.5"/>
<text text-anchor="middle" x="725" y="-7.5" font-family="Helvetica,sans-Serif" font-size="10.00">string</text>
</a>
</g>
</g>
<!-- Node1&#45;&gt;Node8 -->
<g id="edge66" class="edge">
<title>Node1&#45;&gt;Node8</title>
<path fill="none" stroke="midnightblue" d="M1326.48,-336.06C1316.12,-301.09 1273.38,-172.5 1189,-112 1118.11,-61.17 847.35,-25.36 755.61,-14.47"/>
<polygon fill="midnightblue" stroke="midnightblue" points="755.91,-10.98 745.57,-13.3 755.1,-17.94 755.91,-10.98"/>
</g>
<!-- Node12 -->
<g id="node12" class="node">
<title>Node12</title>
<g id="a_node12"><a xlink:href="Ioss__ParallelUtils_8h.html" target="_top" xlink:title=" ">
<polygon fill="white" stroke="black" points="541.5,-224.5 541.5,-243.5 642.5,-243.5 642.5,-224.5 541.5,-224.5"/>
<text text-anchor="middle" x="592" y="-231.5" font-family="Helvetica,sans-Serif" font-size="10.00">Ioss_ParallelUtils.h</text>
</a>
</g>
</g>
<!-- Node1&#45;&gt;Node12 -->
<g id="edge58" class="edge">
<title>Node1&#45;&gt;Node12</title>
<path fill="none" stroke="midnightblue" d="M1273.77,-337.86C1208.18,-329.29 1095.52,-314.29 999,-300 876.05,-281.8 732.57,-258.37 653.02,-245.19"/>
<polygon fill="midnightblue" stroke="midnightblue" points="653.14,-241.66 642.7,-243.48 652,-248.57 653.14,-241.66"/>
</g>
<!-- Node13 -->
<g id="node13" class="node">
<title>Node13</title>
<g id="a_node13"><a xlink:href="Ioss__Utils_8h.html" target="_top" xlink:title=" ">
<polygon fill="white" stroke="black" points="870.5,-168.5 870.5,-187.5 939.5,-187.5 939.5,-168.5 870.5,-168.5"/>
<text text-anchor="middle" x="905" y="-175.5" font-family="Helvetica,sans-Serif" font-size="10.00">Ioss_Utils.h</text>
</a>
</g>
</g>
<!-- Node1&#45;&gt;Node13 -->
<g id="edge59" class="edge">
<title>Node1&#45;&gt;Node13</title>
<path fill="none" stroke="midnightblue" d="M1307.1,-336.42C1237.02,-308.99 1018.1,-223.28 936.27,-191.24"/>
<polygon fill="midnightblue" stroke="midnightblue" points="937.36,-187.91 926.77,-187.52 934.81,-194.43 937.36,-187.91"/>
</g>
<!-- Node21 -->
<g id="node21" class="node">
<title>Node21</title>
<g id="a_node21"><a xlink:title=" ">
<polygon fill="white" stroke="#bfbfbf" points="1468,-0.5 1468,-19.5 1508,-19.5 1508,-0.5 1468,-0.5"/>
<text text-anchor="middle" x="1488" y="-7.5" font-family="Helvetica,sans-Serif" font-size="10.00">utility</text>
</a>
</g>
</g>
<!-- Node1&#45;&gt;Node21 -->
<g id="edge67" class="edge">
<title>Node1&#45;&gt;Node21</title>
<path fill="none" stroke="midnightblue" d="M1343.5,-336.34C1355.82,-328.31 1373.18,-315.31 1384,-300 1447.25,-210.5 1475.97,-78.44 1484.84,-29.84"/>
<polygon fill="midnightblue" stroke="midnightblue" points="1488.32,-30.28 1486.6,-19.82 1481.42,-29.07 1488.32,-30.28"/>
</g>
<!-- Node29 -->
<g id="node29" class="node">
<title>Node29</title>
<g id="a_node29"><a xlink:title=" ">
<polygon fill="white" stroke="#bfbfbf" points="919.5,-224.5 919.5,-243.5 954.5,-243.5 954.5,-224.5 919.5,-224.5"/>
<text text-anchor="middle" x="937" y="-231.5" font-family="Helvetica,sans-Serif" font-size="10.00">map</text>
</a>
</g>
</g>
<!-- Node1&#45;&gt;Node29 -->
<g id="edge63" class="edge">
<title>Node1&#45;&gt;Node29</title>
<path fill="none" stroke="midnightblue" d="M1273.9,-342.73C1215.09,-338.86 1119.99,-328.37 1043,-300 1010,-287.84 976.08,-264.84 955.77,-249.71"/>
<polygon fill="midnightblue" stroke="midnightblue" points="957.78,-246.84 947.7,-243.58 953.54,-252.42 957.78,-246.84"/>
</g>
<!-- Node30 -->
<g id="node30" class="node">
<title>Node30</title>
<g id="a_node30"><a xlink:href="Ioss__Version_8h.html" target="_top" xlink:title=" ">
<polygon fill="white" stroke="black" points="1436,-280.5 1436,-299.5 1518,-299.5 1518,-280.5 1436,-280.5"/>
<text text-anchor="middle" x="1477" y="-287.5" font-family="Helvetica,sans-Serif" font-size="10.00">Ioss_Version.h</text>
</a>
</g>
</g>
<!-- Node1&#45;&gt;Node30 -->
<g id="edge60" class="edge">
<title>Node1&#45;&gt;Node30</title>
<path fill="none" stroke="midnightblue" d="M1352.45,-336.44C1377.13,-327.44 1416.19,-313.19 1443.98,-303.05"/>
<polygon fill="midnightblue" stroke="midnightblue" points="1445.46,-306.23 1453.66,-299.52 1443.06,-299.66 1445.46,-306.23"/>
</g>
<!-- Node31 -->
<g id="node31" class="node">
<title>Node31</title>
<g id="a_node31"><a xlink:title=" ">
<polygon fill="white" stroke="#bfbfbf" points="1536.5,-280.5 1536.5,-299.5 1613.5,-299.5 1613.5,-280.5 1536.5,-280.5"/>
<text text-anchor="middle" x="1575" y="-287.5" font-family="Helvetica,sans-Serif" font-size="10.00">fmt/ostream.h</text>
</a>
</g>
</g>
<!-- Node1&#45;&gt;Node31 -->
<g id="edge62" class="edge">
<title>Node1&#45;&gt;Node31</title>
<path fill="none" stroke="midnightblue" d="M1367.98,-336.44C1410.89,-327.02 1479.95,-311.87 1526.37,-301.68"/>
<polygon fill="midnightblue" stroke="midnightblue" points="1527.19,-305.08 1536.2,-299.52 1525.69,-298.24 1527.19,-305.08"/>
</g>
<!-- Node32 -->
<g id="node32" class="node">
<title>Node32</title>
<g id="a_node32"><a xlink:title=" ">
<polygon fill="white" stroke="#bfbfbf" points="1632,-280.5 1632,-299.5 1684,-299.5 1684,-280.5 1632,-280.5"/>
<text text-anchor="middle" x="1658" y="-287.5" font-family="Helvetica,sans-Serif" font-size="10.00">ostream</text>
</a>
</g>
</g>
<!-- Node1&#45;&gt;Node32 -->
<g id="edge64" class="edge">
<title>Node1&#45;&gt;Node32</title>
<path fill="none" stroke="midnightblue" d="M1384.02,-338.25C1441.16,-330.86 1533.33,-317.9 1621.76,-300.09"/>
<polygon fill="midnightblue" stroke="midnightblue" points="1622.59,-303.49 1631.69,-298.06 1621.19,-296.63 1622.59,-303.49"/>
</g>
<!-- Node33 -->
<g id="node33" class="node">
<title>Node33</title>
<g id="a_node33"><a xlink:title=" ">
<polygon fill="white" stroke="#bfbfbf" points="1702,-280.5 1702,-299.5 1732,-299.5 1732,-280.5 1702,-280.5"/>
<text text-anchor="middle" x="1717" y="-287.5" font-family="Helvetica,sans-Serif" font-size="10.00">set</text>
</a>
</g>
</g>
<!-- Node1&#45;&gt;Node33 -->
<g id="edge65" class="edge">
<title>Node1&#45;&gt;Node33</title>
<path fill="none" stroke="midnightblue" d="M1384.31,-342.22C1454.25,-337.82 1578.28,-327.03 1692.02,-299.7"/>
<polygon fill="midnightblue" stroke="midnightblue" points="1693.06,-303.05 1701.93,-297.26 1691.39,-296.25 1693.06,-303.05"/>
</g>
<!-- Node3&#45;&gt;Node2 -->
<g id="edge12" class="edge">
<title>Node3&#45;&gt;Node2</title>
<path fill="none" stroke="midnightblue" d="M367.48,-282.38C307.53,-273.64 198.85,-257.77 106,-244 104.74,-243.81 103.46,-243.62 102.18,-243.43"/>
<polygon fill="midnightblue" stroke="midnightblue" points="102.59,-239.96 92.19,-241.94 101.56,-246.88 102.59,-239.96"/>
</g>
<!-- Node4 -->
<g id="node4" class="node">
<title>Node4</title>
<g id="a_node4"><a xlink:href="Ioss__CodeTypes_8h.html" target="_top" xlink:title=" ">
<polygon fill="white" stroke="black" points="186,-56.5 186,-75.5 284,-75.5 284,-56.5 186,-56.5"/>
<text text-anchor="middle" x="235" y="-63.5" font-family="Helvetica,sans-Serif" font-size="10.00">Ioss_CodeTypes.h</text>
</a>
</g>
</g>
<!-- Node3&#45;&gt;Node4 -->
<g id="edge3" class="edge">
<title>Node3&#45;&gt;Node4</title>
<path fill="none" stroke="midnightblue" d="M404.99,-280.47C383.44,-257.37 322.87,-191.36 278,-132 266.18,-116.37 253.97,-97.62 245.6,-84.28"/>
<polygon fill="midnightblue" stroke="midnightblue" points="248.48,-82.3 240.24,-75.65 242.54,-85.99 248.48,-82.3"/>
</g>
<!-- Node3&#45;&gt;Node8 -->
<g id="edge11" class="edge">
<title>Node3&#45;&gt;Node8</title>
<path fill="none" stroke="midnightblue" d="M417.29,-280.45C432.07,-251.91 483.83,-159.02 554,-112 601.67,-80.06 631.08,-109.05 678,-76 695.21,-63.88 708.48,-43.42 716.46,-28.69"/>
<polygon fill="midnightblue" stroke="midnightblue" points="719.68,-30.07 721.13,-19.58 713.45,-26.88 719.68,-30.07"/>
</g>
<!-- Node9 -->
<g id="node9" class="node">
<title>Node9</title>
<g id="a_node9"><a xlink:title=" ">
<polygon fill="white" stroke="#bfbfbf" points="418,-0.5 418,-19.5 462,-19.5 462,-0.5 418,-0.5"/>
<text text-anchor="middle" x="440" y="-7.5" font-family="Helvetica,sans-Serif" font-size="10.00">vector</text>
</a>
</g>
</g>
<!-- Node3&#45;&gt;Node9 -->
<g id="edge57" class="edge">
<title>Node3&#45;&gt;Node9</title>
<path fill="none" stroke="midnightblue" d="M367.22,-281.59C284.81,-266.96 120,-231.16 120,-179 120,-179 120,-179 120,-121 120,-87.31 131.01,-74.75 159,-56 247.88,3.54 291.71,-38.97 397,-20 400.48,-19.37 404.12,-18.68 407.73,-17.96"/>
<polygon fill="midnightblue" stroke="midnightblue" points="408.63,-21.35 417.73,-15.91 407.23,-14.49 408.63,-21.35"/>
</g>
<!-- Node3&#45;&gt;Node12 -->
<g id="edge13" class="edge">
<title>Node3&#45;&gt;Node12</title>
<path fill="none" stroke="midnightblue" d="M441.36,-280.44C471.74,-271.28 520.11,-256.69 553.82,-246.52"/>
<polygon fill="midnightblue" stroke="midnightblue" points="555.21,-249.76 563.77,-243.52 553.18,-243.05 555.21,-249.76"/>
</g>
<!-- Node27 -->
<g id="node27" class="node">
<title>Node27</title>
<g id="a_node27"><a xlink:href="Ioss__PropertyManager_8h.html" target="_top" xlink:title=" ">
<polygon fill="white" stroke="black" points="360,-112.5 360,-131.5 482,-131.5 482,-112.5 360,-112.5"/>
<text text-anchor="middle" x="421" y="-119.5" font-family="Helvetica,sans-Serif" font-size="10.00">Ioss_PropertyManager.h</text>
</a>
</g>
</g>
<!-- Node3&#45;&gt;Node27 -->
<g id="edge49" class="edge">
<title>Node3&#45;&gt;Node27</title>
<path fill="none" stroke="midnightblue" d="M413.43,-280.08C414.69,-253.95 418.39,-177.21 420.1,-141.58"/>
<polygon fill="midnightblue" stroke="midnightblue" points="423.6,-141.73 420.59,-131.57 416.61,-141.39 423.6,-141.73"/>
</g>
<!-- Node3&#45;&gt;Node29 -->
<g id="edge56" class="edge">
<title>Node3&#45;&gt;Node29</title>
<path fill="none" stroke="midnightblue" d="M458.58,-284.3C564.37,-273.4 823.98,-246.65 909.32,-237.85"/>
<polygon fill="midnightblue" stroke="midnightblue" points="909.7,-241.33 919.29,-236.83 908.98,-234.37 909.7,-241.33"/>
</g>
<!-- Node5 -->
<g id="node5" class="node">
<title>Node5</title>
<g id="a_node5"><a xlink:title=" ">
<polygon fill="white" stroke="#bfbfbf" points="216,-0.5 216,-19.5 254,-19.5 254,-0.5 216,-0.5"/>
<text text-anchor="middle" x="235" y="-7.5" font-family="Helvetica,sans-Serif" font-size="10.00">array</text>
</a>
</g>
</g>
<!-- Node4&#45;&gt;Node5 -->
<g id="edge4" class="edge">
<title>Node4&#45;&gt;Node5</title>
<path fill="none" stroke="midnightblue" d="M235,-56.08C235,-49.01 235,-38.86 235,-29.99"/>
<polygon fill="midnightblue" stroke="midnightblue" points="238.5,-29.75 235,-19.75 231.5,-29.75 238.5,-29.75"/>
</g>
<!-- Node4&#45;&gt;Node6 -->
<g id="edge5" class="edge">
<title>Node4&#45;&gt;Node6</title>
<path fill="none" stroke="midnightblue" d="M284,-57.05C287.04,-56.67 290.06,-56.31 293,-56 583.86,-25.22 937.35,-14.51 1048.11,-11.78"/>
<polygon fill="midnightblue" stroke="midnightblue" points="1048.44,-15.27 1058.36,-11.53 1048.28,-8.27 1048.44,-15.27"/>
</g>
<!-- Node7 -->
<g id="node7" class="node">
<title>Node7</title>
<g id="a_node7"><a xlink:title=" ">
<polygon fill="white" stroke="#bfbfbf" points="575,-0.5 575,-19.5 621,-19.5 621,-0.5 575,-0.5"/>
<text text-anchor="middle" x="598" y="-7.5" font-family="Helvetica,sans-Serif" font-size="10.00">cstdint</text>
</a>
</g>
</g>
<!-- Node4&#45;&gt;Node7 -->
<g id="edge6" class="edge">
<title>Node4&#45;&gt;Node7</title>
<path fill="none" stroke="midnightblue" d="M284.04,-57.36C287.07,-56.9 290.08,-56.44 293,-56 391.69,-41.06 508.44,-24.01 564.57,-15.85"/>
<polygon fill="midnightblue" stroke="midnightblue" points="565.26,-19.29 574.65,-14.38 564.25,-12.36 565.26,-19.29"/>
</g>
<!-- Node4&#45;&gt;Node8 -->
<g id="edge7" class="edge">
<title>Node4&#45;&gt;Node8</title>
<path fill="none" stroke="midnightblue" d="M284.02,-57.22C287.06,-56.79 290.07,-56.38 293,-56 371.08,-45.88 609.22,-22.33 694.34,-13.99"/>
<polygon fill="midnightblue" stroke="midnightblue" points="694.79,-17.46 704.4,-13.01 694.11,-10.5 694.79,-17.46"/>
</g>
<!-- Node4&#45;&gt;Node9 -->
<g id="edge8" class="edge">
<title>Node4&#45;&gt;Node9</title>
<path fill="none" stroke="midnightblue" d="M267.48,-56.44C305.87,-46.33 369.36,-29.61 407.68,-19.51"/>
<polygon fill="midnightblue" stroke="midnightblue" points="409,-22.79 417.78,-16.85 407.22,-16.02 409,-22.79"/>
</g>
<!-- Node10 -->
<g id="node10" class="node">
<title>Node10</title>
<g id="a_node10"><a xlink:title=" ">
<polygon fill="white" stroke="#bfbfbf" points="272,-0.5 272,-19.5 388,-19.5 388,-0.5 272,-0.5"/>
<text text-anchor="middle" x="330" y="-7.5" font-family="Helvetica,sans-Serif" font-size="10.00">SEACASIoss_config.h</text>
</a>
</g>
</g>
<!-- Node4&#45;&gt;Node10 -->
<g id="edge9" class="edge">
<title>Node4&#45;&gt;Node10</title>
<path fill="none" stroke="midnightblue" d="M250.26,-56.32C265.22,-47.82 288.25,-34.73 305.73,-24.8"/>
<polygon fill="midnightblue" stroke="midnightblue" points="307.81,-27.64 314.77,-19.65 304.35,-21.55 307.81,-27.64"/>
</g>
<!-- Node11 -->
<g id="node11" class="node">
<title>Node11</title>
<g id="a_node11"><a xlink:title=" ">
<polygon fill="white" stroke="#bfbfbf" points="144.5,-0.5 144.5,-19.5 197.5,-19.5 197.5,-0.5 144.5,-0.5"/>
<text text-anchor="middle" x="171" y="-7.5" font-family="Helvetica,sans-Serif" font-size="10.00">complex</text>
</a>
</g>
</g>
<!-- Node4&#45;&gt;Node11 -->
<g id="edge10" class="edge">
<title>Node4&#45;&gt;Node11</title>
<path fill="none" stroke="midnightblue" d="M224.72,-56.32C215.16,-48.26 200.72,-36.08 189.22,-26.37"/>
<polygon fill="midnightblue" stroke="midnightblue" points="191.37,-23.61 181.47,-19.83 186.86,-28.96 191.37,-23.61"/>
</g>
<!-- Node12&#45;&gt;Node4 -->
<g id="edge14" class="edge">
<title>Node12&#45;&gt;Node4</title>
<path fill="none" stroke="midnightblue" d="M554.14,-224.5C497.73,-210.77 389.5,-180.26 308,-132 285.54,-118.7 263.72,-97.92 249.87,-83.45"/>
<polygon fill="midnightblue" stroke="midnightblue" points="252.08,-80.68 242.7,-75.76 246.96,-85.46 252.08,-80.68"/>
</g>
<!-- Node12&#45;&gt;Node6 -->
<g id="edge46" class="edge">
<title>Node12&#45;&gt;Node6</title>
<path fill="none" stroke="midnightblue" d="M642.76,-229.71C799.7,-219.04 1269.2,-183.05 1313,-132 1347.69,-91.57 1301.29,-84.98 1246,-56 1204.64,-34.32 1151.76,-22.21 1117.63,-16.15"/>
<polygon fill="midnightblue" stroke="midnightblue" points="1118.12,-12.68 1107.68,-14.46 1116.95,-19.58 1118.12,-12.68"/>
</g>
<!-- Node12&#45;&gt;Node8 -->
<g id="edge47" class="edge">
<title>Node12&#45;&gt;Node8</title>
<path fill="none" stroke="midnightblue" d="M585.96,-224.3C571.84,-202.77 539.83,-146.3 567,-112 610.37,-57.24 674.56,-129.06 720,-76 730.69,-63.52 730.86,-44.29 729.01,-29.98"/>
<polygon fill="midnightblue" stroke="midnightblue" points="732.4,-29.04 727.25,-19.78 725.5,-30.23 732.4,-29.04"/>
</g>
<!-- Node12&#45;&gt;Node9 -->
<g id="edge48" class="edge">
<title>Node12&#45;&gt;Node9</title>
<path fill="none" stroke="midnightblue" d="M541.2,-232.38C447.9,-228.07 251.92,-203.52 177,-76 110.08,37.89 -46.76,-102.71 397,-20 400.48,-19.35 404.11,-18.64 407.72,-17.92"/>
<polygon fill="midnightblue" stroke="midnightblue" points="408.63,-21.3 417.72,-15.86 407.22,-14.45 408.63,-21.3"/>
</g>
<!-- Node12&#45;&gt;Node13 -->
<g id="edge15" class="edge">
<title>Node12&#45;&gt;Node13</title>
<path fill="none" stroke="midnightblue" d="M641.6,-224.44C701.76,-214.06 802.31,-196.72 860.22,-186.73"/>
<polygon fill="midnightblue" stroke="midnightblue" points="860.91,-190.16 870.17,-185.01 859.72,-183.26 860.91,-190.16"/>
</g>
<!-- Node22 -->
<g id="node22" class="node">
<title>Node22</title>
<g id="a_node22"><a xlink:title=" ">
<polygon fill="white" stroke="#bfbfbf" points="576.5,-112.5 576.5,-131.5 625.5,-131.5 625.5,-112.5 576.5,-112.5"/>
<text text-anchor="middle" x="601" y="-119.5" font-family="Helvetica,sans-Serif" font-size="10.00">cassert</text>
</a>
</g>
</g>
<!-- Node12&#45;&gt;Node22 -->
<g id="edge45" class="edge">
<title>Node12&#45;&gt;Node22</title>
<path fill="none" stroke="midnightblue" d="M592.71,-224.37C594.16,-206.62 597.51,-165.67 599.48,-141.6"/>
<polygon fill="midnightblue" stroke="midnightblue" points="602.97,-141.84 600.3,-131.59 595.99,-141.27 602.97,-141.84"/>
</g>
<!-- Node13&#45;&gt;Node4 -->
<g id="edge16" class="edge">
<title>Node13&#45;&gt;Node4</title>
<path fill="none" stroke="midnightblue" d="M870.2,-176.11C764.56,-173.11 448.84,-161.83 351,-132 331.86,-126.16 285.43,-98.41 257.46,-81.11"/>
<polygon fill="midnightblue" stroke="midnightblue" points="259.09,-78 248.75,-75.69 255.39,-83.95 259.09,-78"/>
</g>
<!-- Node13&#45;&gt;Node6 -->
<g id="edge38" class="edge">
<title>Node13&#45;&gt;Node6</title>
<path fill="none" stroke="midnightblue" d="M914.57,-168.08C943.44,-141.15 1029.91,-60.51 1066.43,-26.45"/>
<polygon fill="midnightblue" stroke="midnightblue" points="1068.89,-28.95 1073.81,-19.57 1064.11,-23.83 1068.89,-28.95"/>
</g>
<!-- Node13&#45;&gt;Node7 -->
<g id="edge39" class="edge">
<title>Node13&#45;&gt;Node7</title>
<path fill="none" stroke="midnightblue" d="M909.87,-168.49C916.81,-155.12 927.4,-128.96 915,-112 880.81,-65.22 705.5,-29.73 631.27,-16.57"/>
<polygon fill="midnightblue" stroke="midnightblue" points="631.54,-13.06 621.08,-14.79 630.33,-19.95 631.54,-13.06"/>
</g>
<!-- Node13&#45;&gt;Node8 -->
<g id="edge43" class="edge">
<title>Node13&#45;&gt;Node8</title>
<path fill="none" stroke="midnightblue" d="M889.22,-168.36C874.81,-160.06 853.33,-146.66 837,-132 804.35,-102.69 804.23,-87.8 774,-56 764.15,-45.64 752.38,-34.78 742.84,-26.33"/>
<polygon fill="midnightblue" stroke="midnightblue" points="744.96,-23.54 735.13,-19.59 740.35,-28.81 744.96,-23.54"/>
</g>
<!-- Node13&#45;&gt;Node9 -->
<g id="edge44" class="edge">
<title>Node13&#45;&gt;Node9</title>
<path fill="none" stroke="midnightblue" d="M870.24,-174.16C823.14,-169.48 736.99,-157.94 668,-132 651.59,-125.83 650.27,-118.53 634,-112 569.16,-86 537.87,-116.57 481,-76 464.74,-64.4 453.48,-44.15 446.93,-29.32"/>
<polygon fill="midnightblue" stroke="midnightblue" points="450.01,-27.62 442.99,-19.69 443.54,-30.27 450.01,-27.62"/>
</g>
<!-- Node14 -->
<g id="node14" class="node">
<title>Node14</title>
<g id="a_node14"><a xlink:href="Ioss__Field_8h.html" target="_top" xlink:title=" ">
<polygon fill="white" stroke="black" points="720,-112.5 720,-131.5 790,-131.5 790,-112.5 720,-112.5"/>
<text text-anchor="middle" x="755" y="-119.5" font-family="Helvetica,sans-Serif" font-size="10.00">Ioss_Field.h</text>
</a>
</g>
</g>
<!-- Node13&#45;&gt;Node14 -->
<g id="edge17" class="edge">
<title>Node13&#45;&gt;Node14</title>
<path fill="none" stroke="midnightblue" d="M881.23,-168.44C856.11,-159.4 816.29,-145.06 788.1,-134.92"/>
<polygon fill="midnightblue" stroke="midnightblue" points="789.25,-131.61 778.66,-131.52 786.88,-138.2 789.25,-131.61"/>
</g>
<!-- Node15 -->
<g id="node15" class="node">
<title>Node15</title>
<g id="a_node15"><a xlink:href="Ioss__Property_8h.html" target="_top" xlink:title=" ">
<polygon fill="white" stroke="black" points="556,-56.5 556,-75.5 640,-75.5 640,-56.5 556,-56.5"/>
<text text-anchor="middle" x="598" y="-63.5" font-family="Helvetica,sans-Serif" font-size="10.00">Ioss_Property.h</text>
</a>
</g>
</g>
<!-- Node13&#45;&gt;Node15 -->
<g id="edge22" class="edge">
<title>Node13&#45;&gt;Node15</title>
<path fill="none" stroke="midnightblue" d="M870.44,-172.13C830.92,-165.85 764.73,-153.15 711,-132 676.91,-118.58 640.75,-96.14 618.77,-81.46"/>
<polygon fill="midnightblue" stroke="midnightblue" points="620.5,-78.41 610.26,-75.69 616.57,-84.2 620.5,-78.41"/>
</g>
<!-- Node16 -->
<g id="node16" class="node">
<title>Node16</title>
<g id="a_node16"><a xlink:href="Ioss__Sort_8h.html" target="_top" xlink:title=" ">
<polygon fill="white" stroke="black" points="1236.5,-112.5 1236.5,-131.5 1303.5,-131.5 1303.5,-112.5 1236.5,-112.5"/>
<text text-anchor="middle" x="1270" y="-119.5" font-family="Helvetica,sans-Serif" font-size="10.00">Ioss_Sort.h</text>
</a>
</g>
</g>
<!-- Node13&#45;&gt;Node16 -->
<g id="edge26" class="edge">
<title>Node13&#45;&gt;Node16</title>
<path fill="none" stroke="midnightblue" d="M939.67,-171.87C1006.41,-162 1152.63,-140.36 1226.07,-129.5"/>
<polygon fill="midnightblue" stroke="midnightblue" points="1226.98,-132.9 1236.36,-127.98 1225.95,-125.98 1226.98,-132.9"/>
</g>
<!-- Node18 -->
<g id="node18" class="node">
<title>Node18</title>
<g id="a_node18"><a xlink:title=" ">
<polygon fill="white" stroke="#bfbfbf" points="1394,-0.5 1394,-19.5 1450,-19.5 1450,-0.5 1394,-0.5"/>
<text text-anchor="middle" x="1422" y="-7.5" font-family="Helvetica,sans-Serif" font-size="10.00">algorithm</text>
</a>
</g>
</g>
<!-- Node13&#45;&gt;Node18 -->
<g id="edge35" class="edge">
<title>Node13&#45;&gt;Node18</title>
<path fill="none" stroke="midnightblue" d="M939.75,-177.59C1011.33,-177.85 1179.64,-173.53 1313,-132 1363.12,-116.39 1388.37,-120 1417,-76 1425.78,-62.51 1426.35,-43.95 1425.12,-30.12"/>
<polygon fill="midnightblue" stroke="midnightblue" points="1428.54,-29.3 1423.8,-19.83 1421.6,-30.19 1428.54,-29.3"/>
</g>
<!-- Node13&#45;&gt;Node22 -->
<g id="edge36" class="edge">
<title>Node13&#45;&gt;Node22</title>
<path fill="none" stroke="midnightblue" d="M870.15,-171.75C819.37,-163.95 722.14,-148.44 640,-132 638.55,-131.71 637.08,-131.41 635.59,-131.09"/>
<polygon fill="midnightblue" stroke="midnightblue" points="636.23,-127.65 625.71,-128.93 634.73,-134.49 636.23,-127.65"/>
</g>
<!-- Node23 -->
<g id="node23" class="node">
<title>Node23</title>
<g id="a_node23"><a xlink:title=" ">
<polygon fill="white" stroke="#bfbfbf" points="1000,-112.5 1000,-131.5 1044,-131.5 1044,-112.5 1000,-112.5"/>
<text text-anchor="middle" x="1022" y="-119.5" font-family="Helvetica,sans-Serif" font-size="10.00">cmath</text>
</a>
</g>
</g>
<!-- Node13&#45;&gt;Node23 -->
<g id="edge37" class="edge">
<title>Node13&#45;&gt;Node23</title>
<path fill="none" stroke="midnightblue" d="M923.54,-168.44C942.62,-159.64 972.57,-145.81 994.44,-135.72"/>
<polygon fill="midnightblue" stroke="midnightblue" points="995.93,-138.88 1003.55,-131.52 993,-132.53 995.93,-138.88"/>
</g>
<!-- Node24 -->
<g id="node24" class="node">
<title>Node24</title>
<g id="a_node24"><a xlink:title=" ">
<polygon fill="white" stroke="#bfbfbf" points="1062.5,-112.5 1062.5,-131.5 1107.5,-131.5 1107.5,-112.5 1062.5,-112.5"/>
<text text-anchor="middle" x="1085" y="-119.5" font-family="Helvetica,sans-Serif" font-size="10.00">cstdlib</text>
</a>
</g>
</g>
<!-- Node13&#45;&gt;Node24 -->
<g id="edge40" class="edge">
<title>Node13&#45;&gt;Node24</title>
<path fill="none" stroke="midnightblue" d="M933.52,-168.44C965.86,-158.74 1018.49,-142.95 1052.42,-132.77"/>
<polygon fill="midnightblue" stroke="midnightblue" points="1053.74,-136.03 1062.31,-129.81 1051.73,-129.33 1053.74,-136.03"/>
</g>
<!-- Node25 -->
<g id="node25" class="node">
<title>Node25</title>
<g id="a_node25"><a xlink:title=" ">
<polygon fill="white" stroke="#bfbfbf" points="1126,-112.5 1126,-131.5 1180,-131.5 1180,-112.5 1126,-112.5"/>
<text text-anchor="middle" x="1153" y="-119.5" font-family="Helvetica,sans-Serif" font-size="10.00">iostream</text>
</a>
</g>
</g>
<!-- Node13&#45;&gt;Node25 -->
<g id="edge41" class="edge">
<title>Node13&#45;&gt;Node25</title>
<path fill="none" stroke="midnightblue" d="M939.6,-170.05C979.67,-161.92 1047.9,-147.8 1115.87,-132.2"/>
<polygon fill="midnightblue" stroke="midnightblue" points="1116.94,-135.54 1125.9,-129.89 1115.37,-128.72 1116.94,-135.54"/>
</g>
<!-- Node26 -->
<g id="node26" class="node">
<title>Node26</title>
<g id="a_node26"><a xlink:title=" ">
<polygon fill="white" stroke="#bfbfbf" points="846.5,-112.5 846.5,-131.5 905.5,-131.5 905.5,-112.5 846.5,-112.5"/>
<text text-anchor="middle" x="876" y="-119.5" font-family="Helvetica,sans-Serif" font-size="10.00">stdexcept</text>
</a>
</g>
</g>
<!-- Node13&#45;&gt;Node26 -->
<g id="edge42" class="edge">
<title>Node13&#45;&gt;Node26</title>
<path fill="none" stroke="midnightblue" d="M900.21,-168.08C896.24,-160.69 890.47,-149.95 885.57,-140.81"/>
<polygon fill="midnightblue" stroke="midnightblue" points="888.51,-138.91 880.7,-131.75 882.35,-142.22 888.51,-138.91"/>
</g>
<!-- Node14&#45;&gt;Node4 -->
<g id="edge18" class="edge">
<title>Node14&#45;&gt;Node4</title>
<path fill="none" stroke="midnightblue" d="M719.86,-118.26C644.13,-112.22 459.68,-96.71 294.38,-76.11"/>
<polygon fill="midnightblue" stroke="midnightblue" points="294.38,-72.58 284.02,-74.81 293.51,-79.53 294.38,-72.58"/>
</g>
<!-- Node14&#45;&gt;Node6 -->
<g id="edge19" class="edge">
<title>Node14&#45;&gt;Node6</title>
<path fill="none" stroke="midnightblue" d="M780.46,-112.46C838.88,-92.87 982.55,-44.69 1048.68,-22.51"/>
<polygon fill="midnightblue" stroke="midnightblue" points="1049.86,-25.81 1058.22,-19.31 1047.63,-19.17 1049.86,-25.81"/>
</g>
<!-- Node14&#45;&gt;Node8 -->
<g id="edge20" class="edge">
<title>Node14&#45;&gt;Node8</title>
<path fill="none" stroke="midnightblue" d="M757.31,-112.32C760.27,-99.61 764.33,-75.32 758,-56 754.51,-45.34 747.43,-35.12 740.71,-27.12"/>
<polygon fill="midnightblue" stroke="midnightblue" points="743.3,-24.76 734.02,-19.66 738.1,-29.44 743.3,-24.76"/>
</g>
<!-- Node14&#45;&gt;Node9 -->
<g id="edge21" class="edge">
<title>Node14&#45;&gt;Node9</title>
<path fill="none" stroke="midnightblue" d="M719.71,-116.75C661.89,-109.39 549.79,-93.41 514,-76 489.87,-64.26 467.51,-42.49 453.83,-27.39"/>
<polygon fill="midnightblue" stroke="midnightblue" points="456.39,-25.01 447.16,-19.8 451.13,-29.62 456.39,-25.01"/>
</g>
<!-- Node15&#45;&gt;Node7 -->
<g id="edge23" class="edge">
<title>Node15&#45;&gt;Node7</title>
<path fill="none" stroke="midnightblue" d="M598,-56.08C598,-49.01 598,-38.86 598,-29.99"/>
<polygon fill="midnightblue" stroke="midnightblue" points="601.5,-29.75 598,-19.75 594.5,-29.75 601.5,-29.75"/>
</g>
<!-- Node15&#45;&gt;Node8 -->
<g id="edge24" class="edge">
<title>Node15&#45;&gt;Node8</title>
<path fill="none" stroke="midnightblue" d="M618.12,-56.44C639.02,-47.56 671.93,-33.56 695.72,-23.45"/>
<polygon fill="midnightblue" stroke="midnightblue" points="697.14,-26.65 704.97,-19.52 694.4,-20.21 697.14,-26.65"/>
</g>
<!-- Node15&#45;&gt;Node9 -->
<g id="edge25" class="edge">
<title>Node15&#45;&gt;Node9</title>
<path fill="none" stroke="midnightblue" d="M572.96,-56.44C545.52,-47.07 501.44,-32 471.63,-21.81"/>
<polygon fill="midnightblue" stroke="midnightblue" points="472.71,-18.48 462.11,-18.56 470.44,-25.1 472.71,-18.48"/>
</g>
<!-- Node16&#45;&gt;Node6 -->
<g id="edge33" class="edge">
<title>Node16&#45;&gt;Node6</title>
<path fill="none" stroke="midnightblue" d="M1265.95,-112.5C1258.92,-98.65 1243.18,-71.24 1222,-56 1190.69,-33.47 1147.53,-21.82 1117.65,-16.09"/>
<polygon fill="midnightblue" stroke="midnightblue" points="1118.13,-12.62 1107.67,-14.29 1116.9,-19.51 1118.13,-12.62"/>
</g>
<!-- Node16&#45;&gt;Node9 -->
<g id="edge34" class="edge">
<title>Node16&#45;&gt;Node9</title>
<path fill="none" stroke="midnightblue" d="M1236.15,-116.82C1221.65,-115.14 1204.51,-113.3 1189,-112 1046.61,-100.11 683.47,-118.36 547,-76 546.71,-75.91 494.34,-44.06 462.98,-24.98"/>
<polygon fill="midnightblue" stroke="midnightblue" points="464.74,-21.96 454.38,-19.75 461.1,-27.94 464.74,-21.96"/>
</g>
<!-- Node17 -->
<g id="node17" class="node">
<title>Node17</title>
<g id="a_node17"><a xlink:href="pdqsort_8h.html" target="_top" xlink:title=" ">
<polygon fill="white" stroke="black" points="1350.5,-56.5 1350.5,-75.5 1407.5,-75.5 1407.5,-56.5 1350.5,-56.5"/>
<text text-anchor="middle" x="1379" y="-63.5" font-family="Helvetica,sans-Serif" font-size="10.00">pdqsort.h</text>
</a>
</g>
</g>
<!-- Node16&#45;&gt;Node17 -->
<g id="edge27" class="edge">
<title>Node16&#45;&gt;Node17</title>
<path fill="none" stroke="midnightblue" d="M1287.51,-112.32C1305.07,-103.62 1332.33,-90.12 1352.53,-80.11"/>
<polygon fill="midnightblue" stroke="midnightblue" points="1354.12,-83.23 1361.53,-75.65 1351.02,-76.96 1354.12,-83.23"/>
</g>
<!-- Node17&#45;&gt;Node6 -->
<g id="edge29" class="edge">
<title>Node17&#45;&gt;Node6</title>
<path fill="none" stroke="midnightblue" d="M1350.34,-58.88C1345.56,-57.89 1340.64,-56.9 1336,-56 1258.26,-40.96 1166.71,-25.14 1117.87,-16.86"/>
<polygon fill="midnightblue" stroke="midnightblue" points="1118.27,-13.38 1107.83,-15.16 1117.1,-20.28 1118.27,-13.38"/>
</g>
<!-- Node17&#45;&gt;Node18 -->
<g id="edge28" class="edge">
<title>Node17&#45;&gt;Node18</title>
<path fill="none" stroke="midnightblue" d="M1386.1,-56.08C1392.24,-48.38 1401.27,-37.03 1408.74,-27.65"/>
<polygon fill="midnightblue" stroke="midnightblue" points="1411.54,-29.75 1415.03,-19.75 1406.06,-25.39 1411.54,-29.75"/>
</g>
<!-- Node19 -->
<g id="node19" class="node">
<title>Node19</title>
<g id="a_node19"><a xlink:title=" ">
<polygon fill="white" stroke="#bfbfbf" points="1251.5,-0.5 1251.5,-19.5 1310.5,-19.5 1310.5,-0.5 1251.5,-0.5"/>
<text text-anchor="middle" x="1281" y="-7.5" font-family="Helvetica,sans-Serif" font-size="10.00">functional</text>
</a>
</g>
</g>
<!-- Node17&#45;&gt;Node19 -->
<g id="edge30" class="edge">
<title>Node17&#45;&gt;Node19</title>
<path fill="none" stroke="midnightblue" d="M1363.25,-56.32C1347.68,-47.74 1323.62,-34.49 1305.54,-24.52"/>
<polygon fill="midnightblue" stroke="midnightblue" points="1307.15,-21.42 1296.71,-19.65 1303.78,-27.55 1307.15,-21.42"/>
</g>
<!-- Node20 -->
<g id="node20" class="node">
<title>Node20</title>
<g id="a_node20"><a xlink:title=" ">
<polygon fill="white" stroke="#bfbfbf" points="1328.5,-0.5 1328.5,-19.5 1375.5,-19.5 1375.5,-0.5 1328.5,-0.5"/>
<text text-anchor="middle" x="1352" y="-7.5" font-family="Helvetica,sans-Serif" font-size="10.00">iterator</text>
</a>
</g>
</g>
<!-- Node17&#45;&gt;Node20 -->
<g id="edge31" class="edge">
<title>Node17&#45;&gt;Node20</title>
<path fill="none" stroke="midnightblue" d="M1374.54,-56.08C1370.85,-48.69 1365.48,-37.95 1360.91,-28.81"/>
<polygon fill="midnightblue" stroke="midnightblue" points="1363.98,-27.13 1356.38,-19.75 1357.72,-30.26 1363.98,-27.13"/>
</g>
<!-- Node17&#45;&gt;Node21 -->
<g id="edge32" class="edge">
<title>Node17&#45;&gt;Node21</title>
<path fill="none" stroke="midnightblue" d="M1396.51,-56.32C1414.07,-47.62 1441.33,-34.12 1461.53,-24.11"/>
<polygon fill="midnightblue" stroke="midnightblue" points="1463.12,-27.23 1470.53,-19.65 1460.02,-20.96 1463.12,-27.23"/>
</g>
<!-- Node27&#45;&gt;Node4 -->
<g id="edge50" class="edge">
<title>Node27&#45;&gt;Node4</title>
<path fill="none" stroke="midnightblue" d="M391.53,-112.44C359.83,-103.24 309.27,-88.56 274.23,-78.39"/>
<polygon fill="midnightblue" stroke="midnightblue" points="274.91,-74.94 264.33,-75.52 272.96,-81.67 274.91,-74.94"/>
</g>
<!-- Node27&#45;&gt;Node6 -->
<g id="edge52" class="edge">
<title>Node27&#45;&gt;Node6</title>
<path fill="none" stroke="midnightblue" d="M472.4,-112.46C601.9,-90.94 939.06,-34.92 1048.29,-16.77"/>
<polygon fill="midnightblue" stroke="midnightblue" points="1049.14,-20.17 1058.43,-15.08 1047.99,-13.27 1049.14,-20.17"/>
</g>
<!-- Node27&#45;&gt;Node8 -->
<g id="edge53" class="edge">
<title>Node27&#45;&gt;Node8</title>
<path fill="none" stroke="midnightblue" d="M482.23,-112.5C539.43,-103.91 620.18,-89.96 649,-76 673.52,-64.12 696.54,-42.38 710.68,-27.33"/>
<polygon fill="midnightblue" stroke="midnightblue" points="713.43,-29.51 717.58,-19.76 708.26,-24.8 713.43,-29.51"/>
</g>
<!-- Node27&#45;&gt;Node9 -->
<g id="edge55" class="edge">
<title>Node27&#45;&gt;Node9</title>
<path fill="none" stroke="midnightblue" d="M422.49,-112.37C425.56,-94.62 432.63,-53.67 436.79,-29.6"/>
<polygon fill="midnightblue" stroke="midnightblue" points="440.26,-30.04 438.52,-19.59 433.36,-28.85 440.26,-30.04"/>
</g>
<!-- Node27&#45;&gt;Node15 -->
<g id="edge51" class="edge">
<title>Node27&#45;&gt;Node15</title>
<path fill="none" stroke="midnightblue" d="M449.05,-112.44C479.08,-103.28 526.91,-88.69 560.24,-78.52"/>
<polygon fill="midnightblue" stroke="midnightblue" points="561.54,-81.78 570.09,-75.52 559.5,-75.09 561.54,-81.78"/>
</g>
<!-- Node28 -->
<g id="node28" class="node">
<title>Node28</title>
<g id="a_node28"><a xlink:title=" ">
<polygon fill="white" stroke="#bfbfbf" points="302.5,-56.5 302.5,-75.5 385.5,-75.5 385.5,-56.5 302.5,-56.5"/>
<text text-anchor="middle" x="344" y="-63.5" font-family="Helvetica,sans-Serif" font-size="10.00">unordered_map</text>
</a>
</g>
</g>
<!-- Node27&#45;&gt;Node28 -->
<g id="edge54" class="edge">
<title>Node27&#45;&gt;Node28</title>
<path fill="none" stroke="midnightblue" d="M408.63,-112.32C396.84,-104.06 378.87,-91.45 364.86,-81.63"/>
<polygon fill="midnightblue" stroke="midnightblue" points="366.54,-78.53 356.34,-75.65 362.52,-84.26 366.54,-78.53"/>
</g>
</g>
</svg>
