<?xml version="1.0" encoding="UTF-8" standalone="no"?>
<!DOCTYPE svg PUBLIC "-//W3C//DTD SVG 1.1//EN"
 "http://www.w3.org/Graphics/SVG/1.1/DTD/svg11.dtd">
<!-- Generated by graphviz version 8.0.5 (20230430.1635)
 -->
<!-- Title: src/Ioss_ElementVariableType.h Pages: 1 -->
<!--zoomable 370 -->

<svg id="main" version="1.1" xmlns="http://www.w3.org/2000/svg" xmlns:xlink="http://www.w3.org/1999/xlink" xml:space="preserve" onload="init(evt)">
<style type="text/css"><![CDATA[
.node, .edge {opacity: 0.7;}
.node.selected, .edge.selected {opacity: 1;}
.edge:hover path { stroke: red; }
.edge:hover polygon { stroke: red; fill: red; }
]]></style>

<defs>
  <circle id="rim" cx="0" cy="0" r="7"/>
  <circle id="rim2" cx="0" cy="0" r="3.5"/>
  <g id="zoomPlus">
    <use xlink:href="#rim" fill="#404040"><set attributeName="fill" to="#808080" begin="zoomplus.mouseover" end="zoomplus.mouseout"/></use>
    <path d="M-4,0h8M0,-4v8" fill="none" stroke="white" stroke-width="1.5" pointer-events="none"/>
  </g>
  <g id="zoomMin">
    <use xlink:href="#rim" fill="#404040"><set attributeName="fill" to="#808080" begin="zoomminus.mouseover" end="zoomminus.mouseout"/></use>
    <path d="M-4,0h8" fill="none" stroke="white" stroke-width="1.5" pointer-events="none"/>
  </g>
  <g id="arrowUp" transform="translate(30 24)">
    <use xlink:href="#rim"/>
    <path pointer-events="none" fill="none" stroke="white" stroke-width="1.5" d="M0,-3.0v7 M-2.5,-0.5L0,-3.0L2.5,-0.5"/>
  </g>
  <g id="arrowRight" transform="rotate(90) translate(36 -43)">
    <use xlink:href="#rim"/>
    <path pointer-events="none" fill="none" stroke="white" stroke-width="1.5" d="M0,-3.0v7 M-2.5,-0.5L0,-3.0L2.5,-0.5"/>
  </g>
  <g id="arrowDown" transform="rotate(180) translate(-30 -48)">
    <use xlink:href="#rim"/>
    <path pointer-events="none" fill="none" stroke="white" stroke-width="1.5" d="M0,-3.0v7 M-2.5,-0.5L0,-3.0L2.5,-0.5"/>
  </g>
  <g id="arrowLeft" transform="rotate(270) translate(-36 17)">
    <use xlink:href="#rim"/>
    <path pointer-events="none" fill="none" stroke="white" stroke-width="1.5" d="M0,-3.0v7 M-2.5,-0.5L0,-3.0L2.5,-0.5"/>
  </g>
  <g id="resetDef">
    <use xlink:href="#rim2" fill="#404040"><set attributeName="fill" to="#808080" begin="reset.mouseover" end="reset.mouseout"/></use>
  </g>
</defs>
<script type="application/ecmascript">
var viewWidth = 1392;
var viewHeight = 370;
var sectionId = 'dynsection-0';
</script>
<script type="application/ecmascript" xlink:href="svg.min.js"/>
<svg id="graph" class="graph">
<g id="viewport">
<title>src/Ioss_ElementVariableType.h</title>
<!-- Node1 -->
<g id="Node000001" class="node">
<title>Node1</title>
<g id="a_Node000001"><a xlink:title=" ">
<polygon fill="#999999" stroke="#666666" points="127,-362 0,-362 0,-331.5 127,-331.5 127,-362"/>
<text text-anchor="start" x="8" y="-348.5" font-family="Helvetica,sans-Serif" font-size="10.00">src/Ioss_ElementVariable</text>
<text text-anchor="middle" x="63.5" y="-337.25" font-family="Helvetica,sans-Serif" font-size="10.00">Type.h</text>
</a>
</g>
</g>
<!-- Node2 -->
<g id="Node000002" class="node">
<title>Node2</title>
<g id="a_Node000002"><a xlink:title=" ">
<polygon fill="#e0e0e0" stroke="#999999" points="503.75,-74.5 429.25,-74.5 429.25,-55.25 503.75,-55.25 503.75,-74.5"/>
<text text-anchor="middle" x="466.5" y="-61" font-family="Helvetica,sans-Serif" font-size="10.00">ioss_export.h</text>
</a>
</g>
</g>
<!-- Node1&#45;&gt;Node2 -->
<g id="edge1_Node000001_Node000002" class="edge">
<title>Node1&#45;&gt;Node2</title>
<g id="a_edge1_Node000001_Node000002"><a xlink:title=" ">
<path fill="none" stroke="#63b8ff" d="M61.23,-331.01C56.55,-294.48 50.56,-200.21 106.5,-165.75 206.95,-103.87 259.05,-171.22 369.5,-129.75 377.61,-126.7 418.56,-98.95 444.59,-81.04"/>
<polygon fill="#63b8ff" stroke="#63b8ff" points="446.18,-83.51 452.42,-74.95 442.2,-77.75 446.18,-83.51"/>
</a>
</g>
</g>
<!-- Node3 -->
<g id="Node000003" class="node">
<title>Node3</title>
<g id="a_Node000003"><a xlink:href="Ioss__CodeTypes_8h.html" target="_top" xlink:title=" ">
<polygon fill="white" stroke="#666666" points="718.38,-74.5 620.62,-74.5 620.62,-55.25 718.38,-55.25 718.38,-74.5"/>
<text text-anchor="middle" x="669.5" y="-61" font-family="Helvetica,sans-Serif" font-size="10.00">Ioss_CodeTypes.h</text>
</a>
</g>
</g>
<!-- Node1&#45;&gt;Node3 -->
<g id="edge2_Node000001_Node000003" class="edge">
<title>Node1&#45;&gt;Node3</title>
<g id="a_edge2_Node000001_Node000003"><a xlink:title=" ">
<path fill="none" stroke="#63b8ff" d="M78.03,-331.23C112.91,-297.2 205.4,-211.68 298.5,-165.75 354.78,-137.99 528.74,-97.08 616.99,-77.35"/>
<polygon fill="#63b8ff" stroke="#63b8ff" points="617.57,-80.59 626.57,-75 616.05,-73.75 617.57,-80.59"/>
</a>
</g>
</g>
<!-- Node7 -->
<g id="Node000007" class="node">
<title>Node7</title>
<g id="a_Node000007"><a xlink:title=" ">
<polygon fill="#e0e0e0" stroke="#999999" points="199.5,-19.25 159.5,-19.25 159.5,0 199.5,0 199.5,-19.25"/>
<text text-anchor="middle" x="179.5" y="-5.75" font-family="Helvetica,sans-Serif" font-size="10.00">string</text>
</a>
</g>
</g>
<!-- Node1&#45;&gt;Node7 -->
<g id="edge68_Node000001_Node000007" class="edge">
<title>Node1&#45;&gt;Node7</title>
<g id="a_edge68_Node000001_Node000007"><a xlink:title=" ">
<path fill="none" stroke="#63b8ff" d="M50.57,-331.05C33.75,-310.38 6.5,-270.83 6.5,-231.62 6.5,-231.62 6.5,-231.62 6.5,-119.12 6.5,-52.85 98.75,-25.51 148.52,-15.58"/>
<polygon fill="#63b8ff" stroke="#63b8ff" points="149.13,-18.84 158.32,-13.57 147.84,-11.96 149.13,-18.84"/>
</a>
</g>
</g>
<!-- Node11 -->
<g id="Node000011" class="node">
<title>Node11</title>
<g id="a_Node000011"><a xlink:href="Ioss__VariableType_8h.html" target="_top" xlink:title=" ">
<polygon fill="white" stroke="#666666" points="509.38,-295.5 405.62,-295.5 405.62,-276.25 509.38,-276.25 509.38,-295.5"/>
<text text-anchor="middle" x="457.5" y="-282" font-family="Helvetica,sans-Serif" font-size="10.00">Ioss_VariableType.h</text>
</a>
</g>
</g>
<!-- Node1&#45;&gt;Node11 -->
<g id="edge10_Node000001_Node000011" class="edge">
<title>Node1&#45;&gt;Node11</title>
<g id="a_edge10_Node000001_Node000011"><a xlink:title=" ">
<path fill="none" stroke="#63b8ff" d="M127.24,-336.23C200.93,-325.21 321.46,-307.2 394.74,-296.25"/>
<polygon fill="#63b8ff" stroke="#63b8ff" points="394.82,-299.63 404.19,-294.69 393.79,-292.71 394.82,-299.63"/>
</a>
</g>
</g>
<!-- Node4 -->
<g id="Node000004" class="node">
<title>Node4</title>
<g id="a_Node000004"><a xlink:title=" ">
<polygon fill="#e0e0e0" stroke="#999999" points="751.38,-19.25 713.62,-19.25 713.62,0 751.38,0 751.38,-19.25"/>
<text text-anchor="middle" x="732.5" y="-5.75" font-family="Helvetica,sans-Serif" font-size="10.00">array</text>
</a>
</g>
</g>
<!-- Node3&#45;&gt;Node4 -->
<g id="edge3_Node000003_Node000004" class="edge">
<title>Node3&#45;&gt;Node4</title>
<g id="a_edge3_Node000003_Node000004"><a xlink:title=" ">
<path fill="none" stroke="#63b8ff" d="M680.19,-54.84C689.38,-47.07 702.86,-35.67 713.84,-26.4"/>
<polygon fill="#63b8ff" stroke="#63b8ff" points="715.59,-28.65 720.97,-19.52 711.07,-23.31 715.59,-28.65"/>
</a>
</g>
</g>
<!-- Node5 -->
<g id="Node000005" class="node">
<title>Node5</title>
<g id="a_Node000005"><a xlink:title=" ">
<polygon fill="#e0e0e0" stroke="#999999" points="1238.62,-19.25 1190.38,-19.25 1190.38,0 1238.62,0 1238.62,-19.25"/>
<text text-anchor="middle" x="1214.5" y="-5.75" font-family="Helvetica,sans-Serif" font-size="10.00">cstddef</text>
</a>
</g>
</g>
<!-- Node3&#45;&gt;Node5 -->
<g id="edge4_Node000003_Node000005" class="edge">
<title>Node3&#45;&gt;Node5</title>
<g id="a_edge4_Node000003_Node000005"><a xlink:title=" ">
<path fill="none" stroke="#63b8ff" d="M718.83,-59.06C827.36,-48.45 1084.71,-23.31 1179.05,-14.09"/>
<polygon fill="#63b8ff" stroke="#63b8ff" points="1179.37,-17.48 1188.98,-13.02 1178.69,-10.51 1179.37,-17.48"/>
</a>
</g>
</g>
<!-- Node6 -->
<g id="Node000006" class="node">
<title>Node6</title>
<g id="a_Node000006"><a xlink:title=" ">
<polygon fill="#e0e0e0" stroke="#999999" points="1003.12,-19.25 957.88,-19.25 957.88,0 1003.12,0 1003.12,-19.25"/>
<text text-anchor="middle" x="980.5" y="-5.75" font-family="Helvetica,sans-Serif" font-size="10.00">cstdint</text>
</a>
</g>
</g>
<!-- Node3&#45;&gt;Node6 -->
<g id="edge5_Node000003_Node000006" class="edge">
<title>Node3&#45;&gt;Node6</title>
<g id="a_edge5_Node000003_Node000006"><a xlink:title=" ">
<path fill="none" stroke="#63b8ff" d="M718.78,-55.44C782.55,-44.52 891.99,-25.78 946.94,-16.37"/>
<polygon fill="#63b8ff" stroke="#63b8ff" points="947.23,-19.7 956.49,-14.56 946.04,-12.8 947.23,-19.7"/>
</a>
</g>
</g>
<!-- Node3&#45;&gt;Node7 -->
<g id="edge6_Node000003_Node000007" class="edge">
<title>Node3&#45;&gt;Node7</title>
<g id="a_edge6_Node000003_Node000007"><a xlink:title=" ">
<path fill="none" stroke="#63b8ff" d="M620.27,-58.53C519.78,-47.6 293.54,-23.02 210.67,-14.01"/>
<polygon fill="#63b8ff" stroke="#63b8ff" points="211.06,-10.43 200.74,-12.82 210.3,-17.38 211.06,-10.43"/>
</a>
</g>
</g>
<!-- Node8 -->
<g id="Node000008" class="node">
<title>Node8</title>
<g id="a_Node000008"><a xlink:title=" ">
<polygon fill="#e0e0e0" stroke="#999999" points="869,-19.25 826,-19.25 826,0 869,0 869,-19.25"/>
<text text-anchor="middle" x="847.5" y="-5.75" font-family="Helvetica,sans-Serif" font-size="10.00">vector</text>
</a>
</g>
</g>
<!-- Node3&#45;&gt;Node8 -->
<g id="edge7_Node000003_Node000008" class="edge">
<title>Node3&#45;&gt;Node8</title>
<g id="a_edge7_Node000003_Node000008"><a xlink:title=" ">
<path fill="none" stroke="#63b8ff" d="M699.7,-54.84C731.78,-45.24 782.31,-30.13 815.18,-20.29"/>
<polygon fill="#63b8ff" stroke="#63b8ff" points="816.02,-23.4 824.6,-17.18 814.01,-16.69 816.02,-23.4"/>
</a>
</g>
</g>
<!-- Node9 -->
<g id="Node000009" class="node">
<title>Node9</title>
<g id="a_Node000009"><a xlink:title=" ">
<polygon fill="#e0e0e0" stroke="#999999" points="625.38,-19.25 509.62,-19.25 509.62,0 625.38,0 625.38,-19.25"/>
<text text-anchor="middle" x="567.5" y="-5.75" font-family="Helvetica,sans-Serif" font-size="10.00">SEACASIoss_config.h</text>
</a>
</g>
</g>
<!-- Node3&#45;&gt;Node9 -->
<g id="edge8_Node000003_Node000009" class="edge">
<title>Node3&#45;&gt;Node9</title>
<g id="a_edge8_Node000003_Node000009"><a xlink:title=" ">
<path fill="none" stroke="#63b8ff" d="M652.2,-54.84C636.37,-46.58 612.71,-34.23 594.42,-24.68"/>
<polygon fill="#63b8ff" stroke="#63b8ff" points="596.37,-21.23 585.89,-19.7 593.13,-27.43 596.37,-21.23"/>
</a>
</g>
</g>
<!-- Node10 -->
<g id="Node000010" class="node">
<title>Node10</title>
<g id="a_Node000010"><a xlink:title=" ">
<polygon fill="#e0e0e0" stroke="#999999" points="695.88,-19.25 643.12,-19.25 643.12,0 695.88,0 695.88,-19.25"/>
<text text-anchor="middle" x="669.5" y="-5.75" font-family="Helvetica,sans-Serif" font-size="10.00">complex</text>
</a>
</g>
</g>
<!-- Node3&#45;&gt;Node10 -->
<g id="edge9_Node000003_Node000010" class="edge">
<title>Node3&#45;&gt;Node10</title>
<g id="a_edge9_Node000003_Node000010"><a xlink:title=" ">
<path fill="none" stroke="#63b8ff" d="M669.5,-55.08C669.5,-48.42 669.5,-38.99 669.5,-30.53"/>
<polygon fill="#63b8ff" stroke="#63b8ff" points="673,-30.61 669.5,-20.61 666,-30.61 673,-30.61"/>
</a>
</g>
</g>
<!-- Node11&#45;&gt;Node2 -->
<g id="edge11_Node000011_Node000002" class="edge">
<title>Node11&#45;&gt;Node2</title>
<g id="a_edge11_Node000011_Node000002"><a xlink:title=" ">
<path fill="none" stroke="#63b8ff" d="M423.66,-275.85C366.48,-258.9 260.49,-219.13 298.5,-165.75 326.87,-125.91 361.03,-155.68 402.5,-129.75 422.59,-117.19 441.24,-97.23 453.16,-82.97"/>
<polygon fill="#63b8ff" stroke="#63b8ff" points="456.4,-85.53 459.97,-75.56 450.96,-81.13 456.4,-85.53"/>
</a>
</g>
</g>
<!-- Node11&#45;&gt;Node3 -->
<g id="edge12_Node000011_Node000003" class="edge">
<title>Node11&#45;&gt;Node3</title>
<g id="a_edge12_Node000011_Node000003"><a xlink:title=" ">
<path fill="none" stroke="#63b8ff" d="M459.11,-275.78C463.56,-253.38 478.2,-195.25 514.5,-165.75 546.66,-139.62 565.65,-152.17 600.5,-129.75 621.19,-116.44 641.44,-96.66 654.59,-82.65"/>
<polygon fill="#63b8ff" stroke="#63b8ff" points="656.63,-85.51 660.8,-75.77 651.46,-80.78 656.63,-85.51"/>
</a>
</g>
</g>
<!-- Node11&#45;&gt;Node7 -->
<g id="edge66_Node000011_Node000007" class="edge">
<title>Node11&#45;&gt;Node7</title>
<g id="a_edge66_Node000011_Node000007"><a xlink:title=" ">
<path fill="none" stroke="#63b8ff" d="M405.43,-280.27C365.85,-275.01 311.13,-263.83 268.5,-240.25 207.31,-206.4 186.36,-192.98 156.5,-129.75 142.33,-99.74 142.32,-87.14 151.5,-55.25 154.27,-45.61 159.81,-36.04 165.23,-28.25"/>
<polygon fill="#63b8ff" stroke="#63b8ff" points="168.63,-30.56 171.83,-20.46 163.03,-26.36 168.63,-30.56"/>
</a>
</g>
</g>
<!-- Node11&#45;&gt;Node8 -->
<g id="edge67_Node000011_Node000008" class="edge">
<title>Node11&#45;&gt;Node8</title>
<g id="a_edge67_Node000011_Node000008"><a xlink:title=" ">
<path fill="none" stroke="#63b8ff" d="M509.61,-283.15C646.39,-278.35 1013.36,-263.61 1132.5,-240.25 1234.84,-220.18 1306.77,-228.77 1339.5,-129.75 1346.39,-108.91 1334.73,-60.04 1329.5,-55.25 1327.42,-53.34 988.36,-23.12 880.23,-13.52"/>
<polygon fill="#63b8ff" stroke="#63b8ff" points="880.63,-9.96 870.36,-12.56 880.01,-16.93 880.63,-9.96"/>
</a>
</g>
</g>
<!-- Node12 -->
<g id="Node000012" class="node">
<title>Node12</title>
<g id="a_Node000012"><a xlink:href="Ioss__Utils_8h.html" target="_top" xlink:title=" ">
<polygon fill="white" stroke="#666666" points="966.75,-240.25 898.25,-240.25 898.25,-221 966.75,-221 966.75,-240.25"/>
<text text-anchor="middle" x="932.5" y="-226.75" font-family="Helvetica,sans-Serif" font-size="10.00">Ioss_Utils.h</text>
</a>
</g>
</g>
<!-- Node11&#45;&gt;Node12 -->
<g id="edge13_Node000011_Node000012" class="edge">
<title>Node11&#45;&gt;Node12</title>
<g id="a_edge13_Node000011_Node000012"><a xlink:title=" ">
<path fill="none" stroke="#63b8ff" d="M509.69,-279.02C603.41,-268.52 798.67,-246.63 887.16,-236.71"/>
<polygon fill="#63b8ff" stroke="#63b8ff" points="887.37,-240.09 896.91,-235.5 886.59,-233.14 887.37,-240.09"/>
</a>
</g>
</g>
<!-- Node17 -->
<g id="Node000017" class="node">
<title>Node17</title>
<g id="a_Node000017"><a xlink:title=" ">
<polygon fill="#e0e0e0" stroke="#999999" points="208.88,-74.5 174.12,-74.5 174.12,-55.25 208.88,-55.25 208.88,-74.5"/>
<text text-anchor="middle" x="191.5" y="-61" font-family="Helvetica,sans-Serif" font-size="10.00">map</text>
</a>
</g>
</g>
<!-- Node11&#45;&gt;Node17 -->
<g id="edge65_Node000011_Node000017" class="edge">
<title>Node11&#45;&gt;Node17</title>
<g id="a_edge65_Node000011_Node000017"><a xlink:title=" ">
<path fill="none" stroke="#63b8ff" d="M405.13,-276.83C373.95,-270.36 334.54,-259.13 303.5,-240.25 245.62,-205.04 227.02,-191.2 198.5,-129.75 192.03,-115.8 190.5,-98.36 190.46,-85.23"/>
<polygon fill="#63b8ff" stroke="#63b8ff" points="193.98,-85.7 190.75,-75.61 186.98,-85.51 193.98,-85.7"/>
</a>
</g>
</g>
<!-- Node25 -->
<g id="Node000025" class="node">
<title>Node25</title>
<g id="a_Node000025"><a xlink:title=" ">
<polygon fill="#e0e0e0" stroke="#999999" points="1300.5,-74.5 1242.5,-74.5 1242.5,-55.25 1300.5,-55.25 1300.5,-74.5"/>
<text text-anchor="middle" x="1271.5" y="-61" font-family="Helvetica,sans-Serif" font-size="10.00">functional</text>
</a>
</g>
</g>
<!-- Node11&#45;&gt;Node25 -->
<g id="edge64_Node000011_Node000025" class="edge">
<title>Node11&#45;&gt;Node25</title>
<g id="a_edge64_Node000011_Node000025"><a xlink:title=" ">
<path fill="none" stroke="#63b8ff" d="M509.65,-282.61C682.85,-274.54 1230.85,-244.45 1280.5,-185 1304.01,-156.85 1290.75,-110.75 1280.29,-84.93"/>
<polygon fill="#63b8ff" stroke="#63b8ff" points="1283.15,-83.71 1275.97,-75.92 1276.72,-86.49 1283.15,-83.71"/>
</a>
</g>
</g>
<!-- Node34 -->
<g id="Node000034" class="node">
<title>Node34</title>
<g id="a_Node000034"><a xlink:title=" ">
<polygon fill="#e0e0e0" stroke="#999999" points="531.12,-240.25 485.88,-240.25 485.88,-221 531.12,-221 531.12,-240.25"/>
<text text-anchor="middle" x="508.5" y="-226.75" font-family="Helvetica,sans-Serif" font-size="10.00">cstring</text>
</a>
</g>
</g>
<!-- Node11&#45;&gt;Node34 -->
<g id="edge63_Node000011_Node000034" class="edge">
<title>Node11&#45;&gt;Node34</title>
<g id="a_edge63_Node000011_Node000034"><a xlink:title=" ">
<path fill="none" stroke="#63b8ff" d="M465.92,-276.08C473.11,-268.57 483.66,-257.56 492.45,-248.38"/>
<polygon fill="#63b8ff" stroke="#63b8ff" points="494.51,-251.25 498.9,-241.61 489.45,-246.41 494.51,-251.25"/>
</a>
</g>
</g>
<!-- Node12&#45;&gt;Node2 -->
<g id="edge14_Node000012_Node000002" class="edge">
<title>Node12&#45;&gt;Node2</title>
<g id="a_edge14_Node000012_Node000002"><a xlink:title=" ">
<path fill="none" stroke="#63b8ff" d="M897.98,-228.53C802.47,-225.16 539.99,-213.36 514.5,-185 508.78,-178.64 510.43,-173.28 514.5,-165.75 528.39,-140.05 555.61,-155.45 569.5,-129.75 573.57,-122.22 574.2,-117.65 569.5,-110.5 562.12,-99.26 532.77,-87.17 507.28,-78.42"/>
<polygon fill="#63b8ff" stroke="#63b8ff" points="508.62,-74.84 498.03,-75 506.41,-81.48 508.62,-74.84"/>
</a>
</g>
</g>
<!-- Node12&#45;&gt;Node3 -->
<g id="edge15_Node000012_Node000003" class="edge">
<title>Node12&#45;&gt;Node3</title>
<g id="a_edge15_Node000012_Node000003"><a xlink:title=" ">
<path fill="none" stroke="#63b8ff" d="M967.25,-223.18C1009.04,-213.96 1070.55,-194.86 1044.5,-165.75 996.34,-111.93 784.91,-164.33 721.5,-129.75 702.53,-119.4 687.83,-99.01 678.98,-84.04"/>
<polygon fill="#63b8ff" stroke="#63b8ff" points="681.72,-82.77 673.8,-75.73 675.6,-86.17 681.72,-82.77"/>
</a>
</g>
</g>
<!-- Node12&#45;&gt;Node5 -->
<g id="edge55_Node000012_Node000005" class="edge">
<title>Node12&#45;&gt;Node5</title>
<g id="a_edge55_Node000012_Node000005"><a xlink:title=" ">
<path fill="none" stroke="#63b8ff" d="M967.03,-229.14C1048.05,-227.42 1247.73,-219.7 1303.5,-185 1353.23,-154.06 1364.74,-99.61 1326.5,-55.25 1306.98,-32.6 1274.37,-21.33 1249.35,-15.8"/>
<polygon fill="#63b8ff" stroke="#63b8ff" points="1250.31,-12.22 1239.81,-13.7 1248.94,-19.08 1250.31,-12.22"/>
</a>
</g>
</g>
<!-- Node12&#45;&gt;Node6 -->
<g id="edge56_Node000012_Node000006" class="edge">
<title>Node12&#45;&gt;Node6</title>
<g id="a_edge56_Node000012_Node000006"><a xlink:title=" ">
<path fill="none" stroke="#63b8ff" d="M967.09,-228.17C1062.21,-223.86 1322.55,-209.89 1351.5,-185 1390,-151.9 1374,-124.86 1380.5,-74.5 1381.59,-66.01 1386.2,-61.63 1380.5,-55.25 1356.23,-28.13 1106.54,-15.59 1014.41,-11.87"/>
<polygon fill="#63b8ff" stroke="#63b8ff" points="1014.61,-8.33 1004.48,-11.44 1014.34,-15.33 1014.61,-8.33"/>
</a>
</g>
</g>
<!-- Node12&#45;&gt;Node7 -->
<g id="edge61_Node000012_Node000007" class="edge">
<title>Node12&#45;&gt;Node7</title>
<g id="a_edge61_Node000012_Node000007"><a xlink:title=" ">
<path fill="none" stroke="#63b8ff" d="M897.78,-228.77C782.55,-225.68 413.58,-213.74 298.5,-185 239.96,-170.38 213.75,-175.57 174.5,-129.75 152.53,-104.1 152.44,-88.28 159.5,-55.25 161.43,-46.23 165.32,-36.83 169.16,-29"/>
<polygon fill="#63b8ff" stroke="#63b8ff" points="172.62,-30.95 174.18,-20.47 166.43,-27.69 172.62,-30.95"/>
</a>
</g>
</g>
<!-- Node12&#45;&gt;Node8 -->
<g id="edge62_Node000012_Node000008" class="edge">
<title>Node12&#45;&gt;Node8</title>
<g id="a_edge62_Node000012_Node000008"><a xlink:title=" ">
<path fill="none" stroke="#63b8ff" d="M967.13,-229.93C1045.74,-229.88 1234.45,-225.45 1280.5,-185 1324.89,-146 1349.22,-99 1309.5,-55.25 1305.87,-51.26 984.81,-22.7 880.11,-13.48"/>
<polygon fill="#63b8ff" stroke="#63b8ff" points="880.54,-9.92 870.28,-12.53 879.93,-16.89 880.54,-9.92"/>
</a>
</g>
</g>
<!-- Node13 -->
<g id="Node000013" class="node">
<title>Node13</title>
<g id="a_Node000013"><a xlink:href="Ioss__ElementTopology_8h.html" target="_top" xlink:title=" ">
<polygon fill="white" stroke="#666666" points="429.38,-185 307.62,-185 307.62,-165.75 429.38,-165.75 429.38,-185"/>
<text text-anchor="middle" x="368.5" y="-171.5" font-family="Helvetica,sans-Serif" font-size="10.00">Ioss_ElementTopology.h</text>
</a>
</g>
</g>
<!-- Node12&#45;&gt;Node13 -->
<g id="edge16_Node000012_Node000013" class="edge">
<title>Node12&#45;&gt;Node13</title>
<g id="a_edge16_Node000012_Node000013"><a xlink:title=" ">
<path fill="none" stroke="#63b8ff" d="M898.07,-226.37C807.87,-217.86 563.25,-194.76 440.62,-183.18"/>
<polygon fill="#63b8ff" stroke="#63b8ff" points="441.14,-179.62 430.85,-182.17 440.48,-186.59 441.14,-179.62"/>
</a>
</g>
</g>
<!-- Node19 -->
<g id="Node000019" class="node">
<title>Node19</title>
<g id="a_Node000019"><a xlink:href="Ioss__EntityType_8h.html" target="_top" xlink:title=" ">
<polygon fill="white" stroke="#666666" points="617.88,-185 523.12,-185 523.12,-165.75 617.88,-165.75 617.88,-185"/>
<text text-anchor="middle" x="570.5" y="-171.5" font-family="Helvetica,sans-Serif" font-size="10.00">Ioss_EntityType.h</text>
</a>
</g>
</g>
<!-- Node12&#45;&gt;Node19 -->
<g id="edge31_Node000012_Node000019" class="edge">
<title>Node12&#45;&gt;Node19</title>
<g id="a_edge31_Node000012_Node000019"><a xlink:title=" ">
<path fill="none" stroke="#63b8ff" d="M898.19,-224.66C843.6,-216.75 733.33,-200.72 628.83,-185.19"/>
<polygon fill="#63b8ff" stroke="#63b8ff" points="629.49,-181.6 619.08,-183.59 628.46,-188.53 629.49,-181.6"/>
</a>
</g>
</g>
<!-- Node20 -->
<g id="Node000020" class="node">
<title>Node20</title>
<g id="a_Node000020"><a xlink:href="Ioss__Field_8h.html" target="_top" xlink:title=" ">
<polygon fill="white" stroke="#666666" points="800.12,-129.75 730.88,-129.75 730.88,-110.5 800.12,-110.5 800.12,-129.75"/>
<text text-anchor="middle" x="765.5" y="-116.25" font-family="Helvetica,sans-Serif" font-size="10.00">Ioss_Field.h</text>
</a>
</g>
</g>
<!-- Node12&#45;&gt;Node20 -->
<g id="edge32_Node000012_Node000020" class="edge">
<title>Node12&#45;&gt;Node20</title>
<g id="a_edge32_Node000012_Node000020"><a xlink:title=" ">
<path fill="none" stroke="#63b8ff" d="M967.04,-226.53C1019.78,-220.52 1110.93,-204.3 1077.5,-165.75 1068.85,-155.77 895.77,-135.46 811.21,-126.08"/>
<polygon fill="#63b8ff" stroke="#63b8ff" points="811.7,-122.5 801.38,-124.88 810.93,-129.46 811.7,-122.5"/>
</a>
</g>
</g>
<!-- Node21 -->
<g id="Node000021" class="node">
<title>Node21</title>
<g id="a_Node000021"><a xlink:href="Ioss__Property_8h.html" target="_top" xlink:title=" ">
<polygon fill="white" stroke="#666666" points="940.25,-129.75 856.75,-129.75 856.75,-110.5 940.25,-110.5 940.25,-129.75"/>
<text text-anchor="middle" x="898.5" y="-116.25" font-family="Helvetica,sans-Serif" font-size="10.00">Ioss_Property.h</text>
</a>
</g>
</g>
<!-- Node12&#45;&gt;Node21 -->
<g id="edge38_Node000012_Node000021" class="edge">
<title>Node12&#45;&gt;Node21</title>
<g id="a_edge38_Node000012_Node000021"><a xlink:title=" ">
<path fill="none" stroke="#63b8ff" d="M966.76,-229.1C1030.39,-226.94 1156.75,-216.35 1115.5,-165.75 1110.26,-159.32 1013.53,-141.29 951,-130.22"/>
<polygon fill="#63b8ff" stroke="#63b8ff" points="951.98,-126.66 941.52,-128.37 950.76,-133.55 951.98,-126.66"/>
</a>
</g>
</g>
<!-- Node22 -->
<g id="Node000022" class="node">
<title>Node22</title>
<g id="a_Node000022"><a xlink:href="Ioss__Sort_8h.html" target="_top" xlink:title=" ">
<polygon fill="white" stroke="#666666" points="1271.62,-185 1205.38,-185 1205.38,-165.75 1271.62,-165.75 1271.62,-185"/>
<text text-anchor="middle" x="1238.5" y="-171.5" font-family="Helvetica,sans-Serif" font-size="10.00">Ioss_Sort.h</text>
</a>
</g>
</g>
<!-- Node12&#45;&gt;Node22 -->
<g id="edge43_Node000012_Node000022" class="edge">
<title>Node12&#45;&gt;Node22</title>
<g id="a_edge43_Node000012_Node000022"><a xlink:title=" ">
<path fill="none" stroke="#63b8ff" d="M966.87,-223.82C1016.5,-215.42 1111.09,-199.31 1191.5,-185 1192.45,-184.83 1193.4,-184.66 1194.37,-184.49"/>
<polygon fill="#63b8ff" stroke="#63b8ff" points="1194.66,-187.81 1203.88,-182.59 1193.41,-180.92 1194.66,-187.81"/>
</a>
</g>
</g>
<!-- Node24 -->
<g id="Node000024" class="node">
<title>Node24</title>
<g id="a_Node000024"><a xlink:title=" ">
<polygon fill="#e0e0e0" stroke="#999999" points="1064.38,-74.5 1008.62,-74.5 1008.62,-55.25 1064.38,-55.25 1064.38,-74.5"/>
<text text-anchor="middle" x="1036.5" y="-61" font-family="Helvetica,sans-Serif" font-size="10.00">algorithm</text>
</a>
</g>
</g>
<!-- Node12&#45;&gt;Node24 -->
<g id="edge52_Node000012_Node000024" class="edge">
<title>Node12&#45;&gt;Node24</title>
<g id="a_edge52_Node000012_Node000024"><a xlink:title=" ">
<path fill="none" stroke="#63b8ff" d="M967.22,-227.03C1019.12,-222.35 1113.03,-210.51 1133.5,-185 1164.04,-146.93 1101.36,-102.42 1063.12,-80.13"/>
<polygon fill="#63b8ff" stroke="#63b8ff" points="1065.42,-76.84 1055,-74.96 1061.97,-82.93 1065.42,-76.84"/>
</a>
</g>
</g>
<!-- Node28 -->
<g id="Node000028" class="node">
<title>Node28</title>
<g id="a_Node000028"><a xlink:title=" ">
<polygon fill="#e0e0e0" stroke="#999999" points="684.62,-185 636.38,-185 636.38,-165.75 684.62,-165.75 684.62,-185"/>
<text text-anchor="middle" x="660.5" y="-171.5" font-family="Helvetica,sans-Serif" font-size="10.00">cassert</text>
</a>
</g>
</g>
<!-- Node12&#45;&gt;Node28 -->
<g id="edge53_Node000012_Node000028" class="edge">
<title>Node12&#45;&gt;Node28</title>
<g id="a_edge53_Node000012_Node000028"><a xlink:title=" ">
<path fill="none" stroke="#63b8ff" d="M898.07,-223.87C853.66,-216.3 773.79,-202.16 695.5,-185.09"/>
<polygon fill="#63b8ff" stroke="#63b8ff" points="696.49,-181.51 685.97,-182.78 694.99,-188.34 696.49,-181.51"/>
</a>
</g>
</g>
<!-- Node29 -->
<g id="Node000029" class="node">
<title>Node29</title>
<g id="a_Node000029"><a xlink:title=" ">
<polygon fill="#e0e0e0" stroke="#999999" points="746,-185 703,-185 703,-165.75 746,-165.75 746,-185"/>
<text text-anchor="middle" x="724.5" y="-171.5" font-family="Helvetica,sans-Serif" font-size="10.00">cmath</text>
</a>
</g>
</g>
<!-- Node12&#45;&gt;Node29 -->
<g id="edge54_Node000012_Node000029" class="edge">
<title>Node12&#45;&gt;Node29</title>
<g id="a_edge54_Node000012_Node000029"><a xlink:title=" ">
<path fill="none" stroke="#63b8ff" d="M897.84,-221.15C864.27,-212.89 811.68,-199.78 757.07,-185.37"/>
<polygon fill="#63b8ff" stroke="#63b8ff" points="758.06,-181.74 747.5,-182.57 756.27,-188.51 758.06,-181.74"/>
</a>
</g>
</g>
<!-- Node30 -->
<g id="Node000030" class="node">
<title>Node30</title>
<g id="a_Node000030"><a xlink:title=" ">
<polygon fill="#e0e0e0" stroke="#999999" points="808.75,-185 764.25,-185 764.25,-165.75 808.75,-165.75 808.75,-185"/>
<text text-anchor="middle" x="786.5" y="-171.5" font-family="Helvetica,sans-Serif" font-size="10.00">cstdlib</text>
</a>
</g>
</g>
<!-- Node12&#45;&gt;Node30 -->
<g id="edge57_Node000012_Node000030" class="edge">
<title>Node12&#45;&gt;Node30</title>
<g id="a_edge57_Node000012_Node000030"><a xlink:title=" ">
<path fill="none" stroke="#63b8ff" d="M907.73,-220.59C883.31,-211.69 845.86,-198.03 819.05,-188.25"/>
<polygon fill="#63b8ff" stroke="#63b8ff" points="820.58,-184.72 809.99,-184.58 818.18,-191.29 820.58,-184.72"/>
</a>
</g>
</g>
<!-- Node31 -->
<g id="Node000031" class="node">
<title>Node31</title>
<g id="a_Node000031"><a xlink:title=" ">
<polygon fill="#e0e0e0" stroke="#999999" points="888,-185 827,-185 827,-165.75 888,-165.75 888,-185"/>
<text text-anchor="middle" x="857.5" y="-171.5" font-family="Helvetica,sans-Serif" font-size="10.00">filesystem</text>
</a>
</g>
</g>
<!-- Node12&#45;&gt;Node31 -->
<g id="edge58_Node000012_Node000031" class="edge">
<title>Node12&#45;&gt;Node31</title>
<g id="a_edge58_Node000012_Node000031"><a xlink:title=" ">
<path fill="none" stroke="#63b8ff" d="M919.78,-220.59C908.68,-212.71 892.34,-201.11 879.18,-191.77"/>
<polygon fill="#63b8ff" stroke="#63b8ff" points="881.47,-188.39 871.29,-185.45 877.41,-194.1 881.47,-188.39"/>
</a>
</g>
</g>
<!-- Node32 -->
<g id="Node000032" class="node">
<title>Node32</title>
<g id="a_Node000032"><a xlink:title=" ">
<polygon fill="#e0e0e0" stroke="#999999" points="959.25,-185 905.75,-185 905.75,-165.75 959.25,-165.75 959.25,-185"/>
<text text-anchor="middle" x="932.5" y="-171.5" font-family="Helvetica,sans-Serif" font-size="10.00">iostream</text>
</a>
</g>
</g>
<!-- Node12&#45;&gt;Node32 -->
<g id="edge59_Node000012_Node000032" class="edge">
<title>Node12&#45;&gt;Node32</title>
<g id="a_edge59_Node000012_Node000032"><a xlink:title=" ">
<path fill="none" stroke="#63b8ff" d="M932.5,-220.83C932.5,-214.17 932.5,-204.74 932.5,-196.28"/>
<polygon fill="#63b8ff" stroke="#63b8ff" points="936,-196.36 932.5,-186.36 929,-196.36 936,-196.36"/>
</a>
</g>
</g>
<!-- Node33 -->
<g id="Node000033" class="node">
<title>Node33</title>
<g id="a_Node000033"><a xlink:title=" ">
<polygon fill="#e0e0e0" stroke="#999999" points="1035.88,-185 977.12,-185 977.12,-165.75 1035.88,-165.75 1035.88,-185"/>
<text text-anchor="middle" x="1006.5" y="-171.5" font-family="Helvetica,sans-Serif" font-size="10.00">stdexcept</text>
</a>
</g>
</g>
<!-- Node12&#45;&gt;Node33 -->
<g id="edge60_Node000012_Node000033" class="edge">
<title>Node12&#45;&gt;Node33</title>
<g id="a_edge60_Node000012_Node000033"><a xlink:title=" ">
<path fill="none" stroke="#63b8ff" d="M945.05,-220.59C956.07,-212.66 972.32,-200.97 985.34,-191.6"/>
<polygon fill="#63b8ff" stroke="#63b8ff" points="987.06,-193.96 993.13,-185.27 982.97,-188.27 987.06,-193.96"/>
</a>
</g>
</g>
<!-- Node13&#45;&gt;Node2 -->
<g id="edge17_Node000013_Node000002" class="edge">
<title>Node13&#45;&gt;Node2</title>
<g id="a_edge17_Node000013_Node000002"><a xlink:title=" ">
<path fill="none" stroke="#63b8ff" d="M390.27,-165.36C406.06,-157.86 426.93,-145.82 440.5,-129.75 451.37,-116.87 458.15,-98.84 462.05,-85.22"/>
<polygon fill="#63b8ff" stroke="#63b8ff" points="465.67,-86.18 464.76,-75.63 458.89,-84.45 465.67,-86.18"/>
</a>
</g>
</g>
<!-- Node13&#45;&gt;Node3 -->
<g id="edge18_Node000013_Node000003" class="edge">
<title>Node13&#45;&gt;Node3</title>
<g id="a_edge18_Node000013_Node000003"><a xlink:title=" ">
<path fill="none" stroke="#63b8ff" d="M429.55,-166.51C470.28,-159.9 524.44,-148.46 569.5,-129.75 599.42,-117.33 630.32,-96.06 649.7,-81.51"/>
<polygon fill="#63b8ff" stroke="#63b8ff" points="651.43,-83.83 657.24,-74.97 647.17,-78.27 651.43,-83.83"/>
</a>
</g>
</g>
<!-- Node13&#45;&gt;Node7 -->
<g id="edge29_Node000013_Node000007" class="edge">
<title>Node13&#45;&gt;Node7</title>
<g id="a_edge29_Node000013_Node000007"><a xlink:title=" ">
<path fill="none" stroke="#63b8ff" d="M307.32,-169.72C272.55,-164.46 229.84,-153.31 198.5,-129.75 175.64,-112.56 173.11,-102.07 165.5,-74.5 161.34,-59.43 165.71,-42.1 170.63,-29.29"/>
<polygon fill="#63b8ff" stroke="#63b8ff" points="174.16,-30.94 174.9,-20.38 167.73,-28.18 174.16,-30.94"/>
</a>
</g>
</g>
<!-- Node13&#45;&gt;Node8 -->
<g id="edge30_Node000013_Node000008" class="edge">
<title>Node13&#45;&gt;Node8</title>
<g id="a_edge30_Node000013_Node000008"><a xlink:title=" ">
<path fill="none" stroke="#63b8ff" d="M429.66,-169.96C547.32,-161.22 794.95,-141.55 809.5,-129.75 839.47,-105.44 846.14,-57.45 847.42,-30.39"/>
<polygon fill="#63b8ff" stroke="#63b8ff" points="850.94,-30.67 847.69,-20.59 843.94,-30.5 850.94,-30.67"/>
</a>
</g>
</g>
<!-- Node14 -->
<g id="Node000014" class="node">
<title>Node14</title>
<g id="a_Node000014"><a xlink:href="Ioss__ElementPermutation_8h.html" target="_top" xlink:title=" ">
<polygon fill="white" stroke="#666666" points="360.88,-129.75 224.12,-129.75 224.12,-110.5 360.88,-110.5 360.88,-129.75"/>
<text text-anchor="middle" x="292.5" y="-116.25" font-family="Helvetica,sans-Serif" font-size="10.00">Ioss_ElementPermutation.h</text>
</a>
</g>
</g>
<!-- Node13&#45;&gt;Node14 -->
<g id="edge19_Node000013_Node000014" class="edge">
<title>Node13&#45;&gt;Node14</title>
<g id="a_edge19_Node000013_Node000014"><a xlink:title=" ">
<path fill="none" stroke="#63b8ff" d="M355.61,-165.34C344.25,-157.39 327.48,-145.64 314.09,-136.25"/>
<polygon fill="#63b8ff" stroke="#63b8ff" points="316.65,-133.07 306.46,-130.2 312.64,-138.81 316.65,-133.07"/>
</a>
</g>
</g>
<!-- Node13&#45;&gt;Node17 -->
<g id="edge27_Node000013_Node000017" class="edge">
<title>Node13&#45;&gt;Node17</title>
<g id="a_edge27_Node000013_Node000017"><a xlink:title=" ">
<path fill="none" stroke="#63b8ff" d="M307.35,-169.43C276.46,-164 240.36,-152.79 215.5,-129.75 203.01,-118.17 196.98,-99.46 194.09,-85.27"/>
<polygon fill="#63b8ff" stroke="#63b8ff" points="197.42,-84.97 192.33,-75.67 190.52,-86.11 197.42,-84.97"/>
</a>
</g>
</g>
<!-- Node18 -->
<g id="Node000018" class="node">
<title>Node18</title>
<g id="a_Node000018"><a xlink:title=" ">
<polygon fill="#e0e0e0" stroke="#999999" points="560.25,-129.75 530.75,-129.75 530.75,-110.5 560.25,-110.5 560.25,-129.75"/>
<text text-anchor="middle" x="545.5" y="-116.25" font-family="Helvetica,sans-Serif" font-size="10.00">set</text>
</a>
</g>
</g>
<!-- Node13&#45;&gt;Node18 -->
<g id="edge28_Node000013_Node000018" class="edge">
<title>Node13&#45;&gt;Node18</title>
<g id="a_edge28_Node000013_Node000018"><a xlink:title=" ">
<path fill="none" stroke="#63b8ff" d="M398.53,-165.34C432.76,-155.04 488.12,-138.39 520.23,-128.73"/>
<polygon fill="#63b8ff" stroke="#63b8ff" points="520.98,-131.86 529.55,-125.62 518.96,-125.15 520.98,-131.86"/>
</a>
</g>
</g>
<!-- Node14&#45;&gt;Node2 -->
<g id="edge20_Node000014_Node000002" class="edge">
<title>Node14&#45;&gt;Node2</title>
<g id="a_edge20_Node000014_Node000002"><a xlink:title=" ">
<path fill="none" stroke="#63b8ff" d="M322.02,-110.09C350.76,-101.29 394.67,-87.86 426.53,-78.11"/>
<polygon fill="#63b8ff" stroke="#63b8ff" points="427.3,-81.23 435.84,-74.95 425.25,-74.53 427.3,-81.23"/>
</a>
</g>
</g>
<!-- Node14&#45;&gt;Node3 -->
<g id="edge21_Node000014_Node000003" class="edge">
<title>Node14&#45;&gt;Node3</title>
<g id="a_edge21_Node000014_Node000003"><a xlink:title=" ">
<path fill="none" stroke="#63b8ff" d="M356.88,-110.03C427.75,-100.02 540.75,-84.06 609.72,-74.32"/>
<polygon fill="#63b8ff" stroke="#63b8ff" points="609.99,-77.67 619.4,-72.81 609.01,-70.74 609.99,-77.67"/>
</a>
</g>
</g>
<!-- Node14&#45;&gt;Node7 -->
<g id="edge25_Node000014_Node000007" class="edge">
<title>Node14&#45;&gt;Node7</title>
<g id="a_edge25_Node000014_Node000007"><a xlink:title=" ">
<path fill="none" stroke="#63b8ff" d="M283.25,-110.25C264.3,-92.05 220.79,-50.27 196.57,-27.01"/>
<polygon fill="#63b8ff" stroke="#63b8ff" points="199.51,-25.03 189.88,-20.63 194.66,-30.08 199.51,-25.03"/>
</a>
</g>
</g>
<!-- Node14&#45;&gt;Node8 -->
<g id="edge26_Node000014_Node000008" class="edge">
<title>Node14&#45;&gt;Node8</title>
<g id="a_edge26_Node000014_Node000008"><a xlink:title=" ">
<path fill="none" stroke="#63b8ff" d="M310.79,-110.11C329,-101.13 357.71,-86.92 382.5,-74.5 399.43,-66.02 402.34,-60.6 420.5,-55.25 429.98,-52.46 716.87,-23.66 814.98,-13.87"/>
<polygon fill="#63b8ff" stroke="#63b8ff" points="815.11,-17.27 824.71,-12.79 814.41,-10.3 815.11,-17.27"/>
</a>
</g>
</g>
<!-- Node15 -->
<g id="Node000015" class="node">
<title>Node15</title>
<g id="a_Node000015"><a xlink:title=" ">
<polygon fill="#e0e0e0" stroke="#999999" points="316.12,-74.5 264.88,-74.5 264.88,-55.25 316.12,-55.25 316.12,-74.5"/>
<text text-anchor="middle" x="290.5" y="-61" font-family="Helvetica,sans-Serif" font-size="10.00">assert.h</text>
</a>
</g>
</g>
<!-- Node14&#45;&gt;Node15 -->
<g id="edge22_Node000014_Node000015" class="edge">
<title>Node14&#45;&gt;Node15</title>
<g id="a_edge22_Node000014_Node000015"><a xlink:title=" ">
<path fill="none" stroke="#63b8ff" d="M292.17,-110.33C291.92,-103.67 291.57,-94.24 291.25,-85.78"/>
<polygon fill="#63b8ff" stroke="#63b8ff" points="294.71,-85.72 290.84,-75.86 287.72,-85.98 294.71,-85.72"/>
</a>
</g>
</g>
<!-- Node16 -->
<g id="Node000016" class="node">
<title>Node16</title>
<g id="a_Node000016"><a xlink:title=" ">
<polygon fill="#e0e0e0" stroke="#999999" points="373.12,-74.5 333.88,-74.5 333.88,-55.25 373.12,-55.25 373.12,-74.5"/>
<text text-anchor="middle" x="353.5" y="-61" font-family="Helvetica,sans-Serif" font-size="10.00">limits</text>
</a>
</g>
</g>
<!-- Node14&#45;&gt;Node16 -->
<g id="edge23_Node000014_Node000016" class="edge">
<title>Node14&#45;&gt;Node16</title>
<g id="a_edge23_Node000014_Node000016"><a xlink:title=" ">
<path fill="none" stroke="#63b8ff" d="M302.85,-110.09C311.66,-102.4 324.55,-91.15 335.11,-81.93"/>
<polygon fill="#63b8ff" stroke="#63b8ff" points="337.07,-83.99 342.31,-74.77 332.47,-78.71 337.07,-83.99"/>
</a>
</g>
</g>
<!-- Node14&#45;&gt;Node17 -->
<g id="edge24_Node000014_Node000017" class="edge">
<title>Node14&#45;&gt;Node17</title>
<g id="a_edge24_Node000014_Node000017"><a xlink:title=" ">
<path fill="none" stroke="#63b8ff" d="M275.37,-110.09C259.77,-101.87 236.48,-89.59 218.4,-80.06"/>
<polygon fill="#63b8ff" stroke="#63b8ff" points="220.2,-76.52 209.72,-74.95 216.93,-82.71 220.2,-76.52"/>
</a>
</g>
</g>
<!-- Node20&#45;&gt;Node2 -->
<g id="edge33_Node000020_Node000002" class="edge">
<title>Node20&#45;&gt;Node2</title>
<g id="a_edge33_Node000020_Node000002"><a xlink:title=" ">
<path fill="none" stroke="#63b8ff" d="M730.62,-112.91C677.25,-103.41 575.18,-85.23 514.75,-74.47"/>
<polygon fill="#63b8ff" stroke="#63b8ff" points="515.43,-70.86 504.97,-72.55 514.2,-77.75 515.43,-70.86"/>
</a>
</g>
</g>
<!-- Node20&#45;&gt;Node3 -->
<g id="edge34_Node000020_Node000003" class="edge">
<title>Node20&#45;&gt;Node3</title>
<g id="a_edge34_Node000020_Node000003"><a xlink:title=" ">
<path fill="none" stroke="#63b8ff" d="M749.21,-110.09C734.46,-101.91 712.46,-89.71 695.31,-80.19"/>
<polygon fill="#63b8ff" stroke="#63b8ff" points="697.31,-76.74 686.86,-74.95 693.91,-82.86 697.31,-76.74"/>
</a>
</g>
</g>
<!-- Node20&#45;&gt;Node5 -->
<g id="edge35_Node000020_Node000005" class="edge">
<title>Node20&#45;&gt;Node5</title>
<g id="a_edge35_Node000020_Node000005"><a xlink:title=" ">
<path fill="none" stroke="#63b8ff" d="M796.38,-110.04C841,-97.06 926.2,-72.84 999.5,-55.25 1062.45,-40.14 1136.5,-25.44 1179.21,-17.25"/>
<polygon fill="#63b8ff" stroke="#63b8ff" points="1179.72,-20.53 1188.89,-15.22 1178.41,-13.65 1179.72,-20.53"/>
</a>
</g>
</g>
<!-- Node20&#45;&gt;Node7 -->
<g id="edge36_Node000020_Node000007" class="edge">
<title>Node20&#45;&gt;Node7</title>
<g id="a_edge36_Node000020_Node000007"><a xlink:title=" ">
<path fill="none" stroke="#63b8ff" d="M734.6,-110.11C687.18,-96.55 593.46,-70.84 512.5,-55.25 402.42,-34.05 269.94,-19.53 210.74,-13.61"/>
<polygon fill="#63b8ff" stroke="#63b8ff" points="211.2,-10.04 200.9,-12.54 210.51,-17.01 211.2,-10.04"/>
</a>
</g>
</g>
<!-- Node20&#45;&gt;Node8 -->
<g id="edge37_Node000020_Node000008" class="edge">
<title>Node20&#45;&gt;Node8</title>
<g id="a_edge37_Node000020_Node000008"><a xlink:title=" ">
<path fill="none" stroke="#63b8ff" d="M772.21,-110.25C785.72,-92.36 816.44,-51.72 834.18,-28.25"/>
<polygon fill="#63b8ff" stroke="#63b8ff" points="837.46,-30.71 840.7,-20.63 831.88,-26.49 837.46,-30.71"/>
</a>
</g>
</g>
<!-- Node21&#45;&gt;Node2 -->
<g id="edge39_Node000021_Node000002" class="edge">
<title>Node21&#45;&gt;Node2</title>
<g id="a_edge39_Node000021_Node000002"><a xlink:title=" ">
<path fill="none" stroke="#63b8ff" d="M856.29,-113.92C775.65,-103.98 600.12,-82.35 514.88,-71.84"/>
<polygon fill="#63b8ff" stroke="#63b8ff" points="515.56,-68.27 505.21,-70.52 514.7,-75.22 515.56,-68.27"/>
</a>
</g>
</g>
<!-- Node21&#45;&gt;Node6 -->
<g id="edge40_Node000021_Node000006" class="edge">
<title>Node21&#45;&gt;Node6</title>
<g id="a_edge40_Node000021_Node000006"><a xlink:title=" ">
<path fill="none" stroke="#63b8ff" d="M905.21,-110.25C918.72,-92.36 949.44,-51.72 967.18,-28.25"/>
<polygon fill="#63b8ff" stroke="#63b8ff" points="970.46,-30.71 973.7,-20.63 964.88,-26.49 970.46,-30.71"/>
</a>
</g>
</g>
<!-- Node21&#45;&gt;Node7 -->
<g id="edge41_Node000021_Node000007" class="edge">
<title>Node21&#45;&gt;Node7</title>
<g id="a_edge41_Node000021_Node000007"><a xlink:title=" ">
<path fill="none" stroke="#63b8ff" d="M879.54,-110.05C848.54,-95.68 784.72,-68.01 727.5,-55.25 534.63,-12.25 295.35,-9.61 210.83,-10.18"/>
<polygon fill="#63b8ff" stroke="#63b8ff" points="210.92,-6.69 200.95,-10.28 210.99,-13.69 210.92,-6.69"/>
</a>
</g>
</g>
<!-- Node21&#45;&gt;Node8 -->
<g id="edge42_Node000021_Node000008" class="edge">
<title>Node21&#45;&gt;Node8</title>
<g id="a_edge42_Node000021_Node000008"><a xlink:title=" ">
<path fill="none" stroke="#63b8ff" d="M894.33,-110.25C886.07,-92.68 867.49,-53.16 856.38,-29.52"/>
<polygon fill="#63b8ff" stroke="#63b8ff" points="859.15,-28.19 851.73,-20.63 852.82,-31.17 859.15,-28.19"/>
</a>
</g>
</g>
<!-- Node22&#45;&gt;Node5 -->
<g id="edge50_Node000022_Node000005" class="edge">
<title>Node22&#45;&gt;Node5</title>
<g id="a_edge50_Node000022_Node000005"><a xlink:title=" ">
<path fill="none" stroke="#63b8ff" d="M1251.31,-165.3C1278.04,-145.24 1335.19,-95.69 1309.5,-55.25 1296.36,-34.55 1270.79,-23.29 1249.48,-17.25"/>
<polygon fill="#63b8ff" stroke="#63b8ff" points="1250.37,-13.61 1239.82,-14.55 1248.66,-20.4 1250.37,-13.61"/>
</a>
</g>
</g>
<!-- Node22&#45;&gt;Node8 -->
<g id="edge51_Node000022_Node000008" class="edge">
<title>Node22&#45;&gt;Node8</title>
<g id="a_edge51_Node000022_Node000008"><a xlink:title=" ">
<path fill="none" stroke="#63b8ff" d="M1216.74,-165.3C1174.74,-147.78 1079.55,-108.04 999.5,-74.5 957.94,-57.08 910.01,-36.93 879.26,-23.99"/>
<polygon fill="#63b8ff" stroke="#63b8ff" points="880.72,-20.39 870.14,-19.74 878,-26.84 880.72,-20.39"/>
</a>
</g>
</g>
<!-- Node23 -->
<g id="Node000023" class="node">
<title>Node23</title>
<g id="a_Node000023"><a xlink:href="pdqsort_8h.html" target="_top" xlink:title=" ">
<polygon fill="white" stroke="#666666" points="1233.75,-129.75 1177.25,-129.75 1177.25,-110.5 1233.75,-110.5 1233.75,-129.75"/>
<text text-anchor="middle" x="1205.5" y="-116.25" font-family="Helvetica,sans-Serif" font-size="10.00">pdqsort.h</text>
</a>
</g>
</g>
<!-- Node22&#45;&gt;Node23 -->
<g id="edge44_Node000022_Node000023" class="edge">
<title>Node22&#45;&gt;Node23</title>
<g id="a_edge44_Node000022_Node000023"><a xlink:title=" ">
<path fill="none" stroke="#63b8ff" d="M1233.05,-165.58C1228.63,-158.46 1222.26,-148.18 1216.76,-139.3"/>
<polygon fill="#63b8ff" stroke="#63b8ff" points="1219.31,-137.77 1211.07,-131.11 1213.36,-141.45 1219.31,-137.77"/>
</a>
</g>
</g>
<!-- Node23&#45;&gt;Node5 -->
<g id="edge46_Node000023_Node000005" class="edge">
<title>Node23&#45;&gt;Node5</title>
<g id="a_edge46_Node000023_Node000005"><a xlink:title=" ">
<path fill="none" stroke="#63b8ff" d="M1206.24,-110.25C1207.67,-92.92 1210.88,-54.23 1212.85,-30.49"/>
<polygon fill="#63b8ff" stroke="#63b8ff" points="1216.41,-30.88 1213.75,-20.63 1209.44,-30.3 1216.41,-30.88"/>
</a>
</g>
</g>
<!-- Node23&#45;&gt;Node24 -->
<g id="edge45_Node000023_Node000024" class="edge">
<title>Node23&#45;&gt;Node24</title>
<g id="a_edge45_Node000023_Node000024"><a xlink:title=" ">
<path fill="none" stroke="#63b8ff" d="M1176.83,-110.09C1148.86,-101.28 1106.13,-87.81 1075.16,-78.06"/>
<polygon fill="#63b8ff" stroke="#63b8ff" points="1076.33,-74.44 1065.75,-74.77 1074.23,-81.12 1076.33,-74.44"/>
</a>
</g>
</g>
<!-- Node23&#45;&gt;Node25 -->
<g id="edge47_Node000023_Node000025" class="edge">
<title>Node23&#45;&gt;Node25</title>
<g id="a_edge47_Node000023_Node000025"><a xlink:title=" ">
<path fill="none" stroke="#63b8ff" d="M1216.7,-110.09C1226.33,-102.32 1240.45,-90.92 1251.95,-81.65"/>
<polygon fill="#63b8ff" stroke="#63b8ff" points="1253.88,-83.78 1259.47,-74.77 1249.49,-78.33 1253.88,-83.78"/>
</a>
</g>
</g>
<!-- Node26 -->
<g id="Node000026" class="node">
<title>Node26</title>
<g id="a_Node000026"><a xlink:title=" ">
<polygon fill="#e0e0e0" stroke="#999999" points="1128.5,-74.5 1082.5,-74.5 1082.5,-55.25 1128.5,-55.25 1128.5,-74.5"/>
<text text-anchor="middle" x="1105.5" y="-61" font-family="Helvetica,sans-Serif" font-size="10.00">iterator</text>
</a>
</g>
</g>
<!-- Node23&#45;&gt;Node26 -->
<g id="edge48_Node000023_Node000026" class="edge">
<title>Node23&#45;&gt;Node26</title>
<g id="a_edge48_Node000023_Node000026"><a xlink:title=" ">
<path fill="none" stroke="#63b8ff" d="M1188.54,-110.09C1173.09,-101.87 1150.04,-89.59 1132.14,-80.06"/>
<polygon fill="#63b8ff" stroke="#63b8ff" points="1134.02,-76.56 1123.55,-74.95 1130.73,-82.74 1134.02,-76.56"/>
</a>
</g>
</g>
<!-- Node27 -->
<g id="Node000027" class="node">
<title>Node27</title>
<g id="a_Node000027"><a xlink:title=" ">
<polygon fill="#e0e0e0" stroke="#999999" points="1186.12,-74.5 1146.88,-74.5 1146.88,-55.25 1186.12,-55.25 1186.12,-74.5"/>
<text text-anchor="middle" x="1166.5" y="-61" font-family="Helvetica,sans-Serif" font-size="10.00">utility</text>
</a>
</g>
</g>
<!-- Node23&#45;&gt;Node27 -->
<g id="edge49_Node000023_Node000027" class="edge">
<title>Node23&#45;&gt;Node27</title>
<g id="a_edge49_Node000023_Node000027"><a xlink:title=" ">
<path fill="none" stroke="#63b8ff" d="M1199.06,-110.33C1193.73,-103.05 1185.99,-92.48 1179.39,-83.48"/>
<polygon fill="#63b8ff" stroke="#63b8ff" points="1181.81,-81.86 1173.08,-75.86 1176.17,-85.99 1181.81,-81.86"/>
</a>
</g>
</g>
</g>
</svg>

<g id="navigator" transform="translate(0 0)" fill="#404254">
  <rect fill="#f2f5e9" fill-opacity="0.5" stroke="#606060" stroke-width=".5" x="0" y="0" width="60" height="60"/>
  <use id="zoomplus" xlink:href="#zoomPlus" x="17" y="9" onmousedown="handleZoom(evt,'in')"/>
  <use id="zoomminus" xlink:href="#zoomMin" x="42" y="9" onmousedown="handleZoom(evt,'out')"/>
  <use id="reset" xlink:href="#resetDef" x="30" y="36" onmousedown="handleReset()"/>
   <use id="arrowup" xlink:href="#arrowUp" x="0" y="0" onmousedown="handlePan(0,-1)"/>
  <use id="arrowright" xlink:href="#arrowRight" x="0" y="0" onmousedown="handlePan(1,0)"/>
  <use id="arrowdown" xlink:href="#arrowDown" x="0" y="0" onmousedown="handlePan(0,1)"/>
  <use id="arrowleft" xlink:href="#arrowLeft" x="0" y="0" onmousedown="handlePan(-1,0)"/>
</g>
<svg viewBox="0 0 15 15" width="100%" height="30px" preserveAspectRatio="xMaxYMin meet">
 <g id="arrow_out" transform="scale(0.3 0.3)">
  <a xlink:href="Ioss__ElementVariableType_8h__incl_org.svg" target="_base">
   <rect id="button" ry="5" rx="5" y="6" x="6" height="38" width="38"
        fill="#f2f5e9" fill-opacity="0.5" stroke="#606060" stroke-width="1.0"/>
   <path id="arrow"
     d="M 11.500037,31.436501 C 11.940474,20.09759 22.043105,11.32322 32.158766,21.979434 L 37.068811,17.246167 C 37.068811,17.246167 37.088388,32 37.088388,32 L 22.160133,31.978069 C 22.160133,31.978069 26.997745,27.140456 26.997745,27.140456 C 18.528582,18.264221 13.291696,25.230495 11.500037,31.436501 z"
     style="fill:#404040;"/>
  </a>
 </g>
</svg>

<style type='text/css'>
<![CDATA[
[data-mouse-over-selected='false'] { opacity: 0.7; }
[data-mouse-over-selected='true']  { opacity: 1.0; }
]]>
</style>
<script type="application/ecmascript"><![CDATA[
document.addEventListener('DOMContentLoaded', (event) => {
  highlightEdges();
  highlightAdjacentNodes();
});
]]></script>
</svg>
