<?xml version="1.0" encoding="UTF-8" standalone="no"?>
<!DOCTYPE svg PUBLIC "-//W3C//DTD SVG 1.1//EN"
 "http://www.w3.org/Graphics/SVG/1.1/DTD/svg11.dtd">
<!-- Generated by graphviz version 5.0.1 (20220820.1526)
 -->
<!-- Title: src/Ioss_IOFactory.C Pages: 1 -->
<!--zoomable 412 -->
<svg id="main" version="1.1" xmlns="http://www.w3.org/2000/svg" xmlns:xlink="http://www.w3.org/1999/xlink" xml:space="preserve" onload="init(evt)">
<style type="text/css"><![CDATA[
.edge:hover path { stroke: red; }
.edge:hover polygon { stroke: red; fill: red; }
]]></style>
<script type="text/javascript"><![CDATA[
var edges = document.getElementsByTagName('g');
if (edges && edges.length) {
  for (var i=0;i<edges.length;i++) {
    if (edges[i].id.substr(0,4)=='edge') {
      edges[i].setAttribute('class','edge');
    }
  }
}
]]></script>
        <defs>
                <circle id="rim" cx="0" cy="0" r="7"/>
                <circle id="rim2" cx="0" cy="0" r="3.5"/>
                <g id="zoomPlus">
                        <use xlink:href="#rim" fill="#404040">
                                <set attributeName="fill" to="#808080" begin="zoomplus.mouseover" end="zoomplus.mouseout"/>
                        </use>
                        <path d="M-4,0h8M0,-4v8" fill="none" stroke="white" stroke-width="1.5" pointer-events="none"/>
                </g>
                <g id="zoomMin">
                        <use xlink:href="#rim" fill="#404040">
                                <set attributeName="fill" to="#808080" begin="zoomminus.mouseover" end="zoomminus.mouseout"/>
                        </use>
                        <path d="M-4,0h8" fill="none" stroke="white" stroke-width="1.5" pointer-events="none"/>
                </g>
                <g id="dirArrow">
                        <path fill="none" stroke="white" stroke-width="1.5" d="M0,-3.0v7 M-2.5,-0.5L0,-3.0L2.5,-0.5"/>
                </g>
               <g id="resetDef">
                       <use xlink:href="#rim2" fill="#404040">
                               <set attributeName="fill" to="#808080" begin="reset.mouseover" end="reset.mouseout"/>
                       </use>
               </g>
        </defs>

<script type="text/javascript">
var viewWidth = 1882;
var viewHeight = 412;
var sectionId = 'dynsection-0';
</script>
<script xlink:href="svgpan.js"/>
<svg id="graph" class="graph">
<g id="viewport">
<title>src/Ioss_IOFactory.C</title>
<!-- Node1 -->
<g id="node1" class="node">
<title>Node1</title>
<g id="a_node1"><a xlink:title=" ">
<polygon fill="#999999" stroke="#666666" points="1501,-404 1391,-404 1391,-385 1501,-385 1501,-404"/>
<text text-anchor="middle" x="1446" y="-392" font-family="Helvetica,sans-Serif" font-size="10.00">src/Ioss_IOFactory.C</text>
</a>
</g>
</g>
<!-- Node2 -->
<g id="node2" class="node">
<title>Node2</title>
<g id="a_node2"><a xlink:href="Ioss__DBUsage_8h.html" target="_top" xlink:title=" ">
<polygon fill="white" stroke="#666666" points="937,-294 845,-294 845,-275 937,-275 937,-294"/>
<text text-anchor="middle" x="891" y="-282" font-family="Helvetica,sans-Serif" font-size="10.00">Ioss_DBUsage.h</text>
</a>
</g>
</g>
<!-- Node1&#45;&gt;Node2 -->
<g id="edge1" class="edge">
<title>Node1&#45;&gt;Node2</title>
<path fill="none" stroke="#63b8ff" d="M1394.96,-384.92C1344.18,-376.27 1264.09,-362.34 1195,-349 1104.92,-331.61 1000.28,-309.28 940.24,-296.27"/>
<polygon fill="#63b8ff" stroke="#63b8ff" points="940.79,-292.8 930.28,-294.1 939.3,-299.65 940.79,-292.8"/>
</g>
<!-- Node3 -->
<g id="node3" class="node">
<title>Node3</title>
<g id="a_node3"><a xlink:href="Ioss__IOFactory_8h.html" target="_top" xlink:title=" ">
<polygon fill="white" stroke="#666666" points="1415.5,-349 1324.5,-349 1324.5,-330 1415.5,-330 1415.5,-349"/>
<text text-anchor="middle" x="1370" y="-337" font-family="Helvetica,sans-Serif" font-size="10.00">Ioss_IOFactory.h</text>
</a>
</g>
</g>
<!-- Node1&#45;&gt;Node3 -->
<g id="edge2" class="edge">
<title>Node1&#45;&gt;Node3</title>
<path fill="none" stroke="#63b8ff" d="M1433.79,-384.98C1422.22,-376.92 1404.62,-364.65 1390.84,-355.03"/>
<polygon fill="#63b8ff" stroke="#63b8ff" points="1392.64,-352.02 1382.43,-349.17 1388.63,-357.76 1392.64,-352.02"/>
</g>
<!-- Node6 -->
<g id="node6" class="node">
<title>Node6</title>
<g id="a_node6"><a xlink:title=" ">
<polygon fill="#e0e0e0" stroke="#999999" points="217.5,-19 168.5,-19 168.5,0 217.5,0 217.5,-19"/>
<text text-anchor="middle" x="193" y="-7" font-family="Helvetica,sans-Serif" font-size="10.00">cstddef</text>
</a>
</g>
</g>
<!-- Node1&#45;&gt;Node6 -->
<g id="edge75" class="edge">
<title>Node1&#45;&gt;Node6</title>
<path fill="none" stroke="#63b8ff" d="M1390.64,-392.32C1125.71,-386.31 0,-356.58 0,-285.5 0,-285.5 0,-285.5 0,-118.5 0,-46.9 102.41,-22.3 158.03,-14.23"/>
<polygon fill="#63b8ff" stroke="#63b8ff" points="158.72,-17.67 168.16,-12.86 157.79,-10.73 158.72,-17.67"/>
</g>
<!-- Node8 -->
<g id="node8" class="node">
<title>Node8</title>
<g id="a_node8"><a xlink:title=" ">
<polygon fill="#e0e0e0" stroke="#999999" points="1412.5,-19 1371.5,-19 1371.5,0 1412.5,0 1412.5,-19"/>
<text text-anchor="middle" x="1392" y="-7" font-family="Helvetica,sans-Serif" font-size="10.00">string</text>
</a>
</g>
</g>
<!-- Node1&#45;&gt;Node8 -->
<g id="edge80" class="edge">
<title>Node1&#45;&gt;Node8</title>
<path fill="none" stroke="#63b8ff" d="M1458.01,-384.79C1502.55,-351.36 1653.56,-227.23 1611,-110 1583.93,-35.45 1476.5,-16.75 1422.84,-12.06"/>
<polygon fill="#63b8ff" stroke="#63b8ff" points="1422.79,-8.55 1412.55,-11.28 1422.26,-15.53 1422.79,-8.55"/>
</g>
<!-- Node12 -->
<g id="node12" class="node">
<title>Node12</title>
<g id="a_node12"><a xlink:href="Ioss__ParallelUtils_8h.html" target="_top" xlink:title=" ">
<polygon fill="white" stroke="#666666" points="1056.5,-294 955.5,-294 955.5,-275 1056.5,-275 1056.5,-294"/>
<text text-anchor="middle" x="1006" y="-282" font-family="Helvetica,sans-Serif" font-size="10.00">Ioss_ParallelUtils.h</text>
</a>
</g>
</g>
<!-- Node1&#45;&gt;Node12 -->
<g id="edge72" class="edge">
<title>Node1&#45;&gt;Node12</title>
<path fill="none" stroke="#63b8ff" d="M1411.11,-384.94C1331.92,-365.5 1138.7,-318.07 1050.83,-296.5"/>
<polygon fill="#63b8ff" stroke="#63b8ff" points="1051.44,-293.05 1040.9,-294.07 1049.77,-299.85 1051.44,-293.05"/>
</g>
<!-- Node13 -->
<g id="node13" class="node">
<title>Node13</title>
<g id="a_node13"><a xlink:href="Ioss__Utils_8h.html" target="_top" xlink:title=" ">
<polygon fill="white" stroke="#666666" points="668.5,-239 599.5,-239 599.5,-220 668.5,-220 668.5,-239"/>
<text text-anchor="middle" x="634" y="-227" font-family="Helvetica,sans-Serif" font-size="10.00">Ioss_Utils.h</text>
</a>
</g>
</g>
<!-- Node1&#45;&gt;Node13 -->
<g id="edge73" class="edge">
<title>Node1&#45;&gt;Node13</title>
<path fill="none" stroke="#63b8ff" d="M1390.51,-393.45C1255.02,-392.73 910.59,-387.1 803,-349 739.36,-326.47 677.86,-272.92 649.82,-246.21"/>
<polygon fill="#63b8ff" stroke="#63b8ff" points="652.14,-243.59 642.52,-239.14 647.27,-248.61 652.14,-243.59"/>
</g>
<!-- Node18 -->
<g id="node18" class="node">
<title>Node18</title>
<g id="a_node18"><a xlink:title=" ">
<polygon fill="#e0e0e0" stroke="#999999" points="1474.5,-74 1439.5,-74 1439.5,-55 1474.5,-55 1474.5,-74"/>
<text text-anchor="middle" x="1457" y="-62" font-family="Helvetica,sans-Serif" font-size="10.00">map</text>
</a>
</g>
</g>
<!-- Node1&#45;&gt;Node18 -->
<g id="edge77" class="edge">
<title>Node1&#45;&gt;Node18</title>
<path fill="none" stroke="#63b8ff" d="M1446.29,-384.73C1447.76,-340.99 1454.3,-146.14 1456.37,-84.36"/>
<polygon fill="#63b8ff" stroke="#63b8ff" points="1459.87,-84.26 1456.71,-74.15 1452.88,-84.02 1459.87,-84.26"/>
</g>
<!-- Node19 -->
<g id="node19" class="node">
<title>Node19</title>
<g id="a_node19"><a xlink:title=" ">
<polygon fill="#e0e0e0" stroke="#999999" points="1399,-129 1369,-129 1369,-110 1399,-110 1399,-129"/>
<text text-anchor="middle" x="1384" y="-117" font-family="Helvetica,sans-Serif" font-size="10.00">set</text>
</a>
</g>
</g>
<!-- Node1&#45;&gt;Node19 -->
<g id="edge79" class="edge">
<title>Node1&#45;&gt;Node19</title>
<path fill="none" stroke="#63b8ff" d="M1444.01,-384.73C1435.28,-346.3 1400.32,-192.38 1388.18,-138.91"/>
<polygon fill="#63b8ff" stroke="#63b8ff" points="1391.58,-138.08 1385.95,-129.11 1384.76,-139.63 1391.58,-138.08"/>
</g>
<!-- Node28 -->
<g id="node28" class="node">
<title>Node28</title>
<g id="a_node28"><a xlink:title=" ">
<polygon fill="#e0e0e0" stroke="#999999" points="517,-74 477,-74 477,-55 517,-55 517,-74"/>
<text text-anchor="middle" x="497" y="-62" font-family="Helvetica,sans-Serif" font-size="10.00">utility</text>
</a>
</g>
</g>
<!-- Node1&#45;&gt;Node28 -->
<g id="edge81" class="edge">
<title>Node1&#45;&gt;Node28</title>
<path fill="none" stroke="#63b8ff" d="M1390.73,-389.81C1237.24,-378.83 817,-343.46 817,-285.5 817,-285.5 817,-285.5 817,-228.5 817,-120.78 690.7,-180.33 596,-129 567.95,-113.8 537.26,-93.5 517.6,-79.98"/>
<polygon fill="#63b8ff" stroke="#63b8ff" points="519.36,-76.94 509.15,-74.12 515.37,-82.7 519.36,-76.94"/>
</g>
<!-- Node36 -->
<g id="node36" class="node">
<title>Node36</title>
<g id="a_node36"><a xlink:href="Ioss__Version_8h.html" target="_top" xlink:title=" ">
<polygon fill="white" stroke="#666666" points="1708,-349 1626,-349 1626,-330 1708,-330 1708,-349"/>
<text text-anchor="middle" x="1667" y="-337" font-family="Helvetica,sans-Serif" font-size="10.00">Ioss_Version.h</text>
</a>
</g>
</g>
<!-- Node1&#45;&gt;Node36 -->
<g id="edge74" class="edge">
<title>Node1&#45;&gt;Node36</title>
<path fill="none" stroke="#63b8ff" d="M1481.51,-384.98C1519.49,-375.87 1579.87,-361.4 1621.36,-351.45"/>
<polygon fill="#63b8ff" stroke="#63b8ff" points="1622.31,-354.82 1631.21,-349.08 1620.67,-348.01 1622.31,-354.82"/>
</g>
<!-- Node37 -->
<g id="node37" class="node">
<title>Node37</title>
<g id="a_node37"><a xlink:title=" ">
<polygon fill="#e0e0e0" stroke="#999999" points="1803.5,-349 1726.5,-349 1726.5,-330 1803.5,-330 1803.5,-349"/>
<text text-anchor="middle" x="1765" y="-337" font-family="Helvetica,sans-Serif" font-size="10.00">fmt/ostream.h</text>
</a>
</g>
</g>
<!-- Node1&#45;&gt;Node37 -->
<g id="edge76" class="edge">
<title>Node1&#45;&gt;Node37</title>
<path fill="none" stroke="#63b8ff" d="M1499,-385C1551.52,-376.53 1634.53,-363.02 1716.51,-349.07"/>
<polygon fill="#63b8ff" stroke="#63b8ff" points="1717.23,-352.49 1726.49,-347.36 1716.05,-345.59 1717.23,-352.49"/>
</g>
<!-- Node38 -->
<g id="node38" class="node">
<title>Node38</title>
<g id="a_node38"><a xlink:title=" ">
<polygon fill="#e0e0e0" stroke="#999999" points="1874,-349 1822,-349 1822,-330 1874,-330 1874,-349"/>
<text text-anchor="middle" x="1848" y="-337" font-family="Helvetica,sans-Serif" font-size="10.00">ostream</text>
</a>
</g>
</g>
<!-- Node1&#45;&gt;Node38 -->
<g id="edge78" class="edge">
<title>Node1&#45;&gt;Node38</title>
<path fill="none" stroke="#63b8ff" d="M1501.02,-388.86C1571.02,-382.51 1695.8,-369.69 1811.6,-349.06"/>
<polygon fill="#63b8ff" stroke="#63b8ff" points="1812.48,-352.46 1821.7,-347.24 1811.23,-345.57 1812.48,-352.46"/>
</g>
<!-- Node3&#45;&gt;Node2 -->
<g id="edge12" class="edge">
<title>Node3&#45;&gt;Node2</title>
<path fill="none" stroke="#63b8ff" d="M1324.23,-334.38C1248.36,-327.39 1091.54,-312.32 947.47,-294"/>
<polygon fill="#63b8ff" stroke="#63b8ff" points="947.48,-290.47 937.12,-292.67 946.6,-297.41 947.48,-290.47"/>
</g>
<!-- Node4 -->
<g id="node4" class="node">
<title>Node4</title>
<g id="a_node4"><a xlink:href="Ioss__CodeTypes_8h.html" target="_top" xlink:title=" ">
<polygon fill="white" stroke="#666666" points="709,-74 611,-74 611,-55 709,-55 709,-74"/>
<text text-anchor="middle" x="660" y="-62" font-family="Helvetica,sans-Serif" font-size="10.00">Ioss_CodeTypes.h</text>
</a>
</g>
</g>
<!-- Node3&#45;&gt;Node4 -->
<g id="edge3" class="edge">
<title>Node3&#45;&gt;Node4</title>
<path fill="none" stroke="#63b8ff" d="M1348.5,-329.84C1284.71,-304.19 1090.88,-226.57 929,-165 885.63,-148.5 873.39,-147.87 831,-129 814.47,-121.64 811.65,-117.08 795,-110 764.09,-96.86 727.88,-85.11 700.75,-76.99"/>
<polygon fill="#63b8ff" stroke="#63b8ff" points="701.41,-73.54 690.83,-74.06 699.43,-80.25 701.41,-73.54"/>
</g>
<!-- Node3&#45;&gt;Node8 -->
<g id="edge11" class="edge">
<title>Node3&#45;&gt;Node8</title>
<path fill="none" stroke="#63b8ff" d="M1395.97,-329.88C1445.35,-311.9 1551.55,-265.16 1593,-184 1607.96,-154.71 1607.87,-139.34 1593,-110 1560.52,-45.9 1470.42,-22.51 1422.65,-14.45"/>
<polygon fill="#63b8ff" stroke="#63b8ff" points="1423,-10.96 1412.58,-12.87 1421.92,-17.88 1423,-10.96"/>
</g>
<!-- Node9 -->
<g id="node9" class="node">
<title>Node9</title>
<g id="a_node9"><a xlink:title=" ">
<polygon fill="#e0e0e0" stroke="#999999" points="1020,-19 976,-19 976,0 1020,0 1020,-19"/>
<text text-anchor="middle" x="998" y="-7" font-family="Helvetica,sans-Serif" font-size="10.00">vector</text>
</a>
</g>
</g>
<!-- Node3&#45;&gt;Node9 -->
<g id="edge71" class="edge">
<title>Node3&#45;&gt;Node9</title>
<path fill="none" stroke="#63b8ff" d="M1379.17,-329.94C1418.06,-292.65 1563.75,-142.38 1484,-55 1453.42,-21.49 1133.85,-12.9 1030.24,-10.99"/>
<polygon fill="#63b8ff" stroke="#63b8ff" points="1030.13,-7.49 1020.07,-10.81 1030.01,-14.49 1030.13,-7.49"/>
</g>
<!-- Node3&#45;&gt;Node12 -->
<g id="edge13" class="edge">
<title>Node3&#45;&gt;Node12</title>
<path fill="none" stroke="#63b8ff" d="M1324.27,-331.84C1258.98,-322.34 1138.95,-304.86 1066.42,-294.3"/>
<polygon fill="#63b8ff" stroke="#63b8ff" points="1066.91,-290.83 1056.51,-292.85 1065.9,-297.76 1066.91,-290.83"/>
</g>
<!-- Node3&#45;&gt;Node18 -->
<g id="edge70" class="edge">
<title>Node3&#45;&gt;Node18</title>
<path fill="none" stroke="#63b8ff" d="M1372.8,-329.73C1385.04,-291.3 1434.09,-137.38 1451.13,-83.91"/>
<polygon fill="#63b8ff" stroke="#63b8ff" points="1454.56,-84.7 1454.26,-74.11 1447.89,-82.57 1454.56,-84.7"/>
</g>
<!-- Node34 -->
<g id="node34" class="node">
<title>Node34</title>
<g id="a_node34"><a xlink:href="Ioss__PropertyManager_8h.html" target="_top" xlink:title=" ">
<polygon fill="white" stroke="#666666" points="1275,-129 1153,-129 1153,-110 1275,-110 1275,-129"/>
<text text-anchor="middle" x="1214" y="-117" font-family="Helvetica,sans-Serif" font-size="10.00">Ioss_PropertyManager.h</text>
</a>
</g>
</g>
<!-- Node3&#45;&gt;Node34 -->
<g id="edge63" class="edge">
<title>Node3&#45;&gt;Node34</title>
<path fill="none" stroke="#63b8ff" d="M1363.88,-329.95C1340.64,-297.47 1257.5,-181.29 1226.12,-137.43"/>
<polygon fill="#63b8ff" stroke="#63b8ff" points="1228.91,-135.32 1220.24,-129.22 1223.22,-139.39 1228.91,-135.32"/>
</g>
<!-- Node5 -->
<g id="node5" class="node">
<title>Node5</title>
<g id="a_node5"><a xlink:title=" ">
<polygon fill="#e0e0e0" stroke="#999999" points="711,-19 673,-19 673,0 711,0 711,-19"/>
<text text-anchor="middle" x="692" y="-7" font-family="Helvetica,sans-Serif" font-size="10.00">array</text>
</a>
</g>
</g>
<!-- Node4&#45;&gt;Node5 -->
<g id="edge4" class="edge">
<title>Node4&#45;&gt;Node5</title>
<path fill="none" stroke="#63b8ff" d="M665.28,-54.75C669.71,-47.42 676.16,-36.73 681.62,-27.7"/>
<polygon fill="#63b8ff" stroke="#63b8ff" points="684.64,-29.46 686.81,-19.09 678.65,-25.84 684.64,-29.46"/>
</g>
<!-- Node4&#45;&gt;Node6 -->
<g id="edge5" class="edge">
<title>Node4&#45;&gt;Node6</title>
<path fill="none" stroke="#63b8ff" d="M610.91,-57.93C516.01,-47.16 309.54,-23.73 227.56,-14.42"/>
<polygon fill="#63b8ff" stroke="#63b8ff" points="227.84,-10.93 217.51,-13.28 227.05,-17.89 227.84,-10.93"/>
</g>
<!-- Node7 -->
<g id="node7" class="node">
<title>Node7</title>
<g id="a_node7"><a xlink:title=" ">
<polygon fill="#e0e0e0" stroke="#999999" points="583,-19 537,-19 537,0 583,0 583,-19"/>
<text text-anchor="middle" x="560" y="-7" font-family="Helvetica,sans-Serif" font-size="10.00">cstdint</text>
</a>
</g>
</g>
<!-- Node4&#45;&gt;Node7 -->
<g id="edge6" class="edge">
<title>Node4&#45;&gt;Node7</title>
<path fill="none" stroke="#63b8ff" d="M643.93,-54.98C628.14,-46.61 603.78,-33.7 585.37,-23.95"/>
<polygon fill="#63b8ff" stroke="#63b8ff" points="586.83,-20.76 576.36,-19.17 583.56,-26.95 586.83,-20.76"/>
</g>
<!-- Node4&#45;&gt;Node8 -->
<g id="edge7" class="edge">
<title>Node4&#45;&gt;Node8</title>
<path fill="none" stroke="#63b8ff" d="M709.14,-56.54C713.82,-55.98 718.5,-55.45 723,-55 968.62,-30.29 1266.41,-15.98 1361.37,-11.8"/>
<polygon fill="#63b8ff" stroke="#63b8ff" points="1361.59,-15.29 1371.43,-11.36 1361.29,-8.3 1361.59,-15.29"/>
</g>
<!-- Node4&#45;&gt;Node9 -->
<g id="edge8" class="edge">
<title>Node4&#45;&gt;Node9</title>
<path fill="none" stroke="#63b8ff" d="M709.15,-55.79C779.45,-44.77 906.75,-24.81 966.03,-15.51"/>
<polygon fill="#63b8ff" stroke="#63b8ff" points="966.6,-18.97 975.94,-13.96 965.52,-12.05 966.6,-18.97"/>
</g>
<!-- Node10 -->
<g id="node10" class="node">
<title>Node10</title>
<g id="a_node10"><a xlink:title=" ">
<polygon fill="#e0e0e0" stroke="#999999" points="845,-19 729,-19 729,0 845,0 845,-19"/>
<text text-anchor="middle" x="787" y="-7" font-family="Helvetica,sans-Serif" font-size="10.00">SEACASIoss_config.h</text>
</a>
</g>
</g>
<!-- Node4&#45;&gt;Node10 -->
<g id="edge9" class="edge">
<title>Node4&#45;&gt;Node10</title>
<path fill="none" stroke="#63b8ff" d="M680.4,-54.98C701.02,-46.38 733.11,-32.99 756.69,-23.15"/>
<polygon fill="#63b8ff" stroke="#63b8ff" points="758.34,-26.25 766.22,-19.17 755.65,-19.79 758.34,-26.25"/>
</g>
<!-- Node11 -->
<g id="node11" class="node">
<title>Node11</title>
<g id="a_node11"><a xlink:title=" ">
<polygon fill="#e0e0e0" stroke="#999999" points="654.5,-19 601.5,-19 601.5,0 654.5,0 654.5,-19"/>
<text text-anchor="middle" x="628" y="-7" font-family="Helvetica,sans-Serif" font-size="10.00">complex</text>
</a>
</g>
</g>
<!-- Node4&#45;&gt;Node11 -->
<g id="edge10" class="edge">
<title>Node4&#45;&gt;Node11</title>
<path fill="none" stroke="#63b8ff" d="M654.72,-54.75C650.29,-47.42 643.84,-36.73 638.38,-27.7"/>
<polygon fill="#63b8ff" stroke="#63b8ff" points="641.35,-25.84 633.19,-19.09 635.36,-29.46 641.35,-25.84"/>
</g>
<!-- Node12&#45;&gt;Node4 -->
<g id="edge14" class="edge">
<title>Node12&#45;&gt;Node4</title>
<path fill="none" stroke="#63b8ff" d="M1000.74,-274.7C987.32,-252.97 949.66,-196.32 904,-165 864.7,-138.04 847.25,-146.68 803,-129 762.38,-112.77 716.29,-91.84 687.68,-78.54"/>
<polygon fill="#63b8ff" stroke="#63b8ff" points="688.86,-75.23 678.32,-74.17 685.9,-81.57 688.86,-75.23"/>
</g>
<!-- Node12&#45;&gt;Node6 -->
<g id="edge60" class="edge">
<title>Node12&#45;&gt;Node6</title>
<path fill="none" stroke="#63b8ff" d="M955.28,-276.17C952.14,-275.76 949.03,-275.37 946,-275 845.25,-262.77 38,-276.99 38,-175.5 38,-175.5 38,-175.5 38,-118.5 38,-60.11 112.97,-30.7 158.63,-18.2"/>
<polygon fill="#63b8ff" stroke="#63b8ff" points="159.64,-21.55 168.44,-15.65 157.88,-14.78 159.64,-21.55"/>
</g>
<!-- Node12&#45;&gt;Node8 -->
<g id="edge61" class="edge">
<title>Node12&#45;&gt;Node8</title>
<path fill="none" stroke="#63b8ff" d="M1048.15,-274.96C1129.41,-257.19 1311.43,-210.89 1444,-129 1479.32,-107.18 1524.15,-89.46 1501,-55 1483.67,-29.2 1448.47,-18.35 1422.75,-13.79"/>
<polygon fill="#63b8ff" stroke="#63b8ff" points="1423.14,-10.31 1412.72,-12.24 1422.07,-17.23 1423.14,-10.31"/>
</g>
<!-- Node12&#45;&gt;Node9 -->
<g id="edge62" class="edge">
<title>Node12&#45;&gt;Node9</title>
<path fill="none" stroke="#63b8ff" d="M1026.6,-274.96C1064.1,-257.97 1138.07,-217.05 1120,-165 1099.29,-105.35 1044.92,-51.32 1016.27,-25.88"/>
<polygon fill="#63b8ff" stroke="#63b8ff" points="1018.44,-23.12 1008.6,-19.2 1013.84,-28.4 1018.44,-23.12"/>
</g>
<!-- Node12&#45;&gt;Node13 -->
<g id="edge15" class="edge">
<title>Node12&#45;&gt;Node13</title>
<path fill="none" stroke="#63b8ff" d="M955.44,-276.3C882.41,-265.89 748.53,-246.82 678.84,-236.89"/>
<polygon fill="#63b8ff" stroke="#63b8ff" points="679.03,-233.38 668.63,-235.43 678.04,-240.31 679.03,-233.38"/>
</g>
<!-- Node29 -->
<g id="node29" class="node">
<title>Node29</title>
<g id="a_node29"><a xlink:title=" ">
<polygon fill="#e0e0e0" stroke="#999999" points="894.5,-184 845.5,-184 845.5,-165 894.5,-165 894.5,-184"/>
<text text-anchor="middle" x="870" y="-172" font-family="Helvetica,sans-Serif" font-size="10.00">cassert</text>
</a>
</g>
</g>
<!-- Node12&#45;&gt;Node29 -->
<g id="edge59" class="edge">
<title>Node12&#45;&gt;Node29</title>
<path fill="none" stroke="#63b8ff" d="M976.26,-274.97C955.6,-267.9 928.41,-256.2 909,-239 894.96,-226.56 884.31,-207.83 877.71,-193.94"/>
<polygon fill="#63b8ff" stroke="#63b8ff" points="880.75,-192.14 873.47,-184.44 874.35,-194.99 880.75,-192.14"/>
</g>
<!-- Node13&#45;&gt;Node4 -->
<g id="edge16" class="edge">
<title>Node13&#45;&gt;Node4</title>
<path fill="none" stroke="#63b8ff" d="M640.39,-219.77C652.08,-203.14 676.42,-165.34 684,-129 685.73,-120.73 686.07,-118.19 684,-110 681.59,-100.44 676.67,-90.7 671.91,-82.78"/>
<polygon fill="#63b8ff" stroke="#63b8ff" points="674.72,-80.68 666.37,-74.16 668.83,-84.46 674.72,-80.68"/>
</g>
<!-- Node13&#45;&gt;Node6 -->
<g id="edge52" class="edge">
<title>Node13&#45;&gt;Node6</title>
<path fill="none" stroke="#63b8ff" d="M599.43,-227.76C492.89,-225.15 174.74,-214.84 141,-184 95.21,-142.15 150.87,-61.76 178.82,-27.09"/>
<polygon fill="#63b8ff" stroke="#63b8ff" points="181.58,-29.25 185.25,-19.31 176.18,-24.79 181.58,-29.25"/>
</g>
<!-- Node13&#45;&gt;Node7 -->
<g id="edge53" class="edge">
<title>Node13&#45;&gt;Node7</title>
<path fill="none" stroke="#63b8ff" d="M599.27,-227.89C494.62,-225.7 187.62,-216.52 158,-184 119.06,-141.25 132.46,-94.17 175,-55 200.71,-31.32 438.36,-16.76 526.93,-12.12"/>
<polygon fill="#63b8ff" stroke="#63b8ff" points="527.16,-15.61 536.97,-11.6 526.8,-8.62 527.16,-15.61"/>
</g>
<!-- Node13&#45;&gt;Node8 -->
<g id="edge57" class="edge">
<title>Node13&#45;&gt;Node8</title>
<path fill="none" stroke="#63b8ff" d="M668.84,-226.58C801.12,-218.89 1271.65,-187.87 1408,-129 1451.28,-110.31 1509.05,-94.94 1484,-55 1470.63,-33.69 1443.85,-22.33 1422.61,-16.44"/>
<polygon fill="#63b8ff" stroke="#63b8ff" points="1423.26,-13 1412.71,-13.97 1421.57,-19.79 1423.26,-13"/>
</g>
<!-- Node13&#45;&gt;Node9 -->
<g id="edge58" class="edge">
<title>Node13&#45;&gt;Node9</title>
<path fill="none" stroke="#63b8ff" d="M643.85,-219.93C653.77,-211.18 669.35,-197.06 682,-184 734.81,-129.44 728.69,-93.73 794,-55 848.47,-22.7 923.6,-13.76 965.82,-11.34"/>
<polygon fill="#63b8ff" stroke="#63b8ff" points="966,-14.84 975.82,-10.86 965.66,-7.84 966,-14.84"/>
</g>
<!-- Node14 -->
<g id="node14" class="node">
<title>Node14</title>
<g id="a_node14"><a xlink:href="Ioss__ElementTopology_8h.html" target="_top" xlink:title=" ">
<polygon fill="white" stroke="#666666" points="1111,-184 989,-184 989,-165 1111,-165 1111,-184"/>
<text text-anchor="middle" x="1050" y="-172" font-family="Helvetica,sans-Serif" font-size="10.00">Ioss_ElementTopology.h</text>
</a>
</g>
</g>
<!-- Node13&#45;&gt;Node14 -->
<g id="edge17" class="edge">
<title>Node13&#45;&gt;Node14</title>
<path fill="none" stroke="#63b8ff" d="M668.75,-224.07C736.73,-215.41 888.49,-196.08 978.69,-184.58"/>
<polygon fill="#63b8ff" stroke="#63b8ff" points="979.36,-188.03 988.84,-183.29 978.48,-181.08 979.36,-188.03"/>
</g>
<!-- Node20 -->
<g id="node20" class="node">
<title>Node20</title>
<g id="a_node20"><a xlink:href="Ioss__EntityType_8h.html" target="_top" xlink:title=" ">
<polygon fill="white" stroke="#666666" points="275.5,-184 180.5,-184 180.5,-165 275.5,-165 275.5,-184"/>
<text text-anchor="middle" x="228" y="-172" font-family="Helvetica,sans-Serif" font-size="10.00">Ioss_EntityType.h</text>
</a>
</g>
</g>
<!-- Node13&#45;&gt;Node20 -->
<g id="edge30" class="edge">
<title>Node13&#45;&gt;Node20</title>
<path fill="none" stroke="#63b8ff" d="M599.29,-224.32C538.24,-216.92 407.37,-200.81 285.8,-184.08"/>
<polygon fill="#63b8ff" stroke="#63b8ff" points="285.96,-180.57 275.57,-182.67 285,-187.51 285.96,-180.57"/>
</g>
<!-- Node21 -->
<g id="node21" class="node">
<title>Node21</title>
<g id="a_node21"><a xlink:href="Ioss__Field_8h.html" target="_top" xlink:title=" ">
<polygon fill="white" stroke="#666666" points="675,-129 605,-129 605,-110 675,-110 675,-129"/>
<text text-anchor="middle" x="640" y="-117" font-family="Helvetica,sans-Serif" font-size="10.00">Ioss_Field.h</text>
</a>
</g>
</g>
<!-- Node13&#45;&gt;Node21 -->
<g id="edge31" class="edge">
<title>Node13&#45;&gt;Node21</title>
<path fill="none" stroke="#63b8ff" d="M636.83,-219.75C639.55,-210.86 643.46,-196.64 645,-184 646.82,-169.04 645.29,-152.01 643.45,-139.36"/>
<polygon fill="#63b8ff" stroke="#63b8ff" points="646.85,-138.45 641.77,-129.15 639.94,-139.59 646.85,-138.45"/>
</g>
<!-- Node22 -->
<g id="node22" class="node">
<title>Node22</title>
<g id="a_node22"><a xlink:href="Ioss__Property_8h.html" target="_top" xlink:title=" ">
<polygon fill="white" stroke="#666666" points="1205,-74 1121,-74 1121,-55 1205,-55 1205,-74"/>
<text text-anchor="middle" x="1163" y="-62" font-family="Helvetica,sans-Serif" font-size="10.00">Ioss_Property.h</text>
</a>
</g>
</g>
<!-- Node13&#45;&gt;Node22 -->
<g id="edge36" class="edge">
<title>Node13&#45;&gt;Node22</title>
<path fill="none" stroke="#63b8ff" d="M657.98,-219.92C695.55,-206.72 770.72,-181.25 836,-165 921.1,-143.81 946.61,-156.12 1030,-129 1070.09,-115.96 1113.67,-93.4 1139.64,-78.98"/>
<polygon fill="#63b8ff" stroke="#63b8ff" points="1141.37,-82.02 1148.37,-74.07 1137.94,-75.92 1141.37,-82.02"/>
</g>
<!-- Node23 -->
<g id="node23" class="node">
<title>Node23</title>
<g id="a_node23"><a xlink:href="Ioss__Sort_8h.html" target="_top" xlink:title=" ">
<polygon fill="white" stroke="#666666" points="636.5,-184 569.5,-184 569.5,-165 636.5,-165 636.5,-184"/>
<text text-anchor="middle" x="603" y="-172" font-family="Helvetica,sans-Serif" font-size="10.00">Ioss_Sort.h</text>
</a>
</g>
</g>
<!-- Node13&#45;&gt;Node23 -->
<g id="edge40" class="edge">
<title>Node13&#45;&gt;Node23</title>
<path fill="none" stroke="#63b8ff" d="M628.88,-219.75C624.64,-212.49 618.47,-201.95 613.22,-192.98"/>
<polygon fill="#63b8ff" stroke="#63b8ff" points="616.09,-190.95 608.02,-184.09 610.05,-194.49 616.09,-190.95"/>
</g>
<!-- Node25 -->
<g id="node25" class="node">
<title>Node25</title>
<g id="a_node25"><a xlink:title=" ">
<polygon fill="#e0e0e0" stroke="#999999" points="240,-74 184,-74 184,-55 240,-55 240,-74"/>
<text text-anchor="middle" x="212" y="-62" font-family="Helvetica,sans-Serif" font-size="10.00">algorithm</text>
</a>
</g>
</g>
<!-- Node13&#45;&gt;Node25 -->
<g id="edge49" class="edge">
<title>Node13&#45;&gt;Node25</title>
<path fill="none" stroke="#63b8ff" d="M599.5,-227.8C497.01,-225.36 199.71,-215.6 171,-184 144.29,-154.6 176.49,-106.9 197.19,-81.93"/>
<polygon fill="#63b8ff" stroke="#63b8ff" points="200.05,-83.98 203.92,-74.11 194.74,-79.41 200.05,-83.98"/>
</g>
<!-- Node13&#45;&gt;Node29 -->
<g id="edge50" class="edge">
<title>Node13&#45;&gt;Node29</title>
<path fill="none" stroke="#63b8ff" d="M668.57,-220.74C713.35,-210.68 790.95,-193.25 835.63,-183.22"/>
<polygon fill="#63b8ff" stroke="#63b8ff" points="836.45,-186.62 845.44,-181.02 834.92,-179.79 836.45,-186.62"/>
</g>
<!-- Node30 -->
<g id="node30" class="node">
<title>Node30</title>
<g id="a_node30"><a xlink:title=" ">
<polygon fill="#e0e0e0" stroke="#999999" points="338,-184 294,-184 294,-165 338,-165 338,-184"/>
<text text-anchor="middle" x="316" y="-172" font-family="Helvetica,sans-Serif" font-size="10.00">cmath</text>
</a>
</g>
</g>
<!-- Node13&#45;&gt;Node30 -->
<g id="edge51" class="edge">
<title>Node13&#45;&gt;Node30</title>
<path fill="none" stroke="#63b8ff" d="M599.31,-224.42C546.92,-217.97 444.34,-204.25 348.16,-184.04"/>
<polygon fill="#63b8ff" stroke="#63b8ff" points="348.79,-180.59 338.28,-181.93 347.33,-187.44 348.79,-180.59"/>
</g>
<!-- Node31 -->
<g id="node31" class="node">
<title>Node31</title>
<g id="a_node31"><a xlink:title=" ">
<polygon fill="#e0e0e0" stroke="#999999" points="401.5,-184 356.5,-184 356.5,-165 401.5,-165 401.5,-184"/>
<text text-anchor="middle" x="379" y="-172" font-family="Helvetica,sans-Serif" font-size="10.00">cstdlib</text>
</a>
</g>
</g>
<!-- Node13&#45;&gt;Node31 -->
<g id="edge54" class="edge">
<title>Node13&#45;&gt;Node31</title>
<path fill="none" stroke="#63b8ff" d="M599.47,-222.3C557.41,-214.6 483.99,-200.68 411.44,-183.98"/>
<polygon fill="#63b8ff" stroke="#63b8ff" points="412.21,-180.56 401.68,-181.71 410.63,-187.38 412.21,-180.56"/>
</g>
<!-- Node32 -->
<g id="node32" class="node">
<title>Node32</title>
<g id="a_node32"><a xlink:title=" ">
<polygon fill="#e0e0e0" stroke="#999999" points="474,-184 420,-184 420,-165 474,-165 474,-184"/>
<text text-anchor="middle" x="447" y="-172" font-family="Helvetica,sans-Serif" font-size="10.00">iostream</text>
</a>
</g>
</g>
<!-- Node13&#45;&gt;Node32 -->
<g id="edge55" class="edge">
<title>Node13&#45;&gt;Node32</title>
<path fill="none" stroke="#63b8ff" d="M603.96,-219.98C571.35,-210.74 519.25,-195.98 484.11,-186.02"/>
<polygon fill="#63b8ff" stroke="#63b8ff" points="484.81,-182.58 474.23,-183.22 482.9,-189.31 484.81,-182.58"/>
</g>
<!-- Node33 -->
<g id="node33" class="node">
<title>Node33</title>
<g id="a_node33"><a xlink:title=" ">
<polygon fill="#e0e0e0" stroke="#999999" points="551.5,-184 492.5,-184 492.5,-165 551.5,-165 551.5,-184"/>
<text text-anchor="middle" x="522" y="-172" font-family="Helvetica,sans-Serif" font-size="10.00">stdexcept</text>
</a>
</g>
</g>
<!-- Node13&#45;&gt;Node33 -->
<g id="edge56" class="edge">
<title>Node13&#45;&gt;Node33</title>
<path fill="none" stroke="#63b8ff" d="M616.01,-219.98C598.07,-211.5 570.28,-198.35 549.57,-188.54"/>
<polygon fill="#63b8ff" stroke="#63b8ff" points="550.86,-185.28 540.32,-184.17 547.86,-191.61 550.86,-185.28"/>
</g>
<!-- Node14&#45;&gt;Node4 -->
<g id="edge18" class="edge">
<title>Node14&#45;&gt;Node4</title>
<path fill="none" stroke="#63b8ff" d="M1007.81,-164.93C971.79,-157.12 918.85,-144.45 874,-129 854.25,-122.19 850.73,-116.88 831,-110 791.06,-96.08 744.53,-84.25 710.1,-76.29"/>
<polygon fill="#63b8ff" stroke="#63b8ff" points="710.81,-72.86 700.28,-74.05 709.25,-79.68 710.81,-72.86"/>
</g>
<!-- Node14&#45;&gt;Node8 -->
<g id="edge28" class="edge">
<title>Node14&#45;&gt;Node8</title>
<path fill="none" stroke="#63b8ff" d="M1111.23,-167.8C1159.39,-161.92 1227.57,-150.46 1284,-129 1286.78,-127.94 1374.22,-76.39 1376,-74 1385.65,-61.03 1389.51,-42.88 1391.04,-29.3"/>
<polygon fill="#63b8ff" stroke="#63b8ff" points="1394.54,-29.44 1391.86,-19.19 1387.57,-28.88 1394.54,-29.44"/>
</g>
<!-- Node14&#45;&gt;Node9 -->
<g id="edge29" class="edge">
<title>Node14&#45;&gt;Node9</title>
<path fill="none" stroke="#63b8ff" d="M1047.3,-164.87C1043.47,-152.65 1036.24,-129.6 1030,-110 1020.95,-81.55 1010.31,-48.57 1003.87,-28.63"/>
<polygon fill="#63b8ff" stroke="#63b8ff" points="1007.16,-27.45 1000.76,-19.01 1000.5,-29.6 1007.16,-27.45"/>
</g>
<!-- Node15 -->
<g id="node15" class="node">
<title>Node15</title>
<g id="a_node15"><a xlink:href="Ioss__ElementPermutation_8h.html" target="_top" xlink:title=" ">
<polygon fill="white" stroke="#666666" points="1020.5,-129 883.5,-129 883.5,-110 1020.5,-110 1020.5,-129"/>
<text text-anchor="middle" x="952" y="-117" font-family="Helvetica,sans-Serif" font-size="10.00">Ioss_ElementPermutation.h</text>
</a>
</g>
</g>
<!-- Node14&#45;&gt;Node15 -->
<g id="edge19" class="edge">
<title>Node14&#45;&gt;Node15</title>
<path fill="none" stroke="#63b8ff" d="M1034.25,-164.98C1018.77,-156.61 994.91,-143.7 976.86,-133.95"/>
<polygon fill="#63b8ff" stroke="#63b8ff" points="978.49,-130.85 968.03,-129.17 975.16,-137.01 978.49,-130.85"/>
</g>
<!-- Node14&#45;&gt;Node18 -->
<g id="edge26" class="edge">
<title>Node14&#45;&gt;Node18</title>
<path fill="none" stroke="#63b8ff" d="M1111.21,-167.88C1166.01,-161.78 1248.1,-149.97 1317,-129 1319.93,-128.11 1390.5,-95.91 1430.3,-77.72"/>
<polygon fill="#63b8ff" stroke="#63b8ff" points="1431.82,-80.87 1439.46,-73.53 1428.91,-74.5 1431.82,-80.87"/>
</g>
<!-- Node14&#45;&gt;Node19 -->
<g id="edge27" class="edge">
<title>Node14&#45;&gt;Node19</title>
<path fill="none" stroke="#63b8ff" d="M1111.21,-167.13C1173.12,-160.08 1271.35,-147.27 1355,-129 1356.27,-128.72 1357.56,-128.42 1358.87,-128.1"/>
<polygon fill="#63b8ff" stroke="#63b8ff" points="1360.02,-131.41 1368.75,-125.4 1358.18,-124.66 1360.02,-131.41"/>
</g>
<!-- Node15&#45;&gt;Node4 -->
<g id="edge20" class="edge">
<title>Node15&#45;&gt;Node4</title>
<path fill="none" stroke="#63b8ff" d="M905.09,-109.98C853.94,-100.7 772.08,-85.84 717.2,-75.88"/>
<polygon fill="#63b8ff" stroke="#63b8ff" points="717.75,-72.42 707.28,-74.08 716.5,-79.31 717.75,-72.42"/>
</g>
<!-- Node15&#45;&gt;Node8 -->
<g id="edge24" class="edge">
<title>Node15&#45;&gt;Node8</title>
<path fill="none" stroke="#63b8ff" d="M969.79,-109.93C998.87,-96.27 1058.68,-69.63 1112,-55 1200.63,-30.69 1308.93,-18.17 1361.05,-13.17"/>
<polygon fill="#63b8ff" stroke="#63b8ff" points="1361.66,-16.63 1371.29,-12.22 1361.01,-9.66 1361.66,-16.63"/>
</g>
<!-- Node15&#45;&gt;Node9 -->
<g id="edge25" class="edge">
<title>Node15&#45;&gt;Node9</title>
<path fill="none" stroke="#63b8ff" d="M955.76,-109.66C963.28,-92.01 980.29,-52.09 990.28,-28.64"/>
<polygon fill="#63b8ff" stroke="#63b8ff" points="993.61,-29.73 994.31,-19.16 987.17,-26.99 993.61,-29.73"/>
</g>
<!-- Node16 -->
<g id="node16" class="node">
<title>Node16</title>
<g id="a_node16"><a xlink:title=" ">
<polygon fill="#e0e0e0" stroke="#999999" points="855,-74 803,-74 803,-55 855,-55 855,-74"/>
<text text-anchor="middle" x="829" y="-62" font-family="Helvetica,sans-Serif" font-size="10.00">assert.h</text>
</a>
</g>
</g>
<!-- Node15&#45;&gt;Node16 -->
<g id="edge21" class="edge">
<title>Node15&#45;&gt;Node16</title>
<path fill="none" stroke="#63b8ff" d="M932.24,-109.98C912.27,-101.38 881.2,-87.99 858.35,-78.15"/>
<polygon fill="#63b8ff" stroke="#63b8ff" points="859.69,-74.91 849.12,-74.17 856.92,-81.34 859.69,-74.91"/>
</g>
<!-- Node17 -->
<g id="node17" class="node">
<title>Node17</title>
<g id="a_node17"><a xlink:title=" ">
<polygon fill="#e0e0e0" stroke="#999999" points="913,-74 873,-74 873,-55 913,-55 913,-74"/>
<text text-anchor="middle" x="893" y="-62" font-family="Helvetica,sans-Serif" font-size="10.00">limits</text>
</a>
</g>
</g>
<!-- Node15&#45;&gt;Node17 -->
<g id="edge22" class="edge">
<title>Node15&#45;&gt;Node17</title>
<path fill="none" stroke="#63b8ff" d="M942.52,-109.98C933.8,-102.15 920.66,-90.34 910.1,-80.86"/>
<polygon fill="#63b8ff" stroke="#63b8ff" points="912.43,-78.25 902.65,-74.17 907.75,-83.46 912.43,-78.25"/>
</g>
<!-- Node15&#45;&gt;Node18 -->
<g id="edge23" class="edge">
<title>Node15&#45;&gt;Node18</title>
<path fill="none" stroke="#63b8ff" d="M1020.63,-111.3C1132.96,-99.51 1351.31,-76.59 1428.85,-68.45"/>
<polygon fill="#63b8ff" stroke="#63b8ff" points="1429.66,-71.89 1439.24,-67.36 1428.93,-64.93 1429.66,-71.89"/>
</g>
<!-- Node21&#45;&gt;Node4 -->
<g id="edge32" class="edge">
<title>Node21&#45;&gt;Node4</title>
<path fill="none" stroke="#63b8ff" d="M643.3,-109.75C645.98,-102.65 649.85,-92.4 653.19,-83.56"/>
<polygon fill="#63b8ff" stroke="#63b8ff" points="656.5,-84.68 656.76,-74.09 649.95,-82.21 656.5,-84.68"/>
</g>
<!-- Node21&#45;&gt;Node6 -->
<g id="edge33" class="edge">
<title>Node21&#45;&gt;Node6</title>
<path fill="none" stroke="#63b8ff" d="M628.06,-109.83C608.05,-95.78 565.99,-68.28 526,-55 421.3,-20.24 289.53,-12.55 227.85,-10.91"/>
<polygon fill="#63b8ff" stroke="#63b8ff" points="227.6,-7.4 217.52,-10.67 227.44,-14.4 227.6,-7.4"/>
</g>
<!-- Node21&#45;&gt;Node8 -->
<g id="edge34" class="edge">
<title>Node21&#45;&gt;Node8</title>
<path fill="none" stroke="#63b8ff" d="M656.06,-109.87C683.46,-95.6 741.38,-67.47 794,-55 903.57,-29.03 1254.96,-15.18 1361.25,-11.5"/>
<polygon fill="#63b8ff" stroke="#63b8ff" points="1361.44,-15 1371.32,-11.16 1361.2,-8 1361.44,-15"/>
</g>
<!-- Node21&#45;&gt;Node9 -->
<g id="edge35" class="edge">
<title>Node21&#45;&gt;Node9</title>
<path fill="none" stroke="#63b8ff" d="M628.14,-109.81C611.92,-96.9 586.5,-72.34 602,-55 614.11,-41.45 873.26,-20.15 965.64,-12.96"/>
<polygon fill="#63b8ff" stroke="#63b8ff" points="966.11,-16.44 975.81,-12.18 965.57,-9.46 966.11,-16.44"/>
</g>
<!-- Node22&#45;&gt;Node7 -->
<g id="edge37" class="edge">
<title>Node22&#45;&gt;Node7</title>
<path fill="none" stroke="#63b8ff" d="M1120.65,-61.2C1009.77,-55.03 711.97,-37.42 593.53,-18.9"/>
<polygon fill="#63b8ff" stroke="#63b8ff" points="593.75,-15.38 583.31,-17.22 592.61,-22.29 593.75,-15.38"/>
</g>
<!-- Node22&#45;&gt;Node8 -->
<g id="edge38" class="edge">
<title>Node22&#45;&gt;Node8</title>
<path fill="none" stroke="#63b8ff" d="M1199.79,-54.98C1244.67,-44.6 1319.69,-27.24 1361.5,-17.56"/>
<polygon fill="#63b8ff" stroke="#63b8ff" points="1362.42,-20.94 1371.37,-15.27 1360.84,-14.12 1362.42,-20.94"/>
</g>
<!-- Node22&#45;&gt;Node9 -->
<g id="edge39" class="edge">
<title>Node22&#45;&gt;Node9</title>
<path fill="none" stroke="#63b8ff" d="M1136.49,-54.98C1107.52,-45.68 1061.1,-30.77 1030.09,-20.81"/>
<polygon fill="#63b8ff" stroke="#63b8ff" points="1030.8,-17.36 1020.21,-17.63 1028.66,-24.03 1030.8,-17.36"/>
</g>
<!-- Node23&#45;&gt;Node6 -->
<g id="edge47" class="edge">
<title>Node23&#45;&gt;Node6</title>
<path fill="none" stroke="#63b8ff" d="M569.23,-166.67C566.11,-166.09 563,-165.52 560,-165 386.78,-134.85 275.04,-218.59 175,-74 165.36,-60.07 172.86,-41.04 180.92,-27.46"/>
<polygon fill="#63b8ff" stroke="#63b8ff" points="183.87,-29.34 186.38,-19.05 178,-25.53 183.87,-29.34"/>
</g>
<!-- Node23&#45;&gt;Node9 -->
<g id="edge48" class="edge">
<title>Node23&#45;&gt;Node9</title>
<path fill="none" stroke="#63b8ff" d="M578.54,-164.87C529.3,-146.25 426.31,-100.34 468,-55 476.49,-45.77 852.24,-20.16 965.82,-12.62"/>
<polygon fill="#63b8ff" stroke="#63b8ff" points="966.22,-16.1 975.97,-11.94 965.76,-9.11 966.22,-16.1"/>
</g>
<!-- Node24 -->
<g id="node24" class="node">
<title>Node24</title>
<g id="a_node24"><a xlink:href="pdqsort_8h.html" target="_top" xlink:title=" ">
<polygon fill="white" stroke="#666666" points="387.5,-129 330.5,-129 330.5,-110 387.5,-110 387.5,-129"/>
<text text-anchor="middle" x="359" y="-117" font-family="Helvetica,sans-Serif" font-size="10.00">pdqsort.h</text>
</a>
</g>
</g>
<!-- Node23&#45;&gt;Node24 -->
<g id="edge41" class="edge">
<title>Node23&#45;&gt;Node24</title>
<path fill="none" stroke="#63b8ff" d="M569.33,-166.19C524.39,-156.42 444.97,-139.17 397.64,-128.89"/>
<polygon fill="#63b8ff" stroke="#63b8ff" points="398.28,-125.45 387.77,-126.75 396.8,-132.29 398.28,-125.45"/>
</g>
<!-- Node24&#45;&gt;Node6 -->
<g id="edge43" class="edge">
<title>Node24&#45;&gt;Node6</title>
<path fill="none" stroke="#63b8ff" d="M344.82,-109.97C330.22,-101.13 306.87,-86.84 287,-74 261.56,-57.55 232.75,-37.94 213.81,-24.91"/>
<polygon fill="#63b8ff" stroke="#63b8ff" points="215.58,-21.88 205.36,-19.08 211.61,-27.64 215.58,-21.88"/>
</g>
<!-- Node24&#45;&gt;Node25 -->
<g id="edge42" class="edge">
<title>Node24&#45;&gt;Node25</title>
<path fill="none" stroke="#63b8ff" d="M335.38,-109.98C311.1,-101.23 273.05,-87.51 245.63,-77.62"/>
<polygon fill="#63b8ff" stroke="#63b8ff" points="246.64,-74.27 236.05,-74.17 244.27,-80.85 246.64,-74.27"/>
</g>
<!-- Node26 -->
<g id="node26" class="node">
<title>Node26</title>
<g id="a_node26"><a xlink:title=" ">
<polygon fill="#e0e0e0" stroke="#999999" points="355.5,-74 296.5,-74 296.5,-55 355.5,-55 355.5,-74"/>
<text text-anchor="middle" x="326" y="-62" font-family="Helvetica,sans-Serif" font-size="10.00">functional</text>
</a>
</g>
</g>
<!-- Node24&#45;&gt;Node26 -->
<g id="edge44" class="edge">
<title>Node24&#45;&gt;Node26</title>
<path fill="none" stroke="#63b8ff" d="M353.55,-109.75C348.99,-102.42 342.33,-91.73 336.71,-82.7"/>
<polygon fill="#63b8ff" stroke="#63b8ff" points="339.6,-80.73 331.35,-74.09 333.66,-84.43 339.6,-80.73"/>
</g>
<!-- Node27 -->
<g id="node27" class="node">
<title>Node27</title>
<g id="a_node27"><a xlink:title=" ">
<polygon fill="#e0e0e0" stroke="#999999" points="420.5,-74 373.5,-74 373.5,-55 420.5,-55 420.5,-74"/>
<text text-anchor="middle" x="397" y="-62" font-family="Helvetica,sans-Serif" font-size="10.00">iterator</text>
</a>
</g>
</g>
<!-- Node24&#45;&gt;Node27 -->
<g id="edge45" class="edge">
<title>Node24&#45;&gt;Node27</title>
<path fill="none" stroke="#63b8ff" d="M365.27,-109.75C370.59,-102.34 378.36,-91.5 384.88,-82.41"/>
<polygon fill="#63b8ff" stroke="#63b8ff" points="387.86,-84.26 390.84,-74.09 382.17,-80.18 387.86,-84.26"/>
</g>
<!-- Node24&#45;&gt;Node28 -->
<g id="edge46" class="edge">
<title>Node24&#45;&gt;Node28</title>
<path fill="none" stroke="#63b8ff" d="M381.17,-109.98C404.44,-101.05 441.17,-86.94 467.02,-77.01"/>
<polygon fill="#63b8ff" stroke="#63b8ff" points="468.6,-80.16 476.68,-73.3 466.09,-73.62 468.6,-80.16"/>
</g>
<!-- Node34&#45;&gt;Node4 -->
<g id="edge64" class="edge">
<title>Node34&#45;&gt;Node4</title>
<path fill="none" stroke="#63b8ff" d="M1152.86,-112.65C1045.7,-102.4 825.29,-81.31 719.38,-71.18"/>
<polygon fill="#63b8ff" stroke="#63b8ff" points="719.48,-67.67 709.19,-70.21 718.81,-74.64 719.48,-67.67"/>
</g>
<!-- Node34&#45;&gt;Node6 -->
<g id="edge66" class="edge">
<title>Node34&#45;&gt;Node6</title>
<path fill="none" stroke="#63b8ff" d="M1182.31,-109.93C1129.01,-95.91 1017.84,-68.27 922,-55 656.68,-18.27 332.84,-11.86 227.72,-10.74"/>
<polygon fill="#63b8ff" stroke="#63b8ff" points="227.71,-7.24 217.68,-10.64 227.64,-14.24 227.71,-7.24"/>
</g>
<!-- Node34&#45;&gt;Node8 -->
<g id="edge67" class="edge">
<title>Node34&#45;&gt;Node8</title>
<path fill="none" stroke="#63b8ff" d="M1271.62,-109.93C1298.82,-103.59 1330.4,-92.68 1354,-74 1368.77,-62.31 1379.09,-43.18 1385.21,-28.97"/>
<polygon fill="#63b8ff" stroke="#63b8ff" points="1388.62,-29.85 1389.07,-19.26 1382.12,-27.26 1388.62,-29.85"/>
</g>
<!-- Node34&#45;&gt;Node9 -->
<g id="edge69" class="edge">
<title>Node34&#45;&gt;Node9</title>
<path fill="none" stroke="#63b8ff" d="M1217.04,-109.99C1221.21,-96.65 1226.81,-70.72 1214,-55 1191.21,-27.04 1084.94,-16.13 1030.43,-12.32"/>
<polygon fill="#63b8ff" stroke="#63b8ff" points="1030.47,-8.81 1020.26,-11.65 1030.01,-15.8 1030.47,-8.81"/>
</g>
<!-- Node34&#45;&gt;Node22 -->
<g id="edge65" class="edge">
<title>Node34&#45;&gt;Node22</title>
<path fill="none" stroke="#63b8ff" d="M1205.58,-109.75C1198.23,-102.11 1187.37,-90.82 1178.46,-81.56"/>
<polygon fill="#63b8ff" stroke="#63b8ff" points="1180.72,-78.87 1171.26,-74.09 1175.68,-83.72 1180.72,-78.87"/>
</g>
<!-- Node35 -->
<g id="node35" class="node">
<title>Node35</title>
<g id="a_node35"><a xlink:title=" ">
<polygon fill="#e0e0e0" stroke="#999999" points="1344.5,-74 1261.5,-74 1261.5,-55 1344.5,-55 1344.5,-74"/>
<text text-anchor="middle" x="1303" y="-62" font-family="Helvetica,sans-Serif" font-size="10.00">unordered_map</text>
</a>
</g>
</g>
<!-- Node34&#45;&gt;Node35 -->
<g id="edge68" class="edge">
<title>Node34&#45;&gt;Node35</title>
<path fill="none" stroke="#63b8ff" d="M1228.3,-109.98C1242.1,-101.77 1263.24,-89.18 1279.51,-79.49"/>
<polygon fill="#63b8ff" stroke="#63b8ff" points="1281.64,-82.29 1288.44,-74.17 1278.06,-76.28 1281.64,-82.29"/>
</g>
</g>
</svg>
        <g id="navigator" transform="translate(0 0)" fill="#404254">
                <rect fill="#f2f5e9" fill-opacity="0.5" stroke="#606060" stroke-width=".5" x="0" y="0" width="60" height="60"/>
                <use id="zoomplus" xlink:href="#zoomPlus" x="17" y="9" onmousedown="handleZoom(evt,'in')"/>
                <use id="zoomminus" xlink:href="#zoomMin" x="42" y="9" onmousedown="handleZoom(evt,'out')"/>
                <use id="reset" xlink:href="#resetDef" x="30" y="36" onmousedown="handleReset()"/>
                <g id="arrowUp" xlink:href="#dirArrow" transform="translate(30 24)" onmousedown="handlePan(0,-1)">
                  <use xlink:href="#rim" fill="#404040">
                        <set attributeName="fill" to="#808080" begin="arrowUp.mouseover" end="arrowUp.mouseout"/>
                  </use>
                  <path fill="none" stroke="white" stroke-width="1.5" d="M0,-3.0v7 M-2.5,-0.5L0,-3.0L2.5,-0.5"/>
                </g>
                <g id="arrowRight" xlink:href="#dirArrow" transform="rotate(90) translate(36 -43)" onmousedown="handlePan(1,0)">
                  <use xlink:href="#rim" fill="#404040">
                        <set attributeName="fill" to="#808080" begin="arrowRight.mouseover" end="arrowRight.mouseout"/>
                  </use>
                  <path fill="none" stroke="white" stroke-width="1.5" d="M0,-3.0v7 M-2.5,-0.5L0,-3.0L2.5,-0.5"/>
                </g>
                <g id="arrowDown" xlink:href="#dirArrow" transform="rotate(180) translate(-30 -48)" onmousedown="handlePan(0,1)">
                  <use xlink:href="#rim" fill="#404040">
                        <set attributeName="fill" to="#808080" begin="arrowDown.mouseover" end="arrowDown.mouseout"/>
                  </use>
                  <path fill="none" stroke="white" stroke-width="1.5" d="M0,-3.0v7 M-2.5,-0.5L0,-3.0L2.5,-0.5"/>
                </g>
                <g id="arrowLeft" xlink:href="#dirArrow" transform="rotate(270) translate(-36 17)" onmousedown="handlePan(-1,0)">
                  <use xlink:href="#rim" fill="#404040">
                        <set attributeName="fill" to="#808080" begin="arrowLeft.mouseover" end="arrowLeft.mouseout"/>
                  </use>
                  <path fill="none" stroke="white" stroke-width="1.5" d="M0,-3.0v7 M-2.5,-0.5L0,-3.0L2.5,-0.5"/>
                </g>
        </g>
        <svg viewBox="0 0 15 15" width="100%" height="30px" preserveAspectRatio="xMaxYMin meet">
         <g id="arrow_out" transform="scale(0.3 0.3)">
          <a xlink:href="Ioss__IOFactory_8C__incl_org.svg" target="_base">
           <rect id="button" ry="5" rx="5" y="6" x="6" height="38" width="38"
                fill="#f2f5e9" fill-opacity="0.5" stroke="#606060" stroke-width="1.0"/>
           <path id="arrow"
             d="M 11.500037,31.436501 C 11.940474,20.09759 22.043105,11.32322 32.158766,21.979434 L 37.068811,17.246167 C 37.068811,17.246167 37.088388,32 37.088388,32 L 22.160133,31.978069 C 22.160133,31.978069 26.997745,27.140456 26.997745,27.140456 C 18.528582,18.264221 13.291696,25.230495 11.500037,31.436501 z"
             style="fill:#404040;"/>
          </a>
         </g>
        </svg>
</svg>
