<?xml version="1.0" encoding="UTF-8" standalone="no"?>
<!DOCTYPE svg PUBLIC "-//W3C//DTD SVG 1.1//EN"
 "http://www.w3.org/Graphics/SVG/1.1/DTD/svg11.dtd">
<!-- Generated by graphviz version 2.49.3 (20211023.0002)
 -->
<!-- Title: src/Ioss_PropertyManager.h Pages: 1 -->
<svg width="609pt" height="140pt"
 viewBox="0.00 0.00 609.00 140.00" xmlns="http://www.w3.org/2000/svg" xmlns:xlink="http://www.w3.org/1999/xlink">
<g id="graph0" class="graph" transform="scale(1 1) rotate(0) translate(4 136)">
<title>src/Ioss_PropertyManager.h</title>
<polygon fill="white" stroke="transparent" points="-4,4 -4,-136 605,-136 605,4 -4,4"/>
<!-- Node1 -->
<g id="node1" class="node">
<title>Node1</title>
<g id="a_node1"><a xlink:title=" ">
<polygon fill="#bfbfbf" stroke="black" points="307.5,-112.5 307.5,-131.5 449.5,-131.5 449.5,-112.5 307.5,-112.5"/>
<text text-anchor="middle" x="378.5" y="-119.5" font-family="Helvetica,sans-Serif" font-size="10.00">src/Ioss_PropertyManager.h</text>
</a>
</g>
</g>
<!-- Node2 -->
<g id="node2" class="node">
<title>Node2</title>
<g id="a_node2"><a xlink:href="Ioss__CodeTypes_8h.html" target="_top" xlink:title=" ">
<polygon fill="white" stroke="black" points="216,-56.5 216,-75.5 315,-75.5 315,-56.5 216,-56.5"/>
<text text-anchor="middle" x="265.5" y="-63.5" font-family="Helvetica,sans-Serif" font-size="10.00">Ioss_CodeTypes.h</text>
</a>
</g>
</g>
<!-- Node1&#45;&gt;Node2 -->
<g id="edge1" class="edge">
<title>Node1&#45;&gt;Node2</title>
<path fill="none" stroke="midnightblue" d="M360.59,-112.44C342.25,-103.68 313.49,-89.94 292.41,-79.86"/>
<polygon fill="midnightblue" stroke="midnightblue" points="293.85,-76.67 283.32,-75.52 290.83,-82.99 293.85,-76.67"/>
</g>
<!-- Node4 -->
<g id="node4" class="node">
<title>Node4</title>
<g id="a_node4"><a xlink:title=" ">
<polygon fill="white" stroke="#bfbfbf" points="0,-0.5 0,-19.5 49,-19.5 49,-0.5 0,-0.5"/>
<text text-anchor="middle" x="24.5" y="-7.5" font-family="Helvetica,sans-Serif" font-size="10.00">cstddef</text>
</a>
</g>
</g>
<!-- Node1&#45;&gt;Node4 -->
<g id="edge13" class="edge">
<title>Node1&#45;&gt;Node4</title>
<path fill="none" stroke="midnightblue" d="M342,-112.43C307,-103.98 252.8,-90.3 206.5,-76 153.02,-59.49 91.96,-36.9 55.9,-23.16"/>
<polygon fill="midnightblue" stroke="midnightblue" points="57.01,-19.84 46.42,-19.53 54.51,-26.37 57.01,-19.84"/>
</g>
<!-- Node6 -->
<g id="node6" class="node">
<title>Node6</title>
<g id="a_node6"><a xlink:title=" ">
<polygon fill="white" stroke="#bfbfbf" points="394,-0.5 394,-19.5 435,-19.5 435,-0.5 394,-0.5"/>
<text text-anchor="middle" x="414.5" y="-7.5" font-family="Helvetica,sans-Serif" font-size="10.00">string</text>
</a>
</g>
</g>
<!-- Node1&#45;&gt;Node6 -->
<g id="edge14" class="edge">
<title>Node1&#45;&gt;Node6</title>
<path fill="none" stroke="midnightblue" d="M372.81,-112.25C365.25,-99.43 353.8,-75.03 362.5,-56 368.28,-43.36 379.55,-32.91 390.13,-25.27"/>
<polygon fill="midnightblue" stroke="midnightblue" points="392.35,-28 398.72,-19.53 388.46,-22.18 392.35,-28"/>
</g>
<!-- Node7 -->
<g id="node7" class="node">
<title>Node7</title>
<g id="a_node7"><a xlink:title=" ">
<polygon fill="white" stroke="#bfbfbf" points="453.5,-0.5 453.5,-19.5 497.5,-19.5 497.5,-0.5 453.5,-0.5"/>
<text text-anchor="middle" x="475.5" y="-7.5" font-family="Helvetica,sans-Serif" font-size="10.00">vector</text>
</a>
</g>
</g>
<!-- Node1&#45;&gt;Node7 -->
<g id="edge16" class="edge">
<title>Node1&#45;&gt;Node7</title>
<path fill="none" stroke="midnightblue" d="M411.64,-112.4C430.74,-105.68 453.48,-94.32 466.5,-76 475.88,-62.8 477.62,-44.21 477.31,-30.29"/>
<polygon fill="midnightblue" stroke="midnightblue" points="480.78,-29.69 476.69,-19.92 473.79,-30.11 480.78,-29.69"/>
</g>
<!-- Node10 -->
<g id="node10" class="node">
<title>Node10</title>
<g id="a_node10"><a xlink:href="Ioss__Property_8h.html" target="_top" xlink:title=" ">
<polygon fill="white" stroke="black" points="371.5,-56.5 371.5,-75.5 457.5,-75.5 457.5,-56.5 371.5,-56.5"/>
<text text-anchor="middle" x="414.5" y="-63.5" font-family="Helvetica,sans-Serif" font-size="10.00">Ioss_Property.h</text>
</a>
</g>
</g>
<!-- Node1&#45;&gt;Node10 -->
<g id="edge9" class="edge">
<title>Node1&#45;&gt;Node10</title>
<path fill="none" stroke="midnightblue" d="M384.44,-112.08C389.48,-104.53 396.84,-93.49 403.01,-84.23"/>
<polygon fill="midnightblue" stroke="midnightblue" points="406.03,-86.01 408.67,-75.75 400.21,-82.13 406.03,-86.01"/>
</g>
<!-- Node11 -->
<g id="node11" class="node">
<title>Node11</title>
<g id="a_node11"><a xlink:title=" ">
<polygon fill="white" stroke="#bfbfbf" points="514,-56.5 514,-75.5 601,-75.5 601,-56.5 514,-56.5"/>
<text text-anchor="middle" x="557.5" y="-63.5" font-family="Helvetica,sans-Serif" font-size="10.00">unordered_map</text>
</a>
</g>
</g>
<!-- Node1&#45;&gt;Node11 -->
<g id="edge15" class="edge">
<title>Node1&#45;&gt;Node11</title>
<path fill="none" stroke="midnightblue" d="M406.86,-112.44C437.24,-103.28 485.61,-88.69 519.32,-78.52"/>
<polygon fill="midnightblue" stroke="midnightblue" points="520.71,-81.76 529.27,-75.52 518.68,-75.05 520.71,-81.76"/>
</g>
<!-- Node3 -->
<g id="node3" class="node">
<title>Node3</title>
<g id="a_node3"><a xlink:title=" ">
<polygon fill="white" stroke="#bfbfbf" points="67,-0.5 67,-19.5 106,-19.5 106,-0.5 67,-0.5"/>
<text text-anchor="middle" x="86.5" y="-7.5" font-family="Helvetica,sans-Serif" font-size="10.00">array</text>
</a>
</g>
</g>
<!-- Node2&#45;&gt;Node3 -->
<g id="edge2" class="edge">
<title>Node2&#45;&gt;Node3</title>
<path fill="none" stroke="midnightblue" d="M236.72,-56.45C208.39,-48.02 163.66,-34.66 115.77,-20.06"/>
<polygon fill="midnightblue" stroke="midnightblue" points="116.73,-16.7 106.15,-17.13 114.69,-23.39 116.73,-16.7"/>
</g>
<!-- Node2&#45;&gt;Node4 -->
<g id="edge3" class="edge">
<title>Node2&#45;&gt;Node4</title>
<path fill="none" stroke="midnightblue" d="M222.72,-56.44C182.71,-48.28 121.05,-35.3 59.25,-20.34"/>
<polygon fill="midnightblue" stroke="midnightblue" points="59.87,-16.89 49.33,-17.92 58.22,-23.69 59.87,-16.89"/>
</g>
<!-- Node5 -->
<g id="node5" class="node">
<title>Node5</title>
<g id="a_node5"><a xlink:title=" ">
<polygon fill="white" stroke="#bfbfbf" points="331,-0.5 331,-19.5 376,-19.5 376,-0.5 331,-0.5"/>
<text text-anchor="middle" x="353.5" y="-7.5" font-family="Helvetica,sans-Serif" font-size="10.00">cstdint</text>
</a>
</g>
</g>
<!-- Node2&#45;&gt;Node5 -->
<g id="edge4" class="edge">
<title>Node2&#45;&gt;Node5</title>
<path fill="none" stroke="midnightblue" d="M279.64,-56.32C293.37,-47.9 314.44,-34.97 330.56,-25.07"/>
<polygon fill="midnightblue" stroke="midnightblue" points="332.7,-27.87 339.4,-19.65 329.04,-21.9 332.7,-27.87"/>
</g>
<!-- Node2&#45;&gt;Node6 -->
<g id="edge5" class="edge">
<title>Node2&#45;&gt;Node6</title>
<path fill="none" stroke="midnightblue" d="M289.11,-56.44C314.83,-47.12 356.07,-32.18 384.17,-21.99"/>
<polygon fill="midnightblue" stroke="midnightblue" points="385.67,-25.17 393.88,-18.47 383.29,-18.59 385.67,-25.17"/>
</g>
<!-- Node2&#45;&gt;Node7 -->
<g id="edge6" class="edge">
<title>Node2&#45;&gt;Node7</title>
<path fill="none" stroke="midnightblue" d="M300.92,-56.5C335.05,-48.21 388.38,-35.04 443.28,-20.26"/>
<polygon fill="midnightblue" stroke="midnightblue" points="444.44,-23.58 453.18,-17.59 442.61,-16.82 444.44,-23.58"/>
</g>
<!-- Node8 -->
<g id="node8" class="node">
<title>Node8</title>
<g id="a_node8"><a xlink:title=" ">
<polygon fill="white" stroke="#bfbfbf" points="124.5,-0.5 124.5,-19.5 240.5,-19.5 240.5,-0.5 124.5,-0.5"/>
<text text-anchor="middle" x="182.5" y="-7.5" font-family="Helvetica,sans-Serif" font-size="10.00">SEACASIoss_config.h</text>
</a>
</g>
</g>
<!-- Node2&#45;&gt;Node8 -->
<g id="edge7" class="edge">
<title>Node2&#45;&gt;Node8</title>
<path fill="none" stroke="midnightblue" d="M252.16,-56.32C239.34,-47.98 219.72,-35.21 204.56,-25.35"/>
<polygon fill="midnightblue" stroke="midnightblue" points="206.09,-22.17 195.8,-19.65 202.28,-28.04 206.09,-22.17"/>
</g>
<!-- Node9 -->
<g id="node9" class="node">
<title>Node9</title>
<g id="a_node9"><a xlink:title=" ">
<polygon fill="white" stroke="#bfbfbf" points="258.5,-0.5 258.5,-19.5 312.5,-19.5 312.5,-0.5 258.5,-0.5"/>
<text text-anchor="middle" x="285.5" y="-7.5" font-family="Helvetica,sans-Serif" font-size="10.00">complex</text>
</a>
</g>
</g>
<!-- Node2&#45;&gt;Node9 -->
<g id="edge8" class="edge">
<title>Node2&#45;&gt;Node9</title>
<path fill="none" stroke="midnightblue" d="M268.8,-56.08C271.48,-48.85 275.35,-38.41 278.69,-29.4"/>
<polygon fill="midnightblue" stroke="midnightblue" points="282.07,-30.34 282.26,-19.75 275.5,-27.91 282.07,-30.34"/>
</g>
<!-- Node10&#45;&gt;Node5 -->
<g id="edge10" class="edge">
<title>Node10&#45;&gt;Node5</title>
<path fill="none" stroke="midnightblue" d="M404.7,-56.32C395.68,-48.34 382.09,-36.31 371.18,-26.65"/>
<polygon fill="midnightblue" stroke="midnightblue" points="373.29,-23.84 363.48,-19.83 368.65,-29.08 373.29,-23.84"/>
</g>
<!-- Node10&#45;&gt;Node6 -->
<g id="edge11" class="edge">
<title>Node10&#45;&gt;Node6</title>
<path fill="none" stroke="midnightblue" d="M414.5,-56.08C414.5,-49.01 414.5,-38.86 414.5,-29.99"/>
<polygon fill="midnightblue" stroke="midnightblue" points="418,-29.75 414.5,-19.75 411,-29.75 418,-29.75"/>
</g>
<!-- Node10&#45;&gt;Node7 -->
<g id="edge12" class="edge">
<title>Node10&#45;&gt;Node7</title>
<path fill="none" stroke="midnightblue" d="M424.3,-56.32C433.32,-48.34 446.91,-36.31 457.82,-26.65"/>
<polygon fill="midnightblue" stroke="midnightblue" points="460.35,-29.08 465.52,-19.83 455.71,-23.84 460.35,-29.08"/>
</g>
</g>
</svg>
