<?xml version="1.0" encoding="UTF-8" standalone="no"?>
<!DOCTYPE svg PUBLIC "-//W3C//DTD SVG 1.1//EN"
 "http://www.w3.org/Graphics/SVG/1.1/DTD/svg11.dtd">
<!-- Generated by graphviz version 12.1.2 (20240928.0832)
 -->
<!-- Title: src/elements/Ioss_Hex16.h Pages: 1 -->
<!--zoomable 248 -->

<svg id="main" version="1.1" xmlns="http://www.w3.org/2000/svg" xmlns:xlink="http://www.w3.org/1999/xlink" xml:space="preserve" onload="init(evt)">

<style type="text/css"><![CDATA[
.node, .edge {opacity: 0.7;}
.node.selected, .edge.selected {opacity: 1;}
.edge:hover path { stroke: red; }
.edge:hover polygon { stroke: red; fill: red; }
]]></style>

<defs>
  <circle id="rim" cx="0" cy="0" r="7"/>
  <circle id="rim2" cx="0" cy="0" r="3.5"/>
  <g id="zoomPlus">
    <use xlink:href="#rim" fill="#404040"><set attributeName="fill" to="#808080" begin="zoomplus.mouseover" end="zoomplus.mouseout"/></use>
    <path d="M-4,0h8M0,-4v8" fill="none" stroke="white" stroke-width="1.5" pointer-events="none"/>
  </g>
  <g id="zoomMin">
    <use xlink:href="#rim" fill="#404040"><set attributeName="fill" to="#808080" begin="zoomminus.mouseover" end="zoomminus.mouseout"/></use>
    <path d="M-4,0h8" fill="none" stroke="white" stroke-width="1.5" pointer-events="none"/>
  </g>
  <g id="arrowUp" transform="translate(30 24)">
    <use xlink:href="#rim"/>
    <path pointer-events="none" fill="none" stroke="white" stroke-width="1.5" d="M0,-3.0v7 M-2.5,-0.5L0,-3.0L2.5,-0.5"/>
  </g>
  <g id="arrowRight" transform="rotate(90) translate(36 -43)">
    <use xlink:href="#rim"/>
    <path pointer-events="none" fill="none" stroke="white" stroke-width="1.5" d="M0,-3.0v7 M-2.5,-0.5L0,-3.0L2.5,-0.5"/>
  </g>
  <g id="arrowDown" transform="rotate(180) translate(-30 -48)">
    <use xlink:href="#rim"/>
    <path pointer-events="none" fill="none" stroke="white" stroke-width="1.5" d="M0,-3.0v7 M-2.5,-0.5L0,-3.0L2.5,-0.5"/>
  </g>
  <g id="arrowLeft" transform="rotate(270) translate(-36 17)">
    <use xlink:href="#rim"/>
    <path pointer-events="none" fill="none" stroke="white" stroke-width="1.5" d="M0,-3.0v7 M-2.5,-0.5L0,-3.0L2.5,-0.5"/>
  </g>
  <g id="resetDef">
    <use xlink:href="#rim2" fill="#404040"><set attributeName="fill" to="#808080" begin="reset.mouseover" end="reset.mouseout"/></use>
  </g>
</defs>
<script type="application/ecmascript">
var viewWidth = 818;
var viewHeight = 248;
var sectionId = 'dynsection-0';
</script>
<script type="application/ecmascript" xlink:href="svg.min.js"/>
<svg id="graph" class="graph">
<g id="viewport">
<title>src/elements/Ioss_Hex16.h</title>
<!-- Node1 -->
<g id="Node000001" class="node">
<title>Node1</title>
<g id="a_Node000001"><a xlink:title=" ">
<polygon fill="#999999" stroke="#666666" points="610.12,-240.25 474.12,-240.25 474.12,-221 610.12,-221 610.12,-240.25"/>
<text text-anchor="middle" x="542.12" y="-226.75" font-family="Helvetica,sans-Serif" font-size="10.00">src/elements/Ioss_Hex16.h</text>
</a>
</g>
</g>
<!-- Node2 -->
<g id="Node000002" class="node">
<title>Node2</title>
<g id="a_Node000002"><a xlink:title=" ">
<polygon fill="#e0e0e0" stroke="#999999" points="795.38,-74.5 720.88,-74.5 720.88,-55.25 795.38,-55.25 795.38,-74.5"/>
<text text-anchor="middle" x="758.12" y="-61" font-family="Helvetica,sans-Serif" font-size="10.00">ioss_export.h</text>
</a>
</g>
</g>
<!-- Node1&#45;&gt;Node2 -->
<g id="edge1_Node000001_Node000002" class="edge">
<title>Node1&#45;&gt;Node2</title>
<g id="a_edge1_Node000001_Node000002"><a xlink:title=" ">
<path fill="none" stroke="#63b8ff" d="M557.48,-220.55C571.9,-211.86 593.9,-198.17 612.12,-185 659.56,-150.71 712,-106.17 739.28,-82.45"/>
<polygon fill="#63b8ff" stroke="#63b8ff" points="741.47,-85.19 746.69,-75.97 736.86,-79.92 741.47,-85.19"/>
</a>
</g>
</g>
<!-- Node3 -->
<g id="Node000003" class="node">
<title>Node3</title>
<g id="a_Node000003"><a xlink:href="Ioss__CodeTypes_8h.html" target="_top" xlink:title=" ">
<polygon fill="white" stroke="#666666" points="342,-74.5 244.25,-74.5 244.25,-55.25 342,-55.25 342,-74.5"/>
<text text-anchor="middle" x="293.12" y="-61" font-family="Helvetica,sans-Serif" font-size="10.00">Ioss_CodeTypes.h</text>
</a>
</g>
</g>
<!-- Node1&#45;&gt;Node3 -->
<g id="edge2_Node000001_Node000003" class="edge">
<title>Node1&#45;&gt;Node3</title>
<g id="a_edge2_Node000001_Node000003"><a xlink:title=" ">
<path fill="none" stroke="#63b8ff" d="M487.17,-220.53C433.89,-208.8 354.65,-183.18 309.12,-129.75 298.79,-117.62 294.97,-99.77 293.63,-86.02"/>
<polygon fill="#63b8ff" stroke="#63b8ff" points="297.14,-86.12 293.07,-76.34 290.15,-86.53 297.14,-86.12"/>
</a>
</g>
</g>
<!-- Node11 -->
<g id="Node000011" class="node">
<title>Node11</title>
<g id="a_Node000011"><a xlink:href="Ioss__ElementTopology_8h.html" target="_top" xlink:title=" ">
<polygon fill="white" stroke="#666666" points="603,-185 481.25,-185 481.25,-165.75 603,-165.75 603,-185"/>
<text text-anchor="middle" x="542.12" y="-171.5" font-family="Helvetica,sans-Serif" font-size="10.00">Ioss_ElementTopology.h</text>
</a>
</g>
</g>
<!-- Node1&#45;&gt;Node11 -->
<g id="edge10_Node000001_Node000011" class="edge">
<title>Node1&#45;&gt;Node11</title>
<g id="a_edge10_Node000001_Node000011"><a xlink:title=" ">
<path fill="none" stroke="#63b8ff" d="M542.12,-220.83C542.12,-214.32 542.12,-205.17 542.12,-196.87"/>
<polygon fill="#63b8ff" stroke="#63b8ff" points="545.63,-196.87 542.13,-186.87 538.63,-196.87 545.63,-196.87"/>
</a>
</g>
</g>
<!-- Node4 -->
<g id="Node000004" class="node">
<title>Node4</title>
<g id="a_Node000004"><a xlink:title=" ">
<polygon fill="#e0e0e0" stroke="#999999" points="372,-19.25 334.25,-19.25 334.25,0 372,0 372,-19.25"/>
<text text-anchor="middle" x="353.12" y="-5.75" font-family="Helvetica,sans-Serif" font-size="10.00">array</text>
</a>
</g>
</g>
<!-- Node3&#45;&gt;Node4 -->
<g id="edge3_Node000003_Node000004" class="edge">
<title>Node3&#45;&gt;Node4</title>
<g id="a_edge3_Node000003_Node000004"><a xlink:title=" ">
<path fill="none" stroke="#63b8ff" d="M303.3,-54.84C311.89,-47.22 324.39,-36.12 334.73,-26.95"/>
<polygon fill="#63b8ff" stroke="#63b8ff" points="336.81,-29.79 341.97,-20.53 332.16,-24.55 336.81,-29.79"/>
</a>
</g>
</g>
<!-- Node5 -->
<g id="Node000005" class="node">
<title>Node5</title>
<g id="a_Node000005"><a xlink:title=" ">
<polygon fill="#e0e0e0" stroke="#999999" points="48.25,-19.25 0,-19.25 0,0 48.25,0 48.25,-19.25"/>
<text text-anchor="middle" x="24.12" y="-5.75" font-family="Helvetica,sans-Serif" font-size="10.00">cstddef</text>
</a>
</g>
</g>
<!-- Node3&#45;&gt;Node5 -->
<g id="edge4_Node000003_Node000005" class="edge">
<title>Node3&#45;&gt;Node5</title>
<g id="a_edge4_Node000003_Node000005"><a xlink:title=" ">
<path fill="none" stroke="#63b8ff" d="M244.11,-55.62C198.67,-47.74 128.93,-35.08 59.69,-19.71"/>
<polygon fill="#63b8ff" stroke="#63b8ff" points="60.59,-16.32 50.06,-17.55 59.06,-23.15 60.59,-16.32"/>
</a>
</g>
</g>
<!-- Node6 -->
<g id="Node000006" class="node">
<title>Node6</title>
<g id="a_Node000006"><a xlink:title=" ">
<polygon fill="#e0e0e0" stroke="#999999" points="111.75,-19.25 66.5,-19.25 66.5,0 111.75,0 111.75,-19.25"/>
<text text-anchor="middle" x="89.12" y="-5.75" font-family="Helvetica,sans-Serif" font-size="10.00">cstdint</text>
</a>
</g>
</g>
<!-- Node3&#45;&gt;Node6 -->
<g id="edge5_Node000003_Node000006" class="edge">
<title>Node3&#45;&gt;Node6</title>
<g id="a_edge5_Node000003_Node000006"><a xlink:title=" ">
<path fill="none" stroke="#63b8ff" d="M257.85,-54.83C225.31,-46.46 175.36,-33.55 123.03,-19.74"/>
<polygon fill="#63b8ff" stroke="#63b8ff" points="124.22,-16.43 113.65,-17.26 122.43,-23.2 124.22,-16.43"/>
</a>
</g>
</g>
<!-- Node7 -->
<g id="Node000007" class="node">
<title>Node7</title>
<g id="a_Node000007"><a xlink:title=" ">
<polygon fill="#e0e0e0" stroke="#999999" points="660.12,-19.25 620.12,-19.25 620.12,0 660.12,0 660.12,-19.25"/>
<text text-anchor="middle" x="640.12" y="-5.75" font-family="Helvetica,sans-Serif" font-size="10.00">string</text>
</a>
</g>
</g>
<!-- Node3&#45;&gt;Node7 -->
<g id="edge6_Node000003_Node000007" class="edge">
<title>Node3&#45;&gt;Node7</title>
<g id="a_edge6_Node000003_Node000007"><a xlink:title=" ">
<path fill="none" stroke="#63b8ff" d="M342.47,-56.3C414.92,-45.18 548.01,-24.76 608.6,-15.46"/>
<polygon fill="#63b8ff" stroke="#63b8ff" points="608.86,-18.96 618.21,-13.99 607.8,-12.04 608.86,-18.96"/>
</a>
</g>
</g>
<!-- Node8 -->
<g id="Node000008" class="node">
<title>Node8</title>
<g id="a_Node000008"><a xlink:title=" ">
<polygon fill="#e0e0e0" stroke="#999999" points="432.62,-19.25 389.62,-19.25 389.62,0 432.62,0 432.62,-19.25"/>
<text text-anchor="middle" x="411.12" y="-5.75" font-family="Helvetica,sans-Serif" font-size="10.00">vector</text>
</a>
</g>
</g>
<!-- Node3&#45;&gt;Node8 -->
<g id="edge7_Node000003_Node000008" class="edge">
<title>Node3&#45;&gt;Node8</title>
<g id="a_edge7_Node000003_Node000008"><a xlink:title=" ">
<path fill="none" stroke="#63b8ff" d="M313.14,-54.84C331.62,-46.5 359.33,-34 380.57,-24.41"/>
<polygon fill="#63b8ff" stroke="#63b8ff" points="381.95,-27.63 389.63,-20.33 379.08,-21.25 381.95,-27.63"/>
</a>
</g>
</g>
<!-- Node9 -->
<g id="Node000009" class="node">
<title>Node9</title>
<g id="a_Node000009"><a xlink:title=" ">
<polygon fill="#e0e0e0" stroke="#999999" points="246,-19.25 130.25,-19.25 130.25,0 246,0 246,-19.25"/>
<text text-anchor="middle" x="188.12" y="-5.75" font-family="Helvetica,sans-Serif" font-size="10.00">SEACASIoss_config.h</text>
</a>
</g>
</g>
<!-- Node3&#45;&gt;Node9 -->
<g id="edge8_Node000003_Node000009" class="edge">
<title>Node3&#45;&gt;Node9</title>
<g id="a_edge8_Node000003_Node000009"><a xlink:title=" ">
<path fill="none" stroke="#63b8ff" d="M275.31,-54.84C259.1,-46.62 234.89,-34.34 216.09,-24.81"/>
<polygon fill="#63b8ff" stroke="#63b8ff" points="217.88,-21.79 207.37,-20.39 214.71,-28.03 217.88,-21.79"/>
</a>
</g>
</g>
<!-- Node10 -->
<g id="Node000010" class="node">
<title>Node10</title>
<g id="a_Node000010"><a xlink:title=" ">
<polygon fill="#e0e0e0" stroke="#999999" points="316.5,-19.25 263.75,-19.25 263.75,0 316.5,0 316.5,-19.25"/>
<text text-anchor="middle" x="290.12" y="-5.75" font-family="Helvetica,sans-Serif" font-size="10.00">complex</text>
</a>
</g>
</g>
<!-- Node3&#45;&gt;Node10 -->
<g id="edge9_Node000003_Node000010" class="edge">
<title>Node3&#45;&gt;Node10</title>
<g id="a_edge9_Node000003_Node000010"><a xlink:title=" ">
<path fill="none" stroke="#63b8ff" d="M292.63,-55.08C292.26,-48.49 291.74,-39.21 291.26,-30.82"/>
<polygon fill="#63b8ff" stroke="#63b8ff" points="294.77,-30.91 290.72,-21.12 287.78,-31.3 294.77,-30.91"/>
</a>
</g>
</g>
<!-- Node11&#45;&gt;Node2 -->
<g id="edge25_Node000011_Node000002" class="edge">
<title>Node11&#45;&gt;Node2</title>
<g id="a_edge25_Node000011_Node000002"><a xlink:title=" ">
<path fill="none" stroke="#63b8ff" d="M564.3,-165.41C585.16,-156.81 617.13,-143.18 644.12,-129.75 675.51,-114.14 710.55,-94.1 733.39,-80.67"/>
<polygon fill="#63b8ff" stroke="#63b8ff" points="735.13,-83.7 741.95,-75.6 731.57,-77.68 735.13,-83.7"/>
</a>
</g>
</g>
<!-- Node11&#45;&gt;Node3 -->
<g id="edge11_Node000011_Node000003" class="edge">
<title>Node11&#45;&gt;Node3</title>
<g id="a_edge11_Node000011_Node000003"><a xlink:title=" ">
<path fill="none" stroke="#63b8ff" d="M481.01,-174.21C435.82,-171.26 374.81,-161.02 331.12,-129.75 315.89,-118.85 305.71,-99.76 299.76,-85.29"/>
<polygon fill="#63b8ff" stroke="#63b8ff" points="303.19,-84.47 296.4,-76.33 296.63,-86.92 303.19,-84.47"/>
</a>
</g>
</g>
<!-- Node11&#45;&gt;Node7 -->
<g id="edge23_Node000011_Node000007" class="edge">
<title>Node11&#45;&gt;Node7</title>
<g id="a_edge23_Node000011_Node000007"><a xlink:title=" ">
<path fill="none" stroke="#63b8ff" d="M603.47,-170.66C666.23,-163.16 760.53,-140.8 804.12,-74.5 836.34,-25.5 728.08,-14.07 671.87,-11.42"/>
<polygon fill="#63b8ff" stroke="#63b8ff" points="672.05,-7.92 661.92,-11.02 671.77,-14.92 672.05,-7.92"/>
</a>
</g>
</g>
<!-- Node11&#45;&gt;Node8 -->
<g id="edge24_Node000011_Node000008" class="edge">
<title>Node11&#45;&gt;Node8</title>
<g id="a_edge24_Node000011_Node000008"><a xlink:title=" ">
<path fill="none" stroke="#63b8ff" d="M519.14,-165.3C487.57,-151.33 432.5,-121.2 413.12,-74.5 407.45,-60.82 407.15,-44.04 408.16,-31.11"/>
<polygon fill="#63b8ff" stroke="#63b8ff" points="411.63,-31.56 409.29,-21.22 404.68,-30.76 411.63,-31.56"/>
</a>
</g>
</g>
<!-- Node12 -->
<g id="Node000012" class="node">
<title>Node12</title>
<g id="a_Node000012"><a xlink:href="Ioss__ElementPermutation_8h.html" target="_top" xlink:title=" ">
<polygon fill="white" stroke="#666666" points="610.5,-129.75 473.75,-129.75 473.75,-110.5 610.5,-110.5 610.5,-129.75"/>
<text text-anchor="middle" x="542.12" y="-116.25" font-family="Helvetica,sans-Serif" font-size="10.00">Ioss_ElementPermutation.h</text>
</a>
</g>
</g>
<!-- Node11&#45;&gt;Node12 -->
<g id="edge12_Node000011_Node000012" class="edge">
<title>Node11&#45;&gt;Node12</title>
<g id="a_edge12_Node000011_Node000012"><a xlink:title=" ">
<path fill="none" stroke="#63b8ff" d="M542.12,-165.58C542.12,-159.07 542.12,-149.92 542.12,-141.62"/>
<polygon fill="#63b8ff" stroke="#63b8ff" points="545.63,-141.62 542.13,-131.62 538.63,-141.62 545.63,-141.62"/>
</a>
</g>
</g>
<!-- Node15 -->
<g id="Node000015" class="node">
<title>Node15</title>
<g id="a_Node000015"><a xlink:title=" ">
<polygon fill="#e0e0e0" stroke="#999999" points="702.5,-74.5 667.75,-74.5 667.75,-55.25 702.5,-55.25 702.5,-74.5"/>
<text text-anchor="middle" x="685.12" y="-61" font-family="Helvetica,sans-Serif" font-size="10.00">map</text>
</a>
</g>
</g>
<!-- Node11&#45;&gt;Node15 -->
<g id="edge21_Node000011_Node000015" class="edge">
<title>Node11&#45;&gt;Node15</title>
<g id="a_edge21_Node000011_Node000015"><a xlink:title=" ">
<path fill="none" stroke="#63b8ff" d="M560.65,-165.27C576.76,-156.99 600.39,-143.91 619.12,-129.75 637.73,-115.69 656.62,-96.85 669.39,-83.28"/>
<polygon fill="#63b8ff" stroke="#63b8ff" points="671.94,-85.68 676.16,-75.96 666.8,-80.93 671.94,-85.68"/>
</a>
</g>
</g>
<!-- Node17 -->
<g id="Node000017" class="node">
<title>Node17</title>
<g id="a_Node000017"><a xlink:title=" ">
<polygon fill="#e0e0e0" stroke="#999999" points="369.88,-129.75 340.38,-129.75 340.38,-110.5 369.88,-110.5 369.88,-129.75"/>
<text text-anchor="middle" x="355.12" y="-116.25" font-family="Helvetica,sans-Serif" font-size="10.00">set</text>
</a>
</g>
</g>
<!-- Node11&#45;&gt;Node17 -->
<g id="edge22_Node000011_Node000017" class="edge">
<title>Node11&#45;&gt;Node17</title>
<g id="a_edge22_Node000011_Node000017"><a xlink:title=" ">
<path fill="none" stroke="#63b8ff" d="M509.41,-165.28C477.43,-156.35 427.38,-142.29 384.12,-129.75 383.13,-129.46 382.12,-129.17 381.1,-128.87"/>
<polygon fill="#63b8ff" stroke="#63b8ff" points="382.2,-125.54 371.62,-126.07 380.22,-132.26 382.2,-125.54"/>
</a>
</g>
</g>
<!-- Node12&#45;&gt;Node2 -->
<g id="edge20_Node000012_Node000002" class="edge">
<title>Node12&#45;&gt;Node2</title>
<g id="a_edge20_Node000012_Node000002"><a xlink:title=" ">
<path fill="none" stroke="#63b8ff" d="M578.77,-110.09C615,-101.16 670.61,-87.45 710.31,-77.66"/>
<polygon fill="#63b8ff" stroke="#63b8ff" points="710.96,-81.11 719.83,-75.31 709.29,-74.31 710.96,-81.11"/>
</a>
</g>
</g>
<!-- Node12&#45;&gt;Node3 -->
<g id="edge13_Node000012_Node000003" class="edge">
<title>Node12&#45;&gt;Node3</title>
<g id="a_edge13_Node000012_Node000003"><a xlink:title=" ">
<path fill="none" stroke="#63b8ff" d="M499.6,-110.03C457.35,-100.99 392.41,-87.11 346.66,-77.32"/>
<polygon fill="#63b8ff" stroke="#63b8ff" points="347.46,-73.92 336.95,-75.25 346,-80.76 347.46,-73.92"/>
</a>
</g>
</g>
<!-- Node12&#45;&gt;Node7 -->
<g id="edge18_Node000012_Node000007" class="edge">
<title>Node12&#45;&gt;Node7</title>
<g id="a_edge18_Node000012_Node000007"><a xlink:title=" ">
<path fill="none" stroke="#63b8ff" d="M568.75,-110.1C586,-102.97 607.68,-91.38 621.12,-74.5 631.17,-61.89 635.91,-44.09 638.14,-30.47"/>
<polygon fill="#63b8ff" stroke="#63b8ff" points="641.57,-31.29 639.38,-20.92 634.62,-30.39 641.57,-31.29"/>
</a>
</g>
</g>
<!-- Node12&#45;&gt;Node8 -->
<g id="edge19_Node000012_Node000008" class="edge">
<title>Node12&#45;&gt;Node8</title>
<g id="a_edge19_Node000012_Node000008"><a xlink:title=" ">
<path fill="none" stroke="#63b8ff" d="M491.29,-110.02C469.06,-103.59 444.4,-92.73 428.12,-74.5 417.47,-62.57 413.38,-44.71 411.86,-30.9"/>
<polygon fill="#63b8ff" stroke="#63b8ff" points="415.37,-30.89 411.18,-21.16 408.39,-31.38 415.37,-30.89"/>
</a>
</g>
</g>
<!-- Node13 -->
<g id="Node000013" class="node">
<title>Node13</title>
<g id="a_Node000013"><a xlink:title=" ">
<polygon fill="#e0e0e0" stroke="#999999" points="488.75,-74.5 437.5,-74.5 437.5,-55.25 488.75,-55.25 488.75,-74.5"/>
<text text-anchor="middle" x="463.12" y="-61" font-family="Helvetica,sans-Serif" font-size="10.00">assert.h</text>
</a>
</g>
</g>
<!-- Node12&#45;&gt;Node13 -->
<g id="edge14_Node000012_Node000013" class="edge">
<title>Node12&#45;&gt;Node13</title>
<g id="a_edge14_Node000012_Node000013"><a xlink:title=" ">
<path fill="none" stroke="#63b8ff" d="M528.72,-110.09C517.03,-102.21 499.82,-90.61 485.96,-81.27"/>
<polygon fill="#63b8ff" stroke="#63b8ff" points="488.1,-78.49 477.85,-75.8 484.18,-84.29 488.1,-78.49"/>
</a>
</g>
</g>
<!-- Node14 -->
<g id="Node000014" class="node">
<title>Node14</title>
<g id="a_Node000014"><a xlink:title=" ">
<polygon fill="#e0e0e0" stroke="#999999" points="545.75,-74.5 506.5,-74.5 506.5,-55.25 545.75,-55.25 545.75,-74.5"/>
<text text-anchor="middle" x="526.12" y="-61" font-family="Helvetica,sans-Serif" font-size="10.00">limits</text>
</a>
</g>
</g>
<!-- Node12&#45;&gt;Node14 -->
<g id="edge15_Node000012_Node000014" class="edge">
<title>Node12&#45;&gt;Node14</title>
<g id="a_edge15_Node000012_Node000014"><a xlink:title=" ">
<path fill="none" stroke="#63b8ff" d="M539.48,-110.33C537.48,-103.67 534.65,-94.24 532.11,-85.78"/>
<polygon fill="#63b8ff" stroke="#63b8ff" points="535.49,-84.88 529.26,-76.31 528.79,-86.89 535.49,-84.88"/>
</a>
</g>
</g>
<!-- Node12&#45;&gt;Node15 -->
<g id="edge16_Node000012_Node000015" class="edge">
<title>Node12&#45;&gt;Node15</title>
<g id="a_edge16_Node000012_Node000015"><a xlink:title=" ">
<path fill="none" stroke="#63b8ff" d="M566.38,-110.09C591.48,-100.74 630.64,-86.16 657.06,-76.32"/>
<polygon fill="#63b8ff" stroke="#63b8ff" points="657.96,-79.73 666.11,-72.96 655.52,-73.17 657.96,-79.73"/>
</a>
</g>
</g>
<!-- Node16 -->
<g id="Node000016" class="node">
<title>Node16</title>
<g id="a_Node000016"><a xlink:title=" ">
<polygon fill="#e0e0e0" stroke="#999999" points="612.25,-74.5 564,-74.5 564,-55.25 612.25,-55.25 612.25,-74.5"/>
<text text-anchor="middle" x="588.12" y="-61" font-family="Helvetica,sans-Serif" font-size="10.00">stdint.h</text>
</a>
</g>
</g>
<!-- Node12&#45;&gt;Node16 -->
<g id="edge17_Node000012_Node000016" class="edge">
<title>Node12&#45;&gt;Node16</title>
<g id="a_edge17_Node000012_Node000016"><a xlink:title=" ">
<path fill="none" stroke="#63b8ff" d="M549.72,-110.33C556.01,-103.05 565.14,-92.48 572.92,-83.48"/>
<polygon fill="#63b8ff" stroke="#63b8ff" points="575.49,-85.86 579.37,-76 570.19,-81.28 575.49,-85.86"/>
</a>
</g>
</g>
</g>
</svg>

<g id="navigator" transform="translate(0 0)" fill="#404254">
  <rect fill="#f2f5e9" fill-opacity="0.5" stroke="#606060" stroke-width=".5" x="0" y="0" width="60" height="60"/>
  <use id="zoomplus" xlink:href="#zoomPlus" x="17" y="9" onmousedown="handleZoom(evt,'in')"/>
  <use id="zoomminus" xlink:href="#zoomMin" x="42" y="9" onmousedown="handleZoom(evt,'out')"/>
  <use id="reset" xlink:href="#resetDef" x="30" y="36" onmousedown="handleReset()"/>
   <use id="arrowup" xlink:href="#arrowUp" x="0" y="0" onmousedown="handlePan(0,-1)"/>
  <use id="arrowright" xlink:href="#arrowRight" x="0" y="0" onmousedown="handlePan(1,0)"/>
  <use id="arrowdown" xlink:href="#arrowDown" x="0" y="0" onmousedown="handlePan(0,1)"/>
  <use id="arrowleft" xlink:href="#arrowLeft" x="0" y="0" onmousedown="handlePan(-1,0)"/>
</g>
<svg viewBox="0 0 15 15" width="100%" height="30px" preserveAspectRatio="xMaxYMin meet">
 <g id="arrow_out" transform="scale(0.3 0.3)">
  <a xlink:href="Ioss__Hex16_8h__incl_org.svg" target="_base">
   <rect id="button" ry="5" rx="5" y="6" x="6" height="38" width="38"
        fill="#f2f5e9" fill-opacity="0.5" stroke="#606060" stroke-width="1.0"/>
   <path id="arrow"
     d="M 11.500037,31.436501 C 11.940474,20.09759 22.043105,11.32322 32.158766,21.979434 L 37.068811,17.246167 C 37.068811,17.246167 37.088388,32 37.088388,32 L 22.160133,31.978069 C 22.160133,31.978069 26.997745,27.140456 26.997745,27.140456 C 18.528582,18.264221 13.291696,25.230495 11.500037,31.436501 z"
     style="fill:#404040;"/>
  </a>
 </g>
</svg>

<style type='text/css'>
<![CDATA[
[data-mouse-over-selected='false'] { opacity: 0.7; }
[data-mouse-over-selected='true']  { opacity: 1.0; }
]]>
</style>
<script type="application/ecmascript"><![CDATA[
document.addEventListener('DOMContentLoaded', (event) => {
  highlightEdges();
  highlightAdjacentNodes();
});
]]></script>
</svg>
