<?xml version="1.0" encoding="UTF-8" standalone="no"?>
<!DOCTYPE svg PUBLIC "-//W3C//DTD SVG 1.1//EN"
 "http://www.w3.org/Graphics/SVG/1.1/DTD/svg11.dtd">
<!-- Generated by graphviz version 3.0.0 (20220226.1711)
 -->
<!-- Title: src/Ioss_ZoneConnectivity.C Pages: 1 -->
<!--zoomable 308 -->
<svg id="main" version="1.1" xmlns="http://www.w3.org/2000/svg" xmlns:xlink="http://www.w3.org/1999/xlink" xml:space="preserve" onload="init(evt)">
<style type="text/css"><![CDATA[
.edge:hover path { stroke: red; }
.edge:hover polygon { stroke: red; fill: red; }
]]></style>
<script type="text/javascript"><![CDATA[
var edges = document.getElementsByTagName('g');
if (edges && edges.length) {
  for (var i=0;i<edges.length;i++) {
    if (edges[i].id.substr(0,4)=='edge') {
      edges[i].setAttribute('class','edge');
    }
  }
}
]]></script>
        <defs>
                <circle id="rim" cx="0" cy="0" r="7"/>
                <circle id="rim2" cx="0" cy="0" r="3.5"/>
                <g id="zoomPlus">
                        <use xlink:href="#rim" fill="#404040">
                                <set attributeName="fill" to="#808080" begin="zoomplus.mouseover" end="zoomplus.mouseout"/>
                        </use>
                        <path d="M-4,0h8M0,-4v8" fill="none" stroke="white" stroke-width="1.5" pointer-events="none"/>
                </g>
                <g id="zoomMin">
                        <use xlink:href="#rim" fill="#404040">
                                <set attributeName="fill" to="#808080" begin="zoomminus.mouseover" end="zoomminus.mouseout"/>
                        </use>
                        <path d="M-4,0h8" fill="none" stroke="white" stroke-width="1.5" pointer-events="none"/>
                </g>
                <g id="dirArrow">
                        <path fill="none" stroke="white" stroke-width="1.5" d="M0,-3.0v7 M-2.5,-0.5L0,-3.0L2.5,-0.5"/>
                </g>
               <g id="resetDef">
                       <use xlink:href="#rim2" fill="#404040">
                               <set attributeName="fill" to="#808080" begin="reset.mouseover" end="reset.mouseout"/>
                       </use>
               </g>
        </defs>

<script type="text/javascript">
var viewWidth = 1354;
var viewHeight = 308;
var sectionId = 'dynsection-0';
</script>
<script xlink:href="svgpan.js"/>
<svg id="graph" class="graph">
<g id="viewport">
<title>src/Ioss_ZoneConnectivity.C</title>
<polygon fill="white" stroke="transparent" points="-4,4 -4,-304 1350,-304 1350,4 -4,4"/>
<!-- Node1 -->
<g id="node1" class="node">
<title>Node1</title>
<g id="a_node1"><a xlink:title=" ">
<polygon fill="#bfbfbf" stroke="black" points="845.5,-280.5 845.5,-299.5 988.5,-299.5 988.5,-280.5 845.5,-280.5"/>
<text text-anchor="middle" x="917" y="-287.5" font-family="Helvetica,sans-Serif" font-size="10.00">src/Ioss_ZoneConnectivity.C</text>
</a>
</g>
</g>
<!-- Node2 -->
<g id="node2" class="node">
<title>Node2</title>
<g id="a_node2"><a xlink:href="Ioss__Utils_8h.html" target="_top" xlink:title=" ">
<polygon fill="white" stroke="black" points="687.5,-224.5 687.5,-243.5 756.5,-243.5 756.5,-224.5 687.5,-224.5"/>
<text text-anchor="middle" x="722" y="-231.5" font-family="Helvetica,sans-Serif" font-size="10.00">Ioss_Utils.h</text>
</a>
</g>
</g>
<!-- Node1&#45;&gt;Node2 -->
<g id="edge1" class="edge">
<title>Node1&#45;&gt;Node2</title>
<path fill="none" stroke="midnightblue" d="M886.1,-280.44C852.73,-271.2 799.41,-256.44 762.65,-246.26"/>
<polygon fill="midnightblue" stroke="midnightblue" points="763.33,-242.81 752.75,-243.52 761.46,-249.56 763.33,-242.81"/>
</g>
<!-- Node5 -->
<g id="node5" class="node">
<title>Node5</title>
<g id="a_node5"><a xlink:title=" ">
<polygon fill="white" stroke="#bfbfbf" points="1022.5,-0.5 1022.5,-19.5 1071.5,-19.5 1071.5,-0.5 1022.5,-0.5"/>
<text text-anchor="middle" x="1047" y="-7.5" font-family="Helvetica,sans-Serif" font-size="10.00">cstddef</text>
</a>
</g>
</g>
<!-- Node1&#45;&gt;Node5 -->
<g id="edge57" class="edge">
<title>Node1&#45;&gt;Node5</title>
<path fill="none" stroke="midnightblue" d="M963.05,-280.41C1010.31,-268.76 1080.81,-242.75 1109,-188 1124.51,-157.88 1124.55,-144.51 1115,-112 1105.13,-78.41 1079.57,-46 1062.75,-27.31"/>
<polygon fill="midnightblue" stroke="midnightblue" points="1065.09,-24.69 1055.72,-19.74 1059.96,-29.45 1065.09,-24.69"/>
</g>
<!-- Node7 -->
<g id="node7" class="node">
<title>Node7</title>
<g id="a_node7"><a xlink:title=" ">
<polygon fill="white" stroke="#bfbfbf" points="231.5,-0.5 231.5,-19.5 272.5,-19.5 272.5,-0.5 231.5,-0.5"/>
<text text-anchor="middle" x="252" y="-7.5" font-family="Helvetica,sans-Serif" font-size="10.00">string</text>
</a>
</g>
</g>
<!-- Node1&#45;&gt;Node7 -->
<g id="edge59" class="edge">
<title>Node1&#45;&gt;Node7</title>
<path fill="none" stroke="midnightblue" d="M845.43,-287.91C629.61,-283.67 0,-264.03 0,-179 0,-179 0,-179 0,-121 0,-25.59 153.61,-12.11 220.97,-10.79"/>
<polygon fill="midnightblue" stroke="midnightblue" points="221.42,-14.28 231.38,-10.66 221.34,-7.28 221.42,-14.28"/>
</g>
<!-- Node8 -->
<g id="node8" class="node">
<title>Node8</title>
<g id="a_node8"><a xlink:title=" ">
<polygon fill="white" stroke="#bfbfbf" points="820,-0.5 820,-19.5 864,-19.5 864,-0.5 820,-0.5"/>
<text text-anchor="middle" x="842" y="-7.5" font-family="Helvetica,sans-Serif" font-size="10.00">vector</text>
</a>
</g>
</g>
<!-- Node1&#45;&gt;Node8 -->
<g id="edge60" class="edge">
<title>Node1&#45;&gt;Node8</title>
<path fill="none" stroke="midnightblue" d="M939.67,-280.5C998.17,-257.23 1146.37,-189.06 1098,-112 1049.68,-35.02 931.8,-16.67 874.43,-12.33"/>
<polygon fill="midnightblue" stroke="midnightblue" points="874.34,-8.82 864.13,-11.65 873.88,-15.8 874.34,-8.82"/>
</g>
<!-- Node31 -->
<g id="node31" class="node">
<title>Node31</title>
<g id="a_node31"><a xlink:href="Ioss__ZoneConnectivity_8h.html" target="_top" xlink:title=" ">
<polygon fill="white" stroke="black" points="28,-112.5 28,-131.5 152,-131.5 152,-112.5 28,-112.5"/>
<text text-anchor="middle" x="90" y="-119.5" font-family="Helvetica,sans-Serif" font-size="10.00">Ioss_ZoneConnectivity.h</text>
</a>
</g>
</g>
<!-- Node1&#45;&gt;Node31 -->
<g id="edge52" class="edge">
<title>Node1&#45;&gt;Node31</title>
<path fill="none" stroke="midnightblue" d="M845.32,-289.73C711.25,-288.82 415.37,-275.97 186,-188 155.8,-176.42 125.69,-153.76 107.45,-138.5"/>
<polygon fill="midnightblue" stroke="midnightblue" points="109.37,-135.54 99.5,-131.68 104.81,-140.85 109.37,-135.54"/>
</g>
<!-- Node32 -->
<g id="node32" class="node">
<title>Node32</title>
<g id="a_node32"><a xlink:title=" ">
<polygon fill="white" stroke="#bfbfbf" points="1183.5,-224.5 1183.5,-243.5 1260.5,-243.5 1260.5,-224.5 1183.5,-224.5"/>
<text text-anchor="middle" x="1222" y="-231.5" font-family="Helvetica,sans-Serif" font-size="10.00">fmt/ostream.h</text>
</a>
</g>
</g>
<!-- Node1&#45;&gt;Node32 -->
<g id="edge58" class="edge">
<title>Node1&#45;&gt;Node32</title>
<path fill="none" stroke="midnightblue" d="M965.33,-280.44C1022.21,-270.37 1116.15,-253.74 1173.23,-243.64"/>
<polygon fill="midnightblue" stroke="midnightblue" points="1173.86,-247.08 1183.09,-241.89 1172.63,-240.19 1173.86,-247.08"/>
</g>
<!-- Node3 -->
<g id="node3" class="node">
<title>Node3</title>
<g id="a_node3"><a xlink:href="Ioss__CodeTypes_8h.html" target="_top" xlink:title=" ">
<polygon fill="white" stroke="black" points="477,-56.5 477,-75.5 575,-75.5 575,-56.5 477,-56.5"/>
<text text-anchor="middle" x="526" y="-63.5" font-family="Helvetica,sans-Serif" font-size="10.00">Ioss_CodeTypes.h</text>
</a>
</g>
</g>
<!-- Node2&#45;&gt;Node3 -->
<g id="edge2" class="edge">
<title>Node2&#45;&gt;Node3</title>
<path fill="none" stroke="midnightblue" d="M687.45,-233.53C648.82,-232.21 586.85,-224.04 550,-188 522.52,-161.13 521.77,-112.48 523.78,-85.78"/>
<polygon fill="midnightblue" stroke="midnightblue" points="527.3,-85.81 524.78,-75.51 520.33,-85.13 527.3,-85.81"/>
</g>
<!-- Node2&#45;&gt;Node5 -->
<g id="edge45" class="edge">
<title>Node2&#45;&gt;Node5</title>
<path fill="none" stroke="midnightblue" d="M756.98,-231.12C819.39,-227.1 946.53,-215.67 980,-188 986.46,-182.66 1025.23,-73.26 1040.67,-29.17"/>
<polygon fill="midnightblue" stroke="midnightblue" points="1043.98,-30.29 1043.98,-19.7 1037.38,-27.98 1043.98,-30.29"/>
</g>
<!-- Node6 -->
<g id="node6" class="node">
<title>Node6</title>
<g id="a_node6"><a xlink:title=" ">
<polygon fill="white" stroke="#bfbfbf" points="404,-0.5 404,-19.5 450,-19.5 450,-0.5 404,-0.5"/>
<text text-anchor="middle" x="427" y="-7.5" font-family="Helvetica,sans-Serif" font-size="10.00">cstdint</text>
</a>
</g>
</g>
<!-- Node2&#45;&gt;Node6 -->
<g id="edge46" class="edge">
<title>Node2&#45;&gt;Node6</title>
<path fill="none" stroke="midnightblue" d="M687.29,-232.23C621.47,-230 482.21,-221.35 450,-188 439.13,-176.75 431.1,-73.1 428.19,-29.83"/>
<polygon fill="midnightblue" stroke="midnightblue" points="431.68,-29.54 427.53,-19.79 424.69,-30 431.68,-29.54"/>
</g>
<!-- Node2&#45;&gt;Node7 -->
<g id="edge50" class="edge">
<title>Node2&#45;&gt;Node7</title>
<path fill="none" stroke="midnightblue" d="M687.21,-232.39C581.6,-230.2 270.03,-220.97 240,-188 199.6,-143.65 227.62,-64.33 243.34,-28.92"/>
<polygon fill="midnightblue" stroke="midnightblue" points="246.54,-30.34 247.55,-19.79 240.18,-27.4 246.54,-30.34"/>
</g>
<!-- Node2&#45;&gt;Node8 -->
<g id="edge51" class="edge">
<title>Node2&#45;&gt;Node8</title>
<path fill="none" stroke="midnightblue" d="M756.53,-227.87C804.45,-218.59 888.53,-193.86 918,-132 937.24,-91.61 891.65,-48.08 863.03,-25.87"/>
<polygon fill="midnightblue" stroke="midnightblue" points="864.88,-22.89 854.78,-19.7 860.69,-28.49 864.88,-22.89"/>
</g>
<!-- Node11 -->
<g id="node11" class="node">
<title>Node11</title>
<g id="a_node11"><a xlink:href="Ioss__ElementTopology_8h.html" target="_top" xlink:title=" ">
<polygon fill="white" stroke="black" points="559,-168.5 559,-187.5 681,-187.5 681,-168.5 559,-168.5"/>
<text text-anchor="middle" x="620" y="-175.5" font-family="Helvetica,sans-Serif" font-size="10.00">Ioss_ElementTopology.h</text>
</a>
</g>
</g>
<!-- Node2&#45;&gt;Node11 -->
<g id="edge10" class="edge">
<title>Node2&#45;&gt;Node11</title>
<path fill="none" stroke="midnightblue" d="M705.61,-224.32C689.33,-215.7 664.13,-202.36 645.28,-192.39"/>
<polygon fill="midnightblue" stroke="midnightblue" points="646.82,-189.24 636.35,-187.65 643.55,-195.43 646.82,-189.24"/>
</g>
<!-- Node17 -->
<g id="node17" class="node">
<title>Node17</title>
<g id="a_node17"><a xlink:href="Ioss__EntityType_8h.html" target="_top" xlink:title=" ">
<polygon fill="white" stroke="black" points="248.5,-168.5 248.5,-187.5 343.5,-187.5 343.5,-168.5 248.5,-168.5"/>
<text text-anchor="middle" x="296" y="-175.5" font-family="Helvetica,sans-Serif" font-size="10.00">Ioss_EntityType.h</text>
</a>
</g>
</g>
<!-- Node2&#45;&gt;Node17 -->
<g id="edge23" class="edge">
<title>Node2&#45;&gt;Node17</title>
<path fill="none" stroke="midnightblue" d="M687.34,-228.96C622.58,-221.36 478.85,-204.24 358,-188 356.7,-187.82 355.38,-187.65 354.05,-187.46"/>
<polygon fill="midnightblue" stroke="midnightblue" points="354.1,-183.94 343.71,-186.03 353.14,-190.87 354.1,-183.94"/>
</g>
<!-- Node18 -->
<g id="node18" class="node">
<title>Node18</title>
<g id="a_node18"><a xlink:href="Ioss__Field_8h.html" target="_top" xlink:title=" ">
<polygon fill="white" stroke="black" points="839,-112.5 839,-131.5 909,-131.5 909,-112.5 839,-112.5"/>
<text text-anchor="middle" x="874" y="-119.5" font-family="Helvetica,sans-Serif" font-size="10.00">Ioss_Field.h</text>
</a>
</g>
</g>
<!-- Node2&#45;&gt;Node18 -->
<g id="edge24" class="edge">
<title>Node2&#45;&gt;Node18</title>
<path fill="none" stroke="midnightblue" d="M752.96,-224.36C774.94,-217.16 804.28,-205.26 826,-188 842.42,-174.95 856.03,-154.98 864.51,-140.61"/>
<polygon fill="midnightblue" stroke="midnightblue" points="867.67,-142.15 869.54,-131.72 861.57,-138.7 867.67,-142.15"/>
</g>
<!-- Node19 -->
<g id="node19" class="node">
<title>Node19</title>
<g id="a_node19"><a xlink:href="Ioss__Property_8h.html" target="_top" xlink:title=" ">
<polygon fill="white" stroke="black" points="337,-56.5 337,-75.5 421,-75.5 421,-56.5 337,-56.5"/>
<text text-anchor="middle" x="379" y="-63.5" font-family="Helvetica,sans-Serif" font-size="10.00">Ioss_Property.h</text>
</a>
</g>
</g>
<!-- Node2&#45;&gt;Node19 -->
<g id="edge29" class="edge">
<title>Node2&#45;&gt;Node19</title>
<path fill="none" stroke="midnightblue" d="M687.26,-232.38C616.1,-230.42 457.1,-222.23 417,-188 386.81,-162.24 380.3,-112.77 379.08,-85.75"/>
<polygon fill="midnightblue" stroke="midnightblue" points="382.58,-85.59 378.83,-75.67 375.58,-85.76 382.58,-85.59"/>
</g>
<!-- Node20 -->
<g id="node20" class="node">
<title>Node20</title>
<g id="a_node20"><a xlink:href="Ioss__Sort_8h.html" target="_top" xlink:title=" ">
<polygon fill="white" stroke="black" points="1021.5,-112.5 1021.5,-131.5 1088.5,-131.5 1088.5,-112.5 1021.5,-112.5"/>
<text text-anchor="middle" x="1055" y="-119.5" font-family="Helvetica,sans-Serif" font-size="10.00">Ioss_Sort.h</text>
</a>
</g>
</g>
<!-- Node2&#45;&gt;Node20 -->
<g id="edge33" class="edge">
<title>Node2&#45;&gt;Node20</title>
<path fill="none" stroke="midnightblue" d="M756.57,-231.17C824.23,-227.03 971.18,-215.12 1013,-188 1030.04,-176.95 1041.6,-156.3 1048.21,-141.23"/>
<polygon fill="midnightblue" stroke="midnightblue" points="1051.49,-142.45 1052,-131.87 1045,-139.82 1051.49,-142.45"/>
</g>
<!-- Node22 -->
<g id="node22" class="node">
<title>Node22</title>
<g id="a_node22"><a xlink:title=" ">
<polygon fill="white" stroke="#bfbfbf" points="1290,-0.5 1290,-19.5 1346,-19.5 1346,-0.5 1290,-0.5"/>
<text text-anchor="middle" x="1318" y="-7.5" font-family="Helvetica,sans-Serif" font-size="10.00">algorithm</text>
</a>
</g>
</g>
<!-- Node2&#45;&gt;Node22 -->
<g id="edge42" class="edge">
<title>Node2&#45;&gt;Node22</title>
<path fill="none" stroke="midnightblue" d="M756.52,-232.5C815.5,-230.68 938.73,-222.65 1036,-188 1146.04,-148.81 1258.07,-61.2 1300.38,-26.03"/>
<polygon fill="midnightblue" stroke="midnightblue" points="1302.7,-28.66 1308.11,-19.55 1298.2,-23.29 1302.7,-28.66"/>
</g>
<!-- Node26 -->
<g id="node26" class="node">
<title>Node26</title>
<g id="a_node26"><a xlink:title=" ">
<polygon fill="white" stroke="#bfbfbf" points="117.5,-56.5 117.5,-75.5 166.5,-75.5 166.5,-56.5 117.5,-56.5"/>
<text text-anchor="middle" x="142" y="-63.5" font-family="Helvetica,sans-Serif" font-size="10.00">cassert</text>
</a>
</g>
</g>
<!-- Node2&#45;&gt;Node26 -->
<g id="edge43" class="edge">
<title>Node2&#45;&gt;Node26</title>
<path fill="none" stroke="midnightblue" d="M687.22,-231.91C577.56,-228.23 243.98,-214.88 204,-188 194.59,-181.67 164.36,-116.64 149.88,-84.62"/>
<polygon fill="midnightblue" stroke="midnightblue" points="153.07,-83.19 145.78,-75.5 146.69,-86.06 153.07,-83.19"/>
</g>
<!-- Node27 -->
<g id="node27" class="node">
<title>Node27</title>
<g id="a_node27"><a xlink:title=" ">
<polygon fill="white" stroke="#bfbfbf" points="459,-168.5 459,-187.5 503,-187.5 503,-168.5 459,-168.5"/>
<text text-anchor="middle" x="481" y="-175.5" font-family="Helvetica,sans-Serif" font-size="10.00">cmath</text>
</a>
</g>
</g>
<!-- Node2&#45;&gt;Node27 -->
<g id="edge44" class="edge">
<title>Node2&#45;&gt;Node27</title>
<path fill="none" stroke="midnightblue" d="M687.47,-225.74C646.67,-217.09 576.77,-202.03 517,-188 515.73,-187.7 514.44,-187.39 513.13,-187.08"/>
<polygon fill="midnightblue" stroke="midnightblue" points="513.61,-183.6 503.06,-184.62 511.94,-190.4 513.61,-183.6"/>
</g>
<!-- Node28 -->
<g id="node28" class="node">
<title>Node28</title>
<g id="a_node28"><a xlink:title=" ">
<polygon fill="white" stroke="#bfbfbf" points="699.5,-168.5 699.5,-187.5 744.5,-187.5 744.5,-168.5 699.5,-168.5"/>
<text text-anchor="middle" x="722" y="-175.5" font-family="Helvetica,sans-Serif" font-size="10.00">cstdlib</text>
</a>
</g>
</g>
<!-- Node2&#45;&gt;Node28 -->
<g id="edge47" class="edge">
<title>Node2&#45;&gt;Node28</title>
<path fill="none" stroke="midnightblue" d="M722,-224.08C722,-217.01 722,-206.86 722,-197.99"/>
<polygon fill="midnightblue" stroke="midnightblue" points="725.5,-197.75 722,-187.75 718.5,-197.75 725.5,-197.75"/>
</g>
<!-- Node29 -->
<g id="node29" class="node">
<title>Node29</title>
<g id="a_node29"><a xlink:title=" ">
<polygon fill="white" stroke="#bfbfbf" points="763,-168.5 763,-187.5 817,-187.5 817,-168.5 763,-168.5"/>
<text text-anchor="middle" x="790" y="-175.5" font-family="Helvetica,sans-Serif" font-size="10.00">iostream</text>
</a>
</g>
</g>
<!-- Node2&#45;&gt;Node29 -->
<g id="edge48" class="edge">
<title>Node2&#45;&gt;Node29</title>
<path fill="none" stroke="midnightblue" d="M732.93,-224.32C743.17,-216.18 758.72,-203.84 771,-194.09"/>
<polygon fill="midnightblue" stroke="midnightblue" points="773.22,-196.79 778.88,-187.83 768.87,-191.31 773.22,-196.79"/>
</g>
<!-- Node30 -->
<g id="node30" class="node">
<title>Node30</title>
<g id="a_node30"><a xlink:title=" ">
<polygon fill="white" stroke="#bfbfbf" points="911.5,-168.5 911.5,-187.5 970.5,-187.5 970.5,-168.5 911.5,-168.5"/>
<text text-anchor="middle" x="941" y="-175.5" font-family="Helvetica,sans-Serif" font-size="10.00">stdexcept</text>
</a>
</g>
</g>
<!-- Node2&#45;&gt;Node30 -->
<g id="edge49" class="edge">
<title>Node2&#45;&gt;Node30</title>
<path fill="none" stroke="midnightblue" d="M756.7,-224.44C796.14,-214.72 860.39,-198.88 901.66,-188.7"/>
<polygon fill="midnightblue" stroke="midnightblue" points="902.51,-192.1 911.38,-186.3 900.83,-185.3 902.51,-192.1"/>
</g>
<!-- Node4 -->
<g id="node4" class="node">
<title>Node4</title>
<g id="a_node4"><a xlink:title=" ">
<polygon fill="white" stroke="#bfbfbf" points="329,-0.5 329,-19.5 367,-19.5 367,-0.5 329,-0.5"/>
<text text-anchor="middle" x="348" y="-7.5" font-family="Helvetica,sans-Serif" font-size="10.00">array</text>
</a>
</g>
</g>
<!-- Node3&#45;&gt;Node4 -->
<g id="edge3" class="edge">
<title>Node3&#45;&gt;Node4</title>
<path fill="none" stroke="midnightblue" d="M497.8,-56.44C464.66,-46.39 409.98,-29.8 376.65,-19.69"/>
<polygon fill="midnightblue" stroke="midnightblue" points="377.63,-16.33 367.04,-16.78 375.6,-23.03 377.63,-16.33"/>
</g>
<!-- Node3&#45;&gt;Node5 -->
<g id="edge4" class="edge">
<title>Node3&#45;&gt;Node5</title>
<path fill="none" stroke="midnightblue" d="M575.02,-57.19C578.06,-56.77 581.07,-56.37 584,-56 743.56,-35.88 935.04,-19.83 1012.23,-13.7"/>
<polygon fill="midnightblue" stroke="midnightblue" points="1012.66,-17.17 1022.35,-12.9 1012.11,-10.2 1012.66,-17.17"/>
</g>
<!-- Node3&#45;&gt;Node6 -->
<g id="edge5" class="edge">
<title>Node3&#45;&gt;Node6</title>
<path fill="none" stroke="midnightblue" d="M510.09,-56.32C494.36,-47.74 470.06,-34.49 451.79,-24.52"/>
<polygon fill="midnightblue" stroke="midnightblue" points="453.32,-21.37 442.87,-19.65 449.97,-27.52 453.32,-21.37"/>
</g>
<!-- Node3&#45;&gt;Node7 -->
<g id="edge6" class="edge">
<title>Node3&#45;&gt;Node7</title>
<path fill="none" stroke="midnightblue" d="M482.58,-56.44C426.77,-45.44 331.27,-26.62 282.54,-17.02"/>
<polygon fill="midnightblue" stroke="midnightblue" points="283.09,-13.56 272.61,-15.06 281.74,-20.43 283.09,-13.56"/>
</g>
<!-- Node3&#45;&gt;Node8 -->
<g id="edge7" class="edge">
<title>Node3&#45;&gt;Node8</title>
<path fill="none" stroke="midnightblue" d="M575.03,-56.62C640.5,-45.43 754.64,-25.93 810.03,-16.46"/>
<polygon fill="midnightblue" stroke="midnightblue" points="810.71,-19.9 819.98,-14.76 809.53,-13 810.71,-19.9"/>
</g>
<!-- Node9 -->
<g id="node9" class="node">
<title>Node9</title>
<g id="a_node9"><a xlink:title=" ">
<polygon fill="white" stroke="#bfbfbf" points="468,-0.5 468,-19.5 584,-19.5 584,-0.5 468,-0.5"/>
<text text-anchor="middle" x="526" y="-7.5" font-family="Helvetica,sans-Serif" font-size="10.00">SEACASIoss_config.h</text>
</a>
</g>
</g>
<!-- Node3&#45;&gt;Node9 -->
<g id="edge8" class="edge">
<title>Node3&#45;&gt;Node9</title>
<path fill="none" stroke="midnightblue" d="M526,-56.08C526,-49.01 526,-38.86 526,-29.99"/>
<polygon fill="midnightblue" stroke="midnightblue" points="529.5,-29.75 526,-19.75 522.5,-29.75 529.5,-29.75"/>
</g>
<!-- Node10 -->
<g id="node10" class="node">
<title>Node10</title>
<g id="a_node10"><a xlink:title=" ">
<polygon fill="white" stroke="#bfbfbf" points="602.5,-0.5 602.5,-19.5 655.5,-19.5 655.5,-0.5 602.5,-0.5"/>
<text text-anchor="middle" x="629" y="-7.5" font-family="Helvetica,sans-Serif" font-size="10.00">complex</text>
</a>
</g>
</g>
<!-- Node3&#45;&gt;Node10 -->
<g id="edge9" class="edge">
<title>Node3&#45;&gt;Node10</title>
<path fill="none" stroke="midnightblue" d="M542.55,-56.32C558.99,-47.7 584.43,-34.36 603.47,-24.39"/>
<polygon fill="midnightblue" stroke="midnightblue" points="605.26,-27.4 612.49,-19.65 602.01,-21.2 605.26,-27.4"/>
</g>
<!-- Node11&#45;&gt;Node3 -->
<g id="edge11" class="edge">
<title>Node11&#45;&gt;Node3</title>
<path fill="none" stroke="midnightblue" d="M599.97,-168.48C584.4,-160.94 563.3,-148.56 550,-132 539.18,-118.53 532.95,-99.72 529.56,-85.8"/>
<polygon fill="midnightblue" stroke="midnightblue" points="532.95,-84.91 527.42,-75.87 526.11,-86.39 532.95,-84.91"/>
</g>
<!-- Node11&#45;&gt;Node7 -->
<g id="edge21" class="edge">
<title>Node11&#45;&gt;Node7</title>
<path fill="none" stroke="midnightblue" d="M569.13,-168.45C482.87,-152.99 313.15,-118.04 271,-76 258.91,-63.95 254.43,-44.66 252.8,-30.22"/>
<polygon fill="midnightblue" stroke="midnightblue" points="256.27,-29.62 252.03,-19.91 249.29,-30.14 256.27,-29.62"/>
</g>
<!-- Node11&#45;&gt;Node8 -->
<g id="edge22" class="edge">
<title>Node11&#45;&gt;Node8</title>
<path fill="none" stroke="midnightblue" d="M662.11,-168.45C701.46,-159.8 756.66,-145.78 774,-132 808.16,-104.85 828.01,-55.58 836.71,-29.06"/>
<polygon fill="midnightblue" stroke="midnightblue" points="840.05,-30.1 839.68,-19.51 833.37,-28.02 840.05,-30.1"/>
</g>
<!-- Node12 -->
<g id="node12" class="node">
<title>Node12</title>
<g id="a_node12"><a xlink:href="Ioss__ElementPermutation_8h.html" target="_top" xlink:title=" ">
<polygon fill="white" stroke="black" points="607.5,-112.5 607.5,-131.5 744.5,-131.5 744.5,-112.5 607.5,-112.5"/>
<text text-anchor="middle" x="676" y="-119.5" font-family="Helvetica,sans-Serif" font-size="10.00">Ioss_ElementPermutation.h</text>
</a>
</g>
</g>
<!-- Node11&#45;&gt;Node12 -->
<g id="edge12" class="edge">
<title>Node11&#45;&gt;Node12</title>
<path fill="none" stroke="midnightblue" d="M629,-168.32C637.19,-160.42 649.51,-148.55 659.47,-138.94"/>
<polygon fill="midnightblue" stroke="midnightblue" points="662.07,-141.29 666.84,-131.83 657.21,-136.26 662.07,-141.29"/>
</g>
<!-- Node15 -->
<g id="node15" class="node">
<title>Node15</title>
<g id="a_node15"><a xlink:title=" ">
<polygon fill="white" stroke="#bfbfbf" points="759.5,-56.5 759.5,-75.5 794.5,-75.5 794.5,-56.5 759.5,-56.5"/>
<text text-anchor="middle" x="777" y="-63.5" font-family="Helvetica,sans-Serif" font-size="10.00">map</text>
</a>
</g>
</g>
<!-- Node11&#45;&gt;Node15 -->
<g id="edge19" class="edge">
<title>Node11&#45;&gt;Node15</title>
<path fill="none" stroke="midnightblue" d="M681.24,-168.52C706.56,-162.2 734.5,-151.19 754,-132 766.39,-119.81 772.12,-100.54 774.77,-86.14"/>
<polygon fill="midnightblue" stroke="midnightblue" points="778.28,-86.27 776.29,-75.87 771.36,-85.24 778.28,-86.27"/>
</g>
<!-- Node16 -->
<g id="node16" class="node">
<title>Node16</title>
<g id="a_node16"><a xlink:title=" ">
<polygon fill="white" stroke="#bfbfbf" points="559,-112.5 559,-131.5 589,-131.5 589,-112.5 559,-112.5"/>
<text text-anchor="middle" x="574" y="-119.5" font-family="Helvetica,sans-Serif" font-size="10.00">set</text>
</a>
</g>
</g>
<!-- Node11&#45;&gt;Node16 -->
<g id="edge20" class="edge">
<title>Node11&#45;&gt;Node16</title>
<path fill="none" stroke="midnightblue" d="M612.4,-168.08C605.77,-160.3 595.98,-148.8 587.94,-139.37"/>
<polygon fill="midnightblue" stroke="midnightblue" points="590.6,-137.09 581.45,-131.75 585.27,-141.63 590.6,-137.09"/>
</g>
<!-- Node12&#45;&gt;Node3 -->
<g id="edge13" class="edge">
<title>Node12&#45;&gt;Node3</title>
<path fill="none" stroke="midnightblue" d="M652.23,-112.44C627.11,-103.4 587.29,-89.06 559.1,-78.92"/>
<polygon fill="midnightblue" stroke="midnightblue" points="560.25,-75.61 549.66,-75.52 557.88,-82.2 560.25,-75.61"/>
</g>
<!-- Node12&#45;&gt;Node7 -->
<g id="edge17" class="edge">
<title>Node12&#45;&gt;Node7</title>
<path fill="none" stroke="midnightblue" d="M607.37,-113.08C498.11,-100.44 296.65,-77.02 295,-76 277.59,-65.28 265.75,-44.56 258.97,-29.39"/>
<polygon fill="midnightblue" stroke="midnightblue" points="262.13,-27.87 255.08,-19.96 255.66,-30.54 262.13,-27.87"/>
</g>
<!-- Node12&#45;&gt;Node8 -->
<g id="edge18" class="edge">
<title>Node12&#45;&gt;Node8</title>
<path fill="none" stroke="midnightblue" d="M684.63,-112.2C697.99,-98.89 724.88,-73.36 751,-56 770.16,-43.26 793.44,-31.82 811.66,-23.65"/>
<polygon fill="midnightblue" stroke="midnightblue" points="813.19,-26.81 820.94,-19.58 810.37,-20.4 813.19,-26.81"/>
</g>
<!-- Node13 -->
<g id="node13" class="node">
<title>Node13</title>
<g id="a_node13"><a xlink:title=" ">
<polygon fill="white" stroke="#bfbfbf" points="651,-56.5 651,-75.5 703,-75.5 703,-56.5 651,-56.5"/>
<text text-anchor="middle" x="677" y="-63.5" font-family="Helvetica,sans-Serif" font-size="10.00">assert.h</text>
</a>
</g>
</g>
<!-- Node12&#45;&gt;Node13 -->
<g id="edge14" class="edge">
<title>Node12&#45;&gt;Node13</title>
<path fill="none" stroke="midnightblue" d="M676.17,-112.08C676.3,-105.01 676.48,-94.86 676.65,-85.99"/>
<polygon fill="midnightblue" stroke="midnightblue" points="680.15,-85.81 676.84,-75.75 673.15,-85.68 680.15,-85.81"/>
</g>
<!-- Node14 -->
<g id="node14" class="node">
<title>Node14</title>
<g id="a_node14"><a xlink:title=" ">
<polygon fill="white" stroke="#bfbfbf" points="593,-56.5 593,-75.5 633,-75.5 633,-56.5 593,-56.5"/>
<text text-anchor="middle" x="613" y="-63.5" font-family="Helvetica,sans-Serif" font-size="10.00">limits</text>
</a>
</g>
</g>
<!-- Node12&#45;&gt;Node14 -->
<g id="edge15" class="edge">
<title>Node12&#45;&gt;Node14</title>
<path fill="none" stroke="midnightblue" d="M665.88,-112.32C656.47,-104.26 642.26,-92.08 630.93,-82.37"/>
<polygon fill="midnightblue" stroke="midnightblue" points="633.18,-79.68 623.31,-75.83 628.62,-85 633.18,-79.68"/>
</g>
<!-- Node12&#45;&gt;Node15 -->
<g id="edge16" class="edge">
<title>Node12&#45;&gt;Node15</title>
<path fill="none" stroke="midnightblue" d="M692.23,-112.32C708.35,-103.7 733.3,-90.36 751.96,-80.39"/>
<polygon fill="midnightblue" stroke="midnightblue" points="753.64,-83.46 760.81,-75.65 750.34,-77.28 753.64,-83.46"/>
</g>
<!-- Node18&#45;&gt;Node3 -->
<g id="edge25" class="edge">
<title>Node18&#45;&gt;Node3</title>
<path fill="none" stroke="midnightblue" d="M838.72,-115.53C779.14,-106.28 657.99,-87.48 585.22,-76.19"/>
<polygon fill="midnightblue" stroke="midnightblue" points="585.7,-72.72 575.28,-74.65 584.62,-79.64 585.7,-72.72"/>
</g>
<!-- Node18&#45;&gt;Node5 -->
<g id="edge26" class="edge">
<title>Node18&#45;&gt;Node5</title>
<path fill="none" stroke="midnightblue" d="M887.58,-112.37C917.26,-93.49 988.2,-48.38 1024.61,-25.24"/>
<polygon fill="midnightblue" stroke="midnightblue" points="1026.93,-27.91 1033.49,-19.59 1023.17,-22 1026.93,-27.91"/>
</g>
<!-- Node18&#45;&gt;Node7 -->
<g id="edge27" class="edge">
<title>Node18&#45;&gt;Node7</title>
<path fill="none" stroke="midnightblue" d="M838.61,-118.23C718.56,-108.81 333.93,-78.47 328,-76 302.58,-65.41 279.48,-42.98 265.59,-27.46"/>
<polygon fill="midnightblue" stroke="midnightblue" points="268.04,-24.95 258.86,-19.66 262.74,-29.52 268.04,-24.95"/>
</g>
<!-- Node18&#45;&gt;Node8 -->
<g id="edge28" class="edge">
<title>Node18&#45;&gt;Node8</title>
<path fill="none" stroke="midnightblue" d="M871.49,-112.37C866.3,-94.54 854.3,-53.3 847.32,-29.27"/>
<polygon fill="midnightblue" stroke="midnightblue" points="850.65,-28.22 844.5,-19.59 843.93,-30.17 850.65,-28.22"/>
</g>
<!-- Node19&#45;&gt;Node6 -->
<g id="edge30" class="edge">
<title>Node19&#45;&gt;Node6</title>
<path fill="none" stroke="midnightblue" d="M386.93,-56.08C393.85,-48.3 404.07,-36.8 412.45,-27.37"/>
<polygon fill="midnightblue" stroke="midnightblue" points="415.19,-29.55 419.22,-19.75 409.96,-24.9 415.19,-29.55"/>
</g>
<!-- Node19&#45;&gt;Node7 -->
<g id="edge31" class="edge">
<title>Node19&#45;&gt;Node7</title>
<path fill="none" stroke="midnightblue" d="M358.88,-56.44C337.98,-47.56 305.07,-33.56 281.28,-23.45"/>
<polygon fill="midnightblue" stroke="midnightblue" points="282.6,-20.21 272.03,-19.52 279.86,-26.65 282.6,-20.21"/>
</g>
<!-- Node19&#45;&gt;Node8 -->
<g id="edge32" class="edge">
<title>Node19&#45;&gt;Node8</title>
<path fill="none" stroke="midnightblue" d="M421.32,-60.06C512.97,-49.38 728.14,-24.28 809.8,-14.76"/>
<polygon fill="midnightblue" stroke="midnightblue" points="810.44,-18.2 819.97,-13.57 809.63,-11.25 810.44,-18.2"/>
</g>
<!-- Node20&#45;&gt;Node5 -->
<g id="edge40" class="edge">
<title>Node20&#45;&gt;Node5</title>
<path fill="none" stroke="midnightblue" d="M1058.29,-112.13C1062.51,-99.59 1068.84,-75.96 1065,-56 1063.21,-46.7 1059.52,-36.89 1055.94,-28.8"/>
<polygon fill="midnightblue" stroke="midnightblue" points="1059.06,-27.21 1051.62,-19.66 1052.73,-30.2 1059.06,-27.21"/>
</g>
<!-- Node20&#45;&gt;Node8 -->
<g id="edge41" class="edge">
<title>Node20&#45;&gt;Node8</title>
<path fill="none" stroke="midnightblue" d="M1042.59,-112.29C1023.49,-99.1 985.46,-73.72 951,-56 925.74,-43.01 895.84,-30.88 873.75,-22.5"/>
<polygon fill="midnightblue" stroke="midnightblue" points="874.79,-19.15 864.2,-18.92 872.34,-25.7 874.79,-19.15"/>
</g>
<!-- Node21 -->
<g id="node21" class="node">
<title>Node21</title>
<g id="a_node21"><a xlink:href="pdqsort_8h.html" target="_top" xlink:title=" ">
<polygon fill="white" stroke="black" points="1155.5,-56.5 1155.5,-75.5 1212.5,-75.5 1212.5,-56.5 1155.5,-56.5"/>
<text text-anchor="middle" x="1184" y="-63.5" font-family="Helvetica,sans-Serif" font-size="10.00">pdqsort.h</text>
</a>
</g>
</g>
<!-- Node20&#45;&gt;Node21 -->
<g id="edge34" class="edge">
<title>Node20&#45;&gt;Node21</title>
<path fill="none" stroke="midnightblue" d="M1075.44,-112.44C1096.67,-103.56 1130.1,-89.56 1154.25,-79.45"/>
<polygon fill="midnightblue" stroke="midnightblue" points="1155.78,-82.61 1163.66,-75.52 1153.08,-76.15 1155.78,-82.61"/>
</g>
<!-- Node21&#45;&gt;Node5 -->
<g id="edge36" class="edge">
<title>Node21&#45;&gt;Node5</title>
<path fill="none" stroke="midnightblue" d="M1162.29,-56.44C1139.65,-47.52 1103.93,-33.44 1078.25,-23.32"/>
<polygon fill="midnightblue" stroke="midnightblue" points="1079.19,-19.93 1068.61,-19.52 1076.63,-26.44 1079.19,-19.93"/>
</g>
<!-- Node21&#45;&gt;Node22 -->
<g id="edge35" class="edge">
<title>Node21&#45;&gt;Node22</title>
<path fill="none" stroke="midnightblue" d="M1205.23,-56.44C1227.38,-47.52 1262.32,-33.44 1287.44,-23.32"/>
<polygon fill="midnightblue" stroke="midnightblue" points="1288.9,-26.5 1296.87,-19.52 1286.28,-20.01 1288.9,-26.5"/>
</g>
<!-- Node23 -->
<g id="node23" class="node">
<title>Node23</title>
<g id="a_node23"><a xlink:title=" ">
<polygon fill="white" stroke="#bfbfbf" points="1154.5,-0.5 1154.5,-19.5 1213.5,-19.5 1213.5,-0.5 1154.5,-0.5"/>
<text text-anchor="middle" x="1184" y="-7.5" font-family="Helvetica,sans-Serif" font-size="10.00">functional</text>
</a>
</g>
</g>
<!-- Node21&#45;&gt;Node23 -->
<g id="edge37" class="edge">
<title>Node21&#45;&gt;Node23</title>
<path fill="none" stroke="midnightblue" d="M1184,-56.08C1184,-49.01 1184,-38.86 1184,-29.99"/>
<polygon fill="midnightblue" stroke="midnightblue" points="1187.5,-29.75 1184,-19.75 1180.5,-29.75 1187.5,-29.75"/>
</g>
<!-- Node24 -->
<g id="node24" class="node">
<title>Node24</title>
<g id="a_node24"><a xlink:title=" ">
<polygon fill="white" stroke="#bfbfbf" points="1089.5,-0.5 1089.5,-19.5 1136.5,-19.5 1136.5,-0.5 1089.5,-0.5"/>
<text text-anchor="middle" x="1113" y="-7.5" font-family="Helvetica,sans-Serif" font-size="10.00">iterator</text>
</a>
</g>
</g>
<!-- Node21&#45;&gt;Node24 -->
<g id="edge38" class="edge">
<title>Node21&#45;&gt;Node24</title>
<path fill="none" stroke="midnightblue" d="M1172.59,-56.32C1161.89,-48.18 1145.66,-35.84 1132.84,-26.09"/>
<polygon fill="midnightblue" stroke="midnightblue" points="1134.69,-23.1 1124.61,-19.83 1130.46,-28.67 1134.69,-23.1"/>
</g>
<!-- Node25 -->
<g id="node25" class="node">
<title>Node25</title>
<g id="a_node25"><a xlink:title=" ">
<polygon fill="white" stroke="#bfbfbf" points="1232,-0.5 1232,-19.5 1272,-19.5 1272,-0.5 1232,-0.5"/>
<text text-anchor="middle" x="1252" y="-7.5" font-family="Helvetica,sans-Serif" font-size="10.00">utility</text>
</a>
</g>
</g>
<!-- Node21&#45;&gt;Node25 -->
<g id="edge39" class="edge">
<title>Node21&#45;&gt;Node25</title>
<path fill="none" stroke="midnightblue" d="M1194.93,-56.32C1205.17,-48.18 1220.72,-35.84 1233,-26.09"/>
<polygon fill="midnightblue" stroke="midnightblue" points="1235.22,-28.79 1240.88,-19.83 1230.87,-23.31 1235.22,-28.79"/>
</g>
<!-- Node31&#45;&gt;Node3 -->
<g id="edge53" class="edge">
<title>Node31&#45;&gt;Node3</title>
<path fill="none" stroke="midnightblue" d="M152.01,-113.32C235.85,-102.94 384.34,-84.55 466.74,-74.34"/>
<polygon fill="midnightblue" stroke="midnightblue" points="467.2,-77.81 476.7,-73.11 466.34,-70.86 467.2,-77.81"/>
</g>
<!-- Node31&#45;&gt;Node4 -->
<g id="edge54" class="edge">
<title>Node31&#45;&gt;Node4</title>
<path fill="none" stroke="midnightblue" d="M89.7,-112.38C89.73,-98.37 91.96,-70.73 108,-56 115.77,-48.87 256.46,-25.63 318.75,-15.64"/>
<polygon fill="midnightblue" stroke="midnightblue" points="319.41,-19.08 328.73,-14.04 318.3,-12.17 319.41,-19.08"/>
</g>
<!-- Node31&#45;&gt;Node7 -->
<g id="edge56" class="edge">
<title>Node31&#45;&gt;Node7</title>
<path fill="none" stroke="midnightblue" d="M84,-112.46C75.39,-99.04 61.92,-72.82 75,-56 92.79,-33.13 175.39,-19.98 221.2,-14.33"/>
<polygon fill="midnightblue" stroke="midnightblue" points="221.67,-17.79 231.18,-13.14 220.84,-10.84 221.67,-17.79"/>
</g>
<!-- Node31&#45;&gt;Node26 -->
<g id="edge55" class="edge">
<title>Node31&#45;&gt;Node26</title>
<path fill="none" stroke="midnightblue" d="M98.59,-112.08C106.16,-104.22 117.38,-92.57 126.51,-83.08"/>
<polygon fill="midnightblue" stroke="midnightblue" points="129.16,-85.38 133.57,-75.75 124.12,-80.53 129.16,-85.38"/>
</g>
</g>
</svg>
        <g id="navigator" transform="translate(0 0)" fill="#404254">
                <rect fill="#f2f5e9" fill-opacity="0.5" stroke="#606060" stroke-width=".5" x="0" y="0" width="60" height="60"/>
                <use id="zoomplus" xlink:href="#zoomPlus" x="17" y="9" onmousedown="handleZoom(evt,'in')"/>
                <use id="zoomminus" xlink:href="#zoomMin" x="42" y="9" onmousedown="handleZoom(evt,'out')"/>
                <use id="reset" xlink:href="#resetDef" x="30" y="36" onmousedown="handleReset()"/>
                <g id="arrowUp" xlink:href="#dirArrow" transform="translate(30 24)" onmousedown="handlePan(0,-1)">
                  <use xlink:href="#rim" fill="#404040">
                        <set attributeName="fill" to="#808080" begin="arrowUp.mouseover" end="arrowUp.mouseout"/>
                  </use>
                  <path fill="none" stroke="white" stroke-width="1.5" d="M0,-3.0v7 M-2.5,-0.5L0,-3.0L2.5,-0.5"/>
                </g>
                <g id="arrowRight" xlink:href="#dirArrow" transform="rotate(90) translate(36 -43)" onmousedown="handlePan(1,0)">
                  <use xlink:href="#rim" fill="#404040">
                        <set attributeName="fill" to="#808080" begin="arrowRight.mouseover" end="arrowRight.mouseout"/>
                  </use>
                  <path fill="none" stroke="white" stroke-width="1.5" d="M0,-3.0v7 M-2.5,-0.5L0,-3.0L2.5,-0.5"/>
                </g>
                <g id="arrowDown" xlink:href="#dirArrow" transform="rotate(180) translate(-30 -48)" onmousedown="handlePan(0,1)">
                  <use xlink:href="#rim" fill="#404040">
                        <set attributeName="fill" to="#808080" begin="arrowDown.mouseover" end="arrowDown.mouseout"/>
                  </use>
                  <path fill="none" stroke="white" stroke-width="1.5" d="M0,-3.0v7 M-2.5,-0.5L0,-3.0L2.5,-0.5"/>
                </g>
                <g id="arrowLeft" xlink:href="#dirArrow" transform="rotate(270) translate(-36 17)" onmousedown="handlePan(-1,0)">
                  <use xlink:href="#rim" fill="#404040">
                        <set attributeName="fill" to="#808080" begin="arrowLeft.mouseover" end="arrowLeft.mouseout"/>
                  </use>
                  <path fill="none" stroke="white" stroke-width="1.5" d="M0,-3.0v7 M-2.5,-0.5L0,-3.0L2.5,-0.5"/>
                </g>
        </g>
        <svg viewBox="0 0 15 15" width="100%" height="30px" preserveAspectRatio="xMaxYMin meet">
         <g id="arrow_out" transform="scale(0.3 0.3)">
          <a xlink:href="Ioss__ZoneConnectivity_8C__incl_org.svg" target="_base">
           <rect id="button" ry="5" rx="5" y="6" x="6" height="38" width="38"
                fill="#f2f5e9" fill-opacity="0.5" stroke="#606060" stroke-width="1.0"/>
           <path id="arrow"
             d="M 11.500037,31.436501 C 11.940474,20.09759 22.043105,11.32322 32.158766,21.979434 L 37.068811,17.246167 C 37.068811,17.246167 37.088388,32 37.088388,32 L 22.160133,31.978069 C 22.160133,31.978069 26.997745,27.140456 26.997745,27.140456 C 18.528582,18.264221 13.291696,25.230495 11.500037,31.436501 z"
             style="fill:#404040;"/>
          </a>
         </g>
        </svg>
</svg>
