<?xml version="1.0" encoding="UTF-8" standalone="no"?>
<!DOCTYPE svg PUBLIC "-//W3C//DTD SVG 1.1//EN"
 "http://www.w3.org/Graphics/SVG/1.1/DTD/svg11.dtd">
<!-- Generated by graphviz version 2.48.0 (20210717.1556)
 -->
<!-- Title: src/Ioss_PropertyManager.C Pages: 1 -->
<svg width="1777pt" height="252pt"
 viewBox="0.00 0.00 1776.83 252.00" xmlns="http://www.w3.org/2000/svg" xmlns:xlink="http://www.w3.org/1999/xlink">
<g id="graph0" class="graph" transform="scale(1 1) rotate(0) translate(4 248)">
<title>src/Ioss_PropertyManager.C</title>
<polygon fill="white" stroke="transparent" points="-4,4 -4,-248 1772.83,-248 1772.83,4 -4,4"/>
<!-- Node1 -->
<g id="node1" class="node">
<title>Node1</title>
<g id="a_node1"><a xlink:title=" ">
<polygon fill="#bfbfbf" stroke="black" points="649.33,-224.5 649.33,-243.5 792.33,-243.5 792.33,-224.5 649.33,-224.5"/>
<text text-anchor="middle" x="720.83" y="-231.5" font-family="Helvetica,sans-Serif" font-size="10.00">src/Ioss_PropertyManager.C</text>
</a>
</g>
</g>
<!-- Node2 -->
<g id="node2" class="node">
<title>Node2</title>
<g id="a_node2"><a xlink:href="Ioss__Property_8h.html" target="_top" xlink:title=" ">
<polygon fill="white" stroke="black" points="179.83,-56.5 179.83,-75.5 265.83,-75.5 265.83,-56.5 179.83,-56.5"/>
<text text-anchor="middle" x="222.83" y="-63.5" font-family="Helvetica,sans-Serif" font-size="10.00">Ioss_Property.h</text>
</a>
</g>
</g>
<!-- Node1&#45;&gt;Node2 -->
<g id="edge1" class="edge">
<title>Node1&#45;&gt;Node2</title>
<path fill="none" stroke="midnightblue" d="M676.5,-224.48C605.66,-210.09 463.24,-177.98 348.83,-132 311.57,-117.02 270.62,-94.73 245.82,-80.54"/>
<polygon fill="midnightblue" stroke="midnightblue" points="247.56,-77.5 237.15,-75.52 244.06,-83.56 247.56,-77.5"/>
</g>
<!-- Node4 -->
<g id="node4" class="node">
<title>Node4</title>
<g id="a_node4"><a xlink:title=" ">
<polygon fill="white" stroke="#bfbfbf" points="142.33,-0.5 142.33,-19.5 183.33,-19.5 183.33,-0.5 142.33,-0.5"/>
<text text-anchor="middle" x="162.83" y="-7.5" font-family="Helvetica,sans-Serif" font-size="10.00">string</text>
</a>
</g>
</g>
<!-- Node1&#45;&gt;Node4 -->
<g id="edge79" class="edge">
<title>Node1&#45;&gt;Node4</title>
<path fill="none" stroke="midnightblue" d="M649.13,-229.47C497.62,-220.85 150.75,-194.68 52.83,-132 19.77,-110.84 -15.74,-87.39 7.83,-56 22.77,-36.11 91.54,-22.16 132.29,-15.48"/>
<polygon fill="midnightblue" stroke="midnightblue" points="132.91,-18.93 142.24,-13.91 131.81,-12.02 132.91,-18.93"/>
</g>
<!-- Node6 -->
<g id="node6" class="node">
<title>Node6</title>
<g id="a_node6"><a xlink:href="Ioss__PropertyManager_8h.html" target="_top" xlink:title=" ">
<polygon fill="white" stroke="black" points="160.33,-112.5 160.33,-131.5 285.33,-131.5 285.33,-112.5 160.33,-112.5"/>
<text text-anchor="middle" x="222.83" y="-119.5" font-family="Helvetica,sans-Serif" font-size="10.00">Ioss_PropertyManager.h</text>
</a>
</g>
</g>
<!-- Node1&#45;&gt;Node6 -->
<g id="edge5" class="edge">
<title>Node1&#45;&gt;Node6</title>
<path fill="none" stroke="midnightblue" d="M649.22,-229.24C549.93,-223.31 375.99,-210.13 316.83,-188 286.8,-176.77 257.24,-153.82 239.51,-138.43"/>
<polygon fill="midnightblue" stroke="midnightblue" points="241.6,-135.6 231.81,-131.56 236.94,-140.82 241.6,-135.6"/>
</g>
<!-- Node9 -->
<g id="node9" class="node">
<title>Node9</title>
<g id="a_node9"><a xlink:title=" ">
<polygon fill="white" stroke="#bfbfbf" points="591.33,-0.5 591.33,-19.5 640.33,-19.5 640.33,-0.5 591.33,-0.5"/>
<text text-anchor="middle" x="615.83" y="-7.5" font-family="Helvetica,sans-Serif" font-size="10.00">cstddef</text>
</a>
</g>
</g>
<!-- Node1&#45;&gt;Node9 -->
<g id="edge46" class="edge">
<title>Node1&#45;&gt;Node9</title>
<path fill="none" stroke="midnightblue" d="M711.15,-224.34C701.88,-215.72 687.85,-201.82 677.83,-188 641.26,-137.55 624.72,-63.62 618.7,-29.5"/>
<polygon fill="midnightblue" stroke="midnightblue" points="622.13,-28.84 617.04,-19.55 615.23,-29.99 622.13,-28.84"/>
</g>
<!-- Node13 -->
<g id="node13" class="node">
<title>Node13</title>
<g id="a_node13"><a xlink:href="Ioss__Utils_8h.html" target="_top" xlink:title=" ">
<polygon fill="white" stroke="black" points="686.83,-168.5 686.83,-187.5 754.83,-187.5 754.83,-168.5 686.83,-168.5"/>
<text text-anchor="middle" x="720.83" y="-175.5" font-family="Helvetica,sans-Serif" font-size="10.00">Ioss_Utils.h</text>
</a>
</g>
</g>
<!-- Node1&#45;&gt;Node13 -->
<g id="edge19" class="edge">
<title>Node1&#45;&gt;Node13</title>
<path fill="none" stroke="midnightblue" d="M720.83,-224.08C720.83,-217.01 720.83,-206.86 720.83,-197.99"/>
<polygon fill="midnightblue" stroke="midnightblue" points="724.33,-197.75 720.83,-187.75 717.33,-197.75 724.33,-197.75"/>
</g>
<!-- Node20 -->
<g id="node20" class="node">
<title>Node20</title>
<g id="a_node20"><a xlink:title=" ">
<polygon fill="white" stroke="#bfbfbf" points="800.33,-0.5 800.33,-19.5 839.33,-19.5 839.33,-0.5 800.33,-0.5"/>
<text text-anchor="middle" x="819.83" y="-7.5" font-family="Helvetica,sans-Serif" font-size="10.00">utility</text>
</a>
</g>
</g>
<!-- Node1&#45;&gt;Node20 -->
<g id="edge80" class="edge">
<title>Node1&#45;&gt;Node20</title>
<path fill="none" stroke="midnightblue" d="M792.48,-226.09C852.38,-216.1 934.33,-191.69 974.83,-132 979.82,-124.64 979.06,-119.81 974.83,-112 948.18,-62.83 886.07,-33.82 849.07,-20.3"/>
<polygon fill="midnightblue" stroke="midnightblue" points="849.95,-16.89 839.35,-16.89 847.63,-23.5 849.95,-16.89"/>
</g>
<!-- Node26 -->
<g id="node26" class="node">
<title>Node26</title>
<g id="a_node26"><a xlink:href="ostream_8h.html" target="_top" xlink:title=" ">
<polygon fill="white" stroke="black" points="1133.83,-168.5 1133.83,-187.5 1211.83,-187.5 1211.83,-168.5 1133.83,-168.5"/>
<text text-anchor="middle" x="1172.83" y="-175.5" font-family="Helvetica,sans-Serif" font-size="10.00">fmt/ostream.h</text>
</a>
</g>
</g>
<!-- Node1&#45;&gt;Node26 -->
<g id="edge47" class="edge">
<title>Node1&#45;&gt;Node26</title>
<path fill="none" stroke="midnightblue" d="M792.45,-224.44C884.88,-213.4 1043.32,-194.47 1123.4,-184.91"/>
<polygon fill="midnightblue" stroke="midnightblue" points="1124.18,-188.34 1133.7,-183.67 1123.35,-181.39 1124.18,-188.34"/>
</g>
<!-- Node27 -->
<g id="node27" class="node">
<title>Node27</title>
<g id="a_node27"><a xlink:title=" ">
<polygon fill="white" stroke="#bfbfbf" points="1314.33,-112.5 1314.33,-131.5 1367.33,-131.5 1367.33,-112.5 1314.33,-112.5"/>
<text text-anchor="middle" x="1340.83" y="-119.5" font-family="Helvetica,sans-Serif" font-size="10.00">ostream</text>
</a>
</g>
</g>
<!-- Node1&#45;&gt;Node27 -->
<g id="edge78" class="edge">
<title>Node1&#45;&gt;Node27</title>
<path fill="none" stroke="midnightblue" d="M792.74,-230.11C911.36,-224.74 1142.71,-211.58 1220.83,-188 1223.38,-187.23 1281.71,-155.38 1316.09,-136.56"/>
<polygon fill="midnightblue" stroke="midnightblue" points="1318,-139.51 1325.09,-131.63 1314.64,-133.37 1318,-139.51"/>
</g>
<!-- Node44 -->
<g id="node44" class="node">
<title>Node44</title>
<g id="a_node44"><a xlink:title=" ">
<polygon fill="white" stroke="#bfbfbf" points="1267.83,-168.5 1267.83,-187.5 1303.83,-187.5 1303.83,-168.5 1267.83,-168.5"/>
<text text-anchor="middle" x="1285.83" y="-175.5" font-family="Helvetica,sans-Serif" font-size="10.00">map</text>
</a>
</g>
</g>
<!-- Node1&#45;&gt;Node44 -->
<g id="edge77" class="edge">
<title>Node1&#45;&gt;Node44</title>
<path fill="none" stroke="midnightblue" d="M792.52,-231.26C895.39,-227.8 1090.49,-217.59 1253.83,-188 1255.11,-187.77 1256.41,-187.51 1257.72,-187.23"/>
<polygon fill="midnightblue" stroke="midnightblue" points="1258.83,-190.56 1267.69,-184.75 1257.14,-183.76 1258.83,-190.56"/>
</g>
<!-- Node3 -->
<g id="node3" class="node">
<title>Node3</title>
<g id="a_node3"><a xlink:title=" ">
<polygon fill="white" stroke="#bfbfbf" points="528.33,-0.5 528.33,-19.5 573.33,-19.5 573.33,-0.5 528.33,-0.5"/>
<text text-anchor="middle" x="550.83" y="-7.5" font-family="Helvetica,sans-Serif" font-size="10.00">cstdint</text>
</a>
</g>
</g>
<!-- Node2&#45;&gt;Node3 -->
<g id="edge2" class="edge">
<title>Node2&#45;&gt;Node3</title>
<path fill="none" stroke="midnightblue" d="M266.27,-60.1C322.31,-53.4 422.95,-40.11 518.38,-19.85"/>
<polygon fill="midnightblue" stroke="midnightblue" points="519.15,-23.27 528.19,-17.74 517.68,-16.42 519.15,-23.27"/>
</g>
<!-- Node2&#45;&gt;Node4 -->
<g id="edge3" class="edge">
<title>Node2&#45;&gt;Node4</title>
<path fill="none" stroke="midnightblue" d="M213.19,-56.32C204.32,-48.34 190.95,-36.31 180.22,-26.65"/>
<polygon fill="midnightblue" stroke="midnightblue" points="182.42,-23.92 172.64,-19.83 177.73,-29.13 182.42,-23.92"/>
</g>
<!-- Node5 -->
<g id="node5" class="node">
<title>Node5</title>
<g id="a_node5"><a xlink:title=" ">
<polygon fill="white" stroke="#bfbfbf" points="465.83,-0.5 465.83,-19.5 509.83,-19.5 509.83,-0.5 465.83,-0.5"/>
<text text-anchor="middle" x="487.83" y="-7.5" font-family="Helvetica,sans-Serif" font-size="10.00">vector</text>
</a>
</g>
</g>
<!-- Node2&#45;&gt;Node5 -->
<g id="edge4" class="edge">
<title>Node2&#45;&gt;Node5</title>
<path fill="none" stroke="midnightblue" d="M266.21,-57.9C311.27,-50.24 383.97,-37.13 455.47,-20.16"/>
<polygon fill="midnightblue" stroke="midnightblue" points="456.64,-23.48 465.54,-17.74 455,-16.67 456.64,-23.48"/>
</g>
<!-- Node6&#45;&gt;Node2 -->
<g id="edge14" class="edge">
<title>Node6&#45;&gt;Node2</title>
<path fill="none" stroke="midnightblue" d="M222.83,-112.08C222.83,-105.01 222.83,-94.86 222.83,-85.99"/>
<polygon fill="midnightblue" stroke="midnightblue" points="226.33,-85.75 222.83,-75.75 219.33,-85.75 226.33,-85.75"/>
</g>
<!-- Node6&#45;&gt;Node4 -->
<g id="edge16" class="edge">
<title>Node6&#45;&gt;Node4</title>
<path fill="none" stroke="midnightblue" d="M160.25,-115.03C109.36,-108.73 43.36,-96.76 26.83,-76 -3.7,-37.67 83.2,-20.63 132.07,-14.25"/>
<polygon fill="midnightblue" stroke="midnightblue" points="132.66,-17.71 142.16,-13.01 131.8,-10.76 132.66,-17.71"/>
</g>
<!-- Node6&#45;&gt;Node5 -->
<g id="edge18" class="edge">
<title>Node6&#45;&gt;Node5</title>
<path fill="none" stroke="midnightblue" d="M207.25,-112.37C186.32,-99.72 153.62,-75.51 170.83,-56 211.3,-10.12 378.12,-30.87 455.31,-19.71"/>
<polygon fill="midnightblue" stroke="midnightblue" points="456.33,-23.08 465.58,-17.91 455.13,-16.19 456.33,-23.08"/>
</g>
<!-- Node7 -->
<g id="node7" class="node">
<title>Node7</title>
<g id="a_node7"><a xlink:href="Ioss__CodeTypes_8h.html" target="_top" xlink:title=" ">
<polygon fill="white" stroke="black" points="322.33,-56.5 322.33,-75.5 421.33,-75.5 421.33,-56.5 322.33,-56.5"/>
<text text-anchor="middle" x="371.83" y="-63.5" font-family="Helvetica,sans-Serif" font-size="10.00">Ioss_CodeTypes.h</text>
</a>
</g>
</g>
<!-- Node6&#45;&gt;Node7 -->
<g id="edge6" class="edge">
<title>Node6&#45;&gt;Node7</title>
<path fill="none" stroke="midnightblue" d="M246.44,-112.44C271.29,-103.44 310.6,-89.19 338.58,-79.05"/>
<polygon fill="midnightblue" stroke="midnightblue" points="340.12,-82.21 348.33,-75.52 337.73,-75.63 340.12,-82.21"/>
</g>
<!-- Node6&#45;&gt;Node9 -->
<g id="edge15" class="edge">
<title>Node6&#45;&gt;Node9</title>
<path fill="none" stroke="midnightblue" d="M270.09,-112.43C312.31,-104.37 375.68,-91.29 429.83,-76 485.05,-60.41 547.75,-37.35 584.43,-23.29"/>
<polygon fill="midnightblue" stroke="midnightblue" points="585.99,-26.45 594.06,-19.58 583.47,-19.91 585.99,-26.45"/>
</g>
<!-- Node12 -->
<g id="node12" class="node">
<title>Node12</title>
<g id="a_node12"><a xlink:title=" ">
<polygon fill="white" stroke="#bfbfbf" points="36.33,-56.5 36.33,-75.5 123.33,-75.5 123.33,-56.5 36.33,-56.5"/>
<text text-anchor="middle" x="79.83" y="-63.5" font-family="Helvetica,sans-Serif" font-size="10.00">unordered_map</text>
</a>
</g>
</g>
<!-- Node6&#45;&gt;Node12 -->
<g id="edge17" class="edge">
<title>Node6&#45;&gt;Node12</title>
<path fill="none" stroke="midnightblue" d="M200.17,-112.44C176.43,-103.48 138.92,-89.31 112.09,-79.18"/>
<polygon fill="midnightblue" stroke="midnightblue" points="112.97,-75.77 102.38,-75.52 110.5,-82.32 112.97,-75.77"/>
</g>
<!-- Node7&#45;&gt;Node3 -->
<g id="edge9" class="edge">
<title>Node7&#45;&gt;Node3</title>
<path fill="none" stroke="midnightblue" d="M400.19,-56.44C432.35,-46.74 484.69,-30.95 518.43,-20.77"/>
<polygon fill="midnightblue" stroke="midnightblue" points="519.7,-24.05 528.27,-17.81 517.68,-17.34 519.7,-24.05"/>
</g>
<!-- Node7&#45;&gt;Node4 -->
<g id="edge10" class="edge">
<title>Node7&#45;&gt;Node4</title>
<path fill="none" stroke="midnightblue" d="M335.7,-56.43C301.51,-48.2 248.53,-35.16 193.4,-20.06"/>
<polygon fill="midnightblue" stroke="midnightblue" points="194.02,-16.6 183.45,-17.32 192.16,-23.35 194.02,-16.6"/>
</g>
<!-- Node7&#45;&gt;Node5 -->
<g id="edge11" class="edge">
<title>Node7&#45;&gt;Node5</title>
<path fill="none" stroke="midnightblue" d="M390.21,-56.44C409.04,-47.68 438.56,-33.94 460.21,-23.86"/>
<polygon fill="midnightblue" stroke="midnightblue" points="461.94,-26.91 469.53,-19.52 458.99,-20.56 461.94,-26.91"/>
</g>
<!-- Node8 -->
<g id="node8" class="node">
<title>Node8</title>
<g id="a_node8"><a xlink:title=" ">
<polygon fill="white" stroke="#bfbfbf" points="274.33,-0.5 274.33,-19.5 313.33,-19.5 313.33,-0.5 274.33,-0.5"/>
<text text-anchor="middle" x="293.83" y="-7.5" font-family="Helvetica,sans-Serif" font-size="10.00">array</text>
</a>
</g>
</g>
<!-- Node7&#45;&gt;Node8 -->
<g id="edge7" class="edge">
<title>Node7&#45;&gt;Node8</title>
<path fill="none" stroke="midnightblue" d="M359.3,-56.32C347.24,-47.98 328.8,-35.21 314.56,-25.35"/>
<polygon fill="midnightblue" stroke="midnightblue" points="316.54,-22.47 306.33,-19.65 312.56,-28.22 316.54,-22.47"/>
</g>
<!-- Node7&#45;&gt;Node9 -->
<g id="edge8" class="edge">
<title>Node7&#45;&gt;Node9</title>
<path fill="none" stroke="midnightblue" d="M415.23,-56.49C455.83,-48.35 518.38,-35.41 580.96,-20.36"/>
<polygon fill="midnightblue" stroke="midnightblue" points="582.11,-23.69 591,-17.93 580.46,-16.88 582.11,-23.69"/>
</g>
<!-- Node10 -->
<g id="node10" class="node">
<title>Node10</title>
<g id="a_node10"><a xlink:title=" ">
<polygon fill="white" stroke="#bfbfbf" points="331.83,-0.5 331.83,-19.5 447.83,-19.5 447.83,-0.5 331.83,-0.5"/>
<text text-anchor="middle" x="389.83" y="-7.5" font-family="Helvetica,sans-Serif" font-size="10.00">SEACASIoss_config.h</text>
</a>
</g>
</g>
<!-- Node7&#45;&gt;Node10 -->
<g id="edge12" class="edge">
<title>Node7&#45;&gt;Node10</title>
<path fill="none" stroke="midnightblue" d="M374.8,-56.08C377.21,-48.85 380.69,-38.41 383.7,-29.4"/>
<polygon fill="midnightblue" stroke="midnightblue" points="387.07,-30.34 386.91,-19.75 380.43,-28.13 387.07,-30.34"/>
</g>
<!-- Node11 -->
<g id="node11" class="node">
<title>Node11</title>
<g id="a_node11"><a xlink:title=" ">
<polygon fill="white" stroke="#bfbfbf" points="201.83,-0.5 201.83,-19.5 255.83,-19.5 255.83,-0.5 201.83,-0.5"/>
<text text-anchor="middle" x="228.83" y="-7.5" font-family="Helvetica,sans-Serif" font-size="10.00">complex</text>
</a>
</g>
</g>
<!-- Node7&#45;&gt;Node11 -->
<g id="edge13" class="edge">
<title>Node7&#45;&gt;Node11</title>
<path fill="none" stroke="midnightblue" d="M349.17,-56.44C325.43,-47.48 287.92,-33.31 261.09,-23.18"/>
<polygon fill="midnightblue" stroke="midnightblue" points="261.97,-19.77 251.38,-19.52 259.5,-26.32 261.97,-19.77"/>
</g>
<!-- Node13&#45;&gt;Node2 -->
<g id="edge26" class="edge">
<title>Node13&#45;&gt;Node2</title>
<path fill="none" stroke="midnightblue" d="M686.6,-174.12C629.18,-168.82 510.08,-155.83 411.83,-132 381.59,-124.67 300.96,-95.71 255.39,-79.02"/>
<polygon fill="midnightblue" stroke="midnightblue" points="256.55,-75.72 245.95,-75.56 254.14,-82.29 256.55,-75.72"/>
</g>
<!-- Node13&#45;&gt;Node3 -->
<g id="edge40" class="edge">
<title>Node13&#45;&gt;Node3</title>
<path fill="none" stroke="midnightblue" d="M703.48,-168.49C687.94,-160.38 665.01,-147.18 647.83,-132 611.51,-99.91 578.31,-53.12 561.8,-28.17"/>
<polygon fill="midnightblue" stroke="midnightblue" points="564.7,-26.23 556.31,-19.76 558.84,-30.05 564.7,-26.23"/>
</g>
<!-- Node13&#45;&gt;Node4 -->
<g id="edge44" class="edge">
<title>Node13&#45;&gt;Node4</title>
<path fill="none" stroke="midnightblue" d="M686.68,-175.72C579.94,-171.5 253.58,-156.85 150.83,-132 88.09,-116.83 52.6,-129.73 16.83,-76 -12.25,-32.34 81.24,-17.72 132.13,-13.05"/>
<polygon fill="midnightblue" stroke="midnightblue" points="132.61,-16.53 142.28,-12.2 132.03,-9.55 132.61,-16.53"/>
</g>
<!-- Node13&#45;&gt;Node5 -->
<g id="edge45" class="edge">
<title>Node13&#45;&gt;Node5</title>
<path fill="none" stroke="midnightblue" d="M697.49,-168.42C677.19,-160.44 647.42,-147.48 623.83,-132 575.4,-100.22 526.61,-51.92 502.79,-27.05"/>
<polygon fill="midnightblue" stroke="midnightblue" points="505.13,-24.43 495.71,-19.57 500.04,-29.24 505.13,-24.43"/>
</g>
<!-- Node13&#45;&gt;Node7 -->
<g id="edge20" class="edge">
<title>Node13&#45;&gt;Node7</title>
<path fill="none" stroke="midnightblue" d="M686.6,-177.53C632.38,-177.08 524.64,-170.81 443.83,-132 420.22,-120.67 398.73,-99.12 385.49,-83.95"/>
<polygon fill="midnightblue" stroke="midnightblue" points="387.82,-81.28 378.7,-75.88 382.46,-85.78 387.82,-81.28"/>
</g>
<!-- Node13&#45;&gt;Node9 -->
<g id="edge39" class="edge">
<title>Node13&#45;&gt;Node9</title>
<path fill="none" stroke="midnightblue" d="M723.92,-168.17C726.88,-159.2 731.15,-144.83 732.83,-132 737.45,-96.74 732.53,-81.58 707.83,-56 692.05,-39.66 669.11,-28.42 650.09,-21.27"/>
<polygon fill="midnightblue" stroke="midnightblue" points="651.15,-17.93 640.56,-17.89 648.81,-24.53 651.15,-17.93"/>
</g>
<!-- Node14 -->
<g id="node14" class="node">
<title>Node14</title>
<g id="a_node14"><a xlink:href="Ioss__Field_8h.html" target="_top" xlink:title=" ">
<polygon fill="white" stroke="black" points="452.83,-112.5 452.83,-131.5 522.83,-131.5 522.83,-112.5 452.83,-112.5"/>
<text text-anchor="middle" x="487.83" y="-119.5" font-family="Helvetica,sans-Serif" font-size="10.00">Ioss_Field.h</text>
</a>
</g>
</g>
<!-- Node13&#45;&gt;Node14 -->
<g id="edge21" class="edge">
<title>Node13&#45;&gt;Node14</title>
<path fill="none" stroke="midnightblue" d="M686.45,-169.03C645.73,-159.59 577.78,-143.85 532.88,-133.44"/>
<polygon fill="midnightblue" stroke="midnightblue" points="533.64,-130.03 523.11,-131.18 532.06,-136.85 533.64,-130.03"/>
</g>
<!-- Node15 -->
<g id="node15" class="node">
<title>Node15</title>
<g id="a_node15"><a xlink:href="Ioss__Sort_8h.html" target="_top" xlink:title=" ">
<polygon fill="white" stroke="black" points="656.33,-112.5 656.33,-131.5 723.33,-131.5 723.33,-112.5 656.33,-112.5"/>
<text text-anchor="middle" x="689.83" y="-119.5" font-family="Helvetica,sans-Serif" font-size="10.00">Ioss_Sort.h</text>
</a>
</g>
</g>
<!-- Node13&#45;&gt;Node15 -->
<g id="edge27" class="edge">
<title>Node13&#45;&gt;Node15</title>
<path fill="none" stroke="midnightblue" d="M715.71,-168.08C711.42,-160.61 705.17,-149.72 699.89,-140.52"/>
<polygon fill="midnightblue" stroke="midnightblue" points="702.87,-138.68 694.85,-131.75 696.8,-142.17 702.87,-138.68"/>
</g>
<!-- Node17 -->
<g id="node17" class="node">
<title>Node17</title>
<g id="a_node17"><a xlink:title=" ">
<polygon fill="white" stroke="#bfbfbf" points="923.83,-0.5 923.83,-19.5 981.83,-19.5 981.83,-0.5 923.83,-0.5"/>
<text text-anchor="middle" x="952.83" y="-7.5" font-family="Helvetica,sans-Serif" font-size="10.00">algorithm</text>
</a>
</g>
</g>
<!-- Node13&#45;&gt;Node17 -->
<g id="edge36" class="edge">
<title>Node13&#45;&gt;Node17</title>
<path fill="none" stroke="midnightblue" d="M754.85,-176.16C817.47,-173.83 947.13,-165.03 974.83,-132 999.64,-102.4 978.4,-54.22 963.81,-28.49"/>
<polygon fill="midnightblue" stroke="midnightblue" points="966.77,-26.62 958.65,-19.82 960.75,-30.2 966.77,-26.62"/>
</g>
<!-- Node21 -->
<g id="node21" class="node">
<title>Node21</title>
<g id="a_node21"><a xlink:title=" ">
<polygon fill="white" stroke="#bfbfbf" points="780.33,-112.5 780.33,-131.5 829.33,-131.5 829.33,-112.5 780.33,-112.5"/>
<text text-anchor="middle" x="804.83" y="-119.5" font-family="Helvetica,sans-Serif" font-size="10.00">cassert</text>
</a>
</g>
</g>
<!-- Node13&#45;&gt;Node21 -->
<g id="edge37" class="edge">
<title>Node13&#45;&gt;Node21</title>
<path fill="none" stroke="midnightblue" d="M734.32,-168.32C747.43,-159.9 767.54,-146.97 782.93,-137.07"/>
<polygon fill="midnightblue" stroke="midnightblue" points="784.85,-140.01 791.37,-131.65 781.06,-134.12 784.85,-140.01"/>
</g>
<!-- Node22 -->
<g id="node22" class="node">
<title>Node22</title>
<g id="a_node22"><a xlink:title=" ">
<polygon fill="white" stroke="#bfbfbf" points="1263.83,-0.5 1263.83,-19.5 1307.83,-19.5 1307.83,-0.5 1263.83,-0.5"/>
<text text-anchor="middle" x="1285.83" y="-7.5" font-family="Helvetica,sans-Serif" font-size="10.00">cmath</text>
</a>
</g>
</g>
<!-- Node13&#45;&gt;Node22 -->
<g id="edge38" class="edge">
<title>Node13&#45;&gt;Node22</title>
<path fill="none" stroke="midnightblue" d="M754.9,-175.91C862.32,-172.22 1189.07,-158.87 1227.83,-132 1262.66,-107.85 1277.28,-56.92 1282.82,-29.46"/>
<polygon fill="midnightblue" stroke="midnightblue" points="1286.27,-30.05 1284.62,-19.58 1279.38,-28.79 1286.27,-30.05"/>
</g>
<!-- Node23 -->
<g id="node23" class="node">
<title>Node23</title>
<g id="a_node23"><a xlink:title=" ">
<polygon fill="white" stroke="#bfbfbf" points="847.33,-112.5 847.33,-131.5 892.33,-131.5 892.33,-112.5 847.33,-112.5"/>
<text text-anchor="middle" x="869.83" y="-119.5" font-family="Helvetica,sans-Serif" font-size="10.00">cstdlib</text>
</a>
</g>
</g>
<!-- Node13&#45;&gt;Node23 -->
<g id="edge41" class="edge">
<title>Node13&#45;&gt;Node23</title>
<path fill="none" stroke="midnightblue" d="M744.44,-168.44C769.58,-159.33 809.53,-144.85 837.56,-134.69"/>
<polygon fill="midnightblue" stroke="midnightblue" points="839.1,-137.86 847.3,-131.16 836.71,-131.28 839.1,-137.86"/>
</g>
<!-- Node24 -->
<g id="node24" class="node">
<title>Node24</title>
<g id="a_node24"><a xlink:title=" ">
<polygon fill="white" stroke="#bfbfbf" points="910.33,-112.5 910.33,-131.5 965.33,-131.5 965.33,-112.5 910.33,-112.5"/>
<text text-anchor="middle" x="937.83" y="-119.5" font-family="Helvetica,sans-Serif" font-size="10.00">iostream</text>
</a>
</g>
</g>
<!-- Node13&#45;&gt;Node24 -->
<g id="edge42" class="edge">
<title>Node13&#45;&gt;Node24</title>
<path fill="none" stroke="midnightblue" d="M754.86,-168.55C789.25,-160.01 844.19,-146.36 900.52,-132.32"/>
<polygon fill="midnightblue" stroke="midnightblue" points="901.46,-135.7 910.31,-129.88 899.76,-128.91 901.46,-135.7"/>
</g>
<!-- Node25 -->
<g id="node25" class="node">
<title>Node25</title>
<g id="a_node25"><a xlink:title=" ">
<polygon fill="white" stroke="#bfbfbf" points="1022.33,-56.5 1022.33,-75.5 1081.33,-75.5 1081.33,-56.5 1022.33,-56.5"/>
<text text-anchor="middle" x="1051.83" y="-63.5" font-family="Helvetica,sans-Serif" font-size="10.00">stdexcept</text>
</a>
</g>
</g>
<!-- Node13&#45;&gt;Node25 -->
<g id="edge43" class="edge">
<title>Node13&#45;&gt;Node25</title>
<path fill="none" stroke="midnightblue" d="M754.88,-175.04C821.52,-170.67 966.31,-158.35 1007.83,-132 1025.21,-120.96 1037.41,-100.3 1044.48,-85.23"/>
<polygon fill="midnightblue" stroke="midnightblue" points="1047.77,-86.44 1048.56,-75.87 1041.35,-83.64 1047.77,-86.44"/>
</g>
<!-- Node14&#45;&gt;Node4 -->
<g id="edge24" class="edge">
<title>Node14&#45;&gt;Node4</title>
<path fill="none" stroke="midnightblue" d="M452.55,-114.45C416.66,-107.21 359.8,-94.12 312.83,-76 295.02,-69.13 292.15,-64.01 274.83,-56 247.66,-43.43 215.93,-30.88 193.2,-22.23"/>
<polygon fill="midnightblue" stroke="midnightblue" points="194.33,-18.92 183.74,-18.67 191.86,-25.47 194.33,-18.92"/>
</g>
<!-- Node14&#45;&gt;Node5 -->
<g id="edge25" class="edge">
<title>Node14&#45;&gt;Node5</title>
<path fill="none" stroke="midnightblue" d="M487.83,-112.37C487.83,-94.62 487.83,-53.67 487.83,-29.6"/>
<polygon fill="midnightblue" stroke="midnightblue" points="491.33,-29.59 487.83,-19.59 484.33,-29.59 491.33,-29.59"/>
</g>
<!-- Node14&#45;&gt;Node7 -->
<g id="edge22" class="edge">
<title>Node14&#45;&gt;Node7</title>
<path fill="none" stroke="midnightblue" d="M469.45,-112.44C450.61,-103.68 421.1,-89.94 399.45,-79.86"/>
<polygon fill="midnightblue" stroke="midnightblue" points="400.67,-76.56 390.12,-75.52 397.71,-82.91 400.67,-76.56"/>
</g>
<!-- Node14&#45;&gt;Node9 -->
<g id="edge23" class="edge">
<title>Node14&#45;&gt;Node9</title>
<path fill="none" stroke="midnightblue" d="M497.87,-112.37C519.56,-93.73 570.99,-49.53 598.22,-26.13"/>
<polygon fill="midnightblue" stroke="midnightblue" points="600.53,-28.76 605.83,-19.59 595.97,-23.45 600.53,-28.76"/>
</g>
<!-- Node15&#45;&gt;Node5 -->
<g id="edge35" class="edge">
<title>Node15&#45;&gt;Node5</title>
<path fill="none" stroke="midnightblue" d="M673.98,-112.37C638.95,-93.29 554.71,-47.42 512.63,-24.51"/>
<polygon fill="midnightblue" stroke="midnightblue" points="514.06,-21.3 503.6,-19.59 510.71,-27.45 514.06,-21.3"/>
</g>
<!-- Node15&#45;&gt;Node9 -->
<g id="edge34" class="edge">
<title>Node15&#45;&gt;Node9</title>
<path fill="none" stroke="midnightblue" d="M692.78,-112.32C696.7,-99.17 702,-73.85 691.83,-56 682.77,-40.11 665.66,-29.26 649.97,-22.2"/>
<polygon fill="midnightblue" stroke="midnightblue" points="651.04,-18.86 640.46,-18.29 648.37,-25.33 651.04,-18.86"/>
</g>
<!-- Node16 -->
<g id="node16" class="node">
<title>Node16</title>
<g id="a_node16"><a xlink:href="pdqsort_8h.html" target="_top" xlink:title=" ">
<polygon fill="white" stroke="black" points="819.83,-56.5 819.83,-75.5 877.83,-75.5 877.83,-56.5 819.83,-56.5"/>
<text text-anchor="middle" x="848.83" y="-63.5" font-family="Helvetica,sans-Serif" font-size="10.00">pdqsort.h</text>
</a>
</g>
</g>
<!-- Node15&#45;&gt;Node16 -->
<g id="edge28" class="edge">
<title>Node15&#45;&gt;Node16</title>
<path fill="none" stroke="midnightblue" d="M715.02,-112.44C741.77,-103.36 784.23,-88.94 814.13,-78.78"/>
<polygon fill="midnightblue" stroke="midnightblue" points="815.41,-82.05 823.75,-75.52 813.16,-75.42 815.41,-82.05"/>
</g>
<!-- Node16&#45;&gt;Node9 -->
<g id="edge30" class="edge">
<title>Node16&#45;&gt;Node9</title>
<path fill="none" stroke="midnightblue" d="M819.79,-58.27C776.81,-48.31 696.39,-29.67 650.42,-19.02"/>
<polygon fill="midnightblue" stroke="midnightblue" points="651.14,-15.59 640.61,-16.74 649.56,-22.41 651.14,-15.59"/>
</g>
<!-- Node16&#45;&gt;Node17 -->
<g id="edge29" class="edge">
<title>Node16&#45;&gt;Node17</title>
<path fill="none" stroke="midnightblue" d="M865.54,-56.32C882.14,-47.7 907.83,-34.36 927.05,-24.39"/>
<polygon fill="midnightblue" stroke="midnightblue" points="928.9,-27.37 936.16,-19.65 925.67,-21.16 928.9,-27.37"/>
</g>
<!-- Node18 -->
<g id="node18" class="node">
<title>Node18</title>
<g id="a_node18"><a xlink:title=" ">
<polygon fill="white" stroke="#bfbfbf" points="723.33,-0.5 723.33,-19.5 782.33,-19.5 782.33,-0.5 723.33,-0.5"/>
<text text-anchor="middle" x="752.83" y="-7.5" font-family="Helvetica,sans-Serif" font-size="10.00">functional</text>
</a>
</g>
</g>
<!-- Node16&#45;&gt;Node18 -->
<g id="edge31" class="edge">
<title>Node16&#45;&gt;Node18</title>
<path fill="none" stroke="midnightblue" d="M833.4,-56.32C818.29,-47.82 795.01,-34.73 777.36,-24.8"/>
<polygon fill="midnightblue" stroke="midnightblue" points="778.65,-21.51 768.21,-19.65 775.21,-27.61 778.65,-21.51"/>
</g>
<!-- Node19 -->
<g id="node19" class="node">
<title>Node19</title>
<g id="a_node19"><a xlink:title=" ">
<polygon fill="white" stroke="#bfbfbf" points="857.83,-0.5 857.83,-19.5 905.83,-19.5 905.83,-0.5 857.83,-0.5"/>
<text text-anchor="middle" x="881.83" y="-7.5" font-family="Helvetica,sans-Serif" font-size="10.00">iterator</text>
</a>
</g>
</g>
<!-- Node16&#45;&gt;Node19 -->
<g id="edge32" class="edge">
<title>Node16&#45;&gt;Node19</title>
<path fill="none" stroke="midnightblue" d="M854.28,-56.08C858.84,-48.61 865.5,-37.72 871.12,-28.52"/>
<polygon fill="midnightblue" stroke="midnightblue" points="874.25,-30.11 876.48,-19.75 868.28,-26.46 874.25,-30.11"/>
</g>
<!-- Node16&#45;&gt;Node20 -->
<g id="edge33" class="edge">
<title>Node16&#45;&gt;Node20</title>
<path fill="none" stroke="midnightblue" d="M844.04,-56.08C840.07,-48.69 834.3,-37.95 829.39,-28.81"/>
<polygon fill="midnightblue" stroke="midnightblue" points="832.34,-26.91 824.53,-19.75 826.18,-30.22 832.34,-26.91"/>
</g>
<!-- Node26&#45;&gt;Node27 -->
<g id="edge48" class="edge">
<title>Node26&#45;&gt;Node27</title>
<path fill="none" stroke="midnightblue" d="M1199.45,-168.44C1227.83,-159.32 1272.96,-144.81 1304.58,-134.65"/>
<polygon fill="midnightblue" stroke="midnightblue" points="1305.88,-137.91 1314.33,-131.52 1303.74,-131.24 1305.88,-137.91"/>
</g>
<!-- Node28 -->
<g id="node28" class="node">
<title>Node28</title>
<g id="a_node28"><a xlink:href="format_8h.html" target="_top" xlink:title=" ">
<polygon fill="white" stroke="black" points="1165.33,-112.5 1165.33,-131.5 1218.33,-131.5 1218.33,-112.5 1165.33,-112.5"/>
<text text-anchor="middle" x="1191.83" y="-119.5" font-family="Helvetica,sans-Serif" font-size="10.00">format.h</text>
</a>
</g>
</g>
<!-- Node26&#45;&gt;Node28 -->
<g id="edge49" class="edge">
<title>Node26&#45;&gt;Node28</title>
<path fill="none" stroke="midnightblue" d="M1175.97,-168.08C1178.51,-160.85 1182.18,-150.41 1185.36,-141.4"/>
<polygon fill="midnightblue" stroke="midnightblue" points="1188.73,-142.35 1188.75,-131.75 1182.13,-140.02 1188.73,-142.35"/>
</g>
<!-- Node28&#45;&gt;Node3 -->
<g id="edge51" class="edge">
<title>Node28&#45;&gt;Node3</title>
<path fill="none" stroke="midnightblue" d="M1164.87,-118.97C1102.31,-113.99 942.56,-99.86 810.83,-76 727.91,-60.98 632.18,-34.68 583.27,-20.58"/>
<polygon fill="midnightblue" stroke="midnightblue" points="584.14,-17.18 573.56,-17.76 582.19,-23.91 584.14,-17.18"/>
</g>
<!-- Node28&#45;&gt;Node20 -->
<g id="edge56" class="edge">
<title>Node28&#45;&gt;Node20</title>
<path fill="none" stroke="midnightblue" d="M1179.91,-112.41C1157.5,-96.43 1109.66,-63.08 1090.83,-56 992.03,-18.84 956.91,-42.69 849.32,-19.72"/>
<polygon fill="midnightblue" stroke="midnightblue" points="849.89,-16.27 839.37,-17.51 848.37,-23.1 849.89,-16.27"/>
</g>
<!-- Node28&#45;&gt;Node22 -->
<g id="edge50" class="edge">
<title>Node28&#45;&gt;Node22</title>
<path fill="none" stroke="midnightblue" d="M1199.2,-112.37C1214.85,-94.05 1251.6,-51.05 1271.85,-27.36"/>
<polygon fill="midnightblue" stroke="midnightblue" points="1274.65,-29.47 1278.49,-19.59 1269.33,-24.92 1274.65,-29.47"/>
</g>
<!-- Node28&#45;&gt;Node25 -->
<g id="edge54" class="edge">
<title>Node28&#45;&gt;Node25</title>
<path fill="none" stroke="midnightblue" d="M1169.64,-112.44C1146.4,-103.48 1109.68,-89.31 1083.41,-79.18"/>
<polygon fill="midnightblue" stroke="midnightblue" points="1084.5,-75.85 1073.91,-75.52 1081.98,-82.38 1084.5,-75.85"/>
</g>
<!-- Node29 -->
<g id="node29" class="node">
<title>Node29</title>
<g id="a_node29"><a xlink:title=" ">
<polygon fill="white" stroke="#bfbfbf" points="1142.33,-0.5 1142.33,-19.5 1181.33,-19.5 1181.33,-0.5 1142.33,-0.5"/>
<text text-anchor="middle" x="1161.83" y="-7.5" font-family="Helvetica,sans-Serif" font-size="10.00">limits</text>
</a>
</g>
</g>
<!-- Node28&#45;&gt;Node29 -->
<g id="edge52" class="edge">
<title>Node28&#45;&gt;Node29</title>
<path fill="none" stroke="midnightblue" d="M1193.17,-112.36C1194.82,-99.68 1196.71,-75.44 1190.83,-56 1187.74,-45.79 1181.59,-35.69 1175.74,-27.65"/>
<polygon fill="midnightblue" stroke="midnightblue" points="1178.35,-25.3 1169.45,-19.56 1172.83,-29.6 1178.35,-25.3"/>
</g>
<!-- Node30 -->
<g id="node30" class="node">
<title>Node30</title>
<g id="a_node30"><a xlink:title=" ">
<polygon fill="white" stroke="#bfbfbf" points="1403.33,-56.5 1403.33,-75.5 1456.33,-75.5 1456.33,-56.5 1403.33,-56.5"/>
<text text-anchor="middle" x="1429.83" y="-63.5" font-family="Helvetica,sans-Serif" font-size="10.00">memory</text>
</a>
</g>
</g>
<!-- Node28&#45;&gt;Node30 -->
<g id="edge53" class="edge">
<title>Node28&#45;&gt;Node30</title>
<path fill="none" stroke="midnightblue" d="M1218.49,-115.39C1255.54,-107.52 1324.91,-92.57 1393.06,-76.37"/>
<polygon fill="midnightblue" stroke="midnightblue" points="1394.18,-79.7 1403.1,-73.97 1392.56,-72.89 1394.18,-79.7"/>
</g>
<!-- Node31 -->
<g id="node31" class="node">
<title>Node31</title>
<g id="a_node31"><a xlink:title=" ">
<polygon fill="white" stroke="#bfbfbf" points="1474.33,-56.5 1474.33,-75.5 1549.33,-75.5 1549.33,-56.5 1474.33,-56.5"/>
<text text-anchor="middle" x="1511.83" y="-63.5" font-family="Helvetica,sans-Serif" font-size="10.00">system_error</text>
</a>
</g>
</g>
<!-- Node28&#45;&gt;Node31 -->
<g id="edge55" class="edge">
<title>Node28&#45;&gt;Node31</title>
<path fill="none" stroke="midnightblue" d="M1218.71,-116.86C1266.22,-109.49 1368.36,-93.38 1464.33,-76.23"/>
<polygon fill="midnightblue" stroke="midnightblue" points="1464.97,-79.67 1474.19,-74.46 1463.73,-72.78 1464.97,-79.67"/>
</g>
<!-- Node32 -->
<g id="node32" class="node">
<title>Node32</title>
<g id="a_node32"><a xlink:href="core_8h.html" target="_top" xlink:title=" ">
<polygon fill="white" stroke="black" points="1137.83,-56.5 1137.83,-75.5 1181.83,-75.5 1181.83,-56.5 1137.83,-56.5"/>
<text text-anchor="middle" x="1159.83" y="-63.5" font-family="Helvetica,sans-Serif" font-size="10.00">core.h</text>
</a>
</g>
</g>
<!-- Node28&#45;&gt;Node32 -->
<g id="edge57" class="edge">
<title>Node28&#45;&gt;Node32</title>
<path fill="none" stroke="midnightblue" d="M1181.38,-112.08C1175.5,-104.77 1168.81,-94.18 1164.14,-85.1"/>
<polygon fill="midnightblue" stroke="midnightblue" points="1167.21,-83.4 1159.88,-75.75 1160.84,-86.3 1167.21,-83.4"/>
</g>
<!-- Node36 -->
<g id="node36" class="node">
<title>Node36</title>
<g id="a_node36"><a xlink:href="format-inl_8h.html" target="_top" xlink:title=" ">
<polygon fill="white" stroke="black" points="1318.33,-56.5 1318.33,-75.5 1385.33,-75.5 1385.33,-56.5 1318.33,-56.5"/>
<text text-anchor="middle" x="1351.83" y="-63.5" font-family="Helvetica,sans-Serif" font-size="10.00">format&#45;inl.h</text>
</a>
</g>
</g>
<!-- Node28&#45;&gt;Node36 -->
<g id="edge65" class="edge">
<title>Node28&#45;&gt;Node36</title>
<path fill="none" stroke="midnightblue" d="M1212.09,-112.44C1237.12,-103.32 1279.91,-88.81 1311.64,-78.65"/>
<polygon fill="midnightblue" stroke="midnightblue" points="1313.04,-81.88 1321.51,-75.52 1310.92,-75.21 1313.04,-81.88"/>
</g>
<!-- Node32&#45;&gt;Node4 -->
<g id="edge62" class="edge">
<title>Node32&#45;&gt;Node4</title>
<path fill="none" stroke="midnightblue" d="M1137.82,-61.62C1124.3,-59.67 1106.6,-57.34 1090.83,-56 696.14,-22.42 588.57,-84.86 193.63,-19.64"/>
<polygon fill="midnightblue" stroke="midnightblue" points="194.09,-16.17 183.65,-17.98 192.94,-23.07 194.09,-16.17"/>
</g>
<!-- Node32&#45;&gt;Node19 -->
<g id="edge60" class="edge">
<title>Node32&#45;&gt;Node19</title>
<path fill="none" stroke="midnightblue" d="M1137.8,-59.22C1133.2,-58.09 1128.37,-56.96 1123.83,-56 1034.66,-37.2 1008.56,-40.19 915.72,-20.02"/>
<polygon fill="midnightblue" stroke="midnightblue" points="916.43,-16.59 905.91,-17.85 914.92,-23.43 916.43,-16.59"/>
</g>
<!-- Node32&#45;&gt;Node28 -->
<g id="edge64" class="edge">
<title>Node32&#45;&gt;Node28</title>
<path fill="none" stroke="midnightblue" d="M1170.14,-75.75C1176.07,-83.09 1182.85,-93.82 1187.56,-102.98"/>
<polygon fill="midnightblue" stroke="midnightblue" points="1184.37,-104.44 1191.71,-112.08 1190.74,-101.53 1184.37,-104.44"/>
</g>
<!-- Node32&#45;&gt;Node29 -->
<g id="edge61" class="edge">
<title>Node32&#45;&gt;Node29</title>
<path fill="none" stroke="midnightblue" d="M1160.16,-56.08C1160.42,-49.01 1160.8,-38.86 1161.12,-29.99"/>
<polygon fill="midnightblue" stroke="midnightblue" points="1164.63,-29.87 1161.5,-19.75 1157.64,-29.61 1164.63,-29.87"/>
</g>
<!-- Node33 -->
<g id="node33" class="node">
<title>Node33</title>
<g id="a_node33"><a xlink:title=" ">
<polygon fill="white" stroke="#bfbfbf" points="1000.33,-0.5 1000.33,-19.5 1043.33,-19.5 1043.33,-0.5 1000.33,-0.5"/>
<text text-anchor="middle" x="1021.83" y="-7.5" font-family="Helvetica,sans-Serif" font-size="10.00">cstdio</text>
</a>
</g>
</g>
<!-- Node32&#45;&gt;Node33 -->
<g id="edge58" class="edge">
<title>Node32&#45;&gt;Node33</title>
<path fill="none" stroke="midnightblue" d="M1137.96,-56.44C1115.05,-47.48 1078.85,-33.31 1052.96,-23.18"/>
<polygon fill="midnightblue" stroke="midnightblue" points="1054.18,-19.9 1043.59,-19.52 1051.63,-26.42 1054.18,-19.9"/>
</g>
<!-- Node34 -->
<g id="node34" class="node">
<title>Node34</title>
<g id="a_node34"><a xlink:title=" ">
<polygon fill="white" stroke="#bfbfbf" points="1199.83,-0.5 1199.83,-19.5 1245.83,-19.5 1245.83,-0.5 1199.83,-0.5"/>
<text text-anchor="middle" x="1222.83" y="-7.5" font-family="Helvetica,sans-Serif" font-size="10.00">cstring</text>
</a>
</g>
</g>
<!-- Node32&#45;&gt;Node34 -->
<g id="edge59" class="edge">
<title>Node32&#45;&gt;Node34</title>
<path fill="none" stroke="midnightblue" d="M1169.95,-56.32C1179.35,-48.26 1193.57,-36.08 1204.9,-26.37"/>
<polygon fill="midnightblue" stroke="midnightblue" points="1207.21,-29 1212.52,-19.83 1202.65,-23.68 1207.21,-29"/>
</g>
<!-- Node35 -->
<g id="node35" class="node">
<title>Node35</title>
<g id="a_node35"><a xlink:title=" ">
<polygon fill="white" stroke="#bfbfbf" points="1061.33,-0.5 1061.33,-19.5 1124.33,-19.5 1124.33,-0.5 1061.33,-0.5"/>
<text text-anchor="middle" x="1092.83" y="-7.5" font-family="Helvetica,sans-Serif" font-size="10.00">type_traits</text>
</a>
</g>
</g>
<!-- Node32&#45;&gt;Node35 -->
<g id="edge63" class="edge">
<title>Node32&#45;&gt;Node35</title>
<path fill="none" stroke="midnightblue" d="M1149.06,-56.32C1139.06,-48.26 1123.94,-36.08 1111.9,-26.37"/>
<polygon fill="midnightblue" stroke="midnightblue" points="1113.77,-23.38 1103.79,-19.83 1109.38,-28.83 1113.77,-23.38"/>
</g>
<!-- Node36&#45;&gt;Node17 -->
<g id="edge66" class="edge">
<title>Node36&#45;&gt;Node17</title>
<path fill="none" stroke="midnightblue" d="M1317.9,-61.93C1255.55,-56.03 1118.39,-41.9 992.36,-19.91"/>
<polygon fill="midnightblue" stroke="midnightblue" points="992.61,-16.4 982.15,-18.11 991.39,-23.29 992.61,-16.4"/>
</g>
<!-- Node36&#45;&gt;Node22 -->
<g id="edge70" class="edge">
<title>Node36&#45;&gt;Node22</title>
<path fill="none" stroke="midnightblue" d="M1341.22,-56.32C1331.37,-48.26 1316.48,-36.08 1304.61,-26.37"/>
<polygon fill="midnightblue" stroke="midnightblue" points="1306.58,-23.46 1296.62,-19.83 1302.15,-28.88 1306.58,-23.46"/>
</g>
<!-- Node36&#45;&gt;Node28 -->
<g id="edge76" class="edge">
<title>Node36&#45;&gt;Node28</title>
<path fill="none" stroke="midnightblue" d="M1331.58,-75.55C1305.6,-85.02 1260.47,-100.29 1228.45,-110.49"/>
<polygon fill="midnightblue" stroke="midnightblue" points="1227.04,-107.26 1218.56,-113.6 1229.15,-113.94 1227.04,-107.26"/>
</g>
<!-- Node36&#45;&gt;Node34 -->
<g id="edge72" class="edge">
<title>Node36&#45;&gt;Node34</title>
<path fill="none" stroke="midnightblue" d="M1331.39,-56.44C1310.16,-47.56 1276.73,-33.56 1252.57,-23.45"/>
<polygon fill="midnightblue" stroke="midnightblue" points="1253.75,-20.15 1243.17,-19.52 1251.05,-26.61 1253.75,-20.15"/>
</g>
<!-- Node37 -->
<g id="node37" class="node">
<title>Node37</title>
<g id="a_node37"><a xlink:title=" ">
<polygon fill="white" stroke="#bfbfbf" points="1464.33,-0.5 1464.33,-19.5 1509.33,-19.5 1509.33,-0.5 1464.33,-0.5"/>
<text text-anchor="middle" x="1486.83" y="-7.5" font-family="Helvetica,sans-Serif" font-size="10.00">cctype</text>
</a>
</g>
</g>
<!-- Node36&#45;&gt;Node37 -->
<g id="edge67" class="edge">
<title>Node36&#45;&gt;Node37</title>
<path fill="none" stroke="midnightblue" d="M1373.22,-56.44C1395.54,-47.52 1430.73,-33.44 1456.04,-23.32"/>
<polygon fill="midnightblue" stroke="midnightblue" points="1457.55,-26.48 1465.54,-19.52 1454.95,-19.98 1457.55,-26.48"/>
</g>
<!-- Node38 -->
<g id="node38" class="node">
<title>Node38</title>
<g id="a_node38"><a xlink:title=" ">
<polygon fill="white" stroke="#bfbfbf" points="1527.33,-0.5 1527.33,-19.5 1572.33,-19.5 1572.33,-0.5 1527.33,-0.5"/>
<text text-anchor="middle" x="1549.83" y="-7.5" font-family="Helvetica,sans-Serif" font-size="10.00">cerrno</text>
</a>
</g>
</g>
<!-- Node36&#45;&gt;Node38 -->
<g id="edge68" class="edge">
<title>Node36&#45;&gt;Node38</title>
<path fill="none" stroke="midnightblue" d="M1384.21,-56.47C1415.91,-48.08 1465.84,-34.75 1517.49,-20.34"/>
<polygon fill="midnightblue" stroke="midnightblue" points="1518.47,-23.7 1527.16,-17.64 1516.58,-16.96 1518.47,-23.7"/>
</g>
<!-- Node39 -->
<g id="node39" class="node">
<title>Node39</title>
<g id="a_node39"><a xlink:title=" ">
<polygon fill="white" stroke="#bfbfbf" points="1590.83,-0.5 1590.83,-19.5 1634.83,-19.5 1634.83,-0.5 1590.83,-0.5"/>
<text text-anchor="middle" x="1612.83" y="-7.5" font-family="Helvetica,sans-Serif" font-size="10.00">climits</text>
</a>
</g>
</g>
<!-- Node36&#45;&gt;Node39 -->
<g id="edge69" class="edge">
<title>Node36&#45;&gt;Node39</title>
<path fill="none" stroke="midnightblue" d="M1385.62,-57.87C1388.73,-57.23 1391.84,-56.6 1394.83,-56 1474.73,-39.95 1497.85,-39.81 1580.69,-20.1"/>
<polygon fill="midnightblue" stroke="midnightblue" points="1581.64,-23.48 1590.54,-17.74 1580,-16.67 1581.64,-23.48"/>
</g>
<!-- Node40 -->
<g id="node40" class="node">
<title>Node40</title>
<g id="a_node40"><a xlink:title=" ">
<polygon fill="white" stroke="#bfbfbf" points="1653.33,-0.5 1653.33,-19.5 1702.33,-19.5 1702.33,-0.5 1653.33,-0.5"/>
<text text-anchor="middle" x="1677.83" y="-7.5" font-family="Helvetica,sans-Serif" font-size="10.00">cstdarg</text>
</a>
</g>
</g>
<!-- Node36&#45;&gt;Node40 -->
<g id="edge71" class="edge">
<title>Node36&#45;&gt;Node40</title>
<path fill="none" stroke="midnightblue" d="M1385.59,-57.72C1388.71,-57.12 1391.82,-56.53 1394.83,-56 1501.82,-37.09 1532.54,-42.04 1643.14,-19.92"/>
<polygon fill="midnightblue" stroke="midnightblue" points="1643.92,-23.34 1653.02,-17.92 1642.53,-16.48 1643.92,-23.34"/>
</g>
<!-- Node41 -->
<g id="node41" class="node">
<title>Node41</title>
<g id="a_node41"><a xlink:title=" ">
<polygon fill="white" stroke="#bfbfbf" points="1720.83,-0.5 1720.83,-19.5 1768.83,-19.5 1768.83,-0.5 1720.83,-0.5"/>
<text text-anchor="middle" x="1744.83" y="-7.5" font-family="Helvetica,sans-Serif" font-size="10.00">cwchar</text>
</a>
</g>
</g>
<!-- Node36&#45;&gt;Node41 -->
<g id="edge73" class="edge">
<title>Node36&#45;&gt;Node41</title>
<path fill="none" stroke="midnightblue" d="M1385.57,-57.63C1388.7,-57.04 1391.82,-56.49 1394.83,-56 1531.54,-33.98 1570.75,-46.13 1710.54,-19.97"/>
<polygon fill="midnightblue" stroke="midnightblue" points="1711.61,-23.33 1720.78,-18.02 1710.3,-16.45 1711.61,-23.33"/>
</g>
<!-- Node42 -->
<g id="node42" class="node">
<title>Node42</title>
<g id="a_node42"><a xlink:title=" ">
<polygon fill="white" stroke="#bfbfbf" points="1326.33,-0.5 1326.33,-19.5 1385.33,-19.5 1385.33,-0.5 1326.33,-0.5"/>
<text text-anchor="middle" x="1355.83" y="-7.5" font-family="Helvetica,sans-Serif" font-size="10.00">exception</text>
</a>
</g>
</g>
<!-- Node36&#45;&gt;Node42 -->
<g id="edge74" class="edge">
<title>Node36&#45;&gt;Node42</title>
<path fill="none" stroke="midnightblue" d="M1352.49,-56.08C1353.01,-49.01 1353.76,-38.86 1354.42,-29.99"/>
<polygon fill="midnightblue" stroke="midnightblue" points="1357.93,-29.98 1355.18,-19.75 1350.95,-29.47 1357.93,-29.98"/>
</g>
<!-- Node43 -->
<g id="node43" class="node">
<title>Node43</title>
<g id="a_node43"><a xlink:title=" ">
<polygon fill="white" stroke="#bfbfbf" points="1403.33,-0.5 1403.33,-19.5 1446.33,-19.5 1446.33,-0.5 1403.33,-0.5"/>
<text text-anchor="middle" x="1424.83" y="-7.5" font-family="Helvetica,sans-Serif" font-size="10.00">locale</text>
</a>
</g>
</g>
<!-- Node36&#45;&gt;Node43 -->
<g id="edge75" class="edge">
<title>Node36&#45;&gt;Node43</title>
<path fill="none" stroke="midnightblue" d="M1363.56,-56.32C1374.67,-48.11 1391.57,-35.6 1404.81,-25.81"/>
<polygon fill="midnightblue" stroke="midnightblue" points="1406.93,-28.59 1412.89,-19.83 1402.76,-22.97 1406.93,-28.59"/>
</g>
</g>
</svg>
