<?xml version="1.0" encoding="UTF-8" standalone="no"?>
<!DOCTYPE svg PUBLIC "-//W3C//DTD SVG 1.1//EN"
 "http://www.w3.org/Graphics/SVG/1.1/DTD/svg11.dtd">
<!-- Generated by graphviz version 5.0.1 (20220820.1526)
 -->
<!-- Title: src/Ioss_PropertyManager.C Pages: 1 -->
<!--zoomable 302 -->
<svg id="main" version="1.1" xmlns="http://www.w3.org/2000/svg" xmlns:xlink="http://www.w3.org/1999/xlink" xml:space="preserve" onload="init(evt)">
<style type="text/css"><![CDATA[
.edge:hover path { stroke: red; }
.edge:hover polygon { stroke: red; fill: red; }
]]></style>
<script type="text/javascript"><![CDATA[
var edges = document.getElementsByTagName('g');
if (edges && edges.length) {
  for (var i=0;i<edges.length;i++) {
    if (edges[i].id.substr(0,4)=='edge') {
      edges[i].setAttribute('class','edge');
    }
  }
}
]]></script>
        <defs>
                <circle id="rim" cx="0" cy="0" r="7"/>
                <circle id="rim2" cx="0" cy="0" r="3.5"/>
                <g id="zoomPlus">
                        <use xlink:href="#rim" fill="#404040">
                                <set attributeName="fill" to="#808080" begin="zoomplus.mouseover" end="zoomplus.mouseout"/>
                        </use>
                        <path d="M-4,0h8M0,-4v8" fill="none" stroke="white" stroke-width="1.5" pointer-events="none"/>
                </g>
                <g id="zoomMin">
                        <use xlink:href="#rim" fill="#404040">
                                <set attributeName="fill" to="#808080" begin="zoomminus.mouseover" end="zoomminus.mouseout"/>
                        </use>
                        <path d="M-4,0h8" fill="none" stroke="white" stroke-width="1.5" pointer-events="none"/>
                </g>
                <g id="dirArrow">
                        <path fill="none" stroke="white" stroke-width="1.5" d="M0,-3.0v7 M-2.5,-0.5L0,-3.0L2.5,-0.5"/>
                </g>
               <g id="resetDef">
                       <use xlink:href="#rim2" fill="#404040">
                               <set attributeName="fill" to="#808080" begin="reset.mouseover" end="reset.mouseout"/>
                       </use>
               </g>
        </defs>

<script type="text/javascript">
var viewWidth = 1602;
var viewHeight = 302;
var sectionId = 'dynsection-0';
</script>
<script xlink:href="svgpan.js"/>
<svg id="graph" class="graph">
<g id="viewport">
<title>src/Ioss_PropertyManager.C</title>
<!-- Node1 -->
<g id="node1" class="node">
<title>Node1</title>
<g id="a_node1"><a xlink:title=" ">
<polygon fill="#999999" stroke="#666666" points="985.03,-294 844.03,-294 844.03,-275 985.03,-275 985.03,-294"/>
<text text-anchor="middle" x="914.53" y="-282" font-family="Helvetica,sans-Serif" font-size="10.00">src/Ioss_PropertyManager.C</text>
</a>
</g>
</g>
<!-- Node2 -->
<g id="node2" class="node">
<title>Node2</title>
<g id="a_node2"><a xlink:href="Ioss__Property_8h.html" target="_top" xlink:title=" ">
<polygon fill="white" stroke="#666666" points="106.53,-74 22.53,-74 22.53,-55 106.53,-55 106.53,-74"/>
<text text-anchor="middle" x="64.53" y="-62" font-family="Helvetica,sans-Serif" font-size="10.00">Ioss_Property.h</text>
</a>
</g>
</g>
<!-- Node1&#45;&gt;Node2 -->
<g id="edge1" class="edge">
<title>Node1&#45;&gt;Node2</title>
<path fill="none" stroke="#63b8ff" d="M843.8,-281.52C697.93,-276.98 368.18,-264.21 258.53,-239 194.99,-224.39 174.15,-223.83 122.53,-184 98.39,-165.37 94.82,-156.44 81.53,-129 74.6,-114.7 70.18,-97.17 67.59,-84.16"/>
<polygon fill="#63b8ff" stroke="#63b8ff" points="70.99,-83.3 65.77,-74.08 64.1,-84.54 70.99,-83.3"/>
</g>
<!-- Node4 -->
<g id="node4" class="node">
<title>Node4</title>
<g id="a_node4"><a xlink:title=" ">
<polygon fill="#e0e0e0" stroke="#999999" points="314.03,-19 273.03,-19 273.03,0 314.03,0 314.03,-19"/>
<text text-anchor="middle" x="293.53" y="-7" font-family="Helvetica,sans-Serif" font-size="10.00">string</text>
</a>
</g>
</g>
<!-- Node1&#45;&gt;Node4 -->
<g id="edge64" class="edge">
<title>Node1&#45;&gt;Node4</title>
<path fill="none" stroke="#63b8ff" d="M843.76,-284.02C684.05,-284.41 300.11,-280.83 178.53,-239 137.73,-224.96 129.88,-213.65 98.53,-184 48.65,-136.82 -31.05,-107.22 13.53,-55 45.32,-17.76 196.77,-11.53 262.72,-10.6"/>
<polygon fill="#63b8ff" stroke="#63b8ff" points="262.95,-14.09 272.91,-10.49 262.87,-7.1 262.95,-14.09"/>
</g>
<!-- Node6 -->
<g id="node6" class="node">
<title>Node6</title>
<g id="a_node6"><a xlink:href="Ioss__PropertyManager_8h.html" target="_top" xlink:title=" ">
<polygon fill="white" stroke="#666666" points="246.53,-129 124.53,-129 124.53,-110 246.53,-110 246.53,-129"/>
<text text-anchor="middle" x="185.53" y="-117" font-family="Helvetica,sans-Serif" font-size="10.00">Ioss_PropertyManager.h</text>
</a>
</g>
</g>
<!-- Node1&#45;&gt;Node6 -->
<g id="edge5" class="edge">
<title>Node1&#45;&gt;Node6</title>
<path fill="none" stroke="#63b8ff" d="M843.97,-279.58C663.42,-268.81 195.64,-236.11 150.53,-184 137.88,-169.39 153,-149.45 167.13,-135.85"/>
<polygon fill="#63b8ff" stroke="#63b8ff" points="169.62,-138.31 174.69,-129.01 164.92,-133.12 169.62,-138.31"/>
</g>
<!-- Node9 -->
<g id="node9" class="node">
<title>Node9</title>
<g id="a_node9"><a xlink:title=" ">
<polygon fill="#e0e0e0" stroke="#999999" points="1015.03,-19 966.03,-19 966.03,0 1015.03,0 1015.03,-19"/>
<text text-anchor="middle" x="990.53" y="-7" font-family="Helvetica,sans-Serif" font-size="10.00">cstddef</text>
</a>
</g>
</g>
<!-- Node1&#45;&gt;Node9 -->
<g id="edge60" class="edge">
<title>Node1&#45;&gt;Node9</title>
<path fill="none" stroke="#63b8ff" d="M985.27,-282.89C1123.81,-279.77 1417.53,-262.86 1417.53,-175.5 1417.53,-175.5 1417.53,-175.5 1417.53,-118.5 1417.53,-85.61 1407.17,-72.82 1379.53,-55 1321.32,-17.47 1109.29,-11.49 1025.21,-10.61"/>
<polygon fill="#63b8ff" stroke="#63b8ff" points="1025.18,-7.11 1015.15,-10.53 1025.12,-14.11 1025.18,-7.11"/>
</g>
<!-- Node13 -->
<g id="node13" class="node">
<title>Node13</title>
<g id="a_node13"><a xlink:href="Ioss__Utils_8h.html" target="_top" xlink:title=" ">
<polygon fill="white" stroke="#666666" points="608.03,-239 539.03,-239 539.03,-220 608.03,-220 608.03,-239"/>
<text text-anchor="middle" x="573.53" y="-227" font-family="Helvetica,sans-Serif" font-size="10.00">Ioss_Utils.h</text>
</a>
</g>
</g>
<!-- Node1&#45;&gt;Node13 -->
<g id="edge19" class="edge">
<title>Node1&#45;&gt;Node13</title>
<path fill="none" stroke="#63b8ff" d="M859.74,-274.98C792.69,-264.56 680.42,-247.11 618.29,-237.46"/>
<polygon fill="#63b8ff" stroke="#63b8ff" points="618.82,-234 608.4,-235.92 617.74,-240.91 618.82,-234"/>
</g>
<!-- Node18 -->
<g id="node18" class="node">
<title>Node18</title>
<g id="a_node18"><a xlink:title=" ">
<polygon fill="#e0e0e0" stroke="#999999" points="886.03,-74 851.03,-74 851.03,-55 886.03,-55 886.03,-74"/>
<text text-anchor="middle" x="868.53" y="-62" font-family="Helvetica,sans-Serif" font-size="10.00">map</text>
</a>
</g>
</g>
<!-- Node1&#45;&gt;Node18 -->
<g id="edge62" class="edge">
<title>Node1&#45;&gt;Node18</title>
<path fill="none" stroke="#63b8ff" d="M913.46,-274.82C910.96,-255.15 904.3,-205.74 895.53,-165 889.37,-136.36 880.05,-103.66 874.13,-83.81"/>
<polygon fill="#63b8ff" stroke="#63b8ff" points="877.47,-82.77 871.23,-74.21 870.77,-84.79 877.47,-82.77"/>
</g>
<!-- Node27 -->
<g id="node27" class="node">
<title>Node27</title>
<g id="a_node27"><a xlink:title=" ">
<polygon fill="#e0e0e0" stroke="#999999" points="1351.53,-74 1311.53,-74 1311.53,-55 1351.53,-55 1351.53,-74"/>
<text text-anchor="middle" x="1331.53" y="-62" font-family="Helvetica,sans-Serif" font-size="10.00">utility</text>
</a>
</g>
</g>
<!-- Node1&#45;&gt;Node27 -->
<g id="edge65" class="edge">
<title>Node1&#45;&gt;Node27</title>
<path fill="none" stroke="#63b8ff" d="M958.91,-275C1019.04,-262.09 1128.22,-233.64 1209.53,-184 1255.52,-155.92 1297.94,-107.66 1318.5,-82.26"/>
<polygon fill="#63b8ff" stroke="#63b8ff" points="1321.35,-84.3 1324.84,-74.3 1315.87,-79.94 1321.35,-84.3"/>
</g>
<!-- Node33 -->
<g id="node33" class="node">
<title>Node33</title>
<g id="a_node33"><a xlink:title=" ">
<polygon fill="#e0e0e0" stroke="#999999" points="1523.03,-239 1446.03,-239 1446.03,-220 1523.03,-220 1523.03,-239"/>
<text text-anchor="middle" x="1484.53" y="-227" font-family="Helvetica,sans-Serif" font-size="10.00">fmt/ostream.h</text>
</a>
</g>
</g>
<!-- Node1&#45;&gt;Node33 -->
<g id="edge61" class="edge">
<title>Node1&#45;&gt;Node33</title>
<path fill="none" stroke="#63b8ff" d="M985.36,-279.05C1085.12,-272.41 1272.6,-258.56 1431.53,-239 1432.83,-238.84 1434.15,-238.67 1435.48,-238.5"/>
<polygon fill="#63b8ff" stroke="#63b8ff" points="1436.37,-241.91 1445.79,-237.05 1435.4,-234.97 1436.37,-241.91"/>
</g>
<!-- Node34 -->
<g id="node34" class="node">
<title>Node34</title>
<g id="a_node34"><a xlink:title=" ">
<polygon fill="#e0e0e0" stroke="#999999" points="1593.53,-239 1541.53,-239 1541.53,-220 1593.53,-220 1593.53,-239"/>
<text text-anchor="middle" x="1567.53" y="-227" font-family="Helvetica,sans-Serif" font-size="10.00">ostream</text>
</a>
</g>
</g>
<!-- Node1&#45;&gt;Node34 -->
<g id="edge63" class="edge">
<title>Node1&#45;&gt;Node34</title>
<path fill="none" stroke="#63b8ff" d="M985.4,-282.22C1098.87,-279.33 1328.37,-270.04 1531.3,-238.92"/>
<polygon fill="#63b8ff" stroke="#63b8ff" points="1531.91,-242.37 1541.25,-237.38 1530.83,-235.46 1531.91,-242.37"/>
</g>
<!-- Node3 -->
<g id="node3" class="node">
<title>Node3</title>
<g id="a_node3"><a xlink:title=" ">
<polygon fill="#e0e0e0" stroke="#999999" points="87.53,-19 41.53,-19 41.53,0 87.53,0 87.53,-19"/>
<text text-anchor="middle" x="64.53" y="-7" font-family="Helvetica,sans-Serif" font-size="10.00">cstdint</text>
</a>
</g>
</g>
<!-- Node2&#45;&gt;Node3 -->
<g id="edge2" class="edge">
<title>Node2&#45;&gt;Node3</title>
<path fill="none" stroke="#63b8ff" d="M64.53,-54.75C64.53,-47.8 64.53,-37.85 64.53,-29.13"/>
<polygon fill="#63b8ff" stroke="#63b8ff" points="68.03,-29.09 64.53,-19.09 61.03,-29.09 68.03,-29.09"/>
</g>
<!-- Node2&#45;&gt;Node4 -->
<g id="edge3" class="edge">
<title>Node2&#45;&gt;Node4</title>
<path fill="none" stroke="#63b8ff" d="M101.32,-54.98C146.2,-44.6 221.22,-27.24 263.03,-17.56"/>
<polygon fill="#63b8ff" stroke="#63b8ff" points="263.95,-20.94 272.9,-15.27 262.37,-14.12 263.95,-20.94"/>
</g>
<!-- Node5 -->
<g id="node5" class="node">
<title>Node5</title>
<g id="a_node5"><a xlink:title=" ">
<polygon fill="#e0e0e0" stroke="#999999" points="762.53,-19 718.53,-19 718.53,0 762.53,0 762.53,-19"/>
<text text-anchor="middle" x="740.53" y="-7" font-family="Helvetica,sans-Serif" font-size="10.00">vector</text>
</a>
</g>
</g>
<!-- Node2&#45;&gt;Node5 -->
<g id="edge4" class="edge">
<title>Node2&#45;&gt;Node5</title>
<path fill="none" stroke="#63b8ff" d="M106.79,-56.14C109.74,-55.72 112.68,-55.34 115.53,-55 342.07,-28.22 400.01,-35.56 627.53,-19 654.8,-17.02 685.77,-14.68 708.38,-12.96"/>
<polygon fill="#63b8ff" stroke="#63b8ff" points="708.74,-16.44 718.45,-12.19 708.21,-9.46 708.74,-16.44"/>
</g>
<!-- Node6&#45;&gt;Node2 -->
<g id="edge14" class="edge">
<title>Node6&#45;&gt;Node2</title>
<path fill="none" stroke="#63b8ff" d="M166.09,-109.98C146.54,-101.42 116.15,-88.11 93.71,-78.28"/>
<polygon fill="#63b8ff" stroke="#63b8ff" points="94.89,-74.98 84.33,-74.17 92.08,-81.39 94.89,-74.98"/>
</g>
<!-- Node6&#45;&gt;Node4 -->
<g id="edge16" class="edge">
<title>Node6&#45;&gt;Node4</title>
<path fill="none" stroke="#63b8ff" d="M194.37,-109.66C212.57,-91.46 254.48,-49.55 277.56,-26.47"/>
<polygon fill="#63b8ff" stroke="#63b8ff" points="280.28,-28.7 284.87,-19.16 275.33,-23.75 280.28,-28.7"/>
</g>
<!-- Node6&#45;&gt;Node5 -->
<g id="edge18" class="edge">
<title>Node6&#45;&gt;Node5</title>
<path fill="none" stroke="#63b8ff" d="M210.87,-109.94C251.78,-96.42 335.13,-70.11 407.53,-55 516.65,-32.23 648.42,-18.66 708.22,-13.24"/>
<polygon fill="#63b8ff" stroke="#63b8ff" points="708.87,-16.69 718.53,-12.32 708.25,-9.72 708.87,-16.69"/>
</g>
<!-- Node7 -->
<g id="node7" class="node">
<title>Node7</title>
<g id="a_node7"><a xlink:href="Ioss__CodeTypes_8h.html" target="_top" xlink:title=" ">
<polygon fill="white" stroke="#666666" points="514.53,-74 416.53,-74 416.53,-55 514.53,-55 514.53,-74"/>
<text text-anchor="middle" x="465.53" y="-62" font-family="Helvetica,sans-Serif" font-size="10.00">Ioss_CodeTypes.h</text>
</a>
</g>
</g>
<!-- Node6&#45;&gt;Node7 -->
<g id="edge6" class="edge">
<title>Node6&#45;&gt;Node7</title>
<path fill="none" stroke="#63b8ff" d="M230.52,-109.98C279.46,-100.72 357.73,-85.9 410.35,-75.94"/>
<polygon fill="#63b8ff" stroke="#63b8ff" points="411.02,-79.38 420.19,-74.08 409.71,-72.5 411.02,-79.38"/>
</g>
<!-- Node6&#45;&gt;Node9 -->
<g id="edge15" class="edge">
<title>Node6&#45;&gt;Node9</title>
<path fill="none" stroke="#63b8ff" d="M246.81,-111.91C314.7,-104.27 427.29,-90.58 523.53,-74 563.39,-67.13 572.62,-61.59 612.53,-55 738.15,-34.24 888.82,-19.52 955.66,-13.51"/>
<polygon fill="#63b8ff" stroke="#63b8ff" points="956,-16.99 965.65,-12.62 955.38,-10.02 956,-16.99"/>
</g>
<!-- Node12 -->
<g id="node12" class="node">
<title>Node12</title>
<g id="a_node12"><a xlink:title=" ">
<polygon fill="#e0e0e0" stroke="#999999" points="208.03,-74 125.03,-74 125.03,-55 208.03,-55 208.03,-74"/>
<text text-anchor="middle" x="166.53" y="-62" font-family="Helvetica,sans-Serif" font-size="10.00">unordered_map</text>
</a>
</g>
</g>
<!-- Node6&#45;&gt;Node12 -->
<g id="edge17" class="edge">
<title>Node6&#45;&gt;Node12</title>
<path fill="none" stroke="#63b8ff" d="M182.39,-109.75C179.85,-102.65 176.17,-92.4 173,-83.56"/>
<polygon fill="#63b8ff" stroke="#63b8ff" points="176.28,-82.32 169.61,-74.09 169.69,-84.68 176.28,-82.32"/>
</g>
<!-- Node7&#45;&gt;Node3 -->
<g id="edge9" class="edge">
<title>Node7&#45;&gt;Node3</title>
<path fill="none" stroke="#63b8ff" d="M416.36,-57C333.61,-46.06 168.63,-24.26 97.94,-14.92"/>
<polygon fill="#63b8ff" stroke="#63b8ff" points="98.2,-11.42 87.82,-13.58 97.28,-18.36 98.2,-11.42"/>
</g>
<!-- Node7&#45;&gt;Node4 -->
<g id="edge10" class="edge">
<title>Node7&#45;&gt;Node4</title>
<path fill="none" stroke="#63b8ff" d="M437.9,-54.98C406.71,-45.37 356.12,-29.79 323.86,-19.85"/>
<polygon fill="#63b8ff" stroke="#63b8ff" points="324.67,-16.43 314.08,-16.83 322.61,-23.12 324.67,-16.43"/>
</g>
<!-- Node7&#45;&gt;Node5 -->
<g id="edge11" class="edge">
<title>Node7&#45;&gt;Node5</title>
<path fill="none" stroke="#63b8ff" d="M509.71,-54.98C565.16,-44.3 658.94,-26.22 708.16,-16.74"/>
<polygon fill="#63b8ff" stroke="#63b8ff" points="709.09,-20.12 718.24,-14.8 707.76,-13.25 709.09,-20.12"/>
</g>
<!-- Node8 -->
<g id="node8" class="node">
<title>Node8</title>
<g id="a_node8"><a xlink:title=" ">
<polygon fill="#e0e0e0" stroke="#999999" points="484.53,-19 446.53,-19 446.53,0 484.53,0 484.53,-19"/>
<text text-anchor="middle" x="465.53" y="-7" font-family="Helvetica,sans-Serif" font-size="10.00">array</text>
</a>
</g>
</g>
<!-- Node7&#45;&gt;Node8 -->
<g id="edge7" class="edge">
<title>Node7&#45;&gt;Node8</title>
<path fill="none" stroke="#63b8ff" d="M465.53,-54.75C465.53,-47.8 465.53,-37.85 465.53,-29.13"/>
<polygon fill="#63b8ff" stroke="#63b8ff" points="469.03,-29.09 465.53,-19.09 462.03,-29.09 469.03,-29.09"/>
</g>
<!-- Node7&#45;&gt;Node9 -->
<g id="edge8" class="edge">
<title>Node7&#45;&gt;Node9</title>
<path fill="none" stroke="#63b8ff" d="M514.69,-56.68C519.36,-56.09 524.04,-55.52 528.53,-55 687.93,-36.58 878.89,-19.89 955.86,-13.38"/>
<polygon fill="#63b8ff" stroke="#63b8ff" points="956.28,-16.86 965.95,-12.54 955.7,-9.89 956.28,-16.86"/>
</g>
<!-- Node10 -->
<g id="node10" class="node">
<title>Node10</title>
<g id="a_node10"><a xlink:title=" ">
<polygon fill="#e0e0e0" stroke="#999999" points="618.53,-19 502.53,-19 502.53,0 618.53,0 618.53,-19"/>
<text text-anchor="middle" x="560.53" y="-7" font-family="Helvetica,sans-Serif" font-size="10.00">SEACASIoss_config.h</text>
</a>
</g>
</g>
<!-- Node7&#45;&gt;Node10 -->
<g id="edge12" class="edge">
<title>Node7&#45;&gt;Node10</title>
<path fill="none" stroke="#63b8ff" d="M480.79,-54.98C495.66,-46.69 518.51,-33.94 535.95,-24.22"/>
<polygon fill="#63b8ff" stroke="#63b8ff" points="537.96,-27.1 544.99,-19.17 534.55,-20.99 537.96,-27.1"/>
</g>
<!-- Node11 -->
<g id="node11" class="node">
<title>Node11</title>
<g id="a_node11"><a xlink:title=" ">
<polygon fill="#e0e0e0" stroke="#999999" points="428.03,-19 375.03,-19 375.03,0 428.03,0 428.03,-19"/>
<text text-anchor="middle" x="401.53" y="-7" font-family="Helvetica,sans-Serif" font-size="10.00">complex</text>
</a>
</g>
</g>
<!-- Node7&#45;&gt;Node11 -->
<g id="edge13" class="edge">
<title>Node7&#45;&gt;Node11</title>
<path fill="none" stroke="#63b8ff" d="M455.25,-54.98C445.69,-47.07 431.25,-35.11 419.75,-25.58"/>
<polygon fill="#63b8ff" stroke="#63b8ff" points="421.93,-22.85 412,-19.17 417.47,-28.24 421.93,-22.85"/>
</g>
<!-- Node13&#45;&gt;Node2 -->
<g id="edge40" class="edge">
<title>Node13&#45;&gt;Node2</title>
<path fill="none" stroke="#63b8ff" d="M538.96,-228.42C450.16,-227.68 216.39,-222.05 150.53,-184 110.5,-160.87 83.95,-110.8 71.92,-83.74"/>
<polygon fill="#63b8ff" stroke="#63b8ff" points="75.04,-82.13 67.9,-74.3 68.6,-84.87 75.04,-82.13"/>
</g>
<!-- Node13&#45;&gt;Node3 -->
<g id="edge54" class="edge">
<title>Node13&#45;&gt;Node3</title>
<path fill="none" stroke="#63b8ff" d="M538.75,-220.14C486.49,-207.65 384.56,-183.61 297.53,-165 216.9,-147.75 193.13,-156.88 115.53,-129 67.06,-111.59 39.93,-118.22 13.53,-74 2.63,-55.74 22.14,-37.02 40.09,-24.68"/>
<polygon fill="#63b8ff" stroke="#63b8ff" points="42.13,-27.53 48.64,-19.17 38.33,-21.65 42.13,-27.53"/>
</g>
<!-- Node13&#45;&gt;Node4 -->
<g id="edge58" class="edge">
<title>Node13&#45;&gt;Node4</title>
<path fill="none" stroke="#63b8ff" d="M538.81,-227.12C447.83,-223.14 207.95,-210.25 184.53,-184 150.98,-146.4 217.17,-174 255.53,-129 280.33,-99.91 289,-54.44 291.99,-29.12"/>
<polygon fill="#63b8ff" stroke="#63b8ff" points="295.49,-29.33 293,-19.03 288.52,-28.63 295.49,-29.33"/>
</g>
<!-- Node13&#45;&gt;Node5 -->
<g id="edge59" class="edge">
<title>Node13&#45;&gt;Node5</title>
<path fill="none" stroke="#63b8ff" d="M608.08,-228.72C682.7,-228.44 855.46,-223.44 895.53,-184 936.75,-143.44 947.93,-100.73 912.53,-55 895.57,-33.1 817.75,-20.02 772.81,-14.17"/>
<polygon fill="#63b8ff" stroke="#63b8ff" points="773.04,-10.67 762.69,-12.9 772.17,-17.62 773.04,-10.67"/>
</g>
<!-- Node13&#45;&gt;Node7 -->
<g id="edge20" class="edge">
<title>Node13&#45;&gt;Node7</title>
<path fill="none" stroke="#63b8ff" d="M538.91,-224.41C494.14,-218.32 419.94,-205.25 403.53,-184 377.56,-150.35 420.43,-104.23 446.97,-80.68"/>
<polygon fill="#63b8ff" stroke="#63b8ff" points="449.29,-83.31 454.59,-74.14 444.73,-78 449.29,-83.31"/>
</g>
<!-- Node13&#45;&gt;Node9 -->
<g id="edge53" class="edge">
<title>Node13&#45;&gt;Node9</title>
<path fill="none" stroke="#63b8ff" d="M608.22,-227.97C685.15,-226.17 867.16,-218.31 916.53,-184 968.7,-147.75 984.3,-66.8 988.79,-29.72"/>
<polygon fill="#63b8ff" stroke="#63b8ff" points="992.32,-29.65 989.89,-19.33 985.36,-28.91 992.32,-29.65"/>
</g>
<!-- Node14 -->
<g id="node14" class="node">
<title>Node14</title>
<g id="a_node14"><a xlink:href="Ioss__ElementTopology_8h.html" target="_top" xlink:title=" ">
<polygon fill="white" stroke="#666666" points="886.53,-184 764.53,-184 764.53,-165 886.53,-165 886.53,-184"/>
<text text-anchor="middle" x="825.53" y="-172" font-family="Helvetica,sans-Serif" font-size="10.00">Ioss_ElementTopology.h</text>
</a>
</g>
</g>
<!-- Node13&#45;&gt;Node14 -->
<g id="edge21" class="edge">
<title>Node13&#45;&gt;Node14</title>
<path fill="none" stroke="#63b8ff" d="M608.04,-221.24C651.17,-212.17 725.33,-196.57 774.89,-186.15"/>
<polygon fill="#63b8ff" stroke="#63b8ff" points="775.7,-189.56 784.77,-184.07 774.26,-182.71 775.7,-189.56"/>
</g>
<!-- Node20 -->
<g id="node20" class="node">
<title>Node20</title>
<g id="a_node20"><a xlink:href="Ioss__EntityType_8h.html" target="_top" xlink:title=" ">
<polygon fill="white" stroke="#666666" points="288.03,-184 193.03,-184 193.03,-165 288.03,-165 288.03,-184"/>
<text text-anchor="middle" x="240.53" y="-172" font-family="Helvetica,sans-Serif" font-size="10.00">Ioss_EntityType.h</text>
</a>
</g>
</g>
<!-- Node13&#45;&gt;Node20 -->
<g id="edge34" class="edge">
<title>Node13&#45;&gt;Node20</title>
<path fill="none" stroke="#63b8ff" d="M538.84,-222.98C481.76,-213.89 367.47,-195.7 298.12,-184.67"/>
<polygon fill="#63b8ff" stroke="#63b8ff" points="298.65,-181.21 288.22,-183.09 297.55,-188.12 298.65,-181.21"/>
</g>
<!-- Node21 -->
<g id="node21" class="node">
<title>Node21</title>
<g id="a_node21"><a xlink:href="Ioss__Field_8h.html" target="_top" xlink:title=" ">
<polygon fill="white" stroke="#666666" points="500.53,-129 430.53,-129 430.53,-110 500.53,-110 500.53,-129"/>
<text text-anchor="middle" x="465.53" y="-117" font-family="Helvetica,sans-Serif" font-size="10.00">Ioss_Field.h</text>
</a>
</g>
</g>
<!-- Node13&#45;&gt;Node21 -->
<g id="edge35" class="edge">
<title>Node13&#45;&gt;Node21</title>
<path fill="none" stroke="#63b8ff" d="M538.89,-223.85C496.3,-217.34 427.77,-204.02 412.53,-184 399.18,-166.46 420.89,-147.13 440.42,-134.45"/>
<polygon fill="#63b8ff" stroke="#63b8ff" points="442.41,-137.34 449.11,-129.13 438.75,-131.37 442.41,-137.34"/>
</g>
<!-- Node22 -->
<g id="node22" class="node">
<title>Node22</title>
<g id="a_node22"><a xlink:href="Ioss__Sort_8h.html" target="_top" xlink:title=" ">
<polygon fill="white" stroke="#666666" points="1200.03,-184 1133.03,-184 1133.03,-165 1200.03,-165 1200.03,-184"/>
<text text-anchor="middle" x="1166.53" y="-172" font-family="Helvetica,sans-Serif" font-size="10.00">Ioss_Sort.h</text>
</a>
</g>
</g>
<!-- Node13&#45;&gt;Node22 -->
<g id="edge41" class="edge">
<title>Node13&#45;&gt;Node22</title>
<path fill="none" stroke="#63b8ff" d="M608.41,-225.38C710.73,-216.24 1009.96,-189.49 1122.79,-179.41"/>
<polygon fill="#63b8ff" stroke="#63b8ff" points="1123.15,-182.89 1132.8,-178.51 1122.53,-175.92 1123.15,-182.89"/>
</g>
<!-- Node24 -->
<g id="node24" class="node">
<title>Node24</title>
<g id="a_node24"><a xlink:title=" ">
<polygon fill="#e0e0e0" stroke="#999999" points="1074.53,-74 1018.53,-74 1018.53,-55 1074.53,-55 1074.53,-74"/>
<text text-anchor="middle" x="1046.53" y="-62" font-family="Helvetica,sans-Serif" font-size="10.00">algorithm</text>
</a>
</g>
</g>
<!-- Node13&#45;&gt;Node24 -->
<g id="edge50" class="edge">
<title>Node13&#45;&gt;Node24</title>
<path fill="none" stroke="#63b8ff" d="M608.31,-227.02C705.28,-222.62 973.6,-208.33 1004.53,-184 1035.45,-159.68 1043.65,-110.86 1045.8,-84.1"/>
<polygon fill="#63b8ff" stroke="#63b8ff" points="1049.29,-84.31 1046.39,-74.11 1042.3,-83.89 1049.29,-84.31"/>
</g>
<!-- Node28 -->
<g id="node28" class="node">
<title>Node28</title>
<g id="a_node28"><a xlink:title=" ">
<polygon fill="#e0e0e0" stroke="#999999" points="470.03,-184 421.03,-184 421.03,-165 470.03,-165 470.03,-184"/>
<text text-anchor="middle" x="445.53" y="-172" font-family="Helvetica,sans-Serif" font-size="10.00">cassert</text>
</a>
</g>
</g>
<!-- Node13&#45;&gt;Node28 -->
<g id="edge51" class="edge">
<title>Node13&#45;&gt;Node28</title>
<path fill="none" stroke="#63b8ff" d="M552.97,-219.98C532.1,-211.34 499.56,-197.87 475.76,-188.02"/>
<polygon fill="#63b8ff" stroke="#63b8ff" points="477.05,-184.76 466.47,-184.17 474.37,-191.23 477.05,-184.76"/>
</g>
<!-- Node29 -->
<g id="node29" class="node">
<title>Node29</title>
<g id="a_node29"><a xlink:title=" ">
<polygon fill="#e0e0e0" stroke="#999999" points="532.53,-184 488.53,-184 488.53,-165 532.53,-165 532.53,-184"/>
<text text-anchor="middle" x="510.53" y="-172" font-family="Helvetica,sans-Serif" font-size="10.00">cmath</text>
</a>
</g>
</g>
<!-- Node13&#45;&gt;Node29 -->
<g id="edge52" class="edge">
<title>Node13&#45;&gt;Node29</title>
<path fill="none" stroke="#63b8ff" d="M563.41,-219.98C554.1,-212.15 540.06,-200.34 528.79,-190.86"/>
<polygon fill="#63b8ff" stroke="#63b8ff" points="530.74,-187.93 520.84,-184.17 526.24,-193.29 530.74,-187.93"/>
</g>
<!-- Node30 -->
<g id="node30" class="node">
<title>Node30</title>
<g id="a_node30"><a xlink:title=" ">
<polygon fill="#e0e0e0" stroke="#999999" points="596.03,-184 551.03,-184 551.03,-165 596.03,-165 596.03,-184"/>
<text text-anchor="middle" x="573.53" y="-172" font-family="Helvetica,sans-Serif" font-size="10.00">cstdlib</text>
</a>
</g>
</g>
<!-- Node13&#45;&gt;Node30 -->
<g id="edge55" class="edge">
<title>Node13&#45;&gt;Node30</title>
<path fill="none" stroke="#63b8ff" d="M573.53,-219.75C573.53,-212.8 573.53,-202.85 573.53,-194.13"/>
<polygon fill="#63b8ff" stroke="#63b8ff" points="577.03,-194.09 573.53,-184.09 570.03,-194.09 577.03,-194.09"/>
</g>
<!-- Node31 -->
<g id="node31" class="node">
<title>Node31</title>
<g id="a_node31"><a xlink:title=" ">
<polygon fill="#e0e0e0" stroke="#999999" points="668.53,-184 614.53,-184 614.53,-165 668.53,-165 668.53,-184"/>
<text text-anchor="middle" x="641.53" y="-172" font-family="Helvetica,sans-Serif" font-size="10.00">iostream</text>
</a>
</g>
</g>
<!-- Node13&#45;&gt;Node31 -->
<g id="edge56" class="edge">
<title>Node13&#45;&gt;Node31</title>
<path fill="none" stroke="#63b8ff" d="M584.46,-219.98C594.61,-212.07 609.95,-200.11 622.18,-190.58"/>
<polygon fill="#63b8ff" stroke="#63b8ff" points="624.67,-193.08 630.41,-184.17 620.37,-187.56 624.67,-193.08"/>
</g>
<!-- Node32 -->
<g id="node32" class="node">
<title>Node32</title>
<g id="a_node32"><a xlink:title=" ">
<polygon fill="#e0e0e0" stroke="#999999" points="746.03,-184 687.03,-184 687.03,-165 746.03,-165 746.03,-184"/>
<text text-anchor="middle" x="716.53" y="-172" font-family="Helvetica,sans-Serif" font-size="10.00">stdexcept</text>
</a>
</g>
</g>
<!-- Node13&#45;&gt;Node32 -->
<g id="edge57" class="edge">
<title>Node13&#45;&gt;Node32</title>
<path fill="none" stroke="#63b8ff" d="M596.51,-219.98C620.03,-211.27 656.82,-197.63 683.47,-187.75"/>
<polygon fill="#63b8ff" stroke="#63b8ff" points="684.98,-190.93 693.14,-184.17 682.54,-184.36 684.98,-190.93"/>
</g>
<!-- Node14&#45;&gt;Node4 -->
<g id="edge32" class="edge">
<title>Node14&#45;&gt;Node4</title>
<path fill="none" stroke="#63b8ff" d="M764.45,-166.03C761.44,-165.68 758.45,-165.33 755.53,-165 607.2,-148 557.42,-190.85 421.53,-129 370.49,-105.77 326.32,-54.15 305.78,-27.36"/>
<polygon fill="#63b8ff" stroke="#63b8ff" points="308.33,-24.92 299.53,-19.01 302.72,-29.11 308.33,-24.92"/>
</g>
<!-- Node14&#45;&gt;Node5 -->
<g id="edge33" class="edge">
<title>Node14&#45;&gt;Node5</title>
<path fill="none" stroke="#63b8ff" d="M837.84,-164.75C864.79,-144.54 924.43,-93.36 895.53,-55 880.77,-35.41 813.58,-21.78 772.66,-15.14"/>
<polygon fill="#63b8ff" stroke="#63b8ff" points="773.05,-11.66 762.63,-13.57 771.96,-18.57 773.05,-11.66"/>
</g>
<!-- Node14&#45;&gt;Node7 -->
<g id="edge22" class="edge">
<title>Node14&#45;&gt;Node7</title>
<path fill="none" stroke="#63b8ff" d="M787.17,-165C754.14,-157.19 705.49,-144.49 664.53,-129 646.5,-122.18 643.56,-116.83 625.53,-110 588.8,-96.08 545.84,-84.37 513.69,-76.46"/>
<polygon fill="#63b8ff" stroke="#63b8ff" points="514.2,-72.98 503.65,-74.03 512.55,-79.79 514.2,-72.98"/>
</g>
<!-- Node15 -->
<g id="node15" class="node">
<title>Node15</title>
<g id="a_node15"><a xlink:href="Ioss__ElementPermutation_8h.html" target="_top" xlink:title=" ">
<polygon fill="white" stroke="#666666" points="810.03,-129 673.03,-129 673.03,-110 810.03,-110 810.03,-129"/>
<text text-anchor="middle" x="741.53" y="-117" font-family="Helvetica,sans-Serif" font-size="10.00">Ioss_ElementPermutation.h</text>
</a>
</g>
</g>
<!-- Node14&#45;&gt;Node15 -->
<g id="edge23" class="edge">
<title>Node14&#45;&gt;Node15</title>
<path fill="none" stroke="#63b8ff" d="M812.03,-164.98C799.13,-156.84 779.43,-144.41 764.13,-134.76"/>
<polygon fill="#63b8ff" stroke="#63b8ff" points="765.6,-131.55 755.27,-129.17 761.86,-137.47 765.6,-131.55"/>
</g>
<!-- Node14&#45;&gt;Node18 -->
<g id="edge30" class="edge">
<title>Node14&#45;&gt;Node18</title>
<path fill="none" stroke="#63b8ff" d="M829.05,-164.66C836.08,-147.01 851.97,-107.09 861.31,-83.64"/>
<polygon fill="#63b8ff" stroke="#63b8ff" points="864.64,-84.74 865.08,-74.16 858.13,-82.15 864.64,-84.74"/>
</g>
<!-- Node19 -->
<g id="node19" class="node">
<title>Node19</title>
<g id="a_node19"><a xlink:title=" ">
<polygon fill="#e0e0e0" stroke="#999999" points="616.53,-129 586.53,-129 586.53,-110 616.53,-110 616.53,-129"/>
<text text-anchor="middle" x="601.53" y="-117" font-family="Helvetica,sans-Serif" font-size="10.00">set</text>
</a>
</g>
</g>
<!-- Node14&#45;&gt;Node19 -->
<g id="edge31" class="edge">
<title>Node14&#45;&gt;Node19</title>
<path fill="none" stroke="#63b8ff" d="M784.65,-164.93C745.07,-156.45 683.46,-142.78 630.53,-129 629.1,-128.63 627.64,-128.24 626.16,-127.83"/>
<polygon fill="#63b8ff" stroke="#63b8ff" points="627.11,-124.46 616.53,-125.09 625.19,-131.19 627.11,-124.46"/>
</g>
<!-- Node15&#45;&gt;Node4 -->
<g id="edge28" class="edge">
<title>Node15&#45;&gt;Node4</title>
<path fill="none" stroke="#63b8ff" d="M715.23,-109.98C674.47,-96.98 593.46,-71.91 523.53,-55 452.86,-37.91 368.74,-22.99 324.41,-15.54"/>
<polygon fill="#63b8ff" stroke="#63b8ff" points="324.73,-12.05 314.29,-13.85 323.57,-18.95 324.73,-12.05"/>
</g>
<!-- Node15&#45;&gt;Node5 -->
<g id="edge29" class="edge">
<title>Node15&#45;&gt;Node5</title>
<path fill="none" stroke="#63b8ff" d="M761.5,-109.88C783.91,-98.87 815.65,-78.4 803.53,-55 796.49,-41.41 783.19,-31.09 770.61,-23.82"/>
<polygon fill="#63b8ff" stroke="#63b8ff" points="772.15,-20.68 761.68,-19.07 768.86,-26.86 772.15,-20.68"/>
</g>
<!-- Node15&#45;&gt;Node7 -->
<g id="edge24" class="edge">
<title>Node15&#45;&gt;Node7</title>
<path fill="none" stroke="#63b8ff" d="M697.19,-109.98C649.04,-100.74 572.11,-85.97 520.24,-76.01"/>
<polygon fill="#63b8ff" stroke="#63b8ff" points="520.7,-72.53 510.22,-74.08 519.38,-79.41 520.7,-72.53"/>
</g>
<!-- Node16 -->
<g id="node16" class="node">
<title>Node16</title>
<g id="a_node16"><a xlink:title=" ">
<polygon fill="#e0e0e0" stroke="#999999" points="736.53,-74 684.53,-74 684.53,-55 736.53,-55 736.53,-74"/>
<text text-anchor="middle" x="710.53" y="-62" font-family="Helvetica,sans-Serif" font-size="10.00">assert.h</text>
</a>
</g>
</g>
<!-- Node15&#45;&gt;Node16 -->
<g id="edge25" class="edge">
<title>Node15&#45;&gt;Node16</title>
<path fill="none" stroke="#63b8ff" d="M736.41,-109.75C732.17,-102.49 726,-91.95 720.76,-82.98"/>
<polygon fill="#63b8ff" stroke="#63b8ff" points="723.62,-80.95 715.55,-74.09 717.58,-84.49 723.62,-80.95"/>
</g>
<!-- Node17 -->
<g id="node17" class="node">
<title>Node17</title>
<g id="a_node17"><a xlink:title=" ">
<polygon fill="#e0e0e0" stroke="#999999" points="794.53,-74 754.53,-74 754.53,-55 794.53,-55 794.53,-74"/>
<text text-anchor="middle" x="774.53" y="-62" font-family="Helvetica,sans-Serif" font-size="10.00">limits</text>
</a>
</g>
</g>
<!-- Node15&#45;&gt;Node17 -->
<g id="edge26" class="edge">
<title>Node15&#45;&gt;Node17</title>
<path fill="none" stroke="#63b8ff" d="M746.98,-109.75C751.55,-102.42 758.2,-91.73 763.82,-82.7"/>
<polygon fill="#63b8ff" stroke="#63b8ff" points="766.87,-84.43 769.18,-74.09 760.93,-80.73 766.87,-84.43"/>
</g>
<!-- Node15&#45;&gt;Node18 -->
<g id="edge27" class="edge">
<title>Node15&#45;&gt;Node18</title>
<path fill="none" stroke="#63b8ff" d="M761.94,-109.98C783.41,-101.02 817.33,-86.87 841.13,-76.94"/>
<polygon fill="#63b8ff" stroke="#63b8ff" points="842.76,-80.05 850.64,-72.97 840.06,-73.59 842.76,-80.05"/>
</g>
<!-- Node21&#45;&gt;Node4 -->
<g id="edge38" class="edge">
<title>Node21&#45;&gt;Node4</title>
<path fill="none" stroke="#63b8ff" d="M451.75,-109.84C422.18,-91.28 352.44,-47.49 316.23,-24.75"/>
<polygon fill="#63b8ff" stroke="#63b8ff" points="317.71,-21.55 307.38,-19.2 313.99,-27.48 317.71,-21.55"/>
</g>
<!-- Node21&#45;&gt;Node5 -->
<g id="edge39" class="edge">
<title>Node21&#45;&gt;Node5</title>
<path fill="none" stroke="#63b8ff" d="M487.57,-109.84C536.27,-90.72 653.14,-44.82 709.33,-22.75"/>
<polygon fill="#63b8ff" stroke="#63b8ff" points="710.74,-25.96 718.77,-19.05 708.18,-19.44 710.74,-25.96"/>
</g>
<!-- Node21&#45;&gt;Node7 -->
<g id="edge36" class="edge">
<title>Node21&#45;&gt;Node7</title>
<path fill="none" stroke="#63b8ff" d="M465.53,-109.75C465.53,-102.8 465.53,-92.85 465.53,-84.13"/>
<polygon fill="#63b8ff" stroke="#63b8ff" points="469.03,-84.09 465.53,-74.09 462.03,-84.09 469.03,-84.09"/>
</g>
<!-- Node21&#45;&gt;Node9 -->
<g id="edge37" class="edge">
<title>Node21&#45;&gt;Node9</title>
<path fill="none" stroke="#63b8ff" d="M495.39,-109.94C525.9,-101.13 574.61,-86.92 616.53,-74 642.86,-65.88 648.68,-61.17 675.53,-55 775.86,-31.94 897.09,-18.87 955.59,-13.47"/>
<polygon fill="#63b8ff" stroke="#63b8ff" points="956.12,-16.93 965.76,-12.54 955.49,-9.96 956.12,-16.93"/>
</g>
<!-- Node22&#45;&gt;Node5 -->
<g id="edge49" class="edge">
<title>Node22&#45;&gt;Node5</title>
<path fill="none" stroke="#63b8ff" d="M1163.33,-164.77C1154.56,-142.2 1127.79,-81.8 1083.53,-55 1031.63,-23.58 847.97,-14.04 772.88,-11.41"/>
<polygon fill="#63b8ff" stroke="#63b8ff" points="772.73,-7.9 762.62,-11.07 772.5,-14.9 772.73,-7.9"/>
</g>
<!-- Node22&#45;&gt;Node9 -->
<g id="edge48" class="edge">
<title>Node22&#45;&gt;Node9</title>
<path fill="none" stroke="#63b8ff" d="M1200.14,-166.96C1268.34,-152.28 1412.32,-113.39 1360.53,-55 1338.46,-30.12 1113.1,-16.5 1025.29,-12.1"/>
<polygon fill="#63b8ff" stroke="#63b8ff" points="1025.44,-8.6 1015.29,-11.61 1025.1,-15.59 1025.44,-8.6"/>
</g>
<!-- Node23 -->
<g id="node23" class="node">
<title>Node23</title>
<g id="a_node23"><a xlink:href="pdqsort_8h.html" target="_top" xlink:title=" ">
<polygon fill="white" stroke="#666666" points="1224.03,-129 1167.03,-129 1167.03,-110 1224.03,-110 1224.03,-129"/>
<text text-anchor="middle" x="1195.53" y="-117" font-family="Helvetica,sans-Serif" font-size="10.00">pdqsort.h</text>
</a>
</g>
</g>
<!-- Node22&#45;&gt;Node23 -->
<g id="edge42" class="edge">
<title>Node22&#45;&gt;Node23</title>
<path fill="none" stroke="#63b8ff" d="M1171.32,-164.75C1175.29,-157.49 1181.06,-146.95 1185.97,-137.98"/>
<polygon fill="#63b8ff" stroke="#63b8ff" points="1189.1,-139.54 1190.83,-129.09 1182.96,-136.18 1189.1,-139.54"/>
</g>
<!-- Node23&#45;&gt;Node9 -->
<g id="edge44" class="edge">
<title>Node23&#45;&gt;Node9</title>
<path fill="none" stroke="#63b8ff" d="M1217.43,-109.97C1243.97,-98.41 1282.99,-76.7 1264.53,-55 1234.22,-19.37 1092.34,-12.19 1025.51,-10.8"/>
<polygon fill="#63b8ff" stroke="#63b8ff" points="1025.52,-7.3 1015.46,-10.62 1025.4,-14.3 1025.52,-7.3"/>
</g>
<!-- Node23&#45;&gt;Node24 -->
<g id="edge43" class="edge">
<title>Node23&#45;&gt;Node24</title>
<path fill="none" stroke="#63b8ff" d="M1171.59,-109.98C1146.97,-101.23 1108.41,-87.51 1080.61,-77.62"/>
<polygon fill="#63b8ff" stroke="#63b8ff" points="1081.5,-74.22 1070.91,-74.17 1079.15,-80.82 1081.5,-74.22"/>
</g>
<!-- Node25 -->
<g id="node25" class="node">
<title>Node25</title>
<g id="a_node25"><a xlink:title=" ">
<polygon fill="#e0e0e0" stroke="#999999" points="1190.03,-74 1131.03,-74 1131.03,-55 1190.03,-55 1190.03,-74"/>
<text text-anchor="middle" x="1160.53" y="-62" font-family="Helvetica,sans-Serif" font-size="10.00">functional</text>
</a>
</g>
</g>
<!-- Node23&#45;&gt;Node25 -->
<g id="edge45" class="edge">
<title>Node23&#45;&gt;Node25</title>
<path fill="none" stroke="#63b8ff" d="M1189.75,-109.75C1184.91,-102.42 1177.85,-91.73 1171.89,-82.7"/>
<polygon fill="#63b8ff" stroke="#63b8ff" points="1174.63,-80.5 1166.2,-74.09 1168.79,-84.36 1174.63,-80.5"/>
</g>
<!-- Node26 -->
<g id="node26" class="node">
<title>Node26</title>
<g id="a_node26"><a xlink:title=" ">
<polygon fill="#e0e0e0" stroke="#999999" points="1255.03,-74 1208.03,-74 1208.03,-55 1255.03,-55 1255.03,-74"/>
<text text-anchor="middle" x="1231.53" y="-62" font-family="Helvetica,sans-Serif" font-size="10.00">iterator</text>
</a>
</g>
</g>
<!-- Node23&#45;&gt;Node26 -->
<g id="edge46" class="edge">
<title>Node23&#45;&gt;Node26</title>
<path fill="none" stroke="#63b8ff" d="M1201.48,-109.75C1206.51,-102.34 1213.87,-91.5 1220.04,-82.41"/>
<polygon fill="#63b8ff" stroke="#63b8ff" points="1222.97,-84.33 1225.7,-74.09 1217.18,-80.39 1222.97,-84.33"/>
</g>
<!-- Node23&#45;&gt;Node27 -->
<g id="edge47" class="edge">
<title>Node23&#45;&gt;Node27</title>
<path fill="none" stroke="#63b8ff" d="M1217.38,-109.98C1240.32,-101.05 1276.51,-86.94 1301.99,-77.01"/>
<polygon fill="#63b8ff" stroke="#63b8ff" points="1303.46,-80.2 1311.51,-73.3 1300.92,-73.67 1303.46,-80.2"/>
</g>
</g>
</svg>
        <g id="navigator" transform="translate(0 0)" fill="#404254">
                <rect fill="#f2f5e9" fill-opacity="0.5" stroke="#606060" stroke-width=".5" x="0" y="0" width="60" height="60"/>
                <use id="zoomplus" xlink:href="#zoomPlus" x="17" y="9" onmousedown="handleZoom(evt,'in')"/>
                <use id="zoomminus" xlink:href="#zoomMin" x="42" y="9" onmousedown="handleZoom(evt,'out')"/>
                <use id="reset" xlink:href="#resetDef" x="30" y="36" onmousedown="handleReset()"/>
                <g id="arrowUp" xlink:href="#dirArrow" transform="translate(30 24)" onmousedown="handlePan(0,-1)">
                  <use xlink:href="#rim" fill="#404040">
                        <set attributeName="fill" to="#808080" begin="arrowUp.mouseover" end="arrowUp.mouseout"/>
                  </use>
                  <path fill="none" stroke="white" stroke-width="1.5" d="M0,-3.0v7 M-2.5,-0.5L0,-3.0L2.5,-0.5"/>
                </g>
                <g id="arrowRight" xlink:href="#dirArrow" transform="rotate(90) translate(36 -43)" onmousedown="handlePan(1,0)">
                  <use xlink:href="#rim" fill="#404040">
                        <set attributeName="fill" to="#808080" begin="arrowRight.mouseover" end="arrowRight.mouseout"/>
                  </use>
                  <path fill="none" stroke="white" stroke-width="1.5" d="M0,-3.0v7 M-2.5,-0.5L0,-3.0L2.5,-0.5"/>
                </g>
                <g id="arrowDown" xlink:href="#dirArrow" transform="rotate(180) translate(-30 -48)" onmousedown="handlePan(0,1)">
                  <use xlink:href="#rim" fill="#404040">
                        <set attributeName="fill" to="#808080" begin="arrowDown.mouseover" end="arrowDown.mouseout"/>
                  </use>
                  <path fill="none" stroke="white" stroke-width="1.5" d="M0,-3.0v7 M-2.5,-0.5L0,-3.0L2.5,-0.5"/>
                </g>
                <g id="arrowLeft" xlink:href="#dirArrow" transform="rotate(270) translate(-36 17)" onmousedown="handlePan(-1,0)">
                  <use xlink:href="#rim" fill="#404040">
                        <set attributeName="fill" to="#808080" begin="arrowLeft.mouseover" end="arrowLeft.mouseout"/>
                  </use>
                  <path fill="none" stroke="white" stroke-width="1.5" d="M0,-3.0v7 M-2.5,-0.5L0,-3.0L2.5,-0.5"/>
                </g>
        </g>
        <svg viewBox="0 0 15 15" width="100%" height="30px" preserveAspectRatio="xMaxYMin meet">
         <g id="arrow_out" transform="scale(0.3 0.3)">
          <a xlink:href="Ioss__PropertyManager_8C__incl_org.svg" target="_base">
           <rect id="button" ry="5" rx="5" y="6" x="6" height="38" width="38"
                fill="#f2f5e9" fill-opacity="0.5" stroke="#606060" stroke-width="1.0"/>
           <path id="arrow"
             d="M 11.500037,31.436501 C 11.940474,20.09759 22.043105,11.32322 32.158766,21.979434 L 37.068811,17.246167 C 37.068811,17.246167 37.088388,32 37.088388,32 L 22.160133,31.978069 C 22.160133,31.978069 26.997745,27.140456 26.997745,27.140456 C 18.528582,18.264221 13.291696,25.230495 11.500037,31.436501 z"
             style="fill:#404040;"/>
          </a>
         </g>
        </svg>
</svg>
