<?xml version="1.0" encoding="UTF-8" standalone="no"?>
<!DOCTYPE svg PUBLIC "-//W3C//DTD SVG 1.1//EN"
 "http://www.w3.org/Graphics/SVG/1.1/DTD/svg11.dtd">
<!-- Generated by graphviz version 9.0.0 (20230911.1827)
 -->
<!-- Title: src/text_mesh/Iotm_TextMeshEntityGroup.h Pages: 1 -->
<svg width="429pt" height="371pt"
 viewBox="0.00 0.00 428.88 371.00" xmlns="http://www.w3.org/2000/svg" xmlns:xlink="http://www.w3.org/1999/xlink">
<g id="graph0" class="graph" transform="scale(1 1) rotate(0) translate(4 367)">
<title>src/text_mesh/Iotm_TextMeshEntityGroup.h</title>
<!-- Node1 -->
<g id="Node000001" class="node">
<title>Node1</title>
<g id="a_Node000001"><a xlink:title=" ">
<polygon fill="#999999" stroke="#666666" points="245.38,-363 121.38,-363 121.38,-332.5 245.38,-332.5 245.38,-363"/>
<text text-anchor="start" x="129.38" y="-349.5" font-family="Helvetica,sans-Serif" font-size="10.00">src/text_mesh/Iotm</text>
<text text-anchor="middle" x="183.38" y="-338.25" font-family="Helvetica,sans-Serif" font-size="10.00">_TextMeshEntityGroup.h</text>
</a>
</g>
</g>
<!-- Node2 -->
<g id="Node000002" class="node">
<title>Node2</title>
<g id="a_Node000002"><a xlink:href="Iotm__TextMeshAssembly_8h.html" target="_top" xlink:title=" ">
<polygon fill="white" stroke="#666666" points="151.5,-230 37.25,-230 37.25,-199.5 151.5,-199.5 151.5,-230"/>
<text text-anchor="start" x="45.25" y="-216.5" font-family="Helvetica,sans-Serif" font-size="10.00">src/text_mesh/Iotm</text>
<text text-anchor="middle" x="94.38" y="-205.25" font-family="Helvetica,sans-Serif" font-size="10.00">_TextMeshAssembly.h</text>
</a>
</g>
</g>
<!-- Node1&#45;&gt;Node2 -->
<g id="edge1_Node000001_Node000002" class="edge">
<title>Node1&#45;&gt;Node2</title>
<g id="a_edge1_Node000001_Node000002"><a xlink:title=" ">
<path fill="none" stroke="#63b8ff" d="M110,-341.45C79.64,-335.2 47.19,-322.38 28.38,-296.5 10.91,-272.48 42.91,-246.1 68.16,-230.24"/>
<polygon fill="#63b8ff" stroke="#63b8ff" points="109.11,-344.84 119.57,-343.19 110.36,-337.96 109.11,-344.84"/>
</a>
</g>
</g>
<!-- Node3 -->
<g id="Node000003" class="node">
<title>Node3</title>
<g id="a_Node000003"><a xlink:href="Iotm__TextMeshUtils_8h.html" target="_top" xlink:title=" ">
<polygon fill="white" stroke="#666666" points="228.75,-163.5 128,-163.5 128,-133 228.75,-133 228.75,-163.5"/>
<text text-anchor="start" x="136" y="-150" font-family="Helvetica,sans-Serif" font-size="10.00">src/text_mesh/Iotm</text>
<text text-anchor="middle" x="178.38" y="-138.75" font-family="Helvetica,sans-Serif" font-size="10.00">_TextMeshUtils.h</text>
</a>
</g>
</g>
<!-- Node1&#45;&gt;Node3 -->
<g id="edge18_Node000001_Node000003" class="edge">
<title>Node1&#45;&gt;Node3</title>
<g id="a_edge18_Node000001_Node000003"><a xlink:title=" ">
<path fill="none" stroke="#63b8ff" d="M110.18,-343.15C77.19,-337.42 41.07,-324.54 20.38,-296.5 8.45,-280.34 14.47,-216.57 28.38,-199.5 52.4,-170.01 94.33,-157.72 127.77,-152.65"/>
<polygon fill="#63b8ff" stroke="#63b8ff" points="109.31,-346.56 119.72,-344.6 110.36,-339.64 109.31,-346.56"/>
</a>
</g>
</g>
<!-- Node9 -->
<g id="Node000009" class="node">
<title>Node9</title>
<g id="a_Node000009"><a xlink:href="Iotm__TextMeshNodeset_8h.html" target="_top" xlink:title=" ">
<polygon fill="white" stroke="#666666" points="420.88,-230 311.88,-230 311.88,-199.5 420.88,-199.5 420.88,-230"/>
<text text-anchor="start" x="319.88" y="-216.5" font-family="Helvetica,sans-Serif" font-size="10.00">src/text_mesh/Iotm</text>
<text text-anchor="middle" x="366.38" y="-205.25" font-family="Helvetica,sans-Serif" font-size="10.00">_TextMeshNodeset.h</text>
</a>
</g>
</g>
<!-- Node1&#45;&gt;Node9 -->
<g id="edge8_Node000001_Node000009" class="edge">
<title>Node1&#45;&gt;Node9</title>
<g id="a_edge8_Node000001_Node000009"><a xlink:title=" ">
<path fill="none" stroke="#63b8ff" d="M256.45,-342.62C290.68,-336.81 329.16,-324.02 353.38,-296.5 369.51,-278.16 369.83,-248.01 368.31,-230.2"/>
<polygon fill="#63b8ff" stroke="#63b8ff" points="256.37,-339.09 247,-344.05 257.41,-346.01 256.37,-339.09"/>
</a>
</g>
</g>
<!-- Node10 -->
<g id="Node000010" class="node">
<title>Node10</title>
<g id="a_Node000010"><a xlink:href="Iotm__TextMeshSideset_8h.html" target="_top" xlink:title=" ">
<polygon fill="white" stroke="#666666" points="294,-230 188.75,-230 188.75,-199.5 294,-199.5 294,-230"/>
<text text-anchor="start" x="196.75" y="-216.5" font-family="Helvetica,sans-Serif" font-size="10.00">src/text_mesh/Iotm</text>
<text text-anchor="middle" x="241.38" y="-205.25" font-family="Helvetica,sans-Serif" font-size="10.00">_TextMeshSideset.h</text>
</a>
</g>
</g>
<!-- Node1&#45;&gt;Node10 -->
<g id="edge11_Node000001_Node000010" class="edge">
<title>Node1&#45;&gt;Node10</title>
<g id="a_edge11_Node000001_Node000010"><a xlink:title=" ">
<path fill="none" stroke="#63b8ff" d="M256.65,-341.25C286.71,-334.95 318.77,-322.15 337.38,-296.5 345.34,-285.53 344.39,-277.6 337.38,-266 327.39,-249.5 310.01,-238.16 292.76,-230.49"/>
<polygon fill="#63b8ff" stroke="#63b8ff" points="256.37,-337.74 247.18,-343.01 257.65,-344.62 256.37,-337.74"/>
</a>
</g>
</g>
<!-- Node11 -->
<g id="Node000011" class="node">
<title>Node11</title>
<g id="a_Node000011"><a xlink:href="Iotm__TextMeshSidesetSkinner_8h.html" target="_top" xlink:title=" ">
<polygon fill="white" stroke="#666666" points="175.12,-296.5 37.62,-296.5 37.62,-266 175.12,-266 175.12,-296.5"/>
<text text-anchor="start" x="45.62" y="-283" font-family="Helvetica,sans-Serif" font-size="10.00">src/text_mesh/Iotm</text>
<text text-anchor="middle" x="106.38" y="-271.75" font-family="Helvetica,sans-Serif" font-size="10.00">_TextMeshSidesetSkinner.h</text>
</a>
</g>
</g>
<!-- Node1&#45;&gt;Node11 -->
<g id="edge14_Node000001_Node000011" class="edge">
<title>Node1&#45;&gt;Node11</title>
<g id="a_edge14_Node000001_Node000011"><a xlink:title=" ">
<path fill="none" stroke="#63b8ff" d="M157.1,-324.74C146.1,-315.53 133.61,-305.06 123.78,-296.83"/>
<polygon fill="#63b8ff" stroke="#63b8ff" points="154.83,-327.4 164.74,-331.14 159.32,-322.04 154.83,-327.4"/>
</a>
</g>
</g>
<!-- Node12 -->
<g id="Node000012" class="node">
<title>Node12</title>
<g id="a_Node000012"><a xlink:href="Iotm__TextMeshSidesetSplitter_8h.html" target="_top" xlink:title=" ">
<polygon fill="white" stroke="#666666" points="328,-296.5 192.75,-296.5 192.75,-266 328,-266 328,-296.5"/>
<text text-anchor="start" x="200.75" y="-283" font-family="Helvetica,sans-Serif" font-size="10.00">src/text_mesh/Iotm</text>
<text text-anchor="middle" x="260.38" y="-271.75" font-family="Helvetica,sans-Serif" font-size="10.00">_TextMeshSidesetSplitter.h</text>
</a>
</g>
</g>
<!-- Node1&#45;&gt;Node12 -->
<g id="edge16_Node000001_Node000012" class="edge">
<title>Node1&#45;&gt;Node12</title>
<g id="a_edge16_Node000001_Node000012"><a xlink:title=" ">
<path fill="none" stroke="#63b8ff" d="M209.65,-324.74C220.65,-315.53 233.14,-305.06 242.97,-296.83"/>
<polygon fill="#63b8ff" stroke="#63b8ff" points="207.43,-322.04 202.01,-331.14 211.92,-327.4 207.43,-322.04"/>
</a>
</g>
</g>
<!-- Node2&#45;&gt;Node3 -->
<g id="edge2_Node000002_Node000003" class="edge">
<title>Node2&#45;&gt;Node3</title>
<g id="a_edge2_Node000002_Node000003"><a xlink:title=" ">
<path fill="none" stroke="#63b8ff" d="M122.32,-192.29C134.49,-182.94 148.45,-172.23 159.39,-163.83"/>
<polygon fill="#63b8ff" stroke="#63b8ff" points="120.44,-189.33 114.64,-198.19 124.7,-194.88 120.44,-189.33"/>
</a>
</g>
</g>
<!-- Node4 -->
<g id="Node000004" class="node">
<title>Node4</title>
<g id="a_Node000004"><a xlink:href="Iotm__TextMesh_8h.html" target="_top" xlink:title=" ">
<polygon fill="white" stroke="#666666" points="218.75,-97 118,-97 118,-66.5 218.75,-66.5 218.75,-97"/>
<text text-anchor="start" x="126" y="-83.5" font-family="Helvetica,sans-Serif" font-size="10.00">src/text_mesh/Iotm</text>
<text text-anchor="middle" x="168.38" y="-72.25" font-family="Helvetica,sans-Serif" font-size="10.00">_TextMesh.h</text>
</a>
</g>
</g>
<!-- Node3&#45;&gt;Node4 -->
<g id="edge3_Node000003_Node000004" class="edge">
<title>Node3&#45;&gt;Node4</title>
<g id="a_edge3_Node000003_Node000004"><a xlink:title=" ">
<path fill="none" stroke="#63b8ff" d="M174.35,-121.31C173.09,-113.14 171.73,-104.41 170.64,-97.33"/>
<polygon fill="#63b8ff" stroke="#63b8ff" points="170.88,-121.77 175.87,-131.12 177.8,-120.7 170.88,-121.77"/>
</a>
</g>
</g>
<!-- Node7 -->
<g id="Node000007" class="node">
<title>Node7</title>
<g id="a_Node000007"><a xlink:href="UnitTestIotmTextMeshFixture_8h.html" target="_top" xlink:title=" ">
<polygon fill="white" stroke="#666666" points="371.62,-97 237.12,-97 237.12,-66.5 371.62,-66.5 371.62,-97"/>
<text text-anchor="start" x="245.12" y="-83.5" font-family="Helvetica,sans-Serif" font-size="10.00">src/unit_tests/UnitTestIotm</text>
<text text-anchor="middle" x="304.38" y="-72.25" font-family="Helvetica,sans-Serif" font-size="10.00">TextMeshFixture.h</text>
</a>
</g>
</g>
<!-- Node3&#45;&gt;Node7 -->
<g id="edge6_Node000003_Node000007" class="edge">
<title>Node3&#45;&gt;Node7</title>
<g id="a_edge6_Node000003_Node000007"><a xlink:title=" ">
<path fill="none" stroke="#63b8ff" d="M217.1,-127.43C236.07,-117.71 258.52,-106.22 275.9,-97.33"/>
<polygon fill="#63b8ff" stroke="#63b8ff" points="215.62,-124.25 208.31,-131.92 218.81,-130.48 215.62,-124.25"/>
</a>
</g>
</g>
<!-- Node5 -->
<g id="Node000005" class="node">
<title>Node5</title>
<g id="a_Node000005"><a xlink:href="Iotm__DatabaseIO_8C.html" target="_top" xlink:title=" ">
<polygon fill="white" stroke="#666666" points="219.75,-30.5 119,-30.5 119,0 219.75,0 219.75,-30.5"/>
<text text-anchor="start" x="127" y="-17" font-family="Helvetica,sans-Serif" font-size="10.00">src/text_mesh/Iotm</text>
<text text-anchor="middle" x="169.38" y="-5.75" font-family="Helvetica,sans-Serif" font-size="10.00">_DatabaseIO.C</text>
</a>
</g>
</g>
<!-- Node4&#45;&gt;Node5 -->
<g id="edge4_Node000004_Node000005" class="edge">
<title>Node4&#45;&gt;Node5</title>
<g id="a_edge4_Node000004_Node000005"><a xlink:title=" ">
<path fill="none" stroke="#63b8ff" d="M168.78,-54.81C168.9,-46.64 169.04,-37.91 169.15,-30.83"/>
<polygon fill="#63b8ff" stroke="#63b8ff" points="165.28,-54.55 168.63,-64.6 172.28,-54.66 165.28,-54.55"/>
</a>
</g>
</g>
<!-- Node6 -->
<g id="Node000006" class="node">
<title>Node6</title>
<g id="a_Node000006"><a xlink:href="Iotm__TextMesh_8C.html" target="_top" xlink:title=" ">
<polygon fill="white" stroke="#666666" points="100.75,-30.5 0,-30.5 0,0 100.75,0 100.75,-30.5"/>
<text text-anchor="start" x="8" y="-17" font-family="Helvetica,sans-Serif" font-size="10.00">src/text_mesh/Iotm</text>
<text text-anchor="middle" x="50.38" y="-5.75" font-family="Helvetica,sans-Serif" font-size="10.00">_TextMesh.C</text>
</a>
</g>
</g>
<!-- Node4&#45;&gt;Node6 -->
<g id="edge5_Node000004_Node000006" class="edge">
<title>Node4&#45;&gt;Node6</title>
<g id="a_edge5_Node000004_Node000006"><a xlink:title=" ">
<path fill="none" stroke="#63b8ff" d="M131.62,-60.66C113.95,-51 93.17,-39.64 77.05,-30.83"/>
<polygon fill="#63b8ff" stroke="#63b8ff" points="129.82,-63.66 140.27,-65.39 133.17,-57.52 129.82,-63.66"/>
</a>
</g>
</g>
<!-- Node8 -->
<g id="Node000008" class="node">
<title>Node8</title>
<g id="a_Node000008"><a xlink:href="UnitTestTextMesh_8C.html" target="_top" xlink:title=" ">
<polygon fill="white" stroke="#666666" points="371.25,-30.5 237.5,-30.5 237.5,0 371.25,0 371.25,-30.5"/>
<text text-anchor="start" x="245.5" y="-17" font-family="Helvetica,sans-Serif" font-size="10.00">src/unit_tests/UnitTestText</text>
<text text-anchor="middle" x="304.38" y="-5.75" font-family="Helvetica,sans-Serif" font-size="10.00">Mesh.C</text>
</a>
</g>
</g>
<!-- Node7&#45;&gt;Node8 -->
<g id="edge7_Node000007_Node000008" class="edge">
<title>Node7&#45;&gt;Node8</title>
<g id="a_edge7_Node000007_Node000008"><a xlink:title=" ">
<path fill="none" stroke="#63b8ff" d="M304.38,-54.81C304.38,-46.64 304.38,-37.91 304.38,-30.83"/>
<polygon fill="#63b8ff" stroke="#63b8ff" points="300.88,-54.6 304.38,-64.6 307.88,-54.6 300.88,-54.6"/>
</a>
</g>
</g>
<!-- Node9&#45;&gt;Node3 -->
<g id="edge9_Node000009_Node000003" class="edge">
<title>Node9&#45;&gt;Node3</title>
<g id="a_edge9_Node000009_Node000003"><a xlink:title=" ">
<path fill="none" stroke="#63b8ff" d="M312.92,-195.41C283.86,-185.44 248.41,-173.28 221.19,-163.94"/>
<polygon fill="#63b8ff" stroke="#63b8ff" points="311.69,-198.69 322.28,-198.62 313.96,-192.07 311.69,-198.69"/>
</a>
</g>
</g>
<!-- Node9&#45;&gt;Node7 -->
<g id="edge10_Node000009_Node000007" class="edge">
<title>Node9&#45;&gt;Node7</title>
<g id="a_edge10_Node000009_Node000007"><a xlink:title=" ">
<path fill="none" stroke="#63b8ff" d="M354.67,-189.02C341.87,-161.96 321.77,-119.51 311.28,-97.33"/>
<polygon fill="#63b8ff" stroke="#63b8ff" points="351.41,-190.32 358.86,-197.86 357.74,-187.33 351.41,-190.32"/>
</a>
</g>
</g>
<!-- Node10&#45;&gt;Node3 -->
<g id="edge12_Node000010_Node000003" class="edge">
<title>Node10&#45;&gt;Node3</title>
<g id="a_edge12_Node000010_Node000003"><a xlink:title=" ">
<path fill="none" stroke="#63b8ff" d="M219.07,-190.91C210.27,-181.9 200.42,-171.82 192.61,-163.83"/>
<polygon fill="#63b8ff" stroke="#63b8ff" points="216.53,-193.32 226.02,-198.03 221.54,-188.43 216.53,-193.32"/>
</a>
</g>
</g>
<!-- Node10&#45;&gt;Node7 -->
<g id="edge13_Node000010_Node000007" class="edge">
<title>Node10&#45;&gt;Node7</title>
<g id="a_edge13_Node000010_Node000007"><a xlink:title=" ">
<path fill="none" stroke="#63b8ff" d="M253.27,-189.02C266.28,-161.96 286.7,-119.51 297.36,-97.33"/>
<polygon fill="#63b8ff" stroke="#63b8ff" points="250.19,-187.34 249.01,-197.87 256.5,-190.37 250.19,-187.34"/>
</a>
</g>
</g>
<!-- Node11&#45;&gt;Node10 -->
<g id="edge15_Node000011_Node000010" class="edge">
<title>Node11&#45;&gt;Node10</title>
<g id="a_edge15_Node000011_Node000010"><a xlink:title=" ">
<path fill="none" stroke="#63b8ff" d="M147.3,-260.7C167.75,-250.93 192.07,-239.31 210.86,-230.33"/>
<polygon fill="#63b8ff" stroke="#63b8ff" points="145.89,-257.49 138.37,-264.96 148.91,-263.81 145.89,-257.49"/>
</a>
</g>
</g>
<!-- Node12&#45;&gt;Node10 -->
<g id="edge17_Node000012_Node000010" class="edge">
<title>Node12&#45;&gt;Node10</title>
<g id="a_edge17_Node000012_Node000010"><a xlink:title=" ">
<path fill="none" stroke="#63b8ff" d="M252.82,-254.59C250.39,-246.34 247.78,-237.49 245.67,-230.33"/>
<polygon fill="#63b8ff" stroke="#63b8ff" points="249.45,-255.56 255.64,-264.16 256.17,-253.58 249.45,-255.56"/>
</a>
</g>
</g>
</g>
</svg>
