<?xml version="1.0" encoding="UTF-8" standalone="no"?>
<!DOCTYPE svg PUBLIC "-//W3C//DTD SVG 1.1//EN"
 "http://www.w3.org/Graphics/SVG/1.1/DTD/svg11.dtd">
<!-- Generated by graphviz version 13.1.2 (20250808.2320)
 -->
<!-- Title: src/text_mesh/Iotm_TextMeshEntityGroup.h Pages: 1 -->
<svg width="909pt" height="149pt"
 viewBox="0.00 0.00 909.00 149.00" xmlns="http://www.w3.org/2000/svg" xmlns:xlink="http://www.w3.org/1999/xlink">
<g id="graph0" class="graph" transform="scale(1 1) rotate(0) translate(4 145)">
<title>src/text_mesh/Iotm_TextMeshEntityGroup.h</title>
<!-- Node1 -->
<g id="Node000001" class="node">
<title>Node1</title>
<g id="a_Node000001"><a xlink:title=" ">
<polygon fill="#999999" stroke="#666666" points="485.12,-141 361.12,-141 361.12,-110.5 485.12,-110.5 485.12,-141"/>
<text xml:space="preserve" text-anchor="start" x="369.12" y="-127.5" font-family="Helvetica,sans-Serif" font-size="10.00">src/text_mesh/Iotm</text>
<text xml:space="preserve" text-anchor="middle" x="423.12" y="-116.25" font-family="Helvetica,sans-Serif" font-size="10.00">_TextMeshEntityGroup.h</text>
</a>
</g>
</g>
<!-- Node2 -->
<g id="Node000002" class="node">
<title>Node2</title>
<g id="a_Node000002"><a xlink:title=" ">
<polygon fill="#e0e0e0" stroke="#999999" points="48.25,-74.5 0,-74.5 0,-55.25 48.25,-55.25 48.25,-74.5"/>
<text xml:space="preserve" text-anchor="middle" x="24.12" y="-61" font-family="Helvetica,sans-Serif" font-size="10.00">ctype.h</text>
</a>
</g>
</g>
<!-- Node1&#45;&gt;Node2 -->
<g id="edge1_Node000001_Node000002" class="edge">
<title>Node1&#45;&gt;Node2</title>
<g id="a_edge1_Node000001_Node000002"><a xlink:title=" ">
<path fill="none" stroke="#63b8ff" d="M360.91,-118.49C290.14,-110.87 170.96,-96.49 59.65,-74.8"/>
<polygon fill="#63b8ff" stroke="#63b8ff" points="60.53,-71.41 50.04,-72.9 59.18,-78.27 60.53,-71.41"/>
</a>
</g>
</g>
<!-- Node3 -->
<g id="Node000003" class="node">
<title>Node3</title>
<g id="a_Node000003"><a xlink:title=" ">
<polygon fill="#e0e0e0" stroke="#999999" points="117.75,-74.5 66.5,-74.5 66.5,-55.25 117.75,-55.25 117.75,-74.5"/>
<text xml:space="preserve" text-anchor="middle" x="92.12" y="-61" font-family="Helvetica,sans-Serif" font-size="10.00">stddef.h</text>
</a>
</g>
</g>
<!-- Node1&#45;&gt;Node3 -->
<g id="edge2_Node000001_Node000003" class="edge">
<title>Node1&#45;&gt;Node3</title>
<g id="a_edge2_Node000001_Node000003"><a xlink:title=" ">
<path fill="none" stroke="#63b8ff" d="M360.83,-114.76C301.81,-105.11 210.76,-89.76 132.12,-74.5 131.12,-74.3 130.1,-74.1 129.07,-73.9"/>
<polygon fill="#63b8ff" stroke="#63b8ff" points="129.9,-70.5 119.4,-71.91 128.48,-77.35 129.9,-70.5"/>
</a>
</g>
</g>
<!-- Node4 -->
<g id="Node000004" class="node">
<title>Node4</title>
<g id="a_Node000004"><a xlink:title=" ">
<polygon fill="#e0e0e0" stroke="#999999" points="69,-19.25 13.25,-19.25 13.25,0 69,0 69,-19.25"/>
<text xml:space="preserve" text-anchor="middle" x="41.12" y="-5.75" font-family="Helvetica,sans-Serif" font-size="10.00">algorithm</text>
</a>
</g>
</g>
<!-- Node1&#45;&gt;Node4 -->
<g id="edge3_Node000001_Node000004" class="edge">
<title>Node1&#45;&gt;Node4</title>
<g id="a_edge3_Node000001_Node000004"><a xlink:title=" ">
<path fill="none" stroke="#63b8ff" d="M360.7,-113.95C314.67,-105.26 250.81,-91.68 196.12,-74.5 151.12,-60.36 100.96,-38.52 70.22,-24.4"/>
<polygon fill="#63b8ff" stroke="#63b8ff" points="71.74,-21.24 61.2,-20.21 68.79,-27.59 71.74,-21.24"/>
</a>
</g>
</g>
<!-- Node5 -->
<g id="Node000005" class="node">
<title>Node5</title>
<g id="a_Node000005"><a xlink:title=" ">
<polygon fill="#e0e0e0" stroke="#999999" points="133.12,-19.25 87.12,-19.25 87.12,0 133.12,0 133.12,-19.25"/>
<text xml:space="preserve" text-anchor="middle" x="110.12" y="-5.75" font-family="Helvetica,sans-Serif" font-size="10.00">iterator</text>
</a>
</g>
</g>
<!-- Node1&#45;&gt;Node5 -->
<g id="edge4_Node000001_Node000005" class="edge">
<title>Node1&#45;&gt;Node5</title>
<g id="a_edge4_Node000001_Node000005"><a xlink:title=" ">
<path fill="none" stroke="#63b8ff" d="M362.13,-110.05C327.64,-101.09 283.97,-88.65 246.12,-74.5 207.26,-59.96 164.18,-38.83 137.13,-24.91"/>
<polygon fill="#63b8ff" stroke="#63b8ff" points="138.75,-21.8 128.26,-20.3 135.52,-28.02 138.75,-21.8"/>
</a>
</g>
</g>
<!-- Node6 -->
<g id="Node000006" class="node">
<title>Node6</title>
<g id="a_Node000006"><a xlink:title=" ">
<polygon fill="#e0e0e0" stroke="#999999" points="724.5,-74.5 689.75,-74.5 689.75,-55.25 724.5,-55.25 724.5,-74.5"/>
<text xml:space="preserve" text-anchor="middle" x="707.12" y="-61" font-family="Helvetica,sans-Serif" font-size="10.00">map</text>
</a>
</g>
</g>
<!-- Node1&#45;&gt;Node6 -->
<g id="edge5_Node000001_Node000006" class="edge">
<title>Node1&#45;&gt;Node6</title>
<g id="a_edge5_Node000001_Node000006"><a xlink:title=" ">
<path fill="none" stroke="#63b8ff" d="M485.53,-113.71C536.91,-104.29 611.54,-89.88 676.12,-74.5 676.94,-74.31 677.77,-74.11 678.6,-73.9"/>
<polygon fill="#63b8ff" stroke="#63b8ff" points="679.24,-77.35 688.02,-71.42 677.45,-70.58 679.24,-77.35"/>
</a>
</g>
</g>
<!-- Node7 -->
<g id="Node000007" class="node">
<title>Node7</title>
<g id="a_Node000007"><a xlink:title=" ">
<polygon fill="#e0e0e0" stroke="#999999" points="180.88,-19.25 151.38,-19.25 151.38,0 180.88,0 180.88,-19.25"/>
<text xml:space="preserve" text-anchor="middle" x="166.12" y="-5.75" font-family="Helvetica,sans-Serif" font-size="10.00">set</text>
</a>
</g>
</g>
<!-- Node1&#45;&gt;Node7 -->
<g id="edge6_Node000001_Node000007" class="edge">
<title>Node1&#45;&gt;Node7</title>
<g id="a_edge6_Node000001_Node000007"><a xlink:title=" ">
<path fill="none" stroke="#63b8ff" d="M379.4,-110.05C352.7,-100.68 318.05,-87.84 288.12,-74.5 253.7,-59.15 215.4,-38.48 191.06,-24.86"/>
<polygon fill="#63b8ff" stroke="#63b8ff" points="192.97,-21.93 182.54,-20.07 189.54,-28.03 192.97,-21.93"/>
</a>
</g>
</g>
<!-- Node8 -->
<g id="Node000008" class="node">
<title>Node8</title>
<g id="a_Node000008"><a xlink:title=" ">
<polygon fill="#e0e0e0" stroke="#999999" points="249.75,-19.25 198.5,-19.25 198.5,0 249.75,0 249.75,-19.25"/>
<text xml:space="preserve" text-anchor="middle" x="224.12" y="-5.75" font-family="Helvetica,sans-Serif" font-size="10.00">sstream</text>
</a>
</g>
</g>
<!-- Node1&#45;&gt;Node8 -->
<g id="edge7_Node000001_Node000008" class="edge">
<title>Node1&#45;&gt;Node8</title>
<g id="a_edge7_Node000001_Node000008"><a xlink:title=" ">
<path fill="none" stroke="#63b8ff" d="M391.24,-110.05C371.11,-100.49 344.73,-87.43 322.12,-74.5 295.25,-59.13 265.64,-39.42 246.07,-25.98"/>
<polygon fill="#63b8ff" stroke="#63b8ff" points="248.29,-23.26 238.07,-20.45 244.3,-29.01 248.29,-23.26"/>
</a>
</g>
</g>
<!-- Node9 -->
<g id="Node000009" class="node">
<title>Node9</title>
<g id="a_Node000009"><a xlink:title=" ">
<polygon fill="#e0e0e0" stroke="#999999" points="308.12,-19.25 268.12,-19.25 268.12,0 308.12,0 308.12,-19.25"/>
<text xml:space="preserve" text-anchor="middle" x="288.12" y="-5.75" font-family="Helvetica,sans-Serif" font-size="10.00">string</text>
</a>
</g>
</g>
<!-- Node1&#45;&gt;Node9 -->
<g id="edge8_Node000001_Node000009" class="edge">
<title>Node1&#45;&gt;Node9</title>
<g id="a_edge8_Node000001_Node000009"><a xlink:title=" ">
<path fill="none" stroke="#63b8ff" d="M396.21,-110.21C380.29,-101 360.17,-88.25 344.12,-74.5 327.91,-60.6 312.12,-41.98 301.46,-28.43"/>
<polygon fill="#63b8ff" stroke="#63b8ff" points="304.46,-26.6 295.59,-20.8 298.91,-30.86 304.46,-26.6"/>
</a>
</g>
</g>
<!-- Node10 -->
<g id="Node000010" class="node">
<title>Node10</title>
<g id="a_Node000010"><a xlink:title=" ">
<polygon fill="#e0e0e0" stroke="#999999" points="365.75,-19.25 326.5,-19.25 326.5,0 365.75,0 365.75,-19.25"/>
<text xml:space="preserve" text-anchor="middle" x="346.12" y="-5.75" font-family="Helvetica,sans-Serif" font-size="10.00">utility</text>
</a>
</g>
</g>
<!-- Node1&#45;&gt;Node10 -->
<g id="edge9_Node000001_Node000010" class="edge">
<title>Node1&#45;&gt;Node10</title>
<g id="a_edge9_Node000001_Node000010"><a xlink:title=" ">
<path fill="none" stroke="#63b8ff" d="M393.57,-110.09C379.64,-101.62 364.14,-89.63 355.12,-74.5 347.31,-61.38 345.27,-44.1 345.06,-30.83"/>
<polygon fill="#63b8ff" stroke="#63b8ff" points="348.56,-31.18 345.27,-21.11 341.56,-31.03 348.56,-31.18"/>
</a>
</g>
</g>
<!-- Node11 -->
<g id="Node000011" class="node">
<title>Node11</title>
<g id="a_Node000011"><a xlink:title=" ">
<polygon fill="#e0e0e0" stroke="#999999" points="556.62,-19.25 513.62,-19.25 513.62,0 556.62,0 556.62,-19.25"/>
<text xml:space="preserve" text-anchor="middle" x="535.12" y="-5.75" font-family="Helvetica,sans-Serif" font-size="10.00">vector</text>
</a>
</g>
</g>
<!-- Node1&#45;&gt;Node11 -->
<g id="edge10_Node000001_Node000011" class="edge">
<title>Node1&#45;&gt;Node11</title>
<g id="a_edge10_Node000001_Node000011"><a xlink:title=" ">
<path fill="none" stroke="#63b8ff" d="M446.69,-110.18C460.53,-100.96 477.86,-88.22 491.12,-74.5 504.42,-60.75 516.51,-42.6 524.63,-29.16"/>
<polygon fill="#63b8ff" stroke="#63b8ff" points="527.45,-31.27 529.48,-20.87 521.41,-27.73 527.45,-31.27"/>
</a>
</g>
</g>
<!-- Node12 -->
<g id="Node000012" class="node">
<title>Node12</title>
<g id="a_Node000012"><a xlink:title=" ">
<polygon fill="#e0e0e0" stroke="#999999" points="825.5,-74.5 742.75,-74.5 742.75,-55.25 825.5,-55.25 825.5,-74.5"/>
<text xml:space="preserve" text-anchor="middle" x="784.12" y="-61" font-family="Helvetica,sans-Serif" font-size="10.00">unordered_map</text>
</a>
</g>
</g>
<!-- Node1&#45;&gt;Node12 -->
<g id="edge11_Node000001_Node000012" class="edge">
<title>Node1&#45;&gt;Node12</title>
<g id="a_edge11_Node000001_Node000012"><a xlink:title=" ">
<path fill="none" stroke="#63b8ff" d="M485.49,-114.77C545.66,-105.11 639.63,-89.95 731.23,-74.81"/>
<polygon fill="#63b8ff" stroke="#63b8ff" points="731.59,-78.29 740.89,-73.21 730.45,-71.39 731.59,-78.29"/>
</a>
</g>
</g>
<!-- Node13 -->
<g id="Node000013" class="node">
<title>Node13</title>
<g id="a_Node000013"><a xlink:title=" ">
<polygon fill="#e0e0e0" stroke="#999999" points="627.88,-19.25 574.38,-19.25 574.38,0 627.88,0 627.88,-19.25"/>
<text xml:space="preserve" text-anchor="middle" x="601.12" y="-5.75" font-family="Helvetica,sans-Serif" font-size="10.00">iostream</text>
</a>
</g>
</g>
<!-- Node1&#45;&gt;Node13 -->
<g id="edge12_Node000001_Node000013" class="edge">
<title>Node1&#45;&gt;Node13</title>
<g id="a_edge12_Node000001_Node000013"><a xlink:title=" ">
<path fill="none" stroke="#63b8ff" d="M451.2,-110.19C469.21,-100.57 492.92,-87.41 513.12,-74.5 537.15,-59.15 563.46,-39.68 580.99,-26.29"/>
<polygon fill="#63b8ff" stroke="#63b8ff" points="582.77,-29.34 588.56,-20.47 578.5,-23.79 582.77,-29.34"/>
</a>
</g>
</g>
<!-- Node14 -->
<g id="Node000014" class="node">
<title>Node14</title>
<g id="a_Node000014"><a xlink:title=" ">
<polygon fill="#e0e0e0" stroke="#999999" points="901.12,-74.5 843.12,-74.5 843.12,-55.25 901.12,-55.25 901.12,-74.5"/>
<text xml:space="preserve" text-anchor="middle" x="872.12" y="-61" font-family="Helvetica,sans-Serif" font-size="10.00">functional</text>
</a>
</g>
</g>
<!-- Node1&#45;&gt;Node14 -->
<g id="edge13_Node000001_Node000014" class="edge">
<title>Node1&#45;&gt;Node14</title>
<g id="a_edge13_Node000001_Node000014"><a xlink:title=" ">
<path fill="none" stroke="#63b8ff" d="M485.38,-119.12C563.86,-111.59 703.09,-96.77 831.52,-74.8"/>
<polygon fill="#63b8ff" stroke="#63b8ff" points="831.98,-78.27 841.23,-73.12 830.78,-71.37 831.98,-78.27"/>
</a>
</g>
</g>
<!-- Node15 -->
<g id="Node000015" class="node">
<title>Node15</title>
<g id="a_Node000015"><a xlink:title=" ">
<polygon fill="#e0e0e0" stroke="#999999" points="704.5,-19.25 645.75,-19.25 645.75,0 704.5,0 704.5,-19.25"/>
<text xml:space="preserve" text-anchor="middle" x="675.12" y="-5.75" font-family="Helvetica,sans-Serif" font-size="10.00">stdexcept</text>
</a>
</g>
</g>
<!-- Node1&#45;&gt;Node15 -->
<g id="edge14_Node000001_Node000015" class="edge">
<title>Node1&#45;&gt;Node15</title>
<g id="a_edge14_Node000001_Node000015"><a xlink:title=" ">
<path fill="none" stroke="#63b8ff" d="M458.66,-110.08C482.18,-100.26 513.62,-86.9 541.12,-74.5 577.88,-57.92 619.75,-37.75 646.77,-24.57"/>
<polygon fill="#63b8ff" stroke="#63b8ff" points="648.23,-27.75 655.67,-20.21 645.15,-21.46 648.23,-27.75"/>
</a>
</g>
</g>
<!-- Node16 -->
<g id="Node000016" class="node">
<title>Node16</title>
<g id="a_Node000016"><a xlink:title=" ">
<polygon fill="#e0e0e0" stroke="#999999" points="773.38,-19.25 722.88,-19.25 722.88,0 773.38,0 773.38,-19.25"/>
<text xml:space="preserve" text-anchor="middle" x="748.12" y="-5.75" font-family="Helvetica,sans-Serif" font-size="10.00">numeric</text>
</a>
</g>
</g>
<!-- Node1&#45;&gt;Node16 -->
<g id="edge15_Node000001_Node000016" class="edge">
<title>Node1&#45;&gt;Node16</title>
<g id="a_edge15_Node000001_Node000016"><a xlink:title=" ">
<path fill="none" stroke="#63b8ff" d="M468.82,-110.1C499.08,-100.28 539.58,-86.93 575.12,-74.5 623.53,-57.57 679.08,-36.82 713.89,-23.66"/>
<polygon fill="#63b8ff" stroke="#63b8ff" points="714.91,-27.02 723.02,-20.2 712.43,-20.47 714.91,-27.02"/>
</a>
</g>
</g>
<!-- Node17 -->
<g id="Node000017" class="node">
<title>Node17</title>
<g id="a_Node000017"><a xlink:title=" ">
<polygon fill="#e0e0e0" stroke="#999999" points="844.88,-19.25 791.38,-19.25 791.38,0 844.88,0 844.88,-19.25"/>
<text xml:space="preserve" text-anchor="middle" x="818.12" y="-5.75" font-family="Helvetica,sans-Serif" font-size="10.00">strings.h</text>
</a>
</g>
</g>
<!-- Node1&#45;&gt;Node17 -->
<g id="edge16_Node000001_Node000017" class="edge">
<title>Node1&#45;&gt;Node17</title>
<g id="a_edge16_Node000001_Node000017"><a xlink:title=" ">
<path fill="none" stroke="#63b8ff" d="M482.15,-110.1C520.23,-100.45 570.76,-87.28 615.12,-74.5 673.05,-57.82 739.6,-36.45 780.25,-23.15"/>
<polygon fill="#63b8ff" stroke="#63b8ff" points="781.15,-26.54 789.56,-20.1 778.97,-19.89 781.15,-26.54"/>
</a>
</g>
</g>
<!-- Node18 -->
<g id="Node000018" class="node">
<title>Node18</title>
<g id="a_Node000018"><a xlink:href="Iotm__TextMeshFuncs_8h.html" target="_top" xlink:title=" ">
<polygon fill="white" stroke="#666666" points="482.5,-74.5 363.75,-74.5 363.75,-55.25 482.5,-55.25 482.5,-74.5"/>
<text xml:space="preserve" text-anchor="middle" x="423.12" y="-61" font-family="Helvetica,sans-Serif" font-size="10.00">Iotm_TextMeshFuncs.h</text>
</a>
</g>
</g>
<!-- Node1&#45;&gt;Node18 -->
<g id="edge17_Node000001_Node000018" class="edge">
<title>Node1&#45;&gt;Node18</title>
<g id="a_edge17_Node000001_Node000018"><a xlink:title=" ">
<path fill="none" stroke="#63b8ff" d="M423.12,-110.2C423.12,-102.96 423.12,-94.09 423.12,-86.19"/>
<polygon fill="#63b8ff" stroke="#63b8ff" points="426.63,-86.46 423.13,-76.46 419.63,-86.46 426.63,-86.46"/>
</a>
</g>
</g>
<!-- Node18&#45;&gt;Node4 -->
<g id="edge20_Node000018_Node000004" class="edge">
<title>Node18&#45;&gt;Node4</title>
<g id="a_edge20_Node000018_Node000004"><a xlink:title=" ">
<path fill="none" stroke="#63b8ff" d="M363.32,-57.98C296.66,-51 185.45,-38.14 80.47,-19.51"/>
<polygon fill="#63b8ff" stroke="#63b8ff" points="81.3,-16.1 70.84,-17.78 80.06,-22.99 81.3,-16.1"/>
</a>
</g>
</g>
<!-- Node18&#45;&gt;Node5 -->
<g id="edge21_Node000018_Node000005" class="edge">
<title>Node18&#45;&gt;Node5</title>
<g id="a_edge21_Node000018_Node000005"><a xlink:title=" ">
<path fill="none" stroke="#63b8ff" d="M363.31,-56.24C308.64,-48.85 225.38,-36.54 144.37,-19.54"/>
<polygon fill="#63b8ff" stroke="#63b8ff" points="145.46,-16.2 134.95,-17.54 144.01,-23.04 145.46,-16.2"/>
</a>
</g>
</g>
<!-- Node18&#45;&gt;Node7 -->
<g id="edge22_Node000018_Node000007" class="edge">
<title>Node18&#45;&gt;Node7</title>
<g id="a_edge22_Node000018_Node000007"><a xlink:title=" ">
<path fill="none" stroke="#63b8ff" d="M363.33,-55.35C318.27,-48.28 254.86,-36.95 192,-19.71"/>
<polygon fill="#63b8ff" stroke="#63b8ff" points="193.13,-16.39 182.55,-17.07 191.24,-23.13 193.13,-16.39"/>
</a>
</g>
</g>
<!-- Node18&#45;&gt;Node8 -->
<g id="edge26_Node000018_Node000008" class="edge">
<title>Node18&#45;&gt;Node8</title>
<g id="a_edge26_Node000018_Node000008"><a xlink:title=" ">
<path fill="none" stroke="#63b8ff" d="M389.37,-54.84C353.69,-45.3 297.61,-30.29 260.85,-20.45"/>
<polygon fill="#63b8ff" stroke="#63b8ff" points="262.13,-17.17 251.57,-17.97 260.32,-23.93 262.13,-17.17"/>
</a>
</g>
</g>
<!-- Node18&#45;&gt;Node9 -->
<g id="edge23_Node000018_Node000009" class="edge">
<title>Node18&#45;&gt;Node9</title>
<g id="a_edge23_Node000018_Node000009"><a xlink:title=" ">
<path fill="none" stroke="#63b8ff" d="M400.22,-54.84C377.91,-46.04 343.84,-32.6 319.11,-22.85"/>
<polygon fill="#63b8ff" stroke="#63b8ff" points="320.48,-19.62 309.89,-19.21 317.91,-26.14 320.48,-19.62"/>
</a>
</g>
</g>
<!-- Node18&#45;&gt;Node10 -->
<g id="edge24_Node000018_Node000010" class="edge">
<title>Node18&#45;&gt;Node10</title>
<g id="a_edge24_Node000018_Node000010"><a xlink:title=" ">
<path fill="none" stroke="#63b8ff" d="M410.06,-54.84C398.67,-46.96 381.9,-35.36 368.39,-26.02"/>
<polygon fill="#63b8ff" stroke="#63b8ff" points="370.71,-23.37 360.5,-20.56 366.73,-29.13 370.71,-23.37"/>
</a>
</g>
</g>
<!-- Node18&#45;&gt;Node11 -->
<g id="edge25_Node000018_Node000011" class="edge">
<title>Node18&#45;&gt;Node11</title>
<g id="a_edge25_Node000018_Node000011"><a xlink:title=" ">
<path fill="none" stroke="#63b8ff" d="M442.12,-54.84C459.58,-46.54 485.72,-34.11 505.85,-24.54"/>
<polygon fill="#63b8ff" stroke="#63b8ff" points="507.14,-27.81 514.67,-20.35 504.13,-21.49 507.14,-27.81"/>
</a>
</g>
</g>
<!-- Node18&#45;&gt;Node13 -->
<g id="edge27_Node000018_Node000013" class="edge">
<title>Node18&#45;&gt;Node13</title>
<g id="a_edge27_Node000018_Node000013"><a xlink:title=" ">
<path fill="none" stroke="#63b8ff" d="M453.32,-54.84C483.58,-45.79 530.24,-31.83 563.03,-22.02"/>
<polygon fill="#63b8ff" stroke="#63b8ff" points="563.97,-25.39 572.55,-19.17 561.96,-18.69 563.97,-25.39"/>
</a>
</g>
</g>
<!-- Node18&#45;&gt;Node15 -->
<g id="edge28_Node000018_Node000015" class="edge">
<title>Node18&#45;&gt;Node15</title>
<g id="a_edge28_Node000018_Node000015"><a xlink:title=" ">
<path fill="none" stroke="#63b8ff" d="M467.85,-54.79C508.81,-46.41 571.4,-33.48 634.34,-19.83"/>
<polygon fill="#63b8ff" stroke="#63b8ff" points="634.76,-23.32 643.79,-17.78 633.27,-16.48 634.76,-23.32"/>
</a>
</g>
</g>
<!-- Node18&#45;&gt;Node16 -->
<g id="edge29_Node000018_Node000016" class="edge">
<title>Node18&#45;&gt;Node16</title>
<g id="a_edge29_Node000018_Node000016"><a xlink:title=" ">
<path fill="none" stroke="#63b8ff" d="M482.83,-56.27C539.18,-48.73 626.26,-36.18 711.39,-19.43"/>
<polygon fill="#63b8ff" stroke="#63b8ff" points="711.96,-22.88 721.09,-17.5 710.59,-16.02 711.96,-22.88"/>
</a>
</g>
</g>
<!-- Node18&#45;&gt;Node17 -->
<g id="edge30_Node000018_Node000017" class="edge">
<title>Node18&#45;&gt;Node17</title>
<g id="a_edge30_Node000018_Node000017"><a xlink:title=" ">
<path fill="none" stroke="#63b8ff" d="M482.83,-58.51C552.02,-51.83 669.64,-39.08 780.06,-19.43"/>
<polygon fill="#63b8ff" stroke="#63b8ff" points="780.36,-22.94 789.58,-17.72 779.11,-16.05 780.36,-22.94"/>
</a>
</g>
</g>
<!-- Node19 -->
<g id="Node000019" class="node">
<title>Node19</title>
<g id="a_Node000019"><a xlink:title=" ">
<polygon fill="#e0e0e0" stroke="#999999" points="495.75,-19.25 450.5,-19.25 450.5,0 495.75,0 495.75,-19.25"/>
<text xml:space="preserve" text-anchor="middle" x="473.12" y="-5.75" font-family="Helvetica,sans-Serif" font-size="10.00">cctype</text>
</a>
</g>
</g>
<!-- Node18&#45;&gt;Node19 -->
<g id="edge18_Node000018_Node000019" class="edge">
<title>Node18&#45;&gt;Node19</title>
<g id="a_edge18_Node000018_Node000019"><a xlink:title=" ">
<path fill="none" stroke="#63b8ff" d="M431.38,-55.08C438.29,-47.73 448.35,-37.01 456.86,-27.94"/>
<polygon fill="#63b8ff" stroke="#63b8ff" points="459.36,-30.4 463.65,-20.71 454.26,-25.61 459.36,-30.4"/>
</a>
</g>
</g>
<!-- Node20 -->
<g id="Node000020" class="node">
<title>Node20</title>
<g id="a_Node000020"><a xlink:title=" ">
<polygon fill="#e0e0e0" stroke="#999999" points="432.25,-19.25 384,-19.25 384,0 432.25,0 432.25,-19.25"/>
<text xml:space="preserve" text-anchor="middle" x="408.12" y="-5.75" font-family="Helvetica,sans-Serif" font-size="10.00">cstddef</text>
</a>
</g>
</g>
<!-- Node18&#45;&gt;Node20 -->
<g id="edge19_Node000018_Node000020" class="edge">
<title>Node18&#45;&gt;Node20</title>
<g id="a_edge19_Node000018_Node000020"><a xlink:title=" ">
<path fill="none" stroke="#63b8ff" d="M420.65,-55.08C418.77,-48.42 416.12,-38.99 413.73,-30.53"/>
<polygon fill="#63b8ff" stroke="#63b8ff" points="417.15,-29.74 411.07,-21.07 410.41,-31.64 417.15,-29.74"/>
</a>
</g>
</g>
</g>
</svg>
