<?xml version="1.0" encoding="UTF-8" standalone="no"?>
<!DOCTYPE svg PUBLIC "-//W3C//DTD SVG 1.1//EN"
 "http://www.w3.org/Graphics/SVG/1.1/DTD/svg11.dtd">
<!-- Generated by graphviz version 7.1.0 (20230121.1956)
 -->
<!-- Title: src/text_mesh/Iotm_TextMeshUtils.h Pages: 1 -->
<!--zoomable 368 -->
<svg id="main" version="1.1" xmlns="http://www.w3.org/2000/svg" xmlns:xlink="http://www.w3.org/1999/xlink" xml:space="preserve" onload="init(evt)">
<style type="text/css"><![CDATA[
.edge:hover path { stroke: red; }
.edge:hover polygon { stroke: red; fill: red; }
]]></style>
<script type="text/javascript"><![CDATA[
var edges = document.getElementsByTagName('g');
if (edges && edges.length) {
  for (var i=0;i<edges.length;i++) {
    if (edges[i].id.substr(0,4)=='edge') {
      edges[i].setAttribute('class','edge');
    }
  }
}
]]></script>
        <defs>
                <circle id="rim" cx="0" cy="0" r="7"/>
                <circle id="rim2" cx="0" cy="0" r="3.5"/>
                <g id="zoomPlus">
                        <use xlink:href="#rim" fill="#404040">
                                <set attributeName="fill" to="#808080" begin="zoomplus.mouseover" end="zoomplus.mouseout"/>
                        </use>
                        <path d="M-4,0h8M0,-4v8" fill="none" stroke="white" stroke-width="1.5" pointer-events="none"/>
                </g>
                <g id="zoomMin">
                        <use xlink:href="#rim" fill="#404040">
                                <set attributeName="fill" to="#808080" begin="zoomminus.mouseover" end="zoomminus.mouseout"/>
                        </use>
                        <path d="M-4,0h8" fill="none" stroke="white" stroke-width="1.5" pointer-events="none"/>
                </g>
                <g id="dirArrow">
                        <path fill="none" stroke="white" stroke-width="1.5" d="M0,-3.0v7 M-2.5,-0.5L0,-3.0L2.5,-0.5"/>
                </g>
               <g id="resetDef">
                       <use xlink:href="#rim2" fill="#404040">
                               <set attributeName="fill" to="#808080" begin="reset.mouseover" end="reset.mouseout"/>
                       </use>
               </g>
        </defs>

<script type="text/javascript">
var viewWidth = 4888;
var viewHeight = 368;
var sectionId = 'dynsection-0';
</script>
<script xlink:href="svgpan.js"/>
<svg id="graph" class="graph">
<g id="viewport">
<title>src/text_mesh/Iotm_TextMeshUtils.h</title>
<!-- Node1 -->
<g id="node1" class="node">
<title>Node1</title>
<g id="a_node1"><a xlink:title=" ">
<polygon fill="#999999" stroke="#666666" points="2640.5,-360 2539.5,-360 2539.5,-330 2640.5,-330 2640.5,-360"/>
<text text-anchor="start" x="2547.5" y="-348" font-family="Helvetica,sans-Serif" font-size="10.00">src/text_mesh/Iotm</text>
<text text-anchor="middle" x="2590" y="-337" font-family="Helvetica,sans-Serif" font-size="10.00">_TextMeshUtils.h</text>
</a>
</g>
</g>
<!-- Node2 -->
<g id="node2" class="node">
<title>Node2</title>
<g id="a_node2"><a xlink:title=" ">
<polygon fill="#e0e0e0" stroke="#999999" points="504,-74 428,-74 428,-55 504,-55 504,-74"/>
<text text-anchor="middle" x="466" y="-62" font-family="Helvetica,sans-Serif" font-size="10.00">iotm_export.h</text>
</a>
</g>
</g>
<!-- Node1&#45;&gt;Node2 -->
<g id="edge1" class="edge">
<title>Node1&#45;&gt;Node2</title>
<path fill="none" stroke="#63b8ff" d="M2539.39,-343.61C2297.9,-341.55 1261.22,-330.73 940,-294 816.16,-279.84 776.84,-294.02 665,-239 584.55,-199.42 510.86,-119.03 480.57,-83.3"/>
<polygon fill="#63b8ff" stroke="#63b8ff" points="483.27,-81.08 474.17,-75.64 477.9,-85.56 483.27,-81.08"/>
</g>
<!-- Node3 -->
<g id="node3" class="node">
<title>Node3</title>
<g id="a_node3"><a xlink:title=" ">
<polygon fill="#e0e0e0" stroke="#999999" points="572,-19 526,-19 526,0 572,0 572,-19"/>
<text text-anchor="middle" x="549" y="-7" font-family="Helvetica,sans-Serif" font-size="10.00">cctype</text>
</a>
</g>
</g>
<!-- Node1&#45;&gt;Node3 -->
<g id="edge2" class="edge">
<title>Node1&#45;&gt;Node3</title>
<path fill="none" stroke="#63b8ff" d="M2539,-344.08C2191.39,-344.46 180.89,-344.48 63,-294 26.45,-278.35 0,-270.26 0,-230.5 0,-230.5 0,-230.5 0,-118.5 0,-80.87 22.43,-72.01 56,-55 136.39,-14.26 416.01,-10.41 514.41,-10.34"/>
<polygon fill="#63b8ff" stroke="#63b8ff" points="514.24,-13.84 524.24,-10.35 514.24,-6.84 514.24,-13.84"/>
</g>
<!-- Node4 -->
<g id="node4" class="node">
<title>Node4</title>
<g id="a_node4"><a xlink:title=" ">
<polygon fill="#e0e0e0" stroke="#999999" points="3310,-74 3258,-74 3258,-55 3310,-55 3310,-74"/>
<text text-anchor="middle" x="3284" y="-62" font-family="Helvetica,sans-Serif" font-size="10.00">stddef.h</text>
</a>
</g>
</g>
<!-- Node1&#45;&gt;Node4 -->
<g id="edge3" class="edge">
<title>Node1&#45;&gt;Node4</title>
<path fill="none" stroke="#63b8ff" d="M2640.7,-342.57C2823.22,-336.75 3436,-311.22 3436,-230.5 3436,-230.5 3436,-230.5 3436,-173.5 3436,-117.4 3366.33,-87.76 3321.33,-74.46"/>
<polygon fill="#63b8ff" stroke="#63b8ff" points="3322.51,-71.16 3311.93,-71.84 3320.62,-77.9 3322.51,-71.16"/>
</g>
<!-- Node5 -->
<g id="node5" class="node">
<title>Node5</title>
<g id="a_node5"><a xlink:title=" ">
<polygon fill="#e0e0e0" stroke="#999999" points="2482,-19 2426,-19 2426,0 2482,0 2482,-19"/>
<text text-anchor="middle" x="2454" y="-7" font-family="Helvetica,sans-Serif" font-size="10.00">algorithm</text>
</a>
</g>
</g>
<!-- Node1&#45;&gt;Node5 -->
<g id="edge4" class="edge">
<title>Node1&#45;&gt;Node5</title>
<path fill="none" stroke="#63b8ff" d="M2640.9,-343.99C2927.7,-343.73 4335.78,-340.14 4523,-294 4585.05,-278.71 4652,-294.4 4652,-230.5 4652,-230.5 4652,-230.5 4652,-173.5 4652,-138.69 4396.22,-61.35 4362,-55 4164.77,-18.38 2757.33,-29.25 2557,-19 2536.08,-17.93 2512.81,-16.07 2493.69,-14.36"/>
<polygon fill="#63b8ff" stroke="#63b8ff" points="2494.17,-10.89 2483.89,-13.46 2493.53,-17.86 2494.17,-10.89"/>
</g>
<!-- Node6 -->
<g id="node6" class="node">
<title>Node6</title>
<g id="a_node6"><a xlink:title=" ">
<polygon fill="#e0e0e0" stroke="#999999" points="1345.5,-19 1298.5,-19 1298.5,0 1345.5,0 1345.5,-19"/>
<text text-anchor="middle" x="1322" y="-7" font-family="Helvetica,sans-Serif" font-size="10.00">iterator</text>
</a>
</g>
</g>
<!-- Node1&#45;&gt;Node6 -->
<g id="edge5" class="edge">
<title>Node1&#45;&gt;Node6</title>
<path fill="none" stroke="#63b8ff" d="M2539.08,-344.04C2232.1,-344.12 634.25,-342.2 422,-294 364,-280.83 336.63,-285.86 300,-239 264.6,-193.72 272.98,-154.78 309,-110 338.38,-73.47 354.19,-68.78 399,-55 409.82,-51.67 1119.11,-19.62 1286.76,-12.08"/>
<polygon fill="#63b8ff" stroke="#63b8ff" points="1286.75,-15.59 1296.59,-11.64 1286.44,-8.59 1286.75,-15.59"/>
</g>
<!-- Node7 -->
<g id="node7" class="node">
<title>Node7</title>
<g id="a_node7"><a xlink:title=" ">
<polygon fill="#e0e0e0" stroke="#999999" points="1253.5,-74 1218.5,-74 1218.5,-55 1253.5,-55 1253.5,-74"/>
<text text-anchor="middle" x="1236" y="-62" font-family="Helvetica,sans-Serif" font-size="10.00">map</text>
</a>
</g>
</g>
<!-- Node1&#45;&gt;Node7 -->
<g id="edge6" class="edge">
<title>Node1&#45;&gt;Node7</title>
<path fill="none" stroke="#63b8ff" d="M2539.41,-343.13C2267.1,-338.1 988,-310.23 988,-230.5 988,-230.5 988,-230.5 988,-173.5 988,-126.2 1141.59,-86.46 1207.03,-71.68"/>
<polygon fill="#63b8ff" stroke="#63b8ff" points="1207.68,-75.12 1216.69,-69.54 1206.17,-68.28 1207.68,-75.12"/>
</g>
<!-- Node8 -->
<g id="node8" class="node">
<title>Node8</title>
<g id="a_node8"><a xlink:title=" ">
<polygon fill="#e0e0e0" stroke="#999999" points="896,-19 866,-19 866,0 896,0 896,-19"/>
<text text-anchor="middle" x="881" y="-7" font-family="Helvetica,sans-Serif" font-size="10.00">set</text>
</a>
</g>
</g>
<!-- Node1&#45;&gt;Node8 -->
<g id="edge7" class="edge">
<title>Node1&#45;&gt;Node8</title>
<path fill="none" stroke="#63b8ff" d="M2539.22,-343.84C2197.42,-342.68 242.35,-334.29 124,-294 79.02,-278.69 38,-278.01 38,-230.5 38,-230.5 38,-230.5 38,-118.5 38,-44.88 119.3,-71.71 191,-55 320.6,-24.81 743.24,-13.53 854.15,-11.06"/>
<polygon fill="#63b8ff" stroke="#63b8ff" points="854.11,-14.56 864.03,-10.84 853.96,-7.56 854.11,-14.56"/>
</g>
<!-- Node9 -->
<g id="node9" class="node">
<title>Node9</title>
<g id="a_node9"><a xlink:title=" ">
<polygon fill="#e0e0e0" stroke="#999999" points="1123,-19 1071,-19 1071,0 1123,0 1123,-19"/>
<text text-anchor="middle" x="1097" y="-7" font-family="Helvetica,sans-Serif" font-size="10.00">sstream</text>
</a>
</g>
</g>
<!-- Node1&#45;&gt;Node9 -->
<g id="edge8" class="edge">
<title>Node1&#45;&gt;Node9</title>
<path fill="none" stroke="#63b8ff" d="M2539.01,-343.64C2225.28,-341.32 562.92,-327.53 339,-294 236.24,-278.61 114,-334.41 114,-230.5 114,-230.5 114,-230.5 114,-118.5 114,-68.45 159.56,-70.96 207,-55 217.26,-51.55 891.03,-20.06 1059.26,-12.25"/>
<polygon fill="#63b8ff" stroke="#63b8ff" points="1059.36,-15.75 1069.19,-11.79 1059.04,-8.76 1059.36,-15.75"/>
</g>
<!-- Node10 -->
<g id="node10" class="node">
<title>Node10</title>
<g id="a_node10"><a xlink:title=" ">
<polygon fill="#e0e0e0" stroke="#999999" points="2606.5,-19 2565.5,-19 2565.5,0 2606.5,0 2606.5,-19"/>
<text text-anchor="middle" x="2586" y="-7" font-family="Helvetica,sans-Serif" font-size="10.00">string</text>
</a>
</g>
</g>
<!-- Node1&#45;&gt;Node10 -->
<g id="edge9" class="edge">
<title>Node1&#45;&gt;Node10</title>
<path fill="none" stroke="#63b8ff" d="M2640.86,-343.75C2955.96,-342.07 4629.5,-331.39 4666,-294 4723.13,-235.48 4716.59,-174.25 4666,-110 4601.51,-28.1 4541.38,-68.39 4438,-55 4060.19,-6.05 3104.65,-34.71 2724,-19 2687.65,-17.5 2645.97,-14.8 2618.01,-12.84"/>
<polygon fill="#63b8ff" stroke="#63b8ff" points="2618.29,-9.35 2608.07,-12.13 2617.8,-16.33 2618.29,-9.35"/>
</g>
<!-- Node11 -->
<g id="node11" class="node">
<title>Node11</title>
<g id="a_node11"><a xlink:title=" ">
<polygon fill="#e0e0e0" stroke="#999999" points="2895,-19 2855,-19 2855,0 2895,0 2895,-19"/>
<text text-anchor="middle" x="2875" y="-7" font-family="Helvetica,sans-Serif" font-size="10.00">utility</text>
</a>
</g>
</g>
<!-- Node1&#45;&gt;Node11 -->
<g id="edge10" class="edge">
<title>Node1&#45;&gt;Node11</title>
<path fill="none" stroke="#63b8ff" d="M2640.9,-343.74C2955.51,-342.03 4625.16,-331.19 4726,-294 4767.94,-278.53 4804,-275.2 4804,-230.5 4804,-230.5 4804,-230.5 4804,-173.5 4804,15.56 4558.8,-66.97 4433,-55 3783.73,6.76 3617.07,-57.35 2966,-19 2946.18,-17.83 2924,-15.78 2906.49,-13.98"/>
<polygon fill="#63b8ff" stroke="#63b8ff" points="2907.03,-10.51 2896.72,-12.95 2906.29,-17.48 2907.03,-10.51"/>
</g>
<!-- Node12 -->
<g id="node12" class="node">
<title>Node12</title>
<g id="a_node12"><a xlink:title=" ">
<polygon fill="#e0e0e0" stroke="#999999" points="2777,-19 2733,-19 2733,0 2777,0 2777,-19"/>
<text text-anchor="middle" x="2755" y="-7" font-family="Helvetica,sans-Serif" font-size="10.00">vector</text>
</a>
</g>
</g>
<!-- Node1&#45;&gt;Node12 -->
<g id="edge11" class="edge">
<title>Node1&#45;&gt;Node12</title>
<path fill="none" stroke="#63b8ff" d="M2640.97,-343.71C2952.34,-341.82 4588,-330.19 4687,-294 4729.31,-278.53 4766,-275.55 4766,-230.5 4766,-230.5 4766,-230.5 4766,-173.5 4766,-40.17 4573.34,-74 4391,-55 3707.84,16.17 3531.69,-58.96 2846,-19 2826.95,-17.89 2805.72,-15.95 2788.56,-14.2"/>
<polygon fill="#63b8ff" stroke="#63b8ff" points="2789.22,-10.75 2778.91,-13.19 2788.49,-17.71 2789.22,-10.75"/>
</g>
<!-- Node13 -->
<g id="node13" class="node">
<title>Node13</title>
<g id="a_node13"><a xlink:title=" ">
<polygon fill="#e0e0e0" stroke="#999999" points="2257.5,-74 2174.5,-74 2174.5,-55 2257.5,-55 2257.5,-74"/>
<text text-anchor="middle" x="2216" y="-62" font-family="Helvetica,sans-Serif" font-size="10.00">unordered_map</text>
</a>
</g>
</g>
<!-- Node1&#45;&gt;Node13 -->
<g id="edge12" class="edge">
<title>Node1&#45;&gt;Node13</title>
<path fill="none" stroke="#63b8ff" d="M2539.01,-335.9C2450.73,-320.79 2275.12,-285.57 2236,-239 2199.01,-194.95 2205.86,-120.91 2211.89,-85.52"/>
<polygon fill="#63b8ff" stroke="#63b8ff" points="2215.3,-86.32 2213.71,-75.84 2208.42,-85.02 2215.3,-86.32"/>
</g>
<!-- Node14 -->
<g id="node14" class="node">
<title>Node14</title>
<g id="a_node14"><a xlink:title=" ">
<polygon fill="#e0e0e0" stroke="#999999" points="3029,-19 2975,-19 2975,0 3029,0 3029,-19"/>
<text text-anchor="middle" x="3002" y="-7" font-family="Helvetica,sans-Serif" font-size="10.00">iostream</text>
</a>
</g>
</g>
<!-- Node1&#45;&gt;Node14 -->
<g id="edge13" class="edge">
<title>Node1&#45;&gt;Node14</title>
<path fill="none" stroke="#63b8ff" d="M2640.98,-343.52C2958.87,-340.42 4659.25,-322.56 4765,-294 4821.37,-278.78 4880,-288.89 4880,-230.5 4880,-230.5 4880,-230.5 4880,-118.5 4880,21.7 4710.27,-71.16 4571,-55 4261.32,-19.07 3251.82,-11.82 3040.86,-10.68"/>
<polygon fill="#63b8ff" stroke="#63b8ff" points="3041.02,-7.18 3031,-10.63 3040.99,-14.18 3041.02,-7.18"/>
</g>
<!-- Node15 -->
<g id="node15" class="node">
<title>Node15</title>
<g id="a_node15"><a xlink:title=" ">
<polygon fill="#e0e0e0" stroke="#999999" points="3503.5,-74 3444.5,-74 3444.5,-55 3503.5,-55 3503.5,-74"/>
<text text-anchor="middle" x="3474" y="-62" font-family="Helvetica,sans-Serif" font-size="10.00">functional</text>
</a>
</g>
</g>
<!-- Node1&#45;&gt;Node15 -->
<g id="edge14" class="edge">
<title>Node1&#45;&gt;Node15</title>
<path fill="none" stroke="#63b8ff" d="M2640.82,-343.15C2797.54,-340.16 3266.32,-328.42 3325,-294 3407.7,-245.5 3452.78,-130.82 3468.02,-84.95"/>
<polygon fill="#63b8ff" stroke="#63b8ff" points="3471.3,-86.21 3471.01,-75.62 3464.63,-84.08 3471.3,-86.21"/>
</g>
<!-- Node16 -->
<g id="node16" class="node">
<title>Node16</title>
<g id="a_node16"><a xlink:title=" ">
<polygon fill="#e0e0e0" stroke="#999999" points="1482.5,-19 1423.5,-19 1423.5,0 1482.5,0 1482.5,-19"/>
<text text-anchor="middle" x="1453" y="-7" font-family="Helvetica,sans-Serif" font-size="10.00">stdexcept</text>
</a>
</g>
</g>
<!-- Node1&#45;&gt;Node16 -->
<g id="edge15" class="edge">
<title>Node1&#45;&gt;Node16</title>
<path fill="none" stroke="#63b8ff" d="M2539.05,-344.22C2201.75,-345.32 304,-346.36 304,-230.5 304,-230.5 304,-230.5 304,-173.5 304,-102.54 346.72,-85.05 411,-55 505.99,-10.6 1249.35,-25.49 1354,-19 1372.98,-17.82 1393.96,-16.08 1411.71,-14.49"/>
<polygon fill="#63b8ff" stroke="#63b8ff" points="1411.99,-17.98 1421.63,-13.57 1411.35,-11 1411.99,-17.98"/>
</g>
<!-- Node17 -->
<g id="node17" class="node">
<title>Node17</title>
<g id="a_node17"><a xlink:title=" ">
<polygon fill="#e0e0e0" stroke="#999999" points="2140.5,-19 2089.5,-19 2089.5,0 2140.5,0 2140.5,-19"/>
<text text-anchor="middle" x="2115" y="-7" font-family="Helvetica,sans-Serif" font-size="10.00">numeric</text>
</a>
</g>
</g>
<!-- Node1&#45;&gt;Node17 -->
<g id="edge16" class="edge">
<title>Node1&#45;&gt;Node17</title>
<path fill="none" stroke="#63b8ff" d="M2640.99,-343.55C2930.88,-340.91 4359.65,-326.23 4391,-294 4413.93,-270.42 4406.56,-248.98 4391,-220 4308.31,-66 4206.8,-81.35 4034,-55 3678.68,-0.82 2776.31,-28.06 2417,-19 2321.54,-16.59 2209.13,-13.31 2152.14,-11.62"/>
<polygon fill="#63b8ff" stroke="#63b8ff" points="2152.47,-8.12 2142.37,-11.32 2152.26,-15.12 2152.47,-8.12"/>
</g>
<!-- Node18 -->
<g id="node18" class="node">
<title>Node18</title>
<g id="a_node18"><a xlink:title=" ">
<polygon fill="#e0e0e0" stroke="#999999" points="3121,-74 3067,-74 3067,-55 3121,-55 3121,-74"/>
<text text-anchor="middle" x="3094" y="-62" font-family="Helvetica,sans-Serif" font-size="10.00">strings.h</text>
</a>
</g>
</g>
<!-- Node1&#45;&gt;Node18 -->
<g id="edge17" class="edge">
<title>Node1&#45;&gt;Node18</title>
<path fill="none" stroke="#63b8ff" d="M2640.82,-341.88C2812.46,-334.07 3360,-303.43 3360,-230.5 3360,-230.5 3360,-230.5 3360,-173.5 3360,-125.01 3206.31,-87.83 3132.58,-72.79"/>
<polygon fill="#63b8ff" stroke="#63b8ff" points="3133.44,-69.39 3122.95,-70.87 3132.07,-76.26 3133.44,-69.39"/>
</g>
<!-- Node19 -->
<g id="node19" class="node">
<title>Node19</title>
<g id="a_node19"><a xlink:href="Iotm__TextMeshFuncs_8h.html" target="_top" xlink:title=" ">
<polygon fill="white" stroke="#666666" points="1619.5,-74 1500.5,-74 1500.5,-55 1619.5,-55 1619.5,-74"/>
<text text-anchor="middle" x="1560" y="-62" font-family="Helvetica,sans-Serif" font-size="10.00">Iotm_TextMeshFuncs.h</text>
</a>
</g>
</g>
<!-- Node1&#45;&gt;Node19 -->
<g id="edge18" class="edge">
<title>Node1&#45;&gt;Node19</title>
<path fill="none" stroke="#63b8ff" d="M2539.01,-340.92C2444.82,-334.83 2237.33,-319.6 2064,-294 1818.68,-257.77 1725.74,-317.86 1517,-184 1485.53,-163.82 1457.8,-142.08 1477,-110 1485.66,-95.52 1500.83,-85.49 1515.85,-78.66"/>
<polygon fill="#63b8ff" stroke="#63b8ff" points="1516.82,-82.05 1524.74,-75.01 1514.16,-75.57 1516.82,-82.05"/>
</g>
<!-- Node21 -->
<g id="node21" class="node">
<title>Node21</title>
<g id="a_node21"><a xlink:href="Iotm__TextMeshDataTypes_8h.html" target="_top" xlink:title=" ">
<polygon fill="white" stroke="#666666" points="1650,-129 1510,-129 1510,-110 1650,-110 1650,-129"/>
<text text-anchor="middle" x="1580" y="-117" font-family="Helvetica,sans-Serif" font-size="10.00">Iotm_TextMeshDataTypes.h</text>
</a>
</g>
</g>
<!-- Node1&#45;&gt;Node21 -->
<g id="edge31" class="edge">
<title>Node1&#45;&gt;Node21</title>
<path fill="none" stroke="#63b8ff" d="M2539.3,-340.21C2459.29,-333.74 2299.05,-318.8 2165,-294 1969.76,-257.88 1920.34,-246.88 1732,-184 1688.27,-169.4 1639.34,-148.01 1609.1,-134.17"/>
<polygon fill="#63b8ff" stroke="#63b8ff" points="1610.77,-131.08 1600.23,-130.07 1607.84,-137.44 1610.77,-131.08"/>
</g>
<!-- Node23 -->
<g id="node23" class="node">
<title>Node23</title>
<g id="a_node23"><a xlink:href="Iotm__TextMeshEntityGroup_8h.html" target="_top" xlink:title=" ">
<polygon fill="white" stroke="#666666" points="2648,-129 2504,-129 2504,-110 2648,-110 2648,-129"/>
<text text-anchor="middle" x="2576" y="-117" font-family="Helvetica,sans-Serif" font-size="10.00">Iotm_TextMeshEntityGroup.h</text>
</a>
</g>
</g>
<!-- Node1&#45;&gt;Node23 -->
<g id="edge50" class="edge">
<title>Node1&#45;&gt;Node23</title>
<path fill="none" stroke="#63b8ff" d="M2623.71,-329.53C2638.27,-321.38 2653.82,-309.64 2662,-294 2665.91,-286.52 2663.53,-283.3 2662,-275 2652.51,-223.54 2648.34,-208.99 2620,-165 2613.35,-154.67 2603.98,-144.78 2595.61,-136.96"/>
<polygon fill="#63b8ff" stroke="#63b8ff" points="2598,-134.41 2588.2,-130.37 2593.34,-139.64 2598,-134.41"/>
</g>
<!-- Node24 -->
<g id="node24" class="node">
<title>Node24</title>
<g id="a_node24"><a xlink:href="Iotm__TextMeshSideset_8h.html" target="_top" xlink:title=" ">
<polygon fill="white" stroke="#666666" points="2652.5,-294 2527.5,-294 2527.5,-275 2652.5,-275 2652.5,-294"/>
<text text-anchor="middle" x="2590" y="-282" font-family="Helvetica,sans-Serif" font-size="10.00">Iotm_TextMeshSideset.h</text>
</a>
</g>
</g>
<!-- Node1&#45;&gt;Node24 -->
<g id="edge68" class="edge">
<title>Node1&#45;&gt;Node24</title>
<path fill="none" stroke="#63b8ff" d="M2590,-329.54C2590,-322.34 2590,-313.53 2590,-305.68"/>
<polygon fill="#63b8ff" stroke="#63b8ff" points="2593.5,-305.69 2590,-295.69 2586.5,-305.69 2593.5,-305.69"/>
</g>
<!-- Node28 -->
<g id="node28" class="node">
<title>Node28</title>
<g id="a_node28"><a xlink:href="Iotm__TextMeshNodeset_8h.html" target="_top" xlink:title=" ">
<polygon fill="white" stroke="#666666" points="4032.5,-184 3903.5,-184 3903.5,-165 4032.5,-165 4032.5,-184"/>
<text text-anchor="middle" x="3968" y="-172" font-family="Helvetica,sans-Serif" font-size="10.00">Iotm_TextMeshNodeset.h</text>
</a>
</g>
</g>
<!-- Node1&#45;&gt;Node28 -->
<g id="edge147" class="edge">
<title>Node1&#45;&gt;Node28</title>
<path fill="none" stroke="#63b8ff" d="M2640.89,-343.54C2928.63,-340.82 4340.02,-325.86 4371,-294 4393.93,-270.42 4392.94,-244.5 4371,-220 4349.63,-196.14 4154.84,-183.71 4044.09,-178.52"/>
<polygon fill="#63b8ff" stroke="#63b8ff" points="4044.32,-175.03 4034.17,-178.07 4044,-182.02 4044.32,-175.03"/>
</g>
<!-- Node29 -->
<g id="node29" class="node">
<title>Node29</title>
<g id="a_node29"><a xlink:href="Iotm__TextMeshAssembly_8h.html" target="_top" xlink:title=" ">
<polygon fill="white" stroke="#666666" points="922,-184 788,-184 788,-165 922,-165 922,-184"/>
<text text-anchor="middle" x="855" y="-172" font-family="Helvetica,sans-Serif" font-size="10.00">Iotm_TextMeshAssembly.h</text>
</a>
</g>
</g>
<!-- Node1&#45;&gt;Node29 -->
<g id="edge166" class="edge">
<title>Node1&#45;&gt;Node29</title>
<path fill="none" stroke="#63b8ff" d="M2539.31,-343.48C2273.24,-340.61 1047.5,-325.69 974,-294 924.86,-272.81 885.01,-221.09 866.39,-193.51"/>
<polygon fill="#63b8ff" stroke="#63b8ff" points="869.55,-191.95 861.15,-185.5 863.7,-195.79 869.55,-191.95"/>
</g>
<!-- Node19&#45;&gt;Node3 -->
<g id="edge19" class="edge">
<title>Node19&#45;&gt;Node3</title>
<path fill="none" stroke="#63b8ff" d="M1500.16,-60.36C1311.4,-50.47 732.27,-20.11 583.91,-12.33"/>
<polygon fill="#63b8ff" stroke="#63b8ff" points="584.12,-8.84 573.95,-11.81 583.76,-15.83 584.12,-8.84"/>
</g>
<!-- Node19&#45;&gt;Node5 -->
<g id="edge21" class="edge">
<title>Node19&#45;&gt;Node5</title>
<path fill="none" stroke="#63b8ff" d="M1619.85,-58.75C1636.71,-57.47 1655.07,-56.12 1672,-55 1956.37,-36.12 2299.25,-18.33 2414.24,-12.5"/>
<polygon fill="#63b8ff" stroke="#63b8ff" points="2414.26,-16 2424.07,-12 2413.91,-9.01 2414.26,-16"/>
</g>
<!-- Node19&#45;&gt;Node6 -->
<g id="edge22" class="edge">
<title>Node19&#45;&gt;Node6</title>
<path fill="none" stroke="#63b8ff" d="M1519.63,-54.51C1473.95,-44.34 1400.29,-27.94 1356.97,-18.29"/>
<polygon fill="#63b8ff" stroke="#63b8ff" points="1357.87,-14.9 1347.35,-16.14 1356.35,-21.73 1357.87,-14.9"/>
</g>
<!-- Node19&#45;&gt;Node8 -->
<g id="edge23" class="edge">
<title>Node19&#45;&gt;Node8</title>
<path fill="none" stroke="#63b8ff" d="M1500.04,-58.82C1358.32,-47.76 1007.11,-20.34 907.64,-12.58"/>
<polygon fill="#63b8ff" stroke="#63b8ff" points="908.04,-9.1 897.8,-11.81 907.5,-16.08 908.04,-9.1"/>
</g>
<!-- Node19&#45;&gt;Node9 -->
<g id="edge27" class="edge">
<title>Node19&#45;&gt;Node9</title>
<path fill="none" stroke="#63b8ff" d="M1500.42,-56.68C1403.46,-45.58 1214.34,-23.93 1134.25,-14.76"/>
<polygon fill="#63b8ff" stroke="#63b8ff" points="1135.09,-11.34 1124.76,-13.68 1134.29,-18.29 1135.09,-11.34"/>
</g>
<!-- Node19&#45;&gt;Node10 -->
<g id="edge24" class="edge">
<title>Node19&#45;&gt;Node10</title>
<path fill="none" stroke="#63b8ff" d="M1619.85,-59.96C1647.31,-58.38 1680.3,-56.53 1710,-55 2057.02,-37.17 2144.32,-42.49 2491,-19 2512.01,-17.58 2535.58,-15.47 2553.99,-13.71"/>
<polygon fill="#63b8ff" stroke="#63b8ff" points="2554.14,-17.21 2563.76,-12.76 2553.47,-10.25 2554.14,-17.21"/>
</g>
<!-- Node19&#45;&gt;Node11 -->
<g id="edge25" class="edge">
<title>Node19&#45;&gt;Node11</title>
<path fill="none" stroke="#63b8ff" d="M1619.95,-61.22C1665.5,-59.49 1729.69,-57.07 1786,-55 2230.43,-38.64 2342.22,-48.15 2786,-19 2805.13,-17.74 2826.51,-15.72 2843.53,-13.96"/>
<polygon fill="#63b8ff" stroke="#63b8ff" points="2843.44,-17.49 2853.02,-12.96 2842.71,-10.53 2843.44,-17.49"/>
</g>
<!-- Node19&#45;&gt;Node12 -->
<g id="edge26" class="edge">
<title>Node19&#45;&gt;Node12</title>
<path fill="none" stroke="#63b8ff" d="M1619.69,-60.74C1656.64,-59.05 1705.08,-56.86 1748,-55 2133.75,-38.28 2230.4,-38.78 2616,-19 2652.13,-17.15 2693.51,-14.56 2721.66,-12.72"/>
<polygon fill="#63b8ff" stroke="#63b8ff" points="2721.6,-16.23 2731.35,-12.09 2721.14,-9.25 2721.6,-16.23"/>
</g>
<!-- Node19&#45;&gt;Node14 -->
<g id="edge28" class="edge">
<title>Node19&#45;&gt;Node14</title>
<path fill="none" stroke="#63b8ff" d="M1619.62,-61.57C1875.79,-53.27 2871.52,-20.94 2904,-19 2923.58,-17.83 2945.31,-16 2963.33,-14.33"/>
<polygon fill="#63b8ff" stroke="#63b8ff" points="2963.44,-17.84 2973.06,-13.42 2962.78,-10.87 2963.44,-17.84"/>
</g>
<!-- Node19&#45;&gt;Node16 -->
<g id="edge29" class="edge">
<title>Node19&#45;&gt;Node16</title>
<path fill="none" stroke="#63b8ff" d="M1541.85,-54.51C1525.22,-46.27 1500.36,-33.96 1481.15,-24.45"/>
<polygon fill="#63b8ff" stroke="#63b8ff" points="1482.75,-21.33 1472.24,-20.03 1479.65,-27.6 1482.75,-21.33"/>
</g>
<!-- Node19&#45;&gt;Node17 -->
<g id="edge30" class="edge">
<title>Node19&#45;&gt;Node17</title>
<path fill="none" stroke="#63b8ff" d="M1619.76,-56.52C1624.58,-55.99 1629.37,-55.48 1634,-55 1799.57,-37.83 1997.55,-20.54 2078.15,-13.63"/>
<polygon fill="#63b8ff" stroke="#63b8ff" points="2078,-17.16 2087.66,-12.82 2077.4,-10.18 2078,-17.16"/>
</g>
<!-- Node20 -->
<g id="node20" class="node">
<title>Node20</title>
<g id="a_node20"><a xlink:title=" ">
<polygon fill="#e0e0e0" stroke="#999999" points="1584.5,-19 1535.5,-19 1535.5,0 1584.5,0 1584.5,-19"/>
<text text-anchor="middle" x="1560" y="-7" font-family="Helvetica,sans-Serif" font-size="10.00">cstddef</text>
</a>
</g>
</g>
<!-- Node19&#45;&gt;Node20 -->
<g id="edge20" class="edge">
<title>Node19&#45;&gt;Node20</title>
<path fill="none" stroke="#63b8ff" d="M1560,-54.75C1560,-48.27 1560,-39.16 1560,-30.9"/>
<polygon fill="#63b8ff" stroke="#63b8ff" points="1563.5,-30.96 1560,-20.96 1556.5,-30.96 1563.5,-30.96"/>
</g>
<!-- Node21&#45;&gt;Node2 -->
<g id="edge32" class="edge">
<title>Node21&#45;&gt;Node2</title>
<path fill="none" stroke="#63b8ff" d="M1509.89,-115.16C1302.27,-105.29 693.98,-76.35 515.67,-67.86"/>
<polygon fill="#63b8ff" stroke="#63b8ff" points="515.98,-64.37 505.82,-67.39 515.64,-71.37 515.98,-64.37"/>
</g>
<!-- Node21&#45;&gt;Node4 -->
<g id="edge34" class="edge">
<title>Node21&#45;&gt;Node4</title>
<path fill="none" stroke="#63b8ff" d="M1650.32,-117.14C1869.39,-112.77 2559.11,-97.95 3130,-74 3169.74,-72.33 3215.2,-69.74 3246.37,-67.86"/>
<polygon fill="#63b8ff" stroke="#63b8ff" points="3246.3,-71.37 3256.07,-67.26 3245.87,-64.38 3246.3,-71.37"/>
</g>
<!-- Node21&#45;&gt;Node5 -->
<g id="edge35" class="edge">
<title>Node21&#45;&gt;Node5</title>
<path fill="none" stroke="#63b8ff" d="M1597.88,-109.54C1632.12,-92.4 1704.09,-56.55 1710,-55 1778.24,-37.06 2270.3,-17.39 2414.43,-11.96"/>
<polygon fill="#63b8ff" stroke="#63b8ff" points="2414.37,-15.46 2424.23,-11.59 2414.11,-8.47 2414.37,-15.46"/>
</g>
<!-- Node21&#45;&gt;Node6 -->
<g id="edge36" class="edge">
<title>Node21&#45;&gt;Node6</title>
<path fill="none" stroke="#63b8ff" d="M1558.05,-109.53C1536.21,-100.58 1501.75,-86.43 1472,-74 1430.86,-56.82 1383.51,-36.72 1353.2,-23.81"/>
<polygon fill="#63b8ff" stroke="#63b8ff" points="1354.81,-20.69 1344.23,-19.99 1352.06,-27.13 1354.81,-20.69"/>
</g>
<!-- Node21&#45;&gt;Node7 -->
<g id="edge37" class="edge">
<title>Node21&#45;&gt;Node7</title>
<path fill="none" stroke="#63b8ff" d="M1521.65,-109.51C1447.35,-98.06 1321.86,-78.73 1265.25,-70.01"/>
<polygon fill="#63b8ff" stroke="#63b8ff" points="1265.86,-66.56 1255.45,-68.5 1264.8,-73.48 1265.86,-66.56"/>
</g>
<!-- Node21&#45;&gt;Node8 -->
<g id="edge38" class="edge">
<title>Node21&#45;&gt;Node8</title>
<path fill="none" stroke="#63b8ff" d="M1523.07,-109.51C1473.05,-101.31 1398.4,-88.3 1334,-74 1301.69,-66.83 1294.52,-61.16 1262,-55 1130.11,-30.03 969.72,-16.79 907.47,-12.29"/>
<polygon fill="#63b8ff" stroke="#63b8ff" points="908.09,-8.83 897.87,-11.62 907.6,-15.81 908.09,-8.83"/>
</g>
<!-- Node21&#45;&gt;Node9 -->
<g id="edge39" class="edge">
<title>Node21&#45;&gt;Node9</title>
<path fill="none" stroke="#63b8ff" d="M1548.32,-109.6C1501.63,-96.64 1411.5,-72.26 1334,-55 1263.93,-39.4 1181.4,-24.73 1134.54,-16.75"/>
<polygon fill="#63b8ff" stroke="#63b8ff" points="1135.36,-13.34 1124.91,-15.12 1134.19,-20.24 1135.36,-13.34"/>
</g>
<!-- Node21&#45;&gt;Node10 -->
<g id="edge40" class="edge">
<title>Node21&#45;&gt;Node10</title>
<path fill="none" stroke="#63b8ff" d="M1606.31,-109.6C1631.53,-100.94 1670.6,-87.19 1704,-74 1723.81,-66.18 1727.25,-59.82 1748,-55 1909.03,-17.63 2326.09,-30.37 2491,-19 2512,-17.55 2535.58,-15.45 2553.99,-13.69"/>
<polygon fill="#63b8ff" stroke="#63b8ff" points="2554.14,-17.19 2563.76,-12.75 2553.47,-10.23 2554.14,-17.19"/>
</g>
<!-- Node21&#45;&gt;Node11 -->
<g id="edge41" class="edge">
<title>Node21&#45;&gt;Node11</title>
<path fill="none" stroke="#63b8ff" d="M1629.98,-109.54C1670.15,-101.78 1727.81,-89.39 1777,-74 1798.5,-67.27 1801.97,-59.71 1824,-55 2033.19,-10.24 2572.54,-33.18 2786,-19 2805.13,-17.73 2826.51,-15.71 2843.53,-13.95"/>
<polygon fill="#63b8ff" stroke="#63b8ff" points="2843.44,-17.48 2853.02,-12.95 2842.71,-10.52 2843.44,-17.48"/>
</g>
<!-- Node21&#45;&gt;Node12 -->
<g id="edge42" class="edge">
<title>Node21&#45;&gt;Node12</title>
<path fill="none" stroke="#63b8ff" d="M1616.92,-109.58C1649.6,-101.36 1698.42,-88.31 1740,-74 1760.92,-66.8 1764.4,-59.77 1786,-55 1966.27,-15.16 2431.63,-28.63 2616,-19 2652.13,-17.11 2693.51,-14.53 2721.66,-12.71"/>
<polygon fill="#63b8ff" stroke="#63b8ff" points="2721.6,-16.22 2731.35,-12.07 2721.14,-9.23 2721.6,-16.22"/>
</g>
<!-- Node21&#45;&gt;Node13 -->
<g id="edge43" class="edge">
<title>Node21&#45;&gt;Node13</title>
<path fill="none" stroke="#63b8ff" d="M1650.49,-112.63C1779,-101.92 2048.65,-79.45 2162.97,-69.92"/>
<polygon fill="#63b8ff" stroke="#63b8ff" points="2163,-73.43 2172.67,-69.11 2162.42,-66.45 2163,-73.43"/>
</g>
<!-- Node21&#45;&gt;Node14 -->
<g id="edge44" class="edge">
<title>Node21&#45;&gt;Node14</title>
<path fill="none" stroke="#63b8ff" d="M1648.54,-109.52C1695.71,-102.37 1759.44,-90.74 1814,-74 1834.36,-67.75 1837.22,-59.67 1858,-55 2084.92,-4.01 2671.84,-33.05 2904,-19 2923.58,-17.81 2945.31,-15.98 2963.33,-14.32"/>
<polygon fill="#63b8ff" stroke="#63b8ff" points="2963.44,-17.83 2973.06,-13.41 2962.78,-10.86 2963.44,-17.83"/>
</g>
<!-- Node21&#45;&gt;Node15 -->
<g id="edge45" class="edge">
<title>Node21&#45;&gt;Node15</title>
<path fill="none" stroke="#63b8ff" d="M1650.43,-117.44C1886.43,-113.71 2670.96,-100.05 3319,-74 3357.56,-72.45 3401.48,-69.97 3432.7,-68.09"/>
<polygon fill="#63b8ff" stroke="#63b8ff" points="3432.73,-71.6 3442.5,-67.5 3432.3,-64.61 3432.73,-71.6"/>
</g>
<!-- Node21&#45;&gt;Node16 -->
<g id="edge46" class="edge">
<title>Node21&#45;&gt;Node16</title>
<path fill="none" stroke="#63b8ff" d="M1553.07,-109.65C1534.05,-102.38 1508.86,-90.56 1491,-74 1477.6,-61.58 1467.37,-43.37 1460.91,-29.63"/>
<polygon fill="#63b8ff" stroke="#63b8ff" points="1464.23,-28.49 1457,-20.75 1457.83,-31.31 1464.23,-28.49"/>
</g>
<!-- Node21&#45;&gt;Node17 -->
<g id="edge47" class="edge">
<title>Node21&#45;&gt;Node17</title>
<path fill="none" stroke="#63b8ff" d="M1589.27,-109.65C1604.9,-95.33 1638.12,-67.45 1672,-55 1746.29,-27.7 1985.18,-15.6 2077.81,-11.85"/>
<polygon fill="#63b8ff" stroke="#63b8ff" points="2077.75,-15.36 2087.61,-11.47 2077.48,-8.36 2077.75,-15.36"/>
</g>
<!-- Node21&#45;&gt;Node18 -->
<g id="edge48" class="edge">
<title>Node21&#45;&gt;Node18</title>
<path fill="none" stroke="#63b8ff" d="M1650.49,-116.03C1916.2,-106.73 2852.39,-73.96 3055.1,-66.86"/>
<polygon fill="#63b8ff" stroke="#63b8ff" points="3055.21,-70.36 3065.08,-66.51 3054.97,-63.36 3055.21,-70.36"/>
</g>
<!-- Node21&#45;&gt;Node19 -->
<g id="edge49" class="edge">
<title>Node21&#45;&gt;Node19</title>
<path fill="none" stroke="#63b8ff" d="M1576.7,-109.75C1574.17,-103.04 1570.57,-93.52 1567.37,-85.02"/>
<polygon fill="#63b8ff" stroke="#63b8ff" points="1570.71,-83.98 1563.91,-75.86 1564.16,-86.45 1570.71,-83.98"/>
</g>
<!-- Node22 -->
<g id="node22" class="node">
<title>Node22</title>
<g id="a_node22"><a xlink:title=" ">
<polygon fill="#e0e0e0" stroke="#999999" points="1915.5,-74 1866.5,-74 1866.5,-55 1915.5,-55 1915.5,-74"/>
<text text-anchor="middle" x="1891" y="-62" font-family="Helvetica,sans-Serif" font-size="10.00">ctype.h</text>
</a>
</g>
</g>
<!-- Node21&#45;&gt;Node22 -->
<g id="edge33" class="edge">
<title>Node21&#45;&gt;Node22</title>
<path fill="none" stroke="#63b8ff" d="M1640.66,-109.51C1695.89,-101.1 1779.61,-87.8 1852,-74 1853.01,-73.81 1854.04,-73.61 1855.07,-73.4"/>
<polygon fill="#63b8ff" stroke="#63b8ff" points="1855.71,-76.85 1864.8,-71.4 1854.3,-69.99 1855.71,-76.85"/>
</g>
<!-- Node23&#45;&gt;Node4 -->
<g id="edge52" class="edge">
<title>Node23&#45;&gt;Node4</title>
<path fill="none" stroke="#63b8ff" d="M2648.44,-113.08C2797.38,-101.93 3133.44,-76.77 3246.26,-68.33"/>
<polygon fill="#63b8ff" stroke="#63b8ff" points="3246.46,-71.82 3256.17,-67.58 3245.94,-64.84 3246.46,-71.82"/>
</g>
<!-- Node23&#45;&gt;Node5 -->
<g id="edge53" class="edge">
<title>Node23&#45;&gt;Node5</title>
<path fill="none" stroke="#63b8ff" d="M2581.86,-109.82C2589.9,-96.71 2602.06,-71.63 2590,-55 2568.18,-24.91 2525.41,-14.79 2493.63,-11.58"/>
<polygon fill="#63b8ff" stroke="#63b8ff" points="2494.24,-8.11 2483.99,-10.8 2493.68,-15.09 2494.24,-8.11"/>
</g>
<!-- Node23&#45;&gt;Node6 -->
<g id="edge54" class="edge">
<title>Node23&#45;&gt;Node6</title>
<path fill="none" stroke="#63b8ff" d="M2563.91,-109.67C2541.68,-93.63 2494.86,-60.83 2476,-55 2363.2,-20.13 1531.83,-26.43 1414,-19 1395.14,-17.81 1374.15,-15.92 1356.99,-14.22"/>
<polygon fill="#63b8ff" stroke="#63b8ff" points="1357.61,-10.76 1347.3,-13.23 1356.9,-17.72 1357.61,-10.76"/>
</g>
<!-- Node23&#45;&gt;Node7 -->
<g id="edge55" class="edge">
<title>Node23&#45;&gt;Node7</title>
<path fill="none" stroke="#63b8ff" d="M2503.96,-115.65C2253.9,-105.76 1429.72,-73.16 1264.85,-66.64"/>
<polygon fill="#63b8ff" stroke="#63b8ff" points="1265.38,-63.16 1255.25,-66.26 1265.1,-70.15 1265.38,-63.16"/>
</g>
<!-- Node23&#45;&gt;Node8 -->
<g id="edge56" class="edge">
<title>Node23&#45;&gt;Node8</title>
<path fill="none" stroke="#63b8ff" d="M2542.02,-109.5C2485.45,-94.98 2368.18,-66.82 2267,-55 1734.82,7.16 1597.4,-39.57 1062,-19 1007.17,-16.89 943.02,-13.71 907.72,-11.9"/>
<polygon fill="#63b8ff" stroke="#63b8ff" points="908.17,-8.42 898,-11.39 907.81,-15.41 908.17,-8.42"/>
</g>
<!-- Node23&#45;&gt;Node9 -->
<g id="edge57" class="edge">
<title>Node23&#45;&gt;Node9</title>
<path fill="none" stroke="#63b8ff" d="M2555.19,-109.57C2534.88,-100.77 2503.15,-86.82 2476,-74 2458.93,-65.94 2456.31,-59.63 2438,-55 2314.16,-23.71 1416.64,-23.82 1289,-19 1235.48,-16.98 1173.59,-14.15 1134.87,-12.32"/>
<polygon fill="#63b8ff" stroke="#63b8ff" points="1135.06,-8.83 1124.91,-11.85 1134.73,-15.82 1135.06,-8.83"/>
</g>
<!-- Node23&#45;&gt;Node10 -->
<g id="edge58" class="edge">
<title>Node23&#45;&gt;Node10</title>
<path fill="none" stroke="#63b8ff" d="M2592.53,-109.64C2604.85,-102.02 2620.74,-89.76 2628,-74 2635.89,-56.86 2621.93,-39.1 2608.02,-26.73"/>
<polygon fill="#63b8ff" stroke="#63b8ff" points="2610.25,-24.03 2600.3,-20.4 2605.82,-29.44 2610.25,-24.03"/>
</g>
<!-- Node23&#45;&gt;Node11 -->
<g id="edge59" class="edge">
<title>Node23&#45;&gt;Node11</title>
<path fill="none" stroke="#63b8ff" d="M2600.72,-109.57C2655.01,-89.96 2784.53,-43.18 2844.08,-21.67"/>
<polygon fill="#63b8ff" stroke="#63b8ff" points="2845.04,-25.04 2853.26,-18.35 2842.67,-18.46 2845.04,-25.04"/>
</g>
<!-- Node23&#45;&gt;Node12 -->
<g id="edge60" class="edge">
<title>Node23&#45;&gt;Node12</title>
<path fill="none" stroke="#63b8ff" d="M2590.65,-109.66C2621.33,-91.15 2692.62,-48.13 2730.43,-25.32"/>
<polygon fill="#63b8ff" stroke="#63b8ff" points="2732.1,-28.4 2738.85,-20.24 2728.48,-22.41 2732.1,-28.4"/>
</g>
<!-- Node23&#45;&gt;Node13 -->
<g id="edge61" class="edge">
<title>Node23&#45;&gt;Node13</title>
<path fill="none" stroke="#63b8ff" d="M2514.93,-109.51C2445.95,-99.35 2334.8,-82.99 2269.23,-73.34"/>
<polygon fill="#63b8ff" stroke="#63b8ff" points="2269.83,-69.89 2259.43,-71.89 2268.81,-76.81 2269.83,-69.89"/>
</g>
<!-- Node23&#45;&gt;Node14 -->
<g id="edge62" class="edge">
<title>Node23&#45;&gt;Node14</title>
<path fill="none" stroke="#63b8ff" d="M2611.22,-109.57C2690.34,-89.51 2881.63,-41.02 2963.63,-20.23"/>
<polygon fill="#63b8ff" stroke="#63b8ff" points="2964.38,-23.65 2973.22,-17.8 2962.66,-16.86 2964.38,-23.65"/>
</g>
<!-- Node23&#45;&gt;Node15 -->
<g id="edge63" class="edge">
<title>Node23&#45;&gt;Node15</title>
<path fill="none" stroke="#63b8ff" d="M2648.35,-114.23C2828.4,-103.6 3292.23,-76.23 3432.93,-67.92"/>
<polygon fill="#63b8ff" stroke="#63b8ff" points="3433.11,-71.42 3442.88,-67.34 3432.69,-64.43 3433.11,-71.42"/>
</g>
<!-- Node23&#45;&gt;Node16 -->
<g id="edge64" class="edge">
<title>Node23&#45;&gt;Node16</title>
<path fill="none" stroke="#63b8ff" d="M2570.81,-109.92C2561.51,-95.48 2540.49,-66.73 2514,-55 2413.56,-10.52 1635.53,-27.36 1526,-19 1515.65,-18.21 1504.5,-17.06 1494.11,-15.87"/>
<polygon fill="#63b8ff" stroke="#63b8ff" points="1494.63,-12.4 1484.29,-14.69 1493.8,-19.35 1494.63,-12.4"/>
</g>
<!-- Node23&#45;&gt;Node17 -->
<g id="edge65" class="edge">
<title>Node23&#45;&gt;Node17</title>
<path fill="none" stroke="#63b8ff" d="M2575.5,-109.85C2574.17,-95.83 2569.38,-68.36 2552,-55 2520.59,-30.85 2252.23,-16.59 2152.3,-12.07"/>
<polygon fill="#63b8ff" stroke="#63b8ff" points="2152.63,-8.58 2142.48,-11.63 2152.32,-15.57 2152.63,-8.58"/>
</g>
<!-- Node23&#45;&gt;Node18 -->
<g id="edge66" class="edge">
<title>Node23&#45;&gt;Node18</title>
<path fill="none" stroke="#63b8ff" d="M2648.3,-111.1C2759.63,-99.71 2969.21,-78.27 3055.44,-69.45"/>
<polygon fill="#63b8ff" stroke="#63b8ff" points="3055.67,-72.94 3065.26,-68.44 3054.95,-65.98 3055.67,-72.94"/>
</g>
<!-- Node23&#45;&gt;Node19 -->
<g id="edge67" class="edge">
<title>Node23&#45;&gt;Node19</title>
<path fill="none" stroke="#63b8ff" d="M2503.75,-114.73C2316.47,-104.96 1817.03,-78.91 1631.07,-69.21"/>
<polygon fill="#63b8ff" stroke="#63b8ff" points="1631.49,-65.72 1621.32,-68.7 1631.13,-72.72 1631.49,-65.72"/>
</g>
<!-- Node23&#45;&gt;Node22 -->
<g id="edge51" class="edge">
<title>Node23&#45;&gt;Node22</title>
<path fill="none" stroke="#63b8ff" d="M2503.66,-112.9C2358.31,-101.66 2035.44,-76.68 1927.18,-68.3"/>
<polygon fill="#63b8ff" stroke="#63b8ff" points="1927.68,-64.83 1917.44,-67.55 1927.14,-71.81 1927.68,-64.83"/>
</g>
<!-- Node24&#45;&gt;Node4 -->
<g id="edge70" class="edge">
<title>Node24&#45;&gt;Node4</title>
<path fill="none" stroke="#63b8ff" d="M2652.86,-277.35C2715.85,-270.51 2815.36,-257.89 2900,-239 2981.64,-220.78 3001.19,-212.03 3080,-184 3141.04,-162.29 3160.29,-163.71 3215,-129 3235.52,-115.98 3255.58,-96.55 3268.73,-82.61"/>
<polygon fill="#63b8ff" stroke="#63b8ff" points="3271.09,-85.21 3275.28,-75.48 3265.94,-80.48 3271.09,-85.21"/>
</g>
<!-- Node24&#45;&gt;Node5 -->
<g id="edge71" class="edge">
<title>Node24&#45;&gt;Node5</title>
<path fill="none" stroke="#63b8ff" d="M2652.96,-282.71C2967.69,-278.11 4351.82,-249.9 4263,-110 4232.2,-61.49 4201.93,-68.16 4146,-55 3974.09,-14.56 2733.36,-28.27 2557,-19 2536.08,-17.9 2512.81,-16.04 2493.7,-14.33"/>
<polygon fill="#63b8ff" stroke="#63b8ff" points="2494.17,-10.86 2483.89,-13.44 2493.53,-17.83 2494.17,-10.86"/>
</g>
<!-- Node24&#45;&gt;Node6 -->
<g id="edge72" class="edge">
<title>Node24&#45;&gt;Node6</title>
<path fill="none" stroke="#63b8ff" d="M2527.15,-283.18C2216.37,-281.45 851.5,-272.01 665,-239 556.96,-219.88 513.03,-214.28 444,-129 421.34,-101.01 386.17,-81.08 411,-55 412.93,-52.98 1119.67,-19.93 1286.85,-12.14"/>
<polygon fill="#63b8ff" stroke="#63b8ff" points="1286.82,-15.64 1296.64,-11.68 1286.49,-8.65 1286.82,-15.64"/>
</g>
<!-- Node24&#45;&gt;Node7 -->
<g id="edge73" class="edge">
<title>Node24&#45;&gt;Node7</title>
<path fill="none" stroke="#63b8ff" d="M2527.1,-282.62C2337.46,-279.67 1773.23,-268.58 1592,-239 1444.82,-214.98 1387.39,-227.03 1275,-129 1261.14,-116.91 1250.64,-98.66 1244.05,-84.82"/>
<polygon fill="#63b8ff" stroke="#63b8ff" points="1247.32,-83.57 1240.06,-75.85 1240.93,-86.41 1247.32,-83.57"/>
</g>
<!-- Node24&#45;&gt;Node8 -->
<g id="edge74" class="edge">
<title>Node24&#45;&gt;Node8</title>
<path fill="none" stroke="#63b8ff" d="M2527.16,-283.33C2196.01,-282.28 660.63,-275.48 452,-239 376.69,-225.83 353.19,-225.53 289,-184 231.96,-147.1 160.57,-104.6 207,-55 229.52,-30.95 732.12,-14.83 854.38,-11.25"/>
<polygon fill="#63b8ff" stroke="#63b8ff" points="854.19,-14.76 864.08,-10.97 853.98,-7.76 854.19,-14.76"/>
</g>
<!-- Node24&#45;&gt;Node9 -->
<g id="edge75" class="edge">
<title>Node24&#45;&gt;Node9</title>
<path fill="none" stroke="#63b8ff" d="M2527.19,-283.38C2207.11,-282.58 764.86,-276.9 569,-239 398.18,-205.95 303.92,-222.95 214,-74 209.64,-66.77 208.18,-61.12 214,-55 217.7,-51.11 891.03,-19.95 1059.25,-12.23"/>
<polygon fill="#63b8ff" stroke="#63b8ff" points="1059.35,-15.73 1069.18,-11.77 1059.03,-8.74 1059.35,-15.73"/>
</g>
<!-- Node24&#45;&gt;Node10 -->
<g id="edge76" class="edge">
<title>Node24&#45;&gt;Node10</title>
<path fill="none" stroke="#63b8ff" d="M2652.94,-282.94C2957.31,-280.08 4263.22,-266.23 4295,-239 4313.87,-222.83 4302.77,-208.74 4305,-184 4310.25,-125.75 4327.31,-87.97 4279,-55 4207.63,-6.28 2810.33,-22.66 2724,-19 2687.65,-17.46 2645.97,-14.76 2618.01,-12.82"/>
<polygon fill="#63b8ff" stroke="#63b8ff" points="2618.29,-9.33 2608.07,-12.12 2617.8,-16.31 2618.29,-9.33"/>
</g>
<!-- Node24&#45;&gt;Node11 -->
<g id="edge77" class="edge">
<title>Node24&#45;&gt;Node11</title>
<path fill="none" stroke="#63b8ff" d="M2652.89,-283.13C2957.25,-281.17 4265.94,-270.94 4346,-239 4403.14,-216.21 4417.9,-189.31 4430,-129 4461.16,26.26 4389.28,-103.35 2966,-19 2946.18,-17.83 2924,-15.77 2906.49,-13.97"/>
<polygon fill="#63b8ff" stroke="#63b8ff" points="2907.03,-10.51 2896.72,-12.94 2906.29,-17.47 2907.03,-10.51"/>
</g>
<!-- Node24&#45;&gt;Node12 -->
<g id="edge78" class="edge">
<title>Node24&#45;&gt;Node12</title>
<path fill="none" stroke="#63b8ff" d="M2652.8,-283.25C2953.76,-281.88 4237.05,-274 4314,-239 4374.41,-211.52 4390.91,-190.85 4415,-129 4429.87,-90.82 4397.67,-71.13 4360,-55 4282.66,-21.88 2929.99,-23.92 2846,-19 2826.95,-17.89 2805.72,-15.94 2788.56,-14.2"/>
<polygon fill="#63b8ff" stroke="#63b8ff" points="2789.22,-10.75 2778.91,-13.19 2788.49,-17.71 2789.22,-10.75"/>
</g>
<!-- Node24&#45;&gt;Node13 -->
<g id="edge79" class="edge">
<title>Node24&#45;&gt;Node13</title>
<path fill="none" stroke="#63b8ff" d="M2574.88,-274.68C2517.43,-241.2 2312.44,-121.71 2240.87,-80"/>
<polygon fill="#63b8ff" stroke="#63b8ff" points="2243.02,-77.2 2232.62,-75.19 2239.5,-83.25 2243.02,-77.2"/>
</g>
<!-- Node24&#45;&gt;Node14 -->
<g id="edge80" class="edge">
<title>Node24&#45;&gt;Node14</title>
<path fill="none" stroke="#63b8ff" d="M2652.77,-283.18C2960.3,-281.46 4296.58,-272.11 4378,-239 4477.93,-198.37 4512.84,-172.86 4556,-74 4559.38,-66.26 4561.89,-61.06 4556,-55 4528.77,-26.98 3278.94,-13.24 3040.92,-10.87"/>
<polygon fill="#63b8ff" stroke="#63b8ff" points="3040.99,-7.37 3030.95,-10.77 3040.92,-14.37 3040.99,-7.37"/>
</g>
<!-- Node24&#45;&gt;Node15 -->
<g id="edge81" class="edge">
<title>Node24&#45;&gt;Node15</title>
<path fill="none" stroke="#63b8ff" d="M2652.74,-278.66C2725.12,-272.41 2847.45,-259.79 2951,-239 3128.41,-203.39 3173.81,-193.16 3343,-129 3380.59,-114.74 3422.05,-93.68 3448.05,-79.78"/>
<polygon fill="#63b8ff" stroke="#63b8ff" points="3449.4,-83.03 3456.54,-75.2 3446.08,-76.87 3449.4,-83.03"/>
</g>
<!-- Node24&#45;&gt;Node16 -->
<g id="edge82" class="edge">
<title>Node24&#45;&gt;Node16</title>
<path fill="none" stroke="#63b8ff" d="M2527.35,-283.85C2262.35,-285.03 1232.54,-286.4 912,-239 683.43,-205.2 550.47,-264.01 419,-74 414.2,-67.06 413.14,-61.08 419,-55 455.04,-17.54 1302.12,-22.22 1354,-19 1372.98,-17.82 1393.96,-16.08 1411.71,-14.48"/>
<polygon fill="#63b8ff" stroke="#63b8ff" points="1411.99,-17.97 1421.63,-13.57 1411.35,-11 1411.99,-17.97"/>
</g>
<!-- Node24&#45;&gt;Node17 -->
<g id="edge83" class="edge">
<title>Node24&#45;&gt;Node17</title>
<path fill="none" stroke="#63b8ff" d="M2527.15,-282.57C2209.1,-277.56 789.57,-251.45 727,-184 682.05,-135.54 739.52,-79.26 801,-55 861.93,-30.96 1870.11,-14.25 2077.77,-11.06"/>
<polygon fill="#63b8ff" stroke="#63b8ff" points="2077.76,-14.56 2087.7,-10.91 2077.65,-7.56 2077.76,-14.56"/>
</g>
<!-- Node24&#45;&gt;Node18 -->
<g id="edge84" class="edge">
<title>Node24&#45;&gt;Node18</title>
<path fill="none" stroke="#63b8ff" d="M2643.1,-274.51C2757.97,-254.72 3021.97,-207.32 3056,-184 3080.1,-167.48 3083.21,-156.86 3092,-129 3096.43,-114.96 3096.78,-98.29 3096.11,-85.56"/>
<polygon fill="#63b8ff" stroke="#63b8ff" points="3099.62,-85.57 3095.32,-75.89 3092.64,-86.14 3099.62,-85.57"/>
</g>
<!-- Node24&#45;&gt;Node19 -->
<g id="edge85" class="edge">
<title>Node24&#45;&gt;Node19</title>
<path fill="none" stroke="#63b8ff" d="M2527.15,-280.82C2422.15,-275.85 2204.6,-263.39 2022,-239 1780.52,-206.74 1637.4,-319.07 1485,-129 1468.89,-108.91 1497.86,-90.43 1524.34,-78.65"/>
<polygon fill="#63b8ff" stroke="#63b8ff" points="1525.39,-82.01 1533.25,-74.91 1522.68,-75.55 1525.39,-82.01"/>
</g>
<!-- Node24&#45;&gt;Node21 -->
<g id="edge86" class="edge">
<title>Node24&#45;&gt;Node21</title>
<path fill="none" stroke="#63b8ff" d="M2527.03,-278.59C2394.46,-267.57 2077.3,-237.52 1816,-184 1746.11,-169.69 1666.22,-146.78 1619.62,-132.75"/>
<polygon fill="#63b8ff" stroke="#63b8ff" points="1620.83,-129.46 1610.24,-129.91 1618.8,-136.16 1620.83,-129.46"/>
</g>
<!-- Node24&#45;&gt;Node22 -->
<g id="edge69" class="edge">
<title>Node24&#45;&gt;Node22</title>
<path fill="none" stroke="#63b8ff" d="M2527.23,-276.37C2456.39,-268.15 2337.75,-253.84 2236,-239 2217.55,-236.31 1919.04,-196.26 1905,-184 1877.39,-159.89 1881.26,-112.48 1886.28,-85.51"/>
<polygon fill="#63b8ff" stroke="#63b8ff" points="1889.67,-86.4 1888.32,-75.89 1882.83,-84.95 1889.67,-86.4"/>
</g>
<!-- Node24&#45;&gt;Node23 -->
<g id="edge87" class="edge">
<title>Node24&#45;&gt;Node23</title>
<path fill="none" stroke="#63b8ff" d="M2593.6,-274.82C2597.06,-265.99 2602.03,-251.81 2604,-239 2608.99,-206.49 2613.11,-196.6 2604,-165 2601.26,-155.49 2595.81,-146.05 2590.45,-138.32"/>
<polygon fill="#63b8ff" stroke="#63b8ff" points="2593.38,-136.41 2584.58,-130.51 2587.79,-140.61 2593.38,-136.41"/>
</g>
<!-- Node25 -->
<g id="node25" class="node">
<title>Node25</title>
<g id="a_node25"><a xlink:href="Iotm__TextMeshSidesetSplitter_8h.html" target="_top" xlink:title=" ">
<polygon fill="white" stroke="#666666" points="3771.5,-184 3616.5,-184 3616.5,-165 3771.5,-165 3771.5,-184"/>
<text text-anchor="middle" x="3694" y="-172" font-family="Helvetica,sans-Serif" font-size="10.00">Iotm_TextMeshSidesetSplitter.h</text>
</a>
</g>
</g>
<!-- Node24&#45;&gt;Node25 -->
<g id="edge88" class="edge">
<title>Node24&#45;&gt;Node25</title>
<path fill="none" stroke="#63b8ff" d="M2652.67,-283.95C2839.54,-284.77 3390.66,-283.26 3564,-239 3603.82,-228.83 3645.85,-205.72 3670.99,-190.37"/>
<polygon fill="#63b8ff" stroke="#63b8ff" points="3672.76,-193.38 3679.39,-185.12 3669.06,-187.45 3672.76,-193.38"/>
</g>
<!-- Node26 -->
<g id="node26" class="node">
<title>Node26</title>
<g id="a_node26"><a xlink:href="Iotm__TextMeshSidesetSkinner_8h.html" target="_top" xlink:title=" ">
<polygon fill="white" stroke="#666666" points="2403,-239 2245,-239 2245,-220 2403,-220 2403,-239"/>
<text text-anchor="middle" x="2324" y="-227" font-family="Helvetica,sans-Serif" font-size="10.00">Iotm_TextMeshSidesetSkinner.h</text>
</a>
</g>
</g>
<!-- Node24&#45;&gt;Node26 -->
<g id="edge108" class="edge">
<title>Node24&#45;&gt;Node26</title>
<path fill="none" stroke="#63b8ff" d="M2544.88,-274.51C2499.36,-265.44 2428.99,-251.42 2379.95,-241.65"/>
<polygon fill="#63b8ff" stroke="#63b8ff" points="2380.88,-238.26 2370.38,-239.74 2379.51,-245.13 2380.88,-238.26"/>
</g>
<!-- Node25&#45;&gt;Node4 -->
<g id="edge90" class="edge">
<title>Node25&#45;&gt;Node4</title>
<path fill="none" stroke="#63b8ff" d="M3660.1,-164.57C3584.03,-144.53 3400.22,-96.12 3321.17,-75.29"/>
<polygon fill="#63b8ff" stroke="#63b8ff" points="3322.32,-71.97 3311.75,-72.81 3320.53,-78.74 3322.32,-71.97"/>
</g>
<!-- Node25&#45;&gt;Node5 -->
<g id="edge91" class="edge">
<title>Node25&#45;&gt;Node5</title>
<path fill="none" stroke="#63b8ff" d="M3771.69,-170.29C3836.72,-165.77 3922.27,-154.94 3944,-129 3965.12,-103.79 3966.95,-78.56 3944,-55 3917.1,-27.4 2595.48,-21.09 2557,-19 2536.08,-17.87 2512.82,-16 2493.7,-14.3"/>
<polygon fill="#63b8ff" stroke="#63b8ff" points="2494.17,-10.83 2483.9,-13.41 2493.54,-17.8 2494.17,-10.83"/>
</g>
<!-- Node25&#45;&gt;Node6 -->
<g id="edge92" class="edge">
<title>Node25&#45;&gt;Node6</title>
<path fill="none" stroke="#63b8ff" d="M3739.08,-164.56C3758.86,-158.16 3780.21,-147.3 3792,-129 3823.01,-80.85 3760.96,-69.95 3716,-55 3594.63,-14.64 1541.72,-25.89 1414,-19 1395.13,-17.98 1374.14,-16.1 1356.99,-14.37"/>
<polygon fill="#63b8ff" stroke="#63b8ff" points="1357.6,-10.91 1347.3,-13.36 1356.88,-17.87 1357.6,-10.91"/>
</g>
<!-- Node25&#45;&gt;Node7 -->
<g id="edge93" class="edge">
<title>Node25&#45;&gt;Node7</title>
<path fill="none" stroke="#63b8ff" d="M3616.16,-173.12C3373.65,-171.6 2610.2,-164.13 1979,-129 1700.42,-113.5 1364.32,-79.09 1264.97,-68.6"/>
<polygon fill="#63b8ff" stroke="#63b8ff" points="1265.62,-65.15 1255.3,-67.57 1264.88,-72.11 1265.62,-65.15"/>
</g>
<!-- Node25&#45;&gt;Node8 -->
<g id="edge94" class="edge">
<title>Node25&#45;&gt;Node8</title>
<path fill="none" stroke="#63b8ff" d="M3687.05,-164.72C3676.21,-151.49 3654.12,-126.26 3631,-110 3583.67,-76.72 3569.4,-67.93 3513,-55 3380.26,-24.56 1198.12,-23.19 1062,-19 1007.15,-17.31 943.01,-13.98 907.71,-12.02"/>
<polygon fill="#63b8ff" stroke="#63b8ff" points="908.18,-8.54 898,-11.48 907.79,-15.53 908.18,-8.54"/>
</g>
<!-- Node25&#45;&gt;Node9 -->
<g id="edge95" class="edge">
<title>Node25&#45;&gt;Node9</title>
<path fill="none" stroke="#63b8ff" d="M3696.14,-164.63C3700.94,-142.24 3709.83,-83.25 3678,-55 3628.36,-10.95 1355.34,-20.97 1289,-19 1235.47,-17.41 1173.58,-14.47 1134.87,-12.5"/>
<polygon fill="#63b8ff" stroke="#63b8ff" points="1135.07,-9.01 1124.9,-11.99 1134.71,-16 1135.07,-9.01"/>
</g>
<!-- Node25&#45;&gt;Node10 -->
<g id="edge96" class="edge">
<title>Node25&#45;&gt;Node10</title>
<path fill="none" stroke="#63b8ff" d="M3771.84,-168.19C3863.06,-161.15 4003.9,-147.45 4020,-129 4041.63,-104.22 4042.93,-78.58 4020,-55 3994.89,-29.18 2759.98,-20.61 2724,-19 2687.65,-17.38 2645.97,-14.7 2618.01,-12.78"/>
<polygon fill="#63b8ff" stroke="#63b8ff" points="2618.29,-9.29 2608.07,-12.09 2617.81,-16.27 2618.29,-9.29"/>
</g>
<!-- Node25&#45;&gt;Node11 -->
<g id="edge97" class="edge">
<title>Node25&#45;&gt;Node11</title>
<path fill="none" stroke="#63b8ff" d="M3771.63,-169.62C3871.4,-163.83 4038.6,-151.15 4096,-129 4115.45,-121.49 4162.52,-92.57 4172,-74 4175.84,-66.48 4177.88,-61.06 4172,-55 4125.32,-6.9 3032.9,-23.12 2966,-19 2946.18,-17.78 2924,-15.72 2906.5,-13.94"/>
<polygon fill="#63b8ff" stroke="#63b8ff" points="2907.03,-10.47 2896.72,-12.92 2906.3,-17.44 2907.03,-10.47"/>
</g>
<!-- Node25&#45;&gt;Node12 -->
<g id="edge98" class="edge">
<title>Node25&#45;&gt;Node12</title>
<path fill="none" stroke="#63b8ff" d="M3771.78,-168.56C3862.79,-161.99 4007.48,-148.83 4058,-129 4077.41,-121.38 4124.52,-92.57 4134,-74 4137.84,-66.48 4139.89,-61.05 4134,-55 4109.05,-29.34 2881.73,-21.17 2846,-19 2826.95,-17.85 2805.72,-15.9 2788.56,-14.16"/>
<polygon fill="#63b8ff" stroke="#63b8ff" points="2789.22,-10.71 2778.91,-13.16 2788.5,-17.67 2789.22,-10.71"/>
</g>
<!-- Node25&#45;&gt;Node13 -->
<g id="edge99" class="edge">
<title>Node25&#45;&gt;Node13</title>
<path fill="none" stroke="#63b8ff" d="M3616.07,-172.57C3386.09,-169.53 2712.8,-158.31 2495,-129 2458.35,-124.07 2450.04,-118.28 2414,-110 2364.2,-98.56 2307.28,-85.8 2267.29,-76.89"/>
<polygon fill="#63b8ff" stroke="#63b8ff" points="2268.22,-73.51 2257.7,-74.75 2266.7,-80.34 2268.22,-73.51"/>
</g>
<!-- Node25&#45;&gt;Node14 -->
<g id="edge100" class="edge">
<title>Node25&#45;&gt;Node14</title>
<path fill="none" stroke="#63b8ff" d="M3771.61,-166.67C3859.6,-158.68 4007.31,-144.57 4134,-129 4304.78,-108.02 4633.86,-178.44 4514,-55 4487.55,-27.76 3274.04,-13.41 3040.61,-10.9"/>
<polygon fill="#63b8ff" stroke="#63b8ff" points="3040.89,-7.4 3030.85,-10.8 3040.81,-14.4 3040.89,-7.4"/>
</g>
<!-- Node25&#45;&gt;Node15 -->
<g id="edge101" class="edge">
<title>Node25&#45;&gt;Node15</title>
<path fill="none" stroke="#63b8ff" d="M3683.28,-164.65C3666.71,-151.33 3633.5,-125.98 3602,-110 3574.03,-95.82 3540.49,-84.34 3514.76,-76.6"/>
<polygon fill="#63b8ff" stroke="#63b8ff" points="3515.93,-73.29 3505.35,-73.83 3513.96,-80.01 3515.93,-73.29"/>
</g>
<!-- Node25&#45;&gt;Node16 -->
<g id="edge102" class="edge">
<title>Node25&#45;&gt;Node16</title>
<path fill="none" stroke="#63b8ff" d="M3771.16,-164.52C3809.82,-156.19 3845.47,-140.28 3830,-110 3811.04,-72.87 3793.56,-68.17 3754,-55 3636.54,-15.91 1649.52,-27.17 1526,-19 1515.64,-18.31 1504.49,-17.21 1494.1,-16.01"/>
<polygon fill="#63b8ff" stroke="#63b8ff" points="1494.62,-12.55 1484.28,-14.83 1493.78,-19.5 1494.62,-12.55"/>
</g>
<!-- Node25&#45;&gt;Node17 -->
<g id="edge103" class="edge">
<title>Node25&#45;&gt;Node17</title>
<path fill="none" stroke="#63b8ff" d="M3771.77,-165.71C3803.77,-159.57 3839.85,-148.6 3868,-129 3898.34,-107.87 3931.83,-81.46 3906,-55 3877.1,-25.39 2458.36,-20.08 2417,-19 2321.54,-16.5 2209.13,-13.26 2152.15,-11.59"/>
<polygon fill="#63b8ff" stroke="#63b8ff" points="2152.46,-8.1 2142.37,-11.31 2152.26,-15.1 2152.46,-8.1"/>
</g>
<!-- Node25&#45;&gt;Node18 -->
<g id="edge104" class="edge">
<title>Node25&#45;&gt;Node18</title>
<path fill="none" stroke="#63b8ff" d="M3620.79,-164.52C3557.82,-156.44 3464.65,-143.6 3384,-129 3293.33,-112.59 3187.86,-88.13 3132.49,-74.87"/>
<polygon fill="#63b8ff" stroke="#63b8ff" points="3133.47,-71.5 3122.93,-72.57 3131.83,-78.31 3133.47,-71.5"/>
</g>
<!-- Node25&#45;&gt;Node19 -->
<g id="edge105" class="edge">
<title>Node25&#45;&gt;Node19</title>
<path fill="none" stroke="#63b8ff" d="M3616.01,-172.95C3396.22,-171.01 2753.06,-162.65 2220,-129 2005.2,-115.44 1752.11,-87.82 1631.23,-73.9"/>
<polygon fill="#63b8ff" stroke="#63b8ff" points="1631.79,-70.45 1621.46,-72.77 1630.99,-77.4 1631.79,-70.45"/>
</g>
<!-- Node25&#45;&gt;Node21 -->
<g id="edge106" class="edge">
<title>Node25&#45;&gt;Node21</title>
<path fill="none" stroke="#63b8ff" d="M3616.25,-172.58C3352.77,-169.26 2469.45,-156.68 1740,-129 1714.57,-128.04 1686.88,-126.67 1661.8,-125.32"/>
<polygon fill="#63b8ff" stroke="#63b8ff" points="1662.16,-121.84 1651.98,-124.79 1661.78,-128.83 1662.16,-121.84"/>
</g>
<!-- Node25&#45;&gt;Node22 -->
<g id="edge89" class="edge">
<title>Node25&#45;&gt;Node22</title>
<path fill="none" stroke="#63b8ff" d="M3616.07,-173.16C3415.67,-171.78 2866.13,-164.74 2410,-129 2227.81,-114.72 2011.21,-83.63 1926.99,-71"/>
<polygon fill="#63b8ff" stroke="#63b8ff" points="1927.68,-67.56 1917.27,-69.54 1926.63,-74.49 1927.68,-67.56"/>
</g>
<!-- Node25&#45;&gt;Node23 -->
<g id="edge107" class="edge">
<title>Node25&#45;&gt;Node23</title>
<path fill="none" stroke="#63b8ff" d="M3616.27,-169.82C3413.39,-160.2 2869.07,-134.39 2659.68,-124.47"/>
<polygon fill="#63b8ff" stroke="#63b8ff" points="2660.13,-120.98 2649.98,-124.01 2659.8,-127.98 2660.13,-120.98"/>
</g>
<!-- Node26&#45;&gt;Node4 -->
<g id="edge110" class="edge">
<title>Node26&#45;&gt;Node4</title>
<path fill="none" stroke="#63b8ff" d="M2403.46,-227.83C2566.81,-225.77 2935.14,-217.45 3056,-184 3137.3,-161.5 3222.9,-107.58 3262.08,-80.94"/>
<polygon fill="#63b8ff" stroke="#63b8ff" points="3263.95,-83.9 3270.19,-75.35 3259.97,-78.14 3263.95,-83.9"/>
</g>
<!-- Node26&#45;&gt;Node5 -->
<g id="edge111" class="edge">
<title>Node26&#45;&gt;Node5</title>
<path fill="none" stroke="#63b8ff" d="M2324.1,-219.87C2324.85,-192.61 2330.57,-107.11 2372,-55 2383.14,-40.99 2399.94,-30.78 2415.44,-23.71"/>
<polygon fill="#63b8ff" stroke="#63b8ff" points="2416.63,-27 2424.48,-19.89 2413.91,-20.56 2416.63,-27"/>
</g>
<!-- Node26&#45;&gt;Node6 -->
<g id="edge112" class="edge">
<title>Node26&#45;&gt;Node6</title>
<path fill="none" stroke="#63b8ff" d="M2244.75,-228.84C1948.87,-229.75 918.58,-229.57 779,-184 737.98,-170.61 719.09,-167.19 699,-129 680.81,-94.42 739.51,-56.84 743,-55 767.15,-42.23 1165.59,-19.18 1287.1,-12.41"/>
<polygon fill="#63b8ff" stroke="#63b8ff" points="1286.99,-15.93 1296.78,-11.88 1286.6,-8.94 1286.99,-15.93"/>
</g>
<!-- Node26&#45;&gt;Node7 -->
<g id="edge113" class="edge">
<title>Node26&#45;&gt;Node7</title>
<path fill="none" stroke="#63b8ff" d="M2244.74,-226.88C2110.96,-223.42 1832.02,-213.1 1598,-184 1466.95,-167.71 1424.25,-187.8 1306,-129 1283.58,-117.85 1263.02,-97.44 1250.07,-82.76"/>
<polygon fill="#63b8ff" stroke="#63b8ff" points="1252.83,-80.61 1243.69,-75.25 1247.5,-85.14 1252.83,-80.61"/>
</g>
<!-- Node26&#45;&gt;Node8 -->
<g id="edge114" class="edge">
<title>Node26&#45;&gt;Node8</title>
<path fill="none" stroke="#63b8ff" d="M2244.56,-228.78C1907.01,-229.69 600.84,-230.16 423,-184 321.4,-157.63 268.25,-163.86 214,-74 209.64,-66.77 208.23,-61.17 214,-55 236.25,-31.21 732.66,-14.92 854.29,-11.27"/>
<polygon fill="#63b8ff" stroke="#63b8ff" points="854.35,-14.77 864.24,-10.98 854.14,-7.78 854.35,-14.77"/>
</g>
<!-- Node26&#45;&gt;Node9 -->
<g id="edge115" class="edge">
<title>Node26&#45;&gt;Node9</title>
<path fill="none" stroke="#63b8ff" d="M2244.88,-228.41C1965.41,-227.76 1025.44,-222.68 727,-184 536.92,-159.37 424.26,-227.89 310,-74 304.97,-67.22 304.2,-61.14 310,-55 316.52,-48.1 903.39,-19.71 1059.32,-12.28"/>
<polygon fill="#63b8ff" stroke="#63b8ff" points="1059.27,-15.79 1069.1,-11.82 1058.94,-8.8 1059.27,-15.79"/>
</g>
<!-- Node26&#45;&gt;Node10 -->
<g id="edge116" class="edge">
<title>Node26&#45;&gt;Node10</title>
<path fill="none" stroke="#63b8ff" d="M2334.6,-219.68C2374.34,-186.61 2514.93,-69.64 2566.69,-26.57"/>
<polygon fill="#63b8ff" stroke="#63b8ff" points="2568.66,-29.48 2574.11,-20.39 2564.18,-24.1 2568.66,-29.48"/>
</g>
<!-- Node26&#45;&gt;Node11 -->
<g id="edge117" class="edge">
<title>Node26&#45;&gt;Node11</title>
<path fill="none" stroke="#63b8ff" d="M2403.5,-222.25C2456.18,-216.36 2526.16,-205.12 2585,-184 2695.12,-144.48 2809.65,-61.25 2854.9,-26.39"/>
<polygon fill="#63b8ff" stroke="#63b8ff" points="2857.01,-29.18 2862.75,-20.28 2852.71,-23.66 2857.01,-29.18"/>
</g>
<!-- Node26&#45;&gt;Node12 -->
<g id="edge118" class="edge">
<title>Node26&#45;&gt;Node12</title>
<path fill="none" stroke="#63b8ff" d="M2403.3,-219.97C2475.27,-208.92 2581.4,-184.06 2657,-129 2695.52,-100.94 2727.97,-54.4 2744.08,-28.79"/>
<polygon fill="#63b8ff" stroke="#63b8ff" points="2746.92,-30.86 2749.17,-20.5 2740.96,-27.2 2746.92,-30.86"/>
</g>
<!-- Node26&#45;&gt;Node13 -->
<g id="edge119" class="edge">
<title>Node26&#45;&gt;Node13</title>
<path fill="none" stroke="#63b8ff" d="M2310.65,-219.54C2299.24,-211.35 2282.96,-198.35 2272,-184 2248.13,-152.75 2230.97,-109.69 2222.34,-85.01"/>
<polygon fill="#63b8ff" stroke="#63b8ff" points="2225.69,-84.01 2219.18,-75.65 2219.06,-86.25 2225.69,-84.01"/>
</g>
<!-- Node26&#45;&gt;Node14 -->
<g id="edge120" class="edge">
<title>Node26&#45;&gt;Node14</title>
<path fill="none" stroke="#63b8ff" d="M2403.19,-222.6C2463.56,-216.66 2548.25,-205.24 2620,-184 2761,-142.26 2917.17,-58.46 2976.9,-24.89"/>
<polygon fill="#63b8ff" stroke="#63b8ff" points="2978.3,-28.12 2985.28,-20.15 2974.85,-22.03 2978.3,-28.12"/>
</g>
<!-- Node26&#45;&gt;Node15 -->
<g id="edge121" class="edge">
<title>Node26&#45;&gt;Node15</title>
<path fill="none" stroke="#63b8ff" d="M2403.4,-226.39C2572.64,-221.48 2964.09,-207.87 3095,-184 3227.07,-159.92 3377.52,-103.91 3441.96,-78.47"/>
<polygon fill="#63b8ff" stroke="#63b8ff" points="3442.86,-81.89 3450.86,-74.94 3440.27,-75.38 3442.86,-81.89"/>
</g>
<!-- Node26&#45;&gt;Node16 -->
<g id="edge122" class="edge">
<title>Node26&#45;&gt;Node16</title>
<path fill="none" stroke="#63b8ff" d="M2244.85,-228.39C2051.53,-227.51 1559.45,-221.56 1400,-184 1304.65,-161.54 1250.55,-162.71 1209,-74 1205.42,-66.35 1203.59,-61.48 1209,-55 1221.88,-39.56 1345.86,-22.96 1411.96,-15.11"/>
<polygon fill="#63b8ff" stroke="#63b8ff" points="1412.18,-18.61 1421.7,-13.97 1411.36,-11.66 1412.18,-18.61"/>
</g>
<!-- Node26&#45;&gt;Node17 -->
<g id="edge123" class="edge">
<title>Node26&#45;&gt;Node17</title>
<path fill="none" stroke="#63b8ff" d="M2323.84,-219.83C2322.83,-191.72 2315.75,-102.19 2267,-55 2236.16,-25.15 2186.42,-15.16 2152.29,-11.9"/>
<polygon fill="#63b8ff" stroke="#63b8ff" points="2152.68,-8.42 2142.43,-11.13 2152.13,-15.4 2152.68,-8.42"/>
</g>
<!-- Node26&#45;&gt;Node18 -->
<g id="edge124" class="edge">
<title>Node26&#45;&gt;Node18</title>
<path fill="none" stroke="#63b8ff" d="M2403.4,-227.86C2577.27,-225.83 2980.35,-217.53 3032,-184 3066.79,-161.42 3083.22,-112.65 3089.97,-85.24"/>
<polygon fill="#63b8ff" stroke="#63b8ff" points="3093.31,-86.32 3092.09,-75.79 3086.48,-84.78 3093.31,-86.32"/>
</g>
<!-- Node26&#45;&gt;Node19 -->
<g id="edge125" class="edge">
<title>Node26&#45;&gt;Node19</title>
<path fill="none" stroke="#63b8ff" d="M2244.58,-225.09C2046.04,-215.72 1540.57,-186.41 1493,-129 1477.59,-110.4 1503.54,-91.7 1527.5,-79.45"/>
<polygon fill="#63b8ff" stroke="#63b8ff" points="1529,-82.61 1536.5,-75.12 1525.97,-76.31 1529,-82.61"/>
</g>
<!-- Node26&#45;&gt;Node21 -->
<g id="edge126" class="edge">
<title>Node26&#45;&gt;Node21</title>
<path fill="none" stroke="#63b8ff" d="M2244.87,-222.69C2158.02,-215.77 2014.6,-202.74 1892,-184 1798.12,-169.65 1689.72,-145.96 1628.58,-131.93"/>
<polygon fill="#63b8ff" stroke="#63b8ff" points="1629.73,-128.6 1619.2,-129.77 1628.16,-135.42 1629.73,-128.6"/>
</g>
<!-- Node26&#45;&gt;Node22 -->
<g id="edge109" class="edge">
<title>Node26&#45;&gt;Node22</title>
<path fill="none" stroke="#63b8ff" d="M2244.77,-220.78C2130.17,-209.45 1931.06,-189.12 1925,-184 1896.19,-159.67 1890.93,-112.71 1890.45,-85.79"/>
<polygon fill="#63b8ff" stroke="#63b8ff" points="1893.95,-85.9 1890.51,-75.88 1886.95,-85.86 1893.95,-85.9"/>
</g>
<!-- Node26&#45;&gt;Node23 -->
<g id="edge127" class="edge">
<title>Node26&#45;&gt;Node23</title>
<path fill="none" stroke="#63b8ff" d="M2377,-219.56C2410.51,-212.65 2454.12,-201.29 2490,-184 2515.82,-171.56 2541.78,-151.03 2558.32,-136.69"/>
<polygon fill="#63b8ff" stroke="#63b8ff" points="2560.18,-139.71 2565.34,-130.45 2555.54,-134.47 2560.18,-139.71"/>
</g>
<!-- Node27 -->
<g id="node27" class="node">
<title>Node27</title>
<g id="a_node27"><a xlink:href="Iotm__TextMeshAdjacencyGraph_8h.html" target="_top" xlink:title=" ">
<polygon fill="white" stroke="#666666" points="2098,-184 1934,-184 1934,-165 2098,-165 2098,-184"/>
<text text-anchor="middle" x="2016" y="-172" font-family="Helvetica,sans-Serif" font-size="10.00">Iotm_TextMeshAdjacencyGraph.h</text>
</a>
</g>
</g>
<!-- Node26&#45;&gt;Node27 -->
<g id="edge128" class="edge">
<title>Node26&#45;&gt;Node27</title>
<path fill="none" stroke="#63b8ff" d="M2271.75,-219.51C2218.57,-210.36 2136.1,-196.17 2079.26,-186.39"/>
<polygon fill="#63b8ff" stroke="#63b8ff" points="2080.19,-182.99 2069.74,-184.75 2079,-189.89 2080.19,-182.99"/>
</g>
<!-- Node27&#45;&gt;Node4 -->
<g id="edge130" class="edge">
<title>Node27&#45;&gt;Node4</title>
<path fill="none" stroke="#63b8ff" d="M2098.25,-170.31C2236.41,-164.57 2523.73,-151.01 2766,-129 2946.54,-112.59 3161.31,-83.04 3246.5,-70.92"/>
<polygon fill="#63b8ff" stroke="#63b8ff" points="3246.75,-74.42 3256.15,-69.54 3245.75,-67.49 3246.75,-74.42"/>
</g>
<!-- Node27&#45;&gt;Node5 -->
<g id="edge131" class="edge">
<title>Node27&#45;&gt;Node5</title>
<path fill="none" stroke="#63b8ff" d="M2011.43,-164.68C2000.86,-142.93 1977.73,-86.22 2006,-55 2033.19,-24.98 2310.01,-14.4 2414.43,-11.46"/>
<polygon fill="#63b8ff" stroke="#63b8ff" points="2414.29,-14.97 2424.19,-11.19 2414.1,-7.97 2414.29,-14.97"/>
</g>
<!-- Node27&#45;&gt;Node6 -->
<g id="edge132" class="edge">
<title>Node27&#45;&gt;Node6</title>
<path fill="none" stroke="#63b8ff" d="M1933.72,-172.52C1803.09,-170 1554.68,-161.02 1473,-129 1415.83,-106.59 1362.72,-55.04 1337.45,-27.92"/>
<polygon fill="#63b8ff" stroke="#63b8ff" points="1340.06,-25.58 1330.74,-20.55 1334.89,-30.29 1340.06,-25.58"/>
</g>
<!-- Node27&#45;&gt;Node7 -->
<g id="edge133" class="edge">
<title>Node27&#45;&gt;Node7</title>
<path fill="none" stroke="#63b8ff" d="M1933.68,-172.31C1781.17,-169.38 1460.54,-159.68 1354,-129 1317.94,-118.62 1280.48,-96.11 1257.69,-80.88"/>
<polygon fill="#63b8ff" stroke="#63b8ff" points="1259.79,-78.07 1249.57,-75.32 1255.84,-83.85 1259.79,-78.07"/>
</g>
<!-- Node27&#45;&gt;Node8 -->
<g id="edge134" class="edge">
<title>Node27&#45;&gt;Node8</title>
<path fill="none" stroke="#63b8ff" d="M1933.69,-171.28C1764.4,-166.3 1382.35,-152.75 1254,-129 1119.68,-104.15 966.29,-45.25 906.62,-21.1"/>
<polygon fill="#63b8ff" stroke="#63b8ff" points="908.26,-17.99 897.68,-17.46 905.62,-24.47 908.26,-17.99"/>
</g>
<!-- Node27&#45;&gt;Node9 -->
<g id="edge135" class="edge">
<title>Node27&#45;&gt;Node9</title>
<path fill="none" stroke="#63b8ff" d="M1933.62,-172.97C1772.51,-171.17 1421.34,-163.32 1306,-129 1230.72,-106.6 1153.11,-53.04 1117.33,-26.28"/>
<polygon fill="#63b8ff" stroke="#63b8ff" points="1119.67,-23.66 1109.58,-20.41 1115.43,-29.24 1119.67,-23.66"/>
</g>
<!-- Node27&#45;&gt;Node10 -->
<g id="edge136" class="edge">
<title>Node27&#45;&gt;Node10</title>
<path fill="none" stroke="#63b8ff" d="M2014.98,-164.63C2012.95,-142.24 2011.12,-83.23 2044,-55 2081.8,-22.54 2441.35,-23.22 2491,-19 2511.98,-17.22 2535.55,-15.11 2553.97,-13.44"/>
<polygon fill="#63b8ff" stroke="#63b8ff" points="2554.1,-16.94 2563.74,-12.55 2553.47,-9.97 2554.1,-16.94"/>
</g>
<!-- Node27&#45;&gt;Node11 -->
<g id="edge137" class="edge">
<title>Node27&#45;&gt;Node11</title>
<path fill="none" stroke="#63b8ff" d="M2023.54,-164.73C2046.9,-137.57 2116.72,-56.59 2120,-55 2186.66,-22.62 2712.1,-24.52 2786,-19 2805.12,-17.57 2826.5,-15.54 2843.52,-13.83"/>
<polygon fill="#63b8ff" stroke="#63b8ff" points="2843.42,-17.35 2853.01,-12.85 2842.71,-10.39 2843.42,-17.35"/>
</g>
<!-- Node27&#45;&gt;Node12 -->
<g id="edge138" class="edge">
<title>Node27&#45;&gt;Node12</title>
<path fill="none" stroke="#63b8ff" d="M2019.6,-164.68C2030.08,-139.49 2061.11,-68.22 2082,-55 2085.42,-52.83 2585.94,-21.15 2721.48,-12.61"/>
<polygon fill="#63b8ff" stroke="#63b8ff" points="2721.46,-16.12 2731.22,-12 2721.02,-9.13 2721.46,-16.12"/>
</g>
<!-- Node27&#45;&gt;Node13 -->
<g id="edge139" class="edge">
<title>Node27&#45;&gt;Node13</title>
<path fill="none" stroke="#63b8ff" d="M2056.91,-164.52C2084.01,-157.45 2119.66,-145.92 2148,-129 2168.93,-116.5 2188.82,-96.67 2201.62,-82.49"/>
<polygon fill="#63b8ff" stroke="#63b8ff" points="2203.99,-85.1 2207.95,-75.27 2198.73,-80.48 2203.99,-85.1"/>
</g>
<!-- Node27&#45;&gt;Node14 -->
<g id="edge140" class="edge">
<title>Node27&#45;&gt;Node14</title>
<path fill="none" stroke="#63b8ff" d="M2028.09,-164.81C2040.3,-155.96 2059.65,-141.77 2076,-129 2116.81,-97.12 2117.69,-73.65 2166,-55 2242.59,-25.43 2822.09,-24.55 2904,-19 2923.57,-17.67 2945.3,-15.83 2963.32,-14.19"/>
<polygon fill="#63b8ff" stroke="#63b8ff" points="2963.42,-17.7 2973.06,-13.3 2962.78,-10.73 2963.42,-17.7"/>
</g>
<!-- Node27&#45;&gt;Node15 -->
<g id="edge141" class="edge">
<title>Node27&#45;&gt;Node15</title>
<path fill="none" stroke="#63b8ff" d="M2098.48,-171.88C2323.22,-167.2 2943.05,-152.5 3146,-129 3250.47,-116.9 3371.49,-90.09 3433.21,-75.47"/>
<polygon fill="#63b8ff" stroke="#63b8ff" points="3434,-78.88 3442.92,-73.16 3432.38,-72.07 3434,-78.88"/>
</g>
<!-- Node27&#45;&gt;Node16 -->
<g id="edge142" class="edge">
<title>Node27&#45;&gt;Node16</title>
<path fill="none" stroke="#63b8ff" d="M1933.52,-171.25C1795,-166.77 1527.33,-154.85 1493,-129 1462.15,-105.77 1454.86,-57.63 1453.28,-30.4"/>
<polygon fill="#63b8ff" stroke="#63b8ff" points="1456.79,-30.6 1452.95,-20.73 1449.8,-30.84 1456.79,-30.6"/>
</g>
<!-- Node27&#45;&gt;Node17 -->
<g id="edge143" class="edge">
<title>Node27&#45;&gt;Node17</title>
<path fill="none" stroke="#63b8ff" d="M2001.17,-164.65C1989.72,-156.88 1974.73,-144.41 1968,-129 1954.84,-98.86 1948.4,-81.41 1968,-55 1993.13,-21.14 2043.3,-12.13 2077.99,-10.19"/>
<polygon fill="#63b8ff" stroke="#63b8ff" points="2077.72,-13.7 2087.59,-9.84 2077.46,-6.71 2077.72,-13.7"/>
</g>
<!-- Node27&#45;&gt;Node18 -->
<g id="edge144" class="edge">
<title>Node27&#45;&gt;Node18</title>
<path fill="none" stroke="#63b8ff" d="M2098.44,-170.45C2225.67,-165.2 2477.45,-152.67 2690,-129 2825.02,-113.96 2983.91,-85.93 3055.55,-72.73"/>
<polygon fill="#63b8ff" stroke="#63b8ff" points="3056,-76.2 3065.19,-70.94 3054.72,-69.32 3056,-76.2"/>
</g>
<!-- Node27&#45;&gt;Node19 -->
<g id="edge145" class="edge">
<title>Node27&#45;&gt;Node19</title>
<path fill="none" stroke="#63b8ff" d="M1933.71,-172.36C1795.65,-169.57 1529.61,-160.19 1501,-129 1485.39,-111.98 1509.71,-92.54 1531.69,-79.7"/>
<polygon fill="#63b8ff" stroke="#63b8ff" points="1533.08,-82.93 1540.14,-75.03 1529.7,-76.8 1533.08,-82.93"/>
</g>
<!-- Node27&#45;&gt;Node21 -->
<g id="edge146" class="edge">
<title>Node27&#45;&gt;Node21</title>
<path fill="none" stroke="#63b8ff" d="M1942.04,-164.51C1864.19,-155.05 1741.98,-140.19 1661.43,-130.4"/>
<polygon fill="#63b8ff" stroke="#63b8ff" points="1662.2,-126.97 1651.85,-129.23 1661.36,-133.92 1662.2,-126.97"/>
</g>
<!-- Node27&#45;&gt;Node22 -->
<g id="edge129" class="edge">
<title>Node27&#45;&gt;Node22</title>
<path fill="none" stroke="#63b8ff" d="M1990.43,-164.55C1972.03,-157.16 1947.49,-145.25 1930,-129 1916.52,-116.48 1905.99,-98.28 1899.28,-84.57"/>
<polygon fill="#63b8ff" stroke="#63b8ff" points="1902.56,-83.33 1895.2,-75.71 1896.2,-86.25 1902.56,-83.33"/>
</g>
<!-- Node28&#45;&gt;Node4 -->
<g id="edge149" class="edge">
<title>Node28&#45;&gt;Node4</title>
<path fill="none" stroke="#63b8ff" d="M3911.15,-164.52C3775.38,-143.09 3435.12,-89.36 3321.56,-71.43"/>
<polygon fill="#63b8ff" stroke="#63b8ff" points="3322.29,-68 3311.87,-69.9 3321.2,-74.92 3322.29,-68"/>
</g>
<!-- Node28&#45;&gt;Node5 -->
<g id="edge150" class="edge">
<title>Node28&#45;&gt;Node5</title>
<path fill="none" stroke="#63b8ff" d="M4032.7,-172.57C4106.61,-169.98 4220.88,-160.77 4248,-129 4253.48,-122.58 4253.07,-116.75 4248,-110 4195.18,-39.72 4144.89,-68.39 4058,-55 3728.24,-4.19 2890.18,-36.73 2557,-19 2536.08,-17.89 2512.81,-16.02 2493.7,-14.32"/>
<polygon fill="#63b8ff" stroke="#63b8ff" points="2494.17,-10.85 2483.89,-13.43 2493.54,-17.82 2494.17,-10.85"/>
</g>
<!-- Node28&#45;&gt;Node6 -->
<g id="edge151" class="edge">
<title>Node28&#45;&gt;Node6</title>
<path fill="none" stroke="#63b8ff" d="M3973.88,-164.8C3981.95,-151.68 3994.15,-126.57 3982,-110 3950.59,-67.14 3917.25,-93.94 3868,-74 3850.5,-66.91 3848.34,-59.48 3830,-55 3699.59,-23.19 1548.04,-26.18 1414,-19 1395.13,-17.99 1374.14,-16.11 1356.98,-14.37"/>
<polygon fill="#63b8ff" stroke="#63b8ff" points="1357.6,-10.92 1347.3,-13.36 1356.88,-17.88 1357.6,-10.92"/>
</g>
<!-- Node28&#45;&gt;Node7 -->
<g id="edge152" class="edge">
<title>Node28&#45;&gt;Node7</title>
<path fill="none" stroke="#63b8ff" d="M3903.1,-170.44C3867.12,-168.77 3821.59,-166.7 3781,-165 3363.73,-147.52 3258.61,-158.35 2842,-129 2759.55,-123.19 2739.47,-115.5 2657,-110 2139.68,-75.49 2009.2,-90.64 1491,-74 1409.14,-71.37 1312.5,-68.11 1265.14,-66.49"/>
<polygon fill="#63b8ff" stroke="#63b8ff" points="1265.56,-63.01 1255.44,-66.16 1265.32,-70 1265.56,-63.01"/>
</g>
<!-- Node28&#45;&gt;Node8 -->
<g id="edge153" class="edge">
<title>Node28&#45;&gt;Node8</title>
<path fill="none" stroke="#63b8ff" d="M3945.72,-164.58C3884.67,-140.68 3709.05,-75.65 3556,-55 3281.35,-17.94 1339.01,-27.5 1062,-19 1007.15,-17.32 943.01,-13.98 907.71,-12.03"/>
<polygon fill="#63b8ff" stroke="#63b8ff" points="908.18,-8.55 898,-11.48 907.79,-15.54 908.18,-8.55"/>
</g>
<!-- Node28&#45;&gt;Node9 -->
<g id="edge154" class="edge">
<title>Node28&#45;&gt;Node9</title>
<path fill="none" stroke="#63b8ff" d="M3961.17,-164.73C3950.53,-151.51 3928.83,-126.29 3906,-110 3875.58,-88.29 3863.61,-90.36 3830,-74 3813.02,-65.74 3810.35,-59.47 3792,-55 3656.88,-22.08 1428.01,-23.08 1289,-19 1235.47,-17.43 1173.58,-14.49 1134.87,-12.51"/>
<polygon fill="#63b8ff" stroke="#63b8ff" points="1135.07,-9.02 1124.9,-12 1134.71,-16.01 1135.07,-9.02"/>
</g>
<!-- Node28&#45;&gt;Node10 -->
<g id="edge155" class="edge">
<title>Node28&#45;&gt;Node10</title>
<path fill="none" stroke="#63b8ff" d="M4032.68,-174.02C4115.97,-173.15 4253.85,-165.96 4286,-129 4291.54,-122.63 4291.28,-116.59 4286,-110 4147.16,63.31 4827.43,-112.52 2724,-19 2687.65,-17.38 2645.97,-14.7 2618.01,-12.78"/>
<polygon fill="#63b8ff" stroke="#63b8ff" points="2618.29,-9.29 2608.07,-12.09 2617.81,-16.28 2618.29,-9.29"/>
</g>
<!-- Node28&#45;&gt;Node11 -->
<g id="edge156" class="edge">
<title>Node28&#45;&gt;Node11</title>
<path fill="none" stroke="#63b8ff" d="M4032.81,-172.6C4163.04,-170.12 4446.62,-161.07 4476,-129 4481.7,-122.77 4481.38,-116.51 4476,-110 4392.64,-9.27 4316.98,-69.19 4187,-55 3647.31,3.93 3507.88,-52.26 2966,-19 2946.18,-17.78 2924,-15.73 2906.49,-13.94"/>
<polygon fill="#63b8ff" stroke="#63b8ff" points="2907.03,-10.48 2896.72,-12.92 2906.3,-17.44 2907.03,-10.48"/>
</g>
<!-- Node28&#45;&gt;Node12 -->
<g id="edge157" class="edge">
<title>Node28&#45;&gt;Node12</title>
<path fill="none" stroke="#63b8ff" d="M4032.74,-171.52C4147.28,-167.34 4375.88,-155.73 4400,-129 4405.66,-122.73 4403.84,-117.52 4400,-110 4381.04,-72.87 4363.51,-68.33 4324,-55 4168.35,-2.48 3009.99,-28.64 2846,-19 2826.95,-17.88 2805.72,-15.94 2788.56,-14.19"/>
<polygon fill="#63b8ff" stroke="#63b8ff" points="2789.22,-10.74 2778.91,-13.18 2788.49,-17.7 2789.22,-10.74"/>
</g>
<!-- Node28&#45;&gt;Node13 -->
<g id="edge158" class="edge">
<title>Node28&#45;&gt;Node13</title>
<path fill="none" stroke="#63b8ff" d="M3903.04,-169.5C3623.25,-152.25 2523.57,-84.46 2268.87,-68.76"/>
<polygon fill="#63b8ff" stroke="#63b8ff" points="2269.44,-65.29 2259.24,-68.17 2269.01,-72.27 2269.44,-65.29"/>
</g>
<!-- Node28&#45;&gt;Node14 -->
<g id="edge159" class="edge">
<title>Node28&#45;&gt;Node14</title>
<path fill="none" stroke="#63b8ff" d="M4032.75,-173.41C4177.48,-172.53 4517.29,-166.45 4552,-129 4568.9,-110.76 4558.86,-73.58 4534,-55 4472.39,-8.96 3272.21,-9.79 3040.52,-10.38"/>
<polygon fill="#63b8ff" stroke="#63b8ff" points="3040.83,-6.88 3030.84,-10.4 3040.85,-13.88 3040.83,-6.88"/>
</g>
<!-- Node28&#45;&gt;Node15 -->
<g id="edge160" class="edge">
<title>Node28&#45;&gt;Node15</title>
<path fill="none" stroke="#63b8ff" d="M3935.54,-164.6C3887.7,-151.65 3795.35,-127.27 3716,-110 3645.82,-94.72 3563.43,-80.32 3515.15,-72.23"/>
<polygon fill="#63b8ff" stroke="#63b8ff" points="3515.86,-68.8 3505.42,-70.61 3514.71,-75.7 3515.86,-68.8"/>
</g>
<!-- Node28&#45;&gt;Node16 -->
<g id="edge161" class="edge">
<title>Node28&#45;&gt;Node16</title>
<path fill="none" stroke="#63b8ff" d="M4032.97,-173.05C4107.33,-170.31 4213.78,-158.22 4172,-110 4157.96,-93.79 3811.37,-56.7 3790,-55 2786.82,24.87 2530.16,-85.28 1526,-19 1515.64,-18.32 1504.49,-17.21 1494.1,-16.01"/>
<polygon fill="#63b8ff" stroke="#63b8ff" points="1494.62,-12.55 1484.28,-14.83 1493.78,-19.5 1494.62,-12.55"/>
</g>
<!-- Node28&#45;&gt;Node17 -->
<g id="edge162" class="edge">
<title>Node28&#45;&gt;Node17</title>
<path fill="none" stroke="#63b8ff" d="M4032.97,-170.66C4096.83,-166.35 4187.86,-155.59 4210,-129 4215.4,-122.51 4215.24,-116.62 4210,-110 4166.94,-55.55 4125.45,-90.42 4058,-74 4024.17,-65.77 4016.51,-59.65 3982,-55 3637.25,-8.53 2764.76,-27.89 2417,-19 2321.54,-16.56 2209.13,-13.29 2152.14,-11.61"/>
<polygon fill="#63b8ff" stroke="#63b8ff" points="2152.47,-8.11 2142.37,-11.32 2152.26,-15.11 2152.47,-8.11"/>
</g>
<!-- Node28&#45;&gt;Node18 -->
<g id="edge163" class="edge">
<title>Node28&#45;&gt;Node18</title>
<path fill="none" stroke="#63b8ff" d="M3903.26,-166.36C3826.37,-157.81 3694.28,-142.9 3581,-129 3414.03,-108.52 3215.16,-81.89 3132.74,-70.75"/>
<polygon fill="#63b8ff" stroke="#63b8ff" points="3133.32,-67.3 3122.94,-69.43 3132.38,-74.24 3133.32,-67.3"/>
</g>
<!-- Node28&#45;&gt;Node19 -->
<g id="edge164" class="edge">
<title>Node28&#45;&gt;Node19</title>
<path fill="none" stroke="#63b8ff" d="M3903.1,-170.46C3867.12,-168.8 3821.59,-166.73 3781,-165 3580.8,-156.45 3074.06,-178.92 2880,-129 2861.71,-124.3 2860.3,-114.66 2842,-110 2812.48,-102.49 1896.34,-75.29 1631.22,-67.56"/>
<polygon fill="#63b8ff" stroke="#63b8ff" points="1631.44,-64.07 1621.34,-67.27 1631.23,-71.06 1631.44,-64.07"/>
</g>
<!-- Node28&#45;&gt;Node22 -->
<g id="edge148" class="edge">
<title>Node28&#45;&gt;Node22</title>
<path fill="none" stroke="#63b8ff" d="M3903.09,-170.54C3867.12,-168.91 3821.58,-166.84 3781,-165 3426.34,-148.94 3335.73,-169.3 2983,-129 2936.75,-123.72 2926.25,-115.28 2880,-110 2784,-99.04 2093.54,-73 1927.05,-66.83"/>
<polygon fill="#63b8ff" stroke="#63b8ff" points="1927.19,-63.33 1917.07,-66.46 1926.93,-70.33 1927.19,-63.33"/>
</g>
<!-- Node28&#45;&gt;Node23 -->
<g id="edge165" class="edge">
<title>Node28&#45;&gt;Node23</title>
<path fill="none" stroke="#63b8ff" d="M3903.1,-170.41C3867.12,-168.74 3821.59,-166.67 3781,-165 3561.96,-155.98 2894.75,-131.93 2659.33,-123.48"/>
<polygon fill="#63b8ff" stroke="#63b8ff" points="2659.74,-120 2649.62,-123.14 2659.49,-126.99 2659.74,-120"/>
</g>
<!-- Node29&#45;&gt;Node2 -->
<g id="edge167" class="edge">
<title>Node29&#45;&gt;Node2</title>
<path fill="none" stroke="#63b8ff" d="M787.59,-170.44C702.83,-165.59 562.92,-154.01 518,-129 499.37,-118.63 484.75,-98.68 475.82,-83.9"/>
<polygon fill="#63b8ff" stroke="#63b8ff" points="479.07,-82.54 471.09,-75.57 472.98,-86 479.07,-82.54"/>
</g>
<!-- Node29&#45;&gt;Node4 -->
<g id="edge169" class="edge">
<title>Node29&#45;&gt;Node4</title>
<path fill="none" stroke="#63b8ff" d="M922.31,-172.71C1231.69,-168.96 2509.75,-152.2 2687,-129 2722.81,-124.31 2730.35,-115.78 2766,-110 2858.77,-94.95 3143.4,-74.94 3246.35,-68"/>
<polygon fill="#63b8ff" stroke="#63b8ff" points="3246.44,-71.5 3256.19,-67.34 3245.98,-64.51 3246.44,-71.5"/>
</g>
<!-- Node29&#45;&gt;Node5 -->
<g id="edge170" class="edge">
<title>Node29&#45;&gt;Node5</title>
<path fill="none" stroke="#63b8ff" d="M830.82,-164.68C804.84,-153.76 769.14,-133.67 784,-110 791.48,-98.09 884.34,-58.33 898,-55 900.38,-54.42 2171.87,-18.47 2414.32,-11.62"/>
<polygon fill="#63b8ff" stroke="#63b8ff" points="2414.3,-15.12 2424.2,-11.34 2414.1,-8.13 2414.3,-15.12"/>
</g>
<!-- Node29&#45;&gt;Node6 -->
<g id="edge171" class="edge">
<title>Node29&#45;&gt;Node6</title>
<path fill="none" stroke="#63b8ff" d="M787.79,-173.9C725.21,-171.33 645.06,-158.84 670,-110 688.96,-72.87 706.86,-69.37 746,-55 796.64,-36.41 1168.96,-17.64 1286.53,-12.12"/>
<polygon fill="#63b8ff" stroke="#63b8ff" points="1286.69,-15.62 1296.52,-11.65 1286.36,-8.62 1286.69,-15.62"/>
</g>
<!-- Node29&#45;&gt;Node7 -->
<g id="edge172" class="edge">
<title>Node29&#45;&gt;Node7</title>
<path fill="none" stroke="#63b8ff" d="M868.27,-164.56C889.59,-150.64 933.23,-123.93 974,-110 1055.5,-82.15 1157.46,-71.26 1206.7,-67.4"/>
<polygon fill="#63b8ff" stroke="#63b8ff" points="1206.81,-70.9 1216.53,-66.67 1206.3,-63.92 1206.81,-70.9"/>
</g>
<!-- Node29&#45;&gt;Node8 -->
<g id="edge173" class="edge">
<title>Node29&#45;&gt;Node8</title>
<path fill="none" stroke="#63b8ff" d="M787.69,-173.28C708.87,-171.42 585.3,-162.98 556,-129 534.52,-104.09 534.38,-79.78 556,-55 594.76,-10.57 783.45,-8.9 854.17,-9.89"/>
<polygon fill="#63b8ff" stroke="#63b8ff" points="854,-13.38 864.06,-10.06 854.12,-6.38 854,-13.38"/>
</g>
<!-- Node29&#45;&gt;Node9 -->
<g id="edge174" class="edge">
<title>Node29&#45;&gt;Node9</title>
<path fill="none" stroke="#63b8ff" d="M787.52,-171.55C718.59,-167.97 618.31,-157.81 594,-129 588.55,-122.55 590.16,-117.52 594,-110 612.96,-72.87 631.05,-69.89 670,-55 740.79,-27.94 968.58,-15.79 1059.25,-11.94"/>
<polygon fill="#63b8ff" stroke="#63b8ff" points="1059.25,-15.44 1069.1,-11.53 1058.96,-8.45 1059.25,-15.44"/>
</g>
<!-- Node29&#45;&gt;Node10 -->
<g id="edge175" class="edge">
<title>Node29&#45;&gt;Node10</title>
<path fill="none" stroke="#63b8ff" d="M844.4,-164.62C830.79,-152.11 810.24,-128.73 822,-110 825.74,-104.04 929.16,-56.65 936,-55 1104.02,-14.54 2318.45,-28.71 2491,-19 2512.02,-17.82 2535.6,-15.71 2554,-13.89"/>
<polygon fill="#63b8ff" stroke="#63b8ff" points="2554.17,-17.39 2563.77,-12.9 2553.47,-10.43 2554.17,-17.39"/>
</g>
<!-- Node29&#45;&gt;Node11 -->
<g id="edge176" class="edge">
<title>Node29&#45;&gt;Node11</title>
<path fill="none" stroke="#63b8ff" d="M858.7,-164.83C864.91,-151.27 878.67,-125.05 898,-110 912.17,-98.97 1032.34,-58.29 1050,-55 1239.68,-19.71 2593.39,-30.18 2786,-19 2805.14,-17.89 2826.52,-15.87 2843.53,-14.08"/>
<polygon fill="#63b8ff" stroke="#63b8ff" points="2843.46,-17.61 2853.03,-13.05 2842.71,-10.65 2843.46,-17.61"/>
</g>
<!-- Node29&#45;&gt;Node12 -->
<g id="edge177" class="edge">
<title>Node29&#45;&gt;Node12</title>
<path fill="none" stroke="#63b8ff" d="M852.95,-164.66C850.42,-151.35 847.8,-126.01 860,-110 881.77,-81.43 976.69,-61.6 1012,-55 1187.23,-22.24 2437.89,-26.44 2616,-19 2652.14,-17.49 2693.52,-14.84 2721.67,-12.9"/>
<polygon fill="#63b8ff" stroke="#63b8ff" points="2721.62,-16.41 2731.36,-12.22 2721.14,-9.43 2721.62,-16.41"/>
</g>
<!-- Node29&#45;&gt;Node13 -->
<g id="edge178" class="edge">
<title>Node29&#45;&gt;Node13</title>
<path fill="none" stroke="#63b8ff" d="M922.26,-171.49C1064.78,-166.88 1407.55,-153.99 1694,-129 1865.99,-114 2068.74,-86.51 2162.94,-73.17"/>
<polygon fill="#63b8ff" stroke="#63b8ff" points="2163.24,-76.66 2172.65,-71.79 2162.26,-69.73 2163.24,-76.66"/>
</g>
<!-- Node29&#45;&gt;Node14 -->
<g id="edge179" class="edge">
<title>Node29&#45;&gt;Node14</title>
<path fill="none" stroke="#63b8ff" d="M863.67,-164.66C879.29,-148.91 911.85,-117.02 926,-110 983.38,-81.51 1145.3,-61.82 1209,-55 1583.61,-14.92 2527.8,-39.29 2904,-19 2923.58,-17.94 2945.32,-16.12 2963.33,-14.44"/>
<polygon fill="#63b8ff" stroke="#63b8ff" points="2963.45,-17.94 2973.07,-13.51 2962.78,-10.98 2963.45,-17.94"/>
</g>
<!-- Node29&#45;&gt;Node15 -->
<g id="edge180" class="edge">
<title>Node29&#45;&gt;Node15</title>
<path fill="none" stroke="#63b8ff" d="M922.26,-173.44C1166.5,-172.88 2029.5,-168.08 2740,-129 3004.62,-114.44 3321.72,-81.85 3433,-69.96"/>
<polygon fill="#63b8ff" stroke="#63b8ff" points="3433.26,-73.45 3442.83,-68.9 3432.51,-66.49 3433.26,-73.45"/>
</g>
<!-- Node29&#45;&gt;Node16 -->
<g id="edge181" class="edge">
<title>Node29&#45;&gt;Node16</title>
<path fill="none" stroke="#63b8ff" d="M787.88,-167.88C739.39,-160.84 685.97,-145.08 708,-110 737.91,-62.36 767.61,-69.38 822,-55 1051.11,5.59 1117.71,-37.14 1354,-19 1372.96,-17.54 1393.94,-15.77 1411.69,-14.21"/>
<polygon fill="#63b8ff" stroke="#63b8ff" points="1411.96,-17.7 1421.61,-13.34 1411.34,-10.73 1411.96,-17.7"/>
</g>
<!-- Node29&#45;&gt;Node17 -->
<g id="edge182" class="edge">
<title>Node29&#45;&gt;Node17</title>
<path fill="none" stroke="#63b8ff" d="M806.88,-164.53C770.04,-155.29 728.3,-138.19 746,-110 760.96,-86.18 832.7,-61.75 860,-55 920.54,-40.03 1875.56,-16.27 2077.62,-11.39"/>
<polygon fill="#63b8ff" stroke="#63b8ff" points="2077.63,-14.89 2087.54,-11.15 2077.46,-7.89 2077.63,-14.89"/>
</g>
<!-- Node29&#45;&gt;Node18 -->
<g id="edge183" class="edge">
<title>Node29&#45;&gt;Node18</title>
<path fill="none" stroke="#63b8ff" d="M922.29,-172.77C1239.31,-169.2 2572.09,-152.82 2657,-129 2673.29,-124.43 2673.91,-115.26 2690,-110 2757.41,-87.96 2968.04,-73.09 3055.42,-67.73"/>
<polygon fill="#63b8ff" stroke="#63b8ff" points="3055.38,-71.24 3065.15,-67.14 3054.95,-64.25 3055.38,-71.24"/>
</g>
<!-- Node29&#45;&gt;Node19 -->
<g id="edge184" class="edge">
<title>Node29&#45;&gt;Node19</title>
<path fill="none" stroke="#63b8ff" d="M899.51,-164.51C965.4,-151.39 1092.89,-126.75 1202,-110 1301.31,-94.75 1416.73,-81.14 1489.08,-73.1"/>
<polygon fill="#63b8ff" stroke="#63b8ff" points="1489.25,-76.6 1498.81,-72.03 1488.48,-69.65 1489.25,-76.6"/>
</g>
<!-- Node29&#45;&gt;Node22 -->
<g id="edge168" class="edge">
<title>Node29&#45;&gt;Node22</title>
<path fill="none" stroke="#63b8ff" d="M922.34,-172.88C1089.5,-170.84 1519.92,-162.4 1659,-129 1679.32,-124.12 1682.19,-116.64 1702,-110 1716.42,-105.16 1804.41,-85.04 1855.1,-73.58"/>
<polygon fill="#63b8ff" stroke="#63b8ff" points="1855.75,-77.02 1864.73,-71.4 1854.21,-70.19 1855.75,-77.02"/>
</g>
<!-- Node29&#45;&gt;Node23 -->
<g id="edge185" class="edge">
<title>Node29&#45;&gt;Node23</title>
<path fill="none" stroke="#63b8ff" d="M922.47,-171.42C1192.59,-163.1 2195.79,-132.21 2492.7,-123.07"/>
<polygon fill="#63b8ff" stroke="#63b8ff" points="2492.4,-126.58 2502.29,-122.77 2492.19,-119.58 2492.4,-126.58"/>
</g>
</g>
</svg>
        <g id="navigator" transform="translate(0 0)" fill="#404254">
                <rect fill="#f2f5e9" fill-opacity="0.5" stroke="#606060" stroke-width=".5" x="0" y="0" width="60" height="60"/>
                <use id="zoomplus" xlink:href="#zoomPlus" x="17" y="9" onmousedown="handleZoom(evt,'in')"/>
                <use id="zoomminus" xlink:href="#zoomMin" x="42" y="9" onmousedown="handleZoom(evt,'out')"/>
                <use id="reset" xlink:href="#resetDef" x="30" y="36" onmousedown="handleReset()"/>
                <g id="arrowUp" xlink:href="#dirArrow" transform="translate(30 24)" onmousedown="handlePan(0,-1)">
                  <use xlink:href="#rim" fill="#404040">
                        <set attributeName="fill" to="#808080" begin="arrowUp.mouseover" end="arrowUp.mouseout"/>
                  </use>
                  <path fill="none" stroke="white" stroke-width="1.5" d="M0,-3.0v7 M-2.5,-0.5L0,-3.0L2.5,-0.5"/>
                </g>
                <g id="arrowRight" xlink:href="#dirArrow" transform="rotate(90) translate(36 -43)" onmousedown="handlePan(1,0)">
                  <use xlink:href="#rim" fill="#404040">
                        <set attributeName="fill" to="#808080" begin="arrowRight.mouseover" end="arrowRight.mouseout"/>
                  </use>
                  <path fill="none" stroke="white" stroke-width="1.5" d="M0,-3.0v7 M-2.5,-0.5L0,-3.0L2.5,-0.5"/>
                </g>
                <g id="arrowDown" xlink:href="#dirArrow" transform="rotate(180) translate(-30 -48)" onmousedown="handlePan(0,1)">
                  <use xlink:href="#rim" fill="#404040">
                        <set attributeName="fill" to="#808080" begin="arrowDown.mouseover" end="arrowDown.mouseout"/>
                  </use>
                  <path fill="none" stroke="white" stroke-width="1.5" d="M0,-3.0v7 M-2.5,-0.5L0,-3.0L2.5,-0.5"/>
                </g>
                <g id="arrowLeft" xlink:href="#dirArrow" transform="rotate(270) translate(-36 17)" onmousedown="handlePan(-1,0)">
                  <use xlink:href="#rim" fill="#404040">
                        <set attributeName="fill" to="#808080" begin="arrowLeft.mouseover" end="arrowLeft.mouseout"/>
                  </use>
                  <path fill="none" stroke="white" stroke-width="1.5" d="M0,-3.0v7 M-2.5,-0.5L0,-3.0L2.5,-0.5"/>
                </g>
        </g>
        <svg viewBox="0 0 15 15" width="100%" height="30px" preserveAspectRatio="xMaxYMin meet">
         <g id="arrow_out" transform="scale(0.3 0.3)">
          <a xlink:href="Iotm__TextMeshUtils_8h__incl_org.svg" target="_base">
           <rect id="button" ry="5" rx="5" y="6" x="6" height="38" width="38"
                fill="#f2f5e9" fill-opacity="0.5" stroke="#606060" stroke-width="1.0"/>
           <path id="arrow"
             d="M 11.500037,31.436501 C 11.940474,20.09759 22.043105,11.32322 32.158766,21.979434 L 37.068811,17.246167 C 37.068811,17.246167 37.088388,32 37.088388,32 L 22.160133,31.978069 C 22.160133,31.978069 26.997745,27.140456 26.997745,27.140456 C 18.528582,18.264221 13.291696,25.230495 11.500037,31.436501 z"
             style="fill:#404040;"/>
          </a>
         </g>
        </svg>
</svg>
