<?xml version="1.0" encoding="UTF-8" standalone="no"?>
<!DOCTYPE svg PUBLIC "-//W3C//DTD SVG 1.1//EN"
 "http://www.w3.org/Graphics/SVG/1.1/DTD/svg11.dtd">
<!-- Generated by graphviz version 9.0.0 (20230911.1827)
 -->
<!-- Title: src/text_mesh/Iotm_TextMeshDataTypes.h Pages: 1 -->
<!--zoomable 438 -->

<svg id="main" version="1.1" xmlns="http://www.w3.org/2000/svg" xmlns:xlink="http://www.w3.org/1999/xlink" xml:space="preserve" onload="init(evt)">
<style type="text/css"><![CDATA[
.node, .edge {opacity: 0.7;}
.node.selected, .edge.selected {opacity: 1;}
.edge:hover path { stroke: red; }
.edge:hover polygon { stroke: red; fill: red; }
]]></style>

<defs>
  <circle id="rim" cx="0" cy="0" r="7"/>
  <circle id="rim2" cx="0" cy="0" r="3.5"/>
  <g id="zoomPlus">
    <use xlink:href="#rim" fill="#404040"><set attributeName="fill" to="#808080" begin="zoomplus.mouseover" end="zoomplus.mouseout"/></use>
    <path d="M-4,0h8M0,-4v8" fill="none" stroke="white" stroke-width="1.5" pointer-events="none"/>
  </g>
  <g id="zoomMin">
    <use xlink:href="#rim" fill="#404040"><set attributeName="fill" to="#808080" begin="zoomminus.mouseover" end="zoomminus.mouseout"/></use>
    <path d="M-4,0h8" fill="none" stroke="white" stroke-width="1.5" pointer-events="none"/>
  </g>
  <g id="arrowUp" transform="translate(30 24)">
    <use xlink:href="#rim"/>
    <path pointer-events="none" fill="none" stroke="white" stroke-width="1.5" d="M0,-3.0v7 M-2.5,-0.5L0,-3.0L2.5,-0.5"/>
  </g>
  <g id="arrowRight" transform="rotate(90) translate(36 -43)">
    <use xlink:href="#rim"/>
    <path pointer-events="none" fill="none" stroke="white" stroke-width="1.5" d="M0,-3.0v7 M-2.5,-0.5L0,-3.0L2.5,-0.5"/>
  </g>
  <g id="arrowDown" transform="rotate(180) translate(-30 -48)">
    <use xlink:href="#rim"/>
    <path pointer-events="none" fill="none" stroke="white" stroke-width="1.5" d="M0,-3.0v7 M-2.5,-0.5L0,-3.0L2.5,-0.5"/>
  </g>
  <g id="arrowLeft" transform="rotate(270) translate(-36 17)">
    <use xlink:href="#rim"/>
    <path pointer-events="none" fill="none" stroke="white" stroke-width="1.5" d="M0,-3.0v7 M-2.5,-0.5L0,-3.0L2.5,-0.5"/>
  </g>
  <g id="resetDef">
    <use xlink:href="#rim2" fill="#404040"><set attributeName="fill" to="#808080" begin="reset.mouseover" end="reset.mouseout"/></use>
  </g>
</defs>
<script type="application/ecmascript">
var viewWidth = 613;
var viewHeight = 438;
var sectionId = 'dynsection-1';
</script>
<script type="application/ecmascript" xlink:href="svg.min.js"/>
<svg id="graph" class="graph">
<g id="viewport">
<title>src/text_mesh/Iotm_TextMeshDataTypes.h</title>
<!-- Node1 -->
<g id="Node000001" class="node">
<title>Node1</title>
<g id="a_Node000001"><a xlink:title=" ">
<polygon fill="#999999" stroke="#666666" points="430.12,-429.5 310.62,-429.5 310.62,-399 430.12,-399 430.12,-429.5"/>
<text text-anchor="start" x="318.62" y="-416" font-family="Helvetica,sans-Serif" font-size="10.00">src/text_mesh/Iotm</text>
<text text-anchor="middle" x="370.38" y="-404.75" font-family="Helvetica,sans-Serif" font-size="10.00">_TextMeshDataTypes.h</text>
</a>
</g>
</g>
<!-- Node2 -->
<g id="Node000002" class="node">
<title>Node2</title>
<g id="a_Node000002"><a xlink:href="Iotm__TextMeshAdjacencyGraph_8h.html" target="_top" xlink:title=" ">
<polygon fill="white" stroke="#666666" points="604.5,-363 460.25,-363 460.25,-332.5 604.5,-332.5 604.5,-363"/>
<text text-anchor="start" x="468.25" y="-349.5" font-family="Helvetica,sans-Serif" font-size="10.00">src/text_mesh/Iotm</text>
<text text-anchor="middle" x="532.38" y="-338.25" font-family="Helvetica,sans-Serif" font-size="10.00">_TextMeshAdjacencyGraph.h</text>
</a>
</g>
</g>
<!-- Node1&#45;&gt;Node2 -->
<g id="edge1_Node000001_Node000002" class="edge">
<title>Node1&#45;&gt;Node2</title>
<g id="a_edge1_Node000001_Node000002"><a xlink:title=" ">
<path fill="none" stroke="#63b8ff" d="M417.76,-394.38C442.55,-384.51 472.44,-372.61 495.48,-363.44"/>
<polygon fill="#63b8ff" stroke="#63b8ff" points="416.54,-391.1 408.54,-398.05 419.13,-397.61 416.54,-391.1"/>
</a>
</g>
</g>
<!-- Node3 -->
<g id="Node000003" class="node">
<title>Node3</title>
<g id="a_Node000003"><a xlink:href="Iotm__TextMeshSidesetSkinner_8h.html" target="_top" xlink:title=" ">
<polygon fill="white" stroke="#666666" points="560.12,-296.5 422.62,-296.5 422.62,-266 560.12,-266 560.12,-296.5"/>
<text text-anchor="start" x="430.62" y="-283" font-family="Helvetica,sans-Serif" font-size="10.00">src/text_mesh/Iotm</text>
<text text-anchor="middle" x="491.38" y="-271.75" font-family="Helvetica,sans-Serif" font-size="10.00">_TextMeshSidesetSkinner.h</text>
</a>
</g>
</g>
<!-- Node1&#45;&gt;Node3 -->
<g id="edge12_Node000001_Node000003" class="edge">
<title>Node1&#45;&gt;Node3</title>
<g id="a_edge12_Node000001_Node000003"><a xlink:title=" ">
<path fill="none" stroke="#63b8ff" d="M391.57,-390.3C416.46,-363.36 456.97,-319.5 477.9,-296.83"/>
<polygon fill="#63b8ff" stroke="#63b8ff" points="389.03,-387.9 384.81,-397.62 394.17,-392.65 389.03,-387.9"/>
</a>
</g>
</g>
<!-- Node4 -->
<g id="Node000004" class="node">
<title>Node4</title>
<g id="a_Node000004"><a xlink:href="Iotm__TextMeshSideset_8h.html" target="_top" xlink:title=" ">
<polygon fill="white" stroke="#666666" points="437,-230 331.75,-230 331.75,-199.5 437,-199.5 437,-230"/>
<text text-anchor="start" x="339.75" y="-216.5" font-family="Helvetica,sans-Serif" font-size="10.00">src/text_mesh/Iotm</text>
<text text-anchor="middle" x="384.38" y="-205.25" font-family="Helvetica,sans-Serif" font-size="10.00">_TextMeshSideset.h</text>
</a>
</g>
</g>
<!-- Node1&#45;&gt;Node4 -->
<g id="edge11_Node000001_Node000004" class="edge">
<title>Node1&#45;&gt;Node4</title>
<g id="a_edge11_Node000001_Node000004"><a xlink:title=" ">
<path fill="none" stroke="#63b8ff" d="M372.22,-387.27C375.2,-345.19 380.99,-263.49 383.34,-230.29"/>
<polygon fill="#63b8ff" stroke="#63b8ff" points="368.73,-387 371.51,-397.22 375.71,-387.49 368.73,-387"/>
</a>
</g>
</g>
<!-- Node5 -->
<g id="Node000005" class="node">
<title>Node5</title>
<g id="a_Node000005"><a xlink:href="Iotm__TextMeshUtils_8h.html" target="_top" xlink:title=" ">
<polygon fill="white" stroke="#666666" points="356.75,-163.5 256,-163.5 256,-133 356.75,-133 356.75,-163.5"/>
<text text-anchor="start" x="264" y="-150" font-family="Helvetica,sans-Serif" font-size="10.00">src/text_mesh/Iotm</text>
<text text-anchor="middle" x="306.38" y="-138.75" font-family="Helvetica,sans-Serif" font-size="10.00">_TextMeshUtils.h</text>
</a>
</g>
</g>
<!-- Node1&#45;&gt;Node5 -->
<g id="edge18_Node000001_Node000005" class="edge">
<title>Node1&#45;&gt;Node5</title>
<g id="a_edge18_Node000001_Node000005"><a xlink:title=" ">
<path fill="none" stroke="#63b8ff" d="M327.41,-393.34C291.67,-374.15 243.24,-341.41 221.38,-296.5 196.95,-246.34 254.92,-189.98 286.94,-163.92"/>
<polygon fill="#63b8ff" stroke="#63b8ff" points="325.75,-396.42 336.24,-397.92 328.98,-390.21 325.75,-396.42"/>
</a>
</g>
</g>
<!-- Node11 -->
<g id="Node000011" class="node">
<title>Node11</title>
<g id="a_Node000011"><a xlink:href="Iotm__TextMeshSidesetSplitter_8h.html" target="_top" xlink:title=" ">
<polygon fill="white" stroke="#666666" points="366,-296.5 230.75,-296.5 230.75,-266 366,-266 366,-296.5"/>
<text text-anchor="start" x="238.75" y="-283" font-family="Helvetica,sans-Serif" font-size="10.00">src/text_mesh/Iotm</text>
<text text-anchor="middle" x="298.38" y="-271.75" font-family="Helvetica,sans-Serif" font-size="10.00">_TextMeshSidesetSplitter.h</text>
</a>
</g>
</g>
<!-- Node1&#45;&gt;Node11 -->
<g id="edge13_Node000001_Node000011" class="edge">
<title>Node1&#45;&gt;Node11</title>
<g id="a_edge13_Node000001_Node000011"><a xlink:title=" ">
<path fill="none" stroke="#63b8ff" d="M356.98,-388.88C342.12,-361.84 318.63,-319.1 306.39,-296.83"/>
<polygon fill="#63b8ff" stroke="#63b8ff" points="353.78,-390.33 361.67,-397.4 359.92,-386.95 353.78,-390.33"/>
</a>
</g>
</g>
<!-- Node12 -->
<g id="Node000012" class="node">
<title>Node12</title>
<g id="a_Node000012"><a xlink:href="Iotm__TextMeshTopologyMapping_8h.html" target="_top" xlink:title=" ">
<polygon fill="white" stroke="#666666" points="238.38,-163.5 90.38,-163.5 90.38,-133 238.38,-133 238.38,-163.5"/>
<text text-anchor="start" x="98.38" y="-150" font-family="Helvetica,sans-Serif" font-size="10.00">src/text_mesh/Iotm</text>
<text text-anchor="middle" x="164.38" y="-138.75" font-family="Helvetica,sans-Serif" font-size="10.00">_TextMeshTopologyMapping.h</text>
</a>
</g>
</g>
<!-- Node1&#45;&gt;Node12 -->
<g id="edge15_Node000001_Node000012" class="edge">
<title>Node1&#45;&gt;Node12</title>
<g id="a_edge15_Node000001_Node000012"><a xlink:title=" ">
<path fill="none" stroke="#63b8ff" d="M299.48,-395.9C279.53,-388.35 259.03,-377.75 243.38,-363 183.92,-306.97 168.98,-202.25 165.42,-163.85"/>
<polygon fill="#63b8ff" stroke="#63b8ff" points="298.13,-399.14 308.73,-399.17 300.47,-392.54 298.13,-399.14"/>
</a>
</g>
</g>
<!-- Node2&#45;&gt;Node3 -->
<g id="edge2_Node000002_Node000003" class="edge">
<title>Node2&#45;&gt;Node3</title>
<g id="a_edge2_Node000002_Node000003"><a xlink:title=" ">
<path fill="none" stroke="#63b8ff" d="M516.97,-322.51C511.47,-313.87 505.46,-304.41 500.64,-296.83"/>
<polygon fill="#63b8ff" stroke="#63b8ff" points="513.94,-324.27 522.26,-330.84 519.85,-320.52 513.94,-324.27"/>
</a>
</g>
</g>
<!-- Node3&#45;&gt;Node4 -->
<g id="edge3_Node000003_Node000004" class="edge">
<title>Node3&#45;&gt;Node4</title>
<g id="a_edge3_Node000003_Node000004"><a xlink:title=" ">
<path fill="none" stroke="#63b8ff" d="M457.59,-259.89C441.67,-250.29 423.04,-239.06 408.56,-230.33"/>
<polygon fill="#63b8ff" stroke="#63b8ff" points="455.43,-262.67 465.8,-264.83 459.04,-256.67 455.43,-262.67"/>
</a>
</g>
</g>
<!-- Node4&#45;&gt;Node5 -->
<g id="edge4_Node000004_Node000005" class="edge">
<title>Node4&#45;&gt;Node5</title>
<g id="a_edge4_Node000004_Node000005"><a xlink:title=" ">
<path fill="none" stroke="#63b8ff" d="M358.09,-192.02C346.87,-182.73 334.06,-172.15 324,-163.83"/>
<polygon fill="#63b8ff" stroke="#63b8ff" points="355.57,-194.47 365.51,-198.15 360.03,-189.08 355.57,-194.47"/>
</a>
</g>
</g>
<!-- Node9 -->
<g id="Node000009" class="node">
<title>Node9</title>
<g id="a_Node000009"><a xlink:href="UnitTestIotmTextMeshFixture_8h.html" target="_top" xlink:title=" ">
<polygon fill="white" stroke="#666666" points="373.62,-97 239.12,-97 239.12,-66.5 373.62,-66.5 373.62,-97"/>
<text text-anchor="start" x="247.12" y="-83.5" font-family="Helvetica,sans-Serif" font-size="10.00">src/unit_tests/UnitTestIotm</text>
<text text-anchor="middle" x="306.38" y="-72.25" font-family="Helvetica,sans-Serif" font-size="10.00">TextMeshFixture.h</text>
</a>
</g>
</g>
<!-- Node4&#45;&gt;Node9 -->
<g id="edge10_Node000004_Node000009" class="edge">
<title>Node4&#45;&gt;Node9</title>
<g id="a_edge10_Node000004_Node000009"><a xlink:title=" ">
<path fill="none" stroke="#63b8ff" d="M382.45,-187.87C380.25,-171.2 375.52,-149.62 365.38,-133 356.61,-118.65 342.34,-106.33 330.03,-97.48"/>
<polygon fill="#63b8ff" stroke="#63b8ff" points="378.94,-187.93 383.49,-197.5 385.9,-187.18 378.94,-187.93"/>
</a>
</g>
</g>
<!-- Node6 -->
<g id="Node000006" class="node">
<title>Node6</title>
<g id="a_Node000006"><a xlink:href="Iotm__TextMesh_8h.html" target="_top" xlink:title=" ">
<polygon fill="white" stroke="#666666" points="217.75,-97 117,-97 117,-66.5 217.75,-66.5 217.75,-97"/>
<text text-anchor="start" x="125" y="-83.5" font-family="Helvetica,sans-Serif" font-size="10.00">src/text_mesh/Iotm</text>
<text text-anchor="middle" x="167.38" y="-72.25" font-family="Helvetica,sans-Serif" font-size="10.00">_TextMesh.h</text>
</a>
</g>
</g>
<!-- Node5&#45;&gt;Node6 -->
<g id="edge5_Node000005_Node000006" class="edge">
<title>Node5&#45;&gt;Node6</title>
<g id="a_edge5_Node000005_Node000006"><a xlink:title=" ">
<path fill="none" stroke="#63b8ff" d="M264.53,-127.83C243.41,-118.03 218.23,-106.35 198.79,-97.33"/>
<polygon fill="#63b8ff" stroke="#63b8ff" points="262.92,-130.94 273.46,-131.98 265.86,-124.59 262.92,-130.94"/>
</a>
</g>
</g>
<!-- Node5&#45;&gt;Node9 -->
<g id="edge8_Node000005_Node000009" class="edge">
<title>Node5&#45;&gt;Node9</title>
<g id="a_edge8_Node000005_Node000009"><a xlink:title=" ">
<path fill="none" stroke="#63b8ff" d="M306.38,-121.31C306.38,-113.14 306.38,-104.41 306.38,-97.33"/>
<polygon fill="#63b8ff" stroke="#63b8ff" points="302.88,-121.1 306.38,-131.1 309.88,-121.1 302.88,-121.1"/>
</a>
</g>
</g>
<!-- Node7 -->
<g id="Node000007" class="node">
<title>Node7</title>
<g id="a_Node000007"><a xlink:href="Iotm__DatabaseIO_8C.html" target="_top" xlink:title=" ">
<polygon fill="white" stroke="#666666" points="219.75,-30.5 119,-30.5 119,0 219.75,0 219.75,-30.5"/>
<text text-anchor="start" x="127" y="-17" font-family="Helvetica,sans-Serif" font-size="10.00">src/text_mesh/Iotm</text>
<text text-anchor="middle" x="169.38" y="-5.75" font-family="Helvetica,sans-Serif" font-size="10.00">_DatabaseIO.C</text>
</a>
</g>
</g>
<!-- Node6&#45;&gt;Node7 -->
<g id="edge6_Node000006_Node000007" class="edge">
<title>Node6&#45;&gt;Node7</title>
<g id="a_edge6_Node000006_Node000007"><a xlink:title=" ">
<path fill="none" stroke="#63b8ff" d="M168.18,-54.81C168.43,-46.64 168.7,-37.91 168.92,-30.83"/>
<polygon fill="#63b8ff" stroke="#63b8ff" points="164.69,-54.5 167.88,-64.6 171.68,-54.71 164.69,-54.5"/>
</a>
</g>
</g>
<!-- Node8 -->
<g id="Node000008" class="node">
<title>Node8</title>
<g id="a_Node000008"><a xlink:href="Iotm__TextMesh_8C.html" target="_top" xlink:title=" ">
<polygon fill="white" stroke="#666666" points="100.75,-30.5 0,-30.5 0,0 100.75,0 100.75,-30.5"/>
<text text-anchor="start" x="8" y="-17" font-family="Helvetica,sans-Serif" font-size="10.00">src/text_mesh/Iotm</text>
<text text-anchor="middle" x="50.38" y="-5.75" font-family="Helvetica,sans-Serif" font-size="10.00">_TextMesh.C</text>
</a>
</g>
</g>
<!-- Node6&#45;&gt;Node8 -->
<g id="edge7_Node000006_Node000008" class="edge">
<title>Node6&#45;&gt;Node8</title>
<g id="a_edge7_Node000006_Node000008"><a xlink:title=" ">
<path fill="none" stroke="#63b8ff" d="M130.93,-60.66C113.41,-51 92.81,-39.64 76.82,-30.83"/>
<polygon fill="#63b8ff" stroke="#63b8ff" points="129.05,-63.62 139.5,-65.38 132.43,-57.49 129.05,-63.62"/>
</a>
</g>
</g>
<!-- Node10 -->
<g id="Node000010" class="node">
<title>Node10</title>
<g id="a_Node000010"><a xlink:href="UnitTestTextMesh_8C.html" target="_top" xlink:title=" ">
<polygon fill="white" stroke="#666666" points="373.25,-30.5 239.5,-30.5 239.5,0 373.25,0 373.25,-30.5"/>
<text text-anchor="start" x="247.5" y="-17" font-family="Helvetica,sans-Serif" font-size="10.00">src/unit_tests/UnitTestText</text>
<text text-anchor="middle" x="306.38" y="-5.75" font-family="Helvetica,sans-Serif" font-size="10.00">Mesh.C</text>
</a>
</g>
</g>
<!-- Node9&#45;&gt;Node10 -->
<g id="edge9_Node000009_Node000010" class="edge">
<title>Node9&#45;&gt;Node10</title>
<g id="a_edge9_Node000009_Node000010"><a xlink:title=" ">
<path fill="none" stroke="#63b8ff" d="M306.38,-54.81C306.38,-46.64 306.38,-37.91 306.38,-30.83"/>
<polygon fill="#63b8ff" stroke="#63b8ff" points="302.88,-54.6 306.38,-64.6 309.88,-54.6 302.88,-54.6"/>
</a>
</g>
</g>
<!-- Node11&#45;&gt;Node4 -->
<g id="edge14_Node000011_Node000004" class="edge">
<title>Node11&#45;&gt;Node4</title>
<g id="a_edge14_Node000011_Node000004"><a xlink:title=" ">
<path fill="none" stroke="#63b8ff" d="M326.98,-258.79C339.45,-249.44 353.74,-238.73 364.94,-230.33"/>
<polygon fill="#63b8ff" stroke="#63b8ff" points="325,-255.91 319.1,-264.71 329.2,-261.51 325,-255.91"/>
</a>
</g>
</g>
<!-- Node12&#45;&gt;Node6 -->
<g id="edge16_Node000012_Node000006" class="edge">
<title>Node12&#45;&gt;Node6</title>
<g id="a_edge16_Node000012_Node000006"><a xlink:title=" ">
<path fill="none" stroke="#63b8ff" d="M165.58,-121.31C165.96,-113.14 166.37,-104.41 166.7,-97.33"/>
<polygon fill="#63b8ff" stroke="#63b8ff" points="162.09,-120.95 165.13,-131.1 169.09,-121.28 162.09,-120.95"/>
</a>
</g>
</g>
<!-- Node12&#45;&gt;Node9 -->
<g id="edge17_Node000012_Node000009" class="edge">
<title>Node12&#45;&gt;Node9</title>
<g id="a_edge17_Node000012_Node000009"><a xlink:title=" ">
<path fill="none" stroke="#63b8ff" d="M206.83,-127.97C228.46,-118.14 254.33,-106.39 274.28,-97.33"/>
<polygon fill="#63b8ff" stroke="#63b8ff" points="205.63,-124.67 197.98,-131.99 208.53,-131.04 205.63,-124.67"/>
</a>
</g>
</g>
</g>
</svg>

<g id="navigator" transform="translate(0 0)" fill="#404254">
  <rect fill="#f2f5e9" fill-opacity="0.5" stroke="#606060" stroke-width=".5" x="0" y="0" width="60" height="60"/>
  <use id="zoomplus" xlink:href="#zoomPlus" x="17" y="9" onmousedown="handleZoom(evt,'in')"/>
  <use id="zoomminus" xlink:href="#zoomMin" x="42" y="9" onmousedown="handleZoom(evt,'out')"/>
  <use id="reset" xlink:href="#resetDef" x="30" y="36" onmousedown="handleReset()"/>
   <use id="arrowup" xlink:href="#arrowUp" x="0" y="0" onmousedown="handlePan(0,-1)"/>
  <use id="arrowright" xlink:href="#arrowRight" x="0" y="0" onmousedown="handlePan(1,0)"/>
  <use id="arrowdown" xlink:href="#arrowDown" x="0" y="0" onmousedown="handlePan(0,1)"/>
  <use id="arrowleft" xlink:href="#arrowLeft" x="0" y="0" onmousedown="handlePan(-1,0)"/>
</g>
<svg viewBox="0 0 15 15" width="100%" height="30px" preserveAspectRatio="xMaxYMin meet">
 <g id="arrow_out" transform="scale(0.3 0.3)">
  <a xlink:href="Iotm__TextMeshDataTypes_8h__dep__incl_org.svg" target="_base">
   <rect id="button" ry="5" rx="5" y="6" x="6" height="38" width="38"
        fill="#f2f5e9" fill-opacity="0.5" stroke="#606060" stroke-width="1.0"/>
   <path id="arrow"
     d="M 11.500037,31.436501 C 11.940474,20.09759 22.043105,11.32322 32.158766,21.979434 L 37.068811,17.246167 C 37.068811,17.246167 37.088388,32 37.088388,32 L 22.160133,31.978069 C 22.160133,31.978069 26.997745,27.140456 26.997745,27.140456 C 18.528582,18.264221 13.291696,25.230495 11.500037,31.436501 z"
     style="fill:#404040;"/>
  </a>
 </g>
</svg>

<style type='text/css'>
<![CDATA[
[data-mouse-over-selected='false'] { opacity: 0.7; }
[data-mouse-over-selected='true']  { opacity: 1.0; }
]]>
</style>
<script type="application/ecmascript"><![CDATA[
document.addEventListener('DOMContentLoaded', (event) => {
  highlightEdges();
  highlightAdjacentNodes();
});
]]></script>
</svg>
