<?xml version="1.0" encoding="UTF-8" standalone="no"?>
<!DOCTYPE svg PUBLIC "-//W3C//DTD SVG 1.1//EN"
 "http://www.w3.org/Graphics/SVG/1.1/DTD/svg11.dtd">
<!-- Generated by graphviz version 13.1.2 (20250808.2320)
 -->
<!-- Title: src/text_mesh/Iotm_TextMeshFuncs.h Pages: 1 -->
<svg width="839pt" height="94pt"
 viewBox="0.00 0.00 839.00 94.00" xmlns="http://www.w3.org/2000/svg" xmlns:xlink="http://www.w3.org/1999/xlink">
<g id="graph0" class="graph" transform="scale(1 1) rotate(0) translate(4 89.75)">
<title>src/text_mesh/Iotm_TextMeshFuncs.h</title>
<!-- Node1 -->
<g id="Node000001" class="node">
<title>Node1</title>
<g id="a_Node000001"><a xlink:title=" ">
<polygon fill="#999999" stroke="#666666" points="444,-85.75 343.25,-85.75 343.25,-55.25 444,-55.25 444,-85.75"/>
<text xml:space="preserve" text-anchor="start" x="351.25" y="-72.25" font-family="Helvetica,sans-Serif" font-size="10.00">src/text_mesh/Iotm</text>
<text xml:space="preserve" text-anchor="middle" x="393.62" y="-61" font-family="Helvetica,sans-Serif" font-size="10.00">_TextMeshFuncs.h</text>
</a>
</g>
</g>
<!-- Node2 -->
<g id="Node000002" class="node">
<title>Node2</title>
<g id="a_Node000002"><a xlink:title=" ">
<polygon fill="#e0e0e0" stroke="#999999" points="45.25,-19.25 0,-19.25 0,0 45.25,0 45.25,-19.25"/>
<text xml:space="preserve" text-anchor="middle" x="22.62" y="-5.75" font-family="Helvetica,sans-Serif" font-size="10.00">cctype</text>
</a>
</g>
</g>
<!-- Node1&#45;&gt;Node2 -->
<g id="edge1_Node000001_Node000002" class="edge">
<title>Node1&#45;&gt;Node2</title>
<g id="a_edge1_Node000001_Node000002"><a xlink:title=" ">
<path fill="none" stroke="#63b8ff" d="M342.76,-63.83C278.37,-56.24 163.9,-41.38 56.64,-19.45"/>
<polygon fill="#63b8ff" stroke="#63b8ff" points="57.6,-16.07 47.1,-17.47 56.18,-22.93 57.6,-16.07"/>
</a>
</g>
</g>
<!-- Node3 -->
<g id="Node000003" class="node">
<title>Node3</title>
<g id="a_Node000003"><a xlink:title=" ">
<polygon fill="#e0e0e0" stroke="#999999" points="111.75,-19.25 63.5,-19.25 63.5,0 111.75,0 111.75,-19.25"/>
<text xml:space="preserve" text-anchor="middle" x="87.62" y="-5.75" font-family="Helvetica,sans-Serif" font-size="10.00">cstddef</text>
</a>
</g>
</g>
<!-- Node1&#45;&gt;Node3 -->
<g id="edge2_Node000001_Node000003" class="edge">
<title>Node1&#45;&gt;Node3</title>
<g id="a_edge2_Node000001_Node000003"><a xlink:title=" ">
<path fill="none" stroke="#63b8ff" d="M342.83,-61.3C290.2,-52.55 205.34,-37.73 123.14,-19.68"/>
<polygon fill="#63b8ff" stroke="#63b8ff" points="124.08,-16.31 113.56,-17.56 122.57,-23.14 124.08,-16.31"/>
</a>
</g>
</g>
<!-- Node4 -->
<g id="Node000004" class="node">
<title>Node4</title>
<g id="a_Node000004"><a xlink:title=" ">
<polygon fill="#e0e0e0" stroke="#999999" points="185.5,-19.25 129.75,-19.25 129.75,0 185.5,0 185.5,-19.25"/>
<text xml:space="preserve" text-anchor="middle" x="157.62" y="-5.75" font-family="Helvetica,sans-Serif" font-size="10.00">algorithm</text>
</a>
</g>
</g>
<!-- Node1&#45;&gt;Node4 -->
<g id="edge3_Node000001_Node000004" class="edge">
<title>Node1&#45;&gt;Node4</title>
<g id="a_edge3_Node000001_Node000004"><a xlink:title=" ">
<path fill="none" stroke="#63b8ff" d="M343,-56.87C299.27,-45.96 236.97,-30.42 196.91,-20.43"/>
<polygon fill="#63b8ff" stroke="#63b8ff" points="198.01,-17.09 187.46,-18.07 196.32,-23.88 198.01,-17.09"/>
</a>
</g>
</g>
<!-- Node5 -->
<g id="Node000005" class="node">
<title>Node5</title>
<g id="a_Node000005"><a xlink:title=" ">
<polygon fill="#e0e0e0" stroke="#999999" points="249.62,-19.25 203.62,-19.25 203.62,0 249.62,0 249.62,-19.25"/>
<text xml:space="preserve" text-anchor="middle" x="226.62" y="-5.75" font-family="Helvetica,sans-Serif" font-size="10.00">iterator</text>
</a>
</g>
</g>
<!-- Node1&#45;&gt;Node5 -->
<g id="edge4_Node000001_Node000005" class="edge">
<title>Node1&#45;&gt;Node5</title>
<g id="a_edge4_Node000001_Node000005"><a xlink:title=" ">
<path fill="none" stroke="#63b8ff" d="M351.91,-54.8C323.68,-44.84 286.86,-31.86 260.45,-22.55"/>
<polygon fill="#63b8ff" stroke="#63b8ff" points="261.85,-19.33 251.25,-19.31 259.52,-25.93 261.85,-19.33"/>
</a>
</g>
</g>
<!-- Node6 -->
<g id="Node000006" class="node">
<title>Node6</title>
<g id="a_Node000006"><a xlink:title=" ">
<polygon fill="#e0e0e0" stroke="#999999" points="297.38,-19.25 267.88,-19.25 267.88,0 297.38,0 297.38,-19.25"/>
<text xml:space="preserve" text-anchor="middle" x="282.62" y="-5.75" font-family="Helvetica,sans-Serif" font-size="10.00">set</text>
</a>
</g>
</g>
<!-- Node1&#45;&gt;Node6 -->
<g id="edge5_Node000001_Node000006" class="edge">
<title>Node1&#45;&gt;Node6</title>
<g id="a_edge5_Node000001_Node000006"><a xlink:title=" ">
<path fill="none" stroke="#63b8ff" d="M365.9,-54.8C348.03,-45.32 324.99,-33.1 307.68,-23.91"/>
<polygon fill="#63b8ff" stroke="#63b8ff" points="309.54,-20.94 299.07,-19.35 306.26,-27.12 309.54,-20.94"/>
</a>
</g>
</g>
<!-- Node7 -->
<g id="Node000007" class="node">
<title>Node7</title>
<g id="a_Node000007"><a xlink:title=" ">
<polygon fill="#e0e0e0" stroke="#999999" points="355.62,-19.25 315.62,-19.25 315.62,0 355.62,0 355.62,-19.25"/>
<text xml:space="preserve" text-anchor="middle" x="335.62" y="-5.75" font-family="Helvetica,sans-Serif" font-size="10.00">string</text>
</a>
</g>
</g>
<!-- Node1&#45;&gt;Node7 -->
<g id="edge6_Node000001_Node000007" class="edge">
<title>Node1&#45;&gt;Node7</title>
<g id="a_edge6_Node000001_Node000007"><a xlink:title=" ">
<path fill="none" stroke="#63b8ff" d="M379.29,-54.95C371.22,-46.76 361.1,-36.48 352.63,-27.89"/>
<polygon fill="#63b8ff" stroke="#63b8ff" points="355.14,-25.45 345.63,-20.78 350.15,-30.36 355.14,-25.45"/>
</a>
</g>
</g>
<!-- Node8 -->
<g id="Node000008" class="node">
<title>Node8</title>
<g id="a_Node000008"><a xlink:title=" ">
<polygon fill="#e0e0e0" stroke="#999999" points="413.25,-19.25 374,-19.25 374,0 413.25,0 413.25,-19.25"/>
<text xml:space="preserve" text-anchor="middle" x="393.62" y="-5.75" font-family="Helvetica,sans-Serif" font-size="10.00">utility</text>
</a>
</g>
</g>
<!-- Node1&#45;&gt;Node8 -->
<g id="edge7_Node000001_Node000008" class="edge">
<title>Node1&#45;&gt;Node8</title>
<g id="a_edge7_Node000001_Node000008"><a xlink:title=" ">
<path fill="none" stroke="#63b8ff" d="M393.62,-54.95C393.62,-47.71 393.62,-38.84 393.62,-30.94"/>
<polygon fill="#63b8ff" stroke="#63b8ff" points="397.13,-31.21 393.63,-21.21 390.13,-31.21 397.13,-31.21"/>
</a>
</g>
</g>
<!-- Node9 -->
<g id="Node000009" class="node">
<title>Node9</title>
<g id="a_Node000009"><a xlink:title=" ">
<polygon fill="#e0e0e0" stroke="#999999" points="474.12,-19.25 431.12,-19.25 431.12,0 474.12,0 474.12,-19.25"/>
<text xml:space="preserve" text-anchor="middle" x="452.62" y="-5.75" font-family="Helvetica,sans-Serif" font-size="10.00">vector</text>
</a>
</g>
</g>
<!-- Node1&#45;&gt;Node9 -->
<g id="edge8_Node000001_Node000009" class="edge">
<title>Node1&#45;&gt;Node9</title>
<g id="a_edge8_Node000001_Node000009"><a xlink:title=" ">
<path fill="none" stroke="#63b8ff" d="M408.21,-54.95C416.5,-46.67 426.93,-36.27 435.59,-27.62"/>
<polygon fill="#63b8ff" stroke="#63b8ff" points="437.85,-30.31 442.46,-20.77 432.91,-25.36 437.85,-30.31"/>
</a>
</g>
</g>
<!-- Node10 -->
<g id="Node000010" class="node">
<title>Node10</title>
<g id="a_Node000010"><a xlink:title=" ">
<polygon fill="#e0e0e0" stroke="#999999" points="543.25,-19.25 492,-19.25 492,0 543.25,0 543.25,-19.25"/>
<text xml:space="preserve" text-anchor="middle" x="517.62" y="-5.75" font-family="Helvetica,sans-Serif" font-size="10.00">sstream</text>
</a>
</g>
</g>
<!-- Node1&#45;&gt;Node10 -->
<g id="edge9_Node000001_Node000010" class="edge">
<title>Node1&#45;&gt;Node10</title>
<g id="a_edge9_Node000001_Node000010"><a xlink:title=" ">
<path fill="none" stroke="#63b8ff" d="M424.6,-54.8C444.12,-45.53 469.16,-33.63 488.35,-24.52"/>
<polygon fill="#63b8ff" stroke="#63b8ff" points="489.71,-27.75 497.24,-20.3 486.71,-21.43 489.71,-27.75"/>
</a>
</g>
</g>
<!-- Node11 -->
<g id="Node000011" class="node">
<title>Node11</title>
<g id="a_Node000011"><a xlink:title=" ">
<polygon fill="#e0e0e0" stroke="#999999" points="614.38,-19.25 560.88,-19.25 560.88,0 614.38,0 614.38,-19.25"/>
<text xml:space="preserve" text-anchor="middle" x="587.62" y="-5.75" font-family="Helvetica,sans-Serif" font-size="10.00">iostream</text>
</a>
</g>
</g>
<!-- Node1&#45;&gt;Node11 -->
<g id="edge10_Node000001_Node000011" class="edge">
<title>Node1&#45;&gt;Node11</title>
<g id="a_edge10_Node000001_Node000011"><a xlink:title=" ">
<path fill="none" stroke="#63b8ff" d="M442.08,-54.8C475.36,-44.69 518.92,-31.47 549.69,-22.14"/>
<polygon fill="#63b8ff" stroke="#63b8ff" points="550.4,-25.58 558.95,-19.33 548.36,-18.88 550.4,-25.58"/>
</a>
</g>
</g>
<!-- Node12 -->
<g id="Node000012" class="node">
<title>Node12</title>
<g id="a_Node000012"><a xlink:title=" ">
<polygon fill="#e0e0e0" stroke="#999999" points="691,-19.25 632.25,-19.25 632.25,0 691,0 691,-19.25"/>
<text xml:space="preserve" text-anchor="middle" x="661.62" y="-5.75" font-family="Helvetica,sans-Serif" font-size="10.00">stdexcept</text>
</a>
</g>
</g>
<!-- Node1&#45;&gt;Node12 -->
<g id="edge11_Node000001_Node000012" class="edge">
<title>Node1&#45;&gt;Node12</title>
<g id="a_edge11_Node000001_Node000012"><a xlink:title=" ">
<path fill="none" stroke="#63b8ff" d="M444.35,-58.54C488.52,-48.97 554.57,-34.59 620.71,-19.89"/>
<polygon fill="#63b8ff" stroke="#63b8ff" points="621.28,-23.35 630.28,-17.76 619.76,-16.51 621.28,-23.35"/>
</a>
</g>
</g>
<!-- Node13 -->
<g id="Node000013" class="node">
<title>Node13</title>
<g id="a_Node000013"><a xlink:title=" ">
<polygon fill="#e0e0e0" stroke="#999999" points="759.88,-19.25 709.38,-19.25 709.38,0 759.88,0 759.88,-19.25"/>
<text xml:space="preserve" text-anchor="middle" x="734.62" y="-5.75" font-family="Helvetica,sans-Serif" font-size="10.00">numeric</text>
</a>
</g>
</g>
<!-- Node1&#45;&gt;Node13 -->
<g id="edge12_Node000001_Node000013" class="edge">
<title>Node1&#45;&gt;Node13</title>
<g id="a_edge12_Node000001_Node000013"><a xlink:title=" ">
<path fill="none" stroke="#63b8ff" d="M444.48,-62.4C503.12,-53.94 602.63,-38.73 698.05,-19.42"/>
<polygon fill="#63b8ff" stroke="#63b8ff" points="698.48,-22.91 707.58,-17.47 697.08,-16.05 698.48,-22.91"/>
</a>
</g>
</g>
<!-- Node14 -->
<g id="Node000014" class="node">
<title>Node14</title>
<g id="a_Node000014"><a xlink:title=" ">
<polygon fill="#e0e0e0" stroke="#999999" points="831.38,-19.25 777.88,-19.25 777.88,0 831.38,0 831.38,-19.25"/>
<text xml:space="preserve" text-anchor="middle" x="804.62" y="-5.75" font-family="Helvetica,sans-Serif" font-size="10.00">strings.h</text>
</a>
</g>
</g>
<!-- Node1&#45;&gt;Node14 -->
<g id="edge13_Node000001_Node000014" class="edge">
<title>Node1&#45;&gt;Node14</title>
<g id="a_edge13_Node000001_Node000014"><a xlink:title=" ">
<path fill="none" stroke="#63b8ff" d="M444.23,-64.38C514.33,-56.91 645.13,-41.68 766.25,-19.52"/>
<polygon fill="#63b8ff" stroke="#63b8ff" points="766.88,-22.96 776.07,-17.7 765.6,-16.08 766.88,-22.96"/>
</a>
</g>
</g>
</g>
</svg>
