<?xml version="1.0" encoding="UTF-8" standalone="no"?>
<!DOCTYPE svg PUBLIC "-//W3C//DTD SVG 1.1//EN"
 "http://www.w3.org/Graphics/SVG/1.1/DTD/svg11.dtd">
<!-- Generated by graphviz version 7.0.0 (20221023.0053)
 -->
<!-- Title: src/text_mesh/Iotm_TextMeshUtils.h Pages: 1 -->
<!--zoomable 368 -->
<svg id="main" version="1.1" xmlns="http://www.w3.org/2000/svg" xmlns:xlink="http://www.w3.org/1999/xlink" xml:space="preserve" onload="init(evt)">
<style type="text/css"><![CDATA[
.edge:hover path { stroke: red; }
.edge:hover polygon { stroke: red; fill: red; }
]]></style>
<script type="text/javascript"><![CDATA[
var edges = document.getElementsByTagName('g');
if (edges && edges.length) {
  for (var i=0;i<edges.length;i++) {
    if (edges[i].id.substr(0,4)=='edge') {
      edges[i].setAttribute('class','edge');
    }
  }
}
]]></script>
        <defs>
                <circle id="rim" cx="0" cy="0" r="7"/>
                <circle id="rim2" cx="0" cy="0" r="3.5"/>
                <g id="zoomPlus">
                        <use xlink:href="#rim" fill="#404040">
                                <set attributeName="fill" to="#808080" begin="zoomplus.mouseover" end="zoomplus.mouseout"/>
                        </use>
                        <path d="M-4,0h8M0,-4v8" fill="none" stroke="white" stroke-width="1.5" pointer-events="none"/>
                </g>
                <g id="zoomMin">
                        <use xlink:href="#rim" fill="#404040">
                                <set attributeName="fill" to="#808080" begin="zoomminus.mouseover" end="zoomminus.mouseout"/>
                        </use>
                        <path d="M-4,0h8" fill="none" stroke="white" stroke-width="1.5" pointer-events="none"/>
                </g>
                <g id="dirArrow">
                        <path fill="none" stroke="white" stroke-width="1.5" d="M0,-3.0v7 M-2.5,-0.5L0,-3.0L2.5,-0.5"/>
                </g>
               <g id="resetDef">
                       <use xlink:href="#rim2" fill="#404040">
                               <set attributeName="fill" to="#808080" begin="reset.mouseover" end="reset.mouseout"/>
                       </use>
               </g>
        </defs>

<script type="text/javascript">
var viewWidth = 5616;
var viewHeight = 368;
var sectionId = 'dynsection-0';
</script>
<script xlink:href="svgpan.js"/>
<svg id="graph" class="graph">
<g id="viewport">
<title>src/text_mesh/Iotm_TextMeshUtils.h</title>
<!-- Node1 -->
<g id="node1" class="node">
<title>Node1</title>
<g id="a_node1"><a xlink:title=" ">
<polygon fill="#999999" stroke="#666666" points="2532.5,-360 2431.5,-360 2431.5,-330 2532.5,-330 2532.5,-360"/>
<text text-anchor="start" x="2439.5" y="-348" font-family="Helvetica,sans-Serif" font-size="10.00">src/text_mesh/Iotm</text>
<text text-anchor="middle" x="2482" y="-337" font-family="Helvetica,sans-Serif" font-size="10.00">_TextMeshUtils.h</text>
</a>
</g>
</g>
<!-- Node2 -->
<g id="node2" class="node">
<title>Node2</title>
<g id="a_node2"><a xlink:title=" ">
<polygon fill="#e0e0e0" stroke="#999999" points="46,-294 0,-294 0,-275 46,-275 46,-294"/>
<text text-anchor="middle" x="23" y="-282" font-family="Helvetica,sans-Serif" font-size="10.00">cctype</text>
</a>
</g>
</g>
<!-- Node1&#45;&gt;Node2 -->
<g id="edge1" class="edge">
<title>Node1&#45;&gt;Node2</title>
<path fill="none" stroke="#63b8ff" d="M2431.18,-343.58C2104.22,-340.78 302.74,-324.06 60,-294 59.17,-293.9 58.32,-293.78 57.47,-293.66"/>
<polygon fill="#63b8ff" stroke="#63b8ff" points="58.31,-290.25 47.85,-291.9 57.06,-297.14 58.31,-290.25"/>
</g>
<!-- Node3 -->
<g id="node3" class="node">
<title>Node3</title>
<g id="a_node3"><a xlink:title=" ">
<polygon fill="#e0e0e0" stroke="#999999" points="2093,-19 2041,-19 2041,0 2093,0 2093,-19"/>
<text text-anchor="middle" x="2067" y="-7" font-family="Helvetica,sans-Serif" font-size="10.00">stddef.h</text>
</a>
</g>
</g>
<!-- Node1&#45;&gt;Node3 -->
<g id="edge2" class="edge">
<title>Node1&#45;&gt;Node3</title>
<path fill="none" stroke="#63b8ff" d="M2431.32,-340.37C2238.37,-325.22 1557.33,-258.88 1496,-74 1493.34,-65.99 1490.27,-61.2 1496,-55 1505.1,-45.17 1903.67,-20.34 2029.41,-12.75"/>
<polygon fill="#63b8ff" stroke="#63b8ff" points="2029.43,-16.25 2039.2,-12.16 2029,-9.26 2029.43,-16.25"/>
</g>
<!-- Node4 -->
<g id="node4" class="node">
<title>Node4</title>
<g id="a_node4"><a xlink:title=" ">
<polygon fill="#e0e0e0" stroke="#999999" points="577,-19 521,-19 521,0 577,0 577,-19"/>
<text text-anchor="middle" x="549" y="-7" font-family="Helvetica,sans-Serif" font-size="10.00">algorithm</text>
</a>
</g>
</g>
<!-- Node1&#45;&gt;Node4 -->
<g id="edge3" class="edge">
<title>Node1&#45;&gt;Node4</title>
<path fill="none" stroke="#63b8ff" d="M2431.13,-344.31C2086.87,-346.05 112,-350.83 112,-230.5 112,-230.5 112,-230.5 112,-118.5 112,-37.05 401.7,-16.64 509.35,-11.86"/>
<polygon fill="#63b8ff" stroke="#63b8ff" points="509.31,-15.37 519.15,-11.45 509.01,-8.38 509.31,-15.37"/>
</g>
<!-- Node5 -->
<g id="node5" class="node">
<title>Node5</title>
<g id="a_node5"><a xlink:title=" ">
<polygon fill="#e0e0e0" stroke="#999999" points="1904.5,-19 1857.5,-19 1857.5,0 1904.5,0 1904.5,-19"/>
<text text-anchor="middle" x="1881" y="-7" font-family="Helvetica,sans-Serif" font-size="10.00">iterator</text>
</a>
</g>
</g>
<!-- Node1&#45;&gt;Node5 -->
<g id="edge4" class="edge">
<title>Node1&#45;&gt;Node5</title>
<path fill="none" stroke="#63b8ff" d="M2431.29,-343.35C2147.8,-339.41 772,-315.9 772,-230.5 772,-230.5 772,-230.5 772,-173.5 772,-62.28 1656.35,-19.72 1845.62,-11.88"/>
<polygon fill="#63b8ff" stroke="#63b8ff" points="1845.7,-15.38 1855.55,-11.47 1845.42,-8.38 1845.7,-15.38"/>
</g>
<!-- Node6 -->
<g id="node6" class="node">
<title>Node6</title>
<g id="a_node6"><a xlink:title=" ">
<polygon fill="#e0e0e0" stroke="#999999" points="3098.5,-19 3063.5,-19 3063.5,0 3098.5,0 3098.5,-19"/>
<text text-anchor="middle" x="3081" y="-7" font-family="Helvetica,sans-Serif" font-size="10.00">map</text>
</a>
</g>
</g>
<!-- Node1&#45;&gt;Node6 -->
<g id="edge5" class="edge">
<title>Node1&#45;&gt;Node6</title>
<path fill="none" stroke="#63b8ff" d="M2532.74,-344.04C2856.51,-343.95 4620,-338.53 4620,-230.5 4620,-230.5 4620,-230.5 4620,-173.5 4620,-134.03 3322.39,-29.61 3110.19,-12.8"/>
<polygon fill="#63b8ff" stroke="#63b8ff" points="3110.57,-9.32 3100.32,-12.02 3110.02,-16.3 3110.57,-9.32"/>
</g>
<!-- Node7 -->
<g id="node7" class="node">
<title>Node7</title>
<g id="a_node7"><a xlink:title=" ">
<polygon fill="#e0e0e0" stroke="#999999" points="963,-19 933,-19 933,0 963,0 963,-19"/>
<text text-anchor="middle" x="948" y="-7" font-family="Helvetica,sans-Serif" font-size="10.00">set</text>
</a>
</g>
</g>
<!-- Node1&#45;&gt;Node7 -->
<g id="edge6" class="edge">
<title>Node1&#45;&gt;Node7</title>
<path fill="none" stroke="#63b8ff" d="M2431.16,-344.04C2106.79,-343.99 340,-338.73 340,-230.5 340,-230.5 340,-230.5 340,-118.5 340,-58.57 803.85,-20.94 921.25,-12.37"/>
<polygon fill="#63b8ff" stroke="#63b8ff" points="921.43,-15.87 931.16,-11.66 920.93,-8.89 921.43,-15.87"/>
</g>
<!-- Node8 -->
<g id="node8" class="node">
<title>Node8</title>
<g id="a_node8"><a xlink:title=" ">
<polygon fill="#e0e0e0" stroke="#999999" points="1373,-19 1321,-19 1321,0 1373,0 1373,-19"/>
<text text-anchor="middle" x="1347" y="-7" font-family="Helvetica,sans-Serif" font-size="10.00">sstream</text>
</a>
</g>
</g>
<!-- Node1&#45;&gt;Node8 -->
<g id="edge7" class="edge">
<title>Node1&#45;&gt;Node8</title>
<path fill="none" stroke="#63b8ff" d="M2431.29,-343.78C2124.53,-342.1 530,-328.68 530,-230.5 530,-230.5 530,-230.5 530,-173.5 530,-92.89 1149.51,-29.07 1309.6,-13.92"/>
<polygon fill="#63b8ff" stroke="#63b8ff" points="1309.61,-17.44 1319.24,-13.02 1308.95,-10.47 1309.61,-17.44"/>
</g>
<!-- Node9 -->
<g id="node9" class="node">
<title>Node9</title>
<g id="a_node9"><a xlink:title=" ">
<polygon fill="#e0e0e0" stroke="#999999" points="360.5,-19 319.5,-19 319.5,0 360.5,0 360.5,-19"/>
<text text-anchor="middle" x="340" y="-7" font-family="Helvetica,sans-Serif" font-size="10.00">string</text>
</a>
</g>
</g>
<!-- Node1&#45;&gt;Node9 -->
<g id="edge8" class="edge">
<title>Node1&#45;&gt;Node9</title>
<path fill="none" stroke="#63b8ff" d="M2431.04,-343.94C2117.55,-343.44 456.55,-338.67 235,-294 159.6,-278.8 74,-307.42 74,-230.5 74,-230.5 74,-230.5 74,-118.5 74,-75.83 108.04,-74.48 146,-55 198.66,-27.98 267.7,-17.19 307.62,-13.02"/>
<polygon fill="#63b8ff" stroke="#63b8ff" points="307.9,-16.51 317.52,-12.07 307.24,-9.54 307.9,-16.51"/>
</g>
<!-- Node10 -->
<g id="node10" class="node">
<title>Node10</title>
<g id="a_node10"><a xlink:title=" ">
<polygon fill="#e0e0e0" stroke="#999999" points="2355,-19 2315,-19 2315,0 2355,0 2355,-19"/>
<text text-anchor="middle" x="2335" y="-7" font-family="Helvetica,sans-Serif" font-size="10.00">utility</text>
</a>
</g>
</g>
<!-- Node1&#45;&gt;Node10 -->
<g id="edge9" class="edge">
<title>Node1&#45;&gt;Node10</title>
<path fill="none" stroke="#63b8ff" d="M2431.28,-344.71C2310.67,-343.26 2013.51,-320.06 1970,-129 1962.69,-96.92 1946.18,-79.62 1968,-55 1990.11,-30.05 2218.1,-16.28 2303.2,-11.99"/>
<polygon fill="#63b8ff" stroke="#63b8ff" points="2303.35,-15.48 2313.16,-11.49 2303,-8.49 2303.35,-15.48"/>
</g>
<!-- Node11 -->
<g id="node11" class="node">
<title>Node11</title>
<g id="a_node11"><a xlink:title=" ">
<polygon fill="#e0e0e0" stroke="#999999" points="3369,-19 3325,-19 3325,0 3369,0 3369,-19"/>
<text text-anchor="middle" x="3347" y="-7" font-family="Helvetica,sans-Serif" font-size="10.00">vector</text>
</a>
</g>
</g>
<!-- Node1&#45;&gt;Node11 -->
<g id="edge10" class="edge">
<title>Node1&#45;&gt;Node11</title>
<path fill="none" stroke="#63b8ff" d="M2532.62,-344.33C2799.64,-345.79 4046.53,-349.52 4428,-294 4520.93,-280.48 4573.55,-312.49 4632,-239 4802.44,-24.7 4652.97,-157.58 4298,-110 3939.73,-61.98 3502.9,-23.66 3380.35,-13.28"/>
<polygon fill="#63b8ff" stroke="#63b8ff" points="3380.94,-9.82 3370.68,-12.47 3380.35,-16.8 3380.94,-9.82"/>
</g>
<!-- Node12 -->
<g id="node12" class="node">
<title>Node12</title>
<g id="a_node12"><a xlink:title=" ">
<polygon fill="#e0e0e0" stroke="#999999" points="4597.5,-19 4514.5,-19 4514.5,0 4597.5,0 4597.5,-19"/>
<text text-anchor="middle" x="4556" y="-7" font-family="Helvetica,sans-Serif" font-size="10.00">unordered_map</text>
</a>
</g>
</g>
<!-- Node1&#45;&gt;Node12 -->
<g id="edge11" class="edge">
<title>Node1&#45;&gt;Node12</title>
<path fill="none" stroke="#63b8ff" d="M2532.91,-343.54C2847.56,-340.63 4517.57,-323.8 4621,-294 4804.47,-241.14 4895.69,-240.02 4990,-74 4994.17,-66.66 4995.66,-61.27 4990,-55 4983.67,-47.98 4723.26,-24.85 4608.92,-15"/>
<polygon fill="#63b8ff" stroke="#63b8ff" points="4609.44,-11.53 4599.18,-14.16 4608.84,-18.51 4609.44,-11.53"/>
</g>
<!-- Node13 -->
<g id="node13" class="node">
<title>Node13</title>
<g id="a_node13"><a xlink:title=" ">
<polygon fill="#e0e0e0" stroke="#999999" points="4970,-19 4916,-19 4916,0 4970,0 4970,-19"/>
<text text-anchor="middle" x="4943" y="-7" font-family="Helvetica,sans-Serif" font-size="10.00">iostream</text>
</a>
</g>
</g>
<!-- Node1&#45;&gt;Node13 -->
<g id="edge12" class="edge">
<title>Node1&#45;&gt;Node13</title>
<path fill="none" stroke="#63b8ff" d="M2532.92,-343.59C2841.68,-341.01 4466.57,-326.09 4964,-294 5090.75,-285.82 5532,-357.51 5532,-230.5 5532,-230.5 5532,-230.5 5532,-118.5 5532,-62.36 5112.66,-24.07 4981.63,-13.47"/>
<polygon fill="#63b8ff" stroke="#63b8ff" points="4981.98,-9.99 4971.74,-12.68 4981.43,-16.97 4981.98,-9.99"/>
</g>
<!-- Node14 -->
<g id="node14" class="node">
<title>Node14</title>
<g id="a_node14"><a xlink:title=" ">
<polygon fill="#e0e0e0" stroke="#999999" points="4737.5,-19 4678.5,-19 4678.5,0 4737.5,0 4737.5,-19"/>
<text text-anchor="middle" x="4708" y="-7" font-family="Helvetica,sans-Serif" font-size="10.00">functional</text>
</a>
</g>
</g>
<!-- Node1&#45;&gt;Node14 -->
<g id="edge13" class="edge">
<title>Node1&#45;&gt;Node14</title>
<path fill="none" stroke="#63b8ff" d="M2532.99,-343.43C2925.86,-338.9 5456,-306.75 5456,-230.5 5456,-230.5 5456,-230.5 5456,-118.5 5456,-46.49 4905.94,-18.56 4749.22,-12.07"/>
<polygon fill="#63b8ff" stroke="#63b8ff" points="4749.43,-8.57 4739.3,-11.66 4749.15,-15.57 4749.43,-8.57"/>
</g>
<!-- Node15 -->
<g id="node15" class="node">
<title>Node15</title>
<g id="a_node15"><a xlink:title=" ">
<polygon fill="#e0e0e0" stroke="#999999" points="3775.5,-19 3716.5,-19 3716.5,0 3775.5,0 3775.5,-19"/>
<text text-anchor="middle" x="3746" y="-7" font-family="Helvetica,sans-Serif" font-size="10.00">stdexcept</text>
</a>
</g>
</g>
<!-- Node1&#45;&gt;Node15 -->
<g id="edge14" class="edge">
<title>Node1&#45;&gt;Node15</title>
<path fill="none" stroke="#63b8ff" d="M2532.78,-343.89C2828.58,-343.11 4323.34,-337.05 4523,-294 4611.7,-274.87 4665.93,-269.96 4695,-184 4728.79,-84.08 4600.99,-128.72 4514,-110 4240.11,-51.07 3903.26,-22.15 3787.41,-13.43"/>
<polygon fill="#63b8ff" stroke="#63b8ff" points="3787.7,-9.94 3777.46,-12.69 3787.18,-16.92 3787.7,-9.94"/>
</g>
<!-- Node16 -->
<g id="node16" class="node">
<title>Node16</title>
<g id="a_node16"><a xlink:title=" ">
<polygon fill="#e0e0e0" stroke="#999999" points="5386.5,-19 5335.5,-19 5335.5,0 5386.5,0 5386.5,-19"/>
<text text-anchor="middle" x="5361" y="-7" font-family="Helvetica,sans-Serif" font-size="10.00">numeric</text>
</a>
</g>
</g>
<!-- Node1&#45;&gt;Node16 -->
<g id="edge15" class="edge">
<title>Node1&#45;&gt;Node16</title>
<path fill="none" stroke="#63b8ff" d="M2532.76,-344.16C2861.25,-345.04 4690.18,-347.45 5246,-294 5408.6,-278.36 5608,-393.85 5608,-230.5 5608,-230.5 5608,-230.5 5608,-118.5 5608,-28.02 5467.15,-12.61 5398.17,-10.48"/>
<polygon fill="#63b8ff" stroke="#63b8ff" points="5398.55,-6.99 5388.48,-10.27 5398.4,-13.99 5398.55,-6.99"/>
</g>
<!-- Node17 -->
<g id="node17" class="node">
<title>Node17</title>
<g id="a_node17"><a xlink:title=" ">
<polygon fill="#e0e0e0" stroke="#999999" points="4096,-19 4042,-19 4042,0 4096,0 4096,-19"/>
<text text-anchor="middle" x="4069" y="-7" font-family="Helvetica,sans-Serif" font-size="10.00">strings.h</text>
</a>
</g>
</g>
<!-- Node1&#45;&gt;Node17 -->
<g id="edge16" class="edge">
<title>Node1&#45;&gt;Node17</title>
<path fill="none" stroke="#63b8ff" d="M2532.69,-344.14C2833.08,-344.76 4373.4,-345.43 4577,-294 4629.23,-280.81 4647.48,-277.65 4685,-239 4861.55,-57.17 4267.6,-18.84 4107.64,-11.89"/>
<polygon fill="#63b8ff" stroke="#63b8ff" points="4108.11,-8.41 4097.97,-11.49 4107.82,-15.4 4108.11,-8.41"/>
</g>
<!-- Node18 -->
<g id="node18" class="node">
<title>Node18</title>
<g id="a_node18"><a xlink:href="Iotm__TextMeshFuncs_8h.html" target="_top" xlink:title=" ">
<polygon fill="white" stroke="#666666" points="2805.5,-74 2686.5,-74 2686.5,-55 2805.5,-55 2805.5,-74"/>
<text text-anchor="middle" x="2746" y="-62" font-family="Helvetica,sans-Serif" font-size="10.00">Iotm_TextMeshFuncs.h</text>
</a>
</g>
</g>
<!-- Node1&#45;&gt;Node18 -->
<g id="edge17" class="edge">
<title>Node1&#45;&gt;Node18</title>
<path fill="none" stroke="#63b8ff" d="M2497.13,-329.6C2532.59,-295.65 2623.38,-207.55 2694,-129 2707.51,-113.97 2722.02,-96.1 2732.26,-83.15"/>
<polygon fill="#63b8ff" stroke="#63b8ff" points="2734.82,-85.56 2738.25,-75.53 2729.32,-81.23 2734.82,-85.56"/>
</g>
<!-- Node20 -->
<g id="node20" class="node">
<title>Node20</title>
<g id="a_node20"><a xlink:href="Iotm__TextMeshDataTypes_8h.html" target="_top" xlink:title=" ">
<polygon fill="white" stroke="#666666" points="3344,-129 3204,-129 3204,-110 3344,-110 3344,-129"/>
<text text-anchor="middle" x="3274" y="-117" font-family="Helvetica,sans-Serif" font-size="10.00">Iotm_TextMeshDataTypes.h</text>
</a>
</g>
</g>
<!-- Node1&#45;&gt;Node20 -->
<g id="edge34" class="edge">
<title>Node1&#45;&gt;Node20</title>
<path fill="none" stroke="#63b8ff" d="M2532.76,-341.05C2644.21,-333.46 2917.69,-308.7 3135,-239 3193.96,-220.09 3224.63,-232.6 3263,-184 3272.56,-171.89 3275.01,-154.4 3275.24,-140.84"/>
<polygon fill="#63b8ff" stroke="#63b8ff" points="3278.74,-140.76 3274.98,-130.86 3271.74,-140.95 3278.74,-140.76"/>
</g>
<!-- Node21 -->
<g id="node21" class="node">
<title>Node21</title>
<g id="a_node21"><a xlink:href="Iotm__TextMeshEntityGroup_8h.html" target="_top" xlink:title=" ">
<polygon fill="white" stroke="#666666" points="2654,-129 2510,-129 2510,-110 2654,-110 2654,-129"/>
<text text-anchor="middle" x="2582" y="-117" font-family="Helvetica,sans-Serif" font-size="10.00">Iotm_TextMeshEntityGroup.h</text>
</a>
</g>
</g>
<!-- Node1&#45;&gt;Node21 -->
<g id="edge52" class="edge">
<title>Node1&#45;&gt;Node21</title>
<path fill="none" stroke="#63b8ff" d="M2477.94,-329.53C2472.03,-305.62 2463.35,-256.87 2479,-220 2494.79,-182.79 2532.08,-152.71 2557.18,-135.71"/>
<polygon fill="#63b8ff" stroke="#63b8ff" points="2559.05,-138.67 2565.51,-130.27 2555.22,-132.81 2559.05,-138.67"/>
</g>
<!-- Node22 -->
<g id="node22" class="node">
<title>Node22</title>
<g id="a_node22"><a xlink:href="Iotm__TextMeshSideset_8h.html" target="_top" xlink:title=" ">
<polygon fill="white" stroke="#666666" points="2873.5,-294 2748.5,-294 2748.5,-275 2873.5,-275 2873.5,-294"/>
<text text-anchor="middle" x="2811" y="-282" font-family="Helvetica,sans-Serif" font-size="10.00">Iotm_TextMeshSideset.h</text>
</a>
</g>
</g>
<!-- Node1&#45;&gt;Node22 -->
<g id="edge70" class="edge">
<title>Node1&#45;&gt;Node22</title>
<path fill="none" stroke="#63b8ff" d="M2532.69,-334.99C2590.97,-324.62 2686.65,-307.61 2749.24,-296.48"/>
<polygon fill="#63b8ff" stroke="#63b8ff" points="2749.8,-299.94 2759.04,-294.74 2748.58,-293.04 2749.8,-299.94"/>
</g>
<!-- Node26 -->
<g id="node26" class="node">
<title>Node26</title>
<g id="a_node26"><a xlink:href="Iotm__TextMeshNodeset_8h.html" target="_top" xlink:title=" ">
<polygon fill="white" stroke="#666666" points="2204.5,-184 2075.5,-184 2075.5,-165 2204.5,-165 2204.5,-184"/>
<text text-anchor="middle" x="2140" y="-172" font-family="Helvetica,sans-Serif" font-size="10.00">Iotm_TextMeshNodeset.h</text>
</a>
</g>
</g>
<!-- Node1&#45;&gt;Node26 -->
<g id="edge149" class="edge">
<title>Node1&#45;&gt;Node26</title>
<path fill="none" stroke="#63b8ff" d="M2445.16,-329.53C2421.46,-319.97 2390.13,-306.87 2363,-294 2290.1,-259.4 2206.76,-213.3 2165.67,-190.12"/>
<polygon fill="#63b8ff" stroke="#63b8ff" points="2167.45,-187.11 2157.02,-185.23 2164,-193.2 2167.45,-187.11"/>
</g>
<!-- Node27 -->
<g id="node27" class="node">
<title>Node27</title>
<g id="a_node27"><a xlink:href="Iotm__TextMeshAssembly_8h.html" target="_top" xlink:title=" ">
<polygon fill="white" stroke="#666666" points="2370,-184 2236,-184 2236,-165 2370,-165 2370,-184"/>
<text text-anchor="middle" x="2303" y="-172" font-family="Helvetica,sans-Serif" font-size="10.00">Iotm_TextMeshAssembly.h</text>
</a>
</g>
</g>
<!-- Node1&#45;&gt;Node27 -->
<g id="edge168" class="edge">
<title>Node1&#45;&gt;Node27</title>
<path fill="none" stroke="#63b8ff" d="M2443.46,-329.69C2424.2,-321.27 2401.35,-309.27 2384,-294 2351.06,-265.02 2325.12,-219.86 2312.13,-194.48"/>
<polygon fill="#63b8ff" stroke="#63b8ff" points="2315.35,-193.09 2307.77,-185.69 2309.08,-196.21 2315.35,-193.09"/>
</g>
<!-- Node18&#45;&gt;Node3 -->
<g id="edge19" class="edge">
<title>Node18&#45;&gt;Node3</title>
<path fill="none" stroke="#63b8ff" d="M2686.04,-58.82C2549.24,-48.14 2217.23,-22.23 2104.89,-13.46"/>
<polygon fill="#63b8ff" stroke="#63b8ff" points="2105.25,-9.98 2095.01,-12.69 2104.71,-16.95 2105.25,-9.98"/>
</g>
<!-- Node18&#45;&gt;Node4 -->
<g id="edge20" class="edge">
<title>Node18&#45;&gt;Node4</title>
<path fill="none" stroke="#63b8ff" d="M2686.1,-62.05C2365.05,-54.31 852.83,-17.83 588.48,-11.45"/>
<polygon fill="#63b8ff" stroke="#63b8ff" points="588.78,-7.96 578.69,-11.22 588.61,-14.96 588.78,-7.96"/>
</g>
<!-- Node18&#45;&gt;Node5 -->
<g id="edge21" class="edge">
<title>Node18&#45;&gt;Node5</title>
<path fill="none" stroke="#63b8ff" d="M2686.2,-59.84C2518.77,-49.58 2048.88,-20.79 1916.25,-12.66"/>
<polygon fill="#63b8ff" stroke="#63b8ff" points="1916.55,-9.17 1906.35,-12.05 1916.12,-16.16 1916.55,-9.17"/>
</g>
<!-- Node18&#45;&gt;Node6 -->
<g id="edge22" class="edge">
<title>Node18&#45;&gt;Node6</title>
<path fill="none" stroke="#63b8ff" d="M2802.83,-54.51C2875,-43.09 2996.8,-23.82 3052.11,-15.07"/>
<polygon fill="#63b8ff" stroke="#63b8ff" points="3052.35,-18.58 3061.68,-13.56 3051.25,-11.66 3052.35,-18.58"/>
</g>
<!-- Node18&#45;&gt;Node7 -->
<g id="edge23" class="edge">
<title>Node18&#45;&gt;Node7</title>
<path fill="none" stroke="#63b8ff" d="M2686.18,-61.74C2399.38,-53.28 1171.01,-17.07 974.55,-11.28"/>
<polygon fill="#63b8ff" stroke="#63b8ff" points="974.73,-7.79 964.63,-10.99 974.53,-14.78 974.73,-7.79"/>
</g>
<!-- Node18&#45;&gt;Node8 -->
<g id="edge24" class="edge">
<title>Node18&#45;&gt;Node8</title>
<path fill="none" stroke="#63b8ff" d="M2686.33,-61.24C2449.29,-52.26 1577.68,-19.24 1384.91,-11.94"/>
<polygon fill="#63b8ff" stroke="#63b8ff" points="1385.09,-8.44 1374.97,-11.56 1384.83,-15.44 1385.09,-8.44"/>
</g>
<!-- Node18&#45;&gt;Node9 -->
<g id="edge25" class="edge">
<title>Node18&#45;&gt;Node9</title>
<path fill="none" stroke="#63b8ff" d="M2686.43,-62.96C2427.7,-60.47 1375.58,-48.93 512,-19 463.22,-17.31 406.71,-14.32 372.16,-12.37"/>
<polygon fill="#63b8ff" stroke="#63b8ff" points="372.6,-8.89 362.42,-11.82 372.2,-15.88 372.6,-8.89"/>
</g>
<!-- Node18&#45;&gt;Node10 -->
<g id="edge26" class="edge">
<title>Node18&#45;&gt;Node10</title>
<path fill="none" stroke="#63b8ff" d="M2686.24,-55.79C2597.82,-44.39 2435.23,-23.43 2366.74,-14.59"/>
<polygon fill="#63b8ff" stroke="#63b8ff" points="2367.33,-11.14 2356.96,-13.33 2366.43,-18.08 2367.33,-11.14"/>
</g>
<!-- Node18&#45;&gt;Node11 -->
<g id="edge27" class="edge">
<title>Node18&#45;&gt;Node11</title>
<path fill="none" stroke="#63b8ff" d="M2805.82,-58.22C2930.66,-47.22 3215.43,-22.1 3313.26,-13.48"/>
<polygon fill="#63b8ff" stroke="#63b8ff" points="3313.34,-16.98 3323,-12.62 3312.73,-10.01 3313.34,-16.98"/>
</g>
<!-- Node18&#45;&gt;Node12 -->
<g id="edge28" class="edge">
<title>Node18&#45;&gt;Node12</title>
<path fill="none" stroke="#63b8ff" d="M2805.96,-61.74C3083.39,-53.62 4240.03,-19.75 4502.76,-12.06"/>
<polygon fill="#63b8ff" stroke="#63b8ff" points="4502.82,-15.56 4512.72,-11.77 4502.62,-8.56 4502.82,-15.56"/>
</g>
<!-- Node18&#45;&gt;Node13 -->
<g id="edge29" class="edge">
<title>Node18&#45;&gt;Node13</title>
<path fill="none" stroke="#63b8ff" d="M2805.76,-62.63C3047.99,-59.01 3980.35,-44.15 4747,-19 4801.6,-17.21 4864.73,-14.33 4904.26,-12.42"/>
<polygon fill="#63b8ff" stroke="#63b8ff" points="4904.41,-15.92 4914.23,-11.94 4904.07,-8.93 4904.41,-15.92"/>
</g>
<!-- Node18&#45;&gt;Node14 -->
<g id="edge30" class="edge">
<title>Node18&#45;&gt;Node14</title>
<path fill="none" stroke="#63b8ff" d="M2805.9,-63.37C3037.83,-62.61 3899.05,-57.22 4607,-19 4626.84,-17.93 4648.83,-16.15 4667.21,-14.49"/>
<polygon fill="#63b8ff" stroke="#63b8ff" points="4667.28,-18 4676.91,-13.6 4666.64,-11.03 4667.28,-18"/>
</g>
<!-- Node18&#45;&gt;Node15 -->
<g id="edge31" class="edge">
<title>Node18&#45;&gt;Node15</title>
<path fill="none" stroke="#63b8ff" d="M2805.93,-60.32C2990.73,-50.53 3548.71,-20.96 3704.95,-12.68"/>
<polygon fill="#63b8ff" stroke="#63b8ff" points="3705.01,-16.18 3714.81,-12.15 3704.64,-9.19 3705.01,-16.18"/>
</g>
<!-- Node18&#45;&gt;Node16 -->
<g id="edge32" class="edge">
<title>Node18&#45;&gt;Node16</title>
<path fill="none" stroke="#63b8ff" d="M2805.96,-62.36C3065.25,-57.4 4115.96,-37.2 4979,-19 5105.38,-16.33 5255.27,-12.93 5323.65,-11.36"/>
<polygon fill="#63b8ff" stroke="#63b8ff" points="5323.63,-14.86 5333.55,-11.13 5323.47,-7.86 5323.63,-14.86"/>
</g>
<!-- Node18&#45;&gt;Node17 -->
<g id="edge33" class="edge">
<title>Node18&#45;&gt;Node17</title>
<path fill="none" stroke="#63b8ff" d="M2805.85,-61.1C3033.64,-51.98 3843.09,-19.55 4030.2,-12.05"/>
<polygon fill="#63b8ff" stroke="#63b8ff" points="4030.25,-15.56 4040.1,-11.66 4029.97,-8.56 4030.25,-15.56"/>
</g>
<!-- Node19 -->
<g id="node19" class="node">
<title>Node19</title>
<g id="a_node19"><a xlink:title=" ">
<polygon fill="#e0e0e0" stroke="#999999" points="2568.5,-19 2519.5,-19 2519.5,0 2568.5,0 2568.5,-19"/>
<text text-anchor="middle" x="2544" y="-7" font-family="Helvetica,sans-Serif" font-size="10.00">ctype.h</text>
</a>
</g>
</g>
<!-- Node18&#45;&gt;Node19 -->
<g id="edge18" class="edge">
<title>Node18&#45;&gt;Node19</title>
<path fill="none" stroke="#63b8ff" d="M2711.73,-54.51C2675.01,-44.87 2616.98,-29.65 2579.71,-19.87"/>
<polygon fill="#63b8ff" stroke="#63b8ff" points="2580.88,-16.56 2570.32,-17.41 2579.11,-23.33 2580.88,-16.56"/>
</g>
<!-- Node20&#45;&gt;Node3 -->
<g id="edge36" class="edge">
<title>Node20&#45;&gt;Node3</title>
<path fill="none" stroke="#63b8ff" d="M3224.02,-109.54C3144.62,-95.65 2984.68,-69.05 2848,-55 2701.12,-39.9 2240.32,-18.35 2104.83,-12.2"/>
<polygon fill="#63b8ff" stroke="#63b8ff" points="2105.13,-8.71 2094.98,-11.75 2104.81,-15.7 2105.13,-8.71"/>
</g>
<!-- Node20&#45;&gt;Node4 -->
<g id="edge37" class="edge">
<title>Node20&#45;&gt;Node4</title>
<path fill="none" stroke="#63b8ff" d="M3203.61,-116.85C2992.64,-111.81 2347.05,-95.59 1812,-74 1329.88,-54.54 744.71,-21.69 588.75,-12.79"/>
<polygon fill="#63b8ff" stroke="#63b8ff" points="589.14,-9.3 578.96,-12.23 588.74,-16.29 589.14,-9.3"/>
</g>
<!-- Node20&#45;&gt;Node5 -->
<g id="edge38" class="edge">
<title>Node20&#45;&gt;Node5</title>
<path fill="none" stroke="#63b8ff" d="M3203.5,-114.7C3100.01,-108.51 2912.29,-94.82 2848,-74 2831.9,-68.78 2831.25,-59.74 2815,-55 2647.8,-6.17 2205.96,-27.89 2032,-19 1992.3,-16.97 1946.74,-14.37 1916.14,-12.58"/>
<polygon fill="#63b8ff" stroke="#63b8ff" points="1916.49,-9.1 1906.31,-12 1916.08,-16.08 1916.49,-9.1"/>
</g>
<!-- Node20&#45;&gt;Node6 -->
<g id="edge39" class="edge">
<title>Node20&#45;&gt;Node6</title>
<path fill="none" stroke="#63b8ff" d="M3296.49,-109.54C3322.63,-97.85 3360.02,-76.36 3342,-55 3312.54,-20.09 3171.51,-12.56 3109.9,-10.94"/>
<polygon fill="#63b8ff" stroke="#63b8ff" points="3110.28,-7.45 3100.21,-10.73 3110.13,-14.45 3110.28,-7.45"/>
</g>
<!-- Node20&#45;&gt;Node7 -->
<g id="edge40" class="edge">
<title>Node20&#45;&gt;Node7</title>
<path fill="none" stroke="#63b8ff" d="M3203.73,-115.85C3031.35,-109.3 2573.72,-91.59 2192,-74 1703.35,-51.48 1106.98,-19.18 974.78,-11.97"/>
<polygon fill="#63b8ff" stroke="#63b8ff" points="975.14,-8.48 964.96,-11.43 974.76,-15.47 975.14,-8.48"/>
</g>
<!-- Node20&#45;&gt;Node8 -->
<g id="edge41" class="edge">
<title>Node20&#45;&gt;Node8</title>
<path fill="none" stroke="#63b8ff" d="M3203.71,-114.56C2889.68,-96.96 1620.29,-25.82 1384.72,-12.61"/>
<polygon fill="#63b8ff" stroke="#63b8ff" points="1385.07,-9.13 1374.89,-12.06 1384.68,-16.12 1385.07,-9.13"/>
</g>
<!-- Node20&#45;&gt;Node9 -->
<g id="edge42" class="edge">
<title>Node20&#45;&gt;Node9</title>
<path fill="none" stroke="#63b8ff" d="M3203.9,-117.77C2956.2,-114.99 2098.96,-103.68 1392,-74 1288,-69.63 537.68,-22.86 372.23,-12.52"/>
<polygon fill="#63b8ff" stroke="#63b8ff" points="372.63,-9.03 362.43,-11.9 372.19,-16.02 372.63,-9.03"/>
</g>
<!-- Node20&#45;&gt;Node10 -->
<g id="edge43" class="edge">
<title>Node20&#45;&gt;Node10</title>
<path fill="none" stroke="#63b8ff" d="M3266.2,-109.93C3252.46,-95.5 3222.29,-66.77 3190,-55 3185.06,-53.2 2520.32,-19.79 2366.51,-12.08"/>
<polygon fill="#63b8ff" stroke="#63b8ff" points="2366.84,-8.59 2356.68,-11.59 2366.49,-15.58 2366.84,-8.59"/>
</g>
<!-- Node20&#45;&gt;Node11 -->
<g id="edge44" class="edge">
<title>Node20&#45;&gt;Node11</title>
<path fill="none" stroke="#63b8ff" d="M3325.97,-109.51C3346.37,-103.17 3367.79,-92.37 3380,-74 3390.04,-58.89 3377.89,-40.36 3365.6,-27.23"/>
<polygon fill="#63b8ff" stroke="#63b8ff" points="3368.39,-25.06 3358.81,-20.53 3363.47,-30.04 3368.39,-25.06"/>
</g>
<!-- Node20&#45;&gt;Node12 -->
<g id="edge45" class="edge">
<title>Node20&#45;&gt;Node12</title>
<path fill="none" stroke="#63b8ff" d="M3344.29,-112.58C3574.06,-93.22 4299.78,-32.08 4502.78,-14.98"/>
<polygon fill="#63b8ff" stroke="#63b8ff" points="4502.82,-18.49 4512.49,-14.17 4502.24,-11.52 4502.82,-18.49"/>
</g>
<!-- Node20&#45;&gt;Node13 -->
<g id="edge46" class="edge">
<title>Node20&#45;&gt;Node13</title>
<path fill="none" stroke="#63b8ff" d="M3344.42,-116.72C3509.91,-112.25 3936.42,-99.1 4292,-74 4322.72,-71.83 4768.92,-27.73 4904.33,-14.33"/>
<polygon fill="#63b8ff" stroke="#63b8ff" points="4904.6,-17.82 4914.21,-13.35 4903.92,-10.85 4904.6,-17.82"/>
</g>
<!-- Node20&#45;&gt;Node14 -->
<g id="edge47" class="edge">
<title>Node20&#45;&gt;Node14</title>
<path fill="none" stroke="#63b8ff" d="M3344.3,-114.03C3464.25,-106.33 3716.17,-89.86 3929,-74 4230.49,-51.53 4305.7,-43.9 4607,-19 4626.8,-17.36 4648.79,-15.52 4667.17,-13.96"/>
<polygon fill="#63b8ff" stroke="#63b8ff" points="4667.21,-17.47 4676.88,-13.14 4666.62,-10.5 4667.21,-17.47"/>
</g>
<!-- Node20&#45;&gt;Node15 -->
<g id="edge48" class="edge">
<title>Node20&#45;&gt;Node15</title>
<path fill="none" stroke="#63b8ff" d="M3313.03,-109.57C3401.16,-89.4 3614.88,-40.5 3704.92,-19.9"/>
<polygon fill="#63b8ff" stroke="#63b8ff" points="3705.59,-23.34 3714.55,-17.7 3704.03,-16.51 3705.59,-23.34"/>
</g>
<!-- Node20&#45;&gt;Node16 -->
<g id="edge49" class="edge">
<title>Node20&#45;&gt;Node16</title>
<path fill="none" stroke="#63b8ff" d="M3344.49,-117.55C3545.85,-114.53 4140.85,-103.58 4634,-74 4898.86,-58.11 5216.92,-25.72 5323.87,-14.46"/>
<polygon fill="#63b8ff" stroke="#63b8ff" points="5324.2,-17.95 5333.78,-13.42 5323.46,-10.99 5324.2,-17.95"/>
</g>
<!-- Node20&#45;&gt;Node17 -->
<g id="edge50" class="edge">
<title>Node20&#45;&gt;Node17</title>
<path fill="none" stroke="#63b8ff" d="M3340.07,-109.52C3499.98,-87.8 3903.94,-32.92 4030.48,-15.73"/>
<polygon fill="#63b8ff" stroke="#63b8ff" points="4030.91,-19.21 4040.35,-14.39 4029.97,-12.27 4030.91,-19.21"/>
</g>
<!-- Node20&#45;&gt;Node18 -->
<g id="edge51" class="edge">
<title>Node20&#45;&gt;Node18</title>
<path fill="none" stroke="#63b8ff" d="M3203.58,-111.96C3114.3,-103.59 2955.65,-88.44 2820,-74 2818.99,-73.89 2817.97,-73.78 2816.94,-73.67"/>
<polygon fill="#63b8ff" stroke="#63b8ff" points="2817.59,-70.22 2807.27,-72.62 2816.83,-77.18 2817.59,-70.22"/>
</g>
<!-- Node20&#45;&gt;Node19 -->
<g id="edge35" class="edge">
<title>Node20&#45;&gt;Node19</title>
<path fill="none" stroke="#63b8ff" d="M3270.53,-109.6C3264.41,-95.21 3250.17,-67.24 3228,-55 3171.11,-23.59 2713.33,-13.38 2580.19,-11.06"/>
<polygon fill="#63b8ff" stroke="#63b8ff" points="2580.27,-7.57 2570.21,-10.9 2580.15,-14.56 2580.27,-7.57"/>
</g>
<!-- Node21&#45;&gt;Node3 -->
<g id="edge54" class="edge">
<title>Node21&#45;&gt;Node3</title>
<path fill="none" stroke="#63b8ff" d="M2556.29,-109.58C2516.41,-96.04 2437.06,-70.27 2368,-55 2274.34,-34.29 2162.11,-20.57 2104.77,-14.34"/>
<polygon fill="#63b8ff" stroke="#63b8ff" points="2105.22,-10.87 2094.9,-13.29 2104.48,-17.83 2105.22,-10.87"/>
</g>
<!-- Node21&#45;&gt;Node4 -->
<g id="edge55" class="edge">
<title>Node21&#45;&gt;Node4</title>
<path fill="none" stroke="#63b8ff" d="M2509.52,-115.85C2341.73,-109.59 1913.64,-93.03 1556,-74 1179.47,-53.96 724.19,-22.73 588.8,-13.29"/>
<polygon fill="#63b8ff" stroke="#63b8ff" points="589.15,-9.81 578.93,-12.6 588.66,-16.79 589.15,-9.81"/>
</g>
<!-- Node21&#45;&gt;Node5 -->
<g id="edge56" class="edge">
<title>Node21&#45;&gt;Node5</title>
<path fill="none" stroke="#63b8ff" d="M2523.74,-109.52C2383.17,-87.87 2028.69,-33.25 1915.98,-15.89"/>
<polygon fill="#63b8ff" stroke="#63b8ff" points="1916.86,-12.48 1906.44,-14.42 1915.79,-19.4 1916.86,-12.48"/>
</g>
<!-- Node21&#45;&gt;Node6 -->
<g id="edge57" class="edge">
<title>Node21&#45;&gt;Node6</title>
<path fill="none" stroke="#63b8ff" d="M2587.58,-109.65C2597.15,-95.33 2618.19,-67.45 2644,-55 2716.51,-20.03 2966.62,-12.47 3052.1,-10.9"/>
<polygon fill="#63b8ff" stroke="#63b8ff" points="3052.02,-14.4 3061.96,-10.73 3051.9,-7.4 3052.02,-14.4"/>
</g>
<!-- Node21&#45;&gt;Node7 -->
<g id="edge58" class="edge">
<title>Node21&#45;&gt;Node7</title>
<path fill="none" stroke="#63b8ff" d="M2509.6,-114.58C2374.7,-107.21 2075.74,-90.51 1824,-74 1488.47,-51.99 1080.99,-20.78 974.48,-12.55"/>
<polygon fill="#63b8ff" stroke="#63b8ff" points="975.02,-9.08 964.78,-11.8 974.48,-16.06 975.02,-9.08"/>
</g>
<!-- Node21&#45;&gt;Node8 -->
<g id="edge59" class="edge">
<title>Node21&#45;&gt;Node8</title>
<path fill="none" stroke="#63b8ff" d="M2509.56,-112.84C2404.97,-104.62 2205.6,-88.73 2036,-74 1787.35,-52.41 1488.46,-24.04 1384.67,-14.11"/>
<polygon fill="#63b8ff" stroke="#63b8ff" points="1385.07,-10.64 1374.78,-13.17 1384.4,-17.6 1385.07,-10.64"/>
</g>
<!-- Node21&#45;&gt;Node9 -->
<g id="edge60" class="edge">
<title>Node21&#45;&gt;Node9</title>
<path fill="none" stroke="#63b8ff" d="M2509.66,-117.01C2309.15,-112.7 1729.35,-98.85 1248,-74 904.67,-56.27 489.14,-22.82 372.06,-13.17"/>
<polygon fill="#63b8ff" stroke="#63b8ff" points="372.53,-9.69 362.28,-12.36 371.95,-16.67 372.53,-9.69"/>
</g>
<!-- Node21&#45;&gt;Node10 -->
<g id="edge61" class="edge">
<title>Node21&#45;&gt;Node10</title>
<path fill="none" stroke="#63b8ff" d="M2563.37,-109.61C2536.96,-97.09 2487.06,-73.69 2444,-55 2417.81,-43.64 2387.76,-31.43 2365.85,-22.68"/>
<polygon fill="#63b8ff" stroke="#63b8ff" points="2367.19,-19.44 2356.61,-19 2364.6,-25.95 2367.19,-19.44"/>
</g>
<!-- Node21&#45;&gt;Node11 -->
<g id="edge62" class="edge">
<title>Node21&#45;&gt;Node11</title>
<path fill="none" stroke="#63b8ff" d="M2594.41,-109.68C2618.03,-92.97 2667.89,-58.1 2677,-55 2737.54,-34.41 3186.52,-16.43 3313.58,-11.7"/>
<polygon fill="#63b8ff" stroke="#63b8ff" points="3313.47,-15.21 3323.34,-11.35 3313.21,-8.22 3313.47,-15.21"/>
</g>
<!-- Node21&#45;&gt;Node12 -->
<g id="edge63" class="edge">
<title>Node21&#45;&gt;Node12</title>
<path fill="none" stroke="#63b8ff" d="M2654.3,-114.54C2970.61,-97.24 4229.03,-28.39 4503.12,-13.39"/>
<polygon fill="#63b8ff" stroke="#63b8ff" points="4503.01,-16.9 4512.8,-12.86 4502.63,-9.92 4503.01,-16.9"/>
</g>
<!-- Node21&#45;&gt;Node13 -->
<g id="edge64" class="edge">
<title>Node21&#45;&gt;Node13</title>
<path fill="none" stroke="#63b8ff" d="M2654.49,-116.19C2839.75,-110.2 3345.66,-93.29 3767,-74 4214.45,-53.52 4757.26,-21.59 4904.57,-12.8"/>
<polygon fill="#63b8ff" stroke="#63b8ff" points="4904.38,-16.32 4914.15,-12.23 4903.96,-9.34 4904.38,-16.32"/>
</g>
<!-- Node21&#45;&gt;Node14 -->
<g id="edge65" class="edge">
<title>Node21&#45;&gt;Node14</title>
<path fill="none" stroke="#63b8ff" d="M2654.24,-115.52C2818.97,-108.67 3235.07,-91.08 3583,-74 3639.9,-71.21 4550.16,-22.92 4607,-19 4626.82,-17.63 4648.81,-15.82 4667.19,-14.22"/>
<polygon fill="#63b8ff" stroke="#63b8ff" points="4667.25,-17.73 4676.9,-13.36 4666.63,-10.75 4667.25,-17.73"/>
</g>
<!-- Node21&#45;&gt;Node15 -->
<g id="edge66" class="edge">
<title>Node21&#45;&gt;Node15</title>
<path fill="none" stroke="#63b8ff" d="M2627.42,-109.53C2699.95,-95.56 2846.53,-68.78 2972,-55 3250.79,-24.37 3588.54,-14.12 3704.55,-11.37"/>
<polygon fill="#63b8ff" stroke="#63b8ff" points="3704.59,-14.87 3714.51,-11.14 3704.43,-7.87 3704.59,-14.87"/>
</g>
<!-- Node21&#45;&gt;Node16 -->
<g id="edge67" class="edge">
<title>Node21&#45;&gt;Node16</title>
<path fill="none" stroke="#63b8ff" d="M2654.37,-116.49C2859.02,-110.73 3459.43,-93.34 3958,-74 4501.13,-52.93 5162.21,-20.4 5323.98,-12.35"/>
<polygon fill="#63b8ff" stroke="#63b8ff" points="5323.86,-15.86 5333.67,-11.87 5323.51,-8.87 5323.86,-15.86"/>
</g>
<!-- Node21&#45;&gt;Node17 -->
<g id="edge68" class="edge">
<title>Node21&#45;&gt;Node17</title>
<path fill="none" stroke="#63b8ff" d="M2654.48,-113.24C2919.57,-93.98 3831.38,-27.76 4030.43,-13.3"/>
<polygon fill="#63b8ff" stroke="#63b8ff" points="4030.49,-16.81 4040.21,-12.59 4029.98,-9.82 4030.49,-16.81"/>
</g>
<!-- Node21&#45;&gt;Node18 -->
<g id="edge69" class="edge">
<title>Node21&#45;&gt;Node18</title>
<path fill="none" stroke="#63b8ff" d="M2609.82,-109.51C2636.64,-100.84 2677.46,-87.65 2707.42,-77.97"/>
<polygon fill="#63b8ff" stroke="#63b8ff" points="2708.44,-81.32 2716.88,-74.91 2706.29,-74.66 2708.44,-81.32"/>
</g>
<!-- Node21&#45;&gt;Node19 -->
<g id="edge53" class="edge">
<title>Node21&#45;&gt;Node19</title>
<path fill="none" stroke="#63b8ff" d="M2578.89,-109.66C2572.82,-92.42 2559.27,-53.9 2550.96,-30.27"/>
<polygon fill="#63b8ff" stroke="#63b8ff" points="2554.28,-29.16 2547.66,-20.89 2547.67,-31.48 2554.28,-29.16"/>
</g>
<!-- Node22&#45;&gt;Node3 -->
<g id="edge72" class="edge">
<title>Node22&#45;&gt;Node3</title>
<path fill="none" stroke="#63b8ff" d="M2748.02,-284.3C2507.65,-285.83 1654.04,-276.73 1504,-74 1498.98,-67.21 1498.27,-61.2 1504,-55 1512.95,-45.31 1905.08,-20.44 2029.52,-12.78"/>
<polygon fill="#63b8ff" stroke="#63b8ff" points="2029.43,-16.29 2039.2,-12.19 2029,-9.31 2029.43,-16.29"/>
</g>
<!-- Node22&#45;&gt;Node4 -->
<g id="edge73" class="edge">
<title>Node22&#45;&gt;Node4</title>
<path fill="none" stroke="#63b8ff" d="M2748.36,-283.65C2473.69,-284.05 1374.27,-282.81 1032,-239 712.37,-198.09 526.25,-326.45 326,-74 320.75,-67.38 320.64,-61.53 326,-55 348.78,-27.23 451.84,-16.45 509.55,-12.54"/>
<polygon fill="#63b8ff" stroke="#63b8ff" points="509.52,-16.05 519.28,-11.93 509.08,-9.07 509.52,-16.05"/>
</g>
<!-- Node22&#45;&gt;Node5 -->
<g id="edge74" class="edge">
<title>Node22&#45;&gt;Node5</title>
<path fill="none" stroke="#63b8ff" d="M2748.17,-282.4C2562.76,-278.86 2019.99,-266.4 1845,-239 1701.39,-216.52 1612.25,-253.36 1537,-129 1468.18,-15.27 1744.97,-8.44 1845.66,-9.62"/>
<polygon fill="#63b8ff" stroke="#63b8ff" points="1845.47,-13.11 1855.52,-9.77 1845.57,-6.12 1845.47,-13.11"/>
</g>
<!-- Node22&#45;&gt;Node6 -->
<g id="edge75" class="edge">
<title>Node22&#45;&gt;Node6</title>
<path fill="none" stroke="#63b8ff" d="M2873.99,-280.41C2968.35,-273.61 3149.94,-252.04 3287,-184 3327.3,-163.99 3348.73,-167.51 3372,-129 3389.05,-100.79 3398.51,-79.98 3377,-55 3342.77,-15.24 3178.37,-10.52 3110.45,-10.3"/>
<polygon fill="#63b8ff" stroke="#63b8ff" points="3110.46,-6.8 3100.46,-10.3 3110.46,-13.8 3110.46,-6.8"/>
</g>
<!-- Node22&#45;&gt;Node7 -->
<g id="edge76" class="edge">
<title>Node22&#45;&gt;Node7</title>
<path fill="none" stroke="#63b8ff" d="M2748.16,-282.65C2533.04,-279.52 1827.07,-267.29 1602,-239 1258.19,-195.79 1057.56,-343.71 840,-74 814.82,-42.78 881.97,-23.59 921.49,-15.29"/>
<polygon fill="#63b8ff" stroke="#63b8ff" points="922.11,-18.74 931.25,-13.36 920.76,-11.87 922.11,-18.74"/>
</g>
<!-- Node22&#45;&gt;Node8 -->
<g id="edge77" class="edge">
<title>Node22&#45;&gt;Node8</title>
<path fill="none" stroke="#63b8ff" d="M2748.26,-282.89C2522.46,-280.43 1758.98,-269.9 1654,-239 1521.9,-200.12 1402.47,-74.42 1361.78,-27.97"/>
<polygon fill="#63b8ff" stroke="#63b8ff" points="1364.49,-25.75 1355.31,-20.46 1359.19,-30.32 1364.49,-25.75"/>
</g>
<!-- Node22&#45;&gt;Node9 -->
<g id="edge78" class="edge">
<title>Node22&#45;&gt;Node9</title>
<path fill="none" stroke="#63b8ff" d="M2748.19,-283.06C2391.79,-280.46 635.78,-266.29 525,-239 395.01,-206.98 331.93,-194.2 273,-74 262.52,-52.63 286.74,-34.69 308.93,-23.39"/>
<polygon fill="#63b8ff" stroke="#63b8ff" points="310.27,-26.63 317.81,-19.18 307.27,-20.3 310.27,-26.63"/>
</g>
<!-- Node22&#45;&gt;Node10 -->
<g id="edge79" class="edge">
<title>Node22&#45;&gt;Node10</title>
<path fill="none" stroke="#63b8ff" d="M2748.05,-275.89C2676,-267.15 2554.46,-252.29 2450,-239 2236.75,-211.86 2058.47,-328.74 1979,-129 1972.9,-113.68 1963.83,-72.99 1980,-55 2001.5,-31.08 2220.53,-16.74 2303.43,-12.13"/>
<polygon fill="#63b8ff" stroke="#63b8ff" points="2303.55,-15.63 2313.35,-11.59 2303.17,-8.64 2303.55,-15.63"/>
</g>
<!-- Node22&#45;&gt;Node11 -->
<g id="edge80" class="edge">
<title>Node22&#45;&gt;Node11</title>
<path fill="none" stroke="#63b8ff" d="M2873.69,-279.9C2948,-274.73 3075.2,-263.05 3182,-239 3257,-222.11 3273.18,-208.65 3346,-184 3417.62,-159.76 3445.63,-173.18 3507,-129 3537.69,-106.91 3572.69,-84.48 3549,-55 3528.23,-29.16 3432.36,-17.45 3380.51,-12.92"/>
<polygon fill="#63b8ff" stroke="#63b8ff" points="3381.02,-9.45 3370.76,-12.12 3380.44,-16.43 3381.02,-9.45"/>
</g>
<!-- Node22&#45;&gt;Node12 -->
<g id="edge81" class="edge">
<title>Node22&#45;&gt;Node12</title>
<path fill="none" stroke="#63b8ff" d="M2873.79,-282.24C3242.9,-274.63 5114,-233.23 5114,-175.5 5114,-175.5 5114,-175.5 5114,-118.5 5114,-67.39 4748.55,-28.27 4609.15,-15.21"/>
<polygon fill="#63b8ff" stroke="#63b8ff" points="4609.73,-11.75 4599.45,-14.31 4609.08,-18.72 4609.73,-11.75"/>
</g>
<!-- Node22&#45;&gt;Node13 -->
<g id="edge82" class="edge">
<title>Node22&#45;&gt;Node13</title>
<path fill="none" stroke="#63b8ff" d="M2873.71,-283.46C3171.49,-283.05 4444.75,-278.96 4840,-239 4976.17,-225.23 5047.93,-282.46 5143,-184 5165.98,-160.2 5164.44,-140.23 5151,-110 5136.16,-76.65 5121.79,-72.94 5090,-55 5055.82,-35.71 5012.35,-23.89 4981.57,-17.33"/>
<polygon fill="#63b8ff" stroke="#63b8ff" points="4982.42,-13.93 4971.92,-15.37 4981.02,-20.79 4982.42,-13.93"/>
</g>
<!-- Node22&#45;&gt;Node14 -->
<g id="edge83" class="edge">
<title>Node22&#45;&gt;Node14</title>
<path fill="none" stroke="#63b8ff" d="M2873.95,-283.15C3236,-280.84 5039.83,-265.29 5122,-184 5239.94,-67.32 4875.44,-24.72 4749.31,-13.68"/>
<polygon fill="#63b8ff" stroke="#63b8ff" points="4749.64,-10.19 4739.38,-12.83 4749.05,-17.17 4749.64,-10.19"/>
</g>
<!-- Node22&#45;&gt;Node15 -->
<g id="edge84" class="edge">
<title>Node22&#45;&gt;Node15</title>
<path fill="none" stroke="#63b8ff" d="M2873.78,-279.99C2955.96,-274.68 3104.23,-262.61 3229,-239 3501.17,-187.5 3662.05,-294.27 3830,-74 3846.54,-52.31 3815.28,-34.34 3786.31,-23.11"/>
<polygon fill="#63b8ff" stroke="#63b8ff" points="3787.85,-19.95 3777.25,-19.81 3785.45,-26.53 3787.85,-19.95"/>
</g>
<!-- Node22&#45;&gt;Node16 -->
<g id="edge85" class="edge">
<title>Node22&#45;&gt;Node16</title>
<path fill="none" stroke="#63b8ff" d="M2873.96,-283.24C3208.39,-281.71 4769.44,-272.81 4982,-239 5189.49,-205.99 5326.65,-259.66 5425,-74 5435.64,-53.91 5413.61,-36.18 5392.55,-24.59"/>
<polygon fill="#63b8ff" stroke="#63b8ff" points="5394.28,-21.55 5383.79,-20.11 5391.09,-27.78 5394.28,-21.55"/>
</g>
<!-- Node22&#45;&gt;Node17 -->
<g id="edge86" class="edge">
<title>Node22&#45;&gt;Node17</title>
<path fill="none" stroke="#63b8ff" d="M2873.71,-280.76C2982.95,-275.57 3215.12,-262.63 3410,-239 3738.06,-199.23 3934.77,-336.9 4135,-74 4149.43,-55.05 4124.37,-36.53 4101.09,-24.43"/>
<polygon fill="#63b8ff" stroke="#63b8ff" points="4102.89,-21.41 4092.37,-20.16 4099.81,-27.7 4102.89,-21.41"/>
</g>
<!-- Node22&#45;&gt;Node18 -->
<g id="edge87" class="edge">
<title>Node22&#45;&gt;Node18</title>
<path fill="none" stroke="#63b8ff" d="M2802.29,-274.79C2794.4,-266.37 2783.11,-252.88 2777,-239 2754.04,-186.83 2748.08,-118.72 2746.54,-85.49"/>
<polygon fill="#63b8ff" stroke="#63b8ff" points="2750.04,-85.6 2746.18,-75.73 2743.05,-85.85 2750.04,-85.6"/>
</g>
<!-- Node22&#45;&gt;Node19 -->
<g id="edge71" class="edge">
<title>Node22&#45;&gt;Node19</title>
<path fill="none" stroke="#63b8ff" d="M2767.01,-274.53C2699.2,-260.97 2564.97,-235.26 2450,-220 2361.53,-208.26 2116.41,-243.62 2050,-184 2025.26,-161.79 2025.01,-140.16 2039,-110 2054.92,-75.67 2069.17,-69.79 2104,-55 2140.8,-39.37 2409.05,-19.71 2507.71,-12.93"/>
<polygon fill="#63b8ff" stroke="#63b8ff" points="2507.9,-16.43 2517.64,-12.25 2507.42,-9.44 2507.9,-16.43"/>
</g>
<!-- Node22&#45;&gt;Node20 -->
<g id="edge88" class="edge">
<title>Node22&#45;&gt;Node20</title>
<path fill="none" stroke="#63b8ff" d="M2873.64,-275.66C2978.84,-261.43 3185.14,-228.63 3242,-184 3255.96,-173.04 3264.33,-154.37 3268.99,-140.1"/>
<polygon fill="#63b8ff" stroke="#63b8ff" points="3272.24,-141.45 3271.65,-130.87 3265.52,-139.51 3272.24,-141.45"/>
</g>
<!-- Node22&#45;&gt;Node21 -->
<g id="edge89" class="edge">
<title>Node22&#45;&gt;Node21</title>
<path fill="none" stroke="#63b8ff" d="M2797.28,-274.64C2783.65,-265.79 2762.21,-251.7 2744,-239 2692.42,-203.03 2633.05,-158.88 2602.51,-135.97"/>
<polygon fill="#63b8ff" stroke="#63b8ff" points="2604.96,-133.43 2594.87,-130.22 2600.76,-139.02 2604.96,-133.43"/>
</g>
<!-- Node23 -->
<g id="node23" class="node">
<title>Node23</title>
<g id="a_node23"><a xlink:href="Iotm__TextMeshSidesetSplitter_8h.html" target="_top" xlink:title=" ">
<polygon fill="white" stroke="#666666" points="3025.5,-184 2870.5,-184 2870.5,-165 3025.5,-165 3025.5,-184"/>
<text text-anchor="middle" x="2948" y="-172" font-family="Helvetica,sans-Serif" font-size="10.00">Iotm_TextMeshSidesetSplitter.h</text>
</a>
</g>
</g>
<!-- Node22&#45;&gt;Node23 -->
<g id="edge90" class="edge">
<title>Node22&#45;&gt;Node23</title>
<path fill="none" stroke="#63b8ff" d="M2873.84,-280.2C2902.84,-275.13 2934.8,-263.78 2953,-239 2962.22,-226.45 2959.78,-208.51 2955.73,-194.89"/>
<polygon fill="#63b8ff" stroke="#63b8ff" points="2959.12,-193.98 2952.5,-185.71 2952.52,-196.31 2959.12,-193.98"/>
</g>
<!-- Node24 -->
<g id="node24" class="node">
<title>Node24</title>
<g id="a_node24"><a xlink:href="Iotm__TextMeshSidesetSkinner_8h.html" target="_top" xlink:title=" ">
<polygon fill="white" stroke="#666666" points="2944,-239 2786,-239 2786,-220 2944,-220 2944,-239"/>
<text text-anchor="middle" x="2865" y="-227" font-family="Helvetica,sans-Serif" font-size="10.00">Iotm_TextMeshSidesetSkinner.h</text>
</a>
</g>
</g>
<!-- Node22&#45;&gt;Node24 -->
<g id="edge110" class="edge">
<title>Node22&#45;&gt;Node24</title>
<path fill="none" stroke="#63b8ff" d="M2819.92,-274.75C2827.45,-267.35 2838.47,-256.54 2847.73,-247.45"/>
<polygon fill="#63b8ff" stroke="#63b8ff" points="2850.12,-250 2854.81,-240.5 2845.22,-245.01 2850.12,-250"/>
</g>
<!-- Node23&#45;&gt;Node3 -->
<g id="edge92" class="edge">
<title>Node23&#45;&gt;Node3</title>
<path fill="none" stroke="#63b8ff" d="M2870.06,-170.72C2731.97,-165.29 2449.84,-151.76 2354,-129 2253.55,-105.14 2142.77,-50.66 2093.34,-24.73"/>
<polygon fill="#63b8ff" stroke="#63b8ff" points="2095.02,-21.66 2084.54,-20.07 2091.74,-27.84 2095.02,-21.66"/>
</g>
<!-- Node23&#45;&gt;Node4 -->
<g id="edge93" class="edge">
<title>Node23&#45;&gt;Node4</title>
<path fill="none" stroke="#63b8ff" d="M2870.34,-171.87C2607.53,-166.25 1752.68,-147.02 1478,-129 1235.51,-113.09 1174.89,-106.01 934,-74 807.36,-57.17 658.37,-30.68 588.68,-17.89"/>
<polygon fill="#63b8ff" stroke="#63b8ff" points="589.36,-14.46 578.89,-16.09 588.09,-21.34 589.36,-14.46"/>
</g>
<!-- Node23&#45;&gt;Node5 -->
<g id="edge94" class="edge">
<title>Node23&#45;&gt;Node5</title>
<path fill="none" stroke="#63b8ff" d="M2870.01,-172.96C2745.68,-171.04 2495.23,-162.87 2286,-129 2189.91,-113.45 2167.39,-101.45 2074,-74 2018.09,-57.57 1953.97,-35.9 1915.52,-22.6"/>
<polygon fill="#63b8ff" stroke="#63b8ff" points="1916.94,-19.39 1906.35,-19.41 1914.64,-26 1916.94,-19.39"/>
</g>
<!-- Node23&#45;&gt;Node6 -->
<g id="edge95" class="edge">
<title>Node23&#45;&gt;Node6</title>
<path fill="none" stroke="#63b8ff" d="M2959.94,-164.75C2971.02,-156.3 2987.62,-142.8 3000,-129 3029.01,-96.67 3056.07,-53.43 3070.38,-29.12"/>
<polygon fill="#63b8ff" stroke="#63b8ff" points="3073.27,-31.11 3075.26,-20.71 3067.22,-27.6 3073.27,-31.11"/>
</g>
<!-- Node23&#45;&gt;Node7 -->
<g id="edge96" class="edge">
<title>Node23&#45;&gt;Node7</title>
<path fill="none" stroke="#63b8ff" d="M2870.06,-171.7C2687.46,-167.19 2217.78,-153.97 1826,-129 1547.27,-111.24 1475.4,-120.49 1200,-74 1116.48,-59.9 1019.95,-32.33 974.39,-18.63"/>
<polygon fill="#63b8ff" stroke="#63b8ff" points="975.48,-15.31 964.89,-15.75 973.45,-22 975.48,-15.31"/>
</g>
<!-- Node23&#45;&gt;Node8 -->
<g id="edge97" class="edge">
<title>Node23&#45;&gt;Node8</title>
<path fill="none" stroke="#63b8ff" d="M2870.31,-170.64C2614.39,-160.81 1799.53,-126.12 1542,-74 1483.24,-62.11 1417.42,-38.39 1379.24,-23.55"/>
<polygon fill="#63b8ff" stroke="#63b8ff" points="1380.78,-20.39 1370.19,-19.98 1378.21,-26.9 1380.78,-20.39"/>
</g>
<!-- Node23&#45;&gt;Node9 -->
<g id="edge98" class="edge">
<title>Node23&#45;&gt;Node9</title>
<path fill="none" stroke="#63b8ff" d="M2870.1,-171.96C2556.15,-165.67 1392.64,-141.72 1228,-129 1037.66,-114.29 991.23,-99.22 802,-74 640.12,-52.43 446.52,-25.43 371.68,-14.95"/>
<polygon fill="#63b8ff" stroke="#63b8ff" points="372.6,-11.54 362.21,-13.62 371.63,-18.47 372.6,-11.54"/>
</g>
<!-- Node23&#45;&gt;Node10 -->
<g id="edge99" class="edge">
<title>Node23&#45;&gt;Node10</title>
<path fill="none" stroke="#63b8ff" d="M2941.45,-164.6C2923.95,-141.63 2873.45,-80.34 2815,-55 2774,-37.23 2467.28,-18.13 2366.78,-12.3"/>
<polygon fill="#63b8ff" stroke="#63b8ff" points="2367.01,-8.8 2356.82,-11.72 2366.61,-15.79 2367.01,-8.8"/>
</g>
<!-- Node23&#45;&gt;Node11 -->
<g id="edge100" class="edge">
<title>Node23&#45;&gt;Node11</title>
<path fill="none" stroke="#63b8ff" d="M2970.02,-164.5C3036.65,-137.29 3236.31,-55.72 3314.8,-23.65"/>
<polygon fill="#63b8ff" stroke="#63b8ff" points="3315.71,-27.06 3323.65,-20.04 3313.07,-20.58 3315.71,-27.06"/>
</g>
<!-- Node23&#45;&gt;Node12 -->
<g id="edge101" class="edge">
<title>Node23&#45;&gt;Node12</title>
<path fill="none" stroke="#63b8ff" d="M3025.77,-165.69C3028.89,-165.45 3031.97,-165.21 3035,-165 3347.98,-142.83 4144.64,-167.98 4444,-74 4478.24,-63.25 4513.59,-41 4535.19,-25.91"/>
<polygon fill="#63b8ff" stroke="#63b8ff" points="4537.03,-28.9 4543.12,-20.23 4532.95,-23.21 4537.03,-28.9"/>
</g>
<!-- Node23&#45;&gt;Node13 -->
<g id="edge102" class="edge">
<title>Node23&#45;&gt;Node13</title>
<path fill="none" stroke="#63b8ff" d="M3025.77,-165.64C3028.88,-165.41 3031.97,-165.19 3035,-165 3586.13,-130.13 3725.81,-162.86 4277,-129 4537.66,-112.99 4619.42,-170.7 4862,-74 4887.81,-63.71 4912.15,-42.5 4927.28,-27.42"/>
<polygon fill="#63b8ff" stroke="#63b8ff" points="4929.57,-30.09 4934.02,-20.47 4924.54,-25.22 4929.57,-30.09"/>
</g>
<!-- Node23&#45;&gt;Node14 -->
<g id="edge103" class="edge">
<title>Node23&#45;&gt;Node14</title>
<path fill="none" stroke="#63b8ff" d="M3025.77,-165.64C3028.88,-165.41 3031.97,-165.19 3035,-165 3553.29,-131.73 3687,-187.95 4203,-129 4380.28,-108.75 4585.66,-48.86 4669.44,-22.82"/>
<polygon fill="#63b8ff" stroke="#63b8ff" points="4670.27,-26.23 4678.76,-19.9 4668.18,-19.55 4670.27,-26.23"/>
</g>
<!-- Node23&#45;&gt;Node15 -->
<g id="edge104" class="edge">
<title>Node23&#45;&gt;Node15</title>
<path fill="none" stroke="#63b8ff" d="M3025.78,-165.77C3028.89,-165.5 3031.97,-165.24 3035,-165 3289.35,-144.59 3361.16,-193.64 3608,-129 3662.42,-114.75 3684.01,-115.49 3722,-74 3733.09,-61.89 3739.22,-44.15 3742.5,-30.49"/>
<polygon fill="#63b8ff" stroke="#63b8ff" points="3745.89,-31.37 3744.47,-20.87 3739.04,-29.96 3745.89,-31.37"/>
</g>
<!-- Node23&#45;&gt;Node16 -->
<g id="edge105" class="edge">
<title>Node23&#45;&gt;Node16</title>
<path fill="none" stroke="#63b8ff" d="M3025.77,-165.62C3028.88,-165.39 3031.97,-165.18 3035,-165 3697.08,-124.72 3864.37,-158.96 4527,-129 4573.11,-126.92 5323.16,-106.44 5356,-74 5367.2,-62.94 5367.49,-44.55 5365.54,-30.4"/>
<polygon fill="#63b8ff" stroke="#63b8ff" points="5369.03,-30.02 5363.75,-20.84 5362.15,-31.31 5369.03,-30.02"/>
</g>
<!-- Node23&#45;&gt;Node17 -->
<g id="edge106" class="edge">
<title>Node23&#45;&gt;Node17</title>
<path fill="none" stroke="#63b8ff" d="M3025.77,-165.75C3028.89,-165.49 3031.97,-165.24 3035,-165 3310.19,-143.58 3380.25,-155.41 3655,-129 3837.57,-111.45 3937.93,-207.22 4064,-74 4074.82,-62.57 4075.15,-44.22 4073.32,-30.18"/>
<polygon fill="#63b8ff" stroke="#63b8ff" points="4076.83,-29.95 4071.62,-20.73 4069.94,-31.19 4076.83,-29.95"/>
</g>
<!-- Node23&#45;&gt;Node18 -->
<g id="edge107" class="edge">
<title>Node23&#45;&gt;Node18</title>
<path fill="none" stroke="#63b8ff" d="M2935.44,-164.63C2916.85,-151.71 2880.69,-127.37 2848,-110 2825.83,-98.22 2799.89,-86.93 2779.72,-78.67"/>
<polygon fill="#63b8ff" stroke="#63b8ff" points="2781.15,-75.48 2770.57,-74.98 2778.53,-81.97 2781.15,-75.48"/>
</g>
<!-- Node23&#45;&gt;Node19 -->
<g id="edge91" class="edge">
<title>Node23&#45;&gt;Node19</title>
<path fill="none" stroke="#63b8ff" d="M2953.41,-164.82C2960.57,-152.14 2971.24,-128.1 2962,-110 2943.04,-72.87 2924.75,-70.38 2886,-55 2830.93,-33.14 2656.6,-18.48 2580.33,-12.96"/>
<polygon fill="#63b8ff" stroke="#63b8ff" points="2580.69,-9.47 2570.47,-12.26 2580.2,-16.46 2580.69,-9.47"/>
</g>
<!-- Node23&#45;&gt;Node20 -->
<g id="edge108" class="edge">
<title>Node23&#45;&gt;Node20</title>
<path fill="none" stroke="#63b8ff" d="M3003.3,-164.51C3059.7,-155.34 3147.25,-141.11 3207.42,-131.32"/>
<polygon fill="#63b8ff" stroke="#63b8ff" points="3207.9,-134.79 3217.21,-129.73 3206.77,-127.88 3207.9,-134.79"/>
</g>
<!-- Node23&#45;&gt;Node21 -->
<g id="edge109" class="edge">
<title>Node23&#45;&gt;Node21</title>
<path fill="none" stroke="#63b8ff" d="M2885.91,-164.51C2822.06,-155.26 2722.67,-140.87 2655.07,-131.08"/>
<polygon fill="#63b8ff" stroke="#63b8ff" points="2655.98,-127.68 2645.58,-129.71 2654.98,-134.6 2655.98,-127.68"/>
</g>
<!-- Node24&#45;&gt;Node3 -->
<g id="edge112" class="edge">
<title>Node24&#45;&gt;Node3</title>
<path fill="none" stroke="#63b8ff" d="M2785.84,-226.36C2590.12,-220.8 2094.08,-204.8 2022,-184 1925.65,-156.19 1875.76,-160.48 1825,-74 1820.73,-66.72 1819.6,-61.49 1825,-55 1850.57,-24.3 1967.95,-14.71 2029.34,-11.77"/>
<polygon fill="#63b8ff" stroke="#63b8ff" points="2029.48,-15.26 2039.31,-11.33 2029.17,-8.27 2029.48,-15.26"/>
</g>
<!-- Node24&#45;&gt;Node4 -->
<g id="edge113" class="edge">
<title>Node24&#45;&gt;Node4</title>
<path fill="none" stroke="#63b8ff" d="M2785.65,-228.66C2547.03,-228.65 1815.09,-225.02 1210,-184 894.92,-162.64 698.94,-325.55 508,-74 496.19,-58.45 511.96,-39.52 527.24,-26.4"/>
<polygon fill="#63b8ff" stroke="#63b8ff" points="529.17,-29.34 534.79,-20.36 524.79,-23.88 529.17,-29.34"/>
</g>
<!-- Node24&#45;&gt;Node5 -->
<g id="edge114" class="edge">
<title>Node24&#45;&gt;Node5</title>
<path fill="none" stroke="#63b8ff" d="M2785.53,-229.18C2592.7,-230.1 2104.34,-227.87 1948,-184 1875.13,-163.55 1836.18,-147.47 1818,-74 1815.97,-65.8 1814.12,-62.5 1818,-55 1824.74,-41.99 1837.22,-31.98 1849.3,-24.77"/>
<polygon fill="#63b8ff" stroke="#63b8ff" points="1850.78,-27.95 1857.9,-20.1 1847.44,-21.8 1850.78,-27.95"/>
</g>
<!-- Node24&#45;&gt;Node6 -->
<g id="edge115" class="edge">
<title>Node24&#45;&gt;Node6</title>
<path fill="none" stroke="#63b8ff" d="M2944.31,-225.13C3070.53,-217.8 3307.55,-195.34 3353,-129 3371.63,-101.81 3379.38,-80.09 3358,-55 3326.39,-17.91 3174.95,-11.61 3110.33,-10.63"/>
<polygon fill="#63b8ff" stroke="#63b8ff" points="3110.53,-7.14 3100.49,-10.52 3110.44,-14.13 3110.53,-7.14"/>
</g>
<!-- Node24&#45;&gt;Node7 -->
<g id="edge116" class="edge">
<title>Node24&#45;&gt;Node7</title>
<path fill="none" stroke="#63b8ff" d="M2785.7,-228.75C2428.38,-229.03 979.77,-221.06 849,-74 824.33,-46.26 884.64,-25.89 921.67,-16.42"/>
<polygon fill="#63b8ff" stroke="#63b8ff" points="922.37,-19.85 931.26,-14.09 920.72,-13.05 922.37,-19.85"/>
</g>
<!-- Node24&#45;&gt;Node8 -->
<g id="edge117" class="edge">
<title>Node24&#45;&gt;Node8</title>
<path fill="none" stroke="#63b8ff" d="M2785.68,-227.26C2584.86,-223.73 2060.09,-212.05 1888,-184 1711.94,-155.3 1670.57,-132.35 1502,-74 1457.94,-58.75 1408.28,-37.7 1377.31,-24.09"/>
<polygon fill="#63b8ff" stroke="#63b8ff" points="1378.74,-20.9 1368.18,-20.05 1375.91,-27.3 1378.74,-20.9"/>
</g>
<!-- Node24&#45;&gt;Node9 -->
<g id="edge118" class="edge">
<title>Node24&#45;&gt;Node9</title>
<path fill="none" stroke="#63b8ff" d="M2785.54,-228.4C2409.67,-227.72 819.25,-222.56 601,-184 452.49,-157.76 367.67,-196.71 280,-74 266.89,-55.65 289.25,-37.2 310.29,-24.95"/>
<polygon fill="#63b8ff" stroke="#63b8ff" points="311.92,-28.05 319.03,-20.19 308.57,-21.9 311.92,-28.05"/>
</g>
<!-- Node24&#45;&gt;Node10 -->
<g id="edge119" class="edge">
<title>Node24&#45;&gt;Node10</title>
<path fill="none" stroke="#63b8ff" d="M2785.55,-226.32C2586.53,-220.58 2080.34,-204.07 2050,-184 1998.16,-149.7 1955.01,-101.72 1996,-55 2016.15,-32.03 2223.24,-17.22 2303.48,-12.3"/>
<polygon fill="#63b8ff" stroke="#63b8ff" points="2303.51,-15.81 2313.28,-11.72 2303.09,-8.82 2303.51,-15.81"/>
</g>
<!-- Node24&#45;&gt;Node11 -->
<g id="edge120" class="edge">
<title>Node24&#45;&gt;Node11</title>
<path fill="none" stroke="#63b8ff" d="M2944.14,-227.58C3029.97,-224.88 3170.35,-215.47 3287,-184 3402.24,-152.91 3467.15,-174.21 3532,-74 3567.79,-18.7 3443.1,-10.74 3380.6,-10.14"/>
<polygon fill="#63b8ff" stroke="#63b8ff" points="3380.87,-6.64 3370.86,-10.11 3380.85,-13.64 3380.87,-6.64"/>
</g>
<!-- Node24&#45;&gt;Node12 -->
<g id="edge121" class="edge">
<title>Node24&#45;&gt;Node12</title>
<path fill="none" stroke="#63b8ff" d="M2944.42,-228.19C3284.59,-226.04 4606.83,-209 4727,-74 4763.52,-32.97 4672.05,-18.39 4609.26,-13.25"/>
<polygon fill="#63b8ff" stroke="#63b8ff" points="4609.65,-9.77 4599.42,-12.51 4609.13,-16.75 4609.65,-9.77"/>
</g>
<!-- Node24&#45;&gt;Node13 -->
<g id="edge122" class="edge">
<title>Node24&#45;&gt;Node13</title>
<path fill="none" stroke="#63b8ff" d="M2944.19,-228.01C3330.14,-225.26 4998.46,-208.78 5072,-129 5081.03,-119.21 5095.65,-89 5071,-55 5050.64,-26.92 5011.28,-16.42 4981.56,-12.57"/>
<polygon fill="#63b8ff" stroke="#63b8ff" points="4982.12,-9.11 4971.8,-11.52 4981.37,-16.07 4982.12,-9.11"/>
</g>
<!-- Node24&#45;&gt;Node14 -->
<g id="edge123" class="edge">
<title>Node24&#45;&gt;Node14</title>
<path fill="none" stroke="#63b8ff" d="M2944.43,-227.24C3202.18,-222.94 4013.72,-207.83 4275,-184 4437.5,-169.18 4482.73,-179.18 4638,-129 4688.88,-112.56 4717.14,-119.64 4745,-74 4754.71,-58.1 4741.3,-39.68 4727.99,-26.79"/>
<polygon fill="#63b8ff" stroke="#63b8ff" points="4730.42,-24.26 4720.63,-20.2 4725.76,-29.48 4730.42,-24.26"/>
</g>
<!-- Node24&#45;&gt;Node15 -->
<g id="edge124" class="edge">
<title>Node24&#45;&gt;Node15</title>
<path fill="none" stroke="#63b8ff" d="M2944.16,-224.55C3039.84,-219 3205.5,-206.9 3346,-184 3556.89,-149.63 3681.32,-241.48 3814,-74 3829.1,-54.95 3802.94,-36.35 3778.82,-24.26"/>
<polygon fill="#63b8ff" stroke="#63b8ff" points="3780.64,-21.24 3770.1,-20.14 3777.65,-27.57 3780.64,-21.24"/>
</g>
<!-- Node24&#45;&gt;Node16 -->
<g id="edge125" class="edge">
<title>Node24&#45;&gt;Node16</title>
<path fill="none" stroke="#63b8ff" d="M2944.3,-227.62C3260.56,-223.98 4432.49,-209.04 4803,-184 5021.21,-169.25 5081.46,-188.2 5292,-129 5347.7,-113.34 5378.91,-122.8 5410,-74 5421.05,-56.66 5403.05,-38.2 5385.84,-25.68"/>
<polygon fill="#63b8ff" stroke="#63b8ff" points="5388.04,-22.94 5377.8,-20.23 5384.11,-28.73 5388.04,-22.94"/>
</g>
<!-- Node24&#45;&gt;Node17 -->
<g id="edge126" class="edge">
<title>Node24&#45;&gt;Node17</title>
<path fill="none" stroke="#63b8ff" d="M2944.34,-226.29C3069.9,-222.1 3321.95,-210.89 3534,-184 3796.45,-150.72 3950.1,-277.62 4119,-74 4132.5,-57.72 4112.77,-38.6 4094.26,-25.62"/>
<polygon fill="#63b8ff" stroke="#63b8ff" points="4096.42,-22.85 4086.14,-20.28 4092.57,-28.7 4096.42,-22.85"/>
</g>
<!-- Node24&#45;&gt;Node18 -->
<g id="edge127" class="edge">
<title>Node24&#45;&gt;Node18</title>
<path fill="none" stroke="#63b8ff" d="M2858.6,-219.74C2839.8,-193.98 2784.42,-118.13 2759.01,-83.33"/>
<polygon fill="#63b8ff" stroke="#63b8ff" points="2762.05,-81.54 2753.32,-75.53 2756.39,-85.67 2762.05,-81.54"/>
</g>
<!-- Node24&#45;&gt;Node19 -->
<g id="edge111" class="edge">
<title>Node24&#45;&gt;Node19</title>
<path fill="none" stroke="#63b8ff" d="M2785.79,-225.52C2586.32,-217.81 2078.27,-196.97 2066,-184 1933.49,-43.9 2375.1,-16.57 2507.58,-11.56"/>
<polygon fill="#63b8ff" stroke="#63b8ff" points="2507.67,-15.06 2517.54,-11.21 2507.42,-8.06 2507.67,-15.06"/>
</g>
<!-- Node24&#45;&gt;Node20 -->
<g id="edge128" class="edge">
<title>Node24&#45;&gt;Node20</title>
<path fill="none" stroke="#63b8ff" d="M2944.14,-224.9C3033.08,-219.74 3171.03,-208.08 3217,-184 3236.64,-173.71 3252.8,-153.75 3262.83,-138.94"/>
<polygon fill="#63b8ff" stroke="#63b8ff" points="3265.76,-140.86 3268.2,-130.55 3259.86,-137.09 3265.76,-140.86"/>
</g>
<!-- Node24&#45;&gt;Node21 -->
<g id="edge129" class="edge">
<title>Node24&#45;&gt;Node21</title>
<path fill="none" stroke="#63b8ff" d="M2841.84,-219.66C2791.99,-200.64 2674.3,-155.73 2615.98,-133.47"/>
<polygon fill="#63b8ff" stroke="#63b8ff" points="2617.48,-130.3 2606.89,-130 2614.99,-136.84 2617.48,-130.3"/>
</g>
<!-- Node25 -->
<g id="node25" class="node">
<title>Node25</title>
<g id="a_node25"><a xlink:href="Iotm__TextMeshAdjacencyGraph_8h.html" target="_top" xlink:title=" ">
<polygon fill="white" stroke="#666666" points="3208,-184 3044,-184 3044,-165 3208,-165 3208,-184"/>
<text text-anchor="middle" x="3126" y="-172" font-family="Helvetica,sans-Serif" font-size="10.00">Iotm_TextMeshAdjacencyGraph.h</text>
</a>
</g>
</g>
<!-- Node24&#45;&gt;Node25 -->
<g id="edge130" class="edge">
<title>Node24&#45;&gt;Node25</title>
<path fill="none" stroke="#63b8ff" d="M2909.28,-219.51C2953.84,-210.46 3022.69,-196.48 3070.8,-186.71"/>
<polygon fill="#63b8ff" stroke="#63b8ff" points="3071.36,-190.17 3080.46,-184.75 3069.96,-183.31 3071.36,-190.17"/>
</g>
<!-- Node25&#45;&gt;Node3 -->
<g id="edge132" class="edge">
<title>Node25&#45;&gt;Node3</title>
<path fill="none" stroke="#63b8ff" d="M3043.67,-165.71C3040.74,-165.47 3037.85,-165.23 3035,-165 2797.89,-145.94 2735.57,-168.52 2501,-129 2350.45,-103.63 2176.78,-47.92 2103.07,-22.99"/>
<polygon fill="#63b8ff" stroke="#63b8ff" points="2104.55,-19.8 2093.96,-19.89 2102.3,-26.42 2104.55,-19.8"/>
</g>
<!-- Node25&#45;&gt;Node4 -->
<g id="edge133" class="edge">
<title>Node25&#45;&gt;Node4</title>
<path fill="none" stroke="#63b8ff" d="M3043.68,-165.6C3040.75,-165.39 3037.85,-165.18 3035,-165 2593.41,-136.41 2481.9,-152.33 2040,-129 1687.64,-110.4 1599.72,-102.19 1248,-74 996.83,-53.87 695.37,-24.83 588.73,-14.41"/>
<polygon fill="#63b8ff" stroke="#63b8ff" points="589.08,-10.93 578.79,-13.43 588.4,-17.89 589.08,-10.93"/>
</g>
<!-- Node25&#45;&gt;Node5 -->
<g id="edge134" class="edge">
<title>Node25&#45;&gt;Node5</title>
<path fill="none" stroke="#63b8ff" d="M3043.67,-165.68C3040.75,-165.44 3037.85,-165.21 3035,-165 2754.45,-143.91 2681.59,-168.28 2403,-129 2306.3,-115.37 2016.52,-44.24 1915.89,-19.22"/>
<polygon fill="#63b8ff" stroke="#63b8ff" points="1916.87,-15.86 1906.32,-16.84 1915.18,-22.65 1916.87,-15.86"/>
</g>
<!-- Node25&#45;&gt;Node6 -->
<g id="edge135" class="edge">
<title>Node25&#45;&gt;Node6</title>
<path fill="none" stroke="#63b8ff" d="M3126.67,-164.51C3127.86,-144.2 3128.94,-93.56 3114,-55 3110.24,-45.29 3103.76,-35.83 3097.53,-28.15"/>
<polygon fill="#63b8ff" stroke="#63b8ff" points="3100.19,-25.88 3090.99,-20.63 3094.91,-30.47 3100.19,-25.88"/>
</g>
<!-- Node25&#45;&gt;Node7 -->
<g id="edge136" class="edge">
<title>Node25&#45;&gt;Node7</title>
<path fill="none" stroke="#63b8ff" d="M3043.68,-165.61C3040.75,-165.39 3037.85,-165.19 3035,-165 2629.35,-138.09 2523.84,-183.67 2121,-129 2084.36,-124.03 2076.55,-115.61 2040,-110 1826.79,-77.27 1770.85,-93.21 1556,-74 1331.05,-53.89 1059.95,-23.34 974.87,-13.6"/>
<polygon fill="#63b8ff" stroke="#63b8ff" points="975.32,-10.12 964.99,-12.46 974.53,-17.08 975.32,-10.12"/>
</g>
<!-- Node25&#45;&gt;Node8 -->
<g id="edge137" class="edge">
<title>Node25&#45;&gt;Node8</title>
<path fill="none" stroke="#63b8ff" d="M3043.67,-165.65C3040.75,-165.42 3037.85,-165.2 3035,-165 2708.77,-141.79 2625.96,-155.78 2300,-129 2193.88,-120.28 1929.67,-87.14 1824,-74 1660.04,-53.62 1464.72,-26.83 1384.36,-15.7"/>
<polygon fill="#63b8ff" stroke="#63b8ff" points="1385.24,-12.29 1374.85,-14.38 1384.28,-19.22 1385.24,-12.29"/>
</g>
<!-- Node25&#45;&gt;Node9 -->
<g id="edge138" class="edge">
<title>Node25&#45;&gt;Node9</title>
<path fill="none" stroke="#63b8ff" d="M3043.68,-165.57C3040.75,-165.36 3037.85,-165.17 3035,-165 2449.62,-129.71 2301.73,-157.87 1716,-129 1372.88,-112.09 1287.21,-104.16 945,-74 725.73,-54.68 462.49,-24.73 372.21,-14.26"/>
<polygon fill="#63b8ff" stroke="#63b8ff" points="372.71,-10.8 362.38,-13.12 371.91,-17.75 372.71,-10.8"/>
</g>
<!-- Node25&#45;&gt;Node10 -->
<g id="edge139" class="edge">
<title>Node25&#45;&gt;Node10</title>
<path fill="none" stroke="#63b8ff" d="M3109.84,-164.54C3067.74,-141.69 2950.6,-81.19 2845,-55 2753.48,-32.31 2463.33,-16.66 2366.68,-11.97"/>
<polygon fill="#63b8ff" stroke="#63b8ff" points="2367.03,-8.48 2356.88,-11.5 2366.7,-15.48 2367.03,-8.48"/>
</g>
<!-- Node25&#45;&gt;Node11 -->
<g id="edge140" class="edge">
<title>Node25&#45;&gt;Node11</title>
<path fill="none" stroke="#63b8ff" d="M3208.37,-171.45C3253.92,-167 3309.85,-155.82 3353,-129 3385.12,-109.04 3410.13,-89.66 3395,-55 3389.95,-43.44 3380.26,-33.54 3370.9,-26.03"/>
<polygon fill="#63b8ff" stroke="#63b8ff" points="3373.17,-23.36 3363.05,-20.25 3369.02,-29 3373.17,-23.36"/>
</g>
<!-- Node25&#45;&gt;Node12 -->
<g id="edge141" class="edge">
<title>Node25&#45;&gt;Node12</title>
<path fill="none" stroke="#63b8ff" d="M3208.22,-173C3462.49,-171.1 4233.86,-162.64 4482,-129 4585.29,-115 4645.51,-155.9 4710,-74 4740.05,-35.84 4664.41,-20.42 4608.81,-14.33"/>
<polygon fill="#63b8ff" stroke="#63b8ff" points="4609.45,-10.88 4599.15,-13.35 4608.74,-17.84 4609.45,-10.88"/>
</g>
<!-- Node25&#45;&gt;Node13 -->
<g id="edge142" class="edge">
<title>Node25&#45;&gt;Node13</title>
<path fill="none" stroke="#63b8ff" d="M3208.44,-173.15C3572.46,-171.42 5019.31,-162.45 5052,-129 5074.99,-105.48 5070.34,-82.3 5052,-55 5036.35,-31.71 5006.15,-20.6 4981.5,-15.31"/>
<polygon fill="#63b8ff" stroke="#63b8ff" points="4982.24,-11.89 4971.77,-13.49 4980.95,-18.77 4982.24,-11.89"/>
</g>
<!-- Node25&#45;&gt;Node14 -->
<g id="edge143" class="edge">
<title>Node25&#45;&gt;Node14</title>
<path fill="none" stroke="#63b8ff" d="M3208.34,-173.3C3529,-172.26 4679.84,-165.95 4748,-129 4780.5,-111.38 4804.57,-86.97 4786,-55 4777.68,-40.68 4762.84,-30.58 4748.32,-23.67"/>
<polygon fill="#63b8ff" stroke="#63b8ff" points="4749.86,-20.52 4739.29,-19.78 4747.09,-26.95 4749.86,-20.52"/>
</g>
<!-- Node25&#45;&gt;Node15 -->
<g id="edge144" class="edge">
<title>Node25&#45;&gt;Node15</title>
<path fill="none" stroke="#63b8ff" d="M3208.24,-174.08C3370.5,-173.28 3722.69,-161.28 3798,-74 3812.09,-57.66 3791.32,-38.44 3772,-25.46"/>
<polygon fill="#63b8ff" stroke="#63b8ff" points="3774.11,-22.65 3763.79,-20.26 3770.37,-28.56 3774.11,-22.65"/>
</g>
<!-- Node25&#45;&gt;Node16 -->
<g id="edge145" class="edge">
<title>Node25&#45;&gt;Node16</title>
<path fill="none" stroke="#63b8ff" d="M3208.33,-173C3569.52,-170.65 5004.69,-159.45 5204,-129 5290.9,-115.72 5341.18,-144.28 5394,-74 5405.02,-59.34 5392.35,-40.46 5379.65,-27.11"/>
<polygon fill="#63b8ff" stroke="#63b8ff" points="5382.25,-24.76 5372.64,-20.29 5377.37,-29.77 5382.25,-24.76"/>
</g>
<!-- Node25&#45;&gt;Node17 -->
<g id="edge146" class="edge">
<title>Node25&#45;&gt;Node17</title>
<path fill="none" stroke="#63b8ff" d="M3208.28,-172.8C3437.97,-170.46 4071.33,-161.1 4102,-129 4124.72,-105.22 4112.32,-86.23 4102,-55 4098.7,-45 4092.18,-35.42 4085.81,-27.72"/>
<polygon fill="#63b8ff" stroke="#63b8ff" points="4088.62,-25.61 4079.34,-20.49 4083.4,-30.28 4088.62,-25.61"/>
</g>
<!-- Node25&#45;&gt;Node18 -->
<g id="edge147" class="edge">
<title>Node25&#45;&gt;Node18</title>
<path fill="none" stroke="#63b8ff" d="M3094.58,-164.57C3026.45,-145.21 2865.07,-99.34 2788.17,-77.49"/>
<polygon fill="#63b8ff" stroke="#63b8ff" points="2789.49,-74.22 2778.91,-74.85 2787.58,-80.95 2789.49,-74.22"/>
</g>
<!-- Node25&#45;&gt;Node19 -->
<g id="edge131" class="edge">
<title>Node25&#45;&gt;Node19</title>
<path fill="none" stroke="#63b8ff" d="M3125.28,-164.8C3122.92,-142.28 3113.24,-82.01 3076,-55 3036,-25.99 2693.55,-14.43 2580.24,-11.38"/>
<polygon fill="#63b8ff" stroke="#63b8ff" points="2580.39,-7.89 2570.3,-11.12 2580.21,-14.88 2580.39,-7.89"/>
</g>
<!-- Node25&#45;&gt;Node20 -->
<g id="edge148" class="edge">
<title>Node25&#45;&gt;Node20</title>
<path fill="none" stroke="#63b8ff" d="M3151.11,-164.51C3175.17,-155.89 3211.72,-142.8 3238.71,-133.14"/>
<polygon fill="#63b8ff" stroke="#63b8ff" points="3239.61,-136.53 3247.84,-129.87 3237.25,-129.94 3239.61,-136.53"/>
</g>
<!-- Node26&#45;&gt;Node3 -->
<g id="edge151" class="edge">
<title>Node26&#45;&gt;Node3</title>
<path fill="none" stroke="#63b8ff" d="M2075.32,-174.02C1992.03,-173.15 1854.15,-165.96 1822,-129 1803.92,-108.22 1824.28,-72.53 1846,-55 1873.74,-32.62 1973.87,-19.56 2029.35,-13.89"/>
<polygon fill="#63b8ff" stroke="#63b8ff" points="2029.68,-17.37 2039.29,-12.9 2028.99,-10.4 2029.68,-17.37"/>
</g>
<!-- Node26&#45;&gt;Node4 -->
<g id="edge152" class="edge">
<title>Node26&#45;&gt;Node4</title>
<path fill="none" stroke="#63b8ff" d="M2075.2,-172.03C1779.37,-165.02 569.21,-132.81 516,-74 503.44,-60.11 517.1,-40.57 530.47,-26.84"/>
<polygon fill="#63b8ff" stroke="#63b8ff" points="532.62,-29.63 537.42,-20.19 527.78,-24.57 532.62,-29.63"/>
</g>
<!-- Node26&#45;&gt;Node5 -->
<g id="edge153" class="edge">
<title>Node26&#45;&gt;Node5</title>
<path fill="none" stroke="#63b8ff" d="M2075.13,-174.35C1989.45,-173.91 1845.46,-167.3 1812,-129 1799.78,-115.01 1807.92,-81.9 1825,-55 1832.49,-43.2 1844.22,-33.18 1855.01,-25.65"/>
<polygon fill="#63b8ff" stroke="#63b8ff" points="1856.78,-28.67 1863.24,-20.28 1852.95,-22.81 1856.78,-28.67"/>
</g>
<!-- Node26&#45;&gt;Node6 -->
<g id="edge154" class="edge">
<title>Node26&#45;&gt;Node6</title>
<path fill="none" stroke="#63b8ff" d="M2161.33,-164.59C2216.81,-141.85 2370.7,-81.6 2505,-55 2711.77,-14.05 2967.25,-10.34 3052.1,-10.33"/>
<polygon fill="#63b8ff" stroke="#63b8ff" points="3051.84,-13.83 3061.84,-10.35 3051.85,-6.83 3051.84,-13.83"/>
</g>
<!-- Node26&#45;&gt;Node7 -->
<g id="edge155" class="edge">
<title>Node26&#45;&gt;Node7</title>
<path fill="none" stroke="#63b8ff" d="M2075.29,-170.9C1820.69,-160.34 899.79,-119.16 858,-74 834.78,-48.91 887.89,-27.89 922.04,-17.5"/>
<polygon fill="#63b8ff" stroke="#63b8ff" points="922.67,-20.96 931.3,-14.81 920.72,-14.23 922.67,-20.96"/>
</g>
<!-- Node26&#45;&gt;Node8 -->
<g id="edge156" class="edge">
<title>Node26&#45;&gt;Node8</title>
<path fill="none" stroke="#63b8ff" d="M2075.01,-167.31C2006.86,-160.27 1896.83,-147.32 1803,-129 1645.37,-98.23 1461.3,-44.95 1384.07,-21.79"/>
<polygon fill="#63b8ff" stroke="#63b8ff" points="1385.5,-18.57 1374.91,-19.04 1383.48,-25.27 1385.5,-18.57"/>
</g>
<!-- Node26&#45;&gt;Node9 -->
<g id="edge157" class="edge">
<title>Node26&#45;&gt;Node9</title>
<path fill="none" stroke="#63b8ff" d="M2075.15,-173.8C1872.41,-174.24 1232.61,-171.87 705,-129 518.68,-113.86 411.24,-214.56 288,-74 273.78,-57.78 294.57,-38.53 313.93,-25.51"/>
<polygon fill="#63b8ff" stroke="#63b8ff" points="315.59,-28.6 322.17,-20.3 311.85,-22.69 315.59,-28.6"/>
</g>
<!-- Node26&#45;&gt;Node10 -->
<g id="edge158" class="edge">
<title>Node26&#45;&gt;Node10</title>
<path fill="none" stroke="#63b8ff" d="M2075.25,-173.74C2001.82,-171.68 1897.02,-160.27 1936,-110 1981.55,-51.26 2216.99,-22.25 2303.27,-13.46"/>
<polygon fill="#63b8ff" stroke="#63b8ff" points="2303.53,-16.96 2313.14,-12.49 2302.84,-9.99 2303.53,-16.96"/>
</g>
<!-- Node26&#45;&gt;Node11 -->
<g id="edge159" class="edge">
<title>Node26&#45;&gt;Node11</title>
<path fill="none" stroke="#63b8ff" d="M2171.42,-164.51C2264.24,-138.02 2533.29,-61.65 2574,-55 2647.64,-42.96 3175,-18.33 3313.67,-12.01"/>
<polygon fill="#63b8ff" stroke="#63b8ff" points="3313.44,-15.52 3323.27,-11.57 3313.12,-8.53 3313.44,-15.52"/>
</g>
<!-- Node26&#45;&gt;Node12 -->
<g id="edge160" class="edge">
<title>Node26&#45;&gt;Node12</title>
<path fill="none" stroke="#63b8ff" d="M2204.57,-166.7C2212.13,-166.05 2219.73,-165.46 2227,-165 2767.04,-130.67 2904.12,-165.7 3444,-129 3852.65,-101.22 4342.97,-38.75 4502.82,-17.63"/>
<polygon fill="#63b8ff" stroke="#63b8ff" points="4503.24,-21.11 4512.69,-16.32 4502.32,-14.17 4503.24,-21.11"/>
</g>
<!-- Node26&#45;&gt;Node13 -->
<g id="edge161" class="edge">
<title>Node26&#45;&gt;Node13</title>
<path fill="none" stroke="#63b8ff" d="M2204.57,-166.66C2212.13,-166.02 2219.73,-165.44 2227,-165 2881.98,-125.07 3047.97,-168.1 3703,-129 3960.59,-113.62 4024.12,-98.54 4281,-74 4517.87,-51.37 4802.39,-24.02 4904.33,-14.22"/>
<polygon fill="#63b8ff" stroke="#63b8ff" points="4904.44,-17.72 4914.06,-13.28 4903.77,-10.76 4904.44,-17.72"/>
</g>
<!-- Node26&#45;&gt;Node14 -->
<g id="edge162" class="edge">
<title>Node26&#45;&gt;Node14</title>
<path fill="none" stroke="#63b8ff" d="M2204.57,-166.68C2212.13,-166.03 2219.73,-165.45 2227,-165 2821.18,-128.03 2971.94,-167.75 3566,-129 3997.86,-100.83 4518.64,-35.2 4666.86,-15.92"/>
<polygon fill="#63b8ff" stroke="#63b8ff" points="4667.11,-19.42 4676.57,-14.65 4666.21,-12.48 4667.11,-19.42"/>
</g>
<!-- Node26&#45;&gt;Node15 -->
<g id="edge163" class="edge">
<title>Node26&#45;&gt;Node15</title>
<path fill="none" stroke="#63b8ff" d="M2204.6,-167.08C2212.15,-166.36 2219.74,-165.65 2227,-165 2420.65,-147.55 2469.45,-147.58 2663,-129 3070.01,-89.94 3561.88,-32.35 3705.07,-15.38"/>
<polygon fill="#63b8ff" stroke="#63b8ff" points="3705.29,-18.87 3714.81,-14.22 3704.47,-11.92 3705.29,-18.87"/>
</g>
<!-- Node26&#45;&gt;Node16 -->
<g id="edge164" class="edge">
<title>Node26&#45;&gt;Node16</title>
<path fill="none" stroke="#63b8ff" d="M2204.57,-166.65C2212.13,-166.01 2219.73,-165.44 2227,-165 2941.45,-122.17 3121.85,-157.89 3837,-129 4255.59,-112.09 4360.52,-108.91 4778,-74 4984.79,-56.71 5231.85,-26.7 5323.98,-15.18"/>
<polygon fill="#63b8ff" stroke="#63b8ff" points="5324.2,-18.68 5333.68,-13.97 5323.33,-11.74 5324.2,-18.68"/>
</g>
<!-- Node26&#45;&gt;Node17 -->
<g id="edge165" class="edge">
<title>Node26&#45;&gt;Node17</title>
<path fill="none" stroke="#63b8ff" d="M2204.57,-166.72C2212.13,-166.06 2219.73,-165.47 2227,-165 2726.65,-132.64 2854.7,-177.98 3353,-129 3613.76,-103.37 3923.34,-41.18 4030.36,-18.75"/>
<polygon fill="#63b8ff" stroke="#63b8ff" points="4030.98,-22.19 4040.05,-16.71 4029.54,-15.34 4030.98,-22.19"/>
</g>
<!-- Node26&#45;&gt;Node18 -->
<g id="edge166" class="edge">
<title>Node26&#45;&gt;Node18</title>
<path fill="none" stroke="#63b8ff" d="M2190.37,-164.52C2300.97,-144.81 2564.78,-97.8 2684.74,-76.42"/>
<polygon fill="#63b8ff" stroke="#63b8ff" points="2685.17,-79.9 2694.4,-74.7 2683.94,-73 2685.17,-79.9"/>
</g>
<!-- Node26&#45;&gt;Node19 -->
<g id="edge150" class="edge">
<title>Node26&#45;&gt;Node19</title>
<path fill="none" stroke="#63b8ff" d="M2133.98,-164.69C2125.72,-151.42 2113.28,-126.14 2126,-110 2173.56,-49.67 2415.18,-22.01 2507.8,-13.5"/>
<polygon fill="#63b8ff" stroke="#63b8ff" points="2507.93,-17 2517.58,-12.63 2507.31,-10.03 2507.93,-17"/>
</g>
<!-- Node26&#45;&gt;Node21 -->
<g id="edge167" class="edge">
<title>Node26&#45;&gt;Node21</title>
<path fill="none" stroke="#63b8ff" d="M2204.74,-165.74C2282.54,-156.41 2413.22,-140.74 2498.53,-130.51"/>
<polygon fill="#63b8ff" stroke="#63b8ff" points="2498.72,-134.01 2508.23,-129.35 2497.89,-127.06 2498.72,-134.01"/>
</g>
<!-- Node27&#45;&gt;Node3 -->
<g id="edge170" class="edge">
<title>Node27&#45;&gt;Node3</title>
<path fill="none" stroke="#63b8ff" d="M2235.59,-166.12C2164.75,-157.68 2061.9,-143.18 2050,-129 2026.37,-100.85 2043.5,-55.05 2056.35,-29.41"/>
<polygon fill="#63b8ff" stroke="#63b8ff" points="2059.32,-31.29 2060.92,-20.82 2053.13,-28 2059.32,-31.29"/>
</g>
<!-- Node27&#45;&gt;Node4 -->
<g id="edge171" class="edge">
<title>Node27&#45;&gt;Node4</title>
<path fill="none" stroke="#63b8ff" d="M2235.7,-166.72C2228.05,-166.08 2220.36,-165.49 2213,-165 1786.51,-136.89 1678.69,-153.79 1252,-129 1213.17,-126.74 581.5,-101.51 554,-74 542.87,-62.87 542.57,-44.49 544.5,-30.36"/>
<polygon fill="#63b8ff" stroke="#63b8ff" points="547.89,-31.29 546.27,-20.82 541,-30.01 547.89,-31.29"/>
</g>
<!-- Node27&#45;&gt;Node5 -->
<g id="edge172" class="edge">
<title>Node27&#45;&gt;Node5</title>
<path fill="none" stroke="#63b8ff" d="M2235.52,-165.95C2168.79,-157.82 2071.76,-144.01 2037,-129 1979.49,-104.16 1923.99,-53.73 1897.37,-27.38"/>
<polygon fill="#63b8ff" stroke="#63b8ff" points="1900.08,-25.15 1890.55,-20.52 1895.11,-30.08 1900.08,-25.15"/>
</g>
<!-- Node27&#45;&gt;Node6 -->
<g id="edge173" class="edge">
<title>Node27&#45;&gt;Node6</title>
<path fill="none" stroke="#63b8ff" d="M2318.16,-164.52C2357.68,-141.61 2467.74,-80.98 2568,-55 2660.66,-30.99 2957.24,-16.01 3051.76,-11.75"/>
<polygon fill="#63b8ff" stroke="#63b8ff" points="3051.89,-15.25 3061.72,-11.31 3051.58,-8.26 3051.89,-15.25"/>
</g>
<!-- Node27&#45;&gt;Node7 -->
<g id="edge174" class="edge">
<title>Node27&#45;&gt;Node7</title>
<path fill="none" stroke="#63b8ff" d="M2235.7,-166.81C2228.05,-166.15 2220.36,-165.53 2213,-165 2079.3,-155.41 1130.3,-133.14 1010,-74 989.1,-63.73 971.27,-43.45 960.17,-28.57"/>
<polygon fill="#63b8ff" stroke="#63b8ff" points="963.12,-26.68 954.48,-20.55 957.41,-30.73 963.12,-26.68"/>
</g>
<!-- Node27&#45;&gt;Node8 -->
<g id="edge175" class="edge">
<title>Node27&#45;&gt;Node8</title>
<path fill="none" stroke="#63b8ff" d="M2235.68,-167.01C2228.03,-166.32 2220.35,-165.63 2213,-165 2117.15,-156.78 1417.95,-144.04 1352,-74 1341.21,-62.54 1340.87,-44.2 1342.7,-30.17"/>
<polygon fill="#63b8ff" stroke="#63b8ff" points="1346.07,-31.18 1344.39,-20.72 1339.18,-29.95 1346.07,-31.18"/>
</g>
<!-- Node27&#45;&gt;Node9 -->
<g id="edge176" class="edge">
<title>Node27&#45;&gt;Node9</title>
<path fill="none" stroke="#63b8ff" d="M2235.71,-166.65C2228.06,-166.01 2220.36,-165.45 2213,-165 1617.88,-128.95 1466.86,-169.12 872,-129 815.35,-125.18 408.9,-108.75 364,-74 350.59,-63.62 344.67,-44.86 342.06,-30.41"/>
<polygon fill="#63b8ff" stroke="#63b8ff" points="345.55,-30.07 340.72,-20.64 338.61,-31.02 345.55,-30.07"/>
</g>
<!-- Node27&#45;&gt;Node10 -->
<g id="edge177" class="edge">
<title>Node27&#45;&gt;Node10</title>
<path fill="none" stroke="#63b8ff" d="M2289.2,-164.52C2260.4,-144.65 2198.77,-95.53 2226,-55 2243.2,-29.4 2277.99,-18.52 2303.66,-13.9"/>
<polygon fill="#63b8ff" stroke="#63b8ff" points="2303.88,-17.41 2313.22,-12.42 2302.81,-10.49 2303.88,-17.41"/>
</g>
<!-- Node27&#45;&gt;Node11 -->
<g id="edge178" class="edge">
<title>Node27&#45;&gt;Node11</title>
<path fill="none" stroke="#63b8ff" d="M2325.76,-164.66C2391.09,-139.41 2578.66,-67.99 2643,-55 2709.06,-41.66 3182.04,-18.36 3313.3,-12.09"/>
<polygon fill="#63b8ff" stroke="#63b8ff" points="3313.23,-15.6 3323.06,-11.63 3312.9,-8.61 3313.23,-15.6"/>
</g>
<!-- Node27&#45;&gt;Node12 -->
<g id="edge179" class="edge">
<title>Node27&#45;&gt;Node12</title>
<path fill="none" stroke="#63b8ff" d="M2370.16,-172.67C2624.26,-169.36 3526.92,-155.92 3813,-129 4073.79,-104.46 4381.92,-45.66 4503.2,-21.32"/>
<polygon fill="#63b8ff" stroke="#63b8ff" points="4503.75,-24.78 4512.86,-19.38 4502.37,-17.92 4503.75,-24.78"/>
</g>
<!-- Node27&#45;&gt;Node13 -->
<g id="edge180" class="edge">
<title>Node27&#45;&gt;Node13</title>
<path fill="none" stroke="#63b8ff" d="M2370.29,-172.45C2643.92,-168.05 3673.86,-150.39 3999,-129 4231.34,-113.71 4289.04,-103.51 4520,-74 4662.29,-55.82 4830.68,-28.92 4904.78,-16.81"/>
<polygon fill="#63b8ff" stroke="#63b8ff" points="4905.04,-20.32 4914.35,-15.24 4903.91,-13.41 4905.04,-20.32"/>
</g>
<!-- Node27&#45;&gt;Node14 -->
<g id="edge181" class="edge">
<title>Node27&#45;&gt;Node14</title>
<path fill="none" stroke="#63b8ff" d="M2370.22,-172.69C2634.35,-169.34 3601.36,-155.5 3907,-129 4075.26,-114.41 4115.93,-98.7 4283,-74 4424.1,-53.14 4591.49,-28.02 4667.2,-16.64"/>
<polygon fill="#63b8ff" stroke="#63b8ff" points="4667.25,-20.17 4676.62,-15.22 4666.21,-13.25 4667.25,-20.17"/>
</g>
<!-- Node27&#45;&gt;Node15 -->
<g id="edge182" class="edge">
<title>Node27&#45;&gt;Node15</title>
<path fill="none" stroke="#63b8ff" d="M2370.26,-172.85C2570.87,-170.55 3162.87,-161.17 3353,-129 3489.83,-105.85 3645.9,-49.35 3712.76,-23.63"/>
<polygon fill="#63b8ff" stroke="#63b8ff" points="3713.97,-26.92 3722.03,-20.04 3711.45,-20.39 3713.97,-26.92"/>
</g>
<!-- Node27&#45;&gt;Node16 -->
<g id="edge183" class="edge">
<title>Node27&#45;&gt;Node16</title>
<path fill="none" stroke="#63b8ff" d="M2370.46,-172.43C2753.94,-166.35 4643.29,-136.06 4672,-129 4690.34,-124.49 4691.91,-115.41 4710,-110 4840.34,-71 4879.46,-94.26 5014,-74 5127.74,-56.88 5261.36,-30.7 5324.47,-17.97"/>
<polygon fill="#63b8ff" stroke="#63b8ff" points="5324.82,-21.47 5333.93,-16.06 5323.43,-14.61 5324.82,-21.47"/>
</g>
<!-- Node27&#45;&gt;Node17 -->
<g id="edge184" class="edge">
<title>Node27&#45;&gt;Node17</title>
<path fill="none" stroke="#63b8ff" d="M2370.27,-172.26C2606.02,-167.75 3394.16,-151.33 3646,-129 3815.98,-113.93 3881.39,-164.6 4026,-74 4042.56,-63.63 4054.26,-44.28 4061.24,-29.65"/>
<polygon fill="#63b8ff" stroke="#63b8ff" points="4064.4,-31.15 4065.21,-20.58 4057.99,-28.34 4064.4,-31.15"/>
</g>
<!-- Node27&#45;&gt;Node18 -->
<g id="edge185" class="edge">
<title>Node27&#45;&gt;Node18</title>
<path fill="none" stroke="#63b8ff" d="M2370.33,-169.4C2459.49,-163.25 2611.48,-150.06 2663,-129 2689.11,-118.33 2714.12,-97.19 2729.74,-82.24"/>
<polygon fill="#63b8ff" stroke="#63b8ff" points="2732.06,-84.87 2736.71,-75.35 2727.14,-79.89 2732.06,-84.87"/>
</g>
<!-- Node27&#45;&gt;Node19 -->
<g id="edge169" class="edge">
<title>Node27&#45;&gt;Node19</title>
<path fill="none" stroke="#63b8ff" d="M2305.96,-164.79C2313.89,-142.77 2337.79,-84.58 2378,-55 2416.44,-26.73 2471.63,-16.41 2507.65,-12.65"/>
<polygon fill="#63b8ff" stroke="#63b8ff" points="2507.93,-16.14 2517.57,-11.75 2507.29,-9.17 2507.93,-16.14"/>
</g>
<!-- Node27&#45;&gt;Node21 -->
<g id="edge186" class="edge">
<title>Node27&#45;&gt;Node21</title>
<path fill="none" stroke="#63b8ff" d="M2350.33,-164.51C2398.17,-155.42 2472.19,-141.36 2523.64,-131.59"/>
<polygon fill="#63b8ff" stroke="#63b8ff" points="2524.25,-135.03 2533.42,-129.73 2522.94,-128.16 2524.25,-135.03"/>
</g>
</g>
</svg>
        <g id="navigator" transform="translate(0 0)" fill="#404254">
                <rect fill="#f2f5e9" fill-opacity="0.5" stroke="#606060" stroke-width=".5" x="0" y="0" width="60" height="60"/>
                <use id="zoomplus" xlink:href="#zoomPlus" x="17" y="9" onmousedown="handleZoom(evt,'in')"/>
                <use id="zoomminus" xlink:href="#zoomMin" x="42" y="9" onmousedown="handleZoom(evt,'out')"/>
                <use id="reset" xlink:href="#resetDef" x="30" y="36" onmousedown="handleReset()"/>
                <g id="arrowUp" xlink:href="#dirArrow" transform="translate(30 24)" onmousedown="handlePan(0,-1)">
                  <use xlink:href="#rim" fill="#404040">
                        <set attributeName="fill" to="#808080" begin="arrowUp.mouseover" end="arrowUp.mouseout"/>
                  </use>
                  <path fill="none" stroke="white" stroke-width="1.5" d="M0,-3.0v7 M-2.5,-0.5L0,-3.0L2.5,-0.5"/>
                </g>
                <g id="arrowRight" xlink:href="#dirArrow" transform="rotate(90) translate(36 -43)" onmousedown="handlePan(1,0)">
                  <use xlink:href="#rim" fill="#404040">
                        <set attributeName="fill" to="#808080" begin="arrowRight.mouseover" end="arrowRight.mouseout"/>
                  </use>
                  <path fill="none" stroke="white" stroke-width="1.5" d="M0,-3.0v7 M-2.5,-0.5L0,-3.0L2.5,-0.5"/>
                </g>
                <g id="arrowDown" xlink:href="#dirArrow" transform="rotate(180) translate(-30 -48)" onmousedown="handlePan(0,1)">
                  <use xlink:href="#rim" fill="#404040">
                        <set attributeName="fill" to="#808080" begin="arrowDown.mouseover" end="arrowDown.mouseout"/>
                  </use>
                  <path fill="none" stroke="white" stroke-width="1.5" d="M0,-3.0v7 M-2.5,-0.5L0,-3.0L2.5,-0.5"/>
                </g>
                <g id="arrowLeft" xlink:href="#dirArrow" transform="rotate(270) translate(-36 17)" onmousedown="handlePan(-1,0)">
                  <use xlink:href="#rim" fill="#404040">
                        <set attributeName="fill" to="#808080" begin="arrowLeft.mouseover" end="arrowLeft.mouseout"/>
                  </use>
                  <path fill="none" stroke="white" stroke-width="1.5" d="M0,-3.0v7 M-2.5,-0.5L0,-3.0L2.5,-0.5"/>
                </g>
        </g>
        <svg viewBox="0 0 15 15" width="100%" height="30px" preserveAspectRatio="xMaxYMin meet">
         <g id="arrow_out" transform="scale(0.3 0.3)">
          <a xlink:href="Iotm__TextMeshUtils_8h__incl_org.svg" target="_base">
           <rect id="button" ry="5" rx="5" y="6" x="6" height="38" width="38"
                fill="#f2f5e9" fill-opacity="0.5" stroke="#606060" stroke-width="1.0"/>
           <path id="arrow"
             d="M 11.500037,31.436501 C 11.940474,20.09759 22.043105,11.32322 32.158766,21.979434 L 37.068811,17.246167 C 37.068811,17.246167 37.088388,32 37.088388,32 L 22.160133,31.978069 C 22.160133,31.978069 26.997745,27.140456 26.997745,27.140456 C 18.528582,18.264221 13.291696,25.230495 11.500037,31.436501 z"
             style="fill:#404040;"/>
          </a>
         </g>
        </svg>
</svg>
