<?xml version="1.0" encoding="UTF-8" standalone="no"?>
<!DOCTYPE svg PUBLIC "-//W3C//DTD SVG 1.1//EN"
 "http://www.w3.org/Graphics/SVG/1.1/DTD/svg11.dtd">
<!-- Generated by graphviz version 8.0.5 (20230430.1635)
 -->
<!-- Title: src/transform/Iotr_Tensor.C Pages: 1 -->
<svg width="1771pt" height="425pt"
 viewBox="0.00 0.00 1770.84 425.25" xmlns="http://www.w3.org/2000/svg" xmlns:xlink="http://www.w3.org/1999/xlink">
<g id="graph0" class="graph" transform="scale(1 1) rotate(0) translate(4 421.25)">
<title>src/transform/Iotr_Tensor.C</title>
<!-- Node1 -->
<g id="node1" class="node">
<title>Node1</title>
<g id="a_node1"><a xlink:title=" ">
<polygon fill="#999999" stroke="#666666" points="573.34,-417.25 482.34,-417.25 482.34,-386.75 573.34,-386.75 573.34,-417.25"/>
<text text-anchor="start" x="490.34" y="-403.75" font-family="Helvetica,sans-Serif" font-size="10.00">src/transform/Iotr</text>
<text text-anchor="middle" x="527.84" y="-392.5" font-family="Helvetica,sans-Serif" font-size="10.00">_Tensor.C</text>
</a>
</g>
</g>
<!-- Node2 -->
<g id="node2" class="node">
<title>Node2</title>
<g id="a_node2"><a xlink:href="Ioss__Field_8h.html" target="_top" xlink:title=" ">
<polygon fill="white" stroke="#666666" points="630.46,-129.75 561.21,-129.75 561.21,-110.5 630.46,-110.5 630.46,-129.75"/>
<text text-anchor="middle" x="595.84" y="-116.25" font-family="Helvetica,sans-Serif" font-size="10.00">Ioss_Field.h</text>
</a>
</g>
</g>
<!-- Node1&#45;&gt;Node2 -->
<g id="edge1" class="edge">
<title>Node1&#45;&gt;Node2</title>
<path fill="none" stroke="#63b8ff" d="M519.59,-386.38C508.41,-365.16 489.84,-324.26 489.84,-286.88 489.84,-286.88 489.84,-286.88 489.84,-229.62 489.84,-185.43 535.4,-152.55 566.78,-135.14"/>
<polygon fill="#63b8ff" stroke="#63b8ff" points="568.2,-137.82 575.39,-130.04 564.92,-131.63 568.2,-137.82"/>
</g>
<!-- Node6 -->
<g id="node6" class="node">
<title>Node6</title>
<g id="a_node6"><a xlink:title=" ">
<polygon fill="#e0e0e0" stroke="#999999" points="193.96,-19.25 145.71,-19.25 145.71,0 193.96,0 193.96,-19.25"/>
<text text-anchor="middle" x="169.84" y="-5.75" font-family="Helvetica,sans-Serif" font-size="10.00">cstddef</text>
</a>
</g>
</g>
<!-- Node1&#45;&gt;Node6 -->
<g id="edge68" class="edge">
<title>Node1&#45;&gt;Node6</title>
<path fill="none" stroke="#63b8ff" d="M482.15,-399.63C363.7,-394.85 55.84,-374.03 55.84,-286.88 55.84,-286.88 55.84,-286.88 55.84,-119.12 55.84,-73.49 104.36,-41.22 138.09,-24.3"/>
<polygon fill="#63b8ff" stroke="#63b8ff" points="139.09,-27.22 146.59,-19.74 136.06,-20.91 139.09,-27.22"/>
</g>
<!-- Node8 -->
<g id="node8" class="node">
<title>Node8</title>
<g id="a_node8"><a xlink:title=" ">
<polygon fill="#e0e0e0" stroke="#999999" points="1328.84,-19.25 1288.84,-19.25 1288.84,0 1328.84,0 1328.84,-19.25"/>
<text text-anchor="middle" x="1308.84" y="-5.75" font-family="Helvetica,sans-Serif" font-size="10.00">string</text>
</a>
</g>
</g>
<!-- Node1&#45;&gt;Node8 -->
<g id="edge69" class="edge">
<title>Node1&#45;&gt;Node8</title>
<path fill="none" stroke="#63b8ff" d="M573.81,-401.21C711.09,-401.28 1129.73,-397.34 1472.84,-350.75 1603.61,-332.99 1762.84,-418.85 1762.84,-286.88 1762.84,-286.88 1762.84,-286.88 1762.84,-119.12 1762.84,-86.09 1752.64,-73.09 1724.84,-55.25 1661.13,-14.37 1425.42,-10.48 1340,-10.44"/>
<polygon fill="#63b8ff" stroke="#63b8ff" points="1340.2,-6.94 1330.21,-10.46 1340.21,-13.94 1340.2,-6.94"/>
</g>
<!-- Node12 -->
<g id="node12" class="node">
<title>Node12</title>
<g id="a_node12"><a xlink:href="Ioss__VariableType_8h.html" target="_top" xlink:title=" ">
<polygon fill="white" stroke="#666666" points="1004.71,-295.5 900.96,-295.5 900.96,-276.25 1004.71,-276.25 1004.71,-295.5"/>
<text text-anchor="middle" x="952.84" y="-282" font-family="Helvetica,sans-Serif" font-size="10.00">Ioss_VariableType.h</text>
</a>
</g>
</g>
<!-- Node1&#45;&gt;Node12 -->
<g id="edge14" class="edge">
<title>Node1&#45;&gt;Node12</title>
<path fill="none" stroke="#63b8ff" d="M573.72,-388.68C655.99,-366.59 827.55,-320.52 908.6,-298.75"/>
<polygon fill="#63b8ff" stroke="#63b8ff" points="909.21,-301.95 917.96,-295.97 907.39,-295.19 909.21,-301.95"/>
</g>
<!-- Node28 -->
<g id="node28" class="node">
<title>Node28</title>
<g id="a_node28"><a xlink:title=" ">
<polygon fill="#e0e0e0" stroke="#999999" points="187.96,-185 139.71,-185 139.71,-165.75 187.96,-165.75 187.96,-185"/>
<text text-anchor="middle" x="163.84" y="-171.5" font-family="Helvetica,sans-Serif" font-size="10.00">cassert</text>
</a>
</g>
</g>
<!-- Node1&#45;&gt;Node28 -->
<g id="edge67" class="edge">
<title>Node1&#45;&gt;Node28</title>
<path fill="none" stroke="#63b8ff" d="M503.95,-386.26C437.91,-345.51 253.37,-231.63 187.54,-191"/>
<polygon fill="#63b8ff" stroke="#63b8ff" points="189.72,-187.62 179.37,-185.35 186.04,-193.58 189.72,-187.62"/>
</g>
<!-- Node35 -->
<g id="node35" class="node">
<title>Node35</title>
<g id="a_node35"><a xlink:href="Iotr__Tensor_8h.html" target="_top" xlink:title=" ">
<polygon fill="white" stroke="#666666" points="1464.09,-350.75 1347.59,-350.75 1347.59,-331.5 1464.09,-331.5 1464.09,-350.75"/>
<text text-anchor="middle" x="1405.84" y="-337.25" font-family="Helvetica,sans-Serif" font-size="10.00">transform/Iotr_Tensor.h</text>
</a>
</g>
</g>
<!-- Node1&#45;&gt;Node35 -->
<g id="edge70" class="edge">
<title>Node1&#45;&gt;Node35</title>
<path fill="none" stroke="#63b8ff" d="M573.8,-397.92C718.28,-388.23 1163.83,-358.35 1336.48,-346.78"/>
<polygon fill="#63b8ff" stroke="#63b8ff" points="1336.46,-350.22 1346.21,-346.06 1336,-343.23 1336.46,-350.22"/>
</g>
<!-- Node37 -->
<g id="node37" class="node">
<title>Node37</title>
<g id="a_node37"><a xlink:href="Ioss__Transform_8h.html" target="_top" xlink:title=" ">
<polygon fill="white" stroke="#666666" points="938.09,-129.75 845.59,-129.75 845.59,-110.5 938.09,-110.5 938.09,-129.75"/>
<text text-anchor="middle" x="891.84" y="-116.25" font-family="Helvetica,sans-Serif" font-size="10.00">Ioss_Transform.h</text>
</a>
</g>
</g>
<!-- Node1&#45;&gt;Node37 -->
<g id="edge85" class="edge">
<title>Node1&#45;&gt;Node37</title>
<path fill="none" stroke="#63b8ff" d="M531.43,-386.52C542.59,-344.73 580.85,-223.28 660.84,-165.75 688.07,-146.16 775.47,-133.34 834.61,-126.66"/>
<polygon fill="#63b8ff" stroke="#63b8ff" points="834.74,-130.06 844.3,-125.49 833.98,-123.1 834.74,-130.06"/>
</g>
<!-- Node3 -->
<g id="node3" class="node">
<title>Node3</title>
<g id="a_node3"><a xlink:title=" ">
<polygon fill="#e0e0e0" stroke="#999999" points="848.09,-74.5 773.59,-74.5 773.59,-55.25 848.09,-55.25 848.09,-74.5"/>
<text text-anchor="middle" x="810.84" y="-61" font-family="Helvetica,sans-Serif" font-size="10.00">ioss_export.h</text>
</a>
</g>
</g>
<!-- Node2&#45;&gt;Node3 -->
<g id="edge2" class="edge">
<title>Node2&#45;&gt;Node3</title>
<path fill="none" stroke="#63b8ff" d="M630.86,-110.45C666.94,-101.52 723.4,-87.53 763.45,-77.61"/>
<polygon fill="#63b8ff" stroke="#63b8ff" points="764.16,-80.79 773.03,-74.99 762.48,-74 764.16,-80.79"/>
</g>
<!-- Node4 -->
<g id="node4" class="node">
<title>Node4</title>
<g id="a_node4"><a xlink:href="Ioss__CodeTypes_8h.html" target="_top" xlink:title=" ">
<polygon fill="white" stroke="#666666" points="1039.71,-74.5 941.96,-74.5 941.96,-55.25 1039.71,-55.25 1039.71,-74.5"/>
<text text-anchor="middle" x="990.84" y="-61" font-family="Helvetica,sans-Serif" font-size="10.00">Ioss_CodeTypes.h</text>
</a>
</g>
</g>
<!-- Node2&#45;&gt;Node4 -->
<g id="edge3" class="edge">
<title>Node2&#45;&gt;Node4</title>
<path fill="none" stroke="#63b8ff" d="M630.89,-114.4C698.38,-105.3 847.08,-85.26 930.69,-73.98"/>
<polygon fill="#63b8ff" stroke="#63b8ff" points="931.11,-77.32 940.55,-72.52 930.17,-70.39 931.11,-77.32"/>
</g>
<!-- Node2&#45;&gt;Node6 -->
<g id="edge11" class="edge">
<title>Node2&#45;&gt;Node6</title>
<path fill="none" stroke="#63b8ff" d="M585.65,-110.13C568.87,-95.87 533.77,-68.34 498.84,-55.25 396.96,-17.07 266.46,-10.93 204.93,-10.34"/>
<polygon fill="#63b8ff" stroke="#63b8ff" points="205.28,-6.84 195.26,-10.29 205.24,-13.84 205.28,-6.84"/>
</g>
<!-- Node2&#45;&gt;Node8 -->
<g id="edge12" class="edge">
<title>Node2&#45;&gt;Node8</title>
<path fill="none" stroke="#63b8ff" d="M623.6,-110.01C649.29,-101.4 688.44,-87.86 721.84,-74.5 741.28,-66.72 744.56,-60.46 764.84,-55.25 814.54,-42.49 1169.59,-19.37 1277.69,-12.56"/>
<polygon fill="#63b8ff" stroke="#63b8ff" points="1277.73,-16 1287.49,-11.88 1277.29,-9.02 1277.73,-16"/>
</g>
<!-- Node9 -->
<g id="node9" class="node">
<title>Node9</title>
<g id="a_node9"><a xlink:title=" ">
<polygon fill="#e0e0e0" stroke="#999999" points="691.34,-19.25 648.34,-19.25 648.34,0 691.34,0 691.34,-19.25"/>
<text text-anchor="middle" x="669.84" y="-5.75" font-family="Helvetica,sans-Serif" font-size="10.00">vector</text>
</a>
</g>
</g>
<!-- Node2&#45;&gt;Node9 -->
<g id="edge13" class="edge">
<title>Node2&#45;&gt;Node9</title>
<path fill="none" stroke="#63b8ff" d="M608.94,-110.24C620.09,-102.09 635.84,-89.09 645.84,-74.5 655.16,-60.9 661.44,-43.2 665.23,-29.88"/>
<polygon fill="#63b8ff" stroke="#63b8ff" points="668.8,-31.08 667.93,-20.52 662.02,-29.31 668.8,-31.08"/>
</g>
<!-- Node5 -->
<g id="node5" class="node">
<title>Node5</title>
<g id="a_node5"><a xlink:title=" ">
<polygon fill="#e0e0e0" stroke="#999999" points="1009.71,-19.25 971.96,-19.25 971.96,0 1009.71,0 1009.71,-19.25"/>
<text text-anchor="middle" x="990.84" y="-5.75" font-family="Helvetica,sans-Serif" font-size="10.00">array</text>
</a>
</g>
</g>
<!-- Node4&#45;&gt;Node5 -->
<g id="edge4" class="edge">
<title>Node4&#45;&gt;Node5</title>
<path fill="none" stroke="#63b8ff" d="M990.84,-55.08C990.84,-48.42 990.84,-38.99 990.84,-30.53"/>
<polygon fill="#63b8ff" stroke="#63b8ff" points="994.34,-30.61 990.84,-20.61 987.34,-30.61 994.34,-30.61"/>
</g>
<!-- Node4&#45;&gt;Node6 -->
<g id="edge5" class="edge">
<title>Node4&#45;&gt;Node6</title>
<path fill="none" stroke="#63b8ff" d="M941.63,-60.68C790.52,-50.88 335.48,-21.37 205.1,-12.91"/>
<polygon fill="#63b8ff" stroke="#63b8ff" points="205.4,-9.36 195.2,-12.21 204.95,-16.35 205.4,-9.36"/>
</g>
<!-- Node7 -->
<g id="node7" class="node">
<title>Node7</title>
<g id="a_node7"><a xlink:title=" ">
<polygon fill="#e0e0e0" stroke="#999999" points="578.46,-19.25 533.21,-19.25 533.21,0 578.46,0 578.46,-19.25"/>
<text text-anchor="middle" x="555.84" y="-5.75" font-family="Helvetica,sans-Serif" font-size="10.00">cstdint</text>
</a>
</g>
</g>
<!-- Node4&#45;&gt;Node7 -->
<g id="edge6" class="edge">
<title>Node4&#45;&gt;Node7</title>
<path fill="none" stroke="#63b8ff" d="M941.78,-57.87C852.59,-46.95 666.04,-24.12 589.6,-14.76"/>
<polygon fill="#63b8ff" stroke="#63b8ff" points="590.08,-11.17 579.73,-13.43 589.23,-18.12 590.08,-11.17"/>
</g>
<!-- Node4&#45;&gt;Node8 -->
<g id="edge7" class="edge">
<title>Node4&#45;&gt;Node8</title>
<path fill="none" stroke="#63b8ff" d="M1040.17,-55.61C1106.6,-44.49 1222.82,-25.03 1278.03,-15.78"/>
<polygon fill="#63b8ff" stroke="#63b8ff" points="1278.25,-19.13 1287.53,-14.03 1277.09,-12.22 1278.25,-19.13"/>
</g>
<!-- Node4&#45;&gt;Node9 -->
<g id="edge8" class="edge">
<title>Node4&#45;&gt;Node9</title>
<path fill="none" stroke="#63b8ff" d="M941.73,-55.73C875.35,-44.72 758.81,-25.38 702.34,-16.02"/>
<polygon fill="#63b8ff" stroke="#63b8ff" points="702.99,-12.41 692.55,-14.23 701.85,-19.32 702.99,-12.41"/>
</g>
<!-- Node10 -->
<g id="node10" class="node">
<title>Node10</title>
<g id="a_node10"><a xlink:title=" ">
<polygon fill="#e0e0e0" stroke="#999999" points="1143.71,-19.25 1027.96,-19.25 1027.96,0 1143.71,0 1143.71,-19.25"/>
<text text-anchor="middle" x="1085.84" y="-5.75" font-family="Helvetica,sans-Serif" font-size="10.00">SEACASIoss_config.h</text>
</a>
</g>
</g>
<!-- Node4&#45;&gt;Node10 -->
<g id="edge9" class="edge">
<title>Node4&#45;&gt;Node10</title>
<path fill="none" stroke="#63b8ff" d="M1006.95,-54.84C1021.55,-46.66 1043.32,-34.46 1060.29,-24.94"/>
<polygon fill="#63b8ff" stroke="#63b8ff" points="1061.63,-27.65 1068.64,-19.7 1058.21,-21.54 1061.63,-27.65"/>
</g>
<!-- Node11 -->
<g id="node11" class="node">
<title>Node11</title>
<g id="a_node11"><a xlink:title=" ">
<polygon fill="#e0e0e0" stroke="#999999" points="954.21,-19.25 901.46,-19.25 901.46,0 954.21,0 954.21,-19.25"/>
<text text-anchor="middle" x="927.84" y="-5.75" font-family="Helvetica,sans-Serif" font-size="10.00">complex</text>
</a>
</g>
</g>
<!-- Node4&#45;&gt;Node11 -->
<g id="edge10" class="edge">
<title>Node4&#45;&gt;Node11</title>
<path fill="none" stroke="#63b8ff" d="M980.15,-54.84C970.95,-47.07 957.47,-35.67 946.5,-26.4"/>
<polygon fill="#63b8ff" stroke="#63b8ff" points="949.26,-23.31 939.37,-19.52 944.74,-28.65 949.26,-23.31"/>
</g>
<!-- Node12&#45;&gt;Node3 -->
<g id="edge15" class="edge">
<title>Node12&#45;&gt;Node3</title>
<path fill="none" stroke="#63b8ff" d="M900.5,-284.21C825.35,-282.09 692.35,-273.59 659.84,-240.25 618.71,-198.08 641.12,-147.64 686.84,-110.5 708.57,-92.84 737.86,-81.87 762.52,-75.22"/>
<polygon fill="#63b8ff" stroke="#63b8ff" points="763.28,-78.39 772.12,-72.55 761.57,-71.6 763.28,-78.39"/>
</g>
<!-- Node12&#45;&gt;Node4 -->
<g id="edge16" class="edge">
<title>Node12&#45;&gt;Node4</title>
<path fill="none" stroke="#63b8ff" d="M994.46,-275.77C1039.08,-263.55 1107.7,-237.06 1138.84,-185 1168.34,-135.67 1080.73,-142.96 1060.84,-129.75 1040.18,-116.04 1019.58,-96.33 1006.13,-82.44"/>
<polygon fill="#63b8ff" stroke="#63b8ff" points="1009.17,-80.5 999.75,-75.65 1004.09,-85.32 1009.17,-80.5"/>
</g>
<!-- Node12&#45;&gt;Node8 -->
<g id="edge65" class="edge">
<title>Node12&#45;&gt;Node8</title>
<path fill="none" stroke="#63b8ff" d="M1005.08,-284.94C1136.94,-283.71 1472.84,-271.25 1472.84,-176.38 1472.84,-176.38 1472.84,-176.38 1472.84,-119.12 1472.84,-56.07 1387.47,-27.52 1339.92,-16.51"/>
<polygon fill="#63b8ff" stroke="#63b8ff" points="1340.79,-12.9 1330.28,-14.19 1339.3,-19.74 1340.79,-12.9"/>
</g>
<!-- Node12&#45;&gt;Node9 -->
<g id="edge66" class="edge">
<title>Node12&#45;&gt;Node9</title>
<path fill="none" stroke="#63b8ff" d="M900.58,-282.48C727.67,-274.01 182.1,-242.87 130.84,-185 61.64,-106.89 -186.51,-236.04 288.84,-55.25 296.98,-52.15 546.48,-24.29 637.24,-14.23"/>
<polygon fill="#63b8ff" stroke="#63b8ff" points="637.43,-17.62 646.98,-13.04 636.65,-10.66 637.43,-17.62"/>
</g>
<!-- Node13 -->
<g id="node13" class="node">
<title>Node13</title>
<g id="a_node13"><a xlink:href="Ioss__Utils_8h.html" target="_top" xlink:title=" ">
<polygon fill="white" stroke="#666666" points="801.09,-240.25 732.59,-240.25 732.59,-221 801.09,-221 801.09,-240.25"/>
<text text-anchor="middle" x="766.84" y="-226.75" font-family="Helvetica,sans-Serif" font-size="10.00">Ioss_Utils.h</text>
</a>
</g>
</g>
<!-- Node12&#45;&gt;Node13 -->
<g id="edge17" class="edge">
<title>Node12&#45;&gt;Node13</title>
<path fill="none" stroke="#63b8ff" d="M921.28,-275.84C890.42,-267.01 843.22,-253.49 809.12,-243.73"/>
<polygon fill="#63b8ff" stroke="#63b8ff" points="810.12,-240.09 799.54,-240.7 808.19,-246.82 810.12,-240.09"/>
</g>
<!-- Node18 -->
<g id="node18" class="node">
<title>Node18</title>
<g id="a_node18"><a xlink:title=" ">
<polygon fill="#e0e0e0" stroke="#999999" points="1371.21,-74.5 1336.46,-74.5 1336.46,-55.25 1371.21,-55.25 1371.21,-74.5"/>
<text text-anchor="middle" x="1353.84" y="-61" font-family="Helvetica,sans-Serif" font-size="10.00">map</text>
</a>
</g>
</g>
<!-- Node12&#45;&gt;Node18 -->
<g id="edge64" class="edge">
<title>Node12&#45;&gt;Node18</title>
<path fill="none" stroke="#63b8ff" d="M1005.12,-280.51C1108.23,-270.7 1331.83,-243.07 1377.84,-185 1401.21,-155.5 1380.35,-109.25 1365.55,-83.94"/>
<polygon fill="#63b8ff" stroke="#63b8ff" points="1368.13,-82.45 1359.92,-75.76 1362.17,-86.11 1368.13,-82.45"/>
</g>
<!-- Node25 -->
<g id="node25" class="node">
<title>Node25</title>
<g id="a_node25"><a xlink:title=" ">
<polygon fill="#e0e0e0" stroke="#999999" points="1558.84,-74.5 1500.84,-74.5 1500.84,-55.25 1558.84,-55.25 1558.84,-74.5"/>
<text text-anchor="middle" x="1529.84" y="-61" font-family="Helvetica,sans-Serif" font-size="10.00">functional</text>
</a>
</g>
</g>
<!-- Node12&#45;&gt;Node25 -->
<g id="edge63" class="edge">
<title>Node12&#45;&gt;Node25</title>
<path fill="none" stroke="#63b8ff" d="M1005.05,-283.92C1132.3,-281.12 1450.69,-271.08 1486.84,-240.25 1510.32,-220.22 1523.2,-126.87 1527.83,-85.59"/>
<polygon fill="#63b8ff" stroke="#63b8ff" points="1531.4,-86.12 1528.98,-75.8 1524.44,-85.37 1531.4,-86.12"/>
</g>
<!-- Node34 -->
<g id="node34" class="node">
<title>Node34</title>
<g id="a_node34"><a xlink:title=" ">
<polygon fill="#e0e0e0" stroke="#999999" points="714.46,-240.25 669.21,-240.25 669.21,-221 714.46,-221 714.46,-240.25"/>
<text text-anchor="middle" x="691.84" y="-226.75" font-family="Helvetica,sans-Serif" font-size="10.00">cstring</text>
</a>
</g>
</g>
<!-- Node12&#45;&gt;Node34 -->
<g id="edge62" class="edge">
<title>Node12&#45;&gt;Node34</title>
<path fill="none" stroke="#63b8ff" d="M900.77,-275.81C856.58,-267.88 791.26,-255.58 725.43,-240.49"/>
<polygon fill="#63b8ff" stroke="#63b8ff" points="726.39,-236.88 715.86,-238.04 724.81,-243.7 726.39,-236.88"/>
</g>
<!-- Node13&#45;&gt;Node2 -->
<g id="edge36" class="edge">
<title>Node13&#45;&gt;Node2</title>
<path fill="none" stroke="#63b8ff" d="M732.13,-222.02C681.86,-210.84 594.27,-190.69 589.84,-185 580,-172.38 583.09,-153.82 587.7,-139.95"/>
<polygon fill="#63b8ff" stroke="#63b8ff" points="591.19,-141.63 591.5,-131.04 584.65,-139.13 591.19,-141.63"/>
</g>
<!-- Node13&#45;&gt;Node3 -->
<g id="edge18" class="edge">
<title>Node13&#45;&gt;Node3</title>
<path fill="none" stroke="#63b8ff" d="M735.16,-220.54C707.17,-211.8 669.48,-198.02 660.84,-185 656.1,-177.87 656.8,-173.29 660.84,-165.75 684.43,-121.7 736.98,-93.73 773.16,-78.93"/>
<polygon fill="#63b8ff" stroke="#63b8ff" points="774.33,-81.84 782.36,-74.93 771.77,-75.33 774.33,-81.84"/>
</g>
<!-- Node13&#45;&gt;Node4 -->
<g id="edge19" class="edge">
<title>Node13&#45;&gt;Node4</title>
<path fill="none" stroke="#63b8ff" d="M801.49,-227.86C887,-223.14 1102.68,-208.97 1123.84,-185 1129.5,-178.59 1128.7,-172.79 1123.84,-165.75 1098.18,-128.59 1063.42,-158.77 1028.84,-129.75 1014.49,-117.71 1004.19,-98.78 997.97,-84.65"/>
<polygon fill="#63b8ff" stroke="#63b8ff" points="1000.87,-83.5 993.85,-75.57 994.39,-86.15 1000.87,-83.5"/>
</g>
<!-- Node13&#45;&gt;Node6 -->
<g id="edge54" class="edge">
<title>Node13&#45;&gt;Node6</title>
<path fill="none" stroke="#63b8ff" d="M732.17,-222.28C729.35,-221.81 726.55,-221.37 723.84,-221 669.64,-213.61 276.43,-218.05 232.84,-185 183.29,-147.44 172.64,-67.28 170.4,-30.2"/>
<polygon fill="#63b8ff" stroke="#63b8ff" points="173.86,-30.23 169.92,-20.39 166.87,-30.54 173.86,-30.23"/>
</g>
<!-- Node13&#45;&gt;Node7 -->
<g id="edge55" class="edge">
<title>Node13&#45;&gt;Node7</title>
<path fill="none" stroke="#63b8ff" d="M732.16,-222.3C729.35,-221.82 726.55,-221.38 723.84,-221 674.05,-214.04 306.94,-221.93 272.84,-185 247.94,-158.04 167.01,-179.77 288.84,-55.25 320.77,-22.61 458.08,-13.81 522.38,-11.46"/>
<polygon fill="#63b8ff" stroke="#63b8ff" points="522.25,-14.94 532.13,-11.11 522.02,-7.94 522.25,-14.94"/>
</g>
<!-- Node13&#45;&gt;Node8 -->
<g id="edge60" class="edge">
<title>Node13&#45;&gt;Node8</title>
<path fill="none" stroke="#63b8ff" d="M801.44,-229.75C924.84,-229.84 1338.08,-227 1377.84,-185 1417.48,-143.12 1407.73,-105.73 1379.84,-55.25 1371.14,-39.51 1354.31,-28.57 1339.22,-21.47"/>
<polygon fill="#63b8ff" stroke="#63b8ff" points="1340.74,-17.88 1330.17,-17.15 1337.97,-24.31 1340.74,-17.88"/>
</g>
<!-- Node13&#45;&gt;Node9 -->
<g id="edge61" class="edge">
<title>Node13&#45;&gt;Node9</title>
<path fill="none" stroke="#63b8ff" d="M732.51,-222.73C670.7,-210.31 546.93,-185.42 545.84,-185 500.18,-167.66 475.19,-172.09 450.84,-129.75 412.21,-62.59 474.02,-99.85 571.84,-55.25 594.76,-44.8 620.71,-32.98 640.15,-24.14"/>
<polygon fill="#63b8ff" stroke="#63b8ff" points="641.29,-27.01 648.94,-19.68 638.39,-20.64 641.29,-27.01"/>
</g>
<!-- Node14 -->
<g id="node14" class="node">
<title>Node14</title>
<g id="a_node14"><a xlink:href="Ioss__ElementTopology_8h.html" target="_top" xlink:title=" ">
<polygon fill="white" stroke="#666666" points="1368.71,-185 1246.96,-185 1246.96,-165.75 1368.71,-165.75 1368.71,-185"/>
<text text-anchor="middle" x="1307.84" y="-171.5" font-family="Helvetica,sans-Serif" font-size="10.00">Ioss_ElementTopology.h</text>
</a>
</g>
</g>
<!-- Node13&#45;&gt;Node14 -->
<g id="edge20" class="edge">
<title>Node13&#45;&gt;Node14</title>
<path fill="none" stroke="#63b8ff" d="M801.5,-226.21C888.68,-217.63 1118.48,-195.01 1236.16,-183.43"/>
<polygon fill="#63b8ff" stroke="#63b8ff" points="1236.24,-186.84 1245.85,-182.38 1235.55,-179.87 1236.24,-186.84"/>
</g>
<!-- Node20 -->
<g id="node20" class="node">
<title>Node20</title>
<g id="a_node20"><a xlink:href="Ioss__EntityType_8h.html" target="_top" xlink:title=" ">
<polygon fill="white" stroke="#666666" points="764.21,-185 669.46,-185 669.46,-165.75 764.21,-165.75 764.21,-185"/>
<text text-anchor="middle" x="716.84" y="-171.5" font-family="Helvetica,sans-Serif" font-size="10.00">Ioss_EntityType.h</text>
</a>
</g>
</g>
<!-- Node13&#45;&gt;Node20 -->
<g id="edge35" class="edge">
<title>Node13&#45;&gt;Node20</title>
<path fill="none" stroke="#63b8ff" d="M758.58,-220.83C751.53,-213.32 741.19,-202.31 732.57,-193.13"/>
<polygon fill="#63b8ff" stroke="#63b8ff" points="735.67,-191.25 726.27,-186.36 730.57,-196.05 735.67,-191.25"/>
</g>
<!-- Node21 -->
<g id="node21" class="node">
<title>Node21</title>
<g id="a_node21"><a xlink:href="Ioss__Property_8h.html" target="_top" xlink:title=" ">
<polygon fill="white" stroke="#666666" points="543.59,-129.75 460.09,-129.75 460.09,-110.5 543.59,-110.5 543.59,-129.75"/>
<text text-anchor="middle" x="501.84" y="-116.25" font-family="Helvetica,sans-Serif" font-size="10.00">Ioss_Property.h</text>
</a>
</g>
</g>
<!-- Node13&#45;&gt;Node21 -->
<g id="edge37" class="edge">
<title>Node13&#45;&gt;Node21</title>
<path fill="none" stroke="#63b8ff" d="M732.4,-222.29C682.22,-211.45 593.44,-191.74 579.84,-185 555.72,-173.04 532.42,-152.4 517.67,-137.82"/>
<polygon fill="#63b8ff" stroke="#63b8ff" points="520.53,-135.72 511.03,-131.05 515.54,-140.63 520.53,-135.72"/>
</g>
<!-- Node22 -->
<g id="node22" class="node">
<title>Node22</title>
<g id="a_node22"><a xlink:href="Ioss__Sort_8h.html" target="_top" xlink:title=" ">
<polygon fill="white" stroke="#666666" points="347.96,-185 281.71,-185 281.71,-165.75 347.96,-165.75 347.96,-185"/>
<text text-anchor="middle" x="314.84" y="-171.5" font-family="Helvetica,sans-Serif" font-size="10.00">Ioss_Sort.h</text>
</a>
</g>
</g>
<!-- Node13&#45;&gt;Node22 -->
<g id="edge42" class="edge">
<title>Node13&#45;&gt;Node22</title>
<path fill="none" stroke="#63b8ff" d="M732.15,-222.36C729.35,-221.87 726.55,-221.41 723.84,-221 563.93,-197.07 521.93,-207.61 361.84,-185 360.88,-184.87 359.92,-184.73 358.95,-184.58"/>
<polygon fill="#63b8ff" stroke="#63b8ff" points="359.84,-181.02 349.41,-182.88 358.73,-187.93 359.84,-181.02"/>
</g>
<!-- Node24 -->
<g id="node24" class="node">
<title>Node24</title>
<g id="a_node24"><a xlink:title=" ">
<polygon fill="#e0e0e0" stroke="#999999" points="489.71,-74.5 433.96,-74.5 433.96,-55.25 489.71,-55.25 489.71,-74.5"/>
<text text-anchor="middle" x="461.84" y="-61" font-family="Helvetica,sans-Serif" font-size="10.00">algorithm</text>
</a>
</g>
</g>
<!-- Node13&#45;&gt;Node24 -->
<g id="edge51" class="edge">
<title>Node13&#45;&gt;Node24</title>
<path fill="none" stroke="#63b8ff" d="M732.15,-222.4C729.34,-221.89 726.54,-221.42 723.84,-221 652.25,-209.87 448.15,-238.98 399.84,-185 371.49,-153.33 414.94,-106.37 442.32,-81.95"/>
<polygon fill="#63b8ff" stroke="#63b8ff" points="444.25,-84.04 449.53,-74.86 439.67,-78.74 444.25,-84.04"/>
</g>
<!-- Node13&#45;&gt;Node28 -->
<g id="edge52" class="edge">
<title>Node13&#45;&gt;Node28</title>
<path fill="none" stroke="#63b8ff" d="M732.17,-222.27C729.36,-221.8 726.55,-221.36 723.84,-221 493.35,-190.07 431.91,-218.84 201.84,-185 200.87,-184.86 199.89,-184.7 198.91,-184.54"/>
<polygon fill="#63b8ff" stroke="#63b8ff" points="199.74,-180.95 189.26,-182.5 198.42,-187.82 199.74,-180.95"/>
</g>
<!-- Node29 -->
<g id="node29" class="node">
<title>Node29</title>
<g id="a_node29"><a xlink:title=" ">
<polygon fill="#e0e0e0" stroke="#999999" points="825.34,-185 782.34,-185 782.34,-165.75 825.34,-165.75 825.34,-185"/>
<text text-anchor="middle" x="803.84" y="-171.5" font-family="Helvetica,sans-Serif" font-size="10.00">cmath</text>
</a>
</g>
</g>
<!-- Node13&#45;&gt;Node29 -->
<g id="edge53" class="edge">
<title>Node13&#45;&gt;Node29</title>
<path fill="none" stroke="#63b8ff" d="M772.95,-220.83C777.95,-213.63 785.19,-203.21 791.41,-194.26"/>
<polygon fill="#63b8ff" stroke="#63b8ff" points="794.76,-196.57 797.59,-186.36 789.01,-192.57 794.76,-196.57"/>
</g>
<!-- Node30 -->
<g id="node30" class="node">
<title>Node30</title>
<g id="a_node30"><a xlink:title=" ">
<polygon fill="#e0e0e0" stroke="#999999" points="888.09,-185 843.59,-185 843.59,-165.75 888.09,-165.75 888.09,-185"/>
<text text-anchor="middle" x="865.84" y="-171.5" font-family="Helvetica,sans-Serif" font-size="10.00">cstdlib</text>
</a>
</g>
</g>
<!-- Node13&#45;&gt;Node30 -->
<g id="edge56" class="edge">
<title>Node13&#45;&gt;Node30</title>
<path fill="none" stroke="#63b8ff" d="M783.63,-220.59C798.99,-212.33 821.96,-199.98 839.71,-190.43"/>
<polygon fill="#63b8ff" stroke="#63b8ff" points="840.81,-193.27 847.96,-185.45 837.49,-187.11 840.81,-193.27"/>
</g>
<!-- Node31 -->
<g id="node31" class="node">
<title>Node31</title>
<g id="a_node31"><a xlink:title=" ">
<polygon fill="#e0e0e0" stroke="#999999" points="967.34,-185 906.34,-185 906.34,-165.75 967.34,-165.75 967.34,-185"/>
<text text-anchor="middle" x="936.84" y="-171.5" font-family="Helvetica,sans-Serif" font-size="10.00">filesystem</text>
</a>
</g>
</g>
<!-- Node13&#45;&gt;Node31 -->
<g id="edge57" class="edge">
<title>Node13&#45;&gt;Node31</title>
<path fill="none" stroke="#63b8ff" d="M795.67,-220.59C823.64,-211.83 866.28,-198.48 897.38,-188.73"/>
<polygon fill="#63b8ff" stroke="#63b8ff" points="898.36,-191.78 906.86,-185.45 896.27,-185.1 898.36,-191.78"/>
</g>
<!-- Node32 -->
<g id="node32" class="node">
<title>Node32</title>
<g id="a_node32"><a xlink:title=" ">
<polygon fill="#e0e0e0" stroke="#999999" points="1038.59,-185 985.09,-185 985.09,-165.75 1038.59,-165.75 1038.59,-185"/>
<text text-anchor="middle" x="1011.84" y="-171.5" font-family="Helvetica,sans-Serif" font-size="10.00">iostream</text>
</a>
</g>
</g>
<!-- Node13&#45;&gt;Node32 -->
<g id="edge58" class="edge">
<title>Node13&#45;&gt;Node32</title>
<path fill="none" stroke="#63b8ff" d="M801.47,-222.62C841.04,-214.54 908.01,-200.63 974.13,-185.57"/>
<polygon fill="#63b8ff" stroke="#63b8ff" points="974.76,-188.79 983.72,-183.15 973.19,-181.97 974.76,-188.79"/>
</g>
<!-- Node33 -->
<g id="node33" class="node">
<title>Node33</title>
<g id="a_node33"><a xlink:title=" ">
<polygon fill="#e0e0e0" stroke="#999999" points="1115.21,-185 1056.46,-185 1056.46,-165.75 1115.21,-165.75 1115.21,-185"/>
<text text-anchor="middle" x="1085.84" y="-171.5" font-family="Helvetica,sans-Serif" font-size="10.00">stdexcept</text>
</a>
</g>
</g>
<!-- Node13&#45;&gt;Node33 -->
<g id="edge59" class="edge">
<title>Node13&#45;&gt;Node33</title>
<path fill="none" stroke="#63b8ff" d="M801.57,-224.86C852.8,-217.67 951.85,-203.14 1045.24,-185.41"/>
<polygon fill="#63b8ff" stroke="#63b8ff" points="1045.84,-188.66 1055,-183.34 1044.52,-181.79 1045.84,-188.66"/>
</g>
<!-- Node14&#45;&gt;Node3 -->
<g id="edge21" class="edge">
<title>Node14&#45;&gt;Node3</title>
<path fill="none" stroke="#63b8ff" d="M1246.9,-170.28C1123.23,-161.74 853.07,-141.82 836.84,-129.75 822.73,-119.27 816.26,-99.81 813.3,-85.11"/>
<polygon fill="#63b8ff" stroke="#63b8ff" points="816.65,-84.92 811.6,-75.61 809.74,-86.04 816.65,-84.92"/>
</g>
<!-- Node14&#45;&gt;Node4 -->
<g id="edge22" class="edge">
<title>Node14&#45;&gt;Node4</title>
<path fill="none" stroke="#63b8ff" d="M1246.53,-165.73C1205.53,-158.79 1150.87,-147.27 1104.84,-129.75 1071.03,-116.89 1035.13,-95.28 1012.84,-80.8"/>
<polygon fill="#63b8ff" stroke="#63b8ff" points="1015.17,-77.48 1004.89,-74.89 1011.31,-83.32 1015.17,-77.48"/>
</g>
<!-- Node14&#45;&gt;Node8 -->
<g id="edge33" class="edge">
<title>Node14&#45;&gt;Node8</title>
<path fill="none" stroke="#63b8ff" d="M1246.84,-166.29C1203.73,-159.17 1151.3,-147.21 1137.84,-129.75 1120.81,-107.67 1146.05,-70.01 1162.84,-55.25 1195.24,-26.76 1245.48,-16.46 1277.76,-12.73"/>
<polygon fill="#63b8ff" stroke="#63b8ff" points="1277.77,-16.15 1287.37,-11.67 1277.07,-9.18 1277.77,-16.15"/>
</g>
<!-- Node14&#45;&gt;Node9 -->
<g id="edge34" class="edge">
<title>Node14&#45;&gt;Node9</title>
<path fill="none" stroke="#63b8ff" d="M1246.62,-166.96C1196.12,-159.97 1122.96,-147.86 1060.84,-129.75 976.92,-105.29 962.35,-81.03 878.84,-55.25 817.75,-36.39 744.22,-22.7 702.66,-15.77"/>
<polygon fill="#63b8ff" stroke="#63b8ff" points="703.26,-12.16 692.83,-13.99 702.13,-19.06 703.26,-12.16"/>
</g>
<!-- Node15 -->
<g id="node15" class="node">
<title>Node15</title>
<g id="a_node15"><a xlink:href="Ioss__ElementPermutation_8h.html" target="_top" xlink:title=" ">
<polygon fill="white" stroke="#666666" points="1331.21,-129.75 1194.46,-129.75 1194.46,-110.5 1331.21,-110.5 1331.21,-129.75"/>
<text text-anchor="middle" x="1262.84" y="-116.25" font-family="Helvetica,sans-Serif" font-size="10.00">Ioss_ElementPermutation.h</text>
</a>
</g>
</g>
<!-- Node14&#45;&gt;Node15 -->
<g id="edge23" class="edge">
<title>Node14&#45;&gt;Node15</title>
<path fill="none" stroke="#63b8ff" d="M1300.41,-165.58C1294.19,-158.23 1285.13,-147.51 1277.47,-138.44"/>
<polygon fill="#63b8ff" stroke="#63b8ff" points="1279.56,-136.49 1270.43,-131.11 1274.21,-141.01 1279.56,-136.49"/>
</g>
<!-- Node14&#45;&gt;Node18 -->
<g id="edge31" class="edge">
<title>Node14&#45;&gt;Node18</title>
<path fill="none" stroke="#63b8ff" d="M1315.9,-165.49C1323.23,-156.94 1333.79,-143.34 1339.84,-129.75 1346.13,-115.62 1349.69,-98.43 1351.64,-85.44"/>
<polygon fill="#63b8ff" stroke="#63b8ff" points="1355.19,-86.28 1353.02,-75.91 1348.25,-85.37 1355.19,-86.28"/>
</g>
<!-- Node19 -->
<g id="node19" class="node">
<title>Node19</title>
<g id="a_node19"><a xlink:title=" ">
<polygon fill="#e0e0e0" stroke="#999999" points="1176.59,-129.75 1147.09,-129.75 1147.09,-110.5 1176.59,-110.5 1176.59,-129.75"/>
<text text-anchor="middle" x="1161.84" y="-116.25" font-family="Helvetica,sans-Serif" font-size="10.00">set</text>
</a>
</g>
</g>
<!-- Node14&#45;&gt;Node19 -->
<g id="edge32" class="edge">
<title>Node14&#45;&gt;Node19</title>
<path fill="none" stroke="#63b8ff" d="M1283.07,-165.34C1256.33,-155.59 1213.95,-140.13 1187.04,-130.32"/>
<polygon fill="#63b8ff" stroke="#63b8ff" points="1188.47,-126.75 1177.88,-126.61 1186.07,-133.33 1188.47,-126.75"/>
</g>
<!-- Node15&#45;&gt;Node3 -->
<g id="edge24" class="edge">
<title>Node15&#45;&gt;Node3</title>
<path fill="none" stroke="#63b8ff" d="M1194.19,-111.04C1101.84,-100.16 939.92,-81.08 859.3,-71.58"/>
<polygon fill="#63b8ff" stroke="#63b8ff" points="859.82,-68 849.48,-70.31 859,-74.96 859.82,-68"/>
</g>
<!-- Node15&#45;&gt;Node4 -->
<g id="edge25" class="edge">
<title>Node15&#45;&gt;Node4</title>
<path fill="none" stroke="#63b8ff" d="M1216.39,-110.03C1169.74,-100.9 1097.79,-86.81 1047.74,-77.01"/>
<polygon fill="#63b8ff" stroke="#63b8ff" points="1048.58,-73.42 1038.09,-74.93 1047.24,-80.29 1048.58,-73.42"/>
</g>
<!-- Node15&#45;&gt;Node8 -->
<g id="edge29" class="edge">
<title>Node15&#45;&gt;Node8</title>
<path fill="none" stroke="#63b8ff" d="M1269.13,-110.26C1275.12,-101.52 1284.05,-87.58 1289.84,-74.5 1296.22,-60.08 1301.19,-42.91 1304.44,-30.01"/>
<polygon fill="#63b8ff" stroke="#63b8ff" points="1308.02,-31.1 1306.94,-20.56 1301.21,-29.47 1308.02,-31.1"/>
</g>
<!-- Node15&#45;&gt;Node9 -->
<g id="edge30" class="edge">
<title>Node15&#45;&gt;Node9</title>
<path fill="none" stroke="#63b8ff" d="M1237.51,-110.01C1197.82,-96.07 1118.32,-69.6 1048.84,-55.25 922.13,-29.09 768.2,-16.87 702.31,-12.55"/>
<polygon fill="#63b8ff" stroke="#63b8ff" points="702.62,-9 692.41,-11.86 702.17,-15.98 702.62,-9"/>
</g>
<!-- Node16 -->
<g id="node16" class="node">
<title>Node16</title>
<g id="a_node16"><a xlink:title=" ">
<polygon fill="#e0e0e0" stroke="#999999" points="1223.46,-74.5 1172.21,-74.5 1172.21,-55.25 1223.46,-55.25 1223.46,-74.5"/>
<text text-anchor="middle" x="1197.84" y="-61" font-family="Helvetica,sans-Serif" font-size="10.00">assert.h</text>
</a>
</g>
</g>
<!-- Node15&#45;&gt;Node16 -->
<g id="edge26" class="edge">
<title>Node15&#45;&gt;Node16</title>
<path fill="none" stroke="#63b8ff" d="M1251.81,-110.09C1242.32,-102.32 1228.41,-90.92 1217.09,-81.65"/>
<polygon fill="#63b8ff" stroke="#63b8ff" points="1219.65,-78.4 1209.7,-74.77 1215.22,-83.82 1219.65,-78.4"/>
</g>
<!-- Node17 -->
<g id="node17" class="node">
<title>Node17</title>
<g id="a_node17"><a xlink:title=" ">
<polygon fill="#e0e0e0" stroke="#999999" points="1280.46,-74.5 1241.21,-74.5 1241.21,-55.25 1280.46,-55.25 1280.46,-74.5"/>
<text text-anchor="middle" x="1260.84" y="-61" font-family="Helvetica,sans-Serif" font-size="10.00">limits</text>
</a>
</g>
</g>
<!-- Node15&#45;&gt;Node17 -->
<g id="edge27" class="edge">
<title>Node15&#45;&gt;Node17</title>
<path fill="none" stroke="#63b8ff" d="M1262.51,-110.33C1262.26,-103.67 1261.9,-94.24 1261.58,-85.78"/>
<polygon fill="#63b8ff" stroke="#63b8ff" points="1265.05,-85.72 1261.17,-75.86 1258.05,-85.98 1265.05,-85.72"/>
</g>
<!-- Node15&#45;&gt;Node18 -->
<g id="edge28" class="edge">
<title>Node15&#45;&gt;Node18</title>
<path fill="none" stroke="#63b8ff" d="M1278.27,-110.09C1292.13,-101.98 1312.72,-89.93 1328.91,-80.46"/>
<polygon fill="#63b8ff" stroke="#63b8ff" points="1330.46,-83.02 1337.32,-74.95 1326.92,-76.98 1330.46,-83.02"/>
</g>
<!-- Node21&#45;&gt;Node3 -->
<g id="edge38" class="edge">
<title>Node21&#45;&gt;Node3</title>
<path fill="none" stroke="#63b8ff" d="M543.85,-111.88C546.55,-111.41 549.23,-110.95 551.84,-110.5 625.3,-97.84 710.48,-83.16 762.51,-74.2"/>
<polygon fill="#63b8ff" stroke="#63b8ff" points="762.83,-77.52 772.09,-72.38 761.64,-70.62 762.83,-77.52"/>
</g>
<!-- Node21&#45;&gt;Node7 -->
<g id="edge39" class="edge">
<title>Node21&#45;&gt;Node7</title>
<path fill="none" stroke="#63b8ff" d="M506.26,-110.25C515.04,-92.6 534.85,-52.8 546.59,-29.2"/>
<polygon fill="#63b8ff" stroke="#63b8ff" points="550.03,-31.14 551.36,-20.63 543.77,-28.02 550.03,-31.14"/>
</g>
<!-- Node21&#45;&gt;Node8 -->
<g id="edge40" class="edge">
<title>Node21&#45;&gt;Node8</title>
<path fill="none" stroke="#63b8ff" d="M526.84,-110.02C567.23,-95.73 649.63,-68.33 721.84,-55.25 776.71,-45.31 1164.68,-19.88 1277.89,-12.6"/>
<polygon fill="#63b8ff" stroke="#63b8ff" points="1277.81,-16.05 1287.56,-11.92 1277.36,-9.06 1277.81,-16.05"/>
</g>
<!-- Node21&#45;&gt;Node9 -->
<g id="edge41" class="edge">
<title>Node21&#45;&gt;Node9</title>
<path fill="none" stroke="#63b8ff" d="M515.87,-110.06C544.85,-91.35 611.54,-48.28 646.88,-25.45"/>
<polygon fill="#63b8ff" stroke="#63b8ff" points="648.46,-27.95 654.96,-19.59 644.66,-22.07 648.46,-27.95"/>
</g>
<!-- Node22&#45;&gt;Node6 -->
<g id="edge49" class="edge">
<title>Node22&#45;&gt;Node6</title>
<path fill="none" stroke="#63b8ff" d="M304.77,-165.48C295.02,-156.71 279.95,-142.76 267.84,-129.75 235.75,-95.3 201.52,-52 183.22,-28.24"/>
<polygon fill="#63b8ff" stroke="#63b8ff" points="185.47,-26.42 176.61,-20.61 179.91,-30.67 185.47,-26.42"/>
</g>
<!-- Node22&#45;&gt;Node9 -->
<g id="edge50" class="edge">
<title>Node22&#45;&gt;Node9</title>
<path fill="none" stroke="#63b8ff" d="M310,-165.49C298.8,-143.58 274.15,-86.48 302.84,-55.25 308.5,-49.09 548.62,-23.34 637.34,-14.01"/>
<polygon fill="#63b8ff" stroke="#63b8ff" points="637.52,-17.41 647.1,-12.89 636.79,-10.45 637.52,-17.41"/>
</g>
<!-- Node23 -->
<g id="node23" class="node">
<title>Node23</title>
<g id="a_node23"><a xlink:href="pdqsort_8h.html" target="_top" xlink:title=" ">
<polygon fill="white" stroke="#666666" points="366.09,-129.75 309.59,-129.75 309.59,-110.5 366.09,-110.5 366.09,-129.75"/>
<text text-anchor="middle" x="337.84" y="-116.25" font-family="Helvetica,sans-Serif" font-size="10.00">pdqsort.h</text>
</a>
</g>
</g>
<!-- Node22&#45;&gt;Node23 -->
<g id="edge43" class="edge">
<title>Node22&#45;&gt;Node23</title>
<path fill="none" stroke="#63b8ff" d="M318.63,-165.58C321.61,-158.69 325.87,-148.84 329.61,-140.16"/>
<polygon fill="#63b8ff" stroke="#63b8ff" points="333.2,-141.68 333.96,-131.11 326.78,-138.9 333.2,-141.68"/>
</g>
<!-- Node23&#45;&gt;Node6 -->
<g id="edge45" class="edge">
<title>Node23&#45;&gt;Node6</title>
<path fill="none" stroke="#63b8ff" d="M323.8,-110.06C294.82,-91.35 228.14,-48.28 192.79,-25.45"/>
<polygon fill="#63b8ff" stroke="#63b8ff" points="195.01,-22.07 184.71,-19.59 191.21,-27.95 195.01,-22.07"/>
</g>
<!-- Node23&#45;&gt;Node24 -->
<g id="edge44" class="edge">
<title>Node23&#45;&gt;Node24</title>
<path fill="none" stroke="#63b8ff" d="M358.87,-110.09C378.56,-101.64 408.21,-88.9 430.65,-79.27"/>
<polygon fill="#63b8ff" stroke="#63b8ff" points="431.89,-82.11 439.7,-74.95 429.13,-75.68 431.89,-82.11"/>
</g>
<!-- Node23&#45;&gt;Node25 -->
<g id="edge46" class="edge">
<title>Node23&#45;&gt;Node25</title>
<path fill="none" stroke="#63b8ff" d="M366.14,-116.67C388.99,-114.76 421.96,-112.16 450.84,-110.5 863.35,-86.77 967.11,-94.36 1379.84,-74.5 1417.03,-72.71 1459.39,-70.23 1489.59,-68.39"/>
<polygon fill="#63b8ff" stroke="#63b8ff" points="1489.76,-71.83 1499.53,-67.72 1489.33,-64.84 1489.76,-71.83"/>
</g>
<!-- Node26 -->
<g id="node26" class="node">
<title>Node26</title>
<g id="a_node26"><a xlink:title=" ">
<polygon fill="#e0e0e0" stroke="#999999" points="415.84,-74.5 369.84,-74.5 369.84,-55.25 415.84,-55.25 415.84,-74.5"/>
<text text-anchor="middle" x="392.84" y="-61" font-family="Helvetica,sans-Serif" font-size="10.00">iterator</text>
</a>
</g>
</g>
<!-- Node23&#45;&gt;Node26 -->
<g id="edge47" class="edge">
<title>Node23&#45;&gt;Node26</title>
<path fill="none" stroke="#63b8ff" d="M346.92,-110.33C354.75,-102.75 366.28,-91.59 375.82,-82.35"/>
<polygon fill="#63b8ff" stroke="#63b8ff" points="377.81,-85.33 382.56,-75.86 372.94,-80.3 377.81,-85.33"/>
</g>
<!-- Node27 -->
<g id="node27" class="node">
<title>Node27</title>
<g id="a_node27"><a xlink:title=" ">
<polygon fill="#e0e0e0" stroke="#999999" points="351.46,-74.5 312.21,-74.5 312.21,-55.25 351.46,-55.25 351.46,-74.5"/>
<text text-anchor="middle" x="331.84" y="-61" font-family="Helvetica,sans-Serif" font-size="10.00">utility</text>
</a>
</g>
</g>
<!-- Node23&#45;&gt;Node27 -->
<g id="edge48" class="edge">
<title>Node23&#45;&gt;Node27</title>
<path fill="none" stroke="#63b8ff" d="M336.85,-110.33C336.09,-103.67 335.03,-94.24 334.08,-85.78"/>
<polygon fill="#63b8ff" stroke="#63b8ff" points="337.45,-85.4 332.85,-75.86 330.49,-86.19 337.45,-85.4"/>
</g>
<!-- Node35&#45;&gt;Node8 -->
<g id="edge84" class="edge">
<title>Node35&#45;&gt;Node8</title>
<path fill="none" stroke="#63b8ff" d="M1464.3,-335.61C1511.81,-330.34 1579.73,-319.11 1634.84,-295.5 1679.92,-276.18 1724.84,-280.68 1724.84,-231.62 1724.84,-231.62 1724.84,-231.62 1724.84,-119.12 1724.84,-89.1 1726.26,-74.03 1702.84,-55.25 1647.11,-10.56 1422.83,-9 1339.88,-10.01"/>
<polygon fill="#63b8ff" stroke="#63b8ff" points="1339.87,-6.53 1329.93,-10.17 1339.98,-13.53 1339.87,-6.53"/>
</g>
<!-- Node35&#45;&gt;Node12 -->
<g id="edge77" class="edge">
<title>Node35&#45;&gt;Node12</title>
<path fill="none" stroke="#63b8ff" d="M1347.54,-333.27C1262.18,-323.24 1103.8,-304.62 1015.84,-294.28"/>
<polygon fill="#63b8ff" stroke="#63b8ff" points="1016.29,-290.69 1005.95,-293 1015.47,-297.64 1016.29,-290.69"/>
</g>
<!-- Node36 -->
<g id="node36" class="node">
<title>Node36</title>
<g id="a_node36"><a xlink:title=" ">
<polygon fill="#e0e0e0" stroke="#999999" points="1693.84,-74.5 1623.84,-74.5 1623.84,-55.25 1693.84,-55.25 1693.84,-74.5"/>
<text text-anchor="middle" x="1658.84" y="-61" font-family="Helvetica,sans-Serif" font-size="10.00">iotr_export.h</text>
</a>
</g>
</g>
<!-- Node35&#45;&gt;Node36 -->
<g id="edge71" class="edge">
<title>Node35&#45;&gt;Node36</title>
<path fill="none" stroke="#63b8ff" d="M1458.03,-331.01C1539.29,-315.31 1686.84,-280.13 1686.84,-231.62 1686.84,-231.62 1686.84,-231.62 1686.84,-174.38 1686.84,-142.22 1675.16,-106.35 1666.89,-84.98"/>
<polygon fill="#63b8ff" stroke="#63b8ff" points="1669.84,-83.92 1662.85,-75.96 1663.34,-86.54 1669.84,-83.92"/>
</g>
<!-- Node35&#45;&gt;Node37 -->
<g id="edge72" class="edge">
<title>Node35&#45;&gt;Node37</title>
<path fill="none" stroke="#63b8ff" d="M1394.82,-331.2C1358.55,-302.29 1238.6,-210.51 1123.84,-165.75 1066.76,-143.49 997.31,-132.01 949.35,-126.31"/>
<polygon fill="#63b8ff" stroke="#63b8ff" points="949.89,-122.74 939.55,-125.09 949.09,-129.69 949.89,-122.74"/>
</g>
<!-- Node38 -->
<g id="node38" class="node">
<title>Node38</title>
<g id="a_node38"><a xlink:href="Iotr__Factory_8h.html" target="_top" xlink:title=" ">
<polygon fill="white" stroke="#666666" points="1658.59,-129.75 1539.09,-129.75 1539.09,-110.5 1658.59,-110.5 1658.59,-129.75"/>
<text text-anchor="middle" x="1598.84" y="-116.25" font-family="Helvetica,sans-Serif" font-size="10.00">transform/Iotr_Factory.h</text>
</a>
</g>
</g>
<!-- Node35&#45;&gt;Node38 -->
<g id="edge78" class="edge">
<title>Node35&#45;&gt;Node38</title>
<path fill="none" stroke="#63b8ff" d="M1419.16,-331.1C1442.5,-314.85 1491.45,-278.77 1524.84,-240.25 1552.76,-208.04 1577.1,-164.16 1589.7,-139.65"/>
<polygon fill="#63b8ff" stroke="#63b8ff" points="1593.12,-141.64 1594.5,-131.14 1586.87,-138.49 1593.12,-141.64"/>
</g>
<!-- Node37&#45;&gt;Node3 -->
<g id="edge73" class="edge">
<title>Node37&#45;&gt;Node3</title>
<path fill="none" stroke="#63b8ff" d="M878.1,-110.09C865.88,-102.06 847.78,-90.16 833.43,-80.73"/>
<polygon fill="#63b8ff" stroke="#63b8ff" points="835.92,-77.52 825.64,-74.95 832.08,-83.37 835.92,-77.52"/>
</g>
<!-- Node37&#45;&gt;Node4 -->
<g id="edge74" class="edge">
<title>Node37&#45;&gt;Node4</title>
<path fill="none" stroke="#63b8ff" d="M908.63,-110.09C923.99,-101.83 946.96,-89.48 964.71,-79.93"/>
<polygon fill="#63b8ff" stroke="#63b8ff" points="965.81,-82.77 972.96,-74.95 962.49,-76.61 965.81,-82.77"/>
</g>
<!-- Node37&#45;&gt;Node8 -->
<g id="edge75" class="edge">
<title>Node37&#45;&gt;Node8</title>
<path fill="none" stroke="#63b8ff" d="M924.9,-110.05C970.82,-97.5 1056.53,-74.22 1129.84,-55.25 1181.82,-41.8 1242.49,-26.82 1278.17,-18.09"/>
<polygon fill="#63b8ff" stroke="#63b8ff" points="1278.52,-21.37 1287.4,-15.59 1276.86,-14.57 1278.52,-21.37"/>
</g>
<!-- Node37&#45;&gt;Node9 -->
<g id="edge76" class="edge">
<title>Node37&#45;&gt;Node9</title>
<path fill="none" stroke="#63b8ff" d="M889.48,-110.16C885.32,-96.19 875.33,-69.37 856.84,-55.25 811.22,-20.43 742.53,-12.26 702.33,-10.64"/>
<polygon fill="#63b8ff" stroke="#63b8ff" points="702.65,-7.12 692.55,-10.34 702.45,-14.11 702.65,-7.12"/>
</g>
<!-- Node38&#45;&gt;Node4 -->
<g id="edge80" class="edge">
<title>Node38&#45;&gt;Node4</title>
<path fill="none" stroke="#63b8ff" d="M1538.6,-113.85C1422.06,-103.64 1167.04,-81.31 1050.76,-71.12"/>
<polygon fill="#63b8ff" stroke="#63b8ff" points="1051.21,-67.56 1040.95,-70.18 1050.6,-74.54 1051.21,-67.56"/>
</g>
<!-- Node38&#45;&gt;Node8 -->
<g id="edge83" class="edge">
<title>Node38&#45;&gt;Node8</title>
<path fill="none" stroke="#63b8ff" d="M1597.16,-110.04C1594.05,-95.92 1585.96,-68.88 1567.84,-55.25 1532.29,-28.52 1400.7,-16.62 1339.95,-12.47"/>
<polygon fill="#63b8ff" stroke="#63b8ff" points="1340.34,-8.92 1330.13,-11.76 1339.88,-15.91 1340.34,-8.92"/>
</g>
<!-- Node38&#45;&gt;Node18 -->
<g id="edge82" class="edge">
<title>Node38&#45;&gt;Node18</title>
<path fill="none" stroke="#63b8ff" d="M1557,-110.03C1507.06,-99.18 1424.95,-81.33 1382,-72"/>
<polygon fill="#63b8ff" stroke="#63b8ff" points="1382.99,-68.41 1372.48,-69.71 1381.51,-75.25 1382.99,-68.41"/>
</g>
<!-- Node38&#45;&gt;Node25 -->
<g id="edge81" class="edge">
<title>Node38&#45;&gt;Node25</title>
<path fill="none" stroke="#63b8ff" d="M1587.13,-110.09C1576.96,-102.24 1562,-90.7 1549.92,-81.37"/>
<polygon fill="#63b8ff" stroke="#63b8ff" points="1552.42,-78.11 1542.37,-74.77 1548.15,-83.66 1552.42,-78.11"/>
</g>
<!-- Node38&#45;&gt;Node36 -->
<g id="edge79" class="edge">
<title>Node38&#45;&gt;Node36</title>
<path fill="none" stroke="#63b8ff" d="M1609.01,-110.09C1617.69,-102.4 1630.36,-91.15 1640.75,-81.93"/>
<polygon fill="#63b8ff" stroke="#63b8ff" points="1642.65,-85.03 1647.81,-75.77 1638.01,-79.79 1642.65,-85.03"/>
</g>
</g>
</svg>
