<?xml version="1.0" encoding="UTF-8" standalone="no"?>
<!DOCTYPE svg PUBLIC "-//W3C//DTD SVG 1.1//EN"
 "http://www.w3.org/Graphics/SVG/1.1/DTD/svg11.dtd">
<!-- Generated by graphviz version 9.0.0 (20230911.1827)
 -->
<!-- Title: src/transform/Iotr_Factory.h Pages: 1 -->
<!--zoomable 172 -->

<svg id="main" version="1.1" xmlns="http://www.w3.org/2000/svg" xmlns:xlink="http://www.w3.org/1999/xlink" xml:space="preserve" onload="init(evt)">
<style type="text/css"><![CDATA[
.node, .edge {opacity: 0.7;}
.node.selected, .edge.selected {opacity: 1;}
.edge:hover path { stroke: red; }
.edge:hover polygon { stroke: red; fill: red; }
]]></style>

<defs>
  <circle id="rim" cx="0" cy="0" r="7"/>
  <circle id="rim2" cx="0" cy="0" r="3.5"/>
  <g id="zoomPlus">
    <use xlink:href="#rim" fill="#404040"><set attributeName="fill" to="#808080" begin="zoomplus.mouseover" end="zoomplus.mouseout"/></use>
    <path d="M-4,0h8M0,-4v8" fill="none" stroke="white" stroke-width="1.5" pointer-events="none"/>
  </g>
  <g id="zoomMin">
    <use xlink:href="#rim" fill="#404040"><set attributeName="fill" to="#808080" begin="zoomminus.mouseover" end="zoomminus.mouseout"/></use>
    <path d="M-4,0h8" fill="none" stroke="white" stroke-width="1.5" pointer-events="none"/>
  </g>
  <g id="arrowUp" transform="translate(30 24)">
    <use xlink:href="#rim"/>
    <path pointer-events="none" fill="none" stroke="white" stroke-width="1.5" d="M0,-3.0v7 M-2.5,-0.5L0,-3.0L2.5,-0.5"/>
  </g>
  <g id="arrowRight" transform="rotate(90) translate(36 -43)">
    <use xlink:href="#rim"/>
    <path pointer-events="none" fill="none" stroke="white" stroke-width="1.5" d="M0,-3.0v7 M-2.5,-0.5L0,-3.0L2.5,-0.5"/>
  </g>
  <g id="arrowDown" transform="rotate(180) translate(-30 -48)">
    <use xlink:href="#rim"/>
    <path pointer-events="none" fill="none" stroke="white" stroke-width="1.5" d="M0,-3.0v7 M-2.5,-0.5L0,-3.0L2.5,-0.5"/>
  </g>
  <g id="arrowLeft" transform="rotate(270) translate(-36 17)">
    <use xlink:href="#rim"/>
    <path pointer-events="none" fill="none" stroke="white" stroke-width="1.5" d="M0,-3.0v7 M-2.5,-0.5L0,-3.0L2.5,-0.5"/>
  </g>
  <g id="resetDef">
    <use xlink:href="#rim2" fill="#404040"><set attributeName="fill" to="#808080" begin="reset.mouseover" end="reset.mouseout"/></use>
  </g>
</defs>
<script type="application/ecmascript">
var viewWidth = 1061;
var viewHeight = 172;
var sectionId = 'dynsection-1';
</script>
<script type="application/ecmascript" xlink:href="svg.min.js"/>
<svg id="graph" class="graph">
<g id="viewport">
<title>src/transform/Iotr_Factory.h</title>
<!-- Node1 -->
<g id="Node000001" class="node">
<title>Node1</title>
<g id="a_Node000001"><a xlink:title=" ">
<polygon fill="#999999" stroke="#666666" points="549.25,-163.5 458.25,-163.5 458.25,-133 549.25,-133 549.25,-163.5"/>
<text text-anchor="start" x="466.25" y="-150" font-family="Helvetica,sans-Serif" font-size="10.00">src/transform/Iotr</text>
<text text-anchor="middle" x="503.75" y="-138.75" font-family="Helvetica,sans-Serif" font-size="10.00">_Factory.h</text>
</a>
</g>
</g>
<!-- Node2 -->
<g id="Node000002" class="node">
<title>Node2</title>
<g id="a_Node000002"><a xlink:href="io__shell__ts_8C.html" target="_top" xlink:title=" ">
<polygon fill="white" stroke="#666666" points="113.5,-91.38 0,-91.38 0,-72.12 113.5,-72.12 113.5,-91.38"/>
<text text-anchor="middle" x="56.75" y="-77.88" font-family="Helvetica,sans-Serif" font-size="10.00">src/main/io_shell_ts.C</text>
</a>
</g>
</g>
<!-- Node1&#45;&gt;Node2 -->
<g id="edge1_Node000001_Node000002" class="edge">
<title>Node1&#45;&gt;Node2</title>
<g id="a_edge1_Node000001_Node000002"><a xlink:title=" ">
<path fill="none" stroke="#63b8ff" d="M446.96,-141.31C372.14,-133.13 236.6,-117.11 121.75,-97 113.22,-95.51 104.1,-93.66 95.48,-91.81"/>
<polygon fill="#63b8ff" stroke="#63b8ff" points="446.16,-144.74 456.48,-142.34 446.92,-137.78 446.16,-144.74"/>
</a>
</g>
</g>
<!-- Node3 -->
<g id="Node000003" class="node">
<title>Node3</title>
<g id="a_Node000003"><a xlink:href="Iotr__Factory_8C.html" target="_top" xlink:title=" ">
<polygon fill="white" stroke="#666666" points="222.25,-97 131.25,-97 131.25,-66.5 222.25,-66.5 222.25,-97"/>
<text text-anchor="start" x="139.25" y="-83.5" font-family="Helvetica,sans-Serif" font-size="10.00">src/transform/Iotr</text>
<text text-anchor="middle" x="176.75" y="-72.25" font-family="Helvetica,sans-Serif" font-size="10.00">_Factory.C</text>
</a>
</g>
</g>
<!-- Node1&#45;&gt;Node3 -->
<g id="edge2_Node000001_Node000003" class="edge">
<title>Node1&#45;&gt;Node3</title>
<g id="a_edge2_Node000001_Node000003"><a xlink:title=" ">
<path fill="none" stroke="#63b8ff" d="M446.53,-137.89C391.32,-128.58 305.5,-113.35 231.75,-97 228.76,-96.34 225.7,-95.63 222.61,-94.89"/>
<polygon fill="#63b8ff" stroke="#63b8ff" points="445.9,-141.33 456.34,-139.54 447.05,-134.43 445.9,-141.33"/>
</a>
</g>
</g>
<!-- Node4 -->
<g id="Node000004" class="node">
<title>Node4</title>
<g id="a_Node000004"><a xlink:href="Iotr__MinMax_8h.html" target="_top" xlink:title=" ">
<polygon fill="white" stroke="#666666" points="997.25,-97 906.25,-97 906.25,-66.5 997.25,-66.5 997.25,-97"/>
<text text-anchor="start" x="914.25" y="-83.5" font-family="Helvetica,sans-Serif" font-size="10.00">src/transform/Iotr</text>
<text text-anchor="middle" x="951.75" y="-72.25" font-family="Helvetica,sans-Serif" font-size="10.00">_MinMax.h</text>
</a>
</g>
</g>
<!-- Node1&#45;&gt;Node4 -->
<g id="edge3_Node000001_Node000004" class="edge">
<title>Node1&#45;&gt;Node4</title>
<g id="a_edge3_Node000001_Node000004"><a xlink:title=" ">
<path fill="none" stroke="#63b8ff" d="M560.9,-142.33C637.89,-135.17 778.97,-120.14 897.75,-97 900.41,-96.48 903.14,-95.9 905.89,-95.29"/>
<polygon fill="#63b8ff" stroke="#63b8ff" points="560.71,-138.84 551.07,-143.24 561.35,-145.81 560.71,-138.84"/>
</a>
</g>
</g>
<!-- Node7 -->
<g id="Node000007" class="node">
<title>Node7</title>
<g id="a_Node000007"><a xlink:href="Iotr__Offset_8h.html" target="_top" xlink:title=" ">
<polygon fill="white" stroke="#666666" points="331.25,-97 240.25,-97 240.25,-66.5 331.25,-66.5 331.25,-97"/>
<text text-anchor="start" x="248.25" y="-83.5" font-family="Helvetica,sans-Serif" font-size="10.00">src/transform/Iotr</text>
<text text-anchor="middle" x="285.75" y="-72.25" font-family="Helvetica,sans-Serif" font-size="10.00">_Offset.h</text>
</a>
</g>
</g>
<!-- Node1&#45;&gt;Node7 -->
<g id="edge6_Node000001_Node000007" class="edge">
<title>Node1&#45;&gt;Node7</title>
<g id="a_edge6_Node000001_Node000007"><a xlink:title=" ">
<path fill="none" stroke="#63b8ff" d="M446.98,-130.45C411.07,-119.83 365.26,-106.27 331.65,-96.33"/>
<polygon fill="#63b8ff" stroke="#63b8ff" points="445.75,-133.74 456.33,-133.22 447.74,-127.03 445.75,-133.74"/>
</a>
</g>
</g>
<!-- Node9 -->
<g id="Node000009" class="node">
<title>Node9</title>
<g id="a_Node000009"><a xlink:href="Iotr__Offset3D_8h.html" target="_top" xlink:title=" ">
<polygon fill="white" stroke="#666666" points="440.25,-97 349.25,-97 349.25,-66.5 440.25,-66.5 440.25,-97"/>
<text text-anchor="start" x="357.25" y="-83.5" font-family="Helvetica,sans-Serif" font-size="10.00">src/transform/Iotr</text>
<text text-anchor="middle" x="394.75" y="-72.25" font-family="Helvetica,sans-Serif" font-size="10.00">_Offset3D.h</text>
</a>
</g>
</g>
<!-- Node1&#45;&gt;Node9 -->
<g id="edge9_Node000001_Node000009" class="edge">
<title>Node1&#45;&gt;Node9</title>
<g id="a_edge9_Node000001_Node000009"><a xlink:title=" ">
<path fill="none" stroke="#63b8ff" d="M469.34,-126.89C453.12,-117.29 434.14,-106.06 419.39,-97.33"/>
<polygon fill="#63b8ff" stroke="#63b8ff" points="467.33,-129.76 477.71,-131.84 470.89,-123.74 467.33,-129.76"/>
</a>
</g>
</g>
<!-- Node11 -->
<g id="Node000011" class="node">
<title>Node11</title>
<g id="a_Node000011"><a xlink:href="Iotr__Scale_8h.html" target="_top" xlink:title=" ">
<polygon fill="white" stroke="#666666" points="549.25,-97 458.25,-97 458.25,-66.5 549.25,-66.5 549.25,-97"/>
<text text-anchor="start" x="466.25" y="-83.5" font-family="Helvetica,sans-Serif" font-size="10.00">src/transform/Iotr</text>
<text text-anchor="middle" x="503.75" y="-72.25" font-family="Helvetica,sans-Serif" font-size="10.00">_Scale.h</text>
</a>
</g>
</g>
<!-- Node1&#45;&gt;Node11 -->
<g id="edge12_Node000001_Node000011" class="edge">
<title>Node1&#45;&gt;Node11</title>
<g id="a_edge12_Node000001_Node000011"><a xlink:title=" ">
<path fill="none" stroke="#63b8ff" d="M503.75,-121.31C503.75,-113.14 503.75,-104.41 503.75,-97.33"/>
<polygon fill="#63b8ff" stroke="#63b8ff" points="500.25,-121.1 503.75,-131.1 507.25,-121.1 500.25,-121.1"/>
</a>
</g>
</g>
<!-- Node13 -->
<g id="Node000013" class="node">
<title>Node13</title>
<g id="a_Node000013"><a xlink:href="Iotr__Scale3D_8h.html" target="_top" xlink:title=" ">
<polygon fill="white" stroke="#666666" points="658.25,-97 567.25,-97 567.25,-66.5 658.25,-66.5 658.25,-97"/>
<text text-anchor="start" x="575.25" y="-83.5" font-family="Helvetica,sans-Serif" font-size="10.00">src/transform/Iotr</text>
<text text-anchor="middle" x="612.75" y="-72.25" font-family="Helvetica,sans-Serif" font-size="10.00">_Scale3D.h</text>
</a>
</g>
</g>
<!-- Node1&#45;&gt;Node13 -->
<g id="edge15_Node000001_Node000013" class="edge">
<title>Node1&#45;&gt;Node13</title>
<g id="a_edge15_Node000001_Node000013"><a xlink:title=" ">
<path fill="none" stroke="#63b8ff" d="M538.16,-126.89C554.38,-117.29 573.36,-106.06 588.11,-97.33"/>
<polygon fill="#63b8ff" stroke="#63b8ff" points="536.61,-123.74 529.79,-131.84 540.17,-129.76 536.61,-123.74"/>
</a>
</g>
</g>
<!-- Node15 -->
<g id="Node000015" class="node">
<title>Node15</title>
<g id="a_Node000015"><a xlink:href="Iotr__Tensor_8h.html" target="_top" xlink:title=" ">
<polygon fill="white" stroke="#666666" points="767.25,-97 676.25,-97 676.25,-66.5 767.25,-66.5 767.25,-97"/>
<text text-anchor="start" x="684.25" y="-83.5" font-family="Helvetica,sans-Serif" font-size="10.00">src/transform/Iotr</text>
<text text-anchor="middle" x="721.75" y="-72.25" font-family="Helvetica,sans-Serif" font-size="10.00">_Tensor.h</text>
</a>
</g>
</g>
<!-- Node1&#45;&gt;Node15 -->
<g id="edge18_Node000001_Node000015" class="edge">
<title>Node1&#45;&gt;Node15</title>
<g id="a_edge18_Node000001_Node000015"><a xlink:title=" ">
<path fill="none" stroke="#63b8ff" d="M560.52,-130.45C596.43,-119.83 642.24,-106.27 675.85,-96.33"/>
<polygon fill="#63b8ff" stroke="#63b8ff" points="559.76,-127.03 551.17,-133.22 561.75,-133.74 559.76,-127.03"/>
</a>
</g>
</g>
<!-- Node17 -->
<g id="Node000017" class="node">
<title>Node17</title>
<g id="a_Node000017"><a xlink:href="Iotr__VectorMagnitude_8h.html" target="_top" xlink:title=" ">
<polygon fill="white" stroke="#666666" points="888.25,-97 785.25,-97 785.25,-66.5 888.25,-66.5 888.25,-97"/>
<text text-anchor="start" x="793.25" y="-83.5" font-family="Helvetica,sans-Serif" font-size="10.00">src/transform/Iotr</text>
<text text-anchor="middle" x="836.75" y="-72.25" font-family="Helvetica,sans-Serif" font-size="10.00">_VectorMagnitude.h</text>
</a>
</g>
</g>
<!-- Node1&#45;&gt;Node17 -->
<g id="edge21_Node000001_Node000017" class="edge">
<title>Node1&#45;&gt;Node17</title>
<g id="a_edge21_Node000001_Node000017"><a xlink:title=" ">
<path fill="none" stroke="#63b8ff" d="M560.62,-137.66C615.96,-128.11 702.35,-112.67 776.75,-97 779.37,-96.45 782.05,-95.87 784.75,-95.27"/>
<polygon fill="#63b8ff" stroke="#63b8ff" points="560.05,-134.2 550.79,-139.34 561.24,-141.1 560.05,-134.2"/>
</a>
</g>
</g>
<!-- Node5 -->
<g id="Node000005" class="node">
<title>Node5</title>
<g id="a_Node000005"><a xlink:href="Iotr__Initializer_8C.html" target="_top" xlink:title=" ">
<polygon fill="white" stroke="#666666" points="603.25,-30.5 512.25,-30.5 512.25,0 603.25,0 603.25,-30.5"/>
<text text-anchor="start" x="520.25" y="-17" font-family="Helvetica,sans-Serif" font-size="10.00">src/transform/Iotr</text>
<text text-anchor="middle" x="557.75" y="-5.75" font-family="Helvetica,sans-Serif" font-size="10.00">_Initializer.C</text>
</a>
</g>
</g>
<!-- Node4&#45;&gt;Node5 -->
<g id="edge4_Node000004_Node000005" class="edge">
<title>Node4&#45;&gt;Node5</title>
<g id="a_edge4_Node000004_Node000005"><a xlink:title=" ">
<path fill="none" stroke="#63b8ff" d="M894.78,-66.08C770.4,-42.83 734.58,-53.88 612.75,-30.5 609.75,-29.92 606.66,-29.28 603.57,-28.59"/>
<polygon fill="#63b8ff" stroke="#63b8ff" points="893.92,-69.48 904.4,-67.92 895.24,-62.61 893.92,-69.48"/>
</a>
</g>
</g>
<!-- Node6 -->
<g id="Node000006" class="node">
<title>Node6</title>
<g id="a_Node000006"><a xlink:href="Iotr__MinMax_8C.html" target="_top" xlink:title=" ">
<polygon fill="white" stroke="#666666" points="1053.25,-30.5 962.25,-30.5 962.25,0 1053.25,0 1053.25,-30.5"/>
<text text-anchor="start" x="970.25" y="-17" font-family="Helvetica,sans-Serif" font-size="10.00">src/transform/Iotr</text>
<text text-anchor="middle" x="1007.75" y="-5.75" font-family="Helvetica,sans-Serif" font-size="10.00">_MinMax.C</text>
</a>
</g>
</g>
<!-- Node4&#45;&gt;Node6 -->
<g id="edge5_Node000004_Node000006" class="edge">
<title>Node4&#45;&gt;Node6</title>
<g id="a_edge5_Node000004_Node000006"><a xlink:title=" ">
<path fill="none" stroke="#63b8ff" d="M971.82,-57.63C979.58,-48.69 988.23,-38.74 995.09,-30.83"/>
<polygon fill="#63b8ff" stroke="#63b8ff" points="969.36,-55.13 965.45,-64.97 974.65,-59.71 969.36,-55.13"/>
</a>
</g>
</g>
<!-- Node7&#45;&gt;Node5 -->
<g id="edge7_Node000007_Node000005" class="edge">
<title>Node7&#45;&gt;Node5</title>
<g id="a_edge7_Node000007_Node000005"><a xlink:title=" ">
<path fill="none" stroke="#63b8ff" d="M342.66,-66.1C414.77,-49.04 435.03,-47.15 503.75,-30.5 506.39,-29.86 509.1,-29.19 511.83,-28.5"/>
<polygon fill="#63b8ff" stroke="#63b8ff" points="342.02,-62.65 333.11,-68.38 343.65,-69.46 342.02,-62.65"/>
</a>
</g>
</g>
<!-- Node8 -->
<g id="Node000008" class="node">
<title>Node8</title>
<g id="a_Node000008"><a xlink:href="Iotr__Offset_8C.html" target="_top" xlink:title=" ">
<polygon fill="white" stroke="#666666" points="276.25,-30.5 185.25,-30.5 185.25,0 276.25,0 276.25,-30.5"/>
<text text-anchor="start" x="193.25" y="-17" font-family="Helvetica,sans-Serif" font-size="10.00">src/transform/Iotr</text>
<text text-anchor="middle" x="230.75" y="-5.75" font-family="Helvetica,sans-Serif" font-size="10.00">_Offset.C</text>
</a>
</g>
</g>
<!-- Node7&#45;&gt;Node8 -->
<g id="edge8_Node000007_Node000008" class="edge">
<title>Node7&#45;&gt;Node8</title>
<g id="a_edge8_Node000007_Node000008"><a xlink:title=" ">
<path fill="none" stroke="#63b8ff" d="M266.04,-57.63C258.41,-48.69 249.92,-38.74 243.18,-30.83"/>
<polygon fill="#63b8ff" stroke="#63b8ff" points="263.14,-59.62 272.29,-64.96 268.46,-55.08 263.14,-59.62"/>
</a>
</g>
</g>
<!-- Node9&#45;&gt;Node5 -->
<g id="edge10_Node000009_Node000005" class="edge">
<title>Node9&#45;&gt;Node5</title>
<g id="a_edge10_Node000009_Node000005"><a xlink:title=" ">
<path fill="none" stroke="#63b8ff" d="M442.43,-61.88C467.37,-52.01 497.45,-40.11 520.63,-30.94"/>
<polygon fill="#63b8ff" stroke="#63b8ff" points="441.16,-58.62 433.14,-65.56 443.73,-65.13 441.16,-58.62"/>
</a>
</g>
</g>
<!-- Node10 -->
<g id="Node000010" class="node">
<title>Node10</title>
<g id="a_Node000010"><a xlink:href="Iotr__Offset3D_8C.html" target="_top" xlink:title=" ">
<polygon fill="white" stroke="#666666" points="385.25,-30.5 294.25,-30.5 294.25,0 385.25,0 385.25,-30.5"/>
<text text-anchor="start" x="302.25" y="-17" font-family="Helvetica,sans-Serif" font-size="10.00">src/transform/Iotr</text>
<text text-anchor="middle" x="339.75" y="-5.75" font-family="Helvetica,sans-Serif" font-size="10.00">_Offset3D.C</text>
</a>
</g>
</g>
<!-- Node9&#45;&gt;Node10 -->
<g id="edge11_Node000009_Node000010" class="edge">
<title>Node9&#45;&gt;Node10</title>
<g id="a_edge11_Node000009_Node000010"><a xlink:title=" ">
<path fill="none" stroke="#63b8ff" d="M375.04,-57.63C367.41,-48.69 358.92,-38.74 352.18,-30.83"/>
<polygon fill="#63b8ff" stroke="#63b8ff" points="372.14,-59.62 381.29,-64.96 377.46,-55.08 372.14,-59.62"/>
</a>
</g>
</g>
<!-- Node11&#45;&gt;Node5 -->
<g id="edge13_Node000011_Node000005" class="edge">
<title>Node11&#45;&gt;Node5</title>
<g id="a_edge13_Node000011_Node000005"><a xlink:title=" ">
<path fill="none" stroke="#63b8ff" d="M523.34,-57.35C530.76,-48.48 538.99,-38.65 545.55,-30.83"/>
<polygon fill="#63b8ff" stroke="#63b8ff" points="520.71,-55.04 516.98,-64.95 526.08,-59.53 520.71,-55.04"/>
</a>
</g>
</g>
<!-- Node12 -->
<g id="Node000012" class="node">
<title>Node12</title>
<g id="a_Node000012"><a xlink:href="Iotr__Scale_8C.html" target="_top" xlink:title=" ">
<polygon fill="white" stroke="#666666" points="494.25,-30.5 403.25,-30.5 403.25,0 494.25,0 494.25,-30.5"/>
<text text-anchor="start" x="411.25" y="-17" font-family="Helvetica,sans-Serif" font-size="10.00">src/transform/Iotr</text>
<text text-anchor="middle" x="448.75" y="-5.75" font-family="Helvetica,sans-Serif" font-size="10.00">_Scale.C</text>
</a>
</g>
</g>
<!-- Node11&#45;&gt;Node12 -->
<g id="edge14_Node000011_Node000012" class="edge">
<title>Node11&#45;&gt;Node12</title>
<g id="a_edge14_Node000011_Node000012"><a xlink:title=" ">
<path fill="none" stroke="#63b8ff" d="M484.04,-57.63C476.41,-48.69 467.92,-38.74 461.18,-30.83"/>
<polygon fill="#63b8ff" stroke="#63b8ff" points="481.14,-59.62 490.29,-64.96 486.46,-55.08 481.14,-59.62"/>
</a>
</g>
</g>
<!-- Node13&#45;&gt;Node5 -->
<g id="edge16_Node000013_Node000005" class="edge">
<title>Node13&#45;&gt;Node5</title>
<g id="a_edge16_Node000013_Node000005"><a xlink:title=" ">
<path fill="none" stroke="#63b8ff" d="M593.04,-57.63C585.41,-48.69 576.92,-38.74 570.18,-30.83"/>
<polygon fill="#63b8ff" stroke="#63b8ff" points="590.14,-59.62 599.29,-64.96 595.46,-55.08 590.14,-59.62"/>
</a>
</g>
</g>
<!-- Node14 -->
<g id="Node000014" class="node">
<title>Node14</title>
<g id="a_Node000014"><a xlink:href="Iotr__Scale3D_8C.html" target="_top" xlink:title=" ">
<polygon fill="white" stroke="#666666" points="712.25,-30.5 621.25,-30.5 621.25,0 712.25,0 712.25,-30.5"/>
<text text-anchor="start" x="629.25" y="-17" font-family="Helvetica,sans-Serif" font-size="10.00">src/transform/Iotr</text>
<text text-anchor="middle" x="666.75" y="-5.75" font-family="Helvetica,sans-Serif" font-size="10.00">_Scale3D.C</text>
</a>
</g>
</g>
<!-- Node13&#45;&gt;Node14 -->
<g id="edge17_Node000013_Node000014" class="edge">
<title>Node13&#45;&gt;Node14</title>
<g id="a_edge17_Node000013_Node000014"><a xlink:title=" ">
<path fill="none" stroke="#63b8ff" d="M632.34,-57.35C639.76,-48.48 647.99,-38.65 654.55,-30.83"/>
<polygon fill="#63b8ff" stroke="#63b8ff" points="629.71,-55.04 625.98,-64.95 635.08,-59.53 629.71,-55.04"/>
</a>
</g>
</g>
<!-- Node15&#45;&gt;Node5 -->
<g id="edge19_Node000015_Node000005" class="edge">
<title>Node15&#45;&gt;Node5</title>
<g id="a_edge19_Node000015_Node000005"><a xlink:title=" ">
<path fill="none" stroke="#63b8ff" d="M674.11,-62.01C648.95,-52.12 618.53,-40.15 595.1,-30.94"/>
<polygon fill="#63b8ff" stroke="#63b8ff" points="672.54,-65.16 683.13,-65.56 675.1,-58.64 672.54,-65.16"/>
</a>
</g>
</g>
<!-- Node16 -->
<g id="Node000016" class="node">
<title>Node16</title>
<g id="a_Node000016"><a xlink:href="Iotr__Tensor_8C.html" target="_top" xlink:title=" ">
<polygon fill="white" stroke="#666666" points="821.25,-30.5 730.25,-30.5 730.25,0 821.25,0 821.25,-30.5"/>
<text text-anchor="start" x="738.25" y="-17" font-family="Helvetica,sans-Serif" font-size="10.00">src/transform/Iotr</text>
<text text-anchor="middle" x="775.75" y="-5.75" font-family="Helvetica,sans-Serif" font-size="10.00">_Tensor.C</text>
</a>
</g>
</g>
<!-- Node15&#45;&gt;Node16 -->
<g id="edge20_Node000015_Node000016" class="edge">
<title>Node15&#45;&gt;Node16</title>
<g id="a_edge20_Node000015_Node000016"><a xlink:title=" ">
<path fill="none" stroke="#63b8ff" d="M741.34,-57.35C748.76,-48.48 756.99,-38.65 763.55,-30.83"/>
<polygon fill="#63b8ff" stroke="#63b8ff" points="738.71,-55.04 734.98,-64.95 744.08,-59.53 738.71,-55.04"/>
</a>
</g>
</g>
<!-- Node17&#45;&gt;Node5 -->
<g id="edge22_Node000017_Node000005" class="edge">
<title>Node17&#45;&gt;Node5</title>
<g id="a_edge22_Node000017_Node000005"><a xlink:title=" ">
<path fill="none" stroke="#63b8ff" d="M774.05,-65.91C702.13,-49.65 681.92,-47.05 612.75,-30.5 609.78,-29.79 606.72,-29.04 603.63,-28.28"/>
<polygon fill="#63b8ff" stroke="#63b8ff" points="773.05,-69.27 783.58,-68.08 774.6,-62.45 773.05,-69.27"/>
</a>
</g>
</g>
<!-- Node18 -->
<g id="Node000018" class="node">
<title>Node18</title>
<g id="a_Node000018"><a xlink:href="Iotr__VectorMagnitude_8C.html" target="_top" xlink:title=" ">
<polygon fill="white" stroke="#666666" points="944.38,-30.5 839.12,-30.5 839.12,0 944.38,0 944.38,-30.5"/>
<text text-anchor="start" x="847.12" y="-17" font-family="Helvetica,sans-Serif" font-size="10.00">src/transform/Iotr</text>
<text text-anchor="middle" x="891.75" y="-5.75" font-family="Helvetica,sans-Serif" font-size="10.00">_VectorMagnitude.C</text>
</a>
</g>
</g>
<!-- Node17&#45;&gt;Node18 -->
<g id="edge23_Node000017_Node000018" class="edge">
<title>Node17&#45;&gt;Node18</title>
<g id="a_edge23_Node000017_Node000018"><a xlink:title=" ">
<path fill="none" stroke="#63b8ff" d="M856.46,-57.63C864.09,-48.69 872.58,-38.74 879.32,-30.83"/>
<polygon fill="#63b8ff" stroke="#63b8ff" points="854.04,-55.08 850.21,-64.96 859.36,-59.62 854.04,-55.08"/>
</a>
</g>
</g>
</g>
</svg>

<g id="navigator" transform="translate(0 0)" fill="#404254">
  <rect fill="#f2f5e9" fill-opacity="0.5" stroke="#606060" stroke-width=".5" x="0" y="0" width="60" height="60"/>
  <use id="zoomplus" xlink:href="#zoomPlus" x="17" y="9" onmousedown="handleZoom(evt,'in')"/>
  <use id="zoomminus" xlink:href="#zoomMin" x="42" y="9" onmousedown="handleZoom(evt,'out')"/>
  <use id="reset" xlink:href="#resetDef" x="30" y="36" onmousedown="handleReset()"/>
   <use id="arrowup" xlink:href="#arrowUp" x="0" y="0" onmousedown="handlePan(0,-1)"/>
  <use id="arrowright" xlink:href="#arrowRight" x="0" y="0" onmousedown="handlePan(1,0)"/>
  <use id="arrowdown" xlink:href="#arrowDown" x="0" y="0" onmousedown="handlePan(0,1)"/>
  <use id="arrowleft" xlink:href="#arrowLeft" x="0" y="0" onmousedown="handlePan(-1,0)"/>
</g>
<svg viewBox="0 0 15 15" width="100%" height="30px" preserveAspectRatio="xMaxYMin meet">
 <g id="arrow_out" transform="scale(0.3 0.3)">
  <a xlink:href="Iotr__Factory_8h__dep__incl_org.svg" target="_base">
   <rect id="button" ry="5" rx="5" y="6" x="6" height="38" width="38"
        fill="#f2f5e9" fill-opacity="0.5" stroke="#606060" stroke-width="1.0"/>
   <path id="arrow"
     d="M 11.500037,31.436501 C 11.940474,20.09759 22.043105,11.32322 32.158766,21.979434 L 37.068811,17.246167 C 37.068811,17.246167 37.088388,32 37.088388,32 L 22.160133,31.978069 C 22.160133,31.978069 26.997745,27.140456 26.997745,27.140456 C 18.528582,18.264221 13.291696,25.230495 11.500037,31.436501 z"
     style="fill:#404040;"/>
  </a>
 </g>
</svg>

<style type='text/css'>
<![CDATA[
[data-mouse-over-selected='false'] { opacity: 0.7; }
[data-mouse-over-selected='true']  { opacity: 1.0; }
]]>
</style>
<script type="application/ecmascript"><![CDATA[
document.addEventListener('DOMContentLoaded', (event) => {
  highlightEdges();
  highlightAdjacentNodes();
});
]]></script>
</svg>
