<?xml version="1.0" encoding="UTF-8" standalone="no"?>
<!DOCTYPE svg PUBLIC "-//W3C//DTD SVG 1.1//EN"
 "http://www.w3.org/Graphics/SVG/1.1/DTD/svg11.dtd">
<!-- Generated by graphviz version 7.0.2 (20221119.0110)
 -->
<!-- Title: src/transform/Iotr_Scale.C Pages: 1 -->
<svg width="1686pt" height="423pt"
 viewBox="0.00 0.00 1686.00 423.00" xmlns="http://www.w3.org/2000/svg" xmlns:xlink="http://www.w3.org/1999/xlink">
<g id="graph0" class="graph" transform="scale(1 1) rotate(0) translate(4 419)">
<title>src/transform/Iotr_Scale.C</title>
<!-- Node1 -->
<g id="node1" class="node">
<title>Node1</title>
<g id="a_node1"><a xlink:title=" ">
<polygon fill="#999999" stroke="#666666" points="1212,-415 1120,-415 1120,-385 1212,-385 1212,-415"/>
<text text-anchor="start" x="1128" y="-403" font-family="Helvetica,sans-Serif" font-size="10.00">src/transform/Iotr</text>
<text text-anchor="middle" x="1166" y="-392" font-family="Helvetica,sans-Serif" font-size="10.00">_Scale.C</text>
</a>
</g>
</g>
<!-- Node2 -->
<g id="node2" class="node">
<title>Node2</title>
<g id="a_node2"><a xlink:href="Ioss__Field_8h.html" target="_top" xlink:title=" ">
<polygon fill="white" stroke="#666666" points="466,-129 396,-129 396,-110 466,-110 466,-129"/>
<text text-anchor="middle" x="431" y="-117" font-family="Helvetica,sans-Serif" font-size="10.00">Ioss_Field.h</text>
</a>
</g>
</g>
<!-- Node1&#45;&gt;Node2 -->
<g id="edge1" class="edge">
<title>Node1&#45;&gt;Node2</title>
<path fill="none" stroke="#63b8ff" d="M1119.72,-397.45C947.57,-391.06 354,-363.39 354,-285.5 354,-285.5 354,-285.5 354,-228.5 354,-189.84 387.11,-155.44 409.91,-136.34"/>
<polygon fill="#63b8ff" stroke="#63b8ff" points="411.84,-139.28 417.45,-130.29 407.46,-133.82 411.84,-139.28"/>
</g>
<!-- Node6 -->
<g id="node6" class="node">
<title>Node6</title>
<g id="a_node6"><a xlink:title=" ">
<polygon fill="#e0e0e0" stroke="#999999" points="527.5,-19 478.5,-19 478.5,0 527.5,0 527.5,-19"/>
<text text-anchor="middle" x="503" y="-7" font-family="Helvetica,sans-Serif" font-size="10.00">cstddef</text>
</a>
</g>
</g>
<!-- Node1&#45;&gt;Node6 -->
<g id="edge66" class="edge">
<title>Node1&#45;&gt;Node6</title>
<path fill="none" stroke="#63b8ff" d="M1119.57,-399.44C902.71,-400.89 0,-400.03 0,-285.5 0,-285.5 0,-285.5 0,-173.5 0,-75.31 351.26,-27.4 466.71,-14.3"/>
<polygon fill="#63b8ff" stroke="#63b8ff" points="467,-17.79 476.55,-13.21 466.23,-10.84 467,-17.79"/>
</g>
<!-- Node8 -->
<g id="node8" class="node">
<title>Node8</title>
<g id="a_node8"><a xlink:title=" ">
<polygon fill="#e0e0e0" stroke="#999999" points="1256.5,-19 1215.5,-19 1215.5,0 1256.5,0 1256.5,-19"/>
<text text-anchor="middle" x="1236" y="-7" font-family="Helvetica,sans-Serif" font-size="10.00">string</text>
</a>
</g>
</g>
<!-- Node1&#45;&gt;Node8 -->
<g id="edge67" class="edge">
<title>Node1&#45;&gt;Node8</title>
<path fill="none" stroke="#63b8ff" d="M1212.34,-398.53C1338.37,-396.01 1678,-380.42 1678,-285.5 1678,-285.5 1678,-285.5 1678,-118.5 1678,-86.06 1669.1,-72.84 1642,-55 1580.75,-14.68 1353.46,-10.47 1268.4,-10.33"/>
<polygon fill="#63b8ff" stroke="#63b8ff" points="1268.43,-6.83 1258.44,-10.34 1268.44,-13.83 1268.43,-6.83"/>
</g>
<!-- Node12 -->
<g id="node12" class="node">
<title>Node12</title>
<g id="a_node12"><a xlink:href="Ioss__VariableType_8h.html" target="_top" xlink:title=" ">
<polygon fill="white" stroke="#666666" points="1320,-294 1216,-294 1216,-275 1320,-275 1320,-294"/>
<text text-anchor="middle" x="1268" y="-282" font-family="Helvetica,sans-Serif" font-size="10.00">Ioss_VariableType.h</text>
</a>
</g>
</g>
<!-- Node1&#45;&gt;Node12 -->
<g id="edge14" class="edge">
<title>Node1&#45;&gt;Node12</title>
<path fill="none" stroke="#63b8ff" d="M1178.92,-384.63C1197.68,-363.75 1232.42,-325.09 1252.52,-302.72"/>
<polygon fill="#63b8ff" stroke="#63b8ff" points="1255.06,-305.13 1259.14,-295.36 1249.86,-300.45 1255.06,-305.13"/>
</g>
<!-- Node34 -->
<g id="node34" class="node">
<title>Node34</title>
<g id="a_node34"><a xlink:href="Iotr__Scale_8h.html" target="_top" xlink:title=" ">
<polygon fill="white" stroke="#666666" points="1539.5,-349 1426.5,-349 1426.5,-330 1539.5,-330 1539.5,-349"/>
<text text-anchor="middle" x="1483" y="-337" font-family="Helvetica,sans-Serif" font-size="10.00">transform/Iotr_Scale.h</text>
</a>
</g>
</g>
<!-- Node1&#45;&gt;Node34 -->
<g id="edge68" class="edge">
<title>Node1&#45;&gt;Node34</title>
<path fill="none" stroke="#63b8ff" d="M1212.43,-390.43C1268.29,-380.12 1362.15,-362.8 1423.33,-351.51"/>
<polygon fill="#63b8ff" stroke="#63b8ff" points="1423.67,-355.01 1432.87,-349.75 1422.4,-348.12 1423.67,-355.01"/>
</g>
<!-- Node36 -->
<g id="node36" class="node">
<title>Node36</title>
<g id="a_node36"><a xlink:href="Ioss__Transform_8h.html" target="_top" xlink:title=" ">
<polygon fill="white" stroke="#666666" points="927.5,-129 834.5,-129 834.5,-110 927.5,-110 927.5,-129"/>
<text text-anchor="middle" x="881" y="-117" font-family="Helvetica,sans-Serif" font-size="10.00">Ioss_Transform.h</text>
</a>
</g>
</g>
<!-- Node1&#45;&gt;Node36 -->
<g id="edge83" class="edge">
<title>Node1&#45;&gt;Node36</title>
<path fill="none" stroke="#63b8ff" d="M1128.92,-384.51C1091.44,-367.14 1039,-334.14 1039,-285.5 1039,-285.5 1039,-285.5 1039,-228.5 1039,-175.75 978.23,-146.89 932.06,-132.57"/>
<polygon fill="#63b8ff" stroke="#63b8ff" points="933.31,-129.29 922.73,-129.83 931.34,-136.01 933.31,-129.29"/>
</g>
<!-- Node3 -->
<g id="node3" class="node">
<title>Node3</title>
<g id="a_node3"><a xlink:title=" ">
<polygon fill="#e0e0e0" stroke="#999999" points="719.5,-74 644.5,-74 644.5,-55 719.5,-55 719.5,-74"/>
<text text-anchor="middle" x="682" y="-62" font-family="Helvetica,sans-Serif" font-size="10.00">ioss_export.h</text>
</a>
</g>
</g>
<!-- Node2&#45;&gt;Node3 -->
<g id="edge2" class="edge">
<title>Node2&#45;&gt;Node3</title>
<path fill="none" stroke="#63b8ff" d="M466.43,-111.02C509.97,-101.83 584.07,-86.18 633.03,-75.84"/>
<polygon fill="#63b8ff" stroke="#63b8ff" points="633.75,-79.27 642.81,-73.78 632.3,-72.42 633.75,-79.27"/>
</g>
<!-- Node4 -->
<g id="node4" class="node">
<title>Node4</title>
<g id="a_node4"><a xlink:href="Ioss__CodeTypes_8h.html" target="_top" xlink:title=" ">
<polygon fill="white" stroke="#666666" points="950,-74 852,-74 852,-55 950,-55 950,-74"/>
<text text-anchor="middle" x="901" y="-62" font-family="Helvetica,sans-Serif" font-size="10.00">Ioss_CodeTypes.h</text>
</a>
</g>
</g>
<!-- Node2&#45;&gt;Node4 -->
<g id="edge3" class="edge">
<title>Node2&#45;&gt;Node4</title>
<path fill="none" stroke="#63b8ff" d="M466.33,-114.52C546.11,-105.52 740.99,-83.54 840.45,-72.33"/>
<polygon fill="#63b8ff" stroke="#63b8ff" points="840.76,-75.82 850.3,-71.22 839.97,-68.86 840.76,-75.82"/>
</g>
<!-- Node2&#45;&gt;Node6 -->
<g id="edge11" class="edge">
<title>Node2&#45;&gt;Node6</title>
<path fill="none" stroke="#63b8ff" d="M466.44,-110.46C498.98,-102.28 543.66,-88.73 554,-74 566.05,-56.83 547.01,-38.24 528.87,-25.64"/>
<polygon fill="#63b8ff" stroke="#63b8ff" points="530.92,-22.8 520.62,-20.29 527.11,-28.67 530.92,-22.8"/>
</g>
<!-- Node2&#45;&gt;Node8 -->
<g id="edge12" class="edge">
<title>Node2&#45;&gt;Node8</title>
<path fill="none" stroke="#63b8ff" d="M459.13,-109.56C512.99,-92.46 626.14,-56.68 635,-55 745.72,-33.95 1095.75,-16.81 1203.87,-11.91"/>
<polygon fill="#63b8ff" stroke="#63b8ff" points="1203.92,-15.41 1213.75,-11.47 1203.61,-8.42 1203.92,-15.41"/>
</g>
<!-- Node9 -->
<g id="node9" class="node">
<title>Node9</title>
<g id="a_node9"><a xlink:title=" ">
<polygon fill="#e0e0e0" stroke="#999999" points="174,-19 130,-19 130,0 174,0 174,-19"/>
<text text-anchor="middle" x="152" y="-7" font-family="Helvetica,sans-Serif" font-size="10.00">vector</text>
</a>
</g>
</g>
<!-- Node2&#45;&gt;Node9 -->
<g id="edge13" class="edge">
<title>Node2&#45;&gt;Node9</title>
<path fill="none" stroke="#63b8ff" d="M463.45,-109.57C497.16,-98.76 542.25,-78.97 521,-55 498.9,-30.07 272.28,-16.4 185.53,-12.05"/>
<polygon fill="#63b8ff" stroke="#63b8ff" points="185.92,-8.57 175.76,-11.57 185.58,-15.56 185.92,-8.57"/>
</g>
<!-- Node5 -->
<g id="node5" class="node">
<title>Node5</title>
<g id="a_node5"><a xlink:title=" ">
<polygon fill="#e0e0e0" stroke="#999999" points="984,-19 946,-19 946,0 984,0 984,-19"/>
<text text-anchor="middle" x="965" y="-7" font-family="Helvetica,sans-Serif" font-size="10.00">array</text>
</a>
</g>
</g>
<!-- Node4&#45;&gt;Node5 -->
<g id="edge4" class="edge">
<title>Node4&#45;&gt;Node5</title>
<path fill="none" stroke="#63b8ff" d="M911.86,-54.51C921.11,-46.85 934.62,-35.66 945.71,-26.47"/>
<polygon fill="#63b8ff" stroke="#63b8ff" points="947.67,-29.4 953.14,-20.32 943.2,-24.01 947.67,-29.4"/>
</g>
<!-- Node4&#45;&gt;Node6 -->
<g id="edge5" class="edge">
<title>Node4&#45;&gt;Node6</title>
<path fill="none" stroke="#63b8ff" d="M851.82,-56.85C847.15,-56.23 842.48,-55.6 838,-55 729.24,-40.44 600.59,-23.4 539.16,-15.28"/>
<polygon fill="#63b8ff" stroke="#63b8ff" points="539.67,-11.82 529.3,-13.97 538.75,-18.76 539.67,-11.82"/>
</g>
<!-- Node7 -->
<g id="node7" class="node">
<title>Node7</title>
<g id="a_node7"><a xlink:title=" ">
<polygon fill="#e0e0e0" stroke="#999999" points="61,-19 15,-19 15,0 61,0 61,-19"/>
<text text-anchor="middle" x="38" y="-7" font-family="Helvetica,sans-Serif" font-size="10.00">cstdint</text>
</a>
</g>
</g>
<!-- Node4&#45;&gt;Node7 -->
<g id="edge6" class="edge">
<title>Node4&#45;&gt;Node7</title>
<path fill="none" stroke="#63b8ff" d="M851.71,-60.98C703.62,-53.36 264.07,-30.4 121,-19 105.05,-17.73 87.41,-15.97 72.51,-14.39"/>
<polygon fill="#63b8ff" stroke="#63b8ff" points="73.05,-10.92 62.73,-13.33 72.3,-17.88 73.05,-10.92"/>
</g>
<!-- Node4&#45;&gt;Node8 -->
<g id="edge7" class="edge">
<title>Node4&#45;&gt;Node8</title>
<path fill="none" stroke="#63b8ff" d="M950.43,-55.68C1020.07,-44.66 1145.12,-24.88 1203.86,-15.58"/>
<polygon fill="#63b8ff" stroke="#63b8ff" points="1204.19,-19.08 1213.52,-14.06 1203.1,-12.16 1204.19,-19.08"/>
</g>
<!-- Node4&#45;&gt;Node9 -->
<g id="edge8" class="edge">
<title>Node4&#45;&gt;Node9</title>
<path fill="none" stroke="#63b8ff" d="M851.7,-59.2C835.26,-57.8 816.84,-56.29 800,-55 564.94,-37.04 281.65,-18.74 185.66,-12.63"/>
<polygon fill="#63b8ff" stroke="#63b8ff" points="186.1,-9.15 175.9,-12.01 185.66,-16.14 186.1,-9.15"/>
</g>
<!-- Node10 -->
<g id="node10" class="node">
<title>Node10</title>
<g id="a_node10"><a xlink:title=" ">
<polygon fill="#e0e0e0" stroke="#999999" points="856,-19 740,-19 740,0 856,0 856,-19"/>
<text text-anchor="middle" x="798" y="-7" font-family="Helvetica,sans-Serif" font-size="10.00">SEACASIoss_config.h</text>
</a>
</g>
</g>
<!-- Node4&#45;&gt;Node10 -->
<g id="edge9" class="edge">
<title>Node4&#45;&gt;Node10</title>
<path fill="none" stroke="#63b8ff" d="M883.53,-54.51C867.6,-46.31 843.81,-34.07 825.36,-24.58"/>
<polygon fill="#63b8ff" stroke="#63b8ff" points="827.05,-21.51 816.56,-20.05 823.85,-27.74 827.05,-21.51"/>
</g>
<!-- Node11 -->
<g id="node11" class="node">
<title>Node11</title>
<g id="a_node11"><a xlink:title=" ">
<polygon fill="#e0e0e0" stroke="#999999" points="927.5,-19 874.5,-19 874.5,0 927.5,0 927.5,-19"/>
<text text-anchor="middle" x="901" y="-7" font-family="Helvetica,sans-Serif" font-size="10.00">complex</text>
</a>
</g>
</g>
<!-- Node4&#45;&gt;Node11 -->
<g id="edge10" class="edge">
<title>Node4&#45;&gt;Node11</title>
<path fill="none" stroke="#63b8ff" d="M901,-54.75C901,-48.27 901,-39.16 901,-30.9"/>
<polygon fill="#63b8ff" stroke="#63b8ff" points="904.5,-30.96 901,-20.96 897.5,-30.96 904.5,-30.96"/>
</g>
<!-- Node12&#45;&gt;Node3 -->
<g id="edge15" class="edge">
<title>Node12&#45;&gt;Node3</title>
<path fill="none" stroke="#63b8ff" d="M1215.67,-281.89C1082.78,-277.48 734.81,-263.85 622,-239 555.09,-224.26 516.85,-240.43 478,-184 435.17,-121.8 559.87,-87.72 632.98,-73.53"/>
<polygon fill="#63b8ff" stroke="#63b8ff" points="633.57,-76.98 642.76,-71.7 632.28,-70.1 633.57,-76.98"/>
</g>
<!-- Node12&#45;&gt;Node4 -->
<g id="edge16" class="edge">
<title>Node12&#45;&gt;Node4</title>
<path fill="none" stroke="#63b8ff" d="M1270.97,-274.65C1274.68,-262.17 1279.87,-238.82 1274,-220 1265.15,-191.64 1260.78,-181.4 1236,-165 1169.78,-121.18 1136.04,-154.98 1061,-129 1043.16,-122.82 1040.34,-117.47 1023,-110 995.17,-98.01 962.93,-86.34 938.58,-77.97"/>
<polygon fill="#63b8ff" stroke="#63b8ff" points="940.03,-74.76 929.43,-74.85 937.77,-81.39 940.03,-74.76"/>
</g>
<!-- Node12&#45;&gt;Node8 -->
<g id="edge64" class="edge">
<title>Node12&#45;&gt;Node8</title>
<path fill="none" stroke="#63b8ff" d="M1320.26,-274.63C1413.64,-256.16 1594.92,-207 1545,-110 1525.76,-72.61 1506.66,-71.57 1468,-55 1400.52,-26.08 1313.98,-15.85 1268.02,-12.31"/>
<polygon fill="#63b8ff" stroke="#63b8ff" points="1268.45,-8.83 1258.23,-11.62 1267.96,-15.81 1268.45,-8.83"/>
</g>
<!-- Node12&#45;&gt;Node9 -->
<g id="edge65" class="edge">
<title>Node12&#45;&gt;Node9</title>
<path fill="none" stroke="#63b8ff" d="M1215.77,-281.63C1003.55,-273.69 212.55,-240.49 117,-184 65.76,-153.71 49.85,-105.72 81,-55 89.88,-40.54 105.42,-30.01 119.7,-22.84"/>
<polygon fill="#63b8ff" stroke="#63b8ff" points="120.77,-26.2 128.38,-18.84 117.84,-19.85 120.77,-26.2"/>
</g>
<!-- Node13 -->
<g id="node13" class="node">
<title>Node13</title>
<g id="a_node13"><a xlink:href="Ioss__Utils_8h.html" target="_top" xlink:title=" ">
<polygon fill="white" stroke="#666666" points="700.5,-239 631.5,-239 631.5,-220 700.5,-220 700.5,-239"/>
<text text-anchor="middle" x="666" y="-227" font-family="Helvetica,sans-Serif" font-size="10.00">Ioss_Utils.h</text>
</a>
</g>
</g>
<!-- Node12&#45;&gt;Node13 -->
<g id="edge17" class="edge">
<title>Node12&#45;&gt;Node13</title>
<path fill="none" stroke="#63b8ff" d="M1215.63,-278.89C1099.57,-268.67 822.32,-244.26 712.22,-234.57"/>
<polygon fill="#63b8ff" stroke="#63b8ff" points="712.64,-231.09 702.37,-233.7 712.02,-238.07 712.64,-231.09"/>
</g>
<!-- Node18 -->
<g id="node18" class="node">
<title>Node18</title>
<g id="a_node18"><a xlink:title=" ">
<polygon fill="#e0e0e0" stroke="#999999" points="1310.5,-74 1275.5,-74 1275.5,-55 1310.5,-55 1310.5,-74"/>
<text text-anchor="middle" x="1293" y="-62" font-family="Helvetica,sans-Serif" font-size="10.00">map</text>
</a>
</g>
</g>
<!-- Node12&#45;&gt;Node18 -->
<g id="edge63" class="edge">
<title>Node12&#45;&gt;Node18</title>
<path fill="none" stroke="#63b8ff" d="M1279.36,-274.67C1288.78,-266.56 1301.5,-253.61 1307,-239 1326.91,-186.08 1310.24,-117.84 1299.82,-84.94"/>
<polygon fill="#63b8ff" stroke="#63b8ff" points="1303.19,-83.98 1296.71,-75.6 1296.55,-86.2 1303.19,-83.98"/>
</g>
<!-- Node25 -->
<g id="node25" class="node">
<title>Node25</title>
<g id="a_node25"><a xlink:title=" ">
<polygon fill="#e0e0e0" stroke="#999999" points="1437.5,-74 1378.5,-74 1378.5,-55 1437.5,-55 1437.5,-74"/>
<text text-anchor="middle" x="1408" y="-62" font-family="Helvetica,sans-Serif" font-size="10.00">functional</text>
</a>
</g>
</g>
<!-- Node12&#45;&gt;Node25 -->
<g id="edge62" class="edge">
<title>Node12&#45;&gt;Node25</title>
<path fill="none" stroke="#63b8ff" d="M1282.09,-274.66C1294.15,-266.55 1311.36,-253.6 1323,-239 1362.48,-189.48 1389.96,-118.63 1401.67,-84.85"/>
<polygon fill="#63b8ff" stroke="#63b8ff" points="1404.9,-86.22 1404.78,-75.62 1398.27,-83.98 1404.9,-86.22"/>
</g>
<!-- Node33 -->
<g id="node33" class="node">
<title>Node33</title>
<g id="a_node33"><a xlink:title=" ">
<polygon fill="#e0e0e0" stroke="#999999" points="1265,-239 1219,-239 1219,-220 1265,-220 1265,-239"/>
<text text-anchor="middle" x="1242" y="-227" font-family="Helvetica,sans-Serif" font-size="10.00">cstring</text>
</a>
</g>
</g>
<!-- Node12&#45;&gt;Node33 -->
<g id="edge61" class="edge">
<title>Node12&#45;&gt;Node33</title>
<path fill="none" stroke="#63b8ff" d="M1263.71,-274.75C1260.38,-267.96 1255.64,-258.3 1251.44,-249.73"/>
<polygon fill="#63b8ff" stroke="#63b8ff" points="1254.6,-248.24 1247.05,-240.8 1248.32,-251.32 1254.6,-248.24"/>
</g>
<!-- Node13&#45;&gt;Node2 -->
<g id="edge36" class="edge">
<title>Node13&#45;&gt;Node2</title>
<path fill="none" stroke="#63b8ff" d="M631.32,-225.3C578.21,-219.75 480.12,-206.69 454,-184 441.4,-173.06 435.7,-154.66 433.13,-140.47"/>
<polygon fill="#63b8ff" stroke="#63b8ff" points="436.64,-140.3 431.78,-130.89 429.7,-141.27 436.64,-140.3"/>
</g>
<!-- Node13&#45;&gt;Node3 -->
<g id="edge18" class="edge">
<title>Node13&#45;&gt;Node3</title>
<path fill="none" stroke="#63b8ff" d="M631.36,-228.69C570.55,-227.67 454.02,-218.85 487,-165 518.63,-113.35 586.45,-87.45 633.14,-75.25"/>
<polygon fill="#63b8ff" stroke="#63b8ff" points="633.89,-78.67 642.76,-72.87 632.21,-71.88 633.89,-78.67"/>
</g>
<!-- Node13&#45;&gt;Node4 -->
<g id="edge19" class="edge">
<title>Node13&#45;&gt;Node4</title>
<path fill="none" stroke="#63b8ff" d="M700.93,-228.96C774.51,-229.12 941.58,-224.85 977,-184 982.53,-177.62 982.24,-171.62 977,-165 933.94,-110.55 868.06,-183.45 825,-129 808.99,-108.76 837.87,-90.43 864.51,-78.72"/>
<polygon fill="#63b8ff" stroke="#63b8ff" points="865.6,-82.06 873.5,-75 862.92,-75.59 865.6,-82.06"/>
</g>
<!-- Node13&#45;&gt;Node6 -->
<g id="edge54" class="edge">
<title>Node13&#45;&gt;Node6</title>
<path fill="none" stroke="#63b8ff" d="M700.96,-228.27C768.34,-227.01 912.28,-220.05 943,-184 948.48,-177.57 948.09,-171.74 943,-165 907.93,-118.5 868.5,-156.2 817,-129 771.51,-104.97 774.44,-77.12 728,-55 665.96,-25.45 585.31,-15.52 539.34,-12.18"/>
<polygon fill="#63b8ff" stroke="#63b8ff" points="539.6,-8.69 529.4,-11.54 539.15,-15.68 539.6,-8.69"/>
</g>
<!-- Node13&#45;&gt;Node7 -->
<g id="edge55" class="edge">
<title>Node13&#45;&gt;Node7</title>
<path fill="none" stroke="#63b8ff" d="M631.33,-227.34C517.81,-223.33 161.92,-208.86 117,-184 60.81,-152.89 44.41,-69.25 39.77,-30.59"/>
<polygon fill="#63b8ff" stroke="#63b8ff" points="43.27,-30.44 38.76,-20.85 36.31,-31.16 43.27,-30.44"/>
</g>
<!-- Node13&#45;&gt;Node8 -->
<g id="edge59" class="edge">
<title>Node13&#45;&gt;Node8</title>
<path fill="none" stroke="#63b8ff" d="M700.76,-227.43C817.22,-223.62 1189.03,-209.56 1236,-184 1296.1,-151.3 1355.28,-113.62 1320,-55 1308.67,-36.18 1286.41,-24.9 1267.65,-18.4"/>
<polygon fill="#63b8ff" stroke="#63b8ff" points="1268.87,-15.12 1258.28,-15.49 1266.79,-21.8 1268.87,-15.12"/>
</g>
<!-- Node13&#45;&gt;Node9 -->
<g id="edge60" class="edge">
<title>Node13&#45;&gt;Node9</title>
<path fill="none" stroke="#63b8ff" d="M631.14,-227.21C534.58,-223.33 265.22,-210.39 181,-184 133.71,-169.18 108.95,-171.82 84,-129 75.47,-114.36 78.94,-76.86 92,-55 99.41,-42.6 111.73,-32.57 123.28,-25.19"/>
<polygon fill="#63b8ff" stroke="#63b8ff" points="124.96,-28.26 131.79,-20.16 121.4,-22.23 124.96,-28.26"/>
</g>
<!-- Node14 -->
<g id="node14" class="node">
<title>Node14</title>
<g id="a_node14"><a xlink:href="Ioss__ElementTopology_8h.html" target="_top" xlink:title=" ">
<polygon fill="white" stroke="#666666" points="1227,-184 1105,-184 1105,-165 1227,-165 1227,-184"/>
<text text-anchor="middle" x="1166" y="-172" font-family="Helvetica,sans-Serif" font-size="10.00">Ioss_ElementTopology.h</text>
</a>
</g>
</g>
<!-- Node13&#45;&gt;Node14 -->
<g id="edge20" class="edge">
<title>Node13&#45;&gt;Node14</title>
<path fill="none" stroke="#63b8ff" d="M700.76,-224.82C781.72,-216.23 984.24,-194.77 1093.47,-183.19"/>
<polygon fill="#63b8ff" stroke="#63b8ff" points="1093.62,-186.69 1103.2,-182.16 1092.88,-179.73 1093.62,-186.69"/>
</g>
<!-- Node20 -->
<g id="node20" class="node">
<title>Node20</title>
<g id="a_node20"><a xlink:href="Ioss__EntityType_8h.html" target="_top" xlink:title=" ">
<polygon fill="white" stroke="#666666" points="591.5,-184 496.5,-184 496.5,-165 591.5,-165 591.5,-184"/>
<text text-anchor="middle" x="544" y="-172" font-family="Helvetica,sans-Serif" font-size="10.00">Ioss_EntityType.h</text>
</a>
</g>
</g>
<!-- Node13&#45;&gt;Node20 -->
<g id="edge35" class="edge">
<title>Node13&#45;&gt;Node20</title>
<path fill="none" stroke="#63b8ff" d="M645.3,-219.51C626,-211.12 596.94,-198.5 574.89,-188.92"/>
<polygon fill="#63b8ff" stroke="#63b8ff" points="576.34,-185.74 565.78,-184.96 573.56,-192.16 576.34,-185.74"/>
</g>
<!-- Node21 -->
<g id="node21" class="node">
<title>Node21</title>
<g id="a_node21"><a xlink:href="Ioss__Property_8h.html" target="_top" xlink:title=" ">
<polygon fill="white" stroke="#666666" points="188,-129 104,-129 104,-110 188,-110 188,-129"/>
<text text-anchor="middle" x="146" y="-117" font-family="Helvetica,sans-Serif" font-size="10.00">Ioss_Property.h</text>
</a>
</g>
</g>
<!-- Node13&#45;&gt;Node21 -->
<g id="edge37" class="edge">
<title>Node13&#45;&gt;Node21</title>
<path fill="none" stroke="#63b8ff" d="M631.23,-228.06C538.22,-226.4 285.66,-218.75 211,-184 189.18,-173.84 170.28,-153.24 158.57,-138.24"/>
<polygon fill="#63b8ff" stroke="#63b8ff" points="161.64,-136.51 152.86,-130.58 156.03,-140.69 161.64,-136.51"/>
</g>
<!-- Node22 -->
<g id="node22" class="node">
<title>Node22</title>
<g id="a_node22"><a xlink:href="Ioss__Sort_8h.html" target="_top" xlink:title=" ">
<polygon fill="white" stroke="#666666" points="287.5,-184 220.5,-184 220.5,-165 287.5,-165 287.5,-184"/>
<text text-anchor="middle" x="254" y="-172" font-family="Helvetica,sans-Serif" font-size="10.00">Ioss_Sort.h</text>
</a>
</g>
</g>
<!-- Node13&#45;&gt;Node22 -->
<g id="edge42" class="edge">
<title>Node13&#45;&gt;Node22</title>
<path fill="none" stroke="#63b8ff" d="M631.03,-224.86C566.07,-217.95 422.42,-202.01 302,-184 300.99,-183.85 299.97,-183.69 298.95,-183.54"/>
<polygon fill="#63b8ff" stroke="#63b8ff" points="299.72,-180.11 289.29,-181.96 298.59,-187.02 299.72,-180.11"/>
</g>
<!-- Node24 -->
<g id="node24" class="node">
<title>Node24</title>
<g id="a_node24"><a xlink:title=" ">
<polygon fill="#e0e0e0" stroke="#999999" points="512,-74 456,-74 456,-55 512,-55 512,-74"/>
<text text-anchor="middle" x="484" y="-62" font-family="Helvetica,sans-Serif" font-size="10.00">algorithm</text>
</a>
</g>
</g>
<!-- Node13&#45;&gt;Node24 -->
<g id="edge51" class="edge">
<title>Node13&#45;&gt;Node24</title>
<path fill="none" stroke="#63b8ff" d="M631.29,-228.29C584.53,-226.61 500.02,-218.52 438,-184 408.87,-167.79 399.17,-160.03 387,-129 375.66,-100.09 413.23,-82.96 444.87,-73.91"/>
<polygon fill="#63b8ff" stroke="#63b8ff" points="445.49,-77.37 454.26,-71.43 443.7,-70.6 445.49,-77.37"/>
</g>
<!-- Node28 -->
<g id="node28" class="node">
<title>Node28</title>
<g id="a_node28"><a xlink:title=" ">
<polygon fill="#e0e0e0" stroke="#999999" points="658.5,-184 609.5,-184 609.5,-165 658.5,-165 658.5,-184"/>
<text text-anchor="middle" x="634" y="-172" font-family="Helvetica,sans-Serif" font-size="10.00">cassert</text>
</a>
</g>
</g>
<!-- Node13&#45;&gt;Node28 -->
<g id="edge52" class="edge">
<title>Node13&#45;&gt;Node28</title>
<path fill="none" stroke="#63b8ff" d="M660.72,-219.75C656.53,-212.81 650.52,-202.86 645.27,-194.16"/>
<polygon fill="#63b8ff" stroke="#63b8ff" points="648.35,-192.49 640.18,-185.74 642.35,-196.11 648.35,-192.49"/>
</g>
<!-- Node29 -->
<g id="node29" class="node">
<title>Node29</title>
<g id="a_node29"><a xlink:title=" ">
<polygon fill="#e0e0e0" stroke="#999999" points="721,-184 677,-184 677,-165 721,-165 721,-184"/>
<text text-anchor="middle" x="699" y="-172" font-family="Helvetica,sans-Serif" font-size="10.00">cmath</text>
</a>
</g>
</g>
<!-- Node13&#45;&gt;Node29 -->
<g id="edge53" class="edge">
<title>Node13&#45;&gt;Node29</title>
<path fill="none" stroke="#63b8ff" d="M671.45,-219.75C675.77,-212.81 681.96,-202.86 687.38,-194.16"/>
<polygon fill="#63b8ff" stroke="#63b8ff" points="690.32,-196.07 692.63,-185.73 684.38,-192.37 690.32,-196.07"/>
</g>
<!-- Node30 -->
<g id="node30" class="node">
<title>Node30</title>
<g id="a_node30"><a xlink:title=" ">
<polygon fill="#e0e0e0" stroke="#999999" points="784.5,-184 739.5,-184 739.5,-165 784.5,-165 784.5,-184"/>
<text text-anchor="middle" x="762" y="-172" font-family="Helvetica,sans-Serif" font-size="10.00">cstdlib</text>
</a>
</g>
</g>
<!-- Node13&#45;&gt;Node30 -->
<g id="edge56" class="edge">
<title>Node13&#45;&gt;Node30</title>
<path fill="none" stroke="#63b8ff" d="M682.29,-219.51C696.99,-211.39 718.89,-199.3 736.02,-189.85"/>
<polygon fill="#63b8ff" stroke="#63b8ff" points="737.57,-192.99 744.63,-185.09 734.18,-186.86 737.57,-192.99"/>
</g>
<!-- Node31 -->
<g id="node31" class="node">
<title>Node31</title>
<g id="a_node31"><a xlink:title=" ">
<polygon fill="#e0e0e0" stroke="#999999" points="857,-184 803,-184 803,-165 857,-165 857,-184"/>
<text text-anchor="middle" x="830" y="-172" font-family="Helvetica,sans-Serif" font-size="10.00">iostream</text>
</a>
</g>
</g>
<!-- Node13&#45;&gt;Node31 -->
<g id="edge57" class="edge">
<title>Node13&#45;&gt;Node31</title>
<path fill="none" stroke="#63b8ff" d="M693.82,-219.51C720.72,-210.81 761.71,-197.57 791.69,-187.88"/>
<polygon fill="#63b8ff" stroke="#63b8ff" points="792.71,-191.23 801.15,-184.82 790.56,-184.57 792.71,-191.23"/>
</g>
<!-- Node32 -->
<g id="node32" class="node">
<title>Node32</title>
<g id="a_node32"><a xlink:title=" ">
<polygon fill="#e0e0e0" stroke="#999999" points="934.5,-184 875.5,-184 875.5,-165 934.5,-165 934.5,-184"/>
<text text-anchor="middle" x="905" y="-172" font-family="Helvetica,sans-Serif" font-size="10.00">stdexcept</text>
</a>
</g>
</g>
<!-- Node13&#45;&gt;Node32 -->
<g id="edge58" class="edge">
<title>Node13&#45;&gt;Node32</title>
<path fill="none" stroke="#63b8ff" d="M700.75,-220.79C744.08,-211.19 818.02,-194.79 864.05,-184.58"/>
<polygon fill="#63b8ff" stroke="#63b8ff" points="864.63,-188.04 873.64,-182.45 863.12,-181.2 864.63,-188.04"/>
</g>
<!-- Node14&#45;&gt;Node3 -->
<g id="edge21" class="edge">
<title>Node14&#45;&gt;Node3</title>
<path fill="none" stroke="#63b8ff" d="M1104.57,-170.8C1035.47,-166.56 920.41,-155.8 825,-129 782.29,-117 735.87,-94.47 707.86,-79.72"/>
<polygon fill="#63b8ff" stroke="#63b8ff" points="709.54,-76.65 699.07,-75.02 706.24,-82.82 709.54,-76.65"/>
</g>
<!-- Node14&#45;&gt;Node4 -->
<g id="edge22" class="edge">
<title>Node14&#45;&gt;Node4</title>
<path fill="none" stroke="#63b8ff" d="M1133.44,-164.52C1105.15,-156.36 1063.31,-143.42 1028,-129 991.86,-114.24 951.83,-93.44 926.55,-79.72"/>
<polygon fill="#63b8ff" stroke="#63b8ff" points="928.46,-76.77 918.01,-75.04 925.1,-82.91 928.46,-76.77"/>
</g>
<!-- Node14&#45;&gt;Node8 -->
<g id="edge33" class="edge">
<title>Node14&#45;&gt;Node8</title>
<path fill="none" stroke="#63b8ff" d="M1180.28,-164.77C1191.85,-156.91 1207.56,-144.25 1216,-129 1233.21,-97.9 1236.37,-55.7 1236.56,-30.96"/>
<polygon fill="#63b8ff" stroke="#63b8ff" points="1240.06,-30.95 1236.45,-20.99 1233.06,-31.03 1240.06,-30.95"/>
</g>
<!-- Node14&#45;&gt;Node9 -->
<g id="edge34" class="edge">
<title>Node14&#45;&gt;Node9</title>
<path fill="none" stroke="#63b8ff" d="M1104.71,-171.03C906.12,-162.95 292.07,-137.34 273,-129 223.55,-107.37 182.81,-55.84 163.71,-28.4"/>
<polygon fill="#63b8ff" stroke="#63b8ff" points="166.82,-26.76 158.32,-20.44 161.02,-30.68 166.82,-26.76"/>
</g>
<!-- Node15 -->
<g id="node15" class="node">
<title>Node15</title>
<g id="a_node15"><a xlink:href="Ioss__ElementPermutation_8h.html" target="_top" xlink:title=" ">
<polygon fill="white" stroke="#666666" points="1207.5,-129 1070.5,-129 1070.5,-110 1207.5,-110 1207.5,-129"/>
<text text-anchor="middle" x="1139" y="-117" font-family="Helvetica,sans-Serif" font-size="10.00">Ioss_ElementPermutation.h</text>
</a>
</g>
</g>
<!-- Node14&#45;&gt;Node15 -->
<g id="edge23" class="edge">
<title>Node14&#45;&gt;Node15</title>
<path fill="none" stroke="#63b8ff" d="M1161.54,-164.75C1158.05,-157.88 1153.05,-148.08 1148.65,-139.45"/>
<polygon fill="#63b8ff" stroke="#63b8ff" points="1151.9,-138.11 1144.24,-130.79 1145.66,-141.29 1151.9,-138.11"/>
</g>
<!-- Node14&#45;&gt;Node18 -->
<g id="edge31" class="edge">
<title>Node14&#45;&gt;Node18</title>
<path fill="none" stroke="#63b8ff" d="M1190.01,-164.51C1207.95,-156.97 1232.31,-144.87 1250,-129 1264.23,-116.23 1276.03,-97.8 1283.64,-84.09"/>
<polygon fill="#63b8ff" stroke="#63b8ff" points="1286.53,-86.11 1288.11,-75.63 1280.34,-82.84 1286.53,-86.11"/>
</g>
<!-- Node19 -->
<g id="node19" class="node">
<title>Node19</title>
<g id="a_node19"><a xlink:title=" ">
<polygon fill="#e0e0e0" stroke="#999999" points="976,-129 946,-129 946,-110 976,-110 976,-129"/>
<text text-anchor="middle" x="961" y="-117" font-family="Helvetica,sans-Serif" font-size="10.00">set</text>
</a>
</g>
</g>
<!-- Node14&#45;&gt;Node19 -->
<g id="edge32" class="edge">
<title>Node14&#45;&gt;Node19</title>
<path fill="none" stroke="#63b8ff" d="M1128.81,-164.53C1093.12,-155.81 1037.74,-142.03 990,-129 989.03,-128.73 988.03,-128.46 987.03,-128.18"/>
<polygon fill="#63b8ff" stroke="#63b8ff" points="988.35,-124.92 977.78,-125.52 986.42,-131.65 988.35,-124.92"/>
</g>
<!-- Node15&#45;&gt;Node3 -->
<g id="edge24" class="edge">
<title>Node15&#45;&gt;Node3</title>
<path fill="none" stroke="#63b8ff" d="M1070.09,-110.51C976.73,-99.68 812.4,-80.62 730.8,-71.16"/>
<polygon fill="#63b8ff" stroke="#63b8ff" points="731.69,-67.74 721.36,-70.06 730.89,-74.69 731.69,-67.74"/>
</g>
<!-- Node15&#45;&gt;Node4 -->
<g id="edge25" class="edge">
<title>Node15&#45;&gt;Node4</title>
<path fill="none" stroke="#63b8ff" d="M1098.63,-109.51C1058.24,-100.52 996,-86.65 952.17,-76.9"/>
<polygon fill="#63b8ff" stroke="#63b8ff" points="953.17,-73.53 942.65,-74.78 951.65,-80.37 953.17,-73.53"/>
</g>
<!-- Node15&#45;&gt;Node8 -->
<g id="edge29" class="edge">
<title>Node15&#45;&gt;Node8</title>
<path fill="none" stroke="#63b8ff" d="M1146.94,-109.66C1163,-91.78 1199.58,-51.05 1220.52,-27.73"/>
<polygon fill="#63b8ff" stroke="#63b8ff" points="1222.86,-30.36 1226.94,-20.59 1217.66,-25.69 1222.86,-30.36"/>
</g>
<!-- Node15&#45;&gt;Node9 -->
<g id="edge30" class="edge">
<title>Node15&#45;&gt;Node9</title>
<path fill="none" stroke="#63b8ff" d="M1070.23,-109.88C1010.05,-101.93 920.4,-89.1 843,-74 807.56,-67.09 799.68,-60.55 764,-55 545.39,-21 278.71,-12.88 185.82,-11.02"/>
<polygon fill="#63b8ff" stroke="#63b8ff" points="185.96,-7.53 175.89,-10.84 185.83,-14.52 185.96,-7.53"/>
</g>
<!-- Node16 -->
<g id="node16" class="node">
<title>Node16</title>
<g id="a_node16"><a xlink:title=" ">
<polygon fill="#e0e0e0" stroke="#999999" points="1104,-74 1052,-74 1052,-55 1104,-55 1104,-74"/>
<text text-anchor="middle" x="1078" y="-62" font-family="Helvetica,sans-Serif" font-size="10.00">assert.h</text>
</a>
</g>
</g>
<!-- Node15&#45;&gt;Node16 -->
<g id="edge26" class="edge">
<title>Node15&#45;&gt;Node16</title>
<path fill="none" stroke="#63b8ff" d="M1128.65,-109.51C1119.92,-101.93 1107.21,-90.88 1096.7,-81.75"/>
<polygon fill="#63b8ff" stroke="#63b8ff" points="1099.18,-79.27 1089.34,-75.35 1094.59,-84.55 1099.18,-79.27"/>
</g>
<!-- Node17 -->
<g id="node17" class="node">
<title>Node17</title>
<g id="a_node17"><a xlink:title=" ">
<polygon fill="#e0e0e0" stroke="#999999" points="1162,-74 1122,-74 1122,-55 1162,-55 1162,-74"/>
<text text-anchor="middle" x="1142" y="-62" font-family="Helvetica,sans-Serif" font-size="10.00">limits</text>
</a>
</g>
</g>
<!-- Node15&#45;&gt;Node17 -->
<g id="edge27" class="edge">
<title>Node15&#45;&gt;Node17</title>
<path fill="none" stroke="#63b8ff" d="M1139.5,-109.75C1139.86,-103.27 1140.38,-94.16 1140.85,-85.9"/>
<polygon fill="#63b8ff" stroke="#63b8ff" points="1144.34,-86.13 1141.41,-75.95 1137.35,-85.74 1144.34,-86.13"/>
</g>
<!-- Node15&#45;&gt;Node18 -->
<g id="edge28" class="edge">
<title>Node15&#45;&gt;Node18</title>
<path fill="none" stroke="#63b8ff" d="M1165.12,-109.51C1192.73,-100.01 1236.12,-85.07 1264.57,-75.28"/>
<polygon fill="#63b8ff" stroke="#63b8ff" points="1265.65,-78.61 1273.97,-72.05 1263.37,-72 1265.65,-78.61"/>
</g>
<!-- Node21&#45;&gt;Node3 -->
<g id="edge38" class="edge">
<title>Node21&#45;&gt;Node3</title>
<path fill="none" stroke="#63b8ff" d="M188.06,-114.34C285.94,-104.66 528.59,-80.67 632.97,-70.35"/>
<polygon fill="#63b8ff" stroke="#63b8ff" points="633,-73.86 642.61,-69.39 632.31,-66.9 633,-73.86"/>
</g>
<!-- Node21&#45;&gt;Node7 -->
<g id="edge39" class="edge">
<title>Node21&#45;&gt;Node7</title>
<path fill="none" stroke="#63b8ff" d="M137.16,-109.66C119.2,-91.7 78.19,-50.69 54.92,-27.42"/>
<polygon fill="#63b8ff" stroke="#63b8ff" points="57.58,-25.13 48.03,-20.53 52.63,-30.08 57.58,-25.13"/>
</g>
<!-- Node21&#45;&gt;Node8 -->
<g id="edge40" class="edge">
<title>Node21&#45;&gt;Node8</title>
<path fill="none" stroke="#63b8ff" d="M160.34,-109.69C184.84,-95.18 236.78,-66.68 285,-55 330.55,-43.97 1042.07,-17.55 1203.57,-11.67"/>
<polygon fill="#63b8ff" stroke="#63b8ff" points="1203.67,-15.17 1213.54,-11.31 1203.42,-8.17 1203.67,-15.17"/>
</g>
<!-- Node21&#45;&gt;Node9 -->
<g id="edge41" class="edge">
<title>Node21&#45;&gt;Node9</title>
<path fill="none" stroke="#63b8ff" d="M143.39,-109.85C140.04,-97.61 135,-74.55 138,-55 139.29,-46.59 141.88,-37.6 144.48,-29.91"/>
<polygon fill="#63b8ff" stroke="#63b8ff" points="147.74,-31.19 147.88,-20.6 141.16,-28.79 147.74,-31.19"/>
</g>
<!-- Node22&#45;&gt;Node6 -->
<g id="edge49" class="edge">
<title>Node22&#45;&gt;Node6</title>
<path fill="none" stroke="#63b8ff" d="M253.42,-164.51C252.52,-142.37 253.5,-84.83 285,-55 310.74,-30.63 411.62,-18.33 466.67,-13.32"/>
<polygon fill="#63b8ff" stroke="#63b8ff" points="466.84,-16.82 476.49,-12.46 466.23,-9.85 466.84,-16.82"/>
</g>
<!-- Node22&#45;&gt;Node9 -->
<g id="edge50" class="edge">
<title>Node22&#45;&gt;Node9</title>
<path fill="none" stroke="#63b8ff" d="M220.15,-168.84C178.11,-162.29 110.07,-148.87 95,-129 70.19,-96.3 108.35,-51.08 133.26,-27.05"/>
<polygon fill="#63b8ff" stroke="#63b8ff" points="135.34,-29.9 140.29,-20.53 130.58,-24.77 135.34,-29.9"/>
</g>
<!-- Node23 -->
<g id="node23" class="node">
<title>Node23</title>
<g id="a_node23"><a xlink:href="pdqsort_8h.html" target="_top" xlink:title=" ">
<polygon fill="white" stroke="#666666" points="339.5,-129 282.5,-129 282.5,-110 339.5,-110 339.5,-129"/>
<text text-anchor="middle" x="311" y="-117" font-family="Helvetica,sans-Serif" font-size="10.00">pdqsort.h</text>
</a>
</g>
</g>
<!-- Node22&#45;&gt;Node23 -->
<g id="edge43" class="edge">
<title>Node22&#45;&gt;Node23</title>
<path fill="none" stroke="#63b8ff" d="M263.67,-164.51C271.74,-157 283.47,-146.1 293.22,-137.03"/>
<polygon fill="#63b8ff" stroke="#63b8ff" points="295.43,-139.76 300.37,-130.39 290.66,-134.63 295.43,-139.76"/>
</g>
<!-- Node23&#45;&gt;Node6 -->
<g id="edge45" class="edge">
<title>Node23&#45;&gt;Node6</title>
<path fill="none" stroke="#63b8ff" d="M333.06,-109.57C353.05,-101.2 383.09,-87.92 408,-74 434.42,-59.23 463.09,-39.51 481.95,-25.99"/>
<polygon fill="#63b8ff" stroke="#63b8ff" points="483.83,-28.95 489.87,-20.25 479.72,-23.28 483.83,-28.95"/>
</g>
<!-- Node23&#45;&gt;Node24 -->
<g id="edge44" class="edge">
<title>Node23&#45;&gt;Node24</title>
<path fill="none" stroke="#63b8ff" d="M339.96,-109.63C368.7,-100.82 412.94,-87.27 444.81,-77.51"/>
<polygon fill="#63b8ff" stroke="#63b8ff" points="445.54,-80.94 454.08,-74.67 443.49,-74.25 445.54,-80.94"/>
</g>
<!-- Node23&#45;&gt;Node25 -->
<g id="edge46" class="edge">
<title>Node23&#45;&gt;Node25</title>
<path fill="none" stroke="#63b8ff" d="M339.82,-114.78C354.01,-113.07 371.38,-111.17 387,-110 800.81,-78.92 905.97,-101.96 1320,-74 1335.35,-72.96 1352.16,-71.44 1366.95,-69.96"/>
<polygon fill="#63b8ff" stroke="#63b8ff" points="1367.2,-73.45 1376.79,-68.95 1366.49,-66.49 1367.2,-73.45"/>
</g>
<!-- Node26 -->
<g id="node26" class="node">
<title>Node26</title>
<g id="a_node26"><a xlink:title=" ">
<polygon fill="#e0e0e0" stroke="#999999" points="399.5,-74 352.5,-74 352.5,-55 399.5,-55 399.5,-74"/>
<text text-anchor="middle" x="376" y="-62" font-family="Helvetica,sans-Serif" font-size="10.00">iterator</text>
</a>
</g>
</g>
<!-- Node23&#45;&gt;Node26 -->
<g id="edge47" class="edge">
<title>Node23&#45;&gt;Node26</title>
<path fill="none" stroke="#63b8ff" d="M322.03,-109.51C331.42,-101.85 345.15,-90.66 356.41,-81.47"/>
<polygon fill="#63b8ff" stroke="#63b8ff" points="358.43,-84.35 363.96,-75.31 354,-78.92 358.43,-84.35"/>
</g>
<!-- Node27 -->
<g id="node27" class="node">
<title>Node27</title>
<g id="a_node27"><a xlink:title=" ">
<polygon fill="#e0e0e0" stroke="#999999" points="334,-74 294,-74 294,-55 334,-55 334,-74"/>
<text text-anchor="middle" x="314" y="-62" font-family="Helvetica,sans-Serif" font-size="10.00">utility</text>
</a>
</g>
</g>
<!-- Node23&#45;&gt;Node27 -->
<g id="edge48" class="edge">
<title>Node23&#45;&gt;Node27</title>
<path fill="none" stroke="#63b8ff" d="M311.5,-109.75C311.86,-103.27 312.38,-94.16 312.85,-85.9"/>
<polygon fill="#63b8ff" stroke="#63b8ff" points="316.34,-86.13 313.41,-75.95 309.35,-85.74 316.34,-86.13"/>
</g>
<!-- Node34&#45;&gt;Node8 -->
<g id="edge82" class="edge">
<title>Node34&#45;&gt;Node8</title>
<path fill="none" stroke="#63b8ff" d="M1523.02,-329.51C1569.54,-316.43 1640,-287.24 1640,-230.5 1640,-230.5 1640,-230.5 1640,-118.5 1640,-89.04 1643.58,-73.92 1621,-55 1567.85,-10.45 1350.66,-8.79 1268.08,-9.84"/>
<polygon fill="#63b8ff" stroke="#63b8ff" points="1268.14,-6.34 1258.2,-9.99 1268.25,-13.33 1268.14,-6.34"/>
</g>
<!-- Node34&#45;&gt;Node12 -->
<g id="edge75" class="edge">
<title>Node34&#45;&gt;Node12</title>
<path fill="none" stroke="#63b8ff" d="M1446.53,-329.51C1410.36,-320.59 1354.77,-306.89 1315.24,-297.15"/>
<polygon fill="#63b8ff" stroke="#63b8ff" points="1316.31,-293.8 1305.76,-294.81 1314.63,-300.6 1316.31,-293.8"/>
</g>
<!-- Node35 -->
<g id="node35" class="node">
<title>Node35</title>
<g id="a_node35"><a xlink:title=" ">
<polygon fill="#e0e0e0" stroke="#999999" points="1611.5,-74 1540.5,-74 1540.5,-55 1611.5,-55 1611.5,-74"/>
<text text-anchor="middle" x="1576" y="-62" font-family="Helvetica,sans-Serif" font-size="10.00">iotr_export.h</text>
</a>
</g>
</g>
<!-- Node34&#45;&gt;Node35 -->
<g id="edge69" class="edge">
<title>Node34&#45;&gt;Node35</title>
<path fill="none" stroke="#63b8ff" d="M1506.51,-329.62C1541.19,-314.81 1602,-281.56 1602,-230.5 1602,-230.5 1602,-230.5 1602,-173.5 1602,-141.75 1591.25,-106.18 1583.57,-84.83"/>
<polygon fill="#63b8ff" stroke="#63b8ff" points="1586.94,-83.83 1580.15,-75.7 1580.39,-86.3 1586.94,-83.83"/>
</g>
<!-- Node34&#45;&gt;Node36 -->
<g id="edge70" class="edge">
<title>Node34&#45;&gt;Node36</title>
<path fill="none" stroke="#63b8ff" d="M1470.5,-329.51C1439.1,-307.35 1353.71,-249.79 1274,-220 1198.4,-191.74 1172.92,-208.45 1096,-184 1076.09,-177.67 1072.73,-171.86 1053,-165 1014.13,-151.49 969.06,-139.97 934.81,-132.04"/>
<polygon fill="#63b8ff" stroke="#63b8ff" points="935.63,-128.64 925.11,-129.83 934.08,-135.47 935.63,-128.64"/>
</g>
<!-- Node37 -->
<g id="node37" class="node">
<title>Node37</title>
<g id="a_node37"><a xlink:href="Iotr__Factory_8h.html" target="_top" xlink:title=" ">
<polygon fill="white" stroke="#666666" points="1536,-129 1416,-129 1416,-110 1536,-110 1536,-129"/>
<text text-anchor="middle" x="1476" y="-117" font-family="Helvetica,sans-Serif" font-size="10.00">transform/Iotr_Factory.h</text>
</a>
</g>
</g>
<!-- Node34&#45;&gt;Node37 -->
<g id="edge76" class="edge">
<title>Node34&#45;&gt;Node37</title>
<path fill="none" stroke="#63b8ff" d="M1482.72,-329.68C1481.69,-297.57 1478.11,-186.33 1476.64,-140.49"/>
<polygon fill="#63b8ff" stroke="#63b8ff" points="1480.15,-140.58 1476.33,-130.7 1473.15,-140.81 1480.15,-140.58"/>
</g>
<!-- Node36&#45;&gt;Node3 -->
<g id="edge71" class="edge">
<title>Node36&#45;&gt;Node3</title>
<path fill="none" stroke="#63b8ff" d="M847.24,-109.51C813.98,-100.65 762.97,-87.07 726.43,-77.33"/>
<polygon fill="#63b8ff" stroke="#63b8ff" points="727.62,-74.03 717.05,-74.84 725.82,-80.79 727.62,-74.03"/>
</g>
<!-- Node36&#45;&gt;Node4 -->
<g id="edge72" class="edge">
<title>Node36&#45;&gt;Node4</title>
<path fill="none" stroke="#63b8ff" d="M884.3,-109.75C886.83,-103.04 890.43,-93.52 893.63,-85.02"/>
<polygon fill="#63b8ff" stroke="#63b8ff" points="896.84,-86.45 897.09,-75.86 890.29,-83.98 896.84,-86.45"/>
</g>
<!-- Node36&#45;&gt;Node8 -->
<g id="edge73" class="edge">
<title>Node36&#45;&gt;Node8</title>
<path fill="none" stroke="#63b8ff" d="M901.12,-109.5C931.41,-96.21 990.77,-71.16 1043,-55 1098.7,-37.77 1165.28,-23.84 1203.9,-16.4"/>
<polygon fill="#63b8ff" stroke="#63b8ff" points="1204.51,-19.85 1213.68,-14.54 1203.21,-12.97 1204.51,-19.85"/>
</g>
<!-- Node36&#45;&gt;Node9 -->
<g id="edge74" class="edge">
<title>Node36&#45;&gt;Node9</title>
<path fill="none" stroke="#63b8ff" d="M858.82,-109.6C836.75,-100.7 801.96,-86.58 772,-74 752.36,-65.75 748.68,-60.11 728,-55 624.05,-29.3 292.8,-15.51 185.73,-11.65"/>
<polygon fill="#63b8ff" stroke="#63b8ff" points="186.01,-8.15 175.89,-11.3 185.76,-15.15 186.01,-8.15"/>
</g>
<!-- Node37&#45;&gt;Node4 -->
<g id="edge78" class="edge">
<title>Node37&#45;&gt;Node4</title>
<path fill="none" stroke="#63b8ff" d="M1415.55,-112.93C1305.13,-102.75 1072.04,-81.27 961.55,-71.08"/>
<polygon fill="#63b8ff" stroke="#63b8ff" points="962.07,-67.61 951.79,-70.18 961.43,-74.59 962.07,-67.61"/>
</g>
<!-- Node37&#45;&gt;Node8 -->
<g id="edge81" class="edge">
<title>Node37&#45;&gt;Node8</title>
<path fill="none" stroke="#63b8ff" d="M1474.54,-109.56C1471.77,-95.64 1464.41,-68.94 1447,-55 1419.75,-33.18 1320.24,-19.54 1268.21,-13.74"/>
<polygon fill="#63b8ff" stroke="#63b8ff" points="1268.79,-10.28 1258.47,-12.69 1268.04,-17.24 1268.79,-10.28"/>
</g>
<!-- Node37&#45;&gt;Node18 -->
<g id="edge80" class="edge">
<title>Node37&#45;&gt;Node18</title>
<path fill="none" stroke="#63b8ff" d="M1444.96,-109.51C1410.48,-99.52 1355.26,-83.53 1321.74,-73.82"/>
<polygon fill="#63b8ff" stroke="#63b8ff" points="1322.89,-70.51 1312.31,-71.09 1320.94,-77.24 1322.89,-70.51"/>
</g>
<!-- Node37&#45;&gt;Node25 -->
<g id="edge79" class="edge">
<title>Node37&#45;&gt;Node25</title>
<path fill="none" stroke="#63b8ff" d="M1464.46,-109.51C1454.54,-101.77 1439.99,-90.43 1428.14,-81.2"/>
<polygon fill="#63b8ff" stroke="#63b8ff" points="1430.6,-78.68 1420.56,-75.29 1426.29,-84.2 1430.6,-78.68"/>
</g>
<!-- Node37&#45;&gt;Node35 -->
<g id="edge77" class="edge">
<title>Node37&#45;&gt;Node35</title>
<path fill="none" stroke="#63b8ff" d="M1492.96,-109.51C1508.36,-101.35 1531.31,-89.19 1549.19,-79.71"/>
<polygon fill="#63b8ff" stroke="#63b8ff" points="1550.75,-82.84 1557.95,-75.07 1547.47,-76.66 1550.75,-82.84"/>
</g>
</g>
</svg>
