<?xml version="1.0" encoding="UTF-8" standalone="no"?>
<!DOCTYPE svg PUBLIC "-//W3C//DTD SVG 1.1//EN"
 "http://www.w3.org/Graphics/SVG/1.1/DTD/svg11.dtd">
<!-- Generated by graphviz version 2.48.0 (20210717.1556)
 -->
<!-- Title: src/transform/Iotr_Initializer.C Pages: 1 -->
<svg width="1896pt" height="375pt"
 viewBox="0.00 0.00 1896.00 375.00" xmlns="http://www.w3.org/2000/svg" xmlns:xlink="http://www.w3.org/1999/xlink">
<g id="graph0" class="graph" transform="scale(1 1) rotate(0) translate(4 371)">
<title>src/transform/Iotr_Initializer.C</title>
<polygon fill="white" stroke="transparent" points="-4,4 -4,-371 1892,-371 1892,4 -4,4"/>
<!-- Node1 -->
<g id="node1" class="node">
<title>Node1</title>
<g id="a_node1"><a xlink:title=" ">
<polygon fill="#bfbfbf" stroke="black" points="539.5,-336.5 539.5,-366.5 631.5,-366.5 631.5,-336.5 539.5,-336.5"/>
<text text-anchor="start" x="547.5" y="-354.5" font-family="Helvetica,sans-Serif" font-size="10.00">src/transform/Iotr</text>
<text text-anchor="middle" x="585.5" y="-343.5" font-family="Helvetica,sans-Serif" font-size="10.00">_Initializer.C</text>
</a>
</g>
</g>
<!-- Node2 -->
<g id="node2" class="node">
<title>Node2</title>
<g id="a_node2"><a xlink:href="Iotr__Initializer_8h.html" target="_top" xlink:title=" ">
<polygon fill="white" stroke="black" points="0,-280.5 0,-299.5 129,-299.5 129,-280.5 0,-280.5"/>
<text text-anchor="middle" x="64.5" y="-287.5" font-family="Helvetica,sans-Serif" font-size="10.00">transform/Iotr_Initializer.h</text>
</a>
</g>
</g>
<!-- Node1&#45;&gt;Node2 -->
<g id="edge1" class="edge">
<title>Node1&#45;&gt;Node2</title>
<path fill="none" stroke="midnightblue" d="M539.48,-345.43C460.16,-336.67 292.32,-318 139.14,-300.07"/>
<polygon fill="midnightblue" stroke="midnightblue" points="139.41,-296.57 129.07,-298.89 138.59,-303.53 139.41,-296.57"/>
</g>
<!-- Node3 -->
<g id="node3" class="node">
<title>Node3</title>
<g id="a_node3"><a xlink:href="Iotr__MinMax_8h.html" target="_top" xlink:title=" ">
<polygon fill="white" stroke="black" points="766,-280.5 766,-299.5 891,-299.5 891,-280.5 766,-280.5"/>
<text text-anchor="middle" x="828.5" y="-287.5" font-family="Helvetica,sans-Serif" font-size="10.00">transform/Iotr_MinMax.h</text>
</a>
</g>
</g>
<!-- Node1&#45;&gt;Node3 -->
<g id="edge2" class="edge">
<title>Node1&#45;&gt;Node3</title>
<path fill="none" stroke="midnightblue" d="M631.78,-339.17C675.38,-328.49 740.28,-312.6 783.47,-302.03"/>
<polygon fill="midnightblue" stroke="midnightblue" points="784.53,-305.37 793.42,-299.59 782.87,-298.57 784.53,-305.37"/>
</g>
<!-- Node30 -->
<g id="node30" class="node">
<title>Node30</title>
<g id="a_node30"><a xlink:href="Iotr__Offset_8h.html" target="_top" xlink:title=" ">
<polygon fill="white" stroke="black" points="147.5,-280.5 147.5,-299.5 263.5,-299.5 263.5,-280.5 147.5,-280.5"/>
<text text-anchor="middle" x="205.5" y="-287.5" font-family="Helvetica,sans-Serif" font-size="10.00">transform/Iotr_Offset.h</text>
</a>
</g>
</g>
<!-- Node1&#45;&gt;Node30 -->
<g id="edge54" class="edge">
<title>Node1&#45;&gt;Node30</title>
<path fill="none" stroke="midnightblue" d="M539.28,-343.26C471.9,-332.71 346.39,-313.06 269.96,-301.09"/>
<polygon fill="midnightblue" stroke="midnightblue" points="270.39,-297.62 259.97,-299.53 269.31,-304.53 270.39,-297.62"/>
</g>
<!-- Node31 -->
<g id="node31" class="node">
<title>Node31</title>
<g id="a_node31"><a xlink:href="Iotr__Offset3D_8h.html" target="_top" xlink:title=" ">
<polygon fill="white" stroke="black" points="1042,-280.5 1042,-299.5 1171,-299.5 1171,-280.5 1042,-280.5"/>
<text text-anchor="middle" x="1106.5" y="-287.5" font-family="Helvetica,sans-Serif" font-size="10.00">transform/Iotr_Offset3D.h</text>
</a>
</g>
</g>
<!-- Node1&#45;&gt;Node31 -->
<g id="edge58" class="edge">
<title>Node1&#45;&gt;Node31</title>
<path fill="none" stroke="midnightblue" d="M631.63,-345.46C711.13,-336.74 879.35,-318.13 1031.62,-300.21"/>
<polygon fill="midnightblue" stroke="midnightblue" points="1032.1,-303.68 1041.63,-299.03 1031.28,-296.73 1032.1,-303.68"/>
</g>
<!-- Node32 -->
<g id="node32" class="node">
<title>Node32</title>
<g id="a_node32"><a xlink:href="Iotr__Scale_8h.html" target="_top" xlink:title=" ">
<polygon fill="white" stroke="black" points="909,-280.5 909,-299.5 1024,-299.5 1024,-280.5 909,-280.5"/>
<text text-anchor="middle" x="966.5" y="-287.5" font-family="Helvetica,sans-Serif" font-size="10.00">transform/Iotr_Scale.h</text>
</a>
</g>
</g>
<!-- Node1&#45;&gt;Node32 -->
<g id="edge63" class="edge">
<title>Node1&#45;&gt;Node32</title>
<path fill="none" stroke="midnightblue" d="M631.84,-343.26C699.4,-332.71 825.24,-313.06 901.87,-301.09"/>
<polygon fill="midnightblue" stroke="midnightblue" points="902.55,-304.53 911.89,-299.53 901.47,-297.61 902.55,-304.53"/>
</g>
<!-- Node33 -->
<g id="node33" class="node">
<title>Node33</title>
<g id="a_node33"><a xlink:href="Iotr__Scale3D_8h.html" target="_top" xlink:title=" ">
<polygon fill="white" stroke="black" points="299.5,-280.5 299.5,-299.5 427.5,-299.5 427.5,-280.5 299.5,-280.5"/>
<text text-anchor="middle" x="363.5" y="-287.5" font-family="Helvetica,sans-Serif" font-size="10.00">transform/Iotr_Scale3D.h</text>
</a>
</g>
</g>
<!-- Node1&#45;&gt;Node33 -->
<g id="edge67" class="edge">
<title>Node1&#45;&gt;Node33</title>
<path fill="none" stroke="midnightblue" d="M539.23,-338.1C499.69,-327.5 443.29,-312.39 405.14,-302.16"/>
<polygon fill="midnightblue" stroke="midnightblue" points="405.94,-298.75 395.38,-299.54 404.13,-305.51 405.94,-298.75"/>
</g>
<!-- Node34 -->
<g id="node34" class="node">
<title>Node34</title>
<g id="a_node34"><a xlink:href="Iotr__Tensor_8h.html" target="_top" xlink:title=" ">
<polygon fill="white" stroke="black" points="446,-280.5 446,-299.5 565,-299.5 565,-280.5 446,-280.5"/>
<text text-anchor="middle" x="505.5" y="-287.5" font-family="Helvetica,sans-Serif" font-size="10.00">transform/Iotr_Tensor.h</text>
</a>
</g>
</g>
<!-- Node1&#45;&gt;Node34 -->
<g id="edge72" class="edge">
<title>Node1&#45;&gt;Node34</title>
<path fill="none" stroke="midnightblue" d="M566.54,-336.4C554.08,-327.13 537.8,-315.03 525.19,-305.65"/>
<polygon fill="midnightblue" stroke="midnightblue" points="527.25,-302.82 517.14,-299.66 523.08,-308.43 527.25,-302.82"/>
</g>
<!-- Node35 -->
<g id="node35" class="node">
<title>Node35</title>
<g id="a_node35"><a xlink:href="Iotr__VectorMagnitude_8h.html" target="_top" xlink:title=" ">
<polygon fill="white" stroke="black" points="583,-280.5 583,-299.5 748,-299.5 748,-280.5 583,-280.5"/>
<text text-anchor="middle" x="665.5" y="-287.5" font-family="Helvetica,sans-Serif" font-size="10.00">transform/Iotr_VectorMagnitude.h</text>
</a>
</g>
</g>
<!-- Node1&#45;&gt;Node35 -->
<g id="edge76" class="edge">
<title>Node1&#45;&gt;Node35</title>
<path fill="none" stroke="midnightblue" d="M604.46,-336.4C616.92,-327.13 633.2,-315.03 645.81,-305.65"/>
<polygon fill="midnightblue" stroke="midnightblue" points="647.92,-308.43 653.86,-299.66 643.75,-302.82 647.92,-308.43"/>
</g>
<!-- Node4 -->
<g id="node4" class="node">
<title>Node4</title>
<g id="a_node4"><a xlink:href="Ioss__VariableType_8h.html" target="_top" xlink:title=" ">
<polygon fill="white" stroke="black" points="780.5,-224.5 780.5,-243.5 886.5,-243.5 886.5,-224.5 780.5,-224.5"/>
<text text-anchor="middle" x="833.5" y="-231.5" font-family="Helvetica,sans-Serif" font-size="10.00">Ioss_VariableType.h</text>
</a>
</g>
</g>
<!-- Node3&#45;&gt;Node4 -->
<g id="edge3" class="edge">
<title>Node3&#45;&gt;Node4</title>
<path fill="none" stroke="midnightblue" d="M829.33,-280.08C829.98,-273.01 830.92,-262.86 831.74,-253.99"/>
<polygon fill="midnightblue" stroke="midnightblue" points="835.25,-254.03 832.69,-243.75 828.28,-253.39 835.25,-254.03"/>
</g>
<!-- Node9 -->
<g id="node9" class="node">
<title>Node9</title>
<g id="a_node9"><a xlink:title=" ">
<polygon fill="white" stroke="#bfbfbf" points="712,-0.5 712,-19.5 753,-19.5 753,-0.5 712,-0.5"/>
<text text-anchor="middle" x="732.5" y="-7.5" font-family="Helvetica,sans-Serif" font-size="10.00">string</text>
</a>
</g>
</g>
<!-- Node3&#45;&gt;Node9 -->
<g id="edge53" class="edge">
<title>Node3&#45;&gt;Node9</title>
<path fill="none" stroke="midnightblue" d="M772.33,-280.43C726.32,-272.47 665.77,-259.51 646.5,-244 621.42,-223.81 614.5,-211.2 614.5,-179 614.5,-179 614.5,-179 614.5,-121 614.5,-72.87 667.67,-39.79 702.63,-23.24"/>
<polygon fill="midnightblue" stroke="midnightblue" points="704.29,-26.33 711.95,-19.02 701.39,-19.96 704.29,-26.33"/>
</g>
<!-- Node29 -->
<g id="node29" class="node">
<title>Node29</title>
<g id="a_node29"><a xlink:href="Ioss__Transform_8h.html" target="_top" xlink:title=" ">
<polygon fill="white" stroke="black" points="655.5,-224.5 655.5,-243.5 749.5,-243.5 749.5,-224.5 655.5,-224.5"/>
<text text-anchor="middle" x="702.5" y="-231.5" font-family="Helvetica,sans-Serif" font-size="10.00">Ioss_Transform.h</text>
</a>
</g>
</g>
<!-- Node3&#45;&gt;Node29 -->
<g id="edge47" class="edge">
<title>Node3&#45;&gt;Node29</title>
<path fill="none" stroke="midnightblue" d="M808.53,-280.44C787.89,-271.6 755.44,-257.69 731.87,-247.59"/>
<polygon fill="midnightblue" stroke="midnightblue" points="732.94,-244.24 722.37,-243.52 730.18,-250.67 732.94,-244.24"/>
</g>
<!-- Node5 -->
<g id="node5" class="node">
<title>Node5</title>
<g id="a_node5"><a xlink:href="Ioss__CodeTypes_8h.html" target="_top" xlink:title=" ">
<polygon fill="white" stroke="black" points="1417,-56.5 1417,-75.5 1516,-75.5 1516,-56.5 1417,-56.5"/>
<text text-anchor="middle" x="1466.5" y="-63.5" font-family="Helvetica,sans-Serif" font-size="10.00">Ioss_CodeTypes.h</text>
</a>
</g>
</g>
<!-- Node4&#45;&gt;Node5 -->
<g id="edge4" class="edge">
<title>Node4&#45;&gt;Node5</title>
<path fill="none" stroke="midnightblue" d="M886.58,-232C1061.29,-228.45 1608.78,-215.2 1634.5,-188 1657.7,-163.45 1655.06,-138.8 1634.5,-112 1621.18,-94.65 1569.13,-82.52 1526.45,-75.27"/>
<polygon fill="midnightblue" stroke="midnightblue" points="1526.82,-71.78 1516.39,-73.61 1525.69,-78.69 1526.82,-71.78"/>
</g>
<!-- Node4&#45;&gt;Node9 -->
<g id="edge45" class="edge">
<title>Node4&#45;&gt;Node9</title>
<path fill="none" stroke="midnightblue" d="M826.48,-224.44C819.52,-215.67 808.85,-201.46 801.5,-188 771.52,-133.13 748.1,-62.47 737.97,-29.49"/>
<polygon fill="midnightblue" stroke="midnightblue" points="741.29,-28.39 735.05,-19.82 734.59,-30.41 741.29,-28.39"/>
</g>
<!-- Node10 -->
<g id="node10" class="node">
<title>Node10</title>
<g id="a_node10"><a xlink:title=" ">
<polygon fill="white" stroke="#bfbfbf" points="1014.5,-0.5 1014.5,-19.5 1058.5,-19.5 1058.5,-0.5 1014.5,-0.5"/>
<text text-anchor="middle" x="1036.5" y="-7.5" font-family="Helvetica,sans-Serif" font-size="10.00">vector</text>
</a>
</g>
</g>
<!-- Node4&#45;&gt;Node10 -->
<g id="edge46" class="edge">
<title>Node4&#45;&gt;Node10</title>
<path fill="none" stroke="midnightblue" d="M839.81,-224.49C846.39,-215.53 856.93,-200.95 865.5,-188 903.47,-130.59 895.76,-102.52 946.5,-56 963.31,-40.59 986.38,-29.19 1004.95,-21.73"/>
<polygon fill="midnightblue" stroke="midnightblue" points="1006.38,-24.93 1014.47,-18.08 1003.88,-18.39 1006.38,-24.93"/>
</g>
<!-- Node13 -->
<g id="node13" class="node">
<title>Node13</title>
<g id="a_node13"><a xlink:href="Ioss__Utils_8h.html" target="_top" xlink:title=" ">
<polygon fill="white" stroke="black" points="1251.5,-168.5 1251.5,-187.5 1319.5,-187.5 1319.5,-168.5 1251.5,-168.5"/>
<text text-anchor="middle" x="1285.5" y="-175.5" font-family="Helvetica,sans-Serif" font-size="10.00">Ioss_Utils.h</text>
</a>
</g>
</g>
<!-- Node4&#45;&gt;Node13 -->
<g id="edge12" class="edge">
<title>Node4&#45;&gt;Node13</title>
<path fill="none" stroke="midnightblue" d="M886.68,-226.65C976.76,-215.89 1157.69,-194.27 1241.29,-184.28"/>
<polygon fill="midnightblue" stroke="midnightblue" points="1241.95,-187.73 1251.47,-183.07 1241.12,-180.78 1241.95,-187.73"/>
</g>
<!-- Node19 -->
<g id="node19" class="node">
<title>Node19</title>
<g id="a_node19"><a xlink:title=" ">
<polygon fill="white" stroke="#bfbfbf" points="1829,-0.5 1829,-19.5 1888,-19.5 1888,-0.5 1829,-0.5"/>
<text text-anchor="middle" x="1858.5" y="-7.5" font-family="Helvetica,sans-Serif" font-size="10.00">functional</text>
</a>
</g>
</g>
<!-- Node4&#45;&gt;Node19 -->
<g id="edge43" class="edge">
<title>Node4&#45;&gt;Node19</title>
<path fill="none" stroke="midnightblue" d="M886.6,-232.48C1088.55,-230.26 1799.27,-220.2 1834.5,-188 1879.1,-147.24 1869.71,-65.99 1862.68,-29.5"/>
<polygon fill="midnightblue" stroke="midnightblue" points="1866.11,-28.78 1860.64,-19.7 1859.25,-30.21 1866.11,-28.78"/>
</g>
<!-- Node27 -->
<g id="node27" class="node">
<title>Node27</title>
<g id="a_node27"><a xlink:title=" ">
<polygon fill="white" stroke="#bfbfbf" points="810.5,-168.5 810.5,-187.5 856.5,-187.5 856.5,-168.5 810.5,-168.5"/>
<text text-anchor="middle" x="833.5" y="-175.5" font-family="Helvetica,sans-Serif" font-size="10.00">cstring</text>
</a>
</g>
</g>
<!-- Node4&#45;&gt;Node27 -->
<g id="edge42" class="edge">
<title>Node4&#45;&gt;Node27</title>
<path fill="none" stroke="midnightblue" d="M833.5,-224.08C833.5,-217.01 833.5,-206.86 833.5,-197.99"/>
<polygon fill="midnightblue" stroke="midnightblue" points="837,-197.75 833.5,-187.75 830,-197.75 837,-197.75"/>
</g>
<!-- Node28 -->
<g id="node28" class="node">
<title>Node28</title>
<g id="a_node28"><a xlink:title=" ">
<polygon fill="white" stroke="#bfbfbf" points="718.5,-168.5 718.5,-187.5 754.5,-187.5 754.5,-168.5 718.5,-168.5"/>
<text text-anchor="middle" x="736.5" y="-175.5" font-family="Helvetica,sans-Serif" font-size="10.00">map</text>
</a>
</g>
</g>
<!-- Node4&#45;&gt;Node28 -->
<g id="edge44" class="edge">
<title>Node4&#45;&gt;Node28</title>
<path fill="none" stroke="midnightblue" d="M817.92,-224.32C802.5,-215.74 778.69,-202.49 760.79,-192.52"/>
<polygon fill="midnightblue" stroke="midnightblue" points="762.49,-189.46 752.05,-187.65 759.08,-195.58 762.49,-189.46"/>
</g>
<!-- Node6 -->
<g id="node6" class="node">
<title>Node6</title>
<g id="a_node6"><a xlink:title=" ">
<polygon fill="white" stroke="#bfbfbf" points="1370,-0.5 1370,-19.5 1409,-19.5 1409,-0.5 1370,-0.5"/>
<text text-anchor="middle" x="1389.5" y="-7.5" font-family="Helvetica,sans-Serif" font-size="10.00">array</text>
</a>
</g>
</g>
<!-- Node5&#45;&gt;Node6 -->
<g id="edge5" class="edge">
<title>Node5&#45;&gt;Node6</title>
<path fill="none" stroke="midnightblue" d="M1454.13,-56.32C1442.34,-48.06 1424.37,-35.45 1410.36,-25.63"/>
<polygon fill="midnightblue" stroke="midnightblue" points="1412.04,-22.53 1401.84,-19.65 1408.02,-28.26 1412.04,-22.53"/>
</g>
<!-- Node7 -->
<g id="node7" class="node">
<title>Node7</title>
<g id="a_node7"><a xlink:title=" ">
<polygon fill="white" stroke="#bfbfbf" points="1562,-0.5 1562,-19.5 1611,-19.5 1611,-0.5 1562,-0.5"/>
<text text-anchor="middle" x="1586.5" y="-7.5" font-family="Helvetica,sans-Serif" font-size="10.00">cstddef</text>
</a>
</g>
</g>
<!-- Node5&#45;&gt;Node7 -->
<g id="edge6" class="edge">
<title>Node5&#45;&gt;Node7</title>
<path fill="none" stroke="midnightblue" d="M1485.51,-56.44C1505.09,-47.64 1535.81,-33.81 1558.23,-23.72"/>
<polygon fill="midnightblue" stroke="midnightblue" points="1559.89,-26.81 1567.57,-19.52 1557.02,-20.43 1559.89,-26.81"/>
</g>
<!-- Node8 -->
<g id="node8" class="node">
<title>Node8</title>
<g id="a_node8"><a xlink:title=" ">
<polygon fill="white" stroke="#bfbfbf" points="1234,-0.5 1234,-19.5 1279,-19.5 1279,-0.5 1234,-0.5"/>
<text text-anchor="middle" x="1256.5" y="-7.5" font-family="Helvetica,sans-Serif" font-size="10.00">cstdint</text>
</a>
</g>
</g>
<!-- Node5&#45;&gt;Node8 -->
<g id="edge7" class="edge">
<title>Node5&#45;&gt;Node8</title>
<path fill="none" stroke="midnightblue" d="M1431.64,-56.48C1397.74,-48.12 1344.54,-34.85 1289.19,-20.13"/>
<polygon fill="midnightblue" stroke="midnightblue" points="1289.77,-16.66 1279.21,-17.47 1287.96,-23.43 1289.77,-16.66"/>
</g>
<!-- Node5&#45;&gt;Node9 -->
<g id="edge8" class="edge">
<title>Node5&#45;&gt;Node9</title>
<path fill="none" stroke="midnightblue" d="M1416.91,-61.35C1276.21,-51 877.27,-21.65 763.27,-13.26"/>
<polygon fill="midnightblue" stroke="midnightblue" points="763.37,-9.76 753.14,-12.52 762.86,-16.74 763.37,-9.76"/>
</g>
<!-- Node5&#45;&gt;Node10 -->
<g id="edge9" class="edge">
<title>Node5&#45;&gt;Node10</title>
<path fill="none" stroke="midnightblue" d="M1416.9,-57.94C1412.03,-57.27 1407.17,-56.62 1402.5,-56 1279.5,-39.79 1132.99,-22.34 1069.05,-14.81"/>
<polygon fill="midnightblue" stroke="midnightblue" points="1069.14,-11.3 1058.8,-13.6 1068.32,-18.25 1069.14,-11.3"/>
</g>
<!-- Node11 -->
<g id="node11" class="node">
<title>Node11</title>
<g id="a_node11"><a xlink:title=" ">
<polygon fill="white" stroke="#bfbfbf" points="1427.5,-0.5 1427.5,-19.5 1543.5,-19.5 1543.5,-0.5 1427.5,-0.5"/>
<text text-anchor="middle" x="1485.5" y="-7.5" font-family="Helvetica,sans-Serif" font-size="10.00">SEACASIoss_config.h</text>
</a>
</g>
</g>
<!-- Node5&#45;&gt;Node11 -->
<g id="edge10" class="edge">
<title>Node5&#45;&gt;Node11</title>
<path fill="none" stroke="midnightblue" d="M1469.64,-56.08C1472.18,-48.85 1475.86,-38.41 1479.03,-29.4"/>
<polygon fill="midnightblue" stroke="midnightblue" points="1482.4,-30.35 1482.42,-19.75 1475.8,-28.02 1482.4,-30.35"/>
</g>
<!-- Node12 -->
<g id="node12" class="node">
<title>Node12</title>
<g id="a_node12"><a xlink:title=" ">
<polygon fill="white" stroke="#bfbfbf" points="1297.5,-0.5 1297.5,-19.5 1351.5,-19.5 1351.5,-0.5 1297.5,-0.5"/>
<text text-anchor="middle" x="1324.5" y="-7.5" font-family="Helvetica,sans-Serif" font-size="10.00">complex</text>
</a>
</g>
</g>
<!-- Node5&#45;&gt;Node12 -->
<g id="edge11" class="edge">
<title>Node5&#45;&gt;Node12</title>
<path fill="none" stroke="midnightblue" d="M1444,-56.44C1420.42,-47.48 1383.18,-33.31 1356.54,-23.18"/>
<polygon fill="midnightblue" stroke="midnightblue" points="1357.49,-19.8 1346.9,-19.52 1355,-26.34 1357.49,-19.8"/>
</g>
<!-- Node13&#45;&gt;Node5 -->
<g id="edge13" class="edge">
<title>Node13&#45;&gt;Node5</title>
<path fill="none" stroke="midnightblue" d="M1319.76,-175.61C1378.7,-172.42 1495.42,-162.34 1520.5,-132 1535.08,-114.37 1511.86,-94.1 1491.49,-80.95"/>
<polygon fill="midnightblue" stroke="midnightblue" points="1493.12,-77.84 1482.76,-75.61 1489.46,-83.81 1493.12,-77.84"/>
</g>
<!-- Node13&#45;&gt;Node7 -->
<g id="edge35" class="edge">
<title>Node13&#45;&gt;Node7</title>
<path fill="none" stroke="midnightblue" d="M1319.94,-174.87C1380.71,-170.46 1503.66,-158.46 1536.5,-132 1568.4,-106.3 1580.17,-56.8 1584.34,-29.76"/>
<polygon fill="midnightblue" stroke="midnightblue" points="1587.83,-30.06 1585.7,-19.68 1580.89,-29.13 1587.83,-30.06"/>
</g>
<!-- Node13&#45;&gt;Node8 -->
<g id="edge36" class="edge">
<title>Node13&#45;&gt;Node8</title>
<path fill="none" stroke="midnightblue" d="M1319.59,-177.92C1386.91,-178.46 1527.13,-172.58 1487.5,-112 1486.01,-109.72 1347.44,-50.04 1285.66,-23.51"/>
<polygon fill="midnightblue" stroke="midnightblue" points="1287.01,-20.28 1276.44,-19.55 1284.25,-26.71 1287.01,-20.28"/>
</g>
<!-- Node13&#45;&gt;Node9 -->
<g id="edge40" class="edge">
<title>Node13&#45;&gt;Node9</title>
<path fill="none" stroke="midnightblue" d="M1251.16,-173.28C1201.69,-167.39 1107.83,-154.25 1030.5,-132 926.9,-102.19 810.08,-48.53 758.9,-23.94"/>
<polygon fill="midnightblue" stroke="midnightblue" points="760.37,-20.76 749.84,-19.56 757.32,-27.07 760.37,-20.76"/>
</g>
<!-- Node13&#45;&gt;Node10 -->
<g id="edge41" class="edge">
<title>Node13&#45;&gt;Node10</title>
<path fill="none" stroke="midnightblue" d="M1251.09,-175.44C1191.83,-171.98 1074.29,-161.5 1047.5,-132 1022.06,-103.99 1026.87,-55.83 1032.03,-29.5"/>
<polygon fill="midnightblue" stroke="midnightblue" points="1035.46,-30.2 1034.17,-19.68 1028.62,-28.71 1035.46,-30.2"/>
</g>
<!-- Node14 -->
<g id="node14" class="node">
<title>Node14</title>
<g id="a_node14"><a xlink:href="Ioss__Field_8h.html" target="_top" xlink:title=" ">
<polygon fill="white" stroke="black" points="1408.5,-112.5 1408.5,-131.5 1478.5,-131.5 1478.5,-112.5 1408.5,-112.5"/>
<text text-anchor="middle" x="1443.5" y="-119.5" font-family="Helvetica,sans-Serif" font-size="10.00">Ioss_Field.h</text>
</a>
</g>
</g>
<!-- Node13&#45;&gt;Node14 -->
<g id="edge14" class="edge">
<title>Node13&#45;&gt;Node14</title>
<path fill="none" stroke="midnightblue" d="M1310.54,-168.44C1337.12,-159.36 1379.31,-144.94 1409.02,-134.78"/>
<polygon fill="midnightblue" stroke="midnightblue" points="1410.25,-138.06 1418.58,-131.52 1407.99,-131.44 1410.25,-138.06"/>
</g>
<!-- Node15 -->
<g id="node15" class="node">
<title>Node15</title>
<g id="a_node15"><a xlink:href="Ioss__Property_8h.html" target="_top" xlink:title=" ">
<polygon fill="white" stroke="black" points="1064.5,-56.5 1064.5,-75.5 1150.5,-75.5 1150.5,-56.5 1064.5,-56.5"/>
<text text-anchor="middle" x="1107.5" y="-63.5" font-family="Helvetica,sans-Serif" font-size="10.00">Ioss_Property.h</text>
</a>
</g>
</g>
<!-- Node13&#45;&gt;Node15 -->
<g id="edge19" class="edge">
<title>Node13&#45;&gt;Node15</title>
<path fill="none" stroke="midnightblue" d="M1251.19,-175.42C1193.45,-171.95 1080.76,-161.49 1056.5,-132 1042.28,-114.71 1064.36,-94.34 1083.76,-81.07"/>
<polygon fill="midnightblue" stroke="midnightblue" points="1085.86,-83.89 1092.35,-75.51 1082.05,-78.01 1085.86,-83.89"/>
</g>
<!-- Node16 -->
<g id="node16" class="node">
<title>Node16</title>
<g id="a_node16"><a xlink:href="Ioss__Sort_8h.html" target="_top" xlink:title=" ">
<polygon fill="white" stroke="black" points="1687,-112.5 1687,-131.5 1754,-131.5 1754,-112.5 1687,-112.5"/>
<text text-anchor="middle" x="1720.5" y="-119.5" font-family="Helvetica,sans-Serif" font-size="10.00">Ioss_Sort.h</text>
</a>
</g>
</g>
<!-- Node13&#45;&gt;Node16 -->
<g id="edge23" class="edge">
<title>Node13&#45;&gt;Node16</title>
<path fill="none" stroke="midnightblue" d="M1319.63,-172.76C1397.87,-163.05 1590.06,-139.19 1676.79,-128.43"/>
<polygon fill="midnightblue" stroke="midnightblue" points="1677.33,-131.89 1686.82,-127.18 1676.47,-124.94 1677.33,-131.89"/>
</g>
<!-- Node18 -->
<g id="node18" class="node">
<title>Node18</title>
<g id="a_node18"><a xlink:title=" ">
<polygon fill="white" stroke="#bfbfbf" points="1752.5,-0.5 1752.5,-19.5 1810.5,-19.5 1810.5,-0.5 1752.5,-0.5"/>
<text text-anchor="middle" x="1781.5" y="-7.5" font-family="Helvetica,sans-Serif" font-size="10.00">algorithm</text>
</a>
</g>
</g>
<!-- Node13&#45;&gt;Node18 -->
<g id="edge32" class="edge">
<title>Node13&#45;&gt;Node18</title>
<path fill="none" stroke="midnightblue" d="M1319.8,-176.17C1423.94,-173.33 1731.4,-162.42 1763.5,-132 1791.29,-105.67 1788.87,-56.43 1785,-29.6"/>
<polygon fill="midnightblue" stroke="midnightblue" points="1788.43,-28.89 1783.34,-19.6 1781.53,-30.04 1788.43,-28.89"/>
</g>
<!-- Node22 -->
<g id="node22" class="node">
<title>Node22</title>
<g id="a_node22"><a xlink:title=" ">
<polygon fill="white" stroke="#bfbfbf" points="1065,-112.5 1065,-131.5 1114,-131.5 1114,-112.5 1065,-112.5"/>
<text text-anchor="middle" x="1089.5" y="-119.5" font-family="Helvetica,sans-Serif" font-size="10.00">cassert</text>
</a>
</g>
</g>
<!-- Node13&#45;&gt;Node22 -->
<g id="edge33" class="edge">
<title>Node13&#45;&gt;Node22</title>
<path fill="none" stroke="midnightblue" d="M1254.44,-168.44C1218.92,-158.66 1160.93,-142.68 1124.02,-132.51"/>
<polygon fill="midnightblue" stroke="midnightblue" points="1124.78,-129.09 1114.21,-129.81 1122.92,-135.84 1124.78,-129.09"/>
</g>
<!-- Node23 -->
<g id="node23" class="node">
<title>Node23</title>
<g id="a_node23"><a xlink:title=" ">
<polygon fill="white" stroke="#bfbfbf" points="1132.5,-112.5 1132.5,-131.5 1176.5,-131.5 1176.5,-112.5 1132.5,-112.5"/>
<text text-anchor="middle" x="1154.5" y="-119.5" font-family="Helvetica,sans-Serif" font-size="10.00">cmath</text>
</a>
</g>
</g>
<!-- Node13&#45;&gt;Node23 -->
<g id="edge34" class="edge">
<title>Node13&#45;&gt;Node23</title>
<path fill="none" stroke="midnightblue" d="M1264.74,-168.44C1243.18,-159.56 1209.24,-145.56 1184.71,-135.45"/>
<polygon fill="midnightblue" stroke="midnightblue" points="1185.74,-132.09 1175.16,-131.52 1183.07,-138.56 1185.74,-132.09"/>
</g>
<!-- Node24 -->
<g id="node24" class="node">
<title>Node24</title>
<g id="a_node24"><a xlink:title=" ">
<polygon fill="white" stroke="#bfbfbf" points="1195,-112.5 1195,-131.5 1240,-131.5 1240,-112.5 1195,-112.5"/>
<text text-anchor="middle" x="1217.5" y="-119.5" font-family="Helvetica,sans-Serif" font-size="10.00">cstdlib</text>
</a>
</g>
</g>
<!-- Node13&#45;&gt;Node24 -->
<g id="edge37" class="edge">
<title>Node13&#45;&gt;Node24</title>
<path fill="none" stroke="midnightblue" d="M1274.57,-168.32C1264.33,-160.18 1248.78,-147.84 1236.5,-138.09"/>
<polygon fill="midnightblue" stroke="midnightblue" points="1238.63,-135.31 1228.62,-131.83 1234.28,-140.79 1238.63,-135.31"/>
</g>
<!-- Node25 -->
<g id="node25" class="node">
<title>Node25</title>
<g id="a_node25"><a xlink:title=" ">
<polygon fill="white" stroke="#bfbfbf" points="1258,-112.5 1258,-131.5 1313,-131.5 1313,-112.5 1258,-112.5"/>
<text text-anchor="middle" x="1285.5" y="-119.5" font-family="Helvetica,sans-Serif" font-size="10.00">iostream</text>
</a>
</g>
</g>
<!-- Node13&#45;&gt;Node25 -->
<g id="edge38" class="edge">
<title>Node13&#45;&gt;Node25</title>
<path fill="none" stroke="midnightblue" d="M1285.5,-168.08C1285.5,-161.01 1285.5,-150.86 1285.5,-141.99"/>
<polygon fill="midnightblue" stroke="midnightblue" points="1289,-141.75 1285.5,-131.75 1282,-141.75 1289,-141.75"/>
</g>
<!-- Node26 -->
<g id="node26" class="node">
<title>Node26</title>
<g id="a_node26"><a xlink:title=" ">
<polygon fill="white" stroke="#bfbfbf" points="1331,-112.5 1331,-131.5 1390,-131.5 1390,-112.5 1331,-112.5"/>
<text text-anchor="middle" x="1360.5" y="-119.5" font-family="Helvetica,sans-Serif" font-size="10.00">stdexcept</text>
</a>
</g>
</g>
<!-- Node13&#45;&gt;Node26 -->
<g id="edge39" class="edge">
<title>Node13&#45;&gt;Node26</title>
<path fill="none" stroke="midnightblue" d="M1297.55,-168.32C1308.96,-160.11 1326.33,-147.6 1339.93,-137.81"/>
<polygon fill="midnightblue" stroke="midnightblue" points="1342.16,-140.52 1348.23,-131.83 1338.07,-134.84 1342.16,-140.52"/>
</g>
<!-- Node14&#45;&gt;Node5 -->
<g id="edge15" class="edge">
<title>Node14&#45;&gt;Node5</title>
<path fill="none" stroke="midnightblue" d="M1447.3,-112.08C1450.41,-104.77 1454.92,-94.18 1458.79,-85.1"/>
<polygon fill="midnightblue" stroke="midnightblue" points="1462.07,-86.32 1462.77,-75.75 1455.63,-83.58 1462.07,-86.32"/>
</g>
<!-- Node14&#45;&gt;Node7 -->
<g id="edge16" class="edge">
<title>Node14&#45;&gt;Node7</title>
<path fill="none" stroke="midnightblue" d="M1463.11,-112.4C1480.41,-104.32 1505.86,-91.22 1525.5,-76 1543.93,-61.71 1561.81,-41.71 1573.39,-27.69"/>
<polygon fill="midnightblue" stroke="midnightblue" points="1576.17,-29.81 1579.74,-19.83 1570.73,-25.41 1576.17,-29.81"/>
</g>
<!-- Node14&#45;&gt;Node9 -->
<g id="edge17" class="edge">
<title>Node14&#45;&gt;Node9</title>
<path fill="none" stroke="midnightblue" d="M1408.49,-113.52C1405.46,-112.97 1402.43,-112.45 1399.5,-112 1247.57,-88.57 1207.46,-99.19 1055.5,-76 947.17,-59.47 820.09,-31.28 762.99,-18.14"/>
<polygon fill="midnightblue" stroke="midnightblue" points="763.69,-14.71 753.16,-15.86 762.12,-21.53 763.69,-14.71"/>
</g>
<!-- Node14&#45;&gt;Node10 -->
<g id="edge18" class="edge">
<title>Node14&#45;&gt;Node10</title>
<path fill="none" stroke="midnightblue" d="M1411.9,-112.46C1336.27,-92.02 1145.44,-40.44 1068.95,-19.77"/>
<polygon fill="midnightblue" stroke="midnightblue" points="1069.51,-16.29 1058.94,-17.06 1067.68,-23.05 1069.51,-16.29"/>
</g>
<!-- Node15&#45;&gt;Node8 -->
<g id="edge20" class="edge">
<title>Node15&#45;&gt;Node8</title>
<path fill="none" stroke="midnightblue" d="M1131.11,-56.44C1156.25,-47.33 1196.2,-32.85 1224.24,-22.69"/>
<polygon fill="midnightblue" stroke="midnightblue" points="1225.77,-25.86 1233.98,-19.16 1223.38,-19.28 1225.77,-25.86"/>
</g>
<!-- Node15&#45;&gt;Node9 -->
<g id="edge21" class="edge">
<title>Node15&#45;&gt;Node9</title>
<path fill="none" stroke="midnightblue" d="M1064.48,-58.81C988.12,-47.81 830.65,-25.13 763.71,-15.49"/>
<polygon fill="midnightblue" stroke="midnightblue" points="763.8,-11.97 753.4,-14.01 762.8,-18.9 763.8,-11.97"/>
</g>
<!-- Node15&#45;&gt;Node10 -->
<g id="edge22" class="edge">
<title>Node15&#45;&gt;Node10</title>
<path fill="none" stroke="midnightblue" d="M1096.09,-56.32C1085.39,-48.18 1069.16,-35.84 1056.34,-26.09"/>
<polygon fill="midnightblue" stroke="midnightblue" points="1058.19,-23.1 1048.11,-19.83 1053.96,-28.67 1058.19,-23.1"/>
</g>
<!-- Node16&#45;&gt;Node7 -->
<g id="edge30" class="edge">
<title>Node16&#45;&gt;Node7</title>
<path fill="none" stroke="midnightblue" d="M1709.99,-112.37C1687.28,-93.73 1633.44,-49.53 1604.94,-26.13"/>
<polygon fill="midnightblue" stroke="midnightblue" points="1606.92,-23.23 1596.97,-19.59 1602.47,-28.64 1606.92,-23.23"/>
</g>
<!-- Node16&#45;&gt;Node10 -->
<g id="edge31" class="edge">
<title>Node16&#45;&gt;Node10</title>
<path fill="none" stroke="midnightblue" d="M1686.75,-116.47C1629.46,-108.7 1509.56,-92.11 1408.5,-76 1282.47,-55.9 1133.01,-28.79 1068.63,-16.95"/>
<polygon fill="midnightblue" stroke="midnightblue" points="1069.15,-13.48 1058.68,-15.11 1067.88,-20.37 1069.15,-13.48"/>
</g>
<!-- Node17 -->
<g id="node17" class="node">
<title>Node17</title>
<g id="a_node17"><a xlink:href="pdqsort_8h.html" target="_top" xlink:title=" ">
<polygon fill="white" stroke="black" points="1686.5,-56.5 1686.5,-75.5 1744.5,-75.5 1744.5,-56.5 1686.5,-56.5"/>
<text text-anchor="middle" x="1715.5" y="-63.5" font-family="Helvetica,sans-Serif" font-size="10.00">pdqsort.h</text>
</a>
</g>
</g>
<!-- Node16&#45;&gt;Node17 -->
<g id="edge24" class="edge">
<title>Node16&#45;&gt;Node17</title>
<path fill="none" stroke="midnightblue" d="M1719.67,-112.08C1719.02,-105.01 1718.08,-94.86 1717.26,-85.99"/>
<polygon fill="midnightblue" stroke="midnightblue" points="1720.72,-85.39 1716.31,-75.75 1713.75,-86.03 1720.72,-85.39"/>
</g>
<!-- Node17&#45;&gt;Node7 -->
<g id="edge26" class="edge">
<title>Node17&#45;&gt;Node7</title>
<path fill="none" stroke="midnightblue" d="M1695.06,-56.44C1673.83,-47.56 1640.4,-33.56 1616.25,-23.45"/>
<polygon fill="midnightblue" stroke="midnightblue" points="1617.42,-20.15 1606.84,-19.52 1614.72,-26.61 1617.42,-20.15"/>
</g>
<!-- Node17&#45;&gt;Node18 -->
<g id="edge25" class="edge">
<title>Node17&#45;&gt;Node18</title>
<path fill="none" stroke="midnightblue" d="M1726.1,-56.32C1735.96,-48.26 1750.85,-36.08 1762.72,-26.37"/>
<polygon fill="midnightblue" stroke="midnightblue" points="1765.18,-28.88 1770.7,-19.83 1760.75,-23.46 1765.18,-28.88"/>
</g>
<!-- Node17&#45;&gt;Node19 -->
<g id="edge27" class="edge">
<title>Node17&#45;&gt;Node19</title>
<path fill="none" stroke="midnightblue" d="M1738.16,-56.44C1761.9,-47.48 1799.41,-33.31 1826.24,-23.18"/>
<polygon fill="midnightblue" stroke="midnightblue" points="1827.83,-26.32 1835.95,-19.52 1825.36,-19.77 1827.83,-26.32"/>
</g>
<!-- Node20 -->
<g id="node20" class="node">
<title>Node20</title>
<g id="a_node20"><a xlink:title=" ">
<polygon fill="white" stroke="#bfbfbf" points="1686.5,-0.5 1686.5,-19.5 1734.5,-19.5 1734.5,-0.5 1686.5,-0.5"/>
<text text-anchor="middle" x="1710.5" y="-7.5" font-family="Helvetica,sans-Serif" font-size="10.00">iterator</text>
</a>
</g>
</g>
<!-- Node17&#45;&gt;Node20 -->
<g id="edge28" class="edge">
<title>Node17&#45;&gt;Node20</title>
<path fill="none" stroke="midnightblue" d="M1714.67,-56.08C1714.02,-49.01 1713.08,-38.86 1712.26,-29.99"/>
<polygon fill="midnightblue" stroke="midnightblue" points="1715.72,-29.39 1711.31,-19.75 1708.75,-30.03 1715.72,-29.39"/>
</g>
<!-- Node21 -->
<g id="node21" class="node">
<title>Node21</title>
<g id="a_node21"><a xlink:title=" ">
<polygon fill="white" stroke="#bfbfbf" points="1629,-0.5 1629,-19.5 1668,-19.5 1668,-0.5 1629,-0.5"/>
<text text-anchor="middle" x="1648.5" y="-7.5" font-family="Helvetica,sans-Serif" font-size="10.00">utility</text>
</a>
</g>
</g>
<!-- Node17&#45;&gt;Node21 -->
<g id="edge29" class="edge">
<title>Node17&#45;&gt;Node21</title>
<path fill="none" stroke="midnightblue" d="M1704.74,-56.32C1694.73,-48.26 1679.61,-36.08 1667.57,-26.37"/>
<polygon fill="midnightblue" stroke="midnightblue" points="1669.44,-23.38 1659.46,-19.83 1665.05,-28.83 1669.44,-23.38"/>
</g>
<!-- Node29&#45;&gt;Node5 -->
<g id="edge48" class="edge">
<title>Node29&#45;&gt;Node5</title>
<path fill="none" stroke="midnightblue" d="M749.59,-226.44C756.92,-225.54 764.41,-224.69 771.5,-224 941.92,-207.4 1432.35,-267.9 1536.5,-132 1552.06,-111.69 1523.44,-92.25 1498.24,-80.01"/>
<polygon fill="midnightblue" stroke="midnightblue" points="1499.39,-76.69 1488.85,-75.68 1496.47,-83.05 1499.39,-76.69"/>
</g>
<!-- Node29&#45;&gt;Node9 -->
<g id="edge51" class="edge">
<title>Node29&#45;&gt;Node9</title>
<path fill="none" stroke="midnightblue" d="M695.61,-224.32C689.23,-215.68 680.19,-201.77 676.5,-188 674.2,-179.41 674.98,-176.76 676.5,-168 685.6,-115.43 710.63,-57.15 723.93,-28.65"/>
<polygon fill="midnightblue" stroke="midnightblue" points="727.12,-30.1 728.25,-19.57 720.8,-27.1 727.12,-30.1"/>
</g>
<!-- Node29&#45;&gt;Node10 -->
<g id="edge52" class="edge">
<title>Node29&#45;&gt;Node10</title>
<path fill="none" stroke="midnightblue" d="M701,-224.13C699.24,-210.72 697.87,-185.07 709.5,-168 779.5,-65.24 936.03,-27.6 1003.98,-15.76"/>
<polygon fill="midnightblue" stroke="midnightblue" points="1004.81,-19.17 1014.1,-14.07 1003.66,-12.26 1004.81,-19.17"/>
</g>
<!-- Node29&#45;&gt;Node19 -->
<g id="edge49" class="edge">
<title>Node29&#45;&gt;Node19</title>
<path fill="none" stroke="midnightblue" d="M749.58,-226.35C756.91,-225.47 764.4,-224.64 771.5,-224 996.4,-203.68 1597.16,-259.55 1783.5,-132 1820.43,-106.72 1842.64,-56.68 1852.47,-29.54"/>
<polygon fill="midnightblue" stroke="midnightblue" points="1855.9,-30.35 1855.84,-19.75 1849.28,-28.07 1855.9,-30.35"/>
</g>
<!-- Node29&#45;&gt;Node28 -->
<g id="edge50" class="edge">
<title>Node29&#45;&gt;Node28</title>
<path fill="none" stroke="midnightblue" d="M708.11,-224.08C712.87,-216.53 719.82,-205.49 725.65,-196.23"/>
<polygon fill="midnightblue" stroke="midnightblue" points="728.62,-198.08 730.99,-187.75 722.7,-194.35 728.62,-198.08"/>
</g>
<!-- Node30&#45;&gt;Node9 -->
<g id="edge56" class="edge">
<title>Node30&#45;&gt;Node9</title>
<path fill="none" stroke="midnightblue" d="M214.1,-280.47C230.69,-263.04 265.5,-221.42 265.5,-179 265.5,-179 265.5,-179 265.5,-121 265.5,-31.1 597.54,-14.6 701.66,-11.63"/>
<polygon fill="midnightblue" stroke="midnightblue" points="701.93,-15.13 711.83,-11.37 701.74,-8.13 701.93,-15.13"/>
</g>
<!-- Node30&#45;&gt;Node29 -->
<g id="edge55" class="edge">
<title>Node30&#45;&gt;Node29</title>
<path fill="none" stroke="midnightblue" d="M263.97,-282.65C360.03,-272.21 550.06,-251.56 645.29,-241.22"/>
<polygon fill="midnightblue" stroke="midnightblue" points="645.75,-244.69 655.31,-240.13 644.99,-237.73 645.75,-244.69"/>
</g>
<!-- Node30&#45;&gt;Node30 -->
<g id="edge57" class="edge">
<title>Node30&#45;&gt;Node30</title>
<path fill="none" stroke="midnightblue" d="M237.91,-299.53C259.94,-302.31 281.5,-299.13 281.5,-290 281.5,-282.29 266.15,-278.83 248.12,-279.61"/>
<polygon fill="midnightblue" stroke="midnightblue" points="247.58,-276.14 237.91,-280.47 248.17,-283.11 247.58,-276.14"/>
</g>
<!-- Node31&#45;&gt;Node4 -->
<g id="edge59" class="edge">
<title>Node31&#45;&gt;Node4</title>
<path fill="none" stroke="midnightblue" d="M1063.24,-280.44C1015.32,-270.96 938.02,-255.67 886.5,-245.48"/>
<polygon fill="midnightblue" stroke="midnightblue" points="887.04,-242.02 876.56,-243.52 885.69,-248.89 887.04,-242.02"/>
</g>
<!-- Node31&#45;&gt;Node9 -->
<g id="edge61" class="edge">
<title>Node31&#45;&gt;Node9</title>
<path fill="none" stroke="midnightblue" d="M1094.9,-280.38C1041.56,-240.73 819.66,-75.79 752.11,-25.57"/>
<polygon fill="midnightblue" stroke="midnightblue" points="754.08,-22.68 743.97,-19.52 749.91,-28.3 754.08,-22.68"/>
</g>
<!-- Node31&#45;&gt;Node10 -->
<g id="edge62" class="edge">
<title>Node31&#45;&gt;Node10</title>
<path fill="none" stroke="midnightblue" d="M1100.96,-280.22C1086.62,-257.03 1048.19,-191.82 1030.5,-132 1023.39,-107.95 1025.06,-101.03 1023.5,-76 1022.95,-67.13 1022.25,-64.8 1023.5,-56 1024.77,-47.04 1027.39,-37.37 1029.95,-29.3"/>
<polygon fill="midnightblue" stroke="midnightblue" points="1033.27,-30.4 1033.16,-19.8 1026.64,-28.16 1033.27,-30.4"/>
</g>
<!-- Node31&#45;&gt;Node29 -->
<g id="edge60" class="edge">
<title>Node31&#45;&gt;Node29</title>
<path fill="none" stroke="midnightblue" d="M1042.48,-280.44C964.6,-270.03 834.3,-252.62 759.66,-242.64"/>
<polygon fill="midnightblue" stroke="midnightblue" points="759.88,-239.14 749.51,-241.28 758.96,-246.08 759.88,-239.14"/>
</g>
<!-- Node32&#45;&gt;Node4 -->
<g id="edge64" class="edge">
<title>Node32&#45;&gt;Node4</title>
<path fill="none" stroke="midnightblue" d="M945.43,-280.44C923.44,-271.52 888.77,-257.44 863.84,-247.32"/>
<polygon fill="midnightblue" stroke="midnightblue" points="865.06,-244.04 854.48,-243.52 862.42,-250.52 865.06,-244.04"/>
</g>
<!-- Node32&#45;&gt;Node9 -->
<g id="edge66" class="edge">
<title>Node32&#45;&gt;Node9</title>
<path fill="none" stroke="midnightblue" d="M959.53,-280.38C943.32,-260.38 901.71,-209.4 865.5,-168 851.21,-151.66 846.75,-148.37 832.5,-132 800.61,-95.36 764.65,-51.09 745.75,-27.57"/>
<polygon fill="midnightblue" stroke="midnightblue" points="748.37,-25.25 739.38,-19.63 742.91,-29.63 748.37,-25.25"/>
</g>
<!-- Node32&#45;&gt;Node29 -->
<g id="edge65" class="edge">
<title>Node32&#45;&gt;Node29</title>
<path fill="none" stroke="midnightblue" d="M924.67,-280.44C878.42,-270.98 803.89,-255.74 754.06,-245.55"/>
<polygon fill="midnightblue" stroke="midnightblue" points="754.63,-242.09 744.14,-243.52 753.23,-248.95 754.63,-242.09"/>
</g>
<!-- Node33&#45;&gt;Node4 -->
<g id="edge68" class="edge">
<title>Node33&#45;&gt;Node4</title>
<path fill="none" stroke="midnightblue" d="M427.59,-281.06C430.6,-280.7 433.58,-280.34 436.5,-280 579.52,-263.19 615.45,-260.58 758.5,-244 762.35,-243.55 766.3,-243.09 770.3,-242.62"/>
<polygon fill="midnightblue" stroke="midnightblue" points="770.72,-246.1 780.24,-241.44 769.9,-239.14 770.72,-246.1"/>
</g>
<!-- Node33&#45;&gt;Node9 -->
<g id="edge70" class="edge">
<title>Node33&#45;&gt;Node9</title>
<path fill="none" stroke="midnightblue" d="M370.31,-280.46C383.78,-262.69 412.5,-219.98 412.5,-179 412.5,-179 412.5,-179 412.5,-121 412.5,-60.14 622.12,-25.74 702.05,-14.83"/>
<polygon fill="midnightblue" stroke="midnightblue" points="702.55,-18.3 712,-13.51 701.62,-11.36 702.55,-18.3"/>
</g>
<!-- Node33&#45;&gt;Node10 -->
<g id="edge71" class="edge">
<title>Node33&#45;&gt;Node10</title>
<path fill="none" stroke="midnightblue" d="M376.93,-280.3C430.16,-246.21 632.29,-120.48 815.5,-56 880.5,-33.12 960.58,-20.43 1004.28,-14.74"/>
<polygon fill="midnightblue" stroke="midnightblue" points="1004.84,-18.19 1014.32,-13.47 1003.96,-11.25 1004.84,-18.19"/>
</g>
<!-- Node33&#45;&gt;Node29 -->
<g id="edge69" class="edge">
<title>Node33&#45;&gt;Node29</title>
<path fill="none" stroke="midnightblue" d="M417.22,-280.44C479.51,-270.52 581.76,-254.23 645.44,-244.09"/>
<polygon fill="midnightblue" stroke="midnightblue" points="645.99,-247.55 655.32,-242.52 644.89,-240.63 645.99,-247.55"/>
</g>
<!-- Node34&#45;&gt;Node4 -->
<g id="edge73" class="edge">
<title>Node34&#45;&gt;Node4</title>
<path fill="none" stroke="midnightblue" d="M557.47,-280.44C615.65,-270.87 709.86,-255.36 771.75,-245.17"/>
<polygon fill="midnightblue" stroke="midnightblue" points="772.47,-248.59 781.77,-243.52 771.33,-241.69 772.47,-248.59"/>
</g>
<!-- Node34&#45;&gt;Node9 -->
<g id="edge75" class="edge">
<title>Node34&#45;&gt;Node9</title>
<path fill="none" stroke="midnightblue" d="M504.85,-280.45C503.49,-261.95 500.5,-216.85 500.5,-179 500.5,-179 500.5,-179 500.5,-121 500.5,-32.93 638.68,-15.28 701.76,-11.81"/>
<polygon fill="midnightblue" stroke="midnightblue" points="702.08,-15.3 711.91,-11.34 701.76,-8.31 702.08,-15.3"/>
</g>
<!-- Node34&#45;&gt;Node29 -->
<g id="edge74" class="edge">
<title>Node34&#45;&gt;Node29</title>
<path fill="none" stroke="midnightblue" d="M536.72,-280.44C570.43,-271.2 624.3,-256.44 661.43,-246.26"/>
<polygon fill="midnightblue" stroke="midnightblue" points="662.71,-249.54 671.43,-243.52 660.86,-242.78 662.71,-249.54"/>
</g>
<!-- Node35&#45;&gt;Node4 -->
<g id="edge77" class="edge">
<title>Node35&#45;&gt;Node4</title>
<path fill="none" stroke="midnightblue" d="M692.12,-280.44C720.51,-271.32 765.64,-256.81 797.25,-246.65"/>
<polygon fill="midnightblue" stroke="midnightblue" points="798.56,-249.91 807,-243.52 796.41,-243.24 798.56,-249.91"/>
</g>
<!-- Node35&#45;&gt;Node9 -->
<g id="edge79" class="edge">
<title>Node35&#45;&gt;Node9</title>
<path fill="none" stroke="midnightblue" d="M643.69,-280.45C628.56,-273.22 609.55,-261.26 600.5,-244 561.72,-169.99 551.88,-123.95 600.5,-56 623.31,-24.12 670.07,-14.57 701.36,-11.85"/>
<polygon fill="midnightblue" stroke="midnightblue" points="701.98,-15.32 711.72,-11.15 701.5,-8.33 701.98,-15.32"/>
</g>
<!-- Node35&#45;&gt;Node29 -->
<g id="edge78" class="edge">
<title>Node35&#45;&gt;Node29</title>
<path fill="none" stroke="midnightblue" d="M671.61,-280.08C676.78,-272.53 684.35,-261.49 690.69,-252.23"/>
<polygon fill="midnightblue" stroke="midnightblue" points="693.74,-253.98 696.5,-243.75 687.96,-250.02 693.74,-253.98"/>
</g>
</g>
</svg>
