<?xml version="1.0" encoding="UTF-8" standalone="no"?>
<!DOCTYPE svg PUBLIC "-//W3C//DTD SVG 1.1//EN"
 "http://www.w3.org/Graphics/SVG/1.1/DTD/svg11.dtd">
<!-- Generated by graphviz version 3.0.0 (20220226.1711)
 -->
<!-- Title: src/visualization/utils/Iovs_Utils.h Pages: 1 -->
<!--zoomable 386 -->
<svg id="main" version="1.1" xmlns="http://www.w3.org/2000/svg" xmlns:xlink="http://www.w3.org/1999/xlink" xml:space="preserve" onload="init(evt)">
<style type="text/css"><![CDATA[
.edge:hover path { stroke: red; }
.edge:hover polygon { stroke: red; fill: red; }
]]></style>
<script type="text/javascript"><![CDATA[
var edges = document.getElementsByTagName('g');
if (edges && edges.length) {
  for (var i=0;i<edges.length;i++) {
    if (edges[i].id.substr(0,4)=='edge') {
      edges[i].setAttribute('class','edge');
    }
  }
}
]]></script>
        <defs>
                <circle id="rim" cx="0" cy="0" r="7"/>
                <circle id="rim2" cx="0" cy="0" r="3.5"/>
                <g id="zoomPlus">
                        <use xlink:href="#rim" fill="#404040">
                                <set attributeName="fill" to="#808080" begin="zoomplus.mouseover" end="zoomplus.mouseout"/>
                        </use>
                        <path d="M-4,0h8M0,-4v8" fill="none" stroke="white" stroke-width="1.5" pointer-events="none"/>
                </g>
                <g id="zoomMin">
                        <use xlink:href="#rim" fill="#404040">
                                <set attributeName="fill" to="#808080" begin="zoomminus.mouseover" end="zoomminus.mouseout"/>
                        </use>
                        <path d="M-4,0h8" fill="none" stroke="white" stroke-width="1.5" pointer-events="none"/>
                </g>
                <g id="dirArrow">
                        <path fill="none" stroke="white" stroke-width="1.5" d="M0,-3.0v7 M-2.5,-0.5L0,-3.0L2.5,-0.5"/>
                </g>
               <g id="resetDef">
                       <use xlink:href="#rim2" fill="#404040">
                               <set attributeName="fill" to="#808080" begin="reset.mouseover" end="reset.mouseout"/>
                       </use>
               </g>
        </defs>

<script type="text/javascript">
var viewWidth = 1922;
var viewHeight = 386;
var sectionId = 'dynsection-0';
</script>
<script xlink:href="svgpan.js"/>
<svg id="graph" class="graph">
<g id="viewport">
<title>src/visualization/utils/Iovs_Utils.h</title>
<polygon fill="white" stroke="transparent" points="-4,4 -4,-382 1918,-382 1918,4 -4,4"/>
<!-- Node1 -->
<g id="node1" class="node">
<title>Node1</title>
<g id="a_node1"><a xlink:title=" ">
<polygon fill="#bfbfbf" stroke="black" points="58,-347.5 58,-377.5 166,-377.5 166,-347.5 58,-347.5"/>
<text text-anchor="start" x="66" y="-365.5" font-family="Helvetica,sans-Serif" font-size="10.00">src/visualization/utils</text>
<text text-anchor="middle" x="112" y="-354.5" font-family="Helvetica,sans-Serif" font-size="10.00">/Iovs_Utils.h</text>
</a>
</g>
</g>
<!-- Node2 -->
<g id="node2" class="node">
<title>Node2</title>
<g id="a_node2"><a xlink:href="CatalystManagerBase_8h.html" target="_top" xlink:title=" ">
<polygon fill="white" stroke="black" points="221,-123.5 221,-142.5 343,-142.5 343,-123.5 221,-123.5"/>
<text text-anchor="middle" x="282" y="-130.5" font-family="Helvetica,sans-Serif" font-size="10.00">CatalystManagerBase.h</text>
</a>
</g>
</g>
<!-- Node1&#45;&gt;Node2 -->
<g id="edge1" class="edge">
<title>Node1&#45;&gt;Node2</title>
<path fill="none" stroke="midnightblue" d="M88.34,-347.33C69.5,-334.06 47.71,-313.03 57,-291 90.56,-211.47 189.36,-165.86 244.21,-146"/>
<polygon fill="midnightblue" stroke="midnightblue" points="245.64,-149.21 253.92,-142.59 243.32,-142.61 245.64,-149.21"/>
</g>
<!-- Node4 -->
<g id="node4" class="node">
<title>Node4</title>
<g id="a_node4"><a xlink:title=" ">
<polygon fill="white" stroke="#bfbfbf" points="398.5,-0.5 398.5,-19.5 439.5,-19.5 439.5,-0.5 398.5,-0.5"/>
<text text-anchor="middle" x="419" y="-7.5" font-family="Helvetica,sans-Serif" font-size="10.00">string</text>
</a>
</g>
</g>
<!-- Node1&#45;&gt;Node4 -->
<g id="edge75" class="edge">
<title>Node1&#45;&gt;Node4</title>
<path fill="none" stroke="midnightblue" d="M82.87,-347.39C49.68,-329.04 0,-293.62 0,-246 0,-246 0,-246 0,-132 0,-51.17 291.42,-21 388.19,-13.21"/>
<polygon fill="midnightblue" stroke="midnightblue" points="388.52,-16.7 398.22,-12.43 387.98,-9.72 388.52,-16.7"/>
</g>
<!-- Node8 -->
<g id="node8" class="node">
<title>Node8</title>
<g id="a_node8"><a xlink:href="Ioss__DBUsage_8h.html" target="_top" xlink:title=" ">
<polygon fill="white" stroke="black" points="66,-291.5 66,-310.5 158,-310.5 158,-291.5 66,-291.5"/>
<text text-anchor="middle" x="112" y="-298.5" font-family="Helvetica,sans-Serif" font-size="10.00">Ioss_DBUsage.h</text>
</a>
</g>
</g>
<!-- Node1&#45;&gt;Node8 -->
<g id="edge11" class="edge">
<title>Node1&#45;&gt;Node8</title>
<path fill="none" stroke="midnightblue" d="M112,-347.4C112,-339.47 112,-329.46 112,-320.86"/>
<polygon fill="midnightblue" stroke="midnightblue" points="115.5,-320.66 112,-310.66 108.5,-320.66 115.5,-320.66"/>
</g>
<!-- Node9 -->
<g id="node9" class="node">
<title>Node9</title>
<g id="a_node9"><a xlink:href="Ioss__ParallelUtils_8h.html" target="_top" xlink:title=" ">
<polygon fill="white" stroke="black" points="1073.5,-291.5 1073.5,-310.5 1174.5,-310.5 1174.5,-291.5 1073.5,-291.5"/>
<text text-anchor="middle" x="1124" y="-298.5" font-family="Helvetica,sans-Serif" font-size="10.00">Ioss_ParallelUtils.h</text>
</a>
</g>
</g>
<!-- Node1&#45;&gt;Node9 -->
<g id="edge12" class="edge">
<title>Node1&#45;&gt;Node9</title>
<path fill="none" stroke="midnightblue" d="M166.05,-358.32C339.32,-348.13 880.24,-316.33 1062.98,-305.59"/>
<polygon fill="midnightblue" stroke="midnightblue" points="1063.44,-309.07 1073.21,-304.99 1063.02,-302.08 1063.44,-309.07"/>
</g>
<!-- Node36 -->
<g id="node36" class="node">
<title>Node36</title>
<g id="a_node36"><a xlink:href="Ioss__PropertyManager_8h.html" target="_top" xlink:title=" ">
<polygon fill="white" stroke="black" points="627,-123.5 627,-142.5 749,-142.5 749,-123.5 627,-123.5"/>
<text text-anchor="middle" x="688" y="-130.5" font-family="Helvetica,sans-Serif" font-size="10.00">Ioss_PropertyManager.h</text>
</a>
</g>
</g>
<!-- Node1&#45;&gt;Node36 -->
<g id="edge68" class="edge">
<title>Node1&#45;&gt;Node36</title>
<path fill="none" stroke="midnightblue" d="M132.14,-347.47C143.87,-338.33 158.06,-325.44 167,-311 199.13,-259.09 157.98,-217.94 205,-179 235.98,-153.34 489.79,-140.92 616.54,-136.26"/>
<polygon fill="midnightblue" stroke="midnightblue" points="616.68,-139.76 626.55,-135.9 616.43,-132.77 616.68,-139.76"/>
</g>
<!-- Node3 -->
<g id="node3" class="node">
<title>Node3</title>
<g id="a_node3"><a xlink:href="CatalystCGNSMeshBase_8h.html" target="_top" xlink:title=" ">
<polygon fill="white" stroke="black" points="269,-56.5 269,-86.5 409,-86.5 409,-56.5 269,-56.5"/>
<text text-anchor="start" x="277" y="-74.5" font-family="Helvetica,sans-Serif" font-size="10.00">visualization/cgns</text>
<text text-anchor="middle" x="339" y="-63.5" font-family="Helvetica,sans-Serif" font-size="10.00">/CatalystCGNSMeshBase.h</text>
</a>
</g>
</g>
<!-- Node2&#45;&gt;Node3 -->
<g id="edge2" class="edge">
<title>Node2&#45;&gt;Node3</title>
<path fill="none" stroke="midnightblue" d="M290.17,-123.48C297.53,-115.79 308.66,-104.17 318.44,-93.96"/>
<polygon fill="midnightblue" stroke="midnightblue" points="321.18,-96.17 325.57,-86.52 316.12,-91.32 321.18,-96.17"/>
</g>
<!-- Node2&#45;&gt;Node4 -->
<g id="edge9" class="edge">
<title>Node2&#45;&gt;Node4</title>
<path fill="none" stroke="midnightblue" d="M243.15,-123.36C223.62,-116.85 201.67,-105.7 190,-87 182.71,-75.31 181.25,-66.64 190,-56 214.79,-25.87 331.88,-15.61 388.37,-12.37"/>
<polygon fill="midnightblue" stroke="midnightblue" points="388.7,-15.86 398.5,-11.83 388.32,-8.87 388.7,-15.86"/>
</g>
<!-- Node5 -->
<g id="node5" class="node">
<title>Node5</title>
<g id="a_node5"><a xlink:title=" ">
<polygon fill="white" stroke="#bfbfbf" points="1022,-0.5 1022,-19.5 1066,-19.5 1066,-0.5 1022,-0.5"/>
<text text-anchor="middle" x="1044" y="-7.5" font-family="Helvetica,sans-Serif" font-size="10.00">vector</text>
</a>
</g>
</g>
<!-- Node2&#45;&gt;Node5 -->
<g id="edge10" class="edge">
<title>Node2&#45;&gt;Node5</title>
<path fill="none" stroke="midnightblue" d="M343.1,-127.05C403.96,-121.13 499.66,-109.11 580,-87 615.17,-77.32 620.67,-65.07 656,-56 784.79,-22.93 943.92,-14.12 1011.35,-11.81"/>
<polygon fill="midnightblue" stroke="midnightblue" points="1011.86,-15.29 1021.74,-11.48 1011.63,-8.3 1011.86,-15.29"/>
</g>
<!-- Node6 -->
<g id="node6" class="node">
<title>Node6</title>
<g id="a_node6"><a xlink:href="CatalystExodusMeshBase_8h.html" target="_top" xlink:title=" ">
<polygon fill="white" stroke="black" points="427,-56.5 427,-86.5 571,-86.5 571,-56.5 427,-56.5"/>
<text text-anchor="start" x="435" y="-74.5" font-family="Helvetica,sans-Serif" font-size="10.00">visualization/exodus</text>
<text text-anchor="middle" x="499" y="-63.5" font-family="Helvetica,sans-Serif" font-size="10.00">/CatalystExodusMeshBase.h</text>
</a>
</g>
</g>
<!-- Node2&#45;&gt;Node6 -->
<g id="edge5" class="edge">
<title>Node2&#45;&gt;Node6</title>
<path fill="none" stroke="midnightblue" d="M313.09,-123.48C345.57,-114.57 397.36,-100.37 438.04,-89.22"/>
<polygon fill="midnightblue" stroke="midnightblue" points="439.14,-92.54 447.86,-86.52 437.29,-85.79 439.14,-92.54"/>
</g>
<!-- Node7 -->
<g id="node7" class="node">
<title>Node7</title>
<g id="a_node7"><a xlink:title=" ">
<polygon fill="white" stroke="#bfbfbf" points="199,-62 199,-81 251,-81 251,-62 199,-62"/>
<text text-anchor="middle" x="225" y="-69" font-family="Helvetica,sans-Serif" font-size="10.00">memory</text>
</a>
</g>
</g>
<!-- Node2&#45;&gt;Node7 -->
<g id="edge8" class="edge">
<title>Node2&#45;&gt;Node7</title>
<path fill="none" stroke="midnightblue" d="M273.83,-123.48C265.11,-114.37 251.1,-99.74 240.31,-88.48"/>
<polygon fill="midnightblue" stroke="midnightblue" points="242.6,-85.81 233.15,-81.01 237.54,-90.65 242.6,-85.81"/>
</g>
<!-- Node3&#45;&gt;Node4 -->
<g id="edge3" class="edge">
<title>Node3&#45;&gt;Node4</title>
<path fill="none" stroke="midnightblue" d="M357.96,-56.4C370.42,-47.13 386.7,-35.03 399.31,-25.65"/>
<polygon fill="midnightblue" stroke="midnightblue" points="401.42,-28.43 407.36,-19.66 397.25,-22.82 401.42,-28.43"/>
</g>
<!-- Node3&#45;&gt;Node5 -->
<g id="edge4" class="edge">
<title>Node3&#45;&gt;Node5</title>
<path fill="none" stroke="midnightblue" d="M409.15,-57.21C412.14,-56.78 415.1,-56.37 418,-56 644.14,-27.21 918.76,-15.42 1011.58,-12.07"/>
<polygon fill="midnightblue" stroke="midnightblue" points="1011.86,-15.57 1021.73,-11.72 1011.62,-8.57 1011.86,-15.57"/>
</g>
<!-- Node6&#45;&gt;Node4 -->
<g id="edge6" class="edge">
<title>Node6&#45;&gt;Node4</title>
<path fill="none" stroke="midnightblue" d="M480.04,-56.4C467.58,-47.13 451.3,-35.03 438.69,-25.65"/>
<polygon fill="midnightblue" stroke="midnightblue" points="440.75,-22.82 430.64,-19.66 436.58,-28.43 440.75,-22.82"/>
</g>
<!-- Node6&#45;&gt;Node5 -->
<g id="edge7" class="edge">
<title>Node6&#45;&gt;Node5</title>
<path fill="none" stroke="midnightblue" d="M571.11,-61.95C588.12,-59.96 606.2,-57.88 623,-56 767.87,-39.79 940.94,-21.69 1011.58,-14.35"/>
<polygon fill="midnightblue" stroke="midnightblue" points="1012.04,-17.83 1021.63,-13.31 1011.32,-10.86 1012.04,-17.83"/>
</g>
<!-- Node9&#45;&gt;Node4 -->
<g id="edge66" class="edge">
<title>Node9&#45;&gt;Node4</title>
<path fill="none" stroke="midnightblue" d="M1073.43,-299.87C903.22,-298.61 353.52,-287.62 205,-199 146.25,-163.94 103.76,-108.19 148,-56 178.46,-20.06 323.32,-12.79 387.85,-11.35"/>
<polygon fill="midnightblue" stroke="midnightblue" points="388.28,-14.84 398.21,-11.15 388.14,-7.84 388.28,-14.84"/>
</g>
<!-- Node9&#45;&gt;Node5 -->
<g id="edge67" class="edge">
<title>Node9&#45;&gt;Node5</title>
<path fill="none" stroke="midnightblue" d="M1157.76,-291.47C1261.9,-263.66 1565.13,-170.82 1462,-56 1449.1,-41.64 1172.03,-20.28 1076.24,-13.3"/>
<polygon fill="midnightblue" stroke="midnightblue" points="1076.48,-9.81 1066.25,-12.57 1075.97,-16.79 1076.48,-9.81"/>
</g>
<!-- Node10 -->
<g id="node10" class="node">
<title>Node10</title>
<g id="a_node10"><a xlink:href="Ioss__CodeTypes_8h.html" target="_top" xlink:title=" ">
<polygon fill="white" stroke="black" points="1355,-62 1355,-81 1453,-81 1453,-62 1355,-62"/>
<text text-anchor="middle" x="1404" y="-69" font-family="Helvetica,sans-Serif" font-size="10.00">Ioss_CodeTypes.h</text>
</a>
</g>
</g>
<!-- Node9&#45;&gt;Node10 -->
<g id="edge13" class="edge">
<title>Node9&#45;&gt;Node10</title>
<path fill="none" stroke="midnightblue" d="M1147.67,-291.47C1188.44,-276.22 1273.73,-241.83 1338,-199 1368.9,-178.41 1383.97,-176.49 1400,-143 1407.76,-126.79 1407.94,-106.02 1406.68,-91.23"/>
<polygon fill="midnightblue" stroke="midnightblue" points="1410.16,-90.8 1405.54,-81.26 1403.2,-91.6 1410.16,-90.8"/>
</g>
<!-- Node12 -->
<g id="node12" class="node">
<title>Node12</title>
<g id="a_node12"><a xlink:title=" ">
<polygon fill="white" stroke="#bfbfbf" points="1589.5,-0.5 1589.5,-19.5 1638.5,-19.5 1638.5,-0.5 1589.5,-0.5"/>
<text text-anchor="middle" x="1614" y="-7.5" font-family="Helvetica,sans-Serif" font-size="10.00">cstddef</text>
</a>
</g>
</g>
<!-- Node9&#45;&gt;Node12 -->
<g id="edge65" class="edge">
<title>Node9&#45;&gt;Node12</title>
<path fill="none" stroke="midnightblue" d="M1174.64,-295.81C1316.75,-283.38 1709,-244.16 1709,-190 1709,-190 1709,-190 1709,-132 1709,-85.25 1664.58,-45.86 1636.49,-25.62"/>
<polygon fill="midnightblue" stroke="midnightblue" points="1638.23,-22.57 1628.02,-19.74 1634.23,-28.32 1638.23,-22.57"/>
</g>
<!-- Node16 -->
<g id="node16" class="node">
<title>Node16</title>
<g id="a_node16"><a xlink:href="Ioss__Utils_8h.html" target="_top" xlink:title=" ">
<polygon fill="white" stroke="black" points="1089.5,-235.5 1089.5,-254.5 1158.5,-254.5 1158.5,-235.5 1089.5,-235.5"/>
<text text-anchor="middle" x="1124" y="-242.5" font-family="Helvetica,sans-Serif" font-size="10.00">Ioss_Utils.h</text>
</a>
</g>
</g>
<!-- Node9&#45;&gt;Node16 -->
<g id="edge21" class="edge">
<title>Node9&#45;&gt;Node16</title>
<path fill="none" stroke="midnightblue" d="M1124,-291.08C1124,-284.01 1124,-273.86 1124,-264.99"/>
<polygon fill="midnightblue" stroke="midnightblue" points="1127.5,-264.75 1124,-254.75 1120.5,-264.75 1127.5,-264.75"/>
</g>
<!-- Node31 -->
<g id="node31" class="node">
<title>Node31</title>
<g id="a_node31"><a xlink:title=" ">
<polygon fill="white" stroke="#bfbfbf" points="214.5,-179.5 214.5,-198.5 263.5,-198.5 263.5,-179.5 214.5,-179.5"/>
<text text-anchor="middle" x="239" y="-186.5" font-family="Helvetica,sans-Serif" font-size="10.00">cassert</text>
</a>
</g>
</g>
<!-- Node9&#45;&gt;Node31 -->
<g id="edge64" class="edge">
<title>Node9&#45;&gt;Node31</title>
<path fill="none" stroke="midnightblue" d="M1073.18,-295.86C941.29,-284.7 577.44,-251.27 278,-199 276.55,-198.75 275.06,-198.47 273.57,-198.18"/>
<polygon fill="midnightblue" stroke="midnightblue" points="274.18,-194.74 263.68,-196.12 272.75,-201.59 274.18,-194.74"/>
</g>
<!-- Node10&#45;&gt;Node4 -->
<g id="edge17" class="edge">
<title>Node10&#45;&gt;Node4</title>
<path fill="none" stroke="midnightblue" d="M1354.84,-64.76C1328.27,-61.81 1294.87,-58.35 1265,-56 946.78,-30.96 560.1,-16.03 449.73,-12.07"/>
<polygon fill="midnightblue" stroke="midnightblue" points="449.76,-8.57 439.64,-11.71 449.51,-15.56 449.76,-8.57"/>
</g>
<!-- Node10&#45;&gt;Node5 -->
<g id="edge18" class="edge">
<title>Node10&#45;&gt;Node5</title>
<path fill="none" stroke="midnightblue" d="M1354.7,-62.35C1279.88,-49.99 1139.7,-26.82 1076.44,-16.36"/>
<polygon fill="midnightblue" stroke="midnightblue" points="1076.7,-12.86 1066.26,-14.68 1075.56,-19.76 1076.7,-12.86"/>
</g>
<!-- Node11 -->
<g id="node11" class="node">
<title>Node11</title>
<g id="a_node11"><a xlink:title=" ">
<polygon fill="white" stroke="#bfbfbf" points="1481,-0.5 1481,-19.5 1519,-19.5 1519,-0.5 1481,-0.5"/>
<text text-anchor="middle" x="1500" y="-7.5" font-family="Helvetica,sans-Serif" font-size="10.00">array</text>
</a>
</g>
</g>
<!-- Node10&#45;&gt;Node11 -->
<g id="edge14" class="edge">
<title>Node10&#45;&gt;Node11</title>
<path fill="none" stroke="midnightblue" d="M1417.75,-61.98C1433.37,-52.3 1459.06,-36.37 1477.58,-24.89"/>
<polygon fill="midnightblue" stroke="midnightblue" points="1479.62,-27.75 1486.27,-19.51 1475.93,-21.8 1479.62,-27.75"/>
</g>
<!-- Node10&#45;&gt;Node12 -->
<g id="edge15" class="edge">
<title>Node10&#45;&gt;Node12</title>
<path fill="none" stroke="midnightblue" d="M1434.09,-61.98C1472.56,-51.07 1539.04,-32.24 1579.52,-20.77"/>
<polygon fill="midnightblue" stroke="midnightblue" points="1580.55,-24.12 1589.22,-18.02 1578.64,-17.38 1580.55,-24.12"/>
</g>
<!-- Node13 -->
<g id="node13" class="node">
<title>Node13</title>
<g id="a_node13"><a xlink:title=" ">
<polygon fill="white" stroke="#bfbfbf" points="1211,-0.5 1211,-19.5 1257,-19.5 1257,-0.5 1211,-0.5"/>
<text text-anchor="middle" x="1234" y="-7.5" font-family="Helvetica,sans-Serif" font-size="10.00">cstdint</text>
</a>
</g>
</g>
<!-- Node10&#45;&gt;Node13 -->
<g id="edge16" class="edge">
<title>Node10&#45;&gt;Node13</title>
<path fill="none" stroke="midnightblue" d="M1379.64,-61.98C1350.02,-51.61 1299.9,-34.07 1266.88,-22.51"/>
<polygon fill="midnightblue" stroke="midnightblue" points="1267.82,-19.13 1257.22,-19.13 1265.5,-25.73 1267.82,-19.13"/>
</g>
<!-- Node14 -->
<g id="node14" class="node">
<title>Node14</title>
<g id="a_node14"><a xlink:title=" ">
<polygon fill="white" stroke="#bfbfbf" points="1275,-0.5 1275,-19.5 1391,-19.5 1391,-0.5 1275,-0.5"/>
<text text-anchor="middle" x="1333" y="-7.5" font-family="Helvetica,sans-Serif" font-size="10.00">SEACASIoss_config.h</text>
</a>
</g>
</g>
<!-- Node10&#45;&gt;Node14 -->
<g id="edge19" class="edge">
<title>Node10&#45;&gt;Node14</title>
<path fill="none" stroke="midnightblue" d="M1393.83,-61.98C1382.65,-52.61 1364.48,-37.38 1350.91,-26.01"/>
<polygon fill="midnightblue" stroke="midnightblue" points="1353.07,-23.25 1343.15,-19.51 1348.57,-28.61 1353.07,-23.25"/>
</g>
<!-- Node15 -->
<g id="node15" class="node">
<title>Node15</title>
<g id="a_node15"><a xlink:title=" ">
<polygon fill="white" stroke="#bfbfbf" points="1409.5,-0.5 1409.5,-19.5 1462.5,-19.5 1462.5,-0.5 1409.5,-0.5"/>
<text text-anchor="middle" x="1436" y="-7.5" font-family="Helvetica,sans-Serif" font-size="10.00">complex</text>
</a>
</g>
</g>
<!-- Node10&#45;&gt;Node15 -->
<g id="edge20" class="edge">
<title>Node10&#45;&gt;Node15</title>
<path fill="none" stroke="midnightblue" d="M1408.58,-61.98C1413.24,-53.32 1420.59,-39.65 1426.51,-28.65"/>
<polygon fill="midnightblue" stroke="midnightblue" points="1429.77,-29.97 1431.42,-19.51 1423.6,-26.66 1429.77,-29.97"/>
</g>
<!-- Node16&#45;&gt;Node4 -->
<g id="edge62" class="edge">
<title>Node16&#45;&gt;Node4</title>
<path fill="none" stroke="midnightblue" d="M1089.37,-242.49C928.01,-235.19 254.71,-201.39 183,-143 152.38,-118.07 139.63,-86.26 165,-56 193.16,-22.41 326.76,-13.88 388.09,-11.72"/>
<polygon fill="midnightblue" stroke="midnightblue" points="388.43,-15.21 398.32,-11.4 388.21,-8.22 388.43,-15.21"/>
</g>
<!-- Node16&#45;&gt;Node5 -->
<g id="edge63" class="edge">
<title>Node16&#45;&gt;Node5</title>
<path fill="none" stroke="midnightblue" d="M1148.47,-235.44C1164.57,-228.38 1184.38,-216.63 1194,-199 1224.81,-142.56 1216.99,-101.94 1172,-56 1146.46,-29.92 1104.93,-18.93 1076.14,-14.31"/>
<polygon fill="midnightblue" stroke="midnightblue" points="1076.55,-10.83 1066.16,-12.88 1075.56,-17.76 1076.55,-10.83"/>
</g>
<!-- Node16&#45;&gt;Node10 -->
<g id="edge22" class="edge">
<title>Node16&#45;&gt;Node10</title>
<path fill="none" stroke="midnightblue" d="M1158.72,-241.16C1215.06,-234.55 1325.65,-212.91 1381,-143 1392.85,-128.04 1398.68,-106.77 1401.5,-91.51"/>
<polygon fill="midnightblue" stroke="midnightblue" points="1405.02,-91.64 1403.12,-81.22 1398.11,-90.56 1405.02,-91.64"/>
</g>
<!-- Node16&#45;&gt;Node12 -->
<g id="edge57" class="edge">
<title>Node16&#45;&gt;Node12</title>
<path fill="none" stroke="midnightblue" d="M1158.51,-240.76C1239.64,-231.43 1444.83,-197.64 1567,-87 1585.09,-70.61 1598.7,-45.66 1606.5,-28.86"/>
<polygon fill="midnightblue" stroke="midnightblue" points="1609.75,-30.17 1610.6,-19.6 1603.35,-27.33 1609.75,-30.17"/>
</g>
<!-- Node16&#45;&gt;Node13 -->
<g id="edge58" class="edge">
<title>Node16&#45;&gt;Node13</title>
<path fill="none" stroke="midnightblue" d="M1155.26,-235.43C1174.4,-228.6 1197.85,-217.12 1212,-199 1251.24,-148.76 1243.64,-66.7 1237.66,-29.9"/>
<polygon fill="midnightblue" stroke="midnightblue" points="1241.03,-28.87 1235.83,-19.64 1234.14,-30.1 1241.03,-28.87"/>
</g>
<!-- Node17 -->
<g id="node17" class="node">
<title>Node17</title>
<g id="a_node17"><a xlink:href="Ioss__ElementTopology_8h.html" target="_top" xlink:title=" ">
<polygon fill="white" stroke="black" points="1063,-179.5 1063,-198.5 1185,-198.5 1185,-179.5 1063,-179.5"/>
<text text-anchor="middle" x="1124" y="-186.5" font-family="Helvetica,sans-Serif" font-size="10.00">Ioss_ElementTopology.h</text>
</a>
</g>
</g>
<!-- Node16&#45;&gt;Node17 -->
<g id="edge23" class="edge">
<title>Node16&#45;&gt;Node17</title>
<path fill="none" stroke="midnightblue" d="M1124,-235.08C1124,-228.01 1124,-217.86 1124,-208.99"/>
<polygon fill="midnightblue" stroke="midnightblue" points="1127.5,-208.75 1124,-198.75 1120.5,-208.75 1127.5,-208.75"/>
</g>
<!-- Node23 -->
<g id="node23" class="node">
<title>Node23</title>
<g id="a_node23"><a xlink:href="Ioss__Field_8h.html" target="_top" xlink:title=" ">
<polygon fill="white" stroke="black" points="1279,-123.5 1279,-142.5 1349,-142.5 1349,-123.5 1279,-123.5"/>
<text text-anchor="middle" x="1314" y="-130.5" font-family="Helvetica,sans-Serif" font-size="10.00">Ioss_Field.h</text>
</a>
</g>
</g>
<!-- Node16&#45;&gt;Node23 -->
<g id="edge36" class="edge">
<title>Node16&#45;&gt;Node23</title>
<path fill="none" stroke="midnightblue" d="M1158.53,-239.05C1188.83,-233.37 1232.93,-221.74 1265,-199 1282.42,-186.65 1296.35,-166.23 1304.84,-151.57"/>
<polygon fill="midnightblue" stroke="midnightblue" points="1308.07,-152.96 1309.82,-142.51 1301.93,-149.58 1308.07,-152.96"/>
</g>
<!-- Node24 -->
<g id="node24" class="node">
<title>Node24</title>
<g id="a_node24"><a xlink:href="Ioss__Property_8h.html" target="_top" xlink:title=" ">
<polygon fill="white" stroke="black" points="805,-62 805,-81 889,-81 889,-62 805,-62"/>
<text text-anchor="middle" x="847" y="-69" font-family="Helvetica,sans-Serif" font-size="10.00">Ioss_Property.h</text>
</a>
</g>
</g>
<!-- Node16&#45;&gt;Node24 -->
<g id="edge41" class="edge">
<title>Node16&#45;&gt;Node24</title>
<path fill="none" stroke="midnightblue" d="M1089.5,-242.06C1006,-237 798.39,-222.21 778,-199 747.22,-163.95 797.89,-112.85 827.68,-87.67"/>
<polygon fill="midnightblue" stroke="midnightblue" points="829.94,-90.34 835.45,-81.29 825.5,-84.93 829.94,-90.34"/>
</g>
<!-- Node25 -->
<g id="node25" class="node">
<title>Node25</title>
<g id="a_node25"><a xlink:href="Ioss__Sort_8h.html" target="_top" xlink:title=" ">
<polygon fill="white" stroke="black" points="1599.5,-123.5 1599.5,-142.5 1666.5,-142.5 1666.5,-123.5 1599.5,-123.5"/>
<text text-anchor="middle" x="1633" y="-130.5" font-family="Helvetica,sans-Serif" font-size="10.00">Ioss_Sort.h</text>
</a>
</g>
</g>
<!-- Node16&#45;&gt;Node25 -->
<g id="edge45" class="edge">
<title>Node16&#45;&gt;Node25</title>
<path fill="none" stroke="midnightblue" d="M1158.72,-243.94C1226.69,-242.95 1381.48,-236.36 1505,-199 1544.56,-187.04 1586.57,-163.3 1611.26,-148.06"/>
<polygon fill="midnightblue" stroke="midnightblue" points="1613.23,-150.96 1619.84,-142.68 1609.51,-145.03 1613.23,-150.96"/>
</g>
<!-- Node27 -->
<g id="node27" class="node">
<title>Node27</title>
<g id="a_node27"><a xlink:title=" ">
<polygon fill="white" stroke="#bfbfbf" points="1858,-0.5 1858,-19.5 1914,-19.5 1914,-0.5 1858,-0.5"/>
<text text-anchor="middle" x="1886" y="-7.5" font-family="Helvetica,sans-Serif" font-size="10.00">algorithm</text>
</a>
</g>
</g>
<!-- Node16&#45;&gt;Node27 -->
<g id="edge54" class="edge">
<title>Node16&#45;&gt;Node27</title>
<path fill="none" stroke="midnightblue" d="M1158.73,-243.62C1231.15,-242.11 1403.09,-234.7 1542,-199 1604.52,-182.93 1616.65,-168.38 1676,-143 1733.09,-118.58 1752.06,-121.03 1804,-87 1830.27,-69.79 1856.09,-43.98 1871.53,-27.31"/>
<polygon fill="midnightblue" stroke="midnightblue" points="1874.48,-29.27 1878.61,-19.52 1869.3,-24.57 1874.48,-29.27"/>
</g>
<!-- Node16&#45;&gt;Node31 -->
<g id="edge55" class="edge">
<title>Node16&#45;&gt;Node31</title>
<path fill="none" stroke="midnightblue" d="M1089.14,-244.31C973.23,-244.86 590.41,-243.02 278,-199 276.54,-198.79 275.05,-198.56 273.55,-198.3"/>
<polygon fill="midnightblue" stroke="midnightblue" points="274.12,-194.85 263.64,-196.37 272.78,-201.72 274.12,-194.85"/>
</g>
<!-- Node32 -->
<g id="node32" class="node">
<title>Node32</title>
<g id="a_node32"><a xlink:title=" ">
<polygon fill="white" stroke="#bfbfbf" points="787,-179.5 787,-198.5 831,-198.5 831,-179.5 787,-179.5"/>
<text text-anchor="middle" x="809" y="-186.5" font-family="Helvetica,sans-Serif" font-size="10.00">cmath</text>
</a>
</g>
</g>
<!-- Node16&#45;&gt;Node32 -->
<g id="edge56" class="edge">
<title>Node16&#45;&gt;Node32</title>
<path fill="none" stroke="midnightblue" d="M1089.2,-239.92C1037.23,-233.51 936.13,-219.84 841.31,-199.06"/>
<polygon fill="midnightblue" stroke="midnightblue" points="841.79,-195.58 831.26,-196.83 840.27,-202.41 841.79,-195.58"/>
</g>
<!-- Node33 -->
<g id="node33" class="node">
<title>Node33</title>
<g id="a_node33"><a xlink:title=" ">
<polygon fill="white" stroke="#bfbfbf" points="849.5,-179.5 849.5,-198.5 894.5,-198.5 894.5,-179.5 849.5,-179.5"/>
<text text-anchor="middle" x="872" y="-186.5" font-family="Helvetica,sans-Serif" font-size="10.00">cstdlib</text>
</a>
</g>
</g>
<!-- Node16&#45;&gt;Node33 -->
<g id="edge59" class="edge">
<title>Node16&#45;&gt;Node33</title>
<path fill="none" stroke="midnightblue" d="M1089.15,-237.68C1047.58,-229.96 975.8,-216.08 904.7,-199.02"/>
<polygon fill="midnightblue" stroke="midnightblue" points="905.22,-195.55 894.67,-196.6 903.57,-202.35 905.22,-195.55"/>
</g>
<!-- Node34 -->
<g id="node34" class="node">
<title>Node34</title>
<g id="a_node34"><a xlink:title=" ">
<polygon fill="white" stroke="#bfbfbf" points="913,-179.5 913,-198.5 967,-198.5 967,-179.5 913,-179.5"/>
<text text-anchor="middle" x="940" y="-186.5" font-family="Helvetica,sans-Serif" font-size="10.00">iostream</text>
</a>
</g>
</g>
<!-- Node16&#45;&gt;Node34 -->
<g id="edge60" class="edge">
<title>Node16&#45;&gt;Node34</title>
<path fill="none" stroke="midnightblue" d="M1094.84,-235.44C1062.93,-226.08 1011.7,-211.04 976.98,-200.85"/>
<polygon fill="midnightblue" stroke="midnightblue" points="977.8,-197.45 967.22,-197.99 975.83,-204.16 977.8,-197.45"/>
</g>
<!-- Node35 -->
<g id="node35" class="node">
<title>Node35</title>
<g id="a_node35"><a xlink:title=" ">
<polygon fill="white" stroke="#bfbfbf" points="985.5,-179.5 985.5,-198.5 1044.5,-198.5 1044.5,-179.5 985.5,-179.5"/>
<text text-anchor="middle" x="1015" y="-186.5" font-family="Helvetica,sans-Serif" font-size="10.00">stdexcept</text>
</a>
</g>
</g>
<!-- Node16&#45;&gt;Node35 -->
<g id="edge61" class="edge">
<title>Node16&#45;&gt;Node35</title>
<path fill="none" stroke="midnightblue" d="M1106.49,-235.32C1088.93,-226.62 1061.67,-213.12 1041.47,-203.11"/>
<polygon fill="midnightblue" stroke="midnightblue" points="1042.98,-199.96 1032.47,-198.65 1039.88,-206.23 1042.98,-199.96"/>
</g>
<!-- Node17&#45;&gt;Node4 -->
<g id="edge34" class="edge">
<title>Node17&#45;&gt;Node4</title>
<path fill="none" stroke="midnightblue" d="M1062.84,-179.92C1059.52,-179.58 1056.22,-179.27 1053,-179 959.8,-171.11 291.87,-191.66 212,-143 176.82,-121.56 153.7,-87.71 180,-56 206.13,-24.49 329.83,-14.89 388.27,-12.1"/>
<polygon fill="midnightblue" stroke="midnightblue" points="388.55,-15.59 398.39,-11.65 388.24,-8.59 388.55,-15.59"/>
</g>
<!-- Node17&#45;&gt;Node5 -->
<g id="edge35" class="edge">
<title>Node17&#45;&gt;Node5</title>
<path fill="none" stroke="midnightblue" d="M1079.52,-179.43C1033.03,-167.71 963.14,-141.57 936,-87 929.86,-74.66 928.36,-67.46 936,-56 952.74,-30.9 986.41,-19.77 1011.73,-14.86"/>
<polygon fill="midnightblue" stroke="midnightblue" points="1012.39,-18.3 1021.66,-13.16 1011.21,-11.4 1012.39,-18.3"/>
</g>
<!-- Node17&#45;&gt;Node10 -->
<g id="edge24" class="edge">
<title>Node17&#45;&gt;Node10</title>
<path fill="none" stroke="midnightblue" d="M1185.06,-181.71C1244.66,-174.62 1330.31,-161.59 1358,-143 1376.91,-130.3 1389.85,-106.93 1397.07,-90.59"/>
<polygon fill="midnightblue" stroke="midnightblue" points="1400.43,-91.63 1401,-81.05 1393.96,-88.97 1400.43,-91.63"/>
</g>
<!-- Node18 -->
<g id="node18" class="node">
<title>Node18</title>
<g id="a_node18"><a xlink:href="Ioss__ElementPermutation_8h.html" target="_top" xlink:title=" ">
<polygon fill="white" stroke="black" points="1047.5,-123.5 1047.5,-142.5 1184.5,-142.5 1184.5,-123.5 1047.5,-123.5"/>
<text text-anchor="middle" x="1116" y="-130.5" font-family="Helvetica,sans-Serif" font-size="10.00">Ioss_ElementPermutation.h</text>
</a>
</g>
</g>
<!-- Node17&#45;&gt;Node18 -->
<g id="edge25" class="edge">
<title>Node17&#45;&gt;Node18</title>
<path fill="none" stroke="midnightblue" d="M1122.68,-179.08C1121.62,-171.93 1120.09,-161.64 1118.77,-152.69"/>
<polygon fill="midnightblue" stroke="midnightblue" points="1122.22,-152.13 1117.3,-142.75 1115.3,-153.16 1122.22,-152.13"/>
</g>
<!-- Node21 -->
<g id="node21" class="node">
<title>Node21</title>
<g id="a_node21"><a xlink:title=" ">
<polygon fill="white" stroke="#bfbfbf" points="945.5,-62 945.5,-81 980.5,-81 980.5,-62 945.5,-62"/>
<text text-anchor="middle" x="963" y="-69" font-family="Helvetica,sans-Serif" font-size="10.00">map</text>
</a>
</g>
</g>
<!-- Node17&#45;&gt;Node21 -->
<g id="edge32" class="edge">
<title>Node17&#45;&gt;Node21</title>
<path fill="none" stroke="midnightblue" d="M1103.99,-179.42C1085.97,-171.27 1059.15,-158.04 1038,-143 1015.15,-126.74 992.13,-103.92 977.73,-88.7"/>
<polygon fill="midnightblue" stroke="midnightblue" points="980.05,-86.05 970.68,-81.11 974.93,-90.82 980.05,-86.05"/>
</g>
<!-- Node22 -->
<g id="node22" class="node">
<title>Node22</title>
<g id="a_node22"><a xlink:title=" ">
<polygon fill="white" stroke="#bfbfbf" points="859,-123.5 859,-142.5 889,-142.5 889,-123.5 859,-123.5"/>
<text text-anchor="middle" x="874" y="-130.5" font-family="Helvetica,sans-Serif" font-size="10.00">set</text>
</a>
</g>
</g>
<!-- Node17&#45;&gt;Node22 -->
<g id="edge33" class="edge">
<title>Node17&#45;&gt;Node22</title>
<path fill="none" stroke="midnightblue" d="M1074.96,-179.47C1029.96,-171.3 961.6,-158.02 903,-143 901.74,-142.68 900.45,-142.33 899.15,-141.97"/>
<polygon fill="midnightblue" stroke="midnightblue" points="899.85,-138.53 889.27,-139.05 897.87,-145.24 899.85,-138.53"/>
</g>
<!-- Node18&#45;&gt;Node4 -->
<g id="edge30" class="edge">
<title>Node18&#45;&gt;Node4</title>
<path fill="none" stroke="midnightblue" d="M1096.51,-123.4C1078.26,-115.03 1050.51,-101.49 1028,-87 1009.38,-75.01 1009.6,-64.11 989,-56 889.43,-16.78 553.22,-11.7 449.64,-11.08"/>
<polygon fill="midnightblue" stroke="midnightblue" points="449.55,-7.58 439.54,-11.03 449.52,-14.58 449.55,-7.58"/>
</g>
<!-- Node18&#45;&gt;Node5 -->
<g id="edge31" class="edge">
<title>Node18&#45;&gt;Node5</title>
<path fill="none" stroke="midnightblue" d="M1126.55,-123.45C1143.07,-109.01 1171.61,-79.1 1156,-56 1138.29,-29.79 1102.52,-18.84 1076.15,-14.27"/>
<polygon fill="midnightblue" stroke="midnightblue" points="1076.62,-10.81 1066.21,-12.77 1075.57,-17.73 1076.62,-10.81"/>
</g>
<!-- Node18&#45;&gt;Node10 -->
<g id="edge26" class="edge">
<title>Node18&#45;&gt;Node10</title>
<path fill="none" stroke="midnightblue" d="M1157.26,-123.48C1208.8,-112.83 1296.98,-94.61 1352.79,-83.08"/>
<polygon fill="midnightblue" stroke="midnightblue" points="1353.73,-86.46 1362.81,-81.01 1352.31,-79.6 1353.73,-86.46"/>
</g>
<!-- Node19 -->
<g id="node19" class="node">
<title>Node19</title>
<g id="a_node19"><a xlink:title=" ">
<polygon fill="white" stroke="#bfbfbf" points="1037,-62 1037,-81 1089,-81 1089,-62 1037,-62"/>
<text text-anchor="middle" x="1063" y="-69" font-family="Helvetica,sans-Serif" font-size="10.00">assert.h</text>
</a>
</g>
</g>
<!-- Node18&#45;&gt;Node19 -->
<g id="edge27" class="edge">
<title>Node18&#45;&gt;Node19</title>
<path fill="none" stroke="midnightblue" d="M1108.41,-123.48C1100.3,-114.37 1087.27,-99.74 1077.24,-88.48"/>
<polygon fill="midnightblue" stroke="midnightblue" points="1079.84,-86.15 1070.58,-81.01 1074.62,-90.8 1079.84,-86.15"/>
</g>
<!-- Node20 -->
<g id="node20" class="node">
<title>Node20</title>
<g id="a_node20"><a xlink:title=" ">
<polygon fill="white" stroke="#bfbfbf" points="1107,-62 1107,-81 1147,-81 1147,-62 1107,-62"/>
<text text-anchor="middle" x="1127" y="-69" font-family="Helvetica,sans-Serif" font-size="10.00">limits</text>
</a>
</g>
</g>
<!-- Node18&#45;&gt;Node20 -->
<g id="edge28" class="edge">
<title>Node18&#45;&gt;Node20</title>
<path fill="none" stroke="midnightblue" d="M1117.58,-123.48C1119.13,-115.08 1121.55,-101.98 1123.55,-91.16"/>
<polygon fill="midnightblue" stroke="midnightblue" points="1127.05,-91.48 1125.43,-81.01 1120.17,-90.21 1127.05,-91.48"/>
</g>
<!-- Node18&#45;&gt;Node21 -->
<g id="edge29" class="edge">
<title>Node18&#45;&gt;Node21</title>
<path fill="none" stroke="midnightblue" d="M1091.24,-123.36C1066.65,-114.64 1027.95,-100.57 995,-87 993.37,-86.33 991.7,-85.63 990.03,-84.9"/>
<polygon fill="midnightblue" stroke="midnightblue" points="991.07,-81.54 980.51,-80.7 988.24,-87.94 991.07,-81.54"/>
</g>
<!-- Node23&#45;&gt;Node4 -->
<g id="edge39" class="edge">
<title>Node23&#45;&gt;Node4</title>
<path fill="none" stroke="midnightblue" d="M1300.74,-123.4C1274.42,-106.85 1213.15,-70.88 1156,-56 1019.32,-20.42 571.91,-12.75 449.95,-11.31"/>
<polygon fill="midnightblue" stroke="midnightblue" points="449.85,-7.8 439.81,-11.19 449.77,-14.8 449.85,-7.8"/>
</g>
<!-- Node23&#45;&gt;Node5 -->
<g id="edge40" class="edge">
<title>Node23&#45;&gt;Node5</title>
<path fill="none" stroke="midnightblue" d="M1311.01,-123.31C1305.01,-107.25 1289.89,-73.01 1265,-56 1207.24,-16.53 1122.45,-10.23 1076.5,-10.03"/>
<polygon fill="midnightblue" stroke="midnightblue" points="1076.21,-6.53 1066.23,-10.09 1076.25,-13.53 1076.21,-6.53"/>
</g>
<!-- Node23&#45;&gt;Node10 -->
<g id="edge37" class="edge">
<title>Node23&#45;&gt;Node10</title>
<path fill="none" stroke="midnightblue" d="M1326.89,-123.48C1341.46,-113.84 1365.4,-98.02 1382.75,-86.55"/>
<polygon fill="midnightblue" stroke="midnightblue" points="1384.72,-89.44 1391.13,-81.01 1380.86,-83.6 1384.72,-89.44"/>
</g>
<!-- Node23&#45;&gt;Node12 -->
<g id="edge38" class="edge">
<title>Node23&#45;&gt;Node12</title>
<path fill="none" stroke="midnightblue" d="M1349.33,-130.62C1394.33,-127.58 1473.38,-117.9 1533,-87 1560.99,-72.49 1586.27,-45.52 1600.88,-27.92"/>
<polygon fill="midnightblue" stroke="midnightblue" points="1603.96,-29.67 1607.51,-19.68 1598.51,-25.28 1603.96,-29.67"/>
</g>
<!-- Node24&#45;&gt;Node4 -->
<g id="edge43" class="edge">
<title>Node24&#45;&gt;Node4</title>
<path fill="none" stroke="midnightblue" d="M804.91,-63.47C789.82,-61.02 772.66,-58.3 757,-56 643.97,-39.37 509.27,-22.24 449.81,-14.81"/>
<polygon fill="midnightblue" stroke="midnightblue" points="449.96,-11.31 439.6,-13.54 449.09,-18.25 449.96,-11.31"/>
</g>
<!-- Node24&#45;&gt;Node5 -->
<g id="edge44" class="edge">
<title>Node24&#45;&gt;Node5</title>
<path fill="none" stroke="midnightblue" d="M875.23,-61.98C911.4,-51.05 973.97,-32.15 1011.91,-20.69"/>
<polygon fill="midnightblue" stroke="midnightblue" points="1013.36,-23.91 1021.92,-17.67 1011.34,-17.21 1013.36,-23.91"/>
</g>
<!-- Node24&#45;&gt;Node13 -->
<g id="edge42" class="edge">
<title>Node24&#45;&gt;Node13</title>
<path fill="none" stroke="midnightblue" d="M889.09,-63.54C903.91,-61.12 920.69,-58.4 936,-56 1031.95,-40.94 1145.43,-24.06 1200.57,-15.92"/>
<polygon fill="midnightblue" stroke="midnightblue" points="1201.42,-19.33 1210.8,-14.41 1200.4,-12.41 1201.42,-19.33"/>
</g>
<!-- Node25&#45;&gt;Node5 -->
<g id="edge53" class="edge">
<title>Node25&#45;&gt;Node5</title>
<path fill="none" stroke="midnightblue" d="M1621.2,-123.3C1598.25,-106.91 1545.41,-71.67 1495,-56 1416.57,-31.62 1166.14,-17.08 1076.39,-12.54"/>
<polygon fill="midnightblue" stroke="midnightblue" points="1076.42,-9.04 1066.26,-12.04 1076.08,-16.03 1076.42,-9.04"/>
</g>
<!-- Node25&#45;&gt;Node12 -->
<g id="edge52" class="edge">
<title>Node25&#45;&gt;Node12</title>
<path fill="none" stroke="midnightblue" d="M1637.31,-123.38C1643.86,-109.09 1654.76,-79.72 1647,-56 1643.51,-45.34 1636.43,-35.12 1629.71,-27.12"/>
<polygon fill="midnightblue" stroke="midnightblue" points="1632.3,-24.76 1623.02,-19.66 1627.1,-29.44 1632.3,-24.76"/>
</g>
<!-- Node26 -->
<g id="node26" class="node">
<title>Node26</title>
<g id="a_node26"><a xlink:href="pdqsort_8h.html" target="_top" xlink:title=" ">
<polygon fill="white" stroke="black" points="1737.5,-62 1737.5,-81 1794.5,-81 1794.5,-62 1737.5,-62"/>
<text text-anchor="middle" x="1766" y="-69" font-family="Helvetica,sans-Serif" font-size="10.00">pdqsort.h</text>
</a>
</g>
</g>
<!-- Node25&#45;&gt;Node26 -->
<g id="edge46" class="edge">
<title>Node25&#45;&gt;Node26</title>
<path fill="none" stroke="midnightblue" d="M1652.06,-123.48C1674.47,-113.45 1711.91,-96.7 1737.71,-85.15"/>
<polygon fill="midnightblue" stroke="midnightblue" points="1739.28,-88.29 1746.98,-81.01 1736.42,-81.9 1739.28,-88.29"/>
</g>
<!-- Node26&#45;&gt;Node12 -->
<g id="edge48" class="edge">
<title>Node26&#45;&gt;Node12</title>
<path fill="none" stroke="midnightblue" d="M1744.22,-61.98C1718.26,-51.81 1674.69,-34.76 1645.17,-23.2"/>
<polygon fill="midnightblue" stroke="midnightblue" points="1646.33,-19.9 1635.74,-19.51 1643.77,-26.41 1646.33,-19.9"/>
</g>
<!-- Node26&#45;&gt;Node27 -->
<g id="edge47" class="edge">
<title>Node26&#45;&gt;Node27</title>
<path fill="none" stroke="midnightblue" d="M1783.19,-61.98C1803.24,-52.03 1836.6,-35.49 1859.86,-23.96"/>
<polygon fill="midnightblue" stroke="midnightblue" points="1861.43,-27.09 1868.84,-19.51 1858.32,-20.82 1861.43,-27.09"/>
</g>
<!-- Node28 -->
<g id="node28" class="node">
<title>Node28</title>
<g id="a_node28"><a xlink:title=" ">
<polygon fill="white" stroke="#bfbfbf" points="1715.5,-0.5 1715.5,-19.5 1774.5,-19.5 1774.5,-0.5 1715.5,-0.5"/>
<text text-anchor="middle" x="1745" y="-7.5" font-family="Helvetica,sans-Serif" font-size="10.00">functional</text>
</a>
</g>
</g>
<!-- Node26&#45;&gt;Node28 -->
<g id="edge49" class="edge">
<title>Node26&#45;&gt;Node28</title>
<path fill="none" stroke="midnightblue" d="M1762.99,-61.98C1759.97,-53.4 1755.21,-39.93 1751.35,-28.98"/>
<polygon fill="midnightblue" stroke="midnightblue" points="1754.63,-27.77 1748,-19.51 1748.03,-30.1 1754.63,-27.77"/>
</g>
<!-- Node29 -->
<g id="node29" class="node">
<title>Node29</title>
<g id="a_node29"><a xlink:title=" ">
<polygon fill="white" stroke="#bfbfbf" points="1792.5,-0.5 1792.5,-19.5 1839.5,-19.5 1839.5,-0.5 1792.5,-0.5"/>
<text text-anchor="middle" x="1816" y="-7.5" font-family="Helvetica,sans-Serif" font-size="10.00">iterator</text>
</a>
</g>
</g>
<!-- Node26&#45;&gt;Node29 -->
<g id="edge50" class="edge">
<title>Node26&#45;&gt;Node29</title>
<path fill="none" stroke="midnightblue" d="M1773.16,-61.98C1780.74,-52.96 1792.87,-38.52 1802.29,-27.31"/>
<polygon fill="midnightblue" stroke="midnightblue" points="1805.1,-29.42 1808.85,-19.51 1799.74,-24.91 1805.1,-29.42"/>
</g>
<!-- Node30 -->
<g id="node30" class="node">
<title>Node30</title>
<g id="a_node30"><a xlink:title=" ">
<polygon fill="white" stroke="#bfbfbf" points="1657,-0.5 1657,-19.5 1697,-19.5 1697,-0.5 1657,-0.5"/>
<text text-anchor="middle" x="1677" y="-7.5" font-family="Helvetica,sans-Serif" font-size="10.00">utility</text>
</a>
</g>
</g>
<!-- Node26&#45;&gt;Node30 -->
<g id="edge51" class="edge">
<title>Node26&#45;&gt;Node30</title>
<path fill="none" stroke="midnightblue" d="M1753.25,-61.98C1738.97,-52.43 1715.6,-36.81 1698.49,-25.37"/>
<polygon fill="midnightblue" stroke="midnightblue" points="1699.99,-22.16 1689.73,-19.51 1696.1,-27.98 1699.99,-22.16"/>
</g>
<!-- Node36&#45;&gt;Node4 -->
<g id="edge72" class="edge">
<title>Node36&#45;&gt;Node4</title>
<path fill="none" stroke="midnightblue" d="M678.3,-123.42C660.21,-107.84 619.57,-74.77 580,-56 536.94,-35.57 482.87,-22.84 449.63,-16.33"/>
<polygon fill="midnightblue" stroke="midnightblue" points="450.09,-12.85 439.62,-14.43 448.79,-19.73 450.09,-12.85"/>
</g>
<!-- Node36&#45;&gt;Node5 -->
<g id="edge74" class="edge">
<title>Node36&#45;&gt;Node5</title>
<path fill="none" stroke="midnightblue" d="M702,-123.41C716.13,-114.62 738.44,-100.38 757,-87 774.96,-74.05 775.83,-65.14 796,-56 868.25,-23.25 962.54,-14.32 1011.42,-11.89"/>
<polygon fill="midnightblue" stroke="midnightblue" points="1011.87,-15.38 1021.71,-11.45 1011.56,-8.38 1011.87,-15.38"/>
</g>
<!-- Node36&#45;&gt;Node10 -->
<g id="edge69" class="edge">
<title>Node36&#45;&gt;Node10</title>
<path fill="none" stroke="midnightblue" d="M749.05,-126.93C884.84,-115.64 1210.47,-88.58 1344.66,-77.43"/>
<polygon fill="midnightblue" stroke="midnightblue" points="1345.08,-80.91 1354.75,-76.59 1344.5,-73.93 1345.08,-80.91"/>
</g>
<!-- Node36&#45;&gt;Node12 -->
<g id="edge71" class="edge">
<title>Node36&#45;&gt;Node12</title>
<path fill="none" stroke="midnightblue" d="M749.25,-128.6C930.71,-118.51 1453.4,-89.29 1462,-87 1487.91,-80.08 1553.65,-44.68 1589.6,-24.72"/>
<polygon fill="midnightblue" stroke="midnightblue" points="1591.44,-27.7 1598.47,-19.78 1588.04,-21.59 1591.44,-27.7"/>
</g>
<!-- Node36&#45;&gt;Node24 -->
<g id="edge70" class="edge">
<title>Node36&#45;&gt;Node24</title>
<path fill="none" stroke="midnightblue" d="M710.78,-123.48C738.05,-113.27 783.91,-96.11 814.8,-84.55"/>
<polygon fill="midnightblue" stroke="midnightblue" points="816.12,-87.79 824.26,-81.01 813.67,-81.24 816.12,-87.79"/>
</g>
<!-- Node37 -->
<g id="node37" class="node">
<title>Node37</title>
<g id="a_node37"><a xlink:title=" ">
<polygon fill="white" stroke="#bfbfbf" points="665.5,-62 665.5,-81 748.5,-81 748.5,-62 665.5,-62"/>
<text text-anchor="middle" x="707" y="-69" font-family="Helvetica,sans-Serif" font-size="10.00">unordered_map</text>
</a>
</g>
</g>
<!-- Node36&#45;&gt;Node37 -->
<g id="edge73" class="edge">
<title>Node36&#45;&gt;Node37</title>
<path fill="none" stroke="midnightblue" d="M690.72,-123.48C693.43,-114.99 697.67,-101.7 701.15,-90.82"/>
<polygon fill="midnightblue" stroke="midnightblue" points="704.57,-91.6 704.28,-81.01 697.91,-89.47 704.57,-91.6"/>
</g>
</g>
</svg>
        <g id="navigator" transform="translate(0 0)" fill="#404254">
                <rect fill="#f2f5e9" fill-opacity="0.5" stroke="#606060" stroke-width=".5" x="0" y="0" width="60" height="60"/>
                <use id="zoomplus" xlink:href="#zoomPlus" x="17" y="9" onmousedown="handleZoom(evt,'in')"/>
                <use id="zoomminus" xlink:href="#zoomMin" x="42" y="9" onmousedown="handleZoom(evt,'out')"/>
                <use id="reset" xlink:href="#resetDef" x="30" y="36" onmousedown="handleReset()"/>
                <g id="arrowUp" xlink:href="#dirArrow" transform="translate(30 24)" onmousedown="handlePan(0,-1)">
                  <use xlink:href="#rim" fill="#404040">
                        <set attributeName="fill" to="#808080" begin="arrowUp.mouseover" end="arrowUp.mouseout"/>
                  </use>
                  <path fill="none" stroke="white" stroke-width="1.5" d="M0,-3.0v7 M-2.5,-0.5L0,-3.0L2.5,-0.5"/>
                </g>
                <g id="arrowRight" xlink:href="#dirArrow" transform="rotate(90) translate(36 -43)" onmousedown="handlePan(1,0)">
                  <use xlink:href="#rim" fill="#404040">
                        <set attributeName="fill" to="#808080" begin="arrowRight.mouseover" end="arrowRight.mouseout"/>
                  </use>
                  <path fill="none" stroke="white" stroke-width="1.5" d="M0,-3.0v7 M-2.5,-0.5L0,-3.0L2.5,-0.5"/>
                </g>
                <g id="arrowDown" xlink:href="#dirArrow" transform="rotate(180) translate(-30 -48)" onmousedown="handlePan(0,1)">
                  <use xlink:href="#rim" fill="#404040">
                        <set attributeName="fill" to="#808080" begin="arrowDown.mouseover" end="arrowDown.mouseout"/>
                  </use>
                  <path fill="none" stroke="white" stroke-width="1.5" d="M0,-3.0v7 M-2.5,-0.5L0,-3.0L2.5,-0.5"/>
                </g>
                <g id="arrowLeft" xlink:href="#dirArrow" transform="rotate(270) translate(-36 17)" onmousedown="handlePan(-1,0)">
                  <use xlink:href="#rim" fill="#404040">
                        <set attributeName="fill" to="#808080" begin="arrowLeft.mouseover" end="arrowLeft.mouseout"/>
                  </use>
                  <path fill="none" stroke="white" stroke-width="1.5" d="M0,-3.0v7 M-2.5,-0.5L0,-3.0L2.5,-0.5"/>
                </g>
        </g>
        <svg viewBox="0 0 15 15" width="100%" height="30px" preserveAspectRatio="xMaxYMin meet">
         <g id="arrow_out" transform="scale(0.3 0.3)">
          <a xlink:href="Iovs__Utils_8h__incl_org.svg" target="_base">
           <rect id="button" ry="5" rx="5" y="6" x="6" height="38" width="38"
                fill="#f2f5e9" fill-opacity="0.5" stroke="#606060" stroke-width="1.0"/>
           <path id="arrow"
             d="M 11.500037,31.436501 C 11.940474,20.09759 22.043105,11.32322 32.158766,21.979434 L 37.068811,17.246167 C 37.068811,17.246167 37.088388,32 37.088388,32 L 22.160133,31.978069 C 22.160133,31.978069 26.997745,27.140456 26.997745,27.140456 C 18.528582,18.264221 13.291696,25.230495 11.500037,31.436501 z"
             style="fill:#404040;"/>
          </a>
         </g>
        </svg>
</svg>
