<?xml version="1.0" encoding="UTF-8" standalone="no"?>
<!DOCTYPE svg PUBLIC "-//W3C//DTD SVG 1.1//EN"
 "http://www.w3.org/Graphics/SVG/1.1/DTD/svg11.dtd">
<!-- Generated by graphviz version 7.1.0 (20230121.1956)
 -->
<!-- Title: src/visualization/exodus/Iovs_exodus_IOFactory.h Pages: 1 -->
<svg width="282pt" height="104pt"
 viewBox="0.00 0.00 281.50 104.00" xmlns="http://www.w3.org/2000/svg" xmlns:xlink="http://www.w3.org/1999/xlink">
<g id="graph0" class="graph" transform="scale(1 1) rotate(0) translate(4 100)">
<title>src/visualization/exodus/Iovs_exodus_IOFactory.h</title>
<!-- Node1 -->
<g id="node1" class="node">
<title>Node1</title>
<g id="a_node1"><a xlink:title=" ">
<polygon fill="#999999" stroke="#666666" points="199.5,-96 68.5,-96 68.5,-66 199.5,-66 199.5,-96"/>
<text text-anchor="start" x="76.5" y="-84" font-family="Helvetica,sans-Serif" font-size="10.00">src/visualization/exodus</text>
<text text-anchor="middle" x="134" y="-73" font-family="Helvetica,sans-Serif" font-size="10.00">/Iovs_exodus_IOFactory.h</text>
</a>
</g>
</g>
<!-- Node2 -->
<g id="node2" class="node">
<title>Node2</title>
<g id="a_node2"><a xlink:href="Ionit__Initializer_8C.html" target="_top" xlink:title=" ">
<polygon fill="white" stroke="#666666" points="122,-24.5 0,-24.5 0,-5.5 122,-5.5 122,-24.5"/>
<text text-anchor="middle" x="61" y="-12.5" font-family="Helvetica,sans-Serif" font-size="10.00">src/init/Ionit_Initializer.C</text>
</a>
</g>
</g>
<!-- Node1&#45;&gt;Node2 -->
<g id="edge1" class="edge">
<title>Node1&#45;&gt;Node2</title>
<path fill="none" stroke="#63b8ff" d="M109.22,-58.27C96.17,-46.84 80.89,-33.44 71.09,-24.84"/>
<polygon fill="#63b8ff" stroke="#63b8ff" points="106.83,-60.84 116.66,-64.8 111.45,-55.57 106.83,-60.84"/>
</g>
<!-- Node3 -->
<g id="node3" class="node">
<title>Node3</title>
<g id="a_node3"><a xlink:href="Iovs__exodus__IOFactory_8C.html" target="_top" xlink:title=" ">
<polygon fill="white" stroke="#666666" points="273.5,-30 140.5,-30 140.5,0 273.5,0 273.5,-30"/>
<text text-anchor="start" x="148.5" y="-18" font-family="Helvetica,sans-Serif" font-size="10.00">src/visualization/exodus</text>
<text text-anchor="middle" x="207" y="-7" font-family="Helvetica,sans-Serif" font-size="10.00">/Iovs_exodus_IOFactory.C</text>
</a>
</g>
</g>
<!-- Node1&#45;&gt;Node3 -->
<g id="edge2" class="edge">
<title>Node1&#45;&gt;Node3</title>
<path fill="none" stroke="#63b8ff" d="M158.61,-58.42C169.15,-49.18 181.17,-38.65 190.59,-30.39"/>
<polygon fill="#63b8ff" stroke="#63b8ff" points="156.55,-55.57 151.34,-64.8 161.17,-60.84 156.55,-55.57"/>
</g>
</g>
</svg>
