<?xml version="1.0" encoding="UTF-8" standalone="no"?>
<!DOCTYPE svg PUBLIC "-//W3C//DTD SVG 1.1//EN"
 "http://www.w3.org/Graphics/SVG/1.1/DTD/svg11.dtd">
<!-- Generated by graphviz version 2.47.3 (20210619.1520)
 -->
<!-- Title: src/visualization/catalyst/parser/PhactoriParserInterface.h Pages: 1 -->
<svg width="223pt" height="95pt"
 viewBox="0.00 0.00 222.50 95.00" xmlns="http://www.w3.org/2000/svg" xmlns:xlink="http://www.w3.org/1999/xlink">
<g id="graph0" class="graph" transform="scale(1 1) rotate(0) translate(4 91)">
<title>src/visualization/catalyst/parser/PhactoriParserInterface.h</title>
<polygon fill="white" stroke="transparent" points="-4,4 -4,-91 218.5,-91 218.5,4 -4,4"/>
<!-- Node1 -->
<g id="node1" class="node">
<title>Node1</title>
<g id="a_node1"><a xlink:title=" ">
<polygon fill="#bfbfbf" stroke="black" points="22,-56.5 22,-86.5 183,-86.5 183,-56.5 22,-56.5"/>
<text text-anchor="start" x="30" y="-74.5" font-family="Helvetica,sans-Serif" font-size="10.00">src/visualization/catalyst</text>
<text text-anchor="middle" x="102.5" y="-63.5" font-family="Helvetica,sans-Serif" font-size="10.00">/parser/PhactoriParserInterface.h</text>
</a>
</g>
</g>
<!-- Node2 -->
<g id="node2" class="node">
<title>Node2</title>
<g id="a_node2"><a xlink:title=" ">
<polygon fill="white" stroke="#bfbfbf" points="0,-0.5 0,-19.5 35,-19.5 35,-0.5 0,-0.5"/>
<text text-anchor="middle" x="17.5" y="-7.5" font-family="Helvetica,sans-Serif" font-size="10.00">map</text>
</a>
</g>
</g>
<!-- Node1&#45;&gt;Node2 -->
<g id="edge1" class="edge">
<title>Node1&#45;&gt;Node2</title>
<path fill="none" stroke="midnightblue" d="M82.36,-56.4C69.11,-47.13 51.82,-35.03 38.42,-25.65"/>
<polygon fill="midnightblue" stroke="midnightblue" points="40.07,-22.53 29.87,-19.66 36.05,-28.26 40.07,-22.53"/>
</g>
<!-- Node3 -->
<g id="node3" class="node">
<title>Node3</title>
<g id="a_node3"><a xlink:title=" ">
<polygon fill="white" stroke="#bfbfbf" points="53,-0.5 53,-19.5 94,-19.5 94,-0.5 53,-0.5"/>
<text text-anchor="middle" x="73.5" y="-7.5" font-family="Helvetica,sans-Serif" font-size="10.00">string</text>
</a>
</g>
</g>
<!-- Node1&#45;&gt;Node3 -->
<g id="edge2" class="edge">
<title>Node1&#45;&gt;Node3</title>
<path fill="none" stroke="midnightblue" d="M95.63,-56.4C91.59,-48.11 86.44,-37.55 82.13,-28.71"/>
<polygon fill="midnightblue" stroke="midnightblue" points="85.25,-27.11 77.72,-19.66 78.95,-30.18 85.25,-27.11"/>
</g>
<!-- Node4 -->
<g id="node4" class="node">
<title>Node4</title>
<g id="a_node4"><a xlink:title=" ">
<polygon fill="white" stroke="#bfbfbf" points="112.5,-0.5 112.5,-19.5 152.5,-19.5 152.5,-0.5 112.5,-0.5"/>
<text text-anchor="middle" x="132.5" y="-7.5" font-family="Helvetica,sans-Serif" font-size="10.00">utility</text>
</a>
</g>
</g>
<!-- Node1&#45;&gt;Node4 -->
<g id="edge3" class="edge">
<title>Node1&#45;&gt;Node4</title>
<path fill="none" stroke="midnightblue" d="M109.61,-56.4C113.79,-48.11 119.11,-37.55 123.57,-28.71"/>
<polygon fill="midnightblue" stroke="midnightblue" points="126.76,-30.16 128.13,-19.66 120.51,-27.01 126.76,-30.16"/>
</g>
<!-- Node5 -->
<g id="node5" class="node">
<title>Node5</title>
<g id="a_node5"><a xlink:title=" ">
<polygon fill="white" stroke="#bfbfbf" points="170.5,-0.5 170.5,-19.5 214.5,-19.5 214.5,-0.5 170.5,-0.5"/>
<text text-anchor="middle" x="192.5" y="-7.5" font-family="Helvetica,sans-Serif" font-size="10.00">vector</text>
</a>
</g>
</g>
<!-- Node1&#45;&gt;Node5 -->
<g id="edge4" class="edge">
<title>Node1&#45;&gt;Node5</title>
<path fill="none" stroke="midnightblue" d="M123.83,-56.4C137.99,-47.04 156.51,-34.79 170.75,-25.38"/>
<polygon fill="midnightblue" stroke="midnightblue" points="172.99,-28.09 179.4,-19.66 169.13,-22.25 172.99,-28.09"/>
</g>
</g>
</svg>
