<?xml version="1.0" encoding="UTF-8" standalone="no"?>
<!DOCTYPE svg PUBLIC "-//W3C//DTD SVG 1.1//EN"
 "http://www.w3.org/Graphics/SVG/1.1/DTD/svg11.dtd">
<!-- Generated by graphviz version 7.0.2 (20221119.0110)
 -->
<!-- Title: src/robin_hash.h Pages: 1 -->
<svg width="964pt" height="137pt"
 viewBox="0.00 0.00 964.00 137.00" xmlns="http://www.w3.org/2000/svg" xmlns:xlink="http://www.w3.org/1999/xlink">
<g id="graph0" class="graph" transform="scale(1 1) rotate(0) translate(4 133)">
<title>src/robin_hash.h</title>
<!-- Node1 -->
<g id="node1" class="node">
<title>Node1</title>
<g id="a_node1"><a xlink:title=" ">
<polygon fill="#999999" stroke="#666666" points="519.5,-129 430.5,-129 430.5,-110 519.5,-110 519.5,-129"/>
<text text-anchor="middle" x="475" y="-117" font-family="Helvetica,sans-Serif" font-size="10.00">src/robin_hash.h</text>
</a>
</g>
</g>
<!-- Node2 -->
<g id="node2" class="node">
<title>Node2</title>
<g id="a_node2"><a xlink:title=" ">
<polygon fill="#e0e0e0" stroke="#999999" points="56,-19 0,-19 0,0 56,0 56,-19"/>
<text text-anchor="middle" x="28" y="-7" font-family="Helvetica,sans-Serif" font-size="10.00">algorithm</text>
</a>
</g>
</g>
<!-- Node1&#45;&gt;Node2 -->
<g id="edge1" class="edge">
<title>Node1&#45;&gt;Node2</title>
<path fill="none" stroke="#63b8ff" d="M430.03,-116.02C369.28,-111.77 258.1,-100.79 167,-74 125.65,-61.84 80.81,-39.55 53.56,-24.87"/>
<polygon fill="#63b8ff" stroke="#63b8ff" points="55.47,-21.93 45.01,-20.2 52.11,-28.07 55.47,-21.93"/>
</g>
<!-- Node3 -->
<g id="node3" class="node">
<title>Node3</title>
<g id="a_node3"><a xlink:title=" ">
<polygon fill="#e0e0e0" stroke="#999999" points="552.5,-74 503.5,-74 503.5,-55 552.5,-55 552.5,-74"/>
<text text-anchor="middle" x="528" y="-62" font-family="Helvetica,sans-Serif" font-size="10.00">cassert</text>
</a>
</g>
</g>
<!-- Node1&#45;&gt;Node3 -->
<g id="edge2" class="edge">
<title>Node1&#45;&gt;Node3</title>
<path fill="none" stroke="#63b8ff" d="M483.75,-109.75C491.15,-102.35 501.96,-91.54 511.05,-82.45"/>
<polygon fill="#63b8ff" stroke="#63b8ff" points="513.39,-85.06 517.99,-75.51 508.44,-80.11 513.39,-85.06"/>
</g>
<!-- Node4 -->
<g id="node4" class="node">
<title>Node4</title>
<g id="a_node4"><a xlink:title=" ">
<polygon fill="#e0e0e0" stroke="#999999" points="118,-19 74,-19 74,0 118,0 118,-19"/>
<text text-anchor="middle" x="96" y="-7" font-family="Helvetica,sans-Serif" font-size="10.00">cmath</text>
</a>
</g>
</g>
<!-- Node1&#45;&gt;Node4 -->
<g id="edge3" class="edge">
<title>Node1&#45;&gt;Node4</title>
<path fill="none" stroke="#63b8ff" d="M430.23,-115.22C377.55,-110.36 288.01,-98.99 215,-74 179.65,-61.9 142.14,-40.21 118.89,-25.59"/>
<polygon fill="#63b8ff" stroke="#63b8ff" points="120.85,-22.69 110.55,-20.25 117.08,-28.59 120.85,-22.69"/>
</g>
<!-- Node5 -->
<g id="node5" class="node">
<title>Node5</title>
<g id="a_node5"><a xlink:title=" ">
<polygon fill="#e0e0e0" stroke="#999999" points="185.5,-19 136.5,-19 136.5,0 185.5,0 185.5,-19"/>
<text text-anchor="middle" x="161" y="-7" font-family="Helvetica,sans-Serif" font-size="10.00">cstddef</text>
</a>
</g>
</g>
<!-- Node1&#45;&gt;Node5 -->
<g id="edge4" class="edge">
<title>Node1&#45;&gt;Node5</title>
<path fill="none" stroke="#63b8ff" d="M430.27,-114.77C384.51,-109.77 312.07,-98.47 254,-74 226.03,-62.21 197.78,-41.37 179.88,-26.79"/>
<polygon fill="#63b8ff" stroke="#63b8ff" points="182.15,-24.12 172.23,-20.4 177.66,-29.49 182.15,-24.12"/>
</g>
<!-- Node6 -->
<g id="node6" class="node">
<title>Node6</title>
<g id="a_node6"><a xlink:title=" ">
<polygon fill="#e0e0e0" stroke="#999999" points="250,-19 204,-19 204,0 250,0 250,-19"/>
<text text-anchor="middle" x="227" y="-7" font-family="Helvetica,sans-Serif" font-size="10.00">cstdint</text>
</a>
</g>
</g>
<!-- Node1&#45;&gt;Node6 -->
<g id="edge5" class="edge">
<title>Node1&#45;&gt;Node6</title>
<path fill="none" stroke="#63b8ff" d="M430.12,-116.39C388.49,-112.64 326.19,-102.31 280,-74 261.87,-62.89 246.98,-43.39 237.65,-28.92"/>
<polygon fill="#63b8ff" stroke="#63b8ff" points="240.86,-27.46 232.66,-20.76 234.89,-31.12 240.86,-27.46"/>
</g>
<!-- Node7 -->
<g id="node7" class="node">
<title>Node7</title>
<g id="a_node7"><a xlink:title=" ">
<polygon fill="#e0e0e0" stroke="#999999" points="629.5,-74 570.5,-74 570.5,-55 629.5,-55 629.5,-74"/>
<text text-anchor="middle" x="600" y="-62" font-family="Helvetica,sans-Serif" font-size="10.00">exception</text>
</a>
</g>
</g>
<!-- Node1&#45;&gt;Node7 -->
<g id="edge6" class="edge">
<title>Node1&#45;&gt;Node7</title>
<path fill="none" stroke="#63b8ff" d="M496.2,-109.51C516.08,-101.08 546.03,-88.38 568.66,-78.79"/>
<polygon fill="#63b8ff" stroke="#63b8ff" points="569.87,-82.07 577.72,-74.95 567.14,-75.63 569.87,-82.07"/>
</g>
<!-- Node8 -->
<g id="node8" class="node">
<title>Node8</title>
<g id="a_node8"><a xlink:title=" ">
<polygon fill="#e0e0e0" stroke="#999999" points="315.5,-19 268.5,-19 268.5,0 315.5,0 315.5,-19"/>
<text text-anchor="middle" x="292" y="-7" font-family="Helvetica,sans-Serif" font-size="10.00">iterator</text>
</a>
</g>
</g>
<!-- Node1&#45;&gt;Node8 -->
<g id="edge7" class="edge">
<title>Node1&#45;&gt;Node8</title>
<path fill="none" stroke="#63b8ff" d="M430.1,-114.01C381.04,-108.08 307.12,-95.73 290,-74 280.39,-61.8 281.95,-43.82 285.31,-30.1"/>
<polygon fill="#63b8ff" stroke="#63b8ff" points="288.56,-31.43 288.05,-20.85 281.85,-29.44 288.56,-31.43"/>
</g>
<!-- Node9 -->
<g id="node9" class="node">
<title>Node9</title>
<g id="a_node9"><a xlink:title=" ">
<polygon fill="#e0e0e0" stroke="#999999" points="618,-19 578,-19 578,0 618,0 618,-19"/>
<text text-anchor="middle" x="598" y="-7" font-family="Helvetica,sans-Serif" font-size="10.00">limits</text>
</a>
</g>
</g>
<!-- Node1&#45;&gt;Node9 -->
<g id="edge8" class="edge">
<title>Node1&#45;&gt;Node9</title>
<path fill="none" stroke="#63b8ff" d="M469.14,-109.82C461.09,-96.7 448.92,-71.62 461,-55 462.62,-52.77 526.79,-32.57 566.72,-20.16"/>
<polygon fill="#63b8ff" stroke="#63b8ff" points="567.55,-23.57 576.07,-17.26 565.48,-16.88 567.55,-23.57"/>
</g>
<!-- Node10 -->
<g id="node10" class="node">
<title>Node10</title>
<g id="a_node10"><a xlink:title=" ">
<polygon fill="#e0e0e0" stroke="#999999" points="700,-74 648,-74 648,-55 700,-55 700,-74"/>
<text text-anchor="middle" x="674" y="-62" font-family="Helvetica,sans-Serif" font-size="10.00">memory</text>
</a>
</g>
</g>
<!-- Node1&#45;&gt;Node10 -->
<g id="edge9" class="edge">
<title>Node1&#45;&gt;Node10</title>
<path fill="none" stroke="#63b8ff" d="M508.76,-109.51C544.33,-100.03 600.2,-85.15 636.97,-75.36"/>
<polygon fill="#63b8ff" stroke="#63b8ff" points="637.49,-78.84 646.26,-72.89 635.69,-72.08 637.49,-78.84"/>
</g>
<!-- Node11 -->
<g id="node11" class="node">
<title>Node11</title>
<g id="a_node11"><a xlink:title=" ">
<polygon fill="#e0e0e0" stroke="#999999" points="695.5,-19 636.5,-19 636.5,0 695.5,0 695.5,-19"/>
<text text-anchor="middle" x="666" y="-7" font-family="Helvetica,sans-Serif" font-size="10.00">stdexcept</text>
</a>
</g>
</g>
<!-- Node1&#45;&gt;Node11 -->
<g id="edge10" class="edge">
<title>Node1&#45;&gt;Node11</title>
<path fill="none" stroke="#63b8ff" d="M475.2,-109.73C476,-96.05 479.59,-69.65 495,-55 499.81,-50.43 576.23,-31.71 625.27,-20.05"/>
<polygon fill="#63b8ff" stroke="#63b8ff" points="625.78,-23.53 634.71,-17.82 624.17,-16.72 625.78,-23.53"/>
</g>
<!-- Node12 -->
<g id="node12" class="node">
<title>Node12</title>
<g id="a_node12"><a xlink:title=" ">
<polygon fill="#e0e0e0" stroke="#999999" points="756,-74 718,-74 718,-55 756,-55 756,-74"/>
<text text-anchor="middle" x="737" y="-62" font-family="Helvetica,sans-Serif" font-size="10.00">tuple</text>
</a>
</g>
</g>
<!-- Node1&#45;&gt;Node12 -->
<g id="edge11" class="edge">
<title>Node1&#45;&gt;Node12</title>
<path fill="none" stroke="#63b8ff" d="M519.73,-111.45C564.74,-104.04 636.33,-91.37 706.93,-74.29"/>
<polygon fill="#63b8ff" stroke="#63b8ff" points="707.45,-77.77 716.33,-71.99 705.78,-70.97 707.45,-77.77"/>
</g>
<!-- Node13 -->
<g id="node13" class="node">
<title>Node13</title>
<g id="a_node13"><a xlink:title=" ">
<polygon fill="#e0e0e0" stroke="#999999" points="836,-74 774,-74 774,-55 836,-55 836,-74"/>
<text text-anchor="middle" x="805" y="-62" font-family="Helvetica,sans-Serif" font-size="10.00">type_traits</text>
</a>
</g>
</g>
<!-- Node1&#45;&gt;Node13 -->
<g id="edge12" class="edge">
<title>Node1&#45;&gt;Node13</title>
<path fill="none" stroke="#63b8ff" d="M519.84,-112.43C574.71,-104.82 670.7,-90.94 762.43,-74.38"/>
<polygon fill="#63b8ff" stroke="#63b8ff" points="762.89,-77.86 772.1,-72.62 761.64,-70.97 762.89,-77.86"/>
</g>
<!-- Node14 -->
<g id="node14" class="node">
<title>Node14</title>
<g id="a_node14"><a xlink:title=" ">
<polygon fill="#e0e0e0" stroke="#999999" points="894,-74 854,-74 854,-55 894,-55 894,-74"/>
<text text-anchor="middle" x="874" y="-62" font-family="Helvetica,sans-Serif" font-size="10.00">utility</text>
</a>
</g>
</g>
<!-- Node1&#45;&gt;Node14 -->
<g id="edge13" class="edge">
<title>Node1&#45;&gt;Node14</title>
<path fill="none" stroke="#63b8ff" d="M519.81,-115.51C587.73,-110.47 720.92,-98.53 842.53,-74.2"/>
<polygon fill="#63b8ff" stroke="#63b8ff" points="842.93,-77.69 852.03,-72.26 841.53,-70.83 842.93,-77.69"/>
</g>
<!-- Node15 -->
<g id="node15" class="node">
<title>Node15</title>
<g id="a_node15"><a xlink:title=" ">
<polygon fill="#e0e0e0" stroke="#999999" points="956,-74 912,-74 912,-55 956,-55 956,-74"/>
<text text-anchor="middle" x="934" y="-62" font-family="Helvetica,sans-Serif" font-size="10.00">vector</text>
</a>
</g>
</g>
<!-- Node1&#45;&gt;Node15 -->
<g id="edge14" class="edge">
<title>Node1&#45;&gt;Node15</title>
<path fill="none" stroke="#63b8ff" d="M519.71,-116.27C595.97,-111.94 756.19,-100.58 900.51,-74.17"/>
<polygon fill="#63b8ff" stroke="#63b8ff" points="901.07,-77.62 910.26,-72.35 899.79,-70.74 901.07,-77.62"/>
</g>
<!-- Node16 -->
<g id="node16" class="node">
<title>Node16</title>
<g id="a_node16"><a xlink:href="robin__growth__policy_8h.html" target="_top" xlink:title=" ">
<polygon fill="white" stroke="#666666" points="409,-74 299,-74 299,-55 409,-55 409,-74"/>
<text text-anchor="middle" x="354" y="-62" font-family="Helvetica,sans-Serif" font-size="10.00">robin_growth_policy.h</text>
</a>
</g>
</g>
<!-- Node1&#45;&gt;Node16 -->
<g id="edge15" class="edge">
<title>Node1&#45;&gt;Node16</title>
<path fill="none" stroke="#63b8ff" d="M454.47,-109.51C435.32,-101.12 406.5,-88.5 384.63,-78.92"/>
<polygon fill="#63b8ff" stroke="#63b8ff" points="386.17,-75.77 375.61,-74.97 383.36,-82.18 386.17,-75.77"/>
</g>
<!-- Node16&#45;&gt;Node2 -->
<g id="edge16" class="edge">
<title>Node16&#45;&gt;Node2</title>
<path fill="none" stroke="#63b8ff" d="M298.66,-56.2C242.73,-48.55 153.58,-35.62 67.29,-19.32"/>
<polygon fill="#63b8ff" stroke="#63b8ff" points="68.2,-15.93 57.72,-17.49 66.89,-22.81 68.2,-15.93"/>
</g>
<!-- Node16&#45;&gt;Node4 -->
<g id="edge19" class="edge">
<title>Node16&#45;&gt;Node4</title>
<path fill="none" stroke="#63b8ff" d="M302.38,-54.51C258.65,-46.63 194.07,-34.42 129.14,-19.37"/>
<polygon fill="#63b8ff" stroke="#63b8ff" points="130.31,-16.04 119.77,-17.17 128.71,-22.86 130.31,-16.04"/>
</g>
<!-- Node16&#45;&gt;Node5 -->
<g id="edge20" class="edge">
<title>Node16&#45;&gt;Node5</title>
<path fill="none" stroke="#63b8ff" d="M321.26,-54.51C286.71,-45.02 232.43,-30.12 196.78,-20.32"/>
<polygon fill="#63b8ff" stroke="#63b8ff" points="197.93,-17.01 187.36,-17.74 196.08,-23.76 197.93,-17.01"/>
</g>
<!-- Node16&#45;&gt;Node6 -->
<g id="edge21" class="edge">
<title>Node16&#45;&gt;Node6</title>
<path fill="none" stroke="#63b8ff" d="M332.46,-54.51C312.26,-46.08 281.83,-33.38 258.84,-23.79"/>
<polygon fill="#63b8ff" stroke="#63b8ff" points="260.2,-20.56 249.62,-19.94 257.5,-27.02 260.2,-20.56"/>
</g>
<!-- Node16&#45;&gt;Node8 -->
<g id="edge22" class="edge">
<title>Node16&#45;&gt;Node8</title>
<path fill="none" stroke="#63b8ff" d="M343.48,-54.51C334.61,-46.93 321.69,-35.88 311.01,-26.75"/>
<polygon fill="#63b8ff" stroke="#63b8ff" points="313.39,-24.18 303.51,-20.34 308.84,-29.5 313.39,-24.18"/>
</g>
<!-- Node16&#45;&gt;Node9 -->
<g id="edge23" class="edge">
<title>Node16&#45;&gt;Node9</title>
<path fill="none" stroke="#63b8ff" d="M402.93,-54.54C444.19,-46.73 505.04,-34.6 566.67,-19.42"/>
<polygon fill="#63b8ff" stroke="#63b8ff" points="567.45,-22.83 576.31,-17.02 565.76,-16.04 567.45,-22.83"/>
</g>
<!-- Node16&#45;&gt;Node11 -->
<g id="edge25" class="edge">
<title>Node16&#45;&gt;Node11</title>
<path fill="none" stroke="#63b8ff" d="M409.31,-55.36C462.2,-47.39 544.43,-34.47 625.34,-19.23"/>
<polygon fill="#63b8ff" stroke="#63b8ff" points="625.56,-22.75 634.74,-17.44 624.26,-15.87 625.56,-22.75"/>
</g>
<!-- Node17 -->
<g id="node17" class="node">
<title>Node17</title>
<g id="a_node17"><a xlink:title=" ">
<polygon fill="#e0e0e0" stroke="#999999" points="560,-19 522,-19 522,0 560,0 560,-19"/>
<text text-anchor="middle" x="541" y="-7" font-family="Helvetica,sans-Serif" font-size="10.00">array</text>
</a>
</g>
</g>
<!-- Node16&#45;&gt;Node17 -->
<g id="edge17" class="edge">
<title>Node16&#45;&gt;Node17</title>
<path fill="none" stroke="#63b8ff" d="M386.95,-54.5C416.88,-46.28 462.53,-33.62 510.76,-19.61"/>
<polygon fill="#63b8ff" stroke="#63b8ff" points="511.66,-22.99 520.28,-16.83 509.7,-16.27 511.66,-22.99"/>
</g>
<!-- Node18 -->
<g id="node18" class="node">
<title>Node18</title>
<g id="a_node18"><a xlink:title=" ">
<polygon fill="#e0e0e0" stroke="#999999" points="378.5,-19 333.5,-19 333.5,0 378.5,0 378.5,-19"/>
<text text-anchor="middle" x="356" y="-7" font-family="Helvetica,sans-Serif" font-size="10.00">climits</text>
</a>
</g>
</g>
<!-- Node16&#45;&gt;Node18 -->
<g id="edge18" class="edge">
<title>Node16&#45;&gt;Node18</title>
<path fill="none" stroke="#63b8ff" d="M354.33,-54.75C354.57,-48.27 354.92,-39.16 355.23,-30.9"/>
<polygon fill="#63b8ff" stroke="#63b8ff" points="358.73,-31.08 355.61,-20.95 351.73,-30.82 358.73,-31.08"/>
</g>
<!-- Node19 -->
<g id="node19" class="node">
<title>Node19</title>
<g id="a_node19"><a xlink:title=" ">
<polygon fill="#e0e0e0" stroke="#999999" points="431.5,-19 396.5,-19 396.5,0 431.5,0 431.5,-19"/>
<text text-anchor="middle" x="414" y="-7" font-family="Helvetica,sans-Serif" font-size="10.00">ratio</text>
</a>
</g>
</g>
<!-- Node16&#45;&gt;Node19 -->
<g id="edge24" class="edge">
<title>Node16&#45;&gt;Node19</title>
<path fill="none" stroke="#63b8ff" d="M364.18,-54.51C372.76,-46.93 385.27,-35.88 395.6,-26.75"/>
<polygon fill="#63b8ff" stroke="#63b8ff" points="397.66,-29.6 402.84,-20.36 393.03,-24.36 397.66,-29.6"/>
</g>
<!-- Node20 -->
<g id="node20" class="node">
<title>Node20</title>
<g id="a_node20"><a xlink:title=" ">
<polygon fill="#e0e0e0" stroke="#999999" points="504,-19 450,-19 450,0 504,0 504,-19"/>
<text text-anchor="middle" x="477" y="-7" font-family="Helvetica,sans-Serif" font-size="10.00">iostream</text>
</a>
</g>
</g>
<!-- Node16&#45;&gt;Node20 -->
<g id="edge26" class="edge">
<title>Node16&#45;&gt;Node20</title>
<path fill="none" stroke="#63b8ff" d="M374.87,-54.51C394.42,-46.08 423.9,-33.38 446.17,-23.79"/>
<polygon fill="#63b8ff" stroke="#63b8ff" points="447.25,-27.13 455.05,-19.96 444.48,-20.7 447.25,-27.13"/>
</g>
</g>
</svg>
