<?xml version="1.0" encoding="UTF-8" standalone="no"?>
<!DOCTYPE svg PUBLIC "-//W3C//DTD SVG 1.1//EN"
 "http://www.w3.org/Graphics/SVG/1.1/DTD/svg11.dtd">
<!-- Generated by graphviz version 9.0.0 (20230911.1827)
 -->
<!-- Title: src/robin_set.h Pages: 1 -->
<svg width="969pt" height="204pt"
 viewBox="0.00 0.00 969.15 204.25" xmlns="http://www.w3.org/2000/svg" xmlns:xlink="http://www.w3.org/1999/xlink">
<g id="graph0" class="graph" transform="scale(1 1) rotate(0) translate(4 200.25)">
<title>src/robin_set.h</title>
<!-- Node1 -->
<g id="Node000001" class="node">
<title>Node1</title>
<g id="a_Node000001"><a xlink:title=" ">
<polygon fill="#999999" stroke="#666666" points="382.78,-196.25 302.28,-196.25 302.28,-177 382.78,-177 382.78,-196.25"/>
<text text-anchor="middle" x="342.53" y="-182.75" font-family="Helvetica,sans-Serif" font-size="10.00">src/robin_set.h</text>
</a>
</g>
</g>
<!-- Node2 -->
<g id="Node000002" class="node">
<title>Node2</title>
<g id="a_Node000002"><a xlink:href="Ioss__FaceGenerator_8C.html" target="_top" xlink:title=" ">
<polygon fill="white" stroke="#666666" points="144.91,-85.75 14.16,-85.75 14.16,-66.5 144.91,-66.5 144.91,-85.75"/>
<text text-anchor="middle" x="79.53" y="-72.25" font-family="Helvetica,sans-Serif" font-size="10.00">src/Ioss_FaceGenerator.C</text>
</a>
</g>
</g>
<!-- Node1&#45;&gt;Node2 -->
<g id="edge1_Node000001_Node000002" class="edge">
<title>Node1&#45;&gt;Node2</title>
<g id="a_edge1_Node000001_Node000002"><a xlink:title=" ">
<path fill="none" stroke="#63b8ff" d="M310.15,-172.27C255.9,-149.89 148.05,-105.39 101.62,-86.24"/>
<polygon fill="#63b8ff" stroke="#63b8ff" points="308.58,-175.41 319.16,-175.98 311.25,-168.93 308.58,-175.41"/>
</a>
</g>
</g>
<!-- Node3 -->
<g id="Node000003" class="node">
<title>Node3</title>
<g id="a_Node000003"><a xlink:href="Ioss__FaceGenerator_8h.html" target="_top" xlink:title=" ">
<polygon fill="white" stroke="#666666" points="494.78,-141 366.28,-141 366.28,-121.75 494.78,-121.75 494.78,-141"/>
<text text-anchor="middle" x="430.53" y="-127.5" font-family="Helvetica,sans-Serif" font-size="10.00">src/Ioss_FaceGenerator.h</text>
</a>
</g>
</g>
<!-- Node1&#45;&gt;Node3 -->
<g id="edge2_Node000001_Node000003" class="edge">
<title>Node1&#45;&gt;Node3</title>
<g id="a_edge2_Node000001_Node000003"><a xlink:title=" ">
<path fill="none" stroke="#63b8ff" d="M366.99,-170.82C382.56,-161.4 402.23,-149.5 415.53,-141.45"/>
<polygon fill="#63b8ff" stroke="#63b8ff" points="365.5,-167.64 358.75,-175.81 369.12,-173.63 365.5,-167.64"/>
</a>
</g>
</g>
<!-- Node6 -->
<g id="Node000006" class="node">
<title>Node6</title>
<g id="a_Node000006"><a xlink:href="Iocgns__DatabaseIO_8C.html" target="_top" xlink:title=" ">
<polygon fill="white" stroke="#666666" points="187.53,-24.88 33.53,-24.88 33.53,-5.63 187.53,-5.63 187.53,-24.88"/>
<text text-anchor="middle" x="110.53" y="-11.38" font-family="Helvetica,sans-Serif" font-size="10.00">src/cgns/Iocgns_DatabaseIO.C</text>
</a>
</g>
</g>
<!-- Node1&#45;&gt;Node6 -->
<g id="edge19_Node000001_Node000006" class="edge">
<title>Node1&#45;&gt;Node6</title>
<g id="a_edge19_Node000001_Node000006"><a xlink:title=" ">
<path fill="none" stroke="#63b8ff" d="M290.58,-177.88C204.84,-163.91 39.77,-131.63 5.53,-85.75 -16.1,-56.75 34.12,-36.2 72.33,-25.29"/>
<polygon fill="#63b8ff" stroke="#63b8ff" points="289.96,-181.32 300.38,-179.45 291.06,-174.41 289.96,-181.32"/>
</a>
</g>
</g>
<!-- Node9 -->
<g id="Node000009" class="node">
<title>Node9</title>
<g id="a_Node000009"><a xlink:href="Iocgns__Utils_8C.html" target="_top" xlink:title=" ">
<polygon fill="white" stroke="#666666" points="935.41,-24.88 813.66,-24.88 813.66,-5.63 935.41,-5.63 935.41,-24.88"/>
<text text-anchor="middle" x="874.53" y="-11.38" font-family="Helvetica,sans-Serif" font-size="10.00">src/cgns/Iocgns_Utils.C</text>
</a>
</g>
</g>
<!-- Node1&#45;&gt;Node9 -->
<g id="edge20_Node000001_Node000009" class="edge">
<title>Node1&#45;&gt;Node9</title>
<g id="a_edge20_Node000001_Node000009"><a xlink:title=" ">
<path fill="none" stroke="#63b8ff" d="M394.37,-185.38C528.84,-183.53 883.42,-170.56 955.53,-85.75 976.54,-61.05 930.97,-37.64 900.04,-25.3"/>
<polygon fill="#63b8ff" stroke="#63b8ff" points="394.66,-181.88 384.7,-185.5 394.74,-188.88 394.66,-181.88"/>
</a>
</g>
</g>
<!-- Node3&#45;&gt;Node2 -->
<g id="edge5_Node000003_Node000002" class="edge">
<title>Node3&#45;&gt;Node2</title>
<g id="a_edge5_Node000003_Node000002"><a xlink:title=" ">
<path fill="none" stroke="#63b8ff" d="M359.28,-119.57C294.64,-109.76 200.4,-95.46 139.52,-86.23"/>
<polygon fill="#63b8ff" stroke="#63b8ff" points="358.68,-123.01 369.1,-121.05 359.73,-116.09 358.68,-123.01"/>
</a>
</g>
</g>
<!-- Node4 -->
<g id="Node000004" class="node">
<title>Node4</title>
<g id="a_Node000004"><a xlink:href="Ioss__ChainGenerator_8C.html" target="_top" xlink:title=" ">
<polygon fill="white" stroke="#666666" points="796.78,-85.75 662.28,-85.75 662.28,-66.5 796.78,-66.5 796.78,-85.75"/>
<text text-anchor="middle" x="729.53" y="-72.25" font-family="Helvetica,sans-Serif" font-size="10.00">src/Ioss_ChainGenerator.C</text>
</a>
</g>
</g>
<!-- Node3&#45;&gt;Node4 -->
<g id="edge3_Node000003_Node000004" class="edge">
<title>Node3&#45;&gt;Node4</title>
<g id="a_edge3_Node000003_Node000004"><a xlink:title=" ">
<path fill="none" stroke="#63b8ff" d="M492.6,-119.32C547.62,-109.52 627,-95.38 678.43,-86.23"/>
<polygon fill="#63b8ff" stroke="#63b8ff" points="492.31,-115.82 483.08,-121.02 493.54,-122.71 492.31,-115.82"/>
</a>
</g>
</g>
<!-- Node5 -->
<g id="Node000005" class="node">
<title>Node5</title>
<g id="a_Node000005"><a xlink:href="Ioss__CopyDatabase_8C.html" target="_top" xlink:title=" ">
<polygon fill="white" stroke="#666666" points="946.66,-85.75 814.41,-85.75 814.41,-66.5 946.66,-66.5 946.66,-85.75"/>
<text text-anchor="middle" x="880.53" y="-72.25" font-family="Helvetica,sans-Serif" font-size="10.00">src/Ioss_CopyDatabase.C</text>
</a>
</g>
</g>
<!-- Node3&#45;&gt;Node5 -->
<g id="edge4_Node000003_Node000005" class="edge">
<title>Node3&#45;&gt;Node5</title>
<g id="a_edge4_Node000003_Node000005"><a xlink:title=" ">
<path fill="none" stroke="#63b8ff" d="M506.28,-121.41C592.45,-111.21 731.83,-94.72 813.98,-85"/>
<polygon fill="#63b8ff" stroke="#63b8ff" points="506.03,-117.92 496.51,-122.57 506.85,-124.87 506.03,-117.92"/>
</a>
</g>
</g>
<!-- Node3&#45;&gt;Node6 -->
<g id="edge6_Node000003_Node000006" class="edge">
<title>Node3&#45;&gt;Node6</title>
<g id="a_edge6_Node000003_Node000006"><a xlink:title=" ">
<path fill="none" stroke="#63b8ff" d="M354.44,-126.31C305.86,-121.31 242.63,-110.24 191.53,-85.75 160.12,-70.7 131.16,-40.27 117.99,-25.17"/>
<polygon fill="#63b8ff" stroke="#63b8ff" points="354.03,-129.79 364.32,-127.25 354.7,-122.82 354.03,-129.79"/>
</a>
</g>
</g>
<!-- Node7 -->
<g id="Node000007" class="node">
<title>Node7</title>
<g id="a_Node000007"><a xlink:href="Iocgns__DatabaseIO_8h.html" target="_top" xlink:title=" ">
<polygon fill="white" stroke="#666666" points="352.41,-85.75 200.66,-85.75 200.66,-66.5 352.41,-66.5 352.41,-85.75"/>
<text text-anchor="middle" x="276.53" y="-72.25" font-family="Helvetica,sans-Serif" font-size="10.00">src/cgns/Iocgns_DatabaseIO.h</text>
</a>
</g>
</g>
<!-- Node3&#45;&gt;Node7 -->
<g id="edge7_Node000003_Node000007" class="edge">
<title>Node3&#45;&gt;Node7</title>
<g id="a_edge7_Node000003_Node000007"><a xlink:title=" ">
<path fill="none" stroke="#63b8ff" d="M393.82,-117.68C365.78,-107.99 327.83,-94.86 302.78,-86.2"/>
<polygon fill="#63b8ff" stroke="#63b8ff" points="392.38,-120.89 402.98,-120.85 394.67,-114.27 392.38,-120.89"/>
</a>
</g>
</g>
<!-- Node3&#45;&gt;Node9 -->
<g id="edge10_Node000003_Node000009" class="edge">
<title>Node3&#45;&gt;Node9</title>
<g id="a_edge10_Node000003_Node000009"><a xlink:title=" ">
<path fill="none" stroke="#63b8ff" d="M453.4,-115.23C479.36,-98.32 520.31,-72.52 537.53,-66.5 650.57,-27.01 686.47,-50.45 804.53,-30.5 813.46,-28.99 822.99,-27.18 832.05,-25.37"/>
<polygon fill="#63b8ff" stroke="#63b8ff" points="451.66,-112.19 445.22,-120.6 455.5,-118.04 451.66,-112.19"/>
</a>
</g>
</g>
<!-- Node10 -->
<g id="Node000010" class="node">
<title>Node10</title>
<g id="a_Node000010"><a xlink:href="Iocgns__Utils_8h.html" target="_top" xlink:title=" ">
<polygon fill="white" stroke="#666666" points="490.28,-85.75 370.78,-85.75 370.78,-66.5 490.28,-66.5 490.28,-85.75"/>
<text text-anchor="middle" x="430.53" y="-72.25" font-family="Helvetica,sans-Serif" font-size="10.00">src/cgns/Iocgns_Utils.h</text>
</a>
</g>
</g>
<!-- Node3&#45;&gt;Node10 -->
<g id="edge11_Node000003_Node000010" class="edge">
<title>Node3&#45;&gt;Node10</title>
<g id="a_edge11_Node000003_Node000010"><a xlink:title=" ">
<path fill="none" stroke="#63b8ff" d="M430.53,-110.13C430.53,-101.84 430.53,-92.67 430.53,-86.11"/>
<polygon fill="#63b8ff" stroke="#63b8ff" points="427.03,-110.07 430.53,-120.07 434.03,-110.07 427.03,-110.07"/>
</a>
</g>
</g>
<!-- Node14 -->
<g id="Node000014" class="node">
<title>Node14</title>
<g id="a_Node000014"><a xlink:href="skinner_8C.html" target="_top" xlink:title=" ">
<polygon fill="white" stroke="#666666" points="644.41,-85.75 546.66,-85.75 546.66,-66.5 644.41,-66.5 644.41,-85.75"/>
<text text-anchor="middle" x="595.53" y="-72.25" font-family="Helvetica,sans-Serif" font-size="10.00">src/main/skinner.C</text>
</a>
</g>
</g>
<!-- Node3&#45;&gt;Node14 -->
<g id="edge18_Node000003_Node000014" class="edge">
<title>Node3&#45;&gt;Node14</title>
<g id="a_edge18_Node000003_Node000014"><a xlink:title=" ">
<path fill="none" stroke="#63b8ff" d="M469.47,-117.81C499.54,-108.1 540.45,-94.9 567.4,-86.2"/>
<polygon fill="#63b8ff" stroke="#63b8ff" points="468.4,-114.47 459.96,-120.88 470.55,-121.14 468.4,-114.47"/>
</a>
</g>
</g>
<!-- Node7&#45;&gt;Node6 -->
<g id="edge8_Node000007_Node000006" class="edge">
<title>Node7&#45;&gt;Node6</title>
<g id="a_edge8_Node000007_Node000006"><a xlink:title=" ">
<path fill="none" stroke="#63b8ff" d="M240.43,-62.32C208.94,-51.15 164.05,-35.23 136.13,-25.33"/>
<polygon fill="#63b8ff" stroke="#63b8ff" points="238.94,-65.5 249.53,-65.55 241.28,-58.91 238.94,-65.5"/>
</a>
</g>
</g>
<!-- Node8 -->
<g id="Node000008" class="node">
<title>Node8</title>
<g id="a_Node000008"><a xlink:href="Iocgns__IOFactory_8C.html" target="_top" xlink:title=" ">
<polygon fill="white" stroke="#666666" points="349.28,-24.88 205.78,-24.88 205.78,-5.63 349.28,-5.63 349.28,-24.88"/>
<text text-anchor="middle" x="277.53" y="-11.38" font-family="Helvetica,sans-Serif" font-size="10.00">src/cgns/Iocgns_IOFactory.C</text>
</a>
</g>
</g>
<!-- Node7&#45;&gt;Node8 -->
<g id="edge9_Node000007_Node000008" class="edge">
<title>Node7&#45;&gt;Node8</title>
<g id="a_edge9_Node000007_Node000008"><a xlink:title=" ">
<path fill="none" stroke="#63b8ff" d="M276.88,-54.7C277.05,-44.67 277.25,-33.08 277.38,-25.28"/>
<polygon fill="#63b8ff" stroke="#63b8ff" points="273.38,-54.61 276.71,-64.67 280.38,-54.73 273.38,-54.61"/>
</a>
</g>
</g>
<!-- Node10&#45;&gt;Node6 -->
<g id="edge12_Node000010_Node000006" class="edge">
<title>Node10&#45;&gt;Node6</title>
<g id="a_edge12_Node000010_Node000006"><a xlink:title=" ">
<path fill="none" stroke="#63b8ff" d="M370.26,-64.04C309.4,-52.84 216.52,-35.75 159.89,-25.33"/>
<polygon fill="#63b8ff" stroke="#63b8ff" points="369.28,-67.41 379.74,-65.78 370.54,-60.53 369.28,-67.41"/>
</a>
</g>
</g>
<!-- Node10&#45;&gt;Node8 -->
<g id="edge13_Node000010_Node000008" class="edge">
<title>Node10&#45;&gt;Node8</title>
<g id="a_edge13_Node000010_Node000008"><a xlink:title=" ">
<path fill="none" stroke="#63b8ff" d="M396.49,-62.03C367.51,-50.88 326.63,-35.15 301.13,-25.33"/>
<polygon fill="#63b8ff" stroke="#63b8ff" points="394.96,-65.19 405.55,-65.51 397.47,-58.65 394.96,-65.19"/>
</a>
</g>
</g>
<!-- Node10&#45;&gt;Node9 -->
<g id="edge14_Node000010_Node000009" class="edge">
<title>Node10&#45;&gt;Node9</title>
<g id="a_edge14_Node000010_Node000009"><a xlink:title=" ">
<path fill="none" stroke="#63b8ff" d="M501.83,-66.77C606.18,-54.52 789.81,-32.87 804.53,-30.5 813.71,-29.02 823.53,-27.18 832.81,-25.33"/>
<polygon fill="#63b8ff" stroke="#63b8ff" points="501.46,-63.29 491.94,-67.93 502.28,-70.24 501.46,-63.29"/>
</a>
</g>
</g>
<!-- Node11 -->
<g id="Node000011" class="node">
<title>Node11</title>
<g id="a_Node000011"><a xlink:href="cgns__decomp_8C.html" target="_top" xlink:title=" ">
<polygon fill="white" stroke="#666666" points="637.41,-24.88 509.66,-24.88 509.66,-5.63 637.41,-5.63 637.41,-24.88"/>
<text text-anchor="middle" x="573.53" y="-11.38" font-family="Helvetica,sans-Serif" font-size="10.00">src/main/cgns_decomp.C</text>
</a>
</g>
</g>
<!-- Node10&#45;&gt;Node11 -->
<g id="edge15_Node000010_Node000011" class="edge">
<title>Node10&#45;&gt;Node11</title>
<g id="a_edge15_Node000010_Node000011"><a xlink:title=" ">
<path fill="none" stroke="#63b8ff" d="M463.1,-61.72C490.22,-50.55 528.11,-34.95 551.71,-25.23"/>
<polygon fill="#63b8ff" stroke="#63b8ff" points="461.88,-58.44 453.96,-65.48 464.54,-64.91 461.88,-58.44"/>
</a>
</g>
</g>
<!-- Node12 -->
<g id="Node000012" class="node">
<title>Node12</title>
<g id="a_Node000012"><a xlink:href="struc__to__unstruc_8C.html" target="_top" xlink:title=" ">
<polygon fill="white" stroke="#666666" points="795.41,-24.88 655.66,-24.88 655.66,-5.63 795.41,-5.63 795.41,-24.88"/>
<text text-anchor="middle" x="725.53" y="-11.38" font-family="Helvetica,sans-Serif" font-size="10.00">src/main/struc_to_unstruc.C</text>
</a>
</g>
</g>
<!-- Node10&#45;&gt;Node12 -->
<g id="edge16_Node000010_Node000012" class="edge">
<title>Node10&#45;&gt;Node12</title>
<g id="a_edge16_Node000010_Node000012"><a xlink:title=" ">
<path fill="none" stroke="#63b8ff" d="M487.15,-63.83C543.27,-52.63 628.15,-35.69 680.03,-25.33"/>
<polygon fill="#63b8ff" stroke="#63b8ff" points="486.58,-60.37 477.46,-65.76 487.95,-67.23 486.58,-60.37"/>
</a>
</g>
</g>
<!-- Node13 -->
<g id="Node000013" class="node">
<title>Node13</title>
<g id="a_Node000013"><a xlink:href="Utst__structured__decomp_8C.html" target="_top" xlink:title=" ">
<polygon fill="white" stroke="#666666" points="491.91,-30.5 367.16,-30.5 367.16,0 491.91,0 491.91,-30.5"/>
<text text-anchor="start" x="375.16" y="-17" font-family="Helvetica,sans-Serif" font-size="10.00">src/utest/Utst_structured</text>
<text text-anchor="middle" x="429.53" y="-5.75" font-family="Helvetica,sans-Serif" font-size="10.00">_decomp.C</text>
</a>
</g>
</g>
<!-- Node10&#45;&gt;Node13 -->
<g id="edge17_Node000010_Node000013" class="edge">
<title>Node10&#45;&gt;Node13</title>
<g id="a_edge17_Node000010_Node000013"><a xlink:title=" ">
<path fill="none" stroke="#63b8ff" d="M430.19,-54.92C430.05,-46.99 429.9,-38.06 429.78,-30.78"/>
<polygon fill="#63b8ff" stroke="#63b8ff" points="426.68,-54.73 430.35,-64.67 433.68,-54.61 426.68,-54.73"/>
</a>
</g>
</g>
</g>
</svg>
