<?xml version="1.0" encoding="UTF-8" standalone="no"?>
<!DOCTYPE svg PUBLIC "-//W3C//DTD SVG 1.1//EN"
 "http://www.w3.org/Graphics/SVG/1.1/DTD/svg11.dtd">
<!-- Generated by graphviz version 6.0.1 (20220911.1526)
 -->
<!-- Title: src/main/shell_interface.h Pages: 1 -->
<svg width="359pt" height="137pt"
 viewBox="0.00 0.00 358.50 137.00" xmlns="http://www.w3.org/2000/svg" xmlns:xlink="http://www.w3.org/1999/xlink">
<g id="graph0" class="graph" transform="scale(1 1) rotate(0) translate(4 133)">
<title>src/main/shell_interface.h</title>
<!-- Node1 -->
<g id="node1" class="node">
<title>Node1</title>
<g id="a_node1"><a xlink:title=" ">
<polygon fill="#999999" stroke="#666666" points="272.5,-129 144.5,-129 144.5,-110 272.5,-110 272.5,-129"/>
<text text-anchor="middle" x="208.5" y="-117" font-family="Helvetica,sans-Serif" font-size="10.00">src/main/shell_interface.h</text>
</a>
</g>
</g>
<!-- Node2 -->
<g id="node2" class="node">
<title>Node2</title>
<g id="a_node2"><a xlink:href="Ioss__GetLongOpt_8h.html" target="_top" xlink:title=" ">
<polygon fill="white" stroke="#666666" points="107,-74 6,-74 6,-55 107,-55 107,-74"/>
<text text-anchor="middle" x="56.5" y="-62" font-family="Helvetica,sans-Serif" font-size="10.00">Ioss_GetLongOpt.h</text>
</a>
</g>
</g>
<!-- Node1&#45;&gt;Node2 -->
<g id="edge1" class="edge">
<title>Node1&#45;&gt;Node2</title>
<path fill="none" stroke="#63b8ff" d="M184.08,-109.98C158.78,-101.16 119.05,-87.31 90.64,-77.41"/>
<polygon fill="#63b8ff" stroke="#63b8ff" points="91.71,-74.07 81.11,-74.08 89.4,-80.68 91.71,-74.07"/>
</g>
<!-- Node5 -->
<g id="node5" class="node">
<title>Node5</title>
<g id="a_node5"><a xlink:title=" ">
<polygon fill="#e0e0e0" stroke="#999999" points="170,-74 125,-74 125,-55 170,-55 170,-74"/>
<text text-anchor="middle" x="147.5" y="-62" font-family="Helvetica,sans-Serif" font-size="10.00">iosfwd</text>
</a>
</g>
</g>
<!-- Node1&#45;&gt;Node5 -->
<g id="edge4" class="edge">
<title>Node1&#45;&gt;Node5</title>
<path fill="none" stroke="#63b8ff" d="M198.7,-109.98C189.68,-102.15 176.09,-90.34 165.18,-80.86"/>
<polygon fill="#63b8ff" stroke="#63b8ff" points="167.32,-78.09 157.48,-74.17 162.73,-83.37 167.32,-78.09"/>
</g>
<!-- Node6 -->
<g id="node6" class="node">
<title>Node6</title>
<g id="a_node6"><a xlink:title=" ">
<polygon fill="#e0e0e0" stroke="#999999" points="228.5,-74 188.5,-74 188.5,-55 228.5,-55 228.5,-74"/>
<text text-anchor="middle" x="208.5" y="-62" font-family="Helvetica,sans-Serif" font-size="10.00">limits</text>
</a>
</g>
</g>
<!-- Node1&#45;&gt;Node6 -->
<g id="edge5" class="edge">
<title>Node1&#45;&gt;Node6</title>
<path fill="none" stroke="#63b8ff" d="M208.5,-109.75C208.5,-102.8 208.5,-92.85 208.5,-84.13"/>
<polygon fill="#63b8ff" stroke="#63b8ff" points="212,-84.09 208.5,-74.09 205,-84.09 212,-84.09"/>
</g>
<!-- Node7 -->
<g id="node7" class="node">
<title>Node7</title>
<g id="a_node7"><a xlink:title=" ">
<polygon fill="#e0e0e0" stroke="#999999" points="288,-74 247,-74 247,-55 288,-55 288,-74"/>
<text text-anchor="middle" x="267.5" y="-62" font-family="Helvetica,sans-Serif" font-size="10.00">string</text>
</a>
</g>
</g>
<!-- Node1&#45;&gt;Node7 -->
<g id="edge6" class="edge">
<title>Node1&#45;&gt;Node7</title>
<path fill="none" stroke="#63b8ff" d="M217.98,-109.98C226.7,-102.15 239.84,-90.34 250.4,-80.86"/>
<polygon fill="#63b8ff" stroke="#63b8ff" points="252.75,-83.46 257.85,-74.17 248.07,-78.25 252.75,-83.46"/>
</g>
<!-- Node8 -->
<g id="node8" class="node">
<title>Node8</title>
<g id="a_node8"><a xlink:title=" ">
<polygon fill="#e0e0e0" stroke="#999999" points="350.5,-74 306.5,-74 306.5,-55 350.5,-55 350.5,-74"/>
<text text-anchor="middle" x="328.5" y="-62" font-family="Helvetica,sans-Serif" font-size="10.00">vector</text>
</a>
</g>
</g>
<!-- Node1&#45;&gt;Node8 -->
<g id="edge7" class="edge">
<title>Node1&#45;&gt;Node8</title>
<path fill="none" stroke="#63b8ff" d="M227.78,-109.98C247.17,-101.42 277.31,-88.11 299.57,-78.28"/>
<polygon fill="#63b8ff" stroke="#63b8ff" points="301.14,-81.41 308.87,-74.17 298.31,-75.01 301.14,-81.41"/>
</g>
<!-- Node3 -->
<g id="node3" class="node">
<title>Node3</title>
<g id="a_node3"><a xlink:title=" ">
<polygon fill="#e0e0e0" stroke="#999999" points="45,-19 0,-19 0,0 45,0 45,-19"/>
<text text-anchor="middle" x="22.5" y="-7" font-family="Helvetica,sans-Serif" font-size="10.00">cstdlib</text>
</a>
</g>
</g>
<!-- Node2&#45;&gt;Node3 -->
<g id="edge2" class="edge">
<title>Node2&#45;&gt;Node3</title>
<path fill="none" stroke="#63b8ff" d="M50.89,-54.75C46.18,-47.42 39.33,-36.73 33.53,-27.7"/>
<polygon fill="#63b8ff" stroke="#63b8ff" points="36.36,-25.62 28.01,-19.09 30.46,-29.4 36.36,-25.62"/>
</g>
<!-- Node4 -->
<g id="node4" class="node">
<title>Node4</title>
<g id="a_node4"><a xlink:title=" ">
<polygon fill="#e0e0e0" stroke="#999999" points="117.5,-19 63.5,-19 63.5,0 117.5,0 117.5,-19"/>
<text text-anchor="middle" x="90.5" y="-7" font-family="Helvetica,sans-Serif" font-size="10.00">iostream</text>
</a>
</g>
</g>
<!-- Node2&#45;&gt;Node4 -->
<g id="edge3" class="edge">
<title>Node2&#45;&gt;Node4</title>
<path fill="none" stroke="#63b8ff" d="M62.11,-54.75C66.82,-47.42 73.67,-36.73 79.47,-27.7"/>
<polygon fill="#63b8ff" stroke="#63b8ff" points="82.54,-29.4 84.99,-19.09 76.64,-25.62 82.54,-29.4"/>
</g>
</g>
</svg>
