<?xml version="1.0" encoding="UTF-8" standalone="no"?>
<!DOCTYPE svg PUBLIC "-//W3C//DTD SVG 1.1//EN"
 "http://www.w3.org/Graphics/SVG/1.1/DTD/svg11.dtd">
<!-- Generated by graphviz version 6.0.2 (20221011.1828)
 -->
<!-- Title: src/main/shell_interface.C Pages: 1 -->
<!--zoomable 302 -->
<svg id="main" version="1.1" xmlns="http://www.w3.org/2000/svg" xmlns:xlink="http://www.w3.org/1999/xlink" xml:space="preserve" onload="init(evt)">
<style type="text/css"><![CDATA[
.edge:hover path { stroke: red; }
.edge:hover polygon { stroke: red; fill: red; }
]]></style>
<script type="text/javascript"><![CDATA[
var edges = document.getElementsByTagName('g');
if (edges && edges.length) {
  for (var i=0;i<edges.length;i++) {
    if (edges[i].id.substr(0,4)=='edge') {
      edges[i].setAttribute('class','edge');
    }
  }
}
]]></script>
        <defs>
                <circle id="rim" cx="0" cy="0" r="7"/>
                <circle id="rim2" cx="0" cy="0" r="3.5"/>
                <g id="zoomPlus">
                        <use xlink:href="#rim" fill="#404040">
                                <set attributeName="fill" to="#808080" begin="zoomplus.mouseover" end="zoomplus.mouseout"/>
                        </use>
                        <path d="M-4,0h8M0,-4v8" fill="none" stroke="white" stroke-width="1.5" pointer-events="none"/>
                </g>
                <g id="zoomMin">
                        <use xlink:href="#rim" fill="#404040">
                                <set attributeName="fill" to="#808080" begin="zoomminus.mouseover" end="zoomminus.mouseout"/>
                        </use>
                        <path d="M-4,0h8" fill="none" stroke="white" stroke-width="1.5" pointer-events="none"/>
                </g>
                <g id="dirArrow">
                        <path fill="none" stroke="white" stroke-width="1.5" d="M0,-3.0v7 M-2.5,-0.5L0,-3.0L2.5,-0.5"/>
                </g>
               <g id="resetDef">
                       <use xlink:href="#rim2" fill="#404040">
                               <set attributeName="fill" to="#808080" begin="reset.mouseover" end="reset.mouseout"/>
                       </use>
               </g>
        </defs>

<script type="text/javascript">
var viewWidth = 1975;
var viewHeight = 302;
var sectionId = 'dynsection-0';
</script>
<script xlink:href="svgpan.js"/>
<svg id="graph" class="graph">
<g id="viewport">
<title>src/main/shell_interface.C</title>
<!-- Node1 -->
<g id="node1" class="node">
<title>Node1</title>
<g id="a_node1"><a xlink:title=" ">
<polygon fill="#999999" stroke="#666666" points="1567.36,-294 1436.36,-294 1436.36,-275 1567.36,-275 1567.36,-294"/>
<text text-anchor="middle" x="1501.86" y="-282" font-family="Helvetica,sans-Serif" font-size="10.00">src/main/shell_interface.C</text>
</a>
</g>
</g>
<!-- Node2 -->
<g id="node2" class="node">
<title>Node2</title>
<g id="a_node2"><a xlink:href="Ioss__CodeTypes_8h.html" target="_top" xlink:title=" ">
<polygon fill="white" stroke="#666666" points="629.86,-74 531.86,-74 531.86,-55 629.86,-55 629.86,-74"/>
<text text-anchor="middle" x="580.86" y="-62" font-family="Helvetica,sans-Serif" font-size="10.00">Ioss_CodeTypes.h</text>
</a>
</g>
</g>
<!-- Node1&#45;&gt;Node2 -->
<g id="edge1" class="edge">
<title>Node1&#45;&gt;Node2</title>
<path fill="none" stroke="#63b8ff" d="M1436.26,-284.3C1307.24,-284.82 1011.81,-280.82 767.86,-239 680.37,-224 640.78,-244.54 575.86,-184 550.94,-160.76 547.23,-142.96 555.86,-110 558.41,-100.26 563.61,-90.41 568.62,-82.46"/>
<polygon fill="#63b8ff" stroke="#63b8ff" points="571.55,-84.37 574.23,-74.12 565.74,-80.46 571.55,-84.37"/>
</g>
<!-- Node4 -->
<g id="node4" class="node">
<title>Node4</title>
<g id="a_node4"><a xlink:title=" ">
<polygon fill="#e0e0e0" stroke="#999999" points="383.36,-19 334.36,-19 334.36,0 383.36,0 383.36,-19"/>
<text text-anchor="middle" x="358.86" y="-7" font-family="Helvetica,sans-Serif" font-size="10.00">cstddef</text>
</a>
</g>
</g>
<!-- Node1&#45;&gt;Node4 -->
<g id="edge67" class="edge">
<title>Node1&#45;&gt;Node4</title>
<path fill="none" stroke="#63b8ff" d="M1435.91,-282.26C1146.22,-276.38 0.86,-248.53 0.86,-175.5 0.86,-175.5 0.86,-175.5 0.86,-118.5 0.86,-89.04 -2.57,-74.1 19.86,-55 65.13,-16.46 247.14,-10.99 324.16,-10.43"/>
<polygon fill="#63b8ff" stroke="#63b8ff" points="324.32,-13.93 334.3,-10.38 324.29,-6.93 324.32,-13.93"/>
</g>
<!-- Node6 -->
<g id="node6" class="node">
<title>Node6</title>
<g id="a_node6"><a xlink:title=" ">
<polygon fill="#e0e0e0" stroke="#999999" points="1132.36,-19 1091.36,-19 1091.36,0 1132.36,0 1132.36,-19"/>
<text text-anchor="middle" x="1111.86" y="-7" font-family="Helvetica,sans-Serif" font-size="10.00">string</text>
</a>
</g>
</g>
<!-- Node1&#45;&gt;Node6 -->
<g id="edge72" class="edge">
<title>Node1&#45;&gt;Node6</title>
<path fill="none" stroke="#63b8ff" d="M1506.86,-274.87C1516.76,-256.97 1537.86,-214.24 1537.86,-175.5 1537.86,-175.5 1537.86,-175.5 1537.86,-118.5 1537.86,-36.87 1240.23,-16.25 1142.52,-11.68"/>
<polygon fill="#63b8ff" stroke="#63b8ff" points="1142.55,-8.17 1132.4,-11.23 1142.24,-15.17 1142.55,-8.17"/>
</g>
<!-- Node7 -->
<g id="node7" class="node">
<title>Node7</title>
<g id="a_node7"><a xlink:title=" ">
<polygon fill="#e0e0e0" stroke="#999999" points="903.86,-19 859.86,-19 859.86,0 903.86,0 903.86,-19"/>
<text text-anchor="middle" x="881.86" y="-7" font-family="Helvetica,sans-Serif" font-size="10.00">vector</text>
</a>
</g>
</g>
<!-- Node1&#45;&gt;Node7 -->
<g id="edge73" class="edge">
<title>Node1&#45;&gt;Node7</title>
<path fill="none" stroke="#63b8ff" d="M1447.59,-274.97C1362.64,-260.08 1207.86,-226 1207.86,-175.5 1207.86,-175.5 1207.86,-175.5 1207.86,-118.5 1207.86,-89.04 1211.16,-74.25 1188.86,-55 1148.14,-19.86 984.06,-12.46 913.92,-10.91"/>
<polygon fill="#63b8ff" stroke="#63b8ff" points="913.95,-7.41 903.89,-10.72 913.82,-14.41 913.95,-7.41"/>
</g>
<!-- Node10 -->
<g id="node10" class="node">
<title>Node10</title>
<g id="a_node10"><a xlink:href="Ioss__GetLongOpt_8h.html" target="_top" xlink:title=" ">
<polygon fill="white" stroke="#666666" points="1667.36,-184 1566.36,-184 1566.36,-165 1667.36,-165 1667.36,-184"/>
<text text-anchor="middle" x="1616.86" y="-172" font-family="Helvetica,sans-Serif" font-size="10.00">Ioss_GetLongOpt.h</text>
</a>
</g>
</g>
<!-- Node1&#45;&gt;Node10 -->
<g id="edge9" class="edge">
<title>Node1&#45;&gt;Node10</title>
<path fill="none" stroke="#63b8ff" d="M1511.94,-274.77C1522.13,-265.89 1538.26,-251.68 1551.86,-239 1568.86,-223.14 1587.84,-204.49 1600.87,-191.52"/>
<polygon fill="#63b8ff" stroke="#63b8ff" points="1603.55,-193.8 1608.15,-184.26 1598.6,-188.85 1603.55,-193.8"/>
</g>
<!-- Node11 -->
<g id="node11" class="node">
<title>Node11</title>
<g id="a_node11"><a xlink:title=" ">
<polygon fill="#e0e0e0" stroke="#999999" points="1625.36,-129 1580.36,-129 1580.36,-110 1625.36,-110 1625.36,-129"/>
<text text-anchor="middle" x="1602.86" y="-117" font-family="Helvetica,sans-Serif" font-size="10.00">cstdlib</text>
</a>
</g>
</g>
<!-- Node1&#45;&gt;Node11 -->
<g id="edge68" class="edge">
<title>Node1&#45;&gt;Node11</title>
<path fill="none" stroke="#63b8ff" d="M1536.98,-274.96C1578.82,-262.7 1646.8,-235.66 1676.86,-184 1689.92,-161.55 1660.75,-143.21 1635.28,-132.11"/>
<polygon fill="#63b8ff" stroke="#63b8ff" points="1636.37,-128.77 1625.79,-128.21 1633.72,-135.25 1636.37,-128.77"/>
</g>
<!-- Node12 -->
<g id="node12" class="node">
<title>Node12</title>
<g id="a_node12"><a xlink:title=" ">
<polygon fill="#e0e0e0" stroke="#999999" points="1697.86,-129 1643.86,-129 1643.86,-110 1697.86,-110 1697.86,-129"/>
<text text-anchor="middle" x="1670.86" y="-117" font-family="Helvetica,sans-Serif" font-size="10.00">iostream</text>
</a>
</g>
</g>
<!-- Node1&#45;&gt;Node12 -->
<g id="edge71" class="edge">
<title>Node1&#45;&gt;Node12</title>
<path fill="none" stroke="#63b8ff" d="M1555.09,-274.96C1584.04,-268.48 1619.42,-257.43 1646.86,-239 1673.08,-221.39 1681.24,-213.75 1691.86,-184 1697.39,-168.49 1690.35,-150.67 1682.96,-137.87"/>
<polygon fill="#63b8ff" stroke="#63b8ff" points="1685.76,-135.74 1677.45,-129.17 1679.85,-139.49 1685.76,-135.74"/>
</g>
<!-- Node13 -->
<g id="node13" class="node">
<title>Node13</title>
<g id="a_node13"><a xlink:href="Ioss__Sort_8h.html" target="_top" xlink:title=" ">
<polygon fill="white" stroke="#666666" points="362.36,-184 295.36,-184 295.36,-165 362.36,-165 362.36,-184"/>
<text text-anchor="middle" x="328.86" y="-172" font-family="Helvetica,sans-Serif" font-size="10.00">Ioss_Sort.h</text>
</a>
</g>
</g>
<!-- Node1&#45;&gt;Node13 -->
<g id="edge12" class="edge">
<title>Node1&#45;&gt;Node13</title>
<path fill="none" stroke="#63b8ff" d="M1436.28,-283.42C1242.09,-282.74 672.29,-277.44 490.86,-239 440.72,-228.38 385.9,-203.95 354.61,-188.68"/>
<polygon fill="#63b8ff" stroke="#63b8ff" points="355.83,-185.38 345.32,-184.07 352.72,-191.65 355.83,-185.38"/>
</g>
<!-- Node19 -->
<g id="node19" class="node">
<title>Node19</title>
<g id="a_node19"><a xlink:href="Ioss__Utils_8h.html" target="_top" xlink:title=" ">
<polygon fill="white" stroke="#666666" points="845.36,-239 776.36,-239 776.36,-220 845.36,-220 845.36,-239"/>
<text text-anchor="middle" x="810.86" y="-227" font-family="Helvetica,sans-Serif" font-size="10.00">Ioss_Utils.h</text>
</a>
</g>
</g>
<!-- Node1&#45;&gt;Node19 -->
<g id="edge21" class="edge">
<title>Node1&#45;&gt;Node19</title>
<path fill="none" stroke="#63b8ff" d="M1436.23,-278.47C1296.92,-267.78 974.7,-243.07 855.9,-233.96"/>
<polygon fill="#63b8ff" stroke="#63b8ff" points="855.95,-230.45 845.71,-233.17 855.42,-237.43 855.95,-230.45"/>
</g>
<!-- Node32 -->
<g id="node32" class="node">
<title>Node32</title>
<g id="a_node32"><a xlink:href="shell__interface_8h.html" target="_top" xlink:title=" ">
<polygon fill="white" stroke="#666666" points="1494.86,-239 1406.86,-239 1406.86,-220 1494.86,-220 1494.86,-239"/>
<text text-anchor="middle" x="1450.86" y="-227" font-family="Helvetica,sans-Serif" font-size="10.00">shell_interface.h</text>
</a>
</g>
</g>
<!-- Node1&#45;&gt;Node32 -->
<g id="edge57" class="edge">
<title>Node1&#45;&gt;Node32</title>
<path fill="none" stroke="#63b8ff" d="M1493.44,-274.75C1486.08,-267.11 1475.23,-255.82 1466.31,-246.56"/>
<polygon fill="#63b8ff" stroke="#63b8ff" points="1468.58,-243.87 1459.12,-239.09 1463.53,-248.72 1468.58,-243.87"/>
</g>
<!-- Node34 -->
<g id="node34" class="node">
<title>Node34</title>
<g id="a_node34"><a xlink:href="tokenize_8h.html" target="_top" xlink:title=" ">
<polygon fill="white" stroke="#666666" points="1335.86,-74 1273.86,-74 1273.86,-55 1335.86,-55 1335.86,-74"/>
<text text-anchor="middle" x="1304.86" y="-62" font-family="Helvetica,sans-Serif" font-size="10.00">tokenize.h</text>
</a>
</g>
</g>
<!-- Node1&#45;&gt;Node34 -->
<g id="edge63" class="edge">
<title>Node1&#45;&gt;Node34</title>
<path fill="none" stroke="#63b8ff" d="M1466.73,-274.92C1444.85,-268.13 1417.26,-256.77 1397.86,-239 1349.42,-194.63 1321.29,-119.09 1310.28,-84.19"/>
<polygon fill="#63b8ff" stroke="#63b8ff" points="1313.56,-82.93 1307.3,-74.38 1306.86,-84.96 1313.56,-82.93"/>
</g>
<!-- Node35 -->
<g id="node35" class="node">
<title>Node35</title>
<g id="a_node35"><a xlink:title=" ">
<polygon fill="#e0e0e0" stroke="#999999" points="1807.86,-239 1761.86,-239 1761.86,-220 1807.86,-220 1807.86,-239"/>
<text text-anchor="middle" x="1784.86" y="-227" font-family="Helvetica,sans-Serif" font-size="10.00">cctype</text>
</a>
</g>
</g>
<!-- Node1&#45;&gt;Node35 -->
<g id="edge66" class="edge">
<title>Node1&#45;&gt;Node35</title>
<path fill="none" stroke="#63b8ff" d="M1552.87,-274.99C1602.72,-266.5 1680.68,-252.78 1747.86,-239 1749.13,-238.74 1750.42,-238.47 1751.73,-238.19"/>
<polygon fill="#63b8ff" stroke="#63b8ff" points="1752.79,-241.54 1761.8,-235.97 1751.28,-234.7 1752.79,-241.54"/>
</g>
<!-- Node36 -->
<g id="node36" class="node">
<title>Node36</title>
<g id="a_node36"><a xlink:title=" ">
<polygon fill="#e0e0e0" stroke="#999999" points="1871.86,-239 1825.86,-239 1825.86,-220 1871.86,-220 1871.86,-239"/>
<text text-anchor="middle" x="1848.86" y="-227" font-family="Helvetica,sans-Serif" font-size="10.00">cstring</text>
</a>
</g>
</g>
<!-- Node1&#45;&gt;Node36 -->
<g id="edge69" class="edge">
<title>Node1&#45;&gt;Node36</title>
<path fill="none" stroke="#63b8ff" d="M1567.4,-276.55C1629.14,-269.48 1724.35,-257.23 1815.56,-239.06"/>
<polygon fill="#63b8ff" stroke="#63b8ff" points="1816.41,-242.46 1825.51,-237.04 1815.02,-235.59 1816.41,-242.46"/>
</g>
<!-- Node37 -->
<g id="node37" class="node">
<title>Node37</title>
<g id="a_node37"><a xlink:title=" ">
<polygon fill="#e0e0e0" stroke="#999999" points="1967.36,-239 1890.36,-239 1890.36,-220 1967.36,-220 1967.36,-239"/>
<text text-anchor="middle" x="1928.86" y="-227" font-family="Helvetica,sans-Serif" font-size="10.00">fmt/ostream.h</text>
</a>
</g>
</g>
<!-- Node1&#45;&gt;Node37 -->
<g id="edge70" class="edge">
<title>Node1&#45;&gt;Node37</title>
<path fill="none" stroke="#63b8ff" d="M1567.4,-276.98C1640.94,-269.4 1764.02,-255.92 1880,-239.04"/>
<polygon fill="#63b8ff" stroke="#63b8ff" points="1880.73,-242.47 1890.12,-237.56 1879.71,-235.55 1880.73,-242.47"/>
</g>
<!-- Node3 -->
<g id="node3" class="node">
<title>Node3</title>
<g id="a_node3"><a xlink:title=" ">
<polygon fill="#e0e0e0" stroke="#999999" points="651.86,-19 613.86,-19 613.86,0 651.86,0 651.86,-19"/>
<text text-anchor="middle" x="632.86" y="-7" font-family="Helvetica,sans-Serif" font-size="10.00">array</text>
</a>
</g>
</g>
<!-- Node2&#45;&gt;Node3 -->
<g id="edge2" class="edge">
<title>Node2&#45;&gt;Node3</title>
<path fill="none" stroke="#63b8ff" d="M589.44,-54.75C597.02,-47.03 608.24,-35.6 617.37,-26.28"/>
<polygon fill="#63b8ff" stroke="#63b8ff" points="619.93,-28.68 624.43,-19.09 614.93,-23.78 619.93,-28.68"/>
</g>
<!-- Node2&#45;&gt;Node4 -->
<g id="edge3" class="edge">
<title>Node2&#45;&gt;Node4</title>
<path fill="none" stroke="#63b8ff" d="M545.19,-54.98C503.38,-45 434.58,-28.58 393.31,-18.72"/>
<polygon fill="#63b8ff" stroke="#63b8ff" points="393.98,-15.29 383.44,-16.37 392.35,-22.1 393.98,-15.29"/>
</g>
<!-- Node5 -->
<g id="node5" class="node">
<title>Node5</title>
<g id="a_node5"><a xlink:title=" ">
<polygon fill="#e0e0e0" stroke="#999999" points="715.86,-19 669.86,-19 669.86,0 715.86,0 715.86,-19"/>
<text text-anchor="middle" x="692.86" y="-7" font-family="Helvetica,sans-Serif" font-size="10.00">cstdint</text>
</a>
</g>
</g>
<!-- Node2&#45;&gt;Node5 -->
<g id="edge4" class="edge">
<title>Node2&#45;&gt;Node5</title>
<path fill="none" stroke="#63b8ff" d="M598.85,-54.98C616.79,-46.5 644.57,-33.35 665.29,-23.54"/>
<polygon fill="#63b8ff" stroke="#63b8ff" points="666.99,-26.61 674.54,-19.17 664,-20.28 666.99,-26.61"/>
</g>
<!-- Node2&#45;&gt;Node6 -->
<g id="edge5" class="edge">
<title>Node2&#45;&gt;Node6</title>
<path fill="none" stroke="#63b8ff" d="M629.86,-58.61C737.69,-47.85 992.93,-22.37 1081.2,-13.56"/>
<polygon fill="#63b8ff" stroke="#63b8ff" points="1081.74,-17.02 1091.35,-12.55 1081.05,-10.06 1081.74,-17.02"/>
</g>
<!-- Node2&#45;&gt;Node7 -->
<g id="edge6" class="edge">
<title>Node2&#45;&gt;Node7</title>
<path fill="none" stroke="#63b8ff" d="M629.22,-54.98C691.1,-44.09 796.59,-25.51 849.53,-16.19"/>
<polygon fill="#63b8ff" stroke="#63b8ff" points="850.46,-19.58 859.7,-14.4 849.24,-12.69 850.46,-19.58"/>
</g>
<!-- Node8 -->
<g id="node8" class="node">
<title>Node8</title>
<g id="a_node8"><a xlink:title=" ">
<polygon fill="#e0e0e0" stroke="#999999" points="523.86,-19 407.86,-19 407.86,0 523.86,0 523.86,-19"/>
<text text-anchor="middle" x="465.86" y="-7" font-family="Helvetica,sans-Serif" font-size="10.00">SEACASIoss_config.h</text>
</a>
</g>
</g>
<!-- Node2&#45;&gt;Node8 -->
<g id="edge7" class="edge">
<title>Node2&#45;&gt;Node8</title>
<path fill="none" stroke="#63b8ff" d="M562.38,-54.98C543.88,-46.46 515.18,-33.23 493.87,-23.41"/>
<polygon fill="#63b8ff" stroke="#63b8ff" points="495.22,-20.18 484.67,-19.17 492.29,-26.53 495.22,-20.18"/>
</g>
<!-- Node9 -->
<g id="node9" class="node">
<title>Node9</title>
<g id="a_node9"><a xlink:title=" ">
<polygon fill="#e0e0e0" stroke="#999999" points="595.36,-19 542.36,-19 542.36,0 595.36,0 595.36,-19"/>
<text text-anchor="middle" x="568.86" y="-7" font-family="Helvetica,sans-Serif" font-size="10.00">complex</text>
</a>
</g>
</g>
<!-- Node2&#45;&gt;Node9 -->
<g id="edge8" class="edge">
<title>Node2&#45;&gt;Node9</title>
<path fill="none" stroke="#63b8ff" d="M578.88,-54.75C577.29,-47.72 575,-37.62 573.01,-28.84"/>
<polygon fill="#63b8ff" stroke="#63b8ff" points="576.42,-28.07 570.8,-19.09 569.6,-29.62 576.42,-28.07"/>
</g>
<!-- Node10&#45;&gt;Node11 -->
<g id="edge10" class="edge">
<title>Node10&#45;&gt;Node11</title>
<path fill="none" stroke="#63b8ff" d="M1614.55,-164.75C1612.69,-157.72 1610.02,-147.62 1607.7,-138.84"/>
<polygon fill="#63b8ff" stroke="#63b8ff" points="1611.06,-137.86 1605.13,-129.09 1604.3,-139.65 1611.06,-137.86"/>
</g>
<!-- Node10&#45;&gt;Node12 -->
<g id="edge11" class="edge">
<title>Node10&#45;&gt;Node12</title>
<path fill="none" stroke="#63b8ff" d="M1625.77,-164.75C1633.64,-157.03 1645.29,-145.6 1654.78,-136.28"/>
<polygon fill="#63b8ff" stroke="#63b8ff" points="1657.42,-138.59 1662.11,-129.09 1652.52,-133.6 1657.42,-138.59"/>
</g>
<!-- Node13&#45;&gt;Node4 -->
<g id="edge19" class="edge">
<title>Node13&#45;&gt;Node4</title>
<path fill="none" stroke="#63b8ff" d="M330.1,-164.85C331.89,-152.62 335.35,-129.55 338.86,-110 343.92,-81.74 350.64,-49.15 354.86,-29.19"/>
<polygon fill="#63b8ff" stroke="#63b8ff" points="358.31,-29.77 356.97,-19.26 351.46,-28.31 358.31,-29.77"/>
</g>
<!-- Node13&#45;&gt;Node7 -->
<g id="edge20" class="edge">
<title>Node13&#45;&gt;Node7</title>
<path fill="none" stroke="#63b8ff" d="M339.38,-164.77C367.25,-142.2 446.1,-81.79 522.86,-55 583.03,-34 773.43,-18.33 849.75,-12.73"/>
<polygon fill="#63b8ff" stroke="#63b8ff" points="850.02,-16.22 859.74,-12.01 849.51,-9.24 850.02,-16.22"/>
</g>
<!-- Node14 -->
<g id="node14" class="node">
<title>Node14</title>
<g id="a_node14"><a xlink:href="pdqsort_8h.html" target="_top" xlink:title=" ">
<polygon fill="white" stroke="#666666" points="244.36,-129 187.36,-129 187.36,-110 244.36,-110 244.36,-129"/>
<text text-anchor="middle" x="215.86" y="-117" font-family="Helvetica,sans-Serif" font-size="10.00">pdqsort.h</text>
</a>
</g>
</g>
<!-- Node13&#45;&gt;Node14 -->
<g id="edge13" class="edge">
<title>Node13&#45;&gt;Node14</title>
<path fill="none" stroke="#63b8ff" d="M310.7,-164.98C292.61,-156.5 264.57,-143.35 243.67,-133.54"/>
<polygon fill="#63b8ff" stroke="#63b8ff" points="244.88,-130.25 234.34,-129.17 241.91,-136.59 244.88,-130.25"/>
</g>
<!-- Node14&#45;&gt;Node4 -->
<g id="edge15" class="edge">
<title>Node14&#45;&gt;Node4</title>
<path fill="none" stroke="#63b8ff" d="M219.69,-109.99C226.08,-96.65 240.08,-70.73 258.86,-55 278.01,-38.96 303.87,-27.66 324.49,-20.46"/>
<polygon fill="#63b8ff" stroke="#63b8ff" points="325.76,-23.72 334.15,-17.25 323.55,-17.08 325.76,-23.72"/>
</g>
<!-- Node15 -->
<g id="node15" class="node">
<title>Node15</title>
<g id="a_node15"><a xlink:title=" ">
<polygon fill="#e0e0e0" stroke="#999999" points="323.86,-74 267.86,-74 267.86,-55 323.86,-55 323.86,-74"/>
<text text-anchor="middle" x="295.86" y="-62" font-family="Helvetica,sans-Serif" font-size="10.00">algorithm</text>
</a>
</g>
</g>
<!-- Node14&#45;&gt;Node15 -->
<g id="edge14" class="edge">
<title>Node14&#45;&gt;Node15</title>
<path fill="none" stroke="#63b8ff" d="M228.71,-109.98C241,-101.84 259.76,-89.41 274.34,-79.76"/>
<polygon fill="#63b8ff" stroke="#63b8ff" points="276.37,-82.61 282.77,-74.17 272.5,-76.78 276.37,-82.61"/>
</g>
<!-- Node16 -->
<g id="node16" class="node">
<title>Node16</title>
<g id="a_node16"><a xlink:title=" ">
<polygon fill="#e0e0e0" stroke="#999999" points="88.36,-74 29.36,-74 29.36,-55 88.36,-55 88.36,-74"/>
<text text-anchor="middle" x="58.86" y="-62" font-family="Helvetica,sans-Serif" font-size="10.00">functional</text>
</a>
</g>
</g>
<!-- Node14&#45;&gt;Node16 -->
<g id="edge16" class="edge">
<title>Node14&#45;&gt;Node16</title>
<path fill="none" stroke="#63b8ff" d="M190.63,-109.98C164.5,-101.16 123.46,-87.31 94.12,-77.41"/>
<polygon fill="#63b8ff" stroke="#63b8ff" points="94.87,-73.96 84.28,-74.08 92.64,-80.6 94.87,-73.96"/>
</g>
<!-- Node17 -->
<g id="node17" class="node">
<title>Node17</title>
<g id="a_node17"><a xlink:title=" ">
<polygon fill="#e0e0e0" stroke="#999999" points="153.36,-74 106.36,-74 106.36,-55 153.36,-55 153.36,-74"/>
<text text-anchor="middle" x="129.86" y="-62" font-family="Helvetica,sans-Serif" font-size="10.00">iterator</text>
</a>
</g>
</g>
<!-- Node14&#45;&gt;Node17 -->
<g id="edge17" class="edge">
<title>Node14&#45;&gt;Node17</title>
<path fill="none" stroke="#63b8ff" d="M202.04,-109.98C188.7,-101.77 168.28,-89.18 152.55,-79.49"/>
<polygon fill="#63b8ff" stroke="#63b8ff" points="154.28,-76.44 143.93,-74.17 150.6,-82.4 154.28,-76.44"/>
</g>
<!-- Node18 -->
<g id="node18" class="node">
<title>Node18</title>
<g id="a_node18"><a xlink:title=" ">
<polygon fill="#e0e0e0" stroke="#999999" points="211.86,-74 171.86,-74 171.86,-55 211.86,-55 211.86,-74"/>
<text text-anchor="middle" x="191.86" y="-62" font-family="Helvetica,sans-Serif" font-size="10.00">utility</text>
</a>
</g>
</g>
<!-- Node14&#45;&gt;Node18 -->
<g id="edge18" class="edge">
<title>Node14&#45;&gt;Node18</title>
<path fill="none" stroke="#63b8ff" d="M211.89,-109.75C208.64,-102.57 203.94,-92.18 199.9,-83.27"/>
<polygon fill="#63b8ff" stroke="#63b8ff" points="203.06,-81.75 195.75,-74.09 196.68,-84.64 203.06,-81.75"/>
</g>
<!-- Node19&#45;&gt;Node2 -->
<g id="edge22" class="edge">
<title>Node19&#45;&gt;Node2</title>
<path fill="none" stroke="#63b8ff" d="M776.25,-228.22C732.78,-226.36 657.41,-217.96 603.86,-184 577.88,-167.53 571.71,-158.14 561.86,-129 556.63,-113.54 563.03,-95.72 569.77,-82.9"/>
<polygon fill="#63b8ff" stroke="#63b8ff" points="572.83,-84.6 574.81,-74.19 566.77,-81.09 572.83,-84.6"/>
</g>
<!-- Node19&#45;&gt;Node4 -->
<g id="edge50" class="edge">
<title>Node19&#45;&gt;Node4</title>
<path fill="none" stroke="#63b8ff" d="M776.33,-228.55C724.87,-227.34 626.17,-220.01 551.86,-184 471.49,-145.06 399.88,-62.42 371.64,-27.08"/>
<polygon fill="#63b8ff" stroke="#63b8ff" points="374.35,-24.87 365.42,-19.18 368.85,-29.2 374.35,-24.87"/>
</g>
<!-- Node19&#45;&gt;Node5 -->
<g id="edge51" class="edge">
<title>Node19&#45;&gt;Node5</title>
<path fill="none" stroke="#63b8ff" d="M776.02,-225.74C718.45,-220.55 606.74,-207.7 575.86,-184 532.8,-150.97 534.94,-126.91 522.86,-74 508.82,-12.52 589.23,-33.64 659.89,-18.96"/>
<polygon fill="#63b8ff" stroke="#63b8ff" points="660.85,-22.33 669.79,-16.64 659.25,-15.52 660.85,-22.33"/>
</g>
<!-- Node19&#45;&gt;Node6 -->
<g id="edge55" class="edge">
<title>Node19&#45;&gt;Node6</title>
<path fill="none" stroke="#63b8ff" d="M845.64,-228.45C922.7,-227.64 1104.67,-221.67 1150.86,-184 1197.18,-146.22 1218.73,-106.77 1188.86,-55 1178.79,-37.56 1159,-26.34 1142.01,-19.53"/>
<polygon fill="#63b8ff" stroke="#63b8ff" points="1143.01,-16.17 1132.42,-16.02 1140.6,-22.74 1143.01,-16.17"/>
</g>
<!-- Node19&#45;&gt;Node7 -->
<g id="edge56" class="edge">
<title>Node19&#45;&gt;Node7</title>
<path fill="none" stroke="#63b8ff" d="M810.97,-219.64C811.65,-205.82 815.07,-179.25 830.86,-165 889.8,-111.79 949.86,-185.3 1005.86,-129 1029.3,-105.42 1036.34,-81.94 1016.86,-55 993.53,-22.75 946.02,-13.47 914.05,-11.02"/>
<polygon fill="#63b8ff" stroke="#63b8ff" points="914.05,-7.52 903.86,-10.43 913.64,-14.51 914.05,-7.52"/>
</g>
<!-- Node19&#45;&gt;Node11 -->
<g id="edge52" class="edge">
<title>Node19&#45;&gt;Node11</title>
<path fill="none" stroke="#63b8ff" d="M845.48,-225.52C911.55,-219.58 1060.09,-205 1183.86,-184 1222.45,-177.45 1231.31,-171.82 1269.86,-165 1379.3,-145.63 1510.32,-130.44 1570.16,-123.94"/>
<polygon fill="#63b8ff" stroke="#63b8ff" points="1570.58,-127.42 1580.14,-122.86 1569.83,-120.46 1570.58,-127.42"/>
</g>
<!-- Node19&#45;&gt;Node12 -->
<g id="edge53" class="edge">
<title>Node19&#45;&gt;Node12</title>
<path fill="none" stroke="#63b8ff" d="M845.64,-225.93C958.38,-217.26 1323.81,-186.48 1633.71,-129.06"/>
<polygon fill="#63b8ff" stroke="#63b8ff" points="1634.6,-132.45 1643.79,-127.18 1633.32,-125.57 1634.6,-132.45"/>
</g>
<!-- Node19&#45;&gt;Node13 -->
<g id="edge46" class="edge">
<title>Node19&#45;&gt;Node13</title>
<path fill="none" stroke="#63b8ff" d="M776.16,-225.81C702.43,-219.9 524.82,-204.66 376.86,-184 375.39,-183.8 373.9,-183.58 372.4,-183.35"/>
<polygon fill="#63b8ff" stroke="#63b8ff" points="372.8,-179.87 362.38,-181.76 371.7,-186.79 372.8,-179.87"/>
</g>
<!-- Node19&#45;&gt;Node15 -->
<g id="edge47" class="edge">
<title>Node19&#45;&gt;Node15</title>
<path fill="none" stroke="#63b8ff" d="M776.35,-227.52C692.16,-224.67 478.47,-214.54 414.86,-184 366.42,-160.75 326.06,-109.57 307.24,-82.72"/>
<polygon fill="#63b8ff" stroke="#63b8ff" points="310.04,-80.6 301.51,-74.32 304.26,-84.55 310.04,-80.6"/>
</g>
<!-- Node20 -->
<g id="node20" class="node">
<title>Node20</title>
<g id="a_node20"><a xlink:href="Ioss__ElementTopology_8h.html" target="_top" xlink:title=" ">
<polygon fill="white" stroke="#666666" points="782.86,-184 660.86,-184 660.86,-165 782.86,-165 782.86,-184"/>
<text text-anchor="middle" x="721.86" y="-172" font-family="Helvetica,sans-Serif" font-size="10.00">Ioss_ElementTopology.h</text>
</a>
</g>
</g>
<!-- Node19&#45;&gt;Node20 -->
<g id="edge23" class="edge">
<title>Node19&#45;&gt;Node20</title>
<path fill="none" stroke="#63b8ff" d="M796.56,-219.98C782.76,-211.77 761.62,-199.18 745.34,-189.49"/>
<polygon fill="#63b8ff" stroke="#63b8ff" points="746.8,-186.28 736.42,-184.17 743.22,-192.29 746.8,-186.28"/>
</g>
<!-- Node26 -->
<g id="node26" class="node">
<title>Node26</title>
<g id="a_node26"><a xlink:href="Ioss__EntityType_8h.html" target="_top" xlink:title=" ">
<polygon fill="white" stroke="#666666" points="934.36,-184 839.36,-184 839.36,-165 934.36,-165 934.36,-184"/>
<text text-anchor="middle" x="886.86" y="-172" font-family="Helvetica,sans-Serif" font-size="10.00">Ioss_EntityType.h</text>
</a>
</g>
</g>
<!-- Node19&#45;&gt;Node26 -->
<g id="edge36" class="edge">
<title>Node19&#45;&gt;Node26</title>
<path fill="none" stroke="#63b8ff" d="M823.07,-219.98C834.63,-211.92 852.23,-199.65 866.02,-190.03"/>
<polygon fill="#63b8ff" stroke="#63b8ff" points="868.22,-192.76 874.42,-184.17 864.22,-187.02 868.22,-192.76"/>
</g>
<!-- Node27 -->
<g id="node27" class="node">
<title>Node27</title>
<g id="a_node27"><a xlink:href="Ioss__Field_8h.html" target="_top" xlink:title=" ">
<polygon fill="white" stroke="#666666" points="640.86,-129 570.86,-129 570.86,-110 640.86,-110 640.86,-129"/>
<text text-anchor="middle" x="605.86" y="-117" font-family="Helvetica,sans-Serif" font-size="10.00">Ioss_Field.h</text>
</a>
</g>
</g>
<!-- Node19&#45;&gt;Node27 -->
<g id="edge37" class="edge">
<title>Node19&#45;&gt;Node27</title>
<path fill="none" stroke="#63b8ff" d="M776.23,-224.94C727.02,-219.17 640.41,-206.12 618.86,-184 607.46,-172.3 604.8,-153.45 604.65,-139.32"/>
<polygon fill="#63b8ff" stroke="#63b8ff" points="608.15,-139.32 604.93,-129.22 601.15,-139.12 608.15,-139.32"/>
</g>
<!-- Node28 -->
<g id="node28" class="node">
<title>Node28</title>
<g id="a_node28"><a xlink:href="Ioss__Property_8h.html" target="_top" xlink:title=" ">
<polygon fill="white" stroke="#666666" points="769.86,-74 685.86,-74 685.86,-55 769.86,-55 769.86,-74"/>
<text text-anchor="middle" x="727.86" y="-62" font-family="Helvetica,sans-Serif" font-size="10.00">Ioss_Property.h</text>
</a>
</g>
</g>
<!-- Node19&#45;&gt;Node28 -->
<g id="edge42" class="edge">
<title>Node19&#45;&gt;Node28</title>
<path fill="none" stroke="#63b8ff" d="M776.28,-223.73C734.19,-217.13 666.84,-203.75 651.86,-184 624.84,-148.38 675.25,-103.15 706.22,-80.24"/>
<polygon fill="#63b8ff" stroke="#63b8ff" points="708.64,-82.81 714.73,-74.14 704.56,-77.12 708.64,-82.81"/>
</g>
<!-- Node29 -->
<g id="node29" class="node">
<title>Node29</title>
<g id="a_node29"><a xlink:title=" ">
<polygon fill="#e0e0e0" stroke="#999999" points="1001.36,-184 952.36,-184 952.36,-165 1001.36,-165 1001.36,-184"/>
<text text-anchor="middle" x="976.86" y="-172" font-family="Helvetica,sans-Serif" font-size="10.00">cassert</text>
</a>
</g>
</g>
<!-- Node19&#45;&gt;Node29 -->
<g id="edge48" class="edge">
<title>Node19&#45;&gt;Node29</title>
<path fill="none" stroke="#63b8ff" d="M837.53,-219.98C866.06,-210.88 911.4,-196.4 942.57,-186.45"/>
<polygon fill="#63b8ff" stroke="#63b8ff" points="943.69,-189.76 952.15,-183.39 941.56,-183.1 943.69,-189.76"/>
</g>
<!-- Node30 -->
<g id="node30" class="node">
<title>Node30</title>
<g id="a_node30"><a xlink:title=" ">
<polygon fill="#e0e0e0" stroke="#999999" points="1063.86,-184 1019.86,-184 1019.86,-165 1063.86,-165 1063.86,-184"/>
<text text-anchor="middle" x="1041.86" y="-172" font-family="Helvetica,sans-Serif" font-size="10.00">cmath</text>
</a>
</g>
</g>
<!-- Node19&#45;&gt;Node30 -->
<g id="edge49" class="edge">
<title>Node19&#45;&gt;Node30</title>
<path fill="none" stroke="#63b8ff" d="M845.66,-221.29C883.71,-213.3 946.67,-199.72 1009.82,-184.17"/>
<polygon fill="#63b8ff" stroke="#63b8ff" points="1010.68,-187.56 1019.54,-181.76 1008.99,-180.77 1010.68,-187.56"/>
</g>
<!-- Node31 -->
<g id="node31" class="node">
<title>Node31</title>
<g id="a_node31"><a xlink:title=" ">
<polygon fill="#e0e0e0" stroke="#999999" points="1141.36,-184 1082.36,-184 1082.36,-165 1141.36,-165 1141.36,-184"/>
<text text-anchor="middle" x="1111.86" y="-172" font-family="Helvetica,sans-Serif" font-size="10.00">stdexcept</text>
</a>
</g>
</g>
<!-- Node19&#45;&gt;Node31 -->
<g id="edge54" class="edge">
<title>Node19&#45;&gt;Node31</title>
<path fill="none" stroke="#63b8ff" d="M845.7,-223.11C894.12,-215.5 984.73,-200.85 1072,-184.09"/>
<polygon fill="#63b8ff" stroke="#63b8ff" points="1072.92,-187.47 1082.08,-182.14 1071.59,-180.6 1072.92,-187.47"/>
</g>
<!-- Node20&#45;&gt;Node2 -->
<g id="edge24" class="edge">
<title>Node20&#45;&gt;Node2</title>
<path fill="none" stroke="#63b8ff" d="M712.91,-164.82C699.66,-152.14 673.78,-128.1 649.86,-110 635.27,-98.96 617.96,-87.8 604.33,-79.42"/>
<polygon fill="#63b8ff" stroke="#63b8ff" points="605.92,-76.29 595.56,-74.1 602.29,-82.28 605.92,-76.29"/>
</g>
<!-- Node20&#45;&gt;Node6 -->
<g id="edge34" class="edge">
<title>Node20&#45;&gt;Node6</title>
<path fill="none" stroke="#63b8ff" d="M782.91,-168.76C854.58,-162.36 968.43,-149.36 1005.86,-129 1050.34,-104.8 1085.51,-54.42 1101.87,-27.82"/>
<polygon fill="#63b8ff" stroke="#63b8ff" points="1104.9,-29.57 1107.02,-19.19 1098.89,-25.98 1104.9,-29.57"/>
</g>
<!-- Node20&#45;&gt;Node7 -->
<g id="edge35" class="edge">
<title>Node20&#45;&gt;Node7</title>
<path fill="none" stroke="#63b8ff" d="M726.58,-164.73C733.7,-151.95 748.04,-127.77 763.86,-110 794.16,-75.95 836.3,-43.22 861.16,-25.09"/>
<polygon fill="#63b8ff" stroke="#63b8ff" points="863.41,-27.78 869.48,-19.09 859.32,-22.1 863.41,-27.78"/>
</g>
<!-- Node21 -->
<g id="node21" class="node">
<title>Node21</title>
<g id="a_node21"><a xlink:href="Ioss__ElementPermutation_8h.html" target="_top" xlink:title=" ">
<polygon fill="white" stroke="#666666" points="996.36,-129 859.36,-129 859.36,-110 996.36,-110 996.36,-129"/>
<text text-anchor="middle" x="927.86" y="-117" font-family="Helvetica,sans-Serif" font-size="10.00">Ioss_ElementPermutation.h</text>
</a>
</g>
</g>
<!-- Node20&#45;&gt;Node21 -->
<g id="edge25" class="edge">
<title>Node20&#45;&gt;Node21</title>
<path fill="none" stroke="#63b8ff" d="M754.96,-164.98C790.14,-155.93 845.93,-141.58 884.58,-131.64"/>
<polygon fill="#63b8ff" stroke="#63b8ff" points="885.69,-134.96 894.5,-129.08 883.94,-128.18 885.69,-134.96"/>
</g>
<!-- Node24 -->
<g id="node24" class="node">
<title>Node24</title>
<g id="a_node24"><a xlink:title=" ">
<polygon fill="#e0e0e0" stroke="#999999" points="899.36,-74 864.36,-74 864.36,-55 899.36,-55 899.36,-74"/>
<text text-anchor="middle" x="881.86" y="-62" font-family="Helvetica,sans-Serif" font-size="10.00">map</text>
</a>
</g>
</g>
<!-- Node20&#45;&gt;Node24 -->
<g id="edge32" class="edge">
<title>Node20&#45;&gt;Node24</title>
<path fill="none" stroke="#63b8ff" d="M743.14,-164.98C761.97,-156.98 789.82,-144.01 811.86,-129 832.49,-114.95 853.32,-95.17 866.83,-81.44"/>
<polygon fill="#63b8ff" stroke="#63b8ff" points="869.45,-83.76 873.88,-74.14 864.41,-78.9 869.45,-83.76"/>
</g>
<!-- Node25 -->
<g id="node25" class="node">
<title>Node25</title>
<g id="a_node25"><a xlink:title=" ">
<polygon fill="#e0e0e0" stroke="#999999" points="802.86,-129 772.86,-129 772.86,-110 802.86,-110 802.86,-129"/>
<text text-anchor="middle" x="787.86" y="-117" font-family="Helvetica,sans-Serif" font-size="10.00">set</text>
</a>
</g>
</g>
<!-- Node20&#45;&gt;Node25 -->
<g id="edge33" class="edge">
<title>Node20&#45;&gt;Node25</title>
<path fill="none" stroke="#63b8ff" d="M732.46,-164.98C742.31,-157.07 757.21,-145.11 769.07,-135.58"/>
<polygon fill="#63b8ff" stroke="#63b8ff" points="771.45,-138.16 777.06,-129.17 767.07,-132.7 771.45,-138.16"/>
</g>
<!-- Node21&#45;&gt;Node2 -->
<g id="edge26" class="edge">
<title>Node21&#45;&gt;Node2</title>
<path fill="none" stroke="#63b8ff" d="M872.11,-109.98C808.55,-100.28 705.08,-84.47 640.1,-74.55"/>
<polygon fill="#63b8ff" stroke="#63b8ff" points="640.43,-71.06 630.01,-73.01 639.37,-77.98 640.43,-71.06"/>
</g>
<!-- Node21&#45;&gt;Node6 -->
<g id="edge30" class="edge">
<title>Node21&#45;&gt;Node6</title>
<path fill="none" stroke="#63b8ff" d="M946.62,-109.96C964.89,-101.45 993.26,-87.71 1016.86,-74 1043.54,-58.5 1072.87,-38.39 1091.78,-25"/>
<polygon fill="#63b8ff" stroke="#63b8ff" points="1094.06,-27.67 1100.17,-19.01 1089.99,-21.97 1094.06,-27.67"/>
</g>
<!-- Node21&#45;&gt;Node7 -->
<g id="edge31" class="edge">
<title>Node21&#45;&gt;Node7</title>
<path fill="none" stroke="#63b8ff" d="M925.96,-109.62C923.11,-97.11 917.17,-73.72 908.86,-55 904.64,-45.5 898.76,-35.56 893.57,-27.48"/>
<polygon fill="#63b8ff" stroke="#63b8ff" points="896.38,-25.39 887.92,-19.01 890.55,-29.27 896.38,-25.39"/>
</g>
<!-- Node22 -->
<g id="node22" class="node">
<title>Node22</title>
<g id="a_node22"><a xlink:title=" ">
<polygon fill="#e0e0e0" stroke="#999999" points="1007.86,-74 955.86,-74 955.86,-55 1007.86,-55 1007.86,-74"/>
<text text-anchor="middle" x="981.86" y="-62" font-family="Helvetica,sans-Serif" font-size="10.00">assert.h</text>
</a>
</g>
</g>
<!-- Node21&#45;&gt;Node22 -->
<g id="edge27" class="edge">
<title>Node21&#45;&gt;Node22</title>
<path fill="none" stroke="#63b8ff" d="M936.77,-109.75C944.64,-102.03 956.29,-90.6 965.78,-81.28"/>
<polygon fill="#63b8ff" stroke="#63b8ff" points="968.42,-83.59 973.11,-74.09 963.52,-78.6 968.42,-83.59"/>
</g>
<!-- Node23 -->
<g id="node23" class="node">
<title>Node23</title>
<g id="a_node23"><a xlink:title=" ">
<polygon fill="#e0e0e0" stroke="#999999" points="1179.86,-74 1139.86,-74 1139.86,-55 1179.86,-55 1179.86,-74"/>
<text text-anchor="middle" x="1159.86" y="-62" font-family="Helvetica,sans-Serif" font-size="10.00">limits</text>
</a>
</g>
</g>
<!-- Node21&#45;&gt;Node23 -->
<g id="edge28" class="edge">
<title>Node21&#45;&gt;Node23</title>
<path fill="none" stroke="#63b8ff" d="M965.13,-109.98C1010.83,-99.55 1087.39,-82.06 1129.61,-72.41"/>
<polygon fill="#63b8ff" stroke="#63b8ff" points="1130.6,-75.77 1139.57,-70.13 1129.04,-68.95 1130.6,-75.77"/>
</g>
<!-- Node21&#45;&gt;Node24 -->
<g id="edge29" class="edge">
<title>Node21&#45;&gt;Node24</title>
<path fill="none" stroke="#63b8ff" d="M920.26,-109.75C913.7,-102.18 904.03,-91.05 896.04,-81.84"/>
<polygon fill="#63b8ff" stroke="#63b8ff" points="898.51,-79.35 889.31,-74.09 893.22,-83.94 898.51,-79.35"/>
</g>
<!-- Node27&#45;&gt;Node2 -->
<g id="edge38" class="edge">
<title>Node27&#45;&gt;Node2</title>
<path fill="none" stroke="#63b8ff" d="M601.73,-109.75C598.34,-102.57 593.44,-92.18 589.24,-83.27"/>
<polygon fill="#63b8ff" stroke="#63b8ff" points="592.34,-81.64 584.91,-74.09 586.01,-84.63 592.34,-81.64"/>
</g>
<!-- Node27&#45;&gt;Node4 -->
<g id="edge39" class="edge">
<title>Node27&#45;&gt;Node4</title>
<path fill="none" stroke="#63b8ff" d="M586.06,-109.84C542.6,-90.84 438.65,-45.39 387.83,-23.17"/>
<polygon fill="#63b8ff" stroke="#63b8ff" points="388.97,-19.85 378.4,-19.05 386.16,-26.26 388.97,-19.85"/>
</g>
<!-- Node27&#45;&gt;Node6 -->
<g id="edge40" class="edge">
<title>Node27&#45;&gt;Node6</title>
<path fill="none" stroke="#63b8ff" d="M639.01,-109.93C702,-93.66 834.62,-59.54 855.86,-55 936.66,-37.74 1032.87,-22.4 1081.09,-15.07"/>
<polygon fill="#63b8ff" stroke="#63b8ff" points="1081.82,-18.5 1091.18,-13.54 1080.77,-11.58 1081.82,-18.5"/>
</g>
<!-- Node27&#45;&gt;Node7 -->
<g id="edge41" class="edge">
<title>Node27&#45;&gt;Node7</title>
<path fill="none" stroke="#63b8ff" d="M612.73,-109.99C624.39,-96.17 649.46,-68.98 676.86,-55 733.26,-26.23 807.61,-16.01 849.51,-12.42"/>
<polygon fill="#63b8ff" stroke="#63b8ff" points="849.99,-15.89 859.68,-11.62 849.44,-8.91 849.99,-15.89"/>
</g>
<!-- Node28&#45;&gt;Node5 -->
<g id="edge43" class="edge">
<title>Node28&#45;&gt;Node5</title>
<path fill="none" stroke="#63b8ff" d="M722.08,-54.75C717.24,-47.42 710.18,-36.73 704.21,-27.7"/>
<polygon fill="#63b8ff" stroke="#63b8ff" points="706.96,-25.5 698.53,-19.09 701.12,-29.36 706.96,-25.5"/>
</g>
<!-- Node28&#45;&gt;Node6 -->
<g id="edge44" class="edge">
<title>Node28&#45;&gt;Node6</title>
<path fill="none" stroke="#63b8ff" d="M770.04,-57.02C774.7,-56.33 779.38,-55.64 783.86,-55 893.1,-39.3 1023.03,-22.11 1081.13,-14.5"/>
<polygon fill="#63b8ff" stroke="#63b8ff" points="1081.66,-17.97 1091.12,-13.2 1080.75,-11.02 1081.66,-17.97"/>
</g>
<!-- Node28&#45;&gt;Node7 -->
<g id="edge45" class="edge">
<title>Node28&#45;&gt;Node7</title>
<path fill="none" stroke="#63b8ff" d="M752.6,-54.98C779.07,-45.88 821.13,-31.4 850.04,-21.45"/>
<polygon fill="#63b8ff" stroke="#63b8ff" points="851.36,-24.7 859.68,-18.13 849.08,-18.08 851.36,-24.7"/>
</g>
<!-- Node32&#45;&gt;Node6 -->
<g id="edge61" class="edge">
<title>Node32&#45;&gt;Node6</title>
<path fill="none" stroke="#63b8ff" d="M1451.96,-219.65C1455,-190.99 1460.27,-99.96 1411.86,-55 1373.22,-19.12 1211.41,-12.14 1142.81,-10.81"/>
<polygon fill="#63b8ff" stroke="#63b8ff" points="1142.69,-7.3 1132.63,-10.64 1142.58,-14.3 1142.69,-7.3"/>
</g>
<!-- Node32&#45;&gt;Node7 -->
<g id="edge62" class="edge">
<title>Node32&#45;&gt;Node7</title>
<path fill="none" stroke="#63b8ff" d="M1448.52,-219.67C1440.23,-190.27 1409.19,-95.25 1344.86,-55 1308.45,-32.22 1012.79,-16.57 913.92,-11.93"/>
<polygon fill="#63b8ff" stroke="#63b8ff" points="914.07,-8.43 903.92,-11.47 913.75,-15.43 914.07,-8.43"/>
</g>
<!-- Node32&#45;&gt;Node10 -->
<g id="edge58" class="edge">
<title>Node32&#45;&gt;Node10</title>
<path fill="none" stroke="#63b8ff" d="M1477.53,-219.98C1505.4,-211.09 1549.31,-197.07 1580.38,-187.15"/>
<polygon fill="#63b8ff" stroke="#63b8ff" points="1581.52,-190.46 1589.98,-184.08 1579.39,-183.79 1581.52,-190.46"/>
</g>
<!-- Node32&#45;&gt;Node23 -->
<g id="edge60" class="edge">
<title>Node32&#45;&gt;Node23</title>
<path fill="none" stroke="#63b8ff" d="M1435.62,-219.97C1388.1,-193.35 1242.29,-111.67 1184.16,-79.11"/>
<polygon fill="#63b8ff" stroke="#63b8ff" points="1185.73,-75.98 1175.29,-74.15 1182.31,-82.09 1185.73,-75.98"/>
</g>
<!-- Node33 -->
<g id="node33" class="node">
<title>Node33</title>
<g id="a_node33"><a xlink:title=" ">
<polygon fill="#e0e0e0" stroke="#999999" points="1509.36,-184 1464.36,-184 1464.36,-165 1509.36,-165 1509.36,-184"/>
<text text-anchor="middle" x="1486.86" y="-172" font-family="Helvetica,sans-Serif" font-size="10.00">iosfwd</text>
</a>
</g>
</g>
<!-- Node32&#45;&gt;Node33 -->
<g id="edge59" class="edge">
<title>Node32&#45;&gt;Node33</title>
<path fill="none" stroke="#63b8ff" d="M1456.8,-219.75C1461.83,-212.34 1469.19,-201.5 1475.37,-192.41"/>
<polygon fill="#63b8ff" stroke="#63b8ff" points="1478.3,-194.33 1481.02,-184.09 1472.51,-190.39 1478.3,-194.33"/>
</g>
<!-- Node34&#45;&gt;Node6 -->
<g id="edge64" class="edge">
<title>Node34&#45;&gt;Node6</title>
<path fill="none" stroke="#63b8ff" d="M1273.85,-54.98C1237.67,-45.05 1178.25,-28.73 1142.32,-18.86"/>
<polygon fill="#63b8ff" stroke="#63b8ff" points="1142.97,-15.42 1132.4,-16.14 1141.12,-22.17 1142.97,-15.42"/>
</g>
<!-- Node34&#45;&gt;Node7 -->
<g id="edge65" class="edge">
<title>Node34&#45;&gt;Node7</title>
<path fill="none" stroke="#63b8ff" d="M1273.75,-59.6C1195.94,-49.85 993.45,-24.48 914.27,-14.56"/>
<polygon fill="#63b8ff" stroke="#63b8ff" points="914.3,-11.04 903.94,-13.27 913.43,-17.98 914.3,-11.04"/>
</g>
</g>
</svg>
        <g id="navigator" transform="translate(0 0)" fill="#404254">
                <rect fill="#f2f5e9" fill-opacity="0.5" stroke="#606060" stroke-width=".5" x="0" y="0" width="60" height="60"/>
                <use id="zoomplus" xlink:href="#zoomPlus" x="17" y="9" onmousedown="handleZoom(evt,'in')"/>
                <use id="zoomminus" xlink:href="#zoomMin" x="42" y="9" onmousedown="handleZoom(evt,'out')"/>
                <use id="reset" xlink:href="#resetDef" x="30" y="36" onmousedown="handleReset()"/>
                <g id="arrowUp" xlink:href="#dirArrow" transform="translate(30 24)" onmousedown="handlePan(0,-1)">
                  <use xlink:href="#rim" fill="#404040">
                        <set attributeName="fill" to="#808080" begin="arrowUp.mouseover" end="arrowUp.mouseout"/>
                  </use>
                  <path fill="none" stroke="white" stroke-width="1.5" d="M0,-3.0v7 M-2.5,-0.5L0,-3.0L2.5,-0.5"/>
                </g>
                <g id="arrowRight" xlink:href="#dirArrow" transform="rotate(90) translate(36 -43)" onmousedown="handlePan(1,0)">
                  <use xlink:href="#rim" fill="#404040">
                        <set attributeName="fill" to="#808080" begin="arrowRight.mouseover" end="arrowRight.mouseout"/>
                  </use>
                  <path fill="none" stroke="white" stroke-width="1.5" d="M0,-3.0v7 M-2.5,-0.5L0,-3.0L2.5,-0.5"/>
                </g>
                <g id="arrowDown" xlink:href="#dirArrow" transform="rotate(180) translate(-30 -48)" onmousedown="handlePan(0,1)">
                  <use xlink:href="#rim" fill="#404040">
                        <set attributeName="fill" to="#808080" begin="arrowDown.mouseover" end="arrowDown.mouseout"/>
                  </use>
                  <path fill="none" stroke="white" stroke-width="1.5" d="M0,-3.0v7 M-2.5,-0.5L0,-3.0L2.5,-0.5"/>
                </g>
                <g id="arrowLeft" xlink:href="#dirArrow" transform="rotate(270) translate(-36 17)" onmousedown="handlePan(-1,0)">
                  <use xlink:href="#rim" fill="#404040">
                        <set attributeName="fill" to="#808080" begin="arrowLeft.mouseover" end="arrowLeft.mouseout"/>
                  </use>
                  <path fill="none" stroke="white" stroke-width="1.5" d="M0,-3.0v7 M-2.5,-0.5L0,-3.0L2.5,-0.5"/>
                </g>
        </g>
        <svg viewBox="0 0 15 15" width="100%" height="30px" preserveAspectRatio="xMaxYMin meet">
         <g id="arrow_out" transform="scale(0.3 0.3)">
          <a xlink:href="shell__interface_8C__incl_org.svg" target="_base">
           <rect id="button" ry="5" rx="5" y="6" x="6" height="38" width="38"
                fill="#f2f5e9" fill-opacity="0.5" stroke="#606060" stroke-width="1.0"/>
           <path id="arrow"
             d="M 11.500037,31.436501 C 11.940474,20.09759 22.043105,11.32322 32.158766,21.979434 L 37.068811,17.246167 C 37.068811,17.246167 37.088388,32 37.088388,32 L 22.160133,31.978069 C 22.160133,31.978069 26.997745,27.140456 26.997745,27.140456 C 18.528582,18.264221 13.291696,25.230495 11.500037,31.436501 z"
             style="fill:#404040;"/>
          </a>
         </g>
        </svg>
</svg>
