<?xml version="1.0" encoding="UTF-8" standalone="no"?>
<!DOCTYPE svg PUBLIC "-//W3C//DTD SVG 1.1//EN"
 "http://www.w3.org/Graphics/SVG/1.1/DTD/svg11.dtd">
<!-- Generated by graphviz version 3.0.0 (20220226.1711)
 -->
<!-- Title: src/main/skinner_interface.C Pages: 1 -->
<svg width="1440pt" height="308pt"
 viewBox="0.00 0.00 1440.18 308.00" xmlns="http://www.w3.org/2000/svg" xmlns:xlink="http://www.w3.org/1999/xlink">
<g id="graph0" class="graph" transform="scale(1 1) rotate(0) translate(4 304)">
<title>src/main/skinner_interface.C</title>
<polygon fill="white" stroke="transparent" points="-4,4 -4,-304 1436.18,-304 1436.18,4 -4,4"/>
<!-- Node1 -->
<g id="node1" class="node">
<title>Node1</title>
<g id="a_node1"><a xlink:title=" ">
<polygon fill="#bfbfbf" stroke="black" points="210.18,-280.5 210.18,-299.5 352.18,-299.5 352.18,-280.5 210.18,-280.5"/>
<text text-anchor="middle" x="281.18" y="-287.5" font-family="Helvetica,sans-Serif" font-size="10.00">src/main/skinner_interface.C</text>
</a>
</g>
</g>
<!-- Node2 -->
<g id="node2" class="node">
<title>Node2</title>
<g id="a_node2"><a xlink:href="Ioss__GetLongOpt_8h.html" target="_top" xlink:title=" ">
<polygon fill="white" stroke="black" points="12.68,-168.5 12.68,-187.5 113.68,-187.5 113.68,-168.5 12.68,-168.5"/>
<text text-anchor="middle" x="63.18" y="-175.5" font-family="Helvetica,sans-Serif" font-size="10.00">Ioss_GetLongOpt.h</text>
</a>
</g>
</g>
<!-- Node1&#45;&gt;Node2 -->
<g id="edge1" class="edge">
<title>Node1&#45;&gt;Node2</title>
<path fill="none" stroke="midnightblue" d="M209.82,-284.16C174.28,-278.71 132.36,-267.38 101.18,-244 85.53,-232.26 75.19,-212.03 69.3,-197.25"/>
<polygon fill="midnightblue" stroke="midnightblue" points="72.51,-195.84 65.79,-187.65 65.94,-198.24 72.51,-195.84"/>
</g>
<!-- Node3 -->
<g id="node3" class="node">
<title>Node3</title>
<g id="a_node3"><a xlink:title=" ">
<polygon fill="white" stroke="#bfbfbf" points="40.68,-112.5 40.68,-131.5 85.68,-131.5 85.68,-112.5 40.68,-112.5"/>
<text text-anchor="middle" x="63.18" y="-119.5" font-family="Helvetica,sans-Serif" font-size="10.00">cstdlib</text>
</a>
</g>
</g>
<!-- Node1&#45;&gt;Node3 -->
<g id="edge58" class="edge">
<title>Node1&#45;&gt;Node3</title>
<path fill="none" stroke="midnightblue" d="M209.92,-288.01C140.67,-282.56 40.64,-261.56 3.18,-188 -7.32,-167.38 15.33,-148.51 35.74,-136.48"/>
<polygon fill="midnightblue" stroke="midnightblue" points="37.49,-139.51 44.55,-131.6 34.1,-133.39 37.49,-139.51"/>
</g>
<!-- Node4 -->
<g id="node4" class="node">
<title>Node4</title>
<g id="a_node4"><a xlink:title=" ">
<polygon fill="white" stroke="#bfbfbf" points="233.18,-112.5 233.18,-131.5 287.18,-131.5 287.18,-112.5 233.18,-112.5"/>
<text text-anchor="middle" x="260.18" y="-119.5" font-family="Helvetica,sans-Serif" font-size="10.00">iostream</text>
</a>
</g>
</g>
<!-- Node1&#45;&gt;Node4 -->
<g id="edge60" class="edge">
<title>Node1&#45;&gt;Node4</title>
<path fill="none" stroke="midnightblue" d="M280.05,-280.08C276.74,-253.95 267.04,-177.21 262.53,-141.58"/>
<polygon fill="midnightblue" stroke="midnightblue" points="265.99,-141.05 261.26,-131.57 259.05,-141.93 265.99,-141.05"/>
</g>
<!-- Node5 -->
<g id="node5" class="node">
<title>Node5</title>
<g id="a_node5"><a xlink:href="Ioss__Utils_8h.html" target="_top" xlink:title=" ">
<polygon fill="white" stroke="black" points="772.68,-224.5 772.68,-243.5 841.68,-243.5 841.68,-224.5 772.68,-224.5"/>
<text text-anchor="middle" x="807.18" y="-231.5" font-family="Helvetica,sans-Serif" font-size="10.00">Ioss_Utils.h</text>
</a>
</g>
</g>
<!-- Node1&#45;&gt;Node5 -->
<g id="edge4" class="edge">
<title>Node1&#45;&gt;Node5</title>
<path fill="none" stroke="midnightblue" d="M352.39,-281.69C462.52,-270.38 670.95,-248.99 762.34,-239.6"/>
<polygon fill="midnightblue" stroke="midnightblue" points="762.78,-243.08 772.37,-238.57 762.06,-236.11 762.78,-243.08"/>
</g>
<!-- Node8 -->
<g id="node8" class="node">
<title>Node8</title>
<g id="a_node8"><a xlink:title=" ">
<polygon fill="white" stroke="#bfbfbf" points="1107.68,-0.5 1107.68,-19.5 1156.68,-19.5 1156.68,-0.5 1107.68,-0.5"/>
<text text-anchor="middle" x="1132.18" y="-7.5" font-family="Helvetica,sans-Serif" font-size="10.00">cstddef</text>
</a>
</g>
</g>
<!-- Node1&#45;&gt;Node8 -->
<g id="edge57" class="edge">
<title>Node1&#45;&gt;Node8</title>
<path fill="none" stroke="midnightblue" d="M352.23,-287.99C568.83,-283.99 1206.18,-264.91 1206.18,-179 1206.18,-179 1206.18,-179 1206.18,-121 1206.18,-81.61 1173.11,-45.73 1151.18,-26.26"/>
<polygon fill="midnightblue" stroke="midnightblue" points="1153.3,-23.47 1143.42,-19.64 1148.75,-28.79 1153.3,-23.47"/>
</g>
<!-- Node10 -->
<g id="node10" class="node">
<title>Node10</title>
<g id="a_node10"><a xlink:title=" ">
<polygon fill="white" stroke="#bfbfbf" points="420.68,-0.5 420.68,-19.5 461.68,-19.5 461.68,-0.5 420.68,-0.5"/>
<text text-anchor="middle" x="441.18" y="-7.5" font-family="Helvetica,sans-Serif" font-size="10.00">string</text>
</a>
</g>
</g>
<!-- Node1&#45;&gt;Node10 -->
<g id="edge61" class="edge">
<title>Node1&#45;&gt;Node10</title>
<path fill="none" stroke="midnightblue" d="M286.46,-280.23C296.9,-262.04 319.18,-218.6 319.18,-179 319.18,-179 319.18,-179 319.18,-121 319.18,-71.73 374.74,-38.87 410.87,-22.7"/>
<polygon fill="midnightblue" stroke="midnightblue" points="412.67,-25.74 420.48,-18.58 409.91,-19.3 412.67,-25.74"/>
</g>
<!-- Node30 -->
<g id="node30" class="node">
<title>Node30</title>
<g id="a_node30"><a xlink:href="skinner__interface_8h.html" target="_top" xlink:title=" ">
<polygon fill="white" stroke="black" points="110.68,-224.5 110.68,-243.5 209.68,-243.5 209.68,-224.5 110.68,-224.5"/>
<text text-anchor="middle" x="160.18" y="-231.5" font-family="Helvetica,sans-Serif" font-size="10.00">skinner_interface.h</text>
</a>
</g>
</g>
<!-- Node1&#45;&gt;Node30 -->
<g id="edge53" class="edge">
<title>Node1&#45;&gt;Node30</title>
<path fill="none" stroke="midnightblue" d="M262.01,-280.44C242.27,-271.64 211.29,-257.81 188.69,-247.72"/>
<polygon fill="midnightblue" stroke="midnightblue" points="189.82,-244.4 179.26,-243.52 186.97,-250.79 189.82,-244.4"/>
</g>
<!-- Node32 -->
<g id="node32" class="node">
<title>Node32</title>
<g id="a_node32"><a xlink:title=" ">
<polygon fill="white" stroke="#bfbfbf" points="1234.18,-224.5 1234.18,-243.5 1304.18,-243.5 1304.18,-224.5 1234.18,-224.5"/>
<text text-anchor="middle" x="1269.18" y="-231.5" font-family="Helvetica,sans-Serif" font-size="10.00">fmt/format.h</text>
</a>
</g>
</g>
<!-- Node1&#45;&gt;Node32 -->
<g id="edge59" class="edge">
<title>Node1&#45;&gt;Node32</title>
<path fill="none" stroke="midnightblue" d="M352.41,-288.83C509.58,-287.75 897.73,-281.17 1220.18,-244 1221.44,-243.86 1222.71,-243.7 1223.99,-243.53"/>
<polygon fill="midnightblue" stroke="midnightblue" points="1224.56,-246.98 1233.93,-242.06 1223.53,-240.06 1224.56,-246.98"/>
</g>
<!-- Node2&#45;&gt;Node3 -->
<g id="edge2" class="edge">
<title>Node2&#45;&gt;Node3</title>
<path fill="none" stroke="midnightblue" d="M63.18,-168.08C63.18,-161.01 63.18,-150.86 63.18,-141.99"/>
<polygon fill="midnightblue" stroke="midnightblue" points="66.68,-141.75 63.18,-131.75 59.68,-141.75 66.68,-141.75"/>
</g>
<!-- Node2&#45;&gt;Node4 -->
<g id="edge3" class="edge">
<title>Node2&#45;&gt;Node4</title>
<path fill="none" stroke="midnightblue" d="M94.39,-168.44C129.3,-158.87 185.81,-143.39 222.98,-133.2"/>
<polygon fill="midnightblue" stroke="midnightblue" points="224.2,-136.49 232.92,-130.47 222.35,-129.74 224.2,-136.49"/>
</g>
<!-- Node5&#45;&gt;Node3 -->
<g id="edge48" class="edge">
<title>Node5&#45;&gt;Node3</title>
<path fill="none" stroke="midnightblue" d="M772.39,-231.41C693.58,-227.43 495.58,-215.34 332.18,-188 245.73,-173.54 145.89,-146.68 95.64,-132.44"/>
<polygon fill="midnightblue" stroke="midnightblue" points="96.56,-129.06 85.98,-129.68 94.64,-135.79 96.56,-129.06"/>
</g>
<!-- Node5&#45;&gt;Node4 -->
<g id="edge49" class="edge">
<title>Node5&#45;&gt;Node4</title>
<path fill="none" stroke="midnightblue" d="M772.6,-233.8C698.88,-234.56 521.54,-231.28 381.18,-188 343.36,-176.34 303.72,-152.48 280.52,-137.14"/>
<polygon fill="midnightblue" stroke="midnightblue" points="282.44,-134.21 272.19,-131.53 278.53,-140.02 282.44,-134.21"/>
</g>
<!-- Node6 -->
<g id="node6" class="node">
<title>Node6</title>
<g id="a_node6"><a xlink:href="Ioss__CodeTypes_8h.html" target="_top" xlink:title=" ">
<polygon fill="white" stroke="black" points="915.18,-56.5 915.18,-75.5 1013.18,-75.5 1013.18,-56.5 915.18,-56.5"/>
<text text-anchor="middle" x="964.18" y="-63.5" font-family="Helvetica,sans-Serif" font-size="10.00">Ioss_CodeTypes.h</text>
</a>
</g>
</g>
<!-- Node5&#45;&gt;Node6 -->
<g id="edge5" class="edge">
<title>Node5&#45;&gt;Node6</title>
<path fill="none" stroke="midnightblue" d="M841.7,-229.39C890.76,-223.54 977.04,-210.33 998.18,-188 1021.6,-163.26 1021.04,-143.55 1008.18,-112 1003.38,-100.23 993.85,-89.86 984.88,-82.05"/>
<polygon fill="midnightblue" stroke="midnightblue" points="986.93,-79.2 976.96,-75.63 982.53,-84.64 986.93,-79.2"/>
</g>
<!-- Node5&#45;&gt;Node8 -->
<g id="edge46" class="edge">
<title>Node5&#45;&gt;Node8</title>
<path fill="none" stroke="midnightblue" d="M841.93,-233.58C886.76,-232.67 965.36,-225.28 1019.18,-188 1077.57,-147.55 1112.54,-66.14 1125.91,-29.55"/>
<polygon fill="midnightblue" stroke="midnightblue" points="1129.35,-30.33 1129.37,-19.73 1122.75,-28 1129.35,-30.33"/>
</g>
<!-- Node9 -->
<g id="node9" class="node">
<title>Node9</title>
<g id="a_node9"><a xlink:title=" ">
<polygon fill="white" stroke="#bfbfbf" points="781.18,-0.5 781.18,-19.5 827.18,-19.5 827.18,-0.5 781.18,-0.5"/>
<text text-anchor="middle" x="804.18" y="-7.5" font-family="Helvetica,sans-Serif" font-size="10.00">cstdint</text>
</a>
</g>
</g>
<!-- Node5&#45;&gt;Node9 -->
<g id="edge47" class="edge">
<title>Node5&#45;&gt;Node9</title>
<path fill="none" stroke="midnightblue" d="M841.8,-232.85C875.38,-230.62 924.74,-221.39 949.18,-188 954.43,-180.83 952.42,-176.28 949.18,-168 945.74,-159.21 856.12,-65.16 819.53,-26.98"/>
<polygon fill="midnightblue" stroke="midnightblue" points="822.02,-24.52 812.57,-19.73 816.97,-29.37 822.02,-24.52"/>
</g>
<!-- Node5&#45;&gt;Node10 -->
<g id="edge51" class="edge">
<title>Node5&#45;&gt;Node10</title>
<path fill="none" stroke="midnightblue" d="M772.43,-231.2C718.3,-227.57 611.12,-217.06 525.18,-188 475.45,-171.18 453.4,-173.44 421.18,-132 400.1,-104.89 396.26,-88.56 407.18,-56 410.78,-45.25 418.08,-35.02 425,-27.04"/>
<polygon fill="midnightblue" stroke="midnightblue" points="427.66,-29.32 431.89,-19.61 422.52,-24.56 427.66,-29.32"/>
</g>
<!-- Node11 -->
<g id="node11" class="node">
<title>Node11</title>
<g id="a_node11"><a xlink:title=" ">
<polygon fill="white" stroke="#bfbfbf" points="719.18,-0.5 719.18,-19.5 763.18,-19.5 763.18,-0.5 719.18,-0.5"/>
<text text-anchor="middle" x="741.18" y="-7.5" font-family="Helvetica,sans-Serif" font-size="10.00">vector</text>
</a>
</g>
</g>
<!-- Node5&#45;&gt;Node11 -->
<g id="edge52" class="edge">
<title>Node5&#45;&gt;Node11</title>
<path fill="none" stroke="midnightblue" d="M785.37,-224.45C770.23,-217.22 751.22,-205.26 742.18,-188 724.8,-154.82 772.08,-155.08 792.18,-76 794.37,-67.39 795.83,-64.1 792.18,-56 786.56,-43.56 775.62,-33.17 765.3,-25.53"/>
<polygon fill="midnightblue" stroke="midnightblue" points="767.14,-22.54 756.91,-19.76 763.17,-28.31 767.14,-22.54"/>
</g>
<!-- Node14 -->
<g id="node14" class="node">
<title>Node14</title>
<g id="a_node14"><a xlink:href="Ioss__ElementTopology_8h.html" target="_top" xlink:title=" ">
<polygon fill="white" stroke="black" points="534.18,-168.5 534.18,-187.5 656.18,-187.5 656.18,-168.5 534.18,-168.5"/>
<text text-anchor="middle" x="595.18" y="-175.5" font-family="Helvetica,sans-Serif" font-size="10.00">Ioss_ElementTopology.h</text>
</a>
</g>
</g>
<!-- Node5&#45;&gt;Node14 -->
<g id="edge13" class="edge">
<title>Node5&#45;&gt;Node14</title>
<path fill="none" stroke="midnightblue" d="M773.59,-224.44C736.99,-215.12 678.34,-200.18 638.35,-190"/>
<polygon fill="midnightblue" stroke="midnightblue" points="639.17,-186.59 628.61,-187.52 637.44,-193.38 639.17,-186.59"/>
</g>
<!-- Node19 -->
<g id="node19" class="node">
<title>Node19</title>
<g id="a_node19"><a xlink:href="Ioss__Field_8h.html" target="_top" xlink:title=" ">
<polygon fill="white" stroke="black" points="929.18,-112.5 929.18,-131.5 999.18,-131.5 999.18,-112.5 929.18,-112.5"/>
<text text-anchor="middle" x="964.18" y="-119.5" font-family="Helvetica,sans-Serif" font-size="10.00">Ioss_Field.h</text>
</a>
</g>
</g>
<!-- Node5&#45;&gt;Node19 -->
<g id="edge25" class="edge">
<title>Node5&#45;&gt;Node19</title>
<path fill="none" stroke="midnightblue" d="M842.03,-229.06C888.02,-223.05 965.17,-209.94 982.18,-188 992.79,-174.32 985.14,-154.75 976.78,-140.67"/>
<polygon fill="midnightblue" stroke="midnightblue" points="979.48,-138.41 971.09,-131.93 973.61,-142.22 979.48,-138.41"/>
</g>
<!-- Node20 -->
<g id="node20" class="node">
<title>Node20</title>
<g id="a_node20"><a xlink:href="Ioss__Property_8h.html" target="_top" xlink:title=" ">
<polygon fill="white" stroke="black" points="699.18,-56.5 699.18,-75.5 783.18,-75.5 783.18,-56.5 699.18,-56.5"/>
<text text-anchor="middle" x="741.18" y="-63.5" font-family="Helvetica,sans-Serif" font-size="10.00">Ioss_Property.h</text>
</a>
</g>
</g>
<!-- Node5&#45;&gt;Node20 -->
<g id="edge30" class="edge">
<title>Node5&#45;&gt;Node20</title>
<path fill="none" stroke="midnightblue" d="M772.46,-227.09C749.95,-221.27 722.28,-209.91 708.18,-188 697.16,-170.89 719.84,-114.24 732.87,-84.92"/>
<polygon fill="midnightblue" stroke="midnightblue" points="736.06,-86.36 737,-75.8 729.69,-83.46 736.06,-86.36"/>
</g>
<!-- Node21 -->
<g id="node21" class="node">
<title>Node21</title>
<g id="a_node21"><a xlink:href="Ioss__Sort_8h.html" target="_top" xlink:title=" ">
<polygon fill="white" stroke="black" points="1110.68,-112.5 1110.68,-131.5 1177.68,-131.5 1177.68,-112.5 1110.68,-112.5"/>
<text text-anchor="middle" x="1144.18" y="-119.5" font-family="Helvetica,sans-Serif" font-size="10.00">Ioss_Sort.h</text>
</a>
</g>
</g>
<!-- Node5&#45;&gt;Node21 -->
<g id="edge34" class="edge">
<title>Node5&#45;&gt;Node21</title>
<path fill="none" stroke="midnightblue" d="M841.89,-230.89C909.06,-226.27 1053.94,-213.58 1096.18,-188 1114.31,-177.02 1127.76,-156.35 1135.74,-141.26"/>
<polygon fill="midnightblue" stroke="midnightblue" points="1139.08,-142.4 1140.38,-131.89 1132.81,-139.3 1139.08,-142.4"/>
</g>
<!-- Node23 -->
<g id="node23" class="node">
<title>Node23</title>
<g id="a_node23"><a xlink:title=" ">
<polygon fill="white" stroke="#bfbfbf" points="1376.18,-0.5 1376.18,-19.5 1432.18,-19.5 1432.18,-0.5 1376.18,-0.5"/>
<text text-anchor="middle" x="1404.18" y="-7.5" font-family="Helvetica,sans-Serif" font-size="10.00">algorithm</text>
</a>
</g>
</g>
<!-- Node5&#45;&gt;Node23 -->
<g id="edge43" class="edge">
<title>Node5&#45;&gt;Node23</title>
<path fill="none" stroke="midnightblue" d="M842.11,-232.59C901.15,-230.91 1023.69,-223.05 1120.18,-188 1230.27,-148.01 1343.1,-61.23 1386.08,-26.16"/>
<polygon fill="midnightblue" stroke="midnightblue" points="1388.45,-28.74 1393.94,-19.68 1384,-23.34 1388.45,-28.74"/>
</g>
<!-- Node27 -->
<g id="node27" class="node">
<title>Node27</title>
<g id="a_node27"><a xlink:title=" ">
<polygon fill="white" stroke="#bfbfbf" points="750.68,-168.5 750.68,-187.5 799.68,-187.5 799.68,-168.5 750.68,-168.5"/>
<text text-anchor="middle" x="775.18" y="-175.5" font-family="Helvetica,sans-Serif" font-size="10.00">cassert</text>
</a>
</g>
</g>
<!-- Node5&#45;&gt;Node27 -->
<g id="edge44" class="edge">
<title>Node5&#45;&gt;Node27</title>
<path fill="none" stroke="midnightblue" d="M801.89,-224.08C797.47,-216.61 791.02,-205.72 785.56,-196.52"/>
<polygon fill="midnightblue" stroke="midnightblue" points="788.47,-194.57 780.36,-187.75 782.45,-198.14 788.47,-194.57"/>
</g>
<!-- Node28 -->
<g id="node28" class="node">
<title>Node28</title>
<g id="a_node28"><a xlink:title=" ">
<polygon fill="white" stroke="#bfbfbf" points="818.18,-168.5 818.18,-187.5 862.18,-187.5 862.18,-168.5 818.18,-168.5"/>
<text text-anchor="middle" x="840.18" y="-175.5" font-family="Helvetica,sans-Serif" font-size="10.00">cmath</text>
</a>
</g>
</g>
<!-- Node5&#45;&gt;Node28 -->
<g id="edge45" class="edge">
<title>Node5&#45;&gt;Node28</title>
<path fill="none" stroke="midnightblue" d="M812.63,-224.08C817.19,-216.61 823.85,-205.72 829.47,-196.52"/>
<polygon fill="midnightblue" stroke="midnightblue" points="832.6,-198.11 834.83,-187.75 826.63,-194.46 832.6,-198.11"/>
</g>
<!-- Node29 -->
<g id="node29" class="node">
<title>Node29</title>
<g id="a_node29"><a xlink:title=" ">
<polygon fill="white" stroke="#bfbfbf" points="880.68,-168.5 880.68,-187.5 939.68,-187.5 939.68,-168.5 880.68,-168.5"/>
<text text-anchor="middle" x="910.18" y="-175.5" font-family="Helvetica,sans-Serif" font-size="10.00">stdexcept</text>
</a>
</g>
</g>
<!-- Node5&#45;&gt;Node29 -->
<g id="edge50" class="edge">
<title>Node5&#45;&gt;Node29</title>
<path fill="none" stroke="midnightblue" d="M823.73,-224.32C840.17,-215.7 865.61,-202.36 884.65,-192.39"/>
<polygon fill="midnightblue" stroke="midnightblue" points="886.44,-195.4 893.67,-187.65 883.19,-189.2 886.44,-195.4"/>
</g>
<!-- Node7 -->
<g id="node7" class="node">
<title>Node7</title>
<g id="a_node7"><a xlink:title=" ">
<polygon fill="white" stroke="#bfbfbf" points="1051.18,-0.5 1051.18,-19.5 1089.18,-19.5 1089.18,-0.5 1051.18,-0.5"/>
<text text-anchor="middle" x="1070.18" y="-7.5" font-family="Helvetica,sans-Serif" font-size="10.00">array</text>
</a>
</g>
</g>
<!-- Node6&#45;&gt;Node7 -->
<g id="edge6" class="edge">
<title>Node6&#45;&gt;Node7</title>
<path fill="none" stroke="midnightblue" d="M981.21,-56.32C998.21,-47.66 1024.55,-34.24 1044.17,-24.25"/>
<polygon fill="midnightblue" stroke="midnightblue" points="1045.87,-27.31 1053.19,-19.65 1042.69,-21.08 1045.87,-27.31"/>
</g>
<!-- Node6&#45;&gt;Node8 -->
<g id="edge7" class="edge">
<title>Node6&#45;&gt;Node8</title>
<path fill="none" stroke="midnightblue" d="M990.8,-56.44C1019.77,-47.13 1066.18,-32.21 1097.87,-22.03"/>
<polygon fill="midnightblue" stroke="midnightblue" points="1099.15,-25.29 1107.6,-18.9 1097,-18.63 1099.15,-25.29"/>
</g>
<!-- Node6&#45;&gt;Node9 -->
<g id="edge8" class="edge">
<title>Node6&#45;&gt;Node9</title>
<path fill="none" stroke="midnightblue" d="M938.83,-56.44C911.28,-47.15 867.16,-32.26 836.99,-22.07"/>
<polygon fill="midnightblue" stroke="midnightblue" points="837.93,-18.7 827.33,-18.82 835.69,-25.33 837.93,-18.7"/>
</g>
<!-- Node6&#45;&gt;Node10 -->
<g id="edge9" class="edge">
<title>Node6&#45;&gt;Node10</title>
<path fill="none" stroke="midnightblue" d="M914.98,-59.92C808.43,-48.92 558.94,-23.16 471.84,-14.17"/>
<polygon fill="midnightblue" stroke="midnightblue" points="472.11,-10.68 461.81,-13.13 471.4,-17.64 472.11,-10.68"/>
</g>
<!-- Node6&#45;&gt;Node11 -->
<g id="edge10" class="edge">
<title>Node6&#45;&gt;Node11</title>
<path fill="none" stroke="midnightblue" d="M925.05,-56.46C888.2,-48.28 831.24,-35.27 773.19,-20.17"/>
<polygon fill="midnightblue" stroke="midnightblue" points="774.05,-16.78 763.49,-17.63 772.28,-23.55 774.05,-16.78"/>
</g>
<!-- Node12 -->
<g id="node12" class="node">
<title>Node12</title>
<g id="a_node12"><a xlink:title=" ">
<polygon fill="white" stroke="#bfbfbf" points="845.18,-0.5 845.18,-19.5 961.18,-19.5 961.18,-0.5 845.18,-0.5"/>
<text text-anchor="middle" x="903.18" y="-7.5" font-family="Helvetica,sans-Serif" font-size="10.00">SEACASIoss_config.h</text>
</a>
</g>
</g>
<!-- Node6&#45;&gt;Node12 -->
<g id="edge11" class="edge">
<title>Node6&#45;&gt;Node12</title>
<path fill="none" stroke="midnightblue" d="M954.38,-56.32C945.36,-48.34 931.77,-36.31 920.86,-26.65"/>
<polygon fill="midnightblue" stroke="midnightblue" points="922.97,-23.84 913.16,-19.83 918.33,-29.08 922.97,-23.84"/>
</g>
<!-- Node13 -->
<g id="node13" class="node">
<title>Node13</title>
<g id="a_node13"><a xlink:title=" ">
<polygon fill="white" stroke="#bfbfbf" points="979.68,-0.5 979.68,-19.5 1032.68,-19.5 1032.68,-0.5 979.68,-0.5"/>
<text text-anchor="middle" x="1006.18" y="-7.5" font-family="Helvetica,sans-Serif" font-size="10.00">complex</text>
</a>
</g>
</g>
<!-- Node6&#45;&gt;Node13 -->
<g id="edge12" class="edge">
<title>Node6&#45;&gt;Node13</title>
<path fill="none" stroke="midnightblue" d="M971.11,-56.08C977.11,-48.38 985.93,-37.03 993.23,-27.65"/>
<polygon fill="midnightblue" stroke="midnightblue" points="996,-29.79 999.37,-19.75 990.47,-25.5 996,-29.79"/>
</g>
<!-- Node14&#45;&gt;Node6 -->
<g id="edge14" class="edge">
<title>Node14&#45;&gt;Node6</title>
<path fill="none" stroke="midnightblue" d="M623.83,-168.46C689.57,-148.86 851.31,-100.65 925.66,-78.48"/>
<polygon fill="midnightblue" stroke="midnightblue" points="926.97,-81.75 935.55,-75.53 924.97,-75.04 926.97,-81.75"/>
</g>
<!-- Node14&#45;&gt;Node10 -->
<g id="edge23" class="edge">
<title>Node14&#45;&gt;Node10</title>
<path fill="none" stroke="midnightblue" d="M534.12,-169.1C505.33,-162.87 471.95,-151.76 447.18,-132 418.53,-109.14 405.69,-91.4 415.18,-56 417.83,-46.1 423.25,-36.13 428.45,-28.1"/>
<polygon fill="midnightblue" stroke="midnightblue" points="431.47,-29.89 434.29,-19.68 425.71,-25.91 431.47,-29.89"/>
</g>
<!-- Node14&#45;&gt;Node11 -->
<g id="edge24" class="edge">
<title>Node14&#45;&gt;Node11</title>
<path fill="none" stroke="midnightblue" d="M601.13,-168.36C615.4,-147.89 653.14,-95.23 690.18,-56 700.19,-45.4 712.4,-34.56 722.37,-26.18"/>
<polygon fill="midnightblue" stroke="midnightblue" points="724.64,-28.84 730.11,-19.77 720.17,-23.45 724.64,-28.84"/>
</g>
<!-- Node15 -->
<g id="node15" class="node">
<title>Node15</title>
<g id="a_node15"><a xlink:href="Ioss__ElementPermutation_8h.html" target="_top" xlink:title=" ">
<polygon fill="white" stroke="black" points="472.68,-112.5 472.68,-131.5 609.68,-131.5 609.68,-112.5 472.68,-112.5"/>
<text text-anchor="middle" x="541.18" y="-119.5" font-family="Helvetica,sans-Serif" font-size="10.00">Ioss_ElementPermutation.h</text>
</a>
</g>
</g>
<!-- Node14&#45;&gt;Node15 -->
<g id="edge15" class="edge">
<title>Node14&#45;&gt;Node15</title>
<path fill="none" stroke="midnightblue" d="M586.26,-168.08C578.4,-160.22 566.75,-148.57 557.26,-139.08"/>
<polygon fill="midnightblue" stroke="midnightblue" points="559.48,-136.35 549.93,-131.75 554.53,-141.3 559.48,-136.35"/>
</g>
<!-- Node17 -->
<g id="node17" class="node">
<title>Node17</title>
<g id="a_node17"><a xlink:title=" ">
<polygon fill="white" stroke="#bfbfbf" points="423.68,-56.5 423.68,-75.5 458.68,-75.5 458.68,-56.5 423.68,-56.5"/>
<text text-anchor="middle" x="441.18" y="-63.5" font-family="Helvetica,sans-Serif" font-size="10.00">map</text>
</a>
</g>
</g>
<!-- Node14&#45;&gt;Node17 -->
<g id="edge21" class="edge">
<title>Node14&#45;&gt;Node17</title>
<path fill="none" stroke="midnightblue" d="M536.29,-168.47C511.27,-162.14 483.48,-151.13 464.18,-132 451.83,-119.77 446.09,-100.5 443.44,-86.12"/>
<polygon fill="midnightblue" stroke="midnightblue" points="446.84,-85.23 441.9,-75.85 439.92,-86.26 446.84,-85.23"/>
</g>
<!-- Node18 -->
<g id="node18" class="node">
<title>Node18</title>
<g id="a_node18"><a xlink:title=" ">
<polygon fill="white" stroke="#bfbfbf" points="666.18,-112.5 666.18,-131.5 696.18,-131.5 696.18,-112.5 666.18,-112.5"/>
<text text-anchor="middle" x="681.18" y="-119.5" font-family="Helvetica,sans-Serif" font-size="10.00">set</text>
</a>
</g>
</g>
<!-- Node14&#45;&gt;Node18 -->
<g id="edge22" class="edge">
<title>Node14&#45;&gt;Node18</title>
<path fill="none" stroke="midnightblue" d="M609,-168.32C622.41,-159.9 643,-146.97 658.76,-137.07"/>
<polygon fill="midnightblue" stroke="midnightblue" points="660.79,-139.94 667.4,-131.65 657.07,-134.01 660.79,-139.94"/>
</g>
<!-- Node15&#45;&gt;Node6 -->
<g id="edge16" class="edge">
<title>Node15&#45;&gt;Node6</title>
<path fill="none" stroke="midnightblue" d="M608.2,-112.44C689.91,-102.01 826.73,-84.55 904.81,-74.58"/>
<polygon fill="midnightblue" stroke="midnightblue" points="905.48,-78.02 914.96,-73.28 904.6,-71.08 905.48,-78.02"/>
</g>
<!-- Node15&#45;&gt;Node10 -->
<g id="edge19" class="edge">
<title>Node15&#45;&gt;Node10</title>
<path fill="none" stroke="midnightblue" d="M533.33,-112.37C516.61,-93.97 477.24,-50.67 455.77,-27.05"/>
<polygon fill="midnightblue" stroke="midnightblue" points="458.31,-24.64 448.99,-19.59 453.13,-29.35 458.31,-24.64"/>
</g>
<!-- Node15&#45;&gt;Node11 -->
<g id="edge20" class="edge">
<title>Node15&#45;&gt;Node11</title>
<path fill="none" stroke="midnightblue" d="M556.14,-112.49C578.19,-99.99 620.74,-75.97 657.18,-56 676.83,-45.23 699.19,-33.27 715.9,-24.38"/>
<polygon fill="midnightblue" stroke="midnightblue" points="717.84,-27.32 725.03,-19.54 714.55,-21.13 717.84,-27.32"/>
</g>
<!-- Node16 -->
<g id="node16" class="node">
<title>Node16</title>
<g id="a_node16"><a xlink:title=" ">
<polygon fill="white" stroke="#bfbfbf" points="515.18,-56.5 515.18,-75.5 567.18,-75.5 567.18,-56.5 515.18,-56.5"/>
<text text-anchor="middle" x="541.18" y="-63.5" font-family="Helvetica,sans-Serif" font-size="10.00">assert.h</text>
</a>
</g>
</g>
<!-- Node15&#45;&gt;Node16 -->
<g id="edge17" class="edge">
<title>Node15&#45;&gt;Node16</title>
<path fill="none" stroke="midnightblue" d="M541.18,-112.08C541.18,-105.01 541.18,-94.86 541.18,-85.99"/>
<polygon fill="midnightblue" stroke="midnightblue" points="544.68,-85.75 541.18,-75.75 537.68,-85.75 544.68,-85.75"/>
</g>
<!-- Node15&#45;&gt;Node17 -->
<g id="edge18" class="edge">
<title>Node15&#45;&gt;Node17</title>
<path fill="none" stroke="midnightblue" d="M525.11,-112.32C509.22,-103.74 484.67,-90.49 466.22,-80.52"/>
<polygon fill="midnightblue" stroke="midnightblue" points="467.67,-77.33 457.21,-75.65 464.34,-83.49 467.67,-77.33"/>
</g>
<!-- Node19&#45;&gt;Node6 -->
<g id="edge26" class="edge">
<title>Node19&#45;&gt;Node6</title>
<path fill="none" stroke="midnightblue" d="M964.18,-112.08C964.18,-105.01 964.18,-94.86 964.18,-85.99"/>
<polygon fill="midnightblue" stroke="midnightblue" points="967.68,-85.75 964.18,-75.75 960.68,-85.75 967.68,-85.75"/>
</g>
<!-- Node19&#45;&gt;Node8 -->
<g id="edge27" class="edge">
<title>Node19&#45;&gt;Node8</title>
<path fill="none" stroke="midnightblue" d="M977.36,-112.37C1006.19,-93.49 1075.08,-48.38 1110.44,-25.24"/>
<polygon fill="midnightblue" stroke="midnightblue" points="1112.61,-28 1119.06,-19.59 1108.77,-22.14 1112.61,-28"/>
</g>
<!-- Node19&#45;&gt;Node10 -->
<g id="edge28" class="edge">
<title>Node19&#45;&gt;Node10</title>
<path fill="none" stroke="midnightblue" d="M928.95,-116.28C876.6,-109.02 775.3,-94.06 690.18,-76 610.54,-59.1 518.12,-33.33 471.46,-19.87"/>
<polygon fill="midnightblue" stroke="midnightblue" points="472.26,-16.46 461.68,-17.04 470.32,-23.19 472.26,-16.46"/>
</g>
<!-- Node19&#45;&gt;Node11 -->
<g id="edge29" class="edge">
<title>Node19&#45;&gt;Node11</title>
<path fill="none" stroke="midnightblue" d="M946.68,-112.37C907.76,-93.17 813.84,-46.84 767.68,-24.07"/>
<polygon fill="midnightblue" stroke="midnightblue" points="769.11,-20.88 758.6,-19.59 766.02,-27.15 769.11,-20.88"/>
</g>
<!-- Node20&#45;&gt;Node9 -->
<g id="edge31" class="edge">
<title>Node20&#45;&gt;Node9</title>
<path fill="none" stroke="midnightblue" d="M751.3,-56.32C760.71,-48.26 774.92,-36.08 786.25,-26.37"/>
<polygon fill="midnightblue" stroke="midnightblue" points="788.56,-29 793.87,-19.83 784,-23.68 788.56,-29"/>
</g>
<!-- Node20&#45;&gt;Node10 -->
<g id="edge32" class="edge">
<title>Node20&#45;&gt;Node10</title>
<path fill="none" stroke="midnightblue" d="M699.15,-57.43C637.92,-46.41 525.64,-26.2 471.69,-16.49"/>
<polygon fill="midnightblue" stroke="midnightblue" points="472.17,-13.02 461.71,-14.7 470.93,-19.91 472.17,-13.02"/>
</g>
<!-- Node20&#45;&gt;Node11 -->
<g id="edge33" class="edge">
<title>Node20&#45;&gt;Node11</title>
<path fill="none" stroke="midnightblue" d="M741.18,-56.08C741.18,-49.01 741.18,-38.86 741.18,-29.99"/>
<polygon fill="midnightblue" stroke="midnightblue" points="744.68,-29.75 741.18,-19.75 737.68,-29.75 744.68,-29.75"/>
</g>
<!-- Node21&#45;&gt;Node8 -->
<g id="edge41" class="edge">
<title>Node21&#45;&gt;Node8</title>
<path fill="none" stroke="midnightblue" d="M1143.24,-112.37C1141.3,-94.62 1136.83,-53.67 1134.21,-29.6"/>
<polygon fill="midnightblue" stroke="midnightblue" points="1137.68,-29.15 1133.12,-19.59 1130.72,-29.91 1137.68,-29.15"/>
</g>
<!-- Node21&#45;&gt;Node11 -->
<g id="edge42" class="edge">
<title>Node21&#45;&gt;Node11</title>
<path fill="none" stroke="midnightblue" d="M1131.66,-112.42C1110.27,-98.21 1064.83,-69.96 1022.18,-56 918.51,-22.07 883.87,-42.47 773.3,-19.95"/>
<polygon fill="midnightblue" stroke="midnightblue" points="773.94,-16.5 763.43,-17.86 772.5,-23.35 773.94,-16.5"/>
</g>
<!-- Node22 -->
<g id="node22" class="node">
<title>Node22</title>
<g id="a_node22"><a xlink:href="pdqsort_8h.html" target="_top" xlink:title=" ">
<polygon fill="white" stroke="black" points="1234.68,-56.5 1234.68,-75.5 1291.68,-75.5 1291.68,-56.5 1234.68,-56.5"/>
<text text-anchor="middle" x="1263.18" y="-63.5" font-family="Helvetica,sans-Serif" font-size="10.00">pdqsort.h</text>
</a>
</g>
</g>
<!-- Node21&#45;&gt;Node22 -->
<g id="edge35" class="edge">
<title>Node21&#45;&gt;Node22</title>
<path fill="none" stroke="midnightblue" d="M1163.03,-112.44C1182.44,-103.64 1212.91,-89.81 1235.14,-79.72"/>
<polygon fill="midnightblue" stroke="midnightblue" points="1236.75,-82.84 1244.41,-75.52 1233.86,-76.46 1236.75,-82.84"/>
</g>
<!-- Node22&#45;&gt;Node8 -->
<g id="edge37" class="edge">
<title>Node22&#45;&gt;Node8</title>
<path fill="none" stroke="midnightblue" d="M1242.42,-56.44C1220.86,-47.56 1186.92,-33.56 1162.38,-23.45"/>
<polygon fill="midnightblue" stroke="midnightblue" points="1163.42,-20.09 1152.84,-19.52 1160.75,-26.56 1163.42,-20.09"/>
</g>
<!-- Node22&#45;&gt;Node23 -->
<g id="edge36" class="edge">
<title>Node22&#45;&gt;Node23</title>
<path fill="none" stroke="midnightblue" d="M1285.52,-56.44C1308.93,-47.48 1345.91,-33.31 1372.37,-23.18"/>
<polygon fill="midnightblue" stroke="midnightblue" points="1373.85,-26.36 1381.94,-19.52 1371.35,-19.82 1373.85,-26.36"/>
</g>
<!-- Node24 -->
<g id="node24" class="node">
<title>Node24</title>
<g id="a_node24"><a xlink:title=" ">
<polygon fill="white" stroke="#bfbfbf" points="1233.68,-0.5 1233.68,-19.5 1292.68,-19.5 1292.68,-0.5 1233.68,-0.5"/>
<text text-anchor="middle" x="1263.18" y="-7.5" font-family="Helvetica,sans-Serif" font-size="10.00">functional</text>
</a>
</g>
</g>
<!-- Node22&#45;&gt;Node24 -->
<g id="edge38" class="edge">
<title>Node22&#45;&gt;Node24</title>
<path fill="none" stroke="midnightblue" d="M1263.18,-56.08C1263.18,-49.01 1263.18,-38.86 1263.18,-29.99"/>
<polygon fill="midnightblue" stroke="midnightblue" points="1266.68,-29.75 1263.18,-19.75 1259.68,-29.75 1266.68,-29.75"/>
</g>
<!-- Node25 -->
<g id="node25" class="node">
<title>Node25</title>
<g id="a_node25"><a xlink:title=" ">
<polygon fill="white" stroke="#bfbfbf" points="1310.68,-0.5 1310.68,-19.5 1357.68,-19.5 1357.68,-0.5 1310.68,-0.5"/>
<text text-anchor="middle" x="1334.18" y="-7.5" font-family="Helvetica,sans-Serif" font-size="10.00">iterator</text>
</a>
</g>
</g>
<!-- Node22&#45;&gt;Node25 -->
<g id="edge39" class="edge">
<title>Node22&#45;&gt;Node25</title>
<path fill="none" stroke="midnightblue" d="M1274.59,-56.32C1285.29,-48.18 1301.52,-35.84 1314.34,-26.09"/>
<polygon fill="midnightblue" stroke="midnightblue" points="1316.72,-28.67 1322.56,-19.83 1312.49,-23.1 1316.72,-28.67"/>
</g>
<!-- Node26 -->
<g id="node26" class="node">
<title>Node26</title>
<g id="a_node26"><a xlink:title=" ">
<polygon fill="white" stroke="#bfbfbf" points="1175.18,-0.5 1175.18,-19.5 1215.18,-19.5 1215.18,-0.5 1175.18,-0.5"/>
<text text-anchor="middle" x="1195.18" y="-7.5" font-family="Helvetica,sans-Serif" font-size="10.00">utility</text>
</a>
</g>
</g>
<!-- Node22&#45;&gt;Node26 -->
<g id="edge40" class="edge">
<title>Node22&#45;&gt;Node26</title>
<path fill="none" stroke="midnightblue" d="M1252.25,-56.32C1242,-48.18 1226.46,-35.84 1214.18,-26.09"/>
<polygon fill="midnightblue" stroke="midnightblue" points="1216.31,-23.31 1206.3,-19.83 1211.96,-28.79 1216.31,-23.31"/>
</g>
<!-- Node30&#45;&gt;Node2 -->
<g id="edge54" class="edge">
<title>Node30&#45;&gt;Node2</title>
<path fill="none" stroke="midnightblue" d="M144.59,-224.32C129.18,-215.74 105.37,-202.49 87.47,-192.52"/>
<polygon fill="midnightblue" stroke="midnightblue" points="89.16,-189.46 78.72,-187.65 85.76,-195.58 89.16,-189.46"/>
</g>
<!-- Node30&#45;&gt;Node10 -->
<g id="edge56" class="edge">
<title>Node30&#45;&gt;Node10</title>
<path fill="none" stroke="midnightblue" d="M165.06,-224.42C170.16,-215.4 178.36,-200.77 185.18,-188 203.07,-154.51 199.14,-140.54 224.18,-112 274.36,-54.78 363.81,-27.74 410.65,-16.98"/>
<polygon fill="midnightblue" stroke="midnightblue" points="411.5,-20.38 420.51,-14.81 410,-13.54 411.5,-20.38"/>
</g>
<!-- Node31 -->
<g id="node31" class="node">
<title>Node31</title>
<g id="a_node31"><a xlink:title=" ">
<polygon fill="white" stroke="#bfbfbf" points="131.68,-168.5 131.68,-187.5 176.68,-187.5 176.68,-168.5 131.68,-168.5"/>
<text text-anchor="middle" x="154.18" y="-175.5" font-family="Helvetica,sans-Serif" font-size="10.00">iosfwd</text>
</a>
</g>
</g>
<!-- Node30&#45;&gt;Node31 -->
<g id="edge55" class="edge">
<title>Node30&#45;&gt;Node31</title>
<path fill="none" stroke="midnightblue" d="M159.19,-224.08C158.39,-216.93 157.25,-206.64 156.26,-197.69"/>
<polygon fill="midnightblue" stroke="midnightblue" points="159.73,-197.3 155.15,-187.75 152.78,-198.08 159.73,-197.3"/>
</g>
</g>
</svg>
