<?xml version="1.0" encoding="UTF-8" standalone="no"?>
<!DOCTYPE svg PUBLIC "-//W3C//DTD SVG 1.1//EN"
 "http://www.w3.org/Graphics/SVG/1.1/DTD/svg11.dtd">
<!-- Generated by graphviz version 5.0.1 (20220820.1526)
 -->
<!-- Title: Iotm::text_mesh::ElementData&lt; EntityId, Topology &gt; Pages: 1 -->
<svg width="176pt" height="258pt"
 viewBox="0.00 0.00 176.00 258.00" xmlns="http://www.w3.org/2000/svg" xmlns:xlink="http://www.w3.org/1999/xlink">
<g id="graph0" class="graph" transform="scale(1 1) rotate(0) translate(4 254)">
<title>Iotm::text_mesh::ElementData&lt; EntityId, Topology &gt;</title>
<!-- Node1 -->
<g id="node1" class="node">
<title>Node1</title>
<g id="a_node1"><a xlink:title=" ">
<polygon fill="#999999" stroke="#666666" points="134,-30 0,-30 0,0 134,0 134,-30"/>
<text text-anchor="start" x="8" y="-18" font-family="Helvetica,sans-Serif" font-size="10.00">Iotm::text_mesh::Element</text>
<text text-anchor="middle" x="67" y="-7" font-family="Helvetica,sans-Serif" font-size="10.00">Data&lt; EntityId, Topology &gt;</text>
</a>
</g>
</g>
<!-- Node2 -->
<g id="node2" class="node">
<title>Node2</title>
<g id="a_node2"><a xlink:href="classIotm_1_1TopologyMapEntry.html" target="_top" xlink:title=" ">
<polygon fill="white" stroke="#666666" points="128.5,-96 5.5,-96 5.5,-77 128.5,-77 128.5,-96"/>
<text text-anchor="middle" x="67" y="-84" font-family="Helvetica,sans-Serif" font-size="10.00">Iotm::TopologyMapEntry</text>
</a>
</g>
</g>
<!-- Node2&#45;&gt;Node1 -->
<g id="edge1" class="edge">
<title>Node2&#45;&gt;Node1</title>
<path fill="none" stroke="#9a32cd" stroke-dasharray="5,2" d="M67,-66.71C67,-55.19 67,-40.68 67,-30.14"/>
<polygon fill="#9a32cd" stroke="#9a32cd" points="63.5,-66.98 67,-76.98 70.5,-66.98 63.5,-66.98"/>
<text text-anchor="middle" x="87" y="-51" font-family="Helvetica,sans-Serif" font-size="10.00"> topology</text>
</g>
<!-- Node3 -->
<g id="node3" class="node">
<title>Node3</title>
<g id="a_node3"><a xlink:href="classIoss_1_1ElementTopology.html" target="_top" xlink:title="Represents an element topology.">
<polygon fill="white" stroke="#666666" points="125,-162 9,-162 9,-143 125,-143 125,-162"/>
<text text-anchor="middle" x="67" y="-150" font-family="Helvetica,sans-Serif" font-size="10.00">Ioss::ElementTopology</text>
</a>
</g>
</g>
<!-- Node3&#45;&gt;Node2 -->
<g id="edge2" class="edge">
<title>Node3&#45;&gt;Node2</title>
<path fill="none" stroke="#9a32cd" stroke-dasharray="5,2" d="M67,-132.58C67,-120.63 67,-105.72 67,-96.41"/>
<polygon fill="#9a32cd" stroke="#9a32cd" points="63.5,-132.87 67,-142.87 70.5,-132.87 63.5,-132.87"/>
<text text-anchor="middle" x="87" y="-117" font-family="Helvetica,sans-Serif" font-size="10.00"> topology</text>
</g>
<!-- Node4 -->
<g id="node4" class="node">
<title>Node4</title>
<g id="a_node4"><a xlink:href="classstd_1_1basic__string.html" target="_top" xlink:title=" ">
<polygon fill="white" stroke="#666666" points="121.5,-250 12.5,-250 12.5,-220 121.5,-220 121.5,-250"/>
<text text-anchor="start" x="20.5" y="-238" font-family="Helvetica,sans-Serif" font-size="10.00">std::basic_string&lt;</text>
<text text-anchor="middle" x="67" y="-227" font-family="Helvetica,sans-Serif" font-size="10.00"> Elem, Traits, Alloc &gt;</text>
</a>
</g>
</g>
<!-- Node4&#45;&gt;Node3 -->
<g id="edge3" class="edge">
<title>Node4&#45;&gt;Node3</title>
<path fill="none" stroke="#9a32cd" stroke-dasharray="5,2" d="M67,-209.7C67,-193.7 67,-173.7 67,-162.38"/>
<polygon fill="#9a32cd" stroke="#9a32cd" points="63.5,-209.98 67,-219.98 70.5,-209.98 63.5,-209.98"/>
<text text-anchor="middle" x="117.5" y="-194" font-family="Helvetica,sans-Serif" font-size="10.00"> masterElementName_</text>
<text text-anchor="middle" x="117.5" y="-183" font-family="Helvetica,sans-Serif" font-size="10.00">name_</text>
</g>
</g>
</svg>
