<?xml version="1.0" encoding="UTF-8" standalone="no"?>
<!DOCTYPE svg PUBLIC "-//W3C//DTD SVG 1.1//EN"
 "http://www.w3.org/Graphics/SVG/1.1/DTD/svg11.dtd">
<!-- Generated by graphviz version 3.0.0 (20220226.1711)
 -->
<!-- Title: Iofaodel::field_entry_t Pages: 1 -->
<svg width="227pt" height="197pt"
 viewBox="0.00 0.00 227.00 197.00" xmlns="http://www.w3.org/2000/svg" xmlns:xlink="http://www.w3.org/1999/xlink">
<g id="graph0" class="graph" transform="scale(1 1) rotate(0) translate(4 193)">
<title>Iofaodel::field_entry_t</title>
<polygon fill="white" stroke="transparent" points="-4,4 -4,-193 223,-193 223,4 -4,4"/>
<!-- Node1 -->
<g id="node1" class="node">
<title>Node1</title>
<g id="a_node1"><a xlink:title=" ">
<polygon fill="#bfbfbf" stroke="black" points="0,-0.5 0,-19.5 110,-19.5 110,-0.5 0,-0.5"/>
<text text-anchor="middle" x="55" y="-7.5" font-family="Helvetica,sans-Serif" font-size="10.00">Iofaodel::field_entry_t</text>
</a>
</g>
</g>
<!-- Node2 -->
<g id="node2" class="node">
<title>Node2</title>
<g id="a_node2"><a xlink:title=" ">
<polygon fill="white" stroke="black" points="33.5,-169.5 33.5,-188.5 76.5,-188.5 76.5,-169.5 33.5,-169.5"/>
<text text-anchor="middle" x="55" y="-176.5" font-family="Helvetica,sans-Serif" font-size="10.00">size_t</text>
</a>
</g>
</g>
<!-- Node2&#45;&gt;Node1 -->
<g id="edge1" class="edge">
<title>Node2&#45;&gt;Node1</title>
<path fill="none" stroke="#9a32cd" stroke-dasharray="5,2" d="M52.49,-159.04C50.84,-145.65 48.85,-127.26 48,-111 46.23,-77.11 51.22,-36.83 53.7,-19.55"/>
<polygon fill="#9a32cd" stroke="#9a32cd" points="49.07,-159.87 53.81,-169.35 56.01,-158.99 49.07,-159.87"/>
<text text-anchor="middle" x="71" y="-103" font-family="Helvetica,sans-Serif" font-size="10.00"> data_size</text>
<text text-anchor="middle" x="71" y="-92" font-family="Helvetica,sans-Serif" font-size="10.00">raw_count</text>
</g>
<!-- Node3 -->
<g id="node3" class="node">
<title>Node3</title>
<g id="a_node3"><a xlink:href="structIofaodel_1_1value__entry__t.html" target="_top" xlink:title=" ">
<polygon fill="white" stroke="black" points="103,-90.5 103,-109.5 219,-109.5 219,-90.5 103,-90.5"/>
<text text-anchor="middle" x="161" y="-97.5" font-family="Helvetica,sans-Serif" font-size="10.00">Iofaodel::value_entry_t</text>
</a>
</g>
</g>
<!-- Node2&#45;&gt;Node3 -->
<g id="edge3" class="edge">
<title>Node2&#45;&gt;Node3</title>
<path fill="none" stroke="#9a32cd" stroke-dasharray="5,2" d="M75.01,-163.46C96.9,-147.56 131.26,-122.6 149.2,-109.57"/>
<polygon fill="#9a32cd" stroke="#9a32cd" points="72.78,-160.76 66.75,-169.47 76.9,-166.42 72.78,-160.76"/>
<text text-anchor="middle" x="134" y="-143" font-family="Helvetica,sans-Serif" font-size="10.00"> offset</text>
<text text-anchor="middle" x="134" y="-132" font-family="Helvetica,sans-Serif" font-size="10.00">size</text>
</g>
<!-- Node3&#45;&gt;Node1 -->
<g id="edge2" class="edge">
<title>Node3&#45;&gt;Node1</title>
<path fill="none" stroke="#9a32cd" stroke-dasharray="5,2" d="M142.69,-83.8C120.39,-65.29 83.5,-34.66 65.51,-19.72"/>
<polygon fill="#9a32cd" stroke="#9a32cd" points="140.52,-86.55 150.45,-90.24 144.99,-81.16 140.52,-86.55"/>
<text text-anchor="middle" x="142.5" y="-63" font-family="Helvetica,sans-Serif" font-size="10.00"> name</text>
<text text-anchor="middle" x="142.5" y="-52" font-family="Helvetica,sans-Serif" font-size="10.00">storage</text>
<text text-anchor="middle" x="142.5" y="-41" font-family="Helvetica,sans-Serif" font-size="10.00">value</text>
</g>
</g>
</svg>
