<?xml version="1.0" encoding="UTF-8" standalone="no"?>
<!DOCTYPE svg PUBLIC "-//W3C//DTD SVG 1.1//EN"
 "http://www.w3.org/Graphics/SVG/1.1/DTD/svg11.dtd">
<!-- Generated by graphviz version 13.1.2 (20250808.2320)
 -->
<!-- Title: Iotm::text_mesh::ElementData&lt; EntityId, Topology &gt; Pages: 1 -->
<svg width="142pt" height="184pt"
 viewBox="0.00 0.00 142.00 184.00" xmlns="http://www.w3.org/2000/svg" xmlns:xlink="http://www.w3.org/1999/xlink">
<g id="graph0" class="graph" transform="scale(1 1) rotate(0) translate(4 179.5)">
<title>Iotm::text_mesh::ElementData&lt; EntityId, Topology &gt;</title>
<!-- Node1 -->
<g id="Node000001" class="node">
<title>Node1</title>
<g id="a_Node000001"><a xlink:title=" ">
<polygon fill="#999999" stroke="#666666" points="133.75,-30.5 0,-30.5 0,0 133.75,0 133.75,-30.5"/>
<text xml:space="preserve" text-anchor="start" x="8" y="-17" font-family="Helvetica,sans-Serif" font-size="10.00">Iotm::text_mesh::Element</text>
<text xml:space="preserve" text-anchor="middle" x="66.88" y="-5.75" font-family="Helvetica,sans-Serif" font-size="10.00">Data&lt; EntityId, Topology &gt;</text>
</a>
</g>
</g>
<!-- Node2 -->
<g id="Node000002" class="node">
<title>Node2</title>
<g id="a_Node000002"><a xlink:href="classIotm_1_1TopologyMapEntry.html" target="_top" xlink:title=" ">
<polygon fill="white" stroke="#666666" points="128.12,-103 5.62,-103 5.62,-83.75 128.12,-83.75 128.12,-103"/>
<text xml:space="preserve" text-anchor="middle" x="66.88" y="-89.5" font-family="Helvetica,sans-Serif" font-size="10.00">Iotm::TopologyMapEntry</text>
</a>
</g>
</g>
<!-- Node2&#45;&gt;Node1 -->
<g id="edge1_Node000001_Node000002" class="edge">
<title>Node2&#45;&gt;Node1</title>
<g id="a_edge1_Node000001_Node000002"><a xlink:title=" ">
<path fill="none" stroke="#9a32cd" stroke-dasharray="5,2" d="M66.88,-72.22C66.88,-59.17 66.88,-42.48 66.88,-30.73"/>
<polygon fill="#9a32cd" stroke="#9a32cd" points="63.38,-71.83 66.88,-81.83 70.38,-71.83 63.38,-71.83"/>
</a>
</g>
<text xml:space="preserve" text-anchor="start" x="69.88" y="-53.25" font-family="Helvetica,sans-Serif" font-size="10.00" fill="grey">topology</text>
</g>
<!-- Node3 -->
<g id="Node000003" class="node">
<title>Node3</title>
<g id="a_Node000003"><a xlink:href="classIoss_1_1ElementTopology.html" target="_top" xlink:title="Represents an element topology.">
<polygon fill="white" stroke="#666666" points="124.75,-175.5 9,-175.5 9,-156.25 124.75,-156.25 124.75,-175.5"/>
<text xml:space="preserve" text-anchor="middle" x="66.88" y="-162" font-family="Helvetica,sans-Serif" font-size="10.00">Ioss::ElementTopology</text>
</a>
</g>
</g>
<!-- Node3&#45;&gt;Node2 -->
<g id="edge2_Node000002_Node000003" class="edge">
<title>Node3&#45;&gt;Node2</title>
<g id="a_edge2_Node000002_Node000003"><a xlink:title=" ">
<path fill="none" stroke="#9a32cd" stroke-dasharray="5,2" d="M66.88,-144.8C66.88,-131.19 66.88,-113.85 66.88,-103.45"/>
<polygon fill="#9a32cd" stroke="#9a32cd" points="63.38,-144.43 66.88,-154.43 70.38,-144.43 63.38,-144.43"/>
</a>
</g>
<text xml:space="preserve" text-anchor="start" x="69.88" y="-125.75" font-family="Helvetica,sans-Serif" font-size="10.00" fill="grey">topology</text>
</g>
</g>
</svg>
