<?xml version="1.0" encoding="UTF-8" standalone="no"?>
<!DOCTYPE svg PUBLIC "-//W3C//DTD SVG 1.1//EN"
 "http://www.w3.org/Graphics/SVG/1.1/DTD/svg11.dtd">
<!-- Generated by graphviz version 12.2.1 (20241206.2353)
 -->
<!-- Title: Iotm::text_mesh::SidesetData&lt; EntityId, Topology &gt; Pages: 1 -->
<svg width="1176pt" height="158pt"
 viewBox="0.00 0.00 1175.75 158.12" xmlns="http://www.w3.org/2000/svg" xmlns:xlink="http://www.w3.org/1999/xlink">
<g id="graph0" class="graph" transform="scale(1 1) rotate(0) translate(4 154.12)">
<title>Iotm::text_mesh::SidesetData&lt; EntityId, Topology &gt;</title>
<!-- Node1 -->
<g id="Node000001" class="node">
<title>Node1</title>
<g id="a_Node000001"><a xlink:title=" ">
<polygon fill="#999999" stroke="#666666" points="1167.75,-96.12 1034,-96.12 1034,-65.62 1167.75,-65.62 1167.75,-96.12"/>
<text text-anchor="start" x="1042" y="-82.62" font-family="Helvetica,sans-Serif" font-size="10.00">Iotm::text_mesh::Sideset</text>
<text text-anchor="middle" x="1100.88" y="-71.38" font-family="Helvetica,sans-Serif" font-size="10.00">Data&lt; EntityId, Topology &gt;</text>
</a>
</g>
</g>
<!-- Node2 -->
<g id="Node000002" class="node">
<title>Node2</title>
<g id="a_Node000002"><a xlink:href="structIotm_1_1text__mesh_1_1EntityGroupData.html" target="_top" xlink:title=" ">
<polygon fill="white" stroke="#666666" points="914,-150.12 732.25,-150.12 732.25,-119.62 914,-119.62 914,-150.12"/>
<text text-anchor="start" x="740.25" y="-136.62" font-family="Helvetica,sans-Serif" font-size="10.00">Iotm::text_mesh::EntityGroup</text>
<text text-anchor="middle" x="823.12" y="-125.38" font-family="Helvetica,sans-Serif" font-size="10.00">Data&lt; SidesetDataType&lt; EntityId &gt; &gt;</text>
</a>
</g>
</g>
<!-- Node2&#45;&gt;Node1 -->
<g id="edge1_Node000001_Node000002" class="edge">
<title>Node2&#45;&gt;Node1</title>
<g id="a_edge1_Node000001_Node000002"><a xlink:title=" ">
<path fill="none" stroke="#63b8ff" d="M925.3,-118.94C954.64,-113.92 986.67,-108.06 1016,-101.88 1023.64,-100.26 1031.63,-98.44 1039.53,-96.56"/>
<polygon fill="#63b8ff" stroke="#63b8ff" points="924.96,-115.44 915.69,-120.56 926.13,-122.34 924.96,-115.44"/>
</a>
</g>
</g>
<!-- Node3 -->
<g id="Node000003" class="node">
<title>Node3</title>
<g id="a_Node000003"><a xlink:href="classIotm_1_1text__mesh_1_1SidesetSkinner.html" target="_top" xlink:title=" ">
<polygon fill="white" stroke="#666666" points="886.25,-101.75 760,-101.75 760,-60 886.25,-60 886.25,-101.75"/>
<text text-anchor="start" x="768" y="-88.25" font-family="Helvetica,sans-Serif" font-size="10.00">Iotm::text_mesh::Sideset</text>
<text text-anchor="start" x="768" y="-77" font-family="Helvetica,sans-Serif" font-size="10.00">Skinner&lt; EntityId, Iotm</text>
<text text-anchor="middle" x="823.12" y="-65.75" font-family="Helvetica,sans-Serif" font-size="10.00">::TopologyMapEntry &gt;</text>
</a>
</g>
</g>
<!-- Node3&#45;&gt;Node1 -->
<g id="edge2_Node000001_Node000003" class="edge">
<title>Node3&#45;&gt;Node1</title>
<g id="a_edge2_Node000001_Node000003"><a xlink:title=" ">
<path fill="none" stroke="#9a32cd" stroke-dasharray="5,2" d="M898.04,-80.88C940.29,-80.88 992.82,-80.88 1033.71,-80.88"/>
<polygon fill="#9a32cd" stroke="#9a32cd" points="898.21,-77.38 888.21,-80.88 898.21,-84.38 898.21,-77.38"/>
</a>
</g>
<text text-anchor="start" x="935" y="-85.62" font-family="Helvetica,sans-Serif" font-size="10.00" fill="grey">m_sidesetSkinner</text>
</g>
<!-- Node4 -->
<g id="Node000004" class="node">
<title>Node4</title>
<g id="a_Node000004"><a xlink:href="classIotm_1_1text__mesh_1_1SideAdjacencyGraph.html" target="_top" xlink:title=" ">
<polygon fill="white" stroke="#666666" points="615.25,-124.75 441,-124.75 441,-83 615.25,-83 615.25,-124.75"/>
<text text-anchor="start" x="449" y="-111.25" font-family="Helvetica,sans-Serif" font-size="10.00">Iotm::text_mesh::SideAdjacency</text>
<text text-anchor="start" x="449" y="-100" font-family="Helvetica,sans-Serif" font-size="10.00">Graph&lt; EntityId, Iotm::TopologyMap</text>
<text text-anchor="middle" x="528.12" y="-88.75" font-family="Helvetica,sans-Serif" font-size="10.00">Entry &gt;</text>
</a>
</g>
</g>
<!-- Node4&#45;&gt;Node3 -->
<g id="edge3_Node000003_Node000004" class="edge">
<title>Node4&#45;&gt;Node3</title>
<g id="a_edge3_Node000003_Node000004"><a xlink:title=" ">
<path fill="none" stroke="#63b8ff" d="M626.74,-96.21C670.57,-92.77 721,-88.81 759.65,-85.78"/>
<polygon fill="#63b8ff" stroke="#63b8ff" points="626.65,-92.71 616.96,-96.98 627.2,-99.69 626.65,-92.71"/>
</a>
</g>
</g>
<!-- Node5 -->
<g id="Node000005" class="node">
<title>Node5</title>
<g id="a_Node000005"><a xlink:href="structIotm_1_1text__mesh_1_1TextMeshData.html" target="_top" xlink:title=" ">
<polygon fill="white" stroke="#666666" points="603.25,-64.75 453,-64.75 453,-23 603.25,-23 603.25,-64.75"/>
<text text-anchor="start" x="461" y="-51.25" font-family="Helvetica,sans-Serif" font-size="10.00">Iotm::text_mesh::TextMesh</text>
<text text-anchor="start" x="461" y="-40" font-family="Helvetica,sans-Serif" font-size="10.00">Data&lt; EntityId, Iotm::Topology</text>
<text text-anchor="middle" x="528.12" y="-28.75" font-family="Helvetica,sans-Serif" font-size="10.00">MapEntry &gt;</text>
</a>
</g>
</g>
<!-- Node5&#45;&gt;Node3 -->
<g id="edge4_Node000003_Node000005" class="edge">
<title>Node5&#45;&gt;Node3</title>
<g id="a_edge4_Node000003_Node000005"><a xlink:title=" ">
<path fill="none" stroke="#9a32cd" stroke-dasharray="5,2" d="M614.71,-54.68C661.15,-60.55 717.53,-67.67 759.78,-73"/>
<polygon fill="#9a32cd" stroke="#9a32cd" points="615.3,-51.23 604.94,-53.45 614.42,-58.17 615.3,-51.23"/>
</a>
</g>
<text text-anchor="start" x="636.25" y="-71.53" font-family="Helvetica,sans-Serif" font-size="10.00" fill="grey">m_textMeshData</text>
</g>
<!-- Node6 -->
<g id="Node000006" class="node">
<title>Node6</title>
<g id="a_Node000006"><a xlink:href="classIotm_1_1text__mesh_1_1PartIdMapping.html" target="_top" xlink:title=" ">
<polygon fill="white" stroke="#666666" points="350.25,-74.5 194,-74.5 194,-55.25 350.25,-55.25 350.25,-74.5"/>
<text text-anchor="middle" x="272.12" y="-61" font-family="Helvetica,sans-Serif" font-size="10.00">Iotm::text_mesh::PartIdMapping</text>
</a>
</g>
</g>
<!-- Node6&#45;&gt;Node5 -->
<g id="edge5_Node000005_Node000006" class="edge">
<title>Node6&#45;&gt;Node5</title>
<g id="a_edge5_Node000005_Node000006"><a xlink:title=" ">
<path fill="none" stroke="#9a32cd" stroke-dasharray="5,2" d="M361.9,-57.54C391.52,-55.09 424.2,-52.38 452.62,-50.03"/>
<polygon fill="#9a32cd" stroke="#9a32cd" points="361.9,-54.02 352.22,-58.34 362.48,-61 361.9,-54.02"/>
</a>
</g>
<text text-anchor="start" x="386.62" y="-60.38" font-family="Helvetica,sans-Serif" font-size="10.00" fill="grey">partIds</text>
</g>
<!-- Node7 -->
<g id="Node000007" class="node">
<title>Node7</title>
<g id="a_Node000007"><a xlink:href="classIotm_1_1text__mesh_1_1Sidesets.html" target="_top" xlink:title=" ">
<polygon fill="white" stroke="#666666" points="362.25,-37.12 182,-37.12 182,-6.62 362.25,-6.62 362.25,-37.12"/>
<text text-anchor="start" x="190" y="-23.62" font-family="Helvetica,sans-Serif" font-size="10.00">Iotm::text_mesh::Sidesets</text>
<text text-anchor="middle" x="272.12" y="-12.38" font-family="Helvetica,sans-Serif" font-size="10.00">&lt; EntityId, Iotm::TopologyMapEntry &gt;</text>
</a>
</g>
</g>
<!-- Node7&#45;&gt;Node5 -->
<g id="edge6_Node000005_Node000007" class="edge">
<title>Node7&#45;&gt;Node5</title>
<g id="a_edge6_Node000005_Node000007"><a xlink:title=" ">
<path fill="none" stroke="#9a32cd" stroke-dasharray="5,2" d="M374.01,-27.71C390.39,-28.87 407.18,-30.18 423,-31.62 432.61,-32.5 442.7,-33.54 452.66,-34.64"/>
<polygon fill="#9a32cd" stroke="#9a32cd" points="374.47,-24.24 364.25,-27.04 373.98,-31.22 374.47,-24.24"/>
</a>
</g>
<text text-anchor="start" x="383.25" y="-36.38" font-family="Helvetica,sans-Serif" font-size="10.00" fill="grey">sidesets</text>
</g>
<!-- Node8 -->
<g id="Node000008" class="node">
<title>Node8</title>
<g id="a_Node000008"><a xlink:href="classIotm_1_1text__mesh_1_1EntityGroup.html" target="_top" xlink:title=" ">
<polygon fill="white" stroke="#666666" points="145,-42.75 0,-42.75 0,-1 145,-1 145,-42.75"/>
<text text-anchor="start" x="8" y="-29.25" font-family="Helvetica,sans-Serif" font-size="10.00">Iotm::text_mesh::EntityGroup</text>
<text text-anchor="start" x="8" y="-18" font-family="Helvetica,sans-Serif" font-size="10.00">&lt; SidesetData&lt; EntityId,</text>
<text text-anchor="middle" x="72.5" y="-6.75" font-family="Helvetica,sans-Serif" font-size="10.00"> Iotm::TopologyMapEntry &gt; &gt;</text>
</a>
</g>
</g>
<!-- Node8&#45;&gt;Node7 -->
<g id="edge7_Node000007_Node000008" class="edge">
<title>Node8&#45;&gt;Node7</title>
<g id="a_edge7_Node000007_Node000008"><a xlink:title=" ">
<path fill="none" stroke="#63b8ff" d="M156.9,-21.88C165.12,-21.88 173.48,-21.88 181.75,-21.88"/>
<polygon fill="#63b8ff" stroke="#63b8ff" points="156.92,-18.38 146.92,-21.88 156.92,-25.38 156.92,-18.38"/>
</a>
</g>
</g>
<!-- Node9 -->
<g id="Node000009" class="node">
<title>Node9</title>
<g id="a_Node000009"><a xlink:href="classIotm_1_1text__mesh_1_1SidesetSplitter.html" target="_top" xlink:title=" ">
<polygon fill="white" stroke="#666666" points="886.25,-41.75 760,-41.75 760,0 886.25,0 886.25,-41.75"/>
<text text-anchor="start" x="768" y="-28.25" font-family="Helvetica,sans-Serif" font-size="10.00">Iotm::text_mesh::Sideset</text>
<text text-anchor="start" x="768" y="-17" font-family="Helvetica,sans-Serif" font-size="10.00">Splitter&lt; EntityId, Iotm</text>
<text text-anchor="middle" x="823.12" y="-5.75" font-family="Helvetica,sans-Serif" font-size="10.00">::TopologyMapEntry &gt;</text>
</a>
</g>
</g>
<!-- Node9&#45;&gt;Node1 -->
<g id="edge8_Node000001_Node000009" class="edge">
<title>Node9&#45;&gt;Node1</title>
<g id="a_edge8_Node000001_Node000009"><a xlink:title=" ">
<path fill="none" stroke="#9a32cd" stroke-dasharray="5,2" d="M897.37,-34.79C933.22,-41.83 976.96,-50.74 1016,-59.62 1023.62,-61.36 1031.6,-63.26 1039.49,-65.2"/>
<polygon fill="#9a32cd" stroke="#9a32cd" points="898.48,-31.45 887.99,-32.96 897.14,-38.32 898.48,-31.45"/>
</a>
</g>
<text text-anchor="start" x="936.12" y="-64.38" font-family="Helvetica,sans-Serif" font-size="10.00" fill="grey">m_sidesetSplitter</text>
</g>
</g>
</svg>
