<?xml version="1.0" encoding="UTF-8" standalone="no"?>
<!DOCTYPE svg PUBLIC "-//W3C//DTD SVG 1.1//EN"
 "http://www.w3.org/Graphics/SVG/1.1/DTD/svg11.dtd">
<!-- Generated by graphviz version 6.0.2 (20221011.1828)
 -->
<!-- Title: doctest::detail::MessageBuilder Pages: 1 -->
<svg width="242pt" height="247pt"
 viewBox="0.00 0.00 242.00 247.00" xmlns="http://www.w3.org/2000/svg" xmlns:xlink="http://www.w3.org/1999/xlink">
<g id="graph0" class="graph" transform="scale(1 1) rotate(0) translate(4 243)">
<title>doctest::detail::MessageBuilder</title>
<!-- Node1 -->
<g id="node1" class="node">
<title>Node1</title>
<g id="a_node1"><a xlink:title=" ">
<polygon fill="#999999" stroke="#666666" points="214,-30 90,-30 90,0 214,0 214,-30"/>
<text text-anchor="start" x="98" y="-18" font-family="Helvetica,sans-Serif" font-size="10.00">doctest::detail::Message</text>
<text text-anchor="middle" x="152" y="-7" font-family="Helvetica,sans-Serif" font-size="10.00">Builder</text>
</a>
</g>
</g>
<!-- Node2 -->
<g id="node2" class="node">
<title>Node2</title>
<g id="a_node2"><a xlink:href="structdoctest_1_1MessageData.html" target="_top" xlink:title=" ">
<polygon fill="white" stroke="#666666" points="116,-101.5 0,-101.5 0,-82.5 116,-82.5 116,-101.5"/>
<text text-anchor="middle" x="58" y="-89.5" font-family="Helvetica,sans-Serif" font-size="10.00">doctest::MessageData</text>
</a>
</g>
</g>
<!-- Node2&#45;&gt;Node1 -->
<g id="edge1" class="edge">
<title>Node2&#45;&gt;Node1</title>
<path fill="none" stroke="#63b8ff" d="M76.77,-76.02C93.53,-62.65 117.89,-43.21 134.31,-30.11"/>
<polygon fill="#63b8ff" stroke="#63b8ff" points="74.42,-73.42 68.78,-82.4 78.78,-78.9 74.42,-73.42"/>
</g>
<!-- Node3 -->
<g id="node3" class="node">
<title>Node3</title>
<g id="a_node3"><a xlink:href="classdoctest_1_1String.html" target="_top" xlink:title=" ">
<polygon fill="white" stroke="#666666" points="98,-173 18,-173 18,-154 98,-154 98,-173"/>
<text text-anchor="middle" x="58" y="-161" font-family="Helvetica,sans-Serif" font-size="10.00">doctest::String</text>
</a>
</g>
</g>
<!-- Node3&#45;&gt;Node2 -->
<g id="edge2" class="edge">
<title>Node3&#45;&gt;Node2</title>
<path fill="none" stroke="#9a32cd" stroke-dasharray="5,2" d="M58,-143.71C58,-130 58,-112.05 58,-101.59"/>
<polygon fill="#9a32cd" stroke="#9a32cd" points="54.5,-143.98 58,-153.98 61.5,-143.98 54.5,-143.98"/>
<text text-anchor="middle" x="78.5" y="-128" font-family="Helvetica,sans-Serif" font-size="10.00"> m_string</text>
</g>
<!-- Node4 -->
<g id="node4" class="node">
<title>Node4</title>
<g id="a_node4"><a xlink:href="structdoctest_1_1String_1_1view.html" target="_top" xlink:title="OCLINT avoid private static members.">
<polygon fill="white" stroke="#666666" points="111.5,-239 4.5,-239 4.5,-220 111.5,-220 111.5,-239"/>
<text text-anchor="middle" x="58" y="-227" font-family="Helvetica,sans-Serif" font-size="10.00">doctest::String::view</text>
</a>
</g>
</g>
<!-- Node4&#45;&gt;Node3 -->
<g id="edge3" class="edge">
<title>Node4&#45;&gt;Node3</title>
<path fill="none" stroke="#9a32cd" stroke-dasharray="5,2" d="M58,-209.58C58,-197.63 58,-182.72 58,-173.41"/>
<polygon fill="#9a32cd" stroke="#9a32cd" points="54.5,-209.87 58,-219.87 61.5,-209.87 54.5,-209.87"/>
<text text-anchor="middle" x="69" y="-194" font-family="Helvetica,sans-Serif" font-size="10.00"> data</text>
</g>
<!-- Node5 -->
<g id="node5" class="node">
<title>Node5</title>
<g id="a_node5"><a xlink:href="classstd_1_1basic__ostream.html" target="_top" xlink:title=" ">
<polygon fill="white" stroke="#666666" points="234,-107 134,-107 134,-77 234,-77 234,-107"/>
<text text-anchor="start" x="142" y="-95" font-family="Helvetica,sans-Serif" font-size="10.00">std::basic_ostream</text>
<text text-anchor="middle" x="184" y="-84" font-family="Helvetica,sans-Serif" font-size="10.00">&lt; charT, traits &gt;</text>
</a>
</g>
</g>
<!-- Node5&#45;&gt;Node1 -->
<g id="edge4" class="edge">
<title>Node5&#45;&gt;Node1</title>
<path fill="none" stroke="#9a32cd" stroke-dasharray="5,2" d="M174.04,-67.65C168.78,-55.32 162.5,-40.61 157.99,-30.04"/>
<polygon fill="#9a32cd" stroke="#9a32cd" points="170.84,-69.07 177.98,-76.89 177.28,-66.32 170.84,-69.07"/>
<text text-anchor="middle" x="192.5" y="-51" font-family="Helvetica,sans-Serif" font-size="10.00"> m_stream</text>
</g>
</g>
</svg>
