<?xml version="1.0" encoding="UTF-8" standalone="no"?>
<!DOCTYPE svg PUBLIC "-//W3C//DTD SVG 1.1//EN"
 "http://www.w3.org/Graphics/SVG/1.1/DTD/svg11.dtd">
<!-- Generated by graphviz version 2.50.0 (20211204.2007)
 -->
<!-- Title: Iotm::text_mesh::AssemblyData&lt; EntityId &gt; Pages: 1 -->
<svg width="188pt" height="106pt"
 viewBox="0.00 0.00 188.00 106.00" xmlns="http://www.w3.org/2000/svg" xmlns:xlink="http://www.w3.org/1999/xlink">
<g id="graph0" class="graph" transform="scale(1 1) rotate(0) translate(4 102)">
<title>Iotm::text_mesh::AssemblyData&lt; EntityId &gt;</title>
<polygon fill="white" stroke="transparent" points="-4,4 -4,-102 184,-102 184,4 -4,4"/>
<!-- Node1 -->
<g id="node1" class="node">
<title>Node1</title>
<g id="a_node1"><a xlink:title=" ">
<polygon fill="#bfbfbf" stroke="black" points="21.5,-0.5 21.5,-30.5 158.5,-30.5 158.5,-0.5 21.5,-0.5"/>
<text text-anchor="start" x="29.5" y="-18.5" font-family="Helvetica,sans-Serif" font-size="10.00">Iotm::text_mesh::Assembly</text>
<text text-anchor="middle" x="90" y="-7.5" font-family="Helvetica,sans-Serif" font-size="10.00">Data&lt; EntityId &gt;</text>
</a>
</g>
</g>
<!-- Node2 -->
<g id="node2" class="node">
<title>Node2</title>
<g id="a_node2"><a xlink:href="structIotm_1_1text__mesh_1_1EntityGroupData.html" target="_top" xlink:title=" ">
<polygon fill="white" stroke="black" points="0,-67.5 0,-97.5 180,-97.5 180,-67.5 0,-67.5"/>
<text text-anchor="start" x="8" y="-85.5" font-family="Helvetica,sans-Serif" font-size="10.00">Iotm::text_mesh::EntityGroup</text>
<text text-anchor="middle" x="90" y="-74.5" font-family="Helvetica,sans-Serif" font-size="10.00">Data&lt; EntityId, AssemblyDataType &gt;</text>
</a>
</g>
</g>
<!-- Node2&#45;&gt;Node1 -->
<g id="edge1" class="edge">
<title>Node2&#45;&gt;Node1</title>
<path fill="none" stroke="midnightblue" d="M90,-57.11C90,-48.15 90,-38.32 90,-30.58"/>
<polygon fill="midnightblue" stroke="midnightblue" points="86.5,-57.4 90,-67.4 93.5,-57.4 86.5,-57.4"/>
</g>
</g>
</svg>
