<?xml version="1.0" encoding="UTF-8" standalone="no"?>
<!DOCTYPE svg PUBLIC "-//W3C//DTD SVG 1.1//EN"
 "http://www.w3.org/Graphics/SVG/1.1/DTD/svg11.dtd">
<!-- Generated by graphviz version 2.46.0 (20210118.1747)
 -->
<!-- Title: detail::view Pages: 1 -->
<svg width="237pt" height="127pt"
 viewBox="0.00 0.00 237.00 126.50" xmlns="http://www.w3.org/2000/svg" xmlns:xlink="http://www.w3.org/1999/xlink">
<g id="graph0" class="graph" transform="scale(1 1) rotate(0) translate(4 122.5)">
<title>detail::view</title>
<polygon fill="white" stroke="transparent" points="-4,4 -4,-122.5 233,-122.5 233,4 -4,4"/>
<!-- Node1 -->
<g id="node1" class="node">
<title>Node1</title>
<g id="a_node1"><a xlink:title=" ">
<polygon fill="#bfbfbf" stroke="black" points="0,-44.5 0,-63.5 66,-63.5 66,-44.5 0,-44.5"/>
<text text-anchor="middle" x="33" y="-51.5" font-family="Helvetica,sans-Serif" font-size="10.00">detail::view</text>
</a>
</g>
</g>
<!-- Node2 -->
<g id="node2" class="node">
<title>Node2</title>
<g id="a_node2"><a xlink:href="structarg__join.html" target="_top" xlink:title=" ">
<polygon fill="white" stroke="black" points="110.5,-88 110.5,-118 220.5,-118 220.5,-88 110.5,-88"/>
<text text-anchor="start" x="118.5" y="-106" font-family="Helvetica,sans-Serif" font-size="10.00">arg_join&lt; It, Sentinel,</text>
<text text-anchor="middle" x="165.5" y="-95" font-family="Helvetica,sans-Serif" font-size="10.00"> Char &gt;</text>
</a>
</g>
</g>
<!-- Node1&#45;&gt;Node2 -->
<g id="edge1" class="edge">
<title>Node1&#45;&gt;Node2</title>
<path fill="none" stroke="midnightblue" d="M69.07,-67.17C86.15,-73.58 106.76,-81.32 124.45,-87.96"/>
<polygon fill="midnightblue" stroke="midnightblue" points="70.06,-63.8 59.47,-63.56 67.6,-70.36 70.06,-63.8"/>
</g>
<!-- Node3 -->
<g id="node3" class="node">
<title>Node3</title>
<g id="a_node3"><a xlink:href="structdetail_1_1named__arg.html" target="_top" xlink:title=" ">
<polygon fill="white" stroke="black" points="115.5,-39 115.5,-69 215.5,-69 215.5,-39 115.5,-39"/>
<text text-anchor="start" x="123.5" y="-57" font-family="Helvetica,sans-Serif" font-size="10.00">detail::named_arg&lt;</text>
<text text-anchor="middle" x="165.5" y="-46" font-family="Helvetica,sans-Serif" font-size="10.00"> Char, T &gt;</text>
</a>
</g>
</g>
<!-- Node1&#45;&gt;Node3 -->
<g id="edge2" class="edge">
<title>Node1&#45;&gt;Node3</title>
<path fill="none" stroke="midnightblue" d="M76.36,-54C88.8,-54 102.51,-54 115.33,-54"/>
<polygon fill="midnightblue" stroke="midnightblue" points="76.26,-50.5 66.26,-54 76.26,-57.5 76.26,-50.5"/>
</g>
<!-- Node4 -->
<g id="node4" class="node">
<title>Node4</title>
<g id="a_node4"><a xlink:href="structtuple__arg__join.html" target="_top" xlink:title=" ">
<polygon fill="white" stroke="black" points="102,-0.5 102,-19.5 229,-19.5 229,-0.5 102,-0.5"/>
<text text-anchor="middle" x="165.5" y="-7.5" font-family="Helvetica,sans-Serif" font-size="10.00">tuple_arg_join&lt; Char, T &gt;</text>
</a>
</g>
</g>
<!-- Node1&#45;&gt;Node4 -->
<g id="edge3" class="edge">
<title>Node1&#45;&gt;Node4</title>
<path fill="none" stroke="midnightblue" d="M69.96,-41.08C80.28,-37.44 91.57,-33.51 102,-30 112.37,-26.51 123.75,-22.83 133.92,-19.59"/>
<polygon fill="midnightblue" stroke="midnightblue" points="68.67,-37.83 60.42,-44.47 71.01,-44.43 68.67,-37.83"/>
</g>
</g>
</svg>
