<?xml version="1.0" encoding="UTF-8" standalone="no"?>
<!DOCTYPE svg PUBLIC "-//W3C//DTD SVG 1.1//EN"
 "http://www.w3.org/Graphics/SVG/1.1/DTD/svg11.dtd">
<!-- Generated by graphviz version 2.50.0 (20211204.2007)
 -->
<!-- Title: arg_mapper&lt; Context &gt;::formattable&lt; T, U &gt; Pages: 1 -->
<svg width="329pt" height="94pt"
 viewBox="0.00 0.00 329.00 94.00" xmlns="http://www.w3.org/2000/svg" xmlns:xlink="http://www.w3.org/1999/xlink">
<g id="graph0" class="graph" transform="scale(1 1) rotate(0) translate(4 90)">
<title>arg_mapper&lt; Context &gt;::formattable&lt; T, U &gt;</title>
<polygon fill="white" stroke="transparent" points="-4,4 -4,-90 325,-90 325,4 -4,4"/>
<!-- Node1 -->
<g id="node1" class="node">
<title>Node1</title>
<g id="a_node1"><a xlink:title=" ">
<polygon fill="#bfbfbf" stroke="black" points="205,-28 205,-58 321,-58 321,-28 205,-28"/>
<text text-anchor="start" x="213" y="-46" font-family="Helvetica,sans-Serif" font-size="10.00">arg_mapper&lt; Context</text>
<text text-anchor="middle" x="263" y="-35" font-family="Helvetica,sans-Serif" font-size="10.00"> &gt;::formattable&lt; T, U &gt;</text>
</a>
</g>
</g>
<!-- Node2 -->
<g id="node2" class="node">
<title>Node2</title>
<g id="a_node2"><a xlink:title=" ">
<polygon fill="white" stroke="#bfbfbf" points="0,-0.5 0,-85.5 169,-85.5 169,-0.5 0,-0.5"/>
<text text-anchor="start" x="8" y="-73.5" font-family="Helvetica,sans-Serif" font-size="10.00">bool_constant&lt; has</text>
<text text-anchor="start" x="8" y="-62.5" font-family="Helvetica,sans-Serif" font-size="10.00">_const_formatter&lt; remove</text>
<text text-anchor="start" x="8" y="-51.5" font-family="Helvetica,sans-Serif" font-size="10.00">_cvref_t&lt;T&gt; , Context &gt;</text>
<text text-anchor="start" x="8" y="-40.5" font-family="Helvetica,sans-Serif" font-size="10.00">()||!std::is_const&lt; remove</text>
<text text-anchor="start" x="8" y="-29.5" font-family="Helvetica,sans-Serif" font-size="10.00">_reference_t&lt; T &gt; &gt;::value|</text>
<text text-anchor="start" x="8" y="-18.5" font-family="Helvetica,sans-Serif" font-size="10.00">|has_fallback_formatter&lt; remove</text>
<text text-anchor="middle" x="84.5" y="-7.5" font-family="Helvetica,sans-Serif" font-size="10.00">_cvref_t&lt;T&gt; , char_type &gt;::value &gt;</text>
</a>
</g>
</g>
<!-- Node2&#45;&gt;Node1 -->
<g id="edge1" class="edge">
<title>Node2&#45;&gt;Node1</title>
<path fill="none" stroke="midnightblue" d="M179.33,-43C188.03,-43 196.67,-43 204.89,-43"/>
<polygon fill="midnightblue" stroke="midnightblue" points="179.1,-39.5 169.1,-43 179.1,-46.5 179.1,-39.5"/>
</g>
</g>
</svg>
