<?xml version="1.0" encoding="UTF-8" standalone="no"?>
<!DOCTYPE svg PUBLIC "-//W3C//DTD SVG 1.1//EN"
 "http://www.w3.org/Graphics/SVG/1.1/DTD/svg11.dtd">
<!-- Generated by graphviz version 2.46.0 (20210118.1747)
 -->
<!-- Title: detail::is_output_iterator&lt; It, T, void_t&lt; typename std::iterator_traits&lt; It &gt;::iterator_category, decltype(*std::declval&lt; It &gt;()=std::declval&lt; T &gt;())&gt; &gt; Pages: 1 -->
<svg width="168pt" height="139pt"
 viewBox="0.00 0.00 168.00 139.00" xmlns="http://www.w3.org/2000/svg" xmlns:xlink="http://www.w3.org/1999/xlink">
<g id="graph0" class="graph" transform="scale(1 1) rotate(0) translate(4 135)">
<title>detail::is_output_iterator&lt; It, T, void_t&lt; typename std::iterator_traits&lt; It &gt;::iterator_category, decltype(*std::declval&lt; It &gt;()=std::declval&lt; T &gt;())&gt; &gt;</title>
<polygon fill="white" stroke="transparent" points="-4,4 -4,-135 164,-135 164,4 -4,4"/>
<!-- Node1 -->
<g id="node1" class="node">
<title>Node1</title>
<g id="a_node1"><a xlink:title=" ">
<polygon fill="#bfbfbf" stroke="black" points="0,-0.5 0,-74.5 160,-74.5 160,-0.5 0,-0.5"/>
<text text-anchor="start" x="8" y="-62.5" font-family="Helvetica,sans-Serif" font-size="10.00">detail::is_output_iterator</text>
<text text-anchor="start" x="8" y="-51.5" font-family="Helvetica,sans-Serif" font-size="10.00">&lt; It, T, void_t&lt; typename</text>
<text text-anchor="start" x="8" y="-40.5" font-family="Helvetica,sans-Serif" font-size="10.00"> std::iterator_traits&lt; It</text>
<text text-anchor="start" x="8" y="-29.5" font-family="Helvetica,sans-Serif" font-size="10.00"> &gt;::iterator_category, decltype</text>
<text text-anchor="start" x="8" y="-18.5" font-family="Helvetica,sans-Serif" font-size="10.00">(*std::declval&lt; It &gt;()=std::declval</text>
<text text-anchor="middle" x="80" y="-7.5" font-family="Helvetica,sans-Serif" font-size="10.00">&lt; T &gt;())&gt; &gt;</text>
</a>
</g>
</g>
<!-- Node2 -->
<g id="node2" class="node">
<title>Node2</title>
<g id="a_node2"><a xlink:title=" ">
<polygon fill="white" stroke="#bfbfbf" points="41.5,-111.5 41.5,-130.5 118.5,-130.5 118.5,-111.5 41.5,-111.5"/>
<text text-anchor="middle" x="80" y="-118.5" font-family="Helvetica,sans-Serif" font-size="10.00">std::true_type</text>
</a>
</g>
</g>
<!-- Node2&#45;&gt;Node1 -->
<g id="edge1" class="edge">
<title>Node2&#45;&gt;Node1</title>
<path fill="none" stroke="midnightblue" d="M80,-101.11C80,-93.27 80,-83.9 80,-74.83"/>
<polygon fill="midnightblue" stroke="midnightblue" points="76.5,-101.28 80,-111.28 83.5,-101.28 76.5,-101.28"/>
</g>
</g>
</svg>
