<?xml version="1.0" encoding="UTF-8" standalone="no"?>
<!DOCTYPE svg PUBLIC "-//W3C//DTD SVG 1.1//EN"
 "http://www.w3.org/Graphics/SVG/1.1/DTD/svg11.dtd">
<!-- Generated by graphviz version 6.0.2 (20221011.1828)
 -->
<!-- Title: doctest::detail::Result Pages: 1 -->
<svg width="121pt" height="159pt"
 viewBox="0.00 0.00 121.00 159.00" xmlns="http://www.w3.org/2000/svg" xmlns:xlink="http://www.w3.org/1999/xlink">
<g id="graph0" class="graph" transform="scale(1 1) rotate(0) translate(4 155)">
<title>doctest::detail::Result</title>
<!-- Node1 -->
<g id="node1" class="node">
<title>Node1</title>
<g id="a_node1"><a xlink:title=" ">
<polygon fill="#999999" stroke="#666666" points="113,-19 0,-19 0,0 113,0 113,-19"/>
<text text-anchor="middle" x="56.5" y="-7" font-family="Helvetica,sans-Serif" font-size="10.00">doctest::detail::Result</text>
</a>
</g>
</g>
<!-- Node2 -->
<g id="node2" class="node">
<title>Node2</title>
<g id="a_node2"><a xlink:href="classdoctest_1_1String.html" target="_top" xlink:title=" ">
<polygon fill="white" stroke="#666666" points="96.5,-85 16.5,-85 16.5,-66 96.5,-66 96.5,-85"/>
<text text-anchor="middle" x="56.5" y="-73" font-family="Helvetica,sans-Serif" font-size="10.00">doctest::String</text>
</a>
</g>
</g>
<!-- Node2&#45;&gt;Node1 -->
<g id="edge1" class="edge">
<title>Node2&#45;&gt;Node1</title>
<path fill="none" stroke="#9a32cd" stroke-dasharray="5,2" d="M56.5,-55.58C56.5,-43.63 56.5,-28.72 56.5,-19.41"/>
<polygon fill="#9a32cd" stroke="#9a32cd" points="53,-55.87 56.5,-65.87 60,-55.87 53,-55.87"/>
<text text-anchor="middle" x="82.5" y="-40" font-family="Helvetica,sans-Serif" font-size="10.00"> m_decomp</text>
</g>
<!-- Node3 -->
<g id="node3" class="node">
<title>Node3</title>
<g id="a_node3"><a xlink:href="structdoctest_1_1String_1_1view.html" target="_top" xlink:title="OCLINT avoid private static members.">
<polygon fill="white" stroke="#666666" points="110,-151 3,-151 3,-132 110,-132 110,-151"/>
<text text-anchor="middle" x="56.5" y="-139" font-family="Helvetica,sans-Serif" font-size="10.00">doctest::String::view</text>
</a>
</g>
</g>
<!-- Node3&#45;&gt;Node2 -->
<g id="edge2" class="edge">
<title>Node3&#45;&gt;Node2</title>
<path fill="none" stroke="#9a32cd" stroke-dasharray="5,2" d="M56.5,-121.58C56.5,-109.63 56.5,-94.72 56.5,-85.41"/>
<polygon fill="#9a32cd" stroke="#9a32cd" points="53,-121.87 56.5,-131.87 60,-121.87 53,-121.87"/>
<text text-anchor="middle" x="67.5" y="-106" font-family="Helvetica,sans-Serif" font-size="10.00"> data</text>
</g>
</g>
</svg>
