<?xml version="1.0" encoding="UTF-8" standalone="no"?>
<!DOCTYPE svg PUBLIC "-//W3C//DTD SVG 1.1//EN"
 "http://www.w3.org/Graphics/SVG/1.1/DTD/svg11.dtd">
<!-- Generated by graphviz version 9.0.0 (20230911.1827)
 -->
<!-- Title: src/tokenize.h Pages: 1 -->
<!--zoomable 94 -->

<svg id="main" version="1.1" xmlns="http://www.w3.org/2000/svg" xmlns:xlink="http://www.w3.org/1999/xlink" xml:space="preserve" onload="init(evt)">
<style type="text/css"><![CDATA[
.node, .edge {opacity: 0.7;}
.node.selected, .edge.selected {opacity: 1;}
.edge:hover path { stroke: red; }
.edge:hover polygon { stroke: red; fill: red; }
]]></style>

<defs>
  <circle id="rim" cx="0" cy="0" r="7"/>
  <circle id="rim2" cx="0" cy="0" r="3.5"/>
  <g id="zoomPlus">
    <use xlink:href="#rim" fill="#404040"><set attributeName="fill" to="#808080" begin="zoomplus.mouseover" end="zoomplus.mouseout"/></use>
    <path d="M-4,0h8M0,-4v8" fill="none" stroke="white" stroke-width="1.5" pointer-events="none"/>
  </g>
  <g id="zoomMin">
    <use xlink:href="#rim" fill="#404040"><set attributeName="fill" to="#808080" begin="zoomminus.mouseover" end="zoomminus.mouseout"/></use>
    <path d="M-4,0h8" fill="none" stroke="white" stroke-width="1.5" pointer-events="none"/>
  </g>
  <g id="arrowUp" transform="translate(30 24)">
    <use xlink:href="#rim"/>
    <path pointer-events="none" fill="none" stroke="white" stroke-width="1.5" d="M0,-3.0v7 M-2.5,-0.5L0,-3.0L2.5,-0.5"/>
  </g>
  <g id="arrowRight" transform="rotate(90) translate(36 -43)">
    <use xlink:href="#rim"/>
    <path pointer-events="none" fill="none" stroke="white" stroke-width="1.5" d="M0,-3.0v7 M-2.5,-0.5L0,-3.0L2.5,-0.5"/>
  </g>
  <g id="arrowDown" transform="rotate(180) translate(-30 -48)">
    <use xlink:href="#rim"/>
    <path pointer-events="none" fill="none" stroke="white" stroke-width="1.5" d="M0,-3.0v7 M-2.5,-0.5L0,-3.0L2.5,-0.5"/>
  </g>
  <g id="arrowLeft" transform="rotate(270) translate(-36 17)">
    <use xlink:href="#rim"/>
    <path pointer-events="none" fill="none" stroke="white" stroke-width="1.5" d="M0,-3.0v7 M-2.5,-0.5L0,-3.0L2.5,-0.5"/>
  </g>
  <g id="resetDef">
    <use xlink:href="#rim2" fill="#404040"><set attributeName="fill" to="#808080" begin="reset.mouseover" end="reset.mouseout"/></use>
  </g>
</defs>
<script type="application/ecmascript">
var viewWidth = 3432;
var viewHeight = 94;
var sectionId = 'dynsection-1';
</script>
<script type="application/ecmascript" xlink:href="svg.min.js"/>
<svg id="graph" class="graph">
<g id="viewport">
<title>src/tokenize.h</title>
<!-- Node1 -->
<g id="Node000001" class="node">
<title>Node1</title>
<g id="a_Node000001"><a xlink:title=" ">
<polygon fill="#999999" stroke="#666666" points="1848,-85.75 1770.5,-85.75 1770.5,-66.5 1848,-66.5 1848,-85.75"/>
<text text-anchor="middle" x="1809.25" y="-72.25" font-family="Helvetica,sans-Serif" font-size="10.00">src/tokenize.h</text>
</a>
</g>
</g>
<!-- Node2 -->
<g id="Node000002" class="node">
<title>Node2</title>
<g id="a_Node000002"><a xlink:href="Ioss__ChainGenerator_8C.html" target="_top" xlink:title=" ">
<polygon fill="white" stroke="#666666" points="134.5,-24.88 0,-24.88 0,-5.63 134.5,-5.63 134.5,-24.88"/>
<text text-anchor="middle" x="67.25" y="-11.38" font-family="Helvetica,sans-Serif" font-size="10.00">src/Ioss_ChainGenerator.C</text>
</a>
</g>
</g>
<!-- Node1&#45;&gt;Node2 -->
<g id="edge1_Node000001_Node000002" class="edge">
<title>Node1&#45;&gt;Node2</title>
<g id="a_edge1_Node000001_Node000002"><a xlink:title=" ">
<path fill="none" stroke="#63b8ff" d="M1758.73,-74.85C1516.02,-73.38 468.08,-65.08 143.25,-30.5 132.17,-29.32 120.29,-27.41 109.28,-25.36"/>
<polygon fill="#63b8ff" stroke="#63b8ff" points="1758.47,-78.35 1768.49,-74.91 1758.51,-71.35 1758.47,-78.35"/>
</a>
</g>
</g>
<!-- Node3 -->
<g id="Node000003" class="node">
<title>Node3</title>
<g id="a_Node000003"><a xlink:href="Ioss__DatabaseIO_8C.html" target="_top" xlink:title=" ">
<polygon fill="white" stroke="#666666" points="272,-24.88 152.5,-24.88 152.5,-5.63 272,-5.63 272,-24.88"/>
<text text-anchor="middle" x="212.25" y="-11.38" font-family="Helvetica,sans-Serif" font-size="10.00">src/Ioss_DatabaseIO.C</text>
</a>
</g>
</g>
<!-- Node1&#45;&gt;Node3 -->
<g id="edge2_Node000001_Node000003" class="edge">
<title>Node1&#45;&gt;Node3</title>
<g id="a_edge2_Node000001_Node000003"><a xlink:title=" ">
<path fill="none" stroke="#63b8ff" d="M1758.86,-74.86C1528.74,-73.44 576.24,-65.55 280.25,-30.5 270.31,-29.32 259.66,-27.41 249.82,-25.36"/>
<polygon fill="#63b8ff" stroke="#63b8ff" points="1758.66,-78.35 1768.69,-74.91 1758.71,-71.36 1758.66,-78.35"/>
</a>
</g>
</g>
<!-- Node4 -->
<g id="Node000004" class="node">
<title>Node4</title>
<g id="a_Node000004"><a xlink:href="Ioss__FileInfo_8C.html" target="_top" xlink:title=" ">
<polygon fill="white" stroke="#666666" points="388.88,-24.88 289.62,-24.88 289.62,-5.63 388.88,-5.63 388.88,-24.88"/>
<text text-anchor="middle" x="339.25" y="-11.38" font-family="Helvetica,sans-Serif" font-size="10.00">src/Ioss_FileInfo.C</text>
</a>
</g>
</g>
<!-- Node1&#45;&gt;Node4 -->
<g id="edge3_Node000001_Node000004" class="edge">
<title>Node1&#45;&gt;Node4</title>
<g id="a_edge3_Node000001_Node000004"><a xlink:title=" ">
<path fill="none" stroke="#63b8ff" d="M1758.84,-74.95C1539.66,-73.95 668.36,-67.67 397.25,-30.5 388.62,-29.32 379.41,-27.38 370.93,-25.3"/>
<polygon fill="#63b8ff" stroke="#63b8ff" points="1758.74,-78.44 1768.76,-74.99 1758.77,-71.44 1758.74,-78.44"/>
</a>
</g>
</g>
<!-- Node5 -->
<g id="Node000005" class="node">
<title>Node5</title>
<g id="a_Node000005"><a xlink:href="Ioss__ParallelUtils_8C.html" target="_top" xlink:title=" ">
<polygon fill="white" stroke="#666666" points="526,-24.88 406.5,-24.88 406.5,-5.63 526,-5.63 526,-24.88"/>
<text text-anchor="middle" x="466.25" y="-11.38" font-family="Helvetica,sans-Serif" font-size="10.00">src/Ioss_ParallelUtils.C</text>
</a>
</g>
</g>
<!-- Node1&#45;&gt;Node5 -->
<g id="edge4_Node000001_Node000005" class="edge">
<title>Node1&#45;&gt;Node5</title>
<g id="a_edge4_Node000001_Node000005"><a xlink:title=" ">
<path fill="none" stroke="#63b8ff" d="M1758.81,-74.52C1553.19,-71.86 777.57,-60.03 534.25,-30.5 524.31,-29.29 513.67,-27.37 503.82,-25.32"/>
<polygon fill="#63b8ff" stroke="#63b8ff" points="1758.58,-78.01 1768.62,-74.64 1758.67,-71.01 1758.58,-78.01"/>
</a>
</g>
</g>
<!-- Node6 -->
<g id="Node000006" class="node">
<title>Node6</title>
<g id="a_Node000006"><a xlink:href="Ioss__SideBlock_8C.html" target="_top" xlink:title=" ">
<polygon fill="white" stroke="#666666" points="654.88,-24.88 543.62,-24.88 543.62,-5.63 654.88,-5.63 654.88,-24.88"/>
<text text-anchor="middle" x="599.25" y="-11.38" font-family="Helvetica,sans-Serif" font-size="10.00">src/Ioss_SideBlock.C</text>
</a>
</g>
</g>
<!-- Node1&#45;&gt;Node6 -->
<g id="edge5_Node000001_Node000006" class="edge">
<title>Node1&#45;&gt;Node6</title>
<g id="a_edge5_Node000001_Node000006"><a xlink:title=" ">
<path fill="none" stroke="#63b8ff" d="M1758.65,-74.37C1566.2,-71.3 879.74,-58.58 663.25,-30.5 653.88,-29.28 643.86,-27.36 634.59,-25.31"/>
<polygon fill="#63b8ff" stroke="#63b8ff" points="1758.51,-77.87 1768.57,-74.52 1758.62,-70.87 1758.51,-77.87"/>
</a>
</g>
</g>
<!-- Node7 -->
<g id="Node000007" class="node">
<title>Node7</title>
<g id="a_Node000007"><a xlink:href="Ioss__Utils_8C.html" target="_top" xlink:title=" ">
<polygon fill="white" stroke="#666666" points="759.88,-24.88 672.62,-24.88 672.62,-5.63 759.88,-5.63 759.88,-24.88"/>
<text text-anchor="middle" x="716.25" y="-11.38" font-family="Helvetica,sans-Serif" font-size="10.00">src/Ioss_Utils.C</text>
</a>
</g>
</g>
<!-- Node1&#45;&gt;Node7 -->
<g id="edge6_Node000001_Node000007" class="edge">
<title>Node1&#45;&gt;Node7</title>
<g id="a_edge6_Node000001_Node000007"><a xlink:title=" ">
<path fill="none" stroke="#63b8ff" d="M1758.88,-74.43C1578.24,-71.71 963.47,-60.4 769.25,-30.5 761.43,-29.3 753.11,-27.38 745.44,-25.33"/>
<polygon fill="#63b8ff" stroke="#63b8ff" points="1758.57,-77.92 1768.62,-74.57 1758.68,-70.93 1758.57,-77.92"/>
</a>
</g>
</g>
<!-- Node8 -->
<g id="Node000008" class="node">
<title>Node8</title>
<g id="a_Node000008"><a xlink:href="Ioad__DatabaseIO_8C.html" target="_top" xlink:title=" ">
<polygon fill="white" stroke="#666666" points="924.12,-24.88 778.38,-24.88 778.38,-5.63 924.12,-5.63 924.12,-24.88"/>
<text text-anchor="middle" x="851.25" y="-11.38" font-family="Helvetica,sans-Serif" font-size="10.00">src/adios/Ioad_DatabaseIO.C</text>
</a>
</g>
</g>
<!-- Node1&#45;&gt;Node8 -->
<g id="edge7_Node000001_Node000008" class="edge">
<title>Node1&#45;&gt;Node8</title>
<g id="a_edge7_Node000001_Node000008"><a xlink:title=" ">
<path fill="none" stroke="#63b8ff" d="M1758.75,-74.69C1624.15,-73.07 1245.78,-65.49 933.25,-30.5 921.76,-29.21 909.45,-27.34 897.94,-25.37"/>
<polygon fill="#63b8ff" stroke="#63b8ff" points="1758.71,-78.19 1768.74,-74.8 1758.78,-71.19 1758.71,-78.19"/>
</a>
</g>
</g>
<!-- Node9 -->
<g id="Node000009" class="node">
<title>Node9</title>
<g id="a_Node000009"><a xlink:href="Iocatalyst__DatabaseIO_8C.html" target="_top" xlink:title=" ">
<polygon fill="white" stroke="#666666" points="1054.62,-30.5 941.88,-30.5 941.88,0 1054.62,0 1054.62,-30.5"/>
<text text-anchor="start" x="949.88" y="-17" font-family="Helvetica,sans-Serif" font-size="10.00">src/catalyst/Iocatalyst</text>
<text text-anchor="middle" x="998.25" y="-5.75" font-family="Helvetica,sans-Serif" font-size="10.00">_DatabaseIO.C</text>
</a>
</g>
</g>
<!-- Node1&#45;&gt;Node9 -->
<g id="edge8_Node000001_Node000009" class="edge">
<title>Node1&#45;&gt;Node9</title>
<g id="a_edge8_Node000001_Node000009"><a xlink:title=" ">
<path fill="none" stroke="#63b8ff" d="M1758.8,-74.82C1638.07,-73.49 1323.19,-66.54 1063.25,-30.5 1060.5,-30.12 1057.7,-29.68 1054.88,-29.21"/>
<polygon fill="#63b8ff" stroke="#63b8ff" points="1758.66,-78.31 1768.69,-74.92 1758.73,-71.32 1758.66,-78.31"/>
</a>
</g>
</g>
<!-- Node10 -->
<g id="Node000010" class="node">
<title>Node10</title>
<g id="a_Node000010"><a xlink:href="Iocgns__DatabaseIO_8C.html" target="_top" xlink:title=" ">
<polygon fill="white" stroke="#666666" points="1226.25,-24.88 1072.25,-24.88 1072.25,-5.63 1226.25,-5.63 1226.25,-24.88"/>
<text text-anchor="middle" x="1149.25" y="-11.38" font-family="Helvetica,sans-Serif" font-size="10.00">src/cgns/Iocgns_DatabaseIO.C</text>
</a>
</g>
</g>
<!-- Node1&#45;&gt;Node10 -->
<g id="edge9_Node000001_Node000010" class="edge">
<title>Node1&#45;&gt;Node10</title>
<g id="a_edge9_Node000001_Node000010"><a xlink:title=" ">
<path fill="none" stroke="#63b8ff" d="M1758.9,-72.68C1658.85,-67.5 1428.05,-53.92 1235.25,-30.5 1223.68,-29.09 1211.29,-27.25 1199.62,-25.35"/>
<polygon fill="#63b8ff" stroke="#63b8ff" points="1758.48,-76.16 1768.65,-73.18 1758.84,-69.17 1758.48,-76.16"/>
</a>
</g>
</g>
<!-- Node11 -->
<g id="Node000011" class="node">
<title>Node11</title>
<g id="a_Node000011"><a xlink:href="Iocgns__StructuredZoneData_8C.html" target="_top" xlink:title=" ">
<polygon fill="white" stroke="#666666" points="1380.25,-30.5 1244.25,-30.5 1244.25,0 1380.25,0 1380.25,-30.5"/>
<text text-anchor="start" x="1252.25" y="-17" font-family="Helvetica,sans-Serif" font-size="10.00">src/cgns/Iocgns_Structured</text>
<text text-anchor="middle" x="1312.25" y="-5.75" font-family="Helvetica,sans-Serif" font-size="10.00">ZoneData.C</text>
</a>
</g>
</g>
<!-- Node1&#45;&gt;Node11 -->
<g id="edge10_Node000001_Node000011" class="edge">
<title>Node1&#45;&gt;Node11</title>
<g id="a_edge10_Node000001_Node000011"><a xlink:title=" ">
<path fill="none" stroke="#63b8ff" d="M1758.97,-71.05C1680.01,-64.36 1522.21,-49.84 1389.25,-30.5 1386.42,-30.09 1383.54,-29.65 1380.64,-29.19"/>
<polygon fill="#63b8ff" stroke="#63b8ff" points="1758.27,-74.5 1768.53,-71.85 1758.86,-67.52 1758.27,-74.5"/>
</a>
</g>
</g>
<!-- Node12 -->
<g id="Node000012" class="node">
<title>Node12</title>
<g id="a_Node000012"><a xlink:href="Iocgns__Utils_8C.html" target="_top" xlink:title=" ">
<polygon fill="white" stroke="#666666" points="1520.12,-24.88 1398.38,-24.88 1398.38,-5.63 1520.12,-5.63 1520.12,-24.88"/>
<text text-anchor="middle" x="1459.25" y="-11.38" font-family="Helvetica,sans-Serif" font-size="10.00">src/cgns/Iocgns_Utils.C</text>
</a>
</g>
</g>
<!-- Node1&#45;&gt;Node12 -->
<g id="edge11_Node000001_Node000012" class="edge">
<title>Node1&#45;&gt;Node12</title>
<g id="a_edge11_Node000001_Node000012"><a xlink:title=" ">
<path fill="none" stroke="#63b8ff" d="M1759.16,-67.8C1703.05,-59.45 1609.45,-45.05 1529.25,-30.5 1520.59,-28.93 1511.34,-27.13 1502.51,-25.36"/>
<polygon fill="#63b8ff" stroke="#63b8ff" points="1758.3,-71.21 1768.71,-69.22 1759.33,-64.29 1758.3,-71.21"/>
</a>
</g>
</g>
<!-- Node13 -->
<g id="Node000013" class="node">
<title>Node13</title>
<g id="a_Node000013"><a xlink:href="Ioex__BaseDatabaseIO_8C.html" target="_top" xlink:title=" ">
<polygon fill="white" stroke="#666666" points="1714.5,-24.88 1538,-24.88 1538,-5.63 1714.5,-5.63 1714.5,-24.88"/>
<text text-anchor="middle" x="1626.25" y="-11.38" font-family="Helvetica,sans-Serif" font-size="10.00">src/exodus/Ioex_BaseDatabaseIO.C</text>
</a>
</g>
</g>
<!-- Node1&#45;&gt;Node13 -->
<g id="edge12_Node000001_Node000013" class="edge">
<title>Node1&#45;&gt;Node13</title>
<g id="a_edge12_Node000001_Node000013"><a xlink:title=" ">
<path fill="none" stroke="#63b8ff" d="M1770.36,-62.61C1735.6,-51.43 1685.52,-35.32 1654.47,-25.33"/>
<polygon fill="#63b8ff" stroke="#63b8ff" points="1769.03,-65.86 1779.62,-65.59 1771.17,-59.2 1769.03,-65.86"/>
</a>
</g>
</g>
<!-- Node14 -->
<g id="Node000014" class="node">
<title>Node14</title>
<g id="a_Node000014"><a xlink:href="Ioex__DatabaseIO_8C.html" target="_top" xlink:title=" ">
<polygon fill="white" stroke="#666666" points="1886.25,-24.88 1732.25,-24.88 1732.25,-5.63 1886.25,-5.63 1886.25,-24.88"/>
<text text-anchor="middle" x="1809.25" y="-11.38" font-family="Helvetica,sans-Serif" font-size="10.00">src/exodus/Ioex_DatabaseIO.C</text>
</a>
</g>
</g>
<!-- Node1&#45;&gt;Node14 -->
<g id="edge13_Node000001_Node000014" class="edge">
<title>Node1&#45;&gt;Node14</title>
<g id="a_edge13_Node000001_Node000014"><a xlink:title=" ">
<path fill="none" stroke="#63b8ff" d="M1809.25,-54.7C1809.25,-44.67 1809.25,-33.08 1809.25,-25.28"/>
<polygon fill="#63b8ff" stroke="#63b8ff" points="1805.75,-54.67 1809.25,-64.67 1812.75,-54.67 1805.75,-54.67"/>
</a>
</g>
</g>
<!-- Node15 -->
<g id="Node000015" class="node">
<title>Node15</title>
<g id="a_Node000015"><a xlink:href="Ioex__Utils_8C.html" target="_top" xlink:title=" ">
<polygon fill="white" stroke="#666666" points="2026.12,-24.88 1904.38,-24.88 1904.38,-5.63 2026.12,-5.63 2026.12,-24.88"/>
<text text-anchor="middle" x="1965.25" y="-11.38" font-family="Helvetica,sans-Serif" font-size="10.00">src/exodus/Ioex_Utils.C</text>
</a>
</g>
</g>
<!-- Node1&#45;&gt;Node15 -->
<g id="edge14_Node000001_Node000015" class="edge">
<title>Node1&#45;&gt;Node15</title>
<g id="a_edge14_Node000001_Node000015"><a xlink:title=" ">
<path fill="none" stroke="#63b8ff" d="M1843.96,-62.03C1873.5,-50.88 1915.18,-35.15 1941.19,-25.33"/>
<polygon fill="#63b8ff" stroke="#63b8ff" points="1842.82,-58.71 1834.7,-65.52 1845.29,-65.26 1842.82,-58.71"/>
</a>
</g>
</g>
<!-- Node16 -->
<g id="Node000016" class="node">
<title>Node16</title>
<g id="a_Node000016"><a xlink:href="Ioexnl__BaseDatabaseIO_8C.html" target="_top" xlink:title=" ">
<polygon fill="white" stroke="#666666" points="2150.62,-30.5 2043.88,-30.5 2043.88,0 2150.62,0 2150.62,-30.5"/>
<text text-anchor="start" x="2051.88" y="-17" font-family="Helvetica,sans-Serif" font-size="10.00">src/exonull/Ioexnl</text>
<text text-anchor="middle" x="2097.25" y="-5.75" font-family="Helvetica,sans-Serif" font-size="10.00">_BaseDatabaseIO.C</text>
</a>
</g>
</g>
<!-- Node1&#45;&gt;Node16 -->
<g id="edge15_Node000001_Node000016" class="edge">
<title>Node1&#45;&gt;Node16</title>
<g id="a_edge15_Node000001_Node000016"><a xlink:title=" ">
<path fill="none" stroke="#63b8ff" d="M1859.24,-65.71C1905.09,-56.97 1974.86,-43.4 2035.25,-30.5 2037.95,-29.92 2040.71,-29.32 2043.5,-28.71"/>
<polygon fill="#63b8ff" stroke="#63b8ff" points="1858.77,-62.24 1849.6,-67.55 1860.08,-69.12 1858.77,-62.24"/>
</a>
</g>
</g>
<!-- Node17 -->
<g id="Node000017" class="node">
<title>Node17</title>
<g id="a_Node000017"><a xlink:href="Ioexnl__Utils_8C.html" target="_top" xlink:title=" ">
<polygon fill="white" stroke="#666666" points="2261.5,-30.5 2169,-30.5 2169,0 2261.5,0 2261.5,-30.5"/>
<text text-anchor="start" x="2177" y="-17" font-family="Helvetica,sans-Serif" font-size="10.00">src/exonull/Ioexnl</text>
<text text-anchor="middle" x="2215.25" y="-5.75" font-family="Helvetica,sans-Serif" font-size="10.00">_Utils.C</text>
</a>
</g>
</g>
<!-- Node1&#45;&gt;Node17 -->
<g id="edge16_Node000001_Node000017" class="edge">
<title>Node1&#45;&gt;Node17</title>
<g id="a_edge16_Node000001_Node000017"><a xlink:title=" ">
<path fill="none" stroke="#63b8ff" d="M1859.6,-70.66C1927.87,-64.16 2053.44,-50.63 2159.25,-30.5 2162.31,-29.92 2165.44,-29.27 2168.59,-28.58"/>
<polygon fill="#63b8ff" stroke="#63b8ff" points="1859.48,-67.15 1849.85,-71.57 1860.13,-74.12 1859.48,-67.15"/>
</a>
</g>
</g>
<!-- Node18 -->
<g id="Node000018" class="node">
<title>Node18</title>
<g id="a_Node000018"><a xlink:href="Iogs__GeneratedMesh_8C.html" target="_top" xlink:title=" ">
<polygon fill="white" stroke="#666666" points="2380.62,-30.5 2279.88,-30.5 2279.88,0 2380.62,0 2380.62,-30.5"/>
<text text-anchor="start" x="2287.88" y="-17" font-family="Helvetica,sans-Serif" font-size="10.00">src/gen_struc/Iogs</text>
<text text-anchor="middle" x="2330.25" y="-5.75" font-family="Helvetica,sans-Serif" font-size="10.00">_GeneratedMesh.C</text>
</a>
</g>
</g>
<!-- Node1&#45;&gt;Node18 -->
<g id="edge17_Node000001_Node000018" class="edge">
<title>Node1&#45;&gt;Node18</title>
<g id="a_edge17_Node000001_Node000018"><a xlink:title=" ">
<path fill="none" stroke="#63b8ff" d="M1859.73,-72.5C1944.85,-67.57 2122.15,-55.14 2270.25,-30.5 2273.31,-29.99 2276.45,-29.41 2279.61,-28.79"/>
<polygon fill="#63b8ff" stroke="#63b8ff" points="1859.64,-69 1849.85,-73.06 1860.03,-75.99 1859.64,-69"/>
</a>
</g>
</g>
<!-- Node19 -->
<g id="Node000019" class="node">
<title>Node19</title>
<g id="a_Node000019"><a xlink:href="Iogn__GeneratedMesh_8C.html" target="_top" xlink:title=" ">
<polygon fill="white" stroke="#666666" points="2499.62,-30.5 2398.88,-30.5 2398.88,0 2499.62,0 2499.62,-30.5"/>
<text text-anchor="start" x="2406.88" y="-17" font-family="Helvetica,sans-Serif" font-size="10.00">src/generated/Iogn</text>
<text text-anchor="middle" x="2449.25" y="-5.75" font-family="Helvetica,sans-Serif" font-size="10.00">_GeneratedMesh.C</text>
</a>
</g>
</g>
<!-- Node1&#45;&gt;Node19 -->
<g id="edge18_Node000001_Node000019" class="edge">
<title>Node1&#45;&gt;Node19</title>
<g id="a_edge18_Node000001_Node000019"><a xlink:title=" ">
<path fill="none" stroke="#63b8ff" d="M1859.54,-73.9C1960.51,-70.86 2194.89,-60.87 2389.25,-30.5 2392.32,-30.02 2395.46,-29.47 2398.62,-28.86"/>
<polygon fill="#63b8ff" stroke="#63b8ff" points="1859.59,-70.4 1849.69,-74.19 1859.79,-77.39 1859.59,-70.4"/>
</a>
</g>
</g>
<!-- Node20 -->
<g id="Node000020" class="node">
<title>Node20</title>
<g id="a_Node000020"><a xlink:href="io__info_8C.html" target="_top" xlink:title=" ">
<polygon fill="white" stroke="#666666" points="2613,-24.88 2517.5,-24.88 2517.5,-5.63 2613,-5.63 2613,-24.88"/>
<text text-anchor="middle" x="2565.25" y="-11.38" font-family="Helvetica,sans-Serif" font-size="10.00">src/main/io_info.C</text>
</a>
</g>
</g>
<!-- Node1&#45;&gt;Node20 -->
<g id="edge19_Node000001_Node000020" class="edge">
<title>Node1&#45;&gt;Node20</title>
<g id="a_edge19_Node000001_Node000020"><a xlink:title=" ">
<path fill="none" stroke="#63b8ff" d="M1859.41,-75.03C1974.7,-74.13 2267.21,-68.01 2508.25,-30.5 2516.41,-29.23 2525.12,-27.34 2533.2,-25.34"/>
<polygon fill="#63b8ff" stroke="#63b8ff" points="1859.65,-71.53 1849.68,-75.09 1859.7,-78.53 1859.65,-71.53"/>
</a>
</g>
</g>
<!-- Node21 -->
<g id="Node000021" class="node">
<title>Node21</title>
<g id="a_Node000021"><a xlink:href="io__modify_8C.html" target="_top" xlink:title=" ">
<polygon fill="white" stroke="#666666" points="2739,-24.88 2631.5,-24.88 2631.5,-5.63 2739,-5.63 2739,-24.88"/>
<text text-anchor="middle" x="2685.25" y="-11.38" font-family="Helvetica,sans-Serif" font-size="10.00">src/main/io_modify.C</text>
</a>
</g>
</g>
<!-- Node1&#45;&gt;Node21 -->
<g id="edge20_Node000001_Node000021" class="edge">
<title>Node1&#45;&gt;Node21</title>
<g id="a_edge20_Node000001_Node000021"><a xlink:title=" ">
<path fill="none" stroke="#63b8ff" d="M1859.75,-75.28C1987.88,-75.05 2335.79,-70.47 2622.25,-30.5 2631.25,-29.24 2640.86,-27.36 2649.79,-25.36"/>
<polygon fill="#63b8ff" stroke="#63b8ff" points="1859.91,-71.78 1849.91,-75.29 1859.91,-78.78 1859.91,-71.78"/>
</a>
</g>
</g>
<!-- Node22 -->
<g id="Node000022" class="node">
<title>Node22</title>
<g id="a_Node000022"><a xlink:href="io__shell_8C.html" target="_top" xlink:title=" ">
<polygon fill="white" stroke="#666666" points="2857.25,-24.88 2757.25,-24.88 2757.25,-5.63 2857.25,-5.63 2857.25,-24.88"/>
<text text-anchor="middle" x="2807.25" y="-11.38" font-family="Helvetica,sans-Serif" font-size="10.00">src/main/io_shell.C</text>
</a>
</g>
</g>
<!-- Node1&#45;&gt;Node22 -->
<g id="edge21_Node000001_Node000022" class="edge">
<title>Node1&#45;&gt;Node22</title>
<g id="a_edge21_Node000001_Node000022"><a xlink:title=" ">
<path fill="none" stroke="#63b8ff" d="M1859.68,-73.99C2028.7,-69.99 2574.32,-55.41 2748.25,-30.5 2756.8,-29.28 2765.93,-27.37 2774.39,-25.35"/>
<polygon fill="#63b8ff" stroke="#63b8ff" points="1859.83,-70.48 1849.91,-74.22 1859.99,-77.48 1859.83,-70.48"/>
</a>
</g>
</g>
<!-- Node23 -->
<g id="Node000023" class="node">
<title>Node23</title>
<g id="a_Node000023"><a xlink:href="shell__interface_8C.html" target="_top" xlink:title=" ">
<polygon fill="white" stroke="#666666" points="3005.25,-24.88 2875.25,-24.88 2875.25,-5.63 3005.25,-5.63 3005.25,-24.88"/>
<text text-anchor="middle" x="2940.25" y="-11.38" font-family="Helvetica,sans-Serif" font-size="10.00">src/main/shell_interface.C</text>
</a>
</g>
</g>
<!-- Node1&#45;&gt;Node23 -->
<g id="edge22_Node000001_Node000023" class="edge">
<title>Node1&#45;&gt;Node23</title>
<g id="a_edge22_Node000001_Node000023"><a xlink:title=" ">
<path fill="none" stroke="#63b8ff" d="M1859.53,-75.64C2011.77,-76.62 2480.87,-75.49 2866.25,-30.5 2876.91,-29.26 2888.33,-27.35 2898.93,-25.33"/>
<polygon fill="#63b8ff" stroke="#63b8ff" points="1859.82,-72.14 1849.8,-75.57 1859.77,-79.14 1859.82,-72.14"/>
</a>
</g>
</g>
<!-- Node24 -->
<g id="Node000024" class="node">
<title>Node24</title>
<g id="a_Node000024"><a xlink:href="skinner__interface_8C.html" target="_top" xlink:title=" ">
<polygon fill="white" stroke="#666666" points="3164.88,-24.88 3023.62,-24.88 3023.62,-5.63 3164.88,-5.63 3164.88,-24.88"/>
<text text-anchor="middle" x="3094.25" y="-11.38" font-family="Helvetica,sans-Serif" font-size="10.00">src/main/skinner_interface.C</text>
</a>
</g>
</g>
<!-- Node1&#45;&gt;Node24 -->
<g id="edge23_Node000001_Node000024" class="edge">
<title>Node1&#45;&gt;Node24</title>
<g id="a_edge23_Node000001_Node000024"><a xlink:title=" ">
<path fill="none" stroke="#63b8ff" d="M1859.77,-74.19C2058.28,-70.39 2785.02,-55.04 3014.25,-30.5 3025.75,-29.27 3038.09,-27.36 3049.56,-25.34"/>
<polygon fill="#63b8ff" stroke="#63b8ff" points="1859.72,-70.69 1849.79,-74.38 1859.86,-77.69 1859.72,-70.69"/>
</a>
</g>
</g>
<!-- Node25 -->
<g id="Node000025" class="node">
<title>Node25</title>
<g id="a_Node000025"><a xlink:href="tokenize_8C.html" target="_top" xlink:title=" ">
<polygon fill="white" stroke="#666666" points="3263.12,-24.88 3183.38,-24.88 3183.38,-5.63 3263.12,-5.63 3263.12,-24.88"/>
<text text-anchor="middle" x="3223.25" y="-11.38" font-family="Helvetica,sans-Serif" font-size="10.00">src/tokenize.C</text>
</a>
</g>
</g>
<!-- Node1&#45;&gt;Node25 -->
<g id="edge24_Node000001_Node000025" class="edge">
<title>Node1&#45;&gt;Node25</title>
<g id="a_edge24_Node000001_Node000025"><a xlink:title=" ">
<path fill="none" stroke="#63b8ff" d="M1859.75,-75.16C2074.62,-75.06 2913.7,-71.97 3174.25,-30.5 3181.6,-29.33 3189.4,-27.39 3196.57,-25.32"/>
<polygon fill="#63b8ff" stroke="#63b8ff" points="1859.75,-71.66 1849.75,-75.16 1859.75,-78.66 1859.75,-71.66"/>
</a>
</g>
</g>
<!-- Node26 -->
<g id="Node000026" class="node">
<title>Node26</title>
<g id="a_Node000026"><a xlink:href="Iovs__exodus__DatabaseIO_8C.html" target="_top" xlink:title=" ">
<polygon fill="white" stroke="#666666" points="3423.62,-30.5 3280.88,-30.5 3280.88,0 3423.62,0 3423.62,-30.5"/>
<text text-anchor="start" x="3288.88" y="-17" font-family="Helvetica,sans-Serif" font-size="10.00">src/visualization/exodus</text>
<text text-anchor="middle" x="3352.25" y="-5.75" font-family="Helvetica,sans-Serif" font-size="10.00">/Iovs_exodus_DatabaseIO.C</text>
</a>
</g>
</g>
<!-- Node1&#45;&gt;Node26 -->
<g id="edge25_Node000001_Node000026" class="edge">
<title>Node1&#45;&gt;Node26</title>
<g id="a_edge25_Node000001_Node000026"><a xlink:title=" ">
<path fill="none" stroke="#63b8ff" d="M1859.6,-74.58C2083.42,-71.98 2989.49,-59.84 3272.25,-30.5 3275.06,-30.21 3277.91,-29.88 3280.79,-29.51"/>
<polygon fill="#63b8ff" stroke="#63b8ff" points="1859.72,-71.07 1849.76,-74.69 1859.8,-78.07 1859.72,-71.07"/>
</a>
</g>
</g>
</g>
</svg>

<g id="navigator" transform="translate(0 0)" fill="#404254">
  <rect fill="#f2f5e9" fill-opacity="0.5" stroke="#606060" stroke-width=".5" x="0" y="0" width="60" height="60"/>
  <use id="zoomplus" xlink:href="#zoomPlus" x="17" y="9" onmousedown="handleZoom(evt,'in')"/>
  <use id="zoomminus" xlink:href="#zoomMin" x="42" y="9" onmousedown="handleZoom(evt,'out')"/>
  <use id="reset" xlink:href="#resetDef" x="30" y="36" onmousedown="handleReset()"/>
   <use id="arrowup" xlink:href="#arrowUp" x="0" y="0" onmousedown="handlePan(0,-1)"/>
  <use id="arrowright" xlink:href="#arrowRight" x="0" y="0" onmousedown="handlePan(1,0)"/>
  <use id="arrowdown" xlink:href="#arrowDown" x="0" y="0" onmousedown="handlePan(0,1)"/>
  <use id="arrowleft" xlink:href="#arrowLeft" x="0" y="0" onmousedown="handlePan(-1,0)"/>
</g>
<svg viewBox="0 0 15 15" width="100%" height="30px" preserveAspectRatio="xMaxYMin meet">
 <g id="arrow_out" transform="scale(0.3 0.3)">
  <a xlink:href="tokenize_8h__dep__incl_org.svg" target="_base">
   <rect id="button" ry="5" rx="5" y="6" x="6" height="38" width="38"
        fill="#f2f5e9" fill-opacity="0.5" stroke="#606060" stroke-width="1.0"/>
   <path id="arrow"
     d="M 11.500037,31.436501 C 11.940474,20.09759 22.043105,11.32322 32.158766,21.979434 L 37.068811,17.246167 C 37.068811,17.246167 37.088388,32 37.088388,32 L 22.160133,31.978069 C 22.160133,31.978069 26.997745,27.140456 26.997745,27.140456 C 18.528582,18.264221 13.291696,25.230495 11.500037,31.436501 z"
     style="fill:#404040;"/>
  </a>
 </g>
</svg>

<style type='text/css'>
<![CDATA[
[data-mouse-over-selected='false'] { opacity: 0.7; }
[data-mouse-over-selected='true']  { opacity: 1.0; }
]]>
</style>
<script type="application/ecmascript"><![CDATA[
document.addEventListener('DOMContentLoaded', (event) => {
  highlightEdges();
  highlightAdjacentNodes();
});
]]></script>
</svg>
